<svg xmlns="http://www.w3.org/2000/svg" viewBox="-24.7984944 -18.365994399999998 36.8125188 27.8085588">
<rect width="100%" height="100%" fill="white"/>
<g   fill="none"
   stroke="rgb(0, 0, 0)"
   stroke-linecap="butt"
   stroke-linejoin="miter"
   stroke-width="0.35"
   transform="scale(1, -1)"
  >
<path id= "1" d=" M -22.2597 7.96901 L -22.2597 7.54443 " />
<path id= "2" d=" M -18.0312 15.293 L -17.6635 15.5053 " />
<path id= "3" d=" M -20.9135 4.56888 L -17.3921 2.5358 " />
<path id= "4" d=" M -14.4135 15.8272 L -10.8921 13.7941 " />
<path id= "5" d=" M -13.5804 3.22184 L -2 -3.4641 " />
<path id= "6" d=" M -9.5804 10.15 L 2 3.4641 " />
<path id= "7" d=" M 2.85232 1.81731 L 2.94073 1.76627 " />
<path id= "8" d=" M 0.205877 -3.58296 L 0.294287 -3.63401 " />
<path id= "9" d=" M 3.55943 1.40906 L 3.64784 1.35802 " />
<path id= "10" d=" M 0.912986 -3.99121 L 1.00139 -4.04226 " />
<path id= "11" d=" M 4.26654 1.00081 L 4.35494 0.949773 " />
<path id= "12" d=" M 1.62009 -4.39946 L 1.7085 -4.4505 " />
<path id= "13" d=" M 4.97365 0.592564 L 5.06205 0.541525 " />
<path id= "14" d=" M 2.3272 -4.80771 L 2.41561 -4.85875 " />
<path id= "15" d=" M 5.68076 0.184315 L 5.76916 0.133277 " />
<path id= "16" d=" M 3.03431 -5.21596 L 3.12271 -5.267 " />
<path id= "17" d=" M 6.38787 -0.223935 L 6.47626 -0.274971 " />
<path id= "18" d=" M 3.74142 -5.62421 L 3.82982 -5.67525 " />
<path id= "19" d=" M 7.09497 -0.632184 L 7.18337 -0.68322 " />
<path id= "20" d=" M 4.44853 -6.03246 L 4.53693 -6.0835 " />
<path id= "21" d=" M 7.80208 -1.04043 L 7.89048 -1.09147 " />
<path id= "22" d=" M 5.15564 -6.44071 L 5.24403 -6.49175 " />
<path id= "23" d=" M 8.50919 -1.44868 L 8.59758 -1.49972 " />
<path id= "24" d=" M 7.37482 -6.6832 L 7.35391 -6.69527 " />
<path id= "25" d=" M 7.77817 -6.45032 L 7.75071 -6.46618 " />
</g>
<g   fill="none"
   stroke="rgb(0, 0, 0)"
   stroke-linecap="butt"
   stroke-linejoin="miter"
   stroke-width="0.35"
   transform="scale(1, -1)"
  >
<path d="M-13.8027 12.8517 A5.98 3.45255 60 0 1 -18.0312 15.293" />
<path d="M-18.0312 15.293 A5.98 3.45255 60 0 1 -22.2597 7.96901" />
<path d="M-22.2597 7.96901 A5.98 3.45255 60 0 1 -13.8027 12.8517" />
<path d="M-19.6724 9.46281 A2.32095 1.34 -120 0 0 -16.3901 11.3579" />
<path d="M-16.3901 11.3579 A2.32095 1.34 -120 0 0 -18.0312 8.51529" />
<path d="M-18.0312 8.51529 A2.32095 1.34 -120 0 0 -19.6724 9.46281" />
<path d="M-13.0673 12.8517 A6.5 3.75278 60 0 1 -14.4135 15.8272" />
<path d="M-14.4135 15.8272 A6.5 3.75278 60 0 1 -17.6635 15.5053" />
<path d="M-22.2597 7.54443 A6.5 3.75278 60 0 1 -20.9135 4.56888" />
<path d="M-20.9135 4.56888 A6.5 3.75278 60 0 1 -13.0673 12.8517" />
<path d="M-17.2066, 12.51 L-17.2732, 12.4033  L-17.3453, 12.3046  L-17.4233, 12.2134  L-17.5076, 12.129  L-17.5989, 12.051  L-17.6975, 11.979  L-17.8043, 11.9123  L-17.9197, 11.8507  L-18.0446, 11.7937  L-18.1797, 11.741  L-18.3258, 11.6923  L-18.4838, 11.6473  L-18.6547, 11.6057  L-18.8396, 11.5672 " /><path d="M-18.8396, 11.5672 L-18.8433, 11.371  L-18.8547, 11.1859  L-18.8736, 11.0107  L-18.9004, 10.8444  L-18.935, 10.686  L-18.9778, 10.5344  L-19.029, 10.3887  L-19.0889, 10.2481  L-19.1579, 10.1116  L-19.2364, 9.97841  L-19.3249, 9.84776  L-19.4239, 9.7188  L-19.5341, 9.59075  L-19.6561, 9.46281 " /><path d="M-19.6561, 9.46281 L-19.5341, 9.33923  L-19.4239, 9.22427  L-19.3249, 9.11723  L-19.2364, 9.01745  L-19.1579, 8.92431  L-19.0889, 8.83724  L-19.029, 8.7557  L-18.9778, 8.6792  L-18.935, 8.60725  L-18.9004, 8.53942  L-18.8736, 8.47528  L-18.8547, 8.41445  L-18.8433, 8.35655  L-18.8396, 8.30122 " /><path d="M-18.8396, 8.30122 C-18.4537, 8.37577 -18.157, 8.46745 -17.9157, 8.58667 " /><path d="M-16.3901, 11.3512 L-16.3942, 11.4065  L-16.4059, 11.4643  L-16.4251, 11.525  L-16.452, 11.5891  L-16.4868, 11.6568  L-16.5297, 11.7286  L-16.581, 11.8049  L-16.6409, 11.8863  L-16.7098, 11.9732  L-16.7881, 12.0661  L-16.8764, 12.1656  L-16.9752, 12.2723  L-17.085, 12.3869  L-17.2066, 12.51 " /><path d="M-9.54594 10.8186 A6.5 3.75278 60 0 1 -10.8921 13.7941" />
<path d="M-17.3921 2.5358 A6.5 3.75278 60 0 1 -9.54594 10.8186" />
<path id= "18" d=" M -18.8396 11.5672 L -17.2921 10.6738 " />
<path d="M-16.4119, 11.037 C-16.6569, 10.9029 -16.9381, 10.7868 -17.2921, 10.6738 " /><path d="M-18.1086, 8.56938 L-18.0641, 8.5196 " /><path id= "21" d=" M -19.6561 9.46281 L -18.1086 8.56938 " />
<path d="M-17.2921, 10.6738 Q-17.3065, 10.5829 -17.3208, 10.492  Q-17.337, 10.4055 -17.3531, 10.319  Q-17.371, 10.2363 -17.389, 10.1536  Q-17.4276, 9.9932 -17.4727, 9.84167  Q-17.5197, 9.6922 -17.574, 9.54865  Q-17.6306, 9.40637 -17.6955, 9.26726  Q-17.7301, 9.19801 -17.7648, 9.12876  Q-17.8383, 8.99072 -17.9223, 8.85185  Q-17.9669, 8.78179 -18.0116, 8.71174  Q-18.0601, 8.64056 -18.1086, 8.56938 " /><path d="M2.82843 1.63299 A4 2.3094 60 0 1 2 3.4641" />
<path d="M-2 -3.4641 A4 2.3094 60 0 1 2.82843 1.63299" />
<path d="M2.77961, 1.00067 Q2.83773, 0.793246 2.85223, 0.553817 " /><path d="M2.85223, 0.553817 C2.9001, -0.165388 2.62244, -1.07045 2.14413, -1.8007  C1.93631, -2.12122 1.69374, -2.40842 1.43754, -2.63918  C0.957557, -3.0741 0.432188, -3.3003 0.00605949, -3.26248 " /><path d="M2.82291, 1.83373 L2.85232, 1.81731 " /><path d="M2.85232, 1.81731 C3.27664, 1.57601 3.53482, 1.05339 3.56203, 0.392949 " /><path d="M2.94073, 1.76627 C3.36505, 1.52497 3.62324, 1.00235 3.65044, 0.341906 " /><path d="M3.56203, 0.392949 C3.5909, -0.21469 3.42427, -0.932138 3.10961, -1.58758  C2.88869, -2.0508 2.59682, -2.48161 2.27336, -2.82688  C2.00811, -3.11071 1.72221, -3.33693 1.44172, -3.48682  C0.975828, -3.73776 0.527882, -3.7712 0.205877, -3.58296 " /><path d="M0.205877, -3.58296 Q0.0360539, -3.48472 -0.0842397, -3.31317 " /><path d="M3.22225, 1.53945 Q3.40338, 1.49908 3.55943, 1.40906 " /><path d="M3.55943, 1.40906 C3.98375, 1.16776 4.24193, 0.645143 4.26914, -0.0153 " /><path d="M3.65044, 0.341906 C3.68439, -0.353654 3.45851, -1.19332 3.05352, -1.91891  C2.80412, -2.36943 2.49012, -2.77478 2.15413, -3.08453  C1.93371, -3.28756 1.71101, -3.44634 1.48603, -3.56086  C1.03595, -3.79099 0.606168, -3.81612 0.294288, -3.63401 " /><path d="M3.64784, 1.35802 C4.07215, 1.11672 4.33035, 0.594104 4.35755, -0.0663417 " /><path d="M4.26914, -0.0153 C4.298, -0.622937 4.13138, -1.34038 3.81672, -1.99583  C3.5958, -2.45904 3.30393, -2.88985 2.98048, -3.23511  C2.71545, -3.51871 2.42981, -3.7448 2.14953, -3.89469  C1.68339, -4.14597 1.23515, -4.17955 0.912985, -3.99121 " /><path d="M0.912985, -3.99121 Q0.756242, -3.90057 0.641448, -3.74712 " /><path d="M3.92935, 1.1312 Q4.11049, 1.09083 4.26654, 1.00081 " /><path d="M4.26654, 1.00081 C4.69085, 0.759514 4.94904, 0.236896 4.97625, -0.423549 " /><path d="M4.35755, -0.0663417 C4.3915, -0.761903 4.16561, -1.60157 3.76063, -2.32716  C3.51123, -2.77768 3.19722, -3.18303 2.86124, -3.49277  C2.64082, -3.69581 2.41812, -3.85459 2.19313, -3.96911  C1.74305, -4.19924 1.31327, -4.22437 1.00139, -4.04226 " /><path d="M4.35495, 0.949773 C4.77926, 0.708473 5.03745, 0.185854 5.06465, -0.47459 " /><path d="M4.97625, -0.423549 C5.00511, -1.03118 4.83849, -1.74863 4.52383, -2.40407  C4.30292, -2.86728 4.01105, -3.29808 3.6876, -3.64335  C3.42279, -3.92671 3.1374, -4.15267 2.85735, -4.30256  C2.39096, -4.55418 1.94242, -4.58789 1.62009, -4.39946 " /><path d="M1.62009, -4.39946 Q1.46335, -4.30882 1.34856, -4.15537 " /><path d="M4.63646, 0.722954 Q4.81759, 0.682584 4.97365, 0.592564 " /><path d="M4.97365, 0.592564 C5.39796, 0.351265 5.65615, -0.171354 5.68336, -0.831798 " /><path d="M5.06465, -0.47459 C5.09861, -1.17015 4.87272, -2.00982 4.46773, -2.73541  C4.21834, -3.18593 3.90433, -3.59128 3.56834, -3.90102  C3.34792, -4.10406 3.12522, -4.26284 2.90023, -4.37737  C2.45015, -4.60749 2.02038, -4.63262 1.7085, -4.4505 " /><path d="M5.06205, 0.541525 C5.48637, 0.300225 5.74456, -0.222394 5.77176, -0.882838 " /><path d="M5.68336, -0.831798 C5.71222, -1.43943 5.5456, -2.15687 5.23094, -2.81231  C5.01003, -3.27552 4.71817, -3.70632 4.39472, -4.05159  C4.13013, -4.33472 3.845, -4.56053 3.56517, -4.71043  C3.09852, -4.96239 2.6497, -4.99624 2.3272, -4.80771 " /><path d="M2.3272, -4.80771 Q2.17046, -4.71707 2.05566, -4.56362 " /><path d="M5.34357, 0.314705 Q5.5247, 0.274334 5.68076, 0.184315 " /><path d="M5.68076, 0.184315 C6.10507, -0.0569846 6.36325, -0.5796 6.39047, -1.24005 " /><path d="M5.77176, -0.882838 C5.80571, -1.5784 5.57983, -2.41807 5.17484, -3.14366  C4.92544, -3.59418 4.61143, -3.99952 4.27545, -4.30927  C4.05503, -4.51231 3.83232, -4.67109 3.60733, -4.78562  C3.15725, -5.01574 2.72748, -5.04086 2.41561, -4.85875 " /><path d="M5.76916, 0.133277 C6.19347, -0.108023 6.45166, -0.63064 6.47887, -1.29109 " /><path d="M6.39047, -1.24005 C6.41933, -1.84768 6.25271, -2.56512 5.93805, -3.22056  C5.71715, -3.68376 5.42528, -4.11456 5.10184, -4.45983  C4.83747, -4.74272 4.5526, -4.9684 4.27299, -5.11829  C3.80609, -5.3706 3.35697, -5.40459 3.03431, -5.21596 " /><path d="M3.03431, -5.21596 Q2.87757, -5.12532 2.76277, -4.97186 " /><path d="M6.05068, -0.0935444 Q6.23181, -0.133914 6.38787, -0.223935 " /><path d="M6.38787, -0.223935 C6.81218, -0.465233 7.07036, -0.987853 7.09757, -1.6483 " /><path d="M6.47887, -1.29109 C6.51282, -1.98665 6.28693, -2.82632 5.88195, -3.55191  C5.63255, -4.00243 5.31854, -4.40777 4.98256, -4.71752  C4.76213, -4.92056 4.53942, -5.07934 4.31443, -5.19387  C3.86435, -5.42398 3.43459, -5.44911 3.12271, -5.267 " /><path d="M6.47626, -0.274972 C6.90058, -0.516271 7.15877, -1.03889 7.18597, -1.69933 " /><path d="M7.09757, -1.6483 C7.12644, -2.25593 6.95982, -2.97336 6.64516, -3.6288  C6.42426, -4.092 6.1324, -4.5228 5.80896, -4.86806  C5.54485, -5.15068 5.26027, -5.3762 4.98093, -5.5261  C4.51374, -5.77881 4.06427, -5.81296 3.74142, -5.62421 " /><path d="M3.74142, -5.62421 Q3.58467, -5.53357 3.46988, -5.38011 " /><path d="M6.75778, -0.501793 Q6.93892, -0.542163 7.09497, -0.632184 " /><path d="M7.09497, -0.632184 C7.51929, -0.873482 7.77747, -1.3961 7.80468, -2.05655 " /><path d="M7.18597, -1.69933 C7.21993, -2.3949 6.99404, -3.23457 6.58905, -3.96016  C6.33965, -4.41068 6.02564, -4.81602 5.68966, -5.12577  C5.46923, -5.32881 5.24652, -5.4876 5.02153, -5.60212  C4.57145, -5.83223 4.14169, -5.85736 3.82982, -5.67525 " /><path d="M7.18337, -0.68322 C7.60769, -0.924519 7.86588, -1.44714 7.89308, -2.10758 " /><path d="M7.80468, -2.05655 C7.83355, -2.66417 7.66693, -3.38161 7.35227, -4.03704  C7.13137, -4.50024 6.83952, -4.93103 6.51608, -5.2763  C6.24832, -5.56283 5.95952, -5.79064 5.67648, -5.94052  C5.2134, -6.18769 4.76872, -6.2196 4.44853, -6.03246 " /><path d="M4.44853, -6.03246 Q4.29178, -5.94182 4.17699, -5.78836 " /><path d="M7.46489, -0.910042 Q7.64603, -0.950412 7.80208, -1.04043 " /><path d="M7.80208, -1.04043 C8.2264, -1.28173 8.48458, -1.80435 8.51179, -2.4648 " /><path d="M7.89308, -2.10758 C7.92703, -2.80315 7.70114, -3.64282 7.29616, -4.36841  C7.04676, -4.81893 6.73275, -5.22427 6.39677, -5.53402  C6.17633, -5.73707 5.95362, -5.89585 5.72862, -6.01038  C5.27855, -6.24048 4.8488, -6.2656 4.53693, -6.0835 " /><path d="M7.89048, -1.09147 C8.31479, -1.33277 8.57298, -1.85538 8.60019, -2.51583 " /><path d="M8.51179, -2.4648 C8.54065, -3.07242 8.37404, -3.78985 8.05939, -4.44529  C7.83849, -4.90848 7.54663, -5.33927 7.2232, -5.68454  C6.95576, -5.97073 6.66733, -6.19834 6.38461, -6.34823  C5.92117, -6.59588 5.47606, -6.62799 5.15564, -6.44071 " /><path d="M5.15564, -6.44071 Q4.99889, -6.35007 4.88409, -6.19661 " /><path d="M8.172, -1.31829 Q8.35313, -1.35866 8.50919, -1.44868 " /><path d="M8.50919, -1.44868 C8.93351, -1.68998 9.19169, -2.2126 9.2189, -2.87304 " /><path d="M8.60019, -2.51583 C8.63414, -3.21139 8.40825, -4.05107 8.00326, -4.77666  C7.75386, -5.22718 7.43985, -5.63252 7.10387, -5.94227  C6.88343, -6.14532 6.66071, -6.30411 6.43571, -6.41863  C5.98565, -6.64873 5.5559, -6.67385 5.24403, -6.49175 " /><path d="M8.59758, -1.49972 C9.0219, -1.74102 9.28009, -2.26363 9.30729, -2.92408 " /><path d="M9.2189, -2.87304 C9.24776, -3.48067 9.08115, -4.1981 8.7665, -4.85353  C8.5456, -5.31672 8.25375, -5.74751 7.93032, -6.09277  C7.66321, -6.37861 7.37517, -6.60602 7.09278, -6.75591  C6.68153, -6.97553 6.28405, -7.02712 5.97615, -6.90377 " /><path d="M9.47523, -3.35103 C9.47565, -2.96067 9.38731, -2.6175 9.22087, -2.36621 " /><path d="M5.62129, -6.60797 Q5.76675, -6.80435 5.97615, -6.90377 " /><path d="M5.97615 -6.90377 A3 1.73205 60 0 1 7.35391 -6.69527" />
<path d="M7.35391 -6.69527 A3 1.73205 60 0 1 7.52036 -6.59162" />
<path d="M9.30729, -2.92408 C9.34125, -3.61964 9.11536, -4.45932 8.71037, -5.18491  C8.39026, -5.76414 7.96246, -6.26661 7.52036, -6.59162 " /><path d="M7.52036, -6.59162 Q7.44717, -6.64143 7.37482, -6.6832 " /><path d="M7.37482, -6.6832 L7.36511, -6.68877 " /><path d="M7.55612, -6.56483 Q7.65298, -6.52259 7.75071, -6.46618 " /><path d="M7.75071, -6.46618 Q7.92838, -6.36353 8.1025, -6.21812 " /><path id= "88" d=" M 9.47523 -3.35103 L 9.47523 -3.51094 " />
<path d="M9.47523, -3.35103 C9.47633, -3.84405 9.33295, -4.41129 9.0789, -4.93167  C8.83139, -5.44269 8.47932, -5.90454 8.1025, -6.21812 " /><path d="M7.76425 -6.4583 A2.4 1.38564 60 0 1 7.77817 -6.45032" />
<path d="M7.77817 -6.45032 A2.4 1.38564 60 0 1 9.47523 -3.51094" />
</g>

</svg>
