<svg xmlns="http://www.w3.org/2000/svg" viewBox="-28.42 -9.42 42.34 18.84">
<rect width="100%" height="100%" fill="white"/>
<g   fill="none"
   stroke="rgb(0, 0, 0)"
   stroke-linecap="butt"
   stroke-linejoin="miter"
   stroke-width="0.35"
   transform="scale(1, -1)"
  >
<path id= "1" d=" M -25.5 -5.98 L -24.98 -6.5 " />
<path id= "2" d=" M -24.98 -6.5 L -20 -6.5 " />
<path d="M-20, -4 C-19.8747, -3.77234 -19.5994, -3.64184 -19.3438, -3.68897  C-19.1592, -3.71932 -18.9915, -3.83681 -18.9, -4 " /><path id= "4" d=" M -18.9 -4 L 0 -4 " />
<path d="M1.66533e-16, -3 C0.191854, -2.69523 0.561617, -2.51615 0.919691, -2.55458 " /><path d="M0.778333, 2.55111 L0.793525, 2.5505 " /><path d="M0.352246, 2.67139 L0.33898, 2.67882 " /><path d="M0.709383, 2.44527 Q0.702866, 2.43288 0.684427, 2.41657  Q0.64935, 2.38768 0.600024, 2.38659 " /><path d="M0.762691, 2.53718 L0.709383, 2.44527 " /><path d="M1.37507, -2.71868 Q1.541, -2.83152 1.65, -3 " /><path d="M0.492791, 2.44345 L0.37598, 2.64459 " /><path d="M0.992791, -2.44344 L0.935807, -2.54154 " /><path d="M1.20725, -2.44345 Q1.20146, -2.43223 1.18337, -2.41613  Q1.15965, -2.39638 1.1264, -2.38922  Q1.1132, -2.3879 1.10001, -2.38659  Q1.05356, -2.38752 1.01967, -2.41374  Q0.999169, -2.43099 0.992791, -2.44344 " /><path d="M1.70725, 2.44345 Q1.70146, 2.43223 1.68336, 2.41613  Q1.64894, 2.38773 1.60002, 2.38659 " /><path d="M0.600018, 2.38659 Q0.553568, 2.38752 0.519677, 2.41374  Q0.499171, 2.43099 0.492791, 2.44345 " /><path d="M1.34907, -2.68771 L1.20725, -2.44345 " /><path d="M1.70725, 2.44345 L2.02289, 2.98741 " /><path id= "18" d=" M 1.65 -3 L 1.6625 -3 " />
<path d="M1.49279, 2.44345 L1.35044, 2.68859 " /><path d="M1.99279, -2.44344 L1.67708, -2.98742 " /><path d="M2.20725, -2.44345 Q2.20146, -2.43223 2.18336, -2.41613  Q2.15965, -2.39637 2.1264, -2.38921  Q2.1132, -2.3879 2.1, -2.38658  Q2.05355, -2.38752 2.01967, -2.41373  Q1.99917, -2.43098 1.99279, -2.44344 " /><path d="M2.70725, 2.44345 Q2.70146, 2.43223 2.68336, 2.41613  Q2.64893, 2.38773 2.60001, 2.38659 " /><path d="M1.60002, 2.38659 Q1.55357, 2.38752 1.51968, 2.41373  Q1.49917, 2.43099 1.49279, 2.44345 " /><path d="M2.52289, -2.98741 L2.20725, -2.44345 " /><path d="M3.02289, 2.98741 L2.70725, 2.44345 " /><path id= "26" d=" M 2.53748 -3 L 2.6625 -3 " />
<path d="M2.49279, 2.44345 L2.17709, 2.98741 " /><path d="M2.99279, -2.44344 L2.67708, -2.98742 " /><path d="M3.20725, -2.44344 Q3.20146, -2.43222 3.18336, -2.41612  Q3.15964, -2.39637 3.12639, -2.38921  Q3.1132, -2.3879 3.1, -2.38658  Q3.05355, -2.38752 3.01966, -2.41373  Q2.99917, -2.43098 2.99279, -2.44344 " /><path d="M3.70725, 2.44345 Q3.70146, 2.43223 3.68336, 2.41613  Q3.64893, 2.38773 3.60001, 2.38659 " /><path d="M2.60001, 2.38659 Q2.55356, 2.38752 2.51967, 2.41373  Q2.49917, 2.43098 2.49279, 2.44345 " /><path d="M3.5229, -2.98741 L3.20725, -2.44344 " /><path d="M4.02289, 2.98741 L3.70725, 2.44345 " /><path id= "34" d=" M 3.53748 -3 L 3.6625 -3 " />
<path d="M3.49279, 2.44345 L3.17709, 2.98741 " /><path d="M3.99279, -2.44344 L3.67708, -2.98742 " /><path d="M4.20725, -2.44344 Q4.20146, -2.43222 4.18336, -2.41612  Q4.15964, -2.39637 4.12639, -2.38921  Q4.1132, -2.38789 4.1, -2.38658  Q4.05355, -2.38752 4.01966, -2.41373  Q3.99916, -2.43098 3.99279, -2.44344 " /><path d="M4.70725, 2.44345 Q4.70146, 2.43222 4.68336, 2.41613  Q4.64893, 2.38773 4.60001, 2.38658 " /><path d="M3.60001, 2.38659 Q3.55356, 2.38752 3.51967, 2.41373  Q3.49917, 2.43098 3.49279, 2.44345 " /><path d="M4.5229, -2.98741 L4.20725, -2.44344 " /><path d="M5.02289, 2.98741 L4.70725, 2.44345 " /><path id= "42" d=" M 4.53748 -3 L 4.6625 -3 " />
<path d="M4.49278, 2.44344 L4.17709, 2.98741 " /><path d="M4.99278, -2.44344 L4.67708, -2.98742 " /><path d="M5.20725, -2.44344 Q5.20146, -2.43222 5.18336, -2.41612  Q5.15964, -2.39637 5.12639, -2.38921  Q5.11319, -2.38789 5.1, -2.38658  Q5.05355, -2.38752 5.01966, -2.41373  Q4.99916, -2.43098 4.99278, -2.44344 " /><path d="M5.70724, 2.44344 Q5.70145, 2.43222 5.68335, 2.41612  Q5.64893, 2.38773 5.60001, 2.38658 " /><path d="M4.60001, 2.38658 Q4.55356, 2.38752 4.51967, 2.41373  Q4.49916, 2.43098 4.49278, 2.44344 " /><path d="M5.5229, -2.98741 L5.20725, -2.44344 " /><path d="M6.0229, 2.98741 L5.70724, 2.44344 " /><path id= "50" d=" M 5.53748 -3 L 5.6625 -3 " />
<path d="M5.49278, 2.44344 L5.17709, 2.98741 " /><path d="M5.99278, -2.44343 L5.67708, -2.98742 " /><path d="M6.20724, -2.44344 Q6.20145, -2.43222 6.18335, -2.41612  Q6.15964, -2.39636 6.12639, -2.3892  Q6.11319, -2.38789 6.1, -2.38658  Q6.05354, -2.38751 6.01966, -2.41373  Q5.99916, -2.43098 5.99278, -2.44343 " /><path d="M6.70724, 2.44344 Q6.70145, 2.43222 6.68335, 2.41612  Q6.64893, 2.38772 6.60001, 2.38658 " /><path d="M5.60001, 2.38658 Q5.55356, 2.38751 5.51967, 2.41372  Q5.49916, 2.43098 5.49278, 2.44344 " /><path d="M6.5229, -2.98741 L6.20724, -2.44344 " /><path d="M7.0229, 2.98741 L6.70724, 2.44344 " /><path id= "58" d=" M 6.53749 -3 L 6.6625 -3 " />
<path d="M6.49278, 2.44344 L6.17709, 2.98741 " /><path d="M6.99278, -2.44343 L6.67708, -2.98742 " /><path d="M7.20724, -2.44343 Q7.20145, -2.43221 7.18335, -2.41611  Q7.15964, -2.39636 7.12639, -2.3892  Q7.11319, -2.38789 7.09999, -2.38657  Q7.05354, -2.38751 7.01966, -2.41372  Q6.99916, -2.43097 6.99278, -2.44343 " /><path d="M7.70724, 2.44344 Q7.70145, 2.43222 7.68335, 2.41612  Q7.64892, 2.38772 7.6, 2.38658 " /><path d="M6.60001, 2.38658 Q6.55356, 2.38751 6.51967, 2.41372  Q6.49916, 2.43098 6.49278, 2.44344 " /><path d="M7.52291, -2.98741 L7.20724, -2.44343 " /><path d="M8.0229, 2.98741 L7.70724, 2.44344 " /><path id= "66" d=" M 7.53749 -3 L 7.6625 -3 " />
<path d="M7.49278, 2.44344 L7.17709, 2.98741 " /><path d="M7.99278, -2.44343 L7.67708, -2.98742 " /><path d="M8.20724, -2.44343 Q8.20145, -2.43221 8.18335, -2.41611  Q8.15963, -2.39636 8.12638, -2.3892  Q8.11319, -2.38789 8.09999, -2.38657  Q8.05354, -2.38751 8.01965, -2.41372  Q7.99915, -2.43097 7.99278, -2.44343 " /><path d="M8.70724, 2.44344 Q8.70145, 2.43221 8.68335, 2.41611  Q8.64892, 2.38772 8.6, 2.38657 " /><path d="M7.6, 2.38658 Q7.55355, 2.38751 7.51966, 2.41372  Q7.49916, 2.43097 7.49278, 2.44344 " /><path d="M8.52291, -2.98741 L8.20724, -2.44343 " /><path d="M9.0229, 2.98741 L8.70724, 2.44344 " /><path id= "74" d=" M 8.53749 -3 L 8.6625 -3 " />
<path d="M8.49278, 2.44343 L8.17709, 2.98741 " /><path d="M8.99278, -2.44343 L8.67708, -2.98741 " /><path d="M9.20724, -2.44343 Q9.20145, -2.43221 9.18335, -2.41611  Q9.15963, -2.39636 9.12638, -2.3892  Q9.11318, -2.38788 9.09999, -2.38657  Q9.05354, -2.38751 9.01965, -2.41372  Q8.99915, -2.43097 8.99278, -2.44343 " /><path d="M9.70724, 2.44343 Q9.70145, 2.43221 9.68335, 2.41611  Q9.64892, 2.38772 9.6, 2.38657 " /><path d="M8.6, 2.38657 Q8.55355, 2.38751 8.51966, 2.41372  Q8.49916, 2.43097 8.49278, 2.44343 " /><path d="M9.52291, -2.98741 L9.20724, -2.44343 " /><path d="M10.0229, 2.98741 L9.70724, 2.44343 " /><path id= "82" d=" M 9.53749 -3 L 9.6625 -3 " />
<path d="M9.49277, 2.44343 L9.17709, 2.98741 " /><path d="M9.99277, -2.44343 L9.67708, -2.98741 " /><path d="M10.2072, -2.44343 Q10.2014, -2.43221 10.1833, -2.41611  Q10.1596, -2.39635 10.1264, -2.3892  Q10.1132, -2.38788 10.1, -2.38657  Q10.0535, -2.3875 10.0196, -2.41372  Q9.99915, -2.43097 9.99277, -2.44343 " /><path d="M10.7072, 2.44343 Q10.7014, 2.43221 10.6833, 2.41611  Q10.6489, 2.38771 10.6, 2.38657 " /><path d="M9.6, 2.38657 Q9.55355, 2.3875 9.51966, 2.41372  Q9.49915, 2.43097 9.49277, 2.44343 " /><path d="M10.2072, -2.44343 L10.4777, -2.9094 " /><path d="M10.7072, 2.44343 L10.7935, 2.59202 " /><path d="M10.4928, 2.44343 L10.1771, 2.98741 " /><path d="M10.6, 2.38657 Q10.5535, 2.3875 10.5197, 2.41371  Q10.4992, 2.43097 10.4928, 2.44343 " /><path id= "92" d=" M 11 -2.4 L 10.4872 -2.91283 " />
</g>
<g   fill="none"
   stroke="rgb(0, 0, 0)"
   stroke-linecap="butt"
   stroke-linejoin="miter"
   stroke-width="0.35"
   transform="scale(1, -1)"
  >
<path d="M-25.5, -5.98 L-25.5, -5.83007  L-25.5, -5.38779  L-25.5, -4.67535  L-25.5, -3.72847  L-25.5, -2.59462  L-25.5, -1.33068  L-25.5, -1.11022e-15  L-25.5, 1.33068  L-25.5, 2.59462  L-25.5, 3.72847  L-25.5, 4.67535  L-25.5, 5.38779  L-25.5, 5.83007  L-25.5, 5.98 " /><path id= "2" d=" M -25.5 5.98 L -24.98 6.5 " />
<path d="M-24.98, -6.5 L-24.98, -6.33703  L-24.98, -5.8563  L-24.98, -5.0819  L-24.98, -4.05268  L-24.98, -2.82024  L-24.98, -1.44639  L-24.98, -1.11022e-15  L-24.98, 1.44639  L-24.98, 2.82024  L-24.98, 4.05268  L-24.98, 5.0819  L-24.98, 5.8563  L-24.98, 6.33703  L-24.98, 6.5 " /><path id= "4" d=" M -24.98 6.5 L -20 6.5 " />
<path d="M-20, -6.5 L-20, -6.33703  L-20, -5.8563  L-20, -5.0819  L-20, -4.05268  L-20, -2.82024  L-20, -1.44639  L-20, -1.11022e-15  L-20, 1.44639  L-20, 2.82024  L-20, 4.05268  L-20, 5.0819  L-20, 5.8563  L-20, 6.33703  L-20, 6.5 " /><path d="M-20 4 A0.632656 0.632656 0 0 1 -18.9 4" /><path d="M-18.9, -4 L-18.9, -3.89971  L-18.9, -3.60388  L-18.9, -3.12733  L-18.9, -2.49396  L-18.9, -1.73553  L-18.9, -0.890084  L-18.9, -7.77156e-16  L-18.9, 0.890084  L-18.9, 1.73553  L-18.9, 2.49396  L-18.9, 3.12733  L-18.9, 3.60388  L-18.9, 3.89971  L-18.9, 4 " /><path id= "8" d=" M -18.9 4 L 0 4 " />
<path d="M0, -4 L0, -3.89971  L0, -3.60388  L0, -3.12733  L0, -2.49396  L0, -1.73553  L0, -0.890084  L0, -7.77156e-16  L0, 0.890084  L0, 1.73553  L0, 2.49396  L0, 3.12733  L0, 3.60388  L0, 3.89971  L0, 4 " /><path d="M-1.01585e-13 3 A0.98125 0.98125 0 0 1 0.33898 2.67882" /><path d="M0.33898 2.67882 A0.98125 0.98125 0 0 1 0.352246 2.67139" /><path d="M0.352246, 2.67139 Q0.364259, 2.66479 0.375979, 2.64459 " /><path d="M0.375979, 2.64459 C0.411398, 2.58143 0.445288, 2.42953 0.477652, 2.18889  C0.516299, 1.90618 0.55322, 1.50723 0.588896, 1.05085  C0.61914, 0.664427 0.648474, 0.238162 0.677062, -0.180111  C0.716736, -0.761072 0.754977, -1.32323 0.792021, -1.74599  C0.83621, -2.25407 0.878688, -2.55367 0.919691, -2.55458 " /><path d="M0.919691, -2.55458 Q0.927788, -2.55536 0.935807, -2.54154 " /><path d="M0.935807, -2.54154 Q0.949555, -2.51776 0.963081, -2.45183 " /><path d="M0.778333 2.55111 A0.98125 0.98125 0 0 1 0.793525 2.5505" /><path d="M0.793525 2.5505 A0.98125 0.98125 0 0 1 1.33855 2.69512" /><path d="M0.778333, 2.55111 Q0.770958, 2.55145 0.762691, 2.53718 " /><path d="M1.37507, -2.71868 Q1.36184, -2.70972 1.34907, -2.68771 " /><path d="M1.34907, -2.68771 C1.27429, -2.56377 1.20894, -2.07074 1.14709, -1.36791  C1.1106, -0.955287 1.0756, -0.477044 1.04169, -0.000189468  C0.99206, 0.698703 0.944797, 1.38744 0.899335, 1.86079  C0.857538, 2.29949 0.817267, 2.5515 0.778333, 2.55111 " /><path d="M1.33855, 2.69512 Q1.34452, 2.69878 1.35044, 2.68859 " /><path d="M1.35044, 2.68859 C1.38419, 2.63432 1.41639, 2.22 1.44706, 1.5852  C1.476, 0.990258 1.50356, 0.210981 1.5297, -0.528142  C1.55294, -1.18573 1.57506, -1.80528 1.596, -2.25051  C1.61499, -2.65639 1.63301, -2.91794 1.65, -2.99075 " /><path d="M1.65, -3 Q1.65, -2.99998 1.65, -2.99075 " /><path d="M2.02289, 2.98741 Q2.03018, 3 2.03747, 3 " /><path id= "25" d=" M 2.03747 3 L 2.1625 3 " />
<path d="M1.65, -2.99075 Q1.65625, -3 1.6625, -3 " /><path d="M1.6625, -3 Q1.66979, -3 1.67708, -2.98742 " /><path d="M2.03747, 3 C2.07596, 3.00234 2.11444, 2.72821 2.15293, 2.24472  C2.20242, 1.62863 2.25192, 0.668917 2.30142, -0.262527  C2.336, -0.912426 2.37058, -1.54077 2.40516, -2.02165  C2.4444, -2.57048 2.48365, -2.92217 2.52289, -2.98741 " /><path d="M2.52289, -2.98741 Q2.53019, -3 2.53748, -3 " /><path d="M3.02289, 2.98741 Q3.03018, 3 3.03748, 3 " /><path id= "31" d=" M 3.03748 3 L 3.1625 3 " />
<path d="M2.1625, 3 Q2.1698, 3 2.17709, 2.98741 " /><path d="M2.17709, 2.98741 C2.21629, 2.92225 2.25547, 2.57137 2.29467, 2.02366  C2.33977, 1.39785 2.38487, 0.517652 2.42996, -0.328394  C2.46551, -0.995146 2.50106, -1.63373 2.53661, -2.10937  C2.57858, -2.67494 2.62054, -3.00327 2.6625, -3 " /><path d="M2.6625, -3 Q2.66979, -3 2.67708, -2.98742 " /><path d="M3.03748, 3 C3.07596, 3.00234 3.11445, 2.72821 3.15293, 2.24473  C3.20241, 1.62887 3.25189, 0.669646 3.30137, -0.261477  C3.33604, -0.913118 3.37071, -1.54314 3.40538, -2.02468  C3.44455, -2.5718 3.48373, -2.92228 3.5229, -2.98741 " /><path d="M3.5229, -2.98741 Q3.53019, -3 3.53748, -3 " /><path d="M4.02289, 2.98741 Q4.03019, 3 4.03748, 3 " /><path id= "38" d=" M 4.03748 3 L 4.1625 3 " />
<path d="M3.1625, 3 Q3.1698, 3 3.17709, 2.98741 " /><path d="M3.17709, 2.98741 C3.21629, 2.92225 3.25547, 2.57136 3.29467, 2.02366  C3.33977, 1.39784 3.38487, 0.517646 3.42996, -0.328402  C3.4655, -0.994954 3.50104, -1.63336 3.53658, -2.10894  C3.57855, -2.67478 3.62053, -3.00327 3.6625, -3 " /><path d="M3.6625, -3 Q3.66979, -3 3.67708, -2.98742 " /><path d="M4.03748, 3 C4.07596, 3.00234 4.11445, 2.72821 4.15293, 2.24473  C4.20239, 1.6291 4.25185, 0.670387 4.30131, -0.260409  C4.33615, -0.915096 4.37098, -1.54801 4.40581, -2.03058  C4.44484, -2.57438 4.48387, -2.92249 4.5229, -2.98741 " /><path d="M4.5229, -2.98741 Q4.53019, -3 4.53748, -3 " /><path d="M5.02289, 2.98741 Q5.03019, 3 5.03748, 3 " /><path id= "45" d=" M 5.03748 3 L 5.1625 3 " />
<path d="M4.1625, 3 Q4.16979, 3 4.17709, 2.98741 " /><path d="M4.17709, 2.98741 C4.21629, 2.92225 4.25547, 2.57136 4.29467, 2.02366  C4.33977, 1.39784 4.38487, 0.517639 4.42996, -0.328412  C4.46549, -0.994726 4.50101, -1.63292 4.53654, -2.10844  C4.57853, -2.67458 4.62051, -3.00328 4.6625, -3 " /><path d="M4.6625, -3 Q4.66979, -3 4.67708, -2.98742 " /><path d="M5.03748, 3 C5.07596, 3.00234 5.11445, 2.72821 5.15293, 2.24473  C5.20237, 1.62934 5.25182, 0.671123 5.30126, -0.259349  C5.33604, -0.91314 5.37083, -1.54531 5.40561, -2.02777  C5.4447, -2.57315 5.48381, -2.92239 5.5229, -2.98741 " /><path d="M5.5229, -2.98741 Q5.53019, -3 5.53748, -3 " /><path d="M6.0229, 2.98741 Q6.03019, 3 6.03748, 3 " /><path id= "52" d=" M 6.03748 3 L 6.1625 3 " />
<path d="M5.1625, 3 Q5.16979, 3 5.17709, 2.98741 " /><path d="M5.17709, 2.98741 C5.21629, 2.92225 5.25547, 2.57136 5.29467, 2.02366  C5.33977, 1.39784 5.38487, 0.517633 5.42996, -0.32842  C5.46548, -0.994545 5.50099, -1.63256 5.53651, -2.10804  C5.57851, -2.67442 5.6205, -3.00328 5.6625, -3 " /><path d="M5.6625, -3 Q5.66979, -3 5.67708, -2.98742 " /><path d="M6.03748, 3 C6.07596, 3.00234 6.11445, 2.72821 6.15293, 2.24474  C6.20236, 1.62958 6.25178, 0.671863 6.3012, -0.258282  C6.33575, -0.907509 6.37028, -1.53555 6.40483, -2.01683  C6.44418, -2.56838 6.48355, -2.922 6.5229, -2.98741 " /><path d="M6.5229, -2.98741 Q6.53019, -3 6.53749, -3 " /><path d="M7.0229, 2.98741 Q7.03019, 3 7.03749, 3 " /><path id= "59" d=" M 7.03749 3 L 7.1625 3 " />
<path d="M6.1625, 3 Q6.16979, 3 6.17709, 2.98741 " /><path d="M6.17709, 2.98741 C6.21629, 2.92224 6.25547, 2.57136 6.29467, 2.02366  C6.33977, 1.39783 6.38487, 0.51762 6.42996, -0.328438  C6.46545, -0.994117 6.50095, -1.63173 6.53644, -2.10711  C6.57846, -2.67404 6.62048, -3.00329 6.6625, -3 " /><path d="M6.6625, -3 Q6.66979, -3 6.67708, -2.98742 " /><path d="M7.03749, 3 C7.07597, 3.00234 7.11445, 2.72822 7.15294, 2.24474  C7.20234, 1.62985 7.25174, 0.672726 7.30114, -0.257038  C7.33597, -0.911807 7.37081, -1.54505 7.40564, -2.02813  C7.44473, -2.57331 7.48382, -2.9224 7.52291, -2.98741 " /><path d="M7.52291, -2.98741 Q7.5302, -3 7.53749, -3 " /><path d="M8.0229, 2.98741 Q8.03019, 3 8.03749, 3 " /><path id= "66" d=" M 8.03749 3 L 8.1625 3 " />
<path d="M7.1625, 3 Q7.16979, 3 7.17709, 2.98741 " /><path d="M7.17709, 2.98741 C7.21628, 2.92224 7.25547, 2.57136 7.29467, 2.02366  C7.33977, 1.39783 7.38487, 0.51761 7.42996, -0.328451  C7.46544, -0.993783 7.50091, -1.63109 7.53639, -2.10637  C7.57842, -2.67375 7.62046, -3.00329 7.6625, -3 " /><path d="M7.6625, -3 Q7.66979, -3 7.67708, -2.98741 " /><path d="M8.03749, 3 C8.07597, 3.00234 8.11446, 2.72822 8.15294, 2.24475  C8.20265, 1.62608 8.25235, 0.660762 8.30206, -0.274314  C8.3362, -0.915651 8.37034, -1.53523 8.40448, -2.01189  C8.44395, -2.56622 8.48343, -2.92183 8.52291, -2.98741 " /><path d="M8.52291, -2.98741 Q8.5302, -3 8.53749, -3 " /><path d="M9.0229, 2.98741 Q9.0302, 3 9.03749, 3 " /><path id= "73" d=" M 9.03749 3 L 9.1625 3 " />
<path d="M8.1625, 3 Q8.16979, 3 8.17709, 2.98741 " /><path d="M8.17709, 2.98741 C8.21628, 2.92224 8.25547, 2.57136 8.29467, 2.02366  C8.33977, 1.39782 8.38487, 0.517597 8.42996, -0.328469  C8.46541, -0.993294 8.50086, -1.63014 8.53631, -2.1053  C8.57837, -2.67332 8.62043, -3.0033 8.6625, -3 " /><path d="M8.6625, -3 Q8.66979, -3 8.67708, -2.98741 " /><path d="M9.03749, 3 C9.07597, 3.00234 9.11446, 2.72822 9.15294, 2.24475  C9.20262, 1.62642 9.2523, 0.661824 9.30198, -0.272787  C9.33658, -0.922716 9.37117, -1.55031 9.40576, -2.02974  C9.44481, -2.57401 9.48386, -2.92246 9.52291, -2.98741 " /><path d="M9.52291, -2.98741 Q9.5302, -3 9.53749, -3 " /><path d="M10.0229, 2.98741 Q10.0302, 3 10.0375, 3 " /><path id= "80" d=" M 10.0375 3 L 10.1625 3 " />
<path d="M9.1625, 3 Q9.16979, 3 9.17709, 2.98741 " /><path d="M9.17709, 2.98741 C9.21628, 2.92224 9.25547, 2.57136 9.29467, 2.02365  C9.33977, 1.39781 9.38487, 0.51758 9.42996, -0.328492  C9.46538, -0.992659 9.50079, -1.62891 9.5362, -2.10391  C9.5783, -2.67277 9.6204, -3.00331 9.6625, -3 " /><path d="M9.6625, -3 Q9.66979, -3 9.67708, -2.98741 " /><path d="M10.0375, 3 C10.076, 3.00234 10.1145, 2.72822 10.1529, 2.24476  C10.1801, 1.90518 10.2073, 1.46526 10.2345, 0.980676  C10.2897, -0.00312861 10.3448, -1.16042 10.4, -1.94845 " /><path d="M10.8042, 2.59584 Q10.7988, 2.60116 10.7935, 2.59202 " /><path d="M10.4872, -2.91283 Q10.4824, -2.91758 10.4777, -2.9094 " /><path d="M10.4777, -2.9094 C10.4515, -2.86707 10.4256, -2.51362 10.4, -1.94845 " /><path d="M10.4, -1.94845 C10.4, -1.35132 10.4, -0.548784 10.4, 0.23539 " /><path d="M10.1625, 3 Q10.1698, 3 10.1771, 2.98741 " /><path d="M10.1771, 2.98741 C10.2163, 2.92224 10.2555, 2.57136 10.2947, 2.02365  C10.3298, 1.53585 10.3649, 0.895734 10.4, 0.23539 " /><path d="M10.4, 0.23539 C10.4881, -0.471958 10.5792, -1.15912 10.6739, -1.6473  C10.7599, -2.09288 10.8488, -2.36894 10.9413, -2.4037 " /><path d="M10.9413, -2.4037 C10.9642, -2.41464 10.9937, -2.37477 11, -2.32759 " /><path d="M11, -2.32759 C11, -2.16645 11, -1.78005 11, -1.27577 " /><path d="M11, -1.27577 C10.9868, -0.757542 10.9668, -0.100204 10.9413, 0.517402 " /><path id= "95" d=" M 10.8042 2.59584 L 11 2.4 " />
<path d="M11, -2.4 Q11, -2.3997 11, -2.32759 " /><path d="M10.8042, 2.59584 C10.8268, 2.5748 10.8496, 2.34919 10.8727, 1.96684  C10.8953, 1.59417 10.9182, 1.07341 10.9413, 0.517402 " /><path d="M11, -1.27577 Q11, -1.11426 11, -0.952745  Q11, -0.780216 11, -0.607686  Q11, -0.428128 11, -0.24857  Q11, 0.117049 11, 0.47847  Q11, 0.654024 11, 0.829578  Q11, 0.995538 11, 1.1615  Q11, 1.31403 11, 1.46655  Q11, 1.60212 11, 1.73769  Q11, 1.85316 11, 1.96863  Q11, 2.06133 11, 2.15403  Q11, 2.22183 11, 2.28962  Q11, 2.33093 11, 2.37224  Q11, 2.38612 11, 2.4 " /></g>

</svg>
