<svg xmlns="http://www.w3.org/2000/svg" viewBox="-8.441436 -8.441436 16.882872 16.882872">
<rect width="100%" height="100%" fill="white"/>
<g   fill="none"
   stroke="rgb(0, 0, 0)"
   stroke-linecap="butt"
   stroke-linejoin="miter"
   stroke-width="0.35"
   transform="scale(1, -1)"
  >
<path d="M-6.02546, -0.9525 L-5.27741, -0.9525  L-4.47827, -0.9525  L-3.63578, -0.9525  L-2.75809, -0.9525  L-1.85369, -0.9525  L-0.931355, -0.9525  L2.44249e-14, -0.9525  L0.931355, -0.9525  L1.85369, -0.9525  L2.75809, -0.9525  L3.63578, -0.9525  L4.47827, -0.9525  L5.27741, -0.9525  L6.02546, -0.9525 " /><path d="M-6.02546 -0.9525 A6.10028 6.10028 0 0 0 -6.02546 0.9525" /><path d="M-6.02546, 0.9525 L-5.27741, 0.9525  L-4.47827, 0.9525  L-3.63578, 0.9525  L-2.75809, 0.9525  L-1.85369, 0.9525  L-0.931355, 0.9525  L2.44249e-14, 0.9525  L0.931355, 0.9525  L1.85369, 0.9525  L2.75809, 0.9525  L3.63578, 0.9525  L4.47827, 0.9525  L5.27741, 0.9525  L6.02546, 0.9525 " /><path d="M6.02546 0.9525 A6.10028 6.10028 0 0 0 6.10028 1.49414e-15" /><circle cx ="0" cy ="0" r ="7.2771" /><path d="M6.10028 0 A6.10028 6.10028 0 0 0 6.02546 -0.9525" /><path id= "7" d=" M -6.02546 0.9525 L 6.02546 0.9525 " />
<path id= "8" d=" M -6.02546 -0.9525 L 6.02546 -0.9525 " />
</g>

</svg>
