<svg xmlns="http://www.w3.org/2000/svg" viewBox="-10.0748124 -9.981472400000001 18.041134800000002 19.696254800000002">
<rect width="100%" height="100%" fill="white"/>
<g   fill="none"
   stroke="rgb(0, 0, 0)"
   stroke-linecap="butt"
   stroke-linejoin="miter"
   stroke-width="0.35"
   transform="scale(1, -1)"
  >
<path id= "1" d=" M -5.68566 -7.39836 L -4.625 -8.01073 " />
<path id= "2" d=" M 3.56434 8.62311 L 4.625 8.01073 " />
<path id= "3" d=" M 5.61299 7.13891 L 5.41752 7.35971 " />
<path d="M3.56434, 8.62311 C2.66702, 9.14424 1.54231, 9.23409 0.379412, 8.91215  C-0.446058, 8.68626 -1.29636, 8.25907 -2.12071, 7.6639 " /><path d="M-7.62952, -1.46252 C-7.81766, -2.69151 -7.78241, -3.84916 -7.51615, -4.83083  C-7.20908, -5.97718 -6.57361, -6.88867 -5.68566, -7.39836 " /><path d="M5.61299, 7.13891 C6.08168, 6.60999 6.41638, 5.93016 6.60796, 5.1507 " /><path d="M2.23939, -6.27013 C1.08247, -7.32773 -0.178526, -8.06333 -1.38643, -8.35962 " /></g>
<g   fill="none"
   stroke="rgb(0, 0, 0)"
   stroke-linecap="butt"
   stroke-linejoin="miter"
   stroke-width="0.35"
   transform="scale(1, -1)"
  >
<path d="M6.54074 3.7763 A9.25 5.34049 60 0 1 6.33752 5.52696" />
<path d="M1.76777 -6.2509 A9.25 5.34049 60 0 1 6.54074 3.7763" />
<path d="M-4.625 -8.01073 A9.25 5.34049 60 0 1 -1.76777 -8.29214" />
<path d="M6.33752 5.52696 A9.25 5.34049 60 0 1 5.41752 7.35971" />
<path d="M5.41752 7.35971 A9.25 5.34049 60 0 1 4.625 8.01073" />
<path d="M-1.76777 -8.29214 A9.25 5.34049 60 0 1 1.76777 -6.2509" />
<path d="M6.52818, 5.30656 L6.33752, 5.52696 " /><path d="M6.52818, 5.30656 Q6.58595, 5.23943 6.60796, 5.1507 " /><path d="M6.60796, 5.1507 C6.64429, 5.00738 6.59909, 4.83207 6.48987, 4.68698 " /><path d="M2.019, -6.31518 Q2.15229, -6.3478 2.23939, -6.27013 " /><path d="M2.23939, -6.27013 C2.3425, -6.17917 2.36268, -5.9689 2.29004, -5.7524 " /><path d="M1.76777, -6.2509 L2.019, -6.31518 " /><path d="M-1.51654, -8.35642 L-1.76777, -8.29214 " /><path d="M-1.51654, -8.35642 Q-1.4463, -8.37425 -1.38643, -8.35962 " /><path d="M-2.89517, 3.05066 C-3.25214, 2.76102 -3.57866, 2.36949 -3.82277, 1.94522  C-4.03796, 1.57277 -4.1893, 1.17661 -4.25919, 0.811194 " /><path d="M-3.02968, 2.66265 C-3.45557, 2.22584 -3.80051, 1.65316 -3.97957, 1.1027 " /><path id= "17" d=" M 0.627028 6.07749 L 2.66827 3.17352 " />
<path id= "18" d=" M 0.627028 -2.08748 L -3.45546 -4.4445 " />
<path id= "19" d=" M 2.66827 3.17352 L 0.627028 -2.08748 " />
<path d="M-2.75702, 3.93075 C-3.00413, 3.85535 -3.25999, 3.71951 -3.50512, 3.53495  C-3.89827, 3.24023 -4.26168, 2.8187 -4.52747, 2.35763  C-4.93312, 1.66296 -5.09896, 0.890432 -4.97029, 0.37647 " /><path d="M-2.75886, 3.76434 C-3.33001, 3.53182 -3.91689, 2.97994 -4.30797, 2.32781  C-4.70102, 1.68322 -4.89214, 0.957742 -4.82218, 0.432854 " /><path id= "22" d=" M 0.627028 6.07749 L -2.59272 7.93642 " />
<path id= "23" d=" M 2.66827 3.17352 L -0.551483 5.03244 " />
<path d="M-1.88789, 6.66675 C-1.56315, 6.2056 -1.1395, 5.68751 -0.551483, 5.03244 " /><path d="M-2.59272, 7.93642 C-2.43408, 7.52924 -2.21064, 7.12675 -1.88789, 6.66675 " /><path id= "26" d=" M 0.627028 -2.08748 L -2.59272 -0.22855 " />
<path d="M-1.88789, 2.58426 C-2.21064, 1.74929 -2.43408, 0.857599 -2.59272, -0.22855 " /><path d="M-0.551483, 5.03244 C-1.1395, 4.19419 -1.56315, 3.41809 -1.88789, 2.58426 " /><path id= "29" d=" M -3.45546 -4.4445 L -6.67521 -2.58557 " />
<path d="M-4.94975, -1.22474 C-5.59624, -1.59914 -6.14323, -2.03054 -6.67521, -2.58557 " /><path d="M-2.59272, -0.22855 C-3.55407, -0.535688 -4.30127, -0.851492 -4.94975, -1.22474 " /><path d="M-8.01161, -0.95127 C-8.33436, -0.49127 -8.5578, -0.088772 -8.71645, 0.318399 " /><path d="M-6.67521, -2.58557 C-7.26322, -1.93051 -7.68687, -1.41242 -8.01161, -0.95127 " /><path d="M-8.01161, 3.13121 C-7.68687, 3.96504 -7.26322, 4.74114 -6.67521, 5.57939 " /><path d="M-8.71645, 0.318399 C-8.5578, 1.40455 -8.33436, 2.29624 -8.01161, 3.13121 " /><path d="M-4.94975, 6.94022 C-4.30127, 7.31347 -3.55407, 7.62928 -2.59272, 7.93642 " /><path d="M-6.67521, 5.57939 C-6.14323, 6.13442 -5.59624, 6.56582 -4.94975, 6.94022 " /><path d="M-2.87983, 4.40166 C-3.28119, 4.45048 -3.76403, 4.28202 -4.21184, 3.94349  C-4.60326, 3.65014 -4.96527, 3.23109 -5.23079, 2.7724  C-5.53214, 2.25567 -5.70705, 1.69287 -5.71885, 1.22795  C-5.73101, 0.826116 -5.62352, 0.499275 -5.42105, 0.311522 " /><path d="M-2.81645, 4.30732 C-3.19019, 4.31642 -3.62146, 4.15106 -4.02488, 3.84906  C-4.4012, 3.5693 -4.75123, 3.1733 -5.01485, 2.73643  C-5.32916, 2.21921 -5.51787, 1.64856 -5.54023, 1.17295  C-5.55858, 0.815212 -5.48517, 0.512083 -5.33386, 0.309984 " /><path d="M-1.88789 6.66675 A5 2.88675 60 0 1 -4.94975 6.94022" />
<path d="M-1.41421 4.89898 A5 2.88675 60 0 1 -1.88789 6.66675" />
<path d="M-1.88789 2.58426 A5 2.88675 60 0 1 -1.41421 4.89898" />
<path d="M-4.94975 -1.22474 A5 2.88675 60 0 1 -1.88789 2.58426" />
<path d="M-8.01161 -0.95127 A5 2.88675 60 0 1 -4.94975 -1.22474" />
<path d="M-8.01161 3.13121 A5 2.88675 60 0 1 -8.01161 -0.95127" />
<path d="M-4.94975 6.94022 A5 2.88675 60 0 1 -8.01161 3.13121" />
<path d="M-2.78276, 4.24816 Q-2.93598, 4.53327 -3.19003, 4.68087 " /><path d="M-3.19003, 4.68087 C-3.61266, 4.93108 -4.22924, 4.832 -4.80809, 4.43133 " /><path d="M-4.80809, 4.43133 C-5.55572, 4.18409 -6.31557, 3.48507 -6.79129, 2.69621 " /><path d="M-3.10432, 4.62522 C-3.54695, 4.82811 -4.1655, 4.68408 -4.73189, 4.25738  C-5.10813, 3.97769 -5.45811, 3.58182 -5.72173, 3.14506  C-6.10298, 2.51974 -6.29524, 1.81769 -6.24171, 1.29725 " /><path d="M-4.80809 4.43133 A2.45873 1.41955 60 0 1 -6.24171 1.29725" />
<path d="M-2.75658, 3.86713 Q-2.75722, 3.72296 -2.77249, 3.57217 " /><path d="M-4.44056, 0.647857 C-4.89596, 0.330549 -5.35834, 0.230179 -5.69429, 0.373603  C-6.00786, 0.502614 -6.20898, 0.839263 -6.24171, 1.29725 " /><path d="M-2.72236 4.14372 A3.15 1.81865 60 1 1 -4.57542 0.538475" />
<path d="M-4.57542 0.538475 A3.15 1.81865 60 0 1 -2.75404 3.69319" />
<path d="M-2.75404 3.69319 A3.15 1.81865 60 0 1 -2.72236 4.14372" />
<path d="M-6.79129, 2.69621 C-6.81511, 2.65738 -6.82342, 2.66192 -6.81622, 2.70986  C-6.80884, 2.75437 -6.79298, 2.81433 -6.76863, 2.88973  C-6.71216, 3.06406 -6.62342, 3.27229 -6.51635, 3.47434  C-6.31965, 3.84757 -6.05601, 4.21313 -5.76567, 4.5099 " /><path d="M-5.76567, 4.5099 Q-5.68773, 4.58979 -5.60779, 4.663 " /><path d="M-2.75658, 3.86713 C-2.75457, 4.25081 -2.83244, 4.59214 -2.98206, 4.85344  C-3.13139, 5.11588 -3.35236, 5.29758 -3.62125, 5.37973  C-3.89736, 5.46501 -4.22357, 5.4449 -4.56382, 5.32314  C-4.91131, 5.19958 -5.27274, 4.97026 -5.60779, 4.663 " /></g>

</svg>
