<svg xmlns="http://www.w3.org/2000/svg" viewBox="-8.48 -10.73 10.76 21.46">
<rect width="100%" height="100%" fill="white"/>
<g   fill="none"
   stroke="rgb(0, 0, 0)"
   stroke-linecap="butt"
   stroke-linejoin="miter"
   stroke-width="0.35"
   transform="scale(1, -1)"
  >
<path id= "1" d=" M -1.5 -9.25 L 0 -9.25 " />
<path d="M0.8, -8.35377 C0.8, -7.97466 0.8, -7.09227 0.8, -5.85377 " /><path d="M-1.5, -9.25 C-1.54344, -9.24998 -1.58615, -9.24441 -1.62814, -9.2333  C-1.84257, -9.18023 -2.00365, -8.97086 -2, -8.75 " /><path d="M0.8, 5.85377 C0.8, 7.09227 0.8, 7.97466 0.8, 8.35377 " /><path d="M0.8, 2.5 C0.8, 0.882384 0.8, -0.882383 0.8, -2.5 " /><path id= "6" d=" M -7 -5 L -6.55342 -5.7735 " />
</g>
<g   fill="none"
   stroke="rgb(0, 0, 0)"
   stroke-linecap="butt"
   stroke-linejoin="miter"
   stroke-width="0.35"
   transform="scale(1, -1)"
  >
<path d="M0, 2.5 L0, 3.31323  L0, 4.09804  L0, 4.84769  L0, 5.55576  L0, 6.21618  L0, 6.82326  L0, 7.37182  L0, 7.85714  L0, 8.27506  L0, 8.622  L0, 8.89497  L0, 9.09164  L0, 9.21033  L0, 9.25 " /><path d="M0, -9.25 L0, -9.21033  L0, -9.09164  L0, -8.89497  L0, -8.622  L0, -8.27506  L0, -7.85714  L0, -7.37182  L0, -6.82326  L0, -6.21618  L0, -5.55576  L0, -4.84769  L0, -4.09804  L0, -3.31323  L0, -2.5 " /><path d="M0.624264, -5.46873 Q0.298348, -5.17218 0, -4.89826 " /><path d="M-1.77636e-15, -7.39826 Q0.298348, -7.67218 0.624264, -7.96873 " /><path d="M0.8, -5.85377 C0.800593, -5.71166 0.736334, -5.56998 0.624264, -5.46873 " /><path d="M0, -2.5 C0, -0.874465 0, 0.874465 0, 2.5 " /><path id= "7" d=" M -1.5 9.25 L 0 9.25 " />
<path d="M0, 4.89826 Q0.298348, 5.17218 0.624264, 5.46873 " /><path d="M0.8, 5.85377 C0.800593, 5.71166 0.736334, 5.56998 0.624264, 5.46873 " /><path d="M0.624264, 7.96873 Q0.298348, 7.67218 -1.77636e-15, 7.39826 " /><path d="M0.355291, 8.87694 L-3.55271e-14, 8.96261 " /><path d="M0.355291, 8.87694 C0.613822, 8.81844 0.804463, 8.59155 0.8, 8.35377 " /><path d="M0.8, 8.35377 C0.800593, 8.21166 0.736334, 8.06998 0.624264, 7.96873 " /><path d="M0.355291, 2.5 C0.613822, 2.5 0.804463, 2.5 0.8, 2.5 " /><path d="M1.42109e-14, 2.5 L0.355291, 2.5 " /><path d="M0.355291, -2.5 L1.42109e-14, -2.5 " /><path d="M0.355291, -2.5 C0.613822, -2.5 0.804463, -2.5 0.8, -2.5 " /><path d="M0.355291, -8.87694 C0.613822, -8.81844 0.804463, -8.59155 0.8, -8.35377 " /><path d="M0.8, -8.35377 C0.800593, -8.21166 0.736334, -8.06998 0.624264, -7.96873 " /><path d="M-2.84217e-14, -8.96261 L0.355291, -8.87694 " /><path d="M-2 8.75 A0.5 0.5 0 0 0 -1.5 9.25" /><path d="M-2, -8.75 L-2, -8.53062  L-2, -7.88348  L-2, -6.84103  L-2, -5.45554  L-2, -3.79648  L-2, -1.94706  L-2, -1.55431e-15  L-2, 1.94706  L-2, 3.79648  L-2, 5.45554  L-2, 6.84103  L-2, 7.88348  L-2, 8.53062  L-2, 8.75 " /><path id= "23" d=" M -2 5.7735 L -6.55342 5.7735 " />
<path id= "24" d=" M -2 2.88675 L -6.55342 2.88675 " />
<path d="M-7, 4.33013 C-6.9986, 3.87228 -6.85702, 3.41472 -6.55342, 2.88675 " /><path d="M-6.55342, 5.7735 C-6.85702, 5.24553 -6.9986, 4.78797 -7, 4.33013 " /><path id= "27" d=" M -2 -2.88675 L -6.55342 -2.88675 " />
<path d="M-7, -4.58002e-08 C-6.9986, -0.915684 -6.85702, -1.83081 -6.55342, -2.88675 " /><path d="M-6.55342, 2.88675 C-6.85702, 1.83081 -6.9986, 0.915684 -7, -4.58002e-08 " /><path id= "30" d=" M -2 -5.7735 L -6.55342 -5.7735 " />
<path d="M-7, -4.33013 C-6.9986, -4.78797 -6.85702, -5.24553 -6.55342, -5.7735 " /><path d="M-6.55342, -2.88675 C-6.85702, -3.41472 -6.9986, -3.87228 -7, -4.33013 " /><path id= "33" d=" M -6.55342 5.7735 L -7 5 " />
<path d="M-7, 4.33013 C-7, 4.54755 -7, 4.71582 -7, 4.82963  C-7, 4.94171 -7, 4.9991 -7, 5 " /><path d="M-7, -4.58002e-08 Q-7, 0.562675 -7, 1.1126  Q-7, 1.29319 -7, 1.47378  Q-7, 1.65024 -7, 1.82671  Q-7, 1.99806 -7, 2.16942  Q-7, 2.33471 -7, 2.5  Q-7, 2.6583 -7, 2.8166  Q-7, 2.96702 -7, 3.11745  Q-7, 3.25916 -7, 3.40086  Q-7, 3.53306 -7, 3.66526  Q-7, 3.78721 -7, 3.90916  Q-7, 4.02018 -7, 4.13119  Q-7, 4.23066 -7, 4.33013 " /><path d="M-7, -4.33013 Q-7, -4.23066 -7, -4.13119  Q-7, -4.02018 -7, -3.90916  Q-7, -3.78721 -7, -3.66526  Q-7, -3.53306 -7, -3.40086  Q-7, -3.25916 -7, -3.11745  Q-7, -2.96702 -7, -2.8166  Q-7, -2.6583 -7, -2.5  Q-7, -2.33471 -7, -2.16942  Q-7, -1.99806 -7, -1.82671  Q-7, -1.65024 -7, -1.47378  Q-7, -1.29319 -7, -1.1126  Q-7, -0.562676 -7, -4.58002e-08 " /><path d="M-7, -5 C-7, -4.9991 -7, -4.94171 -7, -4.82963  C-7, -4.71582 -7, -4.54755 -7, -4.33013 " /></g>

</svg>
