<svg xmlns="http://www.w3.org/2000/svg" viewBox="-10.73 -10.73 21.46 21.46">
<rect width="100%" height="100%" fill="white"/>
<g   fill="none"
   stroke="rgb(0, 0, 0)"
   stroke-linecap="butt"
   stroke-linejoin="miter"
   stroke-width="0.35"
   transform="scale(1, -1)"
  >
<path d="M-2.46331, 1.77482 L-2.47767, 1.75471 " /></g>
<g   fill="none"
   stroke="rgb(0, 0, 0)"
   stroke-linecap="butt"
   stroke-linejoin="miter"
   stroke-width="0.35"
   transform="scale(1, -1)"
  >
<path d="M-2.42622, -0.398536 C-2.34692, -0.887098 -2.11522, -1.34935 -1.77128, -1.70527  C-1.4235, -2.06794 -0.961715, -2.31902 -0.468244, -2.41374  C-0.00578276, -2.50423 0.482345, -2.45735 0.919124, -2.28048  C1.36169, -2.10298 1.74977, -1.79305 2.02075, -1.40069  C2.30467, -0.992758 2.45968, -0.497004 2.45873, 1.10064e-07 " /><circle cx ="0" cy ="0" r ="9.25" /><path d="M2.45872, 0.00968216 C2.45885, 0.659647 2.18658, 1.30382 1.72032, 1.75667 " /><path d="M1.2827, 2.09763 Q1.20148, 2.1473 1.11665, 2.19054 " /><path d="M1.10216, 2.19787 Q0.915946, 2.29121 0.7167, 2.35196 " /><path d="M0.616711, 2.38013 Q0.318785, 2.45717 0.0110726, 2.45871 " /><path d="M-0.158528, 2.45362 L-0.206522, 2.45005 " /><path d="M-0.385133, 2.42838 C-0.967584, 2.33788 -1.51239, 2.02845 -1.88845, 1.57453  C-2.27258, 1.11685 -2.47921, 0.515254 -2.45737, -0.081868  C-2.43954, -0.673439 -2.19794, -1.25456 -1.79112, -1.68441  C-1.4414, -2.05785 -0.972052, -2.31678 -0.469645, -2.41346  C-0.0598618, -2.49369 0.37022, -2.46679 0.766811, -2.3361 " /><path d="M0.963491, -2.26209 C1.38994, -2.08124 1.7627, -1.77662 2.02487, -1.39473  C2.3062, -0.987949 2.45967, -0.494579 2.45873, -1.11022e-16 " /><path d="M4.33013, 2.5 C4.78797, 1.70699 5.24553, 0.914468 5.7735, 3.84547e-13 " /><path d="M2.88675, 5 C3.41472, 4.08553 3.87228, 3.29301 4.33013, 2.5 " /><path d="M4.33013, -2.5 C3.87228, -3.29301 3.41472, -4.08553 2.88675, -5 " /><path d="M5.7735, -3.85914e-13 C5.24553, -0.914468 4.78797, -1.70699 4.33013, -2.5 " /><path d="M-4.58002e-08, -5 C-0.915684, -5 -1.83081, -5 -2.88675, -5 " /><path d="M2.88675, -5 C1.83081, -5 0.915684, -5 -4.58002e-08, -5 " /><path d="M-4.33013, -2.5 C-4.78797, -1.70699 -5.24553, -0.914468 -5.7735, -4.40092e-13 " /><path d="M-2.88675, -5 C-3.41472, -4.08553 -3.87228, -3.29301 -4.33013, -2.5 " /><path d="M-4.33013, 2.5 C-3.87228, 3.29301 -3.41472, 4.08553 -2.88675, 5 " /><path d="M-5.7735, 3.322e-13 C-5.24553, 0.914468 -4.78797, 1.70699 -4.33013, 2.5 " /><path d="M3.70531e-08, 5 C0.915684, 5 1.83081, 5 2.88675, 5 " /><path d="M-2.88675, 5 C-1.83081, 5 -0.915684, 5 3.70531e-08, 5 " /><path d="M2.45873, 6.57647e-07 C2.46054, 0.585842 2.24304, 1.16886 1.85797, 1.61038  C1.55652, 1.95926 1.15465, 2.21996 0.713206, 2.35302 " /><path d="M0.650822, 2.37103 Q0.336724, 2.45705 0.0110725, 2.45871 " /><path d="M-0.158528, 2.45362 L-0.206522, 2.45005 " /><path d="M-0.385133, 2.42838 C-0.965074, 2.33825 -1.50774, 2.03114 -1.88359, 1.58034  C-2.27094, 1.12175 -2.47948, 0.517323 -2.45735, -0.0825603  C-2.43934, -0.674348 -2.1974, -1.25561 -1.79019, -1.6854  C-1.44247, -2.05626 -0.976728, -2.31407 -0.477841, -2.41185  C-0.00878083, -2.50562 0.487268, -2.4578 0.929777, -2.27616  C1.36884, -2.09766 1.7535, -1.78861 2.02239, -1.39832  C2.30528, -0.990841 2.45968, -0.496034 2.45873, -2.22045e-15 " /><path d="M4.33013 2.5 A5 5 0 0 1 3.70531e-08 5" /><path d="M5 0 A5 5 0 0 1 4.33013 2.5" /><path d="M4.33013 -2.5 A5 5 0 0 1 5 -1.22465e-15" /><path d="M-4.58002e-08 -5 A5 5 0 0 1 4.33013 -2.5" /><path d="M-4.33013 -2.5 A5 5 0 0 1 -4.58002e-08 -5" /><path d="M-4.33013 2.5 A5 5 0 0 1 -4.33013 -2.5" /><path d="M3.70531e-08 5 A5 5 0 0 1 -4.33013 2.5" /><path d="M2.45873, 7.67258e-07 C2.46054, 0.585842 2.24304, 1.16886 1.85797, 1.61038  C1.55784, 1.95771 1.1582, 2.21767 0.719043, 2.35124  C0.358798, 2.46175 -0.0269986, 2.48761 -0.398771, 2.42618 " /><path d="M-0.398771, 2.42618 C-0.821165, 2.45088 -1.25627, 2.36171 -1.64866, 2.17142  C-2.07866, 1.96418 -2.45646, 1.63689 -2.73433, 1.23432 " /><path d="M-0.398771 2.42618 A2.45873 2.45873 0 0 1 -2.42622 -0.398536" /><path d="M2.78705, -1.77636e-15 C2.7622, -0.692998 2.46475, -1.36989 1.97109, -1.85098  C1.49668, -2.31998 0.84366, -2.59963 0.181047, -2.61528  C-0.45994, -2.6349 -1.10262, -2.4066 -1.58177, -1.98713  C-2.04836, -1.58426 -2.35622, -1.00631 -2.42622, -0.398536 " /><circle cx ="0" cy ="0" r ="3.15" /><path d="M-2.73433, 1.23432 C-2.75609, 1.20248 -2.76362, 1.20076 -2.75693, 1.22918  C-2.75222, 1.24815 -2.74271, 1.27519 -2.72839, 1.31028  C-2.67751, 1.43495 -2.58421, 1.6067 -2.47061, 1.76465 " /><path d="M-2.47061, 1.76465 C-2.26027, 2.06059 -1.97067, 2.33448 -1.6404, 2.53536  C-1.45589, 2.648 -1.26263, 2.7383 -1.0606, 2.80628 " /><path d="M2.78705, 3.01856e-07 C2.80541, 0.452966 2.7107, 0.910666 2.51439, 1.3212  C2.31852, 1.7329 2.02123, 2.09648 1.65605, 2.37213  C1.2811, 2.6563 0.835171, 2.84693 0.369277, 2.9231  C-0.106537, 3.00187 -0.602161, 2.96108 -1.0606, 2.80628 " /></g>

</svg>
