<svg xmlns="http://www.w3.org/2000/svg" viewBox="-3.1191275999999997 -3.8771176 20.5661852 15.9191752">
<rect width="100%" height="100%" fill="white"/>
<g   fill="none"
   stroke="rgb(0, 0, 0)"
   stroke-linecap="butt"
   stroke-linejoin="miter"
   stroke-width="0.35"
   transform="scale(1, -1)"
  >
<path id= "1" d=" M -1.70077 -1.93776 L -1.16301 -2.90312 " />
<path id= "2" d=" M 0.827765 2.44179 L 1.93267 2.45876 " />
<path id= "3" d=" M -0.718261 -3.36696 L 11.5854 -10.4705 " />
<path id= "4" d=" M 2.55674 2.30551 L 14.8604 -4.79801 " />
<path id= "5" d=" M 15.8429 -6.22721 L 15.3051 -5.26184 " />
<path id= "6" d=" M 13.3144 -10.6068 L 12.2095 -10.6237 " />
</g>
<g   fill="none"
   stroke="rgb(0, 0, 0)"
   stroke-linecap="butt"
   stroke-linejoin="miter"
   stroke-width="0.35"
   transform="scale(1, -1)"
  >
<path d="M1.46339 0.967685 A2.075 1.198 60 0 1 1.0375 1.797" />
<path d="M1.0375 1.797 A2.075 1.198 60 0 1 -1.0375 -1.797" />
<path d="M-1.0375 -1.797 A2.075 1.198 60 0 1 1.46339 0.72209" />
<path id= "4" d=" M 1.46339 0.72209 L 1.88654 0.930887 " />
<path d="M1.88654 1.2475 A2.675 1.54441 60 0 1 0.827765 2.44179" />
<path d="M0.827765 2.44179 A2.675 1.54441 60 0 1 -1.70077 -1.93776" />
<path d="M-1.70077 -1.93776 A2.675 1.54441 60 0 1 1.88654 0.930887" />
<path id= "8" d=" M 1.46339 0.967685 L 1.88654 1.2475 " />
<path id= "9" d=" M 1.88654 1.2475 L 3.22892 0.996587 " />
<path d="M3.22892 0.996587 A3.275 1.89082 60 0 1 2.55674 2.30551" />
<path d="M2.55674 2.30551 A3.275 1.89082 60 0 1 1.93267 2.45876" />
<path d="M-1.16301 -2.90312 A3.275 1.89082 60 0 1 -0.718261 -3.36696" />
<path d="M-0.718261 -3.36696 A3.275 1.89082 60 0 1 3.22892 0.608961" />
<path id= "14" d=" M 1.88654 0.930887 L 3.22892 0.608961 " />
<path id= "15" d=" M 3.22892 0.996587 L 15.5326 -6.10693 " />
<path d="M15.5326 -6.10693 A3.275 1.89082 60 0 1 15.3051 -5.26184" />
<path d="M15.3051 -5.26184 A3.275 1.89082 60 0 1 14.8604 -4.79801" />
<path d="M11.5854 -10.4705 A3.275 1.89082 60 0 1 12.2095 -10.6237" />
<path d="M12.2095 -10.6237 A3.275 1.89082 60 0 1 15.5326 -6.49456" />
<path id= "20" d=" M 3.22892 0.608961 L 15.5326 -6.49456 " />
<path id= "21" d=" M 15.5326 -6.10693 L 16.0287 -6.91747 " />
<path d="M16.0287 -6.91747 A2.675 1.54441 60 0 1 15.8429 -6.22721" />
<path d="M13.3144 -10.6068 A2.675 1.54441 60 0 1 16.0287 -7.23408" />
<path id= "24" d=" M 15.5326 -6.49456 L 16.0287 -7.23408 " />
<path id= "25" d=" M 16.0287 -6.91747 L 15.8815 -7.01476 " />
<path id= "26" d=" M 1.69275 0.835264 L 1.46339 0.967685 " />
</g>

</svg>
