<svg xmlns="http://www.w3.org/2000/svg" viewBox="-1.6000000000000008 -4.86639 23.2 9.741389999999999">
<rect width="100%" height="100%" fill="white"/>
<g   fill="none"
   stroke="rgb(0, 0, 0)"
   stroke-linecap="butt"
   stroke-linejoin="miter"
   stroke-width="0.35"
   transform="scale(1, -1)"
  >
<path id= "1" d=" M -5.9474e-16 -2.675 L 1.3 -3.275 " />
<path id= "2" d=" M 1.3 -3.275 L 18.7 -3.275 " />
<path id= "3" d=" M 20 -2.675 L 18.7 -3.275 " />
</g>
<g   fill="none"
   stroke="rgb(0, 0, 0)"
   stroke-linecap="butt"
   stroke-linejoin="miter"
   stroke-width="0.35"
   transform="scale(1, -1)"
  >
<path d="M0, -2.675 L0, -2.61098  L0, -2.42199  L0, -2.11707  L0, -1.71082  L0, -1.22268  L0, -0.676023  L0, -0.0970055  L0, 0.486656  L0, 1.04702  L0, 1.55728  L0, 1.99299  L0, 2.33331  L0, 2.56195  L0, 2.66796 " /><path d="M1.3, -3.275 L1.3, -3.19662  L1.3, -2.96524  L1.3, -2.59193  L1.3, -2.09456  L1.3, -1.49693  L1.3, -0.827655  L1.3, -0.118764  L1.3, 0.595812  L1.3, 1.28187  L1.3, 1.90657  L1.3, 2.44002  L1.3, 2.85667  L1.3, 3.13659  L1.3, 3.26639 " /><path id= "3" d=" M 0 2.66796 L 1.3 3.26639 " />
<path id= "4" d=" M 1.3 3.26639 L 18.7 3.26639 " />
<path d="M18.7, -3.275 L18.7, -3.19662  L18.7, -2.96524  L18.7, -2.59193  L18.7, -2.09456  L18.7, -1.49693  L18.7, -0.827655  L18.7, -0.118764  L18.7, 0.595812  L18.7, 1.28187  L18.7, 1.90657  L18.7, 2.44002  L18.7, 2.85667  L18.7, 3.13659  L18.7, 3.26639 " /><path id= "6" d=" M 1.3 3.26639 L 18.7 3.26639 " />
<path d="M20, -2.675 L20, -2.61098  L20, -2.42199  L20, -2.11707  L20, -1.71082  L20, -1.22268  L20, -0.676023  L20, -0.0970055  L20, 0.486656  L20, 1.04702  L20, 1.55728  L20, 1.99299  L20, 2.33331  L20, 2.56195  L20, 2.66796 " /><path id= "8" d=" M 18.7 3.26639 L 20 2.66796 " />
</g>

</svg>
