<svg xmlns="http://www.w3.org/2000/svg" viewBox="1.973792 -0.333119 1.3883459999999999 1.1914959999999999">
<rect width="100%" height="100%" fill="white"/>
<g   fill="none"
   stroke="rgb(165, 165, 165)"
   stroke-dasharray="1.2,0.8"
   stroke-linecap="butt"
   stroke-linejoin="miter"
   stroke-width="0.25"
   transform="scale(1, -1)"
  >
<path d="M3.26639 0.237371 A3.275 3.275 0 1 1 3.26639 -0.237371" /><path id= "2" d=" M 3.26639 0.237371 L 2.66796 0.193883 " />
<path d="M2.66796 0.193883 A2.675 2.675 0 1 1 2.66796 -0.193883" /><path id= "4" d=" M 3.26639 -0.237371 L 2.66796 -0.193883 " />
<path id= "5" d=" M 2.66796 -0.193883 L 2.06954 -0.150396 " />
<path d="M2.06954 0.150396 A2.075 2.075 0 1 1 2.06954 -0.150396" /><path id= "7" d=" M 2.66796 0.193883 L 2.06954 0.150396 " />
</g>
<g   fill="none"
   stroke="rgb(0, 0, 0)"
   stroke-linecap="butt"
   stroke-linejoin="miter"
   stroke-width="0.35"
   transform="scale(1, -1)"
  >
<path d="M2.06954 0.150396 A2.075 2.075 0 1 1 2.06954 -0.150396" /><path id= "2" d=" M 2.06954 -0.150396 L 2.66796 -0.193883 " />
<path d="M2.66796 0.193883 A2.675 2.675 0 1 1 2.66796 -0.193883" /><path id= "4" d=" M 2.06954 0.150396 L 2.66796 0.193883 " />
<path id= "5" d=" M 2.66796 0.193883 L 3.26639 0.237371 " />
<path d="M3.26639 0.237371 A3.275 3.275 0 1 1 3.26639 -0.237371" /><path id= "7" d=" M 2.66796 -0.193883 L 3.26639 -0.237371 " />
</g>

</svg>
