<svg xmlns="http://www.w3.org/2000/svg" viewBox="-5.92 -6.92 27.84 13.84">
<rect width="100%" height="100%" fill="white"/>
<g   fill="none"
   stroke="rgb(0, 0, 0)"
   stroke-linecap="butt"
   stroke-linejoin="miter"
   stroke-width="0.35"
   transform="scale(1, -1)"
  >
<path d="M-3.4, -5 C-3.6082, -5.00184 -3.81204, -4.88557 -3.91645, -4.70542  C-3.97162, -4.61109 -3.99947, -4.50928 -4, -4.4 " /><path id= "2" d=" M -3.4 -5 L -0.4 -5 " />
<path id= "3" d=" M 1.79333e-13 -4.6 L -0.4 -5 " />
<path d="M0.25, -3 C0.182127, -3.00097 0.123666, -3.02492 0.0746171, -3.07184  C0.0272469, -3.11809 -0.000275702, -3.1838 3.46945e-18, -3.25 " /><path id= "5" d=" M 0.25 -3 L 2.6625 -3 " />
<path d="M2.7094, 2.44529 Q2.70288, 2.4329 2.68444, 2.41659  Q2.64936, 2.3877 2.60004, 2.38661 " /><path d="M3.0236, 2.98739 L2.7094, 2.44529 " /><path id= "8" d=" M 3.53746 -3 L 3.6625 -3 " />
<path d="M2.4928, 2.44347 L2.17709, 2.98742 " /><path d="M2.9928, -2.44346 L2.67709, -2.98742 " /><path d="M3.20727, -2.44347 Q3.20148, -2.43225 3.18338, -2.41615  Q3.15966, -2.39639 3.12642, -2.38923  Q3.11322, -2.38792 3.10002, -2.3866  Q3.05357, -2.38754 3.01968, -2.41375  Q2.99918, -2.431 2.9928, -2.44346 " /><path d="M3.70727, 2.44347 Q3.70148, 2.43225 3.68338, 2.41615  Q3.64895, 2.38775 3.60003, 2.38661 " /><path d="M2.60003, 2.38661 Q2.55358, 2.38754 2.51969, 2.41375  Q2.49919, 2.431 2.4928, 2.44347 " /><path d="M3.52287, -2.98741 L3.20727, -2.44347 " /><path d="M4.02287, 2.98741 L3.70727, 2.44347 " /><path id= "16" d=" M 4.53746 -3 L 4.6625 -3 " />
<path d="M3.4928, 2.44346 L3.17709, 2.98742 " /><path d="M3.9928, -2.44346 L3.67709, -2.98742 " /><path d="M4.20726, -2.44346 Q4.20148, -2.43225 4.18338, -2.41615  Q4.15966, -2.39639 4.12641, -2.38923  Q4.11322, -2.38792 4.10002, -2.3866  Q4.05357, -2.38754 4.01968, -2.41375  Q3.99918, -2.431 3.9928, -2.44346 " /><path d="M4.70726, 2.44347 Q4.70148, 2.43225 4.68338, 2.41615  Q4.64895, 2.38775 4.60003, 2.3866 " /><path d="M3.60003, 2.38661 Q3.55358, 2.38754 3.51969, 2.41375  Q3.49918, 2.431 3.4928, 2.44346 " /><path d="M4.52288, -2.98741 L4.20726, -2.44346 " /><path d="M5.02287, 2.98741 L4.70726, 2.44347 " /><path id= "24" d=" M 5.53746 -3 L 5.6625 -3 " />
<path d="M4.4928, 2.44346 L4.17709, 2.98742 " /><path d="M4.9928, -2.44346 L4.67709, -2.98742 " /><path d="M5.20726, -2.44346 Q5.20148, -2.43224 5.18338, -2.41614  Q5.15966, -2.39639 5.12641, -2.38923  Q5.11321, -2.38791 5.10002, -2.3866  Q5.05357, -2.38753 5.01968, -2.41375  Q4.99918, -2.431 4.9928, -2.44346 " /><path d="M5.70726, 2.44347 Q5.70147, 2.43225 5.68337, 2.41615  Q5.64895, 2.38775 5.60003, 2.3866 " /><path d="M4.60003, 2.3866 Q4.55358, 2.38754 4.51969, 2.41375  Q4.49918, 2.431 4.4928, 2.44346 " /><path d="M5.52288, -2.98741 L5.20726, -2.44346 " /><path d="M6.02287, 2.98741 L5.70726, 2.44347 " /><path id= "32" d=" M 6.53747 -3 L 6.6625 -3 " />
<path d="M5.4928, 2.44346 L5.17709, 2.98742 " /><path d="M5.9928, -2.44345 L5.67709, -2.98742 " /><path d="M6.20726, -2.44346 Q6.20147, -2.43224 6.18337, -2.41614  Q6.15966, -2.39639 6.12641, -2.38923  Q6.11321, -2.38791 6.10002, -2.3866  Q6.05357, -2.38753 6.01968, -2.41374  Q5.99918, -2.43099 5.9928, -2.44345 " /><path d="M6.70726, 2.44346 Q6.70147, 2.43224 6.68337, 2.41614  Q6.64894, 2.38774 6.60002, 2.3866 " /><path d="M5.60003, 2.3866 Q5.55358, 2.38753 5.51968, 2.41374  Q5.49918, 2.431 5.4928, 2.44346 " /><path d="M6.52288, -2.98741 L6.20726, -2.44346 " /><path d="M7.02288, 2.98741 L6.70726, 2.44346 " /><path id= "40" d=" M 7.53747 -3 L 7.6625 -3 " />
<path d="M6.4928, 2.44346 L6.17709, 2.98742 " /><path d="M6.9928, -2.44345 L6.67709, -2.98742 " /><path d="M7.20726, -2.44346 Q7.20147, -2.43224 7.18337, -2.41614  Q7.15966, -2.39638 7.12641, -2.38922  Q7.11321, -2.38791 7.10001, -2.38659  Q7.05356, -2.38753 7.01968, -2.41374  Q6.99918, -2.43099 6.9928, -2.44345 " /><path d="M7.70726, 2.44346 Q7.70147, 2.43224 7.68337, 2.41614  Q7.64894, 2.38774 7.60002, 2.3866 " /><path d="M6.60002, 2.3866 Q6.55357, 2.38753 6.51968, 2.41374  Q6.49918, 2.43099 6.4928, 2.44346 " /><path d="M7.52288, -2.98741 L7.20726, -2.44346 " /><path d="M8.02288, 2.98741 L7.70726, 2.44346 " /><path id= "48" d=" M 8.53747 -3 L 8.6625 -3 " />
<path d="M7.49279, 2.44346 L7.17709, 2.98742 " /><path d="M7.9928, -2.44345 L7.67709, -2.98742 " /><path d="M8.20726, -2.44345 Q8.20147, -2.43224 8.18337, -2.41614  Q8.15965, -2.39638 8.1264, -2.38922  Q8.11321, -2.38791 8.10001, -2.38659  Q8.05356, -2.38753 8.01967, -2.41374  Q7.99917, -2.43099 7.9928, -2.44345 " /><path d="M8.70726, 2.44346 Q8.70147, 2.43224 8.68337, 2.41614  Q8.64894, 2.38774 8.60002, 2.3866 " /><path d="M7.60002, 2.3866 Q7.55357, 2.38753 7.51968, 2.41374  Q7.49918, 2.43099 7.49279, 2.44346 " /><path d="M8.52289, -2.98741 L8.20726, -2.44345 " /><path d="M9.02288, 2.98741 L8.70726, 2.44346 " /><path id= "56" d=" M 9.53747 -3 L 9.6625 -3 " />
<path d="M8.49279, 2.44345 L8.17709, 2.98741 " /><path d="M8.99279, -2.44345 L8.67708, -2.98742 " /><path d="M9.20725, -2.44345 Q9.20147, -2.43223 9.18337, -2.41613  Q9.15965, -2.39638 9.1264, -2.38922  Q9.11321, -2.3879 9.10001, -2.38659  Q9.05356, -2.38753 9.01967, -2.41374  Q8.99917, -2.43099 8.99279, -2.44345 " /><path d="M9.70725, 2.44346 Q9.70146, 2.43224 9.68337, 2.41614  Q9.64894, 2.38774 9.60002, 2.38659 " /><path d="M8.60002, 2.3866 Q8.55357, 2.38753 8.51968, 2.41374  Q8.49917, 2.43099 8.49279, 2.44345 " /><path d="M9.52289, -2.98741 L9.20725, -2.44345 " /><path d="M10.0229, 2.98741 L9.70725, 2.44346 " /><path id= "64" d=" M 10.5375 -3 L 10.6625 -3 " />
<path d="M9.49279, 2.44345 L9.17709, 2.98741 " /><path d="M9.99279, -2.44344 L9.67708, -2.98742 " /><path d="M10.2073, -2.44345 Q10.2015, -2.43223 10.1834, -2.41613  Q10.1596, -2.39638 10.1264, -2.38922  Q10.1132, -2.3879 10.1, -2.38659  Q10.0536, -2.38752 10.0197, -2.41374  Q9.99917, -2.43099 9.99279, -2.44344 " /><path d="M10.7073, 2.44345 Q10.7015, 2.43223 10.6834, 2.41613  Q10.6489, 2.38773 10.6, 2.38659 " /><path d="M9.60002, 2.38659 Q9.55357, 2.38752 9.51968, 2.41374  Q9.49917, 2.43099 9.49279, 2.44345 " /><path d="M10.5229, -2.98741 L10.2073, -2.44345 " /><path d="M11.0229, 2.98741 L10.7073, 2.44345 " /><path id= "72" d=" M 11.5375 -3 L 11.6625 -3 " />
<path d="M10.4928, 2.44345 L10.1771, 2.98741 " /><path d="M10.9928, -2.44344 L10.6771, -2.98742 " /><path d="M11.2073, -2.44345 Q11.2015, -2.43223 11.1834, -2.41613  Q11.1596, -2.39637 11.1264, -2.38921  Q11.1132, -2.3879 11.1, -2.38658  Q11.0536, -2.38752 11.0197, -2.41373  Q10.9992, -2.43098 10.9928, -2.44344 " /><path d="M11.7072, 2.44345 Q11.7015, 2.43223 11.6834, 2.41613  Q11.6489, 2.38773 11.6, 2.38659 " /><path d="M10.6, 2.38659 Q10.5536, 2.38752 10.5197, 2.41373  Q10.4992, 2.43099 10.4928, 2.44345 " /><path d="M11.5229, -2.98741 L11.2073, -2.44345 " /><path d="M12.0229, 2.98741 L11.7072, 2.44345 " /><path id= "80" d=" M 12.5375 -3 L 12.6625 -3 " />
<path d="M11.4928, 2.44345 L11.1771, 2.98741 " /><path d="M11.9928, -2.44344 L11.6771, -2.98742 " /><path d="M12.2072, -2.44344 Q12.2015, -2.43222 12.1834, -2.41612  Q12.1596, -2.39637 12.1264, -2.38921  Q12.1132, -2.3879 12.1, -2.38658  Q12.0536, -2.38752 12.0197, -2.41373  Q11.9992, -2.43098 11.9928, -2.44344 " /><path d="M12.7072, 2.44345 Q12.7015, 2.43223 12.6834, 2.41613  Q12.6489, 2.38773 12.6, 2.38659 " /><path d="M11.6, 2.38659 Q11.5536, 2.38752 11.5197, 2.41373  Q11.4992, 2.43098 11.4928, 2.44345 " /><path d="M12.5229, -2.98741 L12.2072, -2.44344 " /><path d="M13.0229, 2.98741 L12.7072, 2.44345 " /><path id= "88" d=" M 13.5375 -3 L 13.6625 -3 " />
<path d="M12.4928, 2.44345 L12.1771, 2.98741 " /><path d="M12.9928, -2.44344 L12.6771, -2.98742 " /><path d="M13.2072, -2.44344 Q13.2015, -2.43222 13.1834, -2.41612  Q13.1596, -2.39637 13.1264, -2.38921  Q13.1132, -2.38789 13.1, -2.38658  Q13.0535, -2.38752 13.0197, -2.41373  Q12.9992, -2.43098 12.9928, -2.44344 " /><path d="M13.7072, 2.44345 Q13.7015, 2.43222 13.6834, 2.41613  Q13.6489, 2.38773 13.6, 2.38658 " /><path d="M12.6, 2.38659 Q12.5536, 2.38752 12.5197, 2.41373  Q12.4992, 2.43098 12.4928, 2.44345 " /><path d="M13.5229, -2.98741 L13.2072, -2.44344 " /><path d="M14.0229, 2.98741 L13.7072, 2.44345 " /><path id= "96" d=" M 14.5375 -3 L 14.6625 -3 " />
<path d="M13.4928, 2.44344 L13.1771, 2.98741 " /><path d="M13.9928, -2.44344 L13.6771, -2.98742 " /><path d="M14.2072, -2.44344 Q14.2015, -2.43222 14.1834, -2.41612  Q14.1596, -2.39637 14.1264, -2.38921  Q14.1132, -2.38789 14.1, -2.38658  Q14.0535, -2.38752 14.0197, -2.41373  Q13.9992, -2.43098 13.9928, -2.44344 " /><path d="M14.7072, 2.44344 Q14.7015, 2.43222 14.6834, 2.41612  Q14.6489, 2.38773 14.6, 2.38658 " /><path d="M13.6, 2.38658 Q13.5536, 2.38752 13.5197, 2.41373  Q13.4992, 2.43098 13.4928, 2.44344 " /><path d="M14.5229, -2.98741 L14.2072, -2.44344 " /><path d="M15.0229, 2.98741 L14.7072, 2.44344 " /><path id= "104" d=" M 15.5375 -3 L 15.6625 -3 " />
<path d="M14.4928, 2.44344 L14.1771, 2.98741 " /><path d="M14.9928, -2.44343 L14.6771, -2.98742 " /><path d="M15.2072, -2.44344 Q15.2015, -2.43222 15.1834, -2.41612  Q15.1596, -2.39636 15.1264, -2.3892  Q15.1132, -2.38789 15.1, -2.38658  Q15.0535, -2.38751 15.0197, -2.41373  Q14.9992, -2.43098 14.9928, -2.44343 " /><path d="M15.7072, 2.44344 Q15.7015, 2.43222 15.6834, 2.41612  Q15.6489, 2.38772 15.6, 2.38658 " /><path d="M14.6, 2.38658 Q14.5536, 2.38751 14.5197, 2.41372  Q14.4992, 2.43098 14.4928, 2.44344 " /><path d="M15.5229, -2.98741 L15.2072, -2.44344 " /><path d="M16.0229, 2.98741 L15.7072, 2.44344 " /><path id= "112" d=" M 16.5375 -3 L 16.6625 -3 " />
<path d="M15.4928, 2.44344 L15.1771, 2.98741 " /><path d="M15.9928, -2.44343 L15.6771, -2.98742 " /><path d="M16.2072, -2.44343 Q16.2015, -2.43221 16.1834, -2.41611  Q16.1596, -2.39636 16.1264, -2.3892  Q16.1132, -2.38789 16.1, -2.38657  Q16.0535, -2.38751 16.0197, -2.41372  Q15.9992, -2.43097 15.9928, -2.44343 " /><path d="M16.7072, 2.44344 Q16.7015, 2.43222 16.6834, 2.41612  Q16.6489, 2.38772 16.6, 2.38658 " /><path d="M15.6, 2.38658 Q15.5536, 2.38751 15.5197, 2.41372  Q15.4992, 2.43098 15.4928, 2.44344 " /><path d="M16.5229, -2.98741 L16.2072, -2.44343 " /><path d="M17.0229, 2.98741 L16.7072, 2.44344 " /><path id= "120" d=" M 17.5375 -3 L 17.6625 -3 " />
<path d="M16.4928, 2.44344 L16.1771, 2.98741 " /><path d="M16.9928, -2.44343 L16.6771, -2.98742 " /><path d="M17.2072, -2.44343 Q17.2015, -2.43221 17.1834, -2.41611  Q17.1596, -2.39636 17.1264, -2.3892  Q17.1132, -2.38789 17.1, -2.38657  Q17.0535, -2.38751 17.0197, -2.41372  Q16.9992, -2.43097 16.9928, -2.44343 " /><path d="M17.7072, 2.44344 Q17.7014, 2.43221 17.6833, 2.41611  Q17.6489, 2.38772 17.6, 2.38657 " /><path d="M16.6, 2.38658 Q16.5536, 2.38751 16.5197, 2.41372  Q16.4992, 2.43097 16.4928, 2.44344 " /><path d="M17.5229, -2.98741 L17.2072, -2.44343 " /><path d="M18.0229, 2.98741 L17.7072, 2.44344 " /><path id= "128" d=" M 18.5375 -3 L 18.6625 -3 " />
<path d="M17.4928, 2.44343 L17.1771, 2.98741 " /><path d="M17.9928, -2.44343 L17.6771, -2.98741 " /><path d="M18.2072, -2.44343 Q18.2014, -2.43221 18.1833, -2.41611  Q18.1596, -2.39636 18.1264, -2.3892  Q18.1132, -2.38788 18.1, -2.38657  Q18.0535, -2.38751 18.0197, -2.41372  Q17.9992, -2.43097 17.9928, -2.44343 " /><path d="M18.7072, 2.44343 Q18.7014, 2.43221 18.6833, 2.41611  Q18.6489, 2.38772 18.6, 2.38657 " /><path d="M17.6, 2.38657 Q17.5536, 2.38751 17.5197, 2.41372  Q17.4992, 2.43097 17.4928, 2.44343 " /><path d="M18.5229, -2.98741 L18.2072, -2.44343 " /><path d="M19.0229, 2.98741 L18.7072, 2.44343 " /><path d="M18.4928, 2.44343 L18.1771, 2.98741 " /><path d="M18.9928, -2.44343 L18.6771, -2.98741 " /><path d="M19.2072, -2.44343 Q19.2014, -2.43221 19.1833, -2.41611  Q19.1596, -2.39635 19.1264, -2.3892  Q19.1132, -2.38788 19.1, -2.38657  Q19.0535, -2.3875 19.0196, -2.41372  Q18.9992, -2.43097 18.9928, -2.44343 " /><path d="M19.7072, 2.44343 Q19.7014, 2.43221 19.6833, 2.41611  Q19.6489, 2.38771 19.6, 2.38657 " /><path d="M18.6, 2.38657 Q18.5536, 2.3875 18.5197, 2.41372  Q18.4992, 2.43097 18.4928, 2.44343 " /><path d="M19.2072, -2.44343 L19.4777, -2.9094 " /><path d="M19.7072, 2.44343 L19.7935, 2.59202 " /><path id= "143" d=" M 20 -2.4 L 19.4872 -2.91283 " />
<path d="M19.4928, 2.44343 L19.1771, 2.98741 " /><path d="M19.6, 2.38657 Q19.5535, 2.3875 19.5197, 2.41371  Q19.4992, 2.43097 19.4928, 2.44343 " /></g>
<g   fill="none"
   stroke="rgb(0, 0, 0)"
   stroke-linecap="butt"
   stroke-linejoin="miter"
   stroke-width="0.35"
   transform="scale(1, -1)"
  >
<path d="M-4, -4.4 L-4, -4.28968  L-4, -3.96426  L-4, -3.44006  L-4, -2.74336  L-4, -1.90909  L-4, -0.979092  L-4, -7.77156e-16  L-4, 0.979092  L-4, 1.90909  L-4, 2.74336  L-4, 3.44006  L-4, 3.96426  L-4, 4.28968  L-4, 4.4 " /><path d="M-4 4.4 A0.6 0.6 0 0 0 -3.4 5" /><path id= "3" d=" M -3.4 5 L -0.4 5 " />
<path d="M-0.4, -5 L-0.4, -4.87464  L-0.4, -4.50484  L-0.4, -3.90916  L-0.4, -3.11745  L-0.4, -2.16942  L-0.4, -1.1126  L-0.4, -8.88178e-16  L-0.4, 1.1126  L-0.4, 2.16942  L-0.4, 3.11745  L-0.4, 3.90916  L-0.4, 4.50484  L-0.4, 4.87464  L-0.4, 5 " /><path id= "5" d=" M -0.4 5 L 2.36594e-16 4.6 " />
<path d="M0, -4.6 L0, -4.48467  L0, -4.14446  L0, -3.59642  L0, -2.86805  L0, -1.99587  L0, -1.0236  L0, -8.88178e-16  L0, 1.0236  L0, 1.99587  L0, 2.86805  L0, 3.59642  L0, 4.14446  L0, 4.48467  L0, 4.6 " /><path d="M0 3.25 A0.25 0.25 0 0 1 0.25 3" /><path d="M3.0236, 2.98739 Q3.0309, 3 3.03746, 3 " /><path id= "9" d=" M 3.03746 3 L 3.16251 3 " />
<path d="M2.16251, 3 Q2.1698, 3 2.17709, 2.98742 " /><path d="M2.17709, 2.98742 C2.21629, 2.92225 2.25548, 2.57137 2.29467, 2.02367  C2.33977, 1.39788 2.38487, 0.517725 2.42996, -0.328294  C2.46562, -0.997184 2.50129, -1.63771 2.53695, -2.11385  C2.5788, -2.67673 2.62065, -3.00324 2.6625, -3 " /><path d="M2.6625, -3 Q2.6698, -3 2.67709, -2.98742 " /><path id= "13" d=" M 0.25 3 L 2.16251 3 " />
<path id= "14" d=" M 4.03746 3 L 4.16251 3 " />
<path d="M3.16251, 3 Q3.1698, 3 3.17709, 2.98742 " /><path d="M3.17709, 2.98742 C3.21629, 2.92225 3.25548, 2.57137 3.29467, 2.02367  C3.33977, 1.39787 3.38487, 0.517716 3.42996, -0.328307  C3.46561, -0.996949 3.50126, -1.63725 3.53691, -2.11333  C3.57878, -2.67653 3.62064, -3.00324 3.6625, -3 " /><path d="M3.6625, -3 Q3.6698, -3 3.67709, -2.98742 " /><path d="M3.03746, 3 C3.07594, 3.00234 3.11443, 2.72819 3.15291, 2.24469  C3.20255, 1.62682 3.2522, 0.663258 3.30184, -0.270669  C3.33635, -0.919176 3.37087, -1.54562 3.40538, -2.02494  C3.44454, -2.57191 3.48371, -2.92228 3.52287, -2.98741 " /><path d="M3.52287, -2.98741 Q3.53017, -3 3.53746, -3 " /><path d="M4.02287, 2.98741 Q4.03016, 3 4.03746, 3 " /><path id= "21" d=" M 5.03746 3 L 5.16251 3 " />
<path d="M4.16251, 3 Q4.1698, 3 4.17709, 2.98742 " /><path d="M4.17709, 2.98742 C4.21629, 2.92225 4.25548, 2.57137 4.29467, 2.02367  C4.33977, 1.39787 4.38487, 0.517708 4.42996, -0.328317  C4.4656, -0.996742 4.50124, -1.63684 4.53687, -2.11287  C4.57875, -2.67634 4.62063, -3.00325 4.6625, -3 " /><path d="M4.6625, -3 Q4.66979, -3 4.67709, -2.98742 " /><path d="M4.03746, 3 C4.07594, 3.00234 4.11443, 2.7282 4.15291, 2.24469  C4.20254, 1.62704 4.25216, 0.663949 4.30179, -0.269677  C4.33624, -0.917075 4.37069, -1.54258 4.40515, -2.02171  C4.44439, -2.5705 4.48364, -2.92217 4.52288, -2.98741 " /><path d="M4.52288, -2.98741 Q4.53017, -3 4.53746, -3 " /><path d="M5.02287, 2.98741 Q5.03017, 3 5.03746, 3 " /><path id= "28" d=" M 6.03746 3 L 6.16251 3 " />
<path d="M5.16251, 3 Q5.1698, 3 5.17709, 2.98742 " /><path d="M5.17709, 2.98742 C5.21629, 2.92225 5.25548, 2.57137 5.29467, 2.02367  C5.33977, 1.39787 5.38487, 0.517701 5.42996, -0.328328  C5.46559, -0.996536 5.50121, -1.63644 5.53684, -2.11242  C5.57873, -2.67616 5.62062, -3.00325 5.6625, -3 " /><path d="M5.6625, -3 Q5.66979, -3 5.67709, -2.98742 " /><path d="M5.03746, 3 C5.07594, 3.00234 5.11443, 2.7282 5.15291, 2.2447  C5.20252, 1.62726 5.25213, 0.664649 5.30174, -0.268669  C5.33611, -0.914612 5.37049, -1.53885 5.40486, -2.01769  C5.4442, -2.56875 5.48354, -2.92202 5.52288, -2.98741 " /><path d="M5.52288, -2.98741 Q5.53017, -3 5.53746, -3 " /><path d="M6.02287, 2.98741 Q6.03017, 3 6.03746, 3 " /><path id= "35" d=" M 7.03747 3 L 7.16251 3 " />
<path d="M6.16251, 3 Q6.1698, 3 6.17709, 2.98742 " /><path d="M6.17709, 2.98742 C6.21629, 2.92225 6.25548, 2.57137 6.29467, 2.02367  C6.33977, 1.39786 6.38487, 0.517694 6.42996, -0.328338  C6.46557, -0.996344 6.50119, -1.63607 6.53681, -2.112  C6.57871, -2.676 6.6206, -3.00325 6.6625, -3 " /><path d="M6.6625, -3 Q6.66979, -3 6.67709, -2.98742 " /><path d="M6.03746, 3 C6.07595, 3.00234 6.11443, 2.7282 6.15292, 2.2447  C6.20251, 1.62749 6.25209, 0.66535 6.30168, -0.26766  C6.33595, -0.911569 6.37022, -1.53401 6.40449, -2.01237  C6.44395, -2.56642 6.48342, -2.92184 6.52288, -2.98741 " /><path d="M6.52288, -2.98741 Q6.53017, -3 6.53747, -3 " /><path d="M7.02288, 2.98741 Q7.03017, 3 7.03747, 3 " /><path id= "42" d=" M 8.03747 3 L 8.1625 3 " />
<path d="M7.16251, 3 Q7.1698, 3 7.17709, 2.98742 " /><path d="M7.17709, 2.98742 C7.21629, 2.92225 7.25548, 2.57137 7.29467, 2.02367  C7.33977, 1.39786 7.38487, 0.517688 7.42996, -0.328346  C7.46557, -0.996183 7.50117, -1.63575 7.53678, -2.11164  C7.57869, -2.67585 7.6206, -3.00326 7.6625, -3 " /><path d="M7.6625, -3 Q7.66979, -3 7.67709, -2.98742 " /><path d="M7.03747, 3 C7.07595, 3.00234 7.11443, 2.7282 7.15292, 2.2447  C7.20249, 1.62771 7.25206, 0.666046 7.30163, -0.26666  C7.33586, -0.909738 7.37008, -1.53148 7.4043, -2.00974  C7.44383, -2.56527 7.48336, -2.92174 7.52288, -2.98741 " /><path d="M7.52288, -2.98741 Q7.53018, -3 7.53747, -3 " /><path d="M8.02288, 2.98741 Q8.03017, 3 8.03747, 3 " /><path id= "49" d=" M 9.03747 3 L 9.1625 3 " />
<path d="M8.1625, 3 Q8.1698, 3 8.17709, 2.98741 " /><path d="M8.17709, 2.98741 C8.21629, 2.92225 8.25548, 2.57137 8.29467, 2.02367  C8.33977, 1.39786 8.38487, 0.517676 8.42996, -0.328361  C8.46555, -0.995855 8.50114, -1.63511 8.53673, -2.11092  C8.57865, -2.67557 8.62058, -3.00326 8.6625, -3 " /><path d="M8.6625, -3 Q8.66979, -3 8.67708, -2.98742 " /><path d="M8.03747, 3 C8.07595, 3.00234 8.11444, 2.7282 8.15292, 2.24471  C8.20247, 1.62793 8.25203, 0.666736 8.30158, -0.265666  C8.33626, -0.917332 8.37094, -1.54706 8.40561, -2.02801  C8.4447, -2.57325 8.4838, -2.92239 8.52289, -2.98741 " /><path d="M8.52289, -2.98741 Q8.53018, -3 8.53747, -3 " /><path d="M9.02288, 2.98741 Q9.03018, 3 9.03747, 3 " /><path id= "56" d=" M 10.0375 3 L 10.1625 3 " />
<path d="M9.1625, 3 Q9.1698, 3 9.17709, 2.98741 " /><path d="M9.17709, 2.98741 C9.21629, 2.92225 9.25547, 2.57137 9.29467, 2.02366  C9.33977, 1.39785 9.38487, 0.517667 9.42996, -0.328373  C9.46553, -0.995598 9.50111, -1.63461 9.53668, -2.11036  C9.57863, -2.67534 9.62056, -3.00327 9.6625, -3 " /><path d="M9.6625, -3 Q9.66979, -3 9.67708, -2.98742 " /><path d="M9.03747, 3 C9.07595, 3.00234 9.11444, 2.7282 9.15292, 2.24471  C9.20246, 1.62817 9.25199, 0.667481 9.30153, -0.264594  C9.33606, -0.913501 9.37059, -1.54077 9.40512, -2.02107  C9.44437, -2.57022 9.48363, -2.92215 9.52289, -2.98741 " /><path d="M9.52289, -2.98741 Q9.53018, -3 9.53747, -3 " /><path d="M10.0229, 2.98741 Q10.0302, 3 10.0375, 3 " /><path id= "63" d=" M 11.0375 3 L 11.1625 3 " />
<path d="M10.1625, 3 Q10.1698, 3 10.1771, 2.98741 " /><path d="M10.1771, 2.98741 C10.2163, 2.92225 10.2555, 2.57137 10.2947, 2.02366  C10.3398, 1.39785 10.3849, 0.517653 10.43, -0.328393  C10.4655, -0.995166 10.5011, -1.63377 10.5366, -2.10941  C10.5786, -2.67496 10.6205, -3.00327 10.6625, -3 " /><path d="M10.6625, -3 Q10.6698, -3 10.6771, -2.98742 " /><path d="M10.0375, 3 C10.076, 3.00234 10.1144, 2.72821 10.1529, 2.24472  C10.2024, 1.6284 10.252, 0.668196 10.3015, -0.263565  C10.3357, -0.90703 10.37, -1.52936 10.4042, -2.00817  C10.4438, -2.56459 10.4833, -2.92169 10.5229, -2.98741 " /><path d="M10.5229, -2.98741 Q10.5302, -3 10.5375, -3 " /><path d="M11.0229, 2.98741 Q11.0302, 3 11.0375, 3 " /><path id= "70" d=" M 12.0375 3 L 12.1625 3 " />
<path d="M11.1625, 3 Q11.1698, 3 11.1771, 2.98741 " /><path d="M11.1771, 2.98741 C11.2163, 2.92225 11.2555, 2.57136 11.2947, 2.02366  C11.3398, 1.39784 11.3849, 0.517635 11.43, -0.328418  C11.4655, -0.994591 11.501, -1.63265 11.5365, -2.10815  C11.5785, -2.67446 11.6205, -3.00328 11.6625, -3 " /><path d="M11.6625, -3 Q11.6698, -3 11.6771, -2.98742 " /><path d="M11.0375, 3 C11.076, 3.00234 11.1144, 2.72821 11.1529, 2.24472  C11.2024, 1.62865 11.2519, 0.668958 11.3014, -0.262467  C11.336, -0.911857 11.3705, -1.53973 11.4051, -2.02047  C11.4443, -2.56996 11.4836, -2.92213 11.5229, -2.98741 " /><path d="M11.5229, -2.98741 Q11.5302, -3 11.5375, -3 " /><path d="M12.0229, 2.98741 Q12.0302, 3 12.0375, 3 " /><path id= "77" d=" M 13.0375 3 L 13.1625 3 " />
<path d="M12.1625, 3 Q12.1698, 3 12.1771, 2.98741 " /><path d="M12.1771, 2.98741 C12.2163, 2.92225 12.2555, 2.57136 12.2947, 2.02366  C12.3398, 1.39784 12.3849, 0.517638 12.43, -0.328414  C12.4655, -0.994694 12.501, -1.63285 12.5365, -2.10837  C12.5785, -2.67455 12.6205, -3.00328 12.6625, -3 " /><path d="M12.6625, -3 Q12.6698, -3 12.6771, -2.98742 " /><path d="M12.0375, 3 C12.076, 3.00234 12.1144, 2.72821 12.1529, 2.24473  C12.2024, 1.62889 12.2519, 0.669718 12.3014, -0.261373  C12.336, -0.911634 12.3706, -1.5404 12.4052, -2.02155  C12.4444, -2.57043 12.4837, -2.92217 12.5229, -2.98741 " /><path d="M12.5229, -2.98741 Q12.5302, -3 12.5375, -3 " /><path d="M13.0229, 2.98741 Q13.0302, 3 13.0375, 3 " /><path id= "84" d=" M 14.0375 3 L 14.1625 3 " />
<path d="M13.1625, 3 Q13.1698, 3 13.1771, 2.98741 " /><path d="M13.1771, 2.98741 C13.2163, 2.92225 13.2555, 2.57136 13.2947, 2.02366  C13.3398, 1.39784 13.3849, 0.517642 13.43, -0.328408  C13.4655, -0.994833 13.501, -1.63312 13.5366, -2.10868  C13.5785, -2.67467 13.6205, -3.00328 13.6625, -3 " /><path d="M13.6625, -3 Q13.6698, -3 13.6771, -2.98742 " /><path d="M13.0375, 3 C13.076, 3.00234 13.1144, 2.72821 13.1529, 2.24473  C13.2024, 1.62911 13.2519, 0.670399 13.3013, -0.260392  C13.3361, -0.914623 13.3709, -1.54712 13.4057, -2.02956  C13.4448, -2.57393 13.4838, -2.92245 13.5229, -2.98741 " /><path d="M13.5229, -2.98741 Q13.5302, -3 13.5375, -3 " /><path d="M14.0229, 2.98741 Q14.0302, 3 14.0375, 3 " /><path id= "91" d=" M 15.0375 3 L 15.1625 3 " />
<path d="M14.1625, 3 Q14.1698, 3 14.1771, 2.98741 " /><path d="M14.1771, 2.98741 C14.2163, 2.92225 14.2555, 2.57136 14.2947, 2.02366  C14.3398, 1.39784 14.3849, 0.517636 14.43, -0.328416  C14.4655, -0.994629 14.501, -1.63273 14.5365, -2.10823  C14.5785, -2.67449 14.6205, -3.00328 14.6625, -3 " /><path d="M14.6625, -3 Q14.6698, -3 14.6771, -2.98742 " /><path d="M14.0375, 3 C14.076, 3.00234 14.1144, 2.72821 14.1529, 2.24473  C14.2024, 1.62933 14.2518, 0.671099 14.3013, -0.259384  C14.3356, -0.904986 14.37, -1.5296 14.4043, -2.00964  C14.4438, -2.56523 14.4834, -2.92175 14.5229, -2.98741 " /><path d="M14.5229, -2.98741 Q14.5302, -3 14.5375, -3 " /><path d="M15.0229, 2.98741 Q15.0302, 3 15.0375, 3 " /><path id= "98" d=" M 16.0375 3 L 16.1625 3 " />
<path d="M15.1625, 3 Q15.1698, 3 15.1771, 2.98741 " /><path d="M15.1771, 2.98741 C15.2163, 2.92224 15.2555, 2.57136 15.2947, 2.02366  C15.3398, 1.39783 15.3849, 0.517605 15.43, -0.328458  C15.4654, -0.993586 15.5009, -1.6307 15.5364, -2.10594  C15.5784, -2.67358 15.6205, -3.0033 15.6625, -3 " /><path d="M15.6625, -3 Q15.6698, -3 15.6771, -2.98742 " /><path d="M15.0375, 3 C15.076, 3.00234 15.1145, 2.72821 15.1529, 2.24474  C15.2024, 1.62958 15.2518, 0.671854 15.3012, -0.258296  C15.3361, -0.913629 15.3709, -1.5473 15.4058, -2.03036  C15.4448, -2.57428 15.4839, -2.92248 15.5229, -2.98741 " /><path d="M15.5229, -2.98741 Q15.5302, -3 15.5375, -3 " /><path d="M16.0229, 2.98741 Q16.0302, 3 16.0375, 3 " /><path id= "105" d=" M 17.0375 3 L 17.1625 3 " />
<path d="M16.1625, 3 Q16.1698, 3 16.1771, 2.98741 " /><path d="M16.1771, 2.98741 C16.2163, 2.92224 16.2555, 2.57136 16.2947, 2.02366  C16.3398, 1.39782 16.3849, 0.517589 16.43, -0.32848  C16.4654, -0.992991 16.5008, -1.62955 16.5363, -2.10464  C16.5783, -2.67306 16.6204, -3.00331 16.6625, -3 " /><path d="M16.6625, -3 Q16.6698, -3 16.6771, -2.98741 " /><path d="M16.0375, 3 C16.076, 3.00234 16.1145, 2.72822 16.1529, 2.24474  C16.2023, 1.62988 16.2517, 0.672821 16.3011, -0.256901  C16.3357, -0.905819 16.3702, -1.53368 16.4047, -2.01506  C16.4441, -2.56761 16.4835, -2.92194 16.5229, -2.98741 " /><path d="M16.5229, -2.98741 Q16.5302, -3 16.5375, -3 " /><path d="M17.0229, 2.98741 Q17.0302, 3 17.0375, 3 " /><path id= "112" d=" M 18.0375 3 L 18.1625 3 " />
<path d="M17.1625, 3 Q17.1698, 3 17.1771, 2.98741 " /><path d="M17.1771, 2.98741 C17.2163, 2.92224 17.2555, 2.57136 17.2947, 2.02366  C17.3398, 1.39783 17.3849, 0.517616 17.43, -0.328442  C17.4654, -0.993997 17.5009, -1.6315 17.5364, -2.10684  C17.5784, -2.67394 17.6205, -3.00329 17.6625, -3 " /><path d="M17.6625, -3 Q17.6698, -3 17.6771, -2.98741 " /><path d="M17.0375, 3 C17.076, 3.00234 17.1145, 2.72822 17.1529, 2.24475  C17.2026, 1.62611 17.2523, 0.66086 17.3021, -0.274173  C17.3362, -0.915866 17.3704, -1.53578 17.4045, -2.01257  C17.444, -2.56652 17.4835, -2.92185 17.5229, -2.98741 " /><path d="M17.5229, -2.98741 Q17.5302, -3 17.5375, -3 " /><path d="M18.0229, 2.98741 Q18.0302, 3 18.0375, 3 " /><path id= "119" d=" M 19.0375 3 L 19.1625 3 " />
<path d="M18.1625, 3 Q18.1698, 3 18.1771, 2.98741 " /><path d="M18.1771, 2.98741 C18.2163, 2.92224 18.2555, 2.57136 18.2947, 2.02365  C18.3398, 1.39781 18.3849, 0.517571 18.43, -0.328504  C18.4654, -0.992281 18.5007, -1.62818 18.5361, -2.10309  C18.5783, -2.67244 18.6204, -3.00332 18.6625, -3 " /><path d="M18.6625, -3 Q18.6698, -3 18.6771, -2.98741 " /><path d="M18.0375, 3 C18.076, 3.00234 18.1145, 2.72822 18.1529, 2.24475  C18.2026, 1.62639 18.2523, 0.661715 18.302, -0.272942  C18.3366, -0.922932 18.3712, -1.55057 18.4058, -2.03  C18.4448, -2.57413 18.4839, -2.92247 18.5229, -2.98741 " /><path d="M18.5229, -2.98741 Q18.5302, -3 18.5375, -3 " /><path d="M19.0229, 2.98741 Q19.0302, 3 19.0375, 3 " /><path d="M19.4, -1.94845 C19.4, -1.35132 19.4, -0.548784 19.4, 0.23539 " /><path d="M19.1625, 3 Q19.1698, 3 19.1771, 2.98741 " /><path d="M19.1771, 2.98741 C19.2163, 2.92224 19.2555, 2.57136 19.2947, 2.02366  C19.3298, 1.53585 19.3649, 0.895734 19.4, 0.23539 " /><path d="M19.0375, 3 C19.076, 3.00234 19.1145, 2.72822 19.1529, 2.24476  C19.1801, 1.90518 19.2073, 1.46526 19.2345, 0.980677  C19.2897, -0.00312817 19.3448, -1.16042 19.4, -1.94845 " /><path d="M19.8042, 2.59584 Q19.7988, 2.60116 19.7935, 2.59202 " /><path d="M19.4872, -2.91283 Q19.4824, -2.91758 19.4777, -2.9094 " /><path d="M19.4777, -2.9094 C19.4515, -2.86707 19.4256, -2.51362 19.4, -1.94845 " /><path id= "133" d=" M 19.8042 2.59584 L 20 2.4 " />
<path d="M20, -2.4 Q20, -2.3997 20, -2.32759 " /><path d="M19.9413, -2.4037 C19.9642, -2.41464 19.9937, -2.37477 20, -2.32759 " /><path d="M19.4, 0.23539 C19.4881, -0.471958 19.5792, -1.15912 19.6739, -1.6473  C19.7599, -2.09288 19.8488, -2.36894 19.9413, -2.4037 " /><path d="M20, -2.32759 C20, -2.16645 20, -1.78005 20, -1.27577 " /><path d="M20, -1.27577 C19.9868, -0.757542 19.9668, -0.100204 19.9413, 0.517402 " /><path d="M19.8042, 2.59584 C19.8268, 2.5748 19.8496, 2.34919 19.8727, 1.96684  C19.8953, 1.59417 19.9182, 1.07341 19.9413, 0.517402 " /><path d="M20, -1.27577 Q20, -1.11426 20, -0.952745  Q20, -0.780216 20, -0.607686  Q20, -0.428128 20, -0.24857  Q20, 0.117049 20, 0.47847  Q20, 0.654024 20, 0.829578  Q20, 0.995538 20, 1.1615  Q20, 1.31403 20, 1.46655  Q20, 1.60212 20, 1.73769  Q20, 1.85316 20, 1.96863  Q20, 2.06133 20, 2.15403  Q20, 2.22183 20, 2.28962  Q20, 2.33093 20, 2.37224  Q20, 2.38612 20, 2.4 " /></g>

</svg>
