<svg xmlns="http://www.w3.org/2000/svg" viewBox="-5.8 -5.8 11.6 11.6">
<rect width="100%" height="100%" fill="white"/>
<g   fill="none"
   stroke="rgb(0, 0, 0)"
   stroke-linecap="butt"
   stroke-linejoin="miter"
   stroke-width="0.35"
   transform="scale(1, -1)"
  >
<circle cx ="0" cy ="0" r ="2.90119" /><circle cx ="0" cy ="0" r ="5" /><path d="M1.44338, 2.5 C0.388956, 2.5 -0.388956, 2.5 -1.44338, 2.5 " /><path d="M-1.44338, 2.5 C-1.97059, 1.58685 -2.35954, 0.913154 -2.88675, 2.13163e-13 " /><path d="M-2.88675, -2.15162e-13 C-2.35954, -0.913154 -1.97059, -1.58685 -1.44338, -2.5 " /><path d="M-1.44338, -2.5 C-0.388956, -2.5 0.388956, -2.5 1.44338, -2.5 " /><path d="M1.44338, -2.5 C1.97059, -1.58685 2.35954, -0.913154 2.88675, -2.14939e-13 " /><path d="M2.88675, 2.14051e-13 C2.35954, 0.913154 1.97059, 1.58685 1.44338, 2.5 " /><path d="M1.66667 1.02054e-16 A1.66667 1.66667 0 0 0 -1.66667 -3.06162e-16" /><path d="M-1.66667 -3.06162e-16 A1.66667 1.66667 0 0 0 1.66667 5.10269e-16" /></g>

</svg>
