<svg xmlns="http://www.w3.org/2000/svg" viewBox="-7.442328 -6.582778 14.884656 13.165556">
<rect width="100%" height="100%" fill="white"/>
<g   fill="none"
   stroke="rgb(0, 0, 0)"
   stroke-linecap="butt"
   stroke-linejoin="miter"
   stroke-width="0.35"
   transform="scale(1, -1)"
  >
<path d="M5.55625 0 A5.55625 5.55625 0 0 1 4.81185 2.77813" /><path d="M4.81185 -2.77813 A5.55625 5.55625 0 0 1 5.55625 -1.36089e-15" /><path d="M-1.02067e-15 -5.55625 A5.55625 5.55625 0 0 1 4.81185 -2.77813" /><path d="M-4.81185 -2.77813 A5.55625 5.55625 0 0 1 -1.02067e-15 -5.55625" /><path d="M-4.81185 2.77813 A5.55625 5.55625 0 0 1 -4.81185 -2.77813" /><path d="M3.40222e-16 5.55625 A5.55625 5.55625 0 0 1 -4.81185 2.77813" /><path d="M4.81185 2.77813 A5.55625 5.55625 0 0 1 3.40222e-16 5.55625" /><path d="M4.81185, 2.77813 C5.32063, 1.8969 5.8291, 1.0162 6.4158, 1.42071e-13 " /><path d="M8.88178e-16, 5.55625 C1.01755, 5.55625 2.03449, 5.55625 3.2079, 5.55625 " /><path d="M3.2079, 5.55625 C3.79461, 4.54005 4.30308, 3.65935 4.81185, 2.77812 " /><path d="M-4.81185, 2.77813 C-4.30308, 3.65935 -3.79461, 4.54005 -3.2079, 5.55625 " /><path d="M-3.2079, 5.55625 C-2.03449, 5.55625 -1.01755, 5.55625 6.66134e-16, 5.55625 " /><path d="M-4.81185, -2.77813 C-5.32063, -1.8969 -5.8291, -1.0162 -6.4158, -1.96509e-13 " /><path d="M-6.4158, 8.83738e-14 C-5.8291, 1.0162 -5.32063, 1.8969 -4.81185, 2.77813 " /><path d="M-3.2079, -5.55625 C-3.79461, -4.54005 -4.30308, -3.65935 -4.81185, -2.77812 " /><path d="M-1.33227e-15, -5.55625 C-1.01755, -5.55625 -2.03449, -5.55625 -3.2079, -5.55625 " /><path d="M3.2079, -5.55625 C2.03449, -5.55625 1.01755, -5.55625 -1.33227e-15, -5.55625 " /><path d="M4.81185, -2.77813 C4.30308, -3.65935 3.79461, -4.54005 3.2079, -5.55625 " /><path d="M6.4158, -1.42997e-13 C5.8291, -1.0162 5.32063, -1.8969 4.81185, -2.77813 " /></g>

</svg>
