<svg xmlns="http://www.w3.org/2000/svg" viewBox="-2.9318308 -3.6488308 19.994351599999998 15.5665516">
<rect width="100%" height="100%" fill="white"/>
<g   fill="none"
   stroke="rgb(0, 0, 0)"
   stroke-linecap="butt"
   stroke-linejoin="miter"
   stroke-width="0.35"
   transform="scale(1, -1)"
  >
<path id= "1" d=" M -0.931594 -2.92625 L 12.0737 -10.4349 " />
<path id= "2" d=" M 2.06841 2.26991 L 15.0737 -5.23872 " />
</g>
<g   fill="none"
   stroke="rgb(0, 0, 0)"
   stroke-linecap="butt"
   stroke-linejoin="miter"
   stroke-width="0.35"
   transform="scale(1, -1)"
  >
<path d="M-1.55291 -1.55291 A3 1.73205 -120 0 0 2.06841 2.26991" />
<path d="M2.06841 2.26991 A3 1.73205 -120 0 0 2.68973 0.896575" />
<path d="M2.68973 0.896575 A3 1.73205 -120 0 0 -0.931594 -2.92625" />
<path d="M-0.931594 -2.92625 A3 1.73205 -120 0 0 -1.55291 -1.55291" />
<path d="M12.3285 -10.5388 A3 1.73205 -120 0 0 12.0737 -10.4349" />
<path d="M12.3285, -10.5388 Q9.06132, -8.62412 6.01041, -6.81618 " /><path d="M6.01041, -6.81618 Q9.25208, -8.64116 12.709, -10.5728 " /><path d="M15.6836 -6.87229 A3 1.73205 -120 0 0 12.709 -10.5728" />
<path d="M15.6836, -6.87229 Q12.3386, -4.80143 9.19239, -2.85774 " /><path d="M9.19239, -2.85774 Q12.3386, -4.54709 15.6836, -6.36498 " /><path d="M15.0737 -5.23872 A3 1.73205 -120 0 0 15.6836 -6.36498" />
<path d="M12.4922 -10.4516 A5.78125 4.33819 28.8541 0 0 12.3285 -10.5388" />
<path d="M15.6836 -6.36498 A5.78125 4.55106 43.6522 0 0 15.5678 -6.80059" />
</g>

</svg>
