<svg xmlns="http://www.w3.org/2000/svg" viewBox="-1.6 -4.6 23.2 9.2">
<rect width="100%" height="100%" fill="white"/>
<g   fill="none"
   stroke="rgb(0, 0, 0)"
   stroke-linecap="butt"
   stroke-linejoin="miter"
   stroke-width="0.35"
   transform="scale(1, -1)"
  >
<path d="M0 3.28645e-16 A6 6 0 0 1 0.803848 -3" /><path id= "2" d=" M 0.803848 3 L 10 3 " />
<path d="M19.1962 -3 A6 6 0 0 1 20 -4.06143e-16" /></g>
<g   fill="none"
   stroke="rgb(0, 0, 0)"
   stroke-linecap="butt"
   stroke-linejoin="miter"
   stroke-width="0.35"
   transform="scale(1, -1)"
  >
<path d="M0 2.00173e-29 A6 6 0 0 0 0.803848 3" /><path d="M0.803848, 3 L0.803848, 2.92478  L0.803848, 2.70291  L0.803848, 2.34549  L0.803848, 1.87047  L0.803848, 1.30165  L0.803848, 0.667563  L0.803848, 6.66134e-16  L0.803848, -0.667563  L0.803848, -1.30165  L0.803848, -1.87047  L0.803848, -2.34549  L0.803848, -2.70291  L0.803848, -2.92478  L0.803848, -3 " /><path id= "3" d=" M 0.803848 -3 L 19.1962 -3 " />
<path d="M19.1962, -1.76098 L19.1962, -1.92053  L19.1962, -2.07137  L19.1962, -2.2128  L19.1962, -2.34419  L19.1962, -2.46493  L19.1962, -2.57449  L19.1962, -2.67235  L19.1962, -2.75809  L19.1962, -2.8313  L19.1962, -2.89167  L19.1962, -2.9389  L19.1962, -2.97279  L19.1962, -2.99319  L19.1962, -3 " /><path d="M19.1962, -1.76098 C16.0344, -1.67698 12.9636, -1.58983 10, -1.5 " /><path d="M10, -1.5 C12.9636, -1.41015 16.0344, -1.31761 19.1962, -1.22289 " /><path d="M19.1962, 2.98387 L19.1962, 2.91507  L19.1962, 2.79339  L19.1962, 2.62104  L19.1962, 2.40115  L19.1962, 2.13772  L19.1962, 1.8355  L19.1962, 1.5  L19.1962, 1.13729  L19.1962, 0.753949  L19.1962, 0.356934  L19.1962, -0.449199  L19.1962, -0.843696  L19.1962, -1.22289 " /><path d="M19.1962, 2.98387 C16.0344, 2.99459 12.9636, 2.99998 10, 3 " /><path d="M20 2.00173e-29 A6 6 0 0 1 19.4415 2.52793" /><path d="M19.4415 2.52793 A5.78125 4.73378 177.138 0 1 19.1962 2.98387" />
<path d="M19.1962 -1.22289 A5.78125 0.503662 1.649 0 0 19.4415 -1.26396" />
<path d="M19.4415 -1.26396 A5.78125 5.23744 176.118 0 0 19.1962 -1.76098" />
<path id= "13" d=" M 19.4415 -1.26396 L 10 -1.5 " />
</g>

</svg>
