<svg xmlns="http://www.w3.org/2000/svg" viewBox="-5.532304 -4.913504 13.245808 9.827008">
<rect width="100%" height="100%" fill="white"/>
<g   fill="none"
   stroke="rgb(0, 0, 0)"
   stroke-linecap="butt"
   stroke-linejoin="miter"
   stroke-width="0.35"
   transform="scale(1, -1)"
  >
<path d="M6.8, 0 C6.80092, -1.03245 6.56158, -2.06484 6.1066, -2.99159  C5.65318, -3.91911 4.98413, -4.74098 4.16777, -5.37305  C3.35254, -6.00658 2.39009, -6.45022 1.37896, -6.65873  C0.368171, -6.86894 -0.691307, -6.84402 -1.69109, -6.58637  C-2.69133, -6.3305 -3.63177, -5.84193 -4.41625, -5.17077  C-5.20187, -4.50093 -5.83154, -3.64851 -6.24073, -2.70061  C-6.65161, -1.75344 -6.84196, -0.7109 -6.79246, 0.320324  C-6.7447, 1.35163 -6.45708, 2.37163 -5.95889, 3.27592  C-5.54761, 4.02491 -4.99312, 4.69515 -4.33449, 5.23949  C-3.67637, 5.78446 -2.9141, 6.20354 -2.10132, 6.46718  C-1.15349, 6.77599 -0.136605, 6.87207 0.852267, 6.74639  C1.84133, 6.6222 2.80237, 6.27625 3.64362, 5.74143  C4.60623, 5.13217 5.41124, 4.2748 5.9589, 3.27593  C6.50882, 2.27831 6.80138, 1.13921 6.8, 0 " /></g>
<g   fill="none"
   stroke="rgb(0, 0, 0)"
   stroke-linecap="butt"
   stroke-linejoin="miter"
   stroke-width="0.35"
   transform="scale(1, -1)"
  >
<circle cx ="0" cy ="0" r ="3.2" /><circle cx ="0" cy ="0" r ="3.2" /><path d="M4 0 A4 4 0 0 1 3.4641 2" /><path d="M3.4641 -2 A4 4 0 0 1 4 -9.79717e-16" /><path d="M6.32922e-09 -4 A4 4 0 0 1 3.4641 -2" /><path d="M-3.4641 -2 A4 4 0 0 1 6.32922e-09 -4" /><path d="M-3.4641 2 A4 4 0 0 1 -3.4641 -2" /><path d="M1.69887e-13 4 A4 4 0 0 1 -3.4641 2" /><path d="M3.4641 2 A4 4 0 0 1 1.69887e-13 4" /><path d="M3.4641, 2 C3.83038, 1.3656 4.19643, 0.731575 4.6188, 3.36371e-13 " /><path d="M1.69864e-13, 4 C0.732548, 4 1.46465, 4 2.3094, 4 " /><path d="M2.3094, 4 C2.73178, 3.26843 3.09783, 2.6344 3.4641, 2 " /><path d="M-3.4641, 2 C-3.09783, 2.6344 -2.73178, 3.26843 -2.3094, 4 " /><path d="M-2.3094, 4 C-1.46465, 4 -0.732548, 4 1.6942e-13, 4 " /><path d="M-3.4641, -2 C-3.83038, -1.3656 -4.19643, -0.731575 -4.6188, -3.35953e-13 " /><path d="M-4.6188, 3.38413e-13 C-4.19643, 0.731575 -3.83038, 1.3656 -3.4641, 2 " /><path d="M-2.3094, -4 C-2.73178, -3.26843 -3.09783, -2.6344 -3.4641, -2 " /><path d="M6.32922e-09, -4 C-0.732548, -4 -1.46465, -4 -2.3094, -4 " /><path d="M2.3094, -4 C1.46465, -4 0.732548, -4 6.32922e-09, -4 " /><path d="M3.4641, -2 C3.09783, -2.6344 2.73178, -3.26843 2.3094, -4 " /><path d="M4.6188, -3.37064e-13 C4.19643, -0.731575 3.83038, -1.3656 3.4641, -2 " /></g>

</svg>
