<svg xmlns="http://www.w3.org/2000/svg" viewBox="-2.8174848 -3.4309248 6.2484096 5.6025596">
<rect width="100%" height="100%" fill="white"/>
<g   fill="none"
   stroke="rgb(0, 0, 0)"
   stroke-linecap="butt"
   stroke-linejoin="miter"
   stroke-width="0.35"
   transform="scale(1, -1)"
  >
<path d="M2.45 0 A2.45 2.45 0 0 1 -1.79132 1.67143" /><path d="M-1.7905 -1.6723 A2.45 2.45 0 0 1 2.45 -6.00077e-16" /><path d="M-1.79132, 1.67143 C-1.92772, 1.49503 -2.06009, 1.28669 -2.15976, 1.0608  C-2.3061, 0.733047 -2.38729, 0.366397 -2.38656, -0.000579955 " /><path d="M-2.38656, -0.000579955 C-2.38711, -0.367465 -2.30578, -0.733978 -2.15936, -1.0616  C-2.05956, -1.28753 -1.92704, -1.4959 -1.7905, -1.6723 " /><circle cx ="0" cy ="0" r ="1.74071" /><path d="M2.69095, 1.3142e-06 C2.67257, 0.51325 2.50243, 1.01882 2.20677, 1.4358  C1.91756, 1.84657 1.50815, 2.16996 1.04328, 2.35371  C0.591687, 2.53391 0.0894245, 2.58118 -0.385054, 2.48734  C-0.856865, 2.39564 -1.29925, 2.1647 -1.6412, 1.83079 " /><path d="M-1.6412, 1.83079 Q-1.71971, 1.75438 -1.79132, 1.67143 " /><path d="M-1.7905, -1.6723 Q-1.80941, -1.65875 -1.83102, -1.64098 " /><path d="M-1.83102, -1.64098 C-2.30615, -1.25287 -2.63033, -0.674548 -2.72621, -0.0517539  C-2.83609, 0.631391 -2.6716, 1.3598 -2.28095, 1.94866 " /><path d="M-2.28095 1.94866 A3 3 0 0 1 -2.99078 -0.234973" /><path d="M2.69095, -4.44089e-16 C2.71921, -0.687449 2.46997, -1.38229 2.01152, -1.90049  C1.54666, -2.43375 0.869528, -2.7763 0.161205, -2.83913  C-0.573935, -2.90989 -1.33314, -2.67855 -1.9094, -2.21092  C-2.51071, -1.7307 -2.90747, -1.00351 -2.99078, -0.234973 " /><path d="M0.866025, 1.5 C0.233374, 1.5 -0.233374, 1.5 -0.866025, 1.5 " /><path d="M-0.866025, 1.5 C-1.18235, 0.952108 -1.41572, 0.547892 -1.73205, 7.38298e-14 " /><path d="M-1.73205, -7.43849e-14 C-1.41572, -0.547892 -1.18235, -0.952108 -0.866025, -1.5 " /><path d="M-0.866025, -1.5 C-0.233374, -1.5 0.233374, -1.5 0.866025, -1.5 " /><path d="M0.866025, -1.5 C1.18235, -0.952108 1.41572, -0.547892 1.73205, -7.49082e-14 " /><path d="M1.73205, 7.43849e-14 C1.41572, 0.547892 1.18235, 0.952108 0.866025, 1.5 " /><path d="M-2.28095, 1.94866 C-1.80492, 2.50965 -1.11544, 2.88303 -0.385486, 2.97513  C-0.0943841, 3.01261 0.196002, 3.00771 0.485673, 2.96043  C1.02418, 2.87286 1.53701, 2.63436 1.95097, 2.27897  C2.61071, 1.72022 3.00458, 0.864473 3, 7.44909e-11 " /><path d="M3, 7.44871e-11 C3.00342, -0.801123 2.66729, -1.59623 2.09021, -2.15198  C1.46428, -2.76669 0.558835, -3.07999 -0.313116, -2.98361  C-0.971452, -2.91617 -1.60364, -2.62223 -2.0795, -2.16233  C-2.60533, -1.65992 -2.93617, -0.960153 -2.99078, -0.234973 " /><path d="M-2.16083, 2.08106 L-2.14758, 2.09473 " /><path d="M-1.60546, 2.53426 L-1.52937, 2.5809 " /><path d="M-1.11652, 2.78449 L-1.09066, 2.79472 " /><path d="M-0.524477, 2.9538 L-0.429469, 2.9691 " /><path d="M-0.13509, 2.99696 L-0.0108991, 2.99998 " /><path d="M0.398852, 2.97337 L0.544754, 2.95013 " /><path d="M0.583804, 2.94265 L0.59231, 2.94095 " /><path d="M0.592319, 2.94095 L0.631226, 2.93284 " /><path d="M0.631235, 2.93284 L0.635475, 2.93192 " /><path d="M0.635531, 2.93191 L0.637648, 2.93145 " /><path d="M0.657037, 2.92717 L0.661263, 2.92621 " /><path d="M0.661268, 2.92621 L0.680612, 2.92177 " /><path d="M0.680617, 2.92177 L0.682726, 2.92128 " /><path d="M0.682811, 2.92126 L0.684919, 2.92077 " /><path d="M0.684924, 2.92077 L0.70422, 2.91617 " /><path d="M0.704224, 2.91617 L0.708432, 2.91515 " /><path d="M0.708437, 2.91515 L0.727696, 2.91041 " /><path d="M0.7277, 2.9104 L0.7298, 2.90988 " /><path d="M0.73081, 2.90962 L0.750389, 2.90464 " /><path d="M0.752226, 2.90416 L0.760145, 2.9021 " /><path d="M0.760153, 2.9021 Q0.846676, 2.87943 0.931696, 2.85166 " /><path d="M0.931711, 2.85165 L0.939478, 2.8491 " /><path d="M0.939485, 2.8491 L0.947253, 2.84653 " /><path d="M0.949068, 2.84592 L0.967325, 2.83977 " /><path d="M0.970839, 2.83857 L0.989061, 2.83227 " /><path d="M0.990837, 2.83165 L0.999431, 2.82863 " /><path d="M0.999439, 2.82863 L1.00801, 2.82558 " /><path d="M1.00803, 2.82557 Q1.09752, 2.79365 1.1848, 2.75613 " /><path d="M1.19318, 2.75251 L1.20153, 2.74888 " /><path d="M1.20326, 2.74812 L1.22089, 2.74033 " /><path d="M1.22428, 2.73882 L1.24185, 2.7309 " /><path d="M1.24359, 2.73011 L1.25103, 2.72671 " /><path d="M1.25104, 2.7267 L1.25846, 2.72328 " /><path d="M1.25848, 2.72328 Q1.44945, 2.635 1.62626, 2.52097 " /><path d="M1.62627, 2.52096 L1.63313, 2.51652 " /><path d="M1.63314, 2.51652 L1.64, 2.51205 " /><path d="M1.64083, 2.51151 L1.65769, 2.50041 " /><path d="M1.66001, 2.49887 L1.67681, 2.48763 " /><path d="M1.67837, 2.48658 L1.68591, 2.48147 " /><path d="M1.68592, 2.48147 L1.69344, 2.47634 " /><path d="M1.84677, 2.3642 L1.85393, 2.35859 " /><path d="M1.85394, 2.35858 L1.86109, 2.35294 " /><path d="M1.86256, 2.35178 L1.87764, 2.33976 " /><path d="M1.87909, 2.33859 L1.88382, 2.33479 " /><path d="M1.88382, 2.33478 L1.88853, 2.33097 " /><path d="M1.88855, 2.33096 Q1.9671, 2.26732 2.0412, 2.19853 " /><path d="M2.04121, 2.19852 L2.04564, 2.19439 " /><path d="M2.04565, 2.19438 L2.05008, 2.19024 " /><path d="M2.05147, 2.18895 L2.06549, 2.17572 " /><path d="M2.1033, 2.13919 L2.1174, 2.12523 " /><path d="M2.13604, 2.1065 Q2.20103, 2.0406 2.26183, 1.97082 " /><path d="M2.26184, 1.9708 L2.26753, 1.96426 " /><path d="M2.26757, 1.96421 L2.26899, 1.96257 " /><path d="M2.26899, 1.96257 L2.28192, 1.94752 " /><path d="M2.28193, 1.94751 L2.28474, 1.94422 " /><path d="M2.28474, 1.94421 L2.29755, 1.92905 " /><path d="M2.29901, 1.92732 L2.3004, 1.92566 " /><path d="M2.3004, 1.92566 L2.31308, 1.91041 " /><path d="M2.31308, 1.91041 L2.31584, 1.90707 " /><path d="M2.31584, 1.90706 L2.3284, 1.89171 " /><path d="M2.34938, 1.86559 L2.35445, 1.85918 " /><path d="M2.35446, 1.85917 Q2.40735, 1.79219 2.45635, 1.72231 " /><path d="M2.45636, 1.7223 L2.46104, 1.7156 " /><path d="M2.46105, 1.71559 L2.46572, 1.70887 " /><path d="M2.46681, 1.7073 L2.47772, 1.69142 " /><path d="M2.47981, 1.68835 L2.49061, 1.67238 " /><path d="M2.49166, 1.67082 L2.49672, 1.66325 " /><path d="M2.49672, 1.66324 L2.50176, 1.65566 " /><path d="M2.60152, 1.49402 Q2.74516, 1.24377 2.83859, 0.970769 " /><path d="M2.91626, 0.703852 Q2.94619, 0.579853 2.96548, 0.453762 " /><circle cx ="0" cy ="0" r ="0.24" /><path d="M3, 6.75617e-11 C3.00342, -0.801123 2.66729, -1.59623 2.09021, -2.15198  C1.46427, -2.76669 0.558831, -3.07999 -0.313122, -2.98361  C-0.971465, -2.91616 -1.60366, -2.62222 -2.07952, -2.16231  C-2.60534, -1.6599 -2.93617, -0.960143 -2.99078, -0.234973 " /><path d="M-1.5887, 2.5448 L-1.48249, 2.60811 " /><path d="M-0.757097, 2.9029 L-0.7175, 2.91294 " /><path d="M-0.305843, 2.98437 Q-0.0999508, 3.00545 0.106887, 2.9981 " /><path d="M0.354822, 2.97894 L0.371485, 2.97691 " /><path d="M0.394564, 2.97394 Q0.493155, 2.96086 0.59067, 2.94128 " /><path d="M0.590687, 2.94127 L0.59984, 2.93942 " /><path d="M0.599846, 2.93942 L0.608999, 2.93754 " /><path d="M0.609005, 2.93754 L0.618146, 2.93563 " /><path d="M0.618164, 2.93562 Q0.775269, 2.90253 0.927951, 2.85288 " /><path d="M0.927968, 2.85287 L0.936844, 2.84997 " /><path d="M0.93685, 2.84997 L0.945723, 2.84704 " /><path d="M0.945728, 2.84703 L0.954586, 2.84408 " /><path d="M0.954603, 2.84407 L1.08781, 2.79583 " /><path d="M1.08783, 2.79582 L1.09652, 2.79242 " /><path d="M1.09653, 2.79242 L1.10523, 2.78899 " /><path d="M1.10677, 2.78838 L1.12233, 2.78215 " /><path d="M1.12535, 2.78093 L1.14088, 2.7746 " /><path d="M1.14389, 2.77336 L1.15938, 2.76692 " /><path d="M1.1808, 2.75784 L1.18228, 2.75721 " /><path d="M1.21751, 2.74184 L1.23284, 2.73498 " /><path d="M1.23579, 2.73365 L1.25106, 2.72669 " /><path d="M1.25401, 2.72533 L1.26923, 2.71828 " /><path d="M1.27218, 2.7169 L1.28734, 2.70975 " /><path d="M1.28884, 2.70904 L1.3015, 2.70298 " /><path d="M1.30151, 2.70297 L1.31413, 2.69686 " /><path d="M1.31416, 2.69685 Q1.46479, 2.62344 1.60633, 2.53372 " /><path d="M1.60634, 2.53371 L1.61816, 2.52617 " /><path d="M1.61819, 2.52616 Q1.74151, 2.44716 1.85655, 2.35653 " /><path d="M1.85657, 2.35651 L1.86756, 2.34781 " /><path d="M1.86757, 2.3478 L1.87854, 2.33904 " /><path d="M1.87983, 2.338 L1.89287, 2.32746 " /><path d="M1.89539, 2.3254 L1.90836, 2.31477 " /><path d="M1.91087, 2.3127 L1.92377, 2.30198 " /><path d="M1.92626, 2.2999 L2.00614, 2.23056 " /><path d="M2.00615, 2.23055 L2.00922, 2.22779 " /><path d="M2.02324, 2.21506 L2.02477, 2.21367 " /><path d="M2.02483, 2.21361 L2.02635, 2.21221 " /><path d="M2.02636, 2.21221 L2.04028, 2.19937 " /><path d="M2.04029, 2.19937 L2.04332, 2.19656 " /><path d="M2.04332, 2.19655 L2.05715, 2.18361 " /><path d="M2.05715, 2.18361 L2.05865, 2.18219 " /><path d="M2.06021, 2.18072 L2.07394, 2.16767 " /><path d="M2.07394, 2.16766 L2.07693, 2.1648 " /><path d="M2.07693, 2.1648 L2.09056, 2.15164 " /><path d="M2.09057, 2.15163 L2.09205, 2.15019 " /><path d="M2.09208, 2.15016 L2.09801, 2.14438 " /><path d="M2.09802, 2.14437 L2.15157, 2.09063 " /><path d="M2.15158, 2.09062 L2.23743, 1.99847 " /><path d="M2.25001, 1.9843 L2.25138, 1.98275 " /><path d="M2.25279, 1.98114 L2.26525, 1.96688 " /><path d="M2.26526, 1.96688 L2.26797, 1.96376 " /><path d="M2.26797, 1.96375 L2.28032, 1.9494 " /><path d="M2.28032, 1.94939 L2.28166, 1.94782 " /><path d="M2.28307, 1.94618 L2.2953, 1.93173 " /><path d="M2.2953, 1.93173 L2.29796, 1.92857 " /><path d="M2.29797, 1.92856 L2.31009, 1.91403 " /><path d="M2.31009, 1.91402 L2.31141, 1.91243 " /><path d="M2.31289, 1.91064 L2.32748, 1.89284 " /><path d="M2.32748, 1.89284 L2.32818, 1.89198 " /><path d="M2.32891, 1.89108 L2.33506, 1.88348 " /><path d="M2.33506, 1.88347 L2.34118, 1.87587 " /><path d="M2.34119, 1.87585 Q2.40492, 1.79631 2.46311, 1.71263 " /><path d="M2.49091, 1.67193 L2.50367, 1.65277 " /><path d="M2.50491, 1.65089 L2.5079, 1.64635 " /><path d="M2.5079, 1.64634 L2.51088, 1.6418 " /><path d="M2.51088, 1.64179 L2.57114, 1.54571 " /><path d="M2.57115, 1.5457 L2.57394, 1.54104 " /><path d="M2.57395, 1.54104 Q2.735, 1.27186 2.83706, 0.975252 " /><path d="M2.8394, 0.968395 L2.84173, 0.961542 " /><path d="M2.84174, 0.961529 L2.88642, 0.817657 " /><path d="M2.88821, 0.811318 L2.88968, 0.806086 " /><path d="M2.91808, 0.696272 L2.91934, 0.690986 " /><path d="M2.91934, 0.690981 L2.92183, 0.680392 " /><path d="M2.92183, 0.680387 L2.92305, 0.675094 " /><path d="M2.92306, 0.675083 L2.94648, 0.564123 " /><path d="M2.94649, 0.564112 L2.9475, 0.558775 " /><path d="M2.9475, 0.55877 L2.94851, 0.553425 " /><path d="M2.94893, 0.551215 Q2.9743, 0.415436 2.9871, 0.277901 " /><path d="M2.9871, 0.277883 L2.98799, 0.268161 " /><path d="M2.98799, 0.268152 L2.98885, 0.258419 " /><path d="M2.98904, 0.256159 L2.99092, 0.233217 " /><path d="M2.99443, 0.182722 L2.99552, 0.163816 " /><path d="M2.9967, 0.140765 L3, 6.1009e-11 " /><path d="M3, 6.09668e-11 C3.00342, -0.801123 2.66729, -1.59623 2.09021, -2.15198  C1.46427, -2.76669 0.558828, -3.07999 -0.313126, -2.98361  C-0.971475, -2.91616 -1.60367, -2.62221 -2.07954, -2.16229  C-2.60535, -1.65989 -2.93617, -0.960136 -2.99078, -0.234973 " /><path d="M-2.15813, 2.08386 L-2.14531, 2.09706 " /><path d="M-1.57195, 2.55518 Q-1.35418, 2.68911 -1.11692, 2.78433 " /><path d="M-0.747544, 2.90537 Q-0.592567, 2.94524 -0.434245, 2.96841 " /><path d="M-0.086868, 2.99874 Q-0.00207353, 3.0012 0.0827242, 2.99886 " /><path d="M0.481171, 2.96116 L0.546123, 2.94987 " /><path d="M0.549976, 2.94916 L0.567294, 2.94587 " /><path d="M0.567298, 2.94587 L0.571075, 2.94514 " /><path d="M0.571079, 2.94514 L0.588374, 2.94174 " /><path d="M0.588378, 2.94174 L0.590264, 2.94136 " /><path d="M0.592234, 2.94096 L0.609495, 2.93743 " /><path d="M0.609499, 2.93743 L0.613264, 2.93665 " /><path d="M0.613268, 2.93665 L0.630504, 2.933 " /><path d="M0.630508, 2.933 L0.632387, 2.93259 " /><path d="M0.633492, 2.93235 L0.634496, 2.93213 " /><path d="M0.634498, 2.93213 L0.655422, 2.92753 " /><path d="M0.655424, 2.92753 L0.656427, 2.9273 " /><path d="M0.657482, 2.92707 L0.666353, 2.92506 " /><path d="M0.666361, 2.92506 L0.675217, 2.92303 " /><path d="M0.858571, 2.87452 L0.867273, 2.8719 " /><path d="M0.867281, 2.8719 L0.875984, 2.86926 " /><path d="M0.878019, 2.86864 L0.898469, 2.8623 " /><path d="M0.898471, 2.8623 L0.89945, 2.86199 " /><path d="M0.902408, 2.86106 L0.922818, 2.85454 " /><path d="M0.92282, 2.85454 L0.924775, 2.85391 " /><path d="M0.924809, 2.8539 L0.934435, 2.85076 " /><path d="M0.934445, 2.85076 L0.944051, 2.84759 " /><path d="M0.944069, 2.84758 Q1.04431, 2.81435 1.14197, 2.77415 " /><path d="M1.14198, 2.77414 L1.15133, 2.77028 " /><path d="M1.15134, 2.77027 L1.16068, 2.76637 " /><path d="M1.16261, 2.76556 L1.18233, 2.75719 " /><path d="M1.18233, 2.75719 L1.18328, 2.75678 " /><path d="M1.18613, 2.75556 L1.20576, 2.74702 " /><path d="M1.20576, 2.74702 L1.2067, 2.74661 " /><path d="M1.20771, 2.74617 L1.21603, 2.74249 " /><path d="M1.21604, 2.74249 L1.22434, 2.73879 " /><path d="M1.22435, 2.73879 Q1.31095, 2.70007 1.39493, 2.65597 " /><path d="M1.41289, 2.64646 L1.4147, 2.64549 " /><path d="M1.4147, 2.64549 Q1.52715, 2.58536 1.63409, 2.5159 " /><path d="M1.63411, 2.51589 L1.64172, 2.51093 " /><path d="M1.64173, 2.51092 L1.64933, 2.50594 " /><path d="M1.65111, 2.50476 L1.66894, 2.49292 " /><path d="M1.7002, 2.4717 L1.70853, 2.46595 " /><path d="M1.70854, 2.46594 Q1.79535, 2.4058 1.87771, 2.3397 " /><path d="M1.87773, 2.33969 L1.88561, 2.33334 " /><path d="M1.88561, 2.33334 L1.89348, 2.32696 " /><path d="M1.91484, 2.30941 L2.01121, 2.22599 " /><path d="M2.01122, 2.22598 L2.01571, 2.22192 " /><path d="M2.01571, 2.22192 L2.02019, 2.21784 " /><path d="M2.0202, 2.21784 L2.02466, 2.21376 " /><path d="M2.02467, 2.21375 L2.09147, 2.15076 " /><path d="M2.09148, 2.15075 L2.09581, 2.14653 " /><path d="M2.09581, 2.14652 L2.10014, 2.14229 " /><path d="M2.11761, 2.12502 L2.11834, 2.12429 " /><path d="M2.11842, 2.12422 L2.11978, 2.12286 " /><path d="M2.11978, 2.12286 L2.13221, 2.11037 " /><path d="M2.13221, 2.11037 L2.13492, 2.10764 " /><path d="M2.14726, 2.09506 L2.14861, 2.09368 " /><path d="M2.16494, 2.07679 L2.2601, 1.9728 " /><path d="M2.26011, 1.97279 L2.27022, 1.96115 " /><path d="M2.27023, 1.96114 L2.31576, 1.90716 " /><path d="M2.31577, 1.90715 L2.32066, 1.9012 " /><path d="M2.32068, 1.90116 L2.3219, 1.89968 " /><path d="M2.32191, 1.89967 L2.33303, 1.88599 " /><path d="M2.33304, 1.88599 L2.33545, 1.88299 " /><path d="M2.33546, 1.88299 L2.34648, 1.86923 " /><path d="M2.34772, 1.86767 L2.34892, 1.86616 " /><path d="M2.34892, 1.86616 L2.35985, 1.85233 " /><path d="M2.35985, 1.85232 L2.36222, 1.8493 " /><path d="M2.36223, 1.84929 L2.37305, 1.83538 " /><path d="M2.37428, 1.83379 L2.37546, 1.83227 " /><path d="M2.37546, 1.83227 L2.38618, 1.81828 " /><path d="M2.38618, 1.81828 L2.38851, 1.81522 " /><path d="M2.38851, 1.81522 L2.39913, 1.80116 " /><path d="M2.40158, 1.79789 L2.41436, 1.78069 " /><path d="M2.53299, 1.60747 L2.53785, 1.59979 " /><path d="M2.53785, 1.59978 L2.54269, 1.59208 " /><path d="M2.54327, 1.59115 L2.54382, 1.59028 " /><path d="M2.54382, 1.59028 L2.5551, 1.57209 " /><path d="M2.55726, 1.56857 L2.5684, 1.55026 " /><path d="M2.56948, 1.54847 L2.57469, 1.53979 " /><path d="M2.5747, 1.53978 Q2.74826, 1.24932 2.853, 0.927566 " /><path d="M2.85301, 0.927555 L2.85487, 0.921798 " /><path d="M2.85487, 0.921795 L2.85673, 0.91603 " /><path d="M2.85673, 0.916027 L2.85857, 0.910262 " /><path d="M2.85857, 0.910251 L2.88509, 0.822357 " /><path d="M2.88509, 0.822342 L2.88674, 0.816524 " /><path d="M2.88675, 0.816517 L2.88839, 0.810689 " /><path d="M2.88896, 0.80864 L2.89466, 0.788003 " /><path d="M2.9018, 0.761294 L2.90435, 0.751497 " /><path d="M2.90435, 0.751488 L2.90687, 0.741692 " /><path d="M2.90687, 0.741673 Q2.93298, 0.639349 2.95183, 0.535443 " /><path d="M2.95362, 0.525469 Q2.97721, 0.392876 2.98882, 0.258703 " /><path d="M2.98883, 0.258685 L2.9896, 0.249632 " /><path d="M2.9896, 0.249624 L2.99034, 0.24056 " /><path d="M2.99043, 0.239481 L2.99051, 0.238457 " /><path d="M2.99517, 0.17008 L2.99612, 0.152479 " /><path d="M2.99612, 0.152475 L2.99632, 0.148633 " /><path d="M2.99632, 0.148629 L3, 5.47682e-11 " /><path d="M3, 5.47251e-11 C3.00342, -0.801123 2.66729, -1.59623 2.09021, -2.15198  C1.46427, -2.76669 0.558824, -3.07999 -0.31313, -2.98361  C-0.971487, -2.91616 -1.60369, -2.6222 -2.07956, -2.16228  C-2.60535, -1.65987 -2.93618, -0.960128 -2.99078, -0.234973 " /><path d="M-2.1541, 2.08802 L-2.13824, 2.10426 " /><path d="M-1.58101, 2.54959 L-1.52415, 2.58398 " /><path d="M-1.07319, 2.80148 L-1.05205, 2.80948 " /><path d="M-0.699615, 2.91728 Q-0.57774, 2.94651 -0.453864, 2.96547 " /><path d="M-0.106814, 2.9981 L0.00291471, 3 " /><path d="M0.460125, 2.9645 L0.541666, 2.95069 " /><path d="M0.541671, 2.95069 L0.544168, 2.95023 " /><path d="M0.544209, 2.95023 L0.546084, 2.94988 " /><path d="M0.546088, 2.94988 L0.563257, 2.94665 " /><path d="M0.563261, 2.94665 L0.567006, 2.94593 " /><path d="M0.56701, 2.94593 L0.584157, 2.94258 " /><path d="M0.584161, 2.94258 L0.586031, 2.9422 " /><path d="M0.586091, 2.94219 L0.58796, 2.94182 " /><path d="M0.587964, 2.94182 L0.605078, 2.93835 " /><path d="M0.605082, 2.93835 L0.608815, 2.93757 " /><path d="M0.608819, 2.93757 L0.625908, 2.93398 " /><path d="M0.625912, 2.93398 L0.627775, 2.93358 " /><path d="M0.627855, 2.93356 L0.629718, 2.93316 " /><path d="M0.629722, 2.93316 L0.646777, 2.92945 " /><path d="M0.646781, 2.92945 L0.650501, 2.92863 " /><path d="M0.650504, 2.92862 L0.667532, 2.92479 " /><path d="M0.667536, 2.92479 L0.669394, 2.92437 " /><path d="M0.671429, 2.9239 L0.691581, 2.9192 " /><path d="M0.693565, 2.91873 L0.702108, 2.91668 " /><path d="M0.702117, 2.91668 L0.710645, 2.91462 " /><path d="M0.710662, 2.91461 Q0.799671, 2.89291 0.88719, 2.86581 " /><path d="M0.887206, 2.86581 L0.895586, 2.8632 " /><path d="M0.895594, 2.8632 L0.903973, 2.86057 " /><path d="M0.905933, 2.85995 L0.925624, 2.85363 " /><path d="M0.925626, 2.85363 L0.927512, 2.85302 " /><path d="M0.928472, 2.85271 L0.929416, 2.8524 " /><path d="M0.929417, 2.8524 L0.94907, 2.84592 " /><path d="M0.950987, 2.84528 L0.960256, 2.84217 " /><path d="M0.960265, 2.84216 L0.969515, 2.83902 " /><path d="M1.16013, 2.7666 L1.16913, 2.76281 " /><path d="M1.16914, 2.76281 L1.17814, 2.75898 " /><path d="M1.18, 2.75819 L1.199, 2.74998 " /><path d="M1.199, 2.74998 L1.19991, 2.74959 " /><path d="M1.20265, 2.74839 L1.22157, 2.74003 " /><path d="M1.22157, 2.74003 L1.22338, 2.73922 " /><path d="M1.22344, 2.73919 L1.23146, 2.7356 " /><path d="M1.23147, 2.7356 L1.23946, 2.73198 " /><path d="M1.40387, 2.65125 Q1.52227, 2.58855 1.63462, 2.51555 " /><path d="M1.63464, 2.51555 L1.64199, 2.51075 " /><path d="M1.64199, 2.51075 L1.64934, 2.50593 " /><path d="M1.65105, 2.5048 L1.66828, 2.49336 " /><path d="M1.69041, 2.47841 L1.69848, 2.47289 " /><path d="M1.69848, 2.47288 L1.70653, 2.46734 " /><path d="M1.70654, 2.46733 Q1.79043, 2.40931 1.87018, 2.34572 " /><path d="M1.8702, 2.34571 L1.87782, 2.33961 " /><path d="M1.87783, 2.3396 L1.88545, 2.33347 " /><path d="M1.90537, 2.31723 L1.90614, 2.3166 " /><path d="M1.92283, 2.30277 L1.99958, 2.23644 " /><path d="M1.99959, 2.23643 L2.00394, 2.23253 " /><path d="M2.00395, 2.23253 L2.00829, 2.22862 " /><path d="M2.0083, 2.22862 L2.01264, 2.2247 " /><path d="M2.01264, 2.22469 L2.07751, 2.16424 " /><path d="M2.07753, 2.16423 L2.08173, 2.16018 " /><path d="M2.08174, 2.16018 L2.08595, 2.15611 " /><path d="M2.08741, 2.15469 L2.10223, 2.14024 " /><path d="M2.12019, 2.12245 Q2.19979, 2.04293 2.27322, 1.95767 " /><path d="M2.27323, 1.95765 L2.28317, 1.94606 " /><path d="M2.28318, 1.94605 L2.32793, 1.89228 " /><path d="M2.32794, 1.89227 L2.33275, 1.88634 " /><path d="M2.3473, 1.86821 L2.35814, 1.85451 " /><path d="M2.41229, 1.7835 L2.42485, 1.76639 " /><path d="M2.42608, 1.7647 L2.43137, 1.7574 " /><path d="M2.43137, 1.7574 L2.43663, 1.75009 " /><path d="M2.43664, 1.75008 Q2.49146, 1.67375 2.5414, 1.59414 " /><path d="M2.54141, 1.59412 L2.54618, 1.58649 " /><path d="M2.54619, 1.58648 L2.55094, 1.57883 " /><path d="M2.55205, 1.57704 Q2.71994, 1.30517 2.82698, 1.00409 " /><path d="M2.909, 0.733295 Q2.97048, 0.489224 2.99052, 0.238327 " /><path d="M2.99068, 0.236242 L2.99228, 0.215078 " /><path d="M2.99526, 0.168499 Q3, 0.084316 3, 4.88938e-11 " /><path d="M3, 4.88249e-11 C3.00342, -0.801123 2.66729, -1.59623 2.09021, -2.15198  C1.46427, -2.76669 0.558822, -3.07999 -0.313134, -2.98361  C-0.971494, -2.91616 -1.6037, -2.6222 -2.07957, -2.16227  C-2.60536, -1.65986 -2.93618, -0.960122 -2.99078, -0.234973 " /><path d="M-2.15335, 2.0888 L-2.13739, 2.10513 " /><path d="M-1.57649, 2.55239 Q-1.33283, 2.70281 -1.06516, 2.80454 " /><path d="M-0.748196, 2.9052 Q-0.583242, 2.94768 -0.414563, 2.97122 " /><path d="M-0.166613, 2.99537 Q-0.0619697, 3.00119 0.0428243, 2.99969 " /><path d="M0.381098, 2.9757 L0.384955, 2.9752 " /><path d="M0.384963, 2.9752 L0.420272, 2.97042 " /><path d="M0.42028, 2.97041 L0.550744, 2.94901 " /><path d="M0.593378, 2.94073 L0.595281, 2.94035 " /><path d="M0.620043, 2.93523 L0.628796, 2.93336 " /><path d="M0.628804, 2.93336 L0.637543, 2.93147 " /><path d="M0.63756, 2.93147 Q0.728766, 2.91163 0.818563, 2.88617 " /><path d="M0.81858, 2.88616 L0.827177, 2.88371 " /><path d="M0.827186, 2.88371 L0.835784, 2.88123 " /><path d="M0.837795, 2.88064 L0.858002, 2.87469 " /><path d="M0.861896, 2.87352 L0.882067, 2.8674 " /><path d="M0.884036, 2.86679 L0.89355, 2.86384 " /><path d="M0.89356, 2.86384 L0.903055, 2.86085 " /><path d="M1.09887, 2.7915 L1.10813, 2.78784 " /><path d="M1.10814, 2.78784 L1.11739, 2.78414 " /><path d="M1.11836, 2.78375 L1.1193, 2.78337 " /><path d="M1.1193, 2.78337 L1.13883, 2.77544 " /><path d="M1.13883, 2.77544 L1.13977, 2.77505 " /><path d="M1.14072, 2.77466 L1.14993, 2.77086 " /><path d="M1.14994, 2.77086 L1.15912, 2.76703 " /><path d="M1.34783, 2.68018 L1.35671, 2.67569 " /><path d="M1.35672, 2.67569 L1.3656, 2.67117 " /><path d="M1.36745, 2.67022 L1.36925, 2.6693 " /><path d="M1.36925, 2.6693 L1.40663, 2.64979 " /><path d="M1.40663, 2.64979 L1.40842, 2.64884 " /><path d="M1.40842, 2.64884 L1.4102, 2.64789 " /><path d="M1.41025, 2.64787 Q1.5045, 2.59767 1.59495, 2.54089 " /><path d="M1.59496, 2.54089 L1.60253, 2.53612 " /><path d="M1.62378, 2.52257 L1.62463, 2.52202 " /><path d="M1.64488, 2.50886 L1.6532, 2.50338 " /><path d="M1.65321, 2.50338 L1.66151, 2.49788 " /><path d="M1.66152, 2.49787 Q1.74804, 2.44032 1.83037, 2.37692 " /><path d="M1.83039, 2.37691 L1.83826, 2.37082 " /><path d="M1.83827, 2.37081 L1.84613, 2.3647 " /><path d="M1.84776, 2.36343 L1.86432, 2.35039 " /><path d="M1.86592, 2.34912 L1.87111, 2.34499 " /><path d="M1.87111, 2.34498 L1.87629, 2.34084 " /><path d="M1.96878, 2.26361 L2.04354, 2.19635 " /><path d="M2.04355, 2.19634 L2.0484, 2.19182 " /><path d="M2.0484, 2.19181 L2.05324, 2.18728 " /><path d="M2.05476, 2.18586 L2.07007, 2.17136 " /><path d="M2.07302, 2.16854 L2.08584, 2.15622 " /><path d="M2.1042, 2.13831 L2.11684, 2.12579 " /><path d="M2.13493, 2.10762 Q2.19254, 2.04926 2.24688, 1.98784 " /><path d="M2.24689, 1.98783 L2.25717, 1.97615 " /><path d="M2.3035, 1.92195 L2.30847, 1.91598 " /><path d="M2.30974, 1.91444 L2.32106, 1.90071 " /><path d="M2.33722, 1.88079 L2.34834, 1.8669 " /><path d="M2.36177, 1.84988 L2.36297, 1.84835 " /><path d="M2.36422, 1.84675 L2.37512, 1.8327 " /><path d="M2.37512, 1.8327 L2.37749, 1.82962 " /><path d="M2.3775, 1.82962 L2.3883, 1.8155 " /><path d="M2.3883, 1.81549 L2.38947, 1.81395 " /><path d="M2.39079, 1.81221 L2.40379, 1.79493 " /><path d="M2.40379, 1.79493 L2.40441, 1.7941 " /><path d="M2.40507, 1.79322 L2.41054, 1.78586 " /><path d="M2.41055, 1.78585 L2.416, 1.77847 " /><path d="M2.5245, 1.62077 L2.52944, 1.61305 " /><path d="M2.52945, 1.61304 L2.53437, 1.60529 " /><path d="M2.53552, 1.60348 L2.547, 1.58517 " /><path d="M2.5492, 1.58163 L2.56054, 1.56322 " /><path d="M2.56164, 1.56141 L2.56694, 1.55268 " /><path d="M2.56695, 1.55267 Q2.74671, 1.25521 2.85396, 0.924615 " /><path d="M2.85396, 0.924603 L2.85605, 0.918132 " /><path d="M2.90557, 0.746776 Q2.96821, 0.502875 2.9894, 0.251949 " /><path d="M2.9894, 0.25194 L2.99016, 0.242793 " /><path d="M2.99033, 0.240669 L2.99199, 0.219109 " /><path d="M2.99508, 0.17166 L2.99605, 0.153897 " /><path d="M2.99625, 0.150014 L3, 4.32547e-11 " /><path d="M3, 4.32769e-11 C3.00342, -0.801124 2.66729, -1.59623 2.09021, -2.15198  C1.46427, -2.7667 0.558817, -3.07999 -0.313141, -2.98361  C-0.971512, -2.91615 -1.60373, -2.62218 -2.0796, -2.16224  C-2.60537, -1.65983 -2.93618, -0.960109 -2.99078, -0.234973 " /><path d="M-2.28095, 1.94866 L-2.21518, 2.02311 " /><path d="M-1.5887, 2.5448 L-1.5401, 2.57451 " /><path d="M-1.09148, 2.7944 L-1.0633, 2.80524 " /><path d="M-0.809185, 2.88881 L-0.802172, 2.89076 " /><path d="M-0.799443, 2.89152 L-0.781274, 2.89648 " /><path d="M-0.777296, 2.89755 L-0.75909, 2.90238 " /><path d="M-0.759085, 2.90238 L-0.757096, 2.9029 " /><path d="M-0.454389, 2.96539 L-0.414575, 2.97122 " /><path d="M-0.166609, 2.99537 L-0.0768903, 2.99901 " /><path d="M0.381104, 2.97569 L0.399393, 2.9733 " /><path d="M0.403476, 2.97274 L0.540692, 2.95087 " /><path d="M0.542283, 2.95058 L0.555722, 2.94808 " /><path d="M0.569176, 2.94551 Q0.736157, 2.91324 0.898427, 2.86231 " /><path d="M0.898452, 2.8623 Q1.03455, 2.81958 1.16598, 2.76415 " /><path d="M1.166, 2.76414 L1.17857, 2.7588 " /><path d="M1.17858, 2.75879 L1.19114, 2.75339 " /><path d="M1.21049, 2.74494 L1.22542, 2.73831 " /><path d="M1.22831, 2.73702 L1.2432, 2.73028 " /><path d="M1.24608, 2.72897 L1.26093, 2.72214 " /><path d="M1.26379, 2.72082 L1.26521, 2.72015 " /><path d="M1.29906, 2.70415 L1.31378, 2.69703 " /><path d="M1.31662, 2.69565 L1.33128, 2.68844 " /><path d="M1.33412, 2.68703 L1.34873, 2.67972 " /><path d="M1.35157, 2.6783 L1.36751, 2.67019 " /><path d="M1.36756, 2.67016 L1.37971, 2.6639 " /><path d="M1.37973, 2.6639 L1.39184, 2.65759 " /><path d="M1.39186, 2.65758 Q1.51822, 2.5914 1.63774, 2.51353 " /><path d="M1.63776, 2.51351 L1.64918, 2.50603 " /><path d="M1.64919, 2.50602 L1.67196, 2.49089 " /><path d="M1.67198, 2.49088 L1.6833, 2.48325 " /><path d="M1.68332, 2.48323 Q1.80139, 2.40319 1.91134, 2.31231 " /><path d="M1.91136, 2.3123 L2.02118, 2.21694 " /><path d="M2.03928, 2.20031 L2.04075, 2.19894 " /><path d="M2.07353, 2.16806 L2.08683, 2.15526 " /><path d="M2.10584, 2.13669 L2.11895, 2.12369 " /><path d="M2.1218, 2.12084 L2.13481, 2.10774 " /><path d="M2.13481, 2.10774 L2.13623, 2.10631 " /><path d="M2.13626, 2.10628 L2.14191, 2.10053 " /><path d="M2.14192, 2.10052 L2.204, 2.03528 " /><path d="M2.26015, 1.97275 L2.27224, 1.95881 " /><path d="M2.28952, 1.93859 L2.30139, 1.92447 " /><path d="M2.31837, 1.90399 L2.33002, 1.88971 " /><path d="M2.33256, 1.88657 L2.34411, 1.8722 " /><path d="M2.34411, 1.8722 L2.34537, 1.87063 " /><path d="M2.34678, 1.86886 L2.36068, 1.85126 " /><path d="M2.36205, 1.84952 L2.3679, 1.84202 " /><path d="M2.36791, 1.84201 L2.37373, 1.8345 " /><path d="M2.37374, 1.83449 Q2.43445, 1.75593 2.48983, 1.67354 " /><path d="M2.48984, 1.67353 L2.49513, 1.66563 " /><path d="M2.49514, 1.66562 L2.50041, 1.6577 " /><path d="M2.50164, 1.65584 L2.51394, 1.63711 " /><path d="M2.51629, 1.63349 L2.52843, 1.61463 " /><path d="M2.52961, 1.61279 L2.53529, 1.60384 " /><path d="M2.53529, 1.60384 L2.54094, 1.59488 " /><path d="M2.54095, 1.59486 Q2.7296, 1.29401 2.84309, 0.957517 " /><path d="M2.84309, 0.957504 L2.84534, 0.950821 " /><path d="M2.84978, 0.937411 L2.8811, 0.836204 " /><path d="M2.89251, 0.795868 L2.8953, 0.785648 " /><path d="M2.89806, 0.775398 Q2.92662, 0.668635 2.94726, 0.560061 " /><path d="M2.94726, 0.560041 Q2.97456, 0.416359 2.98776, 0.270703 " /><path d="M2.98776, 0.270685 L2.98861, 0.261214 " /><path d="M2.98861, 0.261205 L2.98942, 0.251723 " /><path d="M2.98961, 0.249521 L2.99139, 0.227172 " /><path d="M2.99472, 0.177981 L2.99575, 0.159565 " /><path d="M2.99687, 0.137112 L3, 3.80926e-11 " /><path d="M3, 3.80644e-11 C3.00342, -0.801124 2.66729, -1.59623 2.09021, -2.15198  C1.76862, -2.46483 1.37579, -2.70382 0.950117, -2.84557 " /><path d="M3, 3.31866e-11 C3.00342, -0.801124 2.66729, -1.59624 2.09021, -2.15199  C1.46426, -2.7667 0.558808, -3.08 -0.313153, -2.98361  C-0.971541, -2.91615 -1.60377, -2.62216 -2.07964, -2.16219  C-2.60539, -1.65979 -2.93618, -0.960087 -2.99078, -0.234973 " /><path d="M-2.15813, 2.08386 L-2.14643, 2.09591 " /><path d="M-1.57195, 2.55518 Q-1.31737, 2.71171 -1.03697, 2.81508 " /><path d="M-0.494019, 2.95904 L-0.434014, 2.96844 " /><path d="M-0.146687, 2.99641 L-0.0569458, 2.99946 " /><path d="M0.390916, 2.97442 Q0.469212, 2.96413 0.546861, 2.94974 " /><path d="M0.546871, 2.94973 L0.55617, 2.948 " /><path d="M0.598718, 2.93965 L0.603352, 2.9387 " /><path d="M0.603415, 2.93869 L0.605728, 2.93821 " /><path d="M0.655091, 2.9276 L0.657394, 2.92709 " /><path d="M0.678492, 2.92227 L0.683091, 2.9212 " /><path d="M0.683096, 2.9212 L0.704141, 2.91619 " /><path d="M0.704145, 2.91619 L0.70644, 2.91564 " /><path d="M0.708525, 2.91513 L0.728935, 2.9101 " /><path d="M0.728937, 2.91009 L0.729914, 2.90985 " /><path d="M0.730944, 2.90959 L0.739596, 2.9074 " /><path d="M0.739604, 2.9074 L0.748241, 2.90519 " /><path d="M0.748257, 2.90519 Q0.838391, 2.88197 0.926912, 2.85321 " /><path d="M0.926928, 2.85321 L0.935403, 2.85044 " /><path d="M0.935411, 2.85044 L0.943886, 2.84764 " /><path d="M0.945868, 2.84699 L0.96578, 2.84029 " /><path d="M0.969616, 2.83899 L0.989485, 2.83212 " /><path d="M0.991424, 2.83144 L1.00079, 2.82815 " /><path d="M1.0008, 2.82814 L1.01015, 2.82482 " /><path d="M1.01017, 2.82481 Q1.10774, 2.78992 1.20267, 2.74838 " /><path d="M1.20268, 2.74837 L1.21177, 2.74438 " /><path d="M1.21178, 2.74438 L1.22086, 2.74035 " /><path d="M1.22273, 2.73951 L1.2419, 2.73088 " /><path d="M1.24559, 2.7292 L1.26467, 2.72041 " /><path d="M1.26656, 2.71953 L1.27464, 2.71575 " /><path d="M1.27465, 2.71574 L1.28272, 2.71194 " /><path d="M1.28273, 2.71194 Q1.49019, 2.61378 1.68033, 2.48525 " /><path d="M1.68035, 2.48524 L1.68773, 2.48024 " /><path d="M1.68773, 2.48023 L1.6951, 2.4752 " /><path d="M1.69683, 2.47402 L1.71411, 2.46208 " /><path d="M1.71743, 2.45976 L1.73463, 2.44767 " /><path d="M1.7363, 2.44648 L1.74439, 2.44072 " /><path d="M1.7444, 2.44071 L1.75247, 2.43493 " /><path d="M1.91632, 2.30818 L1.92395, 2.30183 " /><path d="M1.92395, 2.30183 L2.03554, 2.20376 " /><path d="M2.03555, 2.20375 L2.0404, 2.19926 " /><path d="M2.04041, 2.19926 L2.04525, 2.19476 " /><path d="M2.04525, 2.19475 L2.05008, 2.19024 " /><path d="M2.05009, 2.19023 L2.12215, 2.12049 " /><path d="M2.12216, 2.12048 L2.12683, 2.1158 " /><path d="M2.12683, 2.11579 L2.13149, 2.1111 " /><path d="M2.14839, 2.09391 L2.14909, 2.09318 " /><path d="M2.18401, 2.05672 L2.22737, 2.00968 " /><path d="M2.2279, 2.0091 L2.23023, 2.00651 " /><path d="M2.23257, 2.00391 L2.28048, 1.94921 " /><path d="M2.28048, 1.9492 L2.28275, 1.94655 " /><path d="M2.28275, 1.94655 L2.28501, 1.9439 " /><path d="M2.28601, 1.94272 L2.29675, 1.93001 " /><path d="M2.29725, 1.92941 L2.29949, 1.92674 " /><path d="M2.29949, 1.92674 L2.30173, 1.92407 " /><path d="M2.30173, 1.92406 L2.34769, 1.86771 " /><path d="M2.3477, 1.86771 L2.34986, 1.86498 " /><path d="M2.34987, 1.86498 L2.35203, 1.86224 " /><path d="M2.35252, 1.86163 L2.35743, 1.8554 " /><path d="M2.35795, 1.85475 L2.35941, 1.85289 " /><path d="M2.35941, 1.85289 L2.37271, 1.83582 " /><path d="M2.37272, 1.83581 L2.37561, 1.83207 " /><path d="M2.37561, 1.83207 L2.38876, 1.81488 " /><path d="M2.38877, 1.81488 L2.3902, 1.813 " /><path d="M2.39025, 1.81292 L2.39168, 1.81104 " /><path d="M2.39168, 1.81104 L2.40468, 1.79375 " /><path d="M2.42035, 1.77254 L2.42174, 1.77064 " /><path d="M2.42182, 1.77053 L2.42242, 1.76972 " /><path d="M2.43656, 1.7502 L2.44175, 1.74294 " /><path d="M2.44176, 1.74294 L2.44692, 1.73567 " /><path d="M2.44693, 1.73566 Q2.50078, 1.65974 2.54982, 1.58064 " /><path d="M2.54983, 1.58062 L2.55452, 1.57304 " /><path d="M2.55452, 1.57303 L2.55919, 1.56543 " /><path d="M2.56028, 1.56364 L2.57116, 1.54568 " /><path d="M2.57325, 1.5422 Q2.75237, 1.24306 2.85837, 0.91089 " /><path d="M2.86017, 0.905216 L2.86196, 0.89955 " /><path d="M2.86196, 0.899546 L2.89088, 0.801757 " /><path d="M2.89088, 0.80175 L2.89246, 0.796023 " /><path d="M2.90538, 0.747494 L2.90784, 0.737869 " /><path d="M2.90784, 0.73786 L2.91027, 0.728237 " /><path d="M2.91027, 0.728219 Q2.93542, 0.627703 2.95358, 0.525693 " /><path d="M2.95359, 0.525675 L2.95531, 0.515901 " /><path d="M2.95531, 0.515892 Q2.97803, 0.385726 2.98922, 0.254068 " /><path d="M2.98922, 0.254051 L2.98997, 0.245167 " /><path d="M2.98997, 0.245159 L2.99068, 0.236264 " /><path d="M2.99084, 0.234199 L2.99241, 0.213237 " /><path d="M2.99594, 0.156017 Q3, 0.0780611 3, 2.87228e-11 " /><path d="M3, 2.86873e-11 C3.00342, -0.801125 2.66729, -1.59624 2.0902, -2.15199  C1.46426, -2.7667 0.558802, -3.08 -0.313161, -2.98361  C-0.971562, -2.91614 -1.6038, -2.62215 -2.07968, -2.16216  C-2.60541, -1.65976 -2.93618, -0.960072 -2.99078, -0.234973 " /><path d="M-2.16173, 2.08012 L-2.14872, 2.09356 " /><path d="M-1.55437, 2.56592 L-1.52523, 2.58335 " /><path d="M-1.05614, 2.80795 L-1.04569, 2.81186 " /><path d="M-0.505367, 2.95713 Q-0.374725, 2.97945 -0.242633, 2.99017 " /><path d="M0.313285, 2.9836 Q0.426412, 2.97172 0.538318, 2.95131 " /><path d="M0.540223, 2.95096 L0.559401, 2.94738 " /><path d="M0.584125, 2.94258 L0.59317, 2.94077 " /><path d="M0.593178, 2.94077 L0.602208, 2.93894 " /><path d="M0.602226, 2.93893 Q0.727453, 2.91327 0.850047, 2.87705 " /><path d="M0.851904, 2.8765 L0.859845, 2.87414 " /><path d="M0.859853, 2.87414 L0.86778, 2.87175 " /><path d="M1.03168, 2.81703 L1.03945, 2.81417 " /><path d="M1.03945, 2.81417 L1.04722, 2.81129 " /><path d="M1.04902, 2.81061 L1.05078, 2.80996 " /><path d="M1.05078, 2.80996 L1.08725, 2.79605 " /><path d="M1.08726, 2.79605 L1.089, 2.79537 " /><path d="M1.09079, 2.79467 L1.09851, 2.79164 " /><path d="M1.09851, 2.79164 L1.10621, 2.7886 " /><path d="M1.26493, 2.72029 L1.27243, 2.71679 " /><path d="M1.27243, 2.71678 L1.27993, 2.71326 " /><path d="M1.28168, 2.71243 L1.29929, 2.70404 " /><path d="M1.30268, 2.70241 L1.32024, 2.69388 " /><path d="M1.32195, 2.69304 L1.33022, 2.68896 " /><path d="M1.33023, 2.68896 L1.33848, 2.68486 " /><path d="M1.3385, 2.68485 Q1.53879, 2.58497 1.72208, 2.45651 " /><path d="M1.72209, 2.4565 L1.72887, 2.45174 " /><path d="M1.72887, 2.45173 L1.73564, 2.44695 " /><path d="M1.75308, 2.43448 L1.75384, 2.43393 " /><path d="M1.75468, 2.43333 L1.75614, 2.43228 " /><path d="M1.75614, 2.43228 L1.76946, 2.4226 " /><path d="M1.77237, 2.42048 L1.78563, 2.41071 " /><path d="M1.80466, 2.3965 L1.81779, 2.38655 " /><path d="M1.83663, 2.37209 L1.84963, 2.36196 " /><path d="M1.85108, 2.36083 L1.85484, 2.35787 " /><path d="M1.88801, 2.3314 L1.89173, 2.32838 " /><path d="M1.89173, 2.32838 L1.89544, 2.32536 " /><path d="M1.89545, 2.32535 L2.00505, 2.23154 " /><path d="M2.00639, 2.23033 L2.01861, 2.21928 " /><path d="M2.03342, 2.20572 L2.03474, 2.20451 " /><path d="M2.03612, 2.20323 L2.04818, 2.19202 " /><path d="M2.04818, 2.19202 L2.0508, 2.18957 " /><path d="M2.05081, 2.18956 L2.06279, 2.17828 " /><path d="M2.06487, 2.17631 L2.08004, 2.16181 " /><path d="M2.08146, 2.16045 L2.08757, 2.15454 " /><path d="M2.08758, 2.15453 L2.09367, 2.14862 " /><path d="M2.21689, 2.02124 L2.22832, 2.00863 " /><path d="M2.22965, 2.00715 L2.24299, 1.99224 " /><path d="M2.24555, 1.98935 L2.25878, 1.97432 " /><path d="M2.26006, 1.97285 L2.26627, 1.96571 " /><path d="M2.26628, 1.9657 L2.27246, 1.95855 " /><path d="M2.27247, 1.95854 Q2.3369, 1.88378 2.39627, 1.80496 " /><path d="M2.39628, 1.80494 L2.40196, 1.79739 " /><path d="M2.42294, 1.76899 L2.43469, 1.75279 " /><path d="M2.43585, 1.75118 L2.4408, 1.74427 " /><path d="M2.44081, 1.74427 L2.44573, 1.73735 " /><path d="M2.44574, 1.73734 Q2.49708, 1.66507 2.54405, 1.5899 " /><path d="M2.54406, 1.58989 L2.54855, 1.58268 " /><path d="M2.54856, 1.58267 L2.55303, 1.57545 " /><path d="M2.57583, 1.53789 L2.57682, 1.53624 " /><path d="M2.57782, 1.53454 L2.58216, 1.52723 " /><path d="M2.58217, 1.52723 Q2.74322, 1.25474 2.84404, 0.954694 " /><path d="M2.84404, 0.954684 L2.84584, 0.949321 " /><path d="M2.84584, 0.949318 L2.84762, 0.943948 " /><path d="M2.84763, 0.943944 L2.8494, 0.938575 " /><path d="M2.89089, 0.801722 L2.89525, 0.785846 " /><path d="M2.90643, 0.743409 L2.91047, 0.727433 " /><path d="M2.91656, 0.702635 L2.93283, 0.631273 " /><path d="M2.93367, 0.62735 L2.94021, 0.595965 " /><path d="M2.94111, 0.591497 L2.9418, 0.588063 " /><path d="M2.9419, 0.58757 L2.94312, 0.581408 " /><path d="M2.94312, 0.581391 L2.95151, 0.537182 " /><path d="M2.95152, 0.537173 L2.95263, 0.530991 " /><path d="M2.95264, 0.530983 Q2.97476, 0.407961 2.98657, 0.283525 " /><path d="M2.987, 0.278987 L2.98732, 0.275499 " /><path d="M2.98737, 0.274999 L2.98794, 0.268743 " /><path d="M2.98794, 0.268725 L2.99163, 0.223879 " /><path d="M2.99164, 0.22387 L2.9921, 0.217605 " /><path d="M2.99503, 0.172676 L2.99538, 0.166404 " /><path d="M2.99544, 0.165411 L2.99581, 0.158419 " /><path d="M2.99627, 0.14947 L3, 2.43459e-11 " /><path d="M3, 2.44209e-11 C3.00342, -0.801125 2.66729, -1.59624 2.09021, -2.15199  C1.46426, -2.7667 0.558801, -3.08 -0.313162, -2.98361  C-0.971564, -2.91614 -1.6038, -2.62214 -2.07968, -2.16216  C-2.60541, -1.65976 -2.93618, -0.96007 -2.99078, -0.234973 " /><path d="M-2.15668, 2.08536 L-2.14485, 2.09753 " /><path d="M-1.1087, 2.78761 L-1.10164, 2.79041 " /><path d="M-0.513687, 2.95569 L-0.433987, 2.96844 " /><path d="M-0.106812, 2.9981 L0.00291674, 3 " /><path d="M0.408444, 2.97207 L0.535824, 2.95176 " /><path d="M0.557231, 2.94779 L0.574774, 2.94442 " /><path d="M0.578789, 2.94364 L0.599555, 2.93948 " /><path d="M0.610413, 2.93724 L0.619204, 2.9354 " /><path d="M0.61922, 2.9354 Q0.710969, 2.91604 0.801332, 2.891 " /><path d="M0.801349, 2.89099 L0.81, 2.88858 " /><path d="M0.810009, 2.88858 L0.818662, 2.88614 " /><path d="M0.819707, 2.88584 L0.820683, 2.88556 " /><path d="M0.820685, 2.88556 L0.841021, 2.8797 " /><path d="M0.844939, 2.87855 L0.865239, 2.87252 " /><path d="M0.86722, 2.87192 L0.876796, 2.86901 " /><path d="M0.876805, 2.86901 L0.886362, 2.86607 " /><path d="M1.08348, 2.79751 L1.09279, 2.79389 " /><path d="M1.0928, 2.79388 L1.10212, 2.79022 " /><path d="M1.10404, 2.78946 L1.1237, 2.7816 " /><path d="M1.12371, 2.7816 L1.12559, 2.78084 " /><path d="M1.12655, 2.78045 L1.12749, 2.78007 " /><path d="M1.12749, 2.78007 L1.14707, 2.77204 " /><path d="M1.14707, 2.77204 L1.14801, 2.77165 " /><path d="M1.14902, 2.77124 L1.15731, 2.76778 " /><path d="M1.15732, 2.76778 L1.1656, 2.7643 " /><path d="M1.33599, 2.6861 L1.34403, 2.68209 " /><path d="M1.34403, 2.68208 L1.35206, 2.67804 " /><path d="M1.35393, 2.6771 L1.35574, 2.67619 " /><path d="M1.35574, 2.67618 L1.39339, 2.65678 " /><path d="M1.39339, 2.65678 L1.39519, 2.65583 " /><path d="M1.39519, 2.65583 L1.39699, 2.65489 " /><path d="M1.39704, 2.65486 L1.40499, 2.65066 " /><path d="M1.40499, 2.65066 L1.41292, 2.64644 " /><path d="M1.41294, 2.64643 Q1.50408, 2.59777 1.59166, 2.54295 " /><path d="M1.61042, 2.53112 L1.61128, 2.53057 " /><path d="M1.63341, 2.51634 L1.6418, 2.51088 " /><path d="M1.6418, 2.51087 L1.65016, 2.50539 " /><path d="M1.65018, 2.50538 Q1.73736, 2.44795 1.82034, 2.38461 " /><path d="M1.82035, 2.3846 L1.82829, 2.37852 " /><path d="M1.8283, 2.37851 L1.83622, 2.3724 " /><path d="M1.83786, 2.37113 L1.85455, 2.3581 " /><path d="M1.85616, 2.35683 L1.86139, 2.3527 " /><path d="M1.8614, 2.3527 L1.86662, 2.34856 " /><path d="M1.95984, 2.27135 L2.03521, 2.20407 " /><path d="M2.04011, 2.19953 L2.04499, 2.19499 " /><path d="M2.04652, 2.19357 L2.06195, 2.17907 " /><path d="M2.06494, 2.17624 L2.07785, 2.16391 " /><path d="M2.09637, 2.14599 L2.10911, 2.13346 " /><path d="M2.12735, 2.11527 L2.13992, 2.10256 " /><path d="M2.14266, 2.09977 L2.24024, 1.99533 " /><path d="M2.24025, 1.99532 L2.25061, 1.98362 " /><path d="M2.29733, 1.92933 L2.30234, 1.92334 " /><path d="M2.30362, 1.9218 L2.31504, 1.90804 " /><path d="M2.33134, 1.88808 L2.34255, 1.87416 " /><path d="M2.35856, 1.85396 L2.36956, 1.83989 " /><path d="M2.36956, 1.83988 L2.37195, 1.8368 " /><path d="M2.37195, 1.8368 L2.38285, 1.82264 " /><path d="M2.38285, 1.82264 L2.38404, 1.82109 " /><path d="M2.38537, 1.81935 L2.39848, 1.80203 " /><path d="M2.39848, 1.80203 L2.39973, 1.80036 " /><path d="M2.39976, 1.80032 L2.40529, 1.79293 " /><path d="M2.40529, 1.79292 L2.41079, 1.78553 " /><path d="M2.52023, 1.62741 L2.52521, 1.61966 " /><path d="M2.52522, 1.61965 L2.53019, 1.61188 " /><path d="M2.53134, 1.61006 L2.54293, 1.5917 " /><path d="M2.54515, 1.58815 L2.55658, 1.56968 " /><path d="M2.55769, 1.56787 L2.56304, 1.55911 " /><path d="M2.56305, 1.5591 L2.56836, 1.55033 " /><path d="M2.56837, 1.55031 Q2.74601, 1.25577 2.85262, 0.928734 " /><path d="M2.85263, 0.928722 L2.85473, 0.922225 " /><path d="M2.9047, 0.750144 Q2.96792, 0.505186 2.9893, 0.253108 " /><path d="M2.9893, 0.253099 L2.99007, 0.243909 " /><path d="M2.99024, 0.241776 L2.99191, 0.220117 " /><path d="M2.99504, 0.17245 L2.99601, 0.154605 " /><path d="M2.99621, 0.150705 L3, 2.06528e-11 " /><path d="M3, 2.05509e-11 C3.00342, -0.801124 2.66729, -1.59624 2.09021, -2.15199  C1.46426, -2.7667 0.558802, -3.08 -0.313161, -2.98361  C-0.971562, -2.91614 -1.6038, -2.62215 -2.07968, -2.16216  C-2.60541, -1.65976 -2.93618, -0.960072 -2.99078, -0.234973 " /><path d="M-2.15813, 2.08386 L-2.14643, 2.09591 " /><path d="M-1.57195, 2.55518 Q-1.31737, 2.71171 -1.03696, 2.81509 " /><path d="M-0.513854, 2.95566 L-0.453773, 2.96548 " /><path d="M-0.106813, 2.9981 L0.00291535, 3 " /><path d="M0.440396, 2.9675 L0.544128, 2.95024 " /><path d="M0.547904, 2.94954 L0.565152, 2.94629 " /><path d="M0.589961, 2.94142 L0.607153, 2.93792 " /><path d="M0.652952, 2.92808 L0.673228, 2.92349 " /><path d="M0.675224, 2.92302 L0.68382, 2.92103 " /><path d="M0.683828, 2.92102 L0.69241, 2.919 " /><path d="M0.692426, 2.919 Q0.781988, 2.89775 0.87008, 2.87106 " /><path d="M0.870096, 2.87105 L0.87853, 2.86848 " /><path d="M0.878538, 2.86848 L0.886973, 2.86588 " /><path d="M0.888945, 2.86527 L0.908766, 2.85905 " /><path d="M0.912584, 2.85783 L0.932367, 2.85144 " /><path d="M0.934298, 2.8508 L0.943628, 2.84773 " /><path d="M0.943637, 2.84773 L0.952949, 2.84462 " /><path d="M1.14487, 2.77295 L1.15394, 2.76919 " /><path d="M1.15394, 2.76919 L1.16301, 2.7654 " /><path d="M1.16304, 2.76538 L1.16488, 2.76461 " /><path d="M1.16488, 2.76461 L1.18401, 2.75647 " /><path d="M1.18586, 2.75567 L1.19488, 2.75178 " /><path d="M1.19488, 2.75177 L1.20388, 2.74785 " /><path d="M1.38861, 2.65928 L1.3973, 2.65472 " /><path d="M1.39731, 2.65472 L1.406, 2.65013 " /><path d="M1.40781, 2.64917 L1.40956, 2.64823 " /><path d="M1.40957, 2.64823 Q1.51879, 2.59009 1.62286, 2.52316 " /><path d="M1.63775, 2.51352 L1.63858, 2.51297 " /><path d="M1.66012, 2.4988 L1.6774, 2.48724 " /><path d="M1.67908, 2.4861 L1.68721, 2.48059 " /><path d="M1.68722, 2.48058 L1.69533, 2.47505 " /><path d="M1.69534, 2.47504 Q1.77989, 2.41713 1.86028, 2.35358 " /><path d="M1.86029, 2.35357 L1.86798, 2.34747 " /><path d="M1.86799, 2.34747 L1.87567, 2.34134 " /><path d="M1.89499, 2.32573 L1.90005, 2.32159 " /><path d="M1.90006, 2.32159 L1.99539, 2.24018 " /><path d="M2.06836, 2.17299 L2.07309, 2.16848 " /><path d="M2.07309, 2.16847 L2.07782, 2.16395 " /><path d="M2.07929, 2.16253 L2.09423, 2.14807 " /><path d="M2.09712, 2.14525 L2.10962, 2.13296 " /><path d="M2.12475, 2.11788 L2.1261, 2.11653 " /><path d="M2.12617, 2.11646 L2.12752, 2.1151 " /><path d="M2.12753, 2.1151 L2.13986, 2.10262 " /><path d="M2.13986, 2.10262 L2.14254, 2.09989 " /><path d="M2.14254, 2.09988 L2.15478, 2.08732 " /><path d="M2.15478, 2.08732 L2.15612, 2.08594 " /><path d="M2.15617, 2.08589 L2.22002, 2.0178 " /><path d="M2.26669, 1.96523 L2.27671, 1.95361 " /><path d="M2.27672, 1.9536 L2.32186, 1.89973 " /><path d="M2.32187, 1.89972 L2.32672, 1.89378 " /><path d="M2.32795, 1.89226 L2.33899, 1.8786 " /><path d="M2.33899, 1.8786 L2.34139, 1.87561 " /><path d="M2.34139, 1.87561 L2.35232, 1.86188 " /><path d="M2.35232, 1.86187 L2.35351, 1.86037 " /><path d="M2.35474, 1.85882 L2.36557, 1.84501 " /><path d="M2.36557, 1.84501 L2.36793, 1.84199 " /><path d="M2.36793, 1.84199 L2.37866, 1.82811 " /><path d="M2.37988, 1.82652 L2.38105, 1.825 " /><path d="M2.38105, 1.825 L2.39167, 1.81105 " /><path d="M2.39168, 1.81104 L2.39399, 1.80799 " /><path d="M2.39399, 1.80799 L2.40452, 1.79396 " /><path d="M2.40695, 1.7907 L2.41961, 1.77355 " /><path d="M2.42086, 1.77185 L2.42619, 1.76454 " /><path d="M2.4262, 1.76453 L2.43151, 1.75721 " /><path d="M2.53721, 1.6008 L2.54202, 1.59315 " /><path d="M2.54203, 1.59314 L2.54682, 1.58546 " /><path d="M2.54794, 1.58366 L2.55913, 1.56552 " /><path d="M2.56127, 1.56202 L2.57231, 1.54377 " /><path d="M2.57231, 1.54377 L2.57284, 1.54289 " /><path d="M2.57338, 1.54198 Q2.72565, 1.28772 2.82537, 1.00862 " /><path d="M2.85794, 0.912232 L2.85997, 0.905842 " /><path d="M2.85998, 0.905838 L2.89263, 0.795413 " /><path d="M2.89441, 0.788925 L2.89616, 0.78245 " /><path d="M2.9027, 0.757831 L2.90523, 0.748077 " /><path d="M2.90815, 0.736666 Q2.96797, 0.50036 2.98893, 0.257502 " /><path d="M2.98893, 0.257485 L2.98969, 0.248474 " /><path d="M2.98969, 0.248465 L2.99043, 0.239443 " /><path d="M2.9906, 0.237349 L2.99221, 0.216085 " /><path d="M2.99522, 0.16929 L2.99616, 0.151771 " /><path d="M2.99635, 0.147938 L3, 1.70379e-11 " /><path d="M3, 1.70646e-11 C3.00342, -0.801125 2.66729, -1.59624 2.09021, -2.15199  C1.46426, -2.7667 0.558799, -3.08 -0.313166, -2.98361  C-0.971573, -2.91614 -1.60382, -2.62214 -2.0797, -2.16214  C-2.60541, -1.65975 -2.93618, -0.960063 -2.99078, -0.234973 " /><path d="M-2.15452, 2.08759 L-2.14247, 2.09996 " /><path d="M-1.5614, 2.56164 L-1.54922, 2.56903 " /><path d="M-1.10647, 2.7885 L-1.08161, 2.79823 " /><path d="M-0.778356, 2.89727 L-0.664088, 2.92557 " /><path d="M0.206437, 2.99289 L0.243441, 2.99011 " /><path d="M0.243449, 2.99011 L0.251522, 2.98944 " /><path d="M0.251531, 2.98944 L0.288488, 2.9861 " /><path d="M0.292571, 2.9857 L0.294584, 2.9855 " /><path d="M0.294589, 2.9855 L0.31303, 2.98362 " /><path d="M0.313034, 2.98362 L0.317058, 2.9832 " /><path d="M0.317062, 2.9832 L0.335489, 2.98118 " /><path d="M0.337568, 2.98095 L0.339577, 2.98072 " /><path d="M0.339582, 2.98072 L0.357984, 2.97856 " /><path d="M0.357988, 2.97856 L0.362003, 2.97808 " /><path d="M0.362007, 2.97808 L0.380393, 2.97579 " /><path d="M0.382488, 2.97552 L0.384493, 2.97526 " /><path d="M0.384497, 2.97526 L0.402856, 2.97283 " /><path d="M0.40286, 2.97283 L0.406865, 2.97228 " /><path d="M0.425214, 2.96971 L0.540402, 2.95093 " /><path d="M0.540415, 2.95092 L0.55425, 2.94836 " /><path d="M0.554276, 2.94835 Q0.698716, 2.92119 0.839817, 2.88005 " /><path d="M0.839843, 2.88005 L0.853342, 2.87607 " /><path d="M0.853355, 2.87607 L0.880323, 2.86793 " /><path d="M0.880336, 2.86793 L0.893778, 2.86377 " /><path d="M0.893804, 2.86376 Q1.0341, 2.81997 1.16945, 2.76268 " /><path d="M1.16947, 2.76267 L1.18242, 2.75715 " /><path d="M1.18243, 2.75715 L1.19536, 2.75157 " /><path d="M1.19689, 2.7509 L1.21377, 2.74349 " /><path d="M1.21455, 2.74315 L1.23213, 2.7353 " /><path d="M1.23289, 2.73495 L1.24969, 2.72732 " /><path d="M1.25045, 2.72697 L1.26794, 2.71888 " /><path d="M1.26868, 2.71854 L1.27161, 2.71717 " /><path d="M1.27161, 2.71717 L1.30206, 2.70271 " /><path d="M1.30206, 2.70271 L1.30352, 2.70201 " /><path d="M1.30571, 2.70095 L1.32159, 2.69322 " /><path d="M1.32451, 2.69178 L1.33959, 2.6843 " /><path d="M1.34251, 2.68285 L1.35754, 2.67527 " /><path d="M1.39357, 2.65668 Q1.53208, 2.58402 1.66229, 2.49736 " /><path d="M1.68566, 2.48164 L1.6934, 2.47637 " /><path d="M1.69342, 2.47635 L1.80885, 2.39334 " /><path d="M1.80886, 2.39333 L1.81633, 2.38767 " /><path d="M1.81633, 2.38766 L1.82379, 2.38197 " /><path d="M1.82379, 2.38197 L1.83123, 2.37626 " /><path d="M1.94176, 2.28682 L2.00016, 2.23592 " /><path d="M2.0175, 2.22029 L2.02994, 2.20892 " /><path d="M2.0327, 2.20638 L2.04628, 2.19379 " /><path d="M2.04629, 2.19379 L2.04924, 2.19103 " /><path d="M2.04925, 2.19103 L2.06273, 2.17833 " /><path d="M2.06274, 2.17833 L2.0642, 2.17694 " /><path d="M2.06574, 2.17549 L2.07913, 2.16269 " /><path d="M2.07914, 2.16268 L2.08205, 2.15988 " /><path d="M2.08205, 2.15987 L2.09535, 2.14697 " /><path d="M2.09685, 2.14551 L2.0983, 2.1441 " /><path d="M2.0983, 2.14409 L2.11151, 2.13109 " /><path d="M2.11151, 2.13109 L2.11438, 2.12824 " /><path d="M2.11439, 2.12823 L2.1275, 2.11513 " /><path d="M2.12896, 2.11366 L2.13466, 2.1079 " /><path d="M2.13467, 2.10789 Q2.20264, 2.03905 2.26603, 1.96598 " /><path d="M2.26604, 1.96598 L2.26869, 1.96292 " /><path d="M2.26869, 1.96292 L2.28077, 1.94886 " /><path d="M2.28078, 1.94886 L2.28209, 1.94732 " /><path d="M2.28213, 1.94727 L2.28345, 1.94573 " /><path d="M2.28345, 1.94573 L2.29542, 1.93159 " /><path d="M2.29542, 1.93159 L2.29803, 1.92849 " /><path d="M2.29803, 1.92849 L2.3099, 1.91426 " /><path d="M2.3099, 1.91425 L2.31119, 1.9127 " /><path d="M2.31254, 1.91107 L2.32429, 1.89676 " /><path d="M2.32429, 1.89675 L2.32685, 1.89362 " /><path d="M2.32685, 1.89362 L2.33849, 1.87921 " /><path d="M2.34051, 1.87671 L2.34118, 1.87587 " /><path d="M2.34118, 1.87586 L2.3552, 1.85824 " /><path d="M2.35657, 1.85649 L2.36248, 1.84897 " /><path d="M2.36248, 1.84897 L2.36836, 1.84144 " /><path d="M2.48543, 1.68007 L2.49076, 1.67215 " /><path d="M2.49077, 1.67214 L2.49609, 1.6642 " /><path d="M2.49733, 1.66234 L2.50973, 1.64356 " /><path d="M2.5121, 1.63992 L2.52434, 1.62102 " /><path d="M2.52553, 1.61917 L2.53126, 1.6102 " /><path d="M2.53126, 1.61019 L2.53695, 1.60121 " /><path d="M2.53696, 1.60119 Q2.69788, 1.34609 2.80494, 1.0641 " /><path d="M2.88487, 0.823118 L2.89097, 0.801439 " /><path d="M2.89156, 0.799318 L2.89437, 0.789056 " /><path d="M2.89437, 0.789046 L2.89715, 0.778784 " /><path d="M2.89716, 0.778764 Q2.92597, 0.67156 2.94679, 0.56252 " /><path d="M2.94679, 0.5625 L2.94877, 0.552053 " /><path d="M2.94877, 0.552043 L2.95071, 0.541579 " /><path d="M2.95111, 0.539416 L2.95507, 0.517248 " /><path d="M2.95582, 0.512973 Q2.97662, 0.393083 2.98765, 0.271903 " /><path d="M2.98765, 0.271884 L2.9885, 0.262372 " /><path d="M2.98851, 0.262363 L2.98933, 0.252839 " /><path d="M2.98951, 0.250627 L2.99131, 0.228179 " /><path d="M2.99467, 0.178772 L2.99572, 0.160273 " /><path d="M2.99593, 0.156226 Q3, 0.0781659 3, 1.39138e-11 " /><path d="M3, 1.38942e-11 C3.00342, -0.801125 2.66729, -1.59624 2.0902, -2.15199  C1.46426, -2.76671 0.558788, -3.08 -0.31318, -2.98361  C-0.971608, -2.91614 -1.60387, -2.62211 -2.07975, -2.16209  C-2.60544, -1.6597 -2.93618, -0.960038 -2.99078, -0.234973 " /><path d="M-2.15757, 2.08444 L-2.14395, 2.09845 " /><path d="M-1.58553, 2.54678 L-1.52531, 2.5833 " /><path d="M-1.0812, 2.79839 L-1.05453, 2.80855 " /><path d="M-0.553089, 2.94857 L-0.453718, 2.96549 " /><path d="M-0.106814, 2.9981 L0.00291394, 3 " /><path d="M0.413312, 2.97139 L0.546861, 2.94974 " /><path d="M0.546871, 2.94973 L0.55617, 2.948 " /><path d="M0.556179, 2.94799 L0.598708, 2.93965 " /><path d="M0.657399, 2.92708 L0.678487, 2.92227 " /><path d="M0.704145, 2.91619 L0.70644, 2.91564 " /><path d="M0.708525, 2.91513 L0.728934, 2.9101 " /><path d="M0.730944, 2.90959 L0.739595, 2.9074 " /><path d="M0.739604, 2.9074 L0.74824, 2.90519 " /><path d="M0.748257, 2.90519 Q0.838391, 2.88197 0.926912, 2.85321 " /><path d="M0.926928, 2.85321 L0.935403, 2.85044 " /><path d="M0.935411, 2.85044 L0.943886, 2.84764 " /><path d="M0.991424, 2.83144 L1.00079, 2.82815 " /><path d="M1.0008, 2.82814 L1.01015, 2.82482 " /><path d="M1.01017, 2.82481 Q1.10774, 2.78992 1.20267, 2.74838 " /><path d="M1.20268, 2.74837 L1.21177, 2.74438 " /><path d="M1.21178, 2.74438 L1.22086, 2.74035 " /><path d="M1.22273, 2.73951 L1.2419, 2.73088 " /><path d="M1.24375, 2.73003 L1.25279, 2.7259 " /><path d="M1.25279, 2.7259 L1.2618, 2.72174 " /><path d="M1.4466, 2.62818 L1.52304, 2.58464 " /><path d="M1.68035, 2.48524 L1.68773, 2.48024 " /><path d="M1.68773, 2.48023 L1.6951, 2.4752 " /><path d="M1.69683, 2.47402 L1.71411, 2.46208 " /><path d="M1.71743, 2.45976 L1.73463, 2.44767 " /><path d="M1.73463, 2.44767 L1.73545, 2.44708 " /><path d="M1.7363, 2.44648 L1.74439, 2.44072 " /><path d="M1.7444, 2.44071 L1.75247, 2.43493 " /><path d="M1.91632, 2.30818 L1.92395, 2.30183 " /><path d="M1.92395, 2.30183 L1.93157, 2.29544 " /><path d="M1.93313, 2.29412 L2.03554, 2.20376 " /><path d="M2.03555, 2.20375 L2.0404, 2.19926 " /><path d="M2.04041, 2.19926 L2.04525, 2.19476 " /><path d="M2.04525, 2.19475 L2.05008, 2.19024 " /><path d="M2.05009, 2.19023 L2.12215, 2.12049 " /><path d="M2.12216, 2.12048 L2.12683, 2.1158 " /><path d="M2.12683, 2.11579 L2.13149, 2.1111 " /><path d="M2.13295, 2.10963 L2.14768, 2.09463 " /><path d="M2.14768, 2.09463 L2.14839, 2.0939 " /><path d="M2.15083, 2.0914 L2.22737, 2.00968 " /><path d="M2.23023, 2.0065 L2.23256, 2.00391 " /><path d="M2.28048, 1.9492 L2.28275, 1.94655 " /><path d="M2.28601, 1.94272 L2.29626, 1.9306 " /><path d="M2.29725, 1.92941 L2.29949, 1.92674 " /><path d="M2.30173, 1.92406 L2.34769, 1.86771 " /><path d="M2.3477, 1.86771 L2.34986, 1.86498 " /><path d="M2.34987, 1.86498 L2.35203, 1.86224 " /><path d="M2.35252, 1.86163 L2.35743, 1.8554 " /><path d="M2.35941, 1.85289 L2.37271, 1.83582 " /><path d="M2.37272, 1.83581 L2.37561, 1.83207 " /><path d="M2.37561, 1.83207 L2.38876, 1.81488 " /><path d="M2.39025, 1.81292 L2.39168, 1.81104 " /><path d="M2.39168, 1.81104 L2.40468, 1.79375 " /><path d="M2.40468, 1.79374 L2.4075, 1.78995 " /><path d="M2.4075, 1.78995 L2.42035, 1.77255 " /><path d="M2.42301, 1.7689 L2.43535, 1.75188 " /><path d="M2.43656, 1.7502 L2.44175, 1.74294 " /><path d="M2.44176, 1.74294 L2.44692, 1.73567 " /><path d="M2.54983, 1.58062 L2.55452, 1.57304 " /><path d="M2.55452, 1.57303 L2.55919, 1.56543 " /><path d="M2.56028, 1.56364 L2.57116, 1.54568 " /><path d="M2.57325, 1.5422 Q2.72934, 1.28159 2.83018, 0.99503 " /><path d="M2.86185, 0.899884 L2.89559, 0.784578 " /><path d="M2.91068, 0.726612 Q2.96884, 0.49348 2.98922, 0.254068 " /><path d="M2.98922, 0.254051 L2.98997, 0.245168 " /><path d="M2.98997, 0.245159 L2.99068, 0.236265 " /><path d="M2.99084, 0.234199 L2.99241, 0.213237 " /><path d="M2.99594, 0.156017 Q3, 0.0780611 3, 1.09188e-11 " /><path d="M3, 1.09381e-11 C3.00342, -0.801126 2.66729, -1.59624 2.0902, -2.15199  C1.46425, -2.76671 0.558783, -3.08 -0.313187, -2.98361  C-0.971625, -2.91613 -1.6039, -2.6221 -2.07978, -2.16207  C-2.60545, -1.65967 -2.93618, -0.960025 -2.99078, -0.234973 " /><path d="M-2.1541, 2.08802 L-2.13824, 2.10426 " /><path d="M-1.58101, 2.54959 L-1.52415, 2.58398 " /><path d="M-1.07319, 2.80148 L-1.06624, 2.80413 " /><path d="M-0.728673, 2.91016 Q-0.582858, 2.94667 -0.434143, 2.96842 " /><path d="M-0.126753, 2.99732 L0.0228695, 2.99991 " /><path d="M0.460125, 2.9645 L0.541666, 2.95069 " /><path d="M0.541671, 2.95069 L0.544168, 2.95023 " /><path d="M0.544209, 2.95023 L0.546084, 2.94988 " /><path d="M0.546088, 2.94988 L0.563257, 2.94665 " /><path d="M0.563261, 2.94665 L0.567006, 2.94593 " /><path d="M0.56701, 2.94593 L0.584157, 2.94258 " /><path d="M0.584161, 2.94258 L0.586031, 2.9422 " /><path d="M0.586091, 2.94219 L0.58796, 2.94182 " /><path d="M0.587964, 2.94182 L0.605078, 2.93835 " /><path d="M0.605082, 2.93835 L0.608815, 2.93757 " /><path d="M0.608819, 2.93757 L0.625908, 2.93398 " /><path d="M0.625912, 2.93398 L0.627775, 2.93358 " /><path d="M0.627855, 2.93356 L0.629718, 2.93316 " /><path d="M0.629722, 2.93316 L0.646777, 2.92945 " /><path d="M0.646781, 2.92945 L0.650501, 2.92863 " /><path d="M0.650504, 2.92862 L0.667532, 2.92479 " /><path d="M0.667536, 2.92479 L0.669394, 2.92437 " /><path d="M0.671429, 2.9239 L0.691581, 2.9192 " /><path d="M0.693565, 2.91873 L0.702108, 2.91668 " /><path d="M0.702116, 2.91668 L0.710645, 2.91462 " /><path d="M0.710662, 2.91461 Q0.799671, 2.89291 0.88719, 2.86581 " /><path d="M0.887206, 2.86581 L0.895585, 2.8632 " /><path d="M0.895593, 2.8632 L0.903973, 2.86057 " /><path d="M0.905933, 2.85995 L0.925624, 2.85363 " /><path d="M0.925625, 2.85363 L0.927512, 2.85302 " /><path d="M0.928472, 2.85271 L0.929416, 2.8524 " /><path d="M0.929417, 2.8524 L0.94907, 2.84592 " /><path d="M0.950987, 2.84528 L0.960256, 2.84217 " /><path d="M0.960265, 2.84216 L0.969515, 2.83902 " /><path d="M1.16013, 2.7666 L1.16913, 2.76281 " /><path d="M1.16914, 2.76281 L1.17814, 2.75898 " /><path d="M1.18, 2.75819 L1.199, 2.74998 " /><path d="M1.20265, 2.74839 L1.22157, 2.74003 " /><path d="M1.22157, 2.74003 L1.22338, 2.73922 " /><path d="M1.22344, 2.73919 L1.23146, 2.7356 " /><path d="M1.23147, 2.7356 L1.23946, 2.73198 " /><path d="M1.40387, 2.65125 Q1.52227, 2.58855 1.63462, 2.51555 " /><path d="M1.63463, 2.51555 L1.64199, 2.51075 " /><path d="M1.64199, 2.51075 L1.64934, 2.50593 " /><path d="M1.65105, 2.5048 L1.66828, 2.49336 " /><path d="M1.69041, 2.47841 L1.69848, 2.47289 " /><path d="M1.69848, 2.47288 L1.70653, 2.46734 " /><path d="M1.70654, 2.46733 Q1.79043, 2.40931 1.87018, 2.34572 " /><path d="M1.87019, 2.34571 L1.87782, 2.33961 " /><path d="M1.87783, 2.33961 L1.88545, 2.33347 " /><path d="M1.90537, 2.31723 L1.90614, 2.3166 " /><path d="M1.92283, 2.30277 L1.99958, 2.23644 " /><path d="M1.99959, 2.23644 L2.00394, 2.23254 " /><path d="M2.00395, 2.23253 L2.00829, 2.22862 " /><path d="M2.0083, 2.22862 L2.01263, 2.2247 " /><path d="M2.01264, 2.2247 L2.07751, 2.16424 " /><path d="M2.07752, 2.16423 L2.08173, 2.16018 " /><path d="M2.08174, 2.16018 L2.08595, 2.15611 " /><path d="M2.08741, 2.15469 L2.10223, 2.14025 " /><path d="M2.10373, 2.13877 L2.10509, 2.13743 " /><path d="M2.12019, 2.12245 L2.13249, 2.11009 " /><path d="M2.13525, 2.1073 Q2.20677, 2.03482 2.27322, 1.95767 " /><path d="M2.27323, 1.95765 L2.28317, 1.94606 " /><path d="M2.28318, 1.94605 L2.32793, 1.89228 " /><path d="M2.32794, 1.89227 L2.33275, 1.88634 " /><path d="M2.33278, 1.88631 L2.33397, 1.88483 " /><path d="M2.33398, 1.88482 L2.34491, 1.8712 " /><path d="M2.34492, 1.87119 L2.34729, 1.86821 " /><path d="M2.3473, 1.86821 L2.35814, 1.85451 " /><path d="M2.37361, 1.83466 L2.38425, 1.82081 " /><path d="M2.41229, 1.7835 L2.42485, 1.76639 " /><path d="M2.42608, 1.7647 L2.43137, 1.7574 " /><path d="M2.43137, 1.7574 L2.43663, 1.75009 " /><path d="M2.43664, 1.75008 Q2.49146, 1.67375 2.5414, 1.59414 " /><path d="M2.54141, 1.59412 L2.54618, 1.58649 " /><path d="M2.54619, 1.58648 L2.55094, 1.57883 " /><path d="M2.55205, 1.57704 L2.56314, 1.55895 " /><path d="M2.56526, 1.55546 Q2.72423, 1.29312 2.82698, 1.00409 " /><path d="M2.85926, 0.908105 L2.89363, 0.791785 " /><path d="M2.909, 0.733294 Q2.96827, 0.498029 2.98903, 0.256302 " /><path d="M2.98903, 0.256285 L2.98979, 0.247316 " /><path d="M2.98979, 0.247307 L2.99052, 0.238327 " /><path d="M2.99068, 0.236242 L2.99228, 0.215078 " /><path d="M2.99526, 0.168499 L2.99619, 0.151062 " /><path d="M2.99638, 0.147251 L3, 8.33644e-12 " /><path d="M3, 8.30203e-12 C3.00342, -0.801125 2.66729, -1.59624 2.0902, -2.15199  C1.46426, -2.76671 0.55879, -3.08 -0.313178, -2.98361  C-0.971602, -2.91614 -1.60386, -2.62212 -2.07974, -2.1621  C-2.60543, -1.65971 -2.93618, -0.960042 -2.99078, -0.234973 " /><path d="M-2.1541, 2.08802 L-2.13824, 2.10426 " /><path d="M-1.58101, 2.54959 L-1.52677, 2.58244 " /><path d="M-1.07319, 2.80148 L-1.06624, 2.80413 " /><path d="M-0.747352, 2.90542 Q-0.592462, 2.94525 -0.434233, 2.96841 " /><path d="M-0.106813, 2.9981 Q-0.022037, 3.00112 0.0627743, 2.99934 " /><path d="M0.479833, 2.96138 L0.538904, 2.9512 " /><path d="M0.560904, 2.9471 L0.563387, 2.94662 " /><path d="M0.565295, 2.94626 L0.582362, 2.94293 " /><path d="M0.582366, 2.94293 L0.586089, 2.94219 " /><path d="M0.586093, 2.94219 L0.603137, 2.93875 " /><path d="M0.603141, 2.93874 L0.605, 2.93836 " /><path d="M0.606922, 2.93797 L0.623933, 2.9344 " /><path d="M0.623937, 2.9344 L0.627647, 2.93361 " /><path d="M0.627651, 2.93361 L0.644637, 2.92992 " /><path d="M0.646572, 2.9295 L0.648424, 2.92909 " /><path d="M0.648428, 2.92909 L0.665379, 2.92528 " /><path d="M0.665383, 2.92528 L0.66908, 2.92444 " /><path d="M0.669084, 2.92444 L0.686007, 2.92051 " /><path d="M0.687956, 2.92005 L0.689928, 2.91959 " /><path d="M0.689929, 2.91959 L0.710472, 2.91466 " /><path d="M0.710474, 2.91466 L0.711458, 2.91442 " /><path d="M0.712494, 2.91416 L0.721203, 2.91202 " /><path d="M0.721211, 2.91202 L0.729904, 2.90985 " /><path d="M0.909794, 2.85872 L0.918327, 2.85599 " /><path d="M0.918335, 2.85599 L0.926869, 2.85323 " /><path d="M0.9279, 2.85289 L0.928862, 2.85258 " /><path d="M0.928864, 2.85258 L0.948915, 2.84597 " /><path d="M0.948916, 2.84597 L0.949877, 2.84565 " /><path d="M0.950854, 2.84533 L0.952775, 2.84468 " /><path d="M0.952777, 2.84468 L0.972786, 2.8379 " /><path d="M0.972787, 2.8379 L0.973746, 2.83757 " /><path d="M0.974738, 2.83723 L0.984174, 2.83397 " /><path d="M0.984183, 2.83397 L0.993599, 2.83068 " /><path d="M1.18751, 2.75496 L1.19667, 2.751 " /><path d="M1.19668, 2.75099 L1.20582, 2.747 " /><path d="M1.20678, 2.74657 L1.20771, 2.74617 " /><path d="M1.20771, 2.74617 L1.22702, 2.73759 " /><path d="M1.22702, 2.73759 L1.22887, 2.73676 " /><path d="M1.22981, 2.73634 L1.23073, 2.73593 " /><path d="M1.23074, 2.73593 L1.24996, 2.7272 " /><path d="M1.25186, 2.72632 L1.26001, 2.72257 " /><path d="M1.43506, 2.6345 Q1.55518, 2.56907 1.66885, 2.49298 " /><path d="M1.72359, 2.45545 L1.72525, 2.45429 " /><path d="M1.72528, 2.45427 L1.73343, 2.44851 " /><path d="M1.73344, 2.44851 L1.74157, 2.44273 " /><path d="M1.74159, 2.44272 Q1.82638, 2.38226 1.90677, 2.31608 " /><path d="M1.90678, 2.31607 L1.91447, 2.30972 " /><path d="M1.91448, 2.30971 L1.92216, 2.30333 " /><path d="M1.92218, 2.3033 L1.92296, 2.30265 " /><path d="M1.92374, 2.302 Q2.021, 2.22072 2.11107, 2.13152 " /><path d="M2.11108, 2.13151 L2.11744, 2.1252 " /><path d="M2.14161, 2.10084 L2.14294, 2.09948 " /><path d="M2.16974, 2.07177 Q2.22641, 2.01242 2.27974, 1.95007 " /><path d="M2.27976, 1.95006 L2.2896, 1.93848 " /><path d="M2.28962, 1.93847 L2.33398, 1.88481 " /><path d="M2.33399, 1.8848 L2.33876, 1.87888 " /><path d="M2.33878, 1.87885 L2.33997, 1.87737 " /><path d="M2.36393, 1.84712 L2.3651, 1.84562 " /><path d="M2.39101, 1.81193 L2.39215, 1.81041 " /><path d="M2.4026, 1.79652 L2.40487, 1.79349 " /><path d="M2.40487, 1.79348 L2.41522, 1.77953 " /><path d="M2.41522, 1.77952 L2.41635, 1.778 " /><path d="M2.41701, 1.7771 L2.41761, 1.77628 " /><path d="M2.43128, 1.75753 L2.43652, 1.75025 " /><path d="M2.43652, 1.75024 L2.44174, 1.74296 " /><path d="M2.44175, 1.74295 Q2.49609, 1.66682 2.54559, 1.58745 " /><path d="M2.54559, 1.58743 L2.55032, 1.57983 " /><path d="M2.55033, 1.57982 L2.55504, 1.57219 " /><path d="M2.55614, 1.5704 L2.56713, 1.55237 " /><path d="M2.58113, 1.52898 Q2.73035, 1.27694 2.82813, 1.00083 " /><path d="M2.85705, 0.915032 L2.85886, 0.909348 " /><path d="M2.86246, 0.897957 L2.89756, 0.777262 " /><path d="M2.9045, 0.7509 L2.90699, 0.741231 " /><path d="M2.90699, 0.741222 Q2.93395, 0.635475 2.95316, 0.52805 " /><path d="M2.95316, 0.528031 L2.9549, 0.518211 " /><path d="M2.95491, 0.518202 L2.95661, 0.508366 " /><path d="M2.95696, 0.506332 Q2.97835, 0.381396 2.98913, 0.255101 " /><path d="M2.98914, 0.255084 L2.98988, 0.246157 " /><path d="M2.98988, 0.246148 L2.99061, 0.23721 " /><path d="M2.99077, 0.235135 L2.99235, 0.214069 " /><path d="M2.99531, 0.167709 Q3, 0.08392 3, 6.24301e-12 " /><path d="M3, 6.20659e-12 C3.00342, -0.801126 2.66729, -1.59624 2.0902, -2.15199  C1.46425, -2.76671 0.558775, -3.08001 -0.313198, -2.98361  C-0.971651, -2.91613 -1.60394, -2.62208 -2.07982, -2.16203  C-2.60547, -1.65964 -2.93618, -0.960006 -2.99078, -0.234973 " /><path d="M-2.28095, 1.94866 Q-2.21826, 2.02204 -2.15098, 2.09124 " /><path d="M-1.06371, 2.80509 Q-0.956787, 2.84563 -0.847082, 2.87792 " /><path d="M-0.777613, 2.89747 L-0.774274, 2.89836 " /><path d="M-0.769448, 2.89965 L-0.754211, 2.90365 " /><path d="M-0.313046, 2.98362 L-0.289688, 2.98598 " /><path d="M-0.234727, 2.9908 Q0.0225683, 3.01095 0.279533, 2.98695 " /><path d="M0.396042, 2.97374 L0.403701, 2.97271 " /><path d="M0.411367, 2.97166 L0.542407, 2.95056 " /><path d="M0.542416, 2.95056 L0.55002, 2.94915 " /><path d="M0.580011, 2.9434 L0.581167, 2.94317 " /><path d="M0.607635, 2.93782 L0.617849, 2.93569 " /><path d="M0.617859, 2.93569 L0.628055, 2.93352 " /><path d="M0.628075, 2.93352 Q0.74591, 2.90829 0.861344, 2.87369 " /><path d="M0.861346, 2.87369 L0.863601, 2.87301 " /><path d="M0.863606, 2.87301 L0.910564, 2.85847 " /><path d="M0.910569, 2.85847 L0.912812, 2.85776 " /><path d="M0.915119, 2.85702 L0.92505, 2.85382 " /><path d="M0.92506, 2.85382 L0.93497, 2.85058 " /><path d="M0.934989, 2.85058 Q1.0384, 2.81666 1.13909, 2.77533 " /><path d="M1.1391, 2.77533 L1.14874, 2.77135 " /><path d="M1.14875, 2.77135 L1.15838, 2.76734 " /><path d="M1.15846, 2.7673 L1.15955, 2.76685 " /><path d="M1.18759, 2.75493 L1.21012, 2.7451 " /><path d="M1.21232, 2.74414 L1.21763, 2.74178 " /><path d="M1.21764, 2.74178 L1.22294, 2.73942 " /><path d="M1.22295, 2.73942 L1.3325, 2.68783 " /><path d="M1.33251, 2.68783 L1.33771, 2.68524 " /><path d="M1.33771, 2.68524 L1.3481, 2.68004 " /><path d="M1.3481, 2.68004 L1.35328, 2.67743 " /><path d="M1.35329, 2.67742 Q1.54545, 2.58028 1.72179, 2.45671 " /><path d="M1.72181, 2.4567 L1.73034, 2.4507 " /><path d="M1.74083, 2.44326 L1.76079, 2.42891 " /><path d="M1.76465, 2.42611 L1.78136, 2.41386 " /><path d="M1.78137, 2.41386 L1.78501, 2.41117 " /><path d="M1.78501, 2.41117 L1.80162, 2.39878 " /><path d="M1.80163, 2.39878 L1.80344, 2.39742 " /><path d="M1.80534, 2.39598 L1.82186, 2.38345 " /><path d="M1.82186, 2.38345 L1.82545, 2.3807 " /><path d="M1.82546, 2.38069 L1.84187, 2.36802 " /><path d="M1.84187, 2.36802 L1.84366, 2.36663 " /><path d="M1.84552, 2.36517 L1.86183, 2.35236 " /><path d="M1.86183, 2.35235 L1.86538, 2.34954 " /><path d="M1.86539, 2.34954 L1.88159, 2.33658 " /><path d="M1.88341, 2.33512 L1.88517, 2.33369 " /><path d="M1.88517, 2.33369 L1.90127, 2.3206 " /><path d="M1.90128, 2.32059 L1.90478, 2.31772 " /><path d="M1.92077, 2.30448 L1.92251, 2.30303 " /><path d="M1.92255, 2.303 L2.02123, 2.21689 " /><path d="M2.02124, 2.21689 L2.02569, 2.21282 " /><path d="M2.0257, 2.21281 L2.03014, 2.20874 " /><path d="M2.03015, 2.20873 L2.06915, 2.17224 " /><path d="M2.06916, 2.17223 L2.07352, 2.16807 " /><path d="M2.1082, 2.13436 L2.10981, 2.13276 " /><path d="M2.11148, 2.13111 Q2.2444, 1.9994 2.35994, 1.85221 " /><path d="M2.35995, 1.85219 L2.36654, 1.84377 " /><path d="M2.36655, 1.84376 L2.37311, 1.83531 " /><path d="M2.39289, 1.80944 L2.40801, 1.78927 " /><path d="M2.40948, 1.78729 L2.41302, 1.78251 " /><path d="M2.41302, 1.7825 L2.41656, 1.77771 " /><path d="M2.41656, 1.7777 L2.48808, 1.67615 " /><path d="M2.48809, 1.67614 L2.49141, 1.6712 " /><path d="M2.49141, 1.67119 L2.49803, 1.66128 " /><path d="M2.49803, 1.66128 L2.50132, 1.65632 " /><path d="M2.50133, 1.65631 Q2.72518, 1.31779 2.85152, 0.932106 " /><path d="M2.85558, 0.919592 L2.85595, 0.918441 " /><path d="M2.94938, 0.548789 Q2.97183, 0.428138 2.98435, 0.306057 " /><path d="M2.99152, 0.225399 L2.99301, 0.204722 " /><path d="M2.99604, 0.154161 L3, 4.18243e-12 " /><path d="M3, 4.28635e-12 C3.00342, -0.801125 2.66729, -1.59624 2.0902, -2.15199  C1.46425, -2.76671 0.558782, -3.08 -0.313188, -2.98361  C-0.971628, -2.91613 -1.6039, -2.6221 -2.07978, -2.16206  C-2.60545, -1.65967 -2.93618, -0.960023 -2.99078, -0.234973 " /><path d="M3, 2.85683e-12 C3.00342, -0.801127 2.66729, -1.59624 2.0902, -2.15199  C1.46425, -2.76671 0.558766, -3.08001 -0.313209, -2.98361  C-0.971679, -2.91612 -1.60398, -2.62206 -2.07986, -2.16198  C-2.60549, -1.6596 -2.93618, -0.959986 -2.99078, -0.234973 " /><path d="M-2.15398, 2.08815 L-2.15163, 2.09057 " /><path d="M-1.58019, 2.5501 L-1.53095, 2.57996 " /><path d="M-1.1421, 2.7741 Q-1.00614, 2.83007 -0.86535, 2.87248 " /><path d="M-0.794334, 2.89293 L-0.791216, 2.89378 " /><path d="M-0.790517, 2.89397 L-0.783415, 2.8959 " /><path d="M-0.758223, 2.9026 L-0.739786, 2.90736 " /><path d="M-0.739782, 2.90736 L-0.737768, 2.90787 " /><path d="M-0.431939, 2.96874 L-0.385129, 2.97518 " /><path d="M-0.266117, 2.98817 Q-0.0599798, 3.00651 0.146724, 2.99641 " /><path d="M0.372554, 2.97678 L0.38907, 2.97466 " /><path d="M0.410321, 2.97181 Q0.518635, 2.95685 0.625581, 2.93405 " /><path d="M0.625599, 2.93405 L0.63465, 2.9321 " /><path d="M0.634656, 2.9321 L0.643707, 2.93013 " /><path d="M0.643713, 2.93013 L0.652752, 2.92812 " /><path d="M0.652769, 2.92812 Q0.739448, 2.9088 0.824833, 2.88438 " /><path d="M0.958943, 2.84261 L0.967711, 2.83964 " /><path d="M0.967717, 2.83963 L0.97648, 2.83663 " /><path d="M0.976486, 2.83663 L0.985235, 2.8336 " /><path d="M0.985252, 2.8336 L1.11679, 2.78438 " /><path d="M1.11681, 2.78437 L1.12539, 2.78092 " /><path d="M1.1254, 2.78091 L1.13399, 2.77742 " /><path d="M1.13551, 2.7768 L1.15087, 2.77047 " /><path d="M1.15386, 2.76923 L1.16919, 2.76279 " /><path d="M1.17215, 2.76153 L1.18745, 2.75499 " /><path d="M1.19039, 2.75372 L1.20565, 2.74707 " /><path d="M1.24482, 2.72955 L1.25994, 2.7226 " /><path d="M1.26286, 2.72125 L1.27793, 2.7142 " /><path d="M1.28084, 2.71283 L1.29585, 2.70569 " /><path d="M1.29877, 2.70429 L1.31373, 2.69706 " /><path d="M1.31521, 2.69634 L1.3277, 2.69021 " /><path d="M1.32771, 2.6902 L1.34016, 2.68402 " /><path d="M1.34018, 2.68401 Q1.47007, 2.61915 1.59309, 2.54206 " /><path d="M1.59312, 2.54204 L1.60488, 2.53463 " /><path d="M1.60489, 2.53463 L1.62833, 2.51963 " /><path d="M1.62834, 2.51962 L1.64, 2.51205 " /><path d="M1.64002, 2.51204 Q1.76159, 2.43267 1.87493, 2.34193 " /><path d="M1.87495, 2.34192 L1.88578, 2.33321 " /><path d="M1.88579, 2.3332 L1.89659, 2.32443 " /><path d="M1.89786, 2.32338 L1.9107, 2.31284 " /><path d="M1.91319, 2.31078 L1.92597, 2.30014 " /><path d="M1.92844, 2.29807 L2.00677, 2.22999 " /><path d="M2.00685, 2.22992 L2.00838, 2.22855 " /><path d="M2.02228, 2.21594 L2.02531, 2.21317 " /><path d="M2.02531, 2.21317 L2.03911, 2.20046 " /><path d="M2.03912, 2.20045 L2.04062, 2.19906 " /><path d="M2.04068, 2.199 L2.04218, 2.19761 " /><path d="M2.04219, 2.19761 L2.0559, 2.18478 " /><path d="M2.0559, 2.18478 L2.05889, 2.18197 " /><path d="M2.05889, 2.18196 L2.07251, 2.16904 " /><path d="M2.07251, 2.16903 L2.07399, 2.16762 " /><path d="M2.07404, 2.16757 L2.07552, 2.16616 " /><path d="M2.09199, 2.15025 L2.10541, 2.13711 " /><path d="M2.10691, 2.13564 L2.11274, 2.12986 " /><path d="M2.17683, 2.06432 L2.22789, 2.0091 " /><path d="M2.2279, 2.00909 L2.23339, 2.00299 " /><path d="M2.23479, 2.00142 L2.24728, 1.98739 " /><path d="M2.26238, 1.97018 L2.26373, 1.96864 " /><path d="M2.26512, 1.96703 L2.27739, 1.95282 " /><path d="M2.27739, 1.95282 L2.28006, 1.9497 " /><path d="M2.28006, 1.9497 L2.29221, 1.93539 " /><path d="M2.29222, 1.93539 L2.29354, 1.93382 " /><path d="M2.2936, 1.93376 L2.29492, 1.93219 " /><path d="M2.29492, 1.93219 L2.30696, 1.91779 " /><path d="M2.30696, 1.91779 L2.30958, 1.91464 " /><path d="M2.30958, 1.91464 L2.32151, 1.90015 " /><path d="M2.32427, 1.89678 L2.33863, 1.87905 " /><path d="M2.34004, 1.87729 L2.34609, 1.86973 " /><path d="M2.34609, 1.86972 L2.35211, 1.86214 " /><path d="M2.4721, 1.69963 L2.47757, 1.69165 " /><path d="M2.47757, 1.69164 L2.48302, 1.68363 " /><path d="M2.48429, 1.68175 L2.497, 1.66282 " /><path d="M2.49944, 1.65916 L2.51199, 1.6401 " /><path d="M2.51199, 1.6401 L2.51259, 1.63918 " /><path d="M2.5132, 1.63823 L2.51908, 1.62919 " /><path d="M2.51908, 1.62918 L2.52492, 1.62012 " /><path d="M2.63916, 1.42647 Q2.8034, 1.12232 2.89442, 0.788878 " /><path d="M2.89443, 0.788858 Q2.924, 0.680332 2.94537, 0.569896 " /><path d="M2.94538, 0.569876 L2.9474, 0.559295 " /><path d="M2.94741, 0.559285 L2.9494, 0.548688 " /><path d="M2.9498, 0.546496 L2.95388, 0.524044 " /><path d="M2.95851, 0.497239 Q2.97705, 0.386908 2.98732, 0.275502 " /><path d="M2.98732, 0.275483 L2.9882, 0.265846 " /><path d="M2.9882, 0.265836 L2.98904, 0.256187 " /><path d="M2.98923, 0.253946 L2.99108, 0.231202 " /><path d="M2.99453, 0.181142 L2.9956, 0.162399 " /><path d="M2.99582, 0.158298 Q3, 0.079204 3, 1.67377e-12 " /><path d="M3, 1.60161e-12 L2.99807, -0.107605 " /><path d="M2.98016, -0.34446 L2.95929, -0.492529 " /><path d="M2.94647, -0.564218 L2.94646, -0.564235 " /><path d="M2.93433, -0.624284 L2.93432, -0.624294 " /><path d="M2.89811, -0.775219 L2.88746, -0.813976 " /><path d="M2.84817, -0.942307 Q2.82077, -1.02512 2.7886, -1.10621 " /></g>

</svg>
