<svg xmlns="http://www.w3.org/2000/svg" viewBox="-3.0999608 -3.7560308 20.342061599999997 15.651531599999998">
<rect width="100%" height="100%" fill="white"/>
<g   fill="none"
   stroke="rgb(0, 0, 0)"
   stroke-linecap="butt"
   stroke-linejoin="miter"
   stroke-width="0.35"
   transform="scale(1, -1)"
  >
<path id= "1" d=" M -1.07574 -2.84303 L 7.55097 -7.82365 " />
<path id= "2" d=" M 1.92426 2.35313 L 10.551 -2.6275 " />
<path id= "3" d=" M 7.55097 -7.82365 L 7.93104 -8.04309 " />
<path id= "4" d=" M 10.551 -2.6275 L 10.6225 -2.66882 " />
<path id= "5" d=" M 11.1677 -2.98358 L 11.2846 -3.05106 " />
<path id= "6" d=" M -1.69706 -0.979796 L -1.69706 -1.46969 " />
<path id= "7" d=" M 8.54974 -8.4003 L 8.63815 -8.45134 " />
<path id= "8" d=" M 11.9033 -3.40827 L 11.9917 -3.45931 " />
<path id= "9" d=" M 9.25685 -8.80855 L 9.34525 -8.85959 " />
<path id= "10" d=" M 12.6104 -3.81652 L 12.6988 -3.86756 " />
<path id= "11" d=" M 9.96396 -9.2168 L 10.0524 -9.26783 " />
<path id= "12" d=" M 13.3175 -4.22477 L 13.4059 -4.2758 " />
<path id= "13" d=" M 10.6711 -9.62505 L 10.7595 -9.67608 " />
<path id= "14" d=" M 14.0246 -4.63302 L 14.113 -4.68405 " />
<path id= "15" d=" M 11.3782 -10.0333 L 11.4666 -10.0843 " />
<path id= "16" d=" M 14.7317 -5.04127 L 14.8201 -5.0923 " />
<path id= "17" d=" M 12.0853 -10.4415 L 12.1737 -10.4926 " />
<path id= "18" d=" M 14.1421 -10.1246 L 14.0261 -10.1916 " />
</g>
<g   fill="none"
   stroke="rgb(0, 0, 0)"
   stroke-linecap="butt"
   stroke-linejoin="miter"
   stroke-width="0.35"
   transform="scale(1, -1)"
  >
<path d="M1.69706 0.979796 A2.4 1.38564 60 0 1 0.353553 2.12072" />
<path d="M0.353553 -1.71247 A2.4 1.38564 60 0 1 1.69706 0.979796" />
<path id= "3" d=" M 0.353553 2.12072 L 0.353553 -1.71247 " />
<path d="M2.54558 0.979796 A3 1.73205 60 0 1 1.92426 2.35313" />
<path d="M1.92426 2.35313 A3 1.73205 60 0 1 0.777817 2.3744" />
<path d="M0.353553, 2.12072 Q0.541292, 2.23397 0.777817, 2.3744 " /><path id= "7" d=" M 0.777817 -2.45605 L 2.26274 -3.31338 " />
<path d="M0.777817, -2.45605 Q0.541292, -2.04251 0.353553, -1.71247 " /><path d="M0.777817 -2.45605 A3 1.73205 60 0 1 2.54558 0.979796" />
<path d="M2.26274 -3.31338 A3 1.73205 -120 0 0 1.55563 -3.72162" />
<path id= "11" d=" M 0.0707107 -2.8643 L 1.55563 -3.72162 " />
<path d="M-1.69706 -1.46969 A3 1.73205 60 0 1 -1.07574 -2.84303" />
<path d="M-1.07574 -2.84303 A3 1.73205 60 0 1 0.0707107 -2.8643" />
<path id= "14" d=" M 0.0707107 1.96616 L 0.353553 1.80286 " />
<path id= "15" d=" M 1.55563 -3.72162 L 1.55563 -2.90513 " />
<path d="M11.2872, -4.06717 C11.263, -3.40778 11.0199, -2.89424 10.6225, -2.66882 " /><path d="M10.8582, -2.85475 Q11.0233, -2.90027 11.1677, -2.98358 " /><path d="M11.1677, -2.98358 C11.6108, -3.23532 11.8818, -3.76268 11.9059, -4.42438 " /><path d="M11.2872, -4.06717 C11.3211, -4.76274 11.0953, -5.60241 10.6903, -6.328  C10.4409, -6.77852 10.1269, -7.18386 9.79088, -7.49361  C9.57046, -7.69664 9.34776, -7.85542 9.12277, -7.96995  C8.67269, -8.20007 8.24292, -8.2252 7.93104, -8.04309 " /><path d="M11.2846, -3.05106 C11.7089, -3.29236 11.9671, -3.81498 11.9943, -4.47542 " /><path d="M-0.353553, 1.71247 Q-0.165814, 1.82572 0.0707107, 1.96616 " /><path id= "22" d=" M -0.353553 1.71247 L -0.353553 -2.12072 " />
<path d="M0.0707107, -2.8643 Q-0.165814, -2.45075 -0.353553, -2.12072 " /><path d="M-0.353553 1.71247 A2.4 1.38564 60 0 1 -1.69706 -0.979796" />
<path d="M-1.69706 -0.979796 A2.4 1.38564 60 0 1 -0.353553 -2.12072" />
<path d="M11.9943, -4.47542 C12.0283, -5.17098 11.8024, -6.01066 11.3974, -6.73625  C11.148, -7.18676 10.834, -7.59211 10.498, -7.90186  C10.2776, -8.10489 10.0549, -8.26368 9.82987, -8.3782  C9.37979, -8.60832 8.95002, -8.63345 8.63815, -8.45134 " /><path d="M11.9917, -3.45931 C12.416, -3.70061 12.6742, -4.22323 12.7014, -4.88367 " /><path d="M11.9059, -4.42438 C11.9348, -5.03202 11.7681, -5.74946 11.4535, -6.4049  C11.2326, -6.86811 10.9407, -7.29891 10.6173, -7.64417  C10.3527, -7.9273 10.0675, -8.15312 9.78771, -8.30301  C9.32107, -8.55498 8.87224, -8.58883 8.54974, -8.4003 " /><path d="M8.54974, -8.4003 Q8.393, -8.30966 8.2782, -8.1562 " /><path d="M11.5661, -3.27788 Q11.7472, -3.31825 11.9033, -3.40827 " /><path d="M11.9033, -3.40827 C12.3276, -3.64957 12.5858, -4.17219 12.613, -4.83263 " /><path d="M12.7014, -4.88367 C12.7354, -5.57923 12.5095, -6.41891 12.1045, -7.1445  C11.8551, -7.59501 11.5411, -8.00036 11.2051, -8.31011  C10.9847, -8.51315 10.762, -8.67193 10.537, -8.78646  C10.0869, -9.01657 9.65713, -9.04169 9.34525, -8.85959 " /><path d="M12.6988, -3.86756 C13.1231, -4.10886 13.3813, -4.63147 13.4085, -5.29192 " /><path d="M12.613, -4.83263 C12.6419, -5.44026 12.4752, -6.1577 12.1606, -6.81314  C11.9397, -7.27635 11.6478, -7.70714 11.3244, -8.05241  C11.06, -8.3353 10.7751, -8.56097 10.4955, -8.71087  C10.0286, -8.96319 9.57951, -8.99718 9.25685, -8.80855 " /><path d="M9.25685, -8.80855 Q9.10011, -8.7179 8.98531, -8.56445 " /><path d="M12.2732, -3.68613 Q12.4543, -3.7265 12.6104, -3.81652 " /><path d="M12.6104, -3.81652 C13.0347, -4.05782 13.2929, -4.58044 13.3201, -5.24088 " /><path d="M13.4085, -5.29192 C13.4425, -5.98748 13.2166, -6.82715 12.8116, -7.55274  C12.5622, -8.00326 12.2482, -8.40861 11.9122, -8.71836  C11.6918, -8.9214 11.4691, -9.08018 11.2441, -9.19471  C10.794, -9.42482 10.3642, -9.44994 10.0524, -9.26783 " /><path d="M13.4059, -4.2758 C13.8302, -4.5171 14.0884, -5.03972 14.1156, -5.70017 " /><path d="M13.3201, -5.24088 C13.349, -5.84851 13.1824, -6.56595 12.8677, -7.22139  C12.6468, -7.68459 12.3549, -8.11538 12.0315, -8.46065  C11.7674, -8.74326 11.4828, -8.96878 11.2035, -9.11868  C10.7363, -9.37139 10.2868, -9.40554 9.96396, -9.2168 " /><path d="M9.96396, -9.2168 Q9.80721, -9.12615 9.69242, -8.9727 " /><path d="M12.9803, -4.09438 Q13.1615, -4.13475 13.3175, -4.22477 " /><path d="M13.3175, -4.22477 C13.7418, -4.46607 14, -4.98869 14.0272, -5.64913 " /><path d="M14.1156, -5.70017 C14.1496, -6.39573 13.9237, -7.2354 13.5187, -7.96099  C13.2693, -8.41151 12.9553, -8.81686 12.6193, -9.1266  C12.3989, -9.32965 12.1762, -9.48843 11.9512, -9.60296  C11.5011, -9.83307 11.0713, -9.85819 10.7595, -9.67608 " /><path d="M14.113, -4.68405 C14.5373, -4.92535 14.7955, -5.44797 14.8227, -6.10842 " /><path d="M14.0272, -5.64913 C14.0561, -6.25676 13.8895, -6.97419 13.5748, -7.62963  C13.3539, -8.09283 13.0621, -8.52362 12.7386, -8.86889  C12.4709, -9.15542 12.1821, -9.38324 11.899, -9.53311  C11.4359, -9.78027 10.9913, -9.81218 10.6711, -9.62505 " /><path d="M10.6711, -9.62505 Q10.5143, -9.5344 10.3995, -9.38095 " /><path d="M13.6874, -4.50263 Q13.8686, -4.543 14.0246, -4.63302 " /><path d="M14.0246, -4.63302 C14.4489, -4.87432 14.7071, -5.39694 14.7343, -6.05738 " /><path d="M14.8227, -6.10842 C14.8567, -6.80398 14.6308, -7.64365 14.2258, -8.36924  C13.9764, -8.81976 13.6624, -9.22511 13.3264, -9.53485  C13.106, -9.7379 12.8833, -9.89668 12.6583, -10.0112  C12.2082, -10.2413 11.7784, -10.2664 11.4666, -10.0843 " /><path d="M14.8201, -5.0923 C15.2444, -5.3336 15.5026, -5.85622 15.5298, -6.51666 " /><path d="M14.7343, -6.05738 C14.7632, -6.66501 14.5966, -7.38244 14.2819, -8.03787  C14.061, -8.50107 13.7692, -8.93186 13.4457, -9.27712  C13.1783, -9.56334 12.8898, -9.79096 12.6071, -9.94084  C12.1437, -10.1885 11.6986, -10.2206 11.3782, -10.0333 " /><path d="M11.3782, -10.0333 Q11.2214, -9.94265 11.1066, -9.78919 " /><path d="M14.3945, -4.91088 Q14.5757, -4.95125 14.7317, -5.04127 " /><path d="M14.7317, -5.04127 C15.156, -5.28257 15.4142, -5.80519 15.4414, -6.46563 " /><path d="M15.5298, -6.51666 C15.5638, -7.21223 15.3379, -8.0519 14.9329, -8.77749  C14.6835, -9.22801 14.3695, -9.63335 14.0335, -9.9431  C13.8131, -10.1461 13.5904, -10.3049 13.3654, -10.4195  C12.9153, -10.6496 12.4855, -10.6747 12.1737, -10.4926 " /><path d="M15.4414, -6.46563 C15.4703, -7.07325 15.3037, -7.79068 14.989, -8.44612  C14.7681, -8.90931 14.4763, -9.34009 14.1529, -9.68536  C13.8857, -9.97124 13.5976, -10.1987 13.3152, -10.3486  C12.8514, -10.5967 12.4059, -10.629 12.0853, -10.4415 " /><path d="M12.0853, -10.4415 Q11.9285, -10.3509 11.8137, -10.1974 " /><path d="M15.8392, -6.92174 C15.841, -6.33392 15.6459, -5.85402 15.3023, -5.60462 " /><path id= "60" d=" M 15.8392 -6.92174 L 15.8392 -7.18517 " />
<path d="M15.8392, -6.92174 C15.8402, -7.4245 15.6978, -8.00152 15.4437, -8.5357  C15.1052, -9.25664 14.5631, -9.88554 14.0261, -10.1916 " /><path d="M14.0261, -10.1916 Q13.6865, -10.3867 13.3795, -10.4122 " /><path d="M14.1421 -10.1246 A2.4 1.38564 60 0 1 15.8392 -7.18517" />
</g>

</svg>
