<svg xmlns="http://www.w3.org/2000/svg" viewBox="-1.6 -4.6 23.2 9.2">
<rect width="100%" height="100%" fill="white"/>
<g   fill="none"
   stroke="rgb(0, 0, 0)"
   stroke-linecap="butt"
   stroke-linejoin="miter"
   stroke-width="0.35"
   transform="scale(1, -1)"
  >
<path id= "1" d=" M 0.6 -3 L 12.8 -3 " />
<path id= "2" d=" M 12.8 -3 L 13.4625 -3 " />
<path id= "3" d=" M -8.86363e-17 -2.4 L 0.6 -3 " />
<path d="M13.5094, 2.44526 Q13.5029, 2.43287 13.4844, 2.41656  Q13.4493, 2.38767 13.4, 2.38658 " /><path d="M13.8236, 2.9874 L13.5094, 2.44526 " /><path id= "6" d=" M 14.3375 -3 L 14.4625 -3 " />
<path d="M13.2928, 2.44344 L12.9771, 2.98741 " /><path d="M13.7928, -2.44344 L13.4771, -2.98742 " /><path d="M14.0072, -2.44344 Q14.0015, -2.43222 13.9834, -2.41612  Q13.9596, -2.39637 13.9264, -2.38921  Q13.9132, -2.38789 13.9, -2.38658  Q13.8535, -2.38752 13.8197, -2.41373  Q13.7992, -2.43098 13.7928, -2.44344 " /><path d="M14.5072, 2.44344 Q14.5015, 2.43222 14.4834, 2.41612  Q14.4489, 2.38773 14.4, 2.38658 " /><path d="M13.4, 2.38658 Q13.3536, 2.38752 13.3197, 2.41373  Q13.2992, 2.43098 13.2928, 2.44344 " /><path d="M14.3229, -2.98741 L14.0072, -2.44344 " /><path d="M14.8229, 2.98741 L14.5072, 2.44344 " /><path id= "14" d=" M 15.3375 -3 L 15.4625 -3 " />
<path d="M14.2928, 2.44344 L13.9771, 2.98741 " /><path d="M14.7928, -2.44343 L14.4771, -2.98742 " /><path d="M15.0072, -2.44344 Q15.0015, -2.43222 14.9834, -2.41612  Q14.9596, -2.39636 14.9264, -2.3892  Q14.9132, -2.38789 14.9, -2.38658  Q14.8535, -2.38751 14.8197, -2.41373  Q14.7992, -2.43098 14.7928, -2.44343 " /><path d="M15.5072, 2.44344 Q15.5015, 2.43222 15.4834, 2.41612  Q15.4489, 2.38772 15.4, 2.38658 " /><path d="M14.4, 2.38658 Q14.3536, 2.38751 14.3197, 2.41372  Q14.2992, 2.43098 14.2928, 2.44344 " /><path d="M15.3229, -2.98741 L15.0072, -2.44344 " /><path d="M15.8229, 2.98741 L15.5072, 2.44344 " /><path id= "22" d=" M 16.3375 -3 L 16.4625 -3 " />
<path d="M15.2928, 2.44344 L14.9771, 2.98741 " /><path d="M15.7928, -2.44343 L15.4771, -2.98742 " /><path d="M16.0072, -2.44343 Q16.0015, -2.43221 15.9834, -2.41611  Q15.9596, -2.39636 15.9264, -2.3892  Q15.9132, -2.38789 15.9, -2.38657  Q15.8535, -2.38751 15.8197, -2.41372  Q15.7992, -2.43097 15.7928, -2.44343 " /><path d="M16.5072, 2.44344 Q16.5015, 2.43222 16.4834, 2.41612  Q16.4489, 2.38772 16.4, 2.38658 " /><path d="M15.4, 2.38658 Q15.3536, 2.38751 15.3197, 2.41372  Q15.2992, 2.43098 15.2928, 2.44344 " /><path d="M16.3229, -2.98741 L16.0072, -2.44343 " /><path d="M16.8229, 2.98741 L16.5072, 2.44344 " /><path id= "30" d=" M 17.3375 -3 L 17.4625 -3 " />
<path d="M16.2928, 2.44344 L15.9771, 2.98741 " /><path d="M16.7928, -2.44343 L16.4771, -2.98742 " /><path d="M17.0072, -2.44343 Q17.0015, -2.43221 16.9834, -2.41611  Q16.9596, -2.39636 16.9264, -2.3892  Q16.9132, -2.38789 16.9, -2.38657  Q16.8535, -2.38751 16.8197, -2.41372  Q16.7992, -2.43097 16.7928, -2.44343 " /><path d="M17.5072, 2.44344 Q17.5014, 2.43221 17.4833, 2.41611  Q17.4489, 2.38772 17.4, 2.38657 " /><path d="M16.4, 2.38658 Q16.3536, 2.38751 16.3197, 2.41372  Q16.2992, 2.43097 16.2928, 2.44344 " /><path d="M17.3229, -2.98741 L17.0072, -2.44343 " /><path d="M17.8229, 2.98741 L17.5072, 2.44344 " /><path id= "38" d=" M 18.3375 -3 L 18.4625 -3 " />
<path d="M17.2928, 2.44343 L16.9771, 2.98741 " /><path d="M17.7928, -2.44343 L17.4771, -2.98741 " /><path d="M18.0072, -2.44343 Q18.0014, -2.43221 17.9833, -2.41611  Q17.9596, -2.39636 17.9264, -2.3892  Q17.9132, -2.38788 17.9, -2.38657  Q17.8535, -2.38751 17.8197, -2.41372  Q17.7992, -2.43097 17.7928, -2.44343 " /><path d="M18.5072, 2.44343 Q18.5014, 2.43221 18.4833, 2.41611  Q18.4489, 2.38772 18.4, 2.38657 " /><path d="M17.4, 2.38657 Q17.3536, 2.38751 17.3197, 2.41372  Q17.2992, 2.43097 17.2928, 2.44343 " /><path d="M18.3229, -2.98741 L18.0072, -2.44343 " /><path d="M18.8229, 2.98741 L18.5072, 2.44343 " /><path id= "46" d=" M 19.3375 -3 L 19.4 -3 " />
<path d="M18.2928, 2.44343 L17.9771, 2.98741 " /><path d="M18.7928, -2.44343 L18.4771, -2.98741 " /><path d="M19.0072, -2.44343 Q19.0014, -2.43221 18.9833, -2.41611  Q18.9596, -2.39635 18.9264, -2.3892  Q18.9132, -2.38788 18.9, -2.38657  Q18.8535, -2.3875 18.8196, -2.41372  Q18.7992, -2.43097 18.7928, -2.44343 " /><path d="M19.5072, 2.44343 Q19.5014, 2.43221 19.4833, 2.41611  Q19.4489, 2.38771 19.4, 2.38657 " /><path d="M18.4, 2.38657 Q18.3536, 2.3875 18.3197, 2.41372  Q18.2992, 2.43097 18.2928, 2.44343 " /><path d="M19.3229, -2.98741 L19.0072, -2.44343 " /><path d="M19.5072, 2.44343 L19.6672, 2.71898 " /><path id= "54" d=" M 19.5479 -2.85212 L 19.4 -3 " />
<path d="M19.2928, 2.44343 L18.9771, 2.98741 " /><path d="M19.7928, -2.44342 L19.5846, -2.80197 " /><path d="M19.4, 2.38657 Q19.3535, 2.3875 19.3197, 2.41371  Q19.2992, 2.43097 19.2928, 2.44343 " /><path d="M19.7928, -2.44342 Q19.7986, -2.4322 19.8167, -2.4161  Q19.8404, -2.39635 19.8736, -2.38919  Q19.8868, -2.38788 19.9, -2.38656  Q19.9476, -2.3876 19.9818, -2.41485 " /><path id= "59" d=" M 20 -2.4 L 19.9854 -2.41456 " />
</g>
<g   fill="none"
   stroke="rgb(0, 0, 0)"
   stroke-linecap="butt"
   stroke-linejoin="miter"
   stroke-width="0.35"
   transform="scale(1, -1)"
  >
<path d="M0, 0.5 L0, 0.725463  L0, 0.944075  L0, 1.15377  L0, 1.35258  L0, 1.53861  L0, 1.71012  L0, 1.86548  L0, 2.00322  L0, 2.12205  L0, 2.22084  L0, 2.29867  L0, 2.35478  L0, 2.38867  L0, 2.4 " /><path id= "2" d=" M 0 2.4 L 0.6 3 " />
<path id= "3" d=" M 0.6 0.5 L 2.7 0.5 " />
<path d="M0.6, 0.5 Q0.265503, 0.5 -4.9738e-14, 0.5 " /><path d="M0.6, 0.5 Q0.6, 0.795739 0.6, 1.07904  Q0.6, 1.2164 0.6, 1.35375  Q0.6, 1.48431 0.6, 1.61486  Q0.6, 1.73732 0.6, 1.85977  Q0.6, 1.97288 0.6, 2.086  Q0.6, 2.18864 0.6, 2.29129  Q0.6, 2.38243 0.6, 2.47357  Q0.6, 2.5523 0.6, 2.63103  Q0.6, 2.69655 0.6, 2.76206  Q0.6, 2.81372 0.6, 2.86537  Q0.6, 2.90264 0.6, 2.93991  Q0.6, 2.96243 0.6, 2.98494  Q0.6, 2.99247 0.6, 3 " /><path id= "6" d=" M 0.6 3 L 12.8 3 " />
<path d="M2.7, 0.5 L2.7, -0.5 " /><path id= "8" d=" M 0.6 -0.5 L 2.7 -0.5 " />
<path d="M0.6, -3 Q0.6, -2.99247 0.6, -2.98494  Q0.6, -2.96243 0.6, -2.93991  Q0.6, -2.90264 0.6, -2.86537  Q0.6, -2.81372 0.6, -2.76206  Q0.6, -2.69655 0.6, -2.63103  Q0.6, -2.5523 0.6, -2.47357  Q0.6, -2.38243 0.6, -2.29129  Q0.6, -2.18864 0.6, -2.086  Q0.6, -1.97288 0.6, -1.85977  Q0.6, -1.73732 0.6, -1.61486  Q0.6, -1.48431 0.6, -1.35375  Q0.6, -1.2164 0.6, -1.07904  Q0.6, -0.795739 0.6, -0.5 " /><path d="M13.8236, 2.9874 Q13.8309, 3 13.8375, 3 " /><path id= "11" d=" M 13.8375 3 L 13.9625 3 " />
<path d="M12.9625, 3 Q12.9698, 3 12.9771, 2.98741 " /><path d="M12.9771, 2.98741 C13.0163, 2.92225 13.0555, 2.57136 13.0947, 2.02366  C13.1398, 1.39784 13.1849, 0.517638 13.23, -0.328413  C13.2655, -0.994709 13.301, -1.63288 13.3365, -2.1084  C13.3785, -2.67456 13.4205, -3.00328 13.4625, -3 " /><path d="M13.4625, -3 Q13.4698, -3 13.4771, -2.98742 " /><path id= "15" d=" M 12.8 3 L 12.9625 3 " />
<path d="M0.6, -0.5 Q0.265503, -0.5 -4.9738e-14, -0.5 " /><path d="M0, -2.4 L0, -2.38867  L0, -2.35478  L0, -2.29867  L0, -2.22084  L0, -2.12205  L0, -2.00322  L0, -1.86548  L0, -1.71012  L0, -1.53861  L0, -1.35258  L0, -1.15377  L0, -0.944075  L0, -0.725463  L0, -0.5 " /><path id= "18" d=" M 14.8375 3 L 14.9625 3 " />
<path d="M13.9625, 3 Q13.9698, 3 13.9771, 2.98741 " /><path d="M13.9771, 2.98741 C14.0163, 2.92225 14.0555, 2.57136 14.0947, 2.02366  C14.1398, 1.39784 14.1849, 0.51763 14.23, -0.328423  C14.2655, -0.994463 14.301, -1.63241 14.3365, -2.10787  C14.3785, -2.67434 14.4205, -3.00328 14.4625, -3 " /><path d="M14.4625, -3 Q14.4698, -3 14.4771, -2.98742 " /><path d="M13.8375, 3 C13.876, 3.00234 13.9144, 2.72821 13.9529, 2.24473  C14.0024, 1.62934 14.0518, 0.671128 14.1013, -0.259342  C14.1361, -0.914243 14.1709, -1.54743 14.2058, -2.03022  C14.2448, -2.57422 14.2839, -2.92248 14.3229, -2.98741 " /><path d="M14.3229, -2.98741 Q14.3302, -3 14.3375, -3 " /><path d="M14.8229, 2.98741 Q14.8302, 3 14.8375, 3 " /><path id= "25" d=" M 15.8375 3 L 15.9625 3 " />
<path d="M14.9625, 3 Q14.9698, 3 14.9771, 2.98741 " /><path d="M14.9771, 2.98741 C15.0163, 2.92224 15.0555, 2.57136 15.0947, 2.02366  C15.1398, 1.39783 15.1849, 0.517621 15.23, -0.328436  C15.2655, -0.994144 15.301, -1.63179 15.3364, -2.10716  C15.3785, -2.67407 15.4205, -3.00329 15.4625, -3 " /><path d="M15.4625, -3 Q15.4698, -3 15.4771, -2.98742 " /><path d="M14.8375, 3 C14.876, 3.00234 14.9145, 2.72821 14.9529, 2.24474  C15.0024, 1.62958 15.0518, 0.671878 15.1012, -0.258261  C15.1357, -0.905988 15.1701, -1.53265 15.2046, -2.01348  C15.244, -2.56691 15.2835, -2.92188 15.3229, -2.98741 " /><path d="M15.3229, -2.98741 Q15.3302, -3 15.3375, -3 " /><path d="M15.8229, 2.98741 Q15.8302, 3 15.8375, 3 " /><path id= "32" d=" M 16.8375 3 L 16.9625 3 " />
<path d="M15.9625, 3 Q15.9698, 3 15.9771, 2.98741 " /><path d="M15.9771, 2.98741 C16.0163, 2.92224 16.0555, 2.57136 16.0947, 2.02366  C16.1398, 1.39783 16.1849, 0.517614 16.23, -0.328446  C16.2654, -0.993913 16.3009, -1.63134 16.3364, -2.10666  C16.3784, -2.67386 16.4205, -3.00329 16.4625, -3 " /><path d="M16.4625, -3 Q16.4698, -3 16.4771, -2.98741 " /><path d="M15.8375, 3 C15.876, 3.00234 15.9145, 2.72822 15.9529, 2.24474  C16.0023, 1.62986 16.0517, 0.672735 16.1011, -0.257025  C16.136, -0.91194 16.1708, -1.54532 16.2057, -2.02845  C16.2447, -2.57345 16.2838, -2.92241 16.3229, -2.98741 " /><path d="M16.3229, -2.98741 Q16.3302, -3 16.3375, -3 " /><path d="M16.8229, 2.98741 Q16.8302, 3 16.8375, 3 " /><path id= "39" d=" M 17.8375 3 L 17.9625 3 " />
<path d="M16.9625, 3 Q16.9698, 3 16.9771, 2.98741 " /><path d="M16.9771, 2.98741 C17.0163, 2.92224 17.0555, 2.57136 17.0947, 2.02366  C17.1398, 1.39783 17.1849, 0.517606 17.23, -0.328457  C17.2654, -0.993624 17.3009, -1.63078 17.3364, -2.10603  C17.3784, -2.67361 17.4205, -3.0033 17.4625, -3 " /><path d="M17.4625, -3 Q17.4698, -3 17.4771, -2.98741 " /><path d="M16.8375, 3 C16.876, 3.00234 16.9145, 2.72822 16.9529, 2.24475  C17.0026, 1.62608 17.0524, 0.66075 17.1021, -0.274331  C17.1362, -0.915625 17.1703, -1.53516 17.2045, -2.01181  C17.2439, -2.56618 17.2834, -2.92182 17.3229, -2.98741 " /><path d="M17.3229, -2.98741 Q17.3302, -3 17.3375, -3 " /><path d="M17.8229, 2.98741 Q17.8302, 3 17.8375, 3 " /><path id= "46" d=" M 18.8375 3 L 18.9625 3 " />
<path d="M17.9625, 3 Q17.9698, 3 17.9771, 2.98741 " /><path d="M17.9771, 2.98741 C18.0163, 2.92224 18.0555, 2.57136 18.0947, 2.02366  C18.1398, 1.39782 18.1849, 0.517602 18.23, -0.328462  C18.2654, -0.993476 18.3009, -1.63049 18.3363, -2.1057  C18.3784, -2.67348 18.4204, -3.0033 18.4625, -3 " /><path d="M18.4625, -3 Q18.4698, -3 18.4771, -2.98741 " /><path d="M17.8375, 3 C17.876, 3.00234 17.9145, 2.72822 17.9529, 2.24475  C18.0026, 1.6264 18.0523, 0.661763 18.102, -0.272874  C18.1366, -0.922837 18.1712, -1.55046 18.2058, -2.02989  C18.2448, -2.57408 18.2839, -2.92247 18.3229, -2.98741 " /><path d="M18.3229, -2.98741 Q18.3302, -3 18.3375, -3 " /><path d="M18.8229, 2.98741 Q18.8302, 3 18.8375, 3 " /><path d="M19.4, -3 Q19.4, -2.99834 19.4, -2.77164 " /><path d="M18.9625, 3 Q18.9698, 3 18.9771, 2.98741 " /><path d="M18.9771, 2.98741 C19.0163, 2.92224 19.0555, 2.57136 19.0947, 2.02366  C19.122, 1.64362 19.1493, 1.17221 19.1767, 0.669723  C19.2299, -0.30928 19.2831, -1.39309 19.3363, -2.10457  C19.3575, -2.3932 19.3788, -2.61556 19.4, -2.77164 " /><path d="M18.8375, 3 C18.876, 3.00234 18.9145, 2.72822 18.9529, 2.24476  C19.0026, 1.62673 19.0523, 0.662795 19.1019, -0.271389  C19.1365, -0.920569 19.171, -1.54758 19.2056, -2.02699  C19.2447, -2.57282 19.2838, -2.92236 19.3229, -2.98741 " /><path d="M19.3229, -2.98741 Q19.3302, -3 19.3375, -3 " /><path d="M19.6774, 2.72264 Q19.6723, 2.72772 19.6672, 2.71898 " /><path id= "59" d=" M 19.6774 2.72264 L 20 2.4 " />
<path d="M19.4, -2.77164 Q19.4725, -2.92698 19.5479, -2.85212 " /><path d="M19.5479, -2.85212 Q19.5662, -2.83382 19.5846, -2.80197 " /><path d="M19.9854, -2.41456 L19.9818, -2.41485 " /><path d="M19.9818, -2.41485 Q19.9649, -2.39908 19.9413, -2.12615 " /><path d="M19.6774, 2.72264 C19.6994, 2.7021 19.7216, 2.4785 19.7441, 2.09666  C19.7657, 1.73119 19.7875, 1.22149 19.8095, 0.668555  C19.8311, 0.126864 19.853, -0.452901 19.875, -0.954984  C19.8969, -1.4542 19.9189, -1.87334 19.9413, -2.12615 " /><path d="M20, -2.4 L20, -2.33983  L20, -2.16233  L20, -1.8764  L20, -1.49638  L20, -1.04132  L20, -0.53405  L20, -4.44089e-16  L20, 0.53405  L20, 1.04132  L20, 1.49638  L20, 1.8764  L20, 2.16233  L20, 2.33983  L20, 2.4 " /></g>

</svg>
