<svg xmlns="http://www.w3.org/2000/svg" viewBox="-2.4139532 -3.4766432 5.8905964 6.9113264">
<rect width="100%" height="100%" fill="white"/>
<g   fill="none"
   stroke="rgb(0, 0, 0)"
   stroke-linecap="butt"
   stroke-linejoin="miter"
   stroke-width="0.35"
   transform="scale(1, -1)"
  >
<path d="M2.4 0 A2.4 2.4 0 0 1 0.5 2.34734" /><path d="M0.5 -2.34734 A2.4 2.4 0 0 1 2.4 -5.8783e-16" /><path id= "3" d=" M 0.5 2.34734 L 0.5 -2.34734 " />
<path d="M3 0 A3 3 0 0 1 0.5 2.95804" /><path d="M0.5, 2.34734 Q0.5, 2.6188 0.5, 2.95804 " /><path d="M0.5, -2.95804 Q0.5, -2.6188 0.5, -2.34734 " /><path d="M0.5 -2.95804 A3 3 0 0 1 3 -7.34788e-16" /><path d="M0.5 -2.95804 A3 3 0 0 0 -0.5 -2.95804" /><path d="M-0.5 2.95804 A3 3 0 0 1 -0.5 -2.95804" /><path d="M-0.5 2.95804 A3 3 0 0 0 0.5 2.95804" /><path d="M-1.91984, 2.30526 C-2.10247, 2.15411 -2.26621, 1.9769 -2.38722, 1.81691  C-2.45352, 1.73037 -2.50988, 1.64334 -2.51012, 1.64295 " /><path d="M-1.93731, 2.2906 L-1.91978, 2.30531 " /><path d="M-0.5, 2.34734 Q-0.5, 2.6188 -0.5, 2.95804 " /><path id= "14" d=" M -0.5 2.34734 L -0.5 -2.34734 " />
<path d="M-0.5, -2.95804 Q-0.5, -2.6188 -0.5, -2.34734 " /><path d="M-0.5 2.34734 A2.4 2.4 0 0 1 -0.5 -2.34734" /><path d="M-0.485974, 2.96038 L-0.414917, 2.97117 " /><path d="M-0.0883029, 2.9987 L-0.00218981, 3 " /><path d="M0.599709, 2.93945 Q0.793813, 2.89983 0.981025, 2.83506 " /><path d="M1.55664, 2.56454 L1.59516, 2.54076 " /><path d="M1.88578, 2.33321 L1.89078, 2.32915 " /><path d="M2.30869, 1.91571 L2.36187, 1.84975 " /><path d="M2.56681, 1.5529 Q2.66772, 1.38607 2.74622, 1.20759 " /><path d="M2.85306, 0.927393 L2.85583, 0.918824 " /><path d="M2.97401, 0.394027 L2.97733, 0.368102 " /><path d="M-0.491433, 2.95948 L-0.470964, 2.9628 " /><path d="M-0.0643521, 2.99931 L0.0145038, 2.99996 " /><path d="M0.614934, 2.9363 Q0.794021, 2.89878 0.967223, 2.8398 " /><path d="M1.5429, 2.57283 L1.57488, 2.55338 " /><path d="M1.88827, 2.33119 L1.89241, 2.32783 " /><path d="M2.33581, 1.88255 Q2.4126, 1.78727 2.48137, 1.68606 " /><path d="M2.56625, 1.55383 Q2.65986, 1.3992 2.73425, 1.23446 " /><path d="M2.85249, 0.929154 L2.85544, 0.920033 " /><path d="M2.9668, 0.445113 Q2.99205, 0.276719 2.99811, 0.106549 " /><path d="M3, 0.000505141 L3, 6.23812e-12 " /><path d="M-0.477154, 2.96181 L-0.473343, 2.96242 " /><path d="M0.614942, 2.9363 Q0.956633, 2.86459 1.27283, 2.7166 " /><path d="M1.54291, 2.57283 L1.57488, 2.55338 " /><path d="M2.33581, 1.88255 L2.37831, 1.82856 " /><path d="M2.56625, 1.55383 Q2.67018, 1.38215 2.75035, 1.19816 " /><path d="M2.85544, 0.920033 L2.85837, 0.910903 " /><path d="M2.97564, 0.381513 L2.98313, 0.317748 " /><path d="M3, 0.00050514 L3, 3.50742e-12 " /></g>

</svg>
