<svg xmlns="http://www.w3.org/2000/svg" viewBox="-2.56 -6.96 3.52 13.92">
<rect width="100%" height="100%" fill="white"/>
<g   fill="none"
   stroke="rgb(165, 165, 165)"
   stroke-dasharray="1.2,0.8"
   stroke-linecap="butt"
   stroke-linejoin="miter"
   stroke-width="0.25"
   transform="scale(1, -1)"
  >
<path d="M-1.6, 3.2 L-1.6, 3.11977  L-1.6, 2.8831  L-1.6, 2.50186  L-1.6, 1.99517  L-1.6, 1.38843  L-1.6, 0.712067  L-1.6, 2.22045e-16  L-1.6, -0.712067  L-1.6, -1.38843  L-1.6, -1.99517  L-1.6, -2.50186  L-1.6, -2.8831  L-1.6, -3.11977  L-1.6, -3.2 " /><path d="M-1.6, -3.2 L-1.6, -3.11977  L-1.6, -2.8831  L-1.6, -2.50186  L-1.6, -1.99517  L-1.6, -1.38843  L-1.6, -0.712067  L-1.6, -5.55112e-16  L-1.6, 0.712067  L-1.6, 1.38843  L-1.6, 1.99517  L-1.6, 2.50186  L-1.6, 2.8831  L-1.6, 3.11977  L-1.6, 3.2 " /><path d="M-1.6, 6 L-1.6, 5.84957  L-1.6, 5.40581  L-1.6, 4.69099  L-1.6, 3.74094  L-1.6, 2.6033  L-1.6, 1.33513  L-1.6, 4.44089e-16  L-1.6, -1.33513  L-1.6, -2.6033  L-1.6, -3.74094  L-1.6, -4.69099  L-1.6, -5.40581  L-1.6, -5.84957  L-1.6, -6 " /><path d="M0, 6 L0, 5.84957  L0, 5.40581  L0, 4.69099  L0, 3.74094  L0, 2.6033  L0, 1.33513  L0, 4.44089e-16  L0, -1.33513  L0, -2.6033  L0, -3.74094  L0, -4.69099  L0, -5.40581  L0, -5.84957  L0, -6 " /><path d="M0, 3.2 L0, 3.11977  L0, 2.8831  L0, 2.50186  L0, 1.99517  L0, 1.38843  L0, 0.712067  L0, 2.22045e-16  L0, -0.712067  L0, -1.38843  L0, -1.99517  L0, -2.50186  L0, -2.8831  L0, -3.11977  L0, -3.2 " /><path d="M0, -3.2 L0, -3.11977  L0, -2.8831  L0, -2.50186  L0, -1.99517  L0, -1.38843  L0, -0.712067  L0, -5.55112e-16  L0, 0.712067  L0, 1.38843  L0, 1.99517  L0, 2.50186  L0, 2.8831  L0, 3.11977  L0, 3.2 " /><path id= "7" d=" M 0 3.2 L -1.6 3.2 " />
</g>
<g   fill="none"
   stroke="rgb(165, 165, 165)"
   stroke-dasharray="1.2,0.8"
   stroke-linecap="butt"
   stroke-linejoin="miter"
   stroke-width="0.25"
   transform="scale(1, -1)"
  >
<path id= "1" d=" M 0 -3.2 L -1.6 -3.2 " />
</g>
<g   fill="none"
   stroke="rgb(0, 0, 0)"
   stroke-linecap="butt"
   stroke-linejoin="miter"
   stroke-width="0.35"
   transform="scale(1, -1)"
  >
<path id= "1" d=" M -1.6 -6 L 0 -6 " />
</g>
<g   fill="none"
   stroke="rgb(0, 0, 0)"
   stroke-linecap="butt"
   stroke-linejoin="miter"
   stroke-width="0.35"
   transform="scale(1, -1)"
  >
<path d="M-1.6, -6 L-1.6, -5.84957  L-1.6, -5.40581  L-1.6, -4.69099  L-1.6, -3.74094  L-1.6, -2.6033  L-1.6, -1.33513  L-1.6, -1.11022e-15  L-1.6, 1.33513  L-1.6, 2.6033  L-1.6, 3.74094  L-1.6, 4.69099  L-1.6, 5.40581  L-1.6, 5.84957  L-1.6, 6 " /><path id= "2" d=" M -1.6 6 L 0 6 " />
<path d="M0, -6 L0, -5.84957  L0, -5.40581  L0, -4.69099  L0, -3.74094  L0, -2.6033  L0, -1.33513  L0, -1.11022e-15  L0, 1.33513  L0, 2.6033  L0, 3.74094  L0, 4.69099  L0, 5.40581  L0, 5.84957  L0, 6 " /></g>

</svg>
