<svg xmlns="http://www.w3.org/2000/svg" viewBox="-2.56 -6.96 3.52 13.92">
<rect width="100%" height="100%" fill="white"/>
<g   fill="none"
   stroke="rgb(0, 0, 0)"
   stroke-linecap="butt"
   stroke-linejoin="miter"
   stroke-width="0.35"
   transform="scale(1, -1)"
  >
<path id= "1" d=" M -1.6 -6 L 0 -6 " />
</g>
<g   fill="none"
   stroke="rgb(0, 0, 0)"
   stroke-linecap="butt"
   stroke-linejoin="miter"
   stroke-width="0.35"
   transform="scale(1, -1)"
  >
<path d="M-1.6, -6 L-1.6, -5.84957  L-1.6, -5.40581  L-1.6, -4.69099  L-1.6, -3.74094  L-1.6, -2.6033  L-1.6, -1.33513  L-1.6, -1.11022e-15  L-1.6, 1.33513  L-1.6, 2.6033  L-1.6, 3.74094  L-1.6, 4.69099  L-1.6, 5.40581  L-1.6, 5.84957  L-1.6, 6 " /><path id= "2" d=" M -1.6 6 L 0 6 " />
<path d="M0, -6 L0, -5.84957  L0, -5.40581  L0, -4.69099  L0, -3.74094  L0, -2.6033  L0, -1.33513  L0, -1.11022e-15  L0, 1.33513  L0, 2.6033  L0, 3.74094  L0, 4.69099  L0, 5.40581  L0, 5.84957  L0, 6 " /></g>

</svg>
