<svg xmlns="http://www.w3.org/2000/svg" viewBox="-1.6 -4.6 23.2 9.2">
<rect width="100%" height="100%" fill="white"/>
<g   fill="none"
   stroke="rgb(0, 0, 0)"
   stroke-linecap="butt"
   stroke-linejoin="miter"
   stroke-width="0.35"
   transform="scale(1, -1)"
  >
<path id= "1" d=" M -4.10389e-17 -2.67846 L 1.2 -3 " />
<path id= "2" d=" M 1.2 -3 L 18.8 -3 " />
<path id= "3" d=" M 20 -2.67846 L 18.8 -3 " />
</g>
<g   fill="none"
   stroke="rgb(0, 0, 0)"
   stroke-linecap="butt"
   stroke-linejoin="miter"
   stroke-width="0.35"
   transform="scale(1, -1)"
  >
<path d="M0, -2.67846 L0, -2.61131  L0, -2.41321  L0, -2.09411  L0, -1.66999  L0, -1.16214  L0, -0.596014  L0, -4.44089e-16  L0, 0.596014  L0, 1.16214  L0, 1.66999  L0, 2.09411  L0, 2.41321  L0, 2.61131  L0, 2.67846 " /><path id= "2" d=" M 0 2.67846 L 1.2 3 " />
<path d="M1.2, -3 L1.2, -2.92478  L1.2, -2.70291  L1.2, -2.34549  L1.2, -1.87047  L1.2, -1.30165  L1.2, -0.667563  L1.2, -5.55112e-16  L1.2, 0.667563  L1.2, 1.30165  L1.2, 1.87047  L1.2, 2.34549  L1.2, 2.70291  L1.2, 2.92478  L1.2, 3 " /><path id= "4" d=" M 1.2 3 L 18.8 3 " />
<path d="M18.8, -3 L18.8, -2.92478  L18.8, -2.70291  L18.8, -2.34549  L18.8, -1.87047  L18.8, -1.30165  L18.8, -0.667563  L18.8, -5.55112e-16  L18.8, 0.667563  L18.8, 1.30165  L18.8, 1.87047  L18.8, 2.34549  L18.8, 2.70291  L18.8, 2.92478  L18.8, 3 " /><path id= "6" d=" M 18.8 3 L 20 2.67846 " />
<path d="M20, -2.67846 L20, -2.61131  L20, -2.41321  L20, -2.09411  L20, -1.66999  L20, -1.16214  L20, -0.596014  L20, -4.44089e-16  L20, 0.596014  L20, 1.16214  L20, 1.66999  L20, 2.09411  L20, 2.41321  L20, 2.61131  L20, 2.67846 " /></g>

</svg>
