<svg xmlns="http://www.w3.org/2000/svg" viewBox="-6.953504 -6.953504 13.907008 13.907008">
<rect width="100%" height="100%" fill="white"/>
<g   fill="none"
   stroke="rgb(0, 0, 0)"
   stroke-linecap="butt"
   stroke-linejoin="miter"
   stroke-width="0.35"
   transform="scale(1, -1)"
  >
<path d="M2.3656 -1.75816 A6.25629 0.491369 128.519 0 1 1.79365 -0.99" />
<path d="M1.75816 -2.3656 A2.9474 2.9474 0 0 1 2.3656 -1.75816" /><path d="M0.99 -1.79365 A6.25629 0.491369 -38.5192 0 1 1.75816 -2.3656" />
<path d="M-1.1785e-13 -1.50862 A6.206 0.595108 -16.9194 0 1 0.99 -1.79365" />
<path d="M-0.99 -1.79365 A6.206 0.595108 16.9194 0 1 1.15602e-13 -1.50862" />
<path d="M-1.75816 -2.3656 A6.25629 0.491369 38.5192 0 1 -0.99 -1.79365" />
<path d="M-2.3656 -1.75816 A2.9474 2.9474 0 0 1 -1.75816 -2.3656" /><path d="M-1.79365 -0.99 A6.25629 0.491369 -128.519 0 1 -2.3656 -1.75816" />
<path d="M-1.50862 1.17822e-13 A6.206 0.595108 -106.919 0 1 -1.79365 -0.99" />
<path d="M-1.79365 0.99 A6.206 0.595108 -73.0806 0 1 -1.50862 -1.15602e-13" />
<path d="M-2.3656 1.75816 A6.25629 0.491369 -51.4808 0 1 -1.79365 0.99" />
<path d="M-1.75816 2.3656 A2.9474 2.9474 0 0 1 -2.3656 1.75816" /><path d="M-0.99 1.79365 A6.25629 0.491369 141.481 0 1 -1.75816 2.3656" />
<path d="M1.1785e-13 1.50862 A6.206 0.595108 163.081 0 1 -0.99 1.79365" />
<path d="M0.99 1.79365 A6.206 0.595108 -163.081 0 1 -1.15602e-13 1.50862" />
<path d="M1.75816 2.3656 A6.25629 0.491369 -141.481 0 1 0.99 1.79365" />
<path d="M2.3656 1.75816 A2.9474 2.9474 0 0 1 1.75816 2.3656" /><path d="M1.79365 0.99 A6.25629 0.491369 51.4808 0 1 2.3656 1.75816" />
<path d="M1.50862 -1.17822e-13 A6.206 0.595108 73.0806 0 1 1.79365 0.99" />
<circle cx ="0" cy ="0" r ="5.9944" /><path d="M1.79365 -0.99 A6.206 0.595108 106.919 0 1 1.50862 1.15574e-13" />
<path id= "22" d=" M 1.79365 -0.99 L 1.53964 -0.99 " />
<path id= "23" d=" M 1.50862 0 L 1.205 0 " />
<path d="M1.53964, -0.99 C1.39439, -0.573499 1.29292, -0.273325 1.205, -4.75591e-14 " /><path d="M2.3656, -1.75816 C2.04568, -1.46567 1.79575, -1.23694 1.59036, -1.04871 " /><path d="M1.59036, -1.04871 L1.53964, -0.99 " /><path d="M1.04871, -1.59036 C1.23694, -1.79575 1.46567, -2.04568 1.75816, -2.3656 " /><path d="M1.04871 -1.59036 A1.905 1.905 0 0 1 1.59036 -1.04871" /><path id= "29" d=" M 0.99 -1.79365 L 0.99 -1.53964 " />
<path d="M0.99, -1.53964 L1.04871, -1.59036 " /><path id= "31" d=" M -3.34981e-16 -1.50862 L -2.67564e-16 -1.205 " />
<path d="M4.72955e-14, -1.205 C0.273325, -1.29292 0.573499, -1.39439 0.99, -1.53964 " /><path id= "33" d=" M -0.99 -1.79365 L -0.99 -1.53964 " />
<path d="M-0.99, -1.53964 C-0.573499, -1.39439 -0.273325, -1.29292 -4.77396e-14, -1.205 " /><path d="M-1.75816, -2.3656 C-1.46567, -2.04568 -1.23694, -1.79575 -1.04871, -1.59036 " /><path d="M-1.04871, -1.59036 L-0.99, -1.53964 " /><path d="M-1.59036, -1.04871 C-1.79575, -1.23694 -2.04568, -1.46567 -2.3656, -1.75816 " /><path d="M-1.59036 -1.04871 A1.905 1.905 0 0 1 -1.04871 -1.59036" /><path id= "39" d=" M -1.79365 -0.99 L -1.53964 -0.99 " />
<path d="M-1.53964, -0.99 L-1.59036, -1.04871 " /><path id= "41" d=" M -1.50862 1.84753e-16 L -1.205 1.4757e-16 " />
<path d="M-1.205, -4.72955e-14 C-1.29292, -0.273325 -1.39439, -0.573499 -1.53964, -0.99 " /><path id= "43" d=" M -1.79365 0.99 L -1.53964 0.99 " />
<path d="M-1.53964, 0.99 C-1.39439, 0.573499 -1.29292, 0.273325 -1.205, 4.77396e-14 " /><path d="M-2.3656, 1.75816 C-2.04568, 1.46567 -1.79575, 1.23694 -1.59036, 1.04871 " /><path d="M-1.59036, 1.04871 L-1.53964, 0.99 " /><path d="M-1.04871, 1.59036 C-1.23694, 1.79575 -1.46567, 2.04568 -1.75816, 2.3656 " /><path d="M-1.04871 1.59036 A1.905 1.905 0 0 1 -1.59036 1.04871" /><path id= "49" d=" M -0.99 1.79365 L -0.99 1.53964 " />
<path d="M-0.99, 1.53964 L-1.04871, 1.59036 " /><path id= "51" d=" M 1.6749e-16 1.50862 L 1.33782e-16 1.205 " />
<path d="M-4.72955e-14, 1.205 C-0.273325, 1.29292 -0.573499, 1.39439 -0.99, 1.53964 " /><path id= "53" d=" M 0.99 1.79365 L 0.99 1.53964 " />
<path d="M0.99, 1.53964 C0.573499, 1.39439 0.273325, 1.29292 4.77396e-14, 1.205 " /><path d="M1.75816, 2.3656 C1.46567, 2.04568 1.23694, 1.79575 1.04871, 1.59036 " /><path d="M1.04871, 1.59036 L0.99, 1.53964 " /><path d="M1.59036, 1.04871 C1.79575, 1.23694 2.04568, 1.46567 2.3656, 1.75816 " /><path d="M1.59036 1.04871 A1.905 1.905 0 0 1 1.04871 1.59036" /><path id= "59" d=" M 1.79365 0.99 L 1.53964 0.99 " />
<path d="M1.53964, 0.99 L1.59036, 1.04871 " /><path d="M1.205, 4.78004e-14 C1.29292, 0.273325 1.39439, 0.573499 1.53964, 0.99 " /></g>

</svg>
