<svg xmlns="http://www.w3.org/2000/svg" viewBox="-4.318136 -6.386176 21.650472 18.210012">
<rect width="100%" height="100%" fill="white"/>
<g   fill="none"
   stroke="rgb(0, 0, 0)"
   stroke-linecap="butt"
   stroke-linejoin="miter"
   stroke-width="0.35"
   transform="scale(1, -1)"
  >
<path id= "1" d=" M 14.1421 -10.1246 L 13.8483 -10.2942 " />
<path id= "2" d=" M 15.2179 -5.32194 L 15.1585 -5.28767 " />
<path id= "3" d=" M 11.8933 -10.3307 L 11.805 -10.2797 " />
<path id= "4" d=" M 14.5398 -4.93045 L 14.4514 -4.87942 " />
<path id= "5" d=" M 11.1862 -9.92248 L 11.0978 -9.87145 " />
<path id= "6" d=" M 13.8327 -4.5222 L 13.7443 -4.47117 " />
<path id= "7" d=" M 10.4791 -9.51423 L 10.3907 -9.4632 " />
<path id= "8" d=" M 13.1256 -4.11396 L 13.0372 -4.06292 " />
<path id= "9" d=" M 9.77203 -9.10599 L 9.68363 -9.05495 " />
<path id= "10" d=" M 12.4185 -3.70571 L 12.3301 -3.65467 " />
<path id= "11" d=" M 9.06492 -8.69774 L 8.97652 -8.6467 " />
<path id= "12" d=" M 11.7114 -3.29746 L 11.623 -3.24642 " />
<path id= "13" d=" M 8.35782 -8.28949 L 8.26941 -8.23845 " />
<path id= "14" d=" M 11.0043 -2.88921 L 10.9159 -2.83817 " />
<path id= "15" d=" M 7.65071 -7.88124 L 7.5623 -7.8302 " />
<path id= "16" d=" M 10.2972 -2.48096 L 10.2088 -2.42992 " />
<path id= "17" d=" M 6.9436 -7.47299 L 6.8552 -7.42195 " />
<path id= "18" d=" M 9.59005 -2.07272 L 9.50164 -2.02167 " />
<path id= "19" d=" M 6.2365 -7.06474 L 6.14809 -7.0137 " />
<path id= "20" d=" M 8.88294 -1.66447 L 8.79453 -1.61342 " />
<path id= "21" d=" M 5.52939 -6.6565 L 5.44098 -6.60545 " />
<path id= "22" d=" M 8.17583 -1.25622 L 8.08743 -1.20518 " />
<path id= "23" d=" M 4.82228 -6.24825 L 4.73387 -6.1972 " />
<path id= "24" d=" M 7.46873 -0.847971 L 7.38032 -0.796926 " />
<path id= "25" d=" M 4.11518 -5.84 L 4.02676 -5.78895 " />
<path id= "26" d=" M 6.76162 -0.439723 L 6.67321 -0.388677 " />
<path id= "27" d=" M 3.40807 -5.43175 L 3.31965 -5.3807 " />
<path id= "28" d=" M 6.05452 -0.0314745 L 5.9661 0.019572 " />
<path id= "29" d=" M 2.70096 -5.0235 L 2.61254 -4.97246 " />
<path id= "30" d=" M 5.34741 0.376774 L 5.25899 0.427821 " />
<path id= "31" d=" M 1.99386 -4.61526 L 1.90544 -4.56421 " />
<path id= "32" d=" M 4.6403 0.785022 L 4.5234 0.852514 " />
<path id= "33" d=" M 2.28168 -3.8266 L 0.459619 -4.87857 " />
<path id= "34" d=" M 3.28462 4.62768 L 2.825 4.89304 " />
<path id= "35" d=" M -2.36538 -5.1584 L -2.825 -4.89304 " />
<path id= "36" d=" M 1.96533 1.02353 L 1.33685 1.38638 " />
<path id= "37" d=" M 0.837682 0.745464 L -0.566937 1.55642 " />
<path id= "38" d=" M -0.377892 -1.94004 L -1.33685 -1.38638 " />
<path id= "39" d=" M 0.614553 -1.58391 L 0.566937 -1.55642 " />
</g>
<g   fill="none"
   stroke="rgb(0, 0, 0)"
   stroke-linecap="butt"
   stroke-linejoin="miter"
   stroke-width="0.35"
   transform="scale(1, -1)"
  >
<path d="M14.1421 -10.1246 A2.4 1.38564 60 0 1 15.7306 -7.93775" />
<path d="M15.8278, -7.29105 Q15.8152, -7.60361 15.7306, -7.93775 " /><path d="M15.7306, -7.93775 C15.7162, -7.98746 15.7032, -8.02874 15.6915, -8.0616  C15.6769, -8.10294 15.6725, -8.10867 15.6834, -8.06824 " /><path d="M15.6834, -8.06824 Q15.6922, -8.03568 15.706, -7.98488 " /><path d="M15.8392, -7.01607 C15.8393, -7.32956 15.7929, -7.6608 15.706, -7.98488 " /><path id= "6" d=" M 15.8392 -7.01607 L 15.8392 -6.71652 " />
<path d="M15.8392, -6.71652 C15.8403, -7.26429 15.6847, -7.89408 15.4063, -8.47803  C15.0351, -9.26707 14.4397, -9.95711 13.8483, -10.2942 " /><path d="M13.8483, -10.2942 C13.3772, -10.5681 12.9166, -10.6176 12.5899, -10.4304 " /><path d="M15.769 -6.11107 A3 1.73205 60 0 1 15.2179 -5.32194" />
<path d="M15.8392, -6.71652 Q15.8391, -6.38998 15.769, -6.11107 " /><path d="M15.2495, -6.35481 C15.2835, -7.05038 15.0576, -7.89005 14.6526, -8.61564  C14.4032, -9.06616 14.0892, -9.4715 13.7532, -9.78125  C13.5328, -9.9843 13.31, -10.1431 13.085, -10.2576  C12.635, -10.4877 12.2052, -10.5128 11.8933, -10.3307 " /><path d="M15.1611, -6.30378 C15.19, -6.91141 15.0234, -7.62883 14.7087, -8.28427  C14.4878, -8.74746 14.196, -9.17824 13.8725, -9.52351  C13.6054, -9.80934 13.3174, -10.0367 13.035, -10.1866  C12.5712, -10.4348 12.1256, -10.4671 11.805, -10.2797 " /><path d="M11.805, -10.2797 Q11.6482, -10.1891 11.5334, -10.0356 " /><path d="M14.8213, -5.15728 Q15.0025, -5.19765 15.1585, -5.28767 " /><path d="M15.1585, -5.28767 C15.4425, -5.45084 15.6546, -5.73759 15.769, -6.11107 " /><path d="M14.5424, -5.94657 C14.5763, -6.64213 14.3505, -7.48181 13.9455, -8.2074  C13.6961, -8.65792 13.3821, -9.06326 13.0461, -9.37301  C12.8256, -9.57606 12.6029, -9.73485 12.3779, -9.84937  C11.9279, -10.0795 11.4981, -10.1046 11.1862, -9.92248 " /><path d="M14.5398, -4.93045 C14.9641, -5.17175 15.2223, -5.69437 15.2495, -6.35481 " /><path d="M14.454, -5.89553 C14.4829, -6.50316 14.3162, -7.22059 14.0016, -7.87602  C13.7807, -8.33922 13.4888, -8.77001 13.1654, -9.11527  C12.898, -9.40145 12.6096, -9.62905 12.3269, -9.77893  C11.8634, -10.0266 11.4183, -10.0587 11.0978, -9.87145 " /><path d="M11.0978, -9.87145 Q10.9411, -9.7808 10.8263, -9.62735 " /><path d="M14.1142, -4.74903 Q14.2953, -4.7894 14.4514, -4.87942 " /><path d="M14.4514, -4.87942 C14.8757, -5.12072 15.1339, -5.64334 15.1611, -6.30378 " /><path d="M13.8353, -5.53832 C13.8692, -6.23388 13.6434, -7.07356 13.2384, -7.79915  C12.989, -8.24967 12.675, -8.65501 12.339, -8.96476  C12.1185, -9.1678 11.8958, -9.32659 11.6708, -9.44112  C11.2208, -9.67122 10.791, -9.69634 10.4791, -9.51423 " /><path d="M13.8327, -4.5222 C14.257, -4.7635 14.5152, -5.28612 14.5424, -5.94657 " /><path d="M13.7469, -5.48728 C13.7758, -6.09491 13.6091, -6.81234 13.2945, -7.46778  C13.0736, -7.93098 12.7817, -8.36177 12.4583, -8.70704  C12.1905, -8.99359 11.9017, -9.22141 11.6186, -9.37128  C11.1556, -9.61843 10.7109, -9.65033 10.3907, -9.4632 " /><path d="M10.3907, -9.4632 Q10.234, -9.37255 10.1192, -9.2191 " /><path d="M13.4071, -4.34078 Q13.5882, -4.38115 13.7443, -4.47117 " /><path d="M13.7443, -4.47117 C14.1686, -4.71247 14.4268, -5.23509 14.454, -5.89553 " /><path d="M13.1282, -5.13007 C13.1621, -5.82563 12.9362, -6.66531 12.5313, -7.3909  C12.2819, -7.84141 11.9679, -8.24676 11.6319, -8.55651  C11.4114, -8.75955 11.1887, -8.91833 10.9637, -9.03286  C10.5137, -9.26297 10.0839, -9.28809 9.77203, -9.10599 " /><path d="M13.1256, -4.11396 C13.5499, -4.35526 13.8081, -4.87787 13.8353, -5.53832 " /><path d="M13.0398, -5.07903 C13.0686, -5.68666 12.902, -6.4041 12.5874, -7.05954  C12.3665, -7.52274 12.0746, -7.95353 11.7512, -8.2988  C11.487, -8.58143 11.2025, -8.80695 10.9231, -8.95685  C10.4559, -9.20954 10.0065, -9.24369 9.68363, -9.05495 " /><path d="M9.68363, -9.05495 Q9.52688, -8.9643 9.41209, -8.81085 " /><path d="M12.7, -3.93253 Q12.8811, -3.9729 13.0372, -4.06292 " /><path d="M13.0372, -4.06292 C13.4615, -4.30422 13.7197, -4.82684 13.7469, -5.48728 " /><path d="M12.4211, -4.72182 C12.455, -5.41738 12.2291, -6.25706 11.8242, -6.98265  C11.5748, -7.43316 11.2607, -7.83851 10.9248, -8.14826  C10.7043, -8.35129 10.4816, -8.51008 10.2566, -8.6246  C9.80657, -8.85472 9.3768, -8.87985 9.06492, -8.69774 " /><path d="M12.4185, -3.70571 C12.8428, -3.94701 13.101, -4.46963 13.1282, -5.13007 " /><path d="M12.3327, -4.67078 C12.3615, -5.27842 12.1949, -5.99585 11.8803, -6.65129  C11.6594, -7.1145 11.3675, -7.54529 11.0441, -7.89056  C10.7797, -8.17344 10.4948, -8.39912 10.2152, -8.54901  C9.74832, -8.80134 9.29918, -8.83533 8.97652, -8.6467 " /><path d="M8.97652, -8.6467 Q8.81978, -8.55605 8.70498, -8.4026 " /><path d="M11.9929, -3.52428 Q12.174, -3.56465 12.3301, -3.65467 " /><path d="M12.3301, -3.65467 C12.7544, -3.89597 13.0126, -4.41859 13.0398, -5.07903 " /><path d="M11.714, -4.31357 C11.7479, -5.00914 11.522, -5.84881 11.117, -6.5744  C10.8677, -7.02492 10.5536, -7.43026 10.2177, -7.74001  C9.99723, -7.94305 9.77452, -8.10183 9.54953, -8.21636  C9.09946, -8.44647 8.66969, -8.4716 8.35782, -8.28949 " /><path d="M11.7114, -3.29746 C12.1357, -3.53876 12.3939, -4.06138 12.4211, -4.72182 " /><path d="M11.6256, -4.26253 C11.6544, -4.87017 11.4878, -5.58761 11.1732, -6.24305  C10.9522, -6.70626 10.6604, -7.13706 10.3369, -7.48232  C10.0724, -7.76543 9.78725, -7.99124 9.50744, -8.14113  C9.04077, -8.39313 8.59192, -8.42699 8.26941, -8.23845 " /><path d="M8.26941, -8.23845 Q8.11267, -8.14781 7.99787, -7.99435 " /><path d="M11.2858, -3.11603 Q11.4669, -3.1564 11.623, -3.24642 " /><path d="M11.623, -3.24642 C12.0473, -3.48772 12.3055, -4.01034 12.3327, -4.67078 " /><path d="M11.0069, -3.90533 C11.0408, -4.60089 10.8149, -5.44056 10.4099, -6.16615  C10.1605, -6.61667 9.84654, -7.02201 9.51055, -7.33176  C9.29012, -7.5348 9.06741, -7.69358 8.84242, -7.80811  C8.39235, -8.03822 7.96258, -8.06335 7.65071, -7.88124 " /><path d="M11.0043, -2.88921 C11.4286, -3.13051 11.6868, -3.65313 11.714, -4.31357 " /><path d="M10.9185, -3.85429 C10.9473, -4.46192 10.7807, -5.17936 10.466, -5.83481  C10.2451, -6.29802 9.95326, -6.72882 9.62981, -7.07409  C9.36501, -7.35744 9.07964, -7.58339 8.79959, -7.73328  C8.33319, -7.98492 7.88464, -8.01863 7.5623, -7.8302 " /><path d="M7.5623, -7.8302 Q7.40556, -7.73956 7.29077, -7.5861 " /><path d="M10.5787, -2.70778 Q10.7598, -2.74815 10.9159, -2.83817 " /><path d="M10.9159, -2.83817 C11.3402, -3.07947 11.5984, -3.60209 11.6256, -4.26253 " /><path d="M10.2998, -3.49708 C10.3337, -4.19264 10.1078, -5.03231 9.70284, -5.7579  C9.45344, -6.20842 9.13943, -6.61376 8.80345, -6.92351  C8.58302, -7.12655 8.36032, -7.28533 8.13533, -7.39985  C7.68525, -7.62998 7.25548, -7.6551 6.9436, -7.47299 " /><path d="M10.2972, -2.48096 C10.7215, -2.72226 10.9797, -3.24488 11.0069, -3.90533 " /><path d="M10.2114, -3.44604 C10.2402, -4.05367 10.0736, -4.77112 9.75893, -5.42656  C9.53801, -5.88978 9.24614, -6.32058 8.92269, -6.66585  C8.65766, -6.94944 8.37203, -7.17553 8.09175, -7.32542  C7.62561, -7.57671 7.17737, -7.61028 6.85519, -7.42195 " /><path d="M6.85519, -7.42195 Q6.69845, -7.33131 6.58366, -7.17786 " /><path d="M9.87156, -2.29953 Q10.0527, -2.3399 10.2088, -2.42992 " /><path d="M10.2088, -2.42992 C10.6331, -2.67122 10.8912, -3.19384 10.9185, -3.85429 " /><path d="M9.59265, -3.08883 C9.6266, -3.78439 9.40072, -4.62406 8.99573, -5.34965  C8.74633, -5.80017 8.43233, -6.20551 8.09634, -6.51526  C7.87592, -6.7183 7.65322, -6.87707 7.42824, -6.9916  C6.97815, -7.22173 6.54838, -7.24686 6.2365, -7.06474 " /><path d="M9.59005, -2.07272 C10.0144, -2.31401 10.2726, -2.83663 10.2998, -3.49708 " /><path d="M9.50424, -3.03779 C9.53311, -3.64543 9.36648, -4.36287 9.05182, -5.01832  C8.8309, -5.48154 8.53903, -5.91234 8.21557, -6.25761  C7.95032, -6.54144 7.66443, -6.76766 7.38394, -6.91755  C6.91805, -7.1685 6.47009, -7.20194 6.14809, -7.0137 " /><path d="M6.14809, -7.0137 Q5.99134, -6.92306 5.87655, -6.76961 " /><path d="M9.16446, -1.89128 Q9.34559, -1.93165 9.50164, -2.02167 " /><path d="M9.50164, -2.02167 C9.92596, -2.26297 10.1841, -2.78559 10.2114, -3.44604 " /><path d="M8.88554, -2.68058 C8.9195, -3.37614 8.69361, -4.21581 8.28863, -4.9414  C8.03923, -5.39192 7.72522, -5.79726 7.38924, -6.10701  C7.16882, -6.31004 6.94612, -6.46882 6.72114, -6.58335  C6.27105, -6.81348 5.84127, -6.83861 5.52939, -6.6565 " /><path d="M8.88294, -1.66447 C9.30726, -1.90577 9.56545, -2.42839 9.59265, -3.08883 " /><path d="M8.79713, -2.62954 C8.826, -3.23718 8.65937, -3.95463 8.3447, -4.61008  C8.12379, -5.0733 7.83191, -5.50411 7.50845, -5.84938  C7.24297, -6.13344 6.95683, -6.35981 6.6761, -6.50969  C6.21047, -6.76029 5.76282, -6.79359 5.44098, -6.60545 " /><path d="M8.79453, -1.61342 C9.21885, -1.85472 9.47703, -2.37734 9.50424, -3.03779 " /><path d="M8.17844, -2.27233 C8.21239, -2.96789 7.9865, -3.80756 7.58152, -4.53315  C7.33212, -4.98367 7.01811, -5.38902 6.68213, -5.69876  C6.46172, -5.90179 6.23902, -6.06057 6.01405, -6.17509  C5.56395, -6.40523 5.13417, -6.43036 4.82228, -6.24825 " /><path d="M8.17584, -1.25622 C8.60015, -1.49752 8.85834, -2.02014 8.88554, -2.68058 " /><path d="M8.09003, -2.22129 C8.11889, -2.82893 7.95226, -3.54638 7.63759, -4.20183  C7.41667, -4.66506 7.12479, -5.09587 6.80133, -5.44114  C6.53564, -5.72543 6.24925, -5.95193 5.96831, -6.10181  C5.50292, -6.35208 5.05555, -6.38524 4.73387, -6.1972 " /><path d="M4.73387, -6.1972 Q4.57713, -6.10656 4.46233, -5.95311 " /><path d="M7.75024, -1.07479 Q7.93137, -1.11516 8.08743, -1.20518 " /><path d="M8.08743, -1.20518 C8.51174, -1.44647 8.76992, -1.9691 8.79713, -2.62954 " /><path d="M7.47133, -1.86409 C7.50528, -2.55965 7.2794, -3.39931 6.87441, -4.1249  C6.62502, -4.57542 6.31101, -4.98077 5.97503, -5.29052  C5.75461, -5.49354 5.53192, -5.65232 5.30694, -5.76684  C4.85685, -5.99698 4.42706, -6.02212 4.11518, -5.84 " /><path d="M7.46873, -0.847971 C7.89304, -1.08927 8.15124, -1.61189 8.17844, -2.27233 " /><path d="M7.38292, -1.81304 C7.41178, -2.42068 7.24515, -3.13814 6.93048, -3.79359  C6.70956, -4.25682 6.41768, -4.68763 6.09421, -5.0329  C5.82831, -5.31742 5.54168, -5.54404 5.26053, -5.69392  C4.79538, -5.94387 4.34829, -5.9769 4.02676, -5.78895 " /><path d="M4.02676, -5.78895 Q3.87002, -5.69831 3.75523, -5.54486 " /><path d="M7.04313, -0.666538 Q7.22426, -0.706908 7.38032, -0.796926 " /><path d="M7.38032, -0.796926 C7.80463, -1.03823 8.06281, -1.56085 8.09003, -2.22129 " /><path d="M6.76422, -1.45584 C6.79818, -2.1514 6.57229, -2.99106 6.16731, -3.71665  C5.91791, -4.16717 5.6039, -4.57252 5.26792, -4.88227  C5.04751, -5.08529 4.82482, -5.24407 4.59984, -5.35859  C4.14975, -5.58873 3.71996, -5.61387 3.40807, -5.43175 " /><path d="M6.76162, -0.439723 C7.18594, -0.681022 7.44413, -1.20364 7.47133, -1.86409 " /><path d="M6.67581, -1.40479 C6.70467, -2.01244 6.53804, -2.72989 6.22337, -3.38535  C6.00245, -3.84858 5.71056, -4.27939 5.38709, -4.62467  C5.12098, -4.90941 4.8341, -5.13616 4.55273, -5.28604  C4.08782, -5.53566 3.64102, -5.56855 3.31965, -5.3807 " /><path d="M3.31965, -5.3807 Q3.16291, -5.29006 3.04812, -5.13661 " /><path d="M6.33603, -0.258289 Q6.51716, -0.298659 6.67321, -0.388677 " /><path d="M6.67321, -0.388677 C7.09752, -0.629976 7.3557, -1.1526 7.38292, -1.81304 " /><path d="M6.05712, -1.04759 C6.09107, -1.74315 5.86518, -2.58282 5.4602, -3.3084  C5.2108, -3.75892 4.8968, -4.16427 4.56081, -4.47402  C4.34041, -4.67704 4.11772, -4.83581 3.89274, -4.95034  C3.44265, -5.18048 3.01285, -5.20562 2.70096, -5.0235 " /><path d="M6.05452, -0.0314745 C6.47883, -0.272774 6.73702, -0.795393 6.76422, -1.45584 " /><path d="M5.9687, -0.996541 C5.99756, -1.60419 5.83093, -2.32165 5.51626, -2.9771  C5.29533, -3.44034 5.00344, -3.87116 4.67997, -4.21643  C4.41365, -4.5014 4.12652, -4.72828 3.84494, -4.87815  C3.38028, -5.12744 2.93376, -5.16021 2.61254, -4.97245 " /><path d="M2.61254, -4.97245 Q2.4558, -4.88181 2.34101, -4.72837 " /><path d="M5.62892, 0.14996 Q5.81005, 0.10959 5.9661, 0.019572 " /><path d="M5.9661, 0.019572 C6.39041, -0.221726 6.6486, -0.744347 6.67581, -1.40479 " /><path d="M5.35001, -0.639341 C5.38396, -1.3349 5.15808, -2.17457 4.7531, -2.90015  C4.5037, -3.35067 4.18969, -3.75602 3.85371, -4.06577  C3.6333, -4.26879 3.41062, -4.42756 3.18565, -4.54209  C2.73555, -4.77224 2.30575, -4.79738 1.99386, -4.61526 " /><path d="M5.34741, 0.376774 C5.77172, 0.135474 6.02992, -0.387144 6.05712, -1.04759 " /><path d="M5.26159, -0.588292 C5.29046, -1.19594 5.12382, -1.9134 4.80915, -2.56886  C4.58822, -3.0321 4.29633, -3.46292 3.97286, -3.80819  C3.70632, -4.09338 3.41895, -4.32039 3.13716, -4.47026  C2.67274, -4.71923 2.2265, -4.75187 1.90544, -4.56421 " /><path d="M5.25899, 0.427821 C5.68331, 0.186523 5.94149, -0.336096 5.9687, -0.996541 " /><path d="M4.64291, -0.231093 C4.67686, -0.926651 4.45097, -1.76632 4.04599, -2.4919  C3.79659, -2.94242 3.48259, -3.34777 3.1466, -3.65752  C2.57271, -4.1916 1.93984, -4.42743 1.48037, -4.28924 " /><path d="M4.6403, 0.785022 C5.06462, 0.543722 5.32281, 0.021105 5.35001, -0.639341 " /><path d="M4.45477, 0.889396 L4.5234, 0.852514 " /><path d="M4.5234, 0.852514 C4.96645, 0.600767 5.23748, 0.073408 5.26159, -0.588292 " /><path d="M4.64291, -0.231093 C4.62996, 0.0936205 4.56597, 0.385392 4.45477, 0.622736 " /><path id= "101" d=" M 4.45477 -0.0626879 L 4.45477 2.04124 " />
<path d="M4.45477 2.04124 A5.65 3.26203 60 0 1 3.28462 4.62768" />
<path d="M-2.36538 -5.1584 A5.65 3.26203 60 0 1 0.459619 -4.87857" />
<path d="M0.459619 -4.87857 A5.65 3.26203 60 0 1 4.45477 2.04124" />
<path d="M3.99515 2.3066 A5.65 3.26203 60 0 1 2.825 4.89304" />
<path d="M2.825 4.89304 A5.65 3.26203 60 0 1 -2.825 -4.89304" />
<path d="M-2.825 -4.89304 A5.65 3.26203 60 0 1 3.99515 2.3066" />
<path d="M1.72654 0.630522 A0.46 0.265581 60 0 1 1.88463 1.35367" />
<path d="M1.88463 1.35367 A0.46 0.265581 60 0 1 1.72654 1.36311" />
<path d="M1.72654 0.630522 A1.13387 0.654643 60 0 1 1.13799 -0.886372" />
<path d="M0.588548 -1.56989 A0.46 0.265581 60 0 1 0.597315 -1.57535" />
<path d="M0.597315 -1.57535 A0.46 0.265581 60 0 1 1.13799 -0.886372" />
<path d="M0.588548 -1.56989 A1.13387 0.654643 60 0 1 0.566937 -1.55642" />
<path d="M0.566937 -1.55642 A1.13387 0.654643 60 0 1 -0.588548 -2.24948" />
<path d="M-1.13799 -2.20041 A0.46 0.265581 60 0 1 -1.05731 -2.53065" />
<path d="M-1.05731 -2.53065 A0.46 0.265581 60 0 1 -0.588548 -2.24948" />
<path d="M-1.13799 -2.20041 A1.13387 0.654643 60 0 1 -1.33685 -1.38638" />
<path d="M-1.33685 -1.38638 A1.13387 0.654643 60 0 1 -1.72654 -1.36311" />
<path d="M-1.72654 -0.630522 A0.46 0.265581 60 0 1 -1.88463 -1.35367" />
<path d="M-1.88463 -1.35367 A0.46 0.265581 60 0 1 -1.72654 -1.36311" />
<path d="M-1.72654 -0.630522 A1.13387 0.654643 60 0 1 -1.13799 0.886372" />
<path d="M-0.588548 1.56989 A0.46 0.265581 60 0 1 -0.597315 1.57535" />
<path d="M-0.597315 1.57535 A0.46 0.265581 60 0 1 -1.13799 0.886372" />
<path d="M-0.588548 1.56989 A1.13387 0.654643 60 0 1 -0.566937 1.55642" />
<path d="M-0.566937 1.55642 A1.13387 0.654643 60 0 1 0.588548 2.24948" />
<path d="M1.13799 2.20041 A0.46 0.265581 60 0 1 1.05731 2.53065" />
<path d="M1.05731 2.53065 A0.46 0.265581 60 0 1 0.588548 2.24948" />
<path d="M1.13799 2.20041 A1.13387 0.654643 60 0 1 1.33685 1.38638" />
<path d="M1.33685 1.38638 A1.13387 0.654643 60 0 1 1.72654 1.36311" />
<path d="M1.89149, 1.06616 C1.85148, 0.957073 1.79114, 0.861342 1.71049, 0.778968  C1.63965, 0.710041 1.5573, 0.662459 1.46344, 0.636221  C1.24399, 0.577437 1.02045, 0.640486 0.837682, 0.745464 " /><path d="M0.754935, 0.793238 C0.598723, 0.873628 0.391329, 0.837879 0.26861, 0.681557  C0.194056, 0.589684 0.15676, 0.464332 0.163665, 0.346036  C0.169861, 0.248823 0.198723, 0.161767 0.250252, 0.0848694 " /><path d="M0.250252, 0.0848694 C0.344303, -0.0567809 0.416401, -0.224167 0.436922, -0.415201  C0.450557, -0.542736 0.437099, -0.682484 0.386102, -0.812901  C0.335409, -0.944819 0.248904, -1.06092 0.149618, -1.15174  C0.00300692, -1.28573 -0.16734, -1.37341 -0.338296, -1.43202 " /><path d="M-0.338296, -1.43202 C-0.499607, -1.48524 -0.647085, -1.60949 -0.699627, -1.75428 " /></g>

</svg>
