<svg xmlns="http://www.w3.org/2000/svg" viewBox="-1.6 -7.25 23.2 14.5">
<rect width="100%" height="100%" fill="white"/>
<g   fill="none"
   stroke="rgb(0, 0, 0)"
   stroke-linecap="butt"
   stroke-linejoin="miter"
   stroke-width="0.35"
   transform="scale(1, -1)"
  >
<path id= "1" d=" M 20 -2.4 L 19.743 -2.65698 " />
<path d="M20, 2.38661 Q19.9559, 2.38859 19.9236, 2.41339  Q19.9115, 2.42291 19.9038, 2.43265  Q19.9001, 2.43804 19.8963, 2.44343 " /><path d="M19.6108, -2.44342 Q19.605, -2.4322 19.5869, -2.4161  Q19.5632, -2.39635 19.5299, -2.38919  Q19.5167, -2.38788 19.5035, -2.38656  Q19.4571, -2.3875 19.4232, -2.41372  Q19.4027, -2.43097 19.3963, -2.44342 " /><path d="M19.0036, 2.38657 Q18.9571, 2.3875 18.9232, 2.41371  Q18.9027, 2.43097 18.8963, 2.44343 " /><path d="M19.7326, -2.65324 L19.6108, -2.44342 " /><path d="M19.8963, 2.44343 L19.8332, 2.55215 " /><path d="M18.8963, 2.44343 L18.5806, 2.98741 " /><path d="M19.3963, -2.44342 L19.0806, -2.98741 " /><path d="M18.6108, -2.44343 Q18.605, -2.43221 18.5869, -2.41611  Q18.5632, -2.39635 18.5299, -2.3892  Q18.5167, -2.38788 18.5035, -2.38657  Q18.4571, -2.3875 18.4232, -2.41372  Q18.4027, -2.43097 18.3963, -2.44343 " /><path d="M19.1108, 2.44343 Q19.105, 2.43221 19.0869, 2.41611  Q19.0525, 2.38771 19.0036, 2.38657 " /><path d="M18.0036, 2.38657 Q17.9571, 2.3875 17.9232, 2.41372  Q17.9027, 2.43097 17.8963, 2.44343 " /><path d="M18.9265, -2.98741 L18.6108, -2.44343 " /><path d="M19.1108, 2.44343 L19.4167, 2.97062 " /><path id= "14" d=" M 19.0661 -3 L 18.941 -3 " />
<path d="M17.8963, 2.44343 L17.5806, 2.98741 " /><path d="M18.3963, -2.44343 L18.0806, -2.98741 " /><path d="M17.6108, -2.44343 Q17.605, -2.43221 17.5869, -2.41611  Q17.5632, -2.39636 17.5299, -2.3892  Q17.5167, -2.38788 17.5035, -2.38657  Q17.4571, -2.38751 17.4232, -2.41372  Q17.4027, -2.43097 17.3963, -2.44343 " /><path d="M18.1108, 2.44343 Q18.105, 2.43221 18.0869, 2.41611  Q18.0525, 2.38772 18.0036, 2.38657 " /><path d="M17.0036, 2.38657 Q16.9571, 2.38751 16.9232, 2.41372  Q16.9027, 2.43097 16.8963, 2.44343 " /><path d="M17.9265, -2.98741 L17.6108, -2.44343 " /><path d="M18.4265, 2.98741 L18.1108, 2.44343 " /><path id= "22" d=" M 18.0661 -3 L 17.941 -3 " />
<path d="M16.8963, 2.44343 L16.5806, 2.98741 " /><path d="M17.3963, -2.44343 L17.0806, -2.98741 " /><path d="M16.6108, -2.44343 Q16.605, -2.43221 16.5869, -2.41611  Q16.5632, -2.39636 16.5299, -2.3892  Q16.5167, -2.38789 16.5035, -2.38657  Q16.4571, -2.38751 16.4232, -2.41372  Q16.4027, -2.43097 16.3963, -2.44343 " /><path d="M17.1108, 2.44344 Q17.105, 2.43221 17.0869, 2.41611  Q17.0525, 2.38772 17.0036, 2.38657 " /><path d="M16.0036, 2.38658 Q15.9571, 2.38751 15.9232, 2.41372  Q15.9027, 2.43097 15.8963, 2.44344 " /><path d="M16.9265, -2.98741 L16.6108, -2.44343 " /><path d="M17.4265, 2.98741 L17.1108, 2.44344 " /><path id= "30" d=" M 17.0661 -3 L 16.941 -3 " />
<path d="M15.8963, 2.44344 L15.5806, 2.98741 " /><path d="M16.3963, -2.44343 L16.0806, -2.98742 " /><path d="M15.6108, -2.44343 Q15.605, -2.43221 15.5869, -2.41611  Q15.5632, -2.39636 15.5299, -2.3892  Q15.5167, -2.38789 15.5035, -2.38657  Q15.4571, -2.38751 15.4232, -2.41372  Q15.4027, -2.43097 15.3963, -2.44343 " /><path d="M16.1108, 2.44344 Q16.105, 2.43222 16.0869, 2.41612  Q16.0525, 2.38772 16.0036, 2.38658 " /><path d="M15.0036, 2.38658 Q14.9571, 2.38751 14.9232, 2.41372  Q14.9027, 2.43098 14.8963, 2.44344 " /><path d="M15.9265, -2.98741 L15.6108, -2.44343 " /><path d="M16.4265, 2.98741 L16.1108, 2.44344 " /><path id= "38" d=" M 16.0661 -3 L 15.941 -3 " />
<path d="M14.8963, 2.44344 L14.5806, 2.98741 " /><path d="M15.3963, -2.44343 L15.0806, -2.98742 " /><path d="M14.6108, -2.44344 Q14.605, -2.43222 14.5869, -2.41612  Q14.5632, -2.39636 14.5299, -2.3892  Q14.5167, -2.38789 14.5035, -2.38658  Q14.4571, -2.38751 14.4232, -2.41373  Q14.4027, -2.43098 14.3963, -2.44343 " /><path d="M15.1108, 2.44344 Q15.105, 2.43222 15.0869, 2.41612  Q15.0525, 2.38772 15.0036, 2.38658 " /><path d="M14.0036, 2.38658 Q13.9571, 2.38751 13.9232, 2.41372  Q13.9027, 2.43098 13.8963, 2.44344 " /><path d="M14.9265, -2.98741 L14.6108, -2.44344 " /><path d="M15.4265, 2.98741 L15.1108, 2.44344 " /><path id= "46" d=" M 15.0661 -3 L 14.941 -3 " />
<path d="M13.8963, 2.44344 L13.5806, 2.98741 " /><path d="M14.3963, -2.44343 L14.0806, -2.98742 " /><path d="M13.6108, -2.44344 Q13.605, -2.43222 13.5869, -2.41612  Q13.5632, -2.39637 13.5299, -2.38921  Q13.5167, -2.38789 13.5036, -2.38658  Q13.4571, -2.38752 13.4232, -2.41373  Q13.4027, -2.43098 13.3963, -2.44344 " /><path d="M14.1108, 2.44344 Q14.105, 2.43222 14.0869, 2.41612  Q14.0525, 2.38773 14.0036, 2.38658 " /><path d="M13.0036, 2.38658 Q12.9571, 2.38752 12.9232, 2.41373  Q12.9027, 2.43098 12.8963, 2.44344 " /><path d="M13.9265, -2.98741 L13.6108, -2.44344 " /><path d="M14.4264, 2.98741 L14.1108, 2.44344 " /><path id= "54" d=" M 14.0661 -3 L 13.941 -3 " />
<path d="M12.8963, 2.44344 L12.5806, 2.98741 " /><path d="M13.3963, -2.44344 L13.0806, -2.98742 " /><path d="M12.6108, -2.44344 Q12.605, -2.43222 12.5869, -2.41612  Q12.5632, -2.39637 12.5299, -2.38921  Q12.5167, -2.38789 12.5036, -2.38658  Q12.4571, -2.38752 12.4232, -2.41373  Q12.4027, -2.43098 12.3963, -2.44344 " /><path d="M13.1108, 2.44345 Q13.105, 2.43222 13.0869, 2.41613  Q13.0525, 2.38773 13.0036, 2.38658 " /><path d="M12.0036, 2.38659 Q11.9571, 2.38752 11.9232, 2.41373  Q11.9027, 2.43098 11.8963, 2.44345 " /><path d="M12.9265, -2.98741 L12.6108, -2.44344 " /><path d="M13.4264, 2.98741 L13.1108, 2.44345 " /><path id= "62" d=" M 13.0661 -3 L 12.941 -3 " />
<path d="M11.8963, 2.44345 L11.5806, 2.98741 " /><path d="M12.3963, -2.44344 L12.0806, -2.98742 " /><path d="M11.6108, -2.44344 Q11.605, -2.43222 11.5869, -2.41612  Q11.5632, -2.39637 11.5299, -2.38921  Q11.5168, -2.3879 11.5036, -2.38658  Q11.4571, -2.38752 11.4232, -2.41373  Q11.4027, -2.43098 11.3963, -2.44344 " /><path d="M12.1108, 2.44345 Q12.105, 2.43223 12.0869, 2.41613  Q12.0525, 2.38773 12.0036, 2.38659 " /><path d="M11.0036, 2.38659 Q10.9571, 2.38752 10.9232, 2.41373  Q10.9027, 2.43098 10.8963, 2.44345 " /><path d="M11.9264, -2.98741 L11.6108, -2.44344 " /><path d="M12.4264, 2.98741 L12.1108, 2.44345 " /><path id= "70" d=" M 12.0661 -3 L 11.941 -3 " />
<path d="M10.8963, 2.44345 L10.5806, 2.98741 " /><path d="M11.3963, -2.44344 L11.0806, -2.98742 " /><path d="M10.6108, -2.44345 Q10.605, -2.43223 10.5869, -2.41613  Q10.5632, -2.39637 10.53, -2.38921  Q10.5168, -2.3879 10.5036, -2.38658  Q10.4571, -2.38752 10.4232, -2.41373  Q10.4027, -2.43098 10.3963, -2.44344 " /><path d="M11.1108, 2.44345 Q11.105, 2.43223 11.0869, 2.41613  Q11.0525, 2.38773 11.0036, 2.38659 " /><path d="M10.0036, 2.38659 Q9.95712, 2.38752 9.92323, 2.41373  Q9.90272, 2.43099 9.89634, 2.44345 " /><path d="M10.9264, -2.98741 L10.6108, -2.44345 " /><path d="M11.4264, 2.98741 L11.1108, 2.44345 " /><path id= "78" d=" M 11.0661 -3 L 10.941 -3 " />
<path d="M9.89634, 2.44345 L9.58064, 2.98741 " /><path d="M10.3963, -2.44344 L10.0806, -2.98742 " /><path d="M9.61081, -2.44345 Q9.60502, -2.43223 9.58692, -2.41613  Q9.5632, -2.39638 9.52995, -2.38922  Q9.51676, -2.3879 9.50356, -2.38659  Q9.45711, -2.38752 9.42322, -2.41374  Q9.40272, -2.43099 9.39634, -2.44344 " /><path d="M10.1108, 2.44345 Q10.105, 2.43223 10.0869, 2.41613  Q10.0525, 2.38773 10.0036, 2.38659 " /><path d="M9.00357, 2.38659 Q8.95712, 2.38752 8.92323, 2.41374  Q8.90272, 2.43099 8.89634, 2.44345 " /><path d="M9.92644, -2.98741 L9.61081, -2.44345 " /><path d="M10.4264, 2.98741 L10.1108, 2.44345 " /><path id= "86" d=" M 10.0661 -3 L 9.94103 -3 " />
<path d="M8.89634, 2.44345 L8.58064, 2.98741 " /><path d="M9.39634, -2.44344 L9.08064, -2.98742 " /><path d="M8.61081, -2.44345 Q8.60502, -2.43223 8.58692, -2.41613  Q8.5632, -2.39638 8.52995, -2.38922  Q8.51676, -2.3879 8.50356, -2.38659  Q8.45711, -2.38753 8.42322, -2.41374  Q8.40272, -2.43099 8.39635, -2.44345 " /><path d="M9.11081, 2.44346 Q9.10502, 2.43224 9.08692, 2.41614  Q9.05249, 2.38774 9.00357, 2.38659 " /><path d="M8.00357, 2.3866 Q7.95712, 2.38753 7.92323, 2.41374  Q7.90273, 2.43099 7.89635, 2.44345 " /><path d="M8.92644, -2.98741 L8.61081, -2.44345 " /><path d="M9.42644, 2.98741 L9.11081, 2.44346 " /><path id= "94" d=" M 9.06606 -3 L 8.94103 -3 " />
<path d="M7.89635, 2.44345 L7.58064, 2.98741 " /><path d="M8.39635, -2.44345 L8.08064, -2.98742 " /><path d="M7.61081, -2.44345 Q7.60502, -2.43224 7.58692, -2.41614  Q7.56321, -2.39638 7.52996, -2.38922  Q7.51676, -2.38791 7.50356, -2.38659  Q7.45711, -2.38753 7.42323, -2.41374  Q7.40273, -2.43099 7.39635, -2.44345 " /><path d="M8.11081, 2.44346 Q8.10502, 2.43224 8.08692, 2.41614  Q8.05249, 2.38774 8.00357, 2.3866 " /><path d="M7.00358, 2.3866 Q6.95713, 2.38753 6.92323, 2.41374  Q6.90273, 2.43099 6.89635, 2.44346 " /><path d="M7.92644, -2.98741 L7.61081, -2.44345 " /><path d="M8.42643, 2.98741 L8.11081, 2.44346 " /><path id= "102" d=" M 8.06606 -3 L 7.94102 -3 " />
<path d="M6.89635, 2.44346 L6.58064, 2.98742 " /><path d="M7.39635, -2.44345 L7.08064, -2.98742 " /><path d="M6.61081, -2.44346 Q6.60502, -2.43224 6.58693, -2.41614  Q6.56321, -2.39638 6.52996, -2.38922  Q6.51676, -2.38791 6.50357, -2.38659  Q6.45712, -2.38753 6.42323, -2.41374  Q6.40273, -2.43099 6.39635, -2.44345 " /><path d="M7.11081, 2.44346 Q7.10502, 2.43224 7.08692, 2.41614  Q7.0525, 2.38774 7.00358, 2.3866 " /><path d="M6.00358, 2.3866 Q5.95713, 2.38753 5.92324, 2.41374  Q5.90273, 2.43099 5.89635, 2.44346 " /><path d="M6.92644, -2.98741 L6.61081, -2.44346 " /><path d="M7.42643, 2.98741 L7.11081, 2.44346 " /><path id= "110" d=" M 7.06606 -3 L 6.94102 -3 " />
<path d="M5.89635, 2.44346 L5.58064, 2.98742 " /><path d="M6.39635, -2.44345 L6.08064, -2.98742 " /><path d="M5.61081, -2.44346 Q5.60503, -2.43224 5.58693, -2.41614  Q5.56321, -2.39639 5.52996, -2.38923  Q5.51677, -2.38791 5.50357, -2.3866  Q5.45712, -2.38753 5.42323, -2.41374  Q5.40273, -2.43099 5.39635, -2.44345 " /><path d="M6.11081, 2.44346 Q6.10502, 2.43224 6.08693, 2.41614  Q6.0525, 2.38774 6.00358, 2.3866 " /><path d="M5.00358, 2.3866 Q4.95713, 2.38753 4.92324, 2.41374  Q4.90273, 2.431 4.89635, 2.44346 " /><path d="M5.92643, -2.98741 L5.61081, -2.44346 " /><path d="M6.42643, 2.98741 L6.11081, 2.44346 " /><path id= "118" d=" M 6.06606 -3 L 5.94102 -3 " />
<path d="M4.89635, 2.44346 L4.58064, 2.98742 " /><path d="M5.39635, -2.44345 L5.08064, -2.98742 " /><path d="M4.61082, -2.44346 Q4.60503, -2.43224 4.58693, -2.41614  Q4.56321, -2.39639 4.52996, -2.38923  Q4.51677, -2.38791 4.50357, -2.3866  Q4.45712, -2.38753 4.42323, -2.41375  Q4.40273, -2.431 4.39635, -2.44346 " /><path d="M5.11081, 2.44347 Q5.10503, 2.43225 5.08693, 2.41615  Q5.0525, 2.38775 5.00358, 2.3866 " /><path d="M4.00358, 2.3866 Q3.95713, 2.38754 3.92324, 2.41375  Q3.90274, 2.431 3.89635, 2.44346 " /><path d="M4.92643, -2.98741 L4.61082, -2.44346 " /><path d="M5.42643, 2.98741 L5.11081, 2.44347 " /><path id= "126" d=" M 5.06606 -3 L 4.94102 -3 " />
<path d="M3.89635, 2.44346 L3.58064, 2.98742 " /><path d="M4.39635, -2.44346 L4.08064, -2.98742 " /><path d="M4.11295, 2.44529 Q4.10643, 2.43289 4.08799, 2.41659  Q4.05291, 2.3877 4.00359, 2.3866 " /><path d="M4.42716, 2.98739 L4.11295, 2.44529 " /><path id= "131" d=" M 4.06606 -3 L 3.40355 -3 " />
<path d="M3.22678, -3.07322 Q3.30063, -3.00151 3.40355, -3 " /><path id= "133" d=" M 3.22678 -3.07322 L 0.65 -5.65 " />
<path id= "134" d=" M 0.65 -5.65 L 0 -5.65 " />
</g>
<g   fill="none"
   stroke="rgb(0, 0, 0)"
   stroke-linecap="butt"
   stroke-linejoin="miter"
   stroke-width="0.35"
   transform="scale(1, -1)"
  >
<path d="M20, -2.4 L20, -2.35278  L20, -2.21296  L20, -1.98606  L20, -1.68101  L20, -1.3098  L20, -0.88704  L20, -0.429377  L20, 0.517965  L20, 0.970364  L20, 1.38458  L20, 1.7443  L20, 2.03538  L20, 2.24636 " /><path d="M20, 2.38661 L20, 2.38661 " /><path d="M20, 2.38661 Q20, 2.38533 20, 2.24636 " /><path d="M20, 2.24636 C19.9955, 2.22347 19.989, 2.19842 19.9783, 2.19681  C19.9667, 2.19443 19.9522, 2.23194 19.9413, 2.27031 " /><path d="M19.7929, 2.60711 Q19.8129, 2.58705 19.8332, 2.55215 " /><path d="M19.8332, 2.55215 Q19.8864, 2.45955 19.9413, 2.27031 " /><path id= "7" d=" M 19.7929 2.60711 L 19.426 2.97398 " />
<path d="M19.426, 2.97398 C19.4481, 2.95356 19.4703, 2.71117 19.4927, 2.2951  C19.5145, 1.89282 19.5366, 1.32888 19.5588, 0.716741  C19.5802, 0.127534 19.6018, -0.50257 19.6237, -1.05002  C19.6449, -1.58341 19.6663, -2.03524 19.6879, -2.31763  C19.7027, -2.5139 19.7176, -2.62577 19.7326, -2.65324 " /><path d="M19.7326, -2.65324 Q19.7378, -2.66219 19.743, -2.65698 " /><path d="M19.426, 2.97398 Q19.4214, 2.97863 19.4167, 2.97062 " /><path d="M18.5661, 3 Q18.5733, 3 18.5806, 2.98741 " /><path d="M18.5806, 2.98741 C18.6198, 2.92224 18.659, 2.57136 18.6982, 2.02366  C18.7433, 1.39782 18.7884, 0.517601 18.8335, -0.328463  C18.869, -0.993454 18.9044, -1.63045 18.9399, -2.10565  C18.9819, -2.67346 19.024, -3.0033 19.0661, -3 " /><path d="M19.0661, -3 Q19.0733, -3 19.0806, -2.98741 " /><path d="M18.441, 3 C18.4795, 3.00234 18.518, 2.72822 18.5565, 2.24476  C18.6061, 1.62678 18.6558, 0.662951 18.7055, -0.271164  C18.74, -0.920146 18.7745, -1.54699 18.8091, -2.02638  C18.8482, -2.57255 18.8873, -2.92234 18.9265, -2.98741 " /><path d="M18.9265, -2.98741 Q18.9338, -3 18.941, -3 " /><path id= "16" d=" M 18.5661 3 L 18.441 3 " />
<path d="M17.5661, 3 Q17.5733, 3 17.5806, 2.98741 " /><path d="M17.5806, 2.98741 C17.6198, 2.92224 17.659, 2.57136 17.6982, 2.02365  C17.7433, 1.39781 17.7884, 0.517574 17.8335, -0.3285  C17.8689, -0.992407 17.9043, -1.62842 17.9397, -2.10336  C17.9818, -2.67255 18.0239, -3.00332 18.0661, -3 " /><path d="M18.0661, -3 Q18.0733, -3 18.0806, -2.98741 " /><path d="M17.441, 3 C17.4795, 3.00234 17.518, 2.72822 17.5565, 2.24475  C17.6062, 1.62644 17.6559, 0.661878 17.7055, -0.272708  C17.7401, -0.922606 17.7747, -1.55018 17.8093, -2.02961  C17.8484, -2.57396 17.8874, -2.92246 17.9265, -2.98741 " /><path d="M17.9265, -2.98741 Q17.9338, -3 17.941, -3 " /><path d="M18.4265, 2.98741 Q18.4338, 3 18.441, 3 " /><path id= "23" d=" M 17.5661 3 L 17.441 3 " />
<path d="M16.5661, 3 Q16.5733, 3 16.5806, 2.98741 " /><path d="M16.5806, 2.98741 C16.6198, 2.92224 16.659, 2.57136 16.6982, 2.02366  C16.7433, 1.39782 16.7884, 0.51759 16.8335, -0.328479  C16.8689, -0.993022 16.9044, -1.62961 16.9398, -2.10471  C16.9819, -2.67308 17.024, -3.00331 17.0661, -3 " /><path d="M17.0661, -3 Q17.0733, -3 17.0806, -2.98741 " /><path d="M16.441, 3 C16.4795, 3.00234 16.518, 2.72822 16.5565, 2.24475  C16.6062, 1.62607 16.6559, 0.660714 16.7056, -0.274384  C16.7397, -0.915552 16.7739, -1.53497 16.808, -2.01157  C16.8475, -2.56608 16.887, -2.92182 16.9265, -2.98741 " /><path d="M16.9265, -2.98741 Q16.9338, -3 16.941, -3 " /><path d="M17.4265, 2.98741 Q17.4338, 3 17.441, 3 " /><path id= "30" d=" M 16.5661 3 L 16.441 3 " />
<path d="M15.5661, 3 Q15.5733, 3 15.5806, 2.98741 " /><path d="M15.5806, 2.98741 C15.6198, 2.92224 15.659, 2.57136 15.6982, 2.02366  C15.7433, 1.39783 15.7884, 0.517619 15.8335, -0.328439  C15.869, -0.99408 15.9045, -1.63166 15.94, -2.10703  C15.982, -2.67401 16.024, -3.00329 16.0661, -3 " /><path d="M16.0661, -3 Q16.0733, -3 16.0806, -2.98741 " /><path d="M15.441, 3 C15.4795, 3.00234 15.518, 2.72822 15.5565, 2.24474  C15.6059, 1.62984 15.6553, 0.672692 15.7047, -0.257087  C15.7395, -0.911313 15.7743, -1.54405 15.8091, -2.02697  C15.8482, -2.5728 15.8873, -2.92236 15.9265, -2.98741 " /><path d="M15.9265, -2.98741 Q15.9338, -3 15.941, -3 " /><path d="M16.4265, 2.98741 Q16.4337, 3 16.441, 3 " /><path id= "37" d=" M 15.5661 3 L 15.441 3 " />
<path d="M14.5661, 3 Q14.5733, 3 14.5806, 2.98741 " /><path d="M14.5806, 2.98741 C14.6198, 2.92224 14.659, 2.57136 14.6982, 2.02366  C14.7433, 1.39784 14.7884, 0.517628 14.8335, -0.328427  C14.869, -0.994381 14.9045, -1.63225 14.94, -2.10768  C14.982, -2.67427 15.024, -3.00328 15.0661, -3 " /><path d="M15.0661, -3 Q15.0733, -3 15.0806, -2.98742 " /><path d="M14.441, 3 C14.4795, 3.00234 14.518, 2.72821 14.5565, 2.24474  C14.6059, 1.62959 14.6553, 0.671895 14.7048, -0.258237  C14.7392, -0.904748 14.7735, -1.53029 14.8079, -2.01076  C14.8474, -2.56572 14.887, -2.92179 14.9265, -2.98741 " /><path d="M14.9265, -2.98741 Q14.9337, -3 14.941, -3 " /><path d="M15.4265, 2.98741 Q15.4337, 3 15.441, 3 " /><path id= "44" d=" M 14.5661 3 L 14.441 3 " />
<path d="M13.5661, 3 Q13.5733, 3 13.5806, 2.98741 " /><path d="M13.5806, 2.98741 C13.6198, 2.92225 13.659, 2.57136 13.6982, 2.02366  C13.7433, 1.39783 13.7884, 0.517623 13.8335, -0.328433  C13.869, -0.994228 13.9045, -1.63195 13.94, -2.10735  C13.982, -2.67414 14.024, -3.00329 14.0661, -3 " /><path d="M14.0661, -3 Q14.0733, -3 14.0806, -2.98742 " /><path d="M13.441, 3 C13.4795, 3.00234 13.518, 2.72821 13.5565, 2.24473  C13.6059, 1.62936 13.6554, 0.67119 13.7048, -0.259253  C13.7392, -0.906514 13.7737, -1.53267 13.8081, -2.01323  C13.8476, -2.5668 13.887, -2.92187 13.9265, -2.98741 " /><path d="M13.9265, -2.98741 Q13.9337, -3 13.941, -3 " /><path d="M14.4264, 2.98741 Q14.4337, 3 14.441, 3 " /><path id= "51" d=" M 13.5661 3 L 13.441 3 " />
<path d="M12.5661, 3 Q12.5733, 3 12.5806, 2.98741 " /><path d="M12.5806, 2.98741 C12.6198, 2.92225 12.659, 2.57136 12.6982, 2.02366  C12.7433, 1.39783 12.7884, 0.51762 12.8335, -0.328438  C12.869, -0.994105 12.9045, -1.63171 12.94, -2.10708  C12.982, -2.67403 13.024, -3.00329 13.0661, -3 " /><path d="M13.0661, -3 Q13.0733, -3 13.0806, -2.98742 " /><path d="M12.441, 3 C12.4795, 3.00234 12.518, 2.72821 12.5565, 2.24473  C12.6059, 1.62911 12.6554, 0.670421 12.7049, -0.26036  C12.7396, -0.913714 12.7744, -1.5454 12.8091, -2.0276  C12.8482, -2.57308 12.8874, -2.92238 12.9265, -2.98741 " /><path d="M12.9265, -2.98741 Q12.9337, -3 12.941, -3 " /><path d="M13.4264, 2.98741 Q13.4337, 3 13.441, 3 " /><path id= "58" d=" M 12.5661 3 L 12.441 3 " />
<path d="M11.5661, 3 Q11.5733, 3 11.5806, 2.98741 " /><path d="M11.5806, 2.98741 C11.6198, 2.92225 11.659, 2.57136 11.6982, 2.02366  C11.7433, 1.39784 11.7884, 0.517638 11.8335, -0.328414  C11.869, -0.994689 11.9046, -1.63284 11.9401, -2.10836  C11.9821, -2.67454 12.0241, -3.00328 12.0661, -3 " /><path d="M12.0661, -3 Q12.0733, -3 12.0806, -2.98742 " /><path d="M11.441, 3 C11.4795, 3.00234 11.518, 2.72821 11.5565, 2.24473  C11.606, 1.62887 11.6554, 0.669663 11.7049, -0.261452  C11.7396, -0.91278 11.7742, -1.54252 11.8089, -2.02397  C11.8481, -2.57149 11.8873, -2.92225 11.9264, -2.98741 " /><path d="M11.9264, -2.98741 Q11.9337, -3 11.941, -3 " /><path d="M12.4264, 2.98741 Q12.4337, 3 12.441, 3 " /><path id= "65" d=" M 11.5661 3 L 11.441 3 " />
<path d="M10.5661, 3 Q10.5733, 3 10.5806, 2.98741 " /><path d="M10.5806, 2.98741 C10.6198, 2.92225 10.659, 2.57137 10.6982, 2.02366  C10.7433, 1.39785 10.7884, 0.51765 10.8335, -0.328397  C10.8691, -0.995069 10.9046, -1.63358 10.9402, -2.10919  C10.9821, -2.67488 11.0241, -3.00327 11.0661, -3 " /><path d="M11.0661, -3 Q11.0733, -3 11.0806, -2.98742 " /><path d="M10.441, 3 C10.4795, 3.00234 10.518, 2.72821 10.5565, 2.24472  C10.606, 1.62864 10.6555, 0.66893 10.705, -0.262508  C10.7395, -0.912251 10.7741, -1.54045 10.8087, -2.02129  C10.8479, -2.57032 10.8872, -2.92216 10.9264, -2.98741 " /><path d="M10.9264, -2.98741 Q10.9337, -3 10.941, -3 " /><path d="M11.4264, 2.98741 Q11.4337, 3 11.441, 3 " /><path id= "72" d=" M 10.5661 3 L 10.441 3 " />
<path d="M9.56606, 3 Q9.57335, 3 9.58064, 2.98741 " /><path d="M9.58064, 2.98741 C9.61984, 2.92225 9.65903, 2.57137 9.69822, 2.02366  C9.74332, 1.39785 9.78842, 0.517658 9.83351, -0.328386  C9.86907, -0.995326 9.90463, -1.63408 9.94019, -2.10976  C9.98215, -2.6751 10.0241, -3.00327 10.0661, -3 " /><path d="M10.0661, -3 Q10.0733, -3 10.0806, -2.98742 " /><path d="M9.44103, 3 C9.47951, 3.00234 9.51799, 2.72821 9.55648, 2.24472  C9.60599, 1.62839 9.65551, 0.668173 9.70503, -0.263597  C9.73926, -0.90682 9.77348, -1.52893 9.80771, -2.00765  C9.84729, -2.56436 9.88687, -2.92167 9.92644, -2.98741 " /><path d="M9.92644, -2.98741 Q9.93374, -3 9.94103, -3 " /><path d="M10.4264, 2.98741 Q10.4337, 3 10.441, 3 " /><path id= "79" d=" M 9.56606 3 L 9.44103 3 " />
<path d="M8.56606, 3 Q8.57335, 3 8.58064, 2.98741 " /><path d="M8.58064, 2.98741 C8.61984, 2.92225 8.65903, 2.57137 8.69822, 2.02366  C8.74332, 1.39786 8.78842, 0.517672 8.83351, -0.328367  C8.86909, -0.995734 8.90468, -1.63488 8.94026, -2.11066  C8.98219, -2.67546 9.02412, -3.00326 9.06606, -3 " /><path d="M9.06606, -3 Q9.07335, -3 9.08064, -2.98742 " /><path d="M8.44102, 3 C8.47951, 3.00234 8.51799, 2.7282 8.55648, 2.24471  C8.60601, 1.62817 8.65555, 0.667466 8.70508, -0.264615  C8.73962, -0.913589 8.77415, -1.54092 8.80868, -2.02123  C8.84793, -2.5703 8.88719, -2.92215 8.92644, -2.98741 " /><path d="M8.92644, -2.98741 Q8.93373, -3 8.94103, -3 " /><path d="M9.42644, 2.98741 Q9.43373, 3 9.44103, 3 " /><path id= "86" d=" M 8.56606 3 L 8.44102 3 " />
<path d="M7.56606, 3 Q7.57335, 3 7.58064, 2.98741 " /><path d="M7.58064, 2.98741 C7.61984, 2.92225 7.65903, 2.57137 7.69822, 2.02367  C7.74332, 1.39786 7.78842, 0.517676 7.83351, -0.328361  C7.8691, -0.995863 7.90469, -1.63513 7.94028, -2.11094  C7.98221, -2.67557 8.02413, -3.00326 8.06606, -3 " /><path d="M8.06606, -3 Q8.07335, -3 8.08064, -2.98742 " /><path d="M7.44102, 3 C7.4795, 3.00234 7.51799, 2.7282 7.55647, 2.24471  C7.60603, 1.62794 7.65558, 0.666765 7.70513, -0.265625  C7.73981, -0.917204 7.77448, -1.54686 7.80915, -2.02779  C7.84824, -2.57316 7.88735, -2.92239 7.92644, -2.98741 " /><path d="M7.92644, -2.98741 Q7.93373, -3 7.94102, -3 " /><path d="M8.42643, 2.98741 Q8.43373, 3 8.44102, 3 " /><path id= "93" d=" M 7.56606 3 L 7.44102 3 " />
<path d="M6.56606, 3 Q6.57335, 3 6.58064, 2.98742 " /><path d="M6.58064, 2.98742 C6.61984, 2.92225 6.65903, 2.57137 6.69822, 2.02367  C6.74332, 1.39786 6.78842, 0.517685 6.83351, -0.32835  C6.86911, -0.996096 6.90472, -1.63558 6.94032, -2.11145  C6.98223, -2.67578 7.02414, -3.00326 7.06606, -3 " /><path d="M7.06606, -3 Q7.07335, -3 7.08064, -2.98742 " /><path d="M6.44102, 3 C6.4795, 3.00234 6.51799, 2.7282 6.55647, 2.2447  C6.60604, 1.62771 6.65561, 0.666048 6.70519, -0.266656  C6.73941, -0.909754 6.77363, -1.53152 6.80786, -2.00978  C6.84738, -2.56529 6.88691, -2.92175 6.92644, -2.98741 " /><path d="M6.92644, -2.98741 Q6.93373, -3 6.94102, -3 " /><path d="M7.42643, 2.98741 Q7.43373, 3 7.44102, 3 " /><path id= "100" d=" M 6.56606 3 L 6.44102 3 " />
<path d="M5.56606, 3 Q5.57335, 3 5.58064, 2.98742 " /><path d="M5.58064, 2.98742 C5.61984, 2.92225 5.65903, 2.57137 5.69822, 2.02367  C5.74332, 1.39786 5.78842, 0.517692 5.83351, -0.32834  C5.86913, -0.99629 5.90474, -1.63596 5.94035, -2.11188  C5.98226, -2.67595 6.02415, -3.00325 6.06606, -3 " /><path d="M6.06606, -3 Q6.07335, -3 6.08064, -2.98742 " /><path d="M5.44102, 3 C5.4795, 3.00234 5.51799, 2.7282 5.55647, 2.2447  C5.60606, 1.62748 5.65565, 0.665343 5.70524, -0.267671  C5.73951, -0.911606 5.77377, -1.53407 5.80804, -2.01244  C5.84751, -2.56645 5.88697, -2.92184 5.92643, -2.98741 " /><path d="M5.92643, -2.98741 Q5.93373, -3 5.94102, -3 " /><path d="M6.42643, 2.98741 Q6.43372, 3 6.44102, 3 " /><path id= "107" d=" M 5.56606 3 L 5.44102 3 " />
<path d="M4.56606, 3 Q4.57335, 3 4.58064, 2.98742 " /><path d="M4.58064, 2.98742 C4.61984, 2.92225 4.65903, 2.57137 4.69823, 2.02367  C4.74332, 1.39787 4.78842, 0.517702 4.83351, -0.328326  C4.86914, -0.996573 4.90477, -1.63651 4.9404, -2.1125  C4.98229, -2.6762 5.02417, -3.00325 5.06606, -3 " /><path d="M5.06606, -3 Q5.07335, -3 5.08064, -2.98742 " /><path d="M4.44101, 3 C4.4795, 3.00234 4.51798, 2.7282 4.55647, 2.2447  C4.60607, 1.62726 4.65568, 0.664648 4.70529, -0.268671  C4.73967, -0.914618 4.77404, -1.53886 4.80842, -2.0177  C4.84775, -2.56875 4.8871, -2.92202 4.92643, -2.98741 " /><path d="M4.92643, -2.98741 Q4.93372, -3 4.94102, -3 " /><path d="M5.42643, 2.98741 Q5.43372, 3 5.44102, 3 " /><path id= "114" d=" M 4.56606 3 L 4.44101 3 " />
<path d="M3.56606, 3 Q3.57335, 3 3.58064, 2.98742 " /><path d="M3.58064, 2.98742 C3.61984, 2.92225 3.65903, 2.57137 3.69823, 2.02367  C3.74332, 1.39787 3.78842, 0.517709 3.83351, -0.328316  C3.86915, -0.996762 3.90479, -1.63688 3.94043, -2.11292  C3.98231, -2.67636 4.02418, -3.00325 4.06606, -3 " /><path d="M4.06606, -3 Q4.07335, -3 4.08064, -2.98742 " /><path d="M4.42716, 2.98739 Q4.43445, 3 4.44101, 3 " /><path id= "119" d=" M 3.56606 3 L 3.40355 3 " />
<path d="M3.40355 3 A0.25 0.25 0 0 0 3.22678 3.07322" /><path id= "121" d=" M 3.22678 3.07322 L 0.65 5.65 " />
<path d="M0.65, -5.65 L0.65, -5.50834  L0.65, -5.09047  L0.65, -4.41735  L0.65, -3.52272  L0.65, -2.45144  L0.65, -1.25724  L0.65, -1.11022e-15  L0.65, 1.25724  L0.65, 2.45144  L0.65, 3.52272  L0.65, 4.41735  L0.65, 5.09047  L0.65, 5.50834  L0.65, 5.65 " /><path id= "123" d=" M 0.65 5.65 L 0 5.65 " />
<path d="M0, -5.65 L0, -5.50834  L0, -5.09047  L0, -4.41735  L0, -3.52272  L0, -2.45144  L0, -1.25724  L0, -1.11022e-15  L0, 1.25724  L0, 2.45144  L0, 3.52272  L0, 4.41735  L0, 5.09047  L0, 5.50834  L0, 5.65 " /></g>

</svg>
