<svg xmlns="http://www.w3.org/2000/svg" viewBox="-6.554 -6.554 13.108 13.108">
<rect width="100%" height="100%" fill="white"/>
<g   fill="none"
   stroke="rgb(0, 0, 0)"
   stroke-linecap="butt"
   stroke-linejoin="miter"
   stroke-width="0.35"
   transform="scale(1, -1)"
  >
<circle cx ="0" cy ="0" r ="5.65" /><path d="M2.44169 -0.448618 A0.46 0.46 0 0 1 2.44169 0.448618" /><path d="M2.44169 -0.448618 A1.13387 1.13387 0 0 1 1.60936 -1.89026" /><path d="M0.832332 -2.33888 A0.46 0.46 0 0 1 1.60936 -1.89026" /><path d="M0.832332 -2.33888 A1.13387 1.13387 0 0 1 -0.832332 -2.33888" /><path d="M-1.60936 -1.89026 A0.46 0.46 0 0 1 -0.832332 -2.33888" /><path d="M-1.60936 -1.89026 A1.13387 1.13387 0 0 1 -2.44169 -0.448618" /><path d="M-2.44169 0.448618 A0.46 0.46 0 0 1 -2.44169 -0.448618" /><path d="M-2.44169 0.448618 A1.13387 1.13387 0 0 1 -1.60936 1.89026" /><path d="M-0.832332 2.33888 A0.46 0.46 0 0 1 -1.60936 1.89026" /><path d="M-0.832332 2.33888 A1.13387 1.13387 0 0 1 0.832332 2.33888" /><path d="M1.60936 1.89026 A0.46 0.46 0 0 1 0.832332 2.33888" /><path d="M1.60936 1.89026 A1.13387 1.13387 0 0 1 2.44169 0.448618" /><path d="M2.44169, -0.448618 C2.52877, -0.429159 2.60561, -0.385672 2.67223, -0.318157  C2.75089, -0.237135 2.80067, -0.119929 2.8, 0.000147343  C2.80061, 0.121274 2.74986, 0.239369 2.67001, 0.32046  C2.60381, 0.386675 2.52771, 0.429395 2.44169, 0.448618 " /><path d="M2.44169, 0.448618 L2.40177, 0.458432 " /><path d="M1.5979, 1.85078 L1.60936, 1.89026 " /><path d="M1.60936, 1.89026 C1.63605, 1.9754 1.63681, 2.06369 1.61165, 2.15514  C1.58081, 2.26377 1.5042, 2.36549 1.39987, 2.42494  C1.29528, 2.48604 1.16763, 2.50113 1.05748, 2.47252  C0.967037, 2.44831 0.891988, 2.40376 0.832332, 2.33888 " /><path d="M0.832332, 2.33888 L0.803871, 2.30921 " /><path d="M-0.803871, 2.30921 L-0.832332, 2.33888 " /><path d="M-0.832332, 2.33888 C-0.892722, 2.40456 -0.968806, 2.44936 -1.06058, 2.4733  C-1.17008, 2.50091 -1.29647, 2.48542 -1.40013, 2.4248  C-1.50533, 2.36476 -1.58223, 2.26176 -1.61253, 2.15206  C-1.63678, 2.06163 -1.63572, 1.97436 -1.60936, 1.89026 " /><path d="M-1.60936, 1.89026 L-1.5979, 1.85078 " /><path d="M-2.40177, 0.458433 L-2.44169, 0.448618 " /><path d="M-2.44169, 0.448618 C-2.52877, 0.429159 -2.60561, 0.385672 -2.67223, 0.318157  C-2.75086, 0.237157 -2.80063, 0.120025 -2.8, 2.77556e-17 " /><path d="M-2.8, 0 C-2.80065, -0.120861 -2.75016, -0.238738 -2.67062, -0.319831  C-2.60431, -0.386401 -2.528, -0.42933 -2.44169, -0.448618 " /><path d="M-2.44169, -0.448618 L-2.40177, -0.458432 " /><path d="M-1.5979, -1.85078 L-1.60936, -1.89026 " /><path d="M-1.60936, -1.89026 C-1.63605, -1.9754 -1.63681, -2.06369 -1.61165, -2.15514  C-1.58081, -2.26377 -1.5042, -2.36549 -1.39987, -2.42494  C-1.29528, -2.48604 -1.16763, -2.50113 -1.05748, -2.47252  C-0.967037, -2.44831 -0.891988, -2.40376 -0.832332, -2.33888 " /><path d="M-0.832332, -2.33888 L-0.803871, -2.30921 " /><path d="M0.803871, -2.30921 L0.832332, -2.33888 " /><path d="M0.832332, -2.33888 C0.892722, -2.40456 0.968806, -2.44936 1.06058, -2.4733  C1.17008, -2.50091 1.29647, -2.48542 1.40013, -2.4248  C1.50533, -2.36476 1.58223, -2.26176 1.61253, -2.15206  C1.63678, -2.06163 1.63572, -1.97436 1.60936, -1.89026 " /><path d="M1.60936, -1.89026 L1.5979, -1.85078 " /><path d="M2.40177, -0.458433 L2.44169, -0.448618 " /><circle cx ="0" cy ="0" r ="0.387979" /></g>

</svg>
