<svg xmlns="http://www.w3.org/2000/svg" viewBox="-10.4465484 -9.3899684 15.3836668 15.5990768">
<rect width="100%" height="100%" fill="white"/>
<g   fill="none"
   stroke="rgb(0, 0, 0)"
   stroke-linecap="butt"
   stroke-linejoin="miter"
   stroke-width="0.35"
   transform="scale(1, -1)"
  >
<path d="M1.49235 -3.17745 A9 9 0 0 1 2.65429 -1.61692" /></g>
<g   fill="none"
   stroke="rgb(0, 0, 0)"
   stroke-linecap="butt"
   stroke-linejoin="miter"
   stroke-width="0.35"
   transform="scale(1, -1)"
  >
<path d="M3.86132 2.48471 A7.48331 5.9019 84.8961 0 0 2.65429 -1.61692" />
<path d="M2.65429 -1.61692 A7.48331 5.9019 84.8961 0 0 1.82008 -2.77628" />
<path d="M1.82008 -2.77628 A7.48331 4.32049 -2.0506e-14 0 0 1.49235 -3.17745" />
<path d="M1.49235 -3.17745 A7.48331 4.32049 -2.0506e-14 0 0 -2.26241 -5.13331" />
<path d="M1.82008 5.38868 A7.48331 1.58141 141.206 0 0 3.86132 2.48471" />
<path id= "6" d=" M 3.86132 2.48471 L -1.20578 5.4102 " />
<path d="M-2.54218, 7.04451 C-2.21745, 6.58336 -1.79379, 6.06527 -1.20578, 5.4102 " /><path d="M-3.24702, 8.31417 C-3.08837, 7.907 -2.86493, 7.50451 -2.54218, 7.04451 " /><path id= "9" d=" M 1.82008 5.38868 L -3.24702 8.31417 " />
<path d="M-5.60404, 7.31798 C-4.95557, 7.69123 -4.20836, 8.00704 -3.24702, 8.31417 " /><path d="M-7.32951, 5.95715 C-6.79753, 6.51218 -6.25054, 6.94358 -5.60404, 7.31798 " /><path d="M-8.66591, 3.50897 C-8.34117, 4.3428 -7.91752, 5.1189 -7.32951, 5.95715 " /><path d="M-9.37075, 0.696158 C-9.2121, 1.78231 -8.98866, 2.674 -8.66591, 3.50897 " /><path d="M-8.66591, -0.573512 C-8.98866, -0.113512 -9.2121, 0.288987 -9.37075, 0.696158 " /><path d="M-7.32951, -2.20781 C-7.91752, -1.55275 -8.34117, -1.03466 -8.66591, -0.573512 " /><path id= "16" d=" M -2.26241 -5.13331 L -7.32951 -2.20781 " />
<path d="M-5.60404, -0.846986 C-6.25054, -1.22139 -6.79753, -1.65278 -7.32951, -2.20781 " /><path d="M-3.24702, 0.149209 C-4.20836, -0.157929 -4.95557, -0.473733 -5.60404, -0.846986 " /><path id= "19" d=" M 1.82008 -2.77628 L -3.24702 0.149209 " />
<path d="M-2.54218, 2.96202 C-2.86493, 2.12705 -3.08837, 1.23536 -3.24702, 0.149209 " /><path d="M-1.20578, 5.4102 C-1.79379, 4.57195 -2.21745, 3.79585 -2.54218, 2.96202 " /><path d="M-2.54218 7.04451 A5 2.88675 60 0 1 -5.60404 7.31798" />
<path d="M-2.06851 5.27674 A5 2.88675 60 0 1 -2.54218 7.04451" />
<path d="M-5.60404 7.31798 A5 2.88675 60 0 1 -8.66591 3.50897" />
<path d="M-8.66591 3.50897 A5 2.88675 60 0 1 -8.66591 -0.573512" />
<path d="M-8.66591 -0.573512 A5 2.88675 60 0 1 -5.60404 -0.846986" />
<path d="M-5.60404 -0.846986 A5 2.88675 60 0 1 -2.54218 2.96202" />
<path d="M-2.54218 2.96202 A5 2.88675 60 0 1 -2.06851 5.27674" />
<g transform = "rotate(60, -5.60404, 3.2355)">
<ellipse cx ="-5.60404" cy ="3.2355" rx ="3.25"  ry ="1.87639"/>
</g>
<path d="M-3.70709, 3.0164 C-4.10174, 2.60423 -4.42485, 2.07632 -4.60644, 1.56082 " /><path d="M-3.58195, 3.40168 C-4.21352, 2.88124 -4.72675, 2.03739 -4.89219, 1.29017 " /><path d="M-7.34909, 3.31475 C-7.36344, 3.31837 -7.33203, 3.42963 -7.28337, 3.55291  C-7.22343, 3.70602 -7.13724, 3.88446 -7.03665, 4.05825  C-6.81934, 4.43601 -6.52913, 4.801 -6.2245, 5.07642 " /><path d="M-6.2245, 5.07642 Q-6.14756, 5.14628 -6.07038, 5.20835 " /><path d="M-6.795, 3.16187 L-7.34909, 3.31475 " /><path d="M-6.795 3.16187 A2.45875 1.41956 60 0 1 -6.51039 0.919657" />
<path d="M-6.51039 0.919657 A2.45875 1.41956 60 0 1 -6.13582 0.80732" />
<path d="M-3.45654, 4.23782 C-3.46447, 3.44142 -3.84842, 2.46679 -4.41934, 1.77431  C-4.69032, 1.44133 -4.99784, 1.17344 -5.30065, 1.00543  C-5.59762, 0.839782 -5.88922, 0.770755 -6.13582, 0.80732 " /><path d="M-3.45654, 4.23782 C-3.44002, 4.96354 -3.72467, 5.52462 -4.20701, 5.71839  C-4.71155, 5.93354 -5.42246, 5.73478 -6.07038, 5.20835 " /><path d="M-3.46094, 4.12164 C-4.01774, 3.87888 -4.58333, 3.33794 -4.96362, 2.70334  C-5.33, 2.10084 -5.52203, 1.42727 -5.48627, 0.914157 " /><path d="M-3.45611, 4.2942 C-4.08712, 4.08987 -4.75937, 3.4729 -5.17955, 2.73923  C-5.5601, 2.0881 -5.73267, 1.36673 -5.645, 0.85568 " /><path d="M-3.49439, 4.7226 Q-3.63604, 4.93797 -3.84432, 5.05864 " /><path d="M-3.84432, 5.05864 C-4.05744, 5.18211 -4.31798, 5.22297 -4.59924, 5.17788  C-4.91342, 5.12837 -5.25286, 4.97105 -5.57394, 4.72898  C-6.07695, 4.35313 -6.52817, 3.76716 -6.795, 3.16187 " /><path d="M-3.7586, 5.00299 C-4.19942, 5.20497 -4.81466, 5.06314 -5.37917, 4.64036  C-5.75753, 4.36074 -6.10979, 3.96341 -6.37492, 3.52464  C-6.69001, 3.00686 -6.87924, 2.43526 -6.90163, 1.95898  C-6.92791, 1.46544 -6.77591, 1.07991 -6.49428, 0.910598 " /><path d="M-3.48779, 4.68533 C-3.85532, 4.68919 -4.27676, 4.52621 -4.67198, 4.23217  C-5.04921, 3.95341 -5.40052, 3.55764 -5.66537, 3.12042  C-5.98192, 2.60155 -6.1721, 2.02821 -6.19453, 1.55068  C-6.20959, 1.25396 -6.16202, 0.9943 -6.05847, 0.799465 " /><path d="M-3.53412, 4.77943 C-3.93604, 4.82833 -4.41963, 4.65932 -4.86795, 4.3199  C-5.25729, 4.02765 -5.61743, 3.61113 -5.88226, 3.15504  C-6.18428, 2.63873 -6.36017, 2.07591 -6.37302, 1.61045  C-6.38336, 1.28361 -6.31557, 1.00511 -6.18069, 0.811698 " /></g>

</svg>
