<svg xmlns="http://www.w3.org/2000/svg" viewBox="-8.84908 -6.69726 10.84752 13.39452">
<rect width="100%" height="100%" fill="white"/>
<g   fill="none"
   stroke="rgb(0, 0, 0)"
   stroke-linecap="butt"
   stroke-linejoin="miter"
   stroke-width="0.35"
   transform="scale(1, -1)"
  >
<path d="M-0.312773 -5.7735 A9 9 0 0 1 1.07468 -3.5" /><path id= "2" d=" M -7.92532 -5 L -7.47873 -5.7735 " />
</g>
<g   fill="none"
   stroke="rgb(0, 0, 0)"
   stroke-linecap="butt"
   stroke-linejoin="miter"
   stroke-width="0.35"
   transform="scale(1, -1)"
  >
<path d="M1.07468, -3.5 L1.07468, -3.41225  L1.07468, -3.15339  L1.07468, -2.73641  L1.07468, -2.18221  L1.07468, -1.51859  L1.07468, -0.778823  L1.07468, -6.66134e-16  L1.07468, 0.778823  L1.07468, 1.51859  L1.07468, 2.18221  L1.07468, 2.73641  L1.07468, 3.15339  L1.07468, 3.41225  L1.07468, 3.5 " /><path d="M1.07468 3.5 A9 9 0 0 1 -0.312773 5.7735" /><path d="M-0.312773 5.7735 A7.48331 3.74166 180 0 0 -0.312773 2.88675" />
<path d="M-0.312773 2.88675 A7.48331 7.48331 0 0 0 -0.312773 -2.88675" /><path d="M-0.312773 -2.88675 A7.48331 3.74166 0 0 0 -0.312773 -5.7735" />
<path id= "6" d=" M -0.312773 5.7735 L -7.47873 5.7735 " />
<path id= "7" d=" M -0.312773 -5.7735 L -7.47873 -5.7735 " />
<path d="M-7.92532, -4.33013 C-7.92391, -4.78797 -7.78234, -5.24553 -7.47873, -5.7735 " /><path d="M-7.47873, -2.88675 C-7.78234, -3.41472 -7.92391, -3.87228 -7.92532, -4.33013 " /><path id= "10" d=" M -0.312773 -2.88675 L -7.47873 -2.88675 " />
<path d="M-7.92532, -4.58002e-08 C-7.92391, -0.915684 -7.78234, -1.83081 -7.47873, -2.88675 " /><path d="M-7.47873, 2.88675 C-7.78234, 1.83081 -7.92391, 0.915684 -7.92532, -4.58002e-08 " /><path id= "13" d=" M -0.312773 2.88675 L -7.47873 2.88675 " />
<path d="M-7.92532, 4.33013 C-7.92391, 3.87228 -7.78234, 3.41472 -7.47873, 2.88675 " /><path d="M-7.47873, 5.7735 C-7.78234, 5.24553 -7.92391, 4.78797 -7.92532, 4.33013 " /><path id= "16" d=" M -7.47873 5.7735 L -7.92532 5 " />
<path d="M-7.92532, -5 C-7.92532, -4.9991 -7.92532, -4.94171 -7.92532, -4.82963  C-7.92532, -4.71582 -7.92532, -4.54755 -7.92532, -4.33013 " /><path d="M-7.92532, -4.33013 Q-7.92532, -4.23066 -7.92532, -4.13119  Q-7.92532, -4.02018 -7.92532, -3.90916  Q-7.92532, -3.78721 -7.92532, -3.66526  Q-7.92532, -3.53306 -7.92532, -3.40086  Q-7.92532, -3.25916 -7.92532, -3.11745  Q-7.92532, -2.96702 -7.92532, -2.8166  Q-7.92532, -2.6583 -7.92532, -2.5  Q-7.92532, -2.33471 -7.92532, -2.16942  Q-7.92532, -1.99806 -7.92532, -1.82671  Q-7.92532, -1.65024 -7.92532, -1.47378  Q-7.92532, -1.29319 -7.92532, -1.1126  Q-7.92532, -0.562676 -7.92532, -4.58002e-08 " /><path d="M-7.92532, -4.58002e-08 Q-7.92532, 0.562675 -7.92532, 1.1126  Q-7.92532, 1.29319 -7.92532, 1.47378  Q-7.92532, 1.65024 -7.92532, 1.82671  Q-7.92532, 1.99806 -7.92532, 2.16942  Q-7.92532, 2.33471 -7.92532, 2.5  Q-7.92532, 2.6583 -7.92532, 2.8166  Q-7.92532, 2.96702 -7.92532, 3.11745  Q-7.92532, 3.25916 -7.92532, 3.40086  Q-7.92532, 3.53306 -7.92532, 3.66526  Q-7.92532, 3.78721 -7.92532, 3.90916  Q-7.92532, 4.02018 -7.92532, 4.13119  Q-7.92532, 4.23066 -7.92532, 4.33013 " /><path d="M-7.92532, 4.33013 C-7.92532, 4.54755 -7.92532, 4.71582 -7.92532, 4.82963  C-7.92532, 4.94171 -7.92532, 4.9991 -7.92532, 5 " /></g>

</svg>
