<svg xmlns="http://www.w3.org/2000/svg" viewBox="-6.69726 -5.92376 13.39452 11.84752">
<rect width="100%" height="100%" fill="white"/>
<g   fill="none"
   stroke="rgb(0, 0, 0)"
   stroke-linecap="butt"
   stroke-linejoin="miter"
   stroke-width="0.35"
   transform="scale(1, -1)"
  >
<path d="M-1.61503, -1.85395 C-1.29286, -2.1353 -0.89591, -2.32988 -0.476184, -2.4122  C-0.0106723, -2.5049 0.481329, -2.45825 0.921117, -2.27969  C1.36438, -2.10147 1.75282, -1.79034 2.02353, -1.3967  C2.22433, -1.10621 2.36125, -0.771921 2.42191, -0.42404 " /><path d="M2.44131, -0.292319 Q2.45019, -0.21815 2.45455, -0.143579 " /><path d="M2.45875, 0.000630645 C2.46052, 0.595744 2.23569, 1.18775 1.83932, 1.63167 " /><path d="M1.76843, 1.70825 L1.73521, 1.74198 " /><path d="M1.58706, 1.87795 L1.52888, 1.92561 " /><path d="M1.35091, 2.05439 L1.33135, 2.06711 " /><path d="M1.13746, 2.17982 L1.09272, 2.20259 " /><path d="M0.526325, 2.40176 Q0.452364, 2.41796 0.377546, 2.42959 " /><path d="M-0.037345, 2.45847 Q-0.159779, 2.4566 -0.281425, 2.44259 " /><path d="M-0.542431, 2.39817 L-0.582298, 2.3888 " /><path d="M-0.654518, 2.37003 L-0.757691, 2.33909 " /><path d="M-0.884901, 2.29399 Q-1.18598, 2.17765 -1.44703, 1.98785 " /><path d="M-1.51385, 1.93745 C-1.76815, 1.73896 -1.98263, 1.48982 -2.14109, 1.20879 " /><path d="M-1.20887, -2.14105 C-0.569198, -2.50721 0.237282, -2.56004 0.919236, -2.28045  C1.36092, -2.10327 1.74834, -1.7942 2.01922, -1.40292  C2.30411, -0.994557 2.45971, -0.497909 2.45875, -1.33227e-15 " /><path d="M4.33013, 2.5 C4.78797, 1.70699 5.24553, 0.914468 5.7735, 3.84547e-13 " /><path d="M2.88675, 5 C3.41472, 4.08553 3.87228, 3.29301 4.33013, 2.5 " /><path d="M3.70531e-08, 5 C0.915684, 5 1.83081, 5 2.88675, 5 " /><path d="M-2.88675, 5 C-1.83081, 5 -0.915684, 5 3.70531e-08, 5 " /><path d="M-4.33013, 2.5 C-3.87228, 3.29301 -3.41472, 4.08553 -2.88675, 5 " /><path d="M-5.7735, 3.87045e-13 C-5.24553, 0.914468 -4.78797, 1.70699 -4.33013, 2.5 " /><path d="M-4.33013, -2.5 C-4.78797, -1.70699 -5.24553, -0.914468 -5.7735, -3.83693e-13 " /><path d="M-2.88675, -5 C-3.41472, -4.08553 -3.87228, -3.29301 -4.33013, -2.5 " /><path d="M-4.58002e-08, -5 C-0.915684, -5 -1.83081, -5 -2.88675, -5 " /><path d="M2.88675, -5 C1.83081, -5 0.915684, -5 -4.58002e-08, -5 " /><path d="M4.33013, -2.5 C3.87228, -3.29301 3.41472, -4.08553 2.88675, -5 " /><path d="M5.7735, -3.85914e-13 C5.24553, -0.914468 4.78797, -1.70699 4.33013, -2.5 " /><path d="M4.33013 2.5 A5 5 0 0 1 3.70531e-08 5" /><path d="M5 0 A5 5 0 0 1 4.33013 2.5" /><path d="M3.70531e-08 5 A5 5 0 0 1 -4.33013 2.5" /><path d="M-4.33013 2.5 A5 5 0 0 1 -4.33013 -2.5" /><path d="M-4.33013 -2.5 A5 5 0 0 1 -4.58002e-08 -5" /><path d="M-4.58002e-08 -5 A5 5 0 0 1 4.33013 -2.5" /><path d="M4.33013 -2.5 A5 5 0 0 1 5 -1.22465e-15" /><circle cx ="0" cy ="0" r ="3.25" /><path d="M2.45875, 0.000540748 C2.46047, 0.590052 2.24002, 1.1766 1.85043, 1.61906 " /><path d="M1.76657, 1.71017 L1.74532, 1.73185 " /><path d="M1.59429, 1.87181 L1.48783, 1.9575 " /><path d="M1.38368, 2.03246 L1.29288, 2.09139 " /><path d="M1.11561, 2.19109 L1.06026, 2.2184 " /><path d="M0.753692, 2.34038 L0.723715, 2.34983 " /><path d="M0.2545, 2.44554 Q0.0701341, 2.46471 -0.115027, 2.45606 " /><path d="M-0.35013, 2.43369 C-1.09408, 2.33137 -1.77595, 1.86506 -2.14109, 1.20879 " /><path d="M-1.20887, -2.14105 Q-1.14325, -2.1781 -1.07547, -2.21106 " /><path d="M-1.07403, -2.21176 L-1.02371, -2.2355 " /><path d="M-0.938805, -2.27246 Q-0.721732, -2.36208 -0.49165, -2.40909 " /><path d="M0.105614, -2.45648 C0.387485, -2.444 0.659292, -2.38508 0.921034, -2.27973  C1.59875, -2.01043 2.13875, -1.42251 2.3496, -0.724441 " /><path d="M2.42394, -0.412277 L2.42717, -0.392822 " /><path d="M2.44325, -0.275629 L2.44538, -0.256025 " /><path d="M-2.61219, 1.47532 C-2.62444, 1.48186 -2.57473, 1.59062 -2.50301, 1.7043  C-2.41833, 1.83985 -2.30173, 1.98961 -2.16711, 2.1264 " /><path d="M-2.16711, 2.1264 C-1.80776, 2.4973 -1.3052, 2.77875 -0.803825, 2.89032 " /><path d="M-2.14109, 1.20879 L-2.61219, 1.47532 " /><path d="M-2.14109 1.20879 A2.45875 2.45875 0 0 1 -1.20887 -2.14105" /><path d="M2.74611, -4.44089e-16 C2.7227, -0.479096 2.57018, -0.949945 2.30819, -1.34849  C2.05768, -1.73167 1.70698, -2.04712 1.30118, -2.25305  C0.904345, -2.45564 0.455701, -2.55254 0.013568, -2.5303  C-0.420048, -2.50955 -0.846204, -2.37413 -1.20887, -2.14105 " /><path d="M2.74611, 4.62719e-07 C2.79411, 0.852495 2.41574, 1.71677 1.75738, 2.27138  C1.41825, 2.5613 1.00985, 2.77069 0.575007, 2.87858  C0.125808, 2.99088 -0.3508, 2.99461 -0.803825, 2.89032 " /><path d="M2.45875, 0.000540754 C2.46157, 0.667059 2.17722, 1.32817 1.69141, 1.78454 " /><path d="M1.66286, 1.81117 Q1.35904, 2.08946 0.981461, 2.25437 " /><path d="M0.723673, 2.34984 L0.706343, 2.35511 " /><path d="M0.458755, 2.41557 Q0.291572, 2.44731 0.121616, 2.45574 " /><path d="M0.015264, 2.4587 Q-0.0669021, 2.45921 -0.14892, 2.45424 " /><path d="M-0.311533, 2.43893 Q-0.429385, 2.42388 -0.54523, 2.39754 " /><path d="M-0.573294, 2.39098 C-1.22985, 2.23674 -1.81221, 1.79764 -2.14109, 1.20879 " /><path d="M-1.20887, -2.14105 C-0.581039, -2.50019 0.207542, -2.55842 0.881344, -2.29536 " /><path d="M1.14148, -2.17772 C1.49303, -1.9939 1.79861, -1.72329 2.02362, -1.39657  C2.30574, -0.989427 2.45969, -0.495328 2.45875, -8.88178e-16 " /><path d="M2.45875, 9.86451e-07 C2.46055, 0.585844 2.24306, 1.16886 1.85798, 1.61039  C1.56418, 1.95033 1.17513, 2.2067 0.74686, 2.34257  C0.330807, 2.47582 -0.120952, 2.49489 -0.546757, 2.39719  C-1.21395, 2.24838 -1.80791, 1.80561 -2.14109, 1.20879 " /><path d="M2.45875, 8.76843e-07 C2.46055, 0.585844 2.24306, 1.16886 1.85798, 1.61039  C1.5675, 1.94647 1.18395, 2.20092 0.761381, 2.33789  C0.340847, 2.47548 -0.11704, 2.4961 -0.548237, 2.39685  C-1.21483, 2.24771 -1.80809, 1.80525 -2.14109, 1.20879 " /><path d="M-1.20887, -2.14105 C-0.572179, -2.50544 0.22978, -2.55965 0.909712, -2.28427  C1.35871, -2.10637 1.7523, -1.79229 2.02541, -1.39398  C2.30641, -0.987335 2.45968, -0.49427 2.45875, -1.33227e-15 " /></g>

</svg>
