<svg xmlns="http://www.w3.org/2000/svg" viewBox="-6.09 -6.09 12.18 12.18">
<rect width="100%" height="100%" fill="white"/>
<g   fill="none"
   stroke="rgb(0, 0, 0)"
   stroke-linecap="butt"
   stroke-linejoin="miter"
   stroke-width="0.35"
   transform="scale(1, -1)"
  >
<circle cx ="0" cy ="0" r ="5.25" /><path d="M-2.34996 2.87787e-16 A2.34996 2.34996 0 0 1 2.34996 -5.75574e-16" /><path d="M2.34996 0 A2.34996 2.34996 0 0 1 -2.34996 2.87787e-16" /><path d="M1.16913, 2.025 C0.315054, 2.025 -0.315054, 2.025 -1.16913, 2.025 " /><path d="M-1.16913, 2.025 C-1.59617, 1.28535 -1.91123, 0.739655 -2.33827, -5.24025e-14 " /><path d="M-2.33827, 5.15143e-14 C-1.91123, -0.739655 -1.59617, -1.28535 -1.16913, -2.025 " /><path d="M-1.16913, -2.025 C-0.315054, -2.025 0.315054, -2.025 1.16913, -2.025 " /><path d="M1.16913, -2.025 C1.59617, -1.28535 1.91123, -0.739655 2.33827, 5.19584e-14 " /><path d="M2.33827, -5.24025e-14 C1.91123, 0.739655 1.59617, 1.28535 1.16913, 2.025 " /><circle cx ="0" cy ="0" r ="0.324" /></g>

</svg>
