<svg xmlns="http://www.w3.org/2000/svg" viewBox="-5.8 -5.8 11.6 11.6">
<rect width="100%" height="100%" fill="white"/>
<g   fill="none"
   stroke="rgb(0, 0, 0)"
   stroke-linecap="butt"
   stroke-linejoin="miter"
   stroke-width="0.35"
   transform="scale(1, -1)"
  >
<circle cx ="0" cy ="0" r ="2.32095" /><circle cx ="0" cy ="0" r ="5" /><path d="M1.1547, 2 C0.311165, 2 -0.311165, 2 -1.1547, 2 " /><path d="M-1.1547, 2 C-1.57647, 1.26948 -1.88763, 0.730523 -2.3094, 1.70974e-13 " /><path d="M-2.3094, -1.71863e-13 C-1.88763, -0.730523 -1.57647, -1.26948 -1.1547, -2 " /><path d="M-1.1547, -2 C-0.311165, -2 0.311165, -2 1.1547, -2 " /><path d="M1.1547, -2 C1.57647, -1.26948 1.88763, -0.730523 2.3094, -1.71196e-13 " /><path d="M2.3094, 1.71085e-13 C1.88763, 0.730523 1.57647, 1.26948 1.1547, 2 " /><circle cx ="0" cy ="0" r ="0.32" /></g>

</svg>
