<svg xmlns="http://www.w3.org/2000/svg" viewBox="-2.3315408 -2.1120208 13.8965216 9.194121599999999">
<rect width="100%" height="100%" fill="white"/>
<g   fill="none"
   stroke="rgb(0, 0, 0)"
   stroke-linecap="butt"
   stroke-linejoin="miter"
   stroke-width="0.35"
   transform="scale(1, -1)"
  >
<path id= "1" d=" M -1.37316 0.0711066 L -0.3125 -0.541266 " />
<path id= "2" d=" M -0.74816 1.15364 L 0.3125 0.541266 " />
<path id= "3" d=" M -0.0625 -0.541266 L 9.38522 -5.99591 " />
<path id= "4" d=" M 0.4375 0.32476 L 9.88522 -5.12989 " />
<path id= "5" d=" M 10.6066 -6.12372 L 9.94114 -5.18162 " />
<path id= "6" d=" M 10.6066 -6.12372 L 9.45798 -6.01847 " />
</g>
<g   fill="none"
   stroke="rgb(0, 0, 0)"
   stroke-linecap="butt"
   stroke-linejoin="miter"
   stroke-width="0.35"
   transform="scale(1, -1)"
  >
<path d="M-0.618718 0.867528 A0.625 0.360844 60 0 1 -0.74816 1.15364" />
<path d="M-0.74816 1.15364 A0.625 0.360844 60 0 1 -1.37316 0.0711066" />
<path d="M-1.37316 0.0711066 A0.625 0.360844 60 0 1 -0.618718 0.867528" />
<path d="M0.441942 0.255155 A0.625 0.360844 60 0 1 0.3125 0.541266" />
<path d="M-0.3125 -0.541266 A0.625 0.360844 60 0 1 0.441942 0.255155" />
<path d="M9.98878 -5.35877 A0.5 0.288675 60 0 1 9.94114 -5.18162" />
<path d="M9.94114 -5.18162 A0.5 0.288675 60 0 1 9.88522 -5.12989" />
<path d="M9.38522 -5.99591 A0.5 0.288675 60 0 1 9.45798 -6.01847" />
<path d="M9.45798 -6.01847 A0.5 0.288675 60 0 1 9.98878 -5.35877" />
</g>

</svg>
