<svg xmlns="http://www.w3.org/2000/svg" viewBox="-2.8200000000000003 -1.945 19.14 3.89">
<rect width="100%" height="100%" fill="white"/>
<g   fill="none"
   stroke="rgb(0, 0, 0)"
   stroke-linecap="butt"
   stroke-linejoin="miter"
   stroke-width="0.35"
   transform="scale(1, -1)"
  >
<path id= "1" d=" M -1.5 -0.625 L 0 -0.625 " />
<path d="M0.1, -0.5 C0.046565, -0.498622 -0.00137792, -0.546565 0, -0.6 " /><path id= "3" d=" M 0.1 -0.5 L 13.6263 -0.5 " />
<path id= "4" d=" M 15 -8.03362e-13 L 13.6263 0.5 " />
<path id= "5" d=" M 15 8.03362e-13 L 13.6263 -0.5 " />
</g>
<g   fill="none"
   stroke="rgb(0, 0, 0)"
   stroke-linecap="butt"
   stroke-linejoin="miter"
   stroke-width="0.35"
   transform="scale(1, -1)"
  >
<path d="M-1.5, -0.625 Q-1.5, -0.617165 -1.5, -0.60933  Q-1.5, -0.586218 -1.5, -0.563106  Q-1.5, -0.525875 -1.5, -0.488645  Q-1.5, -0.439163 -1.5, -0.389681  Q-1.5, -0.330429 -1.5, -0.271177  Q-1.5, -0.141031 -1.5, -1.11022e-16  Q-1.5, 0.0695378 -1.5, 0.139076  Q-1.5, 0.205126 -1.5, 0.271177  Q-1.5, 0.330429 -1.5, 0.389681  Q-1.5, 0.439163 -1.5, 0.488645  Q-1.5, 0.525875 -1.5, 0.563106  Q-1.5, 0.586218 -1.5, 0.60933  Q-1.5, 0.617165 -1.5, 0.625 " /><path id= "2" d=" M -1.5 0.625 L 0 0.625 " />
<path d="M0, -0.625 Q0, -0.617165 0, -0.60933  Q0, -0.586218 0, -0.563106  Q0, -0.525875 0, -0.488645  Q0, -0.439163 0, -0.389681  Q0, -0.330429 0, -0.271177  Q0, -0.141031 0, -1.11022e-16  Q0, 0.0695378 0, 0.139076  Q0, 0.205126 0, 0.271177  Q0, 0.330429 0, 0.389681  Q0, 0.439163 0, 0.488645  Q0, 0.525875 0, 0.563106  Q0, 0.586218 0, 0.60933  Q0, 0.617165 0, 0.625 " /><path d="M0 0.6 A0.1 0.1 0 0 1 0.1 0.5" /><path id= "5" d=" M 0.1 0.5 L 13.6263 0.5 " />
<path d="M13.6263, -0.5 Q13.6263, -0.493732 13.6263, -0.487464  Q13.6263, -0.468974 13.6263, -0.450484  Q13.6263, -0.4207 13.6263, -0.390916  Q13.6263, -0.35133 13.6263, -0.311745  Q13.6263, -0.264343 13.6263, -0.216942  Q13.6263, -0.112825 13.6263, -9.71445e-17  Q13.6263, 0.0556302 13.6263, 0.11126  Q13.6263, 0.164101 13.6263, 0.216942  Q13.6263, 0.264343 13.6263, 0.311745  Q13.6263, 0.35133 13.6263, 0.390916  Q13.6263, 0.4207 13.6263, 0.450484  Q13.6263, 0.468974 13.6263, 0.487464  Q13.6263, 0.493732 13.6263, 0.5 " /><path id= "7" d=" M 13.6263 0.5 L 15 -1.24885e-12 " />
</g>

</svg>
