<svg xmlns="http://www.w3.org/2000/svg" viewBox="-13.1172304 -13.1581604 62.0882808 44.966510799999995">
<rect width="100%" height="100%" fill="white"/>
<g   fill="none"
   stroke="rgb(0, 0, 0)"
   stroke-linecap="butt"
   stroke-linejoin="miter"
   stroke-width="0.35"
   transform="scale(1, -1)"
  >
<path id= "1" d=" M 0.17193 -4.71807 L 25.2501 -19.197 " />
<path id= "2" d=" M 4.40449 2.07587 L 28.9408 -12.0902 " />
<path id= "3" d=" M 29.484 -12.4038 L 29.6037 -12.4729 " />
<path id= "4" d=" M 25.8688 -19.5542 L 25.9572 -19.6052 " />
<path id= "5" d=" M 30.2224 -12.8301 L 30.3108 -12.8811 " />
<path id= "6" d=" M 26.5759 -19.9624 L 26.6643 -20.0135 " />
<path id= "7" d=" M 30.9295 -13.2383 L 31.0179 -13.2894 " />
<path id= "8" d=" M 27.283 -20.3707 L 27.3715 -20.4217 " />
<path id= "9" d=" M 31.6366 -13.6466 L 31.725 -13.6976 " />
<path id= "10" d=" M 27.9901 -20.7789 L 28.0786 -20.83 " />
<path id= "11" d=" M 32.3437 -14.0548 L 32.4321 -14.1059 " />
<path id= "12" d=" M 28.6972 -21.1872 L 28.7857 -21.2382 " />
<path id= "13" d=" M 33.0508 -14.4631 L 33.1392 -14.5141 " />
<path id= "14" d=" M 29.4044 -21.5954 L 29.4928 -21.6465 " />
<path id= "15" d=" M 33.7579 -14.8713 L 33.8463 -14.9224 " />
<path id= "16" d=" M 30.1115 -22.0037 L 30.1999 -22.0547 " />
<path id= "17" d=" M 34.465 -15.2796 L 34.5534 -15.3306 " />
<path id= "18" d=" M 30.8186 -22.4119 L 30.907 -22.463 " />
<path id= "19" d=" M 35.1721 -15.6878 L 35.2605 -15.7389 " />
<path id= "20" d=" M 31.5257 -22.8202 L 31.6141 -22.8712 " />
<path id= "21" d=" M 35.8792 -16.0961 L 35.9676 -16.1471 " />
<path id= "22" d=" M 32.2328 -23.2284 L 32.3212 -23.2795 " />
<path id= "23" d=" M 36.5863 -16.5043 L 36.6748 -16.5554 " />
<path id= "24" d=" M 32.9399 -23.6367 L 33.0283 -23.6877 " />
<path id= "25" d=" M 37.2935 -16.9126 L 37.3819 -16.9636 " />
<path id= "26" d=" M 33.647 -24.0449 L 33.7354 -24.096 " />
<path id= "27" d=" M 38.0006 -17.3208 L 38.089 -17.3719 " />
<path id= "28" d=" M 34.3541 -24.4532 L 34.4425 -24.5042 " />
<path id= "29" d=" M 38.7077 -17.7291 L 38.7961 -17.7801 " />
<path id= "30" d=" M 35.0612 -24.8614 L 35.1496 -24.9124 " />
<path id= "31" d=" M 39.4148 -18.1373 L 39.5032 -18.1884 " />
<path id= "32" d=" M 35.7683 -25.2697 L 35.8567 -25.3207 " />
<path id= "33" d=" M 40.1219 -18.5456 L 40.2103 -18.5966 " />
<path id= "34" d=" M 36.4754 -25.6779 L 36.5638 -25.7289 " />
<path id= "35" d=" M 40.829 -18.9538 L 40.9174 -19.0049 " />
<path id= "36" d=" M 37.1825 -26.0862 L 37.2709 -26.1372 " />
<path id= "37" d=" M 41.5361 -19.3621 L 41.6245 -19.4131 " />
<path id= "38" d=" M 37.8897 -26.4944 L 37.9781 -26.5454 " />
<path id= "39" d=" M 42.2432 -19.7703 L 42.3316 -19.8214 " />
<path id= "40" d=" M 38.5968 -26.9027 L 38.6852 -26.9537 " />
<path id= "41" d=" M 42.9503 -20.1786 L 43.0387 -20.2296 " />
<path id= "42" d=" M 39.3039 -27.3109 L 39.3923 -27.3619 " />
<path id= "43" d=" M 43.6574 -20.5868 L 43.7458 -20.6379 " />
<path id= "44" d=" M 42.4264 -27.1077 L 42.2898 -27.1866 " />
<path id= "45" d=" M 42.2162 -27.229 L 41.8999 -27.4116 " />
</g>
<g   fill="none"
   stroke="rgb(0, 0, 0)"
   stroke-linecap="butt"
   stroke-linejoin="miter"
   stroke-width="0.35"
   transform="scale(1, -1)"
  >
<path d="M0.848528 4.81733 A6.5 3.75278 60 0 1 0.232755 7.11543" />
<path d="M0.232755 1.8082 A6.5 3.75278 60 0 1 0.848528 4.81733" />
<path d="M-3.74767 -3.14351 A6.5 3.75278 60 0 1 0.232755 1.8082" />
<path d="M-7.72809 -2.78799 A6.5 3.75278 60 0 1 -3.74767 -3.14351" />
<path d="M-7.72809 2.51923 A6.5 3.75278 60 0 1 -7.72809 -2.78799" />
<path d="M-3.74767 7.47094 A6.5 3.75278 60 0 1 -7.72809 2.51923" />
<path d="M0.232755 7.11543 A6.5 3.75278 60 0 1 -3.74767 7.47094" />
<path d="M0.232755, 7.11543 C0.654312, 6.51628 1.14454, 5.8777 1.77918, 5.10105 " /><path d="M-3.74767, 7.47094 C-2.90524, 7.95652 -1.9944, 8.402 -0.874437, 8.87621 " /><path d="M-0.874437, 8.87621 C-0.538412, 8.27196 -0.187421, 7.71377 0.232755, 7.11543 " /><path d="M-7.72809, 2.51923 C-7.30653, 3.60355 -6.8163, 4.64742 -6.18166, 5.81208 " /><path d="M-6.18166, 5.81208 C-5.36031, 6.45869 -4.58871, 6.98457 -3.74767, 7.47094 " /><path d="M-7.72809, -2.78799 C-8.14826, -2.18965 -8.49925, -1.63146 -8.83528, -1.02721 " /><path d="M-8.83528, -1.02721 C-8.49925, 0.309856 -8.14826, 1.43411 -7.72809, 2.51923 " /><path d="M-6.18166, -4.80237 C-6.8163, -4.02572 -7.30653, -3.38714 -7.72809, -2.78799 " /><path d="M-3.74767, -3.14351 C-4.58871, -3.62989 -5.36031, -4.15576 -6.18166, -4.80237 " /><path d="M-0.874437, -1.73824 C-1.9944, -2.21245 -2.90524, -2.65794 -3.74767, -3.14351 " /><path d="M0.232755, 1.8082 C-0.187421, 0.72308 -0.538412, -0.401178 -0.874437, -1.73824 " /><path d="M1.77918, 5.10105 C1.14454, 3.93639 0.654312, 2.89252 0.232755, 1.8082 " /><path id= "20" d=" M 2.22935 7.08424 L 4.88296 3.30908 " />
<path id= "21" d=" M 1.77918 5.10105 L 4.88296 3.30908 " />
<path id= "22" d=" M 2.22935 7.08424 L -0.874437 8.87621 " />
<path id= "23" d=" M -3.07788 -6.59434 L -6.18166 -4.80237 " />
<path id= "24" d=" M 2.22935 -3.53021 L -3.07788 -6.59434 " />
<path id= "25" d=" M 2.22935 -3.53021 L -0.874437 -1.73824 " />
<path id= "26" d=" M 4.88296 3.30908 L 2.22935 -3.53021 " />
<path d="M3.19935 -1.03019 A5.735 3.3111 60 0 1 3.75767 0.408812" />
<path d="M29.8134, -13.9468 C29.7896, -13.0917 29.4838, -12.4196 28.9743, -12.1102 " /><path d="M28.9408 -12.0902 A4 2.3094 -120 0 0 28.9743 -12.1102" />
<path d="M29.1838, -12.2688 Q29.3419, -12.3218 29.484, -12.4038 " /><path d="M29.484, -12.4038 C30.0602, -12.7313 30.4081, -13.4279 30.4321, -14.304 " /><path d="M29.8134, -13.9468 C29.8484, -14.8697 29.5356, -15.9855 28.9836, -16.9481  C28.6379, -17.5558 28.2029, -18.1007 27.7389, -18.5121  C27.4437, -18.7737 27.146, -18.9774 26.8458, -19.1232  C26.244, -19.4167 25.6701, -19.4421 25.2501, -19.197 " /><path d="M29.6037, -12.4729 C30.1596, -12.789 30.4941, -13.4801 30.5205, -14.355 " /><path d="M30.5205, -14.355 C30.5555, -15.278 30.2427, -16.3937 29.6907, -17.3563  C29.345, -17.964 28.91, -18.5089 28.446, -18.9203  C28.1508, -19.1819 27.8531, -19.3857 27.5529, -19.5315  C26.9511, -19.825 26.3772, -19.8503 25.9572, -19.6052 " /><path d="M30.3108, -12.8811 C30.8667, -13.1972 31.2012, -13.8884 31.2276, -14.7633 " /><path d="M30.4321, -14.304 C30.4647, -15.1785 30.187, -16.2261 29.6868, -17.1525  C29.3699, -17.7436 28.9674, -18.2837 28.5305, -18.7084  C28.2, -19.0304 27.8504, -19.2865 27.5077, -19.4591  C26.8903, -19.7723 26.2988, -19.8053 25.8688, -19.5542 " /><path d="M25.8688, -19.5542 Q25.7131, -19.4642 25.5865, -19.3287 " /><path d="M29.8915, -12.6888 Q30.0669, -12.7404 30.2224, -12.8301 " /><path d="M30.2224, -12.8301 C30.7783, -13.1462 31.1127, -13.8373 31.1392, -14.7122 " /><path d="M31.2276, -14.7633 C31.2626, -15.6862 30.9498, -16.802 30.3978, -17.7646  C30.0521, -18.3723 29.6172, -18.9172 29.1531, -19.3286  C28.8579, -19.5902 28.5602, -19.7939 28.26, -19.9397  C27.6582, -20.2332 27.0843, -20.2586 26.6643, -20.0135 " /><path d="M31.0179, -13.2894 C31.5738, -13.6055 31.9083, -14.2966 31.9347, -15.1715 " /><path d="M31.1392, -14.7122 C31.1718, -15.5868 30.8942, -16.6343 30.3939, -17.5607  C30.077, -18.1518 29.6745, -18.692 29.2376, -19.1167  C28.9071, -19.4386 28.5577, -19.6947 28.215, -19.8672  C27.5975, -20.1805 27.0059, -20.2136 26.5759, -19.9624 " /><path d="M26.5759, -19.9624 Q26.4202, -19.8724 26.2936, -19.737 " /><path d="M30.5986, -13.0971 Q30.774, -13.1486 30.9295, -13.2383 " /><path d="M30.9295, -13.2383 C31.4854, -13.5544 31.8198, -14.2456 31.8463, -15.1205 " /><path d="M31.9347, -15.1715 C31.9697, -16.0945 31.657, -17.2102 31.1049, -18.1728  C30.7592, -18.7805 30.3243, -19.3254 29.8603, -19.7368  C29.5651, -19.9984 29.2673, -20.2021 28.9671, -20.348  C28.3653, -20.6415 27.7914, -20.6668 27.3715, -20.4217 " /><path d="M31.725, -13.6976 C32.2809, -14.0137 32.6154, -14.7049 32.6418, -15.5798 " /><path d="M31.8463, -15.1205 C31.8789, -15.995 31.6013, -17.0426 31.101, -17.969  C30.7841, -18.5601 30.3816, -19.1002 29.9447, -19.5249  C29.6143, -19.8468 29.2649, -20.1028 28.9223, -20.2754  C28.3048, -20.5887 27.7131, -20.6218 27.283, -20.3707 " /><path d="M27.283, -20.3707 Q27.1273, -20.2807 27.0007, -20.1452 " /><path d="M31.3057, -13.5053 Q31.4811, -13.5569 31.6366, -13.6466 " /><path d="M31.6366, -13.6466 C32.1925, -13.9627 32.5269, -14.6538 32.5534, -15.5287 " /><path d="M32.6418, -15.5798 C32.6768, -16.5027 32.3641, -17.6185 31.812, -18.5811  C31.4663, -19.1888 31.0314, -19.7337 30.5674, -20.1451  C30.2722, -20.4067 29.9744, -20.6104 29.6742, -20.7562  C29.0724, -21.0497 28.4985, -21.0751 28.0786, -20.83 " /><path d="M32.4321, -14.1059 C32.988, -14.4219 33.3225, -15.1131 33.3489, -15.988 " /><path d="M32.5534, -15.5287 C32.586, -16.4033 32.3084, -17.4509 31.8081, -18.3772  C31.4912, -18.9683 31.0887, -19.5085 30.6518, -19.9332  C30.3215, -20.255 29.9722, -20.5109 29.6296, -20.6835  C29.012, -20.997 28.4202, -21.0301 27.9901, -20.7789 " /><path d="M27.9901, -20.7789 Q27.8344, -20.6889 27.7079, -20.5535 " /><path d="M32.0128, -13.9136 Q32.1882, -13.9651 32.3437, -14.0548 " /><path d="M32.3437, -14.0548 C32.8996, -14.3709 33.2341, -15.0621 33.2605, -15.937 " /><path d="M33.3489, -15.988 C33.3839, -16.911 33.0712, -18.0267 32.5191, -18.9893  C32.1734, -19.597 31.7385, -20.1419 31.2745, -20.5533  C30.9793, -20.8149 30.6816, -21.0186 30.3813, -21.1645  C29.7795, -21.4579 29.2057, -21.4833 28.7857, -21.2382 " /><path d="M28.3026, -18.1171 Q28.3592, -17.947 28.4273, -17.7765 " /><path d="M33.1392, -14.5141 C33.6951, -14.8302 34.0296, -15.5214 34.056, -16.3963 " /><path d="M33.2605, -15.937 C33.2931, -16.8115 33.0155, -17.8591 32.5152, -18.7855  C32.1983, -19.3766 31.7958, -19.9168 31.3589, -20.3414  C31.0287, -20.6631 30.6795, -20.9191 30.337, -21.0916  C29.7193, -21.4052 29.1274, -21.4384 28.6972, -21.1872 " /><path d="M28.6972, -21.1872 Q28.5415, -21.0972 28.415, -20.9617 " /><path d="M32.7199, -14.3218 Q32.8953, -14.3734 33.0508, -14.4631 " /><path d="M33.0508, -14.4631 C33.6067, -14.7792 33.9412, -15.4703 33.9676, -16.3452 " /><path d="M34.056, -16.3963 C34.091, -17.3192 33.7783, -18.435 33.2262, -19.3975  C32.8805, -20.0053 32.4456, -20.5502 31.9816, -20.9616  C31.6864, -21.2232 31.3887, -21.4269 31.0884, -21.5727  C30.4866, -21.8662 29.9128, -21.8916 29.4928, -21.6465 " /><path d="M29.0097, -18.5253 Q29.0663, -18.3552 29.1344, -18.1847 " /><path d="M33.8463, -14.9224 C34.4023, -15.2384 34.7367, -15.9296 34.7631, -16.8045 " /><path d="M33.9676, -16.3452 C34.0002, -17.2198 33.7226, -18.2674 33.2223, -19.1938  C32.9054, -19.7849 32.5029, -20.325 32.066, -20.7497  C31.7359, -21.0713 31.3868, -21.3271 31.0445, -21.4997  C30.4266, -21.8134 29.8346, -21.8467 29.4044, -21.5954 " /><path d="M29.4044, -21.5954 Q29.2486, -21.5054 29.1221, -21.3699 " /><path d="M33.427, -14.7301 Q33.6024, -14.7816 33.7579, -14.8713 " /><path d="M33.7579, -14.8713 C34.3138, -15.1874 34.6483, -15.8786 34.6747, -16.7535 " /><path d="M34.7631, -16.8045 C34.7981, -17.7275 34.4854, -18.8432 33.9333, -19.8058  C33.5877, -20.4135 33.1527, -20.9584 32.6887, -21.3698  C32.3935, -21.6314 32.0958, -21.8351 31.7955, -21.9809  C31.1937, -22.2744 30.6199, -22.2998 30.1999, -22.0547 " /><path d="M29.7168, -18.9336 Q29.7734, -18.7635 29.8415, -18.5929 " /><path d="M34.5534, -15.3306 C35.1094, -15.6467 35.4438, -16.3379 35.4702, -17.2128 " /><path d="M34.6747, -16.7535 C34.7073, -17.628 34.4297, -18.6756 33.9294, -19.602  C33.6126, -20.1931 33.21, -20.7333 32.7731, -21.1579  C32.443, -21.4795 32.0939, -21.7354 31.7516, -21.9079  C31.1338, -22.2217 30.5417, -22.255 30.1115, -22.0037 " /><path d="M30.1115, -22.0037 Q29.9557, -21.9137 29.8292, -21.7782 " /><path d="M34.1341, -15.1383 Q34.3095, -15.1899 34.465, -15.2796 " /><path d="M34.465, -15.2796 C35.021, -15.5956 35.3554, -16.2868 35.3818, -17.1617 " /><path d="M35.4702, -17.2128 C35.5052, -18.1357 35.1925, -19.2515 34.6404, -20.214  C34.2948, -20.8218 33.8598, -21.3667 33.3958, -21.7781  C33.1006, -22.0397 32.8029, -22.2434 32.5026, -22.3892  C31.9008, -22.6827 31.327, -22.7081 30.907, -22.463 " /><path d="M30.4239, -19.3418 Q30.4805, -19.1717 30.5486, -19.0012 " /><path d="M35.2605, -15.7389 C35.8165, -16.0549 36.1509, -16.7461 36.1774, -17.621 " /><path d="M35.3818, -17.1617 C35.4144, -18.0363 35.1368, -19.0839 34.6365, -20.0103  C34.3197, -20.6014 33.9171, -21.1415 33.4802, -21.5662  C33.1502, -21.8877 32.8012, -22.1435 32.459, -22.316  C31.841, -22.6299 31.2489, -22.6632 30.8186, -22.4119 " /><path d="M30.8186, -22.4119 Q30.6628, -22.3219 30.5363, -22.1864 " /><path d="M34.8412, -15.5466 Q35.0166, -15.5981 35.1721, -15.6878 " /><path d="M35.1721, -15.6878 C35.7281, -16.0039 36.0625, -16.6951 36.0889, -17.57 " /><path d="M36.1774, -17.621 C36.2123, -18.544 35.8996, -19.6597 35.3476, -20.6223  C35.0019, -21.23 34.5669, -21.7749 34.1029, -22.1863  C33.8077, -22.4479 33.51, -22.6516 33.2097, -22.7975  C32.6079, -23.0909 32.0341, -23.1163 31.6141, -22.8712 " /><path d="M31.131, -19.7501 Q31.1876, -19.58 31.2557, -19.4094 " /><path d="M35.9676, -16.1471 C36.5236, -16.4632 36.858, -17.1543 36.8845, -18.0293 " /><path d="M36.0889, -17.57 C36.1216, -18.4445 35.8439, -19.4921 35.3436, -20.4185  C35.0268, -21.0096 34.6242, -21.5498 34.1873, -21.9744  C33.8573, -22.2959 33.5084, -22.5517 33.1662, -22.7242  C32.5482, -23.0382 31.956, -23.0715 31.5257, -22.8202 " /><path d="M31.5257, -22.8202 Q31.3699, -22.7302 31.2434, -22.5947 " /><path d="M35.5483, -15.9548 Q35.7238, -16.0064 35.8792, -16.0961 " /><path d="M35.8792, -16.0961 C36.4352, -16.4121 36.7696, -17.1033 36.7961, -17.9782 " /><path d="M36.8845, -18.0293 C36.9194, -18.9522 36.6067, -20.068 36.0547, -21.0305  C35.709, -21.6383 35.274, -22.1832 34.81, -22.5946  C34.5148, -22.8562 34.2171, -23.0599 33.9169, -23.2057  C33.315, -23.4992 32.7412, -23.5246 32.3212, -23.2795 " /><path d="M36.6748, -16.5554 C37.2307, -16.8714 37.5651, -17.5626 37.5916, -18.4375 " /><path d="M36.7961, -17.9782 C36.8287, -18.8528 36.551, -19.9004 36.0508, -20.8268  C35.7339, -21.4179 35.3313, -21.958 34.8944, -22.3827  C34.5644, -22.7042 34.2155, -22.9599 33.8733, -23.1325  C33.2554, -23.4464 32.6631, -23.4798 32.2328, -23.2284 " /><path d="M32.2328, -23.2284 Q32.077, -23.1384 31.9505, -23.0029 " /><path d="M36.2554, -16.3631 Q36.4309, -16.4146 36.5863, -16.5043 " /><path d="M36.5863, -16.5043 C37.1423, -16.8204 37.4767, -17.5116 37.5032, -18.3865 " /><path d="M37.5916, -18.4375 C37.6265, -19.3605 37.3138, -20.4762 36.7618, -21.4388  C36.4161, -22.0465 35.9811, -22.5914 35.5171, -23.0028  C35.2219, -23.2644 34.9242, -23.4681 34.624, -23.6139  C34.0221, -23.9074 33.4483, -23.9328 33.0283, -23.6877 " /><path d="M32.5452, -20.5665 Q32.6018, -20.3965 32.6699, -20.2259 " /><path d="M37.3819, -16.9636 C37.9378, -17.2797 38.2722, -17.9708 38.2987, -18.8458 " /><path d="M37.5032, -18.3865 C37.5358, -19.261 37.2581, -20.3087 36.7578, -21.235  C36.441, -21.8262 36.0384, -22.3663 35.6015, -22.791  C35.2718, -23.1122 34.9231, -23.3678 34.5811, -23.5404  C33.9629, -23.8546 33.3704, -23.8881 32.9399, -23.6367 " /><path d="M32.9399, -23.6367 Q32.7841, -23.5467 32.6576, -23.4112 " /><path d="M36.9626, -16.7713 Q37.138, -16.8228 37.2935, -16.9126 " /><path d="M37.2935, -16.9126 C37.8494, -17.2286 38.1838, -17.9198 38.2103, -18.7947 " /><path d="M38.2987, -18.8458 C38.3336, -19.7687 38.0209, -20.8845 37.4689, -21.847  C37.1232, -22.4548 36.6882, -22.9997 36.2242, -23.4111  C35.929, -23.6727 35.6313, -23.8764 35.3311, -24.0222  C34.7292, -24.3157 34.1554, -24.3411 33.7354, -24.096 " /><path d="M33.2524, -20.9748 Q33.3089, -20.8047 33.377, -20.6342 " /><path d="M38.089, -17.3719 C38.6449, -17.6879 38.9793, -18.3791 39.0058, -19.254 " /><path d="M38.2103, -18.7947 C38.2429, -19.6693 37.9652, -20.7169 37.4649, -21.6433  C37.148, -22.2344 36.7455, -22.7746 36.3086, -23.1992  C35.9791, -23.5202 35.6307, -23.7757 35.2889, -23.9482  C34.6705, -24.2629 34.0777, -24.2965 33.647, -24.0449 " /><path d="M33.647, -24.0449 Q33.4912, -23.9549 33.3647, -23.8194 " /><path d="M37.6697, -17.1796 Q37.8451, -17.2311 38.0006, -17.3208 " /><path d="M38.0006, -17.3208 C38.5565, -17.6369 38.8909, -18.3281 38.9174, -19.203 " /><path d="M39.0058, -19.254 C39.0407, -20.177 38.728, -21.2927 38.176, -22.2553  C37.8303, -22.863 37.3953, -23.4079 36.9313, -23.8193  C36.6361, -24.0809 36.3384, -24.2846 36.0382, -24.4304  C35.4363, -24.7239 34.8625, -24.7493 34.4425, -24.5042 " /><path d="M33.9595, -21.383 Q34.016, -21.2129 34.0841, -21.0424 " /><path d="M38.7961, -17.7801 C39.352, -18.0962 39.6864, -18.7873 39.7129, -19.6623 " /><path d="M38.9174, -19.203 C38.95, -20.0775 38.6723, -21.1252 38.172, -22.0516  C37.8552, -22.6427 37.4526, -23.1828 37.0157, -23.6075  C36.6863, -23.9284 36.338, -24.1838 35.9964, -24.3563  C35.3778, -24.6711 34.7849, -24.7047 34.3541, -24.4532 " /><path d="M34.3541, -24.4532 Q34.1984, -24.3632 34.0718, -24.2277 " /><path d="M38.3768, -17.5878 Q38.5522, -17.6393 38.7077, -17.7291 " /><path d="M38.7077, -17.7291 C39.2636, -18.0451 39.598, -18.7363 39.6245, -19.6112 " /><path d="M39.7129, -19.6623 C39.7478, -20.5852 39.4351, -21.701 38.8831, -22.6635  C38.5374, -23.2713 38.1024, -23.8162 37.6384, -24.2276  C37.3432, -24.4892 37.0455, -24.6929 36.7453, -24.8387  C36.1435, -25.1322 35.5696, -25.1575 35.1496, -24.9124 " /><path d="M39.5032, -18.1884 C40.0591, -18.5044 40.3935, -19.1956 40.42, -20.0705 " /><path d="M39.6245, -19.6112 C39.6571, -20.4858 39.3794, -21.5334 38.8792, -22.4598  C38.5623, -23.0509 38.1597, -23.5911 37.7228, -24.0157  C37.3933, -24.3368 37.0448, -24.5923 36.703, -24.7648  C36.0846, -25.0794 35.4919, -25.1129 35.0612, -24.8614 " /><path d="M35.0612, -24.8614 Q34.9055, -24.7714 34.7789, -24.6359 " /><path d="M39.0839, -17.9961 Q39.2593, -18.0476 39.4148, -18.1373 " /><path d="M39.4148, -18.1373 C39.9707, -18.4534 40.3051, -19.1445 40.3316, -20.0195 " /><path d="M40.42, -20.0705 C40.455, -20.9935 40.1422, -22.1092 39.5902, -23.0718  C39.2445, -23.6795 38.8095, -24.2244 38.3455, -24.6358  C38.0503, -24.8974 37.7526, -25.1011 37.4524, -25.2469  C36.8506, -25.5404 36.2767, -25.5658 35.8567, -25.3207 " /><path d="M35.3737, -22.1995 Q35.4302, -22.0294 35.4984, -21.8589 " /><path d="M40.2103, -18.5966 C40.7662, -18.9127 41.1006, -19.6038 41.1271, -20.4788 " /><path d="M40.3316, -20.0195 C40.3642, -20.894 40.0865, -21.9417 39.5863, -22.8681  C39.2694, -23.4592 38.8668, -23.9993 38.4299, -24.424  C38.1004, -24.745 37.752, -25.0005 37.4102, -25.173  C36.7918, -25.4876 36.199, -25.5212 35.7683, -25.2697 " /><path d="M35.7683, -25.2697 Q35.6126, -25.1797 35.486, -25.0442 " /><path d="M39.791, -18.4043 Q39.9664, -18.4558 40.1219, -18.5456 " /><path d="M40.1219, -18.5456 C40.6778, -18.8616 41.0122, -19.5528 41.0387, -20.4277 " /><path d="M41.1271, -20.4788 C41.1621, -21.4017 40.8493, -22.5175 40.2973, -23.48  C39.9516, -24.0878 39.5166, -24.6327 39.0526, -25.0441  C38.7574, -25.3057 38.4597, -25.5094 38.1595, -25.6552  C37.5577, -25.9487 36.9838, -25.974 36.5638, -25.7289 " /><path d="M40.9174, -19.0049 C41.4733, -19.3209 41.8078, -20.0121 41.8342, -20.887 " /><path d="M41.0387, -20.4277 C41.0713, -21.3023 40.7936, -22.35 40.2933, -23.2764  C39.9765, -23.8675 39.5739, -24.4076 39.137, -24.8323  C38.8079, -25.1528 38.46, -25.408 38.1188, -25.5805  C37.4998, -25.8958 36.9064, -25.9296 36.4754, -25.6779 " /><path d="M36.4754, -25.6779 Q36.3197, -25.5879 36.1931, -25.4524 " /><path d="M40.4981, -18.8126 Q40.6735, -18.8641 40.829, -18.9538 " /><path d="M40.829, -18.9538 C41.3849, -19.2699 41.7193, -19.961 41.7458, -20.836 " /><path d="M41.8342, -20.887 C41.8692, -21.81 41.5564, -22.9257 41.0044, -23.8883  C40.6587, -24.496 40.2237, -25.0409 39.7597, -25.4523  C39.4645, -25.7139 39.1668, -25.9176 38.8666, -26.0634  C38.2648, -26.3569 37.6909, -26.3823 37.2709, -26.1372 " /><path d="M41.6245, -19.4131 C42.1804, -19.7292 42.5149, -20.4203 42.5413, -21.2953 " /><path d="M41.7458, -20.836 C41.7784, -21.7105 41.5007, -22.7582 41.0005, -23.6846  C40.6836, -24.2757 40.281, -24.8158 39.8442, -25.2405  C39.5148, -25.5613 39.1666, -25.8167 38.825, -25.9892  C38.2063, -26.3041 37.6133, -26.3378 37.1825, -26.0862 " /><path d="M37.1825, -26.0862 Q37.0268, -25.9962 36.9003, -25.8607 " /><path d="M41.2052, -19.2208 Q41.3806, -19.2723 41.5361, -19.3621 " /><path d="M41.5361, -19.3621 C42.092, -19.6781 42.4265, -20.3693 42.4529, -21.2442 " /><path d="M42.5413, -21.2953 C42.5763, -22.2182 42.2636, -23.334 41.7115, -24.2965  C41.3658, -24.9043 40.9308, -25.4492 40.4668, -25.8606  C40.1716, -26.1222 39.8739, -26.3259 39.5737, -26.4717  C38.9719, -26.7652 38.398, -26.7905 37.9781, -26.5454 " /><path d="M42.3316, -19.8214 C42.8875, -20.1374 43.222, -20.8286 43.2484, -21.7035 " /><path d="M42.4529, -21.2442 C42.4855, -22.1188 42.2078, -23.1665 41.7076, -24.0929  C41.3907, -24.684 40.9881, -25.2241 40.5512, -25.6488  C40.2223, -25.9691 39.8746, -26.2242 39.5336, -26.3967  C38.9144, -26.7123 38.3208, -26.7462 37.8897, -26.4944 " /><path d="M37.8897, -26.4944 Q37.7339, -26.4044 37.6074, -26.2689 " /><path d="M41.9123, -19.629 Q42.0877, -19.6806 42.2432, -19.7703 " /><path d="M42.2432, -19.7703 C42.7991, -20.0864 43.1336, -20.7775 43.16, -21.6525 " /><path d="M43.2484, -21.7035 C43.2834, -22.6265 42.9707, -23.7422 42.4186, -24.7048  C42.0729, -25.3125 41.638, -25.8574 41.1739, -26.2688  C40.8787, -26.5304 40.581, -26.7341 40.2808, -26.8799  C39.679, -27.1734 39.1051, -27.1988 38.6852, -26.9537 " /><path d="M43.0387, -20.2296 C43.5946, -20.5457 43.9291, -21.2368 43.9555, -22.1117 " /><path d="M43.16, -21.6525 C43.1926, -22.527 42.915, -23.5747 42.4147, -24.5011  C42.0978, -25.0922 41.6952, -25.6323 41.2584, -26.057  C40.9291, -26.3777 40.5811, -26.633 40.2397, -26.8055  C39.6209, -27.1206 39.0276, -27.1543 38.5968, -26.9027 " /><path d="M38.5968, -26.9027 Q38.441, -26.8127 38.3145, -26.6772 " /><path d="M42.6194, -20.0373 Q42.7948, -20.0888 42.9503, -20.1786 " /><path d="M42.9503, -20.1786 C43.5063, -20.4946 43.8407, -21.1858 43.8671, -22.0607 " /><path d="M43.9555, -22.1117 C43.9905, -23.0347 43.6778, -24.1505 43.1257, -25.113  C42.78, -25.7207 42.3451, -26.2657 41.8811, -26.6771  C41.5859, -26.9387 41.2881, -27.1424 40.9879, -27.2882  C40.3861, -27.5817 39.8122, -27.607 39.3923, -27.3619 " /><path d="M43.7458, -20.6379 C44.3017, -20.9539 44.6362, -21.6451 44.6626, -22.52 " /><path d="M43.8671, -22.0607 C43.8997, -22.9353 43.6221, -23.9829 43.1218, -24.9094  C42.8049, -25.5005 42.4023, -26.0406 41.9655, -26.4652  C41.6364, -26.7858 41.2885, -27.041 40.9472, -27.2135  C40.3282, -27.5288 39.7349, -27.5626 39.3039, -27.3109 " /><path d="M39.3039, -27.3109 Q39.1481, -27.2209 39.0216, -27.0854 " /><path d="M43.3265, -20.4455 Q43.5019, -20.4971 43.6574, -20.5868 " /><path d="M43.6574, -20.5868 C44.2134, -20.9029 44.5478, -21.594 44.5742, -22.469 " /><path d="M43.3385 -26.0998 A4 2.3094 60 0 1 44.611 -23.3428" />
<path d="M44.6626, -22.52 Q44.6757, -22.9142 44.611, -23.3428 " /><path d="M44.5742, -22.469 C44.5839, -22.7618 44.5615, -23.0684 44.5071, -23.3885  C44.3524, -24.3103 43.9221, -25.3005 43.3385, -26.0998 " /><path d="M44.6891, -22.9688 Q44.6891, -22.7593 44.6639, -22.5654 " /><path d="M39.959, -27.5264 C40.4373, -27.8852 41.1613, -27.8422 41.8999, -27.4116 " /><path d="M41.8999, -27.4116 C42.4013, -27.123 42.9057, -26.6635 43.3385, -26.0998 " /><path id= "169" d=" M 44.6891 -22.9688 L 44.6891 -23.1885 " />
<path d="M42.4264 -27.1077 A3.2 1.84752 60 0 1 44.6891 -23.1885" />
<path d="M44.6891, -22.9688 Q44.6891, -23.1176 44.6764, -23.2726 " /><path d="M42.2508, -27.2087 L42.2898, -27.1866 " /><path d="M42.2898, -27.1866 C42.8094, -26.8903 43.3495, -26.3725 43.7703, -25.7393  C44.2775, -24.9854 44.6132, -24.075 44.6764, -23.2726 " /><path d="M44.611, -23.3428 C44.4563, -24.2537 44.0561, -25.2056 43.5258, -25.9566  C43.129, -26.5226 42.6631, -26.9721 42.2162, -27.229 " /></g>

</svg>
