<svg xmlns="http://www.w3.org/2000/svg" viewBox="-10.524000000000001 -12.72955 75.74799999999999 25.4591">
<rect width="100%" height="100%" fill="white"/>
<g   fill="none"
   stroke="rgb(0, 0, 0)"
   stroke-linecap="butt"
   stroke-linejoin="miter"
   stroke-width="0.35"
   transform="scale(1, -1)"
  >
<path id= "1" d=" M -5.3 -6.5 L -4.98942 -7.50555 " />
<path id= "2" d=" M -0.6 -5.735 L 0 -5.735 " />
<path d="M0.4, -4 C0.296188, -3.99959 0.193081, -4.04183 0.119387, -4.11494  C0.043595, -4.18894 -0.000441116, -4.29408 0, -4.4 " /><path id= "4" d=" M 0.4 -4 L 38.6625 -4 " />
<path d="M38.7135, 3.44881 Q38.7056, 3.43412 38.6865, 3.41742  Q38.6501, 3.38759 38.6, 3.3866 " /><path d="M39.0269, 3.99053 L38.7135, 3.44881 " /><path id= "7" d=" M 39.5375 -4 L 39.6625 -4 " />
<path d="M38.4877, 3.44784 L38.1735, 3.99054 " /><path d="M38.9877, -3.44783 L38.6735, -3.99054 " /><path d="M39.2124, -3.44784 Q39.2048, -3.43378 39.1859, -3.41719  Q39.1588, -3.39469 39.1214, -3.38828  Q39.1107, -3.38744 39.1, -3.3866  Q39.0518, -3.38748 39.0162, -3.41549  Q38.9957, -3.43281 38.9877, -3.44783 " /><path d="M39.7124, 3.44784 Q39.7048, 3.43378 39.6859, 3.41719  Q39.6499, 3.38762 39.6, 3.3866 " /><path d="M38.6, 3.3866 Q38.5518, 3.38749 38.5162, 3.4155  Q38.4957, 3.43282 38.4877, 3.44784 " /><path d="M39.5265, -3.99053 L39.2124, -3.44784 " /><path d="M40.0265, 3.99053 L39.7124, 3.44784 " /><path id= "15" d=" M 40.5375 -4 L 40.6625 -4 " />
<path d="M39.4877, 3.44783 L39.1735, 3.99054 " /><path d="M39.9877, -3.44783 L39.6735, -3.99054 " /><path d="M40.2124, -3.44784 Q40.2048, -3.43377 40.1859, -3.41719  Q40.1588, -3.39469 40.1214, -3.38828  Q40.1107, -3.38744 40.1, -3.3866  Q40.0518, -3.38748 40.0162, -3.41549  Q39.9957, -3.43281 39.9877, -3.44783 " /><path d="M40.7124, 3.44784 Q40.7048, 3.43378 40.6859, 3.41719  Q40.6499, 3.38762 40.6, 3.3866 " /><path d="M39.6, 3.3866 Q39.5518, 3.38749 39.5162, 3.4155  Q39.4957, 3.43282 39.4877, 3.44783 " /><path d="M40.5265, -3.99053 L40.2124, -3.44784 " /><path d="M41.0265, 3.99053 L40.7124, 3.44784 " /><path id= "23" d=" M 41.5375 -4 L 41.6625 -4 " />
<path d="M40.4877, 3.44783 L40.1735, 3.99054 " /><path d="M40.9877, -3.44783 L40.6735, -3.99054 " /><path d="M41.2124, -3.44784 Q41.2048, -3.43377 41.1859, -3.41719  Q41.1588, -3.39468 41.1214, -3.38828  Q41.1107, -3.38744 41.1, -3.3866  Q41.0518, -3.38748 41.0162, -3.41549  Q40.9957, -3.43281 40.9877, -3.44783 " /><path d="M41.7124, 3.44784 Q41.7048, 3.43378 41.6859, 3.41719  Q41.6499, 3.38761 41.6, 3.3866 " /><path d="M40.6, 3.3866 Q40.5518, 3.38749 40.5162, 3.4155  Q40.4957, 3.43282 40.4877, 3.44783 " /><path d="M41.5265, -3.99053 L41.2124, -3.44784 " /><path d="M42.0265, 3.99053 L41.7124, 3.44784 " /><path id= "31" d=" M 42.5375 -4 L 42.6625 -4 " />
<path d="M41.4877, 3.44783 L41.1735, 3.99054 " /><path d="M41.9877, -3.44782 L41.6735, -3.99054 " /><path d="M42.2124, -3.44783 Q42.2048, -3.43377 42.1859, -3.41718  Q42.1588, -3.39468 42.1214, -3.38828  Q42.1107, -3.38743 42.1, -3.38659  Q42.0518, -3.38748 42.0162, -3.41549  Q41.9957, -3.43281 41.9877, -3.44782 " /><path d="M42.7124, 3.44784 Q42.7048, 3.43377 42.6859, 3.41719  Q42.6499, 3.38761 42.6, 3.3866 " /><path d="M41.6, 3.3866 Q41.5518, 3.38749 41.5162, 3.4155  Q41.4957, 3.43281 41.4877, 3.44783 " /><path d="M42.5265, -3.99053 L42.2124, -3.44783 " /><path d="M43.0265, 3.99053 L42.7124, 3.44784 " /><path id= "39" d=" M 43.5375 -4 L 43.6625 -4 " />
<path d="M42.4877, 3.44783 L42.1735, 3.99053 " /><path d="M42.9877, -3.44782 L42.6735, -3.99054 " /><path d="M43.2124, -3.44783 Q43.2048, -3.43377 43.1859, -3.41718  Q43.1588, -3.39468 43.1214, -3.38827  Q43.1107, -3.38743 43.1, -3.38659  Q43.0518, -3.38748 43.0162, -3.41549  Q42.9957, -3.43281 42.9877, -3.44782 " /><path d="M43.7124, 3.44784 Q43.7048, 3.43377 43.6859, 3.41719  Q43.6499, 3.38761 43.6, 3.3866 " /><path d="M42.6, 3.3866 Q42.5518, 3.38748 42.5162, 3.41549  Q42.4957, 3.43281 42.4877, 3.44783 " /><path d="M43.5265, -3.99053 L43.2124, -3.44783 " /><path d="M44.0265, 3.99053 L43.7124, 3.44784 " /><path id= "47" d=" M 44.5375 -4 L 44.6625 -4 " />
<path d="M43.4877, 3.44783 L43.1735, 3.99053 " /><path d="M43.9877, -3.44782 L43.6735, -3.99054 " /><path d="M44.2124, -3.44783 Q44.2048, -3.43377 44.1859, -3.41718  Q44.1588, -3.39468 44.1214, -3.38827  Q44.1107, -3.38743 44.1, -3.38659  Q44.0518, -3.38748 44.0162, -3.41549  Q43.9957, -3.43281 43.9877, -3.44782 " /><path d="M44.7124, 3.44783 Q44.7048, 3.43377 44.6859, 3.41718  Q44.6499, 3.38761 44.6, 3.38659 " /><path d="M43.6, 3.3866 Q43.5518, 3.38748 43.5162, 3.41549  Q43.4957, 3.43281 43.4877, 3.44783 " /><path d="M44.5265, -3.99053 L44.2124, -3.44783 " /><path d="M45.0265, 3.99053 L44.7124, 3.44783 " /><path id= "55" d=" M 45.5375 -4 L 45.6625 -4 " />
<path d="M44.4877, 3.44783 L44.1735, 3.99053 " /><path d="M44.9877, -3.44782 L44.6735, -3.99054 " /><path d="M45.2124, -3.44783 Q45.2048, -3.43376 45.1859, -3.41718  Q45.1588, -3.39468 45.1214, -3.38827  Q45.1107, -3.38743 45.1, -3.38659  Q45.0518, -3.38748 45.0162, -3.41549  Q44.9957, -3.43281 44.9877, -3.44782 " /><path d="M45.7124, 3.44783 Q45.7048, 3.43377 45.6859, 3.41718  Q45.6499, 3.38761 45.6, 3.38659 " /><path d="M44.6, 3.38659 Q44.5518, 3.38748 44.5162, 3.41549  Q44.4957, 3.43281 44.4877, 3.44783 " /><path d="M45.5265, -3.99053 L45.2124, -3.44783 " /><path d="M46.0265, 3.99053 L45.7124, 3.44783 " /><path id= "63" d=" M 46.5375 -4 L 46.6625 -4 " />
<path d="M45.4877, 3.44783 L45.1735, 3.99053 " /><path d="M45.9877, -3.44782 L45.6735, -3.99054 " /><path d="M46.2124, -3.44783 Q46.2048, -3.43376 46.1859, -3.41718  Q46.1588, -3.39467 46.1214, -3.38827  Q46.1107, -3.38743 46.1, -3.38659  Q46.0518, -3.38747 46.0162, -3.41548  Q45.9957, -3.4328 45.9877, -3.44782 " /><path d="M46.7124, 3.44783 Q46.7048, 3.43377 46.6859, 3.41718  Q46.6499, 3.3876 46.6, 3.38659 " /><path d="M45.6, 3.38659 Q45.5518, 3.38748 45.5162, 3.41549  Q45.4957, 3.43281 45.4877, 3.44783 " /><path d="M46.5265, -3.99053 L46.2124, -3.44783 " /><path d="M47.0265, 3.99053 L46.7124, 3.44783 " /><path id= "71" d=" M 47.5375 -4 L 47.6625 -4 " />
<path d="M46.4877, 3.44782 L46.1735, 3.99053 " /><path d="M46.9877, -3.44782 L46.6735, -3.99054 " /><path d="M47.2124, -3.44782 Q47.2048, -3.43376 47.1859, -3.41717  Q47.1588, -3.39467 47.1214, -3.38827  Q47.1107, -3.38743 47.1, -3.38658  Q47.0518, -3.38747 47.0162, -3.41548  Q46.9957, -3.4328 46.9877, -3.44782 " /><path d="M47.7124, 3.44783 Q47.7048, 3.43376 47.6859, 3.41718  Q47.6499, 3.3876 47.6, 3.38659 " /><path d="M46.6, 3.38659 Q46.5518, 3.38748 46.5162, 3.41549  Q46.4957, 3.43281 46.4877, 3.44782 " /><path d="M47.5265, -3.99053 L47.2124, -3.44782 " /><path d="M48.0265, 3.99053 L47.7124, 3.44783 " /><path id= "79" d=" M 48.5375 -4 L 48.6625 -4 " />
<path d="M47.4877, 3.44782 L47.1735, 3.99053 " /><path d="M47.9877, -3.44782 L47.6735, -3.99054 " /><path d="M48.2124, -3.44782 Q48.2048, -3.43376 48.1859, -3.41717  Q48.1588, -3.39467 48.1214, -3.38827  Q48.1107, -3.38742 48.1, -3.38658  Q48.0518, -3.38747 48.0162, -3.41548  Q47.9957, -3.4328 47.9877, -3.44782 " /><path d="M48.7124, 3.44783 Q48.7048, 3.43376 48.6859, 3.41718  Q48.6499, 3.3876 48.6, 3.38659 " /><path d="M47.6, 3.38659 Q47.5518, 3.38748 47.5162, 3.41549  Q47.4957, 3.43281 47.4877, 3.44782 " /><path d="M48.5265, -3.99053 L48.2124, -3.44782 " /><path d="M49.0265, 3.99053 L48.7124, 3.44783 " /><path id= "87" d=" M 49.5375 -4 L 49.6625 -4 " />
<path d="M48.4877, 3.44782 L48.1735, 3.99053 " /><path d="M48.9877, -3.44781 L48.6735, -3.99054 " /><path d="M49.2124, -3.44782 Q49.2048, -3.43376 49.1859, -3.41717  Q49.1588, -3.39467 49.1214, -3.38826  Q49.1107, -3.38742 49.1, -3.38658  Q49.0518, -3.38747 49.0162, -3.41548  Q48.9957, -3.4328 48.9877, -3.44781 " /><path d="M49.7124, 3.44782 Q49.7048, 3.43376 49.6859, 3.41717  Q49.6499, 3.3876 49.6, 3.38659 " /><path d="M48.6, 3.38659 Q48.5518, 3.38747 48.5162, 3.41548  Q48.4957, 3.4328 48.4877, 3.44782 " /><path d="M49.5265, -3.99053 L49.2124, -3.44782 " /><path d="M50.0265, 3.99053 L49.7124, 3.44782 " /><path id= "95" d=" M 50.5375 -4 L 50.6625 -4 " />
<path d="M49.4877, 3.44782 L49.1735, 3.99053 " /><path d="M49.9877, -3.44781 L49.6735, -3.99054 " /><path d="M50.2124, -3.44782 Q50.2048, -3.43375 50.1859, -3.41717  Q50.1588, -3.39467 50.1214, -3.38826  Q50.1107, -3.38742 50.1, -3.38658  Q50.0518, -3.38747 50.0162, -3.41548  Q49.9957, -3.4328 49.9877, -3.44781 " /><path d="M50.7124, 3.44782 Q50.7048, 3.43376 50.6859, 3.41717  Q50.6499, 3.3876 50.6, 3.38658 " /><path d="M49.6, 3.38659 Q49.5518, 3.38747 49.5162, 3.41548  Q49.4957, 3.4328 49.4877, 3.44782 " /><path d="M50.5265, -3.99053 L50.2124, -3.44782 " /><path d="M51.0265, 3.99053 L50.7124, 3.44782 " /><path id= "103" d=" M 51.5375 -4 L 51.6625 -4 " />
<path d="M50.4877, 3.44782 L50.1735, 3.99053 " /><path d="M50.9877, -3.44781 L50.6735, -3.99054 " /><path d="M51.2124, -3.44782 Q51.2048, -3.43375 51.1859, -3.41717  Q51.1588, -3.39466 51.1214, -3.38826  Q51.1107, -3.38742 51.1, -3.38658  Q51.0518, -3.38747 51.0162, -3.41548  Q50.9957, -3.4328 50.9877, -3.44781 " /><path d="M51.7124, 3.44782 Q51.7048, 3.43376 51.6859, 3.41717  Q51.6499, 3.3876 51.6, 3.38658 " /><path d="M50.6, 3.38658 Q50.5518, 3.38747 50.5162, 3.41548  Q50.4957, 3.4328 50.4877, 3.44782 " /><path d="M51.5265, -3.99053 L51.2124, -3.44782 " /><path d="M52.0265, 3.99053 L51.7124, 3.44782 " /><path id= "111" d=" M 52.5375 -4 L 52.6625 -4 " />
<path d="M51.4877, 3.44782 L51.1735, 3.99053 " /><path d="M51.9877, -3.44781 L51.6735, -3.99054 " /><path d="M52.2124, -3.44781 Q52.2048, -3.43375 52.1859, -3.41716  Q52.1588, -3.39466 52.1214, -3.38826  Q52.1107, -3.38742 52.1, -3.38658  Q52.0518, -3.38746 52.0162, -3.41548  Q51.9957, -3.4328 51.9877, -3.44781 " /><path d="M52.7124, 3.44782 Q52.7048, 3.43375 52.6859, 3.41717  Q52.6499, 3.38759 52.6, 3.38658 " /><path d="M51.6, 3.38658 Q51.5518, 3.38747 51.5162, 3.41548  Q51.4957, 3.4328 51.4877, 3.44782 " /><path d="M52.5265, -3.99053 L52.2124, -3.44781 " /><path d="M53.0265, 3.99053 L52.7124, 3.44782 " /><path id= "119" d=" M 53.5375 -4 L 53.6625 -4 " />
<path d="M52.4877, 3.44781 L52.1735, 3.99053 " /><path d="M52.9877, -3.44781 L52.6735, -3.99054 " /><path d="M53.2124, -3.44781 Q53.2048, -3.43375 53.1859, -3.41716  Q53.1588, -3.39466 53.1214, -3.38826  Q53.1107, -3.38742 53.1, -3.38657  Q53.0518, -3.38746 53.0162, -3.41547  Q52.9957, -3.43279 52.9877, -3.44781 " /><path d="M53.7124, 3.44782 Q53.7048, 3.43375 53.6859, 3.41717  Q53.6499, 3.38759 53.6, 3.38658 " /><path d="M52.6, 3.38658 Q52.5518, 3.38747 52.5162, 3.41548  Q52.4957, 3.4328 52.4877, 3.44781 " /><path d="M53.5265, -3.99053 L53.2124, -3.44781 " /><path d="M54.0265, 3.99053 L53.7124, 3.44782 " /><path id= "127" d=" M 54.5375 -4 L 54.6625 -4 " />
<path d="M53.4877, 3.44781 L53.1735, 3.99053 " /><path d="M53.9877, -3.44781 L53.6735, -3.99054 " /><path d="M54.2124, -3.44781 Q54.2048, -3.43375 54.1859, -3.41716  Q54.1588, -3.39466 54.1214, -3.38825  Q54.1107, -3.38741 54.1, -3.38657  Q54.0518, -3.38746 54.0162, -3.41547  Q53.9957, -3.43279 53.9877, -3.44781 " /><path d="M54.7124, 3.44781 Q54.7048, 3.43375 54.6859, 3.41716  Q54.6499, 3.38759 54.6, 3.38658 " /><path d="M53.6, 3.38658 Q53.5518, 3.38747 53.5162, 3.41548  Q53.4957, 3.4328 53.4877, 3.44781 " /><path d="M54.5265, -3.99053 L54.2124, -3.44781 " /><path d="M55.0265, 3.99053 L54.7124, 3.44781 " /><path id= "135" d=" M 55.5375 -4 L 55.6625 -4 " />
<path d="M54.4877, 3.44781 L54.1735, 3.99053 " /><path d="M54.9877, -3.44781 L54.6735, -3.99054 " /><path d="M55.2124, -3.44781 Q55.2048, -3.43374 55.1859, -3.41716  Q55.1587, -3.39466 55.1214, -3.38825  Q55.1107, -3.38741 55.1, -3.38657  Q55.0518, -3.38746 55.0162, -3.41547  Q54.9957, -3.43279 54.9877, -3.44781 " /><path d="M55.7124, 3.44781 Q55.7048, 3.43375 55.6859, 3.41716  Q55.6499, 3.38759 55.6, 3.38658 " /><path d="M54.6, 3.38658 Q54.5518, 3.38746 54.5162, 3.41547  Q54.4957, 3.4328 54.4877, 3.44781 " /><path d="M55.5265, -3.99053 L55.2124, -3.44781 " /><path d="M56.0265, 3.99053 L55.7124, 3.44781 " /><path id= "143" d=" M 56.5375 -4 L 56.6625 -4 " />
<path d="M55.4877, 3.44781 L55.1735, 3.99053 " /><path d="M55.9877, -3.4478 L55.6734, -3.99054 " /><path d="M56.2124, -3.44781 Q56.2048, -3.43374 56.1859, -3.41716  Q56.1587, -3.39466 56.1214, -3.38825  Q56.1107, -3.38741 56.1, -3.38657  Q56.0518, -3.38746 56.0162, -3.41547  Q55.9957, -3.43279 55.9877, -3.4478 " /><path d="M56.7123, 3.44781 Q56.7048, 3.43375 56.6859, 3.41716  Q56.6499, 3.38759 56.6, 3.38657 " /><path d="M55.6, 3.38658 Q55.5518, 3.38746 55.5162, 3.41547  Q55.4957, 3.43279 55.4877, 3.44781 " /><path d="M56.5265, -3.99053 L56.2124, -3.44781 " /><path d="M57.0265, 3.99053 L56.7123, 3.44781 " /><path id= "151" d=" M 57.5375 -4 L 57.6625 -4 " />
<path d="M56.4877, 3.44781 L56.1735, 3.99053 " /><path d="M56.9877, -3.4478 L56.6734, -3.99054 " /><path d="M57.2123, -3.4478 Q57.2048, -3.43374 57.1859, -3.41715  Q57.1587, -3.39465 57.1214, -3.38825  Q57.1107, -3.38741 57.1, -3.38657  Q57.0518, -3.38746 57.0162, -3.41547  Q56.9957, -3.43279 56.9877, -3.4478 " /><path d="M57.7123, 3.44781 Q57.7048, 3.43374 57.6859, 3.41716  Q57.6499, 3.38759 57.6, 3.38657 " /><path d="M56.6, 3.38657 Q56.5518, 3.38746 56.5162, 3.41547  Q56.4957, 3.43279 56.4877, 3.44781 " /><path d="M57.5265, -3.99053 L57.2123, -3.4478 " /><path d="M58.0265, 3.99053 L57.7123, 3.44781 " /><path id= "159" d=" M 58.5375 -4 L 58.6625 -4 " />
<path d="M57.4877, 3.44781 L57.1735, 3.99053 " /><path d="M57.9877, -3.4478 L57.6734, -3.99053 " /><path d="M58.2123, -3.4478 Q58.2048, -3.43374 58.1859, -3.41715  Q58.1587, -3.39465 58.1214, -3.38825  Q58.1107, -3.38741 58.1, -3.38657  Q58.0518, -3.38745 58.0162, -3.41547  Q57.9957, -3.43279 57.9877, -3.4478 " /><path d="M58.7123, 3.44781 Q58.7048, 3.43374 58.6859, 3.41716  Q58.6499, 3.38758 58.6, 3.38657 " /><path d="M57.6, 3.38657 Q57.5518, 3.38746 57.5162, 3.41547  Q57.4957, 3.43279 57.4877, 3.44781 " /><path d="M58.5265, -3.99053 L58.2123, -3.4478 " /><path d="M59.0265, 3.99053 L58.7123, 3.44781 " /><path d="M58.4877, 3.44781 L58.1735, 3.99053 " /><path d="M58.9877, -3.4478 L58.6734, -3.99053 " /><path d="M59.2123, -3.4478 Q59.2048, -3.43374 59.1859, -3.41715  Q59.1587, -3.39465 59.1214, -3.38825  Q59.1107, -3.3874 59.1, -3.38656  Q59.0518, -3.38745 59.0162, -3.41546  Q58.9957, -3.43279 58.9877, -3.4478 " /><path d="M59.7123, 3.4478 Q59.7048, 3.43374 59.6859, 3.41716  Q59.6499, 3.38758 59.6, 3.38657 " /><path d="M58.6, 3.38657 Q58.5518, 3.38746 58.5162, 3.41547  Q58.4957, 3.43279 58.4877, 3.44781 " /><path d="M59.2123, -3.4478 L59.4066, -3.78338 " /><path d="M59.7123, 3.4478 L59.723, 3.46615 " /><path id= "174" d=" M 60 -3.2 L 59.414 -3.78603 " />
<path d="M59.4877, 3.4478 L59.1735, 3.99053 " /><path d="M59.6, 3.38657 Q59.5518, 3.38746 59.5162, 3.41547  Q59.4957, 3.43279 59.4877, 3.4478 " /></g>
<g   fill="none"
   stroke="rgb(0, 0, 0)"
   stroke-linecap="butt"
   stroke-linejoin="miter"
   stroke-width="0.35"
   transform="scale(1, -1)"
  >
<path d="M-5.3, 5.62917 L-5.3, 5.74675  L-5.3, 5.8563  L-5.3, 5.95765  L-5.3, 6.05068  L-5.3, 6.13524  L-5.3, 6.21122  L-5.3, 6.27852  L-5.3, 6.33703  L-5.3, 6.38668  L-5.3, 6.4274  L-5.3, 6.45913  L-5.3, 6.48182  L-5.3, 6.49545  L-5.3, 6.5 " /><path d="M-5.3, -6.99441e-15 C-5.3, 0.486484 -5.3, 0.970949 -5.3, 1.44639  C-5.3, 1.60289 -5.3, 1.7594 -5.3, 1.91591  C-5.3, 2.06884 -5.3, 2.22178 -5.3, 2.37472  C-5.3, 2.52323 -5.3, 2.67174 -5.3, 2.82024  C-5.3, 2.9635 -5.3, 3.10675 -5.3, 3.25  C-5.3, 3.38719 -5.3, 3.52439 -5.3, 3.66158  C-5.3, 3.79195 -5.3, 3.92232 -5.3, 4.05268  C-5.3, 4.1755 -5.3, 4.29831 -5.3, 4.42112  C-5.3, 4.53569 -5.3, 4.65027 -5.3, 4.76484  C-5.3, 4.87053 -5.3, 4.97622 -5.3, 5.0819  C-5.3, 5.17812 -5.3, 5.27434 -5.3, 5.37055  C-5.3, 5.45676 -5.3, 5.54296 -5.3, 5.62917 " /><path d="M-5.3, -5.62917 Q-5.3, -5.49986 -5.3, -5.37055  Q-5.3, -5.22623 -5.3, -5.0819  Q-5.3, -4.92337 -5.3, -4.76484  Q-5.3, -4.59298 -5.3, -4.42112  Q-5.3, -4.2369 -5.3, -4.05268  Q-5.3, -3.85713 -5.3, -3.66158  Q-5.3, -3.45579 -5.3, -3.25  Q-5.3, -3.03512 -5.3, -2.82024  Q-5.3, -2.59748 -5.3, -2.37472  Q-5.3, -2.14531 -5.3, -1.91591  Q-5.3, -1.68115 -5.3, -1.44639  Q-5.3, -1.20758 -5.3, -0.968775  Q-5.3, -0.486507 -5.3, -6.99441e-15 " /><path d="M-5.3, -6.5 L-5.3, -6.49545  L-5.3, -6.48182  L-5.3, -6.45913  L-5.3, -6.4274  L-5.3, -6.38668  L-5.3, -6.33703  L-5.3, -6.27852  L-5.3, -6.21122  L-5.3, -6.13524  L-5.3, -6.05068  L-5.3, -5.95765  L-5.3, -5.8563  L-5.3, -5.74675  L-5.3, -5.62917 " /><path id= "5" d=" M -5.3 6.5 L -4.98942 7.50555 " />
<path d="M-5.3, -5.62917 C-5.29902, -6.22436 -5.20057, -6.81919 -4.98942, -7.50555 " /><path d="M-4.98942, -3.75278 C-5.20057, -4.43914 -5.29902, -5.03397 -5.3, -5.62917 " /><path d="M-5.3, -6.66134e-15 C-5.29902, -1.19039 -5.20057, -2.38006 -4.98942, -3.75278 " /><path d="M-4.98942, 3.75278 C-5.20057, 2.38006 -5.29902, 1.19039 -5.3, -6.66134e-15 " /><path d="M-5.3, 5.62917 C-5.29902, 5.03397 -5.20057, 4.43914 -4.98942, 3.75278 " /><path d="M-4.98942, 7.50555 C-5.20057, 6.81919 -5.29902, 6.22436 -5.3, 5.62917 " /><path id= "12" d=" M -4.98942 7.50555 L -0.6 7.50555 " />
<path id= "13" d=" M -0.6 -7.50555 L -4.98942 -7.50555 " />
<path id= "14" d=" M -0.6 -3.75278 L -0.6 -7.50555 " />
<path id= "15" d=" M -0.6 -3.75278 L -4.98942 -3.75278 " />
<path id= "16" d=" M -0.6 3.75278 L -0.6 -3.75278 " />
<path id= "17" d=" M -0.6 3.75278 L -4.98942 3.75278 " />
<path id= "18" d=" M -0.6 7.50555 L -0.6 3.75278 " />
<path id= "19" d=" M -0.6 5.735 L 0 5.735 " />
<path d="M0, -5.735 L0, -5.59121  L0, -5.16706  L0, -4.4838  L0, -3.57571  L0, -2.48832  L0, -1.27616  L0, -1.11022e-15  L0, 1.27616  L0, 2.48832  L0, 3.57571  L0, 4.4838  L0, 5.16706  L0, 5.59121  L0, 5.735 " /><path d="M0 4.4 A0.4 0.4 0 0 1 0.4 4" /><path d="M39.0269, 3.99053 Q39.0324, 4 39.0375, 4 " /><path id= "23" d=" M 39.0375 4 L 39.1625 4 " />
<path d="M38.1625, 4 Q38.168, 4 38.1735, 3.99054 " /><path d="M38.1735, 3.99054 C38.2139, 3.9243 38.2544, 3.44961 38.2949, 2.6941  C38.3403, 1.85321 38.3857, 0.669139 38.4311, -0.46536  C38.4696, -1.42923 38.5082, -2.34503 38.5467, -2.9877  C38.5853, -3.63557 38.6239, -4.00315 38.6625, -4 " /><path d="M38.6625, -4 Q38.668, -4 38.6735, -3.99054 " /><path id= "27" d=" M 0.4 4 L 38.1625 4 " />
<path id= "28" d=" M 40.0375 4 L 40.1625 4 " />
<path d="M39.1625, 4 Q39.168, 4 39.1735, 3.99054 " /><path d="M39.1735, 3.99054 C39.2139, 3.9243 39.2544, 3.44961 39.2949, 2.6941  C39.3403, 1.85321 39.3857, 0.669139 39.4311, -0.465359  C39.4696, -1.42923 39.5082, -2.34502 39.5467, -2.9877  C39.5853, -3.63557 39.6239, -4.00315 39.6625, -4 " /><path d="M39.6625, -4 Q39.668, -4 39.6735, -3.99054 " /><path d="M39.0375, 4 C39.0793, 4.00431 39.1211, 3.56984 39.1629, 2.82061  C39.2098, 1.98841 39.2566, 0.771829 39.3035, -0.40178  C39.3382, -1.27187 39.373, -2.109 39.4078, -2.74376  C39.4473, -3.47084 39.4869, -3.92553 39.5265, -3.99053 " /><path d="M39.5265, -3.99053 Q39.532, -4 39.5375, -4 " /><path d="M40.0265, 3.99053 Q40.032, 4 40.0375, 4 " /><path id= "35" d=" M 41.0375 4 L 41.1625 4 " />
<path d="M40.1625, 4 Q40.168, 4 40.1735, 3.99054 " /><path d="M40.1735, 3.99054 C40.2139, 3.9243 40.2544, 3.44961 40.2949, 2.6941  C40.3403, 1.85321 40.3857, 0.669137 40.4311, -0.465363  C40.4696, -1.42924 40.5082, -2.34503 40.5467, -2.98771  C40.5853, -3.63557 40.6239, -4.00315 40.6625, -4 " /><path d="M40.6625, -4 Q40.668, -4 40.6735, -3.99054 " /><path d="M40.0375, 4 C40.0793, 4.00431 40.1211, 3.56984 40.1629, 2.8206  C40.2098, 1.98848 40.2566, 0.772061 40.3035, -0.40144  C40.3383, -1.27322 40.3731, -2.11192 40.408, -2.74718  C40.4475, -3.4723 40.487, -3.92562 40.5265, -3.99053 " /><path d="M40.5265, -3.99053 Q40.532, -4 40.5375, -4 " /><path d="M41.0265, 3.99053 Q41.032, 4 41.0375, 4 " /><path id= "42" d=" M 42.0375 4 L 42.1625 4 " />
<path d="M41.1625, 4 Q41.168, 4 41.1735, 3.99054 " /><path d="M41.1735, 3.99054 C41.2139, 3.9243 41.2544, 3.4496 41.2949, 2.6941  C41.3403, 1.85321 41.3857, 0.669138 41.4311, -0.465362  C41.4696, -1.42923 41.5082, -2.34503 41.5467, -2.98771  C41.5853, -3.63557 41.6239, -4.00315 41.6625, -4 " /><path d="M41.6625, -4 Q41.668, -4 41.6735, -3.99054 " /><path d="M41.0375, 4 C41.0793, 4.00431 41.1211, 3.56983 41.1629, 2.82059  C41.2098, 1.98854 41.2566, 0.772247 41.3035, -0.401167  C41.3386, -1.28205 41.3738, -2.12905 41.409, -2.76676  C41.4482, -3.48064 41.4874, -3.92612 41.5265, -3.99053 " /><path d="M41.5265, -3.99053 Q41.532, -4 41.5375, -4 " /><path d="M42.0265, 3.99053 Q42.032, 4 42.0375, 4 " /><path id= "49" d=" M 43.0375 4 L 43.1625 4 " />
<path d="M42.1625, 4 Q42.168, 4 42.1735, 3.99053 " /><path d="M42.1735, 3.99053 C42.2139, 3.9243 42.2544, 3.4496 42.2949, 2.6941  C42.3403, 1.85321 42.3857, 0.669133 42.4311, -0.465368  C42.4696, -1.42925 42.5082, -2.34505 42.5467, -2.98772  C42.5853, -3.63557 42.6239, -4.00315 42.6625, -4 " /><path d="M42.6625, -4 Q42.668, -4 42.6735, -3.99054 " /><path d="M42.0375, 4 C42.0793, 4.00431 42.1211, 3.56983 42.1629, 2.82058  C42.2098, 1.98862 42.2566, 0.772501 42.3034, -0.400796  C42.3386, -1.28134 42.3738, -2.12806 42.409, -2.76574  C42.4482, -3.4802 42.4873, -3.9261 42.5265, -3.99053 " /><path d="M42.5265, -3.99053 Q42.532, -4 42.5375, -4 " /><path d="M43.0265, 3.99053 Q43.032, 4 43.0375, 4 " /><path id= "56" d=" M 44.0375 4 L 44.1625 4 " />
<path d="M43.1625, 4 Q43.168, 4 43.1735, 3.99053 " /><path d="M43.1735, 3.99053 C43.2139, 3.9243 43.2544, 3.4496 43.2949, 2.6941  C43.3403, 1.85321 43.3857, 0.669133 43.4311, -0.465367  C43.4696, -1.42924 43.5082, -2.34504 43.5467, -2.98772  C43.5853, -3.63557 43.6239, -4.00315 43.6625, -4 " /><path d="M43.6625, -4 Q43.668, -4 43.6735, -3.99054 " /><path d="M43.0375, 4 C43.0793, 4.00431 43.1211, 3.56983 43.1629, 2.82057  C43.2097, 1.9887 43.2566, 0.772774 43.3034, -0.400395  C43.3386, -1.28055 43.3738, -2.12696 43.4089, -2.7646  C43.4481, -3.47972 43.4873, -3.92607 43.5265, -3.99053 " /><path d="M43.5265, -3.99053 Q43.532, -4 43.5375, -4 " /><path d="M44.0265, 3.99053 Q44.032, 4 44.0375, 4 " /><path id= "63" d=" M 45.0375 4 L 45.1625 4 " />
<path d="M44.1625, 4 Q44.168, 4 44.1735, 3.99053 " /><path d="M44.1735, 3.99053 C44.2139, 3.9243 44.2544, 3.4496 44.2949, 2.6941  C44.3403, 1.8532 44.3857, 0.669133 44.4311, -0.465368  C44.4696, -1.42925 44.5082, -2.34505 44.5467, -2.98772  C44.5853, -3.63557 44.6239, -4.00315 44.6625, -4 " /><path d="M44.6625, -4 Q44.668, -4 44.6735, -3.99054 " /><path d="M44.0375, 4 C44.0793, 4.00431 44.1211, 3.56982 44.1629, 2.82056  C44.2097, 1.98881 44.2566, 0.773112 44.3034, -0.3999  C44.3386, -1.27955 44.3737, -2.12554 44.4088, -2.76312  C44.4481, -3.47909 44.4873, -3.92603 44.5265, -3.99053 " /><path d="M44.5265, -3.99053 Q44.532, -4 44.5375, -4 " /><path d="M45.0265, 3.99053 Q45.032, 4 45.0375, 4 " /><path id= "70" d=" M 46.0375 4 L 46.1625 4 " />
<path d="M45.1625, 4 Q45.168, 4 45.1735, 3.99053 " /><path d="M45.1735, 3.99053 C45.2139, 3.9243 45.2544, 3.4496 45.2949, 2.6941  C45.3403, 1.8532 45.3857, 0.669128 45.4311, -0.465374  C45.4696, -1.42926 45.5082, -2.34506 45.5467, -2.98773  C45.5853, -3.63558 45.6239, -4.00315 45.6625, -4 " /><path d="M45.6625, -4 Q45.668, -4 45.6735, -3.99054 " /><path d="M45.0375, 4 C45.0793, 4.00431 45.1211, 3.56982 45.1629, 2.82056  C45.2097, 1.98882 45.2566, 0.773138 45.3034, -0.399864  C45.3385, -1.27948 45.3737, -2.12543 45.4088, -2.763  C45.4481, -3.47904 45.4873, -3.92603 45.5265, -3.99053 " /><path d="M45.5265, -3.99053 Q45.532, -4 45.5375, -4 " /><path d="M46.0265, 3.99053 Q46.032, 4 46.0375, 4 " /><path id= "77" d=" M 47.0375 4 L 47.1625 4 " />
<path d="M46.1625, 4 Q46.168, 4 46.1735, 3.99053 " /><path d="M46.1735, 3.99053 C46.2139, 3.9243 46.2544, 3.4496 46.2949, 2.6941  C46.3403, 1.8532 46.3857, 0.669123 46.4311, -0.465381  C46.4696, -1.42927 46.5082, -2.34508 46.5467, -2.98775  C46.5853, -3.63559 46.6239, -4.00315 46.6625, -4 " /><path d="M46.6625, -4 Q46.668, -4 46.6735, -3.99054 " /><path d="M46.0375, 4 C46.0793, 4.00431 46.1211, 3.56982 46.1629, 2.82055  C46.2097, 1.9889 46.2566, 0.773407 46.3034, -0.399471  C46.3385, -1.27865 46.3736, -2.12424 46.4088, -2.76176  C46.448, -3.47851 46.4873, -3.926 46.5265, -3.99053 " /><path d="M46.5265, -3.99053 Q46.532, -4 46.5375, -4 " /><path d="M47.0265, 3.99053 Q47.032, 4 47.0375, 4 " /><path id= "84" d=" M 48.0375 4 L 48.1625 4 " />
<path d="M47.1625, 4 Q47.168, 4 47.1735, 3.99053 " /><path d="M47.1735, 3.99053 C47.2139, 3.9243 47.2544, 3.4496 47.2949, 2.6941  C47.3403, 1.8532 47.3857, 0.669117 47.4311, -0.465389  C47.4696, -1.42928 47.5082, -2.3451 47.5467, -2.98777  C47.5853, -3.63559 47.6239, -4.00315 47.6625, -4 " /><path d="M47.6625, -4 Q47.668, -4 47.6735, -3.99054 " /><path d="M47.0375, 4 C47.0793, 4.00431 47.1211, 3.56982 47.1629, 2.82054  C47.2097, 1.98894 47.2566, 0.773535 47.3034, -0.399283  C47.3385, -1.27825 47.3736, -2.12366 47.4087, -2.76115  C47.448, -3.47825 47.4873, -3.92598 47.5265, -3.99053 " /><path d="M47.5265, -3.99053 Q47.532, -4 47.5375, -4 " /><path d="M48.0265, 3.99053 Q48.032, 4 48.0375, 4 " /><path id= "91" d=" M 49.0375 4 L 49.1625 4 " />
<path d="M48.1625, 4 Q48.168, 4 48.1735, 3.99053 " /><path d="M48.1735, 3.99053 C48.2139, 3.9243 48.2544, 3.4496 48.2949, 2.6941  C48.3403, 1.8532 48.3857, 0.669123 48.4311, -0.465381  C48.4696, -1.42927 48.5082, -2.34508 48.5467, -2.98775  C48.5853, -3.63559 48.6239, -4.00315 48.6625, -4 " /><path d="M48.6625, -4 Q48.668, -4 48.6735, -3.99054 " /><path d="M48.0375, 4 C48.0793, 4.00431 48.1211, 3.56982 48.1629, 2.82054  C48.2097, 1.98894 48.2566, 0.773542 48.3034, -0.399274  C48.3385, -1.27823 48.3736, -2.12363 48.4087, -2.76112  C48.448, -3.47824 48.4873, -3.92598 48.5265, -3.99053 " /><path d="M48.5265, -3.99053 Q48.532, -4 48.5375, -4 " /><path d="M49.0265, 3.99053 Q49.032, 4 49.0375, 4 " /><path id= "98" d=" M 50.0375 4 L 50.1625 4 " />
<path d="M49.1625, 4 Q49.168, 4 49.1735, 3.99053 " /><path d="M49.1735, 3.99053 C49.2139, 3.9243 49.2544, 3.4496 49.2949, 2.6941  C49.3403, 1.8532 49.3857, 0.669126 49.4311, -0.465377  C49.4696, -1.42926 49.5082, -2.34507 49.5467, -2.98774  C49.5853, -3.63558 49.6239, -4.00315 49.6625, -4 " /><path d="M49.6625, -4 Q49.668, -4 49.6735, -3.99054 " /><path d="M49.0375, 4 C49.0793, 4.00431 49.1211, 3.56981 49.1629, 2.82053  C49.2097, 1.98916 49.2565, 0.774223 49.3034, -0.39828  C49.3384, -1.27568 49.3735, -2.11975 49.4085, -2.75697  C49.4478, -3.47648 49.4872, -3.92588 49.5265, -3.99053 " /><path d="M49.5265, -3.99053 Q49.532, -4 49.5375, -4 " /><path d="M50.0265, 3.99053 Q50.032, 4 50.0375, 4 " /><path id= "105" d=" M 51.0375 4 L 51.1625 4 " />
<path d="M50.1625, 4 Q50.168, 4 50.1735, 3.99053 " /><path d="M50.1735, 3.99053 C50.2139, 3.9243 50.2544, 3.4496 50.2949, 2.6941  C50.3403, 1.8532 50.3857, 0.669129 50.4311, -0.465373  C50.4696, -1.42925 50.5082, -2.34506 50.5467, -2.98773  C50.5853, -3.63558 50.6239, -4.00315 50.6625, -4 " /><path d="M50.6625, -4 Q50.668, -4 50.6735, -3.99054 " /><path d="M50.0375, 4 C50.0793, 4.00431 50.1211, 3.5698 50.1629, 2.8205  C50.2097, 1.98939 50.2565, 0.774964 50.3033, -0.397199  C50.3382, -1.27179 50.3732, -2.11338 50.4081, -2.75002  C50.4476, -3.47351 50.4871, -3.9257 50.5265, -3.99053 " /><path d="M50.5265, -3.99053 Q50.532, -4 50.5375, -4 " /><path d="M51.0265, 3.99053 Q51.032, 4 51.0375, 4 " /><path id= "112" d=" M 52.0375 4 L 52.1625 4 " />
<path d="M51.1625, 4 Q51.168, 4 51.1735, 3.99053 " /><path d="M51.1735, 3.99053 C51.2139, 3.9243 51.2544, 3.4496 51.2949, 2.6941  C51.3403, 1.8532 51.3857, 0.669114 51.4311, -0.465393  C51.4696, -1.42929 51.5082, -2.34511 51.5467, -2.98778  C51.5853, -3.6356 51.6239, -4.00315 51.6625, -4 " /><path d="M51.6625, -4 Q51.668, -4 51.6735, -3.99054 " /><path d="M51.0375, 4 C51.0793, 4.00431 51.1211, 3.5698 51.1629, 2.8205  C51.2097, 1.98949 51.2565, 0.77528 51.3033, -0.396739  C51.3382, -1.26978 51.373, -2.10998 51.4079, -2.74627  C51.4475, -3.47191 51.487, -3.9256 51.5265, -3.99053 " /><path d="M51.5265, -3.99053 Q51.532, -4 51.5375, -4 " /><path d="M52.0265, 3.99053 Q52.032, 4 52.0375, 4 " /><path id= "119" d=" M 53.0375 4 L 53.1625 4 " />
<path d="M52.1625, 4 Q52.168, 4 52.1735, 3.99053 " /><path d="M52.1735, 3.99053 C52.2139, 3.9243 52.2544, 3.4496 52.2949, 2.6941  C52.3403, 1.85319 52.3857, 0.66911 52.4311, -0.465399  C52.4696, -1.4293 52.5082, -2.34512 52.5467, -2.98779  C52.5853, -3.6356 52.6239, -4.00315 52.6625, -4 " /><path d="M52.6625, -4 Q52.668, -4 52.6735, -3.99054 " /><path d="M52.0375, 4 C52.0793, 4.00431 52.1211, 3.5698 52.1629, 2.82051  C52.2097, 1.98934 52.2565, 0.774799 52.3033, -0.397441  C52.3383, -1.27275 52.3733, -2.11497 52.4082, -2.75176  C52.4477, -3.47426 52.4871, -3.92575 52.5265, -3.99053 " /><path d="M52.5265, -3.99053 Q52.532, -4 52.5375, -4 " /><path d="M53.0265, 3.99053 Q53.032, 4 53.0375, 4 " /><path id= "126" d=" M 54.0375 4 L 54.1625 4 " />
<path d="M53.1625, 4 Q53.168, 4 53.1735, 3.99053 " /><path d="M53.1735, 3.99053 C53.2139, 3.92429 53.2544, 3.4496 53.2949, 2.6941  C53.3403, 1.8532 53.3857, 0.669126 53.4311, -0.465376  C53.4696, -1.42926 53.5082, -2.34507 53.5467, -2.98774  C53.5853, -3.63558 53.6239, -4.00315 53.6625, -4 " /><path d="M53.6625, -4 Q53.668, -4 53.6735, -3.99054 " /><path d="M53.0375, 4 C53.0793, 4.00431 53.1211, 3.5698 53.1629, 2.82051  C53.2097, 1.98938 53.2565, 0.774913 53.3033, -0.397275  C53.3383, -1.2721 53.3732, -2.11389 53.4082, -2.75058  C53.4476, -3.47375 53.4871, -3.92572 53.5265, -3.99053 " /><path d="M53.5265, -3.99053 Q53.532, -4 53.5375, -4 " /><path d="M54.0265, 3.99053 Q54.032, 4 54.0375, 4 " /><path id= "133" d=" M 55.0375 4 L 55.1625 4 " />
<path d="M54.1625, 4 Q54.168, 4 54.1735, 3.99053 " /><path d="M54.1735, 3.99053 C54.2139, 3.92429 54.2544, 3.4496 54.2949, 2.6941  C54.3403, 1.85319 54.3857, 0.669103 54.4311, -0.465407  C54.4696, -1.42932 54.5082, -2.34514 54.5467, -2.98781  C54.5853, -3.63561 54.6239, -4.00315 54.6625, -4 " /><path d="M54.6625, -4 Q54.668, -4 54.6735, -3.99054 " /><path d="M54.0375, 4 C54.0793, 4.00431 54.1211, 3.56978 54.1629, 2.82046  C54.2097, 1.98984 54.2565, 0.776378 54.3032, -0.395137  C54.3381, -1.26721 54.3729, -2.10665 54.4077, -2.74291  C54.4473, -3.47048 54.4869, -3.92552 54.5265, -3.99053 " /><path d="M54.5265, -3.99053 Q54.532, -4 54.5375, -4 " /><path d="M55.0265, 3.99053 Q55.032, 4 55.0375, 4 " /><path id= "140" d=" M 56.0375 4 L 56.1625 4 " />
<path d="M55.1625, 4 Q55.168, 4 55.1735, 3.99053 " /><path d="M55.1735, 3.99053 C55.2139, 3.92429 55.2544, 3.4496 55.2949, 2.6941  C55.3403, 1.8532 55.3857, 0.66912 55.4311, -0.465384  C55.4696, -1.42928 55.5082, -2.34508 55.5467, -2.98776  C55.5853, -3.63559 55.6239, -4.00315 55.6625, -4 " /><path d="M55.6625, -4 Q55.668, -4 55.6734, -3.99054 " /><path d="M55.0375, 4 C55.0793, 4.00431 55.1211, 3.5698 55.1629, 2.82049  C55.2097, 1.98956 55.2565, 0.775481 55.3033, -0.396447  C55.3381, -1.26833 55.3729, -2.1075 55.4078, -2.74352  C55.4474, -3.47074 55.487, -3.92554 55.5265, -3.99053 " /><path d="M55.5265, -3.99053 Q55.532, -4 55.5375, -4 " /><path d="M56.0265, 3.99053 Q56.032, 4 56.0375, 4 " /><path id= "147" d=" M 57.0375 4 L 57.1625 4 " />
<path d="M56.1625, 4 Q56.168, 4 56.1735, 3.99053 " /><path d="M56.1735, 3.99053 C56.2139, 3.92429 56.2544, 3.4496 56.2949, 2.6941  C56.3403, 1.85319 56.3857, 0.6691 56.4311, -0.465411  C56.4696, -1.42932 56.5082, -2.34515 56.5467, -2.98782  C56.5853, -3.63561 56.6239, -4.00315 56.6625, -4 " /><path d="M56.6625, -4 Q56.668, -4 56.6734, -3.99054 " /><path d="M56.0375, 4 C56.0793, 4.00431 56.1211, 3.56978 56.1629, 2.82045  C56.2097, 1.99002 56.2565, 0.77696 56.3032, -0.394289  C56.3384, -1.27552 56.3736, -2.12338 56.4088, -2.7622  C56.448, -3.47871 56.4873, -3.92602 56.5265, -3.99053 " /><path d="M56.5265, -3.99053 Q56.532, -4 56.5375, -4 " /><path d="M57.0265, 3.99053 Q57.032, 4 57.0375, 4 " /><path id= "154" d=" M 58.0375 4 L 58.1625 4 " />
<path d="M57.1625, 4 Q57.168, 4 57.1735, 3.99053 " /><path d="M57.1735, 3.99053 C57.2139, 3.92429 57.2544, 3.44959 57.2949, 2.6941  C57.3403, 1.85319 57.3857, 0.6691 57.4311, -0.465411  C57.4696, -1.42932 57.5082, -2.34515 57.5467, -2.98782  C57.5853, -3.63561 57.6239, -4.00315 57.6625, -4 " /><path d="M57.6625, -4 Q57.668, -4 57.6734, -3.99053 " /><path d="M57.0375, 4 C57.0793, 4.00431 57.1211, 3.56979 57.1629, 2.82048  C57.2097, 1.9897 57.2565, 0.775949 57.3033, -0.395765  C57.3393, -1.29821 57.3754, -2.16526 57.4114, -2.80902  C57.4498, -3.49858 57.4882, -3.92724 57.5265, -3.99053 " /><path d="M57.5265, -3.99053 Q57.532, -4 57.5375, -4 " /><path d="M58.0265, 3.99053 Q58.032, 4 58.0375, 4 " /><path id= "161" d=" M 59.0375 4 L 59.1625 4 " />
<path d="M58.1625, 4 Q58.168, 4 58.1735, 3.99053 " /><path d="M58.1735, 3.99053 C58.2139, 3.92429 58.2544, 3.4496 58.2949, 2.6941  C58.3403, 1.8532 58.3857, 0.669119 58.4311, -0.465385  C58.4696, -1.42928 58.5082, -2.34509 58.5467, -2.98776  C58.5853, -3.63559 58.6239, -4.00315 58.6625, -4 " /><path d="M58.6625, -4 Q58.668, -4 58.6734, -3.99053 " /><path d="M58.0375, 4 C58.0793, 4.00431 58.1211, 3.56979 58.1629, 2.82047  C58.2097, 1.98983 58.2565, 0.776354 58.3032, -0.395174  C58.3381, -1.26694 58.3729, -2.1061 58.4077, -2.74227  C58.4473, -3.47021 58.4869, -3.92551 58.5265, -3.99053 " /><path d="M58.5265, -3.99053 Q58.532, -4 58.5375, -4 " /><path d="M59.0265, 3.99053 Q59.032, 4 59.0375, 4 " /><path d="M59.2, 2.08991 Q59.2, 2.27988 59.2, 2.45866  Q59.2, 2.54519 59.2, 2.63172  Q59.2, 2.7141 59.2, 2.79649  Q59.2, 2.87447 59.2, 2.95246  Q59.2, 3.0258 59.2, 3.09914  Q59.2, 3.16761 59.2, 3.23607  Q59.2, 3.29944 59.2, 3.36282  Q59.2, 3.4209 59.2, 3.47898  Q59.2, 3.53159 59.2, 3.5842  Q59.2, 3.63117 59.2, 3.67814  Q59.2, 3.71932 59.2, 3.7605  Q59.2, 3.79576 59.2, 3.83103  Q59.2, 3.86027 59.2, 3.8895 " /><path d="M59.1625, 4 Q59.168, 4 59.1735, 3.99053 " /><path d="M59.1735, 3.99053 Q59.1867, 3.96749 59.2, 3.8895 " /><path d="M59.0375, 4 C59.0514, 3.99979 59.0653, 3.95421 59.0792, 3.86325  C59.1195, 3.60423 59.1597, 2.95553 59.2, 2.08991 " /><path d="M59.731, 3.46905 Q59.727, 3.47304 59.723, 3.46615 " /><path d="M59.414, -3.78603 Q59.4103, -3.78969 59.4066, -3.78338 " /><path d="M59.4066, -3.78338 C59.3847, -3.74726 59.3628, -3.42991 59.3412, -2.89694  C59.3296, -2.61024 59.3181, -2.27442 59.3066, -1.88948  C59.2706, -0.694079 59.2351, 0.886625 59.2, 2.08991 " /><path id= "175" d=" M 59.731 3.46905 L 60 3.2 " />
<path d="M60, -3.2 L60, -3.11977  L60, -2.8831  L60, -2.50186  L60, -1.99517  L60, -1.38843  L60, -0.712067  L60, -5.55112e-16  L60, 0.712067  L60, 1.38843  L60, 1.99517  L60, 2.50186  L60, 2.8831  L60, 3.11977  L60, 3.2 " /><path d="M59.731, 3.46905 Q59.7361, 3.46389 59.7413, 3.44071 " /><path d="M59.7413, -0.352824 C59.7508, -0.441666 59.7651, -0.52846 59.7775, -0.488562  C59.7882, -0.452651 59.7939, -0.360651 59.7982, -0.271976  C59.8078, -0.0569609 59.8105, 0.186459 59.8124, 0.42531  C59.8153, 0.90083 59.8118, 1.37623 59.8062, 1.79695  C59.8013, 2.15577 59.7945, 2.47596 59.7863, 2.73499  C59.7743, 3.11468 59.7592, 3.36075 59.7413, 3.44071 " /><path d="M59.2, 3.8895 C59.2906, 3.58019 59.3837, 2.92101 59.48, 2.0748  C59.5646, 1.33533 59.6515, 0.459067 59.7413, -0.352824 " /></g>

</svg>
