<svg xmlns="http://www.w3.org/2000/svg" viewBox="-8.706438 -7.700888 17.412876 15.401776">
<rect width="100%" height="100%" fill="white"/>
<g   fill="none"
   stroke="rgb(165, 165, 165)"
   stroke-dasharray="1.2,0.8"
   stroke-linecap="butt"
   stroke-linejoin="miter"
   stroke-width="0.25"
   transform="scale(1, -1)"
  >
<path id= "1" d=" M 3.75278 6.5 L 7.50555 2.67047e-13 " />
<path id= "2" d=" M -3.75278 6.5 L 3.75278 6.5 " />
<path id= "3" d=" M -7.50555 1.05901e-12 L -3.75278 6.5 " />
<path id= "4" d=" M -3.75278 -6.5 L -7.50555 -9.17815e-15 " />
<path id= "5" d=" M 3.75278 -6.5 L -3.75278 -6.5 " />
<path id= "6" d=" M 7.50555 -8.01335e-13 L 3.75278 -6.5 " />
<circle cx ="0" cy ="0" r ="5.735" /><circle cx ="0" cy ="0" r ="5.735" /><circle cx ="0" cy ="0" r ="4" /><path d="M4, 1.39444e-11 C4.00408, 1.02629 3.59087, 2.0465 2.87585, 2.7802 " /><path d="M1.62049 3.65705 A4 4 0 0 0 2.87585 2.7802" /><path d="M1.62049, 3.65705 C1.01685, 3.92527 0.347345, 4.0396 -0.309069, 3.98804  C-1.11525, 3.92706 -1.89859, 3.61372 -2.52388, 3.10323 " /><path d="M-2.52388, 3.10323 Q-2.7252, 2.93914 -2.89868, 2.75638  Q-3.04815, 2.59835 -3.16752, 2.44271  Q-3.24244, 2.34473 -3.29182, 2.27243  Q-3.32636, 2.2219 -3.32799, 2.21912 " /><path d="M-3.32799, 2.21912 C-3.32784, 2.21933 -3.28444, 2.28491 -3.2339, 2.35412  C-3.17288, 2.43862 -3.10192, 2.52782 -3.02104, 2.6217  C-2.87405, 2.79188 -2.70827, 2.95244 -2.5237, 3.10337 " /><path d="M-2.5237, 3.10337 C-2.15562, 3.40293 -1.73396, 3.63592 -1.28461, 3.78811  C-0.448914, 4.07373 0.482514, 4.07068 1.31922, 3.7762  C2.16007, 3.48491 2.89944, 2.90088 3.3778, 2.14253  C3.78179, 1.50794 4.00122, 0.755196 4, 8.92915e-11 " /><path d="M4, 1.39408e-11 C4.00531, -1.11098 3.51893, -2.21225 2.6941, -2.95665  C2.17739, -3.42867 1.53441, -3.76064 0.850365, -3.90856  C0.419352, -4.00248 -0.0272454, -4.0243 -0.46536, -3.97284  C-1.42923, -3.8631 -2.34503, -3.38631 -2.9877, -2.65963  C-3.64151, -1.93008 -4.00962, -0.953306 -3.99991, 0.0262893  C-3.9972, 1.06606 -3.5666, 2.09612 -2.82838, 2.82847  C-2.20124, 3.45877 -1.35804, 3.86836 -0.474916, 3.97171  C-0.0499342, 4.02265 0.383202, 4.00467 0.802498, 3.91867  C1.4907, 3.77865 2.1398, 3.45277 2.66321, 2.98451  C3.50635, 2.2396 4.00557, 1.12497 4, 1.2897e-11 " /><path d="M2.87585, 2.7802 C2.5155, 3.14621 2.0879, 3.44564 1.62049, 3.65705 " /><path d="M4, 1.27476e-11 C4.00531, -1.11098 3.51893, -2.21225 2.6941, -2.95665  C2.17739, -3.42867 1.53441, -3.76064 0.850365, -3.90856  C0.419352, -4.00248 -0.0272446, -4.0243 -0.465359, -3.97284  C-1.42923, -3.8631 -2.34502, -3.38631 -2.9877, -2.65963  C-3.64151, -1.93009 -4.00961, -0.95331 -3.99991, 0.0262838  C-3.9972, 1.06605 -3.56661, 2.09611 -2.82839, 2.82847  C-2.20134, 3.45866 -1.35831, 3.86824 -0.475334, 3.97166  C-0.0583292, 4.02168 0.366536, 4.00537 0.778478, 3.92352  C1.47762, 3.78576 2.1376, 3.45629 2.6679, 2.98032  C3.50826, 2.23546 4.00553, 1.12285 4, 1.17073e-11 " /><path d="M4, 8.92846e-11 C4.00431, -1.05232 3.56984, -2.09719 2.82061, -2.83623  C2.3458, -3.30946 1.74982, -3.6597 1.10536, -3.84424  C0.617686, -3.98472 0.103133, -4.03099 -0.40178, -3.97977  C-1.27187, -3.89404 -2.109, -3.51188 -2.74376, -2.91063  C-3.51617, -2.18856 -3.97899, -1.14918 -3.99894, -0.0921168  C-4.02786, 0.969721 -3.60929, 2.03397 -2.86477, 2.79161  C-2.24852, 3.42717 -1.41532, 3.84684 -0.537788, 3.96368  C0.565173, 4.11874 1.72485, 3.78266 2.57401, 3.06177  C3.16161, 2.56942 3.6017, 1.90407 3.82486, 1.17067  C3.94128, 0.789128 3.99966, 0.398906 4, 8.17226e-11 " /><path d="M4, 1.16052e-11 C4.00531, -1.11098 3.51893, -2.21225 2.6941, -2.95665  C2.17739, -3.42867 1.53441, -3.76064 0.850363, -3.90857  C0.41935, -4.00248 -0.0272476, -4.0243 -0.465363, -3.97284  C-1.42924, -3.8631 -2.34503, -3.3863 -2.98771, -2.65962  C-3.64151, -1.93007 -4.00962, -0.953292 -3.99991, 0.0263048  C-3.9972, 1.06608 -3.56659, 2.09613 -2.82837, 2.82849  C-2.20095, 3.45905 -1.35729, 3.86872 -0.473763, 3.97184  C-0.0519565, 4.02228 0.377863, 4.00483 0.794192, 3.92036  C1.48724, 3.7809 2.14104, 3.45297 2.66727, 2.98089  C3.508, 2.23602 4.00553, 1.12314 4, 1.04103e-11 " /><path d="M4, 8.1656e-11 C4.00431, -1.05232 3.56984, -2.0972 2.8206, -2.83624  C2.34579, -3.30947 1.74981, -3.65971 1.10535, -3.84424  C0.617786, -3.98469 0.10336, -4.03097 -0.40144, -3.9798  C-1.27322, -3.89399 -2.11192, -3.51057 -2.74718, -2.9074  C-3.53289, -2.17149 -3.99643, -1.10675 -3.99988, -0.0303457  C-4.01152, 0.992966 -3.60922, 2.01288 -2.9022, 2.75267  C-2.28731, 3.40433 -1.4471, 3.83759 -0.559627, 3.96066  C0.546943, 4.12251 1.71332, 3.78932 2.56745, 3.06728  C3.16333, 2.57022 3.6083, 1.89548 3.83052, 1.15201  C3.94319, 0.776269 3.99968, 0.392267 4, 7.44698e-11 " /><path d="M4, 1.05167e-11 C4.00531, -1.11098 3.51893, -2.21225 2.6941, -2.95665  C2.17739, -3.42867 1.53441, -3.76064 0.850364, -3.90857  C0.419351, -4.00248 -0.0272466, -4.0243 -0.465362, -3.97284  C-1.42923, -3.8631 -2.34503, -3.38631 -2.98771, -2.65963  C-3.64151, -1.93008 -4.00962, -0.953298 -3.99991, 0.0262977  C-3.9972, 1.06607 -3.5666, 2.09613 -2.82837, 2.82848  C-2.20108, 3.45892 -1.35763, 3.86856 -0.474289, 3.97178  C-0.0568359, 4.02175 0.368477, 4.00524 0.7808, 3.92305  C1.48125, 3.78461 2.14227, 3.45371 2.67283, 2.9759  C3.51027, 2.23111 4.00549, 1.12063 4, 9.53015e-12 " /><path d="M4, 7.43798e-11 C4.00431, -1.05232 3.56983, -2.09721 2.82059, -2.83624  C2.34578, -3.30947 1.7498, -3.65971 1.10534, -3.84425  C0.617868, -3.98466 0.103542, -4.03095 -0.401167, -3.97983  C-1.28205, -3.89325 -2.12905, -3.5026 -2.76676, -2.88878  C-3.52538, -2.16806 -3.97881, -1.13914 -3.99892, -0.0930266  C-4.02806, 0.968256 -3.6102, 2.03206 -2.86655, 2.78979  C-2.25185, 3.42453 -1.42092, 3.84437 -0.545281, 3.96266  C0.561092, 4.12038 1.72541, 3.78358 2.57676, 3.05947  C3.16305, 2.5673 3.60214, 1.90278 3.82493, 1.17043  C3.94131, 0.788966 3.99966, 0.398822 4, 6.7327e-11 " /><path d="M4, 9.48419e-12 C4.00531, -1.11098 3.51893, -2.21225 2.6941, -2.95665  C2.17739, -3.42867 1.53441, -3.76064 0.850361, -3.90857  C0.419347, -4.00248 -0.027252, -4.0243 -0.465368, -3.97284  C-1.42925, -3.86309 -2.34505, -3.3863 -2.98772, -2.65961  C-3.64153, -1.93005 -4.00963, -0.953265 -3.99991, 0.0263359  C-3.99719, 1.06611 -3.56657, 2.09617 -2.82833, 2.82852  C-2.2004, 3.45959 -1.35588, 3.86939 -0.47157, 3.97211  C-0.0488415, 4.02242 0.381898, 4.00454 0.799006, 3.91939  C1.49416, 3.77862 2.14956, 3.44817 2.6761, 2.97296  C3.51161, 2.22822 4.00546, 1.11915 4, 8.49543e-12 " /><path d="M4, 6.74241e-11 C4.00431, -1.05233 3.56983, -2.09722 2.82058, -2.83625  C2.34577, -3.30948 1.74979, -3.65972 1.10532, -3.84425  C0.617978, -3.98463 0.103789, -4.03093 -0.400796, -3.97987  C-1.28134, -3.8934 -2.12806, -3.50311 -2.76574, -2.88976  C-3.52433, -2.16957 -3.97807, -1.14132 -3.99886, -0.0956115  C-4.02861, 0.963749 -3.61303, 2.02595 -2.8723, 2.78386  C-2.25452, 3.4245 -1.41685, 3.84741 -0.534554, 3.96412  C0.568562, 4.11828 1.72799, 3.78123 2.57657, 3.05962  C3.16202, 2.56823 3.60072, 1.90498 3.82385, 1.17394  C3.94094, 0.791386 3.99966, 0.400072 4, 6.07923e-11 " /><path d="M4, 8.51896e-12 C4.00531, -1.11098 3.51893, -2.21225 2.6941, -2.95665  C2.17739, -3.42867 1.53441, -3.76064 0.850362, -3.90857  C0.419347, -4.00248 -0.027251, -4.0243 -0.465367, -3.97284  C-1.42924, -3.86309 -2.34504, -3.3863 -2.98772, -2.65961  C-3.64152, -1.93006 -4.00962, -0.953271 -3.99991, 0.0263289  C-3.99719, 1.0661 -3.56658, 2.09616 -2.82834, 2.82851  C-2.20053, 3.45947 -1.35619, 3.86924 -0.472056, 3.97205  C-0.0534206, 4.02192 0.37308, 4.00493 0.786424, 3.92193  C1.48861, 3.78211 2.15086, 3.44878 2.68149, 2.9681  C3.5138, 2.22345 4.00541, 1.11671 4, 7.52376e-12 " /><path d="M4, 6.08318e-11 C4.00431, -1.05233 3.56983, -2.09723 2.82057, -2.83626  C2.34576, -3.30949 1.74978, -3.65973 1.10531, -3.84425  C0.618097, -3.98459 0.104057, -4.03091 -0.400395, -3.97991  C-1.28055, -3.89357 -2.12696, -3.50367 -2.7646, -2.89085  C-3.53961, -2.15602 -3.99598, -1.09959 -3.99987, -0.0317099  C-4.01186, 0.991598 -3.60991, 2.01165 -2.90314, 2.75168  C-2.28457, 3.40774 -1.43768, 3.84253 -0.544051, 3.96283  C0.564376, 4.12052 1.73077, 3.78177 2.58232, 3.05477  C3.16626, 2.56276 3.60344, 1.89951 3.8254, 1.16889  C3.94146, 0.787903 3.99966, 0.398273 4, 5.45106e-11 " /><path d="M4, 7.58837e-12 C4.00531, -1.11098 3.51893, -2.21225 2.6941, -2.95666  C2.17739, -3.42867 1.53441, -3.76064 0.850361, -3.90857  C0.419347, -4.00248 -0.027252, -4.0243 -0.465368, -3.97284  C-1.42925, -3.86309 -2.34505, -3.3863 -2.98772, -2.65961  C-3.64153, -1.93005 -4.00963, -0.953265 -3.99991, 0.026336  C-3.99719, 1.06611 -3.56657, 2.09617 -2.82833, 2.82852  C-2.2004, 3.45959 -1.35588, 3.86939 -0.47157, 3.97211  C-0.0488347, 4.02242 0.381911, 4.00454 0.799024, 3.91938  C1.49419, 3.77861 2.14959, 3.44815 2.67613, 2.97293  C3.51162, 2.22819 4.00546, 1.11914 4, 6.7002e-12 " /><path d="M4, 5.45906e-11 C4.00431, -1.05234 3.56982, -2.09724 2.82056, -2.83628  C2.34574, -3.3095 1.74976, -3.65973 1.10529, -3.84426  C0.618244, -3.98455 0.104387, -4.03088 -0.3999, -3.97996  C-1.27955, -3.89377 -2.12554, -3.5044 -2.76312, -2.89226  C-3.53032, -2.1654 -3.98614, -1.12362 -3.99944, -0.0669568  C-4.02146, 0.988334 -3.60189, 2.04336 -2.86115, 2.79532  C-2.2424, 3.43182 -1.40578, 3.85092 -0.525493, 3.96533  C0.579047, 4.11713 1.73886, 3.77659 2.58602, 3.05164  C3.17297, 2.55591 3.61106, 1.88697 3.83088, 1.15081  C3.94331, 0.775444 3.99968, 0.391841 4, 4.86708e-11 " /><path d="M4, 6.71729e-12 C4.00531, -1.11098 3.51893, -2.21225 2.6941, -2.95666  C2.17738, -3.42867 1.5344, -3.76064 0.850359, -3.90857  C0.419343, -4.00248 -0.0272566, -4.0243 -0.465374, -3.97284  C-1.42926, -3.86309 -2.34506, -3.38629 -2.98773, -2.65959  C-3.64154, -1.93003 -4.00963, -0.953237 -3.99991, 0.0263681  C-3.99718, 1.06615 -3.56655, 2.09621 -2.8283, 2.82855  C-2.19987, 3.46012 -1.35451, 3.87003 -0.469454, 3.97236  C-0.0502256, 4.02148 0.366421, 4.00506 0.780486, 3.92312  C1.47827, 3.78525 2.13695, 3.45642 2.6665, 2.98157  C3.50769, 2.2367 4.00554, 1.12348 4, 5.88019e-12 " /><path d="M4, 4.87175e-11 C4.00431, -1.05234 3.56982, -2.09724 2.82056, -2.83628  C2.34574, -3.3095 1.74976, -3.65973 1.10529, -3.84426  C0.618255, -3.98455 0.104412, -4.03087 -0.399864, -3.97996  C-1.27948, -3.89379 -2.12543, -3.50445 -2.763, -2.89237  C-3.53007, -2.16569 -3.9859, -1.12422 -3.99943, -0.0677894  C-4.02166, 0.987314 -3.60246, 2.04225 -2.86212, 2.79433  C-2.24397, 3.43065 -1.40815, 3.84992 -0.528499, 3.96493  C0.574632, 4.11738 1.7333, 3.77873 2.58074, 3.05611  C3.16264, 2.56631 3.59906, 1.90657 3.82216, 1.17943  C3.94037, 0.795172 3.99965, 0.402029 4, 4.30931e-11 " /><path d="M4, 5.90195e-12 C4.00531, -1.11098 3.51893, -2.21225 2.6941, -2.95666  C2.17738, -3.42868 1.5344, -3.76064 0.850356, -3.90857  C0.419339, -4.00248 -0.0272621, -4.0243 -0.465381, -3.97284  C-1.42927, -3.86309 -2.34508, -3.38628 -2.98775, -2.65958  C-3.64155, -1.93001 -4.00964, -0.953202 -3.99991, 0.0264079  C-3.99717, 1.0662 -3.56652, 2.09626 -2.82826, 2.82859  C-2.19926, 3.46072 -1.35293, 3.87078 -0.46702, 3.97264  C-0.0409824, 4.02285 0.393109, 4.00381 0.813112, 3.91648  C1.50251, 3.77427 2.15212, 3.44544 2.67489, 2.97405  C3.51112, 2.22929 4.00547, 1.1197 4, 5.06706e-12 " /><path d="M4, 4.31579e-11 C4.00431, -1.05234 3.56982, -2.09725 2.82055, -2.83628  C2.34573, -3.30951 1.74975, -3.65974 1.10528, -3.84426  C0.618374, -3.98451 0.104675, -4.03085 -0.399471, -3.98  C-1.27865, -3.89396 -2.12424, -3.50506 -2.76176, -2.89356  C-3.51935, -2.17626 -3.9742, -1.15211 -3.99851, -0.109201  C-4.0282, 0.861995 -3.6865, 1.83824 -3.05763, 2.57894  C-2.43192, 3.32574 -1.52403, 3.82781 -0.558861, 3.96077  C0.549791, 4.12273 1.71834, 3.7877 2.57278, 3.06281  C3.16752, 2.56494 3.6112, 1.8898 3.83222, 1.14633  C3.94376, 0.772359 3.99969, 0.390249 4, 3.8038e-11 " /><path d="M4, 5.16232e-12 C4.00531, -1.11098 3.51893, -2.21225 2.6941, -2.95666  C2.17738, -3.42868 1.5344, -3.76064 0.850353, -3.90857  C0.419335, -4.00248 -0.0272686, -4.0243 -0.465389, -3.97283  C-1.42928, -3.86308 -2.3451, -3.38627 -2.98777, -2.65956  C-3.63695, -1.93503 -4.00463, -0.96679 -4, 0.0060147  C-4.00265, 1.05267 -3.57142, 2.09154 -2.82821, 2.82864  C-2.19861, 3.46136 -1.35126, 3.87157 -0.46444, 3.97295  C-0.0464881, 4.02192 0.379172, 4.00428 0.791637, 3.92088  C1.491, 3.78064 2.15048, 3.44845 2.67944, 2.96995  C3.51297, 2.22526 4.00543, 1.11764 4, 4.33831e-12 " /><path d="M4, 3.79496e-11 C4.00431, -1.05234 3.56982, -2.09725 2.82054, -2.83629  C2.34573, -3.30951 1.74974, -3.65974 1.10528, -3.84426  C0.618431, -3.98449 0.1048, -4.03084 -0.399283, -3.98002  C-1.27825, -3.89404 -2.12366, -3.50535 -2.76115, -2.89414  C-3.53881, -2.15859 -3.99667, -1.09958 -3.99989, -0.029281  C-4.01125, 0.994034 -3.60868, 2.01384 -2.90147, 2.75345  C-2.28259, 3.40903 -1.43559, 3.84328 -0.54203, 3.96311  C0.560299, 4.11927 1.71982, 3.7848 2.56965, 3.06544  C3.15737, 2.5744 3.59813, 1.91049 3.82253, 1.17826  C3.94049, 0.794363 3.99965, 0.401611 4, 3.33e-11 " /><path d="M4, 4.4551e-12 C4.00531, -1.11098 3.51893, -2.21225 2.6941, -2.95666  C2.17738, -3.42868 1.5344, -3.76064 0.850356, -3.90857  C0.419339, -4.00248 -0.0272625, -4.0243 -0.465381, -3.97284  C-1.42927, -3.86309 -2.34508, -3.38628 -2.98775, -2.65958  C-3.64155, -1.93001 -4.00964, -0.953201 -3.99991, 0.0264097  C-3.99717, 1.0662 -3.56652, 2.09626 -2.82826, 2.8286  C-2.19924, 3.46074 -1.35287, 3.87081 -0.466921, 3.97265  C-0.0406506, 4.02288 0.39368, 4.00378 0.813895, 3.91632  C1.50327, 3.77397 2.15281, 3.44501 2.67549, 2.97351  C3.51136, 2.22876 4.00546, 1.11943 4, 3.70193e-12 " /><path d="M4, 3.31561e-11 C4.00431, -1.05234 3.56982, -2.09725 2.82054, -2.83629  C2.34573, -3.30951 1.74974, -3.65974 1.10528, -3.84426  C0.618434, -3.98449 0.104807, -4.03084 -0.399274, -3.98002  C-1.27823, -3.89404 -2.12363, -3.50537 -2.76112, -2.89417  C-3.53858, -2.15883 -3.99642, -1.1002 -3.99989, -0.0301848  C-4.01148, 0.993127 -3.60914, 2.01302 -2.90209, 2.75279  C-2.28544, 3.40628 -1.44218, 3.84007 -0.551943, 3.96174  C0.55248, 4.12105 1.71553, 3.78753 2.56772, 3.06705  C3.16075, 2.57226 3.60433, 1.90149 3.82747, 1.16208  C3.94216, 0.783212 3.99967, 0.395851 4, 2.84168e-11 " /><path d="M4, 3.78808e-12 C4.00531, -1.11098 3.51893, -2.21225 2.6941, -2.95666  C2.17738, -3.42868 1.5344, -3.76064 0.850358, -3.90857  C0.419341, -4.00248 -0.0272595, -4.0243 -0.465377, -3.97284  C-1.42926, -3.86309 -2.34507, -3.38628 -2.98774, -2.65959  C-3.64155, -1.93002 -4.00964, -0.95322 -3.99991, 0.0263878  C-3.99718, 1.06617 -3.56654, 2.09623 -2.82828, 2.82857  C-2.19957, 3.46042 -1.35372, 3.87041 -0.468234, 3.9725  C-0.0511383, 4.02178 0.3737, 4.00471 0.785496, 3.92212  C1.48813, 3.78238 2.15082, 3.4489 2.68172, 2.96789  C3.5139, 2.22324 4.00541, 1.11661 4, 3.19789e-12 " /><path d="M4, 2.85039e-11 C4.00431, -1.05235 3.56981, -2.09727 2.82053, -2.83631  C2.34571, -3.30953 1.74972, -3.65975 1.10525, -3.84427  C0.618735, -3.9844 0.105473, -4.03078 -0.39828, -3.98012  C-1.27568, -3.8945 -2.11975, -3.5073 -2.75697, -2.89812  C-3.53062, -2.16836 -3.98934, -1.11894 -3.99961, -0.0555695  C-4.01794, 0.976077 -3.61516, 2.00677 -2.90227, 2.75261  C-2.28047, 3.41172 -1.4281, 3.84719 -0.529635, 3.96478  C0.572873, 4.11745 1.73102, 3.77959 2.57853, 3.05797  C3.16982, 2.56108 3.61103, 1.88873 3.83156, 1.14854  C3.94354, 0.773881 3.99969, 0.391034 4, 2.43308e-11 " /><path d="M4, 3.17324e-12 C4.00531, -1.11098 3.51893, -2.21225 2.6941, -2.95666  C2.17738, -3.42867 1.5344, -3.76064 0.850359, -3.90857  C0.419344, -4.00248 -0.0272557, -4.0243 -0.465373, -3.97284  C-1.42925, -3.86309 -2.34506, -3.38629 -2.98773, -2.6596  C-3.64154, -1.93004 -4.00963, -0.953243 -3.99991, 0.0263609  C-3.99718, 1.06614 -3.56656, 2.0962 -2.82831, 2.82855  C-2.19999, 3.46 -1.35482, 3.86989 -0.46993, 3.9723  C-0.0505227, 4.02149 0.366304, 4.00509 0.78055, 3.9231  C1.48023, 3.78486 2.14059, 3.45458 2.67088, 2.97765  C3.50948, 2.23283 4.0055, 1.12151 4, 2.53597e-12 " /><path d="M4, 2.42837e-11 C4.00431, -1.05236 3.5698, -2.09729 2.8205, -2.83633  C2.34568, -3.30954 1.74969, -3.65977 1.10522, -3.84428  C0.619063, -3.9843 0.106197, -4.03071 -0.397199, -3.98023  C-1.27179, -3.8951 -2.11338, -3.5104 -2.75002, -2.90472  C-3.53304, -2.16984 -3.99529, -1.10813 -3.99985, -0.0343882  C-4.01252, 0.988911 -3.61125, 2.00923 -2.90498, 2.74974  C-2.28324, 3.41011 -1.43025, 3.84661 -0.530948, 3.96461  C0.570778, 4.11753 1.72824, 3.78063 2.57583, 3.06024  C3.16404, 2.56679 3.60417, 1.89988 3.82658, 1.16502  C3.94186, 0.785238 3.99967, 0.396896 4, 2.04654e-11 " /><path d="M4, 2.6219e-12 C4.00531, -1.11098 3.51893, -2.21225 2.6941, -2.95666  C2.17738, -3.42868 1.5344, -3.76064 0.850352, -3.90857  C0.419332, -4.00249 -0.027272, -4.0243 -0.465393, -3.97283  C-1.42929, -3.86308 -2.34511, -3.38626 -2.98778, -2.65954  C-3.63696, -1.93502 -4.00464, -0.966775 -4, 0.00602913  C-4.00265, 1.05269 -3.57141, 2.09156 -2.82819, 2.82867  C-2.1983, 3.46167 -1.35046, 3.87194 -0.4632, 3.97309  C-0.0421571, 4.0223 0.386686, 4.00389 0.801963, 3.91878  C1.49822, 3.77725 2.15443, 3.44538 2.68108, 2.96847  C3.51364, 2.22381 4.00542, 1.11689 4, 1.96931e-12 " /><path d="M4, 2.0504e-11 C4.00431, -1.05237 3.5698, -2.0973 2.8205, -2.83634  C2.34567, -3.30955 1.74968, -3.65977 1.10521, -3.84428  C0.619203, -3.98426 0.106506, -4.03068 -0.396739, -3.98028  C-1.26978, -3.89539 -2.10998, -3.51203 -2.74627, -2.90827  C-3.52343, -2.18061 -3.98613, -1.13143 -3.99944, -0.0669725  C-4.02146, 0.988315 -3.6019, 2.04334 -2.86117, 2.7953  C-2.24243, 3.4318 -1.40582, 3.8509 -0.525544, 3.96533  C0.578985, 4.11714 1.73879, 3.77662 2.58596, 3.05169  C3.17289, 2.55599 3.61098, 1.88711 3.83082, 1.15099  C3.94329, 0.775572 3.99968, 0.391907 4, 1.69984e-11 " /><path d="M4, 2.1072e-12 C4.00531, -1.11098 3.51893, -2.21225 2.6941, -2.95666  C2.17738, -3.42868 1.5344, -3.76064 0.85035, -3.90857  C0.419329, -4.00249 -0.0272766, -4.0243 -0.465399, -3.97283  C-1.4293, -3.86308 -2.34512, -3.38625 -2.98779, -2.65953  C-3.63697, -1.935 -4.00464, -0.966755 -4, 0.00604916  C-4.00264, 1.05272 -3.57139, 2.0916 -2.82815, 2.8287  C-2.19788, 3.46208 -1.34938, 3.87245 -0.461544, 3.97328  C-0.0376809, 4.02264 0.394057, 4.00347 0.811877, 3.91674  C1.50126, 3.77476 2.15091, 3.44618 2.6738, 2.97503  C3.51067, 2.23025 4.00548, 1.12019 4, 1.49658e-12 " /><path d="M4, 1.70586e-11 C4.00431, -1.05236 3.5698, -2.09728 2.82051, -2.83632  C2.34569, -3.30954 1.7497, -3.65976 1.10523, -3.84428  C0.618991, -3.98432 0.106036, -4.03072 -0.397441, -3.98021  C-1.27275, -3.89496 -2.11497, -3.50963 -2.75176, -2.90307  C-3.53423, -2.16782 -3.99582, -1.10603 -3.99987, -0.0324439  C-4.01204, 0.990861 -3.61028, 2.01098 -2.90365, 2.75115  C-2.28096, 3.41188 -1.42667, 3.84816 -0.526337, 3.96522  C0.577862, 4.11721 1.73742, 3.77715 2.58467, 3.05279  C3.17107, 2.55795 3.6091, 1.8903 3.82951, 1.15535  C3.94285, 0.778574 3.99968, 0.393456 4, 1.37543e-11 " /><path d="M4, 1.65024e-12 C4.00531, -1.11098 3.51893, -2.21225 2.6941, -2.95666  C2.17738, -3.42868 1.5344, -3.76064 0.850358, -3.90857  C0.419342, -4.00248 -0.0272588, -4.0243 -0.465376, -3.97284  C-1.42926, -3.86309 -2.34507, -3.38628 -2.98774, -2.65959  C-3.64154, -1.93002 -4.00964, -0.953224 -3.99991, 0.0263823  C-3.99718, 1.06617 -3.56654, 2.09623 -2.82829, 2.82857  C-2.19966, 3.46033 -1.35395, 3.8703 -0.468584, 3.97246  C-0.0473549, 4.02227 0.381776, 4.00439 0.797402, 3.91971  C1.49193, 3.77936 2.14686, 3.4497 2.67333, 2.97545  C3.51048, 2.23067 4.00548, 1.1204 4, 1.22435e-12 " /><path d="M4, 1.36686e-11 C4.00431, -1.05236 3.5698, -2.09729 2.82051, -2.83633  C2.34569, -3.30954 1.7497, -3.65976 1.10522, -3.84428  C0.619041, -3.98431 0.106147, -4.03071 -0.397275, -3.98022  C-1.2721, -3.89506 -2.11389, -3.51015 -2.75058, -2.90419  C-3.53286, -2.1697 -3.99483, -1.10895 -3.99984, -0.0360196  C-4.01329, 1.0029 -3.59951, 2.03858 -2.87389, 2.78222  C-2.26437, 3.41489 -1.44059, 3.83583 -0.570769, 3.95907  C0.539612, 4.12473 1.71159, 3.79147 2.56869, 3.06624  C3.16184, 2.57103 3.60533, 1.89973 3.82815, 1.15986  C3.94239, 0.78168 3.99967, 0.39506 4, 1.04818e-11 " /><path d="M4, 1.26432e-12 C4.00531, -1.11098 3.51893, -2.21225 2.6941, -2.95666  C2.17738, -3.42868 1.53439, -3.76065 0.850346, -3.90857  C0.419324, -4.00249 -0.0272836, -4.0243 -0.465407, -3.97283  C-1.42932, -3.86308 -2.34514, -3.38624 -2.98781, -2.65951  C-3.63698, -1.93498 -4.00465, -0.966724 -4, 0.00607968  C-4.00263, 1.05276 -3.57136, 2.09166 -2.8281, 2.82875  C-2.19727, 3.46268 -1.34784, 3.87317 -0.459171, 3.97356  C-0.0442323, 4.0211 0.368116, 4.00446 0.777875, 3.92363  C1.47824, 3.78575 2.13934, 3.45548 2.67018, 2.97828  C3.50919, 2.23345 4.00551, 1.12183 4, 9.03722e-13 " /><path d="M4, 1.05862e-11 C4.00431, -1.05238 3.56978, -2.09733 2.82046, -2.83637  C2.34564, -3.30958 1.74964, -3.65979 1.10517, -3.84429  C0.619689, -3.98411 0.107579, -4.03058 -0.395137, -3.98044  C-1.26721, -3.89599 -2.10665, -3.51377 -2.74291, -2.91144  C-3.51327, -2.19165 -3.97605, -1.15635 -3.99869, -0.102398  C-4.0266, 0.865568 -3.68572, 1.83797 -3.05955, 2.57665  C-2.43474, 3.32351 -1.5279, 3.82612 -0.563413, 3.96012  C0.551967, 4.12448 1.72844, 3.78532 2.58519, 3.05234  C3.17183, 2.55714 3.60988, 1.88897 3.83006, 1.15352  C3.94304, 0.777311 3.99968, 0.392805 4, 8.2534e-12 " /><path d="M4, 9.166e-13 C4.00531, -1.11098 3.51893, -2.21225 2.6941, -2.95666  C2.17738, -3.42868 1.5344, -3.76064 0.850355, -3.90857  C0.419337, -4.00248 -0.0272652, -4.0243 -0.465384, -3.97283  C-1.42928, -3.86309 -2.34508, -3.38627 -2.98776, -2.65957  C-3.64156, -1.92999 -4.00965, -0.953185 -3.99991, 0.0264272  C-3.99717, 1.06622 -3.56651, 2.09628 -2.82824, 2.82861  C-2.19899, 3.46099 -1.35222, 3.87111 -0.46592, 3.97277  C-0.0478636, 4.02138 0.367597, 4.00483 0.780461, 3.92312  C1.47987, 3.78494 2.13999, 3.45489 2.67018, 2.97828  C3.50919, 2.23345 4.00551, 1.12183 4, 6.22169e-13 " /><path d="M4, 8.24052e-12 C4.00431, -1.05237 3.5698, -2.0973 2.82049, -2.83634  C2.34567, -3.30955 1.74968, -3.65977 1.1052, -3.84428  C0.619293, -3.98423 0.106702, -4.03066 -0.396447, -3.98031  C-1.26833, -3.89559 -2.1075, -3.51322 -2.74352, -2.91086  C-3.5168, -2.18811 -3.97983, -1.14735 -3.99901, -0.08917  C-4.02356, 0.874399 -3.68287, 1.84122 -3.05966, 2.57653  C-2.43629, 3.32169 -1.53221, 3.8238 -0.570167, 3.95916  C-0.185882, 4.01419 0.198317, 4.01359 0.582429, 3.95737  C1.31673, 3.85042 2.01874, 3.53329 2.58439, 3.05302  C3.17067, 2.55838 3.60867, 1.89102 3.82921, 1.15635  C3.94275, 0.779262 3.99968, 0.393811 4, 5.75584e-12 " /><path d="M4, 6.35492e-13 C4.00531, -1.11098 3.51893, -2.21225 2.6941, -2.95666  C2.17738, -3.42868 1.53439, -3.76065 0.850345, -3.90857  C0.419321, -4.00249 -0.0272869, -4.0243 -0.465411, -3.97283  C-1.42932, -3.86307 -2.34515, -3.38624 -2.98782, -2.6595  C-3.63699, -1.93496 -4.00465, -0.966711 -4, 0.0060936  C-4.00263, 1.05278 -3.57135, 2.09168 -2.82808, 2.82878  C-2.19701, 3.46293 -1.34717, 3.87349 -0.458147, 3.97368  C-0.0413324, 4.02132 0.372808, 4.00421 0.784274, 3.92236  C1.48321, 3.78357 2.1427, 3.45313 2.6723, 2.97637  C3.51006, 2.23158 4.00549, 1.12086 4, 3.01537e-13 " /><path d="M4, 5.91549e-12 C4.00431, -1.05239 3.56978, -2.09734 2.82045, -2.83638  C2.34562, -3.30959 1.74962, -3.6598 1.10515, -3.8443  C0.619947, -3.98404 0.108148, -4.03053 -0.394289, -3.98052  C-1.27552, -3.89544 -2.12338, -3.50609 -2.7622, -2.89314  C-3.53924, -2.15763 -3.99667, -1.09908 -3.99989, -0.0292561  C-4.01125, 0.994059 -3.60867, 2.01386 -2.90145, 2.75346  C-2.28229, 3.40934 -1.43479, 3.84368 -0.54079, 3.96327  C0.567545, 4.12002 1.73343, 3.78049 2.58433, 3.05307  C3.17058, 2.55848 3.60857, 1.89118 3.82914, 1.15657  C3.94273, 0.779413 3.99968, 0.393889 4, 4.24416e-12 " /><path d="M4, 3.92353e-13 C4.00531, -1.11098 3.51893, -2.21225 2.6941, -2.95666  C2.17738, -3.42868 1.53439, -3.76065 0.850345, -3.90857  C0.419321, -4.00249 -0.0272869, -4.0243 -0.465411, -3.97283  C-1.42932, -3.86307 -2.34515, -3.38624 -2.98782, -2.6595  C-3.63699, -1.93496 -4.00465, -0.966711 -4, 0.00609346  C-4.00263, 1.05278 -3.57135, 2.09168 -2.82808, 2.82877  C-2.19701, 3.46293 -1.34718, 3.87348 -0.458159, 3.97367  C-0.0413706, 4.02131 0.372745, 4.00422 0.784188, 3.92238  C1.48294, 3.78364 2.14229, 3.45335 2.67183, 2.9768  C3.50987, 2.232 4.00549, 1.12108 4, 2.76223e-13 " /><path d="M4, 4.23617e-12 C4.00431, -1.05238 3.56979, -2.09731 2.82048, -2.83635  C2.34565, -3.30957 1.74966, -3.65978 1.10519, -3.84429  C0.6195, -3.98417 0.107159, -4.03062 -0.395765, -3.98037  C-1.29821, -3.89308 -2.16526, -3.48611 -2.80902, -2.84771  C-3.53929, -2.13278 -3.97511, -1.12853 -3.99857, -0.106912  C-4.02767, 0.863397 -3.68609, 1.83855 -3.05789, 2.57862  C-2.43371, 3.32373 -1.52869, 3.82534 -0.56603, 3.95975  C0.547024, 4.12448 1.7213, 3.78786 2.57806, 3.05836  C3.16839, 2.56242 3.60922, 1.89163 3.83023, 1.15298  C3.94309, 0.776942 3.99968, 0.392614 4, 2.40297e-12 " /><path d="M4, 1.82299e-13 C4.00531, -1.11098 3.51893, -2.21225 2.6941, -2.95666  C2.17738, -3.42868 1.5344, -3.76064 0.850354, -3.90857  C0.419336, -4.00248 -0.0272659, -4.0243 -0.465385, -3.97283  C-1.42928, -3.86309 -2.34509, -3.38627 -2.98776, -2.65957  C-3.64156, -1.92999 -4.00965, -0.953181 -3.99991, 0.0264318  C-3.99716, 1.06622 -3.56651, 2.09629 -2.82823, 2.82862  C-2.19892, 3.46106 -1.35205, 3.87119 -0.465664, 3.9728  C-0.0489734, 4.02123 0.365167, 4.00491 0.776757, 3.92386  C1.4816, 3.78532 2.14669, 3.45188 2.6794, 2.96999  C3.51295, 2.2253 4.00543, 1.11766 4, 1.12355e-13 " /><path d="M4, 2.55795e-12 C4.00431, -1.05238 3.56979, -2.09732 2.82047, -2.83637  C2.34564, -3.30957 1.74964, -3.65979 1.10517, -3.84429  C0.619679, -3.98412 0.107555, -4.03059 -0.395174, -3.98043  C-1.26694, -3.89601 -2.1061, -3.51402 -2.74227, -2.91204  C-3.53124, -2.1756 -3.99684, -1.10809 -3.9999, -0.0289432  C-4.01117, 0.994372 -3.60851, 2.01414 -2.90124, 2.75369  C-2.27926, 3.4125 -1.42684, 3.84764 -0.528433, 3.96494  C0.574734, 4.11737 1.73344, 3.77868 2.58087, 3.056  C3.16242, 2.56645 3.59866, 1.90715 3.82184, 1.18048  C3.94026, 0.795894 3.99965, 0.402402 4, 9.66338e-13 " /><path d="M2.08991 -3.41061 A4 4 0 0 1 3.8895 -0.933681" /><path d="M4, -3.45279e-14 Q3.9998, -0.473355 3.8895, -0.933681 " /><path d="M4, 1.03073e-12 C3.99979, -0.351642 3.95421, -0.6973 3.86325, -1.03697  C3.60423, -2.01629 2.95553, -2.88456 2.08991, -3.41061 " /><path d="M3.46905, -4.44089e-16 C3.49149, 0.721518 3.28056, 1.44825 2.87661, 2.04853  C2.46489, 2.66586 1.85274, 3.14681 1.15493, 3.40394  C0.433749, 3.67322 -0.374778, 3.70114 -1.11524, 3.48468  C-1.88265, 3.26412 -2.57216, 2.78335 -3.04797, 2.1401  C-3.54344, 1.47696 -3.80683, 0.644693 -3.78645, -0.184474  C-3.76971, -1.04244 -3.44957, -1.8906 -2.89694, -2.54921  C-2.3241, -3.23943 -1.50302, -3.71763 -0.619125, -3.87947  C0.300516, -4.05338 1.27984, -3.88262 2.08991, -3.41061 " /><circle cx ="0" cy ="0" r ="3.2" /><path d="M3.46905, -1.77636e-15 Q3.46389, -0.177113 3.44071, -0.3527 " /><path d="M-0.352824, -3.44069 C-0.407951, -3.42892 -0.459674, -3.41491 -0.485192, -3.40309  C-0.514847, -3.38984 -0.492012, -3.38443 -0.443366, -3.38528  C-0.337576, -3.38734 -0.180772, -3.39669 -0.0304287, -3.39372  C0.230067, -3.39042 0.503909, -3.36047 0.771382, -3.29755 " /><path d="M0.771382, -3.29755 C1.53352, -3.12286 2.24745, -2.67482 2.73499, -2.04281  C3.11468, -1.55609 3.36075, -0.965271 3.44071, -0.3527 " /><path d="M3.8895, -0.933681 C3.58019, -1.84944 2.92101, -2.63914 2.0748, -3.08767  C1.33533, -3.48573 0.459067, -3.61664 -0.352824, -3.44069 " /></g>
<g   fill="none"
   stroke="rgb(165, 165, 165)"
   stroke-dasharray="1.2,0.8"
   stroke-linecap="butt"
   stroke-linejoin="miter"
   stroke-width="0.25"
   transform="scale(1, -1)"
  >
<path d="M-3.32799, 2.21912 C-2.83973, 2.88053 -2.12558, 3.37067 -1.33284, 3.58848  C-0.719039, 3.75953 -0.0612102, 3.76875 0.557141, 3.61496  C1.44872, 3.39754 2.24979, 2.8355 2.75758, 2.07108  C3.16596, 1.46311 3.38789, 0.732386 3.3866, 1.60902e-06 " /><path d="M3.3866, 1.60902e-06 C3.38803, -0.698244 3.16565, -1.39457 2.75983, -1.96276  C2.40847, -2.45821 1.9208, -2.85554 1.36458, -3.09953  C0.731349, -3.3798 0.0111691, -3.45799 -0.667452, -3.32019  C-1.38867, -3.17696 -2.05837, -2.79008 -2.54276, -2.23688  C-3.07571, -1.63472 -3.38097, -0.837418 -3.38646, -0.0333022  C-3.39699, 0.780042 -3.10042, 1.59234 -2.56826, 2.20752  C-1.92192, 2.96811 -0.925206, 3.41282 0.072548, 3.38583  C0.841153, 3.37142 1.60083, 3.08405 2.18653, 2.58615  C2.94057, 1.95555 3.39192, 0.982953 3.3866, 1.53906e-06 " /><path d="M3.3866, 1.53906e-06 C3.38803, -0.698244 3.16565, -1.39457 2.75983, -1.96276  C2.40847, -2.45821 1.9208, -2.85553 1.36458, -3.09953  C0.731356, -3.37979 0.0111826, -3.45799 -0.667434, -3.32019  C-1.38864, -3.17696 -2.05834, -2.7901 -2.54273, -2.23691  C-3.07635, -1.63403 -3.38169, -0.835514 -3.38648, -0.0304099  C-3.39633, 0.783394 -3.09872, 1.59588 -2.56549, 2.21073  C-1.93233, 2.9534 -0.964971, 3.39489 0.0109271, 3.38658  C0.794237, 3.38628 1.57325, 3.10202 2.17268, 2.59779  C2.93483, 1.96742 3.39205, 0.989049 3.3866, 1.46911e-06 " /><path d="M3.3866, 1.46911e-06 C3.38802, -0.698243 3.16565, -1.39456 2.75982, -1.96276  C2.40846, -2.4582 1.9208, -2.85553 1.36458, -3.09953  C0.73135, -3.37979 0.0111721, -3.45799 -0.667448, -3.32019  C-1.38866, -3.17695 -2.05836, -2.79009 -2.54275, -2.23689  C-3.07588, -1.63453 -3.38116, -0.836913 -3.38646, -0.0325362  C-3.39681, 0.780931 -3.09996, 1.59328 -2.56752, 2.20837  C-1.91928, 2.97075 -0.918896, 3.41534 0.0813758, 3.38562  C0.875266, 3.36888 1.65852, 3.06019 2.25036, 2.53079  C2.96681, 1.90007 3.39136, 0.954519 3.3866, 1.39915e-06 " /><path d="M3.3866, 1.39915e-06 C3.38802, -0.698243 3.16565, -1.39456 2.75982, -1.96276  C2.40846, -2.4582 1.92079, -2.85553 1.36457, -3.09953  C0.731346, -3.37979 0.0111653, -3.45799 -0.667456, -3.32018  C-1.38867, -3.17695 -2.05838, -2.79007 -2.54276, -2.23687  C-3.07554, -1.6349 -3.38077, -0.837924 -3.38645, -0.0340728  C-3.39716, 0.779145 -3.10087, 1.59138 -2.569, 2.20665  C-1.92469, 2.9653 -0.931914, 3.41011 0.0631165, 3.38601  C0.821812, 3.37383 1.57267, 3.09593 2.15649, 2.61124  C2.92811, 1.98123 3.39219, 0.996139 3.3866, 1.3292e-06 " /><path d="M3.3866, 1.3292e-06 C3.38802, -0.698243 3.16565, -1.39456 2.75982, -1.96276  C2.40846, -2.4582 1.92079, -2.85553 1.36457, -3.09952  C0.731349, -3.37979 0.0111709, -3.45799 -0.667448, -3.32018  C-1.38866, -3.17695 -2.05836, -2.79008 -2.54275, -2.23688  C-3.07582, -1.6346 -3.38109, -0.837089 -3.38646, -0.0328054  C-3.39687, 0.780618 -3.10012, 1.59294 -2.56778, 2.20807  C-1.92019, 2.96983 -0.921078, 3.41446 0.0783251, 3.38569  C0.876511, 3.36961 1.66415, 3.05829 2.25763, 2.52431  C2.96978, 1.89366 3.39129, 0.951242 3.3866, 1.25924e-06 " /><path d="M3.3866, 1.25924e-06 C3.38802, -0.698243 3.16565, -1.39456 2.75982, -1.96276  C2.40846, -2.4582 1.92079, -2.85553 1.36458, -3.09952  C0.731361, -3.37978 0.011195, -3.45798 -0.667416, -3.32019  C-1.38861, -3.17697 -2.05831, -2.79012 -2.54269, -2.23694  C-3.0768, -1.63353 -3.3822, -0.834139 -3.3865, -0.0283198  C-3.39572, 0.779944 -3.10185, 1.58679 -2.57491, 2.19975  C-1.95505, 2.93278 -1.01087, 3.37661 -0.050938, 3.38621  C0.732448, 3.40022 1.51675, 3.13009 2.12536, 2.63664  C2.51772, 2.3209 2.8381, 1.91586 3.05507, 1.46138  C3.27275, 1.00723 3.38702, 0.503639 3.38659, 1.18928e-06 " /><path d="M3.38659, 1.18928e-06 C3.38802, -0.698242 3.16564, -1.39456 2.75982, -1.96276  C2.40846, -2.4582 1.92079, -2.85553 1.36457, -3.09952  C0.73135, -3.37979 0.0111754, -3.45798 -0.667441, -3.32018  C-1.38865, -3.17695 -2.05835, -2.79009 -2.54274, -2.23689  C-3.07604, -1.63435 -3.38134, -0.836411 -3.38646, -0.0317775  C-3.39663, 0.781809 -3.09951, 1.5942 -2.56679, 2.20921  C-1.91677, 2.97323 -0.912966, 3.41768 0.0896368, 3.38541  C0.843285, 3.36736 1.5872, 3.08724 2.16556, 2.60372  C2.93187, 1.9735 3.3921, 0.992167 3.38659, 1.11933e-06 " /><path d="M3.38659, 1.11933e-06 C3.38801, -0.698242 3.16564, -1.39456 2.75982, -1.96276  C2.40846, -2.4582 1.92079, -2.85553 1.36457, -3.09952  C0.731352, -3.37978 0.0111787, -3.45798 -0.667437, -3.32018  C-1.38864, -3.17695 -2.05834, -2.79009 -2.54273, -2.2369  C-3.07619, -1.63418 -3.38151, -0.835949 -3.38647, -0.0310753  C-3.39647, 0.782622 -3.0991, 1.59506 -2.56612, 2.20999  C-1.9338, 2.95208 -0.967876, 3.39375 0.00704995, 3.38658  C0.780459, 3.38709 1.55012, 3.11104 2.14691, 2.61911  C2.92412, 1.98934 3.39228, 1.00031 3.38659, 1.04937e-06 " /><path d="M3.38659, 1.04937e-06 C3.38801, -0.698242 3.16564, -1.39456 2.75982, -1.96276  C2.40846, -2.4582 1.92079, -2.85552 1.36457, -3.09952  C0.731353, -3.37978 0.0111814, -3.45798 -0.667433, -3.32018  C-1.38864, -3.17695 -2.05834, -2.79009 -2.54272, -2.2369  C-3.07629, -1.63407 -3.38162, -0.835644 -3.38647, -0.0306124  C-3.39636, 0.783157 -3.09883, 1.59562 -2.56568, 2.2105  C-1.93272, 2.95306 -0.965668, 3.39461 0.0100243, 3.38657  C0.791557, 3.38646 1.56892, 3.10374 2.16791, 2.60175  C2.93285, 1.97148 3.39208, 0.991134 3.38659, 9.79414e-07 " /><path d="M3.38659, 9.79414e-07 C3.38801, -0.698242 3.16564, -1.39456 2.75981, -1.96276  C2.40845, -2.4582 1.92079, -2.85552 1.36457, -3.09952  C0.73134, -3.37979 0.011159, -3.45798 -0.667462, -3.32017  C-1.38868, -3.17693 -2.05839, -2.79006 -2.54277, -2.23684  C-3.07521, -1.63524 -3.3804, -0.838887 -3.38642, -0.0355399  C-3.39748, 0.777431 -3.10172, 1.58956 -2.57041, 2.20499  C-1.93038, 2.95944 -0.945958, 3.40437 0.0432314, 3.38631  C0.795114, 3.37861 1.54092, 3.11011 2.12517, 2.63678  C2.51758, 2.32105 2.83801, 1.91599 3.05501, 1.46148  C3.27273, 1.00731 3.38702, 0.503678 3.38659, 9.09457e-07 " /><path d="M3.38659, 9.09457e-07 C3.38801, -0.698241 3.16564, -1.39456 2.75981, -1.96275  C2.40845, -2.4582 1.92079, -2.85552 1.36457, -3.09952  C0.731338, -3.37978 0.011154, -3.45798 -0.667469, -3.32017  C-1.38869, -3.17693 -2.0584, -2.79005 -2.54278, -2.23683  C-3.07497, -1.63549 -3.38014, -0.839571 -3.38641, -0.0365781  C-3.39771, 0.776217 -3.10234, 1.58827 -2.57142, 2.20381  C-1.93484, 2.95478 -0.957204, 3.3997 0.027174, 3.38648  C0.802423, 3.38239 1.57224, 3.1004 2.16669, 2.60276  C2.93234, 1.97252 3.39209, 0.991666 3.38659, 8.395e-07 " /><path d="M3.38659, 8.395e-07 C3.38801, -0.698241 3.16564, -1.39456 2.75981, -1.96275  C2.40845, -2.45819 1.92079, -2.85552 1.36457, -3.09951  C0.731355, -3.37978 0.0111871, -3.45797 -0.667424, -3.32018  C-1.38862, -3.17695 -2.05832, -2.7901 -2.5427, -2.23691  C-3.07651, -1.63383 -3.38186, -0.834988 -3.38647, -0.0296169  C-3.39613, 0.784305 -3.09824, 1.59683 -2.56473, 2.21159  C-1.93082, 2.95465 -0.962254, 3.39588 0.0144172, 3.38655  C0.8041, 3.38548 1.58904, 3.09564 2.18991, 2.58326  C2.94196, 1.95262 3.39188, 0.981444 3.38658, 7.69543e-07 " /><path d="M3.38658, 7.69543e-07 C3.38801, -0.698241 3.16563, -1.39456 2.75981, -1.96275  C2.40845, -2.45819 1.92079, -2.85552 1.36457, -3.09951  C0.731354, -3.37977 0.0111876, -3.45797 -0.667423, -3.32017  C-1.38862, -3.17695 -2.05832, -2.7901 -2.5427, -2.23691  C-3.07652, -1.63382 -3.38188, -0.834946 -3.38647, -0.0295524  C-3.39611, 0.784379 -3.0982, 1.59691 -2.56467, 2.21166  C-1.9307, 2.95475 -0.962036, 3.39596 0.0146967, 3.38655  C0.804859, 3.38542 1.59024, 3.09515 2.19122, 2.58214  C2.9425, 1.95149 3.39186, 0.980868 3.38658, 6.99585e-07 " /><path d="M3.38658, 6.99585e-07 C3.388, -0.698241 3.16563, -1.39456 2.75981, -1.96275  C2.40845, -2.45819 1.92078, -2.85552 1.36457, -3.09951  C0.731335, -3.37978 0.0111513, -3.45797 -0.667471, -3.32016  C-1.38869, -3.17692 -2.0584, -2.79004 -2.54278, -2.23682  C-3.07484, -1.63564 -3.37998, -0.839972 -3.3864, -0.0371915  C-3.39785, 0.775497 -3.1027, 1.5875 -2.57202, 2.20311  C-1.93769, 2.95175 -0.964506, 3.39664 0.0166861, 3.38654  C0.781044, 3.38479 1.54109, 3.11318 2.13343, 2.63009  C2.52348, 2.31423 2.84177, 1.90993 3.05729, 1.45668  C3.27353, 1.00377 3.387, 0.501905 3.38658, 6.29628e-07 " /><path d="M3.38658, 6.29628e-07 C3.388, -0.69824 3.16563, -1.39456 2.75981, -1.96275  C2.40845, -2.45819 1.92078, -2.85552 1.36456, -3.09951  C0.731333, -3.37978 0.0111475, -3.45797 -0.667476, -3.32016  C-1.3887, -3.17692 -2.05841, -2.79003 -2.54279, -2.23681  C-3.07463, -1.63585 -3.37976, -0.840571 -3.38638, -0.0381019  C-3.39805, 0.774428 -3.10324, 1.58636 -2.57291, 2.20207  C-1.9423, 2.9468 -0.976536, 3.39153 -0.000694777, 3.38658  C0.775203, 3.38888 1.54795, 3.11276 2.14669, 2.61928  C2.92402, 1.98952 3.39227, 1.0004 3.38658, 5.5967e-07 " /><path d="M3.38658, 5.5967e-07 C3.388, -0.69824 3.16563, -1.39456 2.75981, -1.96275  C2.40845, -2.45819 1.92078, -2.85551 1.36457, -3.09951  C0.731356, -3.37977 0.0111928, -3.45797 -0.667415, -3.32017  C-1.38861, -3.17695 -2.0583, -2.7901 -2.54269, -2.23692  C-3.07671, -1.6336 -3.3821, -0.834355 -3.38648, -0.0286558  C-3.39582, 0.781146 -3.10085, 1.58954 -2.57212, 2.20298  C-1.9382, 2.9512 -0.965841, 3.39607 0.0147615, 3.38655  C0.765304, 3.38515 1.51199, 3.12392 2.0997, 2.65709  C2.49941, 2.34179 2.8264, 1.93451 3.04793, 1.47616  C3.27021, 1.01817 3.38703, 0.509101 3.38658, 4.89712e-07 " /><path d="M3.38658, 4.89712e-07 C3.388, -0.69824 3.16563, -1.39456 2.7598, -1.96275  C2.40845, -2.45819 1.92078, -2.85552 1.36456, -3.09951  C0.73133, -3.37978 0.0111437, -3.45797 -0.66748, -3.32016  C-1.3887, -3.17691 -2.05842, -2.79002 -2.54279, -2.2368  C-3.07445, -1.63605 -3.37955, -0.841113 -3.38637, -0.0389259  C-3.39823, 0.773459 -3.10372, 1.58532 -2.57372, 2.20111  C-1.947, 2.94169 -0.988993, 3.38617 -0.0188223, 3.38652  C0.755584, 3.39295 1.52836, 3.12205 2.12924, 2.63348  C2.52048, 2.31768 2.83986, 1.913 3.05613, 1.45911  C3.27312, 1.00556 3.387, 0.502802 3.38658, 4.19754e-07 " /><path d="M3.38658, 4.19754e-07 C3.388, -0.698239 3.16563, -1.39455 2.7598, -1.96275  C2.40845, -2.45819 1.92078, -2.85551 1.36457, -3.0995  C0.731357, -3.37976 0.0111963, -3.45796 -0.667409, -3.32017  C-1.3886, -3.17695 -2.05829, -2.7901 -2.54268, -2.23693  C-3.07684, -1.63346 -3.38224, -0.833954 -3.38648, -0.0280461  C-3.39562, 0.778983 -3.10261, 1.5846 -2.5771, 2.19715  C-1.94217, 2.95011 -0.965065, 3.39761 0.0198087, 3.38652  C0.781322, 3.38405 1.53833, 3.11381 2.12925, 2.63347  C2.52049, 2.31767 2.83986, 1.91299 3.05613, 1.4591  C3.27312, 1.00556 3.387, 0.502799 3.38657, 3.49795e-07 " /><path d="M3.38657, 3.49795e-07 C3.388, -0.698239 3.16562, -1.39455 2.7598, -1.96275  C2.40844, -2.45819 1.92078, -2.85551 1.36456, -3.0995  C0.731323, -3.37978 0.0111315, -3.45797 -0.667496, -3.32015  C-1.38873, -3.1769 -2.05844, -2.79 -2.54282, -2.23676  C-3.07384, -1.6367 -3.37886, -0.84292 -3.38634, -0.0416734  C-3.39884, 0.770214 -3.10536, 1.58183 -2.57644, 2.19792  C-1.9507, 2.9392 -0.993363, 3.38486 -0.0232836, 3.38649  C0.763848, 3.39417 1.5495, 3.11494 2.15524, 2.61224  C2.92757, 1.98226 3.39218, 0.996666 3.38657, 2.79837e-07 " /><path d="M3.38657, 2.79837e-07 C3.38799, -0.698239 3.16562, -1.39455 2.7598, -1.96275  C2.40844, -2.45819 1.92077, -2.85551 1.36456, -3.0995  C0.731322, -3.37977 0.0111305, -3.45796 -0.667497, -3.32015  C-1.38873, -3.1769 -2.05844, -2.79 -2.54282, -2.23676  C-3.07378, -1.63676 -3.3788, -0.843081 -3.38633, -0.0419193  C-3.39889, 0.769922 -3.10551, 1.58152 -2.57669, 2.19763  C-1.94762, 2.94314 -0.983156, 3.38949 -0.00770889, 3.38656  C0.749781, 3.39023 1.50502, 3.12902 2.09838, 2.65813  C2.49846, 2.34285 2.8258, 1.93546 3.04756, 1.47691  C3.27008, 1.01873 3.38702, 0.50938 3.38657, 2.09878e-07 " /><path d="M3.38657, 2.09878e-07 C3.38799, -0.698238 3.16562, -1.39455 2.7598, -1.96274  C2.40844, -2.45818 1.92078, -2.85551 1.36456, -3.0995  C0.731339, -3.37976 0.0111651, -3.45796 -0.66745, -3.32015  C-1.38866, -3.17692 -2.05836, -2.79005 -2.54274, -2.23685  C-3.07554, -1.63485 -3.38078, -0.837828 -3.38642, -0.0339379  C-3.3971, 0.779294 -3.10076, 1.59154 -2.56885, 2.20679  C-1.92418, 2.96577 -0.930714, 3.41057 0.0647941, 3.38595  C0.808408, 3.37353 1.54454, 3.10623 2.12285, 2.63862  C2.51593, 2.32292 2.83695, 1.91767 3.05436, 1.46281  C3.27248, 1.00829 3.387, 0.504168 3.38657, 1.39919e-07 " /><path d="M3.38657, 1.39919e-07 C3.3879, -0.685998 3.17345, -1.37024 2.78085, -1.93278  C2.30997, -2.61512 1.57925, -3.11141 0.771382, -3.29755 " /></g>
<g   fill="none"
   stroke="rgb(0, 0, 0)"
   stroke-linecap="butt"
   stroke-linejoin="miter"
   stroke-width="0.35"
   transform="scale(1, -1)"
  >
<path d="M6.5 0 A6.5 6.5 0 0 1 5.62917 3.25" /><path d="M5.62917 -3.25 A6.5 6.5 0 0 1 6.5 -1.59204e-15" /><path d="M-6.96719e-15 -6.5 A6.5 6.5 0 0 1 5.62917 -3.25" /><path d="M-5.62917 -3.25 A6.5 6.5 0 0 1 -6.96719e-15 -6.5" /><path d="M-5.62917 3.25 A6.5 6.5 0 0 1 -5.62917 -3.25" /><path d="M1.8413e-15 6.5 A6.5 6.5 0 0 1 -5.62917 3.25" /><path d="M5.62917 3.25 A6.5 6.5 0 0 1 1.8413e-15 6.5" /><path d="M5.62917, 3.25 C6.22436, 2.21909 6.81919, 1.18881 7.50555, 5.40012e-13 " /><path d="M1.33227e-15, 6.5 C1.19039, 6.5 2.38006, 6.5 3.75278, 6.5 " /><path d="M3.75278, 6.5 C4.43914, 5.31119 5.03397, 4.28091 5.62917, 3.25 " /><path d="M-5.62917, 3.25 C-5.03397, 4.28091 -4.43914, 5.31119 -3.75278, 6.5 " /><path d="M-3.75278, 6.5 C-2.38006, 6.5 -1.19039, 6.5 1.55431e-15, 6.5 " /><path d="M-5.62917, -3.25 C-6.22436, -2.21909 -6.81919, -1.18881 -7.50555, -2.88214e-13 " /><path d="M-7.50555, 7.92504e-13 C-6.81919, 1.18881 -6.22436, 2.21909 -5.62917, 3.25 " /><path d="M-3.75278, -6.5 C-4.43914, -5.31119 -5.03397, -4.28091 -5.62917, -3.25 " /><path d="M-6.66134e-15, -6.5 C-1.19039, -6.5 -2.38006, -6.5 -3.75278, -6.5 " /><path d="M3.75278, -6.5 C2.38006, -6.5 1.19039, -6.5 -6.66134e-15, -6.5 " /><path d="M5.62917, -3.25 C5.03397, -4.28091 4.43914, -5.31119 3.75278, -6.5 " /><path d="M7.50555, -5.40012e-13 C6.81919, -1.18881 6.22436, -2.21909 5.62917, -3.25 " /></g>

</svg>
