<svg xmlns="http://www.w3.org/2000/svg" viewBox="-8.448532 -9.010462 13.719774000000001 15.739634">
<rect width="100%" height="100%" fill="white"/>
<g   fill="none"
   stroke="rgb(0, 0, 0)"
   stroke-linecap="butt"
   stroke-linejoin="miter"
   stroke-width="0.35"
   transform="scale(1, -1)"
  >
<path id= "1" d=" M -1.49039 6.873 L -2.15604 7.25731 " />
<path id= "2" d=" M -6.69739 -2.14578 L -7.36304 -1.76148 " />
<path d="M-2.15604 7.25731 A5.207 5.207 0 0 1 -7.36304 -1.76148" /></g>
<g   fill="none"
   stroke="rgb(0, 0, 0)"
   stroke-linecap="butt"
   stroke-linejoin="miter"
   stroke-width="0.35"
   transform="scale(1, -1)"
  >
<path d="M4.18575, 2.82184 C4.00945, 3.27431 3.76115, 3.72159 3.40249, 4.23276 " /><path d="M3.40249, 4.23276 C3.04163, 4.74521 2.57085, 5.32094 1.91742, 6.04888 " /><path d="M-2.61924, -5.64368 C-1.55095, -5.30237 -0.720623, -4.95144 -2.46287e-09, -4.53666 " /><path d="M1.91742, -3.02444 C2.57085, -2.09293 3.04163, -1.23049 3.40249, -0.303899 " /><path d="M-2.46287e-09, -4.53666 C0.718416, -4.12061 1.32626, -3.64122 1.91742, -3.02444 " /><path d="M3.40249, -0.303899 C3.76115, 0.623966 4.00945, 1.61486 4.18575, 2.82184 " /><path id= "7" d=" M 4.18575 2.82184 L 0.936258 4.69793 " />
<path d="M-1.33207, 7.92497 L-1.25219, 7.73119  L-1.16266, 7.53683  L-1.06294, 7.34071  L-0.952415, 7.14161  L-0.830399, 6.93831  L-0.696142, 6.72955  L-0.548818, 6.51405  L-0.387519, 6.29049  L-0.211251, 6.05747  L-0.018927, 5.81358  L0.190637, 5.5573  L0.418731, 5.28706  L0.666762, 5.00119  L0.936258, 4.69793 " /><path id= "9" d=" M 1.91742 6.04888 L -1.33207 7.92497 " />
<path d="M-2.58219, 7.47782 Q-2.01531, 7.70721 -1.33207, 7.92497 " /><path d="M-5.86873, -3.76759 C-5.92391, -3.70577 -5.97909, -3.64394 -6.03426, -3.58212  C-6.08675, -3.52251 -6.13924, -3.46289 -6.19173, -3.40327  C-6.24164, -3.34573 -6.29156, -3.28818 -6.34147, -3.23064  C-6.38892, -3.17503 -6.43638, -3.11943 -6.48383, -3.06382  C-6.52893, -3.01004 -6.57404, -2.95625 -6.61914, -2.90246  C-6.66199, -2.85037 -6.70483, -2.79828 -6.74768, -2.74618  C-6.78838, -2.69567 -6.82907, -2.64515 -6.86976, -2.59464  C-7.14632, -2.24701 -7.37401, -1.93384 -7.56464, -1.63891 " /><path id= "12" d=" M -2.61924 -5.64368 L -5.86873 -3.76759 " />
<path d="M-1.33207, -1.14835 L-1.77626, -1.29532  L-2.19307, -1.44446  L-2.58507, -1.59666  L-2.95468, -1.75288  L-3.30417, -1.91406  L-3.6357, -2.08122  L-3.95131, -2.25537  L-4.25295, -2.43759  L-4.54247, -2.629  L-4.82165, -2.83078  L-5.09223, -3.04417  L-5.35585, -3.27049  L-5.61416, -3.51114  L-5.86873, -3.76759 " /><path id= "14" d=" M 1.91742 -3.02444 L -1.33207 -1.14835 " />
<path d="M0.936258, 4.69793 L0.666762, 4.30243  L0.418731, 3.91319  L0.190637, 3.5278  L-0.018927, 3.1439  L-0.211251, 2.75911  L-0.387519, 2.37107  L-0.548818, 1.97739  L-0.696142, 1.57564  L-0.830399, 1.16335  L-0.952415, 0.737972  L-1.06294, 0.29689  L-1.16266, -0.162615  L-1.25219, -0.643373  L-1.33207, -1.14835 " /><path d="M-0.411988 4.48936 A5.207 3.00626 60 0 1 -1.49039 6.873" />
<path d="M-6.69739 -2.14578 A5.207 3.00626 60 0 1 -0.411988 4.48936" />
</g>

</svg>
