<svg xmlns="http://www.w3.org/2000/svg" viewBox="-12.964528000000001 -7.442328 13.991056 14.884656">
<rect width="100%" height="100%" fill="white"/>
<g   fill="none"
   stroke="rgb(0, 0, 0)"
   stroke-linecap="butt"
   stroke-linejoin="miter"
   stroke-width="0.35"
   transform="scale(1, -1)"
  >
<path id= "1" d=" M -2.82693e-16 -5.55625 L -0.496264 -6.4158 " />
<path id= "2" d=" M -5.78964 -5.207 L -5.09174 -6.4158 " />
<path id= "3" d=" M -5.78964 -5.207 L -6.731 -5.207 " />
<path d="M-11.938 -2.37826e-16 A5.207 5.207 0 0 1 -6.731 -5.207" /></g>
<g   fill="none"
   stroke="rgb(0, 0, 0)"
   stroke-linecap="butt"
   stroke-linejoin="miter"
   stroke-width="0.35"
   transform="scale(1, -1)"
  >
<path d="M0, 4.81185 C0, 5.05346 0, 5.24045 0, 5.36693  C0, 5.3836 0, 5.40027 0, 5.41694  C0, 5.44667 0, 5.47241 0, 5.49419  C0, 5.51372 0, 5.52922 0, 5.54071  C0, 5.54993 0, 5.55511 0, 5.55625 " /><path d="M0, -3.48303e-09 Q0, 0.41587 0, 0.828116  Q0, 1.23832 0, 1.63773  Q0, 1.83383 0, 2.02993  Q0, 2.22035 0, 2.41077  Q0, 2.59445 0, 2.77812  Q0, 2.95404 0, 3.12995  Q0, 3.29711 0, 3.46427  Q0, 3.62174 0, 3.77921  Q0, 3.92611 0, 4.07302  Q0, 4.20854 0, 4.34405  Q0, 4.46742 0, 4.59079  Q0, 4.70132 0, 4.81185 " /><path d="M0, -4.81185 Q0, -4.70132 0, -4.59079  Q0, -4.46742 0, -4.34405  Q0, -4.20854 0, -4.07302  Q0, -3.92611 0, -3.77921  Q0, -3.62174 0, -3.46427  Q0, -3.29711 0, -3.12995  Q0, -2.95404 0, -2.77813  Q0, -2.59445 0, -2.41077  Q0, -2.22035 0, -2.02993  Q0, -1.83383 0, -1.63773  Q0, -1.23832 0, -0.828116  Q0, -0.41587 0, -3.48303e-09 " /><path d="M0, -5.55625 C0, -5.55511 0, -5.54993 0, -5.54071  C0, -5.52922 0, -5.51372 0, -5.49419  C0, -5.47241 0, -5.44667 0, -5.41694  C0, -5.40027 0, -5.3836 0, -5.36693  C0, -5.24045 0, -5.05346 0, -4.81185 " /><path id= "5" d=" M 0 5.55625 L -0.496264 6.4158 " />
<path d="M-0.496264, -6.4158 C-0.158882, -5.8291 -0.00156069, -5.32063 2.77556e-17, -4.81185 " /><path d="M-0.496264, -3.2079 C-0.158882, -2.03449 -0.00156069, -1.01755 -1.38778e-17, -3.48303e-09 " /><path d="M1.38778e-17, -4.81185 C-0.00156069, -4.30308 -0.158882, -3.79461 -0.496264, -3.2079 " /><path d="M-0.496264, 3.2079 C-0.158882, 3.79461 -0.0015607, 4.30308 0, 4.81185 " /><path d="M-1.38778e-17, -3.48303e-09 C-0.00156069, 1.01755 -0.158882, 2.03449 -0.496264, 3.2079 " /><path d="M-1.38778e-17, 4.81185 C-0.00156068, 5.32063 -0.158882, 5.8291 -0.496264, 6.4158 " /><path id= "12" d=" M -0.496264 6.4158 L -5.09174 6.4158 " />
<path id= "13" d=" M -0.496264 -6.4158 L -5.09174 -6.4158 " />
<path d="M-5.09174, -3.2079 L-5.22581, -3.45495  L-5.33789, -3.69364  L-5.42867, -3.92544  L-5.4987, -4.15178  L-5.54841, -4.37405  L-5.57812, -4.59362  L-5.588, -4.81185  L-5.57812, -5.03008  L-5.54841, -5.24966  L-5.4987, -5.47193  L-5.42867, -5.69827  L-5.33789, -5.93007  L-5.22581, -6.16876  L-5.09174, -6.4158 " /><path id= "15" d=" M -0.496264 -3.2079 L -5.09174 -3.2079 " />
<path d="M-5.09174, 3.2079 L-5.22581, 2.7138  L-5.33789, 2.23643  L-5.42867, 1.77283  L-5.4987, 1.32015  L-5.54841, 0.875608  L-5.57812, 0.436459  L-5.588, -4.44089e-16  L-5.57812, -0.436459  L-5.54841, -0.875608  L-5.4987, -1.32015  L-5.42867, -1.77283  L-5.33789, -2.23643  L-5.22581, -2.7138  L-5.09174, -3.2079 " /><path id= "17" d=" M -0.496264 3.2079 L -5.09174 3.2079 " />
<path d="M-5.09174, 6.4158 L-5.22581, 6.16876  L-5.33789, 5.93007  L-5.42867, 5.69827  L-5.4987, 5.47193  L-5.54841, 5.24966  L-5.57812, 5.03008  L-5.588, 4.81185  L-5.57812, 4.59362  L-5.54841, 4.37405  L-5.4987, 4.15178  L-5.42867, 3.92544  L-5.33789, 3.69364  L-5.22581, 3.45495  L-5.09174, 3.2079 " /><path id= "19" d=" M -5.09174 6.4158 L -5.78964 5.207 " />
<path d="M-5.78964, -5.207 L-5.78964, -5.07645  L-5.78964, -4.69134  L-5.78964, -4.071  L-5.78964, -3.24651  L-5.78964, -2.25923  L-5.78964, -1.15867  L-5.78964, -8.88178e-16  L-5.78964, 1.15867  L-5.78964, 2.25923  L-5.78964, 3.24651  L-5.78964, 4.071  L-5.78964, 4.69134  L-5.78964, 5.07645  L-5.78964, 5.207 " /><path id= "21" d=" M -5.78964 5.207 L -6.731 5.207 " />
<path d="M-6.731 5.207 A5.207 5.207 0 0 1 -11.938 8.10108e-17" /></g>

</svg>
