<svg xmlns="http://www.w3.org/2000/svg" viewBox="-7.442328 -6.582778 14.884656 13.165556">
<rect width="100%" height="100%" fill="white"/>
<g   fill="none"
   stroke="rgb(0, 0, 0)"
   stroke-linecap="butt"
   stroke-linejoin="miter"
   stroke-width="0.35"
   transform="scale(1, -1)"
  >
<path d="M3.2079, 5.55625 C3.29025, 5.41362 3.3726, 5.27098 3.45495, 5.12835  C3.53451, 4.99054 3.61408, 4.85273 3.69364, 4.71493  C3.77091, 4.5811 3.84817, 4.44727 3.92544, 4.31344  C4.00089, 4.18276 4.07633, 4.05209 4.15178, 3.92141  C4.22587, 3.79308 4.29996, 3.66475 4.37405, 3.53642  C4.52068, 3.28245 4.66662, 3.02968 4.81185, 2.77812  C5.02972, 2.40077 5.24857, 2.0217 5.47193, 1.63484  C5.54738, 1.50416 5.62282, 1.37349 5.69827, 1.24281  C5.77553, 1.10898 5.8528, 0.975152 5.93007, 0.841323  C6.00963, 0.703516 6.08919, 0.565708 6.16876, 0.427901  C6.25111, 0.285268 6.33346, 0.142634 6.4158, 8.4821e-14 " /><path d="M-3.2079, 5.55625 C-3.0432, 5.55625 -2.8785, 5.55625 -2.7138, 5.55625  C-2.55468, 5.55625 -2.39555, 5.55625 -2.23643, 5.55625  C-2.08189, 5.55625 -1.92736, 5.55625 -1.77283, 5.55625  C-1.62194, 5.55625 -1.47104, 5.55625 -1.32015, 5.55625  C-0.873442, 5.55625 -0.435731, 5.55625 -1.11022e-16, 5.55625  C0.435731, 5.55625 0.873442, 5.55625 1.32015, 5.55625  C1.47104, 5.55625 1.62194, 5.55625 1.77283, 5.55625  C1.92736, 5.55625 2.08189, 5.55625 2.23643, 5.55625  C2.39555, 5.55625 2.55468, 5.55625 2.7138, 5.55625  C2.8785, 5.55625 3.0432, 5.55625 3.2079, 5.55625 " /><path d="M-6.4158, 3.06422e-14 Q-6.29228, 0.213951 -6.16876, 0.427901  Q-6.04941, 0.634612 -5.93007, 0.841323  Q-5.81417, 1.04207 -5.69827, 1.24281  Q-5.5851, 1.43883 -5.47193, 1.63484  Q-5.36079, 1.82733 -5.24966, 2.01983  Q-5.02971, 2.40079 -4.81185, 2.77812  Q-4.594, 3.15546 -4.37405, 3.53642  Q-4.26291, 3.72892 -4.15178, 3.92141  Q-4.03861, 4.11742 -3.92544, 4.31344  Q-3.80954, 4.51418 -3.69364, 4.71493  Q-3.5743, 4.92164 -3.45495, 5.12835  Q-3.33143, 5.3423 -3.2079, 5.55625 " /><path d="M-3.2079, -5.55625 C-3.29025, -5.41362 -3.3726, -5.27098 -3.45495, -5.12835  C-3.53451, -4.99054 -3.61408, -4.85273 -3.69364, -4.71493  C-3.77091, -4.5811 -3.84817, -4.44727 -3.92544, -4.31344  C-4.00089, -4.18276 -4.07633, -4.05209 -4.15178, -3.92141  C-4.22587, -3.79308 -4.29996, -3.66475 -4.37405, -3.53642  C-4.52068, -3.28245 -4.66662, -3.02968 -4.81185, -2.77812  C-5.02972, -2.40077 -5.24857, -2.0217 -5.47193, -1.63484  C-5.54738, -1.50416 -5.62282, -1.37349 -5.69827, -1.24281  C-5.77553, -1.10898 -5.8528, -0.975152 -5.93007, -0.841323  C-6.00963, -0.703516 -6.08919, -0.565708 -6.16876, -0.427901  C-6.25111, -0.285268 -6.33346, -0.142634 -6.4158, -1.37668e-13 " /><path d="M3.2079, -5.55625 C3.0432, -5.55625 2.8785, -5.55625 2.7138, -5.55625  C2.55468, -5.55625 2.39555, -5.55625 2.23643, -5.55625  C2.08189, -5.55625 1.92736, -5.55625 1.77283, -5.55625  C1.62194, -5.55625 1.47104, -5.55625 1.32015, -5.55625  C0.873442, -5.55625 0.435731, -5.55625 -4.44089e-16, -5.55625  C-0.29047, -5.55625 -0.582339, -5.55625 -0.875608, -5.55625  C-1.02379, -5.55625 -1.17197, -5.55625 -1.32015, -5.55625  C-1.47104, -5.55625 -1.62194, -5.55625 -1.77283, -5.55625  C-1.92736, -5.55625 -2.08189, -5.55625 -2.23643, -5.55625  C-2.39555, -5.55625 -2.55468, -5.55625 -2.7138, -5.55625  C-2.8785, -5.55625 -3.0432, -5.55625 -3.2079, -5.55625 " /><path d="M6.4158, -8.43769e-14 C6.33346, -0.142634 6.25111, -0.285268 6.16876, -0.427901  C6.08919, -0.565708 6.00963, -0.703516 5.93007, -0.841323  C5.8528, -0.975152 5.77553, -1.10898 5.69827, -1.24281  C5.62282, -1.37349 5.54738, -1.50416 5.47193, -1.63484  C5.39784, -1.76317 5.32375, -1.8915 5.24966, -2.01983  C5.10302, -2.2738 4.95709, -2.52657 4.81185, -2.77812  C4.59399, -3.15548 4.37513, -3.53455 4.15178, -3.92141  C4.07633, -4.05209 4.00089, -4.18276 3.92544, -4.31344  C3.84817, -4.44727 3.77091, -4.5811 3.69364, -4.71493  C3.61408, -4.85273 3.53451, -4.99054 3.45495, -5.12835  C3.3726, -5.27098 3.29025, -5.41362 3.2079, -5.55625 " /><circle cx ="0" cy ="0" r ="5.207" /></g>

</svg>
