<svg xmlns="http://www.w3.org/2000/svg" viewBox="-8.3755896 -8.1555596 13.2156492 14.2698792">
<rect width="100%" height="100%" fill="white"/>
<g   fill="none"
   stroke="rgb(0, 0, 0)"
   stroke-linecap="butt"
   stroke-linejoin="miter"
   stroke-width="0.35"
   transform="scale(1, -1)"
  >
<path d="M-1.68213, 2.99807 Q-1.68826, 2.86472 -1.70814, 2.72594 " /><path d="M-5.49535 -0.0277263 A3 1.73205 60 0 1 -1.41421 3.26599" />
<path d="M-3.65101, -0.135545 C-3.98346, -0.337307 -4.32627, -0.442251 -4.63403, -0.436439  C-4.97983, -0.431278 -5.28041, -0.287144 -5.49535, -0.0277263 " /><path d="M-3.65101 -0.135545 A2.45873 1.41955 60 0 1 -1.70814 2.72594" />
<path d="M-1.82235, 3.85682 C-2.25059, 3.98327 -2.80603, 3.82542 -3.31787, 3.44074  C-3.69426, 3.16091 -4.04434, 2.76479 -4.30797, 2.32781  C-4.62294, 1.80941 -4.81168, 1.23737 -4.8333, 0.761165  C-4.85612, 0.312458 -4.73236, -0.0477148 -4.49587, -0.234505 " /><path d="M-1.84259, 3.89956 C-2.28962, 4.11979 -2.9254, 3.97584 -3.50512, 3.53495  C-3.89827, 3.24023 -4.26168, 2.8187 -4.52747, 2.35763  C-4.82642, 1.84288 -4.99985, 1.2831 -5.01173, 0.820242  C-5.02697, 0.340356 -4.86955, -0.0302143 -4.58811, -0.190157 " /><path d="M-4.58811, -0.190157 C-4.343, -0.333199 -4.00591, -0.314699 -3.65101, -0.135545 " /><path d="M-5.49535, -0.0277263 L-5.49539, -0.0276621 " /><path d="M0 4.08248 A5 2.88675 60 0 1 -0.473672 5.85025" />
<path d="M-0.473672 1.76777 A5 2.88675 60 0 1 0 4.08248" />
<path d="M-3.53553 -2.04124 A5 2.88675 60 0 1 -0.473672 1.76777" />
<path d="M-6.5974 -1.76777 A5 2.88675 60 0 1 -3.53553 -2.04124" />
<path d="M-6.5974 2.31472 A5 2.88675 60 0 1 -6.5974 -1.76777" />
<path d="M-3.53553 6.12372 A5 2.88675 60 0 1 -6.5974 2.31472" />
<path d="M-0.473672 5.85025 A5 2.88675 60 0 1 -3.53553 6.12372" />
<path d="M-1.41421 3.26599 A3 1.73205 60 0 1 -5.49535 1.84719" />
<path d="M-5.49538, 1.8471 L-5.49535, 1.84719 " /><path d="M-5.49539, -0.0276621 C-5.53195, 0.030816 -5.56555, 0.106013 -5.59617, 0.197928  C-5.6512, 0.365706 -5.68271, 0.575263 -5.68237, 0.801691  C-5.68428, 1.11438 -5.61807, 1.47733 -5.52383, 1.76397 " /><path d="M-5.52383, 1.76397 Q-5.50955, 1.80786 -5.49538, 1.8471 " /><path d="M-1.68213, 2.99807 C-1.65868, 3.48654 -1.78054, 3.904 -2.02146, 4.1622  C-2.26976, 4.43287 -2.64396, 4.53033 -3.06351, 4.43693  C-3.50805, 4.34098 -3.99978, 4.03149 -4.42964, 3.58207  C-4.88773, 3.10671 -5.27186, 2.47819 -5.49535, 1.84719 " /><path d="M-1.7066, 3.4626 C-2.00026, 3.40444 -2.31322, 3.25476 -2.61086, 3.03243  C-2.98732, 2.75251 -3.33746, 2.35628 -3.60109, 1.91919  C-3.91657, 1.39984 -4.10533, 0.826699 -4.12633, 0.350028  C-4.13703, 0.112809 -4.11, -0.0940223 -4.04523, -0.270465 " /><path d="M-1.73151, 3.58709 C-2.0708, 3.55569 -2.44568, 3.39254 -2.79845, 3.12638  C-3.19262, 2.83079 -3.55685, 2.40774 -3.82277, 1.94522  C-4.1187, 1.43429 -4.29101, 0.879396 -4.3044, 0.419201  C-4.31342, 0.142984 -4.26707, -0.0992303 -4.1711, -0.284368 " /><path d="M-0.473672, 5.85025 C-0.149216, 5.38927 0.246151, 4.88751 0.773503, 4.26746 " /><path d="M0.773503, 4.26746 C0.246151, 3.39419 -0.149216, 2.60176 -0.473672, 1.76777 " /><path d="M-3.53553, 6.12372 C-2.88733, 6.49714 -2.16842, 6.82927 -1.26774, 7.17143 " /><path d="M-1.26774, 7.17143 C-1.04843, 6.72924 -0.796703, 6.31041 -0.473672, 5.85025 " /><path d="M-1.26774, -0.993531 C-2.16842, -1.33569 -2.88733, -1.66783 -3.53553, -2.04124 " /><path d="M-0.473672, 1.76777 C-0.796703, 0.932956 -1.04843, 0.0575956 -1.26774, -0.993531 " /><path d="M-6.5974, 2.31472 C-6.27294, 3.1487 -5.87757, 3.94113 -5.35022, 4.81441 " /><path d="M-5.35022, 4.81441 C-4.75758, 5.33442 -4.18231, 5.74949 -3.53553, 6.12372 " /><path d="M-5.35022, -3.35055 C-5.87757, -2.73051 -6.27294, -2.22875 -6.5974, -1.76777 " /><path d="M-3.53553, -2.04124 C-4.18231, -2.41548 -4.75758, -2.83054 -5.35022, -3.35055 " /><path d="M-6.5974, -1.76777 C-6.92043, -1.3076 -7.17215, -0.888776 -7.39146, -0.446582 " /><path d="M-7.39146, -0.446582 C-7.17215, 0.604545 -6.92043, 1.4799 -6.5974, 2.31472 " /><path d="M-1.70326, 2.76151 C-2.15351, 2.48171 -2.58378, 2.02586 -2.89354, 1.51169  C-3.19993, 1.00735 -3.38727, 0.452144 -3.41684, -0.016111 " /><path d="M-1.68328, 2.97514 C-2.21931, 2.70512 -2.74964, 2.16894 -3.10511, 1.55517  C-3.43483, 0.993079 -3.61343, 0.37596 -3.5976, -0.111537 " /><path d="M3.85593, 2.48782 C3.63662, 2.93002 3.38489, 3.34885 3.06186, 3.80901 " /><path id= "38" d=" M 0.773503 4.26746 L 3.85593 2.48782 " />
<path id= "39" d=" M 1.81469 5.3918 L -1.26774 7.17143 " />
<path d="M3.06186, 3.80901 C2.73741, 4.26999 2.34204, 4.77175 1.81469, 5.3918 " /><path d="M1.81469, -2.77317 C2.34204, -1.89989 2.73741, -1.10746 3.06186, -0.273475 " /><path id= "42" d=" M 1.81469 -2.77317 L -1.26774 -0.993531 " />
<path d="M3.06186, -0.273475 C3.38489, 0.561337 3.63662, 1.4367 3.85593, 2.48782 " /><path d="M-2.2678, -5.13019 C-1.36711, -4.78803 -0.648199, -4.4559 -3.23856e-08, -4.08248 " /><path id= "45" d=" M -2.2678 -5.13019 L -5.35022 -3.35055 " />
<path d="M-3.23856e-08, -4.08248 C0.646774, -3.70824 1.22205, -3.29318 1.81469, -2.77317 " /><path d="M-1.96157, 1.7622 C-2.24699, 1.42868 -2.48567, 1.03751 -2.64707, 0.645048 " /></g>

</svg>
