<svg xmlns="http://www.w3.org/2000/svg" viewBox="-6.69726 -5.92376 13.39452 11.84752">
<rect width="100%" height="100%" fill="white"/>
<g   fill="none"
   stroke="rgb(0, 0, 0)"
   stroke-linecap="butt"
   stroke-linejoin="miter"
   stroke-width="0.35"
   transform="scale(1, -1)"
  >
<path d="M2.48242, -7.21645e-16 Q2.4706, -0.155828 2.4393, -0.308548 " /><path d="M-2.77159 -1.14816 A3 3 0 0 1 3 -7.34788e-16" /><path d="M-0.308337, -2.43932 C-0.753986, -2.47586 -1.21519, -2.38559 -1.62759, -2.18369  C-2.09102, -1.95845 -2.49146, -1.59402 -2.77159, -1.14816 " /><path d="M-0.308337 -2.43932 A2.45873 2.45873 0 0 1 2.4393 -0.308548" /><path d="M2.45873, 5.48038e-07 C2.46054, 0.585842 2.24304, 1.16886 1.85796, 1.61039  C1.55768, 1.9579 1.15778, 2.21794 0.718347, 2.35146  C0.31036, 2.47664 -0.130376, 2.4926 -0.546352, 2.39726  C-1.06776, 2.27973 -1.54714, 1.98586 -1.88845, 1.57453  C-2.27258, 1.11685 -2.47921, 0.515254 -2.45737, -0.081868  C-2.43954, -0.673439 -2.19794, -1.25456 -1.79112, -1.68441  C-1.40434, -2.09802 -0.870321, -2.36988 -0.308337, -2.43932 " /><path d="M-2.77159, -1.14816 L-2.77165, -1.14805 " /><path d="M5 0 A5 5 0 0 1 4.33013 2.5" /><path d="M4.33013 -2.5 A5 5 0 0 1 5 -1.22465e-15" /><path d="M-4.58002e-08 -5 A5 5 0 0 1 4.33013 -2.5" /><path d="M-4.33013 -2.5 A5 5 0 0 1 -4.58002e-08 -5" /><path d="M-4.33013 2.5 A5 5 0 0 1 -4.33013 -2.5" /><path d="M3.70531e-08 5 A5 5 0 0 1 -4.33013 2.5" /><path d="M4.33013 2.5 A5 5 0 0 1 3.70531e-08 5" /><path d="M3 0 A3 3 0 0 1 -2.7716 1.14814" /><path d="M-2.77165, 1.14805 L-2.7716, 1.14814 " /><path d="M-2.77165, -1.14805 C-2.82145, -1.05357 -2.87278, -0.931735 -2.91419, -0.800496  C-2.99201, -0.556082 -3.03658, -0.277117 -3.03609, -1.46388e-05 " /><path d="M-3.03609, -1.46388e-05 C-3.0363, 0.230128 -3.00615, 0.460951 -2.95088, 0.673012  C-2.9044, 0.853421 -2.83754, 1.02325 -2.77165, 1.14805 " /><path d="M2.48242, 5.24047e-07 C2.52717, 0.570096 2.36617, 1.1562 2.03661, 1.63163  C1.69704, 2.12713 1.17919, 2.49975 0.597011, 2.67087  C-0.0198369, 2.85587 -0.703632, 2.8129 -1.30015, 2.55504  C-1.93587, 2.28464 -2.46721, 1.77459 -2.7716, 1.14814 " /><path d="M2.45873, 4.38429e-07 Q2.45843, 0.364768 2.35281, 0.713908 " /><path d="M-0.308337, -2.43932 C0.105446, -2.49211 0.532337, -2.43687 0.919053, -2.28051  C1.36061, -2.10342 1.74795, -1.79453 2.01884, -1.40344  C2.30396, -0.99498 2.45969, -0.498122 2.45873, 8.88178e-16 " /><path d="M4.33013, 2.5 C4.78797, 1.70699 5.24553, 0.914468 5.7735, 2.50022e-13 " /><path d="M5.7735, -2.49821e-13 C5.24553, -0.914468 4.78797, -1.70699 4.33013, -2.5 " /><path d="M3.70531e-08, 5 C0.915684, 5 1.83081, 5 2.88675, 5 " /><path d="M2.88675, 5 C3.41472, 4.08553 3.87228, 3.29301 4.33013, 2.5 " /><path d="M2.88675, -5 C1.83081, -5 0.915684, -5 -4.58002e-08, -5 " /><path d="M4.33013, -2.5 C3.87228, -3.29301 3.41472, -4.08553 2.88675, -5 " /><path d="M-4.33013, 2.5 C-3.87228, 3.29301 -3.41472, 4.08553 -2.88675, 5 " /><path d="M-2.88675, 5 C-1.83081, 5 -0.915684, 5 3.70531e-08, 5 " /><path d="M-2.88675, -5 C-3.41472, -4.08553 -3.87228, -3.29301 -4.33013, -2.5 " /><path d="M-4.58002e-08, -5 C-0.915684, -5 -1.83081, -5 -2.88675, -5 " /><path d="M-4.33013, -2.5 C-4.78797, -1.70699 -5.24553, -0.914468 -5.7735, -3.062e-13 " /><path d="M-5.7735, 1.93179e-13 C-5.24553, 0.914468 -4.78797, 1.70699 -4.33013, 2.5 " /><path d="M2.45873, 3.28821e-07 C2.46054, 0.585842 2.24304, 1.16886 1.85796, 1.61039  C1.55752, 1.95809 1.15734, 2.21823 0.717626, 2.35168  C0.309475, 2.47677 -0.13141, 2.49257 -0.547469, 2.39701  C-1.06313, 2.28048 -1.53766, 1.99158 -1.87797, 1.58702  C-2.2666, 1.13019 -2.47728, 0.527156 -2.45767, -0.0722994  C-2.4419, -0.678184 -2.19096, -1.27378 -1.76839, -1.70827  C-1.64714, -1.8337 -1.51409, -1.94501 -1.36922, -2.04221 " /><path d="M-0.958511, -2.26421 C-0.369918, -2.51614 0.317578, -2.52329 0.911299, -2.28362  C1.35718, -2.10657 1.74834, -1.79525 2.02091, -1.40046  C2.30473, -0.992569 2.45968, -0.496909 2.45873, 4.44089e-16 " /><path d="M2.45873, -0.00015989 L2.45873, 1.10064e-07 " /></g>

</svg>
