<svg xmlns="http://www.w3.org/2000/svg" viewBox="-10.4736176 -9.4047676 15.3368052 15.5703552">
<rect width="100%" height="100%" fill="white"/>
<g   fill="none"
   stroke="rgb(0, 0, 0)"
   stroke-linecap="butt"
   stroke-linejoin="miter"
   stroke-width="0.35"
   transform="scale(1, -1)"
  >
<path d="M3.78937, 2.52625 C3.61531, 2.94232 3.38468, 3.34897 3.06186, 3.80901 " /><path d="M3.06186, -0.273475 C3.38468, 0.561458 3.61531, 1.449 3.78937, 2.52625 " /><path d="M3.06186, 3.80901 C2.7372, 4.27011 2.32073, 4.78406 1.74813, 5.43022 " /><path d="M1.74813, -2.73474 C2.32073, -1.88759 2.7372, -1.10734 3.06186, -0.273475 " /><path d="M-3.23856e-08, -4.08248 C0.646565, -3.70812 1.20074, -3.28088 1.74813, -2.73474 " /><path d="M-2.33435, -5.09177 C-1.38842, -4.77573 -0.648409, -4.45578 -3.23856e-08, -4.08248 " /><path id= "7" d=" M 3.78937 2.52625 L -1.23483 5.42698 " />
<path d="M-1.23483 5.42698 A10.9087 2.30528 141.206 0 0 -3.27608 8.33095" />
<path id= "9" d=" M 1.74813 5.43022 L -3.27608 8.33095 " />
<path id= "10" d=" M 1.74813 -2.73474 L -3.27608 0.165983 " />
<path d="M-3.27608 0.165983 A10.9087 8.60343 84.8961 0 0 -1.23483 5.42698" />
<path d="M-3.27608 8.33095 A10.9087 6.29815 180 0 1 -7.35856 5.97393" />
<path id= "13" d=" M -2.33435 -5.09177 L -7.35856 -2.19104 " />
<path d="M-7.35856 -2.19104 A10.9087 6.29815 -2.0506e-14 0 0 -3.27608 0.165983" />
<path d="M-7.35856 5.97393 A10.9087 8.60343 -95.1039 0 1 -9.3998 0.712932" />
<path d="M-9.3998 0.712932 A10.9087 2.30528 -38.794 0 1 -7.35856 -2.19104" />
</g>

</svg>
