<svg xmlns="http://www.w3.org/2000/svg" viewBox="-6.930702800000001 -9.7467628 14.5939956 18.8403256">
<rect width="100%" height="100%" fill="white"/>
<g   fill="none"
   stroke="rgb(0, 0, 0)"
   stroke-linecap="butt"
   stroke-linejoin="miter"
   stroke-width="0.35"
   transform="scale(1, -1)"
  >
<path id= "1" d=" M -5.63137 -7.14103 L -4.5 -7.79423 " />
<path id= "2" d=" M 3.36863 8.44743 L 4.5 7.79423 " />
</g>
<g   fill="none"
   stroke="rgb(0, 0, 0)"
   stroke-linecap="butt"
   stroke-linejoin="miter"
   stroke-width="0.35"
   transform="scale(1, -1)"
  >
<path d="M1.13137 1.95959 A3.2 1.84752 60 0 1 0.468629 3.42448" />
<path d="M0.468629 3.42448 A3.2 1.84752 60 0 1 -2.73137 -2.11808" />
<path d="M-2.73137 -2.11808 A3.2 1.84752 60 0 1 1.13137 1.95959" />
<path d="M5.23259 4.32743 A9 5.19615 60 0 1 3.36863 8.44743" />
<path d="M3.36863 8.44743 A9 5.19615 60 0 1 -5.63137 -7.14103" />
<path d="M-5.63137 -7.14103 A9 5.19615 60 0 1 5.23259 4.32743" />
<path d="M6.36396 3.67423 A9 5.19615 60 0 1 4.5 7.79423" />
<path d="M-4.5 -7.79423 A9 5.19615 60 0 1 6.36396 3.67423" />
<path d="M0.930978 2.91889 A3.2 1.84752 60 0 1 -2.06235 -2.2657" />
</g>

</svg>
