<svg xmlns="http://www.w3.org/2000/svg" viewBox="-10.8189192 -10.873769199999998 29.240398399999997 24.085648399999997">
<rect width="100%" height="100%" fill="white"/>
<g   fill="none"
   stroke="rgb(0, 0, 0)"
   stroke-linecap="butt"
   stroke-linejoin="miter"
   stroke-width="0.35"
   transform="scale(1, -1)"
  >
<path id= "1" d=" M 0.695822 -5.02054 L 0.784237 -5.07158 " />
<path id= "2" d=" M 5.04938 1.70354 L 5.13779 1.6525 " />
<path id= "3" d=" M 1.40293 -5.42878 L 1.49134 -5.47983 " />
<path id= "4" d=" M 5.75649 1.29529 L 5.84489 1.24425 " />
<path id= "5" d=" M 2.11004 -5.83703 L 2.19845 -5.88808 " />
<path id= "6" d=" M 6.46359 0.887044 L 6.552 0.836002 " />
<path id= "7" d=" M 2.81715 -6.24528 L 2.90556 -6.29633 " />
<path id= "8" d=" M 7.1707 0.478795 L 7.25911 0.427754 " />
<path id= "9" d=" M 3.52425 -6.65353 L 3.61266 -6.70457 " />
<path id= "10" d=" M 7.87781 0.0705463 L 7.96621 0.0195059 " />
<path id= "11" d=" M 4.23136 -7.06178 L 4.31977 -7.11282 " />
<path id= "12" d=" M 8.58492 -0.337703 L 8.67332 -0.388742 " />
<path id= "13" d=" M 4.93847 -7.47003 L 5.02688 -7.52107 " />
<path id= "14" d=" M 9.29203 -0.745952 L 9.38043 -0.79699 " />
<path id= "15" d=" M 5.64558 -7.87828 L 5.73398 -7.92932 " />
<path id= "16" d=" M 9.99913 -1.1542 L 10.0875 -1.20524 " />
<path id= "17" d=" M 6.35269 -8.28653 L 6.44109 -8.33757 " />
<path id= "18" d=" M 10.7062 -1.56245 L 10.7946 -1.61349 " />
<path id= "19" d=" M 7.05979 -8.69478 L 7.1482 -8.74582 " />
<path id= "20" d=" M 11.4134 -1.9707 L 11.5017 -2.02173 " />
<path id= "21" d=" M 7.7669 -9.10303 L 7.8553 -9.15406 " />
<path id= "22" d=" M 12.1205 -2.37895 L 12.2089 -2.42998 " />
<path id= "23" d=" M 8.47401 -9.51127 L 8.56241 -9.56231 " />
<path id= "24" d=" M 12.8276 -2.7872 L 12.916 -2.83823 " />
<path id= "25" d=" M 9.18112 -9.91952 L 9.26952 -9.97056 " />
<path id= "26" d=" M 13.5347 -3.19545 L 13.6231 -3.24648 " />
<path id= "27" d=" M 9.88823 -10.3278 L 9.97662 -10.3788 " />
<path id= "28" d=" M 14.2418 -3.60369 L 14.3302 -3.65473 " />
<path id= "29" d=" M 10.5953 -10.736 L 10.6837 -10.7871 " />
<path id= "30" d=" M 14.9489 -4.01194 L 15.0373 -4.06298 " />
<path id= "31" d=" M 11.3024 -11.1443 L 11.3908 -11.1953 " />
<path id= "32" d=" M 14.1421 -10.7778 L 13.795 -10.9782 " />
</g>
<g   fill="none"
   stroke="rgb(0, 0, 0)"
   stroke-linecap="butt"
   stroke-linejoin="miter"
   stroke-width="0.35"
   transform="scale(1, -1)"
  >
<path d="M0.848528 4.81733 A6.5 3.75278 60 0 1 0.232755 7.11543" />
<path d="M0.232755 1.8082 A6.5 3.75278 60 0 1 0.848528 4.81733" />
<path d="M-3.74767 -3.14351 A6.5 3.75278 60 0 1 0.232755 1.8082" />
<path d="M-7.72809 -2.78799 A6.5 3.75278 60 0 1 -3.74767 -3.14351" />
<path d="M-7.72809 2.51923 A6.5 3.75278 60 0 1 -7.72809 -2.78799" />
<path d="M-3.74767 7.47094 A6.5 3.75278 60 0 1 -7.72809 2.51923" />
<path d="M0.232755 7.11543 A6.5 3.75278 60 0 1 -3.74767 7.47094" />
<path d="M0.232755, 7.11543 C0.654416, 6.51622 1.15509, 5.87162 1.81212, 5.08203 " /><path d="M-3.74767, 7.47094 C-2.90514, 7.95646 -1.98385, 8.39592 -0.841495, 8.85719 " /><path d="M-0.841495, 8.85719 C-0.527865, 8.26587 -0.187317, 7.71371 0.232755, 7.11543 " /><path d="M-7.72809, 2.51923 C-7.30643, 3.60349 -6.80575, 4.64133 -6.14872, 5.79306 " /><path d="M-6.14872, 5.79306 C-5.34976, 6.45261 -4.5886, 6.98451 -3.74767, 7.47094 " /><path d="M-7.72809, -2.78799 C-8.14816, -2.18971 -8.48871, -1.63755 -8.80234, -1.04623 " /><path d="M-8.80234, -1.04623 C-8.48871, 0.303766 -8.14816, 1.43405 -7.72809, 2.51923 " /><path d="M-6.14872, -4.82139 C-6.80575, -4.03181 -7.30643, -3.3872 -7.72809, -2.78799 " /><path d="M-3.74767, -3.14351 C-4.5886, -3.62995 -5.34976, -4.16185 -6.14872, -4.82139 " /><path d="M-0.841495, -1.75726 C-1.98385, -2.21854 -2.90514, -2.658 -3.74767, -3.14351 " /><path d="M0.232755, 1.8082 C-0.187317, 0.723021 -0.527865, -0.407267 -0.841495, -1.75726 " /><path d="M1.81212, 5.08203 C1.15509, 3.9303 0.654416, 2.89246 0.232755, 1.8082 " /><path id= "20" d=" M 2.44148 6.96177 L 5.0951 3.1866 " />
<path id= "21" d=" M 1.81212 5.08203 L 5.0951 3.1866 " />
<path id= "22" d=" M 2.44148 6.96177 L -0.841495 8.85719 " />
<path id= "23" d=" M -2.86575 -6.71682 L -6.14872 -4.82139 " />
<path id= "24" d=" M 2.44148 -3.65269 L -2.86575 -6.71682 " />
<path id= "25" d=" M 2.44148 -3.65269 L -0.841495 -1.75726 " />
<path id= "26" d=" M 5.0951 3.1866 L 2.44148 -3.65269 " />
<path d="M3.84699, -0.0302035 C3.71369, -0.73233 3.42651, -1.4687 3.03423, -2.12496 " /><path d="M4.46086, 1.55195 Q4.62191, 1.12384 4.64039, 0.586855 " /><path d="M4.42308, 1.45459 Q4.53681, 1.0823 4.55198, 0.637901 " /><path d="M4.64039, 0.586855 C4.67535, -0.336106 4.36263, -1.45186 3.8106, -2.41442  C3.46491, -3.02214 3.02994, -3.56705 2.56593, -3.97845  C1.84208, -4.62557 1.05282, -4.92967 0.449379, -4.80283 " /><path d="M4.61081, 1.93842 C5.05976, 1.58677 5.32327, 0.953387 5.3475, 0.178607 " /><path d="M4.55198, 0.637901 C4.58459, -0.236632 4.30693, -1.28424 3.8067, -2.21061  C3.48981, -2.80172 3.08724, -3.34188 2.65039, -3.76654  C1.93605, -4.4663 1.13418, -4.8381 0.501739, -4.7726 " /><path d="M4.60379, 1.92034 C5.0037, 1.55897 5.23605, 0.955914 5.25908, 0.229652 " /><path d="M5.3475, 0.178607 C5.38246, -0.744354 5.06974, -1.86011 4.5177, -2.82267  C4.17201, -3.43039 3.73704, -3.9753 3.27304, -4.3867  C2.97784, -4.64831 2.68013, -4.85201 2.3799, -4.99782  C1.77808, -5.29132 1.20422, -5.31668 0.784237, -5.07158 " /><path d="M5.13779, 1.6525 C5.69372, 1.33644 6.02816, 0.645279 6.0546, -0.229641 " /><path d="M5.25908, 0.229652 C5.29169, -0.644884 5.01404, -1.69249 4.5138, -2.61887  C4.19691, -3.20998 3.79434, -3.75014 3.35749, -4.1748  C3.0273, -4.49647 2.67814, -4.75235 2.33575, -4.92488  C1.718, -5.23857 1.12603, -5.2718 0.695822, -5.02054 " /><path d="M0.695822, -5.02054 Q0.550802, -4.93677 0.431016, -4.81343 " /><path d="M4.71848, 1.84482 Q4.89389, 1.79328 5.04938, 1.70354 " /><path d="M5.04938, 1.70354 C5.60531, 1.38748 5.93973, 0.696324 5.96619, -0.178597 " /><path d="M6.0546, -0.229641 C6.08957, -1.1526 5.77685, -2.26836 5.22481, -3.23092  C4.87912, -3.83863 4.44415, -4.38355 3.98014, -4.79495  C3.68494, -5.05656 3.38723, -5.26026 3.08701, -5.40607  C2.48518, -5.69957 1.91133, -5.72493 1.49134, -5.47983 " /><path d="M5.8449, 1.24425 C6.40083, 0.928188 6.73526, 0.23703 6.76171, -0.63789 " /><path d="M5.96619, -0.178597 C5.9988, -1.05314 5.72115, -2.10075 5.2209, -3.02713  C4.90401, -3.61824 4.50144, -4.1584 4.06459, -4.58305  C3.73448, -4.90465 3.38541, -5.16047 3.04311, -5.33301  C2.42526, -5.64681 1.83319, -5.68008 1.40293, -5.42878 " /><path d="M1.40293, -5.42878 Q1.24717, -5.3388 1.12064, -5.20331 " /><path d="M5.42559, 1.43657 Q5.601, 1.38503 5.75649, 1.29529 " /><path d="M5.75649, 1.29529 C6.31242, 0.979232 6.64684, 0.288072 6.6733, -0.586846 " /><path d="M6.76171, -0.63789 C6.79667, -1.56085 6.48395, -2.67661 5.93191, -3.63917  C5.58622, -4.24688 5.15126, -4.79179 4.68725, -5.2032  C4.39205, -5.46481 4.09434, -5.66851 3.79411, -5.81432  C3.19229, -6.10781 2.61844, -6.13318 2.19845, -5.88808 " /><path d="M6.552, 0.836002 C7.10793, 0.51994 7.44237, -0.171217 7.46882, -1.04614 " /><path d="M6.6733, -0.586846 C6.70591, -1.46139 6.42825, -2.50901 5.928, -3.43539  C5.61111, -4.0265 5.20854, -4.56666 4.77169, -4.99131  C4.4417, -5.31279 4.09276, -5.56855 3.75057, -5.74108  C3.1326, -6.05504 2.54038, -6.08838 2.11004, -5.83703 " /><path d="M2.11004, -5.83703 Q1.95428, -5.74705 1.82775, -5.61156 " /><path d="M6.13269, 1.02832 Q6.30811, 0.976778 6.46359, 0.887044 " /><path d="M6.46359, 0.887044 C7.01953, 0.570983 7.35395, -0.120177 7.38041, -0.995095 " /><path d="M7.46882, -1.04614 C7.50378, -1.9691 7.19106, -3.08486 6.63902, -4.04741  C6.29333, -4.65513 5.85836, -5.20004 5.39435, -5.61145  C5.09915, -5.87305 4.80144, -6.07676 4.50122, -6.22256  C3.89939, -6.51606 3.32554, -6.54143 2.90556, -6.29633 " /><path d="M7.25911, 0.427754 C7.81504, 0.111691 8.14947, -0.579463 8.17592, -1.45439 " /><path d="M7.38041, -0.995095 C7.41302, -1.86964 7.13536, -2.91727 6.6351, -3.84366  C6.31821, -4.43477 5.91564, -4.97492 5.47879, -5.39957  C5.14894, -5.7209 4.80018, -5.97657 4.45815, -6.14909  C3.84001, -6.46327 3.2476, -6.4967 2.81715, -6.24528 " /><path d="M2.81715, -6.24528 Q2.66138, -6.1553 2.53486, -6.01981 " /><path d="M6.8398, 0.620071 Q7.01522, 0.568529 7.1707, 0.478795 " /><path d="M7.1707, 0.478795 C7.72663, 0.162734 8.06106, -0.528425 8.08752, -1.40334 " /><path d="M8.17592, -1.45439 C8.21089, -2.37735 7.89817, -3.4931 7.34613, -4.45566  C7.00044, -5.06338 6.56547, -5.60829 6.10146, -6.0197  C5.80626, -6.2813 5.50855, -6.48501 5.20833, -6.63081  C4.6065, -6.92431 4.03265, -6.94967 3.61266, -6.70457 " /><path d="M3.1296, -3.58342 Q3.18616, -3.41333 3.25429, -3.24281 " /><path d="M7.96621, 0.0195058 C8.52215, -0.296557 8.85658, -0.987711 8.88303, -1.86263 " /><path d="M8.08752, -1.40334 C8.12013, -2.27789 7.84246, -3.32552 7.34221, -4.2519  C7.02532, -4.84302 6.62275, -5.38317 6.1859, -5.80782  C5.85606, -6.12914 5.50731, -6.3848 5.16529, -6.55732  C4.54714, -6.87152 3.95471, -6.90495 3.52425, -6.65353 " /><path d="M3.52425, -6.65353 Q3.36849, -6.56355 3.24197, -6.42806 " /><path d="M7.54691, 0.211822 Q7.72232, 0.160281 7.87781, 0.0705463 " /><path d="M7.87781, 0.0705463 C8.43374, -0.245515 8.76816, -0.936676 8.79462, -1.81159 " /><path d="M8.88303, -1.86263 C8.91799, -2.7856 8.60527, -3.90135 8.05323, -4.86391  C7.70754, -5.47163 7.27257, -6.01654 6.80856, -6.42795  C6.51336, -6.68955 6.21565, -6.89326 5.91543, -7.03906  C5.3136, -7.33256 4.73975, -7.35792 4.31977, -7.11282 " /><path d="M3.83671, -3.99166 Q3.89327, -3.82157 3.9614, -3.65106 " /><path d="M8.67332, -0.388742 C9.22925, -0.704805 9.56369, -1.39596 9.59014, -2.27088 " /><path d="M8.79462, -1.81159 C8.82724, -2.68615 8.54957, -3.73378 8.04931, -4.66016  C7.73242, -5.25128 7.32985, -5.79143 6.893, -6.21608  C6.56326, -6.5373 6.21461, -6.7929 5.87269, -6.96542  C5.25443, -7.27976 4.66189, -7.31324 4.23136, -7.06178 " /><path d="M4.23136, -7.06178 Q4.0756, -6.9718 3.94907, -6.83631 " /><path d="M8.25402, -0.196427 Q8.42943, -0.247968 8.58492, -0.337703 " /><path d="M8.58492, -0.337703 C9.14085, -0.653764 9.47527, -1.34492 9.50173, -2.21984 " /><path d="M9.59014, -2.27088 C9.6251, -3.19384 9.31238, -4.3096 8.76034, -5.27216  C8.41465, -5.87988 7.97968, -6.42479 7.51567, -6.8362  C7.22047, -7.09781 6.92275, -7.30151 6.62253, -7.44732  C6.02071, -7.74081 5.44686, -7.76617 5.02688, -7.52107 " /><path d="M4.54382, -4.39991 Q4.60038, -4.22982 4.6685, -4.05931 " /><path d="M9.38043, -0.796991 C9.93636, -1.11305 10.2708, -1.80421 10.2972, -2.67913 " /><path d="M9.50173, -2.21984 C9.53434, -3.0944 9.25668, -4.14203 8.75642, -5.06842  C8.43953, -5.65953 8.03695, -6.19968 7.6001, -6.62433  C7.27041, -6.94551 6.92181, -7.20109 6.57992, -7.37361  C5.96162, -7.688 5.36903, -7.72151 4.93847, -7.47003 " /><path d="M4.93847, -7.47003 Q4.78271, -7.38004 4.65618, -7.24456 " /><path d="M8.96112, -0.604675 Q9.13654, -0.656217 9.29203, -0.745952 " /><path d="M9.29203, -0.745952 C9.84796, -1.06201 10.1824, -1.75317 10.2088, -2.62809 " /><path d="M10.2972, -2.67913 C10.3322, -3.60209 10.0195, -4.71785 9.46745, -5.68041  C9.12176, -6.28813 8.68679, -6.83304 8.22278, -7.24444  C7.92758, -7.50605 7.62986, -7.70976 7.32964, -7.85556  C6.72782, -8.14905 6.15397, -8.17442 5.73398, -7.92932 " /><path d="M10.0875, -1.20524 C10.6435, -1.5213 10.9779, -2.21246 11.0044, -3.08738 " /><path d="M10.2088, -2.62809 C10.2415, -3.50264 9.96378, -4.55028 9.46353, -5.47667  C9.14663, -6.06778 8.74406, -6.60793 8.30721, -7.03258  C7.97752, -7.35376 7.62892, -7.60934 7.28704, -7.78185  C6.66873, -8.09625 6.07613, -8.12976 5.64558, -7.87828 " /><path d="M5.64558, -7.87828 Q5.48982, -7.78829 5.36329, -7.65281 " /><path d="M9.66823, -1.01292 Q9.84365, -1.06447 9.99913, -1.1542 " /><path d="M9.99913, -1.1542 C10.5551, -1.47026 10.8895, -2.16142 10.9159, -3.03634 " /><path d="M11.0044, -3.08738 C11.0393, -4.01034 10.7266, -5.1261 10.1746, -6.08866  C9.82886, -6.69637 9.39389, -7.24128 8.92988, -7.65269  C8.63468, -7.9143 8.33697, -8.118 8.03675, -8.26381  C7.43492, -8.5573 6.86108, -8.58267 6.44109, -8.33757 " /><path d="M5.95804, -5.21639 Q6.01459, -5.04631 6.08272, -4.8758 " /><path d="M10.7946, -1.61349 C11.3506, -1.92955 11.685, -2.62071 11.7115, -3.49563 " /><path d="M10.9159, -3.03634 C10.9486, -3.9109 10.6709, -4.95854 10.1706, -5.88494  C9.85373, -6.47605 9.45115, -7.0162 9.0143, -7.44085  C8.68483, -7.7618 8.33649, -8.01725 7.99483, -8.18976  C7.37628, -8.50447 6.7834, -8.5381 6.35269, -8.28653 " /><path d="M6.35269, -8.28653 Q6.19692, -8.19654 6.0704, -8.06105 " /><path d="M10.3753, -1.42117 Q10.5508, -1.47271 10.7062, -1.56245 " /><path d="M10.7062, -1.56245 C11.2622, -1.87851 11.5966, -2.56967 11.6231, -3.44459 " /><path d="M11.7115, -3.49563 C11.7464, -4.41859 11.4337, -5.53435 10.8817, -6.49691  C10.536, -7.10462 10.101, -7.64953 9.63699, -8.06094  C9.34179, -8.32255 9.04408, -8.52625 8.74385, -8.67206  C8.14203, -8.96555 7.56818, -8.99091 7.1482, -8.74582 " /><path d="M6.54772, -6.02604 Q6.64042, -5.65827 6.78982, -5.28405 " /><path d="M7.7504, -3.62028 Q8.02713, -3.26701 8.33733, -2.96746 " /><path d="M11.5017, -2.02174 C12.0577, -2.3378 12.3921, -3.02896 12.4186, -3.90388 " /><path d="M11.6231, -3.44459 C11.6557, -4.31916 11.378, -5.36681 10.8777, -6.29321  C10.5608, -6.88432 10.1582, -7.42447 9.72139, -7.84911  C9.39216, -8.16983 9.04408, -8.42514 8.70267, -8.59764  C8.08386, -8.91269 7.49068, -8.94645 7.05979, -8.69478 " /><path d="M7.05979, -8.69478 Q6.90403, -8.60479 6.7775, -8.4693 " /><path d="M11.0824, -1.82942 Q11.2579, -1.88096 11.4134, -1.9707 " /><path d="M11.4134, -1.9707 C11.9693, -2.28676 12.3037, -2.97792 12.3302, -3.85284 " /><path d="M12.4186, -3.90388 C12.4535, -4.82684 12.1408, -5.9426 11.5888, -6.90516  C11.2431, -7.51287 10.8081, -8.05778 10.3441, -8.46919  C10.0489, -8.7308 9.75118, -8.93451 9.45095, -9.08031  C8.84913, -9.3738 8.27529, -9.39916 7.8553, -9.15406 " /><path d="M7.37225, -6.03288 Q7.42881, -5.8628 7.49693, -5.6923 " /><path d="M12.2089, -2.42998 C12.7648, -2.74605 13.0992, -3.4372 13.1257, -4.31212 " /><path d="M12.3302, -3.85284 C12.3628, -4.72741 12.0851, -5.77507 11.5848, -6.70147  C11.2679, -7.29258 10.8653, -7.83273 10.4285, -8.25737  C10.0994, -8.57799 9.7514, -8.83323 9.41009, -9.00573  C8.79117, -9.32092 8.19786, -9.35474 7.7669, -9.10303 " /><path d="M7.7669, -9.10303 Q7.61114, -9.01304 7.48461, -8.87755 " /><path d="M11.7896, -2.23767 Q11.965, -2.28921 12.1205, -2.37895 " /><path d="M12.1205, -2.37895 C12.6764, -2.69501 13.0108, -3.38616 13.0373, -4.26109 " /><path d="M13.1257, -4.31212 C13.1606, -5.23509 12.8479, -6.35084 12.2959, -7.3134  C11.9502, -7.92112 11.5152, -8.46603 11.0512, -8.87744  C10.756, -9.13905 10.4583, -9.34276 10.1581, -9.48856  C9.55623, -9.78205 8.98239, -9.80741 8.56241, -9.56231 " /><path d="M12.916, -2.83823 C13.4719, -3.15429 13.8063, -3.84545 13.8328, -4.72037 " /><path d="M13.0373, -4.26109 C13.0699, -5.13565 12.7922, -6.18331 12.2919, -7.10971  C11.975, -7.70081 11.5725, -8.24096 11.1356, -8.66561  C10.8063, -8.98638 10.4582, -9.24172 10.1167, -9.41422  C9.49796, -9.72919 8.90485, -9.76293 8.47401, -9.51127 " /><path d="M8.47401, -9.51127 Q8.31825, -9.42129 8.19172, -9.2858 " /><path d="M12.4967, -2.64592 Q12.6721, -2.69746 12.8276, -2.7872 " /><path d="M12.8276, -2.7872 C13.3835, -3.10326 13.7179, -3.79442 13.7444, -4.66934 " /><path d="M13.8328, -4.72037 C13.8677, -5.64333 13.555, -6.75909 13.003, -7.72165  C12.6573, -8.32937 12.2223, -8.87428 11.7583, -9.28568  C11.4631, -9.54729 11.1654, -9.751 10.8652, -9.8968  C10.2634, -10.1903 9.6895, -10.2157 9.26952, -9.97056 " /><path d="M8.78647, -6.84936 Q8.84303, -6.67929 8.91114, -6.5088 " /><path d="M13.6231, -3.24648 C14.179, -3.56254 14.5134, -4.2537 14.5399, -5.12862 " /><path d="M13.7444, -4.66934 C13.777, -5.5439 13.4993, -6.59156 12.999, -7.51796  C12.6821, -8.10907 12.2796, -8.64922 11.8427, -9.07386  C11.5135, -9.39459 11.1654, -9.64991 10.8239, -9.82241  C10.2051, -10.1374 9.61199, -10.1712 9.18112, -9.91952 " /><path d="M9.18112, -9.91952 Q9.02535, -9.82954 8.89882, -9.69405 " /><path d="M13.2038, -3.05417 Q13.3792, -3.10571 13.5347, -3.19545 " /><path d="M13.5347, -3.19545 C14.0906, -3.51151 14.425, -4.20267 14.4515, -5.07758 " /><path d="M14.5399, -5.12862 C14.5748, -6.05158 14.2621, -7.16734 13.7101, -8.1299  C13.3644, -8.73762 12.9294, -9.28253 12.4654, -9.69394  C12.1702, -9.95555 11.8725, -10.1593 11.5723, -10.3051  C10.9704, -10.5985 10.3966, -10.6239 9.97662, -10.3788 " /><path d="M14.3302, -3.65473 C14.8861, -3.97079 15.2205, -4.66195 15.247, -5.53687 " /><path d="M14.4515, -5.07758 C14.4841, -5.95217 14.2064, -6.99985 13.7061, -7.92626  C13.3892, -8.51737 12.9866, -9.05751 12.5498, -9.48215  C12.221, -9.80241 11.8734, -10.0574 11.5325, -10.2299  C10.9132, -10.5456 10.3194, -10.5796 9.88823, -10.3278 " /><path d="M9.88823, -10.3278 Q9.73246, -10.2378 9.60593, -10.1023 " /><path d="M13.9109, -3.46242 Q14.0863, -3.51396 14.2418, -3.60369 " /><path d="M14.2418, -3.60369 C14.7977, -3.91976 15.1321, -4.61091 15.1586, -5.48583 " /><path d="M15.247, -5.53687 C15.282, -6.45983 14.9692, -7.57559 14.4172, -8.53815  C14.0715, -9.14586 13.6365, -9.69078 13.1725, -10.1022  C12.8773, -10.3638 12.5796, -10.5675 12.2794, -10.7133  C11.6776, -11.0068 11.1037, -11.0322 10.6837, -10.7871 " /><path d="M15.0373, -4.06298 C15.5932, -4.37904 15.9276, -5.07019 15.9541, -5.94512 " /><path d="M15.1586, -5.48583 C15.1912, -6.36041 14.9135, -7.40807 14.4132, -8.33448  C14.0963, -8.92558 13.6938, -9.46573 13.2569, -9.89037  C12.9279, -10.2109 12.58, -10.4661 12.2387, -10.6386  C11.6197, -10.9539 11.0263, -10.9878 10.5953, -10.736 " /><path d="M10.5953, -10.736 Q10.4396, -10.646 10.313, -10.5105 " /><path d="M14.618, -3.87067 Q14.7934, -3.92221 14.9489, -4.01194 " /><path d="M14.9489, -4.01194 C15.5048, -4.32801 15.8392, -5.01916 15.8657, -5.89408 " /><path d="M15.9541, -5.94512 C15.9891, -6.86808 15.6763, -7.98384 15.1243, -8.9464  C14.7786, -9.55412 14.3436, -10.099 13.8796, -10.5104  C13.5844, -10.772 13.2867, -10.9758 12.9865, -11.1216  C12.3847, -11.415 11.8108, -11.4404 11.3908, -11.1953 " /><path d="M15.8657, -5.89408 C15.8983, -6.76867 15.6206, -7.81636 15.1203, -8.74278  C14.8034, -9.33388 14.4008, -9.87403 13.964, -10.2987  C13.6354, -10.6187 13.2881, -10.8737 12.9473, -11.0461  C12.3278, -11.3621 11.7338, -11.3962 11.3024, -11.1443 " /><path d="M16.4049, -6.32831 C16.405, -5.92592 16.3408, -5.55876 16.2163, -5.25124  C16.0485, -4.83423 15.7694, -4.52835 15.4121, -4.36863 " /><path id= "135" d=" M 16.4049 -6.32831 L 16.4049 -6.85857 " />
<path d="M14.1421 -10.7778 A3.2 1.84752 60 0 1 16.4049 -6.85857" />
<path d="M16.4049, -6.32831 C16.4054, -6.87398 16.286, -7.48446 16.0622, -8.08396  C15.8472, -8.66251 15.5356, -9.22946 15.1657, -9.71707  C14.7552, -10.2602 14.2734, -10.7028 13.795, -10.9782 " /><path d="M13.795, -10.9782 C13.3436, -11.2395 12.8967, -11.3513 12.5183, -11.2977 " /></g>

</svg>
