<svg xmlns="http://www.w3.org/2000/svg" viewBox="-7.324 -9.52955 29.348 19.0591">
<rect width="100%" height="100%" fill="white"/>
<g   fill="none"
   stroke="rgb(165, 165, 165)"
   stroke-dasharray="1.2,0.8"
   stroke-linecap="butt"
   stroke-linejoin="miter"
   stroke-width="0.25"
   transform="scale(1, -1)"
  >
<path d="M-5.3, 6.5 L-5.3, 6.49545  L-5.3, 6.48182  L-5.3, 6.45913  L-5.3, 6.4274  L-5.3, 6.38668  L-5.3, 6.33703  L-5.3, 6.27852  L-5.3, 6.21122  L-5.3, 6.13524  L-5.3, 6.05068  L-5.3, 5.95765  L-5.3, 5.8563  L-5.3, 5.74675  L-5.3, 5.62917 " /><path d="M-5.3, -5.62917 L-5.3, -5.74675  L-5.3, -5.8563  L-5.3, -5.95765  L-5.3, -6.05068  L-5.3, -6.13524  L-5.3, -6.21122  L-5.3, -6.27852  L-5.3, -6.33703  L-5.3, -6.38668  L-5.3, -6.4274  L-5.3, -6.45913  L-5.3, -6.48182  L-5.3, -6.49545  L-5.3, -6.5 " /><path d="M-5.3, 1.62423e-15 C-5.3, -0.486484 -5.3, -0.970949 -5.3, -1.44639  C-5.3, -1.60289 -5.3, -1.7594 -5.3, -1.91591  C-5.3, -2.06884 -5.3, -2.22178 -5.3, -2.37472  C-5.3, -2.52323 -5.3, -2.67174 -5.3, -2.82024  C-5.3, -2.9635 -5.3, -3.10675 -5.3, -3.25  C-5.3, -3.38719 -5.3, -3.52439 -5.3, -3.66158  C-5.3, -3.79195 -5.3, -3.92232 -5.3, -4.05268  C-5.3, -4.1755 -5.3, -4.29831 -5.3, -4.42112  C-5.3, -4.53569 -5.3, -4.65027 -5.3, -4.76484  C-5.3, -4.87053 -5.3, -4.97622 -5.3, -5.0819  C-5.3, -5.17812 -5.3, -5.27434 -5.3, -5.37055  C-5.3, -5.45676 -5.3, -5.54296 -5.3, -5.62917 " /><path d="M-5.3, 5.62917 Q-5.3, 5.49986 -5.3, 5.37055  Q-5.3, 5.22623 -5.3, 5.0819  Q-5.3, 4.92337 -5.3, 4.76484  Q-5.3, 4.59298 -5.3, 4.42112  Q-5.3, 4.2369 -5.3, 4.05268  Q-5.3, 3.85713 -5.3, 3.66158  Q-5.3, 3.45579 -5.3, 3.25  Q-5.3, 3.03512 -5.3, 2.82024  Q-5.3, 2.59748 -5.3, 2.37472  Q-5.3, 2.14531 -5.3, 1.91591  Q-5.3, 1.68115 -5.3, 1.44639  Q-5.3, 1.20758 -5.3, 0.968775  Q-5.3, 0.486507 -5.3, 1.83187e-15 " /><path d="M-5.3, 5.62917 C-5.29888, 6.22436 -5.18565, 6.81919 -4.94283, 7.50555 " /><path d="M-5.3, 1.33227e-15 C-5.29888, 1.19039 -5.18565, 2.38006 -4.94283, 3.75278 " /><path d="M-4.94283, 3.75278 C-5.18565, 4.43914 -5.29888, 5.03397 -5.3, 5.62917 " /><path d="M-5.3, -5.62917 C-5.29888, -5.03397 -5.18565, -4.43914 -4.94283, -3.75278 " /><path d="M-4.94283, -3.75278 C-5.18565, -2.38006 -5.29888, -1.19039 -5.3, 1.55431e-15 " /><path d="M-4.94283, -7.50555 C-5.18565, -6.81919 -5.29888, -6.22436 -5.3, -5.62917 " /><path id= "11" d=" M -0.3 3.75278 L -0.3 7.50555 " />
<path id= "12" d=" M -0.3 3.75278 L -4.94283 3.75278 " />
<path id= "13" d=" M -0.3 -3.75278 L -0.3 3.75278 " />
<path id= "14" d=" M -0.3 -3.75278 L -4.94283 -3.75278 " />
<path id= "15" d=" M -0.3 -7.50555 L -0.3 -3.75278 " />
<path d="M-0.3, 5.8 L-0.3, 5.65458  L-0.3, 5.22562  L-0.3, 4.53462  L-0.3, 3.61624  L-0.3, 2.51653  L-0.3, 1.29062  L-0.3, 4.44089e-16  L-0.3, -1.29062  L-0.3, -2.51653  L-0.3, -3.61624  L-0.3, -4.53462  L-0.3, -5.22562  L-0.3, -5.65458  L-0.3, -5.8 " /><path d="M-0.3, -5.8 L-0.3, -5.65458  L-0.3, -5.22562  L-0.3, -4.53462  L-0.3, -3.61624  L-0.3, -2.51653  L-0.3, -1.29062  L-0.3, -1.11022e-15  L-0.3, 1.29062  L-0.3, 2.51653  L-0.3, 3.61624  L-0.3, 4.53462  L-0.3, 5.22562  L-0.3, 5.65458  L-0.3, 5.8 " /><path d="M0, 5.8 L0, 5.65458  L0, 5.22562  L0, 4.53462  L0, 3.61624  L0, 2.51653  L0, 1.29062  L0, 4.44089e-16  L0, -1.29062  L0, -2.51653  L0, -3.61624  L0, -4.53462  L0, -5.22562  L0, -5.65458  L0, -5.8 " /><path d="M2.77556e-17, 4.4 L2.77556e-17, 4.28968  L2.77556e-17, 3.96426  L2.77556e-17, 3.44006  L2.77556e-17, 2.74336  L2.77556e-17, 1.90909  L2.77556e-17, 0.979092  L2.77556e-17, 2.22045e-16  L2.77556e-17, -0.979092  L2.77556e-17, -1.90909  L2.77556e-17, -2.74336  L2.77556e-17, -3.44006  L2.77556e-17, -3.96426  L2.77556e-17, -4.28968  L2.77556e-17, -4.4 " /><path d="M2.77556e-17, -4.4 L2.77556e-17, -4.28968  L2.77556e-17, -3.96426  L2.77556e-17, -3.44006  L2.77556e-17, -2.74336  L2.77556e-17, -1.90909  L2.77556e-17, -0.979092  L2.77556e-17, -7.77156e-16  L2.77556e-17, 0.979092  L2.77556e-17, 1.90909  L2.77556e-17, 2.74336  L2.77556e-17, 3.44006  L2.77556e-17, 3.96426  L2.77556e-17, 4.28968  L2.77556e-17, 4.4 " /><path d="M0.562505, 4 C0.524743, 4.00408 0.505512, 3.59096 0.5, 2.87608 " /><path d="M0.5, 1.61991 C0.5, 2.08979 0.5, 2.51872 0.5, 2.87608 " /><path d="M0.5, 1.61991 C0.506737, 0.273802 0.530272, -1.39216 0.527339, -2.52393 " /><path d="M0.527339, -2.52393 C0.526889, -2.65814 0.528611, -2.78307 0.532504, -2.89873  C0.535667, -2.99838 0.54159, -3.08799 0.550274, -3.16757  C0.559694, -3.24706 0.573973, -3.32494 0.601046, -3.32803  C0.620749, -3.32878 0.64103, -3.28501 0.657482, -3.23397  C0.676479, -3.17295 0.693385, -3.102 0.708199, -3.02111  C0.735208, -2.87412 0.758257, -2.70834 0.777347, -2.52377 " /><path d="M0.777347, -2.52377 C0.888238, -1.47381 1.01679, 0.0311344 1.12984, 1.31912  C1.20378, 2.15995 1.27117, 2.89931 1.3261, 3.3777  C1.3667, 3.73229 1.40059, 3.94565 1.42694, 3.99053 " /><path d="M1.07345, -3.99054 C1.11147, -3.92776 1.14949, -3.50678 1.18751, -2.82837  C1.22288, -2.20098 1.25824, -1.35738 1.2936, -0.473893  C1.33872, 0.653445 1.38384, 1.83103 1.42895, 2.67249  C1.47347, 3.51013 1.518, 4.00549 1.56251, 4 " /><path d="M0.5, 2.87608 C0.5, 2.51553 0.5, 2.08764 0.5, 1.61991 " /><path d="M2.07345, -3.99054 C2.11147, -3.92776 2.14949, -3.50678 2.18751, -2.82836  C2.22288, -2.20085 2.25825, -1.35702 2.29363, -0.473345  C2.33866, 0.652068 2.3837, 1.82752 2.42874, 2.66854  C2.47333, 3.50853 2.51793, 4.00552 2.5625, 4 " /><path d="M1.93747, -4 C1.9783, -4.00392 2.01913, -3.59048 2.05996, -2.87265  C2.09531, -2.25552 2.13066, -1.41888 2.16602, -0.537491  C2.21046, 0.570803 2.25492, 1.73622 2.29938, 2.58648  C2.34176, 3.40311 2.38412, 3.92171 2.42651, 3.99053 " /><path d="M3.07345, -3.99054 C3.11147, -3.92776 3.14949, -3.50677 3.18751, -2.82835  C3.2229, -2.20059 3.25828, -1.35636 3.29367, -0.472314  C3.33889, 0.657877 3.38412, 1.8383 3.42935, 2.67991  C3.47374, 3.51316 3.51813, 4.00543 3.5625, 4 " /><path d="M2.93747, -4 C2.97773, -4.00372 3.01798, -3.60224 3.05824, -2.90253  C3.09422, -2.28162 3.1302, -1.43076 3.16617, -0.533618  C3.21051, 0.572075 3.25486, 1.73417 3.29921, 2.58314  C3.34164, 3.40165 3.38407, 3.92163 3.42651, 3.99053 " /><path d="M4.07345, -3.99054 C4.11147, -3.92776 4.14949, -3.50676 4.18751, -2.82833  C4.22291, -2.20031 4.25831, -1.35564 4.29371, -0.47121  C4.3387, 0.653089 4.38369, 1.82707 4.42869, 2.66749  C4.47329, 3.5081 4.51791, 4.00553 4.5625, 4 " /><path d="M3.93747, -4 C3.97829, -4.00392 4.0191, -3.59074 4.05992, -2.87329  C4.09487, -2.26332 4.12982, -1.43891 4.16477, -0.568557  C4.20957, 0.547212 4.25438, 1.72477 4.29918, 2.5826  C4.34163, 3.40142 4.38406, 3.92162 4.42652, 3.99053 " /><path d="M5.07345, -3.99054 C5.11147, -3.92776 5.14949, -3.50675 5.18751, -2.8283  C5.22294, -2.19987 5.25836, -1.35451 5.29378, -0.469452  C5.33874, 0.653999 5.38369, 1.82686 5.42865, 2.66678  C5.47327, 3.50781 5.5179, 4.00554 5.5625, 4 " /><path d="M4.93747, -4 C4.97846, -4.00398 5.01945, -3.58719 5.06044, -2.86433  C5.09565, -2.24774 5.13086, -1.41405 5.16608, -0.536129  C5.21037, 0.568301 5.25467, 1.72936 5.29897, 2.57853  C5.34149, 3.39965 5.38399, 3.92153 5.42652, 3.99053 " /><path d="M6.07345, -3.99054 C6.11147, -3.92776 6.14949, -3.50675 6.18751, -2.8283  C6.22293, -2.19991 6.25835, -1.35459 6.29378, -0.469582  C6.33892, 0.658578 6.38406, 1.83648 6.42921, 2.67721  C6.47364, 3.51206 6.51808, 4.00545 6.5625, 4 " /><path d="M5.93748, -4 C5.97774, -4.00373 6.01801, -3.60204 6.05828, -2.90202  C6.09413, -2.28311 6.12998, -1.4359 6.16584, -0.542112  C6.21005, 0.560151 6.25428, 1.71961 6.2985, 2.56944  C6.34117, 3.3957 6.38384, 3.92132 6.42652, 3.99053 " /><path d="M7.07345, -3.99054 C7.11147, -3.92776 7.14949, -3.50675 7.18751, -2.8283  C7.22294, -2.19986 7.25836, -1.35447 7.29378, -0.469388  C7.33895, 0.659463 7.38412, 1.83807 7.4293, 2.67888  C7.4737, 3.51274 7.51811, 4.00543 7.5625, 4 " /><path d="M6.93748, -4 C6.97845, -4.00397 7.01942, -3.58756 7.06039, -2.86526  C7.09557, -2.2494 7.13075, -1.41676 7.16594, -0.539702  C7.21039, 0.568592 7.25485, 1.73429 7.29931, 2.58498  C7.34171, 3.40246 7.38411, 3.92168 7.42652, 3.99053 " /><path d="M8.07345, -3.99054 C8.11147, -3.92776 8.14949, -3.50674 8.18751, -2.82828  C8.22295, -2.19958 8.25839, -1.35375 8.29383, -0.468279  C8.33902, 0.661153 8.38421, 1.84023 8.4294, 2.68091  C8.47377, 3.51357 8.51815, 4.00542 8.5625, 4 " /><path d="M7.93748, -4 C7.97776, -4.00373 8.01805, -3.60167 8.05833, -2.90109  C8.09391, -2.28664 8.1295, -1.4475 8.16508, -0.5611  C8.20956, 0.546983 8.25404, 1.71519 8.29853, 2.56994  C8.34119, 3.39591 8.38385, 3.92133 8.42652, 3.99053 " /><path d="M9.07345, -3.99054 C9.11147, -3.92775 9.1495, -3.50672 9.18752, -2.82824  C9.22299, -2.19893 9.25846, -1.35208 9.29393, -0.465697  C9.33888, 0.657707 9.38383, 1.83003 9.42878, 2.66921  C9.47335, 3.5088 9.51794, 4.00552 9.5625, 4 " /><path d="M8.93748, -4 C8.9777, -4.00371 9.01792, -3.60296 9.05814, -2.90437  C9.09419, -2.28277 9.13023, -1.43022 9.16627, -0.531373  C9.21044, 0.570083 9.25462, 1.72731 9.29879, 2.57492  C9.34137, 3.39808 9.38394, 3.92145 9.42652, 3.99053 " /><path d="M10.0735, -3.99054 C10.1115, -3.92775 10.1495, -3.5067 10.1875, -2.82819  C10.223, -2.1983 10.2585, -1.35046 10.294, -0.463211  C10.3392, 0.664716 10.3843, 1.84152 10.4294, 2.68096  C10.4738, 3.51359 10.5181, 4.00542 10.5625, 4 " /><path d="M9.93748, -4 C9.97463, -4.00272 10.0118, -3.66302 10.0489, -3.05878  C10.089, -2.41189 10.1291, -1.46213 10.1691, -0.460224  C10.2125, 0.622869 10.2558, 1.7516 10.2991, 2.58172  C10.3416, 3.40104 10.3841, 3.9216 10.4265, 3.99053 " /><path d="M11.0735, -3.99054 C11.1115, -3.92775 11.1495, -3.50672 11.1875, -2.82823  C11.223, -2.19887 11.2585, -1.35192 11.2939, -0.465461  C11.3391, 0.663464 11.3843, 1.84163 11.4294, 2.68168  C11.4738, 3.51388 11.5182, 4.00541 11.5625, 4 " /><path d="M10.9375, -4 C10.9746, -4.00271 11.0118, -3.66314 11.0489, -3.05909  C11.0875, -2.43546 11.1262, -1.53106 11.1648, -0.56881  C11.2096, 0.548099 11.2545, 1.72693 11.2993, 2.58505  C11.3417, 3.40249 11.3841, 3.92168 11.4265, 3.99053 " /><path d="M12.0735, -3.99054 C12.1115, -3.92775 12.1495, -3.50673 12.1875, -2.82825  C12.223, -2.19918 12.2584, -1.35272 12.2939, -0.466686  C12.339, 0.660455 12.3841, 1.83687 12.4292, 2.67687  C12.4736, 3.51192 12.5181, 4.00545 12.5625, 4 " /><path d="M11.9375, -4 C11.9783, -4.0039 12.0191, -3.59136 12.0598, -2.87486  C12.095, -2.26198 12.1301, -1.43215 12.1653, -0.556724  C12.2097, 0.549521 12.2541, 1.71517 12.2985, 2.56867  C12.3412, 3.39536 12.3838, 3.9213 12.4265, 3.99053 " /><path d="M13.0735, -3.99054 C13.1115, -3.92775 13.1495, -3.50672 13.1875, -2.82824  C13.223, -2.19903 13.2584, -1.35233 13.2939, -0.466093  C13.3389, 0.657703 13.3838, 1.83049 13.4288, 2.66981  C13.4734, 3.50904 13.5179, 4.00551 13.5625, 4 " /><path d="M12.9375, -4 C12.9783, -4.00393 13.0192, -3.59018 13.06, -2.87188  C13.095, -2.26119 13.13, -1.43587 13.1649, -0.564832  C13.2094, 0.543402 13.2539, 1.71226 13.2984, 2.56776  C13.3411, 3.39497 13.3838, 3.92128 13.4265, 3.99053 " /><path d="M14.0735, -3.99054 C14.1115, -3.92775 14.1495, -3.50669 14.1875, -2.82816  C14.223, -2.19792 14.2586, -1.34949 14.2941, -0.461709  C14.339, 0.662113 14.384, 1.83435 14.429, 2.67281  C14.4735, 3.51027 14.518, 4.00549 14.5625, 4 " /><path d="M13.9375, -4 C13.9784, -4.00395 14.0193, -3.5889 14.0602, -2.86864  C14.0951, -2.2587 14.13, -1.43545 14.1649, -0.566602  C14.2096, 0.547589 14.2543, 1.72318 14.2991, 2.5803  C14.3416, 3.40043 14.384, 3.92157 14.4265, 3.99053 " /><path d="M15.0734, -3.99054 C15.1115, -3.92775 15.1495, -3.50667 15.1875, -2.82812  C15.2231, -2.19746 15.2586, -1.34831 15.2942, -0.459888  C15.339, 0.661125 15.3839, 1.83014 15.4287, 2.66777  C15.4733, 3.50821 15.5179, 4.00553 15.5625, 4 " /><path d="M14.9375, -4 C14.9777, -4.00372 15.018, -3.60251 15.0582, -2.90322  C15.094, -2.28623 15.1297, -1.44209 15.1655, -0.55096  C15.2099, 0.556468 15.2544, 1.72267 15.2988, 2.57533  C15.3414, 3.39826 15.384, 3.92146 15.4265, 3.99053 " /><path d="M16.0734, -3.99054 C16.1115, -3.92775 16.1495, -3.50673 16.1875, -2.82826  C16.223, -2.19925 16.2584, -1.35289 16.2939, -0.466955  C16.339, 0.659554 16.384, 1.83533 16.4291, 2.67528  C16.4736, 3.51127 16.518, 4.00547 16.5625, 4 " /><path d="M15.9375, -4 C15.9778, -4.00372 16.018, -3.60216 16.0583, -2.90233  C16.0942, -2.28237 16.1301, -1.43324 16.166, -0.537687  C16.2103, 0.567253 16.2547, 1.72906 16.299, 2.57864  C16.3415, 3.3997 16.384, 3.92153 16.4265, 3.99053 " /><path d="M17.0734, -3.99053 C17.1115, -3.92775 17.1495, -3.50666 17.1875, -2.82809  C17.2231, -2.19716 17.2586, -1.34754 17.2942, -0.458718  C17.3391, 0.663852 17.384, 1.83438 17.4289, 2.67204  C17.4735, 3.50995 17.518, 4.00549 17.5625, 4 " /><path d="M16.9375, -4 C16.9778, -4.00373 17.018, -3.60208 17.0583, -2.90214  C17.0939, -2.287 17.1296, -1.4464 17.1652, -0.558575  C17.2098, 0.552 17.2544, 1.7226 17.2989, 2.5774  C17.3415, 3.39917 17.384, 3.92151 17.4265, 3.99053 " /><path d="M18.0734, -3.99053 C18.1115, -3.92775 18.1495, -3.50671 18.1875, -2.82821  C18.223, -2.19862 18.2585, -1.35127 18.294, -0.464458  C18.3391, 0.662908 18.3842, 1.83928 18.4293, 2.67887  C18.4737, 3.51274 18.5181, 4.00543 18.5625, 4 " /><path d="M17.9375, -4 C17.9783, -4.00391 18.0191, -3.59125 18.0599, -2.87459  C18.095, -2.26264 18.13, -1.43449 18.1651, -0.560629  C18.2097, 0.550625 18.2543, 1.72224 18.2989, 2.57758  C18.3415, 3.39924 18.384, 3.92151 18.4265, 3.99053 " /><path d="M19.2, 0.313949 C19.2, -0.208369 19.2, -0.737399 19.2, -1.23604  C19.2, -1.44927 19.2, -1.65587 19.2, -1.85584  C19.2, -1.98756 19.2, -2.11593 19.2, -2.24093  C19.2, -2.36387 19.2, -2.48283 19.2, -2.59784 " /><path d="M19.0734, -3.99053 C19.1156, -3.922 19.1578, -3.408 19.2, -2.59784 " /><path d="M18.9375, -4 C18.9783, -4.0039 19.019, -3.59184 19.0598, -2.87608  C19.1065, -2.0627 19.1533, -0.85894 19.2, 0.313949 " /><path d="M19.3434, 3.84682 C19.3207, 3.80985 19.2983, 3.46969 19.276, 2.90043  C19.2505, 2.2518 19.2251, 1.30613 19.2, 0.313949 " /><path d="M20, 3.2 L20, 3.11977  L20, 2.8831  L20, 2.50186  L20, 1.99517  L20, 1.38843  L20, 0.712067  L20, 2.22045e-16  L20, -0.712067  L20, -1.38843  L20, -1.99517  L20, -2.50186  L20, -2.8831  L20, -3.11977  L20, -3.2 " /><path d="M19.6676, -3.53244 C19.6919, -3.51092 19.7165, -3.16452 19.7413, -2.5763 " /><path d="M19.7413, 2.30786 C19.7508, 2.36888 19.7651, 2.42251 19.7775, 2.38638  C19.7882, 2.35409 19.7939, 2.28344 19.7982, 2.21319  C19.8078, 2.04395 19.8105, 1.84374 19.8124, 1.63139  C19.8153, 1.20998 19.8118, 0.729811 19.8062, 0.238492  C19.794, -0.793828 19.7713, -1.86343 19.7413, -2.5763 " /><path d="M19.2, -2.59784 C19.2907, -1.80769 19.3841, -0.807695 19.4806, 0.142282  C19.565, 0.972326 19.6517, 1.75576 19.7413, 2.30786 " /></g>
<g   fill="none"
   stroke="rgb(0, 0, 0)"
   stroke-linecap="butt"
   stroke-linejoin="miter"
   stroke-width="0.35"
   transform="scale(1, -1)"
  >
<path id= "1" d=" M -5.3 -6.5 L -4.94283 -7.50555 " />
<path id= "2" d=" M -0.3 -5.8 L 0 -5.8 " />
<path d="M0.4, -4 C0.296188, -3.99959 0.193081, -4.04183 0.119387, -4.11494  C0.043595, -4.18894 -0.000441116, -4.29408 0, -4.4 " /><path id= "4" d=" M 0.4 -4 L 1.0625 -4 " />
<path d="M1.11349, 3.4488 Q1.10555, 3.43411 1.08646, 3.41742  Q1.05013, 3.38759 1.00003, 3.3866 " /><path d="M1.42694, 3.99053 L1.11349, 3.4488 " /><path id= "7" d=" M 1.93747 -4 L 2.0625 -4 " />
<path d="M0.887687, 3.44783 L0.573457, 3.99054 " /><path d="M1.38769, -3.44782 L1.07345, -3.99054 " /><path d="M1.61237, -3.44783 Q1.60482, -3.43377 1.5859, -3.41718  Q1.55877, -3.39468 1.52142, -3.38828  Q1.51072, -3.38743 1.50002, -3.38659  Q1.45181, -3.38748 1.41624, -3.41549  Q1.39572, -3.43281 1.38769, -3.44782 " /><path d="M2.11237, 3.44784 Q2.10482, 3.43377 2.0859, 3.41719  Q2.04991, 3.38761 2.00002, 3.3866 " /><path d="M1.00002, 3.3866 Q0.951808, 3.38749 0.916243, 3.4155  Q0.895722, 3.43281 0.887687, 3.44783 " /><path d="M1.92652, -3.99053 L1.61237, -3.44783 " /><path d="M2.42651, 3.99053 L2.11237, 3.44784 " /><path id= "15" d=" M 2.93747 -4 L 3.0625 -4 " />
<path d="M1.88769, 3.44783 L1.57346, 3.99053 " /><path d="M2.38769, -3.44782 L2.07345, -3.99054 " /><path d="M2.61237, -3.44783 Q2.60482, -3.43377 2.5859, -3.41718  Q2.55877, -3.39468 2.52142, -3.38827  Q2.51072, -3.38743 2.50002, -3.38659  Q2.4518, -3.38748 2.41624, -3.41549  Q2.39572, -3.43281 2.38769, -3.44782 " /><path d="M3.11237, 3.44784 Q3.10482, 3.43377 3.0859, 3.41719  Q3.04991, 3.38761 3.00002, 3.3866 " /><path d="M2.00002, 3.3866 Q1.95181, 3.38748 1.91624, 3.41549  Q1.89572, 3.43281 1.88769, 3.44783 " /><path d="M2.92652, -3.99053 L2.61237, -3.44783 " /><path d="M3.42651, 3.99053 L3.11237, 3.44784 " /><path id= "23" d=" M 3.93747 -4 L 4.0625 -4 " />
<path d="M2.88768, 3.44783 L2.57346, 3.99053 " /><path d="M3.38768, -3.44782 L3.07345, -3.99054 " /><path d="M3.61237, -3.44783 Q3.60482, -3.43377 3.5859, -3.41718  Q3.55877, -3.39468 3.52142, -3.38827  Q3.51072, -3.38743 3.50002, -3.38659  Q3.4518, -3.38748 3.41624, -3.41549  Q3.39572, -3.43281 3.38768, -3.44782 " /><path d="M4.11237, 3.44783 Q4.10482, 3.43377 4.0859, 3.41718  Q4.04991, 3.38761 4.00002, 3.38659 " /><path d="M3.00002, 3.3866 Q2.95181, 3.38748 2.91624, 3.41549  Q2.89572, 3.43281 2.88768, 3.44783 " /><path d="M3.92652, -3.99053 L3.61237, -3.44783 " /><path d="M4.42652, 3.99053 L4.11237, 3.44783 " /><path id= "31" d=" M 4.93747 -4 L 5.0625 -4 " />
<path d="M3.88768, 3.44783 L3.57346, 3.99053 " /><path d="M4.38768, -3.44782 L4.07345, -3.99054 " /><path d="M4.61237, -3.44783 Q4.60482, -3.43376 4.5859, -3.41718  Q4.55877, -3.39468 4.52141, -3.38827  Q4.51072, -3.38743 4.50002, -3.38659  Q4.4518, -3.38748 4.41624, -3.41549  Q4.39572, -3.43281 4.38768, -3.44782 " /><path d="M5.11236, 3.44783 Q5.10481, 3.43377 5.0859, 3.41718  Q5.04991, 3.38761 5.00002, 3.38659 " /><path d="M4.00002, 3.38659 Q3.9518, 3.38748 3.91624, 3.41549  Q3.89572, 3.43281 3.88768, 3.44783 " /><path d="M4.92652, -3.99053 L4.61237, -3.44783 " /><path d="M5.42652, 3.99053 L5.11236, 3.44783 " /><path id= "39" d=" M 5.93748 -4 L 6.0625 -4 " />
<path d="M4.88768, 3.44783 L4.57346, 3.99053 " /><path d="M5.38768, -3.44782 L5.07345, -3.99054 " /><path d="M5.61236, -3.44783 Q5.60481, -3.43376 5.5859, -3.41718  Q5.55877, -3.39467 5.52141, -3.38827  Q5.51071, -3.38743 5.50002, -3.38659  Q5.4518, -3.38747 5.41623, -3.41548  Q5.39571, -3.4328 5.38768, -3.44782 " /><path d="M6.11236, 3.44783 Q6.10481, 3.43377 6.0859, 3.41718  Q6.04991, 3.3876 6.00002, 3.38659 " /><path d="M5.00002, 3.38659 Q4.9518, 3.38748 4.91624, 3.41549  Q4.89572, 3.43281 4.88768, 3.44783 " /><path d="M5.92652, -3.99053 L5.61236, -3.44783 " /><path d="M6.42652, 3.99053 L6.11236, 3.44783 " /><path id= "47" d=" M 6.93748 -4 L 7.0625 -4 " />
<path d="M5.88768, 3.44782 L5.57346, 3.99053 " /><path d="M6.38768, -3.44782 L6.07345, -3.99054 " /><path d="M6.61236, -3.44782 Q6.60481, -3.43376 6.5859, -3.41717  Q6.55876, -3.39467 6.52141, -3.38827  Q6.51071, -3.38743 6.50001, -3.38658  Q6.4518, -3.38747 6.41623, -3.41548  Q6.39571, -3.4328 6.38768, -3.44782 " /><path d="M7.11236, 3.44783 Q7.10481, 3.43376 7.08589, 3.41718  Q7.04991, 3.3876 7.00002, 3.38659 " /><path d="M6.00002, 3.38659 Q5.9518, 3.38748 5.91624, 3.41549  Q5.89571, 3.43281 5.88768, 3.44782 " /><path d="M6.92653, -3.99053 L6.61236, -3.44782 " /><path d="M7.42652, 3.99053 L7.11236, 3.44783 " /><path id= "55" d=" M 7.93748 -4 L 8.0625 -4 " />
<path d="M6.88768, 3.44782 L6.57346, 3.99053 " /><path d="M7.38768, -3.44782 L7.07345, -3.99054 " /><path d="M7.61236, -3.44782 Q7.60481, -3.43376 7.58589, -3.41717  Q7.55876, -3.39467 7.52141, -3.38827  Q7.51071, -3.38742 7.50001, -3.38658  Q7.4518, -3.38747 7.41623, -3.41548  Q7.39571, -3.4328 7.38768, -3.44782 " /><path d="M8.11236, 3.44783 Q8.10481, 3.43376 8.08589, 3.41718  Q8.0499, 3.3876 8.00001, 3.38659 " /><path d="M7.00002, 3.38659 Q6.9518, 3.38748 6.91623, 3.41549  Q6.89571, 3.43281 6.88768, 3.44782 " /><path d="M7.92653, -3.99053 L7.61236, -3.44782 " /><path d="M8.42652, 3.99053 L8.11236, 3.44783 " /><path id= "63" d=" M 8.93748 -4 L 9.0625 -4 " />
<path d="M7.88768, 3.44782 L7.57346, 3.99053 " /><path d="M8.38768, -3.44781 L8.07345, -3.99054 " /><path d="M8.61236, -3.44782 Q8.60481, -3.43376 8.58589, -3.41717  Q8.55876, -3.39467 8.52141, -3.38826  Q8.51071, -3.38742 8.50001, -3.38658  Q8.45179, -3.38747 8.41623, -3.41548  Q8.39571, -3.4328 8.38768, -3.44781 " /><path d="M9.11236, 3.44782 Q9.10481, 3.43376 9.08589, 3.41717  Q9.0499, 3.3876 9.00001, 3.38659 " /><path d="M8.00001, 3.38659 Q7.9518, 3.38747 7.91623, 3.41548  Q7.89571, 3.4328 7.88768, 3.44782 " /><path d="M8.92653, -3.99053 L8.61236, -3.44782 " /><path d="M9.42652, 3.99053 L9.11236, 3.44782 " /><path id= "71" d=" M 9.93748 -4 L 10.0625 -4 " />
<path d="M8.88768, 3.44782 L8.57346, 3.99053 " /><path d="M9.38767, -3.44781 L9.07345, -3.99054 " /><path d="M9.61236, -3.44782 Q9.60481, -3.43375 9.58589, -3.41717  Q9.55876, -3.39467 9.5214, -3.38826  Q9.51071, -3.38742 9.50001, -3.38658  Q9.45179, -3.38747 9.41623, -3.41548  Q9.39571, -3.4328 9.38767, -3.44781 " /><path d="M10.1124, 3.44782 Q10.1048, 3.43376 10.0859, 3.41717  Q10.0499, 3.3876 10, 3.38658 " /><path d="M9.00001, 3.38659 Q8.9518, 3.38747 8.91623, 3.41548  Q8.89571, 3.4328 8.88768, 3.44782 " /><path d="M9.92653, -3.99053 L9.61236, -3.44782 " /><path d="M10.4265, 3.99053 L10.1124, 3.44782 " /><path id= "79" d=" M 10.9375 -4 L 11.0625 -4 " />
<path d="M9.88767, 3.44782 L9.57346, 3.99053 " /><path d="M10.3877, -3.44781 L10.0735, -3.99054 " /><path d="M10.6124, -3.44782 Q10.6048, -3.43375 10.5859, -3.41717  Q10.5588, -3.39466 10.5214, -3.38826  Q10.5107, -3.38742 10.5, -3.38658  Q10.4518, -3.38747 10.4162, -3.41548  Q10.3957, -3.4328 10.3877, -3.44781 " /><path d="M11.1124, 3.44782 Q11.1048, 3.43376 11.0859, 3.41717  Q11.0499, 3.3876 11, 3.38658 " /><path d="M10, 3.38658 Q9.9518, 3.38747 9.91623, 3.41548  Q9.89571, 3.4328 9.88767, 3.44782 " /><path d="M10.9265, -3.99053 L10.6124, -3.44782 " /><path d="M11.4265, 3.99053 L11.1124, 3.44782 " /><path id= "87" d=" M 11.9375 -4 L 12.0625 -4 " />
<path d="M10.8877, 3.44782 L10.5735, 3.99053 " /><path d="M11.3877, -3.44781 L11.0735, -3.99054 " /><path d="M11.6124, -3.44781 Q11.6048, -3.43375 11.5859, -3.41716  Q11.5588, -3.39466 11.5214, -3.38826  Q11.5107, -3.38742 11.5, -3.38658  Q11.4518, -3.38746 11.4162, -3.41548  Q11.3957, -3.4328 11.3877, -3.44781 " /><path d="M12.1124, 3.44782 Q12.1048, 3.43375 12.0859, 3.41717  Q12.0499, 3.38759 12, 3.38658 " /><path d="M11, 3.38658 Q10.9518, 3.38747 10.9162, 3.41548  Q10.8957, 3.4328 10.8877, 3.44782 " /><path d="M11.9265, -3.99053 L11.6124, -3.44781 " /><path d="M12.4265, 3.99053 L12.1124, 3.44782 " /><path id= "95" d=" M 12.9375 -4 L 13.0625 -4 " />
<path d="M11.8877, 3.44781 L11.5735, 3.99053 " /><path d="M12.3877, -3.44781 L12.0735, -3.99054 " /><path d="M12.6124, -3.44781 Q12.6048, -3.43375 12.5859, -3.41716  Q12.5588, -3.39466 12.5214, -3.38826  Q12.5107, -3.38742 12.5, -3.38657  Q12.4518, -3.38746 12.4162, -3.41547  Q12.3957, -3.43279 12.3877, -3.44781 " /><path d="M13.1124, 3.44782 Q13.1048, 3.43375 13.0859, 3.41717  Q13.0499, 3.38759 13, 3.38658 " /><path d="M12, 3.38658 Q11.9518, 3.38747 11.9162, 3.41548  Q11.8957, 3.4328 11.8877, 3.44781 " /><path d="M12.9265, -3.99053 L12.6124, -3.44781 " /><path d="M13.4265, 3.99053 L13.1124, 3.44782 " /><path id= "103" d=" M 13.9375 -4 L 14.0625 -4 " />
<path d="M12.8877, 3.44781 L12.5735, 3.99053 " /><path d="M13.3877, -3.44781 L13.0735, -3.99054 " /><path d="M13.6124, -3.44781 Q13.6048, -3.43375 13.5859, -3.41716  Q13.5588, -3.39466 13.5214, -3.38825  Q13.5107, -3.38741 13.5, -3.38657  Q13.4518, -3.38746 13.4162, -3.41547  Q13.3957, -3.43279 13.3877, -3.44781 " /><path d="M14.1124, 3.44781 Q14.1048, 3.43375 14.0859, 3.41716  Q14.0499, 3.38759 14, 3.38658 " /><path d="M13, 3.38658 Q12.9518, 3.38747 12.9162, 3.41548  Q12.8957, 3.4328 12.8877, 3.44781 " /><path d="M13.9265, -3.99053 L13.6124, -3.44781 " /><path d="M14.4265, 3.99053 L14.1124, 3.44781 " /><path id= "111" d=" M 14.9375 -4 L 15.0625 -4 " />
<path d="M13.8877, 3.44781 L13.5735, 3.99053 " /><path d="M14.3877, -3.44781 L14.0735, -3.99054 " /><path d="M14.6124, -3.44781 Q14.6048, -3.43374 14.5859, -3.41716  Q14.5587, -3.39466 14.5214, -3.38825  Q14.5107, -3.38741 14.5, -3.38657  Q14.4518, -3.38746 14.4162, -3.41547  Q14.3957, -3.43279 14.3877, -3.44781 " /><path d="M15.1124, 3.44781 Q15.1048, 3.43375 15.0859, 3.41716  Q15.0499, 3.38759 15, 3.38658 " /><path d="M14, 3.38658 Q13.9518, 3.38746 13.9162, 3.41547  Q13.8957, 3.4328 13.8877, 3.44781 " /><path d="M14.9265, -3.99053 L14.6124, -3.44781 " /><path d="M15.4265, 3.99053 L15.1124, 3.44781 " /><path id= "119" d=" M 15.9375 -4 L 16.0625 -4 " />
<path d="M14.8877, 3.44781 L14.5735, 3.99053 " /><path d="M15.3877, -3.4478 L15.0734, -3.99054 " /><path d="M15.6124, -3.44781 Q15.6048, -3.43374 15.5859, -3.41716  Q15.5587, -3.39466 15.5214, -3.38825  Q15.5107, -3.38741 15.5, -3.38657  Q15.4518, -3.38746 15.4162, -3.41547  Q15.3957, -3.43279 15.3877, -3.4478 " /><path d="M16.1123, 3.44781 Q16.1048, 3.43375 16.0859, 3.41716  Q16.0499, 3.38759 16, 3.38657 " /><path d="M15, 3.38658 Q14.9518, 3.38746 14.9162, 3.41547  Q14.8957, 3.43279 14.8877, 3.44781 " /><path d="M15.9265, -3.99053 L15.6124, -3.44781 " /><path d="M16.4265, 3.99053 L16.1123, 3.44781 " /><path id= "127" d=" M 16.9375 -4 L 17.0625 -4 " />
<path d="M15.8877, 3.44781 L15.5735, 3.99053 " /><path d="M16.3877, -3.4478 L16.0734, -3.99054 " /><path d="M16.6123, -3.4478 Q16.6048, -3.43374 16.5859, -3.41715  Q16.5587, -3.39465 16.5214, -3.38825  Q16.5107, -3.38741 16.5, -3.38657  Q16.4518, -3.38746 16.4162, -3.41547  Q16.3957, -3.43279 16.3877, -3.4478 " /><path d="M17.1123, 3.44781 Q17.1048, 3.43374 17.0859, 3.41716  Q17.0499, 3.38759 17, 3.38657 " /><path d="M16, 3.38657 Q15.9518, 3.38746 15.9162, 3.41547  Q15.8957, 3.43279 15.8877, 3.44781 " /><path d="M16.9265, -3.99053 L16.6123, -3.4478 " /><path d="M17.4265, 3.99053 L17.1123, 3.44781 " /><path id= "135" d=" M 17.9375 -4 L 18.0625 -4 " />
<path d="M16.8877, 3.44781 L16.5735, 3.99053 " /><path d="M17.3877, -3.4478 L17.0734, -3.99053 " /><path d="M17.6123, -3.4478 Q17.6048, -3.43374 17.5859, -3.41715  Q17.5587, -3.39465 17.5214, -3.38825  Q17.5107, -3.38741 17.5, -3.38657  Q17.4518, -3.38745 17.4162, -3.41547  Q17.3957, -3.43279 17.3877, -3.4478 " /><path d="M18.1123, 3.44781 Q18.1048, 3.43374 18.0859, 3.41716  Q18.0499, 3.38758 18, 3.38657 " /><path d="M17, 3.38657 Q16.9518, 3.38746 16.9162, 3.41547  Q16.8957, 3.43279 16.8877, 3.44781 " /><path d="M17.9265, -3.99053 L17.6123, -3.4478 " /><path d="M18.4265, 3.99053 L18.1123, 3.44781 " /><path id= "143" d=" M 18.9375 -4 L 19.0625 -4 " />
<path d="M17.8877, 3.44781 L17.5735, 3.99053 " /><path d="M18.3877, -3.4478 L18.0734, -3.99053 " /><path d="M18.6123, -3.4478 Q18.6048, -3.43374 18.5859, -3.41715  Q18.5587, -3.39465 18.5214, -3.38825  Q18.5107, -3.3874 18.5, -3.38656  Q18.4518, -3.38745 18.4162, -3.41546  Q18.3957, -3.43279 18.3877, -3.4478 " /><path d="M19.1123, 3.4478 Q19.1048, 3.43374 19.0859, 3.41716  Q19.0499, 3.38758 19, 3.38657 " /><path d="M18, 3.38657 Q17.9518, 3.38746 17.9162, 3.41547  Q17.8957, 3.43279 17.8877, 3.44781 " /><path d="M18.9265, -3.99053 L18.6123, -3.4478 " /><path d="M19.1123, 3.4478 L19.3434, 3.84682 " /><path id= "151" d=" M 20 -3.2 L 19.6676 -3.53244 " />
<path d="M18.8877, 3.4478 L18.5735, 3.99053 " /><path d="M19.3877, -3.4478 L19.0734, -3.99053 " /><path d="M19.6123, -3.4478 Q19.6048, -3.43373 19.5859, -3.41715  Q19.5587, -3.39465 19.5214, -3.38824  Q19.5107, -3.3874 19.5, -3.38656  Q19.4518, -3.38745 19.4162, -3.41546  Q19.3957, -3.43278 19.3877, -3.4478 " /><path d="M19, 3.38657 Q18.9518, 3.38746 18.9162, 3.41547  Q18.8957, 3.43279 18.8877, 3.4478 " /><path d="M19.6597, -3.5296 L19.6123, -3.4478 " /></g>
<g   fill="none"
   stroke="rgb(0, 0, 0)"
   stroke-linecap="butt"
   stroke-linejoin="miter"
   stroke-width="0.35"
   transform="scale(1, -1)"
  >
<path d="M-5.3, 5.62917 L-5.3, 5.74675  L-5.3, 5.8563  L-5.3, 5.95765  L-5.3, 6.05068  L-5.3, 6.13524  L-5.3, 6.21122  L-5.3, 6.27852  L-5.3, 6.33703  L-5.3, 6.38668  L-5.3, 6.4274  L-5.3, 6.45913  L-5.3, 6.48182  L-5.3, 6.49545  L-5.3, 6.5 " /><path d="M-5.3, -6.99441e-15 C-5.3, 0.486484 -5.3, 0.970949 -5.3, 1.44639  C-5.3, 1.60289 -5.3, 1.7594 -5.3, 1.91591  C-5.3, 2.06884 -5.3, 2.22178 -5.3, 2.37472  C-5.3, 2.52323 -5.3, 2.67174 -5.3, 2.82024  C-5.3, 2.9635 -5.3, 3.10675 -5.3, 3.25  C-5.3, 3.38719 -5.3, 3.52439 -5.3, 3.66158  C-5.3, 3.79195 -5.3, 3.92232 -5.3, 4.05268  C-5.3, 4.1755 -5.3, 4.29831 -5.3, 4.42112  C-5.3, 4.53569 -5.3, 4.65027 -5.3, 4.76484  C-5.3, 4.87053 -5.3, 4.97622 -5.3, 5.0819  C-5.3, 5.17812 -5.3, 5.27434 -5.3, 5.37055  C-5.3, 5.45676 -5.3, 5.54296 -5.3, 5.62917 " /><path d="M-5.3, -5.62917 Q-5.3, -5.49986 -5.3, -5.37055  Q-5.3, -5.22623 -5.3, -5.0819  Q-5.3, -4.92337 -5.3, -4.76484  Q-5.3, -4.59298 -5.3, -4.42112  Q-5.3, -4.2369 -5.3, -4.05268  Q-5.3, -3.85713 -5.3, -3.66158  Q-5.3, -3.45579 -5.3, -3.25  Q-5.3, -3.03512 -5.3, -2.82024  Q-5.3, -2.59748 -5.3, -2.37472  Q-5.3, -2.14531 -5.3, -1.91591  Q-5.3, -1.68115 -5.3, -1.44639  Q-5.3, -1.20758 -5.3, -0.968775  Q-5.3, -0.486507 -5.3, -6.99441e-15 " /><path d="M-5.3, -6.5 L-5.3, -6.49545  L-5.3, -6.48182  L-5.3, -6.45913  L-5.3, -6.4274  L-5.3, -6.38668  L-5.3, -6.33703  L-5.3, -6.27852  L-5.3, -6.21122  L-5.3, -6.13524  L-5.3, -6.05068  L-5.3, -5.95765  L-5.3, -5.8563  L-5.3, -5.74675  L-5.3, -5.62917 " /><path id= "5" d=" M -5.3 6.5 L -4.94283 7.50555 " />
<path d="M-5.3, -5.62917 C-5.29888, -6.22436 -5.18565, -6.81919 -4.94283, -7.50555 " /><path d="M-4.94283, -3.75278 C-5.18565, -4.43914 -5.29888, -5.03397 -5.3, -5.62917 " /><path d="M-5.3, -6.66134e-15 C-5.29888, -1.19039 -5.18565, -2.38006 -4.94283, -3.75278 " /><path d="M-4.94283, 3.75278 C-5.18565, 2.38006 -5.29888, 1.19039 -5.3, -6.66134e-15 " /><path d="M-5.3, 5.62917 C-5.29888, 5.03397 -5.18565, 4.43914 -4.94283, 3.75278 " /><path d="M-4.94283, 7.50555 C-5.18565, 6.81919 -5.29888, 6.22436 -5.3, 5.62917 " /><path id= "12" d=" M -4.94283 7.50555 L -0.3 7.50555 " />
<path id= "13" d=" M -0.3 -7.50555 L -4.94283 -7.50555 " />
<path id= "14" d=" M -0.3 -3.75278 L -0.3 -7.50555 " />
<path id= "15" d=" M -0.3 -3.75278 L -4.94283 -3.75278 " />
<path id= "16" d=" M -0.3 3.75278 L -0.3 -3.75278 " />
<path id= "17" d=" M -0.3 3.75278 L -4.94283 3.75278 " />
<path id= "18" d=" M -0.3 7.50555 L -0.3 3.75278 " />
<path id= "19" d=" M -0.3 5.8 L 0 5.8 " />
<path d="M0, -5.8 L0, -5.65458  L0, -5.22562  L0, -4.53462  L0, -3.61624  L0, -2.51653  L0, -1.29062  L0, -1.11022e-15  L0, 1.29062  L0, 2.51653  L0, 3.61624  L0, 4.53462  L0, 5.22562  L0, 5.65458  L0, 5.8 " /><path d="M0 4.4 A0.4 0.4 0 0 1 0.4 4" /><path d="M1.42694, 3.99053 Q1.43241, 4 1.43747, 4 " /><path id= "23" d=" M 1.43747 4 L 1.56251 4 " />
<path d="M0.562505, 4 Q0.567981, 4 0.573457, 3.99054 " /><path d="M0.573457, 3.99054 C0.613942, 3.9243 0.654412, 3.4496 0.694893, 2.6941  C0.740284, 1.85321 0.785677, 0.669137 0.831063, -0.465362  C0.869622, -1.42924 0.908184, -2.34503 0.946743, -2.98771  C0.985331, -3.63557 1.02391, -4.00315 1.0625, -4 " /><path d="M1.0625, -4 Q1.06798, -4 1.07345, -3.99054 " /><path id= "27" d=" M 0.4 4 L 0.562505 4 " />
<path id= "28" d=" M 2.43747 4 L 2.5625 4 " />
<path d="M1.56251, 4 Q1.56798, 4 1.57346, 3.99053 " /><path d="M1.57346, 3.99053 C1.61394, 3.9243 1.65441, 3.4496 1.69489, 2.6941  C1.74028, 1.85321 1.78568, 0.669136 1.83106, -0.465364  C1.86962, -1.42924 1.90818, -2.34504 1.94674, -2.98771  C1.98533, -3.63557 2.02391, -4.00315 2.0625, -4 " /><path d="M2.0625, -4 Q2.06798, -4 2.07345, -3.99054 " /><path d="M1.43747, 4 C1.47927, 4.00431 1.52109, 3.56983 1.56291, 2.82058  C1.60975, 1.98862 1.6566, 0.772514 1.70344, -0.400777  C1.73862, -1.2813 1.77379, -2.12801 1.80897, -2.76569  C1.84815, -3.48018 1.88734, -3.9261 1.92652, -3.99053 " /><path d="M1.92652, -3.99053 Q1.93199, -4 1.93747, -4 " /><path d="M2.42651, 3.99053 Q2.43199, 4 2.43747, 4 " /><path id= "35" d=" M 3.43747 4 L 3.5625 4 " />
<path d="M2.5625, 4 Q2.56798, 4 2.57346, 3.99053 " /><path d="M2.57346, 3.99053 C2.61394, 3.9243 2.65441, 3.4496 2.69489, 2.6941  C2.74028, 1.85321 2.78568, 0.669134 2.83106, -0.465366  C2.86962, -1.42924 2.90818, -2.34504 2.94674, -2.98772  C2.98533, -3.63557 3.02391, -4.00315 3.0625, -4 " /><path d="M3.0625, -4 Q3.06798, -4 3.07345, -3.99054 " /><path d="M2.43747, 4 C2.47927, 4.00431 2.5211, 3.56983 2.56291, 2.82057  C2.60975, 1.98869 2.65659, 0.772741 2.70343, -0.400444  C2.73859, -1.28065 2.77376, -2.1271 2.80892, -2.76474  C2.84812, -3.47978 2.88732, -3.92607 2.92652, -3.99053 " /><path d="M2.92652, -3.99053 Q2.93199, -4 2.93747, -4 " /><path d="M3.42651, 3.99053 Q3.43199, 4 3.43747, 4 " /><path id= "42" d=" M 4.43747 4 L 4.5625 4 " />
<path d="M3.5625, 4 Q3.56798, 4 3.57346, 3.99053 " /><path d="M3.57346, 3.99053 C3.61394, 3.9243 3.65441, 3.4496 3.69489, 2.6941  C3.74028, 1.8532 3.78568, 0.669132 3.83106, -0.465369  C3.86962, -1.42925 3.90818, -2.34505 3.94674, -2.98772  C3.98533, -3.63557 4.02391, -4.00315 4.0625, -4 " /><path d="M4.0625, -4 Q4.06798, -4 4.07345, -3.99054 " /><path d="M3.43747, 4 C3.47928, 4.00431 3.5211, 3.56982 3.56291, 2.82056  C3.60975, 1.98875 3.65658, 0.772931 3.70342, -0.400166  C3.73857, -1.28009 3.77372, -2.12631 3.80888, -2.76392  C3.84809, -3.47943 3.88731, -3.92605 3.92652, -3.99053 " /><path d="M3.92652, -3.99053 Q3.932, -4 3.93747, -4 " /><path d="M4.42652, 3.99053 Q4.43199, 4 4.43747, 4 " /><path id= "49" d=" M 5.43747 4 L 5.5625 4 " />
<path d="M4.5625, 4 Q4.56798, 4 4.57346, 3.99053 " /><path d="M4.57346, 3.99053 C4.61394, 3.9243 4.65441, 3.4496 4.69489, 2.6941  C4.74028, 1.8532 4.78568, 0.669128 4.83106, -0.465374  C4.86962, -1.42926 4.90818, -2.34506 4.94674, -2.98773  C4.98533, -3.63558 5.02391, -4.00315 5.0625, -4 " /><path d="M5.0625, -4 Q5.06798, -4 5.07345, -3.99054 " /><path d="M4.43747, 4 C4.47928, 4.00431 4.5211, 3.56982 4.56292, 2.82055  C4.60975, 1.98883 4.65658, 0.773181 4.70341, -0.3998  C4.73854, -1.27934 4.77368, -2.12524 4.80882, -2.76281  C4.84805, -3.47896 4.88729, -3.92602 4.92652, -3.99053 " /><path d="M4.92652, -3.99053 Q4.932, -4 4.93747, -4 " /><path d="M5.42652, 3.99053 Q5.432, 4 5.43747, 4 " /><path id= "56" d=" M 6.43747 4 L 6.5625 4 " />
<path d="M5.5625, 4 Q5.56798, 4 5.57346, 3.99053 " /><path d="M5.57346, 3.99053 C5.61394, 3.9243 5.65441, 3.4496 5.69489, 2.6941  C5.74028, 1.8532 5.78568, 0.669128 5.83106, -0.465374  C5.86962, -1.42926 5.90818, -2.34506 5.94674, -2.98773  C5.98533, -3.63558 6.02391, -4.00315 6.0625, -4 " /><path d="M6.0625, -4 Q6.06798, -4 6.07345, -3.99054 " /><path d="M5.43747, 4 C5.47928, 4.00431 5.5211, 3.56982 5.56292, 2.82054  C5.60974, 1.98894 5.65656, 0.77354 5.70339, -0.399276  C5.7385, -1.27823 5.77361, -2.12363 5.80873, -2.76112  C5.84799, -3.47824 5.88726, -3.92598 5.92652, -3.99053 " /><path d="M5.92652, -3.99053 Q5.932, -4 5.93748, -4 " /><path d="M6.42652, 3.99053 Q6.432, 4 6.43747, 4 " /><path id= "63" d=" M 7.43748 4 L 7.5625 4 " />
<path d="M6.5625, 4 Q6.56798, 4 6.57346, 3.99053 " /><path d="M6.57346, 3.99053 C6.61394, 3.9243 6.65441, 3.4496 6.69489, 2.6941  C6.74028, 1.8532 6.78568, 0.669128 6.83106, -0.465374  C6.86962, -1.42926 6.90818, -2.34506 6.94674, -2.98773  C6.98533, -3.63558 7.02391, -4.00315 7.0625, -4 " /><path d="M7.0625, -4 Q7.06798, -4 7.07345, -3.99054 " /><path d="M6.43747, 4 C6.47928, 4.00431 6.52111, 3.56981 6.56292, 2.82053  C6.60973, 1.98909 6.65655, 0.774011 6.70336, -0.398589  C6.73844, -1.27665 6.77352, -2.12129 6.80859, -2.75864  C6.8479, -3.47719 6.88722, -3.92592 6.92653, -3.99053 " /><path d="M6.92653, -3.99053 Q6.932, -4 6.93748, -4 " /><path d="M7.42652, 3.99053 Q7.432, 4 7.43748, 4 " /><path id= "70" d=" M 8.43748 4 L 8.5625 4 " />
<path d="M7.5625, 4 Q7.56798, 4 7.57346, 3.99053 " /><path d="M7.57346, 3.99053 C7.61394, 3.9243 7.65441, 3.4496 7.69489, 2.6941  C7.74028, 1.8532 7.78568, 0.669126 7.83106, -0.465377  C7.86962, -1.42926 7.90818, -2.34507 7.94674, -2.98774  C7.98533, -3.63558 8.02391, -4.00315 8.0625, -4 " /><path d="M8.0625, -4 Q8.06798, -4 8.07345, -3.99054 " /><path d="M7.43748, 4 C7.47928, 4.00431 7.52111, 3.56981 7.56292, 2.82053  C7.60973, 1.9891 7.65655, 0.774046 7.70336, -0.398538  C7.73843, -1.27649 7.77351, -2.12104 7.80858, -2.75838  C7.84789, -3.47707 7.88722, -3.92591 7.92653, -3.99053 " /><path d="M7.92653, -3.99053 Q7.932, -4 7.93748, -4 " /><path d="M8.42652, 3.99053 Q8.432, 4 8.43748, 4 " /><path id= "77" d=" M 9.43748 4 L 9.5625 4 " />
<path d="M8.5625, 4 Q8.56798, 4 8.57346, 3.99053 " /><path d="M8.57346, 3.99053 C8.61394, 3.9243 8.65441, 3.4496 8.69489, 2.6941  C8.74028, 1.8532 8.78568, 0.66912 8.83106, -0.465385  C8.86962, -1.42928 8.90818, -2.34509 8.94674, -2.98776  C8.98533, -3.63559 9.02391, -4.00315 9.0625, -4 " /><path d="M9.0625, -4 Q9.06798, -4 9.07345, -3.99054 " /><path d="M8.43748, 4 C8.47929, 4.00431 8.52111, 3.56981 8.56292, 2.82052  C8.60973, 1.98919 8.65654, 0.77434 8.70335, -0.39811  C8.73838, -1.27512 8.77342, -2.11885 8.80845, -2.756  C8.84781, -3.47606 8.88717, -3.92585 8.92653, -3.99053 " /><path d="M8.92653, -3.99053 Q8.93201, -4 8.93748, -4 " /><path d="M9.42652, 3.99053 Q9.432, 4 9.43748, 4 " /><path id= "84" d=" M 10.4375 4 L 10.5625 4 " />
<path d="M9.5625, 4 Q9.56798, 4 9.57346, 3.99053 " /><path d="M9.57346, 3.99053 C9.61394, 3.9243 9.65441, 3.4496 9.69489, 2.6941  C9.74028, 1.8532 9.78568, 0.669114 9.83106, -0.465393  C9.86962, -1.42929 9.90818, -2.34511 9.94674, -2.98778  C9.98533, -3.6356 10.0239, -4.00315 10.0625, -4 " /><path d="M10.0625, -4 Q10.068, -4 10.0735, -3.99054 " /><path d="M9.43748, 4 C9.47929, 4.00431 9.52111, 3.56981 9.56293, 2.82052  C9.60973, 1.98923 9.65654, 0.774466 9.70334, -0.397926  C9.73836, -1.2745 9.77337, -2.11784 9.80839, -2.75491  C9.84777, -3.4756 9.88716, -3.92582 9.92653, -3.99053 " /><path d="M9.92653, -3.99053 Q9.93201, -4 9.93748, -4 " /><path d="M10.4265, 3.99053 Q10.432, 4 10.4375, 4 " /><path id= "91" d=" M 11.4375 4 L 11.5625 4 " />
<path d="M10.5625, 4 Q10.568, 4 10.5735, 3.99053 " /><path d="M10.5735, 3.99053 C10.6139, 3.9243 10.6544, 3.4496 10.6949, 2.6941  C10.7403, 1.8532 10.7857, 0.669119 10.8311, -0.465386  C10.8696, -1.42928 10.9082, -2.34509 10.9467, -2.98776  C10.9853, -3.63559 11.0239, -4.00315 11.0625, -4 " /><path d="M11.0625, -4 Q11.068, -4 11.0735, -3.99054 " /><path d="M10.4375, 4 C10.4793, 4.00431 10.5211, 3.56981 10.5629, 2.82052  C10.6097, 1.98924 10.6565, 0.774474 10.7033, -0.397915  C10.7384, -1.27447 10.7734, -2.11778 10.8084, -2.75484  C10.8478, -3.47557 10.8872, -3.92582 10.9265, -3.99053 " /><path d="M10.9265, -3.99053 Q10.932, -4 10.9375, -4 " /><path d="M11.4265, 3.99053 Q11.432, 4 11.4375, 4 " /><path id= "98" d=" M 12.4375 4 L 12.5625 4 " />
<path d="M11.5625, 4 Q11.568, 4 11.5735, 3.99053 " /><path d="M11.5735, 3.99053 C11.6139, 3.9243 11.6544, 3.4496 11.6949, 2.6941  C11.7403, 1.8532 11.7857, 0.669122 11.8311, -0.465382  C11.8696, -1.42927 11.9082, -2.34508 11.9467, -2.98775  C11.9853, -3.63559 12.0239, -4.00315 12.0625, -4 " /><path d="M12.0625, -4 Q12.068, -4 12.0735, -3.99054 " /><path d="M11.4375, 4 C11.4793, 4.00431 11.5211, 3.5698 11.5629, 2.8205  C11.6097, 1.98945 11.6565, 0.775164 11.7033, -0.396909  C11.7382, -1.27055 11.7731, -2.1113 11.808, -2.74773  C11.8475, -3.47254 11.887, -3.92564 11.9265, -3.99053 " /><path d="M11.9265, -3.99053 Q11.932, -4 11.9375, -4 " /><path d="M12.4265, 3.99053 Q12.432, 4 12.4375, 4 " /><path id= "105" d=" M 13.4375 4 L 13.5625 4 " />
<path d="M12.5625, 4 Q12.568, 4 12.5735, 3.99053 " /><path d="M12.5735, 3.99053 C12.6139, 3.92429 12.6544, 3.4496 12.6949, 2.6941  C12.7403, 1.8532 12.7857, 0.669121 12.8311, -0.465384  C12.8696, -1.42927 12.9082, -2.34508 12.9467, -2.98776  C12.9853, -3.63559 13.0239, -4.00315 13.0625, -4 " /><path d="M13.0625, -4 Q13.068, -4 13.0735, -3.99054 " /><path d="M12.4375, 4 C12.4793, 4.00431 12.5211, 3.56979 12.5629, 2.82048  C12.6097, 1.98969 12.6565, 0.775903 12.7033, -0.395831  C12.738, -1.26493 12.7727, -2.10161 12.8074, -2.73696  C12.8471, -3.46794 12.8868, -3.92537 12.9265, -3.99053 " /><path d="M12.9265, -3.99053 Q12.932, -4 12.9375, -4 " /><path d="M13.4265, 3.99053 Q13.432, 4 13.4375, 4 " /><path id= "112" d=" M 14.4375 4 L 14.5625 4 " />
<path d="M13.5625, 4 Q13.568, 4 13.5735, 3.99053 " /><path d="M13.5735, 3.99053 C13.6139, 3.92429 13.6544, 3.4496 13.6949, 2.6941  C13.7403, 1.85319 13.7857, 0.66911 13.8311, -0.465398  C13.8696, -1.4293 13.9082, -2.34512 13.9467, -2.98779  C13.9853, -3.6356 14.0239, -4.00315 14.0625, -4 " /><path d="M14.0625, -4 Q14.068, -4 14.0735, -3.99054 " /><path d="M13.4375, 4 C13.4793, 4.00431 13.5211, 3.56979 13.5629, 2.82047  C13.6097, 1.98979 13.6565, 0.776219 13.7032, -0.395369  C13.738, -1.26578 13.7728, -2.10368 13.8076, -2.73945  C13.8472, -3.469 13.8869, -3.92543 13.9265, -3.99053 " /><path d="M13.9265, -3.99053 Q13.932, -4 13.9375, -4 " /><path d="M14.4265, 3.99053 Q14.432, 4 14.4375, 4 " /><path id= "119" d=" M 15.4375 4 L 15.5625 4 " />
<path d="M14.5625, 4 Q14.568, 4 14.5735, 3.99053 " /><path d="M14.5735, 3.99053 C14.6139, 3.92429 14.6544, 3.4496 14.6949, 2.6941  C14.7403, 1.85319 14.7857, 0.669105 14.8311, -0.465405  C14.8696, -1.42931 14.9082, -2.34513 14.9467, -2.98781  C14.9853, -3.63561 15.0239, -4.00315 15.0625, -4 " /><path d="M15.0625, -4 Q15.068, -4 15.0734, -3.99054 " /><path d="M14.4375, 4 C14.4793, 4.00431 14.5211, 3.56979 14.5629, 2.82048  C14.6097, 1.98963 14.6565, 0.775731 14.7033, -0.396082  C14.738, -1.26624 14.7728, -2.10388 14.8076, -2.73948  C14.8472, -3.46902 14.8869, -3.92543 14.9265, -3.99053 " /><path d="M14.9265, -3.99053 Q14.932, -4 14.9375, -4 " /><path d="M15.4265, 3.99053 Q15.432, 4 15.4375, 4 " /><path id= "126" d=" M 16.4375 4 L 16.5625 4 " />
<path d="M15.5625, 4 Q15.568, 4 15.5735, 3.99053 " /><path d="M15.5735, 3.99053 C15.6139, 3.92429 15.6544, 3.4496 15.6949, 2.6941  C15.7403, 1.8532 15.7857, 0.669123 15.8311, -0.465381  C15.8696, -1.42927 15.9082, -2.34508 15.9467, -2.98775  C15.9853, -3.63559 16.0239, -4.00315 16.0625, -4 " /><path d="M16.0625, -4 Q16.068, -4 16.0734, -3.99054 " /><path d="M15.4375, 4 C15.4793, 4.00431 15.5211, 3.56979 15.5629, 2.82048  C15.6097, 1.98967 15.6565, 0.775848 15.7033, -0.395912  C15.738, -1.26514 15.7727, -2.10193 15.8074, -2.7373  C15.8471, -3.46808 15.8868, -3.92538 15.9265, -3.99053 " /><path d="M15.9265, -3.99053 Q15.932, -4 15.9375, -4 " /><path d="M16.4265, 3.99053 Q16.432, 4 16.4375, 4 " /><path id= "133" d=" M 17.4375 4 L 17.5625 4 " />
<path d="M16.5625, 4 Q16.568, 4 16.5735, 3.99053 " /><path d="M16.5735, 3.99053 C16.6139, 3.92429 16.6544, 3.44959 16.6949, 2.6941  C16.7403, 1.85319 16.7857, 0.669102 16.8311, -0.465409  C16.8696, -1.42932 16.9082, -2.34514 16.9467, -2.98782  C16.9853, -3.63561 17.0239, -4.00315 17.0625, -4 " /><path d="M17.0625, -4 Q17.068, -4 17.0734, -3.99053 " /><path d="M16.4375, 4 C16.4793, 4.00431 16.5211, 3.56977 16.5629, 2.82044  C16.6097, 1.99013 16.6564, 0.777306 16.7032, -0.393785  C16.7383, -1.27289 16.7734, -2.11885 16.8085, -2.75719  C16.8479, -3.47657 16.8872, -3.92589 16.9265, -3.99053 " /><path d="M16.9265, -3.99053 Q16.932, -4 16.9375, -4 " /><path d="M17.4265, 3.99053 Q17.432, 4 17.4375, 4 " /><path id= "140" d=" M 18.4375 4 L 18.5625 4 " />
<path d="M17.5625, 4 Q17.568, 4 17.5735, 3.99053 " /><path d="M17.5735, 3.99053 C17.6139, 3.92429 17.6544, 3.4496 17.6949, 2.6941  C17.7403, 1.8532 17.7857, 0.669117 17.8311, -0.465389  C17.8696, -1.42928 17.9082, -2.3451 17.9467, -2.98777  C17.9853, -3.63559 18.0239, -4.00315 18.0625, -4 " /><path d="M18.0625, -4 Q18.068, -4 18.0734, -3.99053 " /><path d="M17.4375, 4 C17.4793, 4.00431 17.5211, 3.56978 17.5629, 2.82046  C17.6097, 1.98985 17.6565, 0.776421 17.7032, -0.395076  C17.7381, -1.26768 17.773, -2.10761 17.8078, -2.74402  C17.8474, -3.47096 17.887, -3.92555 17.9265, -3.99053 " /><path d="M17.9265, -3.99053 Q17.932, -4 17.9375, -4 " /><path d="M18.4265, 3.99053 Q18.432, 4 18.4375, 4 " /><path d="M18.5625, 4 Q18.568, 4 18.5735, 3.99053 " /><path d="M18.5735, 3.99053 C18.6139, 3.92429 18.6544, 3.44959 18.6949, 2.6941  C18.7403, 1.85319 18.7857, 0.669096 18.8311, -0.465417  C18.8696, -1.42933 18.9082, -2.34516 18.9467, -2.98783  C18.9853, -3.63562 19.0239, -4.00315 19.0625, -4 " /><path d="M19.0625, -4 Q19.068, -4 19.0734, -3.99053 " /><path d="M18.4375, 4 C18.4793, 4.00431 18.5211, 3.56977 18.5629, 2.82042  C18.6097, 1.99031 18.6564, 0.777887 18.7032, -0.392936  C18.7381, -1.26705 18.773, -2.10853 18.8079, -2.74566  C18.8474, -3.47166 18.887, -3.92559 18.9265, -3.99053 " /><path d="M18.9265, -3.99053 Q18.932, -4 18.9375, -4 " /><path d="M19.3506, 3.84943 Q19.347, 3.85304 19.3434, 3.84682 " /><path id= "153" d=" M 19.3506 3.84943 L 20 3.2 " />
<path d="M20, -3.2 L20, -3.11977  L20, -2.8831  L20, -2.50186  L20, -1.99517  L20, -1.38843  L20, -0.712067  L20, -5.55112e-16  L20, 0.712067  L20, 1.38843  L20, 1.99517  L20, 2.50186  L20, 2.8831  L20, 3.11977  L20, 3.2 " /><path d="M19.3506, 3.84943 C19.3676, 3.83312 19.3848, 3.64701 19.4021, 3.31329  C19.4188, 2.99249 19.4355, 2.53507 19.4524, 1.99519  C19.4689, 1.46872 19.4855, 0.864799 19.5021, 0.254085  C19.5343, -0.926808 19.5668, -2.1154 19.5997, -2.81687  C19.6196, -3.24371 19.6396, -3.49606 19.6597, -3.5296 " /><path d="M19.6597, -3.5296 Q19.6636, -3.53636 19.6676, -3.53244 " /></g>

</svg>
