<svg xmlns="http://www.w3.org/2000/svg" viewBox="-8.706438 -7.700888 17.412876 15.401776">
<rect width="100%" height="100%" fill="white"/>
<g   fill="none"
   stroke="rgb(0, 0, 0)"
   stroke-linecap="butt"
   stroke-linejoin="miter"
   stroke-width="0.35"
   transform="scale(1, -1)"
  >
<path d="M6.5 0 A6.5 6.5 0 0 1 5.62917 3.25" /><path d="M5.62917 -3.25 A6.5 6.5 0 0 1 6.5 -1.59204e-15" /><path d="M-6.96719e-15 -6.5 A6.5 6.5 0 0 1 5.62917 -3.25" /><path d="M-5.62917 -3.25 A6.5 6.5 0 0 1 -6.96719e-15 -6.5" /><path d="M-5.62917 3.25 A6.5 6.5 0 0 1 -5.62917 -3.25" /><path d="M1.8413e-15 6.5 A6.5 6.5 0 0 1 -5.62917 3.25" /><path d="M5.62917 3.25 A6.5 6.5 0 0 1 1.8413e-15 6.5" /><path d="M5.62917, 3.25 C6.22436, 2.21909 6.81919, 1.18881 7.50555, 5.93303e-13 " /><path d="M1.33227e-15, 6.5 C1.19039, 6.5 2.38006, 6.5 3.75278, 6.5 " /><path d="M3.75278, 6.5 C4.43914, 5.31119 5.03397, 4.28091 5.62917, 3.25 " /><path d="M-5.62917, 3.25 C-5.03397, 4.28091 -4.43914, 5.31119 -3.75278, 6.5 " /><path d="M-3.75278, 6.5 C-2.38006, 6.5 -1.19039, 6.5 1.55431e-15, 6.5 " /><path d="M-5.62917, -3.25 C-6.22436, -2.21909 -6.81919, -1.18881 -7.50555, -3.43503e-13 " /><path d="M-7.50555, 8.43325e-13 C-6.81919, 1.18881 -6.22436, 2.21909 -5.62917, 3.25 " /><path d="M-3.75278, -6.5 C-4.43914, -5.31119 -5.03397, -4.28091 -5.62917, -3.25 " /><path d="M-6.66134e-15, -6.5 C-1.19039, -6.5 -2.38006, -6.5 -3.75278, -6.5 " /><path d="M3.75278, -6.5 C2.38006, -6.5 1.19039, -6.5 -6.66134e-15, -6.5 " /><path d="M5.62917, -3.25 C5.03397, -4.28091 4.43914, -5.31119 3.75278, -6.5 " /><path d="M7.50555, -5.93303e-13 C6.81919, -1.18881 6.22436, -2.21909 5.62917, -3.25 " /></g>

</svg>
