<svg xmlns="http://www.w3.org/2000/svg" viewBox="-8.706438 -7.700888 17.412876 15.401776">
<rect width="100%" height="100%" fill="white"/>
<g   fill="none"
   stroke="rgb(165, 165, 165)"
   stroke-dasharray="1.2,0.8"
   stroke-linecap="butt"
   stroke-linejoin="miter"
   stroke-width="0.25"
   transform="scale(1, -1)"
  >
<path id= "1" d=" M 3.75278 6.5 L 7.50555 2.67047e-13 " />
<path id= "2" d=" M -3.75278 6.5 L 3.75278 6.5 " />
<path id= "3" d=" M -7.50555 1.05901e-12 L -3.75278 6.5 " />
<path id= "4" d=" M -3.75278 -6.5 L -7.50555 -9.17815e-15 " />
<path id= "5" d=" M 3.75278 -6.5 L -3.75278 -6.5 " />
<path id= "6" d=" M 7.50555 -8.01335e-13 L 3.75278 -6.5 " />
<circle cx ="0" cy ="0" r ="5.8" /><circle cx ="0" cy ="0" r ="5.8" /><circle cx ="0" cy ="0" r ="4" /><path d="M4, 1.0572e-11 C4.00408, 1.02618 3.59096, 2.04628 2.87608, 2.77996 " /><path d="M1.61991 3.65731 A4 4 0 0 0 2.87608 2.77996" /><path d="M1.61991, 3.65731 C1.01643, 3.92534 0.347145, 4.03958 -0.309053, 3.98804  C-1.11526, 3.92706 -1.89862, 3.61371 -2.52393, 3.10319 " /><path d="M-2.52393, 3.10319 Q-2.72525, 2.9391 -2.89873, 2.75633  Q-3.0482, 2.59829 -3.16757, 2.44264  Q-3.24249, 2.34466 -3.29187, 2.27235  Q-3.32642, 2.22181 -3.32805, 2.21903 " /><path d="M-3.32805, 2.21903 C-3.32789, 2.21925 -3.28451, 2.28482 -3.23397, 2.35403  C-3.17295, 2.43853 -3.102, 2.52773 -3.02111, 2.62162  C-2.87412, 2.7918 -2.70834, 2.95237 -2.52377, 3.10332 " /><path d="M-2.52377, 3.10332 C-2.1557, 3.40288 -1.73404, 3.63588 -1.28469, 3.78808  C-0.449004, 4.07372 0.482417, 4.07069 1.31912, 3.77623  C2.15995, 3.48497 2.89931, 2.901 3.3777, 2.14269  C3.78175, 1.50807 4.00122, 0.75526 4, 6.79061e-11 " /><path d="M4, 1.05662e-11 C4.00531, -1.11098 3.51893, -2.21225 2.6941, -2.95665  C2.17739, -3.42867 1.53441, -3.76064 0.850364, -3.90857  C0.41935, -4.00248 -0.0272474, -4.0243 -0.465362, -3.97284  C-1.42924, -3.8631 -2.34503, -3.3863 -2.98771, -2.65962  C-3.64151, -1.93008 -4.00962, -0.953294 -3.99991, 0.0263031  C-3.9972, 1.06607 -3.56659, 2.09613 -2.82837, 2.82849  C-2.20098, 3.45902 -1.35738, 3.86868 -0.473893, 3.97183  C-0.0537995, 4.02207 0.374246, 4.00498 0.788998, 3.92141  C1.48627, 3.78207 2.14405, 3.45197 2.67249, 2.97621  C3.51013, 2.23142 4.00549, 1.12078 4, 9.54792e-12 " /><path d="M2.87608, 2.77996 C2.51553, 3.14623 2.08764, 3.44584 1.61991, 3.65731 " /><path d="M4, 9.5306e-12 C4.00531, -1.11098 3.51893, -2.21225 2.6941, -2.95665  C2.17739, -3.42867 1.53441, -3.76064 0.850363, -3.90857  C0.419349, -4.00248 -0.0272485, -4.0243 -0.465364, -3.97284  C-1.42924, -3.8631 -2.34504, -3.3863 -2.98771, -2.65962  C-3.64152, -1.93007 -4.00962, -0.953287 -3.99991, 0.0263106  C-3.9972, 1.06608 -3.56659, 2.09614 -2.82836, 2.82849  C-2.20085, 3.45915 -1.35702, 3.86884 -0.473345, 3.97189  C-0.0472967, 4.0228 0.38692, 4.00442 0.807147, 3.91772  C1.49597, 3.77672 2.14537, 3.44947 2.66854, 2.97974  C3.50853, 2.2349 4.00552, 1.12256 4, 8.60201e-12 " /><path d="M4, 6.79039e-11 C4.00431, -1.05233 3.56983, -2.09722 2.82058, -2.83625  C2.34577, -3.30948 1.74979, -3.65972 1.10532, -3.84425  C0.617984, -3.98463 0.103802, -4.03093 -0.400777, -3.97987  C-1.2813, -3.89341 -2.12801, -3.50313 -2.76569, -2.88981  C-3.52427, -2.16965 -3.97803, -1.14143 -3.99885, -0.0957522  C-4.02864, 0.963485 -3.6132, 2.02558 -2.87265, 2.7835  C-2.25552, 3.42362 -1.41888, 3.84647 -0.537491, 3.96372  C0.570803, 4.11952 1.73622, 3.77915 2.58648, 3.05125  C3.17358, 2.55524 3.61167, 1.88591 3.83131, 1.14938  C3.94346, 0.774463 3.99969, 0.391335 4, 6.12417e-11 " /><path d="M4, 8.54739e-12 C4.00531, -1.11098 3.51893, -2.21225 2.6941, -2.95665  C2.17739, -3.42867 1.53441, -3.76064 0.850362, -3.90857  C0.419348, -4.00248 -0.0272505, -4.0243 -0.465366, -3.97284  C-1.42924, -3.86309 -2.34504, -3.3863 -2.98772, -2.65961  C-3.64152, -1.93006 -4.00962, -0.953274 -3.99991, 0.0263252  C-3.99719, 1.0661 -3.56658, 2.09616 -2.82835, 2.82851  C-2.20059, 3.45941 -1.35636, 3.86916 -0.472314, 3.97202  C-0.0532891, 4.02142 0.363207, 4.00534 0.777175, 3.92377  C1.48209, 3.78514 2.14722, 3.45157 2.67991, 2.96953  C3.51316, 2.22485 4.00543, 1.11743 4, 7.45337e-12 " /><path d="M4, 6.12901e-11 C4.00431, -1.05233 3.56983, -2.09723 2.82057, -2.83626  C2.34576, -3.30949 1.74978, -3.65972 1.10531, -3.84425  C0.618082, -3.9846 0.104025, -4.03091 -0.400444, -3.97991  C-1.28065, -3.89355 -2.1271, -3.5036 -2.76474, -2.89071  C-3.53988, -2.15568 -3.99622, -1.09894 -3.99988, -0.0308191  C-4.01164, 0.992491 -3.60946, 2.01245 -2.90253, 2.75233  C-2.28162, 3.41061 -1.43076, 3.84591 -0.533618, 3.96425  C0.572075, 4.11854 1.73417, 3.77921 2.58314, 3.05408  C3.16828, 2.5608 3.60592, 1.89553 3.82723, 1.1629  C3.94208, 0.783777 3.99967, 0.396142 4, 5.51306e-11 " /><path d="M4, 7.63078e-12 C4.00531, -1.11098 3.51893, -2.21225 2.6941, -2.95666  C2.17739, -3.42867 1.53441, -3.76064 0.850361, -3.90857  C0.419346, -4.00248 -0.0272528, -4.0243 -0.465369, -3.97284  C-1.42925, -3.86309 -2.34505, -3.38629 -2.98772, -2.65961  C-3.64153, -1.93005 -4.00963, -0.95326 -3.99991, 0.0263413  C-3.99719, 1.06612 -3.56657, 2.09618 -2.82833, 2.82853  C-2.20031, 3.45968 -1.35564, 3.8695 -0.47121, 3.97215  C-0.0461607, 4.0227 0.38698, 4.00431 0.806214, 3.91791  C1.49492, 3.7771 2.14427, 3.45013 2.66749, 2.98069  C3.5081, 2.23583 4.00553, 1.12304 4, 6.74438e-12 " /><path d="M4, 5.50302e-11 C4.00431, -1.05234 3.56982, -2.09723 2.82056, -2.83627  C2.34575, -3.30949 1.74977, -3.65973 1.1053, -3.84426  C0.618165, -3.98457 0.10421, -4.03089 -0.400166, -3.97993  C-1.28009, -3.89366 -2.12631, -3.50401 -2.76392, -2.8915  C-3.53204, -2.16338 -3.98773, -1.11949 -3.99953, -0.0612802  C-4.01981, 0.986295 -3.60527, 2.03315 -2.87329, 2.78284  C-2.26332, 3.41571 -1.43891, 3.83657 -0.568557, 3.95939  C0.547212, 4.12529 1.72477, 3.78719 2.5826, 3.05453  C3.167, 2.56205 3.60435, 1.89805 3.82607, 1.16669  C3.94169, 0.786384 3.99967, 0.397488 4, 4.89644e-11 " /><path d="M4, 6.7546e-12 C4.00531, -1.11098 3.51893, -2.21225 2.6941, -2.95666  C2.17738, -3.42867 1.5344, -3.76064 0.850359, -3.90857  C0.419343, -4.00248 -0.0272566, -4.0243 -0.465374, -3.97284  C-1.42926, -3.86309 -2.34506, -3.38629 -2.98773, -2.65959  C-3.64154, -1.93003 -4.00963, -0.953237 -3.99991, 0.0263682  C-3.99718, 1.06615 -3.56655, 2.09621 -2.8283, 2.82855  C-2.19987, 3.46012 -1.35451, 3.87003 -0.469452, 3.97236  C-0.0502128, 4.02148 0.366445, 4.00506 0.78052, 3.92311  C1.47841, 3.78521 2.13719, 3.45629 2.66678, 2.98132  C3.50781, 2.23645 4.00554, 1.12336 4, 5.90994e-12 " /><path d="M4, 4.90972e-11 C4.00431, -1.05234 3.56982, -2.09724 2.82055, -2.83628  C2.34574, -3.3095 1.74976, -3.65973 1.10529, -3.84426  C0.618274, -3.98454 0.104454, -4.03087 -0.3998, -3.97997  C-1.27934, -3.89382 -2.12524, -3.50455 -2.76281, -2.89256  C-3.52961, -2.16621 -3.98548, -1.12531 -3.9994, -0.0693021  C-4.02201, 0.985235 -3.60369, 2.03978 -2.86433, 2.79206  C-2.24774, 3.42778 -1.41405, 3.84739 -0.536129, 3.96391  C0.568301, 4.11872 1.72936, 3.78105 2.57853, 3.05797  C3.16981, 2.56109 3.61101, 1.88876 3.83155, 1.14858  C3.94354, 0.773908 3.99969, 0.391048 4, 4.34408e-11 " /><path d="M4, 5.9468e-12 C4.00531, -1.11098 3.51893, -2.21225 2.6941, -2.95666  C2.17738, -3.42867 1.5344, -3.76064 0.850359, -3.90857  C0.419344, -4.00248 -0.0272564, -4.0243 -0.465374, -3.97284  C-1.42926, -3.86309 -2.34506, -3.38629 -2.98773, -2.6596  C-3.64154, -1.93003 -4.00963, -0.953238 -3.99991, 0.0263662  C-3.99718, 1.06615 -3.56655, 2.09621 -2.8283, 2.82855  C-2.19991, 3.46008 -1.35459, 3.86999 -0.469582, 3.97234  C-0.0514954, 4.02134 0.364053, 4.00516 0.777062, 3.9238  C1.48083, 3.78541 2.14496, 3.45273 2.67721, 2.97196  C3.51206, 2.22723 4.00545, 1.11864 4, 5.0302e-12 " /><path d="M4, 4.35199e-11 C4.00431, -1.05235 3.56982, -2.09725 2.82054, -2.83629  C2.34573, -3.30951 1.74974, -3.65974 1.10528, -3.84426  C0.618433, -3.98449 0.104805, -4.03084 -0.399276, -3.98002  C-1.27823, -3.89404 -2.12363, -3.50537 -2.76112, -2.89417  C-3.5386, -2.1588 -3.99645, -1.10012 -3.99989, -0.0300708  C-4.01145, 0.993242 -3.60908, 2.01313 -2.90202, 2.75287  C-2.28311, 3.40875 -1.4359, 3.84322 -0.542112, 3.96309  C0.560151, 4.11927 1.71961, 3.78487 2.56944, 3.06561  C3.16282, 2.56996 3.60633, 1.89804 3.82884, 1.15759  C3.94262, 0.780114 3.99968, 0.394251 4, 3.83196e-11 " /><path d="M4, 5.1732e-12 C4.00531, -1.11098 3.51893, -2.21225 2.6941, -2.95666  C2.17738, -3.42867 1.5344, -3.76064 0.850359, -3.90857  C0.419343, -4.00248 -0.0272568, -4.0243 -0.465374, -3.97284  C-1.42926, -3.86309 -2.34506, -3.38629 -2.98773, -2.65959  C-3.64154, -1.93003 -4.00963, -0.953236 -3.99991, 0.0263693  C-3.99718, 1.06615 -3.56655, 2.09621 -2.8283, 2.82855  C-2.19986, 3.46013 -1.35447, 3.87005 -0.469388, 3.97236  C-0.0496176, 4.02154 0.36755, 4.00501 0.782116, 3.92279  C1.48475, 3.78368 2.14761, 3.45087 2.67888, 2.97045  C3.51274, 2.22576 4.00543, 1.11789 4, 4.4853e-12 " /><path d="M4, 3.82976e-11 C4.00431, -1.05235 3.56981, -2.09726 2.82053, -2.8363  C2.34571, -3.30952 1.74973, -3.65975 1.10526, -3.84427  C0.618641, -3.98443 0.105266, -4.0308 -0.398589, -3.98009  C-1.27665, -3.89434 -2.12129, -3.50655 -2.75864, -2.89653  C-3.52818, -2.16973 -3.98579, -1.12652 -3.99942, -0.0682063  C-4.02172, 0.985526 -3.60378, 2.03917 -2.86526, 2.79111  C-2.2494, 3.42648 -1.41676, 3.84621 -0.539702, 3.96342  C0.568592, 4.11985 1.73429, 3.78006 2.58498, 3.05252  C3.17152, 2.55747 3.60957, 1.8895 3.82984, 1.15425  C3.94296, 0.777814 3.99968, 0.393064 4, 3.33862e-11 " /><path d="M4, 4.4611e-12 C4.00531, -1.11098 3.51893, -2.21225 2.6941, -2.95666  C2.17738, -3.42868 1.5344, -3.76064 0.850358, -3.90857  C0.419341, -4.00248 -0.0272593, -4.0243 -0.465377, -3.97284  C-1.42926, -3.86309 -2.34507, -3.38628 -2.98774, -2.65959  C-3.64155, -1.93002 -4.00964, -0.95322 -3.99991, 0.026387  C-3.99718, 1.06617 -3.56654, 2.09623 -2.82828, 2.82857  C-2.19958, 3.46041 -1.35375, 3.87039 -0.468279, 3.97249  C-0.0456418, 4.02244 0.384944, 4.00424 0.801859, 3.9188  C1.49808, 3.77729 2.15426, 3.44548 2.68091, 2.96862  C3.51357, 2.22396 4.00542, 1.11697 4, 3.77143e-12 " /><path d="M4, 3.3431e-11 C4.00431, -1.05235 3.56981, -2.09726 2.82053, -2.8363  C2.34571, -3.30952 1.74973, -3.65975 1.10526, -3.84427  C0.618657, -3.98442 0.1053, -4.03079 -0.398538, -3.9801  C-1.27649, -3.89437 -2.12104, -3.50667 -2.75838, -2.89678  C-3.53782, -2.16098 -3.99683, -1.1005 -3.9999, -0.0287285  C-4.01112, 0.994588 -3.60841, 2.01434 -2.90109, 2.75385  C-2.28664, 3.40449 -1.4475, 3.83719 -0.5611, 3.96045  C0.546983, 4.12297 1.71519, 3.78897 2.56994, 3.0652  C3.16465, 2.56828 3.60872, 1.89427 3.83061, 1.15172  C3.94322, 0.776071 3.99968, 0.392165 4, 2.89453e-11 " /><path d="M4, 3.80296e-12 C4.00531, -1.11098 3.51893, -2.21225 2.6941, -2.95666  C2.17738, -3.42868 1.5344, -3.76064 0.850355, -3.90857  C0.419337, -4.00248 -0.0272655, -4.0243 -0.465385, -3.97283  C-1.42928, -3.86309 -2.34509, -3.38627 -2.98776, -2.65957  C-3.64156, -1.92999 -4.00965, -0.953182 -3.99991, 0.026431  C-3.99716, 1.06622 -3.56651, 2.09629 -2.82824, 2.82862  C-2.19893, 3.46105 -1.35208, 3.87118 -0.465697, 3.9728  C-0.0488561, 4.02125 0.365429, 4.0049 0.777159, 3.92378  C1.47736, 3.78606 2.13835, 3.45605 2.66921, 2.97915  C3.5088, 2.23431 4.00552, 1.12226 4, 3.14992e-12 " /><path d="M4, 2.88938e-11 C4.00431, -1.05236 3.56981, -2.09727 2.82052, -2.83631  C2.3457, -3.30953 1.74972, -3.65975 1.10525, -3.84427  C0.618787, -3.98439 0.105587, -4.03077 -0.39811, -3.98014  C-1.27512, -3.89459 -2.11885, -3.50774 -2.756, -2.89905  C-3.52947, -2.16994 -3.98848, -1.1214 -3.99957, -0.0586189  C-4.01869, 0.973013 -3.61668, 2.00401 -2.90437, 2.75039  C-2.28277, 3.4103 -1.43022, 3.84651 -0.531373, 3.96455  C0.570083, 4.11755 1.72731, 3.78098 2.57492, 3.06101  C3.16615, 2.56535 3.60785, 1.89446 3.82948, 1.15547  C3.94284, 0.778653 3.99968, 0.393497 4, 2.47113e-11 " /><path d="M4, 3.22142e-12 C4.00531, -1.11098 3.51893, -2.21225 2.6941, -2.95666  C2.17738, -3.42868 1.5344, -3.76064 0.850352, -3.90857  C0.419332, -4.00249 -0.0272719, -4.0243 -0.465393, -3.97283  C-1.42929, -3.86308 -2.34511, -3.38626 -2.98778, -2.65955  C-3.63696, -1.93502 -4.00464, -0.966775 -4, 0.00602897  C-4.00265, 1.05269 -3.57141, 2.09156 -2.82819, 2.82867  C-2.1983, 3.46167 -1.35046, 3.87194 -0.463211, 3.97309  C-0.0421909, 4.0223 0.386629, 4.00389 0.801886, 3.9188  C1.49812, 3.77728 2.15431, 3.44546 2.68096, 2.96858  C3.51359, 2.22392 4.00542, 1.11695 4, 2.65699e-12 " /><path d="M4, 2.46967e-11 C4.00431, -1.05236 3.56981, -2.09728 2.82052, -2.83631  C2.3457, -3.30953 1.74971, -3.65976 1.10524, -3.84427  C0.618843, -3.98437 0.105711, -4.03075 -0.397926, -3.98016  C-1.2745, -3.89469 -2.11784, -3.50823 -2.75491, -2.90008  C-3.5217, -2.17766 -3.98012, -1.14148 -3.99903, -0.0882462  C-4.02336, 0.875475 -3.68233, 1.84236 -3.05878, 2.57757  C-2.41189, 3.3509 -1.46213, 3.86107 -0.460224, 3.97344  C0.622869, 4.10387 1.7516, 3.76321 2.58172, 3.05527  C3.16455, 2.56439 3.60128, 1.90296 3.82378, 1.17417  C3.94092, 0.791542 3.99966, 0.400153 4, 2.09437e-11 " /><path d="M4, 2.6783e-12 C4.00531, -1.11098 3.51893, -2.21225 2.6941, -2.95666  C2.17738, -3.42868 1.5344, -3.76064 0.850354, -3.90857  C0.419336, -4.00248 -0.0272661, -4.0243 -0.465386, -3.97283  C-1.42928, -3.86309 -2.34509, -3.38627 -2.98776, -2.65956  C-3.64156, -1.92999 -4.00965, -0.953178 -3.99991, 0.0264352  C-3.99716, 1.06623 -3.56651, 2.09629 -2.82823, 2.82862  C-2.19887, 3.46111 -1.35192, 3.87125 -0.465461, 3.97283  C-0.0487157, 4.02124 0.365474, 4.00489 0.777107, 3.92379  C1.48283, 3.78501 2.14868, 3.45084 2.68168, 2.96793  C3.51388, 2.22328 4.00541, 1.11662 4, 2.15516e-12 " /><path d="M4, 2.09308e-11 C4.00431, -1.05236 3.56981, -2.09728 2.82052, -2.83631  C2.3457, -3.30953 1.74971, -3.65976 1.10524, -3.84427  C0.618847, -3.98437 0.105718, -4.03075 -0.397915, -3.98016  C-1.27447, -3.8947 -2.11778, -3.50826 -2.75484, -2.90015  C-3.5216, -2.17779 -3.98003, -1.14173 -3.99902, -0.088574  C-4.02343, 0.875093 -3.68252, 1.84196 -3.05909, 2.5772  C-2.43546, 3.32235 -1.53106, 3.82431 -0.56881, 3.95935  C0.548099, 4.12551 1.72693, 3.78657 2.58505, 3.05246  C3.17163, 2.55736 3.60968, 1.88932 3.82992, 1.154  C3.94299, 0.777643 3.99968, 0.392976 4, 1.73217e-11 " /><path d="M4, 2.17359e-12 C4.00531, -1.11098 3.51893, -2.21225 2.6941, -2.95666  C2.17738, -3.42868 1.5344, -3.76064 0.850356, -3.90857  C0.419338, -4.00248 -0.0272632, -4.0243 -0.465382, -3.97284  C-1.42927, -3.86309 -2.34508, -3.38628 -2.98775, -2.65957  C-3.64156, -1.93 -4.00965, -0.953197 -3.99991, 0.0264138  C-3.99717, 1.0662 -3.56652, 2.09627 -2.82825, 2.8286  C-2.19918, 3.4608 -1.35272, 3.87088 -0.466686, 3.97268  C-0.0398755, 4.02295 0.395012, 4.00371 0.815715, 3.91594  C1.50502, 3.77327 2.15441, 3.44401 2.67687, 2.97227  C3.51192, 2.22754 4.00545, 1.1188 4, 1.74216e-12 " /><path d="M4, 1.72933e-11 C4.00431, -1.05237 3.5698, -2.09729 2.8205, -2.83633  C2.34568, -3.30955 1.74969, -3.65977 1.10521, -3.84428  C0.619152, -3.98428 0.106392, -4.03069 -0.396909, -3.98026  C-1.27055, -3.89528 -2.1113, -3.5114 -2.74773, -2.90689  C-3.52422, -2.17912 -3.98635, -1.13025 -3.99945, -0.06621  C-4.02105, 0.982238 -3.60705, 2.03048 -2.87486, 2.78122  C-2.26198, 3.41788 -1.43215, 3.84024 -0.556724, 3.96107  C0.549521, 4.12204 1.71517, 3.78834 2.56867, 3.06626  C3.16217, 2.57076 3.60585, 1.89895 3.82854, 1.15856  C3.94252, 0.780784 3.99968, 0.394597 4, 1.41283e-11 " /><path d="M4, 1.70797e-12 C4.00531, -1.11098 3.51893, -2.21225 2.6941, -2.95666  C2.17738, -3.42868 1.5344, -3.76064 0.850355, -3.90857  C0.419337, -4.00248 -0.0272647, -4.0243 -0.465384, -3.97284  C-1.42927, -3.86309 -2.34508, -3.38627 -2.98776, -2.65957  C-3.64156, -1.93 -4.00965, -0.953188 -3.99991, 0.0264241  C-3.99717, 1.06621 -3.56651, 2.09628 -2.82824, 2.82861  C-2.19903, 3.46095 -1.35233, 3.87106 -0.466093, 3.97275  C-0.0468312, 4.02152 0.369793, 4.00475 0.783781, 3.92246  C1.4818, 3.78394 2.14052, 3.45428 2.66981, 2.97861  C3.50904, 2.23378 4.00551, 1.12199 4, 1.19349e-12 " /><path d="M4, 1.40896e-11 C4.00431, -1.05238 3.56979, -2.09731 2.82048, -2.83635  C2.34565, -3.30957 1.74966, -3.65978 1.10519, -3.84429  C0.619479, -3.98418 0.107115, -4.03063 -0.395831, -3.98037  C-1.26493, -3.89604 -2.10161, -3.51602 -2.73696, -2.91703  C-3.52097, -2.18776 -3.98766, -1.13215 -3.99953, -0.0615752  C-4.01991, 0.986778 -3.60479, 2.03443 -2.87188, 2.7843  C-2.26119, 3.41728 -1.43587, 3.83785 -0.564832, 3.95992  C0.543402, 4.12353 1.71226, 3.79039 2.56776, 3.06702  C3.16023, 2.57267 3.60354, 1.90268 3.82687, 1.16408  C3.94196, 0.784588 3.99967, 0.396561 4, 1.13194e-11 " /><path d="M4, 1.31362e-12 C4.00531, -1.11098 3.51893, -2.21225 2.6941, -2.95666  C2.17738, -3.42868 1.5344, -3.76064 0.85035, -3.90857  C0.419329, -4.00249 -0.0272762, -4.0243 -0.465398, -3.97283  C-1.4293, -3.86308 -2.34512, -3.38625 -2.98779, -2.65953  C-3.63697, -1.93501 -4.00464, -0.966757 -4, 0.00604718  C-4.00264, 1.05271 -3.57139, 2.0916 -2.82816, 2.8287  C-2.19792, 3.46204 -1.34949, 3.8724 -0.461709, 3.97326  C-0.038098, 4.02261 0.393382, 4.00351 0.810975, 3.91693  C1.50025, 3.77513 2.14986, 3.44681 2.67281, 2.97592  C3.51027, 2.23113 4.00549, 1.12064 4, 8.9706e-13 " /><path d="M4, 1.13292e-11 C4.00431, -1.05238 3.56979, -2.09732 2.82047, -2.83636  C2.34564, -3.30957 1.74965, -3.65979 1.10517, -3.84429  C0.619619, -3.98413 0.107424, -4.0306 -0.395369, -3.98041  C-1.26578, -3.89607 -2.10368, -3.51511 -2.73945, -2.91469  C-3.52017, -2.18717 -3.98559, -1.13583 -3.99941, -0.0688718  C-4.02183, 0.983454 -3.60526, 2.03579 -2.86864, 2.78764  C-2.2587, 3.41835 -1.43545, 3.83749 -0.566602, 3.95967  C0.547589, 4.12475 1.72318, 3.78738 2.5803, 3.05648  C3.16364, 2.56563 3.60081, 1.904 3.82356, 1.17489  C3.94084, 0.792044 3.99966, 0.400412 4, 8.87113e-12 " /><path d="M4, 9.7744e-13 C4.00531, -1.11098 3.51893, -2.21225 2.6941, -2.95666  C2.17738, -3.42868 1.53439, -3.76065 0.850347, -3.90857  C0.419325, -4.00249 -0.0272815, -4.0243 -0.465405, -3.97283  C-1.42931, -3.86308 -2.34513, -3.38624 -2.98781, -2.65951  C-3.63698, -1.93498 -4.00465, -0.966734 -4, 0.00607028  C-4.00264, 1.05275 -3.57137, 2.09164 -2.82812, 2.82874  C-2.19746, 3.4625 -1.34831, 3.87295 -0.459888, 3.97347  C-0.0428178, 4.02133 0.371597, 4.00435 0.783355, 3.92254  C1.48063, 3.78424 2.13873, 3.45523 2.66777, 2.98043  C3.50821, 2.23558 4.00553, 1.12291 4, 6.50147e-13 " /><path d="M4, 8.90577e-12 C4.00431, -1.05237 3.56979, -2.09731 2.82048, -2.83635  C2.34566, -3.30956 1.74967, -3.65978 1.10519, -3.84429  C0.619403, -3.9842 0.106947, -4.03064 -0.396082, -3.98034  C-1.26624, -3.89586 -2.10388, -3.51494 -2.73948, -2.91466  C-3.52939, -2.17877 -3.99605, -1.11128 -3.99987, -0.0318157  C-4.01188, 0.991492 -3.60996, 2.01155 -2.90322, 2.75161  C-2.28623, 3.40599 -1.44209, 3.84031 -0.55096, 3.96187  C0.556468, 4.12138 1.72267, 3.78524 2.57533, 3.06067  C3.16843, 2.56331 3.61097, 1.88957 3.83181, 1.14771  C3.94362, 0.773309 3.99969, 0.39074 4, 6.6116e-12 " /><path d="M4, 6.64135e-13 C4.00531, -1.11098 3.51893, -2.21225 2.6941, -2.95666  C2.17738, -3.42868 1.5344, -3.76064 0.850356, -3.90857  C0.419339, -4.00248 -0.0272627, -4.0243 -0.465381, -3.97284  C-1.42927, -3.86309 -2.34508, -3.38628 -2.98775, -2.65958  C-3.64155, -1.93001 -4.00964, -0.953201 -3.99991, 0.0264094  C-3.99717, 1.0662 -3.56652, 2.09626 -2.82826, 2.8286  C-2.19925, 3.46074 -1.35289, 3.8708 -0.466955, 3.97265  C-0.0407656, 4.02287 0.393482, 4.00379 0.813623, 3.91638  C1.50301, 3.77408 2.15257, 3.44516 2.67528, 2.9737  C3.51127, 2.22894 4.00547, 1.11952 4, 3.70148e-13 " /><path d="M4, 6.52456e-12 C4.00431, -1.05237 3.56979, -2.09731 2.82048, -2.83635  C2.34566, -3.30956 1.74966, -3.65978 1.10519, -3.84429  C0.619455, -3.98418 0.107061, -4.03063 -0.395912, -3.98036  C-1.26514, -3.896 -2.10193, -3.51586 -2.7373, -2.91671  C-3.52883, -2.18044 -3.99642, -1.11143 -3.99988, -0.0305225  C-4.01156, 0.992789 -3.60931, 2.01272 -2.90233, 2.75254  C-2.28237, 3.4097 -1.43324, 3.84462 -0.537687, 3.9637  C0.567253, 4.11903 1.72906, 3.78136 2.57864, 3.05788  C3.17013, 2.56078 3.61143, 1.88809 3.83185, 1.14756  C3.94364, 0.773206 3.99969, 0.390687 4, 4.30855e-12 " /><path d="M4, 4.40092e-13 C4.00531, -1.11098 3.51893, -2.21225 2.6941, -2.95666  C2.17738, -3.42868 1.53439, -3.76065 0.850345, -3.90857  C0.419322, -4.00249 -0.0272851, -4.0243 -0.465409, -3.97283  C-1.42932, -3.86308 -2.34514, -3.38624 -2.98782, -2.6595  C-3.63699, -1.93497 -4.00465, -0.966718 -4, 0.00608587  C-4.00263, 1.05277 -3.57136, 2.09167 -2.82809, 2.82876  C-2.19716, 3.46279 -1.34754, 3.87331 -0.458718, 3.97361  C-0.0434948, 4.02113 0.369121, 4.00439 0.779129, 3.92339  C1.47985, 3.7852 2.14119, 3.45442 2.67204, 2.97661  C3.50995, 2.23181 4.00549, 1.12098 4, 2.22045e-13 " /><path d="M4, 4.46931e-12 C4.00431, -1.05239 3.56977, -2.09735 2.82044, -2.83639  C2.34561, -3.3096 1.74961, -3.65981 1.10513, -3.84431  C0.6201, -3.98399 0.108486, -4.0305 -0.393785, -3.98057  C-1.27289, -3.8958 -2.11885, -3.50827 -2.75719, -2.89792  C-3.53076, -2.16812 -3.98939, -1.11871 -3.99962, -0.055378  C-4.0179, 0.976269 -3.61506, 2.00694 -2.90214, 2.75275  C-2.287, 3.40462 -1.4464, 3.83793 -0.558575, 3.96081  C0.552, 4.123 1.7226, 3.78637 2.5774, 3.05892  C3.16602, 2.56461 3.60613, 1.89652 3.82793, 1.16057  C3.94232, 0.782168 3.99967, 0.395311 4, 3.12061e-12 " /><path d="M4, 2.50688e-13 C4.00531, -1.11098 3.51893, -2.21225 2.6941, -2.95666  C2.17738, -3.42868 1.5344, -3.76064 0.850353, -3.90857  C0.419334, -4.00248 -0.027269, -4.0243 -0.465389, -3.97283  C-1.42928, -3.86308 -2.3451, -3.38627 -2.98777, -2.65956  C-3.63695, -1.93503 -4.00463, -0.966789 -4, 0.00601487  C-4.00265, 1.05267 -3.57142, 2.09154 -2.82821, 2.82864  C-2.19862, 3.46136 -1.35127, 3.87156 -0.464458, 3.97294  C-0.046574, 4.02191 0.379016, 4.00429 0.791418, 3.92093  C1.49061, 3.78076 2.14995, 3.44874 2.67887, 2.97046  C3.51274, 2.22576 4.00543, 1.1179 4, 9.92539e-14 " /><path d="M4, 3.13305e-12 C4.00431, -1.05238 3.56978, -2.09733 2.82046, -2.83637  C2.34564, -3.30958 1.74964, -3.65979 1.10517, -3.84429  C0.619709, -3.98411 0.107621, -4.03058 -0.395076, -3.98044  C-1.26768, -3.89596 -2.10761, -3.51333 -2.74402, -2.91038  C-3.5228, -2.18237 -3.98645, -1.1317 -3.99946, -0.0658204  C-4.02096, 0.982629 -3.60685, 2.03083 -2.87459, 2.7815  C-2.26264, 3.41705 -1.43449, 3.83901 -0.560629, 3.96052  C0.550625, 4.12341 1.72224, 3.78679 2.57758, 3.05877  C3.16671, 2.56398 3.60703, 1.89509 3.82861, 1.15835  C3.94254, 0.780638 3.99968, 0.394522 4, 1.81721e-12 " /><path d="M0.313949 3.98766 A4 4 0 0 1 -2.59784 3.04159" /><path d="M4, 1.40998e-13 C4.00531, -1.11098 3.51893, -2.21225 2.6941, -2.95666  C2.17738, -3.42868 1.53439, -3.76065 0.850343, -3.90857  C0.419318, -4.00249 -0.0272912, -4.0243 -0.465417, -3.97283  C-1.42933, -3.86307 -2.34516, -3.38623 -2.98783, -2.65948  C-3.637, -1.93495 -4.00466, -0.966692 -4, 0.00611223  C-3.99977, 0.146803 -3.99216, 0.287093 -3.97715, 0.426981  C-3.87295, 1.43212 -3.36857, 2.38815 -2.59784, 3.04159 " /><path d="M4, 1.81832e-12 C4.00431, -1.0524 3.56977, -2.09736 2.82042, -2.83641  C2.34559, -3.30961 1.74959, -3.65982 1.10511, -3.84431  C0.620358, -3.98391 0.109055, -4.03045 -0.392936, -3.98065  C-1.26705, -3.89651 -2.10853, -3.51317 -2.74566, -2.90884  C-3.52917, -2.17569 -3.99293, -1.11573 -3.99977, -0.0428324  C-4.01502, 0.997291 -3.60198, 2.03488 -2.87608, 2.77996  C-2.25666, 3.42408 -1.41521, 3.8489 -0.529146, 3.96485  C-0.248918, 4.00216 0.0321137, 4.00976 0.313949, 3.98766 " /><path d="M3.84943, 1.33227e-15 C3.87775, 0.957456 3.53087, 1.9194 2.90043, 2.64296  C2.2518, 3.398 1.30613, 3.88797 0.313949, 3.98766 " /><circle cx ="0" cy ="0" r ="3.2" /><path d="M3.84943, 1.11022e-16 C3.83312, -0.651605 3.64701, -1.29765 3.31329, -1.85639  C2.99249, -2.39623 2.53507, -2.8535 1.99519, -3.17232  C1.46872, -3.48474 0.864799, -3.66442 0.254085, -3.68914  C-0.342098, -3.71449 -0.943474, -3.59205 -1.4808, -3.33478  C-2.00578, -3.0847 -2.46865, -2.70664 -2.81687, -2.24216  C-3.15766, -1.78938 -3.38851, -1.2551 -3.48325, -0.697384  C-3.5755, -0.160252 -3.5413, 0.397662 -3.38331, 0.918246  C-3.22708, 1.43628 -2.94857, 1.91644 -2.5763, 2.30772 " /><path d="M2.30786, 2.57616 C2.34554, 2.53423 2.37915, 2.4925 2.39285, 2.46793  C2.40905, 2.43978 2.38739, 2.44883 2.34854, 2.47811  C2.26416, 2.54197 2.1428, 2.6417 2.01942, 2.72767  C1.80673, 2.87813 1.56759, 3.01486 1.31421, 3.12117 " /><path d="M1.31421, 3.12117 C0.594914, 3.42784 -0.246074, 3.485 -1.01203, 3.26022  C-1.60526, 3.08962 -2.15157, 2.75628 -2.5763, 2.30772 " /><path d="M-2.59784, 3.04159 C-1.80769, 3.60182 -0.807695, 3.85303 0.142282, 3.71669  C0.972326, 3.60299 1.75576, 3.19425 2.30786, 2.57616 " /></g>
<g   fill="none"
   stroke="rgb(165, 165, 165)"
   stroke-dasharray="1.2,0.8"
   stroke-linecap="butt"
   stroke-linejoin="miter"
   stroke-width="0.25"
   transform="scale(1, -1)"
  >
<path d="M-3.32805, 2.21903 C-2.83981, 2.88045 -2.12569, 3.37061 -1.33296, 3.58844  C-0.719158, 3.75951 -0.0613227, 3.76875 0.557039, 3.61498  C1.44863, 3.39758 2.24973, 2.83555 2.75753, 2.07114  C3.16594, 1.46316 3.38788, 0.732409 3.3866, 1.39915e-06 " /><path d="M3.3866, 1.39915e-06 C3.38802, -0.698243 3.16565, -1.39456 2.75982, -1.96276  C2.40846, -2.4582 1.92079, -2.85553 1.36457, -3.09953  C0.731348, -3.37979 0.011169, -3.45799 -0.667451, -3.32018  C-1.38866, -3.17695 -2.05837, -2.79008 -2.54275, -2.23688  C-3.07571, -1.63471 -3.38097, -0.83741 -3.38645, -0.0332918  C-3.39698, 0.780053 -3.10041, 1.59235 -2.56825, 2.20753  C-1.92188, 2.96814 -0.925116, 3.41285 0.0726716, 3.38582  C0.837654, 3.37142 1.59383, 3.08673 2.17834, 2.59304  C2.93718, 1.96257 3.39199, 0.986558 3.3866, 1.3292e-06 " /><path d="M3.3866, 1.3292e-06 C3.38802, -0.698243 3.16565, -1.39456 2.75982, -1.96276  C2.40846, -2.4582 1.92079, -2.85553 1.36457, -3.09952  C0.731348, -3.37979 0.0111707, -3.45799 -0.667448, -3.32018  C-1.38866, -3.17695 -2.05837, -2.79008 -2.54275, -2.23688  C-3.07579, -1.63462 -3.38106, -0.837155 -3.38646, -0.032905  C-3.39689, 0.780502 -3.10018, 1.59282 -2.56787, 2.20796  C-1.92054, 2.96949 -0.921895, 3.41414 0.0771832, 3.38572  C0.855149, 3.37014 1.62346, 3.07466 2.21137, 2.56493  C2.95082, 1.9341 3.3917, 0.971947 3.3866, 1.25924e-06 " /><path d="M3.3866, 1.25924e-06 C3.38802, -0.698243 3.16565, -1.39456 2.75982, -1.96276  C2.40846, -2.4582 1.92079, -2.85553 1.36457, -3.09952  C0.731348, -3.37979 0.0111693, -3.45799 -0.66745, -3.32018  C-1.38866, -3.17695 -2.05837, -2.79008 -2.54275, -2.23688  C-3.07574, -1.63468 -3.381, -0.837318 -3.38645, -0.0331532  C-3.39695, 0.780213 -3.10032, 1.59252 -2.56811, 2.20768  C-1.9214, 2.96862 -0.923954, 3.41331 0.0742987, 3.38578  C0.848423, 3.37091 1.61328, 3.07899 2.20044, 2.57431  C2.94631, 1.94356 3.39179, 0.976787 3.38659, 1.18928e-06 " /><path d="M3.38659, 1.18928e-06 C3.38802, -0.698242 3.16564, -1.39456 2.75982, -1.96276  C2.40846, -2.4582 1.92079, -2.85553 1.36457, -3.09952  C0.731347, -3.37979 0.0111686, -3.45798 -0.66745, -3.32018  C-1.38866, -3.17695 -2.05837, -2.79008 -2.54275, -2.23687  C-3.0757, -1.63472 -3.38095, -0.837431 -3.38645, -0.0333254  C-3.39698, 0.780013 -3.10042, 1.5923 -2.56828, 2.20749  C-1.922, 2.96801 -0.925402, 3.41273 0.0722683, 3.38582  C0.847432, 3.37141 1.61345, 3.07917 2.20124, 2.57362  C2.94664, 1.94287 3.39178, 0.976434 3.38659, 1.11933e-06 " /><path d="M3.38659, 1.11933e-06 C3.38801, -0.698242 3.16564, -1.39456 2.75982, -1.96276  C2.40846, -2.4582 1.92079, -2.85553 1.36457, -3.09952  C0.731355, -3.37978 0.0111841, -3.45798 -0.667429, -3.32018  C-1.38863, -3.17696 -2.05833, -2.7901 -2.54271, -2.23691  C-3.07639, -1.63396 -3.38174, -0.835342 -3.38648, -0.030151  C-3.39626, 0.783691 -3.09856, 1.59619 -2.56524, 2.21101  C-1.93184, 2.95381 -0.964081, 3.39521 0.0120686, 3.38657  C0.797543, 3.38601 1.57858, 3.09988 2.17851, 2.59289  C2.93724, 1.96242 3.39198, 0.98648 3.38659, 1.04937e-06 " /><path d="M3.38659, 1.04937e-06 C3.38801, -0.698242 3.16564, -1.39456 2.75982, -1.96276  C2.40846, -2.4582 1.92079, -2.85552 1.36457, -3.09952  C0.731356, -3.37978 0.0111867, -3.45798 -0.667426, -3.32018  C-1.38863, -3.17696 -2.05832, -2.7901 -2.54271, -2.23691  C-3.07648, -1.63386 -3.38184, -0.835065 -3.38648, -0.0297307  C-3.39616, 0.784175 -3.09831, 1.5967 -2.56484, 2.21147  C-1.93104, 2.95447 -0.962645, 3.39574 0.0139163, 3.38656  C0.802729, 3.3856 1.58686, 3.09653 2.18755, 2.58526  C2.94098, 1.95466 3.3919, 0.982495 3.38659, 9.79414e-07 " /><path d="M3.38659, 9.79414e-07 C3.38801, -0.698242 3.16564, -1.39456 2.75981, -1.96276  C2.40845, -2.4582 1.92079, -2.85552 1.36457, -3.09952  C0.731341, -3.37978 0.01116, -3.45798 -0.667461, -3.32017  C-1.38868, -3.17694 -2.05838, -2.79006 -2.54277, -2.23685  C-3.07527, -1.63517 -3.38048, -0.838683 -3.38642, -0.0352299  C-3.39741, 0.777793 -3.10154, 1.58995 -2.57011, 2.20534  C-1.92913, 2.96074 -0.942834, 3.40565 0.0476694, 3.38625  C0.806513, 3.37753 1.55873, 3.10299 2.14479, 2.62085  C2.92323, 1.99114 3.39229, 1.00124 3.38659, 9.09457e-07 " /><path d="M3.38659, 9.09457e-07 C3.38801, -0.698241 3.16564, -1.39456 2.75981, -1.96275  C2.40845, -2.4582 1.92079, -2.85552 1.36457, -3.09951  C0.731346, -3.37978 0.0111685, -3.45798 -0.667449, -3.32017  C-1.38866, -3.17694 -2.05836, -2.79007 -2.54275, -2.23687  C-3.0757, -1.6347 -3.38096, -0.837391 -3.38644, -0.033268  C-3.39696, 0.780078 -3.10038, 1.59237 -2.56822, 2.20755  C-1.92179, 2.96821 -0.924914, 3.41292 0.0729494, 3.3858  C0.864725, 3.37106 1.64668, 3.06598 2.23923, 2.54063  C2.96225, 1.90982 3.39144, 0.959509 3.38659, 8.395e-07 " /><path d="M3.38659, 8.395e-07 C3.38801, -0.698241 3.16564, -1.39456 2.75981, -1.96275  C2.40845, -2.45819 1.92078, -2.85552 1.36457, -3.09951  C0.731339, -3.37978 0.0111562, -3.45798 -0.667466, -3.32017  C-1.38868, -3.17693 -2.05839, -2.79005 -2.54277, -2.23684  C-3.07509, -1.63537 -3.38027, -0.839228 -3.38641, -0.0360589  C-3.39759, 0.776824 -3.10203, 1.58891 -2.57091, 2.2044  C-1.93256, 2.95717 -0.951422, 3.40211 0.035443, 3.3864  C0.800573, 3.38042 1.55987, 3.10402 2.1498, 2.61674  C2.92531, 1.98689 3.39224, 0.99905 3.38658, 7.69543e-07 " /><path d="M3.38658, 7.69543e-07 C3.38801, -0.698241 3.16563, -1.39456 2.75981, -1.96275  C2.40845, -2.45819 1.92078, -2.85552 1.36457, -3.09951  C0.731336, -3.37978 0.0111524, -3.45797 -0.66747, -3.32016  C-1.38869, -3.17693 -2.0584, -2.79004 -2.54278, -2.23682  C-3.07488, -1.63559 -3.38004, -0.839836 -3.3864, -0.0369829  C-3.3978, 0.775742 -3.10257, 1.58776 -2.57181, 2.20335  C-1.9367, 2.95281 -0.961962, 3.39771 0.0203455, 3.38652  C0.811656, 3.38408 1.59768, 3.09163 2.19814, 2.57626  C2.94536, 1.94553 3.3918, 0.977796 3.38658, 6.99586e-07 " /><path d="M3.38658, 6.99586e-07 C3.388, -0.69824 3.16563, -1.39456 2.75981, -1.96275  C2.40845, -2.45819 1.92078, -2.85552 1.36457, -3.09951  C0.731341, -3.37978 0.011163, -3.45797 -0.667456, -3.32017  C-1.38867, -3.17693 -2.05837, -2.79006 -2.54275, -2.23685  C-3.07543, -1.63499 -3.38065, -0.838196 -3.38643, -0.0344924  C-3.39724, 0.778652 -3.1011, 1.59086 -2.56939, 2.20617  C-1.92625, 2.96368 -0.935747, 3.40854 0.0577017, 3.38609  C0.566417, 3.37786 1.07311, 3.25255 1.52704, 3.02277  C1.98133, 2.79373 2.38285, 2.46023 2.69133, 2.05563  C3.13997, 1.47114 3.38834, 0.736822 3.38658, 6.29628e-07 " /><path d="M3.38658, 6.29628e-07 C3.388, -0.69824 3.16563, -1.39456 2.75981, -1.96275  C2.40845, -2.45819 1.92078, -2.85552 1.36457, -3.09951  C0.731346, -3.37977 0.0111729, -3.45797 -0.667442, -3.32017  C-1.38865, -3.17694 -2.05835, -2.79007 -2.54273, -2.23687  C-3.07592, -1.63445 -3.38121, -0.836713 -3.38645, -0.0322419  C-3.39672, 0.781267 -3.09977, 1.59363 -2.56723, 2.20869  C-1.91828, 2.97171 -0.916554, 3.41624 0.0846358, 3.38552  C0.842987, 3.36852 1.59182, 3.08605 2.17245, 2.59795  C2.93472, 1.96759 3.39203, 0.989137 3.38658, 5.5967e-07 " /><path d="M3.38658, 5.5967e-07 C3.388, -0.69824 3.16563, -1.39456 2.75981, -1.96275  C2.40845, -2.45819 1.92078, -2.85551 1.36457, -3.09951  C0.731348, -3.37977 0.011178, -3.45797 -0.667435, -3.32017  C-1.38864, -3.17694 -2.05834, -2.79008 -2.54272, -2.23689  C-3.07617, -1.63419 -3.38148, -0.835988 -3.38645, -0.0311401  C-3.39647, 0.782543 -3.09912, 1.59497 -2.56617, 2.20991  C-1.93395, 2.95193 -0.968192, 3.39361 0.00661754, 3.38657  C0.777907, 3.38715 1.54553, 3.11276 2.14168, 2.62338  C2.92193, 1.99376 3.39231, 1.00258 3.38658, 4.89712e-07 " /><path d="M3.38658, 4.89712e-07 C3.388, -0.69824 3.16563, -1.39456 2.7598, -1.96275  C2.40844, -2.45819 1.92078, -2.85552 1.36456, -3.09951  C0.731325, -3.37978 0.0111334, -3.45797 -0.667494, -3.32015  C-1.38872, -3.17691 -2.05844, -2.79001 -2.54282, -2.23677  C-3.07394, -1.6366 -3.37898, -0.842624 -3.38634, -0.0412222  C-3.39874, 0.770749 -3.1051, 1.58241 -2.576, 2.19845  C-1.95481, 2.93385 -1.0073, 3.37847 -0.0446874, 3.38628  C0.718823, 3.39837 1.48293, 3.14111 2.08366, 2.66969  C2.48794, 2.35472 2.81908, 1.94607 3.04347, 1.48533  C3.26863, 1.02496 3.38704, 0.5125 3.38658, 4.19753e-07 " /><path d="M3.38658, 4.19753e-07 C3.388, -0.69824 3.16563, -1.39456 2.7598, -1.96275  C2.40844, -2.45819 1.92078, -2.85551 1.36456, -3.09951  C0.731328, -3.37977 0.0111416, -3.45797 -0.667483, -3.32015  C-1.38871, -3.17691 -2.05842, -2.79002 -2.5428, -2.23679  C-3.07434, -1.63617 -3.37942, -0.841444 -3.38636, -0.0394293  C-3.39834, 0.772866 -3.10402, 1.58468 -2.57421, 2.20053  C-1.95018, 2.93818 -0.997581, 3.38243 -0.0313918, 3.38643  C0.728618, 3.39545 1.48821, 3.13771 2.08579, 2.66802  C2.48947, 2.353 2.82006, 1.94454 3.04407, 1.48411  C3.26884, 1.02406 3.38703, 0.512048 3.38657, 3.49795e-07 " /><path d="M3.38657, 3.49795e-07 C3.388, -0.698239 3.16562, -1.39455 2.7598, -1.96275  C2.40844, -2.45818 1.92078, -2.85551 1.36457, -3.0995  C0.731359, -3.37976 0.0112019, -3.45796 -0.667401, -3.32017  C-1.38859, -3.17695 -2.05828, -2.79011 -2.54266, -2.23694  C-3.07704, -1.63324 -3.38247, -0.833346 -3.38648, -0.0271223  C-3.39529, 0.774398 -3.10624, 1.57451 -2.58717, 2.18531  C-2.11232, 2.75016 -1.44747, 3.15121 -0.726348, 3.30776  C0.192403, 3.51412 1.19246, 3.31122 1.95812, 2.76309  C2.39785, 2.45214 2.76148, 2.03387 3.00834, 1.55524  C3.25613, 1.07709 3.38714, 0.538568 3.38657, 2.79836e-07 " /><path d="M3.38657, 2.79836e-07 C3.38799, -0.698239 3.16562, -1.39455 2.7598, -1.96275  C2.40844, -2.45819 1.92078, -2.85551 1.36456, -3.0995  C0.73133, -3.37977 0.0111445, -3.45796 -0.667479, -3.32015  C-1.3887, -3.17691 -2.05841, -2.79002 -2.54279, -2.2368  C-3.0745, -1.63599 -3.3796, -0.840957 -3.38637, -0.0386905  C-3.39817, 0.773735 -3.10358, 1.58561 -2.57348, 2.20138  C-1.94559, 2.94322 -0.985253, 3.38778 -0.0133696, 3.38654  C0.744253, 3.39149 1.50007, 3.13143 2.09427, 2.66137  C2.49552, 2.34618 2.82392, 1.93843 3.04642, 1.47927  C3.26967, 1.02047 3.38702, 0.510252 3.38657, 2.09878e-07 " /><path d="M3.38657, 2.09878e-07 C3.38799, -0.698238 3.16562, -1.39455 2.7598, -1.96274  C2.40844, -2.45818 1.92078, -2.85551 1.36456, -3.0995  C0.731351, -3.37976 0.011187, -3.45796 -0.667421, -3.32016  C-1.38862, -3.17694 -2.05831, -2.79008 -2.54269, -2.2369  C-3.0765, -1.63381 -3.38186, -0.834953 -3.38646, -0.0295688  C-3.3961, 0.784357 -3.0982, 1.59688 -2.56467, 2.21164  C-1.93072, 2.95471 -0.96209, 3.39593 0.0146219, 3.38654  C0.804653, 3.38542 1.58991, 3.09527 2.19086, 2.58243  C2.94234, 1.95179 3.39185, 0.981017 3.38657, 1.39918e-07 " /><path d="M3.38657, 1.39919e-07 C3.38785, -0.679171 3.17776, -1.35667 2.79247, -1.91598  C2.42951, -2.44677 1.91158, -2.86969 1.31894, -3.11918  C0.695386, -3.38421 -0.00854794, -3.4549 -0.672349, -3.31917  C-1.40723, -3.17219 -2.08801, -2.77188 -2.57371, -2.20114  C-3.09337, -1.59712 -3.38705, -0.804716 -3.38658, -0.00792637  C-3.39064, 0.779078 -3.108, 1.56329 -2.60276, 2.16671  C-2.12485, 2.74367 -1.44974, 3.15293 -0.717157, 3.30977  C-0.0419991, 3.45744 0.677778, 3.39063 1.31421, 3.12117 " /></g>
<g   fill="none"
   stroke="rgb(0, 0, 0)"
   stroke-linecap="butt"
   stroke-linejoin="miter"
   stroke-width="0.35"
   transform="scale(1, -1)"
  >
<path d="M6.5 0 A6.5 6.5 0 0 1 5.62917 3.25" /><path d="M5.62917 -3.25 A6.5 6.5 0 0 1 6.5 -1.59204e-15" /><path d="M-6.96719e-15 -6.5 A6.5 6.5 0 0 1 5.62917 -3.25" /><path d="M-5.62917 -3.25 A6.5 6.5 0 0 1 -6.96719e-15 -6.5" /><path d="M-5.62917 3.25 A6.5 6.5 0 0 1 -5.62917 -3.25" /><path d="M1.8413e-15 6.5 A6.5 6.5 0 0 1 -5.62917 3.25" /><path d="M5.62917 3.25 A6.5 6.5 0 0 1 1.8413e-15 6.5" /><path d="M5.62917, 3.25 C6.22436, 2.21909 6.81919, 1.18881 7.50555, 5.93303e-13 " /><path d="M1.33227e-15, 6.5 C1.19039, 6.5 2.38006, 6.5 3.75278, 6.5 " /><path d="M3.75278, 6.5 C4.43914, 5.31119 5.03397, 4.28091 5.62917, 3.25 " /><path d="M-5.62917, 3.25 C-5.03397, 4.28091 -4.43914, 5.31119 -3.75278, 6.5 " /><path d="M-3.75278, 6.5 C-2.38006, 6.5 -1.19039, 6.5 1.55431e-15, 6.5 " /><path d="M-5.62917, -3.25 C-6.22436, -2.21909 -6.81919, -1.18881 -7.50555, -3.43503e-13 " /><path d="M-7.50555, 8.43325e-13 C-6.81919, 1.18881 -6.22436, 2.21909 -5.62917, 3.25 " /><path d="M-3.75278, -6.5 C-4.43914, -5.31119 -5.03397, -4.28091 -5.62917, -3.25 " /><path d="M-6.66134e-15, -6.5 C-1.19039, -6.5 -2.38006, -6.5 -3.75278, -6.5 " /><path d="M3.75278, -6.5 C2.38006, -6.5 1.19039, -6.5 -6.66134e-15, -6.5 " /><path d="M5.62917, -3.25 C5.03397, -4.28091 4.43914, -5.31119 3.75278, -6.5 " /><path d="M7.50555, -5.93303e-13 C6.81919, -1.18881 6.22436, -2.21909 5.62917, -3.25 " /></g>

</svg>
