<svg xmlns="http://www.w3.org/2000/svg" viewBox="-4.7472487999999995 -6.3023088000000005 21.981837600000002 18.0177976">
<rect width="100%" height="100%" fill="white"/>
<g   fill="none"
   stroke="rgb(0, 0, 0)"
   stroke-linecap="butt"
   stroke-linejoin="miter"
   stroke-width="0.35"
   transform="scale(1, -1)"
  >
<path d="M1.82762, 4.78632 C1.13308, 4.83929 0.429359, 4.76028 -0.234128, 4.55638  C-1.23123, 4.25242 -2.13068, 3.66316 -2.80278, 2.89557  C-3.66652, 1.91549 -4.17416, 0.639446 -4.20386, -0.691809  C-4.23327, -1.84491 -3.89066, -3.01553 -3.23126, -3.97592 " /><path id= "2" d=" M 0.675361 -3.82515 L 11.3818 -10.0065 " />
<path id= "3" d=" M 3.65036 1.3277 L 14.3568 -4.85369 " />
<path id= "4" d=" M 15.5344 -6.50741 L 14.7273 -5.21822 " />
<path id= "5" d=" M 13.4028 -10.1995 L 12.6206 -10.1715 " />
</g>
<g   fill="none"
   stroke="rgb(0, 0, 0)"
   stroke-linecap="butt"
   stroke-linejoin="miter"
   stroke-width="0.35"
   transform="scale(1, -1)"
  >
<path d="M3.71231 2.1433 A5.25 3.03109 60 0 1 1.82762 4.78632" />
<path d="M-3.23126 -3.97592 A5.25 3.03109 60 0 1 3.71231 2.1433" />
<path id= "3" d=" M 3.51644 0.656223 L 14.9597 -5.95054 " />
<path d="M14.9597 -5.95054 A2.975 1.71762 60 0 1 14.7273 -5.21822" />
<path d="M14.7273 -5.21822 A2.975 1.71762 60 0 1 14.3568 -4.85369" />
<path d="M11.3818 -10.0065 A2.975 1.71762 60 0 1 11.6196 -10.1056" />
<path id= "7" d=" M 0.703193 -3.80301 L 11.6196 -10.1056 " />
<path id= "8" d=" M 0.84569 -3.68564 L 12.0287 -10.1422 " />
<path d="M12.0287 -10.1422 A2.975 1.71762 60 0 1 14.9597 -6.49598" />
<path id= "10" d=" M 3.38292 0.187868 L 14.9597 -6.49598 " />
<path d="M14.9597, -5.95054 Q15.2519, -6.48043 15.4688, -6.9067 " /><path d="M15.7186 -7.25481 A2.22942 1.28715 60 0 1 15.5344 -6.50741" />
<path d="M13.4028 -10.1995 A2.22942 1.28715 60 0 1 15.7186 -7.25481" />
<path d="M15.4688, -6.9067 Q15.2519, -6.7284 14.9597, -6.49598 " /><path d="M12.0287, -10.1422 Q12.3508, -10.1618 12.6206, -10.1715 " /><path d="M12.0111, -10.132 Q11.822, -10.1199 11.6196, -10.1056 " /></g>

</svg>
