<svg xmlns="http://www.w3.org/2000/svg" viewBox="-5.4881512 -7.1380112 27.3761624 14.2760224">
<rect width="100%" height="100%" fill="white"/>
<g   fill="none"
   stroke="rgb(0, 0, 0)"
   stroke-linecap="butt"
   stroke-linejoin="miter"
   stroke-width="0.35"
   transform="scale(1, -1)"
  >
<path d="M1.95399e-14, -5.25 C-0.924651, -4.90192 -1.75341, -4.30058 -2.37134, -3.52978  C-2.99135, -2.76063 -3.40053, -1.82201 -3.54177, -0.84416  C-3.58066, -0.577476 -3.60012, -0.309381 -3.60014, -0.0398761 " /><path d="M-3.60014, 0.0398771 C-3.60014, 0.0414426 -3.60014, 0.000697254 -3.60014, -0.023665  C-3.60014, -0.0341536 -3.60014, -0.0395572 -3.60014, -0.0398761 " /><path d="M-3.60014, 0.0398771 C-3.60014, 0.0414669 -3.60014, 0.000186388 -3.60014, -0.0240829  C-3.60014, -0.03431 -3.60014, -0.0395744 -3.60014, -0.0398761 " /><path id= "4" d=" M 0 -2.975 L 18.2 -2.975 " />
<path id= "5" d=" M 1.4434 2.95619 L 1.41654 2.975 " />
<path id= "6" d=" M 20 -2.22942 L 18.2 -2.975 " />
</g>
<g   fill="none"
   stroke="rgb(0, 0, 0)"
   stroke-linecap="butt"
   stroke-linejoin="miter"
   stroke-width="0.35"
   transform="scale(1, -1)"
  >
<path d="M-3.6 -1.19141e-14 A5.57011 5.57011 0 0 0 1.82077e-14 5.25" /><path d="M-1.11022e-16, -5.25 L-1.11022e-16, -5.11837  L-1.11022e-16, -4.73009  L-1.11022e-16, -4.10462  L-1.11022e-16, -3.27332  L-1.11022e-16, -2.27789  L-1.11022e-16, -1.16823  L-1.11022e-16, -8.88178e-16  L-1.11022e-16, 1.16823  L-1.11022e-16, 2.27789  L-1.11022e-16, 3.27332  L-1.11022e-16, 4.10462  L-1.11022e-16, 4.73009  L-1.11022e-16, 5.11837  L-1.11022e-16, 5.25 " /><path d="M18.2, -2.975 L18.2, -2.96837  L18.2, -2.94852  L18.2, -2.91553  L18.2, -2.86954  L18.2, -2.81078  L18.2, -2.73948  L18.2, -2.65599  L18.2, -2.56065  L18.2, -2.45391  L18.2, -2.33624  L18.2, -2.20815  L18.2, -2.07023  L18.2, -1.92308  L18.2, -1.76736 " /><path id= "4" d=" M 1.41654 -1.76736 L 18.2 -1.76736 " />
<path d="M1.41654, -1.4875 Q1.41654, -1.63256 1.41654, -1.76736 " /><path d="M1.41654, -1.18883 Q1.41654, -1.34239 1.41654, -1.4875 " /><path id= "7" d=" M 1.41654 -1.18883 L 18.2 -1.18883 " />
<path d="M18.2, -1.18883 Q18.2, -1.00201 18.2, -0.815182  Q18.2, -0.429154 18.2, -0.0312598  Q18.2, 0.366881 18.2, 0.754879  Q18.2, 0.943069 18.2, 1.13126  Q18.2, 1.30938 18.2, 1.4875  Q18.2, 1.65238 18.2, 1.81726  Q18.2, 1.96596 18.2, 2.11467  Q18.2, 2.24455 18.2, 2.37443  Q18.2, 2.48317 18.2, 2.59191  Q18.2, 2.67759 18.2, 2.76326  Q18.2, 2.82433 18.2, 2.88541  Q18.2, 2.9208 18.2, 2.95619 " /><path id= "9" d=" M 1.41654 2.95619 L 18.2 2.95619 " />
<path d="M1.41654, 2.975 Q1.41654, 2.97495 1.41654, 2.95619 " /><path id= "11" d=" M 0 2.975 L 1.41654 2.975 " />
<path id= "12" d=" M 19.397 2.47917 L 20 2.22942 " />
<path d="M20, -2.22942 L20, -2.17352  L20, -2.00863  L20, -1.74303  L20, -1.39002  L20, -0.967307  L20, -0.496092  L20, -3.88578e-16  L20, 0.496092  L20, 0.967307  L20, 1.39002  L20, 1.74303  L20, 2.00863  L20, 2.17352  L20, 2.22942 " /><path d="M19.397, 2.47917 Q18.8735, 2.69603 18.2, 2.95619 " /><path d="M18.2, -1.18883 Q18.8735, -1.21651 19.397, -1.23958 " /><path d="M19.397, -1.23958 Q18.8735, -1.47952 18.2, -1.76736 " /><path id= "17" d=" M 2.12466 -1.23958 L 19.397 -1.23958 " />
<path d="M2.12466, -1.23958 Q1.81494, -1.47952 1.41654, -1.76736 " /><path d="M1.41654, -1.18883 Q1.81494, -1.21651 2.12466, -1.23958 " /></g>

</svg>
