<svg xmlns="http://www.w3.org/2000/svg" viewBox="-12.1267544 -11.306964400000002 19.5554888 18.768078799999998">
<rect width="100%" height="100%" fill="white"/>
<g   fill="none"
   stroke="rgb(0, 0, 0)"
   stroke-linecap="butt"
   stroke-linejoin="miter"
   stroke-width="0.35"
   transform="scale(1, -1)"
  >
<path d="M6.08008, 3.65382 C6.08507, 1.7737 5.43514, -0.429299 4.31353, -2.3902  C3.72721, -3.42026 3.0167, -4.38106 2.23712, -5.19738  C1.45772, -6.0145 0.609253, -6.68715 -0.248195, -7.16257  C-1.20308, -7.69284 -2.17133, -7.97982 -3.07394, -7.97751  C-3.73537, -7.9768 -4.36138, -7.81782 -4.90146, -7.50471  C-5.25918, -7.29711 -5.57345, -7.02973 -5.84425, -6.70257  C-6.23643, -6.22909 -6.52508, -5.64247 -6.70428, -4.97766  C-6.75196, -4.8008 -6.79203, -4.61866 -6.82449, -4.43123 " /><path d="M0.425284, 8.12582 C0.774068, 8.25406 1.11903, 8.34659 1.46018, 8.40341  C1.96356, 8.4873 2.44713, 8.4887 2.91088, 8.40762  C3.32837, 8.33357 3.7155, 8.19214 4.07229, 7.98333  C4.72225, 7.60352 5.2345, 7.00461 5.57292, 6.26055  C5.91294, 5.51608 6.07912, 4.62645 6.08008, 3.65382 " /><path id= "3" d=" M -10.7781 1.16957 L -10.7113 -0.0925182 " />
<path id= "4" d=" M -6.40193 8.74931 L -5.87843 9.01572 " />
</g>
<g   fill="none"
   stroke="rgb(0, 0, 0)"
   stroke-linecap="butt"
   stroke-linejoin="miter"
   stroke-width="0.35"
   transform="scale(1, -1)"
  >
<path d="M4.04832, 3.79096 L3.73305, 3.32828  L3.44289, 2.87292  L3.17605, 2.42207  L2.93089, 1.97296  L2.7059, 1.52282  L2.4997, 1.06887  L2.311, 0.608324  L2.13865, 0.138336  L1.98159, -0.343987  L1.83885, -0.841617  L1.70955, -1.35762  L1.59289, -1.89517  L1.48816, -2.45759  L1.39471, -3.04833 " /><path d="M1.39471, -3.04833 L0.875076, -3.22028  L0.387469, -3.39474  L-0.0711155, -3.5728  L-0.503504, -3.75555  L-0.91236, -3.94411  L-1.3002, -4.13966  L-1.66942, -4.34339  L-2.02229, -4.55656  L-2.36099, -4.78048  L-2.68759, -5.01653  L-3.00412, -5.26617  L-3.31253, -5.53093  L-3.61471, -5.81245  L-3.91252, -6.11246 " /><path d="M1.39471, 7.56612 L1.48816, 7.33942  L1.59289, 7.11205  L1.70955, 6.88262  L1.83885, 6.6497  L1.98159, 6.41187  L2.13865, 6.16765  L2.311, 5.91555  L2.4997, 5.65401  L2.7059, 5.38142  L2.93089, 5.0961  L3.17605, 4.7963  L3.44289, 4.48015  L3.73305, 4.14573  L4.04832, 3.79096 " /><path id= "4" d=" M 1.39471 7.56612 L -2.74868 9.95831 " />
<path id= "5" d=" M 4.04832 3.79096 L -0.095068 6.18315 " />
<path d="M-2.74868, 9.95831 L-2.74888, 9.78568  L-2.72244, 9.60351  L-2.66919, 9.41068  L-2.58881, 9.20601  L-2.48079, 8.98822  L-2.34448, 8.75599  L-2.17904, 8.50788  L-1.98344, 8.24235  L-1.75648, 7.95778  L-1.49676, 7.65241  L-1.20269, 7.32436  L-0.872441, 6.97161  L-0.503992, 6.59199  L-0.095068, 6.18315 " /><path d="M-5.87843, 9.01572 Q-5.70574, 9.10218 -5.52281, 9.18369  Q-5.42888, 9.22335 -5.33494, 9.26302  Q-5.1421, 9.34018 -4.93795, 9.41284  Q-4.83314, 9.44819 -4.72833, 9.48353  Q-4.61965, 9.51752 -4.51096, 9.55151  Q-4.39827, 9.58419 -4.28558, 9.61687  Q-4.16874, 9.64829 -4.0519, 9.6797  Q-3.93077, 9.70988 -3.80964, 9.74006  Q-3.68407, 9.76904 -3.5585, 9.79803  Q-3.42833, 9.82586 -3.29817, 9.85368  Q-3.16326, 9.88039 -3.02834, 9.90709  Q-2.88851, 9.9327 -2.74868, 9.95831 " /><path id= "8" d=" M -3.91252 -6.11246 L -8.05591 -3.72028 " />
<path d="M-8.05591, -3.72028 L-8.44099, -3.3356  L-8.79026, -2.9768  L-9.10564, -2.64193  L-9.38883, -2.32917  L-9.64137, -2.03682  L-9.86462, -1.7633  L-10.0598, -1.50711  L-10.228, -1.26688  L-10.3701, -1.04128  L-10.4868, -0.829107  L-10.5789, -0.629198  L-10.6468, -0.440471  L-10.6908, -0.261901  L-10.7113, -0.092518 " /><path id= "10" d=" M 1.39471 -3.04833 L -2.74868 -0.656146 " />
<path d="M-2.74868, -0.656146 L-3.36197, -0.774019  L-3.92786, -0.903281  L-4.44986, -1.04473  L-4.93116, -1.19924  L-5.37474, -1.36775  L-5.78334, -1.55132  L-6.15946, -1.75106  L-6.50542, -1.96822  L-6.82337, -2.20412  L-7.11525, -2.46022  L-7.38286, -2.7381  L-7.62786, -3.03947  L-7.85175, -3.36619  L-8.05591, -3.72028 " /><path d="M-0.095068, 6.18315 L-0.503992, 5.77454  L-0.872441, 5.36438  L-1.20269, 4.95014  L-1.49676, 4.52927  L-1.75648, 4.09918  L-1.98344, 3.65721  L-2.17904, 3.20065  L-2.34448, 2.72667  L-2.48079, 2.23237  L-2.58881, 1.71469  L-2.66919, 1.17045  L-2.72244, 0.596287  L-2.74888, -0.0113303  L-2.74868, -0.656146 " /><path d="M-2.50827 6.22692 A5.85278 3.3791 60 0 1 -6.40193 8.74931" />
<path d="M-6.40193 8.74931 A5.85278 3.3791 60 0 1 -10.7781 1.16957" />
<path d="M-10.7781 1.16957 A5.85278 3.3791 60 0 1 -2.50827 6.22692" />
<g transform = "rotate(60, -6.6468, 3.83753)">
<ellipse cx ="-6.6468" cy ="3.83753" rx ="4.2"  ry ="2.42487"/>
</g>
<path d="M-3.93284, 5.29629 C-3.87949, 4.75268 -3.98567, 4.08971 -4.23118, 3.41966 " /><path d="M-3.93284, 5.29629 C-3.97386, 5.72618 -4.11371, 6.08051 -4.33727, 6.31336 " /><path d="M-4.33727 6.31336 A3.45873 1.9969 60 0 1 -4.77699 6.7518" />
<path d="M-4.77699 6.7518 A3.45873 1.9969 60 0 1 -7.63569 5.60936" />
<path d="M-6.01077, 0.968868 C-6.70412, 0.419039 -7.44015, 0.169685 -8.01455, 0.294297  C-8.54544, 0.403009 -8.93336, 0.826948 -9.07605, 1.46492  C-9.21284, 2.057 -9.13443, 2.82991 -8.85305, 3.60526  C-8.59275, 4.33027 -8.15683, 5.0513 -7.63569, 5.60936 " /><path d="M-4.23118, 3.41966 Q-4.2402, 3.39495 -4.25259, 3.36355 " /><path d="M-4.25259, 3.36355 C-4.31171, 3.21336 -4.40918, 3.00141 -4.51966, 2.79712  C-4.69021, 2.47989 -4.89986, 2.15753 -5.12926, 1.86608  C-5.40649, 1.51201 -5.72, 1.19723 -6.01077, 0.968868 " /><path d="M-4.48223, 6.51014 C-5.05527, 6.64326 -5.78175, 6.41593 -6.45476, 5.9009  C-6.99593, 5.49091 -7.49836, 4.90281 -7.86745, 4.25574  C-8.28894, 3.52237 -8.53334, 2.71915 -8.5463, 2.05147  C-8.56421, 1.35388 -8.33069, 0.812104 -7.91653, 0.576809 " /><path d="M-7.91653, 0.576809 C-7.59689, 0.390837 -7.17286, 0.387538 -6.71941, 0.569612  C-6.29846, 0.736929 -5.85396, 1.06293 -5.45379, 1.50177  C-5.04643, 1.94679 -4.68651, 2.50701 -4.43142, 3.09986  C-4.13442, 3.7858 -3.98103, 4.51221 -4.00663, 5.13728 " /><path d="M-4.70941, 6.7096 C-4.97525, 6.84126 -5.29007, 6.88305 -5.62837, 6.8322  C-6.2821, 6.73798 -7.02183, 6.28335 -7.63569, 5.60936 " /><path d="M-4.00663, 5.13728 C-4.02427, 5.60002 -4.13804, 6.0068 -4.33727, 6.31336 " /><path d="M-4.19359, 3.75915 C-4.82821, 3.10047 -5.33352, 2.21721 -5.56473, 1.38427 " /><path d="M-4.36778, 3.25334 C-4.72304, 2.80401 -5.01884, 2.28988 -5.22174, 1.77423 " /><path d="M-4.41535, 6.42844 C-4.96882, 6.51245 -5.64596, 6.28138 -6.276, 5.80035  C-6.79759, 5.40554 -7.28358, 4.84548 -7.64862, 4.22603  C-8.09105, 3.48076 -8.35142, 2.65516 -8.36902, 1.96937  C-8.38972, 1.31293 -8.19052, 0.790218 -7.82556, 0.530261 " /><path d="M-4.23631, 6.13464 C-4.71212, 6.10352 -5.24522, 5.8757 -5.74768, 5.49263  C-6.28888, 5.08261 -6.79135, 4.49445 -7.16045, 3.84732  C-7.58192, 3.11391 -7.82629, 2.31067 -7.8392, 1.64299  C-7.85086, 1.14791 -7.73854, 0.728246 -7.52108, 0.44526 " /><path d="M-4.00546, 4.90149 C-4.66724, 4.49732 -5.30395, 3.80814 -5.74644, 3.03047  C-6.19295, 2.25397 -6.43942, 1.39965 -6.42534, 0.710144 " /><path d="M-4.01846, 4.67486 C-4.59063, 4.27708 -5.13049, 3.67503 -5.52699, 3.00181  C-5.95353, 2.28315 -6.21157, 1.48962 -6.24468, 0.818937 " /><path d="M-4.18472, 6.01989 C-4.62698, 5.96123 -5.11065, 5.7408 -5.56886, 5.39214  C-6.09041, 4.99735 -6.57638, 4.43735 -6.94142, 3.81795  C-7.38382, 3.07278 -7.64421, 2.2473 -7.6619, 1.56153  C-7.67542, 1.1094 -7.58676, 0.718344 -7.40862, 0.435933 " /><path d="M-4.06344, 5.61758 C-4.38636, 5.51078 -4.71977, 5.32845 -5.04059, 5.08437  C-5.58184, 4.67431 -6.08434, 4.08609 -6.45344, 3.43889  C-6.75145, 2.91887 -6.96315, 2.36331 -7.06345, 1.84632  C-7.16535, 1.32608 -7.15433, 0.846206 -7.03437, 0.471773 " /><path d="M-4.03596, 5.46105 C-4.84117, 5.14665 -5.68088, 4.3549 -6.23421, 3.40987  C-6.67658, 2.66481 -6.937, 1.83944 -6.95478, 1.15371  C-6.96145, 0.918869 -6.94176, 0.703575 -6.89571, 0.507829 " /></g>

</svg>
