<svg xmlns="http://www.w3.org/2000/svg" viewBox="-10.784 -10.034 12.168000000000001 20.068">
<rect width="100%" height="100%" fill="white"/>
<g   fill="none"
   stroke="rgb(0, 0, 0)"
   stroke-linecap="butt"
   stroke-linejoin="miter"
   stroke-width="0.35"
   transform="scale(1, -1)"
  >
<path d="M-1.11962, -8.65 C-0.987434, -8.88863 -0.681119, -9.00852 -0.422075, -8.92301  C-0.176188, -8.85074 0.00389894, -8.60626 0, -8.35 " /><path id= "2" d=" M -1.78036 -7.50555 L -1.11962 -8.65 " />
<path id= "3" d=" M -9.4 -5.85278 L -7.64 -7.50555 " />
</g>
<g   fill="none"
   stroke="rgb(0, 0, 0)"
   stroke-linecap="butt"
   stroke-linejoin="miter"
   stroke-width="0.35"
   transform="scale(1, -1)"
  >
<path d="M-5.55112e-17, -8.35 L-5.55112e-17, -8.14065  L-5.55112e-17, -7.52309  L-5.55112e-17, -6.52829  L-5.55112e-17, -5.20614  L-5.55112e-17, -3.62293  L-5.55112e-17, -1.85805  L-5.55112e-17, -1.55431e-15  L-5.55112e-17, 1.85805  L-5.55112e-17, 3.62293  L-5.55112e-17, 5.20614  L-5.55112e-17, 6.52829  L-5.55112e-17, 7.52309  L-5.55112e-17, 8.14065  L-5.55112e-17, 8.35 " /><path d="M0 8.35 A0.6 0.6 0 0 1 -1.11962 8.65" /><path id= "3" d=" M -1.11962 8.65 L -1.78036 7.50555 " />
<path d="M-1.78036, 7.50555 L-1.93721, 7.21654  L-2.06833, 6.93731  L-2.17452, 6.66614  L-2.25645, 6.40136  L-2.3146, 6.14133  L-2.34936, 5.88446  L-2.36092, 5.62917  L-2.34936, 5.37387  L-2.3146, 5.117  L-2.25645, 4.85697  L-2.17452, 4.59219  L-2.06833, 4.32102  L-1.93721, 4.04179  L-1.78036, 3.75278 " /><path d="M-1.78036, 3.75278 L-1.93721, 3.17475  L-2.06833, 2.61629  L-2.17452, 2.07395  L-2.25645, 1.54438  L-2.3146, 1.02433  L-2.34936, 0.510594  L-2.36092, -1.11022e-16  L-2.34936, -0.510594  L-2.3146, -1.02433  L-2.25645, -1.54438  L-2.17452, -2.07395  L-2.06833, -2.61629  L-1.93721, -3.17475  L-1.78036, -3.75278 " /><path d="M-1.78036, -3.75278 L-1.93721, -4.04179  L-2.06833, -4.32102  L-2.17452, -4.59219  L-2.25645, -4.85697  L-2.3146, -5.117  L-2.34936, -5.37387  L-2.36092, -5.62917  L-2.34936, -5.88446  L-2.3146, -6.14133  L-2.25645, -6.40136  L-2.17452, -6.66614  L-2.06833, -6.93731  L-1.93721, -7.21654  L-1.78036, -7.50555 " /><path id= "7" d=" M -1.78036 7.50555 L -7.64 7.50555 " />
<path id= "8" d=" M -1.78036 -7.50555 L -7.64 -7.50555 " />
<path id= "9" d=" M -1.78036 -3.75278 L -7.64 -3.75278 " />
<path d="M-7.64, -3.75278 L-7.92929, -4.04179  L-8.17113, -4.32102  L-8.367, -4.59219  L-8.5181, -4.85697  L-8.62537, -5.117  L-8.68947, -5.37387  L-8.71079, -5.62917  L-8.68947, -5.88446  L-8.62537, -6.14133  L-8.5181, -6.40136  L-8.367, -6.66614  L-8.17113, -6.93731  L-7.92929, -7.21654  L-7.64, -7.50555 " /><path id= "11" d=" M -1.78036 3.75278 L -7.64 3.75278 " />
<path d="M-7.64, 3.75278 L-7.92929, 3.17475  L-8.17113, 2.61629  L-8.367, 2.07395  L-8.5181, 1.54438  L-8.62537, 1.02433  L-8.68947, 0.510594  L-8.71079, -3.38507e-13  L-8.68947, -0.510594  L-8.62537, -1.02433  L-8.5181, -1.54438  L-8.367, -2.07395  L-8.17113, -2.61629  L-7.92929, -3.17475  L-7.64, -3.75278 " /><path d="M-7.64, 7.50555 L-7.92929, 7.21654  L-8.17113, 6.93731  L-8.367, 6.66614  L-8.5181, 6.40136  L-8.62537, 6.14133  L-8.68947, 5.88446  L-8.71079, 5.62917  L-8.68947, 5.37387  L-8.62537, 5.117  L-8.5181, 4.85697  L-8.367, 4.59219  L-8.17113, 4.32102  L-7.92929, 4.04179  L-7.64, 3.75278 " /><path id= "14" d=" M -7.64 7.50555 L -9.4 5.85278 " />
<path d="M-9.4, -5.85278 L-9.4, -5.70604  L-9.4, -5.27317  L-9.4, -4.57589  L-9.4, -3.64915  L-9.4, -2.53942  L-9.4, -1.30237  L-9.4, -1.11022e-15  L-9.4, 1.30237  L-9.4, 2.53942  L-9.4, 3.64915  L-9.4, 4.57589  L-9.4, 5.27317  L-9.4, 5.70604  L-9.4, 5.85278 " /></g>

</svg>
