<svg xmlns="http://www.w3.org/2000/svg" viewBox="-8.821994 -7.816444 19.088438 15.632888">
<rect width="100%" height="100%" fill="white"/>
<g   fill="none"
   stroke="rgb(0, 0, 0)"
   stroke-linecap="butt"
   stroke-linejoin="miter"
   stroke-width="0.35"
   transform="scale(1, -1)"
  >
<path d="M8.95, -2.22045e-16 C8.95056, -1.12464 8.73601, -2.24926 8.3215, -3.29472  C7.908, -4.34057 7.29455, -5.30725 6.52427, -6.1267  C5.91804, -6.77617 5.19806, -7.34266 4.40922, -7.78829  C3.62029, -8.2347 2.76243, -8.56082 1.87808, -8.75061  C0.108657, -9.13413 -1.76394, -8.95998 -3.42497, -8.26861  C-5.08837, -7.58296 -6.53564, -6.38197 -7.51562, -4.85961  C-8.00675, -4.10008 -8.38274, -3.26288 -8.62494, -2.38936  C-8.86763, -1.51646 -8.97616, -0.606788 -8.94558, 0.281126  C-8.90411, 1.63938 -8.54657, 2.98762 -7.90972, 4.18798  C-7.27489, 5.38941 -6.36075, 6.44295 -5.26068, 7.2407  C-4.31331, 7.92982 -3.22859, 8.42986 -2.08934, 8.70272  C-0.950379, 8.97681 0.243119, 9.02372 1.40009, 8.83981  C2.51097, 8.66443 3.58818, 8.27659 4.55592, 7.70365  C5.52421, 7.13163 6.38303, 6.3745 7.07192, 5.48554  C8.28285, 3.93218 8.95483, 1.96959 8.95, -4.44089e-16 " /></g>
<g   fill="none"
   stroke="rgb(0, 0, 0)"
   stroke-linecap="butt"
   stroke-linejoin="miter"
   stroke-width="0.35"
   transform="scale(1, -1)"
  >
<path d="M7.50555, -7.1676e-13 Q7.36105, -0.250291 7.21654, -0.500582  Q7.07693, -0.742403 6.93731, -0.984224  Q6.80173, -1.21907 6.66614, -1.45391  Q6.53375, -1.68322 6.40136, -1.91252  Q6.27134, -2.13771 6.14133, -2.3629  Q5.88402, -2.80858 5.62917, -3.25  Q5.50152, -3.47109 5.37387, -3.69219  Q5.11788, -4.13557 4.85697, -4.58748  Q4.72458, -4.81678 4.59219, -5.04609  Q4.4566, -5.28093 4.32102, -5.51578  Q4.1814, -5.7576 4.04179, -5.99942  Q3.89728, -6.24971 3.75278, -6.5 " /><path d="M3.75278, -6.5 Q3.46377, -6.5 3.17475, -6.5  Q2.89552, -6.5 2.61629, -6.5  Q2.34512, -6.5 2.07395, -6.5  Q1.80917, -6.5 1.54438, -6.5  Q1.02256, -6.5 0.510594, -6.5  Q0.255297, -6.5 0, -6.5  Q-0.509712, -6.5 -1.02433, -6.5  Q-1.28436, -6.5 -1.54438, -6.5  Q-1.80917, -6.5 -2.07395, -6.5  Q-2.34512, -6.5 -2.61629, -6.5  Q-2.89552, -6.5 -3.17475, -6.5  Q-3.46377, -6.5 -3.75278, -6.5 " /><path d="M-3.75278, -6.5 Q-3.89728, -6.24971 -4.04179, -5.99942  Q-4.1814, -5.7576 -4.32102, -5.51578  Q-4.4566, -5.28093 -4.59219, -5.04609  Q-4.72458, -4.81678 -4.85697, -4.58748  Q-4.98699, -4.36229 -5.117, -4.1371  Q-5.37431, -3.69142 -5.62917, -3.25  Q-5.88402, -2.80858 -6.14133, -2.3629  Q-6.27134, -2.13771 -6.40136, -1.91252  Q-6.53375, -1.68322 -6.66614, -1.45391  Q-6.80173, -1.21907 -6.93731, -0.984224  Q-7.07693, -0.742403 -7.21654, -0.500582  Q-7.36105, -0.250291 -7.50555, -7.14984e-13 " /><path d="M-7.50555, 7.18536e-13 Q-7.36105, 0.250291 -7.21654, 0.500582  Q-7.07693, 0.742403 -6.93731, 0.984224  Q-6.80173, 1.21907 -6.66614, 1.45391  Q-6.53375, 1.68322 -6.40136, 1.91252  Q-6.14045, 2.36443 -5.88446, 2.80781  Q-5.75681, 3.02891 -5.62917, 3.25  Q-5.50152, 3.47109 -5.37387, 3.69219  Q-5.11788, 4.13557 -4.85697, 4.58748  Q-4.72458, 4.81678 -4.59219, 5.04609  Q-4.4566, 5.28093 -4.32102, 5.51578  Q-4.1814, 5.7576 -4.04179, 5.99942  Q-3.89728, 6.24971 -3.75278, 6.5 " /><path d="M-3.75278, 6.5 Q-3.46377, 6.5 -3.17475, 6.5  Q-2.89552, 6.5 -2.61629, 6.5  Q-2.34512, 6.5 -2.07395, 6.5  Q-1.80917, 6.5 -1.54438, 6.5  Q-1.28436, 6.5 -1.02433, 6.5  Q-0.509712, 6.5 7.77156e-16, 6.5  Q0.255297, 6.5 0.510594, 6.5  Q1.02256, 6.5 1.54438, 6.5  Q1.80917, 6.5 2.07395, 6.5  Q2.34512, 6.5 2.61629, 6.5  Q2.89552, 6.5 3.17475, 6.5  Q3.46377, 6.5 3.75278, 6.5 " /><path d="M3.75278, 6.5 Q3.89728, 6.24971 4.04179, 5.99942  Q4.1814, 5.7576 4.32102, 5.51578  Q4.4566, 5.28093 4.59219, 5.04609  Q4.72458, 4.81678 4.85697, 4.58748  Q5.11788, 4.13557 5.37387, 3.69219  Q5.50152, 3.47109 5.62917, 3.25  Q5.88402, 2.80858 6.14133, 2.3629  Q6.27134, 2.13771 6.40136, 1.91252  Q6.53375, 1.68322 6.66614, 1.45391  Q6.80173, 1.21907 6.93731, 0.984224  Q7.07693, 0.742403 7.21654, 0.500582  Q7.36105, 0.250291 7.50555, 7.18092e-13 " /><path d="M3.75278, 6.5 Q3.89728, 6.24971 4.04179, 5.99942  Q4.1814, 5.7576 4.32102, 5.51578  Q4.4566, 5.28093 4.59219, 5.04609  Q4.72458, 4.81678 4.85697, 4.58748  Q4.98699, 4.36229 5.117, 4.1371  Q5.37431, 3.69142 5.62917, 3.25  Q5.88402, 2.80858 6.14133, 2.3629  Q6.27134, 2.13771 6.40136, 1.91252  Q6.53375, 1.68322 6.66614, 1.45391  Q6.80173, 1.21907 6.93731, 0.984224  Q7.07693, 0.742403 7.21654, 0.500582  Q7.36105, 0.250291 7.50555, 4.85834e-13 " /><path d="M-3.75278, 6.5 Q-3.46377, 6.5 -3.17475, 6.5  Q-2.89552, 6.5 -2.61629, 6.5  Q-2.34512, 6.5 -2.07395, 6.5  Q-1.80917, 6.5 -1.54438, 6.5  Q-1.02256, 6.5 -0.510594, 6.5  Q-0.255297, 6.5 -3.3773e-13, 6.5  Q0.509712, 6.5 1.02433, 6.5  Q1.28436, 6.5 1.54438, 6.5  Q1.80917, 6.5 2.07395, 6.5  Q2.34512, 6.5 2.61629, 6.5  Q2.89552, 6.5 3.17475, 6.5  Q3.46377, 6.5 3.75278, 6.5 " /><path d="M-7.50555, 6.86118e-13 Q-7.36105, 0.250291 -7.21654, 0.500582  Q-7.07693, 0.742403 -6.93731, 0.984224  Q-6.80173, 1.21907 -6.66614, 1.45391  Q-6.53375, 1.68322 -6.40136, 1.91252  Q-6.14045, 2.36443 -5.88446, 2.80781  Q-5.75681, 3.02891 -5.62917, 3.25  Q-5.37431, 3.69142 -5.117, 4.1371  Q-4.98699, 4.36229 -4.85697, 4.58748  Q-4.72458, 4.81678 -4.59219, 5.04609  Q-4.4566, 5.28093 -4.32102, 5.51578  Q-4.1814, 5.7576 -4.04179, 5.99942  Q-3.89728, 6.24971 -3.75278, 6.5 " /><path d="M-3.75278, -6.5 Q-3.89728, -6.24971 -4.04179, -5.99942  Q-4.1814, -5.7576 -4.32102, -5.51578  Q-4.4566, -5.28093 -4.59219, -5.04609  Q-4.72458, -4.81678 -4.85697, -4.58748  Q-4.98699, -4.36229 -5.117, -4.1371  Q-5.37431, -3.69142 -5.62917, -3.25  Q-5.88402, -2.80858 -6.14133, -2.3629  Q-6.27134, -2.13771 -6.40136, -1.91252  Q-6.53375, -1.68322 -6.66614, -1.45391  Q-6.80173, -1.21907 -6.93731, -0.984224  Q-7.07693, -0.742403 -7.21654, -0.500582  Q-7.36105, -0.250291 -7.50555, -2.84217e-13 " /><path d="M3.75278, -6.5 Q3.46377, -6.5 3.17475, -6.5  Q2.89552, -6.5 2.61629, -6.5  Q2.34512, -6.5 2.07395, -6.5  Q1.80917, -6.5 1.54438, -6.5  Q1.02256, -6.5 0.510594, -6.5  Q0.255297, -6.5 -3.38507e-13, -6.5  Q-0.255297, -6.5 -0.510594, -6.5  Q-1.02256, -6.5 -1.54438, -6.5  Q-1.80917, -6.5 -2.07395, -6.5  Q-2.34512, -6.5 -2.61629, -6.5  Q-2.89552, -6.5 -3.17475, -6.5  Q-3.46377, -6.5 -3.75278, -6.5 " /><path d="M7.50555, -4.85834e-13 Q7.36105, -0.250291 7.21654, -0.500582  Q7.07693, -0.742403 6.93731, -0.984224  Q6.80173, -1.21907 6.66614, -1.45391  Q6.53375, -1.68322 6.40136, -1.91252  Q6.27134, -2.13771 6.14133, -2.3629  Q5.88402, -2.80858 5.62917, -3.25  Q5.50152, -3.47109 5.37387, -3.69219  Q5.11788, -4.13557 4.85697, -4.58748  Q4.72458, -4.81678 4.59219, -5.04609  Q4.4566, -5.28093 4.32102, -5.51578  Q4.1814, -5.7576 4.04179, -5.99942  Q3.89728, -6.24971 3.75278, -6.5 " /><circle cx ="0" cy ="0" r ="5.85278" /><path d="M3.45873, 1.23459e-07 Q3.45872, 0.228727 3.42861, 0.455463 " /><path d="M3.38555, 0.707724 Q3.36234, 0.81877 3.3319, 0.928055 " /><path d="M3.30649, 1.01487 Q3.21463, 1.31396 3.07069, 1.59176 " /><path d="M-1.59712, 3.06791 C-1.9913, 2.86296 -2.34527, 2.58099 -2.63317, 2.24261 " /><circle cx ="0" cy ="0" r ="4.2" /><path d="M3.70566, 4.44089e-16 C3.80828, -0.730671 3.68435, -1.49379 3.36262, -2.16631 " /><path d="M3.70566, 3.35695e-07 C3.62619, 0.576969 3.4064, 1.13184 3.06756, 1.59779 " /><path d="M3.06756 1.59779 A3.45873 3.45873 0 0 1 -1.59712 3.06791" /><path d="M0.845907, -3.90954 C-0.147327, -4.07998 -1.20111, -3.85204 -2.02654, -3.28016  C-2.78939, -2.75956 -3.35025, -1.95379 -3.56449, -1.05909  C-3.76956, -0.225603 -3.67048, 0.677384 -3.28453, 1.44  C-2.92764, 2.15512 -2.32255, 2.74134 -1.59712, 3.06791 " /><path d="M3.36262, -2.16631 C3.34691, -2.19922 3.32569, -2.23798 3.29898, -2.28257  C3.21622, -2.42059 3.09762, -2.58224 2.96295, -2.73307  C2.82347, -2.88996 2.66761, -3.03635 2.49539, -3.17224 " /><path d="M2.49539, -3.17224 C2.17992, -3.42095 1.81705, -3.62093 1.44209, -3.75385  C1.24061, -3.82504 1.04189, -3.87693 0.845907, -3.90954 " /><path d="M-2.53182, -2.35642 C-2.03833, -2.88892 -1.37268, -3.25829 -0.659692, -3.39524  C-0.0297027, -3.51862 0.634252, -3.46111 1.23364, -3.23125  C1.82973, -3.00467 2.36001, -2.60889 2.74679, -2.1019  C3.20616, -1.50454 3.46053, -0.753532 3.45873, 2.46919e-07 " /><path d="M3.45873, 5.55574e-07 Q3.45873, 0.114226 3.4512, 0.228202 " /><path d="M3.38274, 0.721036 Q3.36052, 0.825271 3.33193, 0.92794 " /><path d="M3.30893, 1.0069 Q3.21556, 1.31351 3.06756, 1.59779 " /><path d="M-1.59712, 3.06791 C-1.98298, 2.86727 -2.33034, 2.59287 -2.61486, 2.26392  C-3.00867, 1.81019 -3.28048, 1.25195 -3.39477, 0.662122  C-3.44202, 0.419452 -3.46309, 0.174529 -3.45797, -0.0726458  C-3.44294, -0.926962 -3.09547, -1.76951 -2.50391, -2.38606  C-2.01313, -2.90317 -1.35835, -3.26129 -0.658174, -3.39553  C-0.0335922, -3.51754 0.624301, -3.46186 1.21949, -3.23662  C1.82535, -3.00939 2.36413, -2.60754 2.75464, -2.0916  C3.20912, -1.49595 3.46049, -0.749201 3.45873, -4.44089e-16 " /><path d="M3.45873, 6.17305e-07 C3.45927, 0.553732 3.32384, 1.10693 3.06756, 1.59779 " /><path d="M3.45873, 0.00016037 Q3.45871, 0.228807 3.42861, 0.455463 " /><path d="M3.38555, 0.707724 Q3.36234, 0.81877 3.3319, 0.928056 " /><path d="M3.30649, 1.01487 Q3.21463, 1.31396 3.07069, 1.59176 " /><path d="M-1.59712, 3.06791 C-1.98322, 2.86714 -2.33076, 2.59253 -2.61539, 2.26331  C-3.00918, 1.8094 -3.28089, 1.25094 -3.39499, 0.660948  C-3.44216, 0.418261 -3.46315, 0.173331 -3.45795, -0.0738419  C-3.44262, -0.928474 -3.09459, -1.77121 -2.50242, -2.38762  C-2.01225, -2.90343 -1.35881, -3.26079 -0.660045, -3.39517  C-0.032858, -3.51806 0.628018, -3.4617 1.22534, -3.2344  C1.82689, -3.00754 2.36194, -2.60846 2.75088, -2.09654  C3.2077, -1.50007 3.46051, -0.75128 3.45873, -1.77636e-15 " /><path d="M3.45873, 0.000160556 Q3.45871, 0.228807 3.42861, 0.455463 " /><path d="M3.38555, 0.707724 Q3.36234, 0.81877 3.3319, 0.928056 " /><path d="M3.30649, 1.01487 Q3.21463, 1.31396 3.07069, 1.59176 " /><path d="M-1.59712, 3.06791 C-1.98304, 2.86724 -2.33044, 2.59279 -2.61499, 2.26377  C-3.00879, 1.81 -3.28058, 1.2517 -3.39482, 0.661836  C-3.44205, 0.419161 -3.4631, 0.174237 -3.45796, -0.072938  C-3.44286, -0.92738 -3.09522, -1.77002 -2.50345, -2.38655  C-2.01365, -2.90241 -1.36061, -3.25998 -0.662144, -3.39476  C-0.0403904, -3.51696 0.614601, -3.46308 1.20803, -3.24091  C1.81728, -3.01489 2.35947, -2.61246 2.75224, -2.09476  C3.20821, -1.49859 3.4605, -0.750531 3.45873, -1.11022e-15 " /><path d="M3.45873, 0.000160432 Q3.45871, 0.228807 3.42861, 0.455463 " /><path d="M3.38555, 0.707724 Q3.36234, 0.81877 3.3319, 0.928056 " /><path d="M3.30649, 1.01487 Q3.21463, 1.31396 3.07069, 1.59176 " /><path d="M-1.59712, 3.06791 C-1.98317, 2.86717 -2.33066, 2.59261 -2.61526, 2.26346  C-3.00905, 1.80959 -3.28079, 1.25118 -3.39494, 0.661232  C-3.44213, 0.418549 -3.46313, 0.17362 -3.45795, -0.0735533  C-3.4427, -0.928135 -3.09478, -1.77085 -2.50273, -2.3873  C-2.00896, -2.90708 -1.34937, -3.26592 -0.644742, -3.39811  C-0.0212674, -3.51734 0.634654, -3.45967 1.22776, -3.23349  C1.82989, -3.00589 2.36522, -2.60569 2.7539, -2.09258  C3.20884, -1.49677 3.46049, -0.749612 3.45873, -8.88178e-16 " /><path d="M3.45873, 0.000160494 Q3.45871, 0.228807 3.42861, 0.455463 " /><path d="M3.38555, 0.707724 Q3.36234, 0.81877 3.3319, 0.928056 " /><path d="M3.30649, 1.01487 Q3.21463, 1.31396 3.07069, 1.59176 " /><path d="M-1.59712, 3.06791 C-1.9831, 2.8672 -2.33055, 2.5927 -2.61512, 2.26362  C-3.00892, 1.8098 -3.28068, 1.25144 -3.39488, 0.661537  C-3.44209, 0.418859 -3.46312, 0.173932 -3.45796, -0.073242  C-3.44278, -0.927767 -3.09499, -1.77046 -2.50306, -2.38695  C-2.01089, -2.90517 -1.35394, -3.26352 -0.651775, -3.39677  C-0.0233563, -3.51831 0.638412, -3.45998 1.23588, -3.23039  C1.8318, -3.0034 2.36181, -2.60726 2.74825, -2.09999  C3.20671, -1.50295 3.46052, -0.75273 3.45873, -1.33227e-15 " /></g>

</svg>
