<svg xmlns="http://www.w3.org/2000/svg" viewBox="-6.769354 -6.769354 13.538708 13.538708">
<rect width="100%" height="100%" fill="white"/>
<g   fill="none"
   stroke="rgb(0, 0, 0)"
   stroke-linecap="butt"
   stroke-linejoin="miter"
   stroke-width="0.35"
   transform="scale(1, -1)"
  >
<circle cx ="0" cy ="0" r ="5.83565" /><path id= "2" d=" M 0.99 1.86681 L 2.13065 2.7833 " />
<path d="M2.13065 2.7833 A3.5052 3.5052 0 0 0 2.7833 2.13065" /><path id= "4" d=" M 2.7833 2.13065 L 1.86681 0.99 " />
<path id= "5" d=" M 1.86681 0.99 L 1.56566 -7.82587e-14 " />
<path id= "6" d=" M 1.56566 7.82587e-14 L 1.86681 -0.99 " />
<path id= "7" d=" M 1.86681 -0.99 L 2.7833 -2.13065 " />
<path d="M2.7833 -2.13065 A3.5052 3.5052 0 0 0 2.13065 -2.7833" /><path id= "9" d=" M 2.13065 -2.7833 L 0.99 -1.86681 " />
<path id= "10" d=" M 0.99 -1.86681 L -7.85807e-14 -1.56566 " />
<path id= "11" d=" M 7.79434e-14 -1.56566 L -0.99 -1.86681 " />
<path id= "12" d=" M -0.99 -1.86681 L -2.13065 -2.7833 " />
<path d="M-2.13065 -2.7833 A3.5052 3.5052 0 0 0 -2.7833 -2.13065" /><path id= "14" d=" M -2.7833 -2.13065 L -1.86681 -0.99 " />
<path id= "15" d=" M -1.86681 -0.99 L -1.56566 7.84347e-14 " />
<path id= "16" d=" M -1.56566 -7.80861e-14 L -1.86681 0.99 " />
<path id= "17" d=" M -1.86681 0.99 L -2.7833 2.13065 " />
<path d="M-2.7833 2.13065 A3.5052 3.5052 0 0 0 -2.13065 2.7833" /><path id= "19" d=" M -2.13065 2.7833 L -0.99 1.86681 " />
<path id= "20" d=" M -0.99 1.86681 L 7.84214e-14 1.56566 " />
<path id= "21" d=" M -7.81027e-14 1.56566 L 0.99 1.86681 " />
<path d="M2.13065, 2.7833 C1.64791, 2.25077 1.31001, 1.87836 1.04841, 1.59056 " /><path id= "23" d=" M 0.99 1.86681 L 0.99 1.53964 " />
<path d="M1.04841, 1.59056 L0.99, 1.53964 " /><path id= "25" d=" M 1.73823e-16 1.56566 L 1.33782e-16 1.205 " />
<path d="M0.99, 1.53964 C0.573499, 1.39439 0.273325, 1.29292 1.98674e-13, 1.205 " /><path id= "27" d=" M -0.99 1.86681 L -0.99 1.53964 " />
<path d="M-1.98563e-13, 1.205 C-0.273325, 1.29292 -0.573499, 1.39439 -0.99, 1.53964 " /><path d="M-1.04841, 1.59056 C-1.31001, 1.87836 -1.64791, 2.25077 -2.13065, 2.7833 " /><path d="M-0.99, 1.53964 L-1.04841, 1.59056 " /><path d="M-2.7833, 2.13065 C-2.25077, 1.64791 -1.87836, 1.31001 -1.59056, 1.04841 " /><path d="M-1.04841 1.59056 A1.905 1.905 0 0 1 -1.59056 1.04841" /><path id= "33" d=" M -1.86681 0.99 L -1.53964 0.99 " />
<path d="M-1.59056, 1.04841 L-1.53964, 0.99 " /><path id= "35" d=" M -1.56566 1.91738e-16 L -1.205 1.4757e-16 " />
<path d="M-1.53964, 0.99 C-1.39439, 0.573499 -1.29292, 0.273325 -1.205, 1.98674e-13 " /><path id= "37" d=" M -1.86681 -0.99 L -1.53964 -0.99 " />
<path d="M-1.205, -1.98563e-13 C-1.29292, -0.273325 -1.39439, -0.573499 -1.53964, -0.99 " /><path d="M-1.59056, -1.04841 C-1.87836, -1.31001 -2.25077, -1.64791 -2.7833, -2.13065 " /><path d="M-1.53964, -0.99 L-1.59056, -1.04841 " /><path d="M-2.13065, -2.7833 C-1.64791, -2.25077 -1.31001, -1.87836 -1.04841, -1.59056 " /><path d="M-1.59056 -1.04841 A1.905 1.905 0 0 1 -1.04841 -1.59056" /><path id= "43" d=" M -0.99 -1.86681 L -0.99 -1.53964 " />
<path d="M-1.04841, -1.59056 L-0.99, -1.53964 " /><path id= "45" d=" M -3.47646e-16 -1.56566 L -2.67564e-16 -1.205 " />
<path d="M-0.99, -1.53964 C-0.573499, -1.39439 -0.273325, -1.29292 -1.98674e-13, -1.205 " /><path id= "47" d=" M 0.99 -1.86681 L 0.99 -1.53964 " />
<path d="M1.98563e-13, -1.205 C0.273325, -1.29292 0.573499, -1.39439 0.99, -1.53964 " /><path d="M1.04841, -1.59056 C1.31001, -1.87836 1.64791, -2.25077 2.13065, -2.7833 " /><path d="M0.99, -1.53964 L1.04841, -1.59056 " /><path d="M2.7833, -2.13065 C2.25077, -1.64791 1.87836, -1.31001 1.59056, -1.04841 " /><path d="M1.04841 -1.59056 A1.905 1.905 0 0 1 1.59056 -1.04841" /><path id= "53" d=" M 1.86681 -0.99 L 1.53964 -0.99 " />
<path d="M1.59056, -1.04841 L1.53964, -0.99 " /><path id= "55" d=" M 1.56566 0 L 1.205 0 " />
<path d="M1.53964, -0.99 C1.39439, -0.573499 1.29292, -0.273325 1.205, -1.98674e-13 " /><path d="M1.205, 1.98563e-13 C1.29292, 0.273325 1.39439, 0.573499 1.53964, 0.99 " /><path id= "58" d=" M 1.86681 0.99 L 1.53964 0.99 " />
<path d="M1.59056, 1.04841 C1.87836, 1.31001 2.25077, 1.64791 2.7833, 2.13065 " /><path d="M1.53964, 0.99 L1.59056, 1.04841 " /><path d="M1.59056 1.04841 A1.905 1.905 0 0 1 1.04841 1.59056" /></g>

</svg>
