<svg xmlns="http://www.w3.org/2000/svg" viewBox="-1.6000000000000418 -7.200000000000003 23.200000000000045 14.400000000000006">
<rect width="100%" height="100%" fill="white"/>
<g   fill="none"
   stroke="rgb(165, 165, 165)"
   stroke-dasharray="1.2,0.8"
   stroke-linecap="butt"
   stroke-linejoin="miter"
   stroke-width="0.25"
   transform="scale(1, -1)"
  >
<path d="M20, -0.975821 C20, -1.37911 20, -1.75045 20, -2.04552  C20, -2.52517 20, -2.79558 20, -2.7928 " /><path d="M20, 2.2568 C20, 1.98831 20, 1.49022 20, 0.879665  C20, 0.538747 20, 0.167953 20, -0.190684  C20, -0.469171 20, -0.743789 20, -0.975821 " /><path d="M20, 2.57123 Q20, 2.51453 20, 2.2568 " /><path d="M20, 2.57123 Q20, 2.58586 20, 2.58586 " /><path d="M19.267, -2.98741 C19.3036, -2.92616 19.3402, -2.61736 19.3768, -2.12983  C19.4291, -1.43848 19.4814, -0.382839 19.5337, 0.585829  C19.5617, 1.10374 19.5897, 1.59294 19.6177, 1.98789  C19.6626, 2.62587 19.7076, 3.00426 19.7524, 3 " /><path d="M19.1274, -3 C19.1665, -3.00247 19.2055, -2.72051 19.2445, -2.22496  C19.28, -1.77611 19.3156, -1.15493 19.3512, -0.492706  C19.396, 0.342114 19.4409, 1.23184 19.4858, 1.88757  C19.5281, 2.51138 19.5705, 2.9176 19.6129, 2.98741 " /><path d="M18.267, -2.98741 C18.3036, -2.92627 18.3401, -2.61857 18.3766, -2.13264  C18.4287, -1.44515 18.4808, -0.396033 18.5329, 0.56957  C18.5613, 1.09547 18.5897, 1.59258 18.6181, 1.99245  C18.6629, 2.62774 18.7077, 3.00422 18.7525, 3 " /><path d="M18.1274, -3 C18.1664, -3.00246 18.2054, -2.72065 18.2444, -2.22532  C18.2803, -1.77342 18.3161, -1.14665 18.3519, -0.479257  C18.3966, 0.352855 18.4413, 1.2378 18.4859, 1.8903  C18.5282, 2.5126 18.5705, 2.91769 18.6129, 2.98741 " /><path d="M17.267, -2.98741 C17.3037, -2.92604 17.3404, -2.61594 17.3771, -2.12652  C17.4292, -1.43669 17.4813, -0.386038 17.5334, 0.579326  C17.5617, 1.10283 17.59, 1.59732 17.6182, 1.9952  C17.663, 2.62886 17.7077, 3.00419 17.7525, 3 " /><path d="M17.1274, -3 C17.1664, -3.00244 17.2053, -2.72183 17.2442, -2.22833  C17.2802, -1.77463 17.3162, -1.14377 17.3523, -0.472312  C17.3967, 0.355243 17.4411, 1.23423 17.4855, 1.88431  C17.528, 2.50993 17.5704, 2.9175 17.6129, 2.98741 " /><path d="M16.267, -2.98741 C16.3038, -2.92591 16.3405, -2.61456 16.3773, -2.12331  C16.4294, -1.4321 16.4816, -0.3803 16.5337, 0.58513  C16.5617, 1.10306 16.5897, 1.59232 16.6177, 1.98736  C16.6626, 2.62565 16.7075, 3.00426 16.7525, 3 " /><path d="M16.1274, -3 C16.1666, -3.0025 16.2057, -2.71874 16.2448, -2.22041  C16.2806, -1.7673 16.3165, -1.13974 16.3523, -0.472121  C16.3966, 0.354194 16.441, 1.23179 16.4853, 1.88152  C16.5278, 2.50869 16.5703, 2.91741 16.6128, 2.98741 " /><path d="M15.267, -2.98742 C15.3036, -2.92626 15.3401, -2.61842 15.3766, -2.13228  C15.429, -1.44137 15.4813, -0.385274 15.5336, 0.58407  C15.5616, 1.10198 15.5896, 1.59128 15.6176, 1.98642  C15.6626, 2.62527 15.7075, 3.00427 15.7525, 3 " /><path d="M15.1274, -3 C15.1665, -3.00247 15.2055, -2.72017 15.2445, -2.22408  C15.2801, -1.77556 15.3156, -1.15521 15.3511, -0.493846  C15.3958, 0.33727 15.4404, 1.22303 15.4851, 1.87808  C15.5277, 2.50716 15.5703, 2.91729 15.6128, 2.98741 " /><path d="M14.267, -2.98742 C14.3038, -2.92583 14.3407, -2.61358 14.3775, -2.12105  C14.4296, -1.42924 14.4817, -0.377396 14.5338, 0.587653  C14.5618, 1.1055 14.5898, 1.59455 14.6178, 1.98928  C14.6627, 2.62644 14.7076, 3.00424 14.7525, 3 " /><path d="M14.1274, -3 C14.1664, -3.00246 14.2053, -2.7213 14.2443, -2.22702  C14.2803, -1.773 14.3163, -1.14194 14.3524, -0.470433  C14.3969, 0.358518 14.4413, 1.23881 14.4858, 1.88887  C14.5282, 2.51196 14.5705, 2.91764 14.6128, 2.98741 " /><path d="M13.267, -2.98742 C13.3038, -2.9259 13.3406, -2.61435 13.3773, -2.12283  C13.4294, -1.43196 13.4815, -0.381131 13.5336, 0.583686  C13.5616, 1.10155 13.5896, 1.59083 13.6176, 1.98599  C13.6625, 2.62509 13.7075, 3.00427 13.7525, 3 " /><path d="M13.1274, -3 C13.1665, -3.00247 13.2055, -2.72013 13.2445, -2.22398  C13.2801, -1.77467 13.3157, -1.15292 13.3513, -0.490279  C13.3959, 0.339405 13.4405, 1.2231 13.485, 1.87712  C13.5276, 2.50673 13.5702, 2.91726 13.6128, 2.98741 " /><path d="M12.267, -2.98742 C12.3037, -2.92612 12.3403, -2.6168 12.3769, -2.12853  C12.429, -1.43919 12.4812, -0.388446 12.5333, 0.577316  C12.5615, 1.10055 12.5898, 1.5949 12.6181, 1.99288  C12.6629, 2.62791 12.7077, 3.00421 12.7525, 3 " /><path d="M12.1274, -3 C12.1666, -3.00251 12.2058, -2.7176 12.245, -2.21749  C12.2805, -1.76839 12.3159, -1.1488 12.3514, -0.488808  C12.396, 0.342636 12.4407, 1.22809 12.4854, 1.88226  C12.5279, 2.50902 12.5703, 2.91743 12.6128, 2.98741 " /><path d="M11.267, -2.98742 C11.3037, -2.926 11.3404, -2.61554 11.3771, -2.12558  C11.4291, -1.43708 11.4811, -0.389687 11.5331, 0.573722  C11.5613, 1.09568 11.5895, 1.5891 11.6177, 1.98696  C11.6626, 2.62549 11.7075, 3.00427 11.7525, 3 " /><path d="M11.1274, -3 C11.1664, -3.00245 11.2053, -2.72171 11.2442, -2.22803  C11.2799, -1.77817 11.3156, -1.15432 11.3513, -0.489321  C11.3962, 0.34541 11.441, 1.23459 11.4859, 1.88965  C11.5282, 2.5123 11.5705, 2.91767 11.6128, 2.98741 " /><path d="M10.267, -2.98742 C10.3036, -2.92616 10.3402, -2.61724 10.3768, -2.12954  C10.4289, -1.44075 10.481, -0.390614 10.5331, 0.574997  C10.5614, 1.09745 10.5896, 1.59123 10.6178, 1.98915  C10.6627, 2.62639 10.7076, 3.00425 10.7525, 3 " /><path d="M10.1274, -3 C10.1664, -3.00246 10.2054, -2.72074 10.2444, -2.22554  C10.2799, -1.77776 10.3154, -1.15834 10.3509, -0.497677  C10.3958, 0.337446 10.4407, 1.22817 10.4856, 1.88493  C10.528, 2.5102 10.5704, 2.91751 10.6128, 2.98741 " /><path d="M9.26703, -2.98742 C9.30368, -2.92608 9.34034, -2.61638 9.37699, -2.12755  C9.42906, -1.43846 9.48114, -0.388787 9.53321, 0.576227  C9.56147, 1.09914 9.58972, 1.59326 9.61797, 1.99124  C9.6628, 2.62724 9.70764, 3.00423 9.75245, 3 " /><path d="M9.12742, -3 C9.16634, -3.00244 9.20525, -2.7219 9.24416, -2.22851  C9.27972, -1.7807 9.31528, -1.16039 9.35085, -0.498611  C9.39567, 0.335446 9.4405, 1.22511 9.48534, 1.8818  C9.52784, 2.50881 9.57033, 2.91741 9.61283, 2.98741 " /><path d="M8.26703, -2.98742 C8.30378, -2.92594 8.34052, -2.61479 8.37727, -2.12384  C8.42945, -1.43218 8.48163, -0.379149 8.5338, 0.587046  C8.5618, 1.10491 8.5898, 1.59401 8.6178, 1.98882  C8.66268, 2.62625 8.70758, 3.00425 8.75245, 3 " /><path d="M8.12742, -3 C8.16656, -3.0025 8.20569, -2.71858 8.24483, -2.22001  C8.28068, -1.76641 8.31654, -1.13808 8.35239, -0.469784  C8.39681, 0.357922 8.44123, 1.23676 8.48565, 1.88639  C8.52804, 2.51085 8.57043, 2.91756 8.61283, 2.98741 " /><path d="M7.26703, -2.98742 C7.30367, -2.9261 7.34031, -2.61662 7.37695, -2.12808  C7.42896, -1.44007 7.48097, -0.392335 7.53297, 0.571699  C7.56145, 1.09903 7.58993, 1.59729 7.61841, 1.99749  C7.66309, 2.62979 7.70778, 3.00417 7.75245, 3 " /><path d="M7.12742, -3 C7.16658, -3.00251 7.20574, -2.71824 7.24489, -2.21918  C7.28019, -1.77235 7.31549, -1.15636 7.35079, -0.499516  C7.39554, 0.333112 7.4403, 1.2213 7.48506, 1.87781  C7.52765, 2.50703 7.57023, 2.91728 7.61283, 2.98741 " /><path d="M6.26703, -2.98742 C6.30358, -2.92625 6.34013, -2.6182 6.37667, -2.13176  C6.42874, -1.44419 6.48081, -0.395376 6.53287, 0.569905  C6.56116, 1.09366 6.58944, 1.58885 6.61773, 1.98783  C6.66264, 2.62585 6.70756, 3.00426 6.75245, 3 " /><path d="M6.12742, -3 C6.16646, -3.00248 6.20551, -2.71991 6.24455, -2.22344  C6.28039, -1.77098 6.31622, -1.14374 6.35205, -0.476109  C6.39661, 0.354059 6.44118, 1.23643 6.48574, 1.88786  C6.52811, 2.51151 6.57046, 2.9176 6.61283, 2.98741 " /><path d="M5.26704, -2.98742 C5.30381, -2.9259 5.34058, -2.61431 5.37735, -2.12272  C5.42921, -1.43496 5.48106, -0.390636 5.53291, 0.57059  C5.56121, 1.09451 5.5895, 1.58982 5.6178, 1.98879  C5.66268, 2.62624 5.70758, 3.00425 5.75245, 3 " /><path d="M5.12741, -3 C5.16632, -3.00244 5.20523, -2.72195 5.24414, -2.22866  C5.27981, -1.77952 5.31548, -1.1568 5.35115, -0.492785  C5.39596, 0.341208 5.44077, 1.23002 5.48558, 1.88557  C5.528, 2.51049 5.5704, 2.91753 5.61282, 2.98741 " /><path d="M4.26704, -2.98742 C4.30359, -2.92624 4.34014, -2.61812 4.37669, -2.13156  C4.42866, -1.44511 4.48064, -0.398761 4.53262, 0.565127  C4.56111, 1.09283 4.58959, 1.59177 4.61808, 1.99283  C4.66287, 2.62789 4.70767, 3.00421 4.75246, 3 " /><path d="M3.75246, 3 C3.71064, 3.00507 3.69231, 2.60102 3.68995, 1.93236 " /><path d="M3.68995, 1.93236 Q3.68995, 1.74513 3.68995, 1.53497 " /><path d="M3.68995, 1.53497 C3.69305, 0.46809 3.72294, -0.982715 3.71925, -1.9197 " /><path d="M3.71925, -1.9197 C3.71882, -2.10233 3.72336, -2.26606 3.74099, -2.38708  C3.75085, -2.45261 3.76656, -2.50839 3.79216, -2.50994  C3.82674, -2.50946 3.8617, -2.42121 3.88861, -2.32675  C3.92036, -2.21176 3.94724, -2.07604 3.96926, -1.91957 " /><path d="M3.96926, -1.91957 C4.07478, -1.1867 4.19495, -0.147431 4.30236, 0.785082  C4.38071, 1.46357 4.45236, 2.07702 4.51048, 2.47707  C4.55192, 2.76304 4.58658, 2.94138 4.61356, 2.98739 " /><path d="M3.68995, 1.93236 Q3.68995, 1.74435 3.68995, 1.53497 " /><path d="M0.7, 5.6 L0.7, 5.4596  L0.7, 5.04543  L0.7, 4.37826  L0.7, 3.49154  L0.7, 2.42975  L0.7, 1.24612  L0.7, 4.44089e-16  L0.7, -1.24612  L0.7, -2.42975  L0.7, -3.49154  L0.7, -4.37826  L0.7, -5.04543  L0.7, -5.4596  L0.7, -5.6 " /><path d="M0, 5.6 L0, 5.4596  L0, 5.04543  L0, 4.37826  L0, 3.49154  L0, 2.42975  L0, 1.24612  L0, 4.44089e-16  L0, -1.24612  L0, -2.42975  L0, -3.49154  L0, -4.37826  L0, -5.04543  L0, -5.4596  L0, -5.6 " /><path id= "44" d=" M -2.68006e-17 0.99 L -2.68006e-17 2.06252 " />
<path d="M0, 2.06252 Q0, 2.42539 0, 2.70296 " /><path id= "46" d=" M -2.68006e-17 2.70296 L -2.68006e-17 1.84556 " />
<path id= "47" d=" M -1.86935e-17 1.84556 L -1.86935e-17 1.54441 " />
<path id= "48" d=" M -1.86935e-17 1.54441 L -1.86935e-17 1.84556 " />
<path id= "49" d=" M -2.68006e-17 1.84556 L -2.68006e-17 2.70296 " />
<path d="M0, 2.70296 Q0, 2.42539 0, 2.06252 " /><path id= "51" d=" M -2.68006e-17 2.06252 L -2.68006e-17 0.99 " />
<path id= "52" d=" M -1.56594e-18 0.99 L -1.56594e-18 1.87326e-13 " />
<path id= "53" d=" M -3.58211e-17 -1.87957e-13 L -3.58211e-17 -0.99 " />
<path id= "54" d=" M 7.34961e-18 -0.99 L 7.34961e-18 -2.06252 " />
<path d="M0, -2.06252 Q0, -2.42539 0, -2.70296 " /><path id= "56" d=" M -9.72548e-18 -2.70296 L -9.72548e-18 -1.84556 " />
<path id= "57" d=" M -3.58211e-17 -1.84556 L -3.58211e-17 -1.54441 " />
<path id= "58" d=" M -1.86935e-17 -1.54441 L -1.86935e-17 -1.84556 " />
<path id= "59" d=" M -2.68006e-17 -1.84556 L -2.68006e-17 -2.70296 " />
<path d="M0, -2.70296 Q0, -2.42539 0, -2.06252 " /><path id= "61" d=" M -9.72548e-18 -2.06252 L -9.72548e-18 -0.99 " />
<path id= "62" d=" M -3.58211e-17 -0.99 L -3.58211e-17 -1.87485e-13 " />
<path id= "63" d=" M -1.56594e-18 1.87798e-13 L -1.56594e-18 0.99 " />
<path d="M9.89431e-13, 2.06252 Q0.139298, 2.01558 0.278596, 1.96863  Q0.412077, 1.92363 0.545559, 1.87863  Q0.673464, 1.83549 0.80137, 1.79235  Q0.923931, 1.75099 1.04649, 1.70963  Q1.16393, 1.66998 1.28137, 1.63033  Q1.39389, 1.59231 1.50642, 1.5543  Q1.61424, 1.51785 1.72205, 1.48141  Q1.82535, 1.44646 1.92866, 1.41152  Q2.02763, 1.37801 2.12661, 1.34451  Q2.22143, 1.31238 2.31626, 1.28025  Q2.4071, 1.24945 2.49795, 1.21864  Q2.58498, 1.1891 2.67202, 1.15956  Q2.84074, 1.10225 2.99851, 1.04857 " /><path id= "65" d=" M 6.08402e-14 0.99 L 3.03814 0.99 " />
<path d="M2.99851, 1.04857 L3.03814, 0.99 " /><path id= "67" d=" M -3.86358e-14 1.71464e-16 L 3.3707 1.33782e-16 " />
<path d="M3.03814, 0.99 C3.22241, 0.573499 3.32324, 0.273325 3.3707, 1.98674e-13 " /><path id= "69" d=" M 6.08402e-14 -0.99 L 3.03814 -0.99 " />
<path d="M3.3707, -1.98508e-13 C3.32324, -0.273325 3.22241, -0.573499 3.03814, -0.99 " /><path d="M2.99851, -1.04857 Q2.91864, -1.07574 2.83877, -1.1029  Q2.67407, -1.15888 2.49795, -1.21864  Q2.4071, -1.24945 2.31626, -1.28025  Q2.22143, -1.31238 2.12661, -1.34451  Q2.02763, -1.37801 1.92866, -1.41152  Q1.82535, -1.44646 1.72205, -1.48141  Q1.61424, -1.51785 1.50642, -1.5543  Q1.39389, -1.59231 1.28137, -1.63033  Q1.16393, -1.66998 1.04649, -1.70963  Q0.923931, -1.75099 0.80137, -1.79235  Q0.673464, -1.83549 0.545559, -1.87863  Q0.412077, -1.92363 0.278596, -1.96863  Q0.139298, -2.01558 9.89431e-13, -2.06252 " /><path d="M3.03814, -0.99 L2.99851, -1.04857 " /><path d="M9.89431e-13, -2.70296 Q0.139298, -2.65141 0.278596, -2.59985  Q0.412077, -2.55044 0.545559, -2.50102  Q0.673464, -2.45365 0.80137, -2.40628  Q0.923931, -2.36088 1.04649, -2.31548  Q1.16393, -2.27195 1.28137, -2.22843  Q1.39389, -2.18671 1.50642, -2.14499  Q1.61424, -2.105 1.72205, -2.065  Q1.82535, -2.02667 1.92866, -1.98833  Q2.02763, -1.95158 2.12661, -1.91483  Q2.22143, -1.87959 2.31626, -1.84436  Q2.4071, -1.81059 2.49795, -1.77681  Q2.58498, -1.74444 2.67202, -1.71206  Q2.84074, -1.64925 2.99851, -1.59045 " /><path d="M2.99851, -1.04857 Q2.99851, -1.3743 2.99851, -1.59045 " /><path id= "75" d=" M 6.07621e-14 -1.84556 L 3.03814 -1.53964 " />
<path d="M2.99851, -1.59045 L3.03814, -1.53964 " /><path id= "77" d=" M -3.86552e-14 -1.54441 L 3.3707 -1.205 " />
<path d="M3.03814, -1.53964 C3.22241, -1.39439 3.32324, -1.29292 3.3707, -1.205 " /><path id= "79" d=" M 6.07621e-14 -1.84556 L 3.03814 -1.53964 " />
<path d="M3.3707, -1.205 C3.32324, -1.29292 3.22241, -1.39439 3.03814, -1.53964 " /><path d="M2.99851, -1.59045 Q2.91864, -1.62021 2.83877, -1.64997  Q2.67407, -1.71131 2.49795, -1.77681  Q2.4071, -1.81059 2.31626, -1.84436  Q2.22143, -1.87959 2.12661, -1.91483  Q2.02763, -1.95158 1.92866, -1.98833  Q1.82535, -2.02667 1.72205, -2.065  Q1.61424, -2.105 1.50642, -2.14499  Q1.39389, -2.18671 1.28137, -2.22843  Q1.16393, -2.27195 1.04649, -2.31548  Q0.923931, -2.36088 0.80137, -2.40628  Q0.673464, -2.45365 0.545559, -2.50102  Q0.412077, -2.55044 0.278596, -2.59985  Q0.139298, -2.65141 9.89431e-13, -2.70296 " /><path d="M3.03814, -1.53964 L2.99851, -1.59045 " /><path d="M9.92983e-13, -2.06252 Q0.139298, -2.01558 0.278596, -1.96863  Q0.412077, -1.92363 0.545559, -1.87863  Q0.673464, -1.83549 0.80137, -1.79235  Q0.923931, -1.75099 1.04649, -1.70963  Q1.16393, -1.66998 1.28137, -1.63033  Q1.39389, -1.59231 1.50642, -1.5543  Q1.61424, -1.51785 1.72205, -1.48141  Q1.82535, -1.44646 1.92866, -1.41152  Q2.02763, -1.37801 2.12661, -1.34451  Q2.22143, -1.31238 2.31626, -1.28025  Q2.4071, -1.24945 2.49795, -1.21864  Q2.58498, -1.1891 2.67202, -1.15956  Q2.84074, -1.10225 2.99851, -1.04857 " /><path d="M2.99851, -1.59045 Q2.99851, -1.3743 2.99851, -1.04857 " /><path id= "85" d=" M 6.08402e-14 -0.99 L 3.03814 -0.99 " />
<path d="M2.99851, -1.04857 L3.03814, -0.99 " /><path id= "87" d=" M -3.86358e-14 -3.42928e-16 L 3.3707 -2.67564e-16 " />
<path d="M3.03814, -0.99 C3.22241, -0.573499 3.32324, -0.273325 3.3707, -1.98674e-13 " /><path id= "89" d=" M 6.08402e-14 0.99 L 3.03814 0.99 " />
<path d="M3.3707, 1.98508e-13 C3.32324, 0.273325 3.22241, 0.573499 3.03814, 0.99 " /><path d="M2.99851, 1.04857 Q2.91864, 1.07574 2.83877, 1.1029  Q2.67407, 1.15888 2.49795, 1.21864  Q2.4071, 1.24945 2.31626, 1.28025  Q2.22143, 1.31238 2.12661, 1.34451  Q2.02763, 1.37801 1.92866, 1.41152  Q1.82535, 1.44646 1.72205, 1.48141  Q1.61424, 1.51785 1.50642, 1.5543  Q1.39389, 1.59231 1.28137, 1.63033  Q1.16393, 1.66998 1.04649, 1.70963  Q0.923931, 1.75099 0.80137, 1.79235  Q0.673464, 1.83549 0.545559, 1.87863  Q0.412077, 1.92363 0.278596, 1.96863  Q0.139298, 2.01558 9.89431e-13, 2.06252 " /><path d="M3.03814, 0.99 L2.99851, 1.04857 " /><path d="M9.89431e-13, 2.70296 Q0.139298, 2.65141 0.278596, 2.59985  Q0.412077, 2.55044 0.545559, 2.50102  Q0.673464, 2.45365 0.80137, 2.40628  Q0.923931, 2.36088 1.04649, 2.31548  Q1.16393, 2.27195 1.28137, 2.22843  Q1.39389, 2.18671 1.50642, 2.14499  Q1.61424, 2.105 1.72205, 2.065  Q1.82535, 2.02667 1.92866, 1.98833  Q2.02763, 1.95158 2.12661, 1.91483  Q2.22143, 1.87959 2.31626, 1.84436  Q2.4071, 1.81059 2.49795, 1.77681  Q2.58498, 1.74444 2.67202, 1.71206  Q2.84074, 1.64925 2.99851, 1.59045 " /><path d="M2.99851, 1.04857 Q2.99851, 1.3743 2.99851, 1.59045 " /><path id= "95" d=" M 6.07621e-14 1.84556 L 3.03814 1.53964 " />
<path d="M2.99851, 1.59045 L3.03814, 1.53964 " /><path id= "97" d=" M -3.86552e-14 1.54441 L 3.3707 1.205 " />
<path d="M3.03814, 1.53964 C3.22241, 1.39439 3.32324, 1.29292 3.3707, 1.205 " /><path d="M3.3707, 1.205 C3.32324, 1.29292 3.22241, 1.39439 3.03814, 1.53964 " /><path id= "100" d=" M 6.07621e-14 1.84556 L 3.03814 1.53964 " />
<path d="M2.99851, 1.59045 Q2.91864, 1.62021 2.83877, 1.64997  Q2.67407, 1.71131 2.49795, 1.77681  Q2.4071, 1.81059 2.31626, 1.84436  Q2.22143, 1.87959 2.12661, 1.91483  Q2.02763, 1.95158 1.92866, 1.98833  Q1.82535, 2.02667 1.72205, 2.065  Q1.61424, 2.105 1.50642, 2.14499  Q1.39389, 2.18671 1.28137, 2.22843  Q1.16393, 2.27195 1.04649, 2.31548  Q0.923931, 2.36088 0.80137, 2.40628  Q0.673464, 2.45365 0.545559, 2.50102  Q0.412077, 2.55044 0.278596, 2.59985  Q0.139298, 2.65141 9.89431e-13, 2.70296 " /><path d="M3.03814, 1.53964 L2.99851, 1.59045 " /><path d="M2.99851, 1.59045 Q2.99851, 1.3743 2.99851, 1.04857 " /><path id= "104" d=" M 3.3707 1.205 L 4.01141 1.10861e-13 " />
</g>
<g   fill="none"
   stroke="rgb(165, 165, 165)"
   stroke-dasharray="1.2,0.8"
   stroke-linecap="butt"
   stroke-linejoin="miter"
   stroke-width="0.25"
   transform="scale(1, -1)"
  >
<path id= "1" d=" M 4.01141 3.01771e-13 L 3.3707 -1.205 " />
</g>
<g   fill="none"
   stroke="rgb(0, 0, 0)"
   stroke-linecap="butt"
   stroke-linejoin="miter"
   stroke-width="0.35"
   transform="scale(1, -1)"
  >
<path d="M20, 2.58586 L19.767, 2.98741 " /><path d="M19.0827, 2.44343 L18.767, 2.98741 " /><path d="M19.5827, -2.44342 L19.267, -2.98741 " /><path d="M19.7972, -2.44342 Q19.7914, -2.4322 19.7733, -2.4161  Q19.7496, -2.39635 19.7163, -2.38919  Q19.7031, -2.38788 19.6899, -2.38656  Q19.6435, -2.3875 19.6096, -2.41372  Q19.5891, -2.43097 19.5827, -2.44342 " /><path d="M19.1899, 2.38657 Q19.1435, 2.3875 19.1096, 2.41371  Q19.0891, 2.43097 19.0827, 2.44343 " /><path d="M19.7972, -2.44342 L20, -2.7928 " /><path id= "7" d=" M 19.2524 -3 L 19.1274 -3 " />
<path d="M18.0827, 2.44343 L17.767, 2.98741 " /><path d="M18.5827, -2.44343 L18.267, -2.98741 " /><path d="M18.7972, -2.44343 Q18.7914, -2.43221 18.7733, -2.41611  Q18.7496, -2.39635 18.7163, -2.3892  Q18.7031, -2.38788 18.6899, -2.38657  Q18.6435, -2.3875 18.6096, -2.41372  Q18.5891, -2.43097 18.5827, -2.44343 " /><path d="M19.2972, 2.44343 Q19.2914, 2.43221 19.2733, 2.41611  Q19.2389, 2.38771 19.1899, 2.38657 " /><path d="M18.19, 2.38657 Q18.1435, 2.3875 18.1096, 2.41372  Q18.0891, 2.43097 18.0827, 2.44343 " /><path d="M19.1129, -2.98741 L18.7972, -2.44343 " /><path d="M19.6129, 2.98741 L19.2972, 2.44343 " /><path id= "15" d=" M 18.2524 -3 L 18.1274 -3 " />
<path d="M17.0827, 2.44343 L16.767, 2.98741 " /><path d="M17.5827, -2.44343 L17.267, -2.98741 " /><path d="M17.7972, -2.44343 Q17.7914, -2.43221 17.7733, -2.41611  Q17.7496, -2.39636 17.7163, -2.3892  Q17.7031, -2.38788 17.6899, -2.38657  Q17.6435, -2.38751 17.6096, -2.41372  Q17.5891, -2.43097 17.5827, -2.44343 " /><path d="M18.2972, 2.44343 Q18.2914, 2.43221 18.2733, 2.41611  Q18.2389, 2.38772 18.19, 2.38657 " /><path d="M17.19, 2.38657 Q17.1435, 2.38751 17.1096, 2.41372  Q17.0891, 2.43097 17.0827, 2.44343 " /><path d="M18.1129, -2.98741 L17.7972, -2.44343 " /><path d="M18.6129, 2.98741 L18.2972, 2.44343 " /><path id= "23" d=" M 17.2524 -3 L 17.1274 -3 " />
<path d="M16.0827, 2.44344 L15.767, 2.98741 " /><path d="M16.5827, -2.44343 L16.267, -2.98742 " /><path d="M16.7972, -2.44343 Q16.7914, -2.43221 16.7733, -2.41611  Q16.7496, -2.39636 16.7163, -2.3892  Q16.7031, -2.38789 16.6899, -2.38657  Q16.6435, -2.38751 16.6096, -2.41372  Q16.5891, -2.43097 16.5827, -2.44343 " /><path d="M17.2972, 2.44344 Q17.2914, 2.43221 17.2733, 2.41611  Q17.2389, 2.38772 17.19, 2.38657 " /><path d="M16.19, 2.38658 Q16.1435, 2.38751 16.1096, 2.41372  Q16.0891, 2.43097 16.0827, 2.44344 " /><path d="M17.1129, -2.98741 L16.7972, -2.44343 " /><path d="M17.6129, 2.98741 L17.2972, 2.44344 " /><path id= "31" d=" M 16.2524 -3 L 16.1274 -3 " />
<path d="M15.0827, 2.44344 L14.767, 2.98741 " /><path d="M15.5827, -2.44343 L15.267, -2.98742 " /><path d="M15.7972, -2.44343 Q15.7914, -2.43221 15.7733, -2.41611  Q15.7496, -2.39636 15.7163, -2.3892  Q15.7031, -2.38789 15.6899, -2.38657  Q15.6435, -2.38751 15.6096, -2.41372  Q15.5891, -2.43097 15.5827, -2.44343 " /><path d="M16.2972, 2.44344 Q16.2914, 2.43222 16.2733, 2.41612  Q16.2389, 2.38772 16.19, 2.38658 " /><path d="M15.19, 2.38658 Q15.1435, 2.38751 15.1096, 2.41372  Q15.0891, 2.43098 15.0827, 2.44344 " /><path d="M16.1129, -2.98741 L15.7972, -2.44343 " /><path d="M16.6128, 2.98741 L16.2972, 2.44344 " /><path id= "39" d=" M 15.2524 -3 L 15.1274 -3 " />
<path d="M14.0827, 2.44344 L13.767, 2.98741 " /><path d="M14.5827, -2.44343 L14.267, -2.98742 " /><path d="M14.7972, -2.44344 Q14.7914, -2.43222 14.7733, -2.41612  Q14.7496, -2.39636 14.7163, -2.3892  Q14.7031, -2.38789 14.6899, -2.38658  Q14.6435, -2.38751 14.6096, -2.41373  Q14.5891, -2.43098 14.5827, -2.44343 " /><path d="M15.2972, 2.44344 Q15.2914, 2.43222 15.2733, 2.41612  Q15.2389, 2.38772 15.19, 2.38658 " /><path d="M14.19, 2.38658 Q14.1435, 2.38751 14.1096, 2.41372  Q14.0891, 2.43098 14.0827, 2.44344 " /><path d="M15.1129, -2.98741 L14.7972, -2.44344 " /><path d="M15.6128, 2.98741 L15.2972, 2.44344 " /><path id= "47" d=" M 14.2524 -3 L 14.1274 -3 " />
<path d="M13.0827, 2.44344 L12.767, 2.98741 " /><path d="M13.5827, -2.44344 L13.267, -2.98742 " /><path d="M13.7972, -2.44344 Q13.7914, -2.43222 13.7733, -2.41612  Q13.7496, -2.39637 13.7163, -2.38921  Q13.7031, -2.38789 13.6899, -2.38658  Q13.6435, -2.38752 13.6096, -2.41373  Q13.5891, -2.43098 13.5827, -2.44344 " /><path d="M14.2972, 2.44344 Q14.2914, 2.43222 14.2733, 2.41612  Q14.2389, 2.38773 14.19, 2.38658 " /><path d="M13.19, 2.38658 Q13.1435, 2.38752 13.1096, 2.41373  Q13.0891, 2.43098 13.0827, 2.44344 " /><path d="M14.1128, -2.98741 L13.7972, -2.44344 " /><path d="M14.6128, 2.98741 L14.2972, 2.44344 " /><path id= "55" d=" M 13.2525 -3 L 13.1274 -3 " />
<path d="M12.0827, 2.44345 L11.767, 2.98741 " /><path d="M12.5827, -2.44344 L12.267, -2.98742 " /><path d="M12.7972, -2.44344 Q12.7914, -2.43222 12.7733, -2.41612  Q12.7496, -2.39637 12.7163, -2.38921  Q12.7031, -2.38789 12.6899, -2.38658  Q12.6435, -2.38752 12.6096, -2.41373  Q12.5891, -2.43098 12.5827, -2.44344 " /><path d="M13.2972, 2.44345 Q13.2914, 2.43222 13.2733, 2.41613  Q13.2389, 2.38773 13.19, 2.38658 " /><path d="M12.19, 2.38659 Q12.1435, 2.38752 12.1096, 2.41373  Q12.0891, 2.43098 12.0827, 2.44345 " /><path d="M13.1128, -2.98741 L12.7972, -2.44344 " /><path d="M13.6128, 2.98741 L13.2972, 2.44345 " /><path id= "63" d=" M 12.2525 -3 L 12.1274 -3 " />
<path d="M11.0827, 2.44345 L10.767, 2.98741 " /><path d="M11.5827, -2.44344 L11.267, -2.98742 " /><path d="M11.7972, -2.44344 Q11.7914, -2.43222 11.7733, -2.41612  Q11.7496, -2.39637 11.7163, -2.38921  Q11.7031, -2.3879 11.69, -2.38658  Q11.6435, -2.38752 11.6096, -2.41373  Q11.5891, -2.43098 11.5827, -2.44344 " /><path d="M12.2972, 2.44345 Q12.2914, 2.43223 12.2733, 2.41613  Q12.2389, 2.38773 12.19, 2.38659 " /><path d="M11.19, 2.38659 Q11.1435, 2.38752 11.1096, 2.41373  Q11.0891, 2.43098 11.0827, 2.44345 " /><path d="M12.1128, -2.98741 L11.7972, -2.44344 " /><path d="M12.6128, 2.98741 L12.2972, 2.44345 " /><path id= "71" d=" M 11.2525 -3 L 11.1274 -3 " />
<path d="M10.0827, 2.44345 L9.76704, 2.98741 " /><path d="M10.5827, -2.44344 L10.267, -2.98742 " /><path d="M10.7972, -2.44345 Q10.7914, -2.43223 10.7733, -2.41613  Q10.7496, -2.39637 10.7163, -2.38921  Q10.7032, -2.3879 10.69, -2.38658  Q10.6435, -2.38752 10.6096, -2.41373  Q10.5891, -2.43098 10.5827, -2.44344 " /><path d="M11.2972, 2.44345 Q11.2914, 2.43223 11.2733, 2.41613  Q11.2389, 2.38773 11.19, 2.38659 " /><path d="M10.19, 2.38659 Q10.1435, 2.38752 10.1096, 2.41373  Q10.0891, 2.43099 10.0827, 2.44345 " /><path d="M11.1128, -2.98741 L10.7972, -2.44345 " /><path d="M11.6128, 2.98741 L11.2972, 2.44345 " /><path id= "79" d=" M 10.2525 -3 L 10.1274 -3 " />
<path d="M9.08274, 2.44345 L8.76704, 2.98741 " /><path d="M9.58274, -2.44344 L9.26703, -2.98742 " /><path d="M9.7972, -2.44345 Q9.79141, -2.43223 9.77331, -2.41613  Q9.7496, -2.39638 9.71635, -2.38922  Q9.70315, -2.3879 9.68996, -2.38659  Q9.64351, -2.38752 9.60962, -2.41374  Q9.58912, -2.43099 9.58274, -2.44344 " /><path d="M10.2972, 2.44345 Q10.2914, 2.43223 10.2733, 2.41613  Q10.2389, 2.38773 10.19, 2.38659 " /><path d="M9.18997, 2.38659 Q9.14352, 2.38752 9.10963, 2.41374  Q9.08912, 2.43099 9.08274, 2.44345 " /><path d="M10.1128, -2.98741 L9.7972, -2.44345 " /><path d="M10.6128, 2.98741 L10.2972, 2.44345 " /><path id= "87" d=" M 9.25245 -3 L 9.12742 -3 " />
<path d="M8.08274, 2.44345 L7.76704, 2.98741 " /><path d="M8.58274, -2.44345 L8.26703, -2.98742 " /><path d="M8.7972, -2.44345 Q8.79142, -2.43223 8.77332, -2.41613  Q8.7496, -2.39638 8.71635, -2.38922  Q8.70315, -2.3879 8.68996, -2.38659  Q8.64351, -2.38753 8.60962, -2.41374  Q8.58912, -2.43099 8.58274, -2.44345 " /><path d="M9.2972, 2.44346 Q9.29141, 2.43224 9.27332, 2.41614  Q9.23889, 2.38774 9.18997, 2.38659 " /><path d="M8.18997, 2.3866 Q8.14352, 2.38753 8.10963, 2.41374  Q8.08912, 2.43099 8.08274, 2.44345 " /><path d="M9.11284, -2.98741 L8.7972, -2.44345 " /><path d="M9.61283, 2.98741 L9.2972, 2.44346 " /><path id= "95" d=" M 8.25245 -3 L 8.12742 -3 " />
<path d="M7.08274, 2.44346 L6.76704, 2.98742 " /><path d="M7.58274, -2.44345 L7.26703, -2.98742 " /><path d="M7.79721, -2.44345 Q7.79142, -2.43224 7.77332, -2.41614  Q7.7496, -2.39638 7.71635, -2.38922  Q7.70316, -2.38791 7.68996, -2.38659  Q7.64351, -2.38753 7.60962, -2.41374  Q7.58912, -2.43099 7.58274, -2.44345 " /><path d="M8.2972, 2.44346 Q8.29142, 2.43224 8.27332, 2.41614  Q8.23889, 2.38774 8.18997, 2.3866 " /><path d="M7.18997, 2.3866 Q7.14352, 2.38753 7.10963, 2.41374  Q7.08913, 2.43099 7.08274, 2.44346 " /><path d="M8.11284, -2.98741 L7.79721, -2.44345 " /><path d="M8.61283, 2.98741 L8.2972, 2.44346 " /><path id= "103" d=" M 7.25245 -3 L 7.12742 -3 " />
<path d="M6.08275, 2.44346 L5.76704, 2.98742 " /><path d="M6.58275, -2.44345 L6.26703, -2.98742 " /><path d="M6.79721, -2.44346 Q6.79142, -2.43224 6.77332, -2.41614  Q6.7496, -2.39638 6.71636, -2.38922  Q6.70316, -2.38791 6.68996, -2.38659  Q6.64351, -2.38753 6.60962, -2.41374  Q6.58913, -2.43099 6.58275, -2.44345 " /><path d="M7.29721, 2.44346 Q7.29142, 2.43224 7.27332, 2.41614  Q7.23889, 2.38774 7.18997, 2.3866 " /><path d="M6.18997, 2.3866 Q6.14352, 2.38753 6.10963, 2.41374  Q6.08913, 2.43099 6.08275, 2.44346 " /><path d="M7.11283, -2.98741 L6.79721, -2.44346 " /><path d="M7.61283, 2.98741 L7.29721, 2.44346 " /><path id= "111" d=" M 6.25245 -3 L 6.12742 -3 " />
<path d="M5.08275, 2.44346 L4.76704, 2.98742 " /><path d="M5.58275, -2.44345 L5.26704, -2.98742 " /><path d="M5.79721, -2.44346 Q5.79142, -2.43224 5.77332, -2.41614  Q5.74961, -2.39639 5.71636, -2.38923  Q5.70316, -2.38791 5.68997, -2.3866  Q5.64351, -2.38753 5.60963, -2.41374  Q5.58913, -2.43099 5.58275, -2.44345 " /><path d="M6.29721, 2.44346 Q6.29142, 2.43224 6.27332, 2.41614  Q6.23889, 2.38774 6.18997, 2.3866 " /><path d="M5.18998, 2.3866 Q5.14353, 2.38753 5.10963, 2.41374  Q5.08913, 2.431 5.08275, 2.44346 " /><path d="M6.11283, -2.98741 L5.79721, -2.44346 " /><path d="M6.61283, 2.98741 L6.29721, 2.44346 " /><path id= "119" d=" M 5.25245 -3 L 5.12741 -3 " />
<path d="M4.08275, 2.44346 L3.76704, 2.98742 " /><path d="M4.58275, -2.44346 L4.26704, -2.98742 " /><path d="M4.79721, -2.44346 Q4.79143, -2.43224 4.77333, -2.41614  Q4.74961, -2.39639 4.71636, -2.38923  Q4.70316, -2.38791 4.68997, -2.3866  Q4.64352, -2.38753 4.60963, -2.41375  Q4.58913, -2.431 4.58275, -2.44346 " /><path d="M5.29721, 2.44347 Q5.29142, 2.43225 5.27332, 2.41615  Q5.2389, 2.38775 5.18998, 2.3866 " /><path d="M4.18998, 2.3866 Q4.14353, 2.38754 4.10964, 2.41375  Q4.08913, 2.431 4.08275, 2.44346 " /><path d="M5.11283, -2.98741 L4.79721, -2.44346 " /><path d="M5.61282, 2.98741 L5.29721, 2.44347 " /><path id= "127" d=" M 4.25245 -3 L 3.58995 -3 " />
<path d="M4.29934, 2.44529 Q4.29283, 2.43289 4.27439, 2.41659  Q4.23931, 2.3877 4.18998, 2.3866 " /><path d="M4.61356, 2.98739 L4.29934, 2.44529 " /><path d="M3.09497, -3.20503 C3.22421, -3.07474 3.40643, -2.99926 3.58995, -3 " /><path id= "131" d=" M 3.09497 -3.20503 L 0.7 -5.6 " />
<path id= "132" d=" M 0.7 -5.6 L 0 -5.6 " />
</g>
<g   fill="none"
   stroke="rgb(0, 0, 0)"
   stroke-linecap="butt"
   stroke-linejoin="miter"
   stroke-width="0.35"
   transform="scale(1, -1)"
  >
<path d="M20, -2.08849 C20, -1.52488 20, -0.740419 20, 0.0461749 " /><path d="M20, -2.7928 C20, -2.79473 20, -2.53676 20, -2.08849 " /><path d="M20, 2.58586 C20, 2.5871 20, 2.39149 20, 2.04388  C20, 1.57577 20, 0.8313 20, 0.0461749 " /><path d="M19.6274, 3 C19.6659, 3.00234 19.7044, 2.72822 19.7429, 2.24476  C19.7701, 1.90518 19.7973, 1.46527 19.8244, 0.980691  C19.883, -0.0634602 19.9415, -1.30054 20, -2.08849 " /><path d="M19.7524, 3 Q19.7597, 3 19.767, 2.98741 " /><path d="M19.767, 2.98741 C19.8062, 2.92224 19.8454, 2.57136 19.8846, 2.02365  C19.9231, 1.48949 19.9615, 0.771796 20, 0.0461749 " /><path id= "7" d=" M 19.7524 3 L 19.6274 3 " />
<path d="M18.7525, 3 Q18.7597, 3 18.767, 2.98741 " /><path d="M18.767, 2.98741 C18.8062, 2.92224 18.8454, 2.57136 18.8846, 2.02366  C18.9297, 1.39782 18.9748, 0.517601 19.0199, -0.328463  C19.0554, -0.993454 19.0908, -1.63045 19.1263, -2.10565  C19.1683, -2.67346 19.2104, -3.0033 19.2524, -3 " /><path d="M19.2524, -3 Q19.2597, -3 19.267, -2.98741 " /><path id= "11" d=" M 18.7525 3 L 18.6274 3 " />
<path d="M18.6274, 3 C18.6659, 3.00234 18.7044, 2.72822 18.7429, 2.24476  C18.7925, 1.62678 18.8422, 0.662951 18.8918, -0.271164  C18.9264, -0.920146 18.9609, -1.54699 18.9955, -2.02638  C19.0346, -2.57255 19.0737, -2.92234 19.1129, -2.98741 " /><path d="M19.1129, -2.98741 Q19.1202, -3 19.1274, -3 " /><path d="M19.6129, 2.98741 Q19.6202, 3 19.6274, 3 " /><path d="M17.7525, 3 Q17.7597, 3 17.767, 2.98741 " /><path d="M17.767, 2.98741 C17.8062, 2.92224 17.8454, 2.57136 17.8846, 2.02365  C17.9297, 1.39781 17.9748, 0.517574 18.0199, -0.3285  C18.0553, -0.992407 18.0907, -1.62842 18.1261, -2.10336  C18.1682, -2.67255 18.2103, -3.00332 18.2524, -3 " /><path d="M18.2524, -3 Q18.2597, -3 18.267, -2.98741 " /><path id= "18" d=" M 17.7525 3 L 17.6274 3 " />
<path d="M17.6274, 3 C17.6659, 3.00234 17.7044, 2.72822 17.7429, 2.24475  C17.7926, 1.62644 17.8422, 0.661878 17.8919, -0.272708  C17.9265, -0.922606 17.9611, -1.55018 17.9957, -2.02961  C18.0348, -2.57396 18.0738, -2.92246 18.1129, -2.98741 " /><path d="M18.1129, -2.98741 Q18.1202, -3 18.1274, -3 " /><path d="M18.6129, 2.98741 Q18.6201, 3 18.6274, 3 " /><path d="M16.7525, 3 Q16.7597, 3 16.767, 2.98741 " /><path d="M16.767, 2.98741 C16.8062, 2.92224 16.8454, 2.57136 16.8846, 2.02366  C16.9297, 1.39782 16.9748, 0.51759 17.0199, -0.328479  C17.0553, -0.993022 17.0908, -1.62961 17.1262, -2.10471  C17.1683, -2.67308 17.2104, -3.00331 17.2524, -3 " /><path d="M17.2524, -3 Q17.2597, -3 17.267, -2.98741 " /><path id= "25" d=" M 16.7525 3 L 16.6274 3 " />
<path d="M16.6274, 3 C16.6659, 3.00234 16.7044, 2.72822 16.7429, 2.24475  C16.7926, 1.62607 16.8423, 0.660714 16.892, -0.274384  C16.9261, -0.915552 16.9603, -1.53497 16.9944, -2.01157  C17.0339, -2.56608 17.0734, -2.92182 17.1129, -2.98741 " /><path d="M17.1129, -2.98741 Q17.1201, -3 17.1274, -3 " /><path d="M17.6129, 2.98741 Q17.6201, 3 17.6274, 3 " /><path d="M15.7525, 3 Q15.7597, 3 15.767, 2.98741 " /><path d="M15.767, 2.98741 C15.8062, 2.92224 15.8454, 2.57136 15.8846, 2.02366  C15.9297, 1.39783 15.9748, 0.517619 16.0199, -0.328439  C16.0554, -0.99408 16.0909, -1.63166 16.1264, -2.10703  C16.1684, -2.67401 16.2104, -3.00329 16.2524, -3 " /><path d="M16.2524, -3 Q16.2597, -3 16.267, -2.98741 " /><path id= "32" d=" M 15.7525 3 L 15.6274 3 " />
<path d="M15.6274, 3 C15.6659, 3.00234 15.7044, 2.72822 15.7429, 2.24474  C15.7923, 1.62984 15.8417, 0.672692 15.8911, -0.257087  C15.9259, -0.911313 15.9607, -1.54405 15.9955, -2.02697  C16.0346, -2.5728 16.0737, -2.92236 16.1129, -2.98741 " /><path d="M16.1129, -2.98741 Q16.1201, -3 16.1274, -3 " /><path d="M16.6128, 2.98741 Q16.6201, 3 16.6274, 3 " /><path d="M14.7525, 3 Q14.7597, 3 14.767, 2.98741 " /><path d="M14.767, 2.98741 C14.8062, 2.92224 14.8454, 2.57136 14.8846, 2.02366  C14.9297, 1.39784 14.9748, 0.517628 15.0199, -0.328427  C15.0554, -0.994381 15.0909, -1.63225 15.1264, -2.10768  C15.1684, -2.67427 15.2104, -3.00328 15.2524, -3 " /><path d="M15.2524, -3 Q15.2597, -3 15.267, -2.98742 " /><path id= "39" d=" M 14.7525 3 L 14.6274 3 " />
<path d="M14.6274, 3 C14.6659, 3.00234 14.7044, 2.72821 14.7429, 2.24474  C14.7923, 1.62959 14.8417, 0.671895 14.8912, -0.258237  C14.9255, -0.904748 14.9599, -1.53029 14.9943, -2.01076  C15.0338, -2.56572 15.0734, -2.92179 15.1129, -2.98741 " /><path d="M15.1129, -2.98741 Q15.1201, -3 15.1274, -3 " /><path d="M15.6128, 2.98741 Q15.6201, 3 15.6274, 3 " /><path d="M13.7525, 3 Q13.7597, 3 13.767, 2.98741 " /><path d="M13.767, 2.98741 C13.8062, 2.92225 13.8454, 2.57136 13.8846, 2.02366  C13.9297, 1.39783 13.9748, 0.517623 14.0199, -0.328433  C14.0554, -0.994228 14.0909, -1.63195 14.1264, -2.10735  C14.1684, -2.67414 14.2104, -3.00329 14.2524, -3 " /><path d="M14.2524, -3 Q14.2597, -3 14.267, -2.98742 " /><path id= "46" d=" M 13.7525 3 L 13.6274 3 " />
<path d="M13.6274, 3 C13.6659, 3.00234 13.7044, 2.72821 13.7429, 2.24473  C13.7923, 1.62936 13.8418, 0.67119 13.8912, -0.259253  C13.9256, -0.906514 13.9601, -1.53267 13.9945, -2.01323  C14.034, -2.5668 14.0734, -2.92187 14.1128, -2.98741 " /><path d="M14.1128, -2.98741 Q14.1201, -3 14.1274, -3 " /><path d="M14.6128, 2.98741 Q14.6201, 3 14.6274, 3 " /><path d="M12.7525, 3 Q12.7597, 3 12.767, 2.98741 " /><path d="M12.767, 2.98741 C12.8062, 2.92225 12.8454, 2.57136 12.8846, 2.02366  C12.9297, 1.39783 12.9748, 0.51762 13.0199, -0.328438  C13.0554, -0.994105 13.0909, -1.63171 13.1264, -2.10708  C13.1684, -2.67403 13.2104, -3.00329 13.2525, -3 " /><path d="M13.2525, -3 Q13.2597, -3 13.267, -2.98742 " /><path id= "53" d=" M 12.7525 3 L 12.6274 3 " />
<path d="M12.6274, 3 C12.6659, 3.00234 12.7044, 2.72821 12.7429, 2.24473  C12.7923, 1.62911 12.8418, 0.670421 12.8913, -0.26036  C12.926, -0.913714 12.9608, -1.5454 12.9955, -2.0276  C13.0346, -2.57308 13.0737, -2.92238 13.1128, -2.98741 " /><path d="M13.1128, -2.98741 Q13.1201, -3 13.1274, -3 " /><path d="M13.6128, 2.98741 Q13.6201, 3 13.6274, 3 " /><path d="M11.7525, 3 Q11.7597, 3 11.767, 2.98741 " /><path d="M11.767, 2.98741 C11.8062, 2.92225 11.8454, 2.57136 11.8846, 2.02366  C11.9297, 1.39784 11.9748, 0.517638 12.0199, -0.328414  C12.0554, -0.994689 12.091, -1.63284 12.1265, -2.10836  C12.1685, -2.67454 12.2105, -3.00328 12.2525, -3 " /><path d="M12.2525, -3 Q12.2597, -3 12.267, -2.98742 " /><path id= "60" d=" M 11.7525 3 L 11.6274 3 " />
<path d="M11.6274, 3 C11.6659, 3.00234 11.7044, 2.72821 11.7429, 2.24473  C11.7924, 1.62887 11.8418, 0.669663 11.8913, -0.261452  C11.926, -0.91278 11.9606, -1.54252 11.9953, -2.02397  C12.0345, -2.57149 12.0737, -2.92225 12.1128, -2.98741 " /><path d="M12.1128, -2.98741 Q12.1201, -3 12.1274, -3 " /><path d="M12.6128, 2.98741 Q12.6201, 3 12.6274, 3 " /><path d="M10.7525, 3 Q10.7597, 3 10.767, 2.98741 " /><path d="M10.767, 2.98741 C10.8062, 2.92225 10.8454, 2.57137 10.8846, 2.02366  C10.9297, 1.39785 10.9748, 0.51765 11.0199, -0.328397  C11.0555, -0.995069 11.091, -1.63358 11.1265, -2.10919  C11.1685, -2.67488 11.2105, -3.00327 11.2525, -3 " /><path d="M11.2525, -3 Q11.2597, -3 11.267, -2.98742 " /><path id= "67" d=" M 10.7525 3 L 10.6274 3 " />
<path d="M10.6274, 3 C10.6659, 3.00234 10.7044, 2.72821 10.7429, 2.24472  C10.7924, 1.62864 10.8419, 0.66893 10.8914, -0.262508  C10.9259, -0.912251 10.9605, -1.54045 10.9951, -2.02129  C11.0343, -2.57032 11.0736, -2.92216 11.1128, -2.98741 " /><path d="M11.1128, -2.98741 Q11.1201, -3 11.1274, -3 " /><path d="M11.6128, 2.98741 Q11.6201, 3 11.6274, 3 " /><path d="M9.75245, 3 Q9.75975, 3 9.76704, 2.98741 " /><path d="M9.76704, 2.98741 C9.80624, 2.92225 9.84542, 2.57137 9.88462, 2.02366  C9.92972, 1.39785 9.97482, 0.517658 10.0199, -0.328386  C10.0555, -0.995326 10.091, -1.63408 10.1266, -2.10976  C10.1685, -2.6751 10.2105, -3.00327 10.2525, -3 " /><path d="M10.2525, -3 Q10.2597, -3 10.267, -2.98742 " /><path id= "74" d=" M 9.75245 3 L 9.62742 3 " />
<path d="M9.62742, 3 C9.6659, 3.00234 9.70439, 2.72821 9.74287, 2.24472  C9.79239, 1.62839 9.84191, 0.668173 9.89143, -0.263597  C9.92565, -0.90682 9.95988, -1.52893 9.99411, -2.00765  C10.0337, -2.56436 10.0733, -2.92167 10.1128, -2.98741 " /><path d="M10.1128, -2.98741 Q10.1201, -3 10.1274, -3 " /><path d="M10.6128, 2.98741 Q10.6201, 3 10.6274, 3 " /><path d="M8.75245, 3 Q8.75975, 3 8.76704, 2.98741 " /><path d="M8.76704, 2.98741 C8.80624, 2.92225 8.84542, 2.57137 8.88462, 2.02366  C8.92972, 1.39786 8.97482, 0.517672 9.01991, -0.328367  C9.05549, -0.995734 9.09107, -1.63488 9.12666, -2.11066  C9.16859, -2.67546 9.21052, -3.00326 9.25245, -3 " /><path d="M9.25245, -3 Q9.25974, -3 9.26703, -2.98742 " /><path id= "81" d=" M 8.75245 3 L 8.62742 3 " />
<path d="M8.62742, 3 C8.6659, 3.00234 8.70439, 2.7282 8.74287, 2.24471  C8.79241, 1.62817 8.84194, 0.667466 8.89148, -0.264615  C8.92601, -0.913589 8.96054, -1.54092 8.99508, -2.02123  C9.03433, -2.5703 9.07359, -2.92215 9.11284, -2.98741 " /><path d="M9.11284, -2.98741 Q9.12013, -3 9.12742, -3 " /><path d="M9.61283, 2.98741 Q9.62013, 3 9.62742, 3 " /><path d="M7.75245, 3 Q7.75975, 3 7.76704, 2.98741 " /><path d="M7.76704, 2.98741 C7.80624, 2.92225 7.84542, 2.57137 7.88462, 2.02367  C7.92972, 1.39786 7.97482, 0.517676 8.01991, -0.328361  C8.0555, -0.995862 8.09109, -1.63513 8.12668, -2.11094  C8.1686, -2.67557 8.21053, -3.00326 8.25245, -3 " /><path d="M8.25245, -3 Q8.25974, -3 8.26703, -2.98742 " /><path id= "88" d=" M 7.75245 3 L 7.62742 3 " />
<path d="M7.62742, 3 C7.6659, 3.00234 7.70439, 2.7282 7.74287, 2.24471  C7.79242, 1.62794 7.84198, 0.666764 7.89153, -0.265625  C7.9262, -0.917204 7.96087, -1.54686 7.99555, -2.02779  C8.03464, -2.57316 8.07374, -2.92239 8.11284, -2.98741 " /><path d="M8.11284, -2.98741 Q8.12013, -3 8.12742, -3 " /><path d="M8.61283, 2.98741 Q8.62013, 3 8.62742, 3 " /><path d="M6.75245, 3 Q6.75975, 3 6.76704, 2.98742 " /><path d="M6.76704, 2.98742 C6.80624, 2.92225 6.84542, 2.57137 6.88462, 2.02367  C6.92972, 1.39786 6.97482, 0.517685 7.01991, -0.32835  C7.05551, -0.996096 7.09111, -1.63558 7.12672, -2.11145  C7.16863, -2.67578 7.21054, -3.00326 7.25245, -3 " /><path d="M7.25245, -3 Q7.25974, -3 7.26703, -2.98742 " /><path id= "95" d=" M 6.75245 3 L 6.62742 3 " />
<path d="M6.62742, 3 C6.6659, 3.00234 6.70438, 2.7282 6.74287, 2.2447  C6.79244, 1.62771 6.84201, 0.666048 6.89158, -0.266656  C6.92581, -0.909754 6.96003, -1.53152 6.99425, -2.00978  C7.03378, -2.56529 7.07331, -2.92175 7.11283, -2.98741 " /><path d="M7.11283, -2.98741 Q7.12013, -3 7.12742, -3 " /><path d="M7.61283, 2.98741 Q7.62012, 3 7.62742, 3 " /><path d="M5.75245, 3 Q5.75975, 3 5.76704, 2.98742 " /><path d="M5.76704, 2.98742 C5.80624, 2.92225 5.84543, 2.57137 5.88462, 2.02367  C5.92972, 1.39786 5.97482, 0.517692 6.01991, -0.32834  C6.05552, -0.99629 6.09114, -1.63596 6.12675, -2.11188  C6.16865, -2.67595 6.21055, -3.00325 6.25245, -3 " /><path d="M6.25245, -3 Q6.25974, -3 6.26703, -2.98742 " /><path id= "102" d=" M 5.75245 3 L 5.62741 3 " />
<path d="M5.62741, 3 C5.66589, 3.00234 5.70438, 2.7282 5.74287, 2.2447  C5.79245, 1.62748 5.84204, 0.665343 5.89163, -0.267671  C5.9259, -0.911606 5.96017, -1.53407 5.99444, -2.01244  C6.0339, -2.56645 6.07337, -2.92184 6.11283, -2.98741 " /><path d="M6.11283, -2.98741 Q6.12012, -3 6.12742, -3 " /><path d="M6.61283, 2.98741 Q6.62012, 3 6.62742, 3 " /><path d="M4.75246, 3 Q4.75975, 3 4.76704, 2.98742 " /><path d="M4.76704, 2.98742 C4.80624, 2.92225 4.84543, 2.57137 4.88462, 2.02367  C4.92972, 1.39787 4.97482, 0.517702 5.01991, -0.328326  C5.05554, -0.996573 5.09117, -1.63651 5.1268, -2.1125  C5.16868, -2.6762 5.21057, -3.00325 5.25245, -3 " /><path d="M5.25245, -3 Q5.25974, -3 5.26704, -2.98742 " /><path id= "109" d=" M 4.75246 3 L 4.62741 3 " />
<path d="M4.62741, 3 C4.66589, 3.00234 4.70438, 2.7282 4.74286, 2.2447  C4.79247, 1.62726 4.84208, 0.664648 4.89168, -0.268671  C4.92606, -0.914618 4.96044, -1.53886 4.99481, -2.0177  C5.03415, -2.56875 5.07349, -2.92202 5.11283, -2.98741 " /><path d="M5.11283, -2.98741 Q5.12012, -3 5.12741, -3 " /><path d="M5.61282, 2.98741 Q5.62012, 3 5.62741, 3 " /><path d="M3.75246, 3 Q3.75975, 3 3.76704, 2.98742 " /><path d="M3.76704, 2.98742 C3.80624, 2.92225 3.84543, 2.57137 3.88462, 2.02367  C3.92972, 1.39787 3.97482, 0.517709 4.01991, -0.328317  C4.05555, -0.996758 4.09119, -1.63687 4.12683, -2.11291  C4.1687, -2.67636 4.21058, -3.00325 4.25245, -3 " /><path d="M4.25245, -3 Q4.25974, -3 4.26704, -2.98742 " /><path id= "116" d=" M 3.75246 3 L 3.58995 3 " />
<path d="M4.61356, 2.98739 Q4.62085, 3 4.62741, 3 " /><path d="M3.58995 3 A0.7 0.7 0 0 0 3.09497 3.20503" /><path id= "119" d=" M 3.09497 3.20503 L 0.7 5.6 " />
<path d="M0.7, -5.6 L0.7, -5.4596  L0.7, -5.04543  L0.7, -4.37826  L0.7, -3.49154  L0.7, -2.42975  L0.7, -1.24612  L0.7, -1.11022e-15  L0.7, 1.24612  L0.7, 2.42975  L0.7, 3.49154  L0.7, 4.37826  L0.7, 5.04543  L0.7, 5.4596  L0.7, 5.6 " /><path id= "121" d=" M 0.7 5.6 L 0 5.6 " />
<path d="M0, -5.6 L0, -5.4596  L0, -5.04543  L0, -4.37826  L0, -3.49154  L0, -2.42975  L0, -1.24612  L0, -1.11022e-15  L0, 1.24612  L0, 2.42975  L0, 3.49154  L0, 4.37826  L0, 5.04543  L0, 5.4596  L0, 5.6 " /></g>

</svg>
