<svg xmlns="http://www.w3.org/2000/svg" viewBox="-6.4959999999999996 -6.4959999999999996 12.991999999999999 12.991999999999999">
<rect width="100%" height="100%" fill="white"/>
<g   fill="none"
   stroke="rgb(0, 0, 0)"
   stroke-linecap="butt"
   stroke-linejoin="miter"
   stroke-width="0.35"
   transform="scale(1, -1)"
  >
<circle cx ="0" cy ="0" r ="5.6" /><path id= "2" d=" M 0.99 1.84556 L 2.06252 2.70296 " />
<path d="M2.06252 2.70296 A3.4 3.4 0 0 0 2.70296 2.06252" /><path id= "4" d=" M 2.70296 2.06252 L 1.84556 0.99 " />
<path id= "5" d=" M 1.84556 0.99 L 1.54441 1.87643e-13 " />
<path id= "6" d=" M 1.54441 -1.87643e-13 L 1.84556 -0.99 " />
<path id= "7" d=" M 1.84556 -0.99 L 2.70296 -2.06252 " />
<path d="M2.70296 -2.06252 A3.4 3.4 0 0 0 2.06252 -2.70296" /><path id= "9" d=" M 2.06252 -2.70296 L 0.99 -1.84556 " />
<path id= "10" d=" M 0.99 -1.84556 L 1.87327e-13 -1.54441 " />
<path id= "11" d=" M -1.87958e-13 -1.54441 L -0.99 -1.84556 " />
<path id= "12" d=" M -0.99 -1.84556 L -2.06252 -2.70296 " />
<path d="M-2.06252 -2.70296 A3.4 3.4 0 0 0 -2.70296 -2.06252" /><path id= "14" d=" M -2.70296 -2.06252 L -1.84556 -0.99 " />
<path id= "15" d=" M -1.84556 -0.99 L -1.54441 -1.8747e-13 " />
<path id= "16" d=" M -1.54441 1.87819e-13 L -1.84556 0.99 " />
<path id= "17" d=" M -1.84556 0.99 L -2.70296 2.06252 " />
<path d="M-2.70296 2.06252 A3.4 3.4 0 0 0 -2.06252 2.70296" /><path id= "19" d=" M -2.06252 2.70296 L -0.99 1.84556 " />
<path id= "20" d=" M -0.99 1.84556 L -1.87487e-13 1.54441 " />
<path id= "21" d=" M 1.87799e-13 1.54441 L 0.99 1.84556 " />
<path d="M2.06252, 2.70296 C1.61633, 2.21293 1.29772, 1.86334 1.04857, 1.59045 " /><path id= "23" d=" M 0.99 1.84556 L 0.99 1.53964 " />
<path d="M1.04857, 1.59045 L0.99, 1.53964 " /><path id= "25" d=" M 1.71464e-16 1.54441 L 1.33782e-16 1.205 " />
<path d="M0.99, 1.53964 C0.573499, 1.39439 0.273325, 1.29292 1.98674e-13, 1.205 " /><path id= "27" d=" M -0.99 1.84556 L -0.99 1.53964 " />
<path d="M-1.98508e-13, 1.205 C-0.273325, 1.29292 -0.573499, 1.39439 -0.99, 1.53964 " /><path d="M-1.04857, 1.59045 C-1.29772, 1.86334 -1.61633, 2.21293 -2.06252, 2.70296 " /><path d="M-0.99, 1.53964 L-1.04857, 1.59045 " /><path d="M-2.70296, 2.06252 C-2.21293, 1.61633 -1.86334, 1.29772 -1.59045, 1.04857 " /><path d="M-1.04857 1.59045 A1.905 1.905 0 0 1 -1.59045 1.04857" /><path id= "33" d=" M -1.84556 0.99 L -1.53964 0.99 " />
<path d="M-1.59045, 1.04857 L-1.53964, 0.99 " /><path id= "35" d=" M -1.54441 1.89136e-16 L -1.205 1.4757e-16 " />
<path d="M-1.53964, 0.99 C-1.39439, 0.573499 -1.29292, 0.273325 -1.205, 1.98674e-13 " /><path id= "37" d=" M -1.84556 -0.99 L -1.53964 -0.99 " />
<path d="M-1.205, -1.98452e-13 C-1.29292, -0.273325 -1.39439, -0.573499 -1.53964, -0.99 " /><path d="M-1.59045, -1.04857 C-1.86334, -1.29772 -2.21293, -1.61633 -2.70296, -2.06252 " /><path d="M-1.53964, -0.99 L-1.59045, -1.04857 " /><path d="M-2.06252, -2.70296 C-1.61633, -2.21293 -1.29772, -1.86334 -1.04857, -1.59045 " /><path d="M-1.59045 -1.04857 A1.905 1.905 0 0 1 -1.04857 -1.59045" /><path id= "43" d=" M -0.99 -1.84556 L -0.99 -1.53964 " />
<path d="M-1.04857, -1.59045 L-0.99, -1.53964 " /><path id= "45" d=" M -3.42928e-16 -1.54441 L -2.67564e-16 -1.205 " />
<path d="M-0.99, -1.53964 C-0.573499, -1.39439 -0.273325, -1.29292 -1.98674e-13, -1.205 " /><path id= "47" d=" M 0.99 -1.84556 L 0.99 -1.53964 " />
<path d="M1.98508e-13, -1.205 C0.273325, -1.29292 0.573499, -1.39439 0.99, -1.53964 " /><path d="M1.04857, -1.59045 C1.29772, -1.86334 1.61633, -2.21293 2.06252, -2.70296 " /><path d="M0.99, -1.53964 L1.04857, -1.59045 " /><path d="M2.70296, -2.06252 C2.21293, -1.61633 1.86334, -1.29772 1.59045, -1.04857 " /><path d="M1.04857 -1.59045 A1.905 1.905 0 0 1 1.59045 -1.04857" /><path id= "53" d=" M 1.84556 -0.99 L 1.53964 -0.99 " />
<path d="M1.59045, -1.04857 L1.53964, -0.99 " /><path id= "55" d=" M 1.54441 0 L 1.205 0 " />
<path d="M1.53964, -0.99 C1.39439, -0.573499 1.29292, -0.273325 1.205, -1.98674e-13 " /><path d="M1.205, 1.98452e-13 C1.29292, 0.273325 1.39439, 0.573499 1.53964, 0.99 " /><path id= "58" d=" M 1.84556 0.99 L 1.53964 0.99 " />
<path d="M1.59045, 1.04857 C1.86334, 1.29772 2.21293, 1.61633 2.70296, 2.06252 " /><path d="M1.53964, 0.99 L1.59045, 1.04857 " /><path d="M1.59045 1.04857 A1.905 1.905 0 0 1 1.04857 1.59045" /></g>

</svg>
