<svg xmlns="http://www.w3.org/2000/svg" viewBox="-22.1655272 -14.2426272 28.987344399999998 20.7878544">
<rect width="100%" height="100%" fill="white"/>
<g   fill="none"
   stroke="rgb(0, 0, 0)"
   stroke-linecap="butt"
   stroke-linejoin="miter"
   stroke-width="0.35"
   transform="scale(1, -1)"
  >
<path d="M3.81562, 2.32252 Q3.81566, 2.65304 3.775, 2.96164 " /><path d="M-3.45939, -4.5461 C-3.01755, -4.89412 -2.45466, -5.06007 -1.85737, -5.02941  C-1.27072, -5.00122 -0.64974, -4.79128 -0.0429583, -4.43017  C0.982722, -3.82368 1.96857, -2.77044 2.67441, -1.54303  C3.39807, -0.294245 3.81882, 1.11552 3.81562, 2.32252 " /><path id= "3" d=" M -7.00634 -1.76792 L -3.45939 -4.5461 " />
<path id= "4" d=" M 4.82269 7.20953 L 4.82269 6.22973 " />
<path d="M2.17633, 12.2435 C2.99833, 11.5442 3.65126, 10.7667 4.10174, 9.93766  C4.57532, 9.06817 4.82341, 8.14011 4.82269, 7.20953 " /><path d="M-7.86781, -0.310749 C-7.73092, -0.920226 -7.43606, -1.43246 -7.00634, -1.76792 " /><path d="M-3.79665, 6.92533 C-4.07625, 6.82612 -4.35456, 6.69027 -4.63159, 6.51778  C-5.49183, 5.98505 -6.31228, 5.1044 -6.91398, 4.08082  C-7.39499, 3.26653 -7.73483, 2.36872 -7.88004, 1.52069 " /><path id= "8" d=" M -7.87988 1.52164 L -16.6874 3.89284 " />
<path d="M-19.7852, -2.08056 C-17.3899, -3.022 -14.5187, -3.53042 -11.6398, -3.52788  C-9.60101, -3.52866 -7.56356, -3.27669 -5.69885, -2.79203 " /><path id= "10" d=" M -1.27191 3.79937 L -5.35734 8.85766 " />
<path d="M3.02237, 2.00792 C4.1842, 3.26896 4.82587, 4.73995 4.82269, 6.22973 " /><path d="M2.17633 12.2435 A0.6 0.6 0 0 1 1.75927 12.3859" /><path d="M-5.14999, 10.7555 C-3.19329, 11.6969 -0.752139, 12.2702 1.75927, 12.3859 " /><path d="M-5.14999 10.7555 A0.6 0.6 0 0 1 -5.49057 10.2145" /><path d="M-16.6874 3.89284 A0.6 0.6 0 0 1 -17.1859 3.80613" /><path d="M-20.1605, -0.458279 C-20.0756, 0.145363 -19.8704, 0.739072 -19.5562, 1.30322  C-19.0389, 2.23351 -18.2266, 3.08316 -17.1859, 3.80613 " /><path d="M-20.1605 -0.458279 A0.6 0.6 0 0 1 -20.1664 -0.54209" /><path d="M-20.1664, -0.54209 L-20.1664, -1.52189 " /><path d="M-20.1664 -1.52189 A0.6 0.6 0 0 1 -19.7852 -2.08056" /><path d="M-5.49057 9.23466 A0.6 0.6 0 0 1 -5.35734 8.85766" /><path id= "21" d=" M -5.49057 9.23466 L -5.49057 10.2145 " />
</g>
<g   fill="none"
   stroke="rgb(0, 0, 0)"
   stroke-linecap="butt"
   stroke-linejoin="miter"
   stroke-width="0.35"
   transform="scale(1, -1)"
  >
<path d="M3.02237, 2.00792 C2.91638, 1.89181 2.7494, 1.87328 2.59838, 1.94347 " /><path d="M2.59838, 1.94347 Q0.94931, 2.6943 -0.557179, 3.37946 " /><path d="M-0.810797, 3.51202 Q-0.685392, 3.4379 -0.557179, 3.37946 " /><path d="M-7.83418, 1.27019 C-7.83928, 0.951235 -7.83928, 0.612099 -7.83418, 0.290398 " /><path d="M-7.83418, 0.290398 C-7.83197, 0.177617 -7.85788, 0.0551221 -7.87074, -0.0542141  C-7.88413, -0.149403 -7.88316, -0.234915 -7.86781, -0.310749 " /><path d="M-0.810797, 3.51202 C-0.963865, 3.60184 -1.16765, 3.66839 -1.27191, 3.79937 " /><path d="M-7.87884, 1.52136 L-7.88004, 1.52069 " /><path d="M-7.88004, 1.52069 C-7.88356, 1.51461 -7.83236, 1.43386 -7.83418, 1.27019 " /><path d="M-2.63641 4.72265 A3 1.73205 60 1 1 -3.58291 1.08665" />
<path d="M-3.58291 1.08665 A3 1.73205 60 0 1 -2.73253 2.55956" />
<path d="M-2.73253 2.55956 A3 1.73205 60 0 1 -2.63639 2.84762" />
<path d="M-2.63641, 4.72265 L-2.63633, 4.72252 " /><path d="M-2.44935, 3.8931 C-2.44908, 4.1066 -2.47691, 4.30503 -2.52637, 4.46771 " /><path d="M-2.52637, 4.46771 Q-2.57523, 4.62494 -2.63633, 4.72252 " /><path d="M-2.44935, 3.8931 C-2.44982, 3.70225 -2.46991, 3.50746 -2.50962, 3.30873  C-2.54248, 3.14247 -2.58975, 2.97654 -2.63634, 2.84775 " /><path d="M-2.63634, 2.84775 L-2.63639, 2.84762 " /><path d="M-2.5754 3.49445 A2.45873 1.41955 60 0 1 -3.08462 4.62001" />
<path d="M-3.08462 4.62001 A2.45873 1.41955 60 0 1 -4.05181 4.62664" />
<path d="M-4.05181, 4.62664 C-4.37697, 4.52644 -4.72049, 4.31264 -5.03466, 4.01753  C-5.35725, 3.71565 -5.64791, 3.32939 -5.86645, 2.91619  C-6.0901, 2.49503 -6.23808, 2.04739 -6.29122, 1.6392  C-6.3464, 1.2225 -6.30291, 0.848231 -6.16948, 0.571192  C-6.03294, 0.284649 -5.80149, 0.102314 -5.51178, 0.0512496  C-5.21074, -0.00340524 -4.84775, 0.084471 -4.48092, 0.301229  C-4.16931, 0.484425 -3.85572, 0.759265 -3.57526, 1.0959 " /><path d="M-2.73316, 2.55785 Q-2.67966, 2.70252 -2.63639, 2.84762 " /><path d="M-2.54745, 3.6012 C-2.52205, 3.98737 -2.55038, 4.37249 -2.63641, 4.72265 " /><path d="M-3.05098, 4.59949 C-3.32863, 4.74496 -3.68148, 4.75375 -4.05181, 4.62664 " /><path d="M-2.60883, 3.03394 C-2.98605, 2.75393 -3.33698, 2.35707 -3.60109, 1.91919  C-3.87, 1.47581 -4.04815, 0.992961 -4.10627, 0.564758 " /><path d="M-2.58547, 3.27285 C-3.05878, 2.97944 -3.50972, 2.49082 -3.82277, 1.94522  C-4.1197, 1.43258 -4.29214, 0.875675 -4.30455, 0.414567 " /><path d="M-2.59525 3.18046 A2.45873 1.41955 60 0 1 -2.5754 3.49445" />
<path d="M-2.59525, 3.18046 Q-2.56139, 3.38936 -2.54745, 3.6012 " /><path d="M-2.7703, 4.30548 C-3.15447, 4.32956 -3.60473, 4.16374 -4.02488, 3.84906  C-4.4012, 3.5693 -4.75123, 3.1733 -5.01485, 2.73643  C-5.32916, 2.21921 -5.51787, 1.64856 -5.54023, 1.17295  C-5.56386, 0.722616 -5.44009, 0.361015 -5.20297, 0.173742 " /><path d="M-2.83116, 4.39491 C-3.2419, 4.46344 -3.74575, 4.29606 -4.21184, 3.94349  C-4.60326, 3.65014 -4.96527, 3.23109 -5.23079, 2.7724  C-5.53214, 2.25567 -5.70705, 1.69287 -5.71885, 1.22795  C-5.73396, 0.748322 -5.57655, 0.377975 -5.29521, 0.21809 " /><path d="M-5.29521, 0.21809 Q-5.10222, 0.107297 -4.85094, 0.125537 " /><path d="M-2.63592, 2.84891 Q-2.60634, 3.01758 -2.59525, 3.18046 " /><path d="M-2.60089, 3.82225 C-3.2187, 3.63109 -3.88096, 3.04164 -4.30797, 2.32781  C-4.62294, 1.80941 -4.81168, 1.23737 -4.8333, 0.761165  C-4.84392, 0.533215 -4.81964, 0.333015 -4.76046, 0.160564 " /><path d="M-2.63058, 3.96438 C-2.91595, 3.90032 -3.21789, 3.75133 -3.50512, 3.53495  C-3.89827, 3.24023 -4.26168, 2.8187 -4.52747, 2.35763  C-4.82642, 1.84288 -4.99985, 1.2831 -5.01173, 0.820242  C-5.01972, 0.547008 -4.97334, 0.30741 -4.8782, 0.123879 " /></g>

</svg>
