<svg xmlns="http://www.w3.org/2000/svg" viewBox="-18.475908 -18.199008 20.986116 36.398016">
<rect width="100%" height="100%" fill="white"/>
<g   fill="none"
   stroke="rgb(0, 0, 0)"
   stroke-linecap="butt"
   stroke-linejoin="miter"
   stroke-width="0.35"
   transform="scale(1, -1)"
  >
<path d="M-0.557312, -5.68569 C-0.459838, -5.69636 -0.367004, -5.68026 -0.278809, -5.6374  C-0.110724, -5.55672 0.00199672, -5.37543 0, -5.18899 " /><path id= "2" d=" M -1.17577 -5.61433 L -0.557312 -5.68569 " />
<path d="M-6.49904, -4.58531 L-6.5, -4.55437 " /></g>
<g   fill="none"
   stroke="rgb(0, 0, 0)"
   stroke-linecap="butt"
   stroke-linejoin="miter"
   stroke-width="0.35"
   transform="scale(1, -1)"
  >
<path d="M0, 5.18899 L0, 5.17694  L0, 5.14084  L0, 5.08086  L0, 4.99729  L0, 4.8905  L0, 4.76099  L0, 4.60937  L0, 4.43634  L0, 4.2427  L0, 4.02936  L0, 3.7973  L0, 3.5476  L0, 3.28142  L0, 3 " /><path d="M0, -5.18899 L0, -5.05889  L0, -4.67512  L0, -4.05692  L0, -3.23528  L0, -2.25142  L0, -1.15466  L0, -1.33227e-15  L0, 1.15466  L0, 2.25142  L0, 3.23528  L0, 4.05692  L0, 4.67512  L0, 5.05889  L0, 5.18899 " /><path d="M0 5.18899 A0.5 0.5 0 0 1 -0.557312 5.68569" /><path id= "4" d=" M -0.557312 5.68569 L -1.17577 5.61433 " />
<path d="M-1.16613, 5.5833 L-1.16764, 5.58819 " /><path d="M-1.16613, 5.5833 C-1.15083, 5.54792 -1.44541, 5.44969 -1.74292, 5.41758 " /><path d="M-1.74292, 5.41758 Q-3.82857, 5.1711 -5.73296, 4.94499 " /><path d="M-6.05731, 4.91067 Q-5.89507, 4.92577 -5.73296, 4.94499 " /><path d="M-6.05731, -4.91067 Q-5.89507, -4.92577 -5.73296, -4.94499 " /><path d="M-1.74292, -5.41758 Q-3.82857, -5.1711 -5.73296, -4.94499 " /><path d="M-1.16613, -5.5833 C-1.15083, -5.54792 -1.44541, -5.44969 -1.74292, -5.41758 " /><path id= "12" d=" M -6.49904 4.58531 L -15.5735 7.88813 " />
<path d="M-6.49904, -4.58531 Q-6.49956, -4.5855 -6.49526, -4.58394 " /><path d="M-6.49526, -4.58394 C-6.49364, -4.58407 -6.46177, -4.70339 -6.34951, -4.79099  C-6.27667, -4.85106 -6.17272, -4.90021 -6.05731, -4.91067 " /><path d="M-6.05731, 4.91067 C-6.17279, 4.9002 -6.2768, 4.851 -6.34965, 4.79087  C-6.4618, 4.70329 -6.49363, 4.58407 -6.49526, 4.58394 " /><path d="M-6.49526, 4.58394 Q-6.49956, 4.5855 -6.49904, 4.58531 " /><path d="M-6.49904 4.58531 A0.5 0.5 0 0 1 -6.5 4.55437" /><path d="M-6.5, -4.55437 L-6.5, -4.44019  L-6.5, -4.10335  L-6.5, -3.56075  L-6.5, -2.83961  L-6.5, -1.97607  L-6.5, -1.01344  L-6.5, -1.11022e-15  L-6.5, 1.01344  L-6.5, 1.97607  L-6.5, 2.83961  L-6.5, 3.56075  L-6.5, 4.10335  L-6.5, 4.44019  L-6.5, 4.55437 " /><path d="M-6.05731, -4.91067 C-6.17279, -4.9002 -6.2768, -4.851 -6.34965, -4.79087  C-6.44876, -4.71243 -6.48666, -4.61083 -6.49316, -4.58782 " /><path id= "20" d=" M -6.49904 -4.58531 L -15.5735 -7.88813 " />
<path d="M-12.4587 -15.6888 A14.7215 14.7215 0 0 1 -1.16613 -5.5833" /><path id= "22" d=" M -6.49526 -4.58394 L -15.5735 -7.88813 " />
<path id= "23" d=" M -6.49526 4.58394 L -15.5735 7.88813 " />
<path d="M-12.4587 15.6888 A14.7215 14.7215 0 0 0 -1.16613 5.5833" /><path d="M-13.0289 15.4879 A0.6 0.6 0 0 0 -12.4587 15.6888" /><path d="M-13.0289 15.4879 A0.6 0.6 0 0 0 -12.4587 15.6888" /><path d="M-15.5735 7.88813 A0.6 0.6 0 0 0 -15.9657 8.50726" /><path d="M-15.5735 -7.88813 A0.6 0.6 0 0 1 -15.9657 -8.50726" /><path d="M-13.0289 -15.4879 A0.6 0.6 0 0 1 -12.4587 -15.6888" /><path d="M-13.0289 -15.4879 A0.6 0.6 0 0 1 -12.4587 -15.6888" /><path d="M-15.9657 -8.50726 A12.5735 12.5735 0 0 1 -13.0289 -15.4879" /><path d="M-15.5735 -7.88813 A0.6 0.6 0 0 1 -15.9657 -8.50726" /><path d="M-15.5735 7.88813 A0.6 0.6 0 0 0 -15.9657 8.50726" /><path d="M-15.9657 8.50726 A12.5735 12.5735 0 0 0 -13.0289 15.4879" /></g>

</svg>
