<svg xmlns="http://www.w3.org/2000/svg" viewBox="-18.21142 -4.942539999999999 36.42284 9.789449999999999">
<rect width="100%" height="100%" fill="white"/>
<g   fill="none"
   stroke="rgb(0, 0, 0)"
   stroke-linecap="butt"
   stroke-linejoin="miter"
   stroke-width="0.35"
   transform="scale(1, -1)"
  >
<path d="M5.56098, 1.2 C5.28512, 2.4968 4.53675, 3.68557 3.48682, 4.49518  C2.85172, 4.98854 2.11017, 5.34461 1.32807, 5.53181  C0.546228, 5.72007 -0.276153, 5.73948 -1.06601, 5.58822  C-1.79755, 5.4491 -2.50123, 5.16406 -3.12339, 4.7549  C-3.74598, 4.34642 -4.28705, 3.81381 -4.70528, 3.1977  C-5.11528, 2.59499 -5.40759, 1.91262 -5.56099, 1.2 " /><path d="M-5.56099, -1.2 C-5.45666, -1.68216 -5.29264, -2.14307 -5.06893, -2.58275  C-4.70642, -3.29808 -4.18501, -3.93713 -3.55643, -4.43994  C-2.92826, -4.94375 -2.19324, -5.31124 -1.41487, -5.51054  C-0.636759, -5.71088 0.184381, -5.74294 0.977562, -5.60407  C1.77063, -5.46628 2.53541, -5.15747 3.19769, -4.70525  C4.39629, -3.89707 5.26134, -2.61424 5.56098, -1.2 " /><path d="M15.6995, -0.6 L15.6995, 0.6 " /><path d="M15.6995 0.6 A0.6 0.6 0 0 1 15.0995 1.2" /><path d="M-15.0995 1.2 A0.6 0.6 0 0 1 -15.6995 0.6" /><path d="M-15.6995, 0.6 L-15.6995, -0.6 " /><path d="M-15.6995 -0.6 A0.6 0.6 0 0 1 -15.0995 -1.2" /><path d="M15.0995 -1.2 A0.6 0.6 0 0 1 15.6995 -0.6" /><path d="M3.0361, 1.83378e-05 L3.0361, -5.11587e-08 " /><path d="M3.03609, -0.00530187 L3.03609, -3.65401e-08 " /><path d="M3.03608, -0.009033 L3.0361, -4.38492e-08 " /></g>
<g   fill="none"
   stroke="rgb(0, 0, 0)"
   stroke-linecap="butt"
   stroke-linejoin="miter"
   stroke-width="0.35"
   transform="scale(1, -1)"
  >
<path d="M4.91067, -1.18267 Q4.92577, -1.19987 4.94499, -1.2 " /><path d="M-4.91067, -1.18267 Q-4.92577, -1.19987 -4.94499, -1.2 " /><path d="M-4.91067, 1.18267 Q-4.92577, 1.19987 -4.94499, 1.2 " /><path d="M4.91067, 1.18267 Q4.92577, 1.19987 4.94499, 1.2 " /><path d="M5.41758, 1.2 Q5.1711, 1.2 4.94499, 1.2 " /><path d="M-0.770183, -2.33499 C-0.224034, -2.51691 0.385849, -2.49722 0.919124, -2.28048  C1.36169, -2.10298 1.74977, -1.79305 2.02075, -1.40069  C2.30467, -0.992758 2.45968, -0.497004 2.45873, 1.10064e-07 " /><path d="M15.0995, 1.2 L14.8533, 1.2  L14.526, 1.2  L14.1196, 1.2  L13.6365, 1.2  L13.0795, 1.2  L12.4519, 1.2  L11.7576, 1.2  L11.0006, 1.2  L10.1855, 1.2  L9.317, 1.2  L8.4004, 1.2  L7.44112, 1.2  L6.44487, 1.2  L5.41758, 1.2 " /><path id= "8" d=" M 4.94499 1.2 L 8.45195 1.2 " />
<path d="M8.45195, 1.2 Q9.23383, 1.2 10.0011, 1.2  Q10.5103, 1.2 11.0102, 1.2  Q11.5069, 1.2 11.9913, 1.2  Q12.2301, 1.2 12.469, 1.2  Q12.703, 1.2 12.9369, 1.2  Q13.1656, 1.2 13.3942, 1.2  Q13.6171, 1.2 13.8399, 1.2  Q14.0566, 1.2 14.2733, 1.2  Q14.4833, 1.2 14.6934, 1.2  Q14.8964, 1.2 15.0995, 1.2 " /><path d="M4.58394, 0.6 C4.58407, 0.826969 4.70339, 0.996536 4.79099, 1.08328  C4.85106, 1.14337 4.90021, 1.17072 4.91067, 1.18267 " /><path d="M-4.58394, 0.6 C-4.58586, 0.207674 -4.58586, -0.207681 -4.58394, -0.6 " /><path d="M-4.58394, -0.6 C-4.58407, -0.826969 -4.70339, -0.996536 -4.79099, -1.08328  C-4.85106, -1.14337 -4.90021, -1.17072 -4.91067, -1.18267 " /><path d="M4.91067, -1.18267 C4.9002, -1.17071 4.851, -1.14333 4.79087, -1.08317  C4.70329, -0.996399 4.58407, -0.82687 4.58394, -0.6 " /><path d="M4.58394, -0.6 Q4.5855, -0.304326 4.58531, -2.22045e-16 " /><path d="M4.58394, 0.6 Q4.5855, 0.304326 4.58531, -2.22045e-16 " /><path d="M-4.91067, 1.18267 C-4.9002, 1.17071 -4.851, 1.14333 -4.79087, 1.08317  C-4.70329, 0.996399 -4.58407, 0.82687 -4.58394, 0.6 " /><path id= "17" d=" M -4.94499 1.2 L -8.45195 1.2 " />
<path d="M-8.45195, 1.2 Q-9.23383, 1.2 -10.0011, 1.2  Q-10.5103, 1.2 -11.0102, 1.2  Q-11.5069, 1.2 -11.9913, 1.2  Q-12.2301, 1.2 -12.469, 1.2  Q-12.703, 1.2 -12.9369, 1.2  Q-13.1656, 1.2 -13.3942, 1.2  Q-13.6171, 1.2 -13.8399, 1.2  Q-14.0566, 1.2 -14.2733, 1.2  Q-14.4833, 1.2 -14.6934, 1.2  Q-14.8964, 1.2 -15.0995, 1.2 " /><path d="M-15.0995, 1.2 L-14.8533, 1.2  L-14.526, 1.2  L-14.1196, 1.2  L-13.6365, 1.2  L-13.0795, 1.2  L-12.4519, 1.2  L-11.7576, 1.2  L-11.0006, 1.2  L-10.1855, 1.2  L-9.317, 1.2  L-8.4004, 1.2  L-7.44112, 1.2  L-6.44487, 1.2  L-5.41758, 1.2 " /><path d="M-15.0995, -1.2 L-14.8533, -1.2  L-14.526, -1.2  L-14.1196, -1.2  L-13.6365, -1.2  L-13.0795, -1.2  L-12.4519, -1.2  L-11.7576, -1.2  L-11.0006, -1.2  L-10.1855, -1.2  L-9.317, -1.2  L-8.4004, -1.2  L-7.44112, -1.2  L-6.44487, -1.2  L-5.41758, -1.2 " /><path id= "21" d=" M -4.94499 -1.2 L -8.45195 -1.2 " />
<path d="M-8.45195, -1.2 Q-9.23383, -1.2 -10.0011, -1.2  Q-10.5103, -1.2 -11.0102, -1.2  Q-11.5069, -1.2 -11.9913, -1.2  Q-12.2301, -1.2 -12.469, -1.2  Q-12.703, -1.2 -12.9369, -1.2  Q-13.1656, -1.2 -13.3942, -1.2  Q-13.6171, -1.2 -13.8399, -1.2  Q-14.0566, -1.2 -14.2733, -1.2  Q-14.4833, -1.2 -14.6934, -1.2  Q-14.8964, -1.2 -15.0995, -1.2 " /><path id= "23" d=" M 4.94499 -1.2 L 8.45195 -1.2 " />
<path d="M8.45195, -1.2 Q9.23383, -1.2 10.0011, -1.2  Q10.5103, -1.2 11.0102, -1.2  Q11.5069, -1.2 11.9913, -1.2  Q12.2301, -1.2 12.469, -1.2  Q12.703, -1.2 12.9369, -1.2  Q13.1656, -1.2 13.3942, -1.2  Q13.6171, -1.2 13.8399, -1.2  Q14.0566, -1.2 14.2733, -1.2  Q14.4833, -1.2 14.6934, -1.2  Q14.8964, -1.2 15.0995, -1.2 " /><path d="M15.0995, -1.2 L14.8533, -1.2  L14.526, -1.2  L14.1196, -1.2  L13.6365, -1.2  L13.0795, -1.2  L12.4519, -1.2  L11.7576, -1.2  L11.0006, -1.2  L10.1855, -1.2  L9.317, -1.2  L8.4004, -1.2  L7.44112, -1.2  L6.44487, -1.2  L5.41758, -1.2 " /><path d="M2.77155 1.14827 A3 3 0 1 1 2.77158 -1.14819" /><path d="M2.77155, 1.14827 L2.77166, 1.14806 " /><path d="M3.0361, -5.11588e-08 L3.0361, 1.83378e-05 " /><path d="M3.0361, 1.83378e-05 C3.0363, 0.230177 3.00615, 0.461015 2.95087, 0.673089  C2.90439, 0.853467 2.83755, 1.02326 2.77166, 1.14806 " /><path d="M3.0361, -5.11587e-08 C3.0363, -0.230163 3.00615, -0.461007 2.95087, -0.673083  C2.90439, -0.853466 2.83754, -1.02326 2.77165, -1.14805 " /><path d="M2.77165, -1.14805 L2.77158, -1.14819 " /><path d="M2.45873 0 A2.45873 2.45873 0 0 1 0.370767 2.43062" /><path d="M0.370767, 2.43062 C-0.0726627, 2.52142 -0.542234, 2.48623 -0.970459, 2.33086  C-1.41017, 2.17275 -1.8049, 1.88888 -2.09779, 1.52117  C-2.39758, 1.14701 -2.59054, 0.687087 -2.64951, 0.208556  C-2.71106, -0.279277 -2.63323, -0.784732 -2.42835, -1.23456  C-2.21859, -1.69872 -1.87477, -2.1022 -1.44871, -2.38595  C-1.00595, -2.68277 -0.475753, -2.84867 0.0597265, -2.85929  C0.611383, -2.87199 1.1664, -2.71998 1.63787, -2.42852  C2.1299, -2.12661 2.5292, -1.67484 2.77158, -1.14819 " /><path d="M2.60923, 5.53924e-07 C2.74498, 0.35518 2.80074, 0.751053 2.77155, 1.14827 " /><path d="M0.370767, 2.43062 C0.0663811, 2.4772 -0.246739, 2.46577 -0.546923, 2.39713  C-1.06969, 2.27917 -1.55013, 1.98392 -1.89153, 1.57083  C-2.22114, 1.17562 -2.42086, 0.674529 -2.45346, 0.160932 " /><path d="M-2.45282, -0.170502 C-2.41406, -0.753906 -2.15763, -1.31932 -1.74431, -1.73284 " /><path d="M-1.56458, -1.8967 Q-1.45943, -1.98343 -1.34534, -2.05802 " /><path d="M-1.06521, -2.21601 C-0.447249, -2.51676 0.297749, -2.53878 0.932391, -2.27509 " /><path d="M2.01609, -1.40739 C2.23132, -1.09962 2.37437, -0.741838 2.43066, -0.370523 " /><path d="M2.43066 -0.370523 A2.45873 2.45873 0 0 1 2.45873 -6.02216e-16" /><path d="M2.43066, -0.370523 Q2.53486, -0.194937 2.60923, -2.77556e-16 " /><path d="M0.370767, 2.43062 C0.0667493, 2.47714 -0.245982, 2.4658 -0.545834, 2.39738  C-1.06497, 2.28046 -1.54251, 1.9888 -1.88359, 1.58034  C-2.27094, 1.12175 -2.47948, 0.517323 -2.45735, -0.0825603  C-2.43934, -0.674348 -2.1974, -1.25561 -1.79019, -1.6854  C-1.44247, -2.05626 -0.976728, -2.31407 -0.477841, -2.41185  C-0.00878083, -2.50562 0.487268, -2.4578 0.929777, -2.27616  C1.36884, -2.09766 1.7535, -1.78861 2.02239, -1.39832  C2.23414, -1.09261 2.37492, -0.738198 2.43066, -0.370523 " /><path d="M0.370767, 2.43062 C0.0665742, 2.47717 -0.246342, 2.46578 -0.546352, 2.39726  C-1.06776, 2.27973 -1.54714, 1.98586 -1.88845, 1.57453  C-2.27258, 1.11685 -2.47921, 0.515254 -2.45737, -0.081868  C-2.43954, -0.673439 -2.19794, -1.25456 -1.79112, -1.68441  C-1.4414, -2.05785 -0.972052, -2.31678 -0.469645, -2.41346  C-0.00923632, -2.50383 0.476702, -2.45805 0.912131, -2.28328  C1.35983, -2.10534 1.75227, -1.79197 2.02487, -1.39473  C2.23524, -1.08984 2.37513, -0.736762 2.43066, -0.370523 " /></g>

</svg>
