<svg xmlns="http://www.w3.org/2000/svg" viewBox="-7.897495600000001 -8.6153856 12.524811200000002 15.8308912">
<rect width="100%" height="100%" fill="white"/>
<g   fill="none"
   stroke="rgb(0, 0, 0)"
   stroke-linecap="butt"
   stroke-linejoin="miter"
   stroke-width="0.35"
   transform="scale(1, -1)"
  >
<path id= "1" d=" M -3.53553 -6.12372 L -5.9602 -4.72384 " />
<path d="M-5.9602, -4.72384 L-6.19498, -3.89183  L-6.38766, -3.13787  L-6.5413, -2.45  L-6.65834, -1.8173  L-6.74064, -1.22973  L-6.7895, -0.677947  L-6.80571, -0.153206  L-6.7895, 0.352826  L-6.74064, 0.848184  L-6.65834, 1.34073  L-6.5413, 1.83828  L-6.38766, 2.34874  L-6.19498, 2.88021  L-5.9602, 3.44112 " /><path id= "3" d=" M -3.53553 -6.12372 L 3.53553 -2.04124 " />
<path d="M1.11087, -0.641362 L0.272936, -0.854043  L-0.476352, -1.06415  L-1.14889, -1.27503  L-1.75534, -1.49002  L-2.30535, -1.71254  L-2.80763, -1.94611  L-3.27017, -2.19445  L-3.70031, -2.4615  L-4.10487, -2.75149  L-4.49028, -3.06904  L-4.86265, -3.41917  L-5.2279, -3.80746  L-5.59182, -4.24006  L-5.9602, -4.72384 " /><path id= "5" d=" M 3.53553 -2.04124 L 1.11087 -0.641362 " />
<g transform = "rotate(60, -3.53553, 2.04124)">
<ellipse cx ="-3.53553" cy ="2.04124" rx ="4.35"  ry ="2.51147"/>
</g>
<path d="M0.265361, 3.92928 L0.269408, 4.18412  L0.281563, 4.43531  L0.301876, 4.68383  L0.330426, 4.93067  L0.367326, 5.1768  L0.412724, 5.42321  L0.466799, 5.67087  L0.529766, 5.92077  L0.601874, 6.17388  L0.683408, 6.43122  L0.774693, 6.69381  L0.876091, 6.96269  L0.988002, 7.23892  L1.11087, 7.5236 " /><path d="M1.11087, 7.5236 L0.272936, 7.31092  L-0.476352, 7.10081  L-1.14889, 6.88994  L-1.75534, 6.67495  L-2.30535, 6.45243  L-2.80763, 6.21886  L-3.27017, 5.97052  L-3.70031, 5.70347  L-4.10487, 5.41348  L-4.49028, 5.09593  L-4.86265, 4.74579  L-5.2279, 4.3575  L-5.59182, 3.9249  L-5.9602, 3.44112 " /><path d="M1.11087, -0.641362 L0.988002, -0.214804  L0.876091, 0.190652  L0.774693, 0.576613  L0.683408, 0.94461  L0.601874, 1.2961  L0.529766, 1.63248  L0.466799, 1.95508  L0.412724, 2.26518  L0.367326, 2.56401  L0.330426, 2.85276  L0.301876, 3.13256  L0.281563, 3.40454  L0.269408, 3.66976  L0.265361, 3.92928 " /><path id= "10" d=" M 3.53553 6.12372 L 1.11087 7.5236 " />
<path id= "11" d=" M 3.53553 -2.04124 L 3.53553 6.12372 " />
<g transform = "rotate(60, -3.53553, 2.04124)">
<ellipse cx ="-3.53553" cy ="2.04124" rx ="3.3"  ry ="1.90526"/>
</g>
<path d="M-4.40153, -0.264012 C-4.70716, -0.270497 -4.97836, -0.161083 -5.18063, 0.047992  C-5.40845, 0.28142 -5.54899, 0.63903 -5.58665, 1.06604 " /><path d="M-4.40153 -0.264012 A2.45873 1.41955 60 0 1 -1.97221 1.57563" />
<path d="M-1.57606, 3.01448 C-1.59537, 2.55971 -1.73649, 2.04781 -1.97221, 1.57563 " /><path d="M-1.57606, 3.01448 C-1.55741, 3.42495 -1.63671, 3.78785 -1.80225, 4.0512  C-1.9731, 4.3256 -2.23605, 4.49201 -2.55207, 4.52769  C-2.88158, 4.56642 -3.26766, 4.46263 -3.65207, 4.2345  C-4.05979, 3.99404 -4.46395, 3.61489 -4.80107, 3.16028 " /><path d="M-5.58665, 1.06604 C-5.58911, 1.09418 -5.58916, 1.13179 -5.58679, 1.17886  C-5.57847, 1.34354 -5.53915, 1.57262 -5.47199, 1.80398  C-5.3488, 2.23951 -5.1183, 2.71375 -4.85951, 3.07938 " /><path d="M-4.85951, 3.07938 L-4.80107, 3.16028 " /><path d="M-1.68192, 3.80271 Q-1.7272, 3.8363 -1.77582, 3.86437 " /><path d="M-1.77582, 3.86437 C-1.99435, 3.99101 -2.26281, 4.03069 -2.55226, 3.98003  C-2.86028, 3.92696 -3.19146, 3.77134 -3.50512, 3.53495  C-3.89827, 3.24023 -4.26168, 2.8187 -4.52747, 2.35763  C-4.82642, 1.84288 -4.99985, 1.2831 -5.01173, 0.820242  C-5.02697, 0.340356 -4.86955, -0.0302151 -4.58811, -0.190157 " /><path d="M-4.58811, -0.190157 Q-4.50157, -0.240091 -4.40153, -0.264012 " /><path d="M-1.69011, 3.80872 C-2.13279, 4.01163 -2.75142, 3.86755 -3.31787, 3.44074  C-3.69426, 3.16091 -4.04434, 2.76479 -4.30797, 2.32781  C-4.62294, 1.80941 -4.81168, 1.23737 -4.8333, 0.761165  C-4.85612, 0.312458 -4.73236, -0.0477148 -4.49587, -0.234505 " /><path d="M-1.81996, 1.91936 C-2.21014, 1.51041 -2.52992, 0.988526 -2.71136, 0.478035 " /><path d="M-1.62112, 3.59306 C-1.98831, 3.58966 -2.40694, 3.42204 -2.79845, 3.12638  C-3.19262, 2.83079 -3.55685, 2.40774 -3.82277, 1.94522  C-4.1187, 1.43429 -4.29101, 0.879396 -4.3044, 0.419201  C-4.31361, 0.137546 -4.26521, -0.108717 -4.1654, -0.295227 " /><path d="M-1.59977, 3.48005 C-1.9235, 3.43963 -2.27681, 3.28212 -2.61086, 3.03243  C-2.98732, 2.75251 -3.33746, 2.35628 -3.60109, 1.91919  C-3.91657, 1.39984 -4.10533, 0.826699 -4.12633, 0.350028  C-4.13738, 0.104007 -4.10796, -0.109103 -4.03808, -0.289304 " /><path d="M-1.57555, 3.02662 C-2.14685, 2.77568 -2.72601, 2.21074 -3.10511, 1.55517  C-3.44811, 0.970806 -3.62682, 0.327278 -3.5951, -0.168765 " /><path d="M-1.59052, 2.82822 C-2.0806, 2.55661 -2.55813, 2.06909 -2.89354, 1.51169  C-3.21488, 0.983042 -3.40464, 0.398639 -3.42026, -0.083157 " /></g>

</svg>
