<svg xmlns="http://www.w3.org/2000/svg" viewBox="-5.8 -5.8 6.6 11.6">
<rect width="100%" height="100%" fill="white"/>
<g   fill="none"
   stroke="rgb(0, 0, 0)"
   stroke-linecap="butt"
   stroke-linejoin="miter"
   stroke-width="0.35"
   transform="scale(1, -1)"
  >
<path id= "1" d=" M -5 -4.35 L -4.62472 -5 " />
</g>
<g   fill="none"
   stroke="rgb(0, 0, 0)"
   stroke-linecap="butt"
   stroke-linejoin="miter"
   stroke-width="0.35"
   transform="scale(1, -1)"
  >
<path id= "1" d=" M 0 -5 L -3.42899 -5 " />
<path d="M-3.42899, -5 L-3.60275, -5  L-3.76102, -5  L-3.90442, -5  L-4.03351, -5  L-4.14882, -5  L-4.2508, -5  L-4.33985, -5  L-4.41632, -5  L-4.48052, -5  L-4.53271, -5  L-4.57308, -5  L-4.60181, -5  L-4.619, -5  L-4.62472, -5 " /><path d="M-4.62472, -5 L-4.619, -5  L-4.60181, -5  L-4.57308, -5  L-4.53271, -5  L-4.48052, -5  L-4.41632, -5  L-4.33985, -5  L-4.2508, -5  L-4.14882, -5  L-4.03351, -5  L-3.90442, -5  L-3.76102, -5  L-3.60275, -5  L-3.42899, -5 " /><path id= "4" d=" M 0 -5 L 0 5 " />
<path d="M-3.42899, 5 L-3.76102, 4.14701  L-4.03351, 3.35985  L-4.2508, 2.62603  L-4.41632, 1.93389  L-4.53271, 1.27245  L-4.60181, 0.631217  L-4.62472, -3.33067e-16  L-4.60181, -0.631217  L-4.53271, -1.27245  L-4.41632, -1.93389  L-4.2508, -2.62603  L-4.03351, -3.35985  L-3.76102, -4.14701  L-3.42899, -5 " /><path id= "6" d=" M 0 5 L -3.42899 5 " />
<path id= "7" d=" M -4.62472 5 L -5 4.35 " />
<path d="M-5, -4.35 L-5, -4.24094  L-5, -3.91921  L-5, -3.40097  L-5, -2.71218  L-5, -1.88739  L-5, -0.967966  L-5, -7.77156e-16  L-5, 0.967966  L-5, 1.88739  L-5, 2.71218  L-5, 3.40097  L-5, 3.91921  L-5, 4.24094  L-5, 4.35 " /><path d="M-3.42899, 5 L-3.60275, 5  L-3.76102, 5  L-3.90442, 5  L-4.03351, 5  L-4.14882, 5  L-4.2508, 5  L-4.33985, 5  L-4.41632, 5  L-4.48052, 5  L-4.53271, 5  L-4.57308, 5  L-4.60181, 5  L-4.619, 5  L-4.62472, 5 " /></g>

</svg>
