<svg xmlns="http://www.w3.org/2000/svg" viewBox="-5.8 -5.8 11.6 11.6">
<rect width="100%" height="100%" fill="white"/>
<g   fill="none"
   stroke="rgb(0, 0, 0)"
   stroke-linecap="butt"
   stroke-linejoin="miter"
   stroke-width="0.35"
   transform="scale(1, -1)"
  >
<path d="M-5, -5 L-5, -4.14701  L-5, -3.35985  L-5, -2.62603  L-5, -1.93389  L-5, -1.27245  L-5, -0.631217  L-5, 3.33067e-16  L-5, 0.631217  L-5, 1.27245  L-5, 1.93389  L-5, 2.62603  L-5, 3.35985  L-5, 4.14701  L-5, 5 " /><path d="M5, -5 L4.14701, -5  L3.35985, -5  L2.62603, -5  L1.93389, -5  L1.27245, -5  L0.631217, -5  L-3.33067e-16, -5  L-0.631217, -5  L-1.27245, -5  L-1.93389, -5  L-2.62603, -5  L-3.35985, -5  L-4.14701, -5  L-5, -5 " /><circle cx ="0" cy ="0" r ="4.35" /><path d="M5, -4.44089e-16 C5, 0.7343 5, 1.47012 5, 2.27545  C5, 2.39231 5, 2.50917 5, 2.62603  C5, 2.74636 5, 2.86669 5, 2.98702  C5, 3.1113 5, 3.23557 5, 3.35985  C5, 3.48857 5, 3.61729 5, 3.746  C5, 3.87967 5, 4.01334 5, 4.14701  C5, 4.28616 5, 4.42531 5, 4.56446  C5, 4.70964 5, 4.85482 5, 5 " /><path d="M5, 5 L4.14701, 5  L3.35985, 5  L2.62603, 5  L1.93389, 5  L1.27245, 5  L0.631217, 5  L-3.33067e-16, 5  L-0.631217, 5  L-1.27245, 5  L-1.93389, 5  L-2.62603, 5  L-3.35985, 5  L-4.14701, 5  L-5, 5 " /><path d="M5, -5 C5, -4.85482 5, -4.70964 5, -4.56446  C5, -4.42531 5, -4.28616 5, -4.14701  C5, -4.01334 5, -3.87967 5, -3.746  C5, -3.61729 5, -3.48857 5, -3.35985  C5, -3.23557 5, -3.1113 5, -2.98702  C5, -2.86669 5, -2.74636 5, -2.62603  C5, -2.50917 5, -2.39231 5, -2.27545  C5, -1.47012 5, -0.7343 5, -4.44089e-16 " /><circle cx ="0" cy ="0" r ="3.3" /><path d="M-1.45012, -1.98558 C-1.85782, -1.80193 -2.21777, -1.49975 -2.48099, -1.12349  C-2.77758, -0.702109 -2.95169, -0.189394 -2.98109, 0.336366 " /><path d="M-1.45012 -1.98558 A2.45873 2.45873 0 0 1 1.98546 -1.45028" /><path d="M2.57752, -1.44329e-15 C2.5398, -0.532901 2.32961, -1.04945 1.98546, -1.45028 " /><path d="M2.57752, 4.2776e-07 C2.61329, 0.480143 2.5104, 0.971422 2.28541, 1.4019  C2.05324, 1.84932 1.69069, 2.22975 1.25294, 2.48773  C0.796545, 2.75857 0.259986, 2.89501 -0.274357, 2.87813  C-0.841086, 2.86206 -1.40293, 2.67376 -1.87012, 2.34579 " /><path d="M-2.98109, 0.336366 C-2.98307, 0.37106 -2.98184, 0.415863 -2.97743, 0.470777  C-2.95865, 0.707084 -2.8778, 1.02251 -2.74133, 1.30499 " /><path d="M-2.74133, 1.30499 C-2.54508, 1.72535 -2.2139, 2.10859 -1.87012, 2.34579 " /><path d="M-1.45012, -1.98558 C-1.15957, -2.19811 -0.821698, -2.34544 -0.468244, -2.41374  C-0.00578276, -2.50423 0.482345, -2.45735 0.919124, -2.28048  C1.36169, -2.10298 1.74977, -1.79305 2.02075, -1.40069  C2.30467, -0.992758 2.45968, -0.497004 2.45873, 1.10064e-07 " /><path d="M2.45873, 5.48038e-07 C2.46054, 0.585842 2.24304, 1.16886 1.85796, 1.61039  C1.55768, 1.9579 1.15778, 2.21794 0.718347, 2.35146  C0.31036, 2.47664 -0.130376, 2.4926 -0.546352, 2.39726  C-1.06776, 2.27973 -1.54714, 1.98586 -1.88845, 1.57453  C-2.27258, 1.11685 -2.47921, 0.515254 -2.45737, -0.081868  C-2.43712, -0.826552 -2.05431, -1.54996 -1.45012, -1.98558 " /><path d="M2.45873, 4.38429e-07 C2.46054, 0.585842 2.24304, 1.16886 1.85796, 1.61039  C1.5576, 1.958 1.15756, 2.21809 0.717979, 2.35157  C0.309908, 2.47671 -0.130905, 2.49259 -0.546923, 2.39713  C-1.06969, 2.27917 -1.55013, 1.98392 -1.89153, 1.57083  C-2.2717, 1.11599 -2.47705, 0.519885 -2.45766, -0.0725967  C-2.44184, -0.677579 -2.19156, -1.27229 -1.77005, -1.70655  C-1.42533, -2.06547 -0.968918, -2.31493 -0.480688, -2.41129  C-0.0145757, -2.50502 0.478373, -2.45896 0.919053, -2.28051  C1.36061, -2.10342 1.74795, -1.79453 2.01884, -1.40344  C2.30396, -0.99498 2.45969, -0.498122 2.45873, 8.88178e-16 " /><path d="M2.45873, 3.28821e-07 C2.46054, 0.585842 2.24304, 1.16886 1.85796, 1.61039  C1.55752, 1.95809 1.15734, 2.21823 0.717626, 2.35168  C0.309475, 2.47677 -0.13141, 2.49257 -0.547469, 2.39701  C-1.06313, 2.28048 -1.53766, 1.99158 -1.87797, 1.58702  C-2.2666, 1.13019 -2.47728, 0.527156 -2.45767, -0.0722994  C-2.4403, -0.820286 -2.05696, -1.54812 -1.45012, -1.98558 " /><path d="M1.98546, -1.45028 C2.29152, -1.03316 2.45985, -0.517345 2.45873, 5.55112e-16 " /></g>

</svg>
