<svg xmlns="http://www.w3.org/2000/svg" viewBox="-16.922492 -16.851292 35.188483999999995 29.796183999999997">
<rect width="100%" height="100%" fill="white"/>
<g   fill="none"
   stroke="rgb(0, 0, 0)"
   stroke-linecap="butt"
   stroke-linejoin="miter"
   stroke-width="0.35"
   transform="scale(1, -1)"
  >
<path id= "1" d=" M -14.4957 -1.02062 L -14.4957 -1.18392 " />
<path id= "2" d=" M -6.36396 13.0639 L -6.22254 13.1456 " />
<path id= "3" d=" M -2.82843 -7.75672 L -2.96985 -7.83837 " />
<path id= "4" d=" M 1.30508 -4.06665 L 1.34026 -4.11609 " />
<path id= "5" d=" M 4.90294 0.633388 L 4.99133 0.582357 " />
<path id= "6" d=" M 2.25649 -4.76689 L 2.34488 -4.81792 " />
<path id= "7" d=" M 5.61005 0.225139 L 5.69844 0.174109 " />
<path id= "8" d=" M 2.9636 -5.17514 L 3.05199 -5.22617 " />
<path id= "9" d=" M 6.31716 -0.18311 L 6.40554 -0.23414 " />
<path id= "10" d=" M 3.67071 -5.58339 L 3.7591 -5.63442 " />
<path id= "11" d=" M 7.02426 -0.591358 L 7.11265 -0.642389 " />
<path id= "12" d=" M 4.37781 -5.99163 L 4.46621 -6.04267 " />
<path id= "13" d=" M 7.73137 -0.999607 L 7.81976 -1.05064 " />
<path id= "14" d=" M 5.08492 -6.39988 L 5.17331 -6.45092 " />
<path id= "15" d=" M 8.43848 -1.40786 L 8.52687 -1.45889 " />
<path id= "16" d=" M 5.79203 -6.80813 L 5.88042 -6.85916 " />
<path id= "17" d=" M 9.14559 -1.8161 L 9.23397 -1.86713 " />
<path id= "18" d=" M 6.49914 -7.21638 L 6.58753 -7.26741 " />
<path id= "19" d=" M 9.85269 -2.22435 L 9.94108 -2.27538 " />
<path id= "20" d=" M 7.20624 -7.62463 L 7.29464 -7.67566 " />
<path id= "21" d=" M 10.5598 -2.6326 L 10.6482 -2.68363 " />
<path id= "22" d=" M 7.91335 -8.03288 L 8.00174 -8.08391 " />
<path id= "23" d=" M 11.2669 -3.04085 L 11.3553 -3.09188 " />
<path id= "24" d=" M 8.62046 -8.44113 L 8.70885 -8.49216 " />
<path id= "25" d=" M 11.974 -3.4491 L 12.0624 -3.50013 " />
<path id= "26" d=" M 9.32757 -8.84938 L 9.41596 -8.90041 " />
<path id= "27" d=" M 12.6811 -3.85735 L 12.7695 -3.90838 " />
<path id= "28" d=" M 10.0347 -9.25762 L 10.1231 -9.30866 " />
<path id= "29" d=" M 13.3882 -4.2656 L 13.4766 -4.31663 " />
<path id= "30" d=" M 10.7418 -9.66587 L 10.8302 -9.7169 " />
<path id= "31" d=" M 14.0953 -4.67385 L 14.1837 -4.72488 " />
<path id= "32" d=" M 11.4489 -10.0741 L 11.5373 -10.1252 " />
<path id= "33" d=" M 14.8024 -5.08209 L 14.8908 -5.13312 " />
<path id= "34" d=" M 12.156 -10.4824 L 12.2179 -10.5181 " />
<path id= "35" d=" M 14.1421 -10.1246 L 14.0709 -10.1657 " />
</g>
<g   fill="none"
   stroke="rgb(0, 0, 0)"
   stroke-linecap="butt"
   stroke-linejoin="miter"
   stroke-width="0.35"
   transform="scale(1, -1)"
  >
<path d="M1.76777 8.36909 A11.5 6.63953 60 0 1 -6.36396 13.0639" />
<path d="M-6.36396 13.0639 A11.5 6.63953 60 0 1 -14.4957 -1.02062" />
<path d="M-14.4957 -1.02062 A11.5 6.63953 60 0 1 1.76777 8.36909" />
<path d="M2.47229, 8.60956 Q2.25752, 8.48854 2.05061, 8.36909 " /><path d="M2.47229 8.60956 A12 6.9282 60 0 1 2.45198 9.07515" />
<path d="M2.01077, 9.28245 Q2.22732, 9.18084 2.45198, 9.07515 " /><path d="M2.4109, 9.53303 Q2.20704, 9.40689 2.01077, 9.28245 " /><path d="M2.4109 9.53303 A12 6.9282 60 0 1 2.35017 9.97069" />
<path d="M1.89164, 10.141 Q2.11675, 10.0577 2.35017, 9.97069 " /><path d="M2.26841, 10.3981 Q2.07638, 10.2687 1.89164, 10.141 " /><path d="M2.26841 10.3981 A12 6.9282 60 0 1 2.16785 10.8036" />
<path d="M1.69437, 10.9365 Q1.92686, 10.8716 2.16785, 10.8036 " /><path d="M2.0462, 11.1965 Q1.86679, 11.0656 1.69437, 10.9365 " /><path d="M2.0462 11.1965 A12 6.9282 60 0 1 1.90677 11.5659" />
<path d="M1.42085, 11.6613 Q1.65948, 11.6149 1.90677, 11.5659 " /><path d="M1.74639, 11.9204 Q1.5803, 11.7899 1.42085, 11.6613 " /><path d="M1.74639 11.9204 A12 6.9282 60 0 1 1.56944 12.2503" />
<path d="M1.07373, 12.3083 Q1.31719, 12.2804 1.56944, 12.2503 " /><path d="M1.37188, 12.563 Q1.21965, 12.4348 1.07373, 12.3083 " /><path d="M1.37188 12.563 A12 6.9282 60 0 1 1.15911 12.85" />
<path d="M0.656333, 12.8715 Q0.903281, 12.8616 1.15911, 12.85 " /><path d="M0.926278, 13.118 Q0.788332, 12.9939 0.656333, 12.8715 " /><path d="M0.926278 13.118 A12 6.9282 60 0 1 0.679737 13.3595" />
<path d="M0.172691, 13.3452 Q0.421747, 13.353 0.679737, 13.3595 " /><path d="M0.41387, 13.5801 Q0.290489, 13.4619 0.172691, 13.3452 " /><path d="M0.41387 13.5801 A12 6.9282 60 0 1 0.135933 13.7737" />
<path d="M-0.37254, 13.7251 Q-0.12278, 13.7498 0.135933, 13.7737 " /><path d="M-0.160408, 13.9448 Q-0.269082, 13.8343 -0.37254, 13.7251 " /><path d="M-0.160408 13.9448 A12 6.9282 60 0 1 -0.467064 14.0887" />
<path d="M-0.974109, 14.0073 Q-0.725054, 14.0482 -0.467064, 14.0887 " /><path d="M-0.791024, 14.2086 Q-0.884992, 14.1075 -0.974109, 14.0073 " /><path d="M-0.791024 14.2086 A12 6.9282 60 0 1 -1.12345 14.3014" />
<path d="M-1.62622, 14.1893 Q-1.37928, 14.2454 -1.12345, 14.3014 " /><path d="M-1.47191, 14.3691 Q-1.55131, 14.2788 -1.62622, 14.1893 " /><path d="M-1.47191 14.3691 A12 6.9282 60 0 1 -1.82689 14.4098" />
<path d="M-2.3226, 14.2692 Q-2.07914, 14.3394 -1.82689, 14.4098 " /><path d="M-2.1965, 14.4245 Q-2.26162, 14.3466 -2.3226, 14.2692 " /><path d="M-2.1965 14.4245 A12 6.9282 60 0 1 -2.57063 14.4128" />
<path d="M-3.05654, 14.2463 Q-2.81792, 14.3293 -2.57063, 14.4128 " /><path d="M-2.95782, 14.3745 L-3.05654, 14.2463 " /><path d="M-2.95782 14.3745 A12 6.9282 60 0 1 -3.34749 14.3105" />
<path d="M-3.82097, 14.1208 Q-3.58849, 14.2152 -3.34749, 14.3105 " /><path d="M-3.74853, 14.2194 L-3.82097, 14.1208 " /><path d="M-3.74853 14.2194 A12 6.9282 60 0 1 -4.15 14.1038" />
<path d="M-4.60853, 13.8939 Q-4.38342, 13.9982 -4.15, 14.1038 " /><path d="M-4.56103, 13.9609 L-4.60853, 13.8939 " /><path d="M-4.56103 13.9609 A12 6.9282 60 0 1 -4.97042 13.7946" />
<path d="M-5.41163, 13.5678 Q-5.19508, 13.6805 -4.97042, 13.7946 " /><path d="M-5.38749, 13.6013 L-5.41163, 13.5678 " /><path d="M-5.38749 13.6013 A12 6.9282 60 0 1 -5.80086 13.3861" />
<path d="M-6.22254, 13.1456 Q-6.01563, 13.265 -5.80086, 13.3861 " /><path d="M-14.4931, -1.66934 Q-14.4957, -1.42283 -14.4957, -1.18392 " /><path d="M-14.4931 -1.66934 A12 6.9282 60 0 1 -14.4728 -2.13493" />
<path d="M-14.4559, -2.09728 L-14.4728, -2.13493 " /><path d="M-14.4317, -2.5928 Q-14.4452, -2.34118 -14.4559, -2.09728 " /><path d="M-14.4317 -2.5928 A12 6.9282 60 0 1 -14.371 -3.03047" />
<path d="M-14.3367, -2.95584 L-14.371, -3.03047 " /><path d="M-14.2892, -3.45788 Q-14.3145, -3.20296 -14.3367, -2.95584 " /><path d="M-14.2892 -3.45788 A12 6.9282 60 0 1 -14.1887 -3.8634" />
<path d="M-14.1394, -3.75134 L-14.1887, -3.8634 " /><path d="M-14.067, -4.25624 Q-14.105, -3.99987 -14.1394, -3.75134 " /><path d="M-14.067 -4.25624 A12 6.9282 60 0 1 -13.9276 -4.6257" />
<path d="M-13.8659, -4.47611 L-13.9276, -4.6257 " /><path d="M-13.7672, -4.98019 Q-13.8185, -4.72424 -13.8659, -4.47611 " /><path d="M-13.7672 -4.98019 A12 6.9282 60 0 1 -13.5903 -5.31004" />
<path d="M-13.5188, -5.12317 Q-13.5554, -5.2147 -13.5903, -5.31004 " /><path d="M-13.3927, -5.62276 Q-13.4578, -5.36909 -13.5188, -5.12317 " /><path d="M-13.3927 -5.62276 A12 6.9282 60 0 1 -13.1799 -5.90982" />
<path d="M-13.1014, -5.6863 Q-13.1414, -5.79592 -13.1799, -5.90982 " /><path d="M-12.9471, -6.17776 Q-13.0265, -5.9282 -13.1014, -5.6863 " /><path d="M-12.9471 -6.17776 A12 6.9282 60 0 1 -12.7006 -6.41927" />
<path d="M-12.6178, -6.16007 Q-12.6599, -6.2873 -12.7006, -6.41927 " /><path d="M-12.4347, -6.63985 Q-12.5287, -6.3962 -12.6178, -6.16007 " /><path d="M-12.4347 -6.63985 A12 6.9282 60 0 1 -12.1567 -6.83348" />
<path d="M-12.0725, -6.53991 Q-12.1154, -6.68411 -12.1567, -6.83348 " /><path d="M-11.8604, -7.00457 Q-11.9691, -6.76858 -12.0725, -6.53991 " /><path d="M-11.8604 -7.00457 A12 6.9282 60 0 1 -11.5538 -7.14846" />
<path d="M-11.471, -6.82217 Q-11.5131, -6.98253 -11.5538, -7.14846 " /><path d="M-11.2298, -7.26842 Q-11.3532, -7.04175 -11.471, -6.82217 " /><path d="M-11.2298 -7.26842 A12 6.9282 60 0 1 -10.8974 -7.36117" />
<path d="M-10.8189, -7.00414 Q-10.8589, -7.17967 -10.8974, -7.36117 " /><path d="M-10.5489, -7.42884 Q-10.6869, -7.21308 -10.8189, -7.00414 " /><path d="M-10.5489 -7.42884 A12 6.9282 60 0 1 -10.1939 -7.46958" />
<path d="M-10.1225, -7.08405 Q-10.159, -7.27365 -10.1939, -7.46958 " /><path d="M-9.82432, -7.48431 Q-9.97655, -7.28092 -10.1225, -7.08405 " /><path d="M-9.82432 -7.48431 A12 6.9282 60 0 1 -9.45019 -7.47263" />
<path d="M-9.38854, -7.06113 Q-9.42025, -7.26355 -9.45019, -7.47263 " /><path d="M-9.063, -7.43427 Q-9.22909, -7.24462 -9.38854, -7.06113 " /><path d="M-9.063 -7.43427 A12 6.9282 60 0 1 -8.67333 -7.37029" />
<path d="M-8.62411, -6.93562 Q-8.64968, -7.14948 -8.67333, -7.37029 " /><path d="M-8.27228, -7.27922 Q-8.45168, -7.10452 -8.62411, -6.93562 " /><path d="M-8.27228 -7.27922 A12 6.9282 60 0 1 -7.87082 -7.16356" />
<path d="M-7.83655, -6.70872 Q-7.85474, -6.93254 -7.87082, -7.16356 " /><path d="M-7.45978, -7.02065 Q-7.65181, -6.86198 -7.83655, -6.70872 " /><path d="M-7.45978 -7.02065 A12 6.9282 60 0 1 -7.05039 -6.85441" />
<path d="M-7.03345, -6.3826 Q-7.04309, -6.6148 -7.05039, -6.85441 " /><path d="M-6.63332, -6.66105 Q-6.83718, -6.51934 -7.03345, -6.3826 " /><path d="M-6.63332 -6.66105 A12 6.9282 60 0 1 -6.21995 -6.44584" />
<path d="M-6.22254, -5.96043 Q-6.22253, -6.19934 -6.21995, -6.44584 " /><path d="M-5.80086, -6.20388 Q-6.01563, -6.07988 -6.22254, -5.96043 " /><path d="M-5.80086 -6.20388 A12 6.9282 60 0 1 -5.38749 -5.94177" />
<path d="M-5.41163, -5.44625 Q-5.40099, -5.69015 -5.38749, -5.94177 " /><path d="M-4.97042, -5.65354 Q-5.19508, -5.54785 -5.41163, -5.44625 " /><path d="M-4.97042 -5.65354 A12 6.9282 60 0 1 -4.56103 -5.34706" />
<path d="M-4.60853, -4.84502 Q-4.58635, -5.09214 -4.56103, -5.34706 " /><path d="M-4.15, -5.01534 Q-4.38342, -4.92837 -4.60853, -4.84502 " /><path d="M-4.15 -5.01534 A12 6.9282 60 0 1 -3.74853 -4.66744" />
<path d="M-3.82097, -4.16253 Q-3.78648, -4.41107 -3.74853, -4.66744 " /><path d="M-3.34749, -4.29542 Q-3.58849, -4.2274 -3.82097, -4.16253 " /><path d="M-3.34749 -4.29542 A12 6.9282 60 0 1 -2.95782 -3.90944" />
<path d="M-3.05654, -3.40536 Q-3.00907, -3.65349 -2.95782, -3.90944 " /><path d="M-2.57063, -3.50071 Q-2.81792, -3.4517 -3.05654, -3.40536 " /><path d="M-2.57063 -3.50071 A12 6.9282 60 0 1 -2.1965 -3.08038" />
<path d="M-2.3226, -2.58079 Q-2.26162, -2.8267 -2.1965, -3.08038 " /><path d="M-1.82689, -2.63887 Q-2.07914, -2.60873 -2.3226, -2.58079 " /><path d="M-1.82689 -2.63887 A12 6.9282 60 0 1 -1.47191 -2.18823" />
<path d="M-1.62622, -1.69677 Q-1.55131, -1.93867 -1.47191, -2.18823 " /><path d="M-1.12345, -1.7182 Q-1.37928, -1.70661 -1.62622, -1.69677 " /><path d="M-1.12345 -1.7182 A12 6.9282 60 0 1 -0.791024 -1.24159" />
<path d="M-0.974109, -0.761809 Q-0.884992, -0.997942 -0.791024, -1.24159 " /><path d="M-0.467064, -0.747555 Q-0.725054, -0.754037 -0.974109, -0.761809 " /><path d="M-0.467064 -0.747555 A12 6.9282 60 0 1 -0.160408 -0.249573" />
<path d="M-0.37254, 0.215086 Q-0.269082, -0.013581 -0.160408, -0.249573 " /><path d="M0.135933, 0.263704 Q-0.12278, 0.239823 -0.37254, 0.215086 " /><path d="M0.135933 0.263704 A12 6.9282 60 0 1 0.41387 0.778267" />
<path d="M0.172691, 1.22451 Q0.290489, 1.00493 0.41387, 0.778267 " /><path d="M0.679737, 1.30584 Q0.421747, 1.2654 0.172691, 1.22451 " /><path d="M0.679737 1.30584 A12 6.9282 60 0 1 0.926278 1.83203" />
<path d="M0.656333, 2.25674 Q0.788332, 2.04779 0.926278, 1.83203 " /><path d="M1.15911, 2.36882 Q0.903281, 2.31281 0.656333, 2.25674 " /><path d="M1.15911 2.36882 A12 6.9282 60 0 1 1.37188 2.90157" />
<path d="M1.07373, 3.30183 Q1.21965, 3.10496 1.37188, 2.90157 " /><path d="M1.56944, 3.44241 Q1.31719, 3.37197 1.07373, 3.30183 " /><path d="M1.56944 3.44241 A12 6.9282 60 0 1 1.74639 3.97658" />
<path d="M1.42085, 4.34972 Q1.5803, 4.16624 1.74639, 3.97658 " /><path d="M1.90677, 4.51626 Q1.65948, 4.43268 1.42085, 4.34972 " /><path d="M1.90677 4.51626 A12 6.9282 60 0 1 2.0462 5.04672" />
<path d="M1.69437, 5.39032 Q1.86679, 5.22142 2.0462, 5.04672 " /><path d="M2.16785, 5.58004 Q1.92686, 5.48472 1.69437, 5.39032 " /><path d="M2.16785 5.58004 A12 6.9282 60 0 1 2.26841 6.10167" />
<path d="M1.89164, 6.41361 Q2.07638, 6.26034 2.26841, 6.10167 " /><path d="M2.35017, 6.6235 Q2.11675, 6.51797 1.89164, 6.41361 " /><path d="M2.35017 6.6235 A12 6.9282 60 0 1 2.4109 7.13128" />
<path d="M2.01077, 7.40973 Q2.20704, 7.273 2.4109, 7.13128 " /><path d="M2.45198, 7.63659 Q2.22732, 7.52247 2.01077, 7.40973 " /><path d="M2.45198 7.63659 A12 6.9282 60 0 1 2.47229 8.12564" />
<path d="M2.05061, 8.36909 Q2.25752, 8.24963 2.47229, 8.12564 " /><path d="M5.3033, 6.49115 Q5.3033, 6.73006 5.30071, 6.97656 " /><path id= "149" d=" M 2.47229 8.60956 L 5.30071 6.97656 " />
<path d="M5.30071 6.97656 A12 6.9282 60 0 1 5.28041 7.44216" />
<path id= "151" d=" M 2.45198 9.07515 L 5.28041 7.44216 " />
<path d="M5.26132, 7.45318 Q5.25148, 7.67347 5.23933, 7.90003 " /><path id= "153" d=" M 2.4109 9.53303 L 5.23933 7.90003 " />
<path d="M5.23933 7.90003 A12 6.9282 60 0 1 5.1786 8.33769" />
<path id= "155" d=" M 2.35017 9.97069 L 5.1786 8.33769 " />
<path d="M5.1353, 8.36269 Q5.11707, 8.5614 5.09684, 8.76511 " /><path id= "157" d=" M 2.26841 10.3981 L 5.09684 8.76511 " />
<path d="M5.09684 8.76511 A12 6.9282 60 0 1 4.99628 9.17063" />
<path id= "159" d=" M 2.16785 10.8036 L 4.99628 9.17063 " />
<path d="M4.92563, 9.21141 Q4.90096, 9.38555 4.87462, 9.56347 " /><path id= "161" d=" M 2.0462 11.1965 L 4.87462 9.56347 " />
<path d="M4.87462 9.56347 A12 6.9282 60 0 1 4.7352 9.93293" />
<path id= "163" d=" M 1.90677 11.5659 L 4.7352 9.93293 " />
<path d="M4.63327, 9.99178 L4.57482, 10.2874 " /><path id= "165" d=" M 1.74639 11.9204 L 4.57482 10.2874 " />
<path d="M4.57482 10.2874 A12 6.9282 60 0 1 4.39787 10.6173" />
<path id= "167" d=" M 1.56944 12.2503 L 4.39787 10.6173 " />
<path d="M4.25965, 10.6971 L4.20031, 10.93 " /><path id= "169" d=" M 1.37188 12.563 L 4.20031 10.93 " />
<path d="M4.20031 10.93 A12 6.9282 60 0 1 3.98754 11.2171" />
<path id= "171" d=" M 1.15911 12.85 L 3.98754 11.2171 " />
<path d="M3.80648, 11.3216 L3.7547, 11.485 " /><path id= "173" d=" M 0.926278 13.118 L 3.7547 11.485 " />
<path d="M3.7547 11.485 A12 6.9282 60 0 1 3.50816 11.7265" />
<path id= "175" d=" M 0.679737 13.3595 L 3.50816 11.7265 " />
<path d="M3.2755, 11.8608 L3.2423, 11.9471 " /><path id= "177" d=" M 0.41387 13.5801 L 3.2423 11.9471 " />
<path d="M3.2423 11.9471 A12 6.9282 60 0 1 2.96436 12.1407" />
<path id= "179" d=" M 0.135933 13.7737 L 2.96436 12.1407 " />
<path id= "180" d=" M -0.160408 13.9448 L 2.66802 12.3118 " />
<path id= "181" d=" M -0.791024 14.2086 L -0.558361 14.0743 " />
<path id= "182" d=" M -1.47191 14.3691 L -1.29084 14.2645 " />
<path id= "183" d=" M -2.1965 14.4245 L -2.05828 14.3447 " />
<path id= "184" d=" M -2.95782 14.3745 L -2.85589 14.3156 " />
<path id= "185" d=" M -3.74853 14.2194 L -3.67788 14.1787 " />
<path id= "186" d=" M -4.56103 13.9609 L -4.51773 13.9359 " />
<path id= "187" d=" M -5.38749 13.6013 L -5.3684 13.5903 " />
<path id= "188" d=" M -14.4728 -2.13493 L -14.4537 -2.14595 " />
<path id= "189" d=" M -14.371 -3.03047 L -14.3277 -3.05547 " />
<path id= "190" d=" M -14.1887 -3.8634 L -14.118 -3.90419 " />
<path id= "191" d=" M -13.9276 -4.6257 L -13.8257 -4.68455 " />
<path id= "192" d=" M -13.5903 -5.31004 L -13.452 -5.38984 " />
<path id= "193" d=" M -13.1799 -5.90982 L -12.9989 -6.01436 " />
<path id= "194" d=" M -12.7006 -6.41927 L -12.4679 -6.5536 " />
<path id= "195" d=" M -12.1567 -6.83348 L -11.8604 -7.00457 " />
<path id= "196" d=" M -11.8604 -7.00457 L -9.03198 -8.63756 " />
<path d="M-9.03198 -8.63756 A12 6.9282 60 0 1 -8.72532 -8.78145" />
<path id= "198" d=" M -11.5538 -7.14846 L -8.72532 -8.78145 " />
<path d="M-8.72532, -8.78145 L-8.63403, -8.76708 " /><path id= "200" d=" M -11.2298 -7.26842 L -8.40136 -8.90141 " />
<path d="M-8.40136 -8.90141 A12 6.9282 60 0 1 -8.06894 -8.99417" />
<path id= "202" d=" M -10.8974 -7.36117 L -8.06894 -8.99417 " />
<path d="M-8.06894, -8.99417 L-7.90155, -8.9573 " /><path id= "204" d=" M -10.5489 -7.42884 L -7.72048 -9.06184 " />
<path d="M-7.72048 -9.06184 A12 6.9282 60 0 1 -7.3655 -9.10257" />
<path id= "206" d=" M -10.1939 -7.46958 L -7.3655 -9.10257 " />
<path d="M-7.3655, -9.10257 L-7.13411, -9.0375 " /><path id= "208" d=" M -9.82432 -7.48431 L -6.99589 -9.1173 " />
<path d="M-6.99589 -9.1173 A12 6.9282 60 0 1 -6.62176 -9.10562" />
<path id= "210" d=" M -9.45019 -7.47263 L -6.62176 -9.10562 " />
<path d="M-6.62176, -9.10562 L-6.3365, -9.00842 " /><path id= "212" d=" M -9.063 -7.43427 L -6.23457 -9.06727 " />
<path d="M-6.23457 -9.06727 A12 6.9282 60 0 1 -5.8449 -9.00328" />
<path id= "214" d=" M -8.67333 -7.37029 L -5.8449 -9.00328 " />
<path d="M-5.8449, -9.00328 Q-5.67764, -8.93713 -5.5145, -8.87143 " /><path id= "216" d=" M -8.27228 -7.27922 L -5.44386 -8.91222 " />
<path d="M-5.44386 -8.91222 A12 6.9282 60 0 1 -5.04239 -8.79655" />
<path id= "218" d=" M -7.87082 -7.16356 L -5.04239 -8.79655 " />
<path d="M-5.04239, -8.79655 Q-4.85586, -8.71222 -4.67466, -8.62865 " /><path id= "220" d=" M -7.45978 -7.02065 L -4.63135 -8.65365 " />
<path d="M-4.63135 -8.65365 A12 6.9282 60 0 1 -4.22197 -8.48741" />
<path id= "222" d=" M -7.05039 -6.85441 L -4.22197 -8.48741 " />
<path d="M-4.22197, -8.48741 Q-4.01968, -8.38465 -3.82398, -8.28302 " /><path id= "224" d=" M -6.63332 -6.66105 L -3.80489 -8.29404 " />
<path d="M-3.80489 -8.29404 A12 6.9282 60 0 1 -3.39152 -8.07883" />
<path id= "226" d=" M -6.21995 -6.44584 L -3.39152 -8.07883 " />
<path d="M-3.39152, -8.07883 Q-3.17676, -7.95782 -2.96985, -7.83837 " /><path d="M-2.96985, -7.83837 L-2.97244, -7.83687 " /><path id= "229" d=" M -5.80086 -6.20388 L -2.97244 -7.83687 " />
<path d="M-2.97244 -7.83687 A12 6.9282 60 0 1 -2.55907 -7.57476" />
<path id= "231" d=" M -5.38749 -5.94177 L -2.55907 -7.57476 " />
<path id= "232" d=" M -2.15894 -7.32419 L -5.41163 -5.44625 " />
<path d="M-2.55907, -7.57476 Q-2.35521, -7.44863 -2.15894, -7.32419 " /><path d="M-2.15894, -7.32419 L-2.142, -7.28654 " /><path id= "235" d=" M -4.97042 -5.65354 L -2.142 -7.28654 " />
<path d="M-2.142 -7.28654 A12 6.9282 60 0 1 -1.73261 -6.98005" />
<path id= "237" d=" M -4.56103 -5.34706 L -1.73261 -6.98005 " />
<path id= "238" d=" M -1.35584 -6.72296 L -4.60853 -4.84502 " />
<path d="M-1.73261, -6.98005 Q-1.54058, -6.85062 -1.35584, -6.72296 " /><path d="M-1.35584, -6.72296 L-1.32157, -6.64833 " /><path id= "241" d=" M -4.15 -5.01534 L -1.32157 -6.64833 " />
<path d="M-1.32157 -6.64833 A12 6.9282 60 0 1 -0.920106 -6.30043" />
<path id= "243" d=" M -3.74853 -4.66744 L -0.920106 -6.30043 " />
<path id= "244" d=" M -0.56828 -6.04047 L -3.82097 -4.16253 " />
<path d="M-0.920106, -6.30043 Q-0.740704, -6.16955 -0.56828, -6.04047 " /><path d="M-0.56828, -6.04047 L-0.519063, -5.92841 " /><path id= "247" d=" M -3.34749 -4.29542 L -0.519063 -5.92841 " />
<path d="M-0.519063 -5.92841 A12 6.9282 60 0 1 -0.129388 -5.54244" />
<path id= "249" d=" M -2.95782 -3.90944 L -0.129388 -5.54244 " />
<path id= "250" d=" M 0.196149 -5.2833 L -3.05654 -3.40536 " />
<path d="M-0.129388, -5.54244 Q0.0367039, -5.41197 0.196149, -5.2833 " /><path d="M0.196149, -5.2833 L0.257799, -5.1337 " /><path id= "253" d=" M -2.57063 -3.50071 L 0.257799 -5.1337 " />
<path d="M0.257799 -5.1337 A12 6.9282 60 0 1 0.631932 -4.71337" />
<path id= "255" d=" M -2.1965 -3.08038 L 0.631932 -4.71337 " />
<path id= "256" d=" M 0.930087 -4.45873 L -2.3226 -2.58079 " />
<path d="M0.631932, -4.71337 Q0.78416, -4.58518 0.930087, -4.45873 " /><path d="M0.930087, -4.45873 Q0.966633, -4.36721 1.00154, -4.27186 " /><path id= "259" d=" M -1.82689 -2.63887 L 1.00154 -4.27186 " />
<path d="M1.00154 -4.27186 A12 6.9282 60 0 1 1.35652 -3.82122" />
<path id= "261" d=" M -1.47191 -2.18823 L 1.35652 -3.82122 " />
<path id= "262" d=" M 1.62647 -3.57471 L -1.62622 -1.69677 " />
<path d="M1.35652, -3.82122 Q1.49447, -3.69715 1.62647, -3.57471 " /><path d="M1.62647, -3.57471 Q1.6665, -3.46509 1.70498, -3.35119 " /><path id= "265" d=" M -1.12345 -1.7182 L 1.70498 -3.35119 " />
<path d="M1.70498 -3.35119 A12 6.9282 60 0 1 2.0374 -2.87458" />
<path id= "267" d=" M -0.791024 -1.24159 L 2.0374 -2.87458 " />
<path id= "268" d=" M 2.27858 -2.63975 L -0.974109 -0.761809 " />
<path d="M2.0374, -2.87458 Q2.16078, -2.75642 2.27858, -2.63975 " /><path d="M2.27858, -2.63975 Q2.32072, -2.51252 2.36136, -2.38055 " /><path id= "271" d=" M -0.467064 -0.747555 L 2.36136 -2.38055 " />
<path d="M2.36136 -2.38055 A12 6.9282 60 0 1 2.66802 -1.88257" />
<path id= "273" d=" M -0.160408 -0.249573 L 2.66802 -1.88257 " />
<path id= "274" d=" M 2.88015 -1.66286 L -0.37254 0.215086 " />
<path d="M2.66802, -1.88257 Q2.77669, -1.77206 2.88015, -1.66286 " /><path d="M2.88015, -1.66286 Q2.923, -1.51866 2.96436, -1.36929 " /><path id= "277" d=" M 0.135933 0.263704 L 2.96436 -1.36929 " />
<path d="M2.96436 -1.36929 A12 6.9282 60 0 1 3.2423 -0.854726" />
<path id= "279" d=" M 0.41387 0.778267 L 3.2423 -0.854726 " />
<path id= "280" d=" M 3.42538 -0.653434 L 0.172691 1.22451 " />
<path d="M3.2423, -0.854726 Q3.33627, -0.753546 3.42538, -0.653434 " /><path d="M3.42538, -0.653434 Q3.46752, -0.493083 3.50816, -0.327152 " /><path id= "283" d=" M 0.679737 1.30584 L 3.50816 -0.327152 " />
<path d="M3.50816 -0.327152 A12 6.9282 60 0 1 3.7547 0.199037" />
<path id= "285" d=" M 0.926278 1.83203 L 3.7547 0.199037 " />
<path id= "286" d=" M 3.90902 0.378794 L 0.656333 2.25674 " />
<path d="M3.7547, 0.199037 Q3.83411, 0.289314 3.90902, 0.378794 " /><path d="M3.90902, 0.378794 Q3.94906, 0.554327 3.98754, 0.73583 " /><path id= "289" d=" M 1.15911 2.36882 L 3.98754 0.73583 " />
<path d="M3.98754 0.73583 A12 6.9282 60 0 1 4.20031 1.26858" />
<path id= "291" d=" M 1.37188 2.90157 L 4.20031 1.26858 " />
<path id= "292" d=" M 4.32642 1.42389 L 1.07373 3.30183 " />
<path d="M4.20031, 1.26858 Q4.26543, 1.34648 4.32642, 1.42389 " /><path d="M4.32642, 1.42389 Q4.36296, 1.61349 4.39787, 1.80942 " /><path id= "295" d=" M 1.56944 3.44241 L 4.39787 1.80942 " />
<path d="M4.39787 1.80942 A12 6.9282 60 0 1 4.57482 2.34359" />
<path id= "297" d=" M 1.74639 3.97658 L 4.57482 2.34359 " />
<path id= "298" d=" M 4.67354 2.47178 L 1.42085 4.34972 " />
<path d="M4.57482, 2.34359 L4.67354, 2.47178 " /><path d="M4.67354, 2.47178 Q4.70525, 2.6742 4.7352, 2.88327 " /><path id= "301" d=" M 1.90677 4.51626 L 4.7352 2.88327 " />
<path d="M4.7352 2.88327 A12 6.9282 60 0 1 4.87462 3.41373" />
<path id= "303" d=" M 2.0462 5.04672 L 4.87462 3.41373 " />
<path id= "304" d=" M 4.94706 3.51238 L 1.69437 5.39032 " />
<path d="M4.87462, 3.41373 L4.94706, 3.51238 " /><path d="M4.94706, 3.51238 Q4.97263, 3.72624 4.99628, 3.94705 " /><path id= "307" d=" M 2.16785 5.58004 L 4.99628 3.94705 " />
<path d="M4.99628 3.94705 A12 6.9282 60 0 1 5.09684 4.46868" />
<path id= "309" d=" M 2.26841 6.10167 L 5.09684 4.46868 " />
<path id= "310" d=" M 5.14433 4.53567 L 1.89164 6.41361 " />
<path d="M5.09684, 4.46868 L5.14433, 4.53567 " /><path d="M5.14433, 4.53567 Q5.16252, 4.75949 5.1786, 4.99051 " /><path id= "313" d=" M 2.35017 6.6235 L 5.1786 4.99051 " />
<path d="M5.1786 4.99051 A12 6.9282 60 0 1 5.23933 5.49829" />
<path id= "315" d=" M 2.4109 7.13128 L 5.23933 5.49829 " />
<path id= "316" d=" M 5.26346 5.53179 L 2.01077 7.40973 " />
<path d="M5.23933, 5.49829 L5.26346, 5.53179 " /><path d="M5.26346, 5.53179 Q5.2731, 5.76399 5.28041, 6.0036 " /><path id= "319" d=" M 2.45198 7.63659 L 5.28041 6.0036 " />
<path d="M5.28041 6.0036 A12 6.9282 60 0 1 5.30071 6.49264" />
<path id= "321" d=" M 2.47229 8.12564 L 5.30071 6.49264 " />
<path d="M5.30071, 6.49264 L5.3033, 6.49115 " /><path id= "323" d=" M 5.3033 6.49115 L 5.3033 6.32785 " />
<path d="M-2.82843 -7.75672 A11.5 6.63953 60 0 1 5.3033 6.32785" />
<path d="M3.85991 -0.220971 A2.45873 1.41955 60 0 1 3.8356 0.099542" />
<path d="M3.26898, -1.05919 C3.07639, -1.69648 2.69959, -2.32144 2.26564, -2.74492 " /><path d="M3.31042, -1.53693 C3.00152, -2.28871 2.45315, -2.95255 1.91686, -3.25246 " /><path d="M1.83159 -3.3715 A2.45873 1.41955 60 0 1 3.85991 -0.220971" />
<path d="M3.58923, -0.428191 C3.56072, -0.786016 3.4634, -1.16978 3.31042, -1.53693 " /><path d="M4.15856, -0.301954 Q4.1334, 0.114129 3.97615, 0.420583 " /><path d="M4.1005, 0.718815 C4.39572, 0.478275 4.57875, 0.069883 4.6196, -0.426973 " /><path d="M4.15856, -0.301955 C4.17546, -0.584181 4.14383, -0.895507 4.06714, -1.21256  C3.91668, -1.8424 3.58288, -2.49056 3.16634, -2.97992  C2.96044, -3.22322 2.73578, -3.42829 2.50941, -3.58095  C2.13459, -3.83491 1.75654, -3.94104 1.44986, -3.88202 " /><path d="M4.15658, 0.8582 C4.62634, 0.674244 4.92192, 0.159871 4.95489, -0.517895 " /><path d="M4.95489, -0.517895 C4.98523, -1.06277 4.84811, -1.70555 4.57898, -2.30738  C4.30939, -2.91544 3.90792, -3.47691 3.46792, -3.8714  C3.02445, -4.27211 2.54563, -4.49974 2.14143, -4.50772  C1.80784, -4.51644 1.52591, -4.37834 1.34026, -4.11609 " /><path d="M4.6196, -0.426974 C4.67955, -1.10009 4.46984, -1.93027 4.07848, -2.63946  C3.88316, -2.9965 3.64536, -3.32269 3.38887, -3.58937  C3.12646, -3.86275 2.84487, -4.07342 2.57263, -4.20293  C2.05813, -4.45104 1.58422, -4.39616 1.30722, -4.06397 " /><path d="M4.99133, 0.582357 C5.41564, 0.341062 5.67383, -0.181554 5.70104, -0.842006 " /><path d="M4.28697, 0.795474 Q4.6295, 0.790543 4.90294, 0.633387 " /><path d="M4.90294, 0.633387 C5.32726, 0.392089 5.58544, -0.130532 5.61265, -0.790974 " /><path d="M5.70104, -0.842006 C5.73713, -1.57244 5.48499, -2.46175 5.0424, -3.21106  C4.76757, -3.68067 4.42348, -4.09391 4.06223, -4.39338  C3.8673, -4.55501 3.67218, -4.6819 3.47686, -4.77404  C3.0485, -4.97707 2.64299, -4.99175 2.34488, -4.81792 " /><path d="M5.69843, 0.174109 C6.12275, -0.0671867 6.38094, -0.589805 6.40814, -1.25025 " /><path d="M5.61265, -0.790974 C5.64507, -1.46101 5.43741, -2.26477 5.05936, -2.97146  C4.81859, -3.425 4.51163, -3.83727 4.17987, -4.15738  C3.94294, -4.38566 3.70247, -4.56271 3.45845, -4.68852  C3.00469, -4.92341 2.57072, -4.95042 2.25649, -4.76689 " /><path d="M2.25649, -4.76689 Q2.08726, -4.66898 1.96719, -4.49826 " /><path d="M5.27285, 0.355531 Q5.45399, 0.31516 5.61005, 0.225139 " /><path d="M5.61005, 0.225139 C6.03436, -0.0161597 6.29254, -0.538777 6.31976, -1.19922 " /><path d="M6.40814, -1.25025 C6.44424, -1.98068 6.1921, -2.86999 5.74951, -3.61931  C5.47468, -4.08892 5.13059, -4.50215 4.76934, -4.80162  C4.57442, -4.96325 4.3793, -5.09014 4.18398, -5.18229  C3.75562, -5.38532 3.3501, -5.4 3.05199, -5.22617 " /><path d="M6.40554, -0.23414 C6.82985, -0.475435 7.08805, -0.998052 7.11525, -1.6585 " /><path d="M6.31976, -1.19922 C6.35218, -1.86926 6.14452, -2.67302 5.76646, -3.37971  C5.5257, -3.83325 5.21874, -4.24552 4.88697, -4.56563  C4.65004, -4.79391 4.40957, -4.97096 4.16556, -5.09677  C3.7118, -5.33166 3.27783, -5.35867 2.9636, -5.17514 " /><path d="M2.9636, -5.17514 Q2.80686, -5.0845 2.69206, -4.93103 " /><path d="M5.97996, -0.0527178 Q6.1611, -0.0930891 6.31716, -0.18311 " /><path d="M6.31716, -0.18311 C6.74147, -0.424408 6.99965, -0.947025 7.02686, -1.60747 " /><path d="M7.11525, -1.6585 C7.15135, -2.38893 6.89921, -3.27824 6.45662, -4.02755  C6.18179, -4.49716 5.8377, -4.91039 5.47645, -5.20987  C5.28154, -5.3715 5.08642, -5.49838 4.8911, -5.59053  C4.46273, -5.79357 4.05721, -5.80825 3.7591, -5.63442 " /><path d="M7.11265, -0.642389 C7.53696, -0.883684 7.79516, -1.4063 7.82236, -2.06675 " /><path d="M7.02686, -1.60747 C7.05929, -2.27751 6.85162, -3.08127 6.47357, -3.78796  C6.2328, -4.24149 5.92584, -4.65377 5.59408, -4.97388  C5.35715, -5.20216 5.11668, -5.37921 4.87266, -5.50502  C4.4189, -5.73991 3.98493, -5.76691 3.67071, -5.58339 " /><path d="M3.67071, -5.58339 Q3.51396, -5.49274 3.39916, -5.33928 " /><path d="M6.68706, -0.460966 Q6.86821, -0.501338 7.02426, -0.591359 " /><path d="M7.02426, -0.591359 C7.44858, -0.832657 7.70676, -1.35527 7.73397, -2.01572 " /><path d="M7.82236, -2.06675 C7.85845, -2.79718 7.60632, -3.68648 7.16373, -4.43579  C6.88891, -4.9054 6.54481, -5.31864 6.18357, -5.61811  C5.98865, -5.77974 5.79354, -5.90662 5.59823, -5.99877  C5.16985, -6.20182 4.76432, -6.2165 4.46621, -6.04267 " /><path d="M7.81976, -1.05064 C8.24407, -1.29193 8.50226, -1.81455 8.52947, -2.475 " /><path d="M7.73397, -2.01572 C7.7664, -2.68576 7.55873, -3.48952 7.18068, -4.19621  C6.93991, -4.64974 6.63295, -5.06202 6.30119, -5.38213  C6.06426, -5.61041 5.82378, -5.78746 5.57977, -5.91327  C5.12601, -6.14816 4.69204, -6.17516 4.37782, -5.99163 " /><path d="M4.37782, -5.99163 Q4.22107, -5.90099 4.10627, -5.74753 " /><path d="M7.39417, -0.869215 Q7.57531, -0.909586 7.73137, -0.999607 " /><path d="M7.73137, -0.999607 C8.15569, -1.24091 8.41387, -1.76353 8.44108, -2.42397 " /><path d="M8.52947, -2.475 C8.56556, -3.20542 8.31343, -4.09473 7.87084, -4.84404  C7.59602, -5.31365 7.25193, -5.72688 6.89068, -6.02635  C6.69577, -6.18798 6.50066, -6.31486 6.30535, -6.40701  C5.87697, -6.61006 5.47143, -6.62475 5.17331, -6.45092 " /><path d="M8.52686, -1.45889 C8.95117, -1.70018 9.20937, -2.2228 9.23657, -2.88325 " /><path d="M8.44108, -2.42397 C8.4735, -3.09401 8.26584, -3.89777 7.88778, -4.60446  C7.64702, -5.05799 7.34006, -5.47027 7.00829, -5.79038  C6.77136, -6.01866 6.53089, -6.19571 6.28687, -6.32152  C5.83311, -6.55641 5.39915, -6.58341 5.08492, -6.39988 " /><path d="M5.08492, -6.39988 Q4.92818, -6.30924 4.81338, -6.15578 " /><path d="M8.10128, -1.27746 Q8.28242, -1.31783 8.43848, -1.40786 " /><path d="M8.43848, -1.40786 C8.86279, -1.64915 9.12097, -2.17177 9.14819, -2.83222 " /><path d="M9.23657, -2.88325 C9.27267, -3.61367 9.02053, -4.50297 8.57795, -5.25228  C8.30313, -5.72189 7.95904, -6.13512 7.5978, -6.4346  C7.40289, -6.59622 7.20778, -6.7231 7.01248, -6.81525  C6.58409, -7.01831 6.17854, -7.033 5.88042, -6.85916 " /><path d="M9.23397, -1.86713 C9.65828, -2.10843 9.91648, -2.63105 9.94368, -3.2915 " /><path d="M9.14819, -2.83222 C9.18061, -3.50226 8.97294, -4.30602 8.59489, -5.01271  C8.35412, -5.46624 8.04716, -5.87852 7.7154, -6.19863  C7.47847, -6.42691 7.23799, -6.60396 6.99397, -6.72977  C6.54022, -6.96465 6.10625, -6.99166 5.79203, -6.80813 " /><path d="M5.79203, -6.80813 Q5.63529, -6.71749 5.52049, -6.56403 " /><path d="M8.80839, -1.68571 Q8.98953, -1.72608 9.14559, -1.8161 " /><path d="M9.14559, -1.8161 C9.5699, -2.0574 9.82808, -2.58002 9.85529, -3.24047 " /><path d="M9.94368, -3.2915 C9.97978, -4.02192 9.72764, -4.91121 9.28506, -5.66052  C9.01024, -6.13013 8.66615, -6.54337 8.30491, -6.84284  C8.11001, -7.00446 7.9149, -7.13134 7.7196, -7.22349  C7.29121, -7.42656 6.88566, -7.44125 6.58753, -7.26741 " /><path d="M9.94108, -2.27538 C10.3654, -2.51668 10.6236, -3.0393 10.6508, -3.69975 " /><path d="M9.85529, -3.24047 C9.88772, -3.91051 9.68005, -4.71427 9.302, -5.42096  C9.06123, -5.87449 8.75427, -6.28677 8.42251, -6.60688  C8.18557, -6.83516 7.94509, -7.01221 7.70108, -7.13803  C7.24732, -7.3729 6.81336, -7.39991 6.49914, -7.21638 " /><path d="M6.49914, -7.21638 Q6.34239, -7.12574 6.22759, -6.97228 " /><path d="M9.51549, -2.09396 Q9.69664, -2.13433 9.85269, -2.22435 " /><path d="M9.85269, -2.22435 C10.277, -2.46565 10.5352, -2.98827 10.5624, -3.64872 " /><path d="M10.6508, -3.69975 C10.6869, -4.43017 10.4348, -5.31946 9.99217, -6.06877  C9.71735, -6.53838 9.37326, -6.95161 9.01202, -7.25109  C8.81712, -7.4127 8.62202, -7.53959 8.42672, -7.63173  C7.99832, -7.83481 7.59276, -7.8495 7.29464, -7.67566 " /><path d="M10.6482, -2.68363 C11.0725, -2.92493 11.3307, -3.44755 11.3579, -4.108 " /><path d="M10.5624, -3.64872 C10.5948, -4.31876 10.3872, -5.12252 10.0091, -5.82921  C9.76834, -6.28274 9.46137, -6.69502 9.12961, -7.01513  C8.89267, -7.24341 8.6522, -7.42046 8.40818, -7.54628  C7.95442, -7.78115 7.52047, -7.80815 7.20625, -7.62463 " /><path d="M7.20625, -7.62463 Q7.0495, -7.53399 6.9347, -7.38053 " /><path d="M10.2226, -2.50221 Q10.4037, -2.54258 10.5598, -2.6326 " /><path d="M10.5598, -2.6326 C10.9841, -2.8739 11.2423, -3.39652 11.2695, -4.05696 " /><path d="M11.3579, -4.108 C11.394, -4.83841 11.1419, -5.72771 10.6993, -6.47701  C10.4245, -6.94662 10.0804, -7.35986 9.71913, -7.65933  C9.52423, -7.82095 9.32913, -7.94783 9.13384, -8.03998  C8.70544, -8.24306 8.29987, -8.25775 8.00174, -8.08391 " /><path d="M11.3553, -3.09188 C11.7796, -3.33318 12.0378, -3.85579 12.065, -4.51624 " /><path d="M11.2695, -4.05696 C11.3019, -4.72701 11.0943, -5.53077 10.7162, -6.23745  C10.4754, -6.69099 10.1685, -7.10327 9.83672, -7.42338  C9.59978, -7.65166 9.3593, -7.82871 9.11529, -7.95453  C8.66153, -8.1894 8.22757, -8.2164 7.91335, -8.03288 " /><path d="M7.91335, -8.03288 Q7.75661, -7.94224 7.64181, -7.78877 " /><path d="M10.9297, -2.91046 Q11.1109, -2.95083 11.2669, -3.04085 " /><path d="M11.2669, -3.04085 C11.6912, -3.28215 11.9494, -3.80477 11.9766, -4.46521 " /><path d="M12.065, -4.51624 C12.1011, -5.24666 11.849, -6.13595 11.4064, -6.88526  C11.1316, -7.35486 10.7875, -7.7681 10.4262, -8.06758  C10.2313, -8.22919 10.0363, -8.35607 9.84096, -8.44822  C9.41255, -8.65131 9.00699, -8.666 8.70885, -8.49216 " /><path d="M12.0624, -3.50013 C12.4867, -3.74142 12.7449, -4.26404 12.7721, -4.92449 " /><path d="M11.9766, -4.46521 C12.009, -5.13525 11.8014, -5.93901 11.4233, -6.6457  C11.1826, -7.09924 10.8756, -7.51152 10.5438, -7.83163  C10.3069, -8.05991 10.0664, -8.23696 9.82239, -8.36277  C9.36864, -8.59765 8.93468, -8.62465 8.62046, -8.44113 " /><path d="M8.62046, -8.44113 Q8.46372, -8.35049 8.34892, -8.19702 " /><path d="M11.6368, -3.31871 Q11.818, -3.35908 11.974, -3.4491 " /><path d="M11.974, -3.4491 C12.3983, -3.6904 12.6565, -4.21302 12.6837, -4.87346 " /><path d="M12.7721, -4.92449 C12.8082, -5.65491 12.5561, -6.54419 12.1135, -7.2935  C11.8387, -7.7631 11.4946, -8.17634 11.1334, -8.47582  C10.9385, -8.63743 10.7434, -8.76431 10.5481, -8.85646  C10.1197, -9.05955 9.7141, -9.07425 9.41596, -8.90041 " /><path d="M12.7695, -3.90838 C13.1938, -4.14967 13.452, -4.67229 13.4792, -5.33274 " /><path d="M12.6837, -4.87346 C12.7161, -5.5435 12.5085, -6.34726 12.1304, -7.05395  C11.8897, -7.50749 11.5827, -7.91977 11.2509, -8.23988  C11.014, -8.46816 10.7735, -8.64521 10.5295, -8.77102  C10.0757, -9.0059 9.64179, -9.0329 9.32757, -8.84938 " /><path d="M9.32757, -8.84938 Q9.17082, -8.75873 9.05602, -8.60527 " /><path d="M12.3439, -3.72696 Q12.5251, -3.76733 12.6811, -3.85735 " /><path d="M12.6811, -3.85735 C13.1054, -4.09865 13.3636, -4.62126 13.3908, -5.28171 " /><path d="M13.4792, -5.33274 C13.5153, -6.06315 13.2632, -6.95244 12.8206, -7.70174  C12.5458, -8.17135 12.2017, -8.58458 11.8405, -8.88406  C11.6456, -9.04567 11.4505, -9.17255 11.2552, -9.2647  C10.8268, -9.4678 10.4212, -9.48251 10.1231, -9.30866 " /><path d="M13.4766, -4.31663 C13.9009, -4.55792 14.1591, -5.08054 14.1863, -5.74099 " /><path d="M13.3908, -5.28171 C13.4233, -5.95175 13.2156, -6.75551 12.8375, -7.4622  C12.5968, -7.91574 12.2898, -8.32802 11.958, -8.64813  C11.7211, -8.87641 11.4806, -9.05346 11.2366, -9.17928  C10.7828, -9.41415 10.3489, -9.44115 10.0347, -9.25762 " /><path d="M13.3882, -4.2656 C13.8125, -4.50689 14.0707, -5.02951 14.0979, -5.68996 " /><path d="M14.1863, -5.74099 C14.2224, -6.4714 13.9703, -7.36069 13.5277, -8.10999  C13.2529, -8.5796 12.9088, -8.99283 12.5476, -9.29231  C12.3527, -9.45392 12.1576, -9.5808 11.9623, -9.67295  C11.5339, -9.87605 11.1283, -9.89075 10.8302, -9.7169 " /><path d="M14.1837, -4.72488 C14.608, -4.96617 14.8662, -5.48879 14.8934, -6.14924 " /><path d="M14.0979, -5.68996 C14.1304, -6.36 13.9227, -7.16376 13.5446, -7.87045  C13.3039, -8.32399 12.9969, -8.73627 12.6651, -9.05638  C12.4282, -9.28466 12.1877, -9.46171 11.9437, -9.58753  C11.49, -9.8224 11.056, -9.8494 10.7418, -9.66587 " /><path d="M10.7418, -9.66587 Q10.585, -9.57523 10.4702, -9.42177 " /><path d="M13.7581, -4.54345 Q13.9393, -4.58382 14.0953, -4.67385 " /><path d="M14.0953, -4.67385 C14.5197, -4.91514 14.7778, -5.43776 14.805, -6.09821 " /><path d="M14.8934, -6.14924 C14.9295, -6.87965 14.6774, -7.76893 14.2348, -8.51823  C13.96, -8.98783 13.6159, -9.40107 13.2547, -9.70055  C13.0598, -9.86215 12.8647, -9.98903 12.6695, -10.0812  C12.241, -10.2843 11.8354, -10.299 11.5373, -10.1252 " /><path d="M14.8908, -5.13312 C15.3151, -5.37442 15.5733, -5.89704 15.6005, -6.55749 " /><path d="M14.805, -6.09821 C14.8375, -6.76825 14.6298, -7.57201 14.2518, -8.2787  C14.011, -8.73224 13.704, -9.14451 13.3723, -9.46463  C13.1353, -9.69291 12.8948, -9.86996 12.6508, -9.99578  C12.1971, -10.2306 11.7631, -10.2576 11.4489, -10.0741 " /><path d="M11.4489, -10.0741 Q11.2921, -9.98348 11.1773, -9.83002 " /><path d="M14.4652, -4.9517 Q14.6464, -4.99207 14.8024, -5.08209 " /><path d="M14.8024, -5.08209 C15.2268, -5.32339 15.4849, -5.84601 15.5122, -6.50646 " /><path d="M15.6005, -6.55749 C15.6366, -7.2879 15.3845, -8.17718 14.9419, -8.92648  C14.6671, -9.39608 14.323, -9.80932 13.9618, -10.1088  C13.4969, -10.4968 13.0064, -10.6904 12.6095, -10.6485 " /><path d="M15.5122, -6.50646 C15.5446, -7.1765 15.3369, -7.98026 14.9589, -8.68695  C14.7181, -9.14049 14.4111, -9.55277 14.0794, -9.87288  C13.8424, -10.1012 13.6019, -10.2782 13.3579, -10.404  C12.9042, -10.6389 12.4702, -10.6659 12.156, -10.4824 " /><path d="M12.156, -10.4824 Q11.9993, -10.3917 11.8845, -10.2383 " /><path d="M15.8392, -6.9735 C15.8402, -6.47895 15.7002, -6.06045 15.4452, -5.79928 " /><path d="M12.2179 -10.5181 A3 1.73205 60 0 1 12.6095 -10.6485" />
<path id= "426" d=" M 15.8392 -6.9735 L 15.8392 -7.18517 " />
<path d="M15.8392, -6.9735 C15.844, -7.70694 15.522, -8.60176 15.0205, -9.27635  C14.7369, -9.66238 14.4017, -9.97537 14.0709, -10.1657 " /><path d="M14.0709, -10.1657 Q13.8463, -10.2952 13.6329, -10.3485 " /><path d="M14.1421 -10.1246 A2.4 1.38564 60 0 1 15.8392 -7.18517" />
</g>

</svg>
