<svg xmlns="http://www.w3.org/2000/svg" viewBox="-11.32 -14.3163 33.64 28.6326">
<rect width="100%" height="100%" fill="white"/>
<g   fill="none"
   stroke="rgb(0, 0, 0)"
   stroke-linecap="butt"
   stroke-linejoin="miter"
   stroke-width="0.35"
   transform="scale(1, -1)"
  >
<path id= "1" d=" M -9 -11.5 L -8.8 -11.7 " />
<path id= "2" d=" M -4 -11.5 L -4.2 -11.7 " />
<path d="M-3, -3 C-3.25953, -2.99898 -3.5173, -3.10457 -3.70153, -3.28736  C-3.89101, -3.47234 -4.0011, -3.7352 -4, -4 " /><path id= "4" d=" M -3 -3 L 0 -3 " />
<path d="M0.541266, -2.45873 C0.507157, -2.45874 0.473349, -2.46194 0.439843, -2.46832  C0.190872, -2.51096 -0.00477202, -2.74745 1.38778e-17, -3 " /><path id= "6" d=" M 0.541266 -2.45873 L 2.87503 -2.45873 " />
<path id= "7" d=" M 2.37503 2.45873 L 2.37503 2.45873 " />
<path d="M2.39281, 2.44342 L2.3928, 2.44343 " /><path d="M2.89281, -2.44342 L2.8928, -2.44343 " /><path d="M2.50004, 2.38657 Q2.45359, 2.3875 2.41969, 2.4137  Q2.39937, 2.43077 2.3929, 2.44326 " /><path d="M2.89281, -2.44342 Q2.8986, -2.43219 2.9167, -2.41609  Q2.94042, -2.39634 2.97367, -2.38919  Q2.98687, -2.38787 3.00006, -2.38656  Q3.04651, -2.3875 3.0804, -2.41372  Q3.10089, -2.43097 3.10727, -2.44342 " /><path d="M3.50003, 2.38657 Q3.54648, 2.3875 3.58037, 2.41371  Q3.60089, 2.43097 3.60727, 2.44343 " /><path id= "13" d=" M 3.15793 -2.51572 L 3.72414 -2.72004 " />
<path d="M3.3928, 2.44342 L3.3244, 2.56117 " /><path d="M3.8928, -2.44342 L3.73742, -2.71099 " /><path d="M3.13592, -2.49276 L3.10727, -2.44342 " /><path d="M3.76929, 2.72254 L3.60727, 2.44343 " /><path d="M4.10726, -2.44342 Q4.10148, -2.43221 4.08338, -2.41611  Q4.05966, -2.39635 4.02641, -2.38919  Q4.01322, -2.38788 4.00002, -2.38656  Q3.95357, -2.3875 3.91968, -2.41371  Q3.89918, -2.43096 3.8928, -2.44342 " /><path d="M4.60726, 2.44343 Q4.60148, 2.43221 4.58338, 2.41611  Q4.54895, 2.38771 4.50003, 2.38657 " /><path d="M3.50003, 2.38657 Q3.45358, 2.3875 3.41969, 2.4137  Q3.39919, 2.43096 3.3928, 2.44342 " /><path id= "21" d=" M 4.42104 -2.97151 L 4.5 -3 " />
<path d="M4.3928, 2.44342 L4.15052, 2.86076 " /><path d="M4.8928, -2.44342 L4.57706, -2.98742 " /><path d="M4.4024, -2.95204 L4.10726, -2.44342 " /><path d="M4.60726, 2.44343 L4.92289, 2.98741 " /><path d="M5.10726, -2.44342 Q5.10148, -2.43221 5.08338, -2.41611  Q5.05966, -2.39635 5.02641, -2.38919  Q5.01321, -2.38788 5.00002, -2.38656  Q4.95357, -2.3875 4.91968, -2.41371  Q4.89918, -2.43096 4.8928, -2.44342 " /><path d="M5.60726, 2.44343 Q5.60147, 2.43221 5.58337, 2.41611  Q5.54895, 2.38771 5.50003, 2.38657 " /><path d="M4.50003, 2.38657 Q4.45358, 2.3875 4.41969, 2.4137  Q4.39918, 2.43096 4.3928, 2.44342 " /><path id= "29" d=" M 4.5 -3 L 4.56248 -3 " />
<path d="M5.3928, 2.44342 L5.07707, 2.98741 " /><path d="M5.8928, -2.44342 L5.57706, -2.98742 " /><path d="M5.4229, -2.98741 L5.10726, -2.44342 " /><path d="M5.9229, 2.98741 L5.60726, 2.44343 " /><path d="M6.10726, -2.44342 Q6.10147, -2.4322 6.08337, -2.4161  Q6.05966, -2.39635 6.02641, -2.38919  Q6.01321, -2.38788 6.00002, -2.38656  Q5.95356, -2.3875 5.91968, -2.41371  Q5.89918, -2.43096 5.8928, -2.44342 " /><path d="M6.60726, 2.44343 Q6.60147, 2.43221 6.58337, 2.41611  Q6.54895, 2.38771 6.50003, 2.38657 " /><path d="M5.50003, 2.38657 Q5.45358, 2.3875 5.41969, 2.4137  Q5.39918, 2.43096 5.3928, 2.44342 " /><path id= "37" d=" M 5.43749 -3 L 5.56248 -3 " />
<path d="M6.3928, 2.44342 L6.07707, 2.98741 " /><path d="M6.8928, -2.44342 L6.57707, -2.98742 " /><path d="M6.4229, -2.98741 L6.10726, -2.44342 " /><path d="M6.9229, 2.98741 L6.60726, 2.44343 " /><path d="M7.10726, -2.44342 Q7.10147, -2.4322 7.08337, -2.4161  Q7.05966, -2.39635 7.02641, -2.38919  Q7.01321, -2.38788 7.00001, -2.38656  Q6.95356, -2.3875 6.91968, -2.41371  Q6.89918, -2.43096 6.8928, -2.44342 " /><path d="M7.60726, 2.44343 Q7.60147, 2.43221 7.58337, 2.41611  Q7.54894, 2.38771 7.50003, 2.38657 " /><path d="M6.50003, 2.38657 Q6.45358, 2.3875 6.41969, 2.4137  Q6.39918, 2.43096 6.3928, 2.44342 " /><path id= "45" d=" M 6.43749 -3 L 6.56248 -3 " />
<path d="M7.3928, 2.44342 L7.07707, 2.98741 " /><path d="M7.8928, -2.44342 L7.57707, -2.98742 " /><path d="M7.4229, -2.98741 L7.10726, -2.44342 " /><path d="M7.9229, 2.98741 L7.60726, 2.44343 " /><path d="M8.10726, -2.44342 Q8.10147, -2.4322 8.08337, -2.4161  Q8.05965, -2.39635 8.0264, -2.38919  Q8.01321, -2.38788 8.00001, -2.38656  Q7.95356, -2.3875 7.91967, -2.41371  Q7.89917, -2.43096 7.8928, -2.44342 " /><path d="M8.60726, 2.44343 Q8.60147, 2.43221 8.58337, 2.41611  Q8.54894, 2.38771 8.50002, 2.38657 " /><path d="M7.50003, 2.38657 Q7.45358, 2.3875 7.41968, 2.41371  Q7.39918, 2.43096 7.3928, 2.44342 " /><path id= "53" d=" M 7.43749 -3 L 7.56249 -3 " />
<path d="M8.39279, 2.44342 L8.07707, 2.98741 " /><path d="M8.89279, -2.44342 L8.57707, -2.98742 " /><path d="M8.4229, -2.98741 L8.10726, -2.44342 " /><path d="M8.9229, 2.98741 L8.60726, 2.44343 " /><path d="M9.10725, -2.44342 Q9.10147, -2.4322 9.08337, -2.4161  Q9.05965, -2.39635 9.0264, -2.38919  Q9.01321, -2.38788 9.00001, -2.38656  Q8.95356, -2.3875 8.91967, -2.41371  Q8.89917, -2.43096 8.89279, -2.44342 " /><path d="M9.60725, 2.44343 Q9.60147, 2.43221 9.58337, 2.41611  Q9.54894, 2.38771 9.50002, 2.38657 " /><path d="M8.50002, 2.38657 Q8.45357, 2.3875 8.41968, 2.41371  Q8.39917, 2.43096 8.39279, 2.44342 " /><path id= "61" d=" M 8.43749 -3 L 8.56249 -3 " />
<path d="M9.39279, 2.44342 L9.07707, 2.98741 " /><path d="M9.89279, -2.44342 L9.57707, -2.98742 " /><path d="M9.4229, -2.98741 L9.10725, -2.44342 " /><path d="M9.9229, 2.98741 L9.60725, 2.44343 " /><path d="M10.1073, -2.44342 Q10.1015, -2.4322 10.0834, -2.4161  Q10.0596, -2.39635 10.0264, -2.38919  Q10.0132, -2.38788 10, -2.38656  Q9.95356, -2.3875 9.91967, -2.41371  Q9.89917, -2.43096 9.89279, -2.44342 " /><path d="M10.6073, 2.44343 Q10.6015, 2.43221 10.5834, 2.41611  Q10.5489, 2.38771 10.5, 2.38657 " /><path d="M9.50002, 2.38657 Q9.45357, 2.3875 9.41968, 2.41371  Q9.39917, 2.43096 9.39279, 2.44342 " /><path id= "69" d=" M 9.43749 -3 L 9.56249 -3 " />
<path d="M10.3928, 2.44342 L10.0771, 2.98741 " /><path d="M10.8928, -2.44342 L10.5771, -2.98742 " /><path d="M10.4229, -2.98741 L10.1073, -2.44342 " /><path d="M10.9229, 2.98741 L10.6073, 2.44343 " /><path d="M11.1073, -2.44342 Q11.1015, -2.4322 11.0834, -2.4161  Q11.0596, -2.39635 11.0264, -2.38919  Q11.0132, -2.38788 11, -2.38656  Q10.9536, -2.3875 10.9197, -2.41371  Q10.8992, -2.43096 10.8928, -2.44342 " /><path d="M11.6073, 2.44343 Q11.6015, 2.43221 11.5834, 2.41611  Q11.5489, 2.38771 11.5, 2.38657 " /><path d="M10.5, 2.38657 Q10.4536, 2.3875 10.4197, 2.41371  Q10.3992, 2.43096 10.3928, 2.44342 " /><path id= "77" d=" M 10.4375 -3 L 10.5625 -3 " />
<path d="M11.3928, 2.44342 L11.0771, 2.98741 " /><path d="M11.8928, -2.44342 L11.5771, -2.98742 " /><path d="M11.4229, -2.98741 L11.1073, -2.44342 " /><path d="M11.9229, 2.98741 L11.6073, 2.44343 " /><path d="M12.1072, -2.44342 Q12.1015, -2.4322 12.0834, -2.4161  Q12.0596, -2.39635 12.0264, -2.38919  Q12.0132, -2.38788 12, -2.38656  Q11.9536, -2.3875 11.9197, -2.41371  Q11.8992, -2.43096 11.8928, -2.44342 " /><path d="M12.6072, 2.44343 Q12.6015, 2.43221 12.5834, 2.41611  Q12.5489, 2.38771 12.5, 2.38657 " /><path d="M11.5, 2.38657 Q11.4536, 2.3875 11.4197, 2.41371  Q11.3992, 2.43096 11.3928, 2.44342 " /><path id= "85" d=" M 11.4375 -3 L 11.5625 -3 " />
<path d="M12.3928, 2.44342 L12.0771, 2.98741 " /><path d="M12.8928, -2.44342 L12.5771, -2.98742 " /><path d="M12.4229, -2.98741 L12.1072, -2.44342 " /><path d="M12.9229, 2.98741 L12.6072, 2.44343 " /><path d="M13.1072, -2.44342 Q13.1015, -2.4322 13.0834, -2.4161  Q13.0596, -2.39635 13.0264, -2.38919  Q13.0132, -2.38788 13, -2.38656  Q12.9535, -2.3875 12.9197, -2.41371  Q12.8992, -2.43096 12.8928, -2.44342 " /><path d="M13.6072, 2.44343 Q13.6015, 2.43221 13.5834, 2.41611  Q13.5489, 2.38771 13.5, 2.38657 " /><path d="M12.5, 2.38657 Q12.4536, 2.3875 12.4197, 2.41371  Q12.3992, 2.43096 12.3928, 2.44342 " /><path id= "93" d=" M 12.4375 -3 L 12.5625 -3 " />
<path d="M13.3928, 2.44342 L13.0771, 2.98741 " /><path d="M13.8928, -2.44342 L13.5771, -2.98742 " /><path d="M13.4229, -2.98741 L13.1072, -2.44342 " /><path d="M13.9229, 2.98741 L13.6072, 2.44343 " /><path d="M14.1072, -2.44342 Q14.1015, -2.4322 14.0834, -2.4161  Q14.0596, -2.39635 14.0264, -2.38919  Q14.0132, -2.38788 14, -2.38656  Q13.9535, -2.3875 13.9197, -2.41371  Q13.8992, -2.43096 13.8928, -2.44342 " /><path d="M14.6072, 2.44343 Q14.6015, 2.43221 14.5834, 2.41611  Q14.5489, 2.38771 14.5, 2.38657 " /><path d="M13.5, 2.38657 Q13.4536, 2.3875 13.4197, 2.41371  Q13.3992, 2.43096 13.3928, 2.44342 " /><path id= "101" d=" M 13.4375 -3 L 13.5625 -3 " />
<path d="M14.3928, 2.44342 L14.0771, 2.98741 " /><path d="M14.8928, -2.44342 L14.5771, -2.98742 " /><path d="M14.4229, -2.98741 L14.1072, -2.44342 " /><path d="M14.9229, 2.98741 L14.6072, 2.44343 " /><path d="M15.1072, -2.44342 Q15.1015, -2.4322 15.0834, -2.4161  Q15.0596, -2.39635 15.0264, -2.38919  Q15.0132, -2.38788 15, -2.38656  Q14.9535, -2.3875 14.9197, -2.41371  Q14.8992, -2.43096 14.8928, -2.44342 " /><path d="M15.6072, 2.44343 Q15.6015, 2.43221 15.5834, 2.41611  Q15.5489, 2.38771 15.5, 2.38657 " /><path d="M14.5, 2.38657 Q14.4536, 2.3875 14.4197, 2.41371  Q14.3992, 2.43096 14.3928, 2.44342 " /><path id= "109" d=" M 14.4375 -3 L 14.5625 -3 " />
<path d="M15.3928, 2.44342 L15.0771, 2.98741 " /><path d="M15.8928, -2.44342 L15.5771, -2.98742 " /><path d="M15.4229, -2.98741 L15.1072, -2.44342 " /><path d="M15.9229, 2.98741 L15.6072, 2.44343 " /><path d="M16.1072, -2.44342 Q16.1015, -2.4322 16.0834, -2.4161  Q16.0596, -2.39635 16.0264, -2.38919  Q16.0132, -2.38788 16, -2.38656  Q15.9535, -2.3875 15.9197, -2.41371  Q15.8992, -2.43096 15.8928, -2.44342 " /><path d="M16.6072, 2.44343 Q16.6015, 2.43221 16.5834, 2.41611  Q16.5489, 2.38771 16.5, 2.38657 " /><path d="M15.5, 2.38657 Q15.4536, 2.3875 15.4197, 2.41371  Q15.3992, 2.43096 15.3928, 2.44342 " /><path id= "117" d=" M 15.4375 -3 L 15.5625 -3 " />
<path d="M16.3928, 2.44343 L16.0771, 2.98741 " /><path d="M16.8928, -2.44342 L16.5771, -2.98742 " /><path d="M16.4229, -2.98741 L16.1072, -2.44342 " /><path d="M16.9229, 2.98741 L16.6072, 2.44343 " /><path d="M17.1072, -2.44342 Q17.1015, -2.4322 17.0834, -2.4161  Q17.0596, -2.39635 17.0264, -2.38919  Q17.0132, -2.38788 17, -2.38656  Q16.9535, -2.3875 16.9197, -2.41371  Q16.8992, -2.43096 16.8928, -2.44342 " /><path d="M17.6072, 2.44343 Q17.6014, 2.4322 17.5833, 2.41611  Q17.5489, 2.38771 17.5, 2.38657 " /><path d="M16.5, 2.38657 Q16.4536, 2.3875 16.4197, 2.41371  Q16.3992, 2.43096 16.3928, 2.44343 " /><path id= "125" d=" M 16.4375 -3 L 16.5625 -3 " />
<path d="M17.3928, 2.44343 L17.0771, 2.98741 " /><path d="M17.8928, -2.44342 L17.5771, -2.98741 " /><path d="M17.4229, -2.98741 L17.1072, -2.44342 " /><path d="M17.9229, 2.98741 L17.6072, 2.44343 " /><path d="M18.1072, -2.44342 Q18.1014, -2.4322 18.0833, -2.4161  Q18.0596, -2.39635 18.0264, -2.38919  Q18.0132, -2.38788 18, -2.38656  Q17.9535, -2.3875 17.9197, -2.41371  Q17.8992, -2.43096 17.8928, -2.44342 " /><path d="M18.6072, 2.44343 Q18.6014, 2.4322 18.5833, 2.41611  Q18.5489, 2.38771 18.5, 2.38657 " /><path d="M17.5, 2.38657 Q17.4536, 2.3875 17.4197, 2.41371  Q17.3992, 2.43096 17.3928, 2.44343 " /><path id= "133" d=" M 17.4375 -3 L 17.5625 -3 " />
<path d="M18.3928, 2.44343 L18.0771, 2.98741 " /><path d="M18.8928, -2.44342 L18.5771, -2.98741 " /><path d="M18.4229, -2.98741 L18.1072, -2.44342 " /><path d="M18.9229, 2.98741 L18.6072, 2.44343 " /><path d="M19.1072, -2.44342 Q19.1014, -2.4322 19.0833, -2.4161  Q19.0596, -2.39635 19.0264, -2.38919  Q19.0132, -2.38788 19, -2.38656  Q18.9535, -2.3875 18.9196, -2.41371  Q18.8992, -2.43096 18.8928, -2.44342 " /><path d="M19.6072, 2.44343 Q19.6014, 2.4322 19.5833, 2.41611  Q19.5489, 2.38771 19.5, 2.38657 " /><path d="M18.5, 2.38657 Q18.4536, 2.3875 18.4197, 2.41371  Q18.3992, 2.43096 18.3928, 2.44343 " /><path id= "141" d=" M 18.4375 -3 L 18.5625 -3 " />
<path d="M19.3928, 2.44343 L19.0771, 2.98741 " /><path d="M19.8928, -2.44342 L19.8246, -2.56074 " /><path d="M19.1072, -2.44342 L19.4145, -2.97287 " /><path d="M19.6072, 2.44343 L19.7304, 2.6555 " /><path d="M19.5, 2.38657 Q19.4536, 2.3875 19.4197, 2.41371  Q19.3992, 2.43096 19.3928, 2.44343 " /><path d="M19.8928, -2.44342 Q19.8986, -2.4322 19.9167, -2.4161  Q19.9511, -2.38771 20, -2.38656 " /><path id= "148" d=" M 19.7845 -2.61552 L 19.4238 -2.97623 " />
</g>
<g   fill="none"
   stroke="rgb(0, 0, 0)"
   stroke-linecap="butt"
   stroke-linejoin="miter"
   stroke-width="0.35"
   transform="scale(1, -1)"
  >
<path d="M-9, -11.5 L-9, -11.2117  L-9, -10.3611  L-9, -8.99106  L-9, -7.17013  L-9, -4.98966  L-9, -2.55899  L-9, -2.22045e-15  L-9, 2.55899  L-9, 4.98966  L-9, 7.17013  L-9, 8.99106  L-9, 10.3611  L-9, 11.2117  L-9, 11.5 " /><path d="M-8.5, -11.9963 Q-8.65369, -11.8463 -8.8, -11.7 " /><path d="M-8.5, -11.9963 Q-8.5, -11.9891 -8.5, -11.9676 " /><path d="M-8.8, -11.6437 Q-8.65369, -11.8036 -8.5, -11.9676 " /><path d="M-8.5, -11.9095 Q-8.65369, -11.7749 -8.8, -11.6437 " /><path d="M-8.5, -11.9095 Q-8.5, -11.8736 -8.5, -11.8236 " /><path d="M-8.8, -11.4752 Q-8.65369, -11.6472 -8.5, -11.8236 " /><path d="M-8.5, -11.708 Q-8.65369, -11.5901 -8.8, -11.4752 " /><path d="M-8.5, -11.708 Q-8.5, -11.6438 -8.5, -11.5658 " /><path d="M-8.8, -11.1962 Q-8.65369, -11.3787 -8.5, -11.5658 " /><path d="M-8.5, -11.3938 Q-8.65369, -11.2937 -8.8, -11.1962 " /><path d="M-8.5, -11.3938 Q-8.5, -11.3019 -8.5, -11.1966 " /><path d="M-8.8, -10.8094 Q-8.65369, -11.0005 -8.5, -11.1966 " /><path d="M-8.5, -10.9698 Q-8.65369, -10.8886 -8.8, -10.8094 " /><path d="M-8.5, -10.9698 Q-8.5, -10.8511 -8.5, -10.7195 " /><path d="M-8.8, -10.3185 Q-8.65369, -10.5165 -8.5, -10.7195 " /><path d="M-8.5, -10.4401 Q-8.65369, -10.3785 -8.8, -10.3185 " /><path d="M-8.5, -10.4401 Q-8.5, -10.2958 -8.5, -10.1392 " /><path d="M-8.8, -9.72819 Q-8.65369, -9.93112 -8.5, -10.1392 " /><path d="M-8.5, -9.80995 Q-8.65369, -9.76856 -8.8, -9.72819 " /><path d="M-8.5, -9.80995 Q-8.5, -9.64133 -8.5, -9.46129 " /><path d="M-8.8, -9.04422 Q-8.65369, -9.25013 -8.5, -9.46129 " /><path d="M-8.5, -9.0853 Q-8.65369, -9.0645 -8.8, -9.04422 " /><path d="M-8.5, -9.0853 Q-8.5, -8.89403 -8.5, -8.69224 " /><path d="M-8.8, -8.27315 Q-8.65369, -8.48005 -8.5, -8.69224 " /><path d="M-8.5, -8.27315 Q-8.65369, -8.27315 -8.8, -8.27315 " /><path d="M-8.5, -8.27315 Q-8.5, -8.06108 -8.5, -7.83947 " /><path d="M-8.8, -7.4224 Q-8.65369, -7.62831 -8.5, -7.83947 " /><path d="M-8.5, -7.38132 Q-8.65369, -7.40212 -8.8, -7.4224 " /><path d="M-8.5, -7.38132 Q-8.5, -7.1505 -8.5, -6.91121 " /><path d="M-8.8, -6.50017 Q-8.65369, -6.7031 -8.5, -6.91121 " /><path d="M-8.5, -6.41841 Q-8.65369, -6.45981 -8.8, -6.50017 " /><path d="M-8.5, -6.41841 Q-8.5, -6.17105 -8.5, -5.91638 " /><path d="M-8.8, -5.51534 Q-8.65369, -5.71334 -8.5, -5.91638 " /><path d="M-8.5, -5.39369 Q-8.65369, -5.45528 -8.8, -5.51534 " /><path d="M-8.5, -5.39369 Q-8.5, -5.13217 -8.5, -4.86458 " /><path d="M-8.8, -4.4774 Q-8.65369, -4.66855 -8.5, -4.86458 " /><path d="M-8.5, -4.31702 Q-8.65369, -4.39822 -8.8, -4.4774 " /><path d="M-8.5, -4.31702 Q-8.5, -4.04387 -8.5, -3.76593 " /><path d="M-8.8, -3.39633 Q-8.65369, -3.5788 -8.5, -3.76593 " /><path d="M-8.5, -3.19877 Q-8.65369, -3.2988 -8.8, -3.39633 " /><path d="M-8.5, -3.19877 L-8.5, -2.63102 " /><path d="M-8.8, -2.28256 Q-8.65369, -2.45459 -8.5, -2.63102 " /><path d="M-8.5, -2.04972 Q-8.65369, -2.16761 -8.8, -2.28256 " /><path d="M-8.5, -2.04972 L-8.5, -1.47076 " /><path d="M-8.8, -1.1468 Q-8.65369, -1.30674 -8.5, -1.47076 " /><path d="M-8.5, -0.880934 Q-8.65369, -1.01554 -8.8, -1.1468 " /><path d="M-8.5, -0.880934 L-8.5, -0.29634 " /><path d="M-8.8, 9.14824e-14 Q-8.65369, -0.146303 -8.5, -0.29634 " /><path d="M-8.5, 0.29634 Q-8.65369, 0.146303 -8.8, -9.14824e-14 " /><path d="M-8.5, 0.29634 L-8.5, 0.880934 " /><path d="M-8.8, 1.1468 Q-8.65369, 1.01554 -8.5, 0.880934 " /><path d="M-8.5, 1.47076 Q-8.65369, 1.30674 -8.8, 1.1468 " /><path d="M-8.5, 1.47076 L-8.5, 2.04972 " /><path d="M-8.8, 2.28256 Q-8.65369, 2.16761 -8.5, 2.04972 " /><path d="M-8.5, 2.63102 Q-8.65369, 2.45459 -8.8, 2.28256 " /><path d="M-8.5, 2.63102 L-8.5, 3.19877 " /><path d="M-8.8, 3.39633 Q-8.65369, 3.2988 -8.5, 3.19877 " /><path d="M-8.5, 3.76593 Q-8.65369, 3.5788 -8.8, 3.39633 " /><path d="M-8.5, 3.76593 Q-8.5, 4.04387 -8.5, 4.31702 " /><path d="M-8.8, 4.4774 Q-8.65369, 4.39822 -8.5, 4.31702 " /><path d="M-8.5, 4.86458 Q-8.65369, 4.66855 -8.8, 4.4774 " /><path d="M-8.5, 4.86458 Q-8.5, 5.13217 -8.5, 5.39369 " /><path d="M-8.8, 5.51534 Q-8.65369, 5.45528 -8.5, 5.39369 " /><path d="M-8.5, 5.91638 Q-8.65369, 5.71334 -8.8, 5.51534 " /><path d="M-8.5, 5.91638 Q-8.5, 6.17105 -8.5, 6.41841 " /><path d="M-8.8, 6.50017 Q-8.65369, 6.45981 -8.5, 6.41841 " /><path d="M-8.5, 6.91121 Q-8.65369, 6.7031 -8.8, 6.50017 " /><path d="M-8.5, 6.91121 Q-8.5, 7.1505 -8.5, 7.38132 " /><path d="M-8.8, 7.4224 Q-8.65369, 7.40212 -8.5, 7.38132 " /><path d="M-8.5, 7.83947 Q-8.65369, 7.62831 -8.8, 7.4224 " /><path d="M-8.5, 7.83947 Q-8.5, 8.06108 -8.5, 8.27315 " /><path d="M-8.8, 8.27315 Q-8.65369, 8.27315 -8.5, 8.27315 " /><path d="M-8.5, 8.69224 Q-8.65369, 8.48005 -8.8, 8.27315 " /><path d="M-8.5, 8.69224 Q-8.5, 8.89403 -8.5, 9.0853 " /><path d="M-8.8, 9.04422 Q-8.65369, 9.0645 -8.5, 9.0853 " /><path d="M-8.5, 9.46129 Q-8.65369, 9.25013 -8.8, 9.04422 " /><path d="M-8.5, 9.46129 Q-8.5, 9.64133 -8.5, 9.80995 " /><path d="M-8.8, 9.72819 Q-8.65369, 9.76856 -8.5, 9.80995 " /><path d="M-8.5, 10.1392 Q-8.65369, 9.93112 -8.8, 9.72819 " /><path d="M-8.5, 10.1392 Q-8.5, 10.2958 -8.5, 10.4401 " /><path d="M-8.8, 10.3185 Q-8.65369, 10.3785 -8.5, 10.4401 " /><path d="M-8.5, 10.7195 Q-8.65369, 10.5165 -8.8, 10.3185 " /><path d="M-8.5, 10.7195 Q-8.5, 10.8511 -8.5, 10.9698 " /><path d="M-8.8, 10.8094 Q-8.65369, 10.8886 -8.5, 10.9698 " /><path d="M-8.5, 11.1966 Q-8.65369, 11.0005 -8.8, 10.8094 " /><path d="M-8.5, 11.1966 Q-8.5, 11.3019 -8.5, 11.3938 " /><path d="M-8.8, 11.1962 Q-8.65369, 11.2937 -8.5, 11.3938 " /><path d="M-8.5, 11.5658 Q-8.65369, 11.3787 -8.8, 11.1962 " /><path d="M-8.5, 11.5658 Q-8.5, 11.6438 -8.5, 11.708 " /><path d="M-8.8, 11.4752 Q-8.65369, 11.5901 -8.5, 11.708 " /><path d="M-8.5, 11.8236 Q-8.65369, 11.6472 -8.8, 11.4752 " /><path d="M-8.5, 11.8236 Q-8.5, 11.8736 -8.5, 11.9095 " /><path d="M-8.8, 11.6437 Q-8.65369, 11.7749 -8.5, 11.9095 " /><path d="M-8.5, 11.9676 Q-8.65369, 11.8036 -8.8, 11.6437 " /><path d="M-8.5, 11.9676 Q-8.5, 11.9891 -8.5, 11.9963 " /><path d="M-8.8, 11.7 Q-8.65369, 11.8463 -8.5, 11.9963 " /><path id= "98" d=" M -9 11.5 L -8.8 11.7 " />
<path d="M-4.2, -11.7 Q-4.34631, -11.8463 -4.5, -11.9963 " /><path id= "100" d=" M -8.5 -11.9963 L -4.5 -11.9963 " />
<path d="M-4.5, -11.9963 Q-4.5, -11.9891 -4.5, -11.9676 " /><path id= "102" d=" M -8.5 -11.9676 L -4.5 -11.9676 " />
<path d="M-4.5, -11.9676 Q-4.34631, -11.8036 -4.2, -11.6437 " /><path d="M-4.2, -11.6437 Q-4.34631, -11.7749 -4.5, -11.9095 " /><path id= "105" d=" M -8.5 -11.9095 L -4.5 -11.9095 " />
<path d="M-4.5, -11.9095 Q-4.5, -11.8736 -4.5, -11.8236 " /><path id= "107" d=" M -8.5 -11.8236 L -4.5 -11.8236 " />
<path d="M-4.5, -11.8236 Q-4.34631, -11.6472 -4.2, -11.4752 " /><path d="M-4.2, -11.4752 Q-4.34631, -11.5901 -4.5, -11.708 " /><path id= "110" d=" M -8.5 -11.708 L -4.5 -11.708 " />
<path d="M-4.5, -11.708 Q-4.5, -11.6438 -4.5, -11.5658 " /><path id= "112" d=" M -8.5 -11.5658 L -4.5 -11.5658 " />
<path d="M-4.5, -11.5658 Q-4.34631, -11.3787 -4.2, -11.1962 " /><path d="M-4.2, -11.1962 Q-4.34631, -11.2937 -4.5, -11.3938 " /><path id= "115" d=" M -8.5 -11.3938 L -4.5 -11.3938 " />
<path d="M-4.5, -11.3938 Q-4.5, -11.3019 -4.5, -11.1966 " /><path id= "117" d=" M -8.5 -11.1966 L -4.5 -11.1966 " />
<path d="M-4.5, -11.1966 Q-4.34631, -11.0005 -4.2, -10.8094 " /><path d="M-4.2, -10.8094 Q-4.34631, -10.8886 -4.5, -10.9698 " /><path id= "120" d=" M -8.5 -10.9698 L -4.5 -10.9698 " />
<path d="M-4.5, -10.9698 Q-4.5, -10.8511 -4.5, -10.7195 " /><path id= "122" d=" M -8.5 -10.7195 L -4.5 -10.7195 " />
<path d="M-4.5, -10.7195 Q-4.34631, -10.5165 -4.2, -10.3185 " /><path d="M-4.2, -10.3185 Q-4.34631, -10.3785 -4.5, -10.4401 " /><path id= "125" d=" M -8.5 -10.4401 L -4.5 -10.4401 " />
<path d="M-4.5, -10.4401 Q-4.5, -10.2958 -4.5, -10.1392 " /><path id= "127" d=" M -8.5 -10.1392 L -4.5 -10.1392 " />
<path d="M-4.5, -10.1392 Q-4.34631, -9.93112 -4.2, -9.72819 " /><path d="M-4.2, -9.72819 Q-4.34631, -9.76856 -4.5, -9.80995 " /><path id= "130" d=" M -8.5 -9.80995 L -4.5 -9.80995 " />
<path d="M-4.5, -9.80995 Q-4.5, -9.64133 -4.5, -9.46129 " /><path id= "132" d=" M -8.5 -9.46129 L -4.5 -9.46129 " />
<path d="M-4.5, -9.46129 Q-4.34631, -9.25013 -4.2, -9.04422 " /><path d="M-4.2, -9.04422 Q-4.34631, -9.0645 -4.5, -9.0853 " /><path id= "135" d=" M -8.5 -9.0853 L -4.5 -9.0853 " />
<path d="M-4.5, -9.0853 Q-4.5, -8.89403 -4.5, -8.69224 " /><path id= "137" d=" M -8.5 -8.69224 L -4.5 -8.69224 " />
<path d="M-4.5, -8.69224 Q-4.34631, -8.48005 -4.2, -8.27315 " /><path d="M-4.2, -8.27315 Q-4.34631, -8.27315 -4.5, -8.27315 " /><path id= "140" d=" M -8.5 -8.27315 L -4.5 -8.27315 " />
<path d="M-4.5, -8.27315 Q-4.5, -8.06108 -4.5, -7.83947 " /><path id= "142" d=" M -8.5 -7.83947 L -4.5 -7.83947 " />
<path id= "143" d=" M -4.2 -7.4224 L -8.8 -7.4224 " />
<path d="M-4.5, -7.83947 Q-4.34631, -7.62831 -4.2, -7.4224 " /><path d="M-4.2, -7.4224 Q-4.34631, -7.40212 -4.5, -7.38132 " /><path id= "146" d=" M -8.5 -7.38132 L -4.5 -7.38132 " />
<path d="M-4.5, -7.38132 Q-4.5, -7.1505 -4.5, -6.91121 " /><path id= "148" d=" M -8.5 -6.91121 L -4.5 -6.91121 " />
<path id= "149" d=" M -4.2 -6.50017 L -8.8 -6.50017 " />
<path d="M-4.5, -6.91121 Q-4.34631, -6.7031 -4.2, -6.50017 " /><path d="M-4.2, -6.50017 Q-4.34631, -6.45981 -4.5, -6.41841 " /><path id= "152" d=" M -8.5 -6.41841 L -4.5 -6.41841 " />
<path d="M-4.5, -6.41841 Q-4.5, -6.17105 -4.5, -5.91638 " /><path id= "154" d=" M -8.5 -5.91638 L -4.5 -5.91638 " />
<path id= "155" d=" M -4.2 -5.51534 L -8.8 -5.51534 " />
<path d="M-4.5, -5.91638 Q-4.34631, -5.71334 -4.2, -5.51534 " /><path d="M-4.2, -5.51534 Q-4.34631, -5.45528 -4.5, -5.39369 " /><path id= "158" d=" M -8.5 -5.39369 L -4.5 -5.39369 " />
<path d="M-4.5, -5.39369 Q-4.5, -5.13217 -4.5, -4.86458 " /><path id= "160" d=" M -8.5 -4.86458 L -4.5 -4.86458 " />
<path id= "161" d=" M -4.2 -4.4774 L -8.8 -4.4774 " />
<path d="M-4.5, -4.86458 Q-4.34631, -4.66855 -4.2, -4.4774 " /><path d="M-4.2, -4.4774 Q-4.34631, -4.39822 -4.5, -4.31702 " /><path id= "164" d=" M -8.5 -4.31702 L -4.5 -4.31702 " />
<path d="M-4.5, -4.31702 Q-4.5, -4.04387 -4.5, -3.76593 " /><path id= "166" d=" M -8.5 -3.76593 L -4.5 -3.76593 " />
<path id= "167" d=" M -4.2 -3.39633 L -8.8 -3.39633 " />
<path d="M-4.5, -3.76593 Q-4.34631, -3.5788 -4.2, -3.39633 " /><path d="M-4.2, -3.39633 Q-4.34631, -3.2988 -4.5, -3.19877 " /><path id= "170" d=" M -8.5 -3.19877 L -4.5 -3.19877 " />
<path d="M-4.5, -3.19877 L-4.5, -2.63102 " /><path id= "172" d=" M -8.5 -2.63102 L -4.5 -2.63102 " />
<path id= "173" d=" M -4.2 -2.28256 L -8.8 -2.28256 " />
<path d="M-4.5, -2.63102 Q-4.34631, -2.45459 -4.2, -2.28256 " /><path d="M-4.2, -2.28256 Q-4.34631, -2.16761 -4.5, -2.04972 " /><path id= "176" d=" M -8.5 -2.04972 L -4.5 -2.04972 " />
<path d="M-4.5, -2.04972 L-4.5, -1.47076 " /><path id= "178" d=" M -8.5 -1.47076 L -4.5 -1.47076 " />
<path id= "179" d=" M -4.2 -1.1468 L -8.8 -1.1468 " />
<path d="M-4.5, -1.47076 Q-4.34631, -1.30674 -4.2, -1.1468 " /><path d="M-4.2, -1.1468 Q-4.34631, -1.01554 -4.5, -0.880934 " /><path id= "182" d=" M -8.5 -0.880934 L -4.5 -0.880934 " />
<path d="M-4.5, -0.880934 L-4.5, -0.29634 " /><path id= "184" d=" M -8.5 -0.29634 L -4.5 -0.29634 " />
<path id= "185" d=" M -4.2 -2.59792e-15 L -8.8 -2.59792e-15 " />
<path d="M-4.5, -0.29634 Q-4.34631, -0.146303 -4.2, 9.14824e-14 " /><path d="M-4.2, -9.23706e-14 Q-4.34631, 0.146303 -4.5, 0.29634 " /><path id= "188" d=" M -8.5 0.29634 L -4.5 0.29634 " />
<path d="M-4.5, 0.29634 L-4.5, 0.880934 " /><path id= "190" d=" M -8.5 0.880934 L -4.5 0.880934 " />
<path id= "191" d=" M -4.2 1.1468 L -8.8 1.1468 " />
<path d="M-4.5, 0.880934 Q-4.34631, 1.01554 -4.2, 1.1468 " /><path d="M-4.2, 1.1468 Q-4.34631, 1.30674 -4.5, 1.47076 " /><path id= "194" d=" M -8.5 1.47076 L -4.5 1.47076 " />
<path d="M-4.5, 1.47076 L-4.5, 2.04972 " /><path id= "196" d=" M -8.5 2.04972 L -4.5 2.04972 " />
<path id= "197" d=" M -4.2 2.28256 L -8.8 2.28256 " />
<path d="M-4.5, 2.04972 Q-4.34631, 2.16761 -4.2, 2.28256 " /><path d="M-4.2, 2.28256 Q-4.34631, 2.45459 -4.5, 2.63102 " /><path id= "200" d=" M -8.5 2.63102 L -4.5 2.63102 " />
<path d="M-4.5, 2.63102 L-4.5, 3.19877 " /><path id= "202" d=" M -8.5 3.19877 L -4.5 3.19877 " />
<path id= "203" d=" M -4.2 3.39633 L -8.8 3.39633 " />
<path d="M-4.5, 3.19877 Q-4.34631, 3.2988 -4.2, 3.39633 " /><path d="M-4.2, 3.39633 Q-4.34631, 3.5788 -4.5, 3.76593 " /><path id= "206" d=" M -8.5 3.76593 L -4.5 3.76593 " />
<path d="M-4.5, 3.76593 Q-4.5, 4.04387 -4.5, 4.31702 " /><path id= "208" d=" M -8.5 4.31702 L -4.5 4.31702 " />
<path id= "209" d=" M -4.2 4.4774 L -8.8 4.4774 " />
<path d="M-4.5, 4.31702 Q-4.34631, 4.39822 -4.2, 4.4774 " /><path d="M-4.2, 4.4774 Q-4.34631, 4.66855 -4.5, 4.86458 " /><path id= "212" d=" M -8.5 4.86458 L -4.5 4.86458 " />
<path d="M-4.5, 4.86458 Q-4.5, 5.13217 -4.5, 5.39369 " /><path id= "214" d=" M -8.5 5.39369 L -4.5 5.39369 " />
<path id= "215" d=" M -4.2 5.51534 L -8.8 5.51534 " />
<path d="M-4.5, 5.39369 Q-4.34631, 5.45528 -4.2, 5.51534 " /><path d="M-4.2, 5.51534 Q-4.34631, 5.71334 -4.5, 5.91638 " /><path id= "218" d=" M -8.5 5.91638 L -4.5 5.91638 " />
<path d="M-4.5, 5.91638 Q-4.5, 6.17105 -4.5, 6.41841 " /><path id= "220" d=" M -8.5 6.41841 L -4.5 6.41841 " />
<path id= "221" d=" M -4.2 6.50017 L -8.8 6.50017 " />
<path d="M-4.5, 6.41841 Q-4.34631, 6.45981 -4.2, 6.50017 " /><path d="M-4.2, 6.50017 Q-4.34631, 6.7031 -4.5, 6.91121 " /><path id= "224" d=" M -8.5 6.91121 L -4.5 6.91121 " />
<path d="M-4.5, 6.91121 Q-4.5, 7.1505 -4.5, 7.38132 " /><path id= "226" d=" M -8.5 7.38132 L -4.5 7.38132 " />
<path id= "227" d=" M -4.2 7.4224 L -8.8 7.4224 " />
<path d="M-4.5, 7.38132 Q-4.34631, 7.40212 -4.2, 7.4224 " /><path d="M-4.2, 7.4224 Q-4.34631, 7.62831 -4.5, 7.83947 " /><path id= "230" d=" M -8.5 7.83947 L -4.5 7.83947 " />
<path d="M-4.5, 7.83947 Q-4.5, 8.06108 -4.5, 8.27315 " /><path id= "232" d=" M -8.5 8.27315 L -4.5 8.27315 " />
<path id= "233" d=" M -4.5 8.27315 L -8.5 8.27315 " />
<path d="M-4.5, 8.27315 Q-4.34631, 8.27315 -4.2, 8.27315 " /><path d="M-4.2, 8.27315 Q-4.34631, 8.48005 -4.5, 8.69224 " /><path id= "236" d=" M -8.5 8.69224 L -4.5 8.69224 " />
<path d="M-4.5, 8.69224 Q-4.5, 8.89403 -4.5, 9.0853 " /><path id= "238" d=" M -8.5 9.0853 L -4.5 9.0853 " />
<path d="M-4.5, 9.0853 Q-4.34631, 9.0645 -4.2, 9.04422 " /><path d="M-4.2, 9.04422 Q-4.34631, 9.25013 -4.5, 9.46129 " /><path id= "241" d=" M -8.5 9.46129 L -4.5 9.46129 " />
<path d="M-4.5, 9.46129 Q-4.5, 9.64133 -4.5, 9.80995 " /><path id= "243" d=" M -8.5 9.80995 L -4.5 9.80995 " />
<path d="M-4.5, 9.80995 Q-4.34631, 9.76856 -4.2, 9.72819 " /><path d="M-4.2, 9.72819 Q-4.34631, 9.93112 -4.5, 10.1392 " /><path id= "246" d=" M -8.5 10.1392 L -4.5 10.1392 " />
<path d="M-4.5, 10.1392 Q-4.5, 10.2958 -4.5, 10.4401 " /><path id= "248" d=" M -8.5 10.4401 L -4.5 10.4401 " />
<path d="M-4.5, 10.4401 Q-4.34631, 10.3785 -4.2, 10.3185 " /><path d="M-4.2, 10.3185 Q-4.34631, 10.5165 -4.5, 10.7195 " /><path id= "251" d=" M -8.5 10.7195 L -4.5 10.7195 " />
<path d="M-4.5, 10.7195 Q-4.5, 10.8511 -4.5, 10.9698 " /><path id= "253" d=" M -8.5 10.9698 L -4.5 10.9698 " />
<path d="M-4.5, 10.9698 Q-4.34631, 10.8886 -4.2, 10.8094 " /><path d="M-4.2, 10.8094 Q-4.34631, 11.0005 -4.5, 11.1966 " /><path id= "256" d=" M -8.5 11.1966 L -4.5 11.1966 " />
<path d="M-4.5, 11.1966 Q-4.5, 11.3019 -4.5, 11.3938 " /><path id= "258" d=" M -8.5 11.3938 L -4.5 11.3938 " />
<path d="M-4.5, 11.3938 Q-4.34631, 11.2937 -4.2, 11.1962 " /><path d="M-4.2, 11.1962 Q-4.34631, 11.3787 -4.5, 11.5658 " /><path id= "261" d=" M -8.5 11.5658 L -4.5 11.5658 " />
<path d="M-4.5, 11.5658 Q-4.5, 11.6438 -4.5, 11.708 " /><path id= "263" d=" M -8.5 11.708 L -4.5 11.708 " />
<path d="M-4.5, 11.708 Q-4.34631, 11.5901 -4.2, 11.4752 " /><path d="M-4.2, 11.4752 Q-4.34631, 11.6472 -4.5, 11.8236 " /><path id= "266" d=" M -8.5 11.8236 L -4.5 11.8236 " />
<path d="M-4.5, 11.8236 Q-4.5, 11.8736 -4.5, 11.9095 " /><path id= "268" d=" M -8.5 11.9095 L -4.5 11.9095 " />
<path d="M-4.5, 11.9095 Q-4.34631, 11.7749 -4.2, 11.6437 " /><path d="M-4.2, 11.6437 Q-4.34631, 11.8036 -4.5, 11.9676 " /><path id= "271" d=" M -8.5 11.9676 L -4.5 11.9676 " />
<path d="M-4.5, 11.9676 Q-4.5, 11.9891 -4.5, 11.9963 " /><path id= "273" d=" M -8.5 11.9963 L -4.5 11.9963 " />
<path d="M-4.5, 11.9963 Q-4.34631, 11.8463 -4.2, 11.7 " /><path id= "275" d=" M -4.2 11.7 L -4 11.5 " />
<path d="M-4, -11.5 L-4, -11.2117  L-4, -10.3611  L-4, -8.99106  L-4, -7.17013  L-4, -4.98966  L-4, -2.55899  L-4, -2.22045e-15  L-4, 2.55899  L-4, 4.98966  L-4, 7.17013  L-4, 8.99106  L-4, 10.3611  L-4, 11.2117  L-4, 11.5 " /><path d="M-4 4 A1 1 0 0 1 -3 3" /><path id= "278" d=" M -3 3 L 0 3 " />
<path d="M0, -3 L0, -2.92478  L0, -2.70291  L0, -2.34549  L0, -1.87047  L0, -1.30165  L0, -0.667563  L0, -5.55112e-16  L0, 0.667563  L0, 1.30165  L0, 1.87047  L0, 2.34549  L0, 2.70291  L0, 2.92478  L0, 3 " /><path d="M0 3 A0.541266 0.541266 0 0 1 0.541266 2.45873" /><path id= "281" d=" M 2.37503 2.45873 L 2.62504 2.45873 " />
<path id= "282" d=" M 2.62504 2.45873 L 3 2.45873 " />
<path d="M2.37503, 2.45873 Q2.38392, 2.45873 2.3928, 2.44343 " /><path d="M2.3928, 2.44343 C2.42308, 2.39205 2.45334, 2.20392 2.48362, 1.90832  C2.54241, 1.34014 2.60118, 0.353684 2.65996, -0.535277  C2.69281, -1.03105 2.72566, -1.48997 2.75851, -1.82861  C2.79735, -2.23166 2.83619, -2.46072 2.87503, -2.45873 " /><path d="M2.87503, -2.45873 Q2.88391, -2.45873 2.8928, -2.44343 " /><path id= "286" d=" M 0.541266 2.45873 L 2.37503 2.45873 " />
<path d="M2.62504, 2.45874 C2.60013, 2.41469 2.55064, 2.38611 2.50004, 2.38657 " /><path d="M2.72899, 1.95265 C2.78839, 1.39983 2.84779, 0.408589 2.90719, -0.493423  C2.93813, -0.962 2.96906, -1.40066 3, -1.73824 " /><path d="M3, -1.73824 Q3, -1.58034 3, -1.42243  Q3, -1.24443 3, -1.06643  Q3, -0.873363 3, -0.680298  Q3, -0.277124 3, 0.138174  Q3, 0.342783 3, 0.547391  Q3, 0.744266 3, 0.941141  Q3, 1.12472 3, 1.3083  Q3, 1.4734 3, 1.6385  Q3, 1.78045 3, 1.9224  Q3, 2.0372 3, 2.15199  Q3, 2.23639 3, 2.32078  Q3, 2.37239 3, 2.424  Q3, 2.44137 3, 2.45873 " /><path d="M2.62503, 2.45873 C2.65968, 2.46001 2.69434, 2.27919 2.72899, 1.95265 " /><path id= "291" d=" M 3 2.45873 L 3.31036 2.57073 " />
<path d="M3, -1.73824 L3.00003, -1.73855 " /><path d="M3.00003, -1.73855 C3.04566, -2.14618 3.09096, -2.41676 3.13592, -2.49276 " /><path d="M3.13592, -2.49276 Q3.14694, -2.51175 3.15793, -2.51572 " /><path d="M3.76929, 2.72254 Q3.7794, 2.73997 3.78948, 2.74361 " /><path id= "296" d=" M 3.78948 2.74361 L 4.13793 2.86935 " />
<path d="M3.31036, 2.57073 Q3.31739, 2.57326 3.3244, 2.56117 " /><path d="M3.3244, 2.56117 C3.35435, 2.51111 3.38414, 2.25332 3.41381, 1.84417  C3.44792, 1.37643 3.48185, 0.711596 3.5156, 0.0332389  C3.54999, -0.658069 3.58419, -1.354 3.61822, -1.86025  C3.65372, -2.39288 3.68903, -2.71052 3.72414, -2.72004 " /><path d="M3.72414, -2.72004 Q3.73079, -2.72243 3.73742, -2.71099 " /><path d="M4.5, -3 Q4.5, -2.99834 4.5, -2.77175 " /><path d="M4.13793, 2.86935 Q4.14423, 2.87162 4.15052, 2.86076 " /><path d="M4.15052, 2.86076 C4.1765, 2.81696 4.20236, 2.60041 4.22813, 2.24753  C4.25833, 1.83607 4.2884, 1.23823 4.31834, 0.586041  C4.34854, -0.0713252 4.37861, -0.778538 4.40854, -1.3801  C4.43917, -1.99738 4.46965, -2.49876 4.5, -2.77175 " /><path d="M3.78948, 2.74361 C3.84852, 2.76935 3.90705, 2.41425 3.96505, 1.80278  C4.0241, 1.18602 4.08261, 0.317633 4.14063, -0.502371  C4.17023, -0.920509 4.1997, -1.32445 4.22904, -1.67625  C4.28732, -2.37931 4.3451, -2.85754 4.4024, -2.95204 " /><path d="M4.4024, -2.95204 Q4.41172, -2.96814 4.42104, -2.97151 " /><path d="M4.5, -2.77175 Q4.53124, -2.99884 4.56248, -3 " /><path d="M4.56248, -3 Q4.56977, -3 4.57706, -2.98742 " /><path d="M4.92289, 2.98741 Q4.93019, 3 4.93748, 3 " /><path id= "308" d=" M 4.93748 3 L 5.06248 3 " />
<path d="M5.06248, 3 Q5.06978, 3 5.07707, 2.98741 " /><path d="M5.07707, 2.98741 C5.11848, 2.91901 5.15987, 2.53011 5.20128, 1.92975  C5.24576, 1.28928 5.29024, 0.413447 5.33472, -0.417695  C5.37009, -1.07874 5.40547, -1.70505 5.44085, -2.16563  C5.48139, -2.69726 5.52193, -3.00286 5.56248, -3 " /><path d="M5.56248, -3 Q5.56977, -3 5.57706, -2.98742 " /><path d="M4.93748, 3 C4.97992, 3.00342 5.02236, 2.66729 5.0648, 2.09021  C5.11124, 1.46427 5.15769, 0.55882 5.20413, -0.313136  C5.23921, -0.9715 5.2743, -1.60371 5.30938, -2.07958  C5.34722, -2.59566 5.38506, -2.92426 5.4229, -2.98741 " /><path d="M5.4229, -2.98741 Q5.43019, -3 5.43749, -3 " /><path d="M5.9229, 2.98741 Q5.93019, 3 5.93748, 3 " /><path id= "315" d=" M 5.93748 3 L 6.06249 3 " />
<path d="M6.06249, 3 Q6.06978, 3 6.07707, 2.98741 " /><path d="M6.07707, 2.98741 C6.11848, 2.91901 6.15987, 2.53011 6.20128, 1.92976  C6.24576, 1.28929 6.29024, 0.413464 6.33472, -0.417673  C6.37009, -1.07869 6.40547, -1.70498 6.44084, -2.16556  C6.48139, -2.69723 6.52193, -3.00286 6.56248, -3 " /><path d="M6.56248, -3 Q6.56977, -3 6.57707, -2.98742 " /><path d="M5.93748, 3 C5.97992, 3.00342 6.02236, 2.66729 6.0648, 2.09021  C6.11125, 1.46427 6.15769, 0.558817 6.20413, -0.31314  C6.23921, -0.971511 6.2743, -1.60372 6.30938, -2.0796  C6.34722, -2.59567 6.38506, -2.92426 6.4229, -2.98741 " /><path d="M6.4229, -2.98741 Q6.43019, -3 6.43749, -3 " /><path d="M6.9229, 2.98741 Q6.93019, 3 6.93749, 3 " /><path id= "322" d=" M 6.93749 3 L 7.06249 3 " />
<path d="M7.06249, 3 Q7.06978, 3 7.07707, 2.98741 " /><path d="M7.07707, 2.98741 C7.11848, 2.91901 7.15987, 2.53011 7.20128, 1.92976  C7.24576, 1.28929 7.29024, 0.413479 7.33472, -0.417654  C7.37009, -1.07865 7.40546, -1.70492 7.44084, -2.16549  C7.48139, -2.69721 7.52193, -3.00286 7.56249, -3 " /><path d="M7.56249, -3 Q7.56978, -3 7.57707, -2.98742 " /><path d="M6.93749, 3 C6.97992, 3.00342 7.02237, 2.66729 7.0648, 2.09021  C7.11125, 1.46427 7.15769, 0.558815 7.20413, -0.313144  C7.23922, -0.971519 7.2743, -1.60374 7.30939, -2.07961  C7.34722, -2.59567 7.38507, -2.92426 7.4229, -2.98741 " /><path d="M7.4229, -2.98741 Q7.4302, -3 7.43749, -3 " /><path d="M7.9229, 2.98741 Q7.93019, 3 7.93749, 3 " /><path id= "329" d=" M 7.93749 3 L 8.06249 3 " />
<path d="M8.06249, 3 Q8.06978, 3 8.07707, 2.98741 " /><path d="M8.07707, 2.98741 C8.11848, 2.91901 8.15987, 2.53012 8.20128, 1.92976  C8.24576, 1.28931 8.29024, 0.413501 8.33472, -0.417626  C8.37009, -1.07859 8.40546, -1.70483 8.44083, -2.1654  C8.48139, -2.69717 8.52193, -3.00286 8.56249, -3 " /><path d="M8.56249, -3 Q8.56978, -3 8.57707, -2.98742 " /><path d="M7.93749, 3 C7.97992, 3.00342 8.02237, 2.66729 8.06481, 2.09021  C8.11125, 1.46427 8.15769, 0.558812 8.20413, -0.313147  C8.23922, -0.971527 8.2743, -1.60375 8.30939, -2.07962  C8.34722, -2.59568 8.38507, -2.92426 8.4229, -2.98741 " /><path d="M8.4229, -2.98741 Q8.4302, -3 8.43749, -3 " /><path d="M8.9229, 2.98741 Q8.93019, 3 8.93749, 3 " /><path id= "336" d=" M 8.93749 3 L 9.06249 3 " />
<path d="M9.06249, 3 Q9.06978, 3 9.07707, 2.98741 " /><path d="M9.07707, 2.98741 C9.11848, 2.91901 9.15987, 2.53012 9.20128, 1.92977  C9.24576, 1.28932 9.29024, 0.413518 9.33472, -0.417604  C9.37009, -1.07854 9.40546, -1.70476 9.44083, -2.16533  C9.48138, -2.69714 9.52193, -3.00286 9.56249, -3 " /><path d="M9.56249, -3 Q9.56978, -3 9.57707, -2.98742 " /><path d="M8.93749, 3 C8.97992, 3.00342 9.02237, 2.66729 9.06481, 2.09021  C9.11125, 1.46426 9.15769, 0.558806 9.20413, -0.313155  C9.23922, -0.971548 9.2743, -1.60378 9.30939, -2.07965  C9.34723, -2.5957 9.38507, -2.92427 9.4229, -2.98741 " /><path d="M9.4229, -2.98741 Q9.4302, -3 9.43749, -3 " /><path d="M9.9229, 2.98741 Q9.93019, 3 9.93749, 3 " /><path id= "343" d=" M 9.93749 3 L 10.0625 3 " />
<path d="M10.0625, 3 Q10.0698, 3 10.0771, 2.98741 " /><path d="M10.0771, 2.98741 C10.1185, 2.91901 10.1599, 2.53012 10.2013, 1.92977  C10.2458, 1.28933 10.2902, 0.413539 10.3347, -0.417577  C10.3701, -1.07848 10.4055, -1.70467 10.4408, -2.16524  C10.4814, -2.69711 10.5219, -3.00286 10.5625, -3 " /><path d="M10.5625, -3 Q10.5698, -3 10.5771, -2.98742 " /><path d="M9.93749, 3 C9.97992, 3.00342 10.0224, 2.66729 10.0648, 2.09021  C10.1112, 1.46426 10.1577, 0.558803 10.2041, -0.313159  C10.2392, -0.971558 10.2743, -1.6038 10.3094, -2.07967  C10.3472, -2.5957 10.3851, -2.92427 10.4229, -2.98741 " /><path d="M10.4229, -2.98741 Q10.4302, -3 10.4375, -3 " /><path d="M10.9229, 2.98741 Q10.9302, 3 10.9375, 3 " /><path id= "350" d=" M 10.9375 3 L 11.0625 3 " />
<path d="M11.0625, 3 Q11.0698, 3 11.0771, 2.98741 " /><path d="M11.0771, 2.98741 C11.1185, 2.91901 11.1599, 2.53012 11.2013, 1.92978  C11.2458, 1.28934 11.2902, 0.413563 11.3347, -0.417547  C11.3701, -1.07842 11.4054, -1.70458 11.4408, -2.16514  C11.4814, -2.69707 11.5219, -3.00286 11.5625, -3 " /><path d="M11.5625, -3 Q11.5698, -3 11.5771, -2.98742 " /><path d="M10.9375, 3 C10.9799, 3.00342 11.0224, 2.66729 11.0648, 2.0902  C11.1113, 1.46426 11.1577, 0.558797 11.2041, -0.313168  C11.2392, -0.971577 11.2743, -1.60383 11.3094, -2.0797  C11.3472, -2.59572 11.3851, -2.92427 11.4229, -2.98741 " /><path d="M11.4229, -2.98741 Q11.4302, -3 11.4375, -3 " /><path d="M11.9229, 2.98741 Q11.9302, 3 11.9375, 3 " /><path id= "357" d=" M 11.9375 3 L 12.0625 3 " />
<path d="M12.0625, 3 Q12.0698, 3 12.0771, 2.98741 " /><path d="M12.0771, 2.98741 C12.1185, 2.91901 12.1599, 2.53012 12.2013, 1.92978  C12.2458, 1.28935 12.2902, 0.413574 12.3347, -0.417533  C12.3701, -1.07838 12.4054, -1.70453 12.4408, -2.1651  C12.4814, -2.69705 12.5219, -3.00286 12.5625, -3 " /><path d="M12.5625, -3 Q12.5698, -3 12.5771, -2.98742 " /><path d="M11.9375, 3 C11.9799, 3.00342 12.0224, 2.66729 12.0648, 2.0902  C12.1113, 1.46426 12.1577, 0.558791 12.2041, -0.313175  C12.2392, -0.971596 12.2743, -1.60385 12.3094, -2.07973  C12.3472, -2.59573 12.3851, -2.92427 12.4229, -2.98741 " /><path d="M12.4229, -2.98741 Q12.4302, -3 12.4375, -3 " /><path d="M12.9229, 2.98741 Q12.9302, 3 12.9375, 3 " /><path id= "364" d=" M 12.9375 3 L 13.0625 3 " />
<path d="M13.0625, 3 Q13.0698, 3 13.0771, 2.98741 " /><path d="M13.0771, 2.98741 C13.1185, 2.91901 13.1599, 2.53012 13.2013, 1.92978  C13.2458, 1.28935 13.2902, 0.413584 13.3347, -0.417521  C13.3701, -1.07836 13.4054, -1.70449 13.4408, -2.16506  C13.4814, -2.69703 13.5219, -3.00286 13.5625, -3 " /><path d="M13.5625, -3 Q13.5698, -3 13.5771, -2.98742 " /><path d="M12.9375, 3 C12.9799, 3.00342 13.0224, 2.66729 13.0648, 2.0902  C13.1113, 1.46426 13.1577, 0.558791 13.2041, -0.313175  C13.2392, -0.971596 13.2743, -1.60385 13.3094, -2.07973  C13.3472, -2.59573 13.3851, -2.92427 13.4229, -2.98741 " /><path d="M13.4229, -2.98741 Q13.4302, -3 13.4375, -3 " /><path d="M13.9229, 2.98741 Q13.9302, 3 13.9375, 3 " /><path id= "371" d=" M 13.9375 3 L 14.0625 3 " />
<path d="M14.0625, 3 Q14.0698, 3 14.0771, 2.98741 " /><path d="M14.0771, 2.98741 C14.1185, 2.91901 14.1599, 2.53012 14.2013, 1.92979  C14.2458, 1.28936 14.2902, 0.413602 14.3347, -0.417497  C14.3701, -1.0783 14.4054, -1.70442 14.4408, -2.16498  C14.4814, -2.697 14.5219, -3.00286 14.5625, -3 " /><path d="M14.5625, -3 Q14.5698, -3 14.5771, -2.98742 " /><path d="M13.9375, 3 C13.9799, 3.00342 14.0224, 2.66729 14.0648, 2.0902  C14.1113, 1.46426 14.1577, 0.558791 14.2041, -0.313175  C14.2392, -0.971597 14.2743, -1.60385 14.3094, -2.07973  C14.3472, -2.59573 14.3851, -2.92427 14.4229, -2.98741 " /><path d="M14.4229, -2.98741 Q14.4302, -3 14.4375, -3 " /><path d="M14.9229, 2.98741 Q14.9302, 3 14.9375, 3 " /><path id= "378" d=" M 14.9375 3 L 15.0625 3 " />
<path d="M15.0625, 3 Q15.0698, 3 15.0771, 2.98741 " /><path d="M15.0771, 2.98741 C15.1185, 2.91901 15.1599, 2.53013 15.2013, 1.92979  C15.2458, 1.28938 15.2902, 0.413633 15.3347, -0.417458  C15.3701, -1.07821 15.4054, -1.70429 15.4408, -2.16484  C15.4814, -2.69695 15.5219, -3.00287 15.5625, -3 " /><path d="M15.5625, -3 Q15.5698, -3 15.5771, -2.98742 " /><path d="M14.9375, 3 C14.9799, 3.00342 15.0224, 2.66729 15.0648, 2.0902  C15.1113, 1.46426 15.1577, 0.558788 15.2041, -0.31318  C15.2392, -0.971608 15.2743, -1.60387 15.3094, -2.07975  C15.3472, -2.59574 15.3851, -2.92427 15.4229, -2.98741 " /><path d="M15.4229, -2.98741 Q15.4302, -3 15.4375, -3 " /><path d="M15.9229, 2.98741 Q15.9302, 3 15.9375, 3 " /><path id= "385" d=" M 15.9375 3 L 16.0625 3 " />
<path d="M16.0625, 3 Q16.0698, 3 16.0771, 2.98741 " /><path d="M16.0771, 2.98741 C16.1185, 2.919 16.1599, 2.53013 16.2013, 1.9298  C16.2458, 1.28939 16.2902, 0.413654 16.3347, -0.417431  C16.3701, -1.07815 16.4054, -1.7042 16.4408, -2.16475  C16.4814, -2.69691 16.5219, -3.00287 16.5625, -3 " /><path d="M16.5625, -3 Q16.5698, -3 16.5771, -2.98742 " /><path d="M15.9375, 3 C15.9799, 3.00342 16.0224, 2.66729 16.0648, 2.0902  C16.1113, 1.46425 16.1577, 0.558777 16.2041, -0.313194  C16.2392, -0.971643 16.2743, -1.60392 16.3094, -2.07981  C16.3472, -2.59576 16.3851, -2.92428 16.4229, -2.98741 " /><path d="M16.4229, -2.98741 Q16.4302, -3 16.4375, -3 " /><path d="M16.9229, 2.98741 Q16.9302, 3 16.9375, 3 " /><path id= "392" d=" M 16.9375 3 L 17.0625 3 " />
<path d="M17.0625, 3 Q17.0698, 3 17.0771, 2.98741 " /><path d="M17.0771, 2.98741 C17.1185, 2.919 17.1599, 2.53013 17.2013, 1.9298  C17.2458, 1.28939 17.2902, 0.413652 17.3347, -0.417434  C17.3701, -1.07816 17.4054, -1.70421 17.4408, -2.16476  C17.4814, -2.69692 17.5219, -3.00287 17.5625, -3 " /><path d="M17.5625, -3 Q17.5698, -3 17.5771, -2.98741 " /><path d="M16.9375, 3 C16.9799, 3.00342 17.0224, 2.66729 17.0648, 2.0902  C17.1113, 1.46425 17.1577, 0.558772 17.2041, -0.313201  C17.2392, -0.97166 17.2743, -1.60395 17.3094, -2.07983  C17.3472, -2.59578 17.3851, -2.92428 17.4229, -2.98741 " /><path d="M17.4229, -2.98741 Q17.4302, -3 17.4375, -3 " /><path d="M17.9229, 2.98741 Q17.9302, 3 17.9375, 3 " /><path id= "399" d=" M 17.9375 3 L 18.0625 3 " />
<path d="M18.0625, 3 Q18.0698, 3 18.0771, 2.98741 " /><path d="M18.0771, 2.98741 C18.1185, 2.919 18.1599, 2.53013 18.2013, 1.92981  C18.2458, 1.28941 18.2902, 0.41369 18.3347, -0.417385  C18.37, -1.07686 18.4053, -1.7018 18.4406, -2.1621  C18.4812, -2.69587 18.5219, -3.00289 18.5625, -3 " /><path d="M18.5625, -3 Q18.5698, -3 18.5771, -2.98741 " /><path d="M17.9375, 3 C17.9799, 3.00342 18.0224, 2.66729 18.0648, 2.0902  C18.1113, 1.46425 18.1577, 0.55878 18.2041, -0.313192  C18.2392, -0.971637 18.2743, -1.60391 18.3094, -2.0798  C18.3472, -2.59576 18.3851, -2.92428 18.4229, -2.98741 " /><path d="M18.4229, -2.98741 Q18.4302, -3 18.4375, -3 " /><path d="M18.9229, 2.98741 Q18.9302, 3 18.9375, 3 " /><path id= "406" d=" M 18.9375 3 L 19.0625 3 " />
<path d="M19.0625, 3 Q19.0698, 3 19.0771, 2.98741 " /><path d="M19.0771, 2.98741 C19.1185, 2.919 19.1599, 2.53013 19.2013, 1.92981  C19.2675, 0.977455 19.3338, -0.503453 19.4, -1.56751 " /><path d="M19.4, -1.56751 C19.4452, -1.85413 19.4913, -2.08862 19.5381, -2.27098  C19.6176, -2.57699 19.6996, -2.70199 19.7845, -2.61552 " /><path d="M19.7845, -2.61552 Q19.8044, -2.59553 19.8246, -2.56074 " /><path d="M18.9375, 3 C18.9799, 3.00342 19.0224, 2.66729 19.0648, 2.0902  C19.092, 1.72248 19.1193, 1.26115 19.1465, 0.764742  C19.2008, -0.226805 19.2551, -1.3452 19.3094, -2.07987  C19.3396, -2.49081 19.3698, -2.78508 19.4, -2.91711 " /><path d="M19.7408, 2.65924 Q19.7356, 2.66444 19.7304, 2.6555 " /><path d="M19.4238, -2.97623 Q19.4191, -2.98088 19.4145, -2.97287 " /><path d="M19.4145, -2.97287 Q19.4072, -2.96031 19.4, -2.91711 " /><path d="M20, -2.38656 Q20, -2.38503 20, -2.22692 " /><path d="M20, -2.22692 C19.9868, -2.00985 19.9668, -1.55828 19.9413, -0.994364 " /><path d="M19.4, -2.91711 C19.4, -2.9025 19.4, -2.88788 19.4, -2.87326  C19.4, -2.85563 19.4, -2.83799 19.4, -2.82036  C19.4, -2.79977 19.4, -2.77918 19.4, -2.75859  C19.4, -2.73511 19.4, -2.71162 19.4, -2.68814  C19.4, -2.66184 19.4, -2.63553 19.4, -2.60923  C19.4, -2.55264 19.4, -2.49191 19.4, -2.42706  C19.4, -2.19525 19.4, -1.90187 19.4, -1.56751 " /><path id= "418" d=" M 19.7408 2.65924 L 20 2.4 " />
<path d="M19.7408, 2.65924 C19.7574, 2.6406 19.7742, 2.51791 19.7911, 2.29117  C19.8075, 2.07367 19.8241, 1.76507 19.8408, 1.40135  C19.8738, 0.684334 19.9073, -0.250117 19.9413, -0.994364 " /><path d="M20, -2.22692 L20, -2.00855  L20, -1.7124  L20, -1.34994  L20, -0.935198  L20, -0.484242  L20, 0.455738  L20, 0.90836  L20, 1.32581  L20, 1.69191  L20, 1.99249  L20, 2.21592  L20, 2.35353  L20, 2.4 " /><path d="M2.62503, 2.45873 L2.62504, 2.45874 " /></g>

</svg>
