<svg xmlns="http://www.w3.org/2000/svg" viewBox="-6.96 -6.96 13.92 13.92">
<rect width="100%" height="100%" fill="white"/>
<g   fill="none"
   stroke="rgb(0, 0, 0)"
   stroke-linecap="butt"
   stroke-linejoin="miter"
   stroke-width="0.35"
   transform="scale(1, -1)"
  >
<path d="M2.74113 -2.09493 A9.99958 0.783319 128.708 0 1 1.89422 -0.99" />
<path d="M2.74113 -2.09493 A3.45 3.45 0 0 0 2.09493 -2.74113" /><path d="M0.99 -1.89422 A9.99958 0.783319 -38.7079 0 1 2.09493 -2.74113" />
<path d="M1.18516e-14 -1.60331 A9.98315 0.957306 -16.9194 0 1 0.99 -1.89422" />
<path d="M-0.99 -1.89422 A9.98315 0.957306 16.9194 0 1 -1.53488e-14 -1.60331" />
<path d="M-2.09493 -2.74113 A9.99958 0.783319 38.7079 0 1 -0.99 -1.89422" />
<path d="M-2.09493 -2.74113 A3.45 3.45 0 0 0 -2.74113 -2.09493" /><path d="M-1.89422 -0.99 A9.99958 0.783319 -128.708 0 1 -2.74113 -2.09493" />
<path d="M-1.60331 -1.19071e-14 A9.98315 0.957306 -106.919 0 1 -1.89422 -0.99" />
<path d="M-1.89422 0.99 A9.98315 0.957306 -73.0806 0 1 -1.60331 1.53488e-14" />
<path d="M-2.74113 2.09493 A9.99958 0.783319 -51.2921 0 1 -1.89422 0.99" />
<path d="M-2.74113 2.09493 A3.45 3.45 0 0 0 -2.09493 2.74113" /><path d="M-0.99 1.89422 A9.99958 0.783319 141.292 0 1 -2.09493 2.74113" />
<path d="M-1.18516e-14 1.60331 A9.98315 0.957306 163.081 0 1 -0.99 1.89422" />
<path d="M0.99 1.89422 A9.98315 0.957306 -163.081 0 1 1.53488e-14 1.60331" />
<path d="M2.09493 2.74113 A9.99958 0.783319 -141.292 0 1 0.99 1.89422" />
<path d="M2.09493 2.74113 A3.45 3.45 0 0 0 2.74113 2.09493" /><path d="M1.89422 0.99 A9.99958 0.783319 51.2921 0 1 2.74113 2.09493" />
<path d="M1.60331 1.19071e-14 A9.98315 0.957306 73.0806 0 1 1.89422 0.99" />
<circle cx ="0" cy ="0" r ="6" /><path d="M1.89422 -0.99 A9.98315 0.957306 106.919 0 1 1.60331 -1.54043e-14" />
<path id= "22" d=" M 1.89422 -0.99 L 1.53964 -0.99 " />
<path id= "23" d=" M 1.60331 0 L 1.205 0 " />
<path d="M1.53964, -0.99 C1.39439, -0.573499 1.29292, -0.273325 1.205, -1.32006e-13 " /><path d="M2.74113, -2.09493 C2.231, -1.63144 1.87053, -1.30361 1.5905, -1.04849 " /><path d="M1.5905, -1.04849 L1.53964, -0.99 " /><path d="M1.04849, -1.5905 C1.30361, -1.87053 1.63144, -2.231 2.09493, -2.74113 " /><path d="M1.04849 -1.5905 A1.905 1.905 0 0 1 1.5905 -1.04849" /><path id= "29" d=" M 0.99 -1.89422 L 0.99 -1.53964 " />
<path d="M0.99, -1.53964 L1.04849, -1.5905 " /><path id= "31" d=" M -3.56006e-16 -1.60331 L -2.67564e-16 -1.205 " />
<path d="M1.31955e-13, -1.205 C0.273325, -1.29292 0.573499, -1.39439 0.99, -1.53964 " /><path id= "33" d=" M -0.99 -1.89422 L -0.99 -1.53964 " />
<path d="M-0.99, -1.53964 C-0.573499, -1.39439 -0.273325, -1.29292 -1.32394e-13, -1.205 " /><path d="M-2.09493, -2.74113 C-1.63144, -2.231 -1.30361, -1.87053 -1.04849, -1.5905 " /><path d="M-1.04849, -1.5905 L-0.99, -1.53964 " /><path d="M-1.5905, -1.04849 C-1.87053, -1.30361 -2.231, -1.63144 -2.74113, -2.09493 " /><path d="M-1.5905 -1.04849 A1.905 1.905 0 0 1 -1.04849 -1.5905" /><path id= "39" d=" M -1.89422 -0.99 L -1.53964 -0.99 " />
<path d="M-1.53964, -0.99 L-1.5905, -1.04849 " /><path id= "41" d=" M -1.60331 1.96349e-16 L -1.205 1.4757e-16 " />
<path d="M-1.205, -1.319e-13 C-1.29292, -0.273325 -1.39439, -0.573499 -1.53964, -0.99 " /><path id= "43" d=" M -1.89422 0.99 L -1.53964 0.99 " />
<path d="M-1.53964, 0.99 C-1.39439, 0.573499 -1.29292, 0.273325 -1.205, 1.32006e-13 " /><path d="M-2.74113, 2.09493 C-2.231, 1.63144 -1.87053, 1.30361 -1.5905, 1.04849 " /><path d="M-1.5905, 1.04849 L-1.53964, 0.99 " /><path d="M-1.04849, 1.5905 C-1.30361, 1.87053 -1.63144, 2.231 -2.09493, 2.74113 " /><path d="M-1.04849 1.5905 A1.905 1.905 0 0 1 -1.5905 1.04849" /><path id= "49" d=" M -0.99 1.89422 L -0.99 1.53964 " />
<path d="M-0.99, 1.53964 L-1.04849, 1.5905 " /><path id= "51" d=" M 1.78003e-16 1.60331 L 1.33782e-16 1.205 " />
<path d="M-1.32117e-13, 1.205 C-0.273325, 1.29292 -0.573499, 1.39439 -0.99, 1.53964 " /><path id= "53" d=" M 0.99 1.89422 L 0.99 1.53964 " />
<path d="M0.99, 1.53964 C0.573499, 1.39439 0.273325, 1.29292 1.32394e-13, 1.205 " /><path d="M2.09493, 2.74113 C1.63144, 2.231 1.30361, 1.87053 1.04849, 1.5905 " /><path d="M1.04849, 1.5905 L0.99, 1.53964 " /><path d="M1.5905, 1.04849 C1.87053, 1.30361 2.231, 1.63144 2.74113, 2.09493 " /><path d="M1.5905 1.04849 A1.905 1.905 0 0 1 1.04849 1.5905" /><path id= "59" d=" M 1.89422 0.99 L 1.53964 0.99 " />
<path d="M1.53964, 0.99 L1.5905, 1.04849 " /><path d="M1.205, 1.32117e-13 C1.29292, 0.273325 1.39439, 0.573499 1.53964, 0.99 " /></g>

</svg>
