<svg xmlns="http://www.w3.org/2000/svg" viewBox="-6.96 -6.96 13.92 13.92">
<rect width="100%" height="100%" fill="white"/>
<g   fill="none"
   stroke="rgb(165, 165, 165)"
   stroke-dasharray="1.2,0.8"
   stroke-linecap="butt"
   stroke-linejoin="miter"
   stroke-width="0.25"
   transform="scale(1, -1)"
  >
<circle cx ="0" cy ="0" r ="6" /><circle cx ="0" cy ="0" r ="3" /><path d="M3, 2.5095e-11 C3.00507, 0.874058 2.60073, 1.73909 1.93165, 2.29537 " /><path d="M1.53602 2.57694 A3 3 0 0 0 1.93165 2.29537" /><path d="M1.53602, 2.57694 C1.03891, 2.87433 0.456636, 3.02121 -0.117763, 2.99769  C-0.77477, 2.97337 -1.418, 2.72511 -1.91965, 2.30541 " /><path d="M-1.91965, 2.30541 C-2.10228, 2.15429 -2.26601, 1.97712 -2.38703, 1.81717  C-2.45331, 1.73066 -2.50966, 1.64368 -2.5099, 1.64329 " /><path d="M-2.5099, 1.64329 C-2.50868, 1.64554 -2.49504, 1.66583 -2.46898, 1.70415  C-2.43355, 1.75562 -2.38317, 1.82457 -2.32668, 1.89383  C-2.21359, 2.03315 -2.07407, 2.17722 -1.9195, 2.30554 " /><path d="M-1.9195, 2.30554 C-1.46054, 2.68897 -0.884725, 2.92969 -0.287487, 2.98619  C0.0707366, 3.02082 0.435974, 2.99027 0.785177, 2.89543  C1.46369, 2.7137 2.07715, 2.28144 2.47718, 1.69221  C2.81504, 1.19978 3.00118, 0.601323 3, 1.6052e-10 " /><path d="M3, 2.50906e-11 C3.00396, -0.831828 2.64046, -1.65643 2.02367, -2.21467  C1.39788, -2.79234 0.517733, -3.07947 -0.328283, -2.98198  C-0.997391, -2.91007 -1.63811, -2.60383 -2.1143, -2.12831  C-2.67742, -1.57348 -3.0038, -0.788433 -3, 0.00208817  C-3.00263, 0.787372 -2.67959, 1.56706 -2.12226, 2.12038  C-1.65048, 2.59499 -1.01543, 2.90292 -0.350617, 2.97944  C0.486617, 3.08216 1.36036, 2.80821 1.98908, 2.24579  C2.62636, 1.68703 3.00425, 0.847479 3, 2.26779e-11 " /><path d="M1.93165, 2.29537 Q1.74443, 2.4513 1.53602, 2.57694 " /><path d="M3, 2.26459e-11 C3.00396, -0.831829 2.64046, -1.65643 2.02367, -2.21467  C1.39788, -2.79234 0.517725, -3.07947 -0.328295, -2.98198  C-0.997164, -2.91009 -1.63767, -2.60404 -2.11381, -2.12881  C-2.6738, -1.57723 -3, -0.798057 -2.99998, -0.0120311  C-3.00637, 0.776616 -2.68412, 1.5611 -2.12511, 2.11753  C-1.64938, 2.59746 -1.00687, 2.90748 -0.335156, 2.98122  C0.500064, 3.07926 1.36968, 2.80285 1.99503, 2.2405  C2.62879, 1.6818 3.0042, 0.844804 3, 2.04039e-11 " /><path d="M3, 1.60522e-10 C3.00234, -0.726151 2.72819, -1.44855 2.24468, -1.99033  C1.90504, -2.37427 1.46504, -2.66833 0.980387, -2.83529  C0.5801, -2.97399 0.150216, -3.02632 -0.271657, -2.98768  C-0.921063, -2.93017 -1.54826, -2.65276 -2.0277, -2.21098  C-2.61965, -1.67273 -2.97829, -0.888942 -2.99867, -0.0892052  C-3.02439, 0.677897 -2.7397, 1.44931 -2.22185, 2.01578  C-1.77169, 2.51453 -1.14903, 2.85333 -0.485763, 2.96041  C-0.215441, 3.00459 0.0558625, 3.01178 0.328146, 2.982  C0.896595, 2.92037 1.44546, 2.6913 1.88907, 2.33054  C2.58502, 1.77306 3.00515, 0.891608 3, 1.44913e-10 " /><path d="M3, 2.03249e-11 C3.00396, -0.831829 2.64046, -1.65643 2.02367, -2.21467  C1.39787, -2.79235 0.517715, -3.07948 -0.328308, -2.98198  C-0.996928, -2.91011 -1.63721, -2.60426 -2.11329, -2.12932  C-2.67333, -1.57797 -2.99971, -0.799027 -2.99997, -0.01312  C-3.00662, 0.774179 -2.6858, 1.55747 -2.1287, 2.11391  C-1.65702, 2.59134 -1.02057, 2.90159 -0.353917, 2.97905  C0.483777, 3.08278 1.35843, 2.80933 1.98787, 2.24686  C2.62586, 1.68808 3.00426, 0.84802 3, 1.80784e-11 " /><path d="M3, 1.44885e-10 C3.00234, -0.726149 2.72819, -1.44855 2.24469, -1.99032  C1.90505, -2.37426 1.46506, -2.66833 0.980404, -2.83528  C0.580429, -2.97388 0.150902, -3.02624 -0.270656, -2.98777  C-0.91915, -2.93056 -1.54559, -2.65408 -2.0249, -2.21354  C-2.61077, -1.68204 -2.96925, -0.910354 -2.9976, -0.119898  C-3.03187, 0.659532 -2.74498, 1.44647 -2.21715, 2.02095  C-1.76768, 2.51659 -1.14752, 2.85326 -0.487033, 2.9602  C-0.218043, 3.00428 0.0519585, 3.01173 0.322971, 2.98256  C0.890692, 2.92201 1.43919, 2.69448 1.88307, 2.33539  C2.58251, 1.77811 3.00521, 0.894209 3, 1.30062e-10 " /><path d="M3, 1.81268e-11 C3.00396, -0.83183 2.64046, -1.65643 2.02367, -2.21467  C1.39787, -2.79235 0.517707, -3.07948 -0.328319, -2.98198  C-0.996718, -2.91013 -1.6368, -2.60446 -2.11282, -2.12978  C-2.67291, -1.57862 -2.99945, -0.799896 -2.99997, -0.014098  C-3.00685, 0.77183 -2.68745, 1.5539 -2.13226, 2.11032  C-1.65889, 2.59112 -1.01867, 2.90312 -0.348314, 2.97971  C0.490876, 3.08204 1.3664, 2.80588 1.99502, 2.24051  C2.62878, 1.6818 3.0042, 0.844809 3, 1.60341e-11 " /><path d="M3, 1.30061e-10 C3.00234, -0.726147 2.7282, -1.44854 2.24469, -1.99032  C1.90506, -2.37426 1.46507, -2.66832 0.980421, -2.83527  C0.580754, -2.97377 0.15158, -3.02616 -0.269666, -2.98786  C-0.917052, -2.93095 -1.54254, -2.65556 -2.02167, -2.21649  C-2.61113, -1.68335 -2.97124, -0.907354 -2.99787, -0.113076  C-3.03003, 0.660113 -2.74644, 1.44008 -2.22523, 2.01205  C-1.77211, 2.51585 -1.14318, 2.8571 -0.47381, 2.96235  C-0.206045, 3.005 0.0625842, 3.01141 0.332078, 2.98156  C0.894398, 2.91982 1.43738, 2.6943 1.87798, 2.33949  C2.58038, 1.78239 3.00526, 0.896411 3, 1.15973e-10 " /><path d="M3, 1.606e-11 C3.00396, -0.83183 2.64046, -1.65643 2.02367, -2.21467  C1.39787, -2.79235 0.5177, -3.07948 -0.328328, -2.98198  C-0.996527, -2.91015 -1.63642, -2.60464 -2.1124, -2.1302  C-2.67253, -1.57922 -2.99921, -0.800687 -2.99996, -0.0149894  C-3.00716, 0.77517 -2.68439, 1.56144 -2.124, 2.11864  C-1.65492, 2.59127 -1.02408, 2.89908 -0.362883, 2.97797  C0.479819, 3.08497 1.36098, 2.80982 1.99307, 2.24224  C2.62799, 1.68351 3.00421, 0.845682 3, 1.41087e-11 " /><path d="M3, 1.16032e-10 C3.00234, -0.726145 2.7282, -1.44854 2.2447, -1.99031  C1.90507, -2.37425 1.46508, -2.66831 0.980438, -2.83527  C0.581084, -2.97366 0.152268, -3.02607 -0.268663, -2.98795  C-0.914598, -2.93138 -1.53883, -2.65734 -2.01766, -2.22014  C-2.60812, -1.68804 -2.96963, -0.912625 -2.99766, -0.118348  C-3.03118, 0.654784 -2.74897, 1.43525 -2.22877, 2.00814  C-1.77833, 2.51068 -1.15326, 2.85237 -0.487067, 2.9602  C-0.218114, 3.00427 0.0518508, 3.01173 0.322827, 2.98258  C0.890527, 2.92205 1.43901, 2.69457 1.8829, 2.33553  C2.58244, 1.77825 3.00521, 0.894283 3, 1.02845e-10 " /><path d="M3, 1.41349e-11 C3.00396, -0.83183 2.64046, -1.65643 2.02367, -2.21467  C1.39787, -2.79235 0.517695, -3.07948 -0.328335, -2.98198  C-0.996395, -2.91016 -1.63617, -2.60477 -2.11211, -2.13049  C-2.67226, -1.57963 -2.99904, -0.801233 -2.99996, -0.0156059  C-3.00729, 0.77293 -2.68606, 1.5577 -2.12784, 2.11478  C-1.65176, 2.59634 -1.00794, 2.90746 -0.334809, 2.98126  C0.500611, 3.07923 1.3704, 2.80256 1.99571, 2.2399  C2.62907, 1.68119 3.00419, 0.844497 3, 1.24469e-11 " /><path d="M3, 1.0283e-10 C3.00234, -0.726143 2.7282, -1.44853 2.2447, -1.99031  C1.90508, -2.37424 1.46509, -2.6683 0.980454, -2.83526  C0.581409, -2.97355 0.152946, -3.02599 -0.267673, -2.98803  C-0.911614, -2.93184 -1.53408, -2.65958 -2.01246, -2.22486  C-2.60815, -1.69065 -2.97218, -0.909251 -2.998, -0.109597  C-3.02926, 0.663629 -2.74476, 1.44327 -2.22289, 2.01463  C-1.77476, 2.51162 -1.15544, 2.85009 -0.495145, 2.95886  C-0.22278, 3.00425 0.050659, 3.01207 0.325173, 2.98233  C0.893218, 2.92131 1.44188, 2.69312 1.88566, 2.3333  C2.58359, 1.77593 3.00519, 0.893091 3, 9.04758e-11 " /><path d="M3, 1.23133e-11 C3.00396, -0.831831 2.64045, -1.65643 2.02367, -2.21467  C1.39786, -2.79236 0.517682, -3.07948 -0.328353, -2.98198  C-0.996027, -2.91019 -1.63545, -2.60511 -2.1113, -2.13129  C-2.67152, -1.58079 -2.99858, -0.802768 -2.99995, -0.0173413  C-3.00769, 0.769159 -2.68864, 1.55214 -2.13333, 2.10925  C-1.66265, 2.58774 -1.02684, 2.89939 -0.3603, 2.97829  C0.482408, 3.08455 1.36325, 2.80869 1.99483, 2.24068  C2.62871, 1.68197 3.0042, 0.844893 3, 1.05655e-11 " /><path d="M3, 9.04345e-11 C3.00234, -0.72614 2.7282, -1.44853 2.2447, -1.9903  C1.90508, -2.37424 1.46511, -2.6683 0.980471, -2.83526  C0.581734, -2.97344 0.153624, -3.02591 -0.266683, -2.98812  C-0.909641, -2.93223 -1.53127, -2.66094 -2.00949, -2.22754  C-2.60423, -1.69558 -2.96901, -0.917504 -2.99759, -0.120148  C-3.03192, 0.659279 -2.7451, 1.44624 -2.21732, 2.02077  C-1.76803, 2.51628 -1.14815, 2.85296 -0.4879, 2.96006  C-0.220425, 3.00397 0.0480882, 3.01167 0.317638, 2.98314  C0.88976, 2.92317 1.44263, 2.69358 1.88894, 2.33064  C2.58497, 1.77316 3.00516, 0.891662 3, 7.89151e-11 " /><path d="M3, 1.06239e-11 C3.00396, -0.831831 2.64045, -1.65644 2.02367, -2.21467  C1.39786, -2.79236 0.517674, -3.07949 -0.328364, -2.98198  C-0.995791, -2.91021 -1.63499, -2.60533 -2.11078, -2.13181  C-2.67104, -1.58153 -2.99827, -0.803756 -2.99994, -0.0184599  C-3.00809, 0.773047 -2.68507, 1.56101 -2.12359, 2.11905  C-1.65424, 2.59178 -1.02302, 2.89952 -0.361515, 2.97814  C0.47788, 3.08428 1.35533, 2.81146 1.98656, 2.24801  C2.62533, 1.68923 3.00427, 0.848608 3, 9.04876e-12 " /><path d="M3, 7.88987e-11 C3.00234, -0.726138 2.7282, -1.44853 2.24471, -1.9903  C1.90509, -2.37423 1.46512, -2.66829 0.980489, -2.83525  C0.582084, -2.97332 0.154355, -3.02583 -0.265616, -2.98822  C-0.917175, -2.93187 -1.54681, -2.65413 -2.02774, -2.21095  C-2.61996, -1.67244 -2.97863, -0.888165 -2.99871, -0.0880476  C-3.02413, 0.679065 -2.73914, 1.45036 -2.22107, 2.01664  C-1.76889, 2.51727 -1.14283, 2.8565 -0.476506, 2.96192  C-0.209878, 3.00464 0.0576598, 3.01141 0.326107, 2.98222  C0.894284, 2.92102 1.44302, 2.69254 1.88674, 2.33243  C2.58404, 1.77502 3.00518, 0.89262 3, 6.80707e-11 " /><path d="M3, 9.06253e-12 C3.00396, -0.831832 2.64045, -1.65644 2.02366, -2.21467  C1.39785, -2.79237 0.517661, -3.07949 -0.328382, -2.98197  C-0.995403, -2.91025 -1.63423, -2.6057 -2.10993, -2.13265  C-2.67175, -1.58131 -2.99945, -0.801276 -2.99997, -0.0141185  C-3.00691, 0.774941 -2.68486, 1.56005 -2.1257, 2.11693  C-1.65085, 2.59624 -1.0097, 2.90625 -0.33913, 2.98077  C0.498207, 3.08023 1.37058, 2.80314 1.99708, 2.23868  C2.62963, 1.67999 3.00418, 0.84388 3, 7.65077e-12 " /><path d="M3, 6.81242e-11 C3.00234, -0.726136 2.7282, -1.44852 2.24471, -1.99029  C1.9051, -2.37422 1.46513, -2.66828 0.980506, -2.83524  C0.582423, -2.9732 0.155064, -3.02574 -0.264581, -2.98831  C-0.913446, -2.9324 -1.54068, -2.657 -2.02096, -2.21714  C-2.61339, -1.68172 -2.97423, -0.901013 -2.99823, -0.102918  C-3.02777, 0.670375 -2.74155, 1.44938 -2.2184, 2.01958  C-1.77063, 2.51393 -1.15317, 2.85047 -0.49504, 2.95887  C-0.222253, 3.00432 0.0516027, 3.01209 0.326527, 2.98218  C0.894761, 2.92088 1.44352, 2.69229 1.88722, 2.33204  C2.58425, 1.77461 3.00517, 0.89241 3, 5.82201e-11 " /><path d="M3, 7.64278e-12 C3.00396, -0.831833 2.64045, -1.65644 2.02366, -2.21468  C1.39784, -2.79237 0.517644, -3.0795 -0.328406, -2.98197  C-0.994879, -2.9103 -1.63321, -2.60619 -2.10878, -2.13379  C-2.67332, -1.58043 -3.00173, -0.796253 -2.99999, -0.00574137  C-3.00468, 0.779917 -2.68335, 1.56082 -2.12698, 2.11565  C-1.65583, 2.59174 -1.02073, 2.90121 -0.355434, 2.97887  C0.484813, 3.08339 1.36239, 2.80825 1.99258, 2.24268  C2.62779, 1.68395 3.00422, 0.845903 3, 6.24012e-12 " /><path d="M3, 5.81575e-11 C3.00234, -0.726134 2.72821, -1.44852 2.24472, -1.99029  C1.90511, -2.37421 1.46514, -2.66827 0.980523, -2.83524  C0.58277, -2.97309 0.155789, -3.02566 -0.263522, -2.9884  C-0.907347, -2.93312 -1.53001, -2.66187 -2.00893, -2.22804  C-2.60692, -1.69351 -2.97244, -0.910189 -2.99803, -0.108599  C-3.02904, 0.664637 -2.74429, 1.44418 -2.22222, 2.01537  C-1.77346, 2.51273 -1.15321, 2.85116 -0.492112, 2.95936  C-0.221479, 3.00418 0.0502107, 3.01192 0.322956, 2.98257  C0.890675, 2.92201 1.43917, 2.69449 1.88305, 2.3354  C2.5825, 1.77812 3.00521, 0.894216 3, 4.90983e-11 " /><path d="M3, 6.3225e-12 C3.00396, -0.831833 2.64045, -1.65644 2.02366, -2.21468  C1.39784, -2.79237 0.517646, -3.0795 -0.328403, -2.98197  C-0.994952, -2.91029 -1.63336, -2.60612 -2.10894, -2.13363  C-2.67351, -1.58016 -3.00186, -0.795837 -3, -0.00522915  C-3.00455, 0.780517 -2.68301, 1.56145 -2.12644, 2.11619  C-1.65341, 2.59397 -1.01521, 2.90375 -0.347206, 2.97984  C0.493725, 3.08209 1.37096, 2.80421 1.99966, 2.23637  C2.63068, 1.67771 3.00416, 0.842714 3, 5.24203e-12 " /><path d="M3, 4.90994e-11 C3.00234, -0.726131 2.72821, -1.44851 2.24472, -1.99028  C1.90512, -2.37421 1.46516, -2.66827 0.980541, -2.83523  C0.583129, -2.97296 0.156538, -3.02557 -0.262429, -2.9885  C-0.911468, -2.93305 -1.53902, -2.65799 -2.01967, -2.21832  C-2.61332, -1.68244 -2.97477, -0.900371 -2.9983, -0.101042  C-3.02735, 0.67227 -2.74064, 1.45109 -2.21714, 2.02097  C-1.76765, 2.51661 -1.14747, 2.85329 -0.48696, 2.96021  C-0.217882, 3.0043 0.0522059, 3.01174 0.323303, 2.98253  C0.891075, 2.9219 1.4396, 2.69427 1.88346, 2.33507  C2.58268, 1.77778 3.00521, 0.894037 3, 4.04397e-11 " /><path d="M3, 5.13811e-12 C3.00396, -0.831833 2.64045, -1.65644 2.02366, -2.21468  C1.39785, -2.79237 0.517651, -3.07949 -0.328395, -2.98197  C-0.995122, -2.91027 -1.63369, -2.60596 -2.10931, -2.13326  C-2.67394, -1.57954 -3.00218, -0.794868 -3, -0.00403751  C-3.00424, 0.781898 -2.68223, 1.56288 -2.1252, 2.11743  C-1.6496, 2.59728 -1.00728, 2.90731 -0.335721, 2.98116  C0.49916, 3.07932 1.36849, 2.80333 1.99389, 2.24152  C2.62832, 1.6828 3.00421, 0.845316 3, 4.10028e-12 " /><path d="M3, 4.05609e-11 C3.00234, -0.726129 2.72821, -1.44851 2.24473, -1.99028  C1.90512, -2.3742 1.46517, -2.66826 0.980557, -2.83523  C0.583452, -2.97285 0.157213, -3.02548 -0.261443, -2.98859  C-0.912655, -2.93318 -1.54229, -2.65665 -2.02371, -2.21463  C-2.60993, -1.68338 -2.96885, -0.911763 -2.99755, -0.121222  C-3.03216, 0.658193 -2.74562, 1.44526 -2.21804, 2.01997  C-1.76963, 2.51487 -1.15111, 2.8515 -0.492052, 2.95937  C-0.221247, 3.00422 0.0506109, 3.01193 0.323522, 2.9825  C0.891327, 2.92183 1.43987, 2.69413 1.88372, 2.33486  C2.58278, 1.77756 3.00521, 0.893924 3, 3.29869e-11 " /><path d="M3, 4.08584e-12 C3.00396, -0.831833 2.64045, -1.65644 2.02366, -2.21468  C1.39784, -2.79237 0.517642, -3.0795 -0.328407, -2.98197  C-0.994844, -2.9103 -1.63315, -2.60622 -2.1087, -2.13386  C-2.67323, -1.58056 -3.00166, -0.796452 -2.99999, -0.0059869  C-3.00474, 0.779629 -2.68351, 1.56051 -2.12724, 2.11538  C-1.65733, 2.59033 -1.02429, 2.89955 -0.360816, 2.97822  C0.482997, 3.08479 1.36509, 2.80817 1.99696, 2.23878  C2.62958, 1.68009 3.00418, 0.843932 3, 3.14815e-12 " /><path d="M3, 3.29679e-11 C3.00234, -0.726127 2.72821, -1.4485 2.24473, -1.99027  C1.90513, -2.37419 1.46518, -2.66825 0.980573, -2.83522  C0.58378, -2.97274 0.1579, -3.0254 -0.260439, -2.98867  C-0.90657, -2.93388 -1.53159, -2.66153 -2.01164, -2.2256  C-2.60798, -1.69121 -2.97238, -0.909159 -2.99802, -0.108896  C-3.0291, 0.664337 -2.74443, 1.44392 -2.22242, 2.01515  C-1.77463, 2.51153 -1.15603, 2.84968 -0.496452, 2.95864  C-0.230963, 3.00302 0.0356856, 3.01167 0.303494, 2.98461  C0.875432, 2.9274 1.42896, 2.70076 1.87679, 2.34044  C2.57988, 1.78338 3.00527, 0.896926 3, 2.64437e-11 " /><path d="M3, 3.14415e-12 C3.00396, -0.831835 2.64045, -1.65644 2.02366, -2.21468  C1.39783, -2.79238 0.51761, -3.07951 -0.328451, -2.98197  C-0.993774, -2.9104 -1.63107, -2.60722 -2.10635, -2.13618  C-2.67286, -1.58218 -3.00231, -0.795995 -3, -0.00363495  C-3.00409, 0.779324 -2.6845, 1.55738 -2.13117, 2.11142  C-1.65908, 2.5904 -1.02134, 2.90165 -0.353289, 2.97913  C0.48548, 3.08282 1.3612, 2.80833 1.99072, 2.24434  C2.62703, 1.68559 3.00423, 0.846743 3, 2.20712e-12 " /><path d="M3, 2.63478e-11 C3.00234, -0.726125 2.72821, -1.4485 2.24473, -1.99027  C1.90514, -2.37419 1.46519, -2.66824 0.98059, -2.83521  C0.584131, -2.97262 0.158632, -3.02531 -0.259369, -2.98877  C-0.909392, -2.9339 -1.53808, -2.65878 -2.01945, -2.21852  C-2.61424, -1.68174 -2.97595, -0.897837 -2.99843, -0.0970319  C-3.02615, 0.670001 -2.74348, 1.44215 -2.2271, 2.00998  C-1.77881, 2.50927 -1.15803, 2.84949 -0.495959, 2.95872  C-0.227674, 3.00351 0.0417384, 3.01184 0.312278, 2.9837  C0.88704, 2.92451 1.44267, 2.69413 1.89068, 2.32924  C2.58569, 1.7717 3.00514, 0.890914 3, 2.04334e-11 " /><path d="M3, 2.30727e-12 C3.00396, -0.831835 2.64045, -1.65644 2.02366, -2.21468  C1.39782, -2.79239 0.517598, -3.07951 -0.328468, -2.98196  C-0.993324, -2.91044 -1.6302, -2.60764 -2.10537, -2.13715  C-2.66886, -1.58654 -2.99829, -0.806322 -2.99994, -0.0184792  C-3.00808, 0.772624 -2.68541, 1.5602 -2.12446, 2.11818  C-1.65534, 2.59105 -1.02433, 2.89904 -0.362933, 2.97797  C0.478921, 3.08486 1.35919, 2.81041 1.99114, 2.24396  C2.6272, 1.68521 3.00423, 0.846551 3, 1.63736e-12 " /><path d="M3, 2.04823e-11 C3.00234, -0.726123 2.72821, -1.4485 2.24474, -1.99026  C1.90515, -2.37418 1.46521, -2.66824 0.980609, -2.83521  C0.584525, -2.97249 0.159456, -3.02521 -0.258165, -2.98887  C-0.903543, -2.93463 -1.52804, -2.66337 -2.00818, -2.22872  C-2.60981, -1.69137 -2.97619, -0.902223 -2.99847, -0.0959382  C-3.02591, 0.671104 -2.74295, 1.44315 -2.22637, 2.01079  C-1.77661, 2.51136 -1.15342, 2.85183 -0.489202, 2.95984  C-0.225313, 3.00329 0.039664, 3.01147 0.30573, 2.98438  C0.881908, 2.92633 1.43923, 2.69625 1.88857, 2.33095  C2.58481, 1.77348 3.00516, 0.891824 3, 1.49636e-11 " /><path d="M3, 1.59828e-12 C3.00396, -0.831834 2.64045, -1.65644 2.02366, -2.21468  C1.39783, -2.79238 0.517625, -3.0795 -0.328431, -2.98197  C-0.994286, -2.91035 -1.63206, -2.60674 -2.10748, -2.13507  C-2.67515, -1.57938 -3.00435, -0.79041 -3, 0.00396304  C-3.00205, 0.783253 -2.68362, 1.55695 -2.13354, 2.10903  C-1.65999, 2.5906 -1.01915, 2.90312 -0.34812, 2.97973  C0.491398, 3.08205 1.36725, 2.80557 1.99588, 2.23974  C2.62914, 1.68104 3.00419, 0.844419 3, 1.20925e-12 " /><path d="M3, 1.50224e-11 C3.00234, -0.72612 2.72822, -1.44849 2.24474, -1.99026  C1.90515, -2.37417 1.46522, -2.66823 0.980626, -2.8352  C0.58495, -2.97234 0.160349, -3.02511 -0.256858, -2.98898  C-0.90426, -2.93487 -1.53072, -2.66234 -2.01166, -2.22559  C-2.61204, -1.68765 -2.97712, -0.898638 -2.99856, -0.0928749  C-3.02522, 0.674195 -2.74148, 1.44595 -2.22432, 2.01306  C-1.77647, 2.51045 -1.15726, 2.84937 -0.496932, 2.95856  C-0.229292, 3.00334 0.0394941, 3.01182 0.309425, 2.984  C0.879924, 2.92578 1.43177, 2.69898 1.87834, 2.3392  C2.58053, 1.78209 3.00526, 0.896254 3, 1.03342e-11 " /><path d="M3, 1.05516e-12 C3.00396, -0.831836 2.64045, -1.65645 2.02365, -2.21468  C1.39781, -2.79239 0.51758, -3.07951 -0.328492, -2.98196  C-0.992635, -2.9105 -1.62886, -2.60828 -2.10386, -2.13864  C-2.67105, -1.58527 -3.00142, -0.799398 -2.99999, -0.00698455  C-3.005, 0.778428 -2.6842, 1.55922 -2.12837, 2.11425  C-1.6546, 2.59367 -1.01466, 2.90435 -0.344914, 2.98011  C0.494687, 3.08152 1.37022, 2.80412 1.99824, 2.23764  C2.6301, 1.67897 3.00417, 0.843357 3, 5.11591e-13 " /><path d="M3, 1.03437e-11 C3.00234, -0.726118 2.72822, -1.44849 2.24475, -1.99025  C1.90516, -2.37417 1.46523, -2.66822 0.98064, -2.8352  C0.579409, -2.97428 0.148429, -3.02655 -0.274418, -2.98742  C-0.915505, -2.93 -1.53485, -2.65844 -2.01142, -2.22581  C-2.60559, -1.69342 -2.96968, -0.915216 -2.99768, -0.117983  C-3.0311, 0.655153 -2.74879, 1.43559 -2.22852, 2.00841  C-1.78078, 2.50778 -1.16062, 2.84835 -0.498969, 2.95821  C-0.224023, 3.00439 0.0520182, 3.01229 0.329154, 2.98189  C0.897732, 2.92005 1.44666, 2.69069 1.89021, 2.32962  C2.58549, 1.77209 3.00514, 0.891114 3, 7.0437e-12 " /><path d="M3, 6.09957e-13 C3.00396, -0.831835 2.64045, -1.65644 2.02366, -2.21468  C1.39783, -2.79238 0.517607, -3.07951 -0.328455, -2.98197  C-0.993671, -2.91041 -1.63087, -2.60732 -2.10613, -2.1364  C-2.67217, -1.58297 -3.00164, -0.797749 -2.99999, -0.00611208  C-3.00481, 0.781415 -2.68198, 1.56417 -2.12331, 2.11933  C-1.65328, 2.59262 -1.02098, 2.90045 -0.358531, 2.9785  C0.480383, 3.08372 1.35693, 2.8105 1.9875, 2.24719  C2.62571, 1.68841 3.00426, 0.848188 3, 2.97984e-13 " /><path d="M3, 7.01106e-12 C3.00234, -0.726116 2.72822, -1.44848 2.24475, -1.99025  C1.90517, -2.37416 1.46524, -2.66821 0.98066, -2.83519  C0.579974, -2.97408 0.149621, -3.02641 -0.272674, -2.98758  C-0.922559, -2.92982 -1.55012, -2.6518 -2.02956, -2.20928  C-2.61897, -1.67239 -2.97662, -0.891902 -2.9985, -0.0949949  C-3.0257, 0.672056 -2.7425, 1.44401 -2.22574, 2.01149  C-1.77495, 2.51291 -1.15008, 2.8535 -0.484385, 2.96064  C-0.21284, 3.00488 0.0596534, 3.01182 0.333097, 2.98145  C0.895397, 2.91952 1.4383, 2.69381 1.87878, 2.33884  C2.58072, 1.78172 3.00525, 0.896063 3, 3.91376e-12 " /><path d="M3, 3.16414e-13 C3.00396, -0.831837 2.64045, -1.65645 2.02365, -2.21469  C1.39781, -2.7924 0.51756, -3.07952 -0.32852, -2.98196  C-0.991792, -2.91058 -1.62723, -2.60907 -2.10202, -2.14045  C-2.68704, -1.57109 -3.01986, -0.754321 -2.99936, 0.0618248  C-2.98648, 0.822921 -2.6687, 1.573 -2.13089, 2.1117  C-1.65882, 2.59054 -1.02117, 2.90168 -0.35323, 2.97913  C0.485678, 3.08283 1.36154, 2.80821 1.99107, 2.24403  C2.62717, 1.68528 3.00423, 0.846584 3, 1.82077e-13 " /><path d="M3, 4.02434e-12 C3.00234, -0.726114 2.72822, -1.44848 2.24476, -1.99024  C1.90518, -2.37415 1.46525, -2.66821 0.980674, -2.83519  C0.580374, -2.97395 0.150464, -3.02631 -0.271441, -2.98769  C-0.920666, -2.93025 -1.54772, -2.65303 -2.02713, -2.2115  C-2.62053, -1.67224 -2.97959, -0.886282 -2.9988, -0.0847657  C-3.02339, 0.682374 -2.73756, 1.45336 -2.21886, 2.01907  C-1.77204, 2.51259 -1.15614, 2.84896 -0.49941, 2.95814  C-0.232241, 3.00307 0.036108, 3.01182 0.305637, 2.98439  C0.881523, 2.92638 1.43859, 2.69653 1.88781, 2.33156  C2.58449, 1.77411 3.00517, 0.892153 3, 2.1827e-12 " /><path d="M-0.700271 2.91713 A3 3 0 0 1 -2.55793 1.56748" /><path d="M3, 1.1191e-13 C3.00396, -0.831838 2.64045, -1.65645 2.02365, -2.21469  C1.3978, -2.7924 0.517554, -3.07952 -0.328527, -2.98196  C-0.991532, -2.9106 -1.62673, -2.60931 -2.10145, -2.14101  C-2.67075, -1.58686 -3.00218, -0.798716 -3, -0.00425099  C-3.00158, 0.547126 -2.8467, 1.09777 -2.55793, 1.56748 " /><path d="M3, 2.27374e-12 C3.00234, -0.726111 2.72822, -1.44847 2.24476, -1.99024  C1.90518, -2.37414 1.46527, -2.6682 0.980694, -2.83518  C0.580977, -2.97374 0.151733, -3.02616 -0.269582, -2.98786  C-0.916865, -2.93099 -1.54227, -2.6557 -2.02138, -2.21676  C-2.50913, -1.77417 -2.84307, -1.16633 -2.95506, -0.517297  C-3.07674, 0.166334 -2.94975, 0.890522 -2.60269, 1.49198  C-2.20009, 2.20169 -1.49459, 2.73023 -0.700271, 2.91713 " /><path d="M2.50203, 1.00838e-07 C2.54661, 0.401188 2.49158, 0.81403 2.34567, 1.19334  C2.1877, 1.60642 1.92263, 1.9789 1.58462, 2.26826  C0.968781, 2.80172 0.111153, 3.03924 -0.700271, 2.91713 " /><path d="M-2.55793, 1.56748 C-2.72147, 1.23624 -2.8224, 0.874784 -2.85215, 0.507941  C-2.89637, -0.0235847 -2.78812, -0.565954 -2.53934, -1.03413  C-2.31824, -1.45311 -1.98558, -1.81135 -1.58421, -2.05701  C-1.22251, -2.2796 -0.805761, -2.40977 -0.384626, -2.42846 " /><path d="M-0.384626, -2.42846 C-0.142069, -2.44086 0.138465, -2.43013 0.410575, -2.37093  C0.76182, -2.29677 1.10626, -2.14701 1.40281, -1.93076 " /><path d="M1.40281, -1.93076 C1.69994, -1.71566 1.94868, -1.43455 2.12773, -1.12363  C2.26827, -0.882987 2.36527, -0.619311 2.42847, -0.384624 " /><path d="M2.50203, 1.00838e-07 Q2.4805, -0.195494 2.42847, -0.384624 " /></g>
<g   fill="none"
   stroke="rgb(165, 165, 165)"
   stroke-dasharray="1.2,0.8"
   stroke-linecap="butt"
   stroke-linejoin="miter"
   stroke-width="0.25"
   transform="scale(1, -1)"
  >
<path d="M-2.5099, 1.64329 C-2.16032, 2.1076 -1.65775, 2.45391 -1.09938, 2.61525  C-0.631968, 2.75212 -0.127727, 2.75989 0.343681, 2.63748  C0.991229, 2.47257 1.57073, 2.05864 1.93671, 1.49956  C2.22898, 1.05796 2.38751, 0.529543 2.38661, 2.4843e-06 " /><path d="M2.38661, 2.4843e-06 C2.38743, -0.467013 2.24664, -0.932977 1.9874, -1.32142  C1.75088, -1.67818 1.41617, -1.96884 1.02979, -2.15302  C0.567447, -2.37545 0.0324219, -2.44206 -0.470344, -2.33981  C-0.978587, -2.23888 -1.45054, -1.96626 -1.79189, -1.57642  C-2.16826, -1.15122 -2.38347, -0.587932 -2.38654, -0.0201021  C-2.3926, 0.525047 -2.20368, 1.0696 -1.86128, 1.49385  C-1.44026, 2.02389 -0.784264, 2.35698 -0.107909, 2.38417  C0.393907, 2.40797 0.901681, 2.26726 1.31967, 1.98856  C1.6463, 1.77232 1.91821, 1.4737 2.10303, 1.12835  C2.28859, 0.783399 2.38707, 0.391714 2.38661, 2.36009e-06 " /><path d="M2.38661, 2.36009e-06 C2.38743, -0.467013 2.24664, -0.932976 1.98739, -1.32142  C1.75087, -1.67818 1.41617, -1.96884 1.02978, -2.15302  C0.567445, -2.37545 0.0324207, -2.44206 -0.470345, -2.33981  C-0.978588, -2.23887 -1.45054, -1.96625 -1.7919, -1.57642  C-2.16821, -1.15127 -2.38342, -0.588074 -2.38653, -0.020319  C-2.39266, 0.525836 -2.20306, 1.0714 -1.85953, 1.49602  C-1.43548, 2.02868 -0.773872, 2.36162 -0.093427, 2.38478  C0.494218, 2.4098 1.08755, 2.2065 1.53636, 1.82633  C2.0704, 1.38201 2.3904, 0.694708 2.38661, 2.23588e-06 " /><path d="M2.38661, 2.23588e-06 C2.38742, -0.467012 2.24664, -0.932975 1.98739, -1.32142  C1.75087, -1.67817 1.41617, -1.96884 1.02978, -2.15302  C0.567442, -2.37545 0.0324156, -2.44206 -0.470351, -2.33981  C-0.978597, -2.23887 -1.45055, -1.96624 -1.79191, -1.5764  C-2.16802, -1.15147 -2.38321, -0.588616 -2.38652, -0.0211452  C-2.39288, 0.527301 -2.20181, 1.07519 -1.85574, 1.50071  C-1.41046, 2.05797 -0.70431, 2.39344 0.00896502, 2.38659  C0.563354, 2.3861 1.11455, 2.18371 1.53753, 1.82534  C2.07089, 1.381 2.39039, 0.694188 2.3866, 2.11167e-06 " /><path d="M2.3866, 2.11167e-06 C2.38742, -0.467012 2.24664, -0.932974 1.98739, -1.32142  C1.75087, -1.67817 1.41616, -1.96884 1.02978, -2.15301  C0.567444, -2.37544 0.0324198, -2.44205 -0.470345, -2.3398  C-0.978588, -2.23887 -1.45054, -1.96625 -1.79189, -1.57641  C-2.16818, -1.15129 -2.38339, -0.588128 -2.38653, -0.0204028  C-2.39268, 0.526145 -2.20282, 1.0721 -1.85884, 1.49687  C-1.43366, 2.03049 -0.769964, 2.36334 -0.0880144, 2.38498  C0.469486, 2.40718 1.03203, 2.22483 1.47048, 1.87978  C2.04288, 1.43758 2.39102, 0.723303 2.3866, 1.98746e-06 " /><path d="M2.3866, 1.98746e-06 C2.38742, -0.467012 2.24664, -0.932974 1.98739, -1.32142  C1.75087, -1.67817 1.41616, -1.96884 1.02978, -2.15301  C0.567443, -2.37544 0.0324194, -2.44205 -0.470345, -2.3398  C-0.978587, -2.23887 -1.45054, -1.96625 -1.79189, -1.57641  C-2.16817, -1.1513 -2.38338, -0.588154 -2.38652, -0.0204426  C-2.39269, 0.526292 -2.2027, 1.07244 -1.85851, 1.49727  C-1.4328, 2.03133 -0.768135, 2.36414 -0.0854874, 2.38507  C0.475354, 2.40684 1.04104, 2.22151 1.48026, 1.87208  C2.047, 1.42944 2.39092, 0.719102 2.3866, 1.86324e-06 " /><path d="M2.3866, 1.86324e-06 C2.38742, -0.467011 2.24663, -0.932973 1.98739, -1.32142  C1.75087, -1.67817 1.41616, -1.96883 1.02978, -2.15301  C0.567447, -2.37544 0.0324286, -2.44205 -0.470332, -2.3398  C-0.978569, -2.23887 -1.45051, -1.96626 -1.79187, -1.57643  C-2.16851, -1.15094 -2.38376, -0.587146 -2.38654, -0.0189107  C-2.39267, 0.544628 -2.18991, 1.10718 -1.82564, 1.5372  C-1.49263, 1.93456 -1.02639, 2.21743 -0.520153, 2.32922  C0.11688, 2.47455 0.810605, 2.34094 1.34808, 1.9694  C1.66684, 1.75171 1.93137, 1.45482 2.11107, 1.11322  C2.29146, 0.771973 2.38703, 0.386007 2.3866, 1.73903e-06 " /><path d="M2.3866, 1.73903e-06 C2.38741, -0.467011 2.24663, -0.932972 1.98738, -1.32142  C1.75086, -1.67817 1.41616, -1.96883 1.02978, -2.15301  C0.567436, -2.37544 0.0324085, -2.44205 -0.470359, -2.33979  C-0.978606, -2.23886 -1.45056, -1.96623 -1.79191, -1.57638  C-2.16775, -1.15174 -2.38291, -0.5894 -2.3865, -0.02234  C-2.39314, 0.525918 -2.20247, 1.07372 -1.85683, 1.49935  C-1.42848, 2.03557 -0.759, 2.36811 -0.0729205, 2.38548  C0.506027, 2.40506 1.08871, 2.20343 1.53173, 1.8302  C2.06847, 1.38596 2.39043, 0.696738 2.3866, 1.61482e-06 " /><path d="M2.3866, 1.61482e-06 C2.38741, -0.467011 2.24663, -0.932971 1.98738, -1.32141  C1.75086, -1.67817 1.41616, -1.96883 1.02978, -2.15301  C0.567435, -2.37544 0.0324061, -2.44205 -0.470361, -2.33979  C-0.97861, -2.23885 -1.45056, -1.96622 -1.79192, -1.57637  C-2.16764, -1.15187 -2.38277, -0.589745 -2.3865, -0.022865  C-2.39325, 0.525309 -2.20276, 1.07307 -1.85731, 1.49875  C-1.42971, 2.03436 -0.761585, 2.36699 -0.076468, 2.38537  C0.511873, 2.40623 1.10427, 2.19831 1.55051, 1.81432  C2.07624, 1.36982 2.39026, 0.68844 2.38659, 1.4906e-06 " /><path d="M2.38659, 1.4906e-06 C2.38741, -0.46701 2.24663, -0.932971 1.98738, -1.32141  C1.75086, -1.67817 1.41616, -1.96883 1.02977, -2.153  C0.56743, -2.37544 0.0323989, -2.44205 -0.47037, -2.33979  C-0.978623, -2.23885 -1.45058, -1.96621 -1.79193, -1.57635  C-2.16728, -1.15225 -2.38237, -0.590803 -2.38648, -0.0244741  C-2.39359, 0.523437 -2.20366, 1.07107 -1.8588, 1.4969  C-1.43358, 2.03055 -0.769801, 2.3634 -0.0877938, 2.38498  C0.470271, 2.40716 1.03336, 2.22435 1.47198, 1.87859  C2.0435, 1.43633 2.39099, 0.722655 2.38659, 1.36639e-06 " /><path d="M2.38659, 1.36639e-06 C2.38741, -0.46701 2.24663, -0.93297 1.98738, -1.32141  C1.75086, -1.67816 1.41616, -1.96883 1.02977, -2.153  C0.567431, -2.37543 0.0324014, -2.44204 -0.470367, -2.33979  C-0.978617, -2.23884 -1.45057, -1.96621 -1.79192, -1.57636  C-2.16741, -1.15211 -2.38252, -0.590411 -2.38648, -0.0238792  C-2.39346, 0.524129 -2.20333, 1.07181 -1.85824, 1.49758  C-1.43213, 2.03198 -0.766709, 2.36475 -0.083523, 2.38513  C0.503254, 2.40766 1.09477, 2.20263 1.54172, 1.82178  C2.07261, 1.37738 2.39033, 0.692332 2.38659, 1.24217e-06 " /><path d="M2.38659, 1.24217e-06 C2.3874, -0.46701 2.24662, -0.932969 1.98738, -1.32141  C1.75086, -1.67816 1.41615, -1.96883 1.02977, -2.153  C0.567431, -2.37543 0.0324026, -2.44204 -0.470364, -2.33978  C-0.978614, -2.23884 -1.45057, -1.96621 -1.79192, -1.57636  C-2.16747, -1.15204 -2.38259, -0.590221 -2.38648, -0.0235909  C-2.3934, 0.524464 -2.20316, 1.07217 -1.85797, 1.49791  C-1.43143, 2.03266 -0.765234, 2.36539 -0.0814919, 2.38519  C0.509372, 2.40742 1.10478, 2.19878 1.55251, 1.81259  C2.07706, 1.36807 2.39024, 0.68755 2.38659, 1.11796e-06 " /><path d="M2.38659, 1.11796e-06 C2.3874, -0.467009 2.24662, -0.932968 1.98737, -1.32141  C1.75086, -1.67816 1.41615, -1.96882 1.02977, -2.153  C0.567438, -2.37543 0.0324163, -2.44204 -0.470346, -2.33979  C-0.978586, -2.23885 -1.45053, -1.96623 -1.79189, -1.57639  C-2.16808, -1.15138 -2.38327, -0.5884 -2.38651, -0.0208251  C-2.39279, 0.527666 -2.20161, 1.07557 -1.85543, 1.50106  C-1.40986, 2.05848 -0.703216, 2.39384 0.0103637, 2.38656  C0.567217, 2.38576 1.1207, 2.1812 1.54422, 1.81966  C2.07364, 1.37522 2.39031, 0.691222 2.38658, 9.93743e-07 " /><path d="M2.38658, 9.93743e-07 C2.3874, -0.467009 2.24662, -0.932967 1.98737, -1.32141  C1.75085, -1.67816 1.41615, -1.96882 1.02977, -2.153  C0.567434, -2.37542 0.0324108, -2.44203 -0.470352, -2.33978  C-0.978596, -2.23884 -1.45054, -1.96622 -1.7919, -1.57638  C-2.16788, -1.15159 -2.38304, -0.588994 -2.38649, -0.0217293  C-2.39299, 0.526621 -2.20211, 1.07447 -1.85625, 1.50004  C-1.4116, 2.05691 -0.706505, 2.39255 0.00608846, 2.38657  C0.554791, 2.3867 1.10068, 2.18921 1.52229, 1.83804  C2.06455, 1.394 2.3905, 0.700865 2.38658, 8.69527e-07 " /><path d="M2.38658, 8.69527e-07 C2.3874, -0.467009 2.24662, -0.932967 1.98737, -1.32141  C1.75085, -1.67816 1.41615, -1.96882 1.02977, -2.153  C0.567422, -2.37543 0.0323871, -2.44203 -0.470384, -2.33977  C-0.978641, -2.23883 -1.4506, -1.96618 -1.79195, -1.57632  C-2.1667, -1.15286 -2.38172, -0.59249 -2.38644, -0.0270403  C-2.39413, 0.520432 -2.2051, 1.06785 -1.8612, 1.49389  C-1.4401, 2.02401 -0.783938, 2.35709 -0.107465, 2.38416  C0.398659, 2.40809 0.91078, 2.26458 1.33076, 1.98112  C1.65432, 1.7643 1.92334, 1.46634 2.10616, 1.12245  C2.28969, 0.778932 2.38703, 0.389483 2.38658, 7.4531e-07 " /><path d="M2.38658, 7.4531e-07 C2.3874, -0.467008 2.24661, -0.932966 1.98737, -1.32141  C1.75085, -1.67816 1.41615, -1.96882 1.02977, -2.15299  C0.567421, -2.37543 0.0323867, -2.44203 -0.470384, -2.33977  C-0.97864, -2.23882 -1.4506, -1.96618 -1.79195, -1.57631  C-2.16669, -1.15287 -2.38171, -0.592517 -2.38644, -0.0270824  C-2.39414, 0.520382 -2.20513, 1.06779 -1.86124, 1.49384  C-1.44021, 2.02389 -0.784182, 2.35698 -0.107807, 2.38414  C0.393129, 2.40787 0.900003, 2.26769 1.31756, 1.98993  C1.55429, 1.83269 1.7568, 1.63958 1.9251, 1.41058  C2.22349, 1.0052 2.38767, 0.503359 2.38658, 6.21093e-07 " /><path d="M2.38658, 6.21093e-07 C2.38739, -0.467008 2.24661, -0.932965 1.98737, -1.3214  C1.75085, -1.67815 1.41615, -1.96882 1.02977, -2.15299  C0.567436, -2.37542 0.0324175, -2.44203 -0.470342, -2.33978  C-0.97858, -2.23884 -1.45052, -1.96622 -1.79188, -1.57639  C-2.16813, -1.15131 -2.38333, -0.588224 -2.3865, -0.0205604  C-2.3927, 0.526737 -2.20233, 1.07345 -1.8575, 1.49849  C-1.43021, 2.03384 -0.762667, 2.3665 -0.077962, 2.3853  C0.516522, 2.40682 1.1152, 2.19452 1.5633, 1.80328  C2.0815, 1.35871 2.39013, 0.682755 2.38657, 4.96875e-07 " /><path d="M2.38657, 4.96875e-07 C2.38739, -0.467008 2.24661, -0.932964 1.98736, -1.3214  C1.75085, -1.67815 1.41614, -1.96882 1.02977, -2.15299  C0.567419, -2.37542 0.0323849, -2.44203 -0.470385, -2.33977  C-0.978642, -2.23882 -1.4506, -1.96617 -1.79195, -1.57631  C-2.16661, -1.15296 -2.38161, -0.592763 -2.38643, -0.0274584  C-2.39422, 0.519938 -2.20534, 1.06731 -1.86159, 1.49339  C-1.4412, 2.02287 -0.786378, 2.35598 -0.110884, 2.38399  C0.463553, 2.41255 1.04521, 2.22325 1.4928, 1.86206  C2.05224, 1.41891 2.39078, 0.713663 2.38657, 3.72657e-07 " /><path d="M2.38657, 3.72657e-07 C2.38739, -0.467007 2.24661, -0.932963 1.98736, -1.3214  C1.75084, -1.67815 1.41614, -1.96881 1.02977, -2.15299  C0.567431, -2.37541 0.0324105, -2.44202 -0.47035, -2.33977  C-0.978591, -2.23883 -1.45054, -1.96621 -1.79189, -1.57637  C-2.16787, -1.15158 -2.38304, -0.588973 -2.38648, -0.0217019  C-2.39297, 0.52665 -2.20209, 1.07449 -1.85622, 1.50006  C-1.41153, 2.05696 -0.706371, 2.39259 0.0062644, 2.38656  C0.55539, 2.38665 1.10168, 2.18881 1.5234, 1.83711  C2.065, 1.39304 2.39048, 0.700373 2.38657, 2.48438e-07 " /><path d="M2.38657, 2.48438e-07 C2.38739, -0.467007 2.24661, -0.932963 1.98736, -1.3214  C1.75084, -1.67815 1.41614, -1.96881 1.02976, -2.15299  C0.567416, -2.37542 0.0323806, -2.44202 -0.47039, -2.33976  C-0.978648, -2.23881 -1.45061, -1.96616 -1.79195, -1.57629  C-2.1664, -1.15317 -2.38138, -0.593364 -2.38641, -0.0283732  C-2.39441, 0.518859 -2.20585, 1.06615 -1.86246, 1.4923  C-1.44368, 2.02034 -0.791871, 2.35348 -0.118604, 2.38362  C0.412434, 2.4114 0.950702, 2.25413 1.38326, 1.94482  C2.00568, 1.50861 2.3919, 0.760036 2.38657, 1.2422e-07 " /><path d="M2.38657, 1.2422e-07 C2.39167, -0.751896 2.01409, -1.49291 1.40281, -1.93076 " /></g>
<g   fill="none"
   stroke="rgb(0, 0, 0)"
   stroke-linecap="butt"
   stroke-linejoin="miter"
   stroke-width="0.35"
   transform="scale(1, -1)"
  >
<path d="M2.74113 -2.09493 A9.99958 0.783319 128.708 0 1 1.89422 -0.99" />
<path d="M2.74113 -2.09493 A3.45 3.45 0 0 0 2.09493 -2.74113" /><path d="M0.99 -1.89422 A9.99958 0.783319 -38.7079 0 1 2.09493 -2.74113" />
<path d="M1.18516e-14 -1.60331 A9.98315 0.957306 -16.9194 0 1 0.99 -1.89422" />
<path d="M-0.99 -1.89422 A9.98315 0.957306 16.9194 0 1 -1.53488e-14 -1.60331" />
<path d="M-2.09493 -2.74113 A9.99958 0.783319 38.7079 0 1 -0.99 -1.89422" />
<path d="M-2.09493 -2.74113 A3.45 3.45 0 0 0 -2.74113 -2.09493" /><path d="M-1.89422 -0.99 A9.99958 0.783319 -128.708 0 1 -2.74113 -2.09493" />
<path d="M-1.60331 -1.19071e-14 A9.98315 0.957306 -106.919 0 1 -1.89422 -0.99" />
<path d="M-1.89422 0.99 A9.98315 0.957306 -73.0806 0 1 -1.60331 1.53488e-14" />
<path d="M-2.74113 2.09493 A9.99958 0.783319 -51.2921 0 1 -1.89422 0.99" />
<path d="M-2.74113 2.09493 A3.45 3.45 0 0 0 -2.09493 2.74113" /><path d="M-0.99 1.89422 A9.99958 0.783319 141.292 0 1 -2.09493 2.74113" />
<path d="M-1.18516e-14 1.60331 A9.98315 0.957306 163.081 0 1 -0.99 1.89422" />
<path d="M0.99 1.89422 A9.98315 0.957306 -163.081 0 1 1.53488e-14 1.60331" />
<path d="M2.09493 2.74113 A9.99958 0.783319 -141.292 0 1 0.99 1.89422" />
<path d="M2.09493 2.74113 A3.45 3.45 0 0 0 2.74113 2.09493" /><path d="M1.89422 0.99 A9.99958 0.783319 51.2921 0 1 2.74113 2.09493" />
<path d="M1.60331 1.19071e-14 A9.98315 0.957306 73.0806 0 1 1.89422 0.99" />
<circle cx ="0" cy ="0" r ="6" /><path d="M1.89422 -0.99 A9.98315 0.957306 106.919 0 1 1.60331 -1.54043e-14" />
<path id= "22" d=" M 1.89422 -0.99 L 1.53964 -0.99 " />
<path id= "23" d=" M 1.60331 0 L 1.205 0 " />
<path d="M1.53964, -0.99 C1.39439, -0.573499 1.29292, -0.273325 1.205, -1.32006e-13 " /><path d="M2.74113, -2.09493 C2.231, -1.63144 1.87053, -1.30361 1.5905, -1.04849 " /><path d="M1.5905, -1.04849 L1.53964, -0.99 " /><path d="M1.04849, -1.5905 C1.30361, -1.87053 1.63144, -2.231 2.09493, -2.74113 " /><path d="M1.04849 -1.5905 A1.905 1.905 0 0 1 1.5905 -1.04849" /><path id= "29" d=" M 0.99 -1.89422 L 0.99 -1.53964 " />
<path d="M0.99, -1.53964 L1.04849, -1.5905 " /><path id= "31" d=" M -3.56006e-16 -1.60331 L -2.67564e-16 -1.205 " />
<path d="M1.31955e-13, -1.205 C0.273325, -1.29292 0.573499, -1.39439 0.99, -1.53964 " /><path id= "33" d=" M -0.99 -1.89422 L -0.99 -1.53964 " />
<path d="M-0.99, -1.53964 C-0.573499, -1.39439 -0.273325, -1.29292 -1.32394e-13, -1.205 " /><path d="M-2.09493, -2.74113 C-1.63144, -2.231 -1.30361, -1.87053 -1.04849, -1.5905 " /><path d="M-1.04849, -1.5905 L-0.99, -1.53964 " /><path d="M-1.5905, -1.04849 C-1.87053, -1.30361 -2.231, -1.63144 -2.74113, -2.09493 " /><path d="M-1.5905 -1.04849 A1.905 1.905 0 0 1 -1.04849 -1.5905" /><path id= "39" d=" M -1.89422 -0.99 L -1.53964 -0.99 " />
<path d="M-1.53964, -0.99 L-1.5905, -1.04849 " /><path id= "41" d=" M -1.60331 1.96349e-16 L -1.205 1.4757e-16 " />
<path d="M-1.205, -1.319e-13 C-1.29292, -0.273325 -1.39439, -0.573499 -1.53964, -0.99 " /><path id= "43" d=" M -1.89422 0.99 L -1.53964 0.99 " />
<path d="M-1.53964, 0.99 C-1.39439, 0.573499 -1.29292, 0.273325 -1.205, 1.32006e-13 " /><path d="M-2.74113, 2.09493 C-2.231, 1.63144 -1.87053, 1.30361 -1.5905, 1.04849 " /><path d="M-1.5905, 1.04849 L-1.53964, 0.99 " /><path d="M-1.04849, 1.5905 C-1.30361, 1.87053 -1.63144, 2.231 -2.09493, 2.74113 " /><path d="M-1.04849 1.5905 A1.905 1.905 0 0 1 -1.5905 1.04849" /><path id= "49" d=" M -0.99 1.89422 L -0.99 1.53964 " />
<path d="M-0.99, 1.53964 L-1.04849, 1.5905 " /><path id= "51" d=" M 1.78003e-16 1.60331 L 1.33782e-16 1.205 " />
<path d="M-1.32117e-13, 1.205 C-0.273325, 1.29292 -0.573499, 1.39439 -0.99, 1.53964 " /><path id= "53" d=" M 0.99 1.89422 L 0.99 1.53964 " />
<path d="M0.99, 1.53964 C0.573499, 1.39439 0.273325, 1.29292 1.32394e-13, 1.205 " /><path d="M2.09493, 2.74113 C1.63144, 2.231 1.30361, 1.87053 1.04849, 1.5905 " /><path d="M1.04849, 1.5905 L0.99, 1.53964 " /><path d="M1.5905, 1.04849 C1.87053, 1.30361 2.231, 1.63144 2.74113, 2.09493 " /><path d="M1.5905 1.04849 A1.905 1.905 0 0 1 1.04849 1.5905" /><path id= "59" d=" M 1.89422 0.99 L 1.53964 0.99 " />
<path d="M1.53964, 0.99 L1.5905, 1.04849 " /><path d="M1.205, 1.32117e-13 C1.29292, 0.273325 1.39439, 0.573499 1.53964, 0.99 " /></g>

</svg>
