<svg xmlns="http://www.w3.org/2000/svg" viewBox="-7.6470944 -9.8617344 14.9332788 18.4987288">
<rect width="100%" height="100%" fill="white"/>
<g   fill="none"
   stroke="rgb(0, 0, 0)"
   stroke-linecap="butt"
   stroke-linejoin="miter"
   stroke-width="0.35"
   transform="scale(1, -1)"
  >
<path id= "1" d=" M -6.37132 -6.13647 L -4.25 -7.36122 " />
<path id= "2" d=" M 2.12868 8.58596 L 4.25 7.36122 " />
</g>
<g   fill="none"
   stroke="rgb(0, 0, 0)"
   stroke-linecap="butt"
   stroke-linejoin="miter"
   stroke-width="0.35"
   transform="scale(1, -1)"
  >
<path d="M0.141421 2.53114 A3.2 1.84752 60 0 1 -0.52132 3.99603" />
<path d="M-0.52132 3.99603 A3.2 1.84752 60 0 1 -3.72132 -1.54654" />
<path d="M-3.72132 -1.54654 A3.2 1.84752 60 0 1 0.141421 2.53114" />
<path d="M3.88909 4.69486 A8.5 4.90748 60 0 1 2.12868 8.58596" />
<path d="M2.12868 8.58596 A8.5 4.90748 60 0 1 -6.37132 -6.13647" />
<path d="M-6.37132 -6.13647 A8.5 4.90748 60 0 1 3.88909 4.69486" />
<path d="M6.01041 3.47011 A8.5 4.90748 60 0 1 4.25 7.36122" />
<path d="M-4.25 -7.36122 A8.5 4.90748 60 0 1 6.01041 3.47011" />
<path d="M0.137255 2.68722 A3.2 1.84752 60 0 1 -2.25858 -1.46248" />
</g>

</svg>
