<svg xmlns="http://www.w3.org/2000/svg" viewBox="-9.318154 -8.633253999999999 15.156037999999999 14.272658">
<rect width="100%" height="100%" fill="white"/>
<g   fill="none"
   stroke="rgb(0, 0, 0)"
   stroke-linecap="butt"
   stroke-linejoin="miter"
   stroke-width="0.35"
   transform="scale(1, -1)"
  >
<path d="M4.79264, 2.89856 C4.79649, 1.40876 4.28284, -0.332071 3.3965, -1.88183  C2.50084, -3.46052 1.23394, -4.81581 -0.0790367, -5.57956  C-0.8617, -6.03807 -1.66103, -6.2936 -2.40916, -6.30439  C-2.96313, -6.31328 -3.48904, -6.18513 -3.94068, -5.92322  C-4.39168, -5.66307 -4.76431, -5.27255 -5.03289, -4.78971  C-5.2804, -4.34617 -5.44254, -3.82554 -5.51888, -3.25318 " /><path d="M0.0578946, 6.40608 C0.600166, 6.62962 1.1405, 6.7498 1.6556, 6.75374  C2.20702, 6.75872 2.72997, 6.62727 3.1785, 6.36318  C3.48099, 6.18484 3.74422, 5.9538 3.96819, 5.67008  C4.51772, 4.97531 4.79367, 4.00192 4.79264, 2.89856 " /><path id= "3" d=" M -8.27291 0.578441 L -8.12853 -0.327133 " />
<path id= "4" d=" M -4.6374 6.87533 L -4.04075 7.10366 " />
</g>
<g   fill="none"
   stroke="rgb(0, 0, 0)"
   stroke-linecap="butt"
   stroke-linejoin="miter"
   stroke-width="0.35"
   transform="scale(1, -1)"
  >
<path d="M2.9275, 3.02385 L2.68498, 2.66795  L2.46178, 2.31767  L2.25652, 1.97087  L2.06794, 1.6254  L1.89487, 1.27913  L1.73625, 0.929942  L1.5911, 0.575673  L1.45852, 0.214144  L1.3377, -0.156874  L1.2279, -0.539666  L1.12844, -0.936591  L1.03871, -1.35009  L0.958143, -1.78272  L0.886256, -2.23714 " /><path d="M0.886256, -2.23714 L0.486539, -2.3694  L0.111457, -2.50361  L-0.241301, -2.64057  L-0.573907, -2.78115  L-0.888412, -2.9262  L-1.18675, -3.07662  L-1.47077, -3.23334  L-1.7422, -3.39731  L-2.00274, -3.56956  L-2.25397, -3.75114  L-2.49746, -3.94317  L-2.73469, -4.14683  L-2.96714, -4.36339  L-3.19623, -4.59416 " /><path d="M0.886256, 5.92783 L0.958143, 5.75344  L1.03871, 5.57854  L1.12844, 5.40205  L1.2279, 5.22288  L1.3377, 5.03994  L1.45852, 4.85208  L1.5911, 4.65816  L1.73625, 4.45697  L1.89487, 4.24729  L2.06794, 4.02781  L2.25652, 3.79719  L2.46178, 3.554  L2.68498, 3.29675  L2.9275, 3.02385 " /><path id= "4" d=" M 0.886256 5.92783 L -1.98927 7.58801 " />
<path id= "5" d=" M 2.9275 3.02385 L 0.0519743 4.68404 " />
<path d="M-1.98927, 7.58801 L-2.01231, 7.46843  L-2.0111, 7.33934  L-1.98563, 7.19996  L-1.93575, 7.04942  L-1.86115, 6.88679  L-1.76136, 6.71108  L-1.63578, 6.5212  L-1.48364, 6.31597  L-1.30398, 6.09414  L-1.09571, 5.85435  L-0.857549, 5.5951  L-0.588021, 5.31481  L-0.285468, 5.01174  L0.0519743, 4.68404 " /><path d="M-4.04075, 7.10366 C-3.4915, 7.31317 -2.82389, 7.47079 -1.98927, 7.58801 " /><path id= "8" d=" M -3.19623 -4.59416 L -6.07175 -2.93398 " />
<path d="M-6.07175, -2.93398 L-6.35489, -2.65966  L-6.61367, -2.4026  L-6.84919, -2.16172  L-7.06246, -1.93598  L-7.25439, -1.72443  L-7.42578, -1.52616  L-7.57738, -1.34033  L-7.70983, -1.16614  L-7.8237, -1.00286  L-7.91946, -0.849789  L-7.99753, -0.706273  L-8.05823, -0.571701  L-8.10184, -0.4455  L-8.12853, -0.327133 " /><path id= "10" d=" M 0.886256 -2.23714 L -1.98927 -0.576956 " />
<path d="M-1.98927, -0.576956 L-2.48391, -0.654415  L-2.93835, -0.742803  L-3.35537, -0.842664  L-3.73756, -0.954615  L-4.08726, -1.07934  L-4.40664, -1.21762  L-4.69765, -1.3703  L-4.96209, -1.53831  L-5.20159, -1.7227  L-5.41763, -1.9246  L-5.61153, -2.14526  L-5.7845, -2.38603  L-5.93759, -2.6484  L-6.07175, -2.93398 " /><path d="M0.0519743, 4.68404 L-0.285468, 4.38294  L-0.588021, 4.07847  L-0.857549, 3.76878  L-1.09571, 3.45193  L-1.30398, 3.12599  L-1.48364, 2.78894  L-1.63578, 2.43871  L-1.76136, 2.07314  L-1.86115, 1.68998  L-1.93575, 1.28687  L-1.98563, 0.861319  L-2.0111, 0.410711  L-2.01231, -0.0677316  L-1.98927, -0.576956 " /><path d="M-2.00694 4.80171 A4.46175 2.57599 60 0 1 -4.6374 6.87533" />
<path d="M-4.6374 6.87533 A4.46175 2.57599 60 0 1 -8.27291 0.578441" />
<path d="M-8.27291 0.578441 A4.46175 2.57599 60 0 1 -2.00694 4.80171" />
<g transform = "rotate(60, -5.16188, 2.98021)">
<ellipse cx ="-5.16188" cy ="2.98021" rx ="3.15"  ry ="1.81865"/>
</g>
<path d="M-3.29588 3.77783 A2.45873 1.41955 60 0 1 -3.29232 3.90837" />
<path d="M-3.29232 3.90837 A2.45873 1.41955 60 0 1 -3.80154 5.03392" />
<path d="M-3.80154 5.03392 A2.45873 1.41955 60 0 1 -4.91944 4.97237" />
<path d="M-5.82298, 0.24922 C-6.29284, 0.195148 -6.68215, 0.398858 -6.88553, 0.810267  C-7.07802, 1.19055 -7.10641, 1.74763 -6.95898, 2.34569  C-6.82285, 2.90811 -6.53169, 3.50144 -6.15037, 3.9843  C-5.78602, 4.4491 -5.34171, 4.80748 -4.91944, 4.97237 " /><path d="M-4.20246, 1.30033 Q-4.21511, 1.28382 -4.23209, 1.26302 " /><path d="M-4.23209, 1.26302 C-4.24819, 1.24329 -4.26641, 1.22176 -4.28677, 1.19841  C-4.40987, 1.05681 -4.58247, 0.887472 -4.7595, 0.74828  C-4.88137, 0.651802 -5.00538, 0.567467 -5.13152, 0.495277  C-5.37708, 0.35397 -5.62506, 0.270142 -5.82298, 0.24922 " /><path d="M-3.29588, 3.77783 C-3.26798, 3.45231 -3.32842, 3.05594 -3.46935, 2.64674  C-3.62627, 2.18834 -3.88333, 1.71566 -4.20246, 1.30033 " /><path d="M-3.48403, 4.7141 C-3.86671, 4.73594 -4.31419, 4.57018 -4.73189, 4.25738  C-5.10813, 3.97769 -5.45811, 3.58182 -5.72173, 3.14506  C-6.03644, 2.62732 -6.22527, 2.05599 -6.24739, 1.58003  C-6.27076, 1.13023 -6.14699, 0.769102 -5.91008, 0.581989 " /><path d="M-3.54453, 4.80415 C-3.95398, 4.87002 -4.45492, 4.70259 -4.91851, 4.35206  C-5.30734, 4.06074 -5.66721, 3.64541 -5.93228, 3.19029  C-6.23487, 2.67455 -6.4117, 2.11186 -6.42565, 1.64595  C-6.44314, 1.16167 -6.2856, 0.787277 -6.00232, 0.626337 " /><path d="M-6.00232, 0.626337 C-5.78123, 0.497676 -5.48574, 0.499237 -5.16935, 0.632918  C-4.86359, 0.76077 -4.53975, 1.01144 -4.25241, 1.34729  C-3.96109, 1.68633 -3.70854, 2.11135 -3.53913, 2.55562  C-3.38128, 2.96734 -3.29523, 3.39412 -3.29588, 3.77783 " /><path d="M-3.76334, 5.01045 C-4.0801, 5.17453 -4.49433, 5.15961 -4.91944, 4.97237 " /><path d="M-3.29769, 3.6779 C-3.76795, 3.38493 -4.21566, 2.89958 -4.52747, 2.35763  C-4.85121, 1.80077 -5.02655, 1.19162 -5.01191, 0.708792 " /><path d="M-3.31594, 3.44218 C-3.69305, 3.16226 -4.04389, 2.76554 -4.30797, 2.32781  C-4.60983, 1.83073 -4.79624, 1.28424 -4.82965, 0.820357 " /><path d="M-3.31645, 4.22778 C-3.93178, 4.0341 -4.58977, 3.44677 -5.01485, 2.73643  C-5.32916, 2.21921 -5.51787, 1.64856 -5.54023, 1.17295  C-5.55173, 0.933096 -5.5248, 0.724124 -5.45944, 0.546028 " /><path d="M-3.34561, 4.37082 C-3.62851, 4.30585 -3.92737, 4.1577 -4.21184, 3.94349  C-4.60326, 3.65014 -4.96527, 3.23109 -5.23079, 2.7724  C-5.53214, 2.25567 -5.70705, 1.69287 -5.71885, 1.22795  C-5.72676, 0.95494 -5.68038, 0.715536 -5.58531, 0.532126 " /></g>

</svg>
