<svg xmlns="http://www.w3.org/2000/svg" viewBox="-8.392 -7.917 9.484 15.834">
<rect width="100%" height="100%" fill="white"/>
<g   fill="none"
   stroke="rgb(0, 0, 0)"
   stroke-linecap="butt"
   stroke-linejoin="miter"
   stroke-width="0.35"
   transform="scale(1, -1)"
  >
<path d="M-1.02631, -6.825 C-0.923372, -7.00809 -0.708608, -7.1193 -0.499674, -7.09769  C-0.396899, -7.08771 -0.303981, -7.05204 -0.220921, -6.99069  C-0.0833615, -6.88936 0.00111436, -6.72085 0, -6.55 " /><path id= "2" d=" M -1.6334 -5.7735 L -1.02631 -6.825 " />
<path id= "3" d=" M -7.3 -4.46175 L -5.7 -5.7735 " />
</g>
<g   fill="none"
   stroke="rgb(0, 0, 0)"
   stroke-linecap="butt"
   stroke-linejoin="miter"
   stroke-width="0.35"
   transform="scale(1, -1)"
  >
<path d="M-5.55112e-17, -6.55 L-5.55112e-17, -6.38578  L-5.55112e-17, -5.90135  L-5.55112e-17, -5.121  L-5.55112e-17, -4.08386  L-5.55112e-17, -2.84194  L-5.55112e-17, -1.45751  L-5.55112e-17, -1.11022e-15  L-5.55112e-17, 1.45751  L-5.55112e-17, 2.84194  L-5.55112e-17, 4.08386  L-5.55112e-17, 5.121  L-5.55112e-17, 5.90135  L-5.55112e-17, 6.38578  L-5.55112e-17, 6.55 " /><path d="M0 6.55 A0.55 0.55 0 0 1 -1.02631 6.825" /><path id= "3" d=" M -1.02631 6.825 L -1.6334 5.7735 " />
<path d="M-1.6334, 5.7735 L-1.75405, 5.55119  L-1.85491, 5.33639  L-1.9366, 5.1278  L-1.99961, 4.92412  L-2.04435, 4.7241  L-2.07109, 4.52651  L-2.07998, 4.33013  L-2.07109, 4.13374  L-2.04435, 3.93615  L-1.99961, 3.73613  L-1.9366, 3.53245  L-1.85491, 3.32386  L-1.75405, 3.10907  L-1.6334, 2.88675 " /><path d="M-1.6334, 2.88675 L-1.75405, 2.44212  L-1.85491, 2.01253  L-1.9366, 1.59535  L-1.99961, 1.18799  L-2.04435, 0.787949  L-2.07109, 0.392764  L-2.07998, -1.11022e-16  L-2.07109, -0.392764  L-2.04435, -0.787949  L-1.99961, -1.18799  L-1.9366, -1.59535  L-1.85491, -2.01253  L-1.75405, -2.44212  L-1.6334, -2.88675 " /><path d="M-1.6334, -2.88675 L-1.75405, -3.10907  L-1.85491, -3.32386  L-1.9366, -3.53245  L-1.99961, -3.73613  L-2.04435, -3.93615  L-2.07109, -4.13374  L-2.07998, -4.33013  L-2.07109, -4.52651  L-2.04435, -4.7241  L-1.99961, -4.92412  L-1.9366, -5.1278  L-1.85491, -5.33639  L-1.75405, -5.55119  L-1.6334, -5.7735 " /><path id= "7" d=" M -1.6334 5.7735 L -5.7 5.7735 " />
<path id= "8" d=" M -1.6334 -5.7735 L -5.7 -5.7735 " />
<path id= "9" d=" M -1.6334 -2.88675 L -5.7 -2.88675 " />
<path d="M-5.7, -2.88675 L-5.9549, -3.10907  L-6.16798, -3.32386  L-6.34056, -3.53245  L-6.47369, -3.73613  L-6.56821, -3.93615  L-6.62469, -4.13374  L-6.64347, -4.33013  L-6.62469, -4.52651  L-6.56821, -4.7241  L-6.47369, -4.92412  L-6.34056, -5.1278  L-6.16798, -5.33639  L-5.9549, -5.55119  L-5.7, -5.7735 " /><path id= "11" d=" M -1.6334 2.88675 L -5.7 2.88675 " />
<path d="M-5.7, 2.88675 L-5.9549, 2.44212  L-6.16798, 2.01253  L-6.34056, 1.59535  L-6.47369, 1.18799  L-6.56821, 0.787949  L-6.62469, 0.392764  L-6.64347, -1.22125e-15  L-6.62469, -0.392764  L-6.56821, -0.787949  L-6.47369, -1.18799  L-6.34056, -1.59535  L-6.16798, -2.01253  L-5.9549, -2.44212  L-5.7, -2.88675 " /><path d="M-5.7, 5.7735 L-5.9549, 5.55119  L-6.16798, 5.33639  L-6.34056, 5.1278  L-6.47369, 4.92412  L-6.56821, 4.7241  L-6.62469, 4.52651  L-6.64347, 4.33013  L-6.62469, 4.13374  L-6.56821, 3.93615  L-6.47369, 3.73613  L-6.34056, 3.53245  L-6.16798, 3.32386  L-5.9549, 3.10907  L-5.7, 2.88675 " /><path id= "14" d=" M -5.7 5.7735 L -7.3 4.46175 " />
<path d="M-7.3, -4.46175 L-7.3, -4.34989  L-7.3, -4.0199  L-7.3, -3.48834  L-7.3, -2.78186  L-7.3, -1.93588  L-7.3, -0.992833  L-7.3, -7.77156e-16  L-7.3, 0.992833  L-7.3, 1.93588  L-7.3, 2.78186  L-7.3, 3.48834  L-7.3, 4.0199  L-7.3, 4.34989  L-7.3, 4.46175 " /></g>

</svg>
