<svg xmlns="http://www.w3.org/2000/svg" viewBox="-6.803380000000001 -6.02988 14.93326 12.05976">
<rect width="100%" height="100%" fill="white"/>
<g   fill="none"
   stroke="rgb(0, 0, 0)"
   stroke-linecap="butt"
   stroke-linejoin="miter"
   stroke-width="0.35"
   transform="scale(1, -1)"
  >
<path d="M7.1, 0 C7.10072, -1.00367 6.88461, -2.00731 6.47097, -2.92176  C6.05858, -3.83676 5.44865, -4.66258 4.69531, -5.32579  C3.97073, -5.96541 3.11339, -6.4544 2.19402, -6.75251  C1.27502, -7.05173 0.293993, -7.16006 -0.668169, -7.06849  C-1.63045, -6.97814 -2.5738, -6.68791 -3.42045, -6.22178  C-4.26768, -5.75669 -5.01821, -5.11571 -5.6101, -4.35164  C-6.27157, -3.50044 -6.73479, -2.49554 -6.95249, -1.43979  C-7.17198, -0.384414 -7.14596, 0.721805 -6.87694, 1.7657  C-6.60978, 2.81007 -6.09966, 3.79199 -5.39889, 4.61109  C-4.6995, 5.43136 -3.80947, 6.08881 -2.81975, 6.51606  C-1.83079, 6.94506 -0.742263, 7.14382 0.334456, 7.09213  C1.41126, 7.04226 2.47626, 6.74195 3.42045, 6.22178  C4.5288, 5.61457 5.46951, 4.70278 6.11129, 3.61421  C6.75603, 2.52738 7.10185, 1.26378 7.1, 0 " /><path d="M0.357842, -3.01493 L0.38385, -3.01173 " /></g>
<g   fill="none"
   stroke="rgb(0, 0, 0)"
   stroke-linecap="butt"
   stroke-linejoin="miter"
   stroke-width="0.35"
   transform="scale(1, -1)"
  >
<path d="M5.7735, -1.54543e-13 C5.6994, -0.128354 5.62529, -0.256709 5.55119, -0.385063  C5.47959, -0.509074 5.40799, -0.633085 5.33639, -0.757096  C5.26686, -0.877527 5.19733, -0.997959 5.1278, -1.11839  C4.99133, -1.35476 4.85676, -1.58784 4.7241, -1.81762  C4.59215, -2.04617 4.46082, -2.27363 4.33013, -2.5  C4.13407, -2.83958 3.93713, -3.1807 3.73613, -3.52883  C3.66824, -3.64642 3.60035, -3.76402 3.53245, -3.88161  C3.46292, -4.00204 3.39339, -4.12247 3.32386, -4.2429  C3.25226, -4.36692 3.18067, -4.49093 3.10907, -4.61494  C3.03496, -4.74329 2.96086, -4.87165 2.88675, -5 " /><path d="M2.88675, -5 C2.73854, -5 2.59033, -5 2.44212, -5  C2.29892, -5 2.15573, -5 2.01253, -5  C1.87347, -5 1.73441, -5 1.59535, -5  C1.32241, -5 1.05327, -5 0.787949, -5  C0.52404, -5 0.261391, -5 -1.11022e-16, -5  C-0.392109, -5 -0.785999, -5 -1.18799, -5  C-1.32377, -5 -1.45956, -5 -1.59535, -5  C-1.73441, -5 -1.87347, -5 -2.01253, -5  C-2.15573, -5 -2.29892, -5 -2.44212, -5  C-2.59033, -5 -2.73854, -5 -2.88675, -5 " /><path d="M-2.88675, -5 C-2.96086, -4.87165 -3.03496, -4.74329 -3.10907, -4.61494  C-3.18067, -4.49093 -3.25226, -4.36692 -3.32386, -4.2429  C-3.39339, -4.12247 -3.46292, -4.00204 -3.53245, -3.88161  C-3.66892, -3.64524 -3.80349, -3.41216 -3.93615, -3.18238  C-4.06811, -2.95383 -4.19943, -2.72637 -4.33013, -2.5  C-4.52618, -2.16042 -4.72313, -1.8193 -4.92412, -1.47117  C-4.99201, -1.35358 -5.05991, -1.23598 -5.1278, -1.11839  C-5.19733, -0.997959 -5.26686, -0.877527 -5.33639, -0.757096  C-5.40799, -0.633085 -5.47959, -0.509074 -5.55119, -0.385063  C-5.62529, -0.256709 -5.6994, -0.128354 -5.7735, -1.53211e-13 " /><path d="M-5.7735, 1.54543e-13 C-5.6994, 0.128354 -5.62529, 0.256709 -5.55119, 0.385063  C-5.47959, 0.509074 -5.40799, 0.633085 -5.33639, 0.757096  C-5.26686, 0.877527 -5.19733, 0.997959 -5.1278, 1.11839  C-4.99133, 1.35476 -4.85676, 1.58784 -4.7241, 1.81762  C-4.59215, 2.04617 -4.46082, 2.27363 -4.33013, 2.5  C-4.13407, 2.83958 -3.93713, 3.1807 -3.73613, 3.52883  C-3.66824, 3.64642 -3.60035, 3.76402 -3.53245, 3.88161  C-3.46292, 4.00204 -3.39339, 4.12247 -3.32386, 4.2429  C-3.25226, 4.36692 -3.18067, 4.49093 -3.10907, 4.61494  C-3.03496, 4.74329 -2.96086, 4.87165 -2.88675, 5 " /><path d="M-2.88675, 5 C-2.73854, 5 -2.59033, 5 -2.44212, 5  C-2.29892, 5 -2.15573, 5 -2.01253, 5  C-1.87347, 5 -1.73441, 5 -1.59535, 5  C-1.32241, 5 -1.05327, 5 -0.787949, 5  C-0.52404, 5 -0.261391, 5 -1.11022e-16, 5  C0.392109, 5 0.785999, 5 1.18799, 5  C1.32377, 5 1.45956, 5 1.59535, 5  C1.73441, 5 1.87347, 5 2.01253, 5  C2.15573, 5 2.29892, 5 2.44212, 5  C2.59033, 5 2.73854, 5 2.88675, 5 " /><path d="M2.88675, 5 C2.96086, 4.87165 3.03496, 4.74329 3.10907, 4.61494  C3.18067, 4.49093 3.25226, 4.36692 3.32386, 4.2429  C3.39339, 4.12247 3.46292, 4.00204 3.53245, 3.88161  C3.66892, 3.64524 3.80349, 3.41216 3.93615, 3.18238  C4.06811, 2.95383 4.19943, 2.72637 4.33013, 2.5  C4.52618, 2.16042 4.72313, 1.8193 4.92412, 1.47117  C4.99201, 1.35358 5.05991, 1.23598 5.1278, 1.11839  C5.19733, 0.997959 5.26686, 0.877527 5.33639, 0.757096  C5.40799, 0.633085 5.47959, 0.509074 5.55119, 0.385063  C5.62529, 0.256709 5.6994, 0.128354 5.7735, 1.54099e-13 " /><path d="M2.88675, 5 C2.96086, 4.87165 3.03496, 4.74329 3.10907, 4.61494  C3.18067, 4.49093 3.25226, 4.36692 3.32386, 4.2429  C3.39339, 4.12247 3.46292, 4.00204 3.53245, 3.88161  C3.66892, 3.64524 3.80349, 3.41216 3.93615, 3.18238  C4.06811, 2.95383 4.19943, 2.72637 4.33013, 2.5  C4.52618, 2.16042 4.72313, 1.8193 4.92412, 1.47117  C4.99201, 1.35358 5.05991, 1.23598 5.1278, 1.11839  C5.19733, 0.997959 5.26686, 0.877527 5.33639, 0.757096  C5.40799, 0.633085 5.47959, 0.509074 5.55119, 0.385063  C5.62529, 0.256709 5.6994, 0.128354 5.7735, 2.64233e-13 " /><path d="M-2.88675, 5 C-2.73854, 5 -2.59033, 5 -2.44212, 5  C-2.29892, 5 -2.15573, 5 -2.01253, 5  C-1.87347, 5 -1.73441, 5 -1.59535, 5  C-1.32241, 5 -1.05327, 5 -0.787949, 5  C-0.52404, 5 -0.261391, 5 0, 5  C0.392109, 5 0.785999, 5 1.18799, 5  C1.32377, 5 1.45956, 5 1.59535, 5  C1.73441, 5 1.87347, 5 2.01253, 5  C2.15573, 5 2.29892, 5 2.44212, 5  C2.59033, 5 2.73854, 5 2.88675, 5 " /><path d="M-5.7735, 2.20723e-13 C-5.6994, 0.128354 -5.62529, 0.256709 -5.55119, 0.385063  C-5.47959, 0.509074 -5.40799, 0.633085 -5.33639, 0.757096  C-5.26686, 0.877527 -5.19733, 0.997959 -5.1278, 1.11839  C-5.05991, 1.23598 -4.99201, 1.35358 -4.92412, 1.47117  C-4.72313, 1.8193 -4.52618, 2.16042 -4.33013, 2.5  C-4.19943, 2.72637 -4.06811, 2.95383 -3.93615, 3.18238  C-3.80349, 3.41216 -3.66892, 3.64524 -3.53245, 3.88161  C-3.46292, 4.00204 -3.39339, 4.12247 -3.32386, 4.2429  C-3.25226, 4.36692 -3.18067, 4.49093 -3.10907, 4.61494  C-3.03496, 4.74329 -2.96086, 4.87165 -2.88675, 5 " /><path d="M-2.88675, -5 C-2.96086, -4.87165 -3.03496, -4.74329 -3.10907, -4.61494  C-3.18067, -4.49093 -3.25226, -4.36692 -3.32386, -4.2429  C-3.39339, -4.12247 -3.46292, -4.00204 -3.53245, -3.88161  C-3.60035, -3.76402 -3.66824, -3.64642 -3.73613, -3.52883  C-3.93713, -3.1807 -4.13407, -2.83958 -4.33013, -2.5  C-4.46082, -2.27363 -4.59215, -2.04617 -4.7241, -1.81762  C-4.85676, -1.58784 -4.99133, -1.35476 -5.1278, -1.11839  C-5.19733, -0.997959 -5.26686, -0.877527 -5.33639, -0.757096  C-5.40799, -0.633085 -5.47959, -0.509074 -5.55119, -0.385063  C-5.62529, -0.256709 -5.6994, -0.128354 -5.7735, -3.06422e-13 " /><path d="M2.88675, -5 C2.73854, -5 2.59033, -5 2.44212, -5  C2.29892, -5 2.15573, -5 2.01253, -5  C1.87347, -5 1.73441, -5 1.59535, -5  C1.32241, -5 1.05327, -5 0.787949, -5  C0.52404, -5 0.261391, -5 -1.11022e-15, -5  C-0.392109, -5 -0.785999, -5 -1.18799, -5  C-1.32377, -5 -1.45956, -5 -1.59535, -5  C-1.73441, -5 -1.87347, -5 -2.01253, -5  C-2.15573, -5 -2.29892, -5 -2.44212, -5  C-2.59033, -5 -2.73854, -5 -2.88675, -5 " /><path d="M5.7735, -2.64233e-13 C5.6994, -0.128354 5.62529, -0.256709 5.55119, -0.385063  C5.47959, -0.509074 5.40799, -0.633085 5.33639, -0.757096  C5.26686, -0.877527 5.19733, -0.997959 5.1278, -1.11839  C4.99133, -1.35476 4.85676, -1.58784 4.7241, -1.81762  C4.59215, -2.04617 4.46082, -2.27363 4.33013, -2.5  C4.13407, -2.83958 3.93713, -3.1807 3.73613, -3.52883  C3.66824, -3.64642 3.60035, -3.76402 3.53245, -3.88161  C3.46292, -4.00204 3.39339, -4.12247 3.32386, -4.2429  C3.25226, -4.36692 3.18067, -4.49093 3.10907, -4.61494  C3.03496, -4.74329 2.96086, -4.87165 2.88675, -5 " /><path d="M2.23352, 1.028 C2.03043, 1.47136 1.69158, 1.85097 1.27404, 2.1029  C0.737848, 2.43052 0.0735765, 2.53898 -0.538976, 2.39893  C-1.06483, 2.28212 -1.54848, 1.98599 -1.8916, 1.57074  C-2.27135, 1.11636 -2.47665, 0.521034 -2.45771, -0.070834  C-2.44232, -0.675823 -2.19248, -1.27071 -1.77128, -1.70527  C-1.4235, -2.06794 -0.961715, -2.31902 -0.468244, -2.41374  C0.282519, -2.5645 1.09616, -2.33558 1.65816, -1.81546 " /><path d="M2.45873, -0.00015989 L2.45873, 1.10064e-07 " /><circle cx ="0" cy ="0" r ="4.46175" /><circle cx ="0" cy ="0" r ="3.15" /><path d="M2.45369 -0.157357 A2.45873 2.45873 0 0 1 2.45873 -6.02216e-16" /><path d="M2.45873 0 A2.45873 2.45873 0 0 1 0.157634 2.45368" /><path d="M-0.975126, -2.83711 C-1.65187, -2.55883 -2.21495, -2.02155 -2.51532, -1.36112  C-2.79945, -0.747356 -2.8517, -0.0328801 -2.65557, 0.607707  C-2.4747, 1.2119 -2.0748, 1.74457 -1.54763, 2.07842  C-1.04398, 2.40166 -0.427467, 2.53824 0.157634, 2.45368 " /><path d="M1.31664, -2.69566 C1.28843, -2.71595 1.24997, -2.73897 1.20127, -2.76472  C0.991816, -2.87574 0.68229, -2.97687 0.370708, -3.01338 " /><path d="M0.370708, -3.01338 C-0.0895864, -3.07348 -0.590426, -2.99979 -0.975126, -2.83711 " /><path d="M2.45369, -0.157357 C2.5177, -0.600307 2.45584, -1.06664 2.27938, -1.491  C2.08304, -1.96704 1.74412, -2.38881 1.31664, -2.69566 " /><path d="M0.157634, 2.45368 C-0.606623, 2.50783 -1.38507, 2.1769 -1.87637, 1.58891  C-2.2655, 1.13242 -2.47679, 0.529526 -2.45774, -0.0700096  C-2.44258, -0.672768 -2.19478, -1.26562 -1.77647, -1.69986  C-1.42754, -2.06599 -0.962734, -2.31934 -0.465937, -2.41418  C-0.00301654, -2.50431 0.485479, -2.45681 0.922358, -2.27917  C1.36524, -2.10082 1.7533, -1.78977 2.02377, -1.39633  C2.27565, -1.03233 2.42597, -0.599125 2.45369, -0.157357 " /><path d="M2.45873, 5.48038e-07 C2.46317, 0.740311 2.10937, 1.47168 1.52618, 1.92773 " /><path d="M1.2827, 2.09763 Q1.20148, 2.1473 1.11666, 2.19054 " /><path d="M1.10216, 2.19786 C0.597764, 2.45256 0.00425251, 2.52436 -0.546352, 2.39726  C-1.06776, 2.27973 -1.54714, 1.98586 -1.88845, 1.57453  C-2.27258, 1.11685 -2.47921, 0.515254 -2.45737, -0.081868  C-2.43954, -0.673439 -2.19794, -1.25456 -1.79112, -1.68441  C-1.4414, -2.05785 -0.972052, -2.31678 -0.469645, -2.41346  C-0.0598618, -2.49369 0.37022, -2.46679 0.766811, -2.3361 " /><path d="M0.96349, -2.26209 C1.38994, -2.08124 1.7627, -1.77662 2.02487, -1.39473  C2.27609, -1.03107 2.42601, -0.598479 2.45369, -0.157357 " /><path d="M0.157634, 2.45368 C-0.610393, 2.50817 -1.39262, 2.17352 -1.88359, 1.58034  C-2.27094, 1.12175 -2.47948, 0.517323 -2.45735, -0.0825603  C-2.43934, -0.674348 -2.1974, -1.25561 -1.79019, -1.6854  C-1.44247, -2.05626 -0.976728, -2.31407 -0.477841, -2.41185  C-0.00878083, -2.50562 0.487268, -2.4578 0.929777, -2.27616  C1.36884, -2.09766 1.7535, -1.78861 2.02239, -1.39832  C2.27509, -1.03391 2.42592, -0.59993 2.45369, -0.157357 " /></g>

</svg>
