<svg xmlns="http://www.w3.org/2000/svg" viewBox="-8.4220328 -8.4220328 16.9370556 16.8440656">
<rect width="100%" height="100%" fill="white"/>
<g   fill="none"
   stroke="rgb(0, 0, 0)"
   stroke-linecap="butt"
   stroke-linejoin="miter"
   stroke-width="0.35"
   transform="scale(1, -1)"
  >
<path d="M7.34695, 0 C7.34749, -0.961667 7.15619, -1.92331 6.7877, -2.81156  C6.42017, -3.7002 5.87546, -4.51546 5.19508, -5.19508  C4.15346, -6.24752 2.73965, -6.98521 1.2582, -7.2383  C-0.224691, -7.4993 -1.77568, -7.287 -3.12814, -6.64763  C-4.48287, -6.01309 -5.63509, -4.95336 -6.37921, -3.6444  C-7.12851, -2.3416 -7.46131, -0.782023 -7.31434, 0.691409  C-7.21734, 1.72545 -6.89697, 2.73834 -6.3818, 3.64011  C-5.86785, 4.54259 -5.1591, 5.33394 -4.31843, 5.94381  C-3.41656, 6.60028 -2.36216, 7.04671 -1.26316, 7.23756  C-0.164476, 7.43026 0.97881, 7.3674 2.04973, 7.05523  C3.52915, 6.62883 4.86415, 5.72154 5.80524, 4.50301  C6.7993, 3.22788 7.35091, 1.61681 7.34695, 0 " /></g>
<g   fill="none"
   stroke="rgb(0, 0, 0)"
   stroke-linecap="butt"
   stroke-linejoin="miter"
   stroke-width="0.35"
   transform="scale(1, -1)"
  >
<circle cx ="0" cy ="0" r ="7.25396" /></g>

</svg>
