<svg xmlns="http://www.w3.org/2000/svg" viewBox="-7.4995684 -1.9978444 33.383906800000005 18.0956828">
<rect width="100%" height="100%" fill="white"/>
<g   fill="none"
   stroke="rgb(0, 0, 0)"
   stroke-linecap="butt"
   stroke-linejoin="miter"
   stroke-width="0.35"
   transform="scale(1, -1)"
  >
<path id= "1" d=" M -4.94975 -3.15098 L -4.91793 -3.16935 " />
<path id= "2" d=" M 23.3345 -13.7654 L 23.3027 -13.7838 " />
</g>
<g   fill="none"
   stroke="rgb(0, 0, 0)"
   stroke-linecap="butt"
   stroke-linejoin="miter"
   stroke-width="0.35"
   transform="scale(1, -1)"
  >
<path id= "1" d=" M -4.91793 -3.16935 L -1.06066 -0.942356 " />
<path d="M-5.02418, -3.09513 Q-4.98011, -3.13346 -4.91793, -3.16935 " /><path id= "3" d=" M -5.02418 -3.09513 L -5.12281 -2.97243 " />
<path d="M-5.16542, -2.86147 Q-5.14877, -2.92365 -5.12281, -2.97243 " /><path id= "5" d=" M -5.16542 -2.86147 L -1.30815 -0.634477 " />
<path id= "6" d=" M -4.67044 -3.14725 L -0.813173 -0.920251 " />
<path d="M-4.77669, -3.17226 Q-4.73262, -3.16391 -4.67044, -3.14725 " /><path id= "8" d=" M -4.77669 -3.17226 L -4.87532 -3.18107 " />
<path d="M-4.91793, -3.16935 Q-4.90128, -3.17897 -4.87532, -3.18107 " /><path d="M-1.06066 -0.942356 A1.5 0.866025 3.11665e-15 0 0 1.06066 -0.942356" />
<path d="M-1.30815 -0.634477 A1.85 1.0681 3.11665e-15 0 0 1.30815 -0.634477" />
<path d="M-5.19723, -2.7806 Q-5.18818, -2.82207 -5.16542, -2.86147 " /><path id= "13" d=" M -5.19723 -2.7806 L -5.19723 -2.6491 " />
<path d="M-5.16542, -2.53149 Q-5.18818, -2.59718 -5.19723, -2.6491 " /><path id= "15" d=" M -5.16542 -2.53149 L -1.30815 -0.304494 " />
<path d="M-5.19723 -2.7806 A0.359145 0.207353 -60 0 1 -5.12281 -2.97243" />
<path d="M-5.02418 -3.09513 A0.359145 0.207353 -60 0 1 -4.94975 -3.15098" />
<path d="M-4.94975 -3.15098 A0.359145 0.207353 -60 0 1 -4.93764 -3.15763" />
<path d="M-0.813173 -0.920251 A1.15 0.663953 3.11665e-15 0 0 0.813173 -0.920251" />
<path d="M-1.30815 -0.304494 A1.85 1.0681 3.11665e-15 0 0 1.30815 -0.304494" />
<path id= "21" d=" M 1.06066 -0.942356 L 23.3027 -13.7838 " />
<path id= "22" d=" M 1.30815 -0.634477 L 23.5502 -13.4759 " />
<path d="M23.5076, -13.5869 Q23.5335, -13.5381 23.5502, -13.4759 " /><path id= "24" d=" M 23.409 -13.7096 L 23.5076 -13.5869 " />
<path d="M23.3027, -13.7838 Q23.3649, -13.7479 23.409, -13.7096 " /><path id= "26" d=" M 0.813173 -0.920251 L 23.0552 -13.7617 " />
<path d="M23.2601, -13.7955 Q23.2861, -13.7934 23.3027, -13.7838 " /><path id= "28" d=" M 23.1615 -13.7867 L 23.2601 -13.7955 " />
<path d="M23.0552, -13.7617 Q23.1174, -13.7784 23.1615, -13.7867 " /><path id= "30" d=" M 1.30815 -0.304494 L 23.5502 -13.1459 " />
<path d="M23.582, -13.2636 Q23.573, -13.2116 23.5502, -13.1459 " /><path id= "32" d=" M 23.582 -13.3951 L 23.582 -13.2636 " />
<path d="M23.5502, -13.4759 Q23.573, -13.4365 23.582, -13.3951 " /><path d="M23.3224 -13.7721 A0.359145 0.207353 60 0 1 23.3345 -13.7654" />
<path d="M23.3345 -13.7654 A0.359145 0.207353 60 0 1 23.409 -13.7096" />
<path d="M23.5076 -13.5869 A0.359145 0.207353 60 0 1 23.582 -13.3951" />
</g>

</svg>
