<svg xmlns="http://www.w3.org/2000/svg" viewBox="-3.0180000000000002 -3.0180000000000002 38.686 12.686">
<rect width="100%" height="100%" fill="white"/>
<g   fill="none"
   stroke="rgb(0, 0, 0)"
   stroke-linecap="butt"
   stroke-linejoin="miter"
   stroke-width="0.35"
   transform="scale(1, -1)"
  >
<path id= "1" d=" M -2.16333e-18 -6.955 L -2.64407e-16 -1.5 " />
<path d="M-0.105258, -7 Q-0.0557389, -6.9872 1.83187e-15, -6.955 " /><path id= "3" d=" M -0.105258 -7 L -0.244742 -7 " />
<path d="M-0.35, -6.955 Q-0.294261, -6.9872 -0.244742, -7 " /><path id= "5" d=" M -0.35 -6.955 L -0.35 -1.5 " />
<path id= "6" d=" M 0.35 -6.955 L 0.35 -1.5 " />
<path d="M0.244742, -7 Q0.294261, -6.9872 0.35, -6.955 " /><path id= "8" d=" M 0.244742 -7 L 0.105258 -7 " />
<path d="M-7.24421e-15, -6.955 Q0.0557389, -6.9872 0.105258, -7 " /><path d="M0 -1.5 A1.5 1.5 0 0 0 1.5 0" /><path d="M-0.35 -1.5 A1.85 1.85 0 0 0 1.5 0.35" /><path d="M-0.35, -7 Q-0.35, -6.9872 -0.35, -6.955 " /><path d="M-0.35, -7 Q-0.324538, -7 -0.244742, -7 " /><path d="M-0.105258, -7 L0.105258, -7 " /><path d="M0.244742, -7 Q0.324538, -7 0.35, -7 " /><path d="M0.35, -6.955 Q0.35, -6.9872 0.35, -7 " /><path d="M0.35 -1.5 A1.15 1.15 0 0 0 1.5 -0.35" /><path id= "18" d=" M 1.5 0 L 32.955 2.95672e-15 " />
<path id= "19" d=" M 1.5 0.35 L 32.955 0.35 " />
<path d="M33, 0.244742 Q32.9872, 0.294261 32.955, 0.35 " /><path id= "21" d=" M 33 0.105258 L 33 0.244742 " />
<path d="M32.955, 1.03356e-12 Q32.9872, 0.0557389 33, 0.105258 " /><path id= "23" d=" M 1.5 -0.35 L 32.955 -0.35 " />
<path d="M33, -0.105258 Q32.9872, -0.0557389 32.955, -1.03531e-12 " /><path id= "25" d=" M 33 -0.244742 L 33 -0.105258 " />
<path d="M32.955, -0.35 Q32.9872, -0.294261 33, -0.244742 " /><path d="M32.955, 0.35 Q32.9872, 0.35 33, 0.35 " /><path d="M33, -0.105258 L33, 0.105258 " /><path d="M33, 0.244742 Q33, 0.324538 33, 0.35 " /><path d="M33, -0.35 Q33, -0.324538 33, -0.244742 " /><path d="M33, -0.35 Q32.9872, -0.35 32.955, -0.35 " /></g>

</svg>
