<svg xmlns="http://www.w3.org/2000/svg" viewBox="-7.588 -0.9921449999999999 8.526 2.176">
<rect width="100%" height="100%" fill="white"/>
<g   fill="none"
   stroke="rgb(0, 0, 0)"
   stroke-linecap="butt"
   stroke-linejoin="miter"
   stroke-width="0.35"
   transform="scale(1, -1)"
  >
<path id= "1" d=" M -7 -0.359145 L -6.955 -0.404145 " />
<path id= "2" d=" M -7 0.359145 L -6.955 0.404145 " />
</g>
<g   fill="none"
   stroke="rgb(0, 0, 0)"
   stroke-linecap="butt"
   stroke-linejoin="miter"
   stroke-width="0.35"
   transform="scale(1, -1)"
  >
<path id= "1" d=" M -6.955 -0.404145 L -1.5 -0.404145 " />
<path d="M-7, -0.343374 Q-6.9872, -0.371964 -6.955, -0.404145 " /><path id= "3" d=" M -7 -0.343374 L -7 -0.262843 " />
<path d="M-6.955, -0.202073 Q-6.9872, -0.234253 -7, -0.262843 " /><path id= "5" d=" M -6.955 -0.202073 L -1.5 -0.202073 " />
<path d="M-1.5, -0.404145 Q-1.24586, -0.404145 -1.00458, -0.404145  Q-0.926878, -0.404145 -0.849174, -0.404145  Q-0.775563, -0.404145 -0.701952, -0.404145  Q-0.633359, -0.404145 -0.564765, -0.404145  Q-0.502053, -0.404145 -0.43934, -0.404145  Q-0.383296, -0.404145 -0.327253, -0.404145  Q-0.278583, -0.404145 -0.229914, -0.404145  Q-0.18923, -0.404145 -0.148547, -0.404145  Q-0.116361, -0.404145 -0.084175, -0.404145  Q-0.0608916, -0.404145 -0.0376081, -0.404145  Q-0.0235199, -0.404145 -0.00943169, -0.404145  Q-0.00471584, -0.404145 0, -0.404145 " /><path id= "7" d=" M 0 -0.404145 L 0.35 -0.202073 " />
<path d="M-1.5, -0.202073 C-1.29216, -0.202073 -1.08626, -0.202073 -0.888984, -0.202073  C-0.825094, -0.202073 -0.761205, -0.202073 -0.697315, -0.202073  C-0.63679, -0.202073 -0.576265, -0.202073 -0.515741, -0.202073  C-0.459342, -0.202073 -0.402943, -0.202073 -0.346544, -0.202073  C-0.29498, -0.202073 -0.243416, -0.202073 -0.191852, -0.202073  C-0.145772, -0.202073 -0.099692, -0.202073 -0.0536118, -0.202073  C-0.0135946, -0.202073 0.0264226, -0.202073 0.0664398, -0.202073  C0.0998906, -0.202073 0.133342, -0.202073 0.166792, -0.202073  C0.193256, -0.202073 0.21972, -0.202073 0.246184, -0.202073  C0.265328, -0.202073 0.284472, -0.202073 0.303617, -0.202073  C0.3152, -0.202073 0.326784, -0.202073 0.338368, -0.202073  C0.342245, -0.202073 0.346123, -0.202073 0.35, -0.202073 " /><path d="M-7, -0.0805312 Q-6.9872, -0.137711 -6.955, -0.202073 " /><path id= "10" d=" M -7 -0.0805312 L -7 0.0805312 " />
<path d="M-6.955, 0.202073 Q-6.9872, 0.137711 -7, 0.0805312 " /><path id= "12" d=" M -6.955 0.202073 L -1.5 0.202073 " />
<path d="M-7, -0.0805312 Q-7, -0.187372 -7, -0.262843 " /><path d="M-7, -0.343374 Q-7, -0.359065 -7, -0.359145 " /><path d="M-7, 0.262843 Q-7, 0.187372 -7, 0.0805312 " /><path id= "16" d=" M -7 0.262843 L -7 0.343374 " />
<path d="M-7, 0.359145 Q-7, 0.359065 -7, 0.343374 " /><path id= "18" d=" M 0.35 -0.202073 L 0.35 0.202073 " />
<path d="M-1.5, 0.202073 C-1.29216, 0.202073 -1.08626, 0.202073 -0.888984, 0.202073  C-0.825094, 0.202073 -0.761205, 0.202073 -0.697315, 0.202073  C-0.63679, 0.202073 -0.576265, 0.202073 -0.515741, 0.202073  C-0.459342, 0.202073 -0.402943, 0.202073 -0.346544, 0.202073  C-0.29498, 0.202073 -0.243416, 0.202073 -0.191852, 0.202073  C-0.145772, 0.202073 -0.099692, 0.202073 -0.0536118, 0.202073  C-0.0135946, 0.202073 0.0264226, 0.202073 0.0664398, 0.202073  C0.0998906, 0.202073 0.133342, 0.202073 0.166792, 0.202073  C0.193256, 0.202073 0.21972, 0.202073 0.246184, 0.202073  C0.265328, 0.202073 0.284472, 0.202073 0.303617, 0.202073  C0.3152, 0.202073 0.326784, 0.202073 0.338368, 0.202073  C0.342245, 0.202073 0.346123, 0.202073 0.35, 0.202073 " /><path d="M-7, 0.262843 Q-6.9872, 0.234253 -6.955, 0.202073 " /><path d="M-6.955, 0.404145 Q-6.9872, 0.371964 -7, 0.343374 " /><path id= "22" d=" M -6.955 0.404145 L -1.5 0.404145 " />
<path id= "23" d=" M 0.35 0.202073 L -2.28891e-13 0.404145 " />
<path d="M-1.5, 0.404145 Q-1.24586, 0.404145 -1.00458, 0.404145  Q-0.926878, 0.404145 -0.849174, 0.404145  Q-0.775563, 0.404145 -0.701952, 0.404145  Q-0.633359, 0.404145 -0.564765, 0.404145  Q-0.502053, 0.404145 -0.43934, 0.404145  Q-0.383296, 0.404145 -0.327253, 0.404145  Q-0.278583, 0.404145 -0.229914, 0.404145  Q-0.18923, 0.404145 -0.148547, 0.404145  Q-0.116361, 0.404145 -0.084175, 0.404145  Q-0.0608916, 0.404145 -0.0376081, 0.404145  Q-0.0235199, 0.404145 -0.00943169, 0.404145  Q-0.00471584, 0.404145 0, 0.404145 " /></g>

</svg>
