<svg xmlns="http://www.w3.org/2000/svg" viewBox="-3.1002188 -4.5088488 5.7054676 9.9361076">
<rect width="100%" height="100%" fill="white"/>
<g   fill="none"
   stroke="rgb(0, 0, 0)"
   stroke-linecap="butt"
   stroke-linejoin="miter"
   stroke-width="0.35"
   transform="scale(1, -1)"
  >
<path id= "1" d=" M -1.51924 -4.45624 L -1.02426 -4.74201 " />
<path id= "2" d=" M -2.41497 -2.82747 L -1.92 -3.11325 " />
<path id= "3" d=" M 1.42503 3.8236 L 1.92 3.53783 " />
</g>
<g   fill="none"
   stroke="rgb(0, 0, 0)"
   stroke-linecap="butt"
   stroke-linejoin="miter"
   stroke-width="0.35"
   transform="scale(1, -1)"
  >
<path id= "1" d=" M 1.27279 -2.72298 L 1.27279 -2.35958 " />
<path id= "2" d=" M 0.777817 -2.43721 L 0.777817 -2.07381 " />
<path d="M0.777817 -2.07381 A1.2 0.69282 -120 0 0 1.12127 -1.0882" />
<path d="M1.27279 -2.35958 A1.2 0.69282 -120 0 0 1.61624 -1.37398" />
<path d="M0.424264 -4.19268 A1.2 0.69282 60 0 1 1.27279 -2.72298" />
<path d="M-0.0707107 -3.9069 A1.2 0.69282 60 0 1 0.777817 -2.43721" />
<path id= "7" d=" M 0.424264 -4.19268 L -0.0707107 -3.9069 " />
<path id= "8" d=" M -0.0707107 -3.417 L -0.0707107 -3.9069 " />
<path d="M-6.78987e-16 2.28619 A2.8 1.61658 -120 0 0 1.13046 2.52957" />
<path d="M-3.17982e-16 2.28619 A2.8 1.61658 60 0 1 -1.62544 -2.24379" />
<path id= "11" d=" M -0.424264 -2.47803 L -0.424264 -3.21288 " />
<path d="M-0.848528 -3.94773 A0.6 0.34641 -120 0 0 -0.424264 -3.21288" />
<path id= "13" d=" M -0.424264 -4.19268 L -0.424264 -4.68257 " />
<path d="M-0.424264 -4.68257 A1.2 0.69282 -120 0 0 -1.02426 -4.74201" />
<path d="M-1.8659 -3.14277 A3.84 2.21703 -120 0 0 -1.92 -3.11325" />
<path d="M1.61624 -1.37398 A3.84 2.21703 60 0 1 1.92 3.53783" />
<path id= "17" d=" M -0.0707107 -1.70236 L -0.0707107 -2.43721 " />
<path id= "18" d=" M 0.353553 -2.68216 L -0.0707107 -2.43721 " />
<path id= "19" d=" M -0.424264 -2.47803 L -0.919239 -2.19226 " />
<path id= "20" d=" M -0.919239 -2.19226 L -0.919239 -2.92711 " />
<path id= "21" d=" M -0.424264 -3.21288 L -0.919239 -2.92711 " />
<path id= "22" d=" M -1.76777 -3.9069 L -1.76777 -3.5435 " />
<path id= "23" d=" M -0.424264 -4.68257 L -0.919239 -4.3968 " />
<path d="M-0.919239 -4.3968 A1.2 0.69282 -120 0 0 -1.51924 -4.45624" />
<path d="M-1.51924 -4.45624 A1.2 0.69282 -120 0 0 -1.76777 -3.9069" />
<path id= "26" d=" M -0.424264 -4.19268 L -0.919239 -3.9069 " />
<path id= "27" d=" M -0.919239 -3.9069 L -0.919239 -4.3968 " />
<path d="M-1.76777 -3.5435 A1.2 0.69282 60 0 1 -2.0163 -2.99417" />
<path d="M-2.0163 -2.99417 A1.2 0.69282 60 0 1 -2.11122 -2.95448" />
<path d="M1.12127 -1.0882 A3.84 2.21703 60 0 1 1.42503 3.8236" />
<path d="M1.42503 3.8236 A3.84 2.21703 60 0 1 -0.494975 3.63341" />
<path d="M-2.11122 -2.95448 A3.84 2.21703 -120 0 0 -2.41497 -2.82747" />
<path d="M-2.41497 -2.82747 A3.84 2.21703 -120 0 0 -0.494975 3.63341" />
<path d="M-0.919239 -3.9069 A0.6 0.34641 -120 0 0 -1.21924 -3.93662" />
<path d="M-1.21924 -3.93662 A0.6 0.34641 -120 0 0 -1.3435 -3.66195" />
<path d="M-1.3435 -3.66195 A0.6 0.34641 -120 0 0 -0.919239 -2.92711" />
<path d="M-0.494975 2.57196 A2.8 1.61658 60 0 1 -1.89497 -2.1391" />
<path d="M-1.89497 -2.1391 A2.8 1.61658 60 0 1 -0.919239 -2.19226" />
<path d="M-0.494975 2.57196 A2.8 1.61658 -120 0 0 0.905025 2.71064" />
<path d="M0.905025 2.71064 A2.8 1.61658 -120 0 0 -0.0707107 -1.70236" />
<path d="M0.353553 -2.68216 A0.6 0.34641 60 0 1 0.229289 -2.40749" />
<path d="M0.229289 -2.40749 A0.6 0.34641 60 0 1 -0.0707107 -2.43721" />
<path d="M-0.0707107 -3.417 A0.6 0.34641 60 0 1 0.353553 -2.68216" />
</g>

</svg>
