<svg xmlns="http://www.w3.org/2000/svg" viewBox="-1.3144 -4.4544 2.2287999999999997 8.9088">
<rect width="100%" height="100%" fill="white"/>
<g   fill="none"
   stroke="rgb(0, 0, 0)"
   stroke-linecap="butt"
   stroke-linejoin="miter"
   stroke-width="0.35"
   transform="scale(1, -1)"
  >
<path id= "1" d=" M -0.7 -3.84 L 0 -3.84 " />
<path id= "2" d=" M -0.7 3.84 L 0 3.84 " />
</g>
<g   fill="none"
   stroke="rgb(0, 0, 0)"
   stroke-linecap="butt"
   stroke-linejoin="miter"
   stroke-width="0.35"
   transform="scale(1, -1)"
  >
<path id= "1" d=" M 0 1.8 L -0.7 1.8 " />
<path d="M-0.7, 1.8 C-0.7, 1.80132 -0.7, 1.84408 -0.7, 1.92829  C-0.7, 2.01283 -0.7, 2.136 -0.7, 2.28571 " /><path d="M0, 1.8 C0, 1.80132 0, 1.84408 0, 1.92829  C0, 2.01283 0, 2.136 0, 2.28571 " /><path d="M0, 0.6 Q0, 0.803309 0, 0.996335  Q0, 1.1225 0, 1.23844  Q0, 1.29331 0, 1.34819  Q0, 1.39836 0, 1.44853  Q0, 1.49336 0, 1.5382  Q0, 1.57713 0, 1.61607  Q0, 1.64862 0, 1.68116  Q0, 1.70691 0, 1.73266  Q0, 1.75129 0, 1.76991  Q0, 1.78118 0, 1.79245  Q0, 1.79623 0, 1.8 " /><path d="M-0.7, 0.6 Q-0.7, 0.803309 -0.7, 0.996335  Q-0.7, 1.1225 -0.7, 1.23844  Q-0.7, 1.29331 -0.7, 1.34819  Q-0.7, 1.39836 -0.7, 1.44853  Q-0.7, 1.49336 -0.7, 1.5382  Q-0.7, 1.57713 -0.7, 1.61607  Q-0.7, 1.64862 -0.7, 1.68116  Q-0.7, 1.70691 -0.7, 1.73266  Q-0.7, 1.75129 -0.7, 1.76991  Q-0.7, 1.78118 -0.7, 1.79245  Q-0.7, 1.79623 -0.7, 1.8 " /><path id= "6" d=" M 0 0.6 L -0.7 0.6 " />
<path d="M0, 0 Q0, 0.303499 0, 0.6 " /><path d="M0, 0 Q0, -0.303499 0, -0.6 " /><path d="M0, -0.6 Q0, -0.803309 0, -0.996335  Q0, -1.1225 0, -1.23844  Q0, -1.29331 0, -1.34819  Q0, -1.39836 0, -1.44853  Q0, -1.49336 0, -1.5382  Q0, -1.57713 0, -1.61607  Q0, -1.64862 0, -1.68116  Q0, -1.70691 0, -1.73266  Q0, -1.75129 0, -1.76991  Q0, -1.78118 0, -1.79245  Q0, -1.79623 0, -1.8 " /><path d="M0, -1.8 C0, -1.80132 0, -1.84408 0, -1.92829  C0, -2.01283 0, -2.136 0, -2.28571 " /><path d="M0, -2.28571 L0, -2.48617  L0, -2.67559  L0, -2.85312  L0, -3.01797  L0, -3.16943  L0, -3.3068  L0, -3.42949  L0, -3.53694  L0, -3.62868  L0, -3.7043  L0, -3.76347  L0, -3.80592  L0, -3.83147  L0, -3.84 " /><path d="M0, 2.28571 L0, 2.48617  L0, 2.67559  L0, 2.85312  L0, 3.01797  L0, 3.16943  L0, 3.3068  L0, 3.42949  L0, 3.53694  L0, 3.62868  L0, 3.7043  L0, 3.76347  L0, 3.80592  L0, 3.83147  L0, 3.84 " /><path id= "13" d=" M 0 -1.8 L -0.7 -1.8 " />
<path id= "14" d=" M 0 -0.6 L -0.7 -0.6 " />
<path d="M-0.7, -0.6 Q-0.7, -0.803309 -0.7, -0.996335  Q-0.7, -1.1225 -0.7, -1.23844  Q-0.7, -1.29331 -0.7, -1.34819  Q-0.7, -1.39836 -0.7, -1.44853  Q-0.7, -1.49336 -0.7, -1.5382  Q-0.7, -1.57713 -0.7, -1.61607  Q-0.7, -1.64862 -0.7, -1.68116  Q-0.7, -1.70691 -0.7, -1.73266  Q-0.7, -1.75129 -0.7, -1.76991  Q-0.7, -1.78118 -0.7, -1.79245  Q-0.7, -1.79623 -0.7, -1.8 " /><path d="M-0.7, -1.8 C-0.7, -1.80132 -0.7, -1.84408 -0.7, -1.92829  C-0.7, -2.01283 -0.7, -2.136 -0.7, -2.28571 " /><path d="M-0.7, 2.28571 L-0.7, 2.48617  L-0.7, 2.67559  L-0.7, 2.85312  L-0.7, 3.01797  L-0.7, 3.16943  L-0.7, 3.3068  L-0.7, 3.42949  L-0.7, 3.53694  L-0.7, 3.62868  L-0.7, 3.7043  L-0.7, 3.76347  L-0.7, 3.80592  L-0.7, 3.83147  L-0.7, 3.84 " /><path d="M-0.7, -2.28571 L-0.7, -2.48617  L-0.7, -2.67559  L-0.7, -2.85312  L-0.7, -3.01797  L-0.7, -3.16943  L-0.7, -3.3068  L-0.7, -3.42949  L-0.7, -3.53694  L-0.7, -3.62868  L-0.7, -3.7043  L-0.7, -3.76347  L-0.7, -3.80592  L-0.7, -3.83147  L-0.7, -3.84 " /><path d="M-0.7, 0 Q-0.7, -0.303499 -0.7, -0.6 " /><path d="M-0.7, 0 Q-0.7, 0.303499 -0.7, 0.6 " /></g>

</svg>
