<svg xmlns="http://www.w3.org/2000/svg" viewBox="-2.9445068 -3.4587968 5.8890136 9.552553600000001">
<rect width="100%" height="100%" fill="white"/>
<g   fill="none"
   stroke="rgb(0, 0, 0)"
   stroke-linecap="butt"
   stroke-linejoin="miter"
   stroke-width="0.35"
   transform="scale(1, -1)"
  >
<path id= "1" d=" M 1.8 -4.23496 L 1.8 -3.78989 " />
<path d="M1.8 -3.78989 A1.2 1.2 0 0 0 2.28571 -2.82563" /><path d="M0.6 -5.43496 A1.2 1.2 0 0 1 1.8 -4.23496" /><path id= "4" d=" M 0.6 -4.83496 L 0.6 -5.43496 " />
<path id= "5" d=" M 0.6 -2.73496 L 0.6 -3.63496 " />
<path id= "6" d=" M -0.6 -2.73496 L -0.6 -3.63496 " />
<path id= "7" d=" M -1.8 -4.23496 L -1.8 -3.78989 " />
<path d="M-0.6 -5.43496 A1.2 1.2 0 0 0 -1.8 -4.23496" /><path id= "9" d=" M -0.6 -4.83496 L -0.6 -5.43496 " />
<path d="M-1.8 -3.78989 A1.2 1.2 0 0 1 -2.28571 -2.82563" /><path d="M2.28571 -2.82563 A3.84 3.84 0 0 1 4.53879e-16 4.1" /><path d="M-2.28571 -2.82563 A3.84 3.84 0 0 0 -4.53879e-16 4.1" /><path d="M-0.6 -4.83496 A0.6 0.6 0 0 0 -1.2 -4.23496" /><path d="M-1.2 -4.23496 A0.6 0.6 0 0 0 -0.6 -3.63496" /><path d="M1.00087e-28 2.8 A2.8 2.8 0 0 1 -0.6 -2.73496" /><path d="M-1.00087e-28 2.8 A2.8 2.8 0 0 0 0.6 -2.73496" /><path d="M1.2 -4.23496 A0.6 0.6 0 0 1 0.6 -3.63496" /><path d="M0.6 -4.83496 A0.6 0.6 0 0 1 1.2 -4.23496" /></g>

</svg>
