<svg xmlns="http://www.w3.org/2000/svg" viewBox="-8.255046 -8.397396 30.177342 23.459992000000003">
<rect width="100%" height="100%" fill="white"/>
<g   fill="none"
   stroke="rgb(0, 0, 0)"
   stroke-linecap="butt"
   stroke-linejoin="miter"
   stroke-width="0.35"
   transform="scale(1, -1)"
  >
<path d="M-5.07425 4.19933 A8.97302 8.97302 0 0 1 -6.17385 2.29477" /><path id= "2" d=" M -5.68219 -2.79057 L -2.6289 -4.55339 " />
<path id= "3" d=" M -0.424387 6.3162 L 2.6289 4.55339 " />
<path id= "4" d=" M 0.755717 -4.10249 L 0.868024 -4.16733 " />
<path id= "5" d=" M 4.37973 1.13753 L 4.49204 1.0727 " />
<path id= "6" d=" M 1.65374 -4.62096 L 1.76605 -4.6858 " />
<path id= "7" d=" M 5.27776 0.619058 L 5.39006 0.554221 " />
<path id= "8" d=" M 2.55177 -5.13944 L 2.66407 -5.20428 " />
<path id= "9" d=" M 6.17579 0.100581 L 6.28809 0.0357462 " />
<path id= "10" d=" M 3.4498 -5.65792 L 3.5621 -5.72275 " />
<path id= "11" d=" M 7.07382 -0.417896 L 7.18611 -0.482729 " />
<path id= "12" d=" M 4.34783 -6.17639 L 4.46013 -6.24123 " />
<path id= "13" d=" M 7.97184 -0.936372 L 8.08414 -1.0012 " />
<path id= "14" d=" M 5.24586 -6.69487 L 5.35815 -6.7597 " />
<path id= "15" d=" M 8.86987 -1.45485 L 8.98216 -1.51968 " />
<path id= "16" d=" M 6.14389 -7.21335 L 6.25618 -7.27818 " />
<path id= "17" d=" M 9.7679 -1.97333 L 9.88019 -2.03815 " />
<path id= "18" d=" M 7.04191 -7.73182 L 7.1542 -7.79665 " />
<path id= "19" d=" M 10.6659 -2.4918 L 10.7782 -2.55663 " />
<path id= "20" d=" M 7.93994 -8.2503 L 8.05223 -8.31513 " />
<path id= "21" d=" M 11.564 -3.01028 L 11.6762 -3.0751 " />
<path id= "22" d=" M 8.83797 -8.76878 L 8.95025 -8.8336 " />
<path id= "23" d=" M 12.462 -3.52876 L 12.5743 -3.59358 " />
<path id= "24" d=" M 9.736 -9.28726 L 9.84828 -9.35208 " />
<path id= "25" d=" M 13.36 -4.04723 L 13.4723 -4.11205 " />
<path id= "26" d=" M 10.634 -9.80573 L 10.7463 -9.87055 " />
<path id= "27" d=" M 14.258 -4.56571 L 14.3703 -4.63053 " />
<path id= "28" d=" M 11.5321 -10.3242 L 11.6443 -10.389 " />
<path id= "29" d=" M 15.1561 -5.08419 L 15.2683 -5.149 " />
<path id= "30" d=" M 12.4301 -10.8427 L 12.5424 -10.9075 " />
<path id= "31" d=" M 16.0541 -5.60266 L 16.1664 -5.66748 " />
<path id= "32" d=" M 13.3281 -11.3612 L 13.4404 -11.426 " />
<path id= "33" d=" M 16.9521 -6.12114 L 17.0644 -6.18596 " />
<path id= "34" d=" M 14.2261 -11.8796 L 14.3384 -11.9445 " />
<path id= "35" d=" M 17.8502 -6.63962 L 17.9624 -6.70443 " />
<path id= "36" d=" M 15.1242 -12.3981 L 15.2364 -12.4629 " />
<path id= "37" d=" M 18.7482 -7.15809 L 18.8604 -7.22291 " />
<path id= "38" d=" M 16.0222 -12.9166 L 16.1345 -12.9814 " />
</g>
<g   fill="none"
   stroke="rgb(0, 0, 0)"
   stroke-linecap="butt"
   stroke-linejoin="miter"
   stroke-width="0.35"
   transform="scale(1, -1)"
  >
<path d="M-2.04176 1.69288 A8.97212 0.389823 142.719 0 0 -2.7838 2.29872" />
<path d="M-2.04176 1.69288 A3.18793 1.84055 -120 0 0 -2.48695 0.921775" />
<path d="M-3.38265 1.26148 A8.97212 0.389823 -22.7193 0 0 -2.48695 0.921775" />
<path d="M-4.16163 1.1396 A8.95118 2.92884 -8.3381 0 0 -3.38265 1.26148" />
<path d="M-4.78272 0.453147 A8.95118 5.923 21.3238 0 0 -4.16163 1.1396" />
<path d="M-5.19845 -0.643708 A8.97212 6.85422 50.3134 0 0 -4.78272 0.453147" />
<path d="M-5.19845 -0.643708 A3.18793 1.84055 -120 0 0 -5.64365 -0.386673" />
<path d="M-5.38158 0.798895 A8.97212 7.66534 -107.941 0 1 -5.64365 -0.386673" />
<path d="M-5.25553 1.77116 A8.95118 6.91414 -72.4603 0 1 -5.38158 0.798895" />
<path d="M-5.38158 2.41556 A8.95118 3.91998 -42.3458 0 1 -5.25553 1.77116" />
<path d="M-5.64365 2.74429 A8.97212 1.20093 -29.9283 0 1 -5.38158 2.41556" />
<path d="M-5.64365 2.74429 A3.18793 1.84055 -120 0 0 -5.19845 3.51539" />
<path d="M-4.78272 3.4528 A8.97212 1.20093 149.928 0 1 -5.19845 3.51539" />
<path d="M-4.16163 3.66584 A8.95118 3.91998 162.346 0 1 -4.78272 3.4528" />
<path d="M-3.38265 4.26114 A8.95118 6.91414 -167.54 0 1 -4.16163 3.66584" />
<path d="M-2.48695 5.08088 A8.97212 7.66534 -132.059 0 1 -3.38265 4.26114" />
<path d="M-2.48695 5.08088 A3.18793 1.84055 -120 0 0 -2.04176 4.82384" />
<path d="M-2.7838 3.91539 A8.97212 6.85422 69.6866 0 0 -2.04176 4.82384" />
<path d="M-3.06774 3.03428 A8.95118 5.923 98.6762 0 0 -2.7838 3.91539" />
<path d="M0.664539 3.9093 A5.2578 3.03559 60 0 1 -0.424387 6.3162" />
<path d="M-0.424387 6.3162 A5.2578 3.03559 60 0 1 -5.07425 4.19933" />
<path d="M-6.17385 2.29477 A5.2578 3.03559 60 0 1 -5.68219 -2.79057" />
<path d="M-5.68219 -2.79057 A5.2578 3.03559 60 0 1 0.664539 3.9093" />
<path d="M-2.7838 2.29872 A8.95118 2.92884 128.338 0 0 -3.06774 3.03428" />
<path d="M-5.11008, -0.37674 Q-5.36464, -0.381531 -5.64365, -0.386673 " /><path id= "26" d=" M -5.38158 0.798895 L -4.74517 0.498692 " />
<path id= "27" d=" M -5.25553 1.77116 L -3.9852 1.17193 " />
<path id= "28" d=" M -5.38158 2.41556 L -3.08387 1.33169 " />
<path d="M-3.08387, 1.33169 Q-2.99884, 1.20193 -2.9292, 1.09072 " /><path d="M-5.64365, 2.74429 C-5.5685, 2.70307 -5.49336, 2.66185 -5.41821, 2.62064  C-5.34586, 2.58095 -5.2735, 2.54126 -5.20115, 2.50157  C-5.13149, 2.46336 -5.06182, 2.42514 -4.99216, 2.38692  C-4.92509, 2.35013 -4.85801, 2.31333 -4.79094, 2.27653  C-4.72636, 2.2411 -4.66178, 2.20567 -4.5972, 2.17024  C-4.47155, 2.1013 -4.34951, 2.03434 -4.23108, 1.96936  C-3.82094, 1.74431 -3.46377, 1.54826 -3.14788, 1.37482 " /><path d="M-3.14788, 1.37482 L-3.08387, 1.33169 " /><path d="M-2.76456, 2.03873 C-3.07272, 2.22558 -3.42108, 2.43688 -3.82105, 2.67954  C-3.87943, 2.71496 -3.93781, 2.75038 -3.99619, 2.7858  C-4.05682, 2.82259 -4.11745, 2.85938 -4.17809, 2.89617  C-4.24106, 2.93438 -4.30403, 2.9726 -4.36701, 3.01081  C-4.43241, 3.0505 -4.49781, 3.09019 -4.56322, 3.12988  C-4.63114, 3.1711 -4.69907, 3.21232 -4.767, 3.25354  C-4.83755, 3.29636 -4.90809, 3.33917 -4.97864, 3.38199  C-5.05191, 3.42646 -5.12518, 3.47093 -5.19845, 3.51539 " /><path d="M-2.76456 2.03873 A1.905 1.09985 60 0 1 -3.14788 1.37482" />
<path id= "34" d=" M -4.78272 3.4528 L -2.69521 2.00486 " />
<path d="M-2.69521, 2.00486 L-2.76456, 2.03873 " /><path id= "36" d=" M -4.16163 3.66584 L -3.00752 2.86532 " />
<path d="M-2.40919, 1.9914 Q-2.54032, 1.99611 -2.69521, 2.00486 " /><path id= "38" d=" M -3.38265 4.26114 L -2.80447 3.86009 " />
<path d="M-2.48695, 5.08088 Q-2.3519, 4.83668 -2.22877, 4.61383 " /><path d="M3.71783 2.14649 A5.2578 3.03559 60 0 1 2.6289 4.55339" />
<path d="M-2.6289 -4.55339 A5.2578 3.03559 60 0 1 3.71783 2.14649" />
<path d="M3.47007, 0.462501 C3.48159, -0.243464 3.25582, -1.06894 2.86547, -1.79122  C2.60772, -2.27156 2.28107, -2.70508 1.93039, -3.03816  C1.56233, -3.389 1.16892, -3.62779 0.808936, -3.72308 " /><path d="M3.68243, 1.53509 C4.08616, 1.25803 4.33074, 0.728196 4.36383, 0.0729193 " /><path d="M3.3259, 0.00167297 C3.20949, -0.932157 2.72879, -1.9627 2.09971, -2.67832  C1.76075, -3.06824 1.38402, -3.36703 1.02221, -3.53734 " /><path d="M3.68006, 1.51438 C4.01887, 1.22224 4.22114, 0.730637 4.25152, 0.13776 " /><path d="M4.36383, 0.0729193 C4.40588, -0.660157 4.17831, -1.54293 3.76349, -2.30969  C3.50575, -2.79003 3.1791, -3.22354 2.82843, -3.55663  C2.59392, -3.77911 2.35669, -3.95316 2.11676, -4.07876  C1.6445, -4.3271 1.19355, -4.35746 0.868025, -4.16733 " /><path d="M4.49204, 1.0727 C4.94734, 0.81372 5.22683, 0.257016 5.26185, -0.445556 " /><path d="M4.25152, 0.13776 C4.28464, -0.457888 4.14332, -1.15215 3.86392, -1.80295  C3.64461, -2.317 3.3416, -2.8022 2.99888, -3.19549  C2.70183, -3.53729 2.37574, -3.80967 2.05604, -3.98618  C1.5653, -4.25937 1.09302, -4.29975 0.755717, -4.10249 " /><path d="M0.755717, -4.10249 Q0.63877, -4.03493 0.544132, -3.93259 " /><path d="M3.94548, 1.29266 Q4.18086, 1.25219 4.37973, 1.13753 " /><path d="M4.37973, 1.13753 C4.83503, 0.87856 5.11451, 0.321851 5.14955, -0.380717 " /><path d="M5.26185, -0.445556 C5.30391, -1.17863 5.07634, -2.0614 4.66153, -2.82815  C4.40378, -3.30849 4.07713, -3.74201 3.72646, -4.07509  C3.49197, -4.29757 3.25476, -4.47161 3.01484, -4.59721  C2.54256, -4.84557 2.09159, -4.87594 1.76605, -4.6858 " /><path d="M5.39006, 0.554221 C5.84536, 0.295245 6.12485, -0.26146 6.15988, -0.964031 " /><path d="M5.14955, -0.380717 C5.18263, -0.975795 5.04162, -1.6693 4.76275, -2.31956  C4.54374, -2.83344 4.24107, -3.31858 3.89862, -3.71199  C3.60227, -4.05338 3.27693, -4.32569 2.9578, -4.50258  C2.46574, -4.77761 1.99191, -4.81874 1.65374, -4.62096 " /><path d="M1.65374, -4.62096 Q1.45332, -4.5049 1.32087, -4.29024 " /><path d="M4.84351, 0.774182 Q5.07889, 0.733713 5.27776, 0.619058 " /><path d="M5.27776, 0.619058 C5.73306, 0.360083 6.01254, -0.196627 6.04758, -0.899194 " /><path d="M6.15988, -0.964031 C6.20193, -1.6971 5.97436, -2.57987 5.55955, -3.34662  C5.30181, -3.82696 4.97516, -4.26047 4.62449, -4.59356  C4.39001, -4.81603 4.15281, -4.99006 3.9129, -5.11567  C3.44061, -5.36404 2.98962, -5.39442 2.66408, -5.20428 " /><path d="M6.28809, 0.0357461 C6.74339, -0.22323 7.02288, -0.779936 7.0579, -1.48251 " /><path d="M6.04758, -0.899194 C6.08062, -1.49368 5.93994, -2.18639 5.66161, -2.8361  C5.44293, -3.34972 5.14066, -3.83475 4.79857, -4.22825  C4.50346, -4.56864 4.17951, -4.84056 3.86151, -5.0179  C3.36743, -5.29572 2.89123, -5.33801 2.55177, -5.13944 " /><path d="M2.55177, -5.13944 Q2.35134, -5.02337 2.2189, -4.80872 " /><path d="M5.74153, 0.255705 Q5.97691, 0.215237 6.17579, 0.100581 " /><path d="M6.17579, 0.100581 C6.63109, -0.158394 6.91057, -0.715103 6.94561, -1.41767 " /><path d="M7.0579, -1.48251 C7.09996, -2.21558 6.87239, -3.09834 6.45758, -3.86509  C6.19984, -4.34543 5.8732, -4.77894 5.52253, -5.11203  C5.28805, -5.33449 5.05086, -5.50852 4.81096, -5.63412  C4.33865, -5.88252 3.88765, -5.9129 3.5621, -5.72275 " /><path d="M7.18611, -0.482729 C7.64141, -0.741705 7.9209, -1.29841 7.95593, -2.00098 " /><path d="M6.94561, -1.41767 C6.97861, -2.01152 6.83828, -2.70337 6.56053, -3.35247  C6.34223, -3.86581 6.04041, -4.35068 5.69872, -4.74428  C5.4028, -5.08609 5.07777, -5.35905 4.75876, -5.5368  C4.26496, -5.81425 3.78908, -5.85638 3.4498, -5.65792 " /><path d="M3.4498, -5.65792 Q3.24937, -5.54185 3.11693, -5.32719 " /><path d="M6.63956, -0.262771 Q6.87494, -0.303239 7.07382, -0.417896 " /><path d="M7.07382, -0.417896 C7.52912, -0.676871 7.8086, -1.23358 7.84363, -1.93615 " /><path d="M7.95593, -2.00098 C7.99798, -2.73405 7.77042, -3.61681 7.35561, -4.38355  C7.09788, -4.86389 6.77123, -5.2974 6.42056, -5.63049  C6.1861, -5.85294 5.94893, -6.02696 5.70904, -6.15257  C5.23671, -6.40099 4.78569, -6.43138 4.46013, -6.24123 " /><path d="M8.08414, -1.0012 C8.53944, -1.26018 8.81893, -1.81689 8.85395, -2.51946 " /><path d="M7.84363, -1.93615 C7.87659, -2.52919 7.73669, -3.21997 7.45969, -3.8683  C7.24196, -4.38105 6.94087, -4.86554 6.59986, -5.25917  C6.30186, -5.60409 5.97418, -5.87921 5.65276, -6.05753  C5.16039, -6.33298 4.68619, -6.3743 4.34783, -6.17639 " /><path d="M4.34783, -6.17639 Q4.1474, -6.06033 4.01495, -5.84567 " /><path d="M7.53758, -0.781247 Q7.77297, -0.821716 7.97184, -0.936372 " /><path d="M7.97184, -0.936372 C8.42715, -1.19535 8.70663, -1.75206 8.74166, -2.45462 " /><path d="M8.85395, -2.51946 C8.89601, -3.25252 8.66844, -4.13528 8.25364, -4.90202  C7.99591, -5.38236 7.66926, -5.81587 7.3186, -6.14896  C7.08415, -6.3714 6.84698, -6.54542 6.60711, -6.67102  C6.13476, -6.91946 5.68373, -6.94987 5.35815, -6.7597 " /><path d="M8.98216, -1.51968 C9.43746, -1.77866 9.71695, -2.33536 9.75198, -3.03793 " /><path d="M8.74166, -2.45462 C8.77458, -3.04696 8.63506, -3.7368 8.3587, -4.38446  C8.13905, -4.90243 7.83427, -5.39165 7.4892, -5.78767  C7.19219, -6.12946 6.86615, -6.40185 6.54647, -6.5784  C6.05563, -6.85173 5.58323, -6.89217 5.24586, -6.69487 " /><path d="M5.24586, -6.69487 Q5.04543, -6.5788 4.91298, -6.36414 " /><path d="M8.43561, -1.29972 Q8.671, -1.34019 8.86987, -1.45485 " /><path d="M8.86987, -1.45485 C9.32517, -1.71382 9.60465, -2.27053 9.63969, -2.9731 " /><path d="M9.75198, -3.03793 C9.79403, -3.77099 9.56647, -4.65374 9.15168, -5.42048  C8.89394, -5.90082 8.5673, -6.33433 8.21664, -6.66742  C7.98221, -6.88984 7.74507, -7.06385 7.50522, -7.18945  C7.03285, -7.43793 6.58177, -7.46835 6.25618, -7.27818 " /><path d="M9.88019, -2.03815 C10.3355, -2.29713 10.615, -2.85384 10.65, -3.55641 " /><path d="M9.63969, -2.9731 C9.67254, -3.56443 9.53358, -4.25293 9.25813, -4.89963  C9.0396, -5.41591 8.73646, -5.9038 8.39302, -6.29947  C8.09764, -6.64069 7.77325, -6.91334 7.45479, -7.09115  C6.9603, -7.36955 6.4836, -7.41208 6.14389, -7.21335 " /><path d="M6.14389, -7.21335 Q5.94345, -7.09728 5.81101, -6.88262 " /><path d="M9.33364, -1.8182 Q9.56902, -1.85867 9.7679, -1.97333 " /><path d="M9.7679, -1.97333 C10.2232, -2.2323 10.5027, -2.78901 10.5377, -3.49158 " /><path d="M10.65, -3.55641 C10.6921, -4.28946 10.4645, -5.17221 10.0497, -5.93895  C9.79197, -6.41928 9.46534, -6.85279 9.11467, -7.18588  C8.88026, -7.40829 8.64313, -7.5823 8.40329, -7.7079  C7.9309, -7.9564 7.47981, -7.98683 7.1542, -7.79665 " /><path d="M10.7782, -2.55663 C11.2335, -2.81561 11.513, -3.37231 11.548, -4.07488 " /><path d="M10.5377, -3.49158 C10.5705, -4.08235 10.4319, -4.77011 10.1569, -5.41628  C9.93922, -5.93112 9.63738, -6.41783 9.29525, -6.81309  C8.99562, -7.16021 8.6659, -7.43675 8.34267, -7.61527  C7.85179, -7.88868 7.37932, -7.92915 7.04191, -7.73182 " /><path d="M7.04191, -7.73182 Q6.84148, -7.61576 6.70904, -7.40109 " /><path d="M10.2317, -2.33668 Q10.467, -2.37714 10.6659, -2.4918 " /><path d="M10.6659, -2.4918 C11.1212, -2.75078 11.4007, -3.30749 11.4357, -4.01005 " /><path d="M11.548, -4.07488 C11.5901, -4.80793 11.3625, -5.69068 10.9477, -6.45741  C10.69, -6.93775 10.3634, -7.37126 10.0127, -7.70435  C9.77831, -7.92674 9.5412, -8.10074 9.30137, -8.22635  C8.82896, -8.47488 8.37784, -8.50532 8.05223, -8.31513 " /><path d="M11.6762, -3.0751 C12.1315, -3.33408 12.411, -3.89079 12.4461, -4.59336 " /><path d="M11.4357, -4.01005 C11.4685, -4.59964 11.3305, -5.28583 11.0566, -5.93088  C10.8387, -6.44741 10.536, -6.9358 10.1928, -7.33215  C9.89336, -7.67889 9.56395, -7.95515 9.24101, -8.13358  C8.75001, -8.40713 8.27742, -8.44767 7.93994, -8.2503 " /><path d="M7.93994, -8.2503 Q7.73951, -8.13423 7.60706, -7.91957 " /><path d="M11.1297, -2.85515 Q11.3651, -2.89562 11.564, -3.01028 " /><path d="M11.564, -3.01028 C12.0193, -3.26925 12.2987, -3.82597 12.3338, -4.52853 " /><path d="M12.4461, -4.59336 C12.4881, -5.32641 12.2606, -6.20915 11.8458, -6.97588  C11.588, -7.45621 11.2614, -7.88973 10.9107, -8.22282  C10.6764, -8.44521 10.4392, -8.6192 10.1994, -8.74481  C9.727, -8.99335 9.27589, -9.0238 8.95025, -8.8336 " /><path d="M12.5743, -3.59358 C13.0296, -3.85256 13.3091, -4.40926 13.3441, -5.11183 " /><path d="M12.3338, -4.52853 C12.3664, -5.11578 12.2296, -5.79886 11.9579, -6.44167  C11.7392, -6.9621 11.4344, -7.45436 11.0886, -7.85312  C10.7922, -8.19598 10.4664, -8.46975 10.1466, -8.64784  C9.65293, -8.92513 9.17717, -8.96719 8.83797, -8.76878 " /><path d="M8.83797, -8.76878 Q8.63754, -8.65271 8.50509, -8.43805 " /><path d="M12.0277, -3.37363 Q12.2631, -3.4141 12.462, -3.52876 " /><path d="M12.462, -3.52876 C12.9173, -3.78773 13.1968, -4.34444 13.2318, -5.04701 " /><path d="M13.3441, -5.11183 C13.3861, -5.84488 13.1586, -6.72762 12.7438, -7.49436  C12.4861, -7.97469 12.1594, -8.4082 11.8088, -8.74129  C11.5744, -8.96368 11.3373, -9.13767 11.0975, -9.26328  C10.625, -9.51183 10.1739, -9.54227 9.84828, -9.35208 " /><path d="M13.4723, -4.11205 C13.9276, -4.37103 14.2071, -4.92774 14.2421, -5.63031 " /><path d="M13.2318, -5.04701 C13.2647, -5.63836 13.1257, -6.3269 12.8502, -6.97363  C12.6327, -7.48737 12.3315, -7.97301 11.9901, -8.36762  C11.6938, -8.71104 11.3681, -8.98548 11.0482, -9.16431  C10.5533, -9.44337 10.076, -9.48617 9.736, -9.28725 " /><path d="M9.736, -9.28725 Q9.53556, -9.17119 9.40312, -8.95652 " /><path d="M12.9257, -3.89211 Q13.1611, -3.93257 13.36, -4.04723 " /><path d="M13.36, -4.04723 C13.8153, -4.30621 14.0948, -4.86292 14.1298, -5.56548 " /><path d="M14.2421, -5.63031 C14.2842, -6.36335 14.0566, -7.24608 13.6418, -8.01282  C13.3841, -8.49315 13.0575, -8.92666 12.7068, -9.25975  C12.4724, -9.48212 12.2354, -9.65611 11.9956, -9.78171  C11.5231, -10.0303 11.0719, -10.0608 10.7463, -9.87055 " /><path d="M14.3703, -4.63053 C14.8256, -4.88951 15.1051, -5.44621 15.1401, -6.14878 " /><path d="M14.1298, -5.56548 C14.1629, -6.16025 14.0221, -6.85333 13.7435, -7.50329  C13.5246, -8.01704 13.2222, -8.50212 12.8799, -8.89558  C12.5842, -9.23651 12.2595, -9.50865 11.9409, -9.68578  C11.4478, -9.96219 10.9728, -10.0039 10.634, -9.80573 " /><path d="M10.634, -9.80573 Q10.4336, -9.68966 10.3011, -9.475 " /><path d="M13.8238, -4.41058 Q14.0592, -4.45105 14.258, -4.56571 " /><path d="M14.258, -4.56571 C14.7133, -4.82468 14.9928, -5.38139 15.0279, -6.08396 " /><path d="M15.1401, -6.14878 C15.1822, -6.88182 14.9546, -7.76455 14.5399, -8.53128  C14.2821, -9.01161 13.9555, -9.44512 13.6048, -9.77822  C13.3705, -10.0006 13.1334, -10.1746 12.8936, -10.3002  C12.4212, -10.5488 11.97, -10.5792 11.6443, -10.389 " /><path d="M15.2683, -5.149 C15.7236, -5.40798 16.0031, -5.96469 16.0382, -6.66726 " /><path d="M15.0279, -6.08396 C15.0608, -6.67755 14.9206, -7.36908 14.6431, -8.01794  C14.425, -8.53116 14.1233, -9.01598 13.7818, -9.40961  C13.4842, -9.75356 13.1571, -10.0279 12.8363, -10.2057  C12.3442, -10.4808 11.8703, -10.522 11.5321, -10.3242 " /><path d="M11.5321, -10.3242 Q11.3316, -10.2081 11.1992, -9.99347 " /><path d="M14.7218, -4.92906 Q14.9572, -4.96953 15.1561, -5.08419 " /><path d="M15.1561, -5.08419 C15.6114, -5.34316 15.8908, -5.89987 15.9259, -6.60244 " /><path d="M16.0382, -6.66726 C16.0802, -7.4003 15.8527, -8.28302 15.4379, -9.04974  C15.1802, -9.53007 14.8535, -9.96358 14.5029, -10.2967  C14.2641, -10.5232 14.0227, -10.6994 13.7786, -10.8254  C13.3109, -11.0679 12.865, -11.0959 12.5424, -10.9075 " /><path d="M16.1664, -5.66748 C16.6217, -5.92646 16.9012, -6.48316 16.9362, -7.18573 " /><path d="M15.9259, -6.60244 C15.9587, -7.19268 15.8203, -7.87975 15.5458, -8.52542  C15.3264, -9.04488 15.0212, -9.53576 14.6755, -9.9331  C14.3794, -10.2743 14.0544, -10.5465 13.7356, -10.7235  C13.243, -10.9992 12.7686, -11.0407 12.4301, -10.8427 " /><path d="M12.4301, -10.8427 Q12.2296, -10.7266 12.0972, -10.5119 " /><path d="M15.6198, -5.44754 Q15.8552, -5.488 16.0541, -5.60266 " /><path d="M16.0541, -5.60266 C16.5094, -5.86164 16.7889, -6.41835 16.8239, -7.12091 " /><path d="M16.9362, -7.18573 C16.9782, -7.91877 16.7507, -8.80149 16.3359, -9.56821  C16.0782, -10.0485 15.7516, -10.482 15.4009, -10.8151  C15.1666, -11.0375 14.9296, -11.2114 14.6898, -11.3371  C14.2173, -11.5857 13.7661, -11.6162 13.4404, -11.426 " /><path d="M17.0644, -6.18596 C17.5197, -6.44493 17.7992, -7.00164 17.8342, -7.70421 " /><path d="M16.8239, -7.12091 C16.8566, -7.70985 16.7189, -8.39517 16.4457, -9.03959  C16.227, -9.55849 15.9228, -10.0491 15.5778, -10.4466  C15.2799, -10.7909 14.9525, -11.0653 14.6315, -11.2432  C14.1397, -11.5178 13.6661, -11.5588 13.3281, -11.3612 " /><path d="M13.3281, -11.3612 Q13.1277, -11.2451 12.9952, -11.0304 " /><path d="M16.5178, -5.96601 Q16.7532, -6.00648 16.9521, -6.12114 " /><path d="M16.9521, -6.12114 C17.4074, -6.38011 17.6869, -6.93682 17.7219, -7.63939 " /><path d="M17.8342, -7.70421 C17.8763, -8.43725 17.6487, -9.31997 17.2339, -10.0867  C16.9762, -10.567 16.6496, -11.0005 16.2989, -11.3336  C16.0646, -11.556 15.8275, -11.73 15.5877, -11.8556  C15.1153, -12.1042 14.6641, -12.1347 14.3384, -11.9445 " /><path d="M17.9624, -6.70443 C18.4177, -6.96341 18.6972, -7.52011 18.7322, -8.22268 " /><path d="M17.7219, -7.63939 C17.755, -8.23392 17.6143, -8.9267 17.3359, -9.57644  C17.1172, -10.0901 16.8149, -10.5751 16.4728, -10.9686  C16.1775, -11.3091 15.8534, -11.5811 15.5353, -11.7584  C15.0414, -12.036 14.5655, -12.0781 14.2261, -11.8796 " /><path d="M14.2261, -11.8796 Q14.0257, -11.7636 13.8933, -11.5489 " /><path d="M17.4159, -6.48449 Q17.6513, -6.52496 17.8502, -6.63962 " /><path d="M17.8502, -6.63962 C18.3055, -6.89859 18.5849, -7.4553 18.62, -8.15787 " /><path d="M18.7322, -8.22268 C18.7743, -8.95571 18.5467, -9.83842 18.132, -10.6051  C17.8743, -11.0855 17.5476, -11.519 17.197, -11.8521  C16.9627, -12.0744 16.7257, -12.2483 16.486, -12.3739  C16.0134, -12.6227 15.5621, -12.6532 15.2364, -12.4629 " /><path d="M18.8604, -7.22291 C19.3157, -7.48188 19.5952, -8.03859 19.6303, -8.74116 " /><path d="M18.62, -8.15787 C18.6527, -8.74702 18.5149, -9.43263 18.2414, -10.0773  C18.0221, -10.5974 17.7169, -11.0891 17.3708, -11.4871  C17.0756, -11.8276 16.7515, -12.0996 16.4334, -12.2769  C15.9395, -12.5544 15.4635, -12.5966 15.1242, -12.3981 " /><path d="M15.1242, -12.3981 Q14.9237, -12.282 14.7913, -12.0674 " /><path d="M18.3139, -7.00296 Q18.5493, -7.04343 18.7482, -7.15809 " /><path d="M18.7482, -7.15809 C19.2035, -7.41707 19.483, -7.97378 19.518, -8.67634 " /><path d="M19.6303, -8.74116 C19.6723, -9.47418 19.4448, -10.3569 19.03, -11.1236  C18.7723, -11.6039 18.4457, -12.0374 18.095, -12.3705  C17.8607, -12.5928 17.6238, -12.7668 17.384, -12.8924  C16.9115, -13.1411 16.4602, -13.1717 16.1345, -12.9814 " /><path d="M19.518, -8.67634 C19.5509, -9.26823 19.4116, -9.95749 19.1357, -10.6047  C18.9164, -11.1221 18.6123, -11.6109 18.2678, -12.0068  C17.9719, -12.3479 17.647, -12.6201 17.3282, -12.7971  C16.8355, -13.0731 16.3608, -13.1146 16.0222, -12.9166 " /><path d="M16.0222, -12.9166 Q15.8218, -12.8005 15.6893, -12.5858 " /><path d="M19.8411, -9.28377 C19.9133, -8.62803 19.7436, -8.08068 19.3959, -7.80099 " /><path d="M18.553, -11.8606 C18.7777, -11.6361 18.9854, -11.3699 19.1602, -11.0902  C19.2988, -10.8701 19.4169, -10.6378 19.5117, -10.4317 " /><path d="M19.8411, -9.28377 C19.802, -9.65214 19.6884, -10.0508 19.5117, -10.4317 " /></g>

</svg>
