<svg xmlns="http://www.w3.org/2000/svg" viewBox="-8.388275199999999 -7.760635199999999 36.291110399999994 15.521270399999999">
<rect width="100%" height="100%" fill="white"/>
<g   fill="none"
   stroke="rgb(0, 0, 0)"
   stroke-linecap="butt"
   stroke-linejoin="miter"
   stroke-width="0.35"
   transform="scale(1, -1)"
  >
<path d="M-5.88544 -1.547 A8.97302 8.97302 0 0 1 -4.318 -5.2578" /><path id= "2" d=" M -4.318 -5.2578 L 0 -5.2578 " />
<path d="M0.25, -3.175 C0.182127, -3.17597 0.123666, -3.19992 0.0746171, -3.24684  C0.0272469, -3.29309 -0.000275702, -3.3588 3.46945e-18, -3.425 " /><path id= "4" d=" M 0.25 -3.175 L 1.09138 -3.175 " />
<path d="M1.14666, 2.46688 Q1.13912, 2.45146 1.11074, 2.42822  Q1.06888, 2.39713 1.01206, 2.39601 " /><path d="M1.54665, 3.15582 L1.14666, 2.46688 " /><path id= "7" d=" M 2.20256 -3.175 L 2.36138 -3.175 " />
<path d="M0.881564, 2.46339 L0.478582, 3.15588 " /><path d="M1.51657, -2.46338 L1.11358, -3.15588 " /><path d="M1.77755, -2.46339 Q1.77134, -2.44993 1.74259, -2.42658  Q1.70208, -2.3971 1.64703, -2.396  Q1.58786, -2.39748 1.54645, -2.43041  Q1.52202, -2.45176 1.51657, -2.46338 " /><path d="M2.41255, 2.46339 Q2.40633, 2.44993 2.37759, 2.42658  Q2.33708, 2.39711 2.28205, 2.396 " /><path d="M1.01205, 2.39601 Q0.952881, 2.39748 0.911468, 2.43041  Q0.887023, 2.45176 0.881564, 2.46339 " /><path d="M2.18036, -3.15586 L1.77755, -2.46339 " /><path d="M2.81535, 3.15586 L2.41255, 2.46339 " /><path id= "15" d=" M 3.47256 -3.175 L 3.63138 -3.175 " />
<path d="M2.15156, 2.46338 L1.74858, 3.15588 " /><path d="M2.78656, -2.46337 L2.38358, -3.15588 " /><path d="M3.04754, -2.46338 Q3.04133, -2.44993 3.01259, -2.42657  Q2.97207, -2.3971 2.91703, -2.396  Q2.85786, -2.39748 2.81645, -2.43041  Q2.79202, -2.45176 2.78656, -2.46337 " /><path d="M3.68254, 2.46339 Q3.67633, 2.44993 3.64758, 2.42658  Q3.60708, 2.39711 3.55205, 2.396 " /><path d="M2.28205, 2.396 Q2.22288, 2.39748 2.18147, 2.4304  Q2.15702, 2.45176 2.15156, 2.46338 " /><path d="M3.45036, -3.15586 L3.04754, -2.46338 " /><path d="M4.08535, 3.15586 L3.68254, 2.46339 " /><path id= "23" d=" M 4.74257 -3.175 L 4.90138 -3.175 " />
<path d="M3.42156, 2.46338 L3.01858, 3.15588 " /><path d="M4.05656, -2.46337 L3.65358, -3.15588 " /><path d="M4.31754, -2.46338 Q4.31133, -2.44992 4.28258, -2.42657  Q4.24207, -2.39709 4.18702, -2.39599  Q4.12785, -2.39748 4.08645, -2.4304  Q4.06201, -2.45175 4.05656, -2.46337 " /><path d="M4.95254, 2.46338 Q4.94633, 2.44992 4.91758, 2.42657  Q4.87708, 2.3971 4.82204, 2.396 " /><path d="M3.55205, 2.396 Q3.49288, 2.39748 3.45146, 2.4304  Q3.42702, 2.45175 3.42156, 2.46338 " /><path d="M4.72036, -3.15587 L4.31754, -2.46338 " /><path d="M5.35536, 3.15586 L4.95254, 2.46338 " /><path id= "31" d=" M 6.01257 -3.175 L 6.17138 -3.175 " />
<path d="M4.69156, 2.46338 L4.28858, 3.15588 " /><path d="M5.32656, -2.46337 L4.92358, -3.15588 " /><path d="M5.58754, -2.46337 Q5.58133, -2.44992 5.55258, -2.42656  Q5.51207, -2.39709 5.45702, -2.39599  Q5.39785, -2.39748 5.35644, -2.4304  Q5.33201, -2.45175 5.32656, -2.46337 " /><path d="M6.22254, 2.46338 Q6.21632, 2.44992 6.18758, 2.42657  Q6.14707, 2.3971 6.09204, 2.39599 " /><path d="M4.82204, 2.396 Q4.76287, 2.39747 4.72146, 2.4304  Q4.69701, 2.45175 4.69156, 2.46338 " /><path d="M5.99037, -3.15587 L5.58754, -2.46337 " /><path d="M6.62536, 3.15586 L6.22254, 2.46338 " /><path id= "39" d=" M 7.28257 -3.175 L 7.44138 -3.175 " />
<path d="M5.96155, 2.46337 L5.55858, 3.15588 " /><path d="M6.59655, -2.46336 L6.19358, -3.15588 " /><path d="M6.85753, -2.46337 Q6.85132, -2.44991 6.82258, -2.42656  Q6.78206, -2.39708 6.72702, -2.39599  Q6.66785, -2.39747 6.62644, -2.4304  Q6.60201, -2.45175 6.59655, -2.46336 " /><path d="M7.49253, 2.46338 Q7.48632, 2.44992 7.45757, 2.42656  Q7.41707, 2.39709 7.36204, 2.39599 " /><path d="M6.09204, 2.39599 Q6.03287, 2.39747 5.99146, 2.43039  Q5.96701, 2.45175 5.96155, 2.46337 " /><path d="M7.26037, -3.15587 L6.85753, -2.46337 " /><path d="M7.89536, 3.15586 L7.49253, 2.46338 " /><path id= "47" d=" M 8.55258 -3.175 L 8.71138 -3.175 " />
<path d="M7.23155, 2.46337 L6.82858, 3.15588 " /><path d="M7.86655, -2.46336 L7.46358, -3.15588 " /><path d="M8.12753, -2.46337 Q8.12132, -2.44991 8.09257, -2.42656  Q8.05206, -2.39708 7.99701, -2.39598  Q7.93784, -2.39747 7.89644, -2.4304  Q7.87201, -2.45174 7.86655, -2.46336 " /><path d="M8.76253, 2.46337 Q8.75632, 2.44991 8.72757, 2.42656  Q8.68707, 2.39709 8.63203, 2.39599 " /><path d="M7.36204, 2.39599 Q7.30287, 2.39747 7.26145, 2.43039  Q7.23701, 2.45174 7.23155, 2.46337 " /><path d="M8.53038, -3.15587 L8.12753, -2.46337 " /><path d="M9.16537, 3.15586 L8.76253, 2.46337 " /><path id= "55" d=" M 9.82258 -3.175 L 9.98138 -3.175 " />
<path d="M8.50155, 2.46337 L8.09858, 3.15588 " /><path d="M9.13655, -2.46336 L8.73358, -3.15588 " /><path d="M9.39753, -2.46336 Q9.39132, -2.4499 9.36257, -2.42655  Q9.32206, -2.39708 9.26701, -2.39598  Q9.20784, -2.39747 9.16643, -2.43039  Q9.142, -2.45174 9.13655, -2.46336 " /><path d="M10.0325, 2.46337 Q10.0263, 2.44991 9.99757, 2.42656  Q9.95706, 2.39709 9.90203, 2.39598 " /><path d="M8.63203, 2.39599 Q8.57286, 2.39746 8.53145, 2.43039  Q8.507, 2.45174 8.50155, 2.46337 " /><path d="M9.80038, -3.15587 L9.39753, -2.46336 " /><path d="M10.4354, 3.15586 L10.0325, 2.46337 " /><path id= "63" d=" M 11.0926 -3.175 L 11.2514 -3.175 " />
<path d="M9.77154, 2.46336 L9.36858, 3.15587 " /><path d="M10.4065, -2.46335 L10.0036, -3.15588 " /><path d="M10.6675, -2.46336 Q10.6613, -2.4499 10.6326, -2.42655  Q10.5921, -2.39707 10.537, -2.39598  Q10.4778, -2.39746 10.4364, -2.43039  Q10.412, -2.45174 10.4065, -2.46335 " /><path d="M11.3025, 2.46336 Q11.2963, 2.4499 11.2676, 2.42655  Q11.2271, 2.39708 11.172, 2.39598 " /><path d="M9.90203, 2.39598 Q9.84286, 2.39746 9.80145, 2.43038  Q9.777, 2.45174 9.77154, 2.46336 " /><path d="M11.0704, -3.15587 L10.6675, -2.46336 " /><path d="M11.7054, 3.15586 L11.3025, 2.46336 " /><path id= "71" d=" M 12.3626 -3.175 L 12.5214 -3.175 " />
<path d="M11.0415, 2.46336 L10.6386, 3.15587 " /><path d="M11.6765, -2.46335 L11.2736, -3.15588 " /><path d="M11.9375, -2.46336 Q11.9313, -2.4499 11.9026, -2.42654  Q11.862, -2.39707 11.807, -2.39597  Q11.7478, -2.39746 11.7064, -2.43039  Q11.682, -2.45173 11.6765, -2.46335 " /><path d="M12.5725, 2.46336 Q12.5663, 2.4499 12.5376, 2.42655  Q12.4971, 2.39708 12.442, 2.39598 " /><path d="M11.172, 2.39598 Q11.1129, 2.39746 11.0714, 2.43038  Q11.047, 2.45174 11.0415, 2.46336 " /><path d="M12.3404, -3.15587 L11.9375, -2.46336 " /><path d="M12.9754, 3.15586 L12.5725, 2.46336 " /><path id= "79" d=" M 13.6326 -3.175 L 13.7914 -3.175 " />
<path d="M12.3115, 2.46336 L11.9086, 3.15587 " /><path d="M12.9465, -2.46335 L12.5436, -3.15588 " /><path d="M13.2075, -2.46335 Q13.2013, -2.44989 13.1726, -2.42654  Q13.132, -2.39707 13.077, -2.39597  Q13.0178, -2.39746 12.9764, -2.43038  Q12.952, -2.45173 12.9465, -2.46335 " /><path d="M13.8425, 2.46336 Q13.8363, 2.4499 13.8076, 2.42654  Q13.7671, 2.39708 13.712, 2.39597 " /><path d="M12.442, 2.39598 Q12.3829, 2.39745 12.3414, 2.43038  Q12.317, 2.45173 12.3115, 2.46336 " /><path d="M13.6104, -3.15587 L13.2075, -2.46335 " /><path d="M14.2454, 3.15586 L13.8425, 2.46336 " /><path id= "87" d=" M 14.9026 -3.175 L 15.0614 -3.175 " />
<path d="M13.5815, 2.46335 L13.1786, 3.15587 " /><path d="M14.2165, -2.46334 L13.8136, -3.15588 " /><path d="M14.4775, -2.46335 Q14.4713, -2.44989 14.4426, -2.42654  Q14.402, -2.39706 14.347, -2.39597  Q14.2878, -2.39745 14.2464, -2.43038  Q14.222, -2.45173 14.2165, -2.46334 " /><path d="M15.1125, 2.46335 Q15.1063, 2.44989 15.0776, 2.42654  Q15.037, 2.39707 14.982, 2.39597 " /><path d="M13.712, 2.39597 Q13.6529, 2.39745 13.6114, 2.43037  Q13.587, 2.45173 13.5815, 2.46335 " /><path d="M14.8804, -3.15587 L14.4775, -2.46335 " /><path d="M15.5154, 3.15586 L15.1125, 2.46335 " /><path id= "95" d=" M 16.1726 -3.175 L 16.3314 -3.175 " />
<path d="M14.8515, 2.46335 L14.4486, 3.15587 " /><path d="M15.4865, -2.46334 L15.0836, -3.15588 " /><path d="M15.7475, -2.46334 Q15.7413, -2.44988 15.7126, -2.42653  Q15.672, -2.39706 15.617, -2.39596  Q15.5578, -2.39745 15.5164, -2.43038  Q15.492, -2.45173 15.4865, -2.46334 " /><path d="M16.3825, 2.46335 Q16.3763, 2.44989 16.3476, 2.42654  Q16.307, 2.39707 16.252, 2.39597 " /><path d="M14.982, 2.39597 Q14.9228, 2.39745 14.8814, 2.43037  Q14.857, 2.45173 14.8515, 2.46335 " /><path d="M16.1504, -3.15587 L15.7475, -2.46334 " /><path d="M16.7854, 3.15586 L16.3825, 2.46335 " /><path id= "103" d=" M 17.4426 -3.175 L 17.6014 -3.175 " />
<path d="M16.1215, 2.46335 L15.7186, 3.15587 " /><path d="M16.7565, -2.46334 L16.3536, -3.15587 " /><path d="M17.0175, -2.46334 Q17.0113, -2.44988 16.9826, -2.42653  Q16.942, -2.39705 16.887, -2.39596  Q16.8278, -2.39745 16.7864, -2.43037  Q16.762, -2.45172 16.7565, -2.46334 " /><path d="M17.6525, 2.46335 Q17.6463, 2.44988 17.6175, 2.42653  Q17.577, 2.39707 17.522, 2.39596 " /><path d="M16.252, 2.39597 Q16.1928, 2.39744 16.1514, 2.43037  Q16.127, 2.45172 16.1215, 2.46335 " /><path d="M17.4204, -3.15587 L17.0175, -2.46334 " /><path d="M18.0554, 3.15586 L17.6525, 2.46335 " /><path id= "111" d=" M 18.7126 -3.175 L 18.8714 -3.175 " />
<path d="M17.3915, 2.46334 L16.9886, 3.15587 " /><path d="M18.0265, -2.46333 L17.6236, -3.15587 " /><path d="M18.2875, -2.46334 Q18.2813, -2.44988 18.2525, -2.42653  Q18.212, -2.39705 18.157, -2.39596  Q18.0978, -2.39744 18.0564, -2.43037  Q18.032, -2.45172 18.0265, -2.46333 " /><path d="M18.9225, 2.46334 Q18.9163, 2.44988 18.8875, 2.42653  Q18.847, 2.39706 18.792, 2.39596 " /><path d="M17.522, 2.39596 Q17.4628, 2.39744 17.4214, 2.43036  Q17.397, 2.45172 17.3915, 2.46334 " /><path d="M18.6904, -3.15587 L18.2875, -2.46334 " /><path d="M19.3254, 3.15586 L18.9225, 2.46334 " /><path id= "119" d=" M 19.9826 -3.175 L 20.1414 -3.175 " />
<path d="M18.6615, 2.46334 L18.2586, 3.15587 " /><path d="M19.2965, -2.46333 L18.8936, -3.15587 " /><path d="M19.5575, -2.46333 Q19.5513, -2.44987 19.5225, -2.42652  Q19.482, -2.39705 19.427, -2.39595  Q19.3678, -2.39744 19.3264, -2.43037  Q19.302, -2.45172 19.2965, -2.46333 " /><path d="M20.1925, 2.46334 Q20.1863, 2.44987 20.1575, 2.42652  Q20.117, 2.39706 20.062, 2.39596 " /><path d="M18.792, 2.39596 Q18.7328, 2.39744 18.6914, 2.43036  Q18.667, 2.45172 18.6615, 2.46334 " /><path d="M19.9604, -3.15587 L19.5575, -2.46333 " /><path d="M20.5954, 3.15586 L20.1925, 2.46334 " /><path id= "127" d=" M 21.2526 -3.175 L 21.4114 -3.175 " />
<path d="M19.9315, 2.46334 L19.5286, 3.15587 " /><path d="M20.5665, -2.46333 L20.1636, -3.15587 " /><path d="M20.8275, -2.46333 Q20.8213, -2.44987 20.7925, -2.42652  Q20.752, -2.39704 20.697, -2.39595  Q20.6378, -2.39744 20.5964, -2.43036  Q20.572, -2.45171 20.5665, -2.46333 " /><path d="M21.4625, 2.46333 Q21.4563, 2.44987 21.4275, 2.42652  Q21.387, 2.39706 21.332, 2.39595 " /><path d="M20.062, 2.39596 Q20.0028, 2.39743 19.9614, 2.43036  Q19.937, 2.45171 19.9315, 2.46334 " /><path d="M21.2304, -3.15587 L20.8275, -2.46333 " /><path d="M21.8654, 3.15586 L21.4625, 2.46333 " /><path id= "135" d=" M 22.5226 -3.175 L 22.6814 -3.175 " />
<path d="M21.2015, 2.46333 L20.7986, 3.15587 " /><path d="M21.8365, -2.46332 L21.4336, -3.15587 " /><path d="M22.0975, -2.46333 Q22.0913, -2.44986 22.0625, -2.42651  Q22.022, -2.39704 21.967, -2.39595  Q21.9078, -2.39743 21.8664, -2.43036  Q21.842, -2.45171 21.8365, -2.46332 " /><path d="M22.7325, 2.46333 Q22.7263, 2.44987 22.6975, 2.42652  Q22.657, 2.39705 22.602, 2.39595 " /><path d="M21.332, 2.39595 Q21.2728, 2.39743 21.2314, 2.43035  Q21.207, 2.45171 21.2015, 2.46333 " /><path d="M22.5004, -3.15587 L22.0975, -2.46333 " /><path d="M23.1354, 3.15586 L22.7325, 2.46333 " /><path id= "143" d=" M 23.7926 -3.175 L 23.9514 -3.175 " />
<path d="M22.4715, 2.46333 L22.0686, 3.15587 " /><path d="M23.1065, -2.46332 L22.7036, -3.15587 " /><path d="M23.3675, -2.46332 Q23.3613, -2.44986 23.3325, -2.42651  Q23.292, -2.39704 23.237, -2.39594  Q23.1778, -2.39743 23.1364, -2.43036  Q23.112, -2.45171 23.1065, -2.46332 " /><path d="M24.0025, 2.46333 Q23.9963, 2.44986 23.9675, 2.42651  Q23.927, 2.39705 23.872, 2.39594 " /><path d="M22.602, 2.39595 Q22.5428, 2.39743 22.5014, 2.43035  Q22.477, 2.45171 22.4715, 2.46333 " /><path d="M23.7704, -3.15587 L23.3675, -2.46332 " /><path d="M24.4054, 3.15586 L24.0025, 2.46333 " /><path id= "151" d=" M 25.0626 -3.175 L 25.2214 -3.175 " />
<path d="M23.7415, 2.46333 L23.3386, 3.15587 " /><path d="M24.3765, -2.46332 L23.9736, -3.15587 " /><path d="M24.6375, -2.46332 Q24.6313, -2.44986 24.6025, -2.42651  Q24.562, -2.39703 24.507, -2.39594  Q24.4478, -2.39743 24.4064, -2.43036  Q24.382, -2.45171 24.3765, -2.46332 " /><path d="M25.2725, 2.46332 Q25.2663, 2.44986 25.2375, 2.42651  Q25.197, 2.39704 25.142, 2.39594 " /><path d="M23.872, 2.39594 Q23.8128, 2.39742 23.7714, 2.43035  Q23.747, 2.4517 23.7415, 2.46333 " /><path d="M25.0404, -3.15587 L24.6375, -2.46332 " /><path d="M25.2725, 2.46332 L25.4, 2.68219 " /><path d="M25.0115, 2.46332 L24.6086, 3.15587 " /><path d="M25.2436, -3.15587 L25.4, -2.88671 " /><path d="M25.142, 2.39594 Q25.0828, 2.39742 25.0414, 2.43034  Q25.017, 2.4517 25.0115, 2.46332 " /></g>
<g   fill="none"
   stroke="rgb(0, 0, 0)"
   stroke-linecap="butt"
   stroke-linejoin="miter"
   stroke-width="0.35"
   transform="scale(1, -1)"
  >
<path d="M-5.4344 2.54692 A8.97212 5.59834 174.25 0 1 -5.77379 1.83691" />
<path d="M-5.4344, 2.54692 Q-5.4344, 2.27609 -5.4344, 1.91732 " /><path d="M-5.77379 0.99 A8.97212 6.97597 7.15173 0 0 -5.4344 1.91732" />
<path d="M-5.88544 1.82354e-14 A8.95118 8.52427 18.3157 0 0 -5.77379 0.99" />
<path d="M-5.77379 -0.99 A8.95118 8.52427 161.684 0 0 -5.88544 -2.18991e-14" />
<path d="M-5.4344 -1.91732 A8.97212 6.97597 172.848 0 0 -5.77379 -0.99" />
<path d="M-5.4344, -1.91732 Q-5.4344, -2.27609 -5.4344, -2.54692 " /><path d="M-5.77379 -1.83691 A8.97212 5.59834 5.75 0 1 -5.4344 -2.54692" />
<path d="M-5.88544 -1.547 A8.95118 2.59302 5.75 0 1 -5.77379 -1.83691" />
<path d="M-5.88544 1.547 A8.97302 8.97302 0 0 0 -4.318 5.2578" /><path d="M-4.318, -5.2578 L-4.318, -5.12598  L-4.318, -4.73711  L-4.318, -4.11071  L-4.318, -3.27818  L-4.318, -2.28127  L-4.318, -1.16997  L-4.318, -8.88178e-16  L-4.318, 1.16997  L-4.318, 2.28127  L-4.318, 3.27818  L-4.318, 4.11071  L-4.318, 4.73711  L-4.318, 5.12598  L-4.318, 5.2578 " /><path d="M-5.77379 1.83691 A8.95118 2.59302 174.25 0 1 -5.88544 1.547" />
<path id= "13" d=" M -5.77379 1.83691 L -5.48342 1.80767 " />
<path id= "14" d=" M -5.88544 1.547 L -5.60109 1.51837 " />
<path id= "15" d=" M -5.77379 -1.83691 L -5.48342 -1.80767 " />
<path id= "16" d=" M -5.88544 -1.547 L -5.60109 -1.51837 " />
<path id= "17" d=" M -4.318 5.2578 L 0 5.2578 " />
<path d="M0, -5.2578 L0, -5.12598  L0, -4.73711  L0, -4.11071  L0, -3.27818  L0, -2.28127  L0, -1.16997  L0, -8.88178e-16  L0, 1.16997  L0, 2.28127  L0, 3.27818  L0, 4.11071  L0, 4.73711  L0, 5.12598  L0, 5.2578 " /><path d="M0 3.425 A0.25 0.25 0 0 1 0.25 3.175" /><path d="M1.54665, 3.15582 Q1.55776, 3.17499 1.56756, 3.175 " /><path id= "21" d=" M 1.56756 3.175 L 1.72639 3.175 " />
<path d="M0.456386, 3.175 Q0.467484, 3.17499 0.478582, 3.15588 " /><path d="M0.478582, 3.15588 C0.526618, 3.07542 0.574646, 2.71487 0.622681, 2.15969  C0.680362, 1.49746 0.738043, 0.559671 0.795719, -0.342294  C0.839981, -1.03417 0.884245, -1.69798 0.928508, -2.19874  C0.982801, -2.8175 1.03709, -3.17872 1.09138, -3.175 " /><path d="M1.09138, -3.175 Q1.10248, -3.17499 1.11358, -3.15588 " /><path id= "25" d=" M 0.25 3.175 L 0.456386 3.175 " />
<path d="M1.17081, 2.48768 C1.13919, 2.43173 1.07633, 2.39543 1.01206, 2.39601 " /><path d="M1.01206, 2.39601 L1.01205, 2.39601 " /><path d="M1.56756, 3.175 L1.17081, 2.48768 " /><path id= "29" d=" M 2.83756 3.175 L 2.99638 3.175 " />
<path d="M1.72639, 3.175 Q1.73748, 3.17499 1.74858, 3.15588 " /><path d="M1.74858, 3.15588 C1.79662, 3.07542 1.84465, 2.71487 1.89268, 2.1597  C1.95036, 1.49748 2.00804, 0.559724 2.06571, -0.342224  C2.1099, -1.03284 2.15408, -1.69551 2.19826, -2.19594  C2.25264, -2.81638 2.30701, -3.17874 2.36138, -3.175 " /><path d="M2.36138, -3.175 Q2.37248, -3.17499 2.38358, -3.15588 " /><path d="M1.56756, 3.175 C1.61263, 3.17681 1.65771, 2.93146 1.70278, 2.49059  C1.76879, 1.85155 1.8348, 0.78941 1.9008, -0.247097  C1.94436, -0.929758 1.98791, -1.59227 2.03147, -2.10395  C2.0811, -2.69015 2.13073, -3.07294 2.18036, -3.15586 " /><path d="M2.18036, -3.15586 Q2.19146, -3.17499 2.20256, -3.175 " /><path d="M2.81535, 3.15586 Q2.82645, 3.17499 2.83756, 3.175 " /><path id= "36" d=" M 4.10756 3.175 L 4.26638 3.175 " />
<path d="M2.99638, 3.175 Q3.00748, 3.17499 3.01858, 3.15588 " /><path d="M3.01858, 3.15588 C3.06662, 3.07542 3.11464, 2.71487 3.16268, 2.15971  C3.22036, 1.4975 3.27804, 0.559771 3.33571, -0.34216  C3.38055, -1.04315 3.4254, -1.71522 3.47024, -2.2183  C3.52396, -2.82534 3.57767, -3.17857 3.63138, -3.175 " /><path d="M3.63138, -3.175 Q3.64248, -3.17499 3.65358, -3.15588 " /><path d="M2.83756, 3.175 C2.88259, 3.1768 2.92763, 2.9319 2.97267, 2.49175  C3.03908, 1.84933 3.10549, 0.778202 3.1719, -0.264227  C3.21493, -0.938366 3.25796, -1.59172 3.301, -2.09832  C3.35078, -2.68765 3.40058, -3.07269 3.45036, -3.15586 " /><path d="M3.45036, -3.15586 Q3.46146, -3.17499 3.47256, -3.175 " /><path d="M4.08535, 3.15586 Q4.09646, 3.17499 4.10756, 3.175 " /><path id= "43" d=" M 5.37757 3.175 L 5.53638 3.175 " />
<path d="M4.26638, 3.175 Q4.27748, 3.17499 4.28858, 3.15588 " /><path d="M4.28858, 3.15588 C4.33662, 3.07542 4.38464, 2.71487 4.43268, 2.15971  C4.49035, 1.49753 4.54803, 0.559829 4.6057, -0.342081  C4.65091, -1.04874 4.69611, -1.72594 4.74132, -2.23039  C4.79467, -2.83018 4.84803, -3.17848 4.90138, -3.175 " /><path d="M4.90138, -3.175 Q4.91248, -3.17499 4.92358, -3.15588 " /><path d="M4.10756, 3.175 C4.15255, 3.1768 4.19755, 2.93238 4.24254, 2.493  C4.30888, 1.85185 4.37521, 0.782789 4.44154, -0.258585  C4.48429, -0.928287 4.52703, -1.57793 4.56977, -2.08383  C4.61997, -2.6812 4.67017, -3.07207 4.72036, -3.15587 " /><path d="M4.72036, -3.15587 Q4.73146, -3.17499 4.74257, -3.175 " /><path d="M5.35536, 3.15586 Q5.36646, 3.17499 5.37757, 3.175 " /><path id= "50" d=" M 6.64757 3.175 L 6.80638 3.175 " />
<path d="M5.53638, 3.175 Q5.54748, 3.17499 5.55858, 3.15588 " /><path d="M5.55858, 3.15588 C5.60662, 3.07542 5.65464, 2.71488 5.70268, 2.15972  C5.76035, 1.49755 5.81803, 0.559874 5.8757, -0.342021  C5.92077, -1.04662 5.96585, -1.72195 6.01092, -2.22592  C6.06441, -2.82839 6.11789, -3.17851 6.17138, -3.175 " /><path d="M6.17138, -3.175 Q6.18248, -3.17499 6.19358, -3.15588 " /><path d="M5.37757, 3.175 C5.42251, 3.17679 5.46746, 2.93288 5.51241, 2.49431  C5.57861, 1.85502 5.6448, 0.789427 5.711, -0.250006  C5.75393, -0.922817 5.79686, -1.57596 5.83979, -2.08405  C5.88998, -2.6813 5.94018, -3.07208 5.99037, -3.15587 " /><path d="M5.99037, -3.15587 Q6.00147, -3.17499 6.01257, -3.175 " /><path d="M6.62536, 3.15586 Q6.63647, 3.17499 6.64757, 3.175 " /><path id= "57" d=" M 7.91757 3.175 L 8.07638 3.175 " />
<path d="M6.80638, 3.175 Q6.81748, 3.17499 6.82858, 3.15588 " /><path d="M6.82858, 3.15588 C6.87662, 3.07542 6.92464, 2.71488 6.97268, 2.15973  C7.03035, 1.49757 7.08803, 0.559908 7.1457, -0.341976  C7.19062, -1.04431 7.23555, -1.7176 7.28048, -2.22104  C7.33412, -2.82644 7.38775, -3.17855 7.44138, -3.175 " /><path d="M7.44138, -3.175 Q7.45248, -3.17499 7.46358, -3.15588 " /><path d="M6.64757, 3.175 C6.69247, 3.17678 6.73737, 2.93341 6.78227, 2.49573  C6.84854, 1.85633 6.91481, 0.789396 6.98108, -0.251168  C7.02398, -0.923509 7.06688, -1.57613 7.10979, -2.08391  C7.15998, -2.68124 7.21018, -3.07208 7.26037, -3.15587 " /><path d="M7.26037, -3.15587 Q7.27147, -3.17499 7.28257, -3.175 " /><path d="M7.89536, 3.15586 Q7.90647, 3.17499 7.91757, 3.175 " /><path id= "64" d=" M 9.18758 3.175 L 9.34638 3.175 " />
<path d="M8.07638, 3.175 Q8.08748, 3.17499 8.09858, 3.15588 " /><path d="M8.09858, 3.15588 C8.14661, 3.07542 8.19464, 2.71488 8.24267, 2.15973  C8.30035, 1.4976 8.35802, 0.559976 8.41569, -0.341884  C8.46048, -1.04207 8.50527, -1.71343 8.55007, -2.21636  C8.60384, -2.82457 8.65761, -3.17859 8.71138, -3.175 " /><path d="M8.71138, -3.175 Q8.72248, -3.17499 8.73358, -3.15588 " /><path d="M7.91757, 3.175 C7.96241, 3.17677 8.00725, 2.93409 8.05209, 2.4975  C8.11855, 1.85705 8.18501, 0.786157 8.25147, -0.25726  C8.29479, -0.935996 8.3381, -1.59412 8.38142, -2.10315  C8.43107, -2.6898 8.48073, -3.07291 8.53038, -3.15587 " /><path d="M8.53038, -3.15587 Q8.54148, -3.17499 8.55258, -3.175 " /><path d="M9.16537, 3.15586 Q9.17647, 3.17499 9.18758, 3.175 " /><path id= "71" d=" M 10.4576 3.175 L 10.6164 3.175 " />
<path d="M9.34638, 3.175 Q9.35748, 3.17499 9.36858, 3.15587 " /><path d="M9.36858, 3.15587 C9.41661, 3.07542 9.46464, 2.71488 9.51267, 2.15974  C9.57035, 1.49762 9.62802, 0.560019 9.68569, -0.341827  C9.73089, -1.04856 9.7761, -1.72584 9.82131, -2.23034  C9.87467, -2.83016 9.92802, -3.17848 9.98138, -3.175 " /><path d="M9.98138, -3.175 Q9.99248, -3.17499 10.0036, -3.15588 " /><path d="M9.18758, 3.175 C9.23236, 3.17676 9.27715, 2.93467 9.32193, 2.49905  C9.38858, 1.85743 9.45524, 0.78249 9.52189, -0.263784  C9.56491, -0.937689 9.60792, -1.59086 9.65094, -2.09745  C9.70075, -2.68726 9.75057, -3.07266 9.80038, -3.15587 " /><path d="M9.80038, -3.15587 Q9.81148, -3.17499 9.82258, -3.175 " /><path d="M10.4354, 3.15586 Q10.4465, 3.17499 10.4576, 3.175 " /><path id= "78" d=" M 11.7276 3.175 L 11.8864 3.175 " />
<path d="M10.6164, 3.175 Q10.6275, 3.17499 10.6386, 3.15587 " /><path d="M10.6386, 3.15587 C10.6866, 3.07542 10.7346, 2.71489 10.7827, 2.15975  C10.8403, 1.49766 10.898, 0.560117 10.9557, -0.341694  C11.0006, -1.04327 11.0454, -1.7159 11.0903, -2.21919  C11.144, -2.8257 11.1977, -3.17856 11.2514, -3.175 " /><path d="M11.2514, -3.175 Q11.2625, -3.17499 11.2736, -3.15588 " /><path d="M10.4576, 3.175 C10.5023, 3.17675 10.547, 2.93551 10.5917, 2.50127  C10.6581, 1.863 10.7245, 0.794444 10.7909, -0.24824  C10.8344, -0.929869 10.8779, -1.59134 10.9214, -2.10253  C10.971, -2.68953 11.0207, -3.07288 11.0704, -3.15587 " /><path d="M11.0704, -3.15587 Q11.0815, -3.17499 11.0926, -3.175 " /><path d="M11.7054, 3.15586 Q11.7165, 3.17499 11.7276, 3.175 " /><path id= "85" d=" M 12.9976 3.175 L 13.1564 3.175 " />
<path d="M11.8864, 3.175 Q11.8975, 3.17499 11.9086, 3.15587 " /><path d="M11.9086, 3.15587 C11.9566, 3.07542 12.0046, 2.71489 12.0527, 2.15976  C12.1103, 1.49768 12.168, 0.560169 12.2257, -0.341625  C12.2707, -1.04488 12.3156, -1.71904 12.3606, -2.22275  C12.4142, -2.82712 12.4678, -3.17854 12.5214, -3.175 " /><path d="M12.5214, -3.175 Q12.5325, -3.17499 12.5436, -3.15588 " /><path d="M11.7276, 3.175 C11.7722, 3.17675 11.8169, 2.93597 11.8616, 2.50249  C11.9284, 1.86125 11.9951, 0.784525 12.0619, -0.263561  C12.1049, -0.937342 12.1479, -1.59041 12.1909, -2.09699  C12.2407, -2.68706 12.2906, -3.07265 12.3404, -3.15587 " /><path d="M12.3404, -3.15587 Q12.3515, -3.17499 12.3626, -3.175 " /><path d="M12.9754, 3.15586 Q12.9865, 3.17499 12.9976, 3.175 " /><path id= "92" d=" M 14.2676 3.175 L 14.4264 3.175 " />
<path d="M13.1564, 3.175 Q13.1675, 3.17499 13.1786, 3.15587 " /><path d="M13.1786, 3.15587 C13.2266, 3.07542 13.2746, 2.71489 13.3227, 2.15977  C13.3803, 1.49771 13.438, 0.56023 13.4957, -0.341542  C13.5408, -1.04686 13.5859, -1.72288 13.631, -2.22709  C13.6845, -2.82886 13.7379, -3.1785 13.7914, -3.175 " /><path d="M13.7914, -3.175 Q13.8025, -3.17499 13.8136, -3.15588 " /><path d="M12.9976, 3.175 C13.0422, 3.17673 13.0867, 2.93695 13.1313, 2.50508  C13.1982, 1.8642 13.265, 0.786262 13.3319, -0.263102  C13.3748, -0.936613 13.4178, -1.58947 13.4608, -2.09602  C13.5107, -2.68663 13.5605, -3.07261 13.6104, -3.15587 " /><path d="M13.6104, -3.15587 Q13.6215, -3.17499 13.6326, -3.175 " /><path d="M14.2454, 3.15586 Q14.2565, 3.17499 14.2676, 3.175 " /><path id= "99" d=" M 15.5376 3.175 L 15.6964 3.175 " />
<path d="M14.4264, 3.175 Q14.4375, 3.17499 14.4486, 3.15587 " /><path d="M14.4486, 3.15587 C14.4966, 3.07541 14.5446, 2.71489 14.5927, 2.15978  C14.6503, 1.49773 14.708, 0.560266 14.7657, -0.341494  C14.8131, -1.08317 14.8605, -1.79188 14.908, -2.30352  C14.9591, -2.85916 15.0102, -3.17795 15.0614, -3.175 " /><path d="M15.0614, -3.175 Q15.0725, -3.17499 15.0836, -3.15588 " /><path d="M14.2676, 3.175 C14.3136, 3.17697 14.3597, 2.92057 14.4057, 2.46198  C14.4709, 1.81969 14.536, 0.770876 14.6011, -0.251649  C14.6445, -0.930757 14.6878, -1.58964 14.7311, -2.09955  C14.7809, -2.68821 14.8306, -3.07276 14.8804, -3.15587 " /><path d="M14.8804, -3.15587 Q14.8915, -3.17499 14.9026, -3.175 " /><path d="M15.5154, 3.15586 Q15.5265, 3.17499 15.5376, 3.175 " /><path id= "106" d=" M 16.8076 3.175 L 16.9664 3.175 " />
<path d="M15.6964, 3.175 Q15.7075, 3.17499 15.7186, 3.15587 " /><path d="M15.7186, 3.15587 C15.7666, 3.07541 15.8146, 2.71489 15.8627, 2.15978  C15.9203, 1.49773 15.978, 0.560277 16.0357, -0.341479  C16.0808, -1.04738 16.126, -1.72394 16.1711, -2.2283  C16.2245, -2.82934 16.278, -3.17849 16.3314, -3.175 " /><path d="M16.3314, -3.175 Q16.3425, -3.17499 16.3536, -3.15587 " /><path d="M15.5376, 3.175 C15.5823, 3.17675 15.627, 2.93549 15.6717, 2.50121  C15.7381, 1.86334 15.8044, 0.795812 15.8708, -0.24621  C15.9144, -0.929283 15.9579, -1.59225 16.0015, -2.10417  C16.0511, -2.69026 16.1008, -3.07296 16.1504, -3.15587 " /><path d="M16.1504, -3.15587 Q16.1615, -3.17499 16.1726, -3.175 " /><path d="M16.7854, 3.15586 Q16.7965, 3.17499 16.8076, 3.175 " /><path id= "113" d=" M 18.0776 3.175 L 18.2364 3.175 " />
<path d="M16.9664, 3.175 Q16.9775, 3.17499 16.9886, 3.15587 " /><path d="M16.9886, 3.15587 C17.0366, 3.07541 17.0846, 2.7149 17.1327, 2.15979  C17.1903, 1.49777 17.248, 0.560366 17.3057, -0.341359  C17.3498, -1.03222 17.394, -1.69518 17.4382, -2.1958  C17.4926, -2.81632 17.547, -3.17874 17.6014, -3.175 " /><path d="M17.6014, -3.175 Q17.6125, -3.17499 17.6236, -3.15587 " /><path d="M16.8076, 3.175 C16.8526, 3.17679 16.8975, 2.93264 16.9425, 2.4937  C17.0088, 1.85348 17.075, 0.786123 17.1413, -0.254309  C17.1841, -0.924175 17.2268, -1.57427 17.2696, -2.0808  C17.3198, -2.67986 17.3701, -3.07196 17.4204, -3.15587 " /><path d="M17.4204, -3.15587 Q17.4315, -3.17499 17.4426, -3.175 " /><path d="M18.0554, 3.15586 Q18.0665, 3.17499 18.0776, 3.175 " /><path id= "120" d=" M 19.3476 3.175 L 19.5064 3.175 " />
<path d="M18.2364, 3.175 Q18.2475, 3.17499 18.2586, 3.15587 " /><path d="M18.2586, 3.15587 C18.3066, 3.07541 18.3546, 2.7149 18.4027, 2.1598  C18.4603, 1.4978 18.518, 0.560427 18.5756, -0.341278  C18.6205, -1.04295 18.6654, -1.71569 18.7103, -2.21907  C18.764, -2.82565 18.8177, -3.17856 18.8714, -3.175 " /><path d="M18.8714, -3.175 Q18.8825, -3.17499 18.8936, -3.15587 " /><path d="M18.0776, 3.175 C18.1225, 3.17678 18.1674, 2.93362 18.2122, 2.49628  C18.2787, 1.85549 18.3451, 0.784758 18.4116, -0.258318  C18.4544, -0.929126 18.4972, -1.57981 18.54, -2.08612  C18.5901, -2.68223 18.6403, -3.07219 18.6904, -3.15587 " /><path d="M18.6904, -3.15587 Q18.7015, -3.17499 18.7126, -3.175 " /><path d="M19.3254, 3.15586 Q19.3365, 3.17499 19.3476, 3.175 " /><path id= "127" d=" M 20.6176 3.175 L 20.7764 3.175 " />
<path d="M19.5064, 3.175 Q19.5175, 3.17499 19.5286, 3.15587 " /><path d="M19.5286, 3.15587 C19.5766, 3.07541 19.6246, 2.7149 19.6727, 2.15981  C19.7307, 1.493 19.7888, 0.546662 19.8469, -0.361008  C19.8907, -1.04496 19.9345, -1.70017 19.9783, -2.19609  C20.0326, -2.81644 20.087, -3.17874 20.1414, -3.175 " /><path d="M20.1414, -3.175 Q20.1525, -3.17499 20.1636, -3.15587 " /><path d="M19.3476, 3.175 C19.3922, 3.17674 19.4369, 2.93641 19.4815, 2.50364  C19.5481, 1.86395 19.6148, 0.790087 19.6814, -0.256426  C19.7247, -0.933481 19.7679, -1.59011 19.8111, -2.09871  C19.8609, -2.68783 19.9106, -3.07273 19.9604, -3.15587 " /><path d="M19.9604, -3.15587 Q19.9715, -3.17499 19.9826, -3.175 " /><path d="M20.5954, 3.15586 Q20.6065, 3.17499 20.6176, 3.175 " /><path id= "134" d=" M 21.8876 3.175 L 22.0464 3.175 " />
<path d="M20.7764, 3.175 Q20.7875, 3.17499 20.7986, 3.15587 " /><path d="M20.7986, 3.15587 C20.8466, 3.07541 20.8946, 2.71491 20.9427, 2.15981  C21.0003, 1.49786 21.058, 0.560552 21.1156, -0.34111  C21.1598, -1.03151 21.204, -1.69407 21.2481, -2.19461  C21.3025, -2.81584 21.357, -3.17875 21.4114, -3.175 " /><path d="M21.4114, -3.175 Q21.4225, -3.17499 21.4336, -3.15587 " /><path d="M20.6176, 3.175 C20.6621, 3.17673 20.7067, 2.9375 20.7512, 2.50651  C20.818, 1.86647 20.8848, 0.789443 20.9517, -0.259637  C20.9943, -0.92805 21.037, -1.57642 21.0796, -2.08175  C21.1299, -2.68029 21.1802, -3.072 21.2304, -3.15587 " /><path d="M21.2304, -3.15587 Q21.2415, -3.17499 21.2526, -3.175 " /><path d="M21.8654, 3.15586 Q21.8765, 3.17499 21.8876, 3.175 " /><path id= "141" d=" M 23.1576 3.175 L 23.3164 3.175 " />
<path d="M22.0464, 3.175 Q22.0575, 3.17499 22.0686, 3.15587 " /><path d="M22.0686, 3.15587 C22.1166, 3.07541 22.1646, 2.7149 22.2127, 2.1598  C22.2703, 1.49782 22.328, 0.560457 22.3856, -0.341237  C22.4298, -1.03216 22.474, -1.69518 22.5182, -2.19584  C22.5726, -2.81634 22.627, -3.17874 22.6814, -3.175 " /><path d="M22.6814, -3.175 Q22.6925, -3.17499 22.7036, -3.15587 " /><path d="M21.8876, 3.175 C21.9326, 3.17679 21.9775, 2.93284 22.0225, 2.49421  C22.0887, 1.85474 22.1549, 0.788781 22.2211, -0.250864  C22.2646, -0.932099 22.308, -1.59301 22.3515, -2.10371  C22.4011, -2.69006 22.4508, -3.07294 22.5004, -3.15587 " /><path d="M22.5004, -3.15587 Q22.5115, -3.17499 22.5226, -3.175 " /><path d="M23.1354, 3.15586 Q23.1465, 3.17499 23.1576, 3.175 " /><path id= "148" d=" M 24.4276 3.175 L 24.5864 3.175 " />
<path d="M23.3164, 3.175 Q23.3275, 3.17499 23.3386, 3.15587 " /><path d="M23.3386, 3.15587 C23.3866, 3.07541 23.4346, 2.71491 23.4827, 2.15983  C23.5403, 1.49791 23.598, 0.560667 23.6556, -0.340955  C23.6999, -1.03324 23.7442, -1.69752 23.7885, -2.19858  C23.8428, -2.81744 23.8971, -3.17872 23.9514, -3.175 " /><path d="M23.9514, -3.175 Q23.9625, -3.17499 23.9736, -3.15587 " /><path d="M23.1576, 3.175 C23.2022, 3.17673 23.2467, 2.93731 23.2912, 2.50603  C23.3579, 1.86772 23.4245, 0.795294 23.4911, -0.250787  C23.5345, -0.93107 23.5779, -1.5911 23.6213, -2.10152  C23.671, -2.68908 23.7207, -3.07285 23.7704, -3.15587 " /><path d="M23.7704, -3.15587 Q23.7815, -3.17499 23.7926, -3.175 " /><path d="M24.4054, 3.15586 Q24.4165, 3.17499 24.4276, 3.175 " /><path d="M24.5864, 3.175 Q24.5975, 3.17499 24.6086, 3.15587 " /><path d="M24.6086, 3.15587 C24.6566, 3.07541 24.7046, 2.71491 24.7527, 2.15984  C24.8103, 1.49794 24.868, 0.560724 24.9256, -0.340877  C24.9709, -1.04834 25.0161, -1.72636 25.0614, -2.23118  C25.1147, -2.83049 25.168, -3.17847 25.2214, -3.175 " /><path d="M25.2214, -3.175 Q25.2325, -3.17499 25.2436, -3.15587 " /><path d="M24.4276, 3.175 C24.4724, 3.17676 24.5171, 2.93504 24.5619, 2.50003  C24.6284, 1.86016 24.6949, 0.788683 24.7614, -0.255601  C24.8045, -0.930487 24.8475, -1.58516 24.8906, -2.09317  C24.9406, -2.68537 24.9905, -3.07249 25.0404, -3.15587 " /><path d="M25.0404, -3.15587 Q25.0515, -3.17499 25.0626, -3.175 " /><path d="M25.4, 2.6595 Q25.4, 2.6822 25.4, 2.68219 " /><path d="M25.4, -2.88671 C25.4, -2.88899 25.4, -2.64471 25.4, -2.20283  C25.4, -1.92304 25.4, -1.56626 25.4, -1.17298 " /><path d="M25.4, -1.17298 C25.4, -0.958713 25.4, -0.708344 25.4, -0.450304  C25.4, -0.0744945 25.4, 0.32294 25.4, 0.694721  C25.4, 1.32671 25.4, 1.86903 25.4, 2.19368 " /><path d="M25.4, 2.6595 Q25.4, 2.5726 25.4, 2.19368 " /></g>

</svg>
