<svg xmlns="http://www.w3.org/2000/svg" viewBox="-6.099048 -6.099048 12.198096 12.198096">
<rect width="100%" height="100%" fill="white"/>
<g   fill="none"
   stroke="rgb(0, 0, 0)"
   stroke-linecap="butt"
   stroke-linejoin="miter"
   stroke-width="0.35"
   transform="scale(1, -1)"
  >
<path d="M2.54692 -1.91732 A8.97212 0.702443 128.748 0 1 1.83691 -0.99" />
<path d="M2.54692 -1.91732 A3.18793 3.18793 0 0 0 1.91732 -2.54692" /><path d="M0.99 -1.83691 A8.97212 0.702443 -38.7476 0 1 1.91732 -2.54692" />
<path d="M1.40443e-14 -1.547 A8.95118 0.858349 -16.9194 0 1 0.99 -1.83691" />
<path d="M-0.99 -1.83691 A8.95118 0.858349 16.9194 0 1 -1.71807e-14 -1.547" />
<path d="M-1.91732 -2.54692 A8.97212 0.702443 38.7476 0 1 -0.99 -1.83691" />
<path d="M-1.91732 -2.54692 A3.18793 3.18793 0 0 0 -2.54692 -1.91732" /><path d="M-1.83691 -0.99 A8.97212 0.702443 -128.748 0 1 -2.54692 -1.91732" />
<path d="M-1.547 -1.40721e-14 A8.95118 0.858349 -106.919 0 1 -1.83691 -0.99" />
<path d="M-1.83691 0.99 A8.95118 0.858349 -73.0806 0 1 -1.547 1.71807e-14" />
<path d="M-2.54692 1.91732 A8.97212 0.702443 -51.2524 0 1 -1.83691 0.99" />
<path d="M-2.54692 1.91732 A3.18793 3.18793 0 0 0 -1.91732 2.54692" /><path d="M-0.99 1.83691 A8.97212 0.702443 141.252 0 1 -1.91732 2.54692" />
<path d="M-1.40443e-14 1.547 A8.95118 0.858349 163.081 0 1 -0.99 1.83691" />
<path d="M0.99 1.83691 A8.95118 0.858349 -163.081 0 1 1.71807e-14 1.547" />
<path d="M1.91732 2.54692 A8.97212 0.702443 -141.252 0 1 0.99 1.83691" />
<path d="M1.91732 2.54692 A3.18793 3.18793 0 0 0 2.54692 1.91732" /><path d="M1.83691 0.99 A8.97212 0.702443 51.2524 0 1 2.54692 1.91732" />
<path d="M1.547 1.40721e-14 A8.95118 0.858349 73.0806 0 1 1.83691 0.99" />
<circle cx ="0" cy ="0" r ="5.2578" /><path d="M1.83691 -0.99 A8.95118 0.858349 106.919 0 1 1.547 -1.72085e-14" />
<path id= "22" d=" M 1.83691 -0.99 L 1.53964 -0.99 " />
<path id= "23" d=" M 1.547 0 L 1.205 0 " />
<path d="M1.53964, -0.99 C1.39439, -0.573499 1.29292, -0.273325 1.205, -1.98674e-13 " /><path d="M2.54692, -1.91732 C2.13779, -1.54597 1.83347, -1.2695 1.59053, -1.04844 " /><path d="M1.59053, -1.04844 L1.53964, -0.99 " /><path d="M1.04844, -1.59053 C1.2695, -1.83347 1.54597, -2.13779 1.91732, -2.54692 " /><path d="M1.04844 -1.59053 A1.905 1.905 0 0 1 1.59053 -1.04844" /><path id= "29" d=" M 0.99 -1.83691 L 0.99 -1.53964 " />
<path d="M0.99, -1.53964 L1.04844, -1.59053 " /><path id= "31" d=" M -3.43503e-16 -1.547 L -2.67564e-16 -1.205 " />
<path d="M1.98563e-13, -1.205 C0.273325, -1.29292 0.573499, -1.39439 0.99, -1.53964 " /><path id= "33" d=" M -0.99 -1.83691 L -0.99 -1.53964 " />
<path d="M-0.99, -1.53964 C-0.573499, -1.39439 -0.273325, -1.29292 -1.98827e-13, -1.205 " /><path d="M-1.91732, -2.54692 C-1.54597, -2.13779 -1.2695, -1.83347 -1.04844, -1.59053 " /><path d="M-1.04844, -1.59053 L-0.99, -1.53964 " /><path d="M-1.59053, -1.04844 C-1.83347, -1.2695 -2.13779, -1.54597 -2.54692, -1.91732 " /><path d="M-1.59053 -1.04844 A1.905 1.905 0 0 1 -1.04844 -1.59053" /><path id= "39" d=" M -1.83691 -0.99 L -1.53964 -0.99 " />
<path d="M-1.53964, -0.99 L-1.59053, -1.04844 " /><path id= "41" d=" M -1.547 1.89453e-16 L -1.205 1.4757e-16 " />
<path d="M-1.205, -1.98563e-13 C-1.29292, -0.273325 -1.39439, -0.573499 -1.53964, -0.99 " /><path id= "43" d=" M -1.83691 0.99 L -1.53964 0.99 " />
<path d="M-1.53964, 0.99 C-1.39439, 0.573499 -1.29292, 0.273325 -1.205, 1.98674e-13 " /><path d="M-2.54692, 1.91732 C-2.13779, 1.54597 -1.83347, 1.2695 -1.59053, 1.04844 " /><path d="M-1.59053, 1.04844 L-1.53964, 0.99 " /><path d="M-1.04844, 1.59053 C-1.2695, 1.83347 -1.54597, 2.13779 -1.91732, 2.54692 " /><path d="M-1.04844 1.59053 A1.905 1.905 0 0 1 -1.59053 1.04844" /><path id= "49" d=" M -0.99 1.83691 L -0.99 1.53964 " />
<path d="M-0.99, 1.53964 L-1.04844, 1.59053 " /><path id= "51" d=" M 1.71751e-16 1.547 L 1.33782e-16 1.205 " />
<path d="M-1.98563e-13, 1.205 C-0.273325, 1.29292 -0.573499, 1.39439 -0.99, 1.53964 " /><path id= "53" d=" M 0.99 1.83691 L 0.99 1.53964 " />
<path d="M0.99, 1.53964 C0.573499, 1.39439 0.273325, 1.29292 1.98674e-13, 1.205 " /><path d="M1.91732, 2.54692 C1.54597, 2.13779 1.2695, 1.83347 1.04844, 1.59053 " /><path d="M1.04844, 1.59053 L0.99, 1.53964 " /><path d="M1.59053, 1.04844 C1.83347, 1.2695 2.13779, 1.54597 2.54692, 1.91732 " /><path d="M1.59053 1.04844 A1.905 1.905 0 0 1 1.04844 1.59053" /><path id= "59" d=" M 1.83691 0.99 L 1.53964 0.99 " />
<path d="M1.53964, 0.99 L1.59053, 1.04844 " /><path d="M1.205, 1.98563e-13 C1.29292, 0.273325 1.39439, 0.573499 1.53964, 0.99 " /></g>

</svg>
