<svg xmlns="http://www.w3.org/2000/svg" viewBox="-3.95605 -5.27073 23.23625 17.079430000000002">
<rect width="100%" height="100%" fill="white"/>
<g   fill="none"
   stroke="rgb(0, 0, 0)"
   stroke-linecap="butt"
   stroke-linejoin="miter"
   stroke-width="0.35"
   transform="scale(1, -1)"
  >
<path id= "1" d=" M -2.35355 -3.25998 L -2 -3.4641 " />
<path id= "2" d=" M 1.64645 3.66823 L 2 3.4641 " />
<path id= "3" d=" M 1.27484 -2.1794 L 14.6242 -9.88667 " />
<path id= "4" d=" M 2.52484 -0.0143388 L 15.8742 -7.72161 " />
<path id= "5" d=" M 17.6777 -10.2062 L 16.014 -7.85094 " />
<path id= "6" d=" M 17.6777 -10.2062 L 14.8061 -9.94308 " />
</g>
<g   fill="none"
   stroke="rgb(0, 0, 0)"
   stroke-linecap="butt"
   stroke-linejoin="miter"
   stroke-width="0.35"
   transform="scale(1, -1)"
  >
<path d="M2.47487 1.83712 A4 2.3094 60 0 1 1.64645 3.66823" />
<path d="M1.64645 3.66823 A4 2.3094 60 0 1 -2.35355 -3.25998" />
<path d="M-2.35355 -3.25998 A4 2.3094 60 0 1 2.47487 1.83712" />
<path d="M2.82843 1.63299 A4 2.3094 60 0 1 2 3.4641" />
<path d="M-2 -3.4641 A4 2.3094 60 0 1 2.82843 1.63299" />
<path d="M16.1331 -8.29383 A1.25 0.721688 60 0 1 16.014 -7.85094" />
<path d="M16.014 -7.85094 A1.25 0.721688 60 0 1 15.8742 -7.72161" />
<path d="M14.6242 -9.88667 A1.25 0.721688 60 0 1 14.8061 -9.94308" />
<path d="M14.8061 -9.94308 A1.25 0.721688 60 0 1 16.1331 -8.29383" />
</g>

</svg>
