<svg xmlns="http://www.w3.org/2000/svg" viewBox="-2.54 -6.04 29.58 12.08">
<rect width="100%" height="100%" fill="white"/>
<g   fill="none"
   stroke="rgb(0, 0, 0)"
   stroke-linecap="butt"
   stroke-linejoin="miter"
   stroke-width="0.35"
   transform="scale(1, -1)"
  >
<path id= "1" d=" M -0.5 -4 L 0 -4 " />
<path d="M0.25, -1.25 C0.182127, -1.25097 0.123666, -1.27492 0.0746171, -1.32184  C0.0272469, -1.36809 -0.000275702, -1.4338 3.46945e-18, -1.5 " /><path id= "3" d=" M 0.25 -1.25 L 21.5657 -1.25 " />
<path id= "4" d=" M 25 -7.76022e-13 L 21.5657 1.25 " />
<path id= "5" d=" M 25 7.76022e-13 L 21.5657 -1.25 " />
</g>
<g   fill="none"
   stroke="rgb(0, 0, 0)"
   stroke-linecap="butt"
   stroke-linejoin="miter"
   stroke-width="0.35"
   transform="scale(1, -1)"
  >
<path d="M-0.5, -4 L-0.5, -3.89971  L-0.5, -3.60388  L-0.5, -3.12733  L-0.5, -2.49396  L-0.5, -1.73553  L-0.5, -0.890084  L-0.5, -7.77156e-16  L-0.5, 0.890084  L-0.5, 1.73553  L-0.5, 2.49396  L-0.5, 3.12733  L-0.5, 3.60388  L-0.5, 3.89971  L-0.5, 4 " /><path id= "2" d=" M -0.5 4 L 0 4 " />
<path d="M0, -4 L0, -3.89971  L0, -3.60388  L0, -3.12733  L0, -2.49396  L0, -1.73553  L0, -0.890084  L0, -7.77156e-16  L0, 0.890084  L0, 1.73553  L0, 2.49396  L0, 3.12733  L0, 3.60388  L0, 3.89971  L0, 4 " /><path d="M0 1.5 A0.25 0.25 0 0 1 0.25 1.25" /><path id= "5" d=" M 0.25 1.25 L 21.5657 1.25 " />
<path d="M21.5657, -1.25 L21.5657, -1.21866  L21.5657, -1.12621  L21.5657, -0.977289  L21.5657, -0.779362  L21.5657, -0.542355  L21.5657, -0.278151  L21.5657, -2.22045e-16  L21.5657, 0.278151  L21.5657, 0.542355  L21.5657, 0.779362  L21.5657, 0.977289  L21.5657, 1.12621  L21.5657, 1.21866  L21.5657, 1.25 " /><path id= "7" d=" M 21.5657 1.25 L 25 -1.51528e-12 " />
</g>

</svg>
