<svg xmlns="http://www.w3.org/2000/svg" viewBox="-3.68296 -3.683 7.365959999999999 7.366">
<rect width="100%" height="100%" fill="white"/>
<g   fill="none"
   stroke="rgb(0, 0, 0)"
   stroke-linecap="butt"
   stroke-linejoin="miter"
   stroke-width="0.35"
   transform="scale(1, -1)"
  >
<path d="M1.76122, 1.62437 Q1.90529, 1.46809 2.01966, 1.28897 " /><path d="M2.25477, 0.810255 Q2.32125, 0.625164 2.35673, 0.43168 " /><path d="M2.37327, 0.328806 Q2.39594, 0.165146 2.39594, 3.85719e-06 " /><path d="M2.27097, 0.763673 Q2.3217, 0.612769 2.35206, 0.456459 " /></g>
<g   fill="none"
   stroke="rgb(0, 0, 0)"
   stroke-linecap="butt"
   stroke-linejoin="miter"
   stroke-width="0.35"
   transform="scale(1, -1)"
  >
<circle cx ="0" cy ="0" r ="1.93675" /><circle cx ="0" cy ="0" r ="1.84225" /><path d="M2.44596, 4.24646e-06 C2.42487, 0.584657 2.18807, 1.15495 1.8049, 1.57906  C1.72338, 1.66993 1.63668, 1.75406 1.54478, 1.83143 " /><path d="M1.54478, 1.83143 C1.38717, 1.96497 1.21375, 2.077 1.04826, 2.16606  C0.948887, 2.2208 0.842329, 2.26904 0.796268, 2.30225  C0.753045, 2.33245 0.81286, 2.33622 0.896801, 2.32033 " /><path d="M0.896801, 2.32033 C1.41142, 2.22833 1.90158, 1.96459 2.27853, 1.57954  C2.69318, 1.15951 2.97034, 0.597418 3.06228, 6.56692e-07 " /><path d="M3.175 0 A3.175 3.175 0 0 1 2.70737 1.65855" /><path d="M2.70737, 1.65855 C2.29437, 2.2796 1.65454, 2.74355 0.93798, 2.93764  C0.260552, 3.12542 -0.479659, 3.06941 -1.11624, 2.77945  C-1.7283, 2.50471 -2.23991, 2.0167 -2.53816, 1.4197  C-2.82976, 0.843661 -2.919, 0.16989 -2.78461, -0.457847  C-2.65887, -1.06013 -2.32838, -1.61564 -1.85977, -2.00853  C-1.40845, -2.39071 -0.830891, -2.61785 -0.243884, -2.64217  C0.323477, -2.66839 0.895849, -2.50456 1.35841, -2.18196  C1.80859, -1.87112 2.15228, -1.41264 2.32043, -0.896468 " /><path d="M2.44596, -1.11022e-16 Q2.46353, -0.459067 2.32043, -0.896468 " /><path d="M0.916544, 1.5875 C0.246987, 1.5875 -0.246987, 1.5875 -0.916544, 1.5875 " /><path d="M-0.916544, 1.5875 C-1.25132, 1.00765 -1.49831, 0.579853 -1.83309, 3.4639e-13 " /><path d="M-1.83309, -3.46945e-13 C-1.49831, -0.579853 -1.25132, -1.00765 -0.916544, -1.5875 " /><path d="M-0.916544, -1.5875 C-0.246987, -1.5875 0.246987, -1.5875 0.916544, -1.5875 " /><path d="M0.916544, -1.5875 C1.25132, -1.00765 1.49831, -0.579853 1.83309, -3.46945e-13 " /><path d="M1.83309, 3.46834e-13 C1.49831, 0.579853 1.25132, 1.00765 0.916544, 1.5875 " /><path d="M3.08716 -0.741659 A3.175 3.175 0 0 1 3.175 -7.77651e-16" /><path d="M3.06228, -1.11022e-16 Q3.11943, -0.367786 3.08716, -0.741659 " /><path d="M3.08716, -0.741659 C2.95249, -1.30575 2.65909, -1.8307 2.24917, -2.24095  C1.59259, -2.9074 0.6303, -3.25454 -0.300505, -3.16075  C-0.999572, -3.09603 -1.67316, -2.79018 -2.18196, -2.30644  C-2.70916, -1.8104 -3.05665, -1.1287 -3.14833, -0.410656  C-3.27606, 0.526074 -2.95425, 1.51065 -2.29775, 2.19111  C-1.80921, 2.70606 -1.14299, 3.04789 -0.439752, 3.1444  C0.440168, 3.27185 1.36713, 3.00496 2.04459, 2.42905  C2.30688, 2.20779 2.5278, 1.95096 2.70737, 1.65855 " /><circle cx ="0" cy ="0" r ="0.254" /><path d="M3.175, 1.31558e-10 Q3.17473, -0.429533 3.06085, -0.843695 " /><path d="M2.56299, -1.87395 L2.53161, -1.91614 " /><path d="M2.43311, -2.03975 L2.39901, -2.07975 " /><path d="M2.39893, -2.07985 C2.15933, -2.35641 1.87142, -2.59098 1.55214, -2.76974 " /><path d="M1.55203, -2.76981 L1.50597, -2.79512 " /><path d="M1.365, -2.8666 L1.31734, -2.88881 " /><path d="M1.31724, -2.88886 C0.984348, -3.04079 0.625007, -3.13444 0.260315, -3.16431 " /><path d="M0.207672, -3.1682 L0.155169, -3.17121 " /><path d="M0.155118, -3.17121 L-0.0027434, -3.175 " /><path d="M-0.0555218, -3.17451 C-0.421363, -3.16825 -0.786077, -3.09798 -1.12809, -2.96783 " /><path d="M-1.1282, -2.96779 L-1.17719, -2.9487 " /><path d="M-1.32248, -2.88646 L-1.37009, -2.86417 " /><path d="M-1.3702, -2.86412 C-1.67062, -2.72003 -1.94187, -2.53352 -2.18394, -2.30457  C-2.71115, -1.80767 -3.05818, -1.12495 -3.14891, -0.406184  C-3.22679, 0.190095 -3.12983, 0.80779 -2.87297, 1.35155 " /><path d="M-2.8697, 1.35847 L-2.86532, 1.36769 " /><path d="M-2.84182, 1.41587 L-2.82103, 1.45684 " /><path d="M-2.60276, 1.81832 C-2.34392, 2.18938 -2.00445, 2.5039 -1.61468, 2.73376 " /><path d="M-1.61457, 2.73382 C-1.09979, 3.03894 -0.497229, 3.19333 0.100761, 3.1734 " /><path d="M0.386688, 3.15136 L0.533548, 3.12985 " /><path d="M0.964917, 3.02482 L0.973212, 3.02217 " /><path d="M0.973273, 3.02215 Q1.18078, 2.9553 1.37721, 2.86075 " /><path d="M1.37733, 2.8607 Q1.57771, 2.7642 1.7627, 2.64074 " /><path d="M2.04687, 2.42712 L2.12684, 2.35736 " /><path d="M2.12697, 2.35725 Q2.46739, 2.04961 2.70737, 1.65855 " /><path d="M-3.17496, 0.0150009 C-3.17306, 0.519435 -3.04828, 1.02278 -2.81436, 1.4697 " /><path d="M-2.81292, 1.47245 L-2.81284, 1.47259 " /><path d="M-2.61064, 1.80699 C-2.39428, 2.11985 -2.12103, 2.39324 -1.8082, 2.6098 " /><path d="M-1.80163, 2.61434 L-1.80152, 2.61441 " /><path d="M-1.46654, 2.816 Q-1.13242, 2.98983 -0.766948, 3.08098 " /><path d="M-0.766861, 3.081 L-0.759114, 3.08292 " /><path d="M-0.759036, 3.08294 Q-0.576789, 3.12779 -0.390562, 3.15089 " /><path d="M-0.390457, 3.1509 L-0.382537, 3.15187 " /><path d="M-0.00852941, 3.17499 Q0.183214, 3.17549 0.373627, 3.15294 " /><path d="M0.373764, 3.15292 C0.886405, 3.09268 1.38335, 2.90461 1.80743, 2.61033 " /><path d="M1.80754, 2.61025 Q1.96182, 2.5034 2.10245, 2.37915 " /><path d="M2.10248, 2.37912 L2.10846, 2.37382 " /><path d="M2.3735, 2.10882 Q2.56035, 1.89844 2.70737, 1.65855 " /><path d="M-3.17375, -0.0890515 C-3.1851, 0.308431 -3.12069, 0.708031 -2.98501, 1.08181 " /><path d="M-2.73363, 1.6149 Q-2.67231, 1.7187 -2.6033, 1.81754 " /><path d="M-2.57786, 1.85345 Q-2.26959, 2.28115 -1.8404, 2.58719 " /><path d="M-1.52041, 2.78729 Q-1.18375, 2.97074 -0.813155, 3.0691 " /><path d="M-0.797278, 3.07327 Q-0.616646, 3.12012 -0.4318, 3.1455 " /><path d="M-0.427127, 3.14614 L-0.427015, 3.14615 " /><path d="M-0.419052, 3.14722 L-0.418995, 3.14723 " /><path d="M1.45917, 2.81983 Q1.79969, 2.64343 2.08863, 2.39128 " /><path d="M2.09468, 2.38599 Q2.4558, 2.06839 2.70737, 1.65855 " /><path d="M-3.0924, -0.719486 C-3.25806, -0.0160823 -3.1723, 0.742737 -2.85387, 1.39143 " /><path d="M-2.85246, 1.39431 L-2.84818, 1.40303 " /><path d="M-2.84787, 1.40365 L-2.79742, 1.50169 " /><path d="M-2.79438, 1.50733 L-2.79438, 1.50734 " /><path d="M-2.7351, 1.61241 L-2.73509, 1.61242 " /><path d="M-2.73183, 1.61794 L-2.72249, 1.6336 " /><path d="M-2.72215, 1.63418 L-2.67012, 1.71788 " /><path d="M-2.60108, 1.82072 Q-2.50196, 1.96231 -2.38806, 2.09231 " /><path d="M-2.83982, -1.41988 C-3.09287, -0.915416 -3.20725, -0.342558 -3.16735, 0.220326 " /><path d="M-3.09739, -0.697723 C-3.23569, -0.0888485 -3.188, 0.560661 -2.96216, 1.14291 " /><path d="M-2.72482, 1.62972 Q-2.66537, 1.72911 -2.59884, 1.82391 " /><path d="M-2.56909, 1.86558 L-2.51212, 1.94162 " /><path d="M-2.50623, 1.94922 L-2.48176, 1.98028 " /><path d="M-2.24249, 2.24764 C-1.85567, 2.63449 -1.36697, 2.91812 -0.839194, 3.06209 " /><path d="M-0.467267, 3.14043 L-0.395302, 3.1503 " /><path d="M-0.369855, 3.15338 C0.48879, 3.25803 1.38413, 2.98964 2.04364, 2.42985  C2.30634, 2.20842 2.52758, 1.95132 2.70737, 1.65855 " /><path d="M3.175, 6.07936e-11 C3.17834, -0.83037 2.83768, -1.655 2.2492, -2.24092  C1.58832, -2.91189 0.61756, -3.25891 -0.318876, -3.15895  C-1.01114, -3.09076 -1.67711, -2.78612 -2.1814, -2.30698  C-2.71338, -1.80675 -3.06235, -1.11747 -3.15063, -0.392598  C-3.26232, 0.471157 -2.99579, 1.37483 -2.43312, 2.03974  C-1.93957, 2.63238 -1.22271, 3.03255 -0.459222, 3.14161  C0.421156, 3.27472 1.35113, 3.01259 2.03242, 2.43924  C2.29997, 2.2158 2.52495, 1.95557 2.70737, 1.65855 " /><path d="M3.175, 5.15352e-11 C3.17834, -0.830368 2.83768, -1.655 2.24921, -2.24092  C1.58838, -2.91184 0.617715, -3.25885 -0.318656, -3.15897  C-1.01079, -3.09084 -1.67664, -2.78637 -2.18092, -2.30743  C-2.81767, -1.71116 -3.18701, -0.842673 -3.17486, 0.0295082 " /><path d="M-2.24662, 2.24351 L-2.19171, 2.29718 " /><path d="M-3.14868, -0.407953 C-3.21674, 0.112844 -3.15231, 0.650537 -2.96305, 1.1406 " /><path d="M-2.79901, 1.49873 Q-2.71306, 1.65923 -2.60933, 1.80887 " /><path d="M-0.765357, 3.08137 L-0.757447, 3.08333 " /><path d="M-0.00710837, 3.17499 L0.00260964, 3.175 " /><path d="M0.0107276, 3.17498 L0.0108618, 3.17498 " /><path d="M0.391278, 3.1508 C0.898067, 3.08836 1.38882, 2.90099 1.80825, 2.60976 " /><path d="M2.10302, 2.37864 L2.11626, 2.36687 " /><path d="M2.3794, 2.10216 Q2.56269, 1.89463 2.70737, 1.65855 " /><path d="M-3.17242, -0.127969 C-3.18961, 0.292391 -3.12193, 0.716002 -2.97462, 1.11008 " /><path d="M-2.62164, 1.79099 Q-2.47321, 2.00819 -2.2911, 2.19806 " /><path d="M-2.64866, -1.75078 C-2.91635, -1.34654 -3.08929, -0.880102 -3.14982, -0.399047  C-3.21611, 0.11964 -3.15105, 0.654701 -2.96232, 1.14248 " /><path d="M-2.72482, 1.62972 Q-2.66423, 1.73103 -2.59628, 1.82756 " /><path d="M-2.56385, 1.87278 L-2.51254, 1.94108 " /><path d="M-2.24246, 2.24766 C-1.75807, 2.73318 -1.11215, 3.05355 -0.432503, 3.1454  C-0.136227, 3.18593 0.159894, 3.18483 0.455861, 3.1421  C1.3772, 3.01364 2.22582, 2.45448 2.70737, 1.65855 " /><path d="M-3.17375, -0.089059 C-3.18837, 0.414889 -3.08028, 0.921793 -2.86136, 1.37595 " /><path d="M-2.86029, 1.37818 L-2.86029, 1.37818 " /><path d="M-2.85921, 1.3804 L-2.85921, 1.38041 " /><path d="M-2.85814, 1.38263 L-2.85814, 1.38264 " /><path d="M-2.85706, 1.38486 L-2.85652, 1.38597 " /><path d="M-2.85598, 1.38709 L-2.85544, 1.3882 " /><path d="M-2.8549, 1.38931 L-2.8549, 1.38932 " /><path d="M-2.85381, 1.39154 L-2.85381, 1.39154 " /><path d="M-2.85273, 1.39376 L-2.85273, 1.39376 " /><path d="M-2.85164, 1.39598 L-2.85164, 1.39599 " /><path d="M-2.85055, 1.3982 L-2.85055, 1.39821 " /><path d="M-2.84946, 1.40043 L-2.84946, 1.40043 " /><path d="M-2.84837, 1.40265 L-2.84837, 1.40265 " /><path d="M-2.84728, 1.40487 L-2.84727, 1.40487 " /><path d="M-2.84618, 1.40708 L-2.84618, 1.40709 " /><path d="M-2.84508, 1.4093 L-2.84508, 1.40931 " /><path d="M-2.84398, 1.41152 L-2.84398, 1.41152 " /><path d="M-2.84288, 1.41374 L-2.84288, 1.41374 " /><path d="M-2.84178, 1.41595 L-2.84178, 1.41596 " /><path d="M-2.84067, 1.41816 L-2.84067, 1.41817 " /><path d="M-2.83957, 1.42038 L-2.83957, 1.42038 " /><path d="M-2.83846, 1.42259 L-2.83846, 1.4226 " /><path d="M-2.83735, 1.4248 L-2.83735, 1.42481 " /><path d="M-2.83624, 1.42701 L-2.83624, 1.42702 " /><path d="M-2.83513, 1.42922 L-2.83512, 1.42923 " /><path d="M-2.83401, 1.43143 L-2.83401, 1.43144 " /><path d="M-2.8329, 1.43364 L-2.83289, 1.43365 " /><path d="M-2.83178, 1.43585 L-2.83177, 1.43586 " /><path d="M-2.83066, 1.43806 L-2.83065, 1.43806 " /><path d="M-2.82954, 1.44026 L-2.82953, 1.44027 " /><path d="M-2.82841, 1.44247 L-2.82841, 1.44247 " /><path d="M-2.82729, 1.44467 L-2.82728, 1.44468 " /><path d="M-2.82616, 1.44687 L-2.82616, 1.44688 " /><path d="M-2.82503, 1.44907 L-2.82503, 1.44908 " /><path d="M-2.8239, 1.45128 L-2.8239, 1.45128 " /><path d="M-2.82277, 1.45348 L-2.82277, 1.45348 " /><path d="M-2.82164, 1.45568 L-2.82163, 1.45568 " /><path d="M-2.8205, 1.45787 L-2.8205, 1.45788 " /><path d="M-2.81936, 1.46007 L-2.81936, 1.46008 " /><path d="M-2.81823, 1.46227 L-2.81822, 1.46228 " /><path d="M-2.81708, 1.46447 L-2.81708, 1.46447 " /><path d="M-2.81594, 1.46666 L-2.81594, 1.46667 " /><path d="M-2.8148, 1.46885 L-2.81479, 1.46886 " /><path d="M-2.81365, 1.47105 L-2.81365, 1.47106 " /><path d="M-2.81251, 1.47324 L-2.8125, 1.47325 " /><path d="M-2.70493, 1.66253 L-2.64174, 1.76121 " /><path d="M-2.63713, 1.76809 Q-2.53113, 1.92618 -2.40701, 2.07048 " /><path d="M3.175, 1.68412e-11 C3.17834, -0.830357 2.83769, -1.65498 2.24923, -2.24089  C1.58866, -2.91156 0.618489, -3.2586 -0.317558, -3.15908  C-1.0089, -3.09126 -1.67412, -2.78767 -2.17834, -2.30986  C-2.70964, -1.81158 -3.05915, -1.12497 -3.14942, -0.402186  C-3.26325, 0.457892 -3.00206, 1.35878 -2.44573, 2.02461  C-1.95127, 2.62599 -1.22793, 3.03241 -0.457116, 3.14192  C0.427642, 3.27514 1.36212, 3.00901 2.04396, 2.42958  C2.30652, 2.20821 2.52766, 1.9512 2.70737, 1.65855 " /><path d="M-3.1647, -0.255594 C-3.2344, 0.566867 -2.96503, 1.41117 -2.43181, 2.0413  C-1.93655, 2.63526 -1.21683, 3.03548 -0.450959, 3.14281  C0.43183, 3.27394 1.36336, 3.00774 2.04359, 2.42989  C2.30631, 2.20845 2.52757, 1.95134 2.70737, 1.65855 " /><path d="M-3.1692, -0.191833 C-3.22073, 0.610619 -2.95092, 1.42762 -2.43159, 2.04157  C-1.93734, 2.63414 -1.2197, 3.03387 -0.455687, 3.14213  C0.425976, 3.27443 1.3569, 3.01036 2.03779, 2.43475  C2.30302, 2.21227 2.52621, 1.95354 2.70737, 1.65855 " /><path d="M-2.74953, -1.58767 C-3.09068, -0.999902 -3.23447, -0.300765 -3.1529, 0.373952 " /><path d="M-1.13056, 2.96689 Q-0.957229, 3.03293 -0.777381, 3.07836 " /><path d="M-0.0249447, 3.1749 L-0.00697413, 3.17499 " /><path d="M0.37493, 3.15278 C1.01454, 3.07798 1.62859, 2.80195 2.10911, 2.37324 " /><path d="M2.37394, 2.10833 Q2.56052, 1.89816 2.70737, 1.65855 " /><path d="M-3.14719, -0.41929 C-3.21853, 0.111605 -3.15207, 0.660248 -2.95599, 1.15877 " /><path d="M-2.58649, 1.84139 Q-2.5316, 1.91849 -2.47222, 1.99218 " /><path d="M-1.81697, 2.6037 L-1.7844, 2.62613 " /><path d="M-1.77862, 2.63005 L-1.74959, 2.64944 " /><path d="M-1.74376, 2.65329 Q-1.61586, 2.73734 -1.48048, 2.8087 " /><path d="M-1.47624, 2.81093 L-1.47623, 2.81094 " /><path d="M-1.47199, 2.81316 L-1.47198, 2.81316 " /><path d="M-1.46774, 2.81538 L-1.46773, 2.81538 " /><path d="M-1.46348, 2.8176 L-1.46348, 2.8176 " /><path d="M-1.45922, 2.8198 L-1.45922, 2.81981 " /><path d="M-1.45496, 2.822 L-1.45496, 2.82201 " /><path d="M-1.4507, 2.8242 L-1.45069, 2.8242 " /><path d="M-1.44643, 2.82639 L-1.39248, 2.85335 " /><path d="M-1.39065, 2.85425 L-1.35171, 2.87289 " /><path d="M-1.34737, 2.87493 L-1.34737, 2.87493 " /><path d="M-1.34303, 2.87696 L-1.34302, 2.87696 " /><path d="M-1.33868, 2.87899 L-1.33868, 2.87899 " /><path d="M-1.33433, 2.881 L-1.33433, 2.88101 " /><path d="M-1.32998, 2.88302 L-1.32997, 2.88302 " /><path d="M-1.32562, 2.88502 L-1.32562, 2.88502 " /><path d="M-1.32126, 2.88702 L-1.32126, 2.88702 " /><path d="M-1.3169, 2.88901 L-1.31689, 2.88902 " /><path d="M-1.31253, 2.891 L-1.31253, 2.891 " /><path d="M-1.30816, 2.89298 L-1.30816, 2.89298 " /><path d="M-1.2511, 2.91811 L-1.25109, 2.91811 " /><path d="M-1.24669, 2.92 L-1.24669, 2.92 " /><path d="M-1.24228, 2.92188 L-1.24227, 2.92188 " /><path d="M-1.23786, 2.92375 L-1.23786, 2.92375 " /><path d="M-1.23344, 2.92562 L-1.23344, 2.92562 " /><path d="M-1.22902, 2.92748 L-1.22902, 2.92748 " /><path d="M-1.2246, 2.92933 L-1.22459, 2.92933 " /><path d="M-1.22017, 2.93118 L-1.22017, 2.93118 " /><path d="M-1.21574, 2.93302 L-1.21574, 2.93302 " /><path d="M-1.21131, 2.93485 L-1.21131, 2.93485 " /><path d="M-1.20687, 2.93668 L-1.20687, 2.93668 " /><path d="M-1.20244, 2.9385 L-1.20243, 2.9385 " /><path d="M-1.17575, 2.94928 Q-1.0087, 3.01586 -0.835197, 3.06318 " /><path d="M-0.834327, 3.06342 L-0.793687, 3.0742 " /><path d="M-0.785024, 3.07642 L-0.7631, 3.08193 " /><path d="M-0.466404, 3.14056 L-0.443248, 3.14391 " /><path d="M-0.215647, 3.16767 L-0.215263, 3.16769 " /><path d="M-0.213524, 3.16781 L-0.213491, 3.16781 " /><path d="M-0.00771976, 3.17499 Q0.112907, 3.17528 0.23321, 3.16642 " /><path d="M0.341054, 3.15663 L0.341065, 3.15663 " /><path d="M0.345585, 3.15614 L0.345597, 3.15613 " /><path d="M0.350116, 3.15564 L0.350127, 3.15564 " /><path d="M0.354646, 3.15513 L0.354657, 3.15513 " /><path d="M0.359175, 3.15462 L0.359187, 3.15462 " /><path d="M0.363703, 3.1541 L0.363715, 3.1541 " /><path d="M0.368231, 3.15357 L0.368243, 3.15357 " /><path d="M0.372758, 3.15304 L0.37277, 3.15304 " /><path d="M0.377284, 3.1525 L0.377296, 3.1525 " /><path d="M0.381809, 3.15196 L0.381822, 3.15196 " /><path d="M0.386334, 3.15141 L0.456085, 3.14207 " /><path d="M0.456594, 3.142 L0.456615, 3.14199 " /><path d="M0.801403, 3.07219 L0.841113, 3.06156 " /></g>

</svg>
