<svg xmlns="http://www.w3.org/2000/svg" viewBox="-3.0056892 -3.6719792 23.724888399999998 17.0986784">
<rect width="100%" height="100%" fill="white"/>
<g   fill="none"
   stroke="rgb(0, 0, 0)"
   stroke-linecap="butt"
   stroke-linejoin="miter"
   stroke-width="0.35"
   transform="scale(1, -1)"
  >
<path id= "1" d=" M -1.36949 -0.790675 L -1.36949 -1.53053 " />
<path id= "2" d=" M 1.22774e-12 1.58135 L 0.783054 2.03345 " />
<path d="M1.86788, 1.55093 L1.8427, 1.58959 " /><path id= "4" d=" M -0.408863 -3.43012 L -0.296606 -3.49493 " />
<path id= "5" d=" M 3.21515 1.80991 L 3.3274 1.7451 " />
<path id= "6" d=" M 0.489164 -3.94859 L 0.60142 -4.0134 " />
<path id= "7" d=" M 4.11318 1.29143 L 4.22543 1.22662 " />
<path id= "8" d=" M 1.38719 -4.46707 L 1.49945 -4.53188 " />
<path id= "9" d=" M 5.01121 0.772953 L 5.12346 0.708144 " />
<path id= "10" d=" M 2.28522 -4.98554 L 2.39747 -5.05036 " />
<path id= "11" d=" M 5.90923 0.254477 L 6.02148 0.189668 " />
<path id= "12" d=" M 3.18324 -5.50402 L 3.2955 -5.56883 " />
<path id= "13" d=" M 6.80726 -0.263999 L 6.91951 -0.328807 " />
<path id= "14" d=" M 4.08127 -6.0225 L 4.19353 -6.08731 " />
<path id= "15" d=" M 7.70529 -0.782475 L 7.81754 -0.847283 " />
<path id= "16" d=" M 4.9793 -6.54097 L 5.09155 -6.60578 " />
<path id= "17" d=" M 8.60331 -1.30095 L 8.71556 -1.36576 " />
<path id= "18" d=" M 5.87732 -7.05945 L 5.98958 -7.12426 " />
<path id= "19" d=" M 9.50134 -1.81943 L 9.61359 -1.88424 " />
<path id= "20" d=" M 6.77535 -7.57792 L 6.88761 -7.64274 " />
<path id= "21" d=" M 10.3994 -2.3379 L 10.5116 -2.40271 " />
<path id= "22" d=" M 7.67338 -8.0964 L 7.78563 -8.16121 " />
<path id= "23" d=" M 11.2974 -2.85638 L 11.4096 -2.92119 " />
<path id= "24" d=" M 8.5714 -8.61488 L 8.68366 -8.67969 " />
<path id= "25" d=" M 12.1954 -3.37485 L 12.3077 -3.43966 " />
<path id= "26" d=" M 9.46943 -9.13335 L 9.58169 -9.19816 " />
<path id= "27" d=" M 13.0934 -3.89333 L 13.2057 -3.95814 " />
<path id= "28" d=" M 10.3675 -9.65183 L 10.4797 -9.71664 " />
<path id= "29" d=" M 13.9915 -4.41181 L 14.1037 -4.47661 " />
<path id= "30" d=" M 11.2655 -10.1703 L 11.3777 -10.2351 " />
<path id= "31" d=" M 14.8895 -4.93028 L 15.0018 -4.99509 " />
<path id= "32" d=" M 12.1635 -10.6888 L 12.2758 -10.7536 " />
<path id= "33" d=" M 15.7875 -5.44876 L 15.8998 -5.51357 " />
<path id= "34" d=" M 13.0615 -11.2073 L 13.1738 -11.2721 " />
<path id= "35" d=" M 16.6856 -5.96723 L 16.7978 -6.03204 " />
<path id= "36" d=" M 13.9596 -11.7257 L 14.0718 -11.7905 " />
<path id= "37" d=" M 16.829 -11.0124 L 16.1036 -11.4312 " />
<path id= "38" d=" M 16.364 -11.2809 L 17.1668 -11.7443 " />
<path id= "39" d=" M 17.9515 -8.53123 L 18.7543 -8.99469 " />
</g>
<g   fill="none"
   stroke="rgb(0, 0, 0)"
   stroke-linecap="butt"
   stroke-linejoin="miter"
   stroke-width="0.35"
   transform="scale(1, -1)"
  >
<path d="M1.36949 0.790675 A1.93675 1.11818 60 0 1 1.22872e-12 1.58135" />
<path d="M1.22827e-12 1.58135 A1.93675 1.11818 60 0 1 -1.36949 -0.790675" />
<path d="M-1.36949 -0.790675 A1.93675 1.11818 60 0 1 1.36949 0.790675" />
<path d="M-1.30267 -0.752096 A1.84225 1.06362 -120 0 0 1.30267 0.752096" />
<path d="M1.30267 0.752096 A1.84225 1.06362 -120 0 0 -1.16699e-12 -1.50419" />
<path d="M-1.16699e-12 -1.50419 A1.84225 1.06362 -120 0 0 -1.30267 -0.752096" />
<path d="M2.08962, 0.790678 L2.0807, 0.888752 " /><path d="M2.0807, 0.888752 Q2.03544, 1.28105 1.86788, 1.55093 " /><path d="M1.86788, 1.55093 C1.74632, 1.74714 1.57786, 1.88234 1.38814, 1.94943  C1.25897, 1.99689 1.11295, 2.00952 0.996801, 2.00397 " /><path d="M0.996801, 2.00397 C0.955978, 2.00258 0.918508, 1.99883 0.913076, 2.00182  C0.905493, 2.00498 0.960623, 2.02224 1.02365, 2.03578 " /><path d="M1.02365, 2.03578 C1.45723, 2.13051 1.87082, 2.07659 2.20212, 1.87871  C2.56615, 1.66414 2.83028, 1.279 2.96123, 0.790675 " /><path d="M3.12064 0.790675 A3.175 1.83309 60 0 1 2.78997 1.95396" />
<path d="M2.78997, 1.95396 C2.62926, 2.13152 2.43459, 2.25115 2.20597, 2.31285  C1.79324, 2.42488 1.2853, 2.3248 0.783054, 2.03345 " /><path d="M-1.36949, -1.53053 C-1.37205, -2.13274 -1.13922, -2.57999 -0.748965, -2.72604  C-0.449378, -2.84255 -0.0607581, -2.78081 0.334299, -2.54946  C0.716123, -2.32807 1.10126, -1.94932 1.4085, -1.48563  C1.70757, -1.03692 1.93111, -0.511015 2.03029, -0.00952678 " /><path d="M2.08962, 0.790675 Q2.11493, 0.415581 2.03029, -0.00952678 " /><path d="M0.654575, 1.66662 Q0.60288, 1.58011 0.544444, 1.50358  Q0.483964, 1.42963 0.415598, 1.36421  Q0.379391, 1.33327 0.343183, 1.30232  Q0.26665, 1.24388 0.180137, 1.19219  Q0.134319, 1.16773 0.0885011, 1.14327  Q0.0389428, 1.12066 -0.0106155, 1.09805  Q-0.0642195, 1.07715 -0.117823, 1.05624  Q-0.175803, 1.03692 -0.233783, 1.01759  Q-0.296496, 0.999721 -0.359209, 0.981853  Q-0.427041, 0.965334 -0.494874, 0.948815  Q-0.568243, 0.933542 -0.641613, 0.918269 " /><path d="M-0.641613, 0.918269 Q-0.643111, 0.840406 -0.644608, 0.762543  Q-0.649109, 0.689078 -0.653611, 0.615613  Q-0.661143, 0.546094 -0.668676, 0.476575  Q-0.679287, 0.410573 -0.689899, 0.344572  Q-0.703653, 0.281681 -0.717408, 0.21879  Q-0.73439, 0.158623 -0.751373, 0.0984553  Q-0.771688, 0.0406406 -0.792004, -0.0171741  Q-0.815778, -0.0729924 -0.839551, -0.128811  Q-0.892191, -0.237882 -0.956609, -0.342836  Q-0.991725, -0.394689 -1.02684, -0.446543  Q-1.06614, -0.497722 -1.10544, -0.548902  Q-1.14916, -0.599723 -1.19288, -0.650545  Q-1.24129, -0.701321 -1.28971, -0.752096 " /><path d="M-1.28971, -0.752096 C-1.25743, -0.784794 -1.22516, -0.817492 -1.19288, -0.85019  C-1.16373, -0.880606 -1.13458, -0.911022 -1.10544, -0.941438  C-1.07924, -0.969758 -1.05304, -0.998079 -1.02684, -1.0264  C-1.00343, -1.0528 -0.98002, -1.0792 -0.956609, -1.1056  C-0.935842, -1.13025 -0.915074, -1.15489 -0.894307, -1.17953  C-0.876055, -1.20257 -0.857803, -1.22561 -0.839551, -1.24864  C-0.823702, -1.27022 -0.807853, -1.29179 -0.792004, -1.31336  C-0.690457, -1.45884 -0.642648, -1.57352 -0.641613, -1.67411 " /><path d="M-0.641613, -1.67411 C-0.335346, -1.61493 -0.0998229, -1.54216 0.0916838, -1.44753 " /><path d="M1.30266, 0.746833 C1.30092, 0.847264 1.25273, 0.961795 1.15114, 1.10698  C1.13529, 1.1285 1.11945, 1.15003 1.1036, 1.17156  C1.08537, 1.19454 1.06713, 1.21752 1.0489, 1.24051  C1.02816, 1.26509 1.00743, 1.28967 0.986697, 1.31425  C0.963337, 1.34057 0.939978, 1.3669 0.916619, 1.39323  C0.890491, 1.42146 0.864362, 1.4497 0.838234, 1.47793  C0.809178, 1.50825 0.780121, 1.53856 0.751064, 1.56888  C0.718901, 1.60146 0.686738, 1.63404 0.654575, 1.66662 " /><path d="M3.05853 0.149253 A3.175 1.83309 60 0 1 3.12064 0.790675" />
<path d="M2.96123, 0.790675 Q3.04203, 0.490391 3.05853, 0.149253 " /><path d="M2.78997, 1.95396 C3.0316, 1.65845 3.1736, 1.23589 3.1992, 0.74532 " /><path id= "24" d=" M -0.641613 0.918269 L 0.889863 0.034071 " />
<path d="M1.21182, 0.147769 Q1.0643, 0.0896703 0.889863, 0.034071 " /><path id= "26" d=" M -1.28971 -0.752096 L -0.006872 -1.49274 " />
<path d="M0.889863, 0.034071 C0.83309, -0.353938 0.750517, -0.66414 0.625794, -0.957954 " /><path d="M3.05853, 0.149253 C2.9894, -0.381374 2.80803, -0.944844 2.54427, -1.46223  C2.30295, -1.93732 1.9933, -2.37251 1.65601, -2.7164  C1.40162, -2.97634 1.132, -3.18449 0.867444, -3.32692  C0.385277, -3.58842 -0.0770385, -3.62406 -0.408862, -3.43012 " /><path d="M-0.408862, -3.43012 C-0.663536, -3.2839 -0.841999, -3.00669 -0.916983, -2.63754 " /><path d="M2.77969, 1.96524 Q3.01576, 1.92486 3.21515, 1.80991 " /><path d="M3.21515, 1.80991 C3.67045, 1.55093 3.94993, 0.994226 3.98497, 0.291654 " /><path d="M3.1992, 0.74532 C3.24495, -0.0405213 2.97826, -0.998324 2.50727, -1.80096  C2.2151, -2.30369 1.84891, -2.74405 1.46597, -3.06  C1.26583, -3.22519 1.06587, -3.35489 0.866102, -3.44912  C0.425207, -3.65806 0.0091753, -3.67318 -0.296607, -3.49493 " /><path d="M3.3274, 1.7451 C3.7827, 1.48613 4.0622, 0.929421 4.09722, 0.226844 " /><path d="M3.98497, 0.291654 C4.02466, -0.406536 3.8211, -1.24049 3.4423, -1.9807  C3.20098, -2.45579 2.89133, -2.89098 2.55404, -3.23488  C2.29549, -3.49908 2.02119, -3.70976 1.75247, -3.85235  C1.27497, -4.10761 0.818017, -4.14074 0.489164, -3.94859 " /><path d="M0.489164, -3.94859 Q0.288726, -3.83252 0.156275, -3.61784 " /><path d="M3.67889, 1.44656 Q3.9143, 1.40609 4.11318, 1.29143 " /><path d="M4.11318, 1.29143 C4.56848, 1.03245 4.84796, 0.475748 4.883, -0.226822 " /><path d="M4.09722, 0.226844 C4.14298, -0.558999 3.87628, -1.5168 3.40529, -2.31944  C3.11312, -2.82217 2.74693, -3.26253 2.36399, -3.57848  C2.16389, -3.74363 1.96398, -3.87331 1.76426, -3.96753  C1.32332, -4.17653 0.907232, -4.19168 0.60142, -4.0134 " /><path d="M4.22543, 1.22662 C4.68073, 0.967652 4.96022, 0.410946 4.99525, -0.291632 " /><path d="M4.883, -0.226822 C4.92269, -0.92501 4.71913, -1.75896 4.34033, -2.49917  C4.09901, -2.97426 3.78936, -3.40945 3.45207, -3.75335  C3.19356, -4.01751 2.91932, -4.22816 2.65064, -4.37075  C2.17308, -4.62608 1.71608, -4.65923 1.38719, -4.46707 " /><path d="M1.38719, -4.46707 Q1.18675, -4.351 1.0543, -4.13632 " /><path d="M4.57692, 0.928083 Q4.81232, 0.887615 5.01121, 0.772953 " /><path d="M5.01121, 0.772953 C5.46651, 0.513979 5.74599, -0.0427301 5.78102, -0.745298 " /><path d="M4.99525, -0.291632 C5.041, -1.07748 4.77431, -2.03528 4.30332, -2.83792  C4.01114, -3.34065 3.64495, -3.78101 3.26201, -4.09696  C3.06196, -4.26207 2.8621, -4.39173 2.66242, -4.48595  C2.22142, -4.695 1.80529, -4.71017 1.49945, -4.53188 " /><path d="M5.12346, 0.708144 C5.57875, 0.449176 5.85825, -0.107529 5.89328, -0.810108 " /><path d="M5.78102, -0.745298 C5.82071, -1.44348 5.61716, -2.27744 5.23836, -3.01764  C4.99704, -3.49273 4.68739, -3.92792 4.35011, -4.27182  C4.09164, -4.53593 3.81744, -4.74656 3.54881, -4.88915  C3.0712, -5.14455 2.61414, -5.17773 2.28522, -4.98555 " /><path d="M2.28522, -4.98555 Q2.08478, -4.86947 1.95233, -4.6548 " /><path d="M5.47495, 0.409607 Q5.71035, 0.369139 5.90923, 0.254477 " /><path d="M5.90923, 0.254477 C6.36454, -0.00449753 6.64401, -0.561205 6.67905, -1.26377 " /><path d="M5.89328, -0.810108 C5.93903, -1.59595 5.67234, -2.55376 5.20134, -3.3564  C4.90916, -3.85913 4.54297, -4.29949 4.16003, -4.61545  C3.96002, -4.78052 3.7602, -4.91016 3.56056, -5.00437  C3.11952, -5.21348 2.70334, -5.22866 2.39747, -5.05036 " /><path d="M6.02148, 0.189668 C6.47678, -0.0693002 6.75628, -0.626006 6.7913, -1.32858 " /><path d="M6.67905, -1.26377 C6.71874, -1.96196 6.51518, -2.79591 6.13639, -3.53611  C5.89507, -4.0112 5.58542, -4.44639 5.24814, -4.79029  C4.98971, -5.05436 4.71557, -5.26496 4.44699, -5.40755  C3.96933, -5.66302 3.5122, -5.69622 3.18324, -5.50402 " /><path d="M3.18324, -5.50402 Q2.98281, -5.38795 2.85035, -5.17327 " /><path d="M6.37297, -0.108869 Q6.60838, -0.149337 6.80726, -0.263999 " /><path d="M6.80726, -0.263999 C7.26256, -0.522973 7.54204, -1.07968 7.57708, -1.78225 " /><path d="M6.7913, -1.32858 C6.83706, -2.11443 6.57036, -3.07225 6.09936, -3.87488  C5.80718, -4.37761 5.44099, -4.81797 5.05805, -5.13393  C4.85809, -5.29896 4.65832, -5.42857 4.45872, -5.52278  C4.01764, -5.73195 3.6014, -5.74716 3.2955, -5.56883 " /><path d="M6.91951, -0.328808 C7.37481, -0.587776 7.6543, -1.14448 7.68933, -1.84706 " /><path d="M7.57708, -1.78225 C7.61677, -2.48043 7.41321, -3.31438 7.03442, -4.05458  C6.7931, -4.52967 6.48345, -4.96486 6.14617, -5.30876  C5.88779, -5.57279 5.6137, -5.78336 5.34515, -5.92595  C4.86744, -6.18149 4.41026, -6.21472 4.08127, -6.0225 " /><path d="M4.08127, -6.0225 Q3.88083, -5.90643 3.74838, -5.69175 " /><path d="M7.271, -0.627345 Q7.5064, -0.667813 7.70529, -0.782475 " /><path d="M7.70529, -0.782475 C8.16059, -1.04145 8.44007, -1.59816 8.4751, -2.30073 " /><path d="M7.68933, -1.84706 C7.73508, -2.63291 7.46839, -3.59073 6.99739, -4.39337  C6.70521, -4.8961 6.33901, -5.33646 5.95607, -5.65241  C5.75615, -5.8174 5.55642, -5.947 5.35687, -6.0412  C4.91574, -6.25042 4.49945, -6.26565 4.19353, -6.08731 " /><path d="M7.81754, -0.847283 C8.27283, -1.10625 8.55233, -1.66296 8.58736, -2.36554 " /><path d="M8.4751, -2.30073 C8.51479, -2.99891 8.31124, -3.83285 7.93245, -4.57305  C7.69113, -5.04814 7.38149, -5.48333 7.0442, -5.82723  C6.78587, -6.09121 6.51183, -6.30176 6.24333, -6.44435  C5.76556, -6.69995 5.30832, -6.73322 4.9793, -6.54097 " /><path d="M4.9793, -6.54097 Q4.77886, -6.4249 4.64641, -6.21022 " /><path d="M8.16903, -1.14582 Q8.40443, -1.18629 8.60331, -1.30095 " /><path d="M8.60331, -1.30095 C9.05861, -1.55993 9.33809, -2.11663 9.37313, -2.8192 " /><path d="M8.58736, -2.36554 C8.63311, -3.15139 8.36641, -4.10921 7.89541, -4.91185  C7.60323, -5.41458 7.23703, -5.85494 6.85409, -6.17089  C6.65423, -6.33584 6.45456, -6.4654 6.25506, -6.55959  C5.81387, -6.76889 5.39752, -6.78415 5.09155, -6.60578 " /><path d="M8.71556, -1.36576 C9.17086, -1.62473 9.45036, -2.18143 9.48538, -2.88401 " /><path d="M9.37313, -2.8192 C9.41282, -3.51738 9.20927, -4.35132 8.83048, -5.09152  C8.58916, -5.56661 8.27952, -6.0018 7.94223, -6.34571  C7.68393, -6.60965 7.40993, -6.82017 7.14147, -6.96276  C6.66366, -7.21842 6.20637, -7.25171 5.87732, -7.05945 " /><path d="M5.87732, -7.05945 Q5.67689, -6.94338 5.54443, -6.7287 " /><path d="M9.06705, -1.6643 Q9.30246, -1.70476 9.50134, -1.81943 " /><path d="M9.50134, -1.81943 C9.95664, -2.0784 10.2361, -2.63511 10.2712, -3.33768 " /><path d="M9.48538, -2.88401 C9.53114, -3.66987 9.26444, -4.62769 8.79343, -5.43033  C8.50125, -5.93306 8.13505, -6.37342 7.75211, -6.68937  C7.5523, -6.85428 7.35266, -6.98383 7.15321, -7.07801  C6.71198, -7.28736 6.29558, -7.30264 5.98958, -7.12426 " /><path d="M9.61359, -1.88424 C10.0689, -2.1432 10.3484, -2.69991 10.3834, -3.40249 " /><path d="M10.2712, -3.33768 C10.3108, -4.03585 10.1073, -4.86979 9.72851, -5.60999  C9.48719, -6.08508 9.17755, -6.52027 8.84026, -6.86418  C8.58201, -7.12807 8.30806, -7.33857 8.03964, -7.48116  C7.56178, -7.73689 7.10443, -7.7702 6.77535, -7.57792 " /><path d="M6.77535, -7.57792 Q6.57491, -7.46185 6.44246, -7.24718 " /><path d="M9.96508, -2.18277 Q10.2005, -2.22324 10.3994, -2.3379 " /><path d="M10.3994, -2.3379 C10.8547, -2.59688 11.1341, -3.15358 11.1692, -3.85615 " /><path d="M10.3834, -3.40249 C10.4292, -4.18834 10.1625, -5.14617 9.69146, -5.94881  C9.39927, -6.45155 9.03307, -6.89191 8.65012, -7.20786  C8.45036, -7.37272 8.25078, -7.50224 8.05137, -7.59642  C7.61009, -7.80584 7.19363, -7.82114 6.88761, -7.64274 " /><path d="M10.5116, -2.40271 C10.9669, -2.66168 11.2464, -3.21839 11.2814, -3.92096 " /><path d="M11.1692, -3.85615 C11.2089, -4.55433 11.0053, -5.38827 10.6265, -6.12846  C10.3852, -6.60355 10.0756, -7.03874 9.73829, -7.38265  C9.48008, -7.6465 9.20618, -7.85698 8.93781, -7.99956  C8.4599, -8.25536 8.00249, -8.2887 7.67338, -8.0964 " /><path d="M7.67338, -8.0964 Q7.47294, -7.98033 7.34049, -7.76565 " /><path d="M10.8631, -2.70125 Q11.0985, -2.74172 11.2974, -2.85638 " /><path d="M11.2974, -2.85638 C11.7527, -3.11535 12.0322, -3.67206 12.0672, -4.37463 " /><path d="M11.2814, -3.92096 C11.3272, -4.70682 11.0605, -5.66465 10.5895, -6.46729  C10.2973, -6.97003 9.9311, -7.41039 9.54815, -7.72634  C9.34842, -7.89117 9.14888, -8.02067 8.94951, -8.11485  C8.50818, -8.32431 8.09169, -8.33963 7.78563, -8.16121 " /><path d="M11.4096, -2.92119 C11.8649, -3.18016 12.1444, -3.73686 12.1795, -4.43944 " /><path d="M12.0672, -4.37463 C12.1069, -5.0728 11.9034, -5.90674 11.5246, -6.64693  C11.2833, -7.12202 10.9736, -7.55722 10.6363, -7.90112  C10.3782, -8.16492 10.1043, -8.37537 9.83599, -8.51795  C9.35803, -8.77383 8.90055, -8.8072 8.5714, -8.61488 " /><path d="M8.5714, -8.61488 Q8.37097, -8.49881 8.23851, -8.28413 " /><path d="M11.7611, -3.21972 Q11.9965, -3.26019 12.1954, -3.37485 " /><path d="M12.1954, -3.37485 C12.6507, -3.63383 12.9302, -4.19054 12.9652, -4.89311 " /><path d="M12.1795, -4.43944 C12.2252, -5.2253 11.9585, -6.18313 11.4875, -6.98577  C11.1953, -7.48851 10.8291, -7.92887 10.4462, -8.24482  C10.2465, -8.40962 10.047, -8.53911 9.84763, -8.63328  C9.40627, -8.84278 8.98973, -8.85812 8.68366, -8.67969 " /><path d="M12.3077, -3.43966 C12.763, -3.69863 13.0425, -4.25534 13.0775, -4.95792 " /><path d="M12.9652, -4.89311 C13.0049, -5.59128 12.8014, -6.42521 12.4226, -7.1654  C12.1813, -7.64049 11.8716, -8.07569 11.5344, -8.41959  C11.2762, -8.68334 11.0025, -8.89376 10.7342, -9.03634  C10.2562, -9.2923 9.79861, -9.3257 9.46943, -9.13335 " /><path d="M9.46943, -9.13335 Q9.26899, -9.01728 9.13654, -8.8026 " /><path d="M12.6592, -3.7382 Q12.8946, -3.77867 13.0934, -3.89333 " /><path d="M13.0934, -3.89333 C13.5487, -4.1523 13.8282, -4.70901 13.8633, -5.41158 " /><path d="M13.0775, -4.95792 C13.1232, -5.74378 12.8565, -6.70161 12.3855, -7.50426  C12.0933, -8.00699 11.7271, -8.44735 11.3442, -8.7633  C11.1446, -8.92806 10.9451, -9.05752 10.7458, -9.15168  C10.3044, -9.36125 9.8878, -9.37662 9.58169, -9.19816 " /><path d="M13.2057, -3.95814 C13.661, -4.21711 13.9405, -4.77381 13.9755, -5.47639 " /><path d="M13.8633, -5.41158 C13.903, -6.10975 13.6994, -6.94368 13.3206, -7.68387  C13.0793, -8.15896 12.7697, -8.59416 12.4324, -8.93807  C12.1743, -9.20178 11.9006, -9.41217 11.6323, -9.55475  C11.1543, -9.81076 10.6967, -9.84419 10.3675, -9.65183 " /><path d="M10.3675, -9.65183 Q10.167, -9.53576 10.0346, -9.32108 " /><path d="M13.5572, -4.25668 Q13.7926, -4.29714 13.9915, -4.41181 " /><path d="M13.9915, -4.41181 C14.4468, -4.67078 14.7263, -5.22749 14.7613, -5.93006 " /><path d="M13.9755, -5.47639 C14.0213, -6.26225 13.7546, -7.22009 13.2836, -8.02274  C12.9914, -8.52547 12.6252, -8.96583 12.2422, -9.28178  C12.0426, -9.4465 11.8432, -9.57594 11.644, -9.6701  C11.2025, -9.87972 10.7859, -9.89511 10.4797, -9.71664 " /><path d="M14.1037, -4.47661 C14.559, -4.73558 14.8385, -5.29229 14.8735, -5.99487 " /><path d="M14.7613, -5.93006 C14.801, -6.62823 14.5974, -7.46215 14.2187, -8.20234  C13.9773, -8.67743 13.6677, -9.11263 13.3304, -9.45654  C13.0724, -9.7202 12.7987, -9.93057 12.5305, -10.0732  C12.0524, -10.3292 11.5947, -10.3627 11.2655, -10.1703 " /><path d="M11.2655, -10.1703 Q11.065, -10.0542 10.9326, -9.83956 " /><path d="M14.4552, -4.77515 Q14.6906, -4.81562 14.8895, -4.93028 " /><path d="M14.8895, -4.93028 C15.3448, -5.18926 15.6243, -5.74596 15.6593, -6.44853 " /><path d="M14.8735, -5.99487 C14.9193, -6.78073 14.6526, -7.73857 14.1816, -8.54122  C13.8894, -9.04396 13.5232, -9.48432 13.1402, -9.80026  C12.9407, -9.96494 12.7413, -10.0944 12.5421, -10.1885  C12.1006, -10.3982 11.6839, -10.4136 11.3777, -10.2351 " /><path d="M15.0018, -4.99509 C15.457, -5.25406 15.7365, -5.81077 15.7716, -6.51334 " /><path d="M15.6593, -6.44853 C15.699, -7.1467 15.4955, -7.98062 15.1167, -8.72081  C14.8754, -9.1959 14.5657, -9.6311 14.2284, -9.97501  C13.9705, -10.2386 13.6968, -10.449 13.4287, -10.5916  C12.9505, -10.8477 12.4928, -10.8812 12.1635, -10.6888 " /><path d="M12.1635, -10.6888 Q11.9631, -10.5727 11.8306, -10.358 " /><path d="M15.3532, -5.29363 Q15.5886, -5.3341 15.7875, -5.44876 " /><path d="M15.7875, -5.44876 C16.2428, -5.70773 16.5223, -6.26444 16.5573, -6.96701 " /><path d="M15.7716, -6.51334 C15.8173, -7.29921 15.5506, -8.25705 15.0796, -9.0597  C14.7874, -9.56244 14.4212, -10.0028 14.0382, -10.3187  C13.8388, -10.4834 13.6394, -10.6128 13.4403, -10.7069  C12.9987, -10.9167 12.582, -10.9321 12.2758, -10.7536 " /><path d="M15.8998, -5.51357 C16.3551, -5.77254 16.6346, -6.32924 16.6696, -7.03182 " /><path d="M16.5573, -6.96701 C16.597, -7.66517 16.3935, -8.4991 16.0147, -9.23928  C15.7734, -9.71437 15.4638, -10.1496 15.1265, -10.4935  C14.8685, -10.7571 14.5949, -10.9674 14.3268, -11.11  C13.8486, -11.3662 13.3908, -11.3997 13.0615, -11.2073 " /><path d="M13.0615, -11.2073 Q12.8611, -11.0912 12.7286, -10.8765 " /><path d="M16.2513, -5.8121 Q16.4867, -5.85257 16.6856, -5.96723 " /><path d="M16.6856, -5.96723 C17.1409, -6.22621 17.4203, -6.78291 17.4554, -7.48549 " /><path d="M16.6696, -7.03182 C16.7154, -7.81769 16.4486, -8.77553 15.9776, -9.57818  C15.6854, -10.0809 15.3192, -10.5213 14.9363, -10.8372  C14.7368, -11.0019 14.5375, -11.1312 14.3383, -11.2254  C13.8968, -11.4351 13.48, -11.4506 13.1738, -11.2721 " /><path d="M16.7978, -6.03204 C17.2531, -6.29101 17.5326, -6.84772 17.5676, -7.5503 " /><path d="M17.4554, -7.48549 C17.4951, -8.18365 17.2915, -9.01756 16.9127, -9.75775  C16.6714, -10.2328 16.3618, -10.668 16.0245, -11.012  C15.7666, -11.2755 15.4931, -11.4857 15.2251, -11.6283  C14.7468, -11.8846 14.2889, -11.9182 13.9596, -11.7257 " /><path d="M13.9596, -11.7257 Q13.7591, -11.6097 13.6267, -11.395 " /><path d="M17.5676, -7.5503 C17.6134, -8.33617 17.3467, -9.29401 16.8756, -10.0967  C16.5834, -10.5994 16.2172, -11.0398 15.8343, -11.3557  C15.6349, -11.5203 15.4356, -11.6496 15.2366, -11.7438  C14.7949, -11.9536 14.3781, -11.9691 14.0718, -11.7905 " /><path id= "127" d=" M 17.9515 -8.06613 L 17.9515 -9.06813 " />
<path d="M16.829 -11.0124 A1.5875 0.916544 60 0 1 17.9515 -9.06813" />
<path d="M17.9515, -8.06613 C17.9525, -8.57953 17.8114, -9.16516 17.5589, -9.70848  C17.214, -10.461 16.6546, -11.1174 16.1036, -11.4312 " /><path d="M16.1036, -11.4312 C15.8614, -11.5713 15.6226, -11.6475 15.4088, -11.6536 " /><path d="M19.083 -9.72141 A1.5875 0.916544 60 0 1 18.7543 -8.99469" />
<path d="M17.1668 -11.7443 A1.5875 0.916544 60 0 1 19.083 -9.72141" />
</g>

</svg>
