<svg xmlns="http://www.w3.org/2000/svg" viewBox="-2.032 -5.207 29.464 10.414">
<rect width="100%" height="100%" fill="white"/>
<g   fill="none"
   stroke="rgb(0, 0, 0)"
   stroke-linecap="butt"
   stroke-linejoin="miter"
   stroke-width="0.35"
   transform="scale(1, -1)"
  >
<path id= "1" d=" M -7.42591e-17 -1.93675 L 0.906132 -2.84288 " />
<path id= "2" d=" M 0.50921 2.44596 L 0.50921 2.44596 " />
<path d="M0.765549, 2.46332 Q0.759412, 2.45005 0.731083, 2.42687  Q0.690478, 2.39708 0.635059, 2.39594 " /><path d="M1.07009, 2.98666 L0.765549, 2.46332 " /><path id= "5" d=" M 1.12553 3.06228 L 1.12553 3.06228 " />
<path d="M1.13957, -2.46331 L0.921744, -2.8373 " /><path d="M1.40055, -2.46332 Q1.39434, -2.44986 1.36559, -2.42651  Q1.32508, -2.39703 1.27003, -2.39593  Q1.21086, -2.39742 1.16945, -2.43034  Q1.14502, -2.45169 1.13957, -2.46331 " /><path d="M2.03555, 2.46332 Q2.02933, 2.44987 2.00059, 2.42651  Q1.96009, 2.39704 1.90506, 2.39594 " /><path d="M0.635059, 2.39594 Q0.575889, 2.39741 0.534474, 2.43033  Q0.526372, 2.43781 0.518269, 2.44528 " /><path d="M1.40055, -2.46332 L1.8034, -3.15586 " /><path d="M2.03555, 2.46332 L2.43839, 3.15586 " /><path id= "12" d=" M 1.8256 -3.175 L 1.98435 -3.175 " />
<path d="M1.77456, 2.46332 L1.37155, 3.15588 " /><path d="M2.40956, -2.46331 L2.00654, -3.15588 " /><path d="M2.67054, -2.46332 Q2.66433, -2.44986 2.63559, -2.42651  Q2.59507, -2.39703 2.54003, -2.39593  Q2.48086, -2.39742 2.43945, -2.43034  Q2.41502, -2.45169 2.40956, -2.46331 " /><path d="M3.30554, 2.46332 Q3.29933, 2.44987 3.27058, 2.42651  Q3.23008, 2.39704 3.17505, 2.39594 " /><path d="M1.90506, 2.39594 Q1.84589, 2.39741 1.80447, 2.43033  Q1.78002, 2.45169 1.77456, 2.46332 " /><path d="M3.0734, -3.15586 L2.67054, -2.46332 " /><path d="M3.70839, 3.15586 L3.30554, 2.46332 " /><path id= "20" d=" M 3.0956 -3.175 L 3.25435 -3.175 " />
<path d="M3.04456, 2.46332 L2.64155, 3.15587 " /><path d="M3.67956, -2.46331 L3.27654, -3.15588 " /><path d="M3.94054, -2.46332 Q3.93433, -2.44986 3.90558, -2.42651  Q3.86507, -2.39703 3.81002, -2.39593  Q3.75085, -2.39742 3.70945, -2.43034  Q3.68501, -2.45169 3.67956, -2.46331 " /><path d="M4.57554, 2.46332 Q4.56933, 2.44986 4.54058, 2.42651  Q4.50008, 2.39704 4.44505, 2.39594 " /><path d="M3.17505, 2.39594 Q3.11588, 2.39741 3.07447, 2.43033  Q3.05002, 2.45169 3.04456, 2.46332 " /><path d="M4.3434, -3.15587 L3.94054, -2.46332 " /><path d="M4.97839, 3.15586 L4.57554, 2.46332 " /><path id= "28" d=" M 4.3656 -3.175 L 4.52435 -3.175 " />
<path d="M4.31456, 2.46332 L3.91155, 3.15587 " /><path d="M4.94956, -2.46331 L4.54654, -3.15588 " /><path d="M5.21054, -2.46332 Q5.20433, -2.44986 5.17558, -2.42651  Q5.13507, -2.39703 5.08002, -2.39593  Q5.02085, -2.39742 4.97944, -2.43034  Q4.95501, -2.45169 4.94956, -2.46331 " /><path d="M5.84554, 2.46332 Q5.83932, 2.44986 5.81058, 2.42651  Q5.77008, 2.39704 5.71505, 2.39594 " /><path d="M4.44505, 2.39594 Q4.38588, 2.39741 4.34447, 2.43033  Q4.32002, 2.45169 4.31456, 2.46332 " /><path d="M5.6134, -3.15587 L5.21054, -2.46332 " /><path d="M6.24839, 3.15586 L5.84554, 2.46332 " /><path id= "36" d=" M 5.6356 -3.175 L 5.79435 -3.175 " />
<path d="M5.58455, 2.46332 L5.18155, 3.15587 " /><path d="M6.21956, -2.46331 L5.81654, -3.15588 " /><path d="M6.48053, -2.46332 Q6.47432, -2.44986 6.44558, -2.42651  Q6.40506, -2.39703 6.35002, -2.39593  Q6.29085, -2.39742 6.24944, -2.43034  Q6.22501, -2.45169 6.21956, -2.46331 " /><path d="M7.11553, 2.46332 Q7.10932, 2.44986 7.08057, 2.42651  Q7.04007, 2.39704 6.98504, 2.39594 " /><path d="M5.71505, 2.39594 Q5.65588, 2.39741 5.61446, 2.43033  Q5.59001, 2.45169 5.58455, 2.46332 " /><path d="M6.8834, -3.15587 L6.48053, -2.46332 " /><path d="M7.5184, 3.15586 L7.11553, 2.46332 " /><path id= "44" d=" M 6.9056 -3.175 L 7.06435 -3.175 " />
<path d="M6.85455, 2.46332 L6.45155, 3.15587 " /><path d="M7.48955, -2.46331 L7.08655, -3.15588 " /><path d="M7.75053, -2.46332 Q7.74432, -2.44986 7.71557, -2.42651  Q7.67506, -2.39703 7.62001, -2.39593  Q7.56084, -2.39742 7.51944, -2.43034  Q7.49501, -2.45169 7.48955, -2.46331 " /><path d="M8.38553, 2.46332 Q8.37932, 2.44986 8.35057, 2.42651  Q8.31007, 2.39704 8.25504, 2.39594 " /><path d="M6.98504, 2.39594 Q6.92587, 2.39741 6.88446, 2.43033  Q6.86001, 2.45169 6.85455, 2.46332 " /><path d="M8.1534, -3.15587 L7.75053, -2.46332 " /><path d="M8.7884, 3.15586 L8.38553, 2.46332 " /><path id= "52" d=" M 8.17561 -3.175 L 8.33435 -3.175 " />
<path d="M8.12455, 2.46332 L7.72155, 3.15587 " /><path d="M8.75955, -2.46331 L8.35655, -3.15588 " /><path d="M9.02053, -2.46332 Q9.01432, -2.44986 8.98557, -2.42651  Q8.94505, -2.39703 8.89001, -2.39593  Q8.83084, -2.39742 8.78943, -2.43035  Q8.765, -2.45169 8.75955, -2.46331 " /><path d="M9.65553, 2.46332 Q9.64931, 2.44986 9.62057, 2.42651  Q9.58007, 2.39704 9.52504, 2.39594 " /><path d="M8.25504, 2.39594 Q8.19587, 2.39741 8.15446, 2.43033  Q8.13001, 2.45169 8.12455, 2.46332 " /><path d="M9.42341, -3.15587 L9.02053, -2.46332 " /><path d="M10.0584, 3.15586 L9.65553, 2.46332 " /><path id= "60" d=" M 9.44561 -3.175 L 9.60435 -3.175 " />
<path d="M9.39455, 2.46332 L8.99156, 3.15587 " /><path d="M10.0295, -2.46331 L9.62655, -3.15588 " /><path d="M10.2905, -2.46332 Q10.2843, -2.44986 10.2556, -2.4265  Q10.2151, -2.39703 10.16, -2.39593  Q10.1008, -2.39742 10.0594, -2.43035  Q10.035, -2.45169 10.0295, -2.46331 " /><path d="M10.9255, 2.46332 Q10.9193, 2.44986 10.8906, 2.42651  Q10.8501, 2.39704 10.795, 2.39594 " /><path d="M9.52504, 2.39594 Q9.46587, 2.39741 9.42445, 2.43033  Q9.4, 2.45169 9.39455, 2.46332 " /><path d="M10.6934, -3.15587 L10.2905, -2.46332 " /><path d="M11.3284, 3.15586 L10.9255, 2.46332 " /><path id= "68" d=" M 10.7156 -3.175 L 10.8744 -3.175 " />
<path d="M10.6645, 2.46332 L10.2616, 3.15587 " /><path d="M11.2995, -2.46331 L10.8966, -3.15588 " /><path d="M11.5605, -2.46331 Q11.5543, -2.44986 11.5256, -2.4265  Q11.485, -2.39703 11.43, -2.39593  Q11.3708, -2.39742 11.3294, -2.43035  Q11.305, -2.45169 11.2995, -2.46331 " /><path d="M12.1955, 2.46332 Q12.1893, 2.44986 12.1606, 2.42651  Q12.1201, 2.39704 12.065, 2.39594 " /><path d="M10.795, 2.39594 Q10.7359, 2.39741 10.6945, 2.43033  Q10.67, 2.45169 10.6645, 2.46332 " /><path d="M11.9634, -3.15587 L11.5605, -2.46331 " /><path d="M12.5984, 3.15586 L12.1955, 2.46332 " /><path id= "76" d=" M 11.9856 -3.175 L 12.1444 -3.175 " />
<path d="M11.9345, 2.46332 L11.5316, 3.15587 " /><path d="M12.5695, -2.46331 L12.1666, -3.15588 " /><path d="M12.8305, -2.46331 Q12.8243, -2.44986 12.7956, -2.4265  Q12.755, -2.39703 12.7, -2.39593  Q12.6408, -2.39742 12.5994, -2.43035  Q12.575, -2.4517 12.5695, -2.46331 " /><path d="M13.4655, 2.46332 Q13.4593, 2.44986 13.4306, 2.42651  Q13.3901, 2.39704 13.335, 2.39594 " /><path d="M12.065, 2.39594 Q12.0059, 2.39741 11.9644, 2.43033  Q11.94, 2.45169 11.9345, 2.46332 " /><path d="M13.2334, -3.15587 L12.8305, -2.46331 " /><path d="M13.8684, 3.15586 L13.4655, 2.46332 " /><path id= "84" d=" M 13.2556 -3.175 L 13.4144 -3.175 " />
<path d="M13.2045, 2.46332 L12.8016, 3.15587 " /><path d="M13.8395, -2.46331 L13.4366, -3.15588 " /><path d="M14.1005, -2.46331 Q14.0943, -2.44986 14.0656, -2.4265  Q14.025, -2.39703 13.97, -2.39593  Q13.9108, -2.39742 13.8694, -2.43035  Q13.845, -2.4517 13.8395, -2.46331 " /><path d="M14.7355, 2.46332 Q14.7293, 2.44986 14.7006, 2.42651  Q14.6601, 2.39704 14.605, 2.39594 " /><path d="M13.335, 2.39594 Q13.2759, 2.39741 13.2344, 2.43033  Q13.21, 2.45169 13.2045, 2.46332 " /><path d="M14.5034, -3.15587 L14.1005, -2.46331 " /><path d="M15.1384, 3.15586 L14.7355, 2.46332 " /><path id= "92" d=" M 14.5256 -3.175 L 14.6844 -3.175 " />
<path d="M14.4745, 2.46332 L14.0716, 3.15587 " /><path d="M15.1095, -2.46331 L14.7066, -3.15588 " /><path d="M15.3705, -2.46331 Q15.3643, -2.44985 15.3356, -2.4265  Q15.295, -2.39703 15.24, -2.39593  Q15.1808, -2.39742 15.1394, -2.43035  Q15.115, -2.4517 15.1095, -2.46331 " /><path d="M16.0055, 2.46332 Q15.9993, 2.44986 15.9706, 2.42651  Q15.93, 2.39704 15.875, 2.39594 " /><path d="M14.605, 2.39594 Q14.5459, 2.39741 14.5044, 2.43033  Q14.48, 2.45169 14.4745, 2.46332 " /><path d="M15.7734, -3.15587 L15.3705, -2.46331 " /><path d="M16.4084, 3.15586 L16.0055, 2.46332 " /><path id= "100" d=" M 15.7956 -3.175 L 15.9544 -3.175 " />
<path d="M15.7445, 2.46332 L15.3416, 3.15587 " /><path d="M16.3795, -2.46331 L15.9766, -3.15588 " /><path d="M16.6405, -2.46331 Q16.6343, -2.44985 16.6056, -2.4265  Q16.565, -2.39703 16.51, -2.39593  Q16.4508, -2.39742 16.4094, -2.43035  Q16.385, -2.4517 16.3795, -2.46331 " /><path d="M17.2755, 2.46332 Q17.2693, 2.44986 17.2405, 2.42651  Q17.2, 2.39704 17.145, 2.39594 " /><path d="M15.875, 2.39594 Q15.8159, 2.39741 15.7744, 2.43033  Q15.75, 2.45169 15.7445, 2.46332 " /><path d="M17.0434, -3.15587 L16.6405, -2.46331 " /><path d="M17.6784, 3.15586 L17.2755, 2.46332 " /><path id= "108" d=" M 17.0656 -3.175 L 17.2244 -3.175 " />
<path d="M17.0145, 2.46332 L16.6116, 3.15587 " /><path d="M17.6495, -2.46331 L17.2466, -3.15587 " /><path d="M17.9105, -2.46331 Q17.9043, -2.44985 17.8755, -2.4265  Q17.835, -2.39703 17.78, -2.39593  Q17.7208, -2.39742 17.6794, -2.43035  Q17.655, -2.4517 17.6495, -2.46331 " /><path d="M18.5455, 2.46332 Q18.5393, 2.44986 18.5105, 2.42651  Q18.47, 2.39704 18.415, 2.39594 " /><path d="M17.145, 2.39594 Q17.0859, 2.39741 17.0444, 2.43033  Q17.02, 2.45169 17.0145, 2.46332 " /><path d="M18.3134, -3.15587 L17.9105, -2.46331 " /><path d="M18.9484, 3.15587 L18.5455, 2.46332 " /><path id= "116" d=" M 18.3356 -3.175 L 18.4944 -3.175 " />
<path d="M18.2845, 2.46332 L17.8816, 3.15587 " /><path d="M18.9195, -2.46331 L18.5166, -3.15587 " /><path d="M19.1805, -2.46331 Q19.1743, -2.44985 19.1455, -2.4265  Q19.105, -2.39703 19.05, -2.39593  Q18.9908, -2.39742 18.9494, -2.43035  Q18.925, -2.4517 18.9195, -2.46331 " /><path d="M19.8155, 2.46332 Q19.8093, 2.44986 19.7805, 2.42651  Q19.74, 2.39704 19.685, 2.39594 " /><path d="M18.415, 2.39594 Q18.3558, 2.39741 18.3144, 2.43033  Q18.29, 2.45169 18.2845, 2.46332 " /><path d="M19.5834, -3.15587 L19.1805, -2.46331 " /><path d="M20.2184, 3.15587 L19.8155, 2.46332 " /><path id= "124" d=" M 19.6056 -3.175 L 19.7644 -3.175 " />
<path d="M19.5545, 2.46332 L19.1516, 3.15587 " /><path d="M20.1895, -2.46331 L19.7866, -3.15587 " /><path d="M20.4505, -2.46331 Q20.4443, -2.44985 20.4155, -2.4265  Q20.375, -2.39703 20.32, -2.39593  Q20.2608, -2.39742 20.2194, -2.43035  Q20.195, -2.4517 20.1895, -2.46331 " /><path d="M21.0855, 2.46332 Q21.0793, 2.44986 21.0505, 2.42651  Q21.01, 2.39704 20.955, 2.39594 " /><path d="M19.685, 2.39594 Q19.6258, 2.39741 19.5844, 2.43033  Q19.56, 2.45169 19.5545, 2.46332 " /><path d="M20.8534, -3.15587 L20.4505, -2.46331 " /><path d="M21.4884, 3.15587 L21.0855, 2.46332 " /><path id= "132" d=" M 20.8756 -3.175 L 21.0344 -3.175 " />
<path d="M20.8245, 2.46332 L20.4216, 3.15587 " /><path d="M21.4595, -2.46331 L21.0566, -3.15587 " /><path d="M21.7205, -2.46331 Q21.7143, -2.44985 21.6855, -2.4265  Q21.645, -2.39703 21.59, -2.39593  Q21.5308, -2.39742 21.4894, -2.43035  Q21.465, -2.4517 21.4595, -2.46331 " /><path d="M22.3555, 2.46332 Q22.3493, 2.44986 22.3205, 2.42651  Q22.28, 2.39704 22.225, 2.39594 " /><path d="M20.955, 2.39594 Q20.8958, 2.39741 20.8544, 2.43033  Q20.83, 2.45169 20.8245, 2.46332 " /><path d="M22.1234, -3.15587 L21.7205, -2.46331 " /><path d="M22.3555, 2.46332 L22.5568, 2.80906 " /><path id= "140" d=" M 22.1456 -3.175 L 22.2123 -3.175 " />
<path d="M22.0945, 2.46332 L21.6916, 3.15587 " /><path d="M22.7295, -2.46331 L22.4876, -2.87879 " /><path d="M22.225, 2.39594 Q22.1658, 2.39741 22.1244, 2.43033  Q22.1, 2.4517 22.0945, 2.46332 " /><path d="M22.7295, -2.46331 Q22.7357, -2.44985 22.7645, -2.4265  Q22.805, -2.39703 22.86, -2.39593  Q22.9154, -2.39708 22.956, -2.42683 " /><path id= "145" d=" M 23.7998 -1.5875 L 22.961 -2.42628 " />
<path id= "146" d=" M 22.4301 -2.95715 L 22.2123 -3.175 " />
<path id= "147" d=" M 23.7998 -1.5875 L 25.4 -1.5875 " />
</g>
<g   fill="none"
   stroke="rgb(0, 0, 0)"
   stroke-linecap="butt"
   stroke-linejoin="miter"
   stroke-width="0.35"
   transform="scale(1, -1)"
  >
<path d="M0, -1.93675 L0, -1.88819  L0, -1.74495  L0, -1.51421  L0, -1.20754  L0, -0.840324  L0, -0.430967  L0, -3.33067e-16  L0, 0.430967  L0, 0.840324  L0, 1.20754  L0, 1.51421  L0, 1.74495  L0, 1.88819  L0, 1.93675 " /><path d="M1.07009, 2.98666 Q1.098, 3.03472 1.12553, 3.06228 " /><path id= "3" d=" M 1.12553 3.06228 L 1.23825 3.175 " />
<path d="M0.921744, -2.8373 Q0.913955, -2.8507 0.906132, -2.84288 " /><path d="M0.906132, -2.84288 C0.871462, -2.81184 0.836292, -2.4474 0.800574, -1.85977  C0.772934, -1.40845 0.744966, -0.830891 0.716655, -0.243884  C0.689274, 0.323477 0.661569, 0.895849 0.633512, 1.35841  C0.606284, 1.80859 0.578728, 2.15228 0.550828, 2.32043 " /><path d="M0.50921, 2.44596 Q0.51359, 2.45034 0.518269, 2.44528 " /><path d="M0.518269, 2.44528 Q0.533055, 2.42887 0.550828, 2.32043 " /><path id= "8" d=" M 0 1.93675 L 0.50921 2.44596 " />
<path d="M1.23825, 3.08716 Q1.23825, 3.17465 1.23825, 3.175 " /><path d="M1.12553, 3.06228 Q1.18265, 3.11943 1.23825, 3.08716 " /><path id= "11" d=" M 1.23825 3.175 L 1.34935 3.175 " />
<path d="M1.23825, 3.08716 C1.27516, 2.95249 1.31207, 2.65909 1.34898, 2.24917  C1.4084, 1.59259 1.46783, 0.6303 1.52726, -0.300505  C1.57192, -0.999572 1.61658, -1.67316 1.66124, -2.18196  C1.70862, -2.72465 1.75601, -3.07638 1.8034, -3.15586 " /><path d="M1.8034, -3.15586 Q1.8145, -3.17499 1.8256, -3.175 " /><path d="M2.43839, 3.15586 Q2.44949, 3.17499 2.4606, 3.175 " /><path id= "15" d=" M 2.4606 3.175 L 2.61935 3.175 " />
<path d="M1.34935, 3.175 Q1.36045, 3.17499 1.37155, 3.15588 " /><path d="M1.37155, 3.15588 C1.42357, 3.06935 1.47559, 2.65187 1.52761, 2.01821  C1.58408, 1.33496 1.64055, 0.405877 1.69702, -0.472165  C1.74371, -1.19841 1.79041, -1.88199 1.8371, -2.36915  C1.88619, -2.88482 1.93526, -3.17751 1.98435, -3.175 " /><path d="M1.98435, -3.175 Q1.99544, -3.17499 2.00654, -3.15588 " /><path d="M2.4606, 3.175 C2.51338, 3.17834 2.56619, 2.83767 2.61898, 2.24917  C2.67882, 1.588 2.73867, 0.616665 2.79851, -0.320144  C2.84282, -1.01313 2.88711, -1.67964 2.93142, -2.18394  C2.97874, -2.72552 3.02607, -3.07647 3.0734, -3.15586 " /><path d="M3.0734, -3.15586 Q3.0845, -3.17499 3.0956, -3.175 " /><path d="M3.70839, 3.15586 Q3.7195, 3.17499 3.7306, 3.175 " /><path id= "22" d=" M 3.7306 3.175 L 3.88935 3.175 " />
<path d="M2.61935, 3.175 Q2.63045, 3.17499 2.64155, 3.15587 " /><path d="M2.64155, 3.15587 C2.69357, 3.06935 2.74559, 2.65187 2.79761, 2.0182  C2.85408, 1.33501 2.91055, 0.406014 2.96701, -0.471969  C3.0114, -1.16229 3.0558, -1.81457 3.10019, -2.29545  C3.15158, -2.85598 3.20296, -3.178 3.25435, -3.175 " /><path d="M3.25435, -3.175 Q3.26545, -3.17499 3.27654, -3.15588 " /><path d="M3.7306, 3.175 C3.78339, 3.17834 3.83619, 2.83767 3.88898, 2.24918  C3.94882, 1.58805 4.00866, 0.616817 4.0685, -0.319928  C4.1128, -1.0128 4.15709, -1.67923 4.20138, -2.18353  C4.24872, -2.72534 4.29606, -3.07645 4.3434, -3.15587 " /><path d="M4.3434, -3.15587 Q4.3545, -3.17499 4.3656, -3.175 " /><path d="M4.97839, 3.15586 Q4.9895, 3.17499 5.0006, 3.175 " /><path id= "29" d=" M 5.0006 3.175 L 5.15935 3.175 " />
<path d="M3.88935, 3.175 Q3.90045, 3.17499 3.91155, 3.15587 " /><path d="M3.91155, 3.15587 C3.96358, 3.06935 4.01559, 2.65187 4.06761, 2.0182  C4.12408, 1.33506 4.18054, 0.406151 4.237, -0.471772  C4.28139, -1.16206 4.32578, -1.81434 4.37017, -2.29523  C4.42157, -2.85589 4.47295, -3.178 4.52435, -3.175 " /><path d="M4.52435, -3.175 Q4.53545, -3.17499 4.54654, -3.15588 " /><path d="M5.0006, 3.175 C5.05339, 3.17834 5.10619, 2.83767 5.15898, 2.24918  C5.21882, 1.58811 5.27865, 0.616969 5.33849, -0.319713  C5.38278, -1.01247 5.42706, -1.67881 5.47135, -2.18311  C5.5187, -2.72516 5.56605, -3.07643 5.6134, -3.15587 " /><path d="M5.6134, -3.15587 Q5.6245, -3.17499 5.6356, -3.175 " /><path d="M6.24839, 3.15586 Q6.2595, 3.17499 6.2706, 3.175 " /><path id= "36" d=" M 6.2706 3.175 L 6.42935 3.175 " />
<path d="M5.15935, 3.175 Q5.17045, 3.17499 5.18155, 3.15587 " /><path d="M5.18155, 3.15587 C5.23358, 3.06935 5.28559, 2.65186 5.33761, 2.01819  C5.39407, 1.3351 5.45053, 0.406273 5.50699, -0.471598  C5.55138, -1.16186 5.59577, -1.81413 5.64016, -2.29505  C5.69156, -2.85582 5.74295, -3.178 5.79435, -3.175 " /><path d="M5.79435, -3.175 Q5.80545, -3.17499 5.81654, -3.15588 " /><path d="M6.2706, 3.175 C6.32339, 3.17834 6.37619, 2.83767 6.42898, 2.24919  C6.48881, 1.58817 6.54865, 0.61713 6.60848, -0.319485  C6.65275, -1.01212 6.69703, -1.67836 6.74131, -2.18266  C6.78867, -2.72496 6.83604, -3.07642 6.8834, -3.15587 " /><path d="M6.8834, -3.15587 Q6.8945, -3.17499 6.9056, -3.175 " /><path d="M7.5184, 3.15586 Q7.5295, 3.17499 7.5406, 3.175 " /><path id= "43" d=" M 7.5406 3.175 L 7.69935 3.175 " />
<path d="M6.42935, 3.175 Q6.44045, 3.17499 6.45155, 3.15587 " /><path d="M6.45155, 3.15587 C6.50358, 3.06935 6.55559, 2.65186 6.60762, 2.01819  C6.66407, 1.33515 6.72053, 0.406418 6.77697, -0.471388  C6.82136, -1.16162 6.86575, -1.81388 6.91014, -2.29482  C6.96154, -2.85573 7.01294, -3.17801 7.06435, -3.175 " /><path d="M7.06435, -3.175 Q7.07545, -3.17499 7.08655, -3.15588 " /><path d="M7.5406, 3.175 C7.59339, 3.17834 7.64619, 2.83768 7.69898, 2.24919  C7.75881, 1.58822 7.81864, 0.617276 7.87846, -0.319277  C7.92273, -1.01179 7.967, -1.67794 8.01127, -2.18224  C8.05865, -2.72477 8.10603, -3.0764 8.1534, -3.15587 " /><path d="M8.1534, -3.15587 Q8.1645, -3.17499 8.17561, -3.175 " /><path d="M8.7884, 3.15586 Q8.7995, 3.17499 8.8106, 3.175 " /><path id= "50" d=" M 8.8106 3.175 L 8.96936 3.175 " />
<path d="M7.69935, 3.175 Q7.71045, 3.17499 7.72155, 3.15587 " /><path d="M7.72155, 3.15587 C7.77358, 3.06934 7.82559, 2.65186 7.87762, 2.01818  C7.93407, 1.33519 7.99052, 0.406542 8.04696, -0.471211  C8.09135, -1.16138 8.13573, -1.8136 8.18011, -2.29456  C8.23153, -2.85562 8.28294, -3.17801 8.33435, -3.175 " /><path d="M8.33435, -3.175 Q8.34545, -3.17499 8.35655, -3.15588 " /><path d="M8.8106, 3.175 C8.86339, 3.17834 8.91619, 2.83768 8.96898, 2.2492  C9.02881, 1.58828 9.08863, 0.617437 9.14845, -0.31905  C9.19271, -1.01143 9.23697, -1.67748 9.28123, -2.18176  C9.32862, -2.72457 9.37602, -3.07638 9.42341, -3.15587 " /><path d="M9.42341, -3.15587 Q9.43451, -3.17499 9.44561, -3.175 " /><path d="M10.0584, 3.15586 Q10.0695, 3.17499 10.0806, 3.175 " /><path id= "57" d=" M 10.0806 3.175 L 10.2394 3.175 " />
<path d="M8.96936, 3.175 Q8.98046, 3.17499 8.99156, 3.15587 " /><path d="M8.99156, 3.15587 C9.04358, 3.06934 9.0956, 2.65185 9.14762, 2.01818  C9.20406, 1.33525 9.26051, 0.40672 9.31695, -0.470955  C9.36132, -1.16102 9.4057, -1.81317 9.45008, -2.29415  C9.50151, -2.85547 9.55293, -3.17801 9.60435, -3.175 " /><path d="M9.60435, -3.175 Q9.61545, -3.17499 9.62655, -3.15588 " /><path d="M10.0806, 3.175 C10.1334, 3.17834 10.1862, 2.83768 10.239, 2.2492  C10.2988, 1.58832 10.3586, 0.61756 10.4184, -0.318876  C10.4627, -1.01114 10.5069, -1.67711 10.5512, -2.1814  C10.5986, -2.72441 10.646, -3.07636 10.6934, -3.15587 " /><path d="M10.6934, -3.15587 Q10.7045, -3.17499 10.7156, -3.175 " /><path d="M11.3284, 3.15586 Q11.3395, 3.17499 11.3506, 3.175 " /><path id= "64" d=" M 11.3506 3.175 L 11.5094 3.175 " />
<path d="M10.2394, 3.175 Q10.2505, 3.17499 10.2616, 3.15587 " /><path d="M10.2616, 3.15587 C10.3136, 3.06934 10.3656, 2.65185 10.4176, 2.01817  C10.4741, 1.33529 10.5305, 0.406847 10.5869, -0.470772  C10.632, -1.17099 10.677, -1.83203 10.722, -2.31508  C10.7728, -2.8637 10.8236, -3.17787 10.8744, -3.175 " /><path d="M10.8744, -3.175 Q10.8855, -3.17499 10.8966, -3.15588 " /><path d="M11.3506, 3.175 C11.4034, 3.17834 11.4562, 2.83768 11.509, 2.24921  C11.5688, 1.58838 11.6286, 0.617715 11.6884, -0.318656  C11.7327, -1.01079 11.7769, -1.67664 11.8212, -2.18092  C11.8686, -2.7242 11.916, -3.07634 11.9634, -3.15587 " /><path d="M11.9634, -3.15587 Q11.9745, -3.17499 11.9856, -3.175 " /><path d="M12.5984, 3.15586 Q12.6095, 3.17499 12.6206, 3.175 " /><path id= "71" d=" M 12.6206 3.175 L 12.7794 3.175 " />
<path d="M11.5094, 3.175 Q11.5205, 3.17499 11.5316, 3.15587 " /><path d="M11.5316, 3.15587 C11.5836, 3.06934 11.6356, 2.65185 11.6876, 2.01816  C11.7441, 1.33534 11.8005, 0.40699 11.8569, -0.470568  C11.902, -1.17164 11.9471, -1.83345 11.9922, -2.3167  C12.0429, -2.86434 12.0936, -3.17786 12.1444, -3.175 " /><path d="M12.1444, -3.175 Q12.1555, -3.17499 12.1666, -3.15588 " /><path d="M12.6206, 3.175 C12.6734, 3.17834 12.7262, 2.83768 12.779, 2.24921  C12.8388, 1.58843 12.8986, 0.617863 12.9584, -0.318446  C13.0027, -1.01044 13.0469, -1.67618 13.0911, -2.18045  C13.1386, -2.72399 13.186, -3.07632 13.2334, -3.15587 " /><path d="M13.2334, -3.15587 Q13.2445, -3.17499 13.2556, -3.175 " /><path d="M13.8684, 3.15586 Q13.8795, 3.17499 13.8906, 3.175 " /><path id= "78" d=" M 13.8906 3.175 L 14.0494 3.175 " />
<path d="M12.7794, 3.175 Q12.7905, 3.17499 12.8016, 3.15587 " /><path d="M12.8016, 3.15587 C12.8536, 3.06934 12.9056, 2.65184 12.9576, 2.01816  C13.0141, 1.33538 13.0705, 0.407106 13.1269, -0.470401  C13.172, -1.17229 13.2172, -1.83482 13.2623, -2.31825  C13.313, -2.86494 13.3637, -3.17785 13.4144, -3.175 " /><path d="M13.4144, -3.175 Q13.4255, -3.17499 13.4366, -3.15588 " /><path d="M13.8906, 3.175 C13.9434, 3.17834 13.9962, 2.83768 14.049, 2.24921  C14.1088, 1.58849 14.1686, 0.618028 14.2284, -0.318212  C14.2726, -1.01004 14.3169, -1.67566 14.3611, -2.17992  C14.4085, -2.72376 14.456, -3.0763 14.5034, -3.15587 " /><path d="M14.5034, -3.15587 Q14.5145, -3.17499 14.5256, -3.175 " /><path d="M15.1384, 3.15586 Q15.1495, 3.17499 15.1606, 3.175 " /><path id= "85" d=" M 15.1606 3.175 L 15.3194 3.175 " />
<path d="M14.0494, 3.175 Q14.0605, 3.17499 14.0716, 3.15587 " /><path d="M14.0716, 3.15587 C14.1236, 3.06934 14.1756, 2.65184 14.2276, 2.01816  C14.2841, 1.33541 14.3405, 0.407206 14.3969, -0.470257  C14.4421, -1.17294 14.4873, -1.83617 14.5325, -2.31977  C14.5831, -2.86554 14.6337, -3.17784 14.6844, -3.175 " /><path d="M14.6844, -3.175 Q14.6955, -3.17499 14.7066, -3.15588 " /><path d="M15.1606, 3.175 C15.2134, 3.17834 15.2662, 2.83769 15.319, 2.24922  C15.3788, 1.58855 15.4386, 0.618206 15.4984, -0.317959  C15.5426, -1.00961 15.5868, -1.67507 15.631, -2.17932  C15.6785, -2.7235 15.726, -3.07627 15.7734, -3.15587 " /><path d="M15.7734, -3.15587 Q15.7845, -3.17499 15.7956, -3.175 " /><path d="M16.4084, 3.15586 Q16.4195, 3.17499 16.4306, 3.175 " /><path id= "92" d=" M 16.4306 3.175 L 16.5894 3.175 " />
<path d="M15.3194, 3.175 Q15.3305, 3.17499 15.3416, 3.15587 " /><path d="M15.3416, 3.15587 C15.3936, 3.06934 15.4456, 2.65184 15.4976, 2.01815  C15.5541, 1.33547 15.6105, 0.40737 15.6669, -0.470022  C15.7159, -1.23189 15.7648, -1.9463 15.8138, -2.43772  C15.8607, -2.91129 15.9075, -3.1771 15.9544, -3.175 " /><path d="M15.9544, -3.175 Q15.9655, -3.17499 15.9766, -3.15588 " /><path d="M16.4306, 3.175 C16.4834, 3.17834 16.5362, 2.83769 16.589, 2.24922  C16.6488, 1.5886 16.7086, 0.618337 16.7684, -0.317774  C16.8126, -1.00928 16.8568, -1.67464 16.901, -2.17888  C16.9485, -2.7233 16.9959, -3.07625 17.0434, -3.15587 " /><path d="M17.0434, -3.15587 Q17.0545, -3.17499 17.0656, -3.175 " /><path d="M17.6784, 3.15586 Q17.6895, 3.17499 17.7006, 3.175 " /><path id= "99" d=" M 17.7006 3.175 L 17.8594 3.175 " />
<path d="M16.5894, 3.175 Q16.6005, 3.17499 16.6116, 3.15587 " /><path d="M16.6116, 3.15587 C16.6636, 3.06933 16.7156, 2.65183 16.7676, 2.01815  C16.8241, 1.33551 16.8805, 0.407508 16.9369, -0.469824  C16.9858, -1.23153 17.0348, -1.94583 17.0838, -2.43727  C17.1306, -2.91112 17.1775, -3.1771 17.2244, -3.175 " /><path d="M17.2244, -3.175 Q17.2355, -3.17499 17.2466, -3.15587 " /><path d="M17.7006, 3.175 C17.7534, 3.17834 17.8062, 2.83769 17.859, 2.24923  C17.9188, 1.58866 17.9786, 0.618489 18.0384, -0.317558  C18.0826, -1.0089 18.1267, -1.67412 18.1709, -2.17834  C18.2184, -2.72307 18.2659, -3.07623 18.3134, -3.15587 " /><path d="M18.3134, -3.15587 Q18.3245, -3.17499 18.3356, -3.175 " /><path d="M18.9484, 3.15587 Q18.9595, 3.17499 18.9706, 3.175 " /><path id= "106" d=" M 18.9706 3.175 L 19.1294 3.175 " />
<path d="M17.8594, 3.175 Q17.8705, 3.17499 17.8816, 3.15587 " /><path d="M17.8816, 3.15587 C17.9336, 3.06933 17.9856, 2.65183 18.0376, 2.01814  C18.094, 1.33556 18.1505, 0.407652 18.2069, -0.469617  C18.2558, -1.23116 18.3048, -1.94533 18.3537, -2.43679  C18.4006, -2.91093 18.4475, -3.1771 18.4944, -3.175 " /><path d="M18.4944, -3.175 Q18.5055, -3.17499 18.5166, -3.15587 " /><path d="M18.9706, 3.175 C19.0234, 3.17834 19.0762, 2.83769 19.129, 2.24923  C19.1888, 1.58871 19.2486, 0.618636 19.3084, -0.317349  C19.3525, -1.00851 19.3967, -1.67358 19.4409, -2.17778  C19.4884, -2.72282 19.5359, -3.07621 19.5834, -3.15587 " /><path d="M19.5834, -3.15587 Q19.5945, -3.17499 19.6056, -3.175 " /><path d="M20.2184, 3.15587 Q20.2295, 3.17499 20.2406, 3.175 " /><path id= "113" d=" M 20.2406 3.175 L 20.3994 3.175 " />
<path d="M19.1294, 3.175 Q19.1405, 3.17499 19.1516, 3.15587 " /><path d="M19.1516, 3.15587 C19.2036, 3.06933 19.2556, 2.65183 19.3076, 2.01813  C19.364, 1.33561 19.4205, 0.407781 19.4769, -0.469432  C19.5258, -1.23081 19.5747, -1.94486 19.6237, -2.43635  C19.6706, -2.91076 19.7175, -3.17711 19.7644, -3.175 " /><path d="M19.7644, -3.175 Q19.7755, -3.17499 19.7866, -3.15587 " /><path d="M20.2406, 3.175 C20.2934, 3.17834 20.3462, 2.83769 20.399, 2.24924  C20.4588, 1.58876 20.5186, 0.618787 20.5783, -0.317135  C20.6225, -1.00799 20.6667, -1.67281 20.7108, -2.17696  C20.7584, -2.72246 20.8059, -3.07617 20.8534, -3.15587 " /><path d="M20.8534, -3.15587 Q20.8645, -3.17499 20.8756, -3.175 " /><path d="M21.4884, 3.15587 Q21.4995, 3.17499 21.5106, 3.175 " /><path id= "120" d=" M 21.5106 3.175 L 21.6694 3.175 " />
<path d="M20.3994, 3.175 Q20.4105, 3.17499 20.4216, 3.15587 " /><path d="M20.4216, 3.15587 C20.4736, 3.06933 20.5256, 2.65183 20.5776, 2.01813  C20.634, 1.33561 20.6905, 0.407803 20.7469, -0.4694  C20.7958, -1.23075 20.8447, -1.94478 20.8937, -2.43628  C20.9406, -2.91074 20.9875, -3.17711 21.0344, -3.175 " /><path d="M21.0344, -3.175 Q21.0455, -3.17499 21.0566, -3.15587 " /><path d="M21.5106, 3.175 C21.5634, 3.17834 21.6162, 2.8377 21.669, 2.24924  C21.7288, 1.58885 21.7885, 0.619018 21.8483, -0.316807  C21.8925, -1.00717 21.9366, -1.67155 21.9807, -2.17562  C22.0283, -2.72187 22.0759, -3.07611 22.1234, -3.15587 " /><path d="M22.1234, -3.15587 Q22.1345, -3.17499 22.1456, -3.175 " /><path d="M22.5726, 2.81469 Q22.5647, 2.82259 22.5568, 2.80906 " /><path d="M22.2123, -3.175 C22.2123, -3.17489 22.2123, -3.0633 22.2123, -2.85126 " /><path d="M21.6694, 3.175 Q21.6805, 3.17499 21.6916, 3.15587 " /><path d="M21.6916, 3.15587 C21.7436, 3.06933 21.7956, 2.65182 21.8476, 2.01812  C21.8848, 1.56773 21.922, 1.01265 21.9592, 0.433897  C22.0045, -0.271938 22.0498, -1.00927 22.0952, -1.62119  C22.1342, -2.14916 22.1733, -2.58232 22.2123, -2.85126 " /><path d="M22.2123, -2.85126 Q22.3183, -3.06809 22.4301, -2.95715 " /><path d="M22.4301, -2.95715 Q22.4587, -2.92859 22.4876, -2.87879 " /><path d="M22.961, -2.42628 Q22.9586, -2.42872 22.956, -2.42683 " /><path d="M22.956, -2.42683 Q22.9332, -2.40676 22.8997, -2.0684 " /><path id= "134" d=" M 22.5726 2.81469 L 23.7998 1.5875 " />
<path d="M23.7998, -1.5875 L23.7998, -1.5477  L23.7998, -1.43029  L23.7998, -1.24116  L23.7998, -0.98979  L23.7998, -0.68879  L23.7998, -0.353252  L23.7998, -2.77556e-16  L23.7998, 0.353252  L23.7998, 0.68879  L23.7998, 0.98979  L23.7998, 1.24116  L23.7998, 1.43029  L23.7998, 1.5477  L23.7998, 1.5875 " /><path d="M22.5726, 2.81469 C22.6, 2.78872 22.6277, 2.56138 22.6558, 2.17635  C22.6826, 1.80942 22.7098, 1.29992 22.7374, 0.745243  C22.764, 0.209287 22.7909, -0.365757 22.8182, -0.870795  C22.845, -1.36864 22.8722, -1.79551 22.8997, -2.0684 " /><path id= "137" d=" M 23.7998 1.5875 L 25.4 1.5875 " />
<path d="M25.4, -1.5875 L25.4, -1.5477  L25.4, -1.43029  L25.4, -1.24116  L25.4, -0.98979  L25.4, -0.68879  L25.4, -0.353252  L25.4, -2.77556e-16  L25.4, 0.353252  L25.4, 0.68879  L25.4, 0.98979  L25.4, 1.24116  L25.4, 1.43029  L25.4, 1.5477  L25.4, 1.5875 " /></g>

</svg>
