<svg xmlns="http://www.w3.org/2000/svg" viewBox="-8.4229408 -9.844910800000001 13.5142016 17.7662816">
<rect width="100%" height="100%" fill="white"/>
<g   fill="none"
   stroke="rgb(0, 0, 0)"
   stroke-linecap="butt"
   stroke-linejoin="miter"
   stroke-width="0.35"
   transform="scale(1, -1)"
  >
<path id= "1" d=" M -3.866 -6.69611 L -7.19768 -4.77257 " />
<path id= "2" d=" M -7.19768 -4.77257 L -7.19768 4.15558 " />
<path id= "3" d=" M -3.866 -6.69611 L 3.866 -2.23204 " />
<path id= "4" d=" M -7.19768 -4.77257 L 0.534325 -0.308493 " />
<path id= "5" d=" M 3.866 -2.23204 L 0.534325 -0.308493 " />
<path id= "6" d=" M 0.534325 -0.308493 L 0.534325 8.61965 " />
<path id= "7" d=" M -7.19768 4.15558 L 0.534325 8.61965 " />
<g transform = "rotate(60, -3.33168, 1.92354)">
<ellipse cx ="-3.33168" cy ="1.92354" rx ="3.4925"  ry ="2.0164"/>
</g>
<path id= "9" d=" M 3.866 6.69611 L 0.534325 8.61965 " />
<path id= "10" d=" M 3.866 -2.23204 L 3.866 6.69611 " />
<path d="M-1.08907, 3.12239 C-1.11304, 2.59674 -1.27338, 2.00725 -1.54149, 1.46007  C-1.78991, 0.950118 -2.13061, 0.479485 -2.50453, 0.129518  C-2.85655, -0.201602 -3.23648, -0.423789 -3.57969, -0.499073  C-3.90382, -0.571635 -4.19376, -0.512887 -4.4007, -0.331447 " /><path d="M-1.08907, 3.12239 C-1.06743, 3.57121 -1.14367, 3.9729 -1.30765, 4.27888 " /><path d="M-2.65219, 4.73819 C-2.6285, 4.75109 -2.59823, 4.76364 -2.56138, 4.77583  C-2.43148, 4.81878 -2.26441, 4.83978 -2.11086, 4.82438  C-2.02228, 4.81598 -1.93701, 4.79684 -1.85506, 4.76694 " /><path d="M-1.85506, 4.76694 C-1.62039, 4.68316 -1.42463, 4.50092 -1.30765, 4.27888 " /><path d="M-4.36927, 2.55887 C-4.22551, 2.98639 -3.99791, 3.41062 -3.72392, 3.77317  C-3.40609, 4.19527 -3.02736, 4.53272 -2.65219, 4.73819 " /><path d="M-4.36927 2.55887 A2.48759 1.43621 60 0 1 -4.4007 -0.331447" />
<path d="M-1.5666, 3.76748 C-2.02452, 3.96549 -2.65367, 3.81869 -3.22936, 3.39328  C-3.61579, 3.11145 -3.97493, 2.71252 -4.2461, 2.2731  C-4.56879, 1.7538 -4.76413, 1.18187 -4.79167, 0.706814  C-4.82314, 0.216174 -4.6766, -0.165629 -4.4007, -0.331447 " /><path d="M-1.09842, 2.98505 C-1.1888, 3.37511 -1.39119, 3.67678 -1.67477, 3.83936 " /><path d="M-1.67477, 3.83936 C-1.9865, 4.02103 -2.39593, 4.03096 -2.82222, 3.871  C-3.37949, 3.66686 -3.95795, 3.16829 -4.36927, 2.55887 " /><path d="M-1.21927, 3.33213 C-1.57302, 3.30718 -1.9649, 3.1441 -2.33356, 2.87318  C-2.72122, 2.58995 -3.08124, 2.18892 -3.35242, 1.7476  C-3.67202, 1.23103 -3.86557, 0.66315 -3.8935, 0.190703  C-3.91114, -0.0904837 -3.87208, -0.337925 -3.78187, -0.527577 " /><path d="M-1.29251, 3.46451 C-1.68943, 3.48116 -2.14949, 3.30826 -2.57698, 2.98882  C-2.98292, 2.68782 -3.35685, 2.25792 -3.62921, 1.79004  C-3.93099, 1.27543 -4.10629, 0.719199 -4.12086, 0.261374  C-4.13245, -0.0624708 -4.06585, -0.336795 -3.93247, -0.525372 " /><path d="M-1.12021, 2.79652 C-1.71938, 2.54555 -2.32759, 1.96216 -2.72171, 1.28772  C-3.0562, 0.723678 -3.23727, 0.108132 -3.22352, -0.374787 " /><path d="M-1.16757, 2.53029 C-1.65439, 2.25039 -2.12316, 1.77025 -2.45587, 1.22672  C-2.75637, 0.740008 -2.94571, 0.207843 -2.989, -0.246813 " /></g>

</svg>
