<svg xmlns="http://www.w3.org/2000/svg" viewBox="-6.3421259999999995 -6.3421259999999995 12.684251999999999 12.684251999999999">
<rect width="100%" height="100%" fill="white"/>
<g   fill="none"
   stroke="rgb(0, 0, 0)"
   stroke-linecap="butt"
   stroke-linejoin="miter"
   stroke-width="0.35"
   transform="scale(1, -1)"
  >
<path id= "1" d=" M -5.46735 -5.46735 L -5.46735 5.46735 " />
<path id= "2" d=" M -5.46735 -5.46735 L 5.46735 -5.46735 " />
<path id= "3" d=" M 5.46735 -5.46735 L 5.46735 5.46735 " />
<path id= "4" d=" M -5.46735 5.46735 L 5.46735 5.46735 " />
<circle cx ="0" cy ="0" r ="3.4925" /><path d="M3.05404, 0 C3.00726, -0.613952 2.76738, -1.20943 2.37483, -1.67662  C2.01103, -2.11304 1.5165, -2.43582 0.974711, -2.58706  C0.464639, -2.73144 -0.0851331, -2.72244 -0.583235, -2.55923  C-1.05364, -2.40688 -1.47593, -2.11766 -1.7811, -1.73661 " /><path d="M3.05404, -3.33067e-16 C3.09561, 0.523422 2.9986, 1.05849 2.77733, 1.53856 " /><path d="M0.875865, 3.05182 C0.91121, 3.04903 0.955592, 3.04142 1.00901, 3.02899  C1.19731, 2.98515 1.43544, 2.89087 1.65337, 2.76266  C1.71974, 2.72392 1.78493, 2.68212 1.84896, 2.63726 " /><path d="M1.84896, 2.63726 C2.25335, 2.35791 2.59369, 1.94406 2.77733, 1.53856 " /><path d="M-1.73664, 1.78107 C-1.50235, 2.17203 -1.15085, 2.50104 -0.734846, 2.72281  C-0.25228, 2.98195 0.314915, 3.09585 0.875865, 3.05182 " /><path d="M-1.73664 1.78107 A2.48759 2.48759 0 0 1 -1.7811 -1.73661" /><path d="M2.48759, 8.00812e-07 C2.49102, 0.698224 2.18187, 1.39002 1.6594, 1.85325  C1.27664, 2.19738 0.784504, 2.41719 0.272789, 2.47259  C-0.455849, 2.55715 -1.21441, 2.29606 -1.73664, 1.78107 " /><path d="M2.48759, 6.00607e-07 L2.48621, 0.0828195 " /><path d="M2.46194, 0.35631 L2.46194, 0.356333 " /><path d="M2.42423, 0.557856 Q2.39373, 0.69039 2.34897, 0.818816 " /><path d="M2.30417, 0.937512 Q2.25617, 1.05547 2.19638, 1.16792 " /><path d="M2.19585, 1.16891 Q2.11008, 1.33 2.00174, 1.47687 " /><path d="M1.99515, 1.48577 Q1.88648, 1.63166 1.75776, 1.76023 " /><path d="M1.54117, 1.95266 L1.53962, 1.95389 " /><path d="M1.32341, 2.10635 Q1.19513, 2.18694 1.05801, 2.25138 " /><path d="M0.879004, 2.32712 Q0.778665, 2.36501 0.675443, 2.39414 " /><path d="M0.279425, 2.47185 L0.262076, 2.47375 " /><path d="M0.0875029, 2.48605 L0.08749, 2.48605 " /><path d="M-0.250953, 2.4749 Q-0.541969, 2.44527 -0.818269, 2.34916 " /><path d="M-1.29482, 2.12404 L-1.33914, 2.09638 " /><path d="M-1.73664, 1.78107 C-2.23964, 1.29543 -2.51918, 0.589831 -2.48522, -0.10855  C-2.46118, -0.700893 -2.21552, -1.28067 -1.80668, -1.70998  C-1.45526, -2.08278 -0.985682, -2.34183 -0.482897, -2.44027  C-0.00339296, -2.53604 0.503939, -2.48547 0.955103, -2.29693  C1.41533, -2.10657 1.81503, -1.77382 2.08569, -1.35574  C2.34693, -0.95528 2.48838, -0.478139 2.48759, -1.88738e-15 " /><path d="M2.48759, 4.00403e-07 L2.48448, 0.12438 " /><path d="M2.43204, 0.522779 Q2.40029, 0.670458 2.35091, 0.813216 " /><path d="M2.30406, 0.937776 C2.18275, 1.23627 2.00265, 1.51068 1.77706, 1.74074 " /><path d="M1.33057, 2.10183 L1.28162, 2.13203 " /><path d="M0.839311, 2.34172 Q0.63332, 2.41551 0.417614, 2.45229 " /><path d="M-0.248865, 2.47511 Q-0.531159, 2.44662 -0.799866, 2.35549 " /><path d="M-1.29097, 2.12638 L-1.33168, 2.10113 " /><path d="M-1.73664, 1.78107 C-2.23976, 1.29533 -2.51931, 0.589508 -2.4852, -0.109026  C-2.46104, -0.701607 -2.21507, -1.28157 -1.80586, -1.71085  C-1.45435, -2.08338 -0.984813, -2.34216 -0.482137, -2.44042  C-0.0118911, -2.53414 0.485089, -2.48731 0.929552, -2.30739 " /><path d="M1.1776, -2.1912 C1.66789, -1.92933 2.06443, -1.49742 2.28356, -0.986641 " /><path d="M2.37862, -0.7282 Q2.44525, -0.510409 2.47131, -0.284152 " /></g>

</svg>
