<svg xmlns="http://www.w3.org/2000/svg" viewBox="-8.426422800000001 -11.787812800000001 39.430035600000004 30.8370256">
<rect width="100%" height="100%" fill="white"/>
<g   fill="none"
   stroke="rgb(0, 0, 0)"
   stroke-linecap="butt"
   stroke-linejoin="miter"
   stroke-width="0.35"
   transform="scale(1, -1)"
  >
<path id= "1" d=" M -5.70711 -8.25201 L -5 -8.66025 " />
<path id= "2" d=" M 4.29289 9.0685 L 5 8.66025 " />
<path d="M-0.301376 1.67438 A1.55 1.55 0 0 1 -1.60074 -0.576189" /><path id= "4" d=" M 4.16457 -4.1942 L 24.498 -15.9337 " />
<path id= "5" d=" M 5.71457 -1.50952 L 26.048 -13.249 " />
<path id= "6" d=" M 28.2843 -16.3299 L 26.2213 -13.4094 " />
<path id= "7" d=" M 28.2843 -16.3299 L 24.7236 -16.0036 " />
</g>
<g   fill="none"
   stroke="rgb(0, 0, 0)"
   stroke-linecap="butt"
   stroke-linejoin="miter"
   stroke-width="0.35"
   transform="scale(1, -1)"
  >
<path d="M6.36396 4.49073 A10 5.7735 60 0 1 4.29289 9.0685" />
<path d="M4.29289 9.0685 A10 5.7735 60 0 1 -5.70711 -8.25201" />
<path d="M-5.70711 -8.25201 A10 5.7735 60 0 1 6.36396 4.49073" />
<path d="M0.274321 0.974876 A1.38795 0.801332 -120 0 0 -1.60074 -0.576189" />
<path d="M-0.301376 1.67438 A1.38795 0.801332 -120 0 0 0.274321 0.974876" />
<path d="M7.07107 4.08248 A10 5.7735 60 0 1 5 8.66025" />
<path d="M-5 -8.66025 A10 5.7735 60 0 1 7.07107 4.08248" />
<path d="M26.369 -13.9586 A1.55 0.894893 60 0 1 26.2213 -13.4094" />
<path d="M26.2213 -13.4094 A1.55 0.894893 60 0 1 26.048 -13.249" />
<path d="M24.498 -15.9337 A1.55 0.894893 60 0 1 24.7236 -16.0036" />
<path d="M24.7236 -16.0036 A1.55 0.894893 60 0 1 26.369 -13.9586" />
</g>

</svg>
