<svg xmlns="http://www.w3.org/2000/svg" viewBox="-5.2088 -13.3488 48.5576 26.6976">
<rect width="100%" height="100%" fill="white"/>
<g   fill="none"
   stroke="rgb(0, 0, 0)"
   stroke-linecap="butt"
   stroke-linejoin="miter"
   stroke-width="0.35"
   transform="scale(1, -1)"
  >
<path id= "1" d=" M -1 -10 L 0 -10 " />
<path d="M-1.86 -8.96384e-17 A1.55 1.55 0 0 1 -1 -1.38795" /><path d="M0.31, -1.55 C0.229546, -1.54968 0.149638, -1.58242 0.0925253, -1.63908  C0.0337861, -1.69643 -0.000341868, -1.77791 0, -1.86 " /><path id= "4" d=" M 0.31 -1.55 L 35.7414 -1.55 " />
<path id= "5" d=" M 40 -1.75084e-12 L 35.7414 1.55 " />
<path id= "6" d=" M 40 1.75084e-12 L 35.7414 -1.55 " />
</g>
<g   fill="none"
   stroke="rgb(0, 0, 0)"
   stroke-linecap="butt"
   stroke-linejoin="miter"
   stroke-width="0.35"
   transform="scale(1, -1)"
  >
<path d="M-1, -10 L-1, -9.74928  L-1, -9.00969  L-1, -7.81831  L-1, -6.2349  L-1, -4.33884  L-1, -2.22521  L-1, -1.77636e-15  L-1, 2.22521  L-1, 4.33884  L-1, 6.2349  L-1, 7.81831  L-1, 9.00969  L-1, 9.74928  L-1, 10 " /><path id= "2" d=" M -1 10 L 0 10 " />
<path d="M0, -10 L0, -9.74928  L0, -9.00969  L0, -7.81831  L0, -6.2349  L0, -4.33884  L0, -2.22521  L0, -1.77636e-15  L0, 2.22521  L0, 4.33884  L0, 6.2349  L0, 7.81831  L0, 9.00969  L0, 9.74928  L0, 10 " /><path d="M-1.86 5.00434e-30 A1.55 1.55 0 0 0 -1 1.38795" /><path d="M0 1.86 A0.31 0.31 0 0 1 0.31 1.55" /><path id= "6" d=" M 0.31 1.55 L 35.7414 1.55 " />
<path d="M35.7414, -1.55 L35.7414, -1.51114  L35.7414, -1.3965  L35.7414, -1.21184  L35.7414, -0.966409  L35.7414, -0.67252  L35.7414, -0.344907  L35.7414, -2.77556e-16  L35.7414, 0.344907  L35.7414, 0.67252  L35.7414, 0.966409  L35.7414, 1.21184  L35.7414, 1.3965  L35.7414, 1.51114  L35.7414, 1.55 " /><path id= "8" d=" M 35.7414 1.55 L 40 -2.90631e-12 " />
</g>

</svg>
