<svg xmlns="http://www.w3.org/2000/svg" viewBox="-4.3469588 -5.0639588 40.5137076 28.499107600000002">
<rect width="100%" height="100%" fill="white"/>
<g   fill="none"
   stroke="rgb(0, 0, 0)"
   stroke-linecap="butt"
   stroke-linejoin="miter"
   stroke-width="0.35"
   transform="scale(1, -1)"
  >
<path id= "1" d=" M -0.931594 -2.92625 L 29.7514 -20.6411 " />
<path id= "2" d=" M 2.06841 2.26991 L 32.7514 -15.4449 " />
</g>
<g   fill="none"
   stroke="rgb(0, 0, 0)"
   stroke-linecap="butt"
   stroke-linejoin="miter"
   stroke-width="0.35"
   transform="scale(1, -1)"
  >
<path d="M-1.55291 -1.55291 A3 1.73205 -120 0 0 2.06841 2.26991" />
<path d="M2.06841 2.26991 A3 1.73205 -120 0 0 2.68973 0.896575" />
<path d="M2.68973 0.896575 A3 1.73205 -120 0 0 -0.931594 -2.92625" />
<path d="M-0.931594 -2.92625 A3 1.73205 -120 0 0 -1.55291 -1.55291" />
<path d="M33.3727 -16.8183 A3 1.73205 -120 0 0 29.7514 -20.6411" />
<path d="M32.7514 -15.4449 A3 1.73205 -120 0 0 33.3727 -16.8183" />
<path d="M22.2739, -13.7564 C20.6859, -12.587 19.003, -11.4915 17.2652, -10.4834  C15.4632, -9.43718 13.5973, -8.48694 11.6673, -7.63267 " /><path d="M11.6673, -7.63267 C13.2127, -8.77013 14.8368, -9.82106 16.5263, -10.8074  C18.3695, -11.8809 20.2923, -12.8795 22.2739, -13.7564 " /><path d="M22.2739 -13.7564 A56.5 11.9399 -38.794 0 1 11.6673 -7.63267" />
</g>

</svg>
