<svg xmlns="http://www.w3.org/2000/svg" viewBox="-3.6 -6.6 52.2 13.2">
<rect width="100%" height="100%" fill="white"/>
<g   fill="none"
   stroke="rgb(0, 0, 0)"
   stroke-linecap="butt"
   stroke-linejoin="miter"
   stroke-width="0.35"
   transform="scale(1, -1)"
  >
<path d="M0 3.28645e-16 A6 6 0 0 1 0.803848 -3" /><path id= "2" d=" M 0.803848 3 L 44.1962 3 " />
<path d="M44.1962 -3 A6 6 0 0 1 45 -4.06143e-16" /></g>
<g   fill="none"
   stroke="rgb(0, 0, 0)"
   stroke-linecap="butt"
   stroke-linejoin="miter"
   stroke-width="0.35"
   transform="scale(1, -1)"
  >
<path d="M0 2.00173e-29 A6 6 0 0 0 0.803848 3" /><path d="M0.803848, 3 L0.803848, 2.92478  L0.803848, 2.70291  L0.803848, 2.34549  L0.803848, 1.87047  L0.803848, 1.30165  L0.803848, 0.667563  L0.803848, 6.66134e-16  L0.803848, -0.667563  L0.803848, -1.30165  L0.803848, -1.87047  L0.803848, -2.34549  L0.803848, -2.70291  L0.803848, -2.92478  L0.803848, -3 " /><path id= "3" d=" M 0.803848 -3 L 15 -3 " />
<path id= "4" d=" M 30 -3 L 44.1962 -3 " />
<path d="M44.1962, 3 L44.1962, 2.92478  L44.1962, 2.70291  L44.1962, 2.34549  L44.1962, 1.87047  L44.1962, 1.30165  L44.1962, 0.667563  L44.1962, 6.66134e-16  L44.1962, -0.667563  L44.1962, -1.30165  L44.1962, -1.87047  L44.1962, -2.34549  L44.1962, -2.70291  L44.1962, -2.92478  L44.1962, -3 " /><path id= "6" d=" M 15 -3 L 30 -3 " />
<path d="M20.604, 1.21803 Q17.7904, 1.27525 15, 1.5 " /><path d="M15, 1.5 L15.0143, 1.50115 " /><path d="M15.1266, 1.51008 L15.5291, 1.54071 " /><path d="M15.6059, 1.5463 L15.8047, 1.56044 " /><path d="M23.3855, 1.77853 L23.4401, 1.77806 " /><path d="M26.7404, 1.69609 L26.7469, 1.69582 " /><path d="M28.3827, 1.61312 L28.3828, 1.61312 " /><path d="M29.3939, 1.54632 L29.3939, 1.54632 " /><path d="M30, 1.5 C27.5592, 1.69505 25.0965, 1.77778 22.6345, 1.78213  C20.0822, 1.78392 17.5297, 1.70199 15, 1.5 " /><path d="M15, 1.5 C19.9712, 1.09863 25.029, 1.09864 30, 1.5 " /><path d="M45 2.00173e-29 A6 6 0 0 1 44.1962 3" /><path d="M30 1.5 A56.5 28.25 7.34518e-15 0 0 15 1.5" />
</g>

</svg>
