<svg xmlns="http://www.w3.org/2000/svg" viewBox="-3.48 -3.18632 6.96 6.264399999999999">
<rect width="100%" height="100%" fill="white"/>
<g   fill="none"
   stroke="rgb(0, 0, 0)"
   stroke-linecap="butt"
   stroke-linejoin="miter"
   stroke-width="0.35"
   transform="scale(1, -1)"
  >
<path d="M-3 -5.51091e-16 A3 3 0 0 0 3 9.18485e-16" /><path d="M3 1.83697e-16 A3 3 0 0 0 -3 -5.51091e-16" /><path d="M1.5, 2.59808 L1.46841, 2.61606 " /><path d="M1.31246, 2.69768 L1.29578, 2.70572 " /><path d="M1.29453, 2.70632 Q1.26462, 2.72057 1.24404, 2.7299 " /><path d="M1.5, 2.59808 C1.69853, 2.48161 1.78088, 2.41236 1.78221, 2.41324 " /><path d="M1.5, -2.59808 L1.53137, -2.57971 " /><path d="M1.68003, -2.48546 L1.69533, -2.47504 " /><path d="M1.69648, -2.47426 Q1.72378, -2.45548 1.74214, -2.44232 " /><path d="M1.5, -2.59808 C1.29987, -2.71178 1.19873, -2.74847 1.19882, -2.75006 " /></g>

</svg>
