<svg xmlns="http://www.w3.org/2000/svg" viewBox="-10.4836816 -10.3201716 16.2329632 17.7845632">
<rect width="100%" height="100%" fill="white"/>
<g   fill="none"
   stroke="rgb(0, 0, 0)"
   stroke-linecap="butt"
   stroke-linejoin="miter"
   stroke-width="0.35"
   transform="scale(1, -1)"
  >
<path id= "1" d=" M -1.30702 8.25265 L -2.76366 9.09365 " />
<path id= "2" d=" M -7.80052 -2.99442 L -9.25716 -2.15343 " />
<path d="M-2.76366, 9.09365 C-3.23821, 9.3687 -3.79098, 9.49887 -4.35731, 9.48394  C-4.56194, 9.47874 -4.7679, 9.45601 -4.97519, 9.41574  C-5.53241, 9.30785 -6.09267, 9.07776 -6.63555, 8.74736  C-7.77059, 8.05909 -8.83457, 6.91508 -9.60625, 5.58517  C-10.3982, 4.22703 -10.8715, 2.69629 -10.8938, 1.342  C-10.9096, 0.484405 -10.7498, -0.310012 -10.3939, -0.96492  C-10.1236, -1.46441 -9.73376, -1.87934 -9.25716, -2.15343 " /></g>
<g   fill="none"
   stroke="rgb(0, 0, 0)"
   stroke-linecap="butt"
   stroke-linejoin="miter"
   stroke-width="0.35"
   transform="scale(1, -1)"
  >
<path d="M4.50571 2.7692 A7.19 4.15115 60 0 1 4.52276 3.2594" />
<path d="M2.33245, -2.83205 L2.57182, -2.45387  L2.79508, -2.07879  L3.00317, -1.70522  L3.19699, -1.33155  L3.37736, -0.956205  L3.54505, -0.577579  L3.70077, -0.194061  L3.84519, 0.195984  L3.97892, 0.594216  L4.10253, 1.00233  L4.21654, 1.42207  L4.32146, 1.85522  L4.41771, 2.30363  L4.50571, 2.7692 " /><path d="M1.61192 -3.72841 A7.19 4.15115 60 0 1 2.33245 -2.83205" />
<path d="M-2.7346, -6.23787 L-2.33154, -6.09256  L-1.94853, -5.94475  L-1.58394, -5.79382  L-1.2362, -5.63913  L-0.903838, -5.48001  L-0.585441, -5.31579  L-0.27965, -5.14577  L0.0148369, -4.96922  L0.299274, -4.7854  L0.574874, -4.59351  L0.842811, -4.39274  L1.10422, -4.18224  L1.36023, -3.96111  L1.61192, -3.72841 " /><path d="M-3.45513 -6.17351 A7.19 4.15115 60 0 1 -2.7346 -6.23787" />
<path d="M4.50571, 3.72991 L4.41771, 3.91908  L4.32146, 4.10969  L4.21654, 4.30255  L4.10253, 4.49849  L3.97892, 4.69833  L3.84519, 4.90293  L3.70077, 5.11317  L3.54505, 5.32993  L3.37736, 5.55414  L3.19699, 5.78675  L3.00317, 6.02876  L2.79508, 6.28119  L2.57182, 6.54513  L2.33245, 6.82169 " /><path d="M4.52276 3.2594 A7.19 4.15115 60 0 1 4.50571 3.72991" />
<path id= "8" d=" M 4.50571 3.72991 L 0.794973 5.8723 " />
<path d="M0.812021 5.40179 A7.19 4.15115 60 0 1 0.794973 5.8723" />
<path d="M-1.37828, 8.96409 L-1.28958, 8.77451  L-1.19273, 8.58356  L-1.08734, 8.39042  L-0.972951, 8.19427  L-0.849076, 7.99427  L-0.715188, 7.78958  L-0.570718, 7.57931  L-0.415049, 7.36258  L-0.24752, 7.13847  L-0.0674145, 6.90601  L0.126033, 6.66421  L0.333646, 6.41205  L0.55631, 6.14846  L0.794973, 5.8723 " /><path id= "11" d=" M 2.33245 6.82169 L -1.37828 8.96409 " />
<path d="M-1.37828 8.96409 A7.19 4.15115 60 0 1 -2.09882 9.02844" />
<path d="M-2.43866, 8.90601 Q-2.27242, 8.96759 -2.09882, 9.02844 " /><path d="M-7.16587, -4.03112 C-7.58094, -3.55568 -7.92496, -3.13759 -8.21651, -2.75424 " /><path id= "15" d=" M -3.45513 -6.17351 L -7.16587 -4.03112 " />
<path id= "16" d=" M -2.7346 -6.23787 L -6.44533 -4.09547 " />
<path d="M-7.16587 -4.03112 A7.19 4.15115 60 0 1 -6.44533 -4.09547" />
<path d="M-2.09882, -1.58601 L-2.50117, -1.73173  L-2.88359, -1.87988  L-3.2477, -2.03108  L-3.59507, -2.18599  L-3.92716, -2.34526  L-4.2454, -2.50957  L-4.55114, -2.67963  L-4.84568, -2.85614  L-5.13027, -3.03988  L-5.40614, -3.23161  L-5.67445, -3.43217  L-5.93634, -3.64239  L-6.19294, -3.86318  L-6.44533, -4.09547 " /><path id= "19" d=" M 1.61192 -3.72841 L -2.09882 -1.58601 " />
<path id= "20" d=" M 2.33245 -2.83205 L -1.37828 -0.689656 " />
<path d="M-2.09882 -1.58601 A7.19 4.15115 60 0 1 -1.37828 -0.689656" />
<path d="M0.794973, 4.91159 L0.55631, 4.533  L0.333646, 4.15758  L0.126033, 3.78373  L-0.0674145, 3.40985  L-0.24752, 3.03435  L-0.415049, 2.65563  L-0.570718, 2.27208  L-0.715188, 1.88207  L-0.849076, 1.48393  L-0.972951, 1.07597  L-1.08734, 0.656442  L-1.19273, 0.22357  L-1.28958, -0.224493  L-1.37828, -0.689656 " /><path id= "23" d=" M 4.50571 2.7692 L 0.794973 4.91159 " />
<path d="M0.794973 4.91159 A7.19 4.15115 60 0 1 0.812021 5.40179" />
<path d="M0.0378302 5.28008 A6.4935 3.74902 60 0 1 -1.30702 8.25265" />
<path d="M-7.80052 -2.99442 A6.4935 3.74902 60 0 1 0.0378302 5.28008" />
<path d="M-3.90728, 3.77745 C-4.58603, 3.11144 -5.13553, 2.18603 -5.3868, 1.30914 " /><path d="M-3.76387, 4.21689 C-4.26113, 3.81353 -4.71918, 3.26466 -5.06475, 2.66475  C-5.38258, 2.11535 -5.60524, 1.52543 -5.70391, 0.980728 " /><path d="M-3.59972, 4.94414 C-4.3194, 4.57079 -5.03388, 3.84802 -5.52721, 3.00994  C-6.02458, 2.17558 -6.29335, 1.24134 -6.2587, 0.507416 " /><path d="M-3.56718, 5.18033 C-4.3869, 4.84274 -5.2342, 4.02116 -5.7826, 3.05432  C-6.30437, 2.15013 -6.55241, 1.14301 -6.4496, 0.401519 " /><path d="M-3.53647, 5.62593 C-3.95508, 5.55212 -4.40594, 5.33933 -4.83536, 5.01543  C-5.36622, 4.61696 -5.86168, 4.0487 -6.23381, 3.41904  C-6.68623, 2.65927 -6.95176, 1.81587 -6.96737, 1.11723  C-6.97462, 0.819254 -6.94031, 0.553845 -6.86444, 0.321005 " /><path d="M-3.53594, 5.77362 C-4.01299, 5.74196 -4.54691, 5.51486 -5.0511, 5.13296  C-5.59908, 4.72047 -6.1087, 4.12695 -6.48391, 3.47267  C-6.79308, 2.93614 -7.01155, 2.36145 -7.11234, 1.82828  C-7.22599, 1.23438 -7.19263, 0.694404 -7.02145, 0.300923 " /><path d="M-3.53553 5.71548 A4.5 2.59808 60 0 1 -4.46751 7.77547" />
<path d="M-4.46751 7.77547 A4.5 2.59808 60 0 1 -8.96751 -0.0187556" />
<path d="M-8.96751 -0.0187556 A4.5 2.59808 60 0 1 -3.53553 5.71548" />
<path d="M-3.69553, 6.0507 C-4.24683, 6.12689 -4.9165, 5.89729 -5.54179, 5.42419  C-6.07039, 5.02756 -6.56397, 4.46259 -6.93563, 3.83618  C-7.38579, 3.08305 -7.65262, 2.2468 -7.67374, 1.55038  C-7.69152, 1.03859 -7.58013, 0.603402 -7.35882, 0.310067 " /><path d="M-3.7787, 6.14966 C-4.35467, 6.28191 -5.08336, 6.05479 -5.75981, 5.53999  C-6.30896, 5.12624 -6.81945, 4.53071 -7.19465, 3.87459  C-7.622, 3.13288 -7.8706, 2.31971 -7.88504, 1.64294  C-7.89953, 1.08484 -7.75804, 0.621551 -7.48904, 0.335768 " /><path d="M-4.15685 7.53789 A4.5 2.59808 60 0 1 -8.60643 -0.169007" />
<path d="M-3.99802, 6.34326 C-4.26248, 6.46542 -4.57267, 6.50175 -4.90491, 6.45004  C-5.33566, 6.38399 -5.80304, 6.16839 -6.24756, 5.83344  C-6.77891, 5.43509 -7.27495, 4.86654 -7.64748, 4.23644  C-8.09952, 3.47761 -8.36512, 2.63536 -8.38149, 1.93711  C-8.40233, 1.23836 -8.17564, 0.691243 -7.76858, 0.444222 " /><path d="M-6.37033, 0.426507 Q-6.6061, 0.347572 -6.82775, 0.32771 " /><path d="M-8.05892 3.99042 A3.5 2.02073 60 0 1 -7.79576 0.459434" />
<path d="M-7.79576 0.459434 A3.5 2.02073 60 0 1 -6.82775 0.32771" />
<path d="M-3.53636, 5.79891 Q-3.7458, 6.20276 -4.10046, 6.40885 " /><path d="M-4.10046, 6.40885 C-4.4033, 6.58436 -4.77697, 6.63647 -5.18052, 6.5604  C-5.59637, 6.48308 -6.04311, 6.2695 -6.46842, 5.9471  C-7.09821, 5.47297 -7.67539, 4.75815 -8.05892, 3.99042 " /><path d="M-8.05892, 3.99042 C-7.87612, 4.44691 -7.62668, 4.89559 -7.33392, 5.29752  C-6.85262, 5.96091 -6.25452, 6.49069 -5.66864, 6.78079  C-5.00371, 7.11446 -4.36104, 7.1367 -3.895, 6.85336 " /><path d="M-3.6581, 6.65465 Q-3.77537, 6.78206 -3.895, 6.85336 " /></g>

</svg>
