<svg xmlns="http://www.w3.org/2000/svg" viewBox="-10.6504 -8.3404 11.8008 16.6808">
<rect width="100%" height="100%" fill="white"/>
<g   fill="none"
   stroke="rgb(0, 0, 0)"
   stroke-linecap="butt"
   stroke-linejoin="miter"
   stroke-width="0.35"
   transform="scale(1, -1)"
  >
<path id= "1" d=" M -1.58393e-16 -5.815 L -0.793857 -7.19 " />
<path id= "2" d=" M -0.793857 -7.19 L -6.04163 -7.19 " />
<path id= "3" d=" M -6.44 -6.4935 L -6.04163 -7.19 " />
<path id= "4" d=" M -6.44 -6.4935 L -8.5 -6.4935 " />
<path d="M-8.5, -6.4935 C-8.65442, -6.49303 -8.80106, -6.45904 -8.93994, -6.39153  C-9.00364, -6.36029 -9.06336, -6.32272 -9.11909, -6.27882  C-9.35723, -6.0934 -9.50182, -5.7953 -9.5, -5.4935 " /></g>
<g   fill="none"
   stroke="rgb(0, 0, 0)"
   stroke-linecap="butt"
   stroke-linejoin="miter"
   stroke-width="0.35"
   transform="scale(1, -1)"
  >
<path d="M0, -5.815 L0, -5.66921  L0, -5.23913  L0, -4.54635  L0, -3.62559  L0, -2.52303  L0, -1.29396  L0, -1.11022e-15  L0, 1.29396  L0, 2.52303  L0, 3.62559  L0, 4.54635  L0, 5.23913  L0, 5.66921  L0, 5.815 " /><path id= "2" d=" M 0 5.815 L -0.793857 7.19 " />
<path d="M-0.793857, 7.16589 Q-0.793857, 7.18994 -0.793857, 7.19 " /><path d="M-0.793857, 4.09244 L-0.686823, 4.32393  L-0.597017, 4.54985  L-0.524055, 4.77118  L-0.467626, 4.98885  L-0.427491, 5.2038  L-0.403478, 5.41693  L-0.395485, 5.62917  L-0.403478, 5.8414  L-0.427491, 6.05453  L-0.467626, 6.26948  L-0.524055, 6.48715  L-0.597017, 6.70848  L-0.686823, 6.9344  L-0.793857, 7.16589 " /><path d="M-0.793857, 3.07345 Q-0.793857, 3.60695 -0.793857, 4.09244 " /><path d="M-0.793857, -3.07345 L-0.686823, -2.61048  L-0.597017, -2.15863  L-0.524055, -1.71597  L-0.467626, -1.28062  L-0.427491, -0.850729  L-0.403478, -0.42446  L-0.395485, -2.22045e-16  L-0.403478, 0.42446  L-0.427491, 0.850729  L-0.467626, 1.28062  L-0.524055, 1.71597  L-0.597017, 2.15863  L-0.686823, 2.61048  L-0.793857, 3.07345 " /><path d="M-0.793857, -4.09244 Q-0.793857, -3.60695 -0.793857, -3.07345 " /><path d="M-0.793857, -7.16589 L-0.686823, -6.9344  L-0.597017, -6.70848  L-0.524055, -6.48715  L-0.467626, -6.26948  L-0.427491, -6.05453  L-0.403478, -5.8414  L-0.395485, -5.62917  L-0.403478, -5.41693  L-0.427491, -5.2038  L-0.467626, -4.98885  L-0.524055, -4.77118  L-0.597017, -4.54985  L-0.686823, -4.32393  L-0.793857, -4.09244 " /><path d="M-0.793857, -7.19 Q-0.793857, -7.18994 -0.793857, -7.16589 " /><path id= "10" d=" M -0.793857 7.19 L -6.04163 7.19 " />
<path id= "11" d=" M -0.793857 -7.16589 L -6.04163 -7.16589 " />
<path d="M-6.04163, -7.19 Q-6.04163, -7.18994 -6.04163, -7.16589 " /><path d="M-6.04163, -4.09244 L-6.14766, -4.32393  L-6.23663, -4.54985  L-6.30891, -4.77118  L-6.36481, -4.98885  L-6.40458, -5.2038  L-6.42836, -5.41693  L-6.43628, -5.62917  L-6.42836, -5.8414  L-6.40458, -6.05453  L-6.36481, -6.26948  L-6.30891, -6.48715  L-6.23663, -6.70848  L-6.14766, -6.9344  L-6.04163, -7.16589 " /><path id= "14" d=" M -0.793857 -4.09244 L -6.04163 -4.09244 " />
<path id= "15" d=" M -0.793857 -3.07345 L -6.04163 -3.07345 " />
<path d="M-6.04163, -4.09244 Q-6.04163, -3.60695 -6.04163, -3.07345 " /><path d="M-6.04163, 3.07345 L-6.14766, 2.61048  L-6.23663, 2.15863  L-6.30891, 1.71597  L-6.36481, 1.28062  L-6.40458, 0.850729  L-6.42836, 0.42446  L-6.43628, 1.38778e-15  L-6.42836, -0.42446  L-6.40458, -0.850729  L-6.36481, -1.28062  L-6.30891, -1.71597  L-6.23663, -2.15863  L-6.14766, -2.61048  L-6.04163, -3.07345 " /><path id= "18" d=" M -0.793857 3.07345 L -6.04163 3.07345 " />
<path id= "19" d=" M -0.793857 4.09244 L -6.04163 4.09244 " />
<path d="M-6.04163, 3.07345 Q-6.04163, 3.60695 -6.04163, 4.09244 " /><path d="M-6.04163, 7.16589 L-6.14766, 6.9344  L-6.23663, 6.70848  L-6.30891, 6.48715  L-6.36481, 6.26948  L-6.40458, 6.05453  L-6.42836, 5.8414  L-6.43628, 5.62917  L-6.42836, 5.41693  L-6.40458, 5.2038  L-6.36481, 4.98885  L-6.30891, 4.77118  L-6.23663, 4.54985  L-6.14766, 4.32393  L-6.04163, 4.09244 " /><path id= "22" d=" M -0.793857 7.16589 L -6.04163 7.16589 " />
<path d="M-6.04163, 7.16589 Q-6.04163, 7.18994 -6.04163, 7.19 " /><path id= "24" d=" M -6.04163 7.19 L -6.44 6.4935 " />
<path d="M-6.44, -6.4935 L-6.44, -6.33069  L-6.44, -5.85044  L-6.44, -5.07682  L-6.44, -4.04863  L-6.44, -2.81742  L-6.44, -1.44494  L-6.44, -1.11022e-15  L-6.44, 1.44494  L-6.44, 2.81742  L-6.44, 4.04863  L-6.44, 5.07682  L-6.44, 5.85044  L-6.44, 6.33069  L-6.44, 6.4935 " /><path id= "26" d=" M -6.44 6.4935 L -8.5 6.4935 " />
<path d="M-8.5 6.4935 A1 1 0 0 1 -9.5 5.4935" /><path d="M-9.5, -5.4935 L-9.5, -5.35577  L-9.5, -4.94947  L-9.5, -4.29499  L-9.5, -3.42514  L-9.5, -2.38354  L-9.5, -1.22242  L-9.5, -1.11022e-15  L-9.5, 1.22242  L-9.5, 2.38354  L-9.5, 3.42514  L-9.5, 4.29499  L-9.5, 4.94947  L-9.5, 5.35577  L-9.5, 5.4935 " /></g>

</svg>
