<svg xmlns="http://www.w3.org/2000/svg" viewBox="-8.3143612 -7.6484712 16.6528324 15.2969424">
<rect width="100%" height="100%" fill="white"/>
<g   fill="none"
   stroke="rgb(0, 0, 0)"
   stroke-linecap="butt"
   stroke-linejoin="miter"
   stroke-width="0.35"
   transform="scale(1, -1)"
  >
<path d="M-3.32175, -1.10273 C-3.15591, -1.60367 -2.8746, -2.06596 -2.50588, -2.44347  C-2.01103, -2.95293 -1.35722, -3.30484 -0.659454, -3.43731  C-0.0996703, -3.5453 0.486352, -3.51319 1.031, -3.3447 " /><path d="M2.90408, -1.95355 Q2.99689, -1.81557 3.07621, -1.66941 " /><path d="M3.2736, -1.23836 Q3.33374, -1.07938 3.37819, -0.915318 " /><path d="M3.47093, -0.450146 Q3.49095, -0.29573 3.49719, -0.140154 " /><path d="M3.4999, -0.0260928 L3.49998, -0.0128353 " /><path d="M7.19 0 A7.19 7.19 0 0 1 7.16589 0.588314" /><path d="M4.09244, 5.91169 C4.1696, 5.77804 4.24676, 5.64439 4.32393, 5.51074  C4.39923, 5.3803 4.47454, 5.24986 4.54985, 5.11942  C4.69809, 4.86267 4.84442, 4.60922 4.98885, 4.35905  C5.20414, 3.98617 5.41757, 3.61649 5.62917, 3.25  C5.91182, 2.76042 6.19533, 2.26937 6.48715, 1.76393  C6.56093, 1.63614 6.6347, 1.50836 6.70848, 1.38058  C6.78379, 1.25014 6.8591, 1.1197 6.9344, 0.989259  C7.01157, 0.855611 7.08873, 0.721962 7.16589, 0.588314 " /><path d="M4.09244 5.91169 A7.19 7.19 0 0 1 3.07345 6.5" /><path d="M-3.07345, 6.5 C-2.91913, 6.5 -2.7648, 6.5 -2.61048, 6.5  C-2.45986, 6.5 -2.30924, 6.5 -2.15863, 6.5  C-1.86215, 6.5 -1.56949, 6.5 -1.28062, 6.5  C-0.850059, 6.5 -0.423185, 6.5 -4.44089e-16, 6.5  C0.565318, 6.5 1.13234, 6.5 1.71597, 6.5  C1.86352, 6.5 2.01107, 6.5 2.15863, 6.5  C2.30924, 6.5 2.45986, 6.5 2.61048, 6.5  C2.7648, 6.5 2.91913, 6.5 3.07345, 6.5 " /><path d="M-3.07345 6.5 A7.19 7.19 0 0 1 -4.09244 5.91169" /><path d="M-7.16589, 0.588314 C-7.08873, 0.721962 -7.01157, 0.855611 -6.9344, 0.989259  C-6.8591, 1.1197 -6.78379, 1.25014 -6.70848, 1.38058  C-6.56024, 1.63733 -6.41391, 1.89078 -6.26948, 2.14095  C-6.05419, 2.51383 -5.84076, 2.88351 -5.62917, 3.25  C-5.34651, 3.73958 -5.063, 4.23063 -4.77118, 4.73607  C-4.6974, 4.86386 -4.62363, 4.99164 -4.54985, 5.11942  C-4.47454, 5.24986 -4.39923, 5.3803 -4.32393, 5.51074  C-4.24676, 5.64439 -4.1696, 5.77804 -4.09244, 5.91169 " /><path d="M-7.16589 0.588314 A7.19 7.19 0 0 1 -7.16589 -0.588314" /><path d="M-4.09244, -5.91169 C-4.1696, -5.77804 -4.24676, -5.64439 -4.32393, -5.51074  C-4.39923, -5.3803 -4.47454, -5.24986 -4.54985, -5.11942  C-4.69809, -4.86267 -4.84442, -4.60922 -4.98885, -4.35905  C-5.20414, -3.98617 -5.41757, -3.61649 -5.62917, -3.25  C-5.91182, -2.76042 -6.19533, -2.26937 -6.48715, -1.76393  C-6.56093, -1.63614 -6.6347, -1.50836 -6.70848, -1.38058  C-6.78379, -1.25014 -6.8591, -1.1197 -6.9344, -0.989259  C-7.01157, -0.855611 -7.08873, -0.721962 -7.16589, -0.588314 " /><path d="M-4.09244 -5.91169 A7.19 7.19 0 0 1 -3.07345 -6.5" /><path d="M3.07345, -6.5 C2.91913, -6.5 2.7648, -6.5 2.61048, -6.5  C2.45986, -6.5 2.30924, -6.5 2.15863, -6.5  C1.86215, -6.5 1.56949, -6.5 1.28062, -6.5  C0.850059, -6.5 0.423185, -6.5 1.33227e-15, -6.5  C-0.565318, -6.5 -1.13234, -6.5 -1.71597, -6.5  C-1.86352, -6.5 -2.01107, -6.5 -2.15863, -6.5  C-2.30924, -6.5 -2.45986, -6.5 -2.61048, -6.5  C-2.7648, -6.5 -2.91913, -6.5 -3.07345, -6.5 " /><path d="M3.07345 -6.5 A7.19 7.19 0 0 1 4.09244 -5.91169" /><path d="M7.16589, -0.588314 C7.08873, -0.721962 7.01157, -0.855611 6.9344, -0.989259  C6.8591, -1.1197 6.78379, -1.25014 6.70848, -1.38058  C6.56024, -1.63733 6.41391, -1.89078 6.26948, -2.14095  C6.05419, -2.51383 5.84076, -2.88351 5.62917, -3.25  C5.34651, -3.73958 5.063, -4.23063 4.77118, -4.73607  C4.6974, -4.86386 4.62363, -4.99164 4.54985, -5.11942  C4.47454, -5.24986 4.39923, -5.3803 4.32393, -5.51074  C4.24676, -5.64439 4.1696, -5.77804 4.09244, -5.91169 " /><path d="M7.16589 -0.588314 A7.19 7.19 0 0 1 7.19 -1.76104e-15" /><path d="M3.5, 0.000737643 L3.49999, 0.0060204 " /><path d="M3.49998, 0.0127774 L3.49998, 0.0127981 " /><path d="M3.49993, 0.0222731 L3.49993, 0.0222992 " /><path d="M3.49884, 0.0901555 L3.49884, 0.0901685 " /><path d="M3.49858, 0.0996402 L3.49858, 0.0996532 " /><path d="M3.49599, 0.167469 L3.49599, 0.167495 " /><path d="M3.49552, 0.176959 L3.49552, 0.176979 " /><path d="M3.49481, 0.190475 Q3.48943, 0.289287 3.47847, 0.387636 " /><path d="M3.46467, 0.496027 L3.46467, 0.49604 " /><path d="M3.46346, 0.504454 L3.46202, 0.514249 " /><path d="M3.44187, 0.635259 L3.40948, 0.790861 " /><path d="M3.3927, 0.859973 L3.3927, 0.859983 " /><path d="M3.39092, 0.866977 L3.39092, 0.866982 " /><path d="M3.38913, 0.873968 L3.38912, 0.873988 " /><path d="M3.3726, 0.935702 L3.3726, 0.935717 " /><path d="M3.37066, 0.942669 L3.37066, 0.942693 " /><path d="M3.36791, 0.952456 L3.36791, 0.952471 " /><path d="M3.36513, 0.962234 L3.36513, 0.962242 " /><path d="M3.36232, 0.972005 L3.3623, 0.972073 " /><path d="M3.36124, 0.975741 L3.36124, 0.975751 " /><path d="M3.35351, 1.00199 L3.35351, 1.002 " /><path d="M3.35241, 1.00566 L3.31667, 1.11789 " /><path d="M3.30036, 1.16518 L3.30035, 1.16519 " /><path d="M3.29825, 1.17114 L3.29824, 1.17116 " /><path d="M3.29234, 1.18764 L3.29233, 1.18766 " /><path d="M3.29019, 1.19359 L3.29018, 1.1936 " /><path d="M3.27279, 1.2405 L3.27279, 1.24051 " /><path d="M3.27054, 1.24641 L3.27054, 1.24642 " /><path d="M3.26741, 1.25459 L3.26741, 1.25461 " /><path d="M3.26514, 1.2605 L3.26514, 1.2605 " /><path d="M3.24679, 1.30704 L3.24679, 1.30705 " /><path d="M3.24442, 1.3129 L3.24442, 1.31292 " /><path d="M3.24112, 1.32103 L3.2411, 1.3211 " /><path d="M3.23965, 1.32463 L3.23965, 1.32464 " /><path d="M3.2292, 1.34992 L3.22919, 1.34993 " /><path d="M3.22772, 1.35345 L3.22772, 1.35346 " /><path d="M3.21704, 1.37864 L3.21704, 1.37865 " /><path d="M3.21553, 1.38216 L3.2155, 1.38223 " /><path d="M3.21204, 1.39026 L3.21203, 1.39028 " /><path d="M3.20951, 1.39607 L3.20951, 1.39608 " /><path d="M3.18923, 1.44181 L3.18923, 1.44182 " /><path d="M3.18662, 1.44756 L3.18662, 1.44758 " /><path d="M3.18299, 1.45554 L3.18298, 1.45555 " /><path d="M3.18035, 1.46129 L3.18035, 1.46129 " /><path d="M3.15914, 1.5066 L3.15914, 1.5066 " /><path d="M3.15641, 1.5123 L3.1564, 1.51232 " /><path d="M3.1488, 1.52808 L3.14879, 1.5281 " /><path d="M3.14603, 1.53378 L3.14603, 1.53379 " /><path d="M3.12379, 1.57859 L3.12378, 1.5786 " /><path d="M3.12093, 1.58423 L3.12093, 1.58424 " /><path d="M3.11696, 1.59204 L3.11695, 1.59205 " /><path d="M3.11407, 1.59767 L3.11407, 1.59767 " /><path d="M3.09092, 1.64202 L3.09091, 1.64203 " /><path d="M3.08795, 1.6476 L3.08794, 1.64762 " /><path d="M3.08381, 1.65533 L3.08378, 1.65539 " /><path d="M3.08197, 1.65876 L3.08196, 1.65877 " /><path d="M3.0689, 1.68281 L3.0689, 1.68281 " /><path d="M3.06706, 1.68616 L3.06706, 1.68616 " /><path d="M3.05379, 1.71008 L3.05378, 1.71009 " /><path d="M3.05191, 1.71342 L3.05188, 1.71349 " /><path d="M3.04759, 1.72111 L3.04757, 1.72113 " /><path d="M3.04447, 1.72662 L3.04446, 1.72663 " /><path d="M3.01947, 1.76997 L3.01947, 1.76997 " /><path d="M3.01627, 1.77542 L3.01627, 1.77543 " /><path d="M3.01182, 1.78296 L3.01181, 1.78297 " /><path d="M3.00859, 1.7884 L3.00859, 1.7884 " /><path d="M2.98272, 1.83122 L2.98272, 1.83123 " /><path d="M2.97941, 1.8366 L2.9794, 1.83663 " /><path d="M2.97018, 1.8515 L2.97017, 1.85152 " /><path d="M2.96682, 1.85687 L2.96682, 1.85688 " /><path d="M2.93998, 1.89909 L2.93997, 1.8991 " /><path d="M2.93654, 1.9044 L2.93653, 1.90441 " /><path d="M2.93177, 1.91174 L2.93176, 1.91175 " /><path d="M2.92831, 1.91703 L2.9283, 1.91704 " /><path d="M2.9006, 1.9587 L2.9006, 1.9587 " /><path d="M2.89706, 1.96393 L2.89705, 1.96395 " /><path d="M2.89213, 1.97119 L2.89209, 1.97125 " /><path d="M2.89101, 1.97282 L2.89101, 1.97283 " /><path d="M2.87441, 1.99694 L2.87441, 1.99694 " /><path d="M2.87332, 1.99851 L2.87324, 1.99862 " /><path d="M2.86778, 2.00645 L2.86777, 2.00646 " /><path d="M2.86371, 2.01226 L2.8637, 2.01227 " /><path d="M2.83425, 2.05354 L2.83424, 2.05355 " /><path d="M2.83008, 2.05928 L2.83008, 2.05928 " /><path d="M2.79995, 2.10006 L2.79994, 2.10008 " /><path d="M2.79569, 2.10573 L2.79568, 2.10575 " /><path d="M2.78415, 2.12096 L2.78415, 2.12097 " /><path d="M2.77985, 2.1266 L2.77984, 2.12662 " /><path d="M2.74874, 2.16666 L2.74874, 2.16667 " /><path d="M2.74435, 2.17222 L2.74434, 2.17223 " /><path d="M2.71259, 2.21175 L2.71258, 2.21176 " /><path d="M2.7081, 2.21725 L2.70809, 2.21726 " /><path d="M2.70204, 2.22463 L2.70195, 2.22474 " /><path d="M2.70074, 2.22621 L2.70073, 2.22622 " /><path d="M2.68202, 2.24873 L2.68202, 2.24873 " /><path d="M2.68079, 2.25019 L2.68074, 2.25025 " /><path d="M2.6742, 2.25802 L2.6742, 2.25802 " /><path d="M2.66764, 2.26577 L2.66763, 2.26578 " /><path d="M2.66105, 2.2735 L2.66103, 2.27352 " /><path d="M2.65634, 2.279 L2.65633, 2.27902 " /><path d="M2.61429, 2.32712 L2.61428, 2.32714 " /><path d="M2.60947, 2.33252 L2.60947, 2.33252 " /><path d="M2.60466, 2.3379 L2.60465, 2.33791 " /><path d="M2.55661, 2.39035 L2.5566, 2.39035 " /><path d="M2.55167, 2.39562 L2.55166, 2.39563 " /><path d="M2.54672, 2.40088 L2.47317, 2.47657 " /><path d="M2.45374, 2.49583 L2.45374, 2.49583 " /><path d="M2.45101, 2.49851 L2.45101, 2.49851 " /><path d="M2.4314, 2.51759 L2.4314, 2.5176 " /><path d="M2.42865, 2.52025 L2.4286, 2.5203 " /><path d="M2.42229, 2.52637 L2.42227, 2.52638 " /><path d="M2.41771, 2.53075 L2.41771, 2.53075 " /><path d="M2.38129, 2.56505 L2.38128, 2.56505 " /><path d="M2.37665, 2.56934 L2.37664, 2.56935 " /><path d="M2.37021, 2.57529 L2.3702, 2.57529 " /><path d="M2.36555, 2.57956 L2.36555, 2.57957 " /><path d="M2.32844, 2.61312 L2.32843, 2.61312 " /><path d="M2.32372, 2.61732 L2.3237, 2.61733 " /><path d="M2.31058, 2.62892 L2.31056, 2.62893 " /><path d="M2.30582, 2.6331 L2.30581, 2.6331 " /><path d="M2.26794, 2.66579 L2.26794, 2.66579 " /><path d="M2.26313, 2.66988 L2.26312, 2.66989 " /><path d="M2.25644, 2.67554 L2.25643, 2.67554 " /><path d="M2.2516, 2.67961 L2.25159, 2.67961 " /><path d="M2.21306, 2.71152 L2.21306, 2.71153 " /><path d="M2.20816, 2.71551 L2.20814, 2.71553 " /><path d="M2.20135, 2.72104 L2.20129, 2.72108 " /><path d="M2.19832, 2.72349 L2.19832, 2.72349 " /><path d="M2.17696, 2.74059 L2.17696, 2.74059 " /><path d="M2.17396, 2.74297 L2.17396, 2.74297 " /><path d="M2.15245, 2.75988 L2.15245, 2.75989 " /><path d="M2.14943, 2.76223 L2.14938, 2.76228 " /><path d="M2.14246, 2.76764 L2.14245, 2.76766 " /><path d="M2.13745, 2.77152 L2.13745, 2.77152 " /><path d="M2.09761, 2.80179 L2.09761, 2.80179 " /><path d="M2.09255, 2.80557 L2.09254, 2.80558 " /><path d="M2.08552, 2.8108 L2.08551, 2.81081 " /><path d="M2.08044, 2.81456 L2.08043, 2.81457 " /><path d="M2.03999, 2.84402 Q1.97065, 2.89376 1.89897, 2.94006 " /><path d="M1.87593, 2.95481 L1.87592, 2.95481 " /><path d="M1.8727, 2.95686 L1.87269, 2.95686 " /><path d="M1.84952, 2.97141 L1.84951, 2.97141 " /><path d="M1.84627, 2.97343 L1.84621, 2.97347 " /><path d="M1.83877, 2.97807 L1.83875, 2.97809 " /><path d="M1.83338, 2.9814 L1.83337, 2.9814 " /><path d="M1.79057, 3.0073 L1.79057, 3.0073 " /><path d="M1.78514, 3.01053 L1.78513, 3.01053 " /><path d="M1.7776, 3.01499 L1.77759, 3.01499 " /><path d="M1.77215, 3.01819 L1.77214, 3.0182 " /><path d="M1.72882, 3.04322 L1.72882, 3.04322 " /><path d="M1.72332, 3.04633 L1.7233, 3.04635 " /><path d="M1.70805, 3.05492 L1.70803, 3.05494 " /><path d="M1.70252, 3.05801 L1.70251, 3.05801 " /><path d="M1.65863, 3.08204 L1.65862, 3.08204 " /><path d="M1.65306, 3.08503 L1.65305, 3.08503 " /><path d="M1.64534, 3.08915 L1.64533, 3.08916 " /><path d="M1.63975, 3.09212 L1.63975, 3.09212 " /><path d="M1.59538, 3.11525 L1.59538, 3.11525 " /><path d="M1.58976, 3.11812 L1.58973, 3.11813 " /><path d="M1.58193, 3.1221 L1.58187, 3.12213 " /><path d="M1.58017, 3.12299 L1.58016, 3.12299 " /><path d="M1.55399, 3.1361 L1.55398, 3.1361 " /><path d="M1.55227, 3.13695 L1.55215, 3.13701 " /><path d="M1.54359, 3.14123 L1.54358, 3.14124 " /><path d="M1.43254, 3.19341 L1.43252, 3.19341 " /><path d="M1.42381, 3.19731 L1.42353, 3.19743 " /><path d="M1.41494, 3.20124 Q1.25131, 3.27356 1.08118, 3.32882 " /><path d="M1.08049, 3.32904 L0.947516, 3.3693 " /><path d="M0.941147, 3.37109 L0.936165, 3.37248 " /><path d="M0.935469, 3.37267 L0.880105, 3.38754 " /><path d="M0.876903, 3.38837 L0.8744, 3.38902 " /><path d="M0.87405, 3.38911 L0.852462, 3.3946 " /><path d="M0.850905, 3.39499 L0.843275, 3.39689 " /><path d="M0.745769, 3.41962 L0.738084, 3.42129 " /><path d="M0.736515, 3.42163 L0.586731, 3.45047 " /><path d="M0.577461, 3.45203 L0.556804, 3.45543 " /><path d="M0.555557, 3.45563 L0.555522, 3.45563 " /><path d="M0.554715, 3.45576 L0.548311, 3.45678 " /><path d="M0.547503, 3.45691 L0.489951, 3.46554 " /><path d="M0.489141, 3.46565 L0.482719, 3.46655 " /><path d="M0.481909, 3.46666 L0.476088, 3.46747 " /><path d="M0.430047, 3.47348 L0.424204, 3.4742 " /><path d="M0.423392, 3.4743 L0.422578, 3.4744 " /><path d="M0.408078, 3.47613 L0.350226, 3.48243 " /><path d="M0.349412, 3.48252 L0.342959, 3.48316 " /><path d="M0.342146, 3.48324 L0.284184, 3.48844 " /><path d="M0.283369, 3.48851 L0.276905, 3.48903 " /><path d="M0.27609, 3.48909 L0.276055, 3.4891 " /><path d="M0.273536, 3.48929 L0.232336, 3.49228 " /><path d="M0.23152, 3.49233 L0.225049, 3.49276 " /><path d="M0.224233, 3.49281 L0.166129, 3.49606 " /><path d="M0.165312, 3.49609 L0.158835, 3.49639 " /><path d="M0.158017, 3.49643 L0.0998626, 3.49858 " /><path d="M0.0852649, 3.49896 L0.0844453, 3.49898 " /><path d="M0.0836277, 3.499 L0.0777418, 3.49914 " /><path d="M0.0313162, 3.49986 L0.0254402, 3.49991 " /><path d="M0.0246223, 3.49991 L0.0181379, 3.49995 " /><path d="M0.0173201, 3.49996 L-0.0408743, 3.49976 " /><path d="M-0.0416921, 3.49975 L-0.0481761, 3.49967 " /><path d="M-0.0489939, 3.49966 L-0.049029, 3.49966 " /><path d="M-0.0502924, 3.49964 L-0.0711723, 3.49928 " /><path d="M-0.0720662, 3.49926 L-0.0784718, 3.49912 " /><path d="M-0.0793656, 3.4991 L-0.0872687, 3.49891 " /><path d="M-0.0878466, 3.4989 L-0.0975986, 3.49864 " /><path d="M-0.0981771, 3.49862 L-0.180467, 3.49534 " /><path d="M-0.181623, 3.49528 L-0.190786, 3.4948 " /><path d="M-0.191942, 3.49473 L-0.274115, 3.48925 " /><path d="M-0.275269, 3.48916 L-0.284416, 3.48842 " /><path d="M-0.28557, 3.48833 L-0.287382, 3.48818 " /><path d="M-0.301927, 3.48695 L-0.314692, 3.48582 " /><path d="M-0.316473, 3.48566 L-0.316497, 3.48566 " /><path d="M-0.32794, 3.4846 L-0.409837, 3.47592 " /><path d="M-0.410987, 3.47579 L-0.420099, 3.4747 " /><path d="M-0.421248, 3.47456 Q-0.556992, 3.4581 -0.691035, 3.4311 " /><path d="M-0.700083, 3.42927 L-0.703211, 3.42863 " /><path d="M-0.71014, 3.4272 L-0.710647, 3.4271 " /><path d="M-0.775404, 3.41303 Q-0.927357, 3.3785 -1.07566, 3.33061 " /><path d="M-1.0783, 3.32976 L-1.0783, 3.32975 " /><path d="M-1.12011, 3.31592 L-1.12012, 3.31592 " /><path d="M-1.12538, 3.31414 L-1.1254, 3.31413 " /><path d="M-1.12614, 3.31388 L-1.13196, 3.3119 " /><path d="M-1.13269, 3.31165 L-1.13275, 3.31163 " /><path d="M-1.13593, 3.31054 L-1.18457, 3.29345 " /><path d="M-1.18774, 3.29231 L-1.1878, 3.29229 " /><path d="M-1.18852, 3.29202 L-1.19431, 3.28993 " /><path d="M-1.19504, 3.28966 L-1.19506, 3.28966 " /><path d="M-1.19767, 3.28871 L-1.20028, 3.28775 " /><path d="M-1.24156, 3.27239 L-1.24156, 3.27239 " /><path d="M-1.24416, 3.2714 L-1.24677, 3.27041 " /><path d="M-1.24749, 3.27013 L-1.25324, 3.26794 " /><path d="M-1.25396, 3.26766 L-1.25397, 3.26765 " /><path d="M-1.25916, 3.26566 L-1.25916, 3.26566 " /><path d="M-1.30015, 3.24955 L-1.30016, 3.24955 " /><path d="M-1.30273, 3.24852 L-1.30533, 3.24748 " /><path d="M-1.31818, 3.24229 L-1.3189, 3.24199 " /><path d="M-1.31961, 3.2417 L-1.31963, 3.24169 " /><path d="M-1.32478, 3.23959 L-1.32478, 3.23959 " /><path d="M-1.36544, 3.22267 L-1.36545, 3.22266 " /><path d="M-1.368, 3.22158 L-1.37057, 3.22049 " /><path d="M-1.37128, 3.22018 L-1.37694, 3.21777 " /><path d="M-1.37765, 3.21746 L-1.37766, 3.21746 " /><path d="M-1.38277, 3.21527 L-1.38278, 3.21527 " /><path d="M-1.42312, 3.19761 L-1.42313, 3.19761 " /><path d="M-1.4282, 3.19535 L-1.42822, 3.19534 " /><path d="M-1.42893, 3.19502 L-1.43454, 3.19251 " /><path d="M-1.43525, 3.19219 L-1.43531, 3.19216 " /><path d="M-1.43837, 3.19078 L-1.4603, 3.1808 " /><path d="M-1.46336, 3.1794 L-1.46336, 3.1794 " /><path d="M-1.48521, 3.16925 L-1.48521, 3.16925 " /><path d="M-1.48826, 3.16782 L-1.48831, 3.16779 " /><path d="M-1.48902, 3.16746 L-1.49458, 3.16484 " /><path d="M-1.49528, 3.16451 L-1.49782, 3.16331 " /><path d="M-1.50032, 3.16212 Q-1.6868, 3.07363 -1.86159, 2.96386 " /><path d="M-1.91691, 2.92839 L-1.92038, 2.92611 " /><path d="M-1.92385, 2.92383 L-1.92388, 2.92382 " /><path d="M-1.92484, 2.92318 L-1.9325, 2.91812 " /><path d="M-1.93346, 2.91748 L-1.93349, 2.91747 " /><path d="M-1.93498, 2.91648 L-1.94564, 2.90938 " /><path d="M-1.95776, 2.90124 L-1.95776, 2.90123 " /><path d="M-1.95924, 2.90023 L-1.95927, 2.90022 " /><path d="M-1.96022, 2.89957 L-1.96782, 2.89442 " /><path d="M-1.96878, 2.89377 L-1.97223, 2.89142 " /><path d="M-1.97565, 2.88908 L-2.03632, 2.84665 " /><path d="M-2.03726, 2.84597 L-2.04472, 2.84062 " /><path d="M-2.04566, 2.83994 L-2.10527, 2.79604 " /><path d="M-2.10858, 2.79355 L-2.11191, 2.79102 " /><path d="M-2.11284, 2.79033 L-2.12015, 2.78478 " /><path d="M-2.12061, 2.78443 L-2.12109, 2.78406 " /><path d="M-2.13339, 2.77464 L-2.13359, 2.77449 " /><path d="M-2.14276, 2.76742 L-2.14991, 2.76186 " /><path d="M-2.15091, 2.76109 L-2.15093, 2.76107 " /><path d="M-2.15158, 2.76056 L-2.15669, 2.75657 " /><path d="M-2.15733, 2.75607 L-2.15735, 2.75605 " /><path d="M-2.16196, 2.75244 L-2.16197, 2.75243 " /><path d="M-2.19829, 2.72351 L-2.1983, 2.7235 " /><path d="M-2.20058, 2.72167 L-2.20286, 2.71981 " /><path d="M-2.2035, 2.7193 L-2.20853, 2.71521 " /><path d="M-2.20917, 2.7147 L-2.20918, 2.71469 " /><path d="M-2.21372, 2.71099 L-2.21372, 2.71098 " /><path d="M-2.2495, 2.68137 L-2.2495, 2.68137 " /><path d="M-2.25399, 2.6776 L-2.254, 2.67759 " /><path d="M-2.25463, 2.67706 L-2.25526, 2.67653 " /><path d="M-2.26641, 2.6671 L-2.26866, 2.66518 " /><path d="M-2.27088, 2.66329 L-2.27089, 2.66328 " /><path d="M-2.30602, 2.63292 Q-2.45351, 2.50373 -2.58565, 2.3589 " /><path d="M-2.73479, 2.18425 Q-2.79289, 2.1115 -2.84704, 2.03577 " /><path d="M-1.10589, -3.32069 C-0.352085, -3.57398 0.48798, -3.55797 1.23157, -3.27616  C1.83478, -3.0504 2.37254, -2.65375 2.76636, -2.14412  C3.23943, -1.53684 3.50188, -0.769757 3.5, -1.11022e-15 " /><circle cx ="0" cy ="0" r ="6.4935" /><path d="M3.49998, 0.0127775 L3.49998, 0.0127981 " /><path d="M3.49993, 0.0222731 L3.49993, 0.0222992 " /><path d="M3.49884, 0.0901555 L3.49884, 0.0901686 " /><path d="M3.49858, 0.0996403 L3.49858, 0.0996533 " /><path d="M3.49599, 0.167469 L3.49599, 0.167495 " /><path d="M3.49552, 0.176959 L3.49552, 0.176979 " /><path d="M3.49481, 0.190475 Q3.48966, 0.285032 3.4794, 0.379173 " /><path d="M3.47847, 0.387623 L3.47847, 0.387636 " /><path d="M3.46467, 0.496027 L3.46467, 0.49604 " /><path d="M3.46346, 0.504454 L3.46341, 0.504791 " /><path d="M3.46202, 0.514234 L3.46202, 0.514249 " /><path d="M3.44187, 0.635259 L3.40948, 0.790861 " /><path d="M3.3927, 0.859973 L3.3927, 0.859983 " /><path d="M3.39092, 0.866977 L3.39092, 0.866982 " /><path d="M3.38913, 0.873968 L3.38912, 0.873988 " /><path d="M3.3726, 0.935702 L3.3726, 0.935717 " /><path d="M3.37066, 0.942669 L3.37066, 0.942693 " /><path d="M3.36791, 0.952456 L3.36791, 0.952471 " /><path d="M3.36513, 0.962234 L3.36513, 0.962242 " /><path d="M3.36232, 0.972005 L3.3623, 0.972073 " /><path d="M3.36124, 0.975741 L3.36124, 0.975751 " /><path d="M3.35351, 1.00199 L3.35351, 1.002 " /><path d="M3.35241, 1.00566 L3.31667, 1.11789 " /><path d="M3.30036, 1.16518 L3.30035, 1.16519 " /><path d="M3.29825, 1.17114 L3.29824, 1.17116 " /><path d="M3.29234, 1.18764 L3.29233, 1.18766 " /><path d="M3.29019, 1.19359 L3.29018, 1.1936 " /><path d="M3.27279, 1.2405 L3.27279, 1.24051 " /><path d="M3.27054, 1.24641 L3.27054, 1.24642 " /><path d="M3.26741, 1.25459 L3.26741, 1.25461 " /><path d="M3.26514, 1.2605 L3.26514, 1.2605 " /><path d="M3.24679, 1.30704 L3.24679, 1.30705 " /><path d="M3.24442, 1.3129 L3.24442, 1.31292 " /><path d="M3.24112, 1.32103 L3.2411, 1.3211 " /><path d="M3.23965, 1.32463 L3.23965, 1.32464 " /><path d="M3.2292, 1.34992 L3.22919, 1.34993 " /><path d="M3.22772, 1.35345 L3.22772, 1.35346 " /><path d="M3.21704, 1.37864 L3.21704, 1.37865 " /><path d="M3.21553, 1.38216 L3.2155, 1.38223 " /><path d="M3.21204, 1.39026 L3.21203, 1.39028 " /><path d="M3.20951, 1.39607 L3.20951, 1.39608 " /><path d="M3.18923, 1.44181 L3.18923, 1.44182 " /><path d="M3.18662, 1.44756 L3.18662, 1.44758 " /><path d="M3.18299, 1.45554 L3.18298, 1.45555 " /><path d="M3.18035, 1.46129 L3.18035, 1.46129 " /><path d="M3.15914, 1.5066 L3.15914, 1.5066 " /><path d="M3.15641, 1.5123 L3.1564, 1.51232 " /><path d="M3.1488, 1.52808 L3.14879, 1.5281 " /><path d="M3.14603, 1.53378 L3.14603, 1.53379 " /><path d="M3.12379, 1.57859 L3.12378, 1.5786 " /><path d="M3.12093, 1.58423 L3.12093, 1.58424 " /><path d="M3.11696, 1.59204 L3.11695, 1.59205 " /><path d="M3.11407, 1.59767 L3.11407, 1.59767 " /><path d="M3.09092, 1.64202 L3.09091, 1.64203 " /><path d="M3.08795, 1.6476 L3.08794, 1.64762 " /><path d="M3.08381, 1.65533 L3.08378, 1.65539 " /><path d="M3.08197, 1.65876 L3.08196, 1.65877 " /><path d="M3.0689, 1.68281 L3.0689, 1.68281 " /><path d="M3.06706, 1.68616 L3.06706, 1.68616 " /><path d="M3.05379, 1.71008 L3.05378, 1.71009 " /><path d="M3.05191, 1.71342 L3.05188, 1.71349 " /><path d="M3.04759, 1.72111 L3.04757, 1.72113 " /><path d="M3.04447, 1.72662 L3.04446, 1.72663 " /><path d="M3.01947, 1.76997 L3.01947, 1.76997 " /><path d="M3.01627, 1.77542 L3.01627, 1.77543 " /><path d="M3.01182, 1.78296 L3.01181, 1.78297 " /><path d="M3.00859, 1.7884 L3.00859, 1.7884 " /><path d="M2.98272, 1.83122 L2.98272, 1.83123 " /><path d="M2.97941, 1.8366 L2.9794, 1.83663 " /><path d="M2.97018, 1.8515 L2.97017, 1.85152 " /><path d="M2.96682, 1.85687 L2.96682, 1.85688 " /><path d="M2.93998, 1.89909 L2.93997, 1.8991 " /><path d="M2.93654, 1.9044 L2.93653, 1.90441 " /><path d="M2.93177, 1.91174 L2.93176, 1.91175 " /><path d="M2.92831, 1.91703 L2.9283, 1.91704 " /><path d="M2.9006, 1.9587 L2.9006, 1.9587 " /><path d="M2.89706, 1.96393 L2.89705, 1.96395 " /><path d="M2.89213, 1.97119 L2.89209, 1.97125 " /><path d="M2.89101, 1.97282 L2.89101, 1.97283 " /><path d="M2.87441, 1.99694 L2.87441, 1.99694 " /><path d="M2.87332, 1.99851 L2.87324, 1.99862 " /><path d="M2.86778, 2.00645 L2.86777, 2.00646 " /><path d="M2.86371, 2.01226 L2.8637, 2.01227 " /><path d="M2.83425, 2.05354 L2.83424, 2.05355 " /><path d="M2.83008, 2.05928 L2.83008, 2.05928 " /><path d="M2.79995, 2.10006 L2.79994, 2.10008 " /><path d="M2.79569, 2.10573 L2.79568, 2.10575 " /><path d="M2.78415, 2.12096 L2.78415, 2.12097 " /><path d="M2.77985, 2.1266 L2.77984, 2.12662 " /><path d="M2.74874, 2.16666 L2.74874, 2.16667 " /><path d="M2.74435, 2.17222 L2.74434, 2.17223 " /><path d="M2.71259, 2.21175 L2.71258, 2.21176 " /><path d="M2.7081, 2.21725 L2.70809, 2.21726 " /><path d="M2.70204, 2.22463 L2.70195, 2.22474 " /><path d="M2.70074, 2.22621 L2.70073, 2.22622 " /><path d="M2.68202, 2.24873 L2.68202, 2.24873 " /><path d="M2.68079, 2.25019 L2.68074, 2.25025 " /><path d="M2.6742, 2.25802 L2.6742, 2.25802 " /><path d="M2.66764, 2.26577 L2.66763, 2.26578 " /><path d="M2.66105, 2.2735 L2.66103, 2.27352 " /><path d="M2.65634, 2.279 L2.65633, 2.27902 " /><path d="M2.61429, 2.32712 L2.61428, 2.32714 " /><path d="M2.60947, 2.33252 L2.60947, 2.33252 " /><path d="M2.60466, 2.3379 L2.60465, 2.33791 " /><path d="M2.55661, 2.39035 L2.5566, 2.39035 " /><path d="M2.55167, 2.39562 L2.55166, 2.39563 " /><path d="M2.54672, 2.40088 L2.47317, 2.47657 " /><path d="M2.45374, 2.49583 L2.45374, 2.49583 " /><path d="M2.45101, 2.49851 L2.45101, 2.49851 " /><path d="M2.4314, 2.51759 L2.4314, 2.5176 " /><path d="M2.42865, 2.52025 L2.4286, 2.5203 " /><path d="M2.42229, 2.52637 L2.42227, 2.52638 " /><path d="M2.41771, 2.53075 L2.41771, 2.53075 " /><path d="M2.38129, 2.56505 L2.38128, 2.56505 " /><path d="M2.37665, 2.56934 L2.37664, 2.56935 " /><path d="M2.37021, 2.57529 L2.3702, 2.57529 " /><path d="M2.36555, 2.57956 L2.36555, 2.57957 " /><path d="M2.32844, 2.61312 L2.32843, 2.61312 " /><path d="M2.32372, 2.61732 L2.3237, 2.61733 " /><path d="M2.31058, 2.62892 L2.31056, 2.62893 " /><path d="M2.30582, 2.6331 L2.30581, 2.6331 " /><path d="M2.26794, 2.66579 L2.26794, 2.66579 " /><path d="M2.26313, 2.66988 L2.26312, 2.66989 " /><path d="M2.25644, 2.67554 L2.25643, 2.67554 " /><path d="M2.2516, 2.67961 L2.25159, 2.67961 " /><path d="M2.21306, 2.71152 L2.21306, 2.71153 " /><path d="M2.20816, 2.71551 L2.20814, 2.71553 " /><path d="M2.20135, 2.72104 L2.20129, 2.72108 " /><path d="M2.19832, 2.72349 L2.19832, 2.72349 " /><path d="M2.17696, 2.74059 L2.17696, 2.74059 " /><path d="M2.17396, 2.74297 L2.17396, 2.74297 " /><path d="M2.15245, 2.75988 L2.15245, 2.75989 " /><path d="M2.14943, 2.76223 L2.14938, 2.76228 " /><path d="M2.14246, 2.76764 L2.14245, 2.76766 " /><path d="M2.13745, 2.77152 L2.13745, 2.77152 " /><path d="M2.09761, 2.80179 L2.09761, 2.80179 " /><path d="M2.09255, 2.80557 L2.09254, 2.80558 " /><path d="M2.08552, 2.8108 L2.08551, 2.81081 " /><path d="M2.08044, 2.81456 L2.08043, 2.81457 " /><path d="M2.03999, 2.84402 Q1.97065, 2.89376 1.89897, 2.94006 " /><path d="M1.87593, 2.95481 L1.87592, 2.95481 " /><path d="M1.8727, 2.95686 L1.87269, 2.95686 " /><path d="M1.84952, 2.97141 L1.84951, 2.97141 " /><path d="M1.84627, 2.97343 L1.84621, 2.97347 " /><path d="M1.83877, 2.97807 L1.83875, 2.97809 " /><path d="M1.83338, 2.9814 L1.83337, 2.9814 " /><path d="M1.79057, 3.0073 L1.79057, 3.0073 " /><path d="M1.78514, 3.01053 L1.78513, 3.01053 " /><path d="M1.7776, 3.01499 L1.77759, 3.01499 " /><path d="M1.77215, 3.01819 L1.77214, 3.0182 " /><path d="M1.72882, 3.04322 L1.72882, 3.04322 " /><path d="M1.72332, 3.04633 L1.7233, 3.04635 " /><path d="M1.70805, 3.05492 L1.70803, 3.05494 " /><path d="M1.70252, 3.05801 L1.70251, 3.05801 " /><path d="M1.65863, 3.08204 L1.65862, 3.08204 " /><path d="M1.65306, 3.08503 L1.65305, 3.08503 " /><path d="M1.64534, 3.08915 L1.64533, 3.08916 " /><path d="M1.63975, 3.09212 L1.63975, 3.09212 " /><path d="M1.59538, 3.11525 L1.59538, 3.11525 " /><path d="M1.58976, 3.11812 L1.58973, 3.11813 " /><path d="M1.58193, 3.1221 L1.58187, 3.12213 " /><path d="M1.58017, 3.12299 L1.58016, 3.12299 " /><path d="M1.55399, 3.1361 L1.55398, 3.1361 " /><path d="M1.55227, 3.13695 L1.55215, 3.13701 " /><path d="M1.54359, 3.14123 L1.54358, 3.14124 " /><path d="M1.43254, 3.19341 L1.43252, 3.19341 " /><path d="M1.42381, 3.19731 Q1.25594, 3.27205 1.08117, 3.32882 " /><path d="M1.08049, 3.32905 L1.07488, 3.33086 " /><path d="M1.06996, 3.33244 L0.946816, 3.3695 " /><path d="M0.941143, 3.37109 L0.936161, 3.37248 " /><path d="M0.935466, 3.37267 L0.880101, 3.38754 " /><path d="M0.876899, 3.38837 L0.874396, 3.38902 " /><path d="M0.874047, 3.38911 L0.852458, 3.3946 " /><path d="M0.850901, 3.39499 L0.843271, 3.39689 " /><path d="M0.745765, 3.41962 L0.73808, 3.42129 " /><path d="M0.736511, 3.42163 L0.586727, 3.45047 " /><path d="M0.577457, 3.45203 L0.556804, 3.45543 " /><path d="M0.555557, 3.45563 L0.555522, 3.45563 " /><path d="M0.554715, 3.45576 L0.548311, 3.45678 " /><path d="M0.547503, 3.45691 L0.489951, 3.46554 " /><path d="M0.489141, 3.46565 L0.482719, 3.46655 " /><path d="M0.481909, 3.46666 L0.476088, 3.46747 " /><path d="M0.430047, 3.47348 L0.424203, 3.4742 " /><path d="M0.423391, 3.4743 L0.422578, 3.4744 " /><path d="M0.408078, 3.47613 L0.350225, 3.48243 " /><path d="M0.349412, 3.48252 L0.342959, 3.48316 " /><path d="M0.342145, 3.48324 L0.284184, 3.48844 " /><path d="M0.283369, 3.48851 L0.276497, 3.48906 " /><path d="M0.276089, 3.48909 L0.276054, 3.4891 " /><path d="M0.273535, 3.48929 L0.232335, 3.49228 " /><path d="M0.231927, 3.49231 L0.225048, 3.49276 " /><path d="M0.224232, 3.49281 L0.166128, 3.49606 " /><path d="M0.165311, 3.49609 L0.158834, 3.49639 " /><path d="M0.158017, 3.49643 L0.0998614, 3.49858 " /><path d="M0.0852637, 3.49896 L0.0844441, 3.49898 " /><path d="M0.0836265, 3.499 L0.0806724, 3.49907 " /><path d="M0.0777477, 3.49914 L0.0777406, 3.49914 " /><path d="M0.031315, 3.49986 L0.0254389, 3.49991 " /><path d="M0.0173188, 3.49996 L-0.0408757, 3.49976 " /><path d="M-0.0416935, 3.49975 L-0.0481775, 3.49967 " /><path d="M-0.0489953, 3.49966 L-0.0490305, 3.49966 " /><path d="M-0.0502938, 3.49964 L-0.0711723, 3.49928 " /><path d="M-0.0720662, 3.49926 L-0.0872687, 3.49891 " /><path d="M-0.0878466, 3.4989 L-0.180467, 3.49534 " /><path d="M-0.181623, 3.49528 L-0.190786, 3.4948 " /><path d="M-0.191942, 3.49473 L-0.274115, 3.48925 " /><path d="M-0.275269, 3.48916 L-0.284416, 3.48842 " /><path d="M-0.28557, 3.48833 L-0.314692, 3.48582 " /><path d="M-0.316473, 3.48566 L-0.316497, 3.48566 " /><path d="M-0.32794, 3.4846 L-0.409837, 3.47592 " /><path d="M-0.410987, 3.47579 L-0.420099, 3.4747 " /><path d="M-0.421248, 3.47456 Q-0.556994, 3.4581 -0.691037, 3.4311 " /><path d="M-0.701099, 3.42906 L-0.70913, 3.42741 " /><path d="M-0.711154, 3.42699 L-0.739351, 3.42102 " /><path d="M-0.811293, 3.40467 Q-0.902724, 3.38289 -0.992859, 3.35622 " /><path d="M-0.995519, 3.35543 L-0.998206, 3.35464 " /><path d="M-1.01147, 3.35066 L-1.01222, 3.35044 " /><path d="M-1.01296, 3.35021 L-1.01298, 3.3502 " /><path d="M-1.0183, 3.34859 L-1.0183, 3.34859 " /><path d="M-1.06036, 3.33551 L-1.06036, 3.33551 " /><path d="M-1.06301, 3.33467 L-1.06567, 3.33382 " /><path d="M-1.06641, 3.33358 L-1.07226, 3.3317 " /><path d="M-1.073, 3.33147 L-1.07301, 3.33146 " /><path d="M-1.0783, 3.32976 L-1.0783, 3.32975 " /><path d="M-1.12012, 3.31592 L-1.12012, 3.31592 " /><path d="M-1.12538, 3.31414 L-1.1254, 3.31413 " /><path d="M-1.12614, 3.31388 L-1.13196, 3.3119 " /><path d="M-1.13269, 3.31165 L-1.13275, 3.31163 " /><path d="M-1.13593, 3.31054 L-1.1587, 3.30264 " /><path d="M-1.16187, 3.30152 L-1.16188, 3.30152 " /><path d="M-1.18457, 3.29345 L-1.18458, 3.29345 " /><path d="M-1.18774, 3.29231 L-1.1878, 3.29228 " /><path d="M-1.18853, 3.29202 L-1.19431, 3.28993 " /><path d="M-1.19504, 3.28966 L-1.19767, 3.2887 " /><path d="M-1.20028, 3.28775 L-1.20029, 3.28775 " /><path d="M-1.24156, 3.27239 L-1.24157, 3.27239 " /><path d="M-1.24676, 3.27041 L-1.24677, 3.27041 " /><path d="M-1.24749, 3.27013 L-1.25324, 3.26793 " /><path d="M-1.25396, 3.26766 L-1.25657, 3.26666 " /><path d="M-1.25916, 3.26566 L-1.25916, 3.26566 " /><path d="M-1.30015, 3.24955 L-1.30274, 3.24852 " /><path d="M-1.30532, 3.24748 L-1.30534, 3.24748 " /><path d="M-1.30606, 3.24719 L-1.30678, 3.2469 " /><path d="M-1.31962, 3.2417 L-1.36545, 3.22266 " /><path d="M-1.368, 3.22158 L-1.37057, 3.22049 " /><path d="M-1.37129, 3.22018 L-1.37694, 3.21777 " /><path d="M-1.37766, 3.21746 L-1.37767, 3.21746 " /><path d="M-1.38022, 3.21636 L-1.38278, 3.21526 " /><path d="M-1.42312, 3.19761 L-1.42313, 3.19761 " /><path d="M-1.42566, 3.19648 L-1.42822, 3.19534 " /><path d="M-1.42893, 3.19502 L-1.43454, 3.1925 " /><path d="M-1.43525, 3.19219 Q-1.64725, 3.09685 -1.84479, 2.97435 " /><path d="M-1.84577, 2.97374 L-1.85357, 2.96889 " /><path d="M-1.85455, 2.96827 L-1.91692, 2.92838 " /><path d="M-1.92038, 2.92611 L-1.92388, 2.92382 " /><path d="M-1.92484, 2.92318 L-1.9325, 2.91812 " /><path d="M-1.93346, 2.91748 L-1.93349, 2.91747 " /><path d="M-1.93498, 2.91648 L-1.93498, 2.91648 " /><path d="M-1.94713, 2.90838 L-1.95776, 2.90123 " /><path d="M-1.95924, 2.90023 L-1.95927, 2.90022 " /><path d="M-1.96022, 2.89957 L-1.96782, 2.89442 " /><path d="M-1.96878, 2.89377 L-1.9688, 2.89375 " /><path d="M-1.97223, 2.89142 L-1.97223, 2.89142 " /><path d="M-1.97565, 2.88908 L-1.97566, 2.88908 " /><path d="M-2.02955, 2.85148 L-2.02956, 2.85147 " /><path d="M-2.03293, 2.84907 L-2.03632, 2.84665 " /><path d="M-2.03726, 2.84597 L-2.04472, 2.84062 " /><path d="M-2.04566, 2.83994 L-2.04567, 2.83994 " /><path d="M-2.04903, 2.83751 L-2.04904, 2.83751 " /><path d="M-2.05239, 2.83508 L-2.0524, 2.83508 " /><path d="M-2.10526, 2.79604 L-2.10527, 2.79604 " /><path d="M-2.10858, 2.79355 L-2.10858, 2.79354 " /><path d="M-2.11189, 2.79104 L-2.11191, 2.79102 " /><path d="M-2.11284, 2.79033 L-2.12015, 2.78478 " /><path d="M-2.12107, 2.78407 L-2.12109, 2.78406 " /><path d="M-2.1218, 2.78352 L-2.12689, 2.77963 " /><path d="M-2.13339, 2.77464 L-2.13359, 2.77449 " /><path d="M-2.14276, 2.76742 L-2.14991, 2.76186 " /><path d="M-2.15091, 2.76109 L-2.15094, 2.76106 " /><path d="M-2.15158, 2.76056 L-2.15669, 2.75657 " /><path d="M-2.15734, 2.75607 L-2.15966, 2.75424 " /><path d="M-2.16196, 2.75244 L-2.16197, 2.75243 " /><path d="M-2.1983, 2.72351 L-2.1983, 2.7235 " /><path d="M-2.20286, 2.71982 L-2.20287, 2.71981 " /><path d="M-2.2035, 2.7193 L-2.20854, 2.71521 " /><path d="M-2.20917, 2.71469 L-2.21145, 2.71284 " /><path d="M-2.21372, 2.71099 L-2.25526, 2.67653 " /><path d="M-2.26516, 2.66816 L-2.26578, 2.66763 " /><path d="M-2.26641, 2.6671 Q-2.59556, 2.38712 -2.84704, 2.03577 " /><path d="M-1.10589, -3.32069 C-0.356987, -3.57229 0.477067, -3.55824 1.21705, -3.28158  C1.82521, -3.05706 2.36779, -2.65905 2.7646, -2.14639  C3.23876, -1.53875 3.50189, -0.770721 3.5, -2.22045e-15 " /><circle cx ="0" cy ="0" r ="4.5" /><path d="M3.5, 4.56192e-07 L3.5, 0.000160513 " /><path d="M3.49984, 0.0337767 L3.49984, 0.0337813 " /><path d="M3.49929, 0.0706968 L3.49929, 0.0707014 " /><path d="M3.49923, 0.073573 L3.49923, 0.0736003 " /><path d="M3.499, 0.0838459 L3.49899, 0.0838714 " /><path d="M3.49892, 0.0867429 L3.49892, 0.0867475 " /><path d="M3.49782, 0.123652 L3.49781, 0.123657 " /><path d="M3.49771, 0.126527 L3.49738, 0.135279 " /><path d="M3.49146, 0.244395 L3.47824, 0.389632 " /><path d="M3.47713, 0.399456 L3.47711, 0.399596 " /><path d="M3.47689, 0.401562 L3.47689, 0.401567 " /><path d="M3.47328, 0.431674 L3.47328, 0.431679 " /><path d="M3.47303, 0.433642 L3.47302, 0.433715 " /><path d="M3.47189, 0.442706 L3.47189, 0.442731 " /><path d="M3.47105, 0.449216 L3.47105, 0.449224 " /><path d="M3.46402, 0.500565 L3.46402, 0.500573 " /><path d="M3.46308, 0.507042 L3.46308, 0.507055 " /><path d="M3.46175, 0.51602 L3.46175, 0.516033 " /><path d="M3.46078, 0.522498 L3.46078, 0.522506 " /><path d="M3.45266, 0.573687 L3.45266, 0.573695 " /><path d="M3.45158, 0.580143 L3.45158, 0.580168 " /><path d="M3.44853, 0.598035 L3.44853, 0.598059 " /><path d="M3.4474, 0.6045 Q3.4292, 0.708279 3.4048, 0.810775 " /><path d="M3.40245, 0.820549 L3.40245, 0.820557 " /><path d="M3.39997, 0.830775 L3.39997, 0.830791 " /><path d="M3.39746, 0.840993 L3.39745, 0.841018 " /><path d="M3.39565, 0.848273 L3.39565, 0.848288 " /><path d="M3.379, 0.912341 L3.37899, 0.912362 " /><path d="M3.37704, 0.919572 L3.37704, 0.919577 " /><path d="M3.37506, 0.926789 L3.37506, 0.926799 " /><path d="M3.35481, 0.997633 L3.3548, 0.997644 " /><path d="M3.35266, 1.00481 L3.35266, 1.00481 " /><path d="M3.35051, 1.01197 L3.30812, 1.14295 " /><path d="M3.30683, 1.14669 L3.30683, 1.14669 " /><path d="M3.29743, 1.17343 L3.29743, 1.17344 " /><path d="M3.2961, 1.17717 L3.29608, 1.17723 " /><path d="M3.29302, 1.18577 L3.29301, 1.18579 " /><path d="M3.29079, 1.19194 L3.29078, 1.19195 " /><path d="M3.27278, 1.24054 L3.27277, 1.24055 " /><path d="M3.27045, 1.24666 L3.27045, 1.24667 " /><path d="M3.26721, 1.25513 L3.2672, 1.25515 " /><path d="M3.26485, 1.26125 L3.26485, 1.26125 " /><path d="M3.24582, 1.30945 L3.24581, 1.30946 " /><path d="M3.24336, 1.31552 L3.24335, 1.31555 " /><path d="M3.2365, 1.33233 L3.23649, 1.33235 " /><path d="M3.23399, 1.33839 L3.23399, 1.3384 " /><path d="M3.21382, 1.38613 L3.21382, 1.38614 " /><path d="M3.21122, 1.39214 L3.21122, 1.39215 " /><path d="M3.2076, 1.40047 L3.20759, 1.40048 " /><path d="M3.20497, 1.40647 L3.20497, 1.40647 " /><path d="M3.18379, 1.45377 L3.18379, 1.45378 " /><path d="M3.18107, 1.45972 L3.18106, 1.45975 " /><path d="M3.17727, 1.46798 L3.17724, 1.46804 " /><path d="M3.17558, 1.47164 L3.17557, 1.47165 " /><path d="M3.16355, 1.49731 L3.16355, 1.49731 " /><path d="M3.16186, 1.50089 L3.16185, 1.50089 " /><path d="M3.1496, 1.52645 L3.14959, 1.52646 " /><path d="M3.14786, 1.53002 L3.14783, 1.53008 " /><path d="M3.14386, 1.53823 L3.14385, 1.53825 " /><path d="M3.14097, 1.54412 L3.14097, 1.54413 " /><path d="M3.11776, 1.59046 L3.11776, 1.59047 " /><path d="M3.11478, 1.59629 L3.11477, 1.5963 " /><path d="M3.11063, 1.60436 L3.11063, 1.60437 " /><path d="M3.10762, 1.61018 L3.10762, 1.61019 " /><path d="M3.08344, 1.65602 L3.08343, 1.65603 " /><path d="M3.08034, 1.66179 L3.08032, 1.66181 " /><path d="M3.07168, 1.67774 L3.07166, 1.67776 " /><path d="M3.06853, 1.68349 L3.06852, 1.6835 " /><path d="M3.04326, 1.72875 L3.04326, 1.72876 " /><path d="M3.04002, 1.73444 L3.04001, 1.73445 " /><path d="M3.03551, 1.74231 L3.03551, 1.74232 " /><path d="M3.03225, 1.74799 L3.03224, 1.748 " /><path d="M3.00603, 1.7927 L3.00603, 1.79271 " /><path d="M3.00267, 1.79832 L3.00266, 1.79834 " /><path d="M2.99799, 1.80611 L2.99796, 1.80617 " /><path d="M2.99693, 1.80787 L2.99693, 1.80787 " /><path d="M2.98116, 1.83377 L2.98115, 1.83377 " /><path d="M2.98012, 1.83546 L2.98004, 1.83558 " /><path d="M2.97484, 1.84399 L2.97484, 1.844 " /><path d="M2.97097, 1.85023 L2.97096, 1.85025 " /><path d="M2.94286, 1.89462 L2.94285, 1.89463 " /><path d="M2.93888, 1.90079 L2.93887, 1.9008 " /><path d="M2.91002, 1.94468 L2.91001, 1.94469 " /><path d="M2.90593, 1.95079 L2.90592, 1.9508 " /><path d="M2.89485, 1.96719 L2.89484, 1.9672 " /><path d="M2.89072, 1.97326 L2.89071, 1.97328 " /><path d="M2.86077, 2.01643 L2.86077, 2.01644 " /><path d="M2.85654, 2.02242 L2.85653, 2.02243 " /><path d="M2.82586, 2.06507 L2.82585, 2.06508 " /><path d="M2.82152, 2.071 L2.82151, 2.07101 " /><path d="M2.81565, 2.07897 L2.81556, 2.07909 " /><path d="M2.81439, 2.08068 L2.81439, 2.08068 " /><path d="M2.79625, 2.10499 L2.79625, 2.10499 " /><path d="M2.79506, 2.10657 L2.79502, 2.10663 " /><path d="M2.78867, 2.11502 L2.78866, 2.11503 " /><path d="M2.7823, 2.1234 L2.78229, 2.12341 " /><path d="M2.7759, 2.13175 L2.77589, 2.13177 " /><path d="M2.76903, 2.14068 L2.76901, 2.1407 " /><path d="M2.76394, 2.14724 L2.76393, 2.14725 " /><path d="M2.7101, 2.21481 L2.71009, 2.21482 " /><path d="M2.70484, 2.22122 L2.70483, 2.22124 " /><path d="M2.6905, 2.23857 L2.69049, 2.23859 " /><path d="M2.68518, 2.24495 L2.68518, 2.24495 " /><path d="M2.62896, 2.31054 L2.62895, 2.31054 " /><path d="M2.62347, 2.31676 L2.62346, 2.31678 " /><path d="M2.61601, 2.32519 L2.61599, 2.32521 " /><path d="M2.609, 2.33305 L2.60899, 2.33306 " /><path d="M2.60197, 2.34089 L2.60196, 2.3409 " /><path d="M2.59491, 2.34871 L2.59486, 2.34876 " /><path d="M2.5922, 2.3517 L2.5922, 2.3517 " /><path d="M2.57307, 2.37262 L2.57307, 2.37262 " /><path d="M2.57038, 2.37553 L2.57038, 2.37553 " /><path d="M2.55106, 2.39627 L2.55105, 2.39627 " /><path d="M2.54834, 2.39916 L2.48602, 2.46368 " /><path d="M2.44927, 2.50022 L2.44926, 2.50022 " /><path d="M2.44459, 2.50479 L2.44457, 2.50481 " /><path d="M2.43156, 2.51744 L2.43155, 2.51746 " /><path d="M2.42684, 2.52199 L2.42683, 2.522 " /><path d="M2.38923, 2.55766 L2.38922, 2.55766 " /><path d="M2.38444, 2.56212 L2.38443, 2.56213 " /><path d="M2.37779, 2.56829 L2.37778, 2.5683 " /><path d="M2.37297, 2.57274 L2.37297, 2.57275 " /><path d="M2.33462, 2.6076 L2.33461, 2.6076 " /><path d="M2.32973, 2.61196 L2.32972, 2.61198 " /><path d="M2.32294, 2.618 L2.32289, 2.61805 " /><path d="M2.31993, 2.62067 L2.31992, 2.62068 " /><path d="M2.29862, 2.63938 L2.29862, 2.63938 " /><path d="M2.29563, 2.64198 L2.29563, 2.64198 " /><path d="M2.27416, 2.66049 L2.27415, 2.66049 " /><path d="M2.27114, 2.66306 L2.27109, 2.66311 " /><path d="M2.26419, 2.66898 L2.26417, 2.669 " /><path d="M2.25918, 2.67322 L2.25917, 2.67323 " /><path d="M2.21934, 2.70639 L2.21934, 2.70639 " /><path d="M2.21428, 2.71053 L2.21427, 2.71054 " /><path d="M2.20724, 2.71626 L2.20723, 2.71627 " /><path d="M2.20215, 2.72039 L2.20215, 2.7204 " /><path d="M2.16163, 2.7527 L2.16162, 2.75271 " /><path d="M2.15647, 2.75674 L2.15645, 2.75676 " /><path d="M2.14215, 2.76789 L2.14213, 2.7679 " /><path d="M2.13695, 2.7719 L2.13695, 2.7719 " /><path d="M2.09567, 2.80324 L2.09567, 2.80325 " /><path d="M2.09043, 2.80716 L2.09042, 2.80716 " /><path d="M2.08314, 2.81257 L2.08313, 2.81257 " /><path d="M2.07787, 2.81646 L2.07787, 2.81646 " /><path d="M2.03594, 2.84692 L1.89785, 2.94078 " /><path d="M1.89746, 2.94103 L1.89745, 2.94103 " /><path d="M1.89195, 2.94457 L1.89195, 2.94458 " /><path d="M1.84814, 2.97227 L1.84814, 2.97227 " /><path d="M1.84258, 2.97572 L1.84256, 2.97573 " /><path d="M1.82712, 2.98523 L1.8271, 2.98525 " /><path d="M1.82152, 2.98865 L1.82152, 2.98866 " /><path d="M1.77707, 3.0153 L1.77706, 3.0153 " /><path d="M1.77142, 3.01862 L1.77141, 3.01863 " /><path d="M1.76359, 3.0232 L1.76358, 3.02321 " /><path d="M1.75793, 3.0265 L1.75792, 3.0265 " /><path d="M1.71292, 3.0522 L1.71291, 3.0522 " /><path d="M1.70721, 3.0554 L1.70719, 3.05541 " /><path d="M1.69927, 3.05982 L1.6992, 3.05985 " /><path d="M1.69747, 3.06081 L1.69747, 3.06082 " /><path d="M1.67089, 3.07541 L1.67088, 3.07541 " /><path d="M1.66914, 3.07636 L1.66902, 3.07642 " /><path d="M1.66032, 3.08112 L1.66031, 3.08113 " /><path d="M1.54735, 3.13938 L1.54734, 3.13939 " /><path d="M1.53846, 3.14374 L1.52973, 3.148 " /><path d="M1.42015, 3.19893 L1.42014, 3.19894 " /><path d="M1.41154, 3.20274 L1.41152, 3.20275 " /><path d="M1.38966, 3.2123 Q1.23365, 3.27978 1.07186, 3.33183 " /><path d="M1.06871, 3.33285 L1.0687, 3.33285 " /><path d="M1.05747, 3.33643 L0.996343, 3.35519 " /><path d="M0.995997, 3.35529 L0.974622, 3.36156 " /><path d="M0.97308, 3.36201 L0.839707, 3.39778 " /><path d="M0.838148, 3.39816 L0.838118, 3.39817 " /><path d="M0.828988, 3.40041 L0.828973, 3.40041 " /><path d="M0.711101, 3.427 L0.701603, 3.42896 " /><path d="M0.700321, 3.42922 L0.679326, 3.43344 " /><path d="M0.678495, 3.43361 L0.671904, 3.4349 " /><path d="M0.671072, 3.43506 L0.603941, 3.4475 " /><path d="M0.603524, 3.44757 L0.528266, 3.4599 " /><path d="M0.527428, 3.46003 L0.467756, 3.4686 " /><path d="M0.466916, 3.46872 L0.460258, 3.46961 " /><path d="M0.459418, 3.46972 L0.456395, 3.47012 " /><path d="M0.45339, 3.47051 L0.453383, 3.47051 " /><path d="M0.405647, 3.47641 L0.399589, 3.47711 " /><path d="M0.398747, 3.47721 L0.392073, 3.47797 " /><path d="M0.391231, 3.47807 L0.391195, 3.47807 " /><path d="M0.388593, 3.47836 L0.346038, 3.48285 " /><path d="M0.345195, 3.48294 L0.33851, 3.48359 " /><path d="M0.337666, 3.48367 L0.277615, 3.48897 " /><path d="M0.277193, 3.48901 L0.193136, 3.49467 " /><path d="M0.19229, 3.49471 L0.138146, 3.49727 " /><path d="M0.135117, 3.49739 L0.13207, 3.49751 " /><path d="M0.123664, 3.49781 L0.0694917, 3.49931 " /><path d="M0.0664618, 3.49937 L0.0634013, 3.49943 " /><path d="M0.0549906, 3.49957 L0.0549542, 3.49957 " /><path d="M0.0536455, 3.49959 L0.0320153, 3.49985 " /><path d="M0.0310893, 3.49986 L0.0159373, 3.49996 " /><path d="M0.0156376, 3.49997 L0.0153371, 3.49997 " /><path d="M0.00998524, 3.49999 L0.00781933, 3.49999 " /><path d="M0.00567496, 3.5 L-0.0326711, 3.49985 " /><path d="M-0.0332706, 3.49984 L-0.0380234, 3.49979 " /><path d="M-0.0386229, 3.49979 L-0.0812733, 3.49906 " /><path d="M-0.0818726, 3.49904 L-0.135808, 3.49736 " /><path d="M-0.136107, 3.49735 L-0.141156, 3.49715 " /><path d="M-0.141755, 3.49713 L-0.184366, 3.49514 " /><path d="M-0.184965, 3.49511 L-0.189711, 3.49485 " /><path d="M-0.19031, 3.49482 L-0.220536, 3.49305 " /><path d="M-0.222385, 3.49293 L-0.222411, 3.49293 " /><path d="M-0.223009, 3.49289 L-0.227752, 3.49258 " /><path d="M-0.228351, 3.49254 L-0.270899, 3.4895 " /><path d="M-0.276833, 3.48903 L-0.278984, 3.48886 " /><path d="M-0.281121, 3.48869 L-0.317181, 3.4856 " /><path d="M-0.319319, 3.4854 L-0.319335, 3.4854 " /><path d="M-0.331188, 3.4843 L-0.373629, 3.48 " /><path d="M-0.374225, 3.47994 L-0.37895, 3.47942 " /><path d="M-0.379546, 3.47936 L-0.421923, 3.47448 " /><path d="M-0.422518, 3.4744 L-0.427236, 3.47383 " /><path d="M-0.427831, 3.47375 L-0.427857, 3.47375 " /><path d="M-0.428776, 3.47364 L-0.444034, 3.47172 " /><path d="M-0.445761, 3.4715 L-0.472233, 3.468 " /><path d="M-0.473958, 3.46776 Q-0.639336, 3.44515 -0.80181, 3.40692 " /><path d="M-0.8052, 3.40612 L-0.805262, 3.40611 " /><path d="M-0.806044, 3.40592 Q-0.936404, 3.37507 -1.06403, 3.33434 " /><path d="M-1.0648, 3.3341 L-1.07087, 3.33215 " /><path d="M-1.07163, 3.33191 L-1.07169, 3.33189 " /><path d="M-1.07501, 3.33082 L-1.12571, 3.31403 " /><path d="M-1.12901, 3.31291 L-1.12907, 3.31289 " /><path d="M-1.12983, 3.31263 L-1.13586, 3.31056 " /><path d="M-1.13662, 3.3103 L-1.18512, 3.29325 " /><path d="M-1.18782, 3.29228 L-1.19054, 3.29129 " /><path d="M-1.1913, 3.29102 L-1.19729, 3.28885 " /><path d="M-1.19804, 3.28857 L-1.19805, 3.28857 " /><path d="M-1.20076, 3.28758 L-1.24621, 3.27062 " /><path d="M-1.24889, 3.2696 L-1.2516, 3.26856 " /><path d="M-1.26499, 3.2634 L-1.26574, 3.26311 " /><path d="M-1.26649, 3.26282 L-1.26651, 3.26281 " /><path d="M-1.2692, 3.26177 L-1.27188, 3.26072 " /><path d="M-1.31428, 3.24387 L-1.31695, 3.24278 " /><path d="M-1.31962, 3.2417 L-1.31963, 3.2417 " /><path d="M-1.32037, 3.24139 L-1.32627, 3.23898 " /><path d="M-1.32701, 3.23868 L-1.32969, 3.23758 " /><path d="M-1.33235, 3.23649 L-1.37708, 3.21771 " /><path d="M-1.37972, 3.21658 L-1.37974, 3.21657 " /><path d="M-1.38048, 3.21625 L-1.38633, 3.21373 " /><path d="M-1.38707, 3.21342 L-1.38713, 3.21339 " /><path d="M-1.39033, 3.21201 L-1.44241, 3.18896 " /><path d="M-1.44314, 3.18863 L-1.44894, 3.186 " /><path d="M-1.44967, 3.18566 Q-1.66053, 3.08969 -1.85691, 2.9668 " /><path d="M-1.86055, 2.96451 L-1.86056, 2.96451 " /><path d="M-1.86107, 2.96419 L-1.86509, 2.96166 " /><path d="M-1.8656, 2.96134 L-1.86742, 2.96019 " /><path d="M-1.86924, 2.95905 L-1.86924, 2.95904 " /><path d="M-1.89793, 2.94073 L-1.89973, 2.93956 " /><path d="M-1.90154, 2.93839 L-1.90155, 2.93838 " /><path d="M-1.90205, 2.93806 L-1.90604, 2.93547 " /><path d="M-1.90655, 2.93515 L-1.90657, 2.93513 " /><path d="M-1.90812, 2.93412 L-1.91924, 2.92686 " /><path d="M-1.93186, 2.91854 L-1.93343, 2.9175 " /><path d="M-1.93393, 2.91717 L-1.93789, 2.91454 " /><path d="M-1.93839, 2.91421 L-1.97377, 2.89037 " /><path d="M-1.97426, 2.89003 L-1.97819, 2.88735 " /><path d="M-1.97868, 2.88701 L-1.97869, 2.88701 " /><path d="M-1.98046, 2.88579 L-1.98223, 2.88457 " /><path d="M-2.01019, 2.86516 L-2.01019, 2.86516 " /><path d="M-2.01195, 2.86392 L-2.01372, 2.86268 " /><path d="M-2.02247, 2.85651 L-2.02296, 2.85616 " /><path d="M-2.02345, 2.85581 L-2.02346, 2.8558 " /><path d="M-2.02696, 2.85332 L-2.02697, 2.85332 " /><path d="M-2.05462, 2.83347 L-2.05462, 2.83347 " /><path d="M-2.05636, 2.83221 L-2.0581, 2.83094 " /><path d="M-2.05859, 2.83059 L-2.06243, 2.82779 " /><path d="M-2.06291, 2.82743 L-2.06292, 2.82743 " /><path d="M-2.06639, 2.8249 L-2.06639, 2.82489 " /><path d="M-2.09376, 2.80467 L-2.09377, 2.80466 " /><path d="M-2.09549, 2.80338 L-2.09722, 2.80208 " /><path d="M-2.0977, 2.80172 L-2.10174, 2.79869 " /><path d="M-2.10198, 2.79851 L-2.102, 2.7985 " /><path d="M-2.11482, 2.78882 L-2.11502, 2.78867 " /><path d="M-2.12457, 2.78141 L-2.13201, 2.7757 " /><path d="M-2.13305, 2.7749 L-2.13308, 2.77488 " /><path d="M-2.13375, 2.77436 L-2.13907, 2.77026 " /><path d="M-2.13974, 2.76975 L-2.13976, 2.76973 " /><path d="M-2.14456, 2.76602 L-2.14457, 2.76601 " /><path d="M-2.18238, 2.73628 L-2.18239, 2.73627 " /><path d="M-2.18475, 2.73438 L-2.18714, 2.73248 " /><path d="M-2.1878, 2.73195 L-2.19304, 2.72774 " /><path d="M-2.1937, 2.72721 L-2.19371, 2.72721 " /><path d="M-2.19843, 2.7234 L-2.19844, 2.72339 " /><path d="M-2.23566, 2.69292 L-2.23566, 2.69292 " /><path d="M-2.24033, 2.68904 L-2.24035, 2.68902 " /><path d="M-2.241, 2.68848 L-2.24165, 2.68794 " /><path d="M-2.25325, 2.67822 L-2.25559, 2.67625 " /><path d="M-2.25791, 2.6743 L-2.25791, 2.67429 " /><path d="M-2.29445, 2.64301 Q-2.60649, 2.37188 -2.84704, 2.03577 " /><path d="M-1.10589, -3.32069 C-0.354319, -3.57321 0.483001, -3.55809 1.22495, -3.27864  C1.83298, -3.0525 2.37491, -2.6528 2.77055, -2.1387  C3.24101, -1.5323 3.50186, -0.767467 3.5, -1.77636e-15 " /><path d="M4.01597, -1.6385e-08 Q4.00918, -0.16995 3.98768, -0.313837 " /><path d="M3.98768, -0.313837 C3.85173, -1.25178 3.36457, -2.13438 2.63593, -2.73706  C2.00151, -3.26797 1.18769, -3.57993 0.362873, -3.59808  C-0.139603, -3.6107 -0.644187, -3.5163 -1.10589, -3.32069 " /><path d="M-2.84704 2.03577 A3.5 3.5 0 0 1 -1.10589 -3.32069" /><path d="M3.5, 5.13217e-07 C3.50278, 0.851183 3.17979, 1.69793 2.6108, 2.33104  C2.18809, 2.80582 1.6332, 3.16117 1.02513, 3.34651  C0.46373, 3.51916 -0.141354, 3.54677 -0.716139, 3.42595  C-1.56732, 3.25112 -2.34411, 2.74431 -2.84704, 2.03577 " /><path d="M-2.84704, 2.03577 C-2.58852, 2.46559 -2.23575, 2.83872 -1.82174, 3.12398  C-1.14107, 3.59613 -0.295222, 3.82206 0.533327, 3.76308  C1.47369, 3.70156 2.38256, 3.27436 3.04163, 2.5978 " /><path d="M4.01597, -1.63849e-08 C4.03183, 0.39637 3.97294, 0.837188 3.83856, 1.24725 " /><path d="M3.83856, 1.24725 C3.75964, 1.48922 3.65841, 1.71839 3.53487, 1.93474  C3.38968, 2.19068 3.20879, 2.42781 3.04163, 2.5978 " /></g>

</svg>
