<svg xmlns="http://www.w3.org/2000/svg" viewBox="-6.7468696 -7.1437496 34.5281192 14.2874992">
<rect width="100%" height="100%" fill="white"/>
<g   fill="none"
   stroke="rgb(165, 165, 165)"
   stroke-dasharray="1.2,0.8"
   stroke-linecap="butt"
   stroke-linejoin="miter"
   stroke-width="0.25"
   transform="scale(1, -1)"
  >
<path d="M-4.36562, 4.7625 L-4.36562, 4.73255  L-4.36562, 4.64309  L-4.36562, 4.49524  L-4.36562, 4.29086  L-4.36562, 4.03252  L-4.36562, 3.72347  L-4.36562, 3.3676  L-4.36562, 2.96937  L-4.36562, 2.5338  L-4.36562, 2.06637  L-4.36562, 1.57295  L-4.36562, 1.05976  L-4.36562, 0.533231  L-4.36562, 9.10771e-13 " /><path d="M-4.36562, 9.10827e-13 L-4.36562, -0.533231  L-4.36562, -1.05976  L-4.36562, -1.57295  L-4.36562, -2.06637  L-4.36562, -2.5338  L-4.36562, -2.96937  L-4.36562, -3.3676  L-4.36562, -3.72347  L-4.36562, -4.03252  L-4.36562, -4.29086  L-4.36562, -4.49524  L-4.36562, -4.64309  L-4.36562, -4.73255  L-4.36562, -4.7625 " /><path d="M-3.22669, 4.7625 L-3.3922, 4.34764  L-3.54295, 3.95003  L-3.67954, 3.56807  L-3.8025, 3.20026  L-3.91233, 2.84514  L-4.00946, 2.50129  L-4.09428, 2.16737  L-4.16712, 1.84203  L-4.22827, 1.524  L-4.27798, 1.21201  L-4.31644, 0.90483  L-4.3438, 0.601234  L-4.36017, 0.300022  L-4.36562, 9.09967e-13 " /><path d="M-4.36562, 4.7625 L-4.36017, 4.7625  L-4.3438, 4.7625  L-4.31644, 4.7625  L-4.27798, 4.7625  L-4.22827, 4.7625  L-4.16712, 4.7625  L-4.09428, 4.7625  L-4.00946, 4.7625  L-3.91233, 4.7625  L-3.8025, 4.7625  L-3.67954, 4.7625  L-3.54295, 4.7625  L-3.3922, 4.7625  L-3.22669, 4.7625 " /><path d="M-4.36562, -4.7625 L-4.36017, -4.7625  L-4.3438, -4.7625  L-4.31644, -4.7625  L-4.27798, -4.7625  L-4.22827, -4.7625  L-4.16712, -4.7625  L-4.09428, -4.7625  L-4.00946, -4.7625  L-3.91233, -4.7625  L-3.8025, -4.7625  L-3.67954, -4.7625  L-3.54295, -4.7625  L-3.3922, -4.7625  L-3.22669, -4.7625 " /><path d="M-4.36562, 9.09994e-13 L-4.36017, -0.300022  L-4.3438, -0.601234  L-4.31644, -0.90483  L-4.27798, -1.21201  L-4.22827, -1.524  L-4.16712, -1.84203  L-4.09428, -2.16737  L-4.00946, -2.50129  L-3.91233, -2.84514  L-3.8025, -3.20026  L-3.67954, -3.56807  L-3.54295, -3.95003  L-3.3922, -4.34764  L-3.22669, -4.7625 " /><path id= "7" d=" M 0 4.7625 L -3.22669 4.7625 " />
<path id= "8" d=" M 0 4.7625 L 0 -4.7625 " />
<path id= "9" d=" M 0 -4.7625 L -3.22669 -4.7625 " />
<path d="M-1.66533e-16, 3.683 L-1.66533e-16, 3.59066  L-1.66533e-16, 3.31827  L-1.66533e-16, 2.87949  L-1.66533e-16, 2.29631  L-1.66533e-16, 1.59799  L-1.66533e-16, 0.819545  L-1.66533e-16, 2.22045e-16  L-1.66533e-16, -0.819545  L-1.66533e-16, -1.59799  L-1.66533e-16, -2.29631  L-1.66533e-16, -2.87949  L-1.66533e-16, -3.31827  L-1.66533e-16, -3.59066  L-1.66533e-16, -3.683 " /><path d="M-1.66533e-16, -3.683 L-1.66533e-16, -3.59066  L-1.66533e-16, -3.31827  L-1.66533e-16, -2.87949  L-1.66533e-16, -2.29631  L-1.66533e-16, -1.59799  L-1.66533e-16, -0.819545  L-1.66533e-16, -6.66134e-16  L-1.66533e-16, 0.819545  L-1.66533e-16, 1.59799  L-1.66533e-16, 2.29631  L-1.66533e-16, 2.87949  L-1.66533e-16, 3.31827  L-1.66533e-16, 3.59066  L-1.66533e-16, 3.683 " /><path d="M6.55638, 3.175 C6.52258, 3.17606 6.50077, 3.00011 6.48922, 2.67557  C6.47909, 2.39455 6.47664, 2.00324 6.47896, 1.54976  C6.48417, 0.417592 6.52133, -1.08497 6.51625, -2.05434 " /><path d="M6.51625, -2.05434 C6.51563, -2.2448 6.52118, -2.41547 6.54371, -2.54181  C6.55605, -2.6086 6.57569, -2.66605 6.60797, -2.66813  C6.65145, -2.66812 6.69505, -2.57928 6.72865, -2.48483  C6.77019, -2.36397 6.80523, -2.22043 6.83377, -2.0542 " /><path d="M6.83377, -2.0542 C6.97342, -1.26079 7.13111, -0.119771 7.2699, 0.893969  C7.36654, 1.59755 7.45433, 2.23094 7.52553, 2.64263  C7.57372, 2.92202 7.61442, 3.10066 7.64667, 3.15582 " /><path d="M7.21358, -3.15588 C7.25851, -3.08025 7.30344, -2.76086 7.34838, -2.26452  C7.41444, -1.54031 7.48051, -0.432993 7.54657, 0.588593  C7.58251, 1.14369 7.61846, 1.66925 7.6544, 2.09337  C7.71173, 2.77475 7.76907, 3.1796 7.82638, 3.175 " /><path d="M6.9533, 2.48763 L6.55638, 3.175 " /><path d="M7.11204, 2.39599 C7.04778, 2.39541 6.98492, 2.4317 6.9533, 2.48763 " /><path d="M8.48358, -3.15588 C8.52885, -3.07971 8.57412, -2.75595 8.61939, -2.25328  C8.68473, -1.53333 8.75006, -0.440969 8.81539, 0.570319  C8.85181, 1.13337 8.88822, 1.66695 8.92464, 2.09622  C8.98189, 2.77592 9.03915, 3.17957 9.09638, 3.175 " /><path d="M8.30258, -3.175 C8.351, -3.17738 8.3994, -2.89287 8.44782, -2.3899  C8.49257, -1.9282 8.53731, -1.28497 8.58205, -0.593724  C8.63953, 0.294082 8.69702, 1.25032 8.75451, 1.95935  C8.80813, 2.62529 8.86174, 3.06692 8.91537, 3.15586 " /><path d="M9.75358, -3.15588 C9.79868, -3.07997 9.84379, -2.75838 9.88889, -2.25884  C9.95494, -1.53288 10.021, -0.424991 10.087, 0.595915  C10.123, 1.1514 10.159, 1.67691 10.195, 2.10041  C10.2521, 2.77764 10.3093, 3.17954 10.3664, 3.175 " /><path d="M9.57258, -3.175 C9.61612, -3.17658 9.65966, -2.94813 9.70321, -2.53471  C9.77029, -1.90459 9.83738, -0.828456 9.90445, 0.225528  C9.94432, 0.850582 9.98419, 1.46058 10.0241, 1.95377  C10.0778, 2.62277 10.1316, 3.0667 10.1854, 3.15586 " /><path d="M11.0236, -3.15588 C11.0685, -3.08031 11.1134, -2.76148 11.1582, -2.26594  C11.2242, -1.54382 11.2901, -0.440116 11.356, 0.579726  C11.3922, 1.13892 11.4284, 1.66856 11.4646, 2.09527  C11.5218, 2.77553 11.5791, 3.17958 11.6364, 3.175 " /><path d="M10.8426, -3.175 C10.891, -3.17738 10.9394, -2.89292 10.9878, -2.39004  C11.0505, -1.74457 11.1133, -0.734679 11.176, 0.249568  C11.2153, 0.865634 11.2546, 1.46572 11.2939, 1.95234  C11.3478, 2.62212 11.4016, 3.06664 11.4554, 3.15586 " /><path d="M12.2936, -3.15588 C12.3388, -3.07973 12.3841, -2.75618 12.4293, -2.25381  C12.4948, -1.53216 12.5604, -0.435986 12.6259, 0.577537  C12.6622, 1.13932 12.6986, 1.67139 12.7349, 2.09937  C12.7921, 2.77721 12.8492, 3.17954 12.9064, 3.175 " /><path d="M12.1126, -3.175 C12.1611, -3.17741 12.2097, -2.89122 12.2582, -2.38564  C12.3204, -1.7442 12.3826, -0.74559 12.4448, 0.230464  C12.4844, 0.851407 12.524, 1.45723 12.5636, 1.94811  C12.6175, 2.62021 12.6714, 3.06648 12.7254, 3.15586 " /><path d="M13.5636, -3.15588 C13.6088, -3.07984 13.6539, -2.75719 13.6991, -2.25612  C13.7645, -1.53647 13.8299, -0.443224 13.8953, 0.569057  C13.932, 1.13604 13.9686, 1.67318 14.0053, 2.10412  C14.0623, 2.77916 14.1194, 3.1795 14.1764, 3.175 " /><path d="M13.3826, -3.175 C13.4305, -3.17729 13.4784, -2.89917 13.5262, -2.40626  C13.5891, -1.76539 13.652, -0.755971 13.7148, 0.230724  C13.7544, 0.852225 13.7941, 1.45856 13.8337, 1.94965  C13.8876, 2.62091 13.9415, 3.06654 13.9954, 3.15586 " /><path d="M14.8336, -3.15588 C14.8789, -3.07968 14.9241, -2.75573 14.9694, -2.25278  C15.035, -1.53005 15.1006, -0.432166 15.1661, 0.58213  C15.2024, 1.14227 15.2387, 1.67264 15.2749, 2.09947  C15.3321, 2.77725 15.3892, 3.17954 15.4464, 3.175 " /><path d="M14.6526, -3.175 C14.7011, -3.17741 14.7497, -2.89125 14.7982, -2.38574  C14.8604, -1.74467 14.9225, -0.746829 14.9847, 0.228732  C15.0244, 0.851371 15.0641, 1.4589 15.1038, 1.9507  C15.1577, 2.62138 15.2115, 3.06658 15.2654, 3.15586 " /><path d="M16.1036, -3.15587 C16.1487, -3.07997 16.1938, -2.75842 16.2389, -2.25896  C16.3047, -1.5354 16.3706, -0.432475 16.4364, 0.585702  C16.4723, 1.14041 16.5082, 1.66577 16.5441, 2.09004  C16.6015, 2.77339 16.659, 3.17963 16.7164, 3.175 " /><path d="M15.9226, -3.175 C15.9705, -3.17729 16.0184, -2.89924 16.0662, -2.40645  C16.129, -1.76696 16.1917, -0.760464 16.2544, 0.224328  C16.2941, 0.84745 16.3339, 1.4557 16.3736, 1.94821  C16.4276, 2.62026 16.4815, 3.06648 16.5354, 3.15586 " /><path d="M17.3736, -3.15587 C17.4188, -3.07983 17.464, -2.75712 17.5091, -2.25596  C17.5744, -1.53728 17.6397, -0.446122 17.705, 0.564952  C17.7415, 1.12831 17.7779, 1.66246 17.8143, 2.09242  C17.8717, 2.77436 17.929, 3.1796 17.9864, 3.175 " /><path d="M17.1926, -3.175 C17.2414, -3.17746 17.2902, -2.8881 17.339, -2.37759  C17.4012, -1.73307 17.4634, -0.732373 17.5256, 0.243732  C17.5653, 0.864861 17.6049, 1.47006 17.6445, 1.95949  C17.6982, 2.62537 17.7518, 3.06693 17.8054, 3.15586 " /><path d="M18.6436, -3.15587 C18.6885, -3.08032 18.7333, -2.76163 18.7782, -2.2663  C18.8441, -1.54485 18.9099, -0.442334 18.9758, 0.576898  C19.0123, 1.14088 19.0488, 1.67493 19.0853, 2.10384  C19.1423, 2.77904 19.1994, 3.17951 19.2564, 3.175 " /><path d="M18.4626, -3.175 C18.5062, -3.17658 18.5497, -2.948 18.5933, -2.53436  C18.6607, -1.90039 18.7282, -0.814911 18.7957, 0.244905  C18.835, 0.859852 18.8742, 1.45916 18.9134, 1.94583  C18.9674, 2.61918 19.0214, 3.06639 19.0754, 3.15586 " /><path d="M19.9136, -3.15587 C19.9585, -3.08025 20.0034, -2.76103 20.0483, -2.26492  C20.1142, -1.54305 20.1801, -0.440403 20.2459, 0.57866  C20.2821, 1.1374 20.3182, 1.6667 20.3544, 2.09335  C20.4117, 2.77474 20.4691, 3.1796 20.5264, 3.175 " /><path d="M19.7326, -3.175 C19.7761, -3.17657 19.8196, -2.94841 19.8632, -2.53546  C19.9306, -1.90192 19.9981, -0.816617 20.0656, 0.243319  C20.1052, 0.864281 20.1449, 1.46934 20.1845, 1.95875  C20.2381, 2.62504 20.2918, 3.06691 20.3454, 3.15586 " /><path d="M21.1836, -3.15587 C21.2288, -3.07973 21.2741, -2.75619 21.3193, -2.25385  C21.3852, -1.52778 21.4512, -0.422388 21.5171, 0.596266  C21.553, 1.15174 21.589, 1.67722 21.625, 2.10068  C21.6821, 2.77775 21.7393, 3.17953 21.7964, 3.175 " /><path d="M21.0026, -3.175 C21.0461, -3.17657 21.0896, -2.9484 21.1332, -2.53541  C21.2005, -1.90326 21.2678, -0.821454 21.3352, 0.236269  C21.3749, 0.859427 21.4147, 1.46698 21.4544, 1.95813  C21.5081, 2.62476 21.5617, 3.06688 21.6154, 3.15586 " /><path d="M22.4536, -3.15587 C22.4987, -3.07988 22.5439, -2.75758 22.589, -2.25703  C22.6547, -1.53522 22.7203, -0.436991 22.7859, 0.578229  C22.822, 1.13665 22.8582, 1.6657 22.8943, 2.09226  C22.9517, 2.7743 23.009, 3.17961 23.0664, 3.175 " /><path d="M22.2726, -3.175 C22.3161, -3.17657 22.3597, -2.94829 22.4032, -2.53514  C22.4703, -1.90467 22.5375, -0.827309 22.6046, 0.227545  C22.6444, 0.851966 22.6843, 1.46124 22.7241, 1.95394  C22.7779, 2.62286 22.8316, 3.06672 22.8854, 3.15586 " /><path d="M23.7236, -3.15587 C23.7685, -3.08028 23.8134, -2.76129 23.8583, -2.26553  C23.9243, -1.54227 23.9903, -0.43638 24.0563, 0.584592  C24.0926, 1.14566 24.1289, 1.67671 24.1653, 2.10364  C24.2223, 2.77896 24.2793, 3.17951 24.3364, 3.175 " /><path d="M23.5426, -3.175 C23.591, -3.17738 23.6395, -2.89284 23.6879, -2.38983  C23.7504, -1.74643 23.8129, -0.741176 23.8754, 0.239982  C23.9152, 0.862966 23.9549, 1.47013 23.9947, 1.96078  C24.0482, 2.62596 24.1018, 3.06699 24.1554, 3.15586 " /><path d="M25.1816, 2.73646 C25.1512, 2.68605 25.1212, 2.39183 25.0915, 1.92423  C25.0556, 1.36087 25.0202, 0.547666 24.9853, -0.25806  C24.9486, -1.10691 24.9124, -1.93142 24.8767, -2.464  C24.8492, -2.87769 24.8221, -3.1194 24.7952, -3.14481 " /><path d="M25.4, 2.54 Q25.4, 2.51405 25.4, 2.48811  Q25.4, 2.41133 25.4, 2.33455  Q25.4, 2.21007 25.4, 2.08559  Q25.4, 1.91851 25.4, 1.75142  Q25.4, 1.54855 25.4, 1.34568  Q25.4, 1.11532 25.4, 0.884961  Q25.4, 0.636519 25.4, 0.388077  Q25.4, -0.126093 25.4, -0.632312  Q25.4, -0.873217 25.4, -1.11412  Q25.4, -1.33226 25.4, -1.55041  Q25.4, -1.73688 25.4, -1.92334  Q25.4, -2.07051 25.4, -2.21769  Q25.4, -2.31955 25.4, -2.42141 " /><path d="M25.3167, -2.60021 Q25.3579, -2.52928 25.4, -2.42141 " /><path d="M25.4, -2.42141 Q25.4, -2.45364 25.4, -2.45697 " /><path d="M25.4, -2.45697 L25.4, -2.45789 " /></g>
<g   fill="none"
   stroke="rgb(165, 165, 165)"
   stroke-dasharray="1.2,0.8"
   stroke-linecap="butt"
   stroke-linejoin="miter"
   stroke-width="0.25"
   transform="scale(1, -1)"
  >
<path d="M7.39556e-17, -3.68297 L0, -3.683 " /></g>
<g   fill="none"
   stroke="rgb(0, 0, 0)"
   stroke-linecap="butt"
   stroke-linejoin="miter"
   stroke-width="0.35"
   transform="scale(1, -1)"
  >
<path d="M0.508, -3.175 C0.478669, -3.17501 0.449555, -3.17753 0.42066, -3.18256  C0.183587, -3.21921 -0.00464691, -3.44313 8.32667e-17, -3.68297 " /><path id= "2" d=" M 0.508 -3.175 L 7.19138 -3.175 " />
<path d="M7.24664, 2.46686 Q7.23911, 2.45144 7.21073, 2.4282  Q7.16886, 2.39711 7.11205, 2.39599 " /><path d="M7.64667, 3.15582 L7.24664, 2.46686 " /><path id= "5" d=" M 8.30258 -3.175 L 8.46138 -3.175 " />
<path d="M6.98155, 2.46337 L6.57858, 3.15588 " /><path d="M7.61655, -2.46336 L7.21358, -3.15588 " /><path d="M7.87753, -2.46337 Q7.87132, -2.44991 7.84257, -2.42656  Q7.80206, -2.39708 7.74701, -2.39598  Q7.68784, -2.39747 7.64644, -2.4304  Q7.62201, -2.45174 7.61655, -2.46336 " /><path d="M8.51253, 2.46337 Q8.50632, 2.44991 8.47757, 2.42656  Q8.43707, 2.39709 8.38203, 2.39599 " /><path d="M7.11204, 2.39599 Q7.05287, 2.39747 7.01145, 2.43039  Q6.98701, 2.45174 6.98155, 2.46337 " /><path d="M8.28038, -3.15587 L7.87753, -2.46337 " /><path d="M8.91537, 3.15586 L8.51253, 2.46337 " /><path id= "13" d=" M 9.57258 -3.175 L 9.73138 -3.175 " />
<path d="M8.25155, 2.46337 L7.84858, 3.15588 " /><path d="M8.88655, -2.46336 L8.48358, -3.15588 " /><path d="M9.14753, -2.46336 Q9.14132, -2.4499 9.11257, -2.42655  Q9.07206, -2.39708 9.01701, -2.39598  Q8.95784, -2.39747 8.91643, -2.43039  Q8.892, -2.45174 8.88655, -2.46336 " /><path d="M9.78253, 2.46337 Q9.77631, 2.44991 9.74757, 2.42656  Q9.70706, 2.39709 9.65203, 2.39598 " /><path d="M8.38203, 2.39599 Q8.32286, 2.39746 8.28145, 2.43039  Q8.257, 2.45174 8.25155, 2.46337 " /><path d="M9.55038, -3.15587 L9.14753, -2.46336 " /><path d="M10.1854, 3.15586 L9.78253, 2.46337 " /><path id= "21" d=" M 10.8426 -3.175 L 11.0014 -3.175 " />
<path d="M9.52154, 2.46336 L9.11858, 3.15587 " /><path d="M10.1565, -2.46335 L9.75358, -3.15588 " /><path d="M10.4175, -2.46336 Q10.4113, -2.4499 10.3826, -2.42655  Q10.3421, -2.39707 10.287, -2.39598  Q10.2278, -2.39746 10.1864, -2.43039  Q10.162, -2.45174 10.1565, -2.46335 " /><path d="M11.0525, 2.46336 Q11.0463, 2.4499 11.0176, 2.42655  Q10.9771, 2.39708 10.922, 2.39598 " /><path d="M9.65203, 2.39598 Q9.59286, 2.39746 9.55145, 2.43038  Q9.527, 2.45174 9.52154, 2.46336 " /><path d="M10.8204, -3.15587 L10.4175, -2.46336 " /><path d="M11.4554, 3.15586 L11.0525, 2.46336 " /><path id= "29" d=" M 12.1126 -3.175 L 12.2714 -3.175 " />
<path d="M10.7915, 2.46336 L10.3886, 3.15587 " /><path d="M11.4265, -2.46335 L11.0236, -3.15588 " /><path d="M11.6875, -2.46336 Q11.6813, -2.4499 11.6526, -2.42654  Q11.612, -2.39707 11.557, -2.39597  Q11.4978, -2.39746 11.4564, -2.43039  Q11.432, -2.45173 11.4265, -2.46335 " /><path d="M12.3225, 2.46336 Q12.3163, 2.4499 12.2876, 2.42655  Q12.2471, 2.39708 12.192, 2.39598 " /><path d="M10.922, 2.39598 Q10.8629, 2.39746 10.8214, 2.43038  Q10.797, 2.45174 10.7915, 2.46336 " /><path d="M12.0904, -3.15587 L11.6875, -2.46336 " /><path d="M12.7254, 3.15586 L12.3225, 2.46336 " /><path id= "37" d=" M 13.3826 -3.175 L 13.5414 -3.175 " />
<path d="M12.0615, 2.46336 L11.6586, 3.15587 " /><path d="M12.6965, -2.46335 L12.2936, -3.15588 " /><path d="M12.9575, -2.46335 Q12.9513, -2.44989 12.9226, -2.42654  Q12.882, -2.39707 12.827, -2.39597  Q12.7678, -2.39746 12.7264, -2.43038  Q12.702, -2.45173 12.6965, -2.46335 " /><path d="M13.5925, 2.46336 Q13.5863, 2.4499 13.5576, 2.42654  Q13.5171, 2.39708 13.462, 2.39597 " /><path d="M12.192, 2.39598 Q12.1329, 2.39745 12.0914, 2.43038  Q12.067, 2.45173 12.0615, 2.46336 " /><path d="M13.3604, -3.15587 L12.9575, -2.46335 " /><path d="M13.9954, 3.15586 L13.5925, 2.46336 " /><path id= "45" d=" M 14.6526 -3.175 L 14.8114 -3.175 " />
<path d="M13.3315, 2.46335 L12.9286, 3.15587 " /><path d="M13.9665, -2.46334 L13.5636, -3.15588 " /><path d="M14.2275, -2.46335 Q14.2213, -2.44989 14.1926, -2.42654  Q14.152, -2.39706 14.097, -2.39597  Q14.0378, -2.39745 13.9964, -2.43038  Q13.972, -2.45173 13.9665, -2.46334 " /><path d="M14.8625, 2.46335 Q14.8563, 2.44989 14.8276, 2.42654  Q14.787, 2.39707 14.732, 2.39597 " /><path d="M13.462, 2.39597 Q13.4029, 2.39745 13.3614, 2.43037  Q13.337, 2.45173 13.3315, 2.46335 " /><path d="M14.6304, -3.15587 L14.2275, -2.46335 " /><path d="M15.2654, 3.15586 L14.8625, 2.46335 " /><path id= "53" d=" M 15.9226 -3.175 L 16.0814 -3.175 " />
<path d="M14.6015, 2.46335 L14.1986, 3.15587 " /><path d="M15.2365, -2.46334 L14.8336, -3.15588 " /><path d="M15.4975, -2.46334 Q15.4913, -2.44988 15.4626, -2.42653  Q15.422, -2.39706 15.367, -2.39596  Q15.3078, -2.39745 15.2664, -2.43038  Q15.242, -2.45173 15.2365, -2.46334 " /><path d="M16.1325, 2.46335 Q16.1263, 2.44989 16.0976, 2.42654  Q16.057, 2.39707 16.002, 2.39597 " /><path d="M14.732, 2.39597 Q14.6728, 2.39745 14.6314, 2.43037  Q14.607, 2.45173 14.6015, 2.46335 " /><path d="M15.9004, -3.15587 L15.4975, -2.46334 " /><path d="M16.5354, 3.15586 L16.1325, 2.46335 " /><path id= "61" d=" M 17.1926 -3.175 L 17.3514 -3.175 " />
<path d="M15.8715, 2.46335 L15.4686, 3.15587 " /><path d="M16.5065, -2.46334 L16.1036, -3.15587 " /><path d="M16.7675, -2.46334 Q16.7613, -2.44988 16.7326, -2.42653  Q16.692, -2.39705 16.637, -2.39596  Q16.5778, -2.39745 16.5364, -2.43037  Q16.512, -2.45172 16.5065, -2.46334 " /><path d="M17.4025, 2.46335 Q17.3963, 2.44988 17.3675, 2.42653  Q17.327, 2.39707 17.272, 2.39596 " /><path d="M16.002, 2.39597 Q15.9428, 2.39744 15.9014, 2.43037  Q15.877, 2.45172 15.8715, 2.46335 " /><path d="M17.1704, -3.15587 L16.7675, -2.46334 " /><path d="M17.8054, 3.15586 L17.4025, 2.46335 " /><path id= "69" d=" M 18.4626 -3.175 L 18.6214 -3.175 " />
<path d="M17.1415, 2.46334 L16.7386, 3.15587 " /><path d="M17.7765, -2.46333 L17.3736, -3.15587 " /><path d="M18.0375, -2.46334 Q18.0313, -2.44988 18.0025, -2.42653  Q17.962, -2.39705 17.907, -2.39596  Q17.8478, -2.39744 17.8064, -2.43037  Q17.782, -2.45172 17.7765, -2.46333 " /><path d="M18.6725, 2.46334 Q18.6663, 2.44988 18.6375, 2.42653  Q18.597, 2.39706 18.542, 2.39596 " /><path d="M17.272, 2.39596 Q17.2128, 2.39744 17.1714, 2.43036  Q17.147, 2.45172 17.1415, 2.46334 " /><path d="M18.4404, -3.15587 L18.0375, -2.46334 " /><path d="M19.0754, 3.15586 L18.6725, 2.46334 " /><path id= "77" d=" M 19.7326 -3.175 L 19.8914 -3.175 " />
<path d="M18.4115, 2.46334 L18.0086, 3.15587 " /><path d="M19.0465, -2.46333 L18.6436, -3.15587 " /><path d="M19.3075, -2.46333 Q19.3013, -2.44987 19.2725, -2.42652  Q19.232, -2.39705 19.177, -2.39595  Q19.1178, -2.39744 19.0764, -2.43037  Q19.052, -2.45172 19.0465, -2.46333 " /><path d="M19.9425, 2.46334 Q19.9363, 2.44987 19.9075, 2.42652  Q19.867, 2.39706 19.812, 2.39596 " /><path d="M18.542, 2.39596 Q18.4828, 2.39744 18.4414, 2.43036  Q18.417, 2.45172 18.4115, 2.46334 " /><path d="M19.7104, -3.15587 L19.3075, -2.46333 " /><path d="M20.3454, 3.15586 L19.9425, 2.46334 " /><path id= "85" d=" M 21.0026 -3.175 L 21.1614 -3.175 " />
<path d="M19.6815, 2.46334 L19.2786, 3.15587 " /><path d="M20.3165, -2.46333 L19.9136, -3.15587 " /><path d="M20.5775, -2.46333 Q20.5713, -2.44987 20.5425, -2.42652  Q20.502, -2.39704 20.447, -2.39595  Q20.3878, -2.39744 20.3464, -2.43036  Q20.322, -2.45171 20.3165, -2.46333 " /><path d="M21.2125, 2.46333 Q21.2063, 2.44987 21.1775, 2.42652  Q21.137, 2.39706 21.082, 2.39595 " /><path d="M19.812, 2.39596 Q19.7528, 2.39743 19.7114, 2.43036  Q19.687, 2.45171 19.6815, 2.46334 " /><path d="M20.9804, -3.15587 L20.5775, -2.46333 " /><path d="M21.6154, 3.15586 L21.2125, 2.46333 " /><path id= "93" d=" M 22.2726 -3.175 L 22.4314 -3.175 " />
<path d="M20.9515, 2.46333 L20.5486, 3.15587 " /><path d="M21.5865, -2.46332 L21.1836, -3.15587 " /><path d="M21.8475, -2.46333 Q21.8413, -2.44986 21.8125, -2.42651  Q21.772, -2.39704 21.717, -2.39595  Q21.6578, -2.39743 21.6164, -2.43036  Q21.592, -2.45171 21.5865, -2.46332 " /><path d="M22.4825, 2.46333 Q22.4763, 2.44987 22.4475, 2.42652  Q22.407, 2.39705 22.352, 2.39595 " /><path d="M21.082, 2.39595 Q21.0228, 2.39743 20.9814, 2.43035  Q20.957, 2.45171 20.9515, 2.46333 " /><path d="M22.2504, -3.15587 L21.8475, -2.46333 " /><path d="M22.8854, 3.15586 L22.4825, 2.46333 " /><path id= "101" d=" M 23.5426 -3.175 L 23.7014 -3.175 " />
<path d="M22.2215, 2.46333 L21.8186, 3.15587 " /><path d="M22.8565, -2.46332 L22.4536, -3.15587 " /><path d="M23.1175, -2.46332 Q23.1113, -2.44986 23.0825, -2.42651  Q23.042, -2.39704 22.987, -2.39594  Q22.9278, -2.39743 22.8864, -2.43036  Q22.862, -2.45171 22.8565, -2.46332 " /><path d="M23.7525, 2.46333 Q23.7463, 2.44986 23.7175, 2.42651  Q23.677, 2.39705 23.622, 2.39594 " /><path d="M22.352, 2.39595 Q22.2928, 2.39743 22.2514, 2.43035  Q22.227, 2.45171 22.2215, 2.46333 " /><path d="M23.5204, -3.15587 L23.1175, -2.46332 " /><path d="M24.1554, 3.15586 L23.7525, 2.46333 " /><path d="M23.4915, 2.46333 L23.0886, 3.15587 " /><path d="M24.1265, -2.46332 L23.7236, -3.15587 " /><path d="M24.3875, -2.46332 Q24.3813, -2.44986 24.3525, -2.42651  Q24.312, -2.39703 24.257, -2.39594  Q24.1978, -2.39743 24.1564, -2.43036  Q24.132, -2.45171 24.1265, -2.46332 " /><path d="M25.0225, 2.46332 Q25.0163, 2.44986 24.9875, 2.42651  Q24.947, 2.39704 24.892, 2.39594 " /><path d="M23.622, 2.39594 Q23.5628, 2.39742 23.5214, 2.43035  Q23.497, 2.4517 23.4915, 2.46333 " /><path d="M24.3875, -2.46332 L24.781, -3.13973 " /><path d="M25.0225, 2.46332 L25.1816, 2.73646 " /><path id= "116" d=" M 25.2533 -2.68671 L 24.7952 -3.14481 " />
<path d="M24.7615, 2.46332 L24.3586, 3.15587 " /><path d="M25.3965, -2.46331 L25.3167, -2.60021 " /><path d="M24.892, 2.39594 Q24.8328, 2.39742 24.7914, 2.43034  Q24.767, 2.4517 24.7615, 2.46332 " /><path d="M25.3965, -2.46331 L25.4, -2.45789 " /></g>
<g   fill="none"
   stroke="rgb(0, 0, 0)"
   stroke-linecap="butt"
   stroke-linejoin="miter"
   stroke-width="0.35"
   transform="scale(1, -1)"
  >
<path d="M-4.36562, 8.54589e-09 L-4.36562, 0.533231  L-4.36562, 1.05976  L-4.36562, 1.57295  L-4.36562, 2.06637  L-4.36562, 2.5338  L-4.36562, 2.96937  L-4.36562, 3.3676  L-4.36562, 3.72347  L-4.36562, 4.03252  L-4.36562, 4.29086  L-4.36562, 4.49524  L-4.36562, 4.64309  L-4.36562, 4.73255  L-4.36562, 4.7625 " /><path d="M-4.36562, -4.7625 L-4.36562, -4.73255  L-4.36562, -4.64309  L-4.36562, -4.49524  L-4.36562, -4.29086  L-4.36562, -4.03252  L-4.36562, -3.72347  L-4.36562, -3.3676  L-4.36562, -2.96937  L-4.36562, -2.5338  L-4.36562, -2.06637  L-4.36562, -1.57295  L-4.36562, -1.05976  L-4.36562, -0.533231  L-4.36562, 8.54589e-09 " /><path d="M-3.22669, -4.7625 L-3.3922, -4.7625  L-3.54295, -4.7625  L-3.67954, -4.7625  L-3.8025, -4.7625  L-3.91233, -4.7625  L-4.00946, -4.7625  L-4.09428, -4.7625  L-4.16712, -4.7625  L-4.22827, -4.7625  L-4.27798, -4.7625  L-4.31644, -4.7625  L-4.3438, -4.7625  L-4.36017, -4.7625  L-4.36562, -4.7625 " /><path d="M-4.36562, 8.54589e-09 L-4.36017, -0.300022  L-4.3438, -0.601234  L-4.31644, -0.90483  L-4.27798, -1.21201  L-4.22827, -1.524  L-4.16712, -1.84203  L-4.09428, -2.16737  L-4.00946, -2.50129  L-3.91233, -2.84514  L-3.8025, -3.20026  L-3.67954, -3.56807  L-3.54295, -3.95003  L-3.3922, -4.34764  L-3.22669, -4.7625 " /><path d="M-3.22669, 4.7625 L-3.3922, 4.34764  L-3.54295, 3.95003  L-3.67954, 3.56807  L-3.8025, 3.20026  L-3.91233, 2.84514  L-4.00946, 2.50129  L-4.09428, 2.16737  L-4.16712, 1.84203  L-4.22827, 1.524  L-4.27798, 1.21201  L-4.31644, 0.90483  L-4.3438, 0.601234  L-4.36017, 0.300023  L-4.36562, 8.54589e-09 " /><path d="M-3.22669, 4.7625 L-3.3922, 4.7625  L-3.54295, 4.7625  L-3.67954, 4.7625  L-3.8025, 4.7625  L-3.91233, 4.7625  L-4.00946, 4.7625  L-4.09428, 4.7625  L-4.16712, 4.7625  L-4.22827, 4.7625  L-4.27798, 4.7625  L-4.31644, 4.7625  L-4.3438, 4.7625  L-4.36017, 4.7625  L-4.36562, 4.7625 " /><path id= "7" d=" M 0 4.7625 L -3.22669 4.7625 " />
<path id= "8" d=" M 0 -4.7625 L -3.22669 -4.7625 " />
<path id= "9" d=" M 0 4.7625 L 0 -4.7625 " />
<path d="M0 3.683 A0.508 0.508 0 0 1 0.508 3.175" /><path d="M7.64667, 3.15582 Q7.65778, 3.17499 7.66757, 3.175 " /><path id= "12" d=" M 7.66757 3.175 L 7.82638 3.175 " />
<path d="M6.55638, 3.175 Q6.56748, 3.17499 6.57858, 3.15588 " /><path d="M6.57858, 3.15588 C6.62662, 3.07542 6.67464, 2.71488 6.72268, 2.15973  C6.78035, 1.49758 6.83802, 0.55994 6.89569, -0.341933  C6.93991, -1.03305 6.98412, -1.69619 7.02833, -2.19679  C7.08268, -2.81672 7.13703, -3.17874 7.19138, -3.175 " /><path d="M7.19138, -3.175 Q7.20248, -3.17499 7.21358, -3.15588 " /><path id= "16" d=" M 0.508 3.175 L 6.55638 3.175 " />
<path d="M7.2708, 2.48766 C7.23917, 2.43171 7.17631, 2.39541 7.11205, 2.39599 " /><path d="M7.11205, 2.39599 L7.11204, 2.39599 " /><path d="M7.66757, 3.175 L7.2708, 2.48766 " /><path id= "20" d=" M 8.93758 3.175 L 9.09638 3.175 " />
<path d="M7.82638, 3.175 Q7.83748, 3.17499 7.84858, 3.15588 " /><path d="M7.84858, 3.15588 C7.89661, 3.07542 7.94464, 2.71488 7.99267, 2.15974  C8.05035, 1.4976 8.10802, 0.559992 8.16569, -0.341863  C8.21354, -1.09014 8.2614, -1.80471 8.30925, -2.31737  C8.35996, -2.8646 8.41067, -3.17786 8.46138, -3.175 " /><path d="M8.46138, -3.175 Q8.47248, -3.17499 8.48358, -3.15588 " /><path d="M7.66757, 3.175 C7.71242, 3.17678 7.75728, 2.93394 7.80213, 2.49713  C7.86866, 1.85581 7.9352, 0.78315 8.00173, -0.261311  C8.04461, -0.933069 8.08748, -1.58443 8.13036, -2.09065  C8.18036, -2.68424 8.23037, -3.07237 8.28038, -3.15587 " /><path d="M8.28038, -3.15587 Q8.29147, -3.17499 8.30258, -3.175 " /><path d="M8.91537, 3.15586 Q8.92647, 3.17499 8.93758, 3.175 " /><path id= "27" d=" M 10.2076 3.175 L 10.3664 3.175 " />
<path d="M9.09638, 3.175 Q9.10748, 3.17499 9.11858, 3.15587 " /><path d="M9.11858, 3.15587 C9.16661, 3.07542 9.21464, 2.71488 9.26267, 2.15974  C9.32034, 1.49763 9.37802, 0.560043 9.43568, -0.341793  C9.48078, -1.04678 9.52588, -1.72248 9.57098, -2.22658  C9.62445, -2.82865 9.67791, -3.17851 9.73138, -3.175 " /><path d="M9.73138, -3.175 Q9.74248, -3.17499 9.75358, -3.15588 " /><path d="M8.93758, 3.175 C8.98237, 3.17677 9.02716, 2.93459 9.07195, 2.49884  C9.13863, 1.85695 9.2053, 0.781528 9.27197, -0.265005  C9.31503, -0.939521 9.35808, -1.59317 9.40114, -2.09979  C9.45088, -2.6883 9.50064, -3.07276 9.55038, -3.15587 " /><path d="M9.55038, -3.15587 Q9.56148, -3.17499 9.57258, -3.175 " /><path d="M10.1854, 3.15586 Q10.1965, 3.17499 10.2076, 3.175 " /><path id= "34" d=" M 11.4776 3.175 L 11.6364 3.175 " />
<path d="M10.3664, 3.175 Q10.3775, 3.17499 10.3886, 3.15587 " /><path d="M10.3886, 3.15587 C10.4366, 3.07542 10.4846, 2.71488 10.5327, 2.15975  C10.5903, 1.49765 10.648, 0.560093 10.7057, -0.341727  C10.7499, -1.03269 10.7941, -1.69571 10.8383, -2.19631  C10.8927, -2.81653 10.947, -3.17874 11.0014, -3.175 " /><path d="M11.0014, -3.175 Q11.0125, -3.17499 11.0236, -3.15588 " /><path d="M10.2076, 3.175 C10.2523, 3.17676 10.297, 2.93535 10.3418, 2.50083  C10.4085, 1.85941 10.4752, 0.783556 10.5419, -0.263648  C10.5849, -0.937478 10.6279, -1.59059 10.6709, -2.09717  C10.7207, -2.68714 10.7706, -3.07265 10.8204, -3.15587 " /><path d="M10.8204, -3.15587 Q10.8315, -3.17499 10.8426, -3.175 " /><path d="M11.4554, 3.15586 Q11.4665, 3.17499 11.4776, 3.175 " /><path id= "41" d=" M 12.7476 3.175 L 12.9064 3.175 " />
<path d="M11.6364, 3.175 Q11.6475, 3.17499 11.6586, 3.15587 " /><path d="M11.6586, 3.15587 C11.7066, 3.07542 11.7546, 2.71489 11.8027, 2.15976  C11.8603, 1.49767 11.918, 0.560147 11.9757, -0.341655  C12.0205, -1.04265 12.0654, -1.71477 12.1102, -2.21792  C12.1639, -2.82519 12.2177, -3.17857 12.2714, -3.175 " /><path d="M12.2714, -3.175 Q12.2825, -3.17499 12.2936, -3.15588 " /><path d="M11.4776, 3.175 C11.5222, 3.17674 11.5669, 2.93618 11.6115, 2.50304  C11.6783, 1.86169 11.7451, 0.784238 11.8119, -0.26441  C11.855, -0.938643 11.898, -1.59207 11.941, -2.09868  C11.9908, -2.68781 12.0406, -3.07272 12.0904, -3.15587 " /><path d="M12.0904, -3.15587 Q12.1015, -3.17499 12.1126, -3.175 " /><path d="M12.7254, 3.15586 Q12.7365, 3.17499 12.7476, 3.175 " /><path id= "48" d=" M 14.0176 3.175 L 14.1764 3.175 " />
<path d="M12.9064, 3.175 Q12.9175, 3.17499 12.9286, 3.15587 " /><path d="M12.9286, 3.15587 C12.9766, 3.07541 13.0246, 2.71489 13.0727, 2.15976  C13.1303, 1.49769 13.188, 0.560181 13.2457, -0.341608  C13.2899, -1.03329 13.3342, -1.69698 13.3784, -2.19779  C13.4327, -2.81712 13.4871, -3.17873 13.5414, -3.175 " /><path d="M13.5414, -3.175 Q13.5525, -3.17499 13.5636, -3.15588 " /><path d="M12.7476, 3.175 C12.7921, 3.17673 12.8367, 2.93724 12.8812, 2.50584  C12.948, 1.86631 13.0147, 0.791041 13.0815, -0.256793  C13.1247, -0.934636 13.168, -1.59197 13.2112, -2.10077  C13.2609, -2.68875 13.3107, -3.07281 13.3604, -3.15587 " /><path d="M13.3604, -3.15587 Q13.3715, -3.17499 13.3826, -3.175 " /><path d="M13.9954, 3.15586 Q14.0065, 3.17499 14.0176, 3.175 " /><path id= "55" d=" M 15.2876 3.175 L 15.4464 3.175 " />
<path d="M14.1764, 3.175 Q14.1875, 3.17499 14.1986, 3.15587 " /><path d="M14.1986, 3.15587 C14.2466, 3.07541 14.2946, 2.71489 14.3427, 2.15977  C14.4008, 1.49289 14.4588, 0.546412 14.5169, -0.361343  C14.5607, -1.04567 14.6046, -1.70119 14.6484, -2.19716  C14.7027, -2.81687 14.757, -3.17873 14.8114, -3.175 " /><path d="M14.8114, -3.175 Q14.8225, -3.17499 14.8336, -3.15588 " /><path d="M14.0176, 3.175 C14.0621, 3.17672 14.1065, 2.93814 14.151, 2.50822  C14.2178, 1.86942 14.2845, 0.794016 14.3513, -0.254384  C14.3941, -0.924783 14.4369, -1.57537 14.4797, -2.08207  C14.5299, -2.68042 14.5802, -3.07201 14.6304, -3.15587 " /><path d="M14.6304, -3.15587 Q14.6415, -3.17499 14.6526, -3.175 " /><path d="M15.2654, 3.15586 Q15.2765, 3.17499 15.2876, 3.175 " /><path id= "62" d=" M 16.5576 3.175 L 16.7164 3.175 " />
<path d="M15.4464, 3.175 Q15.4575, 3.17499 15.4686, 3.15587 " /><path d="M15.4686, 3.15587 C15.5166, 3.07541 15.5646, 2.71489 15.6127, 2.15978  C15.6703, 1.49774 15.728, 0.560284 15.7857, -0.341469  C15.8307, -1.04517 15.8757, -1.71974 15.9207, -2.22359  C15.9743, -2.82746 16.0278, -3.17853 16.0814, -3.175 " /><path d="M16.0814, -3.175 Q16.0925, -3.17499 16.1036, -3.15587 " /><path d="M15.2876, 3.175 C15.3327, 3.17682 15.3778, 2.93097 15.423, 2.48929  C15.4889, 1.84983 15.5549, 0.787652 15.6209, -0.248628  C15.6642, -0.92626 15.7074, -1.58399 15.7507, -2.09385  C15.8006, -2.68567 15.8505, -3.07251 15.9004, -3.15587 " /><path d="M15.9004, -3.15587 Q15.9115, -3.17499 15.9226, -3.175 " /><path d="M16.5354, 3.15586 Q16.5465, 3.17499 16.5576, 3.175 " /><path id= "69" d=" M 17.8276 3.175 L 17.9864 3.175 " />
<path d="M16.7164, 3.175 Q16.7275, 3.17499 16.7386, 3.15587 " /><path d="M16.7386, 3.15587 C16.7866, 3.07541 16.8346, 2.7149 16.8827, 2.15979  C16.9403, 1.49779 16.998, 0.560396 17.0556, -0.341319  C17.1005, -1.04228 17.1453, -1.71442 17.1902, -2.21762  C17.2439, -2.82507 17.2976, -3.17857 17.3514, -3.175 " /><path d="M17.3514, -3.175 Q17.3625, -3.17499 17.3736, -3.15587 " /><path d="M16.5576, 3.175 C16.6026, 3.1768 16.6476, 2.93246 16.6926, 2.49322  C16.7589, 1.85235 16.8252, 0.783788 16.8915, -0.257312  C16.9348, -0.936144 16.9781, -1.59436 17.0215, -2.10341  C17.0711, -2.68992 17.1208, -3.07293 17.1704, -3.15587 " /><path d="M17.1704, -3.15587 Q17.1815, -3.17499 17.1926, -3.175 " /><path d="M17.8054, 3.15586 Q17.8165, 3.17499 17.8276, 3.175 " /><path id= "76" d=" M 19.0976 3.175 L 19.2564 3.175 " />
<path d="M17.9864, 3.175 Q17.9975, 3.17499 18.0086, 3.15587 " /><path d="M18.0086, 3.15587 C18.0566, 3.07541 18.1046, 2.7149 18.1527, 2.1598  C18.2103, 1.49781 18.268, 0.560444 18.3256, -0.341255  C18.3705, -1.04251 18.4154, -1.71488 18.4602, -2.21816  C18.5139, -2.82529 18.5677, -3.17857 18.6214, -3.175 " /><path d="M18.6214, -3.175 Q18.6325, -3.17499 18.6436, -3.15587 " /><path d="M17.8276, 3.175 C17.8725, 3.17678 17.9174, 2.93332 17.9623, 2.49549  C18.0287, 1.85511 18.0951, 0.785956 18.1614, -0.255962  C18.2046, -0.931879 18.2477, -1.58748 18.2908, -2.09578  C18.3407, -2.68653 18.3905, -3.0726 18.4404, -3.15587 " /><path d="M18.4404, -3.15587 Q18.4515, -3.17499 18.4626, -3.175 " /><path d="M19.0754, 3.15586 Q19.0865, 3.17499 19.0976, 3.175 " /><path id= "83" d=" M 20.3676 3.175 L 20.5264 3.175 " />
<path d="M19.2564, 3.175 Q19.2675, 3.17499 19.2786, 3.15587 " /><path d="M19.2786, 3.15587 C19.3266, 3.07541 19.3746, 2.7149 19.4227, 2.15981  C19.4803, 1.49784 19.538, 0.560509 19.5956, -0.341167  C19.6406, -1.04367 19.6855, -1.71719 19.7305, -2.22079  C19.7841, -2.82634 19.8377, -3.17855 19.8914, -3.175 " /><path d="M19.8914, -3.175 Q19.9025, -3.17499 19.9136, -3.15587 " /><path d="M19.0976, 3.175 C19.1423, 3.17675 19.1869, 2.93598 19.2316, 2.5025  C19.2984, 1.86102 19.3652, 0.783697 19.432, -0.264769  C19.475, -0.939176 19.5181, -1.59274 19.5611, -2.09936  C19.6109, -2.68812 19.6607, -3.07275 19.7104, -3.15587 " /><path d="M19.7104, -3.15587 Q19.7215, -3.17499 19.7326, -3.175 " /><path d="M20.3454, 3.15586 Q20.3565, 3.17499 20.3676, 3.175 " /><path id= "90" d=" M 21.6376 3.175 L 21.7964 3.175 " />
<path d="M20.5264, 3.175 Q20.5375, 3.17499 20.5486, 3.15587 " /><path d="M20.5486, 3.15587 C20.5966, 3.07541 20.6446, 2.7149 20.6927, 2.15981  C20.7503, 1.49785 20.808, 0.560539 20.8656, -0.341127  C20.9131, -1.08272 20.9605, -1.79138 21.0079, -2.30307  C21.0591, -2.85898 21.1102, -3.17795 21.1614, -3.175 " /><path d="M21.1614, -3.175 Q21.1725, -3.17499 21.1836, -3.15587 " /><path d="M20.3676, 3.175 C20.4121, 3.17672 20.4566, 2.93778 20.5011, 2.50726  C20.5681, 1.86627 20.635, 0.786296 20.702, -0.264782  C20.745, -0.939196 20.7881, -1.59277 20.8311, -2.09938  C20.8809, -2.68813 20.9307, -3.07276 20.9804, -3.15587 " /><path d="M20.9804, -3.15587 Q20.9915, -3.17499 21.0026, -3.175 " /><path d="M21.6154, 3.15586 Q21.6265, 3.17499 21.6376, 3.175 " /><path id= "97" d=" M 22.9076 3.175 L 23.0664 3.175 " />
<path d="M21.7964, 3.175 Q21.8075, 3.17499 21.8186, 3.15587 " /><path d="M21.8186, 3.15587 C21.8666, 3.07541 21.9146, 2.7149 21.9627, 2.15981  C22.0203, 1.49786 22.078, 0.560545 22.1356, -0.341118  C22.1805, -1.04251 22.2254, -1.71501 22.2702, -2.21835  C22.324, -2.82536 22.3777, -3.17857 22.4314, -3.175 " /><path d="M22.4314, -3.175 Q22.4425, -3.17499 22.4536, -3.15587 " /><path d="M21.6376, 3.175 C21.6825, 3.17678 21.7274, 2.93331 21.7723, 2.49545  C21.8387, 1.85494 21.9051, 0.785516 21.9715, -0.256568  C22.0147, -0.93394 22.0579, -1.59085 22.1012, -2.09954  C22.1509, -2.6882 22.2007, -3.07276 22.2504, -3.15587 " /><path d="M22.2504, -3.15587 Q22.2615, -3.17499 22.2726, -3.175 " /><path d="M22.8854, 3.15586 Q22.8965, 3.17499 22.9076, 3.175 " /><path id= "104" d=" M 24.1776 3.175 L 24.3364 3.175 " />
<path d="M23.0664, 3.175 Q23.0775, 3.17499 23.0886, 3.15587 " /><path d="M23.0886, 3.15587 C23.1366, 3.07541 23.1846, 2.71491 23.2327, 2.15983  C23.2903, 1.4979 23.348, 0.560646 23.4056, -0.340983  C23.4517, -1.06062 23.4977, -1.74962 23.5437, -2.25712  C23.5963, -2.84082 23.6488, -3.17828 23.7014, -3.175 " /><path d="M23.7014, -3.175 Q23.7125, -3.17499 23.7236, -3.15587 " /><path d="M22.9076, 3.175 C22.9527, 3.17681 22.9977, 2.93174 23.0428, 2.49133  C23.1088, 1.85271 23.1748, 0.791004 23.2408, -0.245366  C23.2842, -0.925645 23.3276, -1.58607 23.371, -2.09723  C23.4208, -2.68718 23.4706, -3.07267 23.5204, -3.15587 " /><path d="M23.5204, -3.15587 Q23.5315, -3.17499 23.5426, -3.175 " /><path d="M24.1554, 3.15586 Q24.1665, 3.17499 24.1776, 3.175 " /><path d="M24.765, -3.08729 Q24.765, -3.06408 24.765, -3.04087  Q24.765, -3.01288 24.765, -2.98489  Q24.765, -2.9522 24.765, -2.91952  Q24.765, -2.88224 24.765, -2.84495  Q24.765, -2.8032 24.765, -2.76144  Q24.765, -2.71534 24.765, -2.66924  Q24.765, -2.61894 24.765, -2.56864  Q24.765, -2.46213 24.765, -2.34353  Q24.765, -2.22169 24.765, -2.08895  Q24.765, -1.95332 24.765, -1.8081  Q24.765, -1.73351 24.765, -1.65892 " /><path d="M24.3364, 3.175 Q24.3475, 3.17499 24.3586, 3.15587 " /><path d="M24.3586, 3.15587 C24.4066, 3.07541 24.4546, 2.71491 24.5027, 2.15984  C24.5374, 1.76067 24.5721, 1.26406 24.6068, 0.733471  C24.6595, -0.0730096 24.7123, -0.95321 24.765, -1.65892 " /><path d="M24.1776, 3.175 C24.2222, 3.17674 24.2668, 2.93655 24.3115, 2.50402  C24.3779, 1.86637 24.4444, 0.797172 24.5108, -0.246467  C24.5542, -0.926406 24.5976, -1.58644 24.641, -2.09733  C24.6823, -2.58598 24.7237, -2.93687 24.765, -3.08729 " /><path d="M25.1978, 2.74223 Q25.1897, 2.75034 25.1816, 2.73646 " /><path d="M24.7952, -3.14481 Q24.7881, -3.15189 24.781, -3.13973 " /><path d="M24.781, -3.13973 Q24.773, -3.12585 24.765, -3.08729 " /><path id= "118" d=" M 25.1978 2.74223 L 25.4 2.54 " />
<path d="M24.765, -1.65892 C24.8684, -2.19162 24.9756, -2.56285 25.0875, -2.68278  C25.1416, -2.74186 25.1969, -2.74317 25.2533, -2.68671 " /><path d="M25.2533, -2.68671 Q25.2848, -2.65519 25.3167, -2.60021 " /><path d="M25.4, -2.45789 C25.4, -2.46043 25.4, -2.44037 25.4, -2.3977  C25.4, -2.3221 25.4, -2.16908 25.4, -1.93862  C25.4, -1.71078 25.4, -1.41022 25.4, -1.07925  C25.4, -0.852888 25.4, -0.608286 25.4, -0.38914 " /><path d="M25.1978, 2.74223 C25.2312, 2.71187 25.265, 2.38455 25.2994, 1.85275  C25.3324, 1.34569 25.366, 0.656635 25.4, -0.0187505 " /><path d="M25.4, -0.0187505 Q25.4, -0.20741 25.4, -0.38914 " /><path d="M25.4, -0.0187505 Q25.4, 0.124165 25.4, 0.267081  Q25.4, 0.551479 25.4, 0.824989  Q25.4, 0.957486 25.4, 1.08998  Q25.4, 1.21556 25.4, 1.34114  Q25.4, 1.45821 25.4, 1.57527  Q25.4, 1.68234 25.4, 1.78941  Q25.4, 1.88512 25.4, 1.98083  Q25.4, 2.06397 25.4, 2.14711  Q25.4, 2.21662 25.4, 2.28613  Q25.4, 2.34113 25.4, 2.39613  Q25.4, 2.43593 25.4, 2.47572  Q25.4, 2.4998 25.4, 2.52388  Q25.4, 2.53194 25.4, 2.54 " /></g>

</svg>
