<svg xmlns="http://www.w3.org/2000/svg" viewBox="-5.5245 -5.5245 11.049 11.049">
<rect width="100%" height="100%" fill="white"/>
<g   fill="none"
   stroke="rgb(0, 0, 0)"
   stroke-linecap="butt"
   stroke-linejoin="miter"
   stroke-width="0.35"
   transform="scale(1, -1)"
  >
<path d="M4.7625 0 A4.7625 4.7625 0 0 1 9.10788e-13 4.7625" /><path d="M8.54589e-09 -4.7625 A4.7625 4.7625 0 0 1 4.7625 -1.16648e-15" /><path d="M-4.7625 -1.32677e-08 A4.7625 4.7625 0 0 1 8.54589e-09 -4.7625" /><path d="M9.10788e-13 4.7625 A4.7625 4.7625 0 0 1 -4.7625 -1.32677e-08" /><path d="M4.7625, 4.7625 C4.62421, 4.7625 4.48593, 4.7625 4.34764, 4.7625  C4.21511, 4.7625 4.08257, 4.7625 3.95003, 4.7625  C3.82271, 4.7625 3.69539, 4.7625 3.56807, 4.7625  C3.44547, 4.7625 3.32286, 4.7625 3.20026, 4.7625  C3.08188, 4.7625 2.96351, 4.7625 2.84514, 4.7625  C2.73052, 4.7625 2.61591, 4.7625 2.50129, 4.7625  C2.38998, 4.7625 2.27867, 4.7625 2.16737, 4.7625  C1.40029, 4.7625 0.699421, 4.7625 9.09939e-13, 4.7625 " /><path d="M4.7625, 0 C4.7625, 0.699421 4.7625, 1.40029 4.7625, 2.16737  C4.7625, 2.27867 4.7625, 2.38998 4.7625, 2.50129  C4.7625, 2.61591 4.7625, 2.73052 4.7625, 2.84514  C4.7625, 2.96351 4.7625, 3.08188 4.7625, 3.20026  C4.7625, 3.32286 4.7625, 3.44547 4.7625, 3.56807  C4.7625, 3.69539 4.7625, 3.82271 4.7625, 3.95003  C4.7625, 4.08257 4.7625, 4.21511 4.7625, 4.34764  C4.7625, 4.48593 4.7625, 4.62421 4.7625, 4.7625 " /><path d="M-4.7625, -1.32677e-08 C-4.7625, 0.699421 -4.7625, 1.40029 -4.7625, 2.16737  C-4.7625, 2.27867 -4.7625, 2.38998 -4.7625, 2.50129  C-4.7625, 2.61591 -4.7625, 2.73052 -4.7625, 2.84514  C-4.7625, 2.96351 -4.7625, 3.08188 -4.7625, 3.20026  C-4.7625, 3.32286 -4.7625, 3.44547 -4.7625, 3.56807  C-4.7625, 3.69539 -4.7625, 3.82271 -4.7625, 3.95003  C-4.7625, 4.08257 -4.7625, 4.21511 -4.7625, 4.34764  C-4.7625, 4.48593 -4.7625, 4.62421 -4.7625, 4.7625 " /><path d="M9.09939e-13, 4.7625 C-0.699421, 4.7625 -1.40029, 4.7625 -2.16737, 4.7625  C-2.27867, 4.7625 -2.38998, 4.7625 -2.50129, 4.7625  C-2.61591, 4.7625 -2.73052, 4.7625 -2.84514, 4.7625  C-2.96351, 4.7625 -3.08188, 4.7625 -3.20026, 4.7625  C-3.32286, 4.7625 -3.44547, 4.7625 -3.56807, 4.7625  C-3.69539, 4.7625 -3.82271, 4.7625 -3.95003, 4.7625  C-4.08257, 4.7625 -4.21511, 4.7625 -4.34764, 4.7625  C-4.48593, 4.7625 -4.62421, 4.7625 -4.7625, 4.7625 " /><path d="M-4.7625, -4.7625 C-4.7625, -4.62421 -4.7625, -4.48593 -4.7625, -4.34764  C-4.7625, -4.21511 -4.7625, -4.08257 -4.7625, -3.95003  C-4.7625, -3.82271 -4.7625, -3.69539 -4.7625, -3.56807  C-4.7625, -3.44547 -4.7625, -3.32286 -4.7625, -3.20026  C-4.7625, -3.08188 -4.7625, -2.96351 -4.7625, -2.84514  C-4.7625, -2.73052 -4.7625, -2.61591 -4.7625, -2.50129  C-4.7625, -2.38998 -4.7625, -2.27867 -4.7625, -2.16737  C-4.7625, -1.40029 -4.7625, -0.699421 -4.7625, -1.32677e-08 " /><path d="M8.54589e-09, -4.7625 C-0.699421, -4.7625 -1.40029, -4.7625 -2.16737, -4.7625  C-2.27867, -4.7625 -2.38998, -4.7625 -2.50129, -4.7625  C-2.61591, -4.7625 -2.73052, -4.7625 -2.84514, -4.7625  C-2.96351, -4.7625 -3.08188, -4.7625 -3.20026, -4.7625  C-3.32286, -4.7625 -3.44547, -4.7625 -3.56807, -4.7625  C-3.69539, -4.7625 -3.82271, -4.7625 -3.95003, -4.7625  C-4.08257, -4.7625 -4.21511, -4.7625 -4.34764, -4.7625  C-4.48593, -4.7625 -4.62421, -4.7625 -4.7625, -4.7625 " /><path d="M4.7625, -4.7625 C4.62421, -4.7625 4.48593, -4.7625 4.34764, -4.7625  C4.21511, -4.7625 4.08257, -4.7625 3.95003, -4.7625  C3.82271, -4.7625 3.69539, -4.7625 3.56807, -4.7625  C3.44547, -4.7625 3.32286, -4.7625 3.20026, -4.7625  C3.08188, -4.7625 2.96351, -4.7625 2.84514, -4.7625  C2.73052, -4.7625 2.61591, -4.7625 2.50129, -4.7625  C2.38998, -4.7625 2.27867, -4.7625 2.16737, -4.7625  C1.40029, -4.7625 0.699421, -4.7625 8.54589e-09, -4.7625 " /><path d="M4.7625, -4.7625 C4.7625, -4.62421 4.7625, -4.48593 4.7625, -4.34764  C4.7625, -4.21511 4.7625, -4.08257 4.7625, -3.95003  C4.7625, -3.82271 4.7625, -3.69539 4.7625, -3.56807  C4.7625, -3.44547 4.7625, -3.32286 4.7625, -3.20026  C4.7625, -3.08188 4.7625, -2.96351 4.7625, -2.84514  C4.7625, -2.73052 4.7625, -2.61591 4.7625, -2.50129  C4.7625, -2.38998 4.7625, -2.27867 4.7625, -2.16737  C4.7625, -1.40029 4.7625, -0.699421 4.7625, 0 " /></g>

</svg>
