<svg xmlns="http://www.w3.org/2000/svg" viewBox="-4.2948556 -8.406645600000001 16.297181199999997 21.263171200000002">
<rect width="100%" height="100%" fill="white"/>
<g   fill="none"
   stroke="rgb(0, 0, 0)"
   stroke-linecap="butt"
   stroke-linejoin="miter"
   stroke-width="0.35"
   transform="scale(1, -1)"
  >
<path id= "1" d=" M 2.82843 -3.67423 L 2.82843 6.94022 " />
<path id= "2" d=" M 2.82843 6.94022 L 5.65685 5.30723 " />
<path id= "3" d=" M 5.65685 -5.30723 L 5.65685 5.30723 " />
<path id= "4" d=" M 2.82843 -3.67423 L 5.65685 -5.30723 " />
<path id= "5" d=" M -2.82843 3.67423 L 2.82843 6.94022 " />
<path id= "6" d=" M -2.82843 -6.94022 L -2.82843 3.67423 " />
<path id= "7" d=" M 2.82843 -3.67423 L -2.82843 -6.94022 " />
<g transform = "rotate(60, 0, 0)">
<ellipse cx ="0" cy ="0" rx ="3.15"  ry ="1.81865"/>
</g>
<path id= "9" d=" M 5.65685 5.30723 L 7.42462 6.32785 " />
<path id= "10" d=" M 7.42462 -4.28661 L 7.42462 6.32785 " />
<path id= "11" d=" M 5.65685 -5.30723 L 7.42462 -4.28661 " />
<path id= "12" d=" M -2.82843 -6.94022 L 1.1364e-17 -8.57321 " />
<path id= "13" d=" M 0 -8.57321 L -1.76777 -9.59383 " />
<path id= "14" d=" M -1.76777 -9.59383 L 1.3435 -11.3901 " />
<path id= "15" d=" M 1.3435 -11.3901 L 3.60624 -11.3901 " />
<path id= "16" d=" M 3.60624 -11.3901 L 10.5359 -7.38929 " />
<path id= "17" d=" M 10.5359 -6.0829 L 10.5359 -7.38929 " />
<path id= "18" d=" M 7.42462 -4.28661 L 10.5359 -6.0829 " />
<path id= "19" d=" M 7.42462 6.32785 L 10.5359 4.53156 " />
<path d="M1.90644, 0.965038 C1.92738, 1.41379 1.82854, 1.80424 1.62766, 2.0681  C1.41992, 2.34447 1.10301, 2.48253 0.734162, 2.45995  C0.346365, 2.43839 -0.0967054, 2.23912 -0.513094, 1.90261  C-0.956808, 1.54633 -1.36749, 1.03707 -1.66643, 0.478148 " /><path d="M-1.66643, 0.478148 L-1.71095, 0.392566 " /><path d="M-1.71095, 0.392566 C-1.83946, 0.13839 -1.95013, -0.153352 -2.02066, -0.43557  C-2.07367, -0.647779 -2.10536, -0.849198 -2.11574, -1.03983  C-2.12451, -1.19604 -2.11759, -1.34158 -2.09989, -1.45238  C-2.09158, -1.50373 -2.08231, -1.54338 -2.0721, -1.57134 " /><path d="M-2.0721, -1.57134 C-1.94222, -1.92546 -1.71503, -2.18422 -1.41944, -2.30709  C-1.15666, -2.41775 -0.840204, -2.41977 -0.511343, -2.31198 " /><path d="M-0.511343 -2.31198 A2.45873 1.41955 60 0 1 1.74653 0.115369" />
<path d="M1.90644, 0.965038 C1.89439, 0.695068 1.83978, 0.405045 1.74653, 0.115369 " /><path id= "26" d=" M 10.5359 -6.0829 L 10.5359 4.53156 " />
<path id= "27" d=" M -1.76777 -9.59383 L -1.76777 -7.55259 " />
<path d="M-0.511343, -2.31198 Q-0.821379, -2.36361 -1.05259, -2.23139 " /><path d="M-1.05259, -2.23139 C-1.35258, -2.06144 -1.51066, -1.65141 -1.47149, -1.12692  C-1.43932, -0.656217 -1.24868, -0.0992901 -0.939252, 0.405021  C-0.667242, 0.851429 -0.305178, 1.25365 0.0818668, 1.53162  C0.408672, 1.76761 0.751844, 1.91475 1.06628, 1.95087  C1.32403, 1.98114 1.56218, 1.93749 1.75969, 1.82314 " /><path d="M1.75969, 1.82314 L1.77329, 1.81515 " /><path d="M-0.960348, -2.27574 C-1.21028, -2.0787 -1.3337, -1.68754 -1.29282, -1.20415  C-1.25477, -0.722226 -1.05247, -0.15345 -0.729702, 0.355733  C-0.460784, 0.782829 -0.110264, 1.16554 0.263041, 1.43272  C0.790555, 1.81468 1.35791, 1.95258 1.78262, 1.79294 " /><path d="M-0.63558, -2.3256 C-0.739968, -2.12438 -0.785489, -1.85554 -0.765339, -1.54916  C-0.736014, -1.07739 -0.546232, -0.517022 -0.235851, -0.00929911  C0.0335131, 0.434403 0.391909, 0.835009 0.77577, 1.1138  C1.13642, 1.37734 1.51773, 1.53218 1.85902, 1.54997 " /><path d="M-0.509676, -2.31178 C-0.581395, -2.11788 -0.607796, -1.87718 -0.585507, -1.60991  C-0.547603, -1.1372 -0.352173, -0.581286 -0.03986, -0.0800885  C0.230877, 0.357314 0.587656, 0.75034 0.968341, 1.02318  C1.27096, 1.24113 1.58753, 1.38322 1.88221, 1.43104 " /><path d="M-0.0610326, -2.18174 C-0.0859542, -1.66992 0.109289, -1.00812 0.471656, -0.416888  C0.838088, 0.189024 1.37274, 0.708683 1.90624, 0.960563 " /><path d="M0.116694, -2.09134 C0.140406, -1.58967 0.350031, -0.982432 0.69521, -0.443891  C1.01327, 0.0568291 1.44385, 0.492967 1.88896, 0.754756 " /><path d="M0.853227, -1.48474 C1.02543, -1.03369 1.30265, -0.578687 1.63848, -0.205341 " /></g>

</svg>
