<svg xmlns="http://www.w3.org/2000/svg" viewBox="-4.507136 -6.703286 21.853471999999996 18.712622">
<rect width="100%" height="100%" fill="white"/>
<g   fill="none"
   stroke="rgb(0, 0, 0)"
   stroke-linecap="butt"
   stroke-linejoin="miter"
   stroke-width="0.35"
   transform="scale(1, -1)"
  >
<path id= "1" d=" M 14.1421 -10.1246 L 14.0366 -10.1855 " />
<path id= "2" d=" M 12.1903 -10.5022 L 12.1019 -10.4512 " />
<path id= "3" d=" M 14.8368 -5.10192 L 14.7484 -5.05088 " />
<path id= "4" d=" M 11.4832 -10.0939 L 11.3948 -10.0429 " />
<path id= "5" d=" M 14.1297 -4.69367 L 14.0413 -4.64263 " />
<path id= "6" d=" M 10.7761 -9.6857 L 10.6877 -9.63466 " />
<path id= "7" d=" M 13.4226 -4.28542 L 13.3342 -4.23438 " />
<path id= "8" d=" M 10.069 -9.27745 L 9.98061 -9.22641 " />
<path id= "9" d=" M 12.7155 -3.87717 L 12.6271 -3.82614 " />
<path id= "10" d=" M 9.36191 -8.8692 L 9.27351 -8.81816 " />
<path id= "11" d=" M 12.0084 -3.46892 L 11.92 -3.41789 " />
<path id= "12" d=" M 8.6548 -8.46095 L 8.5664 -8.40991 " />
<path id= "13" d=" M 11.3012 -3.06068 L 11.2128 -3.00964 " />
<path id= "14" d=" M 7.94769 -8.05271 L 7.85929 -8.00166 " />
<path id= "15" d=" M 10.5941 -2.65243 L 10.5057 -2.60139 " />
<path id= "16" d=" M 7.24059 -7.64446 L 7.15218 -7.59341 " />
<path id= "17" d=" M 9.88703 -2.24418 L 9.79863 -2.19314 " />
<path id= "18" d=" M 6.53348 -7.23621 L 6.44507 -7.18517 " />
<path id= "19" d=" M 9.17993 -1.83593 L 9.09152 -1.78489 " />
<path id= "20" d=" M 5.82637 -6.82796 L 5.73796 -6.77692 " />
<path id= "21" d=" M 8.47282 -1.42768 L 8.38441 -1.37664 " />
<path id= "22" d=" M 5.11927 -6.41971 L 5.03085 -6.36867 " />
<path id= "23" d=" M 7.76571 -1.01944 L 7.6773 -0.968391 " />
<path id= "24" d=" M 4.41216 -6.01146 L 4.32375 -5.96042 " />
<path id= "25" d=" M 7.05861 -0.611187 L 6.97019 -0.560142 " />
<path id= "26" d=" M 3.70506 -5.60322 L 3.61664 -5.55217 " />
<path id= "27" d=" M 6.3515 -0.202939 L 6.26309 -0.151892 " />
<path id= "28" d=" M 2.99795 -5.19497 L 2.90953 -5.14392 " />
<path id= "29" d=" M 5.64439 0.205309 L 5.55598 0.256357 " />
<path id= "30" d=" M 2.29084 -4.78672 L 2.20242 -4.73567 " />
<path id= "31" d=" M 4.93729 0.613558 L 4.82039 0.68105 " />
<path id= "32" d=" M 2.57866 -3.99807 L 0.509117 -5.19292 " />
<path id= "33" d=" M 3.50912 4.90221 L 3 5.19615 " />
<path id= "34" d=" M -2.49088 -5.49009 L -3 -5.19615 " />
</g>
<g   fill="none"
   stroke="rgb(0, 0, 0)"
   stroke-linecap="butt"
   stroke-linejoin="miter"
   stroke-width="0.35"
   transform="scale(1, -1)"
  >
<path d="M14.1421 -10.1246 A2.4 1.38564 60 0 1 15.8392 -7.18517" />
<path id= "2" d=" M 15.8392 -7.18517 L 15.8392 -6.93393 " />
<path d="M15.8392, -6.93393 C15.84, -7.40702 15.7138, -7.94605 15.4858, -8.45266  C15.1522, -9.20465 14.5921, -9.8694 14.0366, -10.1855 " /><path d="M14.0366, -10.1855 Q13.7233, -10.3657 13.4365, -10.4005 " /><path d="M15.4581, -6.47525 C15.487, -7.08287 15.3203, -7.8003 15.0057, -8.45573  C14.7848, -8.91892 14.4929, -9.34971 14.1695, -9.69497  C13.9024, -9.98081 13.6144, -10.2082 13.332, -10.3581  C12.8682, -10.6063 12.4226, -10.6386 12.1019, -10.4512 " /><path d="M12.1019, -10.4512 Q11.9452, -10.3605 11.8304, -10.2071 " /><path d="M15.5465, -6.52628 C15.5804, -7.22184 15.3546, -8.06152 14.9496, -8.78711  C14.7002, -9.23763 14.3862, -9.64297 14.0502, -9.95272  C13.8297, -10.1558 13.607, -10.3145 13.382, -10.4291  C12.932, -10.6592 12.5022, -10.6843 12.1903, -10.5022 " /><path d="M14.751, -6.067 C14.7798, -6.67462 14.6132, -7.39205 14.2986, -8.04749  C14.0777, -8.51068 13.7858, -8.94147 13.4624, -9.28674  C13.195, -9.57291 12.9066, -9.80052 12.6239, -9.9504  C12.1604, -10.1981 11.7153, -10.2302 11.3948, -10.0429 " /><path d="M11.3948, -10.0429 Q11.2381, -9.95227 11.1233, -9.79881 " /><path d="M14.4112, -4.92049 Q14.5923, -4.96086 14.7484, -5.05088 " /><path d="M14.7484, -5.05088 C15.1727, -5.29218 15.4309, -5.8148 15.4581, -6.47525 " /><path d="M14.8394, -6.11803 C14.8733, -6.8136 14.6474, -7.65327 14.2425, -8.37886  C13.9931, -8.82938 13.679, -9.23472 13.3431, -9.54447  C13.1226, -9.74752 12.8999, -9.90631 12.6749, -10.0208  C12.2248, -10.2509 11.7951, -10.276 11.4832, -10.0939 " /><path d="M14.8368, -5.10192 C15.2611, -5.34322 15.5193, -5.86583 15.5465, -6.52628 " /><path d="M14.0439, -5.65875 C14.0727, -6.26637 13.9061, -6.98381 13.5915, -7.63924  C13.3706, -8.10244 13.0787, -8.53323 12.7553, -8.8785  C12.4875, -9.16505 12.1987, -9.39287 11.9156, -9.54274  C11.4526, -9.78989 11.0079, -9.82179 10.6877, -9.63466 " /><path d="M10.6877, -9.63466 Q10.531, -9.54402 10.4162, -9.39056 " /><path d="M13.7041, -4.51224 Q13.8852, -4.55261 14.0413, -4.64263 " /><path d="M14.0413, -4.64263 C14.4656, -4.88393 14.7238, -5.40655 14.751, -6.067 " /><path d="M14.1323, -5.70978 C14.1662, -6.40535 13.9403, -7.24502 13.5354, -7.97061  C13.286, -8.42113 12.9719, -8.82647 12.636, -9.13622  C12.4155, -9.33927 12.1928, -9.49805 11.9678, -9.61258  C11.5177, -9.84268 11.088, -9.8678 10.7761, -9.6857 " /><path d="M14.1297, -4.69367 C14.554, -4.93497 14.8122, -5.45758 14.8394, -6.11803 " /><path d="M13.3368, -5.2505 C13.3656, -5.85813 13.199, -6.57556 12.8844, -7.231  C12.6635, -7.6942 12.3716, -8.125 12.0482, -8.47026  C11.784, -8.75289 11.4994, -8.97842 11.2201, -9.12831  C10.7529, -9.38101 10.3035, -9.41515 9.98061, -9.22641 " /><path d="M9.98061, -9.22641 Q9.82387, -9.13577 9.70907, -8.98231 " /><path d="M12.997, -4.10399 Q13.1781, -4.14436 13.3342, -4.23438 " /><path d="M13.3342, -4.23438 C13.7585, -4.47568 14.0167, -4.9983 14.0439, -5.65875 " /><path d="M13.4252, -5.30153 C13.4591, -5.9971 13.2332, -6.83677 12.8282, -7.56236  C12.5788, -8.01288 12.2648, -8.41822 11.9289, -8.72797  C11.7084, -8.93101 11.4857, -9.08979 11.2607, -9.20432  C10.8107, -9.43443 10.3809, -9.45956 10.069, -9.27745 " /><path d="M13.4226, -4.28542 C13.8469, -4.52672 14.1051, -5.04934 14.1323, -5.70978 " /><path d="M12.6297, -4.84225 C12.6585, -5.44988 12.4919, -6.16732 12.1772, -6.82276  C11.9563, -7.28596 11.6645, -7.71676 11.341, -8.06203  C11.0767, -8.34491 10.7918, -8.57058 10.5122, -8.72048  C10.0453, -8.9728 9.59617, -9.0068 9.2735, -8.81816 " /><path d="M9.2735, -8.81816 Q9.11676, -8.72752 9.00197, -8.57406 " /><path d="M12.2899, -3.69574 Q12.471, -3.73611 12.6271, -3.82614 " /><path d="M12.6271, -3.82614 C13.0514, -4.06743 13.3096, -4.59006 13.3368, -5.2505 " /><path d="M12.7181, -4.89329 C12.752, -5.58885 12.5261, -6.42852 12.1211, -7.15411  C11.8717, -7.60463 11.5577, -8.00997 11.2218, -8.31972  C11.0013, -8.52276 10.7786, -8.68154 10.5536, -8.79607  C10.1036, -9.02618 9.67378, -9.05131 9.36191, -8.8692 " /><path d="M12.7155, -3.87717 C13.1398, -4.11847 13.398, -4.64109 13.4252, -5.30153 " /><path d="M11.9226, -4.434 C11.9514, -5.04163 11.7848, -5.75907 11.4701, -6.41451  C11.2492, -6.87772 10.9574, -7.30852 10.6339, -7.65379  C10.3693, -7.9369 10.0842, -8.1627 9.80443, -8.31259  C9.33776, -8.56459 8.88891, -8.59845 8.5664, -8.40991 " /><path d="M11.92, -3.41789 C12.3443, -3.65918 12.6024, -4.18181 12.6297, -4.84225 " /><path d="M12.011, -4.48504 C12.0449, -5.1806 11.819, -6.02027 11.414, -6.74586  C11.1646, -7.19638 10.8506, -7.60173 10.5146, -7.91147  C10.2942, -8.11451 10.0715, -8.2733 9.84652, -8.38782  C9.39644, -8.61794 8.96668, -8.64306 8.6548, -8.46095 " /><path d="M12.0084, -3.46892 C12.4327, -3.71022 12.6909, -4.23284 12.7181, -4.89329 " /><path d="M11.2154, -4.02575 C11.2443, -4.63339 11.0777, -5.35083 10.763, -6.00627  C10.5421, -6.46948 10.2502, -6.90028 9.9268, -7.24555  C9.66199, -7.5289 9.37662, -7.75485 9.09658, -7.90474  C8.63017, -8.15638 8.18163, -8.1901 7.85929, -8.00166 " /><path d="M7.85929, -8.00166 Q7.70254, -7.91102 7.58775, -7.75757 " /><path d="M10.8757, -2.87925 Q11.0568, -2.91962 11.2128, -3.00964 " /><path d="M11.2128, -3.00964 C11.6372, -3.25094 11.8953, -3.77356 11.9226, -4.434 " /><path d="M11.3038, -4.07679 C11.3378, -4.77235 11.1119, -5.61202 10.7069, -6.33761  C10.4575, -6.78813 10.1435, -7.19348 9.80754, -7.50323  C9.58711, -7.70627 9.3644, -7.86505 9.13941, -7.97958  C8.68933, -8.20969 8.25957, -8.23481 7.9477, -8.05271 " /><path d="M11.3012, -3.06068 C11.7256, -3.30198 11.9838, -3.82459 12.011, -4.48504 " /><path d="M10.5083, -3.6175 C10.5372, -4.22514 10.3706, -4.94258 10.0559, -5.59803  C9.835, -6.06124 9.54313, -6.49205 9.21968, -6.83732  C8.95464, -7.12091 8.66901, -7.347 8.38874, -7.49688  C7.92259, -7.74817 7.47435, -7.78175 7.15218, -7.59341 " /><path d="M7.15218, -7.59341 Q6.99544, -7.50277 6.88064, -7.34932 " /><path d="M10.1685, -2.471 Q10.3497, -2.51137 10.5057, -2.60139 " /><path d="M10.5057, -2.60139 C10.93, -2.84269 11.1882, -3.3653 11.2154, -4.02575 " /><path d="M10.5967, -3.66854 C10.6307, -4.3641 10.4048, -5.20377 9.99982, -5.92936  C9.75042, -6.37988 9.43642, -6.78523 9.10043, -7.09498  C8.88001, -7.29801 8.6573, -7.45679 8.43232, -7.57132  C7.98224, -7.80144 7.55247, -7.82657 7.24059, -7.64446 " /><path d="M10.5941, -2.65243 C11.0185, -2.89373 11.2766, -3.41635 11.3038, -4.07679 " /><path d="M9.80123, -3.20925 C9.83009, -3.81689 9.66347, -4.53434 9.3488, -5.18978  C9.12789, -5.653 8.83601, -6.08381 8.51256, -6.42908  C8.24731, -6.7129 7.96142, -6.93913 7.68092, -7.08901  C7.21503, -7.33996 6.76708, -7.3734 6.44507, -7.18517 " /><path d="M6.44507, -7.18517 Q6.28833, -7.09452 6.17353, -6.94107 " /><path d="M9.46144, -2.06275 Q9.64257, -2.10312 9.79863, -2.19314 " /><path d="M9.79863, -2.19314 C10.2229, -2.43444 10.4811, -2.95706 10.5083, -3.6175 " /><path d="M9.88964, -3.26029 C9.92359, -3.95586 9.6977, -4.79553 9.29272, -5.52111  C9.04332, -5.97163 8.72931, -6.37698 8.39333, -6.68673  C8.17291, -6.88976 7.95021, -7.04854 7.72522, -7.16307  C7.27514, -7.39319 6.84536, -7.41832 6.53348, -7.23621 " /><path d="M9.88703, -2.24418 C10.3113, -2.48548 10.5695, -3.0081 10.5967, -3.66854 " /><path d="M9.09412, -2.801 C9.12298, -3.40864 8.95636, -4.12609 8.64169, -4.78154  C8.42077, -5.24476 8.12889, -5.67557 7.80544, -6.02084  C7.53996, -6.30491 7.25381, -6.53127 6.97309, -6.68116  C6.50745, -6.93175 6.0598, -6.96505 5.73796, -6.77692 " /><path d="M5.73796, -6.77692 Q5.58122, -6.68627 5.46643, -6.53282 " /><path d="M8.75433, -1.6545 Q8.93547, -1.69487 9.09152, -1.78489 " /><path d="M9.09152, -1.78489 C9.51583, -2.02619 9.77401, -2.54881 9.80123, -3.20925 " /><path d="M9.18253, -2.85205 C9.21648, -3.54761 8.99059, -4.38728 8.58561, -5.11287  C8.33621, -5.56338 8.0222, -5.96873 7.68622, -6.27848  C7.4658, -6.48151 7.2431, -6.64029 7.01813, -6.75481  C6.56804, -6.98494 6.13826, -7.01007 5.82638, -6.82796 " /><path d="M9.17993, -1.83593 C9.60424, -2.07723 9.86243, -2.59985 9.88964, -3.26029 " /><path d="M8.38701, -2.39275 C8.41587, -3.0004 8.24925, -3.71785 7.93458, -4.3733  C7.71366, -4.83652 7.42178, -5.26733 7.09832, -5.6126  C6.83263, -5.8969 6.54623, -6.12339 6.2653, -6.27327  C5.79991, -6.52354 5.35254, -6.55671 5.03085, -6.36867 " /><path d="M5.03085, -6.36867 Q4.87411, -6.27803 4.75932, -6.12458 " /><path d="M8.04723, -1.24625 Q8.22836, -1.28662 8.38441, -1.37664 " /><path d="M8.38441, -1.37664 C8.80872, -1.61794 9.06691, -2.14056 9.09412, -2.801 " /><path d="M8.47542, -2.4438 C8.50937, -3.13936 8.28349, -3.97903 7.87851, -4.70462  C7.62911, -5.15513 7.3151, -5.56048 6.97912, -5.87023  C6.7587, -6.07326 6.53601, -6.23203 6.31103, -6.34656  C5.86094, -6.57669 5.43115, -6.60183 5.11927, -6.41971 " /><path d="M8.47282, -1.42768 C8.89714, -1.66898 9.15533, -2.1916 9.18253, -2.85205 " /><path d="M7.6799, -1.9845 C7.70877, -2.59215 7.54214, -3.3096 7.22747, -3.96505  C7.00655, -4.42828 6.71466, -4.85909 6.3912, -5.20437  C6.1253, -5.48888 5.83866, -5.71551 5.55751, -5.86538  C5.09236, -6.11533 4.64528, -6.14836 4.32375, -5.96042 " /><path d="M4.32375, -5.96042 Q4.16701, -5.86978 4.05221, -5.71633 " /><path d="M7.34012, -0.838002 Q7.52125, -0.878372 7.6773, -0.968391 " /><path d="M7.6773, -0.968391 C8.10162, -1.20969 8.3598, -1.73231 8.38701, -2.39275 " /><path d="M7.76832, -2.03555 C7.80227, -2.73111 7.57638, -3.57078 7.1714, -4.29637  C6.922, -4.74689 6.60799, -5.15223 6.27201, -5.46198  C6.0516, -5.66501 5.8289, -5.82378 5.60393, -5.93831  C5.15384, -6.16845 4.72405, -6.19358 4.41216, -6.01146 " /><path d="M7.76571, -1.01944 C8.19003, -1.26073 8.44822, -1.78335 8.47542, -2.4438 " /><path d="M6.97279, -1.57625 C7.00166, -2.1839 6.83503, -2.90136 6.52036, -3.55681  C6.29943, -4.02004 6.00754, -4.45086 5.68408, -4.79613  C5.41796, -5.08087 5.13108, -5.30763 4.84971, -5.4575  C4.38481, -5.70712 3.93801, -5.74002 3.61664, -5.55217 " /><path d="M3.61664, -5.55217 Q3.4599, -5.46153 3.3451, -5.30808 " /><path d="M6.63301, -0.429753 Q6.81414, -0.470123 6.97019, -0.560141 " /><path d="M6.97019, -0.560141 C7.39451, -0.80144 7.65269, -1.32406 7.6799, -1.9845 " /><path d="M7.06121, -1.6273 C7.09516, -2.32286 6.86928, -3.16253 6.46429, -3.88812  C6.2149, -4.33864 5.90089, -4.74398 5.5649, -5.05373  C5.34449, -5.25676 5.1218, -5.41553 4.89683, -5.53006  C4.44673, -5.7602 4.01694, -5.78533 3.70506, -5.60322 " /><path d="M7.05861, -0.611187 C7.48292, -0.852487 7.74111, -1.3751 7.76832, -2.03555 " /><path d="M6.26569, -1.16801 C6.29455, -1.77565 6.12792, -2.49311 5.81324, -3.14857  C5.59232, -3.6118 5.30043, -4.04262 4.97696, -4.38789  C4.71063, -4.67286 4.42351, -4.89975 4.14193, -5.04961  C3.67726, -5.29891 3.23075, -5.33167 2.90953, -5.14392 " /><path d="M2.90953, -5.14392 Q2.75279, -5.05328 2.638, -4.89983 " /><path d="M5.9259, -0.0215042 Q6.10703, -0.0618743 6.26309, -0.151892 " /><path d="M6.26309, -0.151892 C6.6874, -0.393191 6.94558, -0.915812 6.97279, -1.57625 " /><path d="M6.3541, -1.21905 C6.38805, -1.91461 6.16217, -2.75428 5.75719, -3.47987  C5.50779, -3.93039 5.19378, -4.33573 4.8578, -4.64548  C4.63739, -4.8485 4.4147, -5.00728 4.18973, -5.1218  C3.73963, -5.35195 3.30984, -5.37709 2.99795, -5.19497 " /><path d="M6.3515, -0.202939 C6.77582, -0.444238 7.03401, -0.966857 7.06121, -1.6273 " /><path d="M5.55858, -0.759756 C5.58744, -1.36741 5.42081, -2.08487 5.10613, -2.74033  C4.88521, -3.20356 4.59331, -3.63438 4.26984, -3.97966  C4.00331, -4.26484 3.71594, -4.49186 3.43415, -4.64172  C2.96972, -4.89069 2.52348, -4.92333 2.20242, -4.73567 " /><path d="M2.20242, -4.73567 Q2.04568, -4.64503 1.93089, -4.49158 " /><path d="M5.2188, 0.386745 Q5.39993, 0.346375 5.55598, 0.256357 " /><path d="M5.55598, 0.256357 C5.98029, 0.0150582 6.23847, -0.50756 6.26569, -1.16801 " /><path d="M5.647, -0.810805 C5.68095, -1.50636 5.45506, -2.34603 5.05008, -3.07162  C4.80068, -3.52214 4.48668, -3.92748 4.15069, -4.23723  C3.93029, -4.44025 3.7076, -4.59903 3.48263, -4.71355  C3.03253, -4.9437 2.60273, -4.96884 2.29084, -4.78672 " /><path d="M5.64439, 0.205309 C6.06871, -0.0359904 6.3269, -0.558608 6.3541, -1.21905 " /><path d="M4.75176, 0.717932 L4.82039, 0.68105 " /><path d="M4.82039, 0.68105 C5.26343, 0.429303 5.53447, -0.0980563 5.55858, -0.759756 " /><path d="M4.93989, -0.402557 C4.97384, -1.09812 4.74796, -1.93778 4.34298, -2.66337  C4.09358, -3.11389 3.77957, -3.51923 3.44359, -3.82898  C2.86969, -4.36307 2.23682, -4.5989 1.77736, -4.4607 " /><path d="M4.93729, 0.613557 C5.3616, 0.372258 5.61979, -0.15036 5.647, -0.810805 " /><path d="M4.93989, -0.402557 C4.92694, -0.0778438 4.86295, 0.213928 4.75176, 0.451272 " /><path id= "95" d=" M 4.75176 -0.234152 L 4.75176 2.15555 " />
<path d="M4.75176 2.15555 A6 3.4641 60 0 1 3.50912 4.90221" />
<path d="M-2.49088 -5.49009 A6 3.4641 60 0 1 0.509117 -5.19292" />
<path d="M0.509117 -5.19292 A6 3.4641 60 0 1 4.75176 2.15555" />
<path d="M4.24264 2.44949 A6 3.4641 60 0 1 3 5.19615" />
<path d="M3 5.19615 A6 3.4641 60 0 1 -3 -5.19615" />
<path d="M-3 -5.19615 A6 3.4641 60 0 1 4.24264 2.44949" />
<path d="M-1.66578 -0.961736 A2.35576 1.3601 -120 0 0 1.66578 0.961736" />
<path d="M1.66578 0.961736 A2.35576 1.3601 -120 0 0 -1.49227e-12 -1.92347" />
<path d="M-1.49227e-12 -1.92347 A2.35576 1.3601 -120 0 0 -1.66578 -0.961736" />
<path d="M0.837031, 2.13118 L0.769378, 2.02284  L0.696202, 1.92269  L0.617053, 1.83009  L0.531442, 1.74447  L0.438842, 1.66533  L0.338684, 1.59215  L0.230349, 1.5245  L0.11317, 1.46195  L-0.0135745, 1.40412  L-0.150666, 1.35066  L-0.298948, 1.30123  L-0.459335, 1.25554  L-0.632815, 1.21329  L-0.820457, 1.17423 " /><path d="M-0.820457, 1.17423 L-0.824286, 0.975094  L-0.835798, 0.787209  L-0.855063, 0.609415  L-0.882201, 0.440617  L-0.917378, 0.279776  L-0.960811, 0.125899  L-1.01277, -0.0219613  L-1.07357, -0.164715  L-1.14359, -0.303243  L-1.22325, -0.438398  L-1.31306, -0.571012  L-1.41357, -0.701903  L-1.52538, -0.831878  L-1.6492, -0.961736 " /><path d="M-1.6492, -0.961736 L-1.52538, -1.08717  L-1.41357, -1.20385  L-1.31306, -1.3125  L-1.22325, -1.41378  L-1.14359, -1.50831  L-1.07357, -1.59669  L-1.01277, -1.67945  L-0.960811, -1.7571  L-0.917378, -1.83013  L-0.882201, -1.89898  L-0.855063, -1.96407  L-0.835798, -2.02582  L-0.824286, -2.08459  L-0.820457, -2.14075 " /><path d="M-0.820457, -2.14075 C-0.42882, -2.06508 -0.127648, -1.97202 0.11724, -1.85101 " /><path d="M1.66577, 0.955005 L1.66157, 1.01108  L1.64975, 1.06976  L1.63022, 1.13141  L1.60288, 1.1964  L1.56755, 1.26514  L1.52401, 1.33803  L1.47201, 1.41553  L1.41122, 1.49812  L1.34127, 1.58628  L1.26173, 1.68058  L1.17212, 1.78157  L1.07188, 1.88989  L0.960416, 2.00619  L0.837031, 2.13118 " /><path id= "110" d=" M -0.820457 1.17423 L 0.726891 0.280866 " />
<path d="M1.64719, 0.664467 C1.39234, 0.521968 1.09925, 0.399802 0.726891, 0.280866 " /><path d="M-0.101853, -1.8551 L-0.0416795, -1.92251 " /><path id= "113" d=" M -1.6492 -0.961736 L -0.101853 -1.8551 " />
<path d="M0.726891, 0.280866 Q0.712298, 0.188619 0.697705, 0.096372  Q0.681351, 0.00854851 0.664996, -0.079275  Q0.629671, -0.249044 0.588182, -0.408308  Q0.565892, -0.486015 0.543603, -0.563722  Q0.49589, -0.715435 0.440726, -0.861136  Q0.383328, -1.00555 0.317394, -1.14674  Q0.248894, -1.28741 0.170563, -1.42758  Q0.0892701, -1.56799 -0.00339169, -1.7106  Q-0.0526224, -1.78285 -0.101853, -1.8551 " /></g>

</svg>
