<svg xmlns="http://www.w3.org/2000/svg" viewBox="-1.6 -7.6 23.2 15.2">
<rect width="100%" height="100%" fill="white"/>
<g   fill="none"
   stroke="rgb(165, 165, 165)"
   stroke-dasharray="1.2,0.8"
   stroke-linecap="butt"
   stroke-linejoin="miter"
   stroke-width="0.25"
   transform="scale(1, -1)"
  >
<path d="M20, 2.4 Q20, 2.38413 20, 2.36826  Q20, 2.32108 20, 2.27389  Q20, 2.19664 20, 2.11938  Q20, 2.0141 20, 1.90882  Q20, 1.7783 20, 1.64777  Q20, 1.49546 20, 1.34315  Q20, 1.17307 20, 1.003  Q20, 0.819661 20, 0.636324  Q20, 0.254695 20, -0.137371  Q20, -0.33065 20, -0.523928  Q20, -0.710279 20, -0.896629  Q20, -1.07112 20, -1.24562  Q20, -1.40364 20, -1.56166 " /><path d="M20, -2.38843 Q20, -2.39997 20, -2.4 " /><path d="M20, -1.56166 C20, -2.01122 20, -2.31496 20, -2.38843 " /><path d="M19.9413, -1.53485 C19.9522, -1.4704 19.9667, -1.41657 19.9783, -1.43425  C19.9891, -1.44967 19.9955, -1.50583 20, -1.56166 " /><path d="M19.6411, -2.74522 C19.7372, -2.58281 19.837, -2.135 19.9413, -1.53485 " /><path d="M19.4, -2.9106 Q19.4, -2.99963 19.4, -3 " /><path d="M19.6821, 2.70403 C19.6611, 2.6689 19.6402, 2.45001 19.6195, 2.08859  C19.5953, 1.66602 19.5712, 1.04808 19.5474, 0.383508  C19.5229, -0.299898 19.4987, -1.02571 19.4747, -1.61812  C19.4495, -2.24142 19.4246, -2.71149 19.4, -2.9106 " /><path d="M20, -2.38843 Q19.9975, -2.40247 19.9947, -2.40531 " /><path d="M19.361, -3 Q19.3805, -2.99982 19.4, -2.9106 " /><path d="M18.361, -3 C18.4, -3.00246 18.439, -2.72065 18.478, -2.22532  C18.5139, -1.77342 18.5497, -1.14665 18.5855, -0.479257  C18.6302, 0.352855 18.6749, 1.2378 18.7195, 1.8903  C18.7618, 2.5126 18.8041, 2.91769 18.8465, 2.98741 " /><path d="M18.5006, -2.98741 C18.5372, -2.92627 18.5737, -2.61857 18.6102, -2.13264  C18.6623, -1.44515 18.7144, -0.396033 18.7665, 0.56957  C18.7949, 1.09547 18.8233, 1.59258 18.8517, 1.99245  C18.8965, 2.62774 18.9413, 3.00422 18.9861, 3 " /><path d="M17.361, -3 C17.4, -3.00244 17.4389, -2.72183 17.4778, -2.22833  C17.5138, -1.77463 17.5499, -1.14377 17.5859, -0.472312  C17.6303, 0.355243 17.6747, 1.23423 17.7191, 1.88431  C17.7616, 2.50993 17.804, 2.9175 17.8465, 2.98741 " /><path d="M17.5006, -2.98741 C17.5373, -2.92604 17.574, -2.61594 17.6107, -2.12652  C17.6628, -1.43669 17.7149, -0.386038 17.767, 0.579326  C17.7953, 1.10283 17.8236, 1.59732 17.8519, 1.9952  C17.8966, 2.62886 17.9413, 3.00419 17.9861, 3 " /><path d="M16.361, -3 C16.4002, -3.0025 16.4393, -2.71874 16.4784, -2.22041  C16.5142, -1.7673 16.5501, -1.13974 16.5859, -0.472121  C16.6302, 0.354194 16.6746, 1.23179 16.7189, 1.88152  C16.7614, 2.50869 16.8039, 2.91741 16.8465, 2.98741 " /><path d="M16.5006, -2.98741 C16.5374, -2.92591 16.5742, -2.61456 16.6109, -2.12331  C16.663, -1.4321 16.7152, -0.3803 16.7673, 0.58513  C16.7953, 1.10306 16.8233, 1.59232 16.8513, 1.98736  C16.8962, 2.62565 16.9411, 3.00426 16.9861, 3 " /><path d="M15.361, -3 C15.4001, -3.00247 15.4391, -2.72017 15.4781, -2.22408  C15.5137, -1.77556 15.5492, -1.15521 15.5847, -0.493846  C15.6294, 0.33727 15.674, 1.22303 15.7187, 1.87808  C15.7613, 2.50716 15.8039, 2.91729 15.8465, 2.98741 " /><path d="M15.5006, -2.98742 C15.5372, -2.92626 15.5737, -2.61842 15.6102, -2.13228  C15.6626, -1.44137 15.7149, -0.385274 15.7672, 0.58407  C15.7952, 1.10198 15.8232, 1.59128 15.8512, 1.98642  C15.8962, 2.62527 15.9411, 3.00427 15.9861, 3 " /><path d="M14.361, -3 C14.4, -3.00246 14.4389, -2.7213 14.4779, -2.22702  C14.5139, -1.773 14.5499, -1.14194 14.586, -0.470433  C14.6305, 0.358518 14.6749, 1.23881 14.7194, 1.88887  C14.7618, 2.51196 14.8041, 2.91764 14.8464, 2.98741 " /><path d="M14.5006, -2.98742 C14.5374, -2.92583 14.5743, -2.61358 14.6111, -2.12105  C14.6632, -1.42924 14.7153, -0.377396 14.7674, 0.587653  C14.7954, 1.1055 14.8234, 1.59455 14.8514, 1.98928  C14.8963, 2.62644 14.9412, 3.00424 14.9861, 3 " /><path d="M13.361, -3 C13.4001, -3.00247 13.4391, -2.72013 13.4781, -2.22398  C13.5137, -1.77467 13.5493, -1.15292 13.5849, -0.490279  C13.6295, 0.339405 13.6741, 1.2231 13.7186, 1.87712  C13.7612, 2.50673 13.8038, 2.91726 13.8464, 2.98741 " /><path d="M13.5006, -2.98742 C13.5374, -2.9259 13.5742, -2.61435 13.6109, -2.12283  C13.663, -1.43196 13.7151, -0.381131 13.7672, 0.583686  C13.7952, 1.10155 13.8232, 1.59083 13.8512, 1.98599  C13.8962, 2.62509 13.9411, 3.00427 13.9861, 3 " /><path d="M12.361, -3 C12.4002, -3.00251 12.4394, -2.7176 12.4786, -2.21749  C12.5141, -1.76839 12.5495, -1.1488 12.585, -0.488808  C12.6296, 0.342636 12.6743, 1.22809 12.719, 1.88226  C12.7615, 2.50902 12.8039, 2.91743 12.8464, 2.98741 " /><path d="M12.5006, -2.98742 C12.5373, -2.92612 12.5739, -2.6168 12.6105, -2.12853  C12.6626, -1.43919 12.7148, -0.388446 12.7669, 0.577316  C12.7951, 1.10055 12.8234, 1.5949 12.8517, 1.99288  C12.8965, 2.62791 12.9413, 3.00421 12.9861, 3 " /><path d="M11.361, -3 C11.4, -3.00245 11.4389, -2.72171 11.4778, -2.22803  C11.5135, -1.77817 11.5492, -1.15432 11.585, -0.489321  C11.6298, 0.34541 11.6746, 1.23459 11.7195, 1.88965  C11.7618, 2.5123 11.8041, 2.91767 11.8464, 2.98741 " /><path d="M11.5006, -2.98742 C11.5373, -2.926 11.574, -2.61554 11.6107, -2.12558  C11.6627, -1.43708 11.7147, -0.389687 11.7667, 0.573722  C11.7949, 1.09568 11.8231, 1.5891 11.8513, 1.98696  C11.8962, 2.62549 11.9411, 3.00427 11.9861, 3 " /><path d="M10.361, -3 C10.4, -3.00246 10.439, -2.72074 10.478, -2.22554  C10.5135, -1.77776 10.549, -1.15834 10.5845, -0.497677  C10.6294, 0.337446 10.6743, 1.22817 10.7192, 1.88493  C10.7616, 2.5102 10.804, 2.91751 10.8464, 2.98741 " /><path d="M10.5006, -2.98742 C10.5372, -2.92616 10.5738, -2.61724 10.6104, -2.12954  C10.6625, -1.44075 10.7147, -0.390614 10.7668, 0.574997  C10.795, 1.09745 10.8232, 1.59123 10.8514, 1.98915  C10.8963, 2.62639 10.9412, 3.00425 10.9861, 3 " /><path d="M9.36103, -3 C9.39994, -3.00244 9.43885, -2.7219 9.47776, -2.22851  C9.51332, -1.7807 9.54889, -1.16039 9.58445, -0.498611  C9.62927, 0.335446 9.67411, 1.22511 9.71894, 1.8818  C9.76144, 2.50881 9.80393, 2.91741 9.84644, 2.98741 " /><path d="M9.50064, -2.98742 C9.53729, -2.92608 9.57394, -2.61638 9.61059, -2.12755  C9.66267, -1.43846 9.71475, -0.388787 9.76682, 0.576227  C9.79507, 1.09914 9.82332, 1.59326 9.85157, 1.99124  C9.8964, 2.62724 9.94124, 3.00423 9.98606, 3 " /><path d="M8.36102, -3 C8.40016, -3.0025 8.43929, -2.7186 8.47843, -2.22004  C8.51428, -1.76647 8.55014, -1.13819 8.58599, -0.469947  C8.63032, 0.356179 8.67465, 1.23329 8.71899, 1.88256  C8.76147, 2.50915 8.80394, 2.91743 8.84643, 2.98741 " /><path d="M8.50064, -2.98742 C8.53744, -2.92585 8.57424, -2.6138 8.61104, -2.12154  C8.66308, -1.43095 8.71513, -0.381371 8.76716, 0.582529  C8.79548, 1.10644 8.82379, 1.60111 8.85211, 1.9988  C8.89676, 2.63033 8.94142, 3.00416 8.98606, 3 " /><path d="M7.36102, -3 C7.40018, -3.00251 7.43934, -2.71824 7.4785, -2.21918  C7.5138, -1.77235 7.5491, -1.15636 7.5844, -0.499516  C7.62915, 0.333112 7.67391, 1.2213 7.71866, 1.87781  C7.76126, 2.50703 7.80383, 2.91728 7.84643, 2.98741 " /><path d="M7.50064, -2.98742 C7.53728, -2.9261 7.57392, -2.61655 7.61056, -2.12792  C7.66267, -1.43854 7.71478, -0.388052 7.76689, 0.577464  C7.79516, 1.10072 7.82343, 1.59508 7.8517, 1.99306  C7.89649, 2.62798 7.94128, 3.00421 7.98606, 3 " /><path d="M6.36102, -3 C6.40007, -3.00248 6.43911, -2.71991 6.47816, -2.22344  C6.51399, -1.77098 6.54982, -1.14374 6.58565, -0.476109  C6.63021, 0.354059 6.67478, 1.23643 6.71935, 1.88786  C6.76171, 2.51151 6.80406, 2.9176 6.84643, 2.98741 " /><path d="M6.50064, -2.98742 C6.53718, -2.92625 6.57373, -2.6182 6.61027, -2.13176  C6.66234, -1.44419 6.71441, -0.395376 6.76648, 0.569905  C6.79476, 1.09366 6.82305, 1.58885 6.85133, 1.98783  C6.89624, 2.62585 6.94116, 3.00426 6.98606, 3 " /><path d="M5.36102, -3 C5.39993, -3.00244 5.43883, -2.72195 5.47774, -2.22866  C5.51341, -1.77952 5.54908, -1.1568 5.58475, -0.492785  C5.62956, 0.341208 5.67438, 1.23002 5.71919, 1.88557  C5.7616, 2.51049 5.80401, 2.91753 5.84643, 2.98741 " /><path d="M5.50064, -2.98742 C5.53741, -2.9259 5.57418, -2.61431 5.61096, -2.12272  C5.66281, -1.43496 5.71467, -0.390636 5.76652, 0.57059  C5.79481, 1.09451 5.82311, 1.58982 5.8514, 1.98879  C5.89629, 2.62624 5.94118, 3.00425 5.98606, 3 " /><path d="M4.20286, -1.91957 C4.30838, -1.1867 4.42855, -0.147431 4.53597, 0.785082  C4.61432, 1.46357 4.68596, 2.07702 4.74409, 2.47707  C4.78552, 2.76304 4.82019, 2.94138 4.84716, 2.98739 " /><path d="M4.50064, -2.98742 C4.53719, -2.92624 4.57375, -2.61808 4.6103, -2.13148  C4.66247, -1.44244 4.71465, -0.39073 4.76681, 0.576079  C4.79506, 1.09894 4.82331, 1.59302 4.85156, 1.99099  C4.89639, 2.62714 4.94124, 3.00423 4.98606, 3 " /><path d="M3.98606, 3 C3.94425, 3.00507 3.92591, 2.60102 3.92355, 1.93236 " /><path d="M3.92355, 1.93236 Q3.92355, 1.74513 3.92355, 1.53497 " /><path d="M3.92355, 1.53497 C3.92665, 0.46809 3.95654, -0.982715 3.95285, -1.9197 " /><path d="M3.95285, -1.9197 C3.95242, -2.10233 3.95696, -2.26606 3.97459, -2.38708  C3.98445, -2.45261 4.00016, -2.50839 4.02577, -2.50994  C4.06035, -2.50946 4.09531, -2.42121 4.12221, -2.32675  C4.15396, -2.21176 4.18085, -2.07604 4.20286, -1.91957 " /><path d="M3.92355, 1.93236 Q3.92355, 1.74435 3.92355, 1.53497 " /><path d="M0.72, 6 L0.72, 5.84957  L0.72, 5.40581  L0.72, 4.69099  L0.72, 3.74094  L0.72, 2.6033  L0.72, 1.33513  L0.72, 4.44089e-16  L0.72, -1.33513  L0.72, -2.6033  L0.72, -3.74094  L0.72, -4.69099  L0.72, -5.40581  L0.72, -5.84957  L0.72, -6 " /><path d="M0, 6 L0, 5.84957  L0, 5.40581  L0, 4.69099  L0, 3.74094  L0, 2.6033  L0, 1.33513  L0, 4.44089e-16  L0, -1.33513  L0, -2.6033  L0, -3.74094  L0, -4.69099  L0, -5.40581  L0, -5.84957  L0, -6 " /><path d="M0, -2.35576 L0, -2.2967  L0, -2.12247  L0, -1.84181  L0, -1.46879  L0, -1.02213  L0, -0.524206  L0, -1.11022e-16  L0, 0.524206  L0, 1.02213  L0, 1.46879  L0, 1.84181  L0, 2.12247  L0, 2.2967  L0, 2.35576 " /><path d="M0, 2.35576 L0, 2.2967  L0, 2.12247  L0, 1.84181  L0, 1.46879  L0, 1.02213  L0, 0.524206  L0, 4.44089e-16  L0, -0.524206  L0, -1.02213  L0, -1.46879  L0, -1.84181  L0, -2.12247  L0, -2.2967  L0, -2.35576 " /><path d="M0.0117202, 1.17202 L0.0965649, 0.9915  L0.167491, 0.817088  L0.224934, 0.64771  L0.26925, 0.482323  L0.30071, 0.319907  L0.319509, 0.159462  L0.325762, -3.05311e-16  L0.319509, -0.159462  L0.30071, -0.319907  L0.26925, -0.482323  L0.224934, -0.64771  L0.167491, -0.817088  L0.0965649, -0.9915  L0.0117202, -1.17202 " /><path d="M0.0117202, -1.17202 L0.0965649, -1.26228  L0.167491, -1.34949  L0.224934, -1.43418  L0.26925, -1.51687  L0.30071, -1.59808  L0.319509, -1.6783  L0.325762, -1.75803  L0.319509, -1.83776  L0.30071, -1.91799  L0.26925, -1.99919  L0.224934, -2.08189  L0.167491, -2.16658  L0.0965649, -2.25378  L0.0117202, -2.34404 " /><path id= "51" d=" M 3.42953e-16 -2.35576 L 0.0117202 -2.34404 " />
<path d="M0.0117202, -2.34404 L0.0965649, -2.25378  L0.167491, -2.16658  L0.224934, -2.08189  L0.26925, -1.99919  L0.30071, -1.91799  L0.319509, -1.83776  L0.325762, -1.75803  L0.319509, -1.6783  L0.30071, -1.59808  L0.26925, -1.51687  L0.224934, -1.43418  L0.167491, -1.34949  L0.0965649, -1.26228  L0.0117202, -1.17202 " /><path d="M0.0117202, -1.17202 L0.0965649, -0.9915  L0.167491, -0.817088  L0.224934, -0.64771  L0.26925, -0.482323  L0.30071, -0.319907  L0.319509, -0.159462  L0.325762, -5.55112e-17  L0.319509, 0.159462  L0.30071, 0.319907  L0.26925, 0.482323  L0.224934, 0.64771  L0.167491, 0.817088  L0.0965649, 0.9915  L0.0117202, 1.17202 " /><path d="M0.0117202, 1.17202 L0.0965649, 1.26228  L0.167491, 1.34949  L0.224934, 1.43418  L0.26925, 1.51687  L0.30071, 1.59808  L0.319509, 1.6783  L0.325762, 1.75803  L0.319509, 1.83776  L0.30071, 1.91799  L0.26925, 1.99919  L0.224934, 2.08189  L0.167491, 2.16658  L0.0965649, 2.25378  L0.0117202, 2.34404 " /><path d="M0.0117202, 2.34404 L0.0965649, 2.25378  L0.167491, 2.16658  L0.224934, 2.08189  L0.26925, 1.99919  L0.30071, 1.91799  L0.319509, 1.83776  L0.325762, 1.75803  L0.319509, 1.6783  L0.30071, 1.59808  L0.26925, 1.51687  L0.224934, 1.43418  L0.167491, 1.34949  L0.0965649, 1.26228  L0.0117202, 1.17202 " /><path id= "56" d=" M 0.0117202 -1.17202 L 2.2 -1.17202 " />
<path d="M2.2, 1.17202 Q2.22449, 1.08176 2.24899, 0.9915  Q2.26946, 0.904294 2.28993, 0.817088  Q2.30652, 0.732399 2.3231, 0.64771  Q2.33589, 0.565017 2.34868, 0.482323  Q2.3689, 0.319354 2.3777, 0.159462  Q2.37951, 0.0797312 2.38131, -2.22045e-16  Q2.37973, -0.159187 2.36685, -0.319907  Q2.35077, -0.48149 2.3231, -0.64771  Q2.30652, -0.732399 2.28993, -0.817088  Q2.26946, -0.904294 2.24899, -0.9915  Q2.22449, -1.08176 2.2, -1.17202 " /><path id= "58" d=" M 0.0117202 1.17202 L 2.2 1.17202 " />
<path d="M2.2, 2.34404 Q2.22449, 2.29891 2.24899, 2.25378  Q2.26946, 2.21018 2.28993, 2.16658  Q2.30652, 2.12423 2.3231, 2.08189  Q2.35077, 1.99878 2.36685, 1.91799  Q2.37973, 1.83762 2.38131, 1.75803  Q2.37951, 1.71817 2.3777, 1.6783  Q2.3689, 1.59835 2.34868, 1.51687  Q2.32522, 1.43474 2.28993, 1.34949  Q2.26946, 1.30588 2.24899, 1.26228  Q2.22449, 1.21715 2.2, 1.17202 " /><path id= "60" d=" M 0.0117202 2.34404 L 2.2 2.34404 " />
<path d="M2.2, 1.17202 Q2.22449, 1.21715 2.24899, 1.26228  Q2.26946, 1.30588 2.28993, 1.34949  Q2.30652, 1.39183 2.3231, 1.43418  Q2.35077, 1.51729 2.36685, 1.59808  Q2.37973, 1.67844 2.38131, 1.75803  Q2.37951, 1.7979 2.3777, 1.83776  Q2.3689, 1.91771 2.34868, 1.99919  Q2.32522, 2.08133 2.28993, 2.16658  Q2.26946, 2.21018 2.24899, 2.25378  Q2.22449, 2.29891 2.2, 2.34404 " /><path id= "62" d=" M 0.0117202 1.17202 L 2.2 1.17202 " />
<path d="M2.2, -1.17202 Q2.22449, -1.08176 2.24899, -0.9915  Q2.26946, -0.904294 2.28993, -0.817088  Q2.30652, -0.732399 2.3231, -0.64771  Q2.35077, -0.48149 2.36685, -0.319907  Q2.37973, -0.159187 2.38131, 1.11022e-16  Q2.37973, 0.159187 2.36685, 0.319907  Q2.35777, 0.401115 2.34868, 0.482323  Q2.33589, 0.565017 2.3231, 0.64771  Q2.30652, 0.732399 2.28993, 0.817088  Q2.26946, 0.904294 2.24899, 0.9915  Q2.22449, 1.08176 2.2, 1.17202 " /><path id= "64" d=" M 0.0117202 -1.17202 L 2.2 -1.17202 " />
<path d="M2.2, -2.34404 Q2.22449, -2.29891 2.24899, -2.25378  Q2.26946, -2.21018 2.28993, -2.16658  Q2.30652, -2.12423 2.3231, -2.08189  Q2.35077, -1.99878 2.36685, -1.91799  Q2.37973, -1.83762 2.38131, -1.75803  Q2.37951, -1.71817 2.3777, -1.6783  Q2.3689, -1.59835 2.34868, -1.51687  Q2.32522, -1.43474 2.28993, -1.34949  Q2.26946, -1.30588 2.24899, -1.26228  Q2.22449, -1.21715 2.2, -1.17202 " /><path id= "66" d=" M 0.0117202 -2.34404 L 2.2 -2.34404 " />
<path d="M2.2, -1.17202 Q2.22449, -1.21715 2.24899, -1.26228  Q2.26946, -1.30588 2.28993, -1.34949  Q2.32522, -1.43474 2.34868, -1.51687  Q2.35777, -1.55747 2.36685, -1.59808  Q2.37973, -1.67844 2.38131, -1.75803  Q2.37973, -1.83762 2.36685, -1.91799  Q2.35077, -1.99878 2.3231, -2.08189  Q2.30652, -2.12423 2.28993, -2.16658  Q2.26946, -2.21018 2.24899, -2.25378  Q2.22449, -2.29891 2.2, -2.34404 " /><path id= "68" d=" M 2.2 -2.34404 L 3.36581 -0.3248 " />
<path d="M3.36581, -0.3248 Q3.36581, -0.320728 3.36581, -0.316657  Q3.36581, -0.304646 3.36581, -0.292635  Q3.36581, -0.273287 3.36581, -0.253939  Q3.36581, -0.228224 3.36581, -0.202509  Q3.36581, -0.171717 3.36581, -0.140925  Q3.36581, -0.0732911 3.36581, -1.38778e-17  Q3.36581, 0.0361374 3.36581, 0.0722748  Q3.36581, 0.142907 3.36581, 0.202509  Q3.36581, 0.228224 3.36581, 0.253939  Q3.36581, 0.273287 3.36581, 0.292635  Q3.36581, 0.304646 3.36581, 0.316657  Q3.36581, 0.320728 3.36581, 0.3248 " /><path d="M3.36581, 0.3248 Q3.36581, 0.320728 3.36581, 0.316657  Q3.36581, 0.304646 3.36581, 0.292635  Q3.36581, 0.273287 3.36581, 0.253939  Q3.36581, 0.228224 3.36581, 0.202509  Q3.36581, 0.171717 3.36581, 0.140925  Q3.36581, 0.0732911 3.36581, 5.55112e-17  Q3.36581, -0.0361374 3.36581, -0.0722748  Q3.36581, -0.142907 3.36581, -0.202509  Q3.36581, -0.228224 3.36581, -0.253939  Q3.36581, -0.273287 3.36581, -0.292635  Q3.36581, -0.304646 3.36581, -0.316657  Q3.36581, -0.320728 3.36581, -0.3248 " /></g>
<g   fill="none"
   stroke="rgb(165, 165, 165)"
   stroke-dasharray="1.2,0.8"
   stroke-linecap="butt"
   stroke-linejoin="miter"
   stroke-width="0.25"
   transform="scale(1, -1)"
  >
<path id= "1" d=" M 0.0117202 2.34404 L 9.86613e-13 2.35576 " />
<path id= "2" d=" M 3.36581 0.3248 L 2.2 2.34404 " />
</g>
<g   fill="none"
   stroke="rgb(0, 0, 0)"
   stroke-linecap="butt"
   stroke-linejoin="miter"
   stroke-width="0.35"
   transform="scale(1, -1)"
  >
<path id= "1" d=" M 19.6036 -2.7964 L 19.4 -3 " />
<path d="M19.4236, 2.38657 Q19.3771, 2.3875 19.3432, 2.41371  Q19.3227, 2.43097 19.3163, 2.44343 " /><path d="M19.8163, -2.44342 Q19.8221, -2.4322 19.8402, -2.4161  Q19.8639, -2.39635 19.8972, -2.38919  Q19.9104, -2.38788 19.9236, -2.38656  Q19.9615, -2.38699 19.9923, -2.40573 " /><path id= "4" d=" M 20 -2.4 L 19.9947 -2.40531 " />
<path d="M19.3465, -2.98741 L19.0308, -2.44343 " /><path d="M19.5308, 2.44343 L19.6821, 2.70403 " /><path id= "7" d=" M 19.4 -3 L 19.361 -3 " />
<path d="M19.3163, 2.44343 L19.0006, 2.98741 " /><path d="M19.8163, -2.44342 L19.6411, -2.74522 " /><path d="M19.0308, -2.44343 Q19.025, -2.43221 19.0069, -2.41611  Q18.9832, -2.39635 18.9499, -2.3892  Q18.9367, -2.38788 18.9235, -2.38657  Q18.8771, -2.3875 18.8432, -2.41372  Q18.8227, -2.43097 18.8163, -2.44343 " /><path d="M19.5308, 2.44343 Q19.525, 2.43221 19.5069, 2.41611  Q19.4725, 2.38771 19.4236, 2.38657 " /><path d="M18.4236, 2.38657 Q18.3771, 2.3875 18.3432, 2.41372  Q18.3227, 2.43097 18.3163, 2.44343 " /><path d="M18.3465, -2.98741 L18.0308, -2.44343 " /><path d="M18.8465, 2.98741 L18.5308, 2.44343 " /><path id= "15" d=" M 18.4861 -3 L 18.361 -3 " />
<path d="M18.3163, 2.44343 L18.0006, 2.98741 " /><path d="M18.8163, -2.44343 L18.5006, -2.98741 " /><path d="M18.0308, -2.44343 Q18.025, -2.43221 18.0069, -2.41611  Q17.9832, -2.39636 17.9499, -2.3892  Q17.9367, -2.38788 17.9235, -2.38657  Q17.8771, -2.38751 17.8432, -2.41372  Q17.8227, -2.43097 17.8163, -2.44343 " /><path d="M18.5308, 2.44343 Q18.525, 2.43221 18.5069, 2.41611  Q18.4725, 2.38772 18.4236, 2.38657 " /><path d="M17.4236, 2.38657 Q17.3771, 2.38751 17.3432, 2.41372  Q17.3227, 2.43097 17.3163, 2.44343 " /><path d="M17.3465, -2.98741 L17.0308, -2.44343 " /><path d="M17.8465, 2.98741 L17.5308, 2.44344 " /><path id= "23" d=" M 17.4861 -3 L 17.361 -3 " />
<path d="M17.3163, 2.44343 L17.0006, 2.98741 " /><path d="M17.8163, -2.44343 L17.5006, -2.98741 " /><path d="M17.0308, -2.44343 Q17.025, -2.43221 17.0069, -2.41611  Q16.9832, -2.39636 16.9499, -2.3892  Q16.9367, -2.38789 16.9235, -2.38657  Q16.8771, -2.38751 16.8432, -2.41372  Q16.8227, -2.43097 16.8163, -2.44343 " /><path d="M17.5308, 2.44344 Q17.525, 2.43221 17.5069, 2.41611  Q17.4725, 2.38772 17.4236, 2.38657 " /><path d="M16.4236, 2.38658 Q16.3771, 2.38751 16.3432, 2.41372  Q16.3227, 2.43097 16.3163, 2.44344 " /><path d="M16.3465, -2.98741 L16.0308, -2.44343 " /><path d="M16.8465, 2.98741 L16.5308, 2.44344 " /><path id= "31" d=" M 16.4861 -3 L 16.361 -3 " />
<path d="M16.3163, 2.44344 L16.0006, 2.98741 " /><path d="M16.8163, -2.44343 L16.5006, -2.98742 " /><path d="M16.0308, -2.44343 Q16.025, -2.43221 16.0069, -2.41611  Q15.9832, -2.39636 15.9499, -2.3892  Q15.9367, -2.38789 15.9235, -2.38657  Q15.8771, -2.38751 15.8432, -2.41372  Q15.8227, -2.43097 15.8163, -2.44343 " /><path d="M16.5308, 2.44344 Q16.525, 2.43222 16.5069, 2.41612  Q16.4725, 2.38772 16.4236, 2.38658 " /><path d="M15.4236, 2.38658 Q15.3771, 2.38751 15.3432, 2.41372  Q15.3227, 2.43098 15.3163, 2.44344 " /><path d="M15.3465, -2.98741 L15.0308, -2.44344 " /><path d="M15.8465, 2.98741 L15.5308, 2.44344 " /><path id= "39" d=" M 15.4861 -3 L 15.361 -3 " />
<path d="M15.3163, 2.44344 L15.0006, 2.98741 " /><path d="M15.8163, -2.44343 L15.5006, -2.98742 " /><path d="M15.0308, -2.44344 Q15.025, -2.43222 15.0069, -2.41612  Q14.9832, -2.39636 14.9499, -2.3892  Q14.9367, -2.38789 14.9235, -2.38658  Q14.8771, -2.38751 14.8432, -2.41373  Q14.8227, -2.43098 14.8163, -2.44343 " /><path d="M15.5308, 2.44344 Q15.525, 2.43222 15.5069, 2.41612  Q15.4725, 2.38772 15.4236, 2.38658 " /><path d="M14.4236, 2.38658 Q14.3771, 2.38751 14.3432, 2.41372  Q14.3227, 2.43098 14.3163, 2.44344 " /><path d="M14.3465, -2.98741 L14.0308, -2.44344 " /><path d="M14.8464, 2.98741 L14.5308, 2.44344 " /><path id= "47" d=" M 14.4861 -3 L 14.361 -3 " />
<path d="M14.3163, 2.44344 L14.0006, 2.98741 " /><path d="M14.8163, -2.44343 L14.5006, -2.98742 " /><path d="M14.0308, -2.44344 Q14.025, -2.43222 14.0069, -2.41612  Q13.9832, -2.39637 13.9499, -2.38921  Q13.9367, -2.38789 13.9236, -2.38658  Q13.8771, -2.38752 13.8432, -2.41373  Q13.8227, -2.43098 13.8163, -2.44344 " /><path d="M14.5308, 2.44344 Q14.525, 2.43222 14.5069, 2.41612  Q14.4725, 2.38773 14.4236, 2.38658 " /><path d="M13.4236, 2.38658 Q13.3771, 2.38752 13.3432, 2.41373  Q13.3227, 2.43098 13.3163, 2.44344 " /><path d="M13.3465, -2.98741 L13.0308, -2.44344 " /><path d="M13.8464, 2.98741 L13.5308, 2.44345 " /><path id= "55" d=" M 13.4861 -3 L 13.361 -3 " />
<path d="M13.3163, 2.44344 L13.0006, 2.98741 " /><path d="M13.8163, -2.44344 L13.5006, -2.98742 " /><path d="M13.0308, -2.44344 Q13.025, -2.43222 13.0069, -2.41612  Q12.9832, -2.39637 12.9499, -2.38921  Q12.9367, -2.38789 12.9236, -2.38658  Q12.8771, -2.38752 12.8432, -2.41373  Q12.8227, -2.43098 12.8163, -2.44344 " /><path d="M13.5308, 2.44345 Q13.525, 2.43222 13.5069, 2.41613  Q13.4725, 2.38773 13.4236, 2.38658 " /><path d="M12.4236, 2.38659 Q12.3771, 2.38752 12.3432, 2.41373  Q12.3227, 2.43098 12.3163, 2.44345 " /><path d="M12.3464, -2.98741 L12.0308, -2.44344 " /><path d="M12.8464, 2.98741 L12.5308, 2.44345 " /><path id= "63" d=" M 12.4861 -3 L 12.361 -3 " />
<path d="M12.3163, 2.44345 L12.0006, 2.98741 " /><path d="M12.8163, -2.44344 L12.5006, -2.98742 " /><path d="M12.0308, -2.44344 Q12.025, -2.43222 12.0069, -2.41612  Q11.9832, -2.39637 11.9499, -2.38921  Q11.9368, -2.3879 11.9236, -2.38658  Q11.8771, -2.38752 11.8432, -2.41373  Q11.8227, -2.43098 11.8163, -2.44344 " /><path d="M12.5308, 2.44345 Q12.525, 2.43223 12.5069, 2.41613  Q12.4725, 2.38773 12.4236, 2.38659 " /><path d="M11.4236, 2.38659 Q11.3771, 2.38752 11.3432, 2.41373  Q11.3227, 2.43098 11.3163, 2.44345 " /><path d="M11.3464, -2.98741 L11.0308, -2.44345 " /><path d="M11.8464, 2.98741 L11.5308, 2.44345 " /><path id= "71" d=" M 11.4861 -3 L 11.361 -3 " />
<path d="M11.3163, 2.44345 L11.0006, 2.98741 " /><path d="M11.8163, -2.44344 L11.5006, -2.98742 " /><path d="M11.0308, -2.44345 Q11.025, -2.43223 11.0069, -2.41613  Q10.9832, -2.39637 10.95, -2.38921  Q10.9368, -2.3879 10.9236, -2.38658  Q10.8771, -2.38752 10.8432, -2.41373  Q10.8227, -2.43098 10.8163, -2.44344 " /><path d="M11.5308, 2.44345 Q11.525, 2.43223 11.5069, 2.41613  Q11.4725, 2.38773 11.4236, 2.38659 " /><path d="M10.4236, 2.38659 Q10.3771, 2.38752 10.3432, 2.41373  Q10.3227, 2.43099 10.3163, 2.44345 " /><path d="M10.3464, -2.98741 L10.0308, -2.44345 " /><path d="M10.8464, 2.98741 L10.5308, 2.44345 " /><path id= "79" d=" M 10.4861 -3 L 10.361 -3 " />
<path d="M10.3163, 2.44345 L10.0006, 2.98741 " /><path d="M10.8163, -2.44344 L10.5006, -2.98742 " /><path d="M10.0308, -2.44345 Q10.025, -2.43223 10.0069, -2.41613  Q9.9832, -2.39638 9.94995, -2.38922  Q9.93676, -2.3879 9.92356, -2.38659  Q9.87711, -2.38752 9.84322, -2.41374  Q9.82272, -2.43099 9.81634, -2.44344 " /><path d="M10.5308, 2.44345 Q10.525, 2.43223 10.5069, 2.41613  Q10.4725, 2.38773 10.4236, 2.38659 " /><path d="M9.42357, 2.38659 Q9.37712, 2.38752 9.34323, 2.41374  Q9.32272, 2.43099 9.31634, 2.44345 " /><path d="M9.34644, -2.98741 L9.03081, -2.44345 " /><path d="M9.84644, 2.98741 L9.53081, 2.44346 " /><path id= "87" d=" M 9.48606 -3 L 9.36103 -3 " />
<path d="M9.31634, 2.44345 L9.00064, 2.98741 " /><path d="M9.81634, -2.44344 L9.50064, -2.98742 " /><path d="M9.03081, -2.44345 Q9.02502, -2.43223 9.00692, -2.41613  Q8.9832, -2.39638 8.94995, -2.38922  Q8.93676, -2.3879 8.92356, -2.38659  Q8.87711, -2.38753 8.84322, -2.41374  Q8.82272, -2.43099 8.81635, -2.44345 " /><path d="M9.53081, 2.44346 Q9.52502, 2.43224 9.50692, 2.41614  Q9.47249, 2.38774 9.42357, 2.38659 " /><path d="M8.42357, 2.3866 Q8.37712, 2.38753 8.34323, 2.41374  Q8.32273, 2.43099 8.31635, 2.44345 " /><path d="M8.34644, -2.98741 L8.03081, -2.44345 " /><path d="M8.84643, 2.98741 L8.53081, 2.44346 " /><path id= "95" d=" M 8.48606 -3 L 8.36102 -3 " />
<path d="M8.31635, 2.44345 L8.00064, 2.98741 " /><path d="M8.81635, -2.44345 L8.50064, -2.98742 " /><path d="M8.03081, -2.44345 Q8.02502, -2.43224 8.00692, -2.41614  Q7.98321, -2.39638 7.94996, -2.38922  Q7.93676, -2.38791 7.92356, -2.38659  Q7.87711, -2.38753 7.84323, -2.41374  Q7.82273, -2.43099 7.81635, -2.44345 " /><path d="M8.53081, 2.44346 Q8.52502, 2.43224 8.50692, 2.41614  Q8.47249, 2.38774 8.42357, 2.3866 " /><path d="M7.42358, 2.3866 Q7.37713, 2.38753 7.34323, 2.41374  Q7.32273, 2.43099 7.31635, 2.44346 " /><path d="M7.34644, -2.98741 L7.03081, -2.44346 " /><path d="M7.84643, 2.98741 L7.53081, 2.44346 " /><path id= "103" d=" M 7.48606 -3 L 7.36102 -3 " />
<path d="M7.31635, 2.44346 L7.00064, 2.98742 " /><path d="M7.81635, -2.44345 L7.50064, -2.98742 " /><path d="M7.03081, -2.44346 Q7.02502, -2.43224 7.00693, -2.41614  Q6.98321, -2.39638 6.94996, -2.38922  Q6.93676, -2.38791 6.92357, -2.38659  Q6.87712, -2.38753 6.84323, -2.41374  Q6.82273, -2.43099 6.81635, -2.44345 " /><path d="M7.53081, 2.44346 Q7.52502, 2.43224 7.50692, 2.41614  Q7.4725, 2.38774 7.42358, 2.3866 " /><path d="M6.42358, 2.3866 Q6.37713, 2.38753 6.34324, 2.41374  Q6.32273, 2.43099 6.31635, 2.44346 " /><path d="M6.34643, -2.98741 L6.03081, -2.44346 " /><path d="M6.84643, 2.98741 L6.53081, 2.44346 " /><path id= "111" d=" M 6.48606 -3 L 6.36102 -3 " />
<path d="M6.31635, 2.44346 L6.00064, 2.98742 " /><path d="M6.81635, -2.44345 L6.50064, -2.98742 " /><path d="M6.03081, -2.44346 Q6.02503, -2.43224 6.00693, -2.41614  Q5.98321, -2.39639 5.94996, -2.38923  Q5.93677, -2.38791 5.92357, -2.3866  Q5.87712, -2.38753 5.84323, -2.41374  Q5.82273, -2.43099 5.81635, -2.44345 " /><path d="M6.53081, 2.44346 Q6.52502, 2.43224 6.50693, 2.41614  Q6.4725, 2.38774 6.42358, 2.3866 " /><path d="M5.42358, 2.3866 Q5.37713, 2.38753 5.34324, 2.41374  Q5.32273, 2.431 5.31635, 2.44346 " /><path d="M5.34643, -2.98741 L5.03082, -2.44346 " /><path d="M5.84643, 2.98741 L5.53081, 2.44347 " /><path id= "119" d=" M 5.48606 -3 L 5.36102 -3 " />
<path d="M5.31635, 2.44346 L5.00064, 2.98742 " /><path d="M5.81635, -2.44345 L5.50064, -2.98742 " /><path d="M5.03082, -2.44346 Q5.02503, -2.43224 5.00693, -2.41614  Q4.98321, -2.39639 4.94996, -2.38923  Q4.93677, -2.38791 4.92357, -2.3866  Q4.87712, -2.38753 4.84323, -2.41375  Q4.82273, -2.431 4.81635, -2.44346 " /><path d="M5.53081, 2.44347 Q5.52503, 2.43225 5.50693, 2.41615  Q5.4725, 2.38775 5.42358, 2.3866 " /><path d="M4.42358, 2.3866 Q4.37713, 2.38754 4.34324, 2.41375  Q4.32274, 2.431 4.31635, 2.44346 " /><path d="M4.84716, 2.98739 L4.53295, 2.44529 " /><path id= "126" d=" M 4.48606 -3 L 3.82355 -3 " />
<path d="M4.31635, 2.44346 L4.00064, 2.98742 " /><path d="M4.81635, -2.44346 L4.50064, -2.98742 " /><path d="M4.53295, 2.44529 Q4.52643, 2.43289 4.50799, 2.41659  Q4.47291, 2.3877 4.42359, 2.3866 " /><path d="M3.64678, -3.07322 Q3.72063, -3.00151 3.82355, -3 " /><path id= "131" d=" M 3.64678 -3.07322 L 0.72 -6 " />
<path id= "132" d=" M 0.72 -6 L 0 -6 " />
</g>
<g   fill="none"
   stroke="rgb(0, 0, 0)"
   stroke-linecap="butt"
   stroke-linejoin="miter"
   stroke-width="0.35"
   transform="scale(1, -1)"
  >
<path d="M20, -2.4 L20, -2.33983  L20, -2.16233  L20, -1.8764  L20, -1.49638  L20, -1.04132  L20, -0.53405  L20, -4.44089e-16  L20, 0.53405  L20, 1.04132  L20, 1.49638  L20, 1.8764  L20, 2.16233  L20, 2.33983  L20, 2.4 " /><path id= "2" d=" M 20 2.4 L 19.6923 2.7077 " />
<path d="M19.4, -2.57205 Q19.4991, -2.89848 19.6036, -2.7964 " /><path d="M19.6036, -2.7964 Q19.6223, -2.77772 19.6411, -2.74522 " /><path d="M19.4, -3 C19.4, -3.00006 19.4, -2.85054 19.4, -2.57205 " /><path d="M19.6923, 2.7077 Q19.6872, 2.71281 19.6821, 2.70403 " /><path d="M19.9947, -2.40531 L19.9923, -2.40573 " /><path d="M19.9923, -2.40573 C19.9794, -2.3992 19.9623, -2.22652 19.9413, -1.92082 " /><path d="M19.6923, 2.7077 C19.7131, 2.68806 19.7341, 2.48848 19.7553, 2.1449  C19.7758, 1.81587 19.7964, 1.35516 19.8172, 0.844604  C19.8578, -0.153672 19.8991, -1.31863 19.9413, -1.92082 " /><path d="M18.861, 3 C18.8995, 3.00234 18.938, 2.72822 18.9765, 2.24476  C19.0261, 1.62678 19.0758, 0.662951 19.1255, -0.271164  C19.16, -0.920146 19.1945, -1.54699 19.2291, -2.02638  C19.2682, -2.57255 19.3073, -2.92234 19.3465, -2.98741 " /><path d="M19.3465, -2.98741 Q19.3538, -3 19.361, -3 " /><path d="M18.9861, 3 Q18.9933, 3 19.0006, 2.98741 " /><path d="M19.0006, 2.98741 C19.0398, 2.92224 19.079, 2.57136 19.1182, 2.02366  C19.1456, 1.64362 19.1729, 1.17221 19.2002, 0.669724  C19.218, 0.340221 19.2358, 0.00749128 19.2535, -0.328463  C19.3023, -1.24637 19.3512, -2.10216 19.4, -2.57205 " /><path id= "14" d=" M 18.9861 3 L 18.861 3 " />
<path d="M17.861, 3 C17.8995, 3.00234 17.938, 2.72822 17.9765, 2.24475  C18.0262, 1.62644 18.0759, 0.661878 18.1255, -0.272708  C18.1601, -0.922606 18.1947, -1.55018 18.2293, -2.02961  C18.2684, -2.57396 18.3074, -2.92246 18.3465, -2.98741 " /><path d="M18.3465, -2.98741 Q18.3538, -3 18.361, -3 " /><path d="M18.8465, 2.98741 Q18.8538, 3 18.861, 3 " /><path d="M17.9861, 3 Q17.9933, 3 18.0006, 2.98741 " /><path d="M18.0006, 2.98741 C18.0398, 2.92224 18.079, 2.57136 18.1182, 2.02365  C18.1633, 1.39781 18.2084, 0.517574 18.2535, -0.3285  C18.2889, -0.992407 18.3243, -1.62842 18.3597, -2.10336  C18.4018, -2.67255 18.4439, -3.00332 18.4861, -3 " /><path d="M18.4861, -3 Q18.4933, -3 18.5006, -2.98741 " /><path id= "21" d=" M 17.9861 3 L 17.861 3 " />
<path d="M16.861, 3 C16.8995, 3.00234 16.938, 2.72822 16.9765, 2.24475  C17.0262, 1.62607 17.0759, 0.660714 17.1256, -0.274384  C17.1597, -0.915552 17.1939, -1.53497 17.228, -2.01157  C17.2675, -2.56608 17.307, -2.92182 17.3465, -2.98741 " /><path d="M17.3465, -2.98741 Q17.3538, -3 17.361, -3 " /><path d="M17.8465, 2.98741 Q17.8538, 3 17.861, 3 " /><path d="M16.9861, 3 Q16.9933, 3 17.0006, 2.98741 " /><path d="M17.0006, 2.98741 C17.0398, 2.92224 17.079, 2.57136 17.1182, 2.02366  C17.1633, 1.39782 17.2084, 0.51759 17.2535, -0.328479  C17.2889, -0.993022 17.3244, -1.62961 17.3598, -2.10471  C17.4019, -2.67308 17.444, -3.00331 17.4861, -3 " /><path d="M17.4861, -3 Q17.4933, -3 17.5006, -2.98741 " /><path id= "28" d=" M 16.9861 3 L 16.861 3 " />
<path d="M15.861, 3 C15.8995, 3.00234 15.938, 2.72822 15.9765, 2.24474  C16.0259, 1.62984 16.0753, 0.672692 16.1247, -0.257087  C16.1595, -0.911313 16.1943, -1.54405 16.2291, -2.02697  C16.2682, -2.5728 16.3073, -2.92236 16.3465, -2.98741 " /><path d="M16.3465, -2.98741 Q16.3538, -3 16.361, -3 " /><path d="M16.8465, 2.98741 Q16.8537, 3 16.861, 3 " /><path d="M15.9861, 3 Q15.9933, 3 16.0006, 2.98741 " /><path d="M16.0006, 2.98741 C16.0398, 2.92224 16.079, 2.57136 16.1182, 2.02366  C16.1633, 1.39783 16.2084, 0.517619 16.2535, -0.328439  C16.289, -0.99408 16.3245, -1.63166 16.36, -2.10703  C16.402, -2.67401 16.444, -3.00329 16.4861, -3 " /><path d="M16.4861, -3 Q16.4933, -3 16.5006, -2.98741 " /><path id= "35" d=" M 15.9861 3 L 15.861 3 " />
<path d="M14.861, 3 C14.8995, 3.00234 14.938, 2.72821 14.9765, 2.24474  C15.0259, 1.62959 15.0753, 0.671895 15.1248, -0.258237  C15.1592, -0.904748 15.1935, -1.53029 15.2279, -2.01076  C15.2674, -2.56572 15.307, -2.92179 15.3465, -2.98741 " /><path d="M15.3465, -2.98741 Q15.3537, -3 15.361, -3 " /><path d="M15.8465, 2.98741 Q15.8537, 3 15.861, 3 " /><path d="M14.9861, 3 Q14.9933, 3 15.0006, 2.98741 " /><path d="M15.0006, 2.98741 C15.0398, 2.92224 15.079, 2.57136 15.1182, 2.02366  C15.1633, 1.39784 15.2084, 0.517628 15.2535, -0.328427  C15.289, -0.994381 15.3245, -1.63225 15.36, -2.10768  C15.402, -2.67427 15.444, -3.00328 15.4861, -3 " /><path d="M15.4861, -3 Q15.4933, -3 15.5006, -2.98742 " /><path id= "42" d=" M 14.9861 3 L 14.861 3 " />
<path d="M13.861, 3 C13.8995, 3.00234 13.938, 2.72821 13.9765, 2.24473  C14.0259, 1.62936 14.0754, 0.67119 14.1248, -0.259253  C14.1592, -0.906514 14.1937, -1.53267 14.2281, -2.01323  C14.2676, -2.5668 14.307, -2.92187 14.3465, -2.98741 " /><path d="M14.3465, -2.98741 Q14.3537, -3 14.361, -3 " /><path d="M14.8464, 2.98741 Q14.8537, 3 14.861, 3 " /><path d="M13.9861, 3 Q13.9933, 3 14.0006, 2.98741 " /><path d="M14.0006, 2.98741 C14.0398, 2.92225 14.079, 2.57136 14.1182, 2.02366  C14.1633, 1.39783 14.2084, 0.517623 14.2535, -0.328433  C14.289, -0.994228 14.3245, -1.63195 14.36, -2.10735  C14.402, -2.67414 14.444, -3.00329 14.4861, -3 " /><path d="M14.4861, -3 Q14.4933, -3 14.5006, -2.98742 " /><path id= "49" d=" M 13.9861 3 L 13.861 3 " />
<path d="M12.861, 3 C12.8995, 3.00234 12.938, 2.72821 12.9765, 2.24473  C13.0259, 1.62911 13.0754, 0.670421 13.1249, -0.26036  C13.1596, -0.913714 13.1944, -1.5454 13.2291, -2.0276  C13.2682, -2.57308 13.3074, -2.92238 13.3465, -2.98741 " /><path d="M13.3465, -2.98741 Q13.3537, -3 13.361, -3 " /><path d="M13.8464, 2.98741 Q13.8537, 3 13.861, 3 " /><path d="M12.9861, 3 Q12.9933, 3 13.0006, 2.98741 " /><path d="M13.0006, 2.98741 C13.0398, 2.92225 13.079, 2.57136 13.1182, 2.02366  C13.1633, 1.39783 13.2084, 0.51762 13.2535, -0.328438  C13.289, -0.994105 13.3245, -1.63171 13.36, -2.10708  C13.402, -2.67403 13.444, -3.00329 13.4861, -3 " /><path d="M13.4861, -3 Q13.4933, -3 13.5006, -2.98742 " /><path id= "56" d=" M 12.9861 3 L 12.861 3 " />
<path d="M11.861, 3 C11.8995, 3.00234 11.938, 2.72821 11.9765, 2.24473  C12.026, 1.62887 12.0754, 0.669663 12.1249, -0.261452  C12.1596, -0.91278 12.1942, -1.54252 12.2289, -2.02397  C12.2681, -2.57149 12.3073, -2.92225 12.3464, -2.98741 " /><path d="M12.3464, -2.98741 Q12.3537, -3 12.361, -3 " /><path d="M12.8464, 2.98741 Q12.8537, 3 12.861, 3 " /><path d="M11.9861, 3 Q11.9933, 3 12.0006, 2.98741 " /><path d="M12.0006, 2.98741 C12.0398, 2.92225 12.079, 2.57136 12.1182, 2.02366  C12.1633, 1.39784 12.2084, 0.517638 12.2535, -0.328414  C12.289, -0.994689 12.3246, -1.63284 12.3601, -2.10836  C12.4021, -2.67454 12.4441, -3.00328 12.4861, -3 " /><path d="M12.4861, -3 Q12.4933, -3 12.5006, -2.98742 " /><path id= "63" d=" M 11.9861 3 L 11.861 3 " />
<path d="M10.861, 3 C10.8995, 3.00234 10.938, 2.72821 10.9765, 2.24472  C11.026, 1.62864 11.0755, 0.66893 11.125, -0.262508  C11.1595, -0.912251 11.1941, -1.54045 11.2287, -2.02129  C11.2679, -2.57032 11.3072, -2.92216 11.3464, -2.98741 " /><path d="M11.3464, -2.98741 Q11.3537, -3 11.361, -3 " /><path d="M11.8464, 2.98741 Q11.8537, 3 11.861, 3 " /><path d="M10.9861, 3 Q10.9933, 3 11.0006, 2.98741 " /><path d="M11.0006, 2.98741 C11.0398, 2.92225 11.079, 2.57137 11.1182, 2.02366  C11.1633, 1.39785 11.2084, 0.51765 11.2535, -0.328397  C11.2891, -0.995069 11.3246, -1.63358 11.3602, -2.10919  C11.4021, -2.67488 11.4441, -3.00327 11.4861, -3 " /><path d="M11.4861, -3 Q11.4933, -3 11.5006, -2.98742 " /><path id= "70" d=" M 10.9861 3 L 10.861 3 " />
<path d="M9.86103, 3 C9.89951, 3.00234 9.93799, 2.72821 9.97648, 2.24472  C10.026, 1.62839 10.0755, 0.668173 10.125, -0.263597  C10.1593, -0.90682 10.1935, -1.52893 10.2277, -2.00765  C10.2673, -2.56436 10.3069, -2.92167 10.3464, -2.98741 " /><path d="M10.3464, -2.98741 Q10.3537, -3 10.361, -3 " /><path d="M10.8464, 2.98741 Q10.8537, 3 10.861, 3 " /><path d="M9.98606, 3 Q9.99335, 3 10.0006, 2.98741 " /><path d="M10.0006, 2.98741 C10.0398, 2.92225 10.079, 2.57137 10.1182, 2.02366  C10.1633, 1.39785 10.2084, 0.517658 10.2535, -0.328386  C10.2891, -0.995326 10.3246, -1.63408 10.3602, -2.10976  C10.4021, -2.6751 10.4441, -3.00327 10.4861, -3 " /><path d="M10.4861, -3 Q10.4933, -3 10.5006, -2.98742 " /><path id= "77" d=" M 9.98606 3 L 9.86103 3 " />
<path d="M8.86102, 3 C8.89951, 3.00234 8.93799, 2.7282 8.97648, 2.24471  C9.02601, 1.62817 9.07555, 0.667466 9.12508, -0.264615  C9.15962, -0.913589 9.19415, -1.54092 9.22868, -2.02123  C9.26793, -2.5703 9.30719, -2.92215 9.34644, -2.98741 " /><path d="M9.34644, -2.98741 Q9.35373, -3 9.36103, -3 " /><path d="M9.84644, 2.98741 Q9.85373, 3 9.86103, 3 " /><path d="M8.98606, 3 Q8.99335, 3 9.00064, 2.98741 " /><path d="M9.00064, 2.98741 C9.03984, 2.92225 9.07903, 2.57137 9.11822, 2.02366  C9.16332, 1.39786 9.20842, 0.517672 9.25351, -0.328367  C9.28909, -0.995734 9.32468, -1.63488 9.36026, -2.11066  C9.40219, -2.67546 9.44412, -3.00326 9.48606, -3 " /><path d="M9.48606, -3 Q9.49335, -3 9.50064, -2.98742 " /><path id= "84" d=" M 8.98606 3 L 8.86102 3 " />
<path d="M7.86102, 3 C7.8995, 3.00234 7.93799, 2.7282 7.97647, 2.24471  C8.02603, 1.62794 8.07558, 0.666765 8.12513, -0.265625  C8.15981, -0.917204 8.19448, -1.54686 8.22915, -2.02779  C8.26824, -2.57316 8.30735, -2.92239 8.34644, -2.98741 " /><path d="M8.34644, -2.98741 Q8.35373, -3 8.36102, -3 " /><path d="M8.84643, 2.98741 Q8.85373, 3 8.86102, 3 " /><path d="M7.98606, 3 Q7.99335, 3 8.00064, 2.98741 " /><path d="M8.00064, 2.98741 C8.03984, 2.92225 8.07903, 2.57137 8.11822, 2.02367  C8.16332, 1.39786 8.20842, 0.517677 8.25351, -0.32836  C8.2891, -0.99588 8.32469, -1.63516 8.36028, -2.11098  C8.40221, -2.67559 8.44413, -3.00326 8.48606, -3 " /><path d="M8.48606, -3 Q8.49335, -3 8.50064, -2.98742 " /><path id= "91" d=" M 7.98606 3 L 7.86102 3 " />
<path d="M6.86102, 3 C6.8995, 3.00234 6.93799, 2.7282 6.97647, 2.2447  C7.02604, 1.62771 7.07561, 0.666048 7.12519, -0.266656  C7.15941, -0.909754 7.19363, -1.53152 7.22786, -2.00978  C7.26738, -2.56529 7.30691, -2.92175 7.34644, -2.98741 " /><path d="M7.34644, -2.98741 Q7.35373, -3 7.36102, -3 " /><path d="M7.84643, 2.98741 Q7.85373, 3 7.86102, 3 " /><path d="M6.98606, 3 Q6.99335, 3 7.00064, 2.98742 " /><path d="M7.00064, 2.98742 C7.03984, 2.92225 7.07903, 2.57137 7.11822, 2.02367  C7.16332, 1.39786 7.20842, 0.517685 7.25351, -0.32835  C7.28911, -0.996098 7.32472, -1.63559 7.36032, -2.11146  C7.40223, -2.67578 7.44414, -3.00326 7.48606, -3 " /><path d="M7.48606, -3 Q7.49335, -3 7.50064, -2.98742 " /><path id= "98" d=" M 6.98606 3 L 6.86102 3 " />
<path d="M5.86102, 3 C5.8995, 3.00234 5.93799, 2.7282 5.97647, 2.2447  C6.02606, 1.62748 6.07565, 0.665343 6.12524, -0.267671  C6.15951, -0.911606 6.19377, -1.53407 6.22804, -2.01244  C6.26751, -2.56645 6.30697, -2.92184 6.34643, -2.98741 " /><path d="M6.34643, -2.98741 Q6.35373, -3 6.36102, -3 " /><path d="M6.84643, 2.98741 Q6.85372, 3 6.86102, 3 " /><path d="M5.98606, 3 Q5.99335, 3 6.00064, 2.98742 " /><path d="M6.00064, 2.98742 C6.03984, 2.92225 6.07903, 2.57137 6.11822, 2.02367  C6.16332, 1.39786 6.20842, 0.517692 6.25351, -0.32834  C6.28913, -0.99629 6.32474, -1.63596 6.36035, -2.11188  C6.40226, -2.67595 6.44415, -3.00325 6.48606, -3 " /><path d="M6.48606, -3 Q6.49335, -3 6.50064, -2.98742 " /><path id= "105" d=" M 5.98606 3 L 5.86102 3 " />
<path d="M4.86101, 3 C4.8995, 3.00234 4.93798, 2.7282 4.97647, 2.2447  C5.02607, 1.62726 5.07568, 0.664648 5.12529, -0.268671  C5.15967, -0.914618 5.19404, -1.53886 5.22842, -2.0177  C5.26775, -2.56875 5.3071, -2.92202 5.34643, -2.98741 " /><path d="M5.34643, -2.98741 Q5.35372, -3 5.36102, -3 " /><path d="M5.84643, 2.98741 Q5.85372, 3 5.86102, 3 " /><path d="M4.98606, 3 Q4.99335, 3 5.00064, 2.98742 " /><path d="M5.00064, 2.98742 C5.03984, 2.92225 5.07903, 2.57137 5.11823, 2.02367  C5.16332, 1.39787 5.20842, 0.517702 5.25351, -0.328326  C5.28914, -0.996573 5.32477, -1.63651 5.3604, -2.1125  C5.40229, -2.6762 5.44417, -3.00325 5.48606, -3 " /><path d="M5.48606, -3 Q5.49335, -3 5.50064, -2.98742 " /><path id= "112" d=" M 4.98606 3 L 4.86101 3 " />
<path d="M4.84716, 2.98739 Q4.85445, 3 4.86101, 3 " /><path d="M3.98606, 3 Q3.99335, 3 4.00064, 2.98742 " /><path d="M4.00064, 2.98742 C4.03984, 2.92225 4.07903, 2.57137 4.11823, 2.02367  C4.16332, 1.39787 4.20842, 0.517709 4.25351, -0.328316  C4.28915, -0.996763 4.32479, -1.63688 4.36043, -2.11292  C4.40231, -2.67636 4.44418, -3.00325 4.48606, -3 " /><path d="M4.48606, -3 Q4.49335, -3 4.50064, -2.98742 " /><path id= "117" d=" M 3.98606 3 L 3.82355 3 " />
<path d="M3.82355 3 A0.25 0.25 0 0 0 3.64678 3.07322" /><path id= "119" d=" M 3.64678 3.07322 L 0.72 6 " />
<path d="M0.72, -6 L0.72, -5.84957  L0.72, -5.40581  L0.72, -4.69099  L0.72, -3.74094  L0.72, -2.6033  L0.72, -1.33513  L0.72, -1.11022e-15  L0.72, 1.33513  L0.72, 2.6033  L0.72, 3.74094  L0.72, 4.69099  L0.72, 5.40581  L0.72, 5.84957  L0.72, 6 " /><path id= "121" d=" M 0.72 6 L 0 6 " />
<path d="M0, -6 L0, -5.84957  L0, -5.40581  L0, -4.69099  L0, -3.74094  L0, -2.6033  L0, -1.33513  L0, -1.11022e-15  L0, 1.33513  L0, 2.6033  L0, 3.74094  L0, 4.69099  L0, 5.40581  L0, 5.84957  L0, 6 " /></g>

</svg>
