<svg xmlns="http://www.w3.org/2000/svg" viewBox="-6.96 -6.96 13.92 13.92">
<rect width="100%" height="100%" fill="white"/>
<g   fill="none"
   stroke="rgb(0, 0, 0)"
   stroke-linecap="butt"
   stroke-linejoin="miter"
   stroke-width="0.35"
   transform="scale(1, -1)"
  >
<circle cx ="0" cy ="0" r ="6" /><circle cx ="0" cy ="0" r ="2.35576" /><path d="M1.17202, 2.03 C0.315832, 2.03 -0.315832, 2.03 -1.17202, 2.03 " /><path d="M-1.17202, 2.03 C-1.60012, 1.28852 -1.91595, 0.741481 -2.34404, 9.34808e-14 " /><path d="M-2.34404, -9.41469e-14 C-1.91595, -0.741481 -1.60012, -1.28852 -1.17202, -2.03 " /><path d="M-1.17202, -2.03 C-0.315832, -2.03 0.315832, -2.03 1.17202, -2.03 " /><path d="M1.17202, -2.03 C1.60012, -1.28852 1.91595, -0.741481 2.34404, -9.39249e-14 " /><path d="M2.34404, 9.32587e-14 C1.91595, 0.741481 1.60012, 1.28852 1.17202, 2.03 " /><circle cx ="0" cy ="0" r ="0.3248" /></g>

</svg>
