<svg xmlns="http://www.w3.org/2000/svg" viewBox="-2.1006753199999997 -4.31682632 19.13922164 15.83627264">
<rect width="100%" height="100%" fill="white"/>
<g   fill="none"
   stroke="rgb(0, 0, 0)"
   stroke-linecap="butt"
   stroke-linejoin="miter"
   stroke-width="0.35"
   transform="scale(1, -1)"
  >
<path id= "1" d=" M 4.15305 0.487841 L 3.62929 2.99688 " />
<path id= "2" d=" M 1.65404 -3.84057 L -0.780729 -4.64149 " />
<path id= "3" d=" M 1.04759 -4.04006 L 11.3818 -10.0065 " />
<path id= "4" d=" M 4.02259 1.11279 L 14.3568 -4.85369 " />
<path id= "5" d=" M 15.5344 -6.50741 L 14.7273 -5.21822 " />
<path id= "6" d=" M 13.4028 -10.1995 L 12.6206 -10.1715 " />
</g>
<g   fill="none"
   stroke="rgb(0, 0, 0)"
   stroke-linecap="butt"
   stroke-linejoin="miter"
   stroke-width="0.35"
   transform="scale(1, -1)"
  >
<path d="M3.71231 2.1433 A5.25 3.03109 60 0 1 3.62929 2.99688" />
<path d="M3.62929 2.99688 A5.25 3.03109 60 1 1 -0.780729 -4.64149" />
<path d="M-0.780729 -4.64149 A5.25 3.03109 60 0 1 3.71231 2.1433" />
<path d="M4.2001 0.00414873 A2.975 1.71762 60 0 1 4.15305 0.487841" />
<path d="M1.65404 -3.84057 A2.975 1.71762 60 0 1 4.2001 0.00414873" />
<path d="M4.88801 -0.135654 A2.975 1.71762 -120 0 0 4.90131 -0.400697" />
<path id= "7" d=" M 4.88801 -0.135654 L 14.9597 -5.95054 " />
<path d="M14.9597 -5.95054 A2.975 1.71762 60 0 1 14.7273 -5.21822" />
<path d="M14.7273 -5.21822 A2.975 1.71762 60 0 1 14.3568 -4.85369" />
<path d="M11.3818 -10.0065 A2.975 1.71762 60 0 1 11.6196 -10.1056" />
<path id= "11" d=" M 1.54796 -4.29074 L 11.6196 -10.1056 " />
<path d="M1.74585 -4.32615 A2.975 1.71762 -120 0 0 1.54796 -4.29074" />
<path d="M1.95704 -4.32728 A2.975 1.71762 -120 0 0 1.74585 -4.32615" />
<path id= "14" d=" M 1.95704 -4.32728 L 12.0287 -10.1422 " />
<path d="M12.0287 -10.1422 A2.975 1.71762 60 0 1 14.9597 -6.49598" />
<path id= "16" d=" M 4.88801 -0.681099 L 14.9597 -6.49598 " />
<path d="M4.90131 -0.400697 A2.975 1.71762 -120 0 0 4.88801 -0.681099" />
<path d="M4.88801, -0.135654 Q4.9473, -0.462795 4.98897, -0.739386 " /><path d="M14.9597, -5.95054 Q15.2519, -6.48043 15.4688, -6.9067 " /><path d="M15.7186 -7.25481 A2.22942 1.28715 60 0 1 15.5344 -6.50741" />
<path d="M13.4028 -10.1995 A2.22942 1.28715 60 0 1 15.7186 -7.25481" />
<path d="M15.4688, -6.9067 Q15.2519, -6.7284 14.9597, -6.49598 " /><path d="M12.0287, -10.1422 Q12.3508, -10.1618 12.6206, -10.1715 " /><path d="M12.0111, -10.132 Q11.822, -10.1199 11.6196, -10.1056 " /></g>

</svg>
