<svg xmlns="http://www.w3.org/2000/svg" viewBox="-1.6 -6.85 23.2 13.7">
<rect width="100%" height="100%" fill="white"/>
<g   fill="none"
   stroke="rgb(0, 0, 0)"
   stroke-linecap="butt"
   stroke-linejoin="miter"
   stroke-width="0.35"
   transform="scale(1, -1)"
  >
<path id= "1" d=" M 2.96484 -2.975 L 1.18712e-17 -5.25 " />
<path id= "2" d=" M 2.96484 -2.975 L 18.2 -2.975 " />
<path id= "3" d=" M 3.98102 2.95619 L 3.9565 2.975 " />
<path id= "4" d=" M 20 -2.22942 L 18.2 -2.975 " />
</g>
<g   fill="none"
   stroke="rgb(0, 0, 0)"
   stroke-linecap="butt"
   stroke-linejoin="miter"
   stroke-width="0.35"
   transform="scale(1, -1)"
  >
<path d="M0, -5.25 L0, -5.11837  L0, -4.73009  L0, -4.10462  L0, -3.27332  L0, -2.27789  L0, -1.16823  L0, -8.88178e-16  L0, 1.16823  L0, 2.27789  L0, 3.27332  L0, 4.10462  L0, 4.73009  L0, 5.11837  L0, 5.25 " /><path id= "2" d=" M 0 5.25 L 2.96484 2.975 " />
<path d="M2.96484, -2.975 L2.96484, -2.90041  L2.96484, -2.68038  L2.96484, -2.32595  L2.96484, -1.85488  L2.96484, -1.2908  L2.96484, -0.662  L2.96484, -5.55112e-16  L2.96484, 0.662  L2.96484, 1.2908  L2.96484, 1.85488  L2.96484, 2.32595  L2.96484, 2.68038  L2.96484, 2.90041  L2.96484, 2.975 " /><path d="M18.2, -2.975 L18.2, -2.96837  L18.2, -2.94852  L18.2, -2.91553  L18.2, -2.86954  L18.2, -2.81078  L18.2, -2.73948  L18.2, -2.65599  L18.2, -2.56065  L18.2, -2.45391  L18.2, -2.33624  L18.2, -2.20815  L18.2, -2.07023  L18.2, -1.92308  L18.2, -1.76736 " /><path id= "5" d=" M 3.9565 -1.76736 L 18.2 -1.76736 " />
<path d="M3.9565, -1.4875 Q3.9565, -1.63256 3.9565, -1.76736 " /><path d="M3.9565, -1.18883 Q3.9565, -1.34239 3.9565, -1.4875 " /><path id= "8" d=" M 3.9565 -1.18883 L 18.2 -1.18883 " />
<path d="M18.2, -1.18883 Q18.2, -1.00201 18.2, -0.815182  Q18.2, -0.429154 18.2, -0.0312598  Q18.2, 0.366881 18.2, 0.754879  Q18.2, 0.943069 18.2, 1.13126  Q18.2, 1.30938 18.2, 1.4875  Q18.2, 1.65238 18.2, 1.81726  Q18.2, 1.96596 18.2, 2.11467  Q18.2, 2.24455 18.2, 2.37443  Q18.2, 2.48317 18.2, 2.59191  Q18.2, 2.67759 18.2, 2.76326  Q18.2, 2.82433 18.2, 2.88541  Q18.2, 2.9208 18.2, 2.95619 " /><path id= "10" d=" M 3.9565 2.95619 L 18.2 2.95619 " />
<path d="M3.9565, 2.975 Q3.9565, 2.97495 3.9565, 2.95619 " /><path id= "12" d=" M 2.96484 2.975 L 3.9565 2.975 " />
<path id= "13" d=" M 19.397 2.47917 L 20 2.22942 " />
<path d="M20, -2.22942 L20, -2.17352  L20, -2.00863  L20, -1.74303  L20, -1.39002  L20, -0.967307  L20, -0.496092  L20, -3.88578e-16  L20, 0.496092  L20, 0.967307  L20, 1.39002  L20, 1.74303  L20, 2.00863  L20, 2.17352  L20, 2.22942 " /><path d="M19.397, 2.47917 Q18.8735, 2.69603 18.2, 2.95619 " /><path d="M18.2, -1.18883 Q18.8735, -1.21651 19.397, -1.23958 " /><path d="M19.397, -1.23958 Q18.8735, -1.47952 18.2, -1.76736 " /><path id= "18" d=" M 4.60269 -1.23958 L 19.397 -1.23958 " />
<path d="M4.60269, -1.23958 Q4.32005, -1.47952 3.9565, -1.76736 " /><path d="M3.9565, -1.18883 Q4.32005, -1.21651 4.60269, -1.23958 " /></g>

</svg>
