<svg xmlns="http://www.w3.org/2000/svg" viewBox="-13.915708 -13.915708 27.831416 27.831416">
<rect width="100%" height="100%" fill="white"/>
<g   fill="none"
   stroke="rgb(0, 0, 0)"
   stroke-linecap="butt"
   stroke-linejoin="miter"
   stroke-width="0.35"
   transform="scale(1, -1)"
  >
<circle cx ="0" cy ="0" r ="11.4" /><path d="M11.9963, 0.29634 Q11.8463, 0.146303 11.7, -9.14824e-14 " /><path d="M11.9963 0.29634 A12 12 0 0 1 11.9676 0.880934" /><path d="M11.6437, 1.1468 Q11.8036, 1.01554 11.9676, 0.880934 " /><path d="M11.9095, 1.47076 Q11.7749, 1.30674 11.6437, 1.1468 " /><path d="M11.9095 1.47076 A12 12 0 0 1 11.8236 2.04972" /><path d="M11.4752, 2.28256 Q11.6472, 2.16761 11.8236, 2.04972 " /><path d="M11.708, 2.63102 Q11.5901, 2.45459 11.4752, 2.28256 " /><path d="M11.708 2.63102 A12 12 0 0 1 11.5658 3.19877" /><path d="M11.1962, 3.39633 Q11.3787, 3.2988 11.5658, 3.19877 " /><path d="M11.3938, 3.76593 Q11.2937, 3.5788 11.1962, 3.39633 " /><path d="M11.3938 3.76593 A12 12 0 0 1 11.1966 4.31702" /><path d="M10.8094, 4.4774 Q11.0005, 4.39822 11.1966, 4.31702 " /><path d="M10.9698, 4.86458 Q10.8886, 4.66855 10.8094, 4.4774 " /><path d="M10.9698 4.86458 A12 12 0 0 1 10.7195 5.39369" /><path d="M10.3185, 5.51534 Q10.5165, 5.45528 10.7195, 5.39369 " /><path d="M10.4401, 5.91638 Q10.3785, 5.71334 10.3185, 5.51534 " /><path d="M10.4401 5.91638 A12 12 0 0 1 10.1392 6.41841" /><path d="M9.72819, 6.50017 Q9.93112, 6.45981 10.1392, 6.41841 " /><path d="M9.80995, 6.91121 Q9.76856, 6.7031 9.72819, 6.50017 " /><path d="M9.80995 6.91121 A12 12 0 0 1 9.46129 7.38132" /><path d="M9.04422, 7.4224 Q9.25013, 7.40212 9.46129, 7.38132 " /><path d="M9.0853, 7.83947 Q9.0645, 7.62831 9.04422, 7.4224 " /><path d="M9.0853 7.83947 A12 12 0 0 1 8.69224 8.27315" /><path d="M8.27315, 8.27315 Q8.48005, 8.27315 8.69224, 8.27315 " /><path d="M8.27315, 8.69224 Q8.27315, 8.48005 8.27315, 8.27315 " /><path d="M8.27315 8.69224 A12 12 0 0 1 7.83947 9.0853" /><path d="M7.4224, 9.04422 Q7.62831, 9.0645 7.83947, 9.0853 " /><path d="M7.38132, 9.46129 Q7.40212, 9.25013 7.4224, 9.04422 " /><path d="M7.38132 9.46129 A12 12 0 0 1 6.91121 9.80995" /><path d="M6.50017, 9.72819 Q6.7031, 9.76856 6.91121, 9.80995 " /><path d="M6.41841, 10.1392 Q6.45981, 9.93112 6.50017, 9.72819 " /><path d="M6.41841 10.1392 A12 12 0 0 1 5.91638 10.4401" /><path d="M5.51534, 10.3185 Q5.71334, 10.3785 5.91638, 10.4401 " /><path d="M5.39369, 10.7195 Q5.45528, 10.5165 5.51534, 10.3185 " /><path d="M5.39369 10.7195 A12 12 0 0 1 4.86458 10.9698" /><path d="M4.4774, 10.8094 Q4.66855, 10.8886 4.86458, 10.9698 " /><path d="M4.31702, 11.1966 Q4.39822, 11.0005 4.4774, 10.8094 " /><path d="M4.31702 11.1966 A12 12 0 0 1 3.76593 11.3938" /><path d="M3.39633, 11.1962 Q3.5788, 11.2937 3.76593, 11.3938 " /><path d="M3.19877, 11.5658 Q3.2988, 11.3787 3.39633, 11.1962 " /><path d="M3.19877 11.5658 A12 12 0 0 1 2.63102 11.708" /><path d="M2.28256, 11.4752 Q2.45459, 11.5901 2.63102, 11.708 " /><path d="M2.04972, 11.8236 Q2.16761, 11.6472 2.28256, 11.4752 " /><path d="M2.04972 11.8236 A12 12 0 0 1 1.47076 11.9095" /><path d="M1.1468, 11.6437 Q1.30674, 11.7749 1.47076, 11.9095 " /><path d="M0.880934, 11.9676 Q1.01554, 11.8036 1.1468, 11.6437 " /><path d="M0.880934 11.9676 A12 12 0 0 1 0.29634 11.9963" /><path d="M-9.23706e-14, 11.7 Q0.146303, 11.8463 0.29634, 11.9963 " /><path d="M-0.29634, 11.9963 Q-0.146303, 11.8463 9.14824e-14, 11.7 " /><path d="M-0.29634 11.9963 A12 12 0 0 1 -0.880934 11.9676" /><path d="M-1.1468, 11.6437 Q-1.01554, 11.8036 -0.880934, 11.9676 " /><path d="M-1.47076, 11.9095 Q-1.30674, 11.7749 -1.1468, 11.6437 " /><path d="M-1.47076 11.9095 A12 12 0 0 1 -2.04972 11.8236" /><path d="M-2.28256, 11.4752 Q-2.16761, 11.6472 -2.04972, 11.8236 " /><path d="M-2.63102, 11.708 Q-2.45459, 11.5901 -2.28256, 11.4752 " /><path d="M-2.63102 11.708 A12 12 0 0 1 -3.19877 11.5658" /><path d="M-3.39633, 11.1962 Q-3.2988, 11.3787 -3.19877, 11.5658 " /><path d="M-3.76593, 11.3938 Q-3.5788, 11.2937 -3.39633, 11.1962 " /><path d="M-3.76593 11.3938 A12 12 0 0 1 -4.31702 11.1966" /><path d="M-4.4774, 10.8094 Q-4.39822, 11.0005 -4.31702, 11.1966 " /><path d="M-4.86458, 10.9698 Q-4.66855, 10.8886 -4.4774, 10.8094 " /><path d="M-4.86458 10.9698 A12 12 0 0 1 -5.39369 10.7195" /><path d="M-5.51534, 10.3185 Q-5.45528, 10.5165 -5.39369, 10.7195 " /><path d="M-5.91638, 10.4401 Q-5.71334, 10.3785 -5.51534, 10.3185 " /><path d="M-5.91638 10.4401 A12 12 0 0 1 -6.41841 10.1392" /><path d="M-6.50017, 9.72819 Q-6.45981, 9.93112 -6.41841, 10.1392 " /><path d="M-6.91121, 9.80995 Q-6.7031, 9.76856 -6.50017, 9.72819 " /><path d="M-6.91121 9.80995 A12 12 0 0 1 -7.38132 9.46129" /><path d="M-7.4224, 9.04422 Q-7.40212, 9.25013 -7.38132, 9.46129 " /><path d="M-7.83947, 9.0853 Q-7.62831, 9.0645 -7.4224, 9.04422 " /><path d="M-7.83947 9.0853 A12 12 0 0 1 -8.27315 8.69224" /><path d="M-8.27315, 8.27315 Q-8.27315, 8.48005 -8.27315, 8.69224 " /><path d="M-8.69224, 8.27315 Q-8.48005, 8.27315 -8.27315, 8.27315 " /><path d="M-8.69224 8.27315 A12 12 0 0 1 -9.0853 7.83947" /><path d="M-9.04422, 7.4224 Q-9.0645, 7.62831 -9.0853, 7.83947 " /><path d="M-9.46129, 7.38132 Q-9.25013, 7.40212 -9.04422, 7.4224 " /><path d="M-9.46129 7.38132 A12 12 0 0 1 -9.80995 6.91121" /><path d="M-9.72819, 6.50017 Q-9.76856, 6.7031 -9.80995, 6.91121 " /><path d="M-10.1392, 6.41841 Q-9.93112, 6.45981 -9.72819, 6.50017 " /><path d="M-10.1392 6.41841 A12 12 0 0 1 -10.4401 5.91638" /><path d="M-10.3185, 5.51534 Q-10.3785, 5.71334 -10.4401, 5.91638 " /><path d="M-10.7195, 5.39369 Q-10.5165, 5.45528 -10.3185, 5.51534 " /><path d="M-10.7195 5.39369 A12 12 0 0 1 -10.9698 4.86458" /><path d="M-10.8094, 4.4774 Q-10.8886, 4.66855 -10.9698, 4.86458 " /><path d="M-11.1966, 4.31702 Q-11.0005, 4.39822 -10.8094, 4.4774 " /><path d="M-11.1966 4.31702 A12 12 0 0 1 -11.3938 3.76593" /><path d="M-11.1962, 3.39633 Q-11.2937, 3.5788 -11.3938, 3.76593 " /><path d="M-11.5658, 3.19877 Q-11.3787, 3.2988 -11.1962, 3.39633 " /><path d="M-11.5658 3.19877 A12 12 0 0 1 -11.708 2.63102" /><path d="M-11.4752, 2.28256 Q-11.5901, 2.45459 -11.708, 2.63102 " /><path d="M-11.8236, 2.04972 Q-11.6472, 2.16761 -11.4752, 2.28256 " /><path d="M-11.8236 2.04972 A12 12 0 0 1 -11.9095 1.47076" /><path d="M-11.6437, 1.1468 Q-11.7749, 1.30674 -11.9095, 1.47076 " /><path d="M-11.9676, 0.880934 Q-11.8036, 1.01554 -11.6437, 1.1468 " /><path d="M-11.9676 0.880934 A12 12 0 0 1 -11.9963 0.29634" /><path d="M-11.7, -9.14824e-14 Q-11.8463, 0.146303 -11.9963, 0.29634 " /><path d="M-11.9963, -0.29634 Q-11.8463, -0.146303 -11.7, 9.14824e-14 " /><path d="M-11.9963 -0.29634 A12 12 0 0 1 -11.9676 -0.880934" /><path d="M-11.6437, -1.1468 Q-11.8036, -1.01554 -11.9676, -0.880934 " /><path d="M-11.9095, -1.47076 Q-11.7749, -1.30674 -11.6437, -1.1468 " /><path d="M-11.9095 -1.47076 A12 12 0 0 1 -11.8236 -2.04972" /><path d="M-11.4752, -2.28256 Q-11.6472, -2.16761 -11.8236, -2.04972 " /><path d="M-11.708, -2.63102 Q-11.5901, -2.45459 -11.4752, -2.28256 " /><path d="M-11.708 -2.63102 A12 12 0 0 1 -11.5658 -3.19877" /><path d="M-11.1962, -3.39633 Q-11.3787, -3.2988 -11.5658, -3.19877 " /><path d="M-11.3938, -3.76593 Q-11.2937, -3.5788 -11.1962, -3.39633 " /><path d="M-11.3938 -3.76593 A12 12 0 0 1 -11.1966 -4.31702" /><path d="M-10.8094, -4.4774 Q-11.0005, -4.39822 -11.1966, -4.31702 " /><path d="M-10.9698, -4.86458 Q-10.8886, -4.66855 -10.8094, -4.4774 " /><path d="M-10.9698 -4.86458 A12 12 0 0 1 -10.7195 -5.39369" /><path d="M-10.3185, -5.51534 Q-10.5165, -5.45528 -10.7195, -5.39369 " /><path d="M-10.4401, -5.91638 Q-10.3785, -5.71334 -10.3185, -5.51534 " /><path d="M-10.4401 -5.91638 A12 12 0 0 1 -10.1392 -6.41841" /><path d="M-9.72819, -6.50017 Q-9.93112, -6.45981 -10.1392, -6.41841 " /><path d="M-9.80995, -6.91121 Q-9.76856, -6.7031 -9.72819, -6.50017 " /><path d="M-9.80995 -6.91121 A12 12 0 0 1 -9.46129 -7.38132" /><path d="M-9.04422, -7.4224 Q-9.25013, -7.40212 -9.46129, -7.38132 " /><path d="M-9.0853, -7.83947 Q-9.0645, -7.62831 -9.04422, -7.4224 " /><path d="M-9.0853 -7.83947 A12 12 0 0 1 -8.69224 -8.27315" /><path d="M-8.27315, -8.27315 Q-8.48005, -8.27315 -8.69224, -8.27315 " /><path d="M-8.27315, -8.69224 Q-8.27315, -8.48005 -8.27315, -8.27315 " /><path d="M-8.27315 -8.69224 A12 12 0 0 1 -7.83947 -9.0853" /><path d="M-7.4224, -9.04422 Q-7.62831, -9.0645 -7.83947, -9.0853 " /><path d="M-7.38132, -9.46129 Q-7.40212, -9.25013 -7.4224, -9.04422 " /><path d="M-7.38132 -9.46129 A12 12 0 0 1 -6.91121 -9.80995" /><path d="M-6.50017, -9.72819 Q-6.7031, -9.76856 -6.91121, -9.80995 " /><path d="M-6.41841, -10.1392 Q-6.45981, -9.93112 -6.50017, -9.72819 " /><path d="M-6.41841 -10.1392 A12 12 0 0 1 -5.91638 -10.4401" /><path d="M-5.51534, -10.3185 Q-5.71334, -10.3785 -5.91638, -10.4401 " /><path d="M-5.39369, -10.7195 Q-5.45528, -10.5165 -5.51534, -10.3185 " /><path d="M-5.39369 -10.7195 A12 12 0 0 1 -4.86458 -10.9698" /><path d="M-4.4774, -10.8094 Q-4.66855, -10.8886 -4.86458, -10.9698 " /><path d="M-4.31702, -11.1966 Q-4.39822, -11.0005 -4.4774, -10.8094 " /><path d="M-4.31702 -11.1966 A12 12 0 0 1 -3.76593 -11.3938" /><path d="M-3.39633, -11.1962 Q-3.5788, -11.2937 -3.76593, -11.3938 " /><path d="M-3.19877, -11.5658 Q-3.2988, -11.3787 -3.39633, -11.1962 " /><path d="M-3.19877 -11.5658 A12 12 0 0 1 -2.63102 -11.708" /><path d="M-2.28256, -11.4752 Q-2.45459, -11.5901 -2.63102, -11.708 " /><path d="M-2.04972, -11.8236 Q-2.16761, -11.6472 -2.28256, -11.4752 " /><path d="M-2.04972 -11.8236 A12 12 0 0 1 -1.47076 -11.9095" /><path d="M-1.1468, -11.6437 Q-1.30674, -11.7749 -1.47076, -11.9095 " /><path d="M-0.880934, -11.9676 Q-1.01554, -11.8036 -1.1468, -11.6437 " /><path d="M-0.880934 -11.9676 A12 12 0 0 1 -0.29634 -11.9963" /><path d="M9.14824e-14, -11.7 Q-0.146303, -11.8463 -0.29634, -11.9963 " /><path d="M0.29634, -11.9963 Q0.146303, -11.8463 -9.14824e-14, -11.7 " /><path d="M0.29634 -11.9963 A12 12 0 0 1 0.880934 -11.9676" /><path d="M1.1468, -11.6437 Q1.01554, -11.8036 0.880934, -11.9676 " /><path d="M1.47076, -11.9095 Q1.30674, -11.7749 1.1468, -11.6437 " /><path d="M1.47076 -11.9095 A12 12 0 0 1 2.04972 -11.8236" /><path d="M2.28256, -11.4752 Q2.16761, -11.6472 2.04972, -11.8236 " /><path d="M2.63102, -11.708 Q2.45459, -11.5901 2.28256, -11.4752 " /><path d="M2.63102 -11.708 A12 12 0 0 1 3.19877 -11.5658" /><path d="M3.39633, -11.1962 Q3.2988, -11.3787 3.19877, -11.5658 " /><path d="M3.76593, -11.3938 Q3.5788, -11.2937 3.39633, -11.1962 " /><path d="M3.76593 -11.3938 A12 12 0 0 1 4.31702 -11.1966" /><path d="M4.4774, -10.8094 Q4.39822, -11.0005 4.31702, -11.1966 " /><path d="M4.86458, -10.9698 Q4.66855, -10.8886 4.4774, -10.8094 " /><path d="M4.86458 -10.9698 A12 12 0 0 1 5.39369 -10.7195" /><path d="M5.51534, -10.3185 Q5.45528, -10.5165 5.39369, -10.7195 " /><path d="M5.91638, -10.4401 Q5.71334, -10.3785 5.51534, -10.3185 " /><path d="M5.91638 -10.4401 A12 12 0 0 1 6.41841 -10.1392" /><path d="M6.50017, -9.72819 Q6.45981, -9.93112 6.41841, -10.1392 " /><path d="M6.91121, -9.80995 Q6.7031, -9.76856 6.50017, -9.72819 " /><path d="M6.91121 -9.80995 A12 12 0 0 1 7.38132 -9.46129" /><path d="M7.4224, -9.04422 Q7.40212, -9.25013 7.38132, -9.46129 " /><path d="M7.83947, -9.0853 Q7.62831, -9.0645 7.4224, -9.04422 " /><path d="M7.83947 -9.0853 A12 12 0 0 1 8.27315 -8.69224" /><path d="M8.27315, -8.27315 Q8.27315, -8.48005 8.27315, -8.69224 " /><path d="M8.69224, -8.27315 Q8.48005, -8.27315 8.27315, -8.27315 " /><path d="M8.69224 -8.27315 A12 12 0 0 1 9.0853 -7.83947" /><path d="M9.04422, -7.4224 Q9.0645, -7.62831 9.0853, -7.83947 " /><path d="M9.46129, -7.38132 Q9.25013, -7.40212 9.04422, -7.4224 " /><path d="M9.46129 -7.38132 A12 12 0 0 1 9.80995 -6.91121" /><path d="M9.72819, -6.50017 Q9.76856, -6.7031 9.80995, -6.91121 " /><path d="M10.1392, -6.41841 Q9.93112, -6.45981 9.72819, -6.50017 " /><path d="M10.1392 -6.41841 A12 12 0 0 1 10.4401 -5.91638" /><path d="M10.3185, -5.51534 Q10.3785, -5.71334 10.4401, -5.91638 " /><path d="M10.7195, -5.39369 Q10.5165, -5.45528 10.3185, -5.51534 " /><path d="M10.7195 -5.39369 A12 12 0 0 1 10.9698 -4.86458" /><path d="M10.8094, -4.4774 Q10.8886, -4.66855 10.9698, -4.86458 " /><path d="M11.1966, -4.31702 Q11.0005, -4.39822 10.8094, -4.4774 " /><path d="M11.1966 -4.31702 A12 12 0 0 1 11.3938 -3.76593" /><path d="M11.1962, -3.39633 Q11.2937, -3.5788 11.3938, -3.76593 " /><path d="M11.5658, -3.19877 Q11.3787, -3.2988 11.1962, -3.39633 " /><path d="M11.5658 -3.19877 A12 12 0 0 1 11.708 -2.63102" /><path d="M11.4752, -2.28256 Q11.5901, -2.45459 11.708, -2.63102 " /><path d="M11.8236, -2.04972 Q11.6472, -2.16761 11.4752, -2.28256 " /><path d="M11.8236 -2.04972 A12 12 0 0 1 11.9095 -1.47076" /><path d="M11.6437, -1.1468 Q11.7749, -1.30674 11.9095, -1.47076 " /><path d="M11.9676, -0.880934 Q11.8036, -1.01554 11.6437, -1.1468 " /><path d="M11.9676 -0.880934 A12 12 0 0 1 11.9963 -0.29634" /><path d="M11.7, 9.23706e-14 Q11.8463, -0.146303 11.9963, -0.29634 " /></g>

</svg>
