<svg xmlns="http://www.w3.org/2000/svg" viewBox="-9.038859200000001 -9.4999592 15.249288400000001 17.3669284">
<rect width="100%" height="100%" fill="white"/>
<g   fill="none"
   stroke="rgb(0, 0, 0)"
   stroke-linecap="butt"
   stroke-linejoin="miter"
   stroke-width="0.35"
   transform="scale(1, -1)"
  >
<path d="M-0.135332, 3.01858 C-0.157149, 2.2655 -0.427928, 1.38825 -0.877312, 0.619294 " /><g transform = "rotate(60, -2.82843, 1.63299)">
<ellipse cx ="-2.82843" cy ="1.63299" rx ="4.375"  ry ="2.52591"/>
</g>
<path d="M-0.135332, 3.01858 C-0.117979, 3.54378 -0.217737, 4.00824 -0.421058, 4.35463  C-0.631197, 4.71546 -0.952316, 4.94814 -1.34185, 5.0248  C-1.75144, 5.10713 -2.23566, 5.01623 -2.72779, 4.76774  C-3.2459, 4.50777 -3.77103, 4.07409 -4.22797, 3.53277 " /><path d="M-5.50566, 0.777251 C-5.50363, 0.808999 -5.49917, 0.847992 -5.49227, 0.894231  C-5.47087, 1.03741 -5.43012, 1.21855 -5.37577, 1.40309  C-5.27936, 1.73215 -5.13843, 2.08305 -4.96526, 2.41877  C-4.78029, 2.7787 -4.55536, 3.12612 -4.32078, 3.41974 " /><path d="M-4.32078, 3.41974 L-4.22797, 3.53277 " /><path d="M-4.33457, -1.48964 C-4.70363, -1.4 -5.00647, -1.16119 -5.20918, -0.807435  C-5.44378, -0.401413 -5.54497, 0.155426 -5.50566, 0.777251 " /><path d="M-4.33457 -1.48964 A3.45873 1.9969 60 0 1 -0.877312 0.619294" />
<path d="M-0.482327, 4.26767 C-0.74484, 4.39339 -1.054, 4.43256 -1.38573, 4.38272  C-1.8199, 4.31851 -2.29225, 4.1001 -2.74026, 3.75928  C-3.26169, 3.36463 -3.74756, 2.80485 -4.11258, 2.18565  C-4.55483, 1.44096 -4.81533, 0.61597 -4.83342, -0.0696437  C-4.85466, -0.727928 -4.6549, -1.25201 -4.28868, -1.51195 " /><path d="M-0.308553, 4.12545 Q-0.427821, 4.24077 -0.568722, 4.32215 " /><path d="M-0.568722, 4.32215 C-0.628334, 4.35657 -0.690523, 4.38621 -0.75529, 4.41109  C-1.35265, 4.647 -2.16769, 4.43571 -2.91794, 3.86065  C-3.45782, 3.45194 -3.95927, 2.86595 -4.3283, 2.22083  C-4.74733, 1.49373 -4.99257, 0.697233 -5.01021, 0.0320208  C-5.0334, -0.675901 -4.79954, -1.22677 -4.38101, -1.46443 " /><path d="M-4.38101, -1.46443 L-4.33457, -1.48964 " /><path d="M1.76777 4.28661 A6.5 3.75278 60 0 1 1.15199 6.5847" />
<path d="M1.15199 1.27748 A6.5 3.75278 60 0 1 1.76777 4.28661" />
<path d="M-2.82843 -3.67423 A6.5 3.75278 60 0 1 1.15199 1.27748" />
<path d="M-6.80885 -3.31872 A6.5 3.75278 60 0 1 -2.82843 -3.67423" />
<path d="M-6.80885 1.98851 A6.5 3.75278 60 0 1 -6.80885 -3.31872" />
<path d="M-2.82843 6.94022 A6.5 3.75278 60 0 1 -6.80885 1.98851" />
<path d="M1.15199 6.5847 A6.5 3.75278 60 0 1 -2.82843 6.94022" />
<path d="M-0.25856, 3.98904 C-0.795074, 4.03937 -1.4354, 3.80698 -2.03311, 3.35107  C-2.5545, 2.95646 -3.04034, 2.39673 -3.40537, 1.77759  C-3.84754, 1.03309 -4.10806, 0.208316 -4.1263, -0.477222  C-4.14047, -0.938378 -4.04838, -1.33608 -3.86363, -1.62012 " /><path d="M-0.287094, 4.07052 C-0.851987, 4.18154 -1.55667, 3.95234 -2.21085, 3.45239  C-2.75078, 3.04365 -3.25226, 2.45759 -3.6213, 1.8124  C-4.04039, 1.08514 -4.28561, 0.288471 -4.30312, -0.376806  C-4.31871, -0.887241 -4.20342, -1.31916 -3.97758, -1.60629 " /><path d="M1.15199, 6.5847 C1.57379, 5.98542 2.08776, 5.33314 2.77332, 4.52708 " /><path d="M-2.82843, 6.94022 C-1.98577, 7.42566 -1.05118, 7.85744 0.119707, 8.30224 " /><path d="M0.119707, 8.30224 C0.404808, 7.72739 0.732054, 7.18291 1.15199, 6.5847 " /><path d="M-6.80885, 1.98851 C-6.38706, 3.0727 -5.87308, 4.10285 -5.18752, 5.23812 " /><path d="M-5.18752, 5.23812 C-4.41709, 5.91413 -3.66923, 6.45371 -2.82843, 6.94022 " /><path d="M-6.80885, -3.31872 C-7.22879, -2.72051 -7.55603, -2.17603 -7.84114, -1.60118 " /><path d="M-7.84114, -1.60118 C-7.55603, -0.234713 -7.22879, 0.903255 -6.80885, 1.98851 " /><path d="M-5.18752, -5.37634 C-5.87308, -4.57029 -6.38706, -3.918 -6.80885, -3.31872 " /><path d="M-2.82843, -3.67423 C-3.66923, -4.16074 -4.41709, -4.70033 -5.18752, -5.37634 " /><path d="M0.119707, -2.31221 C-1.05118, -2.75702 -1.98577, -3.18879 -2.82843, -3.67423 " /><path d="M1.15199, 1.27748 C0.732054, 0.192222 0.404808, -0.945746 0.119707, -2.31221 " /><path d="M2.77332, 4.52708 C2.08776, 3.39182 1.57379, 2.36166 1.15199, 1.27748 " /><path d="M-0.157545, 3.52978 C-0.538548, 3.43824 -0.941251, 3.23528 -1.32596, 2.94285  C-1.84732, 2.54827 -2.33314, 1.9886 -2.69816, 1.3695  C-3.14024, 0.625219 -3.40078, -0.19933 -3.41917, -0.884781  C-3.42655, -1.1382 -3.40337, -1.36862 -3.34961, -1.57606 " /><path d="M-0.177789, 3.66365 C-0.60455, 3.5941 -1.06659, 3.37713 -1.50517, 3.04306  C-2.04663, 2.63282 -2.54931, 2.04426 -2.91844, 1.39675  C-3.21643, 0.876538 -3.42805, 0.320822 -3.52819, -0.19625  C-3.63296, -0.731815 -3.61782, -1.2244 -3.48767, -1.60334 " /><path d="M5.01271, 3.23417 C4.72761, 3.80902 4.40036, 4.3535 3.98042, 4.95171 " /><path id= "36" d=" M 2.77332 4.52708 L 5.01271 3.23417 " />
<path id= "37" d=" M 2.35909 7.00933 L 0.119707 8.30224 " />
<path d="M3.98042, 4.95171 C3.55863, 5.55099 3.04465, 6.20328 2.35909, 7.00933 " /><path id= "39" d=" M -2.94813 -6.66925 L -5.18752 -5.37634 " />
<path d="M-2.94813, -6.66925 C-1.77725, -6.22444 -0.842659, -5.79267 -4.94271e-13, -5.30723 " /><path id= "41" d=" M 2.35909 -3.60512 L 0.119707 -2.31221 " />
<path d="M-4.94715e-13, -5.30723 C0.840806, -4.82072 1.58866, -4.28113 2.35909, -3.60512 " /><path d="M2.35909, -3.60512 C3.04465, -2.46986 3.55863, -1.4397 3.98042, -0.355517 " /><path d="M3.98042, -0.355517 C4.40036, 0.729738 4.72761, 1.86771 5.01271, 3.23417 " /><path d="M-1.85351, 1.18276 C-2.3842, 0.373038 -2.70097, -0.564096 -2.71284, -1.32398 " /><path d="M-0.134651, 3.04218 C-0.910145, 2.68281 -1.69495, 1.89919 -2.21144, 0.988325  C-2.67571, 0.181082 -2.92257, -0.709769 -2.88728, -1.4127 " /><path d="M-0.138459 2.94427 A3.45873 1.9969 60 0 1 -1.85351 1.18276" />
</g>

</svg>
