<svg xmlns="http://www.w3.org/2000/svg" viewBox="-8.706438 -7.700888 17.412876 15.401776">
<rect width="100%" height="100%" fill="white"/>
<g   fill="none"
   stroke="rgb(0, 0, 0)"
   stroke-linecap="butt"
   stroke-linejoin="miter"
   stroke-width="0.35"
   transform="scale(1, -1)"
  >
<path d="M3.6013, 2.22045e-16 C3.55793, -0.894395 3.16226, -1.76461 2.51378, -2.37566 " /><circle cx ="0" cy ="0" r ="4.375" /><path d="M3.6013, 6.66134e-16 C3.63455, 0.622243 3.50209, 1.25302 3.22307, 1.81252  C2.93473, 2.39419 2.48934, 2.89748 1.94709, 3.25817  C1.37695, 3.63953 0.701154, 3.8616 0.0140704, 3.89635  C-0.709279, 3.93496 -1.44267, 3.76587 -2.07973, 3.41684 " /><path d="M-3.88665, 0.9455 C-3.88258, 0.981747 -3.87523, 1.02531 -3.8646, 1.07618  C-3.83162, 1.23368 -3.77251, 1.42525 -3.69467, 1.61186  C-3.61427, 1.80578 -3.51496, 1.99515 -3.39674, 2.17995 " /><path d="M-3.39674, 2.17995 C-3.18014, 2.51826 -2.90278, 2.82606 -2.59205, 3.07446  C-2.425, 3.20771 -2.25422, 3.32184 -2.07973, 3.41684 " /><path d="M-2.37553, -2.5139 C-2.87354, -2.16707 -3.27867, -1.68361 -3.5428, -1.12955  C-3.84865, -0.492314 -3.96665, 0.236121 -3.88665, 0.9455 " /><path d="M-2.37553 -2.5139 A3.45873 3.45873 0 0 1 2.51378 -2.37566" /><path d="M3.45873, 2.46919e-07 C3.45855, 0.305277 3.41883, 0.605318 3.33955, 0.900122  C3.15509, 1.59009 2.74976, 2.21851 2.19729, 2.6711  C1.79798, 3.00013 1.32348, 3.23758 0.820769, 3.35994  C0.318258, 3.48314 -0.212272, 3.49119 -0.718309, 3.38332  C-1.44755, 3.23025 -2.12244, 2.83287 -2.61007, 2.26945  C-3.00516, 1.81618 -3.27827, 1.25795 -3.39365, 0.667837  C-3.4399, 0.432434 -3.4615, 0.19479 -3.45844, -0.045095  C-3.45035, -0.969546 -3.05012, -1.8819 -2.37553, -2.5139 " /><path d="M6.5 0 A6.5 6.5 0 0 1 5.62917 3.25" /><path d="M5.62917 -3.25 A6.5 6.5 0 0 1 6.5 -1.59204e-15" /><path d="M-6.99746e-13 -6.5 A6.5 6.5 0 0 1 5.62917 -3.25" /><path d="M-5.62917 -3.25 A6.5 6.5 0 0 1 -6.99746e-13 -6.5" /><path d="M-5.62917 3.25 A6.5 6.5 0 0 1 -5.62917 -3.25" /><path d="M-7.4434e-13 6.5 A6.5 6.5 0 0 1 -5.62917 3.25" /><path d="M5.62917 3.25 A6.5 6.5 0 0 1 -7.4434e-13 6.5" /><path d="M3.45873, 2.46919e-07 C3.45855, 0.305277 3.41883, 0.605318 3.33955, 0.900122  C3.15509, 1.5901 2.74975, 2.21852 2.19728, 2.67111  C1.79797, 3.00013 1.32347, 3.23758 0.820754, 3.35994  C0.318242, 3.48314 -0.21229, 3.49119 -0.718327, 3.38332  C-1.44763, 3.23023 -2.12257, 2.83279 -2.6102, 2.26929  C-3.0006, 1.82132 -3.27195, 1.27089 -3.38953, 0.688429  C-3.5404, -0.0454585 -3.44263, -0.827643 -3.11561, -1.50193 " /><path d="M-2.67659, -2.19059 C-2.17287, -2.8096 -1.44805, -3.2432 -0.664441, -3.39431  C-0.0373644, -3.51802 0.62364, -3.46251 1.2213, -3.23593  C1.82258, -3.01003 2.35771, -2.61214 2.74719, -2.10138  C3.20631, -1.50411 3.46053, -0.753312 3.45873, 1.2372e-07 " /><path d="M5.62917, 3.25 C6.22436, 2.21909 6.81919, 1.18881 7.50555, 5.57776e-13 " /><path d="M-7.44738e-13, 6.5 C1.19039, 6.5 2.38006, 6.5 3.75278, 6.5 " /><path d="M3.75278, 6.5 C4.43914, 5.31119 5.03397, 4.28091 5.62917, 3.25 " /><path d="M-5.62917, 3.25 C-5.03397, 4.28091 -4.43914, 5.31119 -3.75278, 6.5 " /><path d="M-3.75278, 6.5 C-2.38006, 6.5 -1.19039, 6.5 -7.44738e-13, 6.5 " /><path d="M-5.62917, -3.25 C-6.22436, -2.21909 -6.81919, -1.18881 -7.50555, -3.10374e-13 " /><path d="M-7.50555, 8.0469e-13 C-6.81919, 1.18881 -6.22436, 2.21909 -5.62917, 3.25 " /><path d="M-3.75278, -6.5 C-4.43914, -5.31119 -5.03397, -4.28091 -5.62917, -3.25 " /><path d="M-6.99663e-13, -6.5 C-1.19039, -6.5 -2.38006, -6.5 -3.75278, -6.5 " /><path d="M3.75278, -6.5 C2.38006, -6.5 1.19039, -6.5 -6.99663e-13, -6.5 " /><path d="M5.62917, -3.25 C5.03397, -4.28091 4.43914, -5.31119 3.75278, -6.5 " /><path d="M7.50555, -5.58247e-13 C6.81919, -1.18881 6.22436, -2.21909 5.62917, -3.25 " /><path d="M3.45873, 1.23459e-07 C3.46138, 0.832728 3.14877, 1.66128 2.59669, 2.28474  C2.17628, 2.76397 1.62039, 3.1225 1.01043, 3.30785  C0.452296, 3.47903 -0.149395, 3.50512 -0.72025, 3.38291  C-1.45163, 3.22897 -2.12815, 2.82921 -2.61581, 2.26283  C-3.18828, 1.60588 -3.49522, 0.726173 -3.45572, -0.144267 " /><path d="M-3.44446, -0.313885 L-3.44393, -0.319651 " /><path d="M-3.32555, -0.950555 L-3.32316, -0.958874 " /><path d="M-3.20093, -1.31031 L-3.19872, -1.31568 " /><path d="M-2.92077, -1.85255 L-2.92076, -1.85256 " /><path d="M-2.69416, -2.16895 L-2.69414, -2.16897 " /><path d="M-2.47877, -2.41217 L-2.47877, -2.41217 " /><path d="M3.45873, -0.00123646 L3.45873, 0 " /><path d="M2.51364, 2.3758 C2.11239, 2.8013 1.60114, 3.12183 1.04333, 3.29762  C0.475972, 3.47787 -0.138178, 3.50757 -0.720277, 3.3829  C-1.45171, 3.22894 -2.12828, 2.82913 -2.61595, 2.26267  C-3.18712, 1.6071 -3.49397, 0.729769 -3.45595, -0.138845 " /><path d="M-3.44412, -0.317578 L-3.44338, -0.325506 " /><path d="M-3.20395, -1.30291 L-3.19505, -1.32457 " /></g>

</svg>
