<svg xmlns="http://www.w3.org/2000/svg" viewBox="-5.480304 -5.480304 10.960608 10.960608">
<rect width="100%" height="100%" fill="white"/>
<g   fill="none"
   stroke="rgb(0, 0, 0)"
   stroke-linecap="butt"
   stroke-linejoin="miter"
   stroke-width="0.35"
   transform="scale(1, -1)"
  >
<circle cx ="0" cy ="0" r ="1.84225" /><circle cx ="0" cy ="0" r ="4.7244" /><path d="M0.916544, 1.5875 C0.246987, 1.5875 -0.246987, 1.5875 -0.916544, 1.5875 " /><path d="M-0.916544, 1.5875 C-1.25132, 1.00765 -1.49831, 0.579853 -1.83309, 2.1394e-13 " /><path d="M-1.83309, -2.1394e-13 C-1.49831, -0.579853 -1.25132, -1.00765 -0.916544, -1.5875 " /><path d="M-0.916544, -1.5875 C-0.246987, -1.5875 0.246987, -1.5875 0.916544, -1.5875 " /><path d="M0.916544, -1.5875 C1.25132, -1.00765 1.49831, -0.579853 1.83309, -2.13795e-13 " /><path d="M1.83309, 2.14162e-13 C1.49831, 0.579853 1.25132, 1.00765 0.916544, 1.5875 " /><circle cx ="0" cy ="0" r ="0.254" /></g>

</svg>
