<svg xmlns="http://www.w3.org/2000/svg" viewBox="-2.2743424 -3.6943224 19.300404800000003 15.460284800000002">
<rect width="100%" height="100%" fill="white"/>
<g   fill="none"
   stroke="rgb(0, 0, 0)"
   stroke-linecap="butt"
   stroke-linejoin="miter"
   stroke-width="0.35"
   transform="scale(1, -1)"
  >
<path id= "1" d=" M 13.4243 -4.34916 L 13.1163 -4.00128 " />
<path id= "2" d=" M 10.4786 -9.4512 L 10.3601 -9.42704 " />
<path id= "3" d=" M -0.94328 -3.0927 L 9.69642 -9.23554 " />
<path id= "4" d=" M 2.20672 2.36326 L 12.8464 -3.77958 " />
<path id= "5" d=" M 10.3087 -9.41583 L 12.0737 -10.4349 " />
<path id= "6" d=" M 13.3107 -4.22081 L 15.0737 -5.23872 " />
</g>
<g   fill="none"
   stroke="rgb(0, 0, 0)"
   stroke-linecap="butt"
   stroke-linejoin="miter"
   stroke-width="0.35"
   transform="scale(1, -1)"
  >
<path id= "1" d=" M -0.258358 -3.2363 L 10.3813 -9.37913 " />
<path d="M10.3813 -9.37913 A3.15 1.81865 60 0 1 13.4847 -5.51847" />
<path id= "3" d=" M 2.84502 0.624363 L 13.4847 -5.51847 " />
<path d="M2.84502 0.624363 A3.15 1.81865 -120 0 0 -0.258358 -3.2363" />
<path d="M2.28374 0.824788 A5.80802 0.823479 -24.1872 0 0 2.84502 0.624363" />
<path d="M2.84502 1.20189 A5.80802 4.67018 -136.983 0 1 2.28374 0.824788" />
<path d="M-0.258358 1.47908 A3.15 1.81865 -120 0 0 2.20672 2.36326" />
<path d="M2.20672 2.36326 A3.15 1.81865 -120 0 0 2.84502 1.20189" />
<path d="M-0.500498 1.07347 A5.80802 3.63276 115.47 0 0 -0.258358 1.47908" />
<path d="M-0.691505 0.940233 A5.80802 1.62194 -18.1326 0 0 -0.500498 1.07347" />
<path d="M-0.691505 -3.19761 A3.15 1.81865 -120 0 0 -0.94328 -3.0927" />
<path d="M-0.94328 -3.0927 A3.15 1.81865 -120 0 0 -0.691505 0.940233" />
<path d="M-0.500498 -2.63884 A5.80802 4.45623 -152.228 0 1 -0.691505 -3.19761" />
<path d="M-0.258358 -3.2363 A5.80802 3.04824 124.152 0 0 -0.500498 -2.63884" />
<path d="M10.3813, -9.37913 Q10.5272, -9.41535 10.6663, -9.44939 " /><path d="M13.7039 -5.21192 A3.03905 1.7546 -120 0 0 13.7131 -5.4359" />
<path d="M13.7886 -5.51135 A3 1.73205 60 0 1 13.4243 -4.34916" />
<path d="M10.4786 -9.4512 A3 1.73205 60 0 1 13.7886 -5.51135" />
<path d="M13.7131 -5.4359 A3.03905 1.7546 -120 0 0 13.7039 -5.6705" />
<path d="M13.7039, -5.6705 Q13.5971, -5.59631 13.4847, -5.51847 " /><path d="M10.6663 -9.44939 A3.03905 1.7546 -120 0 0 10.4897 -9.44587" />
<path d="M10.4897 -9.44587 A3.03905 1.7546 -120 0 0 10.3601 -9.42704" />
<path d="M10.3601 -9.42704 A3.03905 1.7546 -120 0 0 10.3224 -9.41867" />
<path d="M10.3224, -9.41867 Q10.1394, -9.38072 9.94819, -9.34044 " /><path d="M9.69642 -9.23554 A3.15 1.81865 60 0 1 9.94819 -9.34044" />
<path d="M13.4847 -4.94094 A3.15 1.81865 60 0 1 13.1163 -4.00128" />
<path d="M13.1163 -4.00128 A3.15 1.81865 60 0 1 12.8464 -3.77958" />
<path d="M13.4847, -4.94094 Q13.5971, -5.07932 13.7039, -5.21192 " /><path id= "29" d=" M -0.691505 -3.19761 L 9.94819 -9.34044 " />
<path d="M10.3224, -9.41867 L10.3243, -9.3462 " /><path id= "31" d=" M 2.84502 1.20189 L 13.4847 -4.94094 " />
<path d="M13.254, -5.38528 Q13.4639, -5.30206 13.7039, -5.21192 " /><path d="M15.695 -6.61205 A3 1.73205 -120 0 0 12.0737 -10.4349" />
<path d="M15.0737 -5.23872 A3 1.73205 -120 0 0 15.695 -6.61205" />
</g>

</svg>
