<svg xmlns="http://www.w3.org/2000/svg" viewBox="-1.5356960000000002 -4.665776 22.267592 9.351472000000001">
<rect width="100%" height="100%" fill="white"/>
<g   fill="none"
   stroke="rgb(0, 0, 0)"
   stroke-linecap="butt"
   stroke-linejoin="miter"
   stroke-width="0.35"
   transform="scale(1, -1)"
  >
<path d="M0 2.14114e-15 A6 6 0 0 1 0.893387 -3.15" /><path id= "2" d=" M 16.5 -3 L 15.9402 -3.15 " />
<path id= "3" d=" M 0.893387 -3.15 L 15.9402 -3.15 " />
<path id= "4" d=" M 16.5 -3 L 19.1962 -3 " />
<path d="M19.1962 -3 A6 6 0 0 1 20 -1.25819e-15" /></g>
<g   fill="none"
   stroke="rgb(0, 0, 0)"
   stroke-linecap="butt"
   stroke-linejoin="miter"
   stroke-width="0.35"
   transform="scale(1, -1)"
  >
<path id= "1" d=" M 0.893387 -1.25876 L 15.9402 -1.25876 " />
<path d="M15.9402, -1.25876 L15.9402, -0.863134  L15.9402, -0.452141  L15.9402, 0.386533  L15.9402, 0.799283  L15.9402, 1.1978  L15.9402, 1.575  L15.9402, 1.92416  L15.9402, 2.23906  L15.9402, 2.5141  L15.9402, 2.74438  L15.9402, 2.9258  L15.9402, 3.05514  L15.9402, 3.13008 " /><path id= "3" d=" M 0.893387 3.13008 L 15.9402 3.13008 " />
<path d="M0.893387, 3.13008 Q0.893387, 3.09261 0.893387, 3.05514  Q0.893387, 2.99047 0.893387, 2.9258  Q0.893387, 2.83509 0.893387, 2.74438  Q0.893387, 2.62924 0.893387, 2.5141  Q0.893387, 2.37658 0.893387, 2.23906  Q0.893387, 2.08161 0.893387, 1.92416  Q0.893387, 1.74958 0.893387, 1.575  Q0.893387, 1.3864 0.893387, 1.1978  Q0.893387, 0.998543 0.893387, 0.799283  Q0.893387, 0.388463 0.893387, -0.0330986  Q0.893387, -0.24262 0.893387, -0.452141  Q0.893387, -0.657637 0.893387, -0.863134  Q0.893387, -1.06095 0.893387, -1.25876 " /><path d="M0.60469 2.625 A5.80802 4.75765 0 0 0 0.893387 3.13008" />
<path d="M0.60469 2.625 A6 6 0 0 1 0 2.88083e-16" /><path d="M0.893387, -1.87132 L0.893387, -2.0362  L0.893387, -2.192  L0.893387, -2.33804  L0.893387, -2.47366  L0.893387, -2.59826  L0.893387, -2.71128  L0.893387, -2.81222  L0.893387, -2.90063  L0.893387, -2.97612  L0.893387, -3.03834  L0.893387, -3.08703  L0.893387, -3.12196  L0.893387, -3.14298  L0.893387, -3.15 " /><path d="M0.60469 -1.3125 A5.80802 5.26385 0 0 1 0.893387 -1.87132" />
<path d="M0.893387 -1.25876 A5.80802 0.506202 180 0 1 0.60469 -1.3125" />
<path id= "10" d=" M 0.60469 -1.3125 L 15.9402 -1.3125 " />
<path d="M15.9402, -1.3125 Q16.1261, -1.29272 16.3542, -1.26983 " /><path d="M15.9402, -1.25876 Q16.1521, -1.26439 16.3542, -1.26983 " /><path id= "13" d=" M 16.3542 3.03905 L 16.5 3 " />
<path d="M16.5, -3 L16.5, -2.92478  L16.5, -2.70291  L16.5, -2.34549  L16.5, -1.87047  L16.5, -1.30165  L16.5, -0.667563  L16.5, -5.55112e-16  L16.5, 0.667563  L16.5, 1.30165  L16.5, 1.87047  L16.5, 2.34549  L16.5, 2.70291  L16.5, 2.92478  L16.5, 3 " /><path d="M16.3542, 3.03905 Q16.3542, 3.03902 16.3542, 3.02605 " /><path d="M16.3542, 3.02605 Q16.1521, 3.07714 15.9402, 3.13008 " /><path d="M16.3542, -1.26983 Q16.3542, -1.39765 16.3542, -1.51953 " /><path d="M16.3542, -1.51953 Q16.3542, -1.64137 16.3542, -1.75622 " /><path d="M16.3542, -1.75622 Q16.1521, -1.81275 15.9402, -1.87132 " /><path d="M15.9402, -3.15 L15.9402, -3.14298  L15.9402, -3.12196  L15.9402, -3.08703  L15.9402, -3.03834  L15.9402, -2.97612  L15.9402, -2.90063  L15.9402, -2.81222  L15.9402, -2.71128  L15.9402, -2.59826  L15.9402, -2.47366  L15.9402, -2.33804  L15.9402, -2.192  L15.9402, -2.0362  L15.9402, -1.87132 " /><path id= "21" d=" M 0.893387 -1.87132 L 15.9402 -1.87132 " />
<path d="M16.3542, -1.75622 Q16.1261, -1.51818 15.9402, -1.3125 " /><path id= "23" d=" M 0.893387 3.13008 L 15.9402 3.13008 " />
<path id= "24" d=" M 16.3439 3.02867 L 16.3542 3.03905 " />
<path d="M19.1962, 3 L19.1962, 2.92478  L19.1962, 2.70291  L19.1962, 2.34549  L19.1962, 1.87047  L19.1962, 1.30165  L19.1962, 0.667563  L19.1962, -2.77556e-15  L19.1962, -0.667563  L19.1962, -1.30165  L19.1962, -1.87047  L19.1962, -2.34549  L19.1962, -2.70291  L19.1962, -2.92478  L19.1962, -3 " /><path id= "26" d=" M 16.5 3 L 19.1962 3 " />
<path d="M19.1962 3 A6 6 0 0 0 20 2.88083e-16" /></g>

</svg>
