<svg xmlns="http://www.w3.org/2000/svg" viewBox="-2.3333296 -3.3495696 5.9254192 6.6991392">
<rect width="100%" height="100%" fill="white"/>
<g   fill="none"
   stroke="rgb(0, 0, 0)"
   stroke-linecap="butt"
   stroke-linejoin="miter"
   stroke-width="0.35"
   transform="scale(1, -1)"
  >
<path d="M3.13008 -0.353663 A3.15 3.15 0 0 0 -1.25876 -2.88756" /><path d="M2.625, 4.32765e-13 Q2.88445, -0.181667 3.13008, -0.353663 " /><path d="M3.13008, 0.353663 Q2.88445, 0.181667 2.625, -4.32321e-13 " /><path d="M-1.25876 2.88756 A3.15 3.15 0 0 0 3.13008 0.353663" /><path d="M-1.3125, 2.27332 Q-1.2849, 2.58884 -1.25876, 2.88756 " /><path d="M-1.87132, 2.5339 Q-1.59955, 2.40717 -1.3125, 2.27332 " /><path d="M-1.87132 -2.5339 A3.15 3.15 0 0 0 -1.87132 2.5339" /><path d="M-1.3125, -2.27332 Q-1.59955, -2.40717 -1.87132, -2.5339 " /><path d="M-1.25876, -2.88756 Q-1.2849, -2.58884 -1.3125, -2.27332 " /><path d="M3.02605 0.28082 A3.03905 3.03905 0 0 0 3.03905 1.86088e-16" /><path d="M3.03905 1.86088e-16 A3.03905 3.03905 0 0 0 3.02605 -0.28082" /><path d="M-1.26983 -2.76105 A3.03905 3.03905 0 0 0 -1.51953 -2.6319" /><path d="M-1.51953 -2.6319 A3.03905 3.03905 0 0 0 -1.75622 -2.48023" /><path d="M-1.75622 2.48023 A3.03905 3.03905 0 0 0 -1.51953 2.6319" /><path d="M-1.51953 2.6319 A3.03905 3.03905 0 0 0 -1.26983 2.76105" /></g>

</svg>
