<svg xmlns="http://www.w3.org/2000/svg" viewBox="-2.5522044 -3.2420444 19.3324788 14.6490188">
<rect width="100%" height="100%" fill="white"/>
<g   fill="none"
   stroke="rgb(0, 0, 0)"
   stroke-linecap="butt"
   stroke-linejoin="miter"
   stroke-width="0.35"
   transform="scale(1, -1)"
  >
<path id= "1" d=" M -1.21893 -1.24137 L -0.567465 -2.83465 " />
<path id= "2" d=" M 0.46559 1.67631 L 2.17115 1.90877 " />
<path id= "3" d=" M -0.0857864 -3.41457 L 11.2279 -9.94655 " />
<path id= "4" d=" M 2.91421 1.78158 L 14.2279 -4.75039 " />
<path id= "5" d=" M 15.3611 -6.9236 L 14.7096 -5.33031 " />
<path id= "6" d=" M 13.6765 -9.84127 L 11.971 -10.0737 " />
</g>
<g   fill="none"
   stroke="rgb(0, 0, 0)"
   stroke-linecap="butt"
   stroke-linejoin="miter"
   stroke-width="0.35"
   transform="scale(1, -1)"
  >
<path d="M1.30482 0.75334 A1.8453 1.06538 60 0 1 0.46559 1.67631" />
<path d="M0.46559 1.67631 A1.8453 1.06538 60 0 1 -1.21893 -1.24137" />
<path d="M-1.21893 -1.24137 A1.8453 1.06538 60 0 1 1.30482 0.75334" />
<path d="M3.53553 0.408248 A3 1.73205 60 0 1 2.91421 1.78158" />
<path d="M2.91421 1.78158 A3 1.73205 60 0 1 2.17115 1.90877" />
<path d="M-0.567465 -2.83465 A3 1.73205 60 0 1 -0.0857864 -3.41457" />
<path d="M-0.0857864 -3.41457 A3 1.73205 60 0 1 3.53553 0.408248" />
<path d="M14.8492 -6.12372 A3 1.73205 60 0 1 14.7096 -5.33031" />
<path d="M14.7096 -5.33031 A3 1.73205 60 0 1 14.2279 -4.75039" />
<path d="M11.2279 -9.94655 A3 1.73205 60 0 1 11.971 -10.0737" />
<path d="M11.971 -10.0737 A3 1.73205 60 0 1 14.8492 -6.12372" />
<path d="M2.94156, -4.1478 C2.83664, -4.209 2.70025, -4.23838 2.56635, -4.24186  C2.43832, -4.24373 2.31563, -4.23091 2.19829, -4.2034  C1.99673, -4.15803 1.82121, -4.08635 1.68194, -4.00835  C1.53436, -3.92454 1.42491, -3.83231 1.38076, -3.7315  C1.35544, -3.67665 1.35567, -3.61878 1.38147, -3.55787  C1.41041, -3.49149 1.4779, -3.42686 1.58392, -3.36397 " /><path d="M1.58392, -3.36397 C1.68875, -3.30316 1.82501, -3.25401 1.95881, -3.22437  C2.08623, -3.19653 2.20838, -3.18337 2.32526, -3.18488  C2.53593, -3.18846 2.71308, -3.23182 2.85671, -3.31498 " /><path d="M2.85671, -3.31498 C2.99761, -3.39636 3.10221, -3.51485 3.14488, -3.65725  C3.17013, -3.73801 3.16977, -3.8219 3.14379, -3.90891  C3.11502, -3.99911 3.04705, -4.08753 2.94156, -4.1478 " /><path d="M11.2006, -8.91614 C11.3054, -8.85534 11.4417, -8.80618 11.5755, -8.77655  C11.7029, -8.74871 11.825, -8.73555 11.9419, -8.73706  C12.1526, -8.74063 12.3297, -8.784 12.4734, -8.86715 " /><path d="M12.4734, -8.86715 C12.6143, -8.94854 12.7189, -9.06703 12.7615, -9.20943  C12.7868, -9.29019 12.7864, -9.37407 12.7604, -9.46109  C12.7317, -9.55129 12.6637, -9.6397 12.5582, -9.69998 " /><path d="M12.5582, -9.69998 C12.4533, -9.76118 12.3169, -9.79055 12.183, -9.79403  C12.055, -9.79591 11.9323, -9.78309 11.8149, -9.75557  C11.6134, -9.71021 11.4379, -9.63853 11.2986, -9.56052  C11.151, -9.47672 11.0416, -9.38449 10.9974, -9.28367  C10.9721, -9.22883 10.9723, -9.17095 10.9981, -9.11005  C11.0271, -9.04367 11.0945, -8.97903 11.2006, -8.91614 " /><path d="M15.447 -7.41163 A1.8453 1.06538 60 0 1 15.3611 -6.9236" />
<path d="M13.6765 -9.84127 A1.8453 1.06538 60 0 1 15.447 -7.41163" />
<path d="M1.64599 -3.33107 A0.8 0.46188 -180 0 1 1.46274 -3.62524" />
<path d="M1.46274 -3.62524 A0.8 0.46188 -180 0 1 3.06274 -3.62524" />
<path d="M3.06274 -3.62524 A0.8 0.46188 -180 0 1 2.84224 -3.30682" />
<path d="M12.4451 -9.50402 A0.8 0.46188 -180 0 1 12.6794 -9.17742" />
<path d="M12.6794 -9.17742 A0.8 0.46188 -180 0 1 12.4589 -8.859" />
<path d="M11.2626 -8.88325 A0.8 0.46188 -180 0 1 11.0794 -9.17742" />
<path d="M11.0794 -9.17742 A0.8 0.46188 -180 0 1 12.4451 -9.50402" />
</g>

</svg>
