<svg xmlns="http://www.w3.org/2000/svg" viewBox="-2.3282784000000003 -2.4021084000000004 9.715846800000001 6.994756800000001">
<rect width="100%" height="100%" fill="white"/>
<g   fill="none"
   stroke="rgb(0, 0, 0)"
   stroke-linecap="butt"
   stroke-linejoin="miter"
   stroke-width="0.35"
   transform="scale(1, -1)"
  >
<path d="M1, 1.73205 C0.661883, 1.93085 0.26888, 2.0296 -0.0917157, 1.98967  C-0.460365, 1.9525 -0.791445, 1.79078 -1.06136, 1.56743  C-1.28567, 1.37924 -1.46918, 1.15818 -1.61188, 0.904243  C-1.74731, 0.666015 -1.83913, 0.411295 -1.88733, 0.140082  C-1.94776, -0.212092 -1.92093, -0.587674 -1.76174, -0.931232  C-1.68679, -1.09353 -1.58471, -1.24272 -1.4555, -1.37882  C-1.32232, -1.51693 -1.17048, -1.63467 -1, -1.73205 " /><path id= "2" d=" M 0.505705 -1.23305 L 0.667807 -1.32664 " />
<path id= "3" d=" M 1.71416 -0.0485915 L 1.76564 -0.0783092 " />
<path id= "4" d=" M 1.05509 -1.55024 L 1.23349 -1.65323 " />
<path id= "5" d=" M 2.27984 -0.375187 L 2.33132 -0.404905 " />
<path id= "6" d=" M 1.62077 -1.87684 L 1.79917 -1.97983 " />
<path id= "7" d=" M 2.84552 -0.701783 L 2.897 -0.7315 " />
<path id= "8" d=" M 2.18645 -2.20343 L 2.36485 -2.30643 " />
<path id= "9" d=" M 3.4112 -1.02838 L 3.46267 -1.0581 " />
<path id= "10" d=" M 2.75213 -2.53003 L 2.93053 -2.63302 " />
<path id= "11" d=" M 3.97689 -1.35497 L 4.02835 -1.38469 " />
<path id= "12" d=" M 3.31782 -2.85662 L 3.49621 -2.95962 " />
<path id= "13" d=" M 4.54257 -1.68157 L 4.59403 -1.71129 " />
<path id= "14" d=" M 3.8835 -3.18322 L 4.06189 -3.28621 " />
<path id= "15" d=" M 5.10825 -2.00817 L 5.15971 -2.03788 " />
<path id= "16" d=" M 4.44918 -3.50981 L 4.62757 -3.61281 " />
<path id= "17" d=" M 5.67393 -2.33476 L 5.73372 -2.36929 " />
<path id= "18" d=" M 5.90248 -2.5766 L 5.83521 -2.46915 " />
<path id= "19" d=" M 6.32713 -3.25484 L 6.13232 -2.9437 " />
<path id= "20" d=" M 5.50756 -3.83503 L 5.05595 -3.81886 " />
<path d="M6.30383, -3.86355 Q6.29818, -3.88057 6.29731, -3.88117 " /><path id= "22" d=" M 6.71751 -3.87836 L 6.46322 -3.4722 " />
<path id= "23" d=" M 6.71751 -3.87836 L 6.39867 -3.86694 " />
<path id= "24" d=" M 6.30384 -3.86355 L 5.7446 -3.84352 " />
<path d="M6.30022, -3.92259 Q6.34486, -3.89437 6.39981, -3.86698 " /><path d="M6.45866, -3.55321 L6.45137, -3.63439 " /></g>
<g   fill="none"
   stroke="rgb(0, 0, 0)"
   stroke-linecap="butt"
   stroke-linejoin="miter"
   stroke-width="0.35"
   transform="scale(1, -1)"
  >
<path d="M-0.764288, 0.842538 Q-0.746742, 0.802223 -0.724065, 0.752772 " /><path d="M1.41421 0.816497 A2 1.1547 60 0 1 1 1.73205" />
<path d="M-1 -1.73205 A2 1.1547 60 0 1 1.41421 0.816497" />
<path d="M-0.724065, 0.965061 Q-0.746742, 0.898918 -0.764288, 0.842538 " /><path d="M-0.376142, 1.41978 C-0.516048, 1.27071 -0.639065, 1.09724 -0.724065, 0.965061 " /><path d="M-0.616731, 1.55868 Q-0.469026, 1.5367 -0.376142, 1.41978 " /><path d="M-1.01395, 1.13243 C-0.9169, 1.25763 -0.776447, 1.42102 -0.616731, 1.55868 " /><path d="M-1.1118, 1.04318 Q-1.06812, 1.08446 -1.01395, 1.13243 " /><path d="M-1.1978, 1.02628 Q-1.15186, 1.03612 -1.1118, 1.04318 " /><path d="M-1.41763, 1.09628 C-1.35849, 1.08499 -1.26977, 1.05391 -1.1978, 1.02628 " /><path d="M-1.65822, 0.679566 Q-1.56534, 0.903748 -1.41763, 1.09628 " /><path d="M-1.48769, 0.524184 C-1.54759, 0.572697 -1.61887, 0.633985 -1.65822, 0.679566 " /><path d="M-1.45932, 0.441262 Q-1.47323, 0.47948 -1.48769, 0.524184 " /><path d="M-1.48769, 0.311895 Q-1.47323, 0.382784 -1.45932, 0.441262 " /><path d="M-1.65822, -0.245235 C-1.61887, -0.0381094 -1.5476, 0.165227 -1.48769, 0.311895 " /><path d="M-1.41763, -0.384139 Q-1.56534, -0.362164 -1.65822, -0.245235 " /><path d="M-1.1978, 0.144529 C-1.26977, 0.00483826 -1.35848, -0.188421 -1.41763, -0.384139 " /><path d="M-1.1118, 0.240624 Q-1.15186, 0.197238 -1.1978, 0.144529 " /><path d="M-1.01395, 0.250673 Q-1.06812, 0.245586 -1.1118, 0.240624 " /><path d="M-0.616731, 0.0782616 C-0.776432, 0.147607 -0.91689, 0.208562 -1.01395, 0.250673 " /><path d="M-0.376142, 0.494974 Q-0.469026, 0.270792 -0.616731, 0.0782616 " /><path d="M-0.724065, 0.752772 C-0.639074, 0.689776 -0.516062, 0.598617 -0.376142, 0.494974 " /><path d="M-1.3702, -0.243412 Q-1.50337, -0.244322 -1.65822, -0.245235 " /><path id= "24" d=" M -1.48769 0.311895 L -1.17481 0.170764 " />
<path id= "25" d=" M -1.45932 0.441262 L -1.03283 0.248883 " />
<path id= "26" d=" M -1.48769 0.524184 L -0.587059 0.117933 " />
<path d="M-1.65822, 0.679566 C-1.14863, 0.420886 -0.820812, 0.254358 -0.577837, 0.130744 " /><path d="M-0.402146, 0.435049 C-0.630686, 0.583665 -0.938814, 0.784302 -1.41763, 1.09628 " /><path id= "29" d=" M -1.1978 1.02628 L -0.395662 0.449441 " />
<path id= "30" d=" M -1.1118 1.04318 L -0.731953 0.770014 " />
<path id= "31" d=" M -1.01395 1.13243 L -0.735291 0.932034 " />
<path d="M-0.616731, 1.55868 Q-0.540095, 1.42412 -0.474299, 1.30833 " /><path d="M0.565834, -1.1699 C0.749364, -1.02823 0.927976, -0.784079 1.03858, -0.508743 " /><path d="M1.43947, -0.165633 Q1.41494, 0.027576 1.31319, 0.152064 " /><path d="M0.667807, -1.32664 C0.762838, -1.38321 0.915952, -1.33579 1.06135, -1.19597  C1.17121, -1.09162 1.27506, -0.93718 1.34578, -0.763821  C1.42646, -0.568129 1.46319, -0.350009 1.43947, -0.165633 " /><path d="M0.488152, -1.25079 C0.485672, -1.50102 0.611691, -1.6552 0.801496, -1.64177  C0.989611, -1.63303 1.23437, -1.45646 1.42138, -1.17884  C1.61011, -0.903931 1.73399, -0.536408 1.72916, -0.222578  C1.72796, 0.0928979 1.59719, 0.344878 1.37921, 0.435197 " /><path d="M2.00515, -0.492228 C1.98219, -0.303803 1.89646, -0.152845 1.76564, -0.0783092 " /><path d="M1.23349, -1.65323 C1.34196, -1.71869 1.52695, -1.64508 1.68854, -1.45812  C1.89928, -1.22305 2.04924, -0.809651 2.00515, -0.492228 " /><path d="M1.05436, -1.5507 C1.04163, -1.83528 1.18984, -2.00414 1.409, -1.96351  C1.62601, -1.92978 1.90171, -1.68747 2.08235, -1.34827  C2.26631, -1.01201 2.34475, -0.594345 2.26241, -0.294349  C2.18536, 0.00977712 1.94981, 0.182308 1.65714, 0.146537 " /><path d="M2.57083, -0.818823 C2.54787, -0.630399 2.46215, -0.479441 2.33132, -0.404905 " /><path d="M1.70108, -1.64756 Q1.69324, -1.70125 1.69413, -1.74899 " /><path d="M1.79917, -1.97983 C1.89415, -2.03637 2.04717, -1.98903 2.1925, -1.84935  C2.30225, -1.74518 2.40601, -1.59103 2.47676, -1.41793  C2.5577, -1.222 2.59458, -1.00349 2.57083, -0.818823 " /><path d="M1.62004, -1.87729 C1.60731, -2.16188 1.75552, -2.33073 1.97468, -2.29011  C2.19169, -2.25638 2.46739, -2.01407 2.64803, -1.67486  C2.832, -1.33861 2.91043, -0.920941 2.82809, -0.620945  C2.75104, -0.316818 2.51549, -0.144288 2.22282, -0.180058 " /><path d="M3.13651, -1.14542 C3.11355, -0.956994 3.02782, -0.806035 2.89699, -0.7315 " /><path d="M2.36485, -2.30643 C2.46008, -2.36313 2.61366, -2.31535 2.75934, -2.17484  C2.86848, -2.07087 2.97161, -1.91751 3.0421, -1.74536  C3.12327, -1.54922 3.1603, -1.33035 3.13651, -1.14542 " /><path d="M2.18572, -2.20389 C2.17299, -2.48847 2.3212, -2.65733 2.54036, -2.6167  C2.75737, -2.58297 3.03307, -2.34066 3.21371, -2.00146  C3.39768, -1.66521 3.47611, -1.24754 3.39377, -0.94754  C3.31672, -0.643414 3.08117, -0.470883 2.7885, -0.506653 " /><path d="M3.70219, -1.47201 C3.67923, -1.28359 3.59351, -1.13263 3.46267, -1.0581 " /><path d="M2.93053, -2.63302 C2.9713, -2.65635 3.01978, -2.66211 3.07597, -2.65029  C3.22359, -2.62059 3.41011, -2.45357 3.53919, -2.21563  C3.66491, -1.9887 3.73265, -1.70377 3.70219, -1.47201 " /><path d="M2.7514, -2.53049 C2.73867, -2.81507 2.88688, -2.98392 3.10604, -2.9433  C3.32305, -2.90957 3.59875, -2.66726 3.77939, -2.32805  C3.96336, -1.9918 4.0418, -1.57413 3.95945, -1.27414  C3.8824, -0.970009 3.64685, -0.797478 3.35419, -0.833249 " /><path d="M4.26787, -1.79861 C4.24491, -1.61018 4.15918, -1.45923 4.02835, -1.38469 " /><path d="M3.49621, -2.95962 C3.59123, -3.01617 3.74428, -2.96878 3.88964, -2.82905  C3.99945, -2.72479 4.10325, -2.57049 4.17398, -2.39726  C4.2548, -2.20145 4.2916, -1.98313 4.26787, -1.79861 " /><path d="M3.31708, -2.85708 C3.30435, -3.14167 3.45256, -3.31052 3.67172, -3.26989  C3.88873, -3.23616 4.16443, -2.99385 4.34507, -2.65465  C4.52904, -2.3184 4.60748, -1.90073 4.52513, -1.60073  C4.44808, -1.2966 4.21253, -1.12407 3.91987, -1.15984 " /><path d="M4.83355, -2.1252 C4.81059, -1.93678 4.72486, -1.78582 4.59403, -1.71129 " /><path d="M4.06189, -3.28621 C4.15707, -3.34287 4.31051, -3.2952 4.45609, -3.15491  C4.56519, -3.05106 4.66831, -2.89786 4.73885, -2.72583  C4.82022, -2.52952 4.85737, -2.31035 4.83355, -2.1252 " /><path d="M3.88276, -3.18368 C3.87003, -3.46826 4.01824, -3.63712 4.2374, -3.59649  C4.45441, -3.56276 4.73011, -3.32045 4.91075, -2.98125  C5.09472, -2.64499 5.17316, -2.22732 5.09081, -1.92733  C5.01376, -1.6232 4.77821, -1.45067 4.48555, -1.48644 " /><path d="M5.39923, -2.4518 C5.37627, -2.26338 5.29054, -2.11242 5.15971, -2.03788 " /><path d="M4.62757, -3.61281 C4.73609, -3.6783 4.9212, -3.60458 5.08285, -3.41743  C5.29347, -3.18233 5.4433, -2.76911 5.39923, -2.4518 " /><path d="M4.44844, -3.51027 C4.43571, -3.79486 4.58392, -3.96371 4.80308, -3.92309  C5.02009, -3.88936 5.29579, -3.64704 5.47643, -3.30784  C5.6604, -2.97159 5.73884, -2.55392 5.65649, -2.25392  C5.57944, -1.9498 5.34389, -1.77726 5.05123, -1.81304 " /><path d="M5.90251 -2.74237 A0.815 0.47054 60 0 1 5.83521 -2.46915" />
<path d="M5.83521 -2.46915 A0.815 0.47054 60 0 1 5.73372 -2.36929" />
<path d="M5.50756, -3.83503 C5.6069, -3.84256 5.78065, -3.6906 5.89152, -3.44034  C5.96901, -3.26928 6.01317, -3.05898 5.99523, -2.87161 " /><path d="M5.37937, -3.83044 C5.39746, -3.948 5.49488, -3.99508 5.62564, -3.92787  C5.75515, -3.86401 5.91305, -3.68507 6.01648, -3.44545  C6.12124, -3.2079 6.16574, -2.91588 6.1057, -2.68529  C6.04867, -2.45326 5.88598, -2.29111 5.66134, -2.27316 " /><path d="M5.99523, -2.87161 Q5.9799, -2.70265 5.90248, -2.5766 " /><path d="M5.04274 -3.81813 A0.815 0.47054 60 0 1 5.05595 -3.81886" />
<path d="M5.05595 -3.81886 A0.815 0.47054 60 0 1 5.90251 -2.74237" />
<path d="M6.38722, -3.41797 Q6.37241, -3.32917 6.32713, -3.25484 " /><path d="M6.30384, -3.86353 L6.30384, -3.86355 " /><path d="M6.30384, -3.86355 C6.30448, -3.86408 6.31067, -3.85425 6.3224, -3.83407  C6.3547, -3.77923 6.41968, -3.60207 6.38722, -3.41797 " /><path d="M6.30067, -3.87311 C6.27273, -3.91138 6.27424, -3.93864 6.30022, -3.92259 " /><path d="M6.30022, -3.92259 C6.3384, -3.90316 6.43615, -3.75821 6.45866, -3.55321 " /><path d="M6.45866, -3.55321 C6.47062, -3.44766 6.46004, -3.33206 6.41619, -3.23731  C6.37301, -3.1423 6.2962, -3.06976 6.19463, -3.04322 " /><path d="M6.39867, -3.86694 C6.38651, -3.87153 6.4412, -3.78908 6.45137, -3.63439 " /></g>

</svg>
