<svg xmlns="http://www.w3.org/2000/svg" viewBox="-2.4581164 -2.8857864 12.8439028 5.7715728">
<rect width="100%" height="100%" fill="white"/>
<g   fill="none"
   stroke="rgb(0, 0, 0)"
   stroke-linecap="butt"
   stroke-linejoin="miter"
   stroke-width="0.35"
   transform="scale(1, -1)"
  >
<path d="M5.55112e-17, -2 C-0.227073, -2.00001 -0.454059, -1.96979 -0.662395, -1.89003  C-0.855108, -1.817 -1.02879, -1.69873 -1.16347, -1.54367  C-1.41265, -1.25837 -1.52603, -0.874138 -1.57233, -0.49146 " /><path d="M0.11368, -0.999894 Q0.00354597, -1.13073 0, -1.2 " /><path d="M0.78709, -0.786725 L0.942066, -1.04798 " /><path d="M0.542053, 1.04796 L0.403979, 0.815 " /><path d="M0.10568, -0.986352 L0.142044, -1.04797 " /><path id= "6" d=" M 0.315164 -0.815 L 0.803982 -0.815 " />
<path d="M0.593811, 1.04796 L0.748804, 0.7867 " /><path d="M0.193798, -1.04798 L0.331894, -0.815 " /><path d="M1.58708, -0.786725 L1.74206, -1.04798 " /><path d="M1.34205, 1.04796 L1.20397, 0.815 " /><path id= "11" d=" M 1.11516 -0.815 L 1.60397 -0.815 " />
<path d="M1.3938, 1.04796 L1.5488, 0.7867 " /><path d="M0.993791, -1.04798 L1.13189, -0.815 " /><path d="M2.38707, -0.786725 L2.54205, -1.04798 " /><path d="M2.14204, 1.04796 L2.00396, 0.815 " /><path id= "16" d=" M 1.91515 -0.815 L 2.40397 -0.815 " />
<path d="M2.1938, 1.04796 L2.34879, 0.7867 " /><path d="M1.79378, -1.04798 L1.93188, -0.815 " /><path d="M3.18707, -0.786726 L3.34204, -1.04798 " /><path d="M2.94203, 1.04796 L2.80396, 0.815 " /><path id= "21" d=" M 2.71514 -0.815 L 3.20396 -0.815 " />
<path d="M2.99379, 1.04796 L3.14878, 0.7867 " /><path d="M2.59378, -1.04798 L2.73187, -0.815 " /><path d="M3.98706, -0.786726 L4.14204, -1.04798 " /><path d="M3.74202, 1.04796 L3.60395, 0.815 " /><path id= "26" d=" M 3.51513 -0.815 L 4.00395 -0.815 " />
<path d="M3.79378, 1.04796 L3.94877, 0.7867 " /><path d="M3.39377, -1.04798 L3.53186, -0.815 " /><path d="M4.78705, -0.786726 L4.94203, -1.04798 " /><path d="M4.54202, 1.04796 L4.40394, 0.815 " /><path id= "31" d=" M 4.31513 -0.815 L 4.80394 -0.815 " />
<path d="M4.59378, 1.04796 L4.74877, 0.786699 " /><path d="M4.19376, -1.04798 L4.33186, -0.815 " /><path d="M5.58704, -0.786726 L5.74202, -1.04798 " /><path d="M5.34201, 1.04796 L5.20393, 0.815 " /><path id= "36" d=" M 5.11512 -0.815 L 5.60393 -0.815 " />
<path d="M5.39377, 1.04796 L5.54876, 0.786699 " /><path d="M4.99376, -1.04798 L5.13185, -0.815 " /><path d="M6.38703, -0.786726 L6.54202, -1.04798 " /><path d="M6.142, 1.04796 L6.00392, 0.815 " /><path id= "41" d=" M 5.91511 -0.815 L 6.40393 -0.815 " />
<path d="M6.19376, 1.04796 L6.34875, 0.786699 " /><path d="M5.79375, -1.04798 L5.93184, -0.815 " /><path d="M7.18703, -0.786727 L7.34201, -1.04798 " /><path d="M6.942, 1.04796 L6.80392, 0.815 " /><path id= "46" d=" M 6.7151 -0.815 L 7.20392 -0.815 " />
<path d="M6.99375, 1.04796 L7.14874, 0.786699 " /><path d="M6.59374, -1.04798 L6.73183, -0.815 " /><path d="M8.1301, -0.446263 L8.18662, -0.563608 " /><path d="M7.76302, 0.812995 L7.72169, 0.736601 " /><path id= "51" d=" M 7.5151 -0.815 L 7.53242 -0.815 " />
<path d="M7.84421, 0.825415 L7.99003, 0.606294 " /><path d="M7.39169, -1.04387 L7.52713, -0.815 " /><path id= "54" d=" M 8.17895 -0.547197 L 7.53242 -0.815 " />
<path d="M8.95966, -0.0332903 L8.97328, -0.0558356 " /><path id= "56" d=" M 9.5 3.65219e-13 L 9.27032 -0.0951376 " />
<path id= "57" d=" M 9.06356 -0.180779 L 8.39813 -0.456408 " />
<path d="M8.75494, 0.384908 Q8.82047, 0.310151 8.89194, 0.232925 " /><path d="M8.29791, -0.606239 L8.41806, -0.448153 " /></g>
<g   fill="none"
   stroke="rgb(0, 0, 0)"
   stroke-linecap="butt"
   stroke-linejoin="miter"
   stroke-width="0.35"
   transform="scale(1, -1)"
  >
<path d="M-1.57233, 0.49146 Q-1.56976, 0.513706 -1.56394, 0.539962 " /><path d="M-1.57233, 0.49146 Q-1.38958, 2 0, 2 " /><path d="M0, -2 L0, -1.94986  L0, -1.80194  L0, -1.56366  L0, -1.24698  L0, -0.867767  L0, -0.445042  L0, -3.88578e-16  L0, 0.445042  L0, 0.867767  L0, 1.24698  L0, 1.56366  L0, 1.80194  L0, 1.94986  L0, 2 " /><path d="M-1.43851, 0.906567 L-1.44506, 0.894606 " /><path d="M-1.55976, 0.156512 Q-1.54582, 0.24555 -1.51638, 0.352678 " /><path d="M-1.51636, 0.352758 L-1.51201, 0.367872 " /><path d="M-1.47467, -0.47947 L-1.47615, -0.475547 " /><path d="M-1.50072, -0.404724 Q-1.54766, -0.250502 -1.56394, -0.13 " /><path d="M-1.52908, -0.688964 L-1.52672, -0.696819 " /><path d="M-1.51529, -0.732314 L-1.51445, -0.734778 " /><path d="M-1.47691, -0.830022 L-1.47552, -0.833097 " /><path d="M-1.56394, -0.539962 Q-1.56976, -0.513706 -1.57233, -0.49146 " /><path d="M-1.43851, -0.906567 C-1.50962, -0.779814 -1.54621, -0.642431 -1.56394, -0.539962 " /><path d="M-1.43851, -0.566323 Q-1.43851, -0.77521 -1.43851, -0.906567 " /><path d="M-1.56394, -0.13 C-1.54621, -0.249515 -1.50962, -0.411558 -1.43851, -0.566323 " /><path d="M-1.57233, -9.67032e-13 Q-1.56976, -0.0592141 -1.56394, -0.13 " /><path d="M-1.56394, 0.13 Q-1.56976, 0.0592141 -1.57233, 1.07934e-12 " /><path d="M-1.43851, 0.566323 C-1.50962, 0.411575 -1.54621, 0.249527 -1.56394, 0.13 " /><path d="M-1.43851, 0.906567 Q-1.43851, 0.77521 -1.43851, 0.566323 " /><path d="M-1.56394, 0.539962 C-1.54621, 0.64242 -1.50962, 0.779799 -1.43851, 0.906567 " /><path id= "21" d=" M -1.56394 0.539962 L -1.45585 0.52669 " />
<path id= "22" d=" M -1.57233 0.49146 L -1.47467 0.47947 " />
<path id= "23" d=" M -1.56394 -0.539962 L -1.45585 -0.52669 " />
<path id= "24" d=" M -1.57233 -0.49146 L -1.47467 -0.47947 " />
<path d="M0, 1.2 Q2.77556e-17, 1.1 0.285, 0.815 " /><path d="M0.285, -0.792247 Q0.285, -0.764055 0.285, -0.735863  Q0.285, -0.691889 0.285, -0.647914  Q0.285, -0.590044 0.285, -0.532173  Q0.285, -0.462889 0.285, -0.393605  Q0.285, -0.31588 0.285, -0.238154  Q0.285, -0.0733585 0.285, 0.0962897  Q0.285, 0.178613 0.285, 0.260936  Q0.285, 0.337662 0.285, 0.414389  Q0.285, 0.482228 0.285, 0.550067  Q0.285, 0.606109 0.285, 0.662151  Q0.285, 0.703991 0.285, 0.745832  Q0.285, 0.771676 0.285, 0.79752  Q0.285, 0.80626 0.285, 0.815 " /><path d="M0.285, -0.792247 C0.253137, -0.802771 0.220647, -0.799931 0.18753, -0.783728  C0.147174, -0.767486 0.105001, -0.720206 0.0595032, -0.704932 " /><path d="M0.0595032, -0.704932 Q0.0816033, -0.942265 0.10568, -0.986352 " /><path id= "29" d=" M 0.285 0.815 L 0.420723 0.815 " />
<path d="M0.78709, -0.786725 C0.72659, -0.691874 0.665962, -0.291963 0.605496, 0.0972481  C0.576666, 0.280743 0.547806, 0.455678 0.518959, 0.58415  C0.486198, 0.731097 0.453469, 0.815808 0.420723, 0.815 " /><path d="M0.967929, -1.07 Q0.954997, -1.06997 0.942066, -1.04798 " /><path d="M0.942066, -1.04798 C0.913052, -0.999364 0.884021, -0.865596 0.854998, -0.675987  C0.825974, -0.487215 0.796958, -0.244134 0.767939, -4.53821e-05  C0.738921, 0.244043 0.709899, 0.487139 0.680875, 0.67593  C0.651852, 0.865559 0.62283, 0.999342 0.593811, 1.04796 " /><path d="M0.593811, 1.04796 Q0.567932, 1.09199 0.542053, 1.04796 " /><path d="M0.193798, -1.04798 Q0.180867, -1.06997 0.167936, -1.07 " /><path d="M0.167936, -1.07 Q0.154983, -1.06997 0.142044, -1.04797 " /><path d="M0.142044, -1.04797 C0.114534, -1.00179 0.0870228, -0.879367 0.0595032, -0.704932 " /><path d="M0.315164, -0.815 Q0.300077, -0.814957 0.285, -0.792247 " /><path id= "38" d=" M 0.731896 0.815 L 1.22072 0.815 " />
<path d="M1.11516, -0.815 C1.06271, -0.819799 1.01027, -0.589299 0.957859, -0.268157  C0.936253, -0.134652 0.914649, 0.00167792 0.893044, 0.140834  C0.84497, 0.446354 0.796901, 0.709194 0.748804, 0.7867 " /><path d="M1.58708, -0.786725 C1.52669, -0.692021 1.46617, -0.293455 1.40582, 0.0951586  C1.37687, 0.279479 1.34789, 0.455324 1.31892, 0.584296  C1.28617, 0.731155 1.25345, 0.815806 1.22072, 0.815 " /><path d="M1.76792, -1.07 Q1.75499, -1.06997 1.74206, -1.04798 " /><path d="M1.74206, -1.04798 C1.71305, -0.999365 1.68401, -0.865597 1.65499, -0.675988  C1.62597, -0.487216 1.59695, -0.244135 1.56793, -4.62887e-05  C1.53891, 0.244042 1.50989, 0.487138 1.48087, 0.675929  C1.45184, 0.865559 1.42282, 0.999342 1.3938, 1.04796 " /><path d="M1.3938, 1.04796 Q1.36792, 1.09199 1.34205, 1.04796 " /><path d="M0.993791, -1.04798 Q0.98086, -1.06997 0.967929, -1.07 " /><path d="M1.11516, -0.815 L1.11516, -0.815 " /><path id= "46" d=" M 1.53189 0.815 L 2.02071 0.815 " />
<path d="M1.91515, -0.815 C1.8787, -0.816216 1.84216, -0.710115 1.80572, -0.532104  C1.76818, -0.350385 1.73057, -0.0960844 1.69299, 0.141126  C1.64493, 0.446513 1.59688, 0.709206 1.5488, 0.7867 " /><path d="M2.38707, -0.786725 C2.32655, -0.691841 2.26589, -0.291612 2.2054, 0.0977404  C2.1767, 0.280392 2.14797, 0.454538 2.11925, 0.582758  C2.08639, 0.730546 2.05356, 0.815817 2.02071, 0.815 " /><path d="M2.56791, -1.07 Q2.55498, -1.06997 2.54205, -1.04798 " /><path d="M2.54205, -1.04798 C2.51304, -0.999366 2.48401, -0.865598 2.45498, -0.675989  C2.42596, -0.487217 2.39694, -0.244136 2.36793, -4.71953e-05  C2.33891, 0.244042 2.30988, 0.487137 2.28086, 0.675929  C2.25184, 0.865559 2.22282, 0.999342 2.1938, 1.04796 " /><path d="M2.1938, 1.04796 Q2.16792, 1.09199 2.14204, 1.04796 " /><path d="M1.79378, -1.04798 Q1.78085, -1.06997 1.76792, -1.07 " /><path d="M1.91515, -0.815 L1.91515, -0.815 " /><path id= "54" d=" M 2.33188 0.815 L 2.8207 0.815 " />
<path d="M2.71514, -0.815 C2.66294, -0.819719 2.61073, -0.591507 2.55856, -0.272506  C2.53669, -0.137543 2.51482, 0.000404665 2.49295, 0.141337  C2.4449, 0.446651 2.39686, 0.709232 2.34879, 0.7867 " /><path d="M3.18707, -0.786726 C3.12669, -0.692046 3.06619, -0.293702 3.00585, 0.094813  C2.97694, 0.278932 2.94799, 0.454626 2.91906, 0.583612  C2.88625, 0.730884 2.85348, 0.815811 2.8207, 0.815 " /><path d="M3.36791, -1.07 Q3.35498, -1.06997 3.34204, -1.04798 " /><path d="M3.34204, -1.04798 C3.31303, -0.999367 3.284, -0.865599 3.25498, -0.67599  C3.22595, -0.487218 3.19694, -0.244137 3.16792, -4.8102e-05  C3.1389, 0.244041 3.10988, 0.487137 3.08085, 0.675928  C3.05183, 0.865558 3.02281, 0.999342 2.99379, 1.04796 " /><path d="M2.99379, 1.04796 Q2.96791, 1.09199 2.94203, 1.04796 " /><path d="M2.59378, -1.04798 Q2.58085, -1.06997 2.56791, -1.07 " /><path d="M2.71514, -0.815 L2.71514, -0.815 " /><path id= "62" d=" M 3.13187 0.815 L 3.62069 0.815 " />
<path d="M3.51513, -0.815 C3.46292, -0.819723 3.4107, -0.591405 3.35852, -0.272305  C3.33665, -0.13733 3.31478, 0.000620262 3.29291, 0.141547  C3.24487, 0.446775 3.19684, 0.709248 3.14878, 0.7867 " /><path d="M3.98706, -0.786726 C3.92658, -0.691911 3.86598, -0.292317 3.80554, 0.0967543  C3.77677, 0.279873 3.74797, 0.454512 3.71919, 0.582985  C3.68634, 0.730636 3.65352, 0.815816 3.62069, 0.815 " /><path d="M4.1679, -1.07 Q4.15497, -1.06997 4.14204, -1.04798 " /><path d="M4.14204, -1.04798 C4.11302, -0.999367 4.08399, -0.865599 4.05497, -0.675991  C4.02595, -0.487219 3.99693, -0.244138 3.96791, -4.90086e-05  C3.93889, 0.24404 3.90987, 0.487136 3.88085, 0.675928  C3.85182, 0.865558 3.8228, 0.999342 3.79378, 1.04796 " /><path d="M3.79378, 1.04796 Q3.7679, 1.09199 3.74202, 1.04796 " /><path d="M3.39377, -1.04798 Q3.38084, -1.06997 3.36791, -1.07 " /><path d="M3.51513, -0.815 L3.51513, -0.815 " /><path id= "70" d=" M 3.93187 0.815 L 4.42068 0.815 " />
<path d="M4.31513, -0.815 C4.2629, -0.819727 4.21067, -0.591305 4.15848, -0.272107  C4.13661, -0.13712 4.11474, 0.000833626 4.09287, 0.141754  C4.04484, 0.446897 3.99682, 0.709263 3.94877, 0.7867 " /><path d="M4.78705, -0.786726 C4.74889, -0.724154 4.71063, -0.54802 4.67243, -0.322353  C4.62966, -0.0708198 4.58693, 0.235695 4.54412, 0.461051  C4.50295, 0.680019 4.46182, 0.816937 4.42068, 0.815 " /><path d="M4.96789, -1.07 Q4.95496, -1.06997 4.94203, -1.04798 " /><path d="M4.94203, -1.04798 C4.91302, -0.999368 4.88399, -0.8656 4.85496, -0.675992  C4.82594, -0.48722 4.79692, -0.244139 4.7679, -4.99152e-05  C4.73889, 0.244039 4.70986, 0.487135 4.68084, 0.675927  C4.65182, 0.865558 4.62279, 0.999341 4.59378, 1.04796 " /><path d="M4.59378, 1.04796 Q4.5679, 1.09199 4.54202, 1.04796 " /><path d="M4.19376, -1.04798 Q4.18083, -1.06997 4.1679, -1.07 " /><path d="M4.31513, -0.815 L4.31513, -0.815 " /><path id= "78" d=" M 4.73186 0.815 L 5.22067 0.815 " />
<path d="M5.11512, -0.815 C5.06288, -0.819731 5.01064, -0.591206 4.95844, -0.271912  C4.93657, -0.136913 4.9147, 0.00104346 4.89283, 0.141958  C4.84481, 0.447013 4.7968, 0.709275 4.74877, 0.786699 " /><path d="M5.58704, -0.786726 C5.52666, -0.692032 5.46614, -0.293535 5.4058, 0.0949794  C5.37687, 0.279199 5.34791, 0.454969 5.31896, 0.58395  C5.28618, 0.731018 5.25344, 0.815809 5.22067, 0.815 " /><path d="M5.76789, -1.07 Q5.75495, -1.06997 5.74202, -1.04798 " /><path d="M5.74202, -1.04798 C5.71301, -0.999369 5.68398, -0.865601 5.65496, -0.675992  C5.62593, -0.487221 5.59692, -0.24414 5.5679, -5.08218e-05  C5.53888, 0.244038 5.50986, 0.487135 5.48083, 0.675927  C5.45181, 0.865557 5.42279, 0.999341 5.39377, 1.04796 " /><path d="M5.39377, 1.04796 Q5.36789, 1.09199 5.34201, 1.04796 " /><path d="M4.99376, -1.04798 Q4.98082, -1.06997 4.96789, -1.07 " /><path id= "85" d=" M 5.53185 0.815 L 6.02067 0.815 " />
<path d="M5.91511, -0.815 C5.86286, -0.819734 5.81061, -0.591108 5.7584, -0.271719  C5.73653, -0.136708 5.71466, 0.00125171 5.69279, 0.14216  C5.64478, 0.447132 5.59679, 0.70929 5.54876, 0.786699 " /><path d="M6.38703, -0.786727 C6.32658, -0.691943 6.266, -0.292619 6.20559, 0.0962636  C6.17684, 0.279315 6.14805, 0.453935 6.11928, 0.582471  C6.08639, 0.730433 6.05354, 0.81582 6.02067, 0.815 " /><path d="M6.56788, -1.07 Q6.55495, -1.06997 6.54202, -1.04798 " /><path d="M6.54202, -1.04798 C6.513, -0.999369 6.48397, -0.865602 6.45495, -0.675993  C6.42592, -0.487222 6.39691, -0.244141 6.36789, -5.17284e-05  C6.33887, 0.244037 6.30985, 0.487134 6.28083, 0.675926  C6.2518, 0.865557 6.22278, 0.999341 6.19376, 1.04796 " /><path d="M6.19376, 1.04796 Q6.16788, 1.09199 6.142, 1.04796 " /><path d="M5.79375, -1.04798 Q5.78082, -1.06997 5.76789, -1.07 " /><path id= "92" d=" M 6.33184 0.815 L 6.82066 0.815 " />
<path d="M6.7151, -0.815 C6.66285, -0.819738 6.61058, -0.591012 6.55836, -0.271528  C6.53649, -0.136505 6.51462, 0.00145707 6.49275, 0.142359  C6.44476, 0.447247 6.39677, 0.709303 6.34875, 0.786699 " /><path d="M7.18703, -0.786727 C7.12651, -0.691856 7.06586, -0.291733 7.00538, 0.0975744  C6.97665, 0.280446 6.94788, 0.454803 6.91913, 0.583095  C6.88629, 0.73068 6.85348, 0.815815 6.82066, 0.815 " /><path d="M7.36787, -1.07 Q7.35494, -1.06997 7.34201, -1.04798 " /><path d="M7.34201, -1.04798 C7.313, -0.99937 7.28396, -0.865603 7.25494, -0.675994  C7.22592, -0.487223 7.1969, -0.244142 7.16788, -5.26351e-05  C7.13886, 0.244037 7.10984, 0.487133 7.08082, 0.675926  C7.05179, 0.865557 7.02277, 0.999341 6.99375, 1.04796 " /><path d="M6.99375, 1.04796 Q6.96787, 1.09199 6.942, 1.04796 " /><path d="M6.59374, -1.04798 Q6.58081, -1.06997 6.56788, -1.07 " /><path id= "99" d=" M 7.13183 0.815 L 7.53242 0.815 " />
<path d="M7.36787, -1.07 L7.5151, -0.815 " /><path d="M7.5151, -0.815 C7.46283, -0.819741 7.41056, -0.590916 7.35832, -0.271339  C7.33645, -0.136305 7.31458, 0.00166015 7.29271, 0.142556  C7.24473, 0.447363 7.19675, 0.709318 7.14874, 0.786699 " /><path d="M8.1301, -0.446263 C8.08556, -0.358123 8.04129, -0.197185 7.99734, -0.0156429  C7.95886, 0.142635 7.92058, 0.313726 7.88252, 0.449349  C7.84013, 0.601316 7.79805, 0.705847 7.75625, 0.722284 " /><path d="M8.26939, -0.632273 Q8.22802, -0.652805 8.18662, -0.563608 " /><path d="M8.18662, -0.563608 C8.12954, -0.444374 8.07248, -0.153286 8.01542, 0.149626  C7.95835, 0.451481 7.90127, 0.741666 7.84421, 0.825415 " /><path d="M7.84421, 0.825415 Q7.80361, 0.888162 7.76302, 0.812995 " /><path d="M7.39169, -1.04387 Q7.37978, -1.06416 7.36787, -1.07 " /><path d="M7.53242, -0.815 L7.53242, -0.794566  L7.53242, -0.73429  L7.53242, -0.637193  L7.53242, -0.508144  L7.53242, -0.353615  L7.53242, -0.181355  L7.53242, -1.38778e-16  L7.53242, 0.181355  L7.53242, 0.353615  L7.53242, 0.508144  L7.53242, 0.637193  L7.53242, 0.73429  L7.53242, 0.794566  L7.53242, 0.815 " /><path id= "108" d=" M 7.53242 0.815 L 7.75625 0.722284 " />
<path d="M8.39813, -0.456408 C8.33815, -0.485282 8.27857, -0.366668 8.21943, -0.157561  C8.14217, 0.111273 8.06575, 0.497899 7.99003, 0.606294 " /><path id= "110" d=" M 7.97222 0.632828 L 8.70259 0.330298 " />
<path d="M8.95966, -0.0332903 C8.8737, 0.0880711 8.78782, 0.296682 8.70259, 0.330298 " /><path d="M9.17091, -0.194545 Q9.0721, -0.248331 8.97328, -0.0558356 " /><path d="M8.97328, -0.0558356 C8.90051, 0.0804436 8.82771, 0.302511 8.75494, 0.384908 " /><path d="M8.75494, 0.384908 Q8.69003, 0.463366 8.62512, 0.362387 " /><path d="M8.29791, -0.606239 Q8.28365, -0.625263 8.26939, -0.632273 " /><path id= "116" d=" M 8.8636 0.263604 L 9.5 -2.71528e-14 " />
<path d="M9.27032, -0.0951376 C9.19568, -0.131126 9.12092, -0.096897 9.04571, 0.0129987  C8.99445, 0.083915 8.94324, 0.177827 8.89194, 0.232925 " /><path d="M9.17091, -0.194545 L9.27032, -0.0951376 " /></g>

</svg>
