<svg xmlns="http://www.w3.org/2000/svg" viewBox="-2.9770948 -3.8324848000000005 20.4215796 15.829969600000002">
<rect width="100%" height="100%" fill="white"/>
<g   fill="none"
   stroke="rgb(0, 0, 0)"
   stroke-linecap="butt"
   stroke-linejoin="miter"
   stroke-width="0.35"
   transform="scale(1, -1)"
  >
<path id= "1" d=" M -1.56871 -2.1311 L -0.908505 -2.87683 " />
<path id= "2" d=" M 1.06123 2.4241 L 2.03716 2.2252 " />
<path id= "3" d=" M -0.651472 -3.08797 L 11.7936 -10.2731 " />
<path id= "4" d=" M 2.34853 2.10818 L 14.7936 -5.07699 " />
<path id= "5" d=" M 15.7109 -6.03386 L 15.0506 -5.28814 " />
<path id= "6" d=" M 13.0809 -10.5891 L 12.105 -10.3902 " />
</g>
<g   fill="none"
   stroke="rgb(0, 0, 0)"
   stroke-linecap="butt"
   stroke-linejoin="miter"
   stroke-width="0.35"
   transform="scale(1, -1)"
  >
<path d="M1.89396 1.09348 A2.67846 1.54641 60 0 1 1.06123 2.4241" />
<path d="M1.06123 2.4241 A2.67846 1.54641 60 0 1 -1.56871 -2.1311" />
<path d="M-1.56871 -2.1311 A2.67846 1.54641 60 0 1 1.89396 1.09348" />
<path d="M2.96985 0.734847 A3 1.73205 60 0 1 2.34853 2.10818" />
<path d="M2.34853 2.10818 A3 1.73205 60 0 1 2.03716 2.2252" />
<path d="M-0.908505 -2.87683 A3 1.73205 60 0 1 -0.651472 -3.08797" />
<path d="M-0.651472 -3.08797 A3 1.73205 60 0 1 2.96985 0.734847" />
<path d="M15.4149 -6.45032 A3 1.73205 60 0 1 15.0506 -5.28814" />
<path d="M15.0506 -5.28814 A3 1.73205 60 0 1 14.7936 -5.07699" />
<path d="M11.7936 -10.2731 A3 1.73205 60 0 1 12.105 -10.3902" />
<path d="M12.105 -10.3902 A3 1.73205 60 0 1 15.4149 -6.45032" />
<path d="M16.0361 -7.07149 A2.67846 1.54641 60 0 1 15.7109 -6.03386" />
<path d="M13.0809 -10.5891 A2.67846 1.54641 60 0 1 16.0361 -7.07149" />
</g>

</svg>
