<svg xmlns="http://www.w3.org/2000/svg" viewBox="-18.2190864 -14.1138864 23.7102028 20.8792628">
<rect width="100%" height="100%" fill="white"/>
<g   fill="none"
   stroke="rgb(0, 0, 0)"
   stroke-linecap="butt"
   stroke-linejoin="miter"
   stroke-width="0.35"
   transform="scale(1, -1)"
  >
<path d="M-10.7419, 8.3258 C-10.7643, 7.7773 -10.9654, 7.1457 -11.2905, 6.59923 " /><g transform = "rotate(60, -12.7279, 7.34847)">
<ellipse cx ="-12.7279" cy ="7.34847" rx ="3.375"  ry ="1.94856"/>
</g>
<path d="M-10.7419, 8.3258 C-10.7243, 8.71951 -10.7957, 9.06993 -10.9467, 9.33144  C-11.1001, 9.5994 -11.3359, 9.77407 -11.623, 9.83415  C-11.9242, 9.89846 -12.2812, 9.83611 -12.6455, 9.65769  C-13.0283, 9.47136 -13.4179, 9.15752 -13.7599, 8.76296 " /><path d="M-14.7181, 6.69625 C-14.7175, 6.72617 -14.7136, 6.76566 -14.7063, 6.81473  C-14.681, 6.98642 -14.6196, 7.22073 -14.532, 7.45255  C-14.3717, 7.88515 -14.1097, 8.33893 -13.8316, 8.67766 " /><path d="M-13.8316, 8.67766 L-13.7599, 8.76296 " /><path d="M-13.7479, 5.09944 C-14.0351, 5.14435 -14.2775, 5.3055 -14.4448, 5.55945  C-14.6335, 5.84327 -14.7275, 6.24243 -14.7181, 6.69625 " /><path d="M-13.7479 5.09944 A2.45873 1.41955 60 0 1 -11.2905 6.59923" />
<path d="M-10.8825, 9.11593 C-11.3248, 9.31869 -11.9429, 9.17501 -12.509, 8.74891  C-12.8843, 8.47012 -13.2336, 8.07566 -13.4972, 7.64022  C-13.816, 7.11723 -14.0063, 6.53908 -14.0261, 6.05952  C-14.047, 5.6133 -13.9222, 5.25579 -13.6858, 5.07074 " /><path d="M-10.8344, 9.0787 Q-10.8977, 9.13089 -10.9682, 9.17158 " /><path d="M-10.9682, 9.17158 C-11.1621, 9.28253 -11.3845, 9.32605 -11.6353, 9.30212  C-11.9744, 9.26967 -12.3487, 9.10593 -12.7008, 8.83965  C-13.0931, 8.54472 -13.4556, 8.12359 -13.7208, 7.66319  C-14.017, 7.15254 -14.1898, 6.5977 -14.2038, 6.13727  C-14.2214, 5.65269 -14.0638, 5.27804 -13.7805, 5.11705 " /><path d="M-13.7805, 5.11705 L-13.7479, 5.09944 " /><path d="M-9.19239 9.38971 A5 2.88675 60 0 1 -9.66606 11.1575" />
<path d="M-9.66606 7.07499 A5 2.88675 60 0 1 -9.19239 9.38971" />
<path d="M-12.7279 3.26599 A5 2.88675 60 0 1 -9.66606 7.07499" />
<path d="M-15.7898 3.53946 A5 2.88675 60 0 1 -12.7279 3.26599" />
<path d="M-15.7898 7.62194 A5 2.88675 60 0 1 -15.7898 3.53946" />
<path d="M-12.7279 11.431 A5 2.88675 60 0 1 -15.7898 7.62194" />
<path d="M-9.66606 11.1575 A5 2.88675 60 0 1 -12.7279 11.431" />
<path d="M-10.7653, 8.79042 C-11.0959, 8.75546 -11.459, 8.59671 -11.802, 8.34058  C-12.1774, 8.0617 -12.5268, 7.66708 -12.7904, 7.23151  C-13.1068, 6.71226 -13.2966, 6.13867 -13.3185, 5.66124  C-13.3302, 5.4092 -13.2997, 5.19168 -13.2268, 5.00869 " /><path d="M-10.7857, 8.9003 C-11.1605, 8.90514 -11.5918, 8.73585 -11.9942, 8.43101  C-12.387, 8.13561 -12.7499, 7.71373 -13.015, 7.25264  C-13.311, 6.74173 -13.4833, 6.18682 -13.4967, 5.7266  C-13.5061, 5.4408 -13.4562, 5.19146 -13.3534, 5.00395 " /><path d="M-9.66606, 11.1575 C-9.3416, 10.6965 -8.94624, 10.1947 -8.41889, 9.57469 " /><path d="M-12.7279, 11.431 C-12.0797, 11.8044 -11.3608, 12.1365 -10.4601, 12.4787 " /><path d="M-10.4601, 12.4787 C-10.2408, 12.0365 -9.98909, 11.6176 -9.66606, 11.1575 " /><path d="M-15.7898, 7.62194 C-15.4653, 8.45593 -15.07, 9.24836 -14.5426, 10.1216 " /><path d="M-14.5426, 10.1216 C-13.95, 10.6416 -13.3747, 11.0567 -12.7279, 11.431 " /><path d="M-15.7898, 3.53946 C-16.1128, 3.99962 -16.3645, 4.41845 -16.5839, 4.86065 " /><path d="M-16.5839, 4.86065 C-16.3645, 5.91177 -16.1128, 6.78713 -15.7898, 7.62194 " /><path d="M-14.5426, 1.95667 C-15.07, 2.57672 -15.4653, 3.07848 -15.7898, 3.53946 " /><path d="M-12.7279, 3.26599 C-13.3747, 2.89175 -13.95, 2.47668 -14.5426, 1.95667 " /><path d="M-10.4601, 4.3137 C-11.3608, 3.97154 -12.0797, 3.6394 -12.7279, 3.26599 " /><path d="M-9.66606, 7.07499 C-9.98909, 6.24018 -10.2408, 5.36482 -10.4601, 4.3137 " /><path d="M-8.41889, 9.57469 C-8.94624, 8.70141 -9.3416, 7.90898 -9.66606, 7.07499 " /><path d="M-10.7551, 8.15075 C-11.2536, 7.88271 -11.7419, 7.38934 -12.0835, 6.82294  C-12.4099, 6.2873 -12.6011, 5.69398 -12.6131, 5.20788 " /><path d="M-10.7411, 8.34555 C-11.3212, 8.10012 -11.9131, 7.52777 -12.298, 6.86137  C-12.6439, 6.2718 -12.8223, 5.62221 -12.7866, 5.12459 " /><path d="M3.85593, 2.48782 C3.63662, 2.93002 3.38489, 3.34885 3.06186, 3.80901 " /><path id= "36" d=" M -8.41889 9.57469 L 3.85593 2.48782 " />
<path id= "37" d=" M 1.81469 5.3918 L -10.4601 12.4787 " />
<path d="M3.06186, 3.80901 C2.73741, 4.26999 2.34204, 4.77175 1.81469, 5.3918 " /><path id= "39" d=" M -2.2678 -5.13019 L -14.5426 1.95667 " />
<path d="M-2.2678, -5.13019 C-1.36711, -4.78803 -0.648199, -4.4559 -3.23856e-08, -4.08248 " /><path id= "41" d=" M 1.81469 -2.77317 L -10.4601 4.3137 " />
<path d="M-3.23856e-08, -4.08248 C0.646774, -3.70824 1.22205, -3.29318 1.81469, -2.77317 " /><path d="M1.81469, -2.77317 C2.34204, -1.89989 2.73741, -1.10746 3.06186, -0.273475 " /><path d="M3.06186, -0.273475 C3.38489, 0.561337 3.63662, 1.4367 3.85593, 2.48782 " /><path d="M-10.968, 7.27245 C-11.3874, 6.84744 -11.7308, 6.29015 -11.9165, 5.74894 " /></g>

</svg>
