<svg xmlns="http://www.w3.org/2000/svg" viewBox="-19.44 -7.2135 20.88 14.427">
<rect width="100%" height="100%" fill="white"/>
<g   fill="none"
   stroke="rgb(0, 0, 0)"
   stroke-linecap="butt"
   stroke-linejoin="miter"
   stroke-width="0.35"
   transform="scale(1, -1)"
  >
<path id= "1" d=" M -18 -5 L -17.6796 -5.7735 " />
<path id= "2" d=" M -3.61511e-13 -5 L -0.320395 -5.7735 " />
</g>
<g   fill="none"
   stroke="rgb(0, 0, 0)"
   stroke-linecap="butt"
   stroke-linejoin="miter"
   stroke-width="0.35"
   transform="scale(1, -1)"
  >
<path d="M-18, 4.33013 C-18, 4.54755 -18, 4.71582 -18, 4.82963  C-18, 4.94171 -18, 4.9991 -18, 5 " /><path d="M-18, -4.58002e-08 Q-18, 0.562675 -18, 1.1126  Q-18, 1.29319 -18, 1.47378  Q-18, 1.65024 -18, 1.82671  Q-18, 1.99806 -18, 2.16942  Q-18, 2.33471 -18, 2.5  Q-18, 2.6583 -18, 2.8166  Q-18, 2.96702 -18, 3.11745  Q-18, 3.25916 -18, 3.40086  Q-18, 3.53306 -18, 3.66526  Q-18, 3.78721 -18, 3.90916  Q-18, 4.02018 -18, 4.13119  Q-18, 4.23066 -18, 4.33013 " /><path d="M-18, -4.33013 Q-18, -4.23066 -18, -4.13119  Q-18, -4.02018 -18, -3.90916  Q-18, -3.78721 -18, -3.66526  Q-18, -3.53306 -18, -3.40086  Q-18, -3.25916 -18, -3.11745  Q-18, -2.96702 -18, -2.8166  Q-18, -2.6583 -18, -2.5  Q-18, -2.33471 -18, -2.16942  Q-18, -1.99806 -18, -1.82671  Q-18, -1.65024 -18, -1.47378  Q-18, -1.29319 -18, -1.1126  Q-18, -0.562676 -18, -4.58002e-08 " /><path d="M-18, -5 C-18, -4.9991 -18, -4.94171 -18, -4.82963  C-18, -4.71582 -18, -4.54755 -18, -4.33013 " /><path id= "5" d=" M -18 5 L -17.6796 5.7735 " />
<path d="M-18, -4.33013 C-17.999, -4.78797 -17.8974, -5.24553 -17.6796, -5.7735 " /><path d="M-17.6796, -2.88675 C-17.8974, -3.41472 -17.999, -3.87228 -18, -4.33013 " /><path d="M-18, -4.58002e-08 C-17.999, -0.915684 -17.8974, -1.83081 -17.6796, -2.88675 " /><path d="M-17.6796, 2.88675 C-17.8974, 1.83081 -17.999, 0.915684 -18, -4.58002e-08 " /><path d="M-18, 4.33013 C-17.999, 3.87228 -17.8974, 3.41472 -17.6796, 2.88675 " /><path d="M-17.6796, 5.7735 C-17.8974, 5.24553 -17.999, 4.78797 -18, 4.33013 " /><path id= "12" d=" M -17.6796 5.7735 L -0.320395 5.7735 " />
<path id= "13" d=" M -0.320395 -5.7735 L -17.6796 -5.7735 " />
<path d="M-0.320395, -5.7735 C-0.102576, -5.24553 -0.0010076, -4.78797 1.38778e-17, -4.33013 " /><path id= "15" d=" M -0.320395 -2.88675 L -17.6796 -2.88675 " />
<path d="M-1.38778e-17, -4.33013 C-0.00100761, -3.87228 -0.102576, -3.41472 -0.320395, -2.88675 " /><path d="M-0.320395, -2.88675 C-0.102576, -1.83081 -0.00100761, -0.915684 1.38778e-17, -4.58002e-08 " /><path id= "18" d=" M -0.320395 2.88675 L -17.6796 2.88675 " />
<path d="M0, -4.58002e-08 C-0.0010076, 0.915684 -0.102576, 1.83081 -0.320395, 2.88675 " /><path d="M-0.320395, 2.88675 C-0.102576, 3.41472 -0.00100761, 3.87228 0, 4.33013 " /><path d="M0, 4.33013 C-0.0010076, 4.78797 -0.102576, 5.24553 -0.320395, 5.7735 " /><path id= "22" d=" M -0.320395 5.7735 L -4.73791e-13 5 " />
<path d="M0, -5 C0, -4.9991 0, -4.94171 0, -4.82963  C0, -4.71582 0, -4.54755 0, -4.33013 " /><path d="M0, -4.33013 Q0, -4.23066 0, -4.13119  Q0, -4.02018 0, -3.90916  Q0, -3.78721 0, -3.66526  Q0, -3.53306 0, -3.40086  Q0, -3.25916 0, -3.11745  Q0, -2.96702 0, -2.8166  Q0, -2.6583 0, -2.5  Q0, -2.33471 0, -2.16942  Q0, -1.99806 0, -1.82671  Q0, -1.65024 0, -1.47378  Q0, -1.29319 0, -1.1126  Q0, -0.562676 0, -4.58002e-08 " /><path d="M0, -4.58002e-08 Q0, 0.562675 0, 1.1126  Q0, 1.29319 0, 1.47378  Q0, 1.65024 0, 1.82671  Q0, 1.99806 0, 2.16942  Q0, 2.33471 0, 2.5  Q0, 2.6583 0, 2.8166  Q0, 2.96702 0, 3.11745  Q0, 3.25916 0, 3.40086  Q0, 3.53306 0, 3.66526  Q0, 3.78721 0, 3.90916  Q0, 4.02018 0, 4.13119  Q0, 4.23066 0, 4.33013 " /><path d="M0, 4.33013 C0, 4.54755 0, 4.71582 0, 4.82963  C0, 4.94171 0, 4.9991 0, 5 " /></g>

</svg>
