<svg xmlns="http://www.w3.org/2000/svg" viewBox="-6.69726 -5.92376 13.39452 11.84752">
<rect width="100%" height="100%" fill="white"/>
<g   fill="none"
   stroke="rgb(0, 0, 0)"
   stroke-linecap="butt"
   stroke-linejoin="miter"
   stroke-width="0.35"
   transform="scale(1, -1)"
  >
<path d="M2.60128, -7.77156e-16 C2.55717, -0.643485 2.26012, -1.26215 1.78727, -1.6885 " /><circle cx ="0" cy ="0" r ="3.375" /><path d="M2.60128, 1.45335e-06 C2.63521, 0.460756 2.54295, 0.931663 2.33811, 1.35003  C2.12999, 1.77784 1.8053, 2.14974 1.40791, 2.4177  C0.990973, 2.7004 0.495057, 2.86753 -0.0112692, 2.89778  C-0.543431, 2.93101 -1.08532, 2.81303 -1.55992, 2.56259 " /><path d="M-2.91506, 0.70897 C-2.91265, 0.743642 -2.9058, 0.787941 -2.8945, 0.841866  C-2.84612, 1.07393 -2.72621, 1.37665 -2.55528, 1.63969 " /><path d="M-2.55528, 1.63969 C-2.30766, 2.03203 -1.93085, 2.37055 -1.55992, 2.56259 " /><path d="M-1.68803, -1.78771 C-2.06957, -1.55421 -2.38878, -1.20903 -2.60264, -0.802497  C-2.84389, -0.347056 -2.9521, 0.183597 -2.91506, 0.70897 " /><path d="M-1.68803 -1.78771 A2.45873 2.45873 0 0 1 1.78727 -1.6885" /><path d="M2.45873, 1.97301e-06 C2.46054, 0.585842 2.24305, 1.16886 1.85797, 1.61038  C1.5909, 1.91918 1.24544, 2.15942 0.862995, 2.30231  C0.414487, 2.4713 -0.0838317, 2.50442 -0.550759, 2.39626  C-1.0711, 2.27795 -1.54923, 1.98398 -1.88967, 1.57306  C-2.27028, 1.11879 -2.47633, 0.523119 -2.45776, -0.0692392  C-2.44222, -0.714073 -2.15878, -1.34682 -1.68803, -1.78771 " /><path d="M5 0 A5 5 0 0 1 4.33013 2.5" /><path d="M4.33013 -2.5 A5 5 0 0 1 5 -1.22465e-15" /><path d="M-4.58002e-08 -5 A5 5 0 0 1 4.33013 -2.5" /><path d="M-4.33013 -2.5 A5 5 0 0 1 -4.58002e-08 -5" /><path d="M-4.33013 2.5 A5 5 0 0 1 -4.33013 -2.5" /><path d="M3.70531e-08 5 A5 5 0 0 1 -4.33013 2.5" /><path d="M4.33013 2.5 A5 5 0 0 1 3.70531e-08 5" /><path d="M2.45873, 1.8634e-06 C2.46054, 0.585842 2.24305, 1.16886 1.85797, 1.61038  C1.59759, 1.9114 1.26278, 2.14735 0.891729, 2.29133  C0.435599, 2.46981 -0.0743273, 2.50683 -0.551453, 2.3961  C-1.0724, 2.2775 -1.55096, 1.98281 -1.89137, 1.57102  C-2.32307, 1.05609 -2.5265, 0.3588 -2.43943, -0.307476 " /><path d="M-2.37842, -0.623277 Q-2.33159, -0.801898 -2.25865, -0.971527 " /><path d="M-2.08723, -1.29956 Q-1.91903, -1.56936 -1.68803, -1.78771 " /><path d="M1.78727, -1.6885 C2.21551, -1.2385 2.46099, -0.621154 2.45873, 4.44089e-16 " /><path d="M4.33013, 2.5 C4.78797, 1.70699 5.24553, 0.914468 5.7735, 2.50022e-13 " /><path d="M3.70531e-08, 5 C0.915684, 5 1.83081, 5 2.88675, 5 " /><path d="M2.88675, 5 C3.41472, 4.08553 3.87228, 3.29301 4.33013, 2.5 " /><path d="M-4.33013, 2.5 C-3.87228, 3.29301 -3.41472, 4.08553 -2.88675, 5 " /><path d="M-2.88675, 5 C-1.83081, 5 -0.915684, 5 3.70531e-08, 5 " /><path d="M-4.33013, -2.5 C-4.78797, -1.70699 -5.24553, -0.914468 -5.7735, -3.05533e-13 " /><path d="M-5.7735, 1.93179e-13 C-5.24553, 0.914468 -4.78797, 1.70699 -4.33013, 2.5 " /><path d="M-2.88675, -5 C-3.41472, -4.08553 -3.87228, -3.29301 -4.33013, -2.5 " /><path d="M-4.58002e-08, -5 C-0.915684, -5 -1.83081, -5 -2.88675, -5 " /><path d="M2.88675, -5 C1.83081, -5 0.915684, -5 -4.58002e-08, -5 " /><path d="M4.33013, -2.5 C3.87228, -3.29301 3.41472, -4.08553 2.88675, -5 " /><path d="M5.7735, -2.49821e-13 C5.24553, -0.914468 4.78797, -1.70699 4.33013, -2.5 " /><path d="M1.78727, -1.6885 C2.16949, -1.28605 2.40773, -0.75061 2.45081, -0.197278 " /><path d="M2.45866, -0.019401 L2.45873, 0 " /><path d="M0.939395, 2.2722 Q0.856618, 2.30643 0.771571, 2.33453 " /><path d="M0.527073, 2.40158 Q0.451519, 2.41816 0.375074, 2.42996 " /><path d="M-0.0386142, 2.45843 C-0.738611, 2.45102 -1.42685, 2.12537 -1.87648, 1.58878  C-2.31858, 1.07159 -2.52799, 0.365154 -2.43919, -0.30941 " /><path d="M-2.37776, -0.625806 L-2.37101, -0.650909 " /><path d="M-2.27832, -0.92446 Q-2.21189, -1.08813 -2.12278, -1.24064 " /><path d="M-2.08775, -1.29872 L-2.08502, -1.3031 " /><path d="M-2.08307, -1.30621 Q-1.91614, -1.5721 -1.68803, -1.78771 " /><path d="M1.78727, -1.6885 Q1.91496, -1.55331 2.02089, -1.40049 " /><path d="M2.37942, -0.619455 L2.39637, -0.55024 " /><path d="M2.39658, -0.549346 Q2.45861, -0.278257 2.45873, -0.00016 " /><path d="M-0.616904, 2.38008 C-1.02201, 2.27558 -1.3991, 2.06526 -1.70088, 1.7755 " /><path d="M-1.98268, -1.45409 Q-1.93393, -1.52055 -1.88084, -1.58361 " /><path d="M-1.75087, -1.72622 L-1.68803, -1.78771 " /><path d="M1.78727, -1.6885 C2.00224, -1.46118 2.17307, -1.19238 2.2876, -0.901256 " /><path d="M2.45873, 1.09609e-06 C2.46054, 0.585842 2.24304, 1.16886 1.85797, 1.61038  C1.5581, 1.95742 1.15888, 2.21723 0.720157, 2.3509  C0.312682, 2.47627 -0.127558, 2.49267 -0.543232, 2.39797  C-1.06638, 2.28077 -1.54743, 1.98608 -1.88949, 1.57328  C-2.27349, 1.11514 -2.47973, 0.513082 -2.45729, -0.0842802  C-2.44005, -0.625472 -2.23682, -1.15833 -1.88926, -1.57355 " /><path d="M-1.75622, -1.72077 L-1.68803, -1.78771 " /><path d="M1.78727, -1.6885 C2.19813, -1.25641 2.44149, -0.670409 2.45761, -0.0744159 " /><path d="M2.45873, 9.8648e-07 C2.46063, 0.593451 2.23725, 1.18389 1.84301, 1.62748 " /><path d="M1.79582, 1.67941 Q1.72287, 1.75741 1.64343, 1.8288 " /><path d="M1.21069, 2.14 L1.20694, 2.14212 " /><path d="M0.986013, 2.25237 L0.983976, 2.25326 " /><path d="M0.865374, 2.30141 C0.565801, 2.41424 0.243995, 2.46762 -0.0759693, 2.45756 " /><path d="M-0.57108, 2.39149 L-0.612673, 2.38118 " /><path d="M-0.845904, 2.30864 Q-1.21874, 2.17158 -1.52994, 1.92474 " /><path d="M-1.67117, 1.80349 C-2.19038, 1.32737 -2.48519, 0.61934 -2.45728, -0.0846046  C-2.4378, -0.724165 -2.15499, -1.35029 -1.68803, -1.78771 " /><path d="M1.78727, -1.6885 C2.17376, -1.28163 2.41288, -0.73875 2.45221, -0.178984 " /><path d="M2.45873, 8.76869e-07 C2.46054, 0.585842 2.24304, 1.16886 1.85797, 1.61038  C1.55792, 1.95762 1.15842, 2.21753 0.7194, 2.35114  C0.311656, 2.47644 -0.128855, 2.49265 -0.544705, 2.39764  C-1.06711, 2.28026 -1.54744, 1.98589 -1.88916, 1.57368  C-2.2732, 1.11569 -2.47956, 0.513777 -2.45732, -0.0835099  C-2.43812, -0.723447 -2.15526, -1.35004 -1.68803, -1.78771 " /><path d="M1.78727, -1.6885 C2.21551, -1.2385 2.46099, -0.621154 2.45873, 4.44089e-16 " /><path d="M2.45873, 5.48038e-07 C2.46317, 0.740311 2.10937, 1.47168 1.52618, 1.92773 " /><path d="M1.2827, 2.09763 Q1.20148, 2.1473 1.11666, 2.19054 " /><path d="M1.10216, 2.19786 C0.597764, 2.45256 0.00425269, 2.52436 -0.546352, 2.39726  C-1.06776, 2.27973 -1.54714, 1.98586 -1.88845, 1.57453  C-2.27258, 1.11685 -2.47921, 0.515254 -2.45737, -0.081868  C-2.43859, -0.722369 -2.15566, -1.34967 -1.68803, -1.78771 " /><path d="M1.78727, -1.6885 C2.21551, -1.23851 2.46099, -0.621149 2.45873, 0 " /><path d="M2.45873, 6.57647e-07 C2.46054, 0.585842 2.24304, 1.16886 1.85797, 1.61038  C1.55776, 1.95781 1.15798, 2.21781 0.71868, 2.35136  C0.310768, 2.47658 -0.129897, 2.49262 -0.545834, 2.39738  C-1.06497, 2.28046 -1.54251, 1.9888 -1.88359, 1.58034  C-2.27094, 1.12175 -2.47948, 0.517323 -2.45735, -0.0825603  C-2.44858, -0.336295 -2.40186, -0.582841 -2.31719, -0.822197 " /><path d="M-2.11054, -1.26135 Q-2.00561, -1.43686 -1.87318, -1.59266 " /><path d="M-1.75605, -1.72095 L-1.68803, -1.78771 " /><path d="M1.78727, -1.6885 C2.1722, -1.28324 2.41101, -0.743075 2.45172, -0.185651 " /></g>

</svg>
