<svg xmlns="http://www.w3.org/2000/svg" viewBox="-3.1221812 -3.6811312000000003 20.062072399999998 14.961742399999999">
<rect width="100%" height="100%" fill="white"/>
<g   fill="none"
   stroke="rgb(0, 0, 0)"
   stroke-linecap="butt"
   stroke-linejoin="miter"
   stroke-width="0.35"
   transform="scale(1, -1)"
  >
<path id= "1" d=" M 1.55857e-12 2.00755 L 0.0560494 2.03991 " />
<path id= "2" d=" M -1.73859 -1.24527 L -1.73859 -1.44572 " />
<path id= "3" d=" M 2.07451 2.26638 L 2.1629 2.21535 " />
<path id= "4" d=" M -0.571937 -3.13389 L -0.483546 -3.18493 " />
<path id= "5" d=" M 2.78162 1.85813 L 2.87001 1.8071 " />
<path id= "6" d=" M 0.13517 -3.54214 L 0.223561 -3.59317 " />
<path id= "7" d=" M 3.48873 1.44988 L 3.57711 1.39885 " />
<path id= "8" d=" M 0.842278 -3.95039 L 0.930669 -4.00142 " />
<path id= "9" d=" M 4.19583 1.04164 L 4.28422 0.990606 " />
<path id= "10" d=" M 1.54939 -4.35864 L 1.63778 -4.40967 " />
<path id= "11" d=" M 4.90294 0.633388 L 4.99133 0.582357 " />
<path id= "12" d=" M 2.25649 -4.76689 L 2.34488 -4.81792 " />
<path id= "13" d=" M 5.61005 0.225139 L 5.69844 0.174109 " />
<path id= "14" d=" M 2.9636 -5.17514 L 3.05199 -5.22617 " />
<path id= "15" d=" M 6.31716 -0.18311 L 6.40554 -0.23414 " />
<path id= "16" d=" M 3.67071 -5.58339 L 3.7591 -5.63442 " />
<path id= "17" d=" M 7.02426 -0.591358 L 7.11265 -0.642389 " />
<path id= "18" d=" M 4.37781 -5.99163 L 4.46621 -6.04267 " />
<path id= "19" d=" M 7.73137 -0.999607 L 7.81976 -1.05064 " />
<path id= "20" d=" M 5.08492 -6.39988 L 5.17331 -6.45092 " />
<path id= "21" d=" M 8.43848 -1.40786 L 8.52687 -1.45889 " />
<path id= "22" d=" M 5.79203 -6.80813 L 5.88042 -6.85916 " />
<path id= "23" d=" M 9.14559 -1.8161 L 9.23397 -1.86713 " />
<path id= "24" d=" M 6.49914 -7.21638 L 6.58753 -7.26741 " />
<path id= "25" d=" M 9.85269 -2.22435 L 9.94108 -2.27538 " />
<path id= "26" d=" M 7.20624 -7.62463 L 7.29464 -7.67566 " />
<path id= "27" d=" M 10.5598 -2.6326 L 10.6482 -2.68363 " />
<path id= "28" d=" M 7.91335 -8.03288 L 8.00174 -8.08391 " />
<path id= "29" d=" M 11.2669 -3.04085 L 11.3553 -3.09188 " />
<path id= "30" d=" M 8.62046 -8.44113 L 8.70885 -8.49216 " />
<path id= "31" d=" M 11.974 -3.4491 L 12.0624 -3.50013 " />
<path id= "32" d=" M 9.32757 -8.84938 L 9.41596 -8.90041 " />
<path id= "33" d=" M 11.844 -8.47115 L 11.3331 -8.76617 " />
<path id= "34" d=" M 11.2566 -8.80841 L 13.1421 -9.89702 " />
<path id= "35" d=" M 13.2583 -5.34525 L 15.1421 -6.43292 " />
</g>
<g   fill="none"
   stroke="rgb(0, 0, 0)"
   stroke-linecap="butt"
   stroke-linejoin="miter"
   stroke-width="0.35"
   transform="scale(1, -1)"
  >
<path d="M1.73859 1.00377 A2.45873 1.41955 60 0 1 1.55977e-12 2.00755" />
<path d="M1.55977e-12 2.00755 A2.45873 1.41955 60 0 1 -1.22968 0.709234" />
<path d="M-1.22908 -2.12949 A2.45873 1.41955 60 0 1 1.73859 1.00377" />
<path d="M-1.22971, 0.70918 C-1.33759, 0.492581 -1.448, 0.238331 -1.52718, -0.0155746  C-1.63063, -0.34284 -1.68804, -0.675263 -1.68755, -0.974539  C-1.68787, -1.25663 -1.63719, -1.50906 -1.54472, -1.71083 " /><path d="M-1.54472, -1.71083 C-1.4639, -1.89123 -1.34553, -2.03062 -1.22908, -2.12949 " /><path d="M-1.22968, 0.709234 L-1.22971, 0.70918 " /><path d="M-1.23087 -0.710642 A1.74071 1.005 -120 0 0 1.23087 0.710642" />
<path d="M1.23087 0.710642 A1.74071 1.005 -120 0 0 -1.10261e-12 -1.42128" />
<path d="M-1.10261e-12 -1.42128 A1.74071 1.005 -120 0 0 -1.23087 -0.710642" />
<path d="M2.07481, 1.00378 C2.04745, 1.43713 1.90545, 1.7977 1.66972, 2.02521  C1.44154, 2.24795 1.12566, 2.34379 0.771727, 2.29735  C0.539742, 2.26683 0.301183, 2.18102 0.0560494, 2.03991 " /><path d="M-1.22908, -2.12949 L-1.22912, -2.12948 " /><path d="M-1.22912, -2.12948 C-1.54546, -2.06919 -1.7408, -1.73588 -1.73859, -1.24527 " /><path d="M-1.73859, -1.24527 Q-1.73859, -0.990773 -1.67234, -0.694175 " /><path d="M-1.73859 -1.44572 A3 1.73205 60 0 1 -1.71977 -1.76036" />
<path d="M2.07481, 1.00377 C2.11231, 0.451362 1.95954, -0.216665 1.66192, -0.830275  C1.36276, -1.45336 0.918897, -2.01374 0.448379, -2.37268  C-0.0437419, -2.75234 -0.558892, -2.907 -0.955793, -2.80056  C-1.36924, -2.69539 -1.65055, -2.31219 -1.71977, -1.76036 " /><path d="M0.618496, 1.57476 Q0.593501, 1.53474 0.568506, 1.49471  Q0.515673, 1.41914 0.45595, 1.35228  Q0.394139, 1.28768 0.324268, 1.23054  Q0.251953, 1.17532 0.170208, 1.12647  Q0.0856052, 1.07928 -0.0100304, 1.03753  Q-0.0606798, 1.01778 -0.111329, 0.998025  Q-0.166113, 0.979763 -0.220897, 0.961502  Q-0.280154, 0.944619 -0.33941, 0.927736  Q-0.403504, 0.912127 -0.467597, 0.896518  Q-0.536923, 0.882087 -0.606249, 0.867656 " /><path d="M-0.606249, 0.867656 Q-0.607664, 0.794084 -0.609078, 0.720513  Q-0.613332, 0.651097 -0.617585, 0.581681  Q-0.624703, 0.515994 -0.63182, 0.450307  Q-0.641846, 0.387943 -0.651873, 0.325579  Q-0.664869, 0.266155 -0.677865, 0.206731  Q-0.708193, 0.0917819 -0.74835, -0.0162275  Q-0.770813, -0.0689692 -0.793277, -0.121711  Q-0.843015, -0.22477 -0.903883, -0.323939  Q-0.968028, -0.422287 -1.04451, -0.518648  Q-1.08582, -0.566668 -1.12713, -0.614688  Q-1.17288, -0.662665 -1.21862, -0.710642 " /><path d="M-1.21862, -0.710642 C-1.18812, -0.741538 -1.15763, -0.772434 -1.12713, -0.803329  C-1.09959, -0.832069 -1.07205, -0.860808 -1.04451, -0.889547  C-1.01975, -0.916307 -0.994999, -0.943067 -0.970244, -0.969827  C-0.948124, -0.994773 -0.926003, -1.01972 -0.903883, -1.04466  C-0.88426, -1.06795 -0.864637, -1.09123 -0.845015, -1.11452  C-0.809249, -1.15883 -0.777028, -1.20098 -0.74835, -1.24097  C-0.652401, -1.37843 -0.607226, -1.48679 -0.606249, -1.58183 " /><path d="M-0.606249, -1.58183 C-0.316862, -1.52592 -0.0943209, -1.45716 0.0866304, -1.36774 " /><path d="M1.23086, 0.705669 C1.22921, 0.800564 1.18368, 0.908782 1.08769, 1.04596  C1.05901, 1.08587 1.02681, 1.12793 0.991084, 1.17213  C0.971493, 1.19536 0.951903, 1.21858 0.932312, 1.24181  C0.91024, 1.26668 0.888168, 1.29156 0.866096, 1.31643  C0.841408, 1.34311 0.81672, 1.36979 0.792032, 1.39647  C0.764577, 1.42512 0.737122, 1.45376 0.709667, 1.4824  C0.679277, 1.51319 0.648886, 1.54398 0.618496, 1.57476 " /><path d="M2.1629, 2.21535 C2.58721, 1.97406 2.8454, 1.45144 2.87261, 0.790989 " /><path d="M0.773247, 2.29754 C1.25871, 2.48173 1.72219, 2.47163 2.07451, 2.26638 " /><path d="M2.07451, 2.26638 C2.49883, 2.02508 2.75701, 1.50246 2.78422, 0.84202 " /><path id= "24" d=" M -0.606249 0.867656 L 1.06514 -0.0973221 " />
<path id= "25" d=" M -1.21862 -0.710642 L -0.00649323 -1.41046 " />
<path d="M2.87261, 0.790989 C2.9087, 0.0605532 2.65656, -0.828766 2.21396, -1.57808  C1.93913, -2.0477 1.59503, -2.46093 1.23378, -2.7604  C1.03884, -2.92204 0.843704, -3.04893 0.64837, -3.14108  C0.220035, -3.34408 -0.185456, -3.35874 -0.483547, -3.18493 " /><path d="M2.87, 1.8071 C3.29432, 1.56581 3.55251, 1.04319 3.57972, 0.38274 " /><path d="M2.78422, 0.84202 C2.81664, 0.171981 2.60898, -0.631777 2.23093, -1.33846  C1.99016, -1.792 1.6832, -2.20427 1.35144, -2.52438  C1.11451, -2.75266 0.874046, -2.9297 0.630036, -3.05552  C0.176268, -3.29042 -0.257708, -3.31742 -0.571937, -3.13389 " /><path d="M-0.571937, -3.13389 Q-0.766055, -3.02148 -0.894804, -2.81439 " /><path d="M2.44442, 1.98853 Q2.62556, 1.94815 2.78162, 1.85813 " /><path d="M2.78162, 1.85813 C3.20593, 1.61684 3.46411, 1.09422 3.49133, 0.433772 " /><path d="M3.57972, 0.38274 C3.61581, -0.347694 3.36367, -1.23701 2.92107, -1.98633  C2.64624, -2.45594 2.30214, -2.86918 1.94089, -3.16864  C1.74596, -3.33028 1.55082, -3.45718 1.35549, -3.54932  C0.927151, -3.75233 0.521655, -3.76699 0.223561, -3.59317 " /><path d="M3.57711, 1.39885 C4.00142, 1.15756 4.25962, 0.634938 4.28682, -0.0255084 " /><path d="M3.49133, 0.433772 C3.52375, -0.236268 3.31609, -1.04003 2.93803, -1.74671  C2.69727, -2.20025 2.39031, -2.61252 2.05855, -2.93263  C1.82162, -3.16091 1.58115, -3.33795 1.33714, -3.46377  C0.883373, -3.69866 0.449399, -3.72567 0.135171, -3.54214 " /><path d="M0.135171, -3.54214 Q-0.0215738, -3.4515 -0.136374, -3.29804 " /><path d="M3.15153, 1.58028 Q3.33267, 1.53991 3.48873, 1.44988 " /><path d="M3.48873, 1.44988 C3.91304, 1.20859 4.17122, 0.685968 4.19843, 0.025523 " /><path d="M4.28682, -0.0255084 C4.32292, -0.755941 4.07077, -1.64526 3.62818, -2.39457  C3.35335, -2.86418 3.00925, -3.27742 2.648, -3.57689  C2.45307, -3.73853 2.25794, -3.86542 2.06261, -3.95756  C1.63427, -4.16057 1.22877, -4.17524 0.930668, -4.00142 " /><path d="M4.28422, 0.990606 C4.70853, 0.749311 4.96673, 0.226694 4.99393, -0.433757 " /><path d="M4.19843, 0.025523 C4.23086, -0.644517 4.02319, -1.44827 3.64514, -2.15496  C3.40438, -2.6085 3.09742, -3.02077 2.76566, -3.34088  C2.52873, -3.56916 2.28826, -3.7462 2.04424, -3.87202  C1.59048, -4.10691 1.15651, -4.13392 0.842278, -3.95039 " /><path d="M0.842278, -3.95039 Q0.685534, -3.85975 0.570733, -3.70629 " /><path d="M3.85864, 1.17203 Q4.03978, 1.13166 4.19583, 1.04164 " /><path d="M4.19583, 1.04164 C4.62015, 0.800338 4.87833, 0.277719 4.90554, -0.382726 " /><path d="M4.99393, -0.433757 C5.03002, -1.16419 4.77788, -2.0535 4.33529, -2.80282  C4.06046, -3.27243 3.71636, -3.68566 3.35512, -3.98513  C3.16019, -4.14677 2.96506, -4.27366 2.76973, -4.3658  C2.34138, -4.56882 1.93588, -4.58349 1.63778, -4.40967 " /><path d="M4.99133, 0.582357 C5.41564, 0.341063 5.67383, -0.181558 5.70104, -0.842006 " /><path d="M4.90554, -0.382726 C4.93797, -1.05277 4.7303, -1.85652 4.35225, -2.56321  C4.11148, -3.01675 3.80452, -3.42902 3.47276, -3.74913  C3.23583, -3.97741 2.99536, -4.15445 2.75135, -4.28027  C2.29758, -4.51516 1.86361, -4.54217 1.54939, -4.35864 " /><path d="M4.90294, 0.633388 C5.32725, 0.392089 5.58544, -0.130528 5.61265, -0.790974 " /><path d="M5.70104, -0.842006 C5.73713, -1.57244 5.48499, -2.46175 5.0424, -3.21106  C4.76757, -3.68067 4.42348, -4.09391 4.06223, -4.39338  C3.86731, -4.55501 3.67218, -4.6819 3.47686, -4.77404  C3.0485, -4.97707 2.64299, -4.99175 2.34488, -4.81792 " /><path d="M5.69843, 0.174109 C6.12274, -0.0671863 6.38094, -0.589803 6.40814, -1.25025 " /><path d="M5.61265, -0.790974 C5.64507, -1.46101 5.43741, -2.26477 5.05936, -2.97146  C4.81859, -3.425 4.51163, -3.83727 4.17987, -4.15738  C3.94294, -4.38566 3.70247, -4.5627 3.45845, -4.68852  C3.00469, -4.92341 2.57072, -4.95042 2.25649, -4.76689 " /><path d="M2.25649, -4.76689 Q2.09975, -4.67625 1.98495, -4.52278 " /><path d="M5.27285, 0.355531 Q5.45399, 0.31516 5.61005, 0.225139 " /><path d="M5.61005, 0.225139 C6.03436, -0.0161597 6.29254, -0.538776 6.31976, -1.19922 " /><path d="M6.40814, -1.25025 C6.44424, -1.98068 6.1921, -2.86999 5.74951, -3.6193  C5.47468, -4.08891 5.13059, -4.50215 4.76934, -4.80162  C4.57442, -4.96325 4.3793, -5.09014 4.18398, -5.18228  C3.75562, -5.38532 3.3501, -5.4 3.05199, -5.22617 " /><path d="M6.40554, -0.23414 C6.82985, -0.475435 7.08805, -0.998053 7.11525, -1.6585 " /><path d="M6.31976, -1.19922 C6.35218, -1.86926 6.14452, -2.67302 5.76646, -3.37971  C5.5257, -3.83325 5.21874, -4.24552 4.88697, -4.56563  C4.65004, -4.79391 4.40957, -4.97096 4.16556, -5.09677  C3.71179, -5.33166 3.27783, -5.35867 2.9636, -5.17514 " /><path d="M2.9636, -5.17514 Q2.80686, -5.0845 2.69206, -4.93103 " /><path d="M5.97996, -0.0527178 Q6.1611, -0.0930892 6.31716, -0.18311 " /><path d="M6.31716, -0.18311 C6.74147, -0.424408 6.99965, -0.947025 7.02686, -1.60747 " /><path d="M7.11525, -1.6585 C7.15135, -2.38893 6.89921, -3.27824 6.45662, -4.02755  C6.1818, -4.49716 5.8377, -4.91039 5.47646, -5.20986  C5.28154, -5.37149 5.08642, -5.49838 4.89111, -5.59053  C4.46274, -5.79357 4.05721, -5.80825 3.7591, -5.63442 " /><path d="M7.11265, -0.642389 C7.53696, -0.883684 7.79516, -1.4063 7.82236, -2.06675 " /><path d="M7.02686, -1.60747 C7.05929, -2.27751 6.85162, -3.08127 6.47357, -3.78796  C6.2328, -4.2415 5.92584, -4.65377 5.59408, -4.97388  C5.35715, -5.20216 5.11668, -5.37921 4.87266, -5.50502  C4.4189, -5.73991 3.98493, -5.76691 3.67071, -5.58339 " /><path d="M3.67071, -5.58339 Q3.51396, -5.49274 3.39916, -5.33928 " /><path d="M6.68706, -0.460966 Q6.86821, -0.501338 7.02426, -0.591359 " /><path d="M7.02426, -0.591359 C7.44858, -0.832657 7.70676, -1.35527 7.73397, -2.01572 " /><path d="M7.82236, -2.06675 C7.85845, -2.79718 7.60632, -3.68648 7.16373, -4.43579  C6.88891, -4.9054 6.54482, -5.31863 6.18357, -5.61811  C5.98866, -5.77973 5.79355, -5.90662 5.59824, -5.99876  C5.16986, -6.20182 4.76432, -6.2165 4.46621, -6.04267 " /><path d="M7.81976, -1.05064 C8.24407, -1.29193 8.50226, -1.81455 8.52947, -2.475 " /><path d="M7.73397, -2.01572 C7.7664, -2.68576 7.55873, -3.48952 7.18068, -4.19621  C6.93991, -4.64974 6.63295, -5.06202 6.30119, -5.38213  C6.06425, -5.61041 5.82378, -5.78746 5.57976, -5.91327  C5.126, -6.14816 4.69204, -6.17516 4.37782, -5.99163 " /><path d="M4.37782, -5.99163 Q4.22107, -5.90099 4.10627, -5.74753 " /><path d="M7.39417, -0.869215 Q7.57531, -0.909586 7.73137, -0.999607 " /><path d="M7.73137, -0.999607 C8.15568, -1.24091 8.41387, -1.76352 8.44108, -2.42397 " /><path d="M8.52947, -2.475 C8.56556, -3.20542 8.31343, -4.09473 7.87084, -4.84404  C7.59602, -5.31364 7.25193, -5.72688 6.89068, -6.02635  C6.69577, -6.18798 6.50066, -6.31486 6.30535, -6.40701  C5.87697, -6.61006 5.47143, -6.62475 5.17331, -6.45092 " /><path d="M8.52686, -1.45889 C8.95117, -1.70018 9.20937, -2.2228 9.23657, -2.88325 " /><path d="M8.44108, -2.42397 C8.4735, -3.09401 8.26584, -3.89777 7.88778, -4.60446  C7.64702, -5.058 7.34005, -5.47027 7.00829, -5.79038  C6.77136, -6.01866 6.53088, -6.19571 6.28687, -6.32153  C5.83311, -6.55641 5.39914, -6.58341 5.08492, -6.39988 " /><path d="M5.08492, -6.39988 Q4.92818, -6.30924 4.81338, -6.15578 " /><path d="M8.10128, -1.27746 Q8.28242, -1.31784 8.43848, -1.40786 " /><path d="M8.43848, -1.40786 C8.86279, -1.64915 9.12097, -2.17177 9.14819, -2.83222 " /><path d="M9.23657, -2.88325 C9.27267, -3.61367 9.02053, -4.50297 8.57795, -5.25228  C8.30313, -5.72189 7.95904, -6.13513 7.59779, -6.4346  C7.40288, -6.59622 7.20778, -6.72311 7.01247, -6.81525  C6.58409, -7.01831 6.17854, -7.033 5.88042, -6.85916 " /><path d="M9.23397, -1.86713 C9.65828, -2.10843 9.91648, -2.63105 9.94368, -3.2915 " /><path d="M9.14819, -2.83222 C9.18061, -3.50226 8.97294, -4.30602 8.59489, -5.01271  C8.35412, -5.46624 8.04716, -5.87852 7.7154, -6.19863  C7.47847, -6.42691 7.23799, -6.60396 6.99397, -6.72978  C6.54022, -6.96465 6.10625, -6.99166 5.79203, -6.80813 " /><path d="M5.79203, -6.80813 Q5.63529, -6.71749 5.52049, -6.56403 " /><path d="M8.80839, -1.68571 Q8.98953, -1.72608 9.14559, -1.8161 " /><path d="M9.14559, -1.8161 C9.5699, -2.0574 9.82808, -2.58002 9.85529, -3.24047 " /><path d="M9.94368, -3.2915 C9.97978, -4.02192 9.72764, -4.91122 9.28506, -5.66053  C9.01024, -6.13013 8.66615, -6.54337 8.30491, -6.84284  C8.11, -7.00446 7.91489, -7.13135 7.71959, -7.22349  C7.2912, -7.42656 6.88565, -7.44125 6.58753, -7.26741 " /><path d="M9.94108, -2.27538 C10.3654, -2.51668 10.6236, -3.0393 10.6508, -3.69975 " /><path d="M9.85529, -3.24047 C9.88772, -3.91051 9.68005, -4.71427 9.302, -5.42096  C9.06123, -5.87449 8.75427, -6.28677 8.42251, -6.60688  C8.18557, -6.83516 7.9451, -7.01221 7.70108, -7.13802  C7.24732, -7.3729 6.81336, -7.39991 6.49914, -7.21638 " /><path d="M6.49914, -7.21638 Q6.34239, -7.12574 6.22759, -6.97228 " /><path d="M9.51549, -2.09396 Q9.69664, -2.13433 9.85269, -2.22435 " /><path d="M9.85269, -2.22435 C10.277, -2.46565 10.5352, -2.98827 10.5624, -3.64872 " /><path d="M10.6508, -3.69975 C10.6869, -4.43016 10.4348, -5.31946 9.99217, -6.06877  C9.71735, -6.53837 9.37326, -6.95161 9.01202, -7.25108  C8.81712, -7.4127 8.62202, -7.53958 8.42672, -7.63173  C7.99833, -7.83481 7.59277, -7.8495 7.29464, -7.67566 " /><path d="M10.6482, -2.68363 C11.0725, -2.92493 11.3307, -3.44755 11.3579, -4.108 " /><path d="M10.5624, -3.64872 C10.5948, -4.31876 10.3872, -5.12252 10.0091, -5.8292  C9.76834, -6.28274 9.46138, -6.69502 9.12961, -7.01513  C8.89268, -7.24341 8.6522, -7.42046 8.40818, -7.54627  C7.95443, -7.78115 7.52047, -7.80816 7.20625, -7.62463 " /><path d="M7.20625, -7.62463 Q7.0495, -7.53399 6.9347, -7.38053 " /><path d="M10.2226, -2.50221 Q10.4037, -2.54258 10.5598, -2.6326 " /><path d="M10.5598, -2.6326 C10.9841, -2.8739 11.2423, -3.39652 11.2695, -4.05696 " /><path d="M11.3579, -4.108 C11.394, -4.83841 11.1419, -5.7277 10.6993, -6.47701  C10.4245, -6.94662 10.0804, -7.35985 9.71914, -7.65933  C9.52424, -7.82094 9.32915, -7.94782 9.13385, -8.03997  C8.70545, -8.24306 8.29988, -8.25775 8.00174, -8.08391 " /><path d="M11.3553, -3.09188 C11.7796, -3.33318 12.0378, -3.85579 12.065, -4.51624 " /><path d="M11.2695, -4.05696 C11.3019, -4.72701 11.0943, -5.53077 10.7162, -6.23745  C10.4754, -6.69099 10.1685, -7.10327 9.83672, -7.42338  C9.59978, -7.65166 9.3593, -7.82871 9.11528, -7.95453  C8.66153, -8.1894 8.22757, -8.2164 7.91335, -8.03288 " /><path d="M7.91335, -8.03288 Q7.75661, -7.94224 7.64181, -7.78877 " /><path d="M10.9297, -2.91046 Q11.1109, -2.95083 11.2669, -3.04085 " /><path d="M11.2669, -3.04085 C11.6912, -3.28215 11.9494, -3.80477 11.9766, -4.46521 " /><path d="M12.065, -4.51624 C12.1011, -5.24666 11.849, -6.13595 11.4064, -6.88526  C11.1316, -7.35487 10.7875, -7.7681 10.4262, -8.06758  C10.2313, -8.22919 10.0363, -8.35607 9.84096, -8.44822  C9.41255, -8.65131 9.00698, -8.666 8.70885, -8.49216 " /><path d="M12.0624, -3.50013 C12.4867, -3.74142 12.7449, -4.26404 12.7721, -4.92449 " /><path d="M11.9766, -4.46521 C12.009, -5.13525 11.8014, -5.93902 11.4233, -6.6457  C11.1826, -7.09924 10.8756, -7.51152 10.5438, -7.83163  C10.3069, -8.05991 10.0664, -8.23696 9.82239, -8.36278  C9.36863, -8.59765 8.93468, -8.62465 8.62046, -8.44113 " /><path d="M8.62046, -8.44113 Q8.46372, -8.35049 8.34892, -8.19702 " /><path d="M11.6368, -3.31871 Q11.818, -3.35908 11.974, -3.4491 " /><path d="M11.974, -3.4491 C12.3983, -3.6904 12.6565, -4.21301 12.6837, -4.87346 " /><path d="M12.7721, -4.92449 C12.8082, -5.65491 12.5561, -6.54419 12.1135, -7.2935  C11.8387, -7.7631 11.4946, -8.17634 11.1334, -8.47582  C10.9385, -8.63743 10.7434, -8.76431 10.5481, -8.85645  C10.1197, -9.05955 9.7141, -9.07425 9.41596, -8.90041 " /><path d="M12.6837, -4.87346 C12.7161, -5.5435 12.5085, -6.34726 12.1304, -7.05395  C11.8897, -7.50749 11.5827, -7.91976 11.2509, -8.23988  C11.014, -8.46816 10.7735, -8.64521 10.5295, -8.77102  C10.0757, -9.0059 9.64179, -9.0329 9.32757, -8.84938 " /><path d="M9.32757, -8.84938 Q9.17082, -8.75873 9.05602, -8.60527 " /><path d="M13.2583, -5.30222 C13.259, -4.81976 13.1359, -4.40426 12.9081, -4.12247  C12.7624, -3.94213 12.5816, -3.81847 12.3659, -3.75148 " /><path id= "112" d=" M 13.2583 -5.30222 L 13.2583 -6.02166 " />
<path d="M11.844 -8.47115 A2 1.1547 60 0 1 13.2583 -6.02166" />
<path d="M13.2583, -5.30222 C13.2588, -5.7376 13.1586, -6.22586 12.9731, -6.69944  C12.6322, -7.58533 11.982, -8.39827 11.3331, -8.76617 " /><path d="M15.5563 -7.34847 A2 1.1547 60 0 1 15.1421 -6.43292" />
<path d="M13.1421 -9.89702 A2 1.1547 60 0 1 15.5563 -7.34847" />
</g>

</svg>
