<svg xmlns="http://www.w3.org/2000/svg" viewBox="-1.6 -4.6 23.2 9.2">
<rect width="100%" height="100%" fill="white"/>
<g   fill="none"
   stroke="rgb(0, 0, 0)"
   stroke-linecap="butt"
   stroke-linejoin="miter"
   stroke-width="0.35"
   transform="scale(1, -1)"
  >
<path d="M0.107272, -2.44343 Q0.101486, -2.43221 0.0833868, -2.41611  Q0.0489441, -2.38769 4.45279e-12, -2.38656 " /><path d="M0.607271, 2.44343 Q0.601484, 2.43221 0.583386, 2.41611  Q0.54896, 2.38771 0.50004, 2.38657 " /><path id= "3" d=" M 0.295773 -2.75451 L 0.541266 -3 " />
<path d="M0.392809, 2.44342 L0.247988, 2.6928 " /><path d="M0.892809, -2.44342 L0.577059, -2.98742 " /><path d="M0.92289, 2.98741 L0.607271, 2.44343 " /><path d="M0.257692, -2.70254 L0.107272, -2.44343 " /><path d="M1.10727, -2.44343 Q1.10148, -2.43221 1.08338, -2.41611  Q1.05967, -2.39635 1.02642, -2.38919  Q1.01322, -2.38788 1.00003, -2.38656  Q0.953577, -2.3875 0.919688, -2.41371  Q0.899188, -2.43096 0.892809, -2.44342 " /><path d="M1.60727, 2.44343 Q1.60148, 2.43221 1.58338, 2.41611  Q1.54896, 2.38771 1.50004, 2.38657 " /><path d="M0.50004, 2.38657 Q0.45359, 2.3875 0.419698, 2.4137  Q0.399191, 2.43096 0.392809, 2.44342 " /><path id= "11" d=" M 0.541266 -3 L 0.562478 -3 " />
<path d="M1.39281, 2.44342 L1.07707, 2.98742 " /><path d="M1.89281, -2.44342 L1.57706, -2.98742 " /><path d="M1.4229, -2.98741 L1.10727, -2.44343 " /><path d="M1.92289, 2.98741 L1.60727, 2.44343 " /><path d="M2.10727, -2.44342 Q2.10148, -2.43221 2.08338, -2.41611  Q2.05967, -2.39635 2.02642, -2.38919  Q2.01322, -2.38788 2.00002, -2.38656  Q1.95357, -2.3875 1.91969, -2.41371  Q1.89919, -2.43096 1.89281, -2.44342 " /><path d="M2.60727, 2.44343 Q2.60148, 2.43221 2.58338, 2.41611  Q2.54896, 2.38771 2.50004, 2.38657 " /><path d="M1.50004, 2.38657 Q1.45359, 2.3875 1.4197, 2.4137  Q1.39919, 2.43096 1.39281, 2.44342 " /><path id= "19" d=" M 1.43748 -3 L 1.56248 -3 " />
<path d="M2.39281, 2.44342 L2.07707, 2.98742 " /><path d="M2.89281, -2.44342 L2.57706, -2.98742 " /><path d="M2.4229, -2.98741 L2.10727, -2.44342 " /><path d="M2.92289, 2.98741 L2.60727, 2.44343 " /><path d="M3.10727, -2.44342 Q3.10148, -2.43221 3.08338, -2.41611  Q3.05966, -2.39635 3.02642, -2.38919  Q3.01322, -2.38788 3.00002, -2.38656  Q2.95357, -2.3875 2.91968, -2.41371  Q2.89918, -2.43096 2.89281, -2.44342 " /><path d="M3.60727, 2.44343 Q3.60148, 2.43221 3.58338, 2.41611  Q3.54895, 2.38771 3.50003, 2.38657 " /><path d="M2.50004, 2.38657 Q2.45359, 2.3875 2.41969, 2.4137  Q2.39919, 2.43096 2.39281, 2.44342 " /><path id= "27" d=" M 2.43748 -3 L 2.56248 -3 " />
<path d="M3.3928, 2.44342 L3.07707, 2.98741 " /><path d="M3.8928, -2.44342 L3.57706, -2.98742 " /><path d="M3.4229, -2.98741 L3.10727, -2.44342 " /><path d="M3.92289, 2.98741 L3.60727, 2.44343 " /><path d="M4.10726, -2.44342 Q4.10148, -2.43221 4.08338, -2.41611  Q4.05966, -2.39635 4.02641, -2.38919  Q4.01322, -2.38788 4.00002, -2.38656  Q3.95357, -2.3875 3.91968, -2.41371  Q3.89918, -2.43096 3.8928, -2.44342 " /><path d="M4.60726, 2.44343 Q4.60148, 2.43221 4.58338, 2.41611  Q4.54895, 2.38771 4.50003, 2.38657 " /><path d="M3.50003, 2.38657 Q3.45358, 2.3875 3.41969, 2.4137  Q3.39919, 2.43096 3.3928, 2.44342 " /><path id= "35" d=" M 3.43748 -3 L 3.56248 -3 " />
<path d="M4.3928, 2.44342 L4.07707, 2.98741 " /><path d="M4.8928, -2.44342 L4.57706, -2.98742 " /><path d="M4.4229, -2.98741 L4.10726, -2.44342 " /><path d="M4.92289, 2.98741 L4.60726, 2.44343 " /><path d="M5.10726, -2.44342 Q5.10148, -2.43221 5.08338, -2.41611  Q5.05966, -2.39635 5.02641, -2.38919  Q5.01321, -2.38788 5.00002, -2.38656  Q4.95357, -2.3875 4.91968, -2.41371  Q4.89918, -2.43096 4.8928, -2.44342 " /><path d="M5.60726, 2.44343 Q5.60147, 2.43221 5.58337, 2.41611  Q5.54895, 2.38771 5.50003, 2.38657 " /><path d="M4.50003, 2.38657 Q4.45358, 2.3875 4.41969, 2.4137  Q4.39918, 2.43096 4.3928, 2.44342 " /><path id= "43" d=" M 4.43749 -3 L 4.56248 -3 " />
<path d="M5.3928, 2.44342 L5.07707, 2.98741 " /><path d="M5.8928, -2.44342 L5.57706, -2.98742 " /><path d="M5.4229, -2.98741 L5.10726, -2.44342 " /><path d="M5.9229, 2.98741 L5.60726, 2.44343 " /><path d="M6.10726, -2.44342 Q6.10147, -2.4322 6.08337, -2.4161  Q6.05966, -2.39635 6.02641, -2.38919  Q6.01321, -2.38788 6.00002, -2.38656  Q5.95356, -2.3875 5.91968, -2.41371  Q5.89918, -2.43096 5.8928, -2.44342 " /><path d="M6.60726, 2.44343 Q6.60147, 2.43221 6.58337, 2.41611  Q6.54895, 2.38771 6.50003, 2.38657 " /><path d="M5.50003, 2.38657 Q5.45358, 2.3875 5.41969, 2.4137  Q5.39918, 2.43096 5.3928, 2.44342 " /><path id= "51" d=" M 5.43749 -3 L 5.56248 -3 " />
<path d="M6.3928, 2.44342 L6.07707, 2.98741 " /><path d="M6.8928, -2.44342 L6.57707, -2.98742 " /><path d="M6.4229, -2.98741 L6.10726, -2.44342 " /><path d="M6.9229, 2.98741 L6.60726, 2.44343 " /><path d="M7.10726, -2.44342 Q7.10147, -2.4322 7.08337, -2.4161  Q7.05966, -2.39635 7.02641, -2.38919  Q7.01321, -2.38788 7.00001, -2.38656  Q6.95356, -2.3875 6.91968, -2.41371  Q6.89918, -2.43096 6.8928, -2.44342 " /><path d="M7.60726, 2.44343 Q7.60147, 2.43221 7.58337, 2.41611  Q7.54894, 2.38771 7.50003, 2.38657 " /><path d="M6.50003, 2.38657 Q6.45358, 2.3875 6.41969, 2.4137  Q6.39918, 2.43096 6.3928, 2.44342 " /><path id= "59" d=" M 6.43749 -3 L 6.56248 -3 " />
<path d="M7.3928, 2.44342 L7.07707, 2.98741 " /><path d="M7.8928, -2.44342 L7.57707, -2.98742 " /><path d="M7.4229, -2.98741 L7.10726, -2.44342 " /><path d="M7.9229, 2.98741 L7.60726, 2.44343 " /><path d="M8.10726, -2.44342 Q8.10147, -2.4322 8.08337, -2.4161  Q8.05965, -2.39635 8.0264, -2.38919  Q8.01321, -2.38788 8.00001, -2.38656  Q7.95356, -2.3875 7.91967, -2.41371  Q7.89917, -2.43096 7.8928, -2.44342 " /><path d="M8.60726, 2.44343 Q8.60147, 2.43221 8.58337, 2.41611  Q8.54894, 2.38771 8.50002, 2.38657 " /><path d="M7.50003, 2.38657 Q7.45358, 2.3875 7.41968, 2.41371  Q7.39918, 2.43096 7.3928, 2.44342 " /><path id= "67" d=" M 7.43749 -3 L 7.56249 -3 " />
<path d="M8.39279, 2.44342 L8.07707, 2.98741 " /><path d="M8.89279, -2.44342 L8.57707, -2.98742 " /><path d="M8.4229, -2.98741 L8.10726, -2.44342 " /><path d="M8.9229, 2.98741 L8.60726, 2.44343 " /><path d="M9.10725, -2.44342 Q9.10147, -2.4322 9.08337, -2.4161  Q9.05965, -2.39635 9.0264, -2.38919  Q9.01321, -2.38788 9.00001, -2.38656  Q8.95356, -2.3875 8.91967, -2.41371  Q8.89917, -2.43096 8.89279, -2.44342 " /><path d="M9.60725, 2.44343 Q9.60147, 2.43221 9.58337, 2.41611  Q9.54894, 2.38771 9.50002, 2.38657 " /><path d="M8.50002, 2.38657 Q8.45357, 2.3875 8.41968, 2.41371  Q8.39917, 2.43096 8.39279, 2.44342 " /><path id= "75" d=" M 8.43749 -3 L 8.56249 -3 " />
<path d="M9.39279, 2.44342 L9.07707, 2.98741 " /><path d="M9.89279, -2.44342 L9.57707, -2.98742 " /><path d="M9.4229, -2.98741 L9.10725, -2.44342 " /><path d="M9.9229, 2.98741 L9.60725, 2.44343 " /><path d="M10.1073, -2.44342 Q10.1015, -2.4322 10.0834, -2.4161  Q10.0596, -2.39635 10.0264, -2.38919  Q10.0132, -2.38788 10, -2.38656  Q9.95356, -2.3875 9.91967, -2.41371  Q9.89917, -2.43096 9.89279, -2.44342 " /><path d="M10.6073, 2.44343 Q10.6015, 2.43221 10.5834, 2.41611  Q10.5489, 2.38771 10.5, 2.38657 " /><path d="M9.50002, 2.38657 Q9.45357, 2.3875 9.41968, 2.41371  Q9.39917, 2.43096 9.39279, 2.44342 " /><path id= "83" d=" M 9.43749 -3 L 9.56249 -3 " />
<path d="M10.3928, 2.44342 L10.0771, 2.98741 " /><path d="M10.8928, -2.44342 L10.5771, -2.98742 " /><path d="M10.4229, -2.98741 L10.1073, -2.44342 " /><path d="M10.9229, 2.98741 L10.6073, 2.44343 " /><path d="M11.1073, -2.44342 Q11.1015, -2.4322 11.0834, -2.4161  Q11.0596, -2.39635 11.0264, -2.38919  Q11.0132, -2.38788 11, -2.38656  Q10.9536, -2.3875 10.9197, -2.41371  Q10.8992, -2.43096 10.8928, -2.44342 " /><path d="M11.6073, 2.44343 Q11.6015, 2.43221 11.5834, 2.41611  Q11.5489, 2.38771 11.5, 2.38657 " /><path d="M10.5, 2.38657 Q10.4536, 2.3875 10.4197, 2.41371  Q10.3992, 2.43096 10.3928, 2.44342 " /><path id= "91" d=" M 10.4375 -3 L 10.5625 -3 " />
<path d="M11.3928, 2.44342 L11.0771, 2.98741 " /><path d="M11.8928, -2.44342 L11.5771, -2.98742 " /><path d="M11.4229, -2.98741 L11.1073, -2.44342 " /><path d="M11.9229, 2.98741 L11.6073, 2.44343 " /><path d="M12.1072, -2.44342 Q12.1015, -2.4322 12.0834, -2.4161  Q12.0596, -2.39635 12.0264, -2.38919  Q12.0132, -2.38788 12, -2.38656  Q11.9536, -2.3875 11.9197, -2.41371  Q11.8992, -2.43096 11.8928, -2.44342 " /><path d="M12.6072, 2.44343 Q12.6015, 2.43221 12.5834, 2.41611  Q12.5489, 2.38771 12.5, 2.38657 " /><path d="M11.5, 2.38657 Q11.4536, 2.3875 11.4197, 2.41371  Q11.3992, 2.43096 11.3928, 2.44342 " /><path id= "99" d=" M 11.4375 -3 L 11.5625 -3 " />
<path d="M12.3928, 2.44342 L12.0771, 2.98741 " /><path d="M12.8928, -2.44342 L12.5771, -2.98742 " /><path d="M12.4229, -2.98741 L12.1072, -2.44342 " /><path d="M12.9229, 2.98741 L12.6072, 2.44343 " /><path d="M13.1072, -2.44342 Q13.1015, -2.4322 13.0834, -2.4161  Q13.0596, -2.39635 13.0264, -2.38919  Q13.0132, -2.38788 13, -2.38656  Q12.9535, -2.3875 12.9197, -2.41371  Q12.8992, -2.43096 12.8928, -2.44342 " /><path d="M13.6072, 2.44343 Q13.6015, 2.43221 13.5834, 2.41611  Q13.5489, 2.38771 13.5, 2.38657 " /><path d="M12.5, 2.38657 Q12.4536, 2.3875 12.4197, 2.41371  Q12.3992, 2.43096 12.3928, 2.44342 " /><path id= "107" d=" M 12.4375 -3 L 12.5625 -3 " />
<path d="M13.3928, 2.44342 L13.0771, 2.98741 " /><path d="M13.8928, -2.44342 L13.5771, -2.98742 " /><path d="M13.4229, -2.98741 L13.1072, -2.44342 " /><path d="M13.9229, 2.98741 L13.6072, 2.44343 " /><path d="M14.1072, -2.44342 Q14.1015, -2.4322 14.0834, -2.4161  Q14.0596, -2.39635 14.0264, -2.38919  Q14.0132, -2.38788 14, -2.38656  Q13.9535, -2.3875 13.9197, -2.41371  Q13.8992, -2.43096 13.8928, -2.44342 " /><path d="M14.6072, 2.44343 Q14.6015, 2.43221 14.5834, 2.41611  Q14.5489, 2.38771 14.5, 2.38657 " /><path d="M13.5, 2.38657 Q13.4536, 2.3875 13.4197, 2.41371  Q13.3992, 2.43096 13.3928, 2.44342 " /><path id= "115" d=" M 13.4375 -3 L 13.5625 -3 " />
<path d="M14.3928, 2.44342 L14.0771, 2.98741 " /><path d="M14.8928, -2.44342 L14.5771, -2.98742 " /><path d="M14.4229, -2.98741 L14.1072, -2.44342 " /><path d="M14.9229, 2.98741 L14.6072, 2.44343 " /><path d="M15.1072, -2.44342 Q15.1015, -2.4322 15.0834, -2.4161  Q15.0596, -2.39635 15.0264, -2.38919  Q15.0132, -2.38788 15, -2.38656  Q14.9535, -2.3875 14.9197, -2.41371  Q14.8992, -2.43096 14.8928, -2.44342 " /><path d="M15.6072, 2.44343 Q15.6015, 2.43221 15.5834, 2.41611  Q15.5489, 2.38771 15.5, 2.38657 " /><path d="M14.5, 2.38657 Q14.4536, 2.3875 14.4197, 2.41371  Q14.3992, 2.43096 14.3928, 2.44342 " /><path id= "123" d=" M 14.4375 -3 L 14.5625 -3 " />
<path d="M15.3928, 2.44342 L15.0771, 2.98741 " /><path d="M15.8928, -2.44342 L15.5771, -2.98742 " /><path d="M15.4229, -2.98741 L15.1072, -2.44342 " /><path d="M15.6072, 2.44343 L15.8593, 2.87767 " /><path d="M16.1072, -2.44342 Q16.1015, -2.4322 16.0834, -2.4161  Q16.0596, -2.39635 16.0264, -2.38919  Q16.0132, -2.38788 16, -2.38656  Q15.9535, -2.3875 15.9197, -2.41371  Q15.8992, -2.43096 15.8928, -2.44342 " /><path d="M15.5, 2.38657 Q15.4536, 2.3875 15.4197, 2.41371  Q15.3992, 2.43096 15.3928, 2.44342 " /><path id= "130" d=" M 15.4375 -3 L 15.5625 -3 " />
<path id= "131" d=" M 16.75 -2 L 16.1859 -2.56414 " />
<path d="M16.1751, -2.56027 L16.1072, -2.44342 " /><path id= "133" d=" M 16.75 -2 L 20 -2 " />
</g>
<g   fill="none"
   stroke="rgb(0, 0, 0)"
   stroke-linecap="butt"
   stroke-linejoin="miter"
   stroke-width="0.35"
   transform="scale(1, -1)"
  >
<path d="M0, -1.73818 Q0, -1.58028 0, -1.42237  Q0, -1.24437 0, -1.06636  Q0, -0.8733 0, -0.680235  Q0, -0.277064 0, 0.138228  Q0, 0.342832 0, 0.547437  Q0, 0.744308 0, 0.94118  Q0, 1.12476 0, 1.30833  Q0, 1.47343 0, 1.63852  Q0, 1.78047 0, 1.92242  Q0, 2.03721 0, 2.152  Q0, 2.23639 0, 2.32078  Q0, 2.37239 0, 2.424  Q0, 2.44137 0, 2.45873 " /><path d="M0, -2.38656 C0, -2.3844 0, -2.30866 0, -2.15936  C0, -2.04723 0, -1.8909 0, -1.73818 " /><path id= "3" d=" M 0 2.45873 L 0.237748 2.69648 " />
<path d="M-7.82506e-17, -1.73818 L1.36667e-05, -1.73826 " /><path d="M1.36667e-05, -1.73826 C0.0890176, -2.21405 0.174727, -2.56131 0.257692, -2.70254 " /><path d="M0.257692, -2.70254 Q0.27683, -2.73555 0.295773, -2.75451 " /><path d="M0.541266, -3 Q0.541266, -2.99993 0.541266, -2.97339 " /><path d="M0.237748, 2.69648 Q0.242875, 2.70161 0.247988, 2.6928 " /><path d="M0.247988, 2.6928 C0.269835, 2.65645 0.29147, 2.42223 0.312913, 2.03739  C0.338032, 1.58921 0.362883, 0.936634 0.387478, 0.246625  C0.41321, -0.47507 0.438666, -1.22906 0.46386, -1.81556  C0.489939, -2.42633 0.515734, -2.84996 0.541266, -2.97339 " /><path d="M0.541266, -2.97339 Q0.551872, -2.99998 0.562478, -3 " /><path d="M0.562478, -3 Q0.569769, -3 0.577059, -2.98742 " /><path d="M0.92289, 2.98741 Q0.930185, 3 0.93748, 3 " /><path id= "13" d=" M 0.93748 3 L 1.06248 3 " />
<path d="M1.06248, 3 Q1.06977, 3 1.07707, 2.98742 " /><path d="M1.07707, 2.98742 C1.11847, 2.91901 1.15987, 2.53011 1.20127, 1.92973  C1.24576, 1.28924 1.29024, 0.413377 1.33472, -0.417784  C1.3701, -1.07893 1.40548, -1.70532 1.44086, -2.16591  C1.4814, -2.69737 1.52194, -3.00286 1.56248, -3 " /><path d="M1.56248, -3 Q1.56977, -3 1.57706, -2.98742 " /><path d="M0.93748, 3 C0.979913, 3.00342 1.02236, 2.66729 1.0648, 2.09021  C1.11124, 1.46428 1.15768, 0.558835 1.20412, -0.313116  C1.23921, -0.971452 1.27429, -1.60364 1.30937, -2.0795  C1.34721, -2.59562 1.38506, -2.92425 1.4229, -2.98741 " /><path d="M1.4229, -2.98741 Q1.43019, -3 1.43748, -3 " /><path d="M1.92289, 2.98741 Q1.93019, 3 1.93748, 3 " /><path id= "20" d=" M 1.93748 3 L 2.06248 3 " />
<path d="M2.06248, 3 Q2.06977, 3 2.07707, 2.98742 " /><path d="M2.07707, 2.98742 C2.11847, 2.91901 2.15987, 2.53011 2.20127, 1.92974  C2.24576, 1.28925 2.29024, 0.413394 2.33472, -0.417763  C2.3701, -1.07889 2.40548, -1.70526 2.44086, -2.16584  C2.4814, -2.69734 2.52194, -3.00286 2.56248, -3 " /><path d="M2.56248, -3 Q2.56977, -3 2.57706, -2.98742 " /><path d="M1.93748, 3 C1.97991, 3.00342 2.02236, 2.66729 2.0648, 2.09021  C2.11124, 1.46427 2.15768, 0.558831 2.20412, -0.313122  C2.23921, -0.971465 2.27429, -1.60366 2.30937, -2.07952  C2.34721, -2.59563 2.38506, -2.92426 2.4229, -2.98741 " /><path d="M2.4229, -2.98741 Q2.43019, -3 2.43748, -3 " /><path d="M2.92289, 2.98741 Q2.93019, 3 2.93748, 3 " /><path id= "27" d=" M 2.93748 3 L 3.06248 3 " />
<path d="M3.06248, 3 Q3.06977, 3 3.07707, 2.98741 " /><path d="M3.07707, 2.98741 C3.11848, 2.91901 3.15987, 2.53011 3.20127, 1.92974  C3.24576, 1.28926 3.29024, 0.413411 3.33472, -0.41774  C3.3701, -1.07884 3.40548, -1.70519 3.44086, -2.16577  C3.4814, -2.69732 3.52194, -3.00286 3.56248, -3 " /><path d="M3.56248, -3 Q3.56977, -3 3.57706, -2.98742 " /><path d="M2.93748, 3 C2.97991, 3.00342 3.02236, 2.66729 3.0648, 2.09021  C3.11124, 1.46427 3.15768, 0.558828 3.20412, -0.313126  C3.23921, -0.971475 3.27429, -1.60367 3.30938, -2.07954  C3.34722, -2.59564 3.38506, -2.92426 3.4229, -2.98741 " /><path d="M3.4229, -2.98741 Q3.43019, -3 3.43748, -3 " /><path d="M3.92289, 2.98741 Q3.93019, 3 3.93748, 3 " /><path id= "34" d=" M 3.93748 3 L 4.06248 3 " />
<path d="M4.06248, 3 Q4.06978, 3 4.07707, 2.98741 " /><path d="M4.07707, 2.98741 C4.11848, 2.91901 4.15987, 2.53011 4.20128, 1.92975  C4.24576, 1.28927 4.29024, 0.413426 4.33472, -0.417721  C4.37009, -1.0788 4.40547, -1.70513 4.44085, -2.16571  C4.4814, -2.69729 4.52194, -3.00286 4.56248, -3 " /><path d="M4.56248, -3 Q4.56977, -3 4.57706, -2.98742 " /><path d="M3.93748, 3 C3.97992, 3.00342 4.02236, 2.66729 4.0648, 2.09021  C4.11124, 1.46427 4.15769, 0.558824 4.20413, -0.31313  C4.23921, -0.971487 4.27429, -1.60369 4.30938, -2.07956  C4.34722, -2.59565 4.38506, -2.92426 4.4229, -2.98741 " /><path d="M4.4229, -2.98741 Q4.43019, -3 4.43749, -3 " /><path d="M4.92289, 2.98741 Q4.93019, 3 4.93748, 3 " /><path id= "41" d=" M 4.93748 3 L 5.06248 3 " />
<path d="M5.06248, 3 Q5.06978, 3 5.07707, 2.98741 " /><path d="M5.07707, 2.98741 C5.11848, 2.91901 5.15987, 2.53011 5.20128, 1.92975  C5.24576, 1.28928 5.29024, 0.413448 5.33472, -0.417693  C5.37009, -1.07874 5.40547, -1.70504 5.44085, -2.16562  C5.48139, -2.69726 5.52193, -3.00286 5.56248, -3 " /><path d="M5.56248, -3 Q5.56977, -3 5.57706, -2.98742 " /><path d="M4.93748, 3 C4.97992, 3.00342 5.02236, 2.66729 5.0648, 2.09021  C5.11124, 1.46427 5.15769, 0.558822 5.20413, -0.313134  C5.23921, -0.971494 5.2743, -1.6037 5.30938, -2.07957  C5.34722, -2.59566 5.38506, -2.92426 5.4229, -2.98741 " /><path d="M5.4229, -2.98741 Q5.43019, -3 5.43749, -3 " /><path d="M5.9229, 2.98741 Q5.93019, 3 5.93748, 3 " /><path id= "48" d=" M 5.93748 3 L 6.06249 3 " />
<path d="M6.06249, 3 Q6.06978, 3 6.07707, 2.98741 " /><path d="M6.07707, 2.98741 C6.11848, 2.91901 6.15987, 2.53011 6.20128, 1.92976  C6.24576, 1.28929 6.29024, 0.413465 6.33472, -0.417671  C6.37009, -1.07869 6.40547, -1.70497 6.44084, -2.16555  C6.48139, -2.69723 6.52193, -3.00286 6.56248, -3 " /><path d="M6.56248, -3 Q6.56977, -3 6.57707, -2.98742 " /><path d="M5.93748, 3 C5.97992, 3.00342 6.02236, 2.66729 6.0648, 2.09021  C6.11125, 1.46427 6.15769, 0.558817 6.20413, -0.313141  C6.23921, -0.971512 6.2743, -1.60373 6.30938, -2.0796  C6.34722, -2.59567 6.38506, -2.92426 6.4229, -2.98741 " /><path d="M6.4229, -2.98741 Q6.43019, -3 6.43749, -3 " /><path d="M6.9229, 2.98741 Q6.93019, 3 6.93749, 3 " /><path id= "55" d=" M 6.93749 3 L 7.06249 3 " />
<path d="M7.06249, 3 Q7.06978, 3 7.07707, 2.98741 " /><path d="M7.07707, 2.98741 C7.11848, 2.91901 7.15987, 2.53012 7.20128, 1.92976  C7.24576, 1.2893 7.29024, 0.413485 7.33472, -0.417646  C7.37009, -1.07863 7.40546, -1.70489 7.44084, -2.16547  C7.48139, -2.6972 7.52193, -3.00286 7.56249, -3 " /><path d="M7.56249, -3 Q7.56978, -3 7.57707, -2.98742 " /><path d="M6.93749, 3 C6.97992, 3.00342 7.02237, 2.66729 7.0648, 2.09021  C7.11125, 1.46427 7.15769, 0.558813 7.20413, -0.313146  C7.23922, -0.971525 7.2743, -1.60375 7.30939, -2.07962  C7.34722, -2.59568 7.38507, -2.92426 7.4229, -2.98741 " /><path d="M7.4229, -2.98741 Q7.4302, -3 7.43749, -3 " /><path d="M7.9229, 2.98741 Q7.93019, 3 7.93749, 3 " /><path id= "62" d=" M 7.93749 3 L 8.06249 3 " />
<path d="M8.06249, 3 Q8.06978, 3 8.07707, 2.98741 " /><path d="M8.07707, 2.98741 C8.11848, 2.91901 8.15987, 2.53012 8.20128, 1.92977  C8.24576, 1.28931 8.29024, 0.41351 8.33472, -0.417615  C8.37009, -1.07857 8.40546, -1.70479 8.44083, -2.16537  C8.48138, -2.69716 8.52193, -3.00286 8.56249, -3 " /><path d="M8.56249, -3 Q8.56978, -3 8.57707, -2.98742 " /><path d="M7.93749, 3 C7.97992, 3.00342 8.02237, 2.66729 8.06481, 2.09021  C8.11125, 1.46426 8.15769, 0.558808 8.20413, -0.313153  C8.23922, -0.971541 8.2743, -1.60377 8.30939, -2.07964  C8.34723, -2.59569 8.38507, -2.92427 8.4229, -2.98741 " /><path d="M8.4229, -2.98741 Q8.4302, -3 8.43749, -3 " /><path d="M8.9229, 2.98741 Q8.93019, 3 8.93749, 3 " /><path id= "69" d=" M 8.93749 3 L 9.06249 3 " />
<path d="M9.06249, 3 Q9.06978, 3 9.07707, 2.98741 " /><path d="M9.07707, 2.98741 C9.11848, 2.91901 9.15987, 2.53012 9.20128, 1.92977  C9.24576, 1.28932 9.29024, 0.41352 9.33472, -0.417602  C9.37009, -1.07854 9.40546, -1.70475 9.44083, -2.16532  C9.48138, -2.69714 9.52193, -3.00286 9.56249, -3 " /><path d="M9.56249, -3 Q9.56978, -3 9.57707, -2.98742 " /><path d="M8.93749, 3 C8.97992, 3.00342 9.02237, 2.66729 9.06481, 2.0902  C9.11125, 1.46426 9.15769, 0.558802 9.20413, -0.313161  C9.23922, -0.971562 9.2743, -1.6038 9.30939, -2.07968  C9.34723, -2.5957 9.38507, -2.92427 9.4229, -2.98741 " /><path d="M9.4229, -2.98741 Q9.4302, -3 9.43749, -3 " /><path d="M9.9229, 2.98741 Q9.93019, 3 9.93749, 3 " /><path id= "76" d=" M 9.93749 3 L 10.0625 3 " />
<path d="M10.0625, 3 Q10.0698, 3 10.0771, 2.98741 " /><path d="M10.0771, 2.98741 C10.1185, 2.91901 10.1599, 2.53012 10.2013, 1.92977  C10.2458, 1.28932 10.2902, 0.413531 10.3347, -0.417588  C10.3701, -1.07851 10.4055, -1.70471 10.4408, -2.16528  C10.4814, -2.69712 10.5219, -3.00286 10.5625, -3 " /><path d="M10.5625, -3 Q10.5698, -3 10.5771, -2.98742 " /><path d="M9.93749, 3 C9.97992, 3.00342 10.0224, 2.66729 10.0648, 2.09021  C10.1112, 1.46426 10.1577, 0.558801 10.2041, -0.313162  C10.2392, -0.971564 10.2743, -1.6038 10.3094, -2.07968  C10.3472, -2.59571 10.3851, -2.92427 10.4229, -2.98741 " /><path d="M10.4229, -2.98741 Q10.4302, -3 10.4375, -3 " /><path d="M10.9229, 2.98741 Q10.9302, 3 10.9375, 3 " /><path id= "83" d=" M 10.9375 3 L 11.0625 3 " />
<path d="M11.0625, 3 Q11.0698, 3 11.0771, 2.98741 " /><path d="M11.0771, 2.98741 C11.1185, 2.91901 11.1599, 2.53012 11.2013, 1.92978  C11.2458, 1.28933 11.2902, 0.413549 11.3347, -0.417566  C11.3701, -1.07846 11.4055, -1.70464 11.4408, -2.1652  C11.4814, -2.69709 11.5219, -3.00286 11.5625, -3 " /><path d="M11.5625, -3 Q11.5698, -3 11.5771, -2.98742 " /><path d="M10.9375, 3 C10.9799, 3.00342 11.0224, 2.66729 11.0648, 2.09021  C11.1113, 1.46426 11.1577, 0.558802 11.2041, -0.313161  C11.2392, -0.971562 11.2743, -1.6038 11.3094, -2.07968  C11.3472, -2.59571 11.3851, -2.92427 11.4229, -2.98741 " /><path d="M11.4229, -2.98741 Q11.4302, -3 11.4375, -3 " /><path d="M11.9229, 2.98741 Q11.9302, 3 11.9375, 3 " /><path id= "90" d=" M 11.9375 3 L 12.0625 3 " />
<path d="M12.0625, 3 Q12.0698, 3 12.0771, 2.98741 " /><path d="M12.0771, 2.98741 C12.1185, 2.91901 12.1599, 2.53012 12.2013, 1.92978  C12.2458, 1.28935 12.2902, 0.41358 12.3347, -0.417526  C12.3701, -1.07837 12.4054, -1.70451 12.4408, -2.16507  C12.4814, -2.69704 12.5219, -3.00286 12.5625, -3 " /><path d="M12.5625, -3 Q12.5698, -3 12.5771, -2.98742 " /><path d="M11.9375, 3 C11.9799, 3.00342 12.0224, 2.66729 12.0648, 2.0902  C12.1113, 1.46426 12.1577, 0.558798 12.2041, -0.313166  C12.2392, -0.971575 12.2743, -1.60382 12.3094, -2.0797  C12.3472, -2.59572 12.3851, -2.92427 12.4229, -2.98741 " /><path d="M12.4229, -2.98741 Q12.4302, -3 12.4375, -3 " /><path d="M12.9229, 2.98741 Q12.9302, 3 12.9375, 3 " /><path id= "97" d=" M 12.9375 3 L 13.0625 3 " />
<path d="M13.0625, 3 Q13.0698, 3 13.0771, 2.98741 " /><path d="M13.0771, 2.98741 C13.1185, 2.91901 13.1599, 2.53012 13.2013, 1.92979  C13.2458, 1.28936 13.2902, 0.413601 13.3347, -0.417499  C13.3701, -1.07831 13.4054, -1.70442 13.4408, -2.16498  C13.4814, -2.697 13.5219, -3.00286 13.5625, -3 " /><path d="M13.5625, -3 Q13.5698, -3 13.5771, -2.98742 " /><path d="M12.9375, 3 C12.9799, 3.00342 13.0224, 2.66729 13.0648, 2.0902  C13.1113, 1.46426 13.1577, 0.558788 13.2041, -0.31318  C13.2392, -0.971607 13.2743, -1.60387 13.3094, -2.07975  C13.3472, -2.59574 13.3851, -2.92427 13.4229, -2.98741 " /><path d="M13.4229, -2.98741 Q13.4302, -3 13.4375, -3 " /><path d="M13.9229, 2.98741 Q13.9302, 3 13.9375, 3 " /><path id= "104" d=" M 13.9375 3 L 14.0625 3 " />
<path d="M14.0625, 3 Q14.0698, 3 14.0771, 2.98741 " /><path d="M14.0771, 2.98741 C14.1185, 2.91901 14.1599, 2.53012 14.2013, 1.92979  C14.2458, 1.28936 14.2902, 0.413599 14.3347, -0.417502  C14.3701, -1.07831 14.4054, -1.70443 14.4408, -2.16499  C14.4814, -2.69701 14.5219, -3.00286 14.5625, -3 " /><path d="M14.5625, -3 Q14.5698, -3 14.5771, -2.98742 " /><path d="M13.9375, 3 C13.9799, 3.00342 14.0224, 2.66729 14.0648, 2.0902  C14.1113, 1.46425 14.1577, 0.558783 14.2041, -0.313187  C14.2392, -0.971625 14.2743, -1.6039 14.3094, -2.07978  C14.3472, -2.59575 14.3851, -2.92427 14.4229, -2.98741 " /><path d="M14.4229, -2.98741 Q14.4302, -3 14.4375, -3 " /><path d="M14.9229, 2.98741 Q14.9302, 3 14.9375, 3 " /><path id= "111" d=" M 14.9375 3 L 15.0625 3 " />
<path d="M15.0625, 3 Q15.0698, 3 15.0771, 2.98741 " /><path d="M15.0771, 2.98741 C15.1185, 2.91901 15.1599, 2.53013 15.2013, 1.9298  C15.2458, 1.28938 15.2902, 0.413637 15.3347, -0.417453  C15.3701, -1.0782 15.4054, -1.70427 15.4408, -2.16483  C15.4814, -2.69694 15.5219, -3.00287 15.5625, -3 " /><path d="M15.5625, -3 Q15.5698, -3 15.5771, -2.98742 " /><path d="M14.9375, 3 C14.9799, 3.00342 15.0224, 2.66729 15.0648, 2.0902  C15.1113, 1.46426 15.1577, 0.55879 15.2041, -0.313178  C15.2392, -0.971602 15.2743, -1.60386 15.3094, -2.07974  C15.3472, -2.59574 15.3851, -2.92427 15.4229, -2.98741 " /><path d="M15.4229, -2.98741 Q15.4302, -3 15.4375, -3 " /><path d="M15.8689, 2.88113 Q15.8641, 2.88593 15.8593, 2.87767 " /><path id= "118" d=" M 15.8689 2.88113 L 16.75 2 " />
<path d="M16.75, -2 L16.75, -1.94986  L16.75, -1.80194  L16.75, -1.56366  L16.75, -1.24698  L16.75, -0.867767  L16.75, -0.445042  L16.75, -3.88578e-16  L16.75, 0.445042  L16.75, 0.867767  L16.75, 1.24698  L16.75, 1.56366  L16.75, 1.80194  L16.75, 1.94986  L16.75, 2 " /><path d="M15.8689, 2.88113 C15.8869, 2.86379 15.9051, 2.70399 15.9234, 2.4233  C15.9583, 1.89679 15.9936, 0.913315 16.0295, -0.0580765  C16.047, -0.528135 16.0645, -0.989421 16.0823, -1.38082  C16.1128, -2.06004 16.1437, -2.5111 16.1751, -2.56027 " /><path d="M16.1751, -2.56027 Q16.1805, -2.56952 16.1859, -2.56414 " /><path id= "122" d=" M 16.75 2 L 20 2 " />
<path d="M20, -2 L20, -1.94986  L20, -1.80194  L20, -1.56366  L20, -1.24698  L20, -0.867767  L20, -0.445042  L20, -3.88578e-16  L20, 0.445042  L20, 0.867767  L20, 1.24698  L20, 1.56366  L20, 1.80194  L20, 1.94986  L20, 2 " /></g>

</svg>
