<svg xmlns="http://www.w3.org/2000/svg" viewBox="-2.8174848 -2.7402648000000003 6.2484096 4.911899600000001">
<rect width="100%" height="100%" fill="white"/>
<g   fill="none"
   stroke="rgb(0, 0, 0)"
   stroke-linecap="butt"
   stroke-linejoin="miter"
   stroke-width="0.35"
   transform="scale(1, -1)"
  >
<path d="M2.45873 0 A2.45873 2.45873 0 0 1 -1.73903 1.73815" /><path d="M-1.73818 -1.73899 A2.45873 2.45873 0 0 1 2.45873 -6.02216e-16" /><path d="M-1.73907, 1.7381 C-1.89163, 1.5491 -2.04778, 1.31578 -2.15976, 1.0608  C-2.3061, 0.733047 -2.38729, 0.366397 -2.38656, -0.000579956 " /><path d="M-2.38656, -0.000579956 C-2.38711, -0.367465 -2.30578, -0.733978 -2.15936, -1.0616  C-2.04723, -1.31665 -1.8909, -1.55 -1.73818, -1.73899 " /><path d="M-1.73903, 1.73815 L-1.73907, 1.7381 " /><circle cx ="0" cy ="0" r ="1.74071" /><path d="M2.69648, 1.29066e-06 C2.67762, 0.530269 2.4968, 1.05228 2.18361, 1.47742  C1.88055, 1.89194 1.45362, 2.21289 0.973056, 2.3863  C0.501513, 2.55834 -0.0197371, 2.58699 -0.504259, 2.46664  C-0.976667, 2.35105 -1.41209, 2.09446 -1.73903, 1.73815 " /><path d="M-1.73818, -1.73899 L-1.73826, -1.73894 " /><path d="M-1.73826, -1.73894 C-2.23395, -1.37747 -2.58938, -0.817804 -2.71927, -0.201208  C-2.86645, 0.474881 -2.74217, 1.21122 -2.3844, 1.82061 " /><path d="M-2.3844 1.82061 A3 3 0 0 1 -2.97339 -0.398667" /><path d="M2.69648, -8.88178e-16 C2.72419, -0.67775 2.48309, -1.36284 2.03739, -1.87911  C1.58921, -2.40558 0.936634, -2.75319 0.246625, -2.83551  C-0.47507, -2.92678 -1.22906, -2.72647 -1.81556, -2.29027  C-2.42633, -1.84303 -2.84996, -1.14899 -2.97339, -0.398667 " /><path d="M0.866025, 1.5 C0.233374, 1.5 -0.233374, 1.5 -0.866025, 1.5 " /><path d="M-0.866025, 1.5 C-1.18235, 0.952108 -1.41572, 0.547892 -1.73205, 7.38298e-14 " /><path d="M-1.73205, -7.43849e-14 C-1.41572, -0.547892 -1.18235, -0.952108 -0.866025, -1.5 " /><path d="M-0.866025, -1.5 C-0.233374, -1.5 0.233374, -1.5 0.866025, -1.5 " /><path d="M0.866025, -1.5 C1.18235, -0.952108 1.41572, -0.547892 1.73205, -7.4718e-14 " /><path d="M1.73205, 7.43849e-14 C1.41572, 0.547892 1.18235, 0.952108 0.866025, 1.5 " /><path d="M-2.3844, 1.82061 C-1.90703, 2.45119 -1.1703, 2.87674 -0.385486, 2.97513  C-0.0943841, 3.01261 0.196002, 3.00771 0.485673, 2.96043  C1.02418, 2.87286 1.53701, 2.63436 1.95097, 2.27897  C2.61071, 1.72022 3.00458, 0.864473 3, 7.44909e-11 " /><path d="M3, 7.44869e-11 C3.00342, -0.801123 2.66729, -1.59623 2.09021, -2.15198  C1.46428, -2.76669 0.558835, -3.07999 -0.313116, -2.98361  C-0.971452, -2.91617 -1.60364, -2.62223 -2.0795, -2.16233  C-2.56517, -1.69767 -2.88579, -1.06508 -2.97339, -0.398667 " /><path d="M2.99508, 0.171742 Q3, 0.0859411 3, 6.75788e-11 " /><circle cx ="0" cy ="0" r ="0.24" /><path d="M3, 6.7562e-11 C3.00342, -0.801123 2.66729, -1.59623 2.09021, -2.15198  C1.46427, -2.76669 0.558831, -3.07999 -0.313122, -2.98361  C-0.971465, -2.91616 -1.60366, -2.62222 -2.07952, -2.16231  C-2.56518, -1.69765 -2.88579, -1.06507 -2.97339, -0.398667 " /><path d="M-2.3844, 1.82061 C-1.90551, 2.45324 -1.16554, 2.87941 -0.377945, 2.9761  C-0.0942868, 3.01191 0.18874, 3.00747 0.471135, 2.96277  C1.01595, 2.87695 1.53523, 2.63667 1.95332, 2.27696  C2.61167, 1.71819 3.00456, 0.863434 3, 6.1009e-11 " /><path d="M3, 6.09668e-11 C3.00342, -0.801123 2.66729, -1.59623 2.09021, -2.15198  C1.46427, -2.76669 0.558828, -3.07999 -0.313126, -2.98361  C-0.971475, -2.91616 -1.60367, -2.62221 -2.07954, -2.16229  C-2.56519, -1.69764 -2.88579, -1.06507 -2.97339, -0.398667 " /><path d="M-2.3844, 1.82061 C-1.90907, 2.44843 -1.17669, 2.87313 -0.39563, 2.9738  C-0.10036, 3.01283 0.19423, 3.00824 0.488139, 2.96002  C1.027, 2.87193 1.54002, 2.6327 1.95385, 2.2765  C2.61189, 1.71772 3.00456, 0.863196 3, 5.47682e-11 " /><path d="M3, 5.47253e-11 C3.00342, -0.801123 2.66729, -1.59623 2.09021, -2.15198  C1.46427, -2.76669 0.558824, -3.07999 -0.31313, -2.98361  C-0.971487, -2.91616 -1.60369, -2.6222 -2.07956, -2.16228  C-2.56519, -1.69762 -2.88579, -1.06506 -2.97339, -0.398667 " /><path d="M-2.3844, 1.82061 C-1.90979, 2.44745 -1.17897, 2.87184 -0.39924, 2.97332  C-0.104692, 3.01262 0.189247, 3.00849 0.482575, 2.96093  C1.01991, 2.87413 1.53185, 2.63709 1.94566, 2.2835  C2.60852, 1.7248 3.00463, 0.866826 3, 4.88938e-11 " /><path d="M3, 4.88247e-11 C3.00342, -0.801123 2.66729, -1.59623 2.09021, -2.15198  C1.46427, -2.76669 0.558822, -3.07999 -0.313134, -2.98361  C-0.971494, -2.91616 -1.6037, -2.6222 -2.07957, -2.16227  C-2.5652, -1.69761 -2.88579, -1.06505 -2.97339, -0.398667 " /><path d="M-2.3844, 1.82061 C-1.90851, 2.44918 -1.17496, 2.87411 -0.392878, 2.97416  C-0.100857, 3.0125 0.190529, 3.00816 0.481278, 2.96114  C1.02431, 2.87368 1.54144, 2.63273 1.9577, 2.2732  C2.61348, 1.7144 3.00452, 0.861494 3, 4.32547e-11 " /><path d="M3, 4.32769e-11 C3.00342, -0.801124 2.66729, -1.59623 2.09021, -2.15198  C1.46427, -2.7667 0.558817, -3.07999 -0.313141, -2.98361  C-0.971512, -2.91615 -1.60373, -2.62218 -2.0796, -2.16224  C-2.56521, -1.69759 -2.88579, -1.06504 -2.97339, -0.398667 " /><path d="M-2.30454, 1.9207 L-2.21518, 2.02311 " /><path d="M-1.91493, 2.30934 C-1.4838, 2.66795 -0.9501, 2.90118 -0.394078, 2.974  C0.442682, 3.08911 1.32155, 2.82704 1.95864, 2.27239  C2.61386, 1.71358 3.00451, 0.861075 3, 3.80926e-11 " /><path d="M3, 3.80644e-11 C3.00342, -0.801124 2.66729, -1.59623 2.09021, -2.15198  C1.76862, -2.46483 1.37579, -2.70382 0.950117, -2.84557 " /><path d="M3, 3.31868e-11 C3.00342, -0.801124 2.66729, -1.59624 2.09021, -2.15199  C1.46426, -2.7667 0.558808, -3.08 -0.313153, -2.98361  C-0.971541, -2.91615 -1.60377, -2.62216 -2.07964, -2.16219  C-2.56523, -1.69755 -2.8858, -1.06502 -2.97339, -0.398667 " /><path d="M-2.3844, 1.82061 C-1.90988, 2.44733 -1.17924, 2.87169 -0.399667, 2.97326  C-0.108807, 3.01212 0.18154, 3.00861 0.471376, 2.96274  C1.0167, 2.87679 1.53643, 2.63609 1.95469, 2.27578  C2.61224, 1.717 3.00455, 0.862825 3, 2.87228e-11 " /><path d="M3, 2.86873e-11 C3.00342, -0.801125 2.66729, -1.59624 2.0902, -2.15199  C1.46426, -2.7667 0.558802, -3.08 -0.313161, -2.98361  C-0.971562, -2.91614 -1.6038, -2.62215 -2.07968, -2.16216  C-2.56525, -1.69752 -2.8858, -1.065 -2.97339, -0.398667 " /><path d="M-2.3844, 1.82061 C-1.90992, 2.44727 -1.17937, 2.87161 -0.399881, 2.97323  C-0.10214, 3.01301 0.194916, 3.00844 0.49129, 2.9595  C1.03056, 2.87076 1.54377, 2.63061 1.95743, 2.27343  C2.61337, 1.71463 3.00452, 0.861612 3, 2.43459e-11 " /><path d="M3, 2.44211e-11 C3.00342, -0.801125 2.66729, -1.59624 2.09021, -2.15199  C1.46426, -2.7667 0.558801, -3.08 -0.313162, -2.98361  C-0.971564, -2.91614 -1.6038, -2.62214 -2.07968, -2.16216  C-2.56525, -1.69751 -2.8858, -1.065 -2.97339, -0.398667 " /><path d="M-2.3844, 1.82061 C-1.9098, 2.44744 -1.17898, 2.87184 -0.399255, 2.97331  C-0.104781, 3.01261 0.189084, 3.00849 0.482342, 2.96097  C1.01959, 2.87422 1.53146, 2.6373 1.94526, 2.28385  C2.60835, 1.72515 3.00463, 0.867001 3, 2.0653e-11 " /><path d="M3, 2.05511e-11 C3.00342, -0.801124 2.66729, -1.59624 2.09021, -2.15199  C1.46426, -2.7667 0.558802, -3.08 -0.313161, -2.98361  C-0.971562, -2.91614 -1.6038, -2.62215 -2.07968, -2.16216  C-2.56525, -1.69752 -2.8858, -1.065 -2.97339, -0.398667 " /><path d="M-2.3844, 1.82061 C-1.91041, 2.44661 -1.18089, 2.87075 -0.402301, 2.9729  C-0.110451, 3.01216 0.1809, 3.00875 0.471751, 2.96268  C1.01785, 2.87654 1.53825, 2.6352 1.95679, 2.27398  C2.6131, 1.71518 3.00453, 0.861898 3, 1.70377e-11 " /><path d="M3, 1.70646e-11 C3.00342, -0.801125 2.66729, -1.59624 2.0902, -2.15199  C1.46426, -2.7667 0.558798, -3.08 -0.313166, -2.98361  C-0.971575, -2.91614 -1.60382, -2.62214 -2.0797, -2.16214  C-2.56526, -1.6975 -2.8858, -1.06499 -2.97339, -0.398667 " /><path d="M-2.3844, 1.82061 C-1.90687, 2.45141 -1.16979, 2.87702 -0.384682, 2.97523  C-0.0927298, 3.01274 0.198474, 3.00763 0.488928, 2.95989  C1.0279, 2.87164 1.54097, 2.63217 1.95476, 2.27572  C2.61227, 1.71694 3.00455, 0.862794 3, 1.39138e-11 " /><path d="M3, 1.38942e-11 C3.00342, -0.801125 2.66729, -1.59624 2.0902, -2.15199  C1.46426, -2.76671 0.558788, -3.08 -0.31318, -2.98361  C-0.971607, -2.91614 -1.60387, -2.62211 -2.07975, -2.16209  C-2.56528, -1.69745 -2.8858, -1.06497 -2.97339, -0.398667 " /><path d="M-2.3844, 1.82061 C-1.91007, 2.44708 -1.17982, 2.87136 -0.400593, 2.97313  C-0.101107, 3.01322 0.197659, 3.00843 0.495705, 2.95876  C1.02892, 2.87018 1.53646, 2.63361 1.94718, 2.28221  C2.60914, 1.72349 3.00462, 0.866155 3, 1.09188e-11 " /><path d="M3, 1.09379e-11 C3.00342, -0.801126 2.66729, -1.59624 2.0902, -2.15199  C1.46425, -2.76671 0.558783, -3.08 -0.313187, -2.98361  C-0.971625, -2.91613 -1.6039, -2.6221 -2.07978, -2.16207  C-2.56529, -1.69743 -2.8858, -1.06496 -2.97339, -0.398667 " /><path d="M-2.3844, 1.82061 C-1.9093, 2.44812 -1.17742, 2.87272 -0.396776, 2.97365  C-0.103341, 3.01255 0.189476, 3.00836 0.481678, 2.96108  C1.02487, 2.87352 1.54212, 2.63236 1.9584, 2.27259  C2.61377, 1.71378 3.00452, 0.861178 3, 8.33644e-12 " /></g>

</svg>
