<svg xmlns="http://www.w3.org/2000/svg" viewBox="-3.4512612000000003 -3.2495412 6.9291324 6.5729824">
<rect width="100%" height="100%" fill="white"/>
<g   fill="none"
   stroke="rgb(165, 165, 165)"
   stroke-dasharray="1.2,0.8"
   stroke-linecap="butt"
   stroke-linejoin="miter"
   stroke-width="0.25"
   transform="scale(1, -1)"
  >
<path d="M-2.97339, -0.398667 C-3.0073, -0.144722 -3.00879, 0.109412 -2.97787, 0.363737  C-2.89592, 1.0506 -2.56626, 1.70424 -2.06263, 2.17843  C-1.58035, 2.63737 -0.941135, 2.92703 -0.278092, 2.98708  C0.591271, 3.0728 1.48917, 2.75211 2.10754, 2.13501  C2.67423, 1.58024 3.00329, 0.792977 3, -6.75879e-11 " /><path d="M0.866025, 1.5 C0.233374, 1.5 -0.233374, 1.5 -0.866025, 1.5 " /><path d="M1.73205, 6.51701e-14 C1.41572, 0.547892 1.18235, 0.952108 0.866025, 1.5 " /><path d="M0.866025, -1.5 C1.18235, -0.952108 1.41572, -0.547892 1.73205, -6.57252e-14 " /><path d="M-0.866025, -1.5 C-0.233374, -1.5 0.233374, -1.5 0.866025, -1.5 " /><path d="M-1.73205, -6.61697e-14 C-1.41572, -0.547892 -1.18235, -0.952108 -0.866025, -1.5 " /><path d="M-0.866025, 1.5 C-1.18235, 0.952108 -1.41572, 0.547892 -1.73205, 6.52811e-14 " /><path d="M3, -6.76783e-11 C3.00477, -0.873849 2.60193, -1.73849 1.92973, -2.29698  C1.28924, -2.84043 0.413377, -3.0918 -0.417784, -2.97077  C-1.07893, -2.87949 -1.70532, -2.5588 -2.16591, -2.07577  C-2.72077, -1.50169 -3.02812, -0.698691 -2.99836, 0.0991538  C-2.97568, 0.877959 -2.63306, 1.64087 -2.06602, 2.17521  C-1.58793, 2.63154 -0.954964, 2.9214 -0.297136, 2.98525  C0.576332, 3.07707 1.48114, 2.75805 2.10386, 2.13864  C2.67275, 1.58365 3.00332, 0.794714 3, -6.11908e-11 " /><path d="M-2.97339, -0.398667 C-3.09891, 0.496679 -2.78895, 1.43935 -2.15657, 2.08548  C-1.69209, 2.56824 -1.06128, 2.88665 -0.397033, 2.97361  C0.437631, 3.08925 1.31461, 2.82963 1.95185, 2.27822  C2.5665, 1.75625 2.95243, 0.976931 2.99508, 0.171742 " /><path d="M3, -6.10862e-11 C3.00477, -0.873847 2.60193, -1.73849 1.92974, -2.29698  C1.28925, -2.84042 0.413394, -3.09179 -0.417763, -2.97077  C-1.07889, -2.8795 -1.70526, -2.55883 -2.16584, -2.07584  C-2.72516, -1.4973 -3.03276, -0.686118 -2.99769, 0.117823  C-2.97028, 0.89119 -2.62756, 1.64702 -2.06389, 2.17723  C-1.58666, 2.63184 -0.955575, 2.92078 -0.299605, 2.985  C0.574635, 3.07765 1.48059, 2.75863 2.1039, 2.1386  C2.67277, 1.58362 3.00332, 0.794691 3, -5.48273e-11 " /><path d="M-2.97339, -0.398667 C-3.08107, 0.380418 -2.86423, 1.19745 -2.3844, 1.82061 " /><path d="M3, -5.48366e-11 C3.00477, -0.873846 2.60193, -1.73848 1.92974, -2.29697  C1.28926, -2.84042 0.413411, -3.09179 -0.41774, -2.97077  C-1.07884, -2.87951 -1.70519, -2.55887 -2.16577, -2.07592  C-2.72088, -1.50166 -3.0283, -0.698282 -2.99834, 0.0998592  C-2.97546, 0.879026 -2.63235, 1.6422 -2.06472, 2.17645  C-1.5846, 2.63419 -0.948533, 2.92407 -0.288083, 2.98614  C0.584141, 3.07513 1.48639, 2.75469 2.10711, 2.13544  C2.67405, 1.58064 3.00329, 0.793184 3, -4.88445e-11 " /><path d="M-2.97339, -0.398667 C-3.08107, 0.380418 -2.86423, 1.19745 -2.3844, 1.82061 " /><path d="M3, -4.89215e-11 C3.00477, -0.873844 2.60194, -1.73848 1.92975, -2.29697  C1.28927, -2.84041 0.413426, -3.09179 -0.417721, -2.97078  C-1.0788, -2.87952 -1.70513, -2.5589 -2.16571, -2.07598  C-2.72071, -1.50187 -3.02814, -0.69874 -2.99836, 0.0992235  C-2.97565, 0.878288 -2.63279, 1.64144 -2.06541, 2.17579  C-1.58384, 2.63523 -0.945215, 2.92567 -0.282441, 2.98667  C0.586957, 3.07368 1.48549, 2.75416 2.10478, 2.13773  C2.67312, 1.5828 3.00331, 0.794277 3, -4.33447e-11 " /><path d="M-2.97339, -0.398667 C-3.08107, 0.380418 -2.86423, 1.19745 -2.3844, 1.82061 " /><path d="M3, -4.33813e-11 C3.00477, -0.873842 2.60194, -1.73847 1.92975, -2.29697  C1.28928, -2.8404 0.413448, -3.09178 -0.417693, -2.97078  C-1.07874, -2.87954 -1.70504, -2.55895 -2.16562, -2.07608  C-2.72045, -1.50218 -3.0279, -0.699431 -2.99839, 0.0982633  C-2.97594, 0.87716 -2.63347, 1.64025 -2.06649, 2.17477  C-1.58786, 2.63181 -0.953918, 2.92195 -0.295181, 2.98544  C0.581036, 3.07702 1.48845, 2.75504 2.11099, 2.1316  C2.6756, 1.57705 3.00327, 0.791352 3, -3.82023e-11 " /><path d="M-2.97339, -0.398667 C-3.08107, 0.380418 -2.86423, 1.19745 -2.3844, 1.82061 " /><path d="M3, -3.81672e-11 C3.00477, -0.87384 2.60194, -1.73847 1.92976, -2.29696  C1.28929, -2.8404 0.413465, -3.09178 -0.417671, -2.97078  C-1.07869, -2.87955 -1.70497, -2.55899 -2.16555, -2.07615  C-2.72024, -1.50243 -3.02771, -0.699981 -2.99842, 0.0974997  C-2.97617, 0.876088 -2.63417, 1.63897 -2.06772, 2.1736  C-1.59065, 2.62965 -0.959036, 2.91985 -0.302253, 2.98474  C0.57214, 3.07819 1.47863, 2.75976 2.10251, 2.13997  C2.67221, 1.5849 3.00333, 0.795349 3, -3.32727e-11 " /><path d="M-2.97339, -0.398667 C-3.0875, 0.422925 -2.83861, 1.28602 -2.30454, 1.9207 " /><path d="M-2.21518, 2.02311 Q-2.07498, 2.1766 -1.91493, 2.30934 " /><path d="M3, -3.32858e-11 C3.00477, -0.873838 2.60194, -1.73847 1.92976, -2.29696  C1.2893, -2.84039 0.413485, -3.09177 -0.417646, -2.97079  C-1.07863, -2.87956 -1.70489, -2.55904 -2.16547, -2.07624  C-2.72, -1.50273 -3.02749, -0.700618 -2.99844, 0.0966127  C-2.97643, 0.87479 -2.63503, 1.63739 -2.06926, 2.17213  C-1.58549, 2.63535 -0.942323, 2.92761 -0.27521, 2.98735  C0.590988, 3.07186 1.48521, 2.75315 2.1027, 2.13978  C2.67229, 1.58472 3.00333, 0.79526 3, -2.86753e-11 " /><path d="M0.950117, -2.84557 C0.545297, -2.98104 0.111373, -3.02846 -0.313146, -2.98361  C-0.971525, -2.91615 -1.60375, -2.62217 -2.07962, -2.16222  C-2.66334, -1.60568 -3.00384, -0.805235 -3, 0.00119328  C-3.00259, 0.768722 -2.69479, 1.5312 -2.1601, 2.08182  C-1.69345, 2.56854 -1.05797, 2.88893 -0.389156, 2.97465  C-0.103461, 3.01181 0.181702, 3.0081 0.466334, 2.96353  C1.01157, 2.87855 1.5315, 2.6389 1.95029, 2.27956  C2.61043, 1.72081 3.00459, 0.864779 3, 3.33036e-11 " /><path d="M3, -2.87881e-11 C3.00477, -0.873835 2.60194, -1.73846 1.92977, -2.29696  C1.28931, -2.84038 0.41351, -3.09177 -0.417615, -2.97079  C-1.07857, -2.87958 -1.70479, -2.55909 -2.16537, -2.07634  C-2.7197, -1.50309 -3.02722, -0.701409 -2.99848, 0.0955135  C-2.97666, 0.879457 -2.63048, 1.64758 -2.0576, 2.18318  C-1.57491, 2.64039 -0.936116, 2.92843 -0.27389, 2.98747  C0.594375, 3.07183 1.49056, 2.75094 2.10796, 2.13459  C2.67439, 1.57985 3.00329, 0.792775 3, -2.45475e-11 " /><path d="M-2.97339, -0.398667 C-3.08107, 0.380418 -2.86423, 1.19745 -2.3844, 1.82061 " /><path d="M3, -2.44849e-11 C3.00477, -0.873834 2.60195, -1.73846 1.92977, -2.29695  C1.28932, -2.84038 0.41352, -3.09177 -0.417602, -2.97079  C-1.07854, -2.87959 -1.70475, -2.55912 -2.16532, -2.07639  C-2.71958, -1.50324 -3.02711, -0.701735 -2.99849, 0.0950593  C-2.97679, 0.878754 -2.63095, 1.6467 -2.05848, 2.18235  C-1.57661, 2.63914 -0.938984, 2.9273 -0.277711, 2.98712  C0.591969, 3.07276 1.49015, 2.75169 2.10847, 2.1341  C2.67459, 1.57938 3.00329, 0.792537 3, -2.06293e-11 " /><path d="M-2.97339, -0.398667 C-3.08107, 0.380418 -2.86423, 1.19745 -2.3844, 1.82061 " /><path d="M3, -2.06004e-11 C3.00477, -0.873833 2.60195, -1.73846 1.92977, -2.29695  C1.28932, -2.84037 0.413531, -3.09176 -0.417588, -2.97079  C-1.07851, -2.87959 -1.70471, -2.55914 -2.16528, -2.07643  C-2.71944, -1.5034 -3.02699, -0.702095 -2.99851, 0.0945589  C-2.97695, 0.877966 -2.63149, 1.64569 -2.05948, 2.18141  C-1.57893, 2.63735 -0.9433, 2.92554 -0.283695, 2.98656  C0.585364, 3.07389 1.48372, 2.75501 2.10324, 2.13925  C2.67251, 1.58423 3.00332, 0.795006 3, -1.70517e-11 " /><path d="M-2.97339, -0.398667 C-3.08107, 0.380418 -2.86423, 1.19745 -2.3844, 1.82061 " /><path d="M3, -1.71569e-11 C3.00477, -0.873831 2.60195, -1.73845 1.92978, -2.29695  C1.28933, -2.84037 0.413549, -3.09176 -0.417566, -2.9708  C-1.07846, -2.8796 -1.70464, -2.55918 -2.1652, -2.07651  C-2.71922, -1.50366 -3.02679, -0.702674 -2.99853, 0.093752  C-2.97719, 0.87666 -2.63238, 1.644 -2.06116, 2.17982  C-1.58424, 2.63297 -0.954281, 2.92091 -0.299545, 2.98501  C0.577027, 3.07792 1.48542, 2.75684 2.1089, 2.13366  C2.67477, 1.57898 3.00328, 0.792332 3, -1.39861e-11 " /><path d="M-2.97339, -0.398667 C-3.08107, 0.380418 -2.86423, 1.19745 -2.3844, 1.82061 " /><path d="M3, -1.40439e-11 C3.00477, -0.873828 2.60195, -1.73845 1.92978, -2.29694  C1.28935, -2.84036 0.41358, -3.09175 -0.417526, -2.9708  C-1.07837, -2.87963 -1.70451, -2.55925 -2.16507, -2.07665  C-2.72151, -1.50143 -3.02926, -0.69607 -2.99821, 0.103641  C-2.97439, 0.880969 -2.6319, 1.64202 -2.06588, 2.17534  C-1.58378, 2.6355 -0.944144, 2.92623 -0.280442, 2.98686  C0.586634, 3.07301 1.48248, 2.75497 2.10113, 2.14132  C2.67167, 1.58617 3.00334, 0.795992 3, -1.11458e-11 " /><path d="M-2.97339, -0.398667 C-3.08107, 0.380418 -2.86423, 1.19745 -2.3844, 1.82061 " /><path d="M3, -1.10316e-11 C3.00477, -0.873826 2.60195, -1.73844 1.92979, -2.29694  C1.28936, -2.84035 0.413601, -3.09175 -0.417499, -2.97081  C-1.07831, -2.87964 -1.70442, -2.5593 -2.16498, -2.07674  C-2.72096, -1.50204 -3.02872, -0.697575 -2.99828, 0.101475  C-2.97492, 0.884177 -2.62827, 1.65049 -2.05586, 2.18482  C-1.57909, 2.63561 -0.950496, 2.92174 -0.297435, 2.98522  C0.574721, 3.07697 1.4782, 2.75918 2.10087, 2.14158  C2.67156, 1.58642 3.00334, 0.796122 3, -8.35487e-12 " /><path d="M-2.97339, -0.398667 C-3.08107, 0.380418 -2.86423, 1.19745 -2.3844, 1.82061 " /><path d="M3, -8.35221e-12 C3.00477, -0.873826 2.60195, -1.73844 1.92979, -2.29694  C1.28936, -2.84035 0.413599, -3.09175 -0.417502, -2.97081  C-1.07831, -2.87964 -1.70443, -2.5593 -2.16499, -2.07673  C-2.72103, -1.50196 -3.02879, -0.697383 -2.99827, 0.101752  C-2.97496, 0.878254 -2.63368, 1.63873 -2.06907, 2.17231  C-1.58728, 2.63353 -0.947467, 2.92528 -0.283323, 2.98659  C0.588783, 3.07417 1.49026, 2.75252 2.10996, 2.13262  C2.67519, 1.578 3.00327, 0.791837 3, -6.31406e-12 " /><path d="M-2.97339, -0.398667 C-3.08107, 0.380418 -2.86423, 1.19745 -2.3844, 1.82061 " /><path d="M3, -6.30274e-12 C3.00477, -0.873822 2.60196, -1.73844 1.9298, -2.29693  C1.51219, -2.64879 0.996614, -2.88263 0.456785, -2.96502  C0.165655, -3.00963 -0.125758, -3.01156 -0.417453, -2.97081  C-1.0782, -2.87966 -1.70427, -2.55939 -2.16483, -2.0769  C-2.78246, -1.44044 -3.08972, -0.519955 -2.97835, 0.359803  C-2.89731, 1.04677 -2.56851, 1.70084 -2.06551, 2.1757  C-1.79962, 2.42834 -1.48689, 2.63147 -1.14796, 2.77167 " /><path d="M-1.14796, 2.77167 C-0.465892, 2.96147 0.27919, 2.89199 0.895537, 2.57478  C1.45622, 2.29096 1.90436, 1.80504 2.12617, 1.2348 " /><path d="M3, 8.30247e-12 C3.00342, -0.801125 2.66729, -1.59624 2.0902, -2.15199  C1.72249, -2.50999 1.26116, -2.77064 0.764754, -2.90089  C0.414395, -2.99341 0.047196, -3.02159 -0.313178, -2.98361  C-0.971602, -2.91614 -1.60386, -2.62212 -2.07974, -2.1621  C-2.5687, -1.69424 -2.8902, -1.05611 -2.97523, -0.384739  C-3.05038, 0.188907 -2.95409, 0.783525 -2.70171, 1.30414  C-2.56092, 1.59501 -2.37815, 1.85655 -2.15339, 2.08875  C-1.68894, 2.57002 -1.05894, 2.88724 -0.395727, 2.97379  C0.124776, 3.04371 0.663211, 2.9732 1.14815, 2.7716 " /><path d="M2.88113, -4.44089e-16 C2.90211, 0.570423 2.74793, 1.14649 2.44538, 1.63306  C2.1393, 2.12922 1.68126, 2.53059 1.14815, 2.7716 " /><path d="M2.12617, 1.2348 C2.14788, 1.17983 2.16078, 1.1314 2.15159, 1.12689  C2.14054, 1.12134 2.10184, 1.17813 2.05888, 1.23891  C1.93558, 1.41837 1.76318, 1.63318 1.5605, 1.80569 " /><path d="M1.5605, 1.80569 C1.11172, 2.19873 0.495868, 2.43174 -0.122701, 2.41495  C-0.508475, 2.40704 -0.893052, 2.30684 -1.23493, 2.12611 " /><path d="M1.14815 2.7716 A3 3 0 0 1 -1.14796 2.77167" /><circle cx ="0" cy ="0" r ="2" /><path d="M2.88113, -4.44089e-16 C2.86379, -0.515532 2.70399, -1.02453 2.4233, -1.45503  C2.15414, -1.87026 1.77375, -2.21144 1.33286, -2.43192  C0.904098, -2.6477 0.419173, -2.74837 -0.0580765, -2.71986  C-0.528135, -2.69296 -0.989421, -2.54074 -1.38082, -2.28258  C-1.76684, -2.02934 -2.08395, -1.67401 -2.28977, -1.26301  C-2.49107, -0.863456 -2.58634, -0.412249 -2.56265, 0.0324719  C-2.54063, 0.465244 -2.406, 0.890739 -2.17523, 1.25507  C-1.94421, 1.62172 -1.61656, 1.9255 -1.23493, 2.12611 " /><circle cx ="0" cy ="0" r ="2" /></g>
<g   fill="none"
   stroke="rgb(165, 165, 165)"
   stroke-dasharray="1.2,0.8"
   stroke-linecap="butt"
   stroke-linejoin="miter"
   stroke-width="0.25"
   transform="scale(1, -1)"
  >
<path d="M-2.38656, -0.000579954 C-2.38835, 0.559352 -2.18401, 1.11678 -1.82077, 1.54289  C-1.38247, 2.06558 -0.710855, 2.3817 -0.0287426, 2.38639  C0.505097, 2.3942 1.03917, 2.21527 1.46056, 1.88745  C2.03868, 1.44576 2.39109, 0.727481 2.38657, 2.60862e-06 " /><path d="M2.38657, 2.60862e-06 C2.38757, -0.492058 2.23086, -0.982758 1.94487, -1.38317  C1.69726, -1.73232 1.3536, -2.01232 0.961628, -2.18426  C0.515388, -2.38177 0.00787019, -2.43687 -0.470361, -2.33976  C-0.978607, -2.23882 -1.45056, -1.96619 -1.79191, -1.57634  C-2.16736, -1.15213 -2.38246, -0.590496 -2.38646, -0.024017  C-2.39401, 0.549064 -2.18521, 1.12146 -1.8104, 1.55504  C-1.35637, 2.08965 -0.656769, 2.40312 0.0444208, 2.38615  C0.579609, 2.37758 1.10926, 2.18137 1.52087, 1.8392  C2.06395, 1.39519 2.3905, 0.701476 2.38657, 2.4844e-06 " /><path d="M2.38657, 2.4844e-06 C2.38757, -0.492058 2.23086, -0.982758 1.94487, -1.38317  C1.69727, -1.73232 1.3536, -2.01232 0.961629, -2.18426  C0.51539, -2.38177 0.00787544, -2.43687 -0.470353, -2.33976  C-0.978597, -2.23883 -1.45054, -1.9662 -1.79189, -1.57635  C-2.16762, -1.15185 -2.38275, -0.589714 -2.38647, -0.0228286  C-2.39374, 0.550445 -2.18451, 1.12292 -1.80926, 1.55637  C-1.35219, 2.09385 -0.64675, 2.40713 0.0584686, 2.38585  C0.606304, 2.37394 1.14702, 2.16508 1.56059, 1.80561  C2.08038, 1.36106 2.39014, 0.683958 2.38657, 2.36018e-06 " /><path d="M2.38657, 2.36018e-06 C2.38757, -0.492058 2.23086, -0.982758 1.94487, -1.38317  C1.69726, -1.73232 1.3536, -2.01232 0.961628, -2.18426  C0.515388, -2.38177 0.00787011, -2.43687 -0.470361, -2.33976  C-0.978607, -2.23882 -1.45056, -1.96619 -1.79191, -1.57634  C-2.16736, -1.15213 -2.38247, -0.590481 -2.38646, -0.023993  C-2.394, 0.549092 -2.1852, 1.12149 -1.81038, 1.55507  C-1.35628, 2.08974 -0.656554, 2.40321 0.0447237, 2.38615  C0.577166, 2.37753 1.10414, 2.18326 1.51477, 1.84422  C2.06141, 1.40037 2.39055, 0.704137 2.38657, 2.23596e-06 " /><path d="M2.38657, 2.23596e-06 C2.38757, -0.492058 2.23086, -0.982758 1.94487, -1.38317  C1.69726, -1.73232 1.3536, -2.01232 0.961628, -2.18426  C0.515388, -2.38177 0.00787095, -2.43687 -0.470359, -2.33976  C-0.978605, -2.23882 -1.45055, -1.96619 -1.7919, -1.57634  C-2.16741, -1.15208 -2.38252, -0.590345 -2.38646, -0.0237874  C-2.39396, 0.549331 -2.18508, 1.12174 -1.81018, 1.5553  C-1.35553, 2.0905 -0.654737, 2.40394 0.0472801, 2.3861  C0.579063, 2.37691 1.1052, 2.18256 1.51524, 1.84383  C2.06161, 1.39997 2.39055, 0.703931 2.38657, 2.11174e-06 " /><path d="M2.38657, 2.11174e-06 C2.38757, -0.492058 2.23086, -0.982758 1.94487, -1.38317  C1.69726, -1.73232 1.3536, -2.01232 0.961628, -2.18426  C0.515389, -2.38177 0.00787303, -2.43687 -0.470357, -2.33976  C-0.978601, -2.23882 -1.45055, -1.96619 -1.7919, -1.57635  C-2.16751, -1.15196 -2.38263, -0.59003 -2.38646, -0.0233095  C-2.39385, 0.549886 -2.18479, 1.12233 -1.80972, 1.55584  C-1.35384, 2.09221 -0.650659, 2.40558 0.0530033, 2.38598  C0.502282, 2.3767 0.947799, 2.23666 1.3216, 1.98724  C1.73748, 1.7119 2.06237, 1.30233 2.23584, 0.834699  C2.3359, 0.565467 2.38614, 0.287235 2.38657, 1.98752e-06 " /><path d="M2.38657, 1.98752e-06 C2.38757, -0.492058 2.23086, -0.982758 1.94487, -1.38317  C1.69726, -1.73232 1.3536, -2.01232 0.961628, -2.18426  C0.515385, -2.38177 0.00786551, -2.43687 -0.470367, -2.33976  C-0.978616, -2.23882 -1.45057, -1.96618 -1.79192, -1.57633  C-2.16715, -1.15236 -2.38222, -0.591125 -2.38645, -0.024972  C-2.39422, 0.54795 -2.18577, 1.12027 -1.81133, 1.55397  C-1.36006, 2.08586 -0.665872, 2.39941 0.0315379, 2.38636  C0.563158, 2.38068 1.09036, 2.18996 1.50256, 1.85419  C2.05632, 1.41069 2.39067, 0.709447 2.38657, 1.8633e-06 " /><path d="M2.38657, 1.8633e-06 C2.38757, -0.492058 2.23086, -0.982758 1.94487, -1.38317  C1.69726, -1.73232 1.3536, -2.01232 0.961627, -2.18426  C0.515384, -2.38177 0.00786313, -2.43687 -0.47037, -2.33976  C-0.97862, -2.23882 -1.45057, -1.96618 -1.79192, -1.57632  C-2.16703, -1.15248 -2.38209, -0.591469 -2.38644, -0.025495  C-2.39434, 0.547339 -2.18608, 1.11962 -1.81183, 1.55337  C-1.36226, 2.08358 -0.671381, 2.39713 0.0236872, 2.38645  C0.581695, 2.38254 1.13516, 2.174 1.557, 1.80871  C2.0789, 1.36417 2.39017, 0.685549 2.38657, 1.73908e-06 " /><path d="M2.38657, 1.73908e-06 C2.38757, -0.492059 2.23086, -0.982759 1.94487, -1.38317  C1.69726, -1.73232 1.3536, -2.01232 0.961627, -2.18426  C0.515382, -2.38177 0.00785972, -2.43688 -0.470375, -2.33976  C-0.978627, -2.23882 -1.45058, -1.96617 -1.79193, -1.57632  C-2.16686, -1.15267 -2.3819, -0.591986 -2.38643, -0.0262796  C-2.39452, 0.54642 -2.18655, 1.11864 -1.8126, 1.55248  C-1.36585, 2.07978 -0.680568, 2.39328 0.0105078, 2.38654  C0.53956, 2.38554 1.06588, 2.20132 1.48008, 1.87217  C2.0469, 1.42955 2.39088, 0.719158 2.38657, 1.61486e-06 " /><path d="M2.38657, 1.61486e-06 C2.38757, -0.492059 2.23086, -0.982759 1.94487, -1.38317  C1.69726, -1.73232 1.3536, -2.01232 0.961626, -2.18426  C0.515381, -2.38177 0.00785758, -2.43688 -0.470377, -2.33976  C-0.978631, -2.23881 -1.45059, -1.96617 -1.79193, -1.57631  C-2.16676, -1.15278 -2.38178, -0.592293 -2.38643, -0.0267474  C-2.39462, 0.545871 -2.18683, 1.11806 -1.81306, 1.55194  C-1.36821, 2.07725 -0.686718, 2.39068 0.00162446, 2.38656  C0.559064, 2.38781 1.11387, 2.18483 1.5389, 1.82414  C2.07142, 1.37978 2.39033, 0.693566 2.38657, 1.49064e-06 " /><path d="M2.38657, 1.49064e-06 C2.38757, -0.492059 2.23086, -0.982759 1.94487, -1.38317  C1.69726, -1.73232 1.3536, -2.01232 0.961626, -2.18426  C0.515381, -2.38177 0.00785683, -2.43688 -0.470379, -2.33976  C-0.978632, -2.23881 -1.45059, -1.96617 -1.79193, -1.57631  C-2.16673, -1.15281 -2.38175, -0.592364 -2.38643, -0.0268547  C-2.39465, 0.545745 -2.18689, 1.11792 -1.81316, 1.55182  C-1.36878, 2.07663 -0.688218, 2.39004 -0.000549821, 2.38656  C0.545762, 2.38819 1.08987, 2.19398 1.51166, 1.84677  C2.06011, 1.403 2.39058, 0.705493 2.38657, 1.36642e-06 " /><path d="M2.38657, 1.36642e-06 C2.38757, -0.492059 2.23086, -0.982759 1.94487, -1.38317  C1.69726, -1.73232 1.3536, -2.01232 0.961628, -2.18426  C0.515388, -2.38177 0.00787146, -2.43687 -0.470359, -2.33976  C-0.978604, -2.23882 -1.45055, -1.96619 -1.7919, -1.57634  C-2.16747, -1.15201 -2.38258, -0.590173 -2.38646, -0.0235266  C-2.3939, 0.549634 -2.18492, 1.12206 -1.80993, 1.55559  C-1.3546, 2.09144 -0.652488, 2.40484 0.0504405, 2.38603  C0.607974, 2.37587 1.15868, 2.16145 1.57629, 1.79192  C2.08682, 1.34737 2.39, 0.676949 2.38657, 1.2422e-06 " /><path d="M2.38657, 1.2422e-06 C2.38757, -0.492059 2.23086, -0.982759 1.94487, -1.38317  C1.69726, -1.73232 1.3536, -2.01232 0.961627, -2.18426  C0.515386, -2.38177 0.00786778, -2.43687 -0.470363, -2.33976  C-0.978611, -2.23882 -1.45056, -1.96619 -1.79191, -1.57634  C-2.16728, -1.15222 -2.38237, -0.590734 -2.38645, -0.0243786  C-2.39409, 0.548642 -2.18542, 1.12101 -1.81075, 1.55464  C-1.35772, 2.08827 -0.660093, 2.40177 0.0397294, 2.38623  C0.556841, 2.37884 1.06932, 2.1967 1.47512, 1.87609  C2.04481, 1.43369 2.39093, 0.721292 2.38657, 1.11798e-06 " /><path d="M2.38657, 1.11798e-06 C2.38757, -0.492059 2.23086, -0.982759 1.94487, -1.38317  C1.69726, -1.73232 1.3536, -2.01232 0.961624, -2.18426  C0.515372, -2.38178 0.00784091, -2.43688 -0.4704, -2.33975  C-0.978663, -2.2388 -1.45062, -1.96615 -1.79197, -1.57627  C-2.16593, -1.15368 -2.38085, -0.594756 -2.38638, -0.0304905  C-2.39546, 0.541448 -2.18907, 1.1133 -1.81678, 1.54758  C-1.37125, 2.07634 -0.686371, 2.39173 0.00505088, 2.38656  C0.550377, 2.3869 1.09305, 2.19213 1.5137, 1.8451  C2.06096, 1.40127 2.39056, 0.704603 2.38657, 9.93757e-07 " /><path d="M2.38657, 9.93757e-07 C2.38757, -0.492059 2.23086, -0.982759 1.94487, -1.38317  C1.69726, -1.73232 1.3536, -2.01232 0.961623, -2.18427  C0.51537, -2.38178 0.00783603, -2.43688 -0.470406, -2.33975  C-0.978673, -2.2388 -1.45064, -1.96614 -1.79198, -1.57626  C-2.16569, -1.15394 -2.38058, -0.595476 -2.38637, -0.0315857  C-2.3957, 0.540143 -2.18973, 1.11189 -1.81789, 1.54628  C-1.39165, 2.05223 -0.746693, 2.36447 -0.085457, 2.38503  C0.475404, 2.4068 1.0411, 2.22144 1.48033, 1.87198  C2.047, 1.42934 2.39088, 0.719052 2.38657, 8.69538e-07 " /><path d="M2.38657, 8.69538e-07 C2.38757, -0.492059 2.23086, -0.982759 1.94487, -1.38317  C1.69726, -1.73232 1.3536, -2.01232 0.961627, -2.18426  C0.515386, -2.38177 0.00786738, -2.43687 -0.470364, -2.33976  C-0.978612, -2.23882 -1.45056, -1.96619 -1.79191, -1.57634  C-2.16727, -1.15222 -2.38236, -0.590747 -2.38645, -0.0243989  C-2.39409, 0.548619 -2.18544, 1.12098 -1.81077, 1.55461  C-1.3578, 2.08818 -0.660287, 2.40169 0.0394555, 2.38624  C0.556452, 2.3789 1.06884, 2.19691 1.47463, 1.87648  C2.0446, 1.43409 2.39094, 0.721502 2.38657, 7.45318e-07 " /><path d="M2.38657, 7.45318e-07 C2.38746, -0.477334 2.24022, -0.953498 1.97008, -1.34703  C1.71191, -1.72593 1.34176, -2.02712 0.918273, -2.20284  C0.47355, -2.38922 -0.028238, -2.43553 -0.499562, -2.3337  C-0.998877, -2.22798 -1.461, -1.95631 -1.79621, -1.57143  C-2.18146, -1.13398 -2.39597, -0.551314 -2.38637, 0.0315165  C-2.38063, 0.577587 -2.17929, 1.11881 -1.82673, 1.53585  C-1.48767, 1.94114 -1.00998, 2.22736 -0.492691, 2.33515  C0.224822, 2.49131 1.00798, 2.28936 1.5605, 1.80569 " /></g>
<g   fill="none"
   stroke="rgb(0, 0, 0)"
   stroke-linecap="butt"
   stroke-linejoin="miter"
   stroke-width="0.35"
   transform="scale(1, -1)"
  >
<path d="M2.45873 0 A2.45873 2.45873 0 0 1 -1.73903 1.73815" /><path d="M-1.73818 -1.73899 A2.45873 2.45873 0 0 1 2.45873 -6.02216e-16" /><path d="M-1.73907, 1.7381 C-1.89163, 1.5491 -2.04778, 1.31578 -2.15976, 1.0608  C-2.3061, 0.733047 -2.38729, 0.366397 -2.38656, -0.000579956 " /><path d="M-2.38656, -0.000579956 C-2.38711, -0.367465 -2.30578, -0.733978 -2.15936, -1.0616  C-2.04723, -1.31665 -1.8909, -1.55 -1.73818, -1.73899 " /><path d="M-1.73903, 1.73815 L-1.73907, 1.7381 " /><circle cx ="0" cy ="0" r ="1.74071" /><path d="M2.69648, 1.29066e-06 C2.67762, 0.530269 2.4968, 1.05228 2.18361, 1.47742  C1.88055, 1.89194 1.45362, 2.21289 0.973056, 2.3863  C0.501513, 2.55834 -0.0197371, 2.58699 -0.504259, 2.46664  C-0.976667, 2.35105 -1.41209, 2.09446 -1.73903, 1.73815 " /><path d="M-1.73818, -1.73899 L-1.73826, -1.73894 " /><path d="M-1.73826, -1.73894 C-2.23395, -1.37747 -2.58938, -0.817804 -2.71927, -0.201208  C-2.86645, 0.474881 -2.74217, 1.21122 -2.3844, 1.82061 " /><path d="M-2.3844 1.82061 A3 3 0 0 1 -2.97339 -0.398667" /><path d="M2.69648, -8.88178e-16 C2.72419, -0.67775 2.48309, -1.36284 2.03739, -1.87911  C1.58921, -2.40558 0.936634, -2.75319 0.246625, -2.83551  C-0.47507, -2.92678 -1.22906, -2.72647 -1.81556, -2.29027  C-2.42633, -1.84303 -2.84996, -1.14899 -2.97339, -0.398667 " /><path d="M0.866025, 1.5 C0.233374, 1.5 -0.233374, 1.5 -0.866025, 1.5 " /><path d="M-0.866025, 1.5 C-1.18235, 0.952108 -1.41572, 0.547892 -1.73205, 7.38298e-14 " /><path d="M-1.73205, -7.43849e-14 C-1.41572, -0.547892 -1.18235, -0.952108 -0.866025, -1.5 " /><path d="M-0.866025, -1.5 C-0.233374, -1.5 0.233374, -1.5 0.866025, -1.5 " /><path d="M0.866025, -1.5 C1.18235, -0.952108 1.41572, -0.547892 1.73205, -7.4718e-14 " /><path d="M1.73205, 7.43849e-14 C1.41572, 0.547892 1.18235, 0.952108 0.866025, 1.5 " /><path d="M-2.3844, 1.82061 C-1.90703, 2.45119 -1.1703, 2.87674 -0.385486, 2.97513  C-0.0943841, 3.01261 0.196002, 3.00771 0.485673, 2.96043  C1.02418, 2.87286 1.53701, 2.63436 1.95097, 2.27897  C2.61071, 1.72022 3.00458, 0.864473 3, 7.44909e-11 " /><path d="M3, 7.44869e-11 C3.00342, -0.801123 2.66729, -1.59623 2.09021, -2.15198  C1.46428, -2.76669 0.558835, -3.07999 -0.313116, -2.98361  C-0.971452, -2.91617 -1.60364, -2.62223 -2.0795, -2.16233  C-2.56517, -1.69767 -2.88579, -1.06508 -2.97339, -0.398667 " /><path d="M2.99508, 0.171742 Q3, 0.0859411 3, 6.75788e-11 " /><circle cx ="0" cy ="0" r ="0.24" /><path d="M3, 6.7562e-11 C3.00342, -0.801123 2.66729, -1.59623 2.09021, -2.15198  C1.46427, -2.76669 0.558831, -3.07999 -0.313122, -2.98361  C-0.971465, -2.91616 -1.60366, -2.62222 -2.07952, -2.16231  C-2.56518, -1.69765 -2.88579, -1.06507 -2.97339, -0.398667 " /><path d="M-2.3844, 1.82061 C-1.90551, 2.45324 -1.16554, 2.87941 -0.377945, 2.9761  C-0.0942868, 3.01191 0.18874, 3.00747 0.471135, 2.96277  C1.01595, 2.87695 1.53523, 2.63667 1.95332, 2.27696  C2.61167, 1.71819 3.00456, 0.863434 3, 6.1009e-11 " /><path d="M3, 6.09668e-11 C3.00342, -0.801123 2.66729, -1.59623 2.09021, -2.15198  C1.46427, -2.76669 0.558828, -3.07999 -0.313126, -2.98361  C-0.971475, -2.91616 -1.60367, -2.62221 -2.07954, -2.16229  C-2.56519, -1.69764 -2.88579, -1.06507 -2.97339, -0.398667 " /><path d="M-2.3844, 1.82061 C-1.90907, 2.44843 -1.17669, 2.87313 -0.39563, 2.9738  C-0.10036, 3.01283 0.19423, 3.00824 0.488139, 2.96002  C1.027, 2.87193 1.54002, 2.6327 1.95385, 2.2765  C2.61189, 1.71772 3.00456, 0.863196 3, 5.47682e-11 " /><path d="M3, 5.47253e-11 C3.00342, -0.801123 2.66729, -1.59623 2.09021, -2.15198  C1.46427, -2.76669 0.558824, -3.07999 -0.31313, -2.98361  C-0.971487, -2.91616 -1.60369, -2.6222 -2.07956, -2.16228  C-2.56519, -1.69762 -2.88579, -1.06506 -2.97339, -0.398667 " /><path d="M-2.3844, 1.82061 C-1.90979, 2.44745 -1.17897, 2.87184 -0.39924, 2.97332  C-0.104692, 3.01262 0.189247, 3.00849 0.482575, 2.96093  C1.01991, 2.87413 1.53185, 2.63709 1.94566, 2.2835  C2.60852, 1.7248 3.00463, 0.866826 3, 4.88938e-11 " /><path d="M3, 4.88247e-11 C3.00342, -0.801123 2.66729, -1.59623 2.09021, -2.15198  C1.46427, -2.76669 0.558822, -3.07999 -0.313134, -2.98361  C-0.971494, -2.91616 -1.6037, -2.6222 -2.07957, -2.16227  C-2.5652, -1.69761 -2.88579, -1.06505 -2.97339, -0.398667 " /><path d="M-2.3844, 1.82061 C-1.90851, 2.44918 -1.17496, 2.87411 -0.392878, 2.97416  C-0.100857, 3.0125 0.190529, 3.00816 0.481278, 2.96114  C1.02431, 2.87368 1.54144, 2.63273 1.9577, 2.2732  C2.61348, 1.7144 3.00452, 0.861494 3, 4.32547e-11 " /><path d="M3, 4.32769e-11 C3.00342, -0.801124 2.66729, -1.59623 2.09021, -2.15198  C1.46427, -2.7667 0.558817, -3.07999 -0.313141, -2.98361  C-0.971512, -2.91615 -1.60373, -2.62218 -2.0796, -2.16224  C-2.56521, -1.69759 -2.88579, -1.06504 -2.97339, -0.398667 " /><path d="M-2.30454, 1.9207 L-2.21518, 2.02311 " /><path d="M-1.91493, 2.30934 C-1.4838, 2.66795 -0.9501, 2.90118 -0.394078, 2.974  C0.442682, 3.08911 1.32155, 2.82704 1.95864, 2.27239  C2.61386, 1.71358 3.00451, 0.861075 3, 3.80926e-11 " /><path d="M3, 3.80644e-11 C3.00342, -0.801124 2.66729, -1.59623 2.09021, -2.15198  C1.76862, -2.46483 1.37579, -2.70382 0.950117, -2.84557 " /><path d="M3, 3.31868e-11 C3.00342, -0.801124 2.66729, -1.59624 2.09021, -2.15199  C1.46426, -2.7667 0.558808, -3.08 -0.313153, -2.98361  C-0.971541, -2.91615 -1.60377, -2.62216 -2.07964, -2.16219  C-2.56523, -1.69755 -2.8858, -1.06502 -2.97339, -0.398667 " /><path d="M-2.3844, 1.82061 C-1.90988, 2.44733 -1.17924, 2.87169 -0.399667, 2.97326  C-0.108807, 3.01212 0.18154, 3.00861 0.471376, 2.96274  C1.0167, 2.87679 1.53643, 2.63609 1.95469, 2.27578  C2.61224, 1.717 3.00455, 0.862825 3, 2.87228e-11 " /><path d="M3, 2.86873e-11 C3.00342, -0.801125 2.66729, -1.59624 2.0902, -2.15199  C1.46426, -2.7667 0.558802, -3.08 -0.313161, -2.98361  C-0.971562, -2.91614 -1.6038, -2.62215 -2.07968, -2.16216  C-2.56525, -1.69752 -2.8858, -1.065 -2.97339, -0.398667 " /><path d="M-2.3844, 1.82061 C-1.90992, 2.44727 -1.17937, 2.87161 -0.399881, 2.97323  C-0.10214, 3.01301 0.194916, 3.00844 0.49129, 2.9595  C1.03056, 2.87076 1.54377, 2.63061 1.95743, 2.27343  C2.61337, 1.71463 3.00452, 0.861612 3, 2.43459e-11 " /><path d="M3, 2.44211e-11 C3.00342, -0.801125 2.66729, -1.59624 2.09021, -2.15199  C1.46426, -2.7667 0.558801, -3.08 -0.313162, -2.98361  C-0.971564, -2.91614 -1.6038, -2.62214 -2.07968, -2.16216  C-2.56525, -1.69751 -2.8858, -1.065 -2.97339, -0.398667 " /><path d="M-2.3844, 1.82061 C-1.9098, 2.44744 -1.17898, 2.87184 -0.399255, 2.97331  C-0.104781, 3.01261 0.189084, 3.00849 0.482342, 2.96097  C1.01959, 2.87422 1.53146, 2.6373 1.94526, 2.28385  C2.60835, 1.72515 3.00463, 0.867001 3, 2.0653e-11 " /><path d="M3, 2.05511e-11 C3.00342, -0.801124 2.66729, -1.59624 2.09021, -2.15199  C1.46426, -2.7667 0.558802, -3.08 -0.313161, -2.98361  C-0.971562, -2.91614 -1.6038, -2.62215 -2.07968, -2.16216  C-2.56525, -1.69752 -2.8858, -1.065 -2.97339, -0.398667 " /><path d="M-2.3844, 1.82061 C-1.91041, 2.44661 -1.18089, 2.87075 -0.402301, 2.9729  C-0.110451, 3.01216 0.1809, 3.00875 0.471751, 2.96268  C1.01785, 2.87654 1.53825, 2.6352 1.95679, 2.27398  C2.6131, 1.71518 3.00453, 0.861898 3, 1.70377e-11 " /><path d="M3, 1.70646e-11 C3.00342, -0.801125 2.66729, -1.59624 2.0902, -2.15199  C1.46426, -2.7667 0.558798, -3.08 -0.313166, -2.98361  C-0.971575, -2.91614 -1.60382, -2.62214 -2.0797, -2.16214  C-2.56526, -1.6975 -2.8858, -1.06499 -2.97339, -0.398667 " /><path d="M-2.3844, 1.82061 C-1.90687, 2.45141 -1.16979, 2.87702 -0.384682, 2.97523  C-0.0927298, 3.01274 0.198474, 3.00763 0.488928, 2.95989  C1.0279, 2.87164 1.54097, 2.63217 1.95476, 2.27572  C2.61227, 1.71694 3.00455, 0.862794 3, 1.39138e-11 " /><path d="M3, 1.38942e-11 C3.00342, -0.801125 2.66729, -1.59624 2.0902, -2.15199  C1.46426, -2.76671 0.558788, -3.08 -0.31318, -2.98361  C-0.971607, -2.91614 -1.60387, -2.62211 -2.07975, -2.16209  C-2.56528, -1.69745 -2.8858, -1.06497 -2.97339, -0.398667 " /><path d="M-2.3844, 1.82061 C-1.91007, 2.44708 -1.17982, 2.87136 -0.400593, 2.97313  C-0.101107, 3.01322 0.197659, 3.00843 0.495705, 2.95876  C1.02892, 2.87018 1.53646, 2.63361 1.94718, 2.28221  C2.60914, 1.72349 3.00462, 0.866155 3, 1.09188e-11 " /><path d="M3, 1.09379e-11 C3.00342, -0.801126 2.66729, -1.59624 2.0902, -2.15199  C1.46425, -2.76671 0.558783, -3.08 -0.313187, -2.98361  C-0.971625, -2.91613 -1.6039, -2.6221 -2.07978, -2.16207  C-2.56529, -1.69743 -2.8858, -1.06496 -2.97339, -0.398667 " /><path d="M-2.3844, 1.82061 C-1.9093, 2.44812 -1.17742, 2.87272 -0.396776, 2.97365  C-0.103341, 3.01255 0.189476, 3.00836 0.481678, 2.96108  C1.02487, 2.87352 1.54212, 2.63236 1.9584, 2.27259  C2.61377, 1.71378 3.00452, 0.861178 3, 8.33644e-12 " /></g>

</svg>
