<svg xmlns="http://www.w3.org/2000/svg" viewBox="-5.944 -5.944 13.688 11.888">
<rect width="100%" height="100%" fill="white"/>
<g   fill="none"
   stroke="rgb(0, 0, 0)"
   stroke-linecap="butt"
   stroke-linejoin="miter"
   stroke-width="0.35"
   transform="scale(1, -1)"
  >
<path d="M6.8, 0 C6.80092, 1.03245 6.56158, 2.06484 6.1066, 2.99159  C5.65318, 3.91911 4.98413, 4.74098 4.16777, 5.37305  C3.35254, 6.00658 2.39009, 6.45022 1.37896, 6.65873  C0.368171, 6.86894 -0.691307, 6.84402 -1.69109, 6.58637  C-2.69133, 6.3305 -3.63177, 5.84193 -4.41625, 5.17077  C-5.20187, 4.50093 -5.83154, 3.64851 -6.24073, 2.70061  C-6.65161, 1.75344 -6.84196, 0.7109 -6.79246, -0.320324  C-6.7447, -1.35163 -6.45708, -2.37163 -5.95889, -3.27592  C-5.4623, -4.18111 -4.75521, -4.9705 -3.91004, -5.56343  C-3.06588, -6.15778 -2.08364, -6.55568 -1.06375, -6.71628  C-0.0441597, -6.8787 1.01296, -6.8038 1.99948, -6.4994  C2.9865, -6.19666 3.90293, -5.66442 4.65492, -4.95699  C5.33011, -4.32375 5.87363, -3.55035 6.24074, -2.70061  C6.60887, -1.85131 6.80059, -0.925671 6.8, 0 " /></g>
<g   fill="none"
   stroke="rgb(0, 0, 0)"
   stroke-linecap="butt"
   stroke-linejoin="miter"
   stroke-width="0.35"
   transform="scale(1, -1)"
  >
<circle cx ="0" cy ="0" r ="5" /><path d="M-2.34996 2.87787e-16 A2.34996 2.34996 0 0 1 2.34996 -5.75574e-16" /><path d="M2.34996 0 A2.34996 2.34996 0 0 1 -2.34996 2.87787e-16" /><path d="M1.16913, 2.025 C0.315054, 2.025 -0.315054, 2.025 -1.16913, 2.025 " /><path d="M-1.16913, 2.025 C-1.59617, 1.28535 -1.91123, 0.739655 -2.33827, -5.24025e-14 " /><path d="M-2.33827, 5.15143e-14 C-1.91123, -0.739655 -1.59617, -1.28535 -1.16913, -2.025 " /><path d="M-1.16913, -2.025 C-0.315054, -2.025 0.315054, -2.025 1.16913, -2.025 " /><path d="M1.16913, -2.025 C1.59617, -1.28535 1.91123, -0.739655 2.33827, 5.19584e-14 " /><path d="M2.33827, -5.24025e-14 C1.91123, 0.739655 1.59617, 1.28535 1.16913, 2.025 " /><circle cx ="0" cy ="0" r ="0.324" /></g>

</svg>
