<svg xmlns="http://www.w3.org/2000/svg" viewBox="-7.690090400000001 -8.5909404 25.2722008 20.7447508">
<rect width="100%" height="100%" fill="white"/>
<g   fill="none"
   stroke="rgb(0, 0, 0)"
   stroke-linecap="butt"
   stroke-linejoin="miter"
   stroke-width="0.35"
   transform="scale(1, -1)"
  >
<path d="M-0.0332097, 6.84803 C-1.92514, 5.88807 -3.51062, 4.36155 -4.54668, 2.52738  C-5.56073, 0.745525 -6.05851, -1.33367 -5.94718, -3.39526 " /><path d="M5.53259, 3.26599 C5.53805, 1.55479 4.93056, -0.47792 3.88463, -2.27288  C2.84892, -4.06747 1.39325, -5.59797 -0.087715, -6.43906  C-0.900338, -6.90449 -1.71874, -7.16877 -2.47633, -7.20271  C-3.10972, -7.23212 -3.70096, -7.09936 -4.20432, -6.81022  C-4.73028, -6.50955 -5.1568, -6.04016 -5.45256, -5.44448  C-5.74923, -4.84899 -5.91716, -4.12722 -5.95054, -3.32719 " /><path d="M-0.0867689, 6.82057 C0.639044, 7.19925 1.36405, 7.4147 2.04085, 7.44713  C2.67563, 7.47846 3.26842, 7.34722 3.77329, 7.05906  C4.13282, 6.85353 4.44161, 6.57671 4.69968, 6.22862  C5.24838, 5.4901 5.53378, 4.45448 5.53259, 3.26599 " /><path id= "4" d=" M 5.36942 0.364066 L 5.48632 0.296575 " />
<path id= "5" d=" M 2.75145 -5.05265 L 2.83987 -5.1037 " />
<path id= "6" d=" M 6.10501 -0.060627 L 6.19342 -0.111673 " />
<path id= "7" d=" M 3.45856 -5.4609 L 3.54698 -5.51195 " />
<path id= "8" d=" M 6.81212 -0.468876 L 6.90053 -0.519922 " />
<path id= "9" d=" M 4.16567 -5.86915 L 4.25409 -5.9202 " />
<path id= "10" d=" M 7.51923 -0.877125 L 7.60764 -0.92817 " />
<path id= "11" d=" M 4.87278 -6.2774 L 4.96119 -6.32845 " />
<path id= "12" d=" M 8.22633 -1.28537 L 8.31474 -1.33642 " />
<path id= "13" d=" M 5.57989 -6.68565 L 5.6683 -6.7367 " />
<path id= "14" d=" M 8.93344 -1.69362 L 9.02185 -1.74467 " />
<path id= "15" d=" M 6.287 -7.0939 L 6.37541 -7.14494 " />
<path id= "16" d=" M 9.64055 -2.10187 L 9.72896 -2.15291 " />
<path id= "17" d=" M 6.9941 -7.50215 L 7.08251 -7.55319 " />
<path id= "18" d=" M 10.3477 -2.51012 L 10.4361 -2.56116 " />
<path id= "19" d=" M 7.70121 -7.9104 L 7.78962 -7.96144 " />
<path id= "20" d=" M 11.0548 -2.91837 L 11.1432 -2.96941 " />
<path id= "21" d=" M 8.40832 -8.31865 L 8.49672 -8.36969 " />
<path id= "22" d=" M 11.7619 -3.32662 L 11.8503 -3.37766 " />
<path id= "23" d=" M 9.11543 -8.7269 L 9.20383 -8.77794 " />
<path id= "24" d=" M 12.469 -3.73487 L 12.5574 -3.78591 " />
<path id= "25" d=" M 9.82254 -9.13515 L 9.91094 -9.18618 " />
<path id= "26" d=" M 13.1761 -4.14312 L 13.2645 -4.19415 " />
<path id= "27" d=" M 10.5296 -9.5434 L 10.618 -9.59443 " />
<path id= "28" d=" M 13.8832 -4.55137 L 13.9716 -4.6024 " />
<path id= "29" d=" M 11.2368 -9.95164 L 11.3252 -10.0027 " />
<path id= "30" d=" M 14.5903 -4.95962 L 14.6787 -5.01065 " />
<path id= "31" d=" M 11.9439 -10.3599 L 12.0323 -10.4109 " />
<path id= "32" d=" M 14.1421 -10.1246 L 13.9364 -10.2433 " />
</g>
<g   fill="none"
   stroke="rgb(0, 0, 0)"
   stroke-linecap="butt"
   stroke-linejoin="miter"
   stroke-width="0.35"
   transform="scale(1, -1)"
  >
<path d="M5.23259 3.43919 A7.91213 4.56807 60 0 1 -0.0332097 6.84803" />
<path d="M-5.94718 -3.39526 A7.91213 4.56807 60 0 1 5.23259 3.43919" />
<path d="M3.25262, -4.32747 C3.79005, -4.01364 4.13218, -3.58974 4.38548, -2.92387 " /><path d="M2.00043, -4.78208 C2.52115, -4.66276 2.92394, -4.51652 3.25262, -4.32747 " /><path d="M4.72489, -2.336 C4.67292, -2.39888 4.60311, -2.50358 4.53629, -2.61947  C4.4695, -2.73507 4.4139, -2.84756 4.38548, -2.92387 " /><path d="M5.37401, -0.653116 C5.37094, -1.27546 5.1749, -1.7837 4.72489, -2.336 " /><path d="M5.14162, 0.658619 C5.29864, 0.147995 5.37339, -0.273945 5.37401, -0.653116 " /><path d="M5.37401 -0.653197 A3 1.73205 60 0 1 5.07379 0.429709" />
<path d="M2.16475 -4.60888 A3 1.73205 60 0 1 3.25269 -4.32743" />
<path d="M3.25269 -4.32743 A3 1.73205 60 0 1 5.37401 -0.653197" />
<path d="M5.48892, -0.71954 C5.47468, -0.361024 5.39802, -0.0428572 5.26467, 0.206583 " /><path d="M5.20425, 0.444292 Q5.2901, 0.409849 5.36942, 0.364066 " /><path d="M5.36942, 0.364066 C5.81246, 0.112319 6.0835, -0.41504 6.10761, -1.07674 " /><path d="M5.48892, -0.71954 C5.52287, -1.4151 5.29699, -2.25477 4.89201, -2.98035  C4.64261, -3.43087 4.3286, -3.83622 3.99262, -4.14597  C3.77221, -4.34899 3.54952, -4.50776 3.32456, -4.62229  C2.90812, -4.83495 2.50867, -4.87322 2.20452, -4.73249 " /><path d="M5.48632, 0.296575 C5.91063, 0.0552748 6.16882, -0.467342 6.19603, -1.12779 " /><path d="M6.19603, -1.12779 C6.22998, -1.82335 6.00409, -2.66301 5.59911, -3.3886  C5.34971, -3.83912 5.03571, -4.24447 4.69972, -4.55422  C4.47931, -4.75724 4.25663, -4.91601 4.03165, -5.03054  C3.58156, -5.26068 3.15176, -5.28582 2.83987, -5.1037 " /><path d="M6.19342, -0.111674 C6.61774, -0.352973 6.87593, -0.875592 6.90313, -1.53604 " /><path d="M6.10761, -1.07674 C6.13647, -1.68439 5.96984, -2.40185 5.65517, -3.0573  C5.43424, -3.52053 5.14235, -3.95135 4.81888, -4.29663  C4.55256, -4.58159 4.26543, -4.80848 3.98385, -4.95835  C3.51919, -5.20764 3.07267, -5.24041 2.75145, -5.05265 " /><path d="M2.75145, -5.05265 Q2.59471, -4.96201 2.47992, -4.80856 " /><path d="M5.76783, 0.0697611 Q5.94896, 0.0293911 6.10501, -0.060627 " /><path d="M6.10501, -0.060627 C6.52932, -0.301925 6.78751, -0.824547 6.81472, -1.48499 " /><path d="M6.90313, -1.53604 C6.93709, -2.2316 6.7112, -3.07126 6.30622, -3.79685  C6.05682, -4.24737 5.74281, -4.65272 5.40683, -4.96247  C5.18642, -5.16549 4.96373, -5.32426 4.73875, -5.43879  C4.28866, -5.66893 3.85887, -5.69407 3.54698, -5.51195 " /><path d="M6.90053, -0.519922 C7.32485, -0.761221 7.58304, -1.28384 7.61024, -1.94428 " /><path d="M6.81472, -1.48499 C6.84358, -2.09264 6.67695, -2.81009 6.36228, -3.46555  C6.14136, -3.92878 5.84947, -4.35959 5.526, -4.70486  C5.25989, -4.98961 4.973, -5.21637 4.69163, -5.36624  C4.22673, -5.61585 3.77993, -5.64875 3.45856, -5.4609 " /><path d="M3.45856, -5.4609 Q3.30182, -5.37026 3.18703, -5.21681 " /><path d="M6.47494, -0.338488 Q6.65606, -0.378858 6.81212, -0.468876 " /><path d="M6.81212, -0.468876 C7.23643, -0.710175 7.49461, -1.23279 7.52183, -1.89324 " /><path d="M7.61024, -1.94428 C7.64419, -2.63984 7.41831, -3.47951 7.01332, -4.2051  C6.76393, -4.65562 6.44992, -5.06097 6.11393, -5.37071  C5.89352, -5.57374 5.67083, -5.73252 5.44585, -5.84704  C4.99576, -6.07718 4.56597, -6.10232 4.25409, -5.9202 " /><path d="M7.60764, -0.92817 C8.03195, -1.16947 8.29014, -1.69209 8.31735, -2.35253 " /><path d="M7.52183, -1.89324 C7.55069, -2.50088 7.38406, -3.21834 7.06939, -3.87379  C6.84847, -4.33702 6.55658, -4.76783 6.23312, -5.1131  C5.96722, -5.39762 5.68058, -5.62424 5.39943, -5.77412  C4.93428, -6.02407 4.4872, -6.0571 4.16567, -5.86915 " /><path d="M4.16567, -5.86915 Q4.00893, -5.77851 3.89414, -5.62506 " /><path d="M7.18204, -0.746737 Q7.36317, -0.787107 7.51923, -0.877125 " /><path d="M7.51923, -0.877125 C7.94354, -1.11842 8.20172, -1.64104 8.22893, -2.30149 " /><path d="M8.31735, -2.35253 C8.3513, -3.04809 8.12541, -3.88776 7.72043, -4.61335  C7.47103, -5.06387 7.15702, -5.46921 6.82104, -5.77896  C6.60063, -5.98199 6.37793, -6.14077 6.15295, -6.25529  C5.70286, -6.48543 5.27308, -6.51056 4.96119, -6.32845 " /><path d="M8.31474, -1.33642 C8.73906, -1.57772 8.99725, -2.10034 9.02445, -2.76078 " /><path d="M8.22893, -2.30149 C8.2578, -2.90913 8.09117, -3.62658 7.7765, -4.28203  C7.55558, -4.74526 7.2637, -5.17607 6.94024, -5.52134  C6.67455, -5.80563 6.38816, -6.03212 6.10723, -6.182  C5.64183, -6.43228 5.19446, -6.46544 4.87278, -6.2774 " /><path d="M4.87278, -6.2774 Q4.71604, -6.18676 4.60124, -6.03331 " /><path d="M7.88915, -1.15499 Q8.07028, -1.19536 8.22633, -1.28537 " /><path d="M8.22633, -1.28537 C8.65065, -1.52667 8.90883, -2.0493 8.93604, -2.70974 " /><path d="M9.02445, -2.76078 C9.05841, -3.45634 8.83252, -4.29601 8.42753, -5.0216  C8.17814, -5.47212 7.86413, -5.87746 7.52815, -6.18721  C7.30773, -6.39024 7.08503, -6.54902 6.86005, -6.66354  C6.40996, -6.89368 5.98018, -6.91881 5.6683, -6.7367 " /><path d="M9.02185, -1.74467 C9.44617, -1.98597 9.70436, -2.50858 9.73156, -3.16903 " /><path d="M8.93604, -2.70974 C8.96491, -3.31738 8.79828, -4.03483 8.48361, -4.69028  C8.2627, -5.1535 7.97082, -5.58431 7.64736, -5.92958  C7.38188, -6.21364 7.09574, -6.44 6.81501, -6.58989  C6.34938, -6.84049 5.90173, -6.87379 5.57989, -6.68565 " /><path d="M5.57989, -6.68565 Q5.42314, -6.59501 5.30835, -6.44156 " /><path d="M8.59626, -1.56323 Q8.77739, -1.6036 8.93344, -1.69362 " /><path d="M8.93344, -1.69362 C9.35776, -1.93492 9.61594, -2.45754 9.64315, -3.11799 " /><path d="M9.73156, -3.16903 C9.76551, -3.86459 9.53962, -4.70426 9.13464, -5.42985  C8.88524, -5.88037 8.57123, -6.28571 8.23525, -6.59546  C8.01483, -6.79849 7.79213, -6.95727 7.56715, -7.0718  C7.11706, -7.30193 6.68729, -7.32706 6.37541, -7.14494 " /><path d="M9.72896, -2.15291 C10.1533, -2.39421 10.4115, -2.91683 10.4387, -3.57728 " /><path d="M9.64315, -3.11799 C9.67201, -3.72563 9.50539, -4.44307 9.19072, -5.09852  C8.96981, -5.56174 8.67793, -5.99254 8.35448, -6.33781  C8.08922, -6.62165 7.80332, -6.84788 7.52282, -6.99777  C7.05693, -7.2487 6.609, -7.28213 6.287, -7.0939 " /><path d="M9.64055, -2.10187 C10.0649, -2.34317 10.323, -2.86579 10.3503, -3.52624 " /><path d="M10.4387, -3.57728 C10.4726, -4.27284 10.2467, -5.11251 9.84175, -5.8381  C9.59235, -6.28862 9.27834, -6.69396 8.94236, -7.00371  C8.72194, -7.20674 8.49923, -7.36552 8.27425, -7.48005  C7.82417, -7.71017 7.39439, -7.7353 7.08251, -7.55319 " /><path d="M10.4361, -2.56116 C10.8604, -2.80246 11.1186, -3.32508 11.1458, -3.98553 " /><path d="M10.3503, -3.52624 C10.3791, -4.13387 10.2125, -4.85132 9.89784, -5.50676  C9.67692, -5.96998 9.38505, -6.40078 9.0616, -6.74605  C8.79657, -7.02965 8.51093, -7.25573 8.23065, -7.40562  C7.76451, -7.65691 7.31627, -7.69048 6.9941, -7.50215 " /><path d="M10.3477, -2.51012 C10.772, -2.75142 11.0302, -3.27404 11.0574, -3.93448 " /><path d="M11.1458, -3.98553 C11.1797, -4.68109 10.9538, -5.52076 10.5489, -6.24635  C10.2995, -6.69687 9.98545, -7.10221 9.64946, -7.41196  C9.42904, -7.615 9.20633, -7.77378 8.98134, -7.88831  C8.53126, -8.11842 8.10149, -8.14355 7.78962, -7.96144 " /><path d="M11.1432, -2.96941 C11.5675, -3.21071 11.8257, -3.73333 11.8529, -4.39377 " /><path d="M11.0574, -3.93448 C11.0862, -4.54212 10.9196, -5.25956 10.6049, -5.91501  C10.384, -6.37822 10.0922, -6.80902 9.76872, -7.15429  C9.50391, -7.43765 9.21853, -7.6636 8.93848, -7.81349  C8.47208, -8.06512 8.02354, -8.09883 7.70121, -7.9104 " /><path d="M7.70121, -7.9104 Q7.54447, -7.81976 7.42967, -7.6663 " /><path d="M10.7176, -2.78798 Q10.8987, -2.82835 11.0548, -2.91837 " /><path d="M11.0548, -2.91837 C11.4791, -3.15967 11.7373, -3.68229 11.7645, -4.34273 " /><path d="M11.8529, -4.39377 C11.8868, -5.08934 11.6609, -5.92901 11.256, -6.6546  C11.0066, -7.10512 10.6926, -7.51046 10.3566, -7.82021  C10.1361, -8.02325 9.91343, -8.18203 9.68843, -8.29656  C9.23836, -8.52667 8.8086, -8.5518 8.49673, -8.36969 " /><path d="M11.8503, -3.37766 C12.2746, -3.61896 12.5328, -4.14158 12.56, -4.80202 " /><path d="M11.7645, -4.34273 C11.7933, -4.95037 11.6267, -5.66781 11.3121, -6.32325  C11.0912, -6.78646 10.7993, -7.21726 10.4758, -7.56252  C10.2113, -7.84564 9.92614, -8.07145 9.64632, -8.22135  C9.17966, -8.47333 8.73082, -8.50718 8.40832, -8.31865 " /><path d="M8.40832, -8.31865 Q8.25158, -8.22801 8.13678, -8.07455 " /><path d="M11.4247, -3.19623 Q11.6058, -3.2366 11.7619, -3.32662 " /><path d="M11.7619, -3.32662 C12.1862, -3.56792 12.4444, -4.09054 12.4716, -4.75098 " /><path d="M12.56, -4.80202 C12.5939, -5.49758 12.368, -6.33726 11.9631, -7.06285  C11.7137, -7.51337 11.3997, -7.91871 11.0637, -8.22846  C10.8432, -8.4315 10.6205, -8.59028 10.3955, -8.70481  C9.94547, -8.93492 9.5157, -8.96004 9.20383, -8.77794 " /><path d="M12.5574, -3.78591 C12.9817, -4.02721 13.2399, -4.54982 13.2671, -5.21027 " /><path d="M12.4716, -4.75098 C12.5004, -5.35861 12.3338, -6.07605 12.0192, -6.73149  C11.7983, -7.1947 11.5064, -7.62549 11.183, -7.97076  C10.9186, -8.25362 10.6338, -8.47929 10.3542, -8.62918  C9.88727, -8.88153 9.43811, -8.91554 9.11543, -8.7269 " /><path d="M9.11543, -8.7269 Q8.95868, -8.63625 8.84389, -8.4828 " /><path d="M12.1318, -3.60448 Q12.3129, -3.64485 12.469, -3.73487 " /><path d="M12.469, -3.73487 C12.8933, -3.97617 13.1515, -4.49879 13.1787, -5.15923 " /><path d="M13.2671, -5.21027 C13.301, -5.90583 13.0752, -6.7455 12.6702, -7.47109  C12.4208, -7.92161 12.1068, -8.32696 11.7708, -8.6367  C11.5504, -8.83974 11.3276, -8.99853 11.1027, -9.11305  C10.6526, -9.34317 10.2228, -9.36829 9.91094, -9.18618 " /><path d="M13.2645, -4.19415 C13.6888, -4.43545 13.947, -4.95807 13.9742, -5.61852 " /><path d="M13.1787, -5.15923 C13.2076, -5.76686 13.0409, -6.4843 12.7263, -7.13974  C12.5054, -7.60294 12.2135, -8.03373 11.8901, -8.379  C11.626, -8.6616 11.3414, -8.88711 11.0621, -9.03701  C10.5949, -9.28974 10.1454, -9.3239 9.82254, -9.13515 " /><path d="M9.82254, -9.13515 Q9.66579, -9.0445 9.551, -8.89105 " /><path d="M12.8389, -4.01273 Q13.02, -4.0531 13.1761, -4.14312 " /><path d="M13.1761, -4.14312 C13.6004, -4.38442 13.8586, -4.90704 13.8858, -5.56748 " /><path d="M13.9742, -5.61852 C14.0082, -6.31408 13.7823, -7.15375 13.3773, -7.87934  C13.1279, -8.32986 12.8139, -8.73521 12.4779, -9.04495  C12.2575, -9.248 12.0347, -9.40678 11.8098, -9.52131  C11.3597, -9.75142 10.9299, -9.77654 10.618, -9.59443 " /><path d="M13.9716, -4.6024 C14.3959, -4.8437 14.6541, -5.36632 14.6813, -6.02677 " /><path d="M13.8858, -5.56748 C13.9147, -6.17511 13.748, -6.89254 13.4334, -7.54798  C13.2125, -8.01118 12.9206, -8.44197 12.5972, -8.78724  C12.3294, -9.07378 12.0406, -9.3016 11.7576, -9.45148  C11.2945, -9.69862 10.8498, -9.73053 10.5296, -9.5434 " /><path d="M10.5296, -9.5434 Q10.3729, -9.45275 10.2581, -9.2993 " /><path d="M13.546, -4.42098 Q13.7271, -4.46135 13.8832, -4.55137 " /><path d="M13.8832, -4.55137 C14.3075, -4.79267 14.5657, -5.31529 14.5929, -5.97573 " /><path d="M14.6813, -6.02677 C14.7153, -6.72233 14.4894, -7.562 14.0844, -8.2876  C13.835, -8.73811 13.521, -9.14346 13.185, -9.4532  C12.9645, -9.65625 12.7418, -9.81504 12.5168, -9.92957  C12.0668, -10.1597 11.637, -10.1848 11.3252, -10.0027 " /><path d="M14.6787, -5.01065 C15.103, -5.25195 15.3612, -5.77457 15.3884, -6.43501 " /><path d="M14.5929, -5.97573 C14.6218, -6.58336 14.4552, -7.30079 14.1405, -7.95622  C13.9196, -8.41942 13.6278, -8.85021 13.3043, -9.19547  C13.0369, -9.48169 12.7484, -9.70932 12.4656, -9.8592  C12.0022, -10.1068 11.5572, -10.1389 11.2368, -9.95164 " /><path d="M11.2368, -9.95164 Q11.08, -9.861 10.9652, -9.70754 " /><path d="M14.2531, -4.82923 Q14.4343, -4.8696 14.5903, -4.95962 " /><path d="M14.5903, -4.95962 C15.0146, -5.20092 15.2728, -5.72354 15.3, -6.38398 " /><path d="M15.3884, -6.43501 C15.4224, -7.13058 15.1965, -7.97025 14.7915, -8.69585  C14.5421, -9.14636 14.2281, -9.55171 13.8921, -9.86145  C13.6717, -10.0645 13.4489, -10.2233 13.2239, -10.3378  C12.7739, -10.5679 12.3441, -10.593 12.0323, -10.4109 " /><path d="M15.3, -6.38398 C15.3289, -6.9916 15.1623, -7.70903 14.8476, -8.36446  C14.6267, -8.82766 14.3349, -9.25844 14.0114, -9.60371  C13.7443, -9.88955 13.4563, -10.117 13.1739, -10.2669  C12.7101, -10.515 12.2645, -10.5473 11.9439, -10.3599 " /><path d="M11.9439, -10.3599 Q11.7871, -10.2693 11.6723, -10.1158 " /><path d="M15.8392, -6.81821 C15.8432, -6.0645 15.5316, -5.48952 15.0171, -5.30383 " /><path id= "94" d=" M 15.8392 -6.81821 L 15.8392 -7.18517 " />
<path d="M15.8392, -6.81821 C15.8443, -7.59791 15.5032, -8.55024 14.9692, -9.27312  C14.662, -9.69397 14.2971, -10.0359 13.9364, -10.2433 " /><path d="M13.9364, -10.2433 C13.5808, -10.4494 13.2309, -10.5237 12.9472, -10.4544 " /><path d="M14.1421 -10.1246 A2.4 1.38564 60 0 1 15.8392 -7.18517" />
</g>

</svg>
