<svg xmlns="http://www.w3.org/2000/svg" viewBox="-5.791199199999999 -9.8225892 27.7016584 19.6451784">
<rect width="100%" height="100%" fill="white"/>
<g   fill="none"
   stroke="rgb(0, 0, 0)"
   stroke-linecap="butt"
   stroke-linejoin="miter"
   stroke-width="0.35"
   transform="scale(1, -1)"
  >
<path d="M-0.512132, -7.91213 C-1.43696, -7.044 -2.20507, -6.00909 -2.7682, -4.87251  C-3.33225, -3.73638 -3.69131, -2.49859 -3.82276, -1.23697  C-3.8614, -0.867451 -3.88072, -0.496921 -3.88074, -0.125384 " /><path d="M-3.88074, 0.125386 C-3.88074, 0.130325 -3.88074, 0.0018356 -3.88074, -0.0747047  C-3.88074, -0.107499 -3.88074, -0.124392 -3.88074, -0.125384 " /><path d="M-3.88074, 0.125386 C-3.88074, 0.130349 -3.88074, 0.00132894 -3.88074, -0.0751199  C-3.88074, -0.107655 -3.88074, -0.124409 -3.88074, -0.125384 " /><path d="M-0.512132, -7.91213 C-0.43139, -7.99478 -0.301053, -8.02273 -0.19352, -7.98047  C-0.0827576, -7.93997 -0.00305558, -7.82885 -0.0002, -7.71095 " /><path id= "5" d=" M 4.6 -3 L 4.5999 -3.0001 " />
<path id= "6" d=" M 4.6 -3 L 5.2625 -3 " />
<path d="M5.30939, 2.44528 Q5.30287, 2.43289 5.28444, 2.41658  Q5.24936, 2.38769 5.20003, 2.3866 " /><path d="M5.62361, 2.98739 L5.30939, 2.44528 " /><path id= "9" d=" M 6.13747 -3 L 6.2625 -3 " />
<path d="M5.0928, 2.44346 L4.77709, 2.98742 " /><path d="M5.5928, -2.44345 L5.27709, -2.98742 " /><path d="M5.80726, -2.44346 Q5.80147, -2.43224 5.78337, -2.41614  Q5.75966, -2.39639 5.72641, -2.38923  Q5.71321, -2.38791 5.70002, -2.3866  Q5.65357, -2.38753 5.61968, -2.41374  Q5.59918, -2.43099 5.5928, -2.44345 " /><path d="M6.30726, 2.44346 Q6.30147, 2.43224 6.28337, 2.41614  Q6.24894, 2.38774 6.20002, 2.3866 " /><path d="M5.20003, 2.3866 Q5.15358, 2.38753 5.11968, 2.41374  Q5.09918, 2.431 5.0928, 2.44346 " /><path d="M6.12288, -2.98741 L5.80726, -2.44346 " /><path d="M6.62288, 2.98741 L6.30726, 2.44346 " /><path id= "17" d=" M 7.13747 -3 L 7.2625 -3 " />
<path d="M6.0928, 2.44346 L5.77709, 2.98742 " /><path d="M6.5928, -2.44345 L6.27709, -2.98742 " /><path d="M6.80726, -2.44346 Q6.80147, -2.43224 6.78337, -2.41614  Q6.75966, -2.39638 6.72641, -2.38922  Q6.71321, -2.38791 6.70001, -2.38659  Q6.65356, -2.38753 6.61968, -2.41374  Q6.59918, -2.43099 6.5928, -2.44345 " /><path d="M7.30726, 2.44346 Q7.30147, 2.43224 7.28337, 2.41614  Q7.24894, 2.38774 7.20002, 2.3866 " /><path d="M6.20002, 2.3866 Q6.15357, 2.38753 6.11968, 2.41374  Q6.09918, 2.43099 6.0928, 2.44346 " /><path d="M7.12288, -2.98741 L6.80726, -2.44346 " /><path d="M7.62288, 2.98741 L7.30726, 2.44346 " /><path id= "25" d=" M 8.13747 -3 L 8.2625 -3 " />
<path d="M7.09279, 2.44346 L6.77709, 2.98742 " /><path d="M7.5928, -2.44345 L7.27709, -2.98742 " /><path d="M7.80726, -2.44345 Q7.80147, -2.43224 7.78337, -2.41614  Q7.75965, -2.39638 7.7264, -2.38922  Q7.71321, -2.38791 7.70001, -2.38659  Q7.65356, -2.38753 7.61967, -2.41374  Q7.59917, -2.43099 7.5928, -2.44345 " /><path d="M8.30726, 2.44346 Q8.30147, 2.43224 8.28337, 2.41614  Q8.24894, 2.38774 8.20002, 2.3866 " /><path d="M7.20002, 2.3866 Q7.15357, 2.38753 7.11968, 2.41374  Q7.09918, 2.43099 7.09279, 2.44346 " /><path d="M8.12289, -2.98741 L7.80726, -2.44345 " /><path d="M8.62288, 2.98741 L8.30726, 2.44346 " /><path id= "33" d=" M 9.13747 -3 L 9.2625 -3 " />
<path d="M8.09279, 2.44345 L7.77709, 2.98741 " /><path d="M8.59279, -2.44345 L8.27708, -2.98742 " /><path d="M8.80725, -2.44345 Q8.80147, -2.43223 8.78337, -2.41613  Q8.75965, -2.39638 8.7264, -2.38922  Q8.71321, -2.3879 8.70001, -2.38659  Q8.65356, -2.38753 8.61967, -2.41374  Q8.59917, -2.43099 8.59279, -2.44345 " /><path d="M9.30725, 2.44346 Q9.30146, 2.43224 9.28337, 2.41614  Q9.24894, 2.38774 9.20002, 2.38659 " /><path d="M8.20002, 2.3866 Q8.15357, 2.38753 8.11968, 2.41374  Q8.09917, 2.43099 8.09279, 2.44345 " /><path d="M9.12289, -2.98741 L8.80725, -2.44345 " /><path d="M9.62288, 2.98741 L9.30725, 2.44346 " /><path id= "41" d=" M 10.1375 -3 L 10.2625 -3 " />
<path d="M9.09279, 2.44345 L8.77709, 2.98741 " /><path d="M9.59279, -2.44344 L9.27708, -2.98742 " /><path d="M9.80725, -2.44345 Q9.80146, -2.43223 9.78337, -2.41613  Q9.75965, -2.39638 9.7264, -2.38922  Q9.7132, -2.3879 9.70001, -2.38659  Q9.65356, -2.38752 9.61967, -2.41374  Q9.59917, -2.43099 9.59279, -2.44344 " /><path d="M10.3073, 2.44345 Q10.3015, 2.43223 10.2834, 2.41613  Q10.2489, 2.38773 10.2, 2.38659 " /><path d="M9.20002, 2.38659 Q9.15357, 2.38752 9.11968, 2.41374  Q9.09917, 2.43099 9.09279, 2.44345 " /><path d="M10.1229, -2.98741 L9.80725, -2.44345 " /><path d="M10.6229, 2.98741 L10.3073, 2.44345 " /><path id= "49" d=" M 11.1375 -3 L 11.2625 -3 " />
<path d="M10.0928, 2.44345 L9.77709, 2.98741 " /><path d="M10.5928, -2.44344 L10.2771, -2.98742 " /><path d="M10.8073, -2.44345 Q10.8015, -2.43223 10.7834, -2.41613  Q10.7596, -2.39637 10.7264, -2.38921  Q10.7132, -2.3879 10.7, -2.38658  Q10.6536, -2.38752 10.6197, -2.41373  Q10.5992, -2.43098 10.5928, -2.44344 " /><path d="M11.3072, 2.44345 Q11.3015, 2.43223 11.2834, 2.41613  Q11.2489, 2.38773 11.2, 2.38659 " /><path d="M10.2, 2.38659 Q10.1536, 2.38752 10.1197, 2.41373  Q10.0992, 2.43099 10.0928, 2.44345 " /><path d="M11.1229, -2.98741 L10.8073, -2.44345 " /><path d="M11.6229, 2.98741 L11.3072, 2.44345 " /><path id= "57" d=" M 12.1375 -3 L 12.2625 -3 " />
<path d="M11.0928, 2.44345 L10.7771, 2.98741 " /><path d="M11.5928, -2.44344 L11.2771, -2.98742 " /><path d="M11.8072, -2.44344 Q11.8015, -2.43222 11.7834, -2.41612  Q11.7596, -2.39637 11.7264, -2.38921  Q11.7132, -2.3879 11.7, -2.38658  Q11.6536, -2.38752 11.6197, -2.41373  Q11.5992, -2.43098 11.5928, -2.44344 " /><path d="M12.3072, 2.44345 Q12.3015, 2.43223 12.2834, 2.41613  Q12.2489, 2.38773 12.2, 2.38659 " /><path d="M11.2, 2.38659 Q11.1536, 2.38752 11.1197, 2.41373  Q11.0992, 2.43098 11.0928, 2.44345 " /><path d="M12.1229, -2.98741 L11.8072, -2.44344 " /><path d="M12.6229, 2.98741 L12.3072, 2.44345 " /><path id= "65" d=" M 13.1375 -3 L 13.2625 -3 " />
<path d="M12.0928, 2.44345 L11.7771, 2.98741 " /><path d="M12.5928, -2.44344 L12.2771, -2.98742 " /><path d="M12.8072, -2.44344 Q12.8015, -2.43222 12.7834, -2.41612  Q12.7596, -2.39637 12.7264, -2.38921  Q12.7132, -2.38789 12.7, -2.38658  Q12.6535, -2.38752 12.6197, -2.41373  Q12.5992, -2.43098 12.5928, -2.44344 " /><path d="M13.3072, 2.44345 Q13.3015, 2.43222 13.2834, 2.41613  Q13.2489, 2.38773 13.2, 2.38658 " /><path d="M12.2, 2.38659 Q12.1536, 2.38752 12.1197, 2.41373  Q12.0992, 2.43098 12.0928, 2.44345 " /><path d="M13.1229, -2.98741 L12.8072, -2.44344 " /><path d="M13.6229, 2.98741 L13.3072, 2.44345 " /><path id= "73" d=" M 14.1375 -3 L 14.2625 -3 " />
<path d="M13.0928, 2.44344 L12.7771, 2.98741 " /><path d="M13.5928, -2.44344 L13.2771, -2.98742 " /><path d="M13.8072, -2.44344 Q13.8015, -2.43222 13.7834, -2.41612  Q13.7596, -2.39637 13.7264, -2.38921  Q13.7132, -2.38789 13.7, -2.38658  Q13.6535, -2.38752 13.6197, -2.41373  Q13.5992, -2.43098 13.5928, -2.44344 " /><path d="M14.3072, 2.44344 Q14.3015, 2.43222 14.2834, 2.41612  Q14.2489, 2.38773 14.2, 2.38658 " /><path d="M13.2, 2.38658 Q13.1536, 2.38752 13.1197, 2.41373  Q13.0992, 2.43098 13.0928, 2.44344 " /><path d="M14.1229, -2.98741 L13.8072, -2.44344 " /><path d="M14.6229, 2.98741 L14.3072, 2.44344 " /><path id= "81" d=" M 15.1375 -3 L 15.2625 -3 " />
<path d="M14.0928, 2.44344 L13.7771, 2.98741 " /><path d="M14.5928, -2.44343 L14.2771, -2.98742 " /><path d="M14.8072, -2.44344 Q14.8015, -2.43222 14.7834, -2.41612  Q14.7596, -2.39636 14.7264, -2.3892  Q14.7132, -2.38789 14.7, -2.38658  Q14.6535, -2.38751 14.6197, -2.41373  Q14.5992, -2.43098 14.5928, -2.44343 " /><path d="M15.3072, 2.44344 Q15.3015, 2.43222 15.2834, 2.41612  Q15.2489, 2.38772 15.2, 2.38658 " /><path d="M14.2, 2.38658 Q14.1536, 2.38751 14.1197, 2.41372  Q14.0992, 2.43098 14.0928, 2.44344 " /><path d="M15.1229, -2.98741 L14.8072, -2.44344 " /><path d="M15.6229, 2.98741 L15.3072, 2.44344 " /><path id= "89" d=" M 16.1375 -3 L 16.2625 -3 " />
<path d="M15.0928, 2.44344 L14.7771, 2.98741 " /><path d="M15.5928, -2.44343 L15.2771, -2.98742 " /><path d="M15.8072, -2.44343 Q15.8015, -2.43221 15.7834, -2.41611  Q15.7596, -2.39636 15.7264, -2.3892  Q15.7132, -2.38789 15.7, -2.38657  Q15.6535, -2.38751 15.6197, -2.41372  Q15.5992, -2.43097 15.5928, -2.44343 " /><path d="M16.3072, 2.44344 Q16.3015, 2.43222 16.2834, 2.41612  Q16.2489, 2.38772 16.2, 2.38658 " /><path d="M15.2, 2.38658 Q15.1536, 2.38751 15.1197, 2.41372  Q15.0992, 2.43098 15.0928, 2.44344 " /><path d="M16.1229, -2.98741 L15.8072, -2.44343 " /><path d="M16.6229, 2.98741 L16.3072, 2.44344 " /><path id= "97" d=" M 17.1375 -3 L 17.2625 -3 " />
<path d="M16.0928, 2.44344 L15.7771, 2.98741 " /><path d="M16.5928, -2.44343 L16.2771, -2.98742 " /><path d="M16.8072, -2.44343 Q16.8015, -2.43221 16.7834, -2.41611  Q16.7596, -2.39636 16.7264, -2.3892  Q16.7132, -2.38789 16.7, -2.38657  Q16.6535, -2.38751 16.6197, -2.41372  Q16.5992, -2.43097 16.5928, -2.44343 " /><path d="M17.3072, 2.44344 Q17.3014, 2.43221 17.2833, 2.41611  Q17.2489, 2.38772 17.2, 2.38657 " /><path d="M16.2, 2.38658 Q16.1536, 2.38751 16.1197, 2.41372  Q16.0992, 2.43097 16.0928, 2.44344 " /><path d="M17.1229, -2.98741 L16.8072, -2.44343 " /><path d="M17.6229, 2.98741 L17.3072, 2.44344 " /><path id= "105" d=" M 18.1375 -3 L 18.2625 -3 " />
<path d="M17.0928, 2.44343 L16.7771, 2.98741 " /><path d="M17.5928, -2.44343 L17.2771, -2.98741 " /><path d="M17.8072, -2.44343 Q17.8014, -2.43221 17.7833, -2.41611  Q17.7596, -2.39636 17.7264, -2.3892  Q17.7132, -2.38788 17.7, -2.38657  Q17.6535, -2.38751 17.6197, -2.41372  Q17.5992, -2.43097 17.5928, -2.44343 " /><path d="M18.3072, 2.44343 Q18.3014, 2.43221 18.2833, 2.41611  Q18.2489, 2.38772 18.2, 2.38657 " /><path d="M17.2, 2.38657 Q17.1536, 2.38751 17.1197, 2.41372  Q17.0992, 2.43097 17.0928, 2.44343 " /><path d="M18.1229, -2.98741 L17.8072, -2.44343 " /><path d="M18.6229, 2.98741 L18.3072, 2.44343 " /><path id= "113" d=" M 19.1375 -3 L 19.2625 -3 " />
<path d="M18.0928, 2.44343 L17.7771, 2.98741 " /><path d="M18.5928, -2.44343 L18.2771, -2.98741 " /><path d="M18.8072, -2.44343 Q18.8014, -2.43221 18.7833, -2.41611  Q18.7596, -2.39635 18.7264, -2.3892  Q18.7132, -2.38788 18.7, -2.38657  Q18.6535, -2.3875 18.6196, -2.41372  Q18.5992, -2.43097 18.5928, -2.44343 " /><path d="M19.3072, 2.44343 Q19.3014, 2.43221 19.2833, 2.41611  Q19.2489, 2.38771 19.2, 2.38657 " /><path d="M18.2, 2.38657 Q18.1536, 2.3875 18.1197, 2.41372  Q18.0992, 2.43097 18.0928, 2.44343 " /><path d="M19.1229, -2.98741 L18.8072, -2.44343 " /><path d="M19.3072, 2.44343 L19.5409, 2.84593 " /><path d="M19.0928, 2.44343 L18.7771, 2.98741 " /><path d="M19.5928, -2.44342 L19.2771, -2.98741 " /><path d="M19.8072, -2.44342 Q19.8014, -2.4322 19.7833, -2.4161  Q19.7596, -2.39635 19.7264, -2.38919  Q19.7132, -2.38788 19.7, -2.38656  Q19.6535, -2.3875 19.6196, -2.41372  Q19.5991, -2.43097 19.5928, -2.44342 " /><path d="M19.2, 2.38657 Q19.1535, 2.3875 19.1197, 2.41371  Q19.0992, 2.43097 19.0928, 2.44343 " /><path d="M19.8567, -2.52853 L19.8072, -2.44342 " /><path id= "126" d=" M 20 -2.4 L 19.8676 -2.53244 " />
</g>
<g   fill="none"
   stroke="rgb(0, 0, 0)"
   stroke-linecap="butt"
   stroke-linejoin="miter"
   stroke-width="0.35"
   transform="scale(1, -1)"
  >
<path d="M-3.88 -1.04028e-13 A10.6841 10.6841 0 0 0 -0.512132 7.91213" /><path d="M-0.512132, -7.91213 L-0.512132, -7.71376  L-0.512132, -7.12858  L-0.512132, -6.18595  L-0.512132, -4.93313  L-0.512132, -3.43295  L-0.512132, -1.76062  L-0.512132, -1.55431e-15  L-0.512132, 1.76062  L-0.512132, 3.43295  L-0.512132, 4.93313  L-0.512132, 6.18595  L-0.512132, 7.12858  L-0.512132, 7.71376  L-0.512132, 7.91213 " /><path d="M-0.512132 7.91213 A0.3 0.3 0 0 0 -0.0002 7.71095" /><path d="M-0.0002, 7.71095 L-0.0002, 7.51762  L-0.0002, 6.94733  L-0.0002, 6.02867  L-0.0002, 4.8077  L-0.0002, 3.34566  L-0.0002, 1.71585  L-0.0002, 4.44089e-16  L-0.0002, -1.71585  L-0.0002, -3.34566  L-0.0002, -4.8077  L-0.0002, -6.02867  L-0.0002, -6.94733  L-0.0002, -7.51762  L-0.0002, -7.71095 " /><path id= "5" d=" M 3.6819 -3.0001 L -0.0002 -3.0001 " />
<path d="M3.6819, -3.0001 C3.60719, -3.00132 3.55531, -2.95447 3.55604, -2.85924  C3.5555, -2.76532 3.60733, -2.63487 3.6819, -2.5201 " /><path d="M4.5999, -3.0001 L4.59544, -3.0001  L4.58203, -3.0001  L4.55965, -3.0001  L4.52822, -3.0001  L4.48764, -3.0001  L4.43781, -3.0001  L4.37856, -3.0001  L4.30974, -3.0001  L4.23111, -3.0001  L4.14247, -3.0001  L4.04354, -3.0001  L3.93402, -3.0001  L3.81359, -3.0001  L3.6819, -3.0001 " /><path d="M3.6819, -3.0001 L3.81359, -3.0001  L3.93402, -3.0001  L4.04354, -3.0001  L4.14247, -3.0001  L4.23111, -3.0001  L4.30973, -3.0001  L4.37856, -3.0001  L4.43781, -3.0001  L4.48764, -3.0001  L4.52822, -3.0001  L4.55965, -3.0001  L4.58203, -3.0001  L4.59544, -3.0001  L4.5999, -3.0001 " /><path d="M4.5999, 0 L4.59544, 0.163716  L4.58203, 0.327919  L4.55965, 0.493098  L4.52822, 0.659744  L4.48764, 0.828353  L4.43781, 0.999427  L4.37856, 1.17348  L4.30974, 1.35102  L4.23111, 1.53258  L4.14247, 1.7187  L4.04354, 1.90993  L3.93402, 2.10685  L3.81359, 2.31004  L3.6819, 2.5201 " /><path d="M3.6819, -2.5201 L3.81359, -2.31004  L3.93402, -2.10685  L4.04354, -1.90993  L4.14247, -1.7187  L4.23111, -1.53258  L4.30974, -1.35102  L4.37856, -1.17348  L4.43781, -0.999427  L4.48764, -0.828353  L4.52822, -0.659744  L4.55965, -0.493098  L4.58203, -0.327919  L4.59544, -0.163716  L4.5999, 0 " /><path d="M3.6819, 3.0001 C3.60719, 3.00132 3.55531, 2.95447 3.55604, 2.85924  C3.5555, 2.76532 3.60733, 2.63487 3.6819, 2.5201 " /><path id= "12" d=" M 3.6819 3.0001 L -0.0002 3.0001 " />
<path d="M4.5999, 3.0001 L4.59544, 3.0001  L4.58203, 3.0001  L4.55965, 3.0001  L4.52822, 3.0001  L4.48764, 3.0001  L4.43781, 3.0001  L4.37856, 3.0001  L4.30974, 3.0001  L4.23111, 3.0001  L4.14247, 3.0001  L4.04354, 3.0001  L3.93402, 3.0001  L3.81359, 3.0001  L3.6819, 3.0001 " /><path d="M3.6819, 3.0001 L3.81359, 3.0001  L3.93402, 3.0001  L4.04354, 3.0001  L4.14247, 3.0001  L4.23111, 3.0001  L4.30974, 3.0001  L4.37856, 3.0001  L4.43781, 3.0001  L4.48764, 3.0001  L4.52822, 3.0001  L4.55965, 3.0001  L4.58203, 3.0001  L4.59544, 3.0001  L4.5999, 3.0001 " /><path id= "15" d=" M 4.5999 3.0001 L 4.6 3 " />
<path d="M4.6, -3 L4.6, -2.92478  L4.6, -2.70291  L4.6, -2.34549  L4.6, -1.87047  L4.6, -1.30165  L4.6, -0.667563  L4.6, -5.55112e-16  L4.6, 0.667563  L4.6, 1.30165  L4.6, 1.87047  L4.6, 2.34549  L4.6, 2.70291  L4.6, 2.92478  L4.6, 3 " /><path d="M5.62361, 2.98739 Q5.6309, 3 5.63746, 3 " /><path id= "18" d=" M 5.63746 3 L 5.76251 3 " />
<path d="M4.76251, 3 Q4.7698, 3 4.77709, 2.98742 " /><path d="M4.77709, 2.98742 C4.81629, 2.92225 4.85548, 2.57137 4.89467, 2.02367  C4.93977, 1.39787 4.98487, 0.517701 5.02996, -0.328327  C5.06559, -0.996555 5.10122, -1.63648 5.13684, -2.11246  C5.17873, -2.67618 5.22062, -3.00325 5.2625, -3 " /><path d="M5.2625, -3 Q5.26979, -3 5.27709, -2.98742 " /><path id= "22" d=" M 4.6 3 L 4.76251 3 " />
<path id= "23" d=" M 6.63747 3 L 6.76251 3 " />
<path d="M5.76251, 3 Q5.7698, 3 5.77709, 2.98742 " /><path d="M5.77709, 2.98742 C5.81629, 2.92225 5.85548, 2.57137 5.89467, 2.02367  C5.93977, 1.39786 5.98487, 0.517693 6.02996, -0.328338  C6.06557, -0.996331 6.10119, -1.63604 6.13681, -2.11197  C6.17871, -2.67598 6.2206, -3.00325 6.2625, -3 " /><path d="M6.2625, -3 Q6.26979, -3 6.27709, -2.98742 " /><path d="M5.63746, 3 C5.67595, 3.00234 5.71443, 2.7282 5.75292, 2.2447  C5.80251, 1.62749 5.85209, 0.665347 5.90168, -0.267664  C5.93595, -0.911583 5.97022, -1.53403 6.00449, -2.0124  C6.04395, -2.56644 6.08342, -2.92184 6.12288, -2.98741 " /><path d="M6.12288, -2.98741 Q6.13017, -3 6.13747, -3 " /><path d="M6.62288, 2.98741 Q6.63017, 3 6.63747, 3 " /><path id= "30" d=" M 7.63747 3 L 7.7625 3 " />
<path d="M6.76251, 3 Q6.7698, 3 6.77709, 2.98742 " /><path d="M6.77709, 2.98742 C6.81629, 2.92225 6.85548, 2.57137 6.89467, 2.02367  C6.93977, 1.39786 6.98487, 0.517685 7.02996, -0.328349  C7.06556, -0.996116 7.10117, -1.63562 7.13677, -2.1115  C7.17868, -2.6758 7.22059, -3.00326 7.2625, -3 " /><path d="M7.2625, -3 Q7.26979, -3 7.27709, -2.98742 " /><path d="M6.63747, 3 C6.67595, 3.00234 6.71444, 2.7282 6.75292, 2.2447  C6.80249, 1.62771 6.85206, 0.666042 6.90163, -0.266665  C6.93585, -0.909715 6.97007, -1.53144 7.0043, -2.00968  C7.04382, -2.56525 7.08336, -2.92174 7.12288, -2.98741 " /><path d="M7.12288, -2.98741 Q7.13018, -3 7.13747, -3 " /><path d="M7.62288, 2.98741 Q7.63017, 3 7.63747, 3 " /><path id= "37" d=" M 8.63747 3 L 8.7625 3 " />
<path d="M7.7625, 3 Q7.7698, 3 7.77709, 2.98741 " /><path d="M7.77709, 2.98741 C7.81629, 2.92225 7.85548, 2.57137 7.89467, 2.02367  C7.93977, 1.39786 7.98487, 0.517676 8.02996, -0.328361  C8.06555, -0.995859 8.10114, -1.63512 8.13673, -2.11093  C8.17865, -2.67557 8.22058, -3.00326 8.2625, -3 " /><path d="M8.2625, -3 Q8.26979, -3 8.27708, -2.98742 " /><path d="M7.63747, 3 C7.67595, 3.00234 7.71444, 2.7282 7.75292, 2.24471  C7.80247, 1.62794 7.85203, 0.66676 7.90158, -0.265632  C7.93625, -0.917225 7.97093, -1.54689 8.0056, -2.02783  C8.04469, -2.57317 8.08379, -2.92239 8.12289, -2.98741 " /><path d="M8.12289, -2.98741 Q8.13018, -3 8.13747, -3 " /><path d="M8.62288, 2.98741 Q8.63018, 3 8.63747, 3 " /><path id= "44" d=" M 9.63747 3 L 9.7625 3 " />
<path d="M8.7625, 3 Q8.7698, 3 8.77709, 2.98741 " /><path d="M8.77709, 2.98741 C8.81629, 2.92225 8.85547, 2.57137 8.89467, 2.02366  C8.93977, 1.39785 8.98487, 0.51767 9.02996, -0.32837  C9.06554, -0.995669 9.10112, -1.63475 9.1367, -2.11051  C9.17863, -2.6754 9.22057, -3.00326 9.2625, -3 " /><path d="M9.2625, -3 Q9.26979, -3 9.27708, -2.98742 " /><path d="M8.63747, 3 C8.67595, 3.00234 8.71444, 2.7282 8.75292, 2.24471  C8.80246, 1.62817 8.85199, 0.667475 8.90153, -0.264603  C8.93606, -0.913541 8.97059, -1.54084 9.00512, -2.02114  C9.04438, -2.57026 9.08364, -2.92215 9.12289, -2.98741 " /><path d="M9.12289, -2.98741 Q9.13018, -3 9.13747, -3 " /><path d="M9.62288, 2.98741 Q9.63018, 3 9.63747, 3 " /><path id= "51" d=" M 10.6375 3 L 10.7625 3 " />
<path d="M9.7625, 3 Q9.7698, 3 9.77709, 2.98741 " /><path d="M9.77709, 2.98741 C9.81629, 2.92225 9.85547, 2.57137 9.89467, 2.02366  C9.93977, 1.39785 9.98487, 0.517664 10.03, -0.328377  C10.0655, -0.995518 10.1011, -1.63446 10.1367, -2.11018  C10.1786, -2.67527 10.2206, -3.00327 10.2625, -3 " /><path d="M10.2625, -3 Q10.2698, -3 10.2771, -2.98742 " /><path d="M9.63747, 3 C9.67595, 3.00234 9.71444, 2.72821 9.75292, 2.24472  C9.80244, 1.6284 9.85196, 0.668179 9.90148, -0.26359  C9.93571, -0.906869 9.96994, -1.52903 10.0042, -2.00777  C10.0437, -2.56441 10.0833, -2.92168 10.1229, -2.98741 " /><path d="M10.1229, -2.98741 Q10.1302, -3 10.1375, -3 " /><path d="M10.6229, 2.98741 Q10.6302, 3 10.6375, 3 " /><path id= "58" d=" M 11.6375 3 L 11.7625 3 " />
<path d="M10.7625, 3 Q10.7698, 3 10.7771, 2.98741 " /><path d="M10.7771, 2.98741 C10.8163, 2.92225 10.8555, 2.57137 10.8947, 2.02366  C10.9398, 1.39785 10.9849, 0.517651 11.03, -0.328396  C11.0655, -0.995111 11.1011, -1.63367 11.1366, -2.10929  C11.1786, -2.67491 11.2205, -3.00327 11.2625, -3 " /><path d="M11.2625, -3 Q11.2698, -3 11.2771, -2.98742 " /><path d="M10.6375, 3 C10.676, 3.00234 10.7144, 2.72821 10.7529, 2.24472  C10.8024, 1.62863 10.8519, 0.668898 10.9014, -0.262554  C10.936, -0.912674 10.9706, -1.54122 11.0052, -2.02216  C11.0444, -2.5707 11.0837, -2.92219 11.1229, -2.98741 " /><path d="M11.1229, -2.98741 Q11.1302, -3 11.1375, -3 " /><path d="M11.6229, 2.98741 Q11.6302, 3 11.6375, 3 " /><path id= "65" d=" M 12.6375 3 L 12.7625 3 " />
<path d="M11.7625, 3 Q11.7698, 3 11.7771, 2.98741 " /><path d="M11.7771, 2.98741 C11.8163, 2.92225 11.8555, 2.57136 11.8947, 2.02366  C11.9398, 1.39784 11.9849, 0.517644 12.03, -0.328405  C12.0655, -0.994902 12.101, -1.63326 12.1366, -2.10883  C12.1785, -2.67473 12.2205, -3.00328 12.2625, -3 " /><path d="M12.2625, -3 Q12.2698, -3 12.2771, -2.98742 " /><path d="M11.6375, 3 C11.676, 3.00234 11.7144, 2.72821 11.7529, 2.24473  C11.8024, 1.62887 11.8519, 0.669655 11.9014, -0.261464  C11.936, -0.912947 11.9707, -1.54283 12.0054, -2.02432  C12.0445, -2.57165 12.0837, -2.92226 12.1229, -2.98741 " /><path d="M12.1229, -2.98741 Q12.1302, -3 12.1375, -3 " /><path d="M12.6229, 2.98741 Q12.6302, 3 12.6375, 3 " /><path id= "72" d=" M 13.6375 3 L 13.7625 3 " />
<path d="M12.7625, 3 Q12.7698, 3 12.7771, 2.98741 " /><path d="M12.7771, 2.98741 C12.8163, 2.92225 12.8555, 2.57136 12.8947, 2.02366  C12.9398, 1.39784 12.9849, 0.517629 13.03, -0.328425  C13.0655, -0.994428 13.101, -1.63234 13.1365, -2.10779  C13.1785, -2.67431 13.2205, -3.00328 13.2625, -3 " /><path d="M13.2625, -3 Q13.2698, -3 13.2771, -2.98742 " /><path d="M12.6375, 3 C12.676, 3.00234 12.7144, 2.72821 12.7529, 2.24473  C12.8024, 1.62911 12.8519, 0.670399 12.9013, -0.260393  C12.9361, -0.914645 12.9709, -1.54716 13.0057, -2.02961  C13.0448, -2.57395 13.0838, -2.92245 13.1229, -2.98741 " /><path d="M13.1229, -2.98741 Q13.1302, -3 13.1375, -3 " /><path d="M13.6229, 2.98741 Q13.6302, 3 13.6375, 3 " /><path id= "79" d=" M 14.6375 3 L 14.7625 3 " />
<path d="M13.7625, 3 Q13.7698, 3 13.7771, 2.98741 " /><path d="M13.7771, 2.98741 C13.8163, 2.92225 13.8555, 2.57136 13.8947, 2.02366  C13.9398, 1.39783 13.9849, 0.517612 14.03, -0.328448  C14.0654, -0.993848 14.1009, -1.63121 14.1364, -2.10652  C14.1784, -2.67381 14.2205, -3.00329 14.2625, -3 " /><path d="M14.2625, -3 Q14.2698, -3 14.2771, -2.98742 " /><path d="M13.6375, 3 C13.676, 3.00234 13.7144, 2.72821 13.7529, 2.24473  C13.8024, 1.62935 13.8518, 0.671155 13.9013, -0.259303  C13.9358, -0.908861 13.9704, -1.53713 14.0049, -2.01837  C14.0443, -2.56905 14.0836, -2.92205 14.1229, -2.98741 " /><path d="M14.1229, -2.98741 Q14.1302, -3 14.1375, -3 " /><path d="M14.6229, 2.98741 Q14.6302, 3 14.6375, 3 " /><path id= "86" d=" M 15.6375 3 L 15.7625 3 " />
<path d="M14.7625, 3 Q14.7698, 3 14.7771, 2.98741 " /><path d="M14.7771, 2.98741 C14.8163, 2.92224 14.8555, 2.57136 14.8947, 2.02366  C14.9398, 1.39783 14.9849, 0.517615 15.03, -0.328445  C15.0654, -0.993935 15.1009, -1.63138 15.1364, -2.10671  C15.1784, -2.67388 15.2205, -3.00329 15.2625, -3 " /><path d="M15.2625, -3 Q15.2698, -3 15.2771, -2.98742 " /><path d="M14.6375, 3 C14.676, 3.00234 14.7145, 2.72821 14.7529, 2.24474  C14.8024, 1.62961 14.8518, 0.671952 14.9012, -0.258155  C14.9356, -0.903968 14.9699, -1.52887 15.0043, -2.00914  C15.0438, -2.56502 15.0834, -2.92173 15.1229, -2.98741 " /><path d="M15.1229, -2.98741 Q15.1302, -3 15.1375, -3 " /><path d="M15.6229, 2.98741 Q15.6302, 3 15.6375, 3 " /><path id= "93" d=" M 16.6375 3 L 16.7625 3 " />
<path d="M15.7625, 3 Q15.7698, 3 15.7771, 2.98741 " /><path d="M15.7771, 2.98741 C15.8163, 2.92224 15.8555, 2.57136 15.8947, 2.02366  C15.9398, 1.39783 15.9849, 0.51762 16.03, -0.328437  C16.0655, -0.994122 16.1009, -1.63174 16.1364, -2.10712  C16.1785, -2.67405 16.2205, -3.00329 16.2625, -3 " /><path d="M16.2625, -3 Q16.2698, -3 16.2771, -2.98741 " /><path d="M15.6375, 3 C15.676, 3.00234 15.7145, 2.72822 15.7529, 2.24474  C15.8023, 1.62987 15.8517, 0.672766 15.9011, -0.25698  C15.936, -0.912381 15.9709, -1.54621 16.0057, -2.02948  C16.0448, -2.5739 16.0839, -2.92245 16.1229, -2.98741 " /><path d="M16.1229, -2.98741 Q16.1302, -3 16.1375, -3 " /><path d="M16.6229, 2.98741 Q16.6302, 3 16.6375, 3 " /><path id= "100" d=" M 17.6375 3 L 17.7625 3 " />
<path d="M16.7625, 3 Q16.7698, 3 16.7771, 2.98741 " /><path d="M16.7771, 2.98741 C16.8163, 2.92224 16.8555, 2.57136 16.8947, 2.02366  C16.9398, 1.39783 16.9849, 0.517612 17.03, -0.328449  C17.0654, -0.99384 17.1009, -1.6312 17.1364, -2.1065  C17.1784, -2.6738 17.2205, -3.00329 17.2625, -3 " /><path d="M17.2625, -3 Q17.2698, -3 17.2771, -2.98741 " /><path d="M16.6375, 3 C16.676, 3.00234 16.7145, 2.72822 16.7529, 2.24475  C16.8026, 1.62607 16.8524, 0.66072 16.9021, -0.274374  C16.9362, -0.915565 16.9703, -1.53501 17.0045, -2.01161  C17.0439, -2.5661 17.0834, -2.92182 17.1229, -2.98741 " /><path d="M17.1229, -2.98741 Q17.1302, -3 17.1375, -3 " /><path d="M17.6229, 2.98741 Q17.6302, 3 17.6375, 3 " /><path id= "107" d=" M 18.6375 3 L 18.7625 3 " />
<path d="M17.7625, 3 Q17.7698, 3 17.7771, 2.98741 " /><path d="M17.7771, 2.98741 C17.8163, 2.92224 17.8555, 2.57136 17.8947, 2.02365  C17.9398, 1.39781 17.9849, 0.517579 18.03, -0.328493  C18.0654, -0.992601 18.1008, -1.6288 18.1362, -2.10379  C18.1783, -2.67272 18.2204, -3.00331 18.2625, -3 " /><path d="M18.2625, -3 Q18.2698, -3 18.2771, -2.98741 " /><path d="M17.6375, 3 C17.676, 3.00234 17.7145, 2.72822 17.7529, 2.24475  C17.8026, 1.62639 17.8523, 0.661742 17.902, -0.272904  C17.9366, -0.922879 17.9712, -1.55051 18.0058, -2.02994  C18.0448, -2.5741 18.0839, -2.92247 18.1229, -2.98741 " /><path d="M18.1229, -2.98741 Q18.1302, -3 18.1375, -3 " /><path d="M18.6229, 2.98741 Q18.6302, 3 18.6375, 3 " /><path d="M18.7625, 3 Q18.7698, 3 18.7771, 2.98741 " /><path d="M18.7771, 2.98741 C18.8163, 2.92224 18.8555, 2.57136 18.8947, 2.02365  C18.9398, 1.39781 18.9849, 0.517565 19.03, -0.328513  C19.0653, -0.99201 19.1007, -1.62765 19.1361, -2.10249  C19.1782, -2.6722 19.2204, -3.00332 19.2625, -3 " /><path d="M19.2625, -3 Q19.2698, -3 19.2771, -2.98741 " /><path d="M18.6375, 3 C18.676, 3.00234 18.7145, 2.72822 18.7529, 2.24476  C18.8026, 1.62677 18.8522, 0.662917 18.9019, -0.271213  C18.9364, -0.920238 18.971, -1.54712 19.0055, -2.02651  C19.0447, -2.57261 19.0838, -2.92235 19.1229, -2.98741 " /><path d="M19.1229, -2.98741 Q19.1302, -3 19.1375, -3 " /><path d="M19.5506, 2.84943 Q19.5457, 2.85429 19.5409, 2.84593 " /><path id= "120" d=" M 19.5506 2.84943 L 20 2.4 " />
<path d="M19.5506, 2.84943 C19.5672, 2.83069 19.584, 2.70027 19.6009, 2.4582  C19.6332, 2.00613 19.6659, 1.15782 19.6991, 0.266429  C19.731, -0.587782 19.7633, -1.45471 19.7961, -1.97755  C19.8161, -2.29923 19.8363, -2.49437 19.8567, -2.52853 " /><path d="M19.8567, -2.52853 Q19.8621, -2.5379 19.8676, -2.53244 " /><path d="M20, -2.4 L20, -2.33983  L20, -2.16233  L20, -1.8764  L20, -1.49638  L20, -1.04132  L20, -0.53405  L20, -4.44089e-16  L20, 0.53405  L20, 1.04132  L20, 1.49638  L20, 1.8764  L20, 2.16233  L20, 2.33983  L20, 2.4 " /></g>

</svg>
