<svg xmlns="http://www.w3.org/2000/svg" viewBox="-9.1851004 -9.1851004 18.4580708 18.3702008">
<rect width="100%" height="100%" fill="white"/>
<g   fill="none"
   stroke="rgb(0, 0, 0)"
   stroke-linecap="butt"
   stroke-linejoin="miter"
   stroke-width="0.35"
   transform="scale(1, -1)"
  >
<path d="M8, 0 C8.00108, -1.21465 7.7195, -2.42922 7.18423, -3.51952  C6.6508, -4.61071 5.86368, -5.57763 4.90326, -6.32124  C4.04318, -6.98926 3.04447, -7.47849 1.98952, -7.74867  C0.934898, -8.02014 -0.175967, -8.07255 -1.25148, -7.90151  C-2.28582, -7.73828 -3.28746, -7.36873 -4.17999, -6.82113  C-5.07311, -6.27449 -5.85711, -5.54979 -6.47214, -4.70228  C-7.18696, -3.72025 -7.67307, -2.57213 -7.88089, -1.37544  C-8.09072, -0.179096 -8.02226, 1.06581 -7.68235, 2.23193  C-7.34451, 3.39865 -6.73526, 4.48644 -5.91706, 5.38411  C-5.10037, 6.28315 -4.07474, 6.99208 -2.945, 7.43821  C-1.81604, 7.88636 -0.583103, 8.07167 0.627674, 7.97535  C1.83861, 7.88108 3.02738, 7.50517 4.07233, 6.88594  C5.26291, 6.18397 6.26583, 5.165 6.94908, 3.96368  C7.6353, 2.76407 8.00184, 1.38211 8, 0 " /></g>
<g   fill="none"
   stroke="rgb(0, 0, 0)"
   stroke-linecap="butt"
   stroke-linejoin="miter"
   stroke-width="0.35"
   transform="scale(1, -1)"
  >
<circle cx ="0" cy ="0" r ="7.91213" /></g>

</svg>
