<svg xmlns="http://www.w3.org/2000/svg" viewBox="-2.2381135199999997 -3.5764295199999996 18.94453304 14.97374904">
<rect width="100%" height="100%" fill="white"/>
<g   fill="none"
   stroke="rgb(0, 0, 0)"
   stroke-linecap="butt"
   stroke-linejoin="miter"
   stroke-width="0.35"
   transform="scale(1, -1)"
  >
<path id= "1" d=" M 2.06841 2.26991 L 14.1572 -4.70957 " />
<path id= "2" d=" M -0.931594 -2.92625 L 11.1572 -9.90572 " />
<path id= "3" d=" M 15.2034 -6.15148 L 14.5308 -5.07716 " />
<path id= "4" d=" M 12.929 -10.0908 L 12.4064 -10.0721 " />
</g>
<g   fill="none"
   stroke="rgb(0, 0, 0)"
   stroke-linecap="butt"
   stroke-linejoin="miter"
   stroke-width="0.35"
   transform="scale(1, -1)"
  >
<path d="M2.67631 1.16385 A5.82613 4.68475 -136.983 0 1 2.1536 0.797863" />
<path d="M2.67631 1.16385 A3 1.73205 60 0 1 2.06841 2.26991" />
<path d="M2.06841 2.26991 A3 1.73205 60 0 1 -0.279287 1.42783" />
<path d="M-0.498055 1.0347 A5.82613 3.64409 115.47 0 0 -0.279287 1.42783" />
<path d="M-0.691808 0.914646 A5.82613 1.627 -18.1326 0 0 -0.498055 1.0347" />
<path d="M-0.691808 0.914646 A3 1.73205 60 0 1 -0.931594 -2.92625" />
<path d="M-0.931594 -2.92625 A3 1.73205 60 0 1 -0.691808 -3.02616" />
<path d="M-0.498055 -2.50084 A5.82613 4.47013 -152.228 0 1 -0.691808 -3.02616" />
<path d="M-0.279287 -3.063 A5.82613 3.05775 124.152 0 0 -0.498055 -2.50084" />
<path d="M-0.279287 -3.063 A3 1.73205 60 0 1 2.67631 0.613818" />
<path d="M2.1536 0.797863 A5.82613 0.826047 -24.1872 0 0 2.67631 0.613818" />
<path d="M14.7651, -5.81563 Q15.0598, -6.34998 15.2785, -6.77982 " /><path id= "13" d=" M 2.67631 1.16385 L 14.7651 -5.81563 " />
<path d="M14.7651 -5.81563 A3 1.73205 60 0 1 14.5308 -5.07716" />
<path d="M14.5308 -5.07716 A3 1.73205 60 0 1 14.1572 -4.70957" />
<path d="M11.1572 -9.90572 A3 1.73205 60 0 1 11.397 -10.0056" />
<path id= "17" d=" M -0.691808 -3.02616 L 11.397 -10.0056 " />
<path d="M11.7918, -10.0322 Q11.601, -10.02 11.397, -10.0056 " /><path d="M11.8095, -10.0425 Q12.1343, -10.0623 12.4064, -10.0721 " /><path id= "20" d=" M -0.279287 -3.063 L 11.8095 -10.0425 " />
<path d="M11.8095 -10.0425 A3 1.73205 60 0 1 14.7651 -6.36566" />
<path id= "22" d=" M 2.67631 0.613818 L 14.7651 -6.36566 " />
<path d="M15.2785, -6.77982 Q15.0598, -6.60003 14.7651, -6.36566 " /><path d="M15.3999 -6.94892 A2.37868 1.37333 60 0 1 15.2034 -6.15148" />
<path d="M12.929 -10.0908 A2.37868 1.37333 60 0 1 15.3999 -6.94892" />
</g>

</svg>
