<svg xmlns="http://www.w3.org/2000/svg" viewBox="-1.5519999999999998 -4.53303 22.503999999999998 9.08503">
<rect width="100%" height="100%" fill="white"/>
<g   fill="none"
   stroke="rgb(0, 0, 0)"
   stroke-linecap="butt"
   stroke-linejoin="miter"
   stroke-width="0.35"
   transform="scale(1, -1)"
  >
<path d="M0 7.26924e-16 A6 6 0 0 1 0.803848 -3" /><path id= "2" d=" M 0.803848 -3 L 17.9 -3 " />
<path id= "3" d=" M 19.4 -2.37868 L 17.9 -3 " />
<path d="M19.4 -2.37868 A5.09 5.09 0 0 1 19.99 1.20744e-14" /></g>
<g   fill="none"
   stroke="rgb(0, 0, 0)"
   stroke-linecap="butt"
   stroke-linejoin="miter"
   stroke-width="0.35"
   transform="scale(1, -1)"
  >
<path d="M0.803848, -3 L0.803848, -2.99332  L0.803848, -2.9733  L0.803848, -2.94003  L0.803848, -2.89366  L0.803848, -2.8344  L0.803848, -2.76251  L0.803848, -2.67831  L0.803848, -2.58217  L0.803848, -2.47453  L0.803848, -2.35587  L0.803848, -2.22671  L0.803848, -2.08762  L0.803848, -1.93924  L0.803848, -1.78221 " /><path d="M0.545644 -1.25 A5.82613 5.28027 0 0 1 0.803848 -1.78221" />
<path d="M0.803848 -1.19882 A5.82613 0.507781 180 0 1 0.545644 -1.25" />
<path d="M0.803848, -1.19882 Q0.803848, -1.01043 0.803848, -0.822032  Q0.803848, -0.43276 0.803848, -0.0315224  Q0.803848, 0.369964 0.803848, 0.761222  Q0.803848, 0.950994 0.803848, 1.14077  Q0.803848, 1.32038 0.803848, 1.5  Q0.803848, 1.66627 0.803848, 1.83253  Q0.803848, 1.98248 0.803848, 2.13244  Q0.803848, 2.26341 0.803848, 2.39438  Q0.803848, 2.50404 0.803848, 2.61369  Q0.803848, 2.70009 0.803848, 2.78648  Q0.803848, 2.84807 0.803848, 2.90966  Q0.803848, 2.94534 0.803848, 2.98103 " /><path d="M0.545644 2.5 A5.82613 4.77249 0 0 0 0.803848 2.98103" />
<path d="M0 0 A6 6 0 0 0 0.545644 2.5" /><path id= "7" d=" M 0.803848 2.98103 L 17.9 2.98103 " />
<path d="M17.9, -3 L17.9, -2.99332  L17.9, -2.9733  L17.9, -2.94003  L17.9, -2.89366  L17.9, -2.8344  L17.9, -2.76251  L17.9, -2.67831  L17.9, -2.58217  L17.9, -2.47453  L17.9, -2.35587  L17.9, -2.22671  L17.9, -2.08762  L17.9, -1.93924  L17.9, -1.78221 " /><path id= "9" d=" M 0.803848 -1.78221 L 17.9 -1.78221 " />
<path id= "10" d=" M 0.545644 -1.25 L 19.1071 -1.25 " />
<path d="M19.1071, -1.25 Q18.5791, -1.49195 17.9, -1.78221 " /><path d="M17.9, -1.19882 Q18.5791, -1.22673 19.1071, -1.25 " /><path id= "13" d=" M 0.803848 -1.19882 L 17.9 -1.19882 " />
<path d="M17.9, -1.19882 Q17.9, -1.01043 17.9, -0.822032  Q17.9, -0.43276 17.9, -0.0315224  Q17.9, 0.369964 17.9, 0.761222  Q17.9, 0.950994 17.9, 1.14077  Q17.9, 1.32038 17.9, 1.5  Q17.9, 1.66627 17.9, 1.83253  Q17.9, 1.98248 17.9, 2.13244  Q17.9, 2.26341 17.9, 2.39438  Q17.9, 2.50404 17.9, 2.61369  Q17.9, 2.70009 17.9, 2.78648  Q17.9, 2.84807 17.9, 2.90966  Q17.9, 2.94534 17.9, 2.98103 " /><path id= "15" d=" M 0.803848 2.98103 L 17.9 2.98103 " />
<path d="M19.1071, 2.5 Q18.5791, 2.71868 17.9, 2.98103 " /><path id= "17" d=" M 19.1071 2.5 L 19.4 2.37868 " />
<path d="M19.4, -2.37868 L19.4, -2.31904  L19.4, -2.14312  L19.4, -1.85973  L19.4, -1.48308  L19.4, -1.03207  L19.4, -0.529306  L19.4, -4.44089e-16  L19.4, 0.529306  L19.4, 1.03207  L19.4, 1.48308  L19.4, 1.85973  L19.4, 2.14312  L19.4, 2.31904  L19.4, 2.37868 " /><path d="M19.4 2.37868 A5.09 5.09 0 0 0 19.99 8.5208e-16" /></g>

</svg>
