<svg xmlns="http://www.w3.org/2000/svg" viewBox="-2.195274 -2.826304 5.5893679999999994 5.989427999999999">
<rect width="100%" height="100%" fill="white"/>
<g   fill="none"
   stroke="rgb(0, 0, 0)"
   stroke-linecap="butt"
   stroke-linejoin="miter"
   stroke-width="0.35"
   transform="scale(1, -1)"
  >
<path d="M2.98103, 0.336822 Q2.74632, 0.172473 2.5, 1.24345e-13 " /><path d="M2.98103 0.336822 A3 3 0 0 1 -1.19882 2.75006" /><path d="M-1.25, 2.16506 Q-1.22379, 2.46462 -1.19882, 2.75006 " /><path d="M-1.78221, 2.41324 Q-1.52252, 2.29214 -1.25, 2.16506 " /><path d="M-1.78221 2.41324 A3 3 0 0 1 -1.78221 -2.41324" /><path d="M-1.25, -2.16506 Q-1.52252, -2.29214 -1.78221, -2.41324 " /><path d="M-1.19882, -2.75006 Q-1.22379, -2.46462 -1.25, -2.16506 " /><path d="M-1.19882 -2.75006 A3 3 0 0 1 2.98103 -0.336822" /><path d="M2.5, -1.23901e-13 Q2.74632, -0.172473 2.98103, -0.336822 " /></g>

</svg>
