<svg xmlns="http://www.w3.org/2000/svg" viewBox="-1.6 -4.6 23.2 9.2">
<rect width="100%" height="100%" fill="white"/>
<g   fill="none"
   stroke="rgb(0, 0, 0)"
   stroke-linecap="butt"
   stroke-linejoin="miter"
   stroke-width="0.35"
   transform="scale(1, -1)"
  >
<path d="M1.92289, 2.98741 L1.60727, 2.44343 " /><path d="M1.89281, -2.44342 L1.6, -2.94786 " /><path d="M1.60727, 2.44343 L1.6, 2.43292 " /><path d="M2.10727, -2.44342 Q2.10148, -2.43221 2.08338, -2.41611  Q2.05967, -2.39635 2.02642, -2.38919  Q2.01322, -2.38788 2.00002, -2.38656  Q1.95357, -2.3875 1.91969, -2.41371  Q1.89919, -2.43096 1.89281, -2.44342 " /><path d="M2.60727, 2.44343 Q2.60148, 2.43221 2.58338, 2.41611  Q2.54896, 2.38771 2.50004, 2.38657 " /><path d="M2.4229, -2.98741 L2.10727, -2.44342 " /><path d="M2.92289, 2.98741 L2.60727, 2.44343 " /><path id= "8" d=" M 2.43748 -3 L 2.56248 -3 " />
<path d="M2.39281, 2.44342 L2.07707, 2.98742 " /><path d="M2.89281, -2.44342 L2.57706, -2.98742 " /><path d="M3.10727, -2.44342 Q3.10148, -2.43221 3.08338, -2.41611  Q3.05966, -2.39635 3.02642, -2.38919  Q3.01322, -2.38788 3.00002, -2.38656  Q2.95357, -2.3875 2.91968, -2.41371  Q2.89918, -2.43096 2.89281, -2.44342 " /><path d="M3.60727, 2.44343 Q3.60148, 2.43221 3.58338, 2.41611  Q3.54895, 2.38771 3.50003, 2.38657 " /><path d="M2.50004, 2.38657 Q2.45359, 2.3875 2.41969, 2.4137  Q2.39919, 2.43096 2.39281, 2.44342 " /><path d="M3.4229, -2.98741 L3.10727, -2.44342 " /><path d="M3.92289, 2.98741 L3.60727, 2.44343 " /><path id= "16" d=" M 3.43748 -3 L 3.56248 -3 " />
<path d="M3.3928, 2.44342 L3.07707, 2.98741 " /><path d="M3.8928, -2.44342 L3.57706, -2.98742 " /><path d="M4.10726, -2.44342 Q4.10148, -2.43221 4.08338, -2.41611  Q4.05966, -2.39635 4.02641, -2.38919  Q4.01322, -2.38788 4.00002, -2.38656  Q3.95357, -2.3875 3.91968, -2.41371  Q3.89918, -2.43096 3.8928, -2.44342 " /><path d="M4.60726, 2.44343 Q4.60148, 2.43221 4.58338, 2.41611  Q4.54895, 2.38771 4.50003, 2.38657 " /><path d="M3.50003, 2.38657 Q3.45358, 2.3875 3.41969, 2.4137  Q3.39919, 2.43096 3.3928, 2.44342 " /><path d="M4.4229, -2.98741 L4.10726, -2.44342 " /><path d="M4.92289, 2.98741 L4.60726, 2.44343 " /><path id= "24" d=" M 4.43749 -3 L 4.56248 -3 " />
<path d="M4.3928, 2.44342 L4.07707, 2.98741 " /><path d="M4.8928, -2.44342 L4.57706, -2.98742 " /><path d="M5.10726, -2.44342 Q5.10148, -2.43221 5.08338, -2.41611  Q5.05966, -2.39635 5.02641, -2.38919  Q5.01321, -2.38788 5.00002, -2.38656  Q4.95357, -2.3875 4.91968, -2.41371  Q4.89918, -2.43096 4.8928, -2.44342 " /><path d="M5.60726, 2.44343 Q5.60147, 2.43221 5.58337, 2.41611  Q5.54895, 2.38771 5.50003, 2.38657 " /><path d="M4.50003, 2.38657 Q4.45358, 2.3875 4.41969, 2.4137  Q4.39918, 2.43096 4.3928, 2.44342 " /><path d="M5.4229, -2.98741 L5.10726, -2.44342 " /><path d="M5.9229, 2.98741 L5.60726, 2.44343 " /><path id= "32" d=" M 5.43749 -3 L 5.56248 -3 " />
<path d="M5.3928, 2.44342 L5.07707, 2.98741 " /><path d="M5.8928, -2.44342 L5.57706, -2.98742 " /><path d="M6.10726, -2.44342 Q6.10147, -2.4322 6.08337, -2.4161  Q6.05966, -2.39635 6.02641, -2.38919  Q6.01321, -2.38788 6.00002, -2.38656  Q5.95356, -2.3875 5.91968, -2.41371  Q5.89918, -2.43096 5.8928, -2.44342 " /><path d="M6.60726, 2.44343 Q6.60147, 2.43221 6.58337, 2.41611  Q6.54895, 2.38771 6.50003, 2.38657 " /><path d="M5.50003, 2.38657 Q5.45358, 2.3875 5.41969, 2.4137  Q5.39918, 2.43096 5.3928, 2.44342 " /><path d="M6.4229, -2.98741 L6.10726, -2.44342 " /><path d="M6.9229, 2.98741 L6.60726, 2.44343 " /><path id= "40" d=" M 6.43749 -3 L 6.56248 -3 " />
<path d="M6.3928, 2.44342 L6.07707, 2.98741 " /><path d="M6.8928, -2.44342 L6.57707, -2.98742 " /><path d="M7.10726, -2.44342 Q7.10147, -2.4322 7.08337, -2.4161  Q7.05966, -2.39635 7.02641, -2.38919  Q7.01321, -2.38788 7.00001, -2.38656  Q6.95356, -2.3875 6.91968, -2.41371  Q6.89918, -2.43096 6.8928, -2.44342 " /><path d="M7.60726, 2.44343 Q7.60147, 2.43221 7.58337, 2.41611  Q7.54894, 2.38771 7.50003, 2.38657 " /><path d="M6.50003, 2.38657 Q6.45358, 2.3875 6.41969, 2.4137  Q6.39918, 2.43096 6.3928, 2.44342 " /><path d="M7.4229, -2.98741 L7.10726, -2.44342 " /><path d="M7.9229, 2.98741 L7.60726, 2.44343 " /><path id= "48" d=" M 7.43749 -3 L 7.56249 -3 " />
<path d="M7.3928, 2.44342 L7.07707, 2.98741 " /><path d="M7.8928, -2.44342 L7.57707, -2.98742 " /><path d="M8.10726, -2.44342 Q8.10147, -2.4322 8.08337, -2.4161  Q8.05965, -2.39635 8.0264, -2.38919  Q8.01321, -2.38788 8.00001, -2.38656  Q7.95356, -2.3875 7.91967, -2.41371  Q7.89917, -2.43096 7.8928, -2.44342 " /><path d="M8.60726, 2.44343 Q8.60147, 2.43221 8.58337, 2.41611  Q8.54894, 2.38771 8.50002, 2.38657 " /><path d="M7.50003, 2.38657 Q7.45358, 2.3875 7.41968, 2.41371  Q7.39918, 2.43096 7.3928, 2.44342 " /><path d="M8.4229, -2.98741 L8.10726, -2.44342 " /><path d="M8.9229, 2.98741 L8.60726, 2.44343 " /><path id= "56" d=" M 8.43749 -3 L 8.56249 -3 " />
<path d="M8.39279, 2.44342 L8.07707, 2.98741 " /><path d="M8.89279, -2.44342 L8.57707, -2.98742 " /><path d="M9.10725, -2.44342 Q9.10147, -2.4322 9.08337, -2.4161  Q9.05965, -2.39635 9.0264, -2.38919  Q9.01321, -2.38788 9.00001, -2.38656  Q8.95356, -2.3875 8.91967, -2.41371  Q8.89917, -2.43096 8.89279, -2.44342 " /><path d="M9.60725, 2.44343 Q9.60147, 2.43221 9.58337, 2.41611  Q9.54894, 2.38771 9.50002, 2.38657 " /><path d="M8.50002, 2.38657 Q8.45357, 2.3875 8.41968, 2.41371  Q8.39917, 2.43096 8.39279, 2.44342 " /><path d="M9.4229, -2.98741 L9.10725, -2.44342 " /><path d="M9.9229, 2.98741 L9.60725, 2.44343 " /><path id= "64" d=" M 9.43749 -3 L 9.56249 -3 " />
<path d="M9.39279, 2.44342 L9.07707, 2.98741 " /><path d="M9.89279, -2.44342 L9.57707, -2.98742 " /><path d="M10.1073, -2.44342 Q10.1015, -2.4322 10.0834, -2.4161  Q10.0596, -2.39635 10.0264, -2.38919  Q10.0132, -2.38788 10, -2.38656  Q9.95356, -2.3875 9.91967, -2.41371  Q9.89917, -2.43096 9.89279, -2.44342 " /><path d="M10.6073, 2.44343 Q10.6015, 2.43221 10.5834, 2.41611  Q10.5489, 2.38771 10.5, 2.38657 " /><path d="M9.50002, 2.38657 Q9.45357, 2.3875 9.41968, 2.41371  Q9.39917, 2.43096 9.39279, 2.44342 " /><path d="M10.4229, -2.98741 L10.1073, -2.44342 " /><path d="M10.9229, 2.98741 L10.6073, 2.44343 " /><path id= "72" d=" M 10.4375 -3 L 10.5625 -3 " />
<path d="M10.3928, 2.44342 L10.0771, 2.98741 " /><path d="M10.8928, -2.44342 L10.5771, -2.98742 " /><path d="M11.1073, -2.44342 Q11.1015, -2.4322 11.0834, -2.4161  Q11.0596, -2.39635 11.0264, -2.38919  Q11.0132, -2.38788 11, -2.38656  Q10.9536, -2.3875 10.9197, -2.41371  Q10.8992, -2.43096 10.8928, -2.44342 " /><path d="M11.6073, 2.44343 Q11.6015, 2.43221 11.5834, 2.41611  Q11.5489, 2.38771 11.5, 2.38657 " /><path d="M10.5, 2.38657 Q10.4536, 2.3875 10.4197, 2.41371  Q10.3992, 2.43096 10.3928, 2.44342 " /><path d="M11.4229, -2.98741 L11.1073, -2.44342 " /><path d="M11.9229, 2.98741 L11.6073, 2.44343 " /><path id= "80" d=" M 11.4375 -3 L 11.5625 -3 " />
<path d="M11.3928, 2.44342 L11.0771, 2.98741 " /><path d="M11.8928, -2.44342 L11.5771, -2.98742 " /><path d="M12.1072, -2.44342 Q12.1015, -2.4322 12.0834, -2.4161  Q12.0596, -2.39635 12.0264, -2.38919  Q12.0132, -2.38788 12, -2.38656  Q11.9536, -2.3875 11.9197, -2.41371  Q11.8992, -2.43096 11.8928, -2.44342 " /><path d="M12.6072, 2.44343 Q12.6015, 2.43221 12.5834, 2.41611  Q12.5489, 2.38771 12.5, 2.38657 " /><path d="M11.5, 2.38657 Q11.4536, 2.3875 11.4197, 2.41371  Q11.3992, 2.43096 11.3928, 2.44342 " /><path d="M12.4229, -2.98741 L12.1072, -2.44342 " /><path d="M12.9229, 2.98741 L12.6072, 2.44343 " /><path id= "88" d=" M 12.4375 -3 L 12.5625 -3 " />
<path d="M12.3928, 2.44342 L12.0771, 2.98741 " /><path d="M12.8928, -2.44342 L12.5771, -2.98742 " /><path d="M13.1072, -2.44342 Q13.1015, -2.4322 13.0834, -2.4161  Q13.0596, -2.39635 13.0264, -2.38919  Q13.0132, -2.38788 13, -2.38656  Q12.9535, -2.3875 12.9197, -2.41371  Q12.8992, -2.43096 12.8928, -2.44342 " /><path d="M13.6072, 2.44343 Q13.6015, 2.43221 13.5834, 2.41611  Q13.5489, 2.38771 13.5, 2.38657 " /><path d="M12.5, 2.38657 Q12.4536, 2.3875 12.4197, 2.41371  Q12.3992, 2.43096 12.3928, 2.44342 " /><path d="M13.4229, -2.98741 L13.1072, -2.44342 " /><path d="M13.9229, 2.98741 L13.6072, 2.44343 " /><path id= "96" d=" M 13.4375 -3 L 13.5625 -3 " />
<path d="M13.3928, 2.44342 L13.0771, 2.98741 " /><path d="M13.8928, -2.44342 L13.5771, -2.98742 " /><path d="M14.1072, -2.44342 Q14.1015, -2.4322 14.0834, -2.4161  Q14.0596, -2.39635 14.0264, -2.38919  Q14.0132, -2.38788 14, -2.38656  Q13.9535, -2.3875 13.9197, -2.41371  Q13.8992, -2.43096 13.8928, -2.44342 " /><path d="M14.6072, 2.44343 Q14.6015, 2.43221 14.5834, 2.41611  Q14.5489, 2.38771 14.5, 2.38657 " /><path d="M13.5, 2.38657 Q13.4536, 2.3875 13.4197, 2.41371  Q13.3992, 2.43096 13.3928, 2.44342 " /><path d="M14.4229, -2.98741 L14.1072, -2.44342 " /><path d="M14.9229, 2.98741 L14.6072, 2.44343 " /><path id= "104" d=" M 14.4375 -3 L 14.5625 -3 " />
<path d="M14.3928, 2.44342 L14.0771, 2.98741 " /><path d="M14.8928, -2.44342 L14.5771, -2.98742 " /><path d="M15.1072, -2.44342 Q15.1015, -2.4322 15.0834, -2.4161  Q15.0596, -2.39635 15.0264, -2.38919  Q15.0132, -2.38788 15, -2.38656  Q14.9535, -2.3875 14.9197, -2.41371  Q14.8992, -2.43096 14.8928, -2.44342 " /><path d="M15.6072, 2.44343 Q15.6015, 2.43221 15.5834, 2.41611  Q15.5489, 2.38771 15.5, 2.38657 " /><path d="M14.5, 2.38657 Q14.4536, 2.3875 14.4197, 2.41371  Q14.3992, 2.43096 14.3928, 2.44342 " /><path d="M15.4229, -2.98741 L15.1072, -2.44342 " /><path d="M15.9229, 2.98741 L15.6072, 2.44343 " /><path id= "112" d=" M 15.4375 -3 L 15.5625 -3 " />
<path d="M15.3928, 2.44342 L15.0771, 2.98741 " /><path d="M15.8928, -2.44342 L15.5771, -2.98742 " /><path d="M16.1072, -2.44342 Q16.1015, -2.4322 16.0834, -2.4161  Q16.0596, -2.39635 16.0264, -2.38919  Q16.0132, -2.38788 16, -2.38656  Q15.9535, -2.3875 15.9197, -2.41371  Q15.8992, -2.43096 15.8928, -2.44342 " /><path d="M16.6072, 2.44343 Q16.6015, 2.43221 16.5834, 2.41611  Q16.5489, 2.38771 16.5, 2.38657 " /><path d="M15.5, 2.38657 Q15.4536, 2.3875 15.4197, 2.41371  Q15.3992, 2.43096 15.3928, 2.44342 " /><path d="M16.4229, -2.98741 L16.1072, -2.44342 " /><path d="M16.9229, 2.98741 L16.6072, 2.44343 " /><path id= "120" d=" M 16.4375 -3 L 16.5625 -3 " />
<path d="M16.3928, 2.44343 L16.0771, 2.98741 " /><path d="M16.8928, -2.44342 L16.5771, -2.98742 " /><path d="M17.1072, -2.44342 Q17.1015, -2.4322 17.0834, -2.4161  Q17.0596, -2.39635 17.0264, -2.38919  Q17.0132, -2.38788 17, -2.38656  Q16.9535, -2.3875 16.9197, -2.41371  Q16.8992, -2.43096 16.8928, -2.44342 " /><path d="M17.6072, 2.44343 Q17.6014, 2.4322 17.5833, 2.41611  Q17.5489, 2.38771 17.5, 2.38657 " /><path d="M16.5, 2.38657 Q16.4536, 2.3875 16.4197, 2.41371  Q16.3992, 2.43096 16.3928, 2.44343 " /><path d="M17.4229, -2.98741 L17.1072, -2.44342 " /><path d="M17.6072, 2.44343 L17.8593, 2.87767 " /><path id= "128" d=" M 17.4375 -3 L 17.5625 -3 " />
<path d="M17.3928, 2.44343 L17.0771, 2.98741 " /><path d="M17.8928, -2.44342 L17.5771, -2.98741 " /><path d="M18.1072, -2.44342 Q18.1014, -2.4322 18.0833, -2.4161  Q18.0596, -2.39635 18.0264, -2.38919  Q18.0132, -2.38788 18, -2.38656  Q17.9535, -2.3875 17.9197, -2.41371  Q17.8992, -2.43096 17.8928, -2.44342 " /><path d="M17.5, 2.38657 Q17.4536, 2.3875 17.4197, 2.41371  Q17.3992, 2.43096 17.3928, 2.44343 " /><path id= "133" d=" M 20 -0.75 L 18.1859 -2.56414 " />
<path d="M18.1751, -2.56027 L18.1072, -2.44342 " /></g>
<g   fill="none"
   stroke="rgb(0, 0, 0)"
   stroke-linecap="butt"
   stroke-linejoin="miter"
   stroke-width="0.35"
   transform="scale(1, -1)"
  >
<path id= "1" d=" M 0 -2.33154 L 0 -1.73818 " />
<path d="M0.500038, 2.33154 Q0.558683, 2.34777 0.590467, 2.40095 " /><path d="M2.22045e-16, -2.33154 L3.86734e-05, -2.33153 " /><path id= "4" d=" M 1.6 -2.93679 L 1.6 -2.83497 " />
<path id= "5" d=" M 1.6 2.3426 L 1.6 2.41745 " />
<path d="M1.59075, -2.95281 L1.6, -2.93679 " /><path id= "7" d=" M 1.53421 -2.95281 L 1.59075 -2.95281 " />
<path d="M0.909621, -2.40092 Q0.941405, -2.34776 1.00004, -2.33153 " /><path d="M0.590744, -2.95281 L0.909621, -2.40092 " /><path id= "10" d=" M 0.541266 -2.95281 L 0.590744 -2.95281 " />
<path d="M0.536768, -2.94824 L0.541266, -2.95281 " /><path d="M0.590467, 2.40095 L0.909211, 2.95281 " /><path id= "13" d=" M 0.909211 2.95281 L 0.965744 2.95281 " />
<path d="M1.50004, 2.33154 Q1.55868, 2.34777 1.59047, 2.40095 " /><path d="M1.59047, 2.40095 L1.6, 2.41745 " /><path d="M1.6, -2.93679 Q1.6, -2.94785 1.6, -2.94786 " /><path d="M1.6, -2.94786 Q1.6, -2.94773 1.6, -2.83497 " /><path d="M1.6, 2.42679 Q1.6, 2.41116 1.6, 2.3426 " /><path d="M1.6, 2.42679 Q1.6, 2.43305 1.6, 2.43292 " /><path d="M1.92289, 2.98741 Q1.93019, 3 1.93748, 3 " /><path id= "21" d=" M 1.93748 3 L 2.06248 3 " />
<path d="M1.09075, 2.95281 L1.40962, 2.40093 " /><path d="M1.09075, 2.95281 C1.12759, 2.83197 1.16443, 2.46319 1.20127, 1.92973  C1.24576, 1.28924 1.29024, 0.413377 1.33472, -0.417784  C1.3701, -1.07893 1.40548, -1.70532 1.44086, -2.16591  C1.47198, -2.57267 1.5031, -2.85016 1.53421, -2.95281 " /><path d="M1.53421, -2.95281 L1.6, -2.83497 " /><path d="M1.40962, 2.40093 C1.44601, 2.33444 1.53512, 2.30706 1.6, 2.3426 " /><path id= "26" d=" M 1.40922 -2.95281 L 1.53421 -2.95281 " />
<path d="M1.09046, -2.40094 L1.40922, -2.95281 " /><path d="M0.840464, -2.40092 C0.862347, -2.3628 0.894462, -2.33906 0.936808, -2.32971  C0.995512, -2.31702 1.0604, -2.34717 1.09046, -2.40094 " /><path d="M0.536768, -2.94824 L0.840464, -2.40092 " /><path d="M0.220815, -2.62661 Q0.36971, -2.7785 0.536768, -2.94824 " /><path d="M0.0904668, -2.40094 L0.220815, -2.62661 " /><path d="M0, -2.33152 Q0.058671, -2.34775 0.0904668, -2.40094 " /><path d="M0.257563, 2.66409 Q0.122115, 2.52599 -3.10862e-14, 2.40093 " /><path d="M0.257563, 2.66409 L0.40962, 2.40093 " /><path d="M0.40962, 2.40093 C0.439677, 2.34719 0.504518, 2.31705 0.563197, 2.3297  C0.605582, 2.33904 0.637723, 2.36279 0.65962, 2.40094 " /><path d="M0.65962, 2.40094 L0.965744, 2.95281 " /><path id= "37" d=" M 0.965744 2.95281 L 1.09075 2.95281 " />
<path d="M1.93748, 3 C1.97991, 3.00342 2.02236, 2.66729 2.0648, 2.09021  C2.11124, 1.46427 2.15768, 0.558831 2.20412, -0.313122  C2.23921, -0.971465 2.27429, -1.60366 2.30937, -2.07952  C2.34721, -2.59563 2.38506, -2.92426 2.4229, -2.98741 " /><path d="M2.4229, -2.98741 Q2.43019, -3 2.43748, -3 " /><path d="M2.92289, 2.98741 Q2.93019, 3 2.93748, 3 " /><path id= "41" d=" M 2.93748 3 L 3.06248 3 " />
<path d="M2.06248, 3 Q2.06977, 3 2.07707, 2.98742 " /><path d="M2.07707, 2.98742 C2.11847, 2.91901 2.15987, 2.53011 2.20127, 1.92974  C2.24576, 1.28925 2.29024, 0.413394 2.33472, -0.417763  C2.3701, -1.07889 2.40548, -1.70526 2.44086, -2.16584  C2.4814, -2.69734 2.52194, -3.00286 2.56248, -3 " /><path d="M2.56248, -3 Q2.56977, -3 2.57706, -2.98742 " /><path d="M0.965744, 2.95281 C0.998759, 2.84407 1.03178, 2.53779 1.0648, 2.09021  C1.11124, 1.46428 1.15768, 0.558835 1.20412, -0.313116  C1.23921, -0.971452 1.27429, -1.60364 1.30937, -2.0795  C1.34265, -2.53284 1.37593, -2.84322 1.40922, -2.95281 " /><path d="M0.257563, 2.66409 C0.280068, 2.56933 0.30235, 2.26572 0.324431, 1.8176  C0.3479, 1.34342 0.371134, 0.70958 0.394146, 0.0589657  C0.418021, -0.616162 0.44166, -1.30323 0.465072, -1.84371  C0.489208, -2.40367 0.513101, -2.80264 0.536768, -2.94824 " /><path d="M1.36667e-05, -1.73826 C0.0758949, -2.14332 0.149381, -2.45695 0.220815, -2.62661 " /><path d="M0, -1.73818 Q0, -1.59575 0, -1.45332  Q0, -1.29396 0, -1.1346  Q0, -0.962031 0, -0.78946  Q0, -0.607695 0, -0.425929  Q0, -0.239204 0, -0.0524783  Q0, 0.324299 0, 0.689364  Q0, 0.86492 0, 1.04048  Q0, 1.20392 0, 1.36735  Q0, 1.51487 0, 1.66239  Q0, 1.79054 0, 1.9187  Q0, 2.02451 0, 2.13032  Q0, 2.21132 0, 2.29232  Q0, 2.34663 0, 2.40093 " /><path d="M-7.82506e-17, -1.73818 L1.36667e-05, -1.73826 " /><path d="M0, -2.33152 C0, -2.29241 0, -2.23502 0, -2.15936  C0, -2.04723 0, -1.8909 0, -1.73818 " /><path d="M2.93748, 3 C2.97991, 3.00342 3.02236, 2.66729 3.0648, 2.09021  C3.11124, 1.46427 3.15768, 0.558828 3.20412, -0.313126  C3.23921, -0.971475 3.27429, -1.60367 3.30938, -2.07954  C3.34722, -2.59564 3.38506, -2.92426 3.4229, -2.98741 " /><path d="M3.4229, -2.98741 Q3.43019, -3 3.43748, -3 " /><path d="M3.92289, 2.98741 Q3.93019, 3 3.93748, 3 " /><path id= "54" d=" M 3.93748 3 L 4.06248 3 " />
<path d="M3.06248, 3 Q3.06977, 3 3.07707, 2.98741 " /><path d="M3.07707, 2.98741 C3.11848, 2.91901 3.15987, 2.53011 3.20127, 1.92974  C3.24576, 1.28926 3.29024, 0.413411 3.33472, -0.41774  C3.3701, -1.07884 3.40548, -1.70519 3.44086, -2.16577  C3.4814, -2.69732 3.52194, -3.00286 3.56248, -3 " /><path d="M3.56248, -3 Q3.56977, -3 3.57706, -2.98742 " /><path d="M3.93748, 3 C3.97992, 3.00342 4.02236, 2.66729 4.0648, 2.09021  C4.11124, 1.46427 4.15769, 0.558824 4.20413, -0.31313  C4.23921, -0.971487 4.27429, -1.60369 4.30938, -2.07956  C4.34722, -2.59565 4.38506, -2.92426 4.4229, -2.98741 " /><path d="M4.4229, -2.98741 Q4.43019, -3 4.43749, -3 " /><path d="M4.92289, 2.98741 Q4.93019, 3 4.93748, 3 " /><path id= "61" d=" M 4.93748 3 L 5.06248 3 " />
<path d="M4.06248, 3 Q4.06978, 3 4.07707, 2.98741 " /><path d="M4.07707, 2.98741 C4.11848, 2.91901 4.15987, 2.53011 4.20128, 1.92975  C4.24576, 1.28927 4.29024, 0.413426 4.33472, -0.417721  C4.37009, -1.0788 4.40547, -1.70513 4.44085, -2.16571  C4.4814, -2.69729 4.52194, -3.00286 4.56248, -3 " /><path d="M4.56248, -3 Q4.56977, -3 4.57706, -2.98742 " /><path d="M4.93748, 3 C4.97992, 3.00342 5.02236, 2.66729 5.0648, 2.09021  C5.11124, 1.46427 5.15769, 0.558822 5.20413, -0.313134  C5.23921, -0.971494 5.2743, -1.6037 5.30938, -2.07957  C5.34722, -2.59566 5.38506, -2.92426 5.4229, -2.98741 " /><path d="M5.4229, -2.98741 Q5.43019, -3 5.43749, -3 " /><path d="M5.9229, 2.98741 Q5.93019, 3 5.93748, 3 " /><path id= "68" d=" M 5.93748 3 L 6.06249 3 " />
<path d="M5.06248, 3 Q5.06978, 3 5.07707, 2.98741 " /><path d="M5.07707, 2.98741 C5.11848, 2.91901 5.15987, 2.53011 5.20128, 1.92975  C5.24576, 1.28928 5.29024, 0.413448 5.33472, -0.417693  C5.37009, -1.07874 5.40547, -1.70504 5.44085, -2.16562  C5.48139, -2.69726 5.52193, -3.00286 5.56248, -3 " /><path d="M5.56248, -3 Q5.56977, -3 5.57706, -2.98742 " /><path d="M5.93748, 3 C5.97992, 3.00342 6.02236, 2.66729 6.0648, 2.09021  C6.11125, 1.46427 6.15769, 0.558817 6.20413, -0.313141  C6.23921, -0.971512 6.2743, -1.60373 6.30938, -2.0796  C6.34722, -2.59567 6.38506, -2.92426 6.4229, -2.98741 " /><path d="M6.4229, -2.98741 Q6.43019, -3 6.43749, -3 " /><path d="M6.9229, 2.98741 Q6.93019, 3 6.93749, 3 " /><path id= "75" d=" M 6.93749 3 L 7.06249 3 " />
<path d="M6.06249, 3 Q6.06978, 3 6.07707, 2.98741 " /><path d="M6.07707, 2.98741 C6.11848, 2.91901 6.15987, 2.53011 6.20128, 1.92976  C6.24576, 1.28929 6.29024, 0.413465 6.33472, -0.417671  C6.37009, -1.07869 6.40547, -1.70497 6.44084, -2.16555  C6.48139, -2.69723 6.52193, -3.00286 6.56248, -3 " /><path d="M6.56248, -3 Q6.56977, -3 6.57707, -2.98742 " /><path d="M6.93749, 3 C6.97992, 3.00342 7.02237, 2.66729 7.0648, 2.09021  C7.11125, 1.46427 7.15769, 0.558813 7.20413, -0.313146  C7.23922, -0.971525 7.2743, -1.60375 7.30939, -2.07962  C7.34722, -2.59568 7.38507, -2.92426 7.4229, -2.98741 " /><path d="M7.4229, -2.98741 Q7.4302, -3 7.43749, -3 " /><path d="M7.9229, 2.98741 Q7.93019, 3 7.93749, 3 " /><path id= "82" d=" M 7.93749 3 L 8.06249 3 " />
<path d="M7.06249, 3 Q7.06978, 3 7.07707, 2.98741 " /><path d="M7.07707, 2.98741 C7.11848, 2.91901 7.15987, 2.53012 7.20128, 1.92976  C7.24576, 1.2893 7.29024, 0.413485 7.33472, -0.417646  C7.37009, -1.07863 7.40546, -1.70489 7.44084, -2.16547  C7.48139, -2.6972 7.52193, -3.00286 7.56249, -3 " /><path d="M7.56249, -3 Q7.56978, -3 7.57707, -2.98742 " /><path d="M7.93749, 3 C7.97992, 3.00342 8.02237, 2.66729 8.06481, 2.09021  C8.11125, 1.46426 8.15769, 0.558808 8.20413, -0.313153  C8.23922, -0.971541 8.2743, -1.60377 8.30939, -2.07964  C8.34723, -2.59569 8.38507, -2.92427 8.4229, -2.98741 " /><path d="M8.4229, -2.98741 Q8.4302, -3 8.43749, -3 " /><path d="M8.9229, 2.98741 Q8.93019, 3 8.93749, 3 " /><path id= "89" d=" M 8.93749 3 L 9.06249 3 " />
<path d="M8.06249, 3 Q8.06978, 3 8.07707, 2.98741 " /><path d="M8.07707, 2.98741 C8.11848, 2.91901 8.15987, 2.53012 8.20128, 1.92977  C8.24576, 1.28931 8.29024, 0.41351 8.33472, -0.417615  C8.37009, -1.07857 8.40546, -1.70479 8.44083, -2.16537  C8.48138, -2.69716 8.52193, -3.00286 8.56249, -3 " /><path d="M8.56249, -3 Q8.56978, -3 8.57707, -2.98742 " /><path d="M8.93749, 3 C8.97992, 3.00342 9.02237, 2.66729 9.06481, 2.0902  C9.11125, 1.46426 9.15769, 0.558802 9.20413, -0.313161  C9.23922, -0.971562 9.2743, -1.6038 9.30939, -2.07968  C9.34723, -2.5957 9.38507, -2.92427 9.4229, -2.98741 " /><path d="M9.4229, -2.98741 Q9.4302, -3 9.43749, -3 " /><path d="M9.9229, 2.98741 Q9.93019, 3 9.93749, 3 " /><path id= "96" d=" M 9.93749 3 L 10.0625 3 " />
<path d="M9.06249, 3 Q9.06978, 3 9.07707, 2.98741 " /><path d="M9.07707, 2.98741 C9.11848, 2.91901 9.15987, 2.53012 9.20128, 1.92977  C9.24576, 1.28932 9.29024, 0.41352 9.33472, -0.417602  C9.37009, -1.07854 9.40546, -1.70475 9.44083, -2.16532  C9.48138, -2.69714 9.52193, -3.00286 9.56249, -3 " /><path d="M9.56249, -3 Q9.56978, -3 9.57707, -2.98742 " /><path d="M9.93749, 3 C9.97992, 3.00342 10.0224, 2.66729 10.0648, 2.09021  C10.1112, 1.46426 10.1577, 0.558801 10.2041, -0.313162  C10.2392, -0.971564 10.2743, -1.6038 10.3094, -2.07968  C10.3472, -2.59571 10.3851, -2.92427 10.4229, -2.98741 " /><path d="M10.4229, -2.98741 Q10.4302, -3 10.4375, -3 " /><path d="M10.9229, 2.98741 Q10.9302, 3 10.9375, 3 " /><path id= "103" d=" M 10.9375 3 L 11.0625 3 " />
<path d="M10.0625, 3 Q10.0698, 3 10.0771, 2.98741 " /><path d="M10.0771, 2.98741 C10.1185, 2.91901 10.1599, 2.53012 10.2013, 1.92977  C10.2458, 1.28932 10.2902, 0.413531 10.3347, -0.417588  C10.3701, -1.07851 10.4055, -1.70471 10.4408, -2.16528  C10.4814, -2.69712 10.5219, -3.00286 10.5625, -3 " /><path d="M10.5625, -3 Q10.5698, -3 10.5771, -2.98742 " /><path d="M10.9375, 3 C10.9799, 3.00342 11.0224, 2.66729 11.0648, 2.09021  C11.1113, 1.46426 11.1577, 0.558802 11.2041, -0.313161  C11.2392, -0.971562 11.2743, -1.6038 11.3094, -2.07968  C11.3472, -2.59571 11.3851, -2.92427 11.4229, -2.98741 " /><path d="M11.4229, -2.98741 Q11.4302, -3 11.4375, -3 " /><path d="M11.9229, 2.98741 Q11.9302, 3 11.9375, 3 " /><path id= "110" d=" M 11.9375 3 L 12.0625 3 " />
<path d="M11.0625, 3 Q11.0698, 3 11.0771, 2.98741 " /><path d="M11.0771, 2.98741 C11.1185, 2.91901 11.1599, 2.53012 11.2013, 1.92978  C11.2458, 1.28933 11.2902, 0.413549 11.3347, -0.417566  C11.3701, -1.07846 11.4055, -1.70464 11.4408, -2.1652  C11.4814, -2.69709 11.5219, -3.00286 11.5625, -3 " /><path d="M11.5625, -3 Q11.5698, -3 11.5771, -2.98742 " /><path d="M11.9375, 3 C11.9799, 3.00342 12.0224, 2.66729 12.0648, 2.0902  C12.1113, 1.46426 12.1577, 0.558798 12.2041, -0.313166  C12.2392, -0.971575 12.2743, -1.60382 12.3094, -2.0797  C12.3472, -2.59572 12.3851, -2.92427 12.4229, -2.98741 " /><path d="M12.4229, -2.98741 Q12.4302, -3 12.4375, -3 " /><path d="M12.9229, 2.98741 Q12.9302, 3 12.9375, 3 " /><path id= "117" d=" M 12.9375 3 L 13.0625 3 " />
<path d="M12.0625, 3 Q12.0698, 3 12.0771, 2.98741 " /><path d="M12.0771, 2.98741 C12.1185, 2.91901 12.1599, 2.53012 12.2013, 1.92978  C12.2458, 1.28935 12.2902, 0.41358 12.3347, -0.417526  C12.3701, -1.07837 12.4054, -1.70451 12.4408, -2.16507  C12.4814, -2.69704 12.5219, -3.00286 12.5625, -3 " /><path d="M12.5625, -3 Q12.5698, -3 12.5771, -2.98742 " /><path d="M12.9375, 3 C12.9799, 3.00342 13.0224, 2.66729 13.0648, 2.0902  C13.1113, 1.46426 13.1577, 0.558788 13.2041, -0.31318  C13.2392, -0.971607 13.2743, -1.60387 13.3094, -2.07975  C13.3472, -2.59574 13.3851, -2.92427 13.4229, -2.98741 " /><path d="M13.4229, -2.98741 Q13.4302, -3 13.4375, -3 " /><path d="M13.9229, 2.98741 Q13.9302, 3 13.9375, 3 " /><path id= "124" d=" M 13.9375 3 L 14.0625 3 " />
<path d="M13.0625, 3 Q13.0698, 3 13.0771, 2.98741 " /><path d="M13.0771, 2.98741 C13.1185, 2.91901 13.1599, 2.53012 13.2013, 1.92979  C13.2458, 1.28936 13.2902, 0.413601 13.3347, -0.417499  C13.3701, -1.07831 13.4054, -1.70442 13.4408, -2.16498  C13.4814, -2.697 13.5219, -3.00286 13.5625, -3 " /><path d="M13.5625, -3 Q13.5698, -3 13.5771, -2.98742 " /><path d="M13.9375, 3 C13.9799, 3.00342 14.0224, 2.66729 14.0648, 2.0902  C14.1113, 1.46425 14.1577, 0.558783 14.2041, -0.313187  C14.2392, -0.971625 14.2743, -1.6039 14.3094, -2.07978  C14.3472, -2.59575 14.3851, -2.92427 14.4229, -2.98741 " /><path d="M14.4229, -2.98741 Q14.4302, -3 14.4375, -3 " /><path d="M14.9229, 2.98741 Q14.9302, 3 14.9375, 3 " /><path id= "131" d=" M 14.9375 3 L 15.0625 3 " />
<path d="M14.0625, 3 Q14.0698, 3 14.0771, 2.98741 " /><path d="M14.0771, 2.98741 C14.1185, 2.91901 14.1599, 2.53012 14.2013, 1.92979  C14.2458, 1.28936 14.2902, 0.413599 14.3347, -0.417502  C14.3701, -1.07831 14.4054, -1.70443 14.4408, -2.16499  C14.4814, -2.69701 14.5219, -3.00286 14.5625, -3 " /><path d="M14.5625, -3 Q14.5698, -3 14.5771, -2.98742 " /><path d="M14.9375, 3 C14.9799, 3.00342 15.0224, 2.66729 15.0648, 2.0902  C15.1113, 1.46426 15.1577, 0.55879 15.2041, -0.313178  C15.2392, -0.971602 15.2743, -1.60386 15.3094, -2.07974  C15.3472, -2.59574 15.3851, -2.92427 15.4229, -2.98741 " /><path d="M15.4229, -2.98741 Q15.4302, -3 15.4375, -3 " /><path d="M15.9229, 2.98741 Q15.9302, 3 15.9375, 3 " /><path id= "138" d=" M 15.9375 3 L 16.0625 3 " />
<path d="M15.0625, 3 Q15.0698, 3 15.0771, 2.98741 " /><path d="M15.0771, 2.98741 C15.1185, 2.91901 15.1599, 2.53013 15.2013, 1.9298  C15.2458, 1.28938 15.2902, 0.413637 15.3347, -0.417453  C15.3701, -1.0782 15.4054, -1.70427 15.4408, -2.16483  C15.4814, -2.69694 15.5219, -3.00287 15.5625, -3 " /><path d="M15.5625, -3 Q15.5698, -3 15.5771, -2.98742 " /><path d="M15.9375, 3 C15.9799, 3.00342 16.0224, 2.66729 16.0648, 2.0902  C16.1113, 1.46425 16.1577, 0.558775 16.2041, -0.313198  C16.2392, -0.971651 16.2743, -1.60394 16.3094, -2.07982  C16.3472, -2.59577 16.3851, -2.92428 16.4229, -2.98741 " /><path d="M16.4229, -2.98741 Q16.4302, -3 16.4375, -3 " /><path d="M16.9229, 2.98741 Q16.9302, 3 16.9375, 3 " /><path id= "145" d=" M 16.9375 3 L 17.0625 3 " />
<path d="M16.0625, 3 Q16.0698, 3 16.0771, 2.98741 " /><path d="M16.0771, 2.98741 C16.1185, 2.919 16.1599, 2.53013 16.2013, 1.9298  C16.2458, 1.28938 16.2902, 0.413635 16.3347, -0.417456  C16.3701, -1.07821 16.4054, -1.70428 16.4408, -2.16484  C16.4814, -2.69695 16.5219, -3.00287 16.5625, -3 " /><path d="M16.5625, -3 Q16.5698, -3 16.5771, -2.98742 " /><path d="M16.9375, 3 C16.9799, 3.00342 17.0224, 2.66729 17.0648, 2.0902  C17.1113, 1.46425 17.1577, 0.558782 17.2041, -0.313188  C17.2392, -0.971628 17.2743, -1.6039 17.3094, -2.07978  C17.3472, -2.59576 17.3851, -2.92428 17.4229, -2.98741 " /><path d="M17.4229, -2.98741 Q17.4302, -3 17.4375, -3 " /><path d="M17.8689, 2.88113 Q17.8641, 2.88593 17.8593, 2.87767 " /><path d="M17.0625, 3 Q17.0698, 3 17.0771, 2.98741 " /><path d="M17.0771, 2.98741 C17.1185, 2.919 17.1599, 2.53013 17.2013, 1.9298  C17.2458, 1.2894 17.2902, 0.413676 17.3347, -0.417403  C17.3701, -1.07809 17.4054, -1.70411 17.4408, -2.16466  C17.4814, -2.69688 17.5219, -3.00287 17.5625, -3 " /><path d="M17.5625, -3 Q17.5698, -3 17.5771, -2.98741 " /><path id= "155" d=" M 17.8689 2.88113 L 20 0.75 " />
<path d="M20, -0.75 L20, -0.731196  L20, -0.675727  L20, -0.586374  L20, -0.467617  L20, -0.325413  L20, -0.166891  L20, -1.38778e-16  L20, 0.166891  L20, 0.325413  L20, 0.467617  L20, 0.586374  L20, 0.675727  L20, 0.731196  L20, 0.75 " /><path d="M17.8689, 2.88113 C17.8869, 2.86379 17.9051, 2.70399 17.9234, 2.4233  C17.9583, 1.89678 17.9936, 0.913308 18.0295, -0.0580855  C18.047, -0.528145 18.0645, -0.989431 18.0823, -1.38083  C18.1128, -2.06005 18.1437, -2.5111 18.1751, -2.56027 " /><path d="M18.1751, -2.56027 Q18.1805, -2.56953 18.1859, -2.56414 " /></g>

</svg>
