<svg xmlns="http://www.w3.org/2000/svg" viewBox="-3.4745892 -2.3002092000000003 6.9541884 4.5187984">
<rect width="100%" height="100%" fill="white"/>
<g   fill="none"
   stroke="rgb(0, 0, 0)"
   stroke-linecap="butt"
   stroke-linejoin="miter"
   stroke-width="0.35"
   transform="scale(1, -1)"
  >
<path d="M2.40093 0.53 A2.45873 2.45873 0 0 1 -1.73903 1.73815" /><path id= "2" d=" M -2.33154 0.53 L 2.40093 0.53 " />
<path d="M-1.73907, 1.7381 C-1.89163, 1.5491 -2.04778, 1.31578 -2.15976, 1.0608  C-2.23524, 0.891508 -2.2925, 0.714573 -2.33154, 0.53 " /><path d="M-1.73903, 1.73815 L-1.73907, 1.7381 " /><path d="M2.62337, 0.53 Q2.50745, 0.53 2.40093, 0.53 " /><path d="M2.62337, 0.53 C2.51295, 0.989781 2.27757, 1.41776 1.94892, 1.7548  C1.62215, 2.09173 1.20353, 2.33702 0.751674, 2.4555  C0.3074, 2.57329 -0.167651, 2.5678 -0.6065, 2.43914  C-1.03944, 2.3135 -1.43576, 2.06845 -1.73903, 1.73815 " /><path d="M-2.33154, 0.53 Q-2.34778, 0.53 -2.40094, 0.53 " /><path d="M-2.77539, 0.53 Q-2.86145, 0.53 -2.95281, 0.53 " /><path d="M-2.40094, 0.53 L-2.77539, 0.53 " /><path d="M2.62337, 0.53 L2.95281, 0.53 " /><path d="M-2.3844, 1.82061 C-1.90703, 2.45119 -1.1703, 2.87674 -0.385486, 2.97513  C-0.0943841, 3.01261 0.196002, 3.00771 0.485673, 2.96043  C1.02418, 2.87286 1.53701, 2.63436 1.95097, 2.27897  C2.47312, 1.83444 2.83352, 1.20526 2.95281, 0.53 " /><path d="M-2.77539, 0.53 C-2.75046, 0.979955 -2.61459, 1.42614 -2.3844, 1.82061 " /><path d="M-2.93679, 0.53 C-2.96783, 0.173725 -2.93361, -0.187621 -2.83497, -0.53 " /><path d="M2.42679, 2.32152e-06 Q2.41116, -0.263616 2.3426, -0.53 " /><path d="M2.42679, 2.32152e-06 Q2.43822, 0.202878 2.42837, 0.38529 " /><path d="M2.42837, 0.38529 Q2.42506, 0.45777 2.41745, 0.53 " /><path d="M2.95281, 0.53 Q2.99995, 0.267097 3, 6.75788e-11 " /><path d="M-2.3844 1.82061 A3 3 0 0 1 -2.95281 0.53" /><path d="M-2.94824, -0.53 L-2.95281, -0.53 " /><path d="M-2.62661, -0.53 Q-2.7785, -0.53 -2.94824, -0.53 " /><path d="M-2.40094, -0.53 L-2.62661, -0.53 " /><path d="M-2.33152, -0.53 Q-2.34775, -0.53 -2.40094, -0.53 " /><path id= "23" d=" M -2.33152 -0.53 L 2.40093 -0.53 " />
<path d="M2.66409, -0.53 Q2.52599, -0.53 2.40093, -0.53 " /><path d="M2.66409, -0.53 L2.95281, -0.53 " /><path d="M3, 6.7562e-11 C3.00342, -0.801123 2.66729, -1.59623 2.09021, -2.15198  C1.46427, -2.76669 0.558831, -3.07999 -0.313122, -2.98361  C-0.971465, -2.91616 -1.60366, -2.62222 -2.07952, -2.16231  C-2.56843, -1.69459 -2.88997, -1.05666 -2.97514, -0.385432  C-3.01453, -0.079152 -3.00709, 0.225992 -2.95281, 0.53 " /><path d="M2.95281, 0.53 Q2.99995, 0.267097 3, 6.1009e-11 " /><path d="M2.95281, -0.53 C2.84407, -1.14312 2.53779, -1.71905 2.09021, -2.15198  C1.46428, -2.76669 0.558835, -3.07999 -0.313116, -2.98361  C-0.971452, -2.91617 -1.60364, -2.62223 -2.0795, -2.16233  C-2.53284, -1.72819 -2.84322, -1.14806 -2.95281, -0.53 " /><path d="M2.66409, -0.53 C2.56933, -1.1294 2.26572, -1.69409 1.8176, -2.10768  C1.34342, -2.55 0.70958, -2.81764 0.0589657, -2.85227  C-0.616162, -2.89211 -1.30323, -2.68079 -1.84371, -2.26922  C-2.40367, -1.84811 -2.80264, -1.21837 -2.94824, -0.53 " /><path d="M-1.73826, -1.73894 C-2.14332, -1.44271 -2.45695, -1.01462 -2.62661, -0.53 " /><path d="M-1.73818 -1.73899 A2.45873 2.45873 0 0 1 2.40093 -0.53" /><path d="M-1.73818, -1.73899 L-1.73826, -1.73894 " /><path d="M-2.33152, -0.53 C-2.29241, -0.714865 -2.23502, -0.892064 -2.15936, -1.0616  C-2.04723, -1.31665 -1.8909, -1.55 -1.73818, -1.73899 " /><path d="M3, 6.09668e-11 C3.00342, -0.801123 2.66729, -1.59623 2.09021, -2.15198  C1.46427, -2.76669 0.558828, -3.07999 -0.313126, -2.98361  C-0.971475, -2.91616 -1.60367, -2.62221 -2.07954, -2.16229  C-2.56845, -1.69456 -2.88999, -1.05661 -2.97514, -0.385379  C-3.01453, -0.0791164 -3.00708, 0.22601 -2.95281, 0.53 " /><path d="M2.95281, 0.53 Q2.99995, 0.267097 3, 5.47682e-11 " /><path d="M3, 5.47253e-11 C3.00342, -0.801123 2.66729, -1.59623 2.09021, -2.15198  C1.46427, -2.76669 0.558824, -3.07999 -0.31313, -2.98361  C-0.971487, -2.91616 -1.60369, -2.6222 -2.07956, -2.16228  C-2.56847, -1.69453 -2.89001, -1.05657 -2.97515, -0.385323  C-3.01453, -0.0790786 -3.00708, 0.226029 -2.95281, 0.53 " /><path d="M2.95281, 0.53 Q2.99995, 0.267097 3, 4.88938e-11 " /><path d="M3, 4.88247e-11 C3.00342, -0.801123 2.66729, -1.59623 2.09021, -2.15198  C1.46427, -2.76669 0.558822, -3.07999 -0.313134, -2.98361  C-0.971494, -2.91616 -1.6037, -2.6222 -2.07957, -2.16227  C-2.56849, -1.69451 -2.89002, -1.05654 -2.97516, -0.385283  C-3.01452, -0.0790518 -3.00708, 0.226043 -2.95281, 0.53 " /><path d="M2.95281, 0.53 Q2.99995, 0.267097 3, 4.32547e-11 " /><path d="M3, 4.32769e-11 C3.00342, -0.801124 2.66729, -1.59623 2.09021, -2.15198  C1.46427, -2.7667 0.558817, -3.07999 -0.313141, -2.98361  C-0.971512, -2.91615 -1.60373, -2.62218 -2.0796, -2.16224  C-2.56852, -1.69447 -2.89005, -1.05647 -2.97517, -0.385193  C-3.01452, -0.0790016 -3.00707, 0.226063 -2.95281, 0.53 " /><path d="M-2.61341, 1.47312 L-2.60361, 1.49037 " /><path d="M2.95281, 0.53 Q2.99995, 0.267097 3, 3.80926e-11 " /><path d="M3, 3.80644e-11 C3.00342, -0.801124 2.66729, -1.59623 2.09021, -2.15198  C1.76862, -2.46483 1.37579, -2.70382 0.950117, -2.84557 " /><path d="M-2.99499, 0.173319 Q-2.98514, 0.343337 -2.95613, 0.51115 " /><path d="M3, 3.31868e-11 C3.00342, -0.801124 2.66729, -1.59624 2.09021, -2.15199  C1.46426, -2.7667 0.558808, -3.08 -0.313153, -2.98361  C-0.971541, -2.91615 -1.60377, -2.62216 -2.07964, -2.16219  C-2.56858, -1.69439 -2.8901, -1.05635 -2.97519, -0.385046  C-3.01452, -0.0788928 -3.00706, 0.226123 -2.95281, 0.53 " /><path d="M2.95281, 0.53 Q2.99995, 0.267097 3, 2.87228e-11 " /><path d="M3, 2.86873e-11 C3.00342, -0.801125 2.66729, -1.59624 2.0902, -2.15199  C1.46426, -2.7667 0.558802, -3.08 -0.313161, -2.98361  C-0.971562, -2.91614 -1.6038, -2.62215 -2.07968, -2.16216  C-2.56862, -1.69434 -2.89013, -1.05627 -2.9752, -0.384943  C-3.01452, -0.0788233 -3.00706, 0.226158 -2.95281, 0.53 " /><path d="M2.95281, 0.53 Q2.99995, 0.267097 3, 2.43459e-11 " /><path d="M3, 2.44211e-11 C3.00342, -0.801125 2.66729, -1.59624 2.09021, -2.15199  C1.46426, -2.7667 0.558801, -3.08 -0.313162, -2.98361  C-0.971564, -2.91614 -1.6038, -2.62214 -2.07968, -2.16216  C-2.56862, -1.69434 -2.89014, -1.05627 -2.9752, -0.384933  C-3.01452, -0.0788168 -3.00706, 0.226161 -2.95281, 0.53 " /><path d="M2.95281, 0.53 Q2.99995, 0.267097 3, 2.06528e-11 " /><path d="M3, 2.05511e-11 C3.00342, -0.801124 2.66729, -1.59624 2.09021, -2.15199  C1.46426, -2.7667 0.558802, -3.08 -0.313161, -2.98361  C-0.971562, -2.91614 -1.6038, -2.62215 -2.07968, -2.16216  C-2.56862, -1.69434 -2.89013, -1.05627 -2.9752, -0.384943  C-3.01452, -0.0788233 -3.00706, 0.226158 -2.95281, 0.53 " /><path d="M2.95281, 0.53 Q2.99995, 0.267097 3, 1.70379e-11 " /><path d="M3, 1.70646e-11 C3.00342, -0.801125 2.66729, -1.59624 2.0902, -2.15199  C1.46426, -2.7667 0.558798, -3.08 -0.313166, -2.98361  C-0.971575, -2.91614 -1.60382, -2.62214 -2.0797, -2.16214  C-2.56864, -1.69431 -2.89016, -1.05622 -2.97521, -0.384879  C-3.01452, -0.0787804 -3.00705, 0.226179 -2.95281, 0.53 " /><path d="M2.95281, 0.53 Q2.99995, 0.267097 3, 1.39138e-11 " /><path d="M3, 1.38942e-11 C3.00342, -0.801125 2.66729, -1.59624 2.0902, -2.15199  C1.46426, -2.76671 0.558788, -3.08 -0.31318, -2.98361  C-0.971607, -2.91614 -1.60387, -2.62211 -2.07975, -2.16209  C-2.56871, -1.69423 -2.89021, -1.0561 -2.97523, -0.384716  C-3.01452, -0.0786707 -3.00704, 0.226235 -2.95281, 0.53 " /><path d="M2.95281, 0.53 Q2.99995, 0.267097 3, 1.09188e-11 " /><path d="M3, 1.09379e-11 C3.00342, -0.801126 2.66729, -1.59624 2.0902, -2.15199  C1.46425, -2.76671 0.558783, -3.08 -0.313187, -2.98361  C-0.971625, -2.91613 -1.6039, -2.6221 -2.07978, -2.16207  C-2.56874, -1.69418 -2.89024, -1.05602 -2.97524, -0.384626  C-3.01451, -0.0786098 -3.00704, 0.226265 -2.95281, 0.53 " /><path d="M2.95281, 0.53 Q2.99995, 0.267097 3, 8.33644e-12 " /><path d="M3, 8.30225e-12 C3.00342, -0.801125 2.66729, -1.59624 2.0902, -2.15199  C1.46426, -2.76671 0.55879, -3.08 -0.313178, -2.98361  C-0.971602, -2.91614 -1.60386, -2.62212 -2.07974, -2.1621  C-2.5687, -1.69424 -2.8902, -1.05611 -2.97523, -0.384739  C-3.01452, -0.0786859 -3.00704, 0.226227 -2.95281, 0.53 " /><path d="M2.95281, 0.53 Q2.99995, 0.267097 3, 6.24301e-12 " /><path d="M3, 6.20659e-12 C3.00342, -0.801126 2.66729, -1.59624 2.0902, -2.15199  C1.46425, -2.76671 0.558775, -3.08001 -0.313198, -2.98361  C-0.971651, -2.91613 -1.60394, -2.62208 -2.07982, -2.16203  C-2.56879, -1.69412 -2.89028, -1.05592 -2.97526, -0.384498  C-3.01451, -0.0785313 -3.00703, 0.226301 -2.95281, 0.53 " /><path d="M2.95281, 0.53 Q2.99995, 0.267097 3, 4.18243e-12 " /></g>

</svg>
