<svg xmlns="http://www.w3.org/2000/svg" viewBox="-2.9327428 -3.6497428000000003 20.007575600000003 15.5986756">
<rect width="100%" height="100%" fill="white"/>
<g   fill="none"
   stroke="rgb(0, 0, 0)"
   stroke-linecap="butt"
   stroke-linejoin="miter"
   stroke-width="0.35"
   transform="scale(1, -1)"
  >
<path id= "1" d=" M -0.931594 -2.92625 L 12.0737 -10.4349 " />
<path id= "2" d=" M 2.06841 2.26991 L 15.0737 -5.23872 " />
</g>
<g   fill="none"
   stroke="rgb(0, 0, 0)"
   stroke-linecap="butt"
   stroke-linejoin="miter"
   stroke-width="0.35"
   transform="scale(1, -1)"
  >
<path d="M-1.55291 -1.55291 A3 1.73205 -120 0 0 2.06841 2.26991" />
<path d="M2.06841 2.26991 A3 1.73205 -120 0 0 2.68973 0.896575" />
<path d="M2.68973 0.896575 A3 1.73205 -120 0 0 -0.931594 -2.92625" />
<path d="M-0.931594 -2.92625 A3 1.73205 -120 0 0 -1.55291 -1.55291" />
<path d="M12.4981 -10.5691 A3 1.73205 -120 0 0 12.0737 -10.4349" />
<path d="M12.4981, -10.5691 C10.3152, -9.33896 8.05852, -8.06022 5.74014, -6.73964 " /><path d="M5.9397 -6.77535 A3 1.73205 -120 0 0 5.74014 -6.73964" />
<path d="M6.15266 -6.77649 A3 1.73205 -120 0 0 5.9397 -6.77535" />
<path d="M6.15266, -6.77649 Q9.44263, -8.74203 12.5282, -10.5717 " /><path d="M15.695 -6.63216 A3 1.73205 -120 0 0 12.5282 -10.5717" />
<path d="M15.695, -6.63216 Q12.5121, -4.9235 9.10826, -3.09967 " /><path d="M9.12168 -2.81691 A3 1.73205 -120 0 0 9.10826 -3.09967" />
<path d="M9.10826 -2.54964 A3 1.73205 -120 0 0 9.12168 -2.81691" />
<path d="M9.10826, -2.54964 C11.3756, -3.93376 13.575, -5.28363 15.695, -6.59203 " /><path d="M15.0737 -5.23872 A3 1.73205 -120 0 0 15.695 -6.59203" />
<path d="M12.5116 -10.5619 A5.7961 4.54119 26.621 0 0 12.4981 -10.5691" />
<path d="M15.695 -6.59203 A5.7961 4.75461 42.332 0 0 15.6863 -6.62751" />
</g>

</svg>
