<svg xmlns="http://www.w3.org/2000/svg" viewBox="-1.6 -4.6 23.2 9.2">
<rect width="100%" height="100%" fill="white"/>
<g   fill="none"
   stroke="rgb(0, 0, 0)"
   stroke-linecap="butt"
   stroke-linejoin="miter"
   stroke-width="0.35"
   transform="scale(1, -1)"
  >
<path d="M0 3.28645e-16 A6 6 0 0 1 0.803848 -3" /><path id= "2" d=" M 0.803848 3 L 9.9 3 " />
<path d="M19.1962 -3 A6 6 0 0 1 20 -4.06143e-16" /></g>
<g   fill="none"
   stroke="rgb(0, 0, 0)"
   stroke-linecap="butt"
   stroke-linejoin="miter"
   stroke-width="0.35"
   transform="scale(1, -1)"
  >
<path d="M0 2.00173e-29 A6 6 0 0 0 0.803848 3" /><path d="M0.803848, 3 L0.803848, 2.92478  L0.803848, 2.70291  L0.803848, 2.34549  L0.803848, 1.87047  L0.803848, 1.30165  L0.803848, 0.667563  L0.803848, 6.66134e-16  L0.803848, -0.667563  L0.803848, -1.30165  L0.803848, -1.87047  L0.803848, -2.34549  L0.803848, -2.70291  L0.803848, -2.92478  L0.803848, -3 " /><path id= "3" d=" M 0.803848 -3 L 19.1962 -3 " />
<path d="M19.1962, -1.52123 L19.1962, -1.70876  L19.1962, -1.88689  L19.1962, -2.05463  L19.1962, -2.21106  L19.1962, -2.35531  L19.1962, -2.4866  L19.1962, -2.6042  L19.1962, -2.70746  L19.1962, -2.79582  L19.1962, -2.86878  L19.1962, -2.92595  L19.1962, -2.96701  L19.1962, -2.99174  L19.1962, -3 " /><path d="M19.1962, -1.52123 C16.199, -1.61113 13.0948, -1.69828 9.9, -1.78221 " /><path d="M9.9, -1.5 Q9.9, -1.64628 9.9, -1.78221 " /><path d="M9.9, -1.19882 Q9.9, -1.35367 9.9, -1.5 " /><path d="M9.9, -1.19882 C13.0948, -1.29444 16.199, -1.38789 19.1962, -1.47867 " /><path d="M19.1962, 2.9999 Q19.1962, 2.98159 19.1962, 2.96328  Q19.1962, 2.91239 19.1962, 2.8615  Q19.1962, 2.77914 19.1962, 2.69678  Q19.1962, 2.58478 19.1962, 2.47277  Q19.1962, 2.33357 19.1962, 2.19437  Q19.1962, 2.03105 19.1962, 1.86772  Q19.1962, 1.68386 19.1962, 1.5  Q19.1962, 1.29964 19.1962, 1.09929  Q19.1962, 0.886848 19.1962, 0.674405  Q19.1962, 0.454548 19.1962, 0.23469  Q19.1962, -0.211482 19.1962, -0.65044  Q19.1962, -0.863415 19.1962, -1.07639  Q19.1962, -1.27753 19.1962, -1.47867 " /><path d="M19.1962, 2.9999 C16.199, 2.99902 13.0948, 2.99272 9.9, 2.98103 " /><path d="M9.9, 3 Q9.9, 2.99995 9.9, 2.98103 " /><path d="M20 2.00173e-29 A6 6 0 0 1 19.2158 2.96579" /><path d="M19.2158 2.96579 A5.7961 4.74593 -177.138 0 1 19.1962 2.9999" />
<path d="M19.1962 -1.47867 A5.7961 0.504956 -1.649 0 0 19.2158 -1.48289" />
<path d="M19.2158 -1.48289 A5.7961 5.25089 -176.118 0 0 19.1962 -1.52123" />
<path id= "16" d=" M 19.2158 -1.48289 L 9.9 -1.25 " />
</g>

</svg>
