<svg xmlns="http://www.w3.org/2000/svg" viewBox="-6.3018572 -6.9813272 21.9583244 16.7246144">
<rect width="100%" height="100%" fill="white"/>
<g   fill="none"
   stroke="rgb(0, 0, 0)"
   stroke-linecap="butt"
   stroke-linejoin="miter"
   stroke-width="0.35"
   transform="scale(1, -1)"
  >
<path d="M-4.76455 -1.87218 A6.38571 6.38571 0 0 1 -3.67153 -4.57465" /><path d="M2.126 5.46696 A6.38571 6.38571 0 0 1 -4.76457 0.0874798" /><path id= "3" d=" M 1.09808 -4.09808 L 2.4202 -4.86141 " />
<path id= "4" d=" M 4.09808 1.09808 L 5.4202 0.334746 " />
<path id= "5" d=" M 4.5566 -4.3454 L 3.9202 -4.71282 " />
<path id= "6" d=" M 3.94152 -4.70051 L 4.12118 -4.80424 " />
<path id= "7" d=" M 6.93702 -1.58022 L 7.1404 -1.69764 " />
<path id= "8" d=" M 5.29662 -5.48288 L 5.95965 -5.86567 " />
<path id= "9" d=" M 8.77549 -2.64166 L 8.97886 -2.75908 " />
<path id= "10" d=" M 7.13509 -6.54432 L 7.79811 -6.92711 " />
<path id= "11" d=" M 10.614 -3.7031 L 10.8505 -3.83967 " />
<path d="M11.2865, -4.11985 Q11.071, -3.90549 10.7855, -3.80216 " /><path id= "13" d=" M 12.8142 -6.28505 L 12.1086 -5.2861 " />
<path id= "14" d=" M 10.4165 -7.82357 L 9.6982 -7.75775 " />
<path d="M9.8629, -7.73566 Q9.77531, -7.75219 9.68698, -7.7586  Q9.61961, -7.76348 9.55235, -7.76225  Q9.23719, -7.7563 8.95706, -7.61827 " /><path d="M12.8667, -8.03993 Q12.8575, -8.08675 12.8472, -8.11789  Q12.8318, -8.16151 12.83, -8.16232 " /><path id= "17" d=" M 14.1421 -8.16497 L 13.2494 -6.90108 " />
<path id= "18" d=" M 14.1421 -8.16497 L 13.1252 -8.07178 " />
<path id= "19" d=" M 12.8652 -8.04795 L 11.0528 -7.88188 " />
<path d="M12.8321, -8.22892 Q12.8943, -8.19231 12.9632, -8.15552  Q13.0431, -8.11256 13.1349, -8.07267 " /><path d="M13.241, -7.18987 Q13.2297, -7.30332 13.226, -7.40581 " /></g>
<g   fill="none"
   stroke="rgb(0, 0, 0)"
   stroke-linecap="butt"
   stroke-linejoin="miter"
   stroke-width="0.35"
   transform="scale(1, -1)"
  >
<path d="M-4.76456 -1.87214 A6.3354 3.65775 3.11665e-15 0 0 2.20941 2.0921" />
<path d="M-4.78749 -1.64575 A4.98913 2.88048 -120 0 0 -4.75499 -0.622405" />
<path d="M-4.75499 -0.622405 A6.3354 3.65775 3.11665e-15 0 0 -4.76457 0.0874811" />
<path d="M-4.76457 0.0874811 A6.3354 3.65775 3.11665e-15 0 0 2.20941 3.39849" />
<path d="M2.20941 3.39849 A4.98913 2.88048 -120 0 0 2.25506 2.77165" />
<path d="M4.24264 2.44949 A6 3.4641 60 0 1 2.126 5.46696" />
<path d="M-3.67153 -4.57465 A6 3.4641 60 0 1 4.24264 2.44949" />
<path d="M2.25506 2.77165 A4.98913 2.88048 -120 0 0 2.20941 2.0921" />
<path id= "9" d=" M -4.75499 -0.622405 L -4.51806 -0.485614 " />
<path id= "10" d=" M -0.290263 1.95531 L 2.20941 3.39849 " />
<path d="M6.04152 -1.03859 A3 1.73205 60 0 1 5.4202 0.334746" />
<path d="M2.4202 -4.86141 A3 1.73205 60 0 1 3.9202 -4.71282" />
<path d="M3.9202 -4.71282 A3 1.73205 60 0 1 6.04152 -1.03859" />
<path d="M4.5566 -4.3454 A2.1 1.21244 60 0 1 5.9932 -2.23519" />
<path d="M6.04152, -1.71864 Q6.04128, -1.9712 5.9932, -2.23519 " /><path id= "16" d=" M 6.04152 -1.03859 L 6.04152 -1.71864 " />
<path d="M4.12118, -4.80424 C4.22107, -4.86131 4.34165, -4.87085 4.48294, -4.83285  C4.70954, -4.77142 4.97502, -4.57789 5.21756, -4.28209  C5.63624, -3.78052 5.96773, -2.9736 5.9932, -2.23519 " /><path d="M3.6357, -4.85495 C3.63815, -5.19445 3.72781, -5.46812 3.88828, -5.64011  C4.04816, -5.81296 4.27837, -5.88366 4.5458, -5.84046  C4.81291, -5.79821 5.11651, -5.64211 5.41473, -5.38739  C5.71301, -5.1335 6.00511, -4.78151 6.25055, -4.36998  C6.74665, -3.54855 7.03205, -2.48879 6.94168, -1.62437  C6.89956, -1.19176 6.76921, -0.808815 6.56036, -0.517767  C6.35216, -0.225948 6.06583, -0.0266252 5.72967, 0.0598237 " /><path d="M7.80514, -2.79166 C7.73012, -2.297 7.49339, -1.89886 7.1404, -1.69764 " /><path d="M5.95965, -5.86567 C6.05953, -5.92275 6.18012, -5.93229 6.32142, -5.89429  C6.58441, -5.82351 6.89977, -5.57266 7.17085, -5.19406  C7.36675, -4.92202 7.5388, -4.58622 7.6569, -4.22788  C7.81565, -3.75021 7.87502, -3.23455 7.80514, -2.79166 " /><path d="M5.49451, -5.59725 C5.43949, -6.01757 5.49687, -6.37205 5.64996, -6.6033  C5.80206, -6.83584 6.04911, -6.94412 6.34615, -6.90727  C6.64268, -6.87194 6.98791, -6.6915 7.3222, -6.38819  C7.65662, -6.08616 7.97867, -5.66226 8.2322, -5.17505  C8.48644, -4.68848 8.67103, -4.14027 8.7503, -3.6075  C8.83067, -3.07456 8.80524, -2.55889 8.66967, -2.13275  C8.53525, -1.70567 8.29098, -1.36957 7.96519, -1.1699  C7.64025, -0.968806 7.23477, -0.90476 6.80113, -0.982623 " /><path d="M9.64361, -3.8531 C9.56859, -3.35844 9.33185, -2.9603 8.97886, -2.75908 " /><path d="M7.79811, -6.92711 C7.898, -6.98419 8.01859, -6.99372 8.1599, -6.95572  C8.38877, -6.89368 8.6573, -6.6968 8.9018, -6.39603  C9.1408, -6.10371 9.35519, -5.71403 9.49439, -5.29226  C9.65386, -4.81376 9.71363, -4.29691 9.64361, -3.8531 " /><path d="M7.33302, -6.65859 L7.33298, -6.65869 " /><path d="M7.33298, -6.65869 C7.27795, -7.07901 7.33534, -7.43349 7.48843, -7.66475  C7.64053, -7.89728 7.88758, -8.00557 8.18462, -7.96872  C8.48115, -7.93338 8.82638, -7.75294 9.16067, -7.44963  C9.49509, -7.1476 9.81714, -6.7237 10.0707, -6.23649  C10.3249, -5.74993 10.5095, -5.20171 10.5888, -4.66894  C10.6691, -4.136 10.6437, -3.62033 10.5081, -3.19419  C10.3737, -2.76711 10.1295, -2.43101 9.80366, -2.23134  C9.47872, -2.03024 9.07324, -1.9662 8.6396, -2.04406 " /><path d="M5.49452, -5.59714 L5.49451, -5.59725 " /><path d="M11.2854 -4.801 A2.1 1.21244 60 0 1 10.8505 -3.83967" />
<path d="M10.4165, -7.82357 C10.6045, -7.84428 10.9082, -7.6285 11.1707, -7.22961  C11.5166, -6.71773 11.7653, -5.90984 11.7026, -5.21161 " /><path d="M10.0973, -7.79432 C10.1076, -7.96861 10.174, -8.09791 10.2864, -8.15638  C10.3983, -8.21544 10.5559, -8.20319 10.736, -8.1103  C11.0954, -7.9309 11.5438, -7.40452 11.8244, -6.70046  C12.1094, -6.00282 12.2074, -5.14878 11.9903, -4.49912  C11.8844, -4.17405 11.7044, -3.90116 11.4611, -3.7158  C11.2184, -3.52973 10.9126, -3.43181 10.5716, -3.4373 " /><path d="M7.333, -6.65858 L7.33298, -6.65869 " /><path d="M11.6991, -5.13459 C11.6739, -4.72538 11.5299, -4.36115 11.2865, -4.11985 " /><path d="M11.7026, -5.21161 L11.6991, -5.13459 " /><path d="M9.02196 -7.56789 A2.1 1.21244 60 0 1 11.2854 -4.801" />
<path d="M13.0194, -6.77491 C12.9825, -6.59748 12.9147, -6.42686 12.8142, -6.28505 " /><path d="M9.8629 -7.73566 A1.97335 1.13932 60 0 1 11.7026 -5.21161" />
<path d="M12.8667, -8.03993 C12.8717, -8.01181 12.9359, -7.8895 12.9898, -7.67564  C13.05, -7.44229 13.0887, -7.1004 13.0194, -6.77491 " /><path d="M12.8328, -8.15634 C12.7948, -8.21567 12.7968, -8.24964 12.8321, -8.22892 " /><path d="M12.8321, -8.22892 C12.872, -8.20619 12.9568, -8.10714 13.0429, -7.92569  C13.1286, -7.74616 13.213, -7.48448 13.241, -7.18987 " /><path d="M13.241, -7.18987 C13.2719, -6.87613 13.2344, -6.52814 13.0931, -6.2465  C12.9542, -5.96392 12.7102, -5.75348 12.3933, -5.68915 " /><path d="M13.1252, -8.07178 C13.1125, -8.07142 13.1102, -8.05516 13.1182, -8.02301  C13.1368, -7.94066 13.2166, -7.7129 13.226, -7.40581 " /></g>

</svg>
