<svg xmlns="http://www.w3.org/2000/svg" viewBox="-3.544 -7.744 25.288 15.488">
<rect width="100%" height="100%" fill="white"/>
<g   fill="none"
   stroke="rgb(0, 0, 0)"
   stroke-linecap="butt"
   stroke-linejoin="miter"
   stroke-width="0.35"
   transform="scale(1, -1)"
  >
<path d="M-1.8 -4.98913 A6.38571 6.38571 0 0 1 6.30607e-14 -6" /><path id= "2" d=" M 0 -3 L 5.544 -3 " />
<path id= "3" d=" M 6.444 -2.1 L 5.544 -3 " />
<path d="M7.50208, -1.98745 Q7.77611, -2.43778 8.04245, -2.88713 " /><path d="M6.74244, 2.8871 Q6.54117, 2.54788 6.33598, 2.20802 " /><path d="M6.93841, 2.88711 Q7.20478, 2.43776 7.47883, 1.98743 " /><path id= "7" d=" M 6.444 -2.1 L 7.57056 -2.1 " />
<path d="M10.1021, -1.98745 Q10.3761, -2.43778 10.6424, -2.88713 " /><path d="M9.34243, 2.88711 Q9.10926, 2.49396 8.87053, 2.1 " /><path id= "10" d=" M 8.64273 -2.1 L 10.1705 -2.1 " />
<path d="M9.5384, 2.88711 Q9.80476, 2.43776 10.0788, 1.98743 " /><path d="M8.23838, -2.88714 Q8.47157, -2.49397 8.71031, -2.1 " /><path d="M12.702, -1.98745 Q12.9761, -2.43779 13.2424, -2.88714 " /><path d="M11.9424, 2.88711 Q11.7092, 2.49396 11.4705, 2.1 " /><path id= "15" d=" M 11.2427 -2.1 L 12.7705 -2.1 " />
<path d="M12.1384, 2.88711 Q12.4048, 2.43776 12.6788, 1.98743 " /><path d="M10.8384, -2.88714 Q11.0716, -2.49397 11.3103, -2.1 " /><path d="M15.6997, -1.18255 Q15.7896, -1.35476 15.8744, -1.53162 " /><path d="M14.5578, 2.23357 L14.4516, 2.04039 " /><path id= "20" d=" M 13.8427 -2.1 L 13.86 -2.1 " />
<path d="M14.8393, 2.27358 Q15.0442, 1.96506 15.2549, 1.65509 " /><path d="M13.4273, -2.87743 Q13.6551, -2.49233 13.8883, -2.10565 " /><path id= "23" d=" M 15.8621 -1.50609 L 14.5783 -1.97335 " />
<path d="M14.5783, -1.97335 C14.3674, -2.10697 14.1038, -2.15346 13.86, -2.1 " /><path d="M18.2968, -0.0833933 Q18.3176, -0.109978 18.3377, -0.144599 " /><path id= "26" d=" M 20 -1.18111e-12 L 17.9732 0.737692 " />
<path id= "27" d=" M 20 1.18111e-12 L 19.2302 -0.280184 " />
<path id= "28" d=" M 18.6186 -0.502774 L 16.5086 -1.27077 " />
<path id= "29" d=" M 16.5086 -1.27077 L 16.5086 -1.27077 " />
<path d="M17.6858, 1.05251 Q17.8751, 0.83974 18.0768, 0.628494 " /><path d="M16.2561, -1.66688 Q16.4162, -1.45611 16.5811, -1.24438 " /></g>
<g   fill="none"
   stroke="rgb(0, 0, 0)"
   stroke-linecap="butt"
   stroke-linejoin="miter"
   stroke-width="0.35"
   transform="scale(1, -1)"
  >
<path d="M-1.8 -4.92457 A6.3354 6.3354 0 0 0 -1.8 4.92457" /><path d="M-1.8, -4.92457 Q-1.8, -4.98893 -1.8, -4.98913 " /><path d="M-1.8 4.98913 A6.38571 6.38571 0 0 0 6.35048e-14 6" /><path d="M-4.44089e-16, -6 L-4.44089e-16, -5.84957  L-4.44089e-16, -5.40581  L-4.44089e-16, -4.69099  L-4.44089e-16, -3.74094  L-4.44089e-16, -2.6033  L-4.44089e-16, -1.33513  L-4.44089e-16, -1.11022e-15  L-4.44089e-16, 1.33513  L-4.44089e-16, 2.6033  L-4.44089e-16, 3.74094  L-4.44089e-16, 4.69099  L-4.44089e-16, 5.40581  L-4.44089e-16, 5.84957  L-4.44089e-16, 6 " /><path d="M-1.8, 4.98913 Q-1.8, 4.98893 -1.8, 4.92457 " /><path id= "6" d=" M 0 3 L 5.544 3 " />
<path d="M5.544, -3 L5.544, -2.92478  L5.544, -2.70291  L5.544, -2.34549  L5.544, -1.87047  L5.544, -1.30165  L5.544, -0.667563  L5.544, -5.55112e-16  L5.544, 0.667563  L5.544, 1.30165  L5.544, 1.87047  L5.544, 2.34549  L5.544, 2.70291  L5.544, 2.92478  L5.544, 3 " /><path d="M6.444, -2.1 Q6.444, -2.07777 6.444, -2.05554  Q6.444, -1.9898 6.444, -1.92406  Q6.444, -1.81759 6.444, -1.71112  Q6.444, -1.56842 6.444, -1.42573  Q6.444, -1.25285 6.444, -1.07997  Q6.444, -0.884235 6.444, -0.688497  Q6.444, -0.478183 6.444, -0.26787  Q6.444, 0.166046 6.444, 0.589119  Q6.444, 0.789158 6.444, 0.989197  Q6.444, 1.1683 6.444, 1.34739  Q6.444, 1.49797 6.444, 1.64855  Q6.444, 1.76422 6.444, 1.8799  Q6.444, 1.95578 6.444, 2.03166 " /><path d="M6.3769, 2.1671 Q6.41011, 2.13354 6.444, 2.03166 " /><path id= "10" d=" M 5.544 3 L 6.3769 2.1671 " />
<path d="M7.50208, -1.98745 C7.42287, -1.85817 7.34363, -1.61634 7.26439, -1.30008  C7.17522, -0.94519 7.08608, -0.497242 6.99694, -0.0445782  C6.87551, 0.572923 6.75402, 1.18984 6.63255, 1.59056  C6.56969, 1.80161 6.50685, 1.94864 6.444, 2.03166 " /><path d="M8.14042, -2.96999 Q8.09144, -2.96984 8.04245, -2.88713 " /><path d="M8.04245, -2.88713 C7.95046, -2.73373 7.85844, -2.35757 7.76643, -1.83736  C7.67443, -1.31921 7.58243, -0.660845 7.49043, -2.14544e-05  C7.39843, 0.660802 7.30643, 1.31918 7.21442, 1.83734  C7.12241, 2.35756 7.03041, 2.73372 6.93841, 2.88711 " /><path d="M6.93841, 2.88711 Q6.84042, 3.05275 6.74244, 2.8871 " /><path d="M8.64272, -2.1 C8.53324, -2.10232 8.42365, -1.87064 8.31413, -1.47199  C8.24423, -1.21918 8.17433, -0.902066 8.10443, -0.559958  C8.03413, -0.216159 7.96384, 0.152065 7.89354, 0.498594  C7.75531, 1.18388 7.61707, 1.76536 7.47883, 1.98743 " /><path id= "16" d=" M 7.41033 2.1 L 8.93814 2.1 " />
<path d="M10.1021, -1.98745 C9.98559, -1.79895 9.86904, -1.35998 9.75256, -0.812724  C9.65144, -0.33968 9.55034, 0.207409 9.44921, 0.691899  C9.37621, 1.04195 9.30319, 1.35829 9.23018, 1.5983  C9.13282, 1.92018 9.03548, 2.10147 8.93814, 2.1 " /><path d="M10.7404, -2.97 Q10.6914, -2.96984 10.6424, -2.88713 " /><path d="M10.6424, -2.88713 C10.5504, -2.73374 10.4584, -2.35758 10.3664, -1.83737  C10.2744, -1.31922 10.1824, -0.660856 10.0904, -3.08662e-05  C9.99842, 0.660793 9.90642, 1.31918 9.81441, 1.83734  C9.7224, 2.35756 9.6304, 2.73372 9.5384, 2.88711 " /><path d="M9.5384, 2.88711 Q9.44041, 3.05275 9.34243, 2.88711 " /><path d="M8.23838, -2.88714 Q8.1894, -2.96984 8.14042, -2.96999 " /><path d="M8.64273, -2.1 L8.64272, -2.1 " /><path id= "23" d=" M 10.0103 2.1 L 11.5381 2.1 " />
<path d="M11.2427, -2.1 C11.1332, -2.10232 11.0236, -1.87064 10.9141, -1.47199  C10.8442, -1.21919 10.7743, -0.90208 10.7044, -0.559975  C10.5833, 0.0326939 10.4622, 0.696048 10.3411, 1.19958  C10.2537, 1.56455 10.1662, 1.84493 10.0788, 1.98743 " /><path d="M12.702, -1.98745 C12.5856, -1.79895 12.469, -1.35997 12.3525, -0.812695  C12.2645, -0.401014 12.1765, 0.0667265 12.0885, 0.500497  C12.0026, 0.924425 11.9167, 1.31356 11.8308, 1.59633  C11.7332, 1.91942 11.6357, 2.10148 11.5381, 2.1 " /><path d="M13.3404, -2.97 Q13.2914, -2.96985 13.2424, -2.88714 " /><path d="M13.2424, -2.88714 C13.1504, -2.73375 13.0584, -2.35759 12.9664, -1.83738  C12.8744, -1.31923 12.7824, -0.660866 12.6904, -4.02781e-05  C12.5984, 0.660785 12.5064, 1.31917 12.4144, 1.83733  C12.3224, 2.35756 12.2304, 2.73372 12.1384, 2.88711 " /><path d="M12.1384, 2.88711 Q12.0404, 3.05275 11.9424, 2.88711 " /><path d="M10.8384, -2.88714 Q10.7894, -2.96985 10.7404, -2.97 " /><path d="M11.2427, -2.1 L11.2427, -2.1 " /><path id= "31" d=" M 12.6103 2.1 L 13.86 2.1 " />
<path d="M13.3404, -2.97 L13.8427, -2.1 " /><path d="M13.8427, -2.1 C13.7332, -2.10232 13.6236, -1.87065 13.5141, -1.472  C13.4442, -1.2192 13.3743, -0.902093 13.3044, -0.559992  C13.1835, 0.0316092 13.0626, 0.693662 12.9418, 1.19686  C12.8541, 1.56314 12.7665, 1.84458 12.6788, 1.98743 " /><path d="M15.6997, -1.18255 C15.4972, -0.801049 15.3015, -0.00654717 15.1117, 0.68605  C15.042, 0.93939 14.9731, 1.17698 14.9049, 1.37552  C14.7941, 1.69997 14.6852, 1.916 14.5783, 1.97175 " /><path d="M16.1506, -1.75981 Q16.0125, -1.82048 15.8744, -1.53162 " /><path d="M15.8744, -1.53162 C15.7881, -1.35269 15.7018, -1.07237 15.6156, -0.72818  C15.5293, -0.38491 15.4431, 0.0210161 15.3568, 0.425731  C15.1843, 1.23886 15.0118, 2.02065 14.8393, 2.27358 " /><path d="M14.8393, 2.27358 Q14.6986, 2.49011 14.5578, 2.23357 " /><path d="M13.4273, -2.87743 Q13.3838, -2.95105 13.3404, -2.97 " /><path d="M14.5783, 1.97175 L14.561, 1.98392 " /><path d="M13.86, -2.1 L13.86, -2.04735  L13.86, -1.89203  L13.86, -1.64185  L13.86, -1.30933  L13.86, -0.911156  L13.86, -0.467294  L13.86, -3.88578e-16  L13.86, 0.467294  L13.86, 0.911156  L13.86, 1.30933  L13.86, 1.64185  L13.86, 1.89203  L13.86, 2.04735  L13.86, 2.1 " /><path d="M13.86 2.1 A0.967368 0.967368 0 0 0 14.561 1.98392" /><path d="M16.5086, -1.27077 C16.3917, -1.31494 16.2768, -1.21337 16.164, -0.987251  C16.0659, -0.792352 15.9693, -0.506653 15.8742, -0.188212  C15.7299, 0.29493 15.589, 0.844789 15.4512, 1.22805  C15.3851, 1.41534 15.3197, 1.55769 15.2549, 1.65509 " /><path id= "43" d=" M 15.19 1.7507 L 17.5037 0.90859 " />
<path d="M14.5783, -1.97335 L14.5783, -1.92514  L14.5783, -1.78284  L14.5783, -1.55342  L14.5783, -1.24808  L14.5783, -0.88175  L14.5783, -0.47233  L14.5783, -0.0398285  L14.5783, 0.39462  L14.5783, 0.809783  L14.5783, 1.18537  L14.5783, 1.50304  L14.5783, 1.74725  L14.5783, 1.90607  L14.5783, 1.97175 " /><path d="M18.2968, -0.0833933 C18.1852, 0.0587581 18.0748, 0.237283 17.9658, 0.404558  C17.8087, 0.646768 17.6546, 0.855584 17.5037, 0.90859 " /><path d="M18.9608, -0.549615 C18.857, -0.59794 18.7531, -0.589565 18.6493, -0.524488  C18.5454, -0.457683 18.4415, -0.324337 18.3377, -0.144599 " /><path d="M18.3377, -0.144599 C18.1204, 0.226251 17.9031, 0.809882 17.6858, 1.05251 " /><path d="M17.6858, 1.05251 C17.5412, 1.21735 17.3965, 1.21646 17.2519, 1.00023 " /><path d="M16.2561, -1.66688 Q16.2033, -1.73669 16.1506, -1.75981 " /><path d="M16.5086, -1.27077 L16.5086, -1.27077 " /><path id= "51" d=" M 17.9732 0.737692 L 20 -2.33432e-12 " />
<path d="M19.2302, -0.280184 C19.1236, -0.319478 19.017, -0.329554 18.9113, -0.29056  C18.8037, -0.24936 18.6968, -0.165387 18.5906, -0.0386419  C18.4167, 0.162364 18.2453, 0.453652 18.0768, 0.628494 " /><path d="M18.9608, -0.549615 L19.2302, -0.280184 " /></g>

</svg>
