<svg xmlns="http://www.w3.org/2000/svg" viewBox="-6.96 -6.96 13.92 13.92">
<rect width="100%" height="100%" fill="white"/>
<g   fill="none"
   stroke="rgb(0, 0, 0)"
   stroke-linecap="butt"
   stroke-linejoin="miter"
   stroke-width="0.35"
   transform="scale(1, -1)"
  >
<path d="M-4.92457, -0.8 L-4.37919, -0.8  L-3.76304, -0.8  L-3.0861, -0.8  L-2.35929, -0.8  L-1.59436, -0.8  L-0.803673, -0.8  L1.46549e-14, -0.8  L0.803673, -0.8  L1.59436, -0.8  L2.35929, -0.8  L3.0861, -0.8  L3.76304, -0.8  L4.37919, -0.8  L4.92457, -0.8 " /><path d="M-4.92457 -0.8 A4.98913 4.98913 0 0 0 -4.92457 0.8" /><path d="M-4.92457, 0.8 L-4.37919, 0.8  L-3.76304, 0.8  L-3.0861, 0.8  L-2.35929, 0.8  L-1.59436, 0.8  L-0.803673, 0.8  L1.46549e-14, 0.8  L0.803673, 0.8  L1.59436, 0.8  L2.35929, 0.8  L3.0861, 0.8  L3.76304, 0.8  L4.37919, 0.8  L4.92457, 0.8 " /><path d="M4.92457 0.8 A4.98913 4.98913 0 0 0 4.98913 1.22198e-15" /><circle cx ="0" cy ="0" r ="6" /><path d="M4.98913 0 A4.98913 4.98913 0 0 0 4.92457 -0.8" /></g>

</svg>
