<svg xmlns="http://www.w3.org/2000/svg" viewBox="-5.902731999999999 -7.2620819999999995 11.068203999999998 13.381063999999999">
<rect width="100%" height="100%" fill="white"/>
<g   fill="none"
   stroke="rgb(0, 0, 0)"
   stroke-linecap="butt"
   stroke-linejoin="miter"
   stroke-width="0.35"
   transform="scale(1, -1)"
  >
<path id= "1" d=" M 3 5.19615 L 1.0201 6.33925 " />
<path id= "2" d=" M -3 -5.19615 L -4.9799 -4.05306 " />
</g>
<g   fill="none"
   stroke="rgb(0, 0, 0)"
   stroke-linecap="butt"
   stroke-linejoin="miter"
   stroke-width="0.35"
   transform="scale(1, -1)"
  >
<path d="M1.08149 3.24015 A3.55 2.04959 60 0 1 -2.26531 -2.55668" />
<path d="M4.24264 2.44949 A6 3.4641 60 0 1 3 5.19615" />
<path d="M-3 -5.19615 A6 3.4641 60 0 1 4.24264 2.44949" />
<path d="M2.26274 3.59258 A6 3.4641 60 0 1 1.0201 6.33925" />
<path d="M1.0201 6.33925 A6 3.4641 60 0 1 -4.9799 -4.05306" />
<path d="M-4.9799 -4.05306 A6 3.4641 60 0 1 2.26274 3.59258" />
<g transform = "rotate(60, -1.9799, 1.1431)">
<ellipse cx ="-1.9799" cy ="1.1431" rx ="5.5"  ry ="3.17543"/>
</g>
<path d="M1.32641 2.13276 A3.55 2.04959 60 0 1 0.591185 3.75787" />
<path d="M0.591185 3.75787 A3.55 2.04959 60 0 1 -2.95881 -2.39091" />
<path d="M-2.95881 -2.39091 A3.55 2.04959 60 0 1 1.32641 2.13276" />
</g>

</svg>
