<svg xmlns="http://www.w3.org/2000/svg" viewBox="-9.25862 -8.99765 14.583889999999998 15.72438">
<rect width="100%" height="100%" fill="white"/>
<g   fill="none"
   stroke="rgb(0, 0, 0)"
   stroke-linecap="butt"
   stroke-linejoin="miter"
   stroke-width="0.35"
   transform="scale(1, -1)"
  >
<path d="M-1.89259, 3.26792 C-1.79593, 2.75768 -1.93987, 2.03191 -2.28056, 1.32855 " /><g transform = "rotate(60, -3.93335, 2.27092)">
<ellipse cx ="-3.93335" cy ="2.27092" rx ="3.4925"  ry ="2.0164"/>
</g>
<path d="M-1.89259, 3.26792 Q-1.9378, 3.51255 -2.04786, 3.68213 " /><path d="M-2.04786 3.68213 A2.48759 1.43621 60 0 1 -2.49916 4.31531" />
<path d="M-2.49916 4.31531 A2.48759 1.43621 60 0 1 -4.21235 3.84744" />
<path d="M-3.86593, -0.351984 C-4.40744, -0.633946 -4.92873, -0.654679 -5.2852, -0.404332  C-5.61371, -0.179634 -5.80019, 0.269826 -5.79215, 0.834346  C-5.7876, 1.35366 -5.61673, 1.96619 -5.31441, 2.52721  C-5.03214, 3.05536 -4.63562, 3.53296 -4.21235, 3.84744 " /><path d="M-2.28056, 1.32855 Q-2.28848, 1.31208 -2.2991, 1.29153 " /><path d="M-2.2991, 1.29153 C-2.3117, 1.26716 -2.32647, 1.23993 -2.3434, 1.20984  C-2.43794, 1.04154 -2.57879, 0.82845 -2.73301, 0.634557  C-2.85579, 0.479421 -2.98622, 0.334638 -3.1243, 0.20021  C-3.37077, -0.0404655 -3.63777, -0.235021 -3.86593, -0.351984 " /><path d="M-2.17226, 3.98215 C-2.57169, 4.00468 -3.03713, 3.83315 -3.4697, 3.51123  C-3.87543, 3.21166 -4.24959, 2.78318 -4.52272, 2.31622  C-4.82775, 1.79858 -5.00485, 1.23805 -5.01896, 0.777491  C-5.03623, 0.306781 -4.88448, -0.054801 -4.61137, -0.210048 " /><path d="M-4.61137, -0.210048 C-4.3937, -0.336749 -4.1009, -0.332001 -3.78694, -0.193859  C-3.47792, -0.05929 -3.1499, 0.204054 -2.86102, 0.555798  C-2.56429, 0.915436 -2.31032, 1.36657 -2.14748, 1.83472  C-1.98999, 2.2845 -1.9173, 2.74804 -1.94534, 3.15425 " /><path d="M-2.42987, 4.27059 C-2.61787, 4.35719 -2.82773, 4.38873 -3.05946, 4.3652  C-3.4283, 4.32805 -3.83524, 4.14338 -4.21235, 3.84744 " /><path d="M-1.94534, 3.15425 Q-1.96479, 3.44153 -2.04786, 3.68213 " /><path d="M-0.0449013 4.51592 A5.4991 3.17491 60 0 1 -0.565855 6.46015" />
<path d="M-0.565855 1.97015 A5.4991 3.17491 60 0 1 -0.0449013 4.51592" />
<path d="M-3.93335 -2.21907 A5.4991 3.17491 60 0 1 -0.565855 1.97015" />
<path d="M-7.30085 -1.9183 A5.4991 3.17491 60 0 1 -3.93335 -2.21907" />
<path d="M-7.30085 2.57169 A5.4991 3.17491 60 0 1 -7.30085 -1.9183" />
<path d="M-3.93335 6.76092 A5.4991 3.17491 60 0 1 -7.30085 2.57169" />
<path d="M-0.565855 6.46015 A5.4991 3.17491 60 0 1 -3.93335 6.76092" />
<path d="M-2.1068, 3.85133 C-2.46258, 3.82887 -2.8577, 3.66593 -3.22936, 3.39328  C-3.6158, 3.11145 -3.97494, 2.71251 -4.24611, 2.27308  C-4.56885, 1.7537 -4.76419, 1.18167 -4.79168, 0.706566  C-4.81894, 0.274411 -4.70935, -0.0747529 -4.49264, -0.26362 " /><path d="M-1.96483, 3.33693 C-2.58555, 3.09631 -3.22376, 2.49163 -3.6292, 1.79005  C-3.93099, 1.27544 -4.10629, 0.719209 -4.12086, 0.261382  C-4.12765, 0.0568884 -4.10513, -0.123702 -4.05331, -0.28039 " /><path d="M-0.565855, 6.46015 C-0.209012, 5.95315 0.225821, 5.4013 0.805812, 4.71937 " /><path d="M-3.93335, 6.76092 C-3.22045, 7.17161 -2.42977, 7.5369 -1.43919, 7.91321 " /><path d="M-1.43919, 7.91321 C-1.19799, 7.42688 -0.921131, 6.96624 -0.565855, 6.46015 " /><path d="M-7.30085, 2.57169 C-6.94401, 3.48893 -6.50917, 4.36046 -5.92918, 5.32091 " /><path d="M-5.92918, 5.32091 C-5.27739, 5.89283 -4.64469, 6.34932 -3.93335, 6.76092 " /><path d="M-7.30085, -1.9183 C-7.65613, -1.41221 -7.93298, -0.951569 -8.17418, -0.465236 " /><path d="M-8.17418, -0.465236 C-7.93298, 0.690814 -7.65613, 1.65355 -7.30085, 2.57169 " /><path d="M-5.92918, -3.65908 C-6.50917, -2.97715 -6.94401, -2.4253 -7.30085, -1.9183 " /><path d="M-3.93335, -2.21907 C-4.64469, -2.63067 -5.27739, -3.08717 -5.92918, -3.65908 " /><path d="M-1.43919, -1.06678 C-2.42977, -1.4431 -3.22045, -1.80838 -3.93335, -2.21907 " /><path d="M-0.565855, 1.97015 C-0.921131, 1.05201 -1.19799, 0.0892686 -1.43919, -1.06678 " /><path d="M0.805812, 4.71937 C0.225821, 3.75892 -0.209012, 2.88739 -0.565855, 1.97015 " /><path d="M-1.94302, 3.11549 C-2.47168, 2.84846 -2.99206, 2.33619 -3.35241, 1.7476  C-3.77636, 1.06564 -3.97054, 0.297598 -3.87385, -0.228794 " /><path d="M-2.05169, 2.14957 C-2.58801, 1.62567 -3.00199, 0.893873 -3.15265, 0.242644 " /><path d="M4.24083, 2.73616 C3.99963, 3.22249 3.72277, 3.68313 3.3675, 4.18922 " /><path id= "37" d=" M 0.805812 4.71937 L 4.24083 2.73616 " />
<path id= "38" d=" M 1.99583 5.93 L -1.43919 7.91321 " />
<path d="M3.3675, 4.18922 C3.01065, 4.69622 2.57582, 5.24807 1.99583, 5.93 " /><path id= "40" d=" M -2.49417 -5.64229 L -5.92918 -3.65908 " />
<path d="M-2.49417, -5.64229 C-1.50358, -5.26597 -0.712902, -4.90069 -2.59479e-10, -4.49 " /><path id= "42" d=" M 1.99583 -3.04999 L -1.43919 -1.06678 " />
<path d="M-2.59479e-10, -4.49 C0.711335, -4.0784 1.34403, -3.6219 1.99583, -3.04999 " /><path d="M1.99583, -3.04999 C2.57582, -2.08954 3.01065, -1.21801 3.3675, -0.300773 " /><path d="M3.3675, -0.300773 C3.72277, 0.617369 3.99963, 1.58011 4.24083, 2.73616 " /><path d="M-2.29323, 1.47199 Q-2.53737, 1.12873 -2.70458, 0.759491 " /></g>

</svg>
