<svg xmlns="http://www.w3.org/2000/svg" viewBox="-6.5785696 -7.3657796 7.5945392000001 14.7315592">
<rect width="100%" height="100%" fill="white"/>
<g   fill="none"
   stroke="rgb(0, 0, 0)"
   stroke-linecap="butt"
   stroke-linejoin="miter"
   stroke-width="0.35"
   transform="scale(1, -1)"
  >
<path id= "1" d=" M -5.5626 -5.4991 L -5.21022 -6.34981 " />
<path id= "2" d=" M 1.00189e-13 -5.4991 L -0.352377 -6.34981 " />
</g>
<g   fill="none"
   stroke="rgb(0, 0, 0)"
   stroke-linecap="butt"
   stroke-linejoin="miter"
   stroke-width="0.35"
   transform="scale(1, -1)"
  >
<path d="M-5.5626, 4.76236 C-5.5626, 5.00148 -5.5626, 5.18655 -5.5626, 5.31172  C-5.5626, 5.34613 -5.5626, 5.37663 -5.5626, 5.40323  C-5.5626, 5.42762 -5.5626, 5.44805 -5.5626, 5.46452  C-5.5626, 5.47876 -5.5626, 5.489 -5.5626, 5.49525  C-5.5626, 5.49654 -5.5626, 5.49782 -5.5626, 5.4991 " /><path d="M-5.5626, -3.66959e-10 Q-5.5626, 0.411593 -5.5626, 0.819598  Q-5.5626, 1.22558 -5.5626, 1.62089  Q-5.5626, 1.81497 -5.5626, 2.00905  Q-5.5626, 2.19751 -5.5626, 2.38597  Q-5.5626, 2.56776 -5.5626, 2.74955  Q-5.5626, 2.92365 -5.5626, 3.09775  Q-5.5626, 3.26319 -5.5626, 3.42863  Q-5.5626, 3.58449 -5.5626, 3.74034  Q-5.5626, 3.88573 -5.5626, 4.03113  Q-5.5626, 4.16525 -5.5626, 4.29937  Q-5.5626, 4.42147 -5.5626, 4.54357  Q-5.5626, 4.65296 -5.5626, 4.76236 " /><path d="M-5.5626, -4.76236 C-5.5626, -4.68943 -5.5626, -4.6165 -5.5626, -4.54357  C-5.5626, -4.46217 -5.5626, -4.38077 -5.5626, -4.29937  C-5.5626, -4.20995 -5.5626, -4.12054 -5.5626, -4.03113  C-5.5626, -3.9342 -5.5626, -3.83727 -5.5626, -3.74034  C-5.5626, -3.63644 -5.5626, -3.53253 -5.5626, -3.42863  C-5.5626, -3.31834 -5.5626, -3.20805 -5.5626, -3.09775  C-5.5626, -2.98169 -5.5626, -2.86562 -5.5626, -2.74955  C-5.5626, -2.62836 -5.5626, -2.50716 -5.5626, -2.38597  C-5.5626, -2.26033 -5.5626, -2.13469 -5.5626, -2.00905  C-5.5626, -1.87966 -5.5626, -1.75027 -5.5626, -1.62089  C-5.5626, -1.48848 -5.5626, -1.35607 -5.5626, -1.22366  C-5.5626, -0.821437 -5.5626, -0.411573 -5.5626, -3.66959e-10 " /><path d="M-5.5626, -5.4991 C-5.5626, -5.49782 -5.5626, -5.49654 -5.5626, -5.49525  C-5.5626, -5.489 -5.5626, -5.47876 -5.5626, -5.46452  C-5.5626, -5.44805 -5.5626, -5.42762 -5.5626, -5.40323  C-5.5626, -5.37663 -5.5626, -5.34613 -5.5626, -5.31172  C-5.5626, -5.18655 -5.5626, -5.00148 -5.5626, -4.76236 " /><path id= "5" d=" M -5.5626 5.4991 L -5.21022 6.34981 " />
<path d="M-5.5626, -4.76236 C-5.56149, -5.2659 -5.44978, -5.76914 -5.21022, -6.34981 " /><path d="M-5.21022, -3.17491 C-5.44978, -3.75558 -5.56149, -4.25882 -5.5626, -4.76236 " /><path d="M-5.5626, -3.66959e-10 C-5.56149, -1.00709 -5.44978, -2.01357 -5.21022, -3.17491 " /><path d="M-5.21022, 3.17491 C-5.44978, 2.01357 -5.56149, 1.00709 -5.5626, -3.66959e-10 " /><path d="M-5.5626, 4.76236 C-5.56149, 4.25882 -5.44978, 3.75558 -5.21022, 3.17491 " /><path d="M-5.21022, 6.34981 C-5.44978, 5.76914 -5.56149, 5.2659 -5.5626, 4.76236 " /><path id= "12" d=" M -5.21022 6.34981 L -0.352377 6.34981 " />
<path id= "13" d=" M -0.352377 -6.34981 L -5.21022 -6.34981 " />
<path d="M-0.352377, -6.34981 C-0.112815, -5.76914 -0.00110818, -5.2659 -1.38778e-17, -4.76236 " /><path id= "15" d=" M -0.352377 -3.17491 L -5.21022 -3.17491 " />
<path d="M1.38778e-17, -4.76236 C-0.00110818, -4.25882 -0.112815, -3.75558 -0.352377, -3.17491 " /><path d="M-0.352377, -3.17491 C-0.112815, -2.01357 -0.00110818, -1.00709 1.38778e-17, -3.66959e-10 " /><path id= "18" d=" M -0.352377 3.17491 L -5.21022 3.17491 " />
<path d="M1.38778e-17, -3.66959e-10 C-0.00110818, 1.00709 -0.112815, 2.01357 -0.352377, 3.17491 " /><path d="M-0.352377, 3.17491 C-0.112815, 3.75558 -0.00110818, 4.25882 0, 4.76236 " /><path d="M0, 4.76236 C-0.00110818, 5.2659 -0.112815, 5.76914 -0.352377, 6.34981 " /><path id= "22" d=" M -0.352377 6.34981 L -2.35493e-14 5.4991 " />
<path d="M0, -5.4991 C0, -5.49782 0, -5.49654 0, -5.49525  C0, -5.489 0, -5.47876 0, -5.46452  C0, -5.44805 0, -5.42762 0, -5.40323  C0, -5.37663 0, -5.34613 0, -5.31172  C0, -5.18655 0, -5.00148 0, -4.76236 " /><path d="M0, -4.76236 C0, -4.68943 0, -4.6165 0, -4.54357  C0, -4.46217 0, -4.38077 0, -4.29937  C0, -4.20995 0, -4.12054 0, -4.03113  C0, -3.9342 0, -3.83727 0, -3.74034  C0, -3.63644 0, -3.53253 0, -3.42863  C0, -3.31834 0, -3.20805 0, -3.09775  C0, -2.98169 0, -2.86562 0, -2.74955  C0, -2.62836 0, -2.50716 0, -2.38597  C0, -2.26033 0, -2.13469 0, -2.00905  C0, -1.87966 0, -1.75027 0, -1.62089  C0, -1.48848 0, -1.35607 0, -1.22366  C0, -0.821437 0, -0.411573 0, -3.66959e-10 " /><path d="M0, -3.66959e-10 Q0, 0.411593 0, 0.819598  Q0, 1.22558 0, 1.62089  Q0, 1.81497 0, 2.00905  Q0, 2.19751 0, 2.38597  Q0, 2.56776 0, 2.74955  Q0, 2.92365 0, 3.09775  Q0, 3.26319 0, 3.42863  Q0, 3.58449 0, 3.74034  Q0, 3.88573 0, 4.03113  Q0, 4.16525 0, 4.29937  Q0, 4.42147 0, 4.54357  Q0, 4.65296 0, 4.76236 " /><path d="M0, 4.76236 C0, 5.00148 0, 5.18655 0, 5.31172  C0, 5.34613 0, 5.37663 0, 5.40323  C0, 5.42762 0, 5.44805 0, 5.46452  C0, 5.47876 0, 5.489 0, 5.49525  C0, 5.49654 0, 5.49782 0, 5.4991 " /></g>

</svg>
