<svg xmlns="http://www.w3.org/2000/svg" viewBox="-7.3657796 -6.5150696 14.7315592 13.0301392">
<rect width="100%" height="100%" fill="white"/>
<g   fill="none"
   stroke="rgb(0, 0, 0)"
   stroke-linecap="butt"
   stroke-linejoin="miter"
   stroke-width="0.35"
   transform="scale(1, -1)"
  >
<path d="M2.6641, -4.44089e-16 C2.84941, -0.741865 2.69118, -1.5743 2.25233, -2.23779 " /><circle cx ="0" cy ="0" r ="3.4925" /><path d="M2.6641, 7.43991e-07 Q2.57707, 0.354679 2.39723, 0.664381 " /><path d="M2.39723 0.664381 A2.48759 2.48759 0 0 1 -0.663833 2.39738" /><path d="M0.0102782, -3.17499 C-0.771287, -3.12167 -1.52461, -2.76234 -2.04526, -2.18715  C-2.52496, -1.66454 -2.80415, -0.966734 -2.80864, -0.265174  C-2.81684, 0.382279 -2.59017, 1.02662 -2.17799, 1.51532  C-1.79324, 1.97701 -1.24726, 2.29636 -0.663833, 2.39738 " /><path d="M2.25233, -2.23779 C2.23285, -2.26742 2.2048, -2.30264 2.16818, -2.34346  C2.03907, -2.48734 1.84175, -2.65058 1.62442, -2.77978  C1.55852, -2.81928 1.49049, -2.85627 1.42033, -2.89075 " /><path d="M1.42033, -2.89075 C0.980733, -3.11056 0.454109, -3.20942 0.0102782, -3.17499 " /><path d="M2.48759, 8.00812e-07 Q2.48759, 0.0761685 2.48293, 0.152193 " /><path d="M2.43768, 0.49579 Q2.4204, 0.580791 2.39723, 0.664381 " /><path d="M-0.663833, 2.39738 C-1.15836, 2.26152 -1.60766, 1.96767 -1.93033, 1.56906  C-2.31269, 1.10176 -2.51414, 0.49147 -2.48509, -0.111627  C-2.45968, -0.72347 -2.19716, -1.32131 -1.76393, -1.75405  C-1.41541, -2.10581 -0.959313, -2.34895 -0.47299, -2.44221  C0.00346518, -2.53534 0.506776, -2.48418 0.954744, -2.29708  C1.41481, -2.10686 1.81443, -1.77438 2.08514, -1.35657  C2.34673, -0.955943 2.48838, -0.478472 2.48759, -1.77636e-15 " /><path d="M2.48759, 1.00102e-06 Q2.48738, 0.338309 2.39723, 0.664381 " /><path d="M5.4991 0 A5.4991 5.4991 0 0 1 4.76236 2.74955" /><path d="M4.76236 -2.74955 A5.4991 5.4991 0 0 1 5.4991 -1.34689e-15" /><path d="M-3.66959e-10 -5.4991 A5.4991 5.4991 0 0 1 4.76236 -2.74955" /><path d="M-4.76236 -2.74955 A5.4991 5.4991 0 0 1 -3.66959e-10 -5.4991" /><path d="M-4.76236 2.74955 A5.4991 5.4991 0 0 1 -4.76236 -2.74955" /><path d="M1.34435e-08 5.4991 A5.4991 5.4991 0 0 1 -4.76236 2.74955" /><path d="M4.76236 2.74955 A5.4991 5.4991 0 0 1 1.34435e-08 5.4991" /><path d="M2.48759, 6.00607e-07 Q2.48759, 0.0761065 2.48294, 0.15207 " /><path d="M2.43769, 0.495749 Q2.42046, 0.580495 2.39738, 0.663839 " /><path d="M-0.663833, 2.39738 Q-0.875933, 2.33861 -1.07445, 2.24358 " /><path d="M-2.47064, -0.289917 C-2.40983, -0.818369 -2.17321, -1.32445 -1.8067, -1.70995  C-1.61408, -1.91299 -1.39362, -2.07908 -1.14534, -2.20824 " /><path d="M-0.972397, -2.28966 L-0.972323, -2.28969 " /><path d="M-0.921099, -2.31078 C-0.602588, -2.43797 -0.257579, -2.49809 0.0851714, -2.48613 " /><path d="M4.76236, 2.74955 C5.2659, 1.87739 5.76914, 1.00575 6.34981, 5.04929e-13 " /><path d="M1.34435e-08, 5.4991 C1.00709, 5.4991 2.01357, 5.4991 3.17491, 5.4991 " /><path d="M3.17491, 5.4991 C3.75558, 4.49335 4.25882, 3.62171 4.76236, 2.74955 " /><path d="M-4.76236, 2.74955 C-4.25882, 3.62171 -3.75558, 4.49335 -3.17491, 5.4991 " /><path d="M-3.17491, 5.4991 C-2.01357, 5.4991 -1.00709, 5.4991 1.34435e-08, 5.4991 " /><path d="M-4.76236, -2.74955 C-5.2659, -1.87739 -5.76914, -1.00575 -6.34981, -4.47198e-13 " /><path d="M-6.34981, 5.63549e-13 C-5.76914, 1.00575 -5.2659, 1.87739 -4.76236, 2.74955 " /><path d="M-3.17491, -5.4991 C-3.75558, -4.49335 -4.25882, -3.62171 -4.76236, -2.74955 " /><path d="M-3.66959e-10, -5.4991 C-1.00709, -5.4991 -2.01357, -5.4991 -3.17491, -5.4991 " /><path d="M3.17491, -5.4991 C2.01357, -5.4991 1.00709, -5.4991 -3.66959e-10, -5.4991 " /><path d="M4.76236, -2.74955 C4.25882, -3.62171 3.75558, -4.49335 3.17491, -5.4991 " /><path d="M6.34981, -5.06285e-13 C5.76914, -1.00575 5.2659, -1.87739 4.76236, -2.74955 " /><path d="M2.48759, 4.00403e-07 Q2.48759, 0.0761064 2.48294, 0.15207 " /><path d="M2.43769, 0.495749 Q2.42046, 0.580495 2.39738, 0.663839 " /><path d="M-0.663833, 2.39738 C-1.12414, 2.27073 -1.54563, 2.00772 -1.86169, 1.64991 " /><path d="M-1.96826, 1.5212 C-2.32562, 1.0616 -2.51224, 0.473425 -2.48524, -0.108117  C-2.46131, -0.700234 -2.21594, -1.27984 -1.80745, -1.70916  C-1.45469, -2.08374 -0.982684, -2.34359 -0.47751, -2.44133 " /><path d="M-0.36197, -2.46112 C0.0854267, -2.52756 0.550524, -2.46835 0.967002, -2.29195  C1.42213, -2.10089 1.81715, -1.77036 2.08548, -1.35605  C2.34686, -0.955529 2.48838, -0.478264 2.48759, -4.44089e-16 " /></g>

</svg>
