<svg xmlns="http://www.w3.org/2000/svg" viewBox="-9.084588 -9.757728 14.240316 17.789586">
<rect width="100%" height="100%" fill="white"/>
<g   fill="none"
   stroke="rgb(0, 0, 0)"
   stroke-linecap="butt"
   stroke-linejoin="miter"
   stroke-width="0.35"
   transform="scale(1, -1)"
  >
<path id= "1" d=" M -3.92886 -6.80499 L -6.91815 -5.07912 " />
<path d="M-7.85772, 2.72005e-15 L-7.85323, 0.283199  L-7.83972, 0.562329  L-7.81715, 0.838496  L-7.78542, 1.11279  L-7.74442, 1.38631  L-7.69397, 1.66014  L-7.63388, 1.93535  L-7.5639, 2.21304  L-7.48377, 2.49432  L-7.39317, 2.78029  L-7.29173, 3.07209  L-7.17905, 3.37088  L-7.05469, 3.67784  L-6.91815, 3.9942 " /><path d="M-6.91815, -5.07912 L-7.05469, -4.60511  L-7.17905, -4.15455  L-7.29173, -3.72565  L-7.39317, -3.31671  L-7.48377, -2.92612  L-7.5639, -2.55232  L-7.63388, -2.19383  L-7.69397, -1.84923  L-7.74442, -1.51715  L-7.78542, -1.19628  L-7.81715, -0.885349  L-7.83972, -0.583118  L-7.85323, -0.288391  L-7.85772, 2.69229e-15 " /><path id= "4" d=" M -3.92886 -6.80499 L 3.92886 -2.26833 " />
<path d="M-3.92886, -2.26833 L-4.17187, -2.41382  L-4.40685, -2.56509  L-4.63473, -2.72272  L-4.85642, -2.88734  L-5.07279, -3.05961  L-5.2847, -3.24022  L-5.493, -3.42986  L-5.6985, -3.62931  L-5.90203, -3.83934  L-6.10439, -4.06079  L-6.30637, -4.29454  L-6.5088, -4.54152  L-6.71245, -4.8027  L-6.91815, -5.07912 " /><path d="M0.939573, -0.542463 L0.460796, -0.661223  L0.00841683, -0.778804  L-0.41936, -0.895672  L-0.824229, -1.01229  L-1.2078, -1.12912  L-1.57158, -1.24663  L-1.91703, -1.36527  L-2.24551, -1.48553  L-2.55832, -1.60788  L-2.8567, -1.7328  L-3.14184, -1.8608  L-3.41486, -1.99236  L-3.67686, -2.12803  L-3.92886, -2.26833 " /><path id= "7" d=" M 3.92886 -2.26833 L 0.939573 -0.542463 " />
<path d="M-7.85772 4.44089e-16 A5.55625 3.2079 60 0 1 -3.92886 -2.26833" />
<path d="M-3.92886 6.80499 A5.55625 3.2079 60 0 1 -7.85772 4.44089e-16" />
<path d="M-3.92886, 6.80499 L-4.17187, 6.65949  L-4.40685, 6.50823  L-4.63473, 6.3506  L-4.85642, 6.18598  L-5.07279, 6.0137  L-5.2847, 5.8331  L-5.493, 5.64346  L-5.6985, 5.44401  L-5.90203, 5.23398  L-6.10439, 5.01253  L-6.30637, 4.77878  L-6.5088, 4.5318  L-6.71245, 4.27062  L-6.91815, 3.9942 " /><path d="M0.939573, 8.53086 L0.460796, 8.41209  L0.00841683, 8.29451  L-0.41936, 8.17765  L-0.824229, 8.06103  L-1.2078, 7.9442  L-1.57158, 7.82669  L-1.91703, 7.70804  L-2.24551, 7.58778  L-2.55832, 7.46544  L-2.8567, 7.34051  L-3.14184, 7.21252  L-3.41486, 7.08096  L-3.67686, 6.94529  L-3.92886, 6.80499 " /><path id= "12" d=" M 3.92886 6.80499 L 0.939573 8.53086 " />
<path id= "13" d=" M 3.92886 -2.26833 L 3.92886 6.80499 " />
<path d="M-5.46438e-17, 4.53666 L0.00449659, 4.81986  L0.0180042, 5.09899  L0.0405764, 5.37515  L0.0723026, 5.64945  L0.113309, 5.92297  L0.163757, 6.1968  L0.223848, 6.47201  L0.29382, 6.7497  L0.373949, 7.03098  L0.464555, 7.31695  L0.565995, 7.60875  L0.678673, 7.90754  L0.803034, 8.2145  L0.939573, 8.53086 " /><path d="M0.939573, -0.542463 L0.803034, -0.0684498  L0.678673, 0.382113  L0.565995, 0.811012  L0.464555, 1.21995  L0.373949, 1.61054  L0.29382, 1.98434  L0.223848, 2.34283  L0.163757, 2.68743  L0.113309, 3.01951  L0.0723026, 3.34038  L0.0405764, 3.65131  L0.0180042, 3.95354  L0.00449659, 4.24827  L-5.46438e-17, 4.53666 " /><path d="M-3.92886 -2.26833 A5.55625 3.2079 60 0 1 0 4.53666" />
<path d="M0 4.53666 A5.55625 3.2079 60 0 1 -3.92886 6.80499" />
<g transform = "rotate(60, -3.92886, 2.26833)">
<ellipse cx ="-3.92886" cy ="2.26833" rx ="3.4925"  ry ="2.0164"/>
</g>
<path d="M-1.89873, 3.2547 Q-1.93866, 3.46917 -2.02944, 3.6258 " /><path d="M-2.02944 3.6258 A2.48759 1.43621 60 0 1 -2.49467 4.31272" />
<path d="M-2.49467 4.31272 A2.48759 1.43621 60 0 1 -4.15439 3.89178" />
<path d="M-3.93196, -0.394277 C-4.47202, -0.655375 -4.98506, -0.652172 -5.32858, -0.381224  C-5.64531, -0.137635 -5.8162, 0.32771 -5.79257, 0.90106  C-5.77363, 1.42863 -5.58853, 2.0433 -5.27551, 2.59973  C-4.98311, 3.12367 -4.57969, 3.59113 -4.15439, 3.89178 " /><path d="M-2.32656, 1.23995 Q-2.33473, 1.22372 -2.34561, 1.20357 " /><path d="M-2.34561, 1.20357 C-2.35874, 1.17925 -2.37411, 1.15209 -2.39171, 1.1221  C-2.48941, 0.955344 -2.63381, 0.745331 -2.79083, 0.555451  C-2.91585, 0.4035 -3.04811, 0.262434 -3.18759, 0.132254  C-3.43657, -0.100849 -3.70446, -0.286128 -3.93196, -0.394277 " /><path d="M-1.89873, 3.2547 C-1.79758, 2.72734 -1.9576, 1.96652 -2.32656, 1.23995 " /><path d="M-1.94534, 3.15425 Q-1.96248, 3.40784 -2.02944, 3.6258 " /><path d="M-2.16919, 3.98199 C-2.56929, 4.00553 -3.03599, 3.834 -3.46965, 3.51126  C-3.87744, 3.2102 -4.25331, 2.77888 -4.52682, 2.30921  C-4.82871, 1.79464 -5.00415, 1.23838 -5.01886, 0.780467  C-5.03685, 0.308329 -4.88508, -0.0544725 -4.61137, -0.210048 " /><path d="M-4.61137, -0.210048 C-4.39586, -0.335459 -4.10676, -0.332125 -3.79634, -0.197937  C-3.48106, -0.0631046 -3.14534, 0.206509 -2.85115, 0.567845  C-2.55732, 0.927051 -2.30629, 1.37579 -2.14532, 1.84094  C-1.98931, 2.28877 -1.91744, 2.74991 -1.94534, 3.15425 " /><path d="M-2.42739, 4.26943 C-2.89535, 4.49464 -3.55577, 4.34432 -4.15439, 3.89178 " /><path d="M-2.05169, 2.14957 C-2.58801, 1.62567 -3.00199, 0.893873 -3.15265, 0.242644 " /><path d="M-2.29323, 1.47199 Q-2.53737, 1.12873 -2.70458, 0.759491 " /><path d="M-2.10351, 3.85154 C-2.46014, 3.82986 -2.85655, 3.66678 -3.22936, 3.39328  C-3.61579, 3.11145 -3.97493, 2.71252 -4.2461, 2.2731  C-4.56879, 1.7538 -4.76413, 1.18187 -4.79167, 0.706814  C-4.81898, 0.274546 -4.70939, -0.0747172 -4.49264, -0.26362 " /><path d="M-1.96483, 3.33693 C-2.58556, 3.09631 -3.22376, 2.49162 -3.62921, 1.79004  C-3.93099, 1.27543 -4.10629, 0.719199 -4.12086, 0.261374  C-4.12765, 0.0568833 -4.10513, -0.123705 -4.05331, -0.28039 " /><path d="M-1.94302, 3.11549 C-2.47168, 2.84846 -2.99207, 2.33619 -3.35242, 1.7476  C-3.77637, 1.06564 -3.97054, 0.297597 -3.87385, -0.228794 " /></g>

</svg>
