<svg xmlns="http://www.w3.org/2000/svg" viewBox="-6.445250000000001 -6.445250000000001 7.334250000000001 12.890500000000001">
<rect width="100%" height="100%" fill="white"/>
<g   fill="none"
   stroke="rgb(0, 0, 0)"
   stroke-linecap="butt"
   stroke-linejoin="miter"
   stroke-width="0.35"
   transform="scale(1, -1)"
  >
<path id= "1" d=" M 0 -5.55625 L -4.22749 -5.55625 " />
<path d="M-4.22749, -5.55625 L-4.42059, -5.55625  L-4.59646, -5.55625  L-4.75581, -5.55625  L-4.89927, -5.55625  L-5.02741, -5.55625  L-5.14073, -5.55625  L-5.23968, -5.55625  L-5.32466, -5.55625  L-5.39601, -5.55625  L-5.454, -5.55625  L-5.49887, -5.55625  L-5.53079, -5.55625  L-5.54989, -5.55625  L-5.55625, -5.55625 " /><path id= "3" d=" M 0 -5.55625 L 0 5.55625 " />
<path d="M-5.55625, 1.04927e-12 L-5.54989, -0.350026  L-5.53079, -0.70144  L-5.49887, -1.05564  L-5.454, -1.41402  L-5.39601, -1.778  L-5.32466, -2.14904  L-5.23968, -2.52859  L-5.14073, -2.91817  L-5.02741, -3.31932  L-4.89927, -3.73363  L-4.75581, -4.16275  L-4.59646, -4.60836  L-4.42059, -5.07225  L-4.22749, -5.55625 " /><path d="M-4.22749, 5.55625 L-4.42059, 5.07225  L-4.59646, 4.60836  L-4.75581, 4.16275  L-4.89927, 3.73363  L-5.02741, 3.31932  L-5.14073, 2.91817  L-5.23968, 2.52859  L-5.32466, 2.14904  L-5.39601, 1.778  L-5.454, 1.41402  L-5.49887, 1.05564  L-5.53079, 0.70144  L-5.54989, 0.350026  L-5.55625, 1.0493e-12 " /><path id= "6" d=" M 0 5.55625 L -4.22749 5.55625 " />
<path d="M-5.55625, -5.55625 L-5.55625, -5.52131  L-5.55625, -5.41694  L-5.55625, -5.24445  L-5.55625, -5.00601  L-5.55625, -4.70461  L-5.55625, -4.34405  L-5.55625, -3.92886  L-5.55625, -3.46427  L-5.55625, -2.9561  L-5.55625, -2.41077  L-5.55625, -1.83511  L-5.55625, -1.23638  L-5.55625, -0.622103  L-5.55625, 1.0501e-12 " /><path d="M-4.22749, 5.55625 L-4.42059, 5.55625  L-4.59646, 5.55625  L-4.75581, 5.55625  L-4.89927, 5.55625  L-5.02741, 5.55625  L-5.14073, 5.55625  L-5.23968, 5.55625  L-5.32466, 5.55625  L-5.39601, 5.55625  L-5.454, 5.55625  L-5.49887, 5.55625  L-5.53079, 5.55625  L-5.54989, 5.55625  L-5.55625, 5.55625 " /><path d="M-5.55625, 1.05016e-12 L-5.55625, 0.622103  L-5.55625, 1.23638  L-5.55625, 1.83511  L-5.55625, 2.41077  L-5.55625, 2.9561  L-5.55625, 3.46427  L-5.55625, 3.92886  L-5.55625, 4.34405  L-5.55625, 4.70461  L-5.55625, 5.00601  L-5.55625, 5.24445  L-5.55625, 5.41694  L-5.55625, 5.52131  L-5.55625, 5.55625 " /></g>

</svg>
