<svg xmlns="http://www.w3.org/2000/svg" viewBox="-6.445250000000001 -6.445250000000001 12.890500000000001 12.890500000000001">
<rect width="100%" height="100%" fill="white"/>
<g   fill="none"
   stroke="rgb(0, 0, 0)"
   stroke-linecap="butt"
   stroke-linejoin="miter"
   stroke-width="0.35"
   transform="scale(1, -1)"
  >
<path d="M-5.55625, 3.77476e-15 Q-5.55625, 0.523572 -5.55625, 1.05564  Q-5.55625, 1.41244 -5.55625, 1.778  Q-5.55625, 1.96352 -5.55625, 2.14904  Q-5.55625, 2.33882 -5.55625, 2.52859  Q-5.55625, 2.72338 -5.55625, 2.91817  Q-5.55625, 3.11875 -5.55625, 3.31932  Q-5.55625, 3.52648 -5.55625, 3.73363  Q-5.55625, 3.94819 -5.55625, 4.16275  Q-5.55625, 4.38556 -5.55625, 4.60836  Q-5.55625, 4.84031 -5.55625, 5.07225  Q-5.55625, 5.31425 -5.55625, 5.55625 " /><path d="M-5.55625, -5.55625 C-5.55625, -5.39492 -5.55625, -5.23358 -5.55625, -5.07225  C-5.55625, -4.91762 -5.55625, -4.76299 -5.55625, -4.60836  C-5.55625, -4.45983 -5.55625, -4.31129 -5.55625, -4.16275  C-5.55625, -4.01971 -5.55625, -3.87667 -5.55625, -3.73363  C-5.55625, -3.59553 -5.55625, -3.45743 -5.55625, -3.31932  C-5.55625, -3.18561 -5.55625, -3.05189 -5.55625, -2.91817  C-5.55625, -2.78831 -5.55625, -2.65845 -5.55625, -2.52859  C-5.55625, -2.40207 -5.55625, -2.27556 -5.55625, -2.14904  C-5.55625, -1.90036 -5.55625, -1.65536 -5.55625, -1.41402  C-5.55625, -0.933744 -5.55625, -0.466219 -5.55625, 3.55271e-15 " /><path d="M1.04938e-12, -5.55625 C-0.466219, -5.55625 -0.933744, -5.55625 -1.41402, -5.55625  C-1.53534, -5.55625 -1.65667, -5.55625 -1.778, -5.55625  C-1.90168, -5.55625 -2.02536, -5.55625 -2.14904, -5.55625  C-2.27556, -5.55625 -2.40207, -5.55625 -2.52859, -5.55625  C-2.65845, -5.55625 -2.78831, -5.55625 -2.91817, -5.55625  C-3.05189, -5.55625 -3.18561, -5.55625 -3.31932, -5.55625  C-3.45743, -5.55625 -3.59553, -5.55625 -3.73363, -5.55625  C-3.87667, -5.55625 -4.01971, -5.55625 -4.16275, -5.55625  C-4.31129, -5.55625 -4.45983, -5.55625 -4.60836, -5.55625  C-4.76299, -5.55625 -4.91762, -5.55625 -5.07225, -5.55625  C-5.23358, -5.55625 -5.39492, -5.55625 -5.55625, -5.55625 " /><path d="M5.55625, -5.55625 C5.39492, -5.55625 5.23358, -5.55625 5.07225, -5.55625  C4.91762, -5.55625 4.76299, -5.55625 4.60836, -5.55625  C4.45983, -5.55625 4.31129, -5.55625 4.16275, -5.55625  C4.01971, -5.55625 3.87667, -5.55625 3.73363, -5.55625  C3.59553, -5.55625 3.45743, -5.55625 3.31932, -5.55625  C3.18561, -5.55625 3.05189, -5.55625 2.91817, -5.55625  C2.78831, -5.55625 2.65845, -5.55625 2.52859, -5.55625  C2.40207, -5.55625 2.27556, -5.55625 2.14904, -5.55625  C1.90036, -5.55625 1.65536, -5.55625 1.41402, -5.55625  C0.933744, -5.55625 0.466219, -5.55625 1.04927e-12, -5.55625 " /><path d="M-5.55625 6.80444e-16 A5.55625 5.55625 0 0 1 1.05012e-12 -5.55625" /><path d="M1.06505e-12 5.55625 A5.55625 5.55625 0 0 1 -5.55625 6.80444e-16" /><path d="M1.06537e-12, 5.55625 C-0.466219, 5.55625 -0.933744, 5.55625 -1.41402, 5.55625  C-1.53534, 5.55625 -1.65667, 5.55625 -1.778, 5.55625  C-1.90168, 5.55625 -2.02536, 5.55625 -2.14904, 5.55625  C-2.27556, 5.55625 -2.40207, 5.55625 -2.52859, 5.55625  C-2.65845, 5.55625 -2.78831, 5.55625 -2.91817, 5.55625  C-3.05189, 5.55625 -3.18561, 5.55625 -3.31932, 5.55625  C-3.45743, 5.55625 -3.59553, 5.55625 -3.73363, 5.55625  C-3.87667, 5.55625 -4.01971, 5.55625 -4.16275, 5.55625  C-4.31129, 5.55625 -4.45983, 5.55625 -4.60836, 5.55625  C-4.76299, 5.55625 -4.91762, 5.55625 -5.07225, 5.55625  C-5.23358, 5.55625 -5.39492, 5.55625 -5.55625, 5.55625 " /><path d="M5.55625, 5.55625 C5.39492, 5.55625 5.23358, 5.55625 5.07225, 5.55625  C4.91762, 5.55625 4.76299, 5.55625 4.60836, 5.55625  C4.45983, 5.55625 4.31129, 5.55625 4.16275, 5.55625  C4.01971, 5.55625 3.87667, 5.55625 3.73363, 5.55625  C3.59553, 5.55625 3.45743, 5.55625 3.31932, 5.55625  C3.18561, 5.55625 3.05189, 5.55625 2.91817, 5.55625  C2.78831, 5.55625 2.65845, 5.55625 2.52859, 5.55625  C2.40207, 5.55625 2.27556, 5.55625 2.14904, 5.55625  C1.90036, 5.55625 1.65536, 5.55625 1.41402, 5.55625  C0.933744, 5.55625 0.466219, 5.55625 1.06548e-12, 5.55625 " /><path d="M5.55625, -6.66134e-16 Q5.55625, 0.523572 5.55625, 1.05564  Q5.55625, 1.41244 5.55625, 1.778  Q5.55625, 1.96352 5.55625, 2.14904  Q5.55625, 2.33882 5.55625, 2.52859  Q5.55625, 2.72338 5.55625, 2.91817  Q5.55625, 3.11875 5.55625, 3.31932  Q5.55625, 3.52648 5.55625, 3.73363  Q5.55625, 3.94819 5.55625, 4.16275  Q5.55625, 4.38556 5.55625, 4.60836  Q5.55625, 4.84031 5.55625, 5.07225  Q5.55625, 5.31425 5.55625, 5.55625 " /><path d="M5.55625, -5.55625 Q5.55625, -5.31425 5.55625, -5.07225  Q5.55625, -4.84031 5.55625, -4.60836  Q5.55625, -4.38556 5.55625, -4.16275  Q5.55625, -3.94819 5.55625, -3.73363  Q5.55625, -3.52648 5.55625, -3.31932  Q5.55625, -3.11875 5.55625, -2.91817  Q5.55625, -2.72338 5.55625, -2.52859  Q5.55625, -2.33882 5.55625, -2.14904  Q5.55625, -1.96352 5.55625, -1.778  Q5.55625, -1.41244 5.55625, -1.05564  Q5.55625, -0.523572 5.55625, -6.66134e-16 " /><path d="M1.05012e-12 -5.55625 A5.55625 5.55625 0 0 1 5.55625 -1.36089e-15" /><path d="M5.55625 0 A5.55625 5.55625 0 0 1 1.06505e-12 5.55625" /><circle cx ="0" cy ="0" r ="3.4925" /><path d="M2.64358, 7.73875e-07 Q2.56664, 0.311373 2.41692, 0.58873 " /><path d="M2.41692 0.58873 A2.48759 2.48759 0 0 1 -0.588202 2.41705" /><path d="M-0.0894563, -3.17375 C-0.86896, -3.0959 -1.61062, -2.71309 -2.11295, -2.12183  C-2.576, -1.58441 -2.83313, -0.878176 -2.81558, -0.17682  C-2.80344, 0.47057 -2.55665, 1.10748 -2.12932, 1.58298  C-1.73025, 2.03236 -1.17451, 2.3344 -0.588202, 2.41705 " /><path d="M2.18093, -2.30744 C2.16053, -2.33644 2.13139, -2.37076 2.0935, -2.41041  C1.95993, -2.55016 1.75758, -2.70712 1.53631, -2.82943  C1.46919, -2.86684 1.40003, -2.90167 1.32883, -2.93394 " /><path d="M1.32883, -2.93394 C0.882545, -3.13983 0.353075, -3.22211 -0.0894563, -3.17375 " /><path d="M2.64358, 0 C2.83732, -0.768094 2.65814, -1.63388 2.18093, -2.30744 " /><path d="M2.48759, 1.00102e-06 Q2.48746, 0.298593 2.41692, 0.58873 " /><path d="M2.48759, 8.00812e-07 L2.48759, 0.000161001 " /><path d="M2.48633, 0.0793893 L2.48366, 0.139855 " /><path d="M2.46354, 0.345105 L2.46304, 0.348657 " /><path d="M2.43723, 0.498014 L2.41692, 0.58873 " /><path d="M-0.588202, 2.41705 C-1.11485, 2.29021 -1.59617, 1.98499 -1.93547, 1.56271  C-2.31372, 1.09728 -2.51314, 0.49137 -2.48526, -0.107739  C-2.46142, -0.699647 -2.21631, -1.27909 -1.80815, -1.70842  C-1.45762, -2.08091 -0.989249, -2.34013 -0.487483, -2.43936  C-0.00132469, -2.53744 0.513723, -2.4849 0.970056, -2.29066  C1.42576, -2.09865 1.82093, -1.76673 2.08874, -1.35103  C2.34805, -0.95155 2.48837, -0.476264 2.48759, -1.77636e-15 " /><path d="M-0.588202, 2.41705 C-1.10898, 2.29158 -1.58553, 1.9918 -1.9241, 1.57669  C-2.30988, 1.10905 -2.51376, 0.496525 -2.4852, -0.109026  C-2.46104, -0.701607 -2.21507, -1.28157 -1.80586, -1.71085  C-1.45435, -2.08338 -0.984813, -2.34216 -0.482137, -2.44042  C-0.0118911, -2.53414 0.485089, -2.48731 0.929552, -2.30739 " /><path d="M1.1776, -2.1912 C1.66789, -1.92933 2.06443, -1.49742 2.28356, -0.986641 " /><path d="M2.37862, -0.7282 Q2.44525, -0.510409 2.47131, -0.284152 " /><path d="M-0.588202, 2.41705 C-1.11511, 2.29015 -1.59665, 1.98468 -1.93598, 1.56208  C-2.31408, 1.09652 -2.5133, 0.49055 -2.48522, -0.10855  C-2.46118, -0.700893 -2.21552, -1.28067 -1.80668, -1.70998  C-1.45526, -2.08278 -0.985682, -2.34183 -0.482897, -2.44027  C-0.054011, -2.52571 0.397226, -2.49486 0.810499, -2.35185 " /><path d="M0.997765, -2.27872 C1.44013, -2.08592 1.82338, -1.76077 2.08569, -1.35574  C2.34693, -0.95528 2.48838, -0.478139 2.48759, -1.88738e-15 " /></g>

</svg>
