<svg xmlns="http://www.w3.org/2000/svg" viewBox="-5.238654 -7.084684 10.660928 13.516088">
<rect width="100%" height="100%" fill="white"/>
<g   fill="none"
   stroke="rgb(0, 0, 0)"
   stroke-linecap="butt"
   stroke-linejoin="miter"
   stroke-width="0.35"
   transform="scale(1, -1)"
  >
<path id= "1" d=" M -4.30651 -4.84598 L -3.175 -5.49926 " />
<path id= "2" d=" M 2.04349 6.15254 L 3.175 5.49926 " />
</g>
<g   fill="none"
   stroke="rgb(0, 0, 0)"
   stroke-linecap="butt"
   stroke-linejoin="miter"
   stroke-width="0.35"
   transform="scale(1, -1)"
  >
<path d="M1.39194 2.11019 A3.5687 2.06039 60 0 1 0.652838 3.74386" />
<path d="M0.652838 3.74386 A3.5687 2.06039 60 0 1 -2.91586 -2.43731" />
<path d="M-2.91586 -2.43731 A3.5687 2.06039 60 0 1 1.39194 2.11019" />
<path d="M3.35862 3.24566 A6.35 3.66617 60 0 1 2.04349 6.15254" />
<path d="M2.04349 6.15254 A6.35 3.66617 60 0 1 -4.30651 -4.84598" />
<path d="M-4.30651 -4.84598 A6.35 3.66617 60 0 1 3.35862 3.24566" />
<path d="M4.49013 2.59238 A6.35 3.66617 60 0 1 3.175 5.49926" />
<path d="M-3.175 -5.49926 A6.35 3.66617 60 0 1 4.49013 2.59238" />
<path d="M1.12653 3.25776 A3.5687 2.06039 60 0 1 -2.25804 -2.60448" />
</g>

</svg>
