<svg xmlns="http://www.w3.org/2000/svg" viewBox="-2.6162 -7.366 3.6322 14.732">
<rect width="100%" height="100%" fill="white"/>
<g   fill="none"
   stroke="rgb(0, 0, 0)"
   stroke-linecap="butt"
   stroke-linejoin="miter"
   stroke-width="0.35"
   transform="scale(1, -1)"
  >
<path id= "1" d=" M -1.6002 -6.35 L 0 -6.35 " />
</g>
<g   fill="none"
   stroke="rgb(0, 0, 0)"
   stroke-linecap="butt"
   stroke-linejoin="miter"
   stroke-width="0.35"
   transform="scale(1, -1)"
  >
<path d="M-1.6002, -6.35 L-1.6002, -6.19079  L-1.6002, -5.72115  L-1.6002, -4.96463  L-1.6002, -3.95916  L-1.6002, -2.75516  L-1.6002, -1.41301  L-1.6002, -1.11022e-15  L-1.6002, 1.41301  L-1.6002, 2.75516  L-1.6002, 3.95916  L-1.6002, 4.96463  L-1.6002, 5.72115  L-1.6002, 6.19079  L-1.6002, 6.35 " /><path id= "2" d=" M -1.6002 6.35 L 0 6.35 " />
<path d="M0, -6.35 L0, -6.19079  L0, -5.72115  L0, -4.96463  L0, -3.95916  L0, -2.75516  L0, -1.41301  L0, -1.11022e-15  L0, 1.41301  L0, 2.75516  L0, 3.95916  L0, 4.96463  L0, 5.72115  L0, 6.19079  L0, 6.35 " /></g>

</svg>
