<svg xmlns="http://www.w3.org/2000/svg" viewBox="-3.153208 -3.976768 29.409015999999998 19.992776">
<rect width="100%" height="100%" fill="white"/>
<g   fill="none"
   stroke="rgb(0, 0, 0)"
   stroke-linecap="butt"
   stroke-linejoin="miter"
   stroke-width="0.35"
   transform="scale(1, -1)"
  >
<path id= "1" d=" M 1.29872 1.84826 L 1.125 1.94856 " />
<path id= "2" d=" M -0.951278 -2.04886 L -1.125 -1.94856 " />
<path id= "3" d=" M 0.754801 -1.47502 L 22.0291 -13.7577 " />
<path id= "4" d=" M 1.6548 0.0838304 L 22.9291 -12.1989 " />
<path id= "5" d=" M 24.2276 -13.9878 L 23.0297 -12.292 " />
<path id= "6" d=" M 24.2276 -13.9878 L 22.1601 -13.7983 " />
</g>
<g   fill="none"
   stroke="rgb(0, 0, 0)"
   stroke-linecap="butt"
   stroke-linejoin="miter"
   stroke-width="0.35"
   transform="scale(1, -1)"
  >
<path d="M1.59099 0.918559 A2.25 1.29904 60 0 1 1.125 1.94856" />
<path d="M1.125 1.94856 A2.25 1.29904 60 0 1 -1.125 -1.94856" />
<path d="M-1.125 -1.94856 A2.25 1.29904 60 0 1 1.59099 0.918559" />
<path d="M1.76471 0.81826 A2.25 1.29904 60 0 1 1.29872 1.84826" />
<path d="M-0.951278 -2.04886 A2.25 1.29904 60 0 1 1.76471 0.81826" />
<path d="M23.1155 -12.6109 A0.9 0.519615 60 0 1 23.0297 -12.292" />
<path d="M23.0297 -12.292 A0.9 0.519615 60 0 1 22.9291 -12.1989" />
<path d="M22.0291 -13.7577 A0.9 0.519615 60 0 1 22.1601 -13.7983" />
<path d="M22.1601 -13.7983 A0.9 0.519615 60 0 1 23.1155 -12.6109" />
</g>

</svg>
