<svg xmlns="http://www.w3.org/2000/svg" viewBox="-2.74104 -4.99104 39.74508 9.98208">
<rect width="100%" height="100%" fill="white"/>
<g   fill="none"
   stroke="rgb(0, 0, 0)"
   stroke-linecap="butt"
   stroke-linejoin="miter"
   stroke-width="0.35"
   transform="scale(1, -1)"
  >
<path id= "1" d=" M 0.24568 -2.25 L 0 -2.25 " />
<path id= "2" d=" M 0.73704 -0.9 L 0.24568 -2.25 " />
<path id= "3" d=" M 0.73704 -0.9 L 31.7902 -0.9 " />
<path id= "4" d=" M 34.263 4.58881e-13 L 31.7902 -0.9 " />
</g>
<g   fill="none"
   stroke="rgb(0, 0, 0)"
   stroke-linecap="butt"
   stroke-linejoin="miter"
   stroke-width="0.35"
   transform="scale(1, -1)"
  >
<path d="M0, -2.25 L0, -2.19359  L0, -2.02718  L0, -1.75912  L0, -1.40285  L0, -0.976238  L0, -0.500672  L0, -4.44089e-16  L0, 0.500672  L0, 0.976238  L0, 1.40285  L0, 1.75912  L0, 2.02718  L0, 2.19359  L0, 2.25 " /><path d="M0.24568, -2.25 L0.24568, -2.19359  L0.24568, -2.02718  L0.24568, -1.75912  L0.24568, -1.40285  L0.24568, -0.976238  L0.24568, -0.500672  L0.24568, -5.55112e-16  L0.24568, 0.500672  L0.24568, 0.976238  L0.24568, 1.40285  L0.24568, 1.75912  L0.24568, 2.02718  L0.24568, 2.19359  L0.24568, 2.25 " /><path id= "3" d=" M 0.24568 2.25 L 0 2.25 " />
<path id= "4" d=" M 0.24568 2.25 L 0.73704 0.9 " />
<path d="M0.73704, -0.9 L0.73704, -0.877435  L0.73704, -0.810872  L0.73704, -0.703648  L0.73704, -0.561141  L0.73704, -0.390495  L0.73704, -0.200269  L0.73704, -1.66533e-16  L0.73704, 0.200269  L0.73704, 0.390495  L0.73704, 0.561141  L0.73704, 0.703648  L0.73704, 0.810872  L0.73704, 0.877435  L0.73704, 0.9 " /><path id= "6" d=" M 0.73704 0.9 L 31.7902 0.9 " />
<path d="M31.7902, -0.9 L31.7902, -0.877435  L31.7902, -0.810872  L31.7902, -0.703648  L31.7902, -0.561141  L31.7902, -0.390495  L31.7902, -0.200269  L31.7902, -1.66533e-16  L31.7902, 0.200269  L31.7902, 0.390495  L31.7902, 0.561141  L31.7902, 0.703648  L31.7902, 0.810872  L31.7902, 0.877435  L31.7902, 0.9 " /><path id= "8" d=" M 31.7902 0.9 L 34.263 -9.61866e-13 " />
</g>

</svg>
