<svg xmlns="http://www.w3.org/2000/svg" viewBox="-5.8178111999999995 -6.3135512 22.839982399999997 17.9624224">
<rect width="100%" height="100%" fill="white"/>
<g   fill="none"
   stroke="rgb(0, 0, 0)"
   stroke-linecap="butt"
   stroke-linejoin="miter"
   stroke-width="0.35"
   transform="scale(1, -1)"
  >
<path id= "1" d=" M -4.24264 -0.816497 L -4.24264 -1.63299 " />
<path id= "2" d=" M -1.41421 4.08248 L -0.707107 4.49073 " />
<path id= "3" d=" M -3.20711 -3.92188 L -2.5 -4.33013 " />
<path id= "4" d=" M 1.79289 4.73838 L 2.5 4.33013 " />
<path id= "5" d=" M 0.5 -3.75278 L 11.2279 -9.94655 " />
<path id= "6" d=" M 3.5 1.44338 L 14.2279 -4.75039 " />
<path id= "7" d=" M 15.3611 -6.9236 L 14.7096 -5.33031 " />
<path id= "8" d=" M 13.6765 -9.84127 L 11.971 -10.0737 " />
</g>
<g   fill="none"
   stroke="rgb(0, 0, 0)"
   stroke-linecap="butt"
   stroke-linejoin="miter"
   stroke-width="0.35"
   transform="scale(1, -1)"
  >
<path d="M1.41421 2.44949 A4 2.3094 60 0 1 -1.41421 4.08248" />
<path d="M-1.41421 4.08248 A4 2.3094 60 0 1 -4.24264 -0.816497" />
<path d="M-4.24264 -0.816497 A4 2.3094 60 0 1 1.41421 2.44949" />
<path d="M2.82843 2.44949 A5 2.88675 60 0 1 1.79289 4.73838" />
<path d="M1.79289 4.73838 A5 2.88675 60 0 1 -0.707107 4.49073" />
<path d="M-4.24264 -1.63299 A5 2.88675 60 0 1 -3.20711 -3.92188" />
<path d="M-3.20711 -3.92188 A5 2.88675 60 0 1 2.82843 2.44949" />
<path d="M3.53553 2.04124 A5 2.88675 60 0 1 2.5 4.33013" />
<path d="M-2.5 -4.33013 A5 2.88675 60 0 1 3.53553 2.04124" />
<path d="M14.8492 -6.12372 A3 1.73205 60 0 1 14.7096 -5.33031" />
<path d="M14.7096 -5.33031 A3 1.73205 60 0 1 14.2279 -4.75039" />
<path d="M11.2279 -9.94655 A3 1.73205 60 0 1 11.971 -10.0737" />
<path d="M11.971 -10.0737 A3 1.73205 60 0 1 14.8492 -6.12372" />
<path d="M15.447 -7.41163 A1.8453 1.06538 60 0 1 15.3611 -6.9236" />
<path d="M13.6765 -9.84127 A1.8453 1.06538 60 0 1 15.447 -7.41163" />
</g>

</svg>
