<svg xmlns="http://www.w3.org/2000/svg" viewBox="-3.76 -6.76 25.52 13.52">
<rect width="100%" height="100%" fill="white"/>
<g   fill="none"
   stroke="rgb(0, 0, 0)"
   stroke-linecap="butt"
   stroke-linejoin="miter"
   stroke-width="0.35"
   transform="scale(1, -1)"
  >
<path id= "1" d=" M -2 -4 L -1 -5 " />
<path id= "2" d=" M -1 -5 L 0 -5 " />
<path d="M0.6, -3 C0.497404, -3.00041 0.401053, -3.02515 0.310948, -3.07422  C0.121879, -3.17581 -0.00205735, -3.38537 0, -3.6 " /><path id= "4" d=" M 0.6 -3 L 18 -3 " />
<path id= "5" d=" M 20 -1.8453 L 18 -3 " />
</g>
<g   fill="none"
   stroke="rgb(0, 0, 0)"
   stroke-linecap="butt"
   stroke-linejoin="miter"
   stroke-width="0.35"
   transform="scale(1, -1)"
  >
<path d="M-2, -4 L-2, -3.89971  L-2, -3.60388  L-2, -3.12733  L-2, -2.49396  L-2, -1.73553  L-2, -0.890084  L-2, -7.77156e-16  L-2, 0.890084  L-2, 1.73553  L-2, 2.49396  L-2, 3.12733  L-2, 3.60388  L-2, 3.89971  L-2, 4 " /><path id= "2" d=" M -2 4 L -1 5 " />
<path d="M-1, -5 L-1, -4.87464  L-1, -4.50484  L-1, -3.90916  L-1, -3.11745  L-1, -2.16942  L-1, -1.1126  L-1, -8.88178e-16  L-1, 1.1126  L-1, 2.16942  L-1, 3.11745  L-1, 3.90916  L-1, 4.50484  L-1, 4.87464  L-1, 5 " /><path id= "4" d=" M -1 5 L 0 5 " />
<path d="M0, -5 L0, -4.87464  L0, -4.50484  L0, -3.90916  L0, -3.11745  L0, -2.16942  L0, -1.1126  L0, -8.88178e-16  L0, 1.1126  L0, 2.16942  L0, 3.11745  L0, 3.90916  L0, 4.50484  L0, 4.87464  L0, 5 " /><path d="M0 3.6 A0.6 0.6 0 0 1 0.6 3" /><path id= "7" d=" M 0.6 3 L 18 3 " />
<path d="M18, -3 L18, -2.92478  L18, -2.70291  L18, -2.34549  L18, -1.87047  L18, -1.30165  L18, -0.667563  L18, -5.55112e-16  L18, 0.667563  L18, 1.30165  L18, 1.87047  L18, 2.34549  L18, 2.70291  L18, 2.92478  L18, 3 " /><path id= "9" d=" M 18 3 L 20 1.8453 " />
<path d="M20, -1.8453 L20, -1.79903  L20, -1.66256  L20, -1.44271  L20, -1.15053  L20, -0.800645  L20, -0.410618  L20, -3.33067e-16  L20, 0.410618  L20, 0.800645  L20, 1.15053  L20, 1.44271  L20, 1.66256  L20, 1.79903  L20, 1.8453 " /></g>

</svg>
