<svg xmlns="http://www.w3.org/2000/svg" viewBox="-5.811999999999999 -6.912 27.723999999999997 13.824">
<rect width="100%" height="100%" fill="white"/>
<g   fill="none"
   stroke="rgb(0, 0, 0)"
   stroke-linecap="butt"
   stroke-linejoin="miter"
   stroke-width="0.35"
   transform="scale(1, -1)"
  >
<path id= "1" d=" M -2.3 -4.79878 L 9.91364e-15 -5 " />
<path d="M0.25, -3 C0.182127, -3.00097 0.123666, -3.02492 0.0746171, -3.07184  C0.0272469, -3.11809 -0.000275702, -3.1838 3.46945e-18, -3.25 " /><path id= "3" d=" M 0.25 -3 L 0.912505 -3 " />
<path d="M0.959399, 2.44529 Q0.952883, 2.4329 0.934444, 2.41659  Q0.899367, 2.3877 0.850039, 2.38661 " /><path d="M1.2736, 2.98739 L0.959399, 2.44529 " /><path id= "6" d=" M 1.78746 -3 L 1.9125 -3 " />
<path d="M0.742806, 2.44347 L0.42709, 2.98742 " /><path d="M1.24281, -2.44346 L0.927087, -2.98742 " /><path d="M1.45727, -2.44347 Q1.45148, -2.43225 1.43338, -2.41615  Q1.40967, -2.3964 1.37642, -2.38924  Q1.36322, -2.38792 1.35003, -2.38661  Q1.30357, -2.38754 1.26969, -2.41375  Q1.24919, -2.431 1.24281, -2.44346 " /><path d="M1.95727, 2.44347 Q1.95148, 2.43225 1.93338, 2.41615  Q1.89895, 2.38775 1.85003, 2.38661 " /><path d="M0.850034, 2.38661 Q0.803583, 2.38754 0.769692, 2.41375  Q0.749188, 2.431 0.742806, 2.44347 " /><path d="M1.77287, -2.98741 L1.45727, -2.44347 " /><path d="M2.27287, 2.98741 L1.95727, 2.44347 " /><path id= "14" d=" M 2.78746 -3 L 2.9125 -3 " />
<path d="M1.7428, 2.44347 L1.42709, 2.98742 " /><path d="M2.2428, -2.44346 L1.92709, -2.98742 " /><path d="M2.45727, -2.44347 Q2.45148, -2.43225 2.43338, -2.41615  Q2.40966, -2.39639 2.37642, -2.38923  Q2.36322, -2.38792 2.35002, -2.3866  Q2.30357, -2.38754 2.26968, -2.41375  Q2.24918, -2.431 2.2428, -2.44346 " /><path d="M2.95727, 2.44347 Q2.95148, 2.43225 2.93338, 2.41615  Q2.89895, 2.38775 2.85003, 2.38661 " /><path d="M1.85003, 2.38661 Q1.80358, 2.38754 1.76969, 2.41375  Q1.74919, 2.431 1.7428, 2.44347 " /><path d="M2.77287, -2.98741 L2.45727, -2.44347 " /><path d="M3.27287, 2.98741 L2.95727, 2.44347 " /><path id= "22" d=" M 3.78746 -3 L 3.9125 -3 " />
<path d="M2.7428, 2.44346 L2.42709, 2.98742 " /><path d="M3.2428, -2.44346 L2.92709, -2.98742 " /><path d="M3.45726, -2.44346 Q3.45148, -2.43225 3.43338, -2.41615  Q3.40966, -2.39639 3.37641, -2.38923  Q3.36322, -2.38792 3.35002, -2.3866  Q3.30357, -2.38754 3.26968, -2.41375  Q3.24918, -2.431 3.2428, -2.44346 " /><path d="M3.95726, 2.44347 Q3.95148, 2.43225 3.93338, 2.41615  Q3.89895, 2.38775 3.85003, 2.3866 " /><path d="M2.85003, 2.38661 Q2.80358, 2.38754 2.76969, 2.41375  Q2.74918, 2.431 2.7428, 2.44346 " /><path d="M3.77288, -2.98741 L3.45726, -2.44346 " /><path d="M4.27287, 2.98741 L3.95726, 2.44347 " /><path id= "30" d=" M 4.78746 -3 L 4.9125 -3 " />
<path d="M3.7428, 2.44346 L3.42709, 2.98742 " /><path d="M4.2428, -2.44346 L3.92709, -2.98742 " /><path d="M4.45726, -2.44346 Q4.45148, -2.43224 4.43338, -2.41614  Q4.40966, -2.39639 4.37641, -2.38923  Q4.36321, -2.38791 4.35002, -2.3866  Q4.30357, -2.38753 4.26968, -2.41375  Q4.24918, -2.431 4.2428, -2.44346 " /><path d="M4.95726, 2.44347 Q4.95147, 2.43225 4.93337, 2.41615  Q4.89895, 2.38775 4.85003, 2.3866 " /><path d="M3.85003, 2.3866 Q3.80358, 2.38754 3.76969, 2.41375  Q3.74918, 2.431 3.7428, 2.44346 " /><path d="M4.77288, -2.98741 L4.45726, -2.44346 " /><path d="M5.27287, 2.98741 L4.95726, 2.44347 " /><path id= "38" d=" M 5.78747 -3 L 5.9125 -3 " />
<path d="M4.7428, 2.44346 L4.42709, 2.98742 " /><path d="M5.2428, -2.44345 L4.92709, -2.98742 " /><path d="M5.45726, -2.44346 Q5.45147, -2.43224 5.43337, -2.41614  Q5.40966, -2.39639 5.37641, -2.38923  Q5.36321, -2.38791 5.35002, -2.3866  Q5.30357, -2.38753 5.26968, -2.41374  Q5.24918, -2.43099 5.2428, -2.44345 " /><path d="M5.95726, 2.44346 Q5.95147, 2.43224 5.93337, 2.41614  Q5.89894, 2.38774 5.85002, 2.3866 " /><path d="M4.85003, 2.3866 Q4.80358, 2.38753 4.76968, 2.41374  Q4.74918, 2.431 4.7428, 2.44346 " /><path d="M5.77288, -2.98741 L5.45726, -2.44346 " /><path d="M6.27288, 2.98741 L5.95726, 2.44346 " /><path id= "46" d=" M 6.78747 -3 L 6.9125 -3 " />
<path d="M5.7428, 2.44346 L5.42709, 2.98742 " /><path d="M6.2428, -2.44345 L5.92709, -2.98742 " /><path d="M6.45726, -2.44346 Q6.45147, -2.43224 6.43337, -2.41614  Q6.40966, -2.39638 6.37641, -2.38922  Q6.36321, -2.38791 6.35001, -2.38659  Q6.30356, -2.38753 6.26968, -2.41374  Q6.24918, -2.43099 6.2428, -2.44345 " /><path d="M6.95726, 2.44346 Q6.95147, 2.43224 6.93337, 2.41614  Q6.89894, 2.38774 6.85002, 2.3866 " /><path d="M5.85002, 2.3866 Q5.80357, 2.38753 5.76968, 2.41374  Q5.74918, 2.43099 5.7428, 2.44346 " /><path d="M6.77288, -2.98741 L6.45726, -2.44346 " /><path d="M7.27288, 2.98741 L6.95726, 2.44346 " /><path id= "54" d=" M 7.78747 -3 L 7.9125 -3 " />
<path d="M6.74279, 2.44346 L6.42709, 2.98742 " /><path d="M7.2428, -2.44345 L6.92709, -2.98742 " /><path d="M7.45726, -2.44345 Q7.45147, -2.43224 7.43337, -2.41614  Q7.40965, -2.39638 7.3764, -2.38922  Q7.36321, -2.38791 7.35001, -2.38659  Q7.30356, -2.38753 7.26967, -2.41374  Q7.24917, -2.43099 7.2428, -2.44345 " /><path d="M7.95726, 2.44346 Q7.95147, 2.43224 7.93337, 2.41614  Q7.89894, 2.38774 7.85002, 2.3866 " /><path d="M6.85002, 2.3866 Q6.80357, 2.38753 6.76968, 2.41374  Q6.74918, 2.43099 6.74279, 2.44346 " /><path d="M7.77289, -2.98741 L7.45726, -2.44345 " /><path d="M8.27288, 2.98741 L7.95726, 2.44346 " /><path id= "62" d=" M 8.78747 -3 L 8.9125 -3 " />
<path d="M7.74279, 2.44345 L7.42709, 2.98741 " /><path d="M8.24279, -2.44345 L7.92708, -2.98742 " /><path d="M8.45725, -2.44345 Q8.45147, -2.43223 8.43337, -2.41613  Q8.40965, -2.39638 8.3764, -2.38922  Q8.36321, -2.3879 8.35001, -2.38659  Q8.30356, -2.38753 8.26967, -2.41374  Q8.24917, -2.43099 8.24279, -2.44345 " /><path d="M8.95725, 2.44346 Q8.95146, 2.43224 8.93337, 2.41614  Q8.89894, 2.38774 8.85002, 2.38659 " /><path d="M7.85002, 2.3866 Q7.80357, 2.38753 7.76968, 2.41374  Q7.74917, 2.43099 7.74279, 2.44345 " /><path d="M8.77289, -2.98741 L8.45725, -2.44345 " /><path d="M9.27288, 2.98741 L8.95725, 2.44346 " /><path id= "70" d=" M 9.78748 -3 L 9.9125 -3 " />
<path d="M8.74279, 2.44345 L8.42709, 2.98741 " /><path d="M9.24279, -2.44344 L8.92708, -2.98742 " /><path d="M9.45725, -2.44345 Q9.45146, -2.43223 9.43337, -2.41613  Q9.40965, -2.39638 9.3764, -2.38922  Q9.3632, -2.3879 9.35001, -2.38659  Q9.30356, -2.38752 9.26967, -2.41374  Q9.24917, -2.43099 9.24279, -2.44344 " /><path d="M9.95725, 2.44345 Q9.95146, 2.43223 9.93336, 2.41613  Q9.89894, 2.38773 9.85002, 2.38659 " /><path d="M8.85002, 2.38659 Q8.80357, 2.38752 8.76968, 2.41374  Q8.74917, 2.43099 8.74279, 2.44345 " /><path d="M9.77289, -2.98741 L9.45725, -2.44345 " /><path d="M10.2729, 2.98741 L9.95725, 2.44345 " /><path id= "78" d=" M 10.7875 -3 L 10.9125 -3 " />
<path d="M9.74279, 2.44345 L9.42709, 2.98741 " /><path d="M10.2428, -2.44344 L9.92708, -2.98742 " /><path d="M10.4573, -2.44345 Q10.4515, -2.43223 10.4334, -2.41613  Q10.4096, -2.39637 10.3764, -2.38921  Q10.3632, -2.3879 10.35, -2.38658  Q10.3036, -2.38752 10.2697, -2.41373  Q10.2492, -2.43098 10.2428, -2.44344 " /><path d="M10.9572, 2.44345 Q10.9515, 2.43223 10.9334, 2.41613  Q10.8989, 2.38773 10.85, 2.38659 " /><path d="M9.85002, 2.38659 Q9.80357, 2.38752 9.76968, 2.41373  Q9.74917, 2.43099 9.74279, 2.44345 " /><path d="M10.7729, -2.98741 L10.4573, -2.44345 " /><path d="M11.2729, 2.98741 L10.9572, 2.44345 " /><path id= "86" d=" M 11.7875 -3 L 11.9125 -3 " />
<path d="M10.7428, 2.44345 L10.4271, 2.98741 " /><path d="M11.2428, -2.44344 L10.9271, -2.98742 " /><path d="M11.4572, -2.44344 Q11.4515, -2.43222 11.4334, -2.41612  Q11.4096, -2.39637 11.3764, -2.38921  Q11.3632, -2.3879 11.35, -2.38658  Q11.3036, -2.38752 11.2697, -2.41373  Q11.2492, -2.43098 11.2428, -2.44344 " /><path d="M11.9572, 2.44345 Q11.9515, 2.43223 11.9334, 2.41613  Q11.8989, 2.38773 11.85, 2.38659 " /><path d="M10.85, 2.38659 Q10.8036, 2.38752 10.7697, 2.41373  Q10.7492, 2.43098 10.7428, 2.44345 " /><path d="M11.7729, -2.98741 L11.4572, -2.44344 " /><path d="M12.2729, 2.98741 L11.9572, 2.44345 " /><path id= "94" d=" M 12.7875 -3 L 12.9125 -3 " />
<path d="M11.7428, 2.44345 L11.4271, 2.98741 " /><path d="M12.2428, -2.44344 L11.9271, -2.98742 " /><path d="M12.4572, -2.44344 Q12.4515, -2.43222 12.4334, -2.41612  Q12.4096, -2.39637 12.3764, -2.38921  Q12.3632, -2.38789 12.35, -2.38658  Q12.3035, -2.38752 12.2697, -2.41373  Q12.2492, -2.43098 12.2428, -2.44344 " /><path d="M12.9572, 2.44345 Q12.9515, 2.43222 12.9334, 2.41613  Q12.8989, 2.38773 12.85, 2.38658 " /><path d="M11.85, 2.38659 Q11.8036, 2.38752 11.7697, 2.41373  Q11.7492, 2.43098 11.7428, 2.44345 " /><path d="M12.7729, -2.98741 L12.4572, -2.44344 " /><path d="M13.2729, 2.98741 L12.9572, 2.44345 " /><path id= "102" d=" M 13.7875 -3 L 13.9125 -3 " />
<path d="M12.7428, 2.44344 L12.4271, 2.98741 " /><path d="M13.2428, -2.44344 L12.9271, -2.98742 " /><path d="M13.4572, -2.44344 Q13.4515, -2.43222 13.4334, -2.41612  Q13.4096, -2.39637 13.3764, -2.38921  Q13.3632, -2.38789 13.35, -2.38658  Q13.3035, -2.38752 13.2697, -2.41373  Q13.2492, -2.43098 13.2428, -2.44344 " /><path d="M13.9572, 2.44344 Q13.9515, 2.43222 13.9334, 2.41612  Q13.8989, 2.38773 13.85, 2.38658 " /><path d="M12.85, 2.38658 Q12.8036, 2.38752 12.7697, 2.41373  Q12.7492, 2.43098 12.7428, 2.44344 " /><path d="M13.7729, -2.98741 L13.4572, -2.44344 " /><path d="M14.2729, 2.98741 L13.9572, 2.44344 " /><path id= "110" d=" M 14.7875 -3 L 14.9125 -3 " />
<path d="M13.7428, 2.44344 L13.4271, 2.98741 " /><path d="M14.2428, -2.44343 L13.9271, -2.98742 " /><path d="M14.4572, -2.44344 Q14.4515, -2.43222 14.4334, -2.41612  Q14.4096, -2.39636 14.3764, -2.3892  Q14.3632, -2.38789 14.35, -2.38658  Q14.3035, -2.38751 14.2697, -2.41373  Q14.2492, -2.43098 14.2428, -2.44343 " /><path d="M14.9572, 2.44344 Q14.9515, 2.43222 14.9334, 2.41612  Q14.8989, 2.38772 14.85, 2.38658 " /><path d="M13.85, 2.38658 Q13.8036, 2.38751 13.7697, 2.41372  Q13.7492, 2.43098 13.7428, 2.44344 " /><path d="M14.7729, -2.98741 L14.4572, -2.44344 " /><path d="M15.2729, 2.98741 L14.9572, 2.44344 " /><path id= "118" d=" M 15.7875 -3 L 15.9125 -3 " />
<path d="M14.7428, 2.44344 L14.4271, 2.98741 " /><path d="M15.2428, -2.44343 L14.9271, -2.98742 " /><path d="M15.4572, -2.44343 Q15.4515, -2.43221 15.4334, -2.41611  Q15.4096, -2.39636 15.3764, -2.3892  Q15.3632, -2.38789 15.35, -2.38657  Q15.3035, -2.38751 15.2697, -2.41372  Q15.2492, -2.43097 15.2428, -2.44343 " /><path d="M15.9572, 2.44344 Q15.9515, 2.43222 15.9334, 2.41612  Q15.8989, 2.38772 15.85, 2.38658 " /><path d="M14.85, 2.38658 Q14.8036, 2.38751 14.7697, 2.41372  Q14.7492, 2.43098 14.7428, 2.44344 " /><path d="M15.7729, -2.98741 L15.4572, -2.44343 " /><path d="M16.2729, 2.98741 L15.9572, 2.44344 " /><path id= "126" d=" M 16.7875 -3 L 16.9125 -3 " />
<path d="M15.7428, 2.44344 L15.4271, 2.98741 " /><path d="M16.2428, -2.44343 L15.9271, -2.98742 " /><path d="M16.4572, -2.44343 Q16.4515, -2.43221 16.4334, -2.41611  Q16.4096, -2.39636 16.3764, -2.3892  Q16.3632, -2.38789 16.35, -2.38657  Q16.3035, -2.38751 16.2697, -2.41372  Q16.2492, -2.43097 16.2428, -2.44343 " /><path d="M16.9572, 2.44344 Q16.9514, 2.43221 16.9333, 2.41611  Q16.8989, 2.38772 16.85, 2.38657 " /><path d="M15.85, 2.38658 Q15.8036, 2.38751 15.7697, 2.41372  Q15.7492, 2.43097 15.7428, 2.44344 " /><path d="M16.7729, -2.98741 L16.4572, -2.44343 " /><path d="M17.2729, 2.98741 L16.9572, 2.44344 " /><path id= "134" d=" M 17.7875 -3 L 17.9125 -3 " />
<path d="M16.7428, 2.44343 L16.4271, 2.98741 " /><path d="M17.2428, -2.44343 L16.9271, -2.98741 " /><path d="M17.4572, -2.44343 Q17.4514, -2.43221 17.4333, -2.41611  Q17.4096, -2.39636 17.3764, -2.3892  Q17.3632, -2.38788 17.35, -2.38657  Q17.3035, -2.38751 17.2697, -2.41372  Q17.2492, -2.43097 17.2428, -2.44343 " /><path d="M17.9572, 2.44343 Q17.9514, 2.43221 17.9333, 2.41611  Q17.8989, 2.38772 17.85, 2.38657 " /><path d="M16.85, 2.38657 Q16.8036, 2.38751 16.7697, 2.41372  Q16.7492, 2.43097 16.7428, 2.44343 " /><path d="M17.7729, -2.98741 L17.4572, -2.44343 " /><path d="M18.2729, 2.98741 L17.9572, 2.44343 " /><path id= "142" d=" M 18.7875 -3 L 18.9125 -3 " />
<path d="M17.7428, 2.44343 L17.4271, 2.98741 " /><path d="M18.2428, -2.44343 L17.9271, -2.98741 " /><path d="M18.4572, -2.44343 Q18.4514, -2.43221 18.4333, -2.41611  Q18.4096, -2.39635 18.3764, -2.3892  Q18.3632, -2.38788 18.35, -2.38657  Q18.3035, -2.3875 18.2696, -2.41372  Q18.2492, -2.43097 18.2428, -2.44343 " /><path d="M18.9572, 2.44343 Q18.9514, 2.43221 18.9333, 2.41611  Q18.8989, 2.38771 18.85, 2.38657 " /><path d="M17.85, 2.38657 Q17.8036, 2.3875 17.7697, 2.41372  Q17.7492, 2.43097 17.7428, 2.44343 " /><path d="M18.7729, -2.98741 L18.4572, -2.44343 " /><path d="M19.2729, 2.98741 L18.9572, 2.44343 " /><path id= "150" d=" M 19.7875 -3 L 19.9125 -3 " />
<path d="M18.7428, 2.44343 L18.4271, 2.98741 " /><path d="M19.2428, -2.44342 L18.9271, -2.98741 " /><path d="M19.4572, -2.44342 Q19.4514, -2.4322 19.4333, -2.4161  Q19.4096, -2.39635 19.3764, -2.38919  Q19.3632, -2.38788 19.35, -2.38656  Q19.3035, -2.3875 19.2696, -2.41372  Q19.2491, -2.43097 19.2428, -2.44342 " /><path d="M19.9572, 2.44343 Q19.9514, 2.43221 19.9333, 2.41611  Q19.8989, 2.38771 19.85, 2.38657 " /><path d="M18.85, 2.38657 Q18.8035, 2.3875 18.7697, 2.41371  Q18.7492, 2.43097 18.7428, 2.44343 " /><path d="M19.7729, -2.98741 L19.4572, -2.44342 " /><path d="M19.9572, 2.44343 L20, 2.51706 " /><path d="M19.7428, 2.44343 L19.4271, 2.98741 " /><path d="M19.9271, -2.98741 L20, -2.86167 " /><path d="M19.85, 2.38657 Q19.8035, 2.3875 19.7697, 2.41371  Q19.7491, 2.43097 19.7428, 2.44343 " /></g>
<g   fill="none"
   stroke="rgb(0, 0, 0)"
   stroke-linecap="butt"
   stroke-linejoin="miter"
   stroke-width="0.35"
   transform="scale(1, -1)"
  >
<path id= "1" d=" M -3.9 -4.11781 L -3.9 4.11781 " />
<path id= "2" d=" M -2.3 4.79878 L 1.06953e-14 5 " />
<path d="M0, -5 L0, -4.87464  L0, -4.50484  L0, -3.90916  L0, -3.11745  L0, -2.16942  L0, -1.1126  L0, -8.88178e-16  L0, 1.1126  L0, 2.16942  L0, 3.11745  L0, 3.90916  L0, 4.50484  L0, 4.87464  L0, 5 " /><path d="M-2.3, 4.79878 Q-2.3, 4.79855 -2.3, 4.72645 " /><path d="M-2.3, 4.72645 Q-2.87798, 4.67511 -3.44358, 4.62484 " /><path d="M-3.44358, -4.62484 Q-2.87798, -4.67511 -2.3, -4.72645 " /><path d="M-2.3, -4.72645 Q-2.3, -4.79855 -2.3, -4.79878 " /><path d="M-3.9, -4.11781 C-3.90027, -4.23079 -3.86224, -4.34325 -3.79358, -4.43196  C-3.70988, -4.54168 -3.57996, -4.61335 -3.44358, -4.62484 " /><path d="M-3.9, 4.11781 C-3.90027, 4.23079 -3.86224, 4.34325 -3.79358, 4.43196  C-3.70988, 4.54168 -3.57996, 4.61335 -3.44358, 4.62484 " /><path d="M-3.9, -4.11781 L-3.9, -3.87735  L-3.9, -3.48844  L-3.9, -2.96596  L-3.9, -2.32993  L-3.9, -1.60468  L-3.9, -0.818002  L-3.9, -4.55191e-15  L-3.9, 0.818002  L-3.9, 1.60468  L-3.9, 2.32993  L-3.9, 2.96596  L-3.9, 3.48844  L-3.9, 3.87735  L-3.9, 4.11781 " /><path d="M0 3.25 A0.25 0.25 0 0 1 0.25 3" /><path d="M1.2736, 2.98739 Q1.28089, 3 1.28745, 3 " /><path id= "13" d=" M 1.28745 3 L 1.41251 3 " />
<path d="M0.412507, 3 Q0.419798, 3 0.42709, 2.98742 " /><path d="M0.42709, 2.98742 C0.466289, 2.92226 0.505477, 2.57138 0.544673, 2.02367  C0.589769, 1.39788 0.634866, 0.517733 0.679958, -0.328283  C0.715632, -0.997391 0.751308, -1.63811 0.786983, -2.1143  C0.828825, -2.67691 0.870663, -3.00323 0.912505, -3 " /><path d="M0.912505, -3 Q0.919796, -3 0.927087, -2.98742 " /><path id= "17" d=" M 0.25 3 L 0.412507 3 " />
<path id= "18" d=" M 2.28746 3 L 2.41251 3 " />
<path d="M1.41251, 3 Q1.4198, 3 1.42709, 2.98742 " /><path d="M1.42709, 2.98742 C1.46629, 2.92225 1.50548, 2.57137 1.54467, 2.02367  C1.58977, 1.39788 1.63487, 0.517725 1.67996, -0.328295  C1.71562, -0.997164 1.75128, -1.63767 1.78695, -2.11381  C1.8288, -2.67672 1.87065, -3.00324 1.9125, -3 " /><path d="M1.9125, -3 Q1.9198, -3 1.92709, -2.98742 " /><path d="M1.28745, 3 C1.32594, 3.00234 1.36442, 2.72819 1.40291, 2.24468  C1.45257, 1.62659 1.50223, 0.662571 1.55189, -0.271657  C1.58645, -0.921063 1.62101, -1.54826 1.65558, -2.0277  C1.69467, -2.57311 1.73378, -2.92238 1.77287, -2.98741 " /><path d="M1.77287, -2.98741 Q1.78016, -3 1.78746, -3 " /><path d="M2.27287, 2.98741 Q2.28016, 3 2.28746, 3 " /><path id= "25" d=" M 3.28746 3 L 3.41251 3 " />
<path d="M2.41251, 3 Q2.4198, 3 2.42709, 2.98742 " /><path d="M2.42709, 2.98742 C2.46629, 2.92225 2.50548, 2.57137 2.54467, 2.02367  C2.58977, 1.39787 2.63487, 0.517715 2.67996, -0.328308  C2.71561, -0.996928 2.75126, -1.63721 2.78691, -2.11329  C2.82877, -2.67651 2.87064, -3.00324 2.9125, -3 " /><path d="M2.9125, -3 Q2.9198, -3 2.92709, -2.98742 " /><path d="M2.28746, 3 C2.32594, 3.00234 2.36443, 2.72819 2.40291, 2.24469  C2.45255, 1.62682 2.50219, 0.663268 2.55184, -0.270656  C2.58635, -0.91915 2.62086, -1.54559 2.65538, -2.0249  C2.69454, -2.57189 2.73371, -2.92228 2.77287, -2.98741 " /><path d="M2.77287, -2.98741 Q2.78017, -3 2.78746, -3 " /><path d="M3.27287, 2.98741 Q3.28016, 3 3.28746, 3 " /><path id= "32" d=" M 4.28746 3 L 4.41251 3 " />
<path d="M3.41251, 3 Q3.4198, 3 3.42709, 2.98742 " /><path d="M3.42709, 2.98742 C3.46629, 2.92225 3.50548, 2.57137 3.54467, 2.02367  C3.58977, 1.39787 3.63487, 0.517707 3.67996, -0.328319  C3.7156, -0.996718 3.75123, -1.6368 3.78687, -2.11282  C3.82875, -2.67632 3.87063, -3.00325 3.9125, -3 " /><path d="M3.9125, -3 Q3.91979, -3 3.92709, -2.98742 " /><path d="M3.28746, 3 C3.32594, 3.00234 3.36443, 2.7282 3.40291, 2.24469  C3.45254, 1.62704 3.50216, 0.663956 3.55179, -0.269666  C3.58624, -0.917052 3.62069, -1.54254 3.65515, -2.02167  C3.69439, -2.57048 3.73364, -2.92216 3.77288, -2.98741 " /><path d="M3.77288, -2.98741 Q3.78017, -3 3.78746, -3 " /><path d="M4.27287, 2.98741 Q4.28017, 3 4.28746, 3 " /><path id= "39" d=" M 5.28746 3 L 5.41251 3 " />
<path d="M4.41251, 3 Q4.4198, 3 4.42709, 2.98742 " /><path d="M4.42709, 2.98742 C4.46629, 2.92225 4.50548, 2.57137 4.54467, 2.02367  C4.58977, 1.39787 4.63487, 0.5177 4.67996, -0.328328  C4.71558, -0.996527 4.75121, -1.63642 4.78684, -2.1124  C4.82873, -2.67616 4.87061, -3.00325 4.9125, -3 " /><path d="M4.9125, -3 Q4.91979, -3 4.92709, -2.98742 " /><path d="M4.28746, 3 C4.32594, 3.00234 4.36443, 2.7282 4.40291, 2.2447  C4.45252, 1.62726 4.50213, 0.664653 4.55173, -0.268663  C4.58611, -0.914598 4.62049, -1.53883 4.65486, -2.01766  C4.6942, -2.56874 4.73354, -2.92202 4.77288, -2.98741 " /><path d="M4.77288, -2.98741 Q4.78017, -3 4.78746, -3 " /><path d="M5.27287, 2.98741 Q5.28017, 3 5.28746, 3 " /><path id= "46" d=" M 6.28747 3 L 6.41251 3 " />
<path d="M5.41251, 3 Q5.4198, 3 5.42709, 2.98742 " /><path d="M5.42709, 2.98742 C5.46629, 2.92225 5.50548, 2.57137 5.54467, 2.02367  C5.58977, 1.39787 5.63487, 0.517695 5.67996, -0.328335  C5.71558, -0.996395 5.7512, -1.63617 5.78682, -2.11211  C5.82871, -2.67604 5.87061, -3.00325 5.9125, -3 " /><path d="M5.9125, -3 Q5.91979, -3 5.92709, -2.98742 " /><path d="M5.28746, 3 C5.32595, 3.00234 5.36443, 2.7282 5.40292, 2.2447  C5.45251, 1.62748 5.5021, 0.665341 5.55168, -0.267673  C5.58595, -0.911614 5.62022, -1.53408 5.65449, -2.01246  C5.69395, -2.56646 5.73342, -2.92184 5.77288, -2.98741 " /><path d="M5.77288, -2.98741 Q5.78017, -3 5.78747, -3 " /><path d="M6.27288, 2.98741 Q6.28017, 3 6.28747, 3 " /><path id= "53" d=" M 7.28747 3 L 7.4125 3 " />
<path d="M6.41251, 3 Q6.4198, 3 6.42709, 2.98742 " /><path d="M6.42709, 2.98742 C6.46629, 2.92225 6.50548, 2.57137 6.54467, 2.02367  C6.58977, 1.39786 6.63487, 0.517682 6.67996, -0.328353  C6.71556, -0.996027 6.75116, -1.63545 6.78676, -2.1113  C6.82867, -2.67572 6.87059, -3.00326 6.9125, -3 " /><path d="M6.9125, -3 Q6.91979, -3 6.92709, -2.98742 " /><path d="M6.28747, 3 C6.32595, 3.00234 6.36444, 2.7282 6.40292, 2.2447  C6.45249, 1.6277 6.50206, 0.666029 6.55163, -0.266683  C6.58585, -0.909641 6.62007, -1.53127 6.65428, -2.00949  C6.69381, -2.56516 6.73335, -2.92174 6.77288, -2.98741 " /><path d="M6.77288, -2.98741 Q6.78018, -3 6.78747, -3 " /><path d="M7.27288, 2.98741 Q7.28017, 3 7.28747, 3 " /><path id= "60" d=" M 8.28747 3 L 8.4125 3 " />
<path d="M7.4125, 3 Q7.4198, 3 7.42709, 2.98741 " /><path d="M7.42709, 2.98741 C7.46629, 2.92225 7.50548, 2.57137 7.54467, 2.02367  C7.58977, 1.39786 7.63487, 0.517674 7.67996, -0.328364  C7.71554, -0.995791 7.75113, -1.63499 7.78672, -2.11078  C7.82865, -2.67551 7.87057, -3.00326 7.9125, -3 " /><path d="M7.9125, -3 Q7.91979, -3 7.92708, -2.98742 " /><path d="M7.28747, 3 C7.32595, 3.00234 7.36444, 2.7282 7.40292, 2.24471  C7.45247, 1.62794 7.50203, 0.666771 7.55158, -0.265616  C7.58625, -0.917175 7.62092, -1.54681 7.65559, -2.02774  C7.69469, -2.57313 7.73379, -2.92238 7.77289, -2.98741 " /><path d="M7.77289, -2.98741 Q7.78018, -3 7.78747, -3 " /><path d="M8.27288, 2.98741 Q8.28018, 3 8.28747, 3 " /><path id= "67" d=" M 9.28747 3 L 9.4125 3 " />
<path d="M8.4125, 3 Q8.4198, 3 8.42709, 2.98741 " /><path d="M8.42709, 2.98741 C8.46629, 2.92225 8.50547, 2.57137 8.54467, 2.02366  C8.58977, 1.39785 8.63487, 0.517661 8.67996, -0.328382  C8.71552, -0.995403 8.75109, -1.63423 8.78665, -2.10993  C8.8286, -2.67517 8.87055, -3.00327 8.9125, -3 " /><path d="M8.9125, -3 Q8.91979, -3 8.92708, -2.98742 " /><path d="M8.28747, 3 C8.32595, 3.00234 8.36444, 2.7282 8.40292, 2.24471  C8.45246, 1.62817 8.50199, 0.66749 8.55153, -0.264581  C8.58605, -0.913446 8.62058, -1.54068 8.65511, -2.02096  C8.69437, -2.57018 8.73363, -2.92214 8.77289, -2.98741 " /><path d="M8.77289, -2.98741 Q8.78018, -3 8.78747, -3 " /><path d="M9.27288, 2.98741 Q9.28018, 3 9.28747, 3 " /><path id= "74" d=" M 10.2875 3 L 10.4125 3 " />
<path d="M9.4125, 3 Q9.4198, 3 9.42709, 2.98741 " /><path d="M9.42709, 2.98741 C9.46629, 2.92225 9.50547, 2.57137 9.54467, 2.02366  C9.58977, 1.39784 9.63487, 0.517644 9.67996, -0.328406  C9.7155, -0.994879 9.75103, -1.63321 9.78657, -2.10878  C9.82855, -2.67471 9.87052, -3.00328 9.9125, -3 " /><path d="M9.9125, -3 Q9.91979, -3 9.92708, -2.98742 " /><path d="M9.28747, 3 C9.32595, 3.00234 9.36444, 2.72821 9.40292, 2.24472  C9.45244, 1.62841 9.50196, 0.668226 9.55147, -0.263522  C9.58573, -0.907347 9.61999, -1.53001 9.65425, -2.00893  C9.69379, -2.56492 9.73335, -2.92172 9.77289, -2.98741 " /><path d="M9.77289, -2.98741 Q9.78018, -3 9.78748, -3 " /><path d="M10.2729, 2.98741 Q10.2802, 3 10.2875, 3 " /><path id= "81" d=" M 11.2875 3 L 11.4125 3 " />
<path d="M10.4125, 3 Q10.4198, 3 10.4271, 2.98741 " /><path d="M10.4271, 2.98741 C10.4663, 2.92225 10.5055, 2.57136 10.5447, 2.02366  C10.5898, 1.39784 10.6349, 0.517646 10.68, -0.328403  C10.7155, -0.994952 10.751, -1.63336 10.7866, -2.10894  C10.8286, -2.67477 10.8705, -3.00327 10.9125, -3 " /><path d="M10.9125, -3 Q10.9198, -3 10.9271, -2.98742 " /><path d="M10.2875, 3 C10.326, 3.00234 10.3644, 2.72821 10.4029, 2.24472  C10.4524, 1.62865 10.5019, 0.668985 10.5514, -0.262429  C10.586, -0.911468 10.6205, -1.53902 10.655, -2.01967  C10.6943, -2.56961 10.7336, -2.9221 10.7729, -2.98741 " /><path d="M10.7729, -2.98741 Q10.7802, -3 10.7875, -3 " /><path d="M11.2729, 2.98741 Q11.2802, 3 11.2875, 3 " /><path id= "88" d=" M 12.2875 3 L 12.4125 3 " />
<path d="M11.4125, 3 Q11.4198, 3 11.4271, 2.98741 " /><path d="M11.4271, 2.98741 C11.4663, 2.92225 11.5055, 2.57136 11.5447, 2.02366  C11.5898, 1.39785 11.6349, 0.517651 11.68, -0.328395  C11.7155, -0.995122 11.7511, -1.63369 11.7866, -2.10931  C11.8286, -2.67492 11.8705, -3.00327 11.9125, -3 " /><path d="M11.9125, -3 Q11.9198, -3 11.9271, -2.98742 " /><path d="M11.2875, 3 C11.326, 3.00234 11.3644, 2.72821 11.4029, 2.24473  C11.4524, 1.62887 11.5019, 0.66967 11.5514, -0.261443  C11.586, -0.912655 11.6207, -1.54229 11.6553, -2.02371  C11.6945, -2.57138 11.7337, -2.92224 11.7729, -2.98741 " /><path d="M11.7729, -2.98741 Q11.7802, -3 11.7875, -3 " /><path d="M12.2729, 2.98741 Q12.2802, 3 12.2875, 3 " /><path id= "95" d=" M 13.2875 3 L 13.4125 3 " />
<path d="M12.4125, 3 Q12.4198, 3 12.4271, 2.98741 " /><path d="M12.4271, 2.98741 C12.4663, 2.92225 12.5055, 2.57136 12.5447, 2.02366  C12.5898, 1.39784 12.6349, 0.517642 12.68, -0.328407  C12.7155, -0.994844 12.751, -1.63315 12.7866, -2.1087  C12.8285, -2.67468 12.8705, -3.00328 12.9125, -3 " /><path d="M12.9125, -3 Q12.9198, -3 12.9271, -2.98742 " /><path d="M12.2875, 3 C12.326, 3.00234 12.3644, 2.72821 12.4029, 2.24473  C12.4524, 1.6291 12.5019, 0.670366 12.5513, -0.260439  C12.5857, -0.90657 12.6201, -1.53159 12.6544, -2.01164  C12.6939, -2.56611 12.7334, -2.92182 12.7729, -2.98741 " /><path d="M12.7729, -2.98741 Q12.7802, -3 12.7875, -3 " /><path d="M13.2729, 2.98741 Q13.2802, 3 13.2875, 3 " /><path id= "102" d=" M 14.2875 3 L 14.4125 3 " />
<path d="M13.4125, 3 Q13.4198, 3 13.4271, 2.98741 " /><path d="M13.4271, 2.98741 C13.4663, 2.92225 13.5055, 2.57136 13.5447, 2.02366  C13.5898, 1.39783 13.6349, 0.51761 13.68, -0.328451  C13.7154, -0.993774 13.7509, -1.63107 13.7864, -2.10635  C13.8284, -2.67374 13.8705, -3.00329 13.9125, -3 " /><path d="M13.9125, -3 Q13.9198, -3 13.9271, -2.98742 " /><path d="M13.2875, 3 C13.326, 3.00234 13.3644, 2.72821 13.4029, 2.24473  C13.4524, 1.62934 13.5018, 0.671109 13.5513, -0.259369  C13.5858, -0.909392 13.6204, -1.53808 13.655, -2.01945  C13.6943, -2.56952 13.7336, -2.92209 13.7729, -2.98741 " /><path d="M13.7729, -2.98741 Q13.7802, -3 13.7875, -3 " /><path d="M14.2729, 2.98741 Q14.2802, 3 14.2875, 3 " /><path id= "109" d=" M 15.2875 3 L 15.4125 3 " />
<path d="M14.4125, 3 Q14.4198, 3 14.4271, 2.98741 " /><path d="M14.4271, 2.98741 C14.4663, 2.92224 14.5055, 2.57136 14.5447, 2.02366  C14.5898, 1.39782 14.6349, 0.517598 14.68, -0.328468  C14.7154, -0.993324 14.7509, -1.6302 14.7863, -2.10537  C14.8284, -2.67335 14.8704, -3.0033 14.9125, -3 " /><path d="M14.9125, -3 Q14.9198, -3 14.9271, -2.98742 " /><path d="M14.2875, 3 C14.326, 3.00234 14.3645, 2.72821 14.4029, 2.24474  C14.4524, 1.6296 14.5018, 0.671944 14.5512, -0.258165  C14.5855, -0.903543 14.6199, -1.52804 14.6542, -2.00818  C14.6938, -2.5646 14.7333, -2.9217 14.7729, -2.98741 " /><path d="M14.7729, -2.98741 Q14.7802, -3 14.7875, -3 " /><path d="M15.2729, 2.98741 Q15.2802, 3 15.2875, 3 " /><path id= "116" d=" M 16.2875 3 L 16.4125 3 " />
<path d="M15.4125, 3 Q15.4198, 3 15.4271, 2.98741 " /><path d="M15.4271, 2.98741 C15.4663, 2.92224 15.5055, 2.57136 15.5447, 2.02366  C15.5898, 1.39783 15.6349, 0.517625 15.68, -0.328431  C15.7155, -0.994286 15.751, -1.63206 15.7865, -2.10748  C15.8285, -2.67419 15.8705, -3.00329 15.9125, -3 " /><path d="M15.9125, -3 Q15.9198, -3 15.9271, -2.98741 " /><path d="M15.2875, 3 C15.326, 3.00234 15.3645, 2.72822 15.4029, 2.24474  C15.4523, 1.62989 15.5017, 0.672851 15.5511, -0.256858  C15.5856, -0.90426 15.62, -1.53072 15.6545, -2.01166  C15.6939, -2.56612 15.7334, -2.92182 15.7729, -2.98741 " /><path d="M15.7729, -2.98741 Q15.7802, -3 15.7875, -3 " /><path d="M16.2729, 2.98741 Q16.2802, 3 16.2875, 3 " /><path id= "123" d=" M 17.2875 3 L 17.4125 3 " />
<path d="M16.4125, 3 Q16.4198, 3 16.4271, 2.98741 " /><path d="M16.4271, 2.98741 C16.4663, 2.92224 16.5055, 2.57136 16.5447, 2.02365  C16.5898, 1.39781 16.6349, 0.51758 16.68, -0.328492  C16.7154, -0.992635 16.7508, -1.62886 16.7862, -2.10386  C16.8283, -2.67275 16.8704, -3.00331 16.9125, -3 " /><path d="M16.9125, -3 Q16.9198, -3 16.9271, -2.98741 " /><path d="M16.2875, 3 C16.326, 3.00234 16.3645, 2.72822 16.4029, 2.24475  C16.4526, 1.62606 16.5024, 0.66069 16.5521, -0.274418  C16.5862, -0.915505 16.6203, -1.53485 16.6544, -2.01142  C16.6939, -2.56601 16.7334, -2.92181 16.7729, -2.98741 " /><path d="M16.7729, -2.98741 Q16.7802, -3 16.7875, -3 " /><path d="M17.2729, 2.98741 Q17.2802, 3 17.2875, 3 " /><path id= "130" d=" M 18.2875 3 L 18.4125 3 " />
<path d="M17.4125, 3 Q17.4198, 3 17.4271, 2.98741 " /><path d="M17.4271, 2.98741 C17.4663, 2.92224 17.5055, 2.57136 17.5447, 2.02366  C17.5898, 1.39783 17.6349, 0.517607 17.68, -0.328455  C17.7154, -0.993671 17.7509, -1.63087 17.7864, -2.10613  C17.8284, -2.67365 17.8705, -3.0033 17.9125, -3 " /><path d="M17.9125, -3 Q17.9198, -3 17.9271, -2.98741 " /><path d="M17.2875, 3 C17.326, 3.00234 17.3645, 2.72822 17.4029, 2.24475  C17.4526, 1.62644 17.5023, 0.661902 17.552, -0.272674  C17.5866, -0.922559 17.6212, -1.55012 17.6557, -2.02956  C17.6948, -2.57393 17.7339, -2.92246 17.7729, -2.98741 " /><path d="M17.7729, -2.98741 Q17.7802, -3 17.7875, -3 " /><path d="M18.2729, 2.98741 Q18.2802, 3 18.2875, 3 " /><path id= "137" d=" M 19.2875 3 L 19.4125 3 " />
<path d="M18.4125, 3 Q18.4198, 3 18.4271, 2.98741 " /><path d="M18.4271, 2.98741 C18.4663, 2.92224 18.5055, 2.57136 18.5447, 2.02365  C18.5898, 1.39781 18.6349, 0.51756 18.68, -0.32852  C18.7153, -0.991792 18.7507, -1.62723 18.7861, -2.10202  C18.8282, -2.67198 18.8704, -3.00333 18.9125, -3 " /><path d="M18.9125, -3 Q18.9198, -3 18.9271, -2.98741 " /><path d="M18.2875, 3 C18.326, 3.00234 18.3645, 2.72822 18.4029, 2.24476  C18.4526, 1.62672 18.5023, 0.662759 18.5519, -0.271441  C18.5865, -0.920666 18.621, -1.54772 18.6556, -2.02713  C18.6947, -2.57288 18.7338, -2.92237 18.7729, -2.98741 " /><path d="M18.7729, -2.98741 Q18.7802, -3 18.7875, -3 " /><path d="M19.2729, 2.98741 Q19.2802, 3 19.2875, 3 " /><path d="M19.4125, 3 Q19.4198, 3 19.4271, 2.98741 " /><path d="M19.4271, 2.98741 C19.4663, 2.92224 19.5055, 2.57135 19.5447, 2.02365  C19.5898, 1.3978 19.6349, 0.517554 19.68, -0.328527  C19.7153, -0.991532 19.7507, -1.62673 19.786, -2.10145  C19.8282, -2.67178 19.8703, -3.00333 19.9125, -3 " /><path d="M19.9125, -3 Q19.9198, -3 19.9271, -2.98741 " /><path d="M19.2875, 3 C19.326, 3.00234 19.3645, 2.72822 19.4029, 2.24476  C19.4526, 1.62713 19.5022, 0.66405 19.5518, -0.269582  C19.5863, -0.916865 19.6207, -1.54227 19.6552, -2.02138  C19.6944, -2.57037 19.7337, -2.92217 19.7729, -2.98741 " /><path d="M19.7729, -2.98741 Q19.7802, -3 19.7875, -3 " /><path d="M20, 2.50203 Q20, 2.51706 20, 2.51706 " /><path d="M20, -2.86167 C20, -2.86053 20, -2.75308 20, -2.53934  C20, -2.31824 20, -1.98558 20, -1.58421  C20, -1.22251 20, -0.805761 20, -0.384626 " /><path d="M20, -0.384626 C20, -0.142069 20, 0.138465 20, 0.410575  C20, 0.76167 20, 1.10596 20, 1.40243  C20, 1.69973 20, 1.9486 20, 2.12773  C20, 2.26665 20, 2.36689 20, 2.42847 " /><path d="M20, 2.50203 Q20, 2.4805 20, 2.42847 " /></g>

</svg>
