<svg xmlns="http://www.w3.org/2000/svg" viewBox="-5.8 -5.8 11.6 11.6">
<rect width="100%" height="100%" fill="white"/>
<g   fill="none"
   stroke="rgb(0, 0, 0)"
   stroke-linecap="butt"
   stroke-linejoin="miter"
   stroke-width="0.35"
   transform="scale(1, -1)"
  >
<path id= "1" d=" M -4.11781 0.83 L 4.11781 0.83 " />
<path d="M-4.11781, 0.83 C-4.37347, 0.83 -4.60817, 0.83 -4.62484, 0.83 " /><path d="M4.11781, 0.83 C4.37347, 0.83 4.60817, 0.83 4.62484, 0.83 " /><path id= "4" d=" M -4.62484 0.83 L -4.11781 0.83 " />
<path id= "5" d=" M 4.11781 0.83 L 4.62484 0.83 " />
<path d="M-4.62484, 0.83 L-4.72645, 0.83 " /><path d="M4.72645, 0.83 L4.62484, 0.83 " /><path d="M4.72645 0.83 A4.79878 4.79878 0 0 0 4.79878 1.17536e-15" /><circle cx ="0" cy ="0" r ="5" /><path d="M4.79878 0 A4.79878 4.79878 0 0 0 4.72645 -0.83" /><path d="M4.72645, -0.83 L4.62484, -0.83 " /><path d="M-4.62484, -0.83 L-4.72645, -0.83 " /><path d="M-4.72645 -0.83 A4.79878 4.79878 0 0 0 -4.72645 0.83" /><path id= "14" d=" M -4.62484 -0.83 L -4.11781 -0.83 " />
<path id= "15" d=" M 4.11781 -0.83 L 4.62484 -0.83 " />
<path d="M-4.11781, -0.83 C-4.37347, -0.83 -4.60817, -0.83 -4.62484, -0.83 " /><path id= "17" d=" M -4.11781 -0.83 L 4.11781 -0.83 " />
<path d="M4.11781, -0.83 C4.37347, -0.83 4.60817, -0.83 4.62484, -0.83 " /></g>

</svg>
