<svg xmlns="http://www.w3.org/2000/svg" viewBox="-2.716864 -5.416864 39.394528 10.833728">
<rect width="100%" height="100%" fill="white"/>
<g   fill="none"
   stroke="rgb(0, 0, 0)"
   stroke-linecap="butt"
   stroke-linejoin="miter"
   stroke-width="0.35"
   transform="scale(1, -1)"
  >
<path id= "1" d=" M 1.03923 -0.9 L -1.19792e-16 -2.7 " />
<path id= "2" d=" M 1.03923 -0.9 L 31.488 -0.9 " />
<path id= "3" d=" M 33.9608 -2.61517e-12 L 31.488 -0.9 " />
</g>
<g   fill="none"
   stroke="rgb(0, 0, 0)"
   stroke-linecap="butt"
   stroke-linejoin="miter"
   stroke-width="0.35"
   transform="scale(1, -1)"
  >
<path d="M0, -2.7 L0, -2.63231  L0, -2.43262  L0, -2.11095  L0, -1.68342  L0, -1.17149  L0, -0.600807  L0, -4.44089e-16  L0, 0.600807  L0, 1.17149  L0, 1.68342  L0, 2.11095  L0, 2.43262  L0, 2.63231  L0, 2.7 " /><path id= "2" d=" M 0 2.7 L 1.03923 0.9 " />
<path d="M1.03923, -0.9 L1.03923, -0.877435  L1.03923, -0.810872  L1.03923, -0.703648  L1.03923, -0.561141  L1.03923, -0.390495  L1.03923, -0.200269  L1.03923, -1.66533e-16  L1.03923, 0.200269  L1.03923, 0.390495  L1.03923, 0.561141  L1.03923, 0.703648  L1.03923, 0.810872  L1.03923, 0.877435  L1.03923, 0.9 " /><path id= "4" d=" M 1.03923 0.9 L 31.488 0.9 " />
<path d="M31.488, -0.9 L31.488, -0.877435  L31.488, -0.810872  L31.488, -0.703648  L31.488, -0.561141  L31.488, -0.390495  L31.488, -0.200269  L31.488, -1.66533e-16  L31.488, 0.200269  L31.488, 0.390495  L31.488, 0.561141  L31.488, 0.703648  L31.488, 0.810872  L31.488, 0.877435  L31.488, 0.9 " /><path id= "6" d=" M 31.488 0.9 L 33.9608 2.25344e-12 " />
</g>

</svg>
