<svg xmlns="http://www.w3.org/2000/svg" viewBox="-8.898018 -8.435068000000001 13.341206000000001 14.200836">
<rect width="100%" height="100%" fill="white"/>
<g   fill="none"
   stroke="rgb(0, 0, 0)"
   stroke-linecap="butt"
   stroke-linejoin="miter"
   stroke-width="0.35"
   transform="scale(1, -1)"
  >
<path id= "1" d=" M -1.32088 6.53034 L -2.92365 7.4557 " />
<path id= "2" d=" M -6.31588 -2.12126 L -7.91865 -1.19589 " />
<path d="M-2.92365, 7.4557 C-3.31826, 7.68452 -3.78167, 7.78526 -4.25448, 7.75816  C-4.41958, 7.7489 -4.5855, 7.72526 -4.75225, 7.68723  C-5.16996, 7.59225 -5.5883, 7.41017 -5.99292, 7.15612  C-6.84173, 6.62498 -7.63322, 5.76539 -8.21072, 4.77029  C-8.80332, 3.75387 -9.16307, 2.61077 -9.19463, 1.58928  C-9.21072, 1.12014 -9.15781, 0.683682 -9.03591, 0.279912  C-8.98541, 0.114795 -8.92265, -0.042294 -8.84764, -0.191355  C-8.63467, -0.615821 -8.31514, -0.967984 -7.91865, -1.19589 " /></g>
<g   fill="none"
   stroke="rgb(0, 0, 0)"
   stroke-linecap="butt"
   stroke-linejoin="miter"
   stroke-width="0.35"
   transform="scale(1, -1)"
  >
<path d="M3.45 2.12426 A5.525 3.18986 60 0 1 3.46382 2.51131" />
<path d="M1.78783, -2.15974 L1.97053, -1.87049  L2.14099, -1.58357  L2.29994, -1.29775  L2.44803, -1.01185  L2.5859, -0.724641  L2.71412, -0.434926  L2.83324, -0.141481  L2.94376, 0.15693  L3.04614, 0.461565  L3.14082, 0.773708  L3.22819, 1.09467  L3.30862, 1.42582  L3.38245, 1.76853  L3.45, 2.12426 " /><path d="M1.21922 -2.86709 A5.525 3.18986 60 0 1 1.78783 -2.15974" />
<path d="M-2.10512, -4.7864 L-1.7973, -4.67516  L-1.50468, -4.56201  L-1.22605, -4.44647  L-0.960225, -4.32806  L-0.706084, -4.20627  L-0.462558, -4.08059  L-0.228619, -3.95049  L-0.00328282, -3.81543  L0.214401, -3.67483  L0.425349, -3.5281  L0.630451, -3.37462  L0.830571, -3.21375  L1.02655, -3.04481  L1.21922, -2.86709 " /><path d="M-2.67373 -4.73562 A5.525 3.18986 60 0 1 -2.10512 -4.7864" />
<path d="M3.45, 2.8824 Q3.38422, 3.02685 3.30862, 3.17305  Q3.23013, 3.32 3.14082, 3.47062  Q3.09348, 3.54709 3.04614, 3.62356  Q2.99495, 3.70185 2.94376, 3.78014  Q2.8885, 3.86057 2.83324, 3.941  Q2.77368, 4.02392 2.71412, 4.10683  Q2.65001, 4.19258 2.5859, 4.27833  Q2.51696, 4.36727 2.44803, 4.45621  Q2.37398, 4.54872 2.29994, 4.64123  Q2.22046, 4.7377 2.14099, 4.83417  Q2.05576, 4.935 1.97053, 5.03584  Q1.87918, 5.14146 1.78783, 5.24709 " /><path d="M3.46382 2.51131 A5.525 3.18986 60 0 1 3.45 2.8824" />
<path id= "8" d=" M 3.45 2.8824 L 0.288901 4.70746 " />
<path d="M0.302719 4.33637 A5.525 3.18986 60 0 1 0.288901 4.70746" />
<path d="M-1.37327, 7.07215 Q-1.33923, 6.99961 -1.30518, 6.92707  Q-1.23272, 6.7814 -1.15009, 6.63311  Q-1.06446, 6.4838 -0.967554, 6.32991  Q-0.916302, 6.25159 -0.865051, 6.17327  Q-0.809772, 6.09283 -0.754492, 6.01238  Q-0.694953, 5.92948 -0.635413, 5.84658  Q-0.571362, 5.76086 -0.507311, 5.67515  Q-0.438479, 5.58627 -0.369646, 5.49738  Q-0.295742, 5.40496 -0.221838, 5.31253  Q-0.142551, 5.21617 -0.0632646, 5.1198  Q0.0217392, 5.0191 0.106743, 4.9184  Q0.197822, 4.81293 0.288901, 4.70746 " /><path id= "11" d=" M 1.78783 5.24709 L -1.37327 7.07215 " />
<path d="M-1.37327 7.07215 A5.525 3.18986 60 0 1 -1.94188 7.12293" />
<path d="M-2.19139, 7.03293 Q-2.06921, 7.07819 -1.94188, 7.12293 " /><path d="M-5.83482, -2.91055 C-6.15091, -2.54822 -6.41328, -2.22919 -6.63587, -1.93651 " /><path id= "15" d=" M -2.67373 -4.73562 L -5.83482 -2.91055 " />
<path id= "16" d=" M -2.10512 -4.7864 L -5.26622 -2.96134 " />
<path d="M-5.83482 -2.91055 A5.525 3.18986 60 0 1 -5.26622 -2.96134" />
<path d="M-1.94188, -1.04203 L-2.24916, -1.15358  L-2.54131, -1.267  L-2.81957, -1.38275  L-3.08511, -1.50133  L-3.33905, -1.62324  L-3.58246, -1.74899  L-3.81635, -1.87911  L-4.04173, -2.01415  L-4.25954, -2.15468  L-4.47069, -2.30129  L-4.67608, -2.4546  L-4.87657, -2.61526  L-5.07301, -2.78393  L-5.26622, -2.96134 " /><path id= "19" d=" M 1.21922 -2.86709 L -1.94188 -1.04203 " />
<path id= "20" d=" M 1.78783 -2.15974 L -1.37327 -0.334676 " />
<path d="M-1.94188 -1.04203 A5.525 3.18986 60 0 1 -1.37327 -0.334676" />
<path d="M0.288901, 3.94932 L0.106743, 3.65976  L-0.0632646, 3.37258  L-0.221838, 3.08655  L-0.369646, 2.80048  L-0.507311, 2.51315  L-0.635413, 2.22337  L-0.754492, 1.9299  L-0.865051, 1.63151  L-0.967554, 1.32695  L-1.06243, 1.01492  L-1.15009, 0.69412  L-1.23089, 0.363191  L-1.30518, 0.0207402  L-1.37327, -0.334676 " /><path id= "23" d=" M 3.45 2.12426 L 0.288901 3.94932 " />
<path d="M0.288901 3.94932 A5.525 3.18986 60 0 1 0.302719 4.33637" />
<path d="M-0.286378 4.24374 A4.995 2.88386 60 0 1 -1.32088 6.53034" />
<path d="M-6.31588 -2.12126 A4.995 2.88386 60 0 1 -0.286378 4.24374" />
<path d="M-4.05004, 3.09085 C-4.3979, 2.70342 -4.68361, 2.2296 -4.85745, 1.76195 " /><path d="M-3.7397, 4.0513 C-4.21924, 3.77277 -4.68305, 3.29332 -5.0133, 2.74727  C-5.35518, 2.18769 -5.55159, 1.56555 -5.55507, 1.06261 " /><path d="M-3.69412, 4.30361 C-4.27752, 4.05293 -4.87154, 3.47758 -5.2604, 2.80735  C-5.64137, 2.16153 -5.82267, 1.44426 -5.75068, 0.92321 " /><path d="M-3.65477, 4.73695 C-3.99285, 4.70397 -4.36534, 4.54258 -4.71707, 4.2801  C-5.1014, 3.9949 -5.45899, 3.59007 -5.72778, 3.14333  C-6.04983, 2.61191 -6.24142, 2.02527 -6.26038, 1.53876  C-6.27188, 1.26906 -6.23229, 1.02997 -6.14621, 0.842218 " /><path d="M-3.65355, 4.86294 C-4.04658, 4.88869 -4.50833, 4.71792 -4.93842, 4.39347  C-5.33711, 4.09507 -5.706, 3.66804 -5.97637, 3.20038  C-6.28082, 2.67765 -6.45826, 2.10843 -6.4717, 1.63679  C-6.48208, 1.31633 -6.41894, 1.04112 -6.29193, 0.844905 " /><path d="M-3.65339 4.83094 A3.33333 1.9245 60 0 1 -4.34374 6.35686" />
<path d="M-4.34374 6.35686 A3.33333 1.9245 60 0 1 -7.67707 0.583359" />
<path d="M-7.67707 0.583359 A3.33333 1.9245 60 0 1 -3.65339 4.83094" />
<path d="M-3.79185, 5.06736 C-4.23879, 5.26227 -4.85679, 5.11477 -5.42381, 4.68862  C-5.80792, 4.40367 -6.16535, 3.99921 -6.43413, 3.55282  C-6.75594, 3.02221 -6.94771, 2.43639 -6.96735, 1.95012  C-6.98909, 1.47939 -6.85121, 1.10609 -6.59335, 0.92375 " /><path d="M-7.17708 2.08705 A2.5 1.44338 60 0 1 -6.65937 0.958036" />
<path d="M-6.65937 0.958036 A2.5 1.44338 60 0 1 -5.72738 0.931555" />
<path d="M-3.65546, 4.94382 Q-3.76176, 5.05854 -3.89335, 5.13458 " /><path d="M-3.89335, 5.13458 C-4.11723, 5.26433 -4.39281, 5.30402 -4.68984, 5.25024  C-4.99921, 5.19504 -5.3312, 5.03829 -5.64599, 4.80136  C-6.04615, 4.50177 -6.41623, 4.07258 -6.6868, 3.60288  C-6.98018, 3.09718 -7.15506, 2.54842 -7.17708, 2.08705 " /><path d="M-7.17708, 2.08705 C-7.20676, 2.35888 -7.18177, 2.67033 -7.10563, 2.99356  C-6.97854, 3.53826 -6.70408, 4.11331 -6.34566, 4.59624  C-5.93226, 5.15731 -5.41082, 5.58929 -4.91415, 5.79084 " /><path d="M-4.07054 6.13604 A3.33333 1.9245 60 0 1 -7.34924 0.457169" />
<path d="M-4.91415, 5.79084 C-4.74682, 5.86029 -4.52111, 5.90501 -4.32411, 5.88696  C-4.22695, 5.87899 -4.13511, 5.8585 -4.04859, 5.82548 " /><path d="M-4.04859, 5.82548 Q-3.90619, 5.7705 -3.79442, 5.67683 " /></g>

</svg>
