<svg xmlns="http://www.w3.org/2000/svg" viewBox="-9.384 -6.409000000000001 10.268 12.818000000000001">
<rect width="100%" height="100%" fill="white"/>
<g   fill="none"
   stroke="rgb(0, 0, 0)"
   stroke-linecap="butt"
   stroke-linejoin="miter"
   stroke-width="0.35"
   transform="scale(1, -1)"
  >
<path id= "1" d=" M -3.65181e-16 -4.44 L -0.626425 -5.525 " />
<path id= "2" d=" M -0.626425 -5.525 L -5.09689 -5.525 " />
<path id= "3" d=" M -5.4 -4.995 L -5.09689 -5.525 " />
<path id= "4" d=" M -5.4 -4.995 L -7.66667 -4.995 " />
<path d="M-7.66667, -4.995 C-7.78394, -4.99473 -7.89625, -4.97101 -8.00362, -4.92384  C-8.04361, -4.90616 -8.08197, -4.88546 -8.1187, -4.86174  C-8.3535, -4.71277 -8.50221, -4.43973 -8.5, -4.16167 " /></g>
<g   fill="none"
   stroke="rgb(0, 0, 0)"
   stroke-linecap="butt"
   stroke-linejoin="miter"
   stroke-width="0.35"
   transform="scale(1, -1)"
  >
<path d="M0, -4.44 L0, -4.32868  L0, -4.0003  L0, -3.47133  L0, -2.76829  L0, -1.92644  L0, -0.987993  L0, -7.77156e-16  L0, 0.987993  L0, 1.92644  L0, 2.76829  L0, 3.47133  L0, 4.0003  L0, 4.32868  L0, 4.44 " /><path id= "2" d=" M 0 4.44 L -0.626425 5.525 " />
<path d="M-0.626425, 5.50546 Q-0.626425, 5.52495 -0.626425, 5.525 " /><path d="M-0.626425, 3.15479 L-0.544997, 3.33175  L-0.476669, 3.50449  L-0.421153, 3.67375  L-0.378214, 3.84025  L-0.347673, 4.00469  L-0.329399, 4.16775  L-0.323316, 4.33013  L-0.329399, 4.49251  L-0.347673, 4.65557  L-0.378214, 4.82  L-0.421153, 4.9865  L-0.476669, 5.15576  L-0.544997, 5.32851  L-0.626425, 5.50546 " /><path d="M-0.626425, 2.35066 Q-0.626425, 2.77218 -0.626425, 3.15479 " /><path d="M-0.626425, -2.35066 L-0.544997, -1.99676  L-0.476669, -1.65127  L-0.421153, -1.31275  L-0.378214, -0.979749  L-0.347673, -0.650881  L-0.329399, -0.324756  L-0.323316, 5.55112e-17  L-0.329399, 0.324756  L-0.347673, 0.650881  L-0.378214, 0.979749  L-0.421153, 1.31275  L-0.476669, 1.65127  L-0.544997, 1.99676  L-0.626425, 2.35066 " /><path d="M-0.626425, -3.15479 Q-0.626425, -2.77218 -0.626425, -2.35066 " /><path d="M-0.626425, -5.50546 L-0.544997, -5.32851  L-0.476669, -5.15576  L-0.421153, -4.9865  L-0.378214, -4.82  L-0.347673, -4.65557  L-0.329399, -4.49251  L-0.323316, -4.33013  L-0.329399, -4.16775  L-0.347673, -4.00469  L-0.378214, -3.84025  L-0.421153, -3.67375  L-0.476669, -3.50449  L-0.544997, -3.33175  L-0.626425, -3.15479 " /><path d="M-0.626425, -5.525 Q-0.626425, -5.52495 -0.626425, -5.50546 " /><path id= "10" d=" M -0.626425 5.525 L -5.09689 5.525 " />
<path id= "11" d=" M -0.626425 -5.50546 L -5.09689 -5.50546 " />
<path d="M-5.09689, -5.525 Q-5.09689, -5.52495 -5.09689, -5.50546 " /><path d="M-5.09689, -3.15479 L-5.17755, -3.33175  L-5.24523, -3.50449  L-5.30023, -3.67375  L-5.34276, -3.84025  L-5.37301, -4.00469  L-5.39112, -4.16775  L-5.39714, -4.33013  L-5.39112, -4.49251  L-5.37301, -4.65557  L-5.34276, -4.82  L-5.30023, -4.9865  L-5.24523, -5.15576  L-5.17755, -5.32851  L-5.09689, -5.50546 " /><path id= "14" d=" M -0.626425 -3.15479 L -5.09689 -3.15479 " />
<path id= "15" d=" M -0.626425 -2.35066 L -5.09689 -2.35066 " />
<path d="M-5.09689, -3.15479 Q-5.09689, -2.77218 -5.09689, -2.35066 " /><path d="M-5.09689, 2.35066 L-5.17755, 1.99676  L-5.24523, 1.65127  L-5.30023, 1.31275  L-5.34276, 0.979749  L-5.37301, 0.650881  L-5.39112, 0.324756  L-5.39714, -1.11022e-16  L-5.39112, -0.324756  L-5.37301, -0.650881  L-5.34276, -0.979749  L-5.30023, -1.31275  L-5.24523, -1.65127  L-5.17755, -1.99676  L-5.09689, -2.35066 " /><path id= "18" d=" M -0.626425 2.35066 L -5.09689 2.35066 " />
<path id= "19" d=" M -0.626425 3.15479 L -5.09689 3.15479 " />
<path d="M-5.09689, 2.35066 Q-5.09689, 2.77218 -5.09689, 3.15479 " /><path d="M-5.09689, 5.50546 L-5.17755, 5.32851  L-5.24523, 5.15576  L-5.30023, 4.9865  L-5.34276, 4.82  L-5.37301, 4.65557  L-5.39112, 4.49251  L-5.39714, 4.33013  L-5.39112, 4.16775  L-5.37301, 4.00469  L-5.34276, 3.84025  L-5.30023, 3.67375  L-5.24523, 3.50449  L-5.17755, 3.33175  L-5.09689, 3.15479 " /><path id= "22" d=" M -0.626425 5.50546 L -5.09689 5.50546 " />
<path d="M-5.09689, 5.50546 Q-5.09689, 5.52495 -5.09689, 5.525 " /><path id= "24" d=" M -5.09689 5.525 L -5.4 4.995 " />
<path d="M-5.4, -4.995 L-5.4, -4.86976  L-5.4, -4.50034  L-5.4, -3.90525  L-5.4, -3.11433  L-5.4, -2.16725  L-5.4, -1.11149  L-5.4, -8.88178e-16  L-5.4, 1.11149  L-5.4, 2.16725  L-5.4, 3.11433  L-5.4, 3.90525  L-5.4, 4.50034  L-5.4, 4.86976  L-5.4, 4.995 " /><path id= "26" d=" M -5.4 4.995 L -7.66667 4.995 " />
<path d="M-7.66667 4.995 A0.833333 0.833333 0 0 1 -8.5 4.16167" /><path d="M-8.5, -4.16167 L-8.5, -4.05732  L-8.5, -3.74953  L-8.5, -3.25372  L-8.5, -2.59476  L-8.5, -1.80568  L-8.5, -0.926058  L-8.5, -7.77156e-16  L-8.5, 0.926058  L-8.5, 1.80568  L-8.5, 2.59476  L-8.5, 3.25372  L-8.5, 3.74953  L-8.5, 4.05732  L-8.5, 4.16167 " /></g>

</svg>
