<svg xmlns="http://www.w3.org/2000/svg" viewBox="-6.3878968 -5.8824368 12.795333600000001 11.7648736">
<rect width="100%" height="100%" fill="white"/>
<g   fill="none"
   stroke="rgb(0, 0, 0)"
   stroke-linecap="butt"
   stroke-linejoin="miter"
   stroke-width="0.35"
   transform="scale(1, -1)"
  >
<path d="M0.977818, -2.30084 Q1.07043, -2.26148 1.15958, -2.21481 " /><path d="M1.92367, -1.59672 Q1.98696, -1.52046 2.04402, -1.43943 " /><path d="M2.46465, -0.418903 Q2.49482, -0.241294 2.49925, -0.061195 " /><path d="M2.5, 0.000484675 C2.50181, 0.603518 2.27486, 1.20346 1.87436, 1.65432  C1.68092, 1.8729 1.45628, 2.05243 1.20044, 2.19293 " /><path d="M1.09504, 2.24742 L1.08813, 2.25077 " /><path d="M1.01988, 2.28251 C0.514136, 2.51001 -0.0681956, 2.56122 -0.605895, 2.42547 " /><path d="M-0.78268, 2.37432 L-0.789657, 2.37201 " /><path d="M-1.01623, 2.28413 Q-1.25633, 2.17723 -1.46903, 2.02285 " /><path d="M-1.65522, 1.87357 Q-1.76726, 1.77457 -1.86672, 1.66294 " /><path d="M-2.0583, 1.41894 L-2.06893, 1.40341 " /><path d="M-2.24053, 1.10906 Q-2.34389, 0.900145 -2.40694, 0.675755 " /><path d="M-2.49998, 0.0092026 L-2.49993, -0.0189269 " /><path d="M0.917333, -2.32562 L0.937608, -2.31752 " /><path d="M0.938944, -2.31698 C1.36709, -2.1442 1.74503, -1.84971 2.01721, -1.47677 " /><path d="M2.04352, -1.44015 L2.04646, -1.43596 " /><path d="M2.49282, -0.189387 L2.49805, -0.0987784 " /><path d="M5.525 0 A5.525 5.525 0 0 1 5.50546 0.464265" /><path d="M3.15479, 4.53574 C3.99017, 3.08882 4.67008, 1.91118 5.50546, 0.464265 " /><path d="M3.15479 4.53574 A5.525 5.525 0 0 1 2.35066 5" /><path d="M-2.35066, 5 C-0.679905, 5 0.679905, 5 2.35066, 5 " /><path d="M-2.35066 5 A5.525 5.525 0 0 1 -3.15479 4.53574" /><path d="M-5.50546, 0.464265 C-4.67008, 1.91118 -3.99017, 3.08882 -3.15479, 4.53574 " /><path d="M-5.50546 0.464265 A5.525 5.525 0 0 1 -5.50546 -0.464265" /><path d="M-3.15479, -4.53574 C-3.99017, -3.08882 -4.67008, -1.91118 -5.50546, -0.464265 " /><path d="M-3.15479 -4.53574 A5.525 5.525 0 0 1 -2.35066 -5" /><path d="M2.35066, -5 C0.679905, -5 -0.679905, -5 -2.35066, -5 " /><path d="M2.35066 -5 A5.525 5.525 0 0 1 3.15479 -4.53574" /><path d="M5.50546, -0.464265 C4.67008, -1.91118 3.99017, -3.08882 3.15479, -4.53574 " /><path d="M5.50546 -0.464265 A5.525 5.525 0 0 1 5.525 -1.35323e-15" /><path d="M1.75883, 1.77666 C1.47031, 2.06286 1.11077, 2.27671 0.721559, 2.39361  C0.311956, 2.51761 -0.129636, 2.53355 -0.547113, 2.4394  C-1.08048, 2.32112 -1.57123, 2.02145 -1.92009, 1.60102  C-2.19384, 1.27349 -2.38114, 0.874577 -2.45829, 0.454739 " /><path d="M0.755133, -2.38323 Q0.842787, -2.35545 0.92816, -2.32132 " /><path d="M0.928272, -2.32127 L0.930622, -2.32033 " /><path d="M0.942465, -2.31555 C1.37181, -2.14154 1.7504, -1.84504 2.02223, -1.4699 " /><path d="M2.0376, -1.44852 Q2.12277, -1.32869 2.19333, -1.1997 " /><path d="M2.5, 0.0026759 C2.50127, 0.604997 2.27435, 1.20404 1.87432, 1.65437  C1.56863, 2.00173 1.16431, 2.26095 0.721073, 2.39375  C0.311242, 2.51773 -0.130589, 2.53353 -0.54823, 2.43915  C-1.14614, 2.30686 -1.68904, 1.94482 -2.04099, 1.44373 " /><path d="M-2.21929, 1.15099 Q-2.26473, 1.06336 -2.30313, 0.972425 " /><path d="M-2.45819, 0.455322 Q-2.48061, 0.334259 -2.49103, 0.211579 " /><path d="M-2.49995, -0.0156451 L-2.49993, -0.0189269 " /><path d="M0.755133, -2.38323 C1.27121, -2.22103 1.73045, -1.88534 2.04163, -1.44283  C2.33851, -1.02451 2.50103, -0.512941 2.5, -8.88178e-16 " /><path d="M2.5, 0.000484692 C2.50181, 0.603547 2.27484, 1.20352 1.8743, 1.65438  C1.56853, 2.00184 1.16407, 2.2611 0.720691, 2.39387  C0.292054, 2.52354 -0.171566, 2.53458 -0.605892, 2.42547 " /><path d="M-0.69931, 2.4002 Q-1.11555, 2.27833 -1.46705, 2.02429 " /><path d="M-1.61119, 1.91156 Q-1.7313, 1.81031 -1.83781, 1.69484 " /><path d="M-2.0583, 1.41894 L-2.06951, 1.40254 " /><path d="M-2.24144, 1.10723 Q-2.34417, 0.899155 -2.40694, 0.675756 " /><path d="M-2.49998, 0.00920261 L-2.49993, -0.0189269 " /><path d="M0.755133, -2.38323 L0.825711, -2.3597 " /><path d="M0.974182, -2.30238 C1.40162, -2.12227 1.77649, -1.82008 2.0432, -1.4406 " /><circle cx ="0" cy ="0" r ="4.995" /><path d="M2.5, 7.08763e-07 C2.50193, 0.603234 2.27494, 1.20341 1.87428, 1.65441  C1.56841, 2.00196 1.1638, 2.26127 0.720263, 2.394  C0.310117, 2.51792 -0.132036, 2.53351 -0.549891, 2.43877  C-1.08483, 2.31952 -1.57666, 2.01771 -1.92526, 1.5948 " /><path d="M-2.04565, 1.43713 L-2.04935, 1.43184 " /><path d="M-2.22535, 1.13923 Q-2.34623, 0.902919 -2.41495, 0.646549 " /><path d="M-2.42644, 0.601976 L-2.42746, 0.597875 " /><path d="M-2.4995, 0.0501119 C-2.51545, -0.609696 -2.25513, -1.27029 -1.79332, -1.74184  C-1.44082, -2.10617 -0.974686, -2.35837 -0.476843, -2.4541  C-0.00491406, -2.54661 0.493342, -2.49837 0.93876, -2.31705  C1.38075, -2.13881 1.76908, -1.83066 2.0431, -1.44074  C2.33906, -1.02282 2.50102, -0.512081 2.5, -8.88178e-16 " /><circle cx ="0" cy ="0" r ="3.33333" /><path d="M2.84845, 2.45521e-07 C2.79906, -0.519113 2.60193, -1.02232 2.28288, -1.43064  C1.90575, -1.91798 1.35435, -2.26541 0.755133, -2.38323 " /><path d="M-2.49993 -0.0189269 A2.5 2.5 0 0 1 0.755133 -2.38323" /><path d="M2.5, 8.10018e-07 C2.50193, 0.603243 2.27493, 1.20343 1.87427, 1.65443  C1.56831, 2.00208 1.16355, 2.26142 0.719869, 2.39412  C0.309631, 2.51799 -0.132606, 2.53349 -0.55051, 2.43863  C-1.08178, 2.32003 -1.57052, 2.02144 -1.91854, 1.60287  C-2.29612, 1.15364 -2.5061, 0.56788 -2.49993, -0.0189269 " /><path d="M-2.49993, -0.0189269 C-2.54189, 0.334971 -2.50656, 0.698749 -2.39888, 1.04078  C-2.21914, 1.61803 -1.831, 2.12826 -1.32412, 2.46628  C-0.739479, 2.86113 -0.00206201, 3.02149 0.700342, 2.91713 " /><path d="M0.700342, 2.91713 C0.806054, 2.90188 0.934792, 2.87179 1.06531, 2.82815  C1.30878, 2.74745 1.56066, 2.61954 1.78455, 2.45627 " /><path d="M1.78455, 2.45627 C1.97087, 2.32116 2.13989, 2.16109 2.27897, 1.99172  C2.3976, 1.84808 2.4957, 1.69417 2.55793, 1.5675 " /><path d="M2.84845, 2.45521e-07 C2.90094, 0.534421 2.79744, 1.0837 2.55793, 1.5675 " /></g>

</svg>
