<svg xmlns="http://www.w3.org/2000/svg" viewBox="-8.2103392 -8.383359200000001 14.0456684 15.395508399999999">
<rect width="100%" height="100%" fill="white"/>
<g   fill="none"
   stroke="rgb(0, 0, 0)"
   stroke-linecap="butt"
   stroke-linejoin="miter"
   stroke-width="0.35"
   transform="scale(1, -1)"
  >
<path id= "1" d=" M 4.25258 3.17061 L 4.77357 2.42943 " />
<path id= "2" d=" M 4.77357 2.42943 L 1.83289 4.12723 " />
<path d="M0.362845, 5.92496 C0.720055, 5.4177 1.18607, 4.8478 1.83289, 4.12723 " /><path d="M-0.412479, 7.3216 C-0.237966, 6.87371 0.0078193, 6.43096 0.362845, 5.92496 " /><path id= "5" d=" M 2.24537 5.78709 L -0.412479 7.3216 " />
<path id= "6" d=" M 3.85434 3.49809 L 2.24537 5.78709 " />
<path id= "7" d=" M 3.85434 3.49809 L 4.25258 3.17061 " />
<path id= "8" d=" M 4.77357 2.42943 L 4.25258 1.08665 " />
<path id= "9" d=" M 4.25258 1.08665 L 3.85434 0.952509 " />
<path id= "10" d=" M 2.24537 -3.19437 L 3.85434 0.952509 " />
<path id= "11" d=" M -0.972573 -5.05225 L 2.24537 -3.19437 " />
<path d="M-3.0052, 6.22579 C-2.29188, 6.63637 -1.46996, 6.98375 -0.412479, 7.3216 " /><path d="M-4.90321, 4.72888 C-4.31803, 5.33941 -3.71635, 5.81395 -3.0052, 6.22579 " /><path d="M0.362845 5.92496 A5.5 3.17543 60 0 1 -3.0052 6.22579" />
<path d="M0.883883 3.98042 A5.5 3.17543 60 0 1 0.362845 5.92496" />
<path id= "16" d=" M 2.24537 -3.19437 L -0.412479 -1.65986 " />
<path d="M0.362845, 1.43423 C0.00781929, 0.515763 -0.237966, -0.465097 -0.412479, -1.65986 " /><path d="M1.83289, 4.12723 C1.18607, 3.20515 0.720055, 2.35144 0.362845, 1.43423 " /><path id= "19" d=" M -0.920541 -5.3488 L -1.96252 -5.95039 " />
<path id= "20" d=" M -1.96252 -5.95039 L -4.90321 -4.25259 " />
<path d="M-3.0052, -2.75568 C-3.71635, -3.16752 -4.31803, -3.64205 -4.90321, -4.25259 " /><path d="M-0.412479, -1.65986 C-1.46996, -1.99771 -2.29188, -2.3451 -3.0052, -2.75568 " /><path id= "23" d=" M -0.972573 -5.05225 L -0.920541 -5.3488 " />
<path d="M-6.37325, -2.45485 C-6.72828, -1.94885 -6.97406, -1.50611 -7.14858, -1.05822 " /><path d="M-4.90321, -4.25259 C-5.55002, -3.53202 -6.01604, -2.96212 -6.37325, -2.45485 " /><path d="M-6.37325, 2.03588 C-6.01604, 2.95309 -5.55002, 3.80679 -4.90321, 4.72888 " /><path d="M-7.14858, -1.05822 C-6.97406, 0.136547 -6.72828, 1.11741 -6.37325, 2.03588 " /><path d="M-3.0052 6.22579 A5.5 3.17543 60 0 1 -6.37325 2.03588" />
<path d="M-6.37325 2.03588 A5.5 3.17543 60 0 1 -6.37325 -2.45485" />
<path d="M-6.37325 -2.45485 A5.5 3.17543 60 0 1 -3.0052 -2.75568" />
<path d="M-3.0052 -2.75568 A5.5 3.17543 60 0 1 0.362845 1.43423" />
<path d="M0.362845 1.43423 A5.5 3.17543 60 0 1 0.883883 3.98042" />
<path d="M-0.176777 3.36805 A4 2.3094 60 0 1 -1.0052 5.19916" />
<path d="M-1.0052 5.19916 A4 2.3094 60 0 1 -5.0052 -1.72905" />
<path d="M-5.0052 -1.72905 A4 2.3094 60 0 1 -0.176777 3.36805" />
<path d="M-0.935744 5.15617 A4 2.3094 60 0 1 -4.93324 -1.76771" />
<g transform = "rotate(60, -2.86378, 1.65341)">
<ellipse cx ="-2.86378" cy ="1.65341" rx ="3.15"  ry ="1.81865"/>
</g>
<path d="M-2.86346, 3.30871 L-3.14629, 3.83672 " /><path d="M-2.86346 3.30871 A2.45873 1.41955 60 0 1 -4.29718 0.174611" />
<path d="M-0.72028, 2.75864 C-0.728654, 2.15455 -0.935933, 1.45103 -1.28516, 0.833229  C-1.61698, 0.240471 -2.07508, -0.26667 -2.53754, -0.556879  C-2.97991, -0.838143 -3.42117, -0.917292 -3.74546, -0.774182  C-4.06342, -0.63851 -4.26621, -0.29257 -4.29718, 0.174611 " /><path d="M-0.72028, 2.75864 C-0.713445, 3.14469 -0.784982, 3.49008 -0.92745, 3.75842  C-1.07339, 4.03499 -1.29403, 4.2296 -1.56541, 4.32212 " /><path d="M-3.14629, 3.83672 C-3.15381, 3.85008 -3.07559, 3.92355 -2.98322, 3.99173  C-2.86863, 4.07697 -2.72863, 4.16048 -2.58745, 4.22395  C-2.41493, 4.30188 -2.24408, 4.35076 -2.0749, 4.37058 " /><path d="M-2.0749, 4.37058 Q-1.79583, 4.40133 -1.56541, 4.32212 " /><path d="M-0.813552, 2.03357 C-1.22428, 1.73588 -1.60559, 1.29824 -1.88073, 0.818193  C-2.11486, 0.412048 -2.27254, -0.0219295 -2.33232, -0.413453 " /><path d="M-0.899939, 1.71817 C-1.46035, 1.22021 -1.91389, 0.474191 -2.09096, -0.208562 " /><path d="M-0.719942, 2.82918 C-0.81383, 3.16055 -0.996996, 3.41549 -1.24549, 3.55819 " /><path d="M-1.24549, 3.55819 C-1.66809, 3.80838 -2.28464, 3.70933 -2.86346, 3.30871 " /><path d="M-1.15978, 3.50254 C-1.60246, 3.70545 -2.22109, 3.56136 -2.78754, 3.13456  C-3.16393, 2.85472 -3.51401, 2.4586 -3.77764, 2.02162  C-4.15859, 1.3965 -4.35066, 0.694836 -4.29718, 0.174611 " /><path d="M-0.721148, 2.83339 C-0.996371, 2.76533 -1.28569, 2.61946 -1.56143, 2.41163  C-1.95023, 2.11993 -2.30996, 1.70428 -2.57478, 1.24899  C-2.99644, 0.533794 -3.16274, -0.266145 -3.01626, -0.783336 " /><path d="M-0.722779, 2.67706 C-1.32144, 2.46693 -1.95134, 1.8931 -2.36321, 1.2055  C-2.76715, 0.543593 -2.95708, -0.203257 -2.87184, -0.731353 " /><path d="M-0.935287, 3.27898 C-1.3369, 3.32784 -1.82008, 3.15913 -2.26812, 2.82019  C-2.66228, 2.52461 -3.02652, 2.10155 -3.29244, 1.63904  C-3.58837, 1.12811 -3.76068, 0.57321 -3.77407, 0.113015  C-3.78877, -0.31608 -3.66709, -0.660051 -3.44014, -0.842896 " /><path d="M-0.871913, 3.18463 C-1.24571, 3.19374 -1.67705, 3.02833 -2.08053, 2.72624  C-2.45699, 2.44633 -2.80713, 2.05009 -3.07076, 1.613  C-3.38624, 1.09365 -3.575, 0.520513 -3.596, 0.0438417  C-3.61415, -0.329873 -3.53158, -0.643153 -3.36503, -0.843673 " /></g>

</svg>
