<svg xmlns="http://www.w3.org/2000/svg" viewBox="-5.266136 -7.366986000000001 7.032272000000001 14.733972000000001">
<rect width="100%" height="100%" fill="white"/>
<g   fill="none"
   stroke="rgb(0, 0, 0)"
   stroke-linecap="butt"
   stroke-linejoin="miter"
   stroke-width="0.35"
   transform="scale(1, -1)"
  >
<path id= "1" d=" M 0.75 -4 L 0.18486 -4 " />
<path id= "2" d=" M -4.25 -5.5 L -3.75876 -6.35085 " />
</g>
<g   fill="none"
   stroke="rgb(0, 0, 0)"
   stroke-linecap="butt"
   stroke-linejoin="miter"
   stroke-width="0.35"
   transform="scale(1, -1)"
  >
<path id= "1" d=" M 0.4 6.35085 L -3.75876 6.35085 " />
<path id= "2" d=" M 0.4 6.35085 L 0.4 5.61406 " />
<path id= "3" d=" M 0.4 5.61406 L -1.05939e-12 5.45085 " />
<path id= "4" d=" M -1.11022e-16 3.17543 L -1.11022e-16 5.45085 " />
<path id= "5" d=" M 0 -6.35085 L 0 -4.07543 " />
<path id= "6" d=" M 0 -1.37543 L 0 3.17543 " />
<path id= "7" d=" M -3.75876 6.35085 L -4.25 5.5 " />
<path id= "8" d=" M 0 3.17543 L -3.75876 3.17543 " />
<path d="M-4.25, 4.76314 C-4.24846, 4.25951 -4.09273, 3.75619 -3.75876, 3.17543 " /><path d="M-3.75876, 6.35085 C-4.09273, 5.77009 -4.24846, 5.26677 -4.25, 4.76314 " /><path id= "11" d=" M 0.4 -1.70184 L 0.4 -3.17543 " />
<path id= "12" d=" M 0.4 -3.17543 L -3.75876 -3.17543 " />
<path d="M-4.25, -2.49134e-13 C-4.24846, -1.00725 -4.09273, -2.0139 -3.75876, -3.17543 " /><path d="M-3.75876, 3.17543 C-4.09273, 2.0139 -4.24846, 1.00725 -4.25, -2.48912e-13 " /><path id= "15" d=" M 2.16727e-13 -1.37543 L 0.4 -1.70184 " />
<path id= "16" d=" M 0.4 -3.91222 L -1.05939e-12 -4.07543 " />
<path id= "17" d=" M 0 -6.35085 L -3.75876 -6.35085 " />
<path d="M-4.25, -4.76314 C-4.24846, -5.26677 -4.09273, -5.77009 -3.75876, -6.35085 " /><path d="M-3.75876, -3.17543 C-4.09273, -3.75619 -4.24846, -4.25951 -4.25, -4.76314 " /><path id= "20" d=" M 0.4 -3.17543 L 0.4 -3.91222 " />
<path id= "21" d=" M 0.75 4 L 0 4 " />
<path d="M0.75, -4 L0.75, -3.89971  L0.75, -3.60388  L0.75, -3.12733  L0.75, -2.49396  L0.75, -1.73553  L0.75, -0.890084  L0.75, -7.77156e-16  L0.75, 0.890084  L0.75, 1.73553  L0.75, 2.49396  L0.75, 3.12733  L0.75, 3.60388  L0.75, 3.89971  L0.75, 4 " /><path d="M-4.25, -5.5 C-4.25, -5.49872 -4.25, -5.49744 -4.25, -5.49615  C-4.25, -5.4899 -4.25, -5.47965 -4.25, -5.46542  C-4.25, -5.44894 -4.25, -5.42851 -4.25, -5.40412  C-4.25, -5.37751 -4.25, -5.347 -4.25, -5.31259  C-4.25, -5.1874 -4.25, -5.0023 -4.25, -4.76314 " /><path d="M-4.25, -4.76314 Q-4.25, -4.65373 -4.25, -4.54431  Q-4.25, -4.42219 -4.25, -4.30007  Q-4.25, -4.16593 -4.25, -4.03179  Q-4.25, -3.88637 -4.25, -3.74095  Q-4.25, -3.58507 -4.25, -3.42919  Q-4.25, -3.26373 -4.25, -3.09826  Q-4.25, -2.92413 -4.25, -2.75  Q-4.25, -2.56818 -4.25, -2.38636  Q-4.25, -2.19787 -4.25, -2.00938  Q-4.25, -1.81526 -4.25, -1.62115  Q-4.25, -1.22578 -4.25, -0.819732  Q-4.25, -0.41166 -4.25, -2.50133e-13 " /><path d="M-4.25, -2.50133e-13 Q-4.25, 0.41166 -4.25, 0.819732  Q-4.25, 1.22578 -4.25, 1.62115  Q-4.25, 1.81526 -4.25, 2.00938  Q-4.25, 2.19787 -4.25, 2.38636  Q-4.25, 2.56818 -4.25, 2.75  Q-4.25, 2.92413 -4.25, 3.09826  Q-4.25, 3.26373 -4.25, 3.42919  Q-4.25, 3.58507 -4.25, 3.74095  Q-4.25, 3.88637 -4.25, 4.03179  Q-4.25, 4.16593 -4.25, 4.30007  Q-4.25, 4.42219 -4.25, 4.54431  Q-4.25, 4.65373 -4.25, 4.76314 " /><path d="M-4.25, 4.76314 C-4.25, 5.0023 -4.25, 5.1874 -4.25, 5.31259  C-4.25, 5.3291 -4.25, 5.3456 -4.25, 5.3621  C-4.25, 5.39152 -4.25, 5.41701 -4.25, 5.43857  C-4.25, 5.4579 -4.25, 5.47325 -4.25, 5.48462  C-4.25, 5.49375 -4.25, 5.49887 -4.25, 5.5 " /></g>

</svg>
