<svg xmlns="http://www.w3.org/2000/svg" viewBox="-7.366986000000001 -6.516136 14.733972000000001 13.032272">
<rect width="100%" height="100%" fill="white"/>
<g   fill="none"
   stroke="rgb(0, 0, 0)"
   stroke-linecap="butt"
   stroke-linejoin="miter"
   stroke-width="0.35"
   transform="scale(1, -1)"
  >
<path d="M4.76314, 2.75 C5.26677, 1.87769 5.77009, 1.00591 6.35085, 7.52731e-14 " /><path d="M3.17543, 5.5 C3.75619, 4.49408 4.25951, 3.62231 4.76314, 2.75 " /><path d="M2.5435e-08, 5.5 C1.00725, 5.5 2.0139, 5.5 3.17543, 5.5 " /><path d="M-3.17543, 5.5 C-2.0139, 5.5 -1.00725, 5.5 2.5435e-08, 5.5 " /><path d="M4.76314 2.75 A5.5 5.5 0 0 1 2.5435e-08 5.5" /><path d="M5.5 0 A5.5 5.5 0 0 1 4.76314 2.75" /><path d="M4.76314, -2.75 C4.25951, -3.62231 3.75619, -4.49409 3.17543, -5.5 " /><path d="M6.35085, -7.57172e-14 C5.77009, -1.00592 5.26677, -1.87769 4.76314, -2.75 " /><path d="M-2.49134e-13, -5.5 C-1.00725, -5.5 -2.0139, -5.5 -3.17543, -5.5 " /><path d="M3.17543, -5.5 C2.0139, -5.5 1.00725, -5.5 -2.48912e-13, -5.5 " /><path d="M-4.76314, -2.75 C-5.26677, -1.87769 -5.77009, -1.00591 -6.35085, -1.90958e-14 " /><path d="M-3.17543, -5.5 C-3.75619, -4.49408 -4.25951, -3.62231 -4.76314, -2.75 " /><path d="M-4.76314, 2.75 C-4.25951, 3.62231 -3.75619, 4.49409 -3.17543, 5.5 " /><path d="M-6.35085, 1.32339e-13 C-5.77009, 1.00592 -5.26677, 1.87769 -4.76314, 2.75 " /><path d="M2.5435e-08 5.5 A5.5 5.5 0 0 1 -4.76314 2.75" /><path d="M-4.76314 2.75 A5.5 5.5 0 0 1 -4.76314 -2.75" /><path d="M-4.76314 -2.75 A5.5 5.5 0 0 1 -2.50144e-13 -5.5" /><path d="M-2.50144e-13 -5.5 A5.5 5.5 0 0 1 4.76314 -2.75" /><path d="M4.76314 -2.75 A5.5 5.5 0 0 1 5.5 -1.34711e-15" /><circle cx ="0" cy ="0" r ="4" /><circle cx ="0" cy ="0" r ="3.15" /><path d="M-2.42623, -0.398481 C-2.34693, -0.887064 -2.11524, -1.34934 -1.77128, -1.70527  C-1.4235, -2.06794 -0.961715, -2.31902 -0.468244, -2.41374  C-0.00578276, -2.50423 0.482345, -2.45735 0.919124, -2.28048  C1.36169, -2.10298 1.74977, -1.79305 2.02075, -1.40069  C2.30467, -0.992758 2.45968, -0.497004 2.45873, 1.10064e-07 " /><path d="M-0.398649, 2.4262 L-0.486128, 2.96036 " /><path d="M-0.398649 2.4262 A2.45873 2.45873 0 0 1 -2.42623 -0.398481" /><path d="M2.86932, -1.77636e-15 C2.83769, -0.714158 2.52449, -1.40914 2.01023, -1.89848  C1.52145, -2.37032 0.85381, -2.64772 0.179705, -2.65605  C-0.465142, -2.66848 -1.1087, -2.43388 -1.58714, -2.00948  C-2.05612, -1.59917 -2.36252, -1.01247 -2.42623, -0.398481 " /><path d="M2.86932, 1.33227e-15 C2.89161, 0.455353 2.80296, 0.91644 2.61388, 1.33342  C2.42023, 1.7626 2.12084, 2.14432 1.74958, 2.43701 " /><path d="M-0.486128, 2.96036 C-0.488708, 2.974 -0.372799, 3.00338 -0.23927, 3.01867  C-0.0805516, 3.03757 0.109237, 3.04048 0.300201, 3.02122 " /><path d="M0.300201, 3.02122 C0.8144, 2.97342 1.34857, 2.75794 1.74958, 2.43701 " /><path d="M2.45873, 5.48038e-07 C2.46054, 0.585842 2.24304, 1.16886 1.85796, 1.61039  C1.55768, 1.9579 1.15778, 2.21794 0.718347, 2.35146  C0.358341, 2.46177 -0.0271537, 2.48756 -0.398649, 2.4262 " /><path d="M2.45872, 0.00968167 C2.45888, 0.662069 2.18451, 1.30857 1.71515, 1.76171 " /><path d="M1.47106, 1.97012 C1.10668, 2.24303 0.665087, 2.41114 0.211448, 2.44963 " /><path d="M0.111473, 2.45621 L0.0111845, 2.45871 " /><path d="M-0.158411, 2.45363 L-0.206405, 2.45006 " /><path d="M-0.390995, 2.42745 C-0.96586, 2.33663 -1.50365, 2.03269 -1.87797, 1.58702  C-2.2666, 1.13019 -2.47728, 0.527156 -2.45767, -0.0722994  C-2.4419, -0.678184 -2.19096, -1.27378 -1.76839, -1.70827  C-1.64714, -1.8337 -1.51409, -1.94501 -1.36922, -2.04221 " /><path d="M-0.958511, -2.26421 C-0.369918, -2.51614 0.317578, -2.52329 0.911299, -2.28362  C1.35718, -2.10657 1.74834, -1.79525 2.02091, -1.40046  C2.30473, -0.992569 2.45968, -0.496909 2.45873, 4.44089e-16 " /><path d="M2.45873, 4.38429e-07 C2.46166, 0.664111 2.17958, 1.32298 1.69698, 1.77922 " /><path d="M1.45804, 1.97977 Q1.33385, 2.07122 1.19921, 2.14645 " /><path d="M1.12616, 2.18567 Q0.927319, 2.28807 0.713293, 2.353 " /><path d="M0.650913, 2.37101 Q0.434607, 2.43035 0.211144, 2.44965 " /><path d="M0.111473, 2.45621 L0.0111844, 2.45871 " /><path d="M-0.158412, 2.45363 L-0.206405, 2.45006 " /><path d="M-0.390995, 2.42745 C-0.972856, 2.33559 -1.5166, 2.02519 -1.89153, 1.57083  C-2.2717, 1.11599 -2.47705, 0.519885 -2.45766, -0.0725967  C-2.44184, -0.677579 -2.19156, -1.27229 -1.77005, -1.70655  C-1.42533, -2.06547 -0.968918, -2.31493 -0.480688, -2.41129  C-0.0145757, -2.50502 0.478373, -2.45896 0.919053, -2.28051  C1.36061, -2.10342 1.74795, -1.79453 2.01884, -1.40344  C2.30396, -0.99498 2.45969, -0.498122 2.45873, 8.88178e-16 " /></g>

</svg>
