<svg xmlns="http://www.w3.org/2000/svg" viewBox="-5.8178111999999995 -6.3135512 22.839982399999997 17.9624224">
<rect width="100%" height="100%" fill="white"/>
<g   fill="none"
   stroke="rgb(0, 0, 0)"
   stroke-linecap="butt"
   stroke-linejoin="miter"
   stroke-width="0.35"
   transform="scale(1, -1)"
  >
<path id= "1" d=" M -4.24264 -0.816497 L -4.24264 -1.63299 " />
<path id= "2" d=" M -1.41421 4.08248 L -0.707107 4.49073 " />
<path id= "3" d=" M -3.20711 -3.92188 L -2.5 -4.33013 " />
<path id= "4" d=" M 1.79289 4.73838 L 2.5 4.33013 " />
<path id= "5" d=" M 0.5 -3.75278 L 11.2279 -9.94655 " />
<path id= "6" d=" M 3.5 1.44338 L 14.2279 -4.75039 " />
<path id= "7" d=" M 15.3611 -6.9236 L 14.7096 -5.33031 " />
<path id= "8" d=" M 13.6765 -9.84127 L 11.971 -10.0737 " />
</g>
<g   fill="none"
   stroke="rgb(0, 0, 0)"
   stroke-linecap="butt"
   stroke-linejoin="miter"
   stroke-width="0.35"
   transform="scale(1, -1)"
  >
<path d="M1.41421 2.44949 A4 2.3094 60 0 1 -1.41421 4.08248" />
<path d="M-1.41421 4.08248 A4 2.3094 60 0 1 -4.24264 -0.816497" />
<path d="M-4.24264 -0.816497 A4 2.3094 60 0 1 1.41421 2.44949" />
<path d="M2.82843 2.44949 A5 2.88675 60 0 1 1.79289 4.73838" />
<path d="M1.79289 4.73838 A5 2.88675 60 0 1 -0.707107 4.49073" />
<path d="M-4.24264 -1.63299 A5 2.88675 60 0 1 -3.20711 -3.92188" />
<path d="M-3.20711 -3.92188 A5 2.88675 60 0 1 2.82843 2.44949" />
<path d="M3.53553 2.04124 A5 2.88675 60 0 1 2.5 4.33013" />
<path d="M-2.5 -4.33013 A5 2.88675 60 0 1 3.53553 2.04124" />
<path d="M14.8492 -6.12372 A3 1.73205 60 0 1 14.7096 -5.33031" />
<path d="M14.7096 -5.33031 A3 1.73205 60 0 1 14.2279 -4.75039" />
<path d="M11.2279 -9.94655 A3 1.73205 60 0 1 11.971 -10.0737" />
<path d="M11.971 -10.0737 A3 1.73205 60 0 1 14.8492 -6.12372" />
<path d="M11.2006, -8.91614 C11.3054, -8.85534 11.4417, -8.80618 11.5755, -8.77655  C11.7029, -8.74871 11.825, -8.73555 11.9419, -8.73706  C12.1526, -8.74063 12.3297, -8.784 12.4734, -8.86715 " /><path d="M12.4734, -8.86715 C12.6143, -8.94854 12.7189, -9.06703 12.7615, -9.20943  C12.7868, -9.29019 12.7864, -9.37407 12.7604, -9.46109  C12.7317, -9.55129 12.6637, -9.6397 12.5582, -9.69998 " /><path d="M12.5582, -9.69998 C12.4533, -9.76118 12.3169, -9.79055 12.183, -9.79403  C12.055, -9.79591 11.9323, -9.78309 11.8149, -9.75557  C11.6134, -9.71021 11.4379, -9.63853 11.2986, -9.56052  C11.151, -9.47672 11.0416, -9.38449 10.9974, -9.28367  C10.9721, -9.22883 10.9723, -9.17095 10.9981, -9.11005  C11.0271, -9.04367 11.0945, -8.97903 11.2006, -8.91614 " /><path d="M15.447 -7.41163 A1.8453 1.06538 60 0 1 15.3611 -6.9236" />
<path d="M13.6765 -9.84127 A1.8453 1.06538 60 0 1 15.447 -7.41163" />
<path d="M12.4451 -9.50402 A0.8 0.46188 -180 0 1 12.6794 -9.17742" />
<path d="M12.6794 -9.17742 A0.8 0.46188 -180 0 1 12.4589 -8.859" />
<path d="M11.2626 -8.88325 A0.8 0.46188 -180 0 1 11.0794 -9.17742" />
<path d="M11.0794 -9.17742 A0.8 0.46188 -180 0 1 12.4451 -9.50402" />
</g>

</svg>
