<svg xmlns="http://www.w3.org/2000/svg" viewBox="-3.76 -6.76 25.52 13.52">
<rect width="100%" height="100%" fill="white"/>
<g   fill="none"
   stroke="rgb(0, 0, 0)"
   stroke-linecap="butt"
   stroke-linejoin="miter"
   stroke-width="0.35"
   transform="scale(1, -1)"
  >
<path id= "1" d=" M -2 -4 L -1 -5 " />
<path id= "2" d=" M -1 -5 L 0 -5 " />
<path d="M0.6, -3 C0.497404, -3.00041 0.401053, -3.02515 0.310948, -3.07422  C0.121879, -3.17581 -0.00205735, -3.38537 0, -3.6 " /><path id= "4" d=" M 0.6 -3 L 18 -3 " />
<path id= "5" d=" M 20 -1.8453 L 18 -3 " />
</g>
<g   fill="none"
   stroke="rgb(0, 0, 0)"
   stroke-linecap="butt"
   stroke-linejoin="miter"
   stroke-width="0.35"
   transform="scale(1, -1)"
  >
<path d="M-2, -4 L-2, -3.89971  L-2, -3.60388  L-2, -3.12733  L-2, -2.49396  L-2, -1.73553  L-2, -0.890084  L-2, -7.77156e-16  L-2, 0.890084  L-2, 1.73553  L-2, 2.49396  L-2, 3.12733  L-2, 3.60388  L-2, 3.89971  L-2, 4 " /><path id= "2" d=" M -2 4 L -1 5 " />
<path d="M-1, -5 L-1, -4.87464  L-1, -4.50484  L-1, -3.90916  L-1, -3.11745  L-1, -2.16942  L-1, -1.1126  L-1, -8.88178e-16  L-1, 1.1126  L-1, 2.16942  L-1, 3.11745  L-1, 3.90916  L-1, 4.50484  L-1, 4.87464  L-1, 5 " /><path id= "4" d=" M -1 5 L 0 5 " />
<path d="M0, -5 L0, -4.87464  L0, -4.50484  L0, -3.90916  L0, -3.11745  L0, -2.16942  L0, -1.1126  L0, -8.88178e-16  L0, 1.1126  L0, 2.16942  L0, 3.11745  L0, 3.90916  L0, 4.50484  L0, 4.87464  L0, 5 " /><path d="M0 3.6 A0.6 0.6 0 0 1 0.6 3" /><path id= "7" d=" M 0.6 3 L 18 3 " />
<path d="M18, -3 L18, -2.92478  L18, -2.70291  L18, -2.34549  L18, -1.87047  L18, -1.30165  L18, -0.667563  L18, -5.55112e-16  L18, 0.667563  L18, 1.30165  L18, 1.87047  L18, 2.34549  L18, 2.70291  L18, 2.92478  L18, 3 " /><path d="M16.7497, 0.838835 L16.723, 0.837265 " /><path d="M16.0585, 0.531802 L16.0392, 0.510522 " /><path d="M16.0294, 0.499266 Q16.0024, 0.467512 15.9782, 0.432481 " /><path d="M15.9593, 0.403843 L15.9544, 0.396088 " /><path d="M15.8863, 0.25648 L15.8842, 0.250626 " /><path d="M15.8615, 0.175724 Q15.8404, 0.0909286 15.84, 0.00220252 " /><path d="M15.8597, -0.168323 L15.8669, -0.196545 " /><path d="M15.8807, -0.240767 L15.8807, -0.240771 " /><path d="M15.8817, -0.243722 L15.89, -0.266308 " /><path d="M15.9652, -0.413175 L15.9895, -0.448472 " /><path d="M16.0182, -0.485805 L16.02, -0.48791 " /><path d="M16.026, -0.495202 L16.0278, -0.497275 " /><path d="M16.0553, -0.528364 L16.0669, -0.540583 " /><path d="M16.2167, -0.665785 L16.2705, -0.699482 " /><path d="M16.2805, -0.705268 Q16.3227, -0.72909 16.3662, -0.748505 " /><path d="M16.4798, -0.791417 Q16.5943, -0.826948 16.7119, -0.836418 " /><path d="M17.5153, -0.558539 L17.5171, -0.556793 " /><path d="M17.5593, -0.512299 L17.5597, -0.511786 " /><path d="M17.5624, -0.508773 L17.6008, -0.461512 " /><path d="M17.607, -0.453198 L17.6081, -0.451725 " /><path d="M17.6372, -0.409456 L17.6458, -0.395626 " /><path d="M17.76, 1.38778e-16 Q17.76, 0.0645012 17.7488, 0.127482 " /><path d="M17.7182, 0.244091 L17.7182, 0.244094 " /><path d="M17.6333, 0.415333 L17.6304, 0.419839 " /><path d="M17.5547, 0.51748 L17.5546, 0.517482 " /><path d="M17.5535, 0.518712 L17.5517, 0.520733 " /><path d="M17.4852, 0.586695 L17.4693, 0.600612 " /><path d="M17.1639, 0.776691 L17.1627, 0.777114 " /><path d="M16.8029, 0.839996 L16.8, 0.84 " /><path d="M15.84, -1.85185e-13 C15.8394, 0.148814 15.8877, 0.293272 15.962, 0.408164  C16.0339, 0.516483 16.12, 0.603155 16.2202, 0.668181  C16.389, 0.779999 16.58, 0.834046 16.7701, 0.839589  C16.9796, 0.844923 17.1923, 0.791798 17.3785, 0.669015  C17.4794, 0.603807 17.566, 0.516715 17.6383, 0.40774  C17.7124, 0.292898 17.7606, 0.148621 17.76, 1.11022e-16 " /><path d="M17.76, 1.11022e-16 C17.7606, -0.148936 17.7122, -0.293484 17.6378, -0.408442  C17.5655, -0.517229 17.479, -0.604172 17.3781, -0.669273  C17.2063, -0.782546 17.0118, -0.836224 16.8185, -0.839843  C16.6128, -0.842926 16.4048, -0.789706 16.2221, -0.669432  C16.1212, -0.604342 16.0346, -0.517394 15.9623, -0.408588  C15.8878, -0.293599 15.8394, -0.148994 15.84, -1.85157e-13 " /><path id= "40" d=" M 18 3 L 20 1.8453 " />
<path d="M20, -1.8453 L20, -1.79903  L20, -1.66256  L20, -1.44271  L20, -1.15053  L20, -0.800645  L20, -0.410618  L20, -3.33067e-16  L20, 0.410618  L20, 0.800645  L20, 1.15053  L20, 1.44271  L20, 1.66256  L20, 1.79903  L20, 1.8453 " /><circle cx ="16.8" cy ="0" r ="0.8" /></g>

</svg>
