<svg xmlns="http://www.w3.org/2000/svg" viewBox="-6.96 -6.96 13.92 13.92">
<rect width="100%" height="100%" fill="white"/>
<g   fill="none"
   stroke="rgb(0, 0, 0)"
   stroke-linecap="butt"
   stroke-linejoin="miter"
   stroke-width="0.35"
   transform="scale(1, -1)"
  >
<path id= "1" d=" M -3.94937 0.83 L 3.94937 0.83 " />
<path d="M5.79064 0 A5.79064 5.79064 0 0 0 5.73084 -0.83" /><path d="M3.94937, -0.83 C4.42144, -0.83 4.89125, -0.83 5.2289, -0.83  C5.47725, -0.83 5.65412, -0.83 5.73084, -0.83 " /><path d="M-3.94937, -0.83 C-4.42144, -0.83 -4.89125, -0.83 -5.2289, -0.83  C-5.47725, -0.83 -5.65412, -0.83 -5.73084, -0.83 " /><path d="M-5.73084 -0.83 A5.79064 5.79064 0 0 0 -5.73084 0.83" /><path d="M-3.94937, 0.83 C-4.42144, 0.83 -4.89125, 0.83 -5.2289, 0.83  C-5.47725, 0.83 -5.65412, 0.83 -5.73084, 0.83 " /><path d="M3.94937, 0.83 C4.42144, 0.83 4.89125, 0.83 5.2289, 0.83  C5.47725, 0.83 5.65412, 0.83 5.73084, 0.83 " /><path d="M5.73084 0.83 A5.79064 5.79064 0 0 0 5.79064 1.4183e-15" /><circle cx ="0" cy ="0" r ="6" /><path id= "10" d=" M -3.94937 -0.83 L 3.94937 -0.83 " />
</g>

</svg>
