<svg xmlns="http://www.w3.org/2000/svg" viewBox="-10.1275376 -9.1980776 14.9517752 15.3342952">
<rect width="100%" height="100%" fill="white"/>
<g   fill="none"
   stroke="rgb(0, 0, 0)"
   stroke-linecap="butt"
   stroke-linejoin="miter"
   stroke-width="0.35"
   transform="scale(1, -1)"
  >
<path d="M-3.29601, 3.75068 Q-3.29521, 3.83297 -3.29953, 3.91253 " /><path id= "2" d=" M -3.11924 3.64862 L -3.29601 3.75068 " />
<path d="M-2.5285, 3.48336 L-3.11924, 3.64862 " /><path d="M-1.82021, 3.73026 L-1.93572, 3.76282 " /><path id= "5" d=" M -1.82021 3.73026 L -0.743256 3.10848 " />
<path id= "6" d=" M -2.4473 3.26068 L -2.5889 3.34243 " />
<path d="M-2.5889, 3.34243 Q-2.51086, 3.38612 -2.44011, 3.43233 " /><path d="M-2.44011, 3.43233 L-2.43822, 3.43521 " /><path d="M-2.43822, 3.43521 C-2.43557, 3.44519 -2.48513, 3.47162 -2.5285, 3.48336 " /><path d="M-3.29601, 3.75068 Q-3.21796, 3.79437 -3.14722, 3.84058 " /><path d="M-3.14722, 3.84058 L-3.14532, 3.84346 " /><path d="M-3.14532, 3.84346 Q-3.14668, 3.85511 -3.18924, 3.87478 " /><path id= "13" d=" M -1.93572 3.76282 L -3.18924 3.87478 " />
<path d="M-3.29953, 3.91253 Q-3.30385, 3.99209 -3.31328, 4.06848 " /><path d="M-0.905037, 5.23657 C-1.26778, 4.72008 -1.56715, 4.22735 -1.82021, 3.73026 " /><path d="M-1.93572 3.76282 A5 2.88675 60 0 1 -1.76777 5.1031" />
<path d="M-3.15645, 4.30134 Q-3.15665, 4.09319 -3.18924, 3.87478 " /><path d="M-3.15645, 4.30134 Q-3.15665, 4.50927 -3.18925, 4.69004 " /><path id= "19" d=" M -1.93572 6.24946 L -3.18925 4.69004 " />
<path d="M-1.76777 5.1031 A5 2.88675 60 0 1 -1.93572 6.24946" />
<path d="M-2.5889, 3.34243 Q-2.58812, 3.42315 -2.59226, 3.50125 " /><path d="M-2.41215, 3.23925 L-2.4473, 3.26068 " /><path d="M-1.49456 1.17211 A1.0625 0.837967 -95.1039 0 1 -1.21343 1.08201" />
<path d="M-1.21343 1.08201 A1.0625 0.837967 -95.1039 0 1 -0.743256 3.10848" />
<path d="M-2.12157, 1.53412 C-1.96505, 1.69493 -1.86595, 1.92866 -1.85817, 2.16252  C-1.85366, 2.29915 -1.87124, 2.42976 -1.91089, 2.55435 " /><path d="M-1.91089, 2.55435 C-1.85236, 2.70701 -1.79786, 2.81396 -1.74565, 2.90079 " /><path d="M-1.74565, 2.90079 L-1.74341, 2.90771 " /><path d="M-1.74341, 2.90771 C-1.73845, 2.93382 -1.78502, 2.98857 -1.82774, 3.00817 " /><path d="M-1.82774, 3.00817 Q-2.1089, 3.1477 -2.41215, 3.23925 " /><path d="M1.72546, -2.72166 C2.31347, -1.8834 2.73713, -1.1073 3.06186, -0.273475 " /><path id= "31" d=" M 1.72546 -2.72166 L -2.94628 -0.0244258 " />
<path d="M-2.57151, 1.79389 C-2.72622, 1.24001 -2.84881, 0.645224 -2.94628, -0.0244258 " /><path id= "33" d=" M -1.49456 1.17211 L -2.57151 1.79389 " />
<path id= "34" d=" M 3.7667 2.53934 L -0.905037 5.23657 " />
<path d="M3.06186, -0.273475 C3.38461, 0.561499 3.60805, 1.45319 3.7667, 2.53934 " /><path d="M-3.31328, 4.06848 Q-3.2469, 4.36071 -3.18359, 4.64971 " /><path d="M-1.93572, 6.24946 L-1.82021, 6.31014 " /><path d="M-3.18359, 4.64971 L-3.18296, 4.65296 " /><path id= "39" d=" M -0.743256 5.68836 L -1.82021 6.31014 " />
<path d="M-1.82021, 6.31014 C-1.56715, 5.99169 -1.26778, 5.64051 -0.905037, 5.23657 " /><path d="M-1.91089, 2.55435 Q-1.87608, 2.80333 -1.88277, 3.03506 " /><path d="M-3.0378, 3.62592 C-3.51647, 3.35122 -3.98007, 2.87269 -4.30797, 2.32781  C-4.62294, 1.80941 -4.81168, 1.23737 -4.8333, 0.761165  C-4.84658, 0.490068 -4.80763, 0.249917 -4.72119, 0.0623269 " /><path d="M-3.23551, 3.71575 C-3.72801, 3.42723 -4.20202, 2.92368 -4.52747, 2.35763  C-4.82642, 1.84288 -4.99985, 1.2831 -5.01173, 0.820242  C-5.01972, 0.547008 -4.97334, 0.30741 -4.8782, 0.123879 " /><path d="M-2.68702, 1.82645 L-2.57151, 1.79389 " /><path id= "45" d=" M -2.68702 1.82645 L -3.94128 1.93848 " />
<path d="M-3.94128, 1.93848 L-3.99508, 1.93261 " /><path d="M-3.23856e-08, -4.08248 C0.646494, -3.70808 1.19348, -3.27669 1.72546, -2.72166 " /><path d="M3.7667, 2.53934 C3.60805, 2.94651 3.38461, 3.34901 3.06186, 3.80901 " /><path d="M-0.743256 5.68836 A1.0625 0.224533 -38.794 0 1 -0.29079 5.5571" />
<path d="M-0.29079 5.5571 A1.0625 0.224533 -38.794 0 1 -1.49456 6.7572" />
<path id= "51" d=" M -2.57151 7.37897 L -1.49456 6.7572 " />
<path d="M-2.94628, 8.14054 Q-2.80182, 7.76792 -2.57151, 7.37897 " /><path id= "53" d=" M 1.72546 5.44331 L -2.94628 8.14054 " />
<path d="M3.06186, 3.80901 C2.73713, 4.27016 2.31347, 4.78825 1.72546, 5.44331 " /><path d="M-4.552 -0.493617 A5 2.88675 60 0 1 -2.68702 1.82645" />
<path d="M-4.50642, -0.613172 L-4.552, -0.493617 " /><path d="M-2.94628, -0.0244258 C-3.53913, -0.213553 -4.04947, -0.406138 -4.50642, -0.613172 " /><path d="M-2.35702, -5.07868 C-1.39568, -4.77154 -0.64848, -4.45574 -3.23856e-08, -4.08248 " /><path id= "59" d=" M -2.35702 -5.07868 L -7.02876 -2.38145 " />
<path d="M-6.00902, -1.4807 C-6.36762, -1.74452 -6.70118, -2.03916 -7.02876, -2.38145 " /><path id= "61" d=" M -4.93207 -2.10248 L -6.00902 -1.4807 " />
<path d="M-3.42947 -1.23495 A1.0625 0.613435 -1.8257e-14 0 0 -3.11827 -1.66871" />
<path d="M-3.11827 -1.66871 A1.0625 0.613435 -1.8257e-14 0 0 -4.93207 -2.10248" />
<path id= "64" d=" M -4.50642 -0.613172 L -3.42947 -1.23495 " />
<path d="M-2.33524, 3.21504 C-2.81553, 2.93815 -3.28015, 2.45624 -3.60744, 1.90866 " /><path d="M-2.5284, 3.3075 C-3.02694, 3.01553 -3.50639, 2.50304 -3.83223, 1.92874 " /><path d="M-5.33141, 1.99847 Q-5.27244, 2.09012 -5.2484, 2.19319 " /><path d="M-4.85162, 0.125486 Q-4.89392, 0.0662125 -4.93207, 0.00852374 " /><path d="M-4.63855, 0.0267985 Q-4.75352, 0.0742016 -4.85162, 0.125486 " /><path d="M-4.552, -0.150495 Q-4.59692, -0.0630158 -4.63855, 0.0267985 " /><path d="M-4.51967, 1.30945 L-4.552, 1.17873 " /><path id= "72" d=" M -4.552 1.17873 L -4.552 -0.493617 " />
<path d="M-3.99508, 1.93261 Q-4.23825, 1.58625 -4.51967, 1.30945 " /><path d="M-4.552 1.17873 A3.03 1.74937 60 0 1 -3.94128 1.93848" />
<path d="M-4.50642, 7.55179 C-4.04947, 7.75883 -3.53913, 7.95141 -2.94628, 8.14054 " /><path d="M-4.552 5.92148 A1.0625 0.613435 -1.8257e-14 0 0 -4.93207 6.06249" />
<path id= "77" d=" M -6.00902 6.68427 L -4.93207 6.06249 " />
<path d="M-7.02876, 5.78352 C-6.70118, 6.1258 -6.36762, 6.42045 -6.00902, 6.68427 " /><path d="M-2.68702 7.3183 A5 2.88675 60 0 1 -4.552 7.48487" />
<path d="M-2.57151, 7.37897 L-2.68702, 7.3183 " /><path d="M-4.552, 7.48487 L-4.50642, 7.55179 " /><path d="M-3.12651, 4.76809 L-3.28129, 4.68508 " /><path id= "83" d=" M -3.28129 4.68508 L -3.45805 4.78713 " />
<path d="M-3.45805, 4.78713 Q-3.38001, 5.07329 -3.30927, 5.35734 " /><path d="M-3.30927, 5.35734 Q-3.30076, 5.39922 -3.3361, 5.41516 " /><path d="M-3.3361, 5.41516 Q-3.36439, 5.42525 -3.39766, 5.40837 " /><path d="M-3.39766, 5.40837 Q-3.69181, 5.25265 -3.98839, 5.09333 " /><path id= "88" d=" M -3.98839 5.09333 L -4.16516 5.19538 " />
<path d="M-4.16516, 5.19538 L-4.0971, 5.44977 " /><path d="M-4.0971, 5.44977 Q-4.02339, 5.59482 -3.94128, 5.75797 " /><path id= "91" d=" M -2.68702 7.3183 L -3.94128 5.75797 " />
<path id= "92" d=" M -5.38559 0.431416 L -5.56235 0.53347 " />
<path d="M-5.17417, -0.170948 Q-5.2818, 0.129028 -5.38559, 0.431416 " /><path d="M-5.08578, -0.221982 Q-5.09237, -0.231683 -5.1032, -0.233776 " /><path d="M-5.1032, -0.233776 C-5.12678, -0.239277 -5.16135, -0.208707 -5.17417, -0.170948 " /><path d="M-4.93207, 0.00852374 L-5.08578, -0.221982 " /><path d="M-6.0546, -1.36114 L-6.00902, -1.4807 " /><path id= "98" d=" M -6.0546 0.311205 L -6.0546 -1.36114 " />
<path d="M-6.0546, 0.311205 Q-6.02254, 0.440245 -5.99433, 0.556072 " /><path d="M-5.88128, 0.237299 L-5.99433, 0.556072 " /><path d="M-5.79289, 0.186265 Q-5.79948, 0.176564 -5.81031, 0.174471 " /><path d="M-5.81031, 0.174471 C-5.83389, 0.16897 -5.86845, 0.19954 -5.88128, 0.237299 " /><path d="M-5.56235, 0.53347 Q-5.67746, 0.35794 -5.79289, 0.186265 " /><path d="M-7.91958 -1.19457 A5 2.88675 60 0 1 -6.0546 -1.36114" />
<path d="M-7.94393, -1.30788 L-7.91958, -1.19457 " /><path d="M-7.02876, -2.38145 C-7.39151, -1.97751 -7.69087, -1.62633 -7.94393, -1.30788 " /><path d="M-8.69523, -0.239042 Q-8.92555, 0.1499 -9.07, 0.522523 " /><path id= "108" d=" M -7.64083 -0.847801 L -8.69523 -0.239042 " />
<path d="M-3.28129, 4.68508 Q-3.40024, 4.71356 -3.52943, 4.71567 " /><path d="M-3.18312, 4.69767 L-3.19032, 4.73392 " /><path d="M-5.15631, 2.60393 C-5.03579, 2.78562 -4.9316, 2.90989 -4.83271, 3.01268 " /><path d="M-4.20061, 3.70829 C-4.43037, 3.51135 -4.64606, 3.27336 -4.83271, 3.01268 " /><path d="M-4.20061, 3.70829 C-4.05351, 3.8742 -3.88391, 4.0558 -3.66326, 4.22803  C-3.56766, 4.30213 -3.46001, 4.3688 -3.38014, 4.39719  C-3.31658, 4.41904 -3.26824, 4.42543 -3.2351, 4.41638 " /><path d="M-1.90173, 2.62569 C-2.18594, 2.41436 -2.45576, 2.13738 -2.68408, 1.82562 " /><path d="M-1.88348, 2.8614 C-2.26275, 2.62442 -2.62844, 2.26374 -2.91848, 1.84712 " /><path d="M-5.2484, 2.19319 C-5.21887, 2.32639 -5.20752, 2.43388 -5.18838, 2.51353  C-5.17985, 2.55058 -5.17055, 2.5784 -5.16046, 2.59701 " /><path d="M-5.16046, 2.59701 L-5.15631, 2.60393 " /><path d="M-5.69709, 1.48451 L-5.65141, 1.47839 " /><path d="M-5.65141, 1.47839 Q-5.57633, 1.47163 -5.50367, 1.48762 " /><path d="M-5.69709, 1.48451 Q-5.97805, 1.51969 -6.2468, 1.59144 " /><path d="M-6.68347 1.92624 A1.0625 0.837967 -95.1039 0 1 -6.86698 3.65543" />
<path d="M-5.44512, 3.48259 C-5.48646, 3.49692 -5.53353, 3.52663 -5.53147, 3.53614 " /><path d="M-4.91401, 3.24281 Q-5.16669, 3.38745 -5.44512, 3.48259 " /><path d="M-4.83271, 3.01268 Q-4.85914, 3.13968 -4.91401, 3.24281 " /><path d="M-5.33141, 1.99847 Q-5.38459, 1.91876 -5.42783, 1.86442  Q-5.52723, 1.74267 -5.5431, 1.70318 " /><path d="M-5.5431, 1.70318 L-5.54451, 1.69665 " /><path d="M-5.54451, 1.69665 C-5.55627, 1.57546 -5.53475, 1.52034 -5.50367, 1.48762 " /><path d="M-5.07386, 0.136803 L-5.24684, 0.0332228 " /><path d="M-5.71901, 1.11704 Q-5.97416, 1.01039 -6.21883, 0.880126 " /><path d="M-5.53851, 0.936131 Q-5.6272, 1.03635 -5.71901, 1.11704 " /><path d="M-5.60795, 0.531347 Q-5.57843, 0.737411 -5.53851, 0.936131 " /><path d="M-5.07386, 0.136803 Q-4.96829, 0.116854 -4.85162, 0.125486 " /><path d="M-7.94393, 4.2772 C-7.69087, 4.77429 -7.39151, 5.26703 -7.02876, 5.78352 " /><path id= "134" d=" M -6.86698 3.65543 L -7.94393 4.2772 " />
<path d="M-9.07, 0.522523 C-8.97253, 1.19217 -8.84994, 1.78696 -8.69523, 2.34084 " /><path d="M-6.0546 6.61734 A5 2.88675 60 0 1 -7.91958 4.29727" />
<path d="M-6.00902, 6.68427 L-6.0546, 6.61734 " /><path d="M-7.91958, 4.29727 L-7.94393, 4.2772 " /><path d="M-4.93207, 4.20874 L-5.13261, 3.90621 " /><path id= "140" d=" M -5.13261 3.90621 L -5.30937 4.00827 " />
<path d="M-5.30937, 4.00827 Q-5.41318, 4.31067 -5.52082, 4.61065 " /><path d="M-5.52082, 4.61065 C-5.53627, 4.65736 -5.5837, 4.68917 -5.60474, 4.66695 " /><path d="M-5.60474, 4.66695 L-5.60921, 4.66168 " /><path d="M-5.60921, 4.66168 Q-5.72462, 4.49 -5.83972, 4.31446 " /><path id= "145" d=" M -5.83972 4.31446 L -5.94636 4.37603 " />
<path d="M-5.94636, 4.37603 Q-5.99385, 4.63035 -6.0546, 4.94499 " /><path id= "147" d=" M -6.0546 6.61734 L -6.0546 4.94499 " />
<path d="M-4.20061, 3.70829 Q-4.36622, 3.67901 -4.51764, 3.68337 " /><path d="M-4.51764, 3.68337 Q-4.68094, 3.93192 -4.80371, 4.21167 " /><path d="M-4.80371, 4.21167 C-4.8223, 4.25543 -4.87526, 4.28217 -4.89679, 4.25948 " /><path d="M-4.89679, 4.25948 L-4.90147, 4.25402 " /><path d="M-4.90147, 4.25402 L-4.93207, 4.20874 " /><path id= "153" d=" M -4.552 7.48487 L -4.552 5.81252 " />
<path d="M-4.552, 5.81252 Q-4.50605, 5.57454 -4.46786, 5.37196 " /><path d="M-4.4133, 5.22597 L-4.46786, 5.37196 " /><path id= "156" d=" M -4.23654 5.12392 L -4.4133 5.22597 " />
<path d="M-3.70619, 4.81773 L-3.83942, 5.17324 " /><path id= "158" d=" M -3.52943 4.71567 L -3.70619 4.81773 " />
<path d="M-3.94128 5.75797 A3.03 1.74937 60 0 1 -4.552 5.81252" />
<path d="M-4.46786, 5.37196 Q-4.27581, 5.44107 -4.0971, 5.44977 " /><path d="M-4.16516, 5.19538 Q-4.28412, 5.22387 -4.4133, 5.22597 " /><path d="M-3.98839, 5.09333 Q-4.10735, 5.12181 -4.23654, 5.12392 " /><path d="M-3.45805, 4.78713 Q-3.57701, 4.81562 -3.70619, 4.81773 " /><path d="M-5.77594, 0.544117 Q-5.67426, 0.525606 -5.56235, 0.53347 " /><path d="M-5.77594, 0.544117 L-5.95384, 0.441153 " /><path d="M-5.99433, 0.556072 Q-6.19094, 0.556162 -6.35743, 0.623732 " /><path d="M-6.35743, 0.623732 Q-6.50126, 0.502715 -6.66532, 0.365752 " /><path d="M-6.66532 0.365752 A3.03 1.74937 60 0 1 -6.0546 0.311205" />
<path id= "169" d=" M -6.66532 0.365752 L -7.91958 -1.19457 " />
<path id= "170" d=" M -6.2499 1.45283 L -6.42667 1.55489 " />
<path d="M-6.39871, 0.882646 Q-6.32796, 1.16669 -6.2499, 1.45283 " /><path d="M-6.31033, 0.831612 C-6.35081, 0.808836 -6.39773, 0.824642 -6.40032, 0.861892 " /><path d="M-6.40032, 0.861892 L-6.39871, 0.882646 " /><path d="M-6.21883, 0.880126 L-6.31033, 0.831612 " /><path d="M-8.67088, -0.125733 L-8.69523, -0.239042 " /><path id= "176" d=" M -7.41662 1.43459 L -8.67088 -0.125733 " />
<path d="M-7.41662, 1.43459 Q-7.17224, 1.63861 -6.97138, 1.8084 " /><path d="M-7.10582, 1.29089 Q-7.04152, 1.5488 -6.97138, 1.8084 " /><path d="M-7.01744, 1.23986 C-7.05792, 1.21708 -7.10484, 1.23289 -7.10743, 1.27014 " /><path d="M-7.10743, 1.27014 L-7.10582, 1.29089 " /><path d="M-6.42667, 1.55489 Q-6.72327, 1.39557 -7.01744, 1.23986 " /><path d="M-8.67088 2.36091 A5 2.88675 60 0 1 -8.67088 -0.125733" />
<path d="M-8.69523, 2.34084 L-8.67088, 2.36091 " /><path d="M-4.51764, 3.68337 Q-4.72876, 3.48173 -4.91401, 3.24281 " /><path d="M-1.95976, 1.76432 Q-2.05151, 1.65706 -2.13652, 1.54275 " /><path d="M-5.50367, 1.48762 Q-5.55609, 1.1919 -5.53851, 0.936131 " /><path d="M-5.69709, 1.48451 Q-5.72361, 1.29181 -5.71901, 1.11704 " /><path d="M-5.53147, 3.53614 L-5.53083, 3.53793 " /><path d="M-5.53083, 3.53793 L-5.52957, 3.5391 " /><path id= "190" d=" M -5.38075 3.62898 L -5.55752 3.73104 " />
<path d="M-5.52957, 3.5391 Q-5.45881, 3.5853 -5.38075, 3.62898 " /><path id= "192" d=" M -6.66532 4.18525 L -7.91958 4.29727 " />
<path d="M-6.66532, 4.18525 Q-6.3949, 4.13144 -6.17723, 4.08883 " /><path id= "194" d=" M -6.08786 4.03723 L -6.17723 4.08883 " />
<path d="M-6.23667, 3.94734 Q-6.16592, 3.99355 -6.08786, 4.03723 " /><path d="M-6.14829, 3.89631 C-6.19471, 3.90882 -6.24665, 3.93772 -6.23794, 3.94618 " /><path d="M-6.23794, 3.94618 L-6.23667, 3.94734 " /><path d="M-5.55752, 3.73104 L-6.14829, 3.89631 " /><path d="M-6.94423, 2.15554 Q-7.1558, 2.19699 -7.41662, 2.24888 " /><path id= "200" d=" M -7.41662 2.24888 L -8.67088 2.36091 " />
<path id= "201" d=" M -6.23263 1.75068 L -6.4094 1.85274 " />
<path d="M-6.4094, 1.85274 L-6.96206, 2.00181 " /><path d="M-6.0546 4.94499 A3.03 1.74937 60 0 1 -6.66532 4.18525" />
<path d="M-5.94636 4.37603 A2.45873 1.41955 60 0 1 -6.17723 4.08883" />
<path d="M-5.83972, 4.31446 Q-5.9689, 4.18312 -6.08786, 4.03723 " /><path d="M-5.30937, 4.00827 Q-5.43856, 3.87693 -5.55752, 3.73104 " /><path d="M-5.13261, 3.90621 Q-5.2618, 3.77488 -5.38075, 3.62898 " /><path d="M-6.23263, 1.75068 Q-6.2515, 1.59584 -6.2499, 1.45283 " /><path d="M-6.4094, 1.85274 Q-6.42827, 1.6979 -6.42667, 1.55489 " /><path d="M-6.97138, 1.8084 Q-6.97006, 1.9762 -6.94423, 2.15554 " /><path d="M-7.41662 2.24888 A3.03 1.74937 60 0 1 -7.41662 1.43459" />
</g>

</svg>
