<svg xmlns="http://www.w3.org/2000/svg" viewBox="-8.42376 -6.69726 9.3475200000013 13.39452">
<rect width="100%" height="100%" fill="white"/>
<g   fill="none"
   stroke="rgb(0, 0, 0)"
   stroke-linecap="butt"
   stroke-linejoin="miter"
   stroke-width="0.35"
   transform="scale(1, -1)"
  >
<path id= "1" d=" M -2.73749e-12 -5 L -0.446582 -5.7735 " />
<path id= "2" d=" M -7.5 -5 L -7.05342 -5.7735 " />
</g>
<g   fill="none"
   stroke="rgb(0, 0, 0)"
   stroke-linecap="butt"
   stroke-linejoin="miter"
   stroke-width="0.35"
   transform="scale(1, -1)"
  >
<path d="M-7.43554, 4.86138 L-7.5, 4.76248 " /><path id= "2" d=" M -7.43554 4.86138 L -5.9125 4.86138 " />
<path id= "3" d=" M -7.5 4.76248 L -7.5 3.69998 " />
<path d="M-7.05342, 5.7735 C-7.241, 5.44808 -7.36599, 5.14971 -7.43554, 4.86138 " /><path id= "5" d=" M -7.5 5 L -7.05342 5.7735 " />
<path d="M-7.5, 4.76248 Q-7.5, 4.99873 -7.5, 5 " /><path d="M-5.9125 3.79888 A1.0625 0.53125 0 0 1 -4.85 4.33013" />
<path d="M-4.85 4.33013 A1.0625 0.53125 0 0 1 -5.9125 4.86138" />
<path d="M-0.446582, 2.88675 C-0.142976, 3.41472 -0.00140445, 3.87228 0, 4.33013 " /><path id= "10" d=" M -0.446582 2.88675 L -7.05342 2.88675 " />
<path d="M-7.43554, 3.79888 C-7.36599, 3.51054 -7.241, 3.21217 -7.05342, 2.88675 " /><path id= "12" d=" M -5.9125 3.79888 L -7.43554 3.79888 " />
<path id= "13" d=" M -0.446582 5.7735 L -7.05342 5.7735 " />
<path d="M1.38778e-17, 4.33013 C-0.00140444, 4.78797 -0.142976, 5.24553 -0.446582, 5.7735 " /><path d="M-7.5, 3.69998 L-7.43554, 3.79888 " /><path d="M-1.38778e-17, -4.58002e-08 C-0.00140444, 0.915684 -0.142976, 1.83081 -0.446582, 2.88675 " /><path d="M0, -4.58002e-08 Q0, 0.562675 0, 1.1126  Q0, 1.29319 0, 1.47378  Q0, 1.65024 0, 1.82671  Q0, 1.99806 0, 2.16942  Q0, 2.33471 0, 2.5  Q0, 2.6583 0, 2.8166  Q0, 2.96702 0, 3.11745  Q0, 3.25916 0, 3.40086  Q0, 3.53306 0, 3.66526  Q0, 3.78721 0, 3.90916  Q0, 4.02018 0, 4.13119  Q0, 4.23066 0, 4.33013 " /><path d="M0, 4.33013 C0, 4.54755 0, 4.71582 0, 4.82963  C0, 4.94171 0, 4.9991 0, 5 " /><path id= "19" d=" M -0.446582 5.7735 L 1.29946e-12 5 " />
<path d="M-7.5, 1.0625 C-7.5, 1.56634 -7.5, 2.05262 -7.5, 2.5  C-7.5, 2.94616 -7.5, 3.35209 -7.5, 3.69998 " /><path d="M-7.43554, 1.0625 L-7.5, 1.0625 " /><path d="M-7.05342, 2.88675 C-7.241, 2.23591 -7.36599, 1.63917 -7.43554, 1.0625 " /><path d="M-0.446582, -2.88675 C-0.142976, -1.83081 -0.00140445, -0.915684 0, -4.58002e-08 " /><path id= "24" d=" M -0.446582 -2.88675 L -7.05342 -2.88675 " />
<path d="M-7.43554, -1.0625 C-7.36599, -1.63917 -7.241, -2.23591 -7.05342, -2.88675 " /><path id= "26" d=" M -5.9125 -1.0625 L -7.43554 -1.0625 " />
<path d="M-5.9125 1.0625 A1.0625 1.0625 0 0 0 -5.9125 -1.0625" /><path id= "28" d=" M -7.43554 1.0625 L -5.9125 1.0625 " />
<path d="M-4.86389, -0.171223 C-4.9119, -0.444587 -5.03247, -0.615266 -5.14795, -0.737816 " /><path d="M0, -5 C0, -4.9991 0, -4.94171 0, -4.82963  C0, -4.71582 0, -4.54755 0, -4.33013 " /><path d="M0, -4.33013 Q0, -4.23066 0, -4.13119  Q0, -4.02018 0, -3.90916  Q0, -3.78721 0, -3.66526  Q0, -3.53306 0, -3.40086  Q0, -3.25916 0, -3.11745  Q0, -2.96702 0, -2.8166  Q0, -2.6583 0, -2.5  Q0, -2.33471 0, -2.16942  Q0, -1.99806 0, -1.82671  Q0, -1.65024 0, -1.47378  Q0, -1.29319 0, -1.1126  Q0, -0.562676 0, -4.58002e-08 " /><path d="M1.38778e-17, -4.33013 C-0.00140445, -3.87228 -0.142976, -3.41472 -0.446582, -2.88675 " /><path d="M-7.5, -1.0625 L-7.43554, -1.0625 " /><path d="M-7.5, -3.69998 C-7.5, -3.35209 -7.5, -2.94616 -7.5, -2.5  C-7.5, -2.05262 -7.5, -1.56634 -7.5, -1.0625 " /><path d="M-7.43554, -3.79888 L-7.5, -3.69998 " /><path d="M-7.05342, -2.88675 C-7.241, -3.21217 -7.36599, -3.51054 -7.43554, -3.79888 " /><path d="M-0.446582, -5.7735 C-0.142976, -5.24553 -0.00140444, -4.78797 0, -4.33013 " /><path id= "38" d=" M -0.446582 -5.7735 L -7.05342 -5.7735 " />
<path d="M-7.43554, -4.86138 C-7.36599, -5.14971 -7.241, -5.44808 -7.05342, -5.7735 " /><path id= "40" d=" M -5.9125 -4.86138 L -7.43554 -4.86138 " />
<path d="M-5.9125 -3.79888 A1.0625 0.53125 0 0 0 -4.85 -4.33013" />
<path d="M-4.85 -4.33013 A1.0625 0.53125 0 0 0 -5.9125 -4.86138" />
<path id= "43" d=" M -7.43554 -3.79888 L -5.9125 -3.79888 " />
<path d="M-5.31674, 0.879756 Q-5.47395, 0.983498 -5.63202, 1.02481 " /><path d="M-5.17536, -0.765196 L-5.14795, -0.737816 " /><path d="M-5.02751, -0.587964 L-5.0089, -0.558941 " /><path d="M-4.96353, -0.477881 L-4.9355, -0.417589 " /><path d="M-4.93537, -0.417275 L-4.93492, -0.416217 " /><path d="M-4.90829, -0.347075 L-4.90751, -0.344829 " /><path d="M-4.907, -0.34333 Q-4.88388, -0.27676 -4.86844, -0.197069 " /><path d="M-4.8683, -0.196341 L-4.8683, -0.196341 " /><path d="M-4.86635, -0.185665 L-4.86635, -0.185661 " /><path d="M-4.86618, -0.184696 L-4.86389, -0.171258 " /><path d="M-4.86389, -0.171223 L-4.86147, -0.155698 " /><path d="M-4.85507, -0.10368 Q-4.84916, -0.0432776 -4.85014, 0.017095 " /><path d="M-4.85111, 0.0484798 L-4.8516, 0.0582135 " /><path d="M-4.85356, 0.0868647 L-4.85422, 0.0946471 " /><path d="M-4.89479, 0.305229 C-4.9449, 0.468144 -5.01337, 0.574988 -5.08159, 0.662192 " /><path d="M-5.9125, -1.0625 L-6.19611, -1.0625 " /><path d="M-5.17536, -0.765196 Q-5.29507, -0.879699 -5.43816, -0.950742 " /><path d="M-7.5, -4.76248 L-7.43554, -4.86138 " /><path id= "62" d=" M -7.5 -3.69998 L -7.5 -4.76248 " />
<path d="M-7.5, -5 Q-7.5, -4.99873 -7.5, -4.76248 " /></g>

</svg>
