<svg xmlns="http://www.w3.org/2000/svg" viewBox="-6.69726 -5.92376 13.39452 11.84752">
<rect width="100%" height="100%" fill="white"/>
<g   fill="none"
   stroke="rgb(0, 0, 0)"
   stroke-linecap="butt"
   stroke-linejoin="miter"
   stroke-width="0.35"
   transform="scale(1, -1)"
  >
<path d="M3.0361, 2.0957e-05 L3.0361, -5.84687e-08 " /><path d="M1.96136, 2.31752 L1.96114, 2.31771 " /><path d="M2.05074, -2.23879 L2.05237, -2.2373 " /><path d="M1.96132, 2.31756 L1.96119, 2.31767 " /><path d="M-1.93285, 2.34135 L-1.93294, 2.34128 " /><path d="M-2.4528, 1.78931 L-2.45489, 1.78644 " /><path d="M2.05065, -2.23886 L2.05245, -2.23722 " /></g>
<g   fill="none"
   stroke="rgb(0, 0, 0)"
   stroke-linecap="butt"
   stroke-linejoin="miter"
   stroke-width="0.35"
   transform="scale(1, -1)"
  >
<path d="M2.4515, -0.188503 Q2.45873, -0.0943908 2.45873, -1.33227e-15 " /><path d="M4.86138, -1.57985 L4.76248, -1.52275 " /><path id= "3" d=" M 2.96094 -0.482629 L 2.4515 -0.188503 " />
<path d="M2.4515, -0.188503 Q2.70867, -0.336983 2.96094, -0.482629 " /><path d="M2.4515, -0.188503 Q2.70867, -0.336984 2.96094, -0.482632 " /><path d="M2.96094, -0.482632 Q2.98103, -0.494226 2.98973, -0.499251 " /><path id= "7" d=" M 4.76248 -1.52275 L 2.98973 -0.499251 " />
<path d="M2.45873, 8.76869e-07 Q2.45873, 0.0943907 2.4515, 0.188503 " /><path d="M5.7735, -3.85914e-13 C5.44808, -0.563649 5.14971, -1.08043 4.86138, -1.57985 " /><path d="M4.76248 -1.52275 A5 5 0 0 1 5 -1.22465e-15" /><path d="M3.0361, -5.84687e-08 Q3.03583, -0.254798 2.98973, -0.499251 " /><path d="M3.0361, -5.84687e-08 L3.0361, 2.0957e-05 " /><path d="M3.0361, 2.0957e-05 Q3.03582, 0.254806 2.98972, 0.499247 " /><path id= "14" d=" M 4.76248 1.52275 L 2.98972 0.499247 " />
<path d="M5 0 A5 5 0 0 1 4.76248 1.52275" /><path d="M2.4515, -0.188503 L2.45194, -0.182624 " /><path d="M2.4514, -0.189795 L2.4515, -0.188503 " /><path d="M3.79888, -3.42015 L3.8122, -3.39708  L3.85149, -3.32903  L3.91478, -3.2194  L3.9989, -3.07371  L4.09963, -2.89924  L4.21191, -2.70475  L4.33013, -2.5  L4.44834, -2.29525  L4.56063, -2.10076  L4.66136, -1.92629  L4.74547, -1.7806  L4.80877, -1.67097  L4.84806, -1.60292  L4.86138, -1.57985 " /><path d="M1.389, -2.02881 Q1.38904, -2.02882 1.40472, -2.01795 " /><path d="M1.99279, -2.2425 Q1.68878, -2.15212 1.40472, -2.01795 " /><path d="M2.049, -2.19127 Q2.0689, -2.22029 2.05158, -2.23806 " /><path d="M2.05158, -2.23806 Q2.03245, -2.25374 1.99279, -2.2425 " /><path d="M1.79797, -1.6771 C1.84526, -1.87473 1.93793, -2.04197 2.049, -2.19127 " /><path d="M1.79797, -1.6771 C1.97131, -1.49673 2.16487, -1.20907 2.27273, -0.938124  C2.32175, -0.816613 2.35849, -0.705817 2.38295, -0.605735 " /><path d="M2.38295, -0.605735 C2.57083, -0.565254 2.75624, -0.581134 2.93579, -0.617421 " /><path d="M2.93579, -0.617421 Q2.97012, -0.623171 2.97552, -0.603488 " /><path d="M2.97552, -0.603488 Q2.97824, -0.583262 2.94801, -0.55617 " /><path d="M2.94801, -0.55617 Q2.71358, -0.349663 2.4514, -0.189795 " /><path d="M3.79888, -3.42015 C3.51054, -3.91957 3.21217, -4.43635 2.88675, -5 " /><path d="M2.4515, 0.188503 Q2.70817, 0.336691 2.96094, 0.482628 " /><path d="M4.76248, 1.52275 L4.86138, 1.57985 " /><path d="M2.96094, 0.482628 Q2.98102, 0.494223 2.98972, 0.499247 " /><path d="M4.86138, 1.57985 C5.14971, 1.08043 5.44808, 0.563649 5.7735, 3.8456e-13 " /><path d="M2.45873, 7.67258e-07 Q2.45873, 0.0943911 2.4515, 0.188503 " /><path d="M2.4515, 0.188503 L2.45147, 0.188836 " /><path d="M2.38295, -0.605735 Q2.43503, -0.400699 2.4514, -0.189795 " /><path d="M0.305229, -2.43971 C0.692352, -2.39165 1.06731, -2.24949 1.389, -2.02881 " /><path d="M1.40472, -2.01795 Q1.61943, -1.8684 1.79797, -1.6771 " /><path d="M0.305229, -2.43971 C0.154314, -2.45892 -0.0129571, -2.46413 -0.171223, -2.45277 " /><path d="M2.42292, 0.418131 C2.32665, 0.985919 2.02228, 1.51517 1.57993, 1.88393 " /><path d="M1.51516, 1.93641 Q1.30639, 2.09965 1.0677, 2.21481 " /><path d="M1.0625, 2.21731 Q0.96442, 2.26431 0.862575, 2.30246 " /><path d="M0.806548, 2.32268 L0.773719, 2.33382 " /><path d="M0.713612, 2.3529 C0.179632, 2.51641 -0.409779, 2.48932 -0.926535, 2.27748 " /><path d="M-0.950742, 2.26748 L-1.0625, 2.21731 " /><path d="M-1.06468, 2.21626 Q-1.28049, 2.11253 -1.4723, 1.96919 " /><path d="M-1.58632, 1.87855 C-2.03988, 1.49801 -2.34656, 0.948078 -2.43191, 0.362183 " /><path d="M-2.44729, 0.236979 Q-2.46783, 0.0244582 -2.45151, -0.188391 " /><path d="M-2.4515, -0.188503 C-2.40101, -0.893653 -2.027, -1.56672 -1.45496, -1.98203 " /><path d="M-1.39671, -2.02351 Q-1.23469, -2.13531 -1.05697, -2.21995 " /><path d="M-1.01081, -2.24135 L-1.01081, -2.24135 " /><path d="M-1.00169, -2.24544 Q-0.604622, -2.42191 -0.171223, -2.45277 " /><path d="M0.815405, -2.88707 C0.712185, -2.70324 0.567661, -2.52007 0.305229, -2.43971 " /><path d="M0.815405, -2.88707 Q0.834462, -2.91788 0.865352, -2.91016 " /><path d="M0.865352, -2.91016 Q0.895, -2.89991 0.908441, -2.85916 " /><path d="M0.908441, -2.85916 Q1.00598, -2.54675 1.03989, -2.228 " /><path d="M1.0625, -2.21731 Q1.06248, -2.21737 1.03989, -2.228 " /><path d="M1.0625, -2.21731 Q1.23299, -2.13559 1.389, -2.02881 " /><path d="M3.69998, -3.36305 L3.79888, -3.42015 " /><path id= "60" d=" M 3.69998 -3.36305 L 1.92619 -2.33895 " />
<path d="M1.92619, -2.33895 L1.81918, -2.27718 " /><path d="M1.389, -2.02881 L1.81918, -2.27718 " /><path d="M4.86138, 1.57985 L4.84806, 1.60292  L4.80877, 1.67097  L4.74547, 1.7806  L4.66136, 1.92629  L4.56063, 2.10076  L4.44834, 2.29525  L4.33013, 2.5  L4.21191, 2.70475  L4.09963, 2.89924  L3.9989, 3.07371  L3.91478, 3.2194  L3.85149, 3.32903  L3.8122, 3.39708  L3.79888, 3.42015 " /><path d="M2.88675, 5 C3.21217, 4.43635 3.51054, 3.91957 3.79888, 3.42015 " /><path d="M1.0625 -4.88581 A5 5 0 0 1 3.69998 -3.36305" /><path d="M1.0625, -5 L1.0625, -4.88581 " /><path d="M2.88675, -5 C2.23591, -5 1.63917, -5 1.0625, -5 " /><path d="M-1.0625, -5 C-1.63917, -5 -2.23591, -5 -2.88675, -5 " /><path d="M1.0625, -5 L1.03586, -5  L0.957279, -5  L0.830696, -5  L0.662458, -5  L0.461001, -5  L0.236428, -5  L-1.9984e-15, -5  L-0.236428, -5  L-0.461001, -5  L-0.662458, -5  L-0.830696, -5  L-0.957279, -5  L-1.03586, -5  L-1.0625, -5 " /><path d="M2.95194, 0.534935 Q2.71279, 0.343384 2.45147, 0.188836 " /><path d="M2.94259, 0.584191 Q2.97649, 0.591918 2.98091, 0.576247 " /><path d="M2.98091, 0.576247 Q2.9827, 0.559898 2.95194, 0.534935 " /><path d="M2.40265, 0.522156 Q2.68009, 0.512512 2.94259, 0.584191 " /><path d="M2.40265, 0.522156 Q2.37268, 0.668492 2.30405, 0.858331 " /><path d="M1.81255, 1.66134 C1.87806, 1.64803 1.94297, 1.62685 2.00728, 1.59779  C2.10708, 1.55203 2.20698, 1.47682 2.2687, 1.36861  C2.36408, 1.20115 2.34791, 1.01071 2.30405, 0.858331 " /><path d="M1.81255, 1.66134 Q1.68168, 1.80105 1.57993, 1.88393 " /><path d="M1.57993, 1.88393 Q1.73378, 2.10861 1.94337, 2.28547 " /><path d="M1.94337, 2.28547 Q1.96929, 2.30903 1.96125, 2.31762 " /><path d="M1.96125, 2.31762 Q1.9513, 2.32427 1.91575, 2.30867 " /><path d="M1.91575, 2.30867 Q1.73861, 2.23068 1.57283, 2.13495 " /><path d="M2.4515, 0.188503 Q2.43853, 0.357007 2.40265, 0.522156 " /><path d="M2.45873, 4.38429e-07 C2.46054, 0.585842 2.24304, 1.16886 1.85796, 1.61039  C1.55689, 1.95882 1.15567, 2.21931 0.714876, 2.35251 " /><path d="M0.713611, 2.3529 C0.17963, 2.51641 -0.409781, 2.48932 -0.926538, 2.27748 " /><path d="M-0.950742, 2.26748 L-1.0625, 2.21731 " /><path d="M-1.06524, 2.216 Q-1.28074, 2.11234 -1.4723, 1.96919 " /><path d="M-1.51628, 1.93553 L-1.51628, 1.93552 " /><path d="M-1.58567, 1.8791 C-2.03959, 1.49853 -2.34652, 0.948359 -2.43191, 0.362183 " /><path d="M-2.44729, 0.236979 Q-2.45414, 0.166241 -2.45689, 0.0952272 " /><path d="M-2.45256, -0.174188 C-2.40594, -0.884449 -2.03094, -1.56395 -1.45496, -1.98203 " /><path d="M-1.40288, -2.01924 Q-1.2381, -2.13368 -1.05697, -2.21995 " /><path d="M-1.05093, -2.22282 L-1.04098, -2.22749 " /><path d="M-1.01429, -2.23977 L-1.01148, -2.24104 " /><path d="M-1.00169, -2.24544 Q-0.604627, -2.42191 -0.171223, -2.45277 " /><path d="M-0.113513, -2.45611 Q-0.0246719, -2.46022 0.064232, -2.45789 " /><path d="M0.124051, -2.4556 L0.129918, -2.4553 " /><path d="M0.283923, -2.44229 C0.678568, -2.3968 1.06142, -2.25355 1.389, -2.02881 " /><path d="M1.40328, -2.01895 Q1.72775, -1.79293 1.96564, -1.47703 " /><path d="M2.05452, -1.35067 Q2.09395, -1.29069 2.12982, -1.22851 " /><path d="M2.24425, -1.00435 Q2.2751, -0.935407 2.30167, -0.864699 " /><path d="M2.36575, -0.669788 L2.38538, -0.596119 " /><path d="M2.42273, -0.419221 L2.42659, -0.396287 " /><path d="M-0.171223, -2.45277 C-0.444587, -2.54462 -0.615266, -2.7236 -0.737816, -2.90787 " /><path d="M-2.2276, -2.00945 C-2.20231, -1.92253 -2.1933, -1.8279 -2.20056, -1.72555  C-2.20842, -1.62501 -2.24011, -1.52445 -2.29565, -1.42387  C-2.35226, -1.32394 -2.43184, -1.23801 -2.5156, -1.17405  C-2.61618, -1.0997 -2.71856, -1.04701 -2.82273, -1.01599 " /><path d="M-2.6768, 1.35455 Q-2.61051, 1.44219 -2.57102, 1.54594 " /><path id= "105" d=" M 1.0625 -2.21731 L 1.0625 -2.65465 " />
<path d="M-1.05697, -2.21995 Q-1.06251, -2.31692 -1.0625, -2.41456 " /><path d="M-1.00169, -2.24544 Q-1.04409, -2.22628 -1.05697, -2.21995 " /><path d="M-0.844025, -2.87883 Q-0.951982, -2.567 -1.00169, -2.24544 " /><path d="M-0.737816, -2.90787 Q-0.760041, -2.93817 -0.795195, -2.93011 " /><path d="M-0.795195, -2.93011 Q-0.829058, -2.91948 -0.844025, -2.87883 " /><path d="M1.0625, -2.65465 Q1.0625, -2.74349 1.0625, -2.8376 " /><path id= "112" d=" M 1.0625 -2.8376 L 1.0625 -4.88581 " />
<path d="M1.0625, -2.21731 L1.0625, -2.65465 " /><path d="M1.0625, -2.21731 L1.0625, -2.65465 " /><path d="M1.0625, -2.21731 Q1.23299, -2.13559 1.389, -2.02881 " /><path d="M1.81918, -2.27718 Q1.46795, -2.52209 1.0625, -2.65465 " /><path d="M1.0625 -2.8376 A3.03 3.03 0 0 1 1.92619 -2.33895" /><path d="M1.0625, 5 C1.63917, 5 2.23591, 5 2.88675, 5 " /><path d="M1.0625, 5 L1.03586, 5  L0.957279, 5  L0.830696, 5  L0.662458, 5  L0.461001, 5  L0.236428, 5  L2.13718e-15, 5  L-0.236428, 5  L-0.461001, 5  L-0.662458, 5  L-0.830696, 5  L-0.957279, 5  L-1.03586, 5  L-1.0625, 5 " /><path d="M-2.88675, 5 C-2.23591, 5 -1.63917, 5 -1.0625, 5 " /><path d="M3.69998 3.36305 A5 5 0 0 1 1.0625 4.88581" /><path d="M3.79888, 3.42015 L3.69998, 3.36305 " /><path d="M1.0625, 4.88581 L1.0625, 5 " /><path d="M1.389, 2.02881 L1.61703, 2.16046 " /><path d="M1.61703, 2.16046 Q1.7627, 2.24456 1.92619, 2.33895 " /><path id= "126" d=" M 3.69998 3.36305 L 1.92619 2.33895 " />
<path d="M-1.0625, -4.88581 L-1.0625, -5 " /><path id= "128" d=" M -1.0625 -2.8376 L -1.0625 -4.88581 " />
<path d="M-1.0625, -2.8376 Q-1.0625, -2.65689 -1.0625, -2.49509 " /><path d="M-1.0625, -2.21731 L-1.0625, -2.49509 " /><path d="M-3.69998 -3.36305 A5 5 0 0 1 -1.0625 -4.88581" /><path d="M-3.79888, -3.42015 L-3.69998, -3.36305 " /><path d="M-2.88675, -5 C-3.21217, -4.43635 -3.51054, -3.91957 -3.79888, -3.42015 " /><path d="M-4.86138, -1.57985 C-5.14971, -1.08043 -5.44808, -0.563649 -5.7735, -3.83693e-13 " /><path d="M-3.79888, -3.42015 L-3.8122, -3.39708  L-3.85149, -3.32903  L-3.91478, -3.2194  L-3.9989, -3.07371  L-4.09963, -2.89924  L-4.21191, -2.70475  L-4.33013, -2.5  L-4.44834, -2.29525  L-4.56063, -2.10076  L-4.66136, -1.92629  L-4.74547, -1.7806  L-4.80877, -1.67097  L-4.84806, -1.60292  L-4.86138, -1.57985 " /><path d="M1.05084, 2.80995 Q1.06251, 2.65448 1.0625, 2.49954 " /><path d="M1.02481, 2.81955 Q1.03107, 2.85422 1.03987, 2.85247 " /><path d="M1.03987, 2.85247 Q1.04801, 2.84806 1.05084, 2.80995 " /><path d="M1.57993, 1.88393 Q1.488, 1.96102 1.389, 2.02881 " /><path d="M1.19886, 2.14665 L1.10081, 2.19854 " /><path d="M1.0625, 2.21731 Q0.97272, 2.26033 0.879756, 2.29595 " /><path d="M0.879756, 2.29595 Q0.983498, 2.54847 1.02481, 2.81955 " /><path d="M0.879756, 2.29595 Q0.791394, 2.33076 0.662192, 2.36788 " /><path d="M-2.33745, 1.88053 C-2.08219, 1.93302 -1.83503, 1.91174 -1.59698, 1.8695 " /><path d="M-0.765196, 2.33663 C-0.703708, 2.4674 -0.621663, 2.58966 -0.51906, 2.70341  C-0.45654, 2.77249 -0.380263, 2.83074 -0.290229, 2.87817  C-0.216287, 2.9162 -0.134828, 2.93591 -0.0458537, 2.93728  C0.0600578, 2.93732 0.161298, 2.90178 0.243871, 2.852  C0.443132, 2.72841 0.564188, 2.54772 0.662192, 2.36788 " /><path d="M2.45873, 3.28821e-07 C2.46054, 0.585842 2.24304, 1.16886 1.85796, 1.61039  C1.57784, 1.93439 1.2113, 2.1827 0.806522, 2.32269 " /><path d="M0.773719, 2.33382 L0.714876, 2.35251 " /><path d="M0.713611, 2.3529 C0.17963, 2.51641 -0.409784, 2.48932 -0.926538, 2.27748 " /><path d="M-0.950742, 2.26748 Q-1.22981, 2.15031 -1.4723, 1.96919 " /><path d="M-1.58565, 1.87912 C-2.03957, 1.49856 -2.34652, 0.948369 -2.43191, 0.362183 " /><path d="M-2.44729, 0.236979 C-2.51604, -0.439788 -2.28591, -1.13954 -1.82884, -1.64338 " /><path d="M-1.60309, -1.86426 Q-1.53129, -1.926 -1.45496, -1.98203 " /><path d="M-1.40328, -2.01895 L-1.36922, -2.04221 " /><path d="M-0.948694, -2.26834 Q-0.829389, -2.31823 -0.705509, -2.35534 " /><path d="M-0.439568, -2.41912 L-0.421609, -2.42232 " /><path d="M-0.113513, -2.45611 L-0.110082, -2.45627 " /><path d="M0.0212967, -2.45864 L0.0642294, -2.4579 " /><path d="M0.124051, -2.4556 L0.129918, -2.4553 " /><path d="M0.283923, -2.44229 L0.305229, -2.43971 " /><path d="M0.473441, -2.41272 C0.800502, -2.34874 1.11412, -2.21724 1.389, -2.02881 " /><path d="M1.40328, -2.01895 Q1.72775, -1.79293 1.96564, -1.47703 " /><path d="M2.05452, -1.35067 Q2.09395, -1.29069 2.12982, -1.22851 " /><path d="M2.24425, -1.00435 Q2.2751, -0.935407 2.30167, -0.864698 " /><path d="M2.36575, -0.669788 L2.38652, -0.591523 " /><path d="M2.42325, -0.4162 L2.42705, -0.393441 " /><path d="M-2.57102, 1.54594 C-2.53153, 1.65253 -2.49618, 1.72999 -2.45385, 1.78788 " /><path d="M-2.45385, 1.78788 Q-2.39188, 1.86975 -2.33745, 1.88053 " /><path d="M-2.44729, 0.236979 Q-2.44345, 0.281258 -2.43191, 0.362183 " /><path d="M-2.44729, 0.236979 Q-2.71208, 0.338383 -2.96094, 0.482628 " /><path d="M-4.86138, 1.57985 L-4.84806, 1.60292  L-4.80877, 1.67097  L-4.74547, 1.7806  L-4.66136, 1.92629  L-4.56063, 2.10076  L-4.44834, 2.29525  L-4.33013, 2.5  L-4.21191, 2.70475  L-4.09963, 2.89924  L-3.9989, 3.07371  L-3.91478, 3.2194  L-3.85149, 3.32903  L-3.8122, 3.39708  L-3.79888, 3.42015 " /><path d="M-1.90365, 2.31866 Q-1.93357, 2.33902 -1.9329, 2.34132 " /><path d="M-1.9329, 2.34132 Q-1.93126, 2.342 -1.91052, 2.32991 " /><path d="M-1.4723, 1.96919 Q-1.66896, 2.16433 -1.90365, 2.31866 " /><path d="M-1.59698, 1.8695 Q-1.52276, 1.93213 -1.4723, 1.96919 " /><path d="M-2.6768, 1.35455 C-2.74494, 1.26663 -2.79047, 1.19861 -2.81626, 1.13427 " /><path d="M-2.81626, 1.13427 Q-2.8516, 1.04168 -2.83212, 0.989525 " /><path d="M-2.83212, 0.989525 C-2.74264, 0.743295 -2.59414, 0.542513 -2.43191, 0.362183 " /><path d="M-2.82273, -1.01599 C-2.84924, -1.00774 -2.87424, -0.979438 -2.88432, -0.94793 " /><path d="M-2.88432, -0.94793 Q-2.89941, -0.897336 -2.87484, -0.857532 " /><path d="M-1.39671, -2.02351 Q-1.41202, -2.01321 -1.45496, -1.98203 " /><path d="M-1.39671, -2.02351 Q-1.50546, -2.09607 -1.61925, -2.16174 " /><path d="M-2.44817, -0.227698 Q-2.67169, -0.315216 -2.88225, -0.437196 " /><path d="M-2.43597, -0.333827 Q-2.44506, -0.264708 -2.44817, -0.227698 " /><path d="M-2.87484, -0.857532 Q-2.68368, -0.565908 -2.43597, -0.333827 " /><path d="M-2.2276, -2.00945 C-2.2346, -2.03474 -2.22367, -2.06776 -2.2024, -2.08981 " /><path d="M-2.2024, -2.08981 Q-2.1677, -2.1243 -2.12113, -2.12152 " /><path d="M-2.12113, -2.12152 Q-1.77394, -2.09237 -1.45496, -1.98203 " /><path d="M-1.39671, -2.02351 Q-1.23469, -2.13531 -1.05697, -2.21995 " /><path d="M-3.79888, 3.42015 C-3.51054, 3.91957 -3.21217, 4.43635 -2.88675, 5 " /><path d="M-5.7735, 3.87233e-13 C-5.44808, 0.563649 -5.14971, 1.08043 -4.86138, 1.57985 " /><path d="M-1.0625 4.88581 A5 5 0 0 1 -3.69998 3.36305" /><path d="M-1.0625, 5 L-1.0625, 4.88581 " /><path d="M-3.69998, 3.36305 L-3.79888, 3.42015 " /><path d="M-1.0625, 2.21731 Q-1.0625, 2.49521 -1.0625, 2.8376 " /><path id= "195" d=" M -1.0625 4.88581 L -1.0625 2.8376 " />
<path d="M-0.765196, 2.33663 Q-0.879699, 2.29817 -0.950742, 2.26748 " /><path d="M-0.950742, 2.26748 Q-1.02636, 2.53205 -1.04911, 2.8106 " /><path d="M-1.04911, 2.8106 Q-1.05276, 2.84629 -1.05721, 2.84608 " /><path d="M-1.05721, 2.84608 Q-1.06101, 2.84323 -1.06165, 2.80588 " /><path d="M-1.06165, 2.80588 L-1.0625, 2.72963 " /><path id= "201" d=" M 1.0625 4.88581 L 1.0625 2.8376 " />
<path d="M1.0625, 2.8376 Q1.0625, 2.57863 1.0625, 2.35753 " /><path d="M1.0625, 2.21731 L1.0625, 2.35753 " /><path d="M1.92619 2.33895 A3.03 3.03 0 0 1 1.0625 2.8376" /><path d="M1.0625, 2.35753 Q1.34941, 2.29106 1.61703, 2.16046 " /><path d="M1.389, 2.02881 Q1.23297, 2.1356 1.0625, 2.21731 " /><path d="M1.20777, 2.14165 Q1.13639, 2.1819 1.0625, 2.21731 " /><path d="M-1.389, -2.02881 Q-1.23298, -2.13559 -1.0625, -2.21731 " /><path d="M-1.389, -2.02881 L-1.58785, -2.14362 " /><path d="M-1.0625, -2.49509 Q-1.34643, -2.35007 -1.58785, -2.14362 " /><path d="M-1.58785, -2.14362 Q-1.7463, -2.23509 -1.92619, -2.33895 " /><path d="M-1.92619 -2.33895 A3.03 3.03 0 0 1 -1.0625 -2.8376" /><path id= "213" d=" M -1.92619 -2.33895 L -3.69998 -3.36305 " />
<path d="M-4.76248, -1.52275 L-4.86138, -1.57985 " /><path id= "215" d=" M -2.98869 -0.49865 L -4.76248 -1.52275 " />
<path d="M-2.98869, -0.49865 Q-2.72072, -0.343942 -2.49884, -0.215838 " /><path d="M-2.4515, -0.188503 L-2.49884, -0.215838 " /><path d="M-4.76248 1.52275 A5 5 0 0 1 -4.76248 -1.52275" /><path d="M-4.86138, 1.57985 L-4.76248, 1.52275 " /><path d="M-0.950742, 2.26748 L-1.0625, 2.21731 " /><path d="M-1.389, 2.02881 L-1.4723, 1.96919 " /><path d="M-2.44729, 0.236979 Q-2.45614, 0.145554 -2.45815, 0.0537281 " /><path d="M-2.4515, -0.188503 L-2.44817, -0.227698 " /><path id= "224" d=" M -1.92619 2.33895 L -3.69998 3.36305 " />
<path d="M-1.92619, 2.33895 Q-1.62967, 2.16776 -1.389, 2.02881 " /><path d="M-2.46885, 0.198521 Q-2.70269, 0.33353 -2.98869, 0.49865 " /><path id= "227" d=" M -2.98869 0.49865 L -4.76248 1.52275 " />
<path d="M-2.4515, 0.188503 L-2.46885, 0.198521 " /><path d="M-0.171223, -2.45276 C0.199035, -2.47891 0.574966, -2.41951 0.919123, -2.28048  C1.36169, -2.10298 1.74977, -1.79305 2.02075, -1.4007  C2.26845, -1.04433 2.41878, -0.621255 2.4515, -0.188503 " /><path d="M-1.0625 2.8376 A3.03 3.03 0 0 1 -1.92619 2.33895" /><path d="M-1.0625 2.21731 A2.45873 2.45873 0 0 1 -1.389 2.02881" /><path d="M-1.0625, 2.21731 Q-1.23299, 2.13559 -1.389, 2.02881 " /><path d="M-2.4515, 0.188503 Q-2.46597, -1.32979e-05 -2.4515, -0.188503 " /><path d="M-2.49884, -0.215838 Q-2.50117, -0.00707475 -2.46885, 0.198521 " /><path d="M-2.98869 0.49865 A3.03 3.03 0 0 1 -2.98869 -0.49865" /></g>

</svg>
