<svg xmlns="http://www.w3.org/2000/svg" viewBox="-9.293534000000001 -13.463823999999999 20.085818000000003 26.274348000000003">
<rect width="100%" height="100%" fill="white"/>
<g   fill="none"
   stroke="rgb(0, 0, 0)"
   stroke-linecap="butt"
   stroke-linejoin="miter"
   stroke-width="0.35"
   transform="scale(1, -1)"
  >
<path id= "1" d=" M -7.48151 -10.3452 L -6.35 -10.9985 " />
<path id= "2" d=" M 5.21849 11.6518 L 6.35 10.9985 " />
</g>
<g   fill="none"
   stroke="rgb(0, 0, 0)"
   stroke-linecap="butt"
   stroke-linejoin="miter"
   stroke-width="0.35"
   transform="scale(1, -1)"
  >
<path d="M1.39194 2.11019 A3.5687 2.06039 60 0 1 0.652838 3.74386" />
<path d="M0.652838 3.74386 A3.5687 2.06039 60 0 1 -2.91586 -2.43731" />
<path d="M-2.91586 -2.43731 A3.5687 2.06039 60 0 1 1.39194 2.11019" />
<path d="M7.84874 5.83803 A12.7 7.33235 60 0 1 5.21849 11.6518" />
<path d="M5.21849 11.6518 A12.7 7.33235 60 0 1 -7.48151 -10.3452" />
<path d="M-7.48151 -10.3452 A12.7 7.33235 60 0 1 7.84874 5.83803" />
<path d="M8.98026 5.18475 A12.7 7.33235 60 0 1 6.35 10.9985" />
<path d="M-6.35 -10.9985 A12.7 7.33235 60 0 1 8.98026 5.18475" />
<path d="M1.12653 3.25776 A3.5687 2.06039 60 0 1 -2.25804 -2.60448" />
</g>

</svg>
