<svg xmlns="http://www.w3.org/2000/svg" viewBox="-7.1692716 -1.9464016000000002 14.411573200000001 3.8928032000000004">
<rect width="100%" height="100%" fill="white"/>
<g   fill="none"
   stroke="rgb(0, 0, 0)"
   stroke-linecap="butt"
   stroke-linejoin="miter"
   stroke-width="0.35"
   transform="scale(1, -1)"
  >
<path id= "1" d=" M -3.92467 0.9525 L 3.92467 0.9525 " />
<path d="M6.17537 0.9525 A6.2484 6.2484 0 0 1 -6.17537 0.9525" /><path d="M-3.92467, 0.9525 C-4.47317, 0.9525 -5.0203, 0.9525 -5.43004, 0.9525  C-5.89883, 0.9525 -6.17859, 0.9525 -6.17537, 0.9525 " /><path d="M3.92467, 0.9525 C4.47317, 0.9525 5.0203, 0.9525 5.43004, 0.9525  C5.89883, 0.9525 6.17859, 0.9525 6.17537, 0.9525 " /><path d="M6.17537 -0.9525 A6.2484 6.2484 0 0 1 6.2484 -1.53042e-15" /><path d="M-6.17537 0.9525 A6.2484 6.2484 0 0 1 -6.17537 -0.9525" /><path d="M6.2484 0 A6.2484 6.2484 0 0 1 6.17537 0.9525" /><path d="M-3.92467, -0.9525 C-4.47317, -0.9525 -5.0203, -0.9525 -5.43004, -0.9525  C-5.89883, -0.9525 -6.17859, -0.9525 -6.17537, -0.9525 " /><path d="M-6.17537 -0.9525 A6.2484 6.2484 0 0 1 6.17537 -0.9525" /><path d="M3.92467, -0.9525 C4.47317, -0.9525 5.0203, -0.9525 5.43004, -0.9525  C5.89883, -0.9525 6.17859, -0.9525 6.17537, -0.9525 " /><path id= "11" d=" M -3.92467 -0.9525 L 3.92467 -0.9525 " />
</g>

</svg>
