<svg xmlns="http://www.w3.org/2000/svg" viewBox="-9.0334984 -8.5523284 14.8502968 14.1706468">
<rect width="100%" height="100%" fill="white"/>
<g   fill="none"
   stroke="rgb(0, 0, 0)"
   stroke-linecap="butt"
   stroke-linejoin="miter"
   stroke-width="0.35"
   transform="scale(1, -1)"
  >
<path d="M4.79264, 2.89856 C4.79649, 1.40876 4.28284, -0.332071 3.3965, -1.88183  C2.50084, -3.46052 1.23394, -4.81581 -0.0790367, -5.57956  C-0.8617, -6.03807 -1.66103, -6.2936 -2.40916, -6.30439  C-2.96313, -6.31328 -3.48904, -6.18513 -3.94068, -5.92322  C-4.39168, -5.66307 -4.76431, -5.27255 -5.03289, -4.78971  C-5.2804, -4.34617 -5.44254, -3.82554 -5.51888, -3.25318 " /><path d="M0.0578946, 6.40608 C0.600166, 6.62962 1.1405, 6.7498 1.6556, 6.75374  C2.20702, 6.75872 2.72997, 6.62727 3.1785, 6.36318  C3.48099, 6.18484 3.74422, 5.9538 3.96819, 5.67008  C4.51772, 4.97531 4.79367, 4.00192 4.79264, 2.89856 " /></g>
<g   fill="none"
   stroke="rgb(0, 0, 0)"
   stroke-linecap="butt"
   stroke-linejoin="miter"
   stroke-width="0.35"
   transform="scale(1, -1)"
  >
<path d="M-2.25665, 3.42683 C-2.27903, 2.87823 -2.48015, 2.2465 -2.80541, 1.69996 " /><g transform = "rotate(60, -4.24264, 2.44949)">
<ellipse cx ="-4.24264" cy ="2.44949" rx ="3.375"  ry ="1.94856"/>
</g>
<path d="M-2.25665, 3.42683 C-2.23898, 3.82055 -2.31045, 4.17099 -2.46145, 4.43251  C-2.6149, 4.70046 -2.85069, 4.87513 -3.13781, 4.93519  C-3.43906, 4.99947 -3.79607, 4.93709 -4.16034, 4.75863  C-4.54311, 4.5723 -4.93266, 4.25852 -5.27455, 3.86405 " /><path d="M-6.23281, 1.79739 C-6.23218, 1.8273 -6.22824, 1.86679 -6.221, 1.91586  C-6.19567, 2.08753 -6.13429, 2.32184 -6.04671, 2.55365  C-5.88637, 2.98625 -5.62429, 3.44005 -5.34625, 3.77878 " /><path d="M-5.34625, 3.77878 L-5.27455, 3.86405 " /><path d="M-5.26304, 0.200657 C-5.55003, 0.245658 -5.79231, 0.406829 -5.9596, 0.660731  C-6.14823, 0.944544 -6.24214, 1.34365 -6.23281, 1.79739 " /><path d="M-5.26304 0.200657 A2.45873 1.41955 60 0 1 -2.80541 1.69996" />
<path d="M-2.39721, 4.21697 C-2.83987, 4.41987 -3.45846, 4.27581 -4.02488, 3.84906  C-4.4012, 3.5693 -4.75123, 3.1733 -5.01485, 2.73643  C-5.32916, 2.21921 -5.51787, 1.64856 -5.54023, 1.17295  C-5.56396, 0.721023 -5.4392, 0.358499 -5.20048, 0.171764 " /><path d="M-2.34906, 4.17971 Q-2.41244, 4.23192 -2.48293, 4.27262 " /><path d="M-2.48293, 4.27262 C-2.70139, 4.39922 -2.96976, 4.43891 -3.25911, 4.38832  C-3.56708, 4.33531 -3.8982, 4.17978 -4.21184, 3.94349  C-4.60326, 3.65014 -4.96527, 3.23109 -5.23079, 2.7724  C-5.53214, 2.25567 -5.70705, 1.69287 -5.71885, 1.22795  C-5.73395, 0.748321 -5.57656, 0.377989 -5.29521, 0.21809 " /><path d="M-5.29521, 0.21809 L-5.26304, 0.200657 " /><path d="M-0.707107 4.49073 A5 2.88675 60 0 1 -1.18078 6.2585" />
<path d="M-1.18078 2.17602 A5 2.88675 60 0 1 -0.707107 4.49073" />
<path d="M-4.24264 -1.63299 A5 2.88675 60 0 1 -1.18078 2.17602" />
<path d="M-7.3045 -1.35952 A5 2.88675 60 0 1 -4.24264 -1.63299" />
<path d="M-7.3045 2.72296 A5 2.88675 60 0 1 -7.3045 -1.35952" />
<path d="M-4.24264 6.53197 A5 2.88675 60 0 1 -7.3045 2.72296" />
<path d="M-1.18078 6.2585 A5 2.88675 60 0 1 -4.24264 6.53197" />
<path d="M-2.27998, 3.89145 C-2.61095, 3.85646 -2.97458, 3.69738 -3.31787, 3.44074  C-3.69426, 3.16091 -4.04434, 2.76479 -4.30797, 2.32781  C-4.62294, 1.80941 -4.81168, 1.23737 -4.8333, 0.761165  C-4.84489, 0.509577 -4.81431, 0.292426 -4.74154, 0.109711 " /><path d="M-2.30038, 4.00134 C-2.67405, 4.00616 -3.1038, 3.838 -3.50512, 3.53495  C-3.89827, 3.24023 -4.26168, 2.8187 -4.52747, 2.35763  C-4.82642, 1.84288 -4.99985, 1.2831 -5.01173, 0.820242  C-5.02002, 0.537516 -4.97002, 0.290869 -4.86815, 0.104971 " /><path d="M-1.18078, 6.2585 C-0.856042, 5.79735 -0.432389, 5.27926 0.155623, 4.6242 " /><path d="M-4.24264, 6.53197 C-3.59416, 6.90523 -2.84696, 7.22103 -1.88562, 7.52817 " /><path d="M-1.88562, 7.52817 C-1.72697, 7.121 -1.50353, 6.7185 -1.18078, 6.2585 " /><path d="M-7.3045, 2.72296 C-6.97977, 3.55679 -6.55611, 4.33289 -5.9681, 5.17115 " /><path d="M-5.9681, 5.17115 C-5.43612, 5.72618 -4.88913, 6.15757 -4.24264, 6.53197 " /><path d="M-7.3045, -1.35952 C-7.62725, -0.899519 -7.85069, -0.49702 -8.00934, -0.0898492 " /><path d="M-8.00934, -0.0898492 C-7.85069, 0.9963 -7.62725, 1.88799 -7.3045, 2.72296 " /><path d="M-5.9681, -2.99382 C-6.55611, -2.33876 -6.97977, -1.82067 -7.3045, -1.35952 " /><path d="M-4.24264, -1.63299 C-4.88913, -2.00739 -5.43612, -2.43879 -5.9681, -2.99382 " /><path d="M-1.88562, -0.636798 C-2.84696, -0.943936 -3.59416, -1.25974 -4.24264, -1.63299 " /><path d="M-1.18078, 2.17602 C-1.50353, 1.34104 -1.72697, 0.449351 -1.88562, -0.636798 " /><path d="M0.155623, 4.6242 C-0.432389, 3.78594 -0.856042, 3.00984 -1.18078, 2.17602 " /><path d="M-2.26978, 3.2518 C-2.76969, 2.98301 -3.25935, 2.48757 -3.60109, 1.91919  C-3.92583, 1.38479 -4.11589, 0.793551 -4.12788, 0.308889 " /><path d="M-2.25586, 3.44661 C-2.84098, 3.19916 -3.43795, 2.61879 -3.82277, 1.94522  C-4.16226, 1.3602 -4.33669, 0.718431 -4.30133, 0.225596 " /><path d="M0.886256, 5.92783 L0.958143, 5.75344  L1.03871, 5.57854  L1.12844, 5.40205  L1.2279, 5.22288  L1.3377, 5.03994  L1.45852, 4.85208  L1.5911, 4.65816  L1.73625, 4.45697  L1.89487, 4.24729  L2.06794, 4.02781  L2.25652, 3.79719  L2.46178, 3.554  L2.68498, 3.29675  L2.9275, 3.02385 " /><path id= "36" d=" M 2.9275 3.02385 L 0.155623 4.6242 " />
<path id= "37" d=" M 0.886256 5.92783 L -1.88562 7.52817 " />
<path id= "38" d=" M -3.19623 -4.59416 L -5.9681 -2.99382 " />
<path d="M0.886256, -2.23714 L0.486539, -2.3694  L0.111457, -2.50361  L-0.241301, -2.64057  L-0.573907, -2.78115  L-0.888412, -2.9262  L-1.18675, -3.07662  L-1.47077, -3.23334  L-1.7422, -3.39731  L-2.00274, -3.56956  L-2.25397, -3.75114  L-2.49746, -3.94317  L-2.73469, -4.14683  L-2.96714, -4.36339  L-3.19623, -4.59416 " /><path id= "40" d=" M 0.886256 -2.23714 L -1.88562 -0.636798 " />
<path d="M2.9275, 3.02385 L2.68498, 2.66795  L2.46178, 2.31767  L2.25652, 1.97087  L2.06794, 1.6254  L1.89487, 1.27913  L1.73625, 0.929942  L1.5911, 0.575673  L1.45852, 0.214144  L1.3377, -0.156874  L1.2279, -0.539666  L1.12844, -0.936591  L1.03871, -1.35009  L0.958143, -1.78272  L0.886256, -2.23714 " /><path d="M-2.48264, 2.37358 C-2.90214, 1.94853 -3.24556, 1.39117 -3.43126, 0.849891 " /></g>

</svg>
