<svg xmlns="http://www.w3.org/2000/svg" viewBox="-7.0920000000000005 -7.917 8.184000000000001 15.834">
<rect width="100%" height="100%" fill="white"/>
<g   fill="none"
   stroke="rgb(165, 165, 165)"
   stroke-dasharray="1.2,0.8"
   stroke-linecap="butt"
   stroke-linejoin="miter"
   stroke-width="0.25"
   transform="scale(1, -1)"
  >
<path d="M-5.79269, 2.60129 C-5.78022, 2.55718 -5.76749, 2.26004 -5.75449, 1.78704 " /><path id= "2" d=" M -5.79269 2.60129 L -6 3.375 " />
<path d="M-6, 3.375 L-6, 3.29038  L-6, 3.04077  L-6, 2.63868  L-6, 2.10428  L-6, 1.46436  L-6, 0.751008  L-6, 2.22045e-16  L-6, -0.751008  L-6, -1.46436  L-6, -2.10428  L-6, -2.63868  L-6, -3.04077  L-6, -3.29038  L-6, -3.375 " /><path d="M-6, -3.375 L-6, -3.29038  L-6, -3.04077  L-6, -2.63868  L-6, -2.10428  L-6, -1.46436  L-6, -0.751008  L-6, -6.66134e-16  L-6, 0.751008  L-6, 1.46436  L-6, 2.10428  L-6, 2.63868  L-6, 3.04077  L-6, 3.29038  L-6, 3.375 " /><path d="M-5.79269, 2.60129 Q-5.79534, 2.61119 -5.79797, 2.60665 " /><path d="M-5.79797, 2.60665 C-5.81417, 2.58422 -5.82993, 2.12157 -5.84533, 1.4078  C-5.86391, 0.552637 -5.88195, -0.634793 -5.89952, -1.55982 " /><path d="M-5.89952, -2.91501 C-5.90957, -2.89568 -5.90997, -2.67352 -5.90856, -2.34156  C-5.90732, -2.11755 -5.90461, -1.83373 -5.89952, -1.55982 " /><path d="M-5.75449, -1.68857 C-5.79404, -2.30702 -5.83123, -2.74914 -5.86664, -2.87728 " /><path d="M-5.86664, -2.87728 Q-5.87315, -2.90159 -5.87958, -2.9127 " /><path d="M-5.87958, -2.9127 Q-5.88965, -2.93003 -5.89952, -2.91501 " /><path d="M-5.75449, -1.68857 Q-5.75449, -1.58322 -5.75449, -1.47786  Q-5.75449, -1.36322 -5.75449, -1.24857  Q-5.75449, -1.12608 -5.75449, -1.00358  Q-5.75449, -0.874781 -5.75449, -0.745976  Q-5.75449, -0.612482 -5.75449, -0.478988  Q-5.75449, -0.206703 -5.75449, 0.0696247  Q-5.75449, 0.206988 -5.75449, 0.34435  Q-5.75449, 0.616914 -5.75449, 0.877412  Q-5.75449, 1.00323 -5.75449, 1.12905  Q-5.75449, 1.24776 -5.75449, 1.36648  Q-5.75449, 1.47661 -5.75449, 1.58674  Q-5.75449, 1.68689 -5.75449, 1.78704 " /><path d="M-4.87499, 2.45873 Q-4.88388, 2.45873 -4.89276, 2.44342 " /><path d="M-4.89276, 2.44342 C-4.92304, 2.39204 -4.9533, 2.20389 -4.98358, 1.90827  C-5.0423, 1.34072 -5.10101, 0.355867 -5.15972, -0.532324  C-5.19278, -1.03145 -5.22584, -1.4934 -5.2589, -1.83317  C-5.2976, -2.23343 -5.33629, -2.46069 -5.37499, -2.45873 " /><path d="M-5.37499, -2.45873 Q-5.38387, -2.45873 -5.39276, -2.44342 " /><path d="M-5.39276, -2.44342 C-5.42597, -2.3873 -5.45918, -2.16567 -5.49239, -1.81966  C-5.52629, -1.4681 -5.56018, -0.988859 -5.59409, -0.474435  C-5.64756, 0.337768 -5.70102, 1.22253 -5.75449, 1.78704 " /><path id= "16" d=" M -4.87499 2.45873 L -5.12498 2.45873 " />
<path d="M-5.12498, 2.45873 C-5.16285, 2.46054 -5.20075, 2.24304 -5.23863, 1.85797  C-5.26835, 1.55776 -5.29805, 1.15798 -5.32776, 0.71868  C-5.3898, -0.200411 -5.45183, -1.27254 -5.51387, -1.88359  C-5.54498, -2.19328 -5.5761, -2.39068 -5.60721, -2.44343 " /><path d="M-5.60721, -2.44343 Q-5.61609, -2.45873 -5.62498, -2.45873 " /><path d="M-5.62498, -2.45873 C-5.66815, -2.46173 -5.71131, -2.1762 -5.75449, -1.68857 " /><path d="M-6, 5 C-6, 4.9991 -6, 4.94171 -6, 4.82963  C-6, 4.71582 -6, 4.54755 -6, 4.33013 " /><path d="M-6, -4.33013 C-6, -4.54755 -6, -4.71582 -6, -4.82963  C-6, -4.94171 -6, -4.9991 -6, -5 " /><path d="M-6, 3.70531e-08 Q-6, -0.374236 -6, -0.745211  Q-6, -1.11435 -6, -1.47378  Q-6, -1.65024 -6, -1.82671  Q-6, -1.99806 -6, -2.16942  Q-6, -2.33471 -6, -2.5  Q-6, -2.6583 -6, -2.8166  Q-6, -2.96702 -6, -3.11745  Q-6, -3.25916 -6, -3.40086  Q-6, -3.53306 -6, -3.66526  Q-6, -3.78721 -6, -3.90916  Q-6, -4.02018 -6, -4.13119  Q-6, -4.23066 -6, -4.33013 " /><path d="M-6, 4.33013 Q-6, 4.23066 -6, 4.13119  Q-6, 4.02018 -6, 3.90916  Q-6, 3.78721 -6, 3.66526  Q-6, 3.53306 -6, 3.40086  Q-6, 3.25916 -6, 3.11745  Q-6, 2.96702 -6, 2.8166  Q-6, 2.6583 -6, 2.5  Q-6, 2.33471 -6, 2.16942  Q-6, 1.99806 -6, 1.82671  Q-6, 1.65024 -6, 1.47378  Q-6, 1.11435 -6, 0.745211  Q-6, 0.374236 -6, 3.70531e-08 " /><path d="M-3.87499, 2.45873 Q-3.88388, 2.45873 -3.89276, 2.44342 " /><path d="M-3.89276, 2.44342 C-3.92304, 2.39204 -3.95331, 2.20389 -3.98358, 1.90827  C-4.0423, 1.34069 -4.10102, 0.355775 -4.15973, -0.532448  C-4.1928, -1.03167 -4.22587, -1.49369 -4.25893, -1.83346  C-4.29762, -2.23354 -4.3363, -2.46069 -4.37499, -2.45873 " /><path d="M-4.37499, -2.45873 Q-4.38387, -2.45873 -4.39276, -2.44342 " /><path d="M-4.39276, -2.44342 C-4.42595, -2.38733 -4.45913, -2.16596 -4.49232, -1.82034  C-4.52619, -1.46929 -4.56005, -0.990781 -4.59392, -0.476987  C-4.65317, 0.423914 -4.71241, 1.40988 -4.77165, 1.95841  C-4.8061, 2.28136 -4.84055, 2.45998 -4.87499, 2.45873 " /><path id= "28" d=" M -3.87499 2.45873 L -4.12498 2.45873 " />
<path d="M-4.12498, 2.45873 C-4.16285, 2.46054 -4.20075, 2.24304 -4.23864, 1.85796  C-4.26836, 1.55768 -4.29807, 1.15778 -4.32779, 0.718347  C-4.38998, -0.203129 -4.45217, -1.27819 -4.51436, -1.88845  C-4.54531, -2.19537 -4.57626, -2.39095 -4.60721, -2.44343 " /><path d="M-4.60721, -2.44343 Q-4.6161, -2.45873 -4.62498, -2.45873 " /><path d="M-4.62498, -2.45873 C-4.66502, -2.46097 -4.70505, -2.217 -4.74509, -1.79112  C-4.77819, -1.4414 -4.81129, -0.972052 -4.84439, -0.469645  C-4.87475, -0.00923632 -4.90511, 0.476702 -4.93546, 0.912131  C-4.96663, 1.35983 -4.99781, 1.75227 -5.02898, 2.02487  C-5.05506, 2.25661 -5.08114, 2.39613 -5.10721, 2.44343 " /><path d="M-5.10721, 2.44343 Q-5.11609, 2.45873 -5.12498, 2.45873 " /><path d="M-6, 4.33013 C-5.9986, 4.78797 -5.85702, 5.24553 -5.55342, 5.7735 " /><path d="M-6, 3.70531e-08 C-5.9986, 0.915684 -5.85702, 1.83081 -5.55342, 2.88675 " /><path d="M-5.55342, 2.88675 C-5.85702, 3.41472 -5.9986, 3.87228 -6, 4.33013 " /><path d="M-6, -4.33013 C-5.9986, -3.87228 -5.85702, -3.41472 -5.55342, -2.88675 " /><path d="M-5.55342, -2.88675 C-5.85702, -1.83081 -5.9986, -0.915684 -6, 3.70531e-08 " /><path d="M-5.55342, -5.7735 C-5.85702, -5.24553 -5.9986, -4.78797 -6, -4.33013 " /><path d="M-2.87499, 2.45873 Q-2.88388, 2.45873 -2.89277, 2.44342 " /><path d="M-2.89277, 2.44342 C-2.92304, 2.39204 -2.95331, 2.20389 -2.98358, 1.90828  C-3.04231, 1.34067 -3.10103, 0.355684 -3.15974, -0.532572  C-3.19281, -1.03189 -3.22589, -1.49399 -3.25896, -1.83375  C-3.29764, -2.23366 -3.33631, -2.46069 -3.37499, -2.45873 " /><path d="M-3.37499, -2.45873 Q-3.38388, -2.45873 -3.39276, -2.44342 " /><path d="M-3.39276, -2.44342 C-3.42592, -2.38737 -3.45909, -2.1663 -3.49225, -1.82112  C-3.52605, -1.47098 -3.55984, -0.993858 -3.59364, -0.481312  C-3.65309, 0.422521 -3.71255, 1.41285 -3.772, 1.96167  C-3.80633, 2.28259 -3.84067, 2.45996 -3.87499, 2.45873 " /><path id= "43" d=" M -2.87499 2.45873 L -3.12498 2.45873 " />
<path d="M-3.12498, 2.45873 C-3.16286, 2.46054 -3.20075, 2.24304 -3.23864, 1.85796  C-3.26837, 1.5576 -3.29809, 1.15756 -3.32782, 0.717979  C-3.39011, -0.204982 -3.45239, -1.28183 -3.51468, -1.89153  C-3.54552, -2.1967 -3.57637, -2.39112 -3.60722, -2.44343 " /><path d="M-3.60722, -2.44343 Q-3.6161, -2.45873 -3.62498, -2.45873 " /><path d="M-3.62498, -2.45873 C-3.66568, -2.46112 -3.70637, -2.2087 -3.74707, -1.77005  C-3.77927, -1.42533 -3.81147, -0.968918 -3.84367, -0.480688  C-3.87443, -0.0145757 -3.90519, 0.478373 -3.93595, 0.919053  C-3.96673, 1.36061 -3.99752, 1.74795 -4.0283, 2.01884  C-4.05461, 2.25413 -4.08091, 2.39565 -4.10721, 2.44343 " /><path d="M-4.10721, 2.44343 Q-4.1161, 2.45873 -4.12498, 2.45873 " /><path d="M-1.6334, 2.88675 L-1.75405, 3.10907  L-1.85491, 3.32386  L-1.9366, 3.53245  L-1.99961, 3.73613  L-2.04435, 3.93615  L-2.07109, 4.13374  L-2.07998, 4.33013  L-2.07109, 4.52651  L-2.04435, 4.7241  L-1.99961, 4.92412  L-1.9366, 5.1278  L-1.85491, 5.33639  L-1.75405, 5.55119  L-1.6334, 5.7735 " /><path id= "49" d=" M -1.6334 2.88675 L -5.55342 2.88675 " />
<path d="M-1.6334, -2.88675 L-1.75405, -2.44212  L-1.85491, -2.01253  L-1.9366, -1.59535  L-1.99961, -1.18799  L-2.04435, -0.787949  L-2.07109, -0.392764  L-2.07998, -2.22045e-16  L-2.07109, 0.392764  L-2.04435, 0.787949  L-1.99961, 1.18799  L-1.9366, 1.59535  L-1.85491, 2.01253  L-1.75405, 2.44212  L-1.6334, 2.88675 " /><path id= "51" d=" M -1.6334 -2.88675 L -5.55342 -2.88675 " />
<path d="M-1.6334, -5.7735 L-1.75405, -5.55119  L-1.85491, -5.33639  L-1.9366, -5.1278  L-1.99961, -4.92412  L-2.04435, -4.7241  L-2.07109, -4.52651  L-2.07998, -4.33013  L-2.07109, -4.13374  L-2.04435, -3.93615  L-1.99961, -3.73613  L-1.9366, -3.53245  L-1.85491, -3.32386  L-1.75405, -3.10907  L-1.6334, -2.88675 " /><path d="M-1.875, 2.45873 Q-1.88388, 2.45873 -1.89277, 2.44342 " /><path d="M-1.89277, 2.44342 C-1.92293, 2.39222 -1.95309, 2.20528 -1.98325, 1.91149  C-2.04206, 1.34462 -2.10085, 0.358437 -2.15965, -0.531148  C-2.19273, -1.03072 -2.22582, -1.49314 -2.25891, -1.83317  C-2.29761, -2.23343 -2.3363, -2.46069 -2.37499, -2.45873 " /><path d="M-2.37499, -2.45873 Q-2.38388, -2.45873 -2.39276, -2.44342 " /><path d="M-2.39276, -2.44342 C-2.42583, -2.38752 -2.45891, -2.16752 -2.49198, -1.82394  C-2.52582, -1.47396 -2.55967, -0.996421 -2.59351, -0.48321  C-2.65347, 0.428165 -2.71342, 1.42748 -2.77337, 1.97435  C-2.80725, 2.28736 -2.84113, 2.4599 -2.87499, 2.45873 " /><path id= "57" d=" M -1.875 2.45873 L -2.12499 2.45873 " />
<path d="M-2.12499, 2.45873 C-2.16286, 2.46054 -2.20076, 2.24304 -2.23865, 1.85796  C-2.26838, 1.55752 -2.29811, 1.15734 -2.32785, 0.717626  C-2.38967, -0.198407 -2.45149, -1.26634 -2.51332, -1.87797  C-2.54462, -2.19086 -2.57592, -2.39038 -2.60722, -2.44343 " /><path d="M-2.60722, -2.44343 Q-2.6161, -2.45873 -2.62499, -2.45873 " /><path d="M-2.62499, -2.45873 C-2.66574, -2.46113 -2.70648, -2.20805 -2.74723, -1.76839  C-2.77949, -1.42263 -2.81176, -0.964808 -2.84402, -0.475369  C-2.87449, -0.0135605 -2.90495, 0.474278 -2.93541, 0.911299  C-2.96645, 1.35718 -2.9975, 1.74834 -3.02854, 2.02091  C-3.05477, 2.25498 -3.08099, 2.39582 -3.10722, 2.44343 " /><path d="M-3.10722, 2.44343 Q-3.1161, 2.45873 -3.12498, 2.45873 " /><path d="M-0.874998, 2.45873 Q-0.883883, 2.45873 -0.892769, 2.44342 " /><path d="M-0.892769, 2.44342 C-0.922933, 2.39222 -0.95309, 2.20528 -0.983255, 1.9115  C-1.04205, 1.34468 -1.10084, 0.358627 -1.15963, -0.530897  C-1.19271, -1.03028 -1.22578, -1.49255 -1.25885, -1.83258  C-1.29757, -2.2332 -1.33628, -2.46069 -1.37499, -2.45873 " /><path d="M-1.37499, -2.45873 Q-1.38388, -2.45873 -1.39276, -2.44342 " /><path d="M-1.39276, -2.44342 C-1.42598, -2.38729 -1.4592, -2.16558 -1.49241, -1.81945  C-1.52602, -1.4709 -1.55962, -0.996975 -1.59322, -0.487626  C-1.65291, 0.419302 -1.7126, 1.41468 -1.77229, 1.9643  C-1.80653, 2.28358 -1.84077, 2.45995 -1.875, 2.45873 " /><path id= "66" d=" M -0.874998 2.45873 L -1.12499 2.45873 " />
<path d="M-1.12499, 2.45873 C-1.16292, 2.46055 -1.20087, 2.24239 -1.23882, 1.85626  C-1.26772, 1.5639 -1.29661, 1.17753 -1.32551, 0.752186  C-1.38868, -0.179607 -1.45184, -1.2781 -1.51501, -1.89475  C-1.54575, -2.19808 -1.57649, -2.39129 -1.60722, -2.44343 " /><path d="M-1.60722, -2.44343 Q-1.61611, -2.45873 -1.62499, -2.45873 " /><path d="M-1.62499, -2.45873 C-1.66516, -2.461 -1.70532, -2.21537 -1.74549, -1.78697  C-1.7782, -1.4405 -1.81091, -0.977564 -1.84361, -0.481647  C-1.87464, -0.0115341 -1.90567, 0.485928 -1.93669, 0.929585  C-1.96736, 1.36866 -1.99803, 1.75334 -2.0287, 2.02228  C-2.05488, 2.25554 -2.08105, 2.39592 -2.10722, 2.44343 " /><path d="M-2.10722, 2.44343 Q-2.1161, 2.45873 -2.12499, 2.45873 " /><path d="M-5.55112e-17, 6.55 L-5.55112e-17, 6.38578  L-5.55112e-17, 5.90135  L-5.55112e-17, 5.121  L-5.55112e-17, 4.08386  L-5.55112e-17, 2.84194  L-5.55112e-17, 1.45751  L-5.55112e-17, 4.44089e-16  L-5.55112e-17, -1.45751  L-5.55112e-17, -2.84194  L-5.55112e-17, -4.08386  L-5.55112e-17, -5.121  L-5.55112e-17, -5.90135  L-5.55112e-17, -6.38578  L-5.55112e-17, -6.55 " /><path d="M-0.245513, -1.68887 C-0.288674, -2.17627 -0.331835, -2.46174 -0.374997, -2.45873 " /><path d="M-0.374997, -2.45873 Q-0.383881, -2.45873 -0.392766, -2.44342 " /><path d="M-0.392766, -2.44342 C-0.425948, -2.38734 -0.45913, -2.16605 -0.492311, -1.82053  C-0.526167, -1.46964 -0.56002, -0.991357 -0.593875, -0.477762  C-0.653575, 0.430078 -0.71327, 1.42406 -0.772967, 1.97056  C-0.806979, 2.28594 -0.840996, 2.45992 -0.874998, 2.45873 " /><path d="M-0.100481, -2.91498 Q-0.110359, -2.93001 -0.120425, -2.91266 " /><path d="M-0.120425, -2.91266 Q-0.12686, -2.90156 -0.133375, -2.87724 " /><path d="M-0.133375, -2.87724 C-0.16878, -2.74911 -0.205959, -2.30714 -0.245513, -1.68887 " /><path d="M-0.245513, 1.78687 C-0.300396, 1.20747 -0.355281, 0.290083 -0.410168, -0.538976  C-0.445013, -1.06483 -0.479854, -1.54848 -0.5147, -1.8916  C-0.545542, -2.19673 -0.576385, -2.39112 -0.607227, -2.44342 " /><path d="M-0.607227, -2.44342 Q-0.616112, -2.45873 -0.624997, -2.45873 " /><path d="M-0.624997, -2.45873 C-0.665655, -2.46111 -0.70631, -2.20919 -0.74697, -1.77128  C-0.77948, -1.4235 -0.811992, -0.961715 -0.8445, -0.468244  C-0.87499, -0.00578276 -0.905477, 0.482345 -0.935967, 0.919124  C-0.966819, 1.36169 -0.997678, 1.74977 -1.02853, 2.02075  C-1.05476, 2.25491 -1.08099, 2.3958 -1.10722, 2.44343 " /><path d="M-1.10722, 2.44343 Q-1.11611, 2.45873 -1.12499, 2.45873 " /><path d="M-0.245513, 1.78687 Q-0.245513, 1.68671 -0.245513, 1.58654  Q-0.245513, 1.4764 -0.245513, 1.36626  Q-0.245513, 1.24753 -0.245513, 1.1288  Q-0.245513, 1.00297 -0.245513, 0.877139  Q-0.245513, 0.745795 -0.245513, 0.614451  Q-0.245513, 0.345249 -0.245513, 0.0692952  Q-0.245513, -0.207045 -0.245513, -0.479335  Q-0.245513, -0.61283 -0.245513, -0.746325  Q-0.245513, -0.875128 -0.245513, -1.00393  Q-0.245513, -1.12642 -0.245513, -1.24891  Q-0.245513, -1.36355 -0.245513, -1.47819  Q-0.245513, -1.58353 -0.245513, -1.68887 " /><path d="M-0.207311, 2.60131 C-0.219778, 2.55719 -0.232505, 2.25998 -0.245513, 1.78687 " /><path d="M0, 3.375 L0, 3.29038  L0, 3.04077  L0, 2.63868  L0, 2.10428  L0, 1.46436  L0, 0.751008  L0, 2.22045e-16  L0, -0.751008  L0, -1.46436  L0, -2.10428  L0, -2.63868  L0, -3.04077  L0, -3.29038  L0, -3.375 " /><path d="M0, -3.375 L0, -3.29038  L0, -3.04077  L0, -2.63868  L0, -2.10428  L0, -1.46436  L0, -0.751008  L0, -6.66134e-16  L0, 0.751008  L0, 1.46436  L0, 2.10428  L0, 2.63868  L0, 3.04077  L0, 3.29038  L0, 3.375 " /><path d="M-0.10048, -1.55977 C-0.0953906, -1.83363 -0.0926799, -2.1174 -0.0914395, -2.34139  C-0.0900366, -2.67305 -0.0904317, -2.89576 -0.100481, -2.91498 " /><path id= "87" d=" M 0 3.375 L -0.207311 2.60131 " />
<path d="M-0.207311, 2.60131 Q-0.20466, 2.6112 -0.202024, 2.60666 " /><path d="M-0.202024, 2.60666 C-0.185831, 2.58424 -0.170063, 2.12156 -0.154665, 1.40775  C-0.136088, 0.552595 -0.118053, -0.634778 -0.10048, -1.55977 " /></g>
<g   fill="none"
   stroke="rgb(165, 165, 165)"
   stroke-dasharray="1.2,0.8"
   stroke-linecap="butt"
   stroke-linejoin="miter"
   stroke-width="0.25"
   transform="scale(1, -1)"
  >
<path id= "1" d=" M -5.86664 -2.87728 L -6 -3.375 " />
<path d="M-4.89276, 2.44342 L-4.57709, 2.98742 " /><path d="M-5.39276, -2.44342 L-5.07708, -2.98742 " /><path id= "4" d=" M -5.37499 -2.45873 L -5.62498 -2.45873 " />
<path d="M-5.60721, -2.44343 L-5.87958, -2.9127 " /><path d="M-5.57709, 2.98742 Q-5.56592, 3.00629 -5.55293, 3.01667  Q-5.52871, 3.0361 -5.5, 3.0361 " /><path d="M-5.79797, 2.60665 L-5.57709, 2.98742 " /><path d="M-4.57709, 2.98742 Q-4.56592, 3.00629 -4.55293, 3.01667  Q-4.52871, 3.0361 -4.5, 3.03609 " /><path d="M-5.07708, -2.98742 C-5.05573, -3.02493 -5.02337, -3.03633 -4.99999, -3.03609  C-4.98627, -3.03608 -4.97315, -3.03268 -4.96063, -3.0259  C-4.94658, -3.01869 -4.93401, -3.00586 -4.92292, -2.98742 " /><path d="M-5.42292, 2.98743 Q-5.43408, 3.00629 -5.44707, 3.01667  Q-5.47129, 3.0361 -5.5, 3.0361 " /><path d="M-3.89276, 2.44342 L-3.57709, 2.98742 " /><path d="M-4.39276, -2.44342 L-4.07708, -2.98742 " /><path id= "13" d=" M -4.37499 -2.45873 L -4.62498 -2.45873 " />
<path d="M-4.92292, -2.98742 L-4.60721, -2.44343 " /><path d="M-5.42292, 2.98743 L-5.10721, 2.44343 " /><path d="M-3.57709, 2.98742 Q-3.56592, 3.00629 -3.55293, 3.01667  Q-3.52871, 3.0361 -3.5, 3.03609 " /><path d="M-4.07708, -2.98742 C-4.05573, -3.02493 -4.02337, -3.03633 -3.99999, -3.03609  C-3.98627, -3.03608 -3.97315, -3.03268 -3.96063, -3.0259  C-3.94658, -3.01868 -3.93401, -3.00586 -3.92292, -2.98742 " /><path d="M-4.42292, 2.98743 Q-4.43408, 3.00629 -4.44707, 3.01667  Q-4.47129, 3.0361 -4.5, 3.03609 " /><path d="M-2.89277, 2.44342 L-2.57709, 2.98742 " /><path d="M-3.39276, -2.44342 L-3.07708, -2.98742 " /><path id= "21" d=" M -3.37499 -2.45873 L -3.62498 -2.45873 " />
<path d="M-3.92292, -2.98742 L-3.60722, -2.44343 " /><path d="M-4.42292, 2.98743 L-4.10721, 2.44343 " /><path d="M-2.57709, 2.98742 Q-2.56592, 3.00628 -2.55293, 3.01667  Q-2.52871, 3.0361 -2.5, 3.03609 " /><path d="M-3.07708, -2.98742 C-3.05573, -3.02493 -3.02337, -3.03633 -2.99999, -3.03609  C-2.98627, -3.03608 -2.97315, -3.03268 -2.96063, -3.02589  C-2.94658, -3.01868 -2.93401, -3.00586 -2.92292, -2.98742 " /><path d="M-3.42292, 2.98742 Q-3.43408, 3.00629 -3.44707, 3.01667  Q-3.47129, 3.0361 -3.5, 3.03609 " /><path d="M-1.89277, 2.44342 L-1.57709, 2.98742 " /><path d="M-2.39276, -2.44342 L-2.07708, -2.98741 " /><path id= "29" d=" M -2.37499 -2.45873 L -2.62499 -2.45873 " />
<path d="M-2.92292, -2.98742 L-2.60722, -2.44343 " /><path d="M-3.42292, 2.98742 L-3.10722, 2.44343 " /><path d="M-1.57709, 2.98742 Q-1.56592, 3.00628 -1.55293, 3.01666  Q-1.52871, 3.03609 -1.5, 3.03609 " /><path d="M-2.07708, -2.98741 C-2.05573, -3.02492 -2.02337, -3.03632 -1.99999, -3.03609  C-1.98627, -3.03608 -1.97315, -3.03268 -1.96063, -3.02589  C-1.94658, -3.01868 -1.93401, -3.00586 -1.92292, -2.98742 " /><path d="M-2.42292, 2.98742 Q-2.43408, 3.00629 -2.44707, 3.01667  Q-2.47129, 3.0361 -2.5, 3.03609 " /><path d="M-0.892769, 2.44342 L-0.577086, 2.98741 " /><path d="M-1.39276, -2.44342 L-1.07708, -2.98741 " /><path id= "37" d=" M -1.37499 -2.45873 L -1.62499 -2.45873 " />
<path d="M-1.92292, -2.98742 L-1.60722, -2.44343 " /><path d="M-2.42292, 2.98742 L-2.10722, 2.44343 " /><path d="M-0.577086, 2.98741 Q-0.565919, 3.00628 -0.552933, 3.01666  Q-0.528705, 3.03609 -0.499998, 3.03609 " /><path d="M-1.07708, -2.98741 C-1.05573, -3.02492 -1.02337, -3.03632 -0.999991, -3.03608  C-0.986268, -3.03607 -0.973146, -3.03268 -0.960626, -3.02589  C-0.946579, -3.01868 -0.934009, -3.00585 -0.922916, -2.98741 " /><path d="M-1.42292, 2.98742 Q-1.43408, 3.00628 -1.44707, 3.01667  Q-1.47129, 3.03609 -1.5, 3.03609 " /><path d="M-0.392766, -2.44342 L-0.120425, -2.91266 " /><path id= "44" d=" M -0.374997 -2.45873 L -0.624996 -2.45873 " />
<path d="M-0.922916, -2.98741 L-0.607227, -2.44342 " /><path d="M-1.42292, 2.98742 L-1.10722, 2.44343 " /><path d="M-0.422916, 2.98742 Q-0.434083, 3.00628 -0.447069, 3.01666  Q-0.471293, 3.03609 -0.499998, 3.03609 " /><path id= "48" d=" M -0.133375 -2.87724 L -3.59869e-17 -3.375 " />
<path d="M-0.422916, 2.98742 L-0.202024, 2.60666 " /></g>
<g   fill="none"
   stroke="rgb(0, 0, 0)"
   stroke-linecap="butt"
   stroke-linejoin="miter"
   stroke-width="0.35"
   transform="scale(1, -1)"
  >
<path id= "1" d=" M -6 -5 L -5.55342 -5.7735 " />
<path id= "2" d=" M -1.6334 -5.7735 L -1.02631 -6.825 " />
<path d="M-1.02631, -6.825 C-0.923372, -7.00809 -0.708608, -7.1193 -0.499674, -7.09769  C-0.396899, -7.08771 -0.303981, -7.05204 -0.220921, -6.99069  C-0.0833615, -6.88936 0.00111436, -6.72085 0, -6.55 " /></g>
<g   fill="none"
   stroke="rgb(0, 0, 0)"
   stroke-linecap="butt"
   stroke-linejoin="miter"
   stroke-width="0.35"
   transform="scale(1, -1)"
  >
<path d="M-6, 4.33013 C-6, 4.54755 -6, 4.71582 -6, 4.82963  C-6, 4.94171 -6, 4.9991 -6, 5 " /><path d="M-6, -4.58002e-08 Q-6, 0.562675 -6, 1.1126  Q-6, 1.29319 -6, 1.47378  Q-6, 1.65024 -6, 1.82671  Q-6, 1.99806 -6, 2.16942  Q-6, 2.33471 -6, 2.5  Q-6, 2.6583 -6, 2.8166  Q-6, 2.96702 -6, 3.11745  Q-6, 3.25916 -6, 3.40086  Q-6, 3.53306 -6, 3.66526  Q-6, 3.78721 -6, 3.90916  Q-6, 4.02018 -6, 4.13119  Q-6, 4.23066 -6, 4.33013 " /><path d="M-6, -4.33013 Q-6, -4.23066 -6, -4.13119  Q-6, -4.02018 -6, -3.90916  Q-6, -3.78721 -6, -3.66526  Q-6, -3.53306 -6, -3.40086  Q-6, -3.25916 -6, -3.11745  Q-6, -2.96702 -6, -2.8166  Q-6, -2.6583 -6, -2.5  Q-6, -2.33471 -6, -2.16942  Q-6, -1.99806 -6, -1.82671  Q-6, -1.65024 -6, -1.47378  Q-6, -1.29319 -6, -1.1126  Q-6, -0.562676 -6, -4.58002e-08 " /><path d="M-6, -5 C-6, -4.9991 -6, -4.94171 -6, -4.82963  C-6, -4.71582 -6, -4.54755 -6, -4.33013 " /><path id= "5" d=" M -6 5 L -5.55342 5.7735 " />
<path d="M-6, -4.33013 C-5.9986, -4.78797 -5.85702, -5.24553 -5.55342, -5.7735 " /><path d="M-5.55342, -2.88675 C-5.85702, -3.41472 -5.9986, -3.87228 -6, -4.33013 " /><path d="M-6, -4.58002e-08 C-5.9986, -0.915684 -5.85702, -1.83081 -5.55342, -2.88675 " /><path d="M-5.55342, 2.88675 C-5.85702, 1.83081 -5.9986, 0.915684 -6, -4.58002e-08 " /><path d="M-6, 4.33013 C-5.9986, 3.87228 -5.85702, 3.41472 -5.55342, 2.88675 " /><path d="M-5.55342, 5.7735 C-5.85702, 5.24553 -5.9986, 4.78797 -6, 4.33013 " /><path id= "12" d=" M -1.6334 5.7735 L -5.55342 5.7735 " />
<path id= "13" d=" M -1.6334 -5.7735 L -5.55342 -5.7735 " />
<path d="M-1.6334, -2.88675 L-1.75405, -3.10907  L-1.85491, -3.32386  L-1.9366, -3.53245  L-1.99961, -3.73613  L-2.04435, -3.93615  L-2.07109, -4.13374  L-2.07998, -4.33013  L-2.07109, -4.52651  L-2.04435, -4.7241  L-1.99961, -4.92412  L-1.9366, -5.1278  L-1.85491, -5.33639  L-1.75405, -5.55119  L-1.6334, -5.7735 " /><path id= "15" d=" M -1.6334 -2.88675 L -5.55342 -2.88675 " />
<path d="M-1.6334, 2.88675 L-1.75405, 2.44212  L-1.85491, 2.01253  L-1.9366, 1.59535  L-1.99961, 1.18799  L-2.04435, 0.787949  L-2.07109, 0.392764  L-2.07998, -1.11022e-16  L-2.07109, -0.392764  L-2.04435, -0.787949  L-1.99961, -1.18799  L-1.9366, -1.59535  L-1.85491, -2.01253  L-1.75405, -2.44212  L-1.6334, -2.88675 " /><path id= "17" d=" M -1.6334 2.88675 L -5.55342 2.88675 " />
<path d="M-1.6334, 5.7735 L-1.75405, 5.55119  L-1.85491, 5.33639  L-1.9366, 5.1278  L-1.99961, 4.92412  L-2.04435, 4.7241  L-2.07109, 4.52651  L-2.07998, 4.33013  L-2.07109, 4.13374  L-2.04435, 3.93615  L-1.99961, 3.73613  L-1.9366, 3.53245  L-1.85491, 3.32386  L-1.75405, 3.10907  L-1.6334, 2.88675 " /><path id= "19" d=" M -1.02631 6.825 L -1.6334 5.7735 " />
<path d="M-5.55112e-17, -6.55 L-5.55112e-17, -6.38578  L-5.55112e-17, -5.90135  L-5.55112e-17, -5.121  L-5.55112e-17, -4.08386  L-5.55112e-17, -2.84194  L-5.55112e-17, -1.45751  L-5.55112e-17, -1.11022e-15  L-5.55112e-17, 1.45751  L-5.55112e-17, 2.84194  L-5.55112e-17, 4.08386  L-5.55112e-17, 5.121  L-5.55112e-17, 5.90135  L-5.55112e-17, 6.38578  L-5.55112e-17, 6.55 " /><path d="M0 6.55 A0.55 0.55 0 0 1 -1.02631 6.825" /></g>

</svg>
