<svg xmlns="http://www.w3.org/2000/svg" viewBox="-7.0920000000000005 -7.917 8.184000000000001 15.834">
<rect width="100%" height="100%" fill="white"/>
<g   fill="none"
   stroke="rgb(0, 0, 0)"
   stroke-linecap="butt"
   stroke-linejoin="miter"
   stroke-width="0.35"
   transform="scale(1, -1)"
  >
<path id= "1" d=" M -6 -5 L -5.55342 -5.7735 " />
<path id= "2" d=" M -1.6334 -5.7735 L -1.02631 -6.825 " />
<path d="M-1.02631, -6.825 C-0.923372, -7.00809 -0.708608, -7.1193 -0.499674, -7.09769  C-0.396899, -7.08771 -0.303981, -7.05204 -0.220921, -6.99069  C-0.0833615, -6.88936 0.00111436, -6.72085 0, -6.55 " /></g>
<g   fill="none"
   stroke="rgb(0, 0, 0)"
   stroke-linecap="butt"
   stroke-linejoin="miter"
   stroke-width="0.35"
   transform="scale(1, -1)"
  >
<path d="M-6, 4.33013 C-6, 4.54755 -6, 4.71582 -6, 4.82963  C-6, 4.94171 -6, 4.9991 -6, 5 " /><path d="M-6, -4.58002e-08 Q-6, 0.562675 -6, 1.1126  Q-6, 1.29319 -6, 1.47378  Q-6, 1.65024 -6, 1.82671  Q-6, 1.99806 -6, 2.16942  Q-6, 2.33471 -6, 2.5  Q-6, 2.6583 -6, 2.8166  Q-6, 2.96702 -6, 3.11745  Q-6, 3.25916 -6, 3.40086  Q-6, 3.53306 -6, 3.66526  Q-6, 3.78721 -6, 3.90916  Q-6, 4.02018 -6, 4.13119  Q-6, 4.23066 -6, 4.33013 " /><path d="M-6, -4.33013 Q-6, -4.23066 -6, -4.13119  Q-6, -4.02018 -6, -3.90916  Q-6, -3.78721 -6, -3.66526  Q-6, -3.53306 -6, -3.40086  Q-6, -3.25916 -6, -3.11745  Q-6, -2.96702 -6, -2.8166  Q-6, -2.6583 -6, -2.5  Q-6, -2.33471 -6, -2.16942  Q-6, -1.99806 -6, -1.82671  Q-6, -1.65024 -6, -1.47378  Q-6, -1.29319 -6, -1.1126  Q-6, -0.562676 -6, -4.58002e-08 " /><path d="M-6, -5 C-6, -4.9991 -6, -4.94171 -6, -4.82963  C-6, -4.71582 -6, -4.54755 -6, -4.33013 " /><path id= "5" d=" M -6 5 L -5.55342 5.7735 " />
<path d="M-6, -4.33013 C-5.9986, -4.78797 -5.85702, -5.24553 -5.55342, -5.7735 " /><path d="M-5.55342, -2.88675 C-5.85702, -3.41472 -5.9986, -3.87228 -6, -4.33013 " /><path d="M-6, -4.58002e-08 C-5.9986, -0.915684 -5.85702, -1.83081 -5.55342, -2.88675 " /><path d="M-5.55342, 2.88675 C-5.85702, 1.83081 -5.9986, 0.915684 -6, -4.58002e-08 " /><path d="M-6, 4.33013 C-5.9986, 3.87228 -5.85702, 3.41472 -5.55342, 2.88675 " /><path d="M-5.55342, 5.7735 C-5.85702, 5.24553 -5.9986, 4.78797 -6, 4.33013 " /><path id= "12" d=" M -1.6334 5.7735 L -5.55342 5.7735 " />
<path id= "13" d=" M -1.6334 -5.7735 L -5.55342 -5.7735 " />
<path d="M-1.6334, -2.88675 L-1.75405, -3.10907  L-1.85491, -3.32386  L-1.9366, -3.53245  L-1.99961, -3.73613  L-2.04435, -3.93615  L-2.07109, -4.13374  L-2.07998, -4.33013  L-2.07109, -4.52651  L-2.04435, -4.7241  L-1.99961, -4.92412  L-1.9366, -5.1278  L-1.85491, -5.33639  L-1.75405, -5.55119  L-1.6334, -5.7735 " /><path id= "15" d=" M -1.6334 -2.88675 L -5.55342 -2.88675 " />
<path d="M-1.6334, 2.88675 L-1.75405, 2.44212  L-1.85491, 2.01253  L-1.9366, 1.59535  L-1.99961, 1.18799  L-2.04435, 0.787949  L-2.07109, 0.392764  L-2.07998, -1.11022e-16  L-2.07109, -0.392764  L-2.04435, -0.787949  L-1.99961, -1.18799  L-1.9366, -1.59535  L-1.85491, -2.01253  L-1.75405, -2.44212  L-1.6334, -2.88675 " /><path id= "17" d=" M -1.6334 2.88675 L -5.55342 2.88675 " />
<path d="M-1.6334, 5.7735 L-1.75405, 5.55119  L-1.85491, 5.33639  L-1.9366, 5.1278  L-1.99961, 4.92412  L-2.04435, 4.7241  L-2.07109, 4.52651  L-2.07998, 4.33013  L-2.07109, 4.13374  L-2.04435, 3.93615  L-1.99961, 3.73613  L-1.9366, 3.53245  L-1.85491, 3.32386  L-1.75405, 3.10907  L-1.6334, 2.88675 " /><path id= "19" d=" M -1.02631 6.825 L -1.6334 5.7735 " />
<path d="M-5.55112e-17, -6.55 L-5.55112e-17, -6.38578  L-5.55112e-17, -5.90135  L-5.55112e-17, -5.121  L-5.55112e-17, -4.08386  L-5.55112e-17, -2.84194  L-5.55112e-17, -1.45751  L-5.55112e-17, -1.11022e-15  L-5.55112e-17, 1.45751  L-5.55112e-17, 2.84194  L-5.55112e-17, 4.08386  L-5.55112e-17, 5.121  L-5.55112e-17, 5.90135  L-5.55112e-17, 6.38578  L-5.55112e-17, 6.55 " /><path d="M0 6.55 A0.55 0.55 0 0 1 -1.02631 6.825" /></g>

</svg>
