<svg xmlns="http://www.w3.org/2000/svg" viewBox="-6.803380000000001 -6.02988 14.93326 12.05976">
<rect width="100%" height="100%" fill="white"/>
<g   fill="none"
   stroke="rgb(165, 165, 165)"
   stroke-dasharray="1.2,0.8"
   stroke-linecap="butt"
   stroke-linejoin="miter"
   stroke-width="0.25"
   transform="scale(1, -1)"
  >
<path d="M2.45873, 5.4803e-07 C2.46025, 0.559637 2.26236, 1.11704 1.90827, 1.55044  C1.62616, 1.89867 1.24669, 2.16682 0.824247, 2.31646  C0.391852, 2.47106 -0.0841657, 2.50052 -0.532324, 2.40042  C-1.03145, 2.29081 -1.4934, 2.02026 -1.83317, 1.63856  C-2.23849, 1.18818 -2.46619, 0.583528 -2.45863, -0.0223411  C-2.45515, -0.620033 -2.22307, -1.21251 -1.81966, -1.65354  C-1.4681, -2.04216 -0.988859, -2.31255 -0.474435, -2.41253  C-0.0401316, -2.49855 0.417199, -2.4638 0.833517, -2.31314  C1.1944, -2.18346 1.5239, -1.9677 1.78704, -1.68875 " /><path d="M2.45873, 4.38424e-07 C2.46025, 0.559636 2.26236, 1.11703 1.90827, 1.55044  C1.62616, 1.89867 1.24669, 2.16682 0.824249, 2.31646  C0.391814, 2.47107 -0.0842527, 2.50052 -0.532448, 2.40039  C-1.03167, 2.29074 -1.49369, 2.02008 -1.83346, 1.63823  C-2.23962, 1.18677 -2.46729, 0.580377 -2.45859, -0.0268369  C-2.45401, -0.622678 -2.22231, -1.21294 -1.82034, -1.6528  C-1.46929, -2.04116 -0.990781, -2.31161 -0.476987, -2.41202  C-0.0431954, -2.49842 0.413707, -2.46431 0.82986, -2.31446  C1.27563, -2.15546 1.67288, -1.86406 1.95841, -1.48661  C2.28136, -1.06322 2.45998, -0.532496 2.45873, 0 " /><path d="M-2.35535, -0.705471 Q-2.23763, -1.09687 -2.00034, -1.42968 " /><path d="M-1.68857, -1.7872 C-1.35244, -2.10578 -0.924362, -2.32571 -0.469645, -2.41346  C-0.00923632, -2.50383 0.476702, -2.45805 0.912131, -2.28328  C1.24229, -2.15167 1.54311, -1.94725 1.78704, -1.68875 " /><path d="M2.45873, 3.28818e-07 C2.46025, 0.559635 2.26236, 1.11703 1.90828, 1.55044  C1.62616, 1.89866 1.24669, 2.16682 0.824252, 2.31646  C0.391776, 2.47108 -0.0843398, 2.50053 -0.532572, 2.40036  C-1.03189, 2.29066 -1.49399, 2.01989 -1.83375, 1.63791  C-2.24057, 1.18558 -2.46818, 0.577771 -2.45854, -0.030516  C-2.45307, -0.624728 -2.22178, -1.21308 -1.82112, -1.65194  C-1.47098, -2.03966 -0.993858, -2.31003 -0.481312, -2.41116  C-0.0439841, -2.4991 0.417062, -2.46444 0.836331, -2.31213  C1.28119, -2.15204 1.67726, -1.85998 1.96167, -1.4823  C2.28259, -1.05964 2.45996, -0.530681 2.45873, -1.11022e-16 " /><path d="M1.72989, 1.74724 Q1.60653, 1.86935 1.46726, 1.97295 " /><path d="M1.21877, 2.13541 L1.10977, 2.19404 " /><path d="M-2.45412, 0.150605 Q-2.46396, -0.0100106 -2.45281, -0.17052 " /><path d="M-2.19431, -1.10922 Q-2.10712, -1.28166 -1.99408, -1.4384 " /><path d="M-1.97862, -1.4596 C-1.62057, -1.94842 -1.07528, -2.29484 -0.480688, -2.41129  C-0.0145757, -2.50502 0.478373, -2.45896 0.919053, -2.28051  C1.35911, -2.10401 1.74534, -1.79662 2.01609, -1.40739 " /><path d="M2.88675, 5 C2.96086, 4.87165 3.03496, 4.74329 3.10907, 4.61494  C3.18067, 4.49093 3.25226, 4.36692 3.32386, 4.2429  C3.39339, 4.12247 3.46292, 4.00204 3.53245, 3.88161  C3.66892, 3.64524 3.80349, 3.41216 3.93615, 3.18238  C4.06811, 2.95383 4.19943, 2.72637 4.33013, 2.5  C4.52618, 2.16042 4.72313, 1.8193 4.92412, 1.47117  C4.99201, 1.35358 5.05991, 1.23598 5.1278, 1.11839  C5.19733, 0.997959 5.26686, 0.877527 5.33639, 0.757096  C5.40799, 0.633085 5.47959, 0.509074 5.55119, 0.385063  C5.62529, 0.256709 5.6994, 0.128354 5.7735, 1.54099e-13 " /><path d="M-2.88675, 5 C-2.73854, 5 -2.59033, 5 -2.44212, 5  C-2.29892, 5 -2.15573, 5 -2.01253, 5  C-1.87347, 5 -1.73441, 5 -1.59535, 5  C-1.32241, 5 -1.05327, 5 -0.787949, 5  C-0.52404, 5 -0.261391, 5 -1.11022e-16, 5  C0.392109, 5 0.785999, 5 1.18799, 5  C1.32377, 5 1.45956, 5 1.59535, 5  C1.73441, 5 1.87347, 5 2.01253, 5  C2.15573, 5 2.29892, 5 2.44212, 5  C2.59033, 5 2.73854, 5 2.88675, 5 " /><path d="M-5.7735, 1.54543e-13 C-5.6994, 0.128354 -5.62529, 0.256709 -5.55119, 0.385063  C-5.47959, 0.509074 -5.40799, 0.633085 -5.33639, 0.757096  C-5.26686, 0.877527 -5.19733, 0.997959 -5.1278, 1.11839  C-4.99133, 1.35476 -4.85676, 1.58784 -4.7241, 1.81762  C-4.59215, 2.04617 -4.46082, 2.27363 -4.33013, 2.5  C-4.13407, 2.83958 -3.93713, 3.1807 -3.73613, 3.52883  C-3.66824, 3.64642 -3.60035, 3.76402 -3.53245, 3.88161  C-3.46292, 4.00204 -3.39339, 4.12247 -3.32386, 4.2429  C-3.25226, 4.36692 -3.18067, 4.49093 -3.10907, 4.61494  C-3.03496, 4.74329 -2.96086, 4.87165 -2.88675, 5 " /><path d="M-2.88675, -5 C-2.96086, -4.87165 -3.03496, -4.74329 -3.10907, -4.61494  C-3.18067, -4.49093 -3.25226, -4.36692 -3.32386, -4.2429  C-3.39339, -4.12247 -3.46292, -4.00204 -3.53245, -3.88161  C-3.66892, -3.64524 -3.80349, -3.41216 -3.93615, -3.18238  C-4.06811, -2.95383 -4.19943, -2.72637 -4.33013, -2.5  C-4.52618, -2.16042 -4.72313, -1.8193 -4.92412, -1.47117  C-4.99201, -1.35358 -5.05991, -1.23598 -5.1278, -1.11839  C-5.19733, -0.997959 -5.26686, -0.877527 -5.33639, -0.757096  C-5.40799, -0.633085 -5.47959, -0.509074 -5.55119, -0.385063  C-5.62529, -0.256709 -5.6994, -0.128354 -5.7735, -1.53211e-13 " /><path d="M2.88675, -5 C2.73854, -5 2.59033, -5 2.44212, -5  C2.29892, -5 2.15573, -5 2.01253, -5  C1.87347, -5 1.73441, -5 1.59535, -5  C1.32241, -5 1.05327, -5 0.787949, -5  C0.52404, -5 0.261391, -5 -1.11022e-16, -5  C-0.392109, -5 -0.785999, -5 -1.18799, -5  C-1.32377, -5 -1.45956, -5 -1.59535, -5  C-1.73441, -5 -1.87347, -5 -2.01253, -5  C-2.15573, -5 -2.29892, -5 -2.44212, -5  C-2.59033, -5 -2.73854, -5 -2.88675, -5 " /><path d="M5.7735, -1.54543e-13 C5.6994, -0.128354 5.62529, -0.256709 5.55119, -0.385063  C5.47959, -0.509074 5.40799, -0.633085 5.33639, -0.757096  C5.26686, -0.877527 5.19733, -0.997959 5.1278, -1.11839  C4.99133, -1.35476 4.85676, -1.58784 4.7241, -1.81762  C4.59215, -2.04617 4.46082, -2.27363 4.33013, -2.5  C4.13407, -2.83958 3.93713, -3.1807 3.73613, -3.52883  C3.66824, -3.64642 3.60035, -3.76402 3.53245, -3.88161  C3.46292, -4.00204 3.39339, -4.12247 3.32386, -4.2429  C3.25226, -4.36692 3.18067, -4.49093 3.10907, -4.61494  C3.03496, -4.74329 2.96086, -4.87165 2.88675, -5 " /><path d="M2.45873, 2.19212e-07 C2.46023, 0.557927 2.26358, 1.11365 1.91149, 1.54647  C1.62795, 1.89798 1.24534, 2.16833 0.819323, 2.31821  C0.388621, 2.47116 -0.0850345, 2.50008 -0.531148, 2.40068  C-1.03072, 2.29124 -1.49314, 2.02057 -1.83317, 1.63856  C-2.23792, 1.1888 -2.46557, 0.585226 -2.45865, -0.0197984  C-2.45578, -0.61621 -2.22533, -1.20768 -1.82394, -1.64882  C-1.47396, -2.03771 -0.996421, -2.3091 -0.48321, -2.41078  C-0.0460717, -2.49904 0.414869, -2.46479 0.834165, -2.31291  C1.28656, -2.15063 1.68858, -1.8518 1.97435, -1.46537  C2.28736, -1.0456 2.4599, -0.523608 2.45873, 2.19212e-07 " /><path d="M2.45873, 3.28821e-07 C2.46054, 0.585842 2.24304, 1.16886 1.85796, 1.61039  C1.55752, 1.95809 1.15734, 2.21823 0.717626, 2.35168  C0.309475, 2.47677 -0.13141, 2.49257 -0.547469, 2.39701  C-1.06313, 2.28048 -1.53766, 1.99158 -1.87797, 1.58702  C-2.2666, 1.13019 -2.47728, 0.527156 -2.45767, -0.0722994  C-2.4419, -0.678184 -2.19096, -1.27378 -1.76839, -1.70827  C-1.42263, -2.06758 -0.964808, -2.31688 -0.475369, -2.41234  C-0.0135605, -2.50413 0.474278, -2.45884 0.911299, -2.28362  C1.35718, -2.10657 1.74834, -1.79525 2.02091, -1.40046  C2.30473, -0.992569 2.45968, -0.496909 2.45873, 3.33067e-16 " /><path d="M2.45873, 2.19212e-07 C2.46023, 0.557923 2.26359, 1.11364 1.9115, 1.54646  C1.62796, 1.89797 1.24536, 2.16832 0.819345, 2.3182  C0.388718, 2.47113 -0.0848495, 2.50007 -0.530897, 2.40073  C-1.03028, 2.29139 -1.49255, 2.02094 -1.83258, 1.63921  C-2.24166, 1.18507 -2.46985, 0.573823 -2.45845, -0.0372934  C-2.45135, -0.63005 -2.21957, -1.21638 -1.81945, -1.65378  C-1.4709, -2.03892 -0.996975, -2.30798 -0.487626, -2.40989  C-0.0484849, -2.4994 0.414918, -2.46519 0.836158, -2.31219  C1.28246, -2.15163 1.67966, -1.85822 1.9643, -1.47882  C2.28358, -1.05674 2.45995, -0.529224 2.45873, 1.10063e-07 " /><path d="M2.45873, 2.19213e-07 C2.46093, 0.616171 2.21948, 1.22872 1.79744, 1.67768  C1.5131, 1.98301 1.14955, 2.21367 0.752186, 2.34085  C0.336303, 2.47509 -0.115568, 2.49516 -0.541714, 2.39832  C-1.06813, 2.28075 -1.55201, 1.98343 -1.89475, 1.56694  C-2.27064, 1.11528 -2.47464, 0.525193 -2.45795, -0.0621943  C-2.44474, -0.66251 -2.20085, -1.25377 -1.78697, -1.68881  C-1.4405, -2.05691 -0.977564, -2.31307 -0.481647, -2.4111  C-0.0115341, -2.50585 0.485928, -2.45831 0.929585, -2.27623  C1.36866, -2.09777 1.75334, -1.78876 2.02228, -1.39849  C2.30524, -0.990978 2.45968, -0.496108 2.45873, 2.19213e-07 " /><path d="M-1.68887, 1.78692 C-2.18567, 1.32182 -2.47214, 0.64263 -2.45844, -0.0378301  C-2.45121, -0.629866 -2.21987, -1.21545 -1.82053, -1.65259  C-1.46964, -2.04087 -0.991357, -2.31132 -0.477762, -2.41187  C-0.0441329, -2.49838 0.412632, -2.46446 0.828729, -2.31486  C1.28133, -2.15371 1.68391, -1.856 1.97056, -1.47046  C2.28594, -1.04981 2.45992, -0.525735 2.45873, -1.33227e-15 " /><path d="M-2.91498, -0.709155 C-2.95201, -0.183925 -2.84388, 0.346583 -2.60276, 0.801934  C-2.38907, 1.20829 -2.07012, 1.55337 -1.68887, 1.78692 " /><path d="M1.78687, 1.68892 L1.76705, 1.70965 " /><path d="M1.24068, 2.12275 C0.710532, 2.43514 0.060917, 2.53595 -0.538976, 2.39893  C-1.06483, 2.28212 -1.54848, 1.98599 -1.8916, 1.57074  C-2.27135, 1.11636 -2.47665, 0.521034 -2.45771, -0.070834  C-2.44232, -0.675823 -2.19248, -1.27071 -1.77128, -1.70527  C-1.4235, -2.06794 -0.961715, -2.31902 -0.468244, -2.41374  C-0.00578276, -2.50423 0.482345, -2.45735 0.919124, -2.28048  C1.36169, -2.10298 1.74977, -1.79305 2.02075, -1.40069  C2.30467, -0.992758 2.45968, -0.497004 2.45873, 1.10064e-07 " /><path d="M1.78687 1.68892 A2.45873 2.45873 0 0 1 -1.68887 1.78692" /><path d="M2.60131, -1.22125e-15 C2.55719, 0.64369 2.25998, 1.26254 1.78687, 1.68892 " /><circle cx ="0" cy ="0" r ="3.375" /><path d="M-1.55977, -2.56264 C-1.9307, -2.37063 -2.3075, -2.03214 -2.55512, -1.63987 " /><path d="M-2.55512, -1.63987 C-2.61517, -1.54616 -2.6685, -1.45076 -2.71511, -1.35368  C-2.7955, -1.18721 -2.85488, -1.01518 -2.88787, -0.87156  C-2.90304, -0.804839 -2.91207, -0.750704 -2.91498, -0.709155 " /><path d="M2.60131, -1.11022e-16 C2.63497, -0.457396 2.54432, -0.924812 2.34257, -1.34087  C2.13458, -1.77257 1.80806, -2.14795 1.40775, -2.41782  C0.99075, -2.70051 0.494777, -2.8676 -0.0115899, -2.89779  C-0.543598, -2.93095 -1.08531, -2.81298 -1.55977, -2.56264 " /></g>
<g   fill="none"
   stroke="rgb(165, 165, 165)"
   stroke-dasharray="1.2,0.8"
   stroke-linecap="butt"
   stroke-linejoin="miter"
   stroke-width="0.25"
   transform="scale(1, -1)"
  >
<path d="M3.0361, -4.38492e-08 C3.03881, 0.760179 2.74122, 1.51587 2.22094, 2.07009  C1.8372, 2.48303 1.33588, 2.78499 0.791433, 2.93113  C0.0373831, 3.13785 -0.794716, 3.03577 -1.47645, 2.65292  C-1.91222, 2.41099 -2.28641, 2.05956 -2.55518, 1.63981 " /><path d="M3.03609, -3.65401e-08 C3.03872, 0.753666 2.74639, 1.50303 2.23414, 2.05586  C1.84452, 2.48059 1.33117, 2.78991 0.7736, 2.93591  C-0.0354868, 3.15312 -0.931344, 3.01265 -1.6351, 2.55819  C-2.27086, 2.15492 -2.74452, 1.506 -2.93485, 0.777586  C-3.11389, 0.109062 -3.0535, -0.619982 -2.76687, -1.24992  C-2.44508, -1.96982 -1.83006, -2.55135 -1.09332, -2.83244  C-0.429974, -3.09069 0.324608, -3.10353 0.996343, -2.86797  C1.51459, -2.68871 1.98186, -2.36545 2.33236, -1.94371  C2.78441, -1.40438 3.0381, -0.703724 3.0361, -4.38492e-08 " /><path d="M3.03609, -2.92313e-08 C3.03871, 0.753666 2.74639, 1.50303 2.23414, 2.05586  C1.84452, 2.48059 1.33117, 2.78991 0.773596, 2.93591  C-0.0355072, 3.15313 -0.931383, 3.01264 -1.63515, 2.55816  C-2.26972, 2.15561 -2.74284, 1.50833 -2.9338, 0.781521  C-3.11587, 0.105553 -3.0528, -0.632622 -2.7587, -1.2679  C-2.45011, -1.94522 -1.88216, -2.49888 -1.19721, -2.79011  C-0.500262, -3.09205 0.310759, -3.11681 1.02481, -2.85791  C1.60935, -2.64981 2.12688, -2.25543 2.48289, -1.74736  C2.84097, -1.24076 3.03752, -0.620475 3.03609, -3.65401e-08 " /><path d="M3.03609, -2.19229e-08 C3.03871, 0.753665 2.74638, 1.50302 2.23414, 2.05586  C1.84452, 2.48059 1.33117, 2.78991 0.773596, 2.93591  C-0.0355147, 3.15313 -0.931399, 3.01264 -1.63516, 2.55814  C-2.26918, 2.15593 -2.74204, 1.50944 -2.9333, 0.78339  C-3.1158, 0.107538 -3.0532, -0.630676 -2.75951, -1.26615  C-2.43987, -1.9696 -1.83992, -2.53909 -1.12079, -2.82167  C-0.450137, -3.09041 0.316947, -3.1069 0.998519, -2.86721  C1.53011, -2.68295 2.00777, -2.34697 2.36088, -1.90896  C2.79531, -1.37459 3.03794, -0.688681 3.03609, -2.92313e-08 " /><path d="M3.03609, -1.46149e-08 C3.03871, 0.753665 2.74638, 1.50302 2.23414, 2.05585  C1.84452, 2.48059 1.33117, 2.7899 0.773592, 2.9359  C-0.0355309, 3.15313 -0.93143, 3.01263 -1.6352, 2.55812  C-2.29513, 2.13984 -2.77946, 1.45639 -2.95546, 0.69515  C-3.11, 0.045127 -3.04055, -0.655142 -2.76133, -1.26214  C-2.4465, -1.95747 -1.85818, -2.52275 -1.15082, -2.80953  C-0.456671, -3.09664 0.344582, -3.11111 1.04864, -2.84924  C1.62745, -2.63769 2.13867, -2.24304 2.49016, -1.73697  C2.84368, -1.23232 3.03748, -0.616247 3.03609, -2.19229e-08 " /><path d="M3.03609, -7.30724e-09 C3.03871, 0.753664 2.74638, 1.50302 2.23414, 2.05585  C1.84452, 2.48059 1.33117, 2.7899 0.773598, 2.9359  C-0.0354956, 3.15312 -0.931361, 3.01264 -1.63512, 2.55817  C-2.27032, 2.15524 -2.74372, 1.5071 -2.93435, 0.779448  C-3.11505, 0.106576 -3.053, -0.627755 -2.76196, -1.26077  C-2.43901, -1.97552 -1.82665, -2.55241 -1.09393, -2.83219  C-0.426137, -3.09239 0.334187, -3.10368 1.00939, -2.86338  C1.59762, -2.65756 2.11924, -2.26338 2.47817, -1.75404  C2.8392, -1.2462 3.03754, -0.623193 3.03609, -1.46149e-08 " /><path d="M-2.55512, -1.63987 C-2.10607, -2.34681 -1.35135, -2.849 -0.525896, -2.99019  C-0.00322935, -3.08279 0.543447, -3.03451 1.0418, -2.85175  C1.54511, -2.66861 1.99773, -2.34903 2.33873, -1.93602  C2.78685, -1.39777 3.03806, -0.70038 3.03609, -7.30726e-09 " /></g>
<g   fill="none"
   stroke="rgb(0, 0, 0)"
   stroke-linecap="butt"
   stroke-linejoin="miter"
   stroke-width="0.35"
   transform="scale(1, -1)"
  >
<path d="M7.1, 0 C7.10072, -1.00367 6.88461, -2.00731 6.47097, -2.92176  C6.05858, -3.83676 5.44865, -4.66258 4.69531, -5.32579  C3.97073, -5.96541 3.11339, -6.4544 2.19402, -6.75251  C1.27502, -7.05173 0.293993, -7.16006 -0.668169, -7.06849  C-1.63045, -6.97814 -2.5738, -6.68791 -3.42045, -6.22178  C-4.26768, -5.75669 -5.01821, -5.11571 -5.6101, -4.35164  C-6.27157, -3.50044 -6.73479, -2.49554 -6.95249, -1.43979  C-7.17198, -0.384414 -7.14596, 0.721805 -6.87694, 1.7657  C-6.60978, 2.81007 -6.09966, 3.79199 -5.39889, 4.61109  C-4.6995, 5.43136 -3.80947, 6.08881 -2.81975, 6.51606  C-1.83079, 6.94506 -0.742263, 7.14382 0.334456, 7.09213  C1.41126, 7.04226 2.47626, 6.74195 3.42045, 6.22178  C4.5288, 5.61457 5.46951, 4.70278 6.11129, 3.61421  C6.75603, 2.52738 7.10185, 1.26378 7.1, 0 " /></g>
<g   fill="none"
   stroke="rgb(0, 0, 0)"
   stroke-linecap="butt"
   stroke-linejoin="miter"
   stroke-width="0.35"
   transform="scale(1, -1)"
  >
<path d="M2.60129, -6.66134e-16 C2.55718, -0.643603 2.26004, -1.26237 1.78704, -1.68875 " /><circle cx ="0" cy ="0" r ="3.375" /><path d="M2.60129, 4.84428e-07 C2.63523, 0.460779 2.54295, 0.93171 2.33809, 1.35009  C2.12994, 1.77791 1.80523, 2.14982 1.4078, 2.41778  C0.990828, 2.70047 0.494875, 2.86758 -0.011478, 2.89778  C-0.543538, 2.93097 -1.08531, 2.813 -1.55982, 2.56262 " /><path d="M-2.91501, 0.709091 C-2.9126, 0.743757 -2.90574, 0.78805 -2.89445, 0.84197  C-2.84606, 1.07403 -2.72613, 1.37676 -2.55518, 1.63981 " /><path d="M-2.55518, 1.63981 C-2.30755, 2.03211 -1.93074, 2.3706 -1.55982, 2.56262 " /><path d="M-1.68857, -1.7872 C-2.06992, -1.55367 -2.38897, -1.20856 -2.60271, -0.802134  C-2.84388, -0.346751 -2.95204, 0.183809 -2.91501, 0.709091 " /><path d="M-1.68857 -1.7872 A2.45873 2.45873 0 0 1 1.78704 -1.68875" /><path d="M2.45873, 6.57647e-07 C2.46054, 0.585842 2.24304, 1.16886 1.85797, 1.61038  C1.55776, 1.95781 1.15798, 2.21781 0.71868, 2.35136  C0.310768, 2.47658 -0.129897, 2.49262 -0.545834, 2.39738  C-1.06497, 2.28046 -1.54251, 1.9888 -1.88359, 1.58034  C-2.27094, 1.12175 -2.47948, 0.517323 -2.45735, -0.0825603  C-2.43839, -0.722579 -2.15573, -1.34932 -1.68857, -1.7872 " /><path d="M5 0 A5 5 0 0 1 4.33013 2.5" /><path d="M4.33013 -2.5 A5 5 0 0 1 5 -1.22465e-15" /><path d="M-4.58002e-08 -5 A5 5 0 0 1 4.33013 -2.5" /><path d="M-4.33013 -2.5 A5 5 0 0 1 -4.58002e-08 -5" /><path d="M-4.33013 2.5 A5 5 0 0 1 -4.33013 -2.5" /><path d="M3.70531e-08 5 A5 5 0 0 1 -4.33013 2.5" /><path d="M4.33013 2.5 A5 5 0 0 1 3.70531e-08 5" /><path d="M2.45873, 5.48038e-07 C2.46054, 0.585842 2.24304, 1.16886 1.85796, 1.61039  C1.55768, 1.9579 1.15778, 2.21794 0.718347, 2.35146  C0.31036, 2.47664 -0.130376, 2.4926 -0.546352, 2.39726  C-1.06776, 2.27973 -1.54714, 1.98586 -1.88845, 1.57453  C-2.27258, 1.11685 -2.47921, 0.515254 -2.45737, -0.081868  C-2.45018, -0.294115 -2.41618, -0.501983 -2.35535, -0.705471 " /><path d="M-2.00034, -1.42968 Q-1.86173, -1.62353 -1.68857, -1.7872 " /><path d="M1.78704, -1.68875 C2.21542, -1.23873 2.46099, -0.621261 2.45873, 0 " /><path d="M4.33013, 2.5 C4.78797, 1.70699 5.24553, 0.914468 5.7735, 3.84547e-13 " /><path d="M3.70531e-08, 5 C0.915684, 5 1.83081, 5 2.88675, 5 " /><path d="M2.88675, 5 C3.41472, 4.08553 3.87228, 3.29301 4.33013, 2.5 " /><path d="M-4.33013, 2.5 C-3.87228, 3.29301 -3.41472, 4.08553 -2.88675, 5 " /><path d="M-2.88675, 5 C-1.83081, 5 -0.915684, 5 3.70531e-08, 5 " /><path d="M-4.33013, -2.5 C-4.78797, -1.70699 -5.24553, -0.914468 -5.7735, -3.83693e-13 " /><path d="M-5.7735, 3.87045e-13 C-5.24553, 0.914468 -4.78797, 1.70699 -4.33013, 2.5 " /><path d="M-2.88675, -5 C-3.41472, -4.08553 -3.87228, -3.29301 -4.33013, -2.5 " /><path d="M-4.58002e-08, -5 C-0.915684, -5 -1.83081, -5 -2.88675, -5 " /><path d="M2.88675, -5 C1.83081, -5 0.915684, -5 -4.58002e-08, -5 " /><path d="M4.33013, -2.5 C3.87228, -3.29301 3.41472, -4.08553 2.88675, -5 " /><path d="M5.7735, -3.85914e-13 C5.24553, -0.914468 4.78797, -1.70699 4.33013, -2.5 " /><path d="M2.45873, 4.38429e-07 C2.46141, 0.648698 2.19277, 1.29272 1.72989, 1.74724 " /><path d="M1.46726, 1.97295 Q1.34792, 2.06169 1.21877, 2.13541 " /><path d="M1.10977, 2.19404 C0.603548, 2.45188 0.00661271, 2.52507 -0.546923, 2.39713  C-1.06969, 2.27917 -1.55013, 1.98392 -1.89153, 1.57083  C-2.22337, 1.17298 -2.4235, 0.66779 -2.45412, 0.150605 " /><path d="M-2.45281, -0.17052 C-2.43033, -0.496492 -2.34187, -0.817719 -2.19431, -1.10922 " /><path d="M-1.99408, -1.4384 L-1.97862, -1.4596 " /><path d="M2.01609, -1.40739 C2.30294, -0.998173 2.45971, -0.499729 2.45873, 8.88178e-16 " /><path d="M1.76705, 1.70965 Q1.5321, 1.95217 1.24068, 2.12275 " /></g>

</svg>
