<svg xmlns="http://www.w3.org/2000/svg" viewBox="-6.803380000000001 -6.02988 14.93326 12.05976">
<rect width="100%" height="100%" fill="white"/>
<g   fill="none"
   stroke="rgb(0, 0, 0)"
   stroke-linecap="butt"
   stroke-linejoin="miter"
   stroke-width="0.35"
   transform="scale(1, -1)"
  >
<path d="M7.1, 0 C7.10072, -1.00367 6.88461, -2.00731 6.47097, -2.92176  C6.05858, -3.83676 5.44865, -4.66258 4.69531, -5.32579  C3.97073, -5.96541 3.11339, -6.4544 2.19402, -6.75251  C1.27502, -7.05173 0.293993, -7.16006 -0.668169, -7.06849  C-1.63045, -6.97814 -2.5738, -6.68791 -3.42045, -6.22178  C-4.26768, -5.75669 -5.01821, -5.11571 -5.6101, -4.35164  C-6.27157, -3.50044 -6.73479, -2.49554 -6.95249, -1.43979  C-7.17198, -0.384414 -7.14596, 0.721805 -6.87694, 1.7657  C-6.60978, 2.81007 -6.09966, 3.79199 -5.39889, 4.61109  C-4.6995, 5.43136 -3.80947, 6.08881 -2.81975, 6.51606  C-1.83079, 6.94506 -0.742263, 7.14382 0.334456, 7.09213  C1.41126, 7.04226 2.47626, 6.74195 3.42045, 6.22178  C4.5288, 5.61457 5.46951, 4.70278 6.11129, 3.61421  C6.75603, 2.52738 7.10185, 1.26378 7.1, 0 " /></g>
<g   fill="none"
   stroke="rgb(0, 0, 0)"
   stroke-linecap="butt"
   stroke-linejoin="miter"
   stroke-width="0.35"
   transform="scale(1, -1)"
  >
<path d="M2.60129, -6.66134e-16 C2.55718, -0.643603 2.26004, -1.26237 1.78704, -1.68875 " /><circle cx ="0" cy ="0" r ="3.375" /><path d="M2.60129, 4.84428e-07 C2.63523, 0.460779 2.54295, 0.93171 2.33809, 1.35009  C2.12994, 1.77791 1.80523, 2.14982 1.4078, 2.41778  C0.990828, 2.70047 0.494875, 2.86758 -0.011478, 2.89778  C-0.543538, 2.93097 -1.08531, 2.813 -1.55982, 2.56262 " /><path d="M-2.91501, 0.709091 C-2.9126, 0.743757 -2.90574, 0.78805 -2.89445, 0.84197  C-2.84606, 1.07403 -2.72613, 1.37676 -2.55518, 1.63981 " /><path d="M-2.55518, 1.63981 C-2.30755, 2.03211 -1.93074, 2.3706 -1.55982, 2.56262 " /><path d="M-1.68857, -1.7872 C-2.06992, -1.55367 -2.38897, -1.20856 -2.60271, -0.802134  C-2.84388, -0.346751 -2.95204, 0.183809 -2.91501, 0.709091 " /><path d="M-1.68857 -1.7872 A2.45873 2.45873 0 0 1 1.78704 -1.68875" /><path d="M2.45873, 6.57647e-07 C2.46054, 0.585842 2.24304, 1.16886 1.85797, 1.61038  C1.55776, 1.95781 1.15798, 2.21781 0.71868, 2.35136  C0.310768, 2.47658 -0.129897, 2.49262 -0.545834, 2.39738  C-1.06497, 2.28046 -1.54251, 1.9888 -1.88359, 1.58034  C-2.27094, 1.12175 -2.47948, 0.517323 -2.45735, -0.0825603  C-2.43839, -0.722579 -2.15573, -1.34932 -1.68857, -1.7872 " /><path d="M5 0 A5 5 0 0 1 4.33013 2.5" /><path d="M4.33013 -2.5 A5 5 0 0 1 5 -1.22465e-15" /><path d="M-4.58002e-08 -5 A5 5 0 0 1 4.33013 -2.5" /><path d="M-4.33013 -2.5 A5 5 0 0 1 -4.58002e-08 -5" /><path d="M-4.33013 2.5 A5 5 0 0 1 -4.33013 -2.5" /><path d="M3.70531e-08 5 A5 5 0 0 1 -4.33013 2.5" /><path d="M4.33013 2.5 A5 5 0 0 1 3.70531e-08 5" /><path d="M2.45873, 5.48038e-07 C2.46054, 0.585842 2.24304, 1.16886 1.85796, 1.61039  C1.55768, 1.9579 1.15778, 2.21794 0.718347, 2.35146  C0.31036, 2.47664 -0.130376, 2.4926 -0.546352, 2.39726  C-1.06776, 2.27973 -1.54714, 1.98586 -1.88845, 1.57453  C-2.27258, 1.11685 -2.47921, 0.515254 -2.45737, -0.081868  C-2.45018, -0.294115 -2.41618, -0.501983 -2.35535, -0.705471 " /><path d="M-2.00034, -1.42968 Q-1.86173, -1.62353 -1.68857, -1.7872 " /><path d="M1.78704, -1.68875 C2.21542, -1.23873 2.46099, -0.621261 2.45873, 0 " /><path d="M4.33013, 2.5 C4.78797, 1.70699 5.24553, 0.914468 5.7735, 3.84547e-13 " /><path d="M3.70531e-08, 5 C0.915684, 5 1.83081, 5 2.88675, 5 " /><path d="M2.88675, 5 C3.41472, 4.08553 3.87228, 3.29301 4.33013, 2.5 " /><path d="M-4.33013, 2.5 C-3.87228, 3.29301 -3.41472, 4.08553 -2.88675, 5 " /><path d="M-2.88675, 5 C-1.83081, 5 -0.915684, 5 3.70531e-08, 5 " /><path d="M-4.33013, -2.5 C-4.78797, -1.70699 -5.24553, -0.914468 -5.7735, -3.83693e-13 " /><path d="M-5.7735, 3.87045e-13 C-5.24553, 0.914468 -4.78797, 1.70699 -4.33013, 2.5 " /><path d="M-2.88675, -5 C-3.41472, -4.08553 -3.87228, -3.29301 -4.33013, -2.5 " /><path d="M-4.58002e-08, -5 C-0.915684, -5 -1.83081, -5 -2.88675, -5 " /><path d="M2.88675, -5 C1.83081, -5 0.915684, -5 -4.58002e-08, -5 " /><path d="M4.33013, -2.5 C3.87228, -3.29301 3.41472, -4.08553 2.88675, -5 " /><path d="M5.7735, -3.85914e-13 C5.24553, -0.914468 4.78797, -1.70699 4.33013, -2.5 " /><path d="M2.45873, 4.38429e-07 C2.46141, 0.648698 2.19277, 1.29272 1.72989, 1.74724 " /><path d="M1.46726, 1.97295 Q1.34792, 2.06169 1.21877, 2.13541 " /><path d="M1.10977, 2.19404 C0.603548, 2.45188 0.00661271, 2.52507 -0.546923, 2.39713  C-1.06969, 2.27917 -1.55013, 1.98392 -1.89153, 1.57083  C-2.22337, 1.17298 -2.4235, 0.66779 -2.45412, 0.150605 " /><path d="M-2.45281, -0.17052 C-2.43033, -0.496492 -2.34187, -0.817719 -2.19431, -1.10922 " /><path d="M-1.99408, -1.4384 L-1.97862, -1.4596 " /><path d="M2.01609, -1.40739 C2.30294, -0.998173 2.45971, -0.499729 2.45873, 8.88178e-16 " /><path d="M1.76705, 1.70965 Q1.5321, 1.95217 1.24068, 2.12275 " /></g>

</svg>
