<svg xmlns="http://www.w3.org/2000/svg" viewBox="-6.229857999999999 -6.229857999999999 14.371065999999999 12.459715999999998">
<rect width="100%" height="100%" fill="white"/>
<g   fill="none"
   stroke="rgb(0, 0, 0)"
   stroke-linecap="butt"
   stroke-linejoin="miter"
   stroke-width="0.35"
   transform="scale(1, -1)"
  >
<path d="M7.1501, 0 C7.15107, 1.08561 6.8994, 2.17115 6.421, 3.14561  C5.94424, 4.12088 5.24074, 4.98508 4.38235, 5.64969  C3.58413, 6.26976 2.65212, 6.71727 1.66916, 6.95255  C0.686517, 7.18917 -0.347077, 7.21356 -1.3398, 7.02345  C-2.36957, 6.82786 -3.35523, 6.40129 -4.20273, 5.78456  C-5.05117, 5.16912 -5.76145, 4.36352 -6.26568, 3.44459  C-6.78952, 2.49373 -7.09195, 1.42122 -7.14217, 0.336816  C-7.19422, -0.747501 -6.99407, -1.84371 -6.56204, -2.83965  C-6.13178, -3.83635 -5.46969, -4.73266 -4.64363, -5.43699  C-3.81875, -6.1427 -2.8299, -6.65642 -1.77816, -6.92547  C-0.726899, -7.19638 0.387127, -7.22259 1.44995, -7.00155  C2.51315, -6.78231 3.52514, -6.31583 4.38235, -5.64969  C5.24074, -4.98508 5.94424, -4.12088 6.421, -3.14561  C6.8994, -2.17115 7.15107, -1.08561 7.1501, -2.22045e-16 " /></g>
<g   fill="none"
   stroke="rgb(0, 0, 0)"
   stroke-linecap="butt"
   stroke-linejoin="miter"
   stroke-width="0.35"
   transform="scale(1, -1)"
  >
<circle cx ="0" cy ="0" r ="5.23875" /><path d="M-2.30282 2.82014e-16 A2.30282 2.30282 0 0 1 2.30282 -5.64027e-16" /><path d="M2.30282 0 A2.30282 2.30282 0 0 1 -2.30282 2.82014e-16" /><path d="M1.14568, 1.98438 C0.308734, 1.98438 -0.308734, 1.98437 -1.14568, 1.98438 " /><path d="M-1.14568, 1.98438 C-1.56415, 1.25956 -1.87289, 0.724816 -2.29136, 9.38138e-14 " /><path d="M-2.29136, -9.45916e-14 C-1.87289, -0.724816 -1.56415, -1.25956 -1.14568, -1.98438 " /><path d="M-1.14568, -1.98438 C-0.308734, -1.98437 0.308734, -1.98438 1.14568, -1.98437 " /><path d="M1.14568, -1.98438 C1.56415, -1.25956 1.87289, -0.724816 2.29136, -9.4702e-14 " /><path d="M2.29136, 9.42579e-14 C1.87289, 0.724816 1.56415, 1.25956 1.14568, 1.98438 " /><circle cx ="0" cy ="0" r ="0.3175" /></g>

</svg>
