<svg xmlns="http://www.w3.org/2000/svg" viewBox="-4.804136 -7.201606 22.172472 19.045641999999997">
<rect width="100%" height="100%" fill="white"/>
<g   fill="none"
   stroke="rgb(0, 0, 0)"
   stroke-linecap="butt"
   stroke-linejoin="miter"
   stroke-width="0.35"
   transform="scale(1, -1)"
  >
<path id= "1" d=" M 14.1421 -10.1246 L 13.8125 -10.3149 " />
<path id= "2" d=" M 15.1903 -5.30604 L 15.1019 -5.25501 " />
<path id= "3" d=" M 11.8368 -10.2981 L 11.7484 -10.247 " />
<path id= "4" d=" M 14.4832 -4.89779 L 14.3948 -4.84676 " />
<path id= "5" d=" M 11.1297 -9.88982 L 11.0413 -9.83879 " />
<path id= "6" d=" M 13.7761 -4.48954 L 13.6877 -4.43851 " />
<path id= "7" d=" M 10.4226 -9.48157 L 10.3342 -9.43054 " />
<path id= "8" d=" M 13.069 -4.0813 L 12.9806 -4.03026 " />
<path id= "9" d=" M 9.71546 -9.07333 L 9.62706 -9.02229 " />
<path id= "10" d=" M 12.3619 -3.67305 L 12.2735 -3.62201 " />
<path id= "11" d=" M 9.00835 -8.66508 L 8.91995 -8.61404 " />
<path id= "12" d=" M 11.6548 -3.2648 L 11.5664 -3.21376 " />
<path id= "13" d=" M 8.30125 -8.25683 L 8.21284 -8.20579 " />
<path id= "14" d=" M 10.9477 -2.85655 L 10.8593 -2.80551 " />
<path id= "15" d=" M 7.59414 -7.84858 L 7.50573 -7.79754 " />
<path id= "16" d=" M 10.2406 -2.4483 L 10.1522 -2.39726 " />
<path id= "17" d=" M 6.88703 -7.44033 L 6.79863 -7.38929 " />
<path id= "18" d=" M 9.53348 -2.04006 L 9.44507 -1.98901 " />
<path id= "19" d=" M 6.17993 -7.03208 L 6.09152 -6.98104 " />
<path id= "20" d=" M 8.82637 -1.63181 L 8.73797 -1.58077 " />
<path id= "21" d=" M 5.47282 -6.62384 L 5.38441 -6.57279 " />
<path id= "22" d=" M 8.11927 -1.22356 L 8.03086 -1.17252 " />
<path id= "23" d=" M 4.76571 -6.21559 L 4.6773 -6.16454 " />
<path id= "24" d=" M 7.41216 -0.815311 L 7.32375 -0.764267 " />
<path id= "25" d=" M 4.05861 -5.80734 L 3.97019 -5.75629 " />
<path id= "26" d=" M 6.70505 -0.407063 L 6.61664 -0.356017 " />
<path id= "27" d=" M 3.3515 -5.39909 L 3.26308 -5.34804 " />
<path id= "28" d=" M 5.99795 0.0011854 L 5.90953 0.0522319 " />
<path id= "29" d=" M 2.6444 -4.99084 L 2.55598 -4.9398 " />
<path id= "30" d=" M 5.29084 0.409434 L 5.17394 0.476925 " />
<path id= "31" d=" M 2.93221 -4.20219 L 0.473762 -5.62158 " />
<path id= "32" d=" M 3.74876 5.39894 L 3.275 5.67247 " />
<path id= "33" d=" M -2.80124 -5.94599 L -3.275 -5.67247 " />
<path id= "34" d=" M 1.96533 1.02353 L 1.33685 1.38638 " />
<path id= "35" d=" M 1.13467 0.574 L -0.566937 1.55642 " />
<path id= "36" d=" M -0.377892 -1.94004 L -1.33685 -1.38638 " />
<path id= "37" d=" M 0.614553 -1.58391 L 0.566937 -1.55642 " />
</g>
<g   fill="none"
   stroke="rgb(0, 0, 0)"
   stroke-linecap="butt"
   stroke-linejoin="miter"
   stroke-width="0.35"
   transform="scale(1, -1)"
  >
<path d="M14.1421 -10.1246 A2.4 1.38564 60 0 1 15.2463 -9.01563" />
<path d="M15.831 -7.38219 A2.4 1.38564 60 0 1 15.8392 -7.18517" />
<path d="M15.831, -7.38219 C15.779, -7.90213 15.5642, -8.50222 15.2463, -9.01563 " /><path d="M15.2463, -9.01563 C15.2079, -9.074 15.1693, -9.12824 15.1476, -9.15568  C15.1262, -9.18273 15.1314, -9.17116 15.1548, -9.13331 " /><path d="M15.1548, -9.13331 Q15.1681, -9.11157 15.1858, -9.08284 " /><path d="M15.8392, -6.86152 C15.8429, -7.60101 15.5835, -8.44187 15.1858, -9.08284 " /><path id= "7" d=" M 15.8392 -6.86152 L 15.8392 -6.69527 " />
<path d="M15.776 -7.32529 A3 1.73205 60 0 1 15.8392 -6.69527" />
<path d="M15.776, -7.32529 C15.6592, -7.95603 15.3725, -8.62567 14.9839, -9.18286  C14.6427, -9.67533 14.2254, -10.0775 13.8125, -10.3149 " /><path d="M13.8125, -10.3149 C13.2971, -10.6151 12.7944, -10.6497 12.4584, -10.4091 " /><path d="M15.8392, -7.18083 Q15.8392, -7.10798 15.8347, -7.03752 " /><path d="M15.8392, -7.18083 Q15.8392, -7.27975 15.831, -7.38219 " /><path d="M15.8116, -6.67937 Q15.8253, -6.98862 15.776, -7.32529 " /><path d="M15.8392 -6.69527 A3 1.73205 60 0 1 15.5366 -5.60915" />
<path d="M15.1929, -6.32216 C15.2269, -7.01772 15.001, -7.8574 14.596, -8.58299  C14.3466, -9.03351 14.0326, -9.43885 13.6966, -9.7486  C13.4762, -9.95165 13.2534, -10.1104 13.0284, -10.225  C12.5784, -10.4551 12.1486, -10.4802 11.8368, -10.2981 " /><path d="M15.1903, -5.30604 Q15.3884, -5.42063 15.5366, -5.60915 " /><path d="M15.1045, -6.27112 C15.1334, -6.87875 14.9668, -7.59617 14.6521, -8.25161  C14.4312, -8.7148 14.1394, -9.14558 13.816, -9.49085  C13.5488, -9.77669 13.2608, -10.0041 12.9784, -10.154  C12.5146, -10.4022 12.0691, -10.4345 11.7484, -10.247 " /><path d="M11.7484, -10.247 Q11.5916, -10.1564 11.4768, -10.0029 " /><path d="M14.7647, -5.12462 Q14.9459, -5.16499 15.1019, -5.25501 " /><path d="M15.1019, -5.25501 C15.5263, -5.49631 15.7844, -6.01893 15.8116, -6.67937 " /><path d="M14.4858, -5.91391 C14.5198, -6.60947 14.2939, -7.44915 13.8889, -8.17474  C13.6395, -8.62526 13.3255, -9.0306 12.9895, -9.34035  C12.7691, -9.5434 12.5464, -9.70218 12.3214, -9.81671  C11.8713, -10.0468 11.4415, -10.0719 11.1297, -9.88982 " /><path d="M14.4832, -4.89779 C14.9075, -5.13909 15.1657, -5.66171 15.1929, -6.32216 " /><path d="M14.3974, -5.86287 C14.4263, -6.4705 14.2597, -7.18793 13.945, -7.84336  C13.7241, -8.30656 13.4323, -8.73735 13.1088, -9.08261  C12.8414, -9.36883 12.5529, -9.59646 12.2702, -9.74634  C11.8068, -9.99396 11.3617, -10.0261 11.0413, -9.83879 " /><path d="M11.0413, -9.83879 Q10.8845, -9.74814 10.7697, -9.59469 " /><path d="M14.0576, -4.71637 Q14.2388, -4.75674 14.3948, -4.84676 " /><path d="M14.3948, -4.84676 C14.8191, -5.08806 15.0773, -5.61068 15.1045, -6.27112 " /><path d="M13.7787, -5.50566 C13.8127, -6.20122 13.5868, -7.04089 13.1818, -7.76648  C12.9324, -8.217 12.6184, -8.62235 12.2824, -8.93209  C12.062, -9.13514 11.8393, -9.29392 11.6143, -9.40845  C11.1642, -9.63856 10.7344, -9.66368 10.4226, -9.48157 " /><path d="M13.7761, -4.48954 C14.2004, -4.73084 14.4586, -5.25346 14.4858, -5.91391 " /><path d="M13.6903, -5.45462 C13.7192, -6.06225 13.5526, -6.77968 13.2379, -7.43512  C13.017, -7.89832 12.7252, -8.32911 12.4017, -8.67438  C12.1339, -8.96092 11.8451, -9.18874 11.5621, -9.33862  C11.099, -9.58577 10.6544, -9.61767 10.3342, -9.43054 " /><path d="M10.3342, -9.43054 Q10.1774, -9.33989 10.0626, -9.18644 " /><path d="M13.3505, -4.30812 Q13.5317, -4.34849 13.6877, -4.43851 " /><path d="M13.6877, -4.43851 C14.112, -4.67981 14.3702, -5.20243 14.3974, -5.86287 " /><path d="M13.0716, -5.09741 C13.1056, -5.79297 12.8797, -6.63265 12.4747, -7.35824  C12.2253, -7.80875 11.9113, -8.2141 11.5753, -8.52385  C11.3549, -8.72689 11.1322, -8.88567 10.9072, -9.0002  C10.4571, -9.23031 10.0273, -9.25543 9.71546, -9.07333 " /><path d="M13.069, -4.0813 C13.4933, -4.3226 13.7515, -4.84521 13.7787, -5.50566 " /><path d="M12.9832, -5.04637 C13.0121, -5.654 12.8455, -6.37144 12.5308, -7.02688  C12.3099, -7.49008 12.018, -7.92087 11.6946, -8.26614  C11.4305, -8.54874 11.1459, -8.77425 10.8666, -8.92415  C10.3994, -9.17688 9.94992, -9.21104 9.62706, -9.02229 " /><path d="M9.62706, -9.02229 Q9.47032, -8.93164 9.35552, -8.77819 " /><path d="M12.6434, -3.89987 Q12.8246, -3.94024 12.9806, -4.03026 " /><path d="M12.9806, -4.03026 C13.4049, -4.27156 13.6631, -4.79418 13.6903, -5.45462 " /><path d="M12.3645, -4.68916 C12.3985, -5.38472 12.1726, -6.2244 11.7676, -6.94999  C11.5182, -7.40051 11.2042, -7.80585 10.8682, -8.1156  C10.6478, -8.31864 10.4251, -8.47742 10.2001, -8.59195  C9.74999, -8.82206 9.32023, -8.84719 9.00835, -8.66508 " /><path d="M12.3619, -3.67305 C12.7862, -3.91435 13.0444, -4.43697 13.0716, -5.09741 " /><path d="M12.2761, -4.63812 C12.305, -5.24576 12.1383, -5.96319 11.8237, -6.61863  C11.6028, -7.08184 11.3109, -7.51263 10.9875, -7.8579  C10.7231, -8.14077 10.4383, -8.36643 10.1587, -8.51632  C9.69179, -8.76867 9.24263, -8.80268 8.91995, -8.61404 " /><path d="M8.91995, -8.61404 Q8.76321, -8.5234 8.64841, -8.36994 " /><path d="M11.9363, -3.49162 Q12.1175, -3.53199 12.2735, -3.62201 " /><path d="M12.2735, -3.62201 C12.6978, -3.86331 12.956, -4.38593 12.9832, -5.04637 " /><path d="M11.6574, -4.28091 C11.6914, -4.97648 11.4655, -5.81615 11.0605, -6.54174  C10.8111, -6.99226 10.4971, -7.3976 10.1611, -7.70735  C9.94066, -7.91039 9.71795, -8.06918 9.49296, -8.1837  C9.04288, -8.41381 8.61312, -8.43894 8.30125, -8.25683 " /><path d="M11.6548, -3.2648 C12.0791, -3.5061 12.3373, -4.02872 12.3645, -4.68916 " /><path d="M11.569, -4.22987 C11.5979, -4.83751 11.4312, -5.55495 11.1166, -6.21039  C10.8957, -6.6736 10.6038, -7.1044 10.2804, -7.44967  C10.0158, -7.73278 9.73066, -7.95859 9.45084, -8.10849  C8.98418, -8.36047 8.53534, -8.39432 8.21284, -8.20579 " /><path d="M8.21284, -8.20579 Q8.0561, -8.11515 7.9413, -7.96169 " /><path d="M11.2292, -3.08337 Q11.4103, -3.12374 11.5664, -3.21376 " /><path d="M11.5664, -3.21376 C11.9907, -3.45506 12.2489, -3.97768 12.2761, -4.63812 " /><path d="M10.9503, -3.87267 C10.9842, -4.56823 10.7584, -5.4079 10.3534, -6.13349  C10.104, -6.58401 9.78997, -6.98935 9.45398, -7.2991  C9.23356, -7.50214 9.01085, -7.66092 8.78587, -7.77545  C8.33579, -8.00556 7.90602, -8.03069 7.59414, -7.84858 " /><path d="M10.9477, -2.85655 C11.372, -3.09785 11.6302, -3.62047 11.6574, -4.28091 " /><path d="M10.8619, -3.82163 C10.8908, -4.42926 10.7241, -5.1467 10.4095, -5.80215  C10.1886, -6.26536 9.89669, -6.69616 9.57324, -7.04143  C9.30843, -7.32479 9.02305, -7.55074 8.743, -7.70063  C8.27661, -7.95226 7.82807, -7.98597 7.50573, -7.79754 " /><path d="M10.8593, -2.80551 C11.2836, -3.04681 11.5418, -3.56943 11.569, -4.22987 " /><path d="M10.2432, -3.46442 C10.2771, -4.15998 10.0513, -4.99965 9.64627, -5.72524  C9.39687, -6.17576 9.08286, -6.5811 8.74688, -6.89085  C8.52646, -7.09389 8.30376, -7.25267 8.07877, -7.36719  C7.62869, -7.59731 7.19891, -7.62244 6.88704, -7.44033 " /><path d="M10.2406, -2.4483 C10.6649, -2.6896 10.9231, -3.21222 10.9503, -3.87267 " /><path d="M10.1548, -3.41338 C10.1836, -4.02101 10.017, -4.73846 9.70236, -5.3939  C9.48145, -5.85712 9.18957, -6.28792 8.86612, -6.63319  C8.60109, -6.91679 8.31545, -7.14288 8.03518, -7.29277  C7.56904, -7.54405 7.1208, -7.57762 6.79863, -7.38929 " /><path d="M6.79863, -7.38929 Q6.64188, -7.29865 6.52709, -7.1452 " /><path d="M9.81499, -2.26687 Q9.99613, -2.30724 10.1522, -2.39726 " /><path d="M10.1522, -2.39726 C10.5765, -2.63856 10.8347, -3.16118 10.8619, -3.82163 " /><path d="M9.53608, -3.05617 C9.57003, -3.75173 9.34415, -4.5914 8.93916, -5.31699  C8.68977, -5.76751 8.37576, -6.17285 8.03977, -6.4826  C7.81935, -6.68563 7.59665, -6.84441 7.37167, -6.95894  C6.92159, -7.18907 6.49181, -7.2142 6.17993, -7.03209 " /><path d="M9.53348, -2.04006 C9.95779, -2.28136 10.216, -2.80397 10.2432, -3.46442 " /><path d="M9.44767, -3.00513 C9.47654, -3.61277 9.30991, -4.33021 8.99525, -4.98566  C8.77433, -5.44888 8.48246, -5.87968 8.159, -6.22495  C7.89374, -6.50879 7.60784, -6.73502 7.32734, -6.88491  C6.86146, -7.13584 6.41352, -7.16927 6.09152, -6.98104 " /><path d="M6.09152, -6.98104 Q5.93478, -6.8904 5.81998, -6.73695 " /><path d="M9.10789, -1.85862 Q9.28902, -1.89899 9.44507, -1.98901 " /><path d="M9.44507, -1.98901 C9.86939, -2.23031 10.1276, -2.75293 10.1548, -3.41338 " /><path d="M8.82898, -2.64792 C8.86293, -3.34348 8.63704, -4.18315 8.23206, -4.90874  C7.98266, -5.35926 7.66865, -5.7646 7.33267, -6.07435  C7.11225, -6.27738 6.88956, -6.43616 6.66458, -6.55069  C6.21449, -6.78082 5.78471, -6.80595 5.47282, -6.62384 " /><path d="M8.82637, -1.63181 C9.25069, -1.87311 9.50888, -2.39572 9.53608, -3.05617 " /><path d="M8.74057, -2.59688 C8.76943, -3.20452 8.6028, -3.92197 8.28814, -4.57742  C8.06722, -5.04064 7.77534, -5.47145 7.45189, -5.81672  C7.18641, -6.10078 6.90026, -6.32714 6.61954, -6.47703  C6.1539, -6.72763 5.70625, -6.76093 5.38441, -6.57279 " /><path d="M8.73797, -1.58077 C9.16228, -1.82206 9.42046, -2.34468 9.44767, -3.00513 " /><path d="M8.12187, -2.23967 C8.15582, -2.93523 7.92993, -3.7749 7.52495, -4.50049  C7.27555, -4.95101 6.96155, -5.35636 6.62556, -5.6661  C6.40515, -5.86913 6.18245, -6.02791 5.95748, -6.14244  C5.50738, -6.37257 5.0776, -6.3977 4.76572, -6.21559 " /><path d="M8.11927, -1.22356 C8.54358, -1.46486 8.80177, -1.98748 8.82898, -2.64792 " /><path d="M8.03346, -2.18863 C8.06232, -2.79627 7.89569, -3.51372 7.58103, -4.16917  C7.36011, -4.6324 7.06822, -5.06321 6.74477, -5.40848  C6.47908, -5.69277 6.19269, -5.91926 5.91175, -6.06914  C5.44636, -6.31942 4.99899, -6.35258 4.6773, -6.16454 " /><path d="M4.6773, -6.16454 Q4.52056, -6.0739 4.40577, -5.92045 " /><path d="M7.69367, -1.04213 Q7.8748, -1.0825 8.03086, -1.17252 " /><path d="M8.03086, -1.17252 C8.45517, -1.41381 8.71335, -1.93644 8.74057, -2.59688 " /><path d="M7.41476, -1.83143 C7.44871, -2.52699 7.22283, -3.36665 6.81785, -4.09224  C6.56845, -4.54276 6.25444, -4.94811 5.91846, -5.25786  C5.69804, -5.46088 5.47535, -5.61966 5.25037, -5.73418  C4.80028, -5.96432 4.37049, -5.98946 4.05861, -5.80734 " /><path d="M7.41216, -0.815311 C7.83647, -1.05661 8.09467, -1.57923 8.12187, -2.23967 " /><path d="M7.32635, -1.78038 C7.35521, -2.38802 7.18858, -3.10548 6.87391, -3.76093  C6.65299, -4.22416 6.36111, -4.65497 6.03765, -5.00024  C5.77174, -5.28476 5.4851, -5.51139 5.20395, -5.66126  C4.7388, -5.91121 4.29172, -5.94424 3.97019, -5.75629 " /><path d="M3.97019, -5.75629 Q3.81345, -5.66565 3.69866, -5.5122 " /><path d="M6.98657, -0.633878 Q7.1677, -0.674248 7.32375, -0.764267 " /><path d="M7.32375, -0.764267 C7.74806, -1.00556 8.00624, -1.52819 8.03346, -2.18863 " /><path d="M6.70766, -1.42318 C6.74161, -2.11874 6.51572, -2.9584 6.11074, -3.68399  C5.86134, -4.13451 5.54733, -4.53986 5.21135, -4.84961  C4.99094, -5.05263 4.76825, -5.21141 4.54328, -5.32593  C4.09318, -5.55607 3.66339, -5.58121 3.3515, -5.39909 " /><path d="M6.70505, -0.407063 C7.12937, -0.648362 7.38756, -1.17098 7.41476, -1.83143 " /><path d="M6.61924, -1.37213 C6.6481, -1.97978 6.48147, -2.69723 6.1668, -3.35269  C5.94588, -3.81592 5.65399, -4.24673 5.33053, -4.59201  C5.06441, -4.87675 4.77752, -5.10351 4.49615, -5.25338  C4.03125, -5.503 3.58445, -5.53589 3.26308, -5.34804 " /><path d="M3.26308, -5.34804 Q3.10634, -5.2574 2.99155, -5.10395 " /><path d="M6.27946, -0.225629 Q6.46059, -0.265999 6.61664, -0.356017 " /><path d="M6.61664, -0.356017 C7.04095, -0.597316 7.29914, -1.11994 7.32635, -1.78038 " /><path d="M6.00055, -1.01493 C6.0345, -1.71049 5.80862, -2.55016 5.40363, -3.27574  C5.15424, -3.72626 4.84023, -4.13161 4.50425, -4.44136  C4.28384, -4.64438 4.06115, -4.80315 3.83618, -4.91768  C3.38608, -5.14782 2.95629, -5.17296 2.6444, -4.99084 " /><path d="M5.99795, 0.00118532 C6.42226, -0.240114 6.68045, -0.762731 6.70766, -1.42318 " /><path d="M5.91213, -0.963881 C5.941, -1.57153 5.77436, -2.28899 5.45969, -2.94444  C5.23877, -3.40768 4.94687, -3.8385 4.62341, -4.18377  C4.35708, -4.46874 4.06995, -4.69562 3.78837, -4.84549  C3.32371, -5.09478 2.87719, -5.12755 2.55598, -4.9398 " /><path d="M5.90953, 0.0522319 C6.33385, -0.189066 6.59203, -0.711689 6.61924, -1.37213 " /><path d="M5.29344, -0.606681 C5.32739, -1.30224 5.10151, -2.14191 4.69653, -2.86749  C4.44713, -3.31801 4.13312, -3.72336 3.79714, -4.03311  C3.22324, -4.56719 2.59038, -4.80302 2.13091, -4.66482 " /><path d="M5.29084, 0.409433 C5.71516, 0.168134 5.97335, -0.354483 6.00055, -1.01493 " /><path d="M5.10531, 0.513808 L5.17394, 0.476925 " /><path d="M5.17394, 0.476925 C5.61699, 0.225178 5.88802, -0.302181 5.91213, -0.963881 " /><path d="M5.29344, -0.606681 C5.2805, -0.281968 5.2165, 0.00980363 5.10531, 0.247147 " /><path id= "98" d=" M 5.10531 -0.438276 L 5.10531 2.4005 " />
<path d="M5.10531 2.4005 A6.55 3.78164 60 0 1 3.74876 5.39894" />
<path d="M-2.80124 -5.94599 A6.55 3.78164 60 0 1 0.473762 -5.62158" />
<path d="M0.473762 -5.62158 A6.55 3.78164 60 0 1 5.10531 2.4005" />
<path d="M4.63155 2.67403 A6.55 3.78164 60 0 1 3.275 5.67247" />
<path d="M3.275 5.67247 A6.55 3.78164 60 0 1 -3.275 -5.67247" />
<path d="M-3.275 -5.67247 A6.55 3.78164 60 0 1 4.63155 2.67403" />
<path d="M1.72654 0.630522 A0.46 0.265581 60 0 1 1.88463 1.35367" />
<path d="M1.88463 1.35367 A0.46 0.265581 60 0 1 1.72654 1.36311" />
<path d="M1.72654 0.630522 A1.13387 0.654643 60 0 1 1.13799 -0.886372" />
<path d="M0.588548 -1.56989 A0.46 0.265581 60 0 1 0.597315 -1.57535" />
<path d="M0.597315 -1.57535 A0.46 0.265581 60 0 1 1.13799 -0.886372" />
<path d="M0.588548 -1.56989 A1.13387 0.654643 60 0 1 0.566937 -1.55642" />
<path d="M0.566937 -1.55642 A1.13387 0.654643 60 0 1 -0.588548 -2.24948" />
<path d="M-1.13799 -2.20041 A0.46 0.265581 60 0 1 -1.05731 -2.53065" />
<path d="M-1.05731 -2.53065 A0.46 0.265581 60 0 1 -0.588548 -2.24948" />
<path d="M-1.13799 -2.20041 A1.13387 0.654643 60 0 1 -1.33685 -1.38638" />
<path d="M-1.33685 -1.38638 A1.13387 0.654643 60 0 1 -1.72654 -1.36311" />
<path d="M-1.72654 -0.630522 A0.46 0.265581 60 0 1 -1.88463 -1.35367" />
<path d="M-1.88463 -1.35367 A0.46 0.265581 60 0 1 -1.72654 -1.36311" />
<path d="M-1.72654 -0.630522 A1.13387 0.654643 60 0 1 -1.13799 0.886372" />
<path d="M-0.588548 1.56989 A0.46 0.265581 60 0 1 -0.597315 1.57535" />
<path d="M-0.597315 1.57535 A0.46 0.265581 60 0 1 -1.13799 0.886372" />
<path d="M-0.588548 1.56989 A1.13387 0.654643 60 0 1 -0.566937 1.55642" />
<path d="M-0.566937 1.55642 A1.13387 0.654643 60 0 1 0.588548 2.24948" />
<path d="M1.13799 2.20041 A0.46 0.265581 60 0 1 1.05731 2.53065" />
<path d="M1.05731 2.53065 A0.46 0.265581 60 0 1 0.588548 2.24948" />
<path d="M1.13799 2.20041 A1.13387 0.654643 60 0 1 1.33685 1.38638" />
<path d="M1.33685 1.38638 A1.13387 0.654643 60 0 1 1.72654 1.36311" />
<path d="M1.539, 0.443786 C1.39403, 0.454004 1.25713, 0.503515 1.13467, 0.574 " /><path d="M1.05192, 0.621773 C0.895708, 0.702164 0.688313, 0.666415 0.565595, 0.510093  C0.491041, 0.41822 0.453745, 0.292867 0.46065, 0.174571  C0.466846, 0.0773585 0.495708, -0.00969697 0.547237, -0.0865949 " /><path d="M0.547237, -0.0865949 C0.641288, -0.228245 0.713386, -0.395632 0.733907, -0.586665  C0.747542, -0.7142 0.734084, -0.853948 0.683087, -0.984365  C0.632394, -1.11628 0.545889, -1.23239 0.446603, -1.32321  C0.299992, -1.45719 0.129644, -1.54488 -0.0413111, -1.60349 " /><path d="M-0.0413111, -1.60349 C-0.202622, -1.6567 -0.3501, -1.78096 -0.402642, -1.92575 " /></g>

</svg>
