<svg xmlns="http://www.w3.org/2000/svg" viewBox="-1.6 -8.15 23.2 16.3">
<rect width="100%" height="100%" fill="white"/>
<g   fill="none"
   stroke="rgb(0, 0, 0)"
   stroke-linecap="butt"
   stroke-linejoin="miter"
   stroke-width="0.35"
   transform="scale(1, -1)"
  >
<path id= "1" d=" M 20 -2.4 L 19.6923 -2.7077 " />
<path d="M19.9236, 2.38657 Q19.8774, 2.38748 19.8435, 2.41345  Q19.8228, 2.43083 19.8163, 2.44343 " /><path d="M19.5308, -2.44342 Q19.525, -2.4322 19.5069, -2.4161  Q19.4832, -2.39635 19.4499, -2.38919  Q19.4367, -2.38788 19.4235, -2.38656  Q19.3771, -2.3875 19.3432, -2.41372  Q19.3227, -2.43097 19.3163, -2.44342 " /><path d="M18.9236, 2.38657 Q18.8771, 2.3875 18.8432, 2.41371  Q18.8227, 2.43097 18.8163, 2.44343 " /><path d="M19.9236, 2.38657 Q19.9615, 2.38698 19.9923, 2.40573 " /><path d="M19.5308, -2.44342 L19.6821, -2.70403 " /><path d="M19.8163, 2.44343 L19.6411, 2.74522 " /><path d="M18.8163, 2.44343 L18.5006, 2.98741 " /><path d="M19.3163, -2.44342 L19.0006, -2.98741 " /><path d="M18.5308, -2.44343 Q18.525, -2.43221 18.5069, -2.41611  Q18.4832, -2.39635 18.4499, -2.3892  Q18.4367, -2.38788 18.4235, -2.38657  Q18.3771, -2.3875 18.3432, -2.41372  Q18.3227, -2.43097 18.3163, -2.44343 " /><path d="M19.0308, 2.44343 Q19.025, 2.43221 19.0069, 2.41611  Q18.9725, 2.38771 18.9236, 2.38657 " /><path d="M17.9236, 2.38657 Q17.8771, 2.3875 17.8432, 2.41372  Q17.8227, 2.43097 17.8163, 2.44343 " /><path d="M18.8465, -2.98741 L18.5308, -2.44343 " /><path d="M19.3465, 2.98741 L19.0308, 2.44343 " /><path id= "15" d=" M 18.9861 -3 L 18.861 -3 " />
<path d="M17.8163, 2.44343 L17.5006, 2.98741 " /><path d="M18.3163, -2.44343 L18.0006, -2.98741 " /><path d="M17.5308, -2.44343 Q17.525, -2.43221 17.5069, -2.41611  Q17.4832, -2.39636 17.4499, -2.3892  Q17.4367, -2.38788 17.4235, -2.38657  Q17.3771, -2.38751 17.3432, -2.41372  Q17.3227, -2.43097 17.3163, -2.44343 " /><path d="M18.0308, 2.44343 Q18.025, 2.43221 18.0069, 2.41611  Q17.9725, 2.38772 17.9236, 2.38657 " /><path d="M16.9236, 2.38657 Q16.8771, 2.38751 16.8432, 2.41372  Q16.8227, 2.43097 16.8163, 2.44343 " /><path d="M17.8465, -2.98741 L17.5308, -2.44343 " /><path d="M18.3465, 2.98741 L18.0308, 2.44343 " /><path id= "23" d=" M 17.9861 -3 L 17.861 -3 " />
<path d="M16.8163, 2.44343 L16.5006, 2.98741 " /><path d="M17.3163, -2.44343 L17.0006, -2.98741 " /><path d="M16.5308, -2.44343 Q16.525, -2.43221 16.5069, -2.41611  Q16.4832, -2.39636 16.4499, -2.3892  Q16.4367, -2.38789 16.4235, -2.38657  Q16.3771, -2.38751 16.3432, -2.41372  Q16.3227, -2.43097 16.3163, -2.44343 " /><path d="M17.0308, 2.44344 Q17.025, 2.43221 17.0069, 2.41611  Q16.9725, 2.38772 16.9236, 2.38657 " /><path d="M15.9236, 2.38658 Q15.8771, 2.38751 15.8432, 2.41372  Q15.8227, 2.43097 15.8163, 2.44344 " /><path d="M16.8465, -2.98741 L16.5308, -2.44343 " /><path d="M17.3465, 2.98741 L17.0308, 2.44344 " /><path id= "31" d=" M 16.9861 -3 L 16.861 -3 " />
<path d="M15.8163, 2.44344 L15.5006, 2.98741 " /><path d="M16.3163, -2.44343 L16.0006, -2.98742 " /><path d="M15.5308, -2.44343 Q15.525, -2.43221 15.5069, -2.41611  Q15.4832, -2.39636 15.4499, -2.3892  Q15.4367, -2.38789 15.4235, -2.38657  Q15.3771, -2.38751 15.3432, -2.41372  Q15.3227, -2.43097 15.3163, -2.44343 " /><path d="M16.0308, 2.44344 Q16.025, 2.43222 16.0069, 2.41612  Q15.9725, 2.38772 15.9236, 2.38658 " /><path d="M14.9236, 2.38658 Q14.8771, 2.38751 14.8432, 2.41372  Q14.8227, 2.43098 14.8163, 2.44344 " /><path d="M15.8465, -2.98741 L15.5308, -2.44343 " /><path d="M16.3465, 2.98741 L16.0308, 2.44344 " /><path id= "39" d=" M 15.9861 -3 L 15.861 -3 " />
<path d="M14.8163, 2.44344 L14.5006, 2.98741 " /><path d="M15.3163, -2.44343 L15.0006, -2.98742 " /><path d="M14.5308, -2.44344 Q14.525, -2.43222 14.5069, -2.41612  Q14.4832, -2.39636 14.4499, -2.3892  Q14.4367, -2.38789 14.4235, -2.38658  Q14.3771, -2.38751 14.3432, -2.41373  Q14.3227, -2.43098 14.3163, -2.44343 " /><path d="M15.0308, 2.44344 Q15.025, 2.43222 15.0069, 2.41612  Q14.9725, 2.38772 14.9236, 2.38658 " /><path d="M13.9236, 2.38658 Q13.8771, 2.38751 13.8432, 2.41372  Q13.8227, 2.43098 13.8163, 2.44344 " /><path d="M14.8465, -2.98741 L14.5308, -2.44344 " /><path d="M15.3465, 2.98741 L15.0308, 2.44344 " /><path id= "47" d=" M 14.9861 -3 L 14.861 -3 " />
<path d="M13.8163, 2.44344 L13.5006, 2.98741 " /><path d="M14.3163, -2.44343 L14.0006, -2.98742 " /><path d="M13.5308, -2.44344 Q13.525, -2.43222 13.5069, -2.41612  Q13.4832, -2.39637 13.4499, -2.38921  Q13.4367, -2.38789 13.4236, -2.38658  Q13.3771, -2.38752 13.3432, -2.41373  Q13.3227, -2.43098 13.3163, -2.44344 " /><path d="M14.0308, 2.44344 Q14.025, 2.43222 14.0069, 2.41612  Q13.9725, 2.38773 13.9236, 2.38658 " /><path d="M12.9236, 2.38658 Q12.8771, 2.38752 12.8432, 2.41373  Q12.8227, 2.43098 12.8163, 2.44344 " /><path d="M13.8465, -2.98741 L13.5308, -2.44344 " /><path d="M14.3464, 2.98741 L14.0308, 2.44344 " /><path id= "55" d=" M 13.9861 -3 L 13.861 -3 " />
<path d="M12.8163, 2.44344 L12.5006, 2.98741 " /><path d="M13.3163, -2.44344 L13.0006, -2.98742 " /><path d="M12.5308, -2.44344 Q12.525, -2.43222 12.5069, -2.41612  Q12.4832, -2.39637 12.4499, -2.38921  Q12.4367, -2.38789 12.4236, -2.38658  Q12.3771, -2.38752 12.3432, -2.41373  Q12.3227, -2.43098 12.3163, -2.44344 " /><path d="M13.0308, 2.44345 Q13.025, 2.43222 13.0069, 2.41613  Q12.9725, 2.38773 12.9236, 2.38658 " /><path d="M11.9236, 2.38659 Q11.8771, 2.38752 11.8432, 2.41373  Q11.8227, 2.43098 11.8163, 2.44345 " /><path d="M12.8465, -2.98741 L12.5308, -2.44344 " /><path d="M13.3464, 2.98741 L13.0308, 2.44345 " /><path id= "63" d=" M 12.9861 -3 L 12.861 -3 " />
<path d="M11.8163, 2.44345 L11.5006, 2.98741 " /><path d="M12.3163, -2.44344 L12.0006, -2.98742 " /><path d="M11.5308, -2.44344 Q11.525, -2.43222 11.5069, -2.41612  Q11.4832, -2.39637 11.4499, -2.38921  Q11.4368, -2.3879 11.4236, -2.38658  Q11.3771, -2.38752 11.3432, -2.41373  Q11.3227, -2.43098 11.3163, -2.44344 " /><path d="M12.0308, 2.44345 Q12.025, 2.43223 12.0069, 2.41613  Q11.9725, 2.38773 11.9236, 2.38659 " /><path d="M10.9236, 2.38659 Q10.8771, 2.38752 10.8432, 2.41373  Q10.8227, 2.43098 10.8163, 2.44345 " /><path d="M11.8464, -2.98741 L11.5308, -2.44344 " /><path d="M12.3464, 2.98741 L12.0308, 2.44345 " /><path id= "71" d=" M 11.9861 -3 L 11.861 -3 " />
<path d="M10.8163, 2.44345 L10.5006, 2.98741 " /><path d="M11.3163, -2.44344 L11.0006, -2.98742 " /><path d="M10.5308, -2.44345 Q10.525, -2.43223 10.5069, -2.41613  Q10.4832, -2.39637 10.45, -2.38921  Q10.4368, -2.3879 10.4236, -2.38658  Q10.3771, -2.38752 10.3432, -2.41373  Q10.3227, -2.43098 10.3163, -2.44344 " /><path d="M11.0308, 2.44345 Q11.025, 2.43223 11.0069, 2.41613  Q10.9725, 2.38773 10.9236, 2.38659 " /><path d="M9.92357, 2.38659 Q9.87712, 2.38752 9.84323, 2.41373  Q9.82272, 2.43099 9.81634, 2.44345 " /><path d="M10.8464, -2.98741 L10.5308, -2.44345 " /><path d="M11.3464, 2.98741 L11.0308, 2.44345 " /><path id= "79" d=" M 10.9861 -3 L 10.861 -3 " />
<path d="M9.81634, 2.44345 L9.50064, 2.98741 " /><path d="M10.3163, -2.44344 L10.0006, -2.98742 " /><path d="M9.53081, -2.44345 Q9.52502, -2.43223 9.50692, -2.41613  Q9.4832, -2.39638 9.44995, -2.38922  Q9.43676, -2.3879 9.42356, -2.38659  Q9.37711, -2.38752 9.34322, -2.41374  Q9.32272, -2.43099 9.31634, -2.44344 " /><path d="M10.0308, 2.44345 Q10.025, 2.43223 10.0069, 2.41613  Q9.97249, 2.38773 9.92357, 2.38659 " /><path d="M8.92357, 2.38659 Q8.87712, 2.38752 8.84323, 2.41374  Q8.82272, 2.43099 8.81634, 2.44345 " /><path d="M9.84644, -2.98741 L9.53081, -2.44345 " /><path d="M10.3464, 2.98741 L10.0308, 2.44345 " /><path id= "87" d=" M 9.98606 -3 L 9.86103 -3 " />
<path d="M8.81634, 2.44345 L8.50064, 2.98741 " /><path d="M9.31634, -2.44344 L9.00064, -2.98742 " /><path d="M8.53081, -2.44345 Q8.52502, -2.43223 8.50692, -2.41613  Q8.4832, -2.39638 8.44995, -2.38922  Q8.43676, -2.3879 8.42356, -2.38659  Q8.37711, -2.38753 8.34322, -2.41374  Q8.32272, -2.43099 8.31635, -2.44345 " /><path d="M9.03081, 2.44346 Q9.02502, 2.43224 9.00692, 2.41614  Q8.97249, 2.38774 8.92357, 2.38659 " /><path d="M7.92357, 2.3866 Q7.87712, 2.38753 7.84323, 2.41374  Q7.82273, 2.43099 7.81635, 2.44345 " /><path d="M8.84644, -2.98741 L8.53081, -2.44345 " /><path d="M9.34644, 2.98741 L9.03081, 2.44346 " /><path id= "95" d=" M 8.98606 -3 L 8.86103 -3 " />
<path d="M7.81635, 2.44345 L7.50064, 2.98741 " /><path d="M8.31635, -2.44345 L8.00064, -2.98742 " /><path d="M7.53081, -2.44345 Q7.52502, -2.43224 7.50692, -2.41614  Q7.48321, -2.39638 7.44996, -2.38922  Q7.43676, -2.38791 7.42356, -2.38659  Q7.37711, -2.38753 7.34323, -2.41374  Q7.32273, -2.43099 7.31635, -2.44345 " /><path d="M8.03081, 2.44346 Q8.02502, 2.43224 8.00692, 2.41614  Q7.97249, 2.38774 7.92357, 2.3866 " /><path d="M6.92358, 2.3866 Q6.87713, 2.38753 6.84323, 2.41374  Q6.82273, 2.43099 6.81635, 2.44346 " /><path d="M7.84644, -2.98741 L7.53081, -2.44345 " /><path d="M8.34643, 2.98741 L8.03081, 2.44346 " /><path id= "103" d=" M 7.98606 -3 L 7.86102 -3 " />
<path d="M6.81635, 2.44346 L6.50064, 2.98742 " /><path d="M7.31635, -2.44345 L7.00064, -2.98742 " /><path d="M6.53081, -2.44346 Q6.52502, -2.43224 6.50693, -2.41614  Q6.48321, -2.39638 6.44996, -2.38922  Q6.43676, -2.38791 6.42357, -2.38659  Q6.37712, -2.38753 6.34323, -2.41374  Q6.32273, -2.43099 6.31635, -2.44345 " /><path d="M7.03081, 2.44346 Q7.02502, 2.43224 7.00692, 2.41614  Q6.9725, 2.38774 6.92358, 2.3866 " /><path d="M5.92358, 2.3866 Q5.87713, 2.38753 5.84324, 2.41374  Q5.82273, 2.43099 5.81635, 2.44346 " /><path d="M6.84644, -2.98741 L6.53081, -2.44346 " /><path d="M7.34643, 2.98741 L7.03081, 2.44346 " /><path id= "111" d=" M 6.98606 -3 L 6.86102 -3 " />
<path d="M5.81635, 2.44346 L5.50064, 2.98742 " /><path d="M6.31635, -2.44345 L6.00064, -2.98742 " /><path d="M5.53081, -2.44346 Q5.52503, -2.43224 5.50693, -2.41614  Q5.48321, -2.39639 5.44996, -2.38923  Q5.43677, -2.38791 5.42357, -2.3866  Q5.37712, -2.38753 5.34323, -2.41374  Q5.32273, -2.43099 5.31635, -2.44345 " /><path d="M6.03081, 2.44346 Q6.02502, 2.43224 6.00693, 2.41614  Q5.9725, 2.38774 5.92358, 2.3866 " /><path d="M4.92358, 2.3866 Q4.87713, 2.38753 4.84324, 2.41374  Q4.82273, 2.431 4.81635, 2.44346 " /><path d="M5.84643, -2.98741 L5.53081, -2.44346 " /><path d="M6.34643, 2.98741 L6.03081, 2.44346 " /><path id= "119" d=" M 5.98606 -3 L 5.86102 -3 " />
<path d="M4.81635, 2.44346 L4.50064, 2.98742 " /><path d="M5.31635, -2.44345 L5.00064, -2.98742 " /><path d="M5.03294, 2.44528 Q5.02643, 2.43289 5.00799, 2.41658  Q4.97291, 2.38769 4.92359, 2.3866 " /><path d="M5.34716, 2.98739 L5.03294, 2.44528 " /><path id= "124" d=" M 4.98606 -3 L 4.32355 -3 " />
<path d="M4.14678, -3.07322 Q4.22063, -3.00151 4.32355, -3 " /><path id= "126" d=" M 4.14678 -3.07322 L 0.67 -6.55 " />
<path id= "127" d=" M 0.67 -6.55 L 0 -6.55 " />
</g>
<g   fill="none"
   stroke="rgb(0, 0, 0)"
   stroke-linecap="butt"
   stroke-linejoin="miter"
   stroke-width="0.35"
   transform="scale(1, -1)"
  >
<path d="M20, -2.4 Q20, -2.38413 20, -2.36827  Q20, -2.32108 20, -2.2739  Q20, -2.19665 20, -2.11941  Q20, -2.01413 20, -1.90886  Q20, -1.77835 20, -1.64784  Q20, -1.49554 20, -1.34324  Q20, -1.17318 20, -1.00311  Q20, -0.819789 20, -0.636464  Q20, -0.444723 20, -0.252982  Q20, 0.138207 20, 0.523734  Q20, 0.710081 20, 0.896428  Q20, 1.07092 20, 1.24542  Q20, 1.40344 20, 1.56147 " /><path d="M20, 2.38842 Q20, 2.39997 20, 2.4 " /><path d="M20, 2.38842 C20, 2.31491 20, 2.01108 20, 1.56147 " /><path id= "4" d=" M 20 2.4 L 19.9947 2.40531 " />
<path d="M20, 1.56147 C19.9955, 1.50571 19.9891, 1.44966 19.9783, 1.4342  C19.9667, 1.41644 19.9522, 1.47027 19.9413, 1.53476 " /><path d="M19.6036, 2.79639 Q19.6223, 2.77772 19.6411, 2.74522 " /><path d="M19.6411, 2.74522 C19.7372, 2.58277 19.837, 2.13496 19.9413, 1.53476 " /><path id= "8" d=" M 19.6036 2.79639 L 19.4 3 " />
<path d="M19.4, 2.9106 Q19.4, 2.99963 19.4, 3 " /><path d="M19.4, 2.9106 C19.4233, 2.7222 19.4468, 2.29319 19.4705, 1.72001  C19.4933, 1.17101 19.5163, 0.493292 19.5396, -0.16413  C19.5622, -0.803464 19.585, -1.41846 19.6081, -1.87492  C19.6325, -2.36098 19.6572, -2.66323 19.6821, -2.70403 " /><path d="M19.6821, -2.70403 Q19.6872, -2.71281 19.6923, -2.7077 " /><path d="M19.9947, 2.40531 L19.9923, 2.40573 " /><path d="M19.9947, 2.40531 Q19.9975, 2.40247 20, 2.38842 " /><path d="M19.361, 3 Q19.3805, 2.99982 19.4, 2.9106 " /><path id= "15" d=" M 19.4 3 L 19.361 3 " />
<path d="M18.4861, 3 Q18.4933, 3 18.5006, 2.98741 " /><path d="M18.5006, 2.98741 C18.5398, 2.92224 18.579, 2.57136 18.6182, 2.02365  C18.6633, 1.39781 18.7084, 0.517565 18.7535, -0.328513  C18.7889, -0.99201 18.8243, -1.62765 18.8596, -2.10249  C18.9018, -2.6722 18.9439, -3.00332 18.9861, -3 " /><path d="M18.9861, -3 Q18.9933, -3 19.0006, -2.98741 " /><path d="M18.361, 3 C18.3995, 3.00234 18.438, 2.72822 18.4765, 2.24476  C18.5261, 1.62677 18.5758, 0.662917 18.6255, -0.271213  C18.66, -0.920238 18.6945, -1.54712 18.7291, -2.02651  C18.7682, -2.57261 18.8073, -2.92235 18.8465, -2.98741 " /><path d="M18.8465, -2.98741 Q18.8538, -3 18.861, -3 " /><path d="M19.3465, 2.98741 Q19.3538, 3 19.361, 3 " /><path id= "22" d=" M 18.4861 3 L 18.361 3 " />
<path d="M17.4861, 3 Q17.4933, 3 17.5006, 2.98741 " /><path d="M17.5006, 2.98741 C17.5398, 2.92224 17.579, 2.57136 17.6182, 2.02365  C17.6633, 1.39781 17.7084, 0.517579 17.7535, -0.328493  C17.7889, -0.992601 17.8243, -1.6288 17.8597, -2.10379  C17.9018, -2.67272 17.9439, -3.00331 17.9861, -3 " /><path d="M17.9861, -3 Q17.9933, -3 18.0006, -2.98741 " /><path d="M17.361, 3 C17.3995, 3.00234 17.438, 2.72822 17.4765, 2.24475  C17.5262, 1.62639 17.5759, 0.661742 17.6255, -0.272904  C17.6601, -0.922879 17.6947, -1.55051 17.7293, -2.02994  C17.7684, -2.5741 17.8074, -2.92247 17.8465, -2.98741 " /><path d="M17.8465, -2.98741 Q17.8538, -3 17.861, -3 " /><path d="M18.3465, 2.98741 Q18.3538, 3 18.361, 3 " /><path id= "29" d=" M 17.4861 3 L 17.361 3 " />
<path d="M16.4861, 3 Q16.4933, 3 16.5006, 2.98741 " /><path d="M16.5006, 2.98741 C16.5398, 2.92224 16.579, 2.57136 16.6182, 2.02366  C16.6633, 1.39783 16.7084, 0.517612 16.7535, -0.328449  C16.789, -0.99384 16.8245, -1.6312 16.8599, -2.1065  C16.902, -2.6738 16.944, -3.00329 16.9861, -3 " /><path d="M16.9861, -3 Q16.9933, -3 17.0006, -2.98741 " /><path d="M16.361, 3 C16.3995, 3.00234 16.438, 2.72822 16.4765, 2.24475  C16.5262, 1.62607 16.5759, 0.66072 16.6256, -0.274374  C16.6598, -0.915565 16.6939, -1.53501 16.728, -2.01161  C16.7675, -2.5661 16.807, -2.92182 16.8465, -2.98741 " /><path d="M16.8465, -2.98741 Q16.8538, -3 16.861, -3 " /><path d="M17.3465, 2.98741 Q17.3538, 3 17.361, 3 " /><path id= "36" d=" M 16.4861 3 L 16.361 3 " />
<path d="M15.4861, 3 Q15.4933, 3 15.5006, 2.98741 " /><path d="M15.5006, 2.98741 C15.5398, 2.92224 15.579, 2.57136 15.6182, 2.02366  C15.6633, 1.39783 15.7084, 0.51762 15.7535, -0.328437  C15.789, -0.994122 15.8245, -1.63174 15.86, -2.10712  C15.902, -2.67405 15.944, -3.00329 15.9861, -3 " /><path d="M15.9861, -3 Q15.9933, -3 16.0006, -2.98741 " /><path d="M15.361, 3 C15.3995, 3.00234 15.438, 2.72822 15.4765, 2.24474  C15.5259, 1.62987 15.5753, 0.672766 15.6247, -0.25698  C15.6596, -0.912381 15.6944, -1.54621 15.7293, -2.02948  C15.7683, -2.5739 15.8074, -2.92245 15.8465, -2.98741 " /><path d="M15.8465, -2.98741 Q15.8538, -3 15.861, -3 " /><path d="M16.3465, 2.98741 Q16.3537, 3 16.361, 3 " /><path id= "43" d=" M 15.4861 3 L 15.361 3 " />
<path d="M14.4861, 3 Q14.4933, 3 14.5006, 2.98741 " /><path d="M14.5006, 2.98741 C14.5398, 2.92224 14.579, 2.57136 14.6182, 2.02366  C14.6633, 1.39783 14.7084, 0.517615 14.7535, -0.328445  C14.789, -0.993935 14.8245, -1.63138 14.86, -2.10671  C14.902, -2.67388 14.944, -3.00329 14.9861, -3 " /><path d="M14.9861, -3 Q14.9933, -3 15.0006, -2.98742 " /><path d="M14.361, 3 C14.3995, 3.00234 14.438, 2.72821 14.4765, 2.24474  C14.5259, 1.62961 14.5753, 0.671952 14.6248, -0.258155  C14.6591, -0.903968 14.6935, -1.52887 14.7278, -2.00914  C14.7674, -2.56502 14.8069, -2.92173 14.8465, -2.98741 " /><path d="M14.8465, -2.98741 Q14.8537, -3 14.861, -3 " /><path d="M15.3465, 2.98741 Q15.3537, 3 15.361, 3 " /><path id= "50" d=" M 14.4861 3 L 14.361 3 " />
<path d="M13.4861, 3 Q13.4933, 3 13.5006, 2.98741 " /><path d="M13.5006, 2.98741 C13.5398, 2.92225 13.579, 2.57136 13.6182, 2.02366  C13.6633, 1.39783 13.7084, 0.517612 13.7535, -0.328448  C13.789, -0.993848 13.8245, -1.63121 13.86, -2.10652  C13.902, -2.67381 13.944, -3.00329 13.9861, -3 " /><path d="M13.9861, -3 Q13.9933, -3 14.0006, -2.98742 " /><path d="M13.361, 3 C13.3995, 3.00234 13.438, 2.72821 13.4765, 2.24473  C13.5259, 1.62935 13.5754, 0.671155 13.6248, -0.259303  C13.6594, -0.908861 13.6939, -1.53713 13.7285, -2.01837  C13.7678, -2.56905 13.8071, -2.92205 13.8465, -2.98741 " /><path d="M13.8465, -2.98741 Q13.8537, -3 13.861, -3 " /><path d="M14.3464, 2.98741 Q14.3537, 3 14.361, 3 " /><path id= "57" d=" M 13.4861 3 L 13.361 3 " />
<path d="M12.4861, 3 Q12.4933, 3 12.5006, 2.98741 " /><path d="M12.5006, 2.98741 C12.5398, 2.92225 12.579, 2.57136 12.6182, 2.02366  C12.6633, 1.39784 12.7084, 0.517629 12.7535, -0.328425  C12.789, -0.994428 12.8245, -1.63234 12.86, -2.10779  C12.902, -2.67431 12.944, -3.00328 12.9861, -3 " /><path d="M12.9861, -3 Q12.9933, -3 13.0006, -2.98742 " /><path d="M12.361, 3 C12.3995, 3.00234 12.438, 2.72821 12.4765, 2.24473  C12.5259, 1.62911 12.5754, 0.670399 12.6249, -0.260393  C12.6597, -0.914645 12.6945, -1.54716 12.7293, -2.02961  C12.7683, -2.57395 12.8074, -2.92245 12.8465, -2.98741 " /><path d="M12.8465, -2.98741 Q12.8537, -3 12.861, -3 " /><path d="M13.3464, 2.98741 Q13.3537, 3 13.361, 3 " /><path id= "64" d=" M 12.4861 3 L 12.361 3 " />
<path d="M11.4861, 3 Q11.4933, 3 11.5006, 2.98741 " /><path d="M11.5006, 2.98741 C11.5398, 2.92225 11.579, 2.57136 11.6182, 2.02366  C11.6633, 1.39784 11.7084, 0.517644 11.7535, -0.328405  C11.789, -0.994902 11.8246, -1.63326 11.8601, -2.10883  C11.9021, -2.67473 11.9441, -3.00328 11.9861, -3 " /><path d="M11.9861, -3 Q11.9933, -3 12.0006, -2.98742 " /><path d="M11.361, 3 C11.3995, 3.00234 11.438, 2.72821 11.4765, 2.24473  C11.526, 1.62887 11.5754, 0.669655 11.6249, -0.261464  C11.6596, -0.912947 11.6942, -1.54283 11.7289, -2.02432  C11.7681, -2.57165 11.8073, -2.92226 11.8464, -2.98741 " /><path d="M11.8464, -2.98741 Q11.8537, -3 11.861, -3 " /><path d="M12.3464, 2.98741 Q12.3537, 3 12.361, 3 " /><path id= "71" d=" M 11.4861 3 L 11.361 3 " />
<path d="M10.4861, 3 Q10.4933, 3 10.5006, 2.98741 " /><path d="M10.5006, 2.98741 C10.5398, 2.92225 10.579, 2.57137 10.6182, 2.02366  C10.6633, 1.39785 10.7084, 0.517651 10.7535, -0.328396  C10.7891, -0.995111 10.8246, -1.63367 10.8602, -2.10929  C10.9021, -2.67491 10.9441, -3.00327 10.9861, -3 " /><path d="M10.9861, -3 Q10.9933, -3 11.0006, -2.98742 " /><path d="M10.361, 3 C10.3995, 3.00234 10.438, 2.72821 10.4765, 2.24472  C10.526, 1.62863 10.5755, 0.668898 10.625, -0.262554  C10.6596, -0.912674 10.6942, -1.54122 10.7288, -2.02216  C10.768, -2.5707 10.8072, -2.92219 10.8464, -2.98741 " /><path d="M10.8464, -2.98741 Q10.8537, -3 10.861, -3 " /><path d="M11.3464, 2.98741 Q11.3537, 3 11.361, 3 " /><path id= "78" d=" M 10.4861 3 L 10.361 3 " />
<path d="M9.48606, 3 Q9.49335, 3 9.50064, 2.98741 " /><path d="M9.50064, 2.98741 C9.53984, 2.92225 9.57903, 2.57137 9.61822, 2.02366  C9.66332, 1.39785 9.70842, 0.517664 9.75351, -0.328377  C9.78908, -0.995518 9.82465, -1.63446 9.86022, -2.11018  C9.90217, -2.67527 9.94411, -3.00327 9.98606, -3 " /><path d="M9.98606, -3 Q9.99335, -3 10.0006, -2.98742 " /><path d="M9.36103, 3 C9.39951, 3.00234 9.43799, 2.72821 9.47648, 2.24472  C9.52599, 1.6284 9.57551, 0.668179 9.62503, -0.26359  C9.65926, -0.906869 9.69349, -1.52903 9.72772, -2.00777  C9.76729, -2.56441 9.80687, -2.92168 9.84644, -2.98741 " /><path d="M9.84644, -2.98741 Q9.85374, -3 9.86103, -3 " /><path d="M10.3464, 2.98741 Q10.3537, 3 10.361, 3 " /><path id= "85" d=" M 9.48606 3 L 9.36103 3 " />
<path d="M8.48606, 3 Q8.49335, 3 8.50064, 2.98741 " /><path d="M8.50064, 2.98741 C8.53984, 2.92225 8.57903, 2.57137 8.61822, 2.02366  C8.66332, 1.39785 8.70842, 0.51767 8.75351, -0.32837  C8.78909, -0.995669 8.82467, -1.63475 8.86025, -2.11051  C8.90219, -2.6754 8.94412, -3.00326 8.98606, -3 " /><path d="M8.98606, -3 Q8.99335, -3 9.00064, -2.98742 " /><path d="M8.36102, 3 C8.39951, 3.00234 8.43799, 2.7282 8.47648, 2.24471  C8.52601, 1.62817 8.57555, 0.667475 8.62508, -0.264603  C8.65961, -0.913541 8.69414, -1.54084 8.72867, -2.02114  C8.76793, -2.57026 8.80719, -2.92215 8.84644, -2.98741 " /><path d="M8.84644, -2.98741 Q8.85373, -3 8.86103, -3 " /><path d="M9.34644, 2.98741 Q9.35373, 3 9.36103, 3 " /><path id= "92" d=" M 8.48606 3 L 8.36102 3 " />
<path d="M7.48606, 3 Q7.49335, 3 7.50064, 2.98741 " /><path d="M7.50064, 2.98741 C7.53984, 2.92225 7.57903, 2.57137 7.61822, 2.02367  C7.66332, 1.39786 7.70842, 0.517676 7.75351, -0.328362  C7.7891, -0.995844 7.82469, -1.63509 7.86028, -2.1109  C7.90221, -2.67556 7.94413, -3.00326 7.98606, -3 " /><path d="M7.98606, -3 Q7.99335, -3 8.00064, -2.98742 " /><path d="M7.36102, 3 C7.3995, 3.00234 7.43799, 2.7282 7.47647, 2.24471  C7.52603, 1.62794 7.57558, 0.666757 7.62513, -0.265636  C7.65981, -0.917237 7.69448, -1.54691 7.72915, -2.02785  C7.76825, -2.57318 7.80735, -2.92239 7.84644, -2.98741 " /><path d="M7.84644, -2.98741 Q7.85373, -3 7.86102, -3 " /><path d="M8.34643, 2.98741 Q8.35373, 3 8.36102, 3 " /><path id= "99" d=" M 7.48606 3 L 7.36102 3 " />
<path d="M6.48606, 3 Q6.49335, 3 6.50064, 2.98742 " /><path d="M6.50064, 2.98742 C6.53984, 2.92225 6.57903, 2.57137 6.61822, 2.02367  C6.66332, 1.39786 6.70842, 0.517685 6.75351, -0.328349  C6.78912, -0.99612 6.82472, -1.63563 6.86032, -2.11151  C6.90224, -2.6758 6.94414, -3.00326 6.98606, -3 " /><path d="M6.98606, -3 Q6.99335, -3 7.00064, -2.98742 " /><path d="M6.36102, 3 C6.3995, 3.00234 6.43799, 2.7282 6.47647, 2.2447  C6.52604, 1.62771 6.57562, 0.666039 6.62519, -0.266669  C6.65941, -0.909698 6.69363, -1.5314 6.72785, -2.00964  C6.76737, -2.56523 6.80691, -2.92174 6.84644, -2.98741 " /><path d="M6.84644, -2.98741 Q6.85373, -3 6.86102, -3 " /><path d="M7.34643, 2.98741 Q7.35373, 3 7.36102, 3 " /><path id= "106" d=" M 6.48606 3 L 6.36102 3 " />
<path d="M5.48606, 3 Q5.49335, 3 5.50064, 2.98742 " /><path d="M5.50064, 2.98742 C5.53984, 2.92225 5.57903, 2.57137 5.61822, 2.02367  C5.66332, 1.39786 5.70842, 0.517693 5.75351, -0.328339  C5.78913, -0.996323 5.82474, -1.63602 5.86036, -2.11195  C5.90226, -2.67598 5.94416, -3.00325 5.98606, -3 " /><path d="M5.98606, -3 Q5.99335, -3 6.00064, -2.98742 " /><path d="M5.36102, 3 C5.3995, 3.00234 5.43799, 2.7282 5.47647, 2.2447  C5.52606, 1.62748 5.57565, 0.665344 5.62524, -0.26767  C5.65951, -0.911602 5.69377, -1.53406 5.72804, -2.01243  C5.76751, -2.56645 5.80697, -2.92184 5.84643, -2.98741 " /><path d="M5.84643, -2.98741 Q5.85373, -3 5.86102, -3 " /><path d="M6.34643, 2.98741 Q6.35372, 3 6.36102, 3 " /><path id= "113" d=" M 5.48606 3 L 5.36102 3 " />
<path d="M4.48606, 3 Q4.49335, 3 4.50064, 2.98742 " /><path d="M4.50064, 2.98742 C4.53984, 2.92225 4.57903, 2.57137 4.61823, 2.02367  C4.66332, 1.39787 4.70842, 0.517701 4.75351, -0.328327  C4.78914, -0.996555 4.82477, -1.63648 4.8604, -2.11246  C4.90228, -2.67618 4.94417, -3.00325 4.98606, -3 " /><path d="M4.98606, -3 Q4.99335, -3 5.00064, -2.98742 " /><path d="M5.34716, 2.98739 Q5.35446, 3 5.36102, 3 " /><path id= "118" d=" M 4.48606 3 L 4.32355 3 " />
<path d="M4.32355 3 A0.25 0.25 0 0 0 4.14678 3.07322" /><path id= "120" d=" M 4.14678 3.07322 L 0.67 6.55 " />
<path d="M0.67, -6.55 L0.67, -6.38578  L0.67, -5.90135  L0.67, -5.121  L0.67, -4.08386  L0.67, -2.84194  L0.67, -1.45751  L0.67, -1.11022e-15  L0.67, 1.45751  L0.67, 2.84194  L0.67, 4.08386  L0.67, 5.121  L0.67, 5.90135  L0.67, 6.38578  L0.67, 6.55 " /><path id= "122" d=" M 0.67 6.55 L 0 6.55 " />
<path d="M0, -6.55 L0, -6.38578  L0, -5.90135  L0, -5.121  L0, -4.08386  L0, -2.84194  L0, -1.45751  L0, -1.11022e-15  L0, 1.45751  L0, 2.84194  L0, 4.08386  L0, 5.121  L0, 5.90135  L0, 6.38578  L0, 6.55 " /></g>

</svg>
