<svg xmlns="http://www.w3.org/2000/svg" viewBox="-9.199065200000001 -8.996465200000001 14.469270400000001 15.7246004">
<rect width="100%" height="100%" fill="white"/>
<g   fill="none"
   stroke="rgb(0, 0, 0)"
   stroke-linecap="butt"
   stroke-linejoin="miter"
   stroke-width="0.35"
   transform="scale(1, -1)"
  >
<path d="M-1.79774, 3.07588 L-1.69809, 3.08685 " /><path d="M-1.82478, 3.41404 Q-1.79831, 3.25552 -1.79774, 3.07588 " /><path d="M-1.69809 3.08685 A3.20675 1.85142 60 0 1 -1.66135 3.57748" />
<path d="M-0.102292, 2.92362 L-0.209541, 2.9539 " /><path id= "5" d=" M -0.102292 2.92362 L 0.685967 2.46852 " />
<path d="M-0.860864, 2.60667 C-0.880243, 2.62194 -0.925372, 2.64218 -0.963842, 2.65285 " /><path d="M-0.963842, 2.65285 Q-1.33735, 2.75819 -1.71508, 2.86402 " /><path id= "8" d=" M -1.71508 2.86402 L -1.93957 2.99363 " />
<path d="M-1.93957, 2.99363 Q-1.86518, 3.03352 -1.79774, 3.07588 " /><path id= "10" d=" M -0.209541 2.9539 L -1.69809 3.08685 " />
<path d="M-1.66135 3.57748 A3.20675 1.85142 60 0 1 -1.69809 4.02569" />
<path id= "12" d=" M -0.209541 5.87747 L -1.69809 4.02569 " />
<path d="M0 4.53666 A5.55625 3.2079 60 0 1 -0.209541 5.87747" />
<path d="M-0.209541 2.9539 A5.55625 3.2079 60 0 1 0 4.53666" />
<path d="M-1.82478, 3.41405 Q-1.84637, 3.54324 -1.88477, 3.65547 " /><path d="M-1.69809, 4.02569 Q-1.79724, 3.8281 -1.88477, 3.65547 " /><path d="M-1.93957, 2.99363 Q-1.94, 3.07525 -1.94534, 3.15425 " /><path d="M0.958709, 4.68497 C0.534383, 4.08076 0.188031, 3.50578 -0.102292, 2.92362 " /><path d="M-0.851692, 2.58686 L-0.84927, 2.59091 " /><path d="M-0.84927, 2.59091 Q-0.848825, 2.59727 -0.860864, 2.60667 " /><path d="M-0.0773549 0.501168 A1.0795 0.851375 -95.1039 0 1 0.208271 0.409622" />
<path d="M0.208271 0.409622 A1.0795 0.851375 -95.1039 0 1 0.685967 2.46852" />
<path d="M-0.832894, 2.02881 C-0.688343, 1.88625 -0.547205, 1.71784 -0.509425, 1.48093  C-0.492463, 1.36964 -0.516165, 1.23816 -0.584081, 1.13269  C-0.640858, 1.04196 -0.718819, 0.972152 -0.798777, 0.917681 " /><path d="M-0.832894, 2.02881 Q-0.916061, 2.23209 -1.04253, 2.38566 " /><path d="M-1.04253, 2.38566 Q-0.941103, 2.52295 -0.851692, 2.58686 " /><path d="M1.91742, -3.02444 C2.57085, -2.09293 3.04163, -1.23049 3.40249, -0.303899 " /><path id= "27" d=" M 1.91742 -3.02444 L -1.30962 -1.16131 " />
<path d="M-0.865614, 0.956269 C-1.05064, 0.313306 -1.19558, -0.377953 -1.30962, -1.16131 " /><path id= "29" d=" M -0.0773549 0.501168 L -0.865614 0.956269 " />
<path id= "30" d=" M 4.18575 2.82184 L 0.958709 4.68497 " />
<path d="M3.40249, -0.303899 C3.76115, 0.623966 4.00945, 1.61486 4.18575, 2.82184 " /><path d="M-0.102292, 5.93363 C0.188031, 5.56511 0.534383, 5.1575 0.958709, 4.68497 " /><path d="M-0.209541, 5.87747 L-0.102292, 5.93363 " /><path d="M-1.96091, 3.30921 L-1.88477, 3.65547 " /><path id= "35" d=" M 0.685967 5.47853 L -0.102292 5.93363 " />
<path d="M-1.94534, 3.15425 Q-1.95067, 3.23325 -1.96091, 3.30921 " /><path d="M-1.04253, 2.38566 Q-1.03908, 2.51371 -1.04732, 2.63578 " /><path d="M-1.94302, 3.11549 C-2.47168, 2.84846 -2.99207, 2.33619 -3.35242, 1.7476  C-3.67202, 1.23103 -3.86557, 0.66315 -3.8935, 0.190703  C-3.92135, -0.242642 -3.81177, -0.592851 -3.59462, -0.782093 " /><path d="M-0.972863, 0.986548 L-0.865614, 0.956269 " /><path id= "40" d=" M -0.972863 0.986548 L -2.45319 1.11877 " />
<path d="M-2.57458, 0.952198 L-2.55639, 0.966508 " /><path d="M-2.46287e-09, -4.53666 C0.718416, -4.12061 1.32626, -3.64122 1.91742, -3.02444 " /><path d="M4.18575, 2.82184 C4.00945, 3.27431 3.76115, 3.72159 3.40249, 4.23276 " /><path d="M0.685967 5.47853 A1.0795 0.228125 -38.794 0 1 1.14567 5.34517" />
<path d="M1.14567 5.34517 A1.0795 0.228125 -38.794 0 1 -0.0773549 6.56447" />
<path id= "46" d=" M -0.865614 7.01957 L -0.0773549 6.56447 " />
<path d="M-1.30962, 7.91201 C-1.19558, 7.61862 -1.05064, 7.3273 -0.865614, 7.01957 " /><path id= "48" d=" M 1.91742 6.04888 L -1.30962 7.91201 " />
<path d="M3.40249, 4.23276 C3.04163, 4.74521 2.57085, 5.32094 1.91742, 6.04888 " /><path d="M-3.16554 -1.74118 A5.55625 3.2079 60 0 1 -0.972863 0.986548" />
<path d="M-3.12313, -1.85211 L-3.16554, -1.74118 " /><path d="M-1.30962, -1.16131 C-2.00313, -1.38257 -2.59513, -1.60807 -3.12313, -1.85211 " /><path d="M-2.61924, -5.64368 C-1.55095, -5.30237 -0.720623, -4.95144 -2.46287e-09, -4.53666 " /><path id= "54" d=" M -2.61924 -5.64368 L -5.84628 -3.78055 " />
<path d="M-4.64977, -2.73352 C-5.07246, -3.03836 -5.46305, -3.38015 -5.84628, -3.78055 " /><path id= "56" d=" M -3.86151 -3.18862 L -4.64977 -2.73352 " />
<path d="M-2.33487 -2.30722 A1.0795 0.62325 -1.8257e-14 0 0 -2.01869 -2.74792" />
<path d="M-2.01869 -2.74792 A1.0795 0.62325 -1.8257e-14 0 0 -3.86151 -3.18862" />
<path id= "59" d=" M -3.12313 -1.85211 L -2.33487 -2.30722 " />
<path d="M-1.77863, 3.8655 Q-1.86202, 3.90686 -1.93875, 3.94681 " /><path d="M-1.93875, 3.94681 Q-1.89549, 4.16308 -1.84153, 4.36981 " /><path d="M-1.04732, 2.63578 L-1.05048, 2.67727 " /><path d="M-3.72963, -0.718805 L-3.71335, -0.728521 " /><path d="M-3.71335, -0.728521 Q-3.48065, -0.861484 -3.16554, -0.800928 " /><path d="M-3.72963, -0.718805 C-3.73252, -0.716277 -3.75147, -0.692124 -3.78648, -0.646345  C-3.84442, -0.570073 -3.94755, -0.417848 -4.06428, -0.245424 " /><path d="M-1.9538, 3.34126 C-2.57792, 3.10335 -3.22138, 2.49587 -3.62921, 1.79004  C-4.0582, 1.06322 -4.22037, 0.259278 -4.06428, -0.245424 " /><path d="M-3.6702, -1.18582 Q-3.77529, -0.948309 -3.86151, -0.699532 " /><path d="M-3.52595, -1.24304 Q-3.53637, -1.25475 -3.55271, -1.25885 " /><path d="M-3.55271, -1.25885 C-3.59308, -1.27036 -3.65041, -1.23399 -3.6702, -1.18582 " /><path d="M-3.16554, -0.872274 Q-3.36933, -1.06395 -3.52595, -1.24304 " /><path d="M-1.045, 2.59702 C-1.70721, 2.26531 -2.35001, 1.54225 -2.69501, 0.780465 " /><path d="M-3.15936, 0.26827 L-3.16554, 0.243548 " /><path id= "73" d=" M -3.16554 0.243548 L -3.16554 -1.74118 " />
<path d="M-2.64225, 0.84895 L-2.57458, 0.952198 " /><path d="M-2.45319, 1.11877 Q-2.59847, 0.895793 -2.75561, 0.705139 " /><path d="M-2.75561, 0.705139 C-2.88622, 0.542715 -3.02353, 0.395157 -3.1517, 0.275421 " /><path d="M-3.16554 0.243548 A3.20675 1.85142 60 0 1 -2.75561 0.705139" />
<path d="M-3.12313, 7.2212 C-2.59513, 7.46525 -2.00313, 7.69075 -1.30962, 7.91201 " /><path d="M-3.16554 5.70336 A1.0795 0.62325 -1.8257e-14 0 0 -3.86151 5.88469" />
<path id= "80" d=" M -4.64977 6.3398 L -3.86151 5.88469 " />
<path d="M-5.84628, 5.29277 C-5.46305, 5.69317 -5.07246, 6.03496 -4.64977, 6.3398 " /><path d="M-0.972863 6.9634 A5.55625 3.2079 60 0 1 -3.16554 7.15925" />
<path d="M-0.865614, 7.01957 L-0.972863, 6.9634 " /><path d="M-3.16554, 7.15925 L-3.12313, 7.2212 " /><path d="M-1.84153, 4.36981 L-1.76458, 4.6717 " /><path d="M-1.76458, 4.6717 Q-1.75397, 4.72346 -1.79718, 4.74424 " /><path d="M-1.79718, 4.74424 Q-1.83352, 4.75823 -1.87684, 4.7365 " /><path d="M-1.87684, 4.7365 Q-2.25034, 4.5405 -2.62807, 4.33962 " /><path id= "89" d=" M -2.62807 4.33962 L -2.80184 4.43995 " />
<path d="M-2.80184, 4.43995 Q-2.65166, 4.7325 -2.46141, 5.11163 " /><path id= "91" d=" M -0.972863 6.9634 L -2.46141 5.11163 " />
<path id= "92" d=" M -3.9545 -0.428174 L -4.179 -0.298562 " />
<path d="M-3.86151, -0.699532 L-3.9545, -0.428174 " /><path d="M-4.69218, -2.62259 L-4.64977, -2.73352 " /><path id= "95" d=" M -4.69218 -0.63786 L -4.69218 -2.62259 " />
<path d="M-4.69218, -0.63786 Q-4.67219, -0.557897 -4.65363, -0.482892 " /><path d="M-4.58647, -0.671353 L-4.65363, -0.482892 " /><path d="M-4.47422, -0.736165 Q-4.48224, -0.747817 -4.49522, -0.750714 " /><path d="M-4.49522, -0.750714 C-4.52522, -0.758698 -4.57007, -0.719729 -4.58647, -0.671353 " /><path d="M-4.179, -0.298562 Q-4.32672, -0.519976 -4.47422, -0.736165 " /><path d="M-6.88486 -2.42675 A5.55625 3.2079 60 0 1 -4.69218 -2.62259" />
<path d="M-6.90728, -2.53189 L-6.88486, -2.42675 " /><path d="M-5.84628, -3.78055 C-6.27061, -3.30802 -6.61696, -2.90041 -6.90728, -2.53189 " /><path d="M-7.6706, -1.44595 C-7.85562, -1.13822 -8.00057, -0.846896 -8.11461, -0.553511 " /><path id= "105" d=" M -6.88234 -1.90105 L -7.6706 -1.44595 " />
<path d="M-6.6056 -2.07934 A1.0795 0.228125 -38.794 0 1 -6.88234 -1.90105" />
<path d="M-1.93875, 3.94681 Q-2.07107, 3.98094 -2.21559, 3.9837 " /><path d="M-2.21559, 3.9837 Q-2.26987, 4.16011 -2.33487, 4.33147 " /><path d="M-2.33487, 4.33147 L-2.38661, 4.46779 " /><path d="M-1.79413, 3.83474 Q-1.92702, 3.85893 -2.07056, 3.85324 " /><path d="M-2.21559, 3.9837 Q-2.12158, 3.91789 -2.07056, 3.85324 " /><path d="M-1.25387, 2.73454 C-1.80918, 2.45933 -2.35661, 1.91131 -2.72167, 1.28778  C-2.91601, 0.958733 -3.06057, 0.611628 -3.14258, 0.283985 " /><path d="M-3.16554, 0.185652 C-3.2441, -0.176673 -3.24298, -0.508919 -3.16554, -0.766324 " /><path d="M-4.06428, -0.245424 C-4.31731, -0.220288 -4.59063, -0.261034 -4.85388, -0.327478 " /><path d="M-4.7683, 0.923419 C-4.59897, 0.949788 -4.42405, 0.995314 -4.25989, 1.09359  C-4.14862, 1.16031 -4.04246, 1.25912 -3.9792, 1.3847  C-3.91812, 1.5036 -3.90134, 1.63573 -3.9148, 1.75265  C-3.94047, 1.96853 -4.04597, 2.14245 -4.16873, 2.2874 " /><path d="M-2.82103, 3.74075 C-2.69758, 3.6908 -2.54681, 3.67511 -2.40999, 3.73941  C-2.31273, 3.78413 -2.23311, 3.86501 -2.17766, 3.95574 " /><path d="M-3.72963, -0.718805 L-3.75032, -0.745529 " /><path d="M-3.75032, -0.745529 Q-3.7815, -0.784143 -3.81763, -0.822046 " /><path d="M-4.79561, 0.589201 L-4.85227, 0.624391 " /><path d="M-4.97617, -0.2016 Q-4.89929, 0.209749 -4.79561, 0.589201 " /><path d="M-4.85388, -0.327478 C-4.90596, -0.342214 -4.96944, -0.294836 -4.97663, -0.236608 " /><path d="M-4.97663, -0.236608 Q-4.97935, -0.218874 -4.97617, -0.2016 " /><path d="M-0.620852, 1.77308 C-0.884672, 1.56676 -1.13354, 1.30757 -1.34686, 1.01995 " /><path d="M-3.1517, 0.275421 L-3.15936, 0.26827 " /><path d="M-6.90728, 3.53141 C-6.61696, 4.11358 -6.27061, 4.68856 -5.84628, 5.29277 " /><path id= "126" d=" M -6.11902 3.07631 L -6.90728 3.53141 " />
<path d="M-5.87535 1.3933 A1.0795 0.851375 -95.1039 0 1 -6.11902 3.07631" />
<path d="M-8.11461, -0.553511 C-8.00057, 0.229844 -7.85562, 0.921103 -7.6706, 1.56407 " /><path d="M-4.69218 6.27784 A5.55625 3.2079 60 0 1 -6.88486 3.55011" />
<path d="M-4.64977, 6.3398 L-4.69218, 6.27784 " /><path d="M-6.88486, 3.55011 L-6.90728, 3.53141 " /><path d="M-3.86151, 3.18559 Q-3.98986, 3.56335 -4.12437, 3.93775 " /><path d="M-4.12437, 3.93775 C-4.14381, 3.99649 -4.20369, 4.03686 -4.23064, 4.00945 " /><path d="M-4.23064, 4.00945 L-4.23663, 4.00256 " /><path d="M-4.23663, 4.00256 Q-4.38412, 3.78636 -4.53182, 3.56494 " /><path id= "136" d=" M -4.53182 3.56494 L -4.55593 3.57886 " />
<path d="M-4.55593, 3.57886 Q-4.61397, 3.89 -4.69218, 4.29311 " /><path id= "138" d=" M -4.69218 6.27784 L -4.69218 4.29311 " />
<path d="M-2.82103, 3.74075 C-2.88656, 3.76545 -3.03032, 3.74205 -3.0867, 3.69543 " /><path d="M-3.0867, 3.69543 L-3.10237, 3.68125 " /><path d="M-3.10237, 3.68125 Q-3.39189, 3.36297 -3.59482, 3.08459 " /><path d="M-3.59482, 3.08459 Q-3.74154, 3.10982 -3.85829, 3.17609 " /><path d="M-3.85829, 3.17609 L-3.86151, 3.18559 " /><path id= "144" d=" M -3.16554 7.15925 L -3.16554 5.17452 " />
<path d="M-3.16554, 5.17452 Q-3.08733, 4.77141 -3.02928, 4.46026 " /><path id= "146" d=" M -2.87687 4.37227 L -3.02928 4.46026 " />
<path d="M-2.46141 5.11163 A3.20675 1.85142 60 0 1 -3.16554 5.17452" />
<path d="M-2.80184 4.43995 A2.48759 1.43621 60 0 1 -3.02928 4.46026" />
<path d="M-2.62807, 4.33962 Q-2.74756, 4.3686 -2.87687, 4.37227 " /><path d="M-4.38508, -0.29058 Q-4.28694, -0.307221 -4.179, -0.298562 " /><path d="M-4.38508, -0.29058 L-4.71744, -0.483719 " /><path d="M-4.65363, -0.482892 Q-4.93654, -0.493391 -5.16361, -0.380655 " /><path d="M-5.16361, -0.380655 Q-5.27459, -0.473559 -5.39632, -0.574969 " /><path d="M-5.39632 -0.574969 A3.20675 1.85142 60 0 1 -4.69218 -0.63786" />
<path id= "155" d=" M -5.39632 -0.574969 L -6.88486 -2.42675 " />
<path id= "156" d=" M -4.85227 0.624391 L -5.02009 0.72128 " />
<path d="M-7.64818, -1.34081 L-7.6706, -1.44595 " /><path id= "158" d=" M -6.15964 0.51097 L -7.64818 -1.34081 " />
<path d="M-6.15964, 0.51097 Q-5.94798, 0.687298 -5.76776, 0.838803 " /><path d="M-5.8836, 0.389222 Q-5.82764, 0.613485 -5.76776, 0.838803 " /><path d="M-5.77135, 0.32441 C-5.82255, 0.295848 -5.88199, 0.31579 -5.88557, 0.362688 " /><path d="M-5.88557, 0.362688 Q-5.88702, 0.375466 -5.8836, 0.389222 " /><path d="M-5.02009, 0.72128 Q-5.39783, 0.520412 -5.77135, 0.32441 " /><path d="M-7.64818 1.58276 A5.55625 3.2079 60 0 1 -7.64818 -1.34081" />
<path d="M-7.6706, 1.56407 L-7.64818, 1.58276 " /><path d="M-0.767081, 1.96212 C-1.09129, 1.72399 -1.39641, 1.40412 -1.64545, 1.04662 " /><path d="M-4.16873, 2.2874 C-4.20783, 2.33331 -4.23073, 2.43764 -4.20734, 2.46802 " /><path d="M-4.20734, 2.46802 L-4.2041, 2.47223 " /><path d="M-4.85227, 0.927646 Q-4.81297, 0.904956 -4.77353, 0.887732 " /><path d="M-3.91026, 2.74258 Q-3.98551, 2.83516 -4.08895, 2.89499 " /><path d="M-4.2041, 2.47223 Q-4.04539, 2.64656 -3.91026, 2.74258 " /><path d="M-4.7683, 0.923419 Q-4.79496, 0.919175 -4.82378, 0.911922 " /><path d="M-4.77353, 0.887732 Q-4.7949, 0.732503 -4.79561, 0.589201 " /><path d="M-4.99873, 1.0122 Q-5.01923, 0.861061 -5.02009, 0.72128 " /><path id= "175" d=" M -4.85227 0.927646 L -4.99873 1.0122 " />
<path d="M-5.72068, 1.36274 Q-5.92026, 1.40207 -6.15964, 1.44981 " /><path id= "177" d=" M -6.15964 1.44981 L -7.64818 1.58276 " />
<path d="M-4.99873, 1.0122 L-5.72084, 1.20655 " /><path d="M-5.72084, 1.20655 L-5.74387, 1.21366 " /><path id= "180" d=" M -4.08895 2.89499 L -4.10709 2.90547 " />
<path id= "181" d=" M -5.39632 3.41716 L -6.88486 3.55011 " />
<path d="M-5.39632, 3.41716 Q-5.04964, 3.34802 -4.78337, 3.29591 " /><path id= "183" d=" M -4.78063 3.29433 L -4.78337 3.29591 " />
<path d="M-4.97061, 3.18146 Q-4.88147, 3.23997 -4.78063, 3.29433 " /><path d="M-4.85836, 3.11665 C-4.91723, 3.13259 -4.98322, 3.16931 -4.9722, 3.18 " /><path d="M-4.9722, 3.18 L-4.97061, 3.18146 " /><path d="M-4.10709, 2.90547 Q-4.48484, 3.0113 -4.85836, 3.11665 " /><path d="M-4.69218 4.29311 A3.20675 1.85142 60 0 1 -5.39632 3.41716" />
<path d="M-4.55593 3.57886 A2.48759 1.43621 60 0 1 -4.78337 3.29591" />
<path d="M-4.53182, 3.56494 Q-4.66113, 3.43662 -4.78063, 3.29433 " /><path d="M-3.85829, 3.17609 Q-3.9876, 3.04776 -4.10709, 2.90547 " /><path d="M-3.59482, 3.08459 Q-3.76038, 2.92483 -3.91026, 2.74258 " /><path d="M-5.76776, 0.838803 Q-5.76975, 1.08912 -5.72068, 1.36274 " /><path d="M-6.15964 1.44981 A3.20675 1.85142 60 0 1 -6.15964 0.51097" />
</g>

</svg>
