<svg xmlns="http://www.w3.org/2000/svg" viewBox="-6.582778 -7.442328 7.609306000000931 14.884656">
<rect width="100%" height="100%" fill="white"/>
<g   fill="none"
   stroke="rgb(0, 0, 0)"
   stroke-linecap="butt"
   stroke-linejoin="miter"
   stroke-width="0.35"
   transform="scale(1, -1)"
  >
<path id= "1" d=" M -2.06041e-12 -5.55625 L -0.496264 -6.4158 " />
<path id= "2" d=" M -5.55625 -5.55625 L -5.05999 -6.4158 " />
</g>
<g   fill="none"
   stroke="rgb(0, 0, 0)"
   stroke-linecap="butt"
   stroke-linejoin="miter"
   stroke-width="0.35"
   transform="scale(1, -1)"
  >
<path d="M-5.49627, 5.3516 L-5.55625, 5.25991 " /><path id= "2" d=" M -5.49627 5.3516 L -4.3815 5.3516 " />
<path id= "3" d=" M -5.55625 5.25991 L -5.55625 4.18041 " />
<path d="M-5.55625, 5.25991 Q-5.55625, 5.55455 -5.55625, 5.55625 " /><path d="M-5.05999, 6.4158 C-5.27939, 6.03512 -5.42181, 5.68772 -5.49627, 5.3516 " /><path id= "6" d=" M -5.55625 5.55625 L -5.05999 6.4158 " />
<path d="M-4.3815 4.2721 A1.0795 0.53975 0 0 1 -3.302 4.81185" />
<path d="M-3.302 4.81185 A1.0795 0.53975 0 0 1 -4.3815 5.3516" />
<path d="M-0.496264, 3.2079 C-0.158882, 3.79461 -0.0015607, 4.30308 0, 4.81185 " /><path id= "10" d=" M -0.496264 3.2079 L -5.05999 3.2079 " />
<path d="M-5.49627, 4.2721 C-5.42181, 3.93598 -5.27939, 3.58859 -5.05999, 3.2079 " /><path id= "12" d=" M -4.3815 4.2721 L -5.49627 4.2721 " />
<path id= "13" d=" M -0.496264 6.4158 L -5.05999 6.4158 " />
<path d="M-1.38778e-17, 4.81185 C-0.00156068, 5.32063 -0.158882, 5.8291 -0.496264, 6.4158 " /><path d="M-3.36289, 0.357416 C-3.33373, 0.27508 -3.31042, 0.17335 -3.30404, 0.0662969  C-3.2993, -0.0265265 -3.30411, -0.111235 -3.31847, -0.18783 " /><path d="M-5.55625, 4.18041 L-5.49627, 4.2721 " /><path d="M-1.38778e-17, -3.48303e-09 C-0.00156069, 1.01755 -0.158882, 2.03449 -0.496264, 3.2079 " /><path d="M0, -3.48303e-09 Q0, 0.41587 0, 0.828116  Q0, 1.23832 0, 1.63773  Q0, 1.83383 0, 2.02993  Q0, 2.22035 0, 2.41077  Q0, 2.59445 0, 2.77812  Q0, 2.95404 0, 3.12995  Q0, 3.29711 0, 3.46427  Q0, 3.62174 0, 3.77921  Q0, 3.92611 0, 4.07302  Q0, 4.20854 0, 4.34405  Q0, 4.46742 0, 4.59079  Q0, 4.70132 0, 4.81185 " /><path d="M0, 4.81185 C0, 5.05346 0, 5.24045 0, 5.36693  C0, 5.3836 0, 5.40027 0, 5.41694  C0, 5.44667 0, 5.47241 0, 5.49419  C0, 5.51372 0, 5.52922 0, 5.54071  C0, 5.54993 0, 5.55511 0, 5.55625 " /><path id= "20" d=" M -0.496264 6.4158 L 9.31116e-13 5.55625 " />
<path d="M-5.55625, 1.0795 C-5.55625, 1.67538 -5.55625, 2.25104 -5.55625, 2.77813  C-5.55625, 2.92761 -5.55625, 3.07367 -5.55625, 3.2163  C-5.55625, 3.35686 -5.55625, 3.49351 -5.55625, 3.62625  C-5.55625, 3.69066 -5.55625, 3.75508 -5.55625, 3.81949  C-5.55625, 3.88111 -5.55625, 3.94273 -5.55625, 4.00435  C-5.55625, 4.06304 -5.55625, 4.12173 -5.55625, 4.18041 " /><path d="M-5.49627, 1.0795 L-5.55625, 1.0795 " /><path d="M-5.05999, 3.2079 C-5.27939, 2.44653 -5.42181, 1.75174 -5.49627, 1.0795 " /><path d="M-0.496264, -3.2079 C-0.158882, -2.03449 -0.00156069, -1.01755 -1.38778e-17, -3.48303e-09 " /><path id= "25" d=" M -0.496264 -3.2079 L -5.05999 -3.2079 " />
<path d="M-5.49627, -1.0795 C-5.42181, -1.75174 -5.27939, -2.44653 -5.05999, -3.2079 " /><path id= "27" d=" M -4.3815 -1.0795 L -5.49627 -1.0795 " />
<path d="M-4.3815 1.0795 A1.0795 1.0795 0 0 0 -4.3815 -1.0795" /><path id= "29" d=" M -5.49627 1.0795 L -4.3815 1.0795 " />
<path d="M-3.31847, -0.18783 C-3.35617, -0.402497 -3.45767, -0.592256 -3.59063, -0.734738 " /><path d="M0, -5.55625 C0, -5.55511 0, -5.54993 0, -5.54071  C0, -5.52922 0, -5.51372 0, -5.49419  C0, -5.47241 0, -5.44667 0, -5.41694  C0, -5.40027 0, -5.3836 0, -5.36693  C0, -5.24045 0, -5.05346 0, -4.81185 " /><path d="M0, -4.81185 Q0, -4.70132 0, -4.59079  Q0, -4.46742 0, -4.34405  Q0, -4.20854 0, -4.07302  Q0, -3.92611 0, -3.77921  Q0, -3.62174 0, -3.46427  Q0, -3.29711 0, -3.12995  Q0, -2.95404 0, -2.77813  Q0, -2.59445 0, -2.41077  Q0, -2.22035 0, -2.02993  Q0, -1.83383 0, -1.63773  Q0, -1.23832 0, -0.828116  Q0, -0.41587 0, -3.48303e-09 " /><path d="M1.38778e-17, -4.81185 C-0.00156069, -4.30308 -0.158882, -3.79461 -0.496264, -3.2079 " /><path d="M-5.55625, -1.0795 L-5.49627, -1.0795 " /><path d="M-5.55625, -4.18041 C-5.55625, -4.12173 -5.55625, -4.06304 -5.55625, -4.00435  C-5.55625, -3.94273 -5.55625, -3.88111 -5.55625, -3.81949  C-5.55625, -3.75508 -5.55625, -3.69066 -5.55625, -3.62625  C-5.55625, -3.49351 -5.55625, -3.35686 -5.55625, -3.2163  C-5.55625, -3.07367 -5.55625, -2.92761 -5.55625, -2.77813  C-5.55625, -2.25104 -5.55625, -1.67538 -5.55625, -1.0795 " /><path d="M-5.49627, -4.2721 L-5.55625, -4.18041 " /><path d="M-5.05999, -3.2079 C-5.27939, -3.58859 -5.42181, -3.93598 -5.49627, -4.2721 " /><path d="M-0.496264, -6.4158 C-0.158882, -5.8291 -0.00156069, -5.32063 -1.38778e-17, -4.81185 " /><path id= "39" d=" M -0.496264 -6.4158 L -5.05999 -6.4158 " />
<path d="M-5.49627, -5.3516 C-5.42181, -5.68772 -5.27939, -6.03512 -5.05999, -6.4158 " /><path id= "41" d=" M -4.3815 -5.3516 L -5.49627 -5.3516 " />
<path d="M-4.3815 -4.2721 A1.0795 0.53975 0 0 0 -3.302 -4.81185" />
<path d="M-3.302 -4.81185 A1.0795 0.53975 0 0 0 -4.3815 -5.3516" />
<path id= "44" d=" M -5.49627 -4.2721 L -4.3815 -4.2721 " />
<path d="M-4.19692, 1.0636 Q-4.28966, 1.07958 -4.3815, 1.0795 " /><path d="M-3.38641, 0.418463 C-3.39822, 0.447564 -3.4154, 0.482875 -3.43793, 0.524398  C-3.47216, 0.586565 -3.51183, 0.640487 -3.52937, 0.662721 " /><path d="M-4.3815, -1.0795 Q-4.56301, -1.0795 -4.75325, -1.0795 " /><path d="M-3.62114, -0.766276 C-3.76092, -0.903493 -3.90733, -0.981159 -4.05493, -1.02892 " /><path d="M-4.05493, -1.02892 Q-4.2126, -1.07873 -4.37695, -1.07949 " /><path d="M-4.37695, -1.07949 L-4.3815, -1.0795 " /><path d="M-5.55625, -5.25991 L-5.49627, -5.3516 " /><path id= "52" d=" M -5.55625 -4.18041 L -5.55625 -5.25991 " />
<path d="M-5.55625, -5.55625 Q-5.55625, -5.55455 -5.55625, -5.25991 " /></g>

</svg>
