<svg xmlns="http://www.w3.org/2000/svg" viewBox="-7.442328 -6.582778 14.884656 13.165556">
<rect width="100%" height="100%" fill="white"/>
<g   fill="none"
   stroke="rgb(0, 0, 0)"
   stroke-linecap="butt"
   stroke-linejoin="miter"
   stroke-width="0.35"
   transform="scale(1, -1)"
  >
<path d="M-0.669252, 3.15054 L-0.670125, 3.15035 " /><path d="M2.09263, -2.44836 L2.09304, -2.44801 " /></g>
<g   fill="none"
   stroke="rgb(0, 0, 0)"
   stroke-linecap="butt"
   stroke-linejoin="miter"
   stroke-width="0.35"
   transform="scale(1, -1)"
  >
<path d="M2.9563, -0.460319 Q3.05212, -0.515642 3.15479, -0.574921 " /><path d="M2.89102, -1.44329e-15 Q2.94214, -0.226559 2.9563, -0.460319 " /><path d="M3.15479 -0.574921 A3.20675 3.20675 0 0 1 3.20675 -7.85427e-16" /><path d="M5.3516, -1.84325 L5.25991, -1.79031 " /><path d="M2.48065, -0.185705 Q2.7207, -0.324298 2.9563, -0.460319 " /><path id= "6" d=" M 5.25991 -1.79031 L 3.15479 -0.574921 " />
<path d="M3.20675 0 A3.20675 3.20675 0 0 1 3.15479 0.574921" /><path id= "8" d=" M 5.25991 1.79031 L 3.15479 0.574921 " />
<path d="M5.55625 0 A5.55625 5.55625 0 0 1 5.25991 1.79031" /><path d="M5.25991 -1.79031 A5.55625 5.55625 0 0 1 5.55625 -1.36089e-15" /><path d="M2.89102, 4.13548e-07 Q2.84935, 0.184636 2.78365, 0.360641 " /><path d="M3.15479, 0.574921 Q2.95692, 0.460679 2.78365, 0.360641 " /><path d="M2.48065, -0.185705 Q2.48759, -0.0929795 2.48759, -1.77636e-15 " /><path d="M6.4158, -8.43769e-14 C6.03512, -0.659366 5.68772, -1.26107 5.3516, -1.84325 " /><path d="M3.12535, -0.559354 Q3.15394, -0.574674 3.16405, -0.580269 " /><path d="M4.2721, -3.713 L4.28564, -3.68956  L4.32556, -3.62042  L4.38986, -3.50904  L4.47533, -3.36101  L4.57766, -3.18375  L4.69175, -2.98615  L4.81185, -2.77813  L4.93196, -2.5701  L5.04604, -2.3725  L5.14838, -2.19524  L5.23385, -2.04721  L5.29815, -1.93583  L5.33807, -1.86669  L5.3516, -1.84325 " /><path d="M2.04649, -2.42746 L1.99101, -2.39601 " /><path d="M2.05984, -2.41615 Q2.09597, -2.44328 2.09286, -2.4482 " /><path d="M2.09286, -2.4482 Q2.0874, -2.45062 2.04649, -2.42746 " /><path d="M1.55699, -1.94008 Q1.77369, -2.21262 2.05984, -2.41615 " /><path d="M1.55699, -1.94008 Q1.65103, -1.8669 1.77939, -1.73836 " /><path d="M2.42964, -0.533814 C2.50091, -0.644797 2.55613, -0.767575 2.59528, -0.902147  C2.63646, -1.05368 2.64851, -1.24438 2.54854, -1.41143  C2.49543, -1.50018 2.41602, -1.568 2.33364, -1.61397  C2.15225, -1.71307 1.96118, -1.73525 1.77939, -1.73836 " /><path d="M2.42964, -0.533814 Q2.4623, -0.376319 2.47105, -0.286404 " /><path d="M2.47105, -0.286404 Q2.81002, -0.385515 3.12535, -0.559354 " /><path d="M4.2721, -3.713 C3.93598, -4.29518 3.58859, -4.89688 3.2079, -5.55625 " /><path d="M5.3516, 1.84325 C5.68772, 1.26107 6.03512, 0.659366 6.4158, 8.4488e-14 " /><path d="M5.25991, 1.79031 L5.3516, 1.84325 " /><path d="M2.48065, 0.185705 L2.78365, 0.360641 " /><path d="M2.48759, 1.00102e-06 Q2.48759, 0.0929832 2.48065, 0.185705 " /><path d="M2.47105, -0.286404 Q2.48759, -0.143675 2.48759, -1.77636e-15 " /><path d="M0.357416, -2.46178 C0.27508, -2.51223 0.17335, -2.5482 0.0662969, -2.54729  C-0.0265265, -2.54491 -0.111235, -2.52265 -0.18783, -2.48049 " /><path d="M0.854714, -2.33615 C0.734743, -2.38006 0.565058, -2.43165 0.357416, -2.46178 " /><path d="M0.854714, -2.33615 Q1.23814, -2.19538 1.55699, -1.94008 " /><path d="M0.854714, -2.33615 C0.957352, -2.54238 1.01304, -2.7682 1.04634, -2.99764 " /><path d="M1.04634, -2.99764 Q1.05362, -3.04182 1.06336, -3.04024 " /><path d="M1.06336, -3.04024 Q1.07202, -3.03539 1.0744, -2.9877 " /><path d="M1.0744, -2.9877 Q1.0795, -2.8939 1.0795, -2.8005 " /><path d="M4.18041, -3.66006 L4.2721, -3.713 " /><path id= "39" d=" M 4.18041 -3.66006 L 2.08692 -2.45138 " />
<path d="M2.04608, -2.42781 Q2.07932, -2.447 2.08692, -2.45138 " /><path d="M1.40115, -2.05545 Q1.72645, -2.24327 2.04608, -2.42781 " /><path d="M5.3516, 1.84325 L5.33807, 1.86669  L5.29815, 1.93583  L5.23385, 2.04721  L5.14838, 2.19524  L5.04604, 2.3725  L4.93196, 2.5701  L4.81185, 2.77813  L4.69175, 2.98615  L4.57766, 3.18375  L4.47533, 3.36101  L4.38986, 3.50904  L4.32556, 3.62042  L4.28564, 3.68956  L4.2721, 3.713 " /><path d="M3.2079, 5.55625 C3.58859, 4.89688 3.93598, 4.29518 4.2721, 3.713 " /><path d="M1.0795 -5.45038 A5.55625 5.55625 0 0 1 4.18041 -3.66006" /><path d="M1.0795, -5.55625 L1.0795, -5.45038 " /><path d="M3.2079, -5.55625 C2.44653, -5.55625 1.75174, -5.55625 1.0795, -5.55625 " /><path d="M-1.0795, -5.55625 C-1.75174, -5.55625 -2.44653, -5.55625 -3.2079, -5.55625 " /><path d="M1.0795, -5.55625 L1.05243, -5.55625  L0.972596, -5.55625  L0.843987, -5.55625  L0.673057, -5.55625  L0.468377, -5.55625  L0.240211, -5.55625  L-2.2482e-15, -5.55625  L-0.240211, -5.55625  L-0.468377, -5.55625  L-0.673057, -5.55625  L-0.843987, -5.55625  L-0.972596, -5.55625  L-1.05243, -5.55625  L-1.0795, -5.55625 " /><path d="M2.47331, 0.266157 Q2.79692, 0.366852 3.09515, 0.540489 " /><path d="M2.47331, 0.266157 Q2.46684, 0.335271 2.44542, 0.456116 " /><path d="M2.8832, 1.32962 C2.86891, 1.1703 2.81485, 1.02951 2.74996, 0.900672  C2.66401, 0.738046 2.56249, 0.589861 2.44542, 0.456116 " /><path d="M2.51553, 1.93722 C2.55013, 1.92174 2.59048, 1.8922 2.6473, 1.82195  C2.66431, 1.80107 2.68435, 1.77357 2.70742, 1.73947  C2.73089, 1.70469 2.76075, 1.65635 2.78363, 1.61552  C2.84305, 1.50896 2.86231, 1.45433 2.87501, 1.40605  C2.88242, 1.37486 2.88515, 1.34939 2.8832, 1.32962 " /><path d="M2.51553, 1.93722 C2.36549, 2.0002 2.21332, 2.0187 2.06662, 2.02157  C1.88281, 2.02171 1.70478, 2.00101 1.53251, 1.95947 " /><path d="M1.53251, 1.95947 Q1.45452, 2.01934 1.42147, 2.04145 " /><path d="M1.42147, 2.04145 Q1.59237, 2.16603 1.77719, 2.27256 " /><path d="M2.48651, 0.0734768 Q2.48365, 0.170074 2.47331, 0.266157 " /><path d="M-0.18783, -2.48049 C-0.402497, -2.46447 -0.592256, -2.42091 -0.734738, -2.37661 " /><path d="M-1.78502, -1.73257 C-1.49624, -2.03075 -1.13145, -2.25444 -0.734738, -2.37661 " /><path d="M-1.78502, -1.73257 C-1.86457, -1.65198 -1.94519, -1.55517 -2.02689, -1.44217  C-2.16212, -1.2545 -2.27728, -1.02582 -2.34536, -0.82911 " /><path d="M2.48759, 6.00607e-07 L2.48754, 0.0165688 " /><path d="M2.44542, 0.456116 C2.33731, 1.04612 2.00619, 1.59143 1.53251, 1.95947 " /><path d="M1.4708, 2.00621 L1.45841, 2.01523 " /><path d="M1.42147, 2.04145 L1.40115, 2.05545 " /><path d="M1.0795, 2.24116 C0.422009, 2.56239 -0.377842, 2.56929 -1.0408, 2.25939 " /><path d="M-1.07949, 2.24116 L-1.14826, 2.20672 " /><path d="M-1.40115, 2.05545 C-1.6036, 1.9172 -1.78188, 1.75275 -1.93598, 1.56208  C-2.31408, 1.09652 -2.5133, 0.49055 -2.48522, -0.10855  C-2.47422, -0.355647 -2.4276, -0.595833 -2.34536, -0.82911 " /><path d="M-1.05182, -2.99572 Q-1.07958, -2.7514 -1.0795, -2.50775 " /><path d="M-1.00331, -3.01232 Q-1.01471, -3.05503 -1.03102, -3.05136 " /><path d="M-1.03102, -3.05136 Q-1.04625, -3.0444 -1.05182, -2.99572 " /><path d="M-0.734738, -2.37661 C-0.86855, -2.57224 -0.949876, -2.78924 -1.00331, -3.01232 " /><path d="M1.0795, -2.98494 L1.0795, -3.01959 " /><path id= "72" d=" M 1.0795 -3.01959 L 1.0795 -5.45038 " />
<path d="M1.0795, -2.24116 Q1.0795, -2.61741 1.0795, -2.98494 " /><path d="M1.0795, -2.24116 Q1.24727, -2.16033 1.40115, -2.05545 " /><path d="M2.08692, -2.45138 Q1.88146, -2.62174 1.65923, -2.74412 " /><path d="M1.65923, -2.74412 C1.47257, -2.84874 1.27568, -2.92967 1.09057, -2.98184 " /><path d="M1.0795 -3.01959 A3.20675 3.20675 0 0 1 1.65923 -2.74412" /><path d="M1.0795, 5.55625 C1.75174, 5.55625 2.44653, 5.55625 3.2079, 5.55625 " /><path d="M1.0795, 5.55625 L1.05243, 5.55625  L0.972596, 5.55625  L0.843987, 5.55625  L0.673057, 5.55625  L0.468377, 5.55625  L0.240211, 5.55625  L2.35922e-15, 5.55625  L-0.240211, 5.55625  L-0.468377, 5.55625  L-0.673057, 5.55625  L-0.843987, 5.55625  L-0.972596, 5.55625  L-1.05243, 5.55625  L-1.0795, 5.55625 " /><path d="M-3.2079, 5.55625 C-2.44653, 5.55625 -1.75174, 5.55625 -1.0795, 5.55625 " /><path d="M4.18041 3.66006 A5.55625 5.55625 0 0 1 1.0795 5.45038" /><path d="M4.2721, 3.713 L4.18041, 3.66006 " /><path d="M1.0795, 5.45038 L1.0795, 5.55625 " /><path d="M1.40115, 2.05545 Q1.69563, 2.22547 2.07529, 2.44467 " /><path id= "85" d=" M 4.18041 3.66006 L 2.07529 2.44467 " />
<path d="M-1.0795, -5.45038 L-1.0795, -5.55625 " /><path id= "87" d=" M -1.0795 -3.01959 L -1.0795 -5.45038 " />
<path d="M-1.0795, -3.01959 Q-1.0795, -2.90752 -1.0795, -2.80253 " /><path d="M-1.0795, -2.24116 Q-1.0795, -2.52385 -1.0795, -2.80253 " /><path d="M-4.18041 -3.66006 A5.55625 5.55625 0 0 1 -1.0795 -5.45038" /><path d="M-4.2721, -3.713 L-4.18041, -3.66006 " /><path d="M-3.2079, -5.55625 C-3.58859, -4.89688 -3.93598, -4.29518 -4.2721, -3.713 " /><path d="M-5.3516, -1.84325 C-5.68772, -1.26107 -6.03512, -0.659366 -6.4158, -8.2575e-14 " /><path d="M-4.2721, -3.713 L-4.28564, -3.68956  L-4.32556, -3.62042  L-4.38986, -3.50904  L-4.47533, -3.36101  L-4.57766, -3.18375  L-4.69175, -2.98615  L-4.81185, -2.77813  L-4.93196, -2.5701  L-5.04604, -2.3725  L-5.14838, -2.19524  L-5.23385, -2.04721  L-5.29815, -1.93583  L-5.33807, -1.86669  L-5.3516, -1.84325 " /><path d="M1.42147, 2.04145 L1.40115, 2.05545 " /><path d="M1.0795, 2.24116 L1.0636, 2.24875 " /><path d="M1.0636, 2.24875 Q1.07958, 2.41045 1.0795, 2.57444 " /><path d="M1.0636, 2.24875 Q1.03573, 2.26251 0.960413, 2.29472 " /><path d="M0.662721, 3.10507 C0.809129, 2.84725 0.89751, 2.57253 0.960413, 2.29472 " /><path d="M0.418463, 3.14731 C0.452631, 3.17128 0.510506, 3.18085 0.557852, 3.17216 " /><path d="M0.557852, 3.17216 Q0.632481, 3.15708 0.662721, 3.10507 " /><path d="M2.44542, 0.456116 C2.35406, 0.951185 2.10744, 1.416 1.74871, 1.76922 " /><path d="M-2.34535, -0.82913 Q-2.31422, -0.917188 -2.27657, -1.00266 " /><path d="M-2.10011, -1.33329 C-1.76856, -1.85961 -1.23192, -2.25128 -0.629617, -2.40659 " /><path d="M-0.46353, -2.44402 Q-0.0545285, -2.5211 0.357416, -2.46178 " /><path d="M0.448034, -2.44691 L0.550522, -2.42591 " /><path d="M0.760573, -2.36847 L0.851664, -2.33726 " /><path d="M0.854714, -2.33615 L0.955701, -2.29668 " /><path d="M1.55102, -1.94486 Q1.64742, -1.86797 1.73576, -1.78193 " /><path d="M1.77939, -1.73836 C2.23011, -1.28056 2.49008, -0.642424 2.48759, -8.88178e-16 " /><path d="M-2.34536, -0.82911 C-2.59928, -0.723313 -2.84832, -0.717446 -3.08575, -0.747533 " /><path d="M-3.06591, 0.825165 C-2.91365, 0.824935 -2.75581, 0.846542 -2.60142, 0.928588  C-2.49664, 0.984209 -2.39248, 1.07613 -2.31882, 1.20101  C-2.24815, 1.31915 -2.21087, 1.45555 -2.20077, 1.57914  C-2.18276, 1.80737 -2.23842, 2.00145 -2.31701, 2.17075 " /><path d="M-0.541751, 3.12845 C-0.431685, 3.0445 -0.278509, 2.97871 -0.101459, 2.97717  C0.100014, 2.97452 0.28524, 3.05254 0.418463, 3.14731 " /><path d="M-1.78502, -1.73257 C-1.83506, -1.98234 -1.9777, -2.17642 -2.13658, -2.34856 " /><path d="M-2.13658, -2.34856 Q-2.16561, -2.38185 -2.14994, -2.39824 " /><path d="M-2.14994, -2.39824 Q-2.13213, -2.4119 -2.08501, -2.39446 " /><path d="M-2.08501, -2.39446 Q-1.80918, -2.29125 -1.55868, -2.1464 " /><path d="M-2.4804, -0.188981 L-2.48065, -0.185705 " /><path d="M-3.10567, -0.659923 Q-2.81235, -0.39508 -2.4804, -0.188981 " /><path d="M-3.08575, -0.747533 Q-3.13025, -0.75154 -3.13856, -0.723351 " /><path d="M-3.13856, -0.723351 Q-3.14338, -0.6947 -3.10567, -0.659923 " /><path d="M1.09057, -2.98184 L1.0795, -2.98494 " /><path d="M-4.2721, 3.713 C-3.93598, 4.29518 -3.58859, 4.89688 -3.2079, 5.55625 " /><path d="M-5.3516, 1.84325 L-5.33807, 1.86669  L-5.29815, 1.93583  L-5.23385, 2.04721  L-5.14838, 2.19524  L-5.04604, 2.3725  L-4.93196, 2.5701  L-4.81185, 2.77813  L-4.69175, 2.98615  L-4.57766, 3.18375  L-4.47533, 3.36101  L-4.38986, 3.50904  L-4.32556, 3.62042  L-4.28564, 3.68956  L-4.2721, 3.713 " /><path d="M-6.4158, 8.61533e-14 C-6.03512, 0.659366 -5.68772, 1.26107 -5.3516, 1.84325 " /><path d="M-1.0795 5.45038 A5.55625 5.55625 0 0 1 -4.18041 3.66006" /><path d="M-1.0795, 5.55625 L-1.0795, 5.45038 " /><path d="M-4.18041, 3.66006 L-4.2721, 3.713 " /><path d="M-1.0795, 2.24116 Q-1.0795, 2.58119 -1.0795, 3.01959 " /><path id= "130" d=" M -1.0795 5.45038 L -1.0795 3.01959 " />
<path d="M-0.541751, 3.12845 C-0.572861, 3.15174 -0.626293, 3.16002 -0.669686, 3.15045 " /><path d="M-0.669686, 3.15045 Q-0.738061, 3.13401 -0.766276, 3.08115 " /><path d="M-0.766276, 3.08115 C-0.903493, 2.81954 -0.981159, 2.54251 -1.02892, 2.26483 " /><path d="M-1.02892, 2.26483 Q-1.07873, 2.2418 -1.07949, 2.24116 " /><path d="M-1.07949, 2.24116 L-1.0795, 2.25053 " /><path id= "136" d=" M 1.0795 5.45038 L 1.0795 3.01959 " />
<path d="M1.0795, 3.01959 Q1.0795, 2.58119 1.0795, 2.24116 " /><path d="M2.07529 2.44467 A3.20675 3.20675 0 0 1 1.0795 3.01959" /><path d="M1.40115 2.05545 A2.48759 2.48759 0 0 1 1.0795 2.24116" /><path d="M-1.40115, -2.05545 Q-1.24727, -2.16033 -1.0795, -2.24116 " /><path d="M-1.40115, -2.05545 Q-1.6124, -2.17742 -1.8201, -2.29733 " /><path d="M-1.0795, -2.80253 Q-1.48919, -2.60575 -1.8201, -2.29733 " /><path d="M-1.8201, -2.29733 Q-1.94198, -2.3677 -2.07529, -2.44467 " /><path d="M-2.07529 -2.44467 A3.20675 3.20675 0 0 1 -1.0795 -3.01959" /><path id= "145" d=" M -2.07529 -2.44467 L -4.18041 -3.66006 " />
<path d="M-5.25991, -1.79031 L-5.3516, -1.84325 " /><path id= "147" d=" M -3.15479 -0.574921 L -5.25991 -1.79031 " />
<path d="M-3.15479, -0.574921 Q-2.923, -0.441095 -2.72457, -0.326533 " /><path d="M-2.48065, -0.185705 L-2.72457, -0.326533 " /><path d="M-5.25991 1.79031 A5.55625 5.55625 0 0 1 -5.25991 -1.79031" /><path d="M-5.3516, 1.84325 L-5.25991, 1.79031 " /><path d="M2.45256, 0.415987 L2.45256, 0.416016 " /><path d="M2.44542, 0.456116 C2.33731, 1.04612 2.00619, 1.59143 1.53251, 1.95947 " /><path d="M1.47573, 2.00258 L1.40115, 2.05545 " /><path d="M1.0795, 2.24116 L1.0636, 2.24875 " /><path d="M1.02529, 2.26647 C0.378446, 2.56312 -0.395973, 2.56048 -1.0408, 2.25939 " /><path d="M-1.40383, 2.05362 C-1.59993, 1.91936 -1.77335, 1.76038 -1.92412, 1.57667  C-2.31034, 1.10849 -2.51422, 0.49509 -2.48511, -0.111133  C-2.47122, -0.411624 -2.40541, -0.700273 -2.28767, -0.977079 " /><path d="M-2.20541, -1.15077 Q-2.01293, -1.5186 -1.7121, -1.80467 " /><path d="M1.58107, -1.92051 Q1.63926, -1.87259 1.69446, -1.82125 " /><path d="M1.70692, -1.80957 L1.73562, -1.78206 " /><path d="M1.77939, -1.73836 Q1.95209, -1.56149 2.0867, -1.35417 " /><path d="M-2.31701, 2.17075 Q-2.33527, 2.21604 -2.30395, 2.25069 " /><path d="M-2.30395, 2.25069 Q-2.2709, 2.28198 -2.21735, 2.27246 " /><path d="M-2.48065, 0.185705 Q-2.48065, 0.185709 -2.48017, 0.19202 " /><path d="M-1.43675, 2.03073 Q-1.40134, 2.05551 -1.40115, 2.05545 " /><path d="M-2.21735, 2.27246 Q-1.81112, 2.19196 -1.43675, 2.03073 " /><path d="M-3.06591, 0.825165 Q-3.11239, 0.82278 -3.12392, 0.784172 " /><path d="M-3.12392, 0.784172 Q-3.13177, 0.745723 -3.09548, 0.706155 " /><path d="M-3.09548, 0.706155 Q-2.81464, 0.4087 -2.48017, 0.19202 " /><path d="M-2.48065, 0.185705 Q-2.49453, -1.71644e-05 -2.48065, -0.185705 " /><path d="M-2.67271, 0.296592 Q-2.89263, 0.423564 -3.15479, 0.574921 " /><path id= "172" d=" M -3.15479 0.574921 L -5.25991 1.79031 " />
<path d="M-2.48065, 0.185705 L-2.67271, 0.296592 " /><path id= "174" d=" M -2.07529 2.44467 L -4.18041 3.66006 " />
<path d="M-2.07529, 2.44467 Q-1.69563, 2.22547 -1.40115, 2.05545 " /><path d="M-1.0795 3.01959 A3.20675 3.20675 0 0 1 -2.07529 2.44467" /><path d="M-1.0795 2.24116 A2.48759 2.48759 0 0 1 -1.40115 2.05545" /><path d="M-1.07949, 2.24116 Q-1.24726, 2.16033 -1.40115, 2.05545 " /><path d="M-2.72457, -0.326533 Q-2.73469, -0.0112496 -2.67271, 0.296592 " /><path d="M-3.15479 0.574921 A3.20675 3.20675 0 0 1 -3.15479 -0.574921" /></g>

</svg>
