<svg xmlns="http://www.w3.org/2000/svg" viewBox="-5.961746 -6.556626 11.074962 12.623352">
<rect width="100%" height="100%" fill="white"/>
<g   fill="none"
   stroke="rgb(0, 0, 0)"
   stroke-linecap="butt"
   stroke-linejoin="miter"
   stroke-width="0.35"
   transform="scale(1, -1)"
  >
<path id= "1" d=" M -5.09117 -1.63299 L -5.09117 -1.95959 " />
<path id= "2" d=" M -1.13137 5.22558 L -0.848528 5.38888 " />
<path id= "3" d=" M -3.84853 -4.70625 L -3 -5.19615 " />
<path id= "4" d=" M 2.15147 5.68605 L 3 5.19615 " />
</g>
<g   fill="none"
   stroke="rgb(0, 0, 0)"
   stroke-linecap="butt"
   stroke-linejoin="miter"
   stroke-width="0.35"
   transform="scale(1, -1)"
  >
<path d="M1.13137 1.95959 A3.2 1.84752 60 0 1 0.468629 3.42448" />
<path d="M0.468629 3.42448 A3.2 1.84752 60 0 1 -2.73137 -2.11808" />
<path d="M-2.73137 -2.11808 A3.2 1.84752 60 0 1 1.13137 1.95959" />
<path d="M2.82843 2.93939 A5.6 3.23316 60 0 1 -1.13137 5.22558" />
<path d="M-1.13137 5.22558 A5.6 3.23316 60 0 1 -5.09117 -1.63299" />
<path d="M-5.09117 -1.63299 A5.6 3.23316 60 0 1 2.82843 2.93939" />
<path d="M3.39411 2.93939 A6 3.4641 60 0 1 2.15147 5.68605" />
<path d="M2.15147 5.68605 A6 3.4641 60 0 1 -0.848528 5.38888" />
<path d="M-5.09117 -1.95959 A6 3.4641 60 0 1 -3.84853 -4.70625" />
<path d="M-3.84853 -4.70625 A6 3.4641 60 0 1 3.39411 2.93939" />
<path d="M4.24264 2.44949 A6 3.4641 60 0 1 3 5.19615" />
<path d="M-3 -5.19615 A6 3.4641 60 0 1 4.24264 2.44949" />
<path d="M0.930978 2.91889 A3.2 1.84752 60 0 1 -2.06235 -2.2657" />
</g>

</svg>
