<svg xmlns="http://www.w3.org/2000/svg" viewBox="-3.8929048 -8.005494800000001 31.4627496 16.010989600000002">
<rect width="100%" height="100%" fill="white"/>
<g   fill="none"
   stroke="rgb(0, 0, 0)"
   stroke-linecap="butt"
   stroke-linejoin="miter"
   stroke-width="0.35"
   transform="scale(1, -1)"
  >
<path d="M25.4, 2.8607 L25.2284, 3.15587 " /><path d="M24.3614, 2.46333 L23.9584, 3.15587 " /><path d="M24.9964, -2.46332 L24.5934, -3.15587 " /><path d="M25.2574, -2.46332 Q25.2511, -2.44986 25.2224, -2.42651  Q25.1819, -2.39703 25.1268, -2.39594  Q25.0677, -2.39743 25.0263, -2.43036  Q25.0018, -2.45171 24.9964, -2.46332 " /><path d="M24.4919, 2.39594 Q24.4327, 2.39742 24.3913, 2.43035  Q24.3668, 2.4517 24.3614, 2.46333 " /><path d="M25.2574, -2.46332 L25.4, -2.70818 " /><path id= "7" d=" M 24.5712 -3.175 L 24.4125 -3.175 " />
<path d="M23.0914, 2.46333 L22.6884, 3.15587 " /><path d="M23.7264, -2.46332 L23.3234, -3.15587 " /><path d="M23.9874, -2.46332 Q23.9811, -2.44986 23.9524, -2.42651  Q23.9119, -2.39704 23.8568, -2.39594  Q23.7977, -2.39743 23.7563, -2.43036  Q23.7318, -2.45171 23.7264, -2.46332 " /><path d="M24.6224, 2.46333 Q24.6161, 2.44986 24.5874, 2.42651  Q24.5469, 2.39705 24.4919, 2.39594 " /><path d="M23.2219, 2.39595 Q23.1627, 2.39743 23.1213, 2.43035  Q23.0968, 2.45171 23.0914, 2.46333 " /><path d="M24.3903, -3.15587 L23.9874, -2.46332 " /><path d="M25.0253, 3.15586 L24.6224, 2.46333 " /><path id= "15" d=" M 23.3012 -3.175 L 23.1425 -3.175 " />
<path d="M21.8214, 2.46333 L21.4184, 3.15587 " /><path d="M22.4564, -2.46332 L22.0534, -3.15587 " /><path d="M22.7174, -2.46333 Q22.7112, -2.44986 22.6824, -2.42651  Q22.6419, -2.39704 22.5868, -2.39595  Q22.5277, -2.39743 22.4863, -2.43036  Q22.4618, -2.45171 22.4564, -2.46332 " /><path d="M23.3524, 2.46333 Q23.3461, 2.44987 23.3174, 2.42652  Q23.2769, 2.39705 23.2219, 2.39595 " /><path d="M21.9519, 2.39595 Q21.8927, 2.39743 21.8513, 2.43035  Q21.8268, 2.45171 21.8214, 2.46333 " /><path d="M23.1203, -3.15587 L22.7174, -2.46333 " /><path d="M23.7553, 3.15586 L23.3524, 2.46333 " /><path id= "23" d=" M 22.0312 -3.175 L 21.8725 -3.175 " />
<path d="M20.5514, 2.46334 L20.1484, 3.15587 " /><path d="M21.1864, -2.46333 L20.7834, -3.15587 " /><path d="M21.4474, -2.46333 Q21.4412, -2.44987 21.4124, -2.42652  Q21.3719, -2.39704 21.3168, -2.39595  Q21.2577, -2.39744 21.2163, -2.43036  Q21.1918, -2.45171 21.1864, -2.46333 " /><path d="M22.0824, 2.46333 Q22.0762, 2.44987 22.0474, 2.42652  Q22.0069, 2.39706 21.9519, 2.39595 " /><path d="M20.6819, 2.39596 Q20.6227, 2.39743 20.5813, 2.43036  Q20.5568, 2.45171 20.5514, 2.46334 " /><path d="M21.8503, -3.15587 L21.4474, -2.46333 " /><path d="M22.4853, 3.15586 L22.0824, 2.46333 " /><path id= "31" d=" M 20.7612 -3.175 L 20.6025 -3.175 " />
<path d="M19.2814, 2.46334 L18.8784, 3.15587 " /><path d="M19.9164, -2.46333 L19.5134, -3.15587 " /><path d="M20.1774, -2.46333 Q20.1712, -2.44987 20.1424, -2.42652  Q20.1019, -2.39705 20.0468, -2.39595  Q19.9877, -2.39744 19.9463, -2.43037  Q19.9218, -2.45172 19.9164, -2.46333 " /><path d="M20.8124, 2.46334 Q20.8062, 2.44987 20.7774, 2.42652  Q20.7369, 2.39706 20.6819, 2.39596 " /><path d="M19.4119, 2.39596 Q19.3527, 2.39744 19.3113, 2.43036  Q19.2868, 2.45172 19.2814, 2.46334 " /><path d="M20.5803, -3.15587 L20.1774, -2.46333 " /><path d="M21.2153, 3.15586 L20.8124, 2.46334 " /><path id= "39" d=" M 19.4912 -3.175 L 19.3325 -3.175 " />
<path d="M18.0114, 2.46334 L17.6084, 3.15587 " /><path d="M18.6464, -2.46333 L18.2434, -3.15587 " /><path d="M18.9074, -2.46334 Q18.9012, -2.44988 18.8724, -2.42653  Q18.8319, -2.39705 18.7769, -2.39596  Q18.7177, -2.39744 18.6763, -2.43037  Q18.6518, -2.45172 18.6464, -2.46333 " /><path d="M19.5424, 2.46334 Q19.5362, 2.44988 19.5074, 2.42653  Q19.4669, 2.39706 19.4119, 2.39596 " /><path d="M18.1419, 2.39596 Q18.0827, 2.39744 18.0413, 2.43036  Q18.0169, 2.45172 18.0114, 2.46334 " /><path d="M19.3103, -3.15587 L18.9074, -2.46334 " /><path d="M19.9453, 3.15586 L19.5424, 2.46334 " /><path id= "47" d=" M 18.2212 -3.175 L 18.0625 -3.175 " />
<path d="M16.7414, 2.46335 L16.3384, 3.15587 " /><path d="M17.3764, -2.46334 L16.9734, -3.15587 " /><path d="M17.6374, -2.46334 Q17.6312, -2.44988 17.6024, -2.42653  Q17.5619, -2.39705 17.5069, -2.39596  Q17.4477, -2.39745 17.4063, -2.43037  Q17.3819, -2.45172 17.3764, -2.46334 " /><path d="M18.2724, 2.46335 Q18.2662, 2.44988 18.2374, 2.42653  Q18.1969, 2.39707 18.1419, 2.39596 " /><path d="M16.8719, 2.39597 Q16.8127, 2.39744 16.7713, 2.43037  Q16.7469, 2.45172 16.7414, 2.46335 " /><path d="M18.0403, -3.15587 L17.6374, -2.46334 " /><path d="M18.6753, 3.15586 L18.2724, 2.46335 " /><path id= "55" d=" M 16.9512 -3.175 L 16.7925 -3.175 " />
<path d="M15.4714, 2.46335 L15.0684, 3.15587 " /><path d="M16.1064, -2.46334 L15.7034, -3.15588 " /><path d="M16.3674, -2.46334 Q16.3612, -2.44988 16.3324, -2.42653  Q16.2919, -2.39706 16.2369, -2.39596  Q16.1777, -2.39745 16.1363, -2.43038  Q16.1119, -2.45173 16.1064, -2.46334 " /><path d="M17.0024, 2.46335 Q16.9962, 2.44989 16.9674, 2.42654  Q16.9269, 2.39707 16.8719, 2.39597 " /><path d="M15.6019, 2.39597 Q15.5427, 2.39745 15.5013, 2.43037  Q15.4769, 2.45173 15.4714, 2.46335 " /><path d="M16.7703, -3.15587 L16.3674, -2.46334 " /><path d="M17.4053, 3.15586 L17.0024, 2.46335 " /><path id= "63" d=" M 15.6812 -3.175 L 15.5225 -3.175 " />
<path d="M14.2014, 2.46335 L13.7984, 3.15587 " /><path d="M14.8364, -2.46334 L14.4334, -3.15588 " /><path d="M15.0974, -2.46335 Q15.0912, -2.44989 15.0624, -2.42654  Q15.0219, -2.39706 14.9669, -2.39597  Q14.9077, -2.39745 14.8663, -2.43038  Q14.8419, -2.45173 14.8364, -2.46334 " /><path d="M15.7324, 2.46335 Q15.7262, 2.44989 15.6974, 2.42654  Q15.6569, 2.39707 15.6019, 2.39597 " /><path d="M14.3319, 2.39597 Q14.2727, 2.39745 14.2313, 2.43037  Q14.2069, 2.45173 14.2014, 2.46335 " /><path d="M15.5003, -3.15587 L15.0974, -2.46335 " /><path d="M16.1353, 3.15586 L15.7324, 2.46335 " /><path id= "71" d=" M 14.4112 -3.175 L 14.2525 -3.175 " />
<path d="M12.9314, 2.46336 L12.5284, 3.15587 " /><path d="M13.5664, -2.46335 L13.1634, -3.15588 " /><path d="M13.8274, -2.46335 Q13.8212, -2.44989 13.7924, -2.42654  Q13.7519, -2.39707 13.6969, -2.39597  Q13.6377, -2.39746 13.5963, -2.43038  Q13.5719, -2.45173 13.5664, -2.46335 " /><path d="M14.4624, 2.46336 Q14.4562, 2.4499 14.4274, 2.42654  Q14.3869, 2.39708 14.3319, 2.39597 " /><path d="M13.0619, 2.39598 Q13.0027, 2.39745 12.9613, 2.43038  Q12.9369, 2.45173 12.9314, 2.46336 " /><path d="M14.2303, -3.15587 L13.8274, -2.46335 " /><path d="M14.8653, 3.15586 L14.4624, 2.46336 " /><path id= "79" d=" M 13.1412 -3.175 L 12.9825 -3.175 " />
<path d="M11.6614, 2.46336 L11.2584, 3.15587 " /><path d="M12.2964, -2.46335 L11.8934, -3.15588 " /><path d="M12.5574, -2.46336 Q12.5512, -2.4499 12.5224, -2.42654  Q12.4819, -2.39707 12.4269, -2.39597  Q12.3677, -2.39746 12.3263, -2.43039  Q12.3019, -2.45173 12.2964, -2.46335 " /><path d="M13.1924, 2.46336 Q13.1862, 2.4499 13.1574, 2.42655  Q13.1169, 2.39708 13.0619, 2.39598 " /><path d="M11.7919, 2.39598 Q11.7327, 2.39746 11.6913, 2.43038  Q11.6669, 2.45174 11.6614, 2.46336 " /><path d="M12.9603, -3.15587 L12.5574, -2.46336 " /><path d="M13.5952, 3.15586 L13.1924, 2.46336 " /><path id= "87" d=" M 11.8712 -3.175 L 11.7125 -3.175 " />
<path d="M10.3914, 2.46336 L9.98845, 3.15587 " /><path d="M11.0264, -2.46335 L10.6234, -3.15588 " /><path d="M11.2874, -2.46336 Q11.2812, -2.4499 11.2524, -2.42655  Q11.2119, -2.39707 11.1569, -2.39598  Q11.0977, -2.39746 11.0563, -2.43039  Q11.0319, -2.45174 11.0264, -2.46335 " /><path d="M11.9224, 2.46336 Q11.9162, 2.4499 11.8874, 2.42655  Q11.8469, 2.39708 11.7919, 2.39598 " /><path d="M10.5219, 2.39598 Q10.4627, 2.39746 10.4213, 2.43038  Q10.3969, 2.45174 10.3914, 2.46336 " /><path d="M11.6903, -3.15587 L11.2874, -2.46336 " /><path d="M12.3252, 3.15586 L11.9224, 2.46336 " /><path id= "95" d=" M 10.6012 -3.175 L 10.4424 -3.175 " />
<path d="M9.12142, 2.46337 L8.71845, 3.15588 " /><path d="M9.75642, -2.46336 L9.35344, -3.15588 " /><path d="M10.0174, -2.46336 Q10.0112, -2.4499 9.98244, -2.42655  Q9.94192, -2.39708 9.88688, -2.39598  Q9.82771, -2.39747 9.7863, -2.43039  Q9.76187, -2.45174 9.75642, -2.46336 " /><path d="M10.6524, 2.46337 Q10.6462, 2.44991 10.6174, 2.42656  Q10.5769, 2.39709 10.5219, 2.39598 " /><path d="M9.2519, 2.39599 Q9.19273, 2.39746 9.15132, 2.43039  Q9.12687, 2.45174 9.12142, 2.46337 " /><path d="M10.4202, -3.15587 L10.0174, -2.46336 " /><path d="M11.0552, 3.15586 L10.6524, 2.46337 " /><path id= "103" d=" M 9.33125 -3.175 L 9.17244 -3.175 " />
<path d="M7.85142, 2.46337 L7.44845, 3.15588 " /><path d="M8.48642, -2.46336 L8.08344, -3.15588 " /><path d="M8.7474, -2.46337 Q8.74119, -2.44991 8.71244, -2.42656  Q8.67193, -2.39708 8.61688, -2.39598  Q8.55771, -2.39747 8.51631, -2.4304  Q8.49187, -2.45174 8.48642, -2.46336 " /><path d="M9.3824, 2.46337 Q9.37618, 2.44991 9.34744, 2.42656  Q9.30693, 2.39709 9.2519, 2.39599 " /><path d="M7.98191, 2.39599 Q7.92273, 2.39747 7.88132, 2.43039  Q7.85688, 2.45174 7.85142, 2.46337 " /><path d="M9.15024, -3.15587 L8.7474, -2.46337 " /><path d="M9.78524, 3.15586 L9.3824, 2.46337 " /><path id= "111" d=" M 8.06125 -3.175 L 7.90244 -3.175 " />
<path d="M6.58142, 2.46337 L6.17845, 3.15588 " /><path d="M7.21642, -2.46336 L6.81344, -3.15588 " /><path d="M7.4774, -2.46337 Q7.47119, -2.44991 7.44245, -2.42656  Q7.40193, -2.39708 7.34688, -2.39599  Q7.28771, -2.39747 7.24631, -2.4304  Q7.22188, -2.45175 7.21642, -2.46336 " /><path d="M8.1124, 2.46338 Q8.10619, 2.44992 8.07744, 2.42656  Q8.03694, 2.39709 7.98191, 2.39599 " /><path d="M6.71191, 2.39599 Q6.65274, 2.39747 6.61133, 2.43039  Q6.58688, 2.45175 6.58142, 2.46337 " /><path d="M7.88024, -3.15587 L7.4774, -2.46337 " /><path d="M8.51523, 3.15586 L8.1124, 2.46338 " /><path id= "119" d=" M 6.79125 -3.175 L 6.63244 -3.175 " />
<path d="M5.31142, 2.46338 L4.90845, 3.15588 " /><path d="M5.94643, -2.46337 L5.54345, -3.15588 " /><path d="M6.20741, -2.46337 Q6.20119, -2.44992 6.17245, -2.42656  Q6.13193, -2.39709 6.07689, -2.39599  Q6.01772, -2.39748 5.97631, -2.4304  Q5.95188, -2.45175 5.94643, -2.46337 " /><path d="M6.8424, 2.46338 Q6.83619, 2.44992 6.80745, 2.42657  Q6.76694, 2.3971 6.71191, 2.39599 " /><path d="M5.44191, 2.396 Q5.38274, 2.39747 5.34133, 2.4304  Q5.31688, 2.45175 5.31142, 2.46338 " /><path d="M6.61024, -3.15587 L6.20741, -2.46337 " /><path d="M7.24523, 3.15586 L6.8424, 2.46338 " /><path id= "127" d=" M 5.52125 -3.175 L 5.36243 -3.175 " />
<path d="M4.04143, 2.46338 L3.63845, 3.15588 " /><path d="M4.67643, -2.46337 L4.27345, -3.15588 " /><path d="M4.93741, -2.46338 Q4.9312, -2.44992 4.90245, -2.42657  Q4.86194, -2.39709 4.80689, -2.39599  Q4.74772, -2.39748 4.70632, -2.4304  Q4.68188, -2.45175 4.67643, -2.46337 " /><path d="M5.57241, 2.46338 Q5.56619, 2.44992 5.53745, 2.42657  Q5.49694, 2.3971 5.44191, 2.396 " /><path d="M4.17191, 2.396 Q4.11274, 2.39748 4.07133, 2.4304  Q4.04688, 2.45175 4.04143, 2.46338 " /><path d="M5.34023, -3.15587 L4.93741, -2.46338 " /><path d="M5.97523, 3.15586 L5.57241, 2.46338 " /><path id= "135" d=" M 4.25125 -3.175 L 3.40987 -3.175 " />
<path d="M4.30652, 2.46687 Q4.29899, 2.45145 4.27061, 2.42821  Q4.22874, 2.39712 4.17192, 2.396 " /><path d="M4.70653, 3.15582 L4.30652, 2.46687 " /><path d="M3.24585, -3.23632 Q3.31679, -3.17605 3.40987, -3.175 " /><path id= "139" d=" M 3.24585 -3.23632 L 0.255669 -5.83565 " />
<path id= "140" d=" M 0.255669 -5.83565 L 0 -5.83565 " />
<path d="M-1.72306 -1.57381 A10.1477 10.1477 0 0 1 -3.05533e-13 -5.83565" /></g>
<g   fill="none"
   stroke="rgb(0, 0, 0)"
   stroke-linecap="butt"
   stroke-linejoin="miter"
   stroke-width="0.35"
   transform="scale(1, -1)"
  >
<path d="M25.4, -0.547216 C25.4, 0.272613 25.4, 1.14421 25.4, 1.82458 " /><path d="M25.4, -2.70818 C25.4, -2.71074 25.4, -2.40599 25.4, -1.89132  C25.4, -1.52478 25.4, -1.05573 25.4, -0.547216 " /><path d="M25.4, 2.8607 C25.4, 2.86459 25.4, 2.47005 25.4, 1.82458 " /><path d="M25.0475, 3.175 C25.0922, 3.17676 25.137, 2.93497 25.1818, 2.49983  C25.2545, 1.80084 25.3273, 0.581866 25.4, -0.547216 " /><path d="M25.2062, 3.175 Q25.2173, 3.17499 25.2284, 3.15587 " /><path d="M25.2284, 3.15587 C25.2856, 3.06176 25.3428, 2.5637 25.4, 1.82458 " /><path id= "7" d=" M 25.2062 3.175 L 25.0475 3.175 " />
<path d="M23.9362, 3.175 Q23.9473, 3.17499 23.9584, 3.15587 " /><path d="M23.9584, 3.15587 C24.0065, 3.07541 24.0545, 2.71491 24.1025, 2.15983  C24.1602, 1.49791 24.2178, 0.560667 24.2755, -0.340954  C24.3198, -1.03327 24.3641, -1.69759 24.4084, -2.19865  C24.4627, -2.81747 24.5169, -3.17872 24.5712, -3.175 " /><path d="M24.5712, -3.175 Q24.5823, -3.17499 24.5934, -3.15587 " /><path id= "11" d=" M 23.9362 3.175 L 23.7775 3.175 " />
<path d="M23.7775, 3.175 C23.822, 3.17672 23.8664, 2.93807 23.9109, 2.50803  C23.9776, 1.87024 24.0442, 0.797482 24.1109, -0.249211  C24.1542, -0.928864 24.1976, -1.58843 24.241, -2.09886  C24.2907, -2.6879 24.3405, -3.07274 24.3903, -3.15587 " /><path d="M24.3903, -3.15587 Q24.4014, -3.17499 24.4125, -3.175 " /><path d="M25.0253, 3.15586 Q25.0364, 3.17499 25.0475, 3.175 " /><path d="M22.6662, 3.175 Q22.6773, 3.17499 22.6884, 3.15587 " /><path d="M22.6884, 3.15587 C22.7365, 3.07541 22.7845, 2.71491 22.8325, 2.15982  C22.8902, 1.49789 22.9478, 0.560611 23.0055, -0.341029  C23.0504, -1.04298 23.0953, -1.716 23.1402, -2.21949  C23.1939, -2.82582 23.2476, -3.17856 23.3012, -3.175 " /><path d="M23.3012, -3.175 Q23.3123, -3.17499 23.3234, -3.15587 " /><path id= "18" d=" M 22.6662 3.175 L 22.5075 3.175 " />
<path d="M22.5075, 3.175 C22.5524, 3.17678 22.5973, 2.93337 22.6422, 2.49561  C22.7085, 1.85571 22.7748, 0.787633 22.8411, -0.253632  C22.8845, -0.933572 22.9279, -1.59308 22.9713, -2.10299  C23.021, -2.68974 23.0706, -3.07291 23.1203, -3.15587 " /><path d="M23.1203, -3.15587 Q23.1314, -3.17499 23.1425, -3.175 " /><path d="M23.7553, 3.15586 Q23.7664, 3.17499 23.7775, 3.175 " /><path d="M21.3962, 3.175 Q21.4073, 3.17499 21.4184, 3.15587 " /><path d="M21.4184, 3.15587 C21.4665, 3.07541 21.5145, 2.7149 21.5625, 2.15981  C21.6202, 1.49785 21.6778, 0.560537 21.7355, -0.341129  C21.7829, -1.08253 21.8303, -1.79103 21.8778, -2.30269  C21.9289, -2.85883 21.9801, -3.17796 22.0312, -3.175 " /><path d="M22.0312, -3.175 Q22.0423, -3.17499 22.0534, -3.15587 " /><path id= "25" d=" M 21.3962 3.175 L 21.2375 3.175 " />
<path d="M21.2375, 3.175 C21.2821, 3.17674 21.3267, 2.93652 21.3713, 2.50394  C21.4382, 1.86265 21.505, 0.784634 21.5718, -0.264551  C21.6149, -0.938854 21.6579, -1.59234 21.701, -2.09895  C21.7507, -2.68794 21.8005, -3.07274 21.8503, -3.15587 " /><path d="M21.8503, -3.15587 Q21.8614, -3.17499 21.8725, -3.175 " /><path d="M22.4853, 3.15586 Q22.4964, 3.17499 22.5075, 3.175 " /><path d="M20.1262, 3.175 Q20.1373, 3.17499 20.1484, 3.15587 " /><path d="M20.1484, 3.15587 C20.1965, 3.07541 20.2445, 2.7149 20.2925, 2.1598  C20.3502, 1.49783 20.4079, 0.560481 20.4655, -0.341205  C20.5108, -1.04864 20.556, -1.7266 20.6013, -2.23137  C20.6546, -2.83057 20.7079, -3.17847 20.7612, -3.175 " /><path d="M20.7612, -3.175 Q20.7723, -3.17499 20.7834, -3.15587 " /><path id= "32" d=" M 20.1262 3.175 L 19.9675 3.175 " />
<path d="M19.9675, 3.175 C20.0119, 3.17672 20.0564, 2.93821 20.1009, 2.50841  C20.1679, 1.86755 20.2349, 0.786979 20.3018, -0.264706  C20.3449, -0.939083 20.3879, -1.59263 20.431, -2.09924  C20.4807, -2.68807 20.5305, -3.07275 20.5803, -3.15587 " /><path d="M20.5803, -3.15587 Q20.5914, -3.17499 20.6025, -3.175 " /><path d="M21.2153, 3.15586 Q21.2264, 3.17499 21.2375, 3.175 " /><path d="M18.8562, 3.175 Q18.8673, 3.17499 18.8784, 3.15587 " /><path d="M18.8784, 3.15587 C18.9265, 3.07541 18.9745, 2.7149 19.0225, 2.15979  C19.0802, 1.49778 19.1379, 0.560382 19.1955, -0.341337  C19.2407, -1.04702 19.2858, -1.72342 19.3309, -2.22775  C19.3844, -2.82912 19.4378, -3.1785 19.4912, -3.175 " /><path d="M19.4912, -3.175 Q19.5023, -3.17499 19.5134, -3.15587 " /><path id= "39" d=" M 18.8562 3.175 L 18.6975 3.175 " />
<path d="M18.6975, 3.175 C18.7424, 3.17678 18.7872, 2.93357 18.8321, 2.49614  C18.8986, 1.85459 18.9652, 0.782099 19.0317, -0.262057  C19.0744, -0.930863 19.1171, -1.57943 19.1597, -2.08457  C19.2099, -2.68154 19.2601, -3.07212 19.3103, -3.15587 " /><path d="M19.3103, -3.15587 Q19.3214, -3.17499 19.3325, -3.175 " /><path d="M19.9453, 3.15586 Q19.9564, 3.17499 19.9675, 3.175 " /><path d="M17.5862, 3.175 Q17.5973, 3.17499 17.6084, 3.15587 " /><path d="M17.6084, 3.15587 C17.6565, 3.07541 17.7045, 2.7149 17.7525, 2.15979  C17.8102, 1.49778 17.8679, 0.560375 17.9255, -0.341348  C17.9747, -1.10974 18.0238, -1.8423 18.0729, -2.35784  C18.1224, -2.88043 18.1718, -3.17759 18.2212, -3.175 " /><path d="M18.2212, -3.175 Q18.2323, -3.17499 18.2434, -3.15587 " /><path id= "46" d=" M 17.5862 3.175 L 17.4275 3.175 " />
<path d="M17.4275, 3.175 C17.4725, 3.1768 17.5176, 2.93183 17.5626, 2.49155  C17.629, 1.84902 17.6954, 0.777755 17.7618, -0.264717  C17.8049, -0.939099 17.8479, -1.59265 17.891, -2.09926  C17.9407, -2.68808 17.9905, -3.07275 18.0403, -3.15587 " /><path d="M18.0403, -3.15587 Q18.0514, -3.17499 18.0625, -3.175 " /><path d="M18.6753, 3.15586 Q18.6864, 3.17499 18.6975, 3.175 " /><path d="M16.3162, 3.175 Q16.3273, 3.17499 16.3384, 3.15587 " /><path d="M16.3384, 3.15587 C16.3865, 3.07541 16.4345, 2.7149 16.4825, 2.15979  C16.5402, 1.49776 16.5979, 0.560343 16.6555, -0.34139  C16.7004, -1.04272 16.7453, -1.71515 16.7901, -2.21842  C16.8438, -2.82539 16.8975, -3.17857 16.9512, -3.175 " /><path d="M16.9512, -3.175 Q16.9623, -3.17499 16.9734, -3.15587 " /><path id= "53" d=" M 16.3162 3.175 L 16.1575 3.175 " />
<path d="M16.1575, 3.175 C16.2021, 3.17675 16.2468, 2.93603 16.2914, 2.50264  C16.3581, 1.86297 16.4247, 0.789933 16.4913, -0.255856  C16.5344, -0.931482 16.5775, -1.58682 16.6206, -2.09504  C16.6705, -2.6862 16.7204, -3.07257 16.7703, -3.15587 " /><path d="M16.7703, -3.15587 Q16.7814, -3.17499 16.7925, -3.175 " /><path d="M17.4053, 3.15586 Q17.4164, 3.17499 17.4275, 3.175 " /><path d="M15.0462, 3.175 Q15.0573, 3.17499 15.0684, 3.15587 " /><path d="M15.0684, 3.15587 C15.1165, 3.07541 15.1645, 2.71489 15.2125, 2.15978  C15.2702, 1.49773 15.3279, 0.560278 15.3855, -0.341478  C15.4307, -1.04723 15.4758, -1.72364 15.521, -2.22797  C15.5744, -2.82921 15.6278, -3.1785 15.6812, -3.175 " /><path d="M15.6812, -3.175 Q15.6923, -3.17499 15.7034, -3.15588 " /><path id= "60" d=" M 15.0462 3.175 L 14.8875 3.175 " />
<path d="M14.8875, 3.175 C14.9319, 3.17671 14.9763, 2.9389 15.0207, 2.51023  C15.0877, 1.86971 15.1547, 0.788502 15.2218, -0.263954  C15.2648, -0.937952 15.3078, -1.5912 15.3508, -2.09779  C15.4007, -2.68742 15.4505, -3.07268 15.5003, -3.15587 " /><path d="M15.5003, -3.15587 Q15.5114, -3.17499 15.5225, -3.175 " /><path d="M16.1353, 3.15586 Q16.1464, 3.17499 16.1575, 3.175 " /><path d="M13.7762, 3.175 Q13.7873, 3.17499 13.7984, 3.15587 " /><path d="M13.7984, 3.15587 C13.8465, 3.07542 13.8945, 2.71489 13.9425, 2.15977  C14.0002, 1.49771 14.0579, 0.560227 14.1155, -0.341546  C14.1607, -1.04736 14.2058, -1.72383 14.251, -2.22816  C14.3044, -2.82929 14.3578, -3.17849 14.4112, -3.175 " /><path d="M14.4112, -3.175 Q14.4223, -3.17499 14.4334, -3.15588 " /><path id= "67" d=" M 13.7762 3.175 L 13.6175 3.175 " />
<path d="M13.6175, 3.175 C13.662, 3.17672 13.7065, 2.93756 13.751, 2.50667  C13.8176, 1.86917 13.8841, 0.798183 13.9507, -0.247114  C13.9942, -0.92952 14.0378, -1.5918 14.0813, -2.10339  C14.131, -2.68991 14.1806, -3.07292 14.2303, -3.15587 " /><path d="M14.2303, -3.15587 Q14.2414, -3.17499 14.2525, -3.175 " /><path d="M14.8653, 3.15586 Q14.8764, 3.17499 14.8875, 3.175 " /><path d="M12.5062, 3.175 Q12.5173, 3.17499 12.5284, 3.15587 " /><path d="M12.5284, 3.15587 C12.5765, 3.07542 12.6245, 2.71489 12.6725, 2.15976  C12.7302, 1.49766 12.7879, 0.560122 12.8455, -0.341688  C12.8934, -1.09014 12.9413, -1.80488 12.9891, -2.3176  C13.0398, -2.86469 13.0905, -3.17786 13.1412, -3.175 " /><path d="M13.1412, -3.175 Q13.1523, -3.17499 13.1634, -3.15588 " /><path id= "74" d=" M 12.5062 3.175 L 12.3475 3.175 " />
<path d="M12.3475, 3.175 C12.3921, 3.17674 12.4367, 2.93624 12.4814, 2.5032  C12.5482, 1.86214 12.6149, 0.785294 12.6817, -0.263008  C12.7247, -0.93646 12.7677, -1.58927 12.8107, -2.09581  C12.8605, -2.68654 12.9104, -3.0726 12.9603, -3.15587 " /><path d="M12.9603, -3.15587 Q12.9714, -3.17499 12.9825, -3.175 " /><path d="M13.5952, 3.15586 Q13.6064, 3.17499 13.6175, 3.175 " /><path d="M11.2362, 3.175 Q11.2473, 3.17499 11.2584, 3.15587 " /><path d="M11.2584, 3.15587 C11.3065, 3.07542 11.3545, 2.71488 11.4025, 2.15975  C11.4602, 1.49765 11.5179, 0.560088 11.5755, -0.341733  C11.6198, -1.03297 11.664, -1.69624 11.7082, -2.19691  C11.7626, -2.81677 11.8169, -3.17874 11.8712, -3.175 " /><path d="M11.8712, -3.175 Q11.8823, -3.17499 11.8934, -3.15588 " /><path id= "81" d=" M 11.2362 3.175 L 11.0774 3.175 " />
<path d="M11.0774, 3.175 C11.1222, 3.17675 11.1669, 2.93548 11.2116, 2.50118  C11.2781, 1.86208 11.3445, 0.791581 11.411, -0.252318  C11.4538, -0.923184 11.4966, -1.57435 11.5395, -2.08149  C11.5897, -2.68016 11.64, -3.07198 11.6903, -3.15587 " /><path d="M11.6903, -3.15587 Q11.7013, -3.17499 11.7125, -3.175 " /><path d="M12.3252, 3.15586 Q12.3363, 3.17499 12.3475, 3.175 " /><path d="M9.96625, 3.175 Q9.97735, 3.17499 9.98845, 3.15587 " /><path d="M9.98845, 3.15587 C10.0365, 3.07542 10.0845, 2.71488 10.1325, 2.15974  C10.1902, 1.49761 10.2479, 0.560015 10.3056, -0.341831  C10.3508, -1.04878 10.396, -1.72626 10.4412, -2.23082  C10.4946, -2.83035 10.5479, -3.17848 10.6012, -3.175 " /><path d="M10.6012, -3.175 Q10.6123, -3.17499 10.6234, -3.15588 " /><path id= "88" d=" M 9.96625 3.175 L 9.80744 3.175 " />
<path d="M9.80744, 3.175 C9.85223, 3.17677 9.89702, 2.93464 9.94181, 2.49896  C10.0085, 1.85721 10.0751, 0.782045 10.1418, -0.26435  C10.1848, -0.938551 10.2279, -1.59196 10.2709, -2.09856  C10.3207, -2.68776 10.3705, -3.07271 10.4202, -3.15587 " /><path d="M10.4202, -3.15587 Q10.4313, -3.17499 10.4424, -3.175 " /><path d="M11.0552, 3.15586 Q11.0663, 3.17499 11.0774, 3.175 " /><path d="M8.69625, 3.175 Q8.70735, 3.17499 8.71845, 3.15588 " /><path d="M8.71845, 3.15588 C8.76648, 3.07542 8.81451, 2.71488 8.86254, 2.15974  C8.92022, 1.4976 8.97789, 0.559985 9.03556, -0.341872  C9.08048, -1.04405 9.12539, -1.71721 9.17031, -2.22062  C9.22396, -2.82627 9.2776, -3.17855 9.33125, -3.175 " /><path d="M9.33125, -3.175 Q9.34235, -3.17499 9.35344, -3.15588 " /><path id= "95" d=" M 8.69625 3.175 L 8.53744 3.175 " />
<path d="M8.53744, 3.175 C8.58229, 3.17677 8.62714, 2.93398 8.67198, 2.49723  C8.73835, 1.8576 8.80471, 0.788918 8.87107, -0.253051  C8.91429, -0.930372 8.95751, -1.58749 9.00073, -2.09664  C9.05057, -2.68691 9.10041, -3.07263 9.15024, -3.15587 " /><path d="M9.15024, -3.15587 Q9.16134, -3.17499 9.17244, -3.175 " /><path d="M9.78524, 3.15586 Q9.79634, 3.17499 9.80744, 3.175 " /><path d="M7.42625, 3.175 Q7.43735, 3.17499 7.44845, 3.15588 " /><path d="M7.44845, 3.15588 C7.49648, 3.07542 7.54451, 2.71488 7.59254, 2.15973  C7.65022, 1.49758 7.70789, 0.559931 7.76556, -0.341945  C7.8098, -1.03339 7.85403, -1.69684 7.89827, -2.19753  C7.9526, -2.81702 8.00692, -3.17873 8.06125, -3.175 " /><path d="M8.06125, -3.175 Q8.07235, -3.17499 8.08344, -3.15588 " /><path id= "102" d=" M 7.42625 3.175 L 7.26744 3.175 " />
<path d="M7.26744, 3.175 C7.31233, 3.17678 7.35724, 2.9334 7.40214, 2.4957  C7.46842, 1.85619 7.5347, 0.78899 7.60098, -0.251734  C7.64436, -0.931508 7.68773, -1.591 7.73111, -2.10112  C7.78082, -2.6889 7.83053, -3.07282 7.88024, -3.15587 " /><path d="M7.88024, -3.15587 Q7.89134, -3.17499 7.90244, -3.175 " /><path d="M8.51523, 3.15586 Q8.52634, 3.17499 8.53744, 3.175 " /><path d="M6.15625, 3.175 Q6.16735, 3.17499 6.17845, 3.15588 " /><path d="M6.17845, 3.15588 C6.22648, 3.07542 6.27451, 2.71488 6.32254, 2.15972  C6.38022, 1.49755 6.4379, 0.55988 6.49557, -0.342014  C6.54062, -1.04631 6.58568, -1.72137 6.63073, -2.22527  C6.68424, -2.82813 6.73774, -3.17852 6.79125, -3.175 " /><path d="M6.79125, -3.175 Q6.80235, -3.17499 6.81344, -3.15588 " /><path id= "109" d=" M 6.15625 3.175 L 5.99743 3.175 " />
<path d="M5.99743, 3.175 C6.04238, 3.17679 6.08734, 2.93285 6.13229, 2.49424  C6.19849, 1.85481 6.2647, 0.788951 6.33091, -0.250636  C6.37417, -0.928559 6.41742, -1.58641 6.46068, -2.09609  C6.51053, -2.68666 6.56039, -3.0726 6.61024, -3.15587 " /><path d="M6.61024, -3.15587 Q6.62134, -3.17499 6.63244, -3.175 " /><path d="M7.24523, 3.15586 Q7.25633, 3.17499 7.26744, 3.175 " /><path d="M4.88625, 3.175 Q4.89735, 3.17499 4.90845, 3.15588 " /><path d="M4.90845, 3.15588 C4.95648, 3.07542 5.00451, 2.71487 5.05255, 2.15972  C5.11022, 1.49753 5.1679, 0.559832 5.22557, -0.342078  C5.27077, -1.04862 5.31597, -1.72571 5.36116, -2.23013  C5.41453, -2.83007 5.46789, -3.17848 5.52125, -3.175 " /><path d="M5.52125, -3.175 Q5.53235, -3.17499 5.54345, -3.15588 " /><path id= "116" d=" M 4.88625 3.175 L 4.72743 3.175 " />
<path d="M4.72743, 3.175 C4.77242, 3.1768 4.81742, 2.93235 4.86242, 2.49293  C4.92876, 1.85168 4.9951, 0.782442 5.06144, -0.259027  C5.1041, -0.927339 5.14675, -1.57566 5.18941, -2.08104  C5.23968, -2.67996 5.28996, -3.07196 5.34023, -3.15587 " /><path d="M5.34023, -3.15587 Q5.35133, -3.17499 5.36243, -3.175 " /><path d="M5.97523, 3.15586 Q5.98633, 3.17499 5.99743, 3.175 " /><path d="M3.61625, 3.175 Q3.62735, 3.17499 3.63845, 3.15588 " /><path d="M3.63845, 3.15588 C3.68649, 3.07542 3.73451, 2.71487 3.78255, 2.15971  C3.84022, 1.49751 3.8979, 0.55978 3.95558, -0.342148  C4.00051, -1.04457 4.04545, -1.71794 4.09038, -2.22137  C4.14401, -2.82657 4.19763, -3.17855 4.25125, -3.175 " /><path d="M4.25125, -3.175 Q4.26235, -3.17499 4.27345, -3.15588 " /><path d="M4.33067, 2.48767 C4.29905, 2.43172 4.23619, 2.39542 4.17192, 2.396 " /><path d="M4.17192, 2.396 L4.17191, 2.396 " /><path d="M4.72743, 3.175 L4.33067, 2.48767 " /><path id= "126" d=" M 3.61625 3.175 L 3.40987 3.175 " />
<path d="M4.70653, 3.15582 Q4.71763, 3.17499 4.72743, 3.175 " /><path d="M3.40987 3.175 A0.25 0.25 0 0 0 3.24585 3.23632" /><path id= "129" d=" M 3.24585 3.23632 L 0.255669 5.83565 " />
<path d="M0.255669, -5.83565 L0.255669, -5.68934  L0.255669, -5.25774  L0.255669, -4.56249  L0.255669, -3.63847  L0.255669, -2.53199  L0.255669, -1.29855  L0.255669, -1.11022e-15  L0.255669, 1.29855  L0.255669, 2.53199  L0.255669, 3.63847  L0.255669, 4.56249  L0.255669, 5.25774  L0.255669, 5.68934  L0.255669, 5.83565 " /><path id= "131" d=" M 0.255669 5.83565 L 0 5.83565 " />
<path d="M0, -5.83565 L0, -5.68934  L0, -5.25774  L0, -4.56249  L0, -3.63847  L0, -2.53199  L0, -1.29855  L0, -1.11022e-15  L0, 1.29855  L0, 2.53199  L0, 3.63847  L0, 4.56249  L0, 5.25774  L0, 5.68934  L0, 5.83565 " /><path d="M1.3074e-12 5.83565 A10.1477 10.1477 0 0 1 -1.72306 1.57381" /><path d="M-1.62374 1.86496 A10.1334 2.93549 174.25 0 1 -1.72306 1.57381" />
<path d="M-1.2849 2.65273 A10.1475 6.35424 174.25 0 1 -1.62374 1.86496" />
<path d="M-1.2849, 2.65273 Q-1.2849, 2.37461 -1.2849, 2.00819 " /><path d="M-1.62374 0.99 A10.1475 7.87196 7.11067 0 0 -1.2849 2.00819" />
<path d="M-1.72306 -3.85803e-14 A10.1334 9.65012 18.3157 0 0 -1.62374 0.99" />
<path d="M-1.62374 -0.99 A10.1334 9.65012 161.684 0 0 -1.72306 3.49165e-14" />
<path d="M-1.2849 -2.00819 A10.1475 7.87196 172.889 0 0 -1.62374 -0.99" />
<path d="M-1.2849, -2.00819 Q-1.2849, -2.37461 -1.2849, -2.65273 " /><path d="M-1.62374 -1.86496 A10.1475 6.35424 5.75 0 1 -1.2849 -2.65273" />
<path d="M-1.72306 -1.57381 A10.1334 2.93549 5.75 0 1 -1.62374 -1.86496" />
<path id= "144" d=" M -1.72306 1.57381 L -1.46025 1.54735 " />
<path id= "145" d=" M -1.72306 -1.57381 L -1.46025 -1.54735 " />
<path id= "146" d=" M -1.62374 -1.86496 L -1.35407 -1.83781 " />
<path id= "147" d=" M -1.62374 1.86496 L -1.35407 1.83781 " />
</g>

</svg>
