<svg xmlns="http://www.w3.org/2000/svg" viewBox="-6.769354 -6.769354 13.538708 13.538708">
<rect width="100%" height="100%" fill="white"/>
<g   fill="none"
   stroke="rgb(0, 0, 0)"
   stroke-linecap="butt"
   stroke-linejoin="miter"
   stroke-width="0.35"
   transform="scale(1, -1)"
  >
<circle cx ="0" cy ="0" r ="5.83565" /><path d="M1.86496 -0.99 A10.1334 0.971716 106.919 0 1 1.57381 3.16969e-14" />
<path d="M2.65273 -2.00819 A10.1475 0.792664 128.91 0 1 1.86496 -0.99" />
<path d="M2.65273 -2.00819 A3.32713 3.32713 0 0 0 2.00819 -2.65273" /><path d="M0.99 -1.86496 A10.1475 0.792664 -38.9105 0 1 2.00819 -2.65273" />
<path d="M-3.52496e-14 -1.57381 A10.1334 0.971716 -16.9194 0 1 0.99 -1.86496" />
<path d="M-0.99 -1.86496 A10.1334 0.971716 16.9194 0 1 3.17524e-14 -1.57381" />
<path d="M-2.00819 -2.65273 A10.1475 0.792664 38.9105 0 1 -0.99 -1.86496" />
<path d="M-2.00819 -2.65273 A3.32713 3.32713 0 0 0 -2.65273 -2.00819" /><path d="M-1.86496 -0.99 A10.1475 0.792664 -128.91 0 1 -2.65273 -2.00819" />
<path d="M-1.57381 3.51941e-14 A10.1334 0.971716 -106.919 0 1 -1.86496 -0.99" />
<path d="M-1.86496 0.99 A10.1334 0.971716 -73.0806 0 1 -1.57381 -3.17524e-14" />
<path d="M-2.65273 2.00819 A10.1475 0.792664 -51.0895 0 1 -1.86496 0.99" />
<path d="M-2.65273 2.00819 A3.32713 3.32713 0 0 0 -2.00819 2.65273" /><path d="M-0.99 1.86496 A10.1475 0.792664 141.09 0 1 -2.00819 2.65273" />
<path d="M3.52496e-14 1.57381 A10.1334 0.971716 163.081 0 1 -0.99 1.86496" />
<path d="M0.99 1.86496 A10.1334 0.971716 -163.081 0 1 -3.17524e-14 1.57381" />
<path d="M2.00819 2.65273 A10.1475 0.792664 -141.09 0 1 0.99 1.86496" />
<path d="M2.00819 2.65273 A3.32713 3.32713 0 0 0 2.65273 2.00819" /><path d="M1.86496 0.99 A10.1475 0.792664 51.0895 0 1 2.65273 2.00819" />
<path d="M1.57381 -3.51941e-14 A10.1334 0.971716 73.0806 0 1 1.86496 0.99" />
<path d="M1.205, 4.75175e-14 C1.29292, 0.273325 1.39439, 0.573499 1.53964, 0.99 " /><path id= "23" d=" M 1.57381 0 L 1.205 0 " />
<path id= "24" d=" M 1.86496 0.99 L 1.53964 0.99 " />
<path d="M1.59065, 1.04826 C1.8543, 1.28693 2.18954, 1.58993 2.65273, 2.00819 " /><path d="M1.53964, 0.99 L1.59065, 1.04826 " /><path d="M2.00819, 2.65273 C1.58993, 2.18954 1.28693, 1.8543 1.04826, 1.59065 " /><path d="M1.59065 1.04826 A1.905 1.905 0 0 1 1.04826 1.59065" /><path id= "29" d=" M 0.99 1.86496 L 0.99 1.53964 " />
<path d="M1.04826, 1.59065 L0.99, 1.53964 " /><path id= "31" d=" M 1.74728e-16 1.57381 L 1.33782e-16 1.205 " />
<path d="M0.99, 1.53964 C0.573499, 1.39439 0.273325, 1.29292 4.77396e-14, 1.205 " /><path id= "33" d=" M -0.99 1.86496 L -0.99 1.53964 " />
<path d="M-4.72955e-14, 1.205 C-0.273325, 1.29292 -0.573499, 1.39439 -0.99, 1.53964 " /><path d="M-1.04826, 1.59065 C-1.28693, 1.8543 -1.58993, 2.18954 -2.00819, 2.65273 " /><path d="M-0.99, 1.53964 L-1.04826, 1.59065 " /><path d="M-2.65273, 2.00819 C-2.18954, 1.58993 -1.8543, 1.28693 -1.59065, 1.04826 " /><path d="M-1.04826 1.59065 A1.905 1.905 0 0 1 -1.59065 1.04826" /><path id= "39" d=" M -1.86496 0.99 L -1.53964 0.99 " />
<path d="M-1.59065, 1.04826 L-1.53964, 0.99 " /><path id= "41" d=" M -1.57381 1.92737e-16 L -1.205 1.4757e-16 " />
<path d="M-1.53964, 0.99 C-1.39439, 0.573499 -1.29292, 0.273325 -1.205, 4.77396e-14 " /><path id= "43" d=" M -1.86496 -0.99 L -1.53964 -0.99 " />
<path d="M-1.205, -4.72955e-14 C-1.29292, -0.273325 -1.39439, -0.573499 -1.53964, -0.99 " /><path d="M-1.59065, -1.04826 C-1.8543, -1.28693 -2.18954, -1.58993 -2.65273, -2.00819 " /><path d="M-1.53964, -0.99 L-1.59065, -1.04826 " /><path d="M-2.00819, -2.65273 C-1.58993, -2.18954 -1.28693, -1.8543 -1.04826, -1.59065 " /><path d="M-1.59065 -1.04826 A1.905 1.905 0 0 1 -1.04826 -1.59065" /><path id= "49" d=" M -0.99 -1.86496 L -0.99 -1.53964 " />
<path d="M-1.04826, -1.59065 L-0.99, -1.53964 " /><path id= "51" d=" M -3.49457e-16 -1.57381 L -2.67564e-16 -1.205 " />
<path d="M-0.99, -1.53964 C-0.573499, -1.39439 -0.273325, -1.29292 -4.77396e-14, -1.205 " /><path id= "53" d=" M 0.99 -1.86496 L 0.99 -1.53964 " />
<path d="M4.72955e-14, -1.205 C0.273325, -1.29292 0.573499, -1.39439 0.99, -1.53964 " /><path d="M1.04826, -1.59065 C1.28693, -1.8543 1.58993, -2.18954 2.00819, -2.65273 " /><path d="M0.99, -1.53964 L1.04826, -1.59065 " /><path d="M2.65273, -2.00819 C2.18954, -1.58993 1.8543, -1.28693 1.59065, -1.04826 " /><path d="M1.04826 -1.59065 A1.905 1.905 0 0 1 1.59065 -1.04826" /><path id= "59" d=" M 1.86496 -0.99 L 1.53964 -0.99 " />
<path d="M1.59065, -1.04826 L1.53964, -0.99 " /><path d="M1.53964, -0.99 C1.39439, -0.573499 1.29292, -0.273325 1.205, -4.77396e-14 " /></g>

</svg>
