<svg xmlns="http://www.w3.org/2000/svg" viewBox="-7.248144 -7.248144 14.496288 14.496288">
<rect width="100%" height="100%" fill="white"/>
<g   fill="none"
   stroke="rgb(0, 0, 0)"
   stroke-linecap="butt"
   stroke-linejoin="miter"
   stroke-width="0.35"
   transform="scale(1, -1)"
  >
<path d="M2.56707 -1.9356 A9.99733 0.782709 128.748 0 1 1.83946 -0.99" />
<path d="M2.56707 -1.9356 A3.21503 3.21503 0 0 0 1.9356 -2.56707" /><path d="M0.99 -1.83946 A9.99733 0.782709 -38.7476 0 1 1.9356 -2.56707" />
<path d="M3.99125e-14 -1.54838 A9.98352 0.957342 -16.9194 0 1 0.99 -1.83946" />
<path d="M-0.99 -1.83946 A9.98352 0.957342 16.9194 0 1 -4.3493e-14 -1.54838" />
<path d="M-1.9356 -2.56707 A9.99733 0.782709 38.7476 0 1 -0.99 -1.83946" />
<path d="M-1.9356 -2.56707 A3.21503 3.21503 0 0 0 -2.56707 -1.9356" /><path d="M-1.83946 -0.99 A9.99733 0.782709 -128.748 0 1 -2.56707 -1.9356" />
<path d="M-1.54838 -3.99125e-14 A9.98352 0.957342 -106.919 0 1 -1.83946 -0.99" />
<path d="M-1.83946 0.99 A9.98352 0.957342 -73.0806 0 1 -1.54838 4.3493e-14" />
<path d="M-2.56707 1.9356 A9.99733 0.782709 -51.2524 0 1 -1.83946 0.99" />
<path d="M-2.56707 1.9356 A3.21503 3.21503 0 0 0 -1.9356 2.56707" /><path d="M-0.99 1.83946 A9.99733 0.782709 141.252 0 1 -1.9356 2.56707" />
<path d="M-3.99125e-14 1.54838 A9.98352 0.957342 163.081 0 1 -0.99 1.83946" />
<path d="M0.99 1.83946 A9.98352 0.957342 -163.081 0 1 4.3493e-14 1.54838" />
<path d="M1.9356 2.56707 A9.99733 0.782709 -141.252 0 1 0.99 1.83946" />
<path d="M1.9356 2.56707 A3.21503 3.21503 0 0 0 2.56707 1.9356" /><path d="M1.83946 0.99 A9.99733 0.782709 51.2524 0 1 2.56707 1.9356" />
<path d="M1.54838 3.99125e-14 A9.98352 0.957342 73.0806 0 1 1.83946 0.99" />
<path d="M1.83946 -0.99 A9.98352 0.957342 106.919 0 1 1.54838 -4.3493e-14" />
<path id= "21" d=" M 1.83946 -0.99 L 1.53964 -0.99 " />
<path id= "22" d=" M 1.54838 0 L 1.205 0 " />
<path d="M1.53964, -0.99 C1.39439, -0.573499 1.29292, -0.273325 1.205, -1.98674e-13 " /><path d="M2.56707, -1.9356 C2.1477, -1.55497 1.83745, -1.27312 1.59053, -1.04844 " /><path d="M1.59053, -1.04844 L1.53964, -0.99 " /><path d="M1.04844, -1.59053 C1.27312, -1.83745 1.55497, -2.1477 1.9356, -2.56707 " /><path d="M1.04844 -1.59053 A1.905 1.905 0 0 1 1.59053 -1.04844" /><path id= "28" d=" M 0.99 -1.83946 L 0.99 -1.53964 " />
<path d="M0.99, -1.53964 L1.04844, -1.59053 " /><path id= "30" d=" M -3.4381e-16 -1.54838 L -2.67564e-16 -1.205 " />
<path d="M1.98563e-13, -1.205 C0.273325, -1.29292 0.573499, -1.39439 0.99, -1.53964 " /><path id= "32" d=" M -0.99 -1.83946 L -0.99 -1.53964 " />
<path d="M-0.99, -1.53964 C-0.573499, -1.39439 -0.273325, -1.29292 -1.98827e-13, -1.205 " /><path d="M-1.9356, -2.56707 C-1.55497, -2.1477 -1.27312, -1.83745 -1.04844, -1.59053 " /><path d="M-1.04844, -1.59053 L-0.99, -1.53964 " /><path d="M-1.59053, -1.04844 C-1.83745, -1.27312 -2.1477, -1.55497 -2.56707, -1.9356 " /><path d="M-1.59053 -1.04844 A1.905 1.905 0 0 1 -1.04844 -1.59053" /><path id= "38" d=" M -1.83946 -0.99 L -1.53964 -0.99 " />
<path d="M-1.53964, -0.99 L-1.59053, -1.04844 " /><path id= "40" d=" M -1.54838 1.89622e-16 L -1.205 1.4757e-16 " />
<path d="M-1.205, -1.98563e-13 C-1.29292, -0.273325 -1.39439, -0.573499 -1.53964, -0.99 " /><path id= "42" d=" M -1.83946 0.99 L -1.53964 0.99 " />
<path d="M-1.53964, 0.99 C-1.39439, 0.573499 -1.29292, 0.273325 -1.205, 1.98674e-13 " /><path d="M-2.56707, 1.9356 C-2.1477, 1.55497 -1.83745, 1.27312 -1.59053, 1.04844 " /><path d="M-1.59053, 1.04844 L-1.53964, 0.99 " /><path d="M-1.04844, 1.59053 C-1.27312, 1.83745 -1.55497, 2.1477 -1.9356, 2.56707 " /><path d="M-1.04844 1.59053 A1.905 1.905 0 0 1 -1.59053 1.04844" /><path id= "48" d=" M -0.99 1.83946 L -0.99 1.53964 " />
<path d="M-0.99, 1.53964 L-1.04844, 1.59053 " /><path id= "50" d=" M 1.71905e-16 1.54838 L 1.33782e-16 1.205 " />
<path d="M-1.98563e-13, 1.205 C-0.273325, 1.29292 -0.573499, 1.39439 -0.99, 1.53964 " /><path id= "52" d=" M 0.99 1.83946 L 0.99 1.53964 " />
<path d="M0.99, 1.53964 C0.573499, 1.39439 0.273325, 1.29292 1.98674e-13, 1.205 " /><path d="M1.9356, 2.56707 C1.55497, 2.1477 1.27312, 1.83745 1.04844, 1.59053 " /><path d="M1.04844, 1.59053 L0.99, 1.53964 " /><path d="M1.59053, 1.04844 C1.83745, 1.27312 2.1477, 1.55497 2.56707, 1.9356 " /><path d="M1.59053 1.04844 A1.905 1.905 0 0 1 1.04844 1.59053" /><path id= "58" d=" M 1.83946 0.99 L 1.53964 0.99 " />
<path d="M1.53964, 0.99 L1.59053, 1.04844 " /><path d="M1.205, 1.98563e-13 C1.29292, 0.273325 1.39439, 0.573499 1.53964, 0.99 " /><circle cx ="0" cy ="0" r ="6.2484" /></g>

</svg>
