<svg xmlns="http://www.w3.org/2000/svg" viewBox="-7.54 -7.54 15.08 15.08">
<rect width="100%" height="100%" fill="white"/>
<g   fill="none"
   stroke="rgb(0, 0, 0)"
   stroke-linecap="butt"
   stroke-linejoin="miter"
   stroke-width="0.35"
   transform="scale(1, -1)"
  >
<path id= "1" d=" M 4 -6.5 L 4 6.5 " />
<path id= "2" d=" M -4 6.5 L 4 6.5 " />
<path id= "3" d=" M -4 -6.5 L -4 6.5 " />
<path id= "4" d=" M 4 -6.5 L -4 -6.5 " />
<circle cx ="0" cy ="0" r ="3.15" /><path id= "6" d=" M 4 6.5 L 6.5 6.5 " />
<path id= "7" d=" M 6.5 -6.5 L 6.5 6.5 " />
<path id= "8" d=" M 4 -6.5 L 6.5 -6.5 " />
<path id= "9" d=" M -4 -6.5 L -6.5 -6.5 " />
<path id= "10" d=" M -4 6.5 L -6.5 6.5 " />
<path d="M2.52998, 2.22045e-16 C2.57004, 0.524357 2.44054, 1.06217 2.16655, 1.51728  C1.88326, 1.99214 1.44543, 2.37499 0.933964, 2.59798  C0.396242, 2.83508 -0.219831, 2.8938 -0.798335, 2.76573  C-1.41482, 2.63212 -1.98477, 2.28796 -2.39689, 1.80415 " /><path d="M-2.39689, 1.80415 C-2.6705, 1.48858 -2.89541, 1.03476 -2.98042, 0.578722 " /><path d="M-2.98042, 0.578722 C-3.00155, 0.469451 -3.01582, 0.361095 -3.02323, 0.253654  C-3.03636, 0.0692558 -3.02791, -0.11254 -3.00545, -0.258183  C-2.99487, -0.325785 -2.98325, -0.379425 -2.97058, -0.419104 " /><path d="M-2.97058, -0.419104 C-2.81076, -0.920803 -2.5141, -1.37372 -2.12167, -1.70762  C-1.77287, -2.00613 -1.34894, -2.20878 -0.908372, -2.28478 " /><path d="M-0.908372 -2.28478 A2.45873 2.45873 0 0 1 2.28475 -0.908464" /><path d="M2.52998, -1.27676e-15 C2.50664, -0.315825 2.42304, -0.626051 2.28475, -0.908464 " /><path id= "17" d=" M -6.5 -6.5 L -6.5 6.5 " />
<path d="M-0.908372, -2.28478 C-1.26184, -2.14461 -1.58172, -1.92087 -1.83462, -1.63693  C-2.24254, -1.18292 -2.46993, -0.572487 -2.45844, 0.0377564  C-2.45123, 0.62978 -2.21992, 1.21536 -1.82061, 1.6525  C-1.46978, 2.04075 -0.99159, 2.3112 -0.478077, 2.41181  C-0.0445143, 2.49836 0.412194, 2.46453 0.828268, 2.31503  C1.27806, 2.15496 1.67852, 1.86007 1.96488, 1.47805  C2.2838, 1.0561 2.45995, 0.528907 2.45873, 4.44089e-16 " /><path d="M2.45873, -2.19212e-07 C2.45888, -0.310194 2.3995, -0.620263 2.28475, -0.908463 " /><path d="M-0.938312, -2.27265 L-0.962156, -2.26266 " /><path d="M-2.18354, 1.13028 C-1.8511, 1.78167 -1.21267, 2.26501 -0.495592, 2.40827  C-0.0567715, 2.49922 0.406717, 2.46656 0.828444, 2.31496  C1.28221, 2.15347 1.68571, 1.85469 1.97256, 1.46778  C2.28668, 1.04759 2.45991, 0.524613 2.45873, -1.10063e-07 " /><path d="M2.45873, -2.19212e-07 C2.45888, -0.310194 2.3995, -0.620263 2.28475, -0.908463 " /><path d="M-0.908373, -2.28478 C-1.26116, -2.14488 -1.5805, -1.92173 -1.83317, -1.63856  C-2.23726, -1.18952 -2.46486, -0.587159 -2.45868, 0.0169014  C-2.45651, 0.613825 -2.22635, 1.20606 -1.82487, 1.6478  C-1.47691, 2.03485 -1.00268, 2.30575 -0.49253, 2.4089  C-0.0507994, 2.49988 0.415751, 2.46559 0.839432, 2.311  C1.28876, 2.14866 1.68803, 1.85153 1.97258, 1.46775  C2.28669, 1.04757 2.45991, 0.524601 2.45873, -2.19212e-07 " /><path d="M2.45873, -3.28818e-07 C2.46025, -0.559635 2.26236, -1.11703 1.90828, -1.55044  C1.62616, -1.89866 1.24669, -2.16682 0.824252, -2.31646  C0.268168, -2.5163 -0.359945, -2.50483 -0.908372, -2.28478 " /></g>

</svg>
