<svg xmlns="http://www.w3.org/2000/svg" viewBox="-2.3698568 -2.4436868 10.3187336 7.7440636">
<rect width="100%" height="100%" fill="white"/>
<g   fill="none"
   stroke="rgb(0, 0, 0)"
   stroke-linecap="butt"
   stroke-linejoin="miter"
   stroke-width="0.35"
   transform="scale(1, -1)"
  >
<path d="M1, 1.73205 C0.661883, 1.93085 0.26888, 2.0296 -0.0917157, 1.98967  C-0.460365, 1.9525 -0.791445, 1.79078 -1.06136, 1.56743  C-1.28567, 1.37924 -1.46918, 1.15818 -1.61188, 0.904243  C-1.74731, 0.666015 -1.83913, 0.411295 -1.88733, 0.140082  C-1.94776, -0.212092 -1.92093, -0.587674 -1.76174, -0.931232  C-1.68679, -1.09353 -1.58471, -1.24272 -1.4555, -1.37882  C-1.32232, -1.51693 -1.17048, -1.63467 -1, -1.73205 " /><path id= "2" d=" M 1.35184 0.160593 L 1.40332 0.130874 " />
<path id= "3" d=" M 0.692775 -1.34105 L 0.871171 -1.44405 " />
<path id= "4" d=" M 1.91753 -0.166003 L 1.969 -0.195721 " />
<path id= "5" d=" M 1.25846 -1.66765 L 1.43685 -1.77065 " />
<path id= "6" d=" M 2.48321 -0.492599 L 2.53468 -0.522317 " />
<path id= "7" d=" M 1.82414 -1.99425 L 2.00253 -2.09724 " />
<path id= "8" d=" M 3.04889 -0.819194 L 3.10036 -0.848912 " />
<path id= "9" d=" M 2.38982 -2.32084 L 2.56821 -2.42384 " />
<path id= "10" d=" M 3.61457 -1.14579 L 3.66604 -1.17551 " />
<path id= "11" d=" M 2.9555 -2.64744 L 3.13389 -2.75043 " />
<path id= "12" d=" M 4.18025 -1.47239 L 4.23172 -1.5021 " />
<path id= "13" d=" M 3.52118 -2.97403 L 3.69957 -3.07703 " />
<path id= "14" d=" M 4.74593 -1.79898 L 4.7974 -1.8287 " />
<path id= "15" d=" M 4.08686 -3.30063 L 4.26525 -3.40362 " />
<path id= "16" d=" M 5.31161 -2.12558 L 5.36308 -2.15529 " />
<path id= "17" d=" M 4.65254 -3.62723 L 4.83093 -3.73022 " />
<path id= "18" d=" M 5.87729 -2.45217 L 5.92876 -2.48189 " />
<path id= "19" d=" M 5.21822 -3.95382 L 5.39661 -4.05681 " />
<path id= "20" d=" M 6.44297 -2.77877 L 6.49444 -2.80848 " />
<path id= "21" d=" M 5.7839 -4.28042 L 5.96229 -4.38341 " />
<path id= "22" d=" M 7.00865 -3.10537 L 7.06845 -3.13989 " />
<path id= "23" d=" M 6.71751 -4.47848 L 6.66095 -4.51114 " />
</g>
<g   fill="none"
   stroke="rgb(0, 0, 0)"
   stroke-linecap="butt"
   stroke-linejoin="miter"
   stroke-width="0.35"
   transform="scale(1, -1)"
  >
<path d="M-0.764288, 0.842538 Q-0.746742, 0.802223 -0.724065, 0.752772 " /><path d="M1.41421 0.816497 A2 1.1547 60 0 1 1 1.73205" />
<path d="M-1 -1.73205 A2 1.1547 60 0 1 1.41421 0.816497" />
<path d="M-0.724065, 0.965061 Q-0.746742, 0.898918 -0.764288, 0.842538 " /><path d="M-0.376142, 1.41978 C-0.516048, 1.27071 -0.639065, 1.09724 -0.724065, 0.965061 " /><path d="M-0.616731, 1.55868 Q-0.469026, 1.5367 -0.376142, 1.41978 " /><path d="M-1.01395, 1.13243 C-0.9169, 1.25763 -0.776447, 1.42102 -0.616731, 1.55868 " /><path d="M-1.1118, 1.04318 Q-1.06812, 1.08446 -1.01395, 1.13243 " /><path d="M-1.1978, 1.02628 Q-1.15186, 1.03612 -1.1118, 1.04318 " /><path d="M-1.41763, 1.09628 C-1.35849, 1.08499 -1.26977, 1.05391 -1.1978, 1.02628 " /><path d="M-1.65822, 0.679566 Q-1.56534, 0.903748 -1.41763, 1.09628 " /><path d="M-1.48769, 0.524184 C-1.54759, 0.572697 -1.61887, 0.633985 -1.65822, 0.679566 " /><path d="M-1.45932, 0.441262 Q-1.47323, 0.47948 -1.48769, 0.524184 " /><path d="M-1.48769, 0.311895 Q-1.47323, 0.382784 -1.45932, 0.441262 " /><path d="M-1.65822, -0.245235 C-1.61887, -0.0381094 -1.5476, 0.165227 -1.48769, 0.311895 " /><path d="M-1.41763, -0.384139 Q-1.56534, -0.362164 -1.65822, -0.245235 " /><path d="M-1.1978, 0.144529 C-1.26977, 0.00483826 -1.35848, -0.188421 -1.41763, -0.384139 " /><path d="M-1.1118, 0.240624 Q-1.15186, 0.197238 -1.1978, 0.144529 " /><path d="M-1.01395, 0.250673 Q-1.06812, 0.245586 -1.1118, 0.240624 " /><path d="M-0.616731, 0.0782616 C-0.776432, 0.147607 -0.91689, 0.208562 -1.01395, 0.250673 " /><path d="M-0.376142, 0.494974 Q-0.469026, 0.270792 -0.616731, 0.0782616 " /><path d="M-0.724065, 0.752772 C-0.639074, 0.689776 -0.516062, 0.598617 -0.376142, 0.494974 " /><path d="M-1.3702, -0.243412 Q-1.50337, -0.244322 -1.65822, -0.245235 " /><path id= "24" d=" M -1.48769 0.311895 L -1.17481 0.170764 " />
<path id= "25" d=" M -1.45932 0.441262 L -1.03283 0.248883 " />
<path id= "26" d=" M -1.48769 0.524184 L -0.587059 0.117933 " />
<path d="M-1.65822, 0.679566 C-1.14863, 0.420886 -0.820812, 0.254358 -0.577837, 0.130744 " /><path d="M-0.402146, 0.435049 C-0.630686, 0.583665 -0.938814, 0.784302 -1.41763, 1.09628 " /><path id= "29" d=" M -1.1978 1.02628 L -0.395662 0.449441 " />
<path id= "30" d=" M -1.1118 1.04318 L -0.731953 0.770014 " />
<path id= "31" d=" M -1.01395 1.13243 L -0.735291 0.932034 " />
<path d="M-0.616731, 1.55868 Q-0.540095, 1.42412 -0.474299, 1.30833 " /><path d="M1.64283, -0.283045 C1.61988, -0.0946201 1.53415, 0.0563377 1.40332, 0.130874 " /><path d="M0.311649, -1.41292 C0.409484, -1.45373 0.539662, -1.43267 0.675516, -1.3516  C0.811303, -1.27129 0.951936, -1.13138 1.06886, -0.955066  C1.30718, -0.603599 1.42918, -0.108362 1.33594, 0.235562 " /><path d="M2.20851, -0.60964 C2.18556, -0.421215 2.09983, -0.270258 1.969, -0.195722 " /><path d="M0.871171, -1.44405 C0.97967, -1.50953 1.16472, -1.43586 1.32635, -1.24879  C1.53704, -1.01371 1.68691, -0.600337 1.64283, -0.283045 " /><path d="M0.692044, -1.34151 C0.679703, -1.6201 0.821326, -1.78839 1.03352, -1.75635  C1.24363, -1.73071 1.51335, -1.50518 1.69747, -1.17969  C1.88449, -0.857194 1.97614, -0.44842 1.91302, -0.141423  C1.85485, 0.16905 1.64321, 0.36457 1.36475, 0.359822 " /><path d="M2.77419, -0.936236 C2.75124, -0.747811 2.66551, -0.596853 2.53468, -0.522317 " /><path d="M1.43685, -1.77065 C1.53215, -1.82739 1.68588, -1.77951 1.83164, -1.63879  C1.94102, -1.53449 2.04432, -1.38061 2.11476, -1.20797  C2.19549, -1.01224 2.23223, -0.79406 2.20851, -0.60964 " /><path d="M1.25772, -1.66811 C1.24499, -1.95269 1.3932, -2.12155 1.61236, -2.08092  C1.82937, -2.04719 2.10507, -1.80488 2.28571, -1.46568  C2.46968, -1.12943 2.54812, -0.711757 2.46577, -0.411761  C2.38872, -0.107635 2.15317, 0.0648957 1.86051, 0.0291251 " /><path d="M3.33987, -1.26283 C3.31692, -1.07441 3.23119, -0.923449 3.10036, -0.848912 " /><path d="M2.00253, -2.09724 C2.09756, -2.15381 2.25068, -2.1064 2.39607, -1.96657  C2.50594, -1.86222 2.60979, -1.70778 2.6805, -1.53442  C2.76119, -1.33873 2.79791, -1.12061 2.77419, -0.936236 " /><path d="M1.8234, -1.99471 C1.81067, -2.27929 1.95888, -2.44814 2.17804, -2.40752  C2.39505, -2.37379 2.67075, -2.13148 2.85139, -1.79227  C3.03536, -1.45602 3.1138, -1.03835 3.03145, -0.738357  C2.9544, -0.43423 2.71885, -0.2617 2.42619, -0.29747 " /><path d="M3.90555, -1.58943 C3.8826, -1.401 3.79687, -1.25004 3.66604, -1.17551 " /><path d="M2.56821, -2.42384 C2.67668, -2.48929 2.86167, -2.41568 3.02327, -2.22873  C3.234, -1.99367 3.38396, -1.58026 3.33987, -1.26283 " /><path d="M2.38908, -2.3213 C2.37635, -2.60588 2.52456, -2.77474 2.74372, -2.73411  C2.96073, -2.70038 3.23643, -2.45807 3.41707, -2.11887  C3.60104, -1.78262 3.67948, -1.36495 3.59713, -1.06495  C3.52008, -0.760826 3.28453, -0.588295 2.99187, -0.624066 " /><path d="M4.47123, -1.91602 C4.44828, -1.7276 4.36255, -1.57664 4.23172, -1.5021 " /><path d="M3.13389, -2.75043 C3.22888, -2.80697 3.38189, -2.75964 3.52723, -2.61996  C3.63697, -2.51579 3.74074, -2.36163 3.81148, -2.18853  C3.89243, -1.9926 3.92931, -1.77409 3.90555, -1.58943 " /><path d="M2.95476, -2.6479 C2.94203, -2.93248 3.09024, -3.10134 3.3094, -3.06071  C3.52641, -3.02698 3.80211, -2.78467 3.98275, -2.44547  C4.16672, -2.10921 4.24516, -1.69154 4.16281, -1.39155  C4.08576, -1.08742 3.85022, -0.914891 3.55755, -0.950661 " /><path d="M5.03691, -2.24262 C5.01396, -2.05419 4.92823, -1.90323 4.7974, -1.8287 " /><path d="M3.69957, -3.07703 C3.79481, -3.13373 3.94839, -3.08596 4.09406, -2.94545  C4.20321, -2.84147 4.30633, -2.68811 4.37682, -2.51596  C4.458, -2.31982 4.49502, -2.10095 4.47123, -1.91602 " /><path d="M3.52044, -2.97449 C3.50771, -3.25908 3.65593, -3.42793 3.87508, -3.38731  C4.09209, -3.35358 4.36779, -3.11126 4.54843, -2.77206  C4.7324, -2.43581 4.81084, -2.01814 4.72849, -1.71814  C4.65144, -1.41402 4.4159, -1.24149 4.12323, -1.27726 " /><path d="M5.60259, -2.56921 C5.57963, -2.38079 5.49391, -2.22983 5.36308, -2.15529 " /><path d="M4.26525, -3.40362 C4.35153, -3.4546 4.48529, -3.42122 4.6181, -3.30936  C4.83282, -3.13518 5.02808, -2.7547 5.04247, -2.41439  C5.04562, -2.35491 5.04377, -2.29765 5.03691, -2.24262 " /><path d="M4.08612, -3.30109 C4.07339, -3.58567 4.22161, -3.75453 4.44076, -3.7139  C4.65777, -3.68017 4.93347, -3.43786 5.11411, -3.09866  C5.29808, -2.7624 5.37652, -2.34474 5.29417, -2.04474  C5.21712, -1.74061 4.98158, -1.56808 4.68891, -1.60385 " /><path d="M6.16827, -2.89581 C6.14532, -2.70738 6.05958, -2.55642 5.92876, -2.48189 " /><path d="M4.83093, -3.73022 C4.92595, -3.78677 5.07901, -3.73939 5.22437, -3.59965  C5.33417, -3.49539 5.43798, -3.34109 5.50871, -3.16786  C5.58953, -2.97205 5.62633, -2.75373 5.60259, -2.56921 " /><path d="M4.65181, -3.62769 C4.63907, -3.91227 4.78729, -4.08112 5.00644, -4.0405  C5.22345, -4.00677 5.49916, -3.76446 5.6798, -3.42525  C5.86376, -3.089 5.9422, -2.67133 5.85985, -2.37133  C5.7828, -2.06721 5.54726, -1.89468 5.25459, -1.93045 " /><path d="M6.73395, -3.2224 C6.71099, -3.03398 6.62527, -2.88302 6.49444, -2.80848 " /><path d="M5.39661, -4.05681 C5.4918, -4.11348 5.64523, -4.0658 5.79081, -3.92551  C5.89991, -3.82167 6.00303, -3.66846 6.07358, -3.49643  C6.15495, -3.30012 6.19209, -3.08095 6.16827, -2.89581 " /><path d="M5.21749, -3.95428 C5.20475, -4.23886 5.35297, -4.40772 5.57212, -4.36709  C5.78913, -4.33336 6.06484, -4.09105 6.24548, -3.75185  C6.42944, -3.4156 6.50788, -2.99793 6.42554, -2.69793  C6.34848, -2.3938 6.11294, -2.22127 5.82027, -2.25704 " /><path d="M7.23724 -3.51298 A0.815 0.47054 60 0 1 7.06845 -3.13989" />
<path d="M6.37746 -4.58874 A0.815 0.47054 60 0 1 6.66095 -4.51114" />
<path d="M6.66095 -4.51114 A0.815 0.47054 60 0 1 7.23724 -3.51298" />
<path d="M5.96229, -4.38341 C6.07082, -4.4489 6.25593, -4.37518 6.41757, -4.18803  C6.62819, -3.95294 6.77802, -3.53972 6.73395, -3.2224 " /><path d="M5.78317, -4.28088 C5.77043, -4.56546 5.91865, -4.73432 6.1378, -4.69369  C6.35481, -4.65996 6.63052, -4.41765 6.81116, -4.07844  C6.99512, -3.74219 7.07356, -3.32452 6.99122, -3.02453  C6.91416, -2.7204 6.67862, -2.54787 6.38595, -2.58364 " /><path id= "67" d=" M 7.23724 -3.51298 L 7.23724 -3.5783 " />
<path d="M6.71751 -4.47848 A0.735 0.424352 60 0 1 7.23724 -3.5783" />
</g>

</svg>
