<svg xmlns="http://www.w3.org/2000/svg" viewBox="-2.4581164 -2.8857864 12.8439028 5.7715728">
<rect width="100%" height="100%" fill="white"/>
<g   fill="none"
   stroke="rgb(0, 0, 0)"
   stroke-linecap="butt"
   stroke-linejoin="miter"
   stroke-width="0.35"
   transform="scale(1, -1)"
  >
<path d="M5.55112e-17, -2 C-0.227073, -2.00001 -0.454059, -1.96979 -0.662395, -1.89003  C-0.855108, -1.817 -1.02879, -1.69873 -1.16347, -1.54367  C-1.41265, -1.25837 -1.52603, -0.874138 -1.57233, -0.49146 " /><path d="M0.285, -0.815 C0.119247, -0.980504 -0.000507827, -1.12639 0, -1.2 " /><path id= "3" d=" M 0.285 -0.815 L 0.29159 -0.815 " />
<path d="M0.429671, -1.04798 L0.278631, -0.793303 " /><path d="M0.0814162, 1.04796 L0.147711, 0.935763 " /><path id= "6" d=" M 0.602764 -0.815 L 1.09158 -0.815 " />
<path d="M1.07469, -0.786724 L1.22966, -1.04798 " /><path d="M0.829651, 1.04795 L0.691579, 0.815 " /><path d="M0.881409, 1.04796 L1.0364, 0.786701 " /><path d="M0.481396, -1.04798 L0.619493, -0.815 " /><path id= "11" d=" M 1.40276 -0.815 L 1.89157 -0.815 " />
<path d="M1.87468, -0.786725 L2.02966, -1.04798 " /><path d="M1.62964, 1.04796 L1.49157, 0.815 " /><path d="M1.6814, 1.04796 L1.8364, 0.786701 " /><path d="M1.28139, -1.04798 L1.41949, -0.815 " /><path id= "16" d=" M 2.20275 -0.815 L 2.69157 -0.815 " />
<path d="M2.67467, -0.786725 L2.82965, -1.04798 " /><path d="M2.42964, 1.04796 L2.29156, 0.815 " /><path d="M2.48139, 1.04796 L2.63639, 0.7867 " /><path d="M2.08138, -1.04798 L2.21948, -0.815 " /><path id= "21" d=" M 3.00274 -0.815 L 3.49156 -0.815 " />
<path d="M3.47467, -0.786725 L3.62964, -1.04798 " /><path d="M3.22963, 1.04796 L3.09156, 0.815 " /><path d="M3.28139, 1.04796 L3.43638, 0.7867 " /><path d="M2.88137, -1.04798 L3.01947, -0.815 " /><path id= "26" d=" M 3.80273 -0.815 L 4.29155 -0.815 " />
<path d="M4.27466, -0.786725 L4.42964, -1.04798 " /><path d="M4.02962, 1.04796 L3.89155, 0.815 " /><path d="M4.08138, 1.04796 L4.23637, 0.7867 " /><path d="M3.68137, -1.04798 L3.81946, -0.815 " /><path id= "31" d=" M 4.60273 -0.815 L 5.09154 -0.815 " />
<path d="M5.07465, -0.786726 L5.22963, -1.04798 " /><path d="M4.82962, 1.04796 L4.69154, 0.815 " /><path d="M4.88137, 1.04796 L5.03637, 0.7867 " /><path d="M4.48136, -1.04798 L4.61945, -0.815 " /><path id= "36" d=" M 5.40272 -0.815 L 5.89153 -0.815 " />
<path d="M5.87464, -0.786726 L6.02962, -1.04798 " /><path d="M5.62961, 1.04796 L5.49153, 0.815 " /><path d="M5.68137, 1.04796 L5.83636, 0.7867 " /><path d="M5.28135, -1.04798 L5.41945, -0.815 " /><path id= "41" d=" M 6.20271 -0.815 L 6.69153 -0.815 " />
<path d="M6.67463, -0.786726 L6.82961, -1.04798 " /><path d="M6.4296, 1.04796 L6.29152, 0.815 " /><path d="M6.48136, 1.04796 L6.63635, 0.786699 " /><path d="M6.08135, -1.04798 L6.21944, -0.815 " /><path id= "46" d=" M 7.0027 -0.815 L 7.49152 -0.815 " />
<path d="M7.47463, -0.786726 L7.62961, -1.04798 " /><path d="M7.22959, 1.04796 L7.09152, 0.815 " /><path d="M7.28135, 1.04796 L7.43634, 0.786699 " /><path d="M6.88134, -1.04798 L7.01943, -0.815 " /><path id= "51" d=" M 7.80269 -0.815 L 8.29151 -0.815 " />
<path d="M8.27462, -0.786726 L8.4296, -1.04798 " /><path d="M8.02959, 1.04796 L7.89151, 0.815 " /><path d="M8.08134, 1.04796 L8.23633, 0.786699 " /><path d="M7.68133, -1.04798 L7.81942, -0.815 " /><path id= "56" d=" M 8.60269 -0.815 L 9.0915 -0.815 " />
<path id= "57" d=" M 9.40268 -0.815 L 9.42 -0.815 " />
<path d="M9.07461, -0.786727 L9.22959, -1.04798 " /><path d="M8.82958, 1.04796 L8.6915, 0.815 " /><path d="M8.88134, 1.04796 L9.03633, 0.786699 " /><path d="M8.48132, -1.04798 L8.61942, -0.815 " /><path id= "62" d=" M 9.5 -0.735 L 9.42 -0.815 " />
</g>
<g   fill="none"
   stroke="rgb(0, 0, 0)"
   stroke-linecap="butt"
   stroke-linejoin="miter"
   stroke-width="0.35"
   transform="scale(1, -1)"
  >
<path d="M-1.57233, 0.49146 Q-1.56976, 0.513706 -1.56394, 0.539962 " /><path d="M-1.57233, 0.49146 Q-1.38958, 2 0, 2 " /><path d="M0, -2 L0, -1.94986  L0, -1.80194  L0, -1.56366  L0, -1.24698  L0, -0.867767  L0, -0.445042  L0, -3.88578e-16  L0, 0.445042  L0, 0.867767  L0, 1.24698  L0, 1.56366  L0, 1.80194  L0, 1.94986  L0, 2 " /><path d="M-1.43851, 0.906567 L-1.44506, 0.894606 " /><path d="M-1.55976, 0.156512 Q-1.54582, 0.24555 -1.51638, 0.352678 " /><path d="M-1.51636, 0.352758 L-1.51201, 0.367872 " /><path d="M-1.47467, -0.47947 L-1.47615, -0.475547 " /><path d="M-1.50072, -0.404724 Q-1.54766, -0.250502 -1.56394, -0.13 " /><path d="M-1.52908, -0.688964 L-1.52672, -0.696819 " /><path d="M-1.51529, -0.732314 L-1.51445, -0.734778 " /><path d="M-1.47691, -0.830022 L-1.47552, -0.833097 " /><path d="M-1.56394, -0.539962 Q-1.56976, -0.513706 -1.57233, -0.49146 " /><path d="M-1.43851, -0.906567 C-1.50962, -0.779814 -1.54621, -0.642431 -1.56394, -0.539962 " /><path d="M-1.43851, -0.566323 Q-1.43851, -0.77521 -1.43851, -0.906567 " /><path d="M-1.56394, -0.13 C-1.54621, -0.249515 -1.50962, -0.411558 -1.43851, -0.566323 " /><path d="M-1.57233, -9.67032e-13 Q-1.56976, -0.0592141 -1.56394, -0.13 " /><path d="M-1.56394, 0.13 Q-1.56976, 0.0592141 -1.57233, 1.07934e-12 " /><path d="M-1.43851, 0.566323 C-1.50962, 0.411575 -1.54621, 0.249527 -1.56394, 0.13 " /><path d="M-1.43851, 0.906567 Q-1.43851, 0.77521 -1.43851, 0.566323 " /><path d="M-1.56394, 0.539962 C-1.54621, 0.64242 -1.50962, 0.779799 -1.43851, 0.906567 " /><path id= "21" d=" M -1.56394 0.539962 L -1.45585 0.52669 " />
<path id= "22" d=" M -1.57233 0.49146 L -1.47467 0.47947 " />
<path id= "23" d=" M -1.56394 -0.539962 L -1.45585 -0.52669 " />
<path id= "24" d=" M -1.57233 -0.49146 L -1.47467 -0.47947 " />
<path d="M0, 1.2 Q1.04083e-17, 1.15413 0.0599645, 1.06934 " /><path d="M0.0996366, 1.01707 Q0.168512, 0.931488 0.285, 0.815 " /><path d="M0.285, 0.650863 Q0.285, 0.812373 0.285, 0.815 " /><path d="M0.285, 0.650863 Q0.218617, 0.814594 0.147711, 0.935763 " /><path d="M0.0595077, 1.06946 C0.0779831, 1.0357 0.097722, 0.885494 0.118193, 0.667819  C0.136796, 0.471359 0.156024, 0.222647 0.1757, -0.0117373  C0.208756, -0.410518 0.243234, -0.740256 0.278631, -0.793303 " /><path d="M0.285, -0.815 Q0.285, -0.814966 0.285, -0.803962 " /><path id= "31" d=" M 0.285 0.815 L 0.708323 0.815 " />
<path d="M0.455535, -1.07 Q0.442602, -1.06997 0.429671, -1.04798 " /><path d="M0.429671, -1.04798 C0.400658, -0.999362 0.371627, -0.865594 0.342604, -0.675984  C0.31358, -0.487212 0.284564, -0.244131 0.255545, -4.26623e-05  C0.226527, 0.244046 0.197504, 0.487141 0.168481, 0.675931  C0.139457, 0.86556 0.110435, 0.999342 0.0814162, 1.04796 " /><path d="M0.0814162, 1.04796 Q0.0704619, 1.06657 0.0595077, 1.06946 " /><path d="M0.602764, -0.815 C0.550369, -0.819782 0.497972, -0.589751 0.445614, -0.269052  C0.392055, 0.0555888 0.338529, 0.446972 0.285, 0.650863 " /><path d="M0.602764, -0.815 L0.602764, -0.815 " /><path id= "37" d=" M 1.01949 0.815 L 1.50832 0.815 " />
<path d="M1.07469, -0.786724 C1.01418, -0.691861 0.953544, -0.291838 0.893069, 0.0974221  C0.864248, 0.280852 0.835398, 0.455712 0.80656, 0.584144  C0.773799, 0.731095 0.741069, 0.815808 0.708323, 0.815 " /><path d="M1.25553, -1.07 Q1.2426, -1.06997 1.22966, -1.04798 " /><path d="M1.22966, -1.04798 C1.20065, -0.999363 1.17162, -0.865594 1.1426, -0.675985  C1.11357, -0.487213 1.08456, -0.244132 1.05554, -4.35689e-05  C1.02652, 0.244045 0.997497, 0.48714 0.968473, 0.675931  C0.93945, 0.86556 0.910428, 0.999342 0.881409, 1.04796 " /><path d="M0.881409, 1.04796 Q0.85553, 1.09199 0.829651, 1.04795 " /><path d="M0.481396, -1.04798 Q0.468466, -1.06997 0.455535, -1.07 " /><path d="M1.40276, -0.815 C1.35034, -0.819788 1.29793, -0.589597 1.24556, -0.26875  C1.2034, -0.0138996 1.16125, 0.284635 1.11913, 0.497694  C1.09156, 0.637778 1.06398, 0.740968 1.0364, 0.786701 " /><path d="M1.40276, -0.815 L1.40276, -0.815 " /><path id= "45" d=" M 1.81949 0.815 L 2.30831 0.815 " />
<path d="M1.87468, -0.786725 C1.8365, -0.724125 1.79823, -0.547837 1.76001, -0.322013  C1.73231, -0.159211 1.70464, 0.0268503 1.67695, 0.1988  C1.62072, 0.552989 1.56449, 0.821171 1.50832, 0.815 " /><path d="M2.05552, -1.07 Q2.04259, -1.06997 2.02966, -1.04798 " /><path d="M2.02966, -1.04798 C2.00064, -0.999364 1.97161, -0.865595 1.94259, -0.675986  C1.91357, -0.487214 1.88455, -0.244133 1.85553, -4.44755e-05  C1.82651, 0.244044 1.79749, 0.487139 1.76847, 0.67593  C1.73944, 0.86556 1.71042, 0.999342 1.6814, 1.04796 " /><path d="M1.6814, 1.04796 Q1.65552, 1.09199 1.62964, 1.04796 " /><path d="M1.28139, -1.04798 Q1.26846, -1.06997 1.25553, -1.07 " /><path d="M2.20275, -0.815 C2.15032, -0.819794 2.09789, -0.589449 2.0455, -0.268451  C2.02389, -0.134964 2.00229, 0.00136238 1.98068, 0.140527  C1.9326, 0.446165 1.88451, 0.709165 1.8364, 0.786701 " /><path d="M2.20275, -0.815 L2.20275, -0.815 " /><path id= "53" d=" M 2.61948 0.815 L 3.1083 0.815 " />
<path d="M2.67467, -0.786725 C2.61417, -0.691874 2.55355, -0.291965 2.49308, 0.0972458  C2.46425, 0.280763 2.43538, 0.455717 2.40653, 0.584194  C2.37378, 0.731115 2.34105, 0.815807 2.30831, 0.815 " /><path d="M2.85551, -1.07 Q2.84258, -1.06997 2.82965, -1.04798 " /><path d="M2.82965, -1.04798 C2.80064, -0.999364 2.77161, -0.865596 2.74258, -0.675987  C2.71356, -0.487215 2.68454, -0.244134 2.65552, -4.53821e-05  C2.62651, 0.244043 2.59748, 0.487139 2.56846, 0.67593  C2.53944, 0.865559 2.51041, 0.999342 2.48139, 1.04796 " /><path d="M2.48139, 1.04796 Q2.45552, 1.09199 2.42964, 1.04796 " /><path d="M2.08138, -1.04798 Q2.06845, -1.06997 2.05552, -1.07 " /><path d="M3.00274, -0.815 C2.96629, -0.816216 2.92975, -0.710127 2.89332, -0.532134  C2.85579, -0.350487 2.8182, -0.0963065 2.78063, 0.140834  C2.73256, 0.44634 2.68449, 0.709184 2.63639, 0.7867 " /><path d="M3.00274, -0.815 L3.00274, -0.815 " /><path id= "61" d=" M 3.41947 0.815 L 3.90829 0.815 " />
<path d="M3.47467, -0.786725 C3.41428, -0.692021 3.35376, -0.293455 3.2934, 0.0951591  C3.26445, 0.27948 3.23547, 0.455325 3.2065, 0.584297  C3.17375, 0.731156 3.14103, 0.815806 3.1083, 0.815 " /><path d="M3.65551, -1.07 Q3.64257, -1.06997 3.62964, -1.04798 " /><path d="M3.62964, -1.04798 C3.60063, -0.999365 3.5716, -0.865597 3.54258, -0.675988  C3.51355, -0.487216 3.48454, -0.244135 3.45552, -4.62887e-05  C3.4265, 0.244042 3.39748, 0.487138 3.36845, 0.675929  C3.33943, 0.865559 3.31041, 0.999342 3.28139, 1.04796 " /><path d="M3.28139, 1.04796 Q3.25551, 1.09199 3.22963, 1.04796 " /><path d="M2.88137, -1.04798 Q2.86844, -1.06997 2.85551, -1.07 " /><path d="M3.80273, -0.815 C3.76628, -0.816216 3.72974, -0.710115 3.69331, -0.532104  C3.65576, -0.350386 3.61816, -0.0960846 3.58057, 0.141125  C3.53252, 0.446512 3.48447, 0.709206 3.43638, 0.7867 " /><path d="M3.80273, -0.815 L3.80273, -0.815 " /><path id= "69" d=" M 4.21946 0.815 L 4.70828 0.815 " />
<path d="M4.27466, -0.786725 C4.21413, -0.691841 4.15348, -0.291612 4.09299, 0.0977412  C4.06429, 0.280341 4.03557, 0.454441 4.00686, 0.582649  C3.97399, 0.730504 3.94115, 0.815818 3.90829, 0.815 " /><path d="M4.4555, -1.07 Q4.44257, -1.06997 4.42964, -1.04798 " /><path d="M4.42964, -1.04798 C4.40062, -0.999366 4.37159, -0.865598 4.34257, -0.675989  C4.31354, -0.487217 4.28453, -0.244136 4.25551, -4.71953e-05  C4.22649, 0.244042 4.19747, 0.487137 4.16844, 0.675929  C4.13942, 0.865559 4.1104, 0.999342 4.08138, 1.04796 " /><path d="M4.08138, 1.04796 Q4.0555, 1.09199 4.02962, 1.04796 " /><path d="M3.68137, -1.04798 Q3.66844, -1.06997 3.65551, -1.07 " /><path d="M4.60273, -0.815 C4.55052, -0.819719 4.49832, -0.591507 4.44615, -0.272506  C4.42428, -0.137543 4.4024, 0.000404614 4.38053, 0.141337  C4.33249, 0.446651 4.28444, 0.709232 4.23637, 0.7867 " /><path d="M4.60273, -0.815 L4.60273, -0.815 " /><path id= "77" d=" M 5.01946 0.815 L 5.50828 0.815 " />
<path d="M5.07465, -0.786726 C5.01428, -0.692046 4.95378, -0.293702 4.89344, 0.0948128  C4.86452, 0.278931 4.83557, 0.454625 4.80664, 0.583611  C4.77384, 0.730884 4.74107, 0.815811 4.70828, 0.815 " /><path d="M5.25549, -1.07 Q5.24256, -1.06997 5.22963, -1.04798 " /><path d="M5.22963, -1.04798 C5.20061, -0.999367 5.17158, -0.865599 5.14256, -0.67599  C5.11354, -0.487218 5.08452, -0.244137 5.0555, -4.8102e-05  C5.02648, 0.244041 4.99746, 0.487137 4.96844, 0.675928  C4.93941, 0.865558 4.91039, 0.999342 4.88137, 1.04796 " /><path d="M4.88137, 1.04796 Q4.85549, 1.09199 4.82962, 1.04796 " /><path d="M4.48136, -1.04798 Q4.46843, -1.06997 4.4555, -1.07 " /><path d="M5.40272, -0.815 C5.3505, -0.819723 5.29829, -0.591405 5.24611, -0.272305  C5.22423, -0.13733 5.20236, 0.00062037 5.18049, 0.141547  C5.13246, 0.446775 5.08442, 0.709248 5.03637, 0.7867 " /><path d="M5.40272, -0.815 L5.40272, -0.815 " /><path id= "85" d=" M 5.81945 0.815 L 6.30827 0.815 " />
<path d="M5.87464, -0.786726 C5.81417, -0.691911 5.75357, -0.292317 5.69313, 0.0967546  C5.66436, 0.279873 5.63556, 0.454512 5.60677, 0.582985  C5.57392, 0.730636 5.54111, 0.815816 5.50828, 0.815 " /><path d="M6.05548, -1.07 Q6.04255, -1.06997 6.02962, -1.04798 " /><path d="M6.02962, -1.04798 C6.00061, -0.999367 5.97158, -0.865599 5.94255, -0.675991  C5.91353, -0.487219 5.88451, -0.244138 5.8555, -4.90086e-05  C5.82648, 0.24404 5.79745, 0.487136 5.76843, 0.675928  C5.73941, 0.865558 5.71039, 0.999342 5.68137, 1.04796 " /><path d="M5.68137, 1.04796 Q5.65549, 1.09199 5.62961, 1.04796 " /><path d="M5.28135, -1.04798 Q5.26842, -1.06997 5.25549, -1.07 " /><path d="M6.20271, -0.815 C6.15048, -0.819727 6.09826, -0.591305 6.04607, -0.272107  C6.02419, -0.13712 6.00232, 0.000833514 5.98045, 0.141754  C5.93243, 0.446897 5.88441, 0.709263 5.83636, 0.7867 " /><path d="M6.20271, -0.815 L6.20271, -0.815 " /><path id= "93" d=" M 6.61944 0.815 L 7.10826 0.815 " />
<path d="M6.67463, -0.786726 C6.61781, -0.696846 6.56084, -0.340632 6.50406, 0.0269216  C6.44854, 0.386097 6.39294, 0.717833 6.33744, 0.793692  C6.32771, 0.807873 6.31799, 0.814975 6.30827, 0.815 " /><path d="M6.85548, -1.07 Q6.84255, -1.06997 6.82961, -1.04798 " /><path d="M6.82961, -1.04798 C6.8006, -0.999368 6.77157, -0.8656 6.74255, -0.675992  C6.71352, -0.48722 6.68451, -0.244139 6.65549, -4.99152e-05  C6.62647, 0.244039 6.59745, 0.487135 6.56842, 0.675927  C6.5394, 0.865558 6.51038, 0.999341 6.48136, 1.04796 " /><path d="M6.48136, 1.04796 Q6.45548, 1.09199 6.4296, 1.04796 " /><path d="M6.08135, -1.04798 Q6.06842, -1.06997 6.05548, -1.07 " /><path d="M7.0027, -0.815 C6.95047, -0.819731 6.89823, -0.591206 6.84603, -0.271912  C6.82415, -0.136913 6.80228, 0.00104377 6.78041, 0.141958  C6.7324, 0.447013 6.68439, 0.709275 6.63635, 0.786699 " /><path id= "100" d=" M 7.41943 0.815 L 7.90825 0.815 " />
<path d="M7.47463, -0.786726 C7.41424, -0.692032 7.35373, -0.293534 7.29339, 0.09498  C7.26445, 0.2792 7.23549, 0.45497 7.20654, 0.583951  C7.17376, 0.731019 7.14102, 0.815809 7.10826, 0.815 " /><path d="M7.65547, -1.07 Q7.64254, -1.06997 7.62961, -1.04798 " /><path d="M7.62961, -1.04798 C7.60059, -0.999369 7.57156, -0.865601 7.54254, -0.675992  C7.51352, -0.487221 7.4845, -0.24414 7.45548, -5.08218e-05  C7.42646, 0.244038 7.39744, 0.487135 7.36842, 0.675927  C7.33939, 0.865557 7.31037, 0.999341 7.28135, 1.04796 " /><path d="M7.28135, 1.04796 Q7.25547, 1.09199 7.22959, 1.04796 " /><path d="M6.88134, -1.04798 Q6.86841, -1.06997 6.85548, -1.07 " /><path d="M7.80269, -0.815 C7.75045, -0.819734 7.6982, -0.591108 7.64599, -0.271719  C7.62411, -0.136708 7.60224, 0.00125168 7.58037, 0.14216  C7.53237, 0.447132 7.48437, 0.70929 7.43634, 0.786699 " /><path id= "107" d=" M 8.21943 0.815 L 8.70824 0.815 " />
<path d="M8.27462, -0.786727 C8.21417, -0.691943 8.15359, -0.292619 8.09318, 0.0962639  C8.06442, 0.279316 8.03564, 0.453936 8.00686, 0.582472  C7.97398, 0.730433 7.94112, 0.81582 7.90825, 0.815 " /><path d="M8.45546, -1.07 Q8.44253, -1.06997 8.4296, -1.04798 " /><path d="M8.4296, -1.04798 C8.40059, -0.999369 8.37156, -0.865602 8.34253, -0.675993  C8.31351, -0.487222 8.28449, -0.244141 8.25547, -5.17284e-05  C8.22646, 0.244037 8.19743, 0.487134 8.16841, 0.675926  C8.13939, 0.865557 8.11036, 0.999341 8.08134, 1.04796 " /><path d="M8.08134, 1.04796 Q8.05547, 1.09199 8.02959, 1.04796 " /><path d="M7.68133, -1.04798 Q7.6684, -1.06997 7.65547, -1.07 " /><path d="M8.60269, -0.815 C8.55043, -0.819738 8.49817, -0.591012 8.44595, -0.271528  C8.42408, -0.136505 8.4022, 0.00145696 8.38033, 0.142359  C8.33234, 0.447246 8.28435, 0.709303 8.23633, 0.786699 " /><path id= "114" d=" M 9.01942 0.815 L 9.42 0.815 " />
<path d="M9.42, -0.815 L9.42, -0.794566  L9.42, -0.73429  L9.42, -0.637193  L9.42, -0.508144  L9.42, -0.353615  L9.42, -0.181355  L9.42, -1.38778e-16  L9.42, 0.181355  L9.42, 0.353615  L9.42, 0.508144  L9.42, 0.637193  L9.42, 0.73429  L9.42, 0.794566  L9.42, 0.815 " /><path d="M9.40268, -0.815 C9.35041, -0.819741 9.29814, -0.590916 9.24591, -0.271339  C9.22404, -0.136305 9.20216, 0.00165994 9.18029, 0.142556  C9.13231, 0.447363 9.08433, 0.709318 9.03633, 0.786699 " /><path d="M9.07461, -0.786727 C9.01409, -0.691861 8.95344, -0.291715 8.89296, 0.0975737  C8.86423, 0.280458 8.83546, 0.454826 8.80671, 0.583121  C8.77387, 0.73069 8.74107, 0.815815 8.70824, 0.815 " /><path d="M9.25546, -1.07 Q9.24252, -1.06997 9.22959, -1.04798 " /><path d="M9.22959, -1.04798 C9.20058, -0.99937 9.17155, -0.865603 9.14253, -0.675994  C9.1135, -0.487223 9.08449, -0.244142 9.05547, -5.26351e-05  C9.02645, 0.244037 8.99743, 0.487133 8.9684, 0.675926  C8.93938, 0.865557 8.91036, 0.999341 8.88134, 1.04796 " /><path d="M8.88134, 1.04796 Q8.85546, 1.09199 8.82958, 1.04796 " /><path d="M8.48132, -1.04798 Q8.46839, -1.06997 8.45546, -1.07 " /><path d="M9.25546, -1.07 L9.40268, -0.815 " /><path id= "123" d=" M 9.42 0.815 L 9.5 0.735 " />
<path d="M9.5, -0.735 L9.5, -0.716572  L9.5, -0.662212  L9.5, -0.574646  L9.5, -0.458265  L9.5, -0.318905  L9.5, -0.163553  L9.5, -1.38778e-16  L9.5, 0.163553  L9.5, 0.318905  L9.5, 0.458265  L9.5, 0.574646  L9.5, 0.662212  L9.5, 0.716572  L9.5, 0.735 " /></g>

</svg>
