<svg xmlns="http://www.w3.org/2000/svg" viewBox="-2.32 -2.32 4.64 4.64">
<rect width="100%" height="100%" fill="white"/>
<g   fill="none"
   stroke="rgb(0, 0, 0)"
   stroke-linecap="butt"
   stroke-linejoin="miter"
   stroke-width="0.35"
   transform="scale(1, -1)"
  >
<path d="M0.49146, -1.11022e-16 Q0.513706, -0.0592132 0.539962, -0.13 " /><circle cx ="0" cy ="0" r ="2" /><path d="M0.539962, 0.13 Q0.513706, 0.0592132 0.49146, -2.77556e-17 " /><path d="M0.906567, 0.566323 C0.779814, 0.411575 0.642431, 0.249527 0.539962, 0.13 " /><path d="M0.566323, 0.906567 Q0.77521, 0.77521 0.906567, 0.566323 " /><path d="M0.13, 0.539962 C0.249515, 0.64242 0.41156, 0.779801 0.566323, 0.906567 " /><path d="M1.05158e-12, 0.49146 Q0.0592141, 0.513706 0.13, 0.539962 " /><path d="M-0.13, 0.539962 Q-0.0592141, 0.513706 -1.07916e-12, 0.49146 " /><path d="M-0.566323, 0.906567 C-0.411575, 0.779814 -0.249527, 0.642431 -0.13, 0.539962 " /><path d="M-0.906567, 0.566323 Q-0.77521, 0.77521 -0.566323, 0.906567 " /><path d="M-0.539962, 0.13 C-0.64242, 0.249515 -0.779801, 0.41156 -0.906567, 0.566323 " /><path d="M-0.49146, 1.05188e-12 Q-0.513706, 0.0592141 -0.539962, 0.13 " /><path d="M-0.539962, -0.13 Q-0.513706, -0.0592141 -0.49146, -1.07953e-12 " /><path d="M-0.906567, -0.566323 C-0.779814, -0.411575 -0.642431, -0.249527 -0.539962, -0.13 " /><path d="M-0.566323, -0.906567 Q-0.77521, -0.77521 -0.906567, -0.566323 " /><path d="M-0.13, -0.539962 C-0.249515, -0.64242 -0.411558, -0.7798 -0.566323, -0.906567 " /><path d="M-9.67032e-13, -0.49146 Q-0.0592141, -0.513706 -0.13, -0.539962 " /><path d="M0.13, -0.539962 Q0.0592141, -0.513706 1.07934e-12, -0.49146 " /><path d="M0.566323, -0.906567 C0.411575, -0.779814 0.249527, -0.642431 0.13, -0.539962 " /><path d="M0.906567, -0.566323 Q0.77521, -0.77521 0.566323, -0.906567 " /><path d="M0.539962, -0.13 C0.64242, -0.249514 0.779799, -0.411558 0.906567, -0.566323 " /><path id= "22" d=" M 0.539962 -0.13 L 0.359581 -0.13 " />
<path id= "23" d=" M 0.49146 0 L 0.305 0 " />
<path d="M0.359581, -0.13 Q0.328428, -0.0574916 0.305, -1.09898e-13 " /><path d="M0.906567, -0.566323 C0.627817, -0.347094 0.480804, -0.231015 0.376936, -0.148135 " /><path d="M0.376936, -0.148135 L0.359581, -0.13 " /><path d="M0.148135, -0.376936 C0.231015, -0.480804 0.347094, -0.627817 0.566323, -0.906567 " /><path d="M0.148135 -0.376936 A0.405 0.405 0 0 1 0.376936 -0.148135" /><path id= "29" d=" M 0.13 -0.539962 L 0.13 -0.359581 " />
<path d="M0.13, -0.359581 L0.148135, -0.376936 " /><path id= "31" d=" M -1.09126e-16 -0.49146 L -6.77236e-17 -0.305 " />
<path d="M1.09829e-13, -0.305 Q0.0574916, -0.328428 0.13, -0.359581 " /><path id= "33" d=" M -0.13 -0.539962 L -0.13 -0.359581 " />
<path d="M-0.13, -0.359581 Q-0.0574916, -0.328428 -1.0994e-13, -0.305 " /><path d="M-0.566323, -0.906567 C-0.347094, -0.627817 -0.231015, -0.480804 -0.148135, -0.376936 " /><path d="M-0.148135, -0.376936 L-0.13, -0.359581 " /><path d="M-0.376936, -0.148135 C-0.480804, -0.231015 -0.627817, -0.347094 -0.906567, -0.566323 " /><path d="M-0.376936 -0.148135 A0.405 0.405 0 0 1 -0.148135 -0.376936" /><path id= "39" d=" M -0.539962 -0.13 L -0.359581 -0.13 " />
<path d="M-0.359581, -0.13 L-0.376936, -0.148135 " /><path id= "41" d=" M -0.49146 6.01866e-17 L -0.305 3.73517e-17 " />
<path d="M-0.305, -1.09912e-13 Q-0.328428, -0.0574916 -0.359581, -0.13 " /><path id= "43" d=" M -0.539962 0.13 L -0.359581 0.13 " />
<path d="M-0.359581, 0.13 Q-0.328428, 0.0574916 -0.305, 1.0994e-13 " /><path d="M-0.906567, 0.566323 C-0.627817, 0.347094 -0.480804, 0.231015 -0.376936, 0.148135 " /><path d="M-0.376936, 0.148135 L-0.359581, 0.13 " /><path d="M-0.148135, 0.376936 C-0.231015, 0.480804 -0.347094, 0.627817 -0.566323, 0.906567 " /><path d="M-0.148135 0.376936 A0.405 0.405 0 0 1 -0.376936 0.148135" /><path id= "49" d=" M -0.13 0.539962 L -0.13 0.359581 " />
<path d="M-0.13, 0.359581 L-0.148135, 0.376936 " /><path id= "51" d=" M 5.45631e-17 0.49146 L 3.38618e-17 0.305 " />
<path d="M-1.09884e-13, 0.305 Q-0.0574916, 0.328428 -0.13, 0.359581 " /><path id= "53" d=" M 0.13 0.539962 L 0.13 0.359581 " />
<path d="M0.13, 0.359581 Q0.0574916, 0.328428 1.09898e-13, 0.305 " /><path d="M0.566323, 0.906567 C0.347094, 0.627817 0.231015, 0.480804 0.148135, 0.376936 " /><path d="M0.148135, 0.376936 L0.13, 0.359581 " /><path d="M0.376936, 0.148135 C0.480804, 0.231015 0.627817, 0.347094 0.906567, 0.566323 " /><path d="M0.376936 0.148135 A0.405 0.405 0 0 1 0.148135 0.376936" /><path id= "59" d=" M 0.539962 0.13 L 0.359581 0.13 " />
<path d="M0.359581, 0.13 L0.376936, 0.148135 " /><path d="M0.305, 1.09912e-13 Q0.328428, 0.0574916 0.359581, 0.13 " /></g>

</svg>
