<svg xmlns="http://www.w3.org/2000/svg" viewBox="-8.3868644 -10.3026444 15.705708800000002 18.9722988">
<rect width="100%" height="100%" fill="white"/>
<g   fill="none"
   stroke="rgb(0, 0, 0)"
   stroke-linecap="butt"
   stroke-linejoin="miter"
   stroke-width="0.35"
   transform="scale(1, -1)"
  >
<path id= "1" d=" M 4.25 7.36122 L 1.42157 8.99421 " />
<path id= "2" d=" M -4.25 -7.36122 L -7.07843 -5.72822 " />
</g>
<g   fill="none"
   stroke="rgb(0, 0, 0)"
   stroke-linecap="butt"
   stroke-linejoin="miter"
   stroke-width="0.35"
   transform="scale(1, -1)"
  >
<path d="M0.439171 3.10741 A3.55 2.04959 60 0 1 -2.47151 -1.93404" />
<path d="M6.01041 3.47011 A8.5 4.90748 60 0 1 4.25 7.36122" />
<path d="M-4.25 -7.36122 A8.5 4.90748 60 0 1 6.01041 3.47011" />
<path d="M3.18198 5.1031 A8.5 4.90748 60 0 1 1.42157 8.99421" />
<path d="M1.42157 8.99421 A8.5 4.90748 60 0 1 -7.07843 -5.72822" />
<path d="M-7.07843 -5.72822 A8.5 4.90748 60 0 1 3.18198 5.1031" />
<g transform = "rotate(60, -2.82843, 1.63299)">
<ellipse cx ="-2.82843" cy ="1.63299" rx ="5.5"  ry ="3.17543"/>
</g>
<path d="M0.477886 2.62266 A3.55 2.04959 60 0 1 -0.257343 4.24776" />
<path d="M-0.257343 4.24776 A3.55 2.04959 60 0 1 -3.80734 -1.90102" />
<path d="M-3.80734 -1.90102 A3.55 2.04959 60 0 1 0.477886 2.62266" />
</g>

</svg>
