<svg xmlns="http://www.w3.org/2000/svg" viewBox="-4.6322 -6.49812 9.36601 12.33747">
<rect width="100%" height="100%" fill="white"/>
<g   fill="none"
   stroke="rgb(0, 0, 0)"
   stroke-linecap="butt"
   stroke-linejoin="miter"
   stroke-width="0.35"
   transform="scale(1, -1)"
  >
<path d="M0.174904 -4.34362 A9 9 0 0 1 3.84914 2.02034" /><path id= "2" d=" M 2.64031 5.40382 L 2.21866 5.64726 " />
<path id= "3" d=" M -3.35969 -4.98849 L -3.78134 -4.74505 " />
</g>
<g   fill="none"
   stroke="rgb(0, 0, 0)"
   stroke-linecap="butt"
   stroke-linejoin="miter"
   stroke-width="0.35"
   transform="scale(1, -1)"
  >
<path d="M1.57317 2.40634 A3.2 1.84752 60 0 1 -1.29737 -2.56558" />
<path d="M3.88295 2.65716 A6 3.4641 60 0 1 2.64031 5.40382" />
<path d="M-3.35969 -4.98849 A6 3.4641 60 0 1 0.174904 -4.34362" />
<path d="M0.174904 -4.34362 A6 3.4641 60 0 1 3.84914 2.02034" />
<path d="M3.84914 2.02034 A6 3.4641 60 0 1 3.88295 2.65716" />
<path d="M3.4613 2.9006 A6 3.4641 60 0 1 2.21866 5.64726" />
<path d="M2.21866 5.64726 A6 3.4641 60 0 1 -3.78134 -4.74505" />
<path d="M-3.78134 -4.74505 A6 3.4641 60 0 1 3.4613 2.9006" />
<path d="M1.69353 1.87998 A3.5 2.02073 60 1 1 -0.78134 -2.40663" />
<path d="M-0.78134 -2.40663 A3.5 2.02073 60 0 1 1.69353 1.87998" />
<path d="M1.69116 1.75338 A3.2 1.84752 60 0 1 1.03079 3.09991" />
<path d="M1.03079 3.09991 A3.2 1.84752 60 0 1 -2.16921 -2.44265" />
<path d="M-2.16921 -2.44265 A3.2 1.84752 60 0 1 -0.672897 -2.34128" />
</g>

</svg>
