<svg xmlns="http://www.w3.org/2000/svg" viewBox="-2.0649800000000003 -6.96 4.22 13.92">
<rect width="100%" height="100%" fill="white"/>
<g   fill="none"
   stroke="rgb(0, 0, 0)"
   stroke-linecap="butt"
   stroke-linejoin="miter"
   stroke-width="0.35"
   transform="scale(1, -1)"
  >
<path d="M-0.508674 -6 A9 9 0 0 1 1.19502 -3.2" /><path id= "2" d=" M -0.508674 -6 L -1.10498 -6 " />
</g>
<g   fill="none"
   stroke="rgb(0, 0, 0)"
   stroke-linecap="butt"
   stroke-linejoin="miter"
   stroke-width="0.35"
   transform="scale(1, -1)"
  >
<path d="M1.19502, -3.2 L1.19502, -3.11977  L1.19502, -2.8831  L1.19502, -2.50186  L1.19502, -1.99517  L1.19502, -1.38843  L1.19502, -0.712067  L1.19502, -5.55112e-16  L1.19502, 0.712067  L1.19502, 1.38843  L1.19502, 1.99517  L1.19502, 2.50186  L1.19502, 2.8831  L1.19502, 3.11977  L1.19502, 3.2 " /><path d="M1.19502 3.2 A9 9 0 0 1 -0.508674 6" /><path d="M-0.508674, -6 L-0.508674, -5.84957  L-0.508674, -5.40581  L-0.508674, -4.69099  L-0.508674, -3.74094  L-0.508674, -2.6033  L-0.508674, -1.33513  L-0.508674, -1.11022e-15  L-0.508674, 1.33513  L-0.508674, 2.6033  L-0.508674, 3.74094  L-0.508674, 4.69099  L-0.508674, 5.40581  L-0.508674, 5.84957  L-0.508674, 6 " /><path id= "4" d=" M -0.508674 6 L -1.10498 6 " />
<path d="M-1.10498, -6 L-1.10498, -5.84957  L-1.10498, -5.40581  L-1.10498, -4.69099  L-1.10498, -3.74094  L-1.10498, -2.6033  L-1.10498, -1.33513  L-1.10498, -1.11022e-15  L-1.10498, 1.33513  L-1.10498, 2.6033  L-1.10498, 3.74094  L-1.10498, 4.69099  L-1.10498, 5.40581  L-1.10498, 5.84957  L-1.10498, 6 " /></g>

</svg>
