<svg xmlns="http://www.w3.org/2000/svg" viewBox="-6.005088 -1.786788 12.097176 3.573576">
<rect width="100%" height="100%" fill="white"/>
<g   fill="none"
   stroke="rgb(0, 0, 0)"
   stroke-linecap="butt"
   stroke-linejoin="miter"
   stroke-width="0.35"
   transform="scale(1, -1)"
  >
<path d="M-5.1708, 0.9525 Q-4.84009, 0.9525 -4.50938, 0.9525  Q-4.1611, 0.9525 -3.81281, 0.9525  Q-3.44967, 0.9525 -3.08653, 0.9525  Q-2.71136, 0.9525 -2.33619, 0.9525  Q-1.95192, 0.9525 -1.56765, 0.9525  Q-0.788612, 0.9525 -1.44329e-14, 0.9525  Q0.788612, 0.9525 1.56765, 0.9525  Q1.95192, 0.9525 2.33619, 0.9525  Q2.71136, 0.9525 3.08653, 0.9525  Q3.44967, 0.9525 3.81281, 0.9525  Q4.1611, 0.9525 4.50938, 0.9525  Q4.84009, 0.9525 5.1708, 0.9525 " /><path d="M5.1708 0.9525 A5.2578 5.2578 0 0 1 -5.1708 0.9525" /><path d="M5.1708 0.9525 A5.2578 5.2578 0 0 0 5.2578 1.28779e-15" /><path d="M5.2578 0 A5.2578 5.2578 0 0 0 5.1708 -0.9525" /><path d="M-5.1708 -0.9525 A5.2578 5.2578 0 0 1 5.1708 -0.9525" /><path d="M-5.1708 -0.9525 A5.2578 5.2578 0 0 0 -5.1708 0.9525" /><path id= "7" d=" M -5.1708 0.9525 L 5.1708 0.9525 " />
<path id= "8" d=" M -5.1708 -0.9525 L 5.1708 -0.9525 " />
<path d="M-5.1708, -0.9525 Q-4.84009, -0.9525 -4.50938, -0.9525  Q-4.1611, -0.9525 -3.81281, -0.9525  Q-3.44967, -0.9525 -3.08653, -0.9525  Q-2.71136, -0.9525 -2.33619, -0.9525  Q-1.95192, -0.9525 -1.56765, -0.9525  Q-0.788612, -0.9525 -1.44329e-14, -0.9525  Q0.788612, -0.9525 1.56765, -0.9525  Q1.95192, -0.9525 2.33619, -0.9525  Q2.71136, -0.9525 3.08653, -0.9525  Q3.44967, -0.9525 3.81281, -0.9525  Q4.1611, -0.9525 4.50938, -0.9525  Q4.84009, -0.9525 5.1708, -0.9525 " /></g>

</svg>
