<svg xmlns="http://www.w3.org/2000/svg" viewBox="-2.9622244 -3.7943043999999997 20.5928188 15.9027988">
<rect width="100%" height="100%" fill="white"/>
<g   fill="none"
   stroke="rgb(0, 0, 0)"
   stroke-linecap="butt"
   stroke-linejoin="miter"
   stroke-width="0.35"
   transform="scale(1, -1)"
  >
<path d="M-1.54203, -2.31418 L-0.635346, -3.15217 " /><path d="M1.10785, 2.37411 L2.28685, 2.00793 " /><path d="M-1.35538, -2.04064 L-1.29904, -2.09272 " /><path d="M0.964325, 2.0757 L1.03507, 2.05372 " /><path d="M-0.4495, -3.28931 L11.5713, -10.2295 " /><path d="M2.48754, 1.92037 L14.5084, -5.01985 " /><path d="M11.7835, -10.3221 L12.9625, -10.6883 " /><path d="M14.6841, -5.14956 L15.5908, -5.98755 " /></g>
<g   fill="none"
   stroke="rgb(0, 0, 0)"
   stroke-linecap="butt"
   stroke-linejoin="miter"
   stroke-width="0.35"
   transform="scale(1, -1)"
  >
<path d="M-0.585744, -1.96362 C-0.656005, -1.57764 -0.59644, -1.09395 -0.423097, -0.616042  C-0.251377, -0.13793 0.0326026, 0.330817 0.366541, 0.692881  C0.649653, 1.00146 0.966904, 1.23248 1.26889, 1.35252 " /><path d="M1.83494, 1.0594 C1.82842, 0.910572 1.82158, 0.844768 1.81473, 0.785422  C1.80798, 0.727815 1.80071, 0.676563 1.79291, 0.631664  C1.78366, 0.583483 1.77441, 0.535302 1.76516, 0.487121  C1.7338, 0.341271 1.69247, 0.194407 1.64117, 0.0465267  C1.52195, -0.297598 1.35001, -0.639683 1.14226, -0.947952  C0.727709, -1.56783 0.168823, -2.03662 -0.338264, -2.19881  C-0.742867, -2.33238 -1.10989, -2.27443 -1.3573, -2.04352 " /><path d="M-1.3573, -2.04352 C-1.54497, -1.87085 -1.66499, -1.60241 -1.70282, -1.27624  C-1.74143, -0.950606 -1.69788, -0.568173 -1.57971, -0.181145  C-1.37911, 0.486906 -0.950491, 1.15777 -0.458476, 1.58673  C0.032327, 2.02211 0.573612, 2.20529 0.965886, 2.07877 " /><path d="M0.965886, 2.07877 C1.33427, 1.96761 1.56744, 1.594 1.59522, 1.08712  C1.6276, 0.582901 1.45494, -0.0440617 1.13984, -0.588445  C0.826513, -1.13713 0.376572, -1.5917 -0.0597487, -1.80906  C-0.496665, -2.03189 -0.911325, -2.01392 -1.17059, -1.77003 " /><path d="M-1.17059, -1.77003 C-1.4515, -1.51555 -1.54865, -1.00932 -1.43412, -0.444752  C-1.3248, 0.118836 -1.00795, 0.725952 -0.606577, 1.1553  C-0.372515, 1.40812 -0.11283, 1.60069 0.136842, 1.70879  C0.38666, 1.81772 0.625825, 1.84195 0.822303, 1.7804 " /><path d="M0.822303, 1.7804 C1.08, 1.70161 1.262, 1.47478 1.33044, 1.15534  C1.42043, 0.752946 1.32314, 0.206741 1.07982, -0.290973  C0.959362, -0.539731 0.805047, -0.775476 0.631984, -0.976678  C0.532594, -1.09222 0.428895, -1.19502 0.320886, -1.28508  C0.293879, -1.30657 0.266872, -1.32806 0.239865, -1.34955  C0.214695, -1.36873 0.185269, -1.38977 0.151588, -1.41267  C0.116883, -1.43614 0.0794115, -1.46046 -0.0132033, -1.51455 " /><path d="M1.83494, 1.0594 L2.06829, 1.19413 " /><path d="M2.06829, 1.19413 C2.06185, 1.04062 2.05458, 0.961994 2.04717, 0.895949  C2.03997, 0.83207 2.03204, 0.774276 2.02338, 0.722567  C2.01453, 0.668673 2.00436, 0.61442 1.99288, 0.559806  C1.95831, 0.395525 1.91245, 0.229965 1.85531, 0.0631241  C1.72253, -0.325088 1.52995, -0.71186 1.29653, -1.06105  C0.830871, -1.76308 0.199765, -2.29777 -0.374898, -2.48607  C-0.837754, -2.64257 -1.25893, -2.57854 -1.54203, -2.31418 " /><path d="M-1.54203, -2.31418 C-1.75342, -2.11963 -1.88929, -1.81785 -1.93315, -1.4507  C-1.97787, -1.08413 -1.93053, -0.653291 -1.79917, -0.216271  C-1.57401, 0.545664 -1.0862, 1.31479 -0.523788, 1.80741  C0.0371531, 2.3074 0.657919, 2.51922 1.10785, 2.37411 " /><path d="M1.10785, 2.37411 C1.52694, 2.24765 1.79359, 1.8237 1.82726, 1.24684  C1.86611, 0.673038 1.67209, -0.0423151 1.31447, -0.666338  C0.955813, -1.3007 0.436762, -1.82929 -0.0680391, -2.08284  C-0.573467, -2.34276 -1.05469, -2.32356 -1.35538, -2.04064 " /><path d="M-1.35538, -2.04064 C-1.67823, -1.74807 -1.79141, -1.16674 -1.66142, -0.516254  C-1.53737, 0.133007 -1.17433, 0.835123 -0.711627, 1.33524  C-0.438539, 1.63325 -0.134258, 1.86118 0.158867, 1.98946  C0.452138, 2.11872 0.733356, 2.14802 0.964325, 2.0757 " /><path d="M0.964325, 2.0757 C1.26133, 1.9849 1.47271, 1.72536 1.55485, 1.35873  C1.66403, 0.891479 1.55457, 0.25254 1.27207, -0.332688  C1.13224, -0.625191 0.952199, -0.903361 0.749575, -1.14152  C0.633196, -1.2783 0.511547, -1.40028 0.384627, -1.50747  C0.352877, -1.53307 0.321127, -1.55867 0.289377, -1.58427  C0.258796, -1.60793 0.224078, -1.63313 0.185223, -1.65988  C0.145038, -1.68751 0.0967204, -1.71931 8.88178e-16, -1.77594 " /><path d="M-0.0132033, -1.51455 L8.87311e-16, -1.77594 " /><path d="M2.06829, 1.19413 L3.3234, 0.694022 " /><path d="M3.3234, 0.694022 C3.31704, 0.536627 3.3094, 0.44731 3.30154, 0.375683  C3.29395, 0.306577 3.28547, 0.243332 3.2761, 0.185947  C3.26661, 0.127038 3.25568, 0.0677229 3.24331, 0.00800313  C3.20606, -0.171636 3.15643, -0.352776 3.09443, -0.535417  C2.95033, -0.960369 2.74056, -1.38438 2.48575, -1.76766  C1.9775, -2.53817 1.28621, -3.12776 0.655234, -3.33782  C0.237408, -3.48067 -0.151493, -3.46255 -0.4495, -3.28931 " /><path d="M-0.4495, -3.28931 Q-0.549404, -3.2316 -0.635346, -3.15217 " /><path d="M2.28685, 2.00793 Q2.39304, 1.97493 2.48754, 1.92037 " /><path d="M2.48754, 1.92037 C2.82909, 1.72542 3.04159, 1.31623 3.07968, 0.791133 " /><path d="M8.87745e-16, -1.77594 L0.00124087, -1.7769 " /><path d="M3.3234, 0.694022 L15.3442, -6.2462 " /><path d="M15.3442, -6.2462 C15.3379, -6.40359 15.3302, -6.49291 15.3224, -6.56454  C15.3148, -6.63364 15.3063, -6.69689 15.2969, -6.75427  C15.2874, -6.81318 15.2765, -6.8725 15.2641, -6.93222  C15.2269, -7.11186 15.1772, -7.293 15.1152, -7.47564  C14.9711, -7.90059 14.7614, -8.3246 14.5066, -8.70788  C13.9983, -9.47839 13.307, -10.068 12.676, -10.278  C12.3515, -10.3887 12.0439, -10.4034 11.7835, -10.3221 " /><path d="M11.7835, -10.3221 Q11.6712, -10.2872 11.5713, -10.2295 " /><path d="M14.5084, -5.01985 Q14.6029, -5.07444 14.6841, -5.14956 " /><path d="M14.6841, -5.14956 C14.9146, -5.36152 15.0584, -5.69633 15.0966, -6.10323 " /><path d="M15.3442, -6.2462 L16.2104, -6.97084 " /><path d="M16.2104, -6.97084 C16.204, -7.12434 16.1967, -7.20297 16.1893, -7.26902  C16.1821, -7.3329 16.1742, -7.39069 16.1655, -7.4424  C16.1567, -7.49629 16.1465, -7.55055 16.135, -7.60516  C16.1004, -7.76944 16.0546, -7.935 15.9975, -8.10184  C15.8647, -8.49005 15.6721, -8.87683 15.4387, -9.22601  C14.973, -9.92805 14.3419, -10.4627 13.7672, -10.651  C13.4745, -10.7492 13.1974, -10.7616 12.9625, -10.6883 " /><path d="M15.5908, -5.98755 C15.781, -6.1627 15.9063, -6.43 15.9527, -6.75525 " /></g>

</svg>
