<svg xmlns="http://www.w3.org/2000/svg" viewBox="-1.6 -4.800000000000001 23.2 9.431740000000001">
<rect width="100%" height="100%" fill="white"/>
<g   fill="none"
   stroke="rgb(0, 0, 0)"
   stroke-linecap="butt"
   stroke-linejoin="miter"
   stroke-width="0.35"
   transform="scale(1, -1)"
  >
<path d="M0, -2.75704 L1.5, -3.03174 " /><path d="M1.5, -3.03174 L18.5, -3.03174 " /><path d="M18.5, -3.03174 L20, -2.75704 " /></g>
<g   fill="none"
   stroke="rgb(0, 0, 0)"
   stroke-linecap="butt"
   stroke-linejoin="miter"
   stroke-width="0.35"
   transform="scale(1, -1)"
  >
<path d="M0, 2.925 C0, 2.8958 0, 2.86754 0, 2.81835  C0, 2.76946 0, 2.70462 0, 2.62381  C0, 2.43602 0, 2.16368 0, 1.83357  C0, 1.17503 0, 0.28251 0, -0.530186  C0, -1.16037 0, -1.73639 0, -2.13533  C0, -2.53704 0, -2.75877 0, -2.75704 " /><path d="M0, 2.925 L1.5, 3.2 " /><path d="M1.5, 3.2 C1.5, 3.17063 1.5, 3.13948 1.5, 3.08673  C1.5, 3.03405 1.5, 2.96387 1.5, 2.87618  C1.5, 2.6724 1.5, 2.37574 1.5, 2.01537  C1.5, 1.29661 1.5, 0.318975 1.5, -0.57336  C1.5, -1.26755 1.5, -1.90359 1.5, -2.34436  C1.5, -2.78818 1.5, -3.03366 1.5, -3.03174 " /><path d="M1.5, 3.2 L18.5, 3.2 " /><path d="M18.5, 3.2 C18.5, 3.17063 18.5, 3.13948 18.5, 3.08673  C18.5, 3.03405 18.5, 2.96387 18.5, 2.87618  C18.5, 2.6724 18.5, 2.37574 18.5, 2.01537  C18.5, 1.29661 18.5, 0.318975 18.5, -0.57336  C18.5, -1.26755 18.5, -1.90359 18.5, -2.34436  C18.5, -2.78818 18.5, -3.03366 18.5, -3.03174 " /><path d="M18.5, 3.2 L20, 2.925 " /><path d="M20, 2.925 C20, 2.8958 20, 2.86754 20, 2.81835  C20, 2.76946 20, 2.70462 20, 2.62381  C20, 2.43602 20, 2.16368 20, 1.83357  C20, 1.17503 20, 0.28251 20, -0.530186  C20, -1.16037 20, -1.73639 20, -2.13533  C20, -2.53704 20, -2.75877 20, -2.75704 " /><path d="M20, -2.75704 C20, -2.75824 20, -2.57119 20, -2.23473 " /><path d="M20, -0.769694 Q20, -0.400043 20, -0.0186723 " /><path d="M20, 2.26098 Q20, 2.58829 20, 2.59054 " /><path d="M20, 1.2366 L20, 1.23341 " /><path d="M20, -2.23242 Q20, -2.17217 20, -2.09452 " /><path d="M20, 1.23447 L20, 1.23342 " /><path d="M20, -1.16836 L20, -1.16869 " /><path d="M20, -2.42749 C20, -2.42856 20, -2.26387 20, -1.96811 " /><path d="M20, -1.27697 C20, -0.89827 20, -0.456424 20, -0.0186723 " /><path d="M20, 2.25753 L20, 2.26098 " /><path d="M20, -1.77337 C20, -1.42062 20, -0.784208 20, -0.134146 " /><path d="M20, 0.944444 L20, 0.94575 " /><path d="M18.5, -2.56043 Q18.5, -2.4839 18.5, -2.3691 " /></g>

</svg>
