<svg xmlns="http://www.w3.org/2000/svg" viewBox="-0.4186339 -3.2223916000000004 4.0185955 5.799443200000001">
<rect width="100%" height="100%" fill="white"/>
<g   fill="none"
   stroke="rgb(0, 0, 0)"
   stroke-linecap="butt"
   stroke-linejoin="miter"
   stroke-width="0.35"
   transform="scale(1, -1)"
  >
<path d="M2.595, 0 C2.58578, -0.177671 2.57611, -0.253429 2.56642, -0.321268  C2.55688, -0.38705 2.54659, -0.444679 2.53556, -0.494155  C2.52412, -0.547066 2.51103, -0.599532 2.49631, -0.651554  C2.45196, -0.80801 2.39351, -0.958658 2.32097, -1.1035  C2.15236, -1.44066 1.9092, -1.73805 1.6154, -1.9687  C1.02914, -2.43476 0.238752, -2.61372 -0.478377, -2.45379  C-1.19766, -2.30169 -1.82737, -1.81552 -2.1547, -1.17314  C-2.48934, -0.533969 -2.51523, 0.246164 -2.23405, 0.895169  C-1.9599, 1.54774 -1.38618, 2.05469 -0.719995, 2.24757  C-0.0555453, 2.44804 0.686074, 2.33104 1.24776, 1.9481  C1.81411, 1.57122 2.18878, 0.937931 2.25011, 0.274615  C2.31892, -0.388458 2.07453, -1.06642 1.61197, -1.52668  C1.15425, -1.99243 0.489965, -2.23066 -0.145754, -2.16864  C-0.782619, -2.11371 -1.37665, -1.76093 -1.72607, -1.24272  C-2.08156, -0.728079 -2.18572, -0.0602336 -2.01264, 0.526094  C-1.84601, 1.1148 -1.40753, 1.60912 -0.857829, 1.84386  C-0.310349, 2.08487 0.335056, 2.06208 0.853932, 1.79417  C1.37617, 1.53176 1.7605, 1.03152 1.88153, 0.474228  C2.0088, -0.0822306 1.87121, -0.682399 1.5271, -1.11992  C1.35674, -1.3394 1.13851, -1.51901 0.89376, -1.64306  C0.753202, -1.71429 0.606549, -1.76687 0.453801, -1.80079  C0.415607, -1.80802 0.377414, -1.81524 0.339221, -1.82246  C0.303625, -1.82816 0.262011, -1.83312 0.214377, -1.83735  C0.165298, -1.84155 0.112305, -1.84484 -0.0186723, -1.8456 " /><path d="M2.595, 0 L2.925, 5.55112e-17 " /><path d="M2.925, 5.55112e-17 C2.9159, -0.183453 2.90561, -0.274609 2.89514, -0.350262  C2.88495, -0.423403 2.87374, -0.488578 2.8615, -0.545789  C2.84897, -0.605531 2.83459, -0.664788 2.81835, -0.723559  C2.76946, -0.900315 2.70462, -1.07066 2.62381, -1.23459  C2.43602, -1.61616 2.16368, -1.95369 1.83357, -2.21629  C1.17503, -2.74684 0.28251, -2.95543 -0.530186, -2.7797  C-1.34527, -2.61296 -2.0628, -2.06704 -2.43889, -1.34087  C-2.82331, -0.618525 -2.85907, 0.267379 -2.54441, 1.00733  C-2.23783, 1.75118 -1.58895, 2.33321 -0.831301, 2.55825  C-0.0757385, 2.79189 0.771481, 2.66477 1.41629, 2.23184  C2.0663, 1.80588 2.50038, 1.08471 2.57618, 0.325514  C2.66051, -0.433272 2.38614, -1.21316 1.85894, -1.74556  C1.33735, -2.28416 0.575489, -2.56439 -0.157118, -2.49846  C-0.890908, -2.44069 -1.57934, -2.03948 -1.98752, -1.44411  C-2.40262, -0.852936 -2.52951, -0.0814602 -2.33443, 0.599311  C-2.14685, 1.28269 -1.64284, 1.86065 -1.00639, 2.13853  C-0.37263, 2.42369 0.378982, 2.40378 0.986411, 2.09639  C1.59769, 1.79562 2.05187, 1.21532 2.1989, 0.564653  C2.3533, -0.0848134 2.1985, -0.789952 1.79898, -1.30695  C1.60123, -1.56631 1.34661, -1.77969 1.06006, -1.9281  C0.895475, -2.01333 0.723437, -2.07671 0.543944, -2.11824  C0.499289, -2.12856 0.454388, -2.13746 0.409241, -2.14495  C0.365993, -2.15229 0.316894, -2.15861 0.261946, -2.1639  C0.205114, -2.16932 0.136783, -2.17411 1.22125e-15, -2.17508 " /><path d="M-0.0186723, -1.8456 L1.22125e-15, -2.17508 " /><path d="M2.925, 2.77556e-17 L3.2, 0 " /><path d="M3.2, 2.77556e-17 C3.191, -0.188271 3.1802, -0.292259 3.16908, -0.374424  C3.15835, -0.453697 3.14636, -0.525161 3.13311, -0.588818  C3.11968, -0.654252 3.10422, -0.719167 3.08673, -0.783563  C3.03405, -0.977235 2.96387, -1.16399 2.87618, -1.34384  C2.6724, -1.76241 2.37574, -2.13338 2.01537, -2.42262  C1.29661, -3.00692 0.318975, -3.24019 -0.57336, -3.05129  C-1.46827, -2.87235 -2.25899, -2.27663 -2.67571, -1.48064  C-3.10163, -0.688987 -3.1456, 0.285059 -2.80304, 1.10079  C-2.53932, 1.74403 -2.04626, 2.28426 -1.43853, 2.60383  C-0.832439, 2.92688 -0.11702, 3.02683 0.546535, 2.8868  C1.21106, 2.75046 1.81806, 2.37563 2.23429, 1.85098  C2.65358, 1.32852 2.8789, 0.66106 2.86476, -4.58328e-15 " /><path d="M1.22125e-15, -2.17508 L0.000114227, -2.17709 " /><path d="M3.2, 0 Q3.19213, -0.15999 3.18293, -0.253481 " /><path d="M0.799132, 2.82243 C1.40604, 2.64022 1.94514, 2.25566 2.31237, 1.74856  C2.68203, 1.24303 2.87768, 0.618535 2.86476, -4.57914e-15 " /></g>

</svg>
