<svg xmlns="http://www.w3.org/2000/svg" viewBox="-7.054038800000001 -7.403748800000001 11.425087600000001 13.095657600000001">
<rect width="100%" height="100%" fill="white"/>
<g   fill="none"
   stroke="rgb(0, 0, 0)"
   stroke-linecap="butt"
   stroke-linejoin="miter"
   stroke-width="0.35"
   transform="scale(1, -1)"
  >
<path id= "1" d=" M -0.330927 5.95879 L -1.15589 6.43508 " />
<path id= "2" d=" M -5.32593 -2.6928 L -6.15089 -2.21651 " />
<path d="M-1.15589, 6.43508 C-1.55049, 6.6639 -2.0139, 6.76464 -2.48671, 6.73754  C-2.65181, 6.72828 -2.81774, 6.70463 -2.98449, 6.66661  C-3.40219, 6.57163 -3.82053, 6.38955 -4.22516, 6.1355  C-5.07397, 5.60435 -5.86546, 4.74477 -6.44295, 3.74967  C-7.03556, 2.73325 -7.3953, 1.59015 -7.42686, 0.568664  C-7.44295, 0.099519 -7.39005, -0.336938 -7.26814, -0.740708  C-7.21764, -0.905826 -7.15489, -1.06291 -7.07987, -1.21198  C-6.86691, -1.63644 -6.54737, -1.98861 -6.15089, -2.21651 " /></g>
<g   fill="none"
   stroke="rgb(0, 0, 0)"
   stroke-linecap="butt"
   stroke-linejoin="miter"
   stroke-width="0.35"
   transform="scale(1, -1)"
  >
<path d="M3.45408 2.1219 A5.525 3.18986 60 0 1 3.4679 2.50895" />
<path d="M1.79191, -2.16209 L1.97461, -1.87285  L2.14507, -1.58592  L2.30402, -1.30011  L2.45211, -1.0142  L2.58998, -0.726998  L2.71821, -0.437283  L2.83733, -0.143838  L2.94784, 0.154573  L3.05022, 0.459208  L3.1449, 0.771351  L3.23227, 1.09232  L3.3127, 1.42346  L3.38654, 1.76617  L3.45408, 2.1219 " /><path d="M1.2233 -2.86945 A5.525 3.18986 60 0 1 1.79191 -2.16209" />
<path d="M-2.10104, -4.78876 L-1.79321, -4.67752  L-1.5006, -4.56437  L-1.22197, -4.44883  L-0.956143, -4.33042  L-0.702002, -4.20862  L-0.458475, -4.08294  L-0.224537, -3.95285  L0.000799665, -3.81778  L0.218483, -3.67718  L0.429432, -3.53045  L0.634534, -3.37698  L0.834654, -3.21611  L1.03064, -3.04717  L1.2233, -2.86945 " /><path d="M-2.66964 -4.73797 A5.525 3.18986 60 0 1 -2.10104 -4.78876" />
<path d="M3.45408, 2.88004 Q3.3883, 3.0245 3.3127, 3.17069  Q3.23422, 3.31764 3.1449, 3.46826  Q3.09756, 3.54473 3.05022, 3.62121  Q2.99903, 3.69949 2.94784, 3.77778  Q2.89258, 3.85821 2.83733, 3.93864  Q2.77777, 4.02156 2.71821, 4.10447  Q2.65409, 4.19022 2.58998, 4.27597  Q2.52105, 4.36491 2.45211, 4.45385  Q2.37807, 4.54636 2.30402, 4.63887  Q2.22455, 4.73534 2.14507, 4.83181  Q2.05984, 4.93265 1.97461, 5.03348  Q1.88326, 5.13911 1.79191, 5.24473 " /><path d="M3.4679 2.50895 A5.525 3.18986 60 0 1 3.45408 2.88004" />
<path d="M-2.13661, 2.44328 C-2.71528, 1.92607 -3.17979, 1.14851 -3.35092, 0.444963 " /><path d="M-2.0204, 2.82535 C-2.44987, 2.52731 -2.852, 2.0764 -3.14195, 1.57771  C-3.41371, 1.11349 -3.58673, 0.611498 -3.63162, 0.173652 " /><path id= "10" d=" M 3.45408 2.88004 L 1.27885 4.13591 " />
<path d="M1.29267 3.76482 A5.525 3.18986 60 0 1 1.27885 4.13591" />
<path d="M-0.38332, 6.5006 Q-0.31697, 6.35582 -0.240943, 6.20938  Q-0.162062, 6.0622 -0.0724838, 5.91143  Q-0.0250439, 5.8349 0.022396, 5.75837  Q0.0736474, 5.68004 0.124899, 5.60172  Q0.180178, 5.52128 0.235457, 5.44083  Q0.294997, 5.35793 0.354536, 5.27503  Q0.418587, 5.18932 0.482638, 5.1036  Q0.551471, 5.01472 0.620303, 4.92584  Q0.694207, 4.83341 0.768111, 4.74098  Q0.847398, 4.64462 0.926685, 4.54826  Q1.01169, 4.44755 1.09669, 4.34685  Q1.18777, 4.24138 1.27885, 4.13591 " /><path id= "13" d=" M 1.79191 5.24473 L -0.38332 6.5006 " />
<path d="M-0.38332 6.5006 A5.525 3.18986 60 0 1 -0.951926 6.55139" />
<path d="M-1.2022, 6.4611 Q-1.07966, 6.5065 -0.951926, 6.55139 " /><path d="M-4.84487, -3.4821 C-5.16096, -3.11976 -5.42333, -2.80074 -5.64592, -2.50805 " /><path id= "17" d=" M -2.66964 -4.73797 L -4.84487 -3.4821 " />
<path id= "18" d=" M -2.10104 -4.78876 L -4.27627 -3.53289 " />
<path d="M-4.84487 -3.4821 A5.525 3.18986 60 0 1 -4.27627 -3.53289" />
<path d="M-0.951926, -1.61358 L-1.25921, -1.72513  L-1.55136, -1.83854  L-1.82963, -1.9543  L-2.09517, -2.07288  L-2.3491, -2.19479  L-2.59251, -2.32054  L-2.82641, -2.45066  L-3.05178, -2.5857  L-3.26959, -2.72623  L-3.48074, -2.87284  L-3.68613, -3.02615  L-3.88662, -3.1868  L-4.08306, -3.35548  L-4.27627, -3.53289 " /><path id= "21" d=" M 1.2233 -2.86945 L -0.951926 -1.61358 " />
<path id= "22" d=" M 1.79191 -2.16209 L -0.38332 -0.906223 " />
<path d="M-0.951926 -1.61358 A5.525 3.18986 60 0 1 -0.38332 -0.906223" />
<path d="M1.27885, 3.37777 L1.09669, 3.08822  L0.926685, 2.80103  L0.768111, 2.515  L0.620303, 2.22893  L0.482638, 1.9416  L0.354536, 1.65182  L0.235457, 1.35835  L0.124899, 1.05996  L0.022396, 0.755399  L-0.0724838, 0.443373  L-0.16014, 0.122572  L-0.240943, -0.208357  L-0.315232, -0.550807  L-0.38332, -0.906223 " /><path id= "25" d=" M 3.45408 2.1219 L 1.27885 3.37777 " />
<path d="M1.27885 3.37777 A5.525 3.18986 60 0 1 1.29267 3.76482" />
<path d="M-1.91007, 3.42774 C-2.52432, 3.22257 -3.17576, 2.63569 -3.60067, 1.92817  C-4.04983, 1.19593 -4.23725, 0.361717 -4.09459, -0.181315 " /><path d="M-1.95189, 3.59831 C-2.23407, 3.53131 -2.53148, 3.38315 -2.81502, 3.1703  C-3.21673, 2.87017 -3.58832, 2.43934 -3.85957, 1.96783  C-4.05531, 1.62912 -4.19952, 1.27094 -4.27859, 0.932938  C-4.38974, 0.46269 -4.37229, 0.0344163 -4.23472, -0.262407 " /><path d="M0.703571 3.67219 A4.995 2.88386 60 0 1 -0.330927 5.95879" />
<path d="M-5.32593 -2.6928 A4.995 2.88386 60 0 1 0.703571 3.67219" />
<path d="M-2.0931, 3.92721 C-2.46848, 3.93213 -2.8997, 3.76503 -3.30366, 3.46301  C-3.6846, 3.18012 -4.03925, 2.77977 -4.30708, 2.33756  C-4.63347, 1.80253 -4.82767, 1.2103 -4.84625, 0.720096  C-4.86539, 0.278948 -4.74457, -0.076666 -4.515, -0.267633 " /><path d="M-2.16832, 4.03995 C-2.57579, 4.09175 -3.06701, 3.92181 -3.52296, 3.57791  C-3.92139, 3.28001 -4.29016, 2.85362 -4.56066, 2.38648  C-4.86759, 1.86036 -5.04581, 1.2869 -5.05771, 0.813086  C-5.07299, 0.324358 -4.91245, -0.0531487 -4.62559, -0.216167 " /><path d="M-4.62559, -0.216167 Q-4.54034, -0.265362 -4.4422, -0.289818 " /><path d="M-2.37764, 4.25086 C-2.82477, 4.44587 -3.44311, 4.29814 -4.01033, 3.87158  C-4.39101, 3.58898 -4.74548, 3.18907 -5.0133, 2.74727  C-5.33861, 2.21445 -5.53292, 1.62471 -5.55306, 1.13546  C-5.56137, 0.943023 -5.54488, 0.769547 -5.50358, 0.615036 " /><path d="M-4.22089, -0.259493 C-4.61514, -0.34562 -4.96715, -0.258432 -5.20403, -0.00912924  C-5.35117, 0.144264 -5.45442, 0.358111 -5.50358, 0.615036 " /><path d="M-3.8317 4.23803 A2.5 1.44338 60 0 1 -5.50358 0.615036" />
<path d="M-1.90844, 3.41933 C-1.98658, 3.83228 -2.18825, 4.15151 -2.47914, 4.31808 " /><path d="M-2.47914, 4.31808 C-2.83839, 4.52867 -3.33407, 4.49731 -3.8317, 4.23803 " /><path d="M-2.3774 5.19029 A3.33333 1.9245 60 0 1 -5.68362 -0.536258" />
<path d="M-1.89196, 4.00622 C-1.98379, 4.20559 -2.11022, 4.35844 -2.27127, 4.46477  C-2.66515, 4.72968 -3.26146, 4.64896 -3.8317, 4.23803 " /><path d="M-1.88562 3.81032 A3.33333 1.9245 60 0 1 -2.57597 5.33624" />
<path d="M-2.57597 5.33624 A3.33333 1.9245 60 0 1 -5.90931 -0.437262" />
<path d="M-5.90931 -0.437262 A3.33333 1.9245 60 0 1 -1.88562 3.81032" />
</g>

</svg>
