<svg xmlns="http://www.w3.org/2000/svg" viewBox="-6.884 -6.409000000000001 7.768000000000001 12.818000000000001">
<rect width="100%" height="100%" fill="white"/>
<g   fill="none"
   stroke="rgb(0, 0, 0)"
   stroke-linecap="butt"
   stroke-linejoin="miter"
   stroke-width="0.35"
   transform="scale(1, -1)"
  >
<path id= "1" d=" M -3.41069e-16 -4.45 L -0.620652 -5.525 " />
<path id= "2" d=" M -0.620652 -5.525 L -3.69689 -5.525 " />
<path id= "3" d=" M -4 -4.995 L -3.69689 -5.525 " />
<path id= "4" d=" M -4 -4.995 L -5.16667 -4.995 " />
<path d="M-5.16667, -4.995 C-5.29535, -4.99461 -5.41755, -4.96629 -5.53328, -4.91002  C-5.56861, -4.89271 -5.60253, -4.87301 -5.63507, -4.8509  C-5.86068, -4.70002 -6.00202, -4.43307 -6, -4.16167 " /></g>
<g   fill="none"
   stroke="rgb(0, 0, 0)"
   stroke-linecap="butt"
   stroke-linejoin="miter"
   stroke-width="0.35"
   transform="scale(1, -1)"
  >
<path d="M0, -4.45 L0, -4.33843  L0, -4.00931  L0, -3.47915  L0, -2.77453  L0, -1.93078  L0, -0.990218  L0, -7.77156e-16  L0, 0.990218  L0, 1.93078  L0, 2.77453  L0, 3.47915  L0, 4.00931  L0, 4.33843  L0, 4.45 " /><path id= "2" d=" M 0 4.45 L -0.620652 5.525 " />
<path d="M-0.620652, 5.50546 Q-0.620652, 5.52495 -0.620652, 5.525 " /><path d="M-0.620652, 3.15479 L-0.539224, 3.33175  L-0.470896, 3.50449  L-0.41538, 3.67375  L-0.372441, 3.84025  L-0.341899, 4.00469  L-0.323625, 4.16775  L-0.317543, 4.33013  L-0.323625, 4.49251  L-0.341899, 4.65557  L-0.372441, 4.82  L-0.41538, 4.9865  L-0.470896, 5.15576  L-0.539224, 5.32851  L-0.620652, 5.50546 " /><path d="M-0.620652, 2.35066 Q-0.620652, 2.77218 -0.620652, 3.15479 " /><path d="M-0.620652, -2.35066 L-0.539224, -1.99676  L-0.470896, -1.65127  L-0.41538, -1.31275  L-0.372441, -0.979749  L-0.341899, -0.650881  L-0.323625, -0.324756  L-0.317543, 5.55112e-17  L-0.323625, 0.324756  L-0.341899, 0.650881  L-0.372441, 0.979749  L-0.41538, 1.31275  L-0.470896, 1.65127  L-0.539224, 1.99676  L-0.620652, 2.35066 " /><path d="M-0.620652, -3.15479 Q-0.620652, -2.77218 -0.620652, -2.35066 " /><path d="M-0.620652, -5.50546 L-0.539224, -5.32851  L-0.470896, -5.15576  L-0.41538, -4.9865  L-0.372441, -4.82  L-0.341899, -4.65557  L-0.323625, -4.49251  L-0.317543, -4.33013  L-0.323625, -4.16775  L-0.341899, -4.00469  L-0.372441, -3.84025  L-0.41538, -3.67375  L-0.470896, -3.50449  L-0.539224, -3.33175  L-0.620652, -3.15479 " /><path d="M-0.620652, -5.525 Q-0.620652, -5.52495 -0.620652, -5.50546 " /><path id= "10" d=" M -0.620652 5.525 L -3.69689 5.525 " />
<path id= "11" d=" M -0.620652 -5.50546 L -3.69689 -5.50546 " />
<path d="M-3.69689, -5.525 Q-3.69689, -5.52495 -3.69689, -5.50546 " /><path d="M-3.69689, -3.15479 L-3.77755, -3.33175  L-3.84523, -3.50449  L-3.90023, -3.67375  L-3.94276, -3.84025  L-3.97301, -4.00469  L-3.99112, -4.16775  L-3.99714, -4.33013  L-3.99112, -4.49251  L-3.97301, -4.65557  L-3.94276, -4.82  L-3.90023, -4.9865  L-3.84523, -5.15576  L-3.77755, -5.32851  L-3.69689, -5.50546 " /><path id= "14" d=" M -0.620652 -3.15479 L -3.69689 -3.15479 " />
<path id= "15" d=" M -0.620652 -2.35066 L -3.69689 -2.35066 " />
<path d="M-3.69689, -3.15479 Q-3.69689, -2.77218 -3.69689, -2.35066 " /><path d="M-3.69689, 2.35066 L-3.77755, 1.99676  L-3.84523, 1.65127  L-3.90023, 1.31275  L-3.94276, 0.979749  L-3.97301, 0.650881  L-3.99112, 0.324756  L-3.99714, -4.996e-16  L-3.99112, -0.324756  L-3.97301, -0.650881  L-3.94276, -0.979749  L-3.90023, -1.31275  L-3.84523, -1.65127  L-3.77755, -1.99676  L-3.69689, -2.35066 " /><path id= "18" d=" M -0.620652 2.35066 L -3.69689 2.35066 " />
<path id= "19" d=" M -0.620652 3.15479 L -3.69689 3.15479 " />
<path d="M-3.69689, 2.35066 Q-3.69689, 2.77218 -3.69689, 3.15479 " /><path d="M-3.69689, 5.50546 L-3.77755, 5.32851  L-3.84523, 5.15576  L-3.90023, 4.9865  L-3.94276, 4.82  L-3.97301, 4.65557  L-3.99112, 4.49251  L-3.99714, 4.33013  L-3.99112, 4.16775  L-3.97301, 4.00469  L-3.94276, 3.84025  L-3.90023, 3.67375  L-3.84523, 3.50449  L-3.77755, 3.33175  L-3.69689, 3.15479 " /><path id= "22" d=" M -0.620652 5.50546 L -3.69689 5.50546 " />
<path d="M-3.69689, 5.50546 Q-3.69689, 5.52495 -3.69689, 5.525 " /><path id= "24" d=" M -3.69689 5.525 L -4 4.995 " />
<path d="M-4, -4.995 L-4, -4.86976  L-4, -4.50034  L-4, -3.90525  L-4, -3.11433  L-4, -2.16725  L-4, -1.11149  L-4, -8.88178e-16  L-4, 1.11149  L-4, 2.16725  L-4, 3.11433  L-4, 3.90525  L-4, 4.50034  L-4, 4.86976  L-4, 4.995 " /><path id= "26" d=" M -4 4.995 L -5.16667 4.995 " />
<path d="M-5.16667 4.995 A0.833333 0.833333 0 0 1 -6 4.16167" /><path d="M-6, -4.16167 L-6, -4.05732  L-6, -3.74953  L-6, -3.25372  L-6, -2.59476  L-6, -1.80568  L-6, -0.926058  L-6, -7.77156e-16  L-6, 0.926058  L-6, 1.80568  L-6, 2.59476  L-6, 3.25372  L-6, 3.74953  L-6, 4.05732  L-6, 4.16167 " /></g>

</svg>
