<svg xmlns="http://www.w3.org/2000/svg" viewBox="-6.884 -6.409000000000001 7.7680000000003275 12.818000000000001">
<rect width="100%" height="100%" fill="white"/>
<g   fill="none"
   stroke="rgb(165, 165, 165)"
   stroke-dasharray="1.2,0.8"
   stroke-linecap="butt"
   stroke-linejoin="miter"
   stroke-width="0.25"
   transform="scale(1, -1)"
  >
<path d="M-0.214285, 0.502509 C-0.201005, -0.000689485 -0.19383, -0.578656 -0.193667, -1.06314  C-0.193758, -1.25367 -0.195016, -1.43259 -0.199105, -1.56873  C-0.202049, -1.66693 -0.207084, -1.74261 -0.214284, -1.73604 " /><path d="M-0.214284, -1.73604 Q-0.357108, -1.61414 -0.5, -1.48437 " /><path d="M-0.5, -1.48445 Q-0.5, -1.54992 -0.5, -1.61539  Q-0.5, -1.7413 -0.5, -1.85511  Q-0.5, -1.90897 -0.5, -1.96282  Q-0.5, -2.0123 -0.5, -2.06178  Q-0.5, -2.10666 -0.5, -2.15155  Q-0.5, -2.19163 -0.5, -2.23172  Q-0.5, -2.26683 -0.5, -2.30194  Q-0.5, -2.33191 -0.5, -2.36189  Q-0.5, -2.3866 -0.5, -2.41131  Q-0.5, -2.43065 -0.5, -2.44998  Q-0.5, -2.46386 -0.5, -2.47773  Q-0.5, -2.48608 -0.5, -2.49443  Q-0.5, -2.49721 -0.5, -2.5 " /><path d="M-0.5, -2.5 Q-0.5, -2.49721 -0.5, -2.49443  Q-0.5, -2.48608 -0.5, -2.47773  Q-0.5, -2.46385 -0.5, -2.44998  Q-0.5, -2.43064 -0.5, -2.41131  Q-0.5, -2.38659 -0.5, -2.36188  Q-0.5, -2.3319 -0.5, -2.30192  Q-0.5, -2.26681 -0.5, -2.23169  Q-0.5, -2.19161 -0.5, -2.15152  Q-0.5, -2.10663 -0.5, -2.06174  Q-0.5, -2.01226 -0.5, -1.96278  Q-0.5, -1.90892 -0.5, -1.85506  Q-0.5, -1.74124 -0.5, -1.61532  Q-0.5, -1.54984 -0.5, -1.48437 " /><path d="M-0.325316, 2.8057 C-0.339852, 2.78104 -0.354546, 2.60974 -0.369409, 2.31615  C-0.383813, 2.0329 -0.398371, 1.63572 -0.413093, 1.18222  C-0.441425, 0.310856 -0.47037, -0.763871 -0.5, -1.48445 " /><path id= "6" d=" M -0.325316 2.8057 L 3.25712e-13 3.375 " />
<path d="M0, 3.375 L0, 3.29038  L0, 3.04077  L0, 2.63868  L0, 2.10428  L0, 1.46436  L0, 0.751008  L0, 2.22045e-16  L0, -0.751008  L0, -1.46436  L0, -2.10428  L0, -2.63868  L0, -3.04077  L0, -3.29038  L0, -3.375 " /><path d="M0, -3.375 L0, -3.29038  L0, -3.04077  L0, -2.63868  L0, -2.10428  L0, -1.46436  L0, -0.751008  L0, -6.66134e-16  L0, 0.751008  L0, 1.46436  L0, 2.10428  L0, 2.63868  L0, 3.04077  L0, 3.29038  L0, 3.375 " /><path d="M-0.325316, 2.8057 Q-0.321451, 2.81246 -0.3176, 2.80582 " /><path d="M-0.3176, 2.80582 C-0.301615, 2.77929 -0.285822, 2.57398 -0.270202, 2.22679  C-0.251311, 1.80918 -0.232678, 1.18516 -0.214285, 0.502509 " /><path d="M-0.5, -1.48437 C-0.551968, -0.828982 -0.603941, 0.073942 -0.655914, 0.84298  C-0.686314, 1.29298 -0.71671, 1.69445 -0.747112, 1.9844  C-0.7818, 2.31706 -0.816494, 2.5013 -0.851174, 2.5 " /><path id= "12" d=" M -1.14882 2.5 L -0.851174 2.5 " />
<path d="M-0.5, -1.48445 C-0.543771, -2.04055 -0.587561, -2.41264 -0.631343, -2.48494 " /><path d="M-0.631343, -2.48494 Q-0.640083, -2.49999 -0.648822, -2.5 " /><path d="M-0.648822, -2.5 C-0.689706, -2.50247 -0.730587, -2.24334 -0.771474, -1.7936  C-0.803866, -1.43968 -0.836262, -0.971186 -0.868653, -0.471045  C-0.898619, -0.00872353 -0.928582, 0.478548 -0.958549, 0.916396  C-0.989695, 1.37211 -1.02085, 1.77238 -1.052, 2.05143  C-1.07844, 2.29233 -1.10489, 2.43683 -1.13134, 2.48494 " /><path d="M-1.13134, 2.48494 Q-1.14008, 2.49999 -1.14882, 2.5 " /><path d="M0, 4.45 L0, 4.33843  L0, 4.00931  L0, 3.47915  L0, 2.77453  L0, 1.93078  L0, 0.990218  L0, 2.22045e-16  L0, -0.990218  L0, -1.93078  L0, -2.77453  L0, -3.47915  L0, -4.00931  L0, -4.33843  L0, -4.45 " /><path d="M-0.851174, 2.5 Q-0.859913, 2.49999 -0.868653, 2.48494 " /><path d="M-0.868653, 2.48494 C-0.89947, 2.43268 -0.930279, 2.23615 -0.961097, 1.92702  C-1.01941, 1.34782 -1.07772, 0.353489 -1.13603, -0.543151  C-1.16898, -1.04898 -1.20194, -1.51714 -1.2349, -1.86198  C-1.27366, -2.27016 -1.31241, -2.502 -1.35117, -2.5 " /><path d="M-1.35117, -2.5 Q-1.35991, -2.49999 -1.36865, -2.48494 " /><path d="M-1.36865, -2.48494 C-1.40203, -2.42855 -1.43541, -2.20207 -1.46878, -1.84792  C-1.50263, -1.49051 -1.53647, -1.00387 -1.57032, -0.481646  C-1.62945, 0.432916 -1.68859, 1.43297 -1.74772, 1.99022  C-1.78221, 2.31925 -1.8167, 2.50127 -1.85117, 2.5 " /><path id= "22" d=" M -2.14881 2.5 L -1.85117 2.5 " />
<path d="M-1.14882, 2.5 C-1.18741, 2.50198 -1.22603, 2.27199 -1.26464, 1.86668  C-1.29386, 1.56174 -1.32308, 1.16013 -1.3523, 0.720259  C-1.41403, -0.21085 -1.47576, -1.29361 -1.53749, -1.91294  C-1.56877, -2.23011 -1.60006, -2.43192 -1.63134, -2.48494 " /><path d="M-1.63134, -2.48494 Q-1.64008, -2.49999 -1.64882, -2.5 " /><path d="M-1.64882, -2.5 C-1.68969, -2.50246 -1.73056, -2.24347 -1.77144, -1.79393  C-1.80381, -1.44035 -1.83618, -0.972347 -1.86854, -0.472651  C-1.89906, -0.00194694 -1.92957, 0.494696 -1.96008, 0.938807  C-1.99041, 1.38087 -2.02075, 1.76926 -2.05109, 2.04328  C-2.07784, 2.28898 -2.10459, 2.4362 -2.13134, 2.48494 " /><path d="M-2.13134, 2.48494 Q-2.14008, 2.49999 -2.14881, 2.5 " /><path d="M-0.620652, -5.50546 Q-0.620652, -5.52495 -0.620652, -5.525 " /><path d="M-0.620652, -3.15479 L-0.539224, -3.33175  L-0.470896, -3.50449  L-0.41538, -3.67375  L-0.372441, -3.84025  L-0.341899, -4.00469  L-0.323625, -4.16775  L-0.317543, -4.33013  L-0.323625, -4.49251  L-0.341899, -4.65557  L-0.372441, -4.82  L-0.41538, -4.9865  L-0.470896, -5.15576  L-0.539224, -5.32851  L-0.620652, -5.50546 " /><path d="M-0.620652, -2.35066 Q-0.620652, -2.77218 -0.620652, -3.15479 " /><path d="M-0.620652, 2.35066 L-0.539224, 1.99676  L-0.470896, 1.65127  L-0.41538, 1.31275  L-0.372441, 0.979749  L-0.341899, 0.650881  L-0.323625, 0.324756  L-0.317543, -2.22045e-16  L-0.323625, -0.324756  L-0.341899, -0.650881  L-0.372441, -0.979749  L-0.41538, -1.31275  L-0.470896, -1.65127  L-0.539224, -1.99676  L-0.620652, -2.35066 " /><path d="M-0.620652, 3.15479 Q-0.620652, 2.77218 -0.620652, 2.35066 " /><path d="M-0.620652, 5.50546 L-0.539224, 5.32851  L-0.470896, 5.15576  L-0.41538, 4.9865  L-0.372441, 4.82  L-0.341899, 4.65557  L-0.323625, 4.49251  L-0.317543, 4.33013  L-0.323625, 4.16775  L-0.341899, 4.00469  L-0.372441, 3.84025  L-0.41538, 3.67375  L-0.470896, 3.50449  L-0.539224, 3.33175  L-0.620652, 3.15479 " /><path d="M-0.620652, 5.525 Q-0.620652, 5.52495 -0.620652, 5.50546 " /><path d="M-1.85117, 2.5 Q-1.85991, 2.49999 -1.86865, 2.48494 " /><path d="M-1.86865, 2.48494 C-1.89947, 2.43267 -1.93028, 2.23616 -1.96109, 1.92702  C-2.01941, 1.34785 -2.07771, 0.353577 -2.13602, -0.543037  C-2.16897, -1.04885 -2.20193, -1.51701 -2.23489, -1.86187  C-2.27365, -2.27011 -2.31241, -2.502 -2.35117, -2.5 " /><path d="M-2.35117, -2.5 Q-2.35991, -2.49999 -2.36865, -2.48494 " /><path d="M-2.36865, -2.48494 C-2.40206, -2.4285 -2.43546, -2.20166 -2.46887, -1.84698  C-2.50256, -1.49104 -2.53624, -1.00722 -2.56992, -0.487757  C-2.62944, 0.432379 -2.68896, 1.44021 -2.74848, 1.99742  C-2.78271, 2.32196 -2.81695, 2.50124 -2.85117, 2.5 " /><path id= "38" d=" M -3.14881 2.5 L -2.85117 2.5 " />
<path d="M-2.14881, 2.5 C-2.18716, 2.50193 -2.22554, 2.27497 -2.2639, 1.87436  C-2.29333, 1.56889 -2.32275, 1.16492 -2.35218, 0.722036  C-2.41374, -0.206237 -2.47529, -1.28592 -2.53685, -1.90654  C-2.56835, -2.22736 -2.59984, -2.43158 -2.63134, -2.48494 " /><path d="M-2.63134, -2.48494 Q-2.64008, -2.49999 -2.64881, -2.5 " /><path d="M-2.64881, -2.5 C-2.68956, -2.50243 -2.7303, -2.24515 -2.77105, -1.79817  C-2.80365, -1.44289 -2.83626, -0.971179 -2.86887, -0.467587  C-2.89896, -0.00330077 -2.92904, 0.485938 -2.95912, 0.924887  C-2.99001, 1.37612 -3.0209, 1.7724 -3.05179, 2.04963  C-3.0783, 2.29159 -3.10482, 2.43669 -3.13133, 2.48494 " /><path d="M-3.13133, 2.48494 Q-3.14007, 2.49999 -3.14881, 2.5 " /><path id= "43" d=" M -0.620652 5.50546 L -3.69689 5.50546 " />
<path d="M-3.69689, 5.525 Q-3.69689, 5.52495 -3.69689, 5.50546 " /><path d="M-3.69689, 3.15479 L-3.77755, 3.33175  L-3.84523, 3.50449  L-3.90023, 3.67375  L-3.94276, 3.84025  L-3.97301, 4.00469  L-3.99112, 4.16775  L-3.99714, 4.33013  L-3.99112, 4.49251  L-3.97301, 4.65557  L-3.94276, 4.82  L-3.90023, 4.9865  L-3.84523, 5.15576  L-3.77755, 5.32851  L-3.69689, 5.50546 " /><path id= "46" d=" M -0.620652 3.15479 L -3.69689 3.15479 " />
<path id= "47" d=" M -0.620652 2.35066 L -3.69689 2.35066 " />
<path d="M-3.69689, 3.15479 Q-3.69689, 2.77218 -3.69689, 2.35066 " /><path d="M-3.69689, -2.35066 L-3.77755, -1.99676  L-3.84523, -1.65127  L-3.90023, -1.31275  L-3.94276, -0.979749  L-3.97301, -0.650881  L-3.99112, -0.324756  L-3.99714, -2.22045e-16  L-3.99112, 0.324756  L-3.97301, 0.650881  L-3.94276, 0.979749  L-3.90023, 1.31275  L-3.84523, 1.65127  L-3.77755, 1.99676  L-3.69689, 2.35066 " /><path id= "50" d=" M -0.620652 -2.35066 L -3.69689 -2.35066 " />
<path id= "51" d=" M -0.620652 -3.15479 L -3.69689 -3.15479 " />
<path d="M-3.69689, -2.35066 Q-3.69689, -2.77218 -3.69689, -3.15479 " /><path d="M-3.69689, -5.50546 L-3.77755, -5.32851  L-3.84523, -5.15576  L-3.90023, -4.9865  L-3.94276, -4.82  L-3.97301, -4.65557  L-3.99112, -4.49251  L-3.99714, -4.33013  L-3.99112, -4.16775  L-3.97301, -4.00469  L-3.94276, -3.84025  L-3.90023, -3.67375  L-3.84523, -3.50449  L-3.77755, -3.33175  L-3.69689, -3.15479 " /><path id= "54" d=" M -0.620652 -5.50546 L -3.69689 -5.50546 " />
<path d="M-3.69689, -5.50546 Q-3.69689, -5.52495 -3.69689, -5.525 " /><path d="M-2.85117, 2.5 Q-2.85991, 2.49999 -2.86865, 2.48494 " /><path d="M-2.86865, 2.48494 C-2.89942, 2.43274 -2.93019, 2.2367 -2.96097, 1.92829  C-3.01919, 1.35055 -3.07741, 0.358709 -3.13563, -0.537039  C-3.16858, -1.04306 -3.20153, -1.51183 -3.23448, -1.85763  C-3.27338, -2.26846 -3.31227, -2.50203 -3.35117, -2.5 " /><path d="M-3.35117, -2.5 Q-3.35991, -2.49999 -3.36865, -2.48494 " /><path d="M-3.36865, -2.48494 C-3.40216, -2.42834 -3.43567, -2.20025 -3.46918, -1.84374  C-3.50311, -1.48438 -3.53705, -0.995395 -3.57098, -0.471333  C-3.62998, 0.441812 -3.68897, 1.43779 -3.74797, 1.99257  C-3.78237, 2.32014 -3.81678, 2.50126 -3.85117, 2.5 " /><path id= "60" d=" M -4.14881 2.5 L -3.85117 2.5 " />
<path d="M-3.14881, 2.5 C-3.18716, 2.50193 -3.22554, 2.27496 -3.2639, 1.87434  C-3.29334, 1.56876 -3.32277, 1.16462 -3.35221, 0.721559  C-3.4142, -0.213439 -3.47619, -1.3015 -3.53819, -1.92007  C-3.56923, -2.23318 -3.60029, -2.43231 -3.63133, -2.48494 " /><path d="M-3.63133, -2.48494 Q-3.64007, -2.49999 -3.64881, -2.5 " /><path d="M-3.64881, -2.5 C-3.68984, -2.50251 -3.73087, -2.24139 -3.77191, -1.78873  C-3.80424, -1.43444 -3.83658, -0.966306 -3.86891, -0.466922  C-3.89903, -0.00199544 -3.92916, 0.487912 -3.95928, 0.927263  C-3.98999, 1.37575 -4.02071, 1.7698 -4.05142, 2.04637  C-4.07806, 2.29025 -4.10469, 2.43644 -4.13133, 2.48494 " /><path d="M-4.13133, 2.48494 Q-4.14007, 2.49999 -4.14881, 2.5 " /><path d="M-4, 4.995 L-4, 4.86976  L-4, 4.50034  L-4, 3.90525  L-4, 3.11433  L-4, 2.16725  L-4, 1.11149  L-4, 2.22045e-16  L-4, -1.11149  L-4, -2.16725  L-4, -3.11433  L-4, -3.90525  L-4, -4.50034  L-4, -4.86976  L-4, -4.995 " /><path d="M-3.85117, 2.5 Q-3.85991, 2.49999 -3.86865, 2.48494 " /><path d="M-3.86865, 2.48494 C-3.89942, 2.43274 -3.93019, 2.2367 -3.96097, 1.92828  C-4.01918, 1.35066 -4.07738, 0.359116 -4.13559, -0.536492  C-4.16852, -1.04228 -4.20146, -1.5109 -4.2344, -1.85673  C-4.27332, -2.26811 -4.31224, -2.50204 -4.35117, -2.5 " /><path d="M-4.35117, -2.5 Q-4.3599, -2.49999 -4.36864, -2.48494 " /><path d="M-4.36864, -2.48494 C-4.40211, -2.42841 -4.43558, -2.20085 -4.46904, -1.84511  C-4.50292, -1.48671 -4.5368, -0.999041 -4.57067, -0.4761  C-4.62974, 0.43784 -4.68881, 1.43586 -4.74788, 1.99174  C-4.78231, 2.31983 -4.81674, 2.50126 -4.85117, 2.5 " /><path id= "70" d=" M -5.1488 2.5 L -4.85117 2.5 " />
<path d="M-4.14881, 2.5 C-4.18716, 2.50193 -4.22553, 2.27495 -4.2639, 1.87432  C-4.29335, 1.56863 -4.32279, 1.16431 -4.35224, 0.721073  C-4.41396, -0.209903 -4.47569, -1.29273 -4.53742, -1.91233  C-4.56872, -2.22985 -4.60003, -2.43189 -4.63133, -2.48494 " /><path d="M-4.63133, -2.48494 Q-4.64007, -2.49999 -4.64881, -2.5 " /><path d="M-4.64881, -2.5 C-4.6891, -2.50233 -4.7294, -2.25089 -4.7697, -1.81273  C-4.8027, -1.45633 -4.83571, -0.9796 -4.86871, -0.469979  C-4.89879, -0.00579252 -4.92887, 0.483478 -4.95896, 0.922588  C-4.9896, 1.37044 -5.02025, 1.76437 -5.05089, 2.04163  C-5.07771, 2.28831 -5.10452, 2.43608 -5.13133, 2.48494 " /><path d="M-5.13133, 2.48494 Q-5.14006, 2.49999 -5.1488, 2.5 " /><path d="M-5.4, 2.93506 Q-5.4, 2.94791 -5.4, 2.94791 " /><path d="M-5.4, 2.94791 Q-5.4, 2.94786 -5.4, 2.91713 " /><path d="M-5.4, 2.91713 C-5.4, 2.87412 -5.4, 2.70815 -5.4, 2.4563  C-5.4, 2.31857 -5.4, 2.16371 -5.4, 1.99172  C-5.4, 1.84807 -5.4, 1.69417 -5.4, 1.5675 " /><path d="M-4.85117, 2.5 Q-4.85991, 2.49999 -4.86865, 2.48494 " /><path d="M-4.86865, 2.48494 C-4.89942, 2.43274 -4.93019, 2.23669 -4.96096, 1.92828  C-5.01916, 1.35078 -5.07736, 0.359546 -5.13555, -0.535913  C-5.16846, -1.04137 -5.20137, -1.50974 -5.23429, -1.85559  C-5.27325, -2.26767 -5.3122, -2.50204 -5.35116, -2.5 " /><path d="M-5.35116, -2.5 Q-5.3599, -2.49999 -5.36864, -2.48494 " /><path d="M-5.36864, -2.48494 Q-5.38432, -2.4578 -5.4, -2.38323 " /><path d="M-5.4, 1.5675 C-5.4, 0.929593 -5.4, 0.175791 -5.4, -0.504013  C-5.4, -1.08769 -5.4, -1.61166 -5.4, -1.95961  C-5.4, -2.1701 -5.4, -2.31131 -5.4, -2.38323 " /><path d="M-5.4, -0.0188454 Q-5.4, -0.298332 -5.4, -0.572039  Q-5.4, -0.705849 -5.4, -0.839659  Q-5.4, -0.968241 -5.4, -1.09682  Q-5.4, -1.21857 -5.4, -1.34032  Q-5.4, -1.45373 -5.4, -1.56713  Q-5.4, -1.67077 -5.4, -1.77442  Q-5.4, -1.86701 -5.4, -1.9596  Q-5.4, -2.03999 -5.4, -2.12038  Q-5.4, -2.18757 -5.4, -2.25475  Q-5.4, -2.3079 -5.4, -2.36104  Q-5.4, -2.39948 -5.4, -2.43792  Q-5.4, -2.46117 -5.4, -2.48443  Q-5.4, -2.49222 -5.4, -2.5 " /><path d="M-5.4, -2.5 Q-5.4, -2.49938 -5.4, -2.38323 " /><path d="M-5.1488, 2.5 C-5.18715, 2.50193 -5.22553, 2.27495 -5.2639, 1.8743  C-5.30927, 1.40454 -5.35463, 0.695139 -5.4, -0.0188454 " /><path d="M-5.4, 3.33333 L-5.4, 3.24976  L-5.4, 3.00323  L-5.4, 2.6061  L-5.4, 2.0783  L-5.4, 1.44628  L-5.4, 0.741736  L-5.4, 2.22045e-16  L-5.4, -0.741736  L-5.4, -1.44628  L-5.4, -2.0783  L-5.4, -2.6061  L-5.4, -3.00323  L-5.4, -3.24976  L-5.4, -3.33333 " /><path d="M-5.4, -3.33333 L-5.4, -3.24976  L-5.4, -3.00323  L-5.4, -2.6061  L-5.4, -2.0783  L-5.4, -1.44628  L-5.4, -0.741736  L-5.4, -6.66134e-16  L-5.4, 0.741736  L-5.4, 1.44628  L-5.4, 2.0783  L-5.4, 2.6061  L-5.4, 3.00323  L-5.4, 3.24976  L-5.4, 3.33333 " /><path d="M-5.4, 2.93506 C-5.4, 2.87824 -5.4, 2.61336 -5.4, 2.18793  C-5.4, 1.63091 -5.4, 0.787599 -5.4, -0.0188454 " /><path d="M-6, 4.16167 L-6, 4.05732  L-6, 3.74953  L-6, 3.25372  L-6, 2.59476  L-6, 1.80568  L-6, 0.926058  L-6, 2.22045e-16  L-6, -0.926058  L-6, -1.80568  L-6, -2.59476  L-6, -3.25372  L-6, -3.74953  L-6, -4.05732  L-6, -4.16167 " /><path id= "90" d=" M -6 3.33333 L -5.4 3.33333 " />
<path d="M-6, 3.33333 L-6, 3.24976  L-6, 3.00323  L-6, 2.6061  L-6, 2.0783  L-6, 1.44628  L-6, 0.741736  L-6, 2.22045e-16  L-6, -0.741736  L-6, -1.44628  L-6, -2.0783  L-6, -2.6061  L-6, -3.00323  L-6, -3.24976  L-6, -3.33333 " /><path d="M-6, -3.33333 L-6, -3.24976  L-6, -3.00323  L-6, -2.6061  L-6, -2.0783  L-6, -1.44628  L-6, -0.741736  L-6, -6.66134e-16  L-6, 0.741736  L-6, 1.44628  L-6, 2.0783  L-6, 2.6061  L-6, 3.00323  L-6, 3.24976  L-6, 3.33333 " /></g>
<g   fill="none"
   stroke="rgb(165, 165, 165)"
   stroke-dasharray="1.2,0.8"
   stroke-linecap="butt"
   stroke-linejoin="miter"
   stroke-width="0.25"
   transform="scale(1, -1)"
  >
<path id= "1" d=" M -0.5 -2.5 L 3.27015e-13 -3.375 " />
<path d="M-0.422916, 2.98742 L-0.3176, 2.80582 " /><path d="M-0.422916, 2.98742 Q-0.434083, 3.00628 -0.447069, 3.01666  Q-0.471293, 3.03609 -0.499998, 3.03609 " /><path id= "4" d=" M -0.648822 -2.5 L -0.5 -2.5 " />
<path d="M-0.922916, -2.98741 L-0.631343, -2.48494 " /><path d="M-1.42292, 2.98742 L-1.13134, 2.48494 " /><path d="M-0.577086, 2.98741 Q-0.565919, 3.00628 -0.552933, 3.01666  Q-0.528705, 3.03609 -0.499998, 3.03609 " /><path d="M-1.07708, -2.98741 C-1.05573, -3.02492 -1.02337, -3.03632 -0.999991, -3.03608  C-0.986268, -3.03607 -0.973146, -3.03268 -0.960626, -3.02589  C-0.946579, -3.01868 -0.934009, -3.00585 -0.922916, -2.98741 " /><path d="M-1.42292, 2.98742 Q-1.43408, 3.00628 -1.44707, 3.01667  Q-1.47129, 3.03609 -1.5, 3.03609 " /><path d="M-0.868653, 2.48494 L-0.577086, 2.98741 " /><path d="M-1.36865, -2.48494 L-1.07708, -2.98741 " /><path id= "12" d=" M -1.64882 -2.5 L -1.35117 -2.5 " />
<path d="M-1.92292, -2.98742 L-1.63134, -2.48494 " /><path d="M-2.42292, 2.98742 L-2.13134, 2.48494 " /><path d="M-1.57709, 2.98742 Q-1.56592, 3.00628 -1.55293, 3.01666  Q-1.52871, 3.03609 -1.5, 3.03609 " /><path d="M-2.07708, -2.98741 C-2.05573, -3.02492 -2.02337, -3.03632 -1.99999, -3.03609  C-1.98627, -3.03608 -1.97315, -3.03268 -1.96063, -3.02589  C-1.94658, -3.01868 -1.93401, -3.00586 -1.92292, -2.98742 " /><path d="M-2.42292, 2.98742 Q-2.43408, 3.00629 -2.44707, 3.01667  Q-2.47129, 3.0361 -2.5, 3.03609 " /><path d="M-1.86865, 2.48494 L-1.57709, 2.98742 " /><path d="M-2.36865, -2.48494 L-2.07708, -2.98741 " /><path id= "20" d=" M -2.64881 -2.5 L -2.35117 -2.5 " />
<path d="M-2.92292, -2.98742 L-2.63134, -2.48494 " /><path d="M-3.42292, 2.98742 L-3.13133, 2.48494 " /><path d="M-2.57709, 2.98742 Q-2.56592, 3.00628 -2.55293, 3.01667  Q-2.52871, 3.0361 -2.5, 3.03609 " /><path d="M-3.07708, -2.98742 C-3.05573, -3.02493 -3.02337, -3.03633 -2.99999, -3.03609  C-2.98627, -3.03608 -2.97315, -3.03268 -2.96063, -3.02589  C-2.94658, -3.01868 -2.93401, -3.00586 -2.92292, -2.98742 " /><path d="M-3.42292, 2.98742 Q-3.43408, 3.00629 -3.44707, 3.01667  Q-3.47129, 3.0361 -3.5, 3.03609 " /><path d="M-2.86865, 2.48494 L-2.57709, 2.98742 " /><path d="M-3.36865, -2.48494 L-3.07708, -2.98742 " /><path id= "28" d=" M -3.64881 -2.5 L -3.35117 -2.5 " />
<path d="M-3.92292, -2.98742 L-3.63133, -2.48494 " /><path d="M-4.42292, 2.98743 L-4.13133, 2.48494 " /><path d="M-3.57709, 2.98742 Q-3.56592, 3.00629 -3.55293, 3.01667  Q-3.52871, 3.0361 -3.5, 3.03609 " /><path d="M-4.07708, -2.98742 C-4.05573, -3.02493 -4.02337, -3.03633 -3.99999, -3.03609  C-3.98627, -3.03608 -3.97315, -3.03268 -3.96063, -3.0259  C-3.94658, -3.01868 -3.93401, -3.00586 -3.92292, -2.98742 " /><path d="M-4.42292, 2.98743 Q-4.43408, 3.00629 -4.44707, 3.01667  Q-4.47129, 3.0361 -4.5, 3.03609 " /><path d="M-3.86865, 2.48494 L-3.57709, 2.98742 " /><path d="M-4.36864, -2.48494 L-4.07708, -2.98742 " /><path id= "36" d=" M -4.64881 -2.5 L -4.35117 -2.5 " />
<path d="M-4.92292, -2.98742 L-4.63133, -2.48494 " /><path d="M-5.13133, 2.48494 L-5.4, 2.94791 " /><path d="M-4.57709, 2.98742 Q-4.56592, 3.00629 -4.55293, 3.01667  Q-4.52871, 3.0361 -4.5, 3.03609 " /><path d="M-5.07708, -2.98742 C-5.05573, -3.02493 -5.02337, -3.03633 -4.99999, -3.03609  C-4.98627, -3.03608 -4.97315, -3.03268 -4.96063, -3.0259  C-4.94658, -3.01869 -4.93401, -3.00586 -4.92292, -2.98742 " /><path d="M-4.86865, 2.48494 L-4.57709, 2.98742 " /><path d="M-5.36864, -2.48494 L-5.07708, -2.98742 " /><path id= "43" d=" M -5.4 -2.5 L -5.35116 -2.5 " />
<path id= "44" d=" M -6 -3.33333 L -5.4 -3.33333 " />
</g>
<g   fill="none"
   stroke="rgb(0, 0, 0)"
   stroke-linecap="butt"
   stroke-linejoin="miter"
   stroke-width="0.35"
   transform="scale(1, -1)"
  >
<path id= "1" d=" M -3.41069e-16 -4.45 L -0.620652 -5.525 " />
<path id= "2" d=" M -0.620652 -5.525 L -3.69689 -5.525 " />
<path id= "3" d=" M -4 -4.995 L -3.69689 -5.525 " />
<path id= "4" d=" M -4 -4.995 L -5.16667 -4.995 " />
<path d="M-5.16667, -4.995 C-5.29535, -4.99461 -5.41755, -4.96629 -5.53328, -4.91002  C-5.56861, -4.89271 -5.60253, -4.87301 -5.63507, -4.8509  C-5.86068, -4.70002 -6.00202, -4.43307 -6, -4.16167 " /></g>
<g   fill="none"
   stroke="rgb(0, 0, 0)"
   stroke-linecap="butt"
   stroke-linejoin="miter"
   stroke-width="0.35"
   transform="scale(1, -1)"
  >
<path d="M0, -4.45 L0, -4.33843  L0, -4.00931  L0, -3.47915  L0, -2.77453  L0, -1.93078  L0, -0.990218  L0, -7.77156e-16  L0, 0.990218  L0, 1.93078  L0, 2.77453  L0, 3.47915  L0, 4.00931  L0, 4.33843  L0, 4.45 " /><path id= "2" d=" M 0 4.45 L -0.620652 5.525 " />
<path d="M-0.620652, 5.50546 Q-0.620652, 5.52495 -0.620652, 5.525 " /><path d="M-0.620652, 3.15479 L-0.539224, 3.33175  L-0.470896, 3.50449  L-0.41538, 3.67375  L-0.372441, 3.84025  L-0.341899, 4.00469  L-0.323625, 4.16775  L-0.317543, 4.33013  L-0.323625, 4.49251  L-0.341899, 4.65557  L-0.372441, 4.82  L-0.41538, 4.9865  L-0.470896, 5.15576  L-0.539224, 5.32851  L-0.620652, 5.50546 " /><path d="M-0.620652, 2.35066 Q-0.620652, 2.77218 -0.620652, 3.15479 " /><path d="M-0.620652, -2.35066 L-0.539224, -1.99676  L-0.470896, -1.65127  L-0.41538, -1.31275  L-0.372441, -0.979749  L-0.341899, -0.650881  L-0.323625, -0.324756  L-0.317543, 5.55112e-17  L-0.323625, 0.324756  L-0.341899, 0.650881  L-0.372441, 0.979749  L-0.41538, 1.31275  L-0.470896, 1.65127  L-0.539224, 1.99676  L-0.620652, 2.35066 " /><path d="M-0.620652, -3.15479 Q-0.620652, -2.77218 -0.620652, -2.35066 " /><path d="M-0.620652, -5.50546 L-0.539224, -5.32851  L-0.470896, -5.15576  L-0.41538, -4.9865  L-0.372441, -4.82  L-0.341899, -4.65557  L-0.323625, -4.49251  L-0.317543, -4.33013  L-0.323625, -4.16775  L-0.341899, -4.00469  L-0.372441, -3.84025  L-0.41538, -3.67375  L-0.470896, -3.50449  L-0.539224, -3.33175  L-0.620652, -3.15479 " /><path d="M-0.620652, -5.525 Q-0.620652, -5.52495 -0.620652, -5.50546 " /><path id= "10" d=" M -0.620652 5.525 L -3.69689 5.525 " />
<path id= "11" d=" M -0.620652 -5.50546 L -3.69689 -5.50546 " />
<path d="M-3.69689, -5.525 Q-3.69689, -5.52495 -3.69689, -5.50546 " /><path d="M-3.69689, -3.15479 L-3.77755, -3.33175  L-3.84523, -3.50449  L-3.90023, -3.67375  L-3.94276, -3.84025  L-3.97301, -4.00469  L-3.99112, -4.16775  L-3.99714, -4.33013  L-3.99112, -4.49251  L-3.97301, -4.65557  L-3.94276, -4.82  L-3.90023, -4.9865  L-3.84523, -5.15576  L-3.77755, -5.32851  L-3.69689, -5.50546 " /><path id= "14" d=" M -0.620652 -3.15479 L -3.69689 -3.15479 " />
<path id= "15" d=" M -0.620652 -2.35066 L -3.69689 -2.35066 " />
<path d="M-3.69689, -3.15479 Q-3.69689, -2.77218 -3.69689, -2.35066 " /><path d="M-3.69689, 2.35066 L-3.77755, 1.99676  L-3.84523, 1.65127  L-3.90023, 1.31275  L-3.94276, 0.979749  L-3.97301, 0.650881  L-3.99112, 0.324756  L-3.99714, -4.996e-16  L-3.99112, -0.324756  L-3.97301, -0.650881  L-3.94276, -0.979749  L-3.90023, -1.31275  L-3.84523, -1.65127  L-3.77755, -1.99676  L-3.69689, -2.35066 " /><path id= "18" d=" M -0.620652 2.35066 L -3.69689 2.35066 " />
<path id= "19" d=" M -0.620652 3.15479 L -3.69689 3.15479 " />
<path d="M-3.69689, 2.35066 Q-3.69689, 2.77218 -3.69689, 3.15479 " /><path d="M-3.69689, 5.50546 L-3.77755, 5.32851  L-3.84523, 5.15576  L-3.90023, 4.9865  L-3.94276, 4.82  L-3.97301, 4.65557  L-3.99112, 4.49251  L-3.99714, 4.33013  L-3.99112, 4.16775  L-3.97301, 4.00469  L-3.94276, 3.84025  L-3.90023, 3.67375  L-3.84523, 3.50449  L-3.77755, 3.33175  L-3.69689, 3.15479 " /><path id= "22" d=" M -0.620652 5.50546 L -3.69689 5.50546 " />
<path d="M-3.69689, 5.50546 Q-3.69689, 5.52495 -3.69689, 5.525 " /><path id= "24" d=" M -3.69689 5.525 L -4 4.995 " />
<path d="M-4, -4.995 L-4, -4.86976  L-4, -4.50034  L-4, -3.90525  L-4, -3.11433  L-4, -2.16725  L-4, -1.11149  L-4, -8.88178e-16  L-4, 1.11149  L-4, 2.16725  L-4, 3.11433  L-4, 3.90525  L-4, 4.50034  L-4, 4.86976  L-4, 4.995 " /><path id= "26" d=" M -4 4.995 L -5.16667 4.995 " />
<path d="M-5.16667 4.995 A0.833333 0.833333 0 0 1 -6 4.16167" /><path d="M-6, -4.16167 L-6, -4.05732  L-6, -3.74953  L-6, -3.25372  L-6, -2.59476  L-6, -1.80568  L-6, -0.926058  L-6, -7.77156e-16  L-6, 0.926058  L-6, 1.80568  L-6, 2.59476  L-6, 3.25372  L-6, 3.74953  L-6, 4.05732  L-6, 4.16167 " /></g>

</svg>
