<svg xmlns="http://www.w3.org/2000/svg" viewBox="-6.3878968 -5.8824368 12.795333600000001 11.7648736">
<rect width="100%" height="100%" fill="white"/>
<g   fill="none"
   stroke="rgb(165, 165, 165)"
   stroke-dasharray="1.2,0.8"
   stroke-linecap="butt"
   stroke-linejoin="miter"
   stroke-width="0.25"
   transform="scale(1, -1)"
  >
<path d="M0.502509, -2.95762 C0.00303598, -3.06973 -0.570069, -3.02957 -1.05236, -2.84787 " /><path d="M-1.05236, -2.84787 C-1.24705, -2.77638 -1.42998, -2.68137 -1.56873, -2.58828  C-1.66693, -2.52295 -1.74261, -2.45735 -1.73604, -2.44667 " /><path d="M-1.73604, -2.44667 Q-1.61414, -2.22667 -1.48437, -2.01163 " /><path d="M-1.48445 2.01157 A2.5 2.5 0 0 1 -1.48437 -2.01163" /><path d="M2.8057, 4.44089e-16 C2.78104, 0.515407 2.60974, 1.02155 2.31615, 1.44233  C2.0329, 1.85089 1.63572, 2.17777 1.18222, 2.37401  C0.743427, 2.5654 0.253223, 2.63339 -0.217761, 2.56713  C-0.68214, 2.50318 -1.12622, 2.30877 -1.48445, 2.01157 " /><circle cx ="0" cy ="0" r ="3.375" /><path d="M2.8057, -1.77636e-15 C2.8402, -0.660616 2.63043, -1.33175 2.22679, -1.86115  C1.80918, -2.4156 1.18516, -2.81113 0.502509, -2.95762 " /><path d="M-1.48437, -2.01163 C-1.19056, -2.22876 -0.848521, -2.38009 -0.49023, -2.45146  C-0.0478809, -2.54055 0.418384, -2.50632 0.84298, -2.35359  C1.29298, -2.19324 1.69445, -1.90025 1.9844, -1.52058  C2.31706, -1.08859 2.5013, -0.545218 2.5, -3.33067e-16 " /><path d="M-1.48445, 2.01157 C-1.64295, 1.8945 -1.78569, 1.76061 -1.91265, 1.6099  C-2.30445, 1.14747 -2.51736, 0.538585 -2.4991, -0.0672333  C-2.48455, -0.687583 -2.2274, -1.29786 -1.7936, -1.74155  C-1.43968, -2.10747 -0.971186, -2.36028 -0.471045, -2.45522  C0.0130198, -2.54899 0.524379, -2.4945 0.977815, -2.30084 " /><path d="M1.15958, -2.21481 C1.45182, -2.062 1.71318, -1.85059 1.92367, -1.59672 " /><path d="M2.04402, -1.43943 C2.2579, -1.13623 2.40276, -0.784753 2.46465, -0.418904 " /><path d="M2.49925, -0.061195 L2.5, 1.01659e-07 " /><circle cx ="0" cy ="0" r ="4.45" /><path d="M2.5, 2.02499e-07 C2.50161, 0.576044 2.29525, 1.14967 1.92702, 1.59267  C1.63777, 1.94364 1.2506, 2.2127 0.820806, 2.36141  C0.385168, 2.51355 -0.0928801, 2.5412 -0.543151, 2.44028  C-1.04898, 2.32879 -1.51714, 2.05473 -1.86198, 1.66824  C-2.27579, 1.20953 -2.50813, 0.592878 -2.49988, -0.0248471  C-2.49582, -0.632988 -2.25899, -1.23561 -1.84792, -1.6838  C-1.49051, -2.0778 -1.00387, -2.35184 -0.481646, -2.45316  C-0.041061, -2.54029 0.422793, -2.50519 0.845254, -2.35277  C1.29736, -2.19119 1.70029, -1.89565 1.99022, -1.51295  C2.31925, -1.08223 2.50127, -0.54201 2.5, 1.01658e-07 " /><path d="M2.5, 2.025e-07 C2.50198, 0.607075 2.27199, 1.211 1.86668, 1.66299  C1.56174, 2.00627 1.16013, 2.26235 0.720259, 2.394  C0.30978, 2.51802 -0.132758, 2.53353 -0.550914, 2.43854  C-1.07918, 2.32049 -1.56541, 2.02455 -1.91294, 1.60955  C-2.30484, 1.14683 -2.51765, 0.537544 -2.49906, -0.0685545  C-2.48832, -0.474954 -2.37616, -0.878174 -2.17551, -1.23173 " /><path d="M2.49911, -0.0668264 L2.5, 2.025e-07 " /><path d="M5.50546 -0.464265 A5.525 5.525 0 0 1 5.525 -1.35323e-15" /><path d="M3.15479, -4.53574 C3.99017, -3.08882 4.67008, -1.91118 5.50546, -0.464265 " /><path d="M2.35066 -5 A5.525 5.525 0 0 1 3.15479 -4.53574" /><path d="M-2.35066, -5 C-0.679905, -5 0.679905, -5 2.35066, -5 " /><path d="M-3.15479 -4.53574 A5.525 5.525 0 0 1 -2.35066 -5" /><path d="M-5.50546, -0.464265 C-4.67008, -1.91118 -3.99017, -3.08882 -3.15479, -4.53574 " /><path d="M-5.50546 0.464265 A5.525 5.525 0 0 1 -5.50546 -0.464265" /><path d="M-3.15479, 4.53574 C-3.99017, 3.08882 -4.67008, 1.91118 -5.50546, 0.464265 " /><path d="M-2.35066 5 A5.525 5.525 0 0 1 -3.15479 4.53574" /><path d="M2.35066, 5 C0.679905, 5 -0.679905, 5 -2.35066, 5 " /><path d="M3.15479 4.53574 A5.525 5.525 0 0 1 2.35066 5" /><path d="M5.50546, 0.464265 C4.67008, 1.91118 3.99017, 3.08882 3.15479, 4.53574 " /><path d="M5.525 0 A5.525 5.525 0 0 1 5.50546 0.464265" /><path d="M2.5, 2.02499e-07 C2.50161, 0.57604 2.29525, 1.14966 1.92702, 1.59267  C1.63778, 1.94364 1.25061, 2.21269 0.820819, 2.36141  C0.385215, 2.51354 -0.092795, 2.54119 -0.543037, 2.44031  C-1.04885, 2.32884 -1.51701, 2.05482 -1.86187, 1.66837  C-2.27388, 1.21168 -2.50611, 0.598432 -2.49994, -0.0166183  C-2.49791, -0.627998 -2.2605, -1.23452 -1.84698, -1.68484  C-1.49104, -2.07674 -1.00722, -2.3498 -0.487757, -2.45196  C-0.0456721, -2.54053 0.420167, -2.50596 0.844335, -2.3531  C1.30057, -2.19027 1.70675, -1.89097 1.99742, -1.50344  C2.32196, -1.07431 2.50124, -0.538021 2.5, 2.02499e-07 " /><path d="M2.5, 3.03752e-07 C2.50193, 0.603195 2.27497, 1.20334 1.87436, 1.65432  C1.62282, 1.93979 1.30504, 2.16638 0.953179, 2.31116  C0.482357, 2.50642 -0.0488094, 2.55195 -0.546006, 2.43965  C-1.0543, 2.327 -1.52431, 2.05012 -1.86922, 1.66012 " /><path d="M-2.41472, -0.647413 Q-2.3767, -0.789163 -2.32238, -0.925491 " /><path d="M-2.20822, -1.17208 L-2.14061, -1.29143 " /><path d="M-2.13417, -1.30204 Q-2.05259, -1.43574 -1.95498, -1.55822 " /><path d="M-1.80375, -1.73104 L-1.77836, -1.75711 " /><path d="M-1.76083, -1.77468 L-1.70572, -1.82771 " /><path d="M-1.5358, -1.97265 Q-1.44014, -2.04711 -1.33773, -2.11198 " /><path d="M-1.33422, -2.1142 Q-1.20302, -2.19699 -1.0626, -2.26294 " /><path d="M2.47742, -0.335229 Q2.49999, -0.168374 2.5, -4.44089e-16 " /><path d="M2.5, 3.03749e-07 C2.50161, 0.575376 2.29574, 1.14834 1.92829, 1.59113  C1.63923, 1.94245 1.25212, 2.21187 0.822273, 2.3609  C0.388211, 2.51279 -0.0880502, 2.54108 -0.537039, 2.44164  C-1.04306, 2.33143 -1.51183, 2.05861 -1.85763, 1.67309  C-2.27493, 1.21298 -2.50906, 0.592674 -2.49984, -0.0284207  C-2.49491, -0.637437 -2.25652, -1.24057 -1.84374, -1.68838  C-1.48438, -2.08257 -0.995395, -2.35577 -0.471333, -2.45517  C-0.0342326, -2.53968 0.425234, -2.50406 0.844086, -2.35319  C1.29789, -2.19127 1.70221, -1.89437 1.99257, -1.50985  C2.32014, -1.07964 2.50126, -0.540708 2.5, -9.99201e-16 " /><path d="M2.5, 4.05003e-07 C2.50193, 0.603206 2.27496, 1.20336 1.87434, 1.65434  C1.48857, 2.09399 0.943628, 2.38961 0.364734, 2.47325 " /><path d="M0.341354, 2.47659 Q0.167983, 2.50047 -0.00702266, 2.49999 " /><path d="M-2.32523, -0.918308 Q-2.25246, -1.1025 -2.15164, -1.27296 " /><path d="M-1.95468, -1.5586 Q-1.85596, -1.68239 -1.74242, -1.79276 " /><path d="M-1.60019, -1.92078 L-1.59769, -1.92286 " /><path d="M-1.5801, -1.93734 L-1.50328, -1.99754 " /><path d="M-0.844189, -2.35316 L-0.751675, -2.38432 " /><path d="M0.896524, -2.33372 L0.923139, -2.32332 " /><path d="M0.925957, -2.3222 L0.938418, -2.31719 " /><path d="M2.02406, -1.46737 L2.04067, -1.44419 " /><circle cx ="0" cy ="0" r ="4.995" /><path d="M2.5, 4.04999e-07 C2.50161, 0.575377 2.29574, 1.14835 1.92828, 1.59114  C1.63922, 1.94245 1.25211, 2.21187 0.822267, 2.36091  C0.388383, 2.51273 -0.0876652, 2.54105 -0.536492, 2.44176  C-1.04228, 2.33171 -1.5109, 2.05923 -1.85673, 1.67408  C-2.27843, 1.20972 -2.51319, 0.581827 -2.49959, -0.0452958  C-2.49059, -0.647929 -2.2532, -1.24336 -1.84511, -1.68688  C-1.48671, -2.08066 -0.999041, -2.35401 -0.4761, -2.45425  C-0.0396188, -2.53952 0.419416, -2.50496 0.838208, -2.35529  C1.29395, -2.19396 1.70019, -1.89661 1.99174, -1.51095  C2.31983, -1.08056 2.50126, -0.541169 2.5, 8.88178e-16 " /><path d="M0.717853, 2.39472 Q0.567658, 2.43973 0.413013, 2.46565 " /><path d="M0.350426, 2.47532 Q0.166701, 2.50131 -0.0188454, 2.49993 " /><path d="M2.5, 5.06249e-07 C2.50161, 0.575379 2.29574, 1.14835 1.92828, 1.59114  C1.63922, 1.94246 1.25211, 2.21188 0.82226, 2.36091  C0.388565, 2.51266 -0.0872583, 2.54103 -0.535913, 2.44188  C-1.04137, 2.33204 -1.50974, 2.05998 -1.85559, 1.67535  C-2.27592, 1.21309 -2.51099, 0.588483 -2.49974, -0.036213  C-2.49599, -0.281535 -2.45715, -0.521171 -2.38323, -0.755122 " /><circle cx ="0" cy ="0" r ="3.33333" /></g>
<g   fill="none"
   stroke="rgb(165, 165, 165)"
   stroke-dasharray="1.2,0.8"
   stroke-linecap="butt"
   stroke-linejoin="miter"
   stroke-width="0.25"
   transform="scale(1, -1)"
  >
<path d="M-1.05236, -2.84787 C-0.748579, -2.95977 -0.434941, -3.02182 -0.111441, -3.03404  C0.545442, -3.0597 1.20829, -2.86344 1.7453, -2.48429  C2.2262, -2.14765 2.60506, -1.66794 2.82111, -1.12213  C2.9629, -0.766168 3.03627, -0.383158 3.03609, -7.30726e-09 " /><path d="M3.03609, -7.30724e-09 C3.03871, 0.753664 2.74638, 1.50302 2.23414, 2.05585  C1.84452, 2.48059 1.33117, 2.7899 0.773598, 2.9359  C-0.0354956, 3.15312 -0.931361, 3.01264 -1.63512, 2.55817  C-2.27032, 2.15524 -2.74372, 1.5071 -2.93435, 0.779448  C-3.11505, 0.106576 -3.053, -0.627755 -2.76196, -1.26077  C-2.43901, -1.97552 -1.82665, -2.55241 -1.09393, -2.83219  C-0.426137, -3.09239 0.334187, -3.10368 1.00939, -2.86338  C1.59762, -2.65756 2.11924, -2.26338 2.47817, -1.75404  C2.8392, -1.2462 3.03754, -0.623193 3.03609, -1.46149e-08 " /><path d="M3.03609, -1.46149e-08 C3.03871, 0.753665 2.74638, 1.50302 2.23414, 2.05585  C1.84452, 2.48059 1.33117, 2.7899 0.773592, 2.9359  C-0.0355309, 3.15313 -0.93143, 3.01263 -1.6352, 2.55812  C-2.29513, 2.13984 -2.77946, 1.45639 -2.95546, 0.69515  C-3.11, 0.045127 -3.04055, -0.655142 -2.76133, -1.26214  C-2.4465, -1.95747 -1.85818, -2.52275 -1.15082, -2.80953  C-0.456671, -3.09664 0.344582, -3.11111 1.04864, -2.84924  C1.62745, -2.63769 2.13867, -2.24304 2.49016, -1.73697  C2.84368, -1.23232 3.03748, -0.616247 3.03609, -2.19229e-08 " /><path d="M3.03609, -2.19229e-08 C3.03871, 0.753665 2.74638, 1.50302 2.23414, 2.05586  C1.84452, 2.48059 1.33117, 2.78991 0.773596, 2.93591  C-0.0355147, 3.15313 -0.931399, 3.01264 -1.63516, 2.55814  C-2.26918, 2.15593 -2.74204, 1.50944 -2.9333, 0.78339  C-3.1158, 0.107538 -3.0532, -0.630676 -2.75951, -1.26615  C-2.43987, -1.9696 -1.83992, -2.53909 -1.12079, -2.82167  C-0.450137, -3.09041 0.316947, -3.1069 0.998519, -2.86721  C1.53011, -2.68295 2.00777, -2.34697 2.36088, -1.90896  C2.79531, -1.37459 3.03794, -0.688681 3.03609, -2.92313e-08 " /><path d="M3.03609, -2.92313e-08 C3.03871, 0.753666 2.74639, 1.50303 2.23414, 2.05586  C1.84452, 2.48059 1.33117, 2.78991 0.773596, 2.93591  C-0.0355072, 3.15313 -0.931383, 3.01264 -1.63515, 2.55816  C-2.26972, 2.15561 -2.74284, 1.50833 -2.9338, 0.781521  C-3.11587, 0.105553 -3.0528, -0.632622 -2.7587, -1.2679  C-2.45011, -1.94522 -1.88216, -2.49888 -1.19721, -2.79011  C-0.500262, -3.09205 0.310759, -3.11681 1.02481, -2.85791  C1.60935, -2.64981 2.12688, -2.25543 2.48289, -1.74736  C2.84097, -1.24076 3.03752, -0.620475 3.03609, -3.65401e-08 " /><path d="M3.03609, -3.65401e-08 C3.03676, 0.528859 2.89558, 1.05698 2.63113, 1.51497  C2.23831, 2.2035 1.56424, 2.72372 0.798617, 2.92918  C-0.0157087, 3.1554 -0.921367, 3.01793 -1.63188, 2.56024  C-2.28265, 2.14881 -2.76364, 1.4799 -2.94655, 0.732025  C-3.11664, 0.0552682 -3.04224, -0.6792 -2.73988, -1.3081  C-2.40992, -2.00577 -1.80242, -2.56556 -1.08015, -2.83748  C-0.400479, -3.09862 0.373431, -3.102 1.05535, -2.84679  C1.61342, -2.64099 2.10748, -2.26638 2.45626, -1.78456 " /></g>
<g   fill="none"
   stroke="rgb(0, 0, 0)"
   stroke-linecap="butt"
   stroke-linejoin="miter"
   stroke-width="0.35"
   transform="scale(1, -1)"
  >
<path d="M0.977815, -2.30084 Q1.07043, -2.26148 1.15958, -2.21481 " /><path d="M1.92367, -1.59672 Q1.98696, -1.52046 2.04402, -1.43943 " /><path d="M2.46465, -0.418904 Q2.49482, -0.241295 2.49925, -0.061195 " /><path d="M-2.17551, -1.23173 C-1.82277, -1.86255 -1.18299, -2.32206 -0.472651, -2.45491  C-0.00194694, -2.54634 0.494696, -2.49782 0.938807, -2.31703  C1.38087, -2.13875 1.76926, -1.83051 2.04328, -1.44049  C2.32612, -1.04077 2.48687, -0.556322 2.49911, -0.0668264 " /><path d="M-1.86922, 1.66012 C-2.29077, 1.18896 -2.521, 0.553032 -2.49876, -0.0788031  C-2.4926, -0.27156 -2.46459, -0.461096 -2.41472, -0.647413 " /><path d="M-2.32238, -0.925491 Q-2.27201, -1.05189 -2.20822, -1.17208 " /><path d="M-2.14061, -1.29143 L-2.13417, -1.30204 " /><path d="M-1.95498, -1.55822 Q-1.88333, -1.64811 -1.80375, -1.73104 " /><path d="M-1.77836, -1.75711 L-1.76083, -1.77468 " /><path d="M-1.70572, -1.82771 Q-1.624, -1.90397 -1.5358, -1.97265 " /><path d="M-1.33773, -2.11198 L-1.33422, -2.1142 " /><path d="M-1.0626, -2.26294 C-0.445889, -2.55595 0.291724, -2.57809 0.924887, -2.32262  C1.37612, -2.14383 1.7724, -1.82984 2.04963, -1.43143  C2.27669, -1.10696 2.42469, -0.727726 2.47742, -0.335229 " /><path d="M5.525 0 A5.525 5.525 0 0 1 5.50546 0.464265" /><path d="M3.15479, 4.53574 C3.99017, 3.08882 4.67008, 1.91118 5.50546, 0.464265 " /><path d="M3.15479 4.53574 A5.525 5.525 0 0 1 2.35066 5" /><path d="M-2.35066, 5 C-0.679905, 5 0.679905, 5 2.35066, 5 " /><path d="M-2.35066 5 A5.525 5.525 0 0 1 -3.15479 4.53574" /><path d="M-5.50546, 0.464265 C-4.67008, 1.91118 -3.99017, 3.08882 -3.15479, 4.53574 " /><path d="M-5.50546 0.464265 A5.525 5.525 0 0 1 -5.50546 -0.464265" /><path d="M-3.15479, -4.53574 C-3.99017, -3.08882 -4.67008, -1.91118 -5.50546, -0.464265 " /><path d="M-3.15479 -4.53574 A5.525 5.525 0 0 1 -2.35066 -5" /><path d="M2.35066, -5 C0.679905, -5 -0.679905, -5 -2.35066, -5 " /><path d="M2.35066 -5 A5.525 5.525 0 0 1 3.15479 -4.53574" /><path d="M5.50546, -0.464265 C4.67008, -1.91118 3.99017, -3.08882 3.15479, -4.53574 " /><path d="M5.50546 -0.464265 A5.525 5.525 0 0 1 5.525 -1.35323e-15" /><path d="M0.364734, 2.47325 L0.341354, 2.47659 " /><path d="M-0.00702266, 2.49999 C-0.735985, 2.50194 -1.45628, 2.16349 -1.92007, 1.60104  C-2.17188, 1.29961 -2.35083, 0.937897 -2.43765, 0.554841  C-2.54956, 0.0673662 -2.50983, -0.453425 -2.32523, -0.918308 " /><path d="M-2.15164, -1.27296 Q-2.06308, -1.42263 -1.95468, -1.5586 " /><path d="M-1.74242, -1.79276 Q-1.67376, -1.85949 -1.60019, -1.92078 " /><path d="M-1.59769, -1.92286 L-1.5801, -1.93734 " /><path d="M-1.50328, -1.99754 Q-1.20051, -2.22497 -0.844189, -2.35316 " /><path d="M-0.751675, -2.38432 C-0.217506, -2.55424 0.373761, -2.5361 0.896524, -2.33372 " /><path d="M0.923139, -2.32332 L0.925957, -2.3222 " /><path d="M0.938418, -2.31719 C1.37039, -2.14301 1.75124, -1.84488 2.02406, -1.46737 " /><path d="M2.04067, -1.44419 C2.33815, -1.02562 2.50103, -0.513499 2.5, -4.44089e-16 " /><path d="M2.5, 5.06256e-07 C2.50193, 0.603216 2.27495, 1.20338 1.87432, 1.65437  C1.56789, 2.00258 1.16235, 2.2622 0.717853, 2.39472 " /><path d="M0.413013, 2.46565 L0.350426, 2.47532 " /><path d="M-0.0188454, 2.49993 C-0.739768, 2.49832 -1.45088, 2.16423 -1.91233, 1.61028  C-2.16762, 1.30768 -2.34915, 0.943455 -2.43706, 0.557432  C-2.48507, 0.346984 -2.50561, 0.133887 -2.49866, -0.0818568  C-2.48077, -0.687952 -2.23172, -1.28331 -1.81273, -1.72163  C-1.45633, -2.09844 -0.9796, -2.35897 -0.469979, -2.45543  C-0.00579252, -2.54503 0.483478, -2.49869 0.922588, -2.32354  C1.37044, -2.14657 1.76437, -1.83654 2.04163, -1.44283  C2.33851, -1.02451 2.50103, -0.512941 2.5, -8.88178e-16 " /><path d="M2.93506, 7.89048e-08 Q2.96775, -0.350801 2.91713, -0.700338 " /><path d="M2.91713, -0.700338 C2.90188, -0.806048 2.87179, -0.934786 2.82815, -1.0653  C2.74745, -1.30878 2.61953, -1.56067 2.45626, -1.78456 " /><path d="M2.45626, -1.78456 C2.32115, -1.97087 2.16109, -2.13989 1.99172, -2.27896  C1.84807, -2.3976 1.69417, -2.49569 1.5675, -2.55793 " /><path d="M1.5675, -2.55793 C0.929593, -2.87531 0.175791, -2.95005 -0.504013, -2.75276  C-1.08769, -2.58709 -1.61166, -2.22276 -1.95961, -1.73137  C-2.16769, -1.43947 -2.31372, -1.10454 -2.38323, -0.755122 " /><path d="M-0.0188454 2.49993 A2.5 2.5 0 0 1 -2.38323 -0.755122" /><path d="M2.5, 6.07509e-07 C2.50193, 0.603225 2.27495, 1.2034 1.8743, 1.65438  C1.40454, 2.19216 0.695139, 2.509 -0.0188454, 2.49993 " /><path d="M2.93506, 7.89048e-08 C2.87824, 0.622117 2.61336, 1.22231 2.18793, 1.67424  C1.81598, 2.07282 1.32221, 2.35443 0.792208, 2.4636  C0.523119, 2.51939 0.252768, 2.5315 -0.0188454, 2.49993 " /><circle cx ="0" cy ="0" r ="4.995" /><circle cx ="0" cy ="0" r ="3.33333" /></g>

</svg>
