<svg xmlns="http://www.w3.org/2000/svg" viewBox="-6.3878968 -5.8824368 12.795333600000001 11.7648736">
<rect width="100%" height="100%" fill="white"/>
<g   fill="none"
   stroke="rgb(0, 0, 0)"
   stroke-linecap="butt"
   stroke-linejoin="miter"
   stroke-width="0.35"
   transform="scale(1, -1)"
  >
<path d="M0.977815, -2.30084 Q1.07043, -2.26148 1.15958, -2.21481 " /><path d="M1.92367, -1.59672 Q1.98696, -1.52046 2.04402, -1.43943 " /><path d="M2.46465, -0.418904 Q2.49482, -0.241295 2.49925, -0.061195 " /><path d="M-2.17551, -1.23173 C-1.82277, -1.86255 -1.18299, -2.32206 -0.472651, -2.45491  C-0.00194694, -2.54634 0.494696, -2.49782 0.938807, -2.31703  C1.38087, -2.13875 1.76926, -1.83051 2.04328, -1.44049  C2.32612, -1.04077 2.48687, -0.556322 2.49911, -0.0668264 " /><path d="M-1.86922, 1.66012 C-2.29077, 1.18896 -2.521, 0.553032 -2.49876, -0.0788031  C-2.4926, -0.27156 -2.46459, -0.461096 -2.41472, -0.647413 " /><path d="M-2.32238, -0.925491 Q-2.27201, -1.05189 -2.20822, -1.17208 " /><path d="M-2.14061, -1.29143 L-2.13417, -1.30204 " /><path d="M-1.95498, -1.55822 Q-1.88333, -1.64811 -1.80375, -1.73104 " /><path d="M-1.77836, -1.75711 L-1.76083, -1.77468 " /><path d="M-1.70572, -1.82771 Q-1.624, -1.90397 -1.5358, -1.97265 " /><path d="M-1.33773, -2.11198 L-1.33422, -2.1142 " /><path d="M-1.0626, -2.26294 C-0.445889, -2.55595 0.291724, -2.57809 0.924887, -2.32262  C1.37612, -2.14383 1.7724, -1.82984 2.04963, -1.43143  C2.27669, -1.10696 2.42469, -0.727726 2.47742, -0.335229 " /><path d="M5.525 0 A5.525 5.525 0 0 1 5.50546 0.464265" /><path d="M3.15479, 4.53574 C3.99017, 3.08882 4.67008, 1.91118 5.50546, 0.464265 " /><path d="M3.15479 4.53574 A5.525 5.525 0 0 1 2.35066 5" /><path d="M-2.35066, 5 C-0.679905, 5 0.679905, 5 2.35066, 5 " /><path d="M-2.35066 5 A5.525 5.525 0 0 1 -3.15479 4.53574" /><path d="M-5.50546, 0.464265 C-4.67008, 1.91118 -3.99017, 3.08882 -3.15479, 4.53574 " /><path d="M-5.50546 0.464265 A5.525 5.525 0 0 1 -5.50546 -0.464265" /><path d="M-3.15479, -4.53574 C-3.99017, -3.08882 -4.67008, -1.91118 -5.50546, -0.464265 " /><path d="M-3.15479 -4.53574 A5.525 5.525 0 0 1 -2.35066 -5" /><path d="M2.35066, -5 C0.679905, -5 -0.679905, -5 -2.35066, -5 " /><path d="M2.35066 -5 A5.525 5.525 0 0 1 3.15479 -4.53574" /><path d="M5.50546, -0.464265 C4.67008, -1.91118 3.99017, -3.08882 3.15479, -4.53574 " /><path d="M5.50546 -0.464265 A5.525 5.525 0 0 1 5.525 -1.35323e-15" /><path d="M0.364734, 2.47325 L0.341354, 2.47659 " /><path d="M-0.00702266, 2.49999 C-0.735985, 2.50194 -1.45628, 2.16349 -1.92007, 1.60104  C-2.17188, 1.29961 -2.35083, 0.937897 -2.43765, 0.554841  C-2.54956, 0.0673662 -2.50983, -0.453425 -2.32523, -0.918308 " /><path d="M-2.15164, -1.27296 Q-2.06308, -1.42263 -1.95468, -1.5586 " /><path d="M-1.74242, -1.79276 Q-1.67376, -1.85949 -1.60019, -1.92078 " /><path d="M-1.59769, -1.92286 L-1.5801, -1.93734 " /><path d="M-1.50328, -1.99754 Q-1.20051, -2.22497 -0.844189, -2.35316 " /><path d="M-0.751675, -2.38432 C-0.217506, -2.55424 0.373761, -2.5361 0.896524, -2.33372 " /><path d="M0.923139, -2.32332 L0.925957, -2.3222 " /><path d="M0.938418, -2.31719 C1.37039, -2.14301 1.75124, -1.84488 2.02406, -1.46737 " /><path d="M2.04067, -1.44419 C2.33815, -1.02562 2.50103, -0.513499 2.5, -4.44089e-16 " /><path d="M2.5, 5.06256e-07 C2.50193, 0.603216 2.27495, 1.20338 1.87432, 1.65437  C1.56789, 2.00258 1.16235, 2.2622 0.717853, 2.39472 " /><path d="M0.413013, 2.46565 L0.350426, 2.47532 " /><path d="M-0.0188454, 2.49993 C-0.739768, 2.49832 -1.45088, 2.16423 -1.91233, 1.61028  C-2.16762, 1.30768 -2.34915, 0.943455 -2.43706, 0.557432  C-2.48507, 0.346984 -2.50561, 0.133887 -2.49866, -0.0818568  C-2.48077, -0.687952 -2.23172, -1.28331 -1.81273, -1.72163  C-1.45633, -2.09844 -0.9796, -2.35897 -0.469979, -2.45543  C-0.00579252, -2.54503 0.483478, -2.49869 0.922588, -2.32354  C1.37044, -2.14657 1.76437, -1.83654 2.04163, -1.44283  C2.33851, -1.02451 2.50103, -0.512941 2.5, -8.88178e-16 " /><path d="M2.93506, 7.89048e-08 Q2.96775, -0.350801 2.91713, -0.700338 " /><path d="M2.91713, -0.700338 C2.90188, -0.806048 2.87179, -0.934786 2.82815, -1.0653  C2.74745, -1.30878 2.61953, -1.56067 2.45626, -1.78456 " /><path d="M2.45626, -1.78456 C2.32115, -1.97087 2.16109, -2.13989 1.99172, -2.27896  C1.84807, -2.3976 1.69417, -2.49569 1.5675, -2.55793 " /><path d="M1.5675, -2.55793 C0.929593, -2.87531 0.175791, -2.95005 -0.504013, -2.75276  C-1.08769, -2.58709 -1.61166, -2.22276 -1.95961, -1.73137  C-2.16769, -1.43947 -2.31372, -1.10454 -2.38323, -0.755122 " /><path d="M-0.0188454 2.49993 A2.5 2.5 0 0 1 -2.38323 -0.755122" /><path d="M2.5, 6.07509e-07 C2.50193, 0.603225 2.27495, 1.2034 1.8743, 1.65438  C1.40454, 2.19216 0.695139, 2.509 -0.0188454, 2.49993 " /><path d="M2.93506, 7.89048e-08 C2.87824, 0.622117 2.61336, 1.22231 2.18793, 1.67424  C1.81598, 2.07282 1.32221, 2.35443 0.792208, 2.4636  C0.523119, 2.51939 0.252768, 2.5315 -0.0188454, 2.49993 " /><circle cx ="0" cy ="0" r ="4.995" /><circle cx ="0" cy ="0" r ="3.33333" /></g>

</svg>
