<svg xmlns="http://www.w3.org/2000/svg" viewBox="-8.2910156 -8.952995600000001 54.47426120000001 37.2687412">
<rect width="100%" height="100%" fill="white"/>
<g   fill="none"
   stroke="rgb(0, 0, 0)"
   stroke-linecap="butt"
   stroke-linejoin="miter"
   stroke-width="0.35"
   transform="scale(1, -1)"
  >
<path d="M3, 5.19615 C2.26712, 5.62309 1.44066, 5.87265 0.631973, 5.88513  C-0.293618, 5.90426 -1.18752, 5.63397 -1.97895, 5.16828  C-3.03577, 4.54721 -3.92363, 3.58325 -4.54117, 2.47253  C-5.12865, 1.41416 -5.4714, 0.221448 -5.4654, -0.945055  C-5.46211, -1.55881 -5.361, -2.16598 -5.14573, -2.73694  C-5.04446, -3.00645 -4.91778, -3.26563 -4.76571, -3.51448  C-4.35077, -4.19807 -3.72735, -4.77985 -3, -5.19615 " /><path id= "2" d=" M 1.09808 -4.09808 L 13.7339 -11.3934 " />
<path id= "3" d=" M 4.09808 1.09808 L 16.7339 -6.19723 " />
<path id= "4" d=" M 15.8703 -10.8774 L 15.2339 -11.2448 " />
<path id= "5" d=" M 15.2552 -11.2325 L 15.8593 -11.5812 " />
<path id= "6" d=" M 18.675 -8.35717 L 18.8785 -8.47464 " />
<path id= "7" d=" M 17.0347 -12.2598 L 17.6978 -12.6427 " />
<path id= "8" d=" M 20.5135 -9.41861 L 20.717 -9.53608 " />
<path id= "9" d=" M 18.8731 -13.3213 L 19.5362 -13.7041 " />
<path id= "10" d=" M 22.352 -10.4801 L 22.5554 -10.5975 " />
<path id= "11" d=" M 20.7116 -14.3827 L 21.3747 -14.7655 " />
<path id= "12" d=" M 24.1905 -11.5415 L 24.3939 -11.659 " />
<path id= "13" d=" M 22.5501 -15.4442 L 23.2131 -15.827 " />
<path id= "14" d=" M 26.0289 -12.6029 L 26.2324 -12.7204 " />
<path id= "15" d=" M 24.3885 -16.5056 L 25.0516 -16.8884 " />
<path id= "16" d=" M 27.8674 -13.6644 L 28.0708 -13.7818 " />
<path id= "17" d=" M 26.227 -17.567 L 26.8901 -17.9499 " />
<path id= "18" d=" M 29.7059 -14.7258 L 29.9093 -14.8433 " />
<path id= "19" d=" M 28.0655 -18.6285 L 28.7285 -19.0113 " />
<path id= "20" d=" M 31.5443 -15.7873 L 31.7477 -15.9047 " />
<path id= "21" d=" M 29.9039 -19.6899 L 30.567 -20.0727 " />
<path id= "22" d=" M 33.3828 -16.8487 L 33.5862 -16.9661 " />
<path id= "23" d=" M 31.7424 -20.7514 L 32.4055 -21.1342 " />
<path id= "24" d=" M 35.2213 -17.9102 L 35.4247 -18.0276 " />
<path id= "25" d=" M 33.5809 -21.8128 L 34.2439 -22.1956 " />
<path id= "26" d=" M 37.0598 -18.9716 L 37.2631 -19.089 " />
<path id= "27" d=" M 35.4194 -22.8742 L 36.0824 -23.257 " />
<path id= "28" d=" M 38.8982 -20.033 L 39.1348 -20.1696 " />
<path d="M39.5707, -20.4498 Q39.3552, -20.2354 39.0698, -20.1321 " /><path id= "30" d=" M 41.0985 -22.615 L 40.3929 -21.616 " />
<path id= "31" d=" M 38.7008 -24.1535 L 37.9825 -24.0877 " />
<path d="M38.1472, -24.0656 Q38.0596, -24.0821 37.9713, -24.0885  Q37.9039, -24.0934 37.8366, -24.0922  Q37.5215, -24.0862 37.2413, -23.9482 " /><path d="M41.151, -24.3699 Q41.1417, -24.4167 41.1315, -24.4478  Q41.1161, -24.4914 41.1143, -24.4922 " /><path id= "34" d=" M 42.4264 -24.4949 L 41.5337 -23.231 " />
<path id= "35" d=" M 42.4264 -24.4949 L 41.4095 -24.4017 " />
<path id= "36" d=" M 41.1494 -24.3779 L 39.3371 -24.2118 " />
<path d="M41.1163, -24.5589 Q41.1786, -24.5222 41.2475, -24.4855  Q41.3274, -24.4425 41.4192, -24.4026 " /><path d="M41.5252, -23.5198 Q41.514, -23.6332 41.5102, -23.7357 " /></g>
<g   fill="none"
   stroke="rgb(0, 0, 0)"
   stroke-linecap="butt"
   stroke-linejoin="miter"
   stroke-width="0.35"
   transform="scale(1, -1)"
  >
<path d="M-1.79113, 2.32609 Q-1.68074, 1.99403 -1.52945, 1.60626 " /><path d="M4.24264 2.44949 A6 3.4641 60 0 1 3 5.19615" />
<path d="M-3 -5.19615 A6 3.4641 60 0 1 4.24264 2.44949" />
<path d="M-1.52945, 3.22292 Q-1.68074, 2.76186 -1.79113, 2.32609 " /><path d="M-0.718239, 4.29029 C-1.01277, 3.96099 -1.28223, 3.59741 -1.52945, 3.22292 " /><path d="M-1.17779, 4.55561 Q-0.916706, 4.47718 -0.718239, 4.29029 " /><path d="M-2.15578, 3.58454 C-1.85546, 3.92836 -1.53018, 4.25972 -1.17779, 4.55561 " /><path d="M-2.91002, 2.97208 Q-2.56724, 3.27369 -2.15578, 3.58454 " /><path d="M-3.55586, 2.77621 Q-3.23222, 2.88977 -2.91002, 2.97208 " /><path d="M-4.07462, 2.88312 C-3.9367, 2.87031 -3.75656, 2.83076 -3.55586, 2.77621 " /><path d="M-4.53417, 2.08716 Q-4.3357, 2.50322 -4.07462, 2.88312 " /><path d="M-4.18219, 1.69136 C-4.32979, 1.8379 -4.45411, 1.97413 -4.53417, 2.08716 " /><path d="M-4.02891, 1.03411 Q-4.11872, 1.3543 -4.18219, 1.69136 " /><path d="M-4.18219, 0.0746945 Q-4.11872, 0.586447 -4.02891, 1.03411 " /><path d="M-4.53417, -1.25781 C-4.45411, -0.804686 -4.32979, -0.357303 -4.18219, 0.0746945 " /><path d="M-4.07462, -1.52313 Q-4.3357, -1.4447 -4.53417, -1.25781 " /><path d="M-3.55586, -0.286922 C-3.75656, -0.688258 -3.9367, -1.10341 -4.07462, -1.52313 " /><path d="M-2.91002, 0.388123 Q-3.23222, 0.0746272 -3.55586, -0.286922 " /><path d="M-2.15578, 0.52141 Q-2.56724, 0.458555 -2.91002, 0.388123 " /><path d="M-1.17779, 0.149356 Q-1.70584, 0.353813 -2.15578, 0.52141 " /><path d="M-0.718239, 0.945314 Q-0.916706, 0.52926 -1.17779, 0.149356 " /><path d="M-1.52945, 1.60626 Q-1.15933, 1.30039 -0.718239, 0.945314 " /><path d="M-3.97809, -1.24792 Q-4.24368, -1.25269 -4.53417, -1.25781 " /><path id= "24" d=" M -4.18219 0.0746945 L -3.51425 -0.240385 " />
<path id= "25" d=" M -4.02891 1.03411 L -2.73321 0.422914 " />
<path id= "26" d=" M -4.18219 1.69136 L -1.58405 0.465776 " />
<path d="M-1.58405, 0.465776 Q-1.50975, 0.352379 -1.44731, 0.253319 " /><path d="M-4.53417, 2.08716 Q-4.40043, 2.01404 -4.2667, 1.94092  Q-4.13849, 1.87082 -4.01029, 1.80072  Q-3.88739, 1.73352 -3.7645, 1.66632  Q-3.64669, 1.6019 -3.52888, 1.53748  Q-3.41595, 1.47572 -3.30302, 1.41396  Q-3.19476, 1.35476 -3.08651, 1.29555  Q-2.98274, 1.2388 -2.87897, 1.18204  Q-2.7795, 1.12764 -2.68003, 1.07323  Q-2.58468, 1.02107 -2.48933, 0.968917  Q-2.39794, 0.918919 -2.30655, 0.868921  Q-2.21894, 0.820993 -2.13134, 0.773065  Q-2.04737, 0.727121 -1.96341, 0.681177  Q-1.80057, 0.592072 -1.64817, 0.508661 " /><path d="M-1.64817, 0.508661 L-1.58405, 0.465776 " /><path d="M-1.2646, 1.17302 Q-1.33973, 1.21872 -1.41486, 1.26442  Q-1.56972, 1.35861 -1.73516, 1.45926  Q-1.82047, 1.51117 -1.90578, 1.56307  Q-1.99478, 1.61722 -2.08377, 1.67137  Q-2.17662, 1.72786 -2.26946, 1.78436  Q-2.36631, 1.8433 -2.46316, 1.90224  Q-2.5642, 1.96373 -2.66524, 2.02522  Q-2.77064, 2.08937 -2.87604, 2.15352  Q-2.98599, 2.22044 -3.09594, 2.28736  Q-3.21063, 2.35717 -3.32533, 2.42699  Q-3.44497, 2.49982 -3.56462, 2.57265  Q-3.68943, 2.64863 -3.81423, 2.72461  Q-3.94443, 2.80386 -4.07462, 2.88312 " /><path d="M-1.2646 1.17302 A1.905 1.09985 60 0 1 -1.64817 0.508661" />
<path id= "32" d=" M -3.55586 2.77621 L -1.1954 1.13894 " />
<path d="M-1.1954, 1.13894 L-1.2646, 1.17302 " /><path id= "34" d=" M -2.91002 2.97208 L -1.73286 2.15557 " />
<path d="M-0.943034, 1.12674 Q-1.06005, 1.1313 -1.1954, 1.13894 " /><path id= "36" d=" M -2.15578 3.58454 L -1.54895 3.16362 " />
<path d="M-1.17779, 4.55561 Q-1.03698, 4.30148 -0.908313, 4.06909 " /><path d="M17.3552 -7.57056 A3 1.73205 60 0 1 16.7339 -6.19723" />
<path d="M13.7339 -11.3934 A3 1.73205 60 0 1 15.2339 -11.2448" />
<path d="M15.2339 -11.2448 A3 1.73205 60 0 1 17.3552 -7.57056" />
<path d="M15.8703 -10.8774 A2.1 1.21244 60 0 1 17.3552 -8.3054" />
<path id= "42" d=" M 17.3552 -7.57056 L 17.3552 -8.3054 " />
<path d="M17.7048, -8.50722 C17.6543, -8.17979 17.5348, -7.89261 17.3552, -7.67939 " /><path d="M15.8593, -11.5812 C15.9591, -11.6383 16.0797, -11.6478 16.2209, -11.6099  C16.4497, -11.5479 16.7182, -11.3512 16.9627, -11.0505  C17.2021, -10.7578 17.4169, -10.3673 17.5561, -9.94476  C17.7152, -9.46673 17.7747, -8.95051 17.7048, -8.50722 " /><path d="M15.3941, -11.3128 C15.3417, -11.7136 15.3913, -12.0548 15.5291, -12.286  C15.666, -12.5182 15.8905, -12.6394 16.1649, -12.6292  C16.4389, -12.6201 16.7618, -12.4795 17.0826, -12.2224  C17.4034, -11.9663 17.7209, -11.5944 17.9848, -11.1533  C18.2492, -10.7128 18.459, -10.2044 18.5786, -9.6931  C18.6991, -9.18185 18.7287, -8.66926 18.6565, -8.2211  C18.5853, -7.77232 18.4122, -7.38923 18.1539, -7.11996  C17.8963, -6.8496 17.554, -6.69378 17.1666, -6.66966 " /><path d="M13.9626, -11.4902 C14.1829, -11.6071 14.4765, -11.5929 14.7943, -11.4454 " /><path d="M19.5432, -9.56866 C19.4682, -9.074 19.2315, -8.67587 18.8785, -8.47464 " /><path d="M17.6978, -12.6427 C17.7976, -12.6997 17.9181, -12.7093 18.0594, -12.6713  C18.2879, -12.6094 18.5561, -12.413 18.8003, -12.113  C19.0389, -11.8215 19.2531, -11.433 19.3926, -11.0123  C19.5531, -10.5325 19.6135, -10.0138 19.5432, -9.56866 " /><path d="M17.2326, -12.3742 C17.1776, -12.7945 17.2349, -13.149 17.388, -13.3803  C17.5401, -13.6128 17.7872, -13.7211 18.0842, -13.6842  C18.3807, -13.6489 18.726, -13.4684 19.0603, -13.1651  C19.3947, -12.8631 19.7167, -12.4392 19.9702, -11.952  C20.2245, -11.4654 20.4091, -10.9172 20.4883, -10.3845  C20.5687, -9.85152 20.5433, -9.33586 20.4077, -8.90973  C20.2733, -8.48265 20.029, -8.14655 19.7032, -7.94689  C19.3783, -7.7458 18.9728, -7.68175 18.5392, -7.75962 " /><path d="M15.3941, -11.3127 L15.3941, -11.3128 " /><path d="M21.3817, -10.6301 C21.3067, -10.1354 21.07, -9.73731 20.717, -9.53608 " /><path d="M19.5362, -13.7041 C19.6361, -13.7612 19.7566, -13.7707 19.8978, -13.7328  C20.1261, -13.6709 20.3939, -13.475 20.6379, -13.1755  C20.8764, -12.8844 21.0906, -12.4964 21.2302, -12.0761  C21.3914, -11.5957 21.4521, -11.076 21.3817, -10.6301 " /><path d="M19.071, -13.4357 C19.016, -13.856 19.0734, -14.2104 19.2265, -14.4417  C19.3786, -14.6742 19.6256, -14.7825 19.9227, -14.7457  C20.2192, -14.7103 20.5644, -14.5299 20.8987, -14.2266  C21.2331, -13.9245 21.5552, -13.5006 21.8087, -13.0134  C22.063, -12.5269 22.2475, -11.9787 22.3268, -11.4459  C22.4072, -10.913 22.3817, -10.3973 22.2462, -9.97117  C22.1117, -9.54409 21.8675, -9.20799 21.5417, -9.00833  C21.2167, -8.80723 20.8113, -8.74319 20.3776, -8.82105 " /><path d="M17.2326, -12.3741 L17.2326, -12.3742 " /><path d="M23.2202, -11.6915 C23.1452, -11.1969 22.9084, -10.7987 22.5554, -10.5975 " /><path d="M21.3747, -14.7655 C21.4745, -14.8226 21.5951, -14.8322 21.7363, -14.7942  C21.9642, -14.7325 22.2315, -14.537 22.4752, -14.2384  C22.7174, -13.9433 22.9345, -13.5481 23.0743, -13.1206  C23.2313, -12.645 23.2897, -12.1322 23.2202, -11.6915 " /><path d="M20.9095, -14.4971 C20.8545, -14.9174 20.9119, -15.2719 21.065, -15.5031  C21.2171, -15.7357 21.4641, -15.844 21.7612, -15.8071  C22.0577, -15.7718 22.4029, -15.5913 22.7372, -15.288  C23.0716, -14.986 23.3937, -14.5621 23.6472, -14.0749  C23.9014, -13.5883 24.086, -13.0401 24.1653, -12.5073  C24.2456, -11.9744 24.2202, -11.4587 24.0846, -11.0326  C23.9502, -10.6055 23.706, -10.2694 23.3802, -10.0698  C23.0552, -9.86867 22.6497, -9.80463 22.2161, -9.88249 " /><path d="M19.0711, -13.4356 L19.071, -13.4357 " /><path d="M25.0586, -12.753 C24.9836, -12.2583 24.7469, -11.8602 24.3939, -11.659 " /><path d="M23.2131, -15.827 C23.313, -15.884 23.4336, -15.8936 23.5748, -15.8556  C23.8023, -15.794 24.0689, -15.5992 24.3122, -15.3015  C24.5539, -15.0076 24.7708, -14.614 24.9108, -14.1879  C25.0693, -13.7106 25.1284, -13.1955 25.0586, -12.753 " /><path d="M22.748, -15.5585 C22.693, -15.9789 22.7503, -16.3333 22.9034, -16.5646  C23.0555, -16.7971 23.3026, -16.9054 23.5996, -16.8685  C23.8961, -16.8332 24.2414, -16.6528 24.5757, -16.3495  C24.9101, -16.0474 25.2321, -15.6235 25.4856, -15.1363  C25.7399, -14.6498 25.9245, -14.1015 26.0037, -13.5688  C26.0841, -13.0358 26.0587, -12.5202 25.9231, -12.094  C25.7887, -11.667 25.5444, -11.3309 25.2186, -11.1312  C24.8937, -10.9301 24.4882, -10.8661 24.0546, -10.9439 " /><path d="M20.9095, -14.497 L20.9095, -14.4971 " /><path d="M26.8971, -13.8144 C26.8221, -13.3197 26.5853, -12.9216 26.2324, -12.7204 " /><path d="M25.0516, -16.8884 C25.1515, -16.9455 25.272, -16.955 25.4133, -16.9171  C25.6403, -16.8555 25.9063, -16.6614 26.1492, -16.3648  C26.3924, -16.0695 26.6107, -15.6732 26.7509, -15.2443  C26.9082, -14.7684 26.9667, -14.2553 26.8971, -13.8144 " /><path d="M24.5864, -16.62 C24.5314, -17.0403 24.5888, -17.3948 24.7419, -17.626  C24.894, -17.8586 25.141, -17.9668 25.4381, -17.93  C25.7346, -17.8947 26.0798, -17.7142 26.4141, -17.4109  C26.7485, -17.1089 27.0706, -16.685 27.3241, -16.1978  C27.5784, -15.7112 27.7629, -15.163 27.8422, -14.6302  C27.9226, -14.0973 27.8972, -13.5816 27.7616, -13.1555  C27.6272, -12.7284 27.3829, -12.3923 27.0571, -12.1926  C26.7322, -11.9915 26.3267, -11.9275 25.893, -12.0054 " /><path d="M22.748, -15.5584 L22.748, -15.5585 " /><path d="M28.7356, -14.8758 C28.6605, -14.3812 28.4238, -13.9831 28.0708, -13.7818 " /><path d="M26.8901, -17.9499 C26.9899, -18.0069 27.1105, -18.0165 27.2518, -17.9785  C27.4782, -17.9171 27.7435, -17.7238 27.9859, -17.4284  C28.2294, -17.1334 28.4481, -16.737 28.5887, -16.3078  C28.7464, -15.8313 28.8052, -15.3174 28.7356, -14.8758 " /><path d="M26.4249, -17.6814 C26.3699, -18.1017 26.4273, -18.4562 26.5804, -18.6875  C26.7325, -18.92 26.9795, -19.0283 27.2766, -18.9914  C27.5731, -18.9561 27.9183, -18.7757 28.2526, -18.4723  C28.587, -18.1703 28.9091, -17.7464 29.1626, -17.2592  C29.4168, -16.7726 29.6014, -16.2244 29.6807, -15.6917  C29.7611, -15.1587 29.7356, -14.6431 29.6001, -14.2169  C29.4656, -13.7898 29.2214, -13.4537 28.8956, -13.2541  C28.5706, -13.053 28.1652, -12.9889 27.7315, -13.0668 " /><path d="M24.5865, -16.6199 L24.5864, -16.62 " /><path d="M30.574, -15.9373 C30.499, -15.4426 30.2623, -15.0445 29.9093, -14.8433 " /><path d="M28.7285, -19.0113 C28.9839, -19.1657 29.431, -18.9719 29.823, -18.4915  C30.0662, -18.1972 30.2848, -17.8018 30.4258, -17.3735  C30.5845, -16.8958 30.6439, -16.3802 30.574, -15.9373 " /><path d="M28.2634, -18.7429 C28.2084, -19.1632 28.2657, -19.5177 28.4188, -19.7489  C28.5709, -19.9814 28.818, -20.0897 29.115, -20.0529  C29.4115, -20.0175 29.7568, -19.8371 30.0911, -19.5338  C30.4255, -19.2318 30.7475, -18.8079 31.0011, -18.3206  C31.2553, -17.8341 31.4399, -17.2859 31.5192, -16.7531  C31.5995, -16.2202 31.5741, -15.7045 31.4385, -15.2784  C31.3041, -14.8513 31.0598, -14.5152 30.734, -14.3155  C30.4091, -14.1144 30.0036, -14.0504 29.57, -14.1282 " /><path d="M26.4249, -17.6813 L26.4249, -17.6814 " /><path d="M32.4125, -16.9987 C32.3375, -16.5041 32.1007, -16.1059 31.7477, -15.9047 " /><path d="M30.567, -20.0727 C30.8222, -20.227 31.269, -20.0335 31.6608, -19.5538  C31.9036, -19.2603 32.1219, -18.866 32.263, -18.4387  C32.4227, -17.96 32.4826, -17.4428 32.4125, -16.9987 " /><path d="M30.1018, -19.8043 C30.0468, -20.2246 30.1042, -20.5791 30.2573, -20.8104  C30.4094, -21.0429 30.6564, -21.1512 30.9535, -21.1143  C31.25, -21.079 31.5952, -20.8985 31.9295, -20.5952  C32.264, -20.2932 32.586, -19.8693 32.8395, -19.3821  C33.0938, -18.8955 33.2784, -18.3473 33.3576, -17.8145  C33.438, -17.2816 33.4126, -16.7659 33.277, -16.3398  C33.1426, -15.9127 32.8983, -15.5766 32.5725, -15.377  C32.2476, -15.1759 31.8421, -15.1118 31.4085, -15.1897 " /><path d="M28.2634, -18.7427 L28.2634, -18.7429 " /><path d="M34.251, -18.0602 C34.1759, -17.5655 33.9392, -17.1674 33.5862, -16.9661 " /><path d="M32.4055, -21.1342 C32.5053, -21.1912 32.6259, -21.2008 32.7672, -21.1628  C32.9938, -21.1013 33.2593, -20.9078 33.5018, -20.612  C33.7421, -20.3206 33.9582, -19.9307 34.0989, -19.5079  C34.2605, -19.027 34.3214, -18.5066 34.251, -18.0602 " /><path d="M31.9403, -20.8657 C31.8853, -21.2861 31.9427, -21.6405 32.0958, -21.8718  C32.2479, -22.1043 32.4949, -22.2126 32.792, -22.1758  C33.0885, -22.1404 33.4337, -21.96 33.768, -21.6567  C34.1024, -21.3546 34.4245, -20.9307 34.678, -20.4435  C34.9322, -19.957 35.1168, -19.4088 35.1961, -18.876  C35.2765, -18.343 35.251, -17.8274 35.1155, -17.4012  C34.981, -16.9742 34.7368, -16.6381 34.411, -16.4384  C34.086, -16.2373 33.6806, -16.1733 33.2469, -16.2511 " /><path d="M30.1019, -19.8042 L30.1018, -19.8043 " /><path d="M36.0894, -19.1216 C36.0144, -18.6269 35.7777, -18.2288 35.4247, -18.0276 " /><path d="M34.2439, -22.1956 C34.3438, -22.2527 34.4644, -22.2622 34.6057, -22.2242  C34.8687, -22.1534 35.184, -21.9026 35.4551, -21.524  C35.651, -21.252 35.8231, -20.9161 35.9412, -20.5578  C36.0999, -20.0801 36.1593, -19.5645 36.0894, -19.1216 " /><path d="M33.7788, -21.9272 C33.7238, -22.3475 33.7811, -22.702 33.9342, -22.9332  C34.0863, -23.1658 34.3334, -23.2741 34.6304, -23.2372  C34.9269, -23.2019 35.2722, -23.0214 35.6065, -22.7181  C35.9409, -22.4161 36.2629, -21.9922 36.5165, -21.505  C36.7707, -21.0184 36.9553, -20.4702 37.0346, -19.9374  C37.1149, -19.4045 37.0895, -18.8888 36.9539, -18.4627  C36.8195, -18.0356 36.5753, -17.6995 36.2495, -17.4998  C35.9245, -17.2987 35.519, -17.2347 35.0854, -17.3126 " /><path d="M31.9403, -20.8656 L31.9403, -20.8657 " /><path d="M37.9279, -20.183 C37.8529, -19.6884 37.6161, -19.2902 37.2631, -19.089 " /><path d="M36.0824, -23.257 C36.1823, -23.3141 36.3029, -23.3237 36.4442, -23.2857  C36.673, -23.2236 36.9416, -23.0267 37.1861, -22.726  C37.4251, -22.4336 37.6395, -22.044 37.7787, -21.6222  C37.9381, -21.1437 37.9979, -20.6268 37.9279, -20.183 " /><path d="M35.6173, -22.9885 L35.6172, -22.9886 " /><path d="M35.6172, -22.9886 C35.5622, -23.4089 35.6196, -23.7634 35.7727, -23.9947  C35.9248, -24.2272 36.1719, -24.3355 36.4689, -24.2986  C36.7654, -24.2633 37.1106, -24.0829 37.4449, -23.7796  C37.7794, -23.4775 38.1014, -23.0536 38.3549, -22.5664  C38.6092, -22.0799 38.7938, -21.5316 38.873, -20.9989  C38.9534, -20.4659 38.928, -19.9503 38.7924, -19.5241  C38.658, -19.097 38.4137, -18.7609 38.0879, -18.5613  C37.763, -18.3602 37.3575, -18.2961 36.9239, -18.374 " /><path d="M33.7788, -21.9271 L33.7788, -21.9272 " /><path d="M39.5697 -21.1309 A2.1 1.21244 60 0 1 39.1348 -20.1696" />
<path d="M38.7008, -24.1535 C38.8888, -24.1742 39.1925, -23.9584 39.4549, -23.5595  C39.8009, -23.0477 40.0496, -22.2398 39.9869, -21.5415 " /><path d="M38.3816, -24.1243 C38.3919, -24.2985 38.4583, -24.4278 38.5706, -24.4863  C38.6826, -24.5454 38.8402, -24.5331 39.0203, -24.4402  C39.3796, -24.2608 39.8281, -23.7344 40.1087, -23.0304  C40.3937, -22.3328 40.4917, -21.4787 40.2746, -20.829  C40.1686, -20.504 39.9887, -20.2311 39.7454, -20.0457  C39.5027, -19.8597 39.1969, -19.7617 38.8558, -19.7672 " /><path d="M35.6173, -22.9885 L35.6172, -22.9886 " /><path d="M39.9833, -21.4645 C39.9582, -21.0553 39.8142, -20.6911 39.5707, -20.4498 " /><path d="M39.9869, -21.5415 L39.9833, -21.4645 " /><path d="M37.3062 -23.8978 A2.1 1.21244 60 0 1 39.5697 -21.1309" />
<path d="M41.3037, -23.1048 C41.2668, -22.9274 41.1989, -22.7568 41.0985, -22.615 " /><path d="M38.1472 -24.0656 A1.97335 1.13932 60 0 1 39.9869 -21.5415" />
<path d="M41.151, -24.3699 C41.1559, -24.3417 41.2201, -24.2194 41.2741, -24.0056  C41.3343, -23.7722 41.373, -23.4303 41.3037, -23.1048 " /><path d="M41.1171, -24.4863 C41.079, -24.5456 41.081, -24.5796 41.1163, -24.5589 " /><path d="M41.1163, -24.5589 C41.1563, -24.5361 41.241, -24.4371 41.3271, -24.2556  C41.4129, -24.0761 41.4973, -23.8144 41.5252, -23.5198 " /><path d="M41.5252, -23.5198 C41.5562, -23.2061 41.5187, -22.8581 41.3774, -22.5764  C41.2384, -22.2939 40.9944, -22.0834 40.6776, -22.0191 " /><path d="M41.4095, -24.4017 C41.3968, -24.4014 41.3945, -24.3851 41.4025, -24.3529  C41.421, -24.2706 41.5009, -24.0428 41.5102, -23.7357 " /></g>

</svg>
