<svg xmlns="http://www.w3.org/2000/svg" viewBox="-9.244621200000001 -11.1292312 74.3738524 22.2584624">
<rect width="100%" height="100%" fill="white"/>
<g   fill="none"
   stroke="rgb(0, 0, 0)"
   stroke-linecap="butt"
   stroke-linejoin="miter"
   stroke-width="0.35"
   transform="scale(1, -1)"
  >
<path d="M0, -6 C-0.496317, -6.00008 -0.99551, -5.93696 -1.46519, -5.77635  C-2.02284, -5.5889 -2.52818, -5.25162 -2.91186, -4.80547  C-3.16421, -4.51517 -3.36787, -4.18433 -3.53015, -3.83534  C-3.85754, -3.12794 -4.02465, -2.35574 -4.11539, -1.58234 " /><path d="M0.6, -3 C0.497404, -3.00041 0.401053, -3.02515 0.310948, -3.07422  C0.121879, -3.17581 -0.00205735, -3.38537 0, -3.6 " /><path id= "3" d=" M 0.6 -3 L 21.544 -3 " />
<path id= "4" d=" M 21.8987 -2.64535 L 21.544 -3 " />
<path d="M24.1023, -1.98742 Q24.3762, -2.43774 24.6425, -2.88708 " /><path d="M23.3425, 2.88705 Q23.1094, 2.49393 22.8707, 2.1 " /><path d="M21.8646, -2.58835 L22.0425, -2.88705 " /><path id= "8" d=" M 22.6429 -2.1 L 24.1707 -2.1 " />
<path d="M23.5385, 2.8871 Q23.8049, 2.43777 24.079, 1.98746 " /><path d="M22.2385, -2.88713 Q22.4717, -2.49397 22.7105, -2.1 " /><path d="M26.7022, -1.98742 Q26.9762, -2.43775 27.2425, -2.88708 " /><path d="M25.9425, 2.88706 Q25.7094, 2.49393 25.4707, 2.1 " /><path id= "13" d=" M 25.2429 -2.1 L 26.7707 -2.1 " />
<path d="M26.1385, 2.8871 Q26.4049, 2.43777 26.679, 1.98746 " /><path d="M24.8385, -2.88713 Q25.0717, -2.49397 25.3105, -2.1 " /><path d="M29.3022, -1.98743 Q29.5762, -2.43775 29.8425, -2.88709 " /><path d="M28.5425, 2.88706 Q28.3094, 2.49394 28.0707, 2.1 " /><path id= "18" d=" M 27.8429 -2.1 L 29.3707 -2.1 " />
<path d="M28.7385, 2.8871 Q29.0049, 2.43777 29.2789, 1.98745 " /><path d="M27.4385, -2.88713 Q27.6717, -2.49397 27.9104, -2.1 " /><path d="M31.9022, -1.98743 Q32.1762, -2.43775 32.4425, -2.88709 " /><path d="M31.1425, 2.88707 Q30.9094, 2.49394 30.6707, 2.1 " /><path id= "23" d=" M 30.4428 -2.1 L 31.9707 -2.1 " />
<path d="M31.3385, 2.88711 Q31.6049, 2.43777 31.8789, 1.98745 " /><path d="M30.0385, -2.88713 Q30.2717, -2.49397 30.5104, -2.1 " /><path d="M34.5022, -1.98743 Q34.7762, -2.43776 35.0425, -2.8871 " /><path d="M33.7425, 2.88707 Q33.5093, 2.49394 33.2707, 2.1 " /><path id= "28" d=" M 33.0428 -2.1 L 34.5707 -2.1 " />
<path d="M33.9385, 2.88711 Q34.2048, 2.43777 34.4789, 1.98745 " /><path d="M32.6385, -2.88713 Q32.8717, -2.49397 33.1104, -2.1 " /><path d="M37.1022, -1.98744 Q37.3762, -2.43776 37.6425, -2.8871 " /><path d="M36.3425, 2.88708 Q36.1093, 2.49394 35.8706, 2.1 " /><path id= "33" d=" M 35.6428 -2.1 L 37.1706 -2.1 " />
<path d="M36.5385, 2.88711 Q36.8048, 2.43776 37.0789, 1.98744 " /><path d="M35.2384, -2.88713 Q35.4716, -2.49397 35.7104, -2.1 " /><path d="M39.7021, -1.98744 Q39.9762, -2.43777 40.2425, -2.88711 " /><path d="M38.9425, 2.88708 Q38.7093, 2.49395 38.4706, 2.1 " /><path id= "38" d=" M 38.2428 -2.1 L 39.7706 -2.1 " />
<path d="M39.1384, 2.88711 Q39.4048, 2.43776 39.6789, 1.98744 " /><path d="M37.8384, -2.88713 Q38.0716, -2.49397 38.3104, -2.1 " /><path d="M42.3021, -1.98744 Q42.5761, -2.43777 42.8425, -2.88711 " /><path d="M41.5425, 2.88709 Q41.3093, 2.49395 41.0706, 2.1 " /><path id= "43" d=" M 40.8428 -2.1 L 42.3706 -2.1 " />
<path d="M41.7384, 2.88711 Q42.0048, 2.43776 42.2789, 1.98744 " /><path d="M40.4384, -2.88713 Q40.6716, -2.49397 40.9104, -2.1 " /><path d="M44.9021, -1.98745 Q45.1761, -2.43778 45.4425, -2.88712 " /><path d="M44.1424, 2.88709 Q43.9093, 2.49395 43.6706, 2.1 " /><path id= "48" d=" M 43.4428 -2.1 L 44.9706 -2.1 " />
<path d="M44.3384, 2.88711 Q44.6048, 2.43776 44.8788, 1.98744 " /><path d="M43.0384, -2.88713 Q43.2716, -2.49397 43.5103, -2.1 " /><path d="M47.5021, -1.98745 Q47.7761, -2.43778 48.0425, -2.88713 " /><path d="M46.7424, 2.8871 Q46.5093, 2.49395 46.2706, 2.1 " /><path id= "53" d=" M 46.0427 -2.1 L 47.5706 -2.1 " />
<path d="M46.9384, 2.88711 Q47.2048, 2.43776 47.4788, 1.98743 " /><path d="M45.6384, -2.88713 Q45.8716, -2.49397 46.1103, -2.1 " /><path d="M50.1021, -1.98745 Q50.3761, -2.43778 50.6424, -2.88713 " /><path d="M49.3424, 2.88711 Q49.1093, 2.49396 48.8705, 2.1 " /><path id= "58" d=" M 48.6427 -2.1 L 50.1705 -2.1 " />
<path d="M49.5384, 2.88711 Q49.8048, 2.43776 50.0788, 1.98743 " /><path d="M48.2384, -2.88714 Q48.4716, -2.49397 48.7103, -2.1 " /><path d="M52.702, -1.98745 Q52.9761, -2.43779 53.2424, -2.88714 " /><path d="M51.9424, 2.88711 Q51.7092, 2.49396 51.4705, 2.1 " /><path id= "63" d=" M 51.2427 -2.1 L 52.7705 -2.1 " />
<path d="M52.1384, 2.88711 Q52.4048, 2.43776 52.6788, 1.98743 " /><path d="M50.8384, -2.88714 Q51.0716, -2.49397 51.3103, -2.1 " /><path d="M55.6997, -1.18255 Q55.7896, -1.35476 55.8744, -1.53162 " /><path d="M54.5578, 2.23357 L54.4516, 2.04039 " /><path id= "68" d=" M 53.8427 -2.1 L 53.86 -2.1 " />
<path d="M54.8393, 2.27358 Q55.0442, 1.96506 55.2549, 1.65509 " /><path d="M53.4273, -2.87743 Q53.6551, -2.49233 53.8883, -2.10565 " /><path id= "71" d=" M 55.8621 -1.50609 L 54.5783 -1.97335 " />
<path d="M54.5783, -1.97335 C54.3674, -2.10697 54.1038, -2.15346 53.86, -2.1 " /><path d="M58.2968, -0.0833933 Q58.3176, -0.109978 58.3377, -0.144599 " /><path id= "74" d=" M 60 -1.18019e-12 L 57.9732 0.737692 " />
<path id= "75" d=" M 60 1.18019e-12 L 59.2302 -0.280184 " />
<path id= "76" d=" M 58.6186 -0.502774 L 56.5086 -1.27077 " />
<path id= "77" d=" M 56.5086 -1.27077 L 56.5086 -1.27077 " />
<path d="M57.6858, 1.05251 Q57.8751, 0.83974 58.0768, 0.628494 " /><path d="M56.2561, -1.66688 Q56.4162, -1.45611 56.5811, -1.24438 " /></g>
<g   fill="none"
   stroke="rgb(0, 0, 0)"
   stroke-linecap="butt"
   stroke-linejoin="miter"
   stroke-width="0.35"
   transform="scale(1, -1)"
  >
<path d="M-4.11539, 1.58234 Q-4.10084, 1.72391 -4.03874, 1.87578 " /><path d="M-4.11539, 1.58234 Q-3.60387, 6 0, 6 " /><path d="M0, -6 L0, -5.84957  L0, -5.40581  L0, -4.69099  L0, -3.74094  L0, -2.6033  L0, -1.33513  L0, -1.11022e-15  L0, 1.33513  L0, 2.6033  L0, 3.74094  L0, 4.69099  L0, 5.40581  L0, 5.84957  L0, 6 " /><path d="M-4.03874, -1.87578 Q-4.10084, -1.72391 -4.11539, -1.58234 " /><path d="M-3.71401, -2.69827 C-3.86567, -2.4334 -3.9683, -2.15495 -4.03874, -1.87578 " /><path d="M-3.71401, -2.04837 Q-3.71401, -2.4176 -3.71401, -2.69827 " /><path d="M-4.03874, -0.99 C-3.9683, -1.34428 -3.86567, -1.70167 -3.71401, -2.04837 " /><path d="M-4.11539, 8.81406e-12 Q-4.10084, -0.470213 -4.03874, -0.99 " /><path d="M-4.03874, 0.99 Q-4.10084, 0.470214 -4.11539, -9.32476e-12 " /><path d="M-3.71401, 2.04837 C-3.86567, 1.70167 -3.9683, 1.34428 -4.03874, 0.99 " /><path d="M-3.71401, 2.69827 Q-3.71401, 2.4176 -3.71401, 2.04837 " /><path d="M-4.03874, 1.87578 C-3.9683, 2.15495 -3.86567, 2.4334 -3.71401, 2.69827 " /><path id= "13" d=" M -4.03874 1.87578 L -3.7947 1.8512 " />
<path id= "14" d=" M -4.11539 1.58234 L -3.89514 1.56017 " />
<path id= "15" d=" M -4.03874 -1.87578 L -3.7947 -1.8512 " />
<path id= "16" d=" M -4.11539 -1.58234 L -3.89514 -1.56017 " />
<path d="M0 3.6 A0.6 0.6 0 0 1 0.6 3" /><path id= "18" d=" M 0.6 3 L 21.544 3 " />
<path d="M21.544, -3 L21.544, -2.92478  L21.544, -2.70291  L21.544, -2.34549  L21.544, -1.87047  L21.544, -1.30165  L21.544, -0.667563  L21.544, -5.55112e-16  L21.544, 0.667563  L21.544, 1.30165  L21.544, 1.87047  L21.544, 2.34549  L21.544, 2.70291  L21.544, 2.92478  L21.544, 3 " /><path d="M21.8646, -2.58835 C21.8277, -2.52467 21.7914, -2.3864 21.7556, -2.17354  C21.6936, -1.81006 21.6331, -1.23963 21.574, -0.595244 " /><path d="M22.444, -1.86208 C22.2892, -1.84411 22.1405, -1.7266 21.9979, -1.50955  C21.8509, -1.2892 21.7099, -0.972003 21.574, -0.595244 " /><path d="M22.444, -1.86208 Q22.444, -1.7536 22.444, -1.64511  Q22.444, -1.507 22.444, -1.3689  Q22.444, -1.20614 22.444, -1.04337  Q22.444, -0.861824 22.444, -0.680273  Q22.444, -0.486472 22.444, -0.292671  Q22.444, 0.106539 22.444, 0.499819  Q22.444, 0.68799 22.444, 0.876162  Q22.444, 1.04855 22.444, 1.22095  Q22.444, 1.37135 22.444, 1.52176  Q22.444, 1.64476 22.444, 1.76776  Q22.444, 1.85892 22.444, 1.95009  Q22.444, 2.00614 22.444, 2.06218  Q22.444, 2.08109 22.444, 2.1 " /><path id= "23" d=" M 21.544 3 L 22.444 2.1 " />
<path id= "24" d=" M 22.444 2.1 L 22.9383 2.1 " />
<path d="M24.1023, -1.98742 C23.9858, -1.79894 23.8693, -1.36012 23.7528, -0.813032  C23.6648, -0.401428 23.5769, 0.0662434 23.4889, 0.499995  C23.4028, 0.924661 23.3167, 1.31444 23.2307, 1.59742  C23.1332, 1.91984 23.0358, 2.10148 22.9383, 2.1 " /><path d="M24.7405, -2.96997 Q24.6915, -2.96981 24.6425, -2.88708 " /><path d="M24.6425, -2.88708 C24.5506, -2.73367 24.4585, -2.35749 24.3665, -1.83727  C24.2745, -1.31912 24.1825, -0.660753 24.0905, 6.3252e-05  C23.9985, 0.660879 23.9065, 1.31925 23.8145, 1.83739  C23.7225, 2.35759 23.6305, 2.73373 23.5385, 2.8871 " /><path d="M23.5385, 2.8871 Q23.4405, 3.05272 23.3425, 2.88705 " /><path d="M22.2385, -2.88713 Q22.1895, -2.96981 22.1405, -2.96996 " /><path d="M22.1405, -2.96996 Q22.0915, -2.96981 22.0425, -2.88705 " /><path d="M22.0425, -2.88705 C21.9644, -2.75636 21.8864, -2.46687 21.8083, -2.06295  C21.7302, -1.66025 21.6521, -1.14467 21.574, -0.595244 " /><path d="M22.6429, -2.1 Q22.5434, -2.09818 22.444, -1.86208 " /><path d="M22.6429, -2.1 L22.6429, -2.1 " /><path id= "34" d=" M 24.0105 2.1 L 25.5383 2.1 " />
<path d="M25.2429, -2.1 C25.1334, -2.10232 25.0238, -1.87062 24.9143, -1.47193  C24.8444, -1.2191 24.7745, -0.901946 24.7046, -0.559802  C24.6342, -0.215684 24.5638, 0.152897 24.4935, 0.499694  C24.3553, 1.18455 24.2171, 1.76552 24.079, 1.98746 " /><path d="M26.7022, -1.98742 C26.5858, -1.79894 26.4693, -1.3601 26.3528, -0.813001  C26.2649, -0.401869 26.177, 0.0652005 26.0892, 0.498529  C26.0034, 0.921718 25.9176, 1.31039 25.8319, 1.59334  C25.734, 1.91826 25.6362, 2.1015 25.5383, 2.1 " /><path d="M27.3405, -2.96997 Q27.2915, -2.96982 27.2425, -2.88708 " /><path d="M27.2425, -2.88708 C27.1505, -2.73367 27.0585, -2.3575 26.9665, -1.83728  C26.8745, -1.31913 26.7825, -0.660764 26.6905, 5.38402e-05  C26.5985, 0.660871 26.5065, 1.31924 26.4145, 1.83738  C26.3225, 2.35759 26.2305, 2.73373 26.1385, 2.8871 " /><path d="M26.1385, 2.8871 Q26.0405, 3.05272 25.9425, 2.88706 " /><path d="M24.8385, -2.88713 Q24.7895, -2.96982 24.7405, -2.96997 " /><path d="M25.2429, -2.1 L25.2429, -2.1 " /><path id= "42" d=" M 26.6105 2.1 L 28.1383 2.1 " />
<path d="M27.8429, -2.1 C27.7334, -2.10232 27.6238, -1.87062 27.5143, -1.47194  C27.4444, -1.21911 27.3744, -0.90196 27.3045, -0.559819  C27.2342, -0.215735 27.1638, 0.152807 27.0935, 0.499576  C26.9553, 1.18447 26.8171, 1.76551 26.679, 1.98746 " /><path d="M29.3022, -1.98743 C29.1858, -1.79894 29.0692, -1.36009 28.9528, -0.812969  C28.865, -0.402345 28.7772, 0.0640728 28.6895, 0.496944  C28.6038, 0.919951 28.518, 1.30859 28.4323, 1.59175  C28.3343, 1.91765 28.2363, 2.10151 28.1383, 2.1 " /><path d="M29.9405, -2.96997 Q29.8915, -2.96982 29.8425, -2.88709 " /><path d="M29.8425, -2.88709 C29.7505, -2.73368 29.6585, -2.35751 29.5665, -1.83729  C29.4745, -1.31914 29.3825, -0.660774 29.2905, 4.44284e-05  C29.1985, 0.660862 29.1065, 1.31923 29.0145, 1.83738  C28.9225, 2.35759 28.8305, 2.73373 28.7385, 2.8871 " /><path d="M28.7385, 2.8871 Q28.6405, 3.05273 28.5425, 2.88706 " /><path d="M27.4385, -2.88713 Q27.3895, -2.96982 27.3405, -2.96997 " /><path d="M27.8429, -2.1 L27.8429, -2.1 " /><path id= "50" d=" M 29.2104 2.1 L 30.7383 2.1 " />
<path d="M30.4428, -2.1 C30.3334, -2.10232 30.2238, -1.87062 30.1142, -1.47195  C30.0443, -1.21912 29.9744, -0.901973 29.9045, -0.559836  C29.8342, -0.215787 29.7638, 0.152717 29.6935, 0.499456  C29.5553, 1.1844 29.4171, 1.76549 29.2789, 1.98745 " /><path d="M31.9022, -1.98743 C31.7857, -1.79894 31.6692, -1.36007 31.5527, -0.812936  C31.4651, -0.402982 31.3775, 0.0625794 31.2899, 0.494849  C31.2029, 0.924343 31.1159, 1.31849 31.0289, 1.60308  C30.932, 1.92202 30.8351, 2.10145 30.7383, 2.1 " /><path d="M32.5405, -2.96998 Q32.4915, -2.96982 32.4425, -2.88709 " /><path d="M32.4425, -2.88709 C32.3505, -2.73369 32.2585, -2.35752 32.1665, -1.8373  C32.0745, -1.31915 31.9825, -0.660784 31.8905, 3.50165e-05  C31.7985, 0.660854 31.7065, 1.31923 31.6145, 1.83737  C31.5225, 2.35758 31.4305, 2.73373 31.3385, 2.88711 " /><path d="M31.3385, 2.88711 Q31.2405, 3.05273 31.1425, 2.88707 " /><path d="M30.0385, -2.88713 Q29.9895, -2.96982 29.9405, -2.96997 " /><path d="M30.4428, -2.1 L30.4428, -2.1 " /><path id= "58" d=" M 31.8104 2.1 L 33.3383 2.1 " />
<path d="M33.0428, -2.1 C32.9333, -2.10232 32.8237, -1.87062 32.7142, -1.47195  C32.6443, -1.21912 32.5744, -0.901986 32.5045, -0.559854  C32.4342, -0.215839 32.3638, 0.152626 32.2935, 0.499336  C32.1553, 1.18433 32.0171, 1.76547 31.8789, 1.98745 " /><path d="M34.5022, -1.98743 C34.3857, -1.79894 34.2692, -1.36006 34.1527, -0.812904  C34.0653, -0.403756 33.9778, 0.0607794 33.8903, 0.492327  C33.8036, 0.920834 33.7168, 1.31436 33.63, 1.59918  C33.5328, 1.92052 33.4355, 2.10147 33.3383, 2.1 " /><path d="M35.1405, -2.96998 Q35.0915, -2.96982 35.0425, -2.8871 " /><path d="M35.0425, -2.8871 C34.9505, -2.7337 34.8585, -2.35753 34.7665, -1.83731  C34.6745, -1.31916 34.5825, -0.660794 34.4905, 2.56047e-05  C34.3985, 0.660845 34.3065, 1.31922 34.2145, 1.83737  C34.1225, 2.35758 34.0305, 2.73373 33.9385, 2.88711 " /><path d="M33.9385, 2.88711 Q33.8405, 3.05273 33.7425, 2.88707 " /><path d="M32.6385, -2.88713 Q32.5895, -2.96983 32.5405, -2.96998 " /><path d="M33.0428, -2.1 L33.0428, -2.1 " /><path id= "66" d=" M 34.4104 2.1 L 35.9382 2.1 " />
<path d="M35.6428, -2.1 C35.5333, -2.10232 35.4237, -1.87063 35.3142, -1.47196  C35.2443, -1.21913 35.1744, -0.901999 35.1045, -0.559871  C35.0342, -0.215892 34.9638, 0.152534 34.8935, 0.499215  C34.7553, 1.18425 34.6171, 1.76545 34.4789, 1.98745 " /><path d="M37.1022, -1.98744 C36.9857, -1.79895 36.8692, -1.36005 36.7527, -0.812876  C36.6654, -0.404556 36.5781, 0.0589251 36.4909, 0.489723  C36.4036, 0.92093 36.3163, 1.31688 36.229, 1.60256  C36.1321, 1.92182 36.0352, 2.10145 35.9382, 2.1 " /><path d="M37.7405, -2.96998 Q37.6915, -2.96983 37.6425, -2.8871 " /><path d="M37.6425, -2.8871 C37.5505, -2.7337 37.4585, -2.35754 37.3665, -1.83732  C37.2745, -1.31917 37.1825, -0.660804 37.0905, 1.61929e-05  C36.9985, 0.660836 36.9065, 1.31921 36.8145, 1.83736  C36.7225, 2.35758 36.6305, 2.73373 36.5385, 2.88711 " /><path d="M36.5385, 2.88711 Q36.4405, 3.05274 36.3425, 2.88708 " /><path d="M35.2384, -2.88713 Q35.1895, -2.96983 35.1405, -2.96998 " /><path d="M35.6428, -2.1 L35.6428, -2.1 " /><path id= "74" d=" M 37.0104 2.1 L 38.5382 2.1 " />
<path d="M38.2428, -2.1 C38.1333, -2.10232 38.0237, -1.87063 37.9142, -1.47196  C37.8443, -1.21914 37.7744, -0.902013 37.7045, -0.559888  C37.5826, 0.0365043 37.4608, 0.704395 37.3389, 1.20909  C37.2523, 1.56948 37.1656, 1.84617 37.0789, 1.98744 " /><path d="M39.7021, -1.98744 C39.5857, -1.79895 39.4691, -1.36003 39.3527, -0.812845  C39.2656, -0.405548 39.1786, 0.0566302 39.0915, 0.486509  C39.0041, 0.918248 38.9168, 1.31489 38.8294, 1.60116  C38.7323, 1.92128 38.6353, 2.10145 38.5382, 2.1 " /><path d="M40.3405, -2.96998 Q40.2915, -2.96983 40.2425, -2.88711 " /><path d="M40.2425, -2.88711 C40.1505, -2.73371 40.0585, -2.35754 39.9665, -1.83733  C39.8745, -1.31918 39.7825, -0.660815 39.6905, 6.78111e-06  C39.5985, 0.660828 39.5065, 1.31921 39.4145, 1.83736  C39.3224, 2.35757 39.2304, 2.73373 39.1384, 2.88711 " /><path d="M39.1384, 2.88711 Q39.0405, 3.05274 38.9425, 2.88708 " /><path d="M37.8384, -2.88713 Q37.7894, -2.96983 37.7405, -2.96998 " /><path d="M38.2428, -2.1 L38.2428, -2.1 " /><path id= "82" d=" M 39.6104 2.1 L 41.1382 2.1 " />
<path d="M40.8428, -2.1 C40.7333, -2.10232 40.6237, -1.87063 40.5142, -1.47197  C40.4443, -1.21915 40.3744, -0.902026 40.3045, -0.559906  C40.1845, 0.0272648 40.0645, 0.683893 39.9445, 1.18561  C39.856, 1.55733 39.7674, 1.84316 39.6789, 1.98744 " /><path d="M42.3021, -1.98744 C42.1857, -1.79895 42.0691, -1.36002 41.9526, -0.812814  C41.8657, -0.406293 41.7789, 0.0548965 41.692, 0.484075  C41.6047, 0.915326 41.5175, 1.31175 41.4302, 1.59833  C41.3329, 1.92019 41.2355, 2.10147 41.1382, 2.1 " /><path d="M42.9404, -2.96999 Q42.8915, -2.96983 42.8425, -2.88711 " /><path d="M42.8425, -2.88711 C42.7505, -2.73372 42.6585, -2.35755 42.5665, -1.83734  C42.4744, -1.31919 42.3825, -0.660825 42.2905, -2.63072e-06  C42.1985, 0.660819 42.1064, 1.3192 42.0144, 1.83735  C41.9224, 2.35757 41.8304, 2.73372 41.7384, 2.88711 " /><path d="M41.7384, 2.88711 Q41.6404, 3.05274 41.5425, 2.88709 " /><path d="M40.4384, -2.88713 Q40.3894, -2.96984 40.3405, -2.96998 " /><path d="M40.8428, -2.1 L40.8428, -2.1 " /><path id= "90" d=" M 42.2104 2.1 L 43.7382 2.1 " />
<path d="M43.4428, -2.1 C43.3333, -2.10232 43.2237, -1.87063 43.1142, -1.47197  C43.0443, -1.21916 42.9744, -0.902039 42.9045, -0.559923  C42.8341, -0.216051 42.7638, 0.152255 42.6935, 0.498845  C42.5553, 1.18403 42.4171, 1.7654 42.2789, 1.98744 " /><path d="M44.9021, -1.98745 C44.7856, -1.79895 44.6691, -1.36001 44.5526, -0.812783  C44.4658, -0.40664 44.379, 0.054067 44.2922, 0.482902  C44.2051, 0.913309 44.1181, 1.30913 44.031, 1.59575  C43.9334, 1.91919 43.8358, 2.10149 43.7382, 2.1 " /><path d="M45.5404, -2.96999 Q45.4914, -2.96984 45.4425, -2.88712 " /><path d="M45.4425, -2.88712 C45.3505, -2.73373 45.2585, -2.35756 45.1664, -1.83735  C45.0744, -1.3192 44.9824, -0.660835 44.8904, -1.20426e-05  C44.7984, 0.66081 44.7064, 1.31919 44.6144, 1.83735  C44.5224, 2.35757 44.4304, 2.73372 44.3384, 2.88711 " /><path d="M44.3384, 2.88711 Q44.2404, 3.05275 44.1424, 2.88709 " /><path d="M43.0384, -2.88713 Q42.9894, -2.96984 42.9404, -2.96999 " /><path d="M43.4428, -2.1 L43.4428, -2.1 " /><path id= "98" d=" M 44.8103 2.1 L 46.3382 2.1 " />
<path d="M46.0427, -2.1 C45.9333, -2.10232 45.8237, -1.87064 45.7141, -1.47198  C45.6442, -1.21917 45.5743, -0.902053 45.5044, -0.55994  C45.4341, -0.216105 45.3638, 0.15216 45.2935, 0.49872  C45.1553, 1.18396 45.0171, 1.76538 44.8788, 1.98744 " /><path d="M47.5021, -1.98745 C47.3856, -1.79895 47.2691, -1.35999 47.1526, -0.812754  C47.0655, -0.405156 46.9783, 0.0573944 46.8912, 0.48753  C46.805, 0.913565 46.7188, 1.30542 46.6325, 1.59056  C46.5344, 1.9172 46.4363, 2.10152 46.3382, 2.1 " /><path d="M48.1404, -2.96999 Q48.0914, -2.96984 48.0425, -2.88713 " /><path d="M48.0425, -2.88713 C47.9505, -2.73373 47.8584, -2.35757 47.7664, -1.83736  C47.6744, -1.31921 47.5824, -0.660845 47.4904, -2.14544e-05  C47.3984, 0.660802 47.3064, 1.31918 47.2144, 1.83734  C47.1224, 2.35756 47.0304, 2.73372 46.9384, 2.88711 " /><path d="M46.9384, 2.88711 Q46.8404, 3.05275 46.7424, 2.8871 " /><path d="M45.6384, -2.88713 Q45.5894, -2.96984 45.5404, -2.96999 " /><path d="M46.0427, -2.1 L46.0427, -2.1 " /><path id= "106" d=" M 47.4103 2.1 L 48.9381 2.1 " />
<path d="M48.6427, -2.1 C48.5332, -2.10232 48.4236, -1.87064 48.3141, -1.47199  C48.2442, -1.21918 48.1743, -0.902066 48.1044, -0.559958  C48.0341, -0.216159 47.9638, 0.152065 47.8935, 0.498594  C47.7553, 1.18388 47.6171, 1.76536 47.4788, 1.98743 " /><path d="M50.1021, -1.98745 C49.9856, -1.79895 49.869, -1.35998 49.7526, -0.812724  C49.6514, -0.33968 49.5503, 0.207409 49.4492, 0.691899  C49.3762, 1.04195 49.3032, 1.35829 49.2302, 1.5983  C49.1328, 1.92018 49.0355, 2.10147 48.9381, 2.1 " /><path d="M50.7404, -2.97 Q50.6914, -2.96984 50.6424, -2.88713 " /><path d="M50.6424, -2.88713 C50.5504, -2.73374 50.4584, -2.35758 50.3664, -1.83737  C50.2744, -1.31922 50.1824, -0.660856 50.0904, -3.08662e-05  C49.9984, 0.660793 49.9064, 1.31918 49.8144, 1.83734  C49.7224, 2.35756 49.6304, 2.73372 49.5384, 2.88711 " /><path d="M49.5384, 2.88711 Q49.4404, 3.05275 49.3424, 2.88711 " /><path d="M48.2384, -2.88714 Q48.1894, -2.96984 48.1404, -2.96999 " /><path d="M48.6427, -2.1 L48.6427, -2.1 " /><path id= "114" d=" M 50.0103 2.1 L 51.5381 2.1 " />
<path d="M51.2427, -2.1 C51.1332, -2.10232 51.0236, -1.87064 50.9141, -1.47199  C50.8442, -1.21919 50.7743, -0.90208 50.7044, -0.559975  C50.5833, 0.0326938 50.4622, 0.696048 50.3411, 1.19958  C50.2537, 1.56455 50.1662, 1.84493 50.0788, 1.98743 " /><path d="M52.702, -1.98745 C52.5856, -1.79895 52.469, -1.35997 52.3525, -0.812695  C52.2645, -0.401014 52.1765, 0.0667265 52.0885, 0.500497  C52.0026, 0.924425 51.9167, 1.31356 51.8308, 1.59633  C51.7332, 1.91942 51.6357, 2.10148 51.5381, 2.1 " /><path d="M53.3404, -2.97 Q53.2914, -2.96985 53.2424, -2.88714 " /><path d="M53.2424, -2.88714 C53.1504, -2.73375 53.0584, -2.35759 52.9664, -1.83738  C52.8744, -1.31923 52.7824, -0.660866 52.6904, -4.02781e-05  C52.5984, 0.660785 52.5064, 1.31917 52.4144, 1.83733  C52.3224, 2.35756 52.2304, 2.73372 52.1384, 2.88711 " /><path d="M52.1384, 2.88711 Q52.0404, 3.05275 51.9424, 2.88711 " /><path d="M50.8384, -2.88714 Q50.7894, -2.96985 50.7404, -2.97 " /><path d="M51.2427, -2.1 L51.2427, -2.1 " /><path id= "122" d=" M 52.6103 2.1 L 53.86 2.1 " />
<path d="M53.3404, -2.97 L53.8427, -2.1 " /><path d="M53.8427, -2.1 C53.7332, -2.10232 53.6236, -1.87065 53.5141, -1.472  C53.4442, -1.2192 53.3743, -0.902093 53.3044, -0.559992  C53.1835, 0.0316092 53.0626, 0.693662 52.9418, 1.19686  C52.8541, 1.56314 52.7665, 1.84458 52.6788, 1.98743 " /><path d="M55.6997, -1.18255 C55.4972, -0.801049 55.3015, -0.00654717 55.1117, 0.68605  C55.042, 0.93939 54.9731, 1.17698 54.9049, 1.37552  C54.7941, 1.69997 54.6852, 1.916 54.5783, 1.97175 " /><path d="M56.1506, -1.75981 Q56.0125, -1.82048 55.8744, -1.53162 " /><path d="M55.8744, -1.53162 C55.7881, -1.35269 55.7018, -1.07237 55.6156, -0.72818  C55.5293, -0.38491 55.4431, 0.0210161 55.3568, 0.425731  C55.1843, 1.23886 55.0118, 2.02065 54.8393, 2.27358 " /><path d="M54.8393, 2.27358 Q54.6986, 2.49011 54.5578, 2.23357 " /><path d="M53.4273, -2.87743 Q53.3838, -2.95105 53.3404, -2.97 " /><path d="M54.5783, 1.97175 L54.561, 1.98392 " /><path d="M53.86, -2.1 L53.86, -2.04735  L53.86, -1.89203  L53.86, -1.64185  L53.86, -1.30933  L53.86, -0.911156  L53.86, -0.467294  L53.86, -3.88578e-16  L53.86, 0.467294  L53.86, 0.911156  L53.86, 1.30933  L53.86, 1.64185  L53.86, 1.89203  L53.86, 2.04735  L53.86, 2.1 " /><path d="M53.86 2.1 A0.967368 0.967368 0 0 0 54.561 1.98392" /><path d="M56.5086, -1.27077 C56.3917, -1.31494 56.2768, -1.21337 56.164, -0.987251  C56.0659, -0.792352 55.9693, -0.506653 55.8742, -0.188212  C55.7299, 0.29493 55.589, 0.844789 55.4512, 1.22805  C55.3851, 1.41534 55.3197, 1.55769 55.2549, 1.65509 " /><path id= "134" d=" M 55.19 1.7507 L 57.5037 0.90859 " />
<path d="M54.5783, -1.97335 L54.5783, -1.92514  L54.5783, -1.78284  L54.5783, -1.55342  L54.5783, -1.24808  L54.5783, -0.88175  L54.5783, -0.47233  L54.5783, -0.0398285  L54.5783, 0.39462  L54.5783, 0.809783  L54.5783, 1.18537  L54.5783, 1.50304  L54.5783, 1.74725  L54.5783, 1.90607  L54.5783, 1.97175 " /><path d="M58.2968, -0.0833933 C58.1852, 0.0587581 58.0748, 0.237283 57.9658, 0.404558  C57.8087, 0.646768 57.6546, 0.855584 57.5037, 0.90859 " /><path d="M58.9608, -0.549615 C58.857, -0.59794 58.7531, -0.589565 58.6493, -0.524488  C58.5454, -0.457683 58.4415, -0.324337 58.3377, -0.144599 " /><path d="M58.3377, -0.144599 C58.1204, 0.226251 57.9031, 0.809882 57.6858, 1.05251 " /><path d="M57.6858, 1.05251 C57.5412, 1.21735 57.3965, 1.21646 57.2519, 1.00023 " /><path d="M56.2561, -1.66688 Q56.2033, -1.73669 56.1506, -1.75981 " /><path d="M56.5086, -1.27077 L56.5086, -1.27077 " /><path id= "142" d=" M 57.9732 0.737692 L 60 -2.33371e-12 " />
<path d="M59.2302, -0.280184 C59.1236, -0.319478 59.017, -0.329554 58.9113, -0.29056  C58.8037, -0.24936 58.6968, -0.165387 58.5906, -0.0386419  C58.4167, 0.162364 58.2453, 0.453652 58.0768, 0.628494 " /><path d="M58.9608, -0.549615 L59.2302, -0.280184 " /></g>

</svg>
