<svg xmlns="http://www.w3.org/2000/svg" viewBox="-6.96 -6.96 13.92 13.92">
<rect width="100%" height="100%" fill="white"/>
<g   fill="none"
   stroke="rgb(0, 0, 0)"
   stroke-linecap="butt"
   stroke-linejoin="miter"
   stroke-width="0.35"
   transform="scale(1, -1)"
  >
<path d="M1.58234, -2.22045e-16 Q1.72391, -0.470203 1.87578, -0.99 " /><circle cx ="0" cy ="0" r ="6" /><path d="M1.87578, 0.99 Q1.72391, 0.470204 1.58234, -1.11022e-16 " /><path d="M2.69827, 2.04837 Q2.29775, 1.52487 1.87578, 0.99 " /><path d="M2.04837, 2.69827 Q2.4176, 2.4176 2.69827, 2.04837 " /><path d="M0.99, 1.87578 Q1.52487, 2.29775 2.04837, 2.69827 " /><path d="M-8.90787e-12, 1.58234 Q0.470214, 1.72391 0.99, 1.87578 " /><path d="M-0.99, 1.87578 Q-0.470214, 1.72391 9.3327e-12, 1.58234 " /><path d="M-2.04837, 2.69827 Q-1.52487, 2.29775 -0.99, 1.87578 " /><path d="M-2.69827, 2.04837 Q-2.4176, 2.4176 -2.04837, 2.69827 " /><path d="M-1.87578, 0.99 Q-2.29775, 1.52487 -2.69827, 2.04837 " /><path d="M-1.58234, -8.8658e-12 Q-1.72391, 0.470214 -1.87578, 0.99 " /><path d="M-1.87578, -0.99 Q-1.72391, -0.470214 -1.58234, 9.33109e-12 " /><path d="M-2.69827, -2.04837 Q-2.29775, -1.52487 -1.87578, -0.99 " /><path d="M-2.04837, -2.69827 Q-2.4176, -2.4176 -2.69827, -2.04837 " /><path d="M-0.99, -1.87578 Q-1.52487, -2.29775 -2.04837, -2.69827 " /><path d="M8.81406e-12, -1.58234 Q-0.470213, -1.72391 -0.99, -1.87578 " /><path d="M0.99, -1.87578 Q0.470214, -1.72391 -9.32476e-12, -1.58234 " /><path d="M2.04837, -2.69827 Q1.52487, -2.29775 0.99, -1.87578 " /><path d="M2.69827, -2.04837 Q2.4176, -2.4176 2.04837, -2.69827 " /><path d="M1.87578, -0.99 Q2.29775, -1.52487 2.69827, -2.04837 " /><path id= "22" d=" M 1.87578 -0.99 L 1.53964 -0.99 " />
<path id= "23" d=" M 1.58234 0 L 1.205 0 " />
<path d="M1.53964, -0.99 C1.39439, -0.573499 1.29292, -0.273325 1.205, -1.98674e-13 " /><path d="M2.69827, -2.04837 C2.2113, -1.60904 1.86296, -1.29449 1.59068, -1.04822 " /><path d="M1.59068, -1.04822 L1.53964, -0.99 " /><path d="M1.04822, -1.59068 C1.29449, -1.86296 1.60904, -2.2113 2.04837, -2.69827 " /><path d="M1.04822 -1.59068 A1.905 1.905 0 0 1 1.59068 -1.04822" /><path id= "29" d=" M 0.99 -1.87578 L 0.99 -1.53964 " />
<path d="M0.99, -1.53964 L1.04822, -1.59068 " /><path id= "31" d=" M -3.51351e-16 -1.58234 L -2.67564e-16 -1.205 " />
<path d="M1.98508e-13, -1.205 C0.273325, -1.29292 0.573499, -1.39439 0.99, -1.53964 " /><path id= "33" d=" M -0.99 -1.87578 L -0.99 -1.53964 " />
<path d="M-0.99, -1.53964 C-0.573499, -1.39439 -0.273325, -1.29292 -1.98883e-13, -1.205 " /><path d="M-2.04837, -2.69827 C-1.60904, -2.2113 -1.29449, -1.86296 -1.04822, -1.59068 " /><path d="M-1.04822, -1.59068 L-0.99, -1.53964 " /><path d="M-1.59068, -1.04822 C-1.86296, -1.29449 -2.2113, -1.60904 -2.69827, -2.04837 " /><path d="M-1.59068 -1.04822 A1.905 1.905 0 0 1 -1.04822 -1.59068" /><path id= "39" d=" M -1.87578 -0.99 L -1.53964 -0.99 " />
<path d="M-1.53964, -0.99 L-1.59068, -1.04822 " /><path id= "41" d=" M -1.58234 1.93781e-16 L -1.205 1.4757e-16 " />
<path d="M-1.205, -1.98508e-13 C-1.29292, -0.273325 -1.39439, -0.573499 -1.53964, -0.99 " /><path id= "43" d=" M -1.87578 0.99 L -1.53964 0.99 " />
<path d="M-1.53964, 0.99 C-1.39439, 0.573499 -1.29292, 0.273325 -1.205, 1.98674e-13 " /><path d="M-2.69827, 2.04837 C-2.2113, 1.60904 -1.86296, 1.29449 -1.59068, 1.04822 " /><path d="M-1.59068, 1.04822 L-1.53964, 0.99 " /><path d="M-1.04822, 1.59068 C-1.29449, 1.86296 -1.60904, 2.2113 -2.04837, 2.69827 " /><path d="M-1.04822 1.59068 A1.905 1.905 0 0 1 -1.59068 1.04822" /><path id= "49" d=" M -0.99 1.87578 L -0.99 1.53964 " />
<path d="M-0.99, 1.53964 L-1.04822, 1.59068 " /><path id= "51" d=" M 1.75675e-16 1.58234 L 1.33782e-16 1.205 " />
<path d="M-1.98508e-13, 1.205 C-0.273325, 1.29292 -0.573499, 1.39439 -0.99, 1.53964 " /><path id= "53" d=" M 0.99 1.87578 L 0.99 1.53964 " />
<path d="M0.99, 1.53964 C0.573499, 1.39439 0.273325, 1.29292 1.98674e-13, 1.205 " /><path d="M2.04837, 2.69827 C1.60904, 2.2113 1.29449, 1.86296 1.04822, 1.59068 " /><path d="M1.04822, 1.59068 L0.99, 1.53964 " /><path d="M1.59068, 1.04822 C1.86296, 1.29449 2.2113, 1.60904 2.69827, 2.04837 " /><path d="M1.59068 1.04822 A1.905 1.905 0 0 1 1.04822 1.59068" /><path id= "59" d=" M 1.87578 0.99 L 1.53964 0.99 " />
<path d="M1.53964, 0.99 L1.59068, 1.04822 " /><path d="M1.205, 1.98508e-13 C1.29292, 0.273325 1.39439, 0.573499 1.53964, 0.99 " /></g>

</svg>
