<svg xmlns="http://www.w3.org/2000/svg" viewBox="-38.915856000000005 -27.047656 46.400812 35.948642">
<rect width="100%" height="100%" fill="white"/>
<g   fill="none"
   stroke="rgb(0, 0, 0)"
   stroke-linecap="butt"
   stroke-linejoin="miter"
   stroke-width="0.35"
   transform="scale(1, -1)"
  >
<path d="M-29.5261, 19.1025 Q-29.5339, 18.9663 -29.5555, 18.825 " /><path d="M-33.5048 15.9564 A3.175 1.83309 60 0 1 -29.1858 19.4428" />
<path d="M-31.5196, 15.9297 C-31.8613, 15.7083 -32.2195, 15.5828 -32.5459, 15.5707  C-32.9253, 15.5552 -33.2605, 15.6918 -33.5048, 15.9564 " /><path d="M-31.5196 15.9297 A2.48759 1.43621 60 0 1 -29.5555 18.825" />
<path d="M-29.625, 19.906 C-30.0534, 19.9898 -30.5823, 19.8245 -31.0712, 19.4637  C-31.4552, 19.1829 -31.8122, 18.7865 -32.0823, 18.3498  C-32.4048, 17.8321 -32.6009, 17.2615 -32.63, 16.7867  C-32.6589, 16.3511 -32.5493, 15.999 -32.3313, 15.8091 " /><path d="M-29.6533, 19.9793 C-30.1145, 20.1655 -30.7419, 20.0095 -31.3133, 19.5802  C-31.7188, 19.2797 -32.0923, 18.8505 -32.3647, 18.3832  C-32.6668, 17.8687 -32.8425, 17.3124 -32.8575, 16.8544  C-32.8758, 16.3816 -32.724, 16.0183 -32.45, 15.8626 " /><path d="M-32.45, 15.8626 C-32.2081, 15.7214 -31.8728, 15.7441 -31.5196, 15.9297 " /><path d="M-33.5048, 15.9564 L-33.5051, 15.957 " /><path d="M-27.502 20.415 A5.55625 3.2079 60 0 1 -28.0284 22.3794" />
<path d="M-28.0284 17.8427 A5.55625 3.2079 60 0 1 -27.502 20.415" />
<path d="M-31.4309 13.61 A5.55625 3.2079 60 0 1 -28.0284 17.8427" />
<path d="M-34.8334 13.9139 A5.55625 3.2079 60 0 1 -31.4309 13.61" />
<path d="M-34.8334 18.4505 A5.55625 3.2079 60 0 1 -34.8334 13.9139" />
<path d="M-31.4309 22.6833 A5.55625 3.2079 60 0 1 -34.8334 18.4505" />
<path d="M-28.0284 22.3794 A5.55625 3.2079 60 0 1 -31.4309 22.6833" />
<path d="M-29.1858 19.4428 A3.175 1.83309 60 0 1 -33.5048 17.9419" />
<path d="M-33.5051, 17.9412 L-33.5048, 17.9419 " /><path d="M-33.5051, 15.957 C-33.5452, 16.0176 -33.5816, 16.0957 -33.6145, 16.1913  C-33.6747, 16.3689 -33.7088, 16.5912 -33.7084, 16.8317  C-33.708, 17.0339 -33.6862, 17.2406 -33.6431, 17.4521  C-33.6134, 17.5961 -33.5775, 17.7305 -33.5354, 17.8555 " /><path d="M-33.5354, 17.8555 Q-33.5203, 17.9006 -33.5051, 17.9412 " /><path d="M-29.5261, 19.1025 C-29.4968, 19.6001 -29.6131, 20.0303 -29.8501, 20.3041  C-30.0978, 20.595 -30.4771, 20.7107 -30.9066, 20.6309  C-31.3682, 20.5483 -31.8839, 20.2406 -32.3392, 19.7828  C-32.8366, 19.2864 -33.2576, 18.6172 -33.5048, 17.9419 " /><path d="M-29.5224, 19.3015 C-30.1315, 19.0851 -30.7667, 18.5121 -31.1857, 17.8292  C-31.6133, 17.145 -31.8098, 16.3725 -31.7126, 15.8438 " /><path d="M-29.5344, 19.4949 C-29.8241, 19.4266 -30.1286, 19.2758 -30.4179, 19.0598  C-30.8193, 18.7616 -31.1893, 18.3375 -31.4604, 17.8754  C-31.7673, 17.3562 -31.9456, 16.7933 -31.9596, 16.3312  C-31.9661, 16.1279 -31.9435, 15.9482 -31.892, 15.7923 " /><path d="M-28.0284, 22.3794 C-27.6679, 21.8671 -27.2285, 21.3095 -26.6425, 20.6205 " /><path d="M-26.6425, 20.6205 C-27.2285, 19.6501 -27.6679, 18.7695 -28.0284, 17.8427 " /><path d="M-31.4309, 22.6833 C-30.7106, 23.0983 -29.9117, 23.4673 -28.9108, 23.8476 " /><path d="M-28.9108, 23.8476 C-28.6671, 23.3562 -28.3874, 22.8908 -28.0284, 22.3794 " /><path d="M-28.9108, 14.7742 C-29.9117, 14.394 -30.7106, 14.0249 -31.4309, 13.61 " /><path d="M-28.0284, 17.8427 C-28.3874, 16.9151 -28.6671, 15.9423 -28.9108, 14.7742 " /><path d="M-34.8334, 18.4505 C-34.4728, 19.3773 -34.0335, 20.2579 -33.4475, 21.2283 " /><path d="M-33.4475, 21.2283 C-32.7889, 21.8062 -32.1496, 22.2674 -31.4309, 22.6833 " /><path d="M-33.4475, 12.155 C-34.0335, 12.844 -34.4728, 13.4016 -34.8334, 13.9139 " /><path d="M-31.4309, 13.61 C-32.1496, 13.1941 -32.7889, 12.7329 -33.4475, 12.155 " /><path d="M-34.8334, 13.9139 C-35.1924, 14.4252 -35.4721, 14.8907 -35.7158, 15.382 " /><path d="M-35.7158, 15.382 C-35.4721, 16.5501 -35.1924, 17.5229 -34.8334, 18.4505 " /><path d="M-29.7503, 18.007 C-30.1486, 17.5916 -30.4733, 17.0647 -30.6569, 16.5529 " /><path d="M-29.6141, 18.4684 C-29.9803, 18.1753 -30.3147, 17.7798 -30.5649, 17.3526  C-30.7808, 16.9855 -30.9342, 16.5964 -31.0087, 16.2371 " /><path d="M4.2849, 2.76459 C4.04119, 3.25598 3.76146, 3.72141 3.40249, 4.23276 " /><path id= "38" d=" M -26.6425 20.6205 L 4.2849 2.76459 " />
<path id= "39" d=" M 2.01657 5.99163 L -28.9108 23.8476 " />
<path d="M3.40249, 4.23276 C3.04194, 4.74503 2.60259, 5.30261 2.01657, 5.99163 " /><path d="M2.01657, -3.08169 C2.60259, -2.11126 3.04194, -1.23067 3.40249, -0.303899 " /><path id= "42" d=" M 2.01657 -3.08169 L -28.9108 14.7742 " />
<path d="M3.40249, -0.303899 C3.76146, 0.623786 4.04119, 1.59653 4.2849, 2.76459 " /><path d="M-2.52009, -5.70093 C-1.51921, -5.3207 -0.720311, -4.95162 -2.46287e-09, -4.53666 " /><path id= "45" d=" M -2.52009 -5.70093 L -33.4475 12.155 " />
<path d="M-2.46287e-09, -4.53666 C0.718728, -4.12079 1.358, -3.65955 2.01657, -3.08169 " /></g>

</svg>
