<svg xmlns="http://www.w3.org/2000/svg" viewBox="-48.00600000000003 -9.971800000000028 51.56200000000042 19.943600000000057">
<rect width="100%" height="100%" fill="white"/>
<g   fill="none"
   stroke="rgb(0, 0, 0)"
   stroke-linecap="butt"
   stroke-linejoin="miter"
   stroke-width="0.35"
   transform="scale(1, -1)"
  >
<path id= "1" d=" M -44.45 -5.55625 L -44.094 -6.4158 " />
<path id= "2" d=" M 3.58722e-13 -5.55625 L -0.356039 -6.4158 " />
</g>
<g   fill="none"
   stroke="rgb(0, 0, 0)"
   stroke-linecap="butt"
   stroke-linejoin="miter"
   stroke-width="0.35"
   transform="scale(1, -1)"
  >
<path d="M-44.45, 4.81185 C-44.45, 5.05346 -44.45, 5.24045 -44.45, 5.36693  C-44.45, 5.3836 -44.45, 5.40027 -44.45, 5.41694  C-44.45, 5.44667 -44.45, 5.47241 -44.45, 5.49419  C-44.45, 5.51372 -44.45, 5.52922 -44.45, 5.54071  C-44.45, 5.54993 -44.45, 5.55511 -44.45, 5.55625 " /><path d="M-44.45, -3.48303e-09 Q-44.45, 0.41587 -44.45, 0.828116  Q-44.45, 1.23832 -44.45, 1.63773  Q-44.45, 1.83383 -44.45, 2.02993  Q-44.45, 2.22035 -44.45, 2.41077  Q-44.45, 2.59445 -44.45, 2.77812  Q-44.45, 2.95404 -44.45, 3.12995  Q-44.45, 3.29711 -44.45, 3.46427  Q-44.45, 3.62174 -44.45, 3.77921  Q-44.45, 3.92611 -44.45, 4.07302  Q-44.45, 4.20854 -44.45, 4.34405  Q-44.45, 4.46742 -44.45, 4.59079  Q-44.45, 4.70132 -44.45, 4.81185 " /><path d="M-44.45, -4.81185 Q-44.45, -4.70132 -44.45, -4.59079  Q-44.45, -4.46742 -44.45, -4.34405  Q-44.45, -4.20854 -44.45, -4.07302  Q-44.45, -3.92611 -44.45, -3.77921  Q-44.45, -3.62174 -44.45, -3.46427  Q-44.45, -3.29711 -44.45, -3.12995  Q-44.45, -2.95404 -44.45, -2.77813  Q-44.45, -2.59445 -44.45, -2.41077  Q-44.45, -2.22035 -44.45, -2.02993  Q-44.45, -1.83383 -44.45, -1.63773  Q-44.45, -1.23832 -44.45, -0.828116  Q-44.45, -0.41587 -44.45, -3.48303e-09 " /><path d="M-44.45, -5.55625 C-44.45, -5.55511 -44.45, -5.54993 -44.45, -5.54071  C-44.45, -5.52922 -44.45, -5.51372 -44.45, -5.49419  C-44.45, -5.47241 -44.45, -5.44667 -44.45, -5.41694  C-44.45, -5.40027 -44.45, -5.3836 -44.45, -5.36693  C-44.45, -5.24045 -44.45, -5.05346 -44.45, -4.81185 " /><path id= "5" d=" M -44.45 5.55625 L -44.094 6.4158 " />
<path d="M-44.094, 6.4158 C-44.336, 5.8291 -44.4489, 5.32063 -44.45, 4.81185 " /><path d="M-44.094, 3.2079 C-44.336, 2.03449 -44.4489, 1.01755 -44.45, -3.48303e-09 " /><path d="M-44.45, 4.81185 C-44.4489, 4.30308 -44.336, 3.79461 -44.094, 3.2079 " /><path d="M-44.094, -3.2079 C-44.336, -3.79461 -44.4489, -4.30308 -44.45, -4.81185 " /><path d="M-44.45, -3.48303e-09 C-44.4489, -1.01755 -44.336, -2.03449 -44.094, -3.2079 " /><path d="M-44.45, -4.81185 C-44.4489, -5.32063 -44.336, -5.8291 -44.094, -6.4158 " /><path id= "12" d=" M -44.094 6.4158 L -0.356039 6.4158 " />
<path d="M-0.356039, 3.2079 C-0.113988, 3.79461 -0.0011197, 4.30308 -1.38778e-17, 4.81185 " /><path id= "14" d=" M -0.356039 3.2079 L -44.094 3.2079 " />
<path d="M1.01167e-26, 4.81185 C-0.00111969, 5.32063 -0.113988, 5.8291 -0.356039, 6.4158 " /><path d="M-0.356039, -3.2079 C-0.113988, -2.03449 -0.0011197, -1.01755 1.38778e-17, -3.48303e-09 " /><path id= "17" d=" M -0.356039 -3.2079 L -44.094 -3.2079 " />
<path d="M6.32293e-28, -3.48303e-09 C-0.0011197, 1.01755 -0.113988, 2.03449 -0.356039, 3.2079 " /><path id= "19" d=" M -0.356039 -6.4158 L -44.094 -6.4158 " />
<path d="M-0.356039, -6.4158 C-0.113988, -5.8291 -0.0011197, -5.32063 0, -4.81185 " /><path d="M1.38778e-17, -4.81185 C-0.0011197, -4.30308 -0.113988, -3.79461 -0.356039, -3.2079 " /><path id= "22" d=" M -0.356039 6.4158 L 2.34132e-13 5.55625 " />
<path d="M0, -3.48303e-09 Q0, 0.41587 0, 0.828116  Q0, 1.23832 0, 1.63773  Q0, 1.83383 0, 2.02993  Q0, 2.22035 0, 2.41077  Q0, 2.59445 0, 2.77812  Q0, 2.95404 0, 3.12995  Q0, 3.29711 0, 3.46427  Q0, 3.62174 0, 3.77921  Q0, 3.92611 0, 4.07302  Q0, 4.20854 0, 4.34405  Q0, 4.46742 0, 4.59079  Q0, 4.70132 0, 4.81185 " /><path d="M0, 4.81185 C0, 5.05346 0, 5.24045 0, 5.36693  C0, 5.3836 0, 5.40027 0, 5.41694  C0, 5.44667 0, 5.47241 0, 5.49419  C0, 5.51372 0, 5.52922 0, 5.54071  C0, 5.54993 0, 5.55511 0, 5.55625 " /><path d="M0, -4.81185 Q0, -4.70132 0, -4.59079  Q0, -4.46742 0, -4.34405  Q0, -4.20854 0, -4.07302  Q0, -3.92611 0, -3.77921  Q0, -3.62174 0, -3.46427  Q0, -3.29711 0, -3.12995  Q0, -2.95404 0, -2.77813  Q0, -2.59445 0, -2.41077  Q0, -2.22035 0, -2.02993  Q0, -1.83383 0, -1.63773  Q0, -1.23832 0, -0.828116  Q0, -0.41587 0, -3.48303e-09 " /><path d="M0, -5.55625 C0, -5.55511 0, -5.54993 0, -5.54071  C0, -5.52922 0, -5.51372 0, -5.49419  C0, -5.47241 0, -5.44667 0, -5.41694  C0, -5.40027 0, -5.3836 0, -5.36693  C0, -5.24045 0, -5.05346 0, -4.81185 " /></g>

</svg>
