<svg xmlns="http://www.w3.org/2000/svg" viewBox="-7.442328 -6.582778 14.884656 13.165556">
<rect width="100%" height="100%" fill="white"/>
<g   fill="none"
   stroke="rgb(0, 0, 0)"
   stroke-linecap="butt"
   stroke-linejoin="miter"
   stroke-width="0.35"
   transform="scale(1, -1)"
  >
<path d="M-3.22091, 0.00843204 L-3.22091, -0.00876977 " /></g>
<g   fill="none"
   stroke="rgb(0, 0, 0)"
   stroke-linecap="butt"
   stroke-linejoin="miter"
   stroke-width="0.35"
   transform="scale(1, -1)"
  >
<path d="M2.51758, -4.996e-16 Q2.50263, -0.157374 2.46806, -0.311138 " /><path d="M-2.93292 -1.21598 A3.175 3.175 0 0 1 3.175 -7.77651e-16" /><path d="M-0.309657, -2.46824 C-0.761903, -2.52885 -1.23882, -2.45888 -1.67192, -2.27138  C-2.17538, -2.05524 -2.61789, -1.68236 -2.93292, -1.21598 " /><path d="M-0.309657 -2.46824 A2.48759 2.48759 0 0 1 2.46806 -0.311138" /><path d="M2.48759, 7.00792e-06 C2.48943, 0.593742 2.2686, 1.18458 1.87779, 1.63157  C1.57396, 1.98232 1.16974, 2.24469 0.725688, 2.37939  C0.304291, 2.50851 -0.151575, 2.52235 -0.58003, 2.41902  C-1.10932, 2.29346 -1.5935, 1.98779 -1.93448, 1.56394  C-2.31302, 1.09875 -2.51282, 0.492991 -2.48533, -0.106122  C-2.46176, -0.701941 -2.21386, -1.28521 -1.80126, -1.71569  C-1.41036, -2.12833 -0.873801, -2.39903 -0.309657, -2.46824 " /><path d="M-2.93292, -1.21598 L-2.93342, -1.21506 " /><path d="M5.55625 0 A5.55625 5.55625 0 0 1 4.81185 2.77812" /><path d="M4.81185 -2.77813 A5.55625 5.55625 0 0 1 5.55625 -1.36089e-15" /><path d="M-3.48303e-09 -5.55625 A5.55625 5.55625 0 0 1 4.81185 -2.77813" /><path d="M-4.81185 -2.77812 A5.55625 5.55625 0 0 1 -3.48303e-09 -5.55625" /><path d="M-4.81185 2.77812 A5.55625 5.55625 0 0 1 -4.81185 -2.77812" /><path d="M1.95299e-08 5.55625 A5.55625 5.55625 0 0 1 -4.81185 2.77812" /><path d="M4.81185 2.77812 A5.55625 5.55625 0 0 1 1.95299e-08 5.55625" /><path d="M3.175 0 A3.175 3.175 0 0 1 -2.933 1.21578" /><path d="M-2.9334, 1.21505 L-2.933, 1.21578 " /><path d="M-2.93342, -1.21506 C-2.98814, -1.11564 -3.04346, -0.987893 -3.08805, -0.850732  C-3.17326, -0.590671 -3.2214, -0.294382 -3.22093, -0.000118341 " /><path d="M-3.22093, -0.000118341 C-3.22114, 0.243808 -3.18867, 0.488465 -3.12858, 0.713618  C-3.07844, 0.903453 -3.00628, 1.08279 -2.9334, 1.21505 " /><path d="M2.51758, 6.70144e-06 C2.57361, 0.574125 2.42349, 1.16896 2.10224, 1.65786  C1.76654, 2.17465 1.24451, 2.57027 0.651079, 2.76222  C0.0134131, 2.97236 -0.701155, 2.94544 -1.33062, 2.6922  C-2.01838, 2.42031 -2.59839, 1.88301 -2.933, 1.21578 " /><path d="M2.48759, 6.80767e-06 C2.48943, 0.593649 2.26867, 1.1844 1.87797, 1.63137  C1.57664, 1.97928 1.17657, 2.24032 0.736754, 2.37599  C0.311137, 2.50859 -0.150292, 2.52334 -0.58351, 2.41819  C-1.10741, 2.29307 -1.58689, 1.99155 -1.92664, 1.57359  C-2.31149, 1.10553 -2.51439, 0.493005 -2.48506, -0.112245  C-2.47644, -0.301417 -2.44668, -0.487204 -2.39578, -0.669606 " /><path d="M-2.28046, -0.993786 L-2.27248, -1.0119 " /><path d="M-2.15889, -1.23585 L-2.10288, -1.32892 " /><path d="M-1.73029, -1.78724 Q-1.41268, -2.09387 -1.00945, -2.27357 " /><path d="M-0.867141, -2.33156 C-0.284234, -2.55071 0.380957, -2.53807 0.955112, -2.29693  C1.41637, -2.10614 1.81682, -1.77231 2.08752, -1.35292  C2.34761, -0.953045 2.48837, -0.477016 2.48759, -4.44089e-16 " /><path d="M4.81185, 2.77812 C5.32063, 1.8969 5.8291, 1.0162 6.4158, 1.22569e-13 " /><path d="M6.4158, -1.21902e-13 C5.8291, -1.0162 5.32063, -1.8969 4.81185, -2.77813 " /><path d="M1.95299e-08, 5.55625 C1.01755, 5.55625 2.03449, 5.55625 3.2079, 5.55625 " /><path d="M3.2079, 5.55625 C3.79461, 4.54005 4.30308, 3.65935 4.81185, 2.77812 " /><path d="M3.2079, -5.55625 C2.03449, -5.55625 1.01755, -5.55625 -3.48303e-09, -5.55625 " /><path d="M4.81185, -2.77813 C4.30308, -3.65935 3.79461, -4.54005 3.2079, -5.55625 " /><path d="M-4.81185, 2.77812 C-4.30308, 3.65935 -3.79461, 4.54005 -3.2079, 5.55625 " /><path d="M-3.2079, 5.55625 C-2.03449, 5.55625 -1.01755, 5.55625 1.95299e-08, 5.55625 " /><path d="M-3.2079, -5.55625 C-3.79461, -4.54005 -4.30308, -3.65935 -4.81185, -2.77812 " /><path d="M-3.48303e-09, -5.55625 C-1.01755, -5.55625 -2.03449, -5.55625 -3.2079, -5.55625 " /><path d="M-4.81185, -2.77812 C-5.32063, -1.8969 -5.8291, -1.0162 -6.4158, -1.7808e-13 " /><path d="M-6.4158, 6.57252e-14 C-5.8291, 1.0162 -5.32063, 1.8969 -4.81185, 2.77812 " /><path d="M-2.24739, 1.06646 C-2.44848, 0.644421 -2.52648, 0.164865 -2.46954, -0.299137 " /><path d="M-2.40213, -0.64643 Q-2.35137, -0.834978 -2.27185, -1.01331 " /><path d="M-2.10044, -1.33277 Q-2.02574, -1.45047 -1.93838, -1.5591 " /><path d="M-1.80999, -1.70648 L-1.73718, -1.78054 " /><path d="M-0.326866, -2.46602 C0.0783688, -2.52017 0.496678, -2.47198 0.87899, -2.32712 " /><path d="M1.02213, -2.2679 C1.45717, -2.07269 1.83319, -1.74893 2.09087, -1.34773  C2.34884, -0.948937 2.48836, -0.474951 2.48759, 0 " /><path d="M-0.309657, -2.46824 Q-0.136641, -2.48993 0.0377066, -2.48731 " /><path d="M-0.309657, -2.46824 C0.117847, -2.52241 0.559049, -2.46249 0.956625, -2.2963  C1.54843, -2.05243 2.0362, -1.56969 2.28621, -0.980494 " /><path d="M2.37862, -0.7282 Q2.48728, -0.372206 2.48759, 0 " /><path d="M2.46806, -0.311138 Q2.48758, -0.156182 2.48759, 0 " /><path d="M-0.309657, -2.46824 C0.12282, -2.52305 0.569303, -2.46105 0.970477, -2.29048  C1.42621, -2.09836 1.82137, -1.76629 2.08911, -1.35046  C2.34816, -0.951142 2.48834, -0.476143 2.48759, -0.00016 " /><path d="M-0.309657, -2.46824 C0.120684, -2.52278 0.564897, -2.46167 0.96453, -2.29299  C1.42362, -2.10088 1.8217, -1.76685 2.09063, -1.3481  C2.34875, -0.949236 2.48836, -0.475101 2.48759, -4.44089e-16 " /><path d="M-0.309657, -2.46824 C0.0622731, -2.51521 0.444637, -2.47638 0.799533, -2.3556 " /><path d="M0.997709, -2.27875 C1.44093, -2.08559 1.82481, -1.75956 2.08717, -1.35346  C2.34748, -0.953474 2.48838, -0.477231 2.48759, -2.10942e-15 " /><path d="M-0.309657, -2.46824 Q-0.112952, -2.4929 0.0851714, -2.48613 " /><path d="M-0.309657, -2.46824 C0.117043, -2.5223 0.557392, -2.46272 0.954383, -2.29723  C1.54509, -2.05447 2.03251, -1.57384 2.28356, -0.986642 " /><path d="M2.37862, -0.728201 Q2.48728, -0.372206 2.48759, 4.44089e-16 " /><path d="M2.48759, 8.00812e-07 C2.48945, 0.595801 2.26704, 1.18866 1.87374, 1.63622  C1.57282, 1.98184 1.17424, 2.24112 0.736319, 2.37612  C0.314054, 2.50758 -0.143435, 2.5231 -0.573638, 2.42055  C-1.10325, 2.29638 -1.58823, 1.992 -1.93033, 1.56906  C-2.31269, 1.10176 -2.51414, 0.49147 -2.48509, -0.111627  C-2.45696, -0.817999 -2.10863, -1.50314 -1.55451, -1.94206 " /><path d="M-0.327213, -2.46598 C0.105075, -2.52389 0.552213, -2.46498 0.954744, -2.29708  C1.41481, -2.10686 1.81443, -1.77438 2.08514, -1.35657  C2.34673, -0.955943 2.48838, -0.478472 2.48759, -1.77636e-15 " /><path d="M2.48759, 5.00547e-06 C2.48942, 0.592749 2.26935, 1.18262 1.87972, 1.62934  C1.57298, 1.98434 1.16346, 2.24905 0.713814, 2.38298  C0.294618, 2.50913 -0.158017, 2.52142 -0.583442, 2.4182  C-1.10727, 2.29311 -1.58671, 1.99168 -1.92646, 1.57381  C-2.31121, 1.10598 -2.51418, 0.493773 -2.4851, -0.111255  C-2.46235, -0.647098 -2.25958, -1.17313 -1.91677, -1.58559  C-1.51909, -2.0699 -0.931745, -2.39249 -0.309657, -2.46824 " /><path d="M2.46806, -0.311138 Q2.48758, -0.156182 2.48759, -8.88178e-16 " /><path d="M-0.309657, -2.46824 C0.178456, -2.53037 0.684207, -2.44264 1.12287, -2.21975 " /><path d="M1.87893, -1.63026 C2.08668, -1.39106 2.24796, -1.11173 2.35126, -0.812228 " /><path d="M2.42847, -0.539134 L2.4514, -0.422779 " /><path d="M2.47755, -0.223318 Q2.48599, -0.129626 2.48734, -0.0355679 " /><path d="M-0.309657, -2.46824 C0.122081, -2.52296 0.567779, -2.46127 0.968421, -2.29135  C1.5529, -2.04689 2.03447, -1.56912 2.28356, -0.986641 " /><path d="M2.37862, -0.728201 Q2.48728, -0.372206 2.48759, 0 " /><path d="M-0.309657, -2.46824 C0.119273, -2.52259 0.56199, -2.46208 0.960603, -2.29464  C1.54855, -2.05111 2.03338, -1.57175 2.28356, -0.98664 " /><path d="M2.37862, -0.728199 Q2.48728, -0.372206 2.48759, -1.33227e-15 " /><path d="M2.46806, -0.311138 Q2.48758, -0.156177 2.48759, -4.44089e-16 " /><path d="M-0.309657, -2.46824 C0.123136, -2.5231 0.569955, -2.46096 0.971356, -2.29011  C1.42716, -2.09775 1.8223, -1.76538 2.08989, -1.34926  C2.34848, -0.950147 2.48837, -0.475556 2.48759, 0 " /><path d="M-0.309657, -2.46824 C0.122797, -2.52305 0.569256, -2.46106 0.970413, -2.29051  C1.42614, -2.0984 1.82131, -1.76636 2.08906, -1.35054  C2.34814, -0.951207 2.48834, -0.476176 2.48759, -0.00016 " /><path d="M-0.309657, -2.46824 C0.120941, -2.52281 0.565428, -2.4616 0.965247, -2.29269  C1.47474, -2.07969 1.90806, -1.69094 2.17489, -1.20747 " /><path d="M2.28475, -0.98388 L2.31969, -0.898424 " /><path d="M2.42805, -0.541008 L2.45151, -0.422139 " /><path d="M2.47748, -0.224029 Q2.48758, -0.112319 2.48759, -0.00016 " /><path d="M2.16656, -1.22234 Q2.20332, -1.15719 2.23609, -1.08995 " /><path d="M2.38409, -0.710103 Q2.40597, -0.636624 2.42329, -0.561938 " /><path d="M2.44218, -0.473146 Q2.48752, -0.238828 2.48759, -0.00016 " /><path d="M2.48759, 2.00207e-06 C2.48946, 0.596431 2.26656, 1.18991 1.8725, 1.63764  C1.57008, 1.98446 1.16926, 2.24412 0.729127, 2.37834  C0.305028, 2.50897 -0.154182, 2.52274 -0.585345, 2.41774  C-1.07682, 2.29976 -1.52949, 2.0271 -1.86357, 1.64779 " /><path d="M-2.48226, 0.162813 Q-2.49479, -0.0286011 -2.47788, -0.219639 " /><path d="M-2.4053, -0.63453 L-2.39503, -0.672256 " /><path d="M-1.54851, -1.94685 Q-1.30591, -2.13962 -1.02357, -2.26725 " /><path d="M-0.86877, -2.33096 C-0.283169, -2.55162 0.385681, -2.53815 0.96192, -2.29408  C1.56663, -2.04343 2.06146, -1.54283 2.30508, -0.935257 " /><path d="M2.47674, -0.232091 Q2.48759, -0.116296 2.48759, -4.44089e-16 " /><path d="M-0.309657, -2.46824 C0.119012, -2.52256 0.561451, -2.46216 0.959874, -2.29494  C1.54815, -2.05151 2.03328, -1.57199 2.28356, -0.986641 " /><path d="M2.37862, -0.7282 Q2.48728, -0.372206 2.48759, -4.44089e-16 " /><path d="M2.46806, -0.311138 Q2.48758, -0.156182 2.48759, -2.22045e-15 " /><path d="M2.48759, 3.60384e-06 C2.48947, 0.597275 2.26592, 1.19157 1.87084, 1.63953  C1.56684, 1.98747 1.16371, 2.2474 0.721328, 2.38071  C0.303235, 2.50797 -0.148544, 2.52187 -0.573668, 2.42054  C-1.09854, 2.29744 -1.57963, 1.99745 -1.92114, 1.5803  C-2.30766, 1.11354 -2.51269, 0.501647 -2.48543, -0.103765  C-2.4621, -0.710697 -2.20565, -1.30465 -1.77991, -1.73783  C-1.39105, -2.13817 -0.863593, -2.40021 -0.309657, -2.46824 " /><path d="M-0.309657, -2.46824 C0.119117, -2.52257 0.561667, -2.46213 0.960167, -2.29482  C1.41958, -2.1036 1.81827, -1.77038 2.08799, -1.3522 " /><path d="M2.47631, -0.236613 Q2.48759, -0.118571 2.48759, -8.88178e-16 " /><path d="M-0.309657, -2.46824 C0.079435, -2.51742 0.479925, -2.47253 0.848472, -2.33842 " /><path d="M0.997749, -2.27873 C1.44143, -2.08537 1.82564, -1.75883 2.08802, -1.35214  C2.34779, -0.952429 2.48837, -0.476702 2.48759, -1.33227e-15 " /><path d="M-0.309657, -2.46824 C0.122316, -2.52299 0.568262, -2.4612 0.969073, -2.29107  C1.42468, -2.09933 1.81988, -1.76776 2.08786, -1.35239  C2.34773, -0.952627 2.48837, -0.476802 2.48759, 4.44089e-16 " /><path d="M2.46806, -0.311138 Q2.48758, -0.156182 2.48759, 0 " /><path d="M-0.289374, -2.4707 C0.130801, -2.52041 0.563297, -2.46013 0.953867, -2.29744  C1.54481, -2.05474 2.03244, -1.57401 2.28356, -0.986641 " /><path d="M2.37862, -0.7282 Q2.44475, -0.512057 2.47092, -0.287547 " /><path d="M-0.309657, -2.46824 C0.117842, -2.5224 0.559038, -2.46249 0.956611, -2.2963  C1.41685, -2.10558 1.81643, -1.77243 2.08681, -1.354  C2.26877, -1.07391 2.39331, -0.756757 2.45055, -0.427697 " /><path d="M2.47779, -0.22066 Q2.48758, -0.110624 2.48759, -0.00016 " /></g>

</svg>
