<svg xmlns="http://www.w3.org/2000/svg" viewBox="-2.5522044 -3.2420444 19.3324788 14.6490188">
<rect width="100%" height="100%" fill="white"/>
<g   fill="none"
   stroke="rgb(0, 0, 0)"
   stroke-linecap="butt"
   stroke-linejoin="miter"
   stroke-width="0.35"
   transform="scale(1, -1)"
  >
<path id= "1" d=" M -1.21893 -1.24137 L -0.567465 -2.83465 " />
<path id= "2" d=" M 0.46559 1.67631 L 2.17115 1.90877 " />
<path id= "3" d=" M -0.0857864 -3.41457 L 11.2279 -9.94655 " />
<path id= "4" d=" M 2.91421 1.78158 L 14.2279 -4.75039 " />
<path id= "5" d=" M 15.3611 -6.9236 L 14.7096 -5.33031 " />
<path id= "6" d=" M 13.6765 -9.84127 L 11.971 -10.0737 " />
</g>
<g   fill="none"
   stroke="rgb(0, 0, 0)"
   stroke-linecap="butt"
   stroke-linejoin="miter"
   stroke-width="0.35"
   transform="scale(1, -1)"
  >
<path d="M1.30482 0.75334 A1.8453 1.06538 60 0 1 0.46559 1.67631" />
<path d="M0.46559 1.67631 A1.8453 1.06538 60 0 1 -1.21893 -1.24137" />
<path d="M-1.21893 -1.24137 A1.8453 1.06538 60 0 1 1.30482 0.75334" />
<path d="M3.53553 0.408248 A3 1.73205 60 0 1 2.91421 1.78158" />
<path d="M2.91421 1.78158 A3 1.73205 60 0 1 2.17115 1.90877" />
<path d="M-0.567465 -2.83465 A3 1.73205 60 0 1 -0.0857864 -3.41457" />
<path d="M-0.0857864 -3.41457 A3 1.73205 60 0 1 3.53553 0.408248" />
<path d="M14.8492 -6.12372 A3 1.73205 60 0 1 14.7096 -5.33031" />
<path d="M14.7096 -5.33031 A3 1.73205 60 0 1 14.2279 -4.75039" />
<path d="M11.2279 -9.94655 A3 1.73205 60 0 1 11.971 -10.0737" />
<path d="M11.971 -10.0737 A3 1.73205 60 0 1 14.8492 -6.12372" />
<path d="M15.447 -7.41163 A1.8453 1.06538 60 0 1 15.3611 -6.9236" />
<path d="M13.6765 -9.84127 A1.8453 1.06538 60 0 1 15.447 -7.41163" />
</g>

</svg>
