<svg xmlns="http://www.w3.org/2000/svg" viewBox="-1.6 -4.6 23.2 9.2">
<rect width="100%" height="100%" fill="white"/>
<g   fill="none"
   stroke="rgb(0, 0, 0)"
   stroke-linecap="butt"
   stroke-linejoin="miter"
   stroke-width="0.35"
   transform="scale(1, -1)"
  >
<path id= "1" d=" M 3.29446e-16 -1.8453 L 2 -3 " />
<path id= "2" d=" M 2 -3 L 18 -3 " />
<path id= "3" d=" M 20 -1.8453 L 18 -3 " />
</g>
<g   fill="none"
   stroke="rgb(0, 0, 0)"
   stroke-linecap="butt"
   stroke-linejoin="miter"
   stroke-width="0.35"
   transform="scale(1, -1)"
  >
<path d="M0, -1.8453 L0, -1.79903  L0, -1.66256  L0, -1.44271  L0, -1.15053  L0, -0.800645  L0, -0.410618  L0, -3.33067e-16  L0, 0.410618  L0, 0.800645  L0, 1.15053  L0, 1.44271  L0, 1.66256  L0, 1.79903  L0, 1.8453 " /><path id= "2" d=" M 0 1.8453 L 2 3 " />
<path d="M2, -3 L2, -2.92478  L2, -2.70291  L2, -2.34549  L2, -1.87047  L2, -1.30165  L2, -0.667563  L2, -5.55112e-16  L2, 0.667563  L2, 1.30165  L2, 1.87047  L2, 2.34549  L2, 2.70291  L2, 2.92478  L2, 3 " /><path id= "4" d=" M 2 3 L 18 3 " />
<path d="M18, -3 L18, -2.92478  L18, -2.70291  L18, -2.34549  L18, -1.87047  L18, -1.30165  L18, -0.667563  L18, -5.55112e-16  L18, 0.667563  L18, 1.30165  L18, 1.87047  L18, 2.34549  L18, 2.70291  L18, 2.92478  L18, 3 " /><path id= "6" d=" M 18 3 L 20 1.8453 " />
<path d="M20, -1.8453 L20, -1.79903  L20, -1.66256  L20, -1.44271  L20, -1.15053  L20, -0.800645  L20, -0.410618  L20, -3.33067e-16  L20, 0.410618  L20, 0.800645  L20, 1.15053  L20, 1.44271  L20, 1.66256  L20, 1.79903  L20, 1.8453 " /></g>

</svg>
