<svg xmlns="http://www.w3.org/2000/svg" viewBox="-7.136338800000001 -10.070118800000001 15.0717776 19.4869676">
<rect width="100%" height="100%" fill="white"/>
<g   fill="none"
   stroke="rgb(0, 0, 0)"
   stroke-linecap="butt"
   stroke-linejoin="miter"
   stroke-width="0.35"
   transform="scale(1, -1)"
  >
<path id= "1" d=" M -5.79241 -7.41964 L -4.6609 -8.07292 " />
<path id= "2" d=" M 3.52939 8.72619 L 4.6609 8.07292 " />
</g>
<g   fill="none"
   stroke="rgb(0, 0, 0)"
   stroke-linecap="butt"
   stroke-linejoin="miter"
   stroke-width="0.35"
   transform="scale(1, -1)"
  >
<path d="M1.39194 2.11019 A3.5687 2.06039 60 0 1 0.652838 3.74386" />
<path d="M0.652838 3.74386 A3.5687 2.06039 60 0 1 -2.91586 -2.43731" />
<path d="M-2.91586 -2.43731 A3.5687 2.06039 60 0 1 1.39194 2.11019" />
<path d="M5.46 4.45889 A9.3218 5.38194 60 0 1 3.52939 8.72619" />
<path d="M3.52939 8.72619 A9.3218 5.38194 60 0 1 -5.79241 -7.41964" />
<path d="M-5.79241 -7.41964 A9.3218 5.38194 60 0 1 5.46 4.45889" />
<path d="M6.59151 3.80561 A9.3218 5.38194 60 0 1 4.6609 8.07292" />
<path d="M-4.6609 -8.07292 A9.3218 5.38194 60 0 1 6.59151 3.80561" />
<path d="M1.12653 3.25776 A3.5687 2.06039 60 0 1 -2.25804 -2.60448" />
</g>

</svg>
