<svg xmlns="http://www.w3.org/2000/svg" viewBox="-3.091688 -10.813288 4.583176 21.626576">
<rect width="100%" height="100%" fill="white"/>
<g   fill="none"
   stroke="rgb(0, 0, 0)"
   stroke-linecap="butt"
   stroke-linejoin="miter"
   stroke-width="0.35"
   transform="scale(1, -1)"
  >
<path id= "1" d=" M -1.6002 -9.3218 L 0 -9.3218 " />
</g>
<g   fill="none"
   stroke="rgb(0, 0, 0)"
   stroke-linecap="butt"
   stroke-linejoin="miter"
   stroke-width="0.35"
   transform="scale(1, -1)"
  >
<path d="M-1.6002, -9.3218 L-1.6002, -9.08808  L-1.6002, -8.39865  L-1.6002, -7.28808  L-1.6002, -5.81205  L-1.6002, -4.04458  L-1.6002, -2.0743  L-1.6002, -1.77636e-15  L-1.6002, 2.0743  L-1.6002, 4.04458  L-1.6002, 5.81205  L-1.6002, 7.28808  L-1.6002, 8.39865  L-1.6002, 9.08808  L-1.6002, 9.3218 " /><path id= "2" d=" M -1.6002 9.3218 L 0 9.3218 " />
<path d="M0, -9.3218 L0, -9.08808  L0, -8.39865  L0, -7.28808  L0, -5.81205  L0, -4.04458  L0, -2.0743  L0, -1.77636e-15  L0, 2.0743  L0, 4.04458  L0, 5.81205  L0, 7.28808  L0, 8.39865  L0, 9.08808  L0, 9.3218 " /></g>

</svg>
