<svg xmlns="http://www.w3.org/2000/svg" viewBox="-11.9158304 -11.008170400000001 19.3289408 18.4536608">
<rect width="100%" height="100%" fill="white"/>
<g   fill="none"
   stroke="rgb(0, 0, 0)"
   stroke-linecap="butt"
   stroke-linejoin="miter"
   stroke-width="0.35"
   transform="scale(1, -1)"
  >
<path d="M6.08008, 3.65382 C6.08507, 1.7737 5.43514, -0.429299 4.31353, -2.3902  C3.72721, -3.42026 3.0167, -4.38106 2.23712, -5.19738  C1.45772, -6.0145 0.609253, -6.68715 -0.248195, -7.16257  C-1.20308, -7.69284 -2.17133, -7.97982 -3.07394, -7.97751  C-3.73537, -7.9768 -4.36138, -7.81782 -4.90146, -7.50471  C-5.25918, -7.29711 -5.57345, -7.02973 -5.84425, -6.70257  C-6.23643, -6.22909 -6.52508, -5.64247 -6.70428, -4.97766  C-6.75196, -4.8008 -6.79203, -4.61866 -6.82449, -4.43123 " /><path d="M0.425284, 8.12582 C0.774068, 8.25406 1.11903, 8.34659 1.46018, 8.40341  C1.96356, 8.4873 2.44713, 8.4887 2.91088, 8.40762  C3.32837, 8.33357 3.7155, 8.19214 4.07229, 7.98333  C4.72225, 7.60352 5.2345, 7.00461 5.57292, 6.26055  C5.91294, 5.51608 6.07912, 4.62645 6.08008, 3.65382 " /><path id= "3" d=" M -10.5828 -1.02027 L -8.4898 -2.22869 " />
<path id= "4" d=" M -4.40783 9.67514 L -2.3148 8.46672 " />
<path d="M-4.40783, 9.67514 C-4.81871, 9.91304 -5.29964, 10.0244 -5.80581, 10.0061  C-5.98885, 9.9997 -6.17465, 9.97715 -6.36319, 9.93849  C-6.83399, 9.84218 -7.3173, 9.647 -7.79348, 9.36593  C-8.90578, 8.71344 -9.97838, 7.57466 -10.7492, 6.24437  C-11.5419, 4.88703 -12.006, 3.35089 -12.0081, 2.03604  C-12.0117, 1.27548 -11.8662, 0.585547 -11.5702, 0.0281729  C-11.3328, -0.420792 -10.9953, -0.782818 -10.5828, -1.02027 " /></g>
<g   fill="none"
   stroke="rgb(0, 0, 0)"
   stroke-linecap="butt"
   stroke-linejoin="miter"
   stroke-width="0.35"
   transform="scale(1, -1)"
  >
<path d="M4.04832, 3.79096 L3.73305, 3.32828  L3.44289, 2.87292  L3.17605, 2.42207  L2.93089, 1.97296  L2.7059, 1.52282  L2.4997, 1.06887  L2.311, 0.608324  L2.13865, 0.138336  L1.98159, -0.343987  L1.83885, -0.841617  L1.70955, -1.35762  L1.59289, -1.89517  L1.48816, -2.45759  L1.39471, -3.04833 " /><path d="M1.39471, -3.04833 L0.875076, -3.22028  L0.387469, -3.39474  L-0.0711155, -3.5728  L-0.503504, -3.75555  L-0.91236, -3.94411  L-1.3002, -4.13966  L-1.66942, -4.34339  L-2.02229, -4.55656  L-2.36099, -4.78048  L-2.68759, -5.01653  L-3.00412, -5.26617  L-3.31253, -5.53093  L-3.61471, -5.81245  L-3.91252, -6.11246 " /><path d="M1.39471, 7.56612 L1.48816, 7.33942  L1.59289, 7.11205  L1.70955, 6.88262  L1.83885, 6.6497  L1.98159, 6.41187  L2.13865, 6.16765  L2.311, 5.91555  L2.4997, 5.65401  L2.7059, 5.38142  L2.93089, 5.0961  L3.17605, 4.7963  L3.44289, 4.48015  L3.73305, 4.14573  L4.04832, 3.79096 " /><path id= "4" d=" M 4.04832 3.79096 L 0.845775 5.63995 " />
<path d="M-1.80784, 9.41511 L-1.79558, 9.23529  L-1.75872, 9.0471  L-1.69703, 8.84941  L-1.61013, 8.64097  L-1.4975, 8.42052  L-1.35843, 8.18669  L-1.19207, 7.93805  L-0.997384, 7.67305  L-0.773187, 7.39008  L-0.518091, 7.08738  L-0.230525, 6.76308  L0.0912822, 6.41521  L0.449314, 6.04159  L0.845775, 5.63995 " /><path id= "6" d=" M 1.39471 7.56612 L -1.80784 9.41511 " />
<path d="M-3.33008, 9.0529 Q-2.6493, 9.25312 -1.80784, 9.41511 " /><path d="M-7.11507, -4.26347 L-7.34037, -4.03656  L-7.55348, -3.81865  L-7.75479, -3.60932  L-7.94468, -3.40817  L-8.12353, -3.21482  L-8.29167, -3.0289  L-8.44942, -2.85005  L-8.59708, -2.67794  L-8.73493, -2.51224  L-8.86324, -2.35264  L-8.98224, -2.19882  L-9.09217, -2.05049  L-9.19323, -1.90739  L-9.28562, -1.76922 " /><path id= "9" d=" M -3.91252 -6.11246 L -7.11507 -4.26347 " />
<path d="M-1.80784, -1.19934 L-2.40866, -1.32441  L-2.96414, -1.45969  L-3.47769, -1.60601  L-3.95249, -1.76427  L-4.39145, -1.93546  L-4.79728, -2.12062  L-5.17249, -2.32089  L-5.51937, -2.53752  L-5.84008, -2.77182  L-6.13658, -3.02526  L-6.4107, -3.29938  L-6.66414, -3.59588  L-6.89844, -3.91659  L-7.11507, -4.26347 " /><path id= "11" d=" M 1.39471 -3.04833 L -1.80784 -1.19934 " />
<path d="M0.845775, 5.63995 L0.449314, 5.22415  L0.0912822, 4.80797  L-0.230525, 4.38886  L-0.518091, 3.96424  L-0.773187, 3.53147  L-0.997384, 3.08791  L-1.19207, 2.63082  L-1.35843, 2.15738  L-1.4975, 1.66467  L-1.61013, 1.14966  L-1.69703, 0.609171  L-1.75872, 0.0398804  L-1.79558, -0.561722  L-1.80784, -1.19934 " /><path d="M-1.03591 5.63995 A6.175 3.56514 60 0 1 -2.3148 8.46672" />
<path d="M-8.4898 -2.22869 A6.175 3.56514 60 0 1 -1.03591 5.63995" />
<path d="M-4.87904 6.2462 A4.2 2.42487 60 0 1 -5.74889 8.16886" />
<path d="M-5.74889 8.16886 A4.2 2.42487 60 0 1 -9.94889 0.894249" />
<path d="M-9.94889 0.894249 A4.2 2.42487 60 0 1 -4.87904 6.2462" />
<path d="M-5.57956 8.05389 A4.2 2.42487 60 0 1 -9.76465 0.805097" />
<path d="M-9.91099, 3.37397 C-9.8564, 4.28253 -9.42476, 5.36065 -8.78735, 6.21443  C-8.2698, 6.91552 -7.62582, 7.46413 -7.00425, 7.74262  C-6.66069, 7.89792 -6.32425, 7.97334 -6.01748, 7.96539 " /><path d="M-9.91099 3.37397 A3.45873 1.9969 60 0 1 -9.2247 1.33208" />
<path d="M-9.2247 1.33208 A3.45873 1.9969 60 0 1 -7.8777 1.31736" />
<path d="M-6.84754, 1.8812 C-7.18825, 1.61172 -7.54173, 1.41756 -7.8777, 1.31736 " /><path d="M-6.01748, 7.96539 C-5.86705, 7.9619 -5.69247, 7.92311 -5.53813, 7.84879  C-5.45011, 7.80695 -5.3673, 7.75449 -5.28969, 7.69139 " /><path d="M-5.28969, 7.69139 Q-5.24292, 7.65328 -5.19928, 7.61032 " /><path d="M-5.02616, 5.0953 C-5.57286, 4.68473 -6.08107, 4.09187 -6.45344, 3.43889  C-6.77903, 2.871 -7.00108, 2.26078 -7.08851, 1.70461 " /><path d="M-5.1124, 4.77898 C-5.53806, 4.40623 -5.92824, 3.92842 -6.23421, 3.40987  C-6.52935, 2.91122 -6.74596, 2.37617 -6.85986, 1.87151 " /><path d="M-4.88228, 6.40447 C-5.01936, 6.75146 -5.23821, 7.01859 -5.51846, 7.17988 " /><path d="M-5.51846, 7.17988 C-5.81841, 7.35372 -6.18857, 7.40522 -6.58829, 7.32967  C-7.0019, 7.25256 -7.44631, 7.03924 -7.86893, 6.71742  C-8.40999, 6.30753 -8.91234, 5.71958 -9.28142, 5.07266  C-9.60012, 4.5169 -9.81982, 3.92055 -9.91099, 3.37397 " /><path d="M-5.43206, 7.12541 C-5.69458, 7.25112 -6.00375, 7.2903 -6.33548, 7.24045  C-6.76975, 7.17623 -7.24221, 6.95773 -7.6903, 6.61678  C-8.21195, 6.2219 -8.69799, 5.66173 -9.06304, 5.04218  C-9.50553, 4.29669 -9.76584, 3.47087 -9.78325, 2.78501  C-9.80499, 2.09796 -9.58493, 1.55853 -9.18776, 1.31165 " /><path d="M-4.88741, 5.98403 C-5.17606, 5.87275 -5.46281, 5.70895 -5.74768, 5.49263  C-6.28888, 5.08261 -6.79135, 4.49445 -7.16045, 3.84732  C-7.65085, 2.99589 -7.89741, 2.05197 -7.82944, 1.33238 " /><path d="M-4.90274, 5.80014 C-5.6585, 5.45116 -6.42432, 4.69971 -6.94142, 3.81795  C-7.4212, 3.01078 -7.68496, 2.10989 -7.66209, 1.39355 " /><path d="M-5.19703, 6.9201 C-5.76884, 7.04956 -6.49186, 6.82183 -7.16185, 6.30916  C-7.70296, 5.89922 -8.20535, 5.3112 -8.57443, 4.6642  C-8.99593, 3.93088 -9.24037, 3.1277 -9.25339, 2.46001  C-9.26616, 1.92817 -9.13538, 1.48389 -8.88586, 1.20144 " /><path d="M-5.12697, 6.83734 C-5.67961, 6.91949 -6.35481, 6.68829 -6.98315, 6.20857  C-7.50477, 5.81372 -7.99079, 5.25361 -8.35583, 4.63411  C-8.79829, 3.88873 -9.05863, 3.06302 -9.07613, 2.37719  C-9.09079, 1.88651 -8.98465, 1.46826 -8.77518, 1.18202 " /><path d="M-4.94342, 6.54288 C-5.41923, 6.51177 -5.95231, 6.28395 -6.45476, 5.9009  C-6.99593, 5.49091 -7.49836, 4.90281 -7.86745, 4.25574  C-8.16546, 3.73578 -8.3772, 3.18029 -8.47756, 2.66333  C-8.58984, 2.09135 -8.56492, 1.56862 -8.4101, 1.18023 " /><path d="M-4.89183, 6.42813 C-5.3341, 6.36948 -5.81779, 6.14903 -6.276, 5.80035  C-6.79759, 5.40554 -7.28358, 4.84548 -7.64862, 4.22603  C-8.09105, 3.48076 -8.35142, 2.65516 -8.36902, 1.96937  C-8.37694, 1.68294 -8.34602, 1.4266 -8.27625, 1.20035 " /></g>

</svg>
