<svg xmlns="http://www.w3.org/2000/svg" viewBox="-12.484 -10.034 13.868 20.068">
<rect width="100%" height="100%" fill="white"/>
<g   fill="none"
   stroke="rgb(0, 0, 0)"
   stroke-linecap="butt"
   stroke-linejoin="miter"
   stroke-width="0.35"
   transform="scale(1, -1)"
  >
<path d="M-1.11962, -8.65 C-0.987434, -8.88863 -0.681119, -9.00852 -0.422075, -8.92301  C-0.176188, -8.85074 0.00389894, -8.60626 0, -8.35 " /><path id= "2" d=" M -1.78036 -7.50555 L -1.11962 -8.65 " />
<path id= "3" d=" M -7.64 -6.175 L -6.30945 -7.50555 " />
<path id= "4" d=" M -10.6 -6.175 L -7.64 -6.175 " />
<path d="M-10.6, -6.175 C-10.6939, -6.17451 -10.781, -6.14995 -10.8612, -6.10132  C-11.0077, -6.01329 -11.1014, -5.84584 -11.1, -5.675 " /></g>
<g   fill="none"
   stroke="rgb(0, 0, 0)"
   stroke-linecap="butt"
   stroke-linejoin="miter"
   stroke-width="0.35"
   transform="scale(1, -1)"
  >
<path d="M-5.55112e-17, -8.35 L-5.55112e-17, -8.14065  L-5.55112e-17, -7.52309  L-5.55112e-17, -6.52829  L-5.55112e-17, -5.20614  L-5.55112e-17, -3.62293  L-5.55112e-17, -1.85805  L-5.55112e-17, -1.55431e-15  L-5.55112e-17, 1.85805  L-5.55112e-17, 3.62293  L-5.55112e-17, 5.20614  L-5.55112e-17, 6.52829  L-5.55112e-17, 7.52309  L-5.55112e-17, 8.14065  L-5.55112e-17, 8.35 " /><path d="M0 8.35 A0.6 0.6 0 0 1 -1.11962 8.65" /><path id= "3" d=" M -1.11962 8.65 L -1.78036 7.50555 " />
<path d="M-1.78036, 7.50555 L-1.93721, 7.21654  L-2.06833, 6.93731  L-2.17452, 6.66614  L-2.25645, 6.40136  L-2.3146, 6.14133  L-2.34936, 5.88446  L-2.36092, 5.62917  L-2.34936, 5.37387  L-2.3146, 5.117  L-2.25645, 4.85697  L-2.17452, 4.59219  L-2.06833, 4.32102  L-1.93721, 4.04179  L-1.78036, 3.75278 " /><path d="M-1.78036, 3.75278 L-1.93721, 3.17475  L-2.06833, 2.61629  L-2.17452, 2.07395  L-2.25645, 1.54438  L-2.3146, 1.02433  L-2.34936, 0.510594  L-2.36092, -1.11022e-16  L-2.34936, -0.510594  L-2.3146, -1.02433  L-2.25645, -1.54438  L-2.17452, -2.07395  L-2.06833, -2.61629  L-1.93721, -3.17475  L-1.78036, -3.75278 " /><path d="M-1.78036, -3.75278 L-1.93721, -4.04179  L-2.06833, -4.32102  L-2.17452, -4.59219  L-2.25645, -4.85697  L-2.3146, -5.117  L-2.34936, -5.37387  L-2.36092, -5.62917  L-2.34936, -5.88446  L-2.3146, -6.14133  L-2.25645, -6.40136  L-2.17452, -6.66614  L-2.06833, -6.93731  L-1.93721, -7.21654  L-1.78036, -7.50555 " /><path id= "7" d=" M -1.78036 7.50555 L -6.30945 7.50555 " />
<path id= "8" d=" M -1.78036 -7.50555 L -6.30945 -7.50555 " />
<path d="M-6.30945, -3.75278 L-6.58112, -4.04179  L-6.80822, -4.32102  L-6.99215, -4.59219  L-7.13405, -4.85697  L-7.23478, -5.117  L-7.29498, -5.37387  L-7.315, -5.62917  L-7.29498, -5.88446  L-7.23478, -6.14133  L-7.13405, -6.40136  L-6.99215, -6.66614  L-6.80822, -6.93731  L-6.58112, -7.21654  L-6.30945, -7.50555 " /><path id= "10" d=" M -1.78036 -3.75278 L -6.30945 -3.75278 " />
<path d="M-6.30945, 3.75278 L-6.58112, 3.17475  L-6.80822, 2.61629  L-6.99215, 2.07395  L-7.13405, 1.54438  L-7.23478, 1.02433  L-7.29498, 0.510594  L-7.315, -1.11022e-15  L-7.29498, -0.510594  L-7.23478, -1.02433  L-7.13405, -1.54438  L-6.99215, -2.07395  L-6.80822, -2.61629  L-6.58112, -3.17475  L-6.30945, -3.75278 " /><path id= "12" d=" M -1.78036 3.75278 L -6.30945 3.75278 " />
<path d="M-6.30945, 7.50555 L-6.58112, 7.21654  L-6.80822, 6.93731  L-6.99215, 6.66614  L-7.13405, 6.40136  L-7.23478, 6.14133  L-7.29498, 5.88446  L-7.315, 5.62917  L-7.29498, 5.37387  L-7.23478, 5.117  L-7.13405, 4.85697  L-6.99215, 4.59219  L-6.80822, 4.32102  L-6.58112, 4.04179  L-6.30945, 3.75278 " /><path id= "14" d=" M -7.64 6.175 L -6.30945 7.50555 " />
<path d="M-7.64, -6.175 L-7.64, -6.02018  L-7.64, -5.56348  L-7.64, -4.82781  L-7.64, -3.85005  L-7.64, -2.67923  L-7.64, -1.37407  L-7.64, -1.11022e-15  L-7.64, 1.37407  L-7.64, 2.67923  L-7.64, 3.85005  L-7.64, 4.82781  L-7.64, 5.56348  L-7.64, 6.02018  L-7.64, 6.175 " /><path id= "16" d=" M -10.6 6.175 L -7.64 6.175 " />
<path d="M-11.1 5.675 A0.5 0.5 0 0 0 -10.6 6.175" /><path d="M-11.1, -5.675 L-11.1, -5.53272  L-11.1, -5.113  L-11.1, -4.43689  L-11.1, -3.5383  L-11.1, -2.46229  L-11.1, -1.26281  L-11.1, -1.11022e-15  L-11.1, 1.26281  L-11.1, 2.46229  L-11.1, 3.5383  L-11.1, 4.43689  L-11.1, 5.113  L-11.1, 5.53272  L-11.1, 5.675 " /></g>

</svg>
