<svg xmlns="http://www.w3.org/2000/svg" viewBox="-8.821994 -7.816444 19.088438 15.632888">
<rect width="100%" height="100%" fill="white"/>
<g   fill="none"
   stroke="rgb(0, 0, 0)"
   stroke-linecap="butt"
   stroke-linejoin="miter"
   stroke-width="0.35"
   transform="scale(1, -1)"
  >
<path d="M8.95, -2.22045e-16 C8.95056, -1.12464 8.73601, -2.24926 8.3215, -3.29472  C7.908, -4.34057 7.29455, -5.30725 6.52427, -6.1267  C5.91804, -6.77617 5.19806, -7.34266 4.40922, -7.78829  C3.62029, -8.2347 2.76243, -8.56082 1.87808, -8.75061  C0.108657, -9.13413 -1.76394, -8.95998 -3.42497, -8.26861  C-5.08837, -7.58296 -6.53564, -6.38197 -7.51562, -4.85961  C-8.00675, -4.10008 -8.38274, -3.26288 -8.62494, -2.38936  C-8.86763, -1.51646 -8.97616, -0.606788 -8.94558, 0.281126  C-8.90411, 1.63938 -8.54657, 2.98762 -7.90972, 4.18798  C-7.27489, 5.38941 -6.36075, 6.44295 -5.26068, 7.2407  C-4.31331, 7.92982 -3.22859, 8.42986 -2.08934, 8.70272  C-0.950379, 8.97681 0.243119, 9.02372 1.40009, 8.83981  C2.51097, 8.66443 3.58818, 8.27659 4.55592, 7.70365  C5.52421, 7.13163 6.38303, 6.3745 7.07192, 5.48554  C8.28285, 3.93218 8.95483, 1.96959 8.95, -4.44089e-16 " /></g>
<g   fill="none"
   stroke="rgb(0, 0, 0)"
   stroke-linecap="butt"
   stroke-linejoin="miter"
   stroke-width="0.35"
   transform="scale(1, -1)"
  >
<path d="M7.50555, -7.1676e-13 Q7.36105, -0.250291 7.21654, -0.500582  Q7.07693, -0.742403 6.93731, -0.984224  Q6.80173, -1.21907 6.66614, -1.45391  Q6.53375, -1.68322 6.40136, -1.91252  Q6.27134, -2.13771 6.14133, -2.3629  Q5.88402, -2.80858 5.62917, -3.25  Q5.50152, -3.47109 5.37387, -3.69219  Q5.11788, -4.13557 4.85697, -4.58748  Q4.72458, -4.81678 4.59219, -5.04609  Q4.4566, -5.28093 4.32102, -5.51578  Q4.1814, -5.7576 4.04179, -5.99942  Q3.89728, -6.24971 3.75278, -6.5 " /><path d="M3.75278, -6.5 Q3.46377, -6.5 3.17475, -6.5  Q2.89552, -6.5 2.61629, -6.5  Q2.34512, -6.5 2.07395, -6.5  Q1.80917, -6.5 1.54438, -6.5  Q1.02256, -6.5 0.510594, -6.5  Q0.255297, -6.5 0, -6.5  Q-0.509712, -6.5 -1.02433, -6.5  Q-1.28436, -6.5 -1.54438, -6.5  Q-1.80917, -6.5 -2.07395, -6.5  Q-2.34512, -6.5 -2.61629, -6.5  Q-2.89552, -6.5 -3.17475, -6.5  Q-3.46377, -6.5 -3.75278, -6.5 " /><path d="M-3.75278, -6.5 Q-3.89728, -6.24971 -4.04179, -5.99942  Q-4.1814, -5.7576 -4.32102, -5.51578  Q-4.4566, -5.28093 -4.59219, -5.04609  Q-4.72458, -4.81678 -4.85697, -4.58748  Q-4.98699, -4.36229 -5.117, -4.1371  Q-5.37431, -3.69142 -5.62917, -3.25  Q-5.88402, -2.80858 -6.14133, -2.3629  Q-6.27134, -2.13771 -6.40136, -1.91252  Q-6.53375, -1.68322 -6.66614, -1.45391  Q-6.80173, -1.21907 -6.93731, -0.984224  Q-7.07693, -0.742403 -7.21654, -0.500582  Q-7.36105, -0.250291 -7.50555, -7.14984e-13 " /><path d="M-7.50555, 7.18536e-13 Q-7.36105, 0.250291 -7.21654, 0.500582  Q-7.07693, 0.742403 -6.93731, 0.984224  Q-6.80173, 1.21907 -6.66614, 1.45391  Q-6.53375, 1.68322 -6.40136, 1.91252  Q-6.14045, 2.36443 -5.88446, 2.80781  Q-5.75681, 3.02891 -5.62917, 3.25  Q-5.50152, 3.47109 -5.37387, 3.69219  Q-5.11788, 4.13557 -4.85697, 4.58748  Q-4.72458, 4.81678 -4.59219, 5.04609  Q-4.4566, 5.28093 -4.32102, 5.51578  Q-4.1814, 5.7576 -4.04179, 5.99942  Q-3.89728, 6.24971 -3.75278, 6.5 " /><path d="M-3.75278, 6.5 Q-3.46377, 6.5 -3.17475, 6.5  Q-2.89552, 6.5 -2.61629, 6.5  Q-2.34512, 6.5 -2.07395, 6.5  Q-1.80917, 6.5 -1.54438, 6.5  Q-1.28436, 6.5 -1.02433, 6.5  Q-0.509712, 6.5 7.77156e-16, 6.5  Q0.255297, 6.5 0.510594, 6.5  Q1.02256, 6.5 1.54438, 6.5  Q1.80917, 6.5 2.07395, 6.5  Q2.34512, 6.5 2.61629, 6.5  Q2.89552, 6.5 3.17475, 6.5  Q3.46377, 6.5 3.75278, 6.5 " /><path d="M3.75278, 6.5 Q3.89728, 6.24971 4.04179, 5.99942  Q4.1814, 5.7576 4.32102, 5.51578  Q4.4566, 5.28093 4.59219, 5.04609  Q4.72458, 4.81678 4.85697, 4.58748  Q5.11788, 4.13557 5.37387, 3.69219  Q5.50152, 3.47109 5.62917, 3.25  Q5.88402, 2.80858 6.14133, 2.3629  Q6.27134, 2.13771 6.40136, 1.91252  Q6.53375, 1.68322 6.66614, 1.45391  Q6.80173, 1.21907 6.93731, 0.984224  Q7.07693, 0.742403 7.21654, 0.500582  Q7.36105, 0.250291 7.50555, 7.18092e-13 " /><path d="M3.75278, 6.5 Q3.89728, 6.24971 4.04179, 5.99942  Q4.1814, 5.7576 4.32102, 5.51578  Q4.4566, 5.28093 4.59219, 5.04609  Q4.72458, 4.81678 4.85697, 4.58748  Q5.11788, 4.13557 5.37387, 3.69219  Q5.50152, 3.47109 5.62917, 3.25  Q5.88402, 2.80858 6.14133, 2.3629  Q6.27134, 2.13771 6.40136, 1.91252  Q6.53375, 1.68322 6.66614, 1.45391  Q6.80173, 1.21907 6.93731, 0.984224  Q7.07693, 0.742403 7.21654, 0.500582  Q7.36105, 0.250291 7.50555, 5.56e-13 " /><path d="M-3.75278, 6.5 Q-3.46377, 6.5 -3.17475, 6.5  Q-2.89552, 6.5 -2.61629, 6.5  Q-2.34512, 6.5 -2.07395, 6.5  Q-1.80917, 6.5 -1.54438, 6.5  Q-1.28436, 6.5 -1.02433, 6.5  Q-0.509712, 6.5 2.22045e-16, 6.5  Q0.509712, 6.5 1.02433, 6.5  Q1.28436, 6.5 1.54438, 6.5  Q1.80917, 6.5 2.07395, 6.5  Q2.34512, 6.5 2.61629, 6.5  Q2.89552, 6.5 3.17475, 6.5  Q3.46377, 6.5 3.75278, 6.5 " /><path d="M-7.50555, 5.5822e-13 Q-7.36105, 0.250291 -7.21654, 0.500582  Q-7.07693, 0.742403 -6.93731, 0.984224  Q-6.80173, 1.21907 -6.66614, 1.45391  Q-6.53375, 1.68322 -6.40136, 1.91252  Q-6.27134, 2.13771 -6.14133, 2.3629  Q-5.88402, 2.80858 -5.62917, 3.25  Q-5.37431, 3.69142 -5.117, 4.1371  Q-4.98699, 4.36229 -4.85697, 4.58748  Q-4.72458, 4.81678 -4.59219, 5.04609  Q-4.4566, 5.28093 -4.32102, 5.51578  Q-4.1814, 5.7576 -4.04179, 5.99942  Q-3.89728, 6.24971 -3.75278, 6.5 " /><path d="M-3.75278, -6.5 Q-3.89728, -6.24971 -4.04179, -5.99942  Q-4.1814, -5.7576 -4.32102, -5.51578  Q-4.4566, -5.28093 -4.59219, -5.04609  Q-4.72458, -4.81678 -4.85697, -4.58748  Q-4.98699, -4.36229 -5.117, -4.1371  Q-5.37431, -3.69142 -5.62917, -3.25  Q-5.88402, -2.80858 -6.14133, -2.3629  Q-6.27134, -2.13771 -6.40136, -1.91252  Q-6.53375, -1.68322 -6.66614, -1.45391  Q-6.80173, -1.21907 -6.93731, -0.984224  Q-7.07693, -0.742403 -7.21654, -0.500582  Q-7.36105, -0.250291 -7.50555, -5.54223e-13 " /><path d="M3.75278, -6.5 Q3.46377, -6.5 3.17475, -6.5  Q2.89552, -6.5 2.61629, -6.5  Q2.34512, -6.5 2.07395, -6.5  Q1.80917, -6.5 1.54438, -6.5  Q1.28436, -6.5 1.02433, -6.5  Q0.509712, -6.5 -1.11022e-15, -6.5  Q-0.509712, -6.5 -1.02433, -6.5  Q-1.28436, -6.5 -1.54438, -6.5  Q-1.80917, -6.5 -2.07395, -6.5  Q-2.34512, -6.5 -2.61629, -6.5  Q-2.89552, -6.5 -3.17475, -6.5  Q-3.46377, -6.5 -3.75278, -6.5 " /><path d="M7.50555, -5.56e-13 Q7.36105, -0.250291 7.21654, -0.500582  Q7.07693, -0.742403 6.93731, -0.984224  Q6.80173, -1.21907 6.66614, -1.45391  Q6.53375, -1.68322 6.40136, -1.91252  Q6.14045, -2.36443 5.88446, -2.80781  Q5.75681, -3.02891 5.62917, -3.25  Q5.50152, -3.47109 5.37387, -3.69219  Q5.11788, -4.13557 4.85697, -4.58748  Q4.72458, -4.81678 4.59219, -5.04609  Q4.4566, -5.28093 4.32102, -5.51578  Q4.1814, -5.7576 4.04179, -5.99942  Q3.89728, -6.24971 3.75278, -6.5 " /><path d="M3.45873, 0.0010068 C3.46113, 0.833399 3.14854, 1.66153 2.59669, 2.28474  C2.17628, 2.76397 1.62039, 3.1225 1.01043, 3.30785  C0.452296, 3.47903 -0.149395, 3.50512 -0.72025, 3.38291  C-1.46036, 3.22719 -2.14417, 2.81957 -2.63317, 2.24261 " /><circle cx ="0" cy ="0" r ="6.175" /><path d="M-2.53182, -2.35642 C-2.03833, -2.88892 -1.37268, -3.25829 -0.659692, -3.39524  C-0.0297027, -3.51862 0.634252, -3.46111 1.23364, -3.23125  C1.82973, -3.00467 2.36001, -2.60889 2.74679, -2.1019  C3.20616, -1.50454 3.46053, -0.753532 3.45873, 2.46919e-07 " /><circle cx ="0" cy ="0" r ="4.2" /><path d="M3.45873, 0.00100681 C3.46113, 0.833398 3.14854, 1.66153 2.59669, 2.28474  C2.17628, 2.76396 1.62041, 3.12249 1.01046, 3.30784  C0.452348, 3.47902 -0.149325, 3.50512 -0.720167, 3.38293  C-1.45136, 3.22904 -2.12774, 2.82947 -2.61539, 2.26331  C-2.86262, 1.97698 -3.05801, 1.6588 -3.20155, 1.30879 " /><path d="M-3.27897, 1.10055 C-3.40575, 0.72328 -3.46659, 0.324038 -3.45795, -0.0738419  C-3.44262, -0.928474 -3.09459, -1.77121 -2.50242, -2.38762  C-2.01225, -2.90343 -1.35881, -3.26079 -0.660045, -3.39517  C-0.032858, -3.51806 0.628018, -3.4617 1.22534, -3.2344  C1.82689, -3.00754 2.36194, -2.60846 2.75088, -2.09654  C3.2077, -1.50007 3.46051, -0.75128 3.45873, -1.77636e-15 " /><path d="M3.45873, 0.00100681 C3.46113, 0.833398 3.14854, 1.66153 2.59669, 2.28474  C2.17629, 2.76395 1.62041, 3.12249 1.01047, 3.30784  C0.452363, 3.47902 -0.149304, 3.50512 -0.720142, 3.38293  C-1.45129, 3.22906 -2.12762, 2.82954 -2.61526, 2.26346  C-2.86256, 1.97709 -3.05798, 1.65886 -3.20155, 1.30879 " /><path d="M-3.27897, 1.10055 C-3.40571, 0.723371 -3.46656, 0.324231 -3.45795, -0.0735533  C-3.4427, -0.928135 -3.09478, -1.77085 -2.50273, -2.3873  C-2.00896, -2.90708 -1.34937, -3.26592 -0.644742, -3.39811  C-0.0212674, -3.51734 0.634654, -3.45967 1.22776, -3.23349  C1.82989, -3.00589 2.36522, -2.60569 2.7539, -2.09258  C3.20884, -1.49677 3.46049, -0.749612 3.45873, -8.88178e-16 " /><path d="M-3.41626, 0.540383 C-3.36511, 1.214 -3.11034, 1.87048 -2.69797, 2.40811  C-2.45554, 2.72549 -2.15976, 3.00229 -1.8272, 3.22468  C-1.09527, 3.71738 -0.184536, 3.93392 0.694491, 3.83548  C1.18036, 3.78276 1.65615, 3.63724 2.09, 3.41058 " /><path d="M-3.41626 0.540383 A3.45873 3.45873 0 0 1 -0.540748 -3.4162" /><path d="M3.93506, 8.14789e-08 C3.87859, -0.83558 3.54341, -1.64965 2.9887, -2.27444  C2.49595, -2.83424 1.83106, -3.23986 1.10781, -3.41326  C0.567969, -3.54428 -0.00225345, -3.54651 -0.540748, -3.4162 " /><path d="M3.93506, 8.14789e-08 Q3.96761, 0.469332 3.8895, 0.933784 " /><path d="M2.09, 3.41058 C2.30273, 3.29993 2.54963, 3.12897 2.7679, 2.92882  C2.95073, 2.76212 3.11652, 2.57664 3.26526, 2.37239 " /><path d="M3.26526, 2.37239 C3.44163, 2.1287 3.58483, 1.87181 3.69487, 1.60173  C3.78902, 1.37208 3.85614, 1.13311 3.8895, 0.933784 " /><path d="M3.45873, 0.00100682 C3.46113, 0.833398 3.14854, 1.66153 2.59669, 2.28474  C2.17629, 2.76395 1.62042, 3.12248 1.01048, 3.30783  C0.45238, 3.47901 -0.149282, 3.50512 -0.720116, 3.38294  C-1.4512, 3.22909 -2.12749, 2.82963 -2.61512, 2.26362  C-2.86248, 1.97721 -3.05796, 1.65893 -3.20155, 1.30879 " /><path d="M-3.27897, 1.10055 C-3.40568, 0.72347 -3.46652, 0.324439 -3.45796, -0.073242  C-3.44278, -0.927767 -3.09499, -1.77046 -2.50306, -2.38695  C-2.01089, -2.90517 -1.35394, -3.26352 -0.651775, -3.39677  C-0.0233563, -3.51831 0.638412, -3.45998 1.23588, -3.23039  C1.8318, -3.0034 2.36181, -2.60726 2.74825, -2.09999  C3.20671, -1.50295 3.46052, -0.75273 3.45873, -1.33227e-15 " /><path d="M3.45873, 6.79037e-07 C3.46138, 0.832728 3.14877, 1.66128 2.59669, 2.28474  C2.1763, 2.76394 1.62045, 3.12246 1.01053, 3.30782  C0.452449, 3.479 -0.149188, 3.50512 -0.720005, 3.38296  C-1.45084, 3.22919 -2.12692, 2.82998 -2.61454, 2.2643  C-3.0357, 1.77945 -3.31686, 1.17488 -3.41626, 0.540383 " /><path d="M3.45873, 0.00100682 C3.46113, 0.833398 3.14854, 1.66153 2.59669, 2.28474  C2.17629, 2.76395 1.62043, 3.12248 1.01049, 3.30783  C0.452395, 3.47901 -0.14926, 3.50512 -0.72009, 3.38294  C-1.45112, 3.22911 -2.12736, 2.82971 -2.61499, 2.26377  C-2.86241, 1.97732 -3.05793, 1.65899 -3.20155, 1.30879 " /><path d="M-3.27897, 1.10055 C-3.40565, 0.723566 -3.46649, 0.324643 -3.45796, -0.072938  C-3.44286, -0.92738 -3.09522, -1.77002 -2.50345, -2.38655  C-2.01365, -2.90241 -1.36061, -3.25998 -0.662144, -3.39476  C-0.0403904, -3.51696 0.614601, -3.46308 1.20803, -3.24091  C1.81728, -3.01489 2.35947, -2.61246 2.75224, -2.09476  C3.20821, -1.49859 3.4605, -0.750531 3.45873, -1.11022e-15 " /><path d="M3.45873, 6.17305e-07 C3.46138, 0.832728 3.14877, 1.66128 2.59669, 2.28474  C2.1763, 2.76394 1.62044, 3.12247 1.01051, 3.30782  C0.45243, 3.479 -0.149214, 3.50512 -0.720035, 3.38296  C-1.45916, 3.22749 -2.14217, 2.8208 -2.63106, 2.24507 " /><path d="M-2.63413, 2.24147 Q-2.99116, 1.82102 -3.20072, 1.3108 " /><path d="M-3.27897, 1.10055 Q-3.34694, 0.897991 -3.38949, 0.688619 " /><path d="M-3.41626, 0.540384 C-3.44833, 0.337402 -3.46224, 0.133182 -3.45798, -0.0722734  C-3.44304, -0.926424 -3.0958, -1.76885 -2.50451, -2.38543  C-2.01394, -2.90258 -1.35936, -3.26084 -0.659347, -3.39531  C-0.0289763, -3.5187 0.635381, -3.46098 1.23503, -3.23072  C1.83101, -3.00389 2.36112, -2.60788 2.74769, -2.10072  C3.2065, -1.50356 3.46052, -0.753037 3.45873, -8.88178e-16 " /><path d="M3.45873, 0.00100683 C3.46113, 0.833398 3.14854, 1.66153 2.59669, 2.28474  C2.17629, 2.76395 1.62043, 3.12247 1.0105, 3.30783  C0.452411, 3.47901 -0.14924, 3.50512 -0.720066, 3.38295  C-1.45104, 3.22913 -2.12723, 2.82978 -2.61486, 2.26392  C-2.86234, 1.97743 -3.0579, 1.65906 -3.20155, 1.30879 " /><path d="M-3.27897, 1.10055 C-3.40562, 0.723658 -3.46646, 0.324838 -3.45797, -0.0726458  C-3.44294, -0.926962 -3.09547, -1.76951 -2.50391, -2.38606  C-2.01313, -2.90317 -1.35835, -3.26129 -0.658174, -3.39553  C-0.0335922, -3.51754 0.624301, -3.46186 1.21949, -3.23662  C1.82535, -3.00939 2.36413, -2.60754 2.75464, -2.0916  C3.20912, -1.49595 3.46049, -0.749201 3.45873, -4.44089e-16 " /></g>

</svg>
