<svg xmlns="http://www.w3.org/2000/svg" viewBox="-7.4134704 -8.7367804 12.639660800000001 16.3120708">
<rect width="100%" height="100%" fill="white"/>
<g   fill="none"
   stroke="rgb(0, 0, 0)"
   stroke-linecap="butt"
   stroke-linejoin="miter"
   stroke-width="0.35"
   transform="scale(1, -1)"
  >
<path id= "1" d=" M -6.12873 -1.71546 L -5.24485 -2.22577 " />
<path id= "2" d=" M -1.57873 6.16537 L -0.694848 5.65506 " />
</g>
<g   fill="none"
   stroke="rgb(0, 0, 0)"
   stroke-linecap="butt"
   stroke-linejoin="miter"
   stroke-width="0.35"
   transform="scale(1, -1)"
  >
<path d="M-6.11298, -4.63564 C-6.30634, -3.3427 -6.41856, -2.34468 -6.4716, -1.44611 " /><path id= "2" d=" M -2.96985 -6.45032 L -6.11298 -4.63564 " />
<path d="M0.958088, 7.61181 C-0.258309, 7.13281 -1.17873, 6.73097 -1.98343, 6.32762 " /><path id= "4" d=" M 4.10122 5.79713 L 0.958088 7.61181 " />
<path id= "5" d=" M -1.53553 -4.96902 L 1.53553 -3.19594 " />
<path id= "6" d=" M 3.53553 3.81432 L 3.53553 0.26816 " />
<path id= "7" d=" M -1.76985 -5.7575 L -1.53553 -4.96902 " />
<path id= "8" d=" M -2.96985 -6.45032 L -1.76985 -5.7575 " />
<path d="M-2.96985, -2.36784 C-3.48848, -2.66796 -3.97855, -2.98582 -4.48535, -3.35076  C-4.55824, -3.4041 -4.63113, -3.45743 -4.70402, -3.51076  C-4.77795, -3.56632 -4.85188, -3.62189 -4.92581, -3.67745  C-5.00108, -3.73547 -5.07634, -3.79349 -5.15161, -3.85151  C-5.2285, -3.91221 -5.3054, -3.97291 -5.38229, -4.03362  C-5.46112, -4.09724 -5.53996, -4.16087 -5.61879, -4.22449  C-5.69987, -4.2913 -5.78095, -4.3581 -5.86203, -4.4249  C-5.94568, -4.49515 -6.02933, -4.56539 -6.11298, -4.63564 " /><path d="M0.958088, -0.553152 Q0.775588, -0.625596 0.593088, -0.698039  Q0.41953, -0.768257 0.245971, -0.838475  Q0.0806648, -0.906745 -0.0846413, -0.975015  Q-0.24235, -1.04161 -0.400059, -1.1082  Q-0.550795, -1.17338 -0.701532, -1.23856  Q-0.845894, -1.30259 -0.990255, -1.36662  Q-1.12882, -1.42974 -1.26738, -1.49287  Q-1.40068, -1.55534 -1.53399, -1.61782  Q-1.66257, -1.67989 -1.79115, -1.74196  Q-1.91552, -1.80388 -2.03989, -1.8658  Q-2.283, -1.98962 -2.51599, -2.11449  Q-2.74655, -2.23987 -2.96985, -2.36784 " /><path id= "11" d=" M 4.10122 -2.36784 L 0.958088 -0.553152 " />
<path id= "12" d=" M 2.90122 -3.06066 L 4.10122 -2.36784 " />
<path id= "13" d=" M 1.53553 -3.19594 L 2.90122 -3.06066 " />
<path d="M-6.2885 -1.60925 A5 2.88675 60 0 1 -2.96985 -2.36784" />
<path id= "15" d=" M 4.10122 4.41149 L 3.53553 3.81432 " />
<path id= "16" d=" M 4.10122 4.41149 L 4.10122 5.79713 " />
<path d="M0.565685, 3.75588 C0.566284, 4.35509 0.596516, 4.93844 0.659173, 5.55981  C0.668914, 5.6496 0.678655, 5.73939 0.688396, 5.82918  C0.699551, 5.92099 0.710706, 6.0128 0.721861, 6.10461  C0.734475, 6.1988 0.747088, 6.29299 0.759702, 6.38718  C0.773824, 6.48412 0.787945, 6.58106 0.802067, 6.67801  C0.817753, 6.77809 0.83344, 6.87818 0.849126, 6.97826  C0.866439, 7.08188 0.883751, 7.1855 0.901064, 7.28912  C0.920072, 7.39668 0.93908, 7.50425 0.958088, 7.61181 " /><path d="M0.958088, -0.553152 Q0.929576, -0.358881 0.901064, -0.16461  Q0.875095, 0.0208052 0.849126, 0.20622  Q0.825597, 0.383515 0.802067, 0.560809  Q0.780885, 0.730685 0.759702, 0.900562  Q0.740782, 1.06369 0.721861, 1.22683  Q0.705129, 1.38386 0.688396, 1.54089  Q0.673785, 1.69245 0.659173, 1.84401  Q0.646625, 1.9907 0.634077, 2.13738  Q0.623542, 2.27977 0.613008, 2.42217  Q0.604445, 2.56083 0.595882, 2.6995  Q0.58156, 2.97195 0.573205, 3.23616  Q0.566508, 3.49851 0.565685, 3.75588 " /><path id= "19" d=" M 4.10122 -2.36784 L 4.10122 -0.982199 " />
<path id= "20" d=" M 3.53553 0.26816 L 4.10122 -0.982199 " />
<path d="M0.565685 3.75588 A5 2.88675 60 0 1 -1.7506 6.25062" />
<path d="M-2.96985 -2.36784 A5 2.88675 60 0 1 0.565685 3.75588" />
<path d="M0.247487 3.57217 A4.55 2.62694 60 0 1 -0.694848 5.65506" />
<path d="M-5.24485 -2.22577 A4.55 2.62694 60 0 1 0.247487 3.57217" />
<path d="M-0.636396 4.08248 A4.55 2.62694 60 0 1 -1.57873 6.16537" />
<path d="M-1.57873 6.16537 A4.55 2.62694 60 0 1 -6.12873 -1.71546" />
<path d="M-6.12873 -1.71546 A4.55 2.62694 60 0 1 -0.636396 4.08248" />
<path d="M-1.90497, 2.05911 C-2.35379, 1.6088 -2.71632, 1.00634 -2.89572, 0.432113 " /><path d="M-1.20208 3.75588 A3.75 2.16506 60 0 1 -1.97873 5.47255" />
<path d="M-1.97873 5.47255 A3.75 2.16506 60 0 1 -5.72873 -1.02264" />
<path d="M-5.72873 -1.02264 A3.75 2.16506 60 0 1 -1.20208 3.75588" />
<path d="M-1.63259, 3.1438 C-2.2355, 2.90995 -2.85974, 2.31476 -3.25708, 1.61862  C-3.62838, 0.97986 -3.80003, 0.274538 -3.72168, -0.232638 " /><path d="M-1.6594, 2.94885 C-2.17451, 2.68559 -2.68355, 2.17811 -3.03541, 1.59259  C-3.39534, 1.00119 -3.58783, 0.340858 -3.56084, -0.168793 " /><path d="M-1.97167 5.46844 A3.75 2.16506 60 0 1 -5.72165 -1.0267" />
<path d="M-1.68897, 3.67347 C-2.0731, 3.69282 -2.52163, 3.524 -2.93944, 3.20835  C-3.33258, 2.91363 -3.69599, 2.4921 -3.96179, 2.03103  C-4.26073, 1.51628 -4.43416, 0.956502 -4.44604, 0.493643  C-4.45558, 0.171701 -4.38918, -0.103074 -4.25738, -0.295385 " /><path d="M-1.66505, 3.56928 C-2.00899, 3.54527 -2.39177, 3.38368 -2.75219, 3.11414  C-3.12857, 2.83431 -3.47866, 2.43819 -3.74229, 2.00121  C-4.05726, 1.48281 -4.246, 0.910773 -4.26761, 0.434566  C-4.28183, 0.14505 -4.23636, -0.109046 -4.13731, -0.30175 " /><path d="M-1.6122 3.50277 A3.15 1.81865 60 1 1 -3.77221 -0.315095" />
<path d="M-3.77221 -0.315095 A3.15 1.81865 60 0 1 -1.61322 3.42437" />
<path d="M-1.61322 3.42437 A3.15 1.81865 60 0 1 -1.6122 3.50277" />
<path d="M-1.72854, 3.80448 Q-1.81531, 3.88715 -1.91724, 3.94602 " /><path d="M-1.91724, 3.94602 C-2.13571, 4.07262 -2.40407, 4.11231 -2.69343, 4.06173  C-3.00139, 4.00871 -3.33252, 3.85318 -3.64615, 3.61689  C-4.20923, 3.19746 -4.7048, 2.5133 -4.9551, 1.83629 " /><path d="M-4.9551, 1.83629 C-5.2406, 1.35519 -5.40151, 0.845988 -5.41859, 0.427542  C-5.43979, -0.0344349 -5.28861, -0.382946 -5.01716, -0.534854 " /><path d="M-1.83153, 3.89037 C-2.27419, 4.09327 -2.89277, 3.94922 -3.4592, 3.52246  C-3.83551, 3.2427 -4.18554, 2.8467 -4.44917, 2.40983  C-4.76348, 1.89262 -4.95219, 1.32196 -4.97454, 0.846347  C-5.00062, 0.355893 -4.85073, -0.0279995 -4.57234, -0.198813 " /><path d="M-4.9551 1.83629 A2.45873 1.41955 60 0 1 -4.5943 -0.186581" />
<path d="M-4.5943 -0.186581 A2.45873 1.41955 60 0 1 -4.06798 -0.299247" />
<path d="M-3.54108, -0.159629 Q-3.81878, -0.289939 -4.06798, -0.299247 " /><path d="M-1.62454, 3.22534 C-1.64702, 3.79208 -1.86522, 4.24025 -2.22418, 4.45428  C-2.61355, 4.69356 -3.16605, 4.64873 -3.72012, 4.33918  C-4.29667, 4.0229 -4.86549, 3.4263 -5.25717, 2.7396  C-5.6682, 2.02803 -5.88153, 1.23243 -5.83797, 0.608906 " /><path d="M-5.01716, -0.534854 C-4.98829, -0.550493 -4.99329, -0.555501 -5.03213, -0.549877  C-5.06287, -0.545152 -5.10066, -0.534918 -5.14551, -0.519175  C-5.25577, -0.479825 -5.37284, -0.409551 -5.47076, -0.3126 " /><path d="M-5.47076, -0.3126 C-5.6807, -0.108851 -5.81393, 0.219316 -5.83797, 0.608906 " /></g>

</svg>
