<svg xmlns="http://www.w3.org/2000/svg" viewBox="-6.25 -5.8 7.85 11.6">
<rect width="100%" height="100%" fill="white"/>
<g   fill="none"
   stroke="rgb(0, 0, 0)"
   stroke-linecap="butt"
   stroke-linejoin="miter"
   stroke-width="0.35"
   transform="scale(1, -1)"
  >
<path id= "1" d=" M -5.45 -4.55 L -4.2 -4.55 " />
</g>
<g   fill="none"
   stroke="rgb(0, 0, 0)"
   stroke-linecap="butt"
   stroke-linejoin="miter"
   stroke-width="0.35"
   transform="scale(1, -1)"
  >
<path d="M-3.64506, -5 C-4.03483, -5 -4.19676, -5 -4.2, -5 " /><path id= "2" d=" M 0.8 -5 L -3.64506 -5 " />
<path id= "3" d=" M 0 -2.17157 L 0 2.17157 " />
<path d="M0, -2.17157 Q0, -2.04144 0, -1.9113  Q0, -1.76989 0, -1.62848  Q0, -1.47747 0, -1.32645  Q0, -1.16762 0, -1.00878  Q0, -0.843991 0, -0.679204  Q0, -0.342747 0, -7.92366e-13  Q0, 0.170808 0, 0.341617  Q0, 0.68145 0, 1.00878  Q0, 1.16762 0, 1.32645  Q0, 1.47747 0, 1.62848  Q0, 1.76989 0, 1.9113  Q0, 2.04144 0, 2.17157 " /><path id= "5" d=" M 0.8 -3.30294 L -1.86622e-13 -2.17157 " />
<path id= "6" d=" M 0.8 -5 L 0.8 -3.30294 " />
<path d="M-4.2, 0 Q-4.19884, -0.314634 -4.18937, -0.631217  Q-4.17755, -0.948897 -4.1573, -1.27245  Q-4.14519, -1.43623 -4.13308, -1.6  Q-4.11818, -1.76695 -4.10328, -1.93389  Q-4.08553, -2.10467 -4.06779, -2.27545  Q-4.04712, -2.45074 -4.02646, -2.62603  Q-4.0028, -2.80652 -3.97913, -2.98702  Q-3.95238, -3.17343 -3.92562, -3.35985  Q-3.89566, -3.55293 -3.86571, -3.746  Q-3.83243, -3.94651 -3.79915, -4.14701  Q-3.76243, -4.35573 -3.7257, -4.56446  Q-3.68538, -4.78223 -3.64506, -5 " /><path d="M-3.64506, 5 Q-3.68538, 4.78223 -3.7257, 4.56446  Q-3.76243, 4.35573 -3.79915, 4.14701  Q-3.83243, 3.94651 -3.86571, 3.746  Q-3.89566, 3.55293 -3.92562, 3.35985  Q-3.95238, 3.17343 -3.97913, 2.98702  Q-4.0028, 2.80652 -4.02646, 2.62603  Q-4.04712, 2.45074 -4.06779, 2.27545  Q-4.08553, 2.10467 -4.10328, 1.93389  Q-4.11818, 1.76695 -4.13308, 1.6  Q-4.14519, 1.43623 -4.1573, 1.27245  Q-4.17755, 0.948897 -4.18937, 0.631217  Q-4.19884, 0.314634 -4.2, 0 " /><path id= "9" d=" M 0.8 5 L -3.64506 5 " />
<path id= "10" d=" M 0.8 3.30294 L 0.8 5 " />
<path id= "11" d=" M 3.5607e-13 2.17157 L 0.8 3.30294 " />
<path d="M-4.2, -5 Q-4.2, -4.98428 -4.2, -4.96856  Q-4.2, -4.9216 -4.2, -4.87464  Q-4.2, -4.79703 -4.2, -4.71942  Q-4.2, -4.61213 -4.2, -4.50484  Q-4.2, -4.36923 -4.2, -4.23362  Q-4.2, -4.07139 -4.2, -3.90916  Q-4.2, -3.72235 -4.2, -3.53553  Q-4.2, -3.32649 -4.2, -3.11745  Q-4.2, -2.8888 -4.2, -2.66016  Q-4.2, -2.41479 -4.2, -2.16942  Q-4.2, -1.91041 -4.2, -1.6514  Q-4.2, -1.382 -4.2, -1.1126  Q-4.2, -0.561797 -4.2, -8.88178e-16 " /><path d="M-3.64506, 5 C-4.03483, 5 -4.19676, 5 -4.2, 5 " /><path d="M-4.2, -8.88178e-16 Q-4.2, 0.561797 -4.2, 1.1126  Q-4.2, 1.382 -4.2, 1.6514  Q-4.2, 1.91041 -4.2, 2.16942  Q-4.2, 2.41479 -4.2, 2.66016  Q-4.2, 2.8888 -4.2, 3.11745  Q-4.2, 3.32649 -4.2, 3.53553  Q-4.2, 3.72235 -4.2, 3.90916  Q-4.2, 4.07139 -4.2, 4.23362  Q-4.2, 4.36923 -4.2, 4.50484  Q-4.2, 4.61213 -4.2, 4.71942  Q-4.2, 4.79703 -4.2, 4.87464  Q-4.2, 4.9216 -4.2, 4.96856  Q-4.2, 4.98428 -4.2, 5 " /><path id= "15" d=" M -5.45 4.55 L -4.2 4.55 " />
<path d="M-5.45, -4.55 L-5.45, -4.43592  L-5.45, -4.09941  L-5.45, -3.55733  L-5.45, -2.83688  L-5.45, -1.97417  L-5.45, -1.01247  L-5.45, -8.88178e-16  L-5.45, 1.01247  L-5.45, 1.97417  L-5.45, 2.83688  L-5.45, 3.55733  L-5.45, 4.09941  L-5.45, 4.43592  L-5.45, 4.55 " /></g>

</svg>
