<svg xmlns="http://www.w3.org/2000/svg" viewBox="-5.8 -5.8 11.6 11.6">
<rect width="100%" height="100%" fill="white"/>
<g   fill="none"
   stroke="rgb(0, 0, 0)"
   stroke-linecap="butt"
   stroke-linejoin="miter"
   stroke-width="0.35"
   transform="scale(1, -1)"
  >
<path d="M-2.22119, -2.06984 L-2.2211, -2.06993 " /></g>
<g   fill="none"
   stroke="rgb(0, 0, 0)"
   stroke-linecap="butt"
   stroke-linejoin="miter"
   stroke-width="0.35"
   transform="scale(1, -1)"
  >
<path d="M-5, 0 C-5, 0.7343 -5, 1.47012 -5, 2.27545  C-5, 2.39231 -5, 2.50917 -5, 2.62603  C-5, 2.74636 -5, 2.86669 -5, 2.98702  C-5, 3.1113 -5, 3.23557 -5, 3.35985  C-5, 3.48857 -5, 3.61729 -5, 3.746  C-5, 3.87967 -5, 4.01334 -5, 4.14701  C-5, 4.28616 -5, 4.42531 -5, 4.56446  C-5, 4.70964 -5, 4.85482 -5, 5 " /><path d="M-5, -5 C-5, -4.85482 -5, -4.70964 -5, -4.56446  C-5, -4.42531 -5, -4.28616 -5, -4.14701  C-5, -4.01334 -5, -3.87967 -5, -3.746  C-5, -3.61729 -5, -3.48857 -5, -3.35985  C-5, -3.23557 -5, -3.1113 -5, -2.98702  C-5, -2.86669 -5, -2.74636 -5, -2.62603  C-5, -2.50917 -5, -2.39231 -5, -2.27545  C-5, -1.47012 -5, -0.7343 -5, 0 " /><path d="M0, 5 C-0.7343, 5 -1.47012, 5 -2.27545, 5  C-2.39231, 5 -2.50917, 5 -2.62603, 5  C-2.74636, 5 -2.86669, 5 -2.98702, 5  C-3.1113, 5 -3.23557, 5 -3.35985, 5  C-3.48857, 5 -3.61729, 5 -3.746, 5  C-3.87967, 5 -4.01334, 5 -4.14701, 5  C-4.28616, 5 -4.42531, 5 -4.56446, 5  C-4.70964, 5 -4.85482, 5 -5, 5 " /><path d="M5, 5 C4.85482, 5 4.70964, 5 4.56446, 5  C4.42531, 5 4.28616, 5 4.14701, 5  C4.01334, 5 3.87967, 5 3.746, 5  C3.61729, 5 3.48857, 5 3.35985, 5  C3.23557, 5 3.1113, 5 2.98702, 5  C2.86669, 5 2.74636, 5 2.62603, 5  C2.50917, 5 2.39231, 5 2.27545, 5  C1.47012, 5 0.7343, 5 0, 5 " /><path d="M0, -5 C-0.7343, -5 -1.47012, -5 -2.27545, -5  C-2.39231, -5 -2.50917, -5 -2.62603, -5  C-2.74636, -5 -2.86669, -5 -2.98702, -5  C-3.1113, -5 -3.23557, -5 -3.35985, -5  C-3.48857, -5 -3.61729, -5 -3.746, -5  C-3.87967, -5 -4.01334, -5 -4.14701, -5  C-4.28616, -5 -4.42531, -5 -4.56446, -5  C-4.70964, -5 -4.85482, -5 -5, -5 " /><path d="M5, -5 C4.85482, -5 4.70964, -5 4.56446, -5  C4.42531, -5 4.28616, -5 4.14701, -5  C4.01334, -5 3.87967, -5 3.746, -5  C3.61729, -5 3.48857, -5 3.35985, -5  C3.23557, -5 3.1113, -5 2.98702, -5  C2.86669, -5 2.74636, -5 2.62603, -5  C2.50917, -5 2.39231, -5 2.27545, -5  C1.47012, -5 0.7343, -5 0, -5 " /><path d="M-5 6.12323e-16 A5 5 0 0 1 -9.18485e-16 -5" /><path d="M3.06162e-16 5 A5 5 0 0 1 -5 6.12323e-16" /><path d="M5, 0 C5, 0.7343 5, 1.47012 5, 2.27545  C5, 2.39231 5, 2.50917 5, 2.62603  C5, 2.74636 5, 2.86669 5, 2.98702  C5, 3.1113 5, 3.23557 5, 3.35985  C5, 3.48857 5, 3.61729 5, 3.746  C5, 3.87967 5, 4.01334 5, 4.14701  C5, 4.28616 5, 4.42531 5, 4.56446  C5, 4.70964 5, 4.85482 5, 5 " /><path d="M5, -5 C5, -4.85482 5, -4.70964 5, -4.56446  C5, -4.42531 5, -4.28616 5, -4.14701  C5, -4.01334 5, -3.87967 5, -3.746  C5, -3.61729 5, -3.48857 5, -3.35985  C5, -3.23557 5, -3.1113 5, -2.98702  C5, -2.86669 5, -2.74636 5, -2.62603  C5, -2.50917 5, -2.39231 5, -2.27545  C5, -1.47012 5, -0.7343 5, 0 " /><path d="M5 0 A5 5 0 0 1 3.06162e-16 5" /><path d="M-9.18485e-16 -5 A5 5 0 0 1 5 -1.22465e-15" /><circle cx ="0" cy ="0" r ="4.55" /><circle cx ="0" cy ="0" r ="3.75" /><path d="M2.45861, 0.0246697 C2.45472, 0.662335 2.18913, 1.29308 1.7357, 1.74147 " /><path d="M1.28744, 2.09472 L1.21877, 2.13541 " /><path d="M1.10977, 2.19404 C0.603548, 2.45188 0.00661271, 2.52507 -0.546923, 2.39713  C-1.15683, 2.26035 -1.70708, 1.87972 -2.05019, 1.35724 " /><path d="M-2.24884, 0.994035 Q-2.42435, 0.595484 -2.45346, 0.160932 " /><path d="M-2.45281, -0.170516 C-2.41405, -0.753914 -2.15763, -1.31932 -1.74431, -1.73284 " /><path d="M-1.56458, -1.8967 Q-1.45943, -1.98343 -1.34534, -2.05802 " /><path d="M-1.06521, -2.21601 C-0.447249, -2.51676 0.297749, -2.53878 0.932391, -2.27509 " /><path d="M2.01609, -1.40739 C2.30294, -0.998177 2.45971, -0.499731 2.45873, 8.88178e-16 " /><path d="M2.45873, 5.48038e-07 C2.46141, 0.648792 2.19269, 1.29291 1.7297, 1.74743 " /><path d="M1.30004, 2.08693 C0.757236, 2.42808 0.0781882, 2.54222 -0.546352, 2.39726  C-1.17358, 2.25695 -1.73729, 1.85822 -2.07848, 1.3135 " /><path d="M-2.24884, 0.994035 C-2.39806, 0.657174 -2.46993, 0.286366 -2.45737, -0.081868  C-2.43954, -0.673439 -2.19794, -1.25456 -1.79112, -1.68441  C-1.4414, -2.05785 -0.972052, -2.31678 -0.469645, -2.41346  C-0.00923632, -2.50383 0.476702, -2.45805 0.912131, -2.28328  C1.35983, -2.10534 1.75227, -1.79197 2.02487, -1.39473  C2.3062, -0.987949 2.45967, -0.494579 2.45873, -1.11022e-16 " /><circle cx ="0" cy ="0" r ="3.15" /><path d="M2.45873, 6.57647e-07 C2.46054, 0.585842 2.24304, 1.16886 1.85797, 1.61038  C1.55776, 1.95781 1.15798, 2.21781 0.71868, 2.35136  C0.310768, 2.47658 -0.129897, 2.49262 -0.545834, 2.39738  C-1.29276, 2.23247 -1.94423, 1.69559 -2.24884, 0.994035 " /><path d="M-2.24884, 0.994035 C-2.56273, 0.516825 -2.70386, -0.0794689 -2.64441, -0.66348  C-2.5826, -1.30609 -2.28041, -1.92821 -1.81097, -2.39175 " /><path d="M-2.24884 0.994035 A2.45873 2.45873 0 0 1 -0.994265 -2.24874" /><path d="M2.66298, -1.33227e-15 C2.64657, -0.437439 2.51963, -0.869337 2.29674, -1.24391  C2.07798, -1.61334 1.76656, -1.92626 1.39928, -2.14486  C1.03803, -2.36092 0.623396, -2.48493 0.20479, -2.50155  C-0.208708, -2.51886 -0.625128, -2.43124 -0.994265, -2.24874 " /><path d="M2.66298, 4.09478e-07 C2.69435, 0.729459 2.40794, 1.46662 1.89251, 1.99011  C1.36915, 2.5312 0.614761, 2.84002 -0.142169, 2.82603  C-0.929819, 2.81864 -1.70687, 2.46279 -2.23372, 1.87166  C-2.78691, 1.26271 -3.06085, 0.411388 -2.97179, -0.410526 " /><path d="M-1.81097, -2.39175 C-1.78418, -2.4179 -1.77155, -2.43317 -1.77308, -2.43755  C-1.7762, -2.44269 -1.81255, -2.42245 -1.86077, -2.38888  C-1.96284, -2.31814 -2.09917, -2.20153 -2.2211, -2.06993 " /><path d="M-2.2211, -2.06993 C-2.43257, -1.84376 -2.61939, -1.56243 -2.75047, -1.25734  C-2.86753, -0.985306 -2.9413, -0.703034 -2.97179, -0.410526 " /></g>

</svg>
