<svg xmlns="http://www.w3.org/2000/svg" viewBox="-8.3755896 -8.1555596 13.2156492 14.2698792">
<rect width="100%" height="100%" fill="white"/>
<g   fill="none"
   stroke="rgb(0, 0, 0)"
   stroke-linecap="butt"
   stroke-linejoin="miter"
   stroke-width="0.35"
   transform="scale(1, -1)"
  >
<path d="M-1.54955, 3.01858 C-1.57192, 2.46997 -1.77304, 1.83824 -2.09832, 1.29169 " /><g transform = "rotate(60, -3.53553, 2.04124)">
<ellipse cx ="-3.53553" cy ="2.04124" rx ="3.375"  ry ="1.94856"/>
</g>
<path d="M-1.54955, 3.01858 C-1.53187, 3.41231 -1.60335, 3.76274 -1.75434, 4.02426  C-1.9078, 4.29222 -2.14359, 4.46688 -2.43071, 4.52694  C-2.73196, 4.59123 -3.08897, 4.52884 -3.45325, 4.35038  C-3.83601, 4.16404 -4.22555, 3.85027 -4.56744, 3.45581 " /><path d="M-5.5257, 1.38916 C-5.52507, 1.41906 -5.52113, 1.45855 -5.51389, 1.50762  C-5.48856, 1.67929 -5.42718, 1.9136 -5.3396, 2.14541  C-5.17926, 2.57801 -4.91718, 3.03181 -4.63913, 3.37054 " /><path d="M-4.63913, 3.37054 L-4.56744, 3.45581 " /><path d="M-4.55596, -0.207575 C-4.84294, -0.162566 -5.08522, -0.00139381 -5.2525, 0.252504  C-5.44113, 0.536316 -5.53503, 0.935416 -5.5257, 1.38916 " /><path d="M-4.55596 -0.207575 A2.45873 1.41955 60 0 1 -2.09832 1.29169" />
<path d="M-1.69011, 3.80872 C-2.13279, 4.01163 -2.75142, 3.86755 -3.31787, 3.44074  C-3.69426, 3.16091 -4.04434, 2.76479 -4.30797, 2.32781  C-4.62294, 1.80941 -4.81168, 1.23737 -4.8333, 0.761165  C-4.85621, 0.310865 -4.73146, -0.0502286 -4.49338, -0.236484 " /><path d="M-1.64196, 3.77146 Q-1.70533, 3.82367 -1.77582, 3.86437 " /><path d="M-1.77582, 3.86437 C-1.99435, 3.99101 -2.26281, 4.03069 -2.55226, 3.98003  C-2.86028, 3.92696 -3.19146, 3.77134 -3.50512, 3.53495  C-3.89827, 3.24023 -4.26168, 2.8187 -4.52747, 2.35763  C-4.82642, 1.84288 -4.99985, 1.2831 -5.01173, 0.820242  C-5.02697, 0.340354 -4.86954, -0.0302239 -4.58811, -0.190157 " /><path d="M-4.58811, -0.190157 L-4.55596, -0.207575 " /><path d="M0 4.08248 A5 2.88675 60 0 1 -0.473672 5.85025" />
<path d="M-0.473672 1.76777 A5 2.88675 60 0 1 0 4.08248" />
<path d="M-3.53553 -2.04124 A5 2.88675 60 0 1 -0.473672 1.76777" />
<path d="M-6.5974 -1.76777 A5 2.88675 60 0 1 -3.53553 -2.04124" />
<path d="M-6.5974 2.31472 A5 2.88675 60 0 1 -6.5974 -1.76777" />
<path d="M-3.53553 6.12372 A5 2.88675 60 0 1 -6.5974 2.31472" />
<path d="M-0.473672 5.85025 A5 2.88675 60 0 1 -3.53553 6.12372" />
<path d="M-1.57288, 3.4832 C-1.90388, 3.44821 -2.26754, 3.2891 -2.61086, 3.03243  C-2.98732, 2.75251 -3.33746, 2.35628 -3.60109, 1.91919  C-3.91657, 1.39984 -4.10533, 0.826699 -4.12633, 0.350028  C-4.13755, 0.0996359 -4.10692, -0.116553 -4.03443, -0.298538 " /><path d="M-1.59327, 3.59309 C-1.96708, 3.59792 -2.397, 3.42963 -2.79845, 3.12638  C-3.19262, 2.83079 -3.55685, 2.40774 -3.82277, 1.94522  C-4.1187, 1.43429 -4.29101, 0.879396 -4.3044, 0.419201  C-4.31375, 0.13347 -4.26379, -0.115807 -4.16105, -0.303278 " /><path d="M-0.473672, 5.85025 C-0.149216, 5.38927 0.246151, 4.88751 0.773503, 4.26746 " /><path d="M-3.53553, 6.12372 C-2.88733, 6.49714 -2.16842, 6.82927 -1.26774, 7.17143 " /><path d="M-1.26774, 7.17143 C-1.04843, 6.72924 -0.796703, 6.31041 -0.473672, 5.85025 " /><path d="M-6.5974, 2.31472 C-6.27294, 3.1487 -5.87757, 3.94113 -5.35022, 4.81441 " /><path d="M-5.35022, 4.81441 C-4.75758, 5.33442 -4.18231, 5.74949 -3.53553, 6.12372 " /><path d="M-6.5974, -1.76777 C-6.92043, -1.3076 -7.17215, -0.888776 -7.39146, -0.446582 " /><path d="M-7.39146, -0.446582 C-7.17215, 0.604545 -6.92043, 1.4799 -6.5974, 2.31472 " /><path d="M-5.35022, -3.35055 C-5.87757, -2.73051 -6.27294, -2.22875 -6.5974, -1.76777 " /><path d="M-3.53553, -2.04124 C-4.18231, -2.41548 -4.75758, -2.83054 -5.35022, -3.35055 " /><path d="M-1.26774, -0.993531 C-2.16842, -1.33569 -2.88733, -1.66783 -3.53553, -2.04124 " /><path d="M-0.473672, 1.76777 C-0.796703, 0.932956 -1.04843, 0.0575956 -1.26774, -0.993531 " /><path d="M0.773503, 4.26746 C0.246151, 3.39419 -0.149216, 2.60176 -0.473672, 1.76777 " /><path d="M-1.56267, 2.84355 C-2.06236, 2.57488 -2.55182, 2.07976 -2.89354, 1.51169  C-3.21855, 0.977095 -3.40878, 0.385527 -3.42077, -0.0993604 " /><path d="M-1.54875, 3.03836 C-2.12853, 2.79307 -2.72012, 2.22118 -3.10511, 1.55517  C-3.45138, 0.965325 -3.63003, 0.315286 -3.59423, -0.182653 " /><path d="M3.85593, 2.48782 C3.63662, 2.93002 3.38489, 3.34885 3.06186, 3.80901 " /><path id= "36" d=" M 0.773503 4.26746 L 3.85593 2.48782 " />
<path id= "37" d=" M 1.81469 5.3918 L -1.26774 7.17143 " />
<path d="M3.06186, 3.80901 C2.73741, 4.26999 2.34204, 4.77175 1.81469, 5.3918 " /><path id= "39" d=" M -2.2678 -5.13019 L -5.35022 -3.35055 " />
<path d="M-2.2678, -5.13019 C-1.36711, -4.78803 -0.648199, -4.4559 -3.23856e-08, -4.08248 " /><path id= "41" d=" M 1.81469 -2.77317 L -1.26774 -0.993531 " />
<path d="M-3.23856e-08, -4.08248 C0.646774, -3.70824 1.22205, -3.29318 1.81469, -2.77317 " /><path d="M1.81469, -2.77317 C2.34204, -1.89989 2.73741, -1.10746 3.06186, -0.273475 " /><path d="M3.06186, -0.273475 C3.38489, 0.561337 3.63662, 1.4367 3.85593, 2.48782 " /><path d="M-1.77552, 1.96534 C-2.19504, 1.54028 -2.53846, 0.982911 -2.72416, 0.441637 " /></g>

</svg>
