<svg xmlns="http://www.w3.org/2000/svg" viewBox="-5.92376 -6.69726 6.84752 13.39452">
<rect width="100%" height="100%" fill="white"/>
<g   fill="none"
   stroke="rgb(165, 165, 165)"
   stroke-dasharray="1.2,0.8"
   stroke-linecap="butt"
   stroke-linejoin="miter"
   stroke-width="0.25"
   transform="scale(1, -1)"
  >
<path d="M-4.79269, 2.6013 C-4.78022, 2.55718 -4.76749, 2.26003 -4.75449, 1.78702 " /><path id= "2" d=" M -4.79269 2.6013 L -5 3.375 " />
<path d="M-5, 3.375 L-5, 3.29038  L-5, 3.04077  L-5, 2.63868  L-5, 2.10428  L-5, 1.46436  L-5, 0.751008  L-5, 2.22045e-16  L-5, -0.751008  L-5, -1.46436  L-5, -2.10428  L-5, -2.63868  L-5, -3.04077  L-5, -3.29038  L-5, -3.375 " /><path d="M-5, -3.375 L-5, -3.29038  L-5, -3.04077  L-5, -2.63868  L-5, -2.10428  L-5, -1.46436  L-5, -0.751008  L-5, -6.66134e-16  L-5, 0.751008  L-5, 1.46436  L-5, 2.10428  L-5, 2.63868  L-5, 3.04077  L-5, 3.29038  L-5, 3.375 " /><path d="M-4.79269, 2.6013 Q-4.79534, 2.61119 -4.79797, 2.60665 " /><path d="M-4.79797, 2.60665 C-4.81417, 2.58423 -4.82993, 2.12157 -4.84533, 1.40779  C-4.86391, 0.552631 -4.88195, -0.63479 -4.89952, -1.55981 " /><path d="M-4.89952, -2.915 C-4.90957, -2.89567 -4.90997, -2.67351 -4.90856, -2.34155  C-4.90732, -2.11755 -4.90461, -1.83372 -4.89952, -1.55981 " /><path d="M-4.75449, -1.68862 C-4.79404, -2.30704 -4.83123, -2.74913 -4.86663, -2.87727 " /><path d="M-4.86663, -2.87727 Q-4.87315, -2.90159 -4.87958, -2.91269 " /><path d="M-4.87958, -2.91269 Q-4.88965, -2.93003 -4.89952, -2.915 " /><path d="M-4.75449, -1.68862 Q-4.75449, -1.58326 -4.75449, -1.47791  Q-4.75449, -1.36327 -4.75449, -1.24862  Q-4.75449, -1.12613 -4.75449, -1.00363  Q-4.75449, -0.87483 -4.75449, -0.746026  Q-4.75449, -0.612531 -4.75449, -0.479036  Q-4.75449, -0.20675 -4.75449, 0.0695799  Q-4.75449, 0.206944 -4.75449, 0.344308  Q-4.75449, 0.616875 -4.75449, 0.877377  Q-4.75449, 1.0032 -4.75449, 1.12901  Q-4.75449, 1.24774 -4.75449, 1.36646  Q-4.75449, 1.47658 -4.75449, 1.58671  Q-4.75449, 1.68687 -4.75449, 1.78702 " /><path d="M-3.87499, 2.45873 Q-3.88388, 2.45873 -3.89276, 2.44342 " /><path d="M-3.89276, 2.44342 C-3.92304, 2.39204 -3.95331, 2.20389 -3.98358, 1.90827  C-4.0423, 1.34069 -4.10102, 0.355775 -4.15973, -0.532448  C-4.1928, -1.03167 -4.22587, -1.49369 -4.25893, -1.83346  C-4.29762, -2.23354 -4.3363, -2.46069 -4.37499, -2.45873 " /><path d="M-4.37499, -2.45873 Q-4.38387, -2.45873 -4.39276, -2.44342 " /><path d="M-4.39276, -2.44342 C-4.42595, -2.38733 -4.45913, -2.16596 -4.49232, -1.82034  C-4.52619, -1.46929 -4.56005, -0.990781 -4.59392, -0.476987  C-4.64744, 0.335891 -4.70097, 1.22193 -4.75449, 1.78702 " /><path id= "16" d=" M -3.87499 2.45873 L -4.12498 2.45873 " />
<path d="M-4.12498, 2.45873 C-4.16285, 2.46054 -4.20075, 2.24304 -4.23864, 1.85796  C-4.26836, 1.55768 -4.29807, 1.15778 -4.32779, 0.718347  C-4.38998, -0.203129 -4.45217, -1.27819 -4.51436, -1.88845  C-4.54531, -2.19537 -4.57626, -2.39095 -4.60721, -2.44343 " /><path d="M-4.60721, -2.44343 Q-4.6161, -2.45873 -4.62498, -2.45873 " /><path d="M-4.62498, -2.45873 C-4.66815, -2.46174 -4.71132, -2.17618 -4.75449, -1.68862 " /><path d="M-5, 5 C-5, 4.9991 -5, 4.94171 -5, 4.82963  C-5, 4.71582 -5, 4.54755 -5, 4.33013 " /><path d="M-5, -4.33013 C-5, -4.54755 -5, -4.71582 -5, -4.82963  C-5, -4.94171 -5, -4.9991 -5, -5 " /><path d="M-5, 3.70531e-08 Q-5, -0.374236 -5, -0.745211  Q-5, -1.11435 -5, -1.47378  Q-5, -1.65024 -5, -1.82671  Q-5, -1.99806 -5, -2.16942  Q-5, -2.33471 -5, -2.5  Q-5, -2.6583 -5, -2.8166  Q-5, -2.96702 -5, -3.11745  Q-5, -3.25916 -5, -3.40086  Q-5, -3.53306 -5, -3.66526  Q-5, -3.78721 -5, -3.90916  Q-5, -4.02018 -5, -4.13119  Q-5, -4.23066 -5, -4.33013 " /><path d="M-5, 4.33013 Q-5, 4.23066 -5, 4.13119  Q-5, 4.02018 -5, 3.90916  Q-5, 3.78721 -5, 3.66526  Q-5, 3.53306 -5, 3.40086  Q-5, 3.25916 -5, 3.11745  Q-5, 2.96702 -5, 2.8166  Q-5, 2.6583 -5, 2.5  Q-5, 2.33471 -5, 2.16942  Q-5, 1.99806 -5, 1.82671  Q-5, 1.65024 -5, 1.47378  Q-5, 1.11435 -5, 0.745211  Q-5, 0.374236 -5, 3.70531e-08 " /><path d="M-2.87499, 2.45873 Q-2.88388, 2.45873 -2.89277, 2.44342 " /><path d="M-2.89277, 2.44342 C-2.92304, 2.39204 -2.95331, 2.20389 -2.98358, 1.90828  C-3.04231, 1.34067 -3.10103, 0.355684 -3.15974, -0.532572  C-3.19281, -1.03189 -3.22589, -1.49399 -3.25896, -1.83375  C-3.29764, -2.23366 -3.33631, -2.46069 -3.37499, -2.45873 " /><path d="M-3.37499, -2.45873 Q-3.38388, -2.45873 -3.39276, -2.44342 " /><path d="M-3.39276, -2.44342 C-3.42592, -2.38737 -3.45909, -2.1663 -3.49225, -1.82112  C-3.52605, -1.47098 -3.55984, -0.993858 -3.59364, -0.481312  C-3.65309, 0.422521 -3.71255, 1.41285 -3.772, 1.96167  C-3.80633, 2.28259 -3.84067, 2.45996 -3.87499, 2.45873 " /><path id= "28" d=" M -2.87499 2.45873 L -3.12498 2.45873 " />
<path d="M-3.12498, 2.45873 C-3.16286, 2.46054 -3.20075, 2.24304 -3.23864, 1.85796  C-3.26837, 1.5576 -3.29809, 1.15756 -3.32782, 0.717979  C-3.39011, -0.204982 -3.45239, -1.28183 -3.51468, -1.89153  C-3.54552, -2.1967 -3.57637, -2.39112 -3.60722, -2.44343 " /><path d="M-3.60722, -2.44343 Q-3.6161, -2.45873 -3.62498, -2.45873 " /><path d="M-3.62498, -2.45873 C-3.66568, -2.46112 -3.70637, -2.2087 -3.74707, -1.77005  C-3.77927, -1.42533 -3.81147, -0.968918 -3.84367, -0.480688  C-3.87443, -0.0145757 -3.90519, 0.478373 -3.93595, 0.919053  C-3.96673, 1.36061 -3.99752, 1.74795 -4.0283, 2.01884  C-4.05461, 2.25413 -4.08091, 2.39565 -4.10721, 2.44343 " /><path d="M-4.10721, 2.44343 Q-4.1161, 2.45873 -4.12498, 2.45873 " /><path d="M-5, 4.33013 C-4.99899, 4.78797 -4.89742, 5.24553 -4.6796, 5.7735 " /><path d="M-5, 3.70531e-08 C-4.99899, 0.915684 -4.89742, 1.83081 -4.6796, 2.88675 " /><path d="M-4.6796, 2.88675 C-4.89742, 3.41472 -4.99899, 3.87228 -5, 4.33013 " /><path d="M-5, -4.33013 C-4.99899, -3.87228 -4.89742, -3.41472 -4.6796, -2.88675 " /><path d="M-4.6796, -2.88675 C-4.89742, -1.83081 -4.99899, -0.915684 -5, 3.70531e-08 " /><path d="M-4.6796, -5.7735 C-4.89742, -5.24553 -4.99899, -4.78797 -5, -4.33013 " /><path d="M-1.875, 2.45873 Q-1.88388, 2.45873 -1.89277, 2.44342 " /><path d="M-1.89277, 2.44342 C-1.92293, 2.39222 -1.95309, 2.20528 -1.98325, 1.91149  C-2.04206, 1.34462 -2.10085, 0.358437 -2.15965, -0.531148  C-2.19273, -1.03072 -2.22582, -1.49314 -2.25891, -1.83317  C-2.29761, -2.23343 -2.3363, -2.46069 -2.37499, -2.45873 " /><path d="M-2.37499, -2.45873 Q-2.38388, -2.45873 -2.39276, -2.44342 " /><path d="M-2.39276, -2.44342 C-2.42583, -2.38752 -2.45891, -2.16752 -2.49198, -1.82394  C-2.52582, -1.47396 -2.55967, -0.996421 -2.59351, -0.48321  C-2.65347, 0.428165 -2.71342, 1.42748 -2.77337, 1.97435  C-2.80725, 2.28736 -2.84113, 2.4599 -2.87499, 2.45873 " /><path id= "43" d=" M -1.875 2.45873 L -2.12499 2.45873 " />
<path d="M-2.12499, 2.45873 C-2.16286, 2.46054 -2.20076, 2.24304 -2.23865, 1.85796  C-2.26838, 1.55752 -2.29811, 1.15734 -2.32785, 0.717626  C-2.38967, -0.198407 -2.45149, -1.26634 -2.51332, -1.87797  C-2.54462, -2.19086 -2.57592, -2.39038 -2.60722, -2.44343 " /><path d="M-2.60722, -2.44343 Q-2.6161, -2.45873 -2.62499, -2.45873 " /><path d="M-2.62499, -2.45873 C-2.66574, -2.46113 -2.70648, -2.20805 -2.74723, -1.76839  C-2.77949, -1.42263 -2.81176, -0.964808 -2.84402, -0.475369  C-2.87449, -0.0135605 -2.90495, 0.474278 -2.93541, 0.911299  C-2.96645, 1.35718 -2.9975, 1.74834 -3.02854, 2.02091  C-3.05477, 2.25498 -3.08099, 2.39582 -3.10722, 2.44343 " /><path d="M-3.10722, 2.44343 Q-3.1161, 2.45873 -3.12498, 2.45873 " /><path d="M-0.320395, 5.7735 C-0.102576, 5.24553 -0.00100761, 4.78797 -1.38778e-17, 4.33013 " /><path id= "49" d=" M -0.320395 2.88675 L -4.6796 2.88675 " />
<path d="M0, 4.33013 C-0.0010076, 3.87228 -0.102576, 3.41472 -0.320395, 2.88675 " /><path d="M-0.320395, 2.88675 C-0.102576, 1.83081 -0.00100761, 0.915684 1.38778e-17, 3.70531e-08 " /><path id= "52" d=" M -0.320395 -2.88675 L -4.6796 -2.88675 " />
<path d="M-1.38778e-17, 3.70531e-08 C-0.0010076, -0.915684 -0.102576, -1.83081 -0.320395, -2.88675 " /><path d="M-0.320395, -2.88675 C-0.102576, -3.41472 -0.00100761, -3.87228 1.38778e-17, -4.33013 " /><path d="M0, -4.33013 C-0.0010076, -4.78797 -0.102576, -5.24553 -0.320395, -5.7735 " /><path d="M-0.874998, 2.45873 Q-0.883883, 2.45873 -0.892769, 2.44342 " /><path d="M-0.892769, 2.44342 C-0.922933, 2.39222 -0.95309, 2.20528 -0.983255, 1.9115  C-1.04205, 1.34468 -1.10084, 0.358627 -1.15963, -0.530898  C-1.19271, -1.03028 -1.22578, -1.49255 -1.25885, -1.83258  C-1.29757, -2.2332 -1.33628, -2.46069 -1.37499, -2.45873 " /><path d="M-1.37499, -2.45873 Q-1.38388, -2.45873 -1.39276, -2.44342 " /><path d="M-1.39276, -2.44342 C-1.42598, -2.38729 -1.4592, -2.16559 -1.49241, -1.81948  C-1.526, -1.47106 -1.55959, -0.99735 -1.59318, -0.488201  C-1.65326, 0.424551 -1.71332, 1.42668 -1.77339, 1.9745  C-1.80726, 2.28741 -1.84114, 2.4599 -1.875, 2.45873 " /><path id= "60" d=" M -0.874998 2.45873 L -1.12499 2.45873 " />
<path d="M-1.12499, 2.45873 C-1.16292, 2.46055 -1.20087, 2.24239 -1.23882, 1.85626  C-1.26772, 1.5639 -1.29661, 1.17753 -1.32551, 0.752186  C-1.38868, -0.179607 -1.45184, -1.2781 -1.51501, -1.89475  C-1.54575, -2.19808 -1.57649, -2.39129 -1.60722, -2.44343 " /><path d="M-1.60722, -2.44343 Q-1.61611, -2.45873 -1.62499, -2.45873 " /><path d="M-1.62499, -2.45873 C-1.66516, -2.461 -1.70532, -2.21537 -1.74549, -1.78697  C-1.7782, -1.4405 -1.81091, -0.977564 -1.84361, -0.481647  C-1.87464, -0.0115341 -1.90567, 0.485928 -1.93669, 0.929585  C-1.96736, 1.36866 -1.99803, 1.75334 -2.0287, 2.02228  C-2.05488, 2.25554 -2.08105, 2.39592 -2.10722, 2.44343 " /><path d="M-2.10722, 2.44343 Q-2.1161, 2.45873 -2.12499, 2.45873 " /><path d="M0, 5 C0, 4.9991 0, 4.94171 0, 4.82963  C0, 4.71582 0, 4.54755 0, 4.33013 " /><path d="M0, 4.33013 Q0, 4.23066 0, 4.13119  Q0, 4.02018 0, 3.90916  Q0, 3.78721 0, 3.66526  Q0, 3.53306 0, 3.40086  Q0, 3.25916 0, 3.11745  Q0, 2.96702 0, 2.8166  Q0, 2.6583 0, 2.5  Q0, 2.33471 0, 2.16942  Q0, 1.99806 0, 1.82671  Q0, 1.65024 0, 1.47378  Q0, 1.11435 0, 0.745211  Q0, 0.374236 0, 3.70531e-08 " /><path d="M0, 3.70531e-08 Q0, -0.374236 0, -0.745211  Q0, -1.11435 0, -1.47378  Q0, -1.65024 0, -1.82671  Q0, -1.99806 0, -2.16942  Q0, -2.33471 0, -2.5  Q0, -2.6583 0, -2.8166  Q0, -2.96702 0, -3.11745  Q0, -3.25916 0, -3.40086  Q0, -3.53306 0, -3.66526  Q0, -3.78721 0, -3.90916  Q0, -4.02018 0, -4.13119  Q0, -4.23066 0, -4.33013 " /><path d="M0, -4.33013 C0, -4.54755 0, -4.71582 0, -4.82963  C0, -4.94171 0, -4.9991 0, -5 " /><path d="M-0.245513, -1.68887 C-0.288674, -2.17627 -0.331835, -2.46174 -0.374997, -2.45873 " /><path d="M-0.374997, -2.45873 Q-0.383881, -2.45873 -0.392766, -2.44342 " /><path d="M-0.392766, -2.44342 C-0.425948, -2.38734 -0.45913, -2.16605 -0.492311, -1.82053  C-0.526167, -1.46964 -0.56002, -0.991357 -0.593875, -0.477762  C-0.653575, 0.430078 -0.71327, 1.42406 -0.772967, 1.97056  C-0.806979, 2.28594 -0.840996, 2.45992 -0.874998, 2.45873 " /><path d="M-0.100481, -2.91498 Q-0.110359, -2.93001 -0.120425, -2.91266 " /><path d="M-0.120425, -2.91266 Q-0.12686, -2.90156 -0.133375, -2.87724 " /><path d="M-0.133375, -2.87724 C-0.16878, -2.74911 -0.205959, -2.30714 -0.245513, -1.68887 " /><path d="M-0.245513, 1.78687 C-0.300396, 1.20747 -0.355281, 0.290083 -0.410168, -0.538976  C-0.445013, -1.06483 -0.479854, -1.54848 -0.5147, -1.8916  C-0.545542, -2.19673 -0.576385, -2.39112 -0.607227, -2.44342 " /><path d="M-0.607227, -2.44342 Q-0.616112, -2.45873 -0.624997, -2.45873 " /><path d="M-0.624997, -2.45873 C-0.665655, -2.46111 -0.70631, -2.20919 -0.74697, -1.77128  C-0.77948, -1.4235 -0.811992, -0.961715 -0.8445, -0.468244  C-0.87499, -0.00578276 -0.905477, 0.482345 -0.935967, 0.919124  C-0.966819, 1.36169 -0.997678, 1.74977 -1.02853, 2.02075  C-1.05476, 2.25491 -1.08099, 2.3958 -1.10722, 2.44343 " /><path d="M-1.10722, 2.44343 Q-1.11611, 2.45873 -1.12499, 2.45873 " /><path d="M-0.245513, 1.78687 Q-0.245513, 1.68671 -0.245513, 1.58654  Q-0.245513, 1.4764 -0.245513, 1.36626  Q-0.245513, 1.24753 -0.245513, 1.1288  Q-0.245513, 1.00297 -0.245513, 0.877139  Q-0.245513, 0.745795 -0.245513, 0.614451  Q-0.245513, 0.345249 -0.245513, 0.0692952  Q-0.245513, -0.207045 -0.245513, -0.479335  Q-0.245513, -0.61283 -0.245513, -0.746325  Q-0.245513, -0.875128 -0.245513, -1.00393  Q-0.245513, -1.12642 -0.245513, -1.24891  Q-0.245513, -1.36355 -0.245513, -1.47819  Q-0.245513, -1.58353 -0.245513, -1.68887 " /><path d="M-0.207311, 2.60131 C-0.219778, 2.55719 -0.232505, 2.25998 -0.245513, 1.78687 " /><path d="M0, 3.375 L0, 3.29038  L0, 3.04077  L0, 2.63868  L0, 2.10428  L0, 1.46436  L0, 0.751008  L0, 2.22045e-16  L0, -0.751008  L0, -1.46436  L0, -2.10428  L0, -2.63868  L0, -3.04077  L0, -3.29038  L0, -3.375 " /><path d="M0, -3.375 L0, -3.29038  L0, -3.04077  L0, -2.63868  L0, -2.10428  L0, -1.46436  L0, -0.751008  L0, -6.66134e-16  L0, 0.751008  L0, 1.46436  L0, 2.10428  L0, 2.63868  L0, 3.04077  L0, 3.29038  L0, 3.375 " /><path d="M-0.10048, -1.55977 C-0.0953906, -1.83363 -0.0926799, -2.1174 -0.0914395, -2.34139  C-0.0900366, -2.67305 -0.0904317, -2.89576 -0.100481, -2.91498 " /><path id= "84" d=" M 0 3.375 L -0.207311 2.60131 " />
<path d="M-0.207311, 2.60131 Q-0.20466, 2.6112 -0.202024, 2.60666 " /><path d="M-0.202024, 2.60666 C-0.185831, 2.58424 -0.170063, 2.12156 -0.154665, 1.40775  C-0.136088, 0.552595 -0.118053, -0.634778 -0.10048, -1.55977 " /></g>
<g   fill="none"
   stroke="rgb(165, 165, 165)"
   stroke-dasharray="1.2,0.8"
   stroke-linecap="butt"
   stroke-linejoin="miter"
   stroke-width="0.25"
   transform="scale(1, -1)"
  >
<path id= "1" d=" M -4.86663 -2.87727 L -5 -3.375 " />
<path d="M-3.89276, 2.44342 L-3.57709, 2.98742 " /><path d="M-4.39276, -2.44342 L-4.07708, -2.98742 " /><path id= "4" d=" M -4.37499 -2.45873 L -4.62498 -2.45873 " />
<path d="M-4.60721, -2.44343 L-4.87958, -2.91269 " /><path d="M-4.57709, 2.98742 Q-4.56592, 3.00629 -4.55293, 3.01667  Q-4.52871, 3.0361 -4.5, 3.03609 " /><path d="M-4.79797, 2.60665 L-4.57709, 2.98742 " /><path d="M-3.57709, 2.98742 Q-3.56592, 3.00629 -3.55293, 3.01667  Q-3.52871, 3.0361 -3.5, 3.03609 " /><path d="M-4.07708, -2.98742 C-4.05573, -3.02493 -4.02337, -3.03633 -3.99999, -3.03609  C-3.98627, -3.03608 -3.97315, -3.03268 -3.96063, -3.0259  C-3.94658, -3.01868 -3.93401, -3.00586 -3.92292, -2.98742 " /><path d="M-4.42292, 2.98743 Q-4.43408, 3.00629 -4.44707, 3.01667  Q-4.47129, 3.0361 -4.5, 3.03609 " /><path d="M-2.89277, 2.44342 L-2.57709, 2.98742 " /><path d="M-3.39276, -2.44342 L-3.07708, -2.98742 " /><path id= "13" d=" M -3.37499 -2.45873 L -3.62498 -2.45873 " />
<path d="M-3.92292, -2.98742 L-3.60722, -2.44343 " /><path d="M-4.42292, 2.98743 L-4.10721, 2.44343 " /><path d="M-2.57709, 2.98742 Q-2.56592, 3.00628 -2.55293, 3.01667  Q-2.52871, 3.0361 -2.5, 3.03609 " /><path d="M-3.07708, -2.98742 C-3.05573, -3.02493 -3.02337, -3.03633 -2.99999, -3.03609  C-2.98627, -3.03608 -2.97315, -3.03268 -2.96063, -3.02589  C-2.94658, -3.01868 -2.93401, -3.00586 -2.92292, -2.98742 " /><path d="M-3.42292, 2.98742 Q-3.43408, 3.00629 -3.44707, 3.01667  Q-3.47129, 3.0361 -3.5, 3.03609 " /><path d="M-1.89277, 2.44342 L-1.57709, 2.98742 " /><path d="M-2.39276, -2.44342 L-2.07708, -2.98741 " /><path id= "21" d=" M -2.37499 -2.45873 L -2.62499 -2.45873 " />
<path d="M-2.92292, -2.98742 L-2.60722, -2.44343 " /><path d="M-3.42292, 2.98742 L-3.10722, 2.44343 " /><path d="M-1.57709, 2.98742 Q-1.56592, 3.00628 -1.55293, 3.01666  Q-1.52871, 3.03609 -1.5, 3.03609 " /><path d="M-2.07708, -2.98741 C-2.05573, -3.02492 -2.02337, -3.03632 -1.99999, -3.03609  C-1.98627, -3.03608 -1.97315, -3.03268 -1.96063, -3.02589  C-1.94658, -3.01868 -1.93401, -3.00586 -1.92292, -2.98742 " /><path d="M-2.42292, 2.98742 Q-2.43408, 3.00629 -2.44707, 3.01667  Q-2.47129, 3.0361 -2.5, 3.03609 " /><path d="M-0.892769, 2.44342 L-0.577086, 2.98741 " /><path d="M-1.39276, -2.44342 L-1.07708, -2.98741 " /><path id= "29" d=" M -1.37499 -2.45873 L -1.62499 -2.45873 " />
<path d="M-1.92292, -2.98742 L-1.60722, -2.44343 " /><path d="M-2.42292, 2.98742 L-2.10722, 2.44343 " /><path d="M-0.577086, 2.98741 Q-0.565919, 3.00628 -0.552933, 3.01666  Q-0.528705, 3.03609 -0.499998, 3.03609 " /><path d="M-1.07708, -2.98741 C-1.05573, -3.02492 -1.02337, -3.03632 -0.999991, -3.03608  C-0.986268, -3.03607 -0.973146, -3.03268 -0.960626, -3.02589  C-0.946579, -3.01868 -0.934009, -3.00585 -0.922916, -2.98741 " /><path d="M-1.42292, 2.98742 Q-1.43408, 3.00628 -1.44707, 3.01667  Q-1.47129, 3.03609 -1.5, 3.03609 " /><path d="M-0.392766, -2.44342 L-0.120425, -2.91266 " /><path id= "36" d=" M -0.374997 -2.45873 L -0.624996 -2.45873 " />
<path d="M-0.922916, -2.98741 L-0.607227, -2.44342 " /><path d="M-1.42292, 2.98742 L-1.10722, 2.44343 " /><path d="M-0.422916, 2.98742 Q-0.434083, 3.00628 -0.447069, 3.01666  Q-0.471293, 3.03609 -0.499998, 3.03609 " /><path id= "40" d=" M -0.133375 -2.87724 L -3.59869e-17 -3.375 " />
<path d="M-0.422916, 2.98742 L-0.202024, 2.60666 " /></g>
<g   fill="none"
   stroke="rgb(0, 0, 0)"
   stroke-linecap="butt"
   stroke-linejoin="miter"
   stroke-width="0.35"
   transform="scale(1, -1)"
  >
<path id= "1" d=" M -5 -5 L -4.6796 -5.7735 " />
<path id= "2" d=" M -3.61511e-13 -5 L -0.320395 -5.7735 " />
</g>
<g   fill="none"
   stroke="rgb(0, 0, 0)"
   stroke-linecap="butt"
   stroke-linejoin="miter"
   stroke-width="0.35"
   transform="scale(1, -1)"
  >
<path d="M-5, 4.33013 C-5, 4.54755 -5, 4.71582 -5, 4.82963  C-5, 4.94171 -5, 4.9991 -5, 5 " /><path d="M-5, -4.58002e-08 Q-5, 0.562675 -5, 1.1126  Q-5, 1.29319 -5, 1.47378  Q-5, 1.65024 -5, 1.82671  Q-5, 1.99806 -5, 2.16942  Q-5, 2.33471 -5, 2.5  Q-5, 2.6583 -5, 2.8166  Q-5, 2.96702 -5, 3.11745  Q-5, 3.25916 -5, 3.40086  Q-5, 3.53306 -5, 3.66526  Q-5, 3.78721 -5, 3.90916  Q-5, 4.02018 -5, 4.13119  Q-5, 4.23066 -5, 4.33013 " /><path d="M-5, -4.33013 Q-5, -4.23066 -5, -4.13119  Q-5, -4.02018 -5, -3.90916  Q-5, -3.78721 -5, -3.66526  Q-5, -3.53306 -5, -3.40086  Q-5, -3.25916 -5, -3.11745  Q-5, -2.96702 -5, -2.8166  Q-5, -2.6583 -5, -2.5  Q-5, -2.33471 -5, -2.16942  Q-5, -1.99806 -5, -1.82671  Q-5, -1.65024 -5, -1.47378  Q-5, -1.29319 -5, -1.1126  Q-5, -0.562676 -5, -4.58002e-08 " /><path d="M-5, -5 C-5, -4.9991 -5, -4.94171 -5, -4.82963  C-5, -4.71582 -5, -4.54755 -5, -4.33013 " /><path id= "5" d=" M -5 5 L -4.6796 5.7735 " />
<path d="M-5, -4.33013 C-4.99899, -4.78797 -4.89742, -5.24553 -4.6796, -5.7735 " /><path d="M-4.6796, -2.88675 C-4.89742, -3.41472 -4.99899, -3.87228 -5, -4.33013 " /><path d="M-5, -4.58002e-08 C-4.99899, -0.915684 -4.89742, -1.83081 -4.6796, -2.88675 " /><path d="M-4.6796, 2.88675 C-4.89742, 1.83081 -4.99899, 0.915684 -5, -4.58002e-08 " /><path d="M-5, 4.33013 C-4.99899, 3.87228 -4.89742, 3.41472 -4.6796, 2.88675 " /><path d="M-4.6796, 5.7735 C-4.89742, 5.24553 -4.99899, 4.78797 -5, 4.33013 " /><path id= "12" d=" M -4.6796 5.7735 L -0.320395 5.7735 " />
<path id= "13" d=" M -0.320395 -5.7735 L -4.6796 -5.7735 " />
<path d="M-0.320395, -5.7735 C-0.102576, -5.24553 -0.0010076, -4.78797 1.38778e-17, -4.33013 " /><path id= "15" d=" M -0.320395 -2.88675 L -4.6796 -2.88675 " />
<path d="M-1.38778e-17, -4.33013 C-0.00100761, -3.87228 -0.102576, -3.41472 -0.320395, -2.88675 " /><path d="M-0.320395, -2.88675 C-0.102576, -1.83081 -0.00100761, -0.915684 1.38778e-17, -4.58002e-08 " /><path id= "18" d=" M -0.320395 2.88675 L -4.6796 2.88675 " />
<path d="M0, -4.58002e-08 C-0.0010076, 0.915684 -0.102576, 1.83081 -0.320395, 2.88675 " /><path d="M-0.320395, 2.88675 C-0.102576, 3.41472 -0.00100761, 3.87228 0, 4.33013 " /><path d="M0, 4.33013 C-0.0010076, 4.78797 -0.102576, 5.24553 -0.320395, 5.7735 " /><path id= "22" d=" M -0.320395 5.7735 L -4.73791e-13 5 " />
<path d="M0, -5 C0, -4.9991 0, -4.94171 0, -4.82963  C0, -4.71582 0, -4.54755 0, -4.33013 " /><path d="M0, -4.33013 Q0, -4.23066 0, -4.13119  Q0, -4.02018 0, -3.90916  Q0, -3.78721 0, -3.66526  Q0, -3.53306 0, -3.40086  Q0, -3.25916 0, -3.11745  Q0, -2.96702 0, -2.8166  Q0, -2.6583 0, -2.5  Q0, -2.33471 0, -2.16942  Q0, -1.99806 0, -1.82671  Q0, -1.65024 0, -1.47378  Q0, -1.29319 0, -1.1126  Q0, -0.562676 0, -4.58002e-08 " /><path d="M0, -4.58002e-08 Q0, 0.562675 0, 1.1126  Q0, 1.29319 0, 1.47378  Q0, 1.65024 0, 1.82671  Q0, 1.99806 0, 2.16942  Q0, 2.33471 0, 2.5  Q0, 2.6583 0, 2.8166  Q0, 2.96702 0, 3.11745  Q0, 3.25916 0, 3.40086  Q0, 3.53306 0, 3.66526  Q0, 3.78721 0, 3.90916  Q0, 4.02018 0, 4.13119  Q0, 4.23066 0, 4.33013 " /><path d="M0, 4.33013 C0, 4.54755 0, 4.71582 0, 4.82963  C0, 4.94171 0, 4.9991 0, 5 " /></g>

</svg>
