<svg xmlns="http://www.w3.org/2000/svg" viewBox="-6.69726 -5.92376 13.39452 11.84752">
<rect width="100%" height="100%" fill="white"/>
<g   fill="none"
   stroke="rgb(165, 165, 165)"
   stroke-dasharray="1.2,0.8"
   stroke-linecap="butt"
   stroke-linejoin="miter"
   stroke-width="0.25"
   transform="scale(1, -1)"
  >
<path d="M2.45873, 4.38424e-07 C2.46025, 0.559636 2.26236, 1.11703 1.90827, 1.55044  C1.62616, 1.89867 1.24669, 2.16682 0.824249, 2.31646  C0.391814, 2.47107 -0.0842527, 2.50052 -0.532448, 2.40039  C-1.03167, 2.29074 -1.49369, 2.02008 -1.83346, 1.63823  C-2.23962, 1.18677 -2.46729, 0.580377 -2.45859, -0.0268369  C-2.45401, -0.622678 -2.22231, -1.21294 -1.82034, -1.6528  C-1.46929, -2.04116 -0.990781, -2.31161 -0.476987, -2.41202  C-0.0431954, -2.49842 0.413707, -2.46431 0.82986, -2.31446  C1.19216, -2.18492 1.523, -1.96865 1.78702, -1.68877 " /><path d="M2.45873, 3.28818e-07 C2.46025, 0.559635 2.26236, 1.11703 1.90828, 1.55044  C1.62616, 1.89866 1.24669, 2.16682 0.824252, 2.31646  C0.391776, 2.47108 -0.0843398, 2.50053 -0.532572, 2.40036  C-1.03189, 2.29066 -1.49399, 2.01989 -1.83375, 1.63791  C-2.24057, 1.18558 -2.46818, 0.577771 -2.45854, -0.030516  C-2.45307, -0.624728 -2.22178, -1.21308 -1.82112, -1.65194  C-1.47098, -2.03966 -0.993858, -2.31003 -0.481312, -2.41116  C-0.0439841, -2.4991 0.417062, -2.46444 0.836331, -2.31213  C1.28119, -2.15204 1.67726, -1.85998 1.96167, -1.4823  C2.28259, -1.05964 2.45996, -0.530681 2.45873, -1.11022e-16 " /><path d="M-2.43871, -0.313154 Q-2.4184, -0.471241 -2.37787, -0.625384 " /><path d="M-2.25986, -0.968717 Q-2.18089, -1.15286 -2.07319, -1.32184 " /><path d="M-2.06965, -1.32737 Q-1.99475, -1.44414 -1.9072, -1.55176 " /><path d="M-1.68862, -1.78716 C-1.35519, -2.10316 -0.931327, -2.32216 -0.480688, -2.41129  C-0.0145757, -2.50502 0.478373, -2.45896 0.919053, -2.28051  C1.24649, -2.14881 1.5448, -1.94544 1.78702, -1.68877 " /><path d="M2.45873, 2.19212e-07 C2.46023, 0.557927 2.26358, 1.11365 1.91149, 1.54647  C1.62795, 1.89798 1.24534, 2.16833 0.819323, 2.31821  C0.388621, 2.47116 -0.0850345, 2.50008 -0.531148, 2.40068  C-1.03072, 2.29124 -1.49314, 2.02057 -1.83317, 1.63856  C-2.23792, 1.1888 -2.46557, 0.585226 -2.45865, -0.0197984  C-2.45578, -0.61621 -2.22533, -1.20768 -1.82394, -1.64882  C-1.47396, -2.03771 -0.996421, -2.3091 -0.48321, -2.41078  C-0.0460717, -2.49904 0.414869, -2.46479 0.834165, -2.31291  C1.28656, -2.15063 1.68858, -1.8518 1.97435, -1.46537  C2.28736, -1.0456 2.4599, -0.523608 2.45873, 2.19212e-07 " /><path d="M2.45873, 3.28821e-07 C2.46054, 0.585842 2.24304, 1.16886 1.85796, 1.61039  C1.55752, 1.95809 1.15734, 2.21823 0.717626, 2.35168  C0.309475, 2.47677 -0.13141, 2.49257 -0.547469, 2.39701  C-1.25928, 2.23871 -1.8857, 1.74409 -2.20475, 1.08832 " /><path d="M-2.06925, -1.328 Q-1.99167, -1.44887 -1.90055, -1.5599 " /><path d="M-1.68862, -1.78716 C-1.3539, -2.1044 -0.927981, -2.32388 -0.475369, -2.41234  C-0.0135605, -2.50413 0.474278, -2.45884 0.911299, -2.28362  C1.24177, -2.15201 1.54289, -1.94747 1.78702, -1.68877 " /><path d="M5.7735, 2.49599e-13 C5.24553, 0.914468 4.78797, 1.70699 4.33013, 2.5 " /><path d="M4.33013, 2.5 C3.87228, 3.29301 3.41472, 4.08553 2.88675, 5 " /><path d="M2.88675, 5 C1.83081, 5 0.915684, 5 3.70531e-08, 5 " /><path d="M3.70531e-08, 5 C-0.915684, 5 -1.83081, 5 -2.88675, 5 " /><path d="M-2.88675, 5 C-3.41472, 4.08553 -3.87228, 3.29301 -4.33013, 2.5 " /><path d="M-4.33013, 2.5 C-4.78797, 1.70699 -5.24553, 0.914468 -5.7735, 1.93179e-13 " /><path d="M-5.7735, -3.07088e-13 C-5.24553, -0.914468 -4.78797, -1.70699 -4.33013, -2.5 " /><path d="M-4.33013, -2.5 C-3.87228, -3.29301 -3.41472, -4.08553 -2.88675, -5 " /><path d="M-2.88675, -5 C-1.83081, -5 -0.915684, -5 -4.58002e-08, -5 " /><path d="M-4.58002e-08, -5 C0.915684, -5 1.83081, -5 2.88675, -5 " /><path d="M2.88675, -5 C3.41472, -4.08553 3.87228, -3.29301 4.33013, -2.5 " /><path d="M4.33013, -2.5 C4.78797, -1.70699 5.24553, -0.914468 5.7735, -2.498e-13 " /><path d="M2.45873, 2.19212e-07 C2.46023, 0.557923 2.26359, 1.11364 1.9115, 1.54646  C1.62796, 1.89797 1.24536, 2.16832 0.819345, 2.3182  C0.388717, 2.47113 -0.0848497, 2.50007 -0.530898, 2.40073  C-1.03028, 2.29139 -1.49255, 2.02094 -1.83258, 1.63921  C-2.24165, 1.18508 -2.46983, 0.573858 -2.45845, -0.0372418  C-2.45136, -0.629998 -2.21959, -1.21633 -1.81948, -1.65374  C-1.47106, -2.03876 -0.99735, -2.30778 -0.488201, -2.40978  C-0.0495702, -2.49928 0.413299, -2.46537 0.834201, -2.31289  C1.28666, -2.15059 1.68872, -1.85169 1.9745, -1.46517  C2.28741, -1.04543 2.4599, -0.523525 2.45873, 1.10063e-07 " /><path d="M2.45873, 2.19213e-07 C2.46093, 0.616171 2.21948, 1.22872 1.79744, 1.67768  C1.5131, 1.98301 1.14955, 2.21367 0.752186, 2.34085  C0.336303, 2.47509 -0.115568, 2.49516 -0.541714, 2.39832  C-1.06813, 2.28075 -1.55201, 1.98343 -1.89475, 1.56694  C-2.27064, 1.11528 -2.47464, 0.525193 -2.45795, -0.0621943  C-2.44474, -0.66251 -2.20085, -1.25377 -1.78697, -1.68881  C-1.4405, -2.05691 -0.977564, -2.31307 -0.481647, -2.4111  C-0.0115341, -2.50585 0.485928, -2.45831 0.929585, -2.27623  C1.36866, -2.09777 1.75334, -1.78876 2.02228, -1.39849  C2.30524, -0.990978 2.45968, -0.496108 2.45873, 2.19213e-07 " /><path d="M5 0 A5 5 0 0 1 4.33013 2.5" /><path d="M4.33013 2.5 A5 5 0 0 1 3.70531e-08 5" /><path d="M3.70531e-08 5 A5 5 0 0 1 -4.33013 2.5" /><path d="M-4.33013 2.5 A5 5 0 0 1 -4.33013 -2.5" /><path d="M-4.33013 -2.5 A5 5 0 0 1 -4.58002e-08 -5" /><path d="M-4.58002e-08 -5 A5 5 0 0 1 4.33013 -2.5" /><path d="M4.33013 -2.5 A5 5 0 0 1 5 -1.22465e-15" /><path d="M-1.68887, 1.78692 C-2.18567, 1.32182 -2.47214, 0.64263 -2.45844, -0.0378301  C-2.45121, -0.629866 -2.21987, -1.21545 -1.82053, -1.65259  C-1.46964, -2.04087 -0.991357, -2.31132 -0.477762, -2.41187  C-0.0441329, -2.49838 0.412632, -2.46446 0.828729, -2.31486  C1.28133, -2.15371 1.68391, -1.856 1.97056, -1.47046  C2.28594, -1.04981 2.45992, -0.525735 2.45873, -1.33227e-15 " /><path d="M-2.91498, -0.709155 C-2.95201, -0.183925 -2.84388, 0.346583 -2.60276, 0.801934  C-2.38907, 1.20829 -2.07012, 1.55337 -1.68887, 1.78692 " /><path d="M1.78687, 1.68892 C1.49731, 1.996 1.12713, 2.22611 0.723606, 2.34984 " /><path d="M0.720532, 2.35079 L0.679691, 2.36292 " /><path d="M0.588566, 2.38725 C0.220366, 2.47837 -0.168967, 2.4824 -0.538976, 2.39893  C-1.06483, 2.28212 -1.54848, 1.98599 -1.8916, 1.57074  C-2.27135, 1.11636 -2.47665, 0.521034 -2.45771, -0.070834  C-2.44232, -0.675823 -2.19248, -1.27071 -1.77128, -1.70527  C-1.4235, -2.06794 -0.961715, -2.31902 -0.468244, -2.41374  C-0.00578276, -2.50423 0.482345, -2.45735 0.919124, -2.28048  C1.36169, -2.10298 1.74977, -1.79305 2.02075, -1.40069  C2.30467, -0.992758 2.45968, -0.497004 2.45873, 1.10064e-07 " /><path d="M1.78687 1.68892 A2.45873 2.45873 0 0 1 -1.68887 1.78692" /><path d="M2.60131, -1.22125e-15 C2.55719, 0.64369 2.25998, 1.26254 1.78687, 1.68892 " /><circle cx ="0" cy ="0" r ="3.375" /><path d="M-1.55977, -2.56264 C-1.9307, -2.37063 -2.3075, -2.03214 -2.55512, -1.63987 " /><path d="M-2.55512, -1.63987 C-2.61517, -1.54616 -2.6685, -1.45076 -2.71511, -1.35368  C-2.7955, -1.18721 -2.85488, -1.01518 -2.88787, -0.87156  C-2.90304, -0.804839 -2.91207, -0.750704 -2.91498, -0.709155 " /><path d="M2.60131, 0 C2.63497, -0.457396 2.54432, -0.924812 2.34257, -1.34087  C2.13458, -1.77257 1.80806, -2.14795 1.40775, -2.41782  C0.99075, -2.70051 0.494777, -2.8676 -0.0115899, -2.89779  C-0.543598, -2.93095 -1.08531, -2.81298 -1.55977, -2.56264 " /></g>
<g   fill="none"
   stroke="rgb(165, 165, 165)"
   stroke-dasharray="1.2,0.8"
   stroke-linecap="butt"
   stroke-linejoin="miter"
   stroke-width="0.25"
   transform="scale(1, -1)"
  >
<path d="M3.03609, -3.65401e-08 C3.0388, 0.760177 2.74122, 1.51587 2.22094, 2.07009  C1.83721, 2.48301 1.33592, 2.78497 0.791493, 2.93111  C0.0363651, 3.13815 -0.797033, 3.03547 -1.47933, 2.65132  C-1.91387, 2.40945 -2.287, 2.05864 -2.55517, 1.63982 " /><path d="M3.03609, -2.92313e-08 C3.03871, 0.753666 2.74639, 1.50303 2.23414, 2.05586  C1.84452, 2.48059 1.33117, 2.78991 0.773596, 2.93591  C-0.0355072, 3.15313 -0.931383, 3.01264 -1.63515, 2.55816  C-2.26972, 2.15561 -2.74284, 1.50833 -2.9338, 0.781521  C-3.11587, 0.105553 -3.0528, -0.632622 -2.7587, -1.2679  C-2.45011, -1.94522 -1.88216, -2.49888 -1.19721, -2.79011  C-0.500262, -3.09205 0.310759, -3.11681 1.02481, -2.85791  C1.60935, -2.64981 2.12688, -2.25543 2.48289, -1.74736  C2.84097, -1.24076 3.03752, -0.620475 3.03609, -3.65401e-08 " /><path d="M3.03609, -2.19229e-08 C3.03871, 0.753665 2.74638, 1.50302 2.23414, 2.05586  C1.84452, 2.48059 1.33117, 2.78991 0.773596, 2.93591  C-0.0355147, 3.15313 -0.931399, 3.01264 -1.63516, 2.55814  C-2.26918, 2.15593 -2.74204, 1.50944 -2.9333, 0.78339  C-3.1158, 0.107538 -3.0532, -0.630676 -2.75951, -1.26615  C-2.43987, -1.9696 -1.83992, -2.53909 -1.12079, -2.82167  C-0.450137, -3.09041 0.316947, -3.1069 0.998519, -2.86721  C1.53011, -2.68295 2.00777, -2.34697 2.36088, -1.90896  C2.79531, -1.37459 3.03794, -0.688681 3.03609, -2.92313e-08 " /><path d="M3.03609, -1.46149e-08 C3.03871, 0.753665 2.74638, 1.50302 2.23414, 2.05585  C1.84452, 2.48059 1.33117, 2.7899 0.773592, 2.9359  C-0.0355309, 3.15313 -0.93143, 3.01263 -1.6352, 2.55812  C-2.00024, 2.32514 -2.31435, 2.01271 -2.54928, 1.64895 " /><path d="M-2.56099, 1.63071 C-2.74497, 1.34098 -2.87646, 1.02913 -2.95546, 0.69515  C-3.11, 0.045127 -3.04055, -0.655142 -2.76133, -1.26214  C-2.4465, -1.95747 -1.85818, -2.52275 -1.15082, -2.80953  C-0.456671, -3.09664 0.344582, -3.11111 1.04864, -2.84924  C1.62745, -2.63769 2.13867, -2.24304 2.49016, -1.73697  C2.84368, -1.23232 3.03748, -0.616247 3.03609, -2.19229e-08 " /><path d="M3.03609, -7.30724e-09 C3.03871, 0.753664 2.74638, 1.50302 2.23414, 2.05585  C1.84452, 2.48059 1.33117, 2.7899 0.773598, 2.9359  C-0.0354956, 3.15312 -0.931361, 3.01264 -1.63512, 2.55817  C-2.27032, 2.15524 -2.74372, 1.5071 -2.93435, 0.779448  C-3.11505, 0.106576 -3.053, -0.627755 -2.76196, -1.26077  C-2.43901, -1.97552 -1.82665, -2.55241 -1.09393, -2.83219  C-0.426137, -3.09239 0.334187, -3.10368 1.00939, -2.86338  C1.59762, -2.65756 2.11924, -2.26338 2.47817, -1.75404  C2.8392, -1.2462 3.03754, -0.623193 3.03609, -1.46149e-08 " /><path d="M-2.55512, -1.63987 C-2.10607, -2.34681 -1.35135, -2.849 -0.525896, -2.99019  C-0.00322935, -3.08279 0.543447, -3.03451 1.0418, -2.85175  C1.54511, -2.66861 1.99773, -2.34903 2.33873, -1.93602  C2.78685, -1.39777 3.03806, -0.70038 3.03609, -7.30726e-09 " /></g>
<g   fill="none"
   stroke="rgb(0, 0, 0)"
   stroke-linecap="butt"
   stroke-linejoin="miter"
   stroke-width="0.35"
   transform="scale(1, -1)"
  >
<path d="M-2.54928, 1.64895 L-2.56099, 1.63071 " /></g>
<g   fill="none"
   stroke="rgb(0, 0, 0)"
   stroke-linecap="butt"
   stroke-linejoin="miter"
   stroke-width="0.35"
   transform="scale(1, -1)"
  >
<path d="M2.6013, -6.66134e-16 C2.55718, -0.643613 2.26003, -1.26239 1.78702, -1.68877 " /><circle cx ="0" cy ="0" r ="3.375" /><path d="M2.6013, 4.03688e-07 C2.63523, 0.46078 2.54295, 0.931713 2.33809, 1.35009  C2.12994, 1.77792 1.80522, 2.14983 1.40779, 2.41778  C0.990816, 2.70048 0.49486, 2.86758 -0.0114954, 2.89778  C-0.543547, 2.93097 -1.08531, 2.813 -1.55981, 2.56263 " /><path d="M-2.915, 0.709101 C-2.91259, 0.743766 -2.90574, 0.788059 -2.89444, 0.841979  C-2.84605, 1.07404 -2.72612, 1.37677 -2.55517, 1.63982 " /><path d="M-2.55517, 1.63982 C-2.30754, 2.03212 -1.93073, 2.3706 -1.55981, 2.56263 " /><path d="M-1.68862, -1.78716 C-2.06995, -1.55363 -2.38898, -1.20852 -2.60272, -0.802104  C-2.84388, -0.346725 -2.95204, 0.183827 -2.915, 0.709101 " /><path d="M-1.68862 -1.78716 A2.45873 2.45873 0 0 1 1.78702 -1.68877" /><path d="M2.45873, 5.48038e-07 C2.46054, 0.585842 2.24304, 1.16886 1.85796, 1.61039  C1.55768, 1.9579 1.15778, 2.21794 0.718347, 2.35146  C0.31036, 2.47664 -0.130376, 2.4926 -0.546352, 2.39726  C-1.06776, 2.27973 -1.54714, 1.98586 -1.88845, 1.57453  C-2.27258, 1.11685 -2.47921, 0.515254 -2.45737, -0.081868  C-2.4386, -0.722102 -2.15589, -1.34916 -1.68862, -1.78716 " /><path d="M5 0 A5 5 0 0 1 4.33013 2.5" /><path d="M4.33013 -2.5 A5 5 0 0 1 5 -1.22465e-15" /><path d="M-4.58002e-08 -5 A5 5 0 0 1 4.33013 -2.5" /><path d="M-4.33013 -2.5 A5 5 0 0 1 -4.58002e-08 -5" /><path d="M-4.33013 2.5 A5 5 0 0 1 -4.33013 -2.5" /><path d="M3.70531e-08 5 A5 5 0 0 1 -4.33013 2.5" /><path d="M4.33013 2.5 A5 5 0 0 1 3.70531e-08 5" /><path d="M2.45873, 4.38429e-07 C2.46054, 0.585842 2.24304, 1.16886 1.85796, 1.61039  C1.5576, 1.958 1.15756, 2.21809 0.717979, 2.35157  C0.309908, 2.47671 -0.130905, 2.49259 -0.546923, 2.39713  C-1.06969, 2.27917 -1.55013, 1.98392 -1.89153, 1.57083  C-2.32437, 1.05446 -2.52759, 0.354741 -2.43871, -0.313154 " /><path d="M-2.37787, -0.625384 Q-2.33155, -0.801417 -2.25986, -0.968717 " /><path d="M-2.07319, -1.32184 L-2.06965, -1.32737 " /><path d="M-1.9072, -1.55176 Q-1.8056, -1.67662 -1.68862, -1.78716 " /><path d="M1.78702, -1.68877 C2.21541, -1.23874 2.46099, -0.621275 2.45873, 8.88178e-16 " /><path d="M4.33013, 2.5 C4.78797, 1.70699 5.24553, 0.914468 5.7735, 2.50022e-13 " /><path d="M3.70531e-08, 5 C0.915684, 5 1.83081, 5 2.88675, 5 " /><path d="M2.88675, 5 C3.41472, 4.08553 3.87228, 3.29301 4.33013, 2.5 " /><path d="M-4.33013, 2.5 C-3.87228, 3.29301 -3.41472, 4.08553 -2.88675, 5 " /><path d="M-2.88675, 5 C-1.83081, 5 -0.915684, 5 3.70531e-08, 5 " /><path d="M-4.33013, -2.5 C-4.78797, -1.70699 -5.24553, -0.914468 -5.7735, -3.062e-13 " /><path d="M-5.7735, 1.93179e-13 C-5.24553, 0.914468 -4.78797, 1.70699 -4.33013, 2.5 " /><path d="M-2.88675, -5 C-3.41472, -4.08553 -3.87228, -3.29301 -4.33013, -2.5 " /><path d="M-4.58002e-08, -5 C-0.915684, -5 -1.83081, -5 -2.88675, -5 " /><path d="M2.88675, -5 C1.83081, -5 0.915684, -5 -4.58002e-08, -5 " /><path d="M4.33013, -2.5 C3.87228, -3.29301 3.41472, -4.08553 2.88675, -5 " /><path d="M5.7735, -2.49821e-13 C5.24553, -0.914468 4.78797, -1.70699 4.33013, -2.5 " /><path d="M-2.20475, 1.08832 C-2.38216, 0.729845 -2.46984, 0.327503 -2.45767, -0.0722994  C-2.44523, -0.515795 -2.30939, -0.954952 -2.06925, -1.328 " /><path d="M-1.90055, -1.5599 Q-1.80176, -1.68025 -1.68862, -1.78716 " /><path d="M1.78702, -1.68877 C2.21541, -1.23874 2.46099, -0.621275 2.45873, 4.44089e-16 " /><path d="M0.723606, 2.34984 L0.720532, 2.35079 " /><path d="M0.679691, 2.36292 L0.588566, 2.38725 " /></g>

</svg>
