<svg xmlns="http://www.w3.org/2000/svg" viewBox="-6.69726 -5.92376 13.39452 11.84752">
<rect width="100%" height="100%" fill="white"/>
<g   fill="none"
   stroke="rgb(0, 0, 0)"
   stroke-linecap="butt"
   stroke-linejoin="miter"
   stroke-width="0.35"
   transform="scale(1, -1)"
  >
<path d="M-2.54928, 1.64895 L-2.56099, 1.63071 " /></g>
<g   fill="none"
   stroke="rgb(0, 0, 0)"
   stroke-linecap="butt"
   stroke-linejoin="miter"
   stroke-width="0.35"
   transform="scale(1, -1)"
  >
<path d="M2.6013, -6.66134e-16 C2.55718, -0.643613 2.26003, -1.26239 1.78702, -1.68877 " /><circle cx ="0" cy ="0" r ="3.375" /><path d="M2.6013, 4.03688e-07 C2.63523, 0.46078 2.54295, 0.931713 2.33809, 1.35009  C2.12994, 1.77792 1.80522, 2.14983 1.40779, 2.41778  C0.990816, 2.70048 0.49486, 2.86758 -0.0114954, 2.89778  C-0.543547, 2.93097 -1.08531, 2.813 -1.55981, 2.56263 " /><path d="M-2.915, 0.709101 C-2.91259, 0.743766 -2.90574, 0.788059 -2.89444, 0.841979  C-2.84605, 1.07404 -2.72612, 1.37677 -2.55517, 1.63982 " /><path d="M-2.55517, 1.63982 C-2.30754, 2.03212 -1.93073, 2.3706 -1.55981, 2.56263 " /><path d="M-1.68862, -1.78716 C-2.06995, -1.55363 -2.38898, -1.20852 -2.60272, -0.802104  C-2.84388, -0.346725 -2.95204, 0.183827 -2.915, 0.709101 " /><path d="M-1.68862 -1.78716 A2.45873 2.45873 0 0 1 1.78702 -1.68877" /><path d="M2.45873, 5.48038e-07 C2.46054, 0.585842 2.24304, 1.16886 1.85796, 1.61039  C1.55768, 1.9579 1.15778, 2.21794 0.718347, 2.35146  C0.31036, 2.47664 -0.130376, 2.4926 -0.546352, 2.39726  C-1.06776, 2.27973 -1.54714, 1.98586 -1.88845, 1.57453  C-2.27258, 1.11685 -2.47921, 0.515254 -2.45737, -0.081868  C-2.4386, -0.722102 -2.15589, -1.34916 -1.68862, -1.78716 " /><path d="M5 0 A5 5 0 0 1 4.33013 2.5" /><path d="M4.33013 -2.5 A5 5 0 0 1 5 -1.22465e-15" /><path d="M-4.58002e-08 -5 A5 5 0 0 1 4.33013 -2.5" /><path d="M-4.33013 -2.5 A5 5 0 0 1 -4.58002e-08 -5" /><path d="M-4.33013 2.5 A5 5 0 0 1 -4.33013 -2.5" /><path d="M3.70531e-08 5 A5 5 0 0 1 -4.33013 2.5" /><path d="M4.33013 2.5 A5 5 0 0 1 3.70531e-08 5" /><path d="M2.45873, 4.38429e-07 C2.46054, 0.585842 2.24304, 1.16886 1.85796, 1.61039  C1.5576, 1.958 1.15756, 2.21809 0.717979, 2.35157  C0.309908, 2.47671 -0.130905, 2.49259 -0.546923, 2.39713  C-1.06969, 2.27917 -1.55013, 1.98392 -1.89153, 1.57083  C-2.32437, 1.05446 -2.52759, 0.354741 -2.43871, -0.313154 " /><path d="M-2.37787, -0.625384 Q-2.33155, -0.801417 -2.25986, -0.968717 " /><path d="M-2.07319, -1.32184 L-2.06965, -1.32737 " /><path d="M-1.9072, -1.55176 Q-1.8056, -1.67662 -1.68862, -1.78716 " /><path d="M1.78702, -1.68877 C2.21541, -1.23874 2.46099, -0.621275 2.45873, 8.88178e-16 " /><path d="M4.33013, 2.5 C4.78797, 1.70699 5.24553, 0.914468 5.7735, 2.50022e-13 " /><path d="M3.70531e-08, 5 C0.915684, 5 1.83081, 5 2.88675, 5 " /><path d="M2.88675, 5 C3.41472, 4.08553 3.87228, 3.29301 4.33013, 2.5 " /><path d="M-4.33013, 2.5 C-3.87228, 3.29301 -3.41472, 4.08553 -2.88675, 5 " /><path d="M-2.88675, 5 C-1.83081, 5 -0.915684, 5 3.70531e-08, 5 " /><path d="M-4.33013, -2.5 C-4.78797, -1.70699 -5.24553, -0.914468 -5.7735, -3.062e-13 " /><path d="M-5.7735, 1.93179e-13 C-5.24553, 0.914468 -4.78797, 1.70699 -4.33013, 2.5 " /><path d="M-2.88675, -5 C-3.41472, -4.08553 -3.87228, -3.29301 -4.33013, -2.5 " /><path d="M-4.58002e-08, -5 C-0.915684, -5 -1.83081, -5 -2.88675, -5 " /><path d="M2.88675, -5 C1.83081, -5 0.915684, -5 -4.58002e-08, -5 " /><path d="M4.33013, -2.5 C3.87228, -3.29301 3.41472, -4.08553 2.88675, -5 " /><path d="M5.7735, -2.49821e-13 C5.24553, -0.914468 4.78797, -1.70699 4.33013, -2.5 " /><path d="M-2.20475, 1.08832 C-2.38216, 0.729845 -2.46984, 0.327503 -2.45767, -0.0722994  C-2.44523, -0.515795 -2.30939, -0.954952 -2.06925, -1.328 " /><path d="M-1.90055, -1.5599 Q-1.80176, -1.68025 -1.68862, -1.78716 " /><path d="M1.78702, -1.68877 C2.21541, -1.23874 2.46099, -0.621275 2.45873, 4.44089e-16 " /><path d="M0.723606, 2.34984 L0.720532, 2.35079 " /><path d="M0.679691, 2.36292 L0.588566, 2.38725 " /></g>

</svg>
