<svg xmlns="http://www.w3.org/2000/svg" viewBox="-5.5245 -5.5245 11.049 11.049">
<rect width="100%" height="100%" fill="white"/>
<g   fill="none"
   stroke="rgb(165, 165, 165)"
   stroke-dasharray="1.2,0.8"
   stroke-linecap="butt"
   stroke-linejoin="miter"
   stroke-width="0.25"
   transform="scale(1, -1)"
  >
<circle cx ="0" cy ="0" r ="4.7625" /><path d="M1.37848, 2.3876 C0.371469, 2.3876 -0.371469, 2.3876 -1.37848, 2.3876 " /><path d="M2.75696, 4.16778e-13 C2.25346, 0.872099 1.88199, 1.5155 1.37848, 2.3876 " /><path d="M1.37848, -2.3876 C1.88199, -1.5155 2.25346, -0.872099 2.75696, -4.18332e-13 " /><path d="M-1.37848, -2.3876 C-0.371469, -2.3876 0.371469, -2.3876 1.37848, -2.3876 " /><path d="M-2.75696, -4.18332e-13 C-2.25346, -0.872099 -1.88199, -1.5155 -1.37848, -2.3876 " /><path d="M-1.37848, 2.3876 C-1.88199, 1.5155 -2.25346, 0.872099 -2.75696, 4.16556e-13 " /><circle cx ="0" cy ="0" r ="4.52438" /><circle cx ="0" cy ="0" r ="3.175" /><path d="M3.175, 5.42748e-11 C3.17606, 0.60182 3.0001, 1.20341 2.67554, 1.70942  C2.39451, 2.15032 2.00319, 2.51817 1.5497, 2.77111  C0.969415, 3.09713 0.288894, 3.23115 -0.365668, 3.15387  C-0.986025, 3.08297 -1.58085, 2.82395 -2.05425, 2.42089 " /><path d="M-2.05425, 2.42089 C-2.2447, 2.26027 -2.41537, 2.07252 -2.54171, 1.90272  C-2.60953, 1.81273 -2.66779, 1.72154 -2.66805, 1.72108 " /><path d="M-2.66805, 1.72108 C-2.66682, 1.72336 -2.65333, 1.74376 -2.62758, 1.78226  C-2.59204, 1.83479 -2.54141, 1.90546 -2.48468, 1.97661  C-2.36586, 2.1264 -2.21824, 2.28217 -2.05406, 2.42105 " /><path d="M-2.05406, 2.42105 C-1.54314, 2.8562 -0.892107, 3.12188 -0.220334, 3.16735  C0.153207, 3.19347 0.532406, 3.15281 0.894174, 3.04649  C1.5978, 2.84228 2.23121, 2.38151 2.64286, 1.75952  C2.98674, 1.24521 3.17617, 0.624275 3.175, 3.46533e-10 " /><path d="M3.175, 5.42744e-11 C3.17904, -0.87214 2.80177, -1.73698 2.15969, -2.32731  C1.49746, -2.94826 0.559671, -3.25903 -0.342294, -3.15649  C-1.03417, -3.08316 -1.69798, -2.77349 -2.19874, -2.29045  C-2.80979, -1.70879 -3.17006, -0.874962 -3.17485, -0.0313394  C-3.18655, 0.805068 -2.84883, 1.63906 -2.25838, 2.23167  C-1.75905, 2.73959 -1.08393, 3.06997 -0.376485, 3.1526  C0.505719, 3.26233 1.427, 2.97696 2.09273, 2.3877  C2.77449, 1.79628 3.1796, 0.902466 3.175, 4.89222e-11 " /><path d="M2.48765, 4.00384e-06 L3.175, 5.42765e-11 " /><path d="M2.48768, 4.00375e-06 Q2.39944, 4.5177e-06 2.39601, 4.53766e-06 " /><path d="M2.39601, 4.53766e-06 Q2.39944, 4.51766e-06 2.48765, 4.00384e-06 " /><path d="M3.175, 3.46532e-10 L2.48768, 4.00375e-06 " /><path d="M3.175, 4.89129e-11 C3.17904, -0.872137 2.80177, -1.73697 2.1597, -2.3273  C1.49748, -2.94824 0.559724, -3.25902 -0.342224, -3.1565  C-1.03284, -3.08331 -1.69551, -2.77467 -2.19594, -2.29314  C-2.81233, -1.70792 -3.17421, -0.866368 -3.17496, -0.0164209  C-3.18257, 0.812476 -2.84737, 1.63754 -2.26372, 2.22625  C-1.76235, 2.73876 -1.08238, 3.07166 -0.370093, 3.15336  C0.513925, 3.26151 1.43633, 2.97298 2.10116, 2.38028  C2.77794, 1.7889 3.17953, 0.898689 3.175, 4.38192e-11 " /><path d="M3.175, 3.46532e-10 C3.17681, -0.708524 2.93146, -1.41446 2.49059, -1.96916  C2.14462, -2.40789 1.68034, -2.75205 1.15997, -2.95552  C0.714837, -3.13064 0.229767, -3.20298 -0.247097, -3.16537  C-0.929758, -3.11366 -1.59227, -2.83267 -2.10395, -2.37782  C-2.73395, -1.82502 -3.12697, -1.01347 -3.17009, -0.176503  C-3.21832, 0.634369 -2.93823, 1.45833 -2.40588, 2.07181  C-1.94223, 2.61304 -1.29083, 2.98898 -0.590238, 3.11965  C-0.319841, 3.17066 -0.0474068, 3.18639 0.227065, 3.16687  C0.854382, 3.12303 1.46642, 2.88667 1.96038, 2.4975  C2.45638, 2.10962 2.83167, 1.57034 3.02305, 0.970472  C3.12403, 0.654862 3.17468, 0.331371 3.175, 3.12294e-10 " /><path d="M3.175, 4.38263e-11 C3.17904, -0.872134 2.80178, -1.73697 2.15971, -2.32729  C1.4975, -2.94822 0.559771, -3.25901 -0.34216, -3.15651  C-1.04315, -3.0823 -1.71522, -2.76528 -2.2183, -2.27151  C-2.82227, -1.68659 -3.17513, -0.853397 -3.17497, -0.0126195  C-3.18163, 0.817935 -2.84404, 1.64419 -2.2576, 2.23246  C-1.7566, 2.74175 -1.0788, 3.0723 -0.369029, 3.15348  C0.515623, 3.26142 1.43857, 2.97209 2.10331, 2.37839  C2.77882, 1.78702 3.17951, 0.897725 3.175, 3.89617e-11 " /><path d="M3.175, 3.12293e-10 C3.1768, -0.707902 2.9319, -1.41323 2.49175, -1.9677  C2.14603, -2.40663 1.68196, -2.75106 1.16171, -2.95484  C0.710765, -3.13256 0.218757, -3.20473 -0.264227, -3.16399  C-0.938366, -3.1092 -1.59172, -2.83091 -2.09832, -2.38278  C-2.71445, -1.84443 -3.10612, -1.05927 -3.16566, -0.243319  C-3.23395, 0.598669 -2.94625, 1.46167 -2.38637, 2.09424  C-1.92467, 2.62299 -1.28245, 2.98994 -0.592509, 3.11922  C-0.317382, 3.17132 -0.0402009, 3.18691 0.239033, 3.16599  C0.861764, 3.12008 1.46875, 2.88449 1.9594, 2.49827  C2.45498, 2.11103 2.8302, 1.57269 3.022, 0.973715  C3.12368, 0.657105 3.17467, 0.332534 3.175, 2.79856e-10 " /><path d="M3.175, 3.90203e-11 C3.17904, -0.87213 2.80178, -1.73696 2.15971, -2.32729  C1.49753, -2.9482 0.559829, -3.25899 -0.342081, -3.15652  C-1.04874, -3.08177 -1.72594, -2.76013 -2.23039, -2.25964  C-2.825, -1.67746 -3.1727, -0.853506 -3.17493, -0.0213501  C-3.18387, 0.809515 -2.84828, 1.63702 -2.26303, 2.22695  C-1.76583, 2.73481 -1.09324, 3.0663 -0.387604, 3.15125  C0.500323, 3.26496 1.42915, 2.9779 2.09811, 2.38297  C2.77669, 1.79157 3.17955, 0.900057 3.175, 3.44942e-11 " /><path d="M3.175, 2.79822e-10 C3.1768, -0.707222 2.93238, -1.41188 2.493, -1.9661  C2.14773, -2.40506 1.68415, -2.74967 1.16432, -2.95381  C0.714418, -3.13158 0.223522, -3.20425 -0.258585, -3.16445  C-0.928287, -3.1112 -1.57793, -2.8375 -2.08383, -2.39547  C-2.71759, -1.84874 -3.11724, -1.04201 -3.16827, -0.206656  C-3.22581, 0.623736 -2.93798, 1.47076 -2.38643, 2.09417  C-1.92481, 2.62286 -1.28272, 2.9898 -0.592882, 3.11915  C-0.311306, 3.17249 -0.0276925, 3.18761 0.257958, 3.1645  C0.874687, 3.1153 1.47489, 2.88008 1.96084, 2.49715  C2.457, 2.109 2.8323, 1.56933 3.02349, 0.969096  C3.12418, 0.65391 3.17468, 0.330878 3.175, 2.4915e-10 " /><path d="M3.175, 3.44893e-11 C3.17904, -0.872127 2.80178, -1.73695 2.15972, -2.32728  C1.49755, -2.94818 0.559874, -3.25898 -0.342021, -3.15652  C-1.04662, -3.08199 -1.72195, -2.76206 -2.22592, -2.26404  C-2.82091, -1.68377 -3.17015, -0.861851 -3.17485, -0.030756  C-3.18642, 0.806373 -2.84794, 1.641 -2.25646, 2.23361  C-1.76012, 2.73757 -1.09063, 3.06641 -0.388388, 3.15116  C0.49786, 3.26485 1.42499, 2.97936 2.09379, 2.38677  C2.77493, 1.79535 3.17959, 0.901989 3.175, 3.02807e-11 " /><path d="M3.175, 2.49151e-10 C3.17679, -0.706517 2.93288, -1.41048 2.49431, -1.96444  C2.14954, -2.40336 1.68654, -2.74813 1.16723, -2.95266  C0.719206, -3.1302 0.230388, -3.20349 -0.250006, -3.16514  C-0.922817, -3.1135 -1.57596, -2.83933 -2.08405, -2.39528  C-2.71008, -1.85496 -3.10798, -1.06102 -3.1662, -0.236184  C-3.2254, 0.524979 -2.99649, 1.30378 -2.53484, 1.91185  C-2.07229, 2.5293 -1.37668, 2.96589 -0.619533, 3.11397  C-0.32936, 3.17149 -0.0368438, 3.18833 0.258014, 3.1645  C0.874742, 3.11528 1.47494, 2.88005 1.96088, 2.49711  C2.45706, 2.10894 2.83236, 1.56923 3.02353, 0.968965  C3.12419, 0.653819 3.17468, 0.330831 3.175, 2.20218e-10 " /><path d="M3.175, 3.02314e-11 C3.17904, -0.872125 2.80178, -1.73695 2.15973, -2.32728  C1.49757, -2.94817 0.559908, -3.25897 -0.341976, -3.15653  C-1.04431, -3.08223 -1.7176, -2.76416 -2.22104, -2.26884  C-2.82289, -1.68452 -3.17458, -0.853417 -3.17497, -0.0145839  C-3.18212, 0.81513 -2.84575, 1.64079 -2.26073, 2.22929  C-1.76139, 2.73831 -1.08566, 3.06955 -0.377453, 3.15248  C0.509859, 3.2632 1.43672, 2.97394 2.10358, 2.37814  C2.77894, 1.78678 3.17951, 0.897602 3.175, 2.63163e-11 " /><path d="M3.175, 2.20187e-10 C3.17678, -0.705751 2.93341, -1.40896 2.49573, -1.96265  C2.15151, -2.4015 1.68917, -2.74643 1.17045, -2.95138  C0.721184, -3.12999 0.230749, -3.2037 -0.251168, -3.16505  C-0.923509, -3.11319 -1.57613, -2.83912 -2.08391, -2.3954  C-2.71265, -1.85287 -3.11119, -1.05448 -3.16695, -0.225972  C-3.23042, 0.614013 -2.93988, 1.473 -2.37955, 2.10199  C-1.92224, 2.62219 -1.28979, 2.98451 -0.609735, 3.1159  C-0.325342, 3.17136 -0.0387137, 3.18777 0.25015, 3.16513  C0.866302, 3.1175 1.46643, 2.88424 1.95302, 2.50326  C2.44868, 2.11798 2.82482, 1.58187 3.01845, 0.984682  C3.12247, 0.664697 3.17466, 0.33647 3.175, 1.93098e-10 " /><path d="M3.175, 2.6271e-11 C3.17904, -0.872121 2.80179, -1.73694 2.15973, -2.32727  C1.4976, -2.94815 0.559976, -3.25895 -0.341884, -3.15654  C-1.04207, -3.08247 -1.71343, -2.76617 -2.21636, -2.27341  C-2.81795, -1.69171 -3.17118, -0.863915 -3.17488, -0.0270916  C-3.18549, 0.810111 -2.84599, 1.64441 -2.25375, 2.23634  C-1.75628, 2.74024 -1.08548, 3.06842 -0.382334, 3.1519  C0.500354, 3.26336 1.4229, 2.97914 2.08986, 2.39021  C2.77331, 1.79878 3.17963, 0.903749 3.175, 2.26321e-11 " /><path d="M3.175, 1.93041e-10 C3.17677, -0.704789 2.93409, -1.40706 2.4975, -1.96038  C2.15413, -2.39897 1.69288, -2.744 1.17517, -2.94951  C0.722728, -3.13022 0.228303, -3.20445 -0.25726, -3.16456  C-0.935996, -3.11093 -1.59412, -2.83068 -2.10315, -2.37853  C-2.73376, -1.82558 -3.12713, -1.01345 -3.17012, -0.175932  C-3.2182, 0.634949 -2.93796, 1.45886 -2.4055, 2.07224  C-1.94618, 2.60816 -1.3028, 2.98208 -0.609772, 3.1159  C-0.327386, 3.17097 -0.0427587, 3.18754 0.24411, 3.1656  C0.865389, 3.11879 1.4707, 2.88319 1.96015, 2.49768  C2.45607, 2.10994 2.83134, 1.57087 3.02281, 0.971193  C3.12395, 0.655361 3.17468, 0.33163 3.175, 1.67788e-10 " /><path d="M3.175, 2.25935e-11 C3.17904, -0.872118 2.80179, -1.73693 2.15974, -2.32726  C1.49762, -2.94813 0.560019, -3.25893 -0.341827, -3.15655  C-1.04856, -3.08185 -1.72584, -2.76021 -2.23034, -2.25969  C-2.82495, -1.67753 -3.17267, -0.853594 -3.17493, -0.0214483  C-3.1839, 0.809371 -2.84836, 1.63684 -2.2632, 2.22678  C-1.76748, 2.73319 -1.0974, 3.06431 -0.394005, 3.15046  C0.498031, 3.2666 1.4321, 2.9779 2.10306, 2.37861  C2.77872, 1.78724 3.17951, 0.897838 3.175, 1.91691e-11 " /><path d="M3.175, 1.67764e-10 C3.17676, -0.703948 2.93467, -1.40539 2.49905, -1.95841  C2.15262, -2.40167 1.6858, -2.74952 1.16198, -2.95473  C0.711101, -3.13248 0.219155, -3.20469 -0.263784, -3.16402  C-0.937689, -3.10935 -1.59086, -2.83134 -2.09745, -2.38356  C-2.71765, -1.84212 -3.11048, -1.05062 -3.16671, -0.229313  C-3.23074, 0.60688 -2.94406, 1.46235 -2.38911, 2.09112  C-1.93052, 2.61765 -1.29316, 2.98442 -0.607491, 3.11634  C-0.321583, 3.17188 -0.0334726, 3.18796 0.25684, 3.16459  C0.873586, 3.11561 1.47387, 2.8806 1.95995, 2.49784  C2.45579, 2.11023 2.83105, 1.57134 3.02261, 0.971839  C3.12388, 0.655808 3.17468, 0.331861 3.175, 1.44312e-10 " /><path d="M3.175, 1.91893e-11 C3.17904, -0.872112 2.8018, -1.73692 2.15975, -2.32725  C1.49766, -2.9481 0.560117, -3.25891 -0.341694, -3.15656  C-1.04327, -3.0824 -1.7159, -2.76501 -2.21919, -2.27064  C-2.82031, -1.68796 -3.17254, -0.859261 -3.17492, -0.0220791  C-3.18405, 0.80844 -2.84893, 1.63569 -2.26426, 2.2257  C-1.76286, 2.73849 -1.0827, 3.0716 -0.37019, 3.15334  C0.509458, 3.26093 1.4272, 2.97597 2.09122, 2.38902  C2.77387, 1.79759 3.17961, 0.903139 3.175, 1.60139e-11 " /><path d="M3.175, 1.44257e-10 C3.17675, -0.702747 2.93551, -1.40301 2.50127, -1.95558  C2.15653, -2.39768 1.69216, -2.7452 1.17077, -2.95126  C0.722329, -3.12959 0.232852, -3.20341 -0.24824, -3.16528  C-0.929869, -3.1134 -1.59134, -2.83294 -2.10253, -2.37907  C-2.71606, -1.84104 -3.10597, -1.05793 -3.1656, -0.244149  C-3.22694, 0.519458 -2.99817, 1.30152 -2.53497, 1.91169  C-2.07195, 2.52986 -1.37532, 2.96676 -0.617221, 3.11443  C-0.339008, 3.16939 -0.0584546, 3.18693 0.224438, 3.16706  C0.848374, 3.12395 1.45741, 2.89047 1.95026, 2.50542  C2.45036, 2.1176 2.82909, 1.57632 3.02204, 0.973592  C3.12369, 0.657021 3.17467, 0.33249 3.175, 1.22525e-10 " /><path d="M3.175, 1.60214e-11 C3.17904, -0.872108 2.8018, -1.73692 2.15976, -2.32724  C1.49768, -2.94808 0.560169, -3.25889 -0.341625, -3.15657  C-1.04488, -3.08226 -1.71904, -2.76351 -2.22275, -2.26716  C-2.82209, -1.68435 -3.17292, -0.856648 -3.17493, -0.0206602  C-3.1837, 0.810513 -2.84767, 1.63824 -2.26191, 2.22809  C-1.76282, 2.73739 -1.08725, 3.069 -0.379058, 3.15229  C0.508877, 3.26355 1.43661, 2.97421 2.1039, 2.37786  C2.77907, 1.78649 3.1795, 0.897458 3.175, 1.32561e-11 " /><path d="M3.175, 1.22548e-10 C3.17675, -0.702085 2.93597, -1.4017 2.50249, -1.95402  C2.15902, -2.39505 1.69657, -2.74213 1.17716, -2.94872  C0.722219, -3.13079 0.224734, -3.20514 -0.263561, -3.16404  C-0.937342, -3.10943 -1.59041, -2.83156 -2.09699, -2.38396  C-2.72672, -1.83461 -3.12172, -1.02739 -3.16912, -0.193137  C-3.22211, 0.624144 -2.94116, 1.45637 -2.40373, 2.0743  C-1.94567, 2.60779 -1.3051, 2.98042 -0.614904, 3.11489  C-0.328497, 3.17123 -0.0397945, 3.18795 0.251202, 3.16505  C0.867507, 3.11719 1.46772, 2.88362 1.95425, 2.5023  C2.4535, 2.11387 2.83124, 1.57232 3.02331, 0.969638  C3.12412, 0.654285 3.17468, 0.331072 3.175, 1.02253e-10 " /><path d="M3.175, 1.31886e-11 C3.17904, -0.872105 2.8018, -1.73691 2.15977, -2.32723  C1.49771, -2.94805 0.56023, -3.25887 -0.341542, -3.15658  C-1.04686, -3.08208 -1.72288, -2.76167 -2.22709, -2.26289  C-2.82448, -1.67974 -3.17362, -0.85285 -3.17495, -0.0180197  C-3.1831, 0.816757 -2.84332, 1.6477 -2.25251, 2.23759  C-1.75702, 2.7389 -1.0899, 3.06607 -0.390176, 3.15093  C0.495515, 3.26506 1.42228, 2.9805 2.09132, 2.38893  C2.77391, 1.7975 3.17961, 0.903091 3.175, 1.05833e-11 " /><path d="M3.175, 1.02376e-10 C3.17673, -0.700675 2.93695, -1.3989 2.50508, -1.95069  C2.16117, -2.39351 1.69742, -2.74196 1.17639, -2.94902  C0.721798, -3.13082 0.224769, -3.20507 -0.263102, -3.16408  C-0.936613, -3.10958 -1.58947, -2.83202 -2.09602, -2.38481  C-2.72489, -1.83664 -3.11999, -1.0314 -3.16878, -0.198656  C-3.22319, 0.618532 -2.94369, 1.45125 -2.40734, 2.07011  C-1.94734, 2.6078 -1.30218, 2.9828 -0.607291, 3.11638  C-0.330336, 3.17018 -0.0511575, 3.18693 0.230244, 3.16664  C0.850712, 3.12262 1.4561, 2.89037 1.9468, 2.5081  C2.45081, 2.1184 2.83195, 1.57294 3.02459, 0.965663  C3.12455, 0.651536 3.17469, 0.329648 3.175, 8.41562e-11 " /><path d="M3.175, 1.0616e-11 C3.17904, -0.872102 2.8018, -1.7369 2.15978, -2.32723  C1.49773, -2.94804 0.560266, -3.25886 -0.341494, -3.15658  C-1.08317, -3.07856 -1.79188, -2.72763 -2.30352, -2.18504  C-2.85308, -1.6098 -3.17121, -0.821533 -3.17489, -0.0259819  C-3.18508, 0.806282 -2.8495, 1.63565 -2.26333, 2.22665  C-1.76808, 2.73262 -1.09879, 3.06366 -0.39609, 3.1502  C0.495719, 3.2669 1.42982, 2.97894 2.10114, 2.3803  C2.77794, 1.78891 3.17953, 0.898697 3.175, 8.32268e-12 " /><path d="M3.175, 8.41878e-11 C3.17697, -0.723822 2.92057, -1.44476 2.46198, -2.00481  C2.12227, -2.42297 1.67398, -2.75184 1.17312, -2.95033  C0.722976, -3.12975 0.231377, -3.20382 -0.251649, -3.16501  C-0.930757, -3.11257 -1.58964, -2.83328 -2.09955, -2.3817  C-2.71561, -1.84285 -3.10692, -1.05715 -3.16585, -0.240871  C-3.2263, 0.521625 -2.99755, 1.30224 -2.53511, 1.9115  C-2.07269, 2.52896 -1.37722, 2.96562 -0.620177, 3.11384  C-0.338971, 3.16966 -0.0553936, 3.18726 0.230555, 3.16662  C0.852035, 3.12246 1.45836, 2.88945 1.94946, 2.50604  C2.44652, 2.12081 2.82384, 1.58406 3.01804, 0.985932  C3.12234, 0.665563 3.17466, 0.336919 3.175, 6.75877e-11 " /><path d="M3.175, 8.27871e-12 C3.17904, -0.872102 2.8018, -1.7369 2.15978, -2.32723  C1.49773, -2.94804 0.560277, -3.25886 -0.341479, -3.15658  C-1.04738, -3.08205 -1.72394, -2.76117 -2.2283, -2.2617  C-2.82628, -1.67736 -3.17508, -0.848686 -3.17497, -0.0126086  C-3.18163, 0.81795 -2.84403, 1.64421 -2.25758, 2.23248  C-1.75656, 2.74178 -1.07873, 3.07233 -0.368927, 3.15349  C0.510198, 3.26065 1.42724, 2.97577 2.09092, 2.38928  C2.77375, 1.79786 3.17962, 0.903273 3.175, 6.32006e-12 " /><path d="M3.175, 6.76721e-11 C3.17675, -0.70278 2.93549, -1.40307 2.50121, -1.95566  C2.15814, -2.39557 1.69663, -2.74186 1.17834, -2.94824  C0.728465, -3.12848 0.236938, -3.20343 -0.24621, -3.16544  C-0.929283, -3.1139 -1.59225, -2.83279 -2.10417, -2.37762  C-2.72149, -1.83559 -3.11179, -1.04526 -3.16697, -0.225672  C-3.23019, 0.612376 -2.94112, 1.46934 -2.38319, 2.09786  C-1.9222, 2.62415 -1.28216, 2.9895 -0.594579, 3.11883  C-0.313755, 3.17218 -0.0308711, 3.18751 0.254073, 3.16482  C0.870771, 3.11637 1.47118, 2.88196 1.95755, 2.49972  C2.45115, 2.11459 2.82564, 1.57969 3.01863, 0.984109  C3.12254, 0.6643 3.17466, 0.336264 3.175, 5.2911e-11 " /><path d="M3.175, 6.25411e-12 C3.17904, -0.872096 2.80181, -1.73689 2.15979, -2.32722  C1.49777, -2.94801 0.560366, -3.25883 -0.341359, -3.1566  C-1.03222, -3.08357 -1.69518, -2.77493 -2.1958, -2.29327  C-2.81098, -1.70925 -3.17276, -0.869918 -3.17493, -0.021673  C-3.18397, 0.810087 -2.8477, 1.6385 -2.26138, 2.22862  C-1.76546, 2.73441 -1.09548, 3.06492 -0.392345, 3.15067  C0.494504, 3.26558 1.42279, 2.98065 2.09247, 2.38792  C2.77439, 1.7965 3.1796, 0.902577 3.175, 4.37916e-12 " /><path d="M3.175, 5.28655e-11 C3.17679, -0.706845 2.93264, -1.41113 2.4937, -1.96522  C2.14869, -2.40415 1.68542, -2.74885 1.16586, -2.9532  C0.716871, -3.13088 0.226976, -3.20387 -0.254309, -3.1648  C-0.924175, -3.11244 -1.57427, -2.83956 -2.0808, -2.3981  C-2.71112, -1.85564 -3.11089, -1.05631 -3.1669, -0.226674  C-3.23026, 0.609985 -2.94255, 1.46564 -2.38656, 2.09403  C-1.9251, 2.62259 -1.28327, 2.98951 -0.593669, 3.119  C-0.312426, 3.17235 -0.0291358, 3.18757 0.256203, 3.16465  C0.872959, 3.11578 1.47329, 2.88089 1.95945, 2.49824  C2.45506, 2.11095 2.83028, 1.57256 3.02206, 0.973537  C3.12369, 0.656982 3.17467, 0.33247 3.175, 3.99885e-11 " /><path d="M3.175, 4.51594e-12 C3.17904, -0.872092 2.80181, -1.73688 2.1598, -2.32721  C1.4978, -2.94798 0.560427, -3.25882 -0.341278, -3.1566  C-1.04295, -3.08253 -1.71569, -2.76516 -2.21907, -2.27076  C-2.82015, -1.68817 -3.17242, -0.859629 -3.17492, -0.0225511  C-3.18417, 0.807731 -2.84937, 1.6348 -2.26508, 2.22487  C-1.76309, 2.73865 -1.08169, 3.07224 -0.368003, 3.1536  C0.516678, 3.26125 1.43952, 2.97163 2.10406, 2.37772  C2.77913, 1.78635 3.1795, 0.897384 3.175, 3.00737e-12 " /><path d="M3.175, 4.0028e-11 C3.17678, -0.705452 2.93362, -1.40837 2.49628, -1.96194  C2.15228, -2.40077 1.6902, -2.74577 1.17171, -2.95088  C0.719883, -3.13074 0.226348, -3.20445 -0.258318, -3.16447  C-0.929126, -3.1112 -1.57981, -2.83673 -2.08612, -2.39347  C-2.71809, -1.84721 -3.1167, -1.04222 -3.16814, -0.208548  C-3.22656, 0.626463 -2.93555, 1.47841 -2.37849, 2.10319  C-1.91965, 2.62461 -1.28475, 2.98715 -0.602494, 3.11731  C-0.325922, 3.17059 -0.0471838, 3.18695 0.233722, 3.16639  C0.852861, 3.12176 1.45679, 2.88973 1.94653, 2.50832  C2.44481, 2.12308 2.82314, 1.58569 3.01779, 0.986694  C3.12225, 0.666091 3.17466, 0.337193 3.175, 2.88045e-11 " /><path d="M3.175, 3.02891e-12 C3.17904, -0.872088 2.80182, -1.73687 2.15981, -2.3272  C1.62363, -2.82763 0.909118, -3.13132 0.176745, -3.17008  C-0.690351, -3.22241 -1.57144, -2.89677 -2.19609, -2.29299  C-2.81057, -1.70947 -3.17216, -0.871206 -3.17491, -0.0238192  C-3.18463, 0.812472 -2.84506, 1.64552 -2.25338, 2.23672  C-1.75554, 2.74083 -1.08419, 3.06897 -0.380591, 3.15211  C0.507519, 3.26383 1.43564, 2.97476 2.10326, 2.37843  C2.77881, 1.78706 3.17951, 0.897745 3.175, 1.8705e-12 " /><path d="M3.175, 2.88374e-11 C3.17674, -0.701459 2.93641, -1.40046 2.50364, -1.95254  C2.15741, -2.39769 1.68999, -2.74723 1.16512, -2.95349  C0.715672, -3.13123 0.225274, -3.20406 -0.256426, -3.16463  C-0.933481, -3.1113 -1.59011, -2.83252 -2.09871, -2.38244  C-2.71482, -1.84393 -3.10637, -1.0586 -3.16572, -0.242539  C-3.23382, 0.599611 -2.94579, 1.46269 -2.38557, 2.09516  C-1.92288, 2.62463 -1.27911, 2.99167 -0.587782, 3.12012  C-0.316625, 3.17104 -0.0434592, 3.18651 0.231714, 3.16653  C0.855292, 3.12201 1.46352, 2.88732 1.95538, 2.50143  C2.45623, 2.1114 2.83461, 1.56718 3.0258, 0.961851  C3.12496, 0.648901 3.17469, 0.328283 3.175, 1.94351e-11 " /><path d="M3.175, 1.8574e-12 C3.17904, -0.872084 2.80182, -1.73687 2.15981, -2.32719  C1.49786, -2.94794 0.560552, -3.25878 -0.34111, -3.15662  C-1.03151, -3.08369 -1.69407, -2.77549 -2.19461, -2.29441  C-2.81114, -1.70974 -3.17348, -0.868748 -3.17494, -0.0190723  C-3.18336, 0.814859 -2.84457, 1.6451 -2.25502, 2.23506  C-1.75942, 2.73761 -1.09153, 3.06572 -0.390868, 3.15085  C0.499896, 3.2659 1.4322, 2.9774 2.10231, 2.37927  C2.77841, 1.78789 3.17952, 0.898175 3.175, 9.87432e-13 " /><path d="M3.175, 1.94267e-11 C3.17673, -0.699896 2.9375, -1.39736 2.50651, -1.94885  C2.16141, -2.3939 1.69532, -2.74378 1.17163, -2.95092  C0.719409, -3.13091 0.22542, -3.20458 -0.259637, -3.16437  C-0.92805, -3.11098 -1.57642, -2.83803 -2.08175, -2.39727  C-2.71108, -1.85523 -3.11036, -1.05704 -3.16677, -0.228448  C-3.23097, 0.612284 -2.94046, 1.47232 -2.37961, 2.10192  C-1.92243, 2.622 -1.29018, 2.9843 -0.610316, 3.11579  C-0.327596, 3.17098 -0.0426291, 3.18757 0.244586, 3.16557  C0.866056, 3.11864 1.47152, 2.88282 1.961, 2.49702  C2.45721, 2.10878 2.83251, 1.56899 3.02363, 0.968637  C3.12423, 0.653593 3.17468, 0.330714 3.175, 1.18292e-11 " /><path d="M3.175, 9.6545e-13 C3.17904, -0.87209 2.80181, -1.73688 2.1598, -2.32721  C1.49782, -2.94797 0.560457, -3.25881 -0.341237, -3.15661  C-1.03216, -3.0836 -1.69518, -2.77494 -2.19584, -2.29324  C-2.80904, -1.71103 -3.17056, -0.875155 -3.17486, -0.0295943  C-3.18614, 0.808187 -2.8468, 1.64333 -2.25428, 2.23581  C-1.7574, 2.73935 -1.08748, 3.06755 -0.385064, 3.15156  C0.503864, 3.26468 1.43344, 2.97614 2.10208, 2.37947  C2.77832, 1.78809 3.17952, 0.898276 3.175, 3.43503e-13 " /><path d="M3.175, 1.18647e-11 C3.17679, -0.706569 2.93284, -1.41059 2.49421, -1.96457  C2.1494, -2.40349 1.68636, -2.74825 1.167, -2.95275  C0.718772, -3.13033 0.229723, -3.20356 -0.250864, -3.16507  C-0.932099, -3.11265 -1.59301, -2.83191 -2.10371, -2.37803  C-2.72764, -1.83055 -3.11948, -1.02938 -3.16864, -0.200838  C-3.22457, 0.62862 -2.93602, 1.47405 -2.38463, 2.09623  C-1.92158, 2.62565 -1.2774, 2.99244 -0.585804, 3.12049  C-0.31345, 3.17146 -0.0391143, 3.18667 0.237204, 3.16613  C0.861119, 3.1205 1.46933, 2.88446 1.96069, 2.49726  C2.4568, 2.1092 2.8321, 1.56965 3.02335, 0.969526  C3.12413, 0.654207 3.17468, 0.331032 3.175, 5.93303e-12 " /><path d="M3.175, 3.39284e-13 C3.17904, -0.872077 2.80183, -1.73685 2.15983, -2.32718  C1.49791, -2.9479 0.560667, -3.25875 -0.340955, -3.15664  C-1.03324, -3.08356 -1.69752, -2.77387 -2.19858, -2.2906  C-2.81143, -1.70735 -3.17198, -0.870451 -3.17491, -0.0244257  C-3.18473, 0.809705 -2.84716, 1.64072 -2.25834, 2.23171  C-1.75891, 2.73972 -1.08363, 3.07011 -0.376032, 3.15265  C0.506622, 3.26231 1.42832, 2.97646 2.09405, 2.38654  C2.77503, 1.79512 3.17959, 0.901874 3.175, -3.9746e-14 " /><path d="M3.175, 5.99254e-12 C3.17673, -0.700156 2.93731, -1.39787 2.50603, -1.94947  C2.15997, -2.39553 1.69233, -2.74592 1.16703, -2.95274  C0.718814, -3.13032 0.229784, -3.20356 -0.250787, -3.16508  C-0.93107, -3.11274 -1.5911, -2.83274 -2.10152, -2.37997  C-2.73325, -1.82682 -3.12733, -1.01369 -3.17016, -0.175171  C-3.21805, 0.635721 -2.93761, 1.45956 -2.40501, 2.07282  C-1.94465, 2.6097 -1.29953, 2.98386 -0.60492, 3.11684  C-0.328486, 3.17032 -0.0498569, 3.1869 0.230968, 3.16659  C0.853, 3.12232 1.45982, 2.88884 1.95111, 2.50476  C2.4481, 2.11906 2.82516, 1.58179 3.01891, 0.98327  C3.12263, 0.663719 3.17466, 0.335963 3.175, 2.28084e-12 " /><path d="M0.741109 -3.08729 A3.175 3.175 0 0 1 2.70714 -1.65893" /><path d="M3.175, 1.33227e-14 C3.17584, -0.582043 3.01197, -1.16309 2.70714, -1.65893 " /><path d="M3.175, 2.34701e-12 C3.17676, -0.703417 2.93504, -1.40434 2.50003, -1.95716  C2.06339, -2.51789 1.43255, -2.92319 0.741109, -3.08729 " /><path d="M2.54095, -5.55112e-16 C2.56788, 0.514977 2.43255, 1.03834 2.15947, 1.47996  C1.88181, 1.93279 1.46165, 2.29796 0.972413, 2.51338  C0.472946, 2.73554 -0.0961173, 2.8003 -0.636367, 2.69788  C-1.19469, 2.59424 -1.71945, 2.31309 -2.1191, 1.90528  C-2.53746, 1.48176 -2.81764, 0.922998 -2.91012, 0.331775  C-3.00813, -0.278212 -2.90582, -0.919232 -2.62415, -1.47247  C-2.33315, -2.05023 -1.84938, -2.52922 -1.26757, -2.81876  C-0.654078, -3.12765 0.064686, -3.22282 0.741109, -3.08729 " /><path d="M2.54 0 A2.54 2.54 0 1 1 -0.767047 -2.42141" /><path d="M2.70714, -1.65893 C2.26082, -2.19286 1.63349, -2.56452 0.964788, -2.6836  C0.370578, -2.7928 -0.251771, -2.69989 -0.767047, -2.42141 " /><path d="M-0.767047, -2.42141 Q-0.579144, -2.45364 -0.38914, -2.45697 " /><path d="M-0.38914, -2.45697 C-0.160553, -2.46212 0.100325, -2.45019 0.355251, -2.3977  C0.727439, -2.32346 1.0942, -2.16757 1.40832, -1.93834 " /><path d="M1.40832, -1.93834 C1.72323, -1.71053 1.9847, -1.41008 2.1703, -1.07926  C2.29914, -0.852891 2.39119, -0.608289 2.45697, -0.389138 " /><path d="M2.54095, 3.67761e-16 L2.53993, -0.0187502 " /><path d="M2.53993, -0.0187502 Q2.51251, -0.20741 2.45697, -0.389138 " /><path d="M2.53993 -0.0187502 A2.54 2.54 0 0 1 2.54 -6.22121e-16" /></g>
<g   fill="none"
   stroke="rgb(165, 165, 165)"
   stroke-dasharray="1.2,0.8"
   stroke-linecap="butt"
   stroke-linejoin="miter"
   stroke-width="0.25"
   transform="scale(1, -1)"
  >
<path d="M-2.66805, 1.72108 C-2.30684, 2.1932 -1.7923, 2.54525 -1.22139, 2.71091  C-0.738373, 2.85289 -0.217264, 2.86189 0.270369, 2.73667  C0.948861, 2.56588 1.55595, 2.13142 1.93647, 1.54428  C2.23512, 1.08857 2.39691, 0.544857 2.39601, 4.53766e-06 " /><path d="M2.39601, 4.53766e-06 C2.39667, -0.443709 2.27041, -0.886615 2.03591, -1.26329  C1.79669, -1.65017 1.44449, -1.96588 1.03385, -2.1615  C0.569694, -2.3848 0.0325726, -2.45167 -0.472165, -2.34903  C-0.982396, -2.24771 -1.4562, -1.97403 -1.7989, -1.58268  C-2.16073, -1.17364 -2.37479, -0.637572 -2.39426, -0.0918086  C-2.4181, 0.483263 -2.22468, 1.06378 -1.86064, 1.50959  C-1.41885, 2.06044 -0.722944, 2.39496 -0.0168219, 2.39595  C0.55866, 2.40181 1.13279, 2.19033 1.56697, 1.81257  C2.08869, 1.36626 2.39959, 0.686573 2.396, 4.31079e-06 " /><path d="M2.396, 4.31079e-06 C2.39667, -0.443708 2.2704, -0.886614 2.0359, -1.26329  C1.79669, -1.65017 1.44448, -1.96587 1.03384, -2.16149  C0.569694, -2.38479 0.0325734, -2.45167 -0.472164, -2.34903  C-0.982393, -2.2477 -1.45619, -1.97403 -1.79889, -1.58268  C-2.16076, -1.17359 -2.37483, -0.637456 -2.39426, -0.0916325  C-2.418, 0.482084 -2.22553, 1.06122 -1.86308, 1.50658  C-1.41609, 2.06601 -0.707213, 2.40281 0.0088332, 2.39599  C0.5651, 2.39553 1.11819, 2.19261 1.54276, 1.83322  C2.0787, 1.38714 2.39981, 0.697286 2.396, 4.08391e-06 " /><path d="M2.396, 4.08391e-06 C2.39666, -0.443708 2.2704, -0.886613 2.0359, -1.26329  C1.79669, -1.65016 1.44448, -1.96587 1.03384, -2.16149  C0.569691, -2.38479 0.0325707, -2.45167 -0.472166, -2.34902  C-0.982396, -2.2477 -1.4562, -1.97403 -1.7989, -1.58268  C-2.16067, -1.17369 -2.37472, -0.637717 -2.39424, -0.0920346  C-2.41823, 0.484795 -2.22356, 1.0671 -1.85746, 1.5135  C-1.41837, 2.05846 -0.730235, 2.39076 -0.0304082, 2.39581  C0.531842, 2.4046 1.09416, 2.20631 1.52652, 1.84676  C2.07196, 1.401 2.39995, 0.704407 2.396, 3.85704e-06 " /><path d="M2.396, 3.85704e-06 C2.39666, -0.443708 2.2704, -0.886612 2.0359, -1.26329  C1.79669, -1.65016 1.44448, -1.96587 1.03384, -2.16149  C0.569687, -2.38479 0.0325648, -2.45166 -0.472174, -2.34902  C-0.982406, -2.24769 -1.45621, -1.97401 -1.79891, -1.58266  C-2.16046, -1.17392 -2.37447, -0.638351 -2.3942, -0.0930106  C-2.41874, 0.490028 -2.21969, 1.07866 -1.84628, 1.52711  C-1.39023, 2.08522 -0.671286, 2.41458 0.0492048, 2.39549  C0.584675, 2.38587 1.11429, 2.18919 1.52624, 1.84699  C2.07184, 1.40124 2.39995, 0.704527 2.39599, 3.63016e-06 " /><path d="M2.39599, 3.63016e-06 C2.39665, -0.443707 2.27039, -0.886611 2.03589, -1.26329  C1.79668, -1.65016 1.44448, -1.96587 1.03384, -2.16148  C0.569686, -2.38479 0.0325639, -2.45166 -0.472174, -2.34901  C-0.982406, -2.24769 -1.45621, -1.97401 -1.79891, -1.58265  C-2.16043, -1.17394 -2.37443, -0.638432 -2.39419, -0.0931366  C-2.4188, 0.490642 -2.21922, 1.08003 -1.84494, 1.52872  C-1.38775, 2.08726 -0.667068, 2.41609 0.0544372, 2.39537  C0.50615, 2.38582 0.954004, 2.24459 1.32949, 1.9933  C1.65612, 1.77596 1.92789, 1.47645 2.11261, 1.13034  C2.29805, 0.784632 2.39645, 0.392333 2.39599, 3.40328e-06 " /><path d="M2.39599, 3.40328e-06 C2.39665, -0.443707 2.27039, -0.88661 2.03589, -1.26329  C1.79668, -1.65016 1.44447, -1.96586 1.03384, -2.16148  C0.569685, -2.38478 0.0325644, -2.45166 -0.472172, -2.34901  C-0.982403, -2.24769 -1.4562, -1.97401 -1.7989, -1.58265  C-2.16045, -1.17391 -2.37446, -0.638346 -2.39419, -0.0930052  C-2.41873, 0.490005 -2.2197, 1.07861 -1.84632, 1.52705  C-1.39031, 2.08514 -0.671436, 2.41452 0.0490156, 2.39549  C0.587688, 2.38587 1.12041, 2.18688 1.53346, 1.84099  C2.07483, 1.39508 2.39988, 0.701365 2.39599, 3.1764e-06 " /><path d="M2.39599, 3.1764e-06 C2.39665, -0.443706 2.27039, -0.886609 2.03589, -1.26328  C1.79668, -1.65016 1.44447, -1.96586 1.03384, -2.16148  C0.569684, -2.38478 0.0325634, -2.45165 -0.472173, -2.34901  C-0.982404, -2.24768 -1.4562, -1.974 -1.7989, -1.58265  C-2.16042, -1.17394 -2.37442, -0.638439 -2.39419, -0.0931511  C-2.41881, 0.490714 -2.21916, 1.08019 -1.84478, 1.52891  C-1.38745, 2.0875 -0.666576, 2.41625 0.0550421, 2.39535  C0.604781, 2.38424 1.14768, 2.17559 1.56335, 1.81567  C2.08719, 1.36937 2.39961, 0.688166 2.39598, 2.94952e-06 " /><path d="M2.39598, 2.94952e-06 C2.39664, -0.443706 2.27038, -0.886608 2.03588, -1.26328  C1.79667, -1.65015 1.44447, -1.96586 1.03383, -2.16147  C0.569682, -2.38478 0.0325613, -2.45165 -0.472175, -2.349  C-0.982406, -2.24768 -1.45621, -1.974 -1.7989, -1.58264  C-2.16035, -1.17401 -2.37434, -0.638639 -2.39417, -0.0934592  C-2.41896, 0.492231 -2.21802, 1.08358 -1.84148, 1.53287  C-1.39317, 2.07763 -0.693957, 2.4033 0.0115115, 2.39595  C0.547217, 2.39476 1.08, 2.20633 1.49735, 1.87048  C2.05977, 1.42562 2.40021, 0.717072 2.39598, 2.72264e-06 " /><path d="M2.39598, 2.72264e-06 C2.39664, -0.443706 2.27038, -0.886607 2.03588, -1.26328  C1.79667, -1.65015 1.44447, -1.96586 1.03383, -2.16147  C0.569677, -2.38477 0.0325539, -2.45165 -0.472184, -2.349  C-0.982419, -2.24767 -1.45622, -1.97398 -1.79892, -1.58262  C-2.16008, -1.1743 -2.37403, -0.639421 -2.39412, -0.0946635  C-2.41829, 0.47337 -2.23068, 1.04706 -1.87553, 1.49104  C-1.53583, 1.92071 -1.04407, 2.22661 -0.508501, 2.34139  C0.190417, 2.49748 0.95402, 2.31593 1.50789, 1.86198  C2.06418, 1.41676 2.40011, 0.712503 2.39598, 2.49576e-06 " /><path d="M2.39598, 2.49576e-06 C2.39664, -0.443705 2.27038, -0.886606 2.03588, -1.26328  C1.79667, -1.65015 1.44446, -1.96585 1.03383, -2.16147  C0.569671, -2.38477 0.0325438, -2.45164 -0.472197, -2.34899  C-0.982437, -2.24766 -1.45624, -1.97397 -1.79894, -1.58259  C-2.15971, -1.17469 -2.3736, -0.640497 -2.39405, -0.0963202  C-2.41899, 0.479005 -2.22644, 1.06019 -1.86288, 1.50678  C-1.41571, 2.06631 -0.706545, 2.40304 0.00968206, 2.39595  C0.56747, 2.39531 1.12197, 2.19106 1.54688, 1.82971  C2.08039, 1.38357 2.39974, 0.695452 2.39597, 2.26888e-06 " /><path d="M2.39597, 2.26888e-06 C2.39663, -0.443705 2.27037, -0.886605 2.03588, -1.26328  C1.79667, -1.65015 1.44446, -1.96585 1.03383, -2.16147  C0.56967, -2.38477 0.0325428, -2.45164 -0.472197, -2.34899  C-0.982437, -2.24765 -1.45624, -1.97396 -1.79894, -1.58259  C-2.15968, -1.17471 -2.37356, -0.640576 -2.39404, -0.0964439  C-2.41901, 0.47886 -2.22651, 1.06004 -1.86299, 1.50664  C-1.41594, 2.0661 -0.706966, 2.40287 0.00913827, 2.39595  C0.565952, 2.39543 1.11955, 2.19203 1.54424, 1.83193  C2.07929, 1.38583 2.39976, 0.696615 2.39597, 2.042e-06 " /><path d="M2.39597, 2.042e-06 C2.39663, -0.443704 2.27037, -0.886604 2.03587, -1.26328  C1.79666, -1.65015 1.44446, -1.96585 1.03382, -2.16146  C0.56967, -2.38477 0.0325441, -2.45164 -0.472195, -2.34898  C-0.982433, -2.24765 -1.45624, -1.97396 -1.79893, -1.58259  C-2.15973, -1.17465 -2.37362, -0.640417 -2.39405, -0.0962001  C-2.41896, 0.479142 -2.22637, 1.06033 -1.86277, 1.50691  C-1.41548, 2.0665 -0.706136, 2.40319 0.0102055, 2.39595  C0.568906, 2.39519 1.12425, 2.19012 1.54936, 1.8276  C2.08141, 1.38143 2.39971, 0.694351 2.39597, 1.81511e-06 " /><path d="M2.39597, 1.81511e-06 C2.39663, -0.443704 2.27037, -0.886603 2.03587, -1.26327  C1.79666, -1.65014 1.44446, -1.96585 1.03382, -2.16146  C0.569672, -2.38476 0.0325506, -2.45163 -0.472185, -2.34898  C-0.982419, -2.24765 -1.45622, -1.97397 -1.79891, -1.58261  C-2.15998, -1.17438 -2.37391, -0.639671 -2.39409, -0.0950545  C-2.41847, 0.475255 -2.22929, 1.05128 -1.87149, 1.49605  C-1.44009, 2.04173 -0.760784, 2.37985 -0.0653384, 2.39507  C0.517813, 2.4129 1.10398, 2.20713 1.54804, 1.82872  C2.08086, 1.38257 2.39972, 0.694938 2.39596, 1.58823e-06 " /><path d="M2.39596, 1.58823e-06 C2.39662, -0.443704 2.27036, -0.886602 2.03587, -1.26327  C1.79666, -1.65014 1.44445, -1.96584 1.03382, -2.16146  C0.569663, -2.38476 0.0325348, -2.45163 -0.472206, -2.34897  C-0.982448, -2.24764 -1.45625, -1.97394 -1.79894, -1.58256  C-2.15938, -1.17503 -2.3732, -0.641459 -2.39397, -0.0978052  C-2.41926, 0.477272 -2.22724, 1.05834 -1.86423, 1.50509  C-1.43439, 2.04325 -0.762624, 2.37712 -0.074092, 2.39481  C0.500235, 2.41439 1.0784, 2.21733 1.52122, 1.85108  C2.06973, 1.40546 2.39996, 0.706698 2.39596, 1.36134e-06 " /><path d="M2.39596, 1.36134e-06 C2.39662, -0.443703 2.27036, -0.886601 2.03586, -1.26327  C1.79665, -1.65014 1.44445, -1.96584 1.03382, -2.16145  C0.569664, -2.38476 0.0325386, -2.45163 -0.4722, -2.34897  C-0.982439, -2.24764 -1.45624, -1.97394 -1.79893, -1.58257  C-2.15955, -1.17484 -2.3734, -0.640938 -2.394, -0.097007  C-2.41911, 0.478201 -2.2268, 1.05933 -1.8635, 1.50599  C-1.41702, 2.06511 -0.709018, 2.40205 0.00646592, 2.39595  C0.558118, 2.396 1.1069, 2.19707 1.53036, 1.84352  C2.07353, 1.39769 2.39988, 0.702702 2.39596, 1.13445e-06 " /><path d="M2.39596, 1.13445e-06 C2.39662, -0.443703 2.27036, -0.8866 2.03586, -1.26327  C1.79665, -1.65014 1.44445, -1.96584 1.03382, -2.16145  C0.569662, -2.38475 0.0325355, -2.45162 -0.472203, -2.34897  C-0.982443, -2.24763 -1.45625, -1.97394 -1.79894, -1.58256  C-2.15943, -1.17497 -2.37326, -0.641293 -2.39398, -0.097553  C-2.41921, 0.477565 -2.2271, 1.05865 -1.864, 1.50537  C-1.41828, 2.06388 -0.711688, 2.40096 0.00285509, 2.39595  C0.563975, 2.39693 1.12231, 2.19175 1.54927, 1.82766  C2.08136, 1.3815 2.3997, 0.694386 2.39595, 9.07564e-07 " /><path d="M2.39595, 9.07564e-07 C2.39661, -0.443702 2.27035, -0.886598 2.03586, -1.26327  C1.79665, -1.65013 1.44445, -1.96584 1.03381, -2.16145  C0.569659, -2.38475 0.0325308, -2.45162 -0.472209, -2.34896  C-0.982451, -2.24763 -1.45626, -1.97393 -1.79894, -1.58255  C-2.15919, -1.17521 -2.37299, -0.641968 -2.39393, -0.0985914  C-2.4194, 0.476351 -2.22767, 1.05736 -1.86495, 1.50418  C-1.43624, 2.04143 -0.766533, 2.37542 -0.0794657, 2.39463  C0.418206, 2.41218 0.919814, 2.26881 1.33303, 1.99088  C1.65867, 1.77336 1.92951, 1.47407 2.11358, 1.12843  C2.29838, 0.78319 2.3964, 0.391611 2.39595, 6.80675e-07 " /><path d="M2.39595, 6.80675e-07 C2.39661, -0.443702 2.27035, -0.886597 2.03585, -1.26327  C1.79665, -1.65013 1.44445, -1.96583 1.03382, -2.16144  C0.569669, -2.38474 0.0325525, -2.45161 -0.472179, -2.34897  C-0.982407, -2.24764 -1.4562, -1.97396 -1.79889, -1.5826  C-2.16008, -1.17425 -2.37403, -0.639338 -2.39409, -0.0945481  C-2.4182, 0.472748 -2.23109, 1.04568 -1.8768, 1.48939  C-1.54385, 1.91115 -1.0646, 2.21417 -0.540831, 2.33411  C0.115973, 2.48973 0.835115, 2.34837 1.38413, 1.95569  C2.01159, 1.51818 2.40134, 0.764926 2.39594, 4.53783e-07 " /><path d="M2.39594, 4.53783e-07 C2.39661, -0.443701 2.27035, -0.886596 2.03585, -1.26326  C1.79664, -1.65013 1.44444, -1.96583 1.03381, -2.16144  C0.569653, -2.38475 0.0325238, -2.45161 -0.472217, -2.34895  C-0.982461, -2.24762 -1.45627, -1.97391 -1.79895, -1.58252  C-2.15886, -1.17557 -2.3726, -0.642944 -2.39386, -0.100093  C-2.41968, 0.474591 -2.22849, 1.05547 -1.86634, 1.50244  C-1.43988, 2.03783 -0.774293, 2.37201 -0.0901801, 2.39424  C0.489604, 2.41796 1.07471, 2.22064 1.52172, 1.85065  C2.06993, 1.40502 2.39994, 0.706468 2.39594, 2.26892e-07 " /><path d="M2.39594, 2.26892e-07 C2.40106, -0.754846 2.022, -1.49877 1.40832, -1.93834 " /></g>
<g   fill="none"
   stroke="rgb(0, 0, 0)"
   stroke-linecap="butt"
   stroke-linejoin="miter"
   stroke-width="0.35"
   transform="scale(1, -1)"
  >
<circle cx ="0" cy ="0" r ="2.77075" /><circle cx ="0" cy ="0" r ="4.7625" /><path d="M1.37848, 2.3876 C0.371469, 2.3876 -0.371469, 2.3876 -1.37848, 2.3876 " /><path d="M-1.37848, 2.3876 C-1.88199, 1.5155 -2.25346, 0.872099 -2.75696, 4.54252e-13 " /><path d="M-2.75696, -4.55636e-13 C-2.25346, -0.872099 -1.88199, -1.5155 -1.37848, -2.3876 " /><path d="M-1.37848, -2.3876 C-0.371469, -2.3876 0.371469, -2.3876 1.37848, -2.3876 " /><path d="M1.37848, -2.3876 C1.88199, -1.5155 2.25346, -0.872099 2.75696, -4.54747e-13 " /><path d="M2.75696, 4.53859e-13 C2.25346, 0.872099 1.88199, 1.5155 1.37848, 2.3876 " /><circle cx ="0" cy ="0" r ="0.382016" /></g>

</svg>
