<svg xmlns="http://www.w3.org/2000/svg" viewBox="-1.6830196 -2.3152896 3.0572092 4.5194992">
<rect width="100%" height="100%" fill="white"/>
<g   fill="none"
   stroke="rgb(0, 0, 0)"
   stroke-linecap="butt"
   stroke-linejoin="miter"
   stroke-width="0.35"
   transform="scale(1, -1)"
  >
<path id= "1" d=" M 0.690131 -0.930098 L 0.407288 -0.766798 " />
<path id= "2" d=" M 1.0625 1.8403 L 0.779657 2.0036 " />
<path id= "3" d=" M -1.0625 -1.8403 L -1.34534 -1.677 " />
</g>
<g   fill="none"
   stroke="rgb(0, 0, 0)"
   stroke-linecap="butt"
   stroke-linejoin="miter"
   stroke-width="0.35"
   transform="scale(1, -1)"
  >
<path d="M0.667814 -0.631497 A0.275 0.158771 -120 0 0 0.407288 -0.766798" />
<path d="M0.407288 -0.766798 A0.275 0.158771 -120 0 0 0.35611 -0.691895" />
<path d="M0.950657 -0.794797 A0.275 0.158771 -120 0 0 0.690131 -0.930098" />
<path id= "4" d=" M 0.163289 0.0897813 L 0.35611 -0.691895 " />
<path d="M0.163289 0.0897813 A0.75 0.433013 60 0 1 0.247487 0.469486" />
<path id= "6" d=" M 0.247487 0.469486 L 0.615593 0.682012 " />
<path d="M0.805647 1.06377 A0.275 0.158771 -120 0 0 0.615593 0.682012" />
<path d="M0.805647 1.06377 A1.575 0.909327 60 0 1 0.504657 1.52729" />
<path d="M0.504657 1.52729 A1.575 0.909327 60 0 1 0.390689 1.57632" />
<path d="M0.63886 1.41727 A0.275 0.158771 60 0 1 0.379696 1.15944" />
<path d="M0.390689 1.57632 A0.275 0.158771 60 0 1 0.0968528 1.32274" />
<path id= "12" d=" M -0.0587155 0.847697 L 0.0968528 1.32274 " />
<path id= "13" d=" M 0.224127 0.684398 L -0.0587155 0.847697 " />
<path id= "14" d=" M 0.224127 0.684398 L 0.379696 1.15944 " />
<path d="M0.667814 -0.631497 A2.125 1.22687 60 0 1 0.779657 2.0036" />
<path d="M0.779657 2.0036 A2.125 1.22687 60 0 1 -0.282843 1.89835" />
<path d="M-1.2335 -1.72922 A2.125 1.22687 -120 0 0 -1.34534 -1.677" />
<path d="M-1.34534 -1.677 A2.125 1.22687 -120 0 0 -0.282843 1.89835" />
<path d="M-1.2335 -1.72922 A0.275 0.158771 60 0 1 -0.921795 -1.42969" />
<path id= "20" d=" M -0.728974 -0.425367 L -0.921795 -1.42969 " />
<path d="M-0.728974 -0.425367 A0.75 0.433013 -120 0 0 -0.813173 -0.142887" />
<path id= "22" d=" M -0.813173 -0.142887 L -1.18128 -0.355413 " />
<path d="M-1.37133 -0.193106 A0.275 0.158771 60 0 1 -1.31878 -0.369033" />
<path d="M-1.31878 -0.369033 A0.275 0.158771 60 0 1 -1.18128 -0.355413" />
<path d="M-1.37133 -0.193106 A1.575 0.909327 -120 0 0 -0.956375 0.798589" />
<path d="M-0.956375 0.798589 A0.275 0.158771 -120 0 0 -0.701274 0.925822" />
<path d="M-0.701274 0.925822 A0.275 0.158771 -120 0 0 -0.662538 0.884308" />
<path id= "28" d=" M -0.50697 0.588897 L -0.662538 0.884308 " />
<path d="M-0.50697 0.588897 A0.75 0.433013 -120 0 0 -0.282843 0.775672" />
<path d="M-0.0587155 0.847697 A0.75 0.433013 60 0 1 -0.282843 0.775672" />
<path d="M-0.950657 -1.89252 A0.275 0.158771 60 0 1 -0.638952 -1.59299" />
<path id= "32" d=" M -0.446132 -0.588666 L -0.638952 -1.59299 " />
<path id= "33" d=" M -0.446132 -0.588666 L -0.728974 -0.425367 " />
<path id= "34" d=" M -0.53033 -0.306186 L -0.813173 -0.142887 " />
<path d="M-0.446132 -0.588666 A0.75 0.433013 -120 0 0 -0.53033 -0.306186" />
<path d="M-1.07718 -0.29531 A1.575 0.909327 -120 0 0 -0.673532 0.635289" />
<path d="M-0.673532 0.635289 A0.275 0.158771 -120 0 0 -0.582172 0.731699" />
<path id= "38" d=" M -0.224127 0.425598 L -0.50697 0.588897 " />
<path d="M0.224127 0.684398 A0.75 0.433013 60 0 1 -2.51484e-16 0.612372" />
<path d="M-0.224127 0.425598 A0.75 0.433013 -120 0 0 -1.40462e-16 0.612372" />
<path d="M-0.950657 -1.89252 A2.125 1.22687 -120 0 0 -1.0625 -1.8403" />
<path d="M0.950657 -0.794797 A2.125 1.22687 60 0 1 1.0625 1.8403" />
</g>

</svg>
