<svg xmlns="http://www.w3.org/2000/svg" viewBox="-0.74 -2.465 1.6800000000000002 4.93">
<rect width="100%" height="100%" fill="white"/>
<g   fill="none"
   stroke="rgb(0, 0, 0)"
   stroke-linecap="butt"
   stroke-linejoin="miter"
   stroke-width="0.35"
   transform="scale(1, -1)"
  >
<path id= "1" d=" M 0 2.125 L -0.4 2.125 " />
<path id= "2" d=" M 0 -2.125 L -0.4 -2.125 " />
</g>
<g   fill="none"
   stroke="rgb(0, 0, 0)"
   stroke-linecap="butt"
   stroke-linejoin="miter"
   stroke-width="0.35"
   transform="scale(1, -1)"
  >
<path d="M-0.4, 1.34443 C-0.4, 1.27257 -0.4, 1.17173 -0.4, 1.08375  C-0.4, 0.995879 -0.4, 0.926199 -0.4, 0.903615 " /><path d="M0, 1.34443 C0, 1.27257 0, 1.17173 0, 1.08375  C0, 0.995879 0, 0.926199 0, 0.903615 " /><path id= "3" d=" M 0 0.630925 L 0 0.903615 " />
<path id= "4" d=" M 0 0.630925 L -0.4 0.630925 " />
<path id= "5" d=" M -0.4 0.630925 L -0.4 0.903615 " />
<path d="M0, 0.630925 Q0, 0.56914 0, 0.536971 " /><path d="M-0.4, 0.630925 Q-0.4, 0.56914 -0.4, 0.536971 " /><path id= "8" d=" M -0.4 0.316964 L -0.4 0.536971 " />
<path id= "9" d=" M 0 0.316964 L -0.4 0.316964 " />
<path id= "10" d=" M 0 0.316964 L 0 0.536971 " />
<path d="M-0.4, 1.34443 Q-0.4, 1.39511 -0.4, 1.44579  Q-0.4, 1.5431 -0.4, 1.63078  Q-0.4, 1.71558 -0.4, 1.78968  Q-0.4, 1.86063 -0.4, 1.91997  Q-0.4, 1.94684 -0.4, 1.97371  Q-0.4, 1.99663 -0.4, 2.01955  Q-0.4, 2.03843 -0.4, 2.05731  Q-0.4, 2.07207 -0.4, 2.08683  Q-0.4, 2.09742 -0.4, 2.10801  Q-0.4, 2.11438 -0.4, 2.12075  Q-0.4, 2.12287 -0.4, 2.125 " /><path d="M-0.4, -1.34443 Q-0.4, -1.39511 -0.4, -1.44579  Q-0.4, -1.5431 -0.4, -1.63078  Q-0.4, -1.71558 -0.4, -1.78968  Q-0.4, -1.86063 -0.4, -1.91997  Q-0.4, -1.94684 -0.4, -1.97371  Q-0.4, -1.99663 -0.4, -2.01955  Q-0.4, -2.03843 -0.4, -2.05731  Q-0.4, -2.07207 -0.4, -2.08683  Q-0.4, -2.09742 -0.4, -2.10801  Q-0.4, -2.11438 -0.4, -2.12075  Q-0.4, -2.12287 -0.4, -2.125 " /><path d="M-0.4, -1.34443 C-0.4, -1.27257 -0.4, -1.17173 -0.4, -1.08375  C-0.4, -0.995879 -0.4, -0.926199 -0.4, -0.903615 " /><path id= "14" d=" M -0.4 -0.630925 L -0.4 -0.903615 " />
<path d="M-0.4, -0.630925 Q-0.4, -0.56914 -0.4, -0.536971 " /><path id= "16" d=" M -0.4 -0.316964 L -0.4 -0.536971 " />
<path d="M-0.4, -0.316964 Q-0.4, -0.166139 -0.4, -5.55112e-17 " /><path d="M-0.4, 0.316964 Q-0.4, 0.166139 -0.4, 5.55112e-17 " /><path d="M0, -1.34443 C0, -1.27257 0, -1.17173 0, -1.08375  C0, -0.995879 0, -0.926199 0, -0.903615 " /><path id= "20" d=" M 0 -0.630925 L 0 -0.903615 " />
<path id= "21" d=" M 0 -0.630925 L -0.4 -0.630925 " />
<path d="M0, -0.630925 Q0, -0.56914 0, -0.536971 " /><path id= "23" d=" M 0 -0.316964 L -0.4 -0.316964 " />
<path id= "24" d=" M 0 -0.316964 L 0 -0.536971 " />
<path d="M0, 0.316964 Q0, 0.166139 0, 5.55112e-17 " /><path d="M0, -0.316964 Q0, -0.166139 0, -5.55112e-17 " /><path d="M0, -1.34443 Q0, -1.39511 0, -1.44579  Q0, -1.5431 0, -1.63078  Q0, -1.71558 0, -1.78968  Q0, -1.86063 0, -1.91997  Q0, -1.94684 0, -1.97371  Q0, -1.99663 0, -2.01955  Q0, -2.03843 0, -2.05731  Q0, -2.07207 0, -2.08683  Q0, -2.09742 0, -2.10801  Q0, -2.11438 0, -2.12075  Q0, -2.12287 0, -2.125 " /><path d="M0, 1.34443 Q0, 1.39511 0, 1.44579  Q0, 1.5431 0, 1.63078  Q0, 1.71558 0, 1.78968  Q0, 1.86063 0, 1.91997  Q0, 1.94684 0, 1.97371  Q0, 1.99663 0, 2.01955  Q0, 2.03843 0, 2.05731  Q0, 2.07207 0, 2.08683  Q0, 2.09742 0, 2.10801  Q0, 2.11438 0, 2.12075  Q0, 2.12287 0, 2.125 " /></g>

</svg>
