<svg xmlns="http://www.w3.org/2000/svg" viewBox="-1.7856576 -1.5006276 3.5713152 3.3925652">
<rect width="100%" height="100%" fill="white"/>
<g   fill="none"
   stroke="rgb(0, 0, 0)"
   stroke-linecap="butt"
   stroke-linejoin="miter"
   stroke-width="0.35"
   transform="scale(1, -1)"
  >
<path d="M1.34443 -1.64564 A0.275 0.275 0 0 0 0.903615 -1.4992" /><path id= "2" d=" M 0.630925 -0.405504 L 0.903615 -1.4992 " />
<path d="M0.630925 -0.405504 A0.75 0.75 0 0 1 0.75 -1.83697e-16" /><path id= "4" d=" M 0.75 0 L 1.27058 0 " />
<path d="M1.53936 0.333173 A0.275 0.275 0 0 0 1.27058 0" /><path d="M1.53936 0.333173 A1.575 1.575 0 0 1 0.952518 1.25433" /><path d="M0.952518 1.25433 A0.275 0.275 0 0 1 0.536971 1.15154" /><path id= "8" d=" M 0.316964 0.679731 L 0.536971 1.15154 " />
<path d="M1.34443 -1.64564 A2.125 2.125 0 0 1 7.32082e-16 2.125" /><path d="M-1.34443 -1.64564 A2.125 2.125 0 0 0 -7.32082e-16 2.125" /><path d="M-1.34443 -1.64564 A0.275 0.275 0 0 1 -0.903615 -1.4992" /><path id= "12" d=" M -0.630925 -0.405504 L -0.903615 -1.4992 " />
<path d="M-0.630925 -0.405504 A0.75 0.75 0 0 0 -0.75 -1.83697e-16" /><path id= "14" d=" M -0.75 0 L -1.27058 0 " />
<path d="M-1.53936 0.333173 A0.275 0.275 0 0 1 -1.27058 0" /><path d="M-1.53936 0.333173 A1.575 1.575 0 0 0 -0.952518 1.25433" /><path d="M-0.952518 1.25433 A0.275 0.275 0 0 0 -0.536971 1.15154" /><path id= "18" d=" M -0.316964 0.679731 L -0.536971 1.15154 " />
<path d="M-0.316964 0.679731 A0.75 0.75 0 0 0 -4.59243e-17 0.75" /><path d="M0.316964 0.679731 A0.75 0.75 0 0 1 4.59243e-17 0.75" /></g>

</svg>
