<svg xmlns="http://www.w3.org/2000/svg" viewBox="-6.4959999999999996 -6.4959999999999996 12.991999999999999 12.991999999999999">
<rect width="100%" height="100%" fill="white"/>
<g   fill="none"
   stroke="rgb(0, 0, 0)"
   stroke-linecap="butt"
   stroke-linejoin="miter"
   stroke-width="0.35"
   transform="scale(1, -1)"
  >
<circle cx ="0" cy ="0" r ="5.6" /><path d="M1.87701 -0.99 A11.9944 1.15017 106.919 0 1 1.58432 -2.20421e-13" />
<path d="M2.71094 -2.05899 A11.9997 0.936646 128.964 0 1 1.87701 -0.99" />
<path d="M2.71094 -2.05899 A3.40421 3.40421 0 0 0 2.05899 -2.71094" /><path d="M0.99 -1.87701 A11.9997 0.936646 -38.9635 0 1 2.05899 -2.71094" />
<path d="M2.1616e-13 -1.58432 A11.9944 1.15017 -16.9194 0 1 0.99 -1.87701" />
<path d="M-0.99 -1.87701 A11.9944 1.15017 16.9194 0 1 -2.20365e-13 -1.58432" />
<path d="M-2.05899 -2.71094 A11.9997 0.936646 38.9635 0 1 -0.99 -1.87701" />
<path d="M-2.05899 -2.71094 A3.40421 3.40421 0 0 0 -2.71094 -2.05899" /><path d="M-1.87701 -0.99 A11.9997 0.936646 -128.964 0 1 -2.71094 -2.05899" />
<path d="M-1.58432 -2.16216e-13 A11.9944 1.15017 -106.919 0 1 -1.87701 -0.99" />
<path d="M-1.87701 0.99 A11.9944 1.15017 -73.0806 0 1 -1.58432 2.20365e-13" />
<path d="M-2.71094 2.05899 A11.9997 0.936646 -51.0365 0 1 -1.87701 0.99" />
<path d="M-2.71094 2.05899 A3.40421 3.40421 0 0 0 -2.05899 2.71094" /><path d="M-0.99 1.87701 A11.9997 0.936646 141.036 0 1 -2.05899 2.71094" />
<path d="M-2.1616e-13 1.58432 A11.9944 1.15017 163.081 0 1 -0.99 1.87701" />
<path d="M0.99 1.87701 A11.9944 1.15017 -163.081 0 1 2.20365e-13 1.58432" />
<path d="M2.05899 2.71094 A11.9997 0.936646 -141.036 0 1 0.99 1.87701" />
<path d="M2.05899 2.71094 A3.40421 3.40421 0 0 0 2.71094 2.05899" /><path d="M1.87701 0.99 A11.9997 0.936646 51.0365 0 1 2.71094 2.05899" />
<path d="M1.58432 2.16216e-13 A11.9944 1.15017 73.0806 0 1 1.87701 0.99" />
<path d="M1.205, 1.98452e-13 C1.29292, 0.273325 1.39439, 0.573499 1.53964, 0.99 " /><path id= "23" d=" M 1.58432 0 L 1.205 0 " />
<path id= "24" d=" M 1.87701 0.99 L 1.53964 0.99 " />
<path d="M1.59069, 1.0482 C1.86536, 1.29644 2.21734, 1.61402 2.71094, 2.05899 " /><path d="M1.53964, 0.99 L1.59069, 1.0482 " /><path d="M2.05899, 2.71094 C1.61402, 2.21734 1.29644, 1.86536 1.0482, 1.59069 " /><path d="M1.59069 1.0482 A1.905 1.905 0 0 1 1.0482 1.59069" /><path id= "29" d=" M 0.99 1.87701 L 0.99 1.53964 " />
<path d="M1.0482, 1.59069 L0.99, 1.53964 " /><path id= "31" d=" M 1.75895e-16 1.58432 L 1.33782e-16 1.205 " />
<path d="M0.99, 1.53964 C0.573499, 1.39439 0.273325, 1.29292 1.98674e-13, 1.205 " /><path id= "33" d=" M -0.99 1.87701 L -0.99 1.53964 " />
<path d="M-1.98508e-13, 1.205 C-0.273325, 1.29292 -0.573499, 1.39439 -0.99, 1.53964 " /><path d="M-1.0482, 1.59069 C-1.29644, 1.86536 -1.61402, 2.21734 -2.05899, 2.71094 " /><path d="M-0.99, 1.53964 L-1.0482, 1.59069 " /><path d="M-2.71094, 2.05899 C-2.21734, 1.61402 -1.86536, 1.29644 -1.59069, 1.0482 " /><path d="M-1.0482 1.59069 A1.905 1.905 0 0 1 -1.59069 1.0482" /><path id= "39" d=" M -1.87701 0.99 L -1.53964 0.99 " />
<path d="M-1.59069, 1.0482 L-1.53964, 0.99 " /><path id= "41" d=" M -1.58432 1.94024e-16 L -1.205 1.4757e-16 " />
<path d="M-1.53964, 0.99 C-1.39439, 0.573499 -1.29292, 0.273325 -1.205, 1.98674e-13 " /><path id= "43" d=" M -1.87701 -0.99 L -1.53964 -0.99 " />
<path d="M-1.205, -1.98064e-13 C-1.29292, -0.273325 -1.39439, -0.573499 -1.53964, -0.99 " /><path d="M-1.59069, -1.0482 C-1.86536, -1.29644 -2.21734, -1.61402 -2.71094, -2.05899 " /><path d="M-1.53964, -0.99 L-1.59069, -1.0482 " /><path d="M-2.05899, -2.71094 C-1.61402, -2.21734 -1.29644, -1.86536 -1.0482, -1.59069 " /><path d="M-1.59069 -1.0482 A1.905 1.905 0 0 1 -1.0482 -1.59069" /><path id= "49" d=" M -0.99 -1.87701 L -0.99 -1.53964 " />
<path d="M-1.0482, -1.59069 L-0.99, -1.53964 " /><path id= "51" d=" M -3.51791e-16 -1.58432 L -2.67564e-16 -1.205 " />
<path d="M-0.99, -1.53964 C-0.573499, -1.39439 -0.273325, -1.29292 -1.98827e-13, -1.205 " /><path id= "53" d=" M 0.99 -1.87701 L 0.99 -1.53964 " />
<path d="M1.98064e-13, -1.205 C0.273325, -1.29292 0.573499, -1.39439 0.99, -1.53964 " /><path d="M1.0482, -1.59069 C1.29644, -1.86536 1.61402, -2.21734 2.05899, -2.71094 " /><path d="M0.99, -1.53964 L1.0482, -1.59069 " /><path d="M2.71094, -2.05899 C2.21734, -1.61402 1.86536, -1.29644 1.59069, -1.0482 " /><path d="M1.0482 -1.59069 A1.905 1.905 0 0 1 1.59069 -1.0482" /><path id= "59" d=" M 1.87701 -0.99 L 1.53964 -0.99 " />
<path d="M1.59069, -1.0482 L1.53964, -0.99 " /><path d="M1.53964, -0.99 C1.39439, -0.573499 1.29292, -0.273325 1.205, -1.98508e-13 " /></g>

</svg>
