<svg xmlns="http://www.w3.org/2000/svg" viewBox="-6.8695696 -7.4429696000000005 29.0181192 22.3235192">
<rect width="100%" height="100%" fill="white"/>
<g   fill="none"
   stroke="rgb(0, 0, 0)"
   stroke-linecap="butt"
   stroke-linejoin="miter"
   stroke-width="0.35"
   transform="scale(1, -1)"
  >
<path d="M-4.86832 -1.90938 A6.26444 6.26444 0 0 1 -3.57062 -4.69894" /><path d="M2.28409 5.44172 A6.26444 6.26444 0 0 1 -4.86833 0.423771" /><path id= "3" d=" M 4.20296 1.2396 L 4.31526 1.17476 " />
<path id= "4" d=" M 1.47697 -4.5189 L 1.58927 -4.58374 " />
<path id= "5" d=" M 5.10098 0.72112 L 5.21328 0.656283 " />
<path id= "6" d=" M 2.375 -5.03738 L 2.4873 -5.10222 " />
<path id= "7" d=" M 5.99901 0.202643 L 6.11131 0.137808 " />
<path id= "8" d=" M 3.27302 -5.55586 L 3.38532 -5.62069 " />
<path id= "9" d=" M 6.89704 -0.315833 L 7.00933 -0.380667 " />
<path id= "10" d=" M 4.17105 -6.07433 L 4.28335 -6.13917 " />
<path id= "11" d=" M 7.79507 -0.83431 L 7.90736 -0.899142 " />
<path id= "12" d=" M 5.06908 -6.59281 L 5.18137 -6.65764 " />
<path id= "13" d=" M 8.6931 -1.35279 L 8.80538 -1.41762 " />
<path id= "14" d=" M 5.96711 -7.11129 L 6.0794 -7.17612 " />
<path id= "15" d=" M 9.59112 -1.87126 L 9.70341 -1.93609 " />
<path id= "16" d=" M 6.86514 -7.62976 L 6.97742 -7.69459 " />
<path id= "17" d=" M 10.4892 -2.38974 L 10.6014 -2.45457 " />
<path id= "18" d=" M 7.76316 -8.14824 L 7.87545 -8.21307 " />
<path id= "19" d=" M 11.3872 -2.90822 L 11.4995 -2.97304 " />
<path id= "20" d=" M 8.66119 -8.66672 L 8.77347 -8.73154 " />
<path id= "21" d=" M 12.2852 -3.42669 L 12.3975 -3.49152 " />
<path id= "22" d=" M 9.55922 -9.18519 L 9.6715 -9.25002 " />
<path id= "23" d=" M 13.1832 -3.94517 L 13.2955 -4.00999 " />
<path id= "24" d=" M 10.4572 -9.70367 L 10.5695 -9.76849 " />
<path id= "25" d=" M 14.0813 -4.46365 L 14.1935 -4.52847 " />
<path id= "26" d=" M 11.3553 -10.2221 L 11.4676 -10.287 " />
<path id= "27" d=" M 14.9793 -4.98212 L 15.0916 -5.04694 " />
<path id= "28" d=" M 12.2533 -10.7406 L 12.3656 -10.8054 " />
<path id= "29" d=" M 15.8773 -5.5006 L 15.9896 -5.56542 " />
<path id= "30" d=" M 13.1513 -11.2591 L 13.2636 -11.3239 " />
<path id= "31" d=" M 16.7753 -6.01908 L 16.8876 -6.08389 " />
<path id= "32" d=" M 14.0494 -11.7776 L 14.1616 -11.8424 " />
<path id= "33" d=" M 17.6734 -6.53755 L 17.7856 -6.60237 " />
<path id= "34" d=" M 14.9474 -12.2961 L 15.0597 -12.3609 " />
<path id= "35" d=" M 18.5714 -7.05603 L 18.6837 -7.12084 " />
<path id= "36" d=" M 15.8454 -12.8145 L 15.9577 -12.8793 " />
<path id= "37" d=" M 19.4694 -7.57451 L 19.548 -7.61988 " />
</g>
<g   fill="none"
   stroke="rgb(0, 0, 0)"
   stroke-linecap="butt"
   stroke-linejoin="miter"
   stroke-width="0.35"
   transform="scale(1, -1)"
  >
<path d="M-4.86832 -1.90936 A6.1916 3.57472 3.11665e-15 0 0 2.42813 1.99294" />
<path d="M-4.84415 -1.02028 A5.1983 3.00124 -120 0 0 -4.79891 -0.624166" />
<path d="M-4.79891 -0.624166 A6.1916 3.57472 3.11665e-15 0 0 -4.86832 0.423782" />
<path d="M-4.86832 0.423782 A6.1916 3.57472 3.11665e-15 0 0 2.42813 3.54837" />
<path d="M2.42813 3.54837 A5.1983 3.00124 -120 0 0 2.49036 2.80658" />
<path d="M4.23868 2.4472 A5.9944 3.46087 60 0 1 2.28409 5.44172" />
<path d="M-3.57062 -4.69894 A5.9944 3.46087 60 0 1 4.23868 2.4472" />
<path d="M2.49036 2.80658 A5.1983 3.00124 -120 0 0 2.42813 1.99294" />
<path id= "9" d=" M -4.79891 -0.624166 L -4.67333 -0.55166 " />
<path id= "10" d=" M -0.391536 1.92043 L 2.42813 3.54837 " />
<path d="M4.04958, 0.892428 Q4.16585, 0.569246 4.18705, 0.174981 " /><path d="M4.00762, 0.719913 Q4.06117, 0.493598 4.07474, 0.239822 " /><path d="M4.18705, 0.174981 C4.22911, -0.558095 4.00153, -1.44087 3.58672, -2.20763  C3.32897, -2.68797 3.00232, -3.12148 2.65165, -3.45456  C2.09232, -3.99008 1.47586, -4.25524 1.00432, -4.17519 " /><path d="M4.31526, 1.17476 C4.77056, 0.915782 5.05005, 0.359078 5.08508, -0.343494 " /><path d="M4.07474, 0.239822 C4.10786, -0.355826 3.96654, -1.05009 3.68715, -1.70089  C3.46783, -2.21494 3.16483, -2.70014 2.8221, -3.09343  C2.25976, -3.74414 1.59349, -4.12841 1.06356, -4.12378 " /><path d="M4.12923, 1.27896 L4.20296, 1.2396 " /><path d="M4.20296, 1.2396 C4.65826, 0.980622 4.93774, 0.423913 4.97277, -0.278655 " /><path d="M5.08508, -0.343494 C5.12713, -1.07657 4.89956, -1.95934 4.48475, -2.72609  C4.22701, -3.20643 3.90036, -3.63994 3.54968, -3.97303  C3.31519, -4.19551 3.07798, -4.36955 2.83806, -4.49515  C2.36578, -4.74351 1.91481, -4.77388 1.58927, -4.58374 " /><path d="M5.21328, 0.656283 C5.66859, 0.397307 5.94808, -0.159398 5.9831, -0.861969 " /><path d="M4.97277, -0.278655 C5.00586, -0.873733 4.86484, -1.56724 4.58597, -2.2175  C4.36696, -2.73137 4.06429, -3.21652 3.72185, -3.60993  C3.42549, -3.95132 3.10015, -4.22363 2.78102, -4.40052  C2.28896, -4.67554 1.81513, -4.71668 1.47697, -4.5189 " /><path d="M1.47697, -4.5189 Q1.27654, -4.40284 1.1441, -4.18818 " /><path d="M4.66673, 0.876244 Q4.90211, 0.835775 5.10098, 0.72112 " /><path d="M5.10098, 0.72112 C5.55629, 0.462145 5.83576, -0.0945645 5.8708, -0.797132 " /><path d="M5.9831, -0.861969 C6.02516, -1.59504 5.79759, -2.47781 5.38278, -3.24456  C5.12504, -3.7249 4.79839, -4.15841 4.44772, -4.4915  C4.21323, -4.71396 3.97603, -4.888 3.73612, -5.0136  C3.26383, -5.26198 2.81284, -5.29236 2.4873, -5.10222 " /><path d="M6.11131, 0.137808 C6.56661, -0.121168 6.8461, -0.677874 6.88113, -1.38044 " /><path d="M5.8708, -0.797132 C5.90385, -1.39162 5.76316, -2.08433 5.48483, -2.73403  C5.26616, -3.24766 4.96389, -3.73268 4.6218, -4.12619  C4.32668, -4.46658 4.00273, -4.7385 3.68473, -4.91584  C3.19066, -5.19366 2.71445, -5.23595 2.375, -5.03738 " /><path d="M2.375, -5.03738 Q2.17457, -4.92131 2.04212, -4.70666 " /><path d="M5.56476, 0.357768 Q5.80014, 0.317299 5.99901, 0.202643 " /><path d="M5.99901, 0.202643 C6.45431, -0.0563315 6.73379, -0.613041 6.76883, -1.31561 " /><path d="M6.88113, -1.38044 C6.92318, -2.11351 6.69561, -2.99628 6.28081, -3.76303  C6.02307, -4.24337 5.69642, -4.67688 5.34575, -5.00997  C5.11127, -5.23243 4.87408, -5.40646 4.63418, -5.53206  C4.16187, -5.78045 3.71088, -5.81084 3.38532, -5.62069 " /><path d="M7.00933, -0.380667 C7.46464, -0.639643 7.74413, -1.19635 7.77915, -1.89892 " /><path d="M6.76883, -1.31561 C6.80184, -1.90945 6.6615, -2.60131 6.38376, -3.25041  C6.16546, -3.76375 5.86363, -4.24862 5.52194, -4.64222  C5.22602, -4.98402 4.901, -5.25699 4.58199, -5.43474  C4.08819, -5.71218 3.6123, -5.75432 3.27302, -5.55586 " /><path d="M3.27302, -5.55586 Q3.07259, -5.43979 2.94015, -5.22513 " /><path d="M6.46278, -0.160709 Q6.69816, -0.201177 6.89704, -0.315833 " /><path d="M6.89704, -0.315833 C7.35234, -0.574809 7.63182, -1.13152 7.66686, -1.83409 " /><path d="M7.77915, -1.89892 C7.82121, -2.63198 7.59364, -3.51475 7.17884, -4.28149  C6.9211, -4.76183 6.59445, -5.19534 6.24379, -5.52843  C6.00933, -5.75088 5.77215, -5.9249 5.53227, -6.05051  C5.05994, -6.29893 4.60891, -6.32932 4.28335, -6.13917 " /><path d="M7.90736, -0.899142 C8.36266, -1.15812 8.64215, -1.71482 8.67718, -2.41739 " /><path d="M7.66686, -1.83409 C7.69981, -2.42712 7.55992, -3.11791 7.28291, -3.76624  C7.06518, -4.27899 6.76409, -4.76348 6.42308, -5.15711  C6.12508, -5.50203 5.7974, -5.77714 5.47598, -5.95547  C4.98361, -6.23092 4.50941, -6.27223 4.17105, -6.07433 " /><path d="M4.17105, -6.07433 Q3.97062, -5.95827 3.83818, -5.74361 " /><path d="M7.36081, -0.679185 Q7.59619, -0.719654 7.79507, -0.83431 " /><path d="M7.79507, -0.83431 C8.25037, -1.09329 8.52985, -1.64999 8.56488, -2.35256 " /><path d="M8.67718, -2.41739 C8.71923, -3.15046 8.49167, -4.03322 8.07687, -4.79996  C7.81913, -5.2803 7.49249, -5.71381 7.14182, -6.0469  C6.90737, -6.26934 6.67021, -6.44336 6.43033, -6.56896  C5.95799, -6.8174 5.50695, -6.8478 5.18137, -6.65764 " /><path d="M8.80538, -1.41762 C9.26069, -1.67659 9.54018, -2.2333 9.5752, -2.93587 " /><path d="M8.56488, -2.35256 C8.5978, -2.9449 8.45828, -3.63474 8.18192, -4.2824  C7.96227, -4.80037 7.6575, -5.28958 7.31242, -5.6856  C7.01541, -6.0274 6.68937, -6.29979 6.36969, -6.47634  C5.87886, -6.74967 5.40645, -6.79011 5.06908, -6.59281 " /><path d="M5.06908, -6.59281 Q4.86865, -6.47674 4.7362, -6.26208 " /><path d="M8.25883, -1.19766 Q8.49422, -1.23813 8.6931, -1.35279 " /><path d="M8.6931, -1.35279 C9.1484, -1.61176 9.42788, -2.16847 9.46291, -2.87104 " /><path d="M9.5752, -2.93587 C9.61726, -3.66893 9.3897, -4.55168 8.9749, -5.31842  C8.71717, -5.79875 8.39053, -6.23227 8.03986, -6.56536  C7.80544, -6.78777 7.5683, -6.96179 7.32844, -7.08739  C6.85607, -7.33587 6.40499, -7.36629 6.0794, -7.17612 " /><path d="M9.70341, -1.93609 C10.1587, -2.19507 10.4382, -2.75177 10.4732, -3.45434 " /><path d="M9.46291, -2.87104 C9.49576, -3.46236 9.3568, -4.15087 9.08136, -4.79757  C8.86282, -5.31385 8.55969, -5.80174 8.21624, -6.19741  C7.92086, -6.53863 7.59647, -6.81128 7.27801, -6.98909  C6.78352, -7.26749 6.30683, -7.31001 5.96711, -7.11129 " /><path d="M5.96711, -7.11129 Q5.76668, -6.99522 5.63423, -6.78056 " /><path d="M9.15686, -1.71614 Q9.39224, -1.75661 9.59112, -1.87126 " /><path d="M9.59112, -1.87126 C10.0464, -2.13024 10.3259, -2.68695 10.3609, -3.38952 " /><path d="M10.4732, -3.45434 C10.5153, -4.1874 10.2877, -5.07015 9.87293, -5.83689  C9.6152, -6.31722 9.28856, -6.75073 8.9379, -7.08382  C8.70348, -7.30623 8.46636, -7.48024 8.22651, -7.60584  C7.75412, -7.85434 7.30303, -7.88477 6.97743, -7.69459 " /><path d="M10.6014, -2.45457 C11.0567, -2.71354 11.3362, -3.27025 11.3713, -3.97282 " /><path d="M10.3609, -3.38952 C10.3938, -3.98029 10.2551, -4.66805 9.98016, -5.31422  C9.76245, -5.82906 9.4606, -6.31577 9.11847, -6.71102  C8.81884, -7.05815 8.48912, -7.33469 8.1659, -7.51321  C7.67501, -7.78661 7.20254, -7.82709 6.86514, -7.62976 " /><path d="M6.86514, -7.62976 Q6.6647, -7.51369 6.53226, -7.29903 " /><path d="M10.0549, -2.23461 Q10.2903, -2.27508 10.4892, -2.38974 " /><path d="M10.4892, -2.38974 C10.9445, -2.64872 11.2239, -3.20543 11.259, -3.90799 " /><path d="M11.3713, -3.97282 C11.4133, -4.70587 11.1858, -5.58861 10.771, -6.35535  C10.5132, -6.83568 10.1866, -7.2692 9.83593, -7.60229  C9.60153, -7.82468 9.36442, -7.99868 9.12459, -8.12429  C8.65218, -8.37282 8.20107, -8.40325 7.87545, -8.21307 " /><path d="M11.4995, -2.97304 C11.9548, -3.23202 12.2343, -3.78873 12.2693, -4.49129 " /><path d="M11.259, -3.90799 C11.2917, -4.49758 11.1537, -5.18377 10.8798, -5.82882  C10.6619, -6.34534 10.3592, -6.83374 10.016, -7.23009  C9.71659, -7.57683 9.38717, -7.85309 9.06423, -8.03152  C8.57323, -8.30507 8.10064, -8.34561 7.76316, -8.14824 " /><path d="M7.76316, -8.14824 Q7.56273, -8.03217 7.43029, -7.81751 " /><path d="M10.9529, -2.75309 Q11.1883, -2.79356 11.3872, -2.90822 " /><path d="M11.3872, -2.90822 C11.8425, -3.16719 12.122, -3.7239 12.157, -4.42647 " /><path d="M12.2693, -4.49129 C12.3113, -5.22435 12.0838, -6.10708 11.669, -6.87382  C11.4113, -7.35415 11.0846, -7.78766 10.734, -8.12076  C10.4996, -8.34314 10.2625, -8.51714 10.0227, -8.64275  C9.55023, -8.89129 9.09911, -8.92174 8.77347, -8.73154 " /><path d="M12.3975, -3.49152 C12.8528, -3.75049 13.1323, -4.3072 13.1673, -5.00977 " /><path d="M12.157, -4.42647 C12.1896, -5.01372 12.0528, -5.69679 11.7811, -6.33961  C11.5625, -6.86004 11.2577, -7.3523 10.9119, -7.75105  C10.6154, -8.09392 10.2896, -8.36768 9.96984, -8.54578  C9.47615, -8.82307 9.0004, -8.86513 8.66119, -8.66672 " /><path d="M8.66119, -8.66672 Q8.46076, -8.55065 8.32831, -8.33598 " /><path d="M11.8509, -3.27157 Q12.0863, -3.31204 12.2852, -3.42669 " /><path d="M12.2852, -3.42669 C12.7405, -3.68567 13.02, -4.24238 13.055, -4.94495 " /><path d="M13.1673, -5.00977 C13.2094, -5.74282 12.9818, -6.62556 12.567, -7.39229  C12.3093, -7.87263 11.9827, -8.30614 11.632, -8.63923  C11.3976, -8.86162 11.1605, -9.03561 10.9207, -9.16122  C10.4483, -9.40976 9.99713, -9.44021 9.6715, -9.25002 " /><path d="M13.2955, -4.00999 C13.7508, -4.26897 14.0303, -4.82568 14.0653, -5.52824 " /><path d="M13.055, -4.94495 C13.0879, -5.5363 12.9489, -6.22484 12.6734, -6.87157  C12.4559, -7.38531 12.1547, -7.87095 11.8133, -8.26555  C11.517, -8.60897 11.1913, -8.88342 10.8715, -9.06224  C10.3765, -9.34131 9.89925, -9.38411 9.55922, -9.18519 " /><path d="M9.55922, -9.18519 Q9.35879, -9.06912 9.22634, -8.85446 " /><path d="M12.749, -3.79004 Q12.9844, -3.83051 13.1832, -3.94517 " /><path d="M13.1832, -3.94517 C13.6385, -4.20415 13.918, -4.76085 13.9531, -5.46342 " /><path d="M14.0653, -5.52824 C14.1074, -6.26129 13.8798, -7.14402 13.465, -7.91075  C13.2073, -8.39108 12.8807, -8.8246 12.53, -9.15769  C12.2957, -9.38006 12.0586, -9.55404 11.8188, -9.67965  C11.3463, -9.92823 10.8952, -9.9587 10.5695, -9.76849 " /><path d="M14.1935, -4.52847 C14.6488, -4.78744 14.9283, -5.34415 14.9634, -6.04672 " /><path d="M13.9531, -5.46342 C13.9861, -6.05818 13.8453, -6.75127 13.5667, -7.40123  C13.3479, -7.91498 13.0454, -8.40006 12.7031, -8.79352  C12.4074, -9.13445 12.0827, -9.40659 11.7641, -9.58372  C11.2711, -9.86013 10.7961, -9.90184 10.4572, -9.70367 " /><path d="M10.4572, -9.70367 Q10.2568, -9.5876 10.1244, -9.37293 " /><path d="M13.647, -4.30852 Q13.8824, -4.34899 14.0813, -4.46365 " /><path d="M14.0813, -4.46365 C14.5366, -4.72262 14.816, -5.27933 14.8511, -5.9819 " /><path d="M14.9634, -6.04672 C15.0054, -6.77976 14.7779, -7.66249 14.3631, -8.42922  C14.1054, -8.90955 13.7787, -9.34306 13.4281, -9.67615  C13.1937, -9.89851 12.9567, -10.0725 12.7169, -10.1981  C12.2444, -10.4467 11.7932, -10.4772 11.4676, -10.287 " /><path d="M15.0916, -5.04694 C15.5469, -5.30592 15.8264, -5.86262 15.8614, -6.56519 " /><path d="M14.8511, -5.9819 C14.8841, -6.57549 14.7439, -7.26702 14.4664, -7.91587  C14.2482, -8.4291 13.9466, -8.91391 13.605, -9.30755  C13.3074, -9.6515 12.9803, -9.92581 12.6595, -10.1037  C12.1674, -10.3788 11.6935, -10.42 11.3553, -10.2221 " /><path d="M11.3553, -10.2221 Q11.1548, -10.1061 11.0224, -9.89141 " /><path d="M14.545, -4.827 Q14.7804, -4.86746 14.9793, -4.98212 " /><path d="M14.9793, -4.98212 C15.4346, -5.2411 15.7141, -5.79781 15.7491, -6.50038 " /><path d="M15.8614, -6.56519 C15.9034, -7.29823 15.6759, -8.18096 15.2611, -8.94768  C15.0034, -9.42801 14.6768, -9.86152 14.3261, -10.1946  C14.0874, -10.4211 13.8459, -10.5974 13.6018, -10.7234  C13.1341, -10.9658 12.6882, -10.9939 12.3656, -10.8054 " /><path d="M15.9896, -5.56542 C16.4449, -5.82439 16.7244, -6.3811 16.7594, -7.08367 " /><path d="M15.7491, -6.50038 C15.7819, -7.09062 15.6435, -7.77769 15.3691, -8.42336  C15.1496, -8.94282 14.8445, -9.4337 14.4987, -9.83104  C14.2027, -10.1722 13.8776, -10.4444 13.5588, -10.6214  C13.0662, -10.8972 12.5918, -10.9386 12.2533, -10.7406 " /><path d="M12.2533, -10.7406 Q12.0529, -10.6246 11.9204, -10.4099 " /><path d="M15.443, -5.34547 Q15.6784, -5.38594 15.8773, -5.5006 " /><path d="M15.8773, -5.5006 C16.3326, -5.75958 16.6121, -6.31629 16.6471, -7.01885 " /><path d="M16.7594, -7.08367 C16.8015, -7.81671 16.5739, -8.69942 16.1591, -9.46615  C15.9014, -9.94648 15.5748, -10.38 15.2241, -10.7131  C14.9898, -10.9354 14.7528, -11.1094 14.513, -11.235  C14.0405, -11.4837 13.5893, -11.5141 13.2636, -11.3239 " /><path d="M16.8876, -6.08389 C17.3429, -6.34287 17.6224, -6.89957 17.6574, -7.60215 " /><path d="M16.6471, -7.01885 C16.6798, -7.60779 16.5422, -8.29311 16.2689, -8.93753  C16.0502, -9.45642 15.746, -9.94702 15.401, -10.3446  C15.1032, -10.6888 14.7758, -10.9633 14.4547, -11.1411  C13.9629, -11.4158 13.4893, -11.4568 13.1513, -11.2591 " /><path d="M13.1513, -11.2591 Q12.9509, -11.143 12.8184, -10.9284 " /><path d="M16.3411, -5.86395 Q16.5765, -5.90442 16.7753, -6.01908 " /><path d="M16.7753, -6.01908 C17.2307, -6.27805 17.5101, -6.83476 17.5452, -7.53733 " /><path d="M17.6574, -7.60215 C17.6995, -8.33519 17.4719, -9.21791 17.0572, -9.98464  C16.7994, -10.465 16.4728, -10.8985 16.1222, -11.2316  C15.8878, -11.4539 15.6507, -11.6279 15.411, -11.7535  C14.9385, -12.0021 14.4873, -12.0326 14.1616, -11.8424 " /><path d="M17.7856, -6.60237 C18.2409, -6.86134 18.5204, -7.41805 18.5555, -8.12062 " /><path d="M17.5452, -7.53733 C17.5782, -8.13186 17.4375, -8.82463 17.1591, -9.47438  C16.9404, -9.98803 16.6381, -10.4731 16.296, -10.8666  C16.0008, -11.2071 15.6767, -11.4791 15.3585, -11.6564  C14.8647, -11.9339 14.3887, -11.9761 14.0494, -11.7776 " /><path d="M14.0494, -11.7776 Q13.8489, -11.6615 13.7165, -11.4468 " /><path d="M17.2391, -6.38243 Q17.4745, -6.42289 17.6734, -6.53755 " /><path d="M17.6734, -6.53755 C18.1287, -6.79653 18.4082, -7.35324 18.4432, -8.05581 " /><path d="M18.5555, -8.12062 C18.5975, -8.85365 18.37, -9.73636 17.9552, -10.5031  C17.6975, -10.9834 17.3709, -11.4169 17.0202, -11.75  C16.7859, -11.9723 16.5489, -12.1463 16.3092, -12.2719  C15.8366, -12.5206 15.3854, -12.5511 15.0597, -12.3609 " /><path d="M18.6837, -7.12084 C19.139, -7.37982 19.4185, -7.93652 19.4535, -8.6391 " /><path d="M18.4432, -8.05581 C18.4759, -8.64496 18.3381, -9.33057 18.0647, -9.9752  C17.8454, -10.4954 17.5401, -10.987 17.1941, -11.385  C16.8988, -11.7255 16.5747, -11.9975 16.2566, -12.1748  C15.7627, -12.4524 15.2867, -12.4945 14.9474, -12.2961 " /><path d="M14.9474, -12.2961 Q14.7469, -12.18 14.6145, -11.9653 " /><path d="M18.1371, -6.9009 Q18.3725, -6.94137 18.5714, -7.05603 " /><path d="M18.5714, -7.05603 C19.0267, -7.31501 19.3062, -7.87171 19.3412, -8.57428 " /><path d="M20.1436 -8.50406 A3.175 1.83309 60 0 1 19.548 -7.61988" />
<path d="M19.4535, -8.6391 C19.4955, -9.37212 19.268, -10.2548 18.8532, -11.0215  C18.5955, -11.5019 18.2689, -11.9354 17.9182, -12.2685  C17.684, -12.4908 17.447, -12.6647 17.2073, -12.7903  C16.7347, -13.0391 16.2834, -13.0696 15.9577, -12.8793 " /><path d="M19.3412, -8.57428 C19.3741, -9.16617 19.2348, -9.85542 18.9589, -10.5027  C18.7397, -11.02 18.4355, -11.5088 18.091, -11.9047  C17.7951, -12.2458 17.4702, -12.518 17.1514, -12.6951  C16.6587, -12.971 16.184, -13.0126 15.8454, -12.8145 " /><path d="M15.8454, -12.8145 Q15.645, -12.6985 15.5125, -12.4838 " /><path d="M19.0352, -7.41938 Q19.2706, -7.45985 19.4694, -7.57451 " /><path d="M19.4694, -7.57451 C19.7871, -7.75694 20.0219, -8.08177 20.1436, -8.50406 " /><path d="M20.1473, -9.10699 Q20.1767, -8.78765 20.1436, -8.50406 " /><path d="M17.5768, -12.5568 L17.6853, -12.5345 " /><path d="M20.1473, -9.10699 C20.0792, -9.8877 19.7007, -10.8006 19.1449, -11.487  C18.7063, -12.036 18.1643, -12.4297 17.6853, -12.5345 " /></g>

</svg>
