<svg xmlns="http://www.w3.org/2000/svg" viewBox="-3.842512 -8.160512 31.408624 16.321024">
<rect width="100%" height="100%" fill="white"/>
<g   fill="none"
   stroke="rgb(0, 0, 0)"
   stroke-linecap="butt"
   stroke-linejoin="miter"
   stroke-width="0.35"
   transform="scale(1, -1)"
  >
<path d="M-1.6764 -5.1983 A6.26444 6.26444 0 0 1 5.79536e-14 -5.9944" /><path id= "2" d=" M 0 -3.175 L 0.841384 -3.175 " />
<path d="M0.896657, 2.46688 Q0.889124, 2.45146 0.860744, 2.42822  Q0.818881, 2.39713 0.762061, 2.39601 " /><path d="M1.29665, 3.15582 L0.896657, 2.46688 " /><path id= "5" d=" M 1.95256 -3.175 L 2.11138 -3.175 " />
<path d="M0.631564, 2.46339 L0.228582, 3.15588 " /><path d="M1.26657, -2.46338 L0.863578, -3.15588 " /><path d="M1.52755, -2.46339 Q1.52134, -2.44993 1.49259, -2.42658  Q1.45208, -2.3971 1.39703, -2.396  Q1.33786, -2.39748 1.29645, -2.43041  Q1.27202, -2.45176 1.26657, -2.46338 " /><path d="M2.16255, 2.46339 Q2.15633, 2.44993 2.12759, 2.42658  Q2.08708, 2.39711 2.03205, 2.396 " /><path d="M0.762052, 2.39601 Q0.702881, 2.39748 0.661468, 2.43041  Q0.637023, 2.45176 0.631564, 2.46339 " /><path d="M1.93036, -3.15586 L1.52755, -2.46339 " /><path d="M2.56535, 3.15586 L2.16255, 2.46339 " /><path id= "13" d=" M 3.22256 -3.175 L 3.38138 -3.175 " />
<path d="M1.90156, 2.46338 L1.49858, 3.15588 " /><path d="M2.53656, -2.46337 L2.13358, -3.15588 " /><path d="M2.79754, -2.46338 Q2.79133, -2.44993 2.76259, -2.42657  Q2.72207, -2.3971 2.66703, -2.396  Q2.60786, -2.39748 2.56645, -2.43041  Q2.54202, -2.45176 2.53656, -2.46337 " /><path d="M3.43254, 2.46339 Q3.42633, 2.44993 3.39758, 2.42658  Q3.35708, 2.39711 3.30205, 2.396 " /><path d="M2.03205, 2.396 Q1.97288, 2.39748 1.93147, 2.4304  Q1.90702, 2.45176 1.90156, 2.46338 " /><path d="M3.20036, -3.15586 L2.79754, -2.46338 " /><path d="M3.83535, 3.15586 L3.43254, 2.46339 " /><path id= "21" d=" M 4.49257 -3.175 L 4.65138 -3.175 " />
<path d="M3.17156, 2.46338 L2.76858, 3.15588 " /><path d="M3.80656, -2.46337 L3.40358, -3.15588 " /><path d="M4.06754, -2.46338 Q4.06133, -2.44992 4.03258, -2.42657  Q3.99207, -2.39709 3.93702, -2.39599  Q3.87785, -2.39748 3.83645, -2.4304  Q3.81201, -2.45175 3.80656, -2.46337 " /><path d="M4.70254, 2.46338 Q4.69633, 2.44992 4.66758, 2.42657  Q4.62708, 2.3971 4.57204, 2.396 " /><path d="M3.30205, 2.396 Q3.24288, 2.39748 3.20146, 2.4304  Q3.17702, 2.45175 3.17156, 2.46338 " /><path d="M4.47036, -3.15587 L4.06754, -2.46338 " /><path d="M5.10536, 3.15586 L4.70254, 2.46338 " /><path id= "29" d=" M 5.76257 -3.175 L 5.92138 -3.175 " />
<path d="M4.44156, 2.46338 L4.03858, 3.15588 " /><path d="M5.07656, -2.46337 L4.67358, -3.15588 " /><path d="M5.33754, -2.46337 Q5.33133, -2.44992 5.30258, -2.42656  Q5.26207, -2.39709 5.20702, -2.39599  Q5.14785, -2.39748 5.10644, -2.4304  Q5.08201, -2.45175 5.07656, -2.46337 " /><path d="M5.97254, 2.46338 Q5.96632, 2.44992 5.93758, 2.42657  Q5.89707, 2.3971 5.84204, 2.39599 " /><path d="M4.57204, 2.396 Q4.51287, 2.39747 4.47146, 2.4304  Q4.44701, 2.45175 4.44156, 2.46338 " /><path d="M5.74037, -3.15587 L5.33754, -2.46337 " /><path d="M6.37536, 3.15586 L5.97254, 2.46338 " /><path id= "37" d=" M 7.03257 -3.175 L 7.19138 -3.175 " />
<path d="M5.71155, 2.46337 L5.30858, 3.15588 " /><path d="M6.34655, -2.46336 L5.94358, -3.15588 " /><path d="M6.60753, -2.46337 Q6.60132, -2.44991 6.57258, -2.42656  Q6.53206, -2.39708 6.47702, -2.39599  Q6.41785, -2.39747 6.37644, -2.4304  Q6.35201, -2.45175 6.34655, -2.46336 " /><path d="M7.24253, 2.46338 Q7.23632, 2.44992 7.20757, 2.42656  Q7.16707, 2.39709 7.11204, 2.39599 " /><path d="M5.84204, 2.39599 Q5.78287, 2.39747 5.74146, 2.43039  Q5.71701, 2.45175 5.71155, 2.46337 " /><path d="M7.01037, -3.15587 L6.60753, -2.46337 " /><path d="M7.64536, 3.15586 L7.24253, 2.46338 " /><path id= "45" d=" M 8.30258 -3.175 L 8.46138 -3.175 " />
<path d="M6.98155, 2.46337 L6.57858, 3.15588 " /><path d="M7.61655, -2.46336 L7.21358, -3.15588 " /><path d="M7.87753, -2.46337 Q7.87132, -2.44991 7.84257, -2.42656  Q7.80206, -2.39708 7.74701, -2.39598  Q7.68784, -2.39747 7.64644, -2.4304  Q7.62201, -2.45174 7.61655, -2.46336 " /><path d="M8.51253, 2.46337 Q8.50632, 2.44991 8.47757, 2.42656  Q8.43707, 2.39709 8.38203, 2.39599 " /><path d="M7.11204, 2.39599 Q7.05287, 2.39747 7.01145, 2.43039  Q6.98701, 2.45174 6.98155, 2.46337 " /><path d="M8.28038, -3.15587 L7.87753, -2.46337 " /><path d="M8.91537, 3.15586 L8.51253, 2.46337 " /><path id= "53" d=" M 9.57258 -3.175 L 9.73138 -3.175 " />
<path d="M8.25155, 2.46337 L7.84858, 3.15588 " /><path d="M8.88655, -2.46336 L8.48358, -3.15588 " /><path d="M9.14753, -2.46336 Q9.14132, -2.4499 9.11257, -2.42655  Q9.07206, -2.39708 9.01701, -2.39598  Q8.95784, -2.39747 8.91643, -2.43039  Q8.892, -2.45174 8.88655, -2.46336 " /><path d="M9.78253, 2.46337 Q9.77631, 2.44991 9.74757, 2.42656  Q9.70706, 2.39709 9.65203, 2.39598 " /><path d="M8.38203, 2.39599 Q8.32286, 2.39746 8.28145, 2.43039  Q8.257, 2.45174 8.25155, 2.46337 " /><path d="M9.55038, -3.15587 L9.14753, -2.46336 " /><path d="M10.1854, 3.15586 L9.78253, 2.46337 " /><path id= "61" d=" M 10.8426 -3.175 L 11.0014 -3.175 " />
<path d="M9.52154, 2.46336 L9.11858, 3.15587 " /><path d="M10.1565, -2.46335 L9.75358, -3.15588 " /><path d="M10.4175, -2.46336 Q10.4113, -2.4499 10.3826, -2.42655  Q10.3421, -2.39707 10.287, -2.39598  Q10.2278, -2.39746 10.1864, -2.43039  Q10.162, -2.45174 10.1565, -2.46335 " /><path d="M11.0525, 2.46336 Q11.0463, 2.4499 11.0176, 2.42655  Q10.9771, 2.39708 10.922, 2.39598 " /><path d="M9.65203, 2.39598 Q9.59286, 2.39746 9.55145, 2.43038  Q9.527, 2.45174 9.52154, 2.46336 " /><path d="M10.8204, -3.15587 L10.4175, -2.46336 " /><path d="M11.4554, 3.15586 L11.0525, 2.46336 " /><path id= "69" d=" M 12.1126 -3.175 L 12.2714 -3.175 " />
<path d="M10.7915, 2.46336 L10.3886, 3.15587 " /><path d="M11.4265, -2.46335 L11.0236, -3.15588 " /><path d="M11.6875, -2.46336 Q11.6813, -2.4499 11.6526, -2.42654  Q11.612, -2.39707 11.557, -2.39597  Q11.4978, -2.39746 11.4564, -2.43039  Q11.432, -2.45173 11.4265, -2.46335 " /><path d="M12.3225, 2.46336 Q12.3163, 2.4499 12.2876, 2.42655  Q12.2471, 2.39708 12.192, 2.39598 " /><path d="M10.922, 2.39598 Q10.8629, 2.39746 10.8214, 2.43038  Q10.797, 2.45174 10.7915, 2.46336 " /><path d="M12.0904, -3.15587 L11.6875, -2.46336 " /><path d="M12.7254, 3.15586 L12.3225, 2.46336 " /><path id= "77" d=" M 13.3826 -3.175 L 13.5414 -3.175 " />
<path d="M12.0615, 2.46336 L11.6586, 3.15587 " /><path d="M12.6965, -2.46335 L12.2936, -3.15588 " /><path d="M12.9575, -2.46335 Q12.9513, -2.44989 12.9226, -2.42654  Q12.882, -2.39707 12.827, -2.39597  Q12.7678, -2.39746 12.7264, -2.43038  Q12.702, -2.45173 12.6965, -2.46335 " /><path d="M13.5925, 2.46336 Q13.5863, 2.4499 13.5576, 2.42654  Q13.5171, 2.39708 13.462, 2.39597 " /><path d="M12.192, 2.39598 Q12.1329, 2.39745 12.0914, 2.43038  Q12.067, 2.45173 12.0615, 2.46336 " /><path d="M13.3604, -3.15587 L12.9575, -2.46335 " /><path d="M13.9954, 3.15586 L13.5925, 2.46336 " /><path id= "85" d=" M 14.6526 -3.175 L 14.8114 -3.175 " />
<path d="M13.3315, 2.46335 L12.9286, 3.15587 " /><path d="M13.9665, -2.46334 L13.5636, -3.15588 " /><path d="M14.2275, -2.46335 Q14.2213, -2.44989 14.1926, -2.42654  Q14.152, -2.39706 14.097, -2.39597  Q14.0378, -2.39745 13.9964, -2.43038  Q13.972, -2.45173 13.9665, -2.46334 " /><path d="M14.8625, 2.46335 Q14.8563, 2.44989 14.8276, 2.42654  Q14.787, 2.39707 14.732, 2.39597 " /><path d="M13.462, 2.39597 Q13.4029, 2.39745 13.3614, 2.43037  Q13.337, 2.45173 13.3315, 2.46335 " /><path d="M14.6304, -3.15587 L14.2275, -2.46335 " /><path d="M15.2654, 3.15586 L14.8625, 2.46335 " /><path id= "93" d=" M 15.9226 -3.175 L 16.0814 -3.175 " />
<path d="M14.6015, 2.46335 L14.1986, 3.15587 " /><path d="M15.2365, -2.46334 L14.8336, -3.15588 " /><path d="M15.4975, -2.46334 Q15.4913, -2.44988 15.4626, -2.42653  Q15.422, -2.39706 15.367, -2.39596  Q15.3078, -2.39745 15.2664, -2.43038  Q15.242, -2.45173 15.2365, -2.46334 " /><path d="M16.1325, 2.46335 Q16.1263, 2.44989 16.0976, 2.42654  Q16.057, 2.39707 16.002, 2.39597 " /><path d="M14.732, 2.39597 Q14.6728, 2.39745 14.6314, 2.43037  Q14.607, 2.45173 14.6015, 2.46335 " /><path d="M15.9004, -3.15587 L15.4975, -2.46334 " /><path d="M16.5354, 3.15586 L16.1325, 2.46335 " /><path id= "101" d=" M 17.1926 -3.175 L 17.3514 -3.175 " />
<path d="M15.8715, 2.46335 L15.4686, 3.15587 " /><path d="M16.5065, -2.46334 L16.1036, -3.15587 " /><path d="M16.7675, -2.46334 Q16.7613, -2.44988 16.7326, -2.42653  Q16.692, -2.39705 16.637, -2.39596  Q16.5778, -2.39745 16.5364, -2.43037  Q16.512, -2.45172 16.5065, -2.46334 " /><path d="M17.4025, 2.46335 Q17.3963, 2.44988 17.3675, 2.42653  Q17.327, 2.39707 17.272, 2.39596 " /><path d="M16.002, 2.39597 Q15.9428, 2.39744 15.9014, 2.43037  Q15.877, 2.45172 15.8715, 2.46335 " /><path d="M17.1704, -3.15587 L16.7675, -2.46334 " /><path d="M17.8054, 3.15586 L17.4025, 2.46335 " /><path id= "109" d=" M 18.4626 -3.175 L 18.6214 -3.175 " />
<path d="M17.1415, 2.46334 L16.7386, 3.15587 " /><path d="M17.7765, -2.46333 L17.3736, -3.15587 " /><path d="M18.0375, -2.46334 Q18.0313, -2.44988 18.0025, -2.42653  Q17.962, -2.39705 17.907, -2.39596  Q17.8478, -2.39744 17.8064, -2.43037  Q17.782, -2.45172 17.7765, -2.46333 " /><path d="M18.6725, 2.46334 Q18.6663, 2.44988 18.6375, 2.42653  Q18.597, 2.39706 18.542, 2.39596 " /><path d="M17.272, 2.39596 Q17.2128, 2.39744 17.1714, 2.43036  Q17.147, 2.45172 17.1415, 2.46334 " /><path d="M18.4404, -3.15587 L18.0375, -2.46334 " /><path d="M19.0754, 3.15586 L18.6725, 2.46334 " /><path id= "117" d=" M 19.7326 -3.175 L 19.8914 -3.175 " />
<path d="M18.4115, 2.46334 L18.0086, 3.15587 " /><path d="M19.0465, -2.46333 L18.6436, -3.15587 " /><path d="M19.3075, -2.46333 Q19.3013, -2.44987 19.2725, -2.42652  Q19.232, -2.39705 19.177, -2.39595  Q19.1178, -2.39744 19.0764, -2.43037  Q19.052, -2.45172 19.0465, -2.46333 " /><path d="M19.9425, 2.46334 Q19.9363, 2.44987 19.9075, 2.42652  Q19.867, 2.39706 19.812, 2.39596 " /><path d="M18.542, 2.39596 Q18.4828, 2.39744 18.4414, 2.43036  Q18.417, 2.45172 18.4115, 2.46334 " /><path d="M19.7104, -3.15587 L19.3075, -2.46333 " /><path d="M20.3454, 3.15586 L19.9425, 2.46334 " /><path id= "125" d=" M 21.0026 -3.175 L 21.1614 -3.175 " />
<path d="M19.6815, 2.46334 L19.2786, 3.15587 " /><path d="M20.3165, -2.46333 L19.9136, -3.15587 " /><path d="M20.5775, -2.46333 Q20.5713, -2.44987 20.5425, -2.42652  Q20.502, -2.39704 20.447, -2.39595  Q20.3878, -2.39744 20.3464, -2.43036  Q20.322, -2.45171 20.3165, -2.46333 " /><path d="M21.2125, 2.46333 Q21.2063, 2.44987 21.1775, 2.42652  Q21.137, 2.39706 21.082, 2.39595 " /><path d="M19.812, 2.39596 Q19.7528, 2.39743 19.7114, 2.43036  Q19.687, 2.45171 19.6815, 2.46334 " /><path d="M20.9804, -3.15587 L20.5775, -2.46333 " /><path d="M21.6154, 3.15586 L21.2125, 2.46333 " /><path id= "133" d=" M 22.2726 -3.175 L 22.4314 -3.175 " />
<path d="M20.9515, 2.46333 L20.5486, 3.15587 " /><path d="M21.5865, -2.46332 L21.1836, -3.15587 " /><path d="M21.8475, -2.46333 Q21.8413, -2.44986 21.8125, -2.42651  Q21.772, -2.39704 21.717, -2.39595  Q21.6578, -2.39743 21.6164, -2.43036  Q21.592, -2.45171 21.5865, -2.46332 " /><path d="M22.4825, 2.46333 Q22.4763, 2.44987 22.4475, 2.42652  Q22.407, 2.39705 22.352, 2.39595 " /><path d="M21.082, 2.39595 Q21.0228, 2.39743 20.9814, 2.43035  Q20.957, 2.45171 20.9515, 2.46333 " /><path d="M22.2504, -3.15587 L21.8475, -2.46333 " /><path d="M22.8854, 3.15586 L22.4825, 2.46333 " /><path id= "141" d=" M 23.5426 -3.175 L 23.7014 -3.175 " />
<path d="M22.2215, 2.46333 L21.8186, 3.15587 " /><path d="M22.8565, -2.46332 L22.4536, -3.15587 " /><path d="M23.1175, -2.46332 Q23.1113, -2.44986 23.0825, -2.42651  Q23.042, -2.39704 22.987, -2.39594  Q22.9278, -2.39743 22.8864, -2.43036  Q22.862, -2.45171 22.8565, -2.46332 " /><path d="M23.7525, 2.46333 Q23.7463, 2.44986 23.7175, 2.42651  Q23.677, 2.39705 23.622, 2.39594 " /><path d="M22.352, 2.39595 Q22.2928, 2.39743 22.2514, 2.43035  Q22.227, 2.45171 22.2215, 2.46333 " /><path d="M23.5204, -3.15587 L23.1175, -2.46332 " /><path d="M24.1554, 3.15586 L23.7525, 2.46333 " /><path id= "149" d=" M 24.8126 -3.175 L 24.9714 -3.175 " />
<path d="M23.4915, 2.46333 L23.0886, 3.15587 " /><path d="M24.1265, -2.46332 L23.7236, -3.15587 " /><path d="M24.3875, -2.46332 Q24.3813, -2.44986 24.3525, -2.42651  Q24.312, -2.39703 24.257, -2.39594  Q24.1978, -2.39743 24.1564, -2.43036  Q24.132, -2.45171 24.1265, -2.46332 " /><path d="M25.0225, 2.46332 Q25.0163, 2.44986 24.9875, 2.42651  Q24.947, 2.39704 24.892, 2.39594 " /><path d="M23.622, 2.39594 Q23.5628, 2.39742 23.5214, 2.43035  Q23.497, 2.4517 23.4915, 2.46333 " /><path d="M24.7904, -3.15587 L24.3875, -2.46332 " /><path d="M25.0225, 2.46332 L25.4, 3.11211 " /><path d="M24.7615, 2.46332 L24.3586, 3.15587 " /><path d="M25.3965, -2.46331 L24.9936, -3.15587 " /><path d="M24.892, 2.39594 Q24.8328, 2.39742 24.7914, 2.43034  Q24.767, 2.4517 24.7615, 2.46332 " /><path d="M25.3965, -2.46331 L25.4, -2.45789 " /></g>
<g   fill="none"
   stroke="rgb(0, 0, 0)"
   stroke-linecap="butt"
   stroke-linejoin="miter"
   stroke-width="0.35"
   transform="scale(1, -1)"
  >
<path d="M-1.6764 -5.11029 A6.1916 6.1916 0 0 0 -1.6764 5.11029" /><path d="M-1.6764, -5.11029 Q-1.6764, -5.19801 -1.6764, -5.1983 " /><path d="M-1.6764 5.1983 A6.26444 6.26444 0 0 0 5.79536e-14 5.9944" /><path d="M-8.39e-17, -5.9944 L-8.39e-17, -5.84411  L-8.39e-17, -5.40077  L-8.39e-17, -4.68661  L-8.39e-17, -3.73745  L-8.39e-17, -2.60087  L-8.39e-17, -1.33388  L-8.39e-17, -1.11022e-15  L-8.39e-17, 1.33388  L-8.39e-17, 2.60087  L-8.39e-17, 3.73745  L-8.39e-17, 4.68661  L-8.39e-17, 5.40077  L-8.39e-17, 5.84411  L-8.39e-17, 5.9944 " /><path d="M-1.6764, 5.1983 Q-1.6764, 5.19801 -1.6764, 5.11029 " /><path d="M1.29665, 3.15582 Q1.30776, 3.17499 1.31756, 3.175 " /><path id= "7" d=" M 1.31756 3.175 L 1.47639 3.175 " />
<path d="M0.206386, 3.175 Q0.217484, 3.17499 0.228582, 3.15588 " /><path d="M0.228582, 3.15588 C0.276618, 3.07542 0.324646, 2.71487 0.372681, 2.15969  C0.430362, 1.49746 0.488043, 0.559671 0.545719, -0.342294  C0.589981, -1.03417 0.634245, -1.69798 0.678508, -2.19874  C0.732801, -2.8175 0.787091, -3.17872 0.841384, -3.175 " /><path d="M0.841384, -3.175 Q0.85248, -3.17499 0.863578, -3.15588 " /><path id= "11" d=" M 0 3.175 L 0.206386 3.175 " />
<path d="M0.920813, 2.48768 C0.889191, 2.43173 0.826327, 2.39543 0.762061, 2.39601 " /><path d="M0.762061, 2.39601 L0.762052, 2.39601 " /><path d="M1.31756, 3.175 L0.920813, 2.48768 " /><path id= "15" d=" M 2.58756 3.175 L 2.74638 3.175 " />
<path d="M1.47639, 3.175 Q1.48748, 3.17499 1.49858, 3.15588 " /><path d="M1.49858, 3.15588 C1.54662, 3.07542 1.59465, 2.71487 1.64268, 2.1597  C1.70036, 1.49748 1.75804, 0.559724 1.81571, -0.342224  C1.8599, -1.03284 1.90408, -1.69551 1.94826, -2.19594  C2.00264, -2.81638 2.05701, -3.17874 2.11138, -3.175 " /><path d="M2.11138, -3.175 Q2.12248, -3.17499 2.13358, -3.15588 " /><path d="M1.31756, 3.175 C1.36263, 3.17681 1.40771, 2.93146 1.45278, 2.49059  C1.51879, 1.85155 1.5848, 0.78941 1.6508, -0.247097  C1.69436, -0.929758 1.73791, -1.59227 1.78147, -2.10395  C1.8311, -2.69015 1.88073, -3.07294 1.93036, -3.15586 " /><path d="M1.93036, -3.15586 Q1.94146, -3.17499 1.95256, -3.175 " /><path d="M2.56535, 3.15586 Q2.57645, 3.17499 2.58756, 3.175 " /><path id= "22" d=" M 3.85756 3.175 L 4.01638 3.175 " />
<path d="M2.74638, 3.175 Q2.75748, 3.17499 2.76858, 3.15588 " /><path d="M2.76858, 3.15588 C2.81662, 3.07542 2.86464, 2.71487 2.91268, 2.15971  C2.97036, 1.4975 3.02804, 0.559771 3.08571, -0.34216  C3.13055, -1.04315 3.1754, -1.71522 3.22024, -2.2183  C3.27396, -2.82534 3.32767, -3.17857 3.38138, -3.175 " /><path d="M3.38138, -3.175 Q3.39248, -3.17499 3.40358, -3.15588 " /><path d="M2.58756, 3.175 C2.63259, 3.1768 2.67763, 2.9319 2.72267, 2.49175  C2.78908, 1.84933 2.85549, 0.778202 2.9219, -0.264227  C2.96493, -0.938366 3.00796, -1.59172 3.051, -2.09832  C3.10078, -2.68765 3.15058, -3.07269 3.20036, -3.15586 " /><path d="M3.20036, -3.15586 Q3.21146, -3.17499 3.22256, -3.175 " /><path d="M3.83535, 3.15586 Q3.84646, 3.17499 3.85756, 3.175 " /><path id= "29" d=" M 5.12757 3.175 L 5.28638 3.175 " />
<path d="M4.01638, 3.175 Q4.02748, 3.17499 4.03858, 3.15588 " /><path d="M4.03858, 3.15588 C4.08662, 3.07542 4.13464, 2.71487 4.18268, 2.15971  C4.24035, 1.49753 4.29803, 0.559829 4.3557, -0.342081  C4.40091, -1.04874 4.44611, -1.72594 4.49132, -2.23039  C4.54467, -2.83018 4.59803, -3.17848 4.65138, -3.175 " /><path d="M4.65138, -3.175 Q4.66248, -3.17499 4.67358, -3.15588 " /><path d="M3.85756, 3.175 C3.90255, 3.1768 3.94755, 2.93238 3.99254, 2.493  C4.05888, 1.85185 4.12521, 0.782789 4.19154, -0.258585  C4.23429, -0.928287 4.27703, -1.57793 4.31977, -2.08383  C4.36997, -2.6812 4.42017, -3.07207 4.47036, -3.15587 " /><path d="M4.47036, -3.15587 Q4.48146, -3.17499 4.49257, -3.175 " /><path d="M5.10536, 3.15586 Q5.11646, 3.17499 5.12757, 3.175 " /><path id= "36" d=" M 6.39757 3.175 L 6.55638 3.175 " />
<path d="M5.28638, 3.175 Q5.29748, 3.17499 5.30858, 3.15588 " /><path d="M5.30858, 3.15588 C5.35662, 3.07542 5.40464, 2.71488 5.45268, 2.15972  C5.51035, 1.49755 5.56803, 0.559874 5.6257, -0.342021  C5.67077, -1.04662 5.71585, -1.72195 5.76092, -2.22592  C5.81441, -2.82839 5.86789, -3.17851 5.92138, -3.175 " /><path d="M5.92138, -3.175 Q5.93248, -3.17499 5.94358, -3.15588 " /><path d="M5.12757, 3.175 C5.17251, 3.17679 5.21746, 2.93288 5.26241, 2.49431  C5.32861, 1.85502 5.3948, 0.789427 5.461, -0.250006  C5.50393, -0.922817 5.54686, -1.57596 5.58979, -2.08405  C5.63998, -2.6813 5.69018, -3.07208 5.74037, -3.15587 " /><path d="M5.74037, -3.15587 Q5.75147, -3.17499 5.76257, -3.175 " /><path d="M6.37536, 3.15586 Q6.38647, 3.17499 6.39757, 3.175 " /><path id= "43" d=" M 7.66757 3.175 L 7.82638 3.175 " />
<path d="M6.55638, 3.175 Q6.56748, 3.17499 6.57858, 3.15588 " /><path d="M6.57858, 3.15588 C6.62662, 3.07542 6.67464, 2.71488 6.72268, 2.15973  C6.78035, 1.49757 6.83803, 0.559908 6.8957, -0.341976  C6.94062, -1.04431 6.98555, -1.7176 7.03048, -2.22104  C7.08412, -2.82644 7.13775, -3.17855 7.19138, -3.175 " /><path d="M7.19138, -3.175 Q7.20248, -3.17499 7.21358, -3.15588 " /><path d="M6.39757, 3.175 C6.44247, 3.17678 6.48737, 2.93341 6.53227, 2.49573  C6.59854, 1.85633 6.66481, 0.789396 6.73108, -0.251168  C6.77398, -0.923509 6.81688, -1.57613 6.85979, -2.08391  C6.90998, -2.68124 6.96018, -3.07208 7.01037, -3.15587 " /><path d="M7.01037, -3.15587 Q7.02147, -3.17499 7.03257, -3.175 " /><path d="M7.64536, 3.15586 Q7.65647, 3.17499 7.66757, 3.175 " /><path id= "50" d=" M 8.93758 3.175 L 9.09638 3.175 " />
<path d="M7.82638, 3.175 Q7.83748, 3.17499 7.84858, 3.15588 " /><path d="M7.84858, 3.15588 C7.89661, 3.07542 7.94464, 2.71488 7.99267, 2.15973  C8.05035, 1.4976 8.10802, 0.559976 8.16569, -0.341884  C8.21048, -1.04207 8.25527, -1.71343 8.30007, -2.21636  C8.35384, -2.82457 8.40761, -3.17859 8.46138, -3.175 " /><path d="M8.46138, -3.175 Q8.47248, -3.17499 8.48358, -3.15588 " /><path d="M7.66757, 3.175 C7.71241, 3.17677 7.75725, 2.93409 7.80209, 2.4975  C7.86855, 1.85705 7.93501, 0.786157 8.00147, -0.25726  C8.04479, -0.935996 8.0881, -1.59412 8.13142, -2.10315  C8.18107, -2.6898 8.23073, -3.07291 8.28038, -3.15587 " /><path d="M8.28038, -3.15587 Q8.29148, -3.17499 8.30258, -3.175 " /><path d="M8.91537, 3.15586 Q8.92647, 3.17499 8.93758, 3.175 " /><path id= "57" d=" M 10.2076 3.175 L 10.3664 3.175 " />
<path d="M9.09638, 3.175 Q9.10748, 3.17499 9.11858, 3.15587 " /><path d="M9.11858, 3.15587 C9.16661, 3.07542 9.21464, 2.71488 9.26267, 2.15974  C9.32035, 1.49762 9.37802, 0.560019 9.43569, -0.341827  C9.48089, -1.04856 9.5261, -1.72584 9.57131, -2.23034  C9.62467, -2.83016 9.67802, -3.17848 9.73138, -3.175 " /><path d="M9.73138, -3.175 Q9.74248, -3.17499 9.75358, -3.15588 " /><path d="M8.93758, 3.175 C8.98236, 3.17676 9.02715, 2.93467 9.07193, 2.49905  C9.13858, 1.85743 9.20524, 0.78249 9.27189, -0.263784  C9.31491, -0.937689 9.35792, -1.59086 9.40094, -2.09745  C9.45075, -2.68726 9.50057, -3.07266 9.55038, -3.15587 " /><path d="M9.55038, -3.15587 Q9.56148, -3.17499 9.57258, -3.175 " /><path d="M10.1854, 3.15586 Q10.1965, 3.17499 10.2076, 3.175 " /><path id= "64" d=" M 11.4776 3.175 L 11.6364 3.175 " />
<path d="M10.3664, 3.175 Q10.3775, 3.17499 10.3886, 3.15587 " /><path d="M10.3886, 3.15587 C10.4366, 3.07542 10.4846, 2.71489 10.5327, 2.15975  C10.5903, 1.49766 10.648, 0.560117 10.7057, -0.341694  C10.7506, -1.04327 10.7954, -1.7159 10.8403, -2.21919  C10.894, -2.8257 10.9477, -3.17856 11.0014, -3.175 " /><path d="M11.0014, -3.175 Q11.0125, -3.17499 11.0236, -3.15588 " /><path d="M10.2076, 3.175 C10.2523, 3.17675 10.297, 2.93551 10.3417, 2.50127  C10.4081, 1.863 10.4745, 0.794444 10.5409, -0.24824  C10.5844, -0.929869 10.6279, -1.59134 10.6714, -2.10253  C10.721, -2.68953 10.7707, -3.07288 10.8204, -3.15587 " /><path d="M10.8204, -3.15587 Q10.8315, -3.17499 10.8426, -3.175 " /><path d="M11.4554, 3.15586 Q11.4665, 3.17499 11.4776, 3.175 " /><path id= "71" d=" M 12.7476 3.175 L 12.9064 3.175 " />
<path d="M11.6364, 3.175 Q11.6475, 3.17499 11.6586, 3.15587 " /><path d="M11.6586, 3.15587 C11.7066, 3.07542 11.7546, 2.71489 11.8027, 2.15976  C11.8603, 1.49768 11.918, 0.560169 11.9757, -0.341625  C12.0207, -1.04488 12.0656, -1.71904 12.1106, -2.22275  C12.1642, -2.82712 12.2178, -3.17854 12.2714, -3.175 " /><path d="M12.2714, -3.175 Q12.2825, -3.17499 12.2936, -3.15588 " /><path d="M11.4776, 3.175 C11.5222, 3.17675 11.5669, 2.93597 11.6116, 2.50249  C11.6784, 1.86125 11.7451, 0.784525 11.8119, -0.263561  C11.8549, -0.937342 11.8979, -1.59041 11.9409, -2.09699  C11.9907, -2.68706 12.0406, -3.07265 12.0904, -3.15587 " /><path d="M12.0904, -3.15587 Q12.1015, -3.17499 12.1126, -3.175 " /><path d="M12.7254, 3.15586 Q12.7365, 3.17499 12.7476, 3.175 " /><path id= "78" d=" M 14.0176 3.175 L 14.1764 3.175 " />
<path d="M12.9064, 3.175 Q12.9175, 3.17499 12.9286, 3.15587 " /><path d="M12.9286, 3.15587 C12.9766, 3.07542 13.0246, 2.71489 13.0727, 2.15977  C13.1303, 1.49771 13.188, 0.56023 13.2457, -0.341542  C13.2908, -1.04686 13.3359, -1.72288 13.381, -2.22709  C13.4345, -2.82886 13.4879, -3.1785 13.5414, -3.175 " /><path d="M13.5414, -3.175 Q13.5525, -3.17499 13.5636, -3.15588 " /><path d="M12.7476, 3.175 C12.7922, 3.17673 12.8367, 2.93695 12.8813, 2.50508  C12.9482, 1.8642 13.015, 0.786262 13.0819, -0.263102  C13.1248, -0.936613 13.1678, -1.58947 13.2108, -2.09602  C13.2607, -2.68663 13.3105, -3.07261 13.3604, -3.15587 " /><path d="M13.3604, -3.15587 Q13.3715, -3.17499 13.3826, -3.175 " /><path d="M13.9954, 3.15586 Q14.0065, 3.17499 14.0176, 3.175 " /><path id= "85" d=" M 15.2876 3.175 L 15.4464 3.175 " />
<path d="M14.1764, 3.175 Q14.1875, 3.17499 14.1986, 3.15587 " /><path d="M14.1986, 3.15587 C14.2466, 3.07541 14.2946, 2.71489 14.3427, 2.15978  C14.4003, 1.49773 14.458, 0.560266 14.5157, -0.341494  C14.5631, -1.08317 14.6105, -1.79188 14.658, -2.30352  C14.7091, -2.85916 14.7602, -3.17795 14.8114, -3.175 " /><path d="M14.8114, -3.175 Q14.8225, -3.17499 14.8336, -3.15588 " /><path d="M14.0176, 3.175 C14.0636, 3.17697 14.1097, 2.92057 14.1557, 2.46198  C14.2209, 1.81969 14.286, 0.770876 14.3511, -0.251649  C14.3945, -0.930757 14.4378, -1.58964 14.4811, -2.09955  C14.5309, -2.68821 14.5806, -3.07276 14.6304, -3.15587 " /><path d="M14.6304, -3.15587 Q14.6415, -3.17499 14.6526, -3.175 " /><path d="M15.2654, 3.15586 Q15.2765, 3.17499 15.2876, 3.175 " /><path id= "92" d=" M 16.5576 3.175 L 16.7164 3.175 " />
<path d="M15.4464, 3.175 Q15.4575, 3.17499 15.4686, 3.15587 " /><path d="M15.4686, 3.15587 C15.5166, 3.07541 15.5646, 2.71489 15.6127, 2.15978  C15.6703, 1.49773 15.728, 0.560277 15.7857, -0.341479  C15.8308, -1.04738 15.876, -1.72394 15.9211, -2.2283  C15.9745, -2.82934 16.028, -3.17849 16.0814, -3.175 " /><path d="M16.0814, -3.175 Q16.0925, -3.17499 16.1036, -3.15587 " /><path d="M15.2876, 3.175 C15.3323, 3.17675 15.377, 2.93549 15.4217, 2.50121  C15.4881, 1.86334 15.5544, 0.795812 15.6208, -0.24621  C15.6644, -0.929283 15.7079, -1.59225 15.7515, -2.10417  C15.8011, -2.69026 15.8508, -3.07296 15.9004, -3.15587 " /><path d="M15.9004, -3.15587 Q15.9115, -3.17499 15.9226, -3.175 " /><path d="M16.5354, 3.15586 Q16.5465, 3.17499 16.5576, 3.175 " /><path id= "99" d=" M 17.8276 3.175 L 17.9864 3.175 " />
<path d="M16.7164, 3.175 Q16.7275, 3.17499 16.7386, 3.15587 " /><path d="M16.7386, 3.15587 C16.7866, 3.07541 16.8346, 2.7149 16.8827, 2.15979  C16.9403, 1.49777 16.998, 0.560366 17.0557, -0.341359  C17.0998, -1.03222 17.144, -1.69518 17.1882, -2.1958  C17.2426, -2.81632 17.297, -3.17874 17.3514, -3.175 " /><path d="M17.3514, -3.175 Q17.3625, -3.17499 17.3736, -3.15587 " /><path d="M16.5576, 3.175 C16.6026, 3.17679 16.6475, 2.93264 16.6925, 2.4937  C16.7588, 1.85348 16.825, 0.786123 16.8913, -0.254309  C16.9341, -0.924175 16.9768, -1.57427 17.0196, -2.0808  C17.0698, -2.67986 17.1201, -3.07196 17.1704, -3.15587 " /><path d="M17.1704, -3.15587 Q17.1815, -3.17499 17.1926, -3.175 " /><path d="M17.8054, 3.15586 Q17.8165, 3.17499 17.8276, 3.175 " /><path id= "106" d=" M 19.0976 3.175 L 19.2564 3.175 " />
<path d="M17.9864, 3.175 Q17.9975, 3.17499 18.0086, 3.15587 " /><path d="M18.0086, 3.15587 C18.0566, 3.07541 18.1046, 2.7149 18.1527, 2.1598  C18.2103, 1.4978 18.268, 0.560427 18.3256, -0.341278  C18.3705, -1.04295 18.4154, -1.71569 18.4603, -2.21907  C18.514, -2.82565 18.5677, -3.17856 18.6214, -3.175 " /><path d="M18.6214, -3.175 Q18.6325, -3.17499 18.6436, -3.15587 " /><path d="M17.8276, 3.175 C17.8725, 3.17678 17.9174, 2.93362 17.9622, 2.49628  C18.0287, 1.85549 18.0951, 0.784758 18.1616, -0.258318  C18.2044, -0.929126 18.2472, -1.57981 18.29, -2.08612  C18.3401, -2.68223 18.3903, -3.07219 18.4404, -3.15587 " /><path d="M18.4404, -3.15587 Q18.4515, -3.17499 18.4626, -3.175 " /><path d="M19.0754, 3.15586 Q19.0865, 3.17499 19.0976, 3.175 " /><path id= "113" d=" M 20.3676 3.175 L 20.5264 3.175 " />
<path d="M19.2564, 3.175 Q19.2675, 3.17499 19.2786, 3.15587 " /><path d="M19.2786, 3.15587 C19.3266, 3.07541 19.3746, 2.7149 19.4227, 2.15981  C19.4807, 1.493 19.5388, 0.546662 19.5969, -0.361008  C19.6407, -1.04496 19.6845, -1.70017 19.7283, -2.19609  C19.7826, -2.81644 19.837, -3.17874 19.8914, -3.175 " /><path d="M19.8914, -3.175 Q19.9025, -3.17499 19.9136, -3.15587 " /><path d="M19.0976, 3.175 C19.1422, 3.17674 19.1869, 2.93641 19.2315, 2.50364  C19.2981, 1.86395 19.3648, 0.790087 19.4314, -0.256426  C19.4747, -0.933481 19.5179, -1.59011 19.5611, -2.09871  C19.6109, -2.68783 19.6606, -3.07273 19.7104, -3.15587 " /><path d="M19.7104, -3.15587 Q19.7215, -3.17499 19.7326, -3.175 " /><path d="M20.3454, 3.15586 Q20.3565, 3.17499 20.3676, 3.175 " /><path id= "120" d=" M 21.6376 3.175 L 21.7964 3.175 " />
<path d="M20.5264, 3.175 Q20.5375, 3.17499 20.5486, 3.15587 " /><path d="M20.5486, 3.15587 C20.5966, 3.07541 20.6446, 2.71491 20.6927, 2.15981  C20.7503, 1.49786 20.808, 0.560552 20.8656, -0.34111  C20.9098, -1.03151 20.954, -1.69407 20.9981, -2.19461  C21.0525, -2.81584 21.107, -3.17875 21.1614, -3.175 " /><path d="M21.1614, -3.175 Q21.1725, -3.17499 21.1836, -3.15587 " /><path d="M20.3676, 3.175 C20.4121, 3.17673 20.4567, 2.9375 20.5012, 2.50651  C20.568, 1.86647 20.6348, 0.789443 20.7017, -0.259637  C20.7443, -0.92805 20.787, -1.57642 20.8296, -2.08175  C20.8799, -2.68029 20.9302, -3.072 20.9804, -3.15587 " /><path d="M20.9804, -3.15587 Q20.9915, -3.17499 21.0026, -3.175 " /><path d="M21.6154, 3.15586 Q21.6265, 3.17499 21.6376, 3.175 " /><path id= "127" d=" M 22.9076 3.175 L 23.0664 3.175 " />
<path d="M21.7964, 3.175 Q21.8075, 3.17499 21.8186, 3.15587 " /><path d="M21.8186, 3.15587 C21.8666, 3.07541 21.9146, 2.7149 21.9627, 2.1598  C22.0203, 1.49782 22.078, 0.560457 22.1356, -0.341237  C22.1798, -1.03216 22.224, -1.69518 22.2682, -2.19584  C22.3226, -2.81634 22.377, -3.17874 22.4314, -3.175 " /><path d="M22.4314, -3.175 Q22.4425, -3.17499 22.4536, -3.15587 " /><path d="M21.6376, 3.175 C21.6826, 3.17679 21.7275, 2.93284 21.7725, 2.49421  C21.8387, 1.85474 21.9049, 0.788781 21.9711, -0.250864  C22.0146, -0.932099 22.058, -1.59301 22.1015, -2.10371  C22.1511, -2.69006 22.2008, -3.07294 22.2504, -3.15587 " /><path d="M22.2504, -3.15587 Q22.2615, -3.17499 22.2726, -3.175 " /><path d="M22.8854, 3.15586 Q22.8965, 3.17499 22.9076, 3.175 " /><path id= "134" d=" M 24.1776 3.175 L 24.3364 3.175 " />
<path d="M23.0664, 3.175 Q23.0775, 3.17499 23.0886, 3.15587 " /><path d="M23.0886, 3.15587 C23.1366, 3.07541 23.1846, 2.71491 23.2327, 2.15983  C23.2903, 1.49791 23.348, 0.560667 23.4056, -0.340955  C23.4499, -1.03324 23.4942, -1.69752 23.5385, -2.19858  C23.5928, -2.81744 23.6471, -3.17872 23.7014, -3.175 " /><path d="M23.7014, -3.175 Q23.7125, -3.17499 23.7236, -3.15587 " /><path d="M22.9076, 3.175 C22.9522, 3.17673 22.9967, 2.93731 23.0412, 2.50603  C23.1079, 1.86772 23.1745, 0.795294 23.2411, -0.250787  C23.2845, -0.93107 23.3279, -1.5911 23.3713, -2.10152  C23.421, -2.68908 23.4707, -3.07285 23.5204, -3.15587 " /><path d="M23.5204, -3.15587 Q23.5315, -3.17499 23.5426, -3.175 " /><path d="M24.1554, 3.15586 Q24.1665, 3.17499 24.1776, 3.175 " /><path d="M24.3364, 3.175 Q24.3475, 3.17499 24.3586, 3.15587 " /><path d="M24.3586, 3.15587 C24.4066, 3.07541 24.4546, 2.71491 24.5027, 2.15984  C24.5603, 1.49794 24.618, 0.560724 24.6756, -0.340877  C24.7209, -1.04834 24.7661, -1.72636 24.8114, -2.23118  C24.8647, -2.83049 24.918, -3.17847 24.9714, -3.175 " /><path d="M24.9714, -3.175 Q24.9825, -3.17499 24.9936, -3.15587 " /><path d="M24.1776, 3.175 C24.2224, 3.17676 24.2671, 2.93504 24.3119, 2.50003  C24.3784, 1.86016 24.4449, 0.788683 24.5114, -0.255601  C24.5545, -0.930487 24.5975, -1.58516 24.6406, -2.09317  C24.6906, -2.68537 24.7405, -3.07249 24.7904, -3.15587 " /><path d="M24.7904, -3.15587 Q24.8015, -3.17499 24.8126, -3.175 " /><path d="M25.4, 3.09252 Q25.4, 3.11212 25.4, 3.11211 " /><path d="M25.4, -2.45789 C25.4, -2.46043 25.4, -2.44037 25.4, -2.3977  C25.4, -2.3221 25.4, -2.16908 25.4, -1.93862  C25.4, -1.71078 25.4, -1.41022 25.4, -1.07925  C25.4, -0.852888 25.4, -0.608286 25.4, -0.38914 " /><path d="M25.4, 3.09252 C25.4, 3.03606 25.4, 2.87142 25.4, 2.59861  C25.4, 2.35954 25.4, 2.04184 25.4, 1.67494  C25.4, 1.05465 25.4, 0.2882 25.4, -0.38914 " /></g>

</svg>
