<svg xmlns="http://www.w3.org/2000/svg" viewBox="-6.953504 -6.953504 13.907008 13.907008">
<rect width="100%" height="100%" fill="white"/>
<g   fill="none"
   stroke="rgb(0, 0, 0)"
   stroke-linecap="butt"
   stroke-linejoin="miter"
   stroke-width="0.35"
   transform="scale(1, -1)"
  >
<path d="M-5.11029, -0.9525 L-4.57793, -0.9525  L-3.95766, -0.9525  L-3.26138, -0.9525  L-2.50247, -0.9525  L-1.6955, -0.9525  L-0.855968, -0.9525  L-2.77556e-15, -0.9525  L0.855968, -0.9525  L1.6955, -0.9525  L2.50247, -0.9525  L3.26138, -0.9525  L3.95766, -0.9525  L4.57793, -0.9525  L5.11029, -0.9525 " /><path d="M-5.11029 -0.9525 A5.1983 5.1983 0 0 0 -5.11029 0.9525" /><path d="M-5.11029, 0.9525 L-4.57793, 0.9525  L-3.95766, 0.9525  L-3.26138, 0.9525  L-2.50247, 0.9525  L-1.6955, 0.9525  L-0.855968, 0.9525  L-2.77556e-15, 0.9525  L0.855968, 0.9525  L1.6955, 0.9525  L2.50247, 0.9525  L3.26138, 0.9525  L3.95766, 0.9525  L4.57793, 0.9525  L5.11029, 0.9525 " /><path d="M5.11029 0.9525 A5.1983 5.1983 0 0 0 5.1983 1.27322e-15" /><circle cx ="0" cy ="0" r ="5.9944" /><path d="M5.1983 0 A5.1983 5.1983 0 0 0 5.11029 -0.9525" /></g>

</svg>
