<svg xmlns="http://www.w3.org/2000/svg" viewBox="-20.869304 -15.093804 66.33320800000001 44.603708">
<rect width="100%" height="100%" fill="white"/>
<g   fill="none"
   stroke="rgb(0, 0, 0)"
   stroke-linecap="butt"
   stroke-linejoin="miter"
   stroke-width="0.35"
   transform="scale(1, -1)"
  >
<path id= "1" d=" M 40.1873 -19.736 L 1.67205 2.87976 " />
<path id= "2" d=" M 37.1855 -24.9352 L -1.65792 -2.88792 " />
<path d="M40.8892, -21.2282 C40.8927, -20.5469 40.6336, -19.9942 40.1873, -19.736 " /><path d="M37.1855, -24.9352 C37.5337, -25.1344 37.9812, -25.1507 38.4396, -24.9808  C38.6876, -24.8893 38.9329, -24.7503 39.1755, -24.5638  C39.7689, -24.1105 40.3011, -23.3823 40.6017, -22.6162  C40.789, -22.1435 40.8896, -21.6607 40.8892, -21.2282 " /><path id= "5" d=" M -3.67975 -1.3396 L -1.78946 -2.80036 " />
<path id= "6" d=" M -0.679745 3.85655 L 1.53045 2.9499 " />
<path id= "7" d=" M -4.53172 -0.84771 L -4.4433 -0.898761 " />
<path id= "8" d=" M -3.82462 -1.25596 L -3.62132 -1.37333 " />
<path id= "9" d=" M -1.17817 4.14432 L -0.865965 3.96407 " />
<path id= "10" d=" M -0.714322 3.87652 L -0.62132 3.82282 " />
<path id= "11" d=" M -5.23883 -0.439461 L -5.15041 -0.490511 " />
<path id= "12" d=" M -1.88528 4.55257 L -1.79685 4.50152 " />
<path id= "13" d=" M -5.94594 -0.0312133 L -5.85752 -0.0822621 " />
<path id= "14" d=" M -2.59239 4.96082 L -2.50396 4.90976 " />
<path id= "15" d=" M -6.65304 0.377035 L -6.56463 0.325987 " />
<path id= "16" d=" M -3.29949 5.36906 L -3.21107 5.31801 " />
<path id= "17" d=" M -7.36015 0.785283 L -7.27173 0.734236 " />
<path id= "18" d=" M -4.0066 5.77731 L -3.91818 5.72626 " />
<path id= "19" d=" M -8.06726 1.19353 L -7.97884 1.14249 " />
<path id= "20" d=" M -4.71371 6.18556 L -4.62529 6.13451 " />
<path id= "21" d=" M -8.77436 1.60178 L -8.68595 1.55073 " />
<path id= "22" d=" M -5.42081 6.59381 L -5.33239 6.54276 " />
<path id= "23" d=" M -9.48147 2.01003 L -9.39306 1.95898 " />
<path id= "24" d=" M -6.12792 7.00206 L -6.0395 6.95101 " />
<path id= "25" d=" M -10.1886 2.41828 L -10.1002 2.36723 " />
<path id= "26" d=" M -6.83503 7.41031 L -6.74661 7.35926 " />
<path id= "27" d=" M -10.8957 2.82652 L -10.8073 2.77548 " />
<path id= "28" d=" M -7.54213 7.81855 L -7.45372 7.76751 " />
<path id= "29" d=" M -11.6028 3.23477 L -11.5144 3.18373 " />
<path id= "30" d=" M -8.24924 8.2268 L -8.16083 8.17576 " />
<path id= "31" d=" M -12.3099 3.64302 L -12.2215 3.59198 " />
<path id= "32" d=" M -8.95634 8.63505 L -8.86794 8.58401 " />
<path id= "33" d=" M -13.017 4.05127 L -12.9286 4.00023 " />
<path id= "34" d=" M -9.66345 9.0433 L -9.57505 8.99226 " />
<path id= "35" d=" M -13.7241 4.45952 L -13.6357 4.40848 " />
<path id= "36" d=" M -10.3706 9.45155 L -10.2822 9.40051 " />
<path id= "37" d=" M -14.4312 4.86776 L -14.3428 4.81673 " />
<path id= "38" d=" M -11.0777 9.85979 L -10.9893 9.80876 " />
<path id= "39" d=" M -15.1383 5.27601 L -15.0499 5.22498 " />
<path id= "40" d=" M -11.7848 10.268 L -11.6964 10.217 " />
<path id= "41" d=" M -16.2946 7.18487 L -15.3698 6.65096 " />
<path id= "42" d=" M -14.3696 10.5191 L -13.4448 9.98516 " />
</g>
<g   fill="none"
   stroke="rgb(0, 0, 0)"
   stroke-linecap="butt"
   stroke-linejoin="miter"
   stroke-width="0.35"
   transform="scale(1, -1)"
  >
<path d="M2.35467 1.35947 A3.33 1.92258 60 0 1 1.67205 2.87976" />
<path d="M1.67205 2.87976 A3.33 1.92258 60 0 1 1.53045 2.9499" />
<path d="M-1.78946 -2.80036 A3.33 1.92258 60 0 1 -1.65792 -2.88792" />
<path d="M-1.65792 -2.88792 A3.33 1.92258 60 0 1 2.35467 1.35947" />
<path d="M0 2.44949 A3 1.73205 60 0 1 -0.62132 3.82282" />
<path d="M-3.62132 -1.37333 A3 1.73205 60 0 1 0 2.44949" />
<path d="M-0.468462, 2.71996 C-0.495665, 3.38039 -0.753866, 3.90304 -1.17817, 4.14432 " /><path d="M-1.17817, 4.14432 Q-1.33421, 4.23433 -1.51535, 4.27471 " /><path d="M-4.09615, -1.01187 Q-3.98136, -1.16532 -3.82462, -1.25596 " /><path d="M-3.82462, -1.25596 C-3.41226, -1.50012 -2.78977, -1.36811 -2.19322, -0.900484  C-1.74531, -0.554044 -1.31748, -0.0278581 -1.00599, 0.569367  C-0.637748, 1.26876 -0.436588, 2.05931 -0.468462, 2.71996 " /><path d="M-0.784067, 3.91306 L-0.714322, 3.87652 " /><path d="M-0.714322, 3.87652 C-0.643985, 3.83507 -0.58596, 3.79111 -0.540246, 3.74462  C-0.511778, 3.71617 -0.489647, 3.68804 -0.485171, 3.67672  C-0.481685, 3.66708 -0.493025, 3.67397 -0.519191, 3.6974 " /><path d="M-0.519191, 3.6974 C-0.560075, 3.73411 -0.621904, 3.79208 -0.687307, 3.84284  C-0.743063, 3.8868 -0.802615, 3.92721 -0.865965, 3.96407 " /><path d="M-4.4433, -0.898761 C-4.03961, -1.13743 -3.43488, -1.01688 -2.84981, -0.572292  C-2.41506, -0.246121 -1.99601, 0.250533 -1.68144, 0.821073  C-1.27806, 1.54556 -1.05329, 2.38314 -1.08715, 3.07715 " /><path d="M-4.80326, -0.603622 Q-4.68846, -0.75707 -4.53172, -0.84771 " /><path d="M-4.53172, -0.84771 C-4.11936, -1.09187 -3.49687, -0.959856 -2.90031, -0.49223  C-2.45257, -0.145908 -2.02488, 0.38003 -1.71341, 0.977  C-1.34498, 1.67654 -1.14368, 2.46736 -1.17557, 3.1282 " /><path d="M-1.17557, 3.1282 C-1.20277, 3.78863 -1.46097, 4.31129 -1.88528, 4.55257 " /><path d="M-1.88528, 4.55257 Q-2.04132, 4.64258 -2.22246, 4.68296 " /><path d="M-1.08715, 3.07715 C-1.11436, 3.73764 -1.37255, 4.26022 -1.79685, 4.50152 " /><path d="M-5.15041, -0.490511 C-4.74686, -0.729088 -4.14245, -0.608731 -3.55758, -0.164537  C-3.12342, 0.161015 -2.70487, 0.656593 -2.39035, 1.22607  C-1.98587, 1.95131 -1.76033, 2.79035 -1.79425, 3.4854 " /><path d="M-5.51036, -0.195373 Q-5.39557, -0.348822 -5.23883, -0.439461 " /><path d="M-5.23883, -0.439461 C-4.82646, -0.683623 -4.20397, -0.551607 -3.60741, -0.0839747  C-3.15985, 0.262209 -2.73233, 0.787856 -2.4209, 1.38453  C-2.05222, 2.08424 -1.85078, 2.87538 -1.88267, 3.53645 " /><path d="M-1.88267, 3.53645 C-1.90988, 4.19688 -2.16808, 4.71954 -2.59239, 4.96082 " /><path d="M-2.59239, 4.96082 Q-2.74843, 5.05083 -2.92956, 5.0912 " /><path d="M-1.79425, 3.4854 C-1.82147, 4.14589 -2.07966, 4.66847 -2.50396, 4.90976 " /><path d="M-5.85752, -0.0822621 C-5.45412, -0.320743 -4.85001, -0.200583 -4.26535, 0.243212  C-3.83194, 0.568035 -3.41401, 1.06231 -3.09958, 1.63049  C-2.6938, 2.3566 -2.46737, 3.19738 -2.50136, 3.89365 " /><path d="M-6.21747, 0.212876 Q-6.10268, 0.0594265 -5.94594, -0.0312132 " /><path d="M-5.94594, -0.0312132 C-5.53357, -0.275376 -4.91108, -0.143358 -4.31451, 0.324278  C-3.86707, 0.670373 -3.43965, 1.19584 -3.12824, 1.79232  C-2.75941, 2.49215 -2.55787, 3.28355 -2.58978, 3.9447 " /><path d="M-2.58978, 3.9447 C-2.61698, 4.60513 -2.87519, 5.12778 -3.29949, 5.36906 " /><path d="M-3.29949, 5.36906 Q-3.45553, 5.45908 -3.63667, 5.49945 " /><path d="M-2.50136, 3.89365 C-2.52858, 4.55414 -2.78676, 5.07671 -3.21107, 5.31801 " /><path d="M-6.56463, 0.325987 C-6.16138, 0.0876022 -5.55759, 0.207566 -4.97313, 0.650959  C-4.54068, 0.974892 -4.12358, 1.46753 -3.8093, 2.03404  C-3.40191, 2.76122 -3.17439, 3.60413 -3.20847, 4.3019 " /><path d="M-6.92458, 0.621125 Q-6.80978, 0.467675 -6.65304, 0.377035 " /><path d="M-6.65304, 0.377035 C-6.24067, 0.132871 -5.61818, 0.264892 -5.02161, 0.732532  C-4.57432, 1.07851 -4.14705, 1.60372 -3.83567, 2.19995  C-3.46665, 2.89993 -3.26497, 3.69154 -3.29689, 4.35295 " /><path d="M-3.29689, 4.35295 C-3.32409, 5.01338 -3.58229, 5.53603 -4.0066, 5.77731 " /><path d="M-4.0066, 5.77731 Q-4.16264, 5.86733 -4.34378, 5.9077 " /><path d="M-3.20847, 4.3019 C-3.23569, 4.96239 -3.49387, 5.48496 -3.91818, 5.72626 " /><path d="M-7.27173, 0.734236 C-6.86865, 0.495948 -6.26516, 0.615714 -5.68091, 1.0587  C-5.24981, 1.38146 -4.83389, 1.87187 -4.51986, 2.43609  C-4.11036, 3.16468 -3.88137, 4.01039 -3.91558, 4.71015 " /><path d="M-7.63169, 1.02937 Q-7.51689, 0.875923 -7.36015, 0.785283 " /><path d="M-7.36015, 0.785283 C-6.94778, 0.541119 -6.32528, 0.673141 -5.72871, 1.14078  C-5.2815, 1.4867 -4.8543, 2.0118 -4.54294, 2.6079  C-4.17382, 3.30796 -3.97207, 4.0997 -4.00399, 4.7612 " /><path d="M-4.00399, 4.7612 C-4.0312, 5.42163 -4.2894, 5.94428 -4.71371, 6.18556 " /><path d="M-4.71371, 6.18556 Q-4.86975, 6.27557 -5.05089, 6.31595 " /><path d="M-3.91558, 4.71015 C-3.94279, 5.37063 -4.20098, 5.89321 -4.62529, 6.13451 " /><path d="M-7.97884, 1.14249 C-7.57591, 0.904292 -6.97272, 1.02386 -6.38867, 1.46646  C-5.95824, 1.78855 -5.54288, 2.27778 -5.22893, 2.84083  C-4.81823, 3.57021 -4.58841, 4.41752 -4.62269, 5.1184 " /><path d="M-8.33879, 1.43762 Q-8.224, 1.28417 -8.06726, 1.19353 " /><path d="M-8.06726, 1.19353 C-7.65488, 0.949365 -7.03238, 1.08139 -6.43581, 1.54904  C-5.98885, 1.89477 -5.56187, 2.41947 -5.25056, 3.01516  C-4.88111, 3.71545 -4.67915, 4.50769 -4.7111, 5.16945 " /><path d="M-4.7111, 5.16945 C-4.7383, 5.82987 -4.99651, 6.35253 -5.42081, 6.59381 " /><path d="M-5.42081, 6.59381 Q-5.57686, 6.68382 -5.75799, 6.7242 " /><path d="M-4.62269, 5.1184 C-4.6499, 5.77888 -4.90809, 6.30146 -5.33239, 6.54276 " /><path d="M-8.68595, 1.55073 C-8.28318, 1.31264 -7.68032, 1.43201 -7.09649, 1.87418  C-6.66026, 2.20036 -6.23953, 2.69837 -5.92398, 3.27076  C-5.52067, 3.99521 -5.29594, 4.8327 -5.3298, 5.52665 " /><path d="M-9.0459, 1.84587 Q-8.93111, 1.69242 -8.77436, 1.60178 " /><path d="M-8.77436, 1.60178 C-8.36199, 1.35761 -7.73948, 1.48964 -7.14291, 1.9573  C-6.69614, 2.30288 -6.26934, 2.82727 -5.95806, 3.42265  C-5.58837, 4.12313 -5.38625, 4.91571 -5.41821, 5.57769 " /><path d="M-5.41821, 5.57769 C-5.44541, 6.23812 -5.70361, 6.76078 -6.12792, 7.00206 " /><path d="M-6.12792, 7.00206 Q-6.28396, 7.09207 -6.4651, 7.13245 " /><path d="M-5.3298, 5.52665 C-5.35701, 6.18713 -5.6152, 6.70971 -6.0395, 6.95101 " /><path d="M-9.39306, 1.95898 C-8.99044, 1.72099 -8.38791, 1.84015 -7.80428, 2.28191  C-7.36983, 2.6066 -6.95067, 3.10171 -6.63546, 3.67112  C-6.22947, 4.39737 -6.0029, 5.23843 -6.03691, 5.9349 " /><path d="M-9.75301, 2.25412 Q-9.63821, 2.10067 -9.48147, 2.01003 " /><path d="M-9.48147, 2.01003 C-9.06909, 1.76586 -8.44658, 1.89789 -7.85, 2.36555  C-7.40352, 2.71093 -6.97697, 3.23487 -6.66575, 3.82979  C-6.2957, 4.53055 -6.09334, 5.32354 -6.12531, 5.98594 " /><path d="M-6.12531, 5.98594 C-6.15252, 6.64637 -6.41072, 7.16902 -6.83503, 7.41031 " /><path d="M-6.83503, 7.41031 Q-6.99107, 7.50032 -7.17221, 7.54069 " /><path d="M-6.03691, 5.9349 C-6.06412, 6.59538 -6.32231, 7.11796 -6.74661, 7.35926 " /><path d="M-10.1002, 2.36723 C-9.69772, 2.12935 -9.09552, 2.24829 -8.51212, 2.68961  C-8.08107, 3.01159 -7.66498, 3.50129 -7.35056, 4.06504  C-6.93967, 4.79455 -6.70973, 5.6421 -6.74401, 6.34315 " /><path d="M-10.4601, 2.66237 Q-10.3453, 2.50892 -10.1886, 2.41828 " /><path d="M-10.1886, 2.41828 C-9.7762, 2.1741 -9.15367, 2.30614 -8.55709, 2.77381  C-8.11092, 3.11895 -7.68465, 3.64241 -7.37349, 4.23683  C-7.00305, 4.93788 -6.80042, 5.73141 -6.83242, 6.39419 " /><path d="M-6.83242, 6.39419 C-6.85962, 7.05462 -7.11783, 7.57727 -7.54213, 7.81855 " /><path d="M-7.54213, 7.81855 Q-7.69818, 7.90857 -7.87932, 7.94894 " /><path d="M-6.74401, 6.34315 C-6.77123, 7.00363 -7.02942, 7.52621 -7.45372, 7.76751 " /><path d="M-10.8073, 2.77548 C-10.405, 2.5377 -9.80313, 2.65643 -9.21996, 3.09731  C-8.78546, 3.42164 -8.36616, 3.91648 -8.05072, 4.48575  C-7.64409, 5.21243 -7.41708, 6.05433 -7.45112, 6.7514 " /><path d="M-11.1672, 3.07062 Q-11.0524, 2.91717 -10.8957, 2.82652 " /><path d="M-10.8957, 2.82652 C-10.4833, 2.58235 -9.86078, 2.71439 -9.2642, 3.18206  C-8.818, 3.52722 -8.3917, 4.05073 -8.08053, 4.6452  C-7.71013, 5.34623 -7.50753, 6.1397 -7.53953, 6.80244 " /><path d="M-7.53953, 6.80244 C-7.56673, 7.46287 -7.82493, 7.98552 -8.24924, 8.2268 " /><path d="M-8.24924, 8.2268 Q-8.40528, 8.31682 -8.58642, 8.35719 " /><path d="M-7.45112, 6.7514 C-7.47834, 7.41188 -7.73652, 7.93446 -8.16083, 8.17576 " /><path d="M-11.5144, 3.18373 C-11.1123, 2.94604 -10.5107, 3.06458 -9.92773, 3.50507  C-9.49179, 3.83029 -9.0711, 4.3272 -8.7552, 4.89873  C-8.35018, 5.62433 -8.12428, 6.46409 -8.15823, 7.15965 " /><path d="M-11.8743, 3.47887 Q-11.7595, 3.32541 -11.6028, 3.23477 " /><path d="M-11.6028, 3.23477 C-11.1904, 2.9906 -10.5679, 3.12264 -9.97131, 3.5903  C-9.52499, 3.93556 -9.09858, 4.45926 -8.78739, 5.05392  C-8.41714, 5.75483 -8.21465, 6.54809 -8.24663, 7.21069 " /><path d="M-8.24663, 7.21069 C-8.27384, 7.87111 -8.53204, 8.39377 -8.95634, 8.63505 " /><path d="M-8.95634, 8.63505 Q-9.11239, 8.72507 -9.29353, 8.76544 " /><path d="M-8.15823, 7.15965 C-8.18544, 7.82013 -8.44363, 8.34271 -8.86794, 8.58401 " /><path d="M-12.2215, 3.59198 C-11.8195, 3.35439 -11.2183, 3.47273 -10.6355, 3.91282  C-10.2031, 4.23526 -9.78558, 4.72659 -9.47048, 5.2923  C-9.06045, 6.02123 -8.8311, 6.86765 -8.86534, 7.5679 " /><path d="M-12.5814, 3.88712 Q-12.4666, 3.73366 -12.3099, 3.64302 " /><path d="M-12.3099, 3.64302 C-11.8975, 3.39885 -11.275, 3.53089 -10.6784, 3.99856  C-10.2323, 4.34368 -9.80602, 4.86709 -9.49487, 5.46147  C-9.12439, 6.16255 -8.92174, 6.95612 -8.95374, 7.61893 " /><path d="M-8.95374, 7.61893 C-8.98094, 8.27936 -9.23914, 8.80202 -9.66345, 9.0433 " /><path d="M-9.66345, 9.0433 Q-9.8195, 9.13331 -10.0006, 9.17369 " /><path d="M-8.86534, 7.5679 C-8.89255, 8.22838 -9.15074, 8.75096 -9.57505, 8.99226 " /><path d="M-12.9286, 4.00023 C-12.5268, 3.76274 -11.9259, 3.88087 -11.3433, 4.32054  C-10.9101, 4.64336 -10.4919, 5.13571 -10.1765, 5.70257  C-9.76712, 6.43105 -9.53825, 7.27654 -9.57245, 7.97614 " /><path d="M-13.2885, 4.29537 Q-13.1737, 4.14191 -13.017, 4.05127 " /><path d="M-13.017, 4.05127 C-12.6046, 3.80709 -11.9821, 3.93914 -11.3855, 4.40683  C-10.9401, 4.75138 -10.5145, 5.27362 -10.2035, 5.86678  C-9.83208, 6.56858 -9.62879, 7.36344 -9.66085, 8.02718 " /><path d="M-9.66085, 8.02718 C-9.68805, 8.68761 -9.94625, 9.21027 -10.3706, 9.45155 " /><path d="M-10.3706, 9.45155 Q-10.5266, 9.54156 -10.7077, 9.58194 " /><path d="M-9.57245, 7.97614 C-9.59966, 8.63663 -9.85785, 9.15921 -10.2822, 9.40051 " /><path d="M-13.6357, 4.40848 C-13.2341, 4.17111 -12.6335, 4.289 -12.0512, 4.72817  C-11.619, 5.05006 -11.2016, 5.54074 -10.8863, 6.10591  C-10.4753, 6.8355 -10.2453, 7.68322 -10.2796, 8.38439 " /><path d="M-13.9957, 4.70362 Q-13.8809, 4.55016 -13.7241, 4.45952 " /><path d="M-13.7241, 4.45952 C-13.3117, 4.21534 -12.6892, 4.34739 -12.0926, 4.81509  C-11.6475, 5.15937 -11.2223, 5.68104 -10.9114, 6.27363  C-10.5395, 6.97576 -10.3359, 7.77131 -10.368, 8.43543 " /><path d="M-10.368, 8.43543 C-10.3952, 9.09586 -10.6534, 9.61851 -11.0777, 9.85979 " /><path d="M-11.0777, 9.85979 Q-11.2337, 9.94981 -11.4149, 9.99018 " /><path d="M-10.2796, 8.38439 C-10.3068, 9.04488 -10.565, 9.56746 -10.9893, 9.80876 " /><path d="M-14.3428, 4.81673 C-13.9414, 4.57948 -13.3413, 4.69712 -12.7592, 5.13577  C-12.3258, 5.45828 -11.9073, 5.95054 -11.5916, 6.51748  C-11.1817, 7.24632 -10.9524, 8.09253 -10.9867, 8.79264 " /><path d="M-14.7028, 5.11187 Q-14.588, 4.95841 -14.4312, 4.86776 " /><path d="M-14.4312, 4.86776 C-14.0188, 4.62359 -13.3963, 4.75563 -12.7997, 5.22331  C-12.354, 5.56812 -11.9281, 6.09088 -11.617, 6.68458  C-11.246, 7.38606 -11.043, 8.18035 -11.0751, 8.84368 " /><path d="M-11.0751, 8.84368 C-11.1023, 9.50411 -11.3605, 10.0268 -11.7848, 10.268 " /><path d="M-11.7848, 10.268 C-12.0043, 10.3951 -12.2661, 10.4485 -12.5502, 10.4248 " /><path d="M-10.9867, 8.79264 C-11.0139, 9.45313 -11.2721, 9.97571 -11.6964, 10.217 " /><path d="M-15.0499, 5.22498 C-14.6517, 4.98978 -14.0582, 5.10328 -13.4806, 5.53343 " /><path d="M-15.0248 5.22118 A3 1.73205 60 0 1 -13.4806 5.53343" />
<path d="M-15.6742, 6.46005 C-15.6729, 5.89945 -15.4759, 5.46817 -15.1383, 5.27601 " /><path d="M-15.1383, 5.27601 Q-15.0838, 5.24454 -15.0248, 5.22118 " /><path d="M-15.0248, 5.22118 C-14.6707, 5.17866 -14.2201, 5.37885 -13.804, 5.78589  C-13.4246, 6.15348 -13.0788, 6.69043 -12.8699, 7.27444 " /><path d="M-13.8434, 10.2153 C-13.3359, 10.504 -12.8257, 10.5652 -12.4443, 10.3817  C-12.032, 10.1899 -11.774, 9.71832 -11.7388, 9.10394 " /><path d="M-11.7388, 9.10394 C-11.7015, 8.52462 -11.8621, 7.8257 -12.1735, 7.18279  C-12.4944, 6.51348 -12.9739, 5.9124 -13.4806, 5.53343 " /><path d="M-15.7625, 6.87768 C-15.7321, 6.47425 -15.575, 6.16464 -15.3249, 6.01303 " /><path d="M-12.8699, 7.27444 C-12.8496, 7.33064 -12.8379, 7.3805 -12.8504, 7.38752  C-12.8653, 7.39607 -12.9096, 7.34293 -12.9556, 7.28438  C-13.0197, 7.2021 -13.0929, 7.10358 -13.17, 7.00789  C-13.2561, 6.89993 -13.347, 6.79538 -13.4426, 6.69423  C-13.7938, 6.32225 -14.1991, 6.04468 -14.5674, 5.94435 " /><path d="M-14.5674, 5.94435 C-14.8567, 5.86327 -15.1218, 5.88787 -15.3249, 6.01303 " /><path d="M-13.0461 9.10394 A1.925 1.1114 60 0 1 -13.4448 9.98516" />
<path d="M-15.3698 6.65096 A1.925 1.1114 60 0 1 -13.0461 9.10394" />
<path d="M-13.9709 9.63785 A1.925 1.1114 -120 0 0 -16.2946 7.18487" />
<path d="M-16.2946 7.18487 A1.925 1.1114 -120 0 0 -14.3696 10.5191" />
<path d="M-14.3696 10.5191 A1.925 1.1114 -120 0 0 -13.9709 9.63785" />
</g>

</svg>
