<svg xmlns="http://www.w3.org/2000/svg" viewBox="-28.16 -9.49 89.32 18.98">
<rect width="100%" height="100%" fill="white"/>
<g   fill="none"
   stroke="rgb(0, 0, 0)"
   stroke-linecap="butt"
   stroke-linejoin="miter"
   stroke-width="0.35"
   transform="scale(1, -1)"
  >
<path id= "1" d=" M 54.7018 -3.00179 L 1.1957e-13 -3.33 " />
<path d="M54.7018, -3.00179 C54.7794, -3.00163 54.8562, -2.96974 54.9111, -2.91495  C54.9676, -2.85949 55.0003, -2.78093 55, -2.70179 " /><path id= "3" d=" M -3 -3 L -1.79522e-14 -3.33 " />
<path id= "4" d=" M -4.16251 -3 L -4.03745 -3 " />
<path id= "5" d=" M -3.16251 -3 L -3 -3 " />
<path d="M-4.4928, -2.44347 L-4.17709, -2.98742 " /><path d="M-4.9928, 2.44346 L-4.67709, 2.98742 " /><path d="M-3.49281, -2.44347 L-3.17709, -2.98742 " /><path d="M-3.99281, 2.44346 L-3.67709, 2.98742 " /><path d="M-3.7094, -2.44529 Q-3.70288, -2.4329 -3.68444, -2.41659  Q-3.64937, -2.3877 -3.60004, -2.38661 " /><path d="M-4.0236, -2.98739 L-3.7094, -2.44529 " /><path d="M-4.52287, 2.98741 L-4.20727, 2.44347 " /><path d="M-4.70727, -2.44347 L-5.02287, -2.98741 " /><path id= "14" d=" M -5.16251 -3 L -5.03746 -3 " />
<path d="M-5.20727, 2.44347 Q-5.20148, 2.43225 -5.18338, 2.41615  Q-5.15966, 2.39639 -5.12642, 2.38923  Q-5.11322, 2.38792 -5.10002, 2.3866  Q-5.05357, 2.38754 -5.01968, 2.41375  Q-4.99918, 2.431 -4.9928, 2.44346 " /><path d="M-5.70727, -2.44347 Q-5.70148, -2.43225 -5.68338, -2.41615  Q-5.64895, -2.38775 -5.60003, -2.38661 " /><path d="M-4.60003, -2.38661 Q-4.55358, -2.38754 -4.51969, -2.41375  Q-4.49919, -2.431 -4.4928, -2.44347 " /><path d="M-5.4928, -2.44346 L-5.17709, -2.98742 " /><path d="M-5.9928, 2.44346 L-5.67709, 2.98742 " /><path d="M-4.20727, 2.44347 Q-4.20148, 2.43225 -4.18338, 2.41615  Q-4.15967, 2.3964 -4.12642, 2.38924  Q-4.11322, 2.38792 -4.10003, 2.38661  Q-4.05357, 2.38754 -4.01969, 2.41375  Q-3.99919, 2.431 -3.99281, 2.44346 " /><path d="M-4.70727, -2.44347 Q-4.70148, -2.43225 -4.68338, -2.41615  Q-4.64895, -2.38775 -4.60003, -2.38661 " /><path d="M-3.60003, -2.38661 Q-3.55358, -2.38754 -3.51969, -2.41375  Q-3.49919, -2.431 -3.49281, -2.44347 " /><path d="M-5.52287, 2.98741 L-5.20727, 2.44347 " /><path d="M-5.70727, -2.44347 L-6.02287, -2.98741 " /><path id= "25" d=" M -6.16251 -3 L -6.03746 -3 " />
<path d="M-6.20726, 2.44346 Q-6.20148, 2.43225 -6.18338, 2.41615  Q-6.15966, 2.39639 -6.12641, 2.38923  Q-6.11322, 2.38792 -6.10002, 2.3866  Q-6.05357, 2.38754 -6.01968, 2.41375  Q-5.99918, 2.431 -5.9928, 2.44346 " /><path d="M-6.70726, -2.44347 Q-6.70148, -2.43225 -6.68338, -2.41615  Q-6.64895, -2.38775 -6.60003, -2.3866 " /><path d="M-5.60003, -2.38661 Q-5.55358, -2.38754 -5.51969, -2.41375  Q-5.49918, -2.431 -5.4928, -2.44346 " /><path d="M-6.4928, -2.44346 L-6.17709, -2.98742 " /><path d="M-6.9928, 2.44346 L-6.67709, 2.98742 " /><path d="M-6.52288, 2.98741 L-6.20726, 2.44346 " /><path d="M-6.70726, -2.44347 L-7.02287, -2.98741 " /><path id= "33" d=" M -7.16251 -3 L -7.03746 -3 " />
<path d="M-7.20726, 2.44346 Q-7.20148, 2.43224 -7.18338, 2.41614  Q-7.15966, 2.39639 -7.12641, 2.38923  Q-7.11321, 2.38791 -7.10002, 2.3866  Q-7.05357, 2.38753 -7.01968, 2.41375  Q-6.99918, 2.431 -6.9928, 2.44346 " /><path d="M-7.70726, -2.44347 Q-7.70147, -2.43225 -7.68337, -2.41615  Q-7.64895, -2.38775 -7.60003, -2.3866 " /><path d="M-6.60003, -2.3866 Q-6.55358, -2.38754 -6.51969, -2.41375  Q-6.49918, -2.431 -6.4928, -2.44346 " /><path d="M-7.4928, -2.44346 L-7.17709, -2.98742 " /><path d="M-7.9928, 2.44345 L-7.67709, 2.98742 " /><path d="M-7.52288, 2.98741 L-7.20726, 2.44346 " /><path d="M-7.70726, -2.44347 L-8.02287, -2.98741 " /><path id= "41" d=" M -8.16251 -3 L -8.03746 -3 " />
<path d="M-8.20726, 2.44346 Q-8.20147, 2.43224 -8.18337, 2.41614  Q-8.15966, 2.39639 -8.12641, 2.38923  Q-8.11321, 2.38791 -8.10002, 2.3866  Q-8.05357, 2.38753 -8.01968, 2.41374  Q-7.99918, 2.43099 -7.9928, 2.44345 " /><path d="M-8.70726, -2.44346 Q-8.70147, -2.43224 -8.68337, -2.41614  Q-8.64894, -2.38774 -8.60002, -2.3866 " /><path d="M-7.60003, -2.3866 Q-7.55358, -2.38753 -7.51968, -2.41374  Q-7.49918, -2.431 -7.4928, -2.44346 " /><path d="M-8.4928, -2.44346 L-8.17709, -2.98742 " /><path d="M-8.9928, 2.44345 L-8.67709, 2.98742 " /><path d="M-8.52288, 2.98741 L-8.20726, 2.44346 " /><path d="M-8.70726, -2.44346 L-9.02288, -2.98741 " /><path id= "49" d=" M -9.16251 -3 L -9.03747 -3 " />
<path d="M-9.20726, 2.44346 Q-9.20147, 2.43224 -9.18337, 2.41614  Q-9.15966, 2.39638 -9.12641, 2.38922  Q-9.11321, 2.38791 -9.10001, 2.38659  Q-9.05356, 2.38753 -9.01968, 2.41374  Q-8.99918, 2.43099 -8.9928, 2.44345 " /><path d="M-9.70726, -2.44346 Q-9.70147, -2.43224 -9.68337, -2.41614  Q-9.64894, -2.38774 -9.60002, -2.3866 " /><path d="M-8.60002, -2.3866 Q-8.55357, -2.38753 -8.51968, -2.41374  Q-8.49918, -2.43099 -8.4928, -2.44346 " /><path d="M-9.49279, -2.44346 L-9.17709, -2.98742 " /><path d="M-9.9928, 2.44345 L-9.67709, 2.98742 " /><path d="M-9.52288, 2.98741 L-9.20726, 2.44346 " /><path d="M-9.70726, -2.44346 L-10.0229, -2.98741 " /><path id= "57" d=" M -10.1625 -3 L -10.0375 -3 " />
<path d="M-10.2073, 2.44345 Q-10.2015, 2.43224 -10.1834, 2.41614  Q-10.1597, 2.39638 -10.1264, 2.38922  Q-10.1132, 2.38791 -10.1, 2.38659  Q-10.0536, 2.38753 -10.0197, 2.41374  Q-9.99917, 2.43099 -9.9928, 2.44345 " /><path d="M-10.7073, -2.44346 Q-10.7015, -2.43224 -10.6834, -2.41614  Q-10.6489, -2.38774 -10.6, -2.3866 " /><path d="M-9.60002, -2.3866 Q-9.55357, -2.38753 -9.51968, -2.41374  Q-9.49918, -2.43099 -9.49279, -2.44346 " /><path d="M-10.4928, -2.44345 L-10.1771, -2.98741 " /><path d="M-10.9928, 2.44345 L-10.6771, 2.98742 " /><path d="M-10.5229, 2.98741 L-10.2073, 2.44345 " /><path d="M-10.7073, -2.44346 L-11.0229, -2.98741 " /><path id= "65" d=" M -11.1625 -3 L -11.0375 -3 " />
<path d="M-11.2073, 2.44345 Q-11.2015, 2.43223 -11.1834, 2.41613  Q-11.1597, 2.39638 -11.1264, 2.38922  Q-11.1132, 2.3879 -11.1, 2.38659  Q-11.0536, 2.38753 -11.0197, 2.41374  Q-10.9992, 2.43099 -10.9928, 2.44345 " /><path d="M-11.7073, -2.44346 Q-11.7015, -2.43224 -11.6834, -2.41614  Q-11.6489, -2.38774 -11.6, -2.38659 " /><path d="M-10.6, -2.3866 Q-10.5536, -2.38753 -10.5197, -2.41374  Q-10.4992, -2.43099 -10.4928, -2.44345 " /><path d="M-11.4928, -2.44345 L-11.1771, -2.98741 " /><path d="M-11.9928, 2.44344 L-11.6771, 2.98742 " /><path d="M-11.5229, 2.98741 L-11.2073, 2.44345 " /><path d="M-11.7073, -2.44346 L-12.0229, -2.98741 " /><path id= "73" d=" M -12.1625 -3 L -12.0375 -3 " />
<path d="M-12.2073, 2.44345 Q-12.2015, 2.43223 -12.1834, 2.41613  Q-12.1596, 2.39638 -12.1264, 2.38922  Q-12.1132, 2.3879 -12.1, 2.38659  Q-12.0536, 2.38752 -12.0197, 2.41374  Q-11.9992, 2.43099 -11.9928, 2.44344 " /><path d="M-12.7073, -2.44345 Q-12.7015, -2.43223 -12.6834, -2.41613  Q-12.6489, -2.38773 -12.6, -2.38659 " /><path d="M-11.6, -2.38659 Q-11.5536, -2.38752 -11.5197, -2.41374  Q-11.4992, -2.43099 -11.4928, -2.44345 " /><path d="M-12.4928, -2.44345 L-12.1771, -2.98741 " /><path d="M-12.9928, 2.44344 L-12.6771, 2.98742 " /><path d="M-12.5229, 2.98741 L-12.2073, 2.44345 " /><path d="M-12.7073, -2.44345 L-13.0229, -2.98741 " /><path id= "81" d=" M -13.1625 -3 L -13.0375 -3 " />
<path d="M-13.2073, 2.44345 Q-13.2015, 2.43223 -13.1834, 2.41613  Q-13.1596, 2.39637 -13.1264, 2.38921  Q-13.1132, 2.3879 -13.1, 2.38658  Q-13.0536, 2.38752 -13.0197, 2.41373  Q-12.9992, 2.43098 -12.9928, 2.44344 " /><path d="M-13.7072, -2.44345 Q-13.7015, -2.43223 -13.6834, -2.41613  Q-13.6489, -2.38773 -13.6, -2.38659 " /><path d="M-12.6, -2.38659 Q-12.5536, -2.38752 -12.5197, -2.41373  Q-12.4992, -2.43099 -12.4928, -2.44345 " /><path d="M-13.4928, -2.44345 L-13.1771, -2.98741 " /><path d="M-13.9928, 2.44344 L-13.6771, 2.98742 " /><path d="M-13.5229, 2.98741 L-13.2073, 2.44345 " /><path d="M-13.7072, -2.44345 L-14.0229, -2.98741 " /><path id= "89" d=" M -14.1625 -3 L -14.0375 -3 " />
<path d="M-14.2072, 2.44344 Q-14.2015, 2.43222 -14.1834, 2.41612  Q-14.1596, 2.39637 -14.1264, 2.38921  Q-14.1132, 2.3879 -14.1, 2.38658  Q-14.0536, 2.38752 -14.0197, 2.41373  Q-13.9992, 2.43098 -13.9928, 2.44344 " /><path d="M-14.7072, -2.44345 Q-14.7015, -2.43223 -14.6834, -2.41613  Q-14.6489, -2.38773 -14.6, -2.38659 " /><path d="M-13.6, -2.38659 Q-13.5536, -2.38752 -13.5197, -2.41373  Q-13.4992, -2.43098 -13.4928, -2.44345 " /><path d="M-14.4928, -2.44345 L-14.1771, -2.98741 " /><path d="M-14.9928, 2.44344 L-14.6771, 2.98742 " /><path d="M-14.5229, 2.98741 L-14.2072, 2.44344 " /><path d="M-14.7072, -2.44345 L-15.0229, -2.98741 " /><path id= "97" d=" M -15.1625 -3 L -15.0375 -3 " />
<path d="M-15.2072, 2.44344 Q-15.2015, 2.43222 -15.1834, 2.41612  Q-15.1596, 2.39637 -15.1264, 2.38921  Q-15.1132, 2.38789 -15.1, 2.38658  Q-15.0535, 2.38752 -15.0197, 2.41373  Q-14.9992, 2.43098 -14.9928, 2.44344 " /><path d="M-15.7072, -2.44345 Q-15.7015, -2.43222 -15.6834, -2.41613  Q-15.6489, -2.38773 -15.6, -2.38658 " /><path d="M-14.6, -2.38659 Q-14.5536, -2.38752 -14.5197, -2.41373  Q-14.4992, -2.43098 -14.4928, -2.44345 " /><path d="M-15.4928, -2.44344 L-15.1771, -2.98741 " /><path d="M-15.9928, 2.44344 L-15.6771, 2.98742 " /><path d="M-15.5229, 2.98741 L-15.2072, 2.44344 " /><path d="M-15.7072, -2.44345 L-16.0229, -2.98741 " /><path id= "105" d=" M -16.1625 -3 L -16.0375 -3 " />
<path d="M-16.2072, 2.44344 Q-16.2015, 2.43222 -16.1834, 2.41612  Q-16.1596, 2.39637 -16.1264, 2.38921  Q-16.1132, 2.38789 -16.1, 2.38658  Q-16.0535, 2.38752 -16.0197, 2.41373  Q-15.9992, 2.43098 -15.9928, 2.44344 " /><path d="M-16.7072, -2.44344 Q-16.7015, -2.43222 -16.6834, -2.41612  Q-16.6489, -2.38773 -16.6, -2.38658 " /><path d="M-15.6, -2.38658 Q-15.5536, -2.38752 -15.5197, -2.41373  Q-15.4992, -2.43098 -15.4928, -2.44344 " /><path d="M-16.4928, -2.44344 L-16.1771, -2.98741 " /><path d="M-16.9928, 2.44343 L-16.6771, 2.98742 " /><path d="M-16.5229, 2.98741 L-16.2072, 2.44344 " /><path d="M-16.7072, -2.44344 L-17.0229, -2.98741 " /><path id= "113" d=" M -17.1625 -3 L -17.0375 -3 " />
<path d="M-17.2072, 2.44344 Q-17.2015, 2.43222 -17.1834, 2.41612  Q-17.1596, 2.39636 -17.1264, 2.3892  Q-17.1132, 2.38789 -17.1, 2.38658  Q-17.0535, 2.38751 -17.0197, 2.41373  Q-16.9992, 2.43098 -16.9928, 2.44343 " /><path d="M-17.7072, -2.44344 Q-17.7015, -2.43222 -17.6834, -2.41612  Q-17.6489, -2.38772 -17.6, -2.38658 " /><path d="M-16.6, -2.38658 Q-16.5536, -2.38751 -16.5197, -2.41372  Q-16.4992, -2.43098 -16.4928, -2.44344 " /><path d="M-17.4928, -2.44344 L-17.1771, -2.98741 " /><path d="M-17.9928, 2.44343 L-17.6771, 2.98742 " /><path d="M-17.5229, 2.98741 L-17.2072, 2.44344 " /><path d="M-17.7072, -2.44344 L-18.0229, -2.98741 " /><path id= "121" d=" M -18.1625 -3 L -18.0375 -3 " />
<path d="M-18.2072, 2.44343 Q-18.2015, 2.43221 -18.1834, 2.41611  Q-18.1596, 2.39636 -18.1264, 2.3892  Q-18.1132, 2.38789 -18.1, 2.38657  Q-18.0535, 2.38751 -18.0197, 2.41372  Q-17.9992, 2.43097 -17.9928, 2.44343 " /><path d="M-18.7072, -2.44344 Q-18.7015, -2.43222 -18.6834, -2.41612  Q-18.6489, -2.38772 -18.6, -2.38658 " /><path d="M-17.6, -2.38658 Q-17.5536, -2.38751 -17.5197, -2.41372  Q-17.4992, -2.43098 -17.4928, -2.44344 " /><path d="M-18.4928, -2.44344 L-18.1771, -2.98741 " /><path d="M-18.9928, 2.44343 L-18.6771, 2.98742 " /><path d="M-18.5229, 2.98741 L-18.2072, 2.44343 " /><path d="M-18.7072, -2.44344 L-19.0229, -2.98741 " /><path id= "129" d=" M -19.1625 -3 L -19.0375 -3 " />
<path d="M-19.2072, 2.44343 Q-19.2015, 2.43221 -19.1834, 2.41611  Q-19.1596, 2.39636 -19.1264, 2.3892  Q-19.1132, 2.38789 -19.1, 2.38657  Q-19.0535, 2.38751 -19.0197, 2.41372  Q-18.9992, 2.43097 -18.9928, 2.44343 " /><path d="M-19.7072, -2.44344 Q-19.7014, -2.43221 -19.6833, -2.41611  Q-19.6489, -2.38772 -19.6, -2.38657 " /><path d="M-18.6, -2.38658 Q-18.5536, -2.38751 -18.5197, -2.41372  Q-18.4992, -2.43097 -18.4928, -2.44344 " /><path d="M-19.4928, -2.44343 L-19.1771, -2.98741 " /><path d="M-19.2072, 2.44343 L-19.4409, 2.84593 " /><path d="M-19.7072, -2.44344 L-19.7567, -2.52853 " /><path id= "136" d=" M -20.375 -1.925 L -19.7676 -2.53244 " />
<path d="M-19.6, -2.38657 Q-19.5536, -2.38751 -19.5197, -2.41372  Q-19.4992, -2.43097 -19.4928, -2.44343 " /><path id= "138" d=" M -21.6828 -1.925 L -20.375 -1.925 " />
<path d="M-22 2.14114e-15 A6 6 0 0 1 -21.6828 -1.925" /></g>
<g   fill="none"
   stroke="rgb(0, 0, 0)"
   stroke-linecap="butt"
   stroke-linejoin="miter"
   stroke-width="0.35"
   transform="scale(1, -1)"
  >
<path id= "1" d=" M 0 3.33 L 54.7018 3.00179 " />
<path d="M0, -3.33 L0, -3.24651  L0, -3.00023  L0, -2.6035  L0, -2.07622  L0, -1.44483  L0, -0.740995  L0, -6.66134e-16  L0, 0.740995  L0, 1.44483  L0, 2.07622  L0, 2.6035  L0, 3.00023  L0, 3.24651  L0, 3.33 " /><path d="M54.7018 3.00179 A0.3 0.3 0 0 0 55 2.70179" /><path d="M55, -2.70179 L55, -2.63405  L55, -2.43423  L55, -2.11235  L55, -1.68454  L55, -1.17226  L55, -0.601206  L55, -3.33067e-16  L55, 0.601206  L55, 1.17226  L55, 1.68454  L55, 2.11235  L55, 2.43423  L55, 2.63405  L55, 2.70179 " /><path id= "5" d=" M -3 3 L -4.91574e-14 3.33 " />
<path d="M-3, -3 L-3, -2.92478  L-3, -2.70291  L-3, -2.34549  L-3, -1.87047  L-3, -1.30165  L-3, -0.667563  L-3, -5.55112e-16  L-3, 0.667563  L-3, 1.30165  L-3, 1.87047  L-3, 2.34549  L-3, 2.70291  L-3, 2.92478  L-3, 3 " /><path d="M-3.66251, 3 Q-3.6698, 3 -3.67709, 2.98742 " /><path id= "8" d=" M -3.66251 3 L -3 3 " />
<path d="M-3.16251, -3 Q-3.1698, -3 -3.17709, -2.98742 " /><path d="M-3.17709, -2.98742 C-3.21629, -2.92226 -3.25548, -2.57138 -3.29467, -2.02367  C-3.33977, -1.39788 -3.38487, -0.517733 -3.42996, 0.328283  C-3.46563, 0.99739 -3.50131, 1.63811 -3.53698, 2.1143  C-3.57882, 2.67691 -3.62066, 3.00323 -3.66251, 3 " /><path d="M-4.0236, -2.98739 Q-4.03089, -3 -4.03745, -3 " /><path d="M-4.03745, -3 C-4.07594, -3.00234 -4.11442, -2.72819 -4.15291, -2.24468  C-4.20257, -1.6266 -4.25223, -0.662581 -4.30189, 0.271642  C-4.33645, 0.921036 -4.37101, 1.54823 -4.40557, 2.02766  C-4.44467, 2.5731 -4.48378, 2.92238 -4.52287, 2.98741 " /><path d="M-4.52287, 2.98741 Q-4.53016, 3 -4.53746, 3 " /><path id= "14" d=" M -4.6625 3 L -4.53746 3 " />
<path d="M-4.16251, -3 Q-4.1698, -3 -4.17709, -2.98742 " /><path d="M-4.17709, -2.98742 C-4.21629, -2.92225 -4.25548, -2.57137 -4.29467, -2.02367  C-4.33977, -1.39788 -4.38487, -0.517725 -4.42996, 0.328295  C-4.46562, 0.997167 -4.50128, 1.63767 -4.53695, 2.11381  C-4.5788, 2.67672 -4.62065, 3.00324 -4.6625, 3 " /><path d="M-4.6625, 3 Q-4.6698, 3 -4.67709, 2.98742 " /><path d="M-5.02287, -2.98741 Q-5.03016, -3 -5.03746, -3 " /><path d="M-5.03746, -3 C-5.07594, -3.00234 -5.11443, -2.72819 -5.15291, -2.24469  C-5.20255, -1.62682 -5.25219, -0.663263 -5.30184, 0.270662  C-5.33635, 0.919161 -5.37086, 1.5456 -5.40538, 2.02492  C-5.44454, 2.5719 -5.48371, 2.92228 -5.52287, 2.98741 " /><path d="M-5.52287, 2.98741 Q-5.53017, 3 -5.53746, 3 " /><path id= "21" d=" M -5.6625 3 L -5.53746 3 " />
<path d="M-5.16251, -3 Q-5.1698, -3 -5.17709, -2.98742 " /><path d="M-5.17709, -2.98742 C-5.21629, -2.92225 -5.25548, -2.57137 -5.29467, -2.02367  C-5.33977, -1.39787 -5.38487, -0.517715 -5.42996, 0.328309  C-5.46561, 0.996905 -5.50125, 1.63716 -5.5369, 2.11323  C-5.57877, 2.67649 -5.62064, 3.00324 -5.6625, 3 " /><path d="M-5.6625, 3 Q-5.6698, 3 -5.67709, 2.98742 " /><path d="M-6.02287, -2.98741 Q-6.03016, -3 -6.03746, -3 " /><path d="M-6.03746, -3 C-6.07594, -3.00234 -6.11443, -2.7282 -6.15291, -2.24469  C-6.20254, -1.62704 -6.25216, -0.663954 -6.30179, 0.269669  C-6.33624, 0.917058 -6.37069, 1.54255 -6.40515, 2.02168  C-6.44439, 2.57049 -6.48364, 2.92216 -6.52288, 2.98741 " /><path d="M-6.52288, 2.98741 Q-6.53017, 3 -6.53746, 3 " /><path id= "28" d=" M -6.6625 3 L -6.53746 3 " />
<path d="M-6.16251, -3 Q-6.1698, -3 -6.17709, -2.98742 " /><path d="M-6.17709, -2.98742 C-6.21629, -2.92225 -6.25548, -2.57137 -6.29467, -2.02367  C-6.33977, -1.39787 -6.38487, -0.517708 -6.42996, 0.328318  C-6.4656, 0.996739 -6.50124, 1.63684 -6.53687, 2.11287  C-6.57875, 2.67635 -6.62063, 3.00326 -6.6625, 3 " /><path d="M-6.6625, 3 Q-6.66979, 3 -6.67709, 2.98742 " /><path d="M-7.02287, -2.98741 Q-7.03017, -3 -7.03746, -3 " /><path d="M-7.03746, -3 C-7.07594, -3.00234 -7.11443, -2.7282 -7.15291, -2.2447  C-7.20252, -1.62726 -7.25213, -0.664647 -7.30174, 0.268673  C-7.33611, 0.914623 -7.37049, 1.53887 -7.40487, 2.01771  C-7.4442, 2.56875 -7.48354, 2.92202 -7.52288, 2.98741 " /><path d="M-7.52288, 2.98741 Q-7.53017, 3 -7.53746, 3 " /><path id= "35" d=" M -7.6625 3 L -7.53746 3 " />
<path d="M-7.16251, -3 Q-7.1698, -3 -7.17709, -2.98742 " /><path d="M-7.17709, -2.98742 C-7.21629, -2.92225 -7.25548, -2.57137 -7.29467, -2.02367  C-7.33977, -1.39787 -7.38487, -0.5177 -7.42996, 0.328329  C-7.46558, 0.996515 -7.50121, 1.6364 -7.53684, 2.11237  C-7.57873, 2.67614 -7.62061, 3.00325 -7.6625, 3 " /><path d="M-7.6625, 3 Q-7.66979, 3 -7.67709, 2.98742 " /><path d="M-8.02287, -2.98741 Q-8.03017, -3 -8.03746, -3 " /><path d="M-8.03746, -3 C-8.07595, -3.00234 -8.11443, -2.7282 -8.15292, -2.2447  C-8.20251, -1.62748 -8.2521, -0.665343 -8.30168, 0.267671  C-8.33595, 0.911605 -8.37022, 1.53407 -8.40449, 2.01244  C-8.44395, 2.56645 -8.48342, 2.92184 -8.52288, 2.98741 " /><path d="M-8.52288, 2.98741 Q-8.53017, 3 -8.53747, 3 " /><path id= "42" d=" M -8.6625 3 L -8.53747 3 " />
<path d="M-8.16251, -3 Q-8.1698, -3 -8.17709, -2.98742 " /><path d="M-8.17709, -2.98742 C-8.21629, -2.92225 -8.25548, -2.57137 -8.29467, -2.02367  C-8.33977, -1.39787 -8.38487, -0.517696 -8.42996, 0.328335  C-8.46558, 0.996407 -8.5012, 1.63619 -8.53682, 2.11214  C-8.57872, 2.67605 -8.62061, 3.00325 -8.6625, 3 " /><path d="M-8.6625, 3 Q-8.66979, 3 -8.67709, 2.98742 " /><path d="M-9.02288, -2.98741 Q-9.03017, -3 -9.03747, -3 " /><path d="M-9.03747, -3 C-9.07595, -3.00234 -9.11444, -2.7282 -9.15292, -2.2447  C-9.20249, -1.6277 -9.25206, -0.666027 -9.30163, 0.266687  C-9.33585, 0.909626 -9.37006, 1.53124 -9.40428, 2.00945  C-9.44381, 2.56515 -9.48335, 2.92173 -9.52288, 2.98741 " /><path d="M-9.52288, 2.98741 Q-9.53018, 3 -9.53747, 3 " /><path id= "49" d=" M -9.6625 3 L -9.53747 3 " />
<path d="M-9.16251, -3 Q-9.1698, -3 -9.17709, -2.98742 " /><path d="M-9.17709, -2.98742 C-9.21629, -2.92225 -9.25548, -2.57137 -9.29467, -2.02367  C-9.33977, -1.39786 -9.38487, -0.517683 -9.42996, 0.328352  C-9.46556, 0.996047 -9.50116, 1.63549 -9.53676, 2.11134  C-9.57868, 2.67574 -9.62059, 3.00327 -9.6625, 3 " /><path d="M-9.6625, 3 Q-9.66979, 3 -9.67709, 2.98742 " /><path d="M-10.0229, -2.98741 Q-10.0302, -3 -10.0375, -3 " /><path d="M-10.0375, -3 C-10.0759, -3.00234 -10.1144, -2.7282 -10.1529, -2.24471  C-10.2025, -1.62794 -10.252, -0.66676 -10.3016, 0.265632  C-10.3363, 0.917226 -10.3709, 1.54689 -10.4056, 2.02783  C-10.4447, 2.57317 -10.4838, 2.92239 -10.5229, 2.98741 " /><path d="M-10.5229, 2.98741 Q-10.5302, 3 -10.5375, 3 " /><path id= "56" d=" M -10.6625 3 L -10.5375 3 " />
<path d="M-10.1625, -3 Q-10.1698, -3 -10.1771, -2.98741 " /><path d="M-10.1771, -2.98741 C-10.2163, -2.92225 -10.2555, -2.57137 -10.2947, -2.02367  C-10.3398, -1.39786 -10.3849, -0.517673 -10.43, 0.328365  C-10.4655, 0.995771 -10.5011, 1.63495 -10.5367, 2.11074  C-10.5786, 2.6755 -10.6206, 3.00327 -10.6625, 3 " /><path d="M-10.6625, 3 Q-10.6698, 3 -10.6771, 2.98742 " /><path d="M-11.0229, -2.98741 Q-11.0302, -3 -11.0375, -3 " /><path d="M-11.0375, -3 C-11.076, -3.00234 -11.1144, -2.7282 -11.1529, -2.24471  C-11.2025, -1.62817 -11.252, -0.667473 -11.3015, 0.264606  C-11.3361, 0.913553 -11.3706, 1.54086 -11.4051, 2.02117  C-11.4444, 2.57027 -11.4836, 2.92215 -11.5229, 2.98741 " /><path d="M-11.5229, 2.98741 Q-11.5302, 3 -11.5375, 3 " /><path id= "63" d=" M -11.6625 3 L -11.5375 3 " />
<path d="M-11.1625, -3 Q-11.1698, -3 -11.1771, -2.98741 " /><path d="M-11.1771, -2.98741 C-11.2163, -2.92225 -11.2555, -2.57137 -11.2947, -2.02366  C-11.3398, -1.39785 -11.3849, -0.517659 -11.43, 0.328384  C-11.4655, 0.995367 -11.5011, 1.63416 -11.5366, 2.10985  C-11.5786, 2.67514 -11.6205, 3.00327 -11.6625, 3 " /><path d="M-11.6625, 3 Q-11.6698, 3 -11.6771, 2.98742 " /><path d="M-12.0229, -2.98741 Q-12.0302, -3 -12.0375, -3 " /><path d="M-12.0375, -3 C-12.076, -3.00234 -12.1144, -2.72821 -12.1529, -2.24472  C-12.2024, -1.62841 -12.252, -0.668228 -12.3015, 0.263519  C-12.3357, 0.907374 -12.37, 1.53007 -12.4043, 2.009  C-12.4438, 2.56495 -12.4833, 2.92172 -12.5229, 2.98741 " /><path d="M-12.5229, 2.98741 Q-12.5302, 3 -12.5375, 3 " /><path id= "70" d=" M -12.6625 3 L -12.5375 3 " />
<path d="M-12.1625, -3 Q-12.1698, -3 -12.1771, -2.98741 " /><path d="M-12.1771, -2.98741 C-12.2163, -2.92225 -12.2555, -2.57137 -12.2947, -2.02366  C-12.3398, -1.39784 -12.3849, -0.517645 -12.43, 0.328404  C-12.4655, 0.994924 -12.501, 1.6333 -12.5366, 2.10888  C-12.5786, 2.67475 -12.6205, 3.00328 -12.6625, 3 " /><path d="M-12.6625, 3 Q-12.6698, 3 -12.6771, 2.98742 " /><path d="M-13.0229, -2.98741 Q-13.0302, -3 -13.0375, -3 " /><path d="M-13.0375, -3 C-13.076, -3.00234 -13.1144, -2.72821 -13.1529, -2.24472  C-13.2024, -1.62865 -13.2519, -0.668988 -13.3014, 0.262425  C-13.3359, 0.911427 -13.3705, 1.53895 -13.405, 2.01958  C-13.4443, 2.56958 -13.4836, 2.9221 -13.5229, 2.98741 " /><path d="M-13.5229, 2.98741 Q-13.5302, 3 -13.5375, 3 " /><path id= "77" d=" M -13.6625 3 L -13.5375 3 " />
<path d="M-13.1625, -3 Q-13.1698, -3 -13.1771, -2.98741 " /><path d="M-13.1771, -2.98741 C-13.2163, -2.92225 -13.2555, -2.57137 -13.2947, -2.02366  C-13.3398, -1.39784 -13.3849, -0.517646 -13.43, 0.328402  C-13.4655, 0.994971 -13.501, 1.63339 -13.5366, 2.10898  C-13.5786, 2.67479 -13.6205, 3.00327 -13.6625, 3 " /><path d="M-13.6625, 3 Q-13.6698, 3 -13.6771, 2.98742 " /><path d="M-14.0229, -2.98741 Q-14.0302, -3 -14.0375, -3 " /><path d="M-14.0375, -3 C-14.076, -3.00234 -14.1144, -2.72821 -14.1529, -2.24473  C-14.2024, -1.62887 -14.2519, -0.669672 -14.3014, 0.261439  C-14.336, 0.912598 -14.3707, 1.54218 -14.4053, 2.02359  C-14.4445, 2.57132 -14.4837, 2.92224 -14.5229, 2.98741 " /><path d="M-14.5229, 2.98741 Q-14.5302, 3 -14.5375, 3 " /><path id= "84" d=" M -14.6625 3 L -14.5375 3 " />
<path d="M-14.1625, -3 Q-14.1698, -3 -14.1771, -2.98741 " /><path d="M-14.1771, -2.98741 C-14.2163, -2.92225 -14.2555, -2.57136 -14.2947, -2.02366  C-14.3398, -1.39785 -14.3849, -0.517652 -14.43, 0.328394  C-14.4655, 0.995142 -14.5011, 1.63373 -14.5366, 2.10936  C-14.5786, 2.67494 -14.6205, 3.00327 -14.6625, 3 " /><path d="M-14.6625, 3 Q-14.6698, 3 -14.6771, 2.98742 " /><path d="M-15.0229, -2.98741 Q-15.0302, -3 -15.0375, -3 " /><path d="M-15.0375, -3 C-15.076, -3.00234 -15.1144, -2.72821 -15.1529, -2.24473  C-15.2024, -1.6291 -15.2519, -0.670363 -15.3013, 0.260444  C-15.3357, 0.906343 -15.37, 1.53115 -15.4044, 2.01113  C-15.4439, 2.56589 -15.4834, 2.9218 -15.5229, 2.98741 " /><path d="M-15.5229, 2.98741 Q-15.5302, 3 -15.5375, 3 " /><path id= "91" d=" M -15.6625 3 L -15.5375 3 " />
<path d="M-15.1625, -3 Q-15.1698, -3 -15.1771, -2.98741 " /><path d="M-15.1771, -2.98741 C-15.2163, -2.92225 -15.2555, -2.57136 -15.2947, -2.02366  C-15.3398, -1.39784 -15.3849, -0.517644 -15.43, 0.328405  C-15.4655, 0.994886 -15.501, 1.63323 -15.5366, 2.10879  C-15.5785, 2.67472 -15.6205, 3.00328 -15.6625, 3 " /><path d="M-15.6625, 3 Q-15.6698, 3 -15.6771, 2.98742 " /><path d="M-16.0229, -2.98741 Q-16.0302, -3 -16.0375, -3 " /><path d="M-16.0375, -3 C-16.076, -3.00234 -16.1144, -2.72821 -16.1529, -2.24473  C-16.2024, -1.62933 -16.2518, -0.671101 -16.3013, 0.25938  C-16.3357, 0.906428 -16.3701, 1.53238 -16.4045, 2.01285  C-16.444, 2.56664 -16.4834, 2.92186 -16.5229, 2.98741 " /><path d="M-16.5229, 2.98741 Q-16.5302, 3 -16.5375, 3 " /><path id= "98" d=" M -16.6625 3 L -16.5375 3 " />
<path d="M-16.1625, -3 Q-16.1698, -3 -16.1771, -2.98741 " /><path d="M-16.1771, -2.98741 C-16.2163, -2.92225 -16.2555, -2.57136 -16.2947, -2.02366  C-16.3398, -1.39783 -16.3849, -0.517611 -16.43, 0.32845  C-16.4654, 0.993809 -16.5009, 1.63114 -16.5364, 2.10643  C-16.5784, 2.67377 -16.6205, 3.00329 -16.6625, 3 " /><path d="M-16.6625, 3 Q-16.6698, 3 -16.6771, 2.98742 " /><path d="M-17.0229, -2.98741 Q-17.0302, -3 -17.0375, -3 " /><path d="M-17.0375, -3 C-17.076, -3.00234 -17.1145, -2.72821 -17.1529, -2.24474  C-17.2024, -1.62961 -17.2518, -0.671948 -17.3012, 0.25816  C-17.3355, 0.903764 -17.3699, 1.52847 -17.4042, 2.00868  C-17.4438, 2.56481 -17.4834, 2.92171 -17.5229, 2.98741 " /><path d="M-17.5229, 2.98741 Q-17.5302, 3 -17.5375, 3 " /><path id= "105" d=" M -17.6625 3 L -17.5375 3 " />
<path d="M-17.1625, -3 Q-17.1698, -3 -17.1771, -2.98741 " /><path d="M-17.1771, -2.98741 C-17.2163, -2.92224 -17.2555, -2.57136 -17.2947, -2.02366  C-17.3398, -1.39782 -17.3849, -0.517597 -17.43, 0.328469  C-17.4654, 0.993296 -17.5009, 1.63014 -17.5363, 2.10531  C-17.5784, 2.67333 -17.6204, 3.00331 -17.6625, 3 " /><path d="M-17.6625, 3 Q-17.6698, 3 -17.6771, 2.98742 " /><path d="M-18.0229, -2.98741 Q-18.0302, -3 -18.0375, -3 " /><path d="M-18.0375, -3 C-18.076, -3.00234 -18.1145, -2.72822 -18.1529, -2.24474  C-18.2023, -1.62989 -18.2517, -0.672852 -18.3011, 0.256856  C-18.3356, 0.904189 -18.37, 1.53059 -18.4044, 2.0115  C-18.4439, 2.56605 -18.4834, 2.92181 -18.5229, 2.98741 " /><path d="M-18.5229, 2.98741 Q-18.5302, 3 -18.5375, 3 " /><path id= "112" d=" M -18.6625 3 L -18.5375 3 " />
<path d="M-18.1625, -3 Q-18.1698, -3 -18.1771, -2.98741 " /><path d="M-18.1771, -2.98741 C-18.2163, -2.92224 -18.2555, -2.57136 -18.2947, -2.02366  C-18.3398, -1.39783 -18.3849, -0.517625 -18.43, 0.328431  C-18.4655, 0.994289 -18.501, 1.63207 -18.5365, 2.10748  C-18.5785, 2.67419 -18.6205, 3.00329 -18.6625, 3 " /><path d="M-18.6625, 3 Q-18.6698, 3 -18.6771, 2.98742 " /><path d="M-19.0229, -2.98741 Q-19.0302, -3 -19.0375, -3 " /><path d="M-19.0375, -3 C-19.076, -3.00234 -19.1145, -2.72822 -19.1529, -2.24475  C-19.202, -1.63455 -19.251, -0.687555 -19.3, 0.235563 " /><path d="M-19.3, -1.94834 C-19.3, -1.35118 -19.3, -0.548619 -19.3, 0.235563 " /><path d="M-19.1625, -3 Q-19.1698, -3 -19.1771, -2.98741 " /><path d="M-19.1771, -2.98741 C-19.2181, -2.91962 -19.259, -2.5383 -19.3, -1.94834 " /><path d="M-19.3, -1.94834 C-19.4682, -0.826936 -19.647, 0.826953 -19.8413, 1.64042 " /><path d="M-19.7676, -2.53244 Q-19.7621, -2.5379 -19.7567, -2.52853 " /><path d="M-19.4506, 2.84943 Q-19.4457, 2.85429 -19.4409, 2.84593 " /><path d="M-19.4409, 2.84593 C-19.419, 2.80965 -19.3974, 2.56448 -19.3759, 2.16003  C-19.3504, 1.68067 -19.3251, 0.977127 -19.3, 0.235563 " /><path d="M-19.7676, -2.53244 C-19.7919, -2.51017 -19.8164, -2.25582 -19.8413, -1.83146 " /><path d="M-19.8413, 1.64042 C-19.8501, 1.67807 -19.8609, 1.70531 -19.8712, 1.69796  C-19.8835, 1.68917 -19.8918, 1.6348 -19.8971, 1.57516  C-19.9086, 1.44103 -19.9114, 1.26917 -19.9129, 1.08515  C-19.915, 0.758181 -19.9103, 0.38115 -19.9032, -0.000658708  C-19.8903, -0.675609 -19.869, -1.35863 -19.8413, -1.83146 " /><path id= "127" d=" M -20.375 1.925 L -19.4506 2.84943 " />
<path d="M-20.375, -1.925 L-20.375, -1.87674  L-20.375, -1.73437  L-20.375, -1.50503  L-20.375, -1.20022  L-20.375, -0.835226  L-20.375, -0.428353  L-20.375, -3.33067e-16  L-20.375, 0.428353  L-20.375, 0.835226  L-20.375, 1.20022  L-20.375, 1.50503  L-20.375, 1.73437  L-20.375, 1.87674  L-20.375, 1.925 " /><path id= "129" d=" M -21.6828 1.925 L -20.375 1.925 " />
<path d="M-21.6828, 1.925 L-21.6828, 1.87674  L-21.6828, 1.73437  L-21.6828, 1.50503  L-21.6828, 1.20022  L-21.6828, 0.835226  L-21.6828, 0.428353  L-21.6828, -2.94209e-15  L-21.6828, -0.428353  L-21.6828, -0.835226  L-21.6828, -1.20022  L-21.6828, -1.50503  L-21.6828, -1.73437  L-21.6828, -1.87674  L-21.6828, -1.925 " /><path d="M-21.6828 1.925 A6 6 0 0 1 -22 2.88083e-16" /></g>

</svg>
