<svg xmlns="http://www.w3.org/2000/svg" viewBox="-3.8628 -3.8628 7.7256 7.7256">
<rect width="100%" height="100%" fill="white"/>
<g   fill="none"
   stroke="rgb(0, 0, 0)"
   stroke-linecap="butt"
   stroke-linejoin="miter"
   stroke-width="0.35"
   transform="scale(1, -1)"
  >
<circle cx ="0" cy ="0" r ="3.33" /><path d="M3 0 A3 3 0 0 1 -1.53602 2.57694" /><path d="M0.235563 -2.99074 A3 3 0 0 1 3 -7.34788e-16" /><path d="M3, -8.88178e-16 C3.00013, 0.346645 2.93944, 0.693302 2.82151, 1.01934 " /><path d="M2.69666, 1.31454 L2.6774, 1.35333 " /><path d="M2.677, 1.35414 L2.67653, 1.35505 " /><path d="M2.42204, 1.77024 Q2.32839, 1.89835 2.22177, 2.01587 " /><path d="M2.14156, 2.10088 L2.12588, 2.11675 " /><path d="M1.78346, 2.41232 L1.78243, 2.41308 " /><path d="M1.78197, 2.41342 L1.78195, 2.41343 " /><path d="M1.78124, 2.41395 L1.78124, 2.41396 " /><path d="M1.75491, 2.43317 Q1.61312, 2.53542 1.46044, 2.62052 " /><path d="M0.968514, 2.83936 L0.968509, 2.83936 " /><path d="M0.938283, 2.8495 L0.938273, 2.8495 " /><path d="M0.934563, 2.85072 L0.934496, 2.85074 " /><path d="M0.925991, 2.85351 L0.925967, 2.85352 " /><path d="M0.922898, 2.85452 L0.922894, 2.85452 " /><path d="M0.919828, 2.85551 L0.91982, 2.85551 " /><path d="M0.871009, 2.87077 L0.871002, 2.87078 " /><path d="M0.867918, 2.87171 L0.864814, 2.87265 " /><path d="M0.863951, 2.87291 L0.857109, 2.87495 " /><path d="M0.856245, 2.87521 L0.856233, 2.87522 " /><path d="M0.853141, 2.87613 L0.853137, 2.87614 " /><path d="M0.850047, 2.87705 L0.85004, 2.87705 " /><path d="M0.800871, 2.89113 L0.800864, 2.89113 " /><path d="M0.797758, 2.89199 L0.797754, 2.89199 " /><path d="M0.794644, 2.89284 L0.79462, 2.89285 " /><path d="M0.793751, 2.89309 L0.79288, 2.89333 " /><path d="M0.779098, 2.89707 L0.779096, 2.89707 " /><path d="M0.777356, 2.89754 L0.774212, 2.89838 " /><path d="M0.771098, 2.89921 L0.771091, 2.89921 " /><path d="M-0.134485, 2.99698 L-0.152497, 2.99612 " /><path d="M-0.566404, 2.94605 L-0.566813, 2.94597 " /><path d="M-0.56923, 2.9455 L-0.578777, 2.94364 " /><path d="M-0.582308, 2.94294 L-0.58362, 2.94268 " /><path d="M-0.973469, 2.83767 L-0.976672, 2.83657 " /><path d="M-0.979885, 2.83546 L-0.995189, 2.83012 " /><path d="M-0.998872, 2.82883 L-0.99894, 2.8288 " /><path d="M-0.99979, 2.8285 L-1.00652, 2.82611 " /><path d="M-1.00737, 2.82581 L-1.13227, 2.77812 " /><path d="M-1.25195, 2.72628 L-1.25502, 2.72487 " /><path d="M-1.25503, 2.72487 L-1.2581, 2.72345 " /><path d="M-1.33171, 2.68822 L-1.33843, 2.68488 " /><path d="M-1.3393, 2.68445 L-1.34233, 2.68294 " /><path d="M-1.34234, 2.68293 L-1.34283, 2.68269 " /><path d="M-1.34632, 2.68094 L-1.34638, 2.68091 " /><path d="M-1.34719, 2.6805 L-1.35357, 2.67729 " /><path d="M-1.35437, 2.67688 L-1.39316, 2.6569 " /><path d="M-1.39317, 2.65689 L-1.39617, 2.65532 " /><path d="M-1.39617, 2.65532 L-1.39917, 2.65374 " /><path d="M-1.40002, 2.65329 L-1.40665, 2.64978 " /><path d="M-1.40749, 2.64933 L-1.41049, 2.64774 " /><path d="M-1.41049, 2.64774 L-1.41125, 2.64734 " /><path d="M-1.41204, 2.64691 L-1.41348, 2.64615 " /><path d="M-1.70438, 2.46883 L-1.71063, 2.4645 " /><path d="M-1.90504, 2.31751 L-1.90922, 2.31406 " /><path d="M-2.16988, 2.07163 L-2.17491, 2.06635 " /><path d="M-2.21057, 2.02814 L-2.2155, 2.02277 " /><path d="M-2.21589, 2.02233 L-2.21862, 2.01933 " /><path d="M-2.22328, 2.01421 L-2.23771, 1.99816 " /><path d="M-2.23887, 1.99686 L-2.24429, 1.99077 " /><path d="M-2.2443, 1.99076 L-2.31242, 1.9112 " /><path d="M-2.3176, 1.90492 L-2.31764, 1.90487 " /><path d="M-2.31871, 1.90357 L-2.33235, 1.88684 " /><path d="M-2.33341, 1.88553 L-2.33342, 1.8855 " /><path d="M-2.33669, 1.88145 L-2.33924, 1.87829 " /><path d="M-2.3396, 1.87784 L-2.38087, 1.82523 " /><path d="M-2.41228, 1.7835 L-2.4123, 1.78349 " /><path d="M-2.41663, 1.77762 L-2.41663, 1.77761 " /><path d="M-2.42245, 1.76967 L-2.42264, 1.76942 " /><path d="M-2.42855, 1.7613 L-2.49793, 1.66143 " /><path d="M-2.49794, 1.66141 L-2.50206, 1.6552 " /><path d="M-2.5131, 1.63839 L-2.51716, 1.63215 " /><path d="M-2.54579, 1.58712 L-2.54972, 1.58079 " /><path d="M-2.54973, 1.58078 L-2.57743, 1.53521 " /><path d="M-2.57744, 1.53519 L-2.58124, 1.52879 " /><path d="M-2.726, 1.25257 L-2.74411, 1.21238 " /><path d="M-2.80699, 1.05869 L-2.80947, 1.05208 " /><path d="M-2.80948, 1.05206 L-2.82918, 0.997882 " /><path d="M-2.8456, 0.950032 L-2.84784, 0.943286 " /><path d="M-2.84833, 0.941821 L-2.84833, 0.941818 " /><path d="M-2.85566, 0.919355 L-2.85566, 0.919352 " /><path d="M-2.85613, 0.917884 L-2.89069, 0.802437 " /><path d="M-2.8912, 0.800594 L-2.89121, 0.800567 " /><path d="M-2.89162, 0.79908 L-2.89162, 0.799077 " /><path d="M-2.89783, 0.776278 L-2.89783, 0.776276 " /><path d="M-2.89822, 0.774785 L-2.91259, 0.718915 " /><path d="M-2.94369, 0.578537 Q-2.97036, 0.442792 -2.98444, 0.305168 " /><path d="M-2.98483, 0.301344 L-2.98483, 0.301338 " /><path d="M-2.98517, 0.297926 L-2.98518, 0.297861 " /><path d="M-2.9857, 0.292576 L-2.98602, 0.289296 " /><path d="M-2.98616, 0.287868 L-2.98675, 0.281675 " /><path d="M-2.98686, 0.280439 L-2.99193, 0.219834 " /><path d="M-2.99537, 0.166613 L-2.99578, 0.159142 " /><path d="M-2.99584, 0.157985 L-2.99626, 0.149693 " /><path d="M-2.99672, 0.140246 L-2.99672, 0.140243 " /><path d="M-2.99677, 0.139085 L-3, 2.26777e-11 " /><path d="M-2.9178, 0.697459 L-2.88548, 0.820973 " /><path d="M-2.84075, 0.964431 Q-2.78974, 1.11468 -2.7232, 1.25865 " /><path d="M-2.72306, 1.25896 L-2.71975, 1.26609 " /><path d="M-2.7196, 1.2664 L-2.71958, 1.26644 " /><path d="M-2.71902, 1.26765 L-2.71902, 1.26765 " /><path d="M-2.71175, 1.28312 L-2.71175, 1.28312 " /><path d="M-2.6691, 1.36964 L-2.66909, 1.36965 " /><path d="M-2.54921, 1.58163 L-2.51575, 1.63431 " /><path d="M-2.51442, 1.63636 L-2.51442, 1.63637 " /><path d="M-2.51308, 1.63842 L-2.51308, 1.63842 " /><path d="M-2.51175, 1.64046 L-2.51175, 1.64047 " /><path d="M-2.51041, 1.64251 L-2.51041, 1.64251 " /><path d="M-2.50907, 1.64456 L-2.50907, 1.64456 " /><path d="M-2.48813, 1.67608 L-2.47464, 1.69593 " /><path d="M-2.27496, 1.95564 Q-2.21776, 2.02219 -2.1568, 2.08524 " /><path d="M-2.13672, 2.10581 L-2.13652, 2.10601 " /><path d="M-2.13486, 2.1077 L-2.13485, 2.10771 " /><path d="M-1.23499, 2.73401 L-1.23499, 2.73401 " /><path d="M-0.203217, 2.99311 L-0.137333, 2.99685 " /><path d="M-0.0613644, 2.99937 Q0.368991, 3.00777 0.783387, 2.89591 " /><path d="M0.783849, 2.89579 L0.850258, 2.87699 " /><path d="M0.851955, 2.87649 L0.851969, 2.87648 " /><path d="M0.853666, 2.87598 L0.853681, 2.87597 " /><path d="M0.855378, 2.87547 L0.855392, 2.87547 " /><path d="M0.857089, 2.87496 L0.857103, 2.87496 " /><path d="M0.8588, 2.87445 L0.858814, 2.87445 " /><path d="M0.86051, 2.87394 L0.860524, 2.87393 " /><path d="M0.86222, 2.87343 L0.862234, 2.87342 " /><path d="M0.86393, 2.87291 L0.863944, 2.87291 " /><path d="M0.86564, 2.8724 L0.865653, 2.87239 " /><path d="M0.867349, 2.87188 L0.867362, 2.87188 " /><path d="M0.869058, 2.87137 L0.869071, 2.87136 " /><path d="M0.870767, 2.87085 L0.870779, 2.87084 " /><path d="M0.872475, 2.87033 L0.872487, 2.87033 " /><path d="M0.874183, 2.86981 L0.874195, 2.86981 " /><path d="M0.875891, 2.86929 L0.875903, 2.86928 " /><path d="M0.877598, 2.86877 L0.87761, 2.86876 " /><path d="M0.879305, 2.86824 L0.879316, 2.86824 " /><path d="M0.881012, 2.86772 L0.881023, 2.86772 " /><path d="M0.882719, 2.8672 L0.882729, 2.86719 " /><path d="M0.884425, 2.86667 L0.884435, 2.86667 " /><path d="M0.886131, 2.86614 L0.886141, 2.86614 " /><path d="M0.887836, 2.86561 L0.887846, 2.86561 " /><path d="M0.889541, 2.86509 L0.889551, 2.86508 " /><path d="M0.891246, 2.86456 L0.891255, 2.86455 " /><path d="M0.892951, 2.86402 L0.89296, 2.86402 " /><path d="M0.894655, 2.86349 L0.894663, 2.86349 " /><path d="M0.896359, 2.86296 L0.896367, 2.86296 " /><path d="M0.898063, 2.86243 L0.89807, 2.86242 " /><path d="M0.899766, 2.86189 L0.899773, 2.86189 " /><path d="M0.901469, 2.86136 L0.901476, 2.86135 " /><path d="M0.903172, 2.86082 L0.903178, 2.86082 " /><path d="M0.904874, 2.86028 L0.90488, 2.86028 " /><path d="M0.906576, 2.85974 L0.906582, 2.85974 " /><path d="M0.908278, 2.8592 L0.908283, 2.8592 " /><path d="M0.909979, 2.85866 L0.909984, 2.85866 " /><path d="M0.911681, 2.85812 L0.911685, 2.85812 " /><path d="M0.913381, 2.85757 L0.913385, 2.85757 " /><path d="M0.915082, 2.85703 L0.915085, 2.85703 " /><path d="M0.916782, 2.85649 L0.916785, 2.85648 " /><path d="M0.918482, 2.85594 L0.918484, 2.85594 " /><path d="M0.920181, 2.85539 L0.920183, 2.85539 " /><path d="M0.92188, 2.85484 L0.921882, 2.85484 " /><path d="M0.928673, 2.85264 L0.931619, 2.85168 " /><path d="M0.932068, 2.85153 L0.936736, 2.85 " /><path d="M1.28759, 2.70963 Q1.38051, 2.66548 1.47014, 2.61509 " /><path d="M1.91937, 2.30565 L1.9195, 2.30554 " /><path d="M1.91965, 2.30541 L1.92312, 2.30253 " /><path d="M1.96422, 2.26756 L1.96525, 2.26667 " /><path d="M2.08411, 2.15789 L2.11379, 2.12882 " /><path d="M2.11416, 2.12846 L2.11573, 2.12689 " /><path d="M2.11578, 2.12684 L2.13236, 2.11023 " /><path d="M2.1327, 2.10988 L2.13454, 2.10801 " /><path d="M2.1349, 2.10766 L2.13625, 2.10628 " /><path d="M2.13661, 2.10592 L2.13661, 2.10592 " /><path d="M2.22954, 2.00728 L2.22954, 2.00727 " /><path d="M2.23112, 2.00552 L2.23112, 2.00552 " /><path d="M2.23269, 2.00377 L2.2327, 2.00376 " /><path d="M2.2347, 2.00152 L2.23471, 2.00152 " /><path d="M2.23671, 1.99928 L2.23672, 1.99927 " /><path d="M2.23936, 1.99631 L2.24603, 1.9888 " /><path d="M2.24615, 1.98867 L2.25656, 1.97685 " /><path d="M2.25666, 1.97674 L2.25849, 1.97464 " /><path d="M2.25971, 1.97325 L2.25971, 1.97325 " /><path d="M2.26092, 1.97186 L2.26093, 1.97185 " /><path d="M2.26214, 1.97046 L2.26275, 1.96977 " /><path d="M2.26335, 1.96907 L2.26541, 1.9667 " /><path d="M2.26544, 1.96667 L2.26622, 1.96577 " /><path d="M2.27909, 1.95084 L2.34801, 1.86731 " /><path d="M2.36823, 1.8416 L2.36824, 1.84159 " /><path d="M2.382, 1.82376 L2.39419, 1.80772 " /><path d="M2.3944, 1.80744 L2.39443, 1.8074 " /><path d="M2.3969, 1.80412 L2.39691, 1.80412 " /><path d="M2.39937, 1.80084 L2.39937, 1.80084 " /><path d="M2.43207, 1.75643 L2.43208, 1.75642 " /><path d="M2.45288, 1.72724 C2.41803, 1.77723 2.37596, 1.83276 2.32668, 1.89383  C2.21359, 2.03315 2.07407, 2.17722 1.9195, 2.30554 " /><path d="M3, -1.11022e-15 C3.0002, 0.385814 2.92485, 0.771592 2.77944, 1.12903 " /><path d="M2.7771, 1.13477 L2.77669, 1.13577 " /><path d="M2.77608, 1.13727 L2.77608, 1.13727 " /><path d="M2.77506, 1.13975 L2.77506, 1.13976 " /><path d="M2.7586, 1.17903 L2.7586, 1.17904 " /><path d="M2.75754, 1.1815 L2.75754, 1.18151 " /><path d="M2.75648, 1.18397 L2.75648, 1.18399 " /><path d="M2.75618, 1.18468 L2.75599, 1.18513 " /><path d="M2.75353, 1.19083 L2.75352, 1.19086 " /><path d="M2.75306, 1.19192 L2.75238, 1.19349 " /><path d="M2.74928, 1.2006 L2.74602, 1.20805 " /><path d="M2.74595, 1.2082 L2.74595, 1.20821 " /><path d="M2.74548, 1.20927 L2.74427, 1.21202 " /><path d="M2.74407, 1.21247 L2.72756, 1.24917 " /><path d="M2.72596, 1.25266 L2.72595, 1.25267 " /><path d="M2.72452, 1.25578 L2.72447, 1.2559 " /><path d="M2.72262, 1.25989 L2.72117, 1.26302 " /><path d="M2.72097, 1.26345 L2.71836, 1.26907 " /><path d="M2.69937, 1.30898 L2.677, 1.35412 " /><path d="M2.64023, 1.4245 Q2.54757, 1.5962 2.43347, 1.75448 " /><path d="M2.43285, 1.75535 L2.42946, 1.76004 " /><path d="M2.42847, 1.7614 L2.42846, 1.76141 " /><path d="M2.42255, 1.76953 L2.42237, 1.76978 " /><path d="M2.41656, 1.77771 L2.41655, 1.77772 " /><path d="M2.41222, 1.78359 L2.41221, 1.78361 " /><path d="M2.38078, 1.82534 L2.38078, 1.82535 " /><path d="M2.37633, 1.83113 L2.37633, 1.83114 " /><path d="M2.34408, 1.87224 L2.34407, 1.87225 " /><path d="M2.33951, 1.87794 L2.3395, 1.87796 " /><path d="M2.33624, 1.88201 L2.33596, 1.88237 " /><path d="M2.33333, 1.88562 L2.33331, 1.88564 " /><path d="M2.33226, 1.88695 L2.31981, 1.90223 " /><path d="M2.31862, 1.90368 L2.31862, 1.90369 " /><path d="M2.31755, 1.90498 L2.31751, 1.90503 " /><path d="M2.31233, 1.91132 L2.31232, 1.91133 " /><path d="M2.14572, 2.09664 L2.09652, 2.14584 " /><path d="M2.07622, 2.16548 L2.07372, 2.16787 " /><path d="M2.07317, 2.16841 L2.06926, 2.17214 " /><path d="M2.06423, 2.17692 L2.06172, 2.17929 " /><path d="M2.06171, 2.1793 L2.04365, 2.19625 " /><path d="M1.99075, 2.2443 L1.90485, 2.31766 " /><path d="M1.90355, 2.31872 L1.90355, 2.31873 " /><path d="M1.88682, 2.33236 L1.88681, 2.33237 " /><path d="M1.88551, 2.33342 L1.88548, 2.33344 " /><path d="M1.88504, 2.3338 L1.88188, 2.33635 " /><path d="M1.87782, 2.33961 L1.78248, 2.41304 " /><path d="M1.77759, 2.41665 L1.77758, 2.41666 " /><path d="M1.77712, 2.41699 L1.77644, 2.41749 " /><path d="M1.76964, 2.42247 L1.76938, 2.42266 " /><path d="M1.76109, 2.42869 L1.7597, 2.42971 " /><path d="M1.75492, 2.43316 Q1.58987, 2.55218 1.41028, 2.64785 " /><path d="M1.40729, 2.64944 L1.40728, 2.64945 " /><path d="M1.40645, 2.64989 L1.39981, 2.6534 " /><path d="M1.39898, 2.65384 L1.33907, 2.68457 " /><path d="M1.33822, 2.68499 L1.3315, 2.68833 " /><path d="M1.33066, 2.68875 L1.3269, 2.6906 " /><path d="M1.30049, 2.70347 L1.30049, 2.70347 " /><path d="M1.29679, 2.70524 L1.27022, 2.71782 " /><path d="M1.2665, 2.71955 L1.26644, 2.71958 " /><path d="M1.26558, 2.71998 L1.25877, 2.72314 " /><path d="M1.25791, 2.72354 L1.25789, 2.72355 " /><path d="M1.25481, 2.72497 L1.25481, 2.72497 " /><path d="M1.25173, 2.72638 L1.25173, 2.72639 " /><path d="M1.20271, 2.74836 L1.2027, 2.74837 " /><path d="M1.1996, 2.74972 L1.19648, 2.75108 " /><path d="M1.19561, 2.75146 L1.18873, 2.75444 " /><path d="M1.12486, 2.78113 L1.12398, 2.78149 " /><path d="M1.10827, 2.78778 L1.10512, 2.78903 " /><path d="M1.05182, 2.80957 L1.04865, 2.81075 " /><path d="M1.04547, 2.81194 L1.04546, 2.81194 " /><path d="M1.04457, 2.81227 L1.04399, 2.81249 " /><path d="M1.03664, 2.8152 L1.03537, 2.81567 " /><path d="M1.03345, 2.81638 L1.03345, 2.81638 " /><path d="M1.03027, 2.81754 L0.980181, 2.83536 " /><path d="M0.979646, 2.83554 L0.976973, 2.83646 " /><path d="M0.976439, 2.83665 L0.974503, 2.83731 " /><path d="M0.97323, 2.83775 L0.973205, 2.83776 " /><path d="M0.97231, 2.83806 L0.969131, 2.83915 " /><path d="M0.964314, 2.84079 L0.961004, 2.84191 " /><path d="M0.960356, 2.84213 L0.960345, 2.84214 " /><path d="M0.932468, 2.8514 L0.932462, 2.85141 " /><path d="M0.928563, 2.85268 L0.902306, 2.86109 " /><path d="M0.900578, 2.86164 L0.900568, 2.86164 " /><path d="M0.896654, 2.86287 L0.896583, 2.86289 " /><path d="M0.89568, 2.86317 L0.889108, 2.86522 " /><path d="M0.887613, 2.86568 L0.887588, 2.86569 " /><path d="M0.88435, 2.86669 L0.884346, 2.86669 " /><path d="M0.881112, 2.86769 L0.881104, 2.86769 " /><path d="M0.829613, 2.88301 L0.829605, 2.88301 " /><path d="M0.826352, 2.88395 L0.823077, 2.88488 " /><path d="M0.822167, 2.88514 L0.814949, 2.88719 " /><path d="M0.814038, 2.88745 L0.814026, 2.88745 " /><path d="M0.810763, 2.88837 L0.81076, 2.88837 " /><path d="M0.8075, 2.88928 L0.807492, 2.88928 " /><path d="M0.755626, 2.90328 L0.755618, 2.90328 " /><path d="M0.752342, 2.90413 L0.752338, 2.90413 " /><path d="M0.749057, 2.90498 L0.749032, 2.90499 " /><path d="M0.748115, 2.90522 L0.747197, 2.90546 " /><path d="M0.732659, 2.90916 L0.732657, 2.90916 " /><path d="M0.730822, 2.90962 L0.727506, 2.91045 " /><path d="M0.724221, 2.91127 L0.724213, 2.91127 " /><path d="M0.416462, 2.97095 L0.330616, 2.98173 " /><path d="M0.0797778, 2.99894 Q-0.0905591, 3.00346 -0.260314, 2.98868 " /><path d="M-0.271268, 2.98771 L-0.274481, 2.98742 " /><path d="M-0.503739, 2.95741 L-0.635593, 2.9319 " /><path d="M-0.636546, 2.93169 L-0.643521, 2.93017 " /><path d="M-0.707725, 2.91533 L-0.714661, 2.91363 " /><path d="M-0.715549, 2.91342 L-0.718681, 2.91264 " /><path d="M-0.771357, 2.89914 L-0.774471, 2.89831 " /><path d="M-0.774475, 2.89831 L-0.777591, 2.89747 " /><path d="M-0.778486, 2.89723 L-0.779355, 2.897 " /><path d="M-0.7949, 2.89277 L-0.79801, 2.89192 " /><path d="M-0.798014, 2.89192 L-0.80112, 2.89106 " /><path d="M-0.801127, 2.89105 L-0.850291, 2.87698 " /><path d="M-0.850298, 2.87698 L-0.853388, 2.87606 " /><path d="M-0.853391, 2.87606 L-0.856483, 2.87514 " /><path d="M-0.85736, 2.87488 L-0.864199, 2.87283 " /><path d="M-0.865075, 2.87257 L-0.868163, 2.87164 " /><path d="M-0.868167, 2.87163 L-0.87125, 2.8707 " /><path d="M-0.871258, 2.8707 L-0.920064, 2.85543 " /><path d="M-0.923142, 2.85444 L-0.926211, 2.85344 " /><path d="M-0.93388, 2.85094 L-0.934309, 2.8508 " /><path d="M-0.934805, 2.85064 L-0.938515, 2.84942 " /><path d="M-0.965051, 2.84054 L-0.968747, 2.83928 " /><path d="M-0.968752, 2.83928 L-0.995177, 2.83013 " /><path d="M-0.995188, 2.83012 L-0.99887, 2.82883 " /><path d="M-0.999788, 2.8285 Q-1.07583, 2.80162 -1.15031, 2.7707 " /><path d="M-1.15031, 2.7707 L-1.15114, 2.77036 " /><path d="M-1.152, 2.77 L-1.15498, 2.76876 " /><path d="M-1.15498, 2.76876 L-1.15795, 2.76752 " /><path d="M-1.15796, 2.76751 L-1.20497, 2.74737 " /><path d="M-1.20497, 2.74737 L-1.20792, 2.74607 " /><path d="M-1.20793, 2.74607 L-1.21088, 2.74477 " /><path d="M-1.21172, 2.7444 L-1.21824, 2.74151 " /><path d="M-1.21908, 2.74114 L-1.22203, 2.73983 " /><path d="M-1.22203, 2.73983 L-1.22497, 2.73851 " /><path d="M-1.27441, 2.71586 L-1.27733, 2.71449 " /><path d="M-1.27816, 2.71409 L-1.28462, 2.71104 " /><path d="M-1.28904, 2.70895 L-1.31423, 2.69681 " /><path d="M-1.31424, 2.69681 L-1.31775, 2.6951 " /><path d="M-1.31775, 2.69509 L-1.34282, 2.68269 " /><path d="M-1.34283, 2.68269 L-1.34632, 2.68094 " /><path d="M-1.34719, 2.6805 L-1.35356, 2.67729 " /><path d="M-1.35439, 2.67687 L-1.35727, 2.67541 " /><path d="M-1.35727, 2.67541 L-1.36014, 2.67395 " /><path d="M-1.36015, 2.67395 L-1.40553, 2.65037 " /><path d="M-1.40554, 2.65037 L-1.40838, 2.64886 " /><path d="M-1.40839, 2.64886 L-1.41123, 2.64734 " /><path d="M-1.41204, 2.64691 L-1.41834, 2.64354 " /><path d="M-1.41834, 2.64354 L-1.41873, 2.64333 " /><path d="M-1.41914, 2.64311 L-1.42198, 2.64158 " /><path d="M-1.42199, 2.64158 L-1.42482, 2.64005 " /><path d="M-1.42483, 2.64005 L-1.46962, 2.61538 " /><path d="M-1.46963, 2.61538 L-1.47244, 2.6138 " /><path d="M-1.47244, 2.61379 L-1.47525, 2.61221 " /><path d="M-1.48926, 2.60425 L-1.49004, 2.6038 " /><path d="M-1.49084, 2.60334 L-1.49364, 2.60174 " /><path d="M-1.49364, 2.60174 L-1.49644, 2.60013 " /><path d="M-1.49644, 2.60013 L-1.54055, 2.57424 " /><path d="M-1.54055, 2.57424 L-1.54332, 2.57258 " /><path d="M-1.54332, 2.57258 L-1.54609, 2.57092 " /><path d="M-1.54687, 2.57045 L-1.55298, 2.56676 " /><path d="M-1.55376, 2.56628 L-1.55652, 2.56461 " /><path d="M-1.55653, 2.56461 L-1.55928, 2.56294 " /><path d="M-1.60275, 2.53598 L-1.60548, 2.53425 " /><path d="M-1.60548, 2.53425 L-1.6082, 2.53252 " /><path d="M-1.60899, 2.53203 L-1.61501, 2.52819 " /><path d="M-1.61748, 2.52661 L-1.62924, 2.51905 " /><path d="M-1.6426, 2.51035 L-1.64424, 2.50928 " /><path d="M-1.64485, 2.50888 L-1.64839, 2.50655 " /><path d="M-1.65293, 2.50356 L-1.65927, 2.49936 " /><path d="M-1.65929, 2.49935 L-1.70437, 2.46883 " /><path d="M-1.70437, 2.46883 L-1.71062, 2.4645 " /><path d="M-1.71063, 2.4645 L-1.75507, 2.43305 " /><path d="M-1.75509, 2.43304 L-1.76124, 2.42858 " /><path d="M-1.77399, 2.41929 L-1.77727, 2.41688 " /><path d="M-1.77774, 2.41653 L-1.78361, 2.41221 " /><path d="M-1.78362, 2.41219 L-1.82535, 2.38078 " /><path d="M-1.82536, 2.38077 L-1.83114, 2.37633 " /><path d="M-1.83115, 2.37632 L-1.87224, 2.34408 " /><path d="M-1.88695, 2.33225 L-1.90369, 2.31862 " /><path d="M-1.90503, 2.31751 L-1.90922, 2.31406 " /><path d="M-1.90923, 2.31405 L-1.94727, 2.28213 " /><path d="M-1.94728, 2.28213 L-1.95551, 2.27507 " /><path d="M-1.95552, 2.27507 L-2.01432, 2.22317 " /><path d="M-2.01557, 2.22205 L-2.01559, 2.22202 " /><path d="M-2.01944, 2.21853 L-2.02244, 2.21579 " /><path d="M-2.02286, 2.21541 L-2.02827, 2.21046 " /><path d="M-2.06644, 2.17481 L-2.11521, 2.12741 " /><path d="M-2.12177, 2.12087 L-2.12751, 2.11511 " /><path d="M-2.12832, 2.11429 L-2.13346, 2.10911 " /><path d="M-2.13347, 2.1091 L-2.16987, 2.07164 " /><path d="M-2.16987, 2.07163 L-2.1749, 2.06635 " /><path d="M-2.21589, 2.02234 L-2.21862, 2.01933 " /><path d="M-2.22327, 2.01421 L-2.23771, 1.99817 " /><path d="M-2.23887, 1.99686 L-2.24429, 1.99077 " /><path d="M-2.24429, 1.99076 L-2.31241, 1.91122 " /><path d="M-2.31242, 1.91121 Q-2.37524, 1.8352 -2.43293, 1.75524 " /><path d="M-2.46375, 1.7117 L-2.468, 1.70558 " /><path d="M-2.468, 1.70557 L-2.49793, 1.66143 " /><path d="M-2.49794, 1.66141 L-2.50206, 1.6552 " /><path d="M-2.50271, 1.65422 L-2.50727, 1.64729 " /><path d="M-2.5131, 1.63839 L-2.51716, 1.63215 " /><path d="M-2.51717, 1.63213 L-2.54579, 1.58713 " /><path d="M-2.54579, 1.58712 L-2.54972, 1.58079 " /><path d="M-2.54973, 1.58079 L-2.57743, 1.53521 " /><path d="M-2.57744, 1.53519 L-2.58124, 1.52879 " /><path d="M-2.58154, 1.52828 L-2.58366, 1.5247 " /><path d="M-2.58638, 1.52007 L-2.58812, 1.51711 " /><path d="M-2.58812, 1.51711 L-2.61013, 1.47892 " /><path d="M-2.61405, 1.47198 L-2.61574, 1.46898 " /><path d="M-2.61598, 1.46855 L-2.61899, 1.46317 " /><path d="M-2.619, 1.46315 L-2.64027, 1.42442 " /><path d="M-2.64028, 1.42441 L-2.6432, 1.41898 " /><path d="M-2.66383, 1.37987 L-2.66666, 1.37439 " /><path d="M-2.6671, 1.37352 L-2.67025, 1.3674 " /><path d="M-2.67425, 1.35955 L-2.67704, 1.35405 " /><path d="M-2.67705, 1.35403 L-2.6967, 1.31445 " /><path d="M-2.69671, 1.31445 L-2.69941, 1.3089 " /><path d="M-2.69941, 1.30889 L-2.7184, 1.26898 " /><path d="M-2.7184, 1.26897 L-2.72101, 1.26338 " /><path d="M-2.72122, 1.26293 L-2.72266, 1.25981 " /><path d="M-2.726, 1.25257 L-2.74411, 1.21238 " /><path d="M-2.74836, 1.20271 L-2.75057, 1.19765 " /><path d="M-2.75089, 1.19692 L-2.7537, 1.19044 " /><path d="M-2.75371, 1.19042 L-2.77339, 1.14382 " /><path d="M-2.77339, 1.14381 L-2.77607, 1.13728 " /><path d="M-2.77608, 1.13727 L-2.79486, 1.09031 " /><path d="M-2.79487, 1.09029 L-2.79742, 1.08371 " /><path d="M-2.80251, 1.07049 L-2.80643, 1.06017 " /><path d="M-2.80699, 1.05869 L-2.80947, 1.05208 " /><path d="M-2.82682, 1.00454 L-2.82917, 0.997883 " /><path d="M-2.82918, 0.997873 L-2.8456, 0.950033 " /><path d="M-2.84561, 0.950014 L-2.84783, 0.943313 " /><path d="M-2.84833, 0.941819 L-2.85178, 0.93133 " /><path d="M-2.85614, 0.917858 L-2.8912, 0.800594 " /><path d="M-2.90005, 0.767916 L-2.91259, 0.718915 " /><path d="M-2.91259, 0.718905 L-2.91427, 0.712048 " /><path d="M-2.91428, 0.712038 L-2.92587, 0.662806 " /><path d="M-2.92587, 0.662787 L-2.92742, 0.655898 " /><path d="M-2.9276, 0.655116 L-2.9288, 0.649728 " /><path d="M-2.93015, 0.64358 L-2.93032, 0.642828 " /><path d="M-2.93033, 0.642763 L-2.93107, 0.639413 " /><path d="M-2.93107, 0.639408 L-2.94015, 0.596273 " /><path d="M-2.94172, 0.588465 L-2.94239, 0.585093 " /><path d="M-2.94249, 0.584608 L-2.94368, 0.578555 " /><path d="M-2.94369, 0.578538 Q-2.97073, 0.440902 -2.98483, 0.301344 " /><path d="M-2.9857, 0.292577 L-2.9861, 0.288447 " /><path d="M-2.98616, 0.287852 L-2.98686, 0.28044 " /><path d="M-2.98687, 0.280419 L-2.99138, 0.22728 " /><path d="M-2.99138, 0.227269 L-2.99193, 0.219844 " /><path d="M-2.99537, 0.166593 L-2.99578, 0.159158 " /><path d="M-2.99584, 0.157982 L-2.99626, 0.149695 " /><path d="M-2.99677, 0.13907 L-2.99711, 0.131631 " /><path d="M-2.99711, 0.131611 L-3, 0.000580865 " /><path d="M-3, 0.00057927 L-3, 1.41087e-11 " /><path d="M3, -7.77156e-16 C3.0002, 0.385814 2.92485, 0.771593 2.77944, 1.12903 " /><path d="M2.7771, 1.13477 L2.77669, 1.13577 " /><path d="M2.77608, 1.13727 L2.77608, 1.13727 " /><path d="M2.77506, 1.13975 L2.77506, 1.13976 " /><path d="M2.7586, 1.17903 L2.75845, 1.17939 " /><path d="M2.75754, 1.1815 L2.75739, 1.18186 " /><path d="M2.75648, 1.18397 L2.75648, 1.18399 " /><path d="M2.75618, 1.18468 L2.75599, 1.18513 " /><path d="M2.75383, 1.19014 L2.75377, 1.19027 " /><path d="M2.75353, 1.19083 L2.75313, 1.19175 " /><path d="M2.75306, 1.19192 L2.75305, 1.19193 " /><path d="M2.74928, 1.2006 L2.74891, 1.20146 " /><path d="M2.74595, 1.2082 L2.74595, 1.20821 " /><path d="M2.74548, 1.20927 L2.74427, 1.21202 " /><path d="M2.74407, 1.21247 L2.72595, 1.25267 " /><path d="M2.72452, 1.25578 L2.72447, 1.2559 " /><path d="M2.72262, 1.25989 L2.72117, 1.26302 " /><path d="M2.72097, 1.26345 L2.71836, 1.26907 " /><path d="M2.69937, 1.30898 L2.677, 1.35412 " /><path d="M2.64023, 1.4245 Q2.54757, 1.5962 2.43347, 1.75448 " /><path d="M2.43285, 1.75535 L2.42946, 1.76004 " /><path d="M2.42847, 1.7614 L2.42846, 1.76141 " /><path d="M2.42255, 1.76953 L2.42237, 1.76978 " /><path d="M2.41656, 1.77771 L2.41655, 1.77772 " /><path d="M2.41222, 1.78359 L2.41221, 1.78361 " /><path d="M2.38078, 1.82534 L2.38078, 1.82535 " /><path d="M2.37633, 1.83113 L2.37633, 1.83114 " /><path d="M2.34408, 1.87224 L2.34407, 1.87225 " /><path d="M2.33951, 1.87794 L2.3395, 1.87796 " /><path d="M2.33624, 1.88201 L2.33596, 1.88237 " /><path d="M2.33333, 1.88562 L2.33331, 1.88564 " /><path d="M2.33226, 1.88695 L2.31981, 1.90223 " /><path d="M2.31862, 1.90368 L2.31862, 1.90369 " /><path d="M2.31755, 1.90498 L2.31751, 1.90503 " /><path d="M2.31233, 1.91132 L2.31232, 1.91133 " /><path d="M2.15229, 2.08989 L2.09651, 2.14584 " /><path d="M2.09404, 2.14826 L2.09403, 2.14826 " /><path d="M2.07317, 2.16841 L2.06926, 2.17214 " /><path d="M2.06423, 2.17692 L2.06172, 2.17929 " /><path d="M1.99075, 2.2443 L1.90485, 2.31766 " /><path d="M1.90355, 2.31872 L1.88681, 2.33237 " /><path d="M1.88551, 2.33342 L1.88548, 2.33344 " /><path d="M1.88144, 2.33671 L1.87827, 2.33926 " /><path d="M1.87782, 2.33961 L1.8721, 2.34419 " /><path d="M1.831, 2.37643 L1.831, 2.37644 " /><path d="M1.82521, 2.38088 L1.82521, 2.38089 " /><path d="M1.78347, 2.41231 L1.78248, 2.41304 " /><path d="M1.77759, 2.41665 L1.77758, 2.41666 " /><path d="M1.77712, 2.41699 L1.77644, 2.41749 " /><path d="M1.76964, 2.42247 L1.76938, 2.42266 " /><path d="M1.76157, 2.42834 Q1.59489, 2.54924 1.41327, 2.64625 " /><path d="M1.41029, 2.64785 L1.41028, 2.64785 " /><path d="M1.40729, 2.64944 L1.40728, 2.64945 " /><path d="M1.40645, 2.64989 L1.39981, 2.6534 " /><path d="M1.29678, 2.70525 L1.27022, 2.71782 " /><path d="M1.2665, 2.71955 L1.26644, 2.71958 " /><path d="M1.26558, 2.71998 L1.25877, 2.72314 " /><path d="M1.19959, 2.74972 L1.19649, 2.75108 " /><path d="M1.19561, 2.75146 L1.18873, 2.75444 " /><path d="M1.12486, 2.78113 L1.12398, 2.78149 " /><path d="M1.10827, 2.78778 L1.10512, 2.78903 " /><path d="M1.04547, 2.81194 L1.04546, 2.81194 " /><path d="M1.04457, 2.81227 L1.04399, 2.81249 " /><path d="M1.03664, 2.8152 L1.03537, 2.81567 " /><path d="M1.03345, 2.81638 L1.03345, 2.81638 " /><path d="M1.03027, 2.81754 L1.03026, 2.81755 " /><path d="M0.979646, 2.83554 L0.97918, 2.8357 " /><path d="M0.976438, 2.83665 L0.975977, 2.83681 " /><path d="M0.973229, 2.83775 L0.973205, 2.83776 " /><path d="M0.97231, 2.83807 L0.969131, 2.83915 " /><path d="M0.964313, 2.84079 L0.961003, 2.84191 " /><path d="M0.960356, 2.84213 L0.960345, 2.84214 " /><path d="M0.932467, 2.8514 L0.932462, 2.85141 " /><path d="M0.928563, 2.85268 L0.902306, 2.86109 " /><path d="M0.900578, 2.86164 L0.900567, 2.86164 " /><path d="M0.896654, 2.86287 L0.896583, 2.86289 " /><path d="M0.895679, 2.86317 L0.889108, 2.86522 " /><path d="M0.887612, 2.86568 L0.887588, 2.86569 " /><path d="M0.88435, 2.86669 L0.884346, 2.86669 " /><path d="M0.881111, 2.86769 L0.881103, 2.86769 " /><path d="M0.829612, 2.88301 L0.829605, 2.88301 " /><path d="M0.826347, 2.88395 L0.823089, 2.88488 " /><path d="M0.822165, 2.88514 L0.814949, 2.88719 " /><path d="M0.814038, 2.88745 L0.814025, 2.88745 " /><path d="M0.810763, 2.88837 L0.810759, 2.88837 " /><path d="M0.8075, 2.88928 L0.807492, 2.88928 " /><path d="M0.755626, 2.90328 L0.755618, 2.90328 " /><path d="M0.752342, 2.90413 L0.752338, 2.90413 " /><path d="M0.749057, 2.90498 L0.749031, 2.90499 " /><path d="M0.748115, 2.90522 L0.747196, 2.90546 " /><path d="M0.732659, 2.90916 L0.732657, 2.90916 " /><path d="M0.730821, 2.90962 L0.727505, 2.91045 " /><path d="M0.724221, 2.91127 L0.724213, 2.91127 " /><path d="M0.410883, 2.97173 L0.325646, 2.98227 " /><path d="M0.288536, 2.98609 L0.288529, 2.98609 " /><path d="M0.0797778, 2.99894 Q-0.0825679, 3.00325 -0.244431, 2.99003 " /><path d="M-0.264782, 2.98829 L-0.267221, 2.98808 " /><path d="M-0.508578, 2.95658 L-0.635594, 2.9319 " /><path d="M-0.636546, 2.93169 L-0.643522, 2.93017 " /><path d="M-0.707726, 2.91533 L-0.714662, 2.91363 " /><path d="M-0.715549, 2.91342 L-0.718682, 2.91264 " /><path d="M-0.771358, 2.89914 L-0.774471, 2.89831 " /><path d="M-0.774475, 2.89831 L-0.777591, 2.89747 " /><path d="M-0.778486, 2.89723 L-0.779355, 2.897 " /><path d="M-0.79314, 2.89326 L-0.794007, 2.89302 " /><path d="M-0.7949, 2.89277 L-0.798011, 2.89192 " /><path d="M-0.798014, 2.89192 L-0.80112, 2.89106 " /><path d="M-0.801127, 2.89105 L-0.850291, 2.87698 " /><path d="M-0.853392, 2.87606 L-0.856484, 2.87514 " /><path d="M-0.85736, 2.87488 L-0.8642, 2.87283 " /><path d="M-0.868167, 2.87163 L-0.871251, 2.8707 " /><path d="M-0.920072, 2.85543 L-0.923138, 2.85444 " /><path d="M-0.927092, 2.85316 L-0.93388, 2.85094 " /><path d="M-0.934806, 2.85064 L-0.938515, 2.84942 " /><path d="M-0.938525, 2.84942 L-0.965046, 2.84054 " /><path d="M-0.965051, 2.84054 L-0.968747, 2.83928 " /><path d="M-0.968753, 2.83928 Q-1.04995, 2.81158 -1.12944, 2.77928 " /><path d="M-1.12944, 2.77927 L-1.13243, 2.77806 " /><path d="M-1.13243, 2.77806 L-1.13542, 2.77684 " /><path d="M-1.15031, 2.7707 L-1.15114, 2.77035 " /><path d="M-1.152, 2.77 L-1.15498, 2.76876 " /><path d="M-1.15498, 2.76876 L-1.15795, 2.76752 " /><path d="M-1.15796, 2.76751 L-1.20497, 2.74737 " /><path d="M-1.20793, 2.74607 L-1.21088, 2.74477 " /><path d="M-1.21172, 2.7444 L-1.21824, 2.74151 " /><path d="M-1.27149, 2.71723 L-1.2744, 2.71586 " /><path d="M-1.27816, 2.71409 L-1.28462, 2.71104 " /><path d="M-1.28904, 2.70895 L-1.31423, 2.69681 " /><path d="M-1.31424, 2.69681 L-1.31775, 2.6951 " /><path d="M-1.31775, 2.69509 L-1.34282, 2.68269 " /><path d="M-1.34283, 2.68269 L-1.34632, 2.68094 " /><path d="M-1.34719, 2.6805 L-1.35356, 2.67729 " /><path d="M-1.35439, 2.67687 L-1.35727, 2.67541 " /><path d="M-1.35727, 2.67541 L-1.36014, 2.67395 " /><path d="M-1.36015, 2.67395 L-1.40553, 2.65037 " /><path d="M-1.40554, 2.65037 L-1.40838, 2.64886 " /><path d="M-1.40839, 2.64886 L-1.41123, 2.64734 " /><path d="M-1.41204, 2.64691 L-1.41834, 2.64354 " /><path d="M-1.41914, 2.64311 L-1.42198, 2.64158 " /><path d="M-1.42199, 2.64158 L-1.42482, 2.64005 " /><path d="M-1.42483, 2.64005 L-1.46962, 2.61538 " /><path d="M-1.46963, 2.61538 L-1.47244, 2.6138 " /><path d="M-1.47244, 2.61379 L-1.47525, 2.61221 " /><path d="M-1.48926, 2.60425 L-1.49004, 2.6038 " /><path d="M-1.49084, 2.60334 L-1.49364, 2.60174 " /><path d="M-1.49364, 2.60174 L-1.49644, 2.60013 " /><path d="M-1.54055, 2.57424 L-1.54332, 2.57258 " /><path d="M-1.54687, 2.57045 L-1.55298, 2.56676 " /><path d="M-1.55376, 2.56628 L-1.55652, 2.56461 " /><path d="M-1.55653, 2.56461 L-1.55928, 2.56294 " /><path d="M-1.55929, 2.56293 L-1.60275, 2.53598 " /><path d="M-1.60275, 2.53598 L-1.60548, 2.53425 " /><path d="M-1.60548, 2.53425 L-1.6082, 2.53252 " /><path d="M-1.60899, 2.53203 L-1.61501, 2.52819 " /><path d="M-1.61748, 2.52661 L-1.62924, 2.51905 " /><path d="M-1.6426, 2.51035 L-1.64424, 2.50928 " /><path d="M-1.65293, 2.50356 L-1.65927, 2.49936 " /><path d="M-1.65929, 2.49935 L-1.70437, 2.46883 " /><path d="M-1.70437, 2.46883 L-1.71062, 2.4645 " /><path d="M-1.71063, 2.4645 L-1.75507, 2.43305 " /><path d="M-1.75509, 2.43304 L-1.76124, 2.42858 " /><path d="M-1.76516, 2.42574 L-1.76564, 2.42539 " /><path d="M-1.77399, 2.41929 L-1.77727, 2.41688 " /><path d="M-1.77774, 2.41653 L-1.78361, 2.41221 " /><path d="M-1.82536, 2.38077 L-1.83114, 2.37633 " /><path d="M-1.83115, 2.37632 L-1.87224, 2.34408 " /><path d="M-1.87226, 2.34407 L-1.87795, 2.33951 " /><path d="M-1.87841, 2.33914 L-1.88157, 2.3366 " /><path d="M-1.88695, 2.33225 L-1.90369, 2.31862 " /><path d="M-1.90504, 2.31751 L-1.90922, 2.31406 " /><path d="M-1.90923, 2.31405 L-1.94727, 2.28213 " /><path d="M-1.94728, 2.28213 L-1.95551, 2.27507 " /><path d="M-1.95552, 2.27507 L-1.99291, 2.24239 " /><path d="M-1.99292, 2.24238 L-1.99697, 2.23877 " /><path d="M-1.99702, 2.23873 L-1.99827, 2.23761 " /><path d="M-1.99827, 2.23761 L-2.01432, 2.22318 " /><path d="M-2.01432, 2.22317 L-2.01557, 2.22205 " /><path d="M-2.01944, 2.21853 L-2.02244, 2.21579 " /><path d="M-2.06645, 2.1748 L-2.07173, 2.16978 " /><path d="M-2.07174, 2.16977 L-2.1092, 2.13337 " /><path d="M-2.10921, 2.13336 L-2.11439, 2.12822 " /><path d="M-2.11441, 2.12821 L-2.11521, 2.12741 " /><path d="M-2.12177, 2.12087 L-2.12751, 2.11511 " /><path d="M-2.12832, 2.11429 L-2.13346, 2.10911 " /><path d="M-2.13347, 2.1091 L-2.16987, 2.07164 " /><path d="M-2.16987, 2.07163 L-2.1749, 2.06635 " /><path d="M-2.21057, 2.02815 L-2.21549, 2.02277 " /><path d="M-2.21589, 2.02234 L-2.21862, 2.01933 " /><path d="M-2.22327, 2.01421 L-2.23771, 1.99816 " /><path d="M-2.23887, 1.99686 L-2.24429, 1.99077 " /><path d="M-2.24429, 1.99076 Q-2.33533, 1.88813 -2.41662, 1.77762 " /><path d="M-2.42855, 1.76128 L-2.43292, 1.75525 " /><path d="M-2.43293, 1.75524 L-2.46375, 1.71171 " /><path d="M-2.46375, 1.7117 L-2.468, 1.70558 " /><path d="M-2.468, 1.70557 L-2.49793, 1.66143 " /><path d="M-2.49794, 1.66141 L-2.50206, 1.6552 " /><path d="M-2.50271, 1.65422 L-2.50727, 1.64729 " /><path d="M-2.50728, 1.64729 L-2.50791, 1.64632 " /><path d="M-2.50791, 1.64632 L-2.51246, 1.63938 " /><path d="M-2.5131, 1.63839 L-2.51716, 1.63215 " /><path d="M-2.51717, 1.63213 L-2.54579, 1.58713 " /><path d="M-2.54579, 1.58712 L-2.54972, 1.58079 " /><path d="M-2.54973, 1.58079 L-2.57743, 1.53521 " /><path d="M-2.57744, 1.53519 L-2.58124, 1.52879 " /><path d="M-2.58606, 1.52063 L-2.58635, 1.52013 " /><path d="M-2.58638, 1.52007 L-2.58812, 1.51711 " /><path d="M-2.61014, 1.47891 L-2.61183, 1.47593 " /><path d="M-2.61598, 1.46855 L-2.61899, 1.46317 " /><path d="M-2.619, 1.46315 L-2.64027, 1.42442 " /><path d="M-2.64028, 1.42441 L-2.6432, 1.41898 " /><path d="M-2.6432, 1.41897 L-2.66382, 1.37988 " /><path d="M-2.66383, 1.37987 L-2.66666, 1.37439 " /><path d="M-2.6671, 1.37352 L-2.67025, 1.3674 " /><path d="M-2.67025, 1.3674 L-2.67068, 1.36655 " /><path d="M-2.67068, 1.36655 L-2.67381, 1.36042 " /><path d="M-2.67381, 1.36042 L-2.67425, 1.35956 " /><path d="M-2.67425, 1.35955 L-2.67704, 1.35405 " /><path d="M-2.67705, 1.35403 L-2.6967, 1.31445 " /><path d="M-2.69671, 1.31445 L-2.69941, 1.3089 " /><path d="M-2.69941, 1.30889 L-2.7184, 1.26898 " /><path d="M-2.7184, 1.26897 L-2.72101, 1.26338 " /><path d="M-2.72456, 1.25569 L-2.72599, 1.25258 " /><path d="M-2.726, 1.25257 L-2.74411, 1.21238 " /><path d="M-2.74411, 1.21238 L-2.74549, 1.20924 " /><path d="M-2.74836, 1.20271 L-2.75057, 1.19765 " /><path d="M-2.75089, 1.19692 L-2.7537, 1.19044 " /><path d="M-2.77339, 1.14381 L-2.77607, 1.13728 " /><path d="M-2.77608, 1.13727 L-2.79486, 1.09031 " /><path d="M-2.79487, 1.09029 L-2.79742, 1.08371 " /><path d="M-2.79799, 1.08224 L-2.80196, 1.07193 " /><path d="M-2.80196, 1.07193 L-2.80251, 1.07049 " /><path d="M-2.80251, 1.07049 L-2.80643, 1.06017 " /><path d="M-2.80643, 1.06016 L-2.80698, 1.05872 " /><path d="M-2.80699, 1.05869 L-2.80947, 1.05208 " /><path d="M-2.80948, 1.05207 L-2.82681, 1.00455 " /><path d="M-2.82682, 1.00454 L-2.82917, 0.997882 " /><path d="M-2.82918, 0.997873 L-2.84784, 0.943286 " /><path d="M-2.84833, 0.941822 L-2.84833, 0.941818 " /><path d="M-2.85178, 0.931329 L-2.85178, 0.931327 " /><path d="M-2.85225, 0.929862 L-2.85226, 0.92986 " /><path d="M-2.85566, 0.919356 L-2.85566, 0.919352 " /><path d="M-2.85613, 0.917885 L-2.8912, 0.800594 " /><path d="M-2.90005, 0.767915 L-2.91259, 0.718915 " /><path d="M-2.91259, 0.718905 L-2.91427, 0.712047 " /><path d="M-2.91428, 0.712038 L-2.92587, 0.662805 " /><path d="M-2.92587, 0.662786 L-2.92742, 0.655897 " /><path d="M-2.9276, 0.655115 L-2.9288, 0.649727 " /><path d="M-2.93015, 0.64358 L-2.93032, 0.642827 " /><path d="M-2.93033, 0.642763 L-2.93107, 0.639413 " /><path d="M-2.93107, 0.639408 L-2.94015, 0.596273 " /><path d="M-2.94172, 0.588464 L-2.94239, 0.585092 " /><path d="M-2.94249, 0.584607 L-2.94368, 0.578555 " /><path d="M-2.94369, 0.578538 Q-2.97073, 0.440902 -2.98483, 0.301344 " /><path d="M-2.9857, 0.292577 L-2.9861, 0.288446 " /><path d="M-2.98616, 0.287852 L-2.98686, 0.28044 " /><path d="M-2.98687, 0.280419 L-2.99138, 0.22728 " /><path d="M-2.99138, 0.227269 L-2.99193, 0.219844 " /><path d="M-2.99537, 0.166593 L-2.99578, 0.159158 " /><path d="M-2.99584, 0.157982 L-2.99626, 0.149695 " /><path d="M-2.99677, 0.139069 L-2.99711, 0.131631 " /><path d="M-2.99711, 0.131611 L-3, 0.000580865 " /><path d="M-3, 0.000579269 L-3, 1.24471e-11 " /><path d="M3, -9.99201e-16 C3.0002, 0.387635 2.92413, 0.775226 2.77738, 1.13408 " /><path d="M2.7771, 1.13477 L2.77669, 1.13577 " /><path d="M2.77608, 1.13727 L2.77608, 1.13727 " /><path d="M2.77506, 1.13975 L2.77506, 1.13976 " /><path d="M2.7586, 1.17903 L2.7586, 1.17904 " /><path d="M2.75754, 1.1815 L2.75754, 1.18151 " /><path d="M2.75648, 1.18397 L2.75648, 1.18399 " /><path d="M2.75618, 1.18468 L2.75599, 1.18513 " /><path d="M2.75353, 1.19083 L2.75352, 1.19086 " /><path d="M2.75306, 1.19192 L2.75238, 1.19349 " /><path d="M2.74595, 1.2082 L2.74595, 1.20821 " /><path d="M2.74548, 1.20927 L2.74546, 1.20933 " /><path d="M2.74407, 1.21247 L2.74251, 1.21599 " /><path d="M2.72596, 1.25266 L2.72426, 1.25634 " /><path d="M2.72262, 1.25989 L2.72117, 1.26302 " /><path d="M2.72097, 1.26345 L2.71836, 1.26907 " /><path d="M2.69937, 1.30898 L2.6774, 1.35333 " /><path d="M2.64023, 1.4245 Q2.54757, 1.5962 2.43347, 1.75448 " /><path d="M2.43285, 1.75535 L2.43284, 1.75536 " /><path d="M2.42847, 1.7614 L2.42846, 1.76141 " /><path d="M2.42255, 1.76953 L2.42237, 1.76978 " /><path d="M2.41656, 1.77771 L2.41655, 1.77772 " /><path d="M2.41222, 1.78359 L2.41221, 1.78361 " /><path d="M2.38079, 1.82534 L2.38078, 1.82534 " /><path d="M2.37634, 1.83113 L2.37633, 1.83113 " /><path d="M2.34409, 1.87223 L2.34408, 1.87225 " /><path d="M2.33952, 1.87794 L2.33951, 1.87795 " /><path d="M2.33625, 1.88201 L2.33596, 1.88236 " /><path d="M2.33334, 1.88561 L2.33332, 1.88564 " /><path d="M2.33226, 1.88694 L2.31982, 1.90222 " /><path d="M2.31862, 1.90368 L2.31862, 1.90368 " /><path d="M2.31755, 1.90498 L2.31751, 1.90503 " /><path d="M2.31233, 1.91132 L2.31232, 1.91133 " /><path d="M2.15229, 2.08989 L2.11416, 2.12845 " /><path d="M2.09652, 2.14583 L2.09652, 2.14584 " /><path d="M2.09404, 2.14825 L2.09404, 2.14826 " /><path d="M1.90355, 2.31872 L1.88682, 2.33236 " /><path d="M1.88144, 2.3367 L1.87827, 2.33925 " /><path d="M1.87782, 2.33962 L1.87212, 2.34418 " /><path d="M1.82522, 2.38088 L1.82521, 2.38088 " /><path d="M1.78348, 2.4123 L1.78248, 2.41304 " /><path d="M1.77759, 2.41664 Q1.62894, 2.52597 1.46803, 2.61627 " /><path d="M1.46638, 2.6172 L1.4634, 2.61887 " /><path d="M1.46044, 2.62052 L1.46044, 2.62052 " /><path d="M1.19561, 2.75146 L1.18872, 2.75444 " /><path d="M1.1289, 2.77949 L1.12576, 2.78077 " /><path d="M1.10827, 2.78778 L1.10512, 2.78903 " /><path d="M1.05182, 2.80957 L1.05182, 2.80957 " /><path d="M1.04865, 2.81075 L1.04864, 2.81076 " /><path d="M1.04547, 2.81194 L1.04545, 2.81194 " /><path d="M1.04457, 2.81227 L1.04399, 2.81249 " /><path d="M1.03753, 2.81488 Q0.960044, 2.84344 0.881102, 2.86769 " /><path d="M0.829611, 2.88301 L0.829603, 2.88301 " /><path d="M0.826349, 2.88395 L0.824381, 2.88451 " /><path d="M0.823087, 2.88488 L0.823075, 2.88488 " /><path d="M0.822165, 2.88514 L0.815543, 2.88702 " /><path d="M0.814036, 2.88745 L0.814023, 2.88745 " /><path d="M0.810761, 2.88837 L0.810757, 2.88837 " /><path d="M0.807498, 2.88928 L0.80749, 2.88928 " /><path d="M0.752336, 2.90413 L0.749055, 2.90498 " /><path d="M0.732655, 2.90916 L0.731738, 2.90939 " /><path d="M0.405302, 2.9725 L0.330613, 2.98173 " /><path d="M0.0721698, 2.99913 Q-0.0402196, 3.00183 -0.152496, 2.99612 " /><path d="M-0.554085, 2.94839 L-0.557251, 2.94779 " /><path d="M-0.561334, 2.94702 L-0.561913, 2.94691 " /><path d="M-0.569232, 2.9455 L-0.635597, 2.9319 " /><path d="M-0.636549, 2.93169 L-0.643524, 2.93017 " /><path d="M-0.644429, 2.92997 L-0.647579, 2.92927 " /><path d="M-0.650736, 2.92857 L-0.70056, 2.91706 " /><path d="M-0.700567, 2.91705 L-0.7037, 2.9163 " /><path d="M-0.703704, 2.9163 L-0.706839, 2.91554 " /><path d="M-0.707728, 2.91533 L-0.714664, 2.91363 " /><path d="M-0.715552, 2.91341 L-0.718684, 2.91264 " /><path d="M-0.718688, 2.91264 L-0.721816, 2.91187 " /><path d="M-0.721823, 2.91187 L-0.771353, 2.89914 " /><path d="M-0.77136, 2.89914 L-0.774473, 2.89831 " /><path d="M-0.774477, 2.89831 L-0.777593, 2.89747 " /><path d="M-0.793142, 2.89326 L-0.794009, 2.89302 " /><path d="M-0.794903, 2.89277 L-0.798013, 2.89192 " /><path d="M-0.798017, 2.89191 L-0.801122, 2.89106 " /><path d="M-0.80113, 2.89105 L-0.850293, 2.87698 " /><path d="M-0.8503, 2.87698 L-0.85339, 2.87606 " /><path d="M-0.853394, 2.87606 L-0.856486, 2.87514 " /><path d="M-0.857362, 2.87488 L-0.864202, 2.87283 " /><path d="M-0.865077, 2.87257 L-0.868165, 2.87164 " /><path d="M-0.868169, 2.87163 L-0.871253, 2.8707 " /><path d="M-0.920074, 2.85543 L-0.92314, 2.85444 " /><path d="M-0.923144, 2.85444 L-0.926213, 2.85344 " /><path d="M-0.927094, 2.85316 L-0.933882, 2.85094 " /><path d="M-0.934808, 2.85064 L-0.938517, 2.84942 " /><path d="M-0.938527, 2.84942 L-0.965048, 2.84054 " /><path d="M-0.965053, 2.84054 L-0.968749, 2.83928 " /><path d="M-0.968754, 2.83928 L-0.995179, 2.83013 " /><path d="M-0.99519, 2.83012 L-0.998872, 2.82883 " /><path d="M-0.99979, 2.8285 L-1.00652, 2.82611 " /><path d="M-1.00739, 2.8258 L-1.01043, 2.82472 " /><path d="M-1.01043, 2.82472 L-1.01347, 2.82363 " /><path d="M-1.01347, 2.82363 L-1.15031, 2.7707 " /><path d="M-1.15031, 2.7707 L-1.15115, 2.77035 " /><path d="M-1.152, 2.77 L-1.15498, 2.76876 " /><path d="M-1.15498, 2.76876 L-1.15796, 2.76751 " /><path d="M-1.20497, 2.74737 L-1.20792, 2.74607 " /><path d="M-1.20793, 2.74607 L-1.21088, 2.74477 " /><path d="M-1.21172, 2.7444 L-1.21824, 2.74151 " /><path d="M-1.21908, 2.74114 L-1.22203, 2.73983 " /><path d="M-1.22203, 2.73983 L-1.22497, 2.73851 " /><path d="M-1.22498, 2.73851 L-1.27148, 2.71723 " /><path d="M-1.27149, 2.71723 L-1.2744, 2.71586 " /><path d="M-1.27441, 2.71586 L-1.27733, 2.71449 " /><path d="M-1.27817, 2.71409 L-1.28462, 2.71104 " /><path d="M-1.28904, 2.70894 L-1.31423, 2.69681 " /><path d="M-1.31424, 2.69681 L-1.31775, 2.6951 " /><path d="M-1.31775, 2.69509 L-1.34282, 2.68269 " /><path d="M-1.34283, 2.68269 L-1.34632, 2.68094 " /><path d="M-1.34719, 2.6805 L-1.35356, 2.67729 " /><path d="M-1.35439, 2.67687 L-1.35727, 2.67541 " /><path d="M-1.35727, 2.67541 L-1.36014, 2.67395 " /><path d="M-1.36015, 2.67395 L-1.40553, 2.65037 " /><path d="M-1.40554, 2.65037 L-1.40838, 2.64886 " /><path d="M-1.40839, 2.64886 L-1.41123, 2.64734 " /><path d="M-1.41204, 2.64691 L-1.41834, 2.64354 " /><path d="M-1.41914, 2.64311 L-1.42198, 2.64158 " /><path d="M-1.42199, 2.64158 L-1.42482, 2.64005 " /><path d="M-1.49084, 2.60334 L-1.49364, 2.60174 " /><path d="M-1.49364, 2.60174 L-1.49644, 2.60013 " /><path d="M-1.49644, 2.60013 L-1.54055, 2.57424 " /><path d="M-1.54055, 2.57424 L-1.54332, 2.57258 " /><path d="M-1.54332, 2.57258 L-1.54609, 2.57092 " /><path d="M-1.54687, 2.57045 L-1.55298, 2.56676 " /><path d="M-1.55377, 2.56628 L-1.55652, 2.56461 " /><path d="M-1.55653, 2.56461 L-1.55928, 2.56294 " /><path d="M-1.55929, 2.56293 L-1.60275, 2.53598 " /><path d="M-1.60275, 2.53598 L-1.60548, 2.53425 " /><path d="M-1.60548, 2.53425 L-1.6082, 2.53252 " /><path d="M-1.60899, 2.53203 L-1.61501, 2.52819 " /><path d="M-1.61583, 2.52767 L-1.61747, 2.52661 " /><path d="M-1.61748, 2.52661 L-1.62924, 2.51905 " /><path d="M-1.62924, 2.51904 L-1.63088, 2.51798 " /><path d="M-1.63088, 2.51798 L-1.6426, 2.51035 " /><path d="M-1.64889, 2.50623 L-1.65243, 2.50389 " /><path d="M-1.65293, 2.50356 L-1.65927, 2.49936 " /><path d="M-1.65929, 2.49935 L-1.70437, 2.46883 " /><path d="M-1.70437, 2.46883 L-1.71062, 2.4645 " /><path d="M-1.75509, 2.43304 L-1.76124, 2.42858 " /><path d="M-1.76174, 2.42823 L-1.76516, 2.42574 " /><path d="M-1.77399, 2.41929 L-1.77727, 2.41688 " /><path d="M-1.77774, 2.41654 L-1.78361, 2.41221 " /><path d="M-1.78362, 2.4122 L-1.82535, 2.38078 " /><path d="M-1.82536, 2.38077 L-1.83114, 2.37633 " /><path d="M-1.83115, 2.37632 L-1.87224, 2.34408 " /><path d="M-1.87226, 2.34407 L-1.87795, 2.33951 " /><path d="M-1.88201, 2.33624 L-1.88518, 2.33369 " /><path d="M-1.88564, 2.33331 L-1.88695, 2.33226 " /><path d="M-1.90369, 2.31862 L-1.90498, 2.31755 " /><path d="M-1.90503, 2.31751 L-1.90922, 2.31406 " /><path d="M-1.94728, 2.28213 L-1.95551, 2.27508 " /><path d="M-1.95552, 2.27507 L-1.99291, 2.24239 " /><path d="M-1.99292, 2.24238 L-1.99697, 2.23878 " /><path d="M-1.99827, 2.23761 L-2.01432, 2.22318 " /><path d="M-2.01944, 2.21853 L-2.02244, 2.21579 " /><path d="M-2.02287, 2.2154 L-2.02825, 2.21047 " /><path d="M-2.02827, 2.21046 L-2.06644, 2.17481 " /><path d="M-2.06645, 2.17481 L-2.07173, 2.16978 " /><path d="M-2.10921, 2.13336 L-2.11439, 2.12823 " /><path d="M-2.11521, 2.12741 L-2.12097, 2.12167 " /><path d="M-2.12832, 2.1143 L-2.13345, 2.10912 " /><path d="M-2.13347, 2.1091 L-2.16986, 2.07164 " /><path d="M-2.16987, 2.07163 L-2.1749, 2.06635 " /><path d="M-2.17491, 2.06634 L-2.21055, 2.02816 " /><path d="M-2.21057, 2.02815 L-2.21549, 2.02277 " /><path d="M-2.21588, 2.02234 L-2.21862, 2.01933 " /><path d="M-2.22327, 2.01422 L-2.23771, 1.99817 " /><path d="M-2.23771, 1.99816 L-2.23883, 1.99691 " /><path d="M-2.23887, 1.99686 L-2.24428, 1.99078 " /><path d="M-2.24429, 1.99077 Q-2.36229, 1.85773 -2.46375, 1.71171 " /><path d="M-2.46375, 1.7117 L-2.468, 1.70558 " /><path d="M-2.468, 1.70557 L-2.49793, 1.66143 " /><path d="M-2.49794, 1.66141 L-2.50206, 1.6552 " /><path d="M-2.50271, 1.65422 L-2.50727, 1.64729 " /><path d="M-2.51246, 1.63938 L-2.51309, 1.63841 " /><path d="M-2.5131, 1.63839 L-2.51716, 1.63215 " /><path d="M-2.51717, 1.63213 L-2.54579, 1.58713 " /><path d="M-2.54579, 1.58712 L-2.54972, 1.58079 " /><path d="M-2.54973, 1.58079 L-2.57743, 1.53521 " /><path d="M-2.57744, 1.53519 L-2.58124, 1.52879 " /><path d="M-2.58395, 1.5242 L-2.58606, 1.52063 " /><path d="M-2.58638, 1.52007 L-2.58812, 1.51711 " /><path d="M-2.58812, 1.51711 L-2.61013, 1.47892 " /><path d="M-2.61405, 1.47198 L-2.61574, 1.46898 " /><path d="M-2.61598, 1.46855 L-2.61899, 1.46317 " /><path d="M-2.619, 1.46315 L-2.64027, 1.42442 " /><path d="M-2.66383, 1.37987 L-2.66666, 1.37439 " /><path d="M-2.6671, 1.37352 L-2.67025, 1.3674 " /><path d="M-2.67425, 1.35955 L-2.67704, 1.35405 " /><path d="M-2.67705, 1.35403 L-2.6967, 1.31445 " /><path d="M-2.69671, 1.31445 L-2.69941, 1.3089 " /><path d="M-2.69941, 1.30889 L-2.7184, 1.26898 " /><path d="M-2.7184, 1.26897 L-2.72101, 1.26338 " /><path d="M-2.72122, 1.26293 L-2.72266, 1.25981 " /><path d="M-2.726, 1.25257 L-2.74411, 1.21238 " /><path d="M-2.74552, 1.20918 L-2.74583, 1.20847 " /><path d="M-2.74836, 1.20271 L-2.75057, 1.19765 " /><path d="M-2.75089, 1.19692 L-2.7537, 1.19044 " /><path d="M-2.75371, 1.19042 L-2.77339, 1.14382 " /><path d="M-2.77339, 1.14381 L-2.77607, 1.13728 " /><path d="M-2.77608, 1.13727 L-2.79486, 1.09031 " /><path d="M-2.79487, 1.09029 L-2.79742, 1.08371 " /><path d="M-2.80251, 1.07049 L-2.80643, 1.06017 " /><path d="M-2.80699, 1.05869 L-2.80947, 1.05208 " /><path d="M-2.80948, 1.05207 L-2.82681, 1.00455 " /><path d="M-2.84561, 0.950014 L-2.84783, 0.943313 " /><path d="M-2.84833, 0.941818 L-2.85178, 0.931329 " /><path d="M-2.85614, 0.917858 L-2.8912, 0.800594 " /><path d="M-2.90005, 0.767915 L-2.91259, 0.718914 " /><path d="M-2.91259, 0.718905 L-2.91427, 0.712047 " /><path d="M-2.91428, 0.712038 L-2.92587, 0.662805 " /><path d="M-2.92587, 0.662786 L-2.92742, 0.655897 " /><path d="M-2.9276, 0.655115 L-2.9288, 0.649727 " /><path d="M-2.93015, 0.64358 L-2.93032, 0.642827 " /><path d="M-2.93033, 0.642763 L-2.93107, 0.639413 " /><path d="M-2.93107, 0.639408 L-2.94015, 0.596273 " /><path d="M-2.94172, 0.588464 L-2.94239, 0.585092 " /><path d="M-2.94249, 0.584607 L-2.94368, 0.578555 " /><path d="M-2.94369, 0.578538 Q-2.97073, 0.440902 -2.98483, 0.301344 " /><path d="M-2.9857, 0.292577 L-2.9861, 0.288446 " /><path d="M-2.98616, 0.287852 L-2.98686, 0.28044 " /><path d="M-2.98687, 0.280419 L-2.99138, 0.22728 " /><path d="M-2.99138, 0.227269 L-2.99193, 0.219844 " /><path d="M-2.99537, 0.166593 L-2.99578, 0.159158 " /><path d="M-2.99584, 0.157982 L-2.99626, 0.149695 " /><path d="M-2.99677, 0.139069 L-2.99711, 0.131631 " /><path d="M-2.99711, 0.131611 L-3, 0.000580865 " /><path d="M-3, 0.000579269 L-3, 1.05652e-11 " /><path d="M3, -8.88178e-16 C3.00021, 0.389682 2.92332, 0.779316 2.77506, 1.13976 " /><path d="M2.7586, 1.17903 L2.7586, 1.17904 " /><path d="M2.75754, 1.1815 L2.75754, 1.18151 " /><path d="M2.75648, 1.18397 L2.75648, 1.18399 " /><path d="M2.75618, 1.18468 L2.75599, 1.18513 " /><path d="M2.75353, 1.19083 L2.75352, 1.19086 " /><path d="M2.75306, 1.19192 L2.75238, 1.19349 " /><path d="M2.74595, 1.2082 L2.74595, 1.20821 " /><path d="M2.74548, 1.20927 L2.72447, 1.2559 " /><path d="M2.72097, 1.26345 L2.71836, 1.26907 " /><path d="M2.69937, 1.30898 L2.6742, 1.35965 " /><path d="M2.67377, 1.36051 L2.67376, 1.36051 " /><path d="M2.64023, 1.4245 Q2.54757, 1.5962 2.43347, 1.75448 " /><path d="M2.43285, 1.75535 L2.42946, 1.76004 " /><path d="M2.42847, 1.7614 L2.42846, 1.76141 " /><path d="M2.42255, 1.76953 L2.42237, 1.76977 " /><path d="M2.15229, 2.08989 L2.11458, 2.12804 " /><path d="M2.07623, 2.16548 L2.07373, 2.16787 " /><path d="M2.06423, 2.17691 L2.06172, 2.17929 " /><path d="M1.90356, 2.31872 L1.88682, 2.33236 " /><path d="M1.88144, 2.3367 L1.87827, 2.33925 " /><path d="M1.87782, 2.33962 L1.87212, 2.34417 " /><path d="M1.87211, 2.34419 L1.83101, 2.37643 " /><path d="M1.82521, 2.38088 L1.78348, 2.4123 " /><path d="M1.78346, 2.41231 L1.77759, 2.41664 " /><path d="M1.77712, 2.41699 L1.77385, 2.41939 " /><path d="M1.765, 2.42585 Q1.59677, 2.54823 1.41328, 2.64625 " /><path d="M1.40644, 2.64989 L1.39981, 2.6534 " /><path d="M1.39896, 2.65385 L1.39597, 2.65542 " /><path d="M1.34515, 2.68152 L1.34213, 2.68304 " /><path d="M1.33822, 2.68499 L1.3315, 2.68833 " /><path d="M1.3269, 2.6906 L1.30049, 2.70347 " /><path d="M1.30048, 2.70347 L1.29679, 2.70524 " /><path d="M1.29678, 2.70525 L1.27023, 2.71781 " /><path d="M1.27022, 2.71782 L1.2665, 2.71955 " /><path d="M1.26557, 2.71999 L1.25877, 2.72314 " /><path d="M1.25789, 2.72355 L1.25481, 2.72497 " /><path d="M1.25481, 2.72497 L1.25173, 2.72638 " /><path d="M1.25172, 2.72639 L1.20271, 2.74836 " /><path d="M1.19959, 2.74972 L1.19649, 2.75108 " /><path d="M1.19561, 2.75146 L1.18872, 2.75444 " /><path d="M1.1289, 2.77949 L1.12576, 2.78077 " /><path d="M1.11005, 2.78707 L1.10917, 2.78742 " /><path d="M1.04456, 2.81227 L1.03753, 2.81488 " /><path d="M1.03663, 2.81521 L1.03345, 2.81638 " /><path d="M0.979643, 2.83554 Q0.868956, 2.87378 0.755623, 2.90328 " /><path d="M0.752335, 2.90413 L0.749053, 2.90498 " /><path d="M0.732654, 2.90916 L0.731737, 2.90939 " /><path d="M0.668652, 2.92454 L0.665347, 2.92529 " /><path d="M0.656158, 2.92736 L0.65285, 2.9281 " /><path d="M0.589379, 2.94154 L0.582023, 2.943 " /><path d="M0.488314, 2.95999 L0.436405, 2.96809 " /><path d="M0.436392, 2.96809 L0.360736, 2.97823 " /><path d="M0.14179, 2.99665 L0.134199, 2.997 " /><path d="M0.0797673, 2.99894 L0.0721698, 2.99913 " /><path d="M0.0721593, 2.99913 Q-0.0661752, 3.00246 -0.204229, 2.99304 " /><path d="M-0.503008, 2.95753 L-0.5104, 2.95626 " /><path d="M-0.511408, 2.95609 L-0.517244, 2.95507 " /><path d="M-0.533391, 2.9522 L-0.533395, 2.9522 " /><path d="M-0.53743, 2.95147 L-0.537437, 2.95147 " /><path d="M-0.555345, 2.94815 L-0.559386, 2.94739 " /><path d="M-0.581303, 2.94314 L-0.581713, 2.94306 " /><path d="M-0.582857, 2.94283 L-0.583017, 2.9428 " /><path d="M-0.629487, 2.93321 L-0.630961, 2.9329 " /><path d="M-0.633878, 2.93227 L-0.636066, 2.93179 " /><path d="M-0.685939, 2.92053 L-0.688118, 2.92002 " /><path d="M-0.691023, 2.91933 L-0.695434, 2.91828 " /><path d="M-0.695443, 2.91828 L-0.735786, 2.90837 " /><path d="M-0.735795, 2.90837 L-0.744583, 2.90613 " /><path d="M-0.744592, 2.90613 L-0.784763, 2.89554 " /><path d="M-0.784772, 2.89554 L-0.789147, 2.89435 " /><path d="M-0.789395, 2.89428 L-0.791555, 2.89369 " /><path d="M-0.794427, 2.8929 L-0.796613, 2.8923 " /><path d="M-0.796617, 2.8923 L-0.816624, 2.88672 " /><path d="M-0.816628, 2.88671 L-0.82099, 2.88548 " /><path d="M-0.820995, 2.88548 L-0.840953, 2.87972 " /><path d="M-0.840958, 2.87972 L-0.843134, 2.87908 " /><path d="M-0.845991, 2.87825 L-0.848139, 2.87761 " /><path d="M-0.848386, 2.87754 L-0.85056, 2.8769 " /><path d="M-0.850564, 2.8769 L-0.870463, 2.87094 " /><path d="M-0.870468, 2.87094 L-0.874806, 2.86962 " /><path d="M-0.87481, 2.86962 L-0.894658, 2.86349 " /><path d="M-0.894662, 2.86349 L-0.896826, 2.86281 " /><path d="M-0.896899, 2.86279 L-0.900811, 2.86156 " /><path d="M-0.900822, 2.86156 L-0.928799, 2.8526 " /><path d="M-0.960594, 2.84205 L-0.964479, 2.84074 " /><path d="M-0.965448, 2.84041 L-0.972545, 2.83798 " /><path d="M-0.973466, 2.83767 L-0.976671, 2.83657 " /><path d="M-0.976675, 2.83657 L-0.979874, 2.83546 " /><path d="M-0.979882, 2.83546 Q-1.08226, 2.80008 -1.18183, 2.7574 " /><path d="M-1.18184, 2.7574 L-1.18495, 2.75607 " /><path d="M-1.18495, 2.75606 L-1.18806, 2.75472 " /><path d="M-1.18894, 2.75434 L-1.19583, 2.75136 " /><path d="M-1.19671, 2.75098 L-1.19981, 2.74963 " /><path d="M-1.19982, 2.74963 L-1.20292, 2.74827 " /><path d="M-1.25195, 2.72629 L-1.25502, 2.72487 " /><path d="M-1.25502, 2.72487 L-1.2581, 2.72345 " /><path d="M-1.25899, 2.72304 L-1.26579, 2.71989 " /><path d="M-1.27044, 2.71772 L-1.29699, 2.70515 " /><path d="M-1.297, 2.70514 L-1.30069, 2.70337 " /><path d="M-1.3007, 2.70336 L-1.32711, 2.6905 " /><path d="M-1.32712, 2.69049 L-1.33079, 2.68868 " /><path d="M-1.33171, 2.68822 L-1.33843, 2.68489 " /><path d="M-1.3393, 2.68445 L-1.34233, 2.68294 " /><path d="M-1.34233, 2.68294 L-1.34536, 2.68142 " /><path d="M-1.34537, 2.68142 L-1.39316, 2.6569 " /><path d="M-1.39317, 2.65689 L-1.39616, 2.65532 " /><path d="M-1.39617, 2.65532 L-1.39917, 2.65374 " /><path d="M-1.39918, 2.65373 L-1.40001, 2.65329 " /><path d="M-1.40002, 2.65329 L-1.40664, 2.64978 " /><path d="M-1.40749, 2.64933 L-1.41048, 2.64774 " /><path d="M-1.41049, 2.64774 L-1.41347, 2.64615 " /><path d="M-1.41348, 2.64614 L-1.46063, 2.62041 " /><path d="M-1.46064, 2.62041 L-1.46359, 2.61876 " /><path d="M-1.4636, 2.61876 L-1.46656, 2.6171 " /><path d="M-1.48129, 2.60879 L-1.48212, 2.60832 " /><path d="M-1.48296, 2.60784 L-1.48591, 2.60616 " /><path d="M-1.48591, 2.60616 L-1.48885, 2.60448 " /><path d="M-1.48886, 2.60448 L-1.53525, 2.5774 " /><path d="M-1.53526, 2.5774 L-1.53816, 2.57567 " /><path d="M-1.53817, 2.57566 L-1.54108, 2.57392 " /><path d="M-1.55496, 2.56556 L-1.60064, 2.53731 " /><path d="M-1.60065, 2.53731 L-1.60351, 2.5355 " /><path d="M-1.60352, 2.5355 L-1.60638, 2.53368 " /><path d="M-1.6072, 2.53316 L-1.61353, 2.52914 " /><path d="M-1.61612, 2.52748 L-1.62848, 2.51954 " /><path d="M-1.62848, 2.51953 L-1.6302, 2.51842 " /><path d="M-1.6302, 2.51842 L-1.64252, 2.51041 " /><path d="M-1.64252, 2.5104 L-1.64424, 2.50928 " /><path d="M-1.65293, 2.50356 L-1.65927, 2.49936 " /><path d="M-1.65929, 2.49935 L-1.70437, 2.46883 " /><path d="M-1.70437, 2.46883 L-1.71062, 2.4645 " /><path d="M-1.71063, 2.4645 L-1.75507, 2.43305 " /><path d="M-1.75509, 2.43304 L-1.76124, 2.42858 " /><path d="M-1.76174, 2.42823 L-1.76516, 2.42574 " /><path d="M-1.77399, 2.41929 L-1.77727, 2.41688 " /><path d="M-1.77774, 2.41653 L-1.78361, 2.41221 " /><path d="M-1.78363, 2.41219 L-1.82535, 2.38078 " /><path d="M-1.87226, 2.34407 L-1.87795, 2.33951 " /><path d="M-1.87841, 2.33914 L-1.88157, 2.3366 " /><path d="M-1.88695, 2.33225 L-1.90369, 2.31862 " /><path d="M-1.90503, 2.31751 L-1.90922, 2.31406 " /><path d="M-1.90923, 2.31405 L-1.94727, 2.28213 " /><path d="M-1.94728, 2.28213 L-1.95551, 2.27507 " /><path d="M-1.95552, 2.27507 L-1.99291, 2.24239 " /><path d="M-1.99827, 2.23761 L-2.01432, 2.22318 " /><path d="M-2.01432, 2.22317 L-2.01557, 2.22205 " /><path d="M-2.01559, 2.22202 L-2.01601, 2.22164 " /><path d="M-2.01601, 2.22164 L-2.02244, 2.21579 " /><path d="M-2.02288, 2.2154 L-2.02825, 2.21047 " /><path d="M-2.02827, 2.21046 L-2.06644, 2.17481 " /><path d="M-2.06645, 2.17481 L-2.07173, 2.16978 " /><path d="M-2.07174, 2.16977 L-2.1092, 2.13337 " /><path d="M-2.10921, 2.13336 L-2.11439, 2.12822 " /><path d="M-2.11441, 2.12821 L-2.11521, 2.12741 " /><path d="M-2.12177, 2.12087 L-2.12751, 2.11511 " /><path d="M-2.12832, 2.11429 L-2.13346, 2.10911 " /><path d="M-2.16987, 2.07163 L-2.1749, 2.06635 " /><path d="M-2.17491, 2.06634 L-2.21056, 2.02816 " /><path d="M-2.21057, 2.02815 L-2.21549, 2.02277 " /><path d="M-2.21589, 2.02234 L-2.21862, 2.01933 " /><path d="M-2.22327, 2.01421 L-2.23771, 1.99816 " /><path d="M-2.23771, 1.99816 L-2.23883, 1.99691 " /><path d="M-2.23887, 1.99686 L-2.24429, 1.99077 " /><path d="M-2.24429, 1.99076 Q-2.33842, 1.88465 -2.42211, 1.77013 " /><path d="M-2.42855, 1.76128 L-2.43292, 1.75525 " /><path d="M-2.43293, 1.75524 L-2.46375, 1.71171 " /><path d="M-2.46375, 1.7117 L-2.468, 1.70558 " /><path d="M-2.468, 1.70557 L-2.49793, 1.66143 " /><path d="M-2.49794, 1.66141 L-2.50206, 1.6552 " /><path d="M-2.50207, 1.65519 L-2.50271, 1.65423 " /><path d="M-2.50271, 1.65422 L-2.50727, 1.64729 " /><path d="M-2.50728, 1.64729 L-2.50791, 1.64632 " /><path d="M-2.50791, 1.64632 L-2.51246, 1.63938 " /><path d="M-2.5131, 1.63839 L-2.51716, 1.63215 " /><path d="M-2.51717, 1.63213 L-2.54579, 1.58713 " /><path d="M-2.54579, 1.58712 L-2.54972, 1.58079 " /><path d="M-2.61014, 1.47891 L-2.61183, 1.47593 " /><path d="M-2.61598, 1.46855 L-2.61899, 1.46317 " /><path d="M-2.619, 1.46315 L-2.64027, 1.42442 " /><path d="M-2.64028, 1.42441 L-2.6432, 1.41898 " /><path d="M-2.6432, 1.41897 L-2.66382, 1.37988 " /><path d="M-2.66383, 1.37987 L-2.66666, 1.37439 " /><path d="M-2.66666, 1.37437 L-2.6671, 1.37352 " /><path d="M-2.6671, 1.37352 L-2.67025, 1.3674 " /><path d="M-2.67025, 1.3674 L-2.67068, 1.36655 " /><path d="M-2.67068, 1.36655 L-2.67381, 1.36042 " /><path d="M-2.67425, 1.35955 L-2.67704, 1.35405 " /><path d="M-2.67705, 1.35403 L-2.6967, 1.31445 " /><path d="M-2.69671, 1.31445 L-2.69941, 1.3089 " /><path d="M-2.69941, 1.30889 L-2.7184, 1.26898 " /><path d="M-2.7184, 1.26897 L-2.72101, 1.26338 " /><path d="M-2.72456, 1.25569 L-2.72599, 1.25258 " /><path d="M-2.75371, 1.19042 L-2.77339, 1.14382 " /><path d="M-2.77339, 1.14381 L-2.77607, 1.13728 " /><path d="M-2.77608, 1.13727 L-2.79486, 1.09031 " /><path d="M-2.79487, 1.09029 L-2.79742, 1.08371 " /><path d="M-2.79799, 1.08224 L-2.80196, 1.07193 " /><path d="M-2.80196, 1.07193 L-2.80251, 1.07049 " /><path d="M-2.80251, 1.07049 L-2.80643, 1.06017 " /><path d="M-2.80699, 1.05869 L-2.80947, 1.05208 " /><path d="M-2.80948, 1.05207 L-2.82681, 1.00455 " /><path d="M-2.82682, 1.00454 L-2.82917, 0.997882 " /><path d="M-2.82918, 0.997873 L-2.8456, 0.950032 " /><path d="M-2.84561, 0.950014 L-2.84783, 0.943313 " /><path d="M-2.84784, 0.943286 L-2.84833, 0.941822 " /><path d="M-2.85566, 0.919352 L-2.85613, 0.917885 " /><path d="M-2.85614, 0.917858 L-2.8912, 0.800594 " /><path d="M-2.90005, 0.767915 L-2.91259, 0.718915 " /><path d="M-2.91259, 0.718905 L-2.91427, 0.712047 " /><path d="M-2.91428, 0.712038 L-2.92587, 0.662805 " /><path d="M-2.92587, 0.662786 L-2.92742, 0.655897 " /><path d="M-2.9276, 0.655115 L-2.9288, 0.649727 " /><path d="M-2.93015, 0.64358 L-2.93032, 0.642827 " /><path d="M-2.93033, 0.642763 L-2.93107, 0.639413 " /><path d="M-2.93107, 0.639408 L-2.94015, 0.596273 " /><path d="M-2.94172, 0.588464 L-2.94239, 0.585092 " /><path d="M-2.94249, 0.584607 L-2.94368, 0.578555 " /><path d="M-2.94369, 0.578538 Q-2.97073, 0.440902 -2.98483, 0.301344 " /><path d="M-2.9857, 0.292577 L-2.9861, 0.288446 " /><path d="M-2.98616, 0.287852 L-2.98686, 0.28044 " /><path d="M-2.98687, 0.280419 L-2.99138, 0.22728 " /><path d="M-2.99138, 0.227269 L-2.99193, 0.219844 " /><path d="M-2.99537, 0.166593 L-2.99578, 0.159158 " /><path d="M-2.99584, 0.157982 L-2.99626, 0.149695 " /><path d="M-2.99677, 0.139069 L-2.99711, 0.131631 " /><path d="M-2.99711, 0.131611 L-3, 0.000580865 " /><path d="M3, -5.55112e-16 C3.0002, 0.38763 2.92413, 0.77523 2.77738, 1.13408 " /><path d="M2.69666, 1.31454 L2.6774, 1.35333 " /><path d="M2.677, 1.35412 L2.67653, 1.35505 " /><path d="M2.67421, 1.35964 L2.6742, 1.35965 " /><path d="M2.41689, 1.77725 Q2.32241, 1.90573 2.21485, 2.02347 " /><path d="M2.16777, 2.07383 L2.16748, 2.07414 " /><path d="M2.14156, 2.10088 L2.09404, 2.14825 " /><path d="M2.07373, 2.16787 L2.07372, 2.16788 " /><path d="M1.9939, 2.24151 L1.9939, 2.24151 " /><path d="M1.96652, 2.26557 L1.96651, 2.26557 " /><path d="M1.96497, 2.26691 L1.96497, 2.26691 " /><path d="M1.96343, 2.26825 L1.96342, 2.26826 " /><path d="M1.96299, 2.26863 L1.9627, 2.26887 " /><path d="M1.95913, 2.27196 L1.95912, 2.27197 " /><path d="M1.95778, 2.27312 L1.95747, 2.2734 " /><path d="M1.9482, 2.28134 L1.9482, 2.28134 " /><path d="M1.78347, 2.41231 L1.78243, 2.41308 " /><path d="M1.78197, 2.41342 L1.78195, 2.41343 " /><path d="M1.78124, 2.41395 L1.77758, 2.41665 " /><path d="M1.77712, 2.41699 L1.77616, 2.4177 " /><path d="M1.76964, 2.42247 L1.76938, 2.42266 " /><path d="M1.76109, 2.42869 Q1.58665, 2.55516 1.39596, 2.65543 " /><path d="M1.39296, 2.657 L1.39296, 2.657 " /><path d="M1.34516, 2.68152 L1.34515, 2.68152 " /><path d="M1.34213, 2.68304 L1.34212, 2.68304 " /><path d="M1.33909, 2.68455 L1.33907, 2.68457 " /><path d="M1.20271, 2.74836 L1.2027, 2.74837 " /><path d="M1.1996, 2.74972 L1.19648, 2.75108 " /><path d="M1.19561, 2.75146 L1.18872, 2.75444 " /><path d="M1.18785, 2.75481 L1.18784, 2.75482 " /><path d="M1.18473, 2.75616 L1.18473, 2.75616 " /><path d="M1.18161, 2.7575 L1.18161, 2.7575 " /><path d="M1.13204, 2.77821 L1.13204, 2.77822 " /><path d="M1.1289, 2.77949 L1.12573, 2.78078 " /><path d="M1.11005, 2.78707 L1.10917, 2.78742 " /><path d="M1.10829, 2.78777 L1.10827, 2.78778 " /><path d="M1.10512, 2.78903 L1.10512, 2.78904 " /><path d="M1.10197, 2.79028 L1.10196, 2.79028 " /><path d="M1.05182, 2.80957 L1.05182, 2.80957 " /><path d="M1.04864, 2.81076 L1.04864, 2.81076 " /><path d="M1.04546, 2.81194 L1.04545, 2.81194 " /><path d="M1.03664, 2.8152 L1.03663, 2.81521 " /><path d="M1.03345, 2.81638 L1.03345, 2.81638 " /><path d="M1.03027, 2.81754 L1.03026, 2.81755 " /><path d="M0.888514, 2.8654 Q0.770333, 2.90205 0.649536, 2.92884 " /><path d="M0.596984, 2.94 L0.596978, 2.94 " /><path d="M0.590332, 2.94134 L0.590309, 2.94135 " /><path d="M0.589379, 2.94154 L0.588773, 2.94166 " /><path d="M0.581092, 2.94318 L0.581018, 2.9432 " /><path d="M0.576993, 2.94399 L0.575205, 2.94434 " /><path d="M0.515164, 2.95544 L0.515154, 2.95544 " /><path d="M0.511112, 2.95614 L0.51104, 2.95615 " /><path d="M0.50811, 2.95666 L0.507318, 2.95679 " /><path d="M0.505662, 2.95708 L0.505661, 2.95708 " /><path d="M0.500285, 2.95799 L0.500279, 2.95799 " /><path d="M0.358273, 2.97853 L0.327838, 2.98203 " /><path d="M0.274739, 2.98739 L0.273763, 2.98748 " /><path d="M0.263125, 2.98844 L0.263115, 2.98844 " /><path d="M0.209912, 2.99265 L0.208932, 2.99272 " /><path d="M0.204089, 2.99305 L0.204078, 2.99305 " /><path d="M0.198643, 2.99342 L0.198637, 2.99342 " /><path d="M0.192948, 2.99379 L0.192831, 2.9938 " /><path d="M0.187749, 2.99412 L0.187677, 2.99412 " /><path d="M0.185627, 2.99425 L0.185624, 2.99425 " /><path d="M0.16891, 2.99524 L0.164874, 2.99547 " /><path d="M0.0797778, 2.99894 L0.0797673, 2.99894 " /><path d="M0.0721698, 2.99913 L0.0721593, 2.99913 " /><path d="M-0.0713802, 2.99915 Q-0.166441, 2.99689 -0.261169, 2.98861 " /><path d="M-0.264544, 2.98831 L-0.264557, 2.98831 " /><path d="M-0.2655, 2.98823 L-0.272971, 2.98756 " /><path d="M-0.273913, 2.98747 L-0.277303, 2.98716 " /><path d="M-0.700559, 2.91706 L-0.700567, 2.91705 " /><path d="M-0.703699, 2.9163 L-0.703703, 2.9163 " /><path d="M-0.706839, 2.91554 L-0.706851, 2.91554 " /><path d="M-0.707726, 2.91533 L-0.714664, 2.91363 " /><path d="M-0.715539, 2.91342 L-0.718687, 2.91264 " /><path d="M-0.721815, 2.91187 L-0.721823, 2.91187 " /><path d="M-0.771352, 2.89914 L-0.774477, 2.89831 " /><path d="M-0.777593, 2.89747 L-0.777617, 2.89747 " /><path d="M-0.778487, 2.89723 L-0.779359, 2.897 " /><path d="M-0.794878, 2.89278 L-0.824424, 2.8845 " /><path d="M-0.896827, 2.86281 L-0.896899, 2.86279 " /><path d="M-0.900812, 2.86156 L-0.900823, 2.86156 " /><path d="M-0.9288, 2.8526 L-0.928805, 2.8526 " /><path d="M-0.932704, 2.85133 L-0.932708, 2.85133 " /><path d="M-0.960584, 2.84206 L-0.960594, 2.84205 " /><path d="M-0.96448, 2.84074 L-0.96455, 2.84071 " /><path d="M-1.03049, 2.81746 L-1.0305, 2.81746 " /><path d="M-1.03368, 2.81629 L-1.03368, 2.81629 " /><path d="M-1.03686, 2.81512 L-1.03687, 2.81512 " /><path d="M-1.03776, 2.81479 L-1.0448, 2.81219 " /><path d="M-1.04569, 2.81186 L-1.18184, 2.7574 " /><path d="M-1.18495, 2.75607 L-1.18495, 2.75606 " /><path d="M-1.18806, 2.75472 L-1.18807, 2.75472 " /><path d="M-1.19669, 2.75099 L-1.19671, 2.75098 " /><path d="M-1.19981, 2.74963 L-1.19982, 2.74963 " /><path d="M-1.20292, 2.74827 L-1.20293, 2.74827 " /><path d="M-1.25194, 2.72629 L-1.25502, 2.72487 " /><path d="M-1.2581, 2.72345 L-1.25813, 2.72344 " /><path d="M-1.26665, 2.71949 L-1.26672, 2.71945 " /><path d="M-1.27043, 2.71772 L-1.27735, 2.71448 " /><path d="M-1.27816, 2.71409 L-1.28462, 2.71104 " /><path d="M-1.28544, 2.71066 L-1.28904, 2.70894 " /><path d="M-1.32711, 2.6905 L-1.32712, 2.69049 " /><path d="M-1.33079, 2.68868 L-1.33086, 2.68864 " /><path d="M-1.33928, 2.68446 L-1.34638, 2.68091 " /><path d="M-1.34719, 2.6805 L-1.35356, 2.67729 " /><path d="M-1.35437, 2.67688 L-1.39918, 2.65373 " /><path d="M-1.40002, 2.65329 L-1.40665, 2.64978 " /><path d="M-1.40748, 2.64934 L-1.40749, 2.64933 " /><path d="M-1.41048, 2.64774 L-1.41049, 2.64774 " /><path d="M-1.41347, 2.64615 L-1.41348, 2.64614 " /><path d="M-1.46063, 2.62041 L-1.46064, 2.62041 " /><path d="M-1.4636, 2.61876 L-1.4636, 2.61876 " /><path d="M-1.46656, 2.6171 L-1.46658, 2.61709 " /><path d="M-1.53525, 2.5774 L-1.53526, 2.5774 " /><path d="M-1.53816, 2.57567 L-1.53817, 2.57566 " /><path d="M-1.54108, 2.57392 L-1.54109, 2.57392 " /><path d="M-1.54914, 2.56908 L-1.54915, 2.56907 " /><path d="M-1.55205, 2.56732 L-1.55205, 2.56732 " /><path d="M-1.55495, 2.56557 L-1.55496, 2.56556 " /><path d="M-1.60064, 2.53731 L-1.6064, 2.53367 " /><path d="M-1.6072, 2.53316 L-1.60822, 2.53251 " /><path d="M-1.60898, 2.53203 L-1.61353, 2.52914 " /><path d="M-1.61433, 2.52863 L-1.61439, 2.52859 " /><path d="M-1.64424, 2.50928 L-1.64436, 2.5092 " /><path d="M-1.65292, 2.50357 L-1.65929, 2.49935 " /><path d="M-1.70437, 2.46883 L-1.70437, 2.46883 " /><path d="M-1.71062, 2.4645 L-1.71063, 2.4645 " /><path d="M-1.75507, 2.43305 L-1.75509, 2.43304 " /><path d="M-1.76124, 2.42858 L-1.76126, 2.42857 " /><path d="M-1.76954, 2.42254 L-1.7698, 2.42236 " /><path d="M-1.77773, 2.41654 L-1.77774, 2.41653 " /><path d="M-1.78361, 2.4122 L-1.78363, 2.41219 " /><path d="M-1.82535, 2.38077 L-1.83115, 2.37632 " /><path d="M-1.87224, 2.34408 L-1.87796, 2.3395 " /><path d="M-1.88563, 2.33333 L-1.88565, 2.33331 " /><path d="M-1.88696, 2.33225 L-1.90369, 2.31861 " /><path d="M-1.90499, 2.31755 L-1.90504, 2.3175 " /><path d="M-1.99291, 2.24239 L-1.99292, 2.24238 " /><path d="M-1.99702, 2.23873 L-1.99813, 2.23774 " /><path d="M-1.99827, 2.23761 L-1.99827, 2.23761 " /><path d="M-2.31871, 1.90357 L-2.41229, 1.7835 " /><path d="M-2.4123, 1.78348 L-2.41663, 1.77762 " /><path d="M-2.42576, 1.76513 L-2.4282, 1.76177 " /><path d="M-2.42855, 1.76128 L-2.43292, 1.75525 " /><path d="M-2.49794, 1.66141 L-2.50206, 1.65521 " /><path d="M-2.5131, 1.63839 L-2.51716, 1.63215 " /><path d="M-2.51717, 1.63213 L-2.54579, 1.58713 " /><path d="M-2.85614, 0.917858 L-2.8912, 0.800595 " /><path d="M-2.89783, 0.776279 L-2.89783, 0.776276 " /><path d="M-2.89822, 0.774786 L-2.91287, 0.717763 " /><path d="M-2.91427, 0.712048 L-2.92613, 0.661639 " /><path d="M-2.92742, 0.655897 L-2.92743, 0.65587 " /><path d="M-2.9276, 0.655118 L-2.92791, 0.653697 " /><path d="M-2.93015, 0.643582 L-2.93018, 0.643455 " /><path d="M-2.93032, 0.642827 L-2.94015, 0.596268 " /><path d="M-2.94083, 0.592906 L-2.94085, 0.592779 " /><path d="M-2.94172, 0.588464 L-2.94239, 0.585092 " /><path d="M-2.94249, 0.58462 L-2.95189, 0.53511 " /><path d="M-2.95298, 0.529038 L-2.95299, 0.52903 " /><path d="M-2.96046, 0.485477 Q-2.97549, 0.393785 -2.98483, 0.301338 " /><path d="M-2.98517, 0.297926 L-2.98518, 0.297861 " /><path d="M-2.9857, 0.292577 L-2.9861, 0.288445 " /><path d="M-2.98616, 0.287868 L-2.99193, 0.219834 " /><path d="M-2.99537, 0.166614 L-2.99578, 0.159142 " /><path d="M-2.99584, 0.157985 L-2.99626, 0.149693 " /><path d="M-2.99672, 0.140246 L-2.99672, 0.140243 " /><path d="M-2.99677, 0.139086 L-3, 0.00057927 " /><path d="M3, -8.88178e-16 C3.00315, 0.783903 2.68183, 1.56248 2.12664, 2.11599  C1.65423, 2.59322 1.01705, 2.90291 0.349935, 2.97952  C-0.491051, 3.08256 -1.3687, 2.80536 -1.99795, 2.2379  C-2.62998, 1.67922 -3.00417, 0.843487 -3, 6.23968e-12 " /><path d="M3, -4.44089e-16 C3.00315, 0.783767 2.68194, 1.56221 2.12692, 2.1157  C1.65555, 2.592 1.02008, 2.90151 0.354454, 2.97899  C-0.488476, 3.08359 -1.36879, 2.806 -1.99926, 2.23673  C-2.63052, 1.67807 -3.00416, 0.842897 -3, 3.14837e-12 " /><path d="M-3, 3.14415e-12 L-2.99913, -0.07241 " /><path d="M-2.98298, -0.319098 Q-2.97346, -0.408102 -2.95865, -0.496381 " /><path d="M-2.93173, -0.636385 L-2.93172, -0.636391 " /><path d="M-2.93125, -0.638568 L-2.93125, -0.638571 " /><path d="M-2.93077, -0.640751 L-2.93077, -0.640767 " /><path d="M-2.92944, -0.646809 L-2.92943, -0.646857 " /><path d="M-2.92885, -0.649494 L-2.92885, -0.649501 " /><path d="M-2.9246, -0.66837 L-2.9246, -0.668374 " /><path d="M-2.924, -0.671006 L-2.92399, -0.67101 " /><path d="M-2.91961, -0.689847 L-2.91961, -0.689855 " /><path d="M-2.91898, -0.692482 L-2.88873, -0.809467 " /><path d="M-2.88751, -0.813799 L-2.88617, -0.818545 " /><path d="M-2.88617, -0.818547 L-2.88588, -0.819582 " /><path d="M-2.88452, -0.824328 L-2.88443, -0.824646 " /><path d="M-2.72993, -1.24397 Q-2.68145, -1.35036 -2.62484, -1.45266 " /><path d="M-2.58175, -1.52793 L-2.58174, -1.52794 " /><path d="M-2.5783, -1.53375 L-2.57827, -1.53379 " /><path d="M-2.57655, -1.53668 L-2.57655, -1.53669 " /><path d="M-2.40621, -1.79169 L-2.40621, -1.79169 " /><path d="M-2.40459, -1.79386 L-2.40459, -1.79386 " /><path d="M-2.39298, -1.80933 L-2.39297, -1.80933 " /><path d="M-2.39134, -1.81149 L-2.39131, -1.81153 " /><path d="M-2.38757, -1.81645 L-2.38756, -1.81647 " /><path d="M-2.38621, -1.81824 L-2.38621, -1.81825 " /><path d="M-2.38486, -1.82002 L-2.38485, -1.82002 " /><path d="M-2.36323, -1.84801 L-2.36323, -1.84802 " /><path d="M-2.36185, -1.84977 L-2.36185, -1.84977 " /><path d="M-2.36047, -1.85153 L-2.36047, -1.85154 " /><path d="M-2.35665, -1.8564 L-2.35664, -1.85641 " /><path d="M-2.35526, -1.85816 L-2.35526, -1.85816 " /><path d="M-2.35388, -1.85991 L-2.35387, -1.85991 " /><path d="M-2.33178, -1.88754 L-2.33178, -1.88754 " /><path d="M-2.33038, -1.88927 L-2.33037, -1.88927 " /><path d="M-2.32897, -1.89101 L-2.32896, -1.89102 " /><path d="M-2.32114, -1.90061 L-2.32113, -1.90062 " /><path d="M-2.31971, -1.90235 L-2.31971, -1.90235 " /><path d="M-2.3183, -1.90407 L-2.3183, -1.90408 " /><path d="M0.243772, -2.99008 L0.248233, -2.98971 " /><path d="M0.248854, -2.98966 L0.253776, -2.98925 " /><path d="M0.254396, -2.98919 L0.298537, -2.98511 " /><path d="M0.299157, -2.98505 L0.401433, -2.97302 " /><path d="M0.40205, -2.97294 L0.406945, -2.97227 " /><path d="M0.407562, -2.97219 L0.451438, -2.96584 " /><path d="M0.462432, -2.96415 L0.463049, -2.96405 " /><path d="M0.463665, -2.96395 L0.507414, -2.95678 " /><path d="M0.508028, -2.95667 L0.512896, -2.95583 " /><path d="M0.51351, -2.95572 L0.557133, -2.94781 " /><path d="M0.557745, -2.9477 L0.562598, -2.94678 " /><path d="M0.56321, -2.94666 L0.565919, -2.94614 " /><path d="M0.584904, -2.94243 L0.584908, -2.94243 " /><path d="M0.587556, -2.9419 L0.58756, -2.9419 " /><path d="M0.606517, -2.93805 L0.609218, -2.93749 " /><path d="M0.609828, -2.93736 L0.614664, -2.93636 " /><path d="M0.615274, -2.93623 L0.658598, -2.92682 " /><path d="M0.659206, -2.92668 L0.664025, -2.92559 " /><path d="M0.664632, -2.92545 L0.707792, -2.91531 " /><path d="M0.708397, -2.91516 L0.709004, -2.91502 " /><path d="M0.719809, -2.91237 L0.762769, -2.90141 " /><path d="M0.763372, -2.90125 L0.768148, -2.89999 " /><path d="M0.768751, -2.89983 Q1.05157, -2.82478 1.3146, -2.69663 " /><path d="M1.32352, -2.69226 L1.33134, -2.68841 " /><path d="M1.33244, -2.68786 L1.33947, -2.68436 " /><path d="M1.38938, -2.65888 L1.38939, -2.65887 " /><path d="M1.39631, -2.65524 L1.39632, -2.65524 " /><path d="M1.44567, -2.62869 L1.45255, -2.6249 " /><path d="M1.45309, -2.6246 L1.4569, -2.62249 " /><path d="M1.46178, -2.61977 L1.46222, -2.61952 " /><path d="M1.46851, -2.616 L1.54859, -2.56941 " /><path d="M1.5493, -2.56898 L1.5602, -2.56238 " /><path d="M1.56091, -2.56194 Q1.72935, -2.4593 1.88292, -2.33551 " /><path d="M1.88353, -2.33502 L1.8928, -2.32751 " /><path d="M1.8934, -2.32702 L1.95984, -2.27135 " /><path d="M1.96014, -2.27109 L1.96225, -2.26927 " /><path d="M1.96494, -2.26694 L1.98899, -2.24586 " /><path d="M1.99072, -2.24434 L1.99634, -2.23934 " /><path d="M2.04666, -2.19344 L2.11356, -2.12905 " /><path d="M2.13446, -2.1081 L2.13542, -2.10713 " /><path d="M2.13608, -2.10646 L2.13611, -2.10642 " /><path d="M2.13666, -2.10587 L2.13666, -2.10587 " /><path d="M2.42506, -1.76609 Q2.56958, -1.56759 2.67995, -1.34829 " /><path d="M2.68046, -1.34726 L2.68326, -1.34169 " /><path d="M2.68406, -1.34008 L2.68407, -1.34006 " /><path d="M2.68662, -1.33494 L2.68742, -1.33333 " /><path d="M2.68888, -1.33038 L2.68897, -1.3302 " /><path d="M2.85024, -0.936018 Q2.99951, -0.479894 3, -4.44089e-16 " /><path d="M3, -4.44089e-16 C3.00313, 0.782371 2.68311, 1.55947 2.12985, 2.11275  C1.65764, 2.59126 1.02, 2.90206 0.352165, 2.97926  C-0.488446, 3.08289 -1.36598, 2.80659 -1.9956, 2.23999  C-2.62902, 1.68129 -3.00419, 0.844545 -3, 2.20735e-12 " /><path d="M-3, -0.000610242 L-2.99681, -0.138262 " /><path d="M-2.98472, -0.302362 Q-2.97485, -0.399797 -2.95865, -0.496381 " /><path d="M-2.91897, -0.692531 Q-2.89421, -0.796893 -2.86206, -0.899225 " /><path d="M-2.72993, -1.24397 Q-2.68145, -1.35036 -2.62484, -1.45266 " /><path d="M0.243777, -2.99008 L0.245998, -2.9899 " /><path d="M0.248853, -2.98966 L0.253776, -2.98925 " /><path d="M0.254405, -2.98919 L0.256628, -2.989 " /><path d="M0.256631, -2.989 L0.258851, -2.98881 " /><path d="M0.258856, -2.98881 L0.294074, -2.98555 " /><path d="M0.294079, -2.98555 L0.296297, -2.98533 " /><path d="M0.2963, -2.98533 L0.29852, -2.98511 " /><path d="M0.299157, -2.98505 L0.396996, -2.97362 " /><path d="M0.397001, -2.97362 L0.39921, -2.97332 " /><path d="M0.399213, -2.97332 L0.401424, -2.97302 " /><path d="M0.40205, -2.97294 L0.406945, -2.97227 " /><path d="M0.407571, -2.97219 L0.409781, -2.97188 " /><path d="M0.409784, -2.97188 L0.411991, -2.97158 " /><path d="M0.411997, -2.97158 L0.447003, -2.96651 " /><path d="M0.449215, -2.96618 L0.451421, -2.96584 " /><path d="M0.462434, -2.96414 L0.463049, -2.96405 " /><path d="M0.465889, -2.9636 L0.46809, -2.96326 " /><path d="M0.468096, -2.96326 L0.503001, -2.95753 " /><path d="M0.505206, -2.95716 L0.507406, -2.95678 " /><path d="M0.508028, -2.95667 L0.512896, -2.95583 " /><path d="M0.515719, -2.95534 L0.517915, -2.95496 " /><path d="M0.51792, -2.95495 L0.552725, -2.94864 " /><path d="M0.554923, -2.94823 L0.557116, -2.94782 " /><path d="M0.557745, -2.9477 L0.562598, -2.94678 " /><path d="M0.563259, -2.94665 L0.565912, -2.94614 " /><path d="M0.606524, -2.93805 L0.609169, -2.9375 " /><path d="M0.609828, -2.93736 L0.614664, -2.93636 " /><path d="M0.615291, -2.93623 L0.617475, -2.93577 " /><path d="M0.619663, -2.93531 L0.65423, -2.92779 " /><path d="M0.654235, -2.92779 L0.65641, -2.92731 " /><path d="M0.659206, -2.92668 L0.664025, -2.92559 " /><path d="M0.664641, -2.92545 L0.666816, -2.92495 " /><path d="M0.668997, -2.92446 L0.703432, -2.91636 " /><path d="M0.703438, -2.91636 L0.705604, -2.91584 " /><path d="M0.708397, -2.91516 L0.709003, -2.91502 " /><path d="M0.719826, -2.91236 L0.721992, -2.91183 " /><path d="M0.721994, -2.91182 L0.724157, -2.91129 " /><path d="M0.724163, -2.91129 L0.758439, -2.90255 " /><path d="M0.758444, -2.90254 L0.7606, -2.90198 " /><path d="M0.760603, -2.90198 L0.762761, -2.90141 " /><path d="M0.763372, -2.90125 L0.768148, -2.89999 " /><path d="M0.768759, -2.89983 L0.770916, -2.89926 " /><path d="M0.770918, -2.89926 L0.773072, -2.89868 " /><path d="M0.773077, -2.89868 L0.807201, -2.88936 " /><path d="M0.807206, -2.88936 L0.809353, -2.88876 " /><path d="M0.809355, -2.88876 L0.811504, -2.88816 " /><path d="M0.81182, -2.88807 Q1.00074, -2.83495 1.18113, -2.75771 " /><path d="M1.1897, -2.75402 L1.19026, -2.75378 " /><path d="M1.19027, -2.75377 L1.19745, -2.75066 " /><path d="M1.19747, -2.75065 L1.24863, -2.7278 " /><path d="M1.24864, -2.7278 L1.25575, -2.72453 " /><path d="M1.25576, -2.72453 L1.30643, -2.7006 " /><path d="M1.30645, -2.70059 L1.31348, -2.69718 " /><path d="M1.32352, -2.69226 L1.33134, -2.68841 " /><path d="M1.33245, -2.68786 L1.33946, -2.68437 " /><path d="M1.44569, -2.62868 L1.45254, -2.62491 " /><path d="M1.45309, -2.6246 L1.4569, -2.62249 " /><path d="M1.46852, -2.616 L1.47318, -2.61338 " /><path d="M1.47319, -2.61337 L1.50641, -2.59436 " /><path d="M1.50642, -2.59436 L1.51104, -2.59167 " /><path d="M1.51104, -2.59167 L1.54399, -2.57218 " /><path d="M1.544, -2.57217 L1.54858, -2.56942 " /><path d="M1.5493, -2.56898 L1.5544, -2.5659 " /><path d="M1.5544, -2.5659 L1.55511, -2.56547 " /><path d="M1.55511, -2.56547 L1.5602, -2.56238 " /><path d="M1.5602, -2.56237 L1.56091, -2.56194 " /><path d="M1.56092, -2.56194 L1.56548, -2.55915 " /><path d="M1.5655, -2.55914 L1.59802, -2.53896 " /><path d="M1.59803, -2.53896 L1.60255, -2.53611 " /><path d="M1.60255, -2.5361 Q1.71389, -2.46575 1.81865, -2.3859 " /><path d="M1.81866, -2.38589 L1.84701, -2.36401 " /><path d="M1.84701, -2.36401 L1.85095, -2.36093 " /><path d="M1.85096, -2.36092 L1.87901, -2.33866 " /><path d="M1.87902, -2.33865 L1.88291, -2.33552 " /><path d="M1.88353, -2.33502 L1.88786, -2.33152 " /><path d="M1.8928, -2.32751 L1.8934, -2.32702 " /><path d="M1.89341, -2.32701 L1.89729, -2.32386 " /><path d="M1.8973, -2.32385 L1.9249, -2.30103 " /><path d="M1.92491, -2.30103 L1.92874, -2.29782 " /><path d="M1.92875, -2.29781 L1.95604, -2.27462 " /><path d="M1.95605, -2.27462 L1.95984, -2.27135 " /><path d="M1.96014, -2.27109 L1.96225, -2.26927 " /><path d="M1.96673, -2.26538 L1.98899, -2.24587 " /><path d="M1.99077, -2.24429 L1.99633, -2.23935 " /><path d="M2.04667, -2.19343 L2.05752, -2.18326 " /><path d="M2.05753, -2.18325 Q2.25764, -1.99458 2.42022, -1.77272 " /><path d="M2.69191, -1.32423 C2.8941, -0.914108 3.00039, -0.457194 3, -8.88178e-16 " /><path d="M3, -1.11022e-15 C3.00311, 0.781236 2.68406, 1.55724 2.13224, 2.11035  C1.65935, 2.59063 1.01999, 2.90248 0.350395, 2.97947  C-0.488224, 3.08232 -1.36341, 2.80717 -1.99234, 2.2429  C-2.62769, 1.68416 -3.00422, 0.846015 -3, 1.63713e-12 " /><path d="M-3, 1.59828e-12 L-2.99913, -0.07241 " /><path d="M-2.98298, -0.319098 Q-2.9728, -0.414295 -2.95656, -0.508649 " /><path d="M-2.93755, -0.608942 Q-2.91659, -0.710044 -2.88873, -0.809467 " /><path d="M-2.88751, -0.813799 L-2.88617, -0.818545 " /><path d="M-2.88617, -0.818547 L-2.88588, -0.819582 " /><path d="M-2.88452, -0.824328 L-2.88443, -0.824647 " /><path d="M-2.72999, -1.24384 Q-2.65455, -1.4094 -2.55968, -1.56463 " /><path d="M-2.55967, -1.56464 L-2.55664, -1.56958 " /><path d="M-2.41571, -1.77886 Q-2.36826, -1.8433 -2.31745, -1.90511 " /><path d="M-2.02094, -2.21716 L-1.94834, -2.28122 " /><path d="M0.235564, -2.99074 C0.934456, -2.93774 1.61009, -2.62891 2.10748, -2.13507  C2.67419, -1.5803 3.00329, -0.793045 3, -8.88178e-16 " /><path d="M3, -8.88178e-16 C3.0031, 0.780636 2.68455, 1.55606 2.13349, 2.10908  C1.66031, 2.59024 1.02013, 2.90264 0.349686, 2.97955  C-0.485905, 3.08178 -1.35777, 2.80892 -1.98601, 2.2485  C-2.6251, 1.68972 -3.00427, 0.848856 -3, 1.20925e-12 " /><path d="M-1.94834 -2.28122 A3 3 0 0 1 0.235563 -2.99074" /><path d="M-3, 1.05516e-12 C-3.0046, -0.865682 -2.6096, -1.7225 -1.94834, -2.28122 " /><path d="M-1.94834, -2.28122 C-1.35958, -2.67166 -0.631386, -2.83602 0.051571, -2.7262  C0.674165, -2.63037 1.25232, -2.30638 1.64042, -1.83151 " /><path d="M-2.53244, 3.78723e-07 C-2.56171, 0.668072 -2.31163, 1.34415 -1.85446, 1.83837  C-1.3904, 2.34817 -0.716436, 2.66076 -0.0233624, 2.68996  C0.685773, 2.72553 1.4049, 2.46473 1.93224, 1.98321  C2.48815, 1.48395 2.8261, 0.750852 2.84943, 2.22045e-16 " /><path d="M2.84943, 0 C2.877, -0.710725 2.62508, -1.42834 2.16003, -1.9709  C1.68067, -2.53816 0.977127, -2.9099 0.235563, -2.99074 " /><path d="M-2.53244, 3.78723e-07 C-2.51017, -0.61044 -2.25582, -1.20696 -1.83146, -1.64047 " /><path d="M1.64042, -1.83151 C1.67807, -1.78593 1.70531, -1.74386 1.69796, -1.73673  C1.68917, -1.72803 1.6348, -1.77009 1.57516, -1.81462  C1.40244, -1.94717 1.17211, -2.09816 0.926063, -2.19958 " /><path d="M0.926063, -2.19958 C0.377795, -2.43467 -0.279942, -2.46596 -0.863048, -2.25881  C-1.22745, -2.13208 -1.56219, -1.91796 -1.83146, -1.64047 " /><circle cx ="-3.18794e-15" cy ="0" r ="1.925" /></g>

</svg>
