<svg xmlns="http://www.w3.org/2000/svg" viewBox="-3.936000000000833 -7.420000000000062 57.0720000000009 14.840000000000124">
<rect width="100%" height="100%" fill="white"/>
<g   fill="none"
   stroke="rgb(0, 0, 0)"
   stroke-linecap="butt"
   stroke-linejoin="miter"
   stroke-width="0.35"
   transform="scale(1, -1)"
  >
<path d="M0.8, -3.484 C0.325334, -2.38385 0.052811, -1.19701 -7.70939e-13, 2.37588e-14 " /><path id= "2" d=" M 49.2 -3 L 0.8 -3.484 " />
</g>
<g   fill="none"
   stroke="rgb(0, 0, 0)"
   stroke-linecap="butt"
   stroke-linejoin="miter"
   stroke-width="0.35"
   transform="scale(1, -1)"
  >
<path d="M-7.70939e-13 -2.40918e-14 A9.91811 9.91811 0 0 0 0.8 3.484" /><path d="M0.8, -3.484 L0.8, -3.39665  L0.8, -3.13898  L0.8, -2.7239  L0.8, -2.17224  L0.8, -1.51165  L0.8, -0.775263  L0.8, -6.66134e-16  L0.8, 0.775263  L0.8, 1.51165  L0.8, 2.17224  L0.8, 2.7239  L0.8, 3.13898  L0.8, 3.39665  L0.8, 3.484 " /><path id= "3" d=" M 0.8 3.484 L 49.2 3 " />
<path d="M49.2, -3 L49.2, -2.92478  L49.2, -2.70291  L49.2, -2.34549  L49.2, -1.87047  L49.2, -1.30165  L49.2, -0.667563  L49.2, -5.55112e-16  L49.2, 0.667563  L49.2, 1.30165  L49.2, 1.87047  L49.2, 2.34549  L49.2, 2.70291  L49.2, 2.92478  L49.2, 3 " /></g>

</svg>
