<svg xmlns="http://www.w3.org/2000/svg" viewBox="-2.032 -7.80051 29.464 15.60102">
<rect width="100%" height="100%" fill="white"/>
<g   fill="none"
   stroke="rgb(165, 165, 165)"
   stroke-dasharray="1.2,0.8"
   stroke-linecap="butt"
   stroke-linejoin="miter"
   stroke-width="0.25"
   transform="scale(1, -1)"
  >
<path d="M25.4, 3.175 Q25.4, 3.17467 25.4, 3.09179 " /><path d="M25.4, -1.44975 C25.4, -1.61599 25.4, -1.7932 25.4, -1.93768  C25.4, -2.23081 25.4, -2.40181 25.4, -2.39925 " /><path d="M25.4, 3.09179 C25.4, 2.92293 25.4, 2.63544 25.4, 2.25984  C25.4, 1.87647 25.4, 1.40109 25.4, 0.897092  C25.4, 0.0637383 25.4, -0.845444 25.4, -1.44975 " /><path d="M24.8336, -3.15587 C24.8789, -3.07968 24.9241, -2.75574 24.9694, -2.25282  C25.0145, -1.75448 25.0596, -1.08239 25.1047, -0.378182  C25.1614, 0.506902 25.2181, 1.43148 25.2748, 2.09807  C25.3165, 2.59127 25.3583, 2.9439 25.4, 3.09179 " /><path d="M24.6526, -3.175 C24.7005, -3.17729 24.7484, -2.89903 24.7963, -2.40592  C24.8596, -1.76081 24.9228, -0.742223 24.9861, 0.250436  C25.0254, 0.866632 25.0647, 1.46678 25.1041, 1.95336  C25.1578, 2.6226 25.2116, 3.0667 25.2654, 3.15586 " /><path d="M23.5636, -3.15587 C23.6086, -3.08009 23.6536, -2.75954 23.6986, -2.26153  C23.7644, -1.53957 23.8302, -0.438605 23.8959, 0.578924  C23.9321, 1.13778 23.9683, 1.66717 24.0044, 2.09384  C24.0617, 2.77494 24.1191, 3.17959 24.1764, 3.175 " /><path d="M23.3826, -3.175 C23.4305, -3.1773 23.4784, -2.89891 23.5263, -2.4056  C23.5891, -1.76513 23.6519, -0.756973 23.7147, 0.228769  C23.7545, 0.85293 23.7943, 1.46189 23.8341, 1.95433  C23.8879, 2.62303 23.9416, 3.06673 23.9954, 3.15586 " /><path d="M22.2936, -3.15587 C22.3387, -3.07992 22.3838, -2.75794 22.429, -2.25785  C22.4943, -1.5392 22.5597, -0.447103 22.625, 0.564816  C22.6616, 1.13012 22.6981, 1.666 22.7347, 2.09675  C22.7919, 2.77614 22.8492, 3.17957 22.9064, 3.175 " /><path d="M22.1126, -3.175 C22.1565, -3.17663 22.2005, -2.94395 22.2444, -2.5236  C22.3111, -1.89224 22.3778, -0.822335 22.4445, 0.225421  C22.4843, 0.849078 22.524, 1.45777 22.5638, 1.95038  C22.6177, 2.62124 22.6715, 3.06658 22.7254, 3.15586 " /><path d="M21.0236, -3.15587 C21.0687, -3.07997 21.1138, -2.75845 21.1589, -2.25901  C21.2246, -1.53696 21.2903, -0.437176 21.356, 0.579267  C21.3921, 1.13827 21.4283, 1.66777 21.4645, 2.09445  C21.5218, 2.7752 21.5791, 3.17959 21.6364, 3.175 " /><path d="M20.8426, -3.175 C20.8912, -3.17741 20.9397, -2.89125 20.9883, -2.38572  C21.0504, -1.7446 21.1126, -0.746618 21.1747, 0.229028  C21.2145, 0.852643 21.2543, 1.46107 21.294, 1.95325  C21.3478, 2.62254 21.4016, 3.06669 21.4554, 3.15586 " /><path d="M19.7536, -3.15587 C19.7987, -3.07995 19.8438, -2.75823 19.8889, -2.25852  C19.9546, -1.5362 20.0203, -0.436104 20.086, 0.580424  C20.1222, 1.1399 20.1585, 1.66976 20.1947, 2.0965  C20.2519, 2.77604 20.3091, 3.17957 20.3664, 3.175 " /><path d="M19.5726, -3.175 C19.6213, -3.17744 19.67, -2.88919 19.7188, -2.38041  C19.7807, -1.73963 19.8426, -0.745412 19.9046, 0.226867  C19.9442, 0.849021 19.9839, 1.4562 20.0236, 1.94801  C20.0775, 2.62017 20.1315, 3.06648 20.1854, 3.15586 " /><path d="M18.4836, -3.15587 C18.5286, -3.08012 18.5736, -2.75979 18.6186, -2.26208  C18.6844, -1.5397 18.7502, -0.437547 18.8161, 0.580751  C18.8523, 1.14035 18.8885, 1.67031 18.9247, 2.09708  C18.9819, 2.77627 19.0392, 3.17956 19.0964, 3.175 " /><path d="M18.3026, -3.175 C18.3514, -3.17745 18.4001, -2.88878 18.4489, -2.37936  C18.5108, -1.7386 18.5727, -0.74499 18.6345, 0.226701  C18.6742, 0.849019 18.7139, 1.45636 18.7536, 1.94827  C18.8076, 2.62028 18.8615, 3.06649 18.9154, 3.15586 " /><path d="M17.2136, -3.15587 C17.2587, -3.07989 17.3039, -2.75767 17.349, -2.25722  C17.4146, -1.53605 17.4802, -0.43902 17.5457, 0.575558  C17.5821, 1.13851 17.6186, 1.67171 17.655, 2.10036  C17.7121, 2.77762 17.7693, 3.17954 17.8264, 3.175 " /><path d="M17.0326, -3.175 C17.0814, -3.17746 17.1302, -2.88827 17.179, -2.37805  C17.2409, -1.73611 17.3029, -0.740711 17.3649, 0.231956  C17.4047, 0.856021 17.4445, 1.4647 17.4843, 1.95673  C17.538, 2.62411 17.5917, 3.06682 17.6454, 3.15586 " /><path d="M15.9436, -3.15588 C15.9888, -3.07972 16.0341, -2.75612 16.0794, -2.25367  C16.1447, -1.53402 16.21, -0.442066 16.2753, 0.569061  C16.3116, 1.12982 16.3478, 1.66142 16.3841, 2.0899  C16.4415, 2.77333 16.499, 3.17963 16.5564, 3.175 " /><path d="M15.7626, -3.175 C15.8113, -3.17743 15.8599, -2.88988 15.9086, -2.38219  C15.9706, -1.74096 16.0327, -0.744771 16.0947, 0.2291  C16.1345, 0.852936 16.1743, 1.46157 16.2141, 1.95384  C16.2679, 2.6228 16.3216, 3.06671 16.3754, 3.15586 " /><path d="M14.6736, -3.15588 C14.7185, -3.08027 14.7634, -2.76109 14.8083, -2.26507  C14.874, -1.54538 14.9397, -0.447224 15.0053, 0.569349  C15.0416, 1.1304 15.0779, 1.66224 15.1142, 2.09081  C15.1716, 2.7737 15.229, 3.17962 15.2864, 3.175 " /><path d="M14.4926, -3.175 C14.5361, -3.17658 14.5797, -2.94816 14.6232, -2.53478  C14.6909, -1.89877 14.7587, -0.807843 14.8264, 0.25547  C14.8657, 0.872238 14.9051, 1.47263 14.9445, 1.95887  C14.9981, 2.62508 15.0517, 3.06691 15.1054, 3.15586 " /><path d="M13.4036, -3.15588 C13.4485, -3.08025 13.4934, -2.76091 13.5384, -2.26465  C13.6042, -1.54289 13.6701, -0.440641 13.7359, 0.578148  C13.772, 1.13651 13.8082, 1.66551 13.8443, 2.09206  C13.9017, 2.77422 13.959, 3.17961 14.0164, 3.175 " /><path d="M13.2226, -3.175 C13.2705, -3.1773 13.3185, -2.89846 13.3664, -2.40443  C13.4116, -1.94187 13.4568, -1.2929 13.502, -0.594734  C13.5594, 0.292426 13.6169, 1.24807 13.6743, 1.95713  C13.728, 2.62429 13.7817, 3.06683 13.8354, 3.15586 " /><path d="M12.1336, -3.15588 C12.1785, -3.08024 12.2234, -2.7608 12.2684, -2.26439  C12.3346, -1.53859 12.4008, -0.428006 12.467, 0.595366  C12.503, 1.15087 12.539, 1.67643 12.575, 2.09999  C12.6321, 2.77747 12.6893, 3.17954 12.7464, 3.175 " /><path d="M11.9526, -3.175 C12.0013, -3.17744 12.05, -2.88927 12.0987, -2.38061  C12.1607, -1.73957 12.2227, -0.744658 12.2846, 0.228113  C12.3244, 0.852285 12.3643, 1.46129 12.4041, 1.95382  C12.4578, 2.62279 12.5116, 3.0667 12.5654, 3.15586 " /><path d="M10.8636, -3.15588 C10.9088, -3.07976 10.9541, -2.75646 10.9993, -2.25444  C11.0648, -1.5329 11.1303, -0.436609 11.1958, 0.577085  C11.2323, 1.14121 11.2688, 1.67538 11.3053, 2.10433  C11.3623, 2.77924 11.4194, 3.1795 11.4764, 3.175 " /><path d="M10.2064, 3.175 C10.1726, 3.17606 10.1508, 3.00012 10.1392, 2.67558  C10.1291, 2.39457 10.1266, 2.00326 10.129, 1.54979  C10.1342, 0.417598 10.1713, -1.085 10.1662, -2.05438 " /><path d="M10.1662, -2.05438 C10.1656, -2.24484 10.1712, -2.41551 10.1937, -2.54186  C10.206, -2.60864 10.2257, -2.6661 10.258, -2.66817  C10.3014, -2.66817 10.345, -2.57933 10.3786, -2.48489  C10.4202, -2.36403 10.4552, -2.22049 10.4838, -2.05426 " /><path d="M10.4838, -2.05426 C10.6234, -1.26086 10.7811, -0.119857 10.9199, 0.893887  C11.0165, 1.59744 11.1043, 2.23082 11.1755, 2.64253  C11.2237, 2.92199 11.2644, 3.10066 11.2967, 3.15582 " /><path d="M10.6033, 2.48763 L10.2064, 3.175 " /><path d="M10.762, 2.39598 C10.6978, 2.3954 10.6349, 2.43169 10.6033, 2.48763 " /><path d="M1.4732, -4.69502 Q1.4732, -4.77699 1.4732, -4.77727 " /><path d="M0.255669, -5.76851 Q0.926783, -5.17833 1.4732, -4.69502 " /><path d="M0.255669, 5.76851 L0.255669, 5.4727  L0.255669, 4.95278  L0.255669, 4.23005  L0.255669, 3.33409  L0.255669, 2.3016  L0.255669, 1.17485  L0.255669, -8.88178e-16  L0.255669, -1.17485  L0.255669, -2.3016  L0.255669, -3.33409  L0.255669, -4.23005  L0.255669, -4.95278  L0.255669, -5.4727  L0.255669, -5.76851 " /><path d="M1.4732, 4.69502 Q0.926783, 5.17833 0.255669, 5.76851 " /><path d="M1.4732, 4.77727 Q1.4732, 4.77699 1.4732, 4.69502 " /><path id= "37" d=" M 1.4732 -4.69502 L 1.4732 4.69502 " />
<path id= "38" d=" M 1.4732 -4.69502 L 1.4732 4.69502 " />
<path id= "39" d=" M 0.255669 -5.76851 L 0 -5.76851 " />
<path id= "40" d=" M 0 5.76851 L 0 -5.76851 " />
<path id= "41" d=" M 0.255669 5.76851 L 0 5.76851 " />
<path d="M0, 5.76851 L0, 5.4727  L0, 4.95278  L0, 4.23005  L0, 3.33409  L0, 2.3016  L0, 1.17485  L0, -8.88178e-16  L0, -1.17485  L0, -2.3016  L0, -3.33409  L0, -4.23005  L0, -4.95278  L0, -5.4727  L0, -5.76851 " /><path id= "43" d=" M 0 5.76851 L 0 -5.76851 " />
</g>
<g   fill="none"
   stroke="rgb(0, 0, 0)"
   stroke-linecap="butt"
   stroke-linejoin="miter"
   stroke-width="0.35"
   transform="scale(1, -1)"
  >
<path id= "1" d=" M 24.8114 -3.175 L 24.6526 -3.175 " />
<path d="M24.6015, 2.46333 L24.1986, 3.15587 " /><path d="M25.2365, -2.46332 L24.8336, -3.15587 " /><path d="M24.732, 2.39594 Q24.6728, 2.39742 24.6314, 2.43035  Q24.607, 2.4517 24.6015, 2.46333 " /><path d="M25.2365, -2.46332 Q25.2427, -2.44985 25.2715, -2.4265  Q25.312, -2.39703 25.367, -2.39594  Q25.3835, -2.39759 25.4, -2.39925 " /><path d="M24.6304, -3.15587 L24.2275, -2.46332 " /><path d="M25.2654, 3.15586 L24.8625, 2.46333 " /><path id= "8" d=" M 23.5414 -3.175 L 23.3826 -3.175 " />
<path d="M23.3315, 2.46333 L22.9286, 3.15587 " /><path d="M23.9665, -2.46332 L23.5636, -3.15587 " /><path d="M24.2275, -2.46332 Q24.2213, -2.44986 24.1925, -2.42651  Q24.152, -2.39704 24.097, -2.39594  Q24.0378, -2.39743 23.9964, -2.43036  Q23.972, -2.45171 23.9665, -2.46332 " /><path d="M24.8625, 2.46333 Q24.8563, 2.44986 24.8275, 2.42651  Q24.787, 2.39705 24.732, 2.39594 " /><path d="M23.462, 2.39595 Q23.4028, 2.39743 23.3614, 2.43035  Q23.337, 2.45171 23.3315, 2.46333 " /><path d="M23.3604, -3.15587 L22.9575, -2.46333 " /><path d="M23.9954, 3.15586 L23.5925, 2.46333 " /><path id= "16" d=" M 22.2714 -3.175 L 22.1126 -3.175 " />
<path d="M22.0615, 2.46333 L21.6586, 3.15587 " /><path d="M22.6965, -2.46332 L22.2936, -3.15587 " /><path d="M22.9575, -2.46333 Q22.9513, -2.44986 22.9225, -2.42651  Q22.882, -2.39704 22.827, -2.39595  Q22.7678, -2.39743 22.7264, -2.43036  Q22.702, -2.45171 22.6965, -2.46332 " /><path d="M23.5925, 2.46333 Q23.5863, 2.44987 23.5575, 2.42652  Q23.517, 2.39705 23.462, 2.39595 " /><path d="M22.192, 2.39595 Q22.1328, 2.39743 22.0914, 2.43035  Q22.067, 2.45171 22.0615, 2.46333 " /><path d="M22.0904, -3.15587 L21.6875, -2.46333 " /><path d="M22.7254, 3.15586 L22.3225, 2.46333 " /><path id= "24" d=" M 21.0014 -3.175 L 20.8426 -3.175 " />
<path d="M20.7915, 2.46334 L20.3886, 3.15587 " /><path d="M21.4265, -2.46333 L21.0236, -3.15587 " /><path d="M21.6875, -2.46333 Q21.6813, -2.44987 21.6525, -2.42652  Q21.612, -2.39704 21.557, -2.39595  Q21.4978, -2.39744 21.4564, -2.43036  Q21.432, -2.45171 21.4265, -2.46333 " /><path d="M22.3225, 2.46333 Q22.3163, 2.44987 22.2875, 2.42652  Q22.247, 2.39706 22.192, 2.39595 " /><path d="M20.922, 2.39596 Q20.8628, 2.39743 20.8214, 2.43036  Q20.797, 2.45171 20.7915, 2.46334 " /><path d="M20.8204, -3.15587 L20.4175, -2.46333 " /><path d="M21.4554, 3.15586 L21.0525, 2.46334 " /><path id= "32" d=" M 19.7314 -3.175 L 19.5726 -3.175 " />
<path d="M19.5215, 2.46334 L19.1186, 3.15587 " /><path d="M20.1565, -2.46333 L19.7536, -3.15587 " /><path d="M20.4175, -2.46333 Q20.4113, -2.44987 20.3825, -2.42652  Q20.342, -2.39705 20.287, -2.39595  Q20.2278, -2.39744 20.1864, -2.43037  Q20.162, -2.45172 20.1565, -2.46333 " /><path d="M21.0525, 2.46334 Q21.0463, 2.44987 21.0175, 2.42652  Q20.977, 2.39706 20.922, 2.39596 " /><path d="M19.652, 2.39596 Q19.5928, 2.39744 19.5514, 2.43036  Q19.527, 2.45172 19.5215, 2.46334 " /><path d="M19.5504, -3.15587 L19.1475, -2.46334 " /><path d="M20.1854, 3.15586 L19.7825, 2.46334 " /><path id= "40" d=" M 18.4614 -3.175 L 18.3026 -3.175 " />
<path d="M18.2515, 2.46334 L17.8486, 3.15587 " /><path d="M18.8865, -2.46333 L18.4836, -3.15587 " /><path d="M19.1475, -2.46334 Q19.1413, -2.44988 19.1125, -2.42653  Q19.072, -2.39705 19.017, -2.39596  Q18.9578, -2.39744 18.9164, -2.43037  Q18.892, -2.45172 18.8865, -2.46333 " /><path d="M19.7825, 2.46334 Q19.7763, 2.44988 19.7475, 2.42653  Q19.707, 2.39706 19.652, 2.39596 " /><path d="M18.382, 2.39596 Q18.3228, 2.39744 18.2814, 2.43036  Q18.257, 2.45172 18.2515, 2.46334 " /><path d="M18.2804, -3.15587 L17.8775, -2.46334 " /><path d="M18.9154, 3.15586 L18.5125, 2.46335 " /><path id= "48" d=" M 17.1914 -3.175 L 17.0326 -3.175 " />
<path d="M16.9815, 2.46335 L16.5786, 3.15587 " /><path d="M17.6165, -2.46334 L17.2136, -3.15587 " /><path d="M17.8775, -2.46334 Q17.8713, -2.44988 17.8426, -2.42653  Q17.802, -2.39705 17.747, -2.39596  Q17.6878, -2.39745 17.6464, -2.43037  Q17.622, -2.45172 17.6165, -2.46334 " /><path d="M18.5125, 2.46335 Q18.5063, 2.44988 18.4775, 2.42653  Q18.437, 2.39707 18.382, 2.39596 " /><path d="M17.112, 2.39597 Q17.0528, 2.39744 17.0114, 2.43037  Q16.987, 2.45172 16.9815, 2.46335 " /><path d="M17.0104, -3.15587 L16.6075, -2.46334 " /><path d="M17.6454, 3.15586 L17.2425, 2.46335 " /><path id= "56" d=" M 15.9214 -3.175 L 15.7626 -3.175 " />
<path d="M15.7115, 2.46335 L15.3086, 3.15587 " /><path d="M16.3465, -2.46334 L15.9436, -3.15588 " /><path d="M16.6075, -2.46334 Q16.6013, -2.44988 16.5726, -2.42653  Q16.532, -2.39706 16.477, -2.39596  Q16.4178, -2.39745 16.3764, -2.43038  Q16.352, -2.45173 16.3465, -2.46334 " /><path d="M17.2425, 2.46335 Q17.2363, 2.44989 17.2076, 2.42654  Q17.167, 2.39707 17.112, 2.39597 " /><path d="M15.842, 2.39597 Q15.7828, 2.39745 15.7414, 2.43037  Q15.717, 2.45173 15.7115, 2.46335 " /><path d="M15.7404, -3.15587 L15.3375, -2.46335 " /><path d="M16.3754, 3.15586 L15.9725, 2.46335 " /><path id= "64" d=" M 14.6514 -3.175 L 14.4926 -3.175 " />
<path d="M14.4415, 2.46335 L14.0386, 3.15587 " /><path d="M15.0765, -2.46334 L14.6736, -3.15588 " /><path d="M15.3375, -2.46335 Q15.3313, -2.44989 15.3026, -2.42654  Q15.262, -2.39706 15.207, -2.39597  Q15.1478, -2.39745 15.1064, -2.43038  Q15.082, -2.45173 15.0765, -2.46334 " /><path d="M15.9725, 2.46335 Q15.9663, 2.44989 15.9376, 2.42654  Q15.897, 2.39707 15.842, 2.39597 " /><path d="M14.572, 2.39597 Q14.5129, 2.39745 14.4714, 2.43037  Q14.447, 2.45173 14.4415, 2.46335 " /><path d="M14.4704, -3.15587 L14.0675, -2.46335 " /><path d="M15.1054, 3.15586 L14.7025, 2.46336 " /><path id= "72" d=" M 13.3814 -3.175 L 13.2226 -3.175 " />
<path d="M13.1715, 2.46336 L12.7686, 3.15587 " /><path d="M13.8065, -2.46335 L13.4036, -3.15588 " /><path d="M14.0675, -2.46335 Q14.0613, -2.44989 14.0326, -2.42654  Q13.992, -2.39707 13.937, -2.39597  Q13.8778, -2.39746 13.8364, -2.43038  Q13.812, -2.45173 13.8065, -2.46335 " /><path d="M14.7025, 2.46336 Q14.6963, 2.4499 14.6676, 2.42654  Q14.6271, 2.39708 14.572, 2.39597 " /><path d="M13.302, 2.39598 Q13.2429, 2.39745 13.2014, 2.43038  Q13.177, 2.45173 13.1715, 2.46336 " /><path d="M13.2004, -3.15587 L12.7975, -2.46336 " /><path d="M13.8354, 3.15586 L13.4325, 2.46336 " /><path id= "80" d=" M 12.1114 -3.175 L 11.9526 -3.175 " />
<path d="M11.9015, 2.46336 L11.4986, 3.15587 " /><path d="M12.5365, -2.46335 L12.1336, -3.15588 " /><path d="M12.7975, -2.46336 Q12.7913, -2.4499 12.7626, -2.42654  Q12.722, -2.39707 12.667, -2.39597  Q12.6078, -2.39746 12.5664, -2.43039  Q12.542, -2.45173 12.5365, -2.46335 " /><path d="M13.4325, 2.46336 Q13.4263, 2.4499 13.3976, 2.42655  Q13.3571, 2.39708 13.302, 2.39598 " /><path d="M12.032, 2.39598 Q11.9729, 2.39746 11.9314, 2.43038  Q11.907, 2.45174 11.9015, 2.46336 " /><path d="M11.9304, -3.15587 L11.5275, -2.46336 " /><path d="M12.5654, 3.15586 L12.1625, 2.46336 " /><path id= "88" d=" M 10.8414 -3.175 L 3.55381 -3.175 " />
<path d="M10.6315, 2.46336 L10.2286, 3.15587 " /><path d="M11.2665, -2.46335 L10.8636, -3.15588 " /><path d="M11.5275, -2.46336 Q11.5213, -2.4499 11.4926, -2.42655  Q11.4521, -2.39707 11.397, -2.39598  Q11.3378, -2.39746 11.2964, -2.43039  Q11.272, -2.45174 11.2665, -2.46335 " /><path d="M12.1625, 2.46336 Q12.1563, 2.4499 12.1276, 2.42655  Q12.0871, 2.39708 12.032, 2.39598 " /><path d="M10.762, 2.39598 Q10.7029, 2.39746 10.6614, 2.43038  Q10.637, 2.45174 10.6315, 2.46336 " /><path d="M11.2967, 3.15582 L10.8966, 2.46685 " /><path d="M10.8966, 2.46685 Q10.8891, 2.45143 10.8607, 2.42819  Q10.8189, 2.3971 10.762, 2.39598 " /><path d="M3.13722, -3.33076 C3.25133, -3.23094 3.4022, -3.17453 3.55381, -3.175 " /><path id= "97" d=" M 3.13722 -3.33076 L 1.4732 -4.77727 " />
</g>
<g   fill="none"
   stroke="rgb(0, 0, 0)"
   stroke-linecap="butt"
   stroke-linejoin="miter"
   stroke-width="0.35"
   transform="scale(1, -1)"
  >
<path d="M25.4, 2.69679 C25.4, 3.00759 25.4, 3.17511 25.4, 3.175 " /><path d="M25.4, -2.02147 C25.4, -1.61051 25.4, -0.743589 25.4, 0.166183  C25.4, 1.12753 25.4, 2.10245 25.4, 2.69679 " /><path d="M25.4, -2.39925 C25.4, -2.39845 25.4, -2.3662 25.4, -2.30249  C25.4, -2.23507 25.4, -2.12867 25.4, -2.02147 " /><path id= "4" d=" M 25.4 3.175 L 25.2876 3.175 " />
<path d="M24.1764, 3.175 Q24.1875, 3.17499 24.1986, 3.15587 " /><path d="M24.1986, 3.15587 C24.2466, 3.07541 24.2946, 2.71491 24.3427, 2.15983  C24.4003, 1.4979 24.458, 0.560647 24.5156, -0.340981  C24.5598, -1.03203 24.604, -1.69518 24.6482, -2.19591  C24.7026, -2.81637 24.757, -3.17874 24.8114, -3.175 " /><path d="M24.8114, -3.175 Q24.8225, -3.17499 24.8336, -3.15587 " /><path id= "8" d=" M 24.1764 3.175 L 24.0176 3.175 " />
<path d="M24.0176, 3.175 C24.0621, 3.17672 24.1065, 2.93826 24.151, 2.50853  C24.218, 1.86797 24.2849, 0.788042 24.3519, -0.263266  C24.3949, -0.936878 24.4379, -1.58981 24.4809, -2.09638  C24.5307, -2.6868 24.5806, -3.07263 24.6304, -3.15587 " /><path d="M24.6304, -3.15587 Q24.6415, -3.17499 24.6526, -3.175 " /><path d="M25.2654, 3.15586 Q25.2765, 3.17499 25.2876, 3.175 " /><path d="M25.2876, 3.175 C25.3251, 3.17588 25.3625, 3.0082 25.4, 2.69679 " /><path d="M22.9064, 3.175 Q22.9175, 3.17499 22.9286, 3.15587 " /><path d="M22.9286, 3.15587 C22.9766, 3.07541 23.0246, 2.71491 23.0727, 2.15982  C23.1303, 1.49789 23.188, 0.560617 23.2456, -0.341021  C23.2935, -1.08912 23.3413, -1.80362 23.3892, -2.3164  C23.4399, -2.86422 23.4906, -3.17786 23.5414, -3.175 " /><path d="M23.5414, -3.175 Q23.5525, -3.17499 23.5636, -3.15587 " /><path id= "16" d=" M 22.9064 3.175 L 22.7476 3.175 " />
<path d="M22.7476, 3.175 C22.7926, 3.17679 22.8375, 2.93286 22.8825, 2.49428  C22.9487, 1.85491 23.0149, 0.789153 23.0811, -0.250379  C23.1239, -0.921782 23.1668, -1.57359 23.2096, -2.08116  C23.2599, -2.68002 23.3101, -3.07198 23.3604, -3.15587 " /><path d="M23.3604, -3.15587 Q23.3715, -3.17499 23.3826, -3.175 " /><path d="M23.9954, 3.15586 Q24.0065, 3.17499 24.0176, 3.175 " /><path d="M21.6364, 3.175 Q21.6475, 3.17499 21.6586, 3.15587 " /><path d="M21.6586, 3.15587 C21.7066, 3.07541 21.7546, 2.71491 21.8027, 2.15981  C21.8603, 1.49786 21.918, 0.56055 21.9756, -0.341112  C22.0198, -1.03133 22.0639, -1.69372 22.1081, -2.19421  C22.1625, -2.81569 22.2169, -3.17876 22.2714, -3.175 " /><path d="M22.2714, -3.175 Q22.2825, -3.17499 22.2936, -3.15587 " /><path id= "23" d=" M 21.6364 3.175 L 21.4776 3.175 " />
<path d="M21.4776, 3.175 C21.5221, 3.17672 21.5666, 2.93767 21.6111, 2.50697  C21.6778, 1.86903 21.7444, 0.796737 21.811, -0.249447  C21.8542, -0.927115 21.8975, -1.58482 21.9407, -2.09457  C21.9906, -2.68599 22.0405, -3.07255 22.0904, -3.15587 " /><path d="M22.0904, -3.15587 Q22.1015, -3.17499 22.1126, -3.175 " /><path d="M22.7254, 3.15586 Q22.7365, 3.17499 22.7476, 3.175 " /><path d="M20.3664, 3.175 Q20.3775, 3.17499 20.3886, 3.15587 " /><path d="M20.3886, 3.15587 C20.4366, 3.07541 20.4846, 2.7149 20.5327, 2.15981  C20.5903, 1.49784 20.648, 0.560501 20.7056, -0.341178  C20.7499, -1.03258 20.7941, -1.69604 20.8383, -2.19684  C20.8927, -2.81674 20.947, -3.17874 21.0014, -3.175 " /><path d="M21.0014, -3.175 Q21.0125, -3.17499 21.0236, -3.15587 " /><path id= "30" d=" M 20.3664 3.175 L 20.2076 3.175 " />
<path d="M20.2076, 3.175 C20.2521, 3.17672 20.2966, 2.93757 20.3412, 2.50672  C20.408, 1.86673 20.4748, 0.789664 20.5416, -0.259483  C20.5843, -0.927957 20.627, -1.57639 20.6696, -2.08177  C20.7199, -2.68029 20.7702, -3.072 20.8204, -3.15587 " /><path d="M20.8204, -3.15587 Q20.8315, -3.17499 20.8426, -3.175 " /><path d="M21.4554, 3.15586 Q21.4665, 3.17499 21.4776, 3.175 " /><path d="M19.0964, 3.175 Q19.1075, 3.17499 19.1186, 3.15587 " /><path d="M19.1186, 3.15587 C19.1666, 3.07541 19.2146, 2.7149 19.2627, 2.15979  C19.3203, 1.49779 19.378, 0.560394 19.4356, -0.341321  C19.4806, -1.04396 19.5255, -1.71758 19.5705, -2.22118  C19.6241, -2.8265 19.6777, -3.17855 19.7314, -3.175 " /><path d="M19.7314, -3.175 Q19.7425, -3.17499 19.7536, -3.15587 " /><path id= "37" d=" M 19.0964 3.175 L 18.9376 3.175 " />
<path d="M18.9376, 3.175 C18.9825, 3.17678 19.0273, 2.93385 19.0722, 2.49689  C19.1385, 1.85761 19.2048, 0.79004 19.2711, -0.251156  C19.314, -0.923244 19.3569, -1.57563 19.3998, -2.08333  C19.45, -2.68099 19.5002, -3.07207 19.5504, -3.15587 " /><path d="M19.5504, -3.15587 Q19.5615, -3.17499 19.5726, -3.175 " /><path d="M20.1854, 3.15586 Q20.1965, 3.17499 20.2076, 3.175 " /><path d="M17.8264, 3.175 Q17.8375, 3.17499 17.8486, 3.15587 " /><path d="M17.8486, 3.15587 C17.8966, 3.07541 17.9446, 2.7149 17.9927, 2.15979  C18.0503, 1.49777 18.108, 0.560358 18.1657, -0.34137  C18.2108, -1.0464 18.2559, -1.72217 18.301, -2.22634  C18.3544, -2.82856 18.4079, -3.17851 18.4614, -3.175 " /><path d="M18.4614, -3.175 Q18.4725, -3.17499 18.4836, -3.15587 " /><path id= "44" d=" M 17.8264 3.175 L 17.6676 3.175 " />
<path d="M17.6676, 3.175 C17.7126, 3.1768 17.7576, 2.9324 17.8026, 2.49305  C17.8689, 1.85195 17.9352, 0.782966 18.0016, -0.258363  C18.0444, -0.928965 18.0872, -1.57946 18.13, -2.08569  C18.1801, -2.68204 18.2303, -3.07217 18.2804, -3.15587 " /><path d="M18.2804, -3.15587 Q18.2915, -3.17499 18.3026, -3.175 " /><path d="M18.9154, 3.15586 Q18.9265, 3.17499 18.9376, 3.175 " /><path d="M16.5564, 3.175 Q16.5675, 3.17499 16.5786, 3.15587 " /><path d="M16.5786, 3.15587 C16.6266, 3.07541 16.6746, 2.71489 16.7227, 2.15978  C16.7803, 1.49774 16.838, 0.560293 16.8957, -0.341458  C16.9399, -1.03275 16.9841, -1.69608 17.0283, -2.1968  C17.0827, -2.81673 17.137, -3.17874 17.1914, -3.175 " /><path d="M17.1914, -3.175 Q17.2025, -3.17499 17.2136, -3.15587 " /><path id= "51" d=" M 16.5564 3.175 L 16.3976 3.175 " />
<path d="M16.3976, 3.175 C16.4427, 3.17682 16.4878, 2.9309 16.533, 2.48912  C16.5992, 1.84713 16.6655, 0.779045 16.7317, -0.260947  C16.7746, -0.932132 16.8174, -1.58298 16.8602, -2.08906  C16.9103, -2.68354 16.9604, -3.07231 17.0104, -3.15587 " /><path d="M17.0104, -3.15587 Q17.0215, -3.17499 17.0326, -3.175 " /><path d="M17.6454, 3.15586 Q17.6565, 3.17499 17.6676, 3.175 " /><path d="M15.2864, 3.175 Q15.2975, 3.17499 15.3086, 3.15587 " /><path d="M15.3086, 3.15587 C15.3566, 3.07541 15.4046, 2.71489 15.4527, 2.15977  C15.5103, 1.49772 15.568, 0.560255 15.6257, -0.341508  C15.6698, -1.03216 15.714, -1.69491 15.7582, -2.19545  C15.8126, -2.81618 15.867, -3.17875 15.9214, -3.175 " /><path d="M15.9214, -3.175 Q15.9325, -3.17499 15.9436, -3.15588 " /><path id= "58" d=" M 15.2864 3.175 L 15.1276 3.175 " />
<path d="M15.1276, 3.175 C15.172, 3.17671 15.2165, 2.93848 15.2609, 2.50912  C15.3278, 1.8696 15.3947, 0.791734 15.4616, -0.258398  C15.5044, -0.928845 15.5471, -1.57919 15.5899, -2.08537  C15.6401, -2.68189 15.6902, -3.07215 15.7404, -3.15587 " /><path d="M15.7404, -3.15587 Q15.7515, -3.17499 15.7626, -3.175 " /><path d="M16.3754, 3.15586 Q16.3865, 3.17499 16.3976, 3.175 " /><path d="M14.0164, 3.175 Q14.0275, 3.17499 14.0386, 3.15587 " /><path d="M14.0386, 3.15587 C14.0866, 3.07541 14.1346, 2.71489 14.1827, 2.15977  C14.2403, 1.4977 14.298, 0.560203 14.3557, -0.341578  C14.4005, -1.04229 14.4453, -1.71414 14.4901, -2.21724  C14.5439, -2.82492 14.5976, -3.17858 14.6514, -3.175 " /><path d="M14.6514, -3.175 Q14.6625, -3.17499 14.6736, -3.15588 " /><path id= "65" d=" M 14.0164 3.175 L 13.8576 3.175 " />
<path d="M13.8576, 3.175 C13.9021, 3.17673 13.9467, 2.93721 13.9912, 2.50575  C14.058, 1.86567 14.1248, 0.789133 14.1916, -0.259483  C14.2343, -0.92795 14.277, -1.57638 14.3196, -2.08175  C14.3699, -2.68028 14.4201, -3.07199 14.4704, -3.15587 " /><path d="M14.4704, -3.15587 Q14.4815, -3.17499 14.4926, -3.175 " /><path d="M15.1054, 3.15586 Q15.1165, 3.17499 15.1276, 3.175 " /><path d="M12.7464, 3.175 Q12.7575, 3.17499 12.7686, 3.15587 " /><path d="M12.7686, 3.15587 C12.8166, 3.07542 12.8646, 2.71489 12.9127, 2.15976  C12.9703, 1.49768 13.028, 0.560154 13.0857, -0.341645  C13.1308, -1.04702 13.1759, -1.72309 13.221, -2.22731  C13.2745, -2.82895 13.3279, -3.1785 13.3814, -3.175 " /><path d="M13.3814, -3.175 Q13.3925, -3.17499 13.4036, -3.15588 " /><path id= "72" d=" M 12.7464 3.175 L 12.5876 3.175 " />
<path d="M12.5876, 3.175 C12.6322, 3.17674 12.6769, 2.93614 12.7215, 2.50292  C12.7879, 1.86535 12.8543, 0.797178 12.9207, -0.245585  C12.964, -0.92357 13.0072, -1.58185 13.0505, -2.09223  C13.1005, -2.68495 13.1504, -3.07244 13.2004, -3.15587 " /><path d="M13.2004, -3.15587 Q13.2115, -3.17499 13.2226, -3.175 " /><path d="M13.8354, 3.15586 Q13.8465, 3.17499 13.8576, 3.175 " /><path d="M11.4764, 3.175 Q11.4875, 3.17499 11.4986, 3.15587 " /><path d="M11.4986, 3.15587 C11.5466, 3.07542 11.5946, 2.71489 11.6427, 2.15975  C11.7003, 1.49765 11.758, 0.560104 11.8157, -0.341713  C11.8598, -1.03205 11.904, -1.69451 11.9482, -2.19494  C12.0026, -2.81598 12.057, -3.17875 12.1114, -3.175 " /><path d="M12.1114, -3.175 Q12.1225, -3.17499 12.1336, -3.15588 " /><path id= "79" d=" M 11.4764 3.175 L 11.3176 3.175 " />
<path d="M11.3176, 3.175 C11.3623, 3.17676 11.407, 2.9353 11.4518, 2.5007  C11.5181, 1.86261 11.5845, 0.79493 11.6508, -0.247084  C11.6944, -0.929896 11.738, -1.59255 11.7815, -2.10428  C11.8311, -2.6903 11.8808, -3.07296 11.9304, -3.15587 " /><path d="M11.9304, -3.15587 Q11.9415, -3.17499 11.9526, -3.175 " /><path d="M12.5654, 3.15586 Q12.5765, 3.17499 12.5876, 3.175 " /><path d="M11.3176, 3.175 L10.9208, 2.48765 " /><path d="M10.2064, 3.175 Q10.2175, 3.17499 10.2286, 3.15587 " /><path d="M10.2286, 3.15587 C10.2766, 3.07542 10.3246, 2.71488 10.3727, 2.15974  C10.4303, 1.49763 10.488, 0.560047 10.5457, -0.341789  C10.5908, -1.04651 10.6358, -1.72198 10.6809, -2.22601  C10.7344, -2.82843 10.7879, -3.17851 10.8414, -3.175 " /><path d="M10.8414, -3.175 Q10.8525, -3.17499 10.8636, -3.15588 " /><path id= "87" d=" M 10.2064 3.175 L 3.55381 3.175 " />
<path d="M11.2967, 3.15582 Q11.3078, 3.17499 11.3176, 3.175 " /><path d="M10.9208, 2.48765 C10.8892, 2.4317 10.8263, 2.3954 10.762, 2.39598 " /><path d="M10.762, 2.39598 L10.762, 2.39598 " /><path d="M3.55381 3.175 A0.635 0.635 0 0 0 3.13722 3.33076" /><path id= "92" d=" M 3.13722 3.33076 L 1.4732 4.77727 " />
<path d="M1.4732, 4.69502 Q1.4732, 4.77699 1.4732, 4.77727 " /><path d="M1.4732, 4.69502 Q0.926783, 5.17833 0.255669, 5.76851 " /><path d="M0.255669, -5.76851 L0.255669, -5.4727  L0.255669, -4.95278  L0.255669, -4.23005  L0.255669, -3.33409  L0.255669, -2.3016  L0.255669, -1.17485  L0.255669, -6.21725e-15  L0.255669, 1.17485  L0.255669, 2.3016  L0.255669, 3.33409  L0.255669, 4.23005  L0.255669, 4.95278  L0.255669, 5.4727  L0.255669, 5.76851 " /><path d="M0.255669, -5.76851 Q0.926783, -5.17833 1.4732, -4.69502 " /><path d="M1.4732, -4.77727 Q1.4732, -4.77699 1.4732, -4.69502 " /><path id= "98" d=" M 0.255669 -5.76851 L 0 -5.76851 " />
<path id= "99" d=" M 0.255669 5.76851 L 0 5.76851 " />
<path d="M0, -5.76851 L0, -5.4727  L0, -4.95278  L0, -4.23005  L0, -3.33409  L0, -2.3016  L0, -1.17485  L0, -6.21725e-15  L0, 1.17485  L0, 2.3016  L0, 3.33409  L0, 4.23005  L0, 4.95278  L0, 5.4727  L0, 5.76851 " /></g>

</svg>
