<svg xmlns="http://www.w3.org/2000/svg" viewBox="-6.6914716 -4.0979616 13.3829432 8.1959232">
<rect width="100%" height="100%" fill="white"/>
<g   fill="none"
   stroke="rgb(165, 165, 165)"
   stroke-dasharray="1.2,0.8"
   stroke-linecap="butt"
   stroke-linejoin="miter"
   stroke-width="0.25"
   transform="scale(1, -1)"
  >
<path d="M3.175 0 A3.175 3.175 0 0 1 3.09179 0.722142" /><path d="M2.69679 -1.6757 A3.175 3.175 0 0 1 3.175 -7.77651e-16" /><path d="M-2.02147, -1.44976 C-1.82764, -1.82087 -1.53673, -2.14237 -1.1862, -2.37835  C-0.789015, -2.64707 -0.316321, -2.80502 0.166183, -2.83535  C0.722985, -2.87195 1.29058, -2.73856 1.78026, -2.46277  C2.13309, -2.26509 2.44604, -1.9953 2.69679, -1.6757 " /><path d="M-1.44975, 2.02148 C-1.61599, 1.86451 -1.7932, 1.6727 -1.93768, 1.45623  C-2.1503, 1.14187 -2.30168, 0.773225 -2.36408, 0.389398 " /><path d="M-2.36408, 0.389398 C-2.42805, 0.00600314 -2.40295, -0.391528 -2.30249, -0.75734  C-2.23507, -1.00892 -2.12867, -1.24762 -2.02147, -1.44976 " /><path d="M3.09179, 0.722142 C2.92293, 1.20226 2.63544, 1.63924 2.25984, 1.97852  C1.87647, 2.32648 1.40109, 2.57056 0.897092, 2.67223  C0.454019, 2.76271 -0.0100133, 2.74267 -0.438783, 2.61049  C-0.816729, 2.49477 -1.16651, 2.2922 -1.44975, 2.02148 " /><path d="M3.175, 4.49196e-13 C3.17904, -0.872078 2.80182, -1.73686 2.15983, -2.32718  C1.4979, -2.9479 0.560647, -3.25875 -0.340981, -3.15664  C-1.03203, -3.08367 -1.69518, -2.77498 -2.19591, -2.29317  C-2.80875, -1.71126 -3.17019, -0.87599 -3.17485, -0.0309035  C-3.1865, 0.808005 -2.84654, 1.64439 -2.25282, 2.23728  C-1.75448, 2.74166 -1.08239, 3.06974 -0.378182, 3.1524  C0.506902, 3.26301 1.43148, 2.97576 2.09807, 2.38301  C2.59127, 1.95056 2.9439, 1.36118 3.09179, 0.722142 " /><path d="M3.175, 7.22222e-12 C3.17672, -0.698794 2.93826, -1.39517 2.50853, -1.94625  C2.16315, -2.39262 1.69614, -2.74353 1.17129, -2.95105  C0.718035, -3.1314 0.222834, -3.20493 -0.263266, -3.16407  C-0.936878, -3.10953 -1.58981, -2.83185 -2.09638, -2.3845  C-2.7256, -1.83587 -3.12067, -1.02984 -3.16891, -0.196487  C-3.22277, 0.620737 -2.9427, 1.45326 -2.40592, 2.07175  C-1.94355, 2.61151 -1.29446, 2.98693 -0.596033, 3.11855  C-0.315957, 3.1719 -0.0338008, 3.18742 0.250436, 3.16511  C0.866632, 3.11741 1.46678, 2.88407 1.95336, 2.503  C2.4503, 2.11662 2.82703, 1.5786 3.02014, 0.979483  C3.12305, 0.661097 3.17467, 0.334603 3.175, 2.9039e-12 " /><path d="M3.175, 2.99227e-12 C3.17588, -0.588613 3.0082, -1.17619 2.69679, -1.6757 " /><path d="M3.175, 1.10068e-12 C3.17904, -0.87208 2.80182, -1.73686 2.15982, -2.32718  C1.49789, -2.94792 0.560617, -3.25876 -0.341021, -3.15663  C-1.08912, -3.0781 -1.80362, -2.72174 -2.3164, -2.17139  C-2.85964, -1.59592 -3.1728, -0.811066 -3.17494, -0.019692  C-3.18345, 0.811341 -2.84729, 1.63883 -2.26153, 2.22848  C-1.75925, 2.74091 -1.07825, 3.07326 -0.365259, 3.15392  C0.514053, 3.26006 1.43082, 2.97407 2.09384, 2.38673  C2.77494, 1.79531 3.17959, 0.901968 3.175, 3.68372e-13 " /><path d="M3.175, 1.31268e-11 C3.17679, -0.706532 2.93286, -1.41051 2.49428, -1.96448  C2.14949, -2.4034 1.68648, -2.74817 1.16716, -2.95269  C0.719034, -3.13025 0.230107, -3.20352 -0.250379, -3.16511  C-0.921782, -3.11349 -1.57359, -2.8403 -2.08116, -2.39779  C-2.72431, -1.84439 -3.1267, -1.02335 -3.17011, -0.176077  C-3.21823, 0.634801 -2.93803, 1.45872 -2.4056, 2.07213  C-1.94216, 2.61297 -1.29123, 2.9887 -0.591107, 3.11949  C-0.31986, 3.17073 -0.046568, 3.18648 0.228769, 3.16675  C0.85293, 3.12277 1.46189, 2.88826 1.95433, 2.50224  C2.45373, 2.11367 2.83154, 1.57186 3.02354, 0.968925  C3.1242, 0.653792 3.17468, 0.330817 3.175, 7.27818e-12 " /><path d="M3.175, 2.00062e-12 C3.17904, -0.872084 2.80182, -1.73687 2.15981, -2.32719  C1.49786, -2.94794 0.56055, -3.25878 -0.341112, -3.15662  C-1.03133, -3.08371 -1.69372, -2.77565 -2.19421, -2.29479  C-2.80837, -1.71251 -3.17055, -0.875949 -3.17486, -0.0296545  C-3.18611, 0.806445 -2.84822, 1.63995 -2.25785, 2.23221  C-1.75723, 2.74122 -1.08001, 3.07176 -0.370731, 3.15328  C0.511521, 3.26138 1.43213, 2.97445 2.09675, 2.38417  C2.77614, 1.79276 3.17957, 0.900666 3.175, 1.15907e-12 " /><path d="M3.175, 2.10112e-11 C3.17672, -0.699645 2.93767, -1.39686 2.50697, -1.94826  C2.16292, -2.39217 1.69852, -2.74148 1.17661, -2.94893  C0.726202, -3.12908 0.234122, -3.2037 -0.249447, -3.16519  C-0.927115, -3.11332 -1.58482, -2.8356 -2.09457, -2.38608  C-2.71533, -1.84548 -3.10909, -1.05462 -3.1664, -0.233525  C-3.22542, 0.533004 -2.9921, 1.31711 -2.5236, 1.92667  C-2.05951, 2.53861 -1.36555, 2.97009 -0.611434, 3.11557  C-0.334755, 3.16969 -0.0558033, 3.18683 0.225421, 3.16699  C0.849078, 3.12371 1.45777, 2.89022 1.95038, 2.50532  C2.45162, 2.11659 2.83089, 1.57368 3.02342, 0.969296  C3.12415, 0.654048 3.17468, 0.33095 3.175, 1.30957e-11 " /><path d="M3.175, 3.25029e-12 C3.17904, -0.872087 2.80182, -1.73687 2.15981, -2.3272  C1.49784, -2.94796 0.560501, -3.25879 -0.341178, -3.15662  C-1.03258, -3.08357 -1.69604, -2.77454 -2.19684, -2.29228  C-2.80901, -1.71053 -3.17006, -0.875877 -3.17484, -0.0313855  C-3.18655, 0.804734 -2.84909, 1.63845 -2.25901, 2.23103  C-1.76177, 2.73709 -1.0901, 3.06711 -0.385676, 3.15149  C0.50005, 3.26433 1.42627, 2.97855 2.09445, 2.38619  C2.7752, 1.79477 3.17959, 0.901694 3.175, 1.89049e-12 " /><path d="M3.175, 3.04254e-11 C3.17672, -0.699782 2.93757, -1.39713 2.50672, -1.94859  C2.16235, -2.39278 1.69745, -2.74223 1.17504, -2.94956  C0.721943, -3.13051 0.226747, -3.20467 -0.259483, -3.16438  C-0.927957, -3.11102 -1.57639, -2.83806 -2.08177, -2.39726  C-2.71185, -1.85457 -3.11129, -1.05512 -3.16698, -0.225485  C-3.23004, 0.611222 -2.94198, 1.46679 -2.38572, 2.09498  C-1.92321, 2.62434 -1.2797, 2.99136 -0.588616, 3.11996  C-0.318086, 3.17084 -0.0455383, 3.18643 0.229028, 3.16673  C0.852643, 3.12274 1.46107, 2.88856 1.95325, 2.50308  C2.44982, 2.11703 2.82638, 1.57957 3.01964, 0.981014  C3.12288, 0.662157 3.17466, 0.335153 3.175, 2.09988e-11 " /><path d="M3.175, 4.73488e-12 C3.17904, -0.872094 2.80181, -1.73689 2.15979, -2.32721  C1.49779, -2.948 0.560394, -3.25883 -0.341321, -3.1566  C-1.04396, -3.08242 -1.71758, -2.76425 -2.22118, -2.26869  C-2.82328, -1.68407 -3.17496, -0.852433 -3.17497, -0.0132056  C-3.18177, 0.817101 -2.84455, 1.64318 -2.25852, 2.23152  C-1.75963, 2.73907 -1.08521, 3.06938 -0.378372, 3.15237  C0.506072, 3.26295 1.42999, 2.97627 2.0965, 2.38439  C2.77604, 1.79298 3.17957, 0.900774 3.175, 3.27915e-12 " /><path d="M3.175, 4.16511e-11 C3.17678, -0.70512 2.93385, -1.40771 2.49689, -1.96116  C2.15314, -2.39996 1.69136, -2.74501 1.17314, -2.95032  C0.723144, -3.12969 0.23172, -3.20378 -0.251156, -3.16505  C-0.923244, -3.11321 -1.57563, -2.83934 -2.08333, -2.3959  C-2.71681, -1.84964 -3.11655, -1.04364 -3.16813, -0.208827  C-3.22654, 0.625301 -2.9363, 1.47638 -2.38041, 2.10101  C-1.92513, 2.6193 -1.29608, 2.98111 -0.619154, 3.11404  C-0.339508, 3.16946 -0.0575015, 3.18708 0.226867, 3.16688  C0.849021, 3.12341 1.4562, 2.89068 1.94801, 2.50716  C2.44569, 2.12192 2.82351, 1.58483 3.01793, 0.986259  C3.1223, 0.665789 3.17466, 0.337036 3.175, 3.04263e-11 " /><path d="M3.175, 6.48837e-12 C3.17904, -0.872097 2.80181, -1.73689 2.15979, -2.32722  C1.49777, -2.94801 0.560358, -3.25884 -0.34137, -3.15659  C-1.0464, -3.08217 -1.72217, -2.76204 -2.22634, -2.26363  C-2.82322, -1.68134 -3.17255, -0.855813 -3.17492, -0.0219523  C-3.18404, 0.809567 -2.84805, 1.63777 -2.26208, 2.22792  C-1.76551, 2.73469 -1.09423, 3.06565 -0.389869, 3.15097  C0.498277, 3.26536 1.42764, 2.97873 2.09708, 2.38388  C2.77627, 1.79248 3.17956, 0.90052 3.175, 4.74909e-12 " /><path d="M3.175, 5.46421e-11 C3.1768, -0.707198 2.9324, -1.41183 2.49305, -1.96605  C2.14779, -2.405 1.68422, -2.74962 1.1644, -2.95378  C0.714552, -3.13154 0.223704, -3.20423 -0.258363, -3.16447  C-0.928965, -3.1112 -1.57946, -2.83687 -2.08569, -2.39385  C-2.71815, -1.84737 -3.11699, -1.04179 -3.16821, -0.207584  C-3.22631, 0.626681 -2.93564, 1.47776 -2.37936, 2.1022  C-1.92168, 2.62273 -1.28862, 2.98513 -0.60801, 3.11624  C-0.332006, 3.16992 -0.053769, 3.1868 0.226701, 3.1669  C0.849019, 3.12345 1.45636, 2.89063 1.94827, 2.50697  C2.45267, 2.11649 2.8338, 1.56995 3.02586, 0.961661  C3.12498, 0.648769 3.17469, 0.328215 3.175, 4.16973e-11 " /><path d="M3.175, 8.51941e-12 C3.17904, -0.872101 2.80181, -1.7369 2.15978, -2.32723  C1.49774, -2.94803 0.560293, -3.25885 -0.341458, -3.15659  C-1.03275, -3.08349 -1.69608, -2.77449 -2.1968, -2.29231  C-2.80988, -1.70974 -3.17105, -0.873514 -3.17488, -0.0277979  C-3.18563, 0.807984 -2.84753, 1.64098 -2.25722, 2.23284  C-1.75572, 2.74248 -1.07714, 3.07303 -0.366703, 3.15375  C0.515939, 3.26076 1.43644, 2.97245 2.10036, 2.38099  C2.77762, 1.7896 3.17954, 0.899045 3.175, 6.57119e-12 " /><path d="M3.175, 6.95008e-11 C3.17682, -0.70932 2.9309, -1.41604 2.48912, -1.97102  C2.14692, -2.40426 1.68935, -2.74515 1.17631, -2.94905  C0.722413, -3.13056 0.226206, -3.20485 -0.260947, -3.16426  C-0.932132, -3.11039 -1.58298, -2.83506 -2.08906, -2.39091  C-2.71945, -1.84464 -3.11688, -1.04068 -3.16817, -0.208187  C-3.2265, 0.626932 -2.9353, 1.47895 -2.37805, 2.10369  C-1.91877, 2.6254 -1.2832, 2.98794 -0.600354, 3.11772  C-0.325061, 3.17057 -0.047625, 3.18683 0.231956, 3.16652  C0.856021, 3.12191 1.4647, 2.88683 1.95673, 2.50037  C2.44858, 2.11685 2.82231, 1.58466 3.01611, 0.991826  C3.12168, 0.669646 3.17465, 0.339037 3.175, 5.47042e-11 " /><path d="M3.175, 1.08491e-11 C3.17904, -0.872103 2.8018, -1.7369 2.15977, -2.32723  C1.49772, -2.94805 0.560255, -3.25887 -0.341508, -3.15658  C-1.03216, -3.08354 -1.69491, -2.77504 -2.19545, -2.2936  C-2.81027, -1.71009 -3.17212, -0.871606 -3.17491, -0.0239737  C-3.18466, 0.812229 -2.84521, 1.64521 -2.25367, 2.23642  C-1.75613, 2.74036 -1.08521, 3.06853 -0.381963, 3.15194  C0.500634, 3.26328 1.42304, 2.97904 2.0899, 2.39017  C2.77333, 1.79874 3.17963, 0.903729 3.175, 8.58869e-12 " /><path d="M3.175, 8.61675e-11 C3.17671, -0.698471 2.93848, -1.39453 2.50912, -1.94549  C2.16218, -2.39418 1.69233, -2.74648 1.16439, -2.95378  C0.714531, -3.13155 0.223675, -3.20424 -0.258398, -3.16447  C-0.928845, -3.1112 -1.57919, -2.83698 -2.08537, -2.39413  C-2.71386, -1.85114 -3.11193, -1.05238 -3.16711, -0.223722  C-3.2298, 0.61422 -2.94032, 1.47086 -2.38219, 2.099  C-1.91994, 2.62623 -1.27792, 2.99168 -0.588593, 3.11997  C-0.318047, 3.17085 -0.0454827, 3.18643 0.2291, 3.16672  C0.852936, 3.1227 1.46157, 2.88835 1.95384, 2.50263  C2.45213, 2.11506 2.82946, 1.57499 3.02198, 0.973785  C3.12367, 0.657154 3.17467, 0.332559 3.175, 6.94396e-11 " /><path d="M3.175, 1.34539e-11 C3.17904, -0.872106 2.8018, -1.73691 2.15977, -2.32724  C1.4977, -2.94806 0.560203, -3.25888 -0.341578, -3.15657  C-1.04229, -3.08252 -1.71414, -2.76587 -2.21724, -2.27255  C-2.81932, -1.68994 -3.17232, -0.860737 -3.17492, -0.0229245  C-3.18426, 0.807489 -2.84945, 1.63473 -2.26507, 2.22488  C-1.76329, 2.73843 -1.08228, 3.07195 -0.368932, 3.15349  C0.510145, 3.26065 1.42713, 2.97581 2.09081, 2.38938  C2.7737, 1.79795 3.17962, 0.903322 3.175, 1.08553e-11 " /><path d="M3.175, 1.04563e-10 C3.17673, -0.700308 2.93721, -1.39817 2.50575, -1.94983  C2.15906, -2.39659 1.69038, -2.74732 1.16398, -2.95394  C0.713894, -3.13173 0.222791, -3.20433 -0.259483, -3.16438  C-0.92795, -3.11103 -1.57638, -2.83806 -2.08175, -2.39728  C-2.70798, -1.85784 -3.10656, -1.06482 -3.16588, -0.240491  C-3.22624, 0.522071 -2.99736, 1.30271 -2.53478, 1.91195  C-2.07219, 2.52939 -1.37653, 2.96597 -0.619363, 3.114  C-0.330095, 3.17133 -0.0384839, 3.18823 0.25547, 3.16471  C0.872238, 3.11598 1.47263, 2.88124 1.95887, 2.49869  C2.45418, 2.11182 2.82933, 1.57407 3.02138, 0.975643  C3.12347, 0.65844 3.17467, 0.333225 3.175, 8.6124e-11 " /><path d="M3.175, 1.63392e-11 C3.17904, -0.872109 2.8018, -1.73692 2.15976, -2.32724  C1.49768, -2.94808 0.560154, -3.25889 -0.341645, -3.15657  C-1.04702, -3.08204 -1.72309, -2.76156 -2.22731, -2.26268  C-2.82482, -1.6793 -3.1739, -0.85206 -3.17495, -0.0169829  C-3.18271, 0.811657 -2.84787, 1.63653 -2.26465, 2.22531  C-1.76214, 2.73943 -1.07995, 3.07299 -0.365607, 3.15388  C0.513022, 3.26003 1.42911, 2.97468 2.09206, 2.38829  C2.77422, 1.79686 3.17961, 0.902763 3.175, 1.34084e-11 " /><path d="M3.175, 1.24742e-10 C3.17674, -0.701849 2.93614, -1.40123 2.50292, -1.95346  C2.15585, -2.39936 1.68713, -2.74922 1.16094, -2.95514  C0.716007, -3.13035 0.231137, -3.20286 -0.245585, -3.16549  C-0.92357, -3.11443 -1.58185, -2.83733 -2.09223, -2.38813  C-2.7244, -1.8389 -3.12129, -1.0302 -3.16906, -0.194199  C-3.22232, 0.623065 -2.94165, 1.45538 -2.40443, 2.07349  C-1.94187, 2.61266 -1.2929, 2.98752 -0.594734, 3.1188  C-0.313986, 3.17215 -0.0311757, 3.1875 0.253697, 3.16485  C0.870345, 3.11648 1.47073, 2.88217 1.95713, 2.50006  C2.44991, 2.11569 2.82405, 1.58207 3.01744, 0.987779  C3.12213, 0.666842 3.17465, 0.337582 3.175, 1.04578e-10 " /><path d="M3.175, 1.95e-11 C3.17904, -0.872113 2.80179, -1.73692 2.15975, -2.32725  C1.49765, -2.9481 0.560104, -3.25891 -0.341713, -3.15656  C-1.03205, -3.0835 -1.69451, -2.7752 -2.19494, -2.29409  C-2.81183, -1.70893 -3.1741, -0.867101 -3.17496, -0.0168258  C-3.18267, 0.811886 -2.84773, 1.63681 -2.26439, 2.22557  C-1.76905, 2.73212 -1.09934, 3.06357 -0.396172, 3.15019  C0.495153, 3.26685 1.42874, 2.9793 2.09999, 2.38132  C2.77747, 1.78992 3.17954, 0.899212 3.175, 1.636e-11 " /><path d="M3.175, 1.46692e-10 C3.17676, -0.703055 2.9353, -1.40362 2.5007, -1.9563  C2.15538, -2.3989 1.69013, -2.7466 1.16785, -2.95241  C0.720565, -3.12977 0.232592, -3.20321 -0.247084, -3.16537  C-0.929896, -3.11366 -1.59255, -2.83255 -2.10428, -2.37753  C-2.72177, -1.83531 -3.11208, -1.04462 -3.16704, -0.224752  C-3.2301, 0.614309 -2.93999, 1.47221 -2.38061, 2.10079  C-1.92547, 2.61902 -1.29661, 2.98085 -0.619841, 3.11391  C-0.339558, 3.16952 -0.056907, 3.18715 0.228113, 3.16679  C0.852285, 3.12295 1.46129, 2.88857 1.95382, 2.50264  C2.45206, 2.11512 2.82937, 1.57512 3.02191, 0.973995  C3.12365, 0.657299 3.17467, 0.332634 3.175, 1.24737e-10 " /><path d="M3.175, 1.46696e-10 L2.48765, 2.60249e-06 " /><path d="M3.175, 2.29359e-11 C3.17904, -0.872116 2.80179, -1.73693 2.15974, -2.32726  C1.49763, -2.94812 0.560047, -3.25893 -0.341789, -3.15655  C-1.04651, -3.08206 -1.72198, -2.76208 -2.22601, -2.26395  C-2.821, -1.68364 -3.1702, -0.861677 -3.17485, -0.0305592  C-3.18639, 0.807466 -2.8471, 1.64295 -2.25444, 2.23565  C-1.75775, 2.73906 -1.08811, 3.06727 -0.385948, 3.15146  C0.504243, 3.26501 1.43528, 2.97567 2.10433, 2.37749  C2.77924, 1.78612 3.1795, 0.897267 3.175, 1.95364e-11 " /><path d="M3.175, 2.29371e-11 C3.17606, 0.601793 3.00012, 1.20335 2.67558, 1.70935  C2.39457, 2.15025 2.00326, 2.51811 1.54979, 2.77106  C0.969493, 3.0971 0.288955, 3.23115 -0.365625, 3.15388  C-0.986055, 3.08298 -1.58095, 2.82391 -2.05438, 2.42077 " /><path d="M-2.05438, 2.42077 C-2.24484, 2.26013 -2.41551, 2.07236 -2.54186, 1.90252  C-2.60968, 1.81252 -2.66795, 1.72129 -2.66821, 1.72083 " /><path d="M-2.66821, 1.72083 C-2.66698, 1.72311 -2.6535, 1.7435 -2.62777, 1.78198  C-2.59223, 1.83452 -2.54161, 1.90519 -2.48489, 1.97635  C-2.36608, 2.12616 -2.21845, 2.28197 -2.05426, 2.42088 " /><path d="M-2.05426, 2.42088 C-1.54338, 2.85607 -0.89236, 3.12181 -0.220588, 3.16733  C0.152937, 3.19348 0.532124, 3.15285 0.893887, 3.04657  C1.59744, 2.84246 2.23082, 2.38184 2.64253, 1.76001  C2.98661, 1.2456 3.17618, 0.624475 3.175, 1.46695e-10 " /><path d="M2.48763, 2.60253e-06 L3.175, 2.29367e-11 " /><path d="M2.48765, 2.60249e-06 Q2.39941, 2.93655e-06 2.39598, 2.94953e-06 " /><path d="M2.39598, 2.94953e-06 Q2.39941, 2.93653e-06 2.48763, 2.60253e-06 " /><circle cx ="0" cy ="0" r ="3.175" /><path d="M4.69502, -0.88265 Q5.17833, -0.88265 5.76851, -0.88265 " /><path d="M-5.76851 -0.88265 A5.83565 5.83565 0 0 1 5.76851 -0.88265" /><path d="M-5.76851, -0.88265 Q-5.17833, -0.88265 -4.69502, -0.88265 " /><path d="M-5.76851, 0.88265 Q-5.17833, 0.88265 -4.69502, 0.88265 " /><path d="M5.76851 0.88265 A5.83565 5.83565 0 0 1 -5.76851 0.88265" /><path d="M4.69502, 0.88265 Q5.17833, 0.88265 5.76851, 0.88265 " /><path id= "46" d=" M -4.69502 0.88265 L 4.69502 0.88265 " />
<path id= "47" d=" M -4.69502 -0.88265 L 4.69502 -0.88265 " />
</g>
<g   fill="none"
   stroke="rgb(165, 165, 165)"
   stroke-dasharray="1.2,0.8"
   stroke-linecap="butt"
   stroke-linejoin="miter"
   stroke-width="0.25"
   transform="scale(1, -1)"
  >
<path d="M2.39594, 4.53784e-07 C2.3963, -0.377916 2.30528, -0.755465 2.13277, -1.09171  C1.93232, -1.48469 1.6206, -1.81985 1.24315, -2.04821  C0.840371, -2.29365 0.363837, -2.4155 -0.107323, -2.39354  C-0.74508, -2.36764 -1.36597, -2.07245 -1.78864, -1.59416  C-2.26639, -1.06434 -2.48411, -0.313851 -2.36408, 0.389398 " /><path d="M2.39595, 6.80675e-07 C2.39661, -0.443702 2.27035, -0.886597 2.03585, -1.26327  C1.79665, -1.65013 1.44444, -1.96583 1.03381, -2.16145  C0.569654, -2.38475 0.0325231, -2.45162 -0.472218, -2.34896  C-0.982464, -2.24762 -1.45627, -1.97391 -1.79896, -1.58253  C-2.15882, -1.17562 -2.37255, -0.643068 -2.39386, -0.100281  C-2.41972, 0.47437 -2.22859, 1.05524 -1.86652, 1.50222  C-1.44035, 2.03736 -0.775299, 2.37157 -0.0915724, 2.39419  C0.4838, 2.41803 1.06461, 2.22431 1.51047, 1.85985  C2.06524, 1.41455 2.40005, 0.711366 2.39594, 4.53784e-07 " /><path d="M2.39595, 9.07564e-07 C2.39661, -0.443702 2.27035, -0.886598 2.03586, -1.26327  C1.79665, -1.65013 1.44445, -1.96584 1.03381, -2.16145  C0.569658, -2.38475 0.0325303, -2.45162 -0.472209, -2.34896  C-0.982452, -2.24763 -1.45626, -1.97393 -1.79895, -1.58255  C-2.15917, -1.17524 -2.37296, -0.642044 -2.39393, -0.0987071  C-2.41943, 0.476216 -2.22773, 1.05721 -1.86506, 1.50405  C-1.43652, 2.04116 -0.767117, 2.37516 -0.0802694, 2.3946  C0.414793, 2.41222 0.913824, 2.27063 1.32587, 1.99565  C1.65349, 1.77852 1.9262, 1.47879 2.11156, 1.13222  C2.29765, 0.786047 2.39641, 0.393039 2.39595, 6.80675e-07 " /><path d="M2.39596, 1.13445e-06 C2.39662, -0.443703 2.27036, -0.886599 2.03586, -1.26327  C1.79665, -1.65014 1.44445, -1.96584 1.03382, -2.16145  C0.569662, -2.38475 0.0325353, -2.45162 -0.472204, -2.34897  C-0.982444, -2.24763 -1.45625, -1.97394 -1.79894, -1.58256  C-2.15941, -1.17498 -2.37325, -0.64133 -2.39397, -0.0976102  C-2.41922, 0.477498 -2.22713, 1.05858 -1.86405, 1.5053  C-1.43393, 2.04369 -0.761669, 2.37753 -0.0727865, 2.39485  C0.51098, 2.41452 1.09846, 2.21006 1.54388, 1.83222  C2.07913, 1.38613 2.39975, 0.696767 2.39595, 9.07564e-07 " /><path d="M2.39596, 1.36134e-06 C2.39662, -0.443703 2.27036, -0.8866 2.03586, -1.26327  C1.79665, -1.65014 1.44445, -1.96584 1.03382, -2.16145  C0.569668, -2.38475 0.0325458, -2.45163 -0.47219, -2.34897  C-0.982425, -2.24764 -1.45622, -1.97396 -1.79892, -1.58259  C-2.15981, -1.17455 -2.37372, -0.640154 -2.39405, -0.0957991  C-2.41879, 0.477926 -2.22729, 1.05745 -1.86555, 1.50345  C-1.43777, 2.03993 -0.769769, 2.37401 -0.0839221, 2.39449  C0.506518, 2.41719 1.10172, 2.21034 1.55082, 1.82635  C2.082, 1.38017 2.39969, 0.693702 2.39596, 1.13445e-06 " /><path d="M2.39596, 1.58823e-06 C2.39662, -0.443704 2.27036, -0.886602 2.03587, -1.26327  C1.79666, -1.65014 1.44446, -1.96584 1.03382, -2.16146  C0.569667, -2.38476 0.0325426, -2.45163 -0.472195, -2.34898  C-0.982433, -2.24764 -1.45623, -1.97395 -1.79893, -1.58258  C-2.15969, -1.17469 -2.37357, -0.640534 -2.39403, -0.0963834  C-2.41899, 0.478928 -2.22646, 1.0601 -1.86293, 1.5067  C-1.41582, 2.06619 -0.706759, 2.40294 0.00940161, 2.39594  C0.566686, 2.39536 1.12072, 2.19155 1.54552, 1.83084  C2.07981, 1.38473 2.39974, 0.696047 2.39596, 1.36134e-06 " /><path d="M2.39597, 1.81511e-06 C2.39663, -0.443704 2.27037, -0.886603 2.03587, -1.26327  C1.79666, -1.65014 1.44446, -1.96585 1.03382, -2.16146  C0.56967, -2.38476 0.0325459, -2.45163 -0.472192, -2.34898  C-0.982428, -2.24765 -1.45623, -1.97396 -1.79892, -1.58259  C-2.1598, -1.17457 -2.37371, -0.640198 -2.39406, -0.095864  C-2.41882, 0.478167 -2.22712, 1.05801 -1.86502, 1.50412  C-1.4364, 2.0413 -0.766848, 2.37529 -0.0798939, 2.39463  C0.415705, 2.41219 0.915252, 2.27019 1.32752, 1.99458  C1.65469, 1.77735 1.92696, 1.47772 2.11203, 1.13136  C2.29783, 0.785402 2.39642, 0.392717 2.39596, 1.58823e-06 " /><path d="M2.39597, 2.042e-06 C2.39663, -0.443704 2.27037, -0.886604 2.03587, -1.26328  C1.79666, -1.65015 1.44446, -1.96585 1.03383, -2.16146  C0.569673, -2.38476 0.0325506, -2.45164 -0.472186, -2.34899  C-0.982421, -2.24766 -1.45622, -1.97397 -1.79892, -1.58261  C-2.15997, -1.1744 -2.3739, -0.639712 -2.39409, -0.0951158  C-2.4185, 0.475467 -2.22914, 1.05177 -1.87103, 1.49664  C-1.4537, 2.02363 -0.805376, 2.35789 -0.134037, 2.39221  C0.462752, 2.42776 1.06923, 2.22821 1.52831, 1.84524  C2.07268, 1.39945 2.3999, 0.703608 2.39597, 1.81511e-06 " /><path d="M2.39597, 2.26888e-06 C2.39663, -0.443705 2.27037, -0.886605 2.03588, -1.26328  C1.79667, -1.65015 1.44446, -1.96585 1.03383, -2.16147  C0.569674, -2.38477 0.0325503, -2.45164 -0.472187, -2.34899  C-0.982423, -2.24766 -1.45622, -1.97397 -1.79892, -1.58261  C-2.15996, -1.17442 -2.37389, -0.639759 -2.39409, -0.0951872  C-2.41853, 0.475713 -2.22896, 1.05234 -1.87048, 1.49733  C-1.45163, 2.0259 -0.800296, 2.36029 -0.126667, 2.39262  C0.458044, 2.42552 1.05153, 2.23321 1.50583, 1.86364  C2.06331, 1.41849 2.40012, 0.713391 2.39597, 2.042e-06 " /><path d="M2.39598, 2.49576e-06 C2.39664, -0.443705 2.27038, -0.886606 2.03588, -1.26328  C1.79667, -1.65015 1.44446, -1.96585 1.03383, -2.16147  C0.569675, -2.38477 0.0325508, -2.45164 -0.472188, -2.34899  C-0.982424, -2.24766 -1.45623, -1.97398 -1.79892, -1.58261  C-2.15997, -1.17441 -2.3739, -0.639731 -2.3941, -0.0951429  C-2.41852, 0.475559 -2.22908, 1.05198 -1.87083, 1.4969  C-1.45294, 2.02448 -0.803494, 2.35879 -0.131302, 2.39237  C0.451416, 2.42628 1.04332, 2.23654 1.49773, 1.87017  C2.05992, 1.4253 2.4002, 0.716908 2.39597, 2.26888e-06 " /><path d="M2.39598, 2.72265e-06 C2.39664, -0.443706 2.27038, -0.886607 2.03588, -1.26328  C1.79667, -1.65015 1.44447, -1.96586 1.03383, -2.16147  C0.569677, -2.38477 0.0325539, -2.45165 -0.472184, -2.349  C-0.982419, -2.24767 -1.45622, -1.97398 -1.79892, -1.58262  C-2.16008, -1.17429 -2.37403, -0.639413 -2.39412, -0.0946513  C-2.41828, 0.473303 -2.23072, 1.04691 -1.87567, 1.49086  C-1.53667, 1.91971 -1.04622, 2.22532 -0.511877, 2.34066  C0.182617, 2.49673 0.941593, 2.31959 1.49522, 1.87217  C2.05887, 1.42741 2.40023, 0.71798 2.39598, 2.49576e-06 " /><path d="M2.39598, 2.94953e-06 C2.39664, -0.443706 2.27038, -0.886608 2.03588, -1.26328  C1.79667, -1.65015 1.44447, -1.96586 1.03383, -2.16147  C0.56968, -2.38478 0.0325566, -2.45165 -0.472181, -2.349  C-0.982416, -2.24767 -1.45622, -1.97399 -1.79891, -1.58263  C-2.16017, -1.1742 -2.37414, -0.639155 -2.39414, -0.0942531  C-2.41808, 0.471143 -2.23228, 1.04214 -1.88019, 1.48517  C-1.55436, 1.89971 -1.08753, 2.2005 -0.575389, 2.32586  C0.0766261, 2.49057 0.794929, 2.36155 1.34887, 1.98022  C1.67013, 1.7619 1.93687, 1.46357 2.11809, 1.12002  C2.30001, 0.776838 2.39642, 0.388442 2.39598, 2.72265e-06 " /><path d="M-2.66821, 1.72083 C-2.30552, 2.19502 -1.78812, 2.54808 -1.21433, 2.71294  C-0.747829, 2.84868 -0.246168, 2.86072 0.226312, 2.74752  C0.921284, 2.58455 1.54599, 2.14554 1.93475, 1.54686  C2.23447, 1.09063 2.39689, 0.545888 2.39598, 2.94953e-06 " /></g>
<g   fill="none"
   stroke="rgb(0, 0, 0)"
   stroke-linecap="butt"
   stroke-linejoin="miter"
   stroke-width="0.35"
   transform="scale(1, -1)"
  >
<path d="M4.69502 -0.88265 A4.77727 4.77727 0 0 1 4.77727 -1.17009e-15" /><path d="M-4.69502 0.88265 A4.77727 4.77727 0 0 1 -4.69502 -0.88265" /><path d="M4.77727 0 A4.77727 4.77727 0 0 1 4.69502 0.88265" /><path id= "4" d=" M 5.76851 0.88265 L -5.76851 0.88265 " />
<path d="M5.76851 0.88265 A5.83565 5.83565 0 0 1 -5.76851 0.88265" /><path id= "6" d=" M 5.76851 -0.88265 L -5.76851 -0.88265 " />
<path d="M-5.76851 -0.88265 A5.83565 5.83565 0 0 1 5.76851 -0.88265" /></g>

</svg>
