<svg xmlns="http://www.w3.org/2000/svg" viewBox="-8.0842428 -8.2977128 13.3576656 14.972595599999998">
<rect width="100%" height="100%" fill="white"/>
<g   fill="none"
   stroke="rgb(0, 0, 0)"
   stroke-linecap="butt"
   stroke-linejoin="miter"
   stroke-width="0.35"
   transform="scale(1, -1)"
  >
<path d="M-2.15094 -0.173474 A2.48759 1.43621 60 0 1 -0.861428 2.52846" />
<g transform = "rotate(60, -2.81082, 1.62283)">
<ellipse cx ="-2.81082" cy ="1.62283" rx ="3.4925"  ry ="2.0164"/>
</g>
<path d="M-0.861428 2.52846 A2.48759 1.43621 60 0 1 -0.925205 3.0336" />
<path d="M-0.925205, 3.0336 C-1.00746, 3.47553 -1.24427, 3.79724 -1.58167, 3.9285  C-1.93838, 4.07131 -2.40478, 3.99887 -2.873, 3.73332  C-3.38032, 3.44917 -3.88453, 2.94218 -4.26448, 2.34307  C-4.68204, 1.69042 -4.94692, 0.936249 -4.99572, 0.283543 " /><path d="M-4.33302, -1.1645 C-4.35527, -1.15994 -4.38129, -1.15078 -4.41108, -1.13701  C-4.51606, -1.08845 -4.63281, -0.993217 -4.72472, -0.868198  C-4.88697, -0.652438 -4.98588, -0.337484 -5.00031, 0.00445233 " /><path d="M-5.00031, 0.00445233 Q-5.00655, 0.145314 -4.99572, 0.283543 " /><path d="M-2.15094, -0.173474 C-2.45124, -0.50917 -2.80212, -0.784711 -3.15564, -0.960558  C-3.56634, -1.16624 -3.97894, -1.23703 -4.33302, -1.1645 " /><path d="M-1.01108, 3.33144 C-1.41485, 3.36685 -1.89078, 3.19921 -2.33356, 2.87318  C-2.72122, 2.58995 -3.08124, 2.18892 -3.35241, 1.7476  C-3.67203, 1.23102 -3.86558, 0.663128 -3.8935, 0.190674  C-3.92135, -0.242658 -3.81177, -0.592855 -3.59462, -0.782093 " /><path d="M-1.05666, 3.43232 C-1.49975, 3.5431 -2.06159, 3.37513 -2.57698, 2.98882  C-2.98291, 2.68782 -3.35684, 2.25792 -3.6292, 1.79005  C-3.93099, 1.27544 -4.10629, 0.719209 -4.12086, 0.261382  C-4.1387, -0.210462 -3.98693, -0.573011 -3.71335, -0.728521 " /><path d="M-3.71335, -0.728521 C-3.49753, -0.854117 -3.2079, -0.850582 -2.89698, -0.715831  C-2.6509, -0.610016 -2.39234, -0.423104 -2.15094, -0.173474 " /><path d="M1.07763 3.86783 A5.4991 3.17491 60 0 1 0.556677 5.81205" />
<path d="M0.556677 1.32206 A5.4991 3.17491 60 0 1 1.07763 3.86783" />
<path d="M-2.81082 -2.86717 A5.4991 3.17491 60 0 1 0.556677 1.32206" />
<path d="M-6.17832 -2.5664 A5.4991 3.17491 60 0 1 -2.81082 -2.86717" />
<path d="M-6.17832 1.9236 A5.4991 3.17491 60 0 1 -6.17832 -2.5664" />
<path d="M-2.81082 6.11282 A5.4991 3.17491 60 0 1 -6.17832 1.9236" />
<path d="M0.556677 5.81205 A5.4991 3.17491 60 0 1 -2.81082 6.11282" />
<path d="M-0.866463, 2.67912 C-1.4542, 2.44251 -2.05521, 1.88366 -2.45587, 1.22672  C-2.87882, 0.545352 -3.07238, -0.22149 -2.97583, -0.747266 " /><path d="M-0.890467, 2.87923 C-1.15129, 2.803 -1.42139, 2.66226 -1.67947, 2.46997  C-2.08046, 2.17248 -2.45025, 1.74929 -2.72161, 1.28789  C-3.02909, 0.768877 -3.20808, 0.205834 -3.22283, -0.256768  C-3.22965, -0.461392 -3.20713, -0.64209 -3.15528, -0.798863 " /><path d="M0.556677, 5.81205 C0.91352, 5.30505 1.34835, 4.75321 1.92834, 4.07127 " /><path d="M-2.81082, 6.11282 C-2.09792, 6.52351 -1.30724, 6.8888 -0.316654, 7.26512 " /><path d="M-0.316654, 7.26512 C-0.0754536, 6.77878 0.201401, 6.31815 0.556677, 5.81205 " /><path d="M-6.17832, 1.9236 C-5.82147, 2.84084 -5.38664, 3.71237 -4.80665, 4.67282 " /><path d="M-4.80665, 4.67282 C-4.15485, 5.24473 -3.52216, 5.70123 -2.81082, 6.11282 " /><path d="M-6.17832, -2.5664 C-6.53359, -2.0603 -6.81045, -1.59966 -7.05165, -1.11333 " /><path d="M-7.05165, -1.11333 C-6.81045, 0.0427199 -6.53359, 1.00546 -6.17832, 1.9236 " /><path d="M-4.80665, -4.30718 C-5.38664, -3.62524 -5.82147, -3.0734 -6.17832, -2.5664 " /><path d="M-2.81082, -2.86717 C-3.52216, -3.27876 -4.15485, -3.73526 -4.80665, -4.30718 " /><path d="M-0.316654, -1.71488 C-1.30724, -2.09119 -2.09792, -2.45648 -2.81082, -2.86717 " /><path d="M0.556677, 1.32206 C0.201401, 0.403913 -0.0754536, -0.558826 -0.316654, -1.71488 " /><path d="M1.92834, 4.07127 C1.34835, 3.11082 0.91352, 2.23929 0.556677, 1.32206 " /><path d="M-0.957465, 1.81106 C-1.58448, 1.28255 -2.08714, 0.454135 -2.25463, -0.275828 " /><path d="M-1.13479, 1.28315 C-1.43765, 0.937362 -1.68979, 0.529724 -1.85767, 0.123062 " /><path d="M4.24083, 2.73616 C3.99963, 3.22249 3.72277, 3.68313 3.3675, 4.18922 " /><path id= "35" d=" M 1.92834 4.07127 L 4.24083 2.73616 " />
<path id= "36" d=" M 1.99583 5.93 L -0.316654 7.26512 " />
<path d="M3.3675, 4.18922 C3.01065, 4.69622 2.57582, 5.24807 1.99583, 5.93 " /><path id= "38" d=" M -2.49417 -5.64229 L -4.80665 -4.30718 " />
<path d="M-2.49417, -5.64229 C-1.50358, -5.26597 -0.712902, -4.90069 -2.59479e-10, -4.49 " /><path id= "40" d=" M 1.99583 -3.04999 L -0.316654 -1.71488 " />
<path d="M-2.59479e-10, -4.49 C0.711335, -4.0784 1.34403, -3.6219 1.99583, -3.04999 " /><path d="M1.99583, -3.04999 C2.57582, -2.08954 3.01065, -1.21801 3.3675, -0.300773 " /><path d="M3.3675, -0.300773 C3.72277, 0.617369 3.99963, 1.58011 4.24083, 2.73616 " /></g>

</svg>
