<svg xmlns="http://www.w3.org/2000/svg" viewBox="-4.991069599999999 -7.3657796 6.007039200000101 14.7315592">
<rect width="100%" height="100%" fill="white"/>
<g   fill="none"
   stroke="rgb(0, 0, 0)"
   stroke-linecap="butt"
   stroke-linejoin="miter"
   stroke-width="0.35"
   transform="scale(1, -1)"
  >
<path id= "1" d=" M -3.9751 -5.4991 L -3.62272 -6.34981 " />
<path id= "2" d=" M 1.00189e-13 -5.4991 L -0.352377 -6.34981 " />
</g>
<g   fill="none"
   stroke="rgb(0, 0, 0)"
   stroke-linecap="butt"
   stroke-linejoin="miter"
   stroke-width="0.35"
   transform="scale(1, -1)"
  >
<path d="M-3.9751, 4.76236 C-3.9751, 5.00148 -3.9751, 5.18655 -3.9751, 5.31172  C-3.9751, 5.34613 -3.9751, 5.37663 -3.9751, 5.40323  C-3.9751, 5.42762 -3.9751, 5.44805 -3.9751, 5.46452  C-3.9751, 5.47876 -3.9751, 5.489 -3.9751, 5.49525  C-3.9751, 5.49654 -3.9751, 5.49782 -3.9751, 5.4991 " /><path d="M-3.9751, -3.66959e-10 Q-3.9751, 0.411593 -3.9751, 0.819598  Q-3.9751, 1.22558 -3.9751, 1.62089  Q-3.9751, 1.81497 -3.9751, 2.00905  Q-3.9751, 2.19751 -3.9751, 2.38597  Q-3.9751, 2.56776 -3.9751, 2.74955  Q-3.9751, 2.92365 -3.9751, 3.09775  Q-3.9751, 3.26319 -3.9751, 3.42863  Q-3.9751, 3.58449 -3.9751, 3.74034  Q-3.9751, 3.88573 -3.9751, 4.03113  Q-3.9751, 4.16525 -3.9751, 4.29937  Q-3.9751, 4.42147 -3.9751, 4.54357  Q-3.9751, 4.65296 -3.9751, 4.76236 " /><path d="M-3.9751, -4.76236 C-3.9751, -4.68943 -3.9751, -4.6165 -3.9751, -4.54357  C-3.9751, -4.46217 -3.9751, -4.38077 -3.9751, -4.29937  C-3.9751, -4.20995 -3.9751, -4.12054 -3.9751, -4.03113  C-3.9751, -3.9342 -3.9751, -3.83727 -3.9751, -3.74034  C-3.9751, -3.63644 -3.9751, -3.53253 -3.9751, -3.42863  C-3.9751, -3.31834 -3.9751, -3.20805 -3.9751, -3.09775  C-3.9751, -2.98169 -3.9751, -2.86562 -3.9751, -2.74955  C-3.9751, -2.62836 -3.9751, -2.50716 -3.9751, -2.38597  C-3.9751, -2.26033 -3.9751, -2.13469 -3.9751, -2.00905  C-3.9751, -1.87966 -3.9751, -1.75027 -3.9751, -1.62089  C-3.9751, -1.48848 -3.9751, -1.35607 -3.9751, -1.22366  C-3.9751, -0.821437 -3.9751, -0.411573 -3.9751, -3.66959e-10 " /><path d="M-3.9751, -5.4991 C-3.9751, -5.49782 -3.9751, -5.49654 -3.9751, -5.49525  C-3.9751, -5.489 -3.9751, -5.47876 -3.9751, -5.46452  C-3.9751, -5.44805 -3.9751, -5.42762 -3.9751, -5.40323  C-3.9751, -5.37663 -3.9751, -5.34613 -3.9751, -5.31172  C-3.9751, -5.18655 -3.9751, -5.00148 -3.9751, -4.76236 " /><path id= "5" d=" M -3.9751 5.4991 L -3.62272 6.34981 " />
<path d="M-3.9751, -4.76236 C-3.97399, -5.2659 -3.86228, -5.76914 -3.62272, -6.34981 " /><path d="M-3.62272, -3.17491 C-3.86228, -3.75558 -3.97399, -4.25882 -3.9751, -4.76236 " /><path d="M-3.9751, -3.66959e-10 C-3.97399, -1.00709 -3.86228, -2.01357 -3.62272, -3.17491 " /><path d="M-3.62272, 3.17491 C-3.86228, 2.01357 -3.97399, 1.00709 -3.9751, -3.66959e-10 " /><path d="M-3.9751, 4.76236 C-3.97399, 4.25882 -3.86228, 3.75558 -3.62272, 3.17491 " /><path d="M-3.62272, 6.34981 C-3.86228, 5.76914 -3.97399, 5.2659 -3.9751, 4.76236 " /><path id= "12" d=" M -3.62272 6.34981 L -0.352377 6.34981 " />
<path id= "13" d=" M -0.352377 -6.34981 L -3.62272 -6.34981 " />
<path d="M-0.352377, -6.34981 C-0.112815, -5.76914 -0.00110818, -5.2659 -1.38778e-17, -4.76236 " /><path id= "15" d=" M -0.352377 -3.17491 L -3.62272 -3.17491 " />
<path d="M1.38778e-17, -4.76236 C-0.00110818, -4.25882 -0.112815, -3.75558 -0.352377, -3.17491 " /><path d="M-0.352377, -3.17491 C-0.112815, -2.01357 -0.00110818, -1.00709 1.38778e-17, -3.66959e-10 " /><path id= "18" d=" M -0.352377 3.17491 L -3.62272 3.17491 " />
<path d="M1.38778e-17, -3.66959e-10 C-0.00110818, 1.00709 -0.112815, 2.01357 -0.352377, 3.17491 " /><path d="M-0.352377, 3.17491 C-0.112815, 3.75558 -0.00110818, 4.25882 0, 4.76236 " /><path d="M0, 4.76236 C-0.00110818, 5.2659 -0.112815, 5.76914 -0.352377, 6.34981 " /><path id= "22" d=" M -0.352377 6.34981 L -2.35493e-14 5.4991 " />
<path d="M0, -5.4991 C0, -5.49782 0, -5.49654 0, -5.49525  C0, -5.489 0, -5.47876 0, -5.46452  C0, -5.44805 0, -5.42762 0, -5.40323  C0, -5.37663 0, -5.34613 0, -5.31172  C0, -5.18655 0, -5.00148 0, -4.76236 " /><path d="M0, -4.76236 C0, -4.68943 0, -4.6165 0, -4.54357  C0, -4.46217 0, -4.38077 0, -4.29937  C0, -4.20995 0, -4.12054 0, -4.03113  C0, -3.9342 0, -3.83727 0, -3.74034  C0, -3.63644 0, -3.53253 0, -3.42863  C0, -3.31834 0, -3.20805 0, -3.09775  C0, -2.98169 0, -2.86562 0, -2.74955  C0, -2.62836 0, -2.50716 0, -2.38597  C0, -2.26033 0, -2.13469 0, -2.00905  C0, -1.87966 0, -1.75027 0, -1.62089  C0, -1.48848 0, -1.35607 0, -1.22366  C0, -0.821437 0, -0.411573 0, -3.66959e-10 " /><path d="M0, -3.66959e-10 Q0, 0.411593 0, 0.819598  Q0, 1.22558 0, 1.62089  Q0, 1.81497 0, 2.00905  Q0, 2.19751 0, 2.38597  Q0, 2.56776 0, 2.74955  Q0, 2.92365 0, 3.09775  Q0, 3.26319 0, 3.42863  Q0, 3.58449 0, 3.74034  Q0, 3.88573 0, 4.03113  Q0, 4.16525 0, 4.29937  Q0, 4.42147 0, 4.54357  Q0, 4.65296 0, 4.76236 " /><path d="M0, 4.76236 C0, 5.00148 0, 5.18655 0, 5.31172  C0, 5.34613 0, 5.37663 0, 5.40323  C0, 5.42762 0, 5.44805 0, 5.46452  C0, 5.47876 0, 5.489 0, 5.49525  C0, 5.49654 0, 5.49782 0, 5.4991 " /></g>

</svg>
