<svg xmlns="http://www.w3.org/2000/svg" viewBox="-7.3657796 -6.5150696 14.7315592 13.0301392">
<rect width="100%" height="100%" fill="white"/>
<g   fill="none"
   stroke="rgb(0, 0, 0)"
   stroke-linecap="butt"
   stroke-linejoin="miter"
   stroke-width="0.35"
   transform="scale(1, -1)"
  >
<path d="M0.663944 -2.39735 A2.48759 2.48759 0 0 1 2.48759 -6.09284e-16" /><circle cx ="0" cy ="0" r ="3.4925" /><path d="M2.48759 0 A2.48759 2.48759 0 0 1 2.3974 0.663772" /><path d="M2.3974, 0.663772 C2.29625, 1.248 1.97616, 1.79467 1.51347, 2.17953  C1.02436, 2.59131 0.379742, 2.81742 -0.267767, 2.80861  C-0.969375, 2.80348 -1.66697, 2.52362 -2.18918, 2.0434  C-2.7632, 1.52283 -3.12171, 0.770375 -3.17499, -0.0102513 " /><path d="M-2.23779, -2.25233 C-2.26742, -2.23286 -2.30264, -2.20481 -2.34346, -2.16819  C-2.48733, -2.03907 -2.65058, -1.84175 -2.77978, -1.62442  C-2.81928, -1.55851 -2.85627, -1.49047 -2.89076, -1.42032 " /><path d="M-2.89076, -1.42032 C-3.11066, -0.980437 -3.20939, -0.454076 -3.17499, -0.0102513 " /><path d="M0.663944, -2.39735 C0.270251, -2.62714 -0.196342, -2.74612 -0.667787, -2.74003  C-1.21552, -2.73461 -1.76743, -2.56115 -2.23779, -2.25233 " /><path d="M2.3974, 0.663772 C2.29863, 1.02159 2.11829, 1.35654 1.87395, 1.63598  C1.5723, 1.98253 1.17247, 2.24229 0.733238, 2.37707  C0.309566, 2.50838 -0.149386, 2.52299 -0.580553, 2.4189  C-1.11042, 2.29308 -1.59501, 1.98675 -1.93597, 1.56209  C-2.31407, 1.09653 -2.5133, 0.490561 -2.48522, -0.108539  C-2.46118, -0.700877 -2.21553, -1.28065 -1.8067, -1.70995  C-1.45586, -2.08214 -0.987261, -2.34097 -0.48541, -2.43977  C-0.105968, -2.51562 0.291126, -2.50096 0.663944, -2.39735 " /><path d="M5.4991 0 A5.4991 5.4991 0 0 1 4.76236 2.74955" /><path d="M4.76236 -2.74955 A5.4991 5.4991 0 0 1 5.4991 -1.34689e-15" /><path d="M-3.66959e-10 -5.4991 A5.4991 5.4991 0 0 1 4.76236 -2.74955" /><path d="M-4.76236 -2.74955 A5.4991 5.4991 0 0 1 -3.66959e-10 -5.4991" /><path d="M-4.76236 2.74955 A5.4991 5.4991 0 0 1 -4.76236 -2.74955" /><path d="M1.34435e-08 5.4991 A5.4991 5.4991 0 0 1 -4.76236 2.74955" /><path d="M4.76236 2.74955 A5.4991 5.4991 0 0 1 1.34435e-08 5.4991" /><path d="M2.3974, 0.663772 C2.29866, 1.02149 2.1184, 1.35634 1.87416, 1.63574  C1.57144, 1.98362 1.16978, 2.24406 0.728659, 2.37848  C0.306042, 2.50856 -0.151413, 2.52262 -0.581221, 2.41874  C-1.10463, 2.29425 -1.58391, 1.99375 -1.92397, 1.57684  C-2.30963, 1.10942 -2.51357, 0.497207 -2.48524, -0.108117  C-2.46131, -0.700234 -2.21594, -1.27984 -1.80745, -1.70916  C-1.45463, -2.0838 -0.982527, -2.34368 -0.477258, -2.44138  C0.00480828, -2.53651 0.514626, -2.48376 0.967002, -2.29195  C1.42213, -2.10089 1.81715, -1.77036 2.08548, -1.35605  C2.34686, -0.955529 2.48838, -0.478264 2.48759, -4.44089e-16 " /><path d="M4.76236, 2.74955 C5.2659, 1.87739 5.76914, 1.00575 6.34981, 5.04929e-13 " /><path d="M1.34435e-08, 5.4991 C1.00709, 5.4991 2.01357, 5.4991 3.17491, 5.4991 " /><path d="M3.17491, 5.4991 C3.75558, 4.49335 4.25882, 3.62171 4.76236, 2.74955 " /><path d="M-4.76236, 2.74955 C-4.25882, 3.62171 -3.75558, 4.49335 -3.17491, 5.4991 " /><path d="M-3.17491, 5.4991 C-2.01357, 5.4991 -1.00709, 5.4991 1.34435e-08, 5.4991 " /><path d="M-4.76236, -2.74955 C-5.2659, -1.87739 -5.76914, -1.00575 -6.34981, -4.47198e-13 " /><path d="M-6.34981, 5.63549e-13 C-5.76914, 1.00575 -5.2659, 1.87739 -4.76236, 2.74955 " /><path d="M-3.17491, -5.4991 C-3.75558, -4.49335 -4.25882, -3.62171 -4.76236, -2.74955 " /><path d="M-3.66959e-10, -5.4991 C-1.00709, -5.4991 -2.01357, -5.4991 -3.17491, -5.4991 " /><path d="M3.17491, -5.4991 C2.01357, -5.4991 1.00709, -5.4991 -3.66959e-10, -5.4991 " /><path d="M4.76236, -2.74955 C4.25882, -3.62171 3.75558, -4.49335 3.17491, -5.4991 " /><path d="M6.34981, -5.06285e-13 C5.76914, -1.00575 5.2659, -1.87739 4.76236, -2.74955 " /></g>

</svg>
