<svg xmlns="http://www.w3.org/2000/svg" viewBox="-2.9011936 -3.6612036000000003 20.5272672 15.7130772">
<rect width="100%" height="100%" fill="white"/>
<g   fill="none"
   stroke="rgb(0, 0, 0)"
   stroke-linecap="butt"
   stroke-linejoin="miter"
   stroke-width="0.35"
   transform="scale(1, -1)"
  >
<path d="M-1.48552, -2.27631 L-0.571107, -3.10456 " /><path d="M1.03806, 2.24553 L2.21249, 1.86778 " /><path d="M-1.20412, -1.8608 L-1.13648, -1.92207 " /><path d="M0.818997, 1.79411 L0.900948, 1.76775 " /><path d="M-0.397724, -3.23112 L11.6231, -10.1713 " /><path d="M2.39292, 1.78796 L14.4137, -5.15226 " /><path d="M11.82, -10.2585 L12.9945, -10.6362 " /><path d="M14.5725, -5.26817 L15.4869, -6.09642 " /></g>
<g   fill="none"
   stroke="rgb(0, 0, 0)"
   stroke-linecap="butt"
   stroke-linejoin="miter"
   stroke-width="0.35"
   transform="scale(1, -1)"
  >
<path d="M-0.300752, -1.57944 C-0.322229, -1.26305 -0.251117, -0.890963 -0.104782, -0.533468  C0.0406245, -0.175675 0.260122, 0.165546 0.510368, 0.429285  C0.665016, 0.592138 0.824595, 0.722225 0.989107, 0.819545 " /><path d="M1.71473, 0.990002 C1.70696, 0.842961 1.69975, 0.78356 1.69268, 0.727523  C1.6857, 0.673011 1.67834, 0.625041 1.67062, 0.583615  C1.66146, 0.538552 1.65231, 0.49349 1.64316, 0.448428  C1.61235, 0.31214 1.57237, 0.175272 1.52321, 0.0378244  C1.40896, -0.282049 1.24644, -0.5979 1.05208, -0.880646  C0.664161, -1.44927 0.148365, -1.87041 -0.312731, -2.00851  C-0.668733, -2.11883 -0.988851, -2.06479 -1.20712, -1.86534 " /><path d="M-1.20712, -1.86534 C-1.38203, -1.70771 -1.49239, -1.45989 -1.52541, -1.15955  C-1.55922, -0.859694 -1.51568, -0.508496 -1.4037, -0.156252  C-1.22378, 0.418173 -0.8585, 0.986135 -0.443075, 1.3551  C-0.0283793, 1.72904 0.426822, 1.89709 0.765462, 1.81444  C0.784134, 1.80927 0.802805, 1.8041 0.821476, 1.79893 " /><path d="M0.821476, 1.79893 C1.14107, 1.69885 1.33793, 1.36964 1.35636, 0.931317  C1.37871, 0.494973 1.22344, -0.0403593 0.95175, -0.496346  C0.688189, -0.944458 0.319676, -1.30821 -0.0331757, -1.48089  C-0.386748, -1.65779 -0.717767, -1.64141 -0.925691, -1.44993 " /><path d="M-0.925691, -1.44993 C-0.947318, -1.43035 -0.967661, -1.40908 -0.98672, -1.38612  C-1.18264, -1.154 -1.23066, -0.743889 -1.12547, -0.307127  C-1.02367, 0.129571 -0.772488, 0.582222 -0.467873, 0.897199  C-0.107885, 1.27624 0.314478, 1.44556 0.602352, 1.34761 " /><path d="M0.602352, 1.34761 C0.802493, 1.28422 0.938712, 1.10225 0.983652, 0.852277  C1.04137, 0.547251 0.959056, 0.14476 0.776657, -0.21107  C0.684355, -0.391564 0.574733, -0.552732 0.44779, -0.694575  C0.37599, -0.774603 0.301749, -0.845009 0.225066, -0.905792  C0.205936, -0.920242 0.186806, -0.934693 0.167675, -0.949143  C0.150555, -0.961455 0.129871, -0.975407 0.105622, -0.990997  C0.0807392, -1.00683 0.0573207, -1.021 -0.0160787, -1.06197 " /><path d="M1.71473, 0.990002 L2.06829, 1.19413 " /><path d="M2.06829, 1.19413 C2.06064, 1.04001 2.05277, 0.961169 2.04487, 0.894977  C2.03719, 0.830957 2.02884, 0.773072 2.01981, 0.721322  C2.01057, 0.667381 2.00003, 0.613113 1.98818, 0.558517  C1.95251, 0.394292 1.90566, 0.229085 1.84764, 0.0628957  C1.71282, -0.323807 1.51902, -0.707395 1.28572, -1.05215  C0.820161, -1.74544 0.195163, -2.26613 -0.368507, -2.44385  C-0.812053, -2.58829 -1.21335, -2.52526 -1.48552, -2.27631 " /><path d="M-1.48552, -2.27631 C-1.69685, -2.08574 -1.83169, -1.7873 -1.87407, -1.42463  C-1.91735, -1.06251 -1.86816, -0.637378 -1.736, -0.208712  C-1.52112, 0.498931 -1.07521, 1.20608 -0.561595, 1.67128  C-0.0491451, 2.14262 0.519245, 2.36302 0.946834, 2.2696  C0.977981, 2.2631 1.00839, 2.25508 1.03806, 2.24553 " /><path d="M1.03806, 2.24553 C1.43385, 2.12172 1.68099, 1.7159 1.70786, 1.17146  C1.73966, 0.62969 1.55183, -0.03948 1.21542, -0.616084  C0.8831, -1.19334 0.410388, -1.66818 -0.0455446, -1.89531  C-0.502223, -2.12812 -0.933526, -2.11027 -1.20412, -1.8608 " /><path d="M-1.20412, -1.8608 C-1.22644, -1.84058 -1.24772, -1.81895 -1.26795, -1.7959  C-1.52736, -1.50541 -1.59922, -0.980413 -1.46972, -0.412894  C-1.34487, 0.15417 -1.02289, 0.750803 -0.624861, 1.17236  C-0.385799, 1.42788 -0.122079, 1.62085 0.130142, 1.72795  C0.382525, 1.83588 0.62266, 1.85777 0.818995, 1.79411 " /><path d="M0.818995, 1.79411 C1.07848, 1.71196 1.25906, 1.47986 1.32451, 1.15748  C1.41043, 0.753073 1.30866, 0.20986 1.06595, -0.278734  C0.945766, -0.523063 0.792894, -0.753224 0.622758, -0.948308  C0.525027, -1.06034 0.42343, -1.15959 0.317968, -1.24606  C0.291622, -1.26666 0.265276, -1.28727 0.23893, -1.30788  C0.213582, -1.32688 0.184853, -1.34705 0.152742, -1.3684  C0.119533, -1.39045 0.079644, -1.41576 7.21645e-16, -1.46051 " /><path d="M-0.0160787, -1.06197 L7.26849e-16, -1.46051 " /><path d="M2.06829, 1.19413 L3.31456, 0.688919 " /><path d="M3.31456, 0.688919 C3.30699, 0.531091 3.29876, 0.442041 3.29043, 0.370517  C3.28238, 0.301507 3.27351, 0.238416 3.2638, 0.181245  C3.25395, 0.122515 3.24268, 0.0634135 3.22998, 0.00394189  C3.19175, -0.174951 3.1413, -0.355036 3.07863, -0.536314  C2.933, -0.958103 2.72278, -1.37725 2.46904, -1.75457  C1.96279, -2.51324 1.28032, -3.08632 0.66287, -3.28477  C0.2607, -3.41765 -0.111813, -3.39729 -0.397724, -3.23112 " /><path d="M-0.397724, -3.23112 Q-0.490642, -3.17745 -0.571107, -3.10456 " /><path d="M2.21249, 1.86778 Q2.3078, 1.83711 2.39292, 1.78796 " /><path d="M2.39292, 1.78796 C2.68958, 1.6182 2.88279, 1.27866 2.93869, 0.841289 " /><path d="M7.26415e-16, -1.46051 L0.00265882, -1.46255 " /><path d="M3.31456, 0.688919 L15.3354, -6.2513 " /><path d="M15.3354, -6.2513 C15.3278, -6.40913 15.3196, -6.49818 15.3112, -6.5697  C15.3032, -6.63871 15.2943, -6.70181 15.2846, -6.75898  C15.2748, -6.81771 15.2635, -6.87681 15.2508, -6.93628  C15.2126, -7.11517 15.1621, -7.29526 15.0994, -7.47654  C14.9538, -7.89832 14.7436, -8.31747 14.4899, -8.69479  C13.9836, -9.45346 13.3011, -10.0265 12.6837, -10.225  C12.3686, -10.3288 12.0712, -10.3396 11.82, -10.2585 " /><path d="M11.82, -10.2585 Q11.716, -10.225 11.6231, -10.1713 " /><path d="M14.4137, -5.15226 Q14.4988, -5.20142 14.5725, -5.26817 " /><path d="M14.5725, -5.26817 C14.7658, -5.44266 14.8956, -5.70683 14.949, -6.02823 " /><path d="M15.3354, -6.2513 L16.2104, -6.97084 " /><path d="M16.2104, -6.97084 C16.2028, -7.12495 16.1949, -7.2038 16.187, -7.26999  C16.1793, -7.33401 16.171, -7.39189 16.1619, -7.44364  C16.1527, -7.49758 16.1422, -7.55185 16.1303, -7.60645  C16.0946, -7.77067 16.0478, -7.93588 15.9898, -8.10207  C15.855, -8.48877 15.6612, -8.87236 15.4279, -9.21712  C14.9623, -9.91041 14.3373, -10.4311 13.7736, -10.6088  C13.4892, -10.7008 13.2212, -10.7095 12.9945, -10.6362 " /><path d="M15.4869, -6.09642 Q15.7023, -6.29337 15.7935, -6.62798 " /></g>

</svg>
