<svg xmlns="http://www.w3.org/2000/svg" viewBox="-1.6 -4.7875 23.2 9.321539999999999">
<rect width="100%" height="100%" fill="white"/>
<g   fill="none"
   stroke="rgb(0, 0, 0)"
   stroke-linecap="butt"
   stroke-linejoin="miter"
   stroke-width="0.35"
   transform="scale(1, -1)"
  >
<path d="M0, -2.67195 L1.5, -2.93404 " /><path d="M1.5, -2.93404 L18.5, -2.93404 " /><path d="M18.5, -2.93404 L20, -2.67195 " /></g>
<g   fill="none"
   stroke="rgb(0, 0, 0)"
   stroke-linecap="butt"
   stroke-linejoin="miter"
   stroke-width="0.35"
   transform="scale(1, -1)"
  >
<path d="M0, 2.925 C0, 2.8913 0, 2.86286 0, 2.81172  C0, 2.76126 0, 2.69501 0, 2.61296  C0, 2.42229 0, 2.14822 0, 1.81828  C0, 1.15988 0, 0.276003 0, -0.521148  C0, -1.13457 0, -1.69111 0, -2.07516  C0, -2.4619 0, -2.67359 0, -2.67195 " /><path d="M0, 2.925 L1.5, 3.1875 " /><path d="M1.5, 3.1875 C1.5, 3.15363 1.5, 3.12242 1.5, 3.06789  C1.5, 3.01381 1.5, 2.94246 1.5, 2.85384  C1.5, 2.64789 1.5, 2.35059 1.5, 1.99175  C1.5, 1.27581 1.5, 0.310646 1.5, -0.56256  C1.5, -1.23708 1.5, -1.85083 1.5, -2.27473  C1.5, -2.70159 1.5, -2.93586 1.5, -2.93404 " /><path d="M1.5, 3.1875 L18.5, 3.1875 " /><path d="M18.5, 3.1875 C18.5, 3.15363 18.5, 3.12242 18.5, 3.06789  C18.5, 3.01381 18.5, 2.94246 18.5, 2.85384  C18.5, 2.64789 18.5, 2.35059 18.5, 1.99175  C18.5, 1.27581 18.5, 0.310646 18.5, -0.56256  C18.5, -1.23708 18.5, -1.85083 18.5, -2.27473  C18.5, -2.70159 18.5, -2.93586 18.5, -2.93404 " /><path d="M18.5, -2.05911 Q18.5, -1.79866 18.5, -1.40507 " /><path d="M18.5, 3.1875 L20, 2.925 " /><path d="M20, 2.925 C20, 2.8913 20, 2.86286 20, 2.81172  C20, 2.76126 20, 2.69501 20, 2.61296  C20, 2.42229 20, 2.14822 20, 1.81828  C20, 1.15987 20, 0.276011 20, -0.521148  C20, -1.13457 20, -1.69111 20, -2.07516  C20, -2.4619 20, -2.67359 20, -2.67195 " /><path d="M20, -2.67195 C20, -2.67661 20, -2.2896 20, -1.66867 " /><path d="M20, -2.16756 C20, -2.16895 20, -1.98611 20, -1.66867 " /><path d="M20, -1.38824 Q20, -1.12408 20, -0.809545 " /><path d="M20, 1.54303 C20, 1.78602 20, 1.91631 20, 1.91542 " /><path d="M20, -2.17301 Q20, -2.173 20, -2.16419 " /><path d="M20, -0.645798 Q20, -0.338448 20, -0.0227387 " /><path d="M20, 1.548 C20, 1.7912 20, 1.92173 20, 1.92084 " /><path d="M20, -1.56354 L20, -1.56261 " /><path d="M18.5, 2.6875 C18.5, 2.65395 18.5, 2.62801 18.5, 2.57994  C18.5, 2.53276 18.5, 2.47112 18.5, 2.39502  C18.5, 2.1723 18.5, 1.82735 18.5, 1.41423 " /></g>

</svg>
