<svg xmlns="http://www.w3.org/2000/svg" viewBox="-1.6000000000000003 -4.7875 23.2 9.321539999999999">
<rect width="100%" height="100%" fill="white"/>
<g   fill="none"
   stroke="rgb(165, 165, 165)"
   stroke-dasharray="1.2,0.8"
   stroke-linecap="butt"
   stroke-linejoin="miter"
   stroke-width="0.25"
   transform="scale(1, -1)"
  >
<path d="M1.5, 2.6875 C1.5, 2.65395 1.5, 2.62801 1.5, 2.57994  C1.5, 2.53276 1.5, 2.47112 1.5, 2.39502  C1.5, 2.21817 1.5, 1.96511 1.5, 1.66133  C1.5, 1.05509 1.5, 0.244566 1.5, -0.48368  C1.5, -1.04179 1.5, -1.54659 1.5, -1.89462  C1.5, -2.24509 1.5, -2.43635 1.5, -2.4349 " /><path d="M1.5, -2.4349 C1.5, -2.43383 1.5, -2.36615 1.5, -2.23185  C1.5, -1.95145 1.5, -1.375 1.5, -0.714599  C1.5, -0.0555522 1.5, 0.672238 1.5, 1.21719  C1.5, 1.82216 1.5, 2.18812 1.5, 2.1827 " /><path d="M1.5, 2.1827 C1.5, 2.18497 1.5, 1.9444 1.5, 1.54175  C1.5, 1.09877 1.5, 0.464544 1.5, -0.134252  C1.5, -0.734495 1.5, -1.28582 1.5, -1.60424  C1.5, -1.82016 1.5, -1.92892 1.5, -1.93052 " /><path d="M1.5, -1.93052 C1.5, -1.93116 1.5, -1.81667 1.5, -1.61091  C1.5, -1.40615 1.5, -1.11132 1.5, -0.77823  C1.5, -0.279756 1.5, 0.298984 1.5, 0.756375  C1.5, 1.21713 1.5, 1.54726 1.5, 1.64417  C1.5, 1.66699 1.5, 1.6784 1.5, 1.67839 " /><path d="M1.5, 1.67839 C1.5, 1.6793 1.5, 1.54546 1.5, 1.31315  C1.5, 1.16 1.5, 0.97668 1.5, 0.763178  C1.5, 0.642385 1.5, 0.517082 1.5, 0.387268  C1.5, 0.354856 1.5, 0.322444 1.5, 0.290033  C1.5, 0.259713 1.5, 0.224487 1.5, 0.184357  C1.5, 0.142985 1.5, 0.0976379 1.5, -0.0108009 " /><path d="M1.5, 2.6875 L1.11022e-16, 2.425 " /><path d="M6.03806e-17, 2.425 C6.03806e-17, 2.39162 6.03806e-17, 2.36844 6.03806e-17, 2.32377  C6.03806e-17, 2.28021 6.03806e-17, 2.22366 6.03806e-17, 2.15414  C6.03806e-17, 1.99257 6.03806e-17, 1.76274 6.03806e-17, 1.48786  C6.03806e-17, 0.939265 6.03806e-17, 0.20982 6.03806e-17, -0.442268  C6.03806e-17, -0.939264 6.03806e-17, -1.38693 6.03806e-17, -1.69519  C6.03806e-17, -2.0056 6.03806e-17, -2.1743 6.03806e-17, -2.17301 " /><path d="M6.03806e-17, -2.17301 C6.03806e-17, -2.17196 6.03806e-17, -2.10933 6.03806e-17, -1.98513  C6.03806e-17, -1.73069 6.03806e-17, -1.2141 6.03806e-17, -0.626602  C6.03806e-17, -0.0401344 6.03806e-17, 0.603618 6.03806e-17, 1.08253  C6.03806e-17, 1.60933 6.03806e-17, 1.92542 6.03806e-17, 1.92084 " /><path d="M6.03806e-17, 1.92084 C6.03806e-17, 1.92288 6.03806e-17, 1.70615 6.03806e-17, 1.34598  C6.03806e-17, 0.954051 6.03806e-17, 0.397677 6.03806e-17, -0.124021  C6.03806e-17, -0.64713 6.03806e-17, -1.12341 6.03806e-17, -1.39543  C6.03806e-17, -1.57646 6.03806e-17, -1.66754 6.03806e-17, -1.66867 " /><path d="M6.03806e-17, -1.66867 C6.03806e-17, -1.66927 6.03806e-17, -1.56839 6.03806e-17, -1.38811  C6.03806e-17, -1.20873 6.03806e-17, -0.951147 6.03806e-17, -0.661673  C6.03806e-17, -0.232203 6.03806e-17, 0.262048 6.03806e-17, 0.649122  C6.03806e-17, 1.03917 6.03806e-17, 1.3143 6.03806e-17, 1.39109  C6.03806e-17, 1.40811 6.03806e-17, 1.41661 6.03806e-17, 1.4166 " /><path d="M6.03806e-17, 1.4166 C6.03806e-17, 1.41742 6.03806e-17, 1.30004 6.03806e-17, 1.09836  C6.03806e-17, 0.967824 6.03806e-17, 0.812795 6.03806e-17, 0.63327  C6.03806e-17, 0.531731 6.03806e-17, 0.426738 6.03806e-17, 0.318292  C6.03806e-17, 0.291238 6.03806e-17, 0.264183 6.03806e-17, 0.237129  C6.03806e-17, 0.212917 6.03806e-17, 0.183665 6.03806e-17, 0.149372  C6.03806e-17, 0.114182 6.03806e-17, 0.0810638 6.03806e-17, -0.0227387 " /><path d="M1.5, -0.0108009 L1.11022e-16, -0.0227387 " /><path d="M0, 2.425 L0, 2.925 " /><path d="M0, -2.67195 C0, -2.67086 0, -2.59857 0, -2.45508  C0, -2.15118 0, -1.52058 0, -0.794215  C0, -0.0695017 0, 0.734324 0, 1.33903  C0, 2.01472 0, 2.42591 0, 2.41974 " /><path d="M0, 2.41974 C0, 2.42223 0, 2.16 0, 1.71887  C0, 1.22971 0, 0.525042 0, -0.143509  C0, -0.813541 0, -1.43277 0, -1.79316  C0, -2.04075 0, -2.16556 0, -2.16756 " /><path d="M0, -2.16756 C0, -2.16826 0, -2.04141 0, -1.81254  C0, -1.58478 0, -1.25622 0, -0.883687  C0, -0.322781 0, 0.332402 0, 0.853413  C0, 1.37815 0, 1.75804 0, 1.87314  C0, 1.90133 0, 1.91542 0, 1.91542 " /><path d="M0, 1.91542 C0, 1.91647 0, 1.76761 0, 1.50748  C0, 1.33751 0, 1.12132 0, 0.880713  C0, 0.742501 0, 0.598821 0, 0.449674  C0, 0.412416 0, 0.375157 0, 0.337899  C0, 0.302051 0, 0.261422 0, 0.21601  C0, 0.169045 0, 0.112634 0, 9.71445e-16 " /><path d="M0, -0.0227387 L0, 9.99201e-16 " /><path d="M1.5, -2.93404 C1.5, -2.93292 1.5, -2.85551 1.5, -2.7018  C1.5, -2.44396 1.5, -1.97195 1.5, -1.3955  C1.5, -0.820453 1.5, -0.145931 1.5, 0.478621  C1.5, 1.10415 1.5, 1.67464 1.5, 2.06876  C1.5, 2.46571 1.5, 2.68357 1.5, 2.68184 " /><path d="M1.5, 2.68184 C1.5, 2.68452 1.5, 2.39828 1.5, 1.91464  C1.5, 1.19176 1.5, 0.0301036 1.5, -0.887848  C1.5, -1.34735 1.5, -1.74347 1.5, -2.01374  C1.5, -2.28554 1.5, -2.43051 1.5, -2.42964 " /><path d="M1.5, -2.42964 C1.5, -2.43041 1.5, -2.28989 1.5, -2.03541  C1.5, -1.78214 1.5, -1.41634 1.5, -1.00025  C1.5, -0.37039 1.5, 0.369381 1.5, 0.960666  C1.5, 1.55607 1.5, 1.99106 1.5, 2.12622  C1.5, 2.16041 1.5, 2.17751 1.5, 2.17752 " /><path d="M1.5, 2.17752 C1.5, 2.17869 1.5, 2.01313 1.5, 1.72227  C1.5, 1.53017 1.5, 1.28473 1.5, 1.01062  C1.5, 0.853155 1.5, 0.689165 1.5, 0.51865  C1.5, 0.476034 1.5, 0.433418 1.5, 0.390803  C1.5, 0.348846 1.5, 0.302244 1.5, 0.250995  C1.5, 0.197847 1.5, 0.129208 1.5, 0.0119378 " /><path d="M0, 9.99201e-16 L1.5, 0.0119378 " /><path d="M18.5, -2.93404 C18.5, -2.93292 18.5, -2.85551 18.5, -2.7018  C18.5, -2.44396 18.5, -1.97195 18.5, -1.3955  C18.5, -0.820453 18.5, -0.145931 18.5, 0.478621  C18.5, 1.10415 18.5, 1.67464 18.5, 2.06876  C18.5, 2.46571 18.5, 2.68357 18.5, 2.68184 " /><path d="M18.5, 2.68184 C18.5, 2.68452 18.5, 2.39828 18.5, 1.91464  C18.5, 1.19176 18.5, 0.0301036 18.5, -0.887848  C18.5, -1.34735 18.5, -1.74347 18.5, -2.01374  C18.5, -2.28554 18.5, -2.43051 18.5, -2.42964 " /><path d="M18.5, -2.42964 C18.5, -2.43032 18.5, -2.29874 18.5, -2.05911 " /><path d="M18.5, -1.40507 C18.5, -1.2771 18.5, -1.14215 18.5, -1.00025  C18.5, -0.37039 18.5, 0.369381 18.5, 0.960666  C18.5, 1.55607 18.5, 1.99106 18.5, 2.12622  C18.5, 2.16041 18.5, 2.17751 18.5, 2.17752 " /><path d="M18.5, 2.17752 C18.5, 2.17869 18.5, 2.01313 18.5, 1.72227  C18.5, 1.53017 18.5, 1.28473 18.5, 1.01062  C18.5, 0.853155 18.5, 0.689165 18.5, 0.51865  C18.5, 0.476034 18.5, 0.433418 18.5, 0.390803  C18.5, 0.348846 18.5, 0.302244 18.5, 0.250995  C18.5, 0.197847 18.5, 0.129208 18.5, 0.0119378 " /><path d="M1.5, 0.0119378 L18.5, 0.0119378 " /><path d="M20, -1.66867 C20, -0.907948 20, 0.184438 20, 1.0249  C20, 1.44608 20, 1.8035 20, 2.04665  C20, 2.29356 20, 2.41792 20, 2.41974 " /><path d="M20, 2.41974 C20, 2.42222 20, 2.16 20, 1.71887  C20, 1.06599 20, 0.0252692 20, -0.794099  C20, -1.20432 20, -1.55718 20, -1.79772  C20, -2.04233 20, -2.16561 20, -2.16756 " /><path d="M20, -1.66867 Q20, -1.54093 20, -1.38824 " /><path d="M20, -0.809545 C20, -0.388497 20, 0.0793517 20, 0.499844  C20, 0.921163 20, 1.29241 20, 1.54303 " /><path d="M20, 1.91542 C20, 1.91647 20, 1.76761 20, 1.50748  C20, 1.33751 20, 1.12132 20, 0.880713  C20, 0.742501 20, 0.598821 20, 0.449674  C20, 0.412416 20, 0.375157 20, 0.337899  C20, 0.302051 20, 0.261422 20, 0.21601  C20, 0.169045 20, 0.112634 20, 9.99201e-16 " /><path d="M18.5, 0.0119378 L20, 9.99201e-16 " /><path d="M20, 2.925 L20, 2.425 " /><path d="M20, 2.425 C20, 2.39162 20, 2.36844 20, 2.32377  C20, 2.28021 20, 2.22366 20, 2.15414  C20, 1.99257 20, 1.76274 20, 1.48786  C20, 0.939265 20, 0.20982 20, -0.442268  C20, -0.939264 20, -1.38693 20, -1.69519  C20, -2.0056 20, -2.1743 20, -2.17301 " /><path d="M20, -2.16419 C20, -2.14203 20, -2.08234 20, -1.98513  C20, -1.73341 20, -1.22548 20, -0.645798 " /><path d="M20, -0.0227387 C20, 0.602453 20, 1.19746 20, 1.548 " /><path d="M20, 1.92084 C20, 1.92288 20, 1.70615 20, 1.34598  C20, 0.954051 20, 0.397677 20, -0.124021  C20, -0.64713 20, -1.12341 20, -1.39543  C20, -1.57646 20, -1.66754 20, -1.66867 " /><path d="M20, -1.66867 Q20, -1.66794 20, -1.56354 " /><path d="M20, -1.56261 C20, -1.40436 20, -1.06577 20, -0.661673  C20, -0.232203 20, 0.262048 20, 0.649122  C20, 1.03917 20, 1.3143 20, 1.39109  C20, 1.40811 20, 1.41661 20, 1.4166 " /><path d="M20, 1.4166 C20, 1.41742 20, 1.30004 20, 1.09836  C20, 0.967824 20, 0.812795 20, 0.63327  C20, 0.531731 20, 0.426738 20, 0.318292  C20, 0.291238 20, 0.264183 20, 0.237129  C20, 0.212917 20, 0.183665 20, 0.149372  C20, 0.114182 20, 0.0810638 20, -0.0227387 " /><path d="M20, 9.99201e-16 L20, -0.0227387 " /><path d="M20, 2.425 L18.5, 2.6875 " /><path d="M18.5, 1.41423 C18.5, 0.845392 18.5, 0.149381 18.5, -0.48368  C18.5, -1.04179 18.5, -1.54659 18.5, -1.89462  C18.5, -2.24509 18.5, -2.43635 18.5, -2.4349 " /><path d="M18.5, -2.4349 C18.5, -2.43383 18.5, -2.36615 18.5, -2.23185  C18.5, -1.95145 18.5, -1.375 18.5, -0.714599  C18.5, -0.0555522 18.5, 0.672238 18.5, 1.21719  C18.5, 1.82216 18.5, 2.18812 18.5, 2.1827 " /><path d="M18.5, 2.1827 C18.5, 2.18497 18.5, 1.9444 18.5, 1.54175  C18.5, 1.09877 18.5, 0.464544 18.5, -0.134252  C18.5, -0.734495 18.5, -1.28582 18.5, -1.60424  C18.5, -1.82016 18.5, -1.92892 18.5, -1.93052 " /><path d="M18.5, -1.93052 C18.5, -1.93116 18.5, -1.81667 18.5, -1.61091  C18.5, -1.40615 18.5, -1.11132 18.5, -0.77823  C18.5, -0.279756 18.5, 0.298984 18.5, 0.756375  C18.5, 1.21713 18.5, 1.54726 18.5, 1.64417  C18.5, 1.66699 18.5, 1.6784 18.5, 1.67839 " /><path d="M18.5, 1.67839 C18.5, 1.6793 18.5, 1.54546 18.5, 1.31315  C18.5, 1.16 18.5, 0.97668 18.5, 0.763178  C18.5, 0.642385 18.5, 0.517082 18.5, 0.387268  C18.5, 0.354856 18.5, 0.322444 18.5, 0.290033  C18.5, 0.259713 18.5, 0.224487 18.5, 0.184357  C18.5, 0.142985 18.5, 0.0976379 18.5, -0.0108009 " /><path d="M20, -0.0227387 L18.5, -0.0108009 " /><path d="M18.5, 2.6875 L1.5, 2.6875 " /><path d="M18.5, -0.0108009 L1.5, -0.0108009 " /></g>
<g   fill="none"
   stroke="rgb(165, 165, 165)"
   stroke-dasharray="1.2,0.8"
   stroke-linecap="butt"
   stroke-linejoin="miter"
   stroke-width="0.25"
   transform="scale(1, -1)"
  >
<path d="M1.5, -2.4349 L0, -2.17301 " /><path d="M1.5, 2.1827 L0, 1.92084 " /><path d="M1.5, -1.93052 L0, -1.66867 " /><path d="M1.5, 1.67839 L0, 1.4166 " /><path d="M0, 2.41974 L1.5, 2.68184 " /><path d="M0, -2.16756 L1.5, -2.42964 " /><path d="M-2.22045e-16, 1.91542 L1.5, 2.17752 " /><path d="M1.5, 2.68184 L18.5, 2.68184 " /><path d="M1.5, -2.42964 L18.5, -2.42964 " /><path d="M1.5, 2.17752 L18.5, 2.17752 " /><path d="M18.5, 2.68184 L20, 2.41974 " /><path d="M18.5, -2.42964 L20, -2.16756 " /><path d="M18.5, 2.17752 L20, 1.91542 " /><path d="M20, -2.17301 L18.5, -2.4349 " /><path d="M20, 1.92084 L18.5, 2.1827 " /><path d="M20, -1.66867 L18.5, -1.93052 " /><path d="M20, 1.4166 L18.5, 1.67839 " /><path d="M18.5, -2.43489 L1.5, -2.43489 " /><path d="M18.5, 2.18268 L1.5, 2.18268 " /><path d="M18.5, -1.93053 L1.5, -1.93053 " /><path d="M18.5, 1.6784 L1.5, 1.6784 " /></g>
<g   fill="none"
   stroke="rgb(0, 0, 0)"
   stroke-linecap="butt"
   stroke-linejoin="miter"
   stroke-width="0.35"
   transform="scale(1, -1)"
  >
<path d="M0, -2.67195 L1.5, -2.93404 " /><path d="M1.5, -2.93404 L18.5, -2.93404 " /><path d="M18.5, -2.93404 L20, -2.67195 " /></g>
<g   fill="none"
   stroke="rgb(0, 0, 0)"
   stroke-linecap="butt"
   stroke-linejoin="miter"
   stroke-width="0.35"
   transform="scale(1, -1)"
  >
<path d="M0, 2.925 C0, 2.8913 0, 2.86286 0, 2.81172  C0, 2.76126 0, 2.69501 0, 2.61296  C0, 2.42229 0, 2.14822 0, 1.81828  C0, 1.15988 0, 0.276003 0, -0.521148  C0, -1.13457 0, -1.69111 0, -2.07516  C0, -2.4619 0, -2.67359 0, -2.67195 " /><path d="M0, 2.925 L1.5, 3.1875 " /><path d="M1.5, 3.1875 C1.5, 3.15363 1.5, 3.12242 1.5, 3.06789  C1.5, 3.01381 1.5, 2.94246 1.5, 2.85384  C1.5, 2.64789 1.5, 2.35059 1.5, 1.99175  C1.5, 1.27581 1.5, 0.310646 1.5, -0.56256  C1.5, -1.23708 1.5, -1.85083 1.5, -2.27473  C1.5, -2.70159 1.5, -2.93586 1.5, -2.93404 " /><path d="M1.5, 3.1875 L18.5, 3.1875 " /><path d="M18.5, 3.1875 C18.5, 3.15363 18.5, 3.12242 18.5, 3.06789  C18.5, 3.01381 18.5, 2.94246 18.5, 2.85384  C18.5, 2.64789 18.5, 2.35059 18.5, 1.99175  C18.5, 1.27581 18.5, 0.310646 18.5, -0.56256  C18.5, -1.23708 18.5, -1.85083 18.5, -2.27473  C18.5, -2.70159 18.5, -2.93586 18.5, -2.93404 " /><path d="M18.5, -2.05911 Q18.5, -1.79866 18.5, -1.40507 " /><path d="M18.5, 3.1875 L20, 2.925 " /><path d="M20, 2.925 C20, 2.8913 20, 2.86286 20, 2.81172  C20, 2.76126 20, 2.69501 20, 2.61296  C20, 2.42229 20, 2.14822 20, 1.81828  C20, 1.15987 20, 0.276011 20, -0.521148  C20, -1.13457 20, -1.69111 20, -2.07516  C20, -2.4619 20, -2.67359 20, -2.67195 " /><path d="M20, -2.67195 C20, -2.67661 20, -2.2896 20, -1.66867 " /><path d="M20, -2.16756 C20, -2.16895 20, -1.98611 20, -1.66867 " /><path d="M20, -1.38824 Q20, -1.12408 20, -0.809545 " /><path d="M20, 1.54303 C20, 1.78602 20, 1.91631 20, 1.91542 " /><path d="M20, -2.17301 Q20, -2.173 20, -2.16419 " /><path d="M20, -0.645798 Q20, -0.338448 20, -0.0227387 " /><path d="M20, 1.548 C20, 1.7912 20, 1.92173 20, 1.92084 " /><path d="M20, -1.56354 L20, -1.56261 " /><path d="M18.5, 2.6875 C18.5, 2.65395 18.5, 2.62801 18.5, 2.57994  C18.5, 2.53276 18.5, 2.47112 18.5, 2.39502  C18.5, 2.1723 18.5, 1.82735 18.5, 1.41423 " /></g>

</svg>
