<svg xmlns="http://www.w3.org/2000/svg" viewBox="-0.279557796 -0.25681909600000025 3.7238768920000003 2.5646181920000006">
<rect width="100%" height="100%" fill="white"/>
<g   fill="none"
   stroke="rgb(165, 165, 165)"
   stroke-dasharray="1.2,0.8"
   stroke-linecap="butt"
   stroke-linejoin="miter"
   stroke-width="0.25"
   transform="scale(1, -1)"
  >
<path d="M2.6875, 5.55112e-17 C2.6766, -0.179186 2.66591, -0.259093 2.6553, -0.328949  C2.6449, -0.396627 2.63376, -0.456182 2.62188, -0.507614  C2.60959, -0.562225 2.59561, -0.616346 2.57994, -0.669975  C2.53276, -0.831265 2.47112, -0.986294 2.39502, -1.13506  C2.21817, -1.48137 1.96511, -1.78524 1.66133, -2.01951  C1.05509, -2.49297 0.244566, -2.6675 -0.48368, -2.49799  C-1.21453, -2.3365 -1.84728, -1.83659 -2.17105, -1.18572  C-2.50236, -0.537811 -2.51924, 0.245719 -2.23185, 0.890826  C-1.95145, 1.53981 -1.375, 2.03669 -0.714599, 2.22025  C-0.0555522, 2.41134 0.672238, 2.28692 1.21719, 1.9063  C1.76701, 1.53134 2.12285, 0.910528 2.17457, 0.268623  C2.23348, -0.373417 1.98903, -1.02174 1.54175, -1.45576  C1.09877, -1.89524 0.464544, -2.11187 -0.134252, -2.04538  C-0.734495, -1.98545 -1.28582, -1.64587 -1.60424, -1.15901  C-1.92844, -0.675085 -2.01405, -0.0561297 -1.84725, 0.479464  C-1.68617, 1.01759 -1.27838, 1.46066 -0.77823, 1.66488  C-0.279756, 1.87496 0.298984, 1.84321 0.756375, 1.59708  C1.21713, 1.35569 1.54726, 0.907162 1.64417, 0.417982  C1.74673, -0.0707806 1.61588, -0.588786 1.31315, -0.958589  C1.16321, -1.1443 0.973477, -1.29403 0.763178, -1.39541  C0.642385, -1.45361 0.517082, -1.49573 0.387268, -1.52179  C0.354856, -1.52724 0.322444, -1.53269 0.290033, -1.53814  C0.259713, -1.54236 0.224487, -1.54583 0.184357, -1.54856  C0.142985, -1.55126 0.0976379, -1.55311 -0.0108009, -1.5515 " /><path d="M2.6875, 5.55112e-17 L2.425, -2.77556e-17 " /><path d="M-0.0108009, -1.5515 L-0.0227387, -1.28927 " /><path d="M2.68064, 2.22045e-16 C2.66278, -0.672499 2.37947, -1.32439 1.91464, -1.78886  C1.37442, -2.33846 0.591916, -2.61812 -0.153743, -2.545  C-0.900919, -2.48018 -1.59514, -2.06635 -2.00197, -1.46202  C-2.41596, -0.86167 -2.53521, -0.0852296 -2.33411, 0.59335  C-2.14042, 1.27485 -1.63244, 1.84416 -1.00025, 2.11289  C-0.37039, 2.389 0.369381, 2.3605 0.960666, 2.05342  C1.55607, 1.75276 1.99106, 1.18196 2.12622, 0.550758  C2.26868, -0.0795568 2.11027, -0.75637 1.72227, -1.24602  C1.53017, -1.49182 1.28473, -1.69222 1.01062, -1.82989  C0.853155, -1.90894 0.689165, -1.96705 0.51865, -2.00422  C0.47623, -2.01345 0.433615, -2.02134 0.390803, -2.02788  C0.348846, -2.03447 0.302244, -2.03988 0.250995, -2.0441  C0.197847, -2.04852 0.129208, -2.05238 0.0119378, -2.05098 " /><path d="M0.000192425, -1.79298 L0.0119378, -2.05098 " /><path d="M3.1875, 2.77556e-17 C3.17679, -0.187942 3.16516, -0.291191 3.15337, -0.372894  C3.14199, -0.451725 3.12944, -0.522719 3.11571, -0.585877  C3.10178, -0.650842 3.08584, -0.715255 3.06789, -0.779115  C3.01381, -0.971176 2.94246, -1.15606 2.85384, -1.33377  C2.64789, -1.74738 2.35059, -2.11208 1.99175, -2.39478  C1.27581, -2.96598 0.310646, -3.18528 -0.56256, -2.99173  C-1.43864, -2.80787 -2.20439, -2.21735 -2.60193, -1.43933  C-3.0086, -0.665198 -3.04015, 0.278599 -2.7018, 1.06155  C-2.37197, 1.84889 -1.68144, 2.45931 -0.882218, 2.69133  C-0.0849265, 2.93248 0.802946, 2.79224 1.47369, 2.3355  C2.15013, 1.88588 2.59575, 1.13145 2.66885, 0.344109  C2.75083, -0.443097 2.46042, -1.24583 1.91464, -1.78886  C1.37442, -2.33846 0.591916, -2.61812 -0.153743, -2.545  C-0.900919, -2.48018 -1.59514, -2.06635 -2.00197, -1.46202  C-2.41596, -0.86167 -2.53521, -0.0852296 -2.33411, 0.59335  C-2.14042, 1.27485 -1.63244, 1.84416 -1.00025, 2.11289  C-0.37039, 2.389 0.369381, 2.3605 0.960666, 2.05342  C1.55607, 1.75276 1.99106, 1.18196 2.12622, 0.550758  C2.26868, -0.0795568 2.11027, -0.75637 1.72227, -1.24602  C1.53017, -1.49182 1.28473, -1.69222 1.01062, -1.82989  C0.853155, -1.90894 0.689165, -1.96705 0.51865, -2.00422  C0.47623, -2.01345 0.433615, -2.02134 0.390803, -2.02788  C0.348846, -2.03447 0.302244, -2.03988 0.250995, -2.0441  C0.197847, -2.04852 0.129208, -2.05238 0.0119378, -2.05098 " /><path d="M3.1875, 0 L2.925, -2.77556e-17 " /><path d="M2.925, -2.77556e-17 C2.91419, -0.183345 2.90305, -0.27434 2.89188, -0.349823  C2.88102, -0.422798 2.86921, -0.487787 2.85645, -0.544789  C2.84338, -0.604318 2.82847, -0.663328 2.81172, -0.721817  C2.76126, -0.897723 2.69501, -1.06693 2.61296, -1.22945  C2.42229, -1.60773 2.14822, -1.94049 1.81828, -2.19776  C1.15987, -2.71766 0.276011, -2.91343 -0.521148, -2.73252  C-1.321, -2.56037 -2.01689, -2.01748 -2.37572, -1.30618  C-2.74284, -0.598294 -2.76665, 0.261304 -2.45508, 0.971921  C-2.15117, 1.68665 -1.52058, 2.23743 -0.794218, 2.444  C-0.0695018, 2.65892 0.73433, 2.52693 1.33902, 2.11016  C1.94897, 1.69978 2.3475, 1.01545 2.40934, 0.304474  C2.47921, -0.406506 2.21296, -1.12818 1.71887, -1.61398  C1.22971, -2.10579 0.525037, -2.35233 -0.143507, -2.28269  C-0.813533, -2.22048 -1.43279, -1.84558 -1.79316, -1.30294  C-2.16001, -0.763753 -2.26163, -0.0699312 -2.0785, 0.533561  C-1.90194, 1.13978 -1.44658, 1.64283 -0.883687, 1.87768  C-0.322774, 2.11911 0.332397, 2.08893 0.853413, 1.81384  C1.37815, 1.54429 1.75803, 1.0377 1.87314, 0.48105  C1.99464, -0.0750066 1.85073, -0.668331 1.50748, -1.09512  C1.33751, -1.30938 1.12132, -1.48317 0.880713, -1.60179  C0.742501, -1.66989 0.598821, -1.71961 0.449674, -1.75094  C0.412416, -1.75755 0.375157, -1.76416 0.337899, -1.77076  C0.302051, -1.77611 0.261422, -1.7805 0.21601, -1.78394  C0.169045, -1.78746 0.112634, -1.79026 9.99201e-16, -1.78875 " /><path d="M0.0119378, -2.05098 L9.99201e-16, -1.78875 " /><path d="M2.925, 0 L2.425, -2.77556e-17 " /><path d="M2.425, -8.32667e-17 C2.414, -0.174589 2.40381, -0.242242 2.39382, -0.305878  C2.38348, -0.371497 2.37398, -0.417454 2.36261, -0.466526  C2.35118, -0.515702 2.33824, -0.564418 2.32377, -0.612677  C2.28021, -0.757812 2.22366, -0.897168 2.15414, -1.03074  C1.99257, -1.34172 1.76274, -1.61364 1.48786, -1.8225  C0.939265, -2.24462 0.20982, -2.39568 -0.442268, -2.23878  C-1.09685, -2.08905 -1.65981, -1.63667 -1.94483, -1.05257  C-2.23657, -0.470953 -2.24578, 0.228483 -1.98513, 0.801196  C-1.73069, 1.3775 -1.2141, 1.81482 -0.626602, 1.97295  C-0.0401344, 2.1377 0.603618, 2.02164 1.08253, 1.68097  C1.5659, 1.34519 1.87454, 0.794547 1.91509, 0.228996  C1.96187, -0.336838 1.74152, -0.904092 1.34598, -1.28089  C0.954051, -1.66252 0.397677, -1.84609 -0.124021, -1.78308  C-0.64713, -1.72569 -1.12341, -1.42513 -1.39543, -0.999926  C-1.67251, -0.5771 -1.74041, -0.0408681 -1.59166, 0.419676  C-1.44769, 0.882537 -1.09246, 1.2593 -0.661673, 1.42968  C-0.232203, 1.6051 0.262048, 1.57162 0.649122, 1.3575  C1.03917, 1.14724 1.3143, 0.762883 1.39109, 0.348275  C1.47272, -0.0661158 1.35631, -0.500861 1.09836, -0.807686  C0.967824, -0.963478 0.812795, -1.08335 0.63327, -1.16731  C0.531731, -1.21456 0.426738, -1.24829 0.318292, -1.26851  C0.291238, -1.27268 0.264183, -1.27685 0.237129, -1.28102  C0.212917, -1.284 0.183665, -1.28646 0.149372, -1.28841  C0.114182, -1.2902 0.0810638, -1.29099 -0.0227387, -1.28927 " /><path d="M9.99201e-16, -1.78875 L-0.0227387, -1.28927 " /><path d="M2.425, 2.77556e-17 L2.6875, 5.55112e-17 " /><path d="M2.6875, 5.55112e-17 C2.6766, -0.179186 2.66591, -0.259093 2.6553, -0.328949  C2.6449, -0.396627 2.63376, -0.456182 2.62188, -0.507614  C2.60959, -0.562225 2.59561, -0.616346 2.57994, -0.669975  C2.53276, -0.831265 2.47112, -0.986294 2.39502, -1.13506  C2.21817, -1.48137 1.96511, -1.78524 1.66133, -2.01951  C1.05509, -2.49297 0.244566, -2.6675 -0.48368, -2.49799  C-1.21453, -2.3365 -1.84728, -1.83659 -2.17105, -1.18572  C-2.50236, -0.537811 -2.51924, 0.245719 -2.23185, 0.890826  C-1.95145, 1.53981 -1.375, 2.03669 -0.714599, 2.22025  C-0.0555522, 2.41134 0.672238, 2.28692 1.21719, 1.9063  C1.76701, 1.53134 2.12285, 0.910528 2.17457, 0.268623  C2.23348, -0.373417 1.98903, -1.02174 1.54175, -1.45576  C1.09877, -1.89524 0.464544, -2.11187 -0.134252, -2.04538  C-0.734495, -1.98545 -1.28582, -1.64587 -1.60424, -1.15901  C-1.92844, -0.675085 -2.01405, -0.0561297 -1.84725, 0.479464  C-1.68617, 1.01759 -1.27838, 1.46066 -0.77823, 1.66488  C-0.279756, 1.87496 0.298984, 1.84321 0.756375, 1.59708  C1.21713, 1.35569 1.54726, 0.907162 1.64417, 0.417982  C1.74673, -0.0707806 1.61588, -0.588786 1.31315, -0.958589  C1.16321, -1.1443 0.973477, -1.29403 0.763178, -1.39541  C0.642385, -1.45361 0.517082, -1.49573 0.387268, -1.52179  C0.354856, -1.52724 0.322444, -1.53269 0.290033, -1.53814  C0.259713, -1.54236 0.224487, -1.54583 0.184357, -1.54856  C0.142985, -1.55126 0.0976379, -1.55311 -0.0108009, -1.5515 " /><path d="M-0.0227387, -1.28927 L-0.0108009, -1.5515 " /></g>
<g   fill="none"
   stroke="rgb(0, 0, 0)"
   stroke-linecap="butt"
   stroke-linejoin="miter"
   stroke-width="0.35"
   transform="scale(1, -1)"
  >
<path d="M2.425, -8.32667e-17 C2.414, -0.174589 2.40381, -0.242242 2.39382, -0.305878  C2.38348, -0.371497 2.37398, -0.417454 2.36261, -0.466526  C2.35118, -0.515702 2.33824, -0.564418 2.32377, -0.612677  C2.28021, -0.757812 2.22366, -0.897168 2.15414, -1.03074  C1.99257, -1.34172 1.76274, -1.61364 1.48786, -1.8225  C0.939265, -2.24462 0.20982, -2.39568 -0.442268, -2.23878  C-1.09685, -2.08905 -1.65981, -1.63667 -1.94483, -1.05257  C-2.23657, -0.470953 -2.24578, 0.228483 -1.98513, 0.801196  C-1.73069, 1.3775 -1.2141, 1.81482 -0.626602, 1.97295  C-0.0401344, 2.1377 0.603618, 2.02164 1.08253, 1.68097  C1.5659, 1.34519 1.87454, 0.794547 1.91509, 0.228996  C1.96187, -0.336838 1.74152, -0.904092 1.34598, -1.28089  C0.954051, -1.66252 0.397677, -1.84609 -0.124021, -1.78308  C-0.64713, -1.72569 -1.12341, -1.42513 -1.39543, -0.999926  C-1.67251, -0.5771 -1.74041, -0.0408681 -1.59166, 0.419676  C-1.44769, 0.882537 -1.09246, 1.2593 -0.661673, 1.42968  C-0.232203, 1.6051 0.262048, 1.57162 0.649122, 1.3575  C1.03917, 1.14724 1.3143, 0.762883 1.39109, 0.348275  C1.47272, -0.0661158 1.35631, -0.500861 1.09836, -0.807686  C0.967824, -0.963478 0.812795, -1.08335 0.63327, -1.16731  C0.531731, -1.21456 0.426738, -1.24829 0.318292, -1.26851  C0.291238, -1.27268 0.264183, -1.27685 0.237129, -1.28102  C0.212917, -1.284 0.183665, -1.28646 0.149372, -1.28841  C0.114182, -1.2902 0.0810638, -1.29099 -0.0227387, -1.28927 " /><path d="M2.425, 2.77556e-17 L2.925, 0 " /><path d="M2.925, 0 C2.91419, -0.183345 2.90305, -0.27434 2.89188, -0.349823  C2.88102, -0.422798 2.86921, -0.487787 2.85645, -0.544789  C2.84338, -0.604318 2.82847, -0.663328 2.81172, -0.721817  C2.76126, -0.897723 2.69501, -1.06693 2.61296, -1.22945  C2.42229, -1.60773 2.14822, -1.94049 1.81828, -2.19776  C1.15988, -2.71766 0.276003, -2.91343 -0.521148, -2.73252  C-1.321, -2.56038 -2.0169, -2.01747 -2.37572, -1.30618  C-2.74283, -0.598302 -2.76665, 0.261314 -2.45508, 0.971921  C-2.15118, 1.68666 -1.52058, 2.23743 -0.794215, 2.444  C-0.0695017, 2.65892 0.734324, 2.52693 1.33903, 2.11016  C1.94897, 1.69977 2.34751, 1.01546 2.40934, 0.304477  C2.47922, -0.406512 2.21297, -1.12819 1.71887, -1.61398  C1.22971, -2.1058 0.525042, -2.35234 -0.143509, -2.28269  C-0.813541, -2.22048 -1.43277, -1.84558 -1.79316, -1.30294  C-2.16001, -0.763739 -2.26164, -0.0699377 -2.0785, 0.533558  C-1.90194, 1.13979 -1.44658, 1.64283 -0.883687, 1.87768  C-0.322781, 2.11911 0.332402, 2.08893 0.853413, 1.81384  C1.37815, 1.54429 1.75804, 1.0377 1.87314, 0.48105  C1.99465, -0.0750011 1.85072, -0.668337 1.50748, -1.09512  C1.33751, -1.30938 1.12132, -1.48317 0.880713, -1.60179  C0.742501, -1.66989 0.598821, -1.71961 0.449674, -1.75094  C0.412416, -1.75755 0.375157, -1.76416 0.337899, -1.77076  C0.302051, -1.77611 0.261422, -1.7805 0.21601, -1.78394  C0.169045, -1.78746 0.112634, -1.79026 9.71445e-16, -1.78875 " /><path d="M-0.0227387, -1.28927 L9.99201e-16, -1.78875 " /><path d="M2.925, 0 L3.1875, 0 " /><path d="M3.1875, 2.77556e-17 C3.17679, -0.187942 3.16516, -0.291191 3.15337, -0.372894  C3.14199, -0.451725 3.12944, -0.522719 3.11571, -0.585877  C3.10178, -0.650842 3.08584, -0.715255 3.06789, -0.779115  C3.01381, -0.971176 2.94246, -1.15606 2.85384, -1.33377  C2.64789, -1.74738 2.35059, -2.11208 1.99175, -2.39478  C1.27581, -2.96598 0.310646, -3.18528 -0.56256, -2.99173  C-1.43864, -2.80787 -2.20439, -2.21735 -2.60193, -1.43933  C-3.0086, -0.665198 -3.04015, 0.278599 -2.7018, 1.06155  C-2.44118, 1.67911 -1.96153, 2.19267 -1.3766, 2.49243  C-0.793097, 2.79559 -0.109568, 2.88286 0.519523, 2.74297  C1.14969, 2.60655 1.72009, 2.24468 2.10711, 1.74549  C2.49713, 1.24826 2.70098, 0.618464 2.68064, 1.11022e-16 " /><path d="M9.99201e-16, -1.78875 L0.000192425, -1.79298 " /></g>

</svg>
