<svg xmlns="http://www.w3.org/2000/svg" viewBox="-6.8825872 -8.5144272 11.502424399999999 15.7224544">
<rect width="100%" height="100%" fill="white"/>
<g   fill="none"
   stroke="rgb(0, 0, 0)"
   stroke-linecap="butt"
   stroke-linejoin="miter"
   stroke-width="0.35"
   transform="scale(1, -1)"
  >
<path id= "1" d=" M -3.53553 -6.12372 L -5.79828 -4.81733 " />
<path id= "2" d=" M -5.79828 -4.81733 L -5.79828 3.34764 " />
<path id= "3" d=" M -3.53553 -6.12372 L 3.53553 -2.04124 " />
<path id= "4" d=" M -5.79828 -4.81733 L 1.27279 -0.734847 " />
<path id= "5" d=" M 3.53553 -2.04124 L 1.27279 -0.734847 " />
<path id= "6" d=" M 1.27279 -0.734847 L 1.27279 7.43012 " />
<path id= "7" d=" M -5.79828 3.34764 L 1.27279 7.43012 " />
<g transform = "rotate(60, -2.26274, 1.30639)">
<ellipse cx ="-2.26274" cy ="1.30639" rx ="3.3"  ry ="1.90526"/>
</g>
<path id= "9" d=" M 3.53553 6.12372 L 1.27279 7.43012 " />
<path id= "10" d=" M 3.53553 -2.04124 L 3.53553 6.12372 " />
<path d="M-1.08499 0.175207 A2.45873 1.41955 60 0 1 -0.364761 2.21814" />
<path d="M-0.364761 2.21814 A2.45873 1.41955 60 0 1 -0.694192 3.20379" />
<path d="M-0.694192, 3.20379 C-0.91934, 3.49496 -1.27834, 3.61406 -1.68816, 3.53656  C-2.11576, 3.45893 -2.59463, 3.16817 -3.01407, 2.73632  C-3.46072, 2.2801 -3.83603, 1.66992 -4.05207, 1.05751  C-4.2875, 0.398851 -4.33657, -0.254736 -4.19208, -0.733455 " /><path d="M-3.0835, -1.46315 C-3.10833, -1.46904 -3.13911, -1.4735 -3.17582, -1.47654  C-3.30429, -1.48719 -3.46188, -1.46926 -3.59969, -1.41483 " /><path d="M-3.59969, -1.41483 C-3.70682, -1.37339 -3.80364, -1.31299 -3.89013, -1.23363  C-4.03083, -1.10537 -4.13626, -0.92348 -4.19208, -0.733455 " /><path d="M-1.08499, 0.175207 C-1.31427, -0.206682 -1.61178, -0.562115 -1.93739, -0.841164  C-2.30441, -1.15697 -2.70572, -1.37465 -3.0835, -1.46315 " /><path d="M-0.37864 1.95697 A2.45873 1.41955 60 0 1 -1.18499 1.12095" />
<path d="M-0.589599, 3.07575 C-0.986094, 3.12113 -1.46091, 2.95583 -1.90268, 2.62498  C-2.27933, 2.34518 -2.6297, 1.9489 -2.89354, 1.51169  C-3.2074, 0.995197 -3.39604, 0.425409 -3.41881, -0.0497968  C-3.4429, -0.501043 -3.31913, -0.863453 -3.08166, -1.051 " /><path d="M-0.653722, 3.15963 C-1.07464, 3.25314 -1.60384, 3.08759 -2.09176, 2.71782  C-2.48056, 2.42612 -2.84029, 2.01047 -3.10511, 1.55517  C-3.40734, 1.03935 -3.58374, 0.4768 -3.59729, 0.0111857  C-3.61435, -0.472252 -3.45683, -0.845902 -3.1739, -1.00665 " /><path d="M-3.1739, -1.00665 C-2.95427, -1.13445 -2.66122, -1.13379 -2.34716, -1.00267  C-1.91113, -0.824184 -1.43887, -0.388761 -1.08499, 0.175207 " /><path d="M-0.367415, 2.10572 C-0.875105, 1.82033 -1.36732, 1.30351 -1.70151, 0.720387  C-2.02371, 0.164681 -2.19809, -0.442593 -2.18349, -0.924195 " /><path d="M-1.18499, 1.12095 C-1.65326, 0.529419 -1.95968, -0.211026 -2.00123, -0.812625 " /><path d="M-0.404042, 2.6198 C-0.664103, 2.54942 -0.935572, 2.41065 -1.19539, 2.21687  C-1.57189, 1.93722 -1.92215, 1.54118 -2.18598, 1.10419  C-2.50318, 0.582509 -2.69248, 0.00640542 -2.71236, -0.471784  C-2.72241, -0.706827 -2.69529, -0.911885 -2.63102, -1.08696 " /><path d="M-0.438479, 2.75397 C-0.743216, 2.6999 -1.07024, 2.54583 -1.38031, 2.31283  C-1.77722, 2.01618 -2.14404, 1.59012 -2.41107, 1.12438  C-2.70373, 0.617649 -2.87485, 0.0680836 -2.88992, -0.38919  C-2.9001, -0.668764 -2.85381, -0.913918 -2.75689, -1.10086 " /></g>

</svg>
