<svg xmlns="http://www.w3.org/2000/svg" viewBox="-5.8 -5.8 11.6 11.6">
<rect width="100%" height="100%" fill="white"/>
<g   fill="none"
   stroke="rgb(0, 0, 0)"
   stroke-linecap="butt"
   stroke-linejoin="miter"
   stroke-width="0.35"
   transform="scale(1, -1)"
  >
<path id= "1" d=" M -5 -5 L -5 5 " />
<path id= "2" d=" M -5 -5 L 5 -5 " />
<path id= "3" d=" M 5 -5 L 5 5 " />
<path id= "4" d=" M -5 5 L 5 5 " />
<circle cx ="0" cy ="0" r ="3.3" /><path d="M1.44018 -1.9928 A2.45873 2.45873 0 0 1 2.45873 -6.02216e-16" /><path d="M2.45873 0 A2.45873 2.45873 0 0 1 1.99285 1.44011" /><path d="M1.99285, 1.44011 C1.68649, 1.94387 1.1906, 2.33178 0.622596, 2.51507  C0.0299862, 2.71025 -0.635378, 2.68089 -1.21691, 2.43693  C-1.83621, 2.18165 -2.35486, 1.68761 -2.64848, 1.07843  C-2.96866, 0.425428 -3.02552, -0.352884 -2.80888, -1.05366 " /><path d="M-1.24112, -2.73124 C-1.27472, -2.7224 -1.31695, -2.70739 -1.36781, -2.68622  C-1.58675, -2.59534 -1.86176, -2.42096 -2.08825, -2.20388 " /><path d="M-2.08825, -2.20388 C-2.42757, -1.88712 -2.6895, -1.45392 -2.80888, -1.05366 " /><path d="M1.44018, -1.9928 C1.14038, -2.32284 0.743158, -2.57131 0.305454, -2.70561  C-0.187919, -2.85854 -0.730752, -2.86608 -1.24112, -2.73124 " /><path d="M1.99285, 1.44011 C1.68217, 1.87215 1.22695, 2.19755 0.717626, 2.35168  C0.309475, 2.47677 -0.13141, 2.49257 -0.547469, 2.39701  C-1.06313, 2.28048 -1.53766, 1.99158 -1.87797, 1.58702  C-2.2666, 1.13019 -2.47728, 0.527156 -2.45767, -0.0722994  C-2.44029, -0.822516 -2.05463, -1.55237 -1.44478, -1.98947  C-1.15739, -2.19849 -0.824081, -2.34388 -0.475369, -2.41234  C0.184797, -2.54559 0.896188, -2.38976 1.44018, -1.9928 " /><path d="M1.44018, -1.9928 C2.07286, -1.54211 2.46404, -0.776717 2.45873, 1.10064e-07 " /><path d="M2.45873, 2.19213e-07 L2.45873, 0.000160329 " /><path d="M1.44018, -1.9928 C2.07286, -1.54211 2.46404, -0.776717 2.45873, 2.19213e-07 " /></g>

</svg>
