<svg xmlns="http://www.w3.org/2000/svg" viewBox="-3.0068012000000004 -3.8964112 19.942012400000003 15.544622400000002">
<rect width="100%" height="100%" fill="white"/>
<g   fill="none"
   stroke="rgb(0, 0, 0)"
   stroke-linecap="butt"
   stroke-linejoin="miter"
   stroke-width="0.35"
   transform="scale(1, -1)"
  >
<path id= "1" d=" M -1.63149 -2.21638 L -1.19135 -2.71353 " />
<path id= "2" d=" M 1.1037 2.5211 L 1.75431 2.3885 " />
<path id= "3" d=" M -0.934315 -2.92467 L 11.1572 -9.90572 " />
<path id= "4" d=" M 2.06569 2.27148 L 14.1572 -4.70957 " />
<path id= "5" d=" M 15.2448 -5.85881 L 14.4142 -4.92071 " />
<path id= "6" d=" M 12.6963 -10.2729 L 11.4686 -10.0227 " />
</g>
<g   fill="none"
   stroke="rgb(0, 0, 0)"
   stroke-linecap="butt"
   stroke-linejoin="miter"
   stroke-width="0.35"
   transform="scale(1, -1)"
  >
<path d="M0.446949, -1.29125 C0.59363, -0.793581 0.910251, -0.267728 1.30105, 0.111099 " /><path d="M0.279559, -1.43937 C0.311581, -1.06828 0.493289, -0.620409 0.771875, -0.24888  C0.944053, -0.0174901 1.15107, 0.183719 1.36656, 0.326213 " /><path d="M-0.0761763, -1.10689 C0.0573726, -0.576853 0.392974, 0.000378696 0.81494, 0.40548 " /><path d="M0.435955, -1.30177 C0.538229, -0.806319 0.878419, -0.23807 1.30154, 0.112714 " /><path d="M-0.218783, -1.19773 C-0.197359, -0.818377 -0.0130329, -0.349503 0.276901, 0.0368933  C0.591871, 0.46351 1.02676, 0.776775 1.40963, 0.838983 " /><path d="M1.42344, 0.841251 L1.432, 0.842559 " /><path d="M-0.571146, -0.821098 C-0.437596, -0.291074 -0.102004, 0.286143 0.319952, 0.69124 " /><path d="M-0.0946349, -1.2694 C-0.0750123, -0.930135 0.0732627, -0.519272 0.313086, -0.159853  C0.60463, 0.283628 1.03052, 0.635739 1.42258, 0.742182 " /><path d="M-0.0540749, -1.66302 Q-0.10798, -1.49239 -0.0946349, -1.2694 " /><path d="M-0.144343, -1.67839 Q-0.235403, -1.48305 -0.218783, -1.19773 " /><path d="M-0.713756, -0.911955 C-0.688463, -0.4089 -0.364178, 0.248697 0.088745, 0.668135  C0.479113, 1.03954 0.946463, 1.21545 1.28854, 1.10788 " /><path d="M-1.13579, -0.977245 C-1.11898, -0.622095 -0.991217, -0.204339 -0.775844, 0.18543  C-0.56175, 0.575632 -0.261553, 0.934809 0.0648709, 1.18462 " /><path d="M-0.589608, -0.983632 C-0.566534, -0.560577 -0.337693, -0.0265966 0.00909482, 0.380847  C0.239229, 0.654548 0.516687, 0.869764 0.787424, 0.979626  C0.977514, 1.05683 1.15508, 1.08272 1.32013, 1.05728 " /><path d="M-0.374783, -1.64935 C-0.529719, -1.52404 -0.608783, -1.28288 -0.589608, -0.983632 " /><path d="M-0.059276, -1.66578 Q-0.278332, -1.71072 -0.439801, -1.61856 " /><path d="M-0.439801, -1.61856 C-0.632605, -1.50923 -0.735586, -1.24787 -0.713756, -0.911955 " /><path d="M1.30667, 1.37901 Q1.38243, 1.19035 1.40885, 0.965426 " /><path d="M1.40885, 0.965426 Q1.42117, 0.860388 1.4225, 0.749841 " /><path d="M1.30656, 1.37923 Q1.38222, 1.22741 1.41762, 1.03943 " /><path d="M-1.13697, -1.12219 Q-1.13948, -1.05168 -1.13579, -0.977245 " /><path d="M1.4225, 0.749841 L1.42046, 0.621863 " /><path d="M-1.14482, -0.827663 C-1.12361, -0.494846 -1.00057, -0.11021 -0.800137, 0.241485  C-0.597418, 0.599874 -0.315964, 0.920926 -0.0179358, 1.12945  C0.324674, 1.37209 0.685148, 1.46005 0.95725, 1.36495  C1.18919, 1.28704 1.35581, 1.08016 1.42159, 0.791888 " /><path d="M1.30656, 0.129425 C1.33594, 0.20984 1.36819, 0.319725 1.39105, 0.433936  C1.4179, 0.565929 1.43157, 0.696869 1.43207, 0.826754  C1.43126, 0.97324 1.41409, 1.10076 1.38058, 1.20932 " /><path d="M1.38058, 1.20932 Q1.34624, 1.31781 1.30658, 1.37924 " /><path d="M-1.14482, -0.827663 C-1.17007, -1.19479 -1.07131, -1.49509 -0.876228, -1.65098  C-0.693578, -1.80023 -0.427582, -1.82041 -0.138883, -1.70528 " /><path d="M1.30657 1.37924 A2 1.1547 60 1 1 -0.178197 -1.72286" />
<path d="M-0.178197 -1.72286 A2 1.1547 60 0 1 1.30656 0.129425" />
<path d="M1.96975 1.13723 A2.78564 1.60829 60 0 1 1.1037 2.5211" />
<path d="M1.1037 2.5211 A2.78564 1.60829 60 0 1 -1.63149 -2.21638" />
<path d="M-1.63149 -2.21638 A2.78564 1.60829 60 0 1 1.96975 1.13723" />
<path d="M2.68701 0.898146 A3 1.73205 60 0 1 2.06569 2.27148" />
<path d="M2.06569 2.27148 A3 1.73205 60 0 1 1.75431 2.3885" />
<path d="M-1.19135 -2.71353 A3 1.73205 60 0 1 -0.934315 -2.92467" />
<path d="M-0.934315 -2.92467 A3 1.73205 60 0 1 2.68701 0.898146" />
<path d="M14.7785 -6.0829 A3 1.73205 60 0 1 14.4142 -4.92071" />
<path d="M14.4142 -4.92071 A3 1.73205 60 0 1 14.1572 -4.70957" />
<path d="M11.1572 -9.90572 A3 1.73205 60 0 1 11.4686 -10.0227" />
<path d="M11.4686 -10.0227 A3 1.73205 60 0 1 14.7785 -6.0829" />
<path d="M15.5599 -6.8643 A2.59552 1.49852 60 0 1 15.2448 -5.85881" />
<path d="M12.6963 -10.2729 A2.59552 1.49852 60 0 1 15.5599 -6.8643" />
</g>

</svg>
