<svg xmlns="http://www.w3.org/2000/svg" viewBox="-1.5527680000000001 -4.552768 22.515136000000002 9.105536">
<rect width="100%" height="100%" fill="white"/>
<g   fill="none"
   stroke="rgb(0, 0, 0)"
   stroke-linecap="butt"
   stroke-linejoin="miter"
   stroke-width="0.35"
   transform="scale(1, -1)"
  >
<path id= "1" d=" M 2.01838e-16 -2.78564 L 0.8 -3 " />
<path id= "2" d=" M 0.8 -3 L 17.9 -3 " />
<path id= "3" d=" M 19.4096 -2.59552 L 17.9 -3 " />
<path d="M19.4096 -2.59552 A6 6 0 0 1 20 -1.25819e-15" /></g>
<g   fill="none"
   stroke="rgb(0, 0, 0)"
   stroke-linecap="butt"
   stroke-linejoin="miter"
   stroke-width="0.35"
   transform="scale(1, -1)"
  >
<path d="M0, -2.78564 L0, -2.7158  L0, -2.50978  L0, -2.1779  L0, -1.73682  L0, -1.20864  L0, -0.619863  L0, -5.55112e-16  L0, 0.619863  L0, 1.20864  L0, 1.73682  L0, 2.1779  L0, 2.50978  L0, 2.7158  L0, 2.78564 " /><path id= "2" d=" M 0 2.78564 L 0.8 3 " />
<path d="M0.8, -3 L0.8, -2.92478  L0.8, -2.70291  L0.8, -2.34549  L0.8, -1.87047  L0.8, -1.30165  L0.8, -0.667563  L0.8, -5.55112e-16  L0.8, 0.667563  L0.8, 1.30165  L0.8, 1.87047  L0.8, 2.34549  L0.8, 2.70291  L0.8, 2.92478  L0.8, 3 " /><path id= "4" d=" M 0.8 3 L 17.9 3 " />
<path d="M17.9, -3 L17.9, -2.92478  L17.9, -2.70291  L17.9, -2.34549  L17.9, -1.87047  L17.9, -1.30165  L17.9, -0.667563  L17.9, -5.55112e-16  L17.9, 0.667563  L17.9, 1.30165  L17.9, 1.87047  L17.9, 2.34549  L17.9, 2.70291  L17.9, 2.92478  L17.9, 3 " /><path d="M19.4096, -2.59552 L19.4096, -2.53044  L19.4096, -2.33848  L19.4096, -2.02926  L19.4096, -1.61828  L19.4096, -1.12615  L19.4096, -0.577557  L19.4096, -2.88658e-15  L19.4096, 0.577557  L19.4096, 1.12615  L19.4096, 1.61828  L19.4096, 2.02926  L19.4096, 2.33848  L19.4096, 2.53044  L19.4096, 2.59552 " /><path id= "7" d=" M 17.9 3 L 19.4096 2.59552 " />
<path d="M19.4096 2.59552 A6 6 0 0 0 20 2.88083e-16" /></g>

</svg>
