<svg xmlns="http://www.w3.org/2000/svg" viewBox="-3.48 -3.48 6.96 6.96">
<rect width="100%" height="100%" fill="white"/>
<g   fill="none"
   stroke="rgb(0, 0, 0)"
   stroke-linecap="butt"
   stroke-linejoin="miter"
   stroke-width="0.35"
   transform="scale(1, -1)"
  >
<path d="M-0.293142, -1.5949 L-0.400461, -1.57139 " /><path d="M-0.797208, -1.41212 Q-1.00662, -1.29367 -1.17291, -1.11979 " /><path d="M-1.17908, -1.11329 Q-1.253, -1.03499 -1.31593, -0.947613 " /><path d="M-1.62161, -0.00110192 L-1.62161, 1.68905e-07 " /><path d="M-1.62136, 0.0287627 L-1.62067, 0.0554627 " /><path d="M-1.62059, 0.0575162 L-1.62015, 0.0688534 " /><path d="M-1.61233, 0.173232 Q-1.60287, 0.261241 -1.5839, 0.347698 " /><path d="M-1.55858, 0.447735 L-1.54082, 0.505471 " /><path d="M-1.50897, 0.593848 Q-1.47702, 0.675008 -1.43656, 0.752277 " /><path d="M-1.38731, 0.839643 Q-1.35534, 0.892459 -1.31945, 0.942694 " /><path d="M-1.26175, 1.01864 Q-1.20725, 1.08613 -1.14587, 1.14743 " /><path d="M-1.06867, 1.21966 Q-1.02544, 1.25754 -0.97965, 1.29225 " /><path d="M-0.962987, 1.30472 Q-0.881717, 1.36469 -0.793641, 1.41413 " /><path d="M-0.657314, 1.48242 L-0.565307, 1.51989 " /><path d="M-0.296075, -1.59436 Q-0.446095, -1.56646 -0.588303, -1.51114 " /><path d="M-0.797207, -1.41212 C-1.04327, -1.27361 -1.25178, -1.06936 -1.39535, -0.826219 " /><path d="M-1.50776, -0.596901 L-1.5087, -0.59453 " /><path d="M-1.60759, -0.212784 L-1.6178, -0.111142 " /><path d="M-1.62161, -0.00109666 L-1.62161, 6.75621e-07 " /><path d="M-0.824975, -1.39608 L-0.912932, -1.34022 " /><path d="M-1.59108, -0.313223 L-1.59513, -0.291858 " /><path d="M1.24802, 1.03541 C1.48535, 0.750932 1.6197, 0.383021 1.62157, 0.0125647 " /><path d="M0.0045667, -1.62161 C-0.327049, -1.6232 -0.658133, -1.51941 -0.929513, -1.32877 " /><path d="M-0.930432, -1.32813 Q-1.0308, -1.2578 -1.11947, -1.17321 " /><path d="M-1.62161, 1.68905e-07 C-1.6244, 0.482546 -1.39676, 0.959489 -1.01981, 1.2608  C-0.706107, 1.51637 -0.294083, 1.64666 0.109529, 1.61791  C0.440293, 1.59618 0.763081, 1.46947 1.02032, 1.26039  C1.3936, 0.961685 1.62056, 0.490661 1.62157, 0.0125647 " /><path d="M-0.308481, -1.592 C-0.843911, -1.49274 -1.31284, -1.10313 -1.50853, -0.594965 " /><path d="M-1.62161, 8.44524e-08 C-1.6244, 0.482546 -1.39676, 0.959489 -1.01981, 1.2608  C-0.706107, 1.51637 -0.294083, 1.64666 0.109528, 1.61791  C0.440293, 1.59618 0.763081, 1.46947 1.02032, 1.26039  C1.3936, 0.961684 1.62056, 0.490661 1.62157, 0.0125647 " /><path d="M1.13164, 1.64906 C1.66836, 1.28644 2.00414, 0.649482 2, 0.00184897  C2.00534, -0.645775 1.67074, -1.28335 1.13469, -1.64696 " /><path d="M0.0045667 -1.62161 A1.62161 1.62161 0 0 1 1.62161 -3.97181e-16" /><path d="M0.0045667, -1.62161 C-0.426906, -1.62465 -0.855692, -1.44551 -1.15677, -1.13645  C-1.45251, -0.837767 -1.62326, -0.420311 -1.62161, 8.44524e-08 " /><path d="M1.84789, 0.765 Q1.96232, 0.387394 1.92422, -4.44089e-16 " /><path d="M1.84776, 0.765324 C2.05041, 0.281632 2.05037, -0.28196 1.84764, -0.765619 " /><path d="M1.92422, -4.44089e-16 C1.88336, -0.418679 1.69903, -0.816802 1.41201, -1.10945  C1.04514, -1.49035 0.507852, -1.68336 0.0045667, -1.62161 " /><path d="M1.62161 0 A1.62161 1.62161 0 0 1 1.62157 0.0125647" /><path d="M-1.82319, 3.94632e-08 C-1.80985, 0.409271 -1.65264, 0.810145 -1.38609, 1.11607  C-1.11662, 1.42888 -0.735901, 1.64038 -0.331886, 1.7025  C0.132556, 1.77749 0.622046, 1.65061 0.986377, 1.36222  C1.39872, 1.04334 1.6414, 0.525557 1.62157, 0.0125647 " /><path d="M1.84776, -0.765367 C1.8893, -0.687651 1.93491, -0.575875 1.96725, -0.452162  C2.00522, -0.309466 2.02455, -0.158746 2.02526, -1.08534e-06 " /><path d="M2.02526, -1.08534e-06 C2.02454, 0.159346 2.00507, 0.310578 1.96684, 0.453694  C1.93455, 0.576771 1.88914, 0.687943 1.84778, 0.765334 " /><path d="M-1.82319, 3.94632e-08 C-1.84058, -0.450104 -1.68276, -0.905879 -1.38885, -1.25277  C-1.10139, -1.59649 -0.685151, -1.83134 -0.238669, -1.90128  C0.180817, -1.96937 0.623506, -1.89207 0.998346, -1.68509  C1.36988, -1.48223 1.67278, -1.15435 1.84764, -0.765607 " /><path d="M1.84777 0.76533 A2 2 0 1 1 1.84776 -0.765367" /><circle cx ="0" cy ="0" r ="2.78564" /><circle cx ="0" cy ="0" r ="3" /></g>

</svg>
