<svg xmlns="http://www.w3.org/2000/svg" viewBox="-8.1472716 -7.8206516 12.9625232 13.9101632">
<rect width="100%" height="100%" fill="white"/>
<g   fill="none"
   stroke="rgb(0, 0, 0)"
   stroke-linecap="butt"
   stroke-linejoin="miter"
   stroke-width="0.35"
   transform="scale(1, -1)"
  >
<path id= "1" d=" M -7.18795 -0.401741 L -6.92636 -1.23466 " />
<path id= "2" d=" M -3.24606 6.42582 L -2.26628 6.64418 " />
</g>
<g   fill="none"
   stroke="rgb(0, 0, 0)"
   stroke-linecap="butt"
   stroke-linejoin="miter"
   stroke-width="0.35"
   transform="scale(1, -1)"
  >
<path d="M3.06186, 3.80901 C2.73741, 4.26999 2.34204, 4.77175 1.81469, 5.3918 " /><path d="M3.85593, 2.48782 C3.63662, 2.93002 3.38489, 3.34885 3.06186, 3.80901 " /><path id= "3" d=" M 3.85593 2.48782 L 1.31062 3.95736 " />
<path d="M-0.730617, 6.86133 L-0.796463, 6.76646  L-0.831037, 6.65804  L-0.834553, 6.53539  L-0.80703, 6.39775  L-0.748301, 6.24429  L-0.658002, 6.07405  L-0.535579, 5.88599  L-0.380276, 5.67895  L-0.191137, 5.45164  L0.0330038, 5.20268  L0.293527, 4.93052  L0.592038, 4.6335  L0.930375, 4.30977  L1.31062, 3.95736 " /><path id= "5" d=" M 1.81469 5.3918 L -0.730617 6.86133 " />
<path d="M-2.26628, 6.64418 C-1.82663, 6.74195 -1.31984, 6.81361 -0.730617, 6.86133 " /><path d="M1.31062, 3.95736 L0.930375, 3.68097  L0.592038, 3.39717  L0.293527, 3.1042  L0.0330038, 2.80027  L-0.191137, 2.48349  L-0.380276, 2.15192  L-0.535579, 1.80351  L-0.658002, 1.43612  L-0.748301, 1.04748  L-0.80703, 0.635204  L-0.834553, 0.196745  L-0.831037, -0.270596  L-0.796463, -0.769699  L-0.730617, -1.30364 " /><path d="M-1.017 4.23017 A4.46175 2.57599 60 0 1 -3.24606 6.42582" />
<path d="M-3.24606 6.42582 A4.46175 2.57599 60 0 1 -7.18795 -0.401741" />
<path d="M-7.18795 -0.401741 A4.46175 2.57599 60 0 1 -1.017 4.23017" />
<path d="M-4.8131, -3.66066 L-5.08647, -3.40835  L-5.33855, -3.17069  L-5.57012, -2.94696  L-5.78189, -2.73647  L-5.97452, -2.53857  L-6.14859, -2.35264  L-6.30465, -2.17811  L-6.44318, -2.01446  L-6.56459, -1.86117  L-6.66928, -1.71777  L-6.75755, -1.58381  L-6.82968, -1.4589  L-6.88589, -1.34263  L-6.92636, -1.23466 " /><path d="M-0.730617, -1.30364 L-1.26807, -1.35638  L-1.75829, -1.42411  L-2.2043, -1.50724  L-2.60884, -1.60628  L-2.97442, -1.72185  L-3.30328, -1.85465  L-3.59744, -2.0055  L-3.85873, -2.17534  L-4.08874, -2.3652  L-4.28891, -2.57627  L-4.46045, -2.80983  L-4.60444, -3.06734  L-4.72174, -3.35036  L-4.8131, -3.66066 " /><path d="M3.06186, -0.273475 C3.38489, 0.561337 3.63662, 1.4367 3.85593, 2.48782 " /><path d="M1.81469, -2.77317 C2.34204, -1.89989 2.73741, -1.10746 3.06186, -0.273475 " /><path id= "15" d=" M 1.81469 -2.77317 L -0.730617 -1.30364 " />
<path d="M-3.23856e-08, -4.08248 C0.646774, -3.70824 1.22205, -3.29318 1.81469, -2.77317 " /><path d="M-2.2678, -5.13019 C-1.36711, -4.78803 -0.648199, -4.4559 -3.23856e-08, -4.08248 " /><path id= "18" d=" M -2.2678 -5.13019 L -4.8131 -3.66066 " />
<g transform = "rotate(60, -4.17193, 2.40866)">
<ellipse cx ="-4.17193" cy ="2.40866" rx ="3.15"  ry ="1.81865"/>
</g>
<path d="M-2.20426, 3.43494 C-2.23092, 2.69791 -2.58712, 1.81246 -3.11135, 1.17329 " /><path d="M-2.20426, 3.43494 C-2.16987, 4.14825 -2.43491, 4.70577 -2.89834, 4.90225  C-3.14277, 5.00952 -3.43866, 5.01999 -3.75414, 4.93395  C-4.08328, 4.84495 -4.43307, 4.65106 -4.76487, 4.37559 " /><path d="M-6.01709, 2.45931 C-6.01045, 2.49132 -5.99893, 2.53268 -5.98253, 2.58341  C-5.92512, 2.76086 -5.82338, 2.99457 -5.69985, 3.21647  C-5.48015, 3.61616 -5.17716, 4.00438 -4.87861, 4.27625 " /><path d="M-4.87861, 4.27625 Q-4.82077, 4.32927 -4.76487, 4.37559 " /><path d="M-5.51006, 0.411283 C-5.7479, 0.555659 -5.92294, 0.811256 -6.01458, 1.14165  C-6.11843, 1.51151 -6.11733, 1.97384 -6.01709, 2.45931 " /><path d="M-5.51006 0.411283 A2.45873 1.41955 60 0 1 -5.27032 0.203721" />
<path d="M-5.27032 0.203721 A2.45873 1.41955 60 0 1 -3.11135 1.17329" />
<path d="M-2.39722, 4.21697 C-2.83988, 4.41987 -3.45846, 4.27581 -4.02488, 3.84906  C-4.4012, 3.5693 -4.75123, 3.1733 -5.01485, 2.73643  C-5.32916, 2.21921 -5.51787, 1.64856 -5.54023, 1.17295  C-5.56442, 0.713206 -5.43477, 0.346203 -5.18816, 0.16224 " /><path d="M-2.27099, 4.10823 Q-2.36709, 4.2057 -2.48294, 4.27263 " /><path d="M-2.48294, 4.27263 C-2.80194, 4.45891 -3.22935, 4.45414 -3.66969, 4.26326  C-4.15792, 4.05546 -4.65648, 3.61936 -5.03018, 3.08558  C-5.29202, 2.7142 -5.49311, 2.29915 -5.60701, 1.90303  C-5.78763, 1.28509 -5.74719, 0.722979 -5.51006, 0.411283 " /><path d="M-2.22665, 3.89617 C-2.57164, 3.87313 -2.95603, 3.71135 -3.31787, 3.44074  C-3.69426, 3.16091 -4.04434, 2.76479 -4.30797, 2.32781  C-4.62294, 1.80941 -4.81168, 1.23737 -4.8333, 0.761165  C-4.84523, 0.500953 -4.81219, 0.277816 -4.73416, 0.091756 " /><path d="M-2.24508, 3.99958 C-2.63134, 4.02215 -3.08383, 3.85326 -3.50512, 3.53495  C-3.89827, 3.24023 -4.26168, 2.8187 -4.52747, 2.35763  C-4.82642, 1.84288 -4.99985, 1.2831 -5.01173, 0.820242  C-5.02027, 0.529505 -4.96712, 0.276981 -4.85941, 0.0893286 " /><path d="M-2.40063, 2.45452 C-2.87466, 2.00347 -3.26283, 1.37943 -3.45383, 0.782417 " /><path d="M-2.66144, 1.85621 Q-2.86127, 1.58837 -3.01537, 1.2964 " /><path d="M-2.2151, 3.28058 C-2.73356, 3.01868 -3.24697, 2.50854 -3.60109, 1.91919  C-3.93299, 1.37318 -4.12387, 0.767931 -4.12853, 0.277487 " /><path d="M-2.20301, 3.46852 C-2.80448, 3.23348 -3.42646, 2.6395 -3.82277, 1.94522  C-4.16861, 1.34945 -4.34278, 0.694987 -4.29932, 0.198624 " /></g>

</svg>
