<svg xmlns="http://www.w3.org/2000/svg" viewBox="-6.69726 -5.92376 13.39452 11.84752">
<rect width="100%" height="100%" fill="white"/>
<g   fill="none"
   stroke="rgb(0, 0, 0)"
   stroke-linecap="butt"
   stroke-linejoin="miter"
   stroke-width="0.35"
   transform="scale(1, -1)"
  >
<path d="M2.88675, 5 C2.96086, 4.87165 3.03496, 4.74329 3.10907, 4.61494  C3.18067, 4.49093 3.25226, 4.36692 3.32386, 4.2429  C3.39339, 4.12247 3.46292, 4.00204 3.53245, 3.88161  C3.60035, 3.76402 3.66824, 3.64642 3.73613, 3.52883  C3.93713, 3.1807 4.13407, 2.83958 4.33013, 2.5  C4.46082, 2.27363 4.59215, 2.04617 4.7241, 1.81762  C4.85676, 1.58784 4.99133, 1.35476 5.1278, 1.11839  C5.19733, 0.997959 5.26686, 0.877527 5.33639, 0.757096  C5.40799, 0.633085 5.47959, 0.509074 5.55119, 0.385063  C5.62529, 0.256709 5.6994, 0.128354 5.7735, 4.36096e-13 " /><path d="M-2.88675, 5 C-2.73854, 5 -2.59033, 5 -2.44212, 5  C-2.29892, 5 -2.15573, 5 -2.01253, 5  C-1.87347, 5 -1.73441, 5 -1.59535, 5  C-1.45956, 5 -1.32377, 5 -1.18799, 5  C-0.785999, 5 -0.392109, 5 1.11022e-16, 5  C0.261391, 5 0.52404, 5 0.787949, 5  C1.05327, 5 1.32241, 5 1.59535, 5  C1.73441, 5 1.87347, 5 2.01253, 5  C2.15573, 5 2.29892, 5 2.44212, 5  C2.59033, 5 2.73854, 5 2.88675, 5 " /><path d="M5.7735, -4.37428e-13 C5.6994, -0.128354 5.62529, -0.256709 5.55119, -0.385063  C5.47959, -0.509074 5.40799, -0.633085 5.33639, -0.757096  C5.26686, -0.877527 5.19733, -0.997959 5.1278, -1.11839  C5.05991, -1.23598 4.99201, -1.35358 4.92412, -1.47117  C4.72313, -1.8193 4.52618, -2.16042 4.33013, -2.5  C4.19943, -2.72637 4.06811, -2.95383 3.93615, -3.18238  C3.80349, -3.41216 3.66892, -3.64524 3.53245, -3.88161  C3.46292, -4.00204 3.39339, -4.12247 3.32386, -4.2429  C3.25226, -4.36692 3.18067, -4.49093 3.10907, -4.61494  C3.03496, -4.74329 2.96086, -4.87165 2.88675, -5 " /><circle cx ="0" cy ="0" r ="4.46175" /><path d="M-5.7735, 4.00124e-13 C-5.6994, 0.128354 -5.62529, 0.256709 -5.55119, 0.385063  C-5.47959, 0.509074 -5.40799, 0.633085 -5.33639, 0.757096  C-5.26686, 0.877527 -5.19733, 0.997959 -5.1278, 1.11839  C-4.99133, 1.35476 -4.85676, 1.58784 -4.7241, 1.81762  C-4.59215, 2.04617 -4.46082, 2.27363 -4.33013, 2.5  C-4.13407, 2.83958 -3.93713, 3.1807 -3.73613, 3.52883  C-3.66824, 3.64642 -3.60035, 3.76402 -3.53245, 3.88161  C-3.46292, 4.00204 -3.39339, 4.12247 -3.32386, 4.2429  C-3.25226, 4.36692 -3.18067, 4.49093 -3.10907, 4.61494  C-3.03496, 4.74329 -2.96086, 4.87165 -2.88675, 5 " /><path d="M-2.88675, -5 C-2.96086, -4.87165 -3.03496, -4.74329 -3.10907, -4.61494  C-3.18067, -4.49093 -3.25226, -4.36692 -3.32386, -4.2429  C-3.39339, -4.12247 -3.46292, -4.00204 -3.53245, -3.88161  C-3.66892, -3.64524 -3.80349, -3.41216 -3.93615, -3.18238  C-4.06811, -2.95383 -4.19943, -2.72637 -4.33013, -2.5  C-4.52618, -2.16042 -4.72313, -1.8193 -4.92412, -1.47117  C-4.99201, -1.35358 -5.05991, -1.23598 -5.1278, -1.11839  C-5.19733, -0.997959 -5.26686, -0.877527 -5.33639, -0.757096  C-5.40799, -0.633085 -5.47959, -0.509074 -5.55119, -0.385063  C-5.62529, -0.256709 -5.6994, -0.128354 -5.7735, -4.74287e-13 " /><path d="M2.88675, -5 C2.73854, -5 2.59033, -5 2.44212, -5  C2.29892, -5 2.15573, -5 2.01253, -5  C1.87347, -5 1.73441, -5 1.59535, -5  C1.45956, -5 1.32377, -5 1.18799, -5  C0.785999, -5 0.392109, -5 -1.66533e-15, -5  C-0.261391, -5 -0.52404, -5 -0.787949, -5  C-1.05327, -5 -1.32241, -5 -1.59535, -5  C-1.73441, -5 -1.87347, -5 -2.01253, -5  C-2.15573, -5 -2.29892, -5 -2.44212, -5  C-2.59033, -5 -2.73854, -5 -2.88675, -5 " /><circle cx ="0" cy ="0" r ="3.15" /><path d="M2.64828, -9.99201e-16 C2.61754, -0.439512 2.47415, -0.868999 2.23491, -1.2346  C2.00439, -1.58863 1.6847, -1.88198 1.31467, -2.07775 " /><path d="M2.64828, 4.27347e-07 C2.71274, 0.833477 2.35333, 1.6883 1.71301, 2.24155  C1.37536, 2.53776 0.964814, 2.75189 0.526486, 2.86177  C0.0691716, 2.97734 -0.417461, 2.97916 -0.878733, 2.86844 " /><path d="M-2.64964, 1.40694 C-2.63874, 1.43994 -2.62116, 1.48117 -2.5969, 1.53063  C-2.49269, 1.74357 -2.30171, 2.00732 -2.07108, 2.22001 " /><path d="M-2.07108, 2.22001 C-1.73425, 2.539 -1.28555, 2.77395 -0.878733, 2.86844 " /><path d="M-2.07762, -1.31486 C-2.38948, -0.994364 -2.61341, -0.581154 -2.72019, -0.134543  C-2.84144, 0.366268 -2.81524, 0.907087 -2.64964, 1.40694 " /><path d="M-2.07762 -1.31486 A2.45873 2.45873 0 0 1 1.31467 -2.07775" /><path d="M2.01125, 1.4143 Q1.90744, 1.5619 1.78321, 1.69278 " /><path d="M1.77351, 1.70295 Q1.71506, 1.76382 1.65257, 1.82055 " /><path d="M1.18136, 2.15633 L1.17753, 2.15842 " /><path d="M1.03862, 2.2286 L1.0241, 2.23531 " /><path d="M0.922875, 2.27896 C0.462823, 2.46629 -0.0545383, 2.50875 -0.538976, 2.39893  C-1.02782, 2.2901 -1.48065, 2.02699 -1.81727, 1.65617 " /><path d="M-2.03297, 1.38289 L-2.03523, 1.37957 " /><path d="M-2.13715, 1.21571 L-2.13818, 1.2139 " /><path d="M-2.35541, 0.705293 L-2.38913, 0.580903 " /><path d="M-2.45811, 0.0552543 C-2.47532, -0.591978 -2.22225, -1.24067 -1.77128, -1.70527  C-1.4235, -2.06794 -0.961715, -2.31902 -0.468244, -2.41374  C0.282519, -2.5645 1.09616, -2.33558 1.65816, -1.81546 " /><path d="M2.45873, -0.00015989 L2.45873, 1.10064e-07 " /><path d="M2.45873, 6.57647e-07 C2.46034, 0.568263 2.25611, 1.13408 1.89194, 1.57033  C1.52123, 2.01973 0.985503, 2.32857 0.410839, 2.42417  C0.0856548, 2.47947 -0.250638, 2.46826 -0.571418, 2.39141  C-0.95973, 2.29904 -1.32452, 2.11005 -1.62395, 1.84612  C-1.9649, 1.54708 -2.21994, 1.15159 -2.35167, 0.717642  C-2.56146, 0.0428919 -2.45861, -0.719802 -2.07762, -1.31486 " /><path d="M2.45873, 5.48038e-07 Q2.45838, 0.379658 2.34419, 0.741734 " /><path d="M2.18485, 1.12775 Q2.12861, 1.23669 2.06182, 1.33951 " /><path d="M1.89147, 1.5709 Q1.81487, 1.66312 1.72967, 1.74746 " /><path d="M1.32694, 2.06993 L1.26349, 2.10925 " /><path d="M0.913806, 2.28262 Q0.639443, 2.39231 0.346917, 2.43414 " /><path d="M-0.0335351, 2.45851 Q-0.23872, 2.45568 -0.440612, 2.41893 " /><path d="M-0.69906, 2.35726 L-0.740254, 2.34465 " /><path d="M-1.26687, 2.10723 L-1.30443, 2.08419 " /><path d="M-1.76361, 1.7132 Q-1.99438, 1.47534 -2.15432, 1.18501 " /><path d="M-2.25608, 0.977476 C-2.42446, 0.590131 -2.49019, 0.158838 -2.44483, -0.261076 " /><path d="M-2.07762, -1.31486 C-1.72262, -1.8814 -1.12642, -2.28871 -0.469645, -2.41346  C-0.00923632, -2.50383 0.476702, -2.45805 0.912131, -2.28328  C1.35983, -2.10534 1.75227, -1.79197 2.02487, -1.39473  C2.3062, -0.987949 2.45967, -0.494579 2.45873, 0 " /><path d="M2.45873, 4.38429e-07 L2.45873, 0.000445326 " /><path d="M2.45871, 0.0103303 C2.45862, 0.655566 2.19026, 1.29512 1.72989, 1.74724 " /><path d="M1.46726, 1.97295 Q1.34792, 2.06169 1.21877, 2.13541 " /><path d="M1.10977, 2.19404 C0.603548, 2.45188 0.00661271, 2.52507 -0.546923, 2.39713  C-1.06969, 2.27917 -1.55013, 1.98392 -1.89153, 1.57083  C-2.15257, 1.25717 -2.33329, 0.877394 -2.41202, 0.477 " /><path d="M-2.45281, -0.170511 C-2.41405, -0.753911 -2.15763, -1.31932 -1.74432, -1.73284 " /><path d="M-1.56458, -1.8967 Q-1.45943, -1.98343 -1.34534, -2.05802 " /><path d="M-1.06521, -2.21601 C-0.447249, -2.51676 0.297749, -2.53878 0.932391, -2.27509 " /><path d="M2.01609, -1.40739 C2.30294, -0.998176 2.45971, -0.49973 2.45873, 8.88178e-16 " /></g>

</svg>
