<svg xmlns="http://www.w3.org/2000/svg" viewBox="-4.3469588 -5.0639588 40.5137076 28.499107600000002">
<rect width="100%" height="100%" fill="white"/>
<g   fill="none"
   stroke="rgb(0, 0, 0)"
   stroke-linecap="butt"
   stroke-linejoin="miter"
   stroke-width="0.35"
   transform="scale(1, -1)"
  >
<path id= "1" d=" M -0.931594 -2.92625 L 29.7514 -20.6411 " />
<path id= "2" d=" M 2.06841 2.26991 L 32.7514 -15.4449 " />
</g>
<g   fill="none"
   stroke="rgb(0, 0, 0)"
   stroke-linecap="butt"
   stroke-linejoin="miter"
   stroke-width="0.35"
   transform="scale(1, -1)"
  >
<path d="M-1.55291 -1.55291 A3 1.73205 -120 0 0 2.06841 2.26991" />
<path d="M2.06841 2.26991 A3 1.73205 -120 0 0 2.68973 0.896575" />
<path d="M2.68973 0.896575 A3 1.73205 -120 0 0 -0.931594 -2.92625" />
<path d="M-0.931594 -2.92625 A3 1.73205 -120 0 0 -1.55291 -1.55291" />
<path d="M33.3727 -16.8183 A3 1.73205 -120 0 0 29.7514 -20.6411" />
<path d="M32.7514 -15.4449 A3 1.73205 -120 0 0 33.3727 -16.8183" />
<path d="M24.9255, -15.2873 C22.4779, -13.6215 19.9397, -12.0336 17.3478, -10.5312  C14.6351, -8.95992 11.8634, -7.48171 9.01561, -6.10174 " /><path d="M9.01561, -6.10174 C11.4087, -7.72978 13.8771, -9.26684 16.41, -10.7402  C19.1744, -12.3453 22.0169, -13.8766 24.9255, -15.2873 " /><path d="M24.9255 -15.2873 A126.812 26.7986 -38.794 0 1 9.01561 -6.10174" />
</g>

</svg>
