<svg xmlns="http://www.w3.org/2000/svg" viewBox="-3.6 -6.6 52.2 13.2">
<rect width="100%" height="100%" fill="white"/>
<g   fill="none"
   stroke="rgb(0, 0, 0)"
   stroke-linecap="butt"
   stroke-linejoin="miter"
   stroke-width="0.35"
   transform="scale(1, -1)"
  >
<path d="M0 3.28645e-16 A6 6 0 0 1 0.803848 -3" /><path id= "2" d=" M 0.803848 3 L 44.1962 3 " />
<path d="M44.1962 -3 A6 6 0 0 1 45 -4.06143e-16" /></g>
<g   fill="none"
   stroke="rgb(0, 0, 0)"
   stroke-linecap="butt"
   stroke-linejoin="miter"
   stroke-width="0.35"
   transform="scale(1, -1)"
  >
<path d="M0 2.00173e-29 A6 6 0 0 0 0.803848 3" /><path d="M0.803848, 3 L0.803848, 2.92478  L0.803848, 2.70291  L0.803848, 2.34549  L0.803848, 1.87047  L0.803848, 1.30165  L0.803848, 0.667563  L0.803848, 6.66134e-16  L0.803848, -0.667563  L0.803848, -1.30165  L0.803848, -1.87047  L0.803848, -2.34549  L0.803848, -2.70291  L0.803848, -2.92478  L0.803848, -3 " /><path id= "3" d=" M 0.803848 -3 L 11.25 -3 " />
<path id= "4" d=" M 33.75 -3 L 44.1962 -3 " />
<path d="M44.1962, 3 L44.1962, 2.92478  L44.1962, 2.70291  L44.1962, 2.34549  L44.1962, 1.87047  L44.1962, 1.30165  L44.1962, 0.667563  L44.1962, 6.66134e-16  L44.1962, -0.667563  L44.1962, -1.30165  L44.1962, -1.87047  L44.1962, -2.34549  L44.1962, -2.70291  L44.1962, -2.92478  L44.1962, -3 " /><path id= "6" d=" M 11.25 -3 L 33.75 -3 " />
<path d="M33.75, 1.5 L33.7285, 1.49885 " /><path d="M21.2698, 1.20241 L21.0142, 1.20405 " /><path d="M20.0236, 1.21335 Q15.6285, 1.26478 11.25, 1.5 " /><path d="M11.25, 1.5 L11.2715, 1.50116 " /><path d="M11.4405, 1.51014 L12.0462, 1.54091 " /><path d="M12.1615, 1.54653 L12.4603, 1.56072 " /><path d="M16.3466, 1.70186 L16.7596, 1.71247 " /><path d="M29.7999, 1.66816 L29.8569, 1.66632 " /><path d="M32.8234, 1.54725 L32.8383, 1.54654 " /><path d="M33.75, 1.5 C30.0935, 1.69513 26.4222, 1.77688 22.7515, 1.78208  C18.9127, 1.78449 15.0735, 1.70383 11.25, 1.5 " /><path d="M11.25, 1.5 C18.7307, 1.09831 26.2695, 1.09832 33.75, 1.5 " /><path d="M45 2.00173e-29 A6 6 0 0 1 44.1962 3" /><path d="M33.75 1.5 A126.812 63.4063 7.34518e-15 0 0 11.25 1.5" />
</g>

</svg>
