<svg xmlns="http://www.w3.org/2000/svg" viewBox="-8.0913428 -8.3073028 25.7031756 20.4652356">
<rect width="100%" height="100%" fill="white"/>
<g   fill="none"
   stroke="rgb(0, 0, 0)"
   stroke-linecap="butt"
   stroke-linejoin="miter"
   stroke-width="0.35"
   transform="scale(1, -1)"
  >
<path d="M-1.31838, 6.53467 C-1.69424, 6.75249 -2.13743, 6.84648 -2.59668, 6.81557  C-2.746, 6.80571 -2.89673, 6.78345 -3.04886, 6.74879  C-3.43907, 6.65874 -3.82765, 6.4957 -4.2146, 6.25968  C-5.09078, 5.72886 -5.92259, 4.83601 -6.52475, 3.79756  C-7.12944, 2.76115 -7.49571, 1.59442 -7.52705, 0.566552  C-7.54271, 0.0989559 -7.49084, -0.331989 -7.37144, -0.726282  C-7.32531, -0.876961 -7.26897, -1.02011 -7.20241, -1.15573  C-6.99952, -1.57039 -6.69595, -1.90842 -6.31838, -2.12559 " /><path id= "2" d=" M -6.31838 -2.12559 L -2.7192 -4.20357 " />
<path id= "3" d=" M -1.31838 6.53467 L 2.2808 4.45668 " />
<path id= "4" d=" M -2.87452e-12 -3.82937 L -0.219203 -3.95593 " />
<path id= "5" d=" M 0.382641 -3.68502 L 0.471065 -3.73607 " />
<path id= "6" d=" M 3.7362 1.30701 L 3.82462 1.25596 " />
<path id= "7" d=" M 1.08975 -4.09327 L 1.17817 -4.14432 " />
<path id= "8" d=" M 4.4433 0.898758 L 4.53172 0.84771 " />
<path id= "9" d=" M 1.79686 -4.50152 L 1.88528 -4.55257 " />
<path id= "10" d=" M 5.15041 0.490509 L 5.23883 0.439462 " />
<path id= "11" d=" M 2.50397 -4.90977 L 2.59239 -4.96082 " />
<path id= "12" d=" M 5.85752 0.0822599 L 5.94594 0.0312134 " />
<path id= "13" d=" M 3.21107 -5.31802 L 3.29949 -5.36906 " />
<path id= "14" d=" M 6.56463 -0.325989 L 6.65304 -0.377035 " />
<path id= "15" d=" M 3.91818 -5.72627 L 4.0066 -5.77731 " />
<path id= "16" d=" M 7.27174 -0.734239 L 7.36015 -0.785283 " />
<path id= "17" d=" M 4.62529 -6.13451 L 4.7137 -6.18556 " />
<path id= "18" d=" M 7.97885 -1.14249 L 8.06726 -1.19353 " />
<path id= "19" d=" M 5.3324 -6.54276 L 5.42081 -6.59381 " />
<path id= "20" d=" M 8.68596 -1.55074 L 8.77436 -1.60178 " />
<path id= "21" d=" M 6.03951 -6.95101 L 6.12792 -7.00206 " />
<path id= "22" d=" M 9.39306 -1.95899 L 9.48147 -2.01003 " />
<path id= "23" d=" M 6.74662 -7.35926 L 6.83502 -7.4103 " />
<path id= "24" d=" M 10.1002 -2.36724 L 10.1886 -2.41828 " />
<path id= "25" d=" M 7.45372 -7.76751 L 7.54213 -7.81855 " />
<path id= "26" d=" M 10.8073 -2.77548 L 10.8957 -2.82652 " />
<path id= "27" d=" M 8.16083 -8.17576 L 8.24924 -8.2268 " />
<path id= "28" d=" M 11.5144 -3.18373 L 11.6028 -3.23477 " />
<path id= "29" d=" M 8.86794 -8.58401 L 8.95634 -8.63505 " />
<path id= "30" d=" M 12.2215 -3.59198 L 12.3099 -3.64302 " />
<path id= "31" d=" M 9.57505 -8.99226 L 9.66345 -9.0433 " />
<path id= "32" d=" M 12.9286 -4.00023 L 13.017 -4.05127 " />
<path id= "33" d=" M 10.2822 -9.40051 L 10.3706 -9.45155 " />
<path id= "34" d=" M 13.6357 -4.40848 L 13.7241 -4.45952 " />
<path id= "35" d=" M 10.9893 -9.80876 L 11.0777 -9.85979 " />
<path id= "36" d=" M 14.3428 -4.81673 L 14.4312 -4.86776 " />
<path id= "37" d=" M 11.6964 -10.217 L 11.7848 -10.268 " />
<path id= "38" d=" M 15.0499 -5.22498 L 15.1383 -5.27601 " />
<path id= "39" d=" M 14.1421 -10.1246 L 13.7795 -10.3339 " />
</g>
<g   fill="none"
   stroke="rgb(0, 0, 0)"
   stroke-linecap="butt"
   stroke-linejoin="miter"
   stroke-width="0.35"
   transform="scale(1, -1)"
  >
<path d="M-6.31871 1.25087 A2.936 1.6951 -120 0 0 -2.16658 3.64811" />
<path d="M-2.16658 3.64811 A2.936 1.6951 -120 0 0 -4.24264 0.0522563" />
<path d="M-4.24264 0.0522563 A2.936 1.6951 -120 0 0 -6.31871 1.25087" />
<path d="M-3.19944, 5.10559 L-3.28376, 4.97057  L-3.37496, 4.84574  L-3.4736, 4.73034  L-3.5803, 4.62364  L-3.69571, 4.52499  L-3.82054, 4.43379  L-3.95556, 4.34948  L-4.1016, 4.27152  L-4.25956, 4.19945  L-4.43042, 4.13282  L-4.61522, 4.07122  L-4.81511, 4.01427  L-5.03132, 3.96162  L-5.26518, 3.91294 " /><path d="M-5.26518, 3.91294 L-5.26995, 3.66475  L-5.2843, 3.43059  L-5.30831, 3.20901  L-5.34213, 2.99863  L-5.38597, 2.79818  L-5.4401, 2.6064  L-5.50486, 2.42212  L-5.58063, 2.2442  L-5.6679, 2.07156  L-5.76719, 1.90311  L-5.87912, 1.73783  L-6.00438, 1.5747  L-6.14373, 1.41272  L-6.29805, 1.25087 " /><path d="M-6.29805, 1.25087 L-6.14373, 1.09454  L-6.00438, 0.94912  L-5.87912, 0.813715  L-5.76719, 0.68749  L-5.6679, 0.56967  L-5.58063, 0.459527  L-5.50486, 0.356383  L-5.4401, 0.259603  L-5.38597, 0.16859  L-5.34213, 0.082783  L-5.30831, 0.00165442  L-5.2843, -0.0752961  L-5.26995, -0.148543  L-5.26518, -0.218537 " /><path d="M-5.26518, -0.218537 C-4.77708, -0.124233 -4.40173, -0.00825399 -4.09652, 0.142562 " /><path d="M-2.16659, 3.63972 L-2.17182, 3.7096  L-2.18655, 3.78274  L-2.21089, 3.85957  L-2.24496, 3.94057  L-2.289, 4.02624  L-2.34325, 4.11709  L-2.40807, 4.21368  L-2.48383, 4.3166  L-2.57101, 4.42649  L-2.67014, 4.544  L-2.78182, 4.66988  L-2.90675, 4.80487  L-3.04567, 4.94981  L-3.19944, 5.10559 " /><path d="M3.31633 2.1678 A5 2.88675 60 0 1 2.2808 4.45668" />
<path d="M-2.7192 -4.20357 A5 2.88675 60 0 1 -0.219203 -3.95593" />
<path d="M-0.219203 -3.95593 A5 2.88675 60 0 1 3.31633 2.1678" />
<path id= "12" d=" M -5.26518 3.91294 L -3.15419 2.69415 " />
<path d="M-2.22329, 3.05884 C-2.48975, 2.92812 -2.79159, 2.80987 -3.15419, 2.69415 " /><path id= "14" d=" M -6.29805 1.25087 L -4.25359 0.070506 " />
<path d="M-3.15419, 2.69415 Q-3.17162, 2.58362 -3.18905, 2.47308  Q-3.2085, 2.36765 -3.22794, 2.26222  Q-3.24953, 2.16131 -3.27111, 2.06039  Q-3.29494, 1.96341 -3.31878, 1.86644  Q-3.345, 1.77285 -3.37123, 1.67926  Q-3.42724, 1.49648 -3.49168, 1.321  Q-3.52603, 1.23445 -3.56038, 1.14789  Q-3.63338, 0.976982 -3.71665, 0.808763  Q-3.80299, 0.640878 -3.90112, 0.472694  Q-3.95317, 0.388055 -4.00521, 0.303416  Q-4.0616, 0.217722 -4.11799, 0.132029 " /><path id= "16" d=" M 3.31633 2.1678 L 3.31633 1.91468 " />
<path d="M-2.97188e-12 -3.82937 A4.69 2.70777 60 0 1 3.31633 1.91468" />
<path d="M3.1231, 0.515073 C3.12569, -0.152601 2.90223, -0.932853 2.5232, -1.61272  C2.2738, -2.06324 1.9598, -2.46858 1.62381, -2.77833  C1.30389, -3.0742 0.964899, -3.28281 0.648364, -3.38114 " /><path d="M3.30062, 1.53333 C3.61672, 1.26034 3.80347, 0.79811 3.82722, 0.239843 " /><path d="M3.00429, 0.112901 C2.94497, -0.343452 2.79648, -0.827482 2.57924, -1.28144  C2.16466, -2.15835 1.48912, -2.90189 0.845828, -3.21438 " /><path d="M3.298, 1.50197 C3.5625, 1.22375 3.71701, 0.796227 3.7388, 0.290895 " /><path d="M3.82722, 0.239843 C3.86117, -0.455715 3.63529, -1.29538 3.23031, -2.02097  C2.98091, -2.47149 2.6669, -2.87683 2.33092, -3.18658  C2.11052, -3.3896 1.88783, -3.54837 1.66287, -3.6629  C1.21276, -3.89305 0.78296, -3.91819 0.471066, -3.73607 " /><path d="M3.82462, 1.25596 C4.24893, 1.01466 4.50712, 0.49204 4.53433, -0.168405 " /><path d="M3.7388, 0.290895 C3.76766, -0.316759 3.60103, -1.03423 3.28635, -1.68969  C3.06541, -2.15293 2.77351, -2.58375 2.45004, -2.92903  C2.18309, -3.21465 1.89525, -3.44192 1.61304, -3.59178  C1.14909, -3.84012 0.703397, -3.8725 0.382641, -3.68502 " /><path d="M0.382641, -3.68502 Q0.34353, -3.66244 0.306867, -3.63577 " /><path d="M3.39902, 1.43739 Q3.58015, 1.39702 3.7362, 1.30701 " /><path d="M3.7362, 1.30701 C4.16051, 1.06571 4.41869, 0.543088 4.4459, -0.117355 " /><path d="M4.53433, -0.168405 C4.56828, -0.863963 4.34239, -1.70363 3.93741, -2.42922  C3.68801, -2.87974 3.37401, -3.28508 3.03802, -3.59483  C2.81762, -3.79785 2.59493, -3.95662 2.36997, -4.07115  C1.91986, -4.3013 1.49007, -4.32644 1.17817, -4.14432 " /><path d="M4.53172, 0.84771 C4.95604, 0.60641 5.21423, 0.0837932 5.24143, -0.576653 " /><path d="M4.4459, -0.117355 C4.47477, -0.725007 4.30814, -1.44247 3.99346, -2.09793  C3.77253, -2.56117 3.48063, -2.99199 3.15716, -3.33727  C2.89042, -3.62267 2.60281, -3.84981 2.32081, -3.99968  C1.85662, -4.24833 1.41066, -4.28084 1.08975, -4.09327 " /><path d="M1.08975, -4.09327 Q0.93301, -4.00263 0.818217, -3.84918 " /><path d="M4.10613, 1.02915 Q4.28725, 0.988776 4.4433, 0.898758 " /><path d="M4.4433, 0.898758 C4.86762, 0.65746 5.1258, 0.134839 5.15301, -0.525604 " /><path d="M5.24143, -0.576653 C5.27538, -1.27221 5.0495, -2.11188 4.64452, -2.83747  C4.39512, -3.28799 4.08111, -3.69333 3.74513, -4.00308  C3.52472, -4.2061 3.30204, -4.36487 3.07707, -4.4794  C2.62697, -4.70955 2.19717, -4.73469 1.88528, -4.55257 " /><path d="M5.23883, 0.439462 C5.66315, 0.198162 5.92134, -0.324456 5.94854, -0.984901 " /><path d="M5.15301, -0.525604 C5.18188, -1.13325 5.01525, -1.85072 4.70057, -2.50617  C4.47964, -2.96941 4.18775, -3.40023 3.86428, -3.7455  C3.59774, -4.03069 3.31038, -4.2577 3.02859, -4.40757  C2.56416, -4.65654 2.11792, -4.68918 1.79686, -4.50152 " /><path d="M1.79686, -4.50152 Q1.64012, -4.41088 1.52533, -4.25743 " /><path d="M4.81323, 0.620897 Q4.99436, 0.580527 5.15041, 0.490509 " /><path d="M5.15041, 0.490509 C5.57473, 0.249211 5.83291, -0.27341 5.86012, -0.933853 " /><path d="M5.94854, -0.984901 C5.98249, -1.68046 5.75661, -2.52013 5.35162, -3.24572  C5.10223, -3.69623 4.78822, -4.10158 4.45224, -4.41133  C4.23183, -4.61435 4.00914, -4.77313 3.78417, -4.88765  C3.33407, -5.1178 2.90428, -5.14293 2.59239, -4.96082 " /><path d="M5.94594, 0.0312134 C6.37025, -0.210086 6.62844, -0.732703 6.65565, -1.39315 " /><path d="M5.86012, -0.933853 C5.88899, -1.5415 5.72235, -2.25896 5.40768, -2.91442  C5.18676, -3.37765 4.89486, -3.80847 4.5714, -4.15374  C4.30507, -4.43871 4.01794, -4.66559 3.73636, -4.81546  C3.2717, -5.06476 2.82518, -5.09752 2.50397, -4.90977 " /><path d="M2.50397, -4.90977 Q2.34723, -4.81913 2.23243, -4.66568 " /><path d="M5.52034, 0.212648 Q5.70147, 0.172278 5.85752, 0.0822599 " /><path d="M5.85752, 0.0822599 C6.28184, -0.159039 6.54002, -0.681658 6.56723, -1.3421 " /><path d="M6.65565, -1.39315 C6.6896, -2.08871 6.46371, -2.92838 6.05873, -3.65397  C5.80933, -4.10448 5.49532, -4.50983 5.15934, -4.81958  C4.93893, -5.0226 4.71624, -5.18138 4.49126, -5.29591  C4.04117, -5.52604 3.61138, -5.55118 3.29949, -5.36906 " /><path d="M6.65304, -0.377035 C7.07736, -0.618335 7.33555, -1.14095 7.36275, -1.8014 " /><path d="M6.56723, -1.3421 C6.59609, -1.94975 6.42946, -2.66721 6.11479, -3.32266  C5.89387, -3.78589 5.60198, -4.21671 5.27852, -4.56198  C5.01239, -4.84673 4.7255, -5.07349 4.44413, -5.22336  C3.97923, -5.47297 3.53244, -5.50586 3.21107, -5.31802 " /><path d="M3.21107, -5.31802 Q3.05433, -5.22738 2.93954, -5.07393 " /><path d="M6.22745, -0.195601 Q6.40858, -0.235971 6.56463, -0.325989 " /><path d="M6.56463, -0.325989 C6.98894, -0.567288 7.24713, -1.08991 7.27434, -1.75035 " /><path d="M7.36275, -1.8014 C7.3967, -2.49696 7.17082, -3.33663 6.76584, -4.06221  C6.51644, -4.51273 6.20243, -4.91808 5.86645, -5.22783  C5.64603, -5.43085 5.42334, -5.58963 5.19836, -5.70416  C4.74827, -5.93429 4.31848, -5.95943 4.0066, -5.77731 " /><path d="M7.36015, -0.785283 C7.78447, -1.02658 8.04266, -1.5492 8.06986, -2.20965 " /><path d="M7.27434, -1.75035 C7.3032, -2.358 7.13657, -3.07545 6.8219, -3.7309  C6.60098, -4.19413 6.3091, -4.62494 5.98564, -4.97021  C5.71974, -5.25473 5.4331, -5.48135 5.15195, -5.63123  C4.6868, -5.88118 4.23971, -5.91421 3.91818, -5.72627 " /><path d="M3.91818, -5.72627 Q3.76144, -5.63563 3.64665, -5.48217 " /><path d="M6.93456, -0.60385 Q7.11569, -0.64422 7.27174, -0.734239 " /><path d="M7.27174, -0.734239 C7.69605, -0.975537 7.95423, -1.49816 7.98145, -2.1586 " /><path d="M8.06986, -2.20965 C8.10381, -2.90521 7.87792, -3.74488 7.47294, -4.47046  C7.22354, -4.92098 6.90953, -5.32633 6.57355, -5.63608  C6.35313, -5.83911 6.13044, -5.99789 5.90546, -6.11241  C5.45537, -6.34254 5.02559, -6.36767 4.71371, -6.18556 " /><path d="M8.06726, -1.19353 C8.49157, -1.43483 8.74976, -1.95745 8.77697, -2.61789 " /><path d="M7.98145, -2.1586 C8.01031, -2.76624 7.84368, -3.4837 7.52902, -4.13915  C7.3081, -4.60237 7.01621, -5.03318 6.69276, -5.37845  C6.42707, -5.66274 6.14069, -5.88923 5.85976, -6.03911  C5.39436, -6.28939 4.94698, -6.32256 4.62529, -6.13451 " /><path d="M4.62529, -6.13451 Q4.46855, -6.04387 4.35376, -5.89042 " /><path d="M7.64166, -1.0121 Q7.82279, -1.05247 7.97885, -1.14249 " /><path d="M7.97885, -1.14249 C8.40316, -1.38379 8.66134, -1.90641 8.68856, -2.56685 " /><path d="M8.77697, -2.61789 C8.81092, -3.31345 8.58503, -4.15313 8.18005, -4.87871  C7.93065, -5.32923 7.61664, -5.73458 7.28066, -6.04433  C7.06023, -6.24736 6.83753, -6.40614 6.61255, -6.52067  C6.16247, -6.75079 5.73269, -6.77592 5.42081, -6.59381 " /><path d="M8.77436, -1.60178 C9.19868, -1.84308 9.45687, -2.3657 9.48407, -3.02614 " /><path d="M8.68856, -2.56685 C8.71742, -3.17449 8.55079, -3.89194 8.23613, -4.54739  C8.01521, -5.01061 7.72333, -5.44142 7.39988, -5.78669  C7.13441, -6.07074 6.84828, -6.29709 6.56757, -6.44698  C6.10192, -6.6976 5.65425, -6.73091 5.3324, -6.54276 " /><path d="M5.3324, -6.54276 Q5.17566, -6.45212 5.06086, -6.29867 " /><path d="M8.34877, -1.42035 Q8.5299, -1.46072 8.68596, -1.55074 " /><path d="M8.68596, -1.55074 C9.11027, -1.79204 9.36845, -2.31466 9.39566, -2.9751 " /><path d="M9.48407, -3.02614 C9.51802, -3.7217 9.29214, -4.56137 8.88715, -5.28696  C8.63775, -5.73748 8.32375, -6.14283 7.98776, -6.45257  C7.76734, -6.65561 7.54464, -6.81439 7.31966, -6.92891  C6.86957, -7.15904 6.4398, -7.18417 6.12792, -7.00206 " /><path d="M9.48147, -2.01003 C9.90578, -2.25133 10.164, -2.77394 10.1912, -3.43439 " /><path d="M9.39566, -2.9751 C9.42453, -3.58274 9.2579, -4.30019 8.94324, -4.95563  C8.72232, -5.41885 8.43045, -5.84965 8.107, -6.19493  C7.84176, -6.47873 7.55589, -6.70495 7.27541, -6.85483  C6.8095, -7.10581 6.36153, -7.13926 6.03951, -6.95101 " /><path d="M6.03951, -6.95101 Q5.88277, -6.86037 5.76797, -6.70692 " /><path d="M9.05588, -1.8286 Q9.23701, -1.86897 9.39306, -1.95899 " /><path d="M9.39306, -1.95899 C9.81738, -2.20028 10.0756, -2.72291 10.1028, -3.38335 " /><path d="M10.1912, -3.43439 C10.2251, -4.12995 9.99924, -4.96962 9.59426, -5.69521  C9.34486, -6.14573 9.03085, -6.55107 8.69487, -6.86082  C8.47445, -7.06385 8.25175, -7.22263 8.02677, -7.33716  C7.57668, -7.56729 7.14691, -7.59242 6.83503, -7.41031 " /><path d="M10.1886, -2.41828 C10.6129, -2.65958 10.8711, -3.18219 10.8983, -3.84264 " /><path d="M10.1028, -3.38335 C10.1316, -3.99099 9.96501, -4.70843 9.65035, -5.36388  C9.42944, -5.82709 9.13756, -6.25789 8.81411, -6.60316  C8.54908, -6.88675 8.26345, -7.11284 7.98318, -7.26273  C7.51703, -7.51402 7.06879, -7.5476 6.74662, -7.35926 " /><path d="M6.74662, -7.35926 Q6.58987, -7.26862 6.47508, -7.11517 " /><path d="M9.76298, -2.23685 Q9.94412, -2.27722 10.1002, -2.36724 " /><path d="M10.1002, -2.36724 C10.5245, -2.60853 10.7827, -3.13116 10.8099, -3.7916 " /><path d="M10.8983, -3.84264 C10.9322, -4.5382 10.7064, -5.37787 10.3014, -6.10346  C10.052, -6.55398 9.73796, -6.95932 9.40198, -7.26907  C9.18155, -7.47211 8.95885, -7.63089 8.73387, -7.74541  C8.28378, -7.97554 7.85401, -8.00066 7.54213, -7.81855 " /><path d="M10.8957, -2.82652 C11.32, -3.06782 11.5782, -3.59044 11.6054, -4.25089 " /><path d="M10.8099, -3.7916 C10.8387, -4.39923 10.6721, -5.11668 10.3575, -5.77212  C10.1365, -6.23533 9.84468, -6.66613 9.52123, -7.0114  C9.25641, -7.29477 8.97102, -7.52073 8.69096, -7.67062  C8.22458, -7.92223 7.77605, -7.95594 7.45372, -7.76751 " /><path d="M7.45372, -7.76751 Q7.29698, -7.67687 7.18219, -7.52342 " /><path d="M10.4701, -2.64509 Q10.6512, -2.68546 10.8073, -2.77548 " /><path d="M10.8073, -2.77548 C11.2316, -3.01678 11.4898, -3.5394 11.517, -4.19985 " /><path d="M11.6054, -4.25089 C11.6393, -4.94645 11.4135, -5.78612 11.0085, -6.51171  C10.7591, -6.96223 10.4451, -7.36757 10.1091, -7.67732  C9.88865, -7.88036 9.66594, -8.03915 9.44094, -8.15368  C8.99087, -8.38378 8.56111, -8.40891 8.24924, -8.2268 " /><path d="M11.6028, -3.23477 C12.0271, -3.47607 12.2853, -3.99869 12.3125, -4.65913 " /><path d="M11.517, -4.19985 C11.5459, -4.80748 11.3792, -5.52492 11.0646, -6.18036  C10.8437, -6.64357 10.5518, -7.07437 10.2284, -7.41964  C9.96375, -7.70277 9.67862, -7.92859 9.39879, -8.07848  C8.93215, -8.33044 8.48332, -8.36429 8.16083, -8.17576 " /><path d="M8.16083, -8.17576 Q8.00409, -8.08512 7.88929, -7.93166 " /><path d="M11.1772, -3.05334 Q11.3583, -3.09371 11.5144, -3.18373 " /><path d="M11.5144, -3.18373 C11.9387, -3.42503 12.1969, -3.94765 12.2241, -4.6081 " /><path d="M12.3125, -4.65913 C12.3465, -5.3547 12.1206, -6.19437 11.7156, -6.91996  C11.4662, -7.37048 11.1522, -7.77582 10.8162, -8.08557  C10.5958, -8.28862 10.373, -8.4474 10.148, -8.56193  C9.69797, -8.79203 9.26821, -8.81716 8.95634, -8.63505 " /><path d="M12.3099, -3.64302 C12.7342, -3.88432 12.9924, -4.40694 13.0196, -5.06738 " /><path d="M12.2241, -4.6081 C12.253, -5.21573 12.0863, -5.93317 11.7717, -6.5886  C11.5508, -7.05181 11.2589, -7.48261 10.9355, -7.82787  C10.6711, -8.11074 10.3863, -8.3364 10.1067, -8.4863  C9.63977, -8.73865 9.19062, -8.77265 8.86794, -8.58401 " /><path d="M8.86794, -8.58401 Q8.7112, -8.49337 8.5964, -8.33991 " /><path d="M11.8843, -3.46159 Q12.0654, -3.50196 12.2215, -3.59198 " /><path d="M12.2215, -3.59198 C12.6458, -3.83328 12.904, -4.3559 12.9312, -5.01635 " /><path d="M13.0196, -5.06738 C13.0536, -5.76294 12.8277, -6.60262 12.4227, -7.32821  C12.1733, -7.77873 11.8593, -8.18407 11.5233, -8.49382  C11.3029, -8.69686 11.0802, -8.85564 10.8552, -8.97016  C10.4051, -9.20028 9.97533, -9.22541 9.66345, -9.0433 " /><path d="M13.017, -4.05127 C13.4413, -4.29257 13.6995, -4.81518 13.7267, -5.47563 " /><path d="M12.9312, -5.01635 C12.9601, -5.62397 12.7934, -6.34141 12.4788, -6.99685  C12.2579, -7.46005 11.966, -7.89084 11.6426, -8.23611  C11.3785, -8.51869 11.094, -8.74418 10.8147, -8.89408  C10.3474, -9.14685 9.89793, -9.18102 9.57505, -8.99226 " /><path d="M12.9286, -4.00023 C13.3529, -4.24153 13.6111, -4.76415 13.6383, -5.42459 " /><path d="M13.7267, -5.47563 C13.7607, -6.17119 13.5348, -7.01087 13.1298, -7.73646  C12.8804, -8.18698 12.5664, -8.59232 12.2304, -8.90207  C12.01, -9.10512 11.7872, -9.26391 11.5622, -9.37843  C11.1122, -9.60853 10.6824, -9.63365 10.3706, -9.45155 " /><path d="M13.7241, -4.45952 C14.1484, -4.70082 14.4066, -5.22343 14.4338, -5.88388 " /><path d="M13.6383, -5.42459 C13.6672, -6.03222 13.5006, -6.74966 13.1859, -7.40509  C12.965, -7.86829 12.6731, -8.29908 12.3497, -8.64435  C12.0819, -8.93091 11.7931, -9.15873 11.51, -9.3086  C11.047, -9.55574 10.6023, -9.58764 10.2822, -9.40051 " /><path d="M10.2822, -9.40051 Q10.1254, -9.30986 10.0106, -9.15641 " /><path d="M13.2985, -4.27809 Q13.4797, -4.31846 13.6357, -4.40848 " /><path d="M13.6357, -4.40848 C14.06, -4.64978 14.3182, -5.1724 14.3454, -5.83284 " /><path d="M14.4338, -5.88388 C14.4678, -6.57944 14.2419, -7.41911 13.8369, -8.14471  C13.5875, -8.59522 13.2735, -9.00057 12.9375, -9.31032  C12.7171, -9.51336 12.4944, -9.67214 12.2694, -9.78667  C11.8193, -10.0168 11.3895, -10.0419 11.0777, -9.85979 " /><path d="M14.4312, -4.86776 C14.8555, -5.10906 15.1137, -5.63168 15.1409, -6.29213 " /><path d="M14.3454, -5.83284 C14.3743, -6.44047 14.2077, -7.1579 13.893, -7.81333  C13.6721, -8.27653 13.3803, -8.70732 13.0568, -9.05258  C12.7894, -9.33875 12.501, -9.56635 12.2183, -9.71623  C11.7548, -9.96393 11.3097, -9.99605 10.9893, -9.80876 " /><path d="M10.9893, -9.80876 Q10.8325, -9.71811 10.7177, -9.56466 " /><path d="M14.0056, -4.68634 Q14.1868, -4.72671 14.3428, -4.81673 " /><path d="M14.3428, -4.81673 C14.7671, -5.05803 15.0253, -5.58065 15.0525, -6.24109 " /><path d="M15.8392 -6.69527 A3 1.73205 60 0 1 15.8327 -6.50684" />
<path d="M15.1409, -6.29213 C15.1749, -6.98769 14.949, -7.82737 14.544, -8.55296  C14.2946, -9.00348 13.9806, -9.40882 13.6446, -9.71857  C13.4242, -9.92162 13.2014, -10.0804 12.9764, -10.1949  C12.5264, -10.425 12.0966, -10.4501 11.7848, -10.268 " /><path d="M15.1383, -5.27601 C15.5197, -5.49373 15.7684, -5.93734 15.8327, -6.50684 " /><path d="M15.0525, -6.24109 C15.0814, -6.84872 14.9148, -7.56615 14.6001, -8.22158  C14.3792, -8.68477 14.0874, -9.11556 13.764, -9.46082  C13.4968, -9.74672 13.2087, -9.97416 12.9262, -10.124  C12.4625, -10.3721 12.017, -10.4044 11.6964, -10.217 " /><path d="M11.6964, -10.217 Q11.5396, -10.1264 11.4248, -9.97291 " /><path d="M14.7127, -5.09459 Q14.8939, -5.13496 15.0499, -5.22498 " /><path d="M15.0499, -5.22498 C15.4742, -5.46628 15.7324, -5.9889 15.7596, -6.64934 " /><path d="M15.3309 -8.57957 A3 1.73205 60 0 1 15.8392 -6.69527" />
<path d="M15.7596, -6.64934 C15.7877, -7.24148 15.6305, -7.93786 15.3309, -8.57957 " /><path id= "125" d=" M 15.8392 -6.69527 L 15.8392 -6.71942 " />
<path d="M15.8392, -7.15346 Q15.8392, -7.05455 15.8313, -6.96006 " /><path d="M12.3433, -10.3853 C12.6846, -10.6767 13.2245, -10.6577 13.7795, -10.3339 " /><path d="M13.7795, -10.3339 C14.3604, -10.0022 14.9454, -9.34381 15.3309, -8.57957 " /><path id= "129" d=" M 15.8392 -7.15346 L 15.8392 -7.18517 " />
<path d="M14.1421 -10.1246 A2.4 1.38564 60 0 1 14.5559 -9.82652" />
<path d="M14.5559, -9.82652 C14.4733, -9.8974 14.3848, -9.96217 14.414, -9.93728 " /><path d="M14.414, -9.93728 Q14.4298, -9.92382 14.4664, -9.8924 " /><path d="M15.8392, -6.71942 C15.8406, -7.3232 15.6801, -7.99304 15.4056, -8.58308  C15.1561, -9.12423 14.8131, -9.59375 14.4664, -9.8924 " /><path d="M15.8392, -7.15346 C15.8397, -7.53629 15.748, -7.96521 15.5797, -8.37648 " /><path d="M14.5559, -9.82652 C14.9679, -9.45703 15.344, -8.92429 15.5797, -8.37648 " /><path d="M15.5797 -8.37648 A2.4 1.38564 60 0 1 15.8392 -7.18517" />
</g>

</svg>
