<svg xmlns="http://www.w3.org/2000/svg" viewBox="-8.08 -7.08 30.16 14.16">
<rect width="100%" height="100%" fill="white"/>
<g   fill="none"
   stroke="rgb(165, 165, 165)"
   stroke-dasharray="1.2,0.8"
   stroke-linecap="butt"
   stroke-linejoin="miter"
   stroke-width="0.25"
   transform="scale(1, -1)"
  >
<path d="M-6, 2.936 L-6, 2.36014  L-6, 1.72065  L-6, 1.03476  L-6, 0.320985  L-6, -0.401448  L-6, -1.11306  L-6, -1.79466  L-6, -2.42788  L-6, -2.99564  L-6, -3.48263  L-6, -3.87574  L-6, -4.16435  L-6, -4.34069  L-6, -4.4 " /><path d="M-6, -2.936 L-6, -2.86239  L-6, -2.64524  L-6, -2.29546  L-6, -1.83057  L-6, -1.27388  L-6, -0.653321  L-6, -2.22045e-16  L-6, 0.653321  L-6, 1.27388  L-6, 1.83057  L-6, 2.29546  L-6, 2.64524  L-6, 2.86239  L-6, 2.936 " /><path d="M-5.98539, 1.4607 L-5.87965, 1.23571  L-5.79126, 1.01834  L-5.71966, 0.807245  L-5.66443, 0.601122  L-5.62522, 0.398702  L-5.60179, 0.198739  L-5.594, -3.88578e-16  L-5.60179, -0.198739  L-5.62522, -0.398702  L-5.66443, -0.601122  L-5.71966, -0.807245  L-5.79126, -1.01834  L-5.87965, -1.23571  L-5.98539, -1.4607 " /><path d="M-5.98539, -1.4607 L-5.87965, -1.57319  L-5.79126, -1.68187  L-5.71966, -1.78742  L-5.66443, -1.89048  L-5.62522, -1.99169  L-5.60179, -2.09167  L-5.594, -2.19104  L-5.60179, -2.29041  L-5.62522, -2.3904  L-5.66443, -2.49161  L-5.71966, -2.59467  L-5.79126, -2.70021  L-5.87965, -2.8089  L-5.98539, -2.92139 " /><path id= "5" d=" M -6 -2.936 L -5.98539 -2.92139 " />
<path d="M-5.98539, -2.92139 L-5.87965, -2.8089  L-5.79126, -2.70021  L-5.71966, -2.59467  L-5.66443, -2.49161  L-5.62522, -2.3904  L-5.60179, -2.29041  L-5.594, -2.19104  L-5.60179, -2.09167  L-5.62522, -1.99169  L-5.66443, -1.89048  L-5.71966, -1.78742  L-5.79126, -1.68187  L-5.87965, -1.57319  L-5.98539, -1.4607 " /><path d="M-5.98539, -1.4607 L-5.87965, -1.23571  L-5.79126, -1.01834  L-5.71966, -0.807245  L-5.66443, -0.601122  L-5.62522, -0.398702  L-5.60179, -0.198739  L-5.594, -3.88578e-16  L-5.60179, 0.198739  L-5.62522, 0.398702  L-5.66443, 0.601122  L-5.71966, 0.807245  L-5.79126, 1.01834  L-5.87965, 1.23571  L-5.98539, 1.4607 " /><path d="M-5.98539, 1.4607 L-5.87965, 1.57319  L-5.79126, 1.68187  L-5.71966, 1.78742  L-5.66443, 1.89048  L-5.62522, 1.99169  L-5.60179, 2.09167  L-5.594, 2.19104  L-5.60179, 2.29041  L-5.62522, 2.3904  L-5.66443, 2.49161  L-5.71966, 2.59467  L-5.79126, 2.70021  L-5.87965, 2.8089  L-5.98539, 2.92139 " /><path d="M-5.98539, 2.92139 L-5.87965, 2.8089  L-5.79126, 2.70021  L-5.71966, 2.59467  L-5.66443, 2.49161  L-5.62522, 2.3904  L-5.60179, 2.29041  L-5.594, 2.19104  L-5.60179, 2.09167  L-5.62522, 1.99169  L-5.66443, 1.89048  L-5.71966, 1.78742  L-5.79126, 1.68187  L-5.87965, 1.57319  L-5.98539, 1.4607 " /><path d="M-0.31, 5 L-0.31, 4.87464  L-0.31, 4.50484  L-0.31, 3.90916  L-0.31, 3.11745  L-0.31, 2.16942  L-0.31, 1.1126  L-0.31, 2.22045e-16  L-0.31, -1.1126  L-0.31, -2.16942  L-0.31, -3.11745  L-0.31, -3.90916  L-0.31, -4.50484  L-0.31, -4.87464  L-0.31, -5 " /><path id= "11" d=" M -5.98539 -1.4607 L -3 -1.4607 " />
<path d="M-3, 1.4607 L-2.93895, 1.23571  L-2.88791, 1.01834  L-2.84658, 0.807245  L-2.81469, 0.601122  L-2.79206, 0.398702  L-2.77853, 0.198739  L-2.77403, -6.66134e-16  L-2.77853, -0.198739  L-2.79206, -0.398702  L-2.81469, -0.601122  L-2.84658, -0.807245  L-2.88791, -1.01834  L-2.93895, -1.23571  L-3, -1.4607 " /><path id= "13" d=" M -5.98539 1.4607 L -3 1.4607 " />
<path d="M-3, 2.92139 L-2.93895, 2.8089  L-2.88791, 2.70021  L-2.84658, 2.59467  L-2.81469, 2.49161  L-2.79206, 2.3904  L-2.77853, 2.29041  L-2.77403, 2.19104  L-2.77853, 2.09167  L-2.79206, 1.99169  L-2.81469, 1.89048  L-2.84658, 1.78742  L-2.88791, 1.68187  L-2.93895, 1.57319  L-3, 1.4607 " /><path id= "15" d=" M -5.98539 2.92139 L -3 2.92139 " />
<path d="M-3, 1.4607 L-2.93895, 1.57319  L-2.88791, 1.68187  L-2.84658, 1.78742  L-2.81469, 1.89048  L-2.79206, 1.99169  L-2.77853, 2.09167  L-2.77403, 2.19104  L-2.77853, 2.29041  L-2.79206, 2.3904  L-2.81469, 2.49161  L-2.84658, 2.59467  L-2.88791, 2.70021  L-2.93895, 2.8089  L-3, 2.92139 " /><path id= "17" d=" M -5.98539 1.4607 L -3 1.4607 " />
<path d="M-3, -1.4607 L-2.93895, -1.23571  L-2.88791, -1.01834  L-2.84658, -0.807245  L-2.81469, -0.601122  L-2.79206, -0.398702  L-2.77853, -0.198739  L-2.77403, -3.88578e-16  L-2.77853, 0.198739  L-2.79206, 0.398702  L-2.81469, 0.601122  L-2.84658, 0.807245  L-2.88791, 1.01834  L-2.93895, 1.23571  L-3, 1.4607 " /><path id= "19" d=" M -5.98539 -1.4607 L -3 -1.4607 " />
<path d="M-3, -2.92139 L-2.93895, -2.8089  L-2.88791, -2.70021  L-2.84658, -2.59467  L-2.81469, -2.49161  L-2.79206, -2.3904  L-2.77853, -2.29041  L-2.77403, -2.19104  L-2.77853, -2.09167  L-2.79206, -1.99169  L-2.81469, -1.89048  L-2.84658, -1.78742  L-2.88791, -1.68187  L-2.93895, -1.57319  L-3, -1.4607 " /><path id= "21" d=" M -5.98539 -2.92139 L -3 -2.92139 " />
<path d="M-3, -1.4607 L-2.93895, -1.57319  L-2.88791, -1.68187  L-2.84658, -1.78742  L-2.81469, -1.89048  L-2.79206, -1.99169  L-2.77853, -2.09167  L-2.77403, -2.19104  L-2.77853, -2.29041  L-2.79206, -2.3904  L-2.81469, -2.49161  L-2.84658, -2.59467  L-2.88791, -2.70021  L-2.93895, -2.8089  L-3, -2.92139 " /><path d="M0, 4.69 L0, 4.57241  L0, 4.22554  L0, 3.66679  L0, 2.92417  L0, 2.03491  L0, 1.04362  L0, 2.22045e-16  L0, -1.04362  L0, -2.03491  L0, -2.92417  L0, -3.66679  L0, -4.22554  L0, -4.57241  L0, -4.69 " /><path id= "24" d=" M -3 -2.92139 L -1.54704 -0.4048 " />
<path d="M-1.54704, -0.4048 Q-1.54704, -0.399725 -1.54704, -0.394651  Q-1.54704, -0.379682 -1.54704, -0.364712  Q-1.54704, -0.340599 -1.54704, -0.316485  Q-1.54704, -0.284437 -1.54704, -0.252389  Q-1.54704, -0.214012 -1.54704, -0.175636  Q-1.54704, -0.0913431 -1.54704, -2.77556e-17  Q-1.54704, 0.0450382 -1.54704, 0.0900765  Q-1.54704, 0.132856 -1.54704, 0.175636  Q-1.54704, 0.214012 -1.54704, 0.252389  Q-1.54704, 0.284437 -1.54704, 0.316485  Q-1.54704, 0.340599 -1.54704, 0.364712  Q-1.54704, 0.379682 -1.54704, 0.394651  Q-1.54704, 0.399725 -1.54704, 0.4048 " /><path d="M-1.54704, 0.4048 Q-1.54704, 0.399725 -1.54704, 0.394651  Q-1.54704, 0.379682 -1.54704, 0.364712  Q-1.54704, 0.340599 -1.54704, 0.316485  Q-1.54704, 0.284437 -1.54704, 0.252389  Q-1.54704, 0.214012 -1.54704, 0.175636  Q-1.54704, 0.0913431 -1.54704, 6.93889e-17  Q-1.54704, -0.0450382 -1.54704, -0.0900765  Q-1.54704, -0.132856 -1.54704, -0.175636  Q-1.54704, -0.214012 -1.54704, -0.252389  Q-1.54704, -0.284437 -1.54704, -0.316485  Q-1.54704, -0.340599 -1.54704, -0.364712  Q-1.54704, -0.379682 -1.54704, -0.394651  Q-1.54704, -0.399725 -1.54704, -0.4048 " /><path d="M-4.16334e-17, 3.25 L-4.16334e-17, 3.16852  L-4.16334e-17, 2.92815  L-4.16334e-17, 2.54095  L-4.16334e-17, 2.02634  L-4.16334e-17, 1.41012  L-4.16334e-17, 0.723193  L-4.16334e-17, 2.22045e-16  L-4.16334e-17, -0.723193  L-4.16334e-17, -1.41012  L-4.16334e-17, -2.02634  L-4.16334e-17, -2.54095  L-4.16334e-17, -2.92815  L-4.16334e-17, -3.16852  L-4.16334e-17, -3.25 " /><path d="M-4.16334e-17, -3.25 L-4.16334e-17, -3.16852  L-4.16334e-17, -2.92815  L-4.16334e-17, -2.54095  L-4.16334e-17, -2.02634  L-4.16334e-17, -1.41012  L-4.16334e-17, -0.723193  L-4.16334e-17, -5.55112e-16  L-4.16334e-17, 0.723193  L-4.16334e-17, 1.41012  L-4.16334e-17, 2.02634  L-4.16334e-17, 2.54095  L-4.16334e-17, 2.92815  L-4.16334e-17, 3.16852  L-4.16334e-17, 3.25 " /><path d="M0.412507, 3 C0.370679, 3.00507 0.352346, 2.60073 0.35, 1.93165 " /><path d="M0.35, 1.53602 Q0.35, 1.7452 0.35, 1.93165 " /><path d="M0.35, 1.53602 C0.353084, 0.46906 0.382999, -0.982363 0.37931, -1.91965 " /><path d="M0.37931, -1.91965 C0.378879, -2.10228 0.383417, -2.26601 0.40105, -2.38703  C0.410911, -2.45256 0.426621, -2.50834 0.452226, -2.50988  C0.486806, -2.5094 0.52177, -2.42115 0.548675, -2.32668  C0.580423, -2.21169 0.607305, -2.07596 0.629321, -1.9195 " /><path d="M0.629321, -1.9195 C0.734842, -1.18661 0.855008, -0.14733 0.96242, 0.785177  C1.04077, 1.46369 1.11242, 2.07715 1.17055, 2.47718  C1.21197, 2.76308 1.24663, 2.94138 1.2736, 2.98739 " /><path d="M0.927087, -2.98742 C0.96387, -2.92588 1.00066, -2.61411 1.03744, -2.12226  C1.08924, -1.43505 1.14104, -0.392112 1.19284, 0.56827  C1.22118, 1.09317 1.24953, 1.58946 1.27787, 1.98908  C1.32275, 2.62636 1.36764, 3.00425 1.41251, 3 " /><path d="M0.35, 1.93165 Q0.35, 1.74443 0.35, 1.53602 " /><path d="M1.92709, -2.98742 C1.9638, -2.92599 2.00051, -2.61534 2.03722, -2.12511  C2.08929, -1.43531 2.14136, -0.385483 2.19343, 0.579176  C2.22172, 1.10267 2.25, 1.59714 2.27829, 1.99503  C2.32303, 2.62879 2.36778, 3.0042 2.41251, 3 " /><path d="M1.78746, -3 C1.82655, -3.00249 1.86563, -2.7193 1.90472, -2.22185  C1.94034, -1.77169 1.97595, -1.14903 2.01157, -0.485763  C2.05633, 0.347701 2.1011, 1.23499 2.14587, 1.88907  C2.1882, 2.51204 2.23052, 2.91764 2.27287, 2.98741 " /><path d="M2.92709, -2.98742 C2.96371, -2.92613 3.00033, -2.61689 3.03695, -2.1287  C3.08923, -1.43736 3.14151, -0.382328 3.19379, 0.585807  C3.22179, 1.10371 3.24978, 1.59292 3.27778, 1.98787  C3.32269, 2.62586 3.36761, 3.00426 3.41251, 3 " /><path d="M2.78746, -3 C2.82667, -3.00252 2.86588, -2.71746 2.90509, -2.21715  C2.94056, -1.76768 2.97604, -1.14752 3.0115, -0.487033  C3.05615, 0.344244 3.10081, 1.22928 3.14546, 1.88307  C3.18793, 2.50937 3.23039, 2.91745 3.27287, 2.98741 " /><path d="M3.92709, -2.98742 C3.96362, -2.92627 4.00015, -2.61842 4.03668, -2.13226  C4.08893, -1.44251 4.14118, -0.388849 4.19343, 0.579166  C4.22171, 1.10265 4.25, 1.59713 4.27829, 1.99502  C4.32303, 2.62878 4.36778, 3.0042 4.41251, 3 " /><path d="M3.78746, -3 C3.82646, -3.00246 3.86546, -2.72062 3.90446, -2.22523  C3.94038, -1.77211 3.9763, -1.14318 4.01222, -0.47381  C4.05651, 0.351493 4.10082, 1.22818 4.14512, 1.87798  C4.1877, 2.5071 4.23028, 2.91728 4.27287, 2.98741 " /><path d="M4.92709, -2.98742 C4.96383, -2.92595 5.00057, -2.61486 5.03731, -2.124  C5.08932, -1.4346 5.14133, -0.38621 5.19333, 0.57748  C5.22161, 1.10074 5.24988, 1.5951 5.27815, 1.99307  C5.32294, 2.62799 5.36773, 3.00421 5.41251, 3 " /><path d="M4.78746, -3 C4.82637, -3.00244 4.86527, -2.72199 4.90418, -2.22877  C4.93996, -1.77833 4.97573, -1.15326 5.01151, -0.487067  C5.05615, 0.344148 5.1008, 1.22912 5.14545, 1.8829  C5.18793, 2.5093 5.23039, 2.91744 5.27287, 2.98741 " /><path d="M5.92709, -2.98742 C5.96373, -2.9261 6.00037, -2.61651 6.03702, -2.12784  C6.08916, -1.43792 6.14132, -0.386328 6.19346, 0.579774  C6.22175, 1.10334 6.25004, 1.59786 6.27834, 1.99571  C6.32306, 2.62907 6.36779, 3.00419 6.41251, 3 " /><path d="M5.78747, -3 C5.82653, -3.00248 5.86559, -2.7197 5.90465, -2.22289  C5.94012, -1.77476 5.9756, -1.15544 6.01108, -0.495145  C6.05593, 0.339561 6.10079, 1.22948 6.14564, 1.88566  C6.18806, 2.51052 6.23046, 2.91753 6.27288, 2.98741 " /><path d="M6.92709, -2.98742 C6.96359, -2.92631 7.0001, -2.61887 7.0366, -2.13333  C7.08863, -1.44676 7.14067, -0.399211 7.19269, 0.565652  C7.22122, 1.09404 7.24975, 1.59356 7.27828, 1.99483  C7.32302, 2.62871 7.36777, 3.0042 7.4125, 3 " /><path d="M6.78747, -3 C6.82668, -3.00252 6.86588, -2.71753 6.90509, -2.21732  C6.94055, -1.76803 6.97601, -1.14815 7.01147, -0.4879  C7.05626, 0.346124 7.10107, 1.23433 7.14587, 1.88894  C7.18821, 2.51199 7.23053, 2.91764 7.27288, 2.98741 " /><path d="M7.92708, -2.98742 C7.96383, -2.92593 8.00059, -2.61468 8.03734, -2.12359  C8.08946, -1.4326 8.14158, -0.38111 8.1937, 0.584204  C8.22169, 1.10213 8.24969, 1.59143 8.27769, 1.98656  C8.32263, 2.62533 8.36758, 3.00427 8.4125, 3 " /><path d="M7.78747, -3 C7.82658, -3.00249 7.86569, -2.719 7.9048, -2.22107  C7.94056, -1.76889 7.97632, -1.14283 8.01208, -0.476506  C8.05662, 0.353297 8.10117, 1.23532 8.14572, 1.88674  C8.18811, 2.51101 8.23049, 2.91757 8.27288, 2.98741 " /><path d="M8.92708, -2.98742 C8.96378, -2.92601 9.00048, -2.61559 9.03718, -2.1257  C9.08912, -1.43774 9.14107, -0.391388 9.19301, 0.571467  C9.22148, 1.0987 9.24996, 1.59689 9.27843, 1.99708  C9.32312, 2.62963 9.36782, 3.00418 9.4125, 3 " /><path d="M8.78747, -3 C8.82665, -3.00251 8.86583, -2.71795 8.90501, -2.2184  C8.94037, -1.77063 8.97573, -1.15317 9.01109, -0.49504  C9.05597, 0.340302 9.10087, 1.23092 9.14576, 1.88722  C9.18813, 2.51122 9.2305, 2.91759 9.27288, 2.98741 " /><path d="M9.92708, -2.98742 C9.96375, -2.92606 10.0004, -2.61614 10.0371, -2.12698  C10.0892, -1.43769 10.1412, -0.387911 10.1933, 0.577059  C10.2216, 1.10026 10.2498, 1.59459 10.2781, 1.99258  C10.3229, 2.62779 10.3677, 3.00422 10.4125, 3 " /><path d="M9.78748, -3 C9.82655, -3.00248 9.86563, -2.71944 9.90471, -2.22222  C9.94022, -1.77346 9.97574, -1.15321 10.0112, -0.492112  C10.056, 0.340618 10.1007, 1.22794 10.1455, 1.88305  C10.1879, 2.50937 10.2304, 2.91745 10.2729, 2.98741 " /><path d="M10.9271, -2.98742 C10.9638, -2.92604 11.0004, -2.61591 11.0371, -2.12644  C11.0893, -1.43567 11.1415, -0.383093 11.1936, 0.583305  C11.222, 1.10731 11.2503, 1.60202 11.2786, 1.99966  C11.3232, 2.63068 11.3679, 3.00416 11.4125, 3 " /><path d="M10.7875, -3 C10.8267, -3.00252 10.8659, -2.71746 10.9051, -2.21714  C10.9406, -1.76765 10.9761, -1.14747 11.0115, -0.48696  C11.0562, 0.344464 11.1008, 1.22965 11.1455, 1.88346  C11.188, 2.50955 11.2304, 2.91746 11.2729, 2.98741 " /><path d="M11.9271, -2.98742 C11.9638, -2.92599 12.0005, -2.61537 12.0372, -2.1252  C12.0893, -1.43565 12.1413, -0.386254 12.1934, 0.578181  C12.2216, 1.10154 12.2499, 1.59595 12.2782, 1.99389  C12.323, 2.62832 12.3677, 3.00421 12.4125, 3 " /><path d="M11.7875, -3 C11.8267, -3.00251 11.8659, -2.71781 11.905, -2.21804  C11.9404, -1.76963 11.9759, -1.15111 12.0113, -0.492052  C12.056, 0.340946 12.1008, 1.22855 12.1455, 1.88372  C12.188, 2.50967 12.2304, 2.91747 12.2729, 2.98741 " /><path d="M12.9271, -2.98742 C12.9637, -2.92607 13.0004, -2.61625 13.0371, -2.12724  C13.0888, -1.44225 13.1406, -0.401258 13.1923, 0.558913  C13.221, 1.09072 13.2497, 1.59362 13.2784, 1.99696  C13.3231, 2.62958 13.3678, 3.00418 13.4125, 3 " /><path d="M12.7875, -3 C12.8266, -3.00248 12.8656, -2.71952 12.9047, -2.22242  C12.9401, -1.77463 12.9756, -1.15603 13.011, -0.496452  C13.0557, 0.334865 13.1004, 1.22119 13.1451, 1.87679  C13.1877, 2.50658 13.2303, 2.91725 13.2729, 2.98741 " /><path d="M13.9271, -2.98742 C13.9636, -2.92622 14.0002, -2.61794 14.0368, -2.13117  C14.0889, -1.44217 14.1411, -0.390709 14.1932, 0.575918  C14.2215, 1.09872 14.2497, 1.59275 14.278, 1.99072  C14.3228, 2.62703 14.3677, 3.00423 14.4125, 3 " /><path d="M13.7875, -3 C13.8264, -3.00245 13.8654, -2.72135 13.9043, -2.2271  C13.9399, -1.77881 13.9755, -1.15803 14.011, -0.495959  C14.056, 0.341114 14.101, 1.23378 14.146, 1.89068  C14.1883, 2.51276 14.2306, 2.9177 14.2729, 2.98741 " /><path d="M14.9271, -2.98742 C14.9638, -2.92596 15.0005, -2.61505 15.0373, -2.12446  C15.0891, -1.43809 15.1409, -0.395747 15.1926, 0.564692  C15.2211, 1.09181 15.2496, 1.59026 15.278, 1.99114  C15.3228, 2.6272 15.3677, 3.00423 15.4125, 3 " /><path d="M14.7875, -3 C14.8265, -3.00246 14.8654, -2.72106 14.9044, -2.22637  C14.9401, -1.77661 14.9757, -1.15342 15.0114, -0.489202  C15.0562, 0.345035 15.101, 1.23365 15.1459, 1.88857  C15.1882, 2.51183 15.2305, 2.91763 15.2729, 2.98741 " /><path d="M15.9271, -2.98741 C15.9636, -2.92631 16.0001, -2.61896 16.0366, -2.13354  C16.0889, -1.44361 16.1412, -0.388892 16.1935, 0.579926  C16.2218, 1.10351 16.2501, 1.59804 16.2783, 1.99588  C16.3231, 2.62914 16.3678, 3.00419 16.4125, 3 " /><path d="M15.7875, -3 C15.8265, -3.00247 15.8655, -2.72026 15.9046, -2.22432  C15.94, -1.77647 15.9755, -1.15726 16.011, -0.496932  C16.0557, 0.335177 16.1004, 1.22245 16.1452, 1.87834  C16.1877, 2.50727 16.2303, 2.9173 16.2729, 2.98741 " /><path d="M16.9271, -2.98741 C16.9637, -2.92611 17.0003, -2.61673 17.037, -2.12837  C17.0889, -1.44121 17.1409, -0.395091 17.1928, 0.568104  C17.2214, 1.09709 17.25, 1.597 17.2785, 1.99824  C17.3232, 2.6301 17.3678, 3.00417 17.4125, 3 " /><path d="M16.7875, -3 C16.8264, -3.00244 16.8653, -2.7219 16.9042, -2.22852  C16.9398, -1.78078 16.9753, -1.16062 17.0109, -0.498969  C17.0559, 0.338768 17.1009, 1.23257 17.146, 1.89021  C17.1883, 2.51256 17.2306, 2.91769 17.2729, 2.98741 " /><path d="M17.9271, -2.98741 C17.9638, -2.92591 18.0006, -2.61455 18.0374, -2.12331  C18.0895, -1.43205 18.1416, -0.380165 18.1938, 0.585313  C18.2218, 1.10324 18.2498, 1.59248 18.2778, 1.9875  C18.3227, 2.62571 18.3676, 3.00426 18.4125, 3 " /><path d="M17.7875, -3 C17.8265, -3.00246 17.8655, -2.72082 17.9045, -2.22574  C17.9402, -1.77495 17.9759, -1.15008 18.0117, -0.484385  C18.0562, 0.344311 18.1007, 1.22613 18.1452, 1.87878  C18.1878, 2.50747 18.2303, 2.91732 18.2729, 2.98741 " /><path d="M19.4, 3 Q19.4, 2.99998 19.4, 2.99075 " /><path d="M18.9271, -2.98741 C18.9637, -2.9262 19.0002, -2.61782 19.0368, -2.13089  C19.0724, -1.65882 19.1081, -1.02117 19.1437, -0.35323  C19.1885, 0.485678 19.2332, 1.36154 19.278, 1.99107  C19.3187, 2.56708 19.3593, 2.93343 19.4, 2.99075 " /><path d="M18.7875, -3 C18.8267, -3.00251 18.8658, -2.71814 18.905, -2.21886  C18.9403, -1.77204 18.9756, -1.15614 19.0109, -0.49941  C19.0559, 0.337432 19.1008, 1.23031 19.1458, 1.88781  C19.1882, 2.51149 19.2305, 2.91761 19.2729, 2.98741 " /><path d="M19.4, 2.99075 Q19.4147, 2.98527 19.4296, 2.97042 " /><path d="M19.953, 2.43692 Q19.9474, 2.42903 19.9413, 2.40368 " /><path d="M19.9413, 2.40368 C19.919, 2.31255 19.897, 2.03709 19.8752, 1.63411  C19.8529, 1.22475 19.8309, 0.685754 19.8091, 0.126979  C19.7867, -0.448 19.7644, -1.03978 19.7424, -1.52651  C19.72, -2.0245 19.6978, -2.40985 19.6757, -2.60415  C19.6657, -2.69401 19.6556, -2.74407 19.6457, -2.75433 " /><path d="M20, 2.4 L20, 2.33983  L20, 2.16233  L20, 1.8764  L20, 1.49638  L20, 1.04132  L20, 0.53405  L20, 1.11022e-16  L20, -0.53405  L20, -1.04132  L20, -1.49638  L20, -1.8764  L20, -2.16233  L20, -2.33983  L20, -2.4 " /></g>
<g   fill="none"
   stroke="rgb(165, 165, 165)"
   stroke-dasharray="1.2,0.8"
   stroke-linecap="butt"
   stroke-linejoin="miter"
   stroke-width="0.25"
   transform="scale(1, -1)"
  >
<path id= "1" d=" M -5.98539 2.92139 L -6 2.936 " />
<path id= "2" d=" M -1.54704 0.4048 L -3 2.92139 " />
</g>
<g   fill="none"
   stroke="rgb(0, 0, 0)"
   stroke-linecap="butt"
   stroke-linejoin="miter"
   stroke-width="0.35"
   transform="scale(1, -1)"
  >
<path d="M-5.4, -5 C-5.44575, -4.99998 -5.49091, -4.99482 -5.53548, -4.9845  C-5.58937, -4.97198 -5.64056, -4.9524 -5.68905, -4.92578  C-5.87812, -4.82419 -6.00206, -4.61463 -6, -4.4 " /><path id= "2" d=" M -5.4 -5 L -0.31 -5 " />
<path id= "3" d=" M 1.39641e-13 -4.69 L -0.31 -5 " />
<path d="M0.25, -3 C0.182127, -3.00097 0.123666, -3.02492 0.0746171, -3.07184  C0.0272469, -3.11809 -0.000275702, -3.1838 3.46945e-18, -3.25 " /><path id= "5" d=" M 0.25 -3 L 0.912505 -3 " />
<path d="M0.959399, 2.44529 Q0.952883, 2.4329 0.934444, 2.41659  Q0.899367, 2.3877 0.850039, 2.38661 " /><path d="M1.2736, 2.98739 L0.959399, 2.44529 " /><path id= "8" d=" M 1.78746 -3 L 1.9125 -3 " />
<path d="M0.742806, 2.44347 L0.42709, 2.98742 " /><path d="M1.24281, -2.44346 L0.927087, -2.98742 " /><path d="M1.45727, -2.44347 Q1.45148, -2.43225 1.43338, -2.41615  Q1.40967, -2.3964 1.37642, -2.38924  Q1.36322, -2.38792 1.35003, -2.38661  Q1.30357, -2.38754 1.26969, -2.41375  Q1.24919, -2.431 1.24281, -2.44346 " /><path d="M1.95727, 2.44347 Q1.95148, 2.43225 1.93338, 2.41615  Q1.89895, 2.38775 1.85003, 2.38661 " /><path d="M0.850034, 2.38661 Q0.803583, 2.38754 0.769692, 2.41375  Q0.749188, 2.431 0.742806, 2.44347 " /><path d="M1.77287, -2.98741 L1.45727, -2.44347 " /><path d="M2.27287, 2.98741 L1.95727, 2.44347 " /><path id= "16" d=" M 2.78746 -3 L 2.9125 -3 " />
<path d="M1.7428, 2.44347 L1.42709, 2.98742 " /><path d="M2.2428, -2.44346 L1.92709, -2.98742 " /><path d="M2.45727, -2.44347 Q2.45148, -2.43225 2.43338, -2.41615  Q2.40966, -2.39639 2.37642, -2.38923  Q2.36322, -2.38792 2.35002, -2.3866  Q2.30357, -2.38754 2.26968, -2.41375  Q2.24918, -2.431 2.2428, -2.44346 " /><path d="M2.95727, 2.44347 Q2.95148, 2.43225 2.93338, 2.41615  Q2.89895, 2.38775 2.85003, 2.38661 " /><path d="M1.85003, 2.38661 Q1.80358, 2.38754 1.76969, 2.41375  Q1.74919, 2.431 1.7428, 2.44347 " /><path d="M2.77287, -2.98741 L2.45727, -2.44347 " /><path d="M3.27287, 2.98741 L2.95727, 2.44347 " /><path id= "24" d=" M 3.78746 -3 L 3.9125 -3 " />
<path d="M2.7428, 2.44346 L2.42709, 2.98742 " /><path d="M3.2428, -2.44346 L2.92709, -2.98742 " /><path d="M3.45726, -2.44346 Q3.45148, -2.43225 3.43338, -2.41615  Q3.40966, -2.39639 3.37641, -2.38923  Q3.36322, -2.38792 3.35002, -2.3866  Q3.30357, -2.38754 3.26968, -2.41375  Q3.24918, -2.431 3.2428, -2.44346 " /><path d="M3.95726, 2.44347 Q3.95148, 2.43225 3.93338, 2.41615  Q3.89895, 2.38775 3.85003, 2.3866 " /><path d="M2.85003, 2.38661 Q2.80358, 2.38754 2.76969, 2.41375  Q2.74918, 2.431 2.7428, 2.44346 " /><path d="M3.77288, -2.98741 L3.45726, -2.44346 " /><path d="M4.27287, 2.98741 L3.95726, 2.44347 " /><path id= "32" d=" M 4.78746 -3 L 4.9125 -3 " />
<path d="M3.7428, 2.44346 L3.42709, 2.98742 " /><path d="M4.2428, -2.44346 L3.92709, -2.98742 " /><path d="M4.45726, -2.44346 Q4.45148, -2.43224 4.43338, -2.41614  Q4.40966, -2.39639 4.37641, -2.38923  Q4.36321, -2.38791 4.35002, -2.3866  Q4.30357, -2.38753 4.26968, -2.41375  Q4.24918, -2.431 4.2428, -2.44346 " /><path d="M4.95726, 2.44347 Q4.95147, 2.43225 4.93337, 2.41615  Q4.89895, 2.38775 4.85003, 2.3866 " /><path d="M3.85003, 2.3866 Q3.80358, 2.38754 3.76969, 2.41375  Q3.74918, 2.431 3.7428, 2.44346 " /><path d="M4.77288, -2.98741 L4.45726, -2.44346 " /><path d="M5.27287, 2.98741 L4.95726, 2.44347 " /><path id= "40" d=" M 5.78747 -3 L 5.9125 -3 " />
<path d="M4.7428, 2.44346 L4.42709, 2.98742 " /><path d="M5.2428, -2.44345 L4.92709, -2.98742 " /><path d="M5.45726, -2.44346 Q5.45147, -2.43224 5.43337, -2.41614  Q5.40966, -2.39639 5.37641, -2.38923  Q5.36321, -2.38791 5.35002, -2.3866  Q5.30357, -2.38753 5.26968, -2.41374  Q5.24918, -2.43099 5.2428, -2.44345 " /><path d="M5.95726, 2.44346 Q5.95147, 2.43224 5.93337, 2.41614  Q5.89894, 2.38774 5.85002, 2.3866 " /><path d="M4.85003, 2.3866 Q4.80358, 2.38753 4.76968, 2.41374  Q4.74918, 2.431 4.7428, 2.44346 " /><path d="M5.77288, -2.98741 L5.45726, -2.44346 " /><path d="M6.27288, 2.98741 L5.95726, 2.44346 " /><path id= "48" d=" M 6.78747 -3 L 6.9125 -3 " />
<path d="M5.7428, 2.44346 L5.42709, 2.98742 " /><path d="M6.2428, -2.44345 L5.92709, -2.98742 " /><path d="M6.45726, -2.44346 Q6.45147, -2.43224 6.43337, -2.41614  Q6.40966, -2.39638 6.37641, -2.38922  Q6.36321, -2.38791 6.35001, -2.38659  Q6.30356, -2.38753 6.26968, -2.41374  Q6.24918, -2.43099 6.2428, -2.44345 " /><path d="M6.95726, 2.44346 Q6.95147, 2.43224 6.93337, 2.41614  Q6.89894, 2.38774 6.85002, 2.3866 " /><path d="M5.85002, 2.3866 Q5.80357, 2.38753 5.76968, 2.41374  Q5.74918, 2.43099 5.7428, 2.44346 " /><path d="M6.77288, -2.98741 L6.45726, -2.44346 " /><path d="M7.27288, 2.98741 L6.95726, 2.44346 " /><path id= "56" d=" M 7.78747 -3 L 7.9125 -3 " />
<path d="M6.74279, 2.44346 L6.42709, 2.98742 " /><path d="M7.2428, -2.44345 L6.92709, -2.98742 " /><path d="M7.45726, -2.44345 Q7.45147, -2.43224 7.43337, -2.41614  Q7.40965, -2.39638 7.3764, -2.38922  Q7.36321, -2.38791 7.35001, -2.38659  Q7.30356, -2.38753 7.26967, -2.41374  Q7.24917, -2.43099 7.2428, -2.44345 " /><path d="M7.95726, 2.44346 Q7.95147, 2.43224 7.93337, 2.41614  Q7.89894, 2.38774 7.85002, 2.3866 " /><path d="M6.85002, 2.3866 Q6.80357, 2.38753 6.76968, 2.41374  Q6.74918, 2.43099 6.74279, 2.44346 " /><path d="M7.77289, -2.98741 L7.45726, -2.44345 " /><path d="M8.27288, 2.98741 L7.95726, 2.44346 " /><path id= "64" d=" M 8.78747 -3 L 8.9125 -3 " />
<path d="M7.74279, 2.44345 L7.42709, 2.98741 " /><path d="M8.24279, -2.44345 L7.92708, -2.98742 " /><path d="M8.45725, -2.44345 Q8.45147, -2.43223 8.43337, -2.41613  Q8.40965, -2.39638 8.3764, -2.38922  Q8.36321, -2.3879 8.35001, -2.38659  Q8.30356, -2.38753 8.26967, -2.41374  Q8.24917, -2.43099 8.24279, -2.44345 " /><path d="M8.95725, 2.44346 Q8.95146, 2.43224 8.93337, 2.41614  Q8.89894, 2.38774 8.85002, 2.38659 " /><path d="M7.85002, 2.3866 Q7.80357, 2.38753 7.76968, 2.41374  Q7.74917, 2.43099 7.74279, 2.44345 " /><path d="M8.77289, -2.98741 L8.45725, -2.44345 " /><path d="M9.27288, 2.98741 L8.95725, 2.44346 " /><path id= "72" d=" M 9.78748 -3 L 9.9125 -3 " />
<path d="M8.74279, 2.44345 L8.42709, 2.98741 " /><path d="M9.24279, -2.44344 L8.92708, -2.98742 " /><path d="M9.45725, -2.44345 Q9.45146, -2.43223 9.43337, -2.41613  Q9.40965, -2.39638 9.3764, -2.38922  Q9.3632, -2.3879 9.35001, -2.38659  Q9.30356, -2.38752 9.26967, -2.41374  Q9.24917, -2.43099 9.24279, -2.44344 " /><path d="M9.95725, 2.44345 Q9.95146, 2.43223 9.93336, 2.41613  Q9.89894, 2.38773 9.85002, 2.38659 " /><path d="M8.85002, 2.38659 Q8.80357, 2.38752 8.76968, 2.41374  Q8.74917, 2.43099 8.74279, 2.44345 " /><path d="M9.77289, -2.98741 L9.45725, -2.44345 " /><path d="M10.2729, 2.98741 L9.95725, 2.44345 " /><path id= "80" d=" M 10.7875 -3 L 10.9125 -3 " />
<path d="M9.74279, 2.44345 L9.42709, 2.98741 " /><path d="M10.2428, -2.44344 L9.92708, -2.98742 " /><path d="M10.4573, -2.44345 Q10.4515, -2.43223 10.4334, -2.41613  Q10.4096, -2.39637 10.3764, -2.38921  Q10.3632, -2.3879 10.35, -2.38658  Q10.3036, -2.38752 10.2697, -2.41373  Q10.2492, -2.43098 10.2428, -2.44344 " /><path d="M10.9572, 2.44345 Q10.9515, 2.43223 10.9334, 2.41613  Q10.8989, 2.38773 10.85, 2.38659 " /><path d="M9.85002, 2.38659 Q9.80357, 2.38752 9.76968, 2.41373  Q9.74917, 2.43099 9.74279, 2.44345 " /><path d="M10.7729, -2.98741 L10.4573, -2.44345 " /><path d="M11.2729, 2.98741 L10.9572, 2.44345 " /><path id= "88" d=" M 11.7875 -3 L 11.9125 -3 " />
<path d="M10.7428, 2.44345 L10.4271, 2.98741 " /><path d="M11.2428, -2.44344 L10.9271, -2.98742 " /><path d="M11.4572, -2.44344 Q11.4515, -2.43222 11.4334, -2.41612  Q11.4096, -2.39637 11.3764, -2.38921  Q11.3632, -2.3879 11.35, -2.38658  Q11.3036, -2.38752 11.2697, -2.41373  Q11.2492, -2.43098 11.2428, -2.44344 " /><path d="M11.9572, 2.44345 Q11.9515, 2.43223 11.9334, 2.41613  Q11.8989, 2.38773 11.85, 2.38659 " /><path d="M10.85, 2.38659 Q10.8036, 2.38752 10.7697, 2.41373  Q10.7492, 2.43098 10.7428, 2.44345 " /><path d="M11.7729, -2.98741 L11.4572, -2.44344 " /><path d="M12.2729, 2.98741 L11.9572, 2.44345 " /><path id= "96" d=" M 12.7875 -3 L 12.9125 -3 " />
<path d="M11.7428, 2.44345 L11.4271, 2.98741 " /><path d="M12.2428, -2.44344 L11.9271, -2.98742 " /><path d="M12.4572, -2.44344 Q12.4515, -2.43222 12.4334, -2.41612  Q12.4096, -2.39637 12.3764, -2.38921  Q12.3632, -2.38789 12.35, -2.38658  Q12.3035, -2.38752 12.2697, -2.41373  Q12.2492, -2.43098 12.2428, -2.44344 " /><path d="M12.9572, 2.44345 Q12.9515, 2.43222 12.9334, 2.41613  Q12.8989, 2.38773 12.85, 2.38658 " /><path d="M11.85, 2.38659 Q11.8036, 2.38752 11.7697, 2.41373  Q11.7492, 2.43098 11.7428, 2.44345 " /><path d="M12.7729, -2.98741 L12.4572, -2.44344 " /><path d="M13.2729, 2.98741 L12.9572, 2.44345 " /><path id= "104" d=" M 13.7875 -3 L 13.9125 -3 " />
<path d="M12.7428, 2.44344 L12.4271, 2.98741 " /><path d="M13.2428, -2.44344 L12.9271, -2.98742 " /><path d="M13.4572, -2.44344 Q13.4515, -2.43222 13.4334, -2.41612  Q13.4096, -2.39637 13.3764, -2.38921  Q13.3632, -2.38789 13.35, -2.38658  Q13.3035, -2.38752 13.2697, -2.41373  Q13.2492, -2.43098 13.2428, -2.44344 " /><path d="M13.9572, 2.44344 Q13.9515, 2.43222 13.9334, 2.41612  Q13.8989, 2.38773 13.85, 2.38658 " /><path d="M12.85, 2.38658 Q12.8036, 2.38752 12.7697, 2.41373  Q12.7492, 2.43098 12.7428, 2.44344 " /><path d="M13.7729, -2.98741 L13.4572, -2.44344 " /><path d="M14.2729, 2.98741 L13.9572, 2.44344 " /><path id= "112" d=" M 14.7875 -3 L 14.9125 -3 " />
<path d="M13.7428, 2.44344 L13.4271, 2.98741 " /><path d="M14.2428, -2.44343 L13.9271, -2.98742 " /><path d="M14.4572, -2.44344 Q14.4515, -2.43222 14.4334, -2.41612  Q14.4096, -2.39636 14.3764, -2.3892  Q14.3632, -2.38789 14.35, -2.38658  Q14.3035, -2.38751 14.2697, -2.41373  Q14.2492, -2.43098 14.2428, -2.44343 " /><path d="M14.9572, 2.44344 Q14.9515, 2.43222 14.9334, 2.41612  Q14.8989, 2.38772 14.85, 2.38658 " /><path d="M13.85, 2.38658 Q13.8036, 2.38751 13.7697, 2.41372  Q13.7492, 2.43098 13.7428, 2.44344 " /><path d="M14.7729, -2.98741 L14.4572, -2.44344 " /><path d="M15.2729, 2.98741 L14.9572, 2.44344 " /><path id= "120" d=" M 15.7875 -3 L 15.9125 -3 " />
<path d="M14.7428, 2.44344 L14.4271, 2.98741 " /><path d="M15.2428, -2.44343 L14.9271, -2.98742 " /><path d="M15.4572, -2.44343 Q15.4515, -2.43221 15.4334, -2.41611  Q15.4096, -2.39636 15.3764, -2.3892  Q15.3632, -2.38789 15.35, -2.38657  Q15.3035, -2.38751 15.2697, -2.41372  Q15.2492, -2.43097 15.2428, -2.44343 " /><path d="M15.9572, 2.44344 Q15.9515, 2.43222 15.9334, 2.41612  Q15.8989, 2.38772 15.85, 2.38658 " /><path d="M14.85, 2.38658 Q14.8036, 2.38751 14.7697, 2.41372  Q14.7492, 2.43098 14.7428, 2.44344 " /><path d="M15.7729, -2.98741 L15.4572, -2.44343 " /><path d="M16.2729, 2.98741 L15.9572, 2.44344 " /><path id= "128" d=" M 16.7875 -3 L 16.9125 -3 " />
<path d="M15.7428, 2.44344 L15.4271, 2.98741 " /><path d="M16.2428, -2.44343 L15.9271, -2.98742 " /><path d="M16.4572, -2.44343 Q16.4515, -2.43221 16.4334, -2.41611  Q16.4096, -2.39636 16.3764, -2.3892  Q16.3632, -2.38789 16.35, -2.38657  Q16.3035, -2.38751 16.2697, -2.41372  Q16.2492, -2.43097 16.2428, -2.44343 " /><path d="M16.9572, 2.44344 Q16.9514, 2.43221 16.9333, 2.41611  Q16.8989, 2.38772 16.85, 2.38657 " /><path d="M15.85, 2.38658 Q15.8036, 2.38751 15.7697, 2.41372  Q15.7492, 2.43097 15.7428, 2.44344 " /><path d="M16.7729, -2.98741 L16.4572, -2.44343 " /><path d="M17.2729, 2.98741 L16.9572, 2.44344 " /><path id= "136" d=" M 17.7875 -3 L 17.9125 -3 " />
<path d="M16.7428, 2.44343 L16.4271, 2.98741 " /><path d="M17.2428, -2.44343 L16.9271, -2.98741 " /><path d="M17.4572, -2.44343 Q17.4514, -2.43221 17.4333, -2.41611  Q17.4096, -2.39636 17.3764, -2.3892  Q17.3632, -2.38788 17.35, -2.38657  Q17.3035, -2.38751 17.2697, -2.41372  Q17.2492, -2.43097 17.2428, -2.44343 " /><path d="M17.9572, 2.44343 Q17.9514, 2.43221 17.9333, 2.41611  Q17.8989, 2.38772 17.85, 2.38657 " /><path d="M16.85, 2.38657 Q16.8036, 2.38751 16.7697, 2.41372  Q16.7492, 2.43097 16.7428, 2.44343 " /><path d="M17.7729, -2.98741 L17.4572, -2.44343 " /><path d="M18.2729, 2.98741 L17.9572, 2.44343 " /><path id= "144" d=" M 18.7875 -3 L 18.9125 -3 " />
<path d="M17.7428, 2.44343 L17.4271, 2.98741 " /><path d="M18.2428, -2.44343 L17.9271, -2.98741 " /><path d="M18.4572, -2.44343 Q18.4514, -2.43221 18.4333, -2.41611  Q18.4096, -2.39635 18.3764, -2.3892  Q18.3632, -2.38788 18.35, -2.38657  Q18.3035, -2.3875 18.2696, -2.41372  Q18.2492, -2.43097 18.2428, -2.44343 " /><path d="M18.9572, 2.44343 Q18.9514, 2.43221 18.9333, 2.41611  Q18.8989, 2.38771 18.85, 2.38657 " /><path d="M17.85, 2.38657 Q17.8036, 2.3875 17.7697, 2.41372  Q17.7492, 2.43097 17.7428, 2.44343 " /><path d="M18.7729, -2.98741 L18.4572, -2.44343 " /><path d="M19.2729, 2.98741 L18.9572, 2.44343 " /><path d="M18.7428, 2.44343 L18.4271, 2.98741 " /><path d="M19.2428, -2.44342 L18.9271, -2.98741 " /><path d="M19.4572, -2.44342 Q19.4514, -2.4322 19.4333, -2.4161  Q19.4096, -2.39635 19.3764, -2.38919  Q19.3632, -2.38788 19.35, -2.38656  Q19.3035, -2.3875 19.2696, -2.41372  Q19.2491, -2.43097 19.2428, -2.44342 " /><path d="M18.85, 2.38657 Q18.8035, 2.3875 18.7697, 2.41371  Q18.7492, 2.43097 18.7428, 2.44343 " /><path d="M19.85, 2.38657 Q19.8964, 2.3875 19.9303, 2.41371  Q19.9452, 2.42562 19.953, 2.43692 " /><path d="M19.4572, -2.44342 L19.6356, -2.75072 " /><path id= "158" d=" M 20 -2.4 L 19.6457 -2.75433 " />
<path d="M19.7428, 2.44343 L19.4648, 2.92229 " /><path d="M19.85, 2.38657 Q19.8039, 2.38747 19.7701, 2.41335  Q19.7492, 2.43077 19.7428, 2.44343 " /></g>
<g   fill="none"
   stroke="rgb(0, 0, 0)"
   stroke-linecap="butt"
   stroke-linejoin="miter"
   stroke-width="0.35"
   transform="scale(1, -1)"
  >
<path d="M-6, 4.4 L-6, 4.39208  L-6, 4.36834  L-6, 4.32887  L-6, 4.27381  L-6, 4.20336  L-6, 4.11778  L-6, 4.01736  L-6, 3.90248  L-6, 3.77355  L-6, 3.63102  L-6, 3.47542  L-6, 3.30731  L-6, 3.12729  L-6, 2.936 " /><path d="M-6, -4.4 L-6, -4.28968  L-6, -3.96426  L-6, -3.44006  L-6, -2.74336  L-6, -1.90909  L-6, -0.979092  L-6, -7.77156e-16  L-6, 0.979092  L-6, 1.90909  L-6, 2.74336  L-6, 3.44006  L-6, 3.96426  L-6, 4.28968  L-6, 4.4 " /><path d="M-6, 2.936 L-6, 2.86239  L-6, 2.64524  L-6, 2.29546  L-6, 1.83057  L-6, 1.27388  L-6, 0.653321  L-6, 5.55112e-16  L-6, -0.653321  L-6, -1.27388  L-6, -1.83057  L-6, -2.29546  L-6, -2.64524  L-6, -2.86239  L-6, -2.936 " /><path d="M-6 4.4 A0.6 0.6 0 0 0 -5.4 5" /><path id= "5" d=" M -5.4 5 L -0.31 5 " />
<path d="M-0.31, -5 L-0.31, -4.87464  L-0.31, -4.50484  L-0.31, -3.90916  L-0.31, -3.11745  L-0.31, -2.16942  L-0.31, -1.1126  L-0.31, -8.88178e-16  L-0.31, 1.1126  L-0.31, 2.16942  L-0.31, 3.11745  L-0.31, 3.90916  L-0.31, 4.50484  L-0.31, 4.87464  L-0.31, 5 " /><path id= "7" d=" M -0.31 5 L -1.32818e-16 4.69 " />
<path d="M0, -4.69 L0, -4.57241  L0, -4.22554  L0, -3.66679  L0, -2.92417  L0, -2.03491  L0, -1.04362  L0, -8.88178e-16  L0, 1.04362  L0, 2.03491  L0, 2.92417  L0, 3.66679  L0, 4.22554  L0, 4.57241  L0, 4.69 " /><path d="M0 3.25 A0.25 0.25 0 0 1 0.25 3" /><path d="M1.2736, 2.98739 Q1.28089, 3 1.28745, 3 " /><path id= "11" d=" M 1.28745 3 L 1.41251 3 " />
<path d="M0.412507, 3 Q0.419798, 3 0.42709, 2.98742 " /><path d="M0.42709, 2.98742 C0.466289, 2.92226 0.505477, 2.57138 0.544673, 2.02367  C0.589769, 1.39788 0.634866, 0.517733 0.679958, -0.328283  C0.715632, -0.997391 0.751308, -1.63811 0.786983, -2.1143  C0.828825, -2.67691 0.870663, -3.00323 0.912505, -3 " /><path d="M0.912505, -3 Q0.919796, -3 0.927087, -2.98742 " /><path id= "15" d=" M 0.25 3 L 0.412507 3 " />
<path id= "16" d=" M 2.28746 3 L 2.41251 3 " />
<path d="M1.41251, 3 Q1.4198, 3 1.42709, 2.98742 " /><path d="M1.42709, 2.98742 C1.46629, 2.92225 1.50548, 2.57137 1.54467, 2.02367  C1.58977, 1.39788 1.63487, 0.517725 1.67996, -0.328295  C1.71562, -0.997164 1.75128, -1.63767 1.78695, -2.11381  C1.8288, -2.67672 1.87065, -3.00324 1.9125, -3 " /><path d="M1.9125, -3 Q1.9198, -3 1.92709, -2.98742 " /><path d="M1.28745, 3 C1.32594, 3.00234 1.36442, 2.72819 1.40291, 2.24468  C1.45257, 1.62659 1.50223, 0.662571 1.55189, -0.271657  C1.58645, -0.921063 1.62101, -1.54826 1.65558, -2.0277  C1.69467, -2.57311 1.73378, -2.92238 1.77287, -2.98741 " /><path d="M1.77287, -2.98741 Q1.78016, -3 1.78746, -3 " /><path d="M2.27287, 2.98741 Q2.28016, 3 2.28746, 3 " /><path id= "23" d=" M 3.28746 3 L 3.41251 3 " />
<path d="M2.41251, 3 Q2.4198, 3 2.42709, 2.98742 " /><path d="M2.42709, 2.98742 C2.46629, 2.92225 2.50548, 2.57137 2.54467, 2.02367  C2.58977, 1.39787 2.63487, 0.517715 2.67996, -0.328308  C2.71561, -0.996928 2.75126, -1.63721 2.78691, -2.11329  C2.82877, -2.67651 2.87064, -3.00324 2.9125, -3 " /><path d="M2.9125, -3 Q2.9198, -3 2.92709, -2.98742 " /><path d="M2.28746, 3 C2.32594, 3.00234 2.36443, 2.72819 2.40291, 2.24469  C2.45255, 1.62682 2.50219, 0.663268 2.55184, -0.270656  C2.58635, -0.91915 2.62086, -1.54559 2.65538, -2.0249  C2.69454, -2.57189 2.73371, -2.92228 2.77287, -2.98741 " /><path d="M2.77287, -2.98741 Q2.78017, -3 2.78746, -3 " /><path d="M3.27287, 2.98741 Q3.28016, 3 3.28746, 3 " /><path id= "30" d=" M 4.28746 3 L 4.41251 3 " />
<path d="M3.41251, 3 Q3.4198, 3 3.42709, 2.98742 " /><path d="M3.42709, 2.98742 C3.46629, 2.92225 3.50548, 2.57137 3.54467, 2.02367  C3.58977, 1.39787 3.63487, 0.517707 3.67996, -0.328319  C3.7156, -0.996718 3.75123, -1.6368 3.78687, -2.11282  C3.82875, -2.67632 3.87063, -3.00325 3.9125, -3 " /><path d="M3.9125, -3 Q3.91979, -3 3.92709, -2.98742 " /><path d="M3.28746, 3 C3.32594, 3.00234 3.36443, 2.7282 3.40291, 2.24469  C3.45254, 1.62704 3.50216, 0.663956 3.55179, -0.269666  C3.58624, -0.917052 3.62069, -1.54254 3.65515, -2.02167  C3.69439, -2.57048 3.73364, -2.92216 3.77288, -2.98741 " /><path d="M3.77288, -2.98741 Q3.78017, -3 3.78746, -3 " /><path d="M4.27287, 2.98741 Q4.28017, 3 4.28746, 3 " /><path id= "37" d=" M 5.28746 3 L 5.41251 3 " />
<path d="M4.41251, 3 Q4.4198, 3 4.42709, 2.98742 " /><path d="M4.42709, 2.98742 C4.46629, 2.92225 4.50548, 2.57137 4.54467, 2.02367  C4.58977, 1.39787 4.63487, 0.5177 4.67996, -0.328328  C4.71558, -0.996527 4.75121, -1.63642 4.78684, -2.1124  C4.82873, -2.67616 4.87061, -3.00325 4.9125, -3 " /><path d="M4.9125, -3 Q4.91979, -3 4.92709, -2.98742 " /><path d="M4.28746, 3 C4.32594, 3.00234 4.36443, 2.7282 4.40291, 2.2447  C4.45252, 1.62726 4.50213, 0.664653 4.55173, -0.268663  C4.58611, -0.914598 4.62049, -1.53883 4.65486, -2.01766  C4.6942, -2.56874 4.73354, -2.92202 4.77288, -2.98741 " /><path d="M4.77288, -2.98741 Q4.78017, -3 4.78746, -3 " /><path d="M5.27287, 2.98741 Q5.28017, 3 5.28746, 3 " /><path id= "44" d=" M 6.28747 3 L 6.41251 3 " />
<path d="M5.41251, 3 Q5.4198, 3 5.42709, 2.98742 " /><path d="M5.42709, 2.98742 C5.46629, 2.92225 5.50548, 2.57137 5.54467, 2.02367  C5.58977, 1.39787 5.63487, 0.517695 5.67996, -0.328335  C5.71558, -0.996395 5.7512, -1.63617 5.78682, -2.11211  C5.82871, -2.67604 5.87061, -3.00325 5.9125, -3 " /><path d="M5.9125, -3 Q5.91979, -3 5.92709, -2.98742 " /><path d="M5.28746, 3 C5.32595, 3.00234 5.36443, 2.7282 5.40292, 2.2447  C5.45251, 1.62748 5.5021, 0.665341 5.55168, -0.267673  C5.58595, -0.911614 5.62022, -1.53408 5.65449, -2.01246  C5.69395, -2.56646 5.73342, -2.92184 5.77288, -2.98741 " /><path d="M5.77288, -2.98741 Q5.78017, -3 5.78747, -3 " /><path d="M6.27288, 2.98741 Q6.28017, 3 6.28747, 3 " /><path id= "51" d=" M 7.28747 3 L 7.4125 3 " />
<path d="M6.41251, 3 Q6.4198, 3 6.42709, 2.98742 " /><path d="M6.42709, 2.98742 C6.46629, 2.92225 6.50548, 2.57137 6.54467, 2.02367  C6.58977, 1.39786 6.63487, 0.517682 6.67996, -0.328353  C6.71556, -0.996027 6.75116, -1.63545 6.78676, -2.1113  C6.82867, -2.67572 6.87059, -3.00326 6.9125, -3 " /><path d="M6.9125, -3 Q6.91979, -3 6.92709, -2.98742 " /><path d="M6.28747, 3 C6.32595, 3.00234 6.36444, 2.7282 6.40292, 2.2447  C6.45249, 1.6277 6.50206, 0.666029 6.55163, -0.266683  C6.58585, -0.909641 6.62007, -1.53127 6.65428, -2.00949  C6.69381, -2.56516 6.73335, -2.92174 6.77288, -2.98741 " /><path d="M6.77288, -2.98741 Q6.78018, -3 6.78747, -3 " /><path d="M7.27288, 2.98741 Q7.28017, 3 7.28747, 3 " /><path id= "58" d=" M 8.28747 3 L 8.4125 3 " />
<path d="M7.4125, 3 Q7.4198, 3 7.42709, 2.98741 " /><path d="M7.42709, 2.98741 C7.46629, 2.92225 7.50548, 2.57137 7.54467, 2.02367  C7.58977, 1.39786 7.63487, 0.517674 7.67996, -0.328364  C7.71554, -0.995791 7.75113, -1.63499 7.78672, -2.11078  C7.82865, -2.67551 7.87057, -3.00326 7.9125, -3 " /><path d="M7.9125, -3 Q7.91979, -3 7.92708, -2.98742 " /><path d="M7.28747, 3 C7.32595, 3.00234 7.36444, 2.7282 7.40292, 2.24471  C7.45247, 1.62794 7.50203, 0.666771 7.55158, -0.265616  C7.58625, -0.917175 7.62092, -1.54681 7.65559, -2.02774  C7.69469, -2.57313 7.73379, -2.92238 7.77289, -2.98741 " /><path d="M7.77289, -2.98741 Q7.78018, -3 7.78747, -3 " /><path d="M8.27288, 2.98741 Q8.28018, 3 8.28747, 3 " /><path id= "65" d=" M 9.28747 3 L 9.4125 3 " />
<path d="M8.4125, 3 Q8.4198, 3 8.42709, 2.98741 " /><path d="M8.42709, 2.98741 C8.46629, 2.92225 8.50547, 2.57137 8.54467, 2.02366  C8.58977, 1.39785 8.63487, 0.517661 8.67996, -0.328382  C8.71552, -0.995403 8.75109, -1.63423 8.78665, -2.10993  C8.8286, -2.67517 8.87055, -3.00327 8.9125, -3 " /><path d="M8.9125, -3 Q8.91979, -3 8.92708, -2.98742 " /><path d="M8.28747, 3 C8.32595, 3.00234 8.36444, 2.7282 8.40292, 2.24471  C8.45246, 1.62817 8.50199, 0.66749 8.55153, -0.264581  C8.58605, -0.913446 8.62058, -1.54068 8.65511, -2.02096  C8.69437, -2.57018 8.73363, -2.92214 8.77289, -2.98741 " /><path d="M8.77289, -2.98741 Q8.78018, -3 8.78747, -3 " /><path d="M9.27288, 2.98741 Q9.28018, 3 9.28747, 3 " /><path id= "72" d=" M 10.2875 3 L 10.4125 3 " />
<path d="M9.4125, 3 Q9.4198, 3 9.42709, 2.98741 " /><path d="M9.42709, 2.98741 C9.46629, 2.92225 9.50547, 2.57137 9.54467, 2.02366  C9.58977, 1.39784 9.63487, 0.517644 9.67996, -0.328406  C9.7155, -0.994879 9.75103, -1.63321 9.78657, -2.10878  C9.82855, -2.67471 9.87052, -3.00328 9.9125, -3 " /><path d="M9.9125, -3 Q9.91979, -3 9.92708, -2.98742 " /><path d="M9.28747, 3 C9.32595, 3.00234 9.36444, 2.72821 9.40292, 2.24472  C9.45244, 1.62841 9.50196, 0.668226 9.55147, -0.263522  C9.58573, -0.907347 9.61999, -1.53001 9.65425, -2.00893  C9.69379, -2.56492 9.73335, -2.92172 9.77289, -2.98741 " /><path d="M9.77289, -2.98741 Q9.78018, -3 9.78748, -3 " /><path d="M10.2729, 2.98741 Q10.2802, 3 10.2875, 3 " /><path id= "79" d=" M 11.2875 3 L 11.4125 3 " />
<path d="M10.4125, 3 Q10.4198, 3 10.4271, 2.98741 " /><path d="M10.4271, 2.98741 C10.4663, 2.92225 10.5055, 2.57136 10.5447, 2.02366  C10.5898, 1.39784 10.6349, 0.517646 10.68, -0.328403  C10.7155, -0.994952 10.751, -1.63336 10.7866, -2.10894  C10.8286, -2.67477 10.8705, -3.00327 10.9125, -3 " /><path d="M10.9125, -3 Q10.9198, -3 10.9271, -2.98742 " /><path d="M10.2875, 3 C10.326, 3.00234 10.3644, 2.72821 10.4029, 2.24472  C10.4524, 1.62865 10.5019, 0.668985 10.5514, -0.262429  C10.586, -0.911468 10.6205, -1.53902 10.655, -2.01967  C10.6943, -2.56961 10.7336, -2.9221 10.7729, -2.98741 " /><path d="M10.7729, -2.98741 Q10.7802, -3 10.7875, -3 " /><path d="M11.2729, 2.98741 Q11.2802, 3 11.2875, 3 " /><path id= "86" d=" M 12.2875 3 L 12.4125 3 " />
<path d="M11.4125, 3 Q11.4198, 3 11.4271, 2.98741 " /><path d="M11.4271, 2.98741 C11.4663, 2.92225 11.5055, 2.57136 11.5447, 2.02366  C11.5898, 1.39785 11.6349, 0.517651 11.68, -0.328395  C11.7155, -0.995122 11.7511, -1.63369 11.7866, -2.10931  C11.8286, -2.67492 11.8705, -3.00327 11.9125, -3 " /><path d="M11.9125, -3 Q11.9198, -3 11.9271, -2.98742 " /><path d="M11.2875, 3 C11.326, 3.00234 11.3644, 2.72821 11.4029, 2.24473  C11.4524, 1.62887 11.5019, 0.66967 11.5514, -0.261443  C11.586, -0.912655 11.6207, -1.54229 11.6553, -2.02371  C11.6945, -2.57138 11.7337, -2.92224 11.7729, -2.98741 " /><path d="M11.7729, -2.98741 Q11.7802, -3 11.7875, -3 " /><path d="M12.2729, 2.98741 Q12.2802, 3 12.2875, 3 " /><path id= "93" d=" M 13.2875 3 L 13.4125 3 " />
<path d="M12.4125, 3 Q12.4198, 3 12.4271, 2.98741 " /><path d="M12.4271, 2.98741 C12.4663, 2.92225 12.5055, 2.57136 12.5447, 2.02366  C12.5898, 1.39784 12.6349, 0.517642 12.68, -0.328407  C12.7155, -0.994844 12.751, -1.63315 12.7866, -2.1087  C12.8285, -2.67468 12.8705, -3.00328 12.9125, -3 " /><path d="M12.9125, -3 Q12.9198, -3 12.9271, -2.98742 " /><path d="M12.2875, 3 C12.326, 3.00234 12.3644, 2.72821 12.4029, 2.24473  C12.4524, 1.6291 12.5019, 0.670366 12.5513, -0.260439  C12.5857, -0.90657 12.6201, -1.53159 12.6544, -2.01164  C12.6939, -2.56611 12.7334, -2.92182 12.7729, -2.98741 " /><path d="M12.7729, -2.98741 Q12.7802, -3 12.7875, -3 " /><path d="M13.2729, 2.98741 Q13.2802, 3 13.2875, 3 " /><path id= "100" d=" M 14.2875 3 L 14.4125 3 " />
<path d="M13.4125, 3 Q13.4198, 3 13.4271, 2.98741 " /><path d="M13.4271, 2.98741 C13.4663, 2.92225 13.5055, 2.57136 13.5447, 2.02366  C13.5898, 1.39783 13.6349, 0.51761 13.68, -0.328451  C13.7154, -0.993774 13.7509, -1.63107 13.7864, -2.10635  C13.8284, -2.67374 13.8705, -3.00329 13.9125, -3 " /><path d="M13.9125, -3 Q13.9198, -3 13.9271, -2.98742 " /><path d="M13.2875, 3 C13.326, 3.00234 13.3644, 2.72821 13.4029, 2.24473  C13.4524, 1.62934 13.5018, 0.671109 13.5513, -0.259369  C13.5858, -0.909392 13.6204, -1.53808 13.655, -2.01945  C13.6943, -2.56952 13.7336, -2.92209 13.7729, -2.98741 " /><path d="M13.7729, -2.98741 Q13.7802, -3 13.7875, -3 " /><path d="M14.2729, 2.98741 Q14.2802, 3 14.2875, 3 " /><path id= "107" d=" M 15.2875 3 L 15.4125 3 " />
<path d="M14.4125, 3 Q14.4198, 3 14.4271, 2.98741 " /><path d="M14.4271, 2.98741 C14.4663, 2.92224 14.5055, 2.57136 14.5447, 2.02366  C14.5898, 1.39782 14.6349, 0.517598 14.68, -0.328468  C14.7154, -0.993324 14.7509, -1.6302 14.7863, -2.10537  C14.8284, -2.67335 14.8704, -3.0033 14.9125, -3 " /><path d="M14.9125, -3 Q14.9198, -3 14.9271, -2.98742 " /><path d="M14.2875, 3 C14.326, 3.00234 14.3645, 2.72821 14.4029, 2.24474  C14.4524, 1.6296 14.5018, 0.671944 14.5512, -0.258165  C14.5855, -0.903543 14.6199, -1.52804 14.6542, -2.00818  C14.6938, -2.5646 14.7333, -2.9217 14.7729, -2.98741 " /><path d="M14.7729, -2.98741 Q14.7802, -3 14.7875, -3 " /><path d="M15.2729, 2.98741 Q15.2802, 3 15.2875, 3 " /><path id= "114" d=" M 16.2875 3 L 16.4125 3 " />
<path d="M15.4125, 3 Q15.4198, 3 15.4271, 2.98741 " /><path d="M15.4271, 2.98741 C15.4663, 2.92224 15.5055, 2.57136 15.5447, 2.02366  C15.5898, 1.39783 15.6349, 0.517625 15.68, -0.328431  C15.7155, -0.994286 15.751, -1.63206 15.7865, -2.10748  C15.8285, -2.67419 15.8705, -3.00329 15.9125, -3 " /><path d="M15.9125, -3 Q15.9198, -3 15.9271, -2.98741 " /><path d="M15.2875, 3 C15.326, 3.00234 15.3645, 2.72822 15.4029, 2.24474  C15.4523, 1.62989 15.5017, 0.672851 15.5511, -0.256858  C15.5856, -0.90426 15.62, -1.53072 15.6545, -2.01166  C15.6939, -2.56612 15.7334, -2.92182 15.7729, -2.98741 " /><path d="M15.7729, -2.98741 Q15.7802, -3 15.7875, -3 " /><path d="M16.2729, 2.98741 Q16.2802, 3 16.2875, 3 " /><path id= "121" d=" M 17.2875 3 L 17.4125 3 " />
<path d="M16.4125, 3 Q16.4198, 3 16.4271, 2.98741 " /><path d="M16.4271, 2.98741 C16.4663, 2.92224 16.5055, 2.57136 16.5447, 2.02365  C16.5898, 1.39781 16.6349, 0.51758 16.68, -0.328492  C16.7154, -0.992635 16.7508, -1.62886 16.7862, -2.10386  C16.8283, -2.67275 16.8704, -3.00331 16.9125, -3 " /><path d="M16.9125, -3 Q16.9198, -3 16.9271, -2.98741 " /><path d="M16.2875, 3 C16.326, 3.00234 16.3645, 2.72822 16.4029, 2.24475  C16.4526, 1.62606 16.5024, 0.66069 16.5521, -0.274418  C16.5862, -0.915505 16.6203, -1.53485 16.6544, -2.01142  C16.6939, -2.56601 16.7334, -2.92181 16.7729, -2.98741 " /><path d="M16.7729, -2.98741 Q16.7802, -3 16.7875, -3 " /><path d="M17.2729, 2.98741 Q17.2802, 3 17.2875, 3 " /><path id= "128" d=" M 18.2875 3 L 18.4125 3 " />
<path d="M17.4125, 3 Q17.4198, 3 17.4271, 2.98741 " /><path d="M17.4271, 2.98741 C17.4663, 2.92224 17.5055, 2.57136 17.5447, 2.02366  C17.5898, 1.39783 17.6349, 0.517607 17.68, -0.328455  C17.7154, -0.993671 17.7509, -1.63087 17.7864, -2.10613  C17.8284, -2.67365 17.8705, -3.0033 17.9125, -3 " /><path d="M17.9125, -3 Q17.9198, -3 17.9271, -2.98741 " /><path d="M17.2875, 3 C17.326, 3.00234 17.3645, 2.72822 17.4029, 2.24475  C17.4526, 1.62644 17.5023, 0.661902 17.552, -0.272674  C17.5866, -0.922559 17.6212, -1.55012 17.6557, -2.02956  C17.6948, -2.57393 17.7339, -2.92246 17.7729, -2.98741 " /><path d="M17.7729, -2.98741 Q17.7802, -3 17.7875, -3 " /><path d="M18.2729, 2.98741 Q18.2802, 3 18.2875, 3 " /><path id= "135" d=" M 19.2875 3 L 19.4 3 " />
<path d="M18.4125, 3 Q18.4198, 3 18.4271, 2.98741 " /><path d="M18.4271, 2.98741 C18.4663, 2.92224 18.5055, 2.57136 18.5447, 2.02365  C18.5898, 1.39781 18.6349, 0.51756 18.68, -0.32852  C18.7153, -0.991792 18.7507, -1.62723 18.7861, -2.10202  C18.8282, -2.67198 18.8704, -3.00333 18.9125, -3 " /><path d="M18.9125, -3 Q18.9198, -3 18.9271, -2.98741 " /><path d="M18.2875, 3 C18.326, 3.00234 18.3645, 2.72822 18.4029, 2.24476  C18.4526, 1.62672 18.5023, 0.662759 18.5519, -0.271441  C18.5865, -0.920666 18.621, -1.54772 18.6556, -2.02713  C18.6947, -2.57288 18.7338, -2.92237 18.7729, -2.98741 " /><path d="M18.7729, -2.98741 Q18.7802, -3 18.7875, -3 " /><path d="M19.2729, 2.98741 Q19.2802, 3 19.2875, 3 " /><path d="M19.4, 2.28119 C19.4, 2.51009 19.4, 2.69132 19.4, 2.81457  C19.4, 2.84848 19.4, 2.87859 19.4, 2.90491  C19.4, 2.92905 19.4, 2.9493 19.4, 2.96565  C19.4, 2.97978 19.4, 2.98996 19.4, 2.99618  C19.4, 2.99745 19.4, 2.99873 19.4, 3 " /><path d="M19.2875, 3 C19.325, 3.00211 19.3625, 2.74231 19.4, 2.28119 " /><path id= "144" d=" M 19.4 3 L 19.4296 2.97042 " />
<path d="M19.9612, 2.43884 Q19.9572, 2.44279 19.953, 2.43692 " /><path d="M19.6457, -2.75433 Q19.6406, -2.75935 19.6356, -2.75072 " /><path d="M19.6356, -2.75072 C19.6033, -2.70084 19.5714, -2.19095 19.5399, -1.42861  C19.5167, -0.869484 19.4937, -0.185471 19.4708, 0.472137  C19.447, 1.16008 19.4234, 1.81303 19.4, 2.28119 " /><path id= "148" d=" M 19.9612 2.43884 L 20 2.4 " />
<path d="M20, -2.4 C20, -2.39327 20, -2.38654 20, -2.37981  C20, -2.35974 20, -2.33967 20, -2.31959  C20, -2.28651 20, -2.25343 20, -2.22035  C20, -2.17482 20, -2.12929 20, -2.08375  C20, -2.02654 20, -1.96932 20, -1.91211  C20, -1.84417 20, -1.77623 20, -1.70829  C20, -1.63077 20, -1.55325 20, -1.47574  C20, -1.38994 20, -1.30415 20, -1.21836  C20, -1.12573 20, -1.03311 20, -0.940484  C20, -0.842585 20, -0.744687 20, -0.646788  C20, -0.244606 20, 0.180291 20, 0.585167 " /><path d="M20, 0.585167 C19.9955, 0.510991 19.989, 0.438225 19.9783, 0.413591  C19.9667, 0.385943 19.9521, 0.443027 19.9413, 0.517321 " /><path d="M19.4296, 2.97042 Q19.4471, 2.95286 19.4648, 2.92229 " /><path d="M19.4648, 2.92229 C19.5371, 2.79883 19.6113, 2.50852 19.6878, 2.09895  C19.7695, 1.66446 19.8538, 1.09513 19.9413, 0.517321 " /><path d="M19.9612, 2.43884 C19.9773, 2.42347 19.9905, 2.28051 20, 2.03298 " /><path d="M20, 0.585167 C20, 1.16784 20, 1.69972 20, 2.03298 " /><path d="M20, 2.03298 C20, 2.27142 20, 2.40009 20, 2.4 " /></g>

</svg>
