<svg xmlns="http://www.w3.org/2000/svg" viewBox="-5.8 -5.8 11.6 11.6">
<rect width="100%" height="100%" fill="white"/>
<g   fill="none"
   stroke="rgb(0, 0, 0)"
   stroke-linecap="butt"
   stroke-linejoin="miter"
   stroke-width="0.35"
   transform="scale(1, -1)"
  >
<circle cx ="0" cy ="0" r ="2.936" /><circle cx ="0" cy ="0" r ="5" /><path d="M1.4607, 2.53 C0.393624, 2.53 -0.393624, 2.53 -1.4607, 2.53 " /><path d="M-1.4607, 2.53 C-1.99423, 1.60589 -2.38786, 0.924112 -2.92139, -5.41789e-14 " /><path d="M-2.92139, 5.24025e-14 C-2.38786, -0.924112 -1.99423, -1.60589 -1.4607, -2.53 " /><path d="M-1.4607, -2.53 C-0.393624, -2.53 0.393624, -2.53 1.4607, -2.53 " /><path d="M1.4607, -2.53 C1.99423, -1.60589 2.38786, -0.924112 2.92139, 5.37348e-14 " /><path d="M2.92139, -5.41789e-14 C2.38786, 0.924112 1.99423, 1.60589 1.4607, 2.53 " /><circle cx ="0" cy ="0" r ="0.4048" /></g>

</svg>
