<svg xmlns="http://www.w3.org/2000/svg" viewBox="-11.1101972 -10.7345072 17.4120744 18.6929244">
<rect width="100%" height="100%" fill="white"/>
<g   fill="none"
   stroke="rgb(0, 0, 0)"
   stroke-linecap="butt"
   stroke-linejoin="miter"
   stroke-width="0.35"
   transform="scale(1, -1)"
  >
<path d="M-1.99275, 4.28415 C-2.00898, 3.7267 -2.15003, 3.10538 -2.39812, 2.50182  C-2.63267, 1.92883 -2.96303, 1.37337 -3.34808, 0.905445  C-3.71566, 0.457518 -4.13234, 0.090665 -4.5477, -0.149972  C-4.94358, -0.380289 -5.33739, -0.49541 -5.68306, -0.480846 " /><g transform = "rotate(60, -4.80833, 2.77609)">
<ellipse cx ="-4.80833" cy ="2.77609" rx ="4.375"  ry ="2.52591"/>
</g>
<path d="M-1.99275, 4.28415 C-1.97842, 4.75045 -2.05047, 5.17183 -2.20181, 5.5114  C-2.35663, 5.86048 -2.59472, 6.12298 -2.89388, 6.27642 " /><path d="M-4.95072, 5.86852 C-4.92631, 5.88958 -4.89614, 5.91313 -4.86022, 5.93917  C-4.74902, 6.01972 -4.60832, 6.1046 -4.4665, 6.17391  C-4.14546, 6.33196 -3.80653, 6.41949 -3.50319, 6.41681 " /><path d="M-3.50319, 6.41681 C-3.27618, 6.41602 -3.06539, 6.36509 -2.89388, 6.27642 " /><path d="M-6.84439, 2.61051 C-6.73686, 3.16633 -6.51665, 3.74895 -6.21771, 4.28485  C-5.87434, 4.90255 -5.428, 5.45617 -4.95072, 5.86852 " /><path d="M-6.84439 2.61051 A3.45873 1.9969 60 0 1 -6.36409 -0.319493" />
<path d="M-6.36409 -0.319493 A3.45873 1.9969 60 0 1 -5.68306 -0.480846" />
<path d="M-2.60365, 5.49242 C-2.86616, 5.61813 -3.17533, 5.65731 -3.50705, 5.60746  C-3.94126, 5.54325 -4.41366, 5.3248 -4.86171, 4.98392  C-5.38323, 4.58917 -5.86918, 4.02922 -6.23421, 3.40987  C-6.67658, 2.66481 -6.937, 1.83944 -6.95478, 1.15371  C-6.97729, 0.456963 -6.75101, -0.0879151 -6.34406, -0.330792 " /><path d="M-1.99714, 4.60915 C-2.12655, 5.03492 -2.36729, 5.36144 -2.69004, 5.5469 " /><path d="M-2.69004, 5.5469 C-3.06778, 5.76663 -3.55799, 5.78927 -4.07659, 5.61318  C-4.68136, 5.41137 -5.32052, 4.93751 -5.84671, 4.30939  C-6.27116, 3.80572 -6.6212, 3.20687 -6.84439, 2.61051 " /><path d="M-0.212132 5.4297 A6.5 3.75278 60 0 1 -0.827905 7.7278" />
<path d="M-0.827905 2.42057 A6.5 3.75278 60 0 1 -0.212132 5.4297" />
<path d="M-4.80833 -2.53114 A6.5 3.75278 60 0 1 -0.827905 2.42057" />
<path d="M-8.78875 -2.17562 A6.5 3.75278 60 0 1 -4.80833 -2.53114" />
<path d="M-8.78875 3.13161 A6.5 3.75278 60 0 1 -8.78875 -2.17562" />
<path d="M-4.80833 8.08332 A6.5 3.75278 60 0 1 -8.78875 3.13161" />
<path d="M-0.827905 7.7278 A6.5 3.75278 60 0 1 -4.80833 8.08332" />
<path d="M-2.29856, 5.20435 C-2.85114, 5.28648 -3.52626, 5.05534 -4.15456, 4.57571  C-4.67604, 4.181 -5.16196, 3.62111 -5.52699, 3.00181  C-5.96932, 2.25689 -6.22977, 1.43166 -6.24766, 0.745971  C-6.26293, 0.24546 -6.15247, -0.179718 -5.93511, -0.466688 " /><path d="M-2.36862, 5.28712 C-2.94045, 5.41657 -3.6635, 5.18882 -4.33351, 4.67611  C-4.8748, 4.26602 -5.37733, 3.67772 -5.74644, 3.03047  C-6.1679, 2.29698 -6.4122, 1.49368 -6.425, 0.826013  C-6.43783, 0.285676 -6.30231, -0.164052 -6.04486, -0.445646 " /><path d="M-0.827905, 7.7278 C-0.406113, 7.12852 0.107865, 6.47623 0.793421, 5.67018 " /><path d="M-4.80833, 8.08332 C-3.96567, 8.56876 -3.03108, 9.00053 -1.86019, 9.44534 " /><path d="M-1.86019, 9.44534 C-1.57509, 8.87049 -1.24785, 8.32601 -0.827905, 7.7278 " /><path d="M-8.78875, 3.13161 C-8.36695, 4.21579 -7.85298, 5.24595 -7.16742, 6.38121 " /><path d="M-7.16742, 6.38121 C-6.39699, 7.05722 -5.64913, 7.59681 -4.80833, 8.08332 " /><path d="M-8.78875, -2.17562 C-9.20869, -1.57741 -9.53593, -1.03293 -9.82103, -0.458082 " /><path d="M-9.82103, -0.458082 C-9.53593, 0.908383 -9.20869, 2.04635 -8.78875, 3.13161 " /><path d="M-7.16742, -4.23325 C-7.85298, -3.42719 -8.36695, -2.7749 -8.78875, -2.17562 " /><path d="M-4.80833, -2.53114 C-5.64913, -3.01765 -6.39699, -3.55723 -7.16742, -4.23325 " /><path d="M-1.86019, -1.16912 C-3.03108, -1.61392 -3.96567, -2.0457 -4.80833, -2.53114 " /><path d="M-0.827905, 2.42057 C-1.24785, 1.33532 -1.57509, 0.197349 -1.86019, -1.16912 " /><path d="M0.793421, 5.67018 C0.107865, 4.53492 -0.406113, 3.50476 -0.827905, 2.42057 " /><path d="M-2.06341, 4.79514 C-2.5074, 4.73626 -2.99311, 4.51432 -3.4529, 4.16332  C-3.97181, 3.76925 -4.45516, 3.21181 -4.8188, 2.59541  C-5.26027, 1.85251 -5.52094, 1.0295 -5.54034, 0.344627  C-5.54955, 0.0384837 -5.51468, -0.233137 -5.43573, -0.470235 " /><path d="M-2.115, 4.90989 C-2.59083, 4.87878 -3.12395, 4.65094 -3.62642, 4.26785  C-4.16775, 3.85772 -4.67032, 3.26937 -5.03943, 2.62205  C-5.33743, 2.10195 -5.54911, 1.54633 -5.64934, 1.02931  C-5.7642, 0.443734 -5.73499, -0.0899865 -5.57018, -0.480992 " /><path d="M5.01271, 3.23417 C4.72761, 3.80902 4.40036, 4.3535 3.98042, 4.95171 " /><path id= "36" d=" M 0.793421 5.67018 L 5.01271 3.23417 " />
<path id= "37" d=" M 2.35909 7.00933 L -1.86019 9.44534 " />
<path d="M3.98042, 4.95171 C3.55863, 5.55099 3.04465, 6.20328 2.35909, 7.00933 " /><path id= "39" d=" M -2.94813 -6.66925 L -7.16742 -4.23325 " />
<path d="M-2.94813, -6.66925 C-1.77725, -6.22444 -0.842659, -5.79267 -4.94271e-13, -5.30723 " /><path id= "41" d=" M 2.35909 -3.60512 L -1.86019 -1.16912 " />
<path d="M-4.94715e-13, -5.30723 C0.840806, -4.82072 1.58866, -4.28113 2.35909, -3.60512 " /><path d="M2.35909, -3.60512 C3.04465, -2.46986 3.55863, -1.4397 3.98042, -0.355517 " /><path d="M3.98042, -0.355517 C4.40036, 0.729738 4.72761, 1.86771 5.01271, 3.23417 " /><path d="M-1.99607, 4.20244 C-2.77581, 3.86947 -3.57679, 3.09903 -4.11161, 2.18729  C-4.60512, 1.35828 -4.86982, 0.430299 -4.83155, -0.295574 " /><path d="M-1.99108, 4.37608 C-2.29817, 4.26771 -2.6138, 4.09184 -2.91794, 3.86065  C-3.45782, 3.45194 -3.95927, 2.86595 -4.3283, 2.22083  C-4.83544, 1.3434 -5.08246, 0.367213 -4.99482, -0.361594 " /><path d="M-2.14381, 3.26422 C-2.62322, 2.87671 -3.06622, 2.35251 -3.40537, 1.77759  C-3.70679, 1.26853 -3.92627, 0.721502 -4.03833, 0.20756 " /><path d="M-2.07894, 3.54867 C-2.66824, 3.13781 -3.22248, 2.5102 -3.6213, 1.8124  C-3.95666, 1.22926 -4.18269, 0.601058 -4.26612, 0.0322968 " /></g>

</svg>
