<svg xmlns="http://www.w3.org/2000/svg" viewBox="-8.000888 -8.706438 9.201776000000283 17.412876">
<rect width="100%" height="100%" fill="white"/>
<g   fill="none"
   stroke="rgb(0, 0, 0)"
   stroke-linecap="butt"
   stroke-linejoin="miter"
   stroke-width="0.35"
   transform="scale(1, -1)"
  >
<path id= "1" d=" M -6.8 -6.5 L -6.38349 -7.50555 " />
<path id= "2" d=" M 2.83749e-13 -6.5 L -0.416514 -7.50555 " />
</g>
<g   fill="none"
   stroke="rgb(0, 0, 0)"
   stroke-linecap="butt"
   stroke-linejoin="miter"
   stroke-width="0.35"
   transform="scale(1, -1)"
  >
<path d="M-6.8, 5.62917 L-6.8, 5.74675  L-6.8, 5.8563  L-6.8, 5.95765  L-6.8, 6.05068  L-6.8, 6.13524  L-6.8, 6.21122  L-6.8, 6.27852  L-6.8, 6.33703  L-6.8, 6.38668  L-6.8, 6.4274  L-6.8, 6.45913  L-6.8, 6.48182  L-6.8, 6.49545  L-6.8, 6.5 " /><path d="M-6.8, -6.99663e-13 C-6.8, 0.486484 -6.8, 0.970949 -6.8, 1.44639  C-6.8, 1.60289 -6.8, 1.7594 -6.8, 1.91591  C-6.8, 2.06884 -6.8, 2.22178 -6.8, 2.37472  C-6.8, 2.52323 -6.8, 2.67174 -6.8, 2.82024  C-6.8, 2.9635 -6.8, 3.10675 -6.8, 3.25  C-6.8, 3.38719 -6.8, 3.52439 -6.8, 3.66158  C-6.8, 3.79195 -6.8, 3.92232 -6.8, 4.05268  C-6.8, 4.1755 -6.8, 4.29831 -6.8, 4.42112  C-6.8, 4.53569 -6.8, 4.65027 -6.8, 4.76484  C-6.8, 4.87053 -6.8, 4.97622 -6.8, 5.0819  C-6.8, 5.17812 -6.8, 5.27434 -6.8, 5.37055  C-6.8, 5.45676 -6.8, 5.54296 -6.8, 5.62917 " /><path d="M-6.8, -5.62917 Q-6.8, -5.49986 -6.8, -5.37055  Q-6.8, -5.22623 -6.8, -5.0819  Q-6.8, -4.92337 -6.8, -4.76484  Q-6.8, -4.59298 -6.8, -4.42112  Q-6.8, -4.2369 -6.8, -4.05268  Q-6.8, -3.85713 -6.8, -3.66158  Q-6.8, -3.45579 -6.8, -3.25  Q-6.8, -3.03512 -6.8, -2.82024  Q-6.8, -2.59748 -6.8, -2.37472  Q-6.8, -2.14531 -6.8, -1.91591  Q-6.8, -1.68115 -6.8, -1.44639  Q-6.8, -1.20758 -6.8, -0.968775  Q-6.8, -0.486507 -6.8, -6.99774e-13 " /><path d="M-6.8, -6.5 L-6.8, -6.49545  L-6.8, -6.48182  L-6.8, -6.45913  L-6.8, -6.4274  L-6.8, -6.38668  L-6.8, -6.33703  L-6.8, -6.27852  L-6.8, -6.21122  L-6.8, -6.13524  L-6.8, -6.05068  L-6.8, -5.95765  L-6.8, -5.8563  L-6.8, -5.74675  L-6.8, -5.62917 " /><path id= "5" d=" M -6.8 6.5 L -6.38349 7.50555 " />
<path d="M-6.8, -5.62917 C-6.79869, -6.22436 -6.66665, -6.81919 -6.38349, -7.50555 " /><path d="M-6.38349, -3.75278 C-6.66665, -4.43914 -6.79869, -5.03397 -6.8, -5.62917 " /><path d="M-6.8, -6.99663e-13 C-6.79869, -1.19039 -6.66665, -2.38006 -6.38349, -3.75278 " /><path d="M-6.38349, 3.75278 C-6.66665, 2.38006 -6.79869, 1.19039 -6.8, -6.99663e-13 " /><path d="M-6.8, 5.62917 C-6.79869, 5.03397 -6.66665, 4.43914 -6.38349, 3.75278 " /><path d="M-6.38349, 7.50555 C-6.66665, 6.81919 -6.79869, 6.22436 -6.8, 5.62917 " /><path id= "12" d=" M -6.38349 7.50555 L -0.416514 7.50555 " />
<path id= "13" d=" M -0.416514 -7.50555 L -6.38349 -7.50555 " />
<path d="M-0.416514, -7.50555 C-0.133349, -6.81919 -0.00130988, -6.22436 0, -5.62917 " /><path id= "15" d=" M -0.416514 -3.75278 L -6.38349 -3.75278 " />
<path d="M-1.38778e-17, -5.62917 C-0.00130988, -5.03397 -0.133349, -4.43914 -0.416514, -3.75278 " /><path d="M-0.416514, -3.75278 C-0.133349, -2.38006 -0.00130988, -1.19039 -1.38778e-17, -6.99441e-13 " /><path id= "18" d=" M -0.416514 3.75278 L -6.38349 3.75278 " />
<path d="M9.02943e-32, -6.99441e-13 C-0.00130988, 1.19039 -0.133349, 2.38006 -0.416514, 3.75278 " /><path d="M-0.416514, 3.75278 C-0.133349, 4.43914 -0.00130988, 5.03397 1.38778e-17, 5.62917 " /><path d="M0, 5.62917 C-0.00130989, 6.22436 -0.133349, 6.81919 -0.416514, 7.50555 " /><path id= "22" d=" M -0.416514 7.50555 L 1.37757e-13 6.5 " />
<path d="M0, -6.5 L0, -6.49545  L0, -6.48182  L0, -6.45913  L0, -6.4274  L0, -6.38668  L0, -6.33703  L0, -6.27852  L0, -6.21122  L0, -6.13524  L0, -6.05068  L0, -5.95765  L0, -5.8563  L0, -5.74675  L0, -5.62917 " /><path d="M0, -5.62917 Q0, -5.49986 0, -5.37055  Q0, -5.22623 0, -5.0819  Q0, -4.92337 0, -4.76484  Q0, -4.59298 0, -4.42112  Q0, -4.2369 0, -4.05268  Q0, -3.85713 0, -3.66158  Q0, -3.45579 0, -3.25  Q0, -3.03512 0, -2.82024  Q0, -2.59748 0, -2.37472  Q0, -2.14531 0, -1.91591  Q0, -1.68115 0, -1.44639  Q0, -1.20758 0, -0.968775  Q0, -0.486507 0, -6.99774e-13 " /><path d="M0, -6.99663e-13 C0, 0.486484 0, 0.970949 0, 1.44639  C0, 1.60289 0, 1.7594 0, 1.91591  C0, 2.06884 0, 2.22178 0, 2.37472  C0, 2.52323 0, 2.67174 0, 2.82024  C0, 2.9635 0, 3.10675 0, 3.25  C0, 3.38719 0, 3.52439 0, 3.66158  C0, 3.79195 0, 3.92232 0, 4.05268  C0, 4.1755 0, 4.29831 0, 4.42112  C0, 4.53569 0, 4.65027 0, 4.76484  C0, 4.87053 0, 4.97622 0, 5.0819  C0, 5.17812 0, 5.27434 0, 5.37055  C0, 5.45676 0, 5.54296 0, 5.62917 " /><path d="M0, 5.62917 L0, 5.74675  L0, 5.8563  L0, 5.95765  L0, 6.05068  L0, 6.13524  L0, 6.21122  L0, 6.27852  L0, 6.33703  L0, 6.38668  L0, 6.4274  L0, 6.45913  L0, 6.48182  L0, 6.49545  L0, 6.5 " /></g>

</svg>
