<svg xmlns="http://www.w3.org/2000/svg" viewBox="-8.706438 -7.700888 17.412876 15.401776">
<rect width="100%" height="100%" fill="white"/>
<g   fill="none"
   stroke="rgb(0, 0, 0)"
   stroke-linecap="butt"
   stroke-linejoin="miter"
   stroke-width="0.35"
   transform="scale(1, -1)"
  >
<path d="M3.83791, -2.22045e-15 C3.80625, -0.662556 3.59797, -1.31498 3.23822, -1.86986  C2.89805, -2.3973 2.42231, -2.83545 1.86911, -3.12762  C1.34101, -3.40804 0.743378, -3.55434 0.147518, -3.5469  C-0.420405, -3.54099 -0.985476, -3.39538 -1.48257, -3.12487 " /><circle cx ="0" cy ="0" r ="4.375" /><path d="M3.83791, 6.66134e-16 C3.86545, 0.553686 3.77077, 1.1135 3.56389, 1.62925  C3.35228, 2.15893 3.02283, 2.64152 2.60696, 3.03378 " /><path d="M-0.301853, 3.9886 C-0.266123, 3.99594 -0.222422, 4.00241 -0.170749, 4.00802  C-0.0107647, 4.02532 0.189696, 4.02831 0.391228, 4.01194  C0.600509, 3.9954 0.811296, 3.95947 1.02359, 3.90414 " /><path d="M1.02359, 3.90414 C1.4123, 3.80268 1.79074, 3.634 2.12302, 3.41523  C2.30137, 3.29752 2.46268, 3.17037 2.60696, 3.03378 " /><path d="M-3.12494, 1.48243 C-2.94897, 2.06324 -2.61438, 2.59792 -2.16907, 3.02033  C-1.65755, 3.50814 -1.00123, 3.84547 -0.301853, 3.9886 " /><path d="M-3.12494 1.48243 A3.45873 3.45873 0 0 1 -1.48257 -3.12487" /><path d="M3.45873, 4.32111e-07 C3.46186, 0.869238 3.1202, 1.73333 2.52343, 2.3654  C2.01314, 2.91234 1.32048, 3.28493 0.58286, 3.40927  C-0.234287, 3.55161 -1.10005, 3.38507 -1.80608, 2.94973  C-2.37565, 2.6023 -2.83999, 2.08569 -3.12494, 1.48243 " /><path d="M6.5 0 A6.5 6.5 0 0 1 5.62917 3.25" /><path d="M5.62917 -3.25 A6.5 6.5 0 0 1 6.5 -1.59204e-15" /><path d="M-6.99746e-13 -6.5 A6.5 6.5 0 0 1 5.62917 -3.25" /><path d="M-5.62917 -3.25 A6.5 6.5 0 0 1 -6.99746e-13 -6.5" /><path d="M-5.62917 3.25 A6.5 6.5 0 0 1 -5.62917 -3.25" /><path d="M-7.4434e-13 6.5 A6.5 6.5 0 0 1 -5.62917 3.25" /><path d="M5.62917 3.25 A6.5 6.5 0 0 1 -7.4434e-13 6.5" /><path d="M3.45873, 3.7038e-07 C3.46138, 0.832728 3.14877, 1.66128 2.59669, 2.28474  C2.31738, 2.60247 1.9791, 2.86815 1.60422, 3.0642 " /><path d="M1.24191, 3.22808 C0.802001, 3.39763 0.327138, 3.47564 -0.143888, 3.45574 " /><path d="M-0.673725, 3.39248 Q-1.11793, 3.304 -1.52462, 3.10457 " /><path d="M-2.0656, 2.77419 C-2.26735, 2.62387 -2.45057, 2.45363 -2.61526, 2.26346  C-3.17231, 1.62417 -3.47882, 0.774086 -3.45795, -0.0735533  C-3.4427, -0.928135 -3.09478, -1.77085 -2.50273, -2.3873  C-2.00896, -2.90708 -1.34937, -3.26592 -0.644742, -3.39811  C-0.0212674, -3.51734 0.634654, -3.45967 1.22776, -3.23349  C1.82989, -3.00589 2.36522, -2.60569 2.7539, -2.09258  C3.20884, -1.49677 3.46049, -0.749612 3.45873, -8.88178e-16 " /><path d="M5.62917, 3.25 C6.22436, 2.21909 6.81919, 1.18881 7.50555, 5.57776e-13 " /><path d="M-7.44738e-13, 6.5 C1.19039, 6.5 2.38006, 6.5 3.75278, 6.5 " /><path d="M3.75278, 6.5 C4.43914, 5.31119 5.03397, 4.28091 5.62917, 3.25 " /><path d="M-5.62917, 3.25 C-5.03397, 4.28091 -4.43914, 5.31119 -3.75278, 6.5 " /><path d="M-3.75278, 6.5 C-2.38006, 6.5 -1.19039, 6.5 -7.44516e-13, 6.5 " /><path d="M-5.62917, -3.25 C-6.22436, -2.21909 -6.81919, -1.18881 -7.50555, -3.10374e-13 " /><path d="M-7.50555, 8.0469e-13 C-6.81919, 1.18881 -6.22436, 2.21909 -5.62917, 3.25 " /><path d="M-3.75278, -6.5 C-4.43914, -5.31119 -5.03397, -4.28091 -5.62917, -3.25 " /><path d="M-6.99663e-13, -6.5 C-1.19039, -6.5 -2.38006, -6.5 -3.75278, -6.5 " /><path d="M3.75278, -6.5 C2.38006, -6.5 1.19039, -6.5 -6.99663e-13, -6.5 " /><path d="M5.62917, -3.25 C5.03397, -4.28091 4.43914, -5.31119 3.75278, -6.5 " /><path d="M7.50555, -5.58247e-13 C6.81919, -1.18881 6.22436, -2.21909 5.62917, -3.25 " /><path d="M2.52671, 2.3619 C2.26149, 2.64582 1.94798, 2.88445 1.6037, 3.06447 " /><path d="M1.24061, 3.22858 L1.226, 3.23416 " /><path d="M0.828999, 3.35792 L0.812222, 3.36201 " /><path d="M0.589752, 3.40808 L0.58408, 3.40906 " /><path d="M-0.117962, 3.45672 Q-0.591921, 3.44024 -1.04416, 3.29736 " /><path d="M-1.53286, 3.10051 L-1.53291, 3.10049 " /><path d="M-1.79698, 2.95528 L-1.80264, 2.95184 " /><path d="M-2.41627, 2.47477 L-2.43574, 2.45561 " /><path d="M-2.76737, 2.07473 C-3.22892, 1.4623 -3.47624, 0.692762 -3.45795, -0.0738419  C-3.44262, -0.928474 -3.09459, -1.77121 -2.50242, -2.38762  C-2.01225, -2.90343 -1.35881, -3.26079 -0.660045, -3.39517  C-0.032858, -3.51806 0.628018, -3.4617 1.22534, -3.2344  C1.82689, -3.00754 2.36194, -2.60846 2.75088, -2.09654  C3.2077, -1.50007 3.46051, -0.75128 3.45873, -1.9984e-15 " /><path d="M-2.53182, -2.35642 C-2.03833, -2.88892 -1.37268, -3.25829 -0.659692, -3.39524  C-0.0297027, -3.51862 0.634252, -3.46111 1.23364, -3.23125  C1.82973, -3.00467 2.36001, -2.60889 2.74679, -2.1019  C3.20616, -1.50454 3.46053, -0.753532 3.45873, 2.46919e-07 " /><path d="M2.52671, 2.3619 C2.2619, 2.64538 1.94894, 2.88372 1.60528, 3.06365 " /><path d="M1.23862, 3.22934 L1.22408, 3.23488 " /><path d="M0.831201, 3.35737 L0.811736, 3.36213 " /><path d="M0.587658, 3.40845 L0.584836, 3.40893 " /><path d="M0.335279, 3.44245 Q0.0954836, 3.46578 -0.145234, 3.45568 " /><path d="M-0.677248, 3.39178 Q-1.11932, 3.30325 -1.52418, 3.10479 " /><path d="M-1.79703, 2.95526 L-1.80244, 2.95195 " /><path d="M-2.41847, 2.47262 L-2.4386, 2.45277 " /><path d="M2.51364, 2.3758 C2.00589, 2.91546 1.31998, 3.28346 0.589566, 3.40812 " /><path d="M0.587845, 3.40841 L0.584402, 3.40901 " /><path d="M0.58268, 3.4093 Q0.218474, 3.47143 -0.150646, 3.45545 " /><path d="M-1.02399, 3.30368 Q-1.43585, 3.17579 -1.80389, 2.95107 " /><path d="M-2.42082, 2.47032 C-3.09787, 1.81283 -3.48269, 0.86828 -3.45792, -0.0750981  C-3.44245, -0.910339 -3.10984, -1.73439 -2.54116, -2.34635 " /><path d="M-2.46601, -2.4252 Q-2.28465, -2.60958 -2.0779, -2.76499 " /></g>

</svg>
