<svg xmlns="http://www.w3.org/2000/svg" viewBox="-8.6339156 -7.9970156 13.4622312 14.0995912">
<rect width="100%" height="100%" fill="white"/>
<g   fill="none"
   stroke="rgb(0, 0, 0)"
   stroke-linecap="butt"
   stroke-linejoin="miter"
   stroke-width="0.35"
   transform="scale(1, -1)"
  >
<path id= "1" d=" M -7.66153 -0.321238 L -7.29335 -1.15761 " />
<path id= "2" d=" M -3.55256 6.7957 L -2.10729 6.95374 " />
</g>
<g   fill="none"
   stroke="rgb(0, 0, 0)"
   stroke-linecap="butt"
   stroke-linejoin="miter"
   stroke-width="0.35"
   transform="scale(1, -1)"
  >
<path d="M3.06186, 3.80901 C2.73741, 4.26999 2.34204, 4.77175 1.81469, 5.3918 " /><path d="M3.85593, 2.48782 C3.63662, 2.93002 3.38489, 3.34885 3.06186, 3.80901 " /><path id= "3" d=" M 3.85593 2.48782 L 1.02778 4.12066 " />
<path d="M-1.01346, 7.02463 L-1.12437, 6.95578  L-1.19661, 6.8691  L-1.23063, 6.76406  L-1.22664, 6.64002  L-1.18462, 6.4962  L-1.10431, 6.33173  L-0.985206, 6.14558  L-0.826582, 5.93662  L-0.627459, 5.70355  L-0.38661, 5.44494  L-0.102551, 5.1592  L0.226467, 4.84456  L0.602473, 4.49909  L1.02778, 4.12066 " /><path id= "5" d=" M 1.81469 5.3918 L -1.01346 7.02463 " />
<path d="M-2.10729, 6.95374 Q-1.61304, 7.00772 -1.01346, 7.02463 " /><path d="M1.02778, 4.12066 L0.602473, 3.87028  L0.226467, 3.60823  L-0.102551, 3.33288  L-0.38661, 3.04253  L-0.627459, 2.7354  L-0.826582, 2.40959  L-0.985206, 2.0631  L-1.10431, 1.69379  L-1.18462, 1.29939  L-1.22664, 0.877468  L-1.23063, 0.425421  L-1.19661, -0.0595338  L-1.12437, -0.580384  L-1.01346, -1.14034 " /><path d="M-1.58268 4.55677 A4.46175 2.57599 60 0 1 -3.55256 6.7957" />
<path d="M-3.55256 6.7957 A4.46175 2.57599 60 0 1 -7.66153 -0.321238" />
<path d="M-7.66153 -0.321238 A4.46175 2.57599 60 0 1 -1.58268 4.55677" />
<path d="M-5.09594, -3.49736 L-5.3683, -3.25629  L-5.62095, -3.02849  L-5.85449, -2.8134  L-6.06949, -2.61051  L-6.26646, -2.41933  L-6.4459, -2.23938  L-6.60822, -2.07025  L-6.75383, -1.91151  L-6.88307, -1.76278  L-6.99625, -1.62372  L-7.09365, -1.49397  L-7.17551, -1.37323  L-7.24203, -1.2612  L-7.29335, -1.15761 " /><path d="M-1.01346, -1.14034 L-1.59597, -1.16707  L-2.12386, -1.21305  L-2.60037, -1.27856  L-3.02846, -1.36402  L-3.41074, -1.46993  L-3.74958, -1.59697  L-4.04707, -1.74591  L-4.30503, -1.91766  L-4.52507, -2.11329  L-4.70852, -2.334  L-4.85653, -2.58116  L-4.97001, -2.85627  L-5.04965, -3.16105  L-5.09594, -3.49736 " /><path d="M3.06186, -0.273475 C3.38489, 0.561337 3.63662, 1.4367 3.85593, 2.48782 " /><path d="M1.81469, -2.77317 C2.34204, -1.89989 2.73741, -1.10746 3.06186, -0.273475 " /><path id= "15" d=" M 1.81469 -2.77317 L -1.01346 -1.14034 " />
<path d="M-3.23856e-08, -4.08248 C0.646774, -3.70824 1.22205, -3.29318 1.81469, -2.77317 " /><path d="M-2.2678, -5.13019 C-1.36711, -4.78803 -0.648199, -4.4559 -3.23856e-08, -4.08248 " /><path id= "18" d=" M -2.2678 -5.13019 L -5.09594 -3.49736 " />
<g transform = "rotate(60, -4.73762, 2.73526)">
<ellipse cx ="-4.73762" cy ="2.73526" rx ="3.15"  ry ="1.81865"/>
</g>
<path d="M-2.64746, 3.88401 C-2.66537, 3.41667 -2.79855, 2.89349 -3.02563, 2.39871  C-3.2391, 1.93121 -3.53547, 1.49096 -3.86859, 1.14619  C-4.18903, 0.813182 -4.54237, 0.570184 -4.87361, 0.454969  C-5.19149, 0.3432 -5.4878, 0.349555 -5.71666, 0.473657 " /><path d="M-2.64746, 3.88401 C-2.62644, 4.39269 -2.74175, 4.8328 -2.97217, 5.1278 " /><path d="M-4.34206, 5.34337 C-4.31856, 5.35804 -4.2879, 5.37355 -4.25008, 5.38989  C-4.11778, 5.44704 -3.9439, 5.48947 -3.78228, 5.49353  C-3.67967, 5.49671 -3.58086, 5.48644 -3.48586, 5.46272 " /><path d="M-3.48586, 5.46272 C-3.27604, 5.41148 -3.09391, 5.28641 -2.97217, 5.1278 " /><path d="M-5.94483, 3.16867 C-5.81514, 3.58561 -5.60372, 4.00438 -5.34387, 4.3685  C-5.05126, 4.77997 -4.69841, 5.12059 -4.34206, 5.34337 " /><path d="M-5.94483 3.16867 A2.45873 1.41955 60 0 1 -5.83601 0.53032" />
<path d="M-5.83601 0.53032 A2.45873 1.41955 60 0 1 -5.71666 0.473657" />
<path d="M-3.10432, 4.62522 C-3.54696, 4.82811 -4.1655, 4.68408 -4.73189, 4.25738  C-5.10813, 3.97769 -5.45811, 3.58182 -5.72173, 3.14506  C-6.03644, 2.62732 -6.22527, 2.05599 -6.24739, 1.58003  C-6.27371, 1.08147 -6.11784, 0.69351 -5.83052, 0.527178 " /><path d="M-2.64734, 3.88703 C-2.73523, 4.24971 -2.92543, 4.52909 -3.19003, 4.68087 " /><path d="M-3.19003, 4.68087 C-3.48469, 4.85252 -3.87137, 4.86257 -4.27587, 4.71188  C-4.89232, 4.48934 -5.53806, 3.8825 -5.94483, 3.16867 " /><path d="M-2.81645, 4.30732 C-3.19019, 4.31642 -3.62146, 4.15106 -4.02488, 3.84906  C-4.4012, 3.5693 -4.75123, 3.1733 -5.01485, 2.73643  C-5.32916, 2.21921 -5.51787, 1.64856 -5.54023, 1.17295  C-5.5565, 0.853533 -5.49998, 0.577268 -5.37958, 0.378207 " /><path d="M-2.87983, 4.40166 C-3.28119, 4.45048 -3.76403, 4.28202 -4.21184, 3.94349  C-4.60326, 3.65014 -4.96527, 3.23109 -5.23079, 2.7724  C-5.53214, 2.25567 -5.70705, 1.69287 -5.71885, 1.22795  C-5.72915, 0.880212 -5.65052, 0.587874 -5.49716, 0.39448 " /><path d="M-2.65161, 3.80531 C-3.25496, 3.59942 -3.89253, 3.02171 -4.30797, 2.32781  C-4.69107, 1.69921 -4.88301, 0.993367 -4.82665, 0.472167 " /><path d="M-2.66569, 3.95606 C-2.94063, 3.88807 -3.22964, 3.74244 -3.50512, 3.53495  C-3.89827, 3.24023 -4.26168, 2.8187 -4.52747, 2.35763  C-4.92103, 1.68316 -5.08985, 0.934677 -4.98035, 0.421736 " /><path d="M-2.75658, 3.15734 C-3.16663, 2.86053 -3.5475, 2.42417 -3.82277, 1.94522  C-4.04127, 1.56707 -4.19388, 1.16449 -4.26236, 0.794435 " /><path d="M-2.85252, 2.83362 C-3.38337, 2.35845 -3.81842, 1.66142 -4.00918, 1.00789 " /></g>

</svg>
