<svg xmlns="http://www.w3.org/2000/svg" viewBox="-7.62376 -6.69726 8.54752 13.39452">
<rect width="100%" height="100%" fill="white"/>
<g   fill="none"
   stroke="rgb(0, 0, 0)"
   stroke-linecap="butt"
   stroke-linejoin="miter"
   stroke-width="0.35"
   transform="scale(1, -1)"
  >
<path id= "1" d=" M -6.7 -4.46175 L -4.32 -5.7735 " />
<path id= "2" d=" M -3.61511e-13 -5 L -0.320395 -5.7735 " />
</g>
<g   fill="none"
   stroke="rgb(0, 0, 0)"
   stroke-linecap="butt"
   stroke-linejoin="miter"
   stroke-width="0.35"
   transform="scale(1, -1)"
  >
<path id= "1" d=" M -0.320395 5.7735 L -4.32 5.7735 " />
<path d="M-4.32, 5.7735 L-4.69916, 5.55119  L-5.01612, 5.33639  L-5.27283, 5.1278  L-5.47087, 4.92412  L-5.61146, 4.7241  L-5.69547, 4.52651  L-5.72342, 4.33013  L-5.69547, 4.13374  L-5.61146, 3.93615  L-5.47087, 3.73613  L-5.27283, 3.53245  L-5.01612, 3.32386  L-4.69916, 3.10907  L-4.32, 2.88675 " /><path id= "3" d=" M -4.32 5.7735 L -6.7 4.46175 " />
<path d="M-6.7, -4.46175 L-6.7, -4.34989  L-6.7, -4.0199  L-6.7, -3.48834  L-6.7, -2.78186  L-6.7, -1.93588  L-6.7, -0.992833  L-6.7, -7.77156e-16  L-6.7, 0.992833  L-6.7, 1.93588  L-6.7, 2.78186  L-6.7, 3.48834  L-6.7, 4.0199  L-6.7, 4.34989  L-6.7, 4.46175 " /><path d="M-4.32, -2.88675 L-4.69916, -3.10907  L-5.01612, -3.32386  L-5.27283, -3.53245  L-5.47087, -3.73613  L-5.61146, -3.93615  L-5.69547, -4.13374  L-5.72342, -4.33013  L-5.69547, -4.52651  L-5.61146, -4.7241  L-5.47087, -4.92412  L-5.27283, -5.1278  L-5.01612, -5.33639  L-4.69916, -5.55119  L-4.32, -5.7735 " /><path d="M-4.32, 2.88675 L-4.69916, 2.44212  L-5.01612, 2.01253  L-5.27283, 1.59535  L-5.47087, 1.18799  L-5.61146, 0.787949  L-5.69547, 0.392764  L-5.72342, -1.22125e-15  L-5.69547, -0.392764  L-5.61146, -0.787949  L-5.47087, -1.18799  L-5.27283, -1.59535  L-5.01612, -2.01253  L-4.69916, -2.44212  L-4.32, -2.88675 " /><path d="M0, 4.33013 C-0.0010076, 4.78797 -0.102576, 5.24553 -0.320395, 5.7735 " /><path d="M-0.320395, 2.88675 C-0.102576, 3.41472 -0.00100761, 3.87228 0, 4.33013 " /><path id= "9" d=" M -0.320395 2.88675 L -4.32 2.88675 " />
<path id= "10" d=" M -0.320395 5.7735 L -4.73791e-13 5 " />
<path d="M0, -5 C0, -4.9991 0, -4.94171 0, -4.82963  C0, -4.71582 0, -4.54755 0, -4.33013 " /><path d="M0, -4.33013 Q0, -4.23066 0, -4.13119  Q0, -4.02018 0, -3.90916  Q0, -3.78721 0, -3.66526  Q0, -3.53306 0, -3.40086  Q0, -3.25916 0, -3.11745  Q0, -2.96702 0, -2.8166  Q0, -2.6583 0, -2.5  Q0, -2.33471 0, -2.16942  Q0, -1.99806 0, -1.82671  Q0, -1.65024 0, -1.47378  Q0, -1.29319 0, -1.1126  Q0, -0.562676 0, -4.58002e-08 " /><path d="M0, -4.58002e-08 Q0, 0.562675 0, 1.1126  Q0, 1.29319 0, 1.47378  Q0, 1.65024 0, 1.82671  Q0, 1.99806 0, 2.16942  Q0, 2.33471 0, 2.5  Q0, 2.6583 0, 2.8166  Q0, 2.96702 0, 3.11745  Q0, 3.25916 0, 3.40086  Q0, 3.53306 0, 3.66526  Q0, 3.78721 0, 3.90916  Q0, 4.02018 0, 4.13119  Q0, 4.23066 0, 4.33013 " /><path d="M0, 4.33013 C0, 4.54755 0, 4.71582 0, 4.82963  C0, 4.94171 0, 4.9991 0, 5 " /><path id= "15" d=" M -0.320395 -5.7735 L -4.32 -5.7735 " />
<path d="M0, -4.58002e-08 C-0.0010076, 0.915684 -0.102576, 1.83081 -0.320395, 2.88675 " /><path d="M-0.320395, -2.88675 C-0.102576, -1.83081 -0.00100761, -0.915684 1.38778e-17, -4.58002e-08 " /><path id= "18" d=" M -0.320395 -2.88675 L -4.32 -2.88675 " />
<path d="M-1.38778e-17, -4.33013 C-0.00100761, -3.87228 -0.102576, -3.41472 -0.320395, -2.88675 " /><path d="M-0.320395, -5.7735 C-0.102576, -5.24553 -0.0010076, -4.78797 1.38778e-17, -4.33013 " /></g>

</svg>
