<svg xmlns="http://www.w3.org/2000/svg" viewBox="-6.69726 -5.92376 13.39452 11.84752">
<rect width="100%" height="100%" fill="white"/>
<g   fill="none"
   stroke="rgb(0, 0, 0)"
   stroke-linecap="butt"
   stroke-linejoin="miter"
   stroke-width="0.35"
   transform="scale(1, -1)"
  >
<path d="M2.88675, 5 Q2.99791, 4.80747 3.10907, 4.61494  Q3.21646, 4.42892 3.32386, 4.2429  Q3.42816, 4.06226 3.53245, 3.88161  Q3.73716, 3.52705 3.93615, 3.18238  Q4.13408, 2.83956 4.33013, 2.5  Q4.52617, 2.16044 4.7241, 1.81762  Q4.92309, 1.47295 5.1278, 1.11839  Q5.2321, 0.937743 5.33639, 0.757096  Q5.44379, 0.571079 5.55119, 0.385063  Q5.66234, 0.192532 5.7735, 4.01013e-13 " /><path d="M-2.88675, 5 C-2.73854, 5 -2.59033, 5 -2.44212, 5  C-2.29892, 5 -2.15573, 5 -2.01253, 5  C-1.87347, 5 -1.73441, 5 -1.59535, 5  C-1.32241, 5 -1.05327, 5 -0.787949, 5  C-0.52404, 5 -0.261391, 5 1.11022e-15, 5  C0.392109, 5 0.785999, 5 1.18799, 5  C1.32377, 5 1.45956, 5 1.59535, 5  C1.73441, 5 1.87347, 5 2.01253, 5  C2.15573, 5 2.29892, 5 2.44212, 5  C2.59033, 5 2.73854, 5 2.88675, 5 " /><path d="M5.7735, -4.01013e-13 Q5.66234, -0.192532 5.55119, -0.385063  Q5.44379, -0.571079 5.33639, -0.757096  Q5.2321, -0.937743 5.1278, -1.11839  Q4.92309, -1.47295 4.7241, -1.81762  Q4.52617, -2.16044 4.33013, -2.5  Q4.13408, -2.83956 3.93615, -3.18238  Q3.73716, -3.52705 3.53245, -3.88161  Q3.42816, -4.06226 3.32386, -4.2429  Q3.21646, -4.42892 3.10907, -4.61494  Q2.99791, -4.80747 2.88675, -5 " /><circle cx ="0" cy ="0" r ="4.46175" /><path d="M-5.7735, 3.6815e-13 C-5.6994, 0.128354 -5.62529, 0.256709 -5.55119, 0.385063  C-5.47959, 0.509074 -5.40799, 0.633085 -5.33639, 0.757096  C-5.26686, 0.877527 -5.19733, 0.997959 -5.1278, 1.11839  C-4.99133, 1.35476 -4.85676, 1.58784 -4.7241, 1.81762  C-4.59215, 2.04617 -4.46082, 2.27363 -4.33013, 2.5  C-4.13407, 2.83958 -3.93713, 3.1807 -3.73613, 3.52883  C-3.66824, 3.64642 -3.60035, 3.76402 -3.53245, 3.88161  C-3.46292, 4.00204 -3.39339, 4.12247 -3.32386, 4.2429  C-3.25226, 4.36692 -3.18067, 4.49093 -3.10907, 4.61494  C-3.03496, 4.74329 -2.96086, 4.87165 -2.88675, 5 " /><path d="M-2.88675, -5 C-2.96086, -4.87165 -3.03496, -4.74329 -3.10907, -4.61494  C-3.18067, -4.49093 -3.25226, -4.36692 -3.32386, -4.2429  C-3.39339, -4.12247 -3.46292, -4.00204 -3.53245, -3.88161  C-3.66892, -3.64524 -3.80349, -3.41216 -3.93615, -3.18238  C-4.06811, -2.95383 -4.19943, -2.72637 -4.33013, -2.5  C-4.52618, -2.16042 -4.72313, -1.8193 -4.92412, -1.47117  C-4.99201, -1.35358 -5.05991, -1.23598 -5.1278, -1.11839  C-5.19733, -0.997959 -5.26686, -0.877527 -5.33639, -0.757096  C-5.40799, -0.633085 -5.47959, -0.509074 -5.55119, -0.385063  C-5.62529, -0.256709 -5.6994, -0.128354 -5.7735, -4.33431e-13 " /><path d="M2.88675, -5 C2.73854, -5 2.59033, -5 2.44212, -5  C2.29892, -5 2.15573, -5 2.01253, -5  C1.87347, -5 1.73441, -5 1.59535, -5  C1.32241, -5 1.05327, -5 0.787949, -5  C0.52404, -5 0.261391, -5 -1.11022e-15, -5  C-0.392109, -5 -0.785999, -5 -1.18799, -5  C-1.32377, -5 -1.45956, -5 -1.59535, -5  C-1.73441, -5 -1.87347, -5 -2.01253, -5  C-2.15573, -5 -2.29892, -5 -2.44212, -5  C-2.59033, -5 -2.73854, -5 -2.88675, -5 " /><circle cx ="0" cy ="0" r ="3.15" /><path d="M2.88489, -4.44089e-16 C2.84995, -0.550105 2.65184, -1.08693 2.32078, -1.52242  C2.00952, -1.93467 1.58089, -2.2548 1.10013, -2.43185  C0.63766, -2.60381 0.128525, -2.64213 -0.349512, -2.53943  C-0.808261, -2.44234 -1.23666, -2.21569 -1.5698, -1.89238 " /><path d="M2.88489, 4.44089e-16 C2.92507, 0.597688 2.77227, 1.20797 2.45652, 1.72208 " /><path d="M0.519214, 2.95476 C0.553965, 2.95459 0.59861, 2.95061 0.653151, 2.94282  C0.887877, 2.90953 1.19776, 2.80939 1.47132, 2.65577 " /><path d="M1.47132, 2.65577 C1.87882, 2.43399 2.24094, 2.07982 2.45652, 1.72208 " /><path d="M-1.89249, 1.56967 C-1.68463, 1.96416 -1.3621, 2.30402 -0.971838, 2.54345  C-0.532355, 2.81482 -0.0086451, 2.95779 0.519214, 2.95476 " /><path d="M-1.89249 1.56967 A2.45873 2.45873 0 0 1 -1.5698 -1.89238" /><path d="M1.96439, 1.4787 L1.96308, 1.48043 " /><path d="M1.46893, 1.9717 L1.35925, 2.04886 " /><path d="M1.23195, 2.12783 L1.2296, 2.12919 " /><path d="M1.22927, 2.12938 L1.22778, 2.13024 " /><path d="M1.20895, 2.14098 Q1.02887, 2.24263 0.83436, 2.31284 " /><path d="M0.834067, 2.31294 L0.831382, 2.31391 " /><path d="M-1.3438, 2.05902 L-1.36538, 2.04478 " /><path d="M-1.73942, 1.73776 L-1.82601, 1.64653 " /><path d="M-2.30705, 0.850222 C-2.41544, 0.556587 -2.46689, 0.242036 -2.45771, -0.070834  C-2.44232, -0.675823 -2.19248, -1.27071 -1.77128, -1.70527  C-1.4235, -2.06794 -0.961715, -2.31902 -0.468244, -2.41374  C0.282519, -2.5645 1.09616, -2.33558 1.65816, -1.81546 " /><path d="M2.45873, -0.00015989 L2.45873, 1.10064e-07 " /><path d="M2.45873, 7.67258e-07 C2.4618, 0.672481 2.17228, 1.33937 1.67887, 1.79633  C1.30454, 2.14765 0.817438, 2.37613 0.307984, 2.43937  C-0.210528, 2.506 -0.749119, 2.40066 -1.20432, 2.14359  C-1.46885, 1.99442 -1.69824, 1.80311 -1.89249, 1.56967 " /><path d="M2.45873, 6.57647e-07 Q2.45873, 0.0871645 2.45256, 0.174109 " /><path d="M2.40757, 0.498974 L2.39615, 0.551215 " /><path d="M2.2955, 0.88094 Q2.26707, 0.95501 2.23393, 1.02709 " /><path d="M2.18733, 1.12292 Q2.08889, 1.3146 1.95866, 1.48628 " /><path d="M1.95781, 1.48739 L1.90493, 1.55455 " /><path d="M1.86211, 1.60559 Q1.77578, 1.7057 1.67923, 1.79599 " /><path d="M1.34414, 2.0588 Q1.19977, 2.15304 1.04368, 2.22623 " /><path d="M0.816854, 2.31908 L0.766615, 2.33617 " /><path d="M0.139924, 2.45475 L0.131483, 2.45522 " /><path d="M-0.153204, 2.45396 Q-0.451052, 2.43523 -0.735858, 2.34604 " /><path d="M-1.25015, 2.11719 L-1.29604, 2.08941 " /><path d="M-1.69797, 1.77827 C-2.20038, 1.30328 -2.48398, 0.608352 -2.45735, -0.0825603  C-2.43934, -0.674348 -2.1974, -1.25561 -1.79019, -1.6854  C-1.44247, -2.05626 -0.976728, -2.31407 -0.477841, -2.41185  C-0.00878083, -2.50562 0.487268, -2.4578 0.929777, -2.27616  C1.36884, -2.09766 1.7535, -1.78861 2.02239, -1.39832  C2.30528, -0.990841 2.45968, -0.496034 2.45873, -2.33147e-15 " /><path d="M2.45873, 5.48038e-07 Q2.45873, 0.0766977 2.45395, 0.153246 " /><path d="M2.40984, 0.487915 L2.3986, 0.540451 " /><path d="M2.29556, 0.880772 L2.28454, 0.908974 " /><path d="M2.25865, 0.971522 L2.24473, 1.00327 " /><path d="M2.15613, 1.18172 Q1.97904, 1.50419 1.71574, 1.76114 " /><path d="M1.27671, 2.10128 Q1.19835, 2.14889 1.11666, 2.19054 " /><path d="M1.10216, 2.19786 L1.03016, 2.23252 " /><path d="M0.79658, 2.32612 L0.757242, 2.33922 " /><path d="M-0.122947, 2.45566 Q-0.44019, 2.4396 -0.74305, 2.34377 " /><path d="M-1.25013, 2.1172 L-1.29901, 2.08757 " /><path d="M-1.69797, 1.77827 Q-1.78987, 1.69052 -1.87224, 1.59377 " /><path d="M-1.89249, 1.56967 C-2.27407, 1.11261 -2.47911, 0.513138 -2.45737, -0.081868  C-2.43954, -0.673439 -2.19794, -1.25456 -1.79112, -1.68441  C-1.4414, -2.05785 -0.972052, -2.31678 -0.469645, -2.41346  C-0.0598618, -2.49369 0.37022, -2.46679 0.766811, -2.3361 " /><path d="M0.96349, -2.26209 C1.38994, -2.08124 1.7627, -1.77662 2.02487, -1.39473  C2.3062, -0.987949 2.45967, -0.494579 2.45873, 0 " /></g>

</svg>
