<svg xmlns="http://www.w3.org/2000/svg" viewBox="-9.5684348 -9.2084648 31.4972596 24.2405896">
<rect width="100%" height="100%" fill="white"/>
<g   fill="none"
   stroke="rgb(0, 0, 0)"
   stroke-linecap="butt"
   stroke-linejoin="miter"
   stroke-width="0.35"
   transform="scale(1, -1)"
  >
<path d="M-0.930901, 3.72424 C-0.930044, 3.2019 -1.04876, 2.59459 -1.27674, 1.99034  C-1.65969, 0.958819 -2.36934, -0.0504308 -3.14341, -0.675254  C-3.65606, -1.09562 -4.18943, -1.3426 -4.62601, -1.39702  C-4.9528, -1.43901 -5.21996, -1.38521 -5.43698, -1.26036 " /><path d="M-1.62698, 5.33875 C-1.50176, 5.26713 -1.39034, 5.16756 -1.29274, 5.04005  C-1.07296, 4.75485 -0.929436, 4.29621 -0.930901, 3.72424 " /><path d="M4.85412, 2.91642 C4.85826, 1.4102 4.33501, -0.357655 3.43249, -1.92833  C2.53212, -3.50844 1.26343, -4.86488 -0.0473459, -5.6321  C-0.833573, -6.09566 -1.63454, -6.35403 -2.38027, -6.36777  C-2.93291, -6.37886 -3.45532, -6.25338 -3.90387, -5.99498  C-4.35052, -5.73895 -4.72019, -5.35372 -4.98794, -4.87455  C-5.29548, -4.32603 -5.47222, -3.65559 -5.51637, -2.91168 " /><path d="M-0.202079, 6.2503 C0.452082, 6.57278 1.10814, 6.74878 1.72548, 6.75693  C2.27609, 6.76499 2.79616, 6.63699 3.24231, 6.37693  C3.53757, 6.20465 3.79556, 5.98122 4.01629, 5.70666  C4.57262, 5.0162 4.85528, 4.03533 4.85412, 2.91642 " /><path id= "5" d=" M 7.00933 -0.380667 L 6.86361 -0.29653 " />
<path id= "6" d=" M 6.1696 0.104156 L 4.61334 1.00266 " />
<path id= "7" d=" M 3.38532 -5.62069 L 1.43835 -4.4966 " />
<path id= "8" d=" M 7.90736 -0.899142 L 7.79507 -0.834309 " />
<path id= "9" d=" M 4.28335 -6.13917 L 4.17105 -6.07433 " />
<path id= "10" d=" M 8.80539 -1.41762 L 8.69309 -1.35279 " />
<path id= "11" d=" M 5.18137 -6.65764 L 5.06908 -6.59281 " />
<path id= "12" d=" M 9.70341 -1.93609 L 9.59112 -1.87126 " />
<path id= "13" d=" M 6.0794 -7.17612 L 5.96711 -7.11128 " />
<path id= "14" d=" M 10.6014 -2.45457 L 10.4891 -2.38974 " />
<path id= "15" d=" M 6.97742 -7.69459 L 6.86513 -7.62976 " />
<path id= "16" d=" M 11.4995 -2.97304 L 11.3872 -2.90822 " />
<path id= "17" d=" M 7.87545 -8.21307 L 7.76316 -8.14824 " />
<path id= "18" d=" M 12.3975 -3.49152 L 12.2852 -3.42669 " />
<path id= "19" d=" M 8.77348 -8.73154 L 8.66119 -8.66671 " />
<path id= "20" d=" M 13.2955 -4.00999 L 13.1832 -3.94517 " />
<path id= "21" d=" M 9.6715 -9.25002 L 9.55922 -9.18519 " />
<path id= "22" d=" M 14.1935 -4.52847 L 14.0813 -4.46365 " />
<path id= "23" d=" M 10.5695 -9.76849 L 10.4572 -9.70367 " />
<path id= "24" d=" M 15.0916 -5.04694 L 14.9793 -4.98212 " />
<path id= "25" d=" M 11.4676 -10.287 L 11.3553 -10.2221 " />
<path id= "26" d=" M 15.9896 -5.56542 L 15.8773 -5.5006 " />
<path id= "27" d=" M 12.3656 -10.8054 L 12.2533 -10.7406 " />
<path id= "28" d=" M 16.8876 -6.08389 L 16.7753 -6.01908 " />
<path id= "29" d=" M 13.2636 -11.3239 L 13.1513 -11.2591 " />
<path id= "30" d=" M 17.7856 -6.60237 L 17.6734 -6.53755 " />
<path id= "31" d=" M 14.1616 -11.8424 L 14.0494 -11.7776 " />
<path id= "32" d=" M 18.6837 -7.12084 L 18.5714 -7.05603 " />
<path id= "33" d=" M 15.0597 -12.3609 L 14.9474 -12.2961 " />
<path id= "34" d=" M 15.924 -12.8599 L 15.8454 -12.8145 " />
<path id= "35" d=" M 17.9605 -12.4434 L 17.9598 -12.4438 " />
</g>
<g   fill="none"
   stroke="rgb(0, 0, 0)"
   stroke-linecap="butt"
   stroke-linejoin="miter"
   stroke-width="0.35"
   transform="scale(1, -1)"
  >
<path d="M-0.388895 4.11309 A4.7625 2.74963 60 0 1 -0.840067 5.79689" />
<path d="M-0.840067 1.90833 A4.7625 2.74963 60 0 1 -0.388895 4.11309" />
<path d="M-3.75649 -1.71975 A4.7625 2.74963 60 0 1 -0.840067 1.90833" />
<path d="M-6.67291 -1.45927 A4.7625 2.74963 60 0 1 -3.75649 -1.71975" />
<path d="M-6.67291 2.4293 A4.7625 2.74963 60 0 1 -6.67291 -1.45927" />
<path d="M-3.75649 6.05738 A4.7625 2.74963 60 0 1 -6.67291 2.4293" />
<path d="M-0.840067 5.79689 A4.7625 2.74963 60 0 1 -3.75649 6.05738" />
<path d="M-0.840067, 5.79689 C-0.530919, 5.35774 -0.143853, 4.87377 0.380922, 4.2702 " /><path d="M-3.75649, 6.05738 C-3.13898, 6.41299 -2.44373, 6.7233 -1.56336, 7.03624 " /><path d="M-1.56336, 7.03624 C-1.37694, 6.62802 -1.14765, 6.23514 -0.840067, 5.79689 " /><path d="M-6.67291, 2.4293 C-6.36377, 3.22361 -5.9767, 3.97235 -5.45193, 4.79117 " /><path d="M-5.45193, 4.79117 C-4.90991, 5.29945 -4.37244, 5.70085 -3.75649, 6.05738 " /><path d="M-6.67291, -1.45927 C-6.9805, -1.02103 -7.20979, -0.62814 -7.39621, -0.219926 " /><path d="M-7.39621, -0.219926 C-7.20979, 0.794247 -6.9805, 1.63408 -6.67291, 2.4293 " /><path d="M-5.45193, -2.98596 C-5.9767, -2.38239 -6.36377, -1.89842 -6.67291, -1.45927 " /><path d="M-3.75649, -1.71975 C-4.37244, -2.07628 -4.90991, -2.47768 -5.45193, -2.98596 " /><path d="M-1.56336, -0.740894 C-2.44373, -1.05383 -3.13898, -1.36414 -3.75649, -1.71975 " /><path d="M-0.840067, 1.90833 C-1.14765, 1.11311 -1.37694, 0.273278 -1.56336, -0.740894 " /><path d="M0.380922, 4.2702 C-0.143853, 3.45138 -0.530919, 2.70264 -0.840067, 1.90833 " /><path d="M0.850747, 5.64245 Q0.892798, 5.55489 0.934849, 5.46732  Q1.0229, 5.29321 1.12071, 5.11897  Q1.22151, 4.94423 1.33399, 4.766  Q1.39326, 4.67553 1.45253, 4.58507  Q1.51624, 4.49238 1.57996, 4.39969  Q1.64851, 4.30421 1.71706, 4.20873  Q1.79087, 4.10986 1.86469, 4.011  Q1.94421, 3.90815 2.02374, 3.8053  Q2.10947, 3.69782 2.1952, 3.59034  Q2.28767, 3.47758 2.38013, 3.36482  Q2.4799, 3.24607 2.57966, 3.12733  Q2.68735, 3.00187 2.79503, 2.87642 " /><path id= "21" d=" M 2.79503 2.87642 L 0.380922 4.2702 " />
<path id= "22" d=" M 0.850747 5.64245 L -1.56336 7.03624 " />
<path id= "23" d=" M -3.03782 -4.37974 L -5.45193 -2.98596 " />
<path d="M0.850747, -2.13468 L0.485646, -2.26969  L0.141446, -2.40506  L-0.183974, -2.54163  L-0.492619, -2.68024  L-0.786389, -2.82175  L-1.0671, -2.96702  L-1.33647, -3.11696  L-1.59616, -3.27248  L-1.84779, -3.43454  L-2.09288, -3.60415  L-2.33297, -3.78235  L-2.56951, -3.97023  L-2.80398, -4.16895  L-3.03782, -4.37974 " /><path id= "25" d=" M 0.850747 -2.13468 L -1.56336 -0.740894 " />
<path d="M2.79503, 2.87642 L2.57966, 2.52839  L2.38013, 2.18721  L2.1952, 1.85077  L2.02374, 1.517  L1.86469, 1.18383  L1.71706, 0.849231  L1.57996, 0.511125  L1.45253, 0.167433  L1.33399, -0.183962  L1.22361, -0.545225  L1.12071, -0.918582  L1.02465, -1.30633  L0.934849, -1.71087  L0.850747, -2.13468 " /><path d="M6.88113, -1.38044 C6.92318, -2.11351 6.69561, -2.99628 6.2808, -3.76303  C6.02306, -4.24337 5.69642, -4.67688 5.34575, -5.00997  C5.11127, -5.23243 4.87407, -5.40647 4.63417, -5.53207  C4.16186, -5.78045 3.71087, -5.81084 3.38532, -5.62069 " /><path d="M7.00933, -0.380667 C7.46464, -0.639643 7.74413, -1.19635 7.77915, -1.89892 " /><path d="M6.88113, -1.38044 C6.85062, -0.679686 6.59061, -0.134563 6.1696, 0.104156 " /><path d="M6.46156, -0.138896 Q6.67778, -0.189439 6.86361, -0.29653 " /><path d="M6.86361, -0.29653 C7.34122, -0.56789 7.63637, -1.12983 7.66685, -1.83408 " /><path d="M7.77915, -1.89892 C7.82121, -2.63199 7.59364, -3.51475 7.17883, -4.2815  C6.9211, -4.76184 6.59445, -5.19535 6.24378, -5.52844  C6.00931, -5.75089 5.77213, -5.92492 5.53223, -6.05052  C5.05992, -6.29893 4.60891, -6.32932 4.28335, -6.13917 " /><path d="M7.90736, -0.899142 C8.36266, -1.15812 8.64215, -1.71482 8.67718, -2.41739 " /><path d="M7.66685, -1.83408 C7.69986, -2.42798 7.5595, -3.11991 7.28171, -3.76906  C7.06337, -4.28242 6.76151, -4.76731 6.41979, -5.16091  C6.12342, -5.50319 5.79787, -5.77642 5.47841, -5.95411  C4.98518, -6.23076 4.50996, -6.27257 4.17105, -6.07433 " /><path d="M4.17105, -6.07433 Q3.97062, -5.95826 3.83818, -5.74361 " /><path d="M7.36081, -0.679184 Q7.59619, -0.719653 7.79507, -0.834309 " /><path d="M7.79507, -0.834309 C8.25037, -1.09328 8.52985, -1.64999 8.56488, -2.35256 " /><path d="M7.66685, -1.83408 L6.90027, -1.95271 " /><path d="M6.90027, -1.95271 L6.86299, -1.95615 " /><path d="M8.67718, -2.41739 C8.71923, -3.15046 8.49167, -4.03322 8.07686, -4.79997  C7.81913, -5.2803 7.49248, -5.71382 7.14181, -6.0469  C6.90736, -6.26935 6.67019, -6.44337 6.4303, -6.56898  C5.95797, -6.8174 5.50696, -6.8478 5.18137, -6.65764 " /><path d="M8.80539, -1.41762 C9.26069, -1.67659 9.54018, -2.2333 9.5752, -2.93587 " /><path d="M8.56488, -2.35256 C8.59785, -2.94575 8.45787, -3.63674 8.18072, -4.28522  C7.96284, -4.79817 7.66155, -5.28281 7.32034, -5.67647  C7.02324, -6.02017 6.69667, -6.2945 6.37625, -6.4727  C5.88308, -6.74925 5.40795, -6.79102 5.06908, -6.59281 " /><path d="M5.06908, -6.59281 Q4.86865, -6.47674 4.7362, -6.26208 " /><path d="M8.25883, -1.19766 Q8.49422, -1.23813 8.69309, -1.35279 " /><path d="M8.69309, -1.35279 C9.1484, -1.61176 9.42787, -2.16847 9.46291, -2.87104 " /><path d="M9.5752, -2.93587 C9.61726, -3.66893 9.38969, -4.55169 8.97489, -5.31843  C8.71716, -5.79877 8.39051, -6.23228 8.03985, -6.56537  C7.8054, -6.7878 7.56825, -6.96182 7.32837, -7.08743  C6.85603, -7.33587 6.40498, -7.36628 6.0794, -7.17612 " /><path d="M9.70341, -1.93609 C10.1587, -2.19507 10.4382, -2.75177 10.4732, -3.45434 " /><path d="M9.46291, -2.87104 C9.49583, -3.46343 9.35628, -4.15336 9.07986, -4.80107  C8.86015, -5.31913 8.5553, -5.8084 8.21013, -6.20444  C7.91306, -6.54624 7.58694, -6.81862 7.26721, -6.99509  C6.77656, -7.26818 6.30436, -7.30852 5.96711, -7.11128 " /><path d="M5.96711, -7.11128 Q5.76667, -6.99522 5.63423, -6.78056 " /><path d="M9.15686, -1.71614 Q9.39224, -1.7566 9.59112, -1.87126 " /><path d="M9.59112, -1.87126 C10.0464, -2.13024 10.3259, -2.68695 10.3609, -3.38951 " /><path d="M10.4732, -3.45434 C10.5153, -4.1874 10.2877, -5.07016 9.87292, -5.8369  C9.61519, -6.31723 9.28855, -6.75075 8.93788, -7.08384  C8.70345, -7.30626 8.46631, -7.48027 8.22645, -7.60588  C7.75408, -7.85435 7.30301, -7.88476 6.97743, -7.69459 " /><path d="M10.6014, -2.45457 C11.0567, -2.71354 11.3362, -3.27025 11.3713, -3.97282 " /><path d="M10.3609, -3.38951 C10.3938, -3.98103 10.2547, -4.66979 9.97911, -5.31668  C9.76029, -5.83345 9.45672, -6.32174 9.11283, -6.71754  C8.81476, -7.06156 8.48722, -7.33569 8.16608, -7.5131  C7.67513, -7.7866 7.20258, -7.82711 6.86513, -7.62976 " /><path d="M6.86513, -7.62976 Q6.6647, -7.51369 6.53226, -7.29903 " /><path d="M10.0549, -2.23461 Q10.2903, -2.27508 10.4891, -2.38974 " /><path d="M10.4891, -2.38974 C10.9445, -2.64871 11.2239, -3.20542 11.259, -3.90799 " /><path d="M11.3713, -3.97282 C11.4133, -4.70588 11.1857, -5.58863 10.771, -6.35537  C10.5132, -6.8357 10.1866, -7.26921 9.83592, -7.6023  C9.60149, -7.82472 9.36435, -7.99873 9.1245, -8.12434  C8.65213, -8.37282 8.20105, -8.40324 7.87545, -8.21307 " /><path d="M11.4995, -2.97304 C11.9548, -3.23202 12.2343, -3.78872 12.2693, -4.49129 " /><path d="M11.259, -3.90799 C11.2918, -4.4985 11.1532, -5.18591 10.8785, -5.83183  C10.6587, -6.3521 10.3528, -6.84364 10.0063, -7.24122  C9.70929, -7.58302 9.38321, -7.85541 9.0635, -8.03192  C8.57276, -8.30511 8.10047, -8.3455 7.76316, -8.14824 " /><path d="M7.76316, -8.14824 Q7.56273, -8.03217 7.43028, -7.81751 " /><path d="M10.9529, -2.75309 Q11.1883, -2.79356 11.3872, -2.90822 " /><path d="M11.3872, -2.90822 C11.8425, -3.16719 12.122, -3.7239 12.157, -4.42647 " /><path d="M12.2693, -4.49129 C12.3113, -5.22435 12.0838, -6.10709 11.669, -6.87383  C11.4113, -7.35417 11.0846, -7.78768 10.734, -8.12077  C10.4995, -8.34317 10.2624, -8.51717 10.0226, -8.64278  C9.55019, -8.89129 9.09908, -8.92173 8.77348, -8.73154 " /><path d="M12.3975, -3.49152 C12.8528, -3.75049 13.1323, -4.3072 13.1673, -5.00977 " /><path d="M12.157, -4.42647 C12.1897, -5.01542 12.052, -5.70076 11.7787, -6.3452  C11.5601, -6.86387 11.2561, -7.35426 10.9113, -7.75172  C10.6153, -8.09391 10.2901, -8.36723 9.97084, -8.54522  C9.4768, -8.823 9.00062, -8.86527 8.66119, -8.66671 " /><path d="M8.66119, -8.66671 Q8.46076, -8.55065 8.32831, -8.33598 " /><path d="M11.8509, -3.27157 Q12.0863, -3.31203 12.2852, -3.42669 " /><path d="M12.2852, -3.42669 C12.7405, -3.68567 13.02, -4.24238 13.055, -4.94494 " /><path d="M13.1673, -5.00977 C13.2094, -5.74282 12.9818, -6.62556 12.567, -7.3923  C12.3093, -7.87263 11.9826, -8.30615 11.632, -8.63924  C11.3976, -8.86163 11.1605, -9.03563 10.9206, -9.16124  C10.4482, -9.40977 9.99712, -9.44021 9.6715, -9.25002 " /><path d="M13.2955, -4.00999 C13.7508, -4.26897 14.0303, -4.82567 14.0653, -5.52824 " /><path d="M13.055, -4.94494 C13.0877, -5.53284 12.9506, -6.21678 12.6782, -6.86021  C12.4595, -7.38032 12.1547, -7.87217 11.809, -8.27058  C11.5115, -8.61444 11.1845, -8.8887 10.8637, -9.06657  C10.3715, -9.34181 9.89748, -9.38303 9.55922, -9.18519 " /><path d="M9.55922, -9.18519 Q9.35878, -9.06912 9.22634, -8.85446 " /><path d="M12.749, -3.79004 Q12.9844, -3.83051 13.1832, -3.94517 " /><path d="M13.1832, -3.94517 C13.6385, -4.20414 13.918, -4.76086 13.9531, -5.46342 " /><path d="M14.0653, -5.52824 C14.1074, -6.26129 13.8798, -7.14403 13.465, -7.91076  C13.2073, -8.39109 12.8807, -8.8246 12.53, -9.15769  C12.2957, -9.38007 12.0586, -9.55406 11.8188, -9.67966  C11.3463, -9.92824 10.8952, -9.95869 10.5695, -9.76849 " /><path d="M14.1935, -4.52847 C14.6488, -4.78744 14.9283, -5.34415 14.9634, -6.04672 " /><path d="M13.9531, -5.46342 C13.9862, -6.05998 13.8444, -6.75545 13.5642, -7.40711  C13.3472, -7.91492 13.0485, -8.39448 12.7106, -8.78487  C12.4147, -9.12772 12.0894, -9.40176 11.77, -9.58044  C11.2748, -9.85975 10.7974, -9.90265 10.4572, -9.70367 " /><path d="M10.4572, -9.70367 Q10.2568, -9.5876 10.1244, -9.37293 " /><path d="M13.647, -4.30852 Q13.8824, -4.34899 14.0813, -4.46365 " /><path d="M14.0813, -4.46365 C14.5366, -4.72262 14.816, -5.27933 14.8511, -5.9819 " /><path d="M14.9634, -6.04672 C15.0054, -6.77976 14.7779, -7.66249 14.3631, -8.42923  C14.1054, -8.90956 13.7787, -9.34307 13.4281, -9.67616  C13.1937, -9.89852 12.9566, -10.0725 12.7168, -10.1981  C12.2444, -10.4467 11.7932, -10.4772 11.4676, -10.287 " /><path d="M15.0916, -5.04694 C15.5469, -5.30592 15.8264, -5.86262 15.8614, -6.5652 " /><path d="M14.8511, -5.9819 C14.8842, -6.57761 14.7428, -7.27195 14.4634, -7.92281  C14.2441, -8.43685 13.941, -8.92203 13.5983, -9.3153  C13.3012, -9.65711 12.9751, -9.92948 12.6554, -10.106  C12.1647, -10.379 11.6925, -10.4194 11.3553, -10.2221 " /><path d="M11.3553, -10.2221 Q11.1548, -10.1061 11.0224, -9.89141 " /><path d="M14.545, -4.827 Q14.7804, -4.86746 14.9793, -4.98212 " /><path d="M14.9793, -4.98212 C15.4346, -5.2411 15.7141, -5.79781 15.7491, -6.50037 " /><path d="M15.8614, -6.5652 C15.9034, -7.29824 15.6759, -8.18096 15.2611, -8.94769  C15.0034, -9.42802 14.6768, -9.86153 14.3261, -10.1946  C14.0918, -10.417 13.8547, -10.591 13.6149, -10.7166  C13.1424, -10.9652 12.6912, -10.9957 12.3656, -10.8054 " /><path d="M15.9896, -5.56542 C16.4449, -5.82439 16.7244, -6.3811 16.7594, -7.08367 " /><path d="M15.7491, -6.50037 C15.7821, -7.09426 15.6418, -7.78618 15.364, -8.43531  C15.1457, -8.94867 14.8438, -9.43356 14.5021, -9.82716  C14.2058, -10.1694 13.8803, -10.4425 13.5609, -10.6203  C13.0676, -10.897 12.5923, -10.9389 12.2533, -10.7406 " /><path d="M12.2533, -10.7406 Q12.0529, -10.6246 11.9204, -10.4099 " /><path d="M15.443, -5.34547 Q15.6784, -5.38594 15.8773, -5.5006 " /><path d="M15.8773, -5.5006 C16.3326, -5.75957 16.6121, -6.31628 16.6471, -7.01885 " /><path d="M16.7594, -7.08367 C16.8015, -7.81671 16.5739, -8.69943 16.1591, -9.46616  C15.9014, -9.94649 15.5748, -10.38 15.2241, -10.7131  C14.9898, -10.9354 14.7527, -11.1094 14.513, -11.235  C14.0405, -11.4837 13.5893, -11.5141 13.2636, -11.3239 " /><path d="M16.8876, -6.08389 C17.3429, -6.34287 17.6224, -6.89957 17.6574, -7.60215 " /><path d="M16.6471, -7.01885 C16.68, -7.60984 16.5412, -8.2979 16.266, -8.94428  C16.048, -9.45971 15.7456, -9.9469 15.403, -10.3423  C15.1051, -10.687 14.7775, -10.962 14.4562, -11.1402  C13.9639, -11.4157 13.4897, -11.457 13.1513, -11.2591 " /><path d="M13.1513, -11.2591 Q12.9509, -11.143 12.8184, -10.9284 " /><path d="M16.3411, -5.86395 Q16.5765, -5.90442 16.7753, -6.01908 " /><path d="M16.7753, -6.01908 C17.2306, -6.27805 17.5101, -6.83476 17.5452, -7.53733 " /><path d="M17.6574, -7.60215 C17.6995, -8.33518 17.4719, -9.21791 17.0572, -9.98463  C16.7994, -10.465 16.4728, -10.8985 16.1222, -11.2316  C15.8834, -11.4581 15.642, -11.6343 15.3979, -11.7603  C14.9301, -12.0028 14.4843, -12.0308 14.1616, -11.8424 " /><path d="M17.7856, -6.60237 C18.2409, -6.86134 18.5204, -7.41805 18.5555, -8.12062 " /><path d="M17.5452, -7.53733 C17.5779, -8.12717 17.4398, -8.81369 17.1657, -9.45897  C16.9475, -9.97574 16.6446, -10.4643 16.3011, -10.8607  C16.0024, -11.2063 15.674, -11.4818 15.3519, -11.6601  C14.8604, -11.9343 14.3872, -11.9751 14.0494, -11.7776 " /><path d="M14.0494, -11.7776 Q13.8489, -11.6615 13.7165, -11.4468 " /><path d="M17.2391, -6.38243 Q17.4745, -6.42289 17.6734, -6.53755 " /><path d="M17.6734, -6.53755 C18.1287, -6.79653 18.4082, -7.35324 18.4432, -8.0558 " /><path d="M18.5555, -8.12062 C18.5975, -8.85365 18.37, -9.73637 17.9552, -10.5031  C17.6975, -10.9834 17.3709, -11.4169 17.0202, -11.75  C16.7859, -11.9723 16.5489, -12.1463 16.3091, -12.2719  C15.8366, -12.5206 15.3853, -12.5511 15.0597, -12.3609 " /><path d="M18.6837, -7.12084 C19.139, -7.37982 19.4185, -7.93653 19.4535, -8.6391 " /><path d="M18.4432, -8.0558 C18.4761, -8.64731 18.337, -9.33605 18.0614, -9.98292  C17.8426, -10.4997 17.539, -10.9879 17.1952, -11.3837  C16.8972, -11.7276 16.5698, -12.0017 16.2488, -12.1792  C15.7577, -12.4529 15.2849, -12.4935 14.9474, -12.2961 " /><path d="M14.9474, -12.2961 Q14.7469, -12.18 14.6145, -11.9653 " /><path d="M18.1371, -6.9009 Q18.3725, -6.94137 18.5714, -7.05603 " /><path d="M18.5714, -7.05603 C19.0267, -7.315 19.3062, -7.87172 19.3412, -8.57428 " /><path d="M19.3412, -8.57428 C19.3739, -9.16263 19.2365, -9.84716 18.9638, -10.491  C18.7447, -11.0114 18.4396, -11.5034 18.0936, -11.9018  C17.7961, -12.2452 17.4693, -12.519 17.1488, -12.6965  C16.6569, -12.9712 16.1834, -13.0122 15.8454, -12.8145 " /><path d="M15.8454, -12.8145 Q15.645, -12.6985 15.5125, -12.4838 " /><path d="M15.924 -12.8599 A3.175 1.83309 60 0 1 16.3385 -12.9979" />
<path d="M19.4535, -8.6391 C19.4955, -9.37213 19.268, -10.2548 18.8532, -11.0216  C18.5955, -11.5019 18.2689, -11.9354 17.9182, -12.2685  C17.3853, -12.7784 16.8002, -13.0445 16.3385, -12.9979 " /><path d="M19.7566, -9.16743 C19.7578, -8.62521 19.597, -8.1691 19.3064, -7.89568 " /><path id= "117" d=" M 19.7566 -9.33256 L 19.7566 -9.16743 " />
<path d="M19.7566, -9.16743 C19.7587, -9.77763 19.5512, -10.4924 19.1995, -11.1083  C18.8674, -11.6963 18.4094, -12.1864 17.9598, -12.4438 " /><path d="M17.9598, -12.4438 L17.9473, -12.451 " /><path d="M17.9473, -12.451 Q17.8139, -12.5056 17.6854, -12.5345 " /><path d="M17.5768, -12.5568 L17.6854, -12.5345 " /><path d="M17.9598 -12.4438 A2.54 1.46647 60 0 1 17.9605 -12.4434" />
<path d="M17.9605 -12.4434 A2.54 1.46647 60 0 1 19.7566 -9.33256" />
</g>

</svg>
