<svg xmlns="http://www.w3.org/2000/svg" viewBox="-7.7694784 -9.3257684 35.6264768 18.6515368">
<rect width="100%" height="100%" fill="white"/>
<g   fill="none"
   stroke="rgb(0, 0, 0)"
   stroke-linecap="butt"
   stroke-linejoin="miter"
   stroke-width="0.35"
   transform="scale(1, -1)"
  >
<path id= "1" d=" M -5.31248 -4.7625 L -4.96056 -5.49926 " />
<path id= "2" d=" M -1.54649 -5.49926 L -0.907879 -6.86877 " />
<path d="M-0.907879, -6.86877 C-0.855628, -6.98202 -0.756858, -7.0726 -0.639528, -7.11489  C-0.528599, -7.15581 -0.402439, -7.15303 -0.293421, -7.10726  C-0.118849, -7.03722 0.00234206, -6.85558 0, -6.6675 " /><path d="M0.3175, -3.175 C0.147844, -3.17063 -0.0043749, -3.32284 0, -3.4925 " /><path id= "5" d=" M 7.19138 -3.175 L 0.3175 -3.175 " />
<path id= "6" d=" M 8.46138 -3.175 L 8.30257 -3.175 " />
<path d="M7.64667, 3.15582 L7.24665, 2.46686 " /><path d="M7.24665, 2.46686 Q7.23911, 2.45145 7.21073, 2.4282  Q7.16887, 2.39712 7.11205, 2.39599 " /><path d="M6.98155, 2.46337 L6.57858, 3.15588 " /><path d="M7.61655, -2.46336 L7.21358, -3.15588 " /><path id= "11" d=" M 9.73138 -3.175 L 9.57258 -3.175 " />
<path d="M8.28037, -3.15587 L7.87753, -2.46337 " /><path d="M8.91536, 3.15586 L8.51253, 2.46338 " /><path d="M8.25155, 2.46337 L7.84858, 3.15588 " /><path d="M8.88655, -2.46336 L8.48358, -3.15588 " /><path d="M7.87753, -2.46337 Q7.87132, -2.44991 7.84258, -2.42656  Q7.80206, -2.39708 7.74702, -2.39599  Q7.68785, -2.39747 7.64644, -2.4304  Q7.62201, -2.45175 7.61655, -2.46336 " /><path d="M8.51253, 2.46338 Q8.50632, 2.44992 8.47757, 2.42656  Q8.43707, 2.39709 8.38204, 2.39599 " /><path d="M7.11204, 2.39599 Q7.05287, 2.39747 7.01146, 2.43039  Q6.98701, 2.45175 6.98155, 2.46337 " /><path id= "19" d=" M 11.0014 -3.175 L 10.8426 -3.175 " />
<path d="M9.55038, -3.15587 L9.14753, -2.46337 " /><path d="M10.1854, 3.15586 L9.78253, 2.46337 " /><path d="M9.52155, 2.46337 L9.11858, 3.15588 " /><path d="M10.1565, -2.46336 L9.75358, -3.15588 " /><path d="M9.14753, -2.46337 Q9.14132, -2.44991 9.11257, -2.42656  Q9.07206, -2.39708 9.01701, -2.39598  Q8.95784, -2.39747 8.91644, -2.4304  Q8.89201, -2.45174 8.88655, -2.46336 " /><path d="M9.78253, 2.46337 Q9.77632, 2.44991 9.74757, 2.42656  Q9.70707, 2.39709 9.65203, 2.39599 " /><path d="M8.38204, 2.39599 Q8.32287, 2.39747 8.28145, 2.43039  Q8.25701, 2.45174 8.25155, 2.46337 " /><path id= "27" d=" M 12.2714 -3.175 L 12.1126 -3.175 " />
<path d="M10.8204, -3.15587 L10.4175, -2.46336 " /><path d="M11.4554, 3.15586 L11.0525, 2.46337 " /><path d="M10.7915, 2.46336 L10.3886, 3.15587 " /><path d="M11.4265, -2.46335 L11.0236, -3.15588 " /><path d="M10.4175, -2.46336 Q10.4113, -2.4499 10.3826, -2.42655  Q10.3421, -2.39708 10.287, -2.39598  Q10.2278, -2.39747 10.1864, -2.43039  Q10.162, -2.45174 10.1565, -2.46336 " /><path d="M11.0525, 2.46337 Q11.0463, 2.44991 11.0176, 2.42656  Q10.9771, 2.39709 10.922, 2.39598 " /><path d="M9.65203, 2.39599 Q9.59286, 2.39746 9.55145, 2.43039  Q9.527, 2.45174 9.52155, 2.46337 " /><path id= "35" d=" M 13.5414 -3.175 L 13.3826 -3.175 " />
<path d="M12.0904, -3.15587 L11.6875, -2.46336 " /><path d="M12.7254, 3.15586 L12.3225, 2.46336 " /><path d="M12.0615, 2.46336 L11.6586, 3.15587 " /><path d="M12.6965, -2.46335 L12.2936, -3.15588 " /><path d="M11.6875, -2.46336 Q11.6813, -2.4499 11.6526, -2.42655  Q11.6121, -2.39707 11.557, -2.39598  Q11.4978, -2.39746 11.4564, -2.43039  Q11.432, -2.45174 11.4265, -2.46335 " /><path d="M12.3225, 2.46336 Q12.3163, 2.4499 12.2876, 2.42655  Q12.2471, 2.39708 12.192, 2.39598 " /><path d="M10.922, 2.39598 Q10.8629, 2.39746 10.8214, 2.43038  Q10.797, 2.45174 10.7915, 2.46336 " /><path id= "43" d=" M 14.8114 -3.175 L 14.6526 -3.175 " />
<path d="M13.3604, -3.15587 L12.9575, -2.46336 " /><path d="M13.9954, 3.15586 L13.5925, 2.46336 " /><path d="M13.3315, 2.46336 L12.9286, 3.15587 " /><path d="M13.9665, -2.46335 L13.5636, -3.15588 " /><path d="M12.9575, -2.46336 Q12.9513, -2.4499 12.9226, -2.42654  Q12.882, -2.39707 12.827, -2.39597  Q12.7678, -2.39746 12.7264, -2.43039  Q12.702, -2.45173 12.6965, -2.46335 " /><path d="M13.5925, 2.46336 Q13.5863, 2.4499 13.5576, 2.42655  Q13.5171, 2.39708 13.462, 2.39598 " /><path d="M12.192, 2.39598 Q12.1329, 2.39746 12.0914, 2.43038  Q12.067, 2.45174 12.0615, 2.46336 " /><path id= "51" d=" M 16.0814 -3.175 L 15.9226 -3.175 " />
<path d="M14.6304, -3.15587 L14.2275, -2.46335 " /><path d="M15.2654, 3.15586 L14.8625, 2.46336 " /><path d="M14.6015, 2.46335 L14.1986, 3.15587 " /><path d="M15.2365, -2.46334 L14.8336, -3.15588 " /><path d="M14.2275, -2.46335 Q14.2213, -2.44989 14.1926, -2.42654  Q14.152, -2.39707 14.097, -2.39597  Q14.0378, -2.39746 13.9964, -2.43038  Q13.972, -2.45173 13.9665, -2.46335 " /><path d="M14.8625, 2.46336 Q14.8563, 2.4499 14.8276, 2.42654  Q14.7871, 2.39708 14.732, 2.39597 " /><path d="M13.462, 2.39598 Q13.4029, 2.39745 13.3614, 2.43038  Q13.337, 2.45173 13.3315, 2.46336 " /><path id= "59" d=" M 17.3514 -3.175 L 17.1926 -3.175 " />
<path d="M15.9004, -3.15587 L15.4975, -2.46335 " /><path d="M16.5354, 3.15586 L16.1325, 2.46335 " /><path d="M15.8715, 2.46335 L15.4686, 3.15587 " /><path d="M16.5065, -2.46334 L16.1036, -3.15588 " /><path d="M15.4975, -2.46335 Q15.4913, -2.44989 15.4626, -2.42654  Q15.422, -2.39706 15.367, -2.39597  Q15.3078, -2.39745 15.2664, -2.43038  Q15.242, -2.45173 15.2365, -2.46334 " /><path d="M16.1325, 2.46335 Q16.1263, 2.44989 16.0976, 2.42654  Q16.057, 2.39707 16.002, 2.39597 " /><path d="M14.732, 2.39597 Q14.6729, 2.39745 14.6314, 2.43037  Q14.607, 2.45173 14.6015, 2.46335 " /><path id= "67" d=" M 18.6214 -3.175 L 18.4626 -3.175 " />
<path d="M17.1704, -3.15587 L16.7675, -2.46334 " /><path d="M17.8054, 3.15586 L17.4025, 2.46335 " /><path d="M17.1415, 2.46335 L16.7386, 3.15587 " /><path d="M17.7765, -2.46334 L17.3736, -3.15587 " /><path d="M16.7675, -2.46334 Q16.7613, -2.44988 16.7326, -2.42653  Q16.692, -2.39706 16.637, -2.39596  Q16.5778, -2.39745 16.5364, -2.43038  Q16.512, -2.45173 16.5065, -2.46334 " /><path d="M17.4025, 2.46335 Q17.3963, 2.44989 17.3676, 2.42654  Q17.327, 2.39707 17.272, 2.39597 " /><path d="M16.002, 2.39597 Q15.9428, 2.39745 15.9014, 2.43037  Q15.877, 2.45173 15.8715, 2.46335 " /><path id= "75" d=" M 19.8914 -3.175 L 19.7326 -3.175 " />
<path d="M18.4404, -3.15587 L18.0375, -2.46334 " /><path d="M19.0754, 3.15586 L18.6725, 2.46335 " /><path d="M18.4115, 2.46334 L18.0086, 3.15587 " /><path d="M19.0465, -2.46333 L18.6436, -3.15587 " /><path d="M18.0375, -2.46334 Q18.0313, -2.44988 18.0026, -2.42653  Q17.962, -2.39705 17.907, -2.39596  Q17.8478, -2.39745 17.8064, -2.43037  Q17.782, -2.45172 17.7765, -2.46334 " /><path d="M18.6725, 2.46335 Q18.6663, 2.44988 18.6375, 2.42653  Q18.597, 2.39707 18.542, 2.39596 " /><path d="M17.272, 2.39597 Q17.2128, 2.39744 17.1714, 2.43037  Q17.147, 2.45172 17.1415, 2.46335 " /><path id= "83" d=" M 21.1614 -3.175 L 21.0026 -3.175 " />
<path d="M19.7104, -3.15587 L19.3075, -2.46334 " /><path d="M20.3454, 3.15586 L19.9425, 2.46334 " /><path d="M19.6815, 2.46334 L19.2786, 3.15587 " /><path d="M20.3165, -2.46333 L19.9136, -3.15587 " /><path d="M19.3075, -2.46334 Q19.3013, -2.44988 19.2725, -2.42653  Q19.232, -2.39705 19.177, -2.39596  Q19.1178, -2.39744 19.0764, -2.43037  Q19.052, -2.45172 19.0465, -2.46333 " /><path d="M19.9425, 2.46334 Q19.9363, 2.44988 19.9075, 2.42653  Q19.867, 2.39706 19.812, 2.39596 " /><path d="M18.542, 2.39596 Q18.4828, 2.39744 18.4414, 2.43036  Q18.417, 2.45172 18.4115, 2.46334 " /><path id= "91" d=" M 22.4314 -3.175 L 22.2726 -3.175 " />
<path d="M20.9804, -3.15587 L20.5775, -2.46333 " /><path d="M21.6154, 3.15586 L21.2125, 2.46334 " /><path d="M20.9515, 2.46334 L20.5486, 3.15587 " /><path d="M21.5865, -2.46333 L21.1836, -3.15587 " /><path d="M20.5775, -2.46333 Q20.5713, -2.44987 20.5425, -2.42652  Q20.502, -2.39705 20.447, -2.39595  Q20.3878, -2.39744 20.3464, -2.43037  Q20.322, -2.45172 20.3165, -2.46333 " /><path d="M21.2125, 2.46334 Q21.2063, 2.44987 21.1775, 2.42652  Q21.137, 2.39706 21.082, 2.39596 " /><path d="M19.812, 2.39596 Q19.7528, 2.39744 19.7114, 2.43036  Q19.687, 2.45172 19.6815, 2.46334 " /><path id= "99" d=" M 23.7014 -3.175 L 23.5426 -3.175 " />
<path d="M22.2504, -3.15587 L21.8475, -2.46333 " /><path d="M22.8854, 3.15586 L22.4825, 2.46333 " /><path d="M22.2215, 2.46333 L21.8186, 3.15587 " /><path d="M22.8565, -2.46332 L22.4536, -3.15587 " /><path d="M21.8475, -2.46333 Q21.8413, -2.44987 21.8125, -2.42652  Q21.772, -2.39704 21.717, -2.39595  Q21.6578, -2.39744 21.6164, -2.43036  Q21.592, -2.45171 21.5865, -2.46333 " /><path d="M22.4825, 2.46333 Q22.4763, 2.44987 22.4475, 2.42652  Q22.407, 2.39706 22.352, 2.39595 " /><path d="M21.082, 2.39596 Q21.0228, 2.39743 20.9814, 2.43036  Q20.957, 2.45171 20.9515, 2.46334 " /><path d="M23.5204, -3.15587 L23.1175, -2.46333 " /><path d="M24.1554, 3.15586 L23.7525, 2.46333 " /><path d="M23.4915, 2.46333 L23.0886, 3.15587 " /><path d="M24.1265, -2.46332 L23.7236, -3.15587 " /><path d="M23.1175, -2.46333 Q23.1113, -2.44986 23.0825, -2.42651  Q23.042, -2.39704 22.987, -2.39595  Q22.9278, -2.39743 22.8864, -2.43036  Q22.862, -2.45171 22.8565, -2.46332 " /><path d="M23.7525, 2.46333 Q23.7463, 2.44987 23.7175, 2.42652  Q23.677, 2.39705 23.622, 2.39595 " /><path d="M22.352, 2.39595 Q22.2928, 2.39743 22.2514, 2.43035  Q22.227, 2.45171 22.2215, 2.46333 " /><path d="M24.3875, -2.46332 L24.781, -3.13973 " /><path d="M25.0225, 2.46333 L25.1816, 2.73646 " /><path d="M24.7615, 2.46333 L24.3586, 3.15587 " /><path d="M25.3965, -2.46332 L25.3167, -2.6002 " /><path id= "118" d=" M 25.2533 -2.6867 L 24.7952 -3.14481 " />
<path d="M24.3875, -2.46332 Q24.3813, -2.44986 24.3525, -2.42651  Q24.312, -2.39704 24.257, -2.39594  Q24.1978, -2.39743 24.1564, -2.43036  Q24.132, -2.45171 24.1265, -2.46332 " /><path d="M25.0225, 2.46333 Q25.0163, 2.44986 24.9875, 2.42651  Q24.947, 2.39705 24.892, 2.39594 " /><path d="M23.622, 2.39595 Q23.5628, 2.39743 23.5214, 2.43035  Q23.497, 2.45171 23.4915, 2.46333 " /><path d="M24.892, 2.39594 Q24.8328, 2.39742 24.7914, 2.43035  Q24.767, 2.4517 24.7615, 2.46333 " /><path d="M25.3965, -2.46332 L25.4, -2.4579 " /></g>
<g   fill="none"
   stroke="rgb(0, 0, 0)"
   stroke-linecap="butt"
   stroke-linejoin="miter"
   stroke-width="0.35"
   transform="scale(1, -1)"
  >
<path d="M-5.31248, 4.1275 L-5.31248, 4.12445 " /><path d="M-5.31248, -4.12445 L-5.31248, -4.1275 " /><path d="M-5.31248, -4.1275 L-5.31248, -4.12445 " /><path d="M-5.31248, 4.12445 L-5.31248, 4.1275 " /><path d="M-5.31248, 4.12445 C-5.31248, 4.33154 -5.31248, 4.49181 -5.31248, 4.60022  C-5.31248, 4.70727 -5.31248, 4.76136 -5.31248, 4.7625 " /><path d="M-5.31248, -1.80811e-08 Q-5.31248, 0.535948 -5.31248, 1.05976  Q-5.31248, 1.40597 -5.31248, 1.73994  Q-5.31248, 1.90315 -5.31248, 2.06637  Q-5.31248, 2.22381 -5.31248, 2.38125  Q-5.31248, 2.53203 -5.31248, 2.68281  Q-5.31248, 2.82609 -5.31248, 2.96937  Q-5.31248, 3.10435 -5.31248, 3.23932  Q-5.31248, 3.36524 -5.31248, 3.49116  Q-5.31248, 3.60732 -5.31248, 3.72347  Q-5.31248, 3.82922 -5.31248, 3.93496  Q-5.31248, 4.0297 -5.31248, 4.12445 " /><path d="M-5.31248, -4.12445 Q-5.31248, -4.0297 -5.31248, -3.93496  Q-5.31248, -3.82922 -5.31248, -3.72347  Q-5.31248, -3.60732 -5.31248, -3.49116  Q-5.31248, -3.36524 -5.31248, -3.23932  Q-5.31248, -3.10435 -5.31248, -2.96937  Q-5.31248, -2.82609 -5.31248, -2.68281  Q-5.31248, -2.53203 -5.31248, -2.38125  Q-5.31248, -2.22381 -5.31248, -2.06637  Q-5.31248, -1.90315 -5.31248, -1.73994  Q-5.31248, -1.57185 -5.31248, -1.40377  Q-5.31248, -1.06142 -5.31248, -0.709814  Q-5.31248, -0.35646 -5.31248, -1.80811e-08 " /><path d="M-5.31248, -4.7625 C-5.31248, -4.76136 -5.31248, -4.70727 -5.31248, -4.60022  C-5.31248, -4.49181 -5.31248, -4.33154 -5.31248, -4.12445 " /><path id= "9" d=" M -5.31248 4.7625 L -4.96056 5.49926 " />
<path d="M-5.31248, -4.12445 C-5.31137, -4.56054 -5.19981, -4.99637 -4.96056, -5.49926 " /><path d="M-4.96056, -2.74963 C-5.19981, -3.25252 -5.31137, -3.68835 -5.31248, -4.12445 " /><path d="M-5.31248, -1.80811e-08 C-5.31137, -0.872189 -5.19981, -1.74385 -4.96056, -2.74963 " /><path d="M-4.96056, 2.74963 C-5.19981, 1.74385 -5.31137, 0.872189 -5.31248, -1.80811e-08 " /><path d="M-5.31248, 4.12445 C-5.31137, 3.68835 -5.19981, 3.25252 -4.96056, 2.74963 " /><path d="M-4.96056, 5.49926 C-5.19981, 4.99637 -5.31137, 4.56054 -5.31248, 4.12445 " /><path id= "16" d=" M -1.54649 5.49926 L -4.96056 5.49926 " />
<path id= "17" d=" M -1.54649 -5.49926 L -4.96056 -5.49926 " />
<path d="M-1.54649, -2.74963 L-1.63931, -2.96139  L-1.7169, -3.16598  L-1.77975, -3.36466  L-1.82823, -3.55867  L-1.86264, -3.74919  L-1.88321, -3.93739  L-1.89005, -4.12445  L-1.88321, -4.3115  L-1.86264, -4.49971  L-1.82823, -4.69022  L-1.77975, -4.88423  L-1.7169, -5.08291  L-1.63931, -5.28751  L-1.54649, -5.49926 " /><path id= "19" d=" M -1.54649 -2.74963 L -4.96056 -2.74963 " />
<path d="M-1.54649, 2.74963 L-1.63931, 2.32612  L-1.7169, 1.91694  L-1.77975, 1.51957  L-1.82823, 1.13156  L-1.86264, 0.750521  L-1.88321, 0.374108  L-1.89005, -1.27676e-15  L-1.88321, -0.374108  L-1.86264, -0.750521  L-1.82823, -1.13156  L-1.77975, -1.51957  L-1.7169, -1.91694  L-1.63931, -2.32612  L-1.54649, -2.74963 " /><path id= "21" d=" M -1.54649 2.74963 L -4.96056 2.74963 " />
<path d="M-1.54649, 5.49926 L-1.63931, 5.28751  L-1.7169, 5.08291  L-1.77975, 4.88423  L-1.82823, 4.69022  L-1.86264, 4.49971  L-1.88321, 4.3115  L-1.89005, 4.12445  L-1.88321, 3.93739  L-1.86264, 3.74919  L-1.82823, 3.55867  L-1.77975, 3.36466  L-1.7169, 3.16598  L-1.63931, 2.96139  L-1.54649, 2.74963 " /><path id= "23" d=" M -0.907879 6.86877 L -1.54649 5.49926 " />
<path d="M0, -6.6675 L0, -6.50033  L0, -6.00721  L0, -5.21286  L0, -4.15712  L0, -2.89292  L0, -1.48366  L0, -1.33227e-15  L0, 1.48366  L0, 2.89292  L0, 4.15712  L0, 5.21286  L0, 6.00721  L0, 6.50033  L0, 6.6675 " /><path d="M0 6.6675 A0.47625 0.47625 0 0 1 -0.907879 6.86877" /><path d="M0.3175 3.175 A0.3175 0.3175 0 0 0 0 3.4925" /><path id= "27" d=" M 7.82638 3.175 L 7.66757 3.175 " />
<path d="M6.55638, 3.175 Q6.56748, 3.17499 6.57858, 3.15588 " /><path d="M6.57858, 3.15588 C6.62662, 3.07542 6.67464, 2.71488 6.72268, 2.15972  C6.78035, 1.49756 6.83803, 0.559891 6.8957, -0.341998  C6.94071, -1.04566 6.98573, -1.72015 7.03074, -2.22391  C7.08429, -2.82759 7.13783, -3.17853 7.19138, -3.175 " /><path d="M7.19138, -3.175 Q7.20248, -3.17499 7.21358, -3.15588 " /><path id= "31" d=" M 6.55638 3.175 L 0.3175 3.175 " />
<path d="M7.64667, 3.15582 Q7.65777, 3.17499 7.66757, 3.175 " /><path id= "33" d=" M 9.09638 3.175 L 8.93757 3.175 " />
<path d="M7.82638, 3.175 Q7.83748, 3.17499 7.84858, 3.15588 " /><path d="M7.84858, 3.15588 C7.89662, 3.07542 7.94464, 2.71488 7.99268, 2.15973  C8.05035, 1.49758 8.10802, 0.559938 8.16569, -0.341935  C8.20991, -1.0331 8.25413, -1.69628 8.29834, -2.1969  C8.35269, -2.81676 8.40703, -3.17874 8.46138, -3.175 " /><path d="M8.46138, -3.175 Q8.47248, -3.17499 8.48358, -3.15588 " /><path d="M7.66757, 3.175 C7.71247, 3.17678 7.75738, 2.93337 7.80228, 2.49561  C7.8686, 1.85571 7.93492, 0.787656 8.00123, -0.253592  C8.04461, -0.933365 8.08799, -1.59272 8.13137, -2.10258  C8.18103, -2.68955 8.23071, -3.07288 8.28037, -3.15587 " /><path d="M8.28037, -3.15587 Q8.29147, -3.17499 8.30257, -3.175 " /><path d="M8.91536, 3.15586 Q8.92647, 3.17499 8.93757, 3.175 " /><path d="M7.66757, 3.175 L7.2708, 2.48766 " /><path d="M7.2708, 2.48766 C7.23918, 2.43171 7.17631, 2.39541 7.11205, 2.39599 " /><path d="M7.11205, 2.39599 L7.11204, 2.39599 " /><path id= "43" d=" M 10.3664 3.175 L 10.2076 3.175 " />
<path d="M9.09638, 3.175 Q9.10748, 3.17499 9.11858, 3.15588 " /><path d="M9.11858, 3.15588 C9.16661, 3.07542 9.21464, 2.71488 9.26267, 2.15974  C9.32035, 1.4976 9.37802, 0.559989 9.43569, -0.341866  C9.48355, -1.09029 9.53142, -1.80499 9.57928, -2.31767  C9.62998, -2.86472 9.68068, -3.17786 9.73138, -3.175 " /><path d="M9.73138, -3.175 Q9.74248, -3.17499 9.75358, -3.15588 " /><path d="M8.93757, 3.175 C8.98242, 3.17677 9.02727, 2.93396 9.07212, 2.49716  C9.1385, 1.85735 9.20488, 0.788304 9.27125, -0.253883  C9.3147, -0.934752 9.35815, -1.5951 9.4016, -2.10527  C9.45119, -2.69074 9.50079, -3.073 9.55038, -3.15587 " /><path d="M9.55038, -3.15587 Q9.56148, -3.17499 9.57258, -3.175 " /><path d="M10.1854, 3.15586 Q10.1965, 3.17499 10.2076, 3.175 " /><path id= "50" d=" M 11.6364 3.175 L 11.4776 3.175 " />
<path d="M10.3664, 3.175 Q10.3775, 3.17499 10.3886, 3.15587 " /><path d="M10.3886, 3.15587 C10.4366, 3.07542 10.4846, 2.71488 10.5327, 2.15974  C10.5903, 1.49763 10.648, 0.560041 10.7057, -0.341797  C10.7508, -1.04699 10.7959, -1.72289 10.841, -2.22703  C10.8945, -2.82884 10.9479, -3.1785 11.0014, -3.175 " /><path d="M11.0014, -3.175 Q11.0125, -3.17499 11.0236, -3.15588 " /><path d="M10.2076, 3.175 C10.2524, 3.17677 10.2972, 2.93462 10.3419, 2.49892  C10.4086, 1.85713 10.4753, 0.781885 10.5419, -0.264552  C10.585, -0.938853 10.628, -1.59234 10.6711, -2.09895  C10.7208, -2.68793 10.7706, -3.07273 10.8204, -3.15587 " /><path d="M10.8204, -3.15587 Q10.8315, -3.17499 10.8426, -3.175 " /><path d="M11.4554, 3.15586 Q11.4665, 3.17499 11.4776, 3.175 " /><path id= "57" d=" M 12.9064 3.175 L 12.7476 3.175 " />
<path d="M11.6364, 3.175 Q11.6475, 3.17499 11.6586, 3.15587 " /><path d="M11.6586, 3.15587 C11.7066, 3.07542 11.7546, 2.71488 11.8027, 2.15975  C11.8603, 1.49765 11.918, 0.560094 11.9757, -0.341725  C12.0199, -1.03261 12.0641, -1.69556 12.1083, -2.19613  C12.1626, -2.81646 12.217, -3.17874 12.2714, -3.175 " /><path d="M12.2714, -3.175 Q12.2825, -3.17499 12.2936, -3.15588 " /><path d="M11.4776, 3.175 C11.5223, 3.17676 11.567, 2.93535 11.6118, 2.50084  C11.6785, 1.8595 11.7452, 0.783821 11.8119, -0.263276  C11.8549, -0.936892 11.8979, -1.58983 11.9409, -2.09639  C11.9907, -2.6868 12.0405, -3.07262 12.0904, -3.15587 " /><path d="M12.0904, -3.15587 Q12.1015, -3.17499 12.1126, -3.175 " /><path d="M12.7254, 3.15586 Q12.7365, 3.17499 12.7476, 3.175 " /><path id= "64" d=" M 14.1764 3.175 L 14.0176 3.175 " />
<path d="M12.9064, 3.175 Q12.9175, 3.17499 12.9286, 3.15587 " /><path d="M12.9286, 3.15587 C12.9766, 3.07542 13.0246, 2.71489 13.0727, 2.15976  C13.1303, 1.49767 13.188, 0.560129 13.2457, -0.341678  C13.2906, -1.04377 13.3355, -1.71687 13.3804, -2.22029  C13.4341, -2.82614 13.4877, -3.17855 13.5414, -3.175 " /><path d="M13.5414, -3.175 Q13.5525, -3.17499 13.5636, -3.15588 " /><path d="M12.7476, 3.175 C12.7922, 3.17674 12.8369, 2.93619 12.8815, 2.50307  C12.9483, 1.86176 13.0151, 0.784401 13.0819, -0.264193  C13.125, -0.938316 13.168, -1.59166 13.211, -2.09826  C13.2608, -2.68763 13.3106, -3.0727 13.3604, -3.15587 " /><path d="M13.3604, -3.15587 Q13.3715, -3.17499 13.3826, -3.175 " /><path d="M13.9954, 3.15586 Q14.0065, 3.17499 14.0176, 3.175 " /><path id= "71" d=" M 15.4464 3.175 L 15.2876 3.175 " />
<path d="M14.1764, 3.175 Q14.1875, 3.17499 14.1986, 3.15587 " /><path d="M14.1986, 3.15587 C14.2466, 3.07541 14.2946, 2.71489 14.3427, 2.15977  C14.4003, 1.4977 14.458, 0.560195 14.5157, -0.341589  C14.5598, -1.03205 14.604, -1.69462 14.6482, -2.19511  C14.7026, -2.81604 14.757, -3.17875 14.8114, -3.175 " /><path d="M14.8114, -3.175 Q14.8225, -3.17499 14.8336, -3.15588 " /><path d="M14.0176, 3.175 C14.0621, 3.17673 14.1066, 2.93748 14.1512, 2.50647  C14.2178, 1.86834 14.2844, 0.795991 14.351, -0.250133  C14.3943, -0.928584 14.4376, -1.58696 14.4809, -2.09688  C14.5307, -2.68701 14.5806, -3.07264 14.6304, -3.15587 " /><path d="M14.6304, -3.15587 Q14.6415, -3.17499 14.6526, -3.175 " /><path d="M15.2654, 3.15586 Q15.2765, 3.17499 15.2876, 3.175 " /><path id= "78" d=" M 16.7164 3.175 L 16.5576 3.175 " />
<path d="M15.4464, 3.175 Q15.4575, 3.17499 15.4686, 3.15587 " /><path d="M15.4686, 3.15587 C15.5166, 3.07541 15.5646, 2.71489 15.6127, 2.15977  C15.6703, 1.49771 15.728, 0.560232 15.7857, -0.341539  C15.8308, -1.04646 15.8759, -1.72213 15.9209, -2.22626  C15.9744, -2.82853 16.0279, -3.17851 16.0814, -3.175 " /><path d="M16.0814, -3.175 Q16.0925, -3.17499 16.1036, -3.15588 " /><path d="M15.2876, 3.175 C15.332, 3.17671 15.3765, 2.93836 15.4209, 2.50878  C15.4878, 1.86932 15.5547, 0.791873 15.6215, -0.257927  C15.6645, -0.930979 15.7074, -1.58378 15.7504, -2.09088  C15.8004, -2.68435 15.8504, -3.07239 15.9004, -3.15587 " /><path d="M15.9004, -3.15587 Q15.9115, -3.17499 15.9226, -3.175 " /><path d="M16.5354, 3.15586 Q16.5465, 3.17499 16.5576, 3.175 " /><path id= "85" d=" M 17.9864 3.175 L 17.8276 3.175 " />
<path d="M16.7164, 3.175 Q16.7275, 3.17499 16.7386, 3.15587 " /><path d="M16.7386, 3.15587 C16.7866, 3.07541 16.8346, 2.7149 16.8827, 2.15979  C16.9403, 1.49776 16.998, 0.560339 17.0557, -0.341396  C17.0999, -1.03308 17.1442, -1.69678 17.1884, -2.19761  C17.2427, -2.81705 17.2971, -3.17873 17.3514, -3.175 " /><path d="M17.3514, -3.175 Q17.3625, -3.17499 17.3736, -3.15587 " /><path d="M16.5576, 3.175 C16.6027, 3.17681 16.6478, 2.93114 16.6929, 2.48974  C16.7589, 1.85095 16.8248, 0.790075 16.8907, -0.245465  C16.9341, -0.924938 16.9774, -1.58461 17.0208, -2.09549  C17.0707, -2.6864 17.1205, -3.07258 17.1704, -3.15587 " /><path d="M17.1704, -3.15587 Q17.1815, -3.17499 17.1926, -3.175 " /><path d="M17.8054, 3.15586 Q17.8165, 3.17499 17.8276, 3.175 " /><path id= "92" d=" M 19.2564 3.175 L 19.0976 3.175 " />
<path d="M17.9864, 3.175 Q17.9975, 3.17499 18.0086, 3.15587 " /><path d="M18.0086, 3.15587 C18.0566, 3.07541 18.1046, 2.7149 18.1527, 2.15979  C18.2103, 1.49778 18.268, 0.560388 18.3257, -0.34133  C18.3699, -1.0328 18.4141, -1.69631 18.4584, -2.1971  C18.5127, -2.81684 18.567, -3.17873 18.6214, -3.175 " /><path d="M18.6214, -3.175 Q18.6325, -3.17499 18.6436, -3.15587 " /><path d="M17.8276, 3.175 C17.8726, 3.1768 17.9177, 2.93185 17.9627, 2.49161  C18.0291, 1.84912 18.0955, 0.777897 18.162, -0.264562  C18.205, -0.938869 18.248, -1.59236 18.2911, -2.09897  C18.3409, -2.68795 18.3906, -3.07274 18.4404, -3.15587 " /><path d="M18.4404, -3.15587 Q18.4515, -3.17499 18.4626, -3.175 " /><path d="M19.0754, 3.15586 Q19.0865, 3.17499 19.0976, 3.175 " /><path id= "99" d=" M 20.5264 3.175 L 20.3676 3.175 " />
<path d="M19.2564, 3.175 Q19.2675, 3.17499 19.2786, 3.15587 " /><path d="M19.2786, 3.15587 C19.3266, 3.07541 19.3746, 2.7149 19.4227, 2.1598  C19.4803, 1.49781 19.538, 0.560453 19.5956, -0.341242  C19.6404, -1.04135 19.6852, -1.71269 19.73, -2.21569  C19.7838, -2.8243 19.8376, -3.17859 19.8914, -3.175 " /><path d="M19.8914, -3.175 Q19.9025, -3.17499 19.9136, -3.15587 " /><path d="M19.0976, 3.175 C19.1425, 3.17678 19.1874, 2.93338 19.2323, 2.49563  C19.2986, 1.85582 19.3649, 0.787952 19.4312, -0.253185  C19.4745, -0.931187 19.5178, -1.58893 19.561, -2.09828  C19.6108, -2.68764 19.6606, -3.07271 19.7104, -3.15587 " /><path d="M19.7104, -3.15587 Q19.7215, -3.17499 19.7326, -3.175 " /><path d="M20.3454, 3.15586 Q20.3565, 3.17499 20.3676, 3.175 " /><path id= "106" d=" M 21.7964 3.175 L 21.6376 3.175 " />
<path d="M20.5264, 3.175 Q20.5375, 3.17499 20.5486, 3.15587 " /><path d="M20.5486, 3.15587 C20.5966, 3.07541 20.6446, 2.7149 20.6927, 2.15981  C20.7503, 1.49783 20.808, 0.560484 20.8656, -0.341201  C20.9135, -1.08921 20.9613, -1.8036 21.0092, -2.31633  C21.0599, -2.86419 21.1106, -3.17786 21.1614, -3.175 " /><path d="M21.1614, -3.175 Q21.1725, -3.17499 21.1836, -3.15587 " /><path d="M20.3676, 3.175 C20.4123, 3.17675 20.457, 2.93579 20.5017, 2.502  C20.5683, 1.86198 20.6349, 0.7886 20.7015, -0.257284  C20.7448, -0.936067 20.7881, -1.59423 20.8315, -2.10327  C20.8811, -2.68986 20.9308, -3.07292 20.9804, -3.15587 " /><path d="M20.9804, -3.15587 Q20.9915, -3.17499 21.0026, -3.175 " /><path d="M21.6154, 3.15586 Q21.6265, 3.17499 21.6376, 3.175 " /><path id= "113" d=" M 23.0664 3.175 L 22.9076 3.175 " />
<path d="M21.7964, 3.175 Q21.8075, 3.17499 21.8186, 3.15587 " /><path d="M21.8186, 3.15587 C21.8666, 3.07541 21.9146, 2.7149 21.9627, 2.15981  C22.0207, 1.493 22.0788, 0.546659 22.1369, -0.361012  C22.1807, -1.04461 22.2244, -1.6995 22.2682, -2.19533  C22.3226, -2.81613 22.377, -3.17875 22.4314, -3.175 " /><path d="M22.4314, -3.175 Q22.4425, -3.17499 22.4536, -3.15587 " /><path d="M21.6376, 3.175 C21.6822, 3.17674 21.7268, 2.93675 21.7714, 2.50453  C21.8382, 1.86403 21.905, 0.787471 21.9717, -0.260919  C22.0146, -0.932059 22.0574, -1.58287 22.1002, -2.08894  C22.1503, -2.68349 22.2004, -3.07231 22.2504, -3.15587 " /><path d="M22.2504, -3.15587 Q22.2615, -3.17499 22.2726, -3.175 " /><path d="M22.8854, 3.15586 Q22.8965, 3.17499 22.9076, 3.175 " /><path id= "120" d=" M 24.3364 3.175 L 24.1776 3.175 " />
<path d="M23.0664, 3.175 Q23.0775, 3.17499 23.0886, 3.15587 " /><path d="M23.0886, 3.15587 C23.1366, 3.07541 23.1846, 2.71491 23.2327, 2.15982  C23.2903, 1.49788 23.348, 0.560591 23.4056, -0.341057  C23.4507, -1.04636 23.4959, -1.72241 23.541, -2.22669  C23.5944, -2.8287 23.6479, -3.17851 23.7014, -3.175 " /><path d="M23.7014, -3.175 Q23.7125, -3.17499 23.7236, -3.15587 " /><path d="M22.9076, 3.175 C22.9523, 3.17676 22.9971, 2.93536 23.0418, 2.50088  C23.1085, 1.85966 23.1752, 0.784281 23.2419, -0.262637  C23.2848, -0.935853 23.3278, -1.58847 23.3708, -2.09498  C23.4206, -2.68618 23.4705, -3.07257 23.5204, -3.15587 " /><path d="M23.5204, -3.15587 Q23.5315, -3.17499 23.5426, -3.175 " /><path d="M24.1554, 3.15586 Q24.1665, 3.17499 24.1776, 3.175 " /><path d="M24.1776, 3.175 C24.2221, 3.17672 24.2666, 2.93798 24.3111, 2.5078  C24.3779, 1.86789 24.4448, 0.79013 24.5117, -0.259667  C24.5543, -0.928162 24.597, -1.57661 24.6397, -2.08196  C24.6814, -2.57856 24.7232, -2.93535 24.765, -3.0873 " /><path d="M24.765, -3.0873 Q24.765, -3.06409 24.765, -3.04089  Q24.765, -3.0129 24.765, -2.98491  Q24.765, -2.95222 24.765, -2.91953  Q24.765, -2.88225 24.765, -2.84497  Q24.765, -2.80321 24.765, -2.76146  Q24.765, -2.71536 24.765, -2.66926  Q24.765, -2.61895 24.765, -2.56865  Q24.765, -2.51431 24.765, -2.45997  Q24.765, -2.34561 24.765, -2.21974  Q24.765, -2.0908 24.765, -1.9516  Q24.765, -1.8097 24.765, -1.65891 " /><path d="M24.3364, 3.175 Q24.3475, 3.17499 24.3586, 3.15587 " /><path d="M24.3586, 3.15587 C24.4066, 3.07541 24.4546, 2.71491 24.5027, 2.15983  C24.5374, 1.76066 24.5721, 1.26404 24.6068, 0.733453  C24.6595, -0.0730194 24.7123, -0.953209 24.765, -1.65891 " /><path d="M25.1978, 2.74223 Q25.1897, 2.75034 25.1816, 2.73646 " /><path d="M24.7952, -3.14481 Q24.7881, -3.15189 24.781, -3.13973 " /><path d="M24.781, -3.13973 Q24.773, -3.12586 24.765, -3.0873 " /><path d="M24.765, -1.65891 C24.8684, -2.1916 24.9756, -2.56283 25.0875, -2.68276  C25.1416, -2.74185 25.1969, -2.74316 25.2533, -2.6867 " /><path d="M25.2533, -2.6867 Q25.2848, -2.65518 25.3167, -2.6002 " /><path id= "136" d=" M 25.4 2.54 L 25.1978 2.74223 " />
<path d="M25.1978, 2.74223 C25.2312, 2.71187 25.265, 2.38455 25.2994, 1.85275  C25.3324, 1.3457 25.366, 0.65664 25.4, -0.0187453 " /><path d="M25.4, -0.0187453 Q25.4, -0.207388 25.4, -0.389103 " /><path d="M25.4, -2.4579 C25.4, -2.46044 25.4, -2.44037 25.4, -2.39769  C25.4, -2.32209 25.4, -2.16906 25.4, -1.9386  C25.4, -1.71075 25.4, -1.41019 25.4, -1.07922  C25.4, -0.852851 25.4, -0.608248 25.4, -0.389103 " /><path d="M25.4, -0.0187453 Q25.4, 0.12417 25.4, 0.267086  Q25.4, 0.551483 25.4, 0.824993  Q25.4, 0.957489 25.4, 1.08999  Q25.4, 1.21556 25.4, 1.34114  Q25.4, 1.45821 25.4, 1.57528  Q25.4, 1.68234 25.4, 1.78941  Q25.4, 1.88512 25.4, 1.98083  Q25.4, 2.06397 25.4, 2.14711  Q25.4, 2.21662 25.4, 2.28613  Q25.4, 2.34113 25.4, 2.39613  Q25.4, 2.43593 25.4, 2.47572  Q25.4, 2.4998 25.4, 2.52388  Q25.4, 2.53194 25.4, 2.54 " /></g>

</svg>
