<svg xmlns="http://www.w3.org/2000/svg" viewBox="-6.5107007999999995 -5.7739408 14.6658916 11.5478816">
<rect width="100%" height="100%" fill="white"/>
<g   fill="none"
   stroke="rgb(0, 0, 0)"
   stroke-linecap="butt"
   stroke-linejoin="miter"
   stroke-width="0.35"
   transform="scale(1, -1)"
  >
<path d="M7.14375, 0 C7.14472, -1.08464 6.89327, -2.16922 6.4153, -3.14282  C5.93896, -4.11722 5.23608, -4.98065 4.37845, -5.64467  C3.52201, -6.31022 2.51092, -6.77629 1.44866, -6.99533  C0.386783, -7.21617 -0.726253, -7.18999 -1.77658, -6.91932  C-2.82738, -6.65051 -3.81536, -6.13725 -4.6395, -5.43216  C-5.46483, -4.72846 -6.12633, -3.83294 -6.55621, -2.83713  C-6.98786, -1.84207 -7.18784, -0.746837 -7.13583, 0.336517  C-7.08565, 1.41996 -6.78349, 2.49151 -6.26012, 3.44153  C-5.73843, 4.39247 -4.99559, 5.22176 -4.1077, 5.84467  C-3.22086, 6.46907 -2.18897, 6.88708 -1.11753, 7.0558  C-0.0463921, 7.22643 1.06417, 7.14775 2.10055, 6.82796  C3.13748, 6.50991 4.10022, 5.95076 4.89023, 5.20757  C5.59955, 4.54232 6.17055, 3.72983 6.55622, 2.83713  C6.94296, 1.9449 7.14437, 0.972465 7.14375, 0 " /></g>
<g   fill="none"
   stroke="rgb(0, 0, 0)"
   stroke-linecap="butt"
   stroke-linejoin="miter"
   stroke-width="0.35"
   transform="scale(1, -1)"
  >
<circle cx ="0" cy ="0" r ="3.81" /><path d="M4.7625 0 A4.7625 4.7625 0 0 1 4.12445 2.38125" /><path d="M4.12445 -2.38125 A4.7625 4.7625 0 0 1 4.7625 -1.16648e-15" /><path d="M-1.80811e-08 -4.7625 A4.7625 4.7625 0 0 1 4.12445 -2.38125" /><path d="M-4.12445 -2.38125 A4.7625 4.7625 0 0 1 -1.80811e-08 -4.7625" /><path d="M-4.12445 2.38125 A4.7625 4.7625 0 0 1 -4.12445 -2.38125" /><path d="M3.20162e-14 4.7625 A4.7625 4.7625 0 0 1 -4.12445 2.38125" /><path d="M4.12445 2.38125 A4.7625 4.7625 0 0 1 3.20162e-14 4.7625" /><path d="M4.12445, 2.38125 C4.56054, 1.62591 4.99637, 0.871031 5.49926, 3.91687e-13 " /><path d="M3.24185e-14, 4.7625 C0.872189, 4.7625 1.74385, 4.7625 2.74963, 4.7625 " /><path d="M2.74963, 4.7625 C3.25252, 3.89147 3.68835, 3.13659 4.12445, 2.38125 " /><path d="M-4.12445, 2.38125 C-3.68835, 3.13659 -3.25252, 3.89147 -2.74963, 4.7625 " /><path d="M-2.74963, 4.7625 C-1.74385, 4.7625 -0.872189, 4.7625 3.26406e-14, 4.7625 " /><path d="M-4.12445, -2.38125 C-4.56054, -1.62591 -4.99637, -0.871031 -5.49926, -3.89688e-13 " /><path d="M-5.49926, 3.93907e-13 C-4.99637, 0.871031 -4.56054, 1.62591 -4.12445, 2.38125 " /><path d="M-2.74963, -4.7625 C-3.25252, -3.89147 -3.68835, -3.13659 -4.12445, -2.38125 " /><path d="M-1.80811e-08, -4.7625 C-0.872189, -4.7625 -1.74385, -4.7625 -2.74963, -4.7625 " /><path d="M2.74963, -4.7625 C1.74385, -4.7625 0.872189, -4.7625 -1.80811e-08, -4.7625 " /><path d="M4.12445, -2.38125 C3.68835, -3.13659 3.25252, -3.89147 2.74963, -4.7625 " /><path d="M5.49926, -3.91909e-13 C4.99637, -0.871031 4.56054, -1.62591 4.12445, -2.38125 " /></g>

</svg>
