<svg xmlns="http://www.w3.org/2000/svg" viewBox="-28.1448648 -19.9242648 40.6081896 29.5907696">
<rect width="100%" height="100%" fill="white"/>
<g   fill="none"
   stroke="rgb(0, 0, 0)"
   stroke-linecap="butt"
   stroke-linejoin="miter"
   stroke-width="0.35"
   transform="scale(1, -1)"
  >
<path id= "1" d=" M -25.3443 10.5446 L -25.3443 10.1892 " />
<path id= "2" d=" M -21.8041 16.6764 L -21.4962 16.8542 " />
<path id= "3" d=" M -24.2172 7.69798 L -20.6815 5.65664 " />
<path id= "4" d=" M -18.7752 17.1237 L -15.2395 15.0824 " />
<path id= "5" d=" M -18.0832 5.85761 L -1.98438 -3.43704 " />
<path id= "6" d=" M -14.1144 12.7317 L 1.98437 3.43704 " />
<path id= "7" d=" M -0.319061 -3.48196 L -0.206782 -3.54679 " />
<path id= "8" d=" M 3.30495 1.75806 L 3.41723 1.69324 " />
<path id= "9" d=" M 0.578967 -4.00044 L 0.691243 -4.06526 " />
<path id= "10" d=" M 4.20298 1.23958 L 4.31525 1.17476 " />
<path id= "11" d=" M 1.477 -4.51892 L 1.58927 -4.58374 " />
<path id= "12" d=" M 5.10101 0.721104 L 5.21328 0.656286 " />
<path id= "13" d=" M 2.37502 -5.03739 L 2.48729 -5.10221 " />
<path id= "14" d=" M 5.99904 0.202628 L 6.1113 0.137811 " />
<path id= "15" d=" M 3.27305 -5.55587 L 3.38532 -5.62069 " />
<path id= "16" d=" M 6.89707 -0.315849 L 7.00933 -0.380664 " />
<path id= "17" d=" M 4.17108 -6.07435 L 4.28334 -6.13916 " />
<path id= "18" d=" M 7.79509 -0.834326 L 7.90736 -0.89914 " />
<path id= "19" d=" M 5.06911 -6.59282 L 5.18137 -6.65764 " />
<path id= "20" d=" M 8.69312 -1.3528 L 8.80538 -1.41761 " />
<path id= "21" d=" M 7.74172 -6.68791 L 7.43335 -6.86594 " />
</g>
<g   fill="none"
   stroke="rgb(0, 0, 0)"
   stroke-linecap="butt"
   stroke-linejoin="miter"
   stroke-width="0.35"
   transform="scale(1, -1)"
  >
<path d="M-18.2639 14.6325 A5.00659 2.89056 60 0 1 -21.8041 16.6764" />
<path d="M-21.8041 16.6764 A5.00659 2.89056 60 0 1 -25.3443 10.5446" />
<path d="M-25.3443 10.5446 A5.00659 2.89056 60 0 1 -18.2639 14.6325" />
<path d="M-23.4324 11.6485 A2.30282 1.32953 -120 0 0 -20.1757 13.5287" />
<path d="M-20.1757 13.5287 A2.30282 1.32953 -120 0 0 -21.8041 10.7083" />
<path d="M-21.8041 10.7083 A2.30282 1.32953 -120 0 0 -23.4324 11.6485" />
<path d="M-17.6482 14.6325 A5.44195 3.14191 60 0 1 -18.7752 17.1237" />
<path d="M-18.7752 17.1237 A5.44195 3.14191 60 0 1 -21.4962 16.8542" />
<path d="M-25.3443 10.1892 A5.44195 3.14191 60 0 1 -24.2172 7.69798" />
<path d="M-24.2172 7.69798 A5.44195 3.14191 60 0 1 -17.6482 14.6325" />
<path d="M-20.9858, 14.6719 L-21.052, 14.566  L-21.1235, 14.4681  L-21.2009, 14.3775  L-21.2846, 14.2938  L-21.3751, 14.2165  L-21.473, 14.1449  L-21.5789, 14.0788  L-21.6934, 14.0177  L-21.8173, 13.9611  L-21.9513, 13.9089  L-22.0963, 13.8606  L-22.2531, 13.8159  L-22.4227, 13.7746  L-22.6061, 13.7364 " /><path d="M-22.6061, 13.7364 L-22.6098, 13.5418  L-22.6211, 13.3581  L-22.6399, 13.1843  L-22.6664, 13.0193  L-22.7008, 12.8621  L-22.7433, 12.7117  L-22.7941, 12.5671  L-22.8535, 12.4276  L-22.9219, 12.2922  L-22.9998, 12.16  L-23.0876, 12.0304  L-23.1859, 11.9025  L-23.2952, 11.7754  L-23.4162, 11.6485 " /><path d="M-23.4162, 11.6485 Q-23.3557, 11.5872 -23.2952, 11.5258  Q-23.2405, 11.4688 -23.1859, 11.4118  Q-23.1367, 11.3587 -23.0876, 11.3056  Q-23.0437, 11.2561 -22.9998, 11.2066  Q-22.9609, 11.1604 -22.9219, 11.1142  Q-22.8877, 11.071 -22.8535, 11.0278  Q-22.8238, 10.9873 -22.7941, 10.9469  Q-22.7687, 10.9089 -22.7433, 10.871  Q-22.722, 10.8353 -22.7008, 10.7996  Q-22.6836, 10.7659 -22.6664, 10.7323  Q-22.6532, 10.7005 -22.6399, 10.6687  Q-22.6305, 10.6385 -22.6211, 10.6083  Q-22.6077, 10.5501 -22.6061, 10.4959 " /><path d="M-22.6061, 10.4959 C-22.2232, 10.5699 -21.9288, 10.6609 -21.6895, 10.7792 " /><path d="M-20.1757, 13.5221 L-20.1798, 13.5769  L-20.1914, 13.6343  L-20.2105, 13.6946  L-20.2372, 13.7581  L-20.2717, 13.8253  L-20.3143, 13.8965  L-20.3651, 13.9723  L-20.4246, 14.053  L-20.4929, 14.1392  L-20.5707, 14.2314  L-20.6583, 14.3301  L-20.7563, 14.436  L-20.8652, 14.5497  L-20.9858, 14.6719 " /><path d="M-14.1125 12.5912 A5.44195 3.14191 60 0 1 -15.2395 15.0824" />
<path d="M-20.6815 5.65664 A5.44195 3.14191 60 0 1 -14.1125 12.5912" />
<path id= "18" d=" M -22.6061 13.7364 L -21.0768 12.8535 " />
<path d="M-20.1965, 13.2177 C-20.4411, 13.083 -20.7221, 12.9667 -21.0768, 12.8535 " /><path d="M-21.8869, 10.7655 L-21.8388, 10.7117 " /><path id= "21" d=" M -23.4162 11.6485 L -21.8869 10.7655 " />
<path d="M-21.0768, 12.8535 Q-21.091, 12.7633 -21.1053, 12.6731  Q-21.1213, 12.5873 -21.1373, 12.5014  Q-21.1718, 12.3355 -21.2124, 12.1798  Q-21.2341, 12.1038 -21.2559, 12.0279  Q-21.3026, 11.8796 -21.3565, 11.7371  Q-21.4126, 11.596 -21.4771, 11.4579  Q-21.544, 11.3204 -21.6206, 11.1834  Q-21.7, 11.0462 -21.7906, 10.9068  Q-21.8388, 10.8361 -21.8869, 10.7655 " /><path d="M-15.9856 7.69623 A3.96875 2.29136 60 0 1 -14.6579 9.99581" />
<path d="M2.80633 1.62024 A3.96875 2.29136 60 0 1 1.98437 3.43704" />
<path d="M-1.98438 -3.43704 A3.96875 2.29136 60 0 1 2.80633 1.62024" />
<path d="M2.80512, 1.71466 C3.05737, 1.45843 3.21062, 1.06618 3.2449, 0.598377 " /><path d="M3.2449, 0.598377 C3.30926, -0.199095 3.01054, -1.21019 2.48247, -2.04082 " /><path d="M0.807597 -3.45275 A3.175 1.83309 60 0 1 2.48247 -2.04082" />
<path d="M0.807597, -3.45275 C0.803087, -3.41613 0.822036, -3.3772 0.843666, -3.34281  C0.86828, -3.30558 0.896141, -3.26966 0.92725, -3.23505  C1.02707, -3.12257 1.13971, -3.01132 1.25102, -2.88936  C1.61953, -2.49412 1.98641, -1.98163 2.24964, -1.40423  C2.55244, -0.750025 2.71818, -0.0243224 2.68119, 0.591109 " /><path d="M0.807597, -3.45275 C0.380042, -3.64597 -0.0216008, -3.65524 -0.319061, -3.48196 " /><path d="M-0.319061, -3.48196 Q-0.356572, -3.46031 -0.391889, -3.43498 " /><path d="M2.79333, 1.92429 Q3.07325, 1.89153 3.30495, 1.75806 " /><path d="M3.30495, 1.75806 C3.76026, 1.49908 4.03974, 0.942374 4.07477, 0.239806 " /><path d="M2.48247, -2.04082 C2.07473, -2.68252 1.54883, -3.19525 1.04245, -3.45797  C0.570005, -3.70653 0.118853, -3.73699 -0.206782, -3.54679 " /><path d="M3.41723, 1.69324 C3.87253, 1.43426 4.15202, 0.877554 4.18705, 0.174984 " /><path d="M4.07477, 0.239806 C4.10788, -0.355609 3.96668, -1.04956 3.6875, -1.70014  C3.46829, -2.21415 3.1654, -2.69936 2.82276, -3.09271  C2.52587, -3.43448 2.19993, -3.70691 1.88034, -3.88355  C1.38923, -4.15725 0.916513, -4.19785 0.578967, -4.00044 " /><path d="M0.578967, -4.00044 Q0.378531, -3.88437 0.246086, -3.6697 " /><path d="M3.76871, 1.39471 Q4.0041, 1.35424 4.20298, 1.23958 " /><path d="M4.20298, 1.23958 C4.65828, 0.980606 4.93776, 0.423896 4.9728, -0.278671 " /><path d="M4.18705, 0.174984 C4.2291, -0.558061 4.00155, -1.44079 3.58677, -2.20752  C3.32904, -2.68785 3.00241, -3.12137 2.65175, -3.45446  C2.41739, -3.67683 2.18031, -3.85081 1.94051, -3.97642  C1.46806, -4.22501 1.01689, -4.25547 0.691244, -4.06526 " /><path d="M4.31525, 1.17476 C4.77056, 0.915784 5.05005, 0.359081 5.08507, -0.343491 " /><path d="M4.9728, -0.278671 C5.00578, -0.872158 4.86564, -1.56354 4.58823, -2.2123  C4.37014, -2.72547 4.06857, -3.21026 3.7271, -3.60391  C3.43111, -3.94607 3.10593, -4.21937 2.78675, -4.39736  C2.29267, -4.6752 1.81646, -4.71749 1.477, -4.51892 " /><path d="M1.477, -4.51892 Q1.27656, -4.40285 1.14411, -4.18818 " /><path d="M4.66674, 0.876232 Q4.90213, 0.835764 5.10101, 0.721104 " /><path d="M5.10101, 0.721104 C5.55631, 0.462129 5.83579, -0.0945778 5.87083, -0.797147 " /><path d="M5.08507, -0.343491 C5.12712, -1.07653 4.89958, -1.95926 4.4848, -2.72599  C4.22707, -3.20632 3.90044, -3.63983 3.54979, -3.97293  C3.31543, -4.19528 3.07836, -4.36927 2.83858, -4.49487  C2.36611, -4.74348 1.91493, -4.77395 1.58927, -4.58374 " /><path d="M5.21328, 0.656286 C5.66858, 0.397309 5.94807, -0.159396 5.9831, -0.861966 " /><path d="M5.87083, -0.797147 C5.90359, -1.38701 5.76542, -2.07357 5.4913, -2.71887  C5.27272, -3.23666 4.96899, -3.72612 4.62469, -4.1229  C4.32674, -4.46723 3.99922, -4.74176 3.67804, -4.91959  C3.18635, -5.1941 2.71295, -5.23503 2.37502, -5.03739 " /><path d="M2.37502, -5.03739 Q2.17459, -4.92132 2.04214, -4.70666 " /><path d="M5.56476, 0.357755 Q5.80016, 0.317288 5.99904, 0.202628 " /><path d="M5.99904, 0.202628 C6.45434, -0.0563474 6.73382, -0.613055 6.76886, -1.31562 " /><path d="M5.9831, -0.861966 C6.02515, -1.59501 5.7976, -2.47773 5.38283, -3.24446  C5.1251, -3.72479 4.79848, -4.1583 4.44782, -4.49139  C4.21348, -4.71374 3.97643, -4.88772 3.73665, -5.01332  C3.26417, -5.26195 2.81296, -5.29243 2.48729, -5.10221 " /><path d="M6.11131, 0.137811 C6.56661, -0.121166 6.8461, -0.677872 6.88112, -1.38044 " /><path d="M6.76886, -1.31562 C6.80168, -1.90648 6.66297, -2.59436 6.38795, -3.24062  C6.16839, -3.75978 5.86325, -4.25029 5.51758, -4.6473  C5.22103, -4.98884 4.89547, -5.2612 4.57616, -5.43801  C4.08444, -5.71257 3.611, -5.75352 3.27305, -5.55587 " /><path d="M3.27305, -5.55587 Q3.07261, -5.4398 2.94017, -5.22513 " /><path d="M6.46279, -0.160721 Q6.69818, -0.201188 6.89707, -0.315849 " /><path d="M6.89707, -0.315849 C7.35237, -0.574824 7.63185, -1.13153 7.66688, -1.8341 " /><path d="M6.88112, -1.38044 C6.92317, -2.11348 6.69563, -2.9962 6.28086, -3.76293  C6.02313, -4.24325 5.69651, -4.67676 5.34585, -5.00986  C5.11152, -5.2322 4.87448, -5.40617 4.63472, -5.53178  C4.16222, -5.78042 3.711, -5.81091 3.38532, -5.62069 " /><path d="M7.00933, -0.380665 C7.46463, -0.639641 7.74412, -1.19635 7.77915, -1.89892 " /><path d="M7.66688, -1.8341 C7.69981, -2.42671 7.56015, -3.11691 7.28354, -3.76483  C7.06621, -4.27704 6.76569, -4.76111 6.42524, -5.15465  C6.12875, -5.49832 5.80275, -5.77291 5.48272, -5.95174  C4.98797, -6.2305 4.51097, -6.27318 4.17108, -6.07435 " /><path d="M4.17108, -6.07435 Q3.97064, -5.95828 3.83819, -5.74361 " /><path d="M7.36082, -0.679198 Q7.59621, -0.719665 7.79509, -0.834326 " /><path d="M7.79509, -0.834326 C8.2504, -1.0933 8.52988, -1.65001 8.56491, -2.35258 " /><path d="M7.77915, -1.89892 C7.8212, -2.63195 7.59366, -3.51467 7.17889, -4.28139  C6.92117, -4.76172 6.59454, -5.19523 6.24389, -5.52832  C6.00958, -5.75065 5.77255, -5.92462 5.5328, -6.05022  C5.06028, -6.2989 4.60903, -6.32939 4.28335, -6.13916 " /><path d="M7.90736, -0.89914 C8.36266, -1.15812 8.64215, -1.71482 8.67717, -2.41739 " /><path d="M8.56491, -2.35258 C8.59767, -2.94244 8.4595, -3.62899 8.18539, -4.2743  C7.9672, -4.79116 7.66416, -5.2798 7.32062, -5.6762  C7.02243, -6.02123 6.69454, -6.29635 6.37296, -6.47456  C5.88098, -6.74948 5.40722, -6.79058 5.06911, -6.59282 " /><path d="M5.06911, -6.59282 Q4.86867, -6.47675 4.73622, -6.26208 " /><path d="M8.25884, -1.19767 Q8.49424, -1.23814 8.69312, -1.3528 " /><path d="M8.69312, -1.3528 C9.14842, -1.61178 9.4279, -2.16848 9.46294, -2.87105 " /><path d="M8.67717, -2.41739 C8.71922, -3.15042 8.49168, -4.03314 8.07692, -4.79986  C7.8192, -5.28019 7.49257, -5.7137 7.14192, -6.04679  C6.90762, -6.26911 6.67059, -6.44307 6.43086, -6.56868  C5.95832, -6.81737 5.50705, -6.84787 5.18137, -6.65764 " /><path d="M8.80538, -1.41761 C9.26068, -1.67659 9.54017, -2.2333 9.5752, -2.93587 " /><path d="M9.46294, -2.87105 C9.49562, -3.45966 9.35813, -4.14454 9.08516, -4.78865  C8.78278, -5.50895 8.31309, -6.17132 7.80363, -6.61357 " /><path d="M9.66276, -3.49755 Q9.66253, -3.14246 9.56954, -2.85176 " /><path d="M5.76744, -6.77672 C5.94207, -7.00044 6.19137, -7.12615 6.48435, -7.1393  C6.77166, -7.15306 7.10039, -7.05855 7.43335, -6.86594 " /><path d="M7.43335, -6.86594 Q7.61913, -6.75866 7.80363, -6.61357 " /><path d="M7.80363 -6.61357 A3.175 1.83309 60 0 1 9.25449 -4.71276" />
<path d="M9.5752, -2.93587 C9.60529, -3.48184 9.4898, -4.11048 9.25449, -4.71276 " /><path d="M9.25449, -4.71276 C8.88646, -5.62169 8.28032, -6.38317 7.74172, -6.68791 " /><path d="M8.57103, -5.9163 C8.7901, -5.67072 8.98922, -5.38558 9.1518, -5.08676  C9.35403, -4.72003 9.49571, -4.32427 9.58334, -3.99382 " /><path id= "80" d=" M 9.66276 -3.49755 L 9.66276 -3.50489 " />
<path d="M9.66276, -3.49755 C9.66291, -3.54741 9.66088, -3.60878 9.65833, -3.65296 " /><path d="M9.65833, -3.65296 Q9.63061, -3.82129 9.58334, -3.99382 " /><path d="M9.65833 -3.65296 A2.54 1.46647 60 0 1 9.66276 -3.50489" />
</g>

</svg>
