<svg xmlns="http://www.w3.org/2000/svg" viewBox="-34.192464 -8.798814 48.674527999999995 17.597628">
<rect width="100%" height="100%" fill="white"/>
<g   fill="none"
   stroke="rgb(0, 0, 0)"
   stroke-linecap="butt"
   stroke-linejoin="miter"
   stroke-width="0.35"
   transform="scale(1, -1)"
  >
<path id= "1" d=" M -30.8356 -5.00659 L -30.4002 -5.44195 " />
<path id= "2" d=" M -30.4002 -5.44195 L -25.4 -5.44195 " />
<path d="M-25.4, -3.96875 C-25.2943, -3.7773 -25.0817, -3.65161 -24.863, -3.65128  C-24.6399, -3.64679 -24.4206, -3.77331 -24.3129, -3.96875 " /><path id= "4" d=" M -24.3129 -3.96875 L 0 -3.96875 " />
<path d="M2.22045e-16, -3.175 C0.105003, -2.9963 0.269154, -2.85329 0.46056, -2.77376  C0.659872, -2.68982 0.887539, -2.6758 1.09565, -2.73463 " /><path d="M1.05772, 2.72483 L1.07546, 2.72921 " /><path d="M0.430436, 2.78696 L0.413896, 2.79473 " /><path d="M0.896625, 2.46683 Q0.889088, 2.45142 0.860708, 2.42817  Q0.818845, 2.39709 0.762028, 2.39597 " /><path d="M1.03, 2.69634 L0.896625, 2.46683 " /><path d="M0.631533, 2.46335 L0.46436, 2.75034 " /><path d="M1.26653, -2.46334 L1.11761, -2.71898 " /><path d="M1.52751, -2.46334 Q1.5213, -2.44988 1.49255, -2.42653  Q1.45204, -2.39706 1.39699, -2.39596  Q1.33782, -2.39745 1.29642, -2.43038  Q1.27199, -2.45173 1.26653, -2.46334 " /><path d="M2.16251, 2.46335 Q2.1563, 2.44989 2.12755, 2.42654  Q2.08705, 2.39707 2.03202, 2.39597 " /><path d="M0.762019, 2.39597 Q0.702849, 2.39745 0.661437, 2.43037  Q0.636989, 2.45173 0.631533, 2.46335 " /><path d="M1.52751, -2.46334 L1.9304, -3.15587 " /><path d="M2.16251, 2.46335 L2.56539, 3.15586 " /><path id= "17" d=" M 1.9526 -3.175 L 2.11138 -3.175 " />
<path d="M1.90153, 2.46335 L1.57549, 3.0235 " /><path d="M2.53653, -2.46334 L2.13357, -3.15587 " /><path d="M2.79751, -2.46334 Q2.7913, -2.44988 2.76255, -2.42653  Q2.72203, -2.39705 2.66699, -2.39596  Q2.60782, -2.39745 2.56641, -2.43037  Q2.54198, -2.45172 2.53653, -2.46334 " /><path d="M3.43251, 2.46335 Q3.42629, 2.44988 3.39755, 2.42653  Q3.35704, 2.39707 3.30201, 2.39596 " /><path d="M2.03202, 2.39597 Q1.97285, 2.39744 1.93143, 2.43037  Q1.90699, 2.45172 1.90153, 2.46335 " /><path d="M3.2004, -3.15587 L2.79751, -2.46334 " /><path d="M3.83539, 3.15586 L3.43251, 2.46335 " /><path id= "25" d=" M 3.2226 -3.175 L 3.38138 -3.175 " />
<path d="M3.17153, 2.46334 L2.76858, 3.15587 " /><path d="M3.80653, -2.46333 L3.40357, -3.15587 " /><path d="M4.06751, -2.46334 Q4.06129, -2.44988 4.03255, -2.42653  Q3.99203, -2.39705 3.93698, -2.39596  Q3.87781, -2.39744 3.83641, -2.43037  Q3.81198, -2.45172 3.80653, -2.46333 " /><path d="M4.70251, 2.46334 Q4.69629, 2.44988 4.66754, 2.42653  Q4.62704, 2.39706 4.57201, 2.39596 " /><path d="M3.30201, 2.39596 Q3.24284, 2.39744 3.20143, 2.43036  Q3.17698, 2.45172 3.17153, 2.46334 " /><path d="M4.4704, -3.15587 L4.06751, -2.46334 " /><path d="M5.1054, 3.15586 L4.70251, 2.46334 " /><path id= "33" d=" M 4.4926 -3.175 L 4.65138 -3.175 " />
<path d="M4.44152, 2.46334 L4.03858, 3.15587 " /><path d="M5.07653, -2.46333 L4.67357, -3.15587 " /><path d="M5.33751, -2.46333 Q5.33129, -2.44987 5.30254, -2.42652  Q5.26203, -2.39705 5.20698, -2.39595  Q5.14781, -2.39744 5.10641, -2.43037  Q5.08198, -2.45172 5.07653, -2.46333 " /><path d="M5.9725, 2.46334 Q5.96629, 2.44987 5.93754, 2.42652  Q5.89704, 2.39706 5.84201, 2.39596 " /><path d="M4.57201, 2.39596 Q4.51284, 2.39744 4.47143, 2.43036  Q4.44698, 2.45172 4.44152, 2.46334 " /><path d="M5.74041, -3.15587 L5.33751, -2.46333 " /><path d="M6.3754, 3.15586 L5.9725, 2.46334 " /><path id= "41" d=" M 5.76261 -3.175 L 5.92138 -3.175 " />
<path d="M5.71152, 2.46334 L5.30858, 3.15587 " /><path d="M6.34652, -2.46333 L5.94357, -3.15587 " /><path d="M6.6075, -2.46333 Q6.60129, -2.44987 6.57254, -2.42652  Q6.53202, -2.39704 6.47698, -2.39595  Q6.41781, -2.39744 6.37641, -2.43036  Q6.35197, -2.45171 6.34652, -2.46333 " /><path d="M7.2425, 2.46333 Q7.23628, 2.44987 7.20754, 2.42652  Q7.16703, 2.39706 7.112, 2.39595 " /><path d="M5.84201, 2.39596 Q5.78284, 2.39743 5.74143, 2.43036  Q5.71698, 2.45171 5.71152, 2.46334 " /><path d="M7.01041, -3.15587 L6.6075, -2.46333 " /><path d="M7.64541, 3.15586 L7.2425, 2.46333 " /><path id= "49" d=" M 7.03261 -3.175 L 7.19137 -3.175 " />
<path d="M6.98152, 2.46333 L6.57858, 3.15587 " /><path d="M7.61652, -2.46332 L7.21357, -3.15587 " /><path d="M7.8775, -2.46333 Q7.87128, -2.44986 7.84254, -2.42651  Q7.80202, -2.39704 7.74697, -2.39595  Q7.6878, -2.39743 7.6464, -2.43036  Q7.62197, -2.45171 7.61652, -2.46332 " /><path d="M8.5125, 2.46333 Q8.50628, 2.44987 8.47753, 2.42652  Q8.43703, 2.39705 8.382, 2.39595 " /><path d="M7.112, 2.39595 Q7.05283, 2.39743 7.01142, 2.43035  Q6.98697, 2.45171 6.98152, 2.46333 " /><path d="M8.28042, -3.15587 L7.8775, -2.46333 " /><path d="M8.91541, 3.15586 L8.5125, 2.46333 " /><path id= "57" d=" M 8.30261 -3.175 L 8.46137 -3.175 " />
<path d="M8.25152, 2.46333 L7.84858, 3.15587 " /><path d="M8.88652, -2.46332 L8.48357, -3.15587 " /><path d="M9.1475, -2.46332 Q9.14128, -2.44986 9.11253, -2.42651  Q9.07202, -2.39704 9.01697, -2.39594  Q8.9578, -2.39743 8.9164, -2.43036  Q8.89197, -2.45171 8.88652, -2.46332 " /><path d="M9.7825, 2.46333 Q9.77628, 2.44986 9.74753, 2.42651  Q9.70703, 2.39705 9.652, 2.39594 " /><path d="M8.382, 2.39595 Q8.32283, 2.39743 8.28142, 2.43035  Q8.25697, 2.45171 8.25152, 2.46333 " /><path d="M9.55042, -3.15587 L9.1475, -2.46332 " /><path d="M10.1854, 3.15586 L9.7825, 2.46333 " /><path id= "65" d=" M 9.57262 -3.175 L 9.73137 -3.175 " />
<path d="M9.52151, 2.46333 L9.11858, 3.15587 " /><path d="M10.1565, -2.46332 L9.75357, -3.15587 " /><path d="M10.4175, -2.46332 Q10.4113, -2.44986 10.3825, -2.42651  Q10.342, -2.39703 10.287, -2.39594  Q10.2278, -2.39743 10.1864, -2.43036  Q10.162, -2.45171 10.1565, -2.46332 " /><path d="M11.0525, 2.46332 Q11.0463, 2.44986 11.0175, 2.42651  Q10.977, 2.39704 10.922, 2.39594 " /><path d="M9.652, 2.39594 Q9.59283, 2.39742 9.55142, 2.43035  Q9.52697, 2.4517 9.52151, 2.46333 " /><path d="M10.4175, -2.46332 L10.6986, -2.94618 " /><path d="M11.0525, 2.46332 L11.0988, 2.54282 " /><path d="M10.7915, 2.46332 L10.3886, 3.15587 " /><path d="M10.922, 2.39594 Q10.8628, 2.39742 10.8214, 2.43034  Q10.797, 2.4517 10.7915, 2.46332 " /><path id= "75" d=" M 11.1252 -2.54 L 10.7136 -2.95157 " />
</g>
<g   fill="none"
   stroke="rgb(0, 0, 0)"
   stroke-linecap="butt"
   stroke-linejoin="miter"
   stroke-width="0.35"
   transform="scale(1, -1)"
  >
<path d="M-30.8356, -5.00659 L-30.8356, -4.88107  L-30.8356, -4.51079  L-30.8356, -3.91431  L-30.8356, -3.12156  L-30.8356, -2.17228  L-30.8356, -1.11407  L-30.8356, -8.88178e-16  L-30.8356, 1.11407  L-30.8356, 2.17228  L-30.8356, 3.12156  L-30.8356, 3.91431  L-30.8356, 4.51079  L-30.8356, 4.88107  L-30.8356, 5.00659 " /><path id= "2" d=" M -30.8356 5.00659 L -30.4002 5.44195 " />
<path d="M-30.4002, -5.44195 L-30.4002, -5.30551  L-30.4002, -4.90303  L-30.4002, -4.25469  L-30.4002, -3.393  L-30.4002, -2.36117  L-30.4002, -1.21095  L-30.4002, -1.11022e-15  L-30.4002, 1.21095  L-30.4002, 2.36117  L-30.4002, 3.393  L-30.4002, 4.25469  L-30.4002, 4.90303  L-30.4002, 5.30551  L-30.4002, 5.44195 " /><path id= "4" d=" M -30.4002 5.44195 L -25.4 5.44195 " />
<path d="M-25.4, -5.44195 L-25.4, -5.30551  L-25.4, -4.90303  L-25.4, -4.25469  L-25.4, -3.393  L-25.4, -2.36117  L-25.4, -1.21095  L-25.4, -1.11022e-15  L-25.4, 1.21095  L-25.4, 2.36117  L-25.4, 3.393  L-25.4, 4.25469  L-25.4, 4.90303  L-25.4, 5.30551  L-25.4, 5.44195 " /><path d="M-25.4 3.96875 A0.624037 0.624037 0 0 1 -24.3129 3.96875" /><path d="M-24.3129, -3.96875 L-24.3129, -3.86925  L-24.3129, -3.57572  L-24.3129, -3.10289  L-24.3129, -2.47448  L-24.3129, -1.72198  L-24.3129, -0.88313  L-24.3129, -7.77156e-16  L-24.3129, 0.88313  L-24.3129, 1.72198  L-24.3129, 2.47448  L-24.3129, 3.10289  L-24.3129, 3.57572  L-24.3129, 3.86925  L-24.3129, 3.96875 " /><path id= "8" d=" M -24.3129 3.96875 L 0 3.96875 " />
<path d="M0, -3.96875 L0, -3.86925  L0, -3.57572  L0, -3.10289  L0, -2.47448  L0, -1.72198  L0, -0.88313  L0, -7.77156e-16  L0, 0.88313  L0, 1.72198  L0, 2.47448  L0, 3.10289  L0, 3.57572  L0, 3.86925  L0, 3.96875 " /><path d="M1.58984e-13 3.175 A0.969051 0.969051 0 0 1 0.413896 2.79473" /><path d="M0.413896 2.79473 A0.969051 0.969051 0 0 1 0.430436 2.78696" /><path d="M0.430436, 2.78696 Q0.44765, 2.77906 0.46436, 2.75034 " /><path d="M0.46436, 2.75034 C0.533341, 2.63459 0.596681, 2.23626 0.656839, 1.6557  C0.706189, 1.1818 0.753246, 0.591608 0.798514, -0.000412373  C0.852491, -0.706864 0.903916, -1.40821 0.953177, -1.91136  C1.00281, -2.42232 1.05023, -2.72473 1.09565, -2.73463 " /><path d="M1.09565, -2.73463 Q1.10671, -2.73772 1.11761, -2.71898 " /><path d="M1.05772 2.72483 A0.969051 0.969051 0 0 1 1.07546 2.72921" /><path d="M1.07546 2.72921 A0.969051 0.969051 0 0 1 1.56163 3.02735" /><path d="M1.05772, 2.72483 Q1.04473, 2.72172 1.03, 2.69634 " /><path d="M0.920778, 2.48763 C0.889154, 2.43168 0.826292, 2.39539 0.762028, 2.39597 " /><path d="M0.762028, 2.39597 L0.762019, 2.39597 " /><path d="M1.05772, 2.72483 L0.920778, 2.48763 " /><path d="M1.56163, 3.02735 Q1.56864, 3.0353 1.57549, 3.0235 " /><path d="M1.57549, 3.0235 C1.60955, 2.96877 1.64076, 2.52667 1.66878, 1.84196 " /><path d="M1.66878, -0.526665 C1.66878, 0.294246 1.66878, 1.16471 1.66878, 1.84196 " /><path d="M1.66878, -0.526665 C1.65033, -0.514595 1.63361, -0.471071 1.61987, -0.42675  C1.60512, -0.377189 1.59196, -0.324623 1.58038, -0.269051  C1.54381, -0.0879762 1.51241, 0.0960433 1.48621, 0.283008  C1.39831, 0.892054 1.33124, 1.47796 1.26677, 1.9147  C1.19072, 2.44036 1.12237, 2.74337 1.05772, 2.72483 " /><path d="M1.66878, -0.526665 C1.70581, -1.10064 1.74284, -1.64632 1.77987, -2.08467  C1.83005, -2.68158 1.88023, -3.07212 1.9304, -3.15587 " /><path d="M1.9304, -3.15587 Q1.9415, -3.17499 1.9526, -3.175 " /><path d="M2.56539, 3.15586 Q2.57649, 3.17499 2.5876, 3.175 " /><path id= "28" d=" M 2.5876 3.175 L 2.74638 3.175 " />
<path d="M1.66878, 1.84196 C1.76191, 0.651702 1.85503, -1.14397 1.94818, -2.19504  C2.00258, -2.81602 2.05698, -3.17875 2.11138, -3.175 " /><path d="M2.11138, -3.175 Q2.12248, -3.17499 2.13357, -3.15587 " /><path d="M2.5876, 3.175 C2.63261, 3.1768 2.67764, 2.9321 2.72265, 2.49226  C2.78905, 1.85021 2.85544, 0.779577 2.92184, -0.262643  C2.96481, -0.935862 3.00778, -1.58848 3.05075, -2.095  C3.10063, -2.68618 3.15052, -3.07256 3.2004, -3.15587 " /><path d="M3.2004, -3.15587 Q3.2115, -3.17499 3.2226, -3.175 " /><path d="M3.83539, 3.15586 Q3.8465, 3.17499 3.8576, 3.175 " /><path id= "34" d=" M 3.8576 3.175 L 4.01638 3.175 " />
<path d="M2.74638, 3.175 Q2.75748, 3.17499 2.76858, 3.15587 " /><path d="M2.76858, 3.15587 C2.81661, 3.07541 2.86463, 2.7149 2.91267, 2.15979  C2.97033, 1.49778 3.02799, 0.560372 3.08565, -0.341351  C3.13057, -1.04359 3.1755, -1.71686 3.22042, -2.22036  C3.27407, -2.82617 3.32772, -3.17855 3.38138, -3.175 " /><path d="M3.38138, -3.175 Q3.39247, -3.17499 3.40357, -3.15587 " /><path d="M3.8576, 3.175 C3.90247, 3.17678 3.94735, 2.93371 3.99222, 2.49651  C4.05849, 1.85744 4.12476, 0.790651 4.19103, -0.249972  C4.23387, -0.921285 4.2767, -1.57304 4.31954, -2.08063  C4.36983, -2.67979 4.42012, -3.07195 4.4704, -3.15587 " /><path d="M4.4704, -3.15587 Q4.4815, -3.17499 4.4926, -3.175 " /><path d="M5.1054, 3.15586 Q5.1165, 3.17499 5.1276, 3.175 " /><path id= "41" d=" M 5.1276 3.175 L 5.28638 3.175 " />
<path d="M4.01638, 3.175 Q4.02748, 3.17499 4.03858, 3.15587 " /><path d="M4.03858, 3.15587 C4.08661, 3.07541 4.13463, 2.7149 4.18266, 2.1598  C4.24033, 1.4978 4.29799, 0.560419 4.35565, -0.341288  C4.40076, -1.04646 4.44586, -1.72238 4.49097, -2.2266  C4.54444, -2.82866 4.59791, -3.17851 4.65138, -3.175 " /><path d="M4.65138, -3.175 Q4.66247, -3.17499 4.67357, -3.15587 " /><path d="M5.1276, 3.175 C5.1722, 3.17674 5.2168, 2.93673 5.2614, 2.50448  C5.32816, 1.86413 5.39492, 0.787976 5.46169, -0.260146  C5.50443, -0.929801 5.54717, -1.57929 5.58991, -2.08497  C5.64007, -2.68172 5.69025, -3.07214 5.74041, -3.15587 " /><path d="M5.74041, -3.15587 Q5.75151, -3.17499 5.76261, -3.175 " /><path d="M6.3754, 3.15586 Q6.38651, 3.17499 6.39761, 3.175 " /><path id= "48" d=" M 6.39761 3.175 L 6.55638 3.175 " />
<path d="M5.28638, 3.175 Q5.29748, 3.17499 5.30858, 3.15587 " /><path d="M5.30858, 3.15587 C5.35661, 3.07541 5.40463, 2.7149 5.45266, 2.1598  C5.51032, 1.49782 5.56799, 0.560474 5.62564, -0.341214  C5.67079, -1.04694 5.71593, -1.72336 5.76107, -2.22773  C5.81451, -2.82911 5.86794, -3.1785 5.92138, -3.175 " /><path d="M5.92138, -3.175 Q5.93247, -3.17499 5.94357, -3.15587 " /><path d="M6.39761, 3.175 C6.44228, 3.17675 6.48696, 2.9359 6.53163, 2.50229  C6.59831, 1.86175 6.665, 0.786873 6.73168, -0.260009  C6.7744, -0.929355 6.81712, -1.57857 6.85985, -2.08416  C6.91003, -2.68136 6.96023, -3.0721 7.01041, -3.15587 " /><path d="M7.01041, -3.15587 Q7.02151, -3.17499 7.03261, -3.175 " /><path d="M7.64541, 3.15586 Q7.65651, 3.17499 7.66761, 3.175 " /><path id= "55" d=" M 7.66761 3.175 L 7.82638 3.175 " />
<path d="M6.55638, 3.175 Q6.56748, 3.17499 6.57858, 3.15587 " /><path d="M6.57858, 3.15587 C6.62661, 3.07541 6.67463, 2.7149 6.72266, 2.15981  C6.78032, 1.49784 6.83798, 0.560515 6.89564, -0.341158  C6.94069, -1.04552 6.98575, -1.72071 7.03081, -2.22476  C7.08433, -2.82793 7.13785, -3.17852 7.19137, -3.175 " /><path d="M7.19137, -3.175 Q7.20247, -3.17499 7.21357, -3.15587 " /><path d="M7.66761, 3.175 C7.71241, 3.17677 7.75722, 2.93445 7.80203, 2.49845  C7.86831, 1.86014 7.93458, 0.793675 8.00086, -0.247127  C8.04439, -0.929326 8.08791, -1.59141 8.13144, -2.10293  C8.1811, -2.68971 8.23076, -3.07291 8.28042, -3.15587 " /><path d="M8.28042, -3.15587 Q8.29151, -3.17499 8.30261, -3.175 " /><path d="M8.91541, 3.15586 Q8.92651, 3.17499 8.93761, 3.175 " /><path id= "62" d=" M 8.93761 3.175 L 9.09638 3.175 " />
<path d="M7.82638, 3.175 Q7.83748, 3.17499 7.84858, 3.15587 " /><path d="M7.84858, 3.15587 C7.89661, 3.07541 7.94463, 2.71491 7.99266, 2.15982  C8.05032, 1.49787 8.10798, 0.560581 8.16563, -0.34107  C8.21065, -1.04486 8.25567, -1.71954 8.30069, -2.22346  C8.35425, -2.82741 8.40781, -3.17853 8.46137, -3.175 " /><path d="M8.46137, -3.175 Q8.47247, -3.17499 8.48357, -3.15587 " /><path d="M8.93761, 3.175 C8.98221, 3.17674 9.02681, 2.93673 9.07141, 2.50448  C9.13814, 1.86439 9.20488, 0.788851 9.27162, -0.258885  C9.3143, -0.927578 9.35697, -1.57626 9.39965, -2.08179  C9.44991, -2.6803 9.50017, -3.07201 9.55042, -3.15587 " /><path d="M9.55042, -3.15587 Q9.56152, -3.17499 9.57262, -3.175 " /><path d="M10.1854, 3.15586 Q10.1965, 3.17499 10.2076, 3.175 " /><path id= "69" d=" M 10.2076 3.175 L 10.3664 3.175 " />
<path d="M9.09638, 3.175 Q9.10748, 3.17499 9.11858, 3.15587 " /><path d="M9.11858, 3.15587 C9.16661, 3.07541 9.21463, 2.71491 9.26266, 2.15982  C9.32032, 1.49789 9.37798, 0.560615 9.43563, -0.341025  C9.48134, -1.05563 9.52705, -1.7401 9.57276, -2.2465  C9.62563, -2.8366 9.6785, -3.17836 9.73137, -3.175 " /><path d="M9.73137, -3.175 Q9.74247, -3.17499 9.75357, -3.15587 " /><path d="M10.2076, 3.175 C10.2521, 3.17672 10.2966, 2.93777 10.3411, 2.50723  C10.3908, 2.02991 10.4405, 1.31598 10.4902, 0.545796 " /><path d="M11.1162, 2.549 Q11.1075, 2.5577 11.0988, 2.54282 " /><path d="M10.7136, -2.95157 Q10.7061, -2.95911 10.6986, -2.94618 " /><path d="M10.6986, -2.94618 C10.6835, -2.91934 10.6684, -2.83265 10.6535, -2.68612  C10.6262, -2.42192 10.5993, -1.96465 10.5726, -1.40239  C10.5449, -0.817638 10.5174, -0.122611 10.4902, 0.545796 " /><path d="M10.4902, 0.545796 C10.4902, 0.955174 10.4902, 1.34953 10.4902, 1.70122  C10.4902, 1.75043 10.4902, 1.79964 10.4902, 1.84885  C10.4902, 1.94457 10.4902, 2.03703 10.4902, 2.12624  C10.4902, 2.21347 10.4902, 2.29702 10.4902, 2.37688  C10.4902, 2.45454 10.4902, 2.52812 10.4902, 2.59762 " /><path d="M10.3664, 3.175 Q10.3775, 3.17499 10.3886, 3.15587 " /><path d="M10.3886, 3.15587 C10.4225, 3.09812 10.4563, 2.90415 10.4902, 2.59762 " /><path d="M10.4902, 2.59762 C10.5938, 2.11866 10.7013, 1.46924 10.8134, 0.794377  C10.9134, 0.194484 11.017, -0.4208 11.1252, -0.917571 " /><path d="M11.1252, -0.917571 Q11.1252, -0.732065 11.1252, -0.542648 " /><path d="M11.1252, -0.542648 C11.1252, -0.314836 11.1252, -0.0537254 11.1252, 0.203992  C11.1252, 0.579955 11.1252, 0.955633 11.1252, 1.28343  C11.1252, 1.6122 11.1252, 1.89217 11.1252, 2.09825  C11.1252, 2.23975 11.1252, 2.34956 11.1252, 2.42769 " /><path id= "83" d=" M 11.1162 2.549 L 11.1252 2.54 " />
<path d="M11.1252, -2.54 L11.1252, -2.53066  L11.1252, -2.5027  L11.1252, -2.45632  L11.1252, -2.39188  L11.1252, -2.30983  L11.1252, -2.2108  L11.1252, -2.0955  L11.1252, -1.96478  L11.1252, -1.81961  L11.1252, -1.66105  L11.1252, -1.49027  L11.1252, -1.30853  L11.1252, -1.11716  L11.1252, -0.917571 " /><path d="M11.1162, 2.549 Q11.121, 2.54394 11.1252, 2.53374 " /><path d="M11.1252, 2.53374 Q11.1252, 2.49453 11.1252, 2.42769 " /><path d="M11.1252, 2.53374 Q11.1252, 2.53999 11.1252, 2.54 " /></g>

</svg>
