<svg xmlns="http://www.w3.org/2000/svg" viewBox="-2.8226776 -3.5210376 20.4429352 15.5080952">
<rect width="100%" height="100%" fill="white"/>
<g   fill="none"
   stroke="rgb(0, 0, 0)"
   stroke-linecap="butt"
   stroke-linejoin="miter"
   stroke-width="0.35"
   transform="scale(1, -1)"
  >
<path d="M-1.41282, -2.25274 L-0.472715, -3.04764 " /><path d="M0.98584, 2.11118 L2.14425, 1.69451 " /><path d="M-1.04197, -1.69101 L-0.964528, -1.75648 " /><path d="M0.685026, 1.50933 L0.771654, 1.47817 " /><path d="M-0.331143, -3.14726 L11.6897, -10.0875 " /><path d="M2.28355, 1.62996 L14.3044, -5.31026 " /><path d="M11.8473, -10.1605 L13.0058, -10.5772 " /><path d="M14.4294, -5.39823 L15.3695, -6.19313 " /></g>
<g   fill="none"
   stroke="rgb(0, 0, 0)"
   stroke-linecap="butt"
   stroke-linejoin="miter"
   stroke-width="0.35"
   transform="scale(1, -1)"
  >
<path d="M0.258333, -0.416513 Q0.381971, -0.175327 0.546754, 0.020881 " /><path d="M1.59453, 0.9206 C1.58549, 0.775348 1.57791, 0.722361 1.57064, 0.669642  C1.56304, 0.614558 1.55634, 0.577216 1.54833, 0.535599  C1.53927, 0.49366 1.53022, 0.451722 1.52116, 0.409783  C1.49092, 0.283072 1.45228, 0.156218 1.40527, 0.029219  C1.29601, -0.266365 1.14296, -0.555946 0.962018, -0.813146  C0.600705, -1.33056 0.128311, -1.70386 -0.286851, -1.81807  C-0.588185, -1.90404 -0.85731, -1.85816 -1.04602, -1.69741 " /><path d="M-1.04602, -1.69741 C-1.213, -1.55707 -1.3174, -1.32925 -1.34746, -1.05266  C-1.37833, -0.776515 -1.33493, -0.452997 -1.22796, -0.132377  C-1.06218, 0.371675 -0.737663, 0.859317 -0.378029, 1.168  C-0.0186614, 1.48123 0.367256, 1.6104 0.647469, 1.529  C0.661164, 1.52463 0.674859, 1.52026 0.688555, 1.51589 " /><path d="M0.688555, 1.51589 C0.954671, 1.42249 1.11089, 1.13645 1.11796, 0.768738  C1.12827, 0.402217 0.991003, -0.0373903 0.765034, -0.401704  C0.553673, -0.746949 0.268928, -1.01998 0.000540789, -1.14997  C-0.268485, -1.28292 -0.516922, -1.27198 -0.675172, -1.13605 " /><path d="M-0.675172, -1.13605 C-0.703236, -1.11232 -0.728562, -1.08516 -0.751148, -1.05458  C-0.892236, -0.866765 -0.915576, -0.549992 -0.828596, -0.226532  C-0.743908, 0.097456 -0.552687, 0.420436 -0.332881, 0.634884  C-0.0798022, 0.886318 0.201729, 0.985063 0.387825, 0.914455 " /><path d="M0.387825, 0.914455 C0.52669, 0.865155 0.614073, 0.730158 0.635418, 0.55476  C0.662382, 0.348699 0.597106, 0.0914207 0.47743, -0.12262  C0.416726, -0.231234 0.347574, -0.325275 0.269975, -0.404743  C0.226162, -0.449588 0.181716, -0.488028 0.136635, -0.520063  C0.125445, -0.527612 0.114255, -0.535161 0.103065, -0.54271  C0.0940606, -0.548312 0.0821779, -0.555338 0.0674174, -0.563788  C0.0524088, -0.572167 0.0431343, -0.576542 -0.0110044, -0.604524 " /><path d="M1.59453, 0.9206 L2.06829, 1.19413 " /><path d="M2.06829, 1.19413 C2.05943, 1.0394 2.05096, 0.960343 2.04257, 0.894005  C2.0344, 0.829844 2.02563, 0.771868 2.01624, 0.720077  C2.00533, 0.665794 1.99441, 0.611512 1.98349, 0.557229  C1.9467, 0.393058 1.89886, 0.228205 1.83997, 0.0626673  C1.70311, -0.322526 1.50809, -0.702929 1.27491, -1.04326  C0.809445, -1.7278 0.190568, -2.23449 -0.362116, -2.40163  C-0.777481, -2.53144 -1.15223, -2.47503 -1.41282, -2.25274 " /><path d="M-1.41282, -2.25274 C-1.63082, -2.06931 -1.76992, -1.77348 -1.81361, -1.41219  C-1.85828, -1.05147 -1.80758, -0.626681 -1.67284, -0.201153  C-1.45984, 0.481618 -1.02686, 1.15579 -0.535374, 1.59314  C-0.0447351, 2.0366 0.492976, 2.2353 0.892202, 2.13871  C0.924297, 2.13127 0.95551, 2.1221 0.98584, 2.11118 " /><path d="M0.98584, 2.11118 C1.35129, 1.98297 1.57224, 1.59365 1.5891, 1.08394  C1.61049, 0.576371 1.42901, -0.0409595 1.11638, -0.565831  C0.813086, -1.08161 0.391095, -1.50062 -0.0132808, -1.70328  C-0.418446, -1.91076 -0.799041, -1.90001 -1.04197, -1.69101 " /><path d="M-1.04197, -1.69101 C-1.07376, -1.66411 -1.10328, -1.63421 -1.13052, -1.60128  C-1.3558, -1.33355 -1.4098, -0.861632 -1.28875, -0.362094  C-1.17169, 0.137463 -0.884104, 0.653087 -0.538096, 1.00947  C-0.122567, 1.44554 0.362409, 1.63198 0.685025, 1.50933 " /><path d="M0.685025, 1.50933 C0.901186, 1.4327 1.04648, 1.22969 1.09417, 0.956234  C1.15682, 0.61466 1.06275, 0.167186 0.859833, -0.22478  C0.759292, -0.420936 0.633589, -0.603086 0.495941, -0.755099  C0.416858, -0.842378 0.335314, -0.918892 0.251308, -0.984642  C0.230367, -1.00026 0.209425, -1.01587 0.188484, -1.03148  C0.168369, -1.04583 0.145628, -1.06097 0.120261, -1.07692  C0.0940277, -1.09338 0.0625676, -1.11221 5.55112e-16, -1.14508 " /><path d="M-0.0110044, -0.604524 L5.6552e-16, -1.14508 " /><path d="M2.06829, 1.19413 L3.28451, 0.671568 " /><path d="M3.28451, 0.671568 C3.27571, 0.513731 3.26695, 0.426114 3.25819, 0.355303  C3.24972, 0.286958 3.24051, 0.224616 3.23055, 0.168279  C3.22041, 0.110274 3.20888, 0.0519383 3.19596, -0.0067282  C3.15702, -0.183199 3.10616, -0.36053 3.04336, -0.538722  C2.89744, -0.953339 2.68864, -1.36356 2.43831, -1.7312  C1.93871, -2.47056 1.27161, -3.02115 0.67383, -3.20562  C0.291746, -3.32698 -0.0603639, -3.30459 -0.331143, -3.14726 " /><path d="M-0.331143, -3.14726 Q-0.406139, -3.10394 -0.472715, -3.04764 " /><path d="M2.14425, 1.69451 Q2.2173, 1.66821 2.28355, 1.62996 " /><path d="M2.28355, 1.62996 C2.52619, 1.49072 2.69421, 1.2306 2.76547, 0.894576 " /><path d="M5.75061e-16, -1.14508 L0.00418475, -1.14818 " /><path d="M3.28451, 0.671568 L15.3053, -6.26865 " /><path d="M15.3053, -6.26865 C15.2965, -6.42649 15.2878, -6.51411 15.279, -6.58492  C15.2705, -6.65326 15.2613, -6.7156 15.2514, -6.77194  C15.2412, -6.82995 15.2297, -6.88828 15.2168, -6.94695  C15.1778, -7.12342 15.127, -7.30075 15.0642, -7.47894  C14.9183, -7.89356 14.7095, -8.30379 14.4591, -8.67142  C13.9595, -9.41078 13.2924, -9.96137 12.6946, -10.1458  C12.3831, -10.2445 12.091, -10.2486 11.8473, -10.1605 " /><path d="M11.8473, -10.1605 Q11.7647, -10.1308 11.6897, -10.0875 " /><path d="M14.3044, -5.31026 Q14.3706, -5.34852 14.4294, -5.39823 " /><path d="M14.4294, -5.39823 Q14.666, -5.60065 14.7645, -5.95641 " /><path d="M15.3053, -6.26865 L16.2104, -6.97084 " /><path d="M16.2104, -6.97084 C16.2016, -7.12557 16.1931, -7.20462 16.1847, -7.27096  C16.1765, -7.33512 16.1678, -7.3931 16.1584, -7.44489  C16.1475, -7.49917 16.1365, -7.55345 16.1256, -7.60774  C16.0888, -7.77191 16.041, -7.93676 15.9821, -8.1023  C15.8452, -8.48749 15.6502, -8.86789 15.417, -9.20823  C14.9516, -9.89277 14.3327, -10.3994 13.78, -10.5666  C13.4952, -10.6551 13.2285, -10.6577 13.0058, -10.5772 " /><path d="M15.3695, -6.19313 Q15.5106, -6.31294 15.599, -6.49648 " /></g>

</svg>
