<svg xmlns="http://www.w3.org/2000/svg" viewBox="-1.6 -4.745 23.2 9.151710000000001">
<rect width="100%" height="100%" fill="white"/>
<g   fill="none"
   stroke="rgb(0, 0, 0)"
   stroke-linecap="butt"
   stroke-linejoin="miter"
   stroke-width="0.35"
   transform="scale(1, -1)"
  >
<path d="M0, -2.58718 L1.5, -2.80671 " /><path d="M1.5, -2.80671 L18.5, -2.80671 " /><path d="M18.5, -2.80671 L20, -2.58718 " /></g>
<g   fill="none"
   stroke="rgb(0, 0, 0)"
   stroke-linecap="butt"
   stroke-linejoin="miter"
   stroke-width="0.35"
   transform="scale(1, -1)"
  >
<path d="M0, 2.925 C0, 2.8868 0, 2.85817 0, 2.80508  C0, 2.75305 0, 2.6854 0, 2.60211  C0, 2.40856 0, 2.13276 0, 1.803  C0, 1.14473 0, 0.269504 0, -0.51211  C0, -1.10865 0, -1.64577 0, -2.01505  C0, -2.38694 0, -2.58874 0, -2.58718 " /><path d="M0, 2.925 L1.5, 3.145 " /><path d="M1.5, 3.145 C1.5, 3.10665 1.5, 3.07571 1.5, 3.01977  C1.5, 2.96471 1.5, 2.89277 1.5, 2.80397  C1.5, 2.5976 1.5, 2.30231 1.5, 1.9483  C1.5, 1.24174 1.5, 0.29833 1.5, -0.547061  C1.5, -1.19479 1.5, -1.77978 1.5, -2.18236  C1.5, -2.58778 1.5, -2.80842 1.5, -2.80671 " /><path d="M1.5, -2.80671 C1.5, -2.80863 1.5, -2.56285 1.5, -2.13844 " /><path d="M1.5, 3.145 L18.5, 3.145 " /><path d="M18.5, 3.145 C18.5, 3.10665 18.5, 3.07571 18.5, 3.01977  C18.5, 2.96471 18.5, 2.89277 18.5, 2.80397  C18.5, 2.5976 18.5, 2.30231 18.5, 1.9483  C18.5, 1.24174 18.5, 0.29833 18.5, -0.547061  C18.5, -1.19479 18.5, -1.77978 18.5, -2.18236  C18.5, -2.58778 18.5, -2.80842 18.5, -2.80671 " /><path d="M18.5, -2.27943 Q18.5, -2.21252 18.5, -2.13844 " /><path d="M18.5, -1.49439 L18.5, -1.46307 " /><path d="M18.5, 3.145 L20, 2.925 " /><path d="M20, 2.925 C20, 2.8868 20, 2.85817 20, 2.80508  C20, 2.75305 20, 2.6854 20, 2.60211  C20, 2.40856 20, 2.13276 20, 1.803  C20, 1.14472 20, 0.269513 20, -0.51211  C20, -1.10865 20, -1.64578 20, -2.01504  C20, -2.38694 20, -2.58875 20, -2.58718 " /><path d="M20, -2.58718 C20, -2.58928 20, -2.34132 20, -1.91928 " /><path d="M20, -1.48248 Q20, -1.367 20, -1.24409 " /><path d="M20, -0.500392 L20, -0.0155626 " /><path d="M20, -1.91171 C20, -1.91259 20, -1.77644 20, -1.53833 " /><path d="M20, 1.26472 Q20, 1.5723 20, 1.57423 " /><path d="M20, -1.91928 C20, -1.92219 20, -1.65996 20, -1.24409 " /><path d="M20, -0.65425 Q20, -0.339145 20, -0.0155626 " /><path d="M20, 1.47834 Q20, 1.58158 20, 1.58163 " /><path d="M20, -0.446403 L20, -0.0155626 " /><path d="M20, 1.4988e-15 Q20, 0.161024 20, 0.305565 " /><path d="M20, 0.176134 C20, 0.147031 20, 0.131188 20, 0.0953426  C20, 0.0752229 20, 0.063714 20, 3.89044e-15 " /></g>

</svg>
