<svg xmlns="http://www.w3.org/2000/svg" viewBox="-0.26840760799999996 -0.25284500800000004 3.666252616 1.914450016">
<rect width="100%" height="100%" fill="white"/>
<g   fill="none"
   stroke="rgb(0, 0, 0)"
   stroke-linecap="butt"
   stroke-linejoin="miter"
   stroke-width="0.35"
   transform="scale(1, -1)"
  >
<path d="M2.255, -2.77556e-17 C2.24222, -0.171509 2.2315, -0.231043 2.22122, -0.290469  C2.21047, -0.352557 2.201, -0.393558 2.18967, -0.43886  C2.17826, -0.484294 2.16545, -0.529256 2.15125, -0.573746  C2.10847, -0.707545 2.05384, -0.835593 1.98735, -0.957889  C1.83284, -1.24265 1.61639, -1.48909 1.3605, -1.67615  C0.849526, -2.05436 0.181459, -2.17752 -0.405668, -2.02384  C-0.995527, -1.87657 -1.49166, -1.45835 -1.73455, -0.932685  C-1.98357, -0.408762 -1.97631, 0.209658 -1.73659, 0.706168  C-1.50216, 1.20629 -1.04321, 1.57405 -0.534614, 1.69781  C-0.0263912, 1.82732 0.519378, 1.71263 0.915659, 1.4148  C1.31613, 1.12096 1.55938, 0.653075 1.57969, 0.185705  C1.6051, -0.282443 1.40978, -0.739367 1.08192, -1.03295  C0.756743, -1.33096 0.308545, -1.46062 -0.098797, -1.39766  C-0.50781, -1.33894 -0.8671, -1.09168 -1.06228, -0.760445  C-1.26181, -0.430659 -1.29482, -0.0261896 -1.17181, 0.308462  C-1.05204, 0.645381 -0.781617, 0.905735 -0.470765, 1.01295  C-0.160262, 1.12414 0.18222, 1.08207 0.438077, 0.923711  C0.696488, 0.767548 0.863766, 0.501074 0.898617, 0.230131  C0.936749, -0.0413075 0.844435, -0.310251 0.675188, -0.487772  C0.589339, -0.577872 0.491544, -0.644151 0.381802, -0.686607  C0.319842, -0.710552 0.256985, -0.726202 0.193231, -0.73356  C0.177406, -0.734893 0.161581, -0.736226 0.145757, -0.73756  C0.133022, -0.738053 0.116217, -0.738256 0.0953426, -0.738168  C0.0741172, -0.737817 0.0610011, -0.736618 -0.0155626, -0.732606 " /><path d="M2.255, 2.77556e-17 L2.925, 0 " /><path d="M2.925, -2.77556e-17 C2.91247, -0.183237 2.90049, -0.27407 2.88862, -0.349384  C2.87708, -0.422194 2.86467, -0.486996 2.8514, -0.543789  C2.83779, -0.603105 2.82235, -0.661867 2.80508, -0.720075  C2.75305, -0.895131 2.6854, -1.06321 2.60211, -1.2243  C2.40856, -1.59929 2.13276, -1.92729 1.803, -2.17923  C1.14473, -2.68848 0.269504, -2.87143 -0.51211, -2.68533  C-1.29673, -2.50779 -1.97099, -1.96791 -2.31255, -1.2715  C-2.66236, -0.578071 -2.67424, 0.255238 -2.36575, 0.936515  C-2.06453, 1.62212 -1.4522, 2.14165 -0.757133, 2.32976  C-0.063265, 2.52595 0.697173, 2.38909 1.26176, 1.98849  C1.83164, 1.59368 2.19463, 0.946199 2.2425, 0.283437  C2.29792, -0.379739 2.03979, -1.04322 1.5788, -1.4824  C1.12207, -1.92743 0.474583, -2.14028 -0.129897, -2.06692  C-0.736158, -2.00027 -1.28623, -1.65168 -1.59879, -1.16177  C-1.9174, -0.674564 -1.99375, -0.0584026 -1.82256, 0.467808  C-1.65703, 0.996871 -1.25031, 1.42502 -0.760982, 1.61684  C-0.272923, 1.81453 0.285816, 1.77408 0.720414, 1.53129  C1.15861, 1.29296 1.4642, 0.860083 1.54739, 0.397448  C1.63599, -0.0651955 1.50295, -0.546715 1.21599, -0.883292  C1.0738, -1.05244 0.89603, -1.18664 0.701366, -1.27549  C0.589526, -1.32646 0.474206, -1.36251 0.355404, -1.38364  C0.325788, -1.38795 0.296172, -1.39227 0.266556, -1.39658  C0.23811, -1.39993 0.205949, -1.40239 0.170075, -1.40399  C0.132975, -1.4056 0.0884839, -1.40641 7.77156e-16, -1.40243 " /><path d="M-0.0155626, -0.732606 L7.77156e-16, -1.40243 " /><path d="M2.925, 0 L3.145, 0 " /><path d="M3.145, 0 C3.13256, -0.187088 3.12016, -0.288199 3.10777, -0.368729  C3.0958, -0.446449 3.08277, -0.516287 3.06868, -0.578243  C3.05435, -0.642118 3.03805, -0.705411 3.01977, -0.768123  C2.96471, -0.956726 2.89277, -1.13794 2.80397, -1.31178  C2.5976, -1.7164 2.30231, -2.07117 1.9483, -2.34442  C1.24174, -2.89667 0.29833, -3.09931 -0.547061, -2.90254  C-1.39561, -2.7151 -2.1284, -2.1352 -2.50234, -1.38275  C-2.88522, -0.633696 -2.90343, 0.270244 -2.57234, 1.01215  C-2.31718, 1.59743 -1.8557, 2.07863 -1.29964, 2.35509  C-0.744779, 2.63483 -0.100438, 2.70815 0.48731, 2.56963  C1.07622, 2.43433 1.60362, 2.08912 1.95699, 1.62077  C2.31324, 1.1541 2.49311, 0.568908 2.46659, 1.77636e-15 " /><path d="M7.91034e-16, -1.40243 L0.000147178, -1.40876 " /></g>

</svg>
