<svg xmlns="http://www.w3.org/2000/svg" viewBox="-8.8378484 -8.8897684 30.3023668 23.3908868">
<rect width="100%" height="100%" fill="white"/>
<g   fill="none"
   stroke="rgb(0, 0, 0)"
   stroke-linecap="butt"
   stroke-linejoin="miter"
   stroke-width="0.35"
   transform="scale(1, -1)"
  >
<path id= "1" d=" M 0.50674 -3.38167 L 1.84436 -4.15394 " />
<path id= "2" d=" M 3.21384 1.23359 L 4.5196 0.479709 " />
<path id= "3" d=" M 1.7828 -4.1184 L 2.16508 -4.42882 " />
<path id= "4" d=" M 4.45804 0.515253 L 4.59635 0.462375 " />
<path id= "5" d=" M 4.9378 0.331834 L 5.25334 0.2112 " />
<path id= "6" d=" M 2.58008 -4.76582 L 2.75713 -4.90959 " />
<path id= "7" d=" M 5.80707 -0.00049653 L 5.96572 -0.0611489 " />
<path id= "8" d=" M 3.26814 -5.32455 L 3.31831 -5.36528 " />
<path id= "9" d=" M 3.44975 -5.45581 L 3.47627 -5.47113 " />
<path id= "10" d=" M 6.7414 -0.428047 L 6.82982 -0.479098 " />
<path id= "11" d=" M 4.09495 -5.82832 L 4.18338 -5.87937 " />
<path id= "12" d=" M 7.44851 -0.836296 L 7.53693 -0.887346 " />
<path id= "13" d=" M 4.80206 -6.23657 L 4.89048 -6.28762 " />
<path id= "14" d=" M 8.15562 -1.24455 L 8.24403 -1.29559 " />
<path id= "15" d=" M 5.50917 -6.64482 L 5.59759 -6.69587 " />
<path id= "16" d=" M 8.86272 -1.65279 L 8.95114 -1.70384 " />
<path id= "17" d=" M 6.21628 -7.05307 L 6.3047 -7.10412 " />
<path id= "18" d=" M 9.56983 -2.06104 L 9.65825 -2.11209 " />
<path id= "19" d=" M 6.92339 -7.46132 L 7.0118 -7.51237 " />
<path id= "20" d=" M 10.2769 -2.46929 L 10.3654 -2.52034 " />
<path id= "21" d=" M 7.63049 -7.86957 L 7.71891 -7.92062 " />
<path id= "22" d=" M 10.984 -2.87754 L 11.0725 -2.92859 " />
<path id= "23" d=" M 8.3376 -8.27782 L 8.42602 -8.32886 " />
<path id= "24" d=" M 11.6912 -3.28579 L 11.7796 -3.33683 " />
<path id= "25" d=" M 9.04471 -8.68607 L 9.13312 -8.73711 " />
<path id= "26" d=" M 12.3983 -3.69404 L 12.4867 -3.74508 " />
<path id= "27" d=" M 9.75182 -9.09432 L 9.84023 -9.14536 " />
<path id= "28" d=" M 13.1054 -4.10229 L 13.1938 -4.15333 " />
<path id= "29" d=" M 10.4589 -9.50257 L 10.5473 -9.55361 " />
<path id= "30" d=" M 13.8125 -4.51054 L 13.9009 -4.56158 " />
<path id= "31" d=" M 11.166 -9.91082 L 11.2544 -9.96186 " />
<path id= "32" d=" M 14.5196 -4.91879 L 14.608 -4.96983 " />
<path id= "33" d=" M 11.8731 -10.3191 L 11.9615 -10.3701 " />
<path id= "34" d=" M 15.2267 -5.32704 L 15.3151 -5.37808 " />
<path id= "35" d=" M 12.5803 -10.7273 L 12.6687 -10.7784 " />
<path id= "36" d=" M 15.9338 -5.73529 L 16.0222 -5.78632 " />
<path id= "37" d=" M 13.2874 -11.1356 L 13.3758 -11.1866 " />
<path id= "38" d=" M 16.6409 -6.14354 L 16.7293 -6.19457 " />
<path id= "39" d=" M 13.9945 -11.5438 L 14.0829 -11.5948 " />
<path id= "40" d=" M 17.348 -6.55179 L 17.4364 -6.60282 " />
<path id= "41" d=" M 14.7016 -11.9521 L 14.79 -12.0031 " />
<path id= "42" d=" M 18.0551 -6.96003 L 18.1435 -7.01107 " />
<path id= "43" d=" M 15.4087 -12.3603 L 15.4971 -12.4113 " />
<path id= "44" d=" M 17.6777 -12.1658 L 17.4271 -12.3105 " />
</g>
<g   fill="none"
   stroke="rgb(0, 0, 0)"
   stroke-linecap="butt"
   stroke-linejoin="miter"
   stroke-width="0.35"
   transform="scale(1, -1)"
  >
<path d="M0.707107 3.67423 A5 2.88675 60 0 1 0.233435 5.442" />
<path d="M0.233435 1.35952 A5 2.88675 60 0 1 0.707107 3.67423" />
<path d="M-2.82843 -2.44949 A5 2.88675 60 0 1 0.233435 1.35952" />
<path d="M-5.89029 -2.17602 A5 2.88675 60 0 1 -2.82843 -2.44949" />
<path d="M-5.89029 1.90647 A5 2.88675 60 0 1 -5.89029 -2.17602" />
<path d="M-2.82843 5.71548 A5 2.88675 60 0 1 -5.89029 1.90647" />
<path d="M0.233435 5.442 A5 2.88675 60 0 1 -2.82843 5.71548" />
<path d="M0.233435, 5.442 C0.557691, 4.98113 0.932873, 4.49103 1.41694, 3.89598 " /><path d="M-2.82843, 5.71548 C-2.18043, 6.08901 -1.4817, 6.4328 -0.624304, 6.79995 " /><path d="M-0.624304, 6.79995 C-0.361708, 6.33276 -0.0897961, 5.90228 0.233435, 5.442 " /><path d="M-5.89029, 1.90647 C-5.56603, 2.74057 -5.19085, 3.54466 -4.70679, 4.44293 " /><path d="M-4.70679, 4.44293 C-4.07086, 4.93794 -3.4754, 5.34135 -2.82843, 5.71548 " /><path d="M-5.89029, -2.17602 C-6.21352, -1.71574 -6.48543, -1.28525 -6.74803, -0.818069 " /><path d="M-6.74803, -0.818069 C-6.48543, 0.208066 -6.21352, 1.07177 -5.89029, 1.90647 " /><path d="M-4.70679, -3.72204 C-5.19085, -3.12699 -5.56603, -2.63688 -5.89029, -2.17602 " /><path d="M-2.82843, -2.44949 C-3.4754, -2.82361 -4.07086, -3.22702 -4.70679, -3.72204 " /><path d="M-0.624304, -1.36502 C-1.4817, -1.73217 -2.18043, -2.07596 -2.82843, -2.44949 " /><path d="M0.233435, 1.35952 C-0.0897961, 0.524823 -0.361708, -0.338883 -0.624304, -1.36502 " /><path d="M1.41694, 3.89598 C0.932873, 2.99771 0.557691, 2.19362 0.233435, 1.35952 " /><path id= "20" d=" M 1.68769 5.46512 L 3.72893 2.56115 " />
<path id= "21" d=" M 1.41694 3.89598 L 3.72893 2.56115 " />
<path id= "22" d=" M 1.68769 5.46512 L -0.624304 6.79995 " />
<path id= "23" d=" M -2.39479 -5.05687 L -4.70679 -3.72204 " />
<path id= "24" d=" M 1.68769 -2.69985 L -2.39479 -5.05687 " />
<path id= "25" d=" M 1.68769 -2.69985 L -0.624304 -1.36502 " />
<path id= "26" d=" M 3.72893 2.56115 L 1.68769 -2.69985 " />
<path d="M2.40368 -0.854494 A4.37 2.52302 60 0 1 2.88353 0.382259" />
<path d="M5.07366 -0.744955 A2.67524 1.54455 60 0 1 4.5196 0.479709" />
<path d="M1.84436 -4.15394 A2.67524 1.54455 60 0 1 5.07366 -0.744955" />
<path d="M5.33382, -0.860618 C5.30616, -0.194567 5.03048, 0.301465 4.59635, 0.462375 " /><path d="M4.74718, 0.388408 Q4.84585, 0.366972 4.9378, 0.331834 " /><path d="M4.9378, 0.331834 C5.4477, 0.142421 5.77546, -0.38209 5.80782, -1.07136 " /><path d="M5.33382, -0.860619 C5.34984, -1.16537 5.3131, -1.50093 5.22766, -1.84139  C5.06343, -2.50383 4.70919, -3.18035 4.27177, -3.68636  C3.83396, -4.19796 3.31867, -4.53088 2.87754, -4.59681  C2.6001, -4.64024 2.35248, -4.58158 2.16508, -4.42882 " /><path d="M5.25334, 0.2112 C5.73945, 0.030236 6.04578, -0.496204 6.07703, -1.19105 " /><path d="M6.07703, -1.19105 C6.0928, -1.50406 6.0552, -1.8482 5.96824, -2.1977  C5.79844, -2.88845 5.42974, -3.59552 4.97304, -4.12581  C4.51601, -4.66186 3.97692, -5.01261 3.51407, -5.08482  C3.21924, -5.1329 2.95591, -5.07164 2.75713, -4.90959 " /><path d="M5.96572, -0.0611488 C6.4712, -0.24931 6.78913, -0.797662 6.82024, -1.52148 " /><path d="M5.80782, -1.07136 C5.84564, -1.68096 5.6708, -2.41135 5.34134, -3.06343  C5.17705, -3.39073 4.97607, -3.69798 4.75454, -3.96305  C4.31012, -4.49775 3.78321, -4.85122 3.32993, -4.93021  C3.03735, -4.98327 2.77607, -4.92563 2.58008, -4.76582 " /><path d="M2.58008, -4.76582 Q2.47523, -4.68062 2.39628, -4.55936 " /><path d="M5.50922, 0.0718812 Q5.666, 0.0533999 5.80707, -0.000496338 " /><path d="M5.80707, -0.000496338 C6.31382, -0.189187 6.63482, -0.73513 6.67155, -1.45537 " /><path d="M3.31831 -5.36528 A3 1.73205 60 0 1 3.44975 -5.45581" />
<path d="M3.44975 -5.45581 A3 1.73205 60 0 1 3.84144 -5.58621" />
<path d="M6.82024, -1.52148 C6.84182, -1.96144 6.76081, -2.46082 6.59101, -2.95259  C6.42356, -3.44002 6.16952, -3.91856 5.86552, -4.32557  C5.56112, -4.7344 5.20743, -5.07015 4.85433, -5.28937  C4.49814, -5.51163 4.14368, -5.61469 3.84144, -5.58621 " /><path d="M6.67155, -1.45537 C6.68838, -1.75419 6.65853, -2.08033 6.58498, -2.41304  C6.44018, -3.07533 6.11713, -3.76077 5.70177, -4.30695  C5.28244, -4.86286 4.77299, -5.27016 4.30664, -5.43286  C3.89995, -5.5776 3.5288, -5.53795 3.26814, -5.32455 " /><path d="M3.26814, -5.32455 Q3.13841, -5.21909 3.04647, -5.06202 " /><path d="M6.32526, -0.282666 Q6.55139, -0.318514 6.7414, -0.428047 " /><path d="M6.7414, -0.428047 C7.16571, -0.669345 7.42389, -1.19197 7.45111, -1.85241 " /><path d="M3.84144, -5.58621 Q3.64065, -5.56586 3.47627, -5.47113 " /><path d="M6.82982, -0.479098 C7.25414, -0.720397 7.51233, -1.24302 7.53953, -1.90346 " /><path d="M7.45111, -1.85241 C7.47997, -2.46006 7.31334, -3.17753 6.99866, -3.83299  C6.77773, -4.29623 6.48582, -4.72706 6.16235, -5.07233  C5.8954, -5.35796 5.60755, -5.58523 5.32534, -5.73509  C4.86139, -5.98342 4.41571, -6.0158 4.09495, -5.82832 " /><path d="M4.09495, -5.82832 Q3.93821, -5.73768 3.82342, -5.58424 " /><path d="M7.11133, -0.705909 Q7.29246, -0.746279 7.44851, -0.836296 " /><path d="M7.44851, -0.836296 C7.87282, -1.07759 8.131, -1.60022 8.15822, -2.26066 " /><path d="M7.53953, -1.90346 C7.57348, -2.59902 7.3476, -3.43868 6.94262, -4.16427  C6.69322, -4.61479 6.37921, -5.02014 6.04323, -5.32989  C5.82283, -5.5329 5.60014, -5.69168 5.37518, -5.8062  C4.92507, -6.03635 4.49527, -6.0615 4.18338, -5.87938 " /><path d="M7.53693, -0.887346 C7.96124, -1.12865 8.21943, -1.65126 8.24664, -2.31171 " /><path d="M8.15822, -2.26066 C8.18708, -2.86831 8.02045, -3.58578 7.70577, -4.24123  C7.48484, -4.70447 7.19294, -5.1353 6.86947, -5.48057  C6.60273, -5.76598 6.31512, -5.99312 6.03312, -6.14298  C5.56894, -6.39163 5.12297, -6.42414 4.80206, -6.23657 " /><path d="M4.80206, -6.23657 Q4.64532, -6.14593 4.53053, -5.99249 " /><path d="M7.81844, -1.11416 Q7.99956, -1.15453 8.15562, -1.24455 " /><path d="M8.15562, -1.24455 C8.57993, -1.48584 8.83811, -2.00846 8.86532, -2.66891 " /><path d="M8.24664, -2.31171 C8.28059, -3.00727 8.0547, -3.84693 7.64972, -4.57252  C7.40033, -5.02304 7.08632, -5.42839 6.75033, -5.73814  C6.52993, -5.94115 6.30725, -6.09993 6.08228, -6.21445  C5.63217, -6.4446 5.20238, -6.46974 4.89048, -6.28762 " /><path d="M8.24403, -1.29559 C8.66835, -1.53689 8.92654, -2.05951 8.95374, -2.71996 " /><path d="M8.86532, -2.66891 C8.89419, -3.27656 8.72756, -3.99402 8.41288, -4.64948  C8.19195, -5.11271 7.90006, -5.54353 7.57659, -5.88881  C7.31005, -6.174 7.02268, -6.40101 6.74089, -6.55088  C6.27647, -6.79985 5.83023, -6.83248 5.50917, -6.64482 " /><path d="M8.86272, -1.65279 C9.28704, -1.89409 9.54522, -2.41671 9.57243, -3.07716 " /><path d="M8.95374, -2.71996 C8.9877, -3.41552 8.76181, -4.25518 8.35683, -4.98077  C8.10743, -5.43129 7.79342, -5.83663 7.45744, -6.14638  C7.23704, -6.3494 7.01435, -6.50818 6.78938, -6.6227  C6.33928, -6.85285 5.90948, -6.87799 5.59759, -6.69587 " /><path d="M8.95114, -1.70384 C9.37546, -1.94514 9.63365, -2.46776 9.66085, -3.1282 " /><path d="M9.57243, -3.07716 C9.6013, -3.6848 9.43467, -4.40227 9.11999, -5.05772  C8.89907, -5.52095 8.60717, -5.95177 8.28371, -6.29704  C8.01738, -6.58202 7.73024, -6.80891 7.44866, -6.95877  C6.984, -7.20806 6.53749, -7.24082 6.21628, -7.05307 " /><path d="M6.21628, -7.05307 Q6.05954, -6.96243 5.94474, -6.80898 " /><path d="M9.23265, -1.93066 Q9.41378, -1.97103 9.56983, -2.06104 " /><path d="M9.56983, -2.06104 C9.99415, -2.30234 10.2523, -2.82496 10.2795, -3.48541 " /><path d="M9.66085, -3.1282 C9.6948, -3.82376 9.46892, -4.66343 9.06393, -5.38902  C8.81454, -5.83954 8.50053, -6.24488 8.16455, -6.55463  C7.94414, -6.75766 7.72145, -6.91643 7.49647, -7.03096  C7.04638, -7.2611 6.61659, -7.28624 6.3047, -7.10412 " /><path d="M9.65825, -2.11209 C10.0826, -2.35339 10.3408, -2.87601 10.368, -3.53645 " /><path d="M10.2795, -3.48541 C10.3084, -4.09305 10.1418, -4.81051 9.8271, -5.46596  C9.60618, -5.92919 9.31429, -6.36001 8.99083, -6.70528  C8.72471, -6.99002 8.43784, -7.21677 8.15647, -7.36665  C7.69156, -7.61627 7.24476, -7.64917 6.92338, -7.46132 " /><path d="M6.92338, -7.46132 Q6.76664, -7.37068 6.65185, -7.21723 " /><path d="M9.93976, -2.3389 Q10.1209, -2.37927 10.2769, -2.46929 " /><path d="M10.2769, -2.46929 C10.7013, -2.71059 10.9594, -3.23321 10.9866, -3.89366 " /><path d="M10.368, -3.53645 C10.4019, -4.23201 10.176, -5.07168 9.77104, -5.79727  C9.52164, -6.24779 9.20763, -6.65313 8.87165, -6.96288  C8.65124, -7.16591 8.42855, -7.32468 8.20357, -7.43921  C7.75348, -7.66935 7.32369, -7.69448 7.0118, -7.51237 " /><path d="M10.3654, -2.52034 C10.7897, -2.76164 11.0479, -3.28426 11.0751, -3.9447 " /><path d="M10.9866, -3.89366 C11.0155, -4.5013 10.8489, -5.21875 10.5342, -5.87421  C10.3133, -6.33743 10.0214, -6.76825 9.69795, -7.11352  C9.43205, -7.39803 9.14541, -7.62466 8.86426, -7.77453  C8.39911, -8.02448 7.95202, -8.05751 7.63049, -7.86957 " /><path d="M7.63049, -7.86957 Q7.47375, -7.77893 7.35896, -7.62548 " /><path d="M10.6469, -2.74715 Q10.828, -2.78752 10.984, -2.87754 " /><path d="M10.984, -2.87754 C11.4084, -3.11884 11.6665, -3.64146 11.6938, -4.3019 " /><path d="M11.0751, -3.9447 C11.109, -4.64026 10.8831, -5.47993 10.4781, -6.20552  C10.2287, -6.65604 9.91474, -7.06138 9.57876, -7.37113  C9.35834, -7.57416 9.13565, -7.73294 8.91067, -7.84746  C8.46058, -8.0776 8.03079, -8.10273 7.71891, -7.92062 " /><path d="M11.0725, -2.92859 C11.4968, -3.16989 11.755, -3.6925 11.7822, -4.35295 " /><path d="M11.6938, -4.3019 C11.7226, -4.90955 11.556, -5.627 11.2413, -6.28245  C11.0204, -6.74567 10.7285, -7.17648 10.4051, -7.52175  C10.1394, -7.80604 9.85301, -8.03252 9.57208, -8.1824  C9.10668, -8.43269 8.65929, -8.46586 8.3376, -8.27782 " /><path d="M8.3376, -8.27782 Q8.18086, -8.18718 8.06607, -8.03373 " /><path d="M11.354, -3.1554 Q11.5351, -3.19577 11.6912, -3.28579 " /><path d="M11.6912, -3.28579 C12.1155, -3.52709 12.3737, -4.04971 12.4009, -4.71015 " /><path d="M11.7822, -4.35295 C11.8161, -5.04851 11.5902, -5.88818 11.1853, -6.61377  C10.9359, -7.06429 10.6218, -7.46963 10.2859, -7.77938  C10.0654, -7.98241 9.84274, -8.14119 9.61776, -8.25572  C9.16767, -8.48585 8.7379, -8.51098 8.42602, -8.32886 " /><path d="M11.7796, -3.33683 C12.2039, -3.57813 12.4621, -4.10075 12.4893, -4.7612 " /><path d="M12.4009, -4.71015 C12.4297, -5.31779 12.2631, -6.03524 11.9484, -6.69069  C11.7275, -7.15391 11.4356, -7.58472 11.1122, -7.92999  C10.8467, -8.21403 10.5606, -8.44038 10.2799, -8.59026  C9.81425, -8.8409 9.36657, -8.87421 9.04471, -8.68607 " /><path d="M9.04471, -8.68607 Q8.88797, -8.59543 8.77317, -8.44197 " /><path d="M12.0611, -3.56365 Q12.2422, -3.60402 12.3983, -3.69404 " /><path d="M12.3983, -3.69404 C12.8226, -3.93534 13.0808, -4.45796 13.108, -5.1184 " /><path d="M12.4893, -4.7612 C12.5232, -5.45676 12.2973, -6.29643 11.8924, -7.02202  C11.643, -7.47254 11.329, -7.87788 10.993, -8.18763  C10.7725, -8.39066 10.5498, -8.54944 10.3249, -8.66397  C9.87478, -8.89409 9.445, -8.91923 9.13312, -8.73711 " /><path d="M12.4867, -3.74508 C12.911, -3.98638 13.1692, -4.509 13.1964, -5.16945 " /><path d="M13.108, -5.1184 C13.1368, -5.72604 12.9702, -6.44349 12.6555, -7.09894  C12.4346, -7.56215 12.1428, -7.99296 11.8193, -8.33823  C11.5541, -8.62206 11.2682, -8.84828 10.9877, -8.99817  C10.5218, -9.24912 10.0738, -9.28255 9.75182, -9.09432 " /><path d="M9.75182, -9.09432 Q9.59508, -9.00368 9.48028, -8.85022 " /><path d="M12.7682, -3.9719 Q12.9493, -4.01227 13.1054, -4.10229 " /><path d="M13.1054, -4.10229 C13.5297, -4.34359 13.7879, -4.86621 13.8151, -5.52665 " /><path d="M13.1964, -5.16945 C13.2303, -5.86501 13.0044, -6.70468 12.5995, -7.43026  C12.3501, -7.88078 12.0361, -8.28613 11.7001, -8.59588  C11.4797, -8.79891 11.257, -8.95769 11.032, -9.07221  C10.5819, -9.30234 10.1521, -9.32747 9.84023, -9.14536 " /><path d="M13.1938, -4.15333 C13.6181, -4.39463 13.8763, -4.91725 13.9035, -5.57769 " /><path d="M13.8151, -5.52665 C13.8439, -6.13429 13.6773, -6.85173 13.3627, -7.50718  C13.1417, -7.97039 12.8499, -8.4012 12.5264, -8.74647  C12.2614, -9.03007 11.9757, -9.25616 11.6955, -9.40605  C11.2293, -9.65733 10.7811, -9.6909 10.4589, -9.50257 " /><path d="M10.4589, -9.50257 Q10.3022, -9.41192 10.1874, -9.25847 " /><path d="M13.4753, -4.38015 Q13.6564, -4.42052 13.8125, -4.51054 " /><path d="M13.8125, -4.51054 C14.2368, -4.75184 14.495, -5.27446 14.5222, -5.9349 " /><path d="M13.9035, -5.57769 C13.9374, -6.27325 13.7116, -7.11292 13.3066, -7.83851  C13.0572, -8.28903 12.7432, -8.69438 12.4072, -9.00413  C12.1868, -9.20716 11.9641, -9.36594 11.7391, -9.48046  C11.289, -9.71059 10.8592, -9.73572 10.5473, -9.55361 " /><path d="M13.9009, -4.56158 C14.3252, -4.80288 14.5834, -5.3255 14.6106, -5.98594 " /><path d="M14.5222, -5.9349 C14.5511, -6.54254 14.3844, -7.25998 14.0698, -7.91542  C13.8489, -8.37863 13.557, -8.80944 13.2335, -9.1547  C12.9687, -9.43808 12.6833, -9.66404 12.4033, -9.81393  C11.9369, -10.0655 11.4884, -10.0992 11.166, -9.91082 " /><path d="M11.166, -9.91082 Q11.0093, -9.82017 10.8945, -9.66672 " /><path d="M14.1824, -4.7884 Q14.3635, -4.82877 14.5196, -4.91879 " /><path d="M14.5196, -4.91879 C14.9439, -5.16009 15.2021, -5.68271 15.2293, -6.34315 " /><path d="M14.6106, -5.98594 C14.6445, -6.6815 14.4187, -7.52118 14.0137, -8.24677  C13.7643, -8.69728 13.4503, -9.10263 13.1143, -9.41238  C12.8939, -9.61542 12.6711, -9.7742 12.4462, -9.88873  C11.9961, -10.1188 11.5663, -10.144 11.2544, -9.96186 " /><path d="M14.608, -4.96983 C15.0323, -5.21113 15.2905, -5.73374 15.3177, -6.39419 " /><path d="M15.2293, -6.34315 C15.2582, -6.95078 15.0915, -7.66822 14.7769, -8.32367  C14.556, -8.78687 14.2641, -9.21767 13.9407, -9.56294  C13.6761, -9.84604 13.391, -10.0718 13.1112, -10.2217  C12.6445, -10.4737 12.1957, -10.5076 11.8731, -10.3191 " /><path d="M11.8731, -10.3191 Q11.7164, -10.2284 11.6016, -10.075 " /><path d="M14.8895, -5.19665 Q15.0706, -5.23702 15.2267, -5.32704 " /><path d="M15.2267, -5.32704 C15.651, -5.56834 15.9092, -6.09096 15.9364, -6.7514 " /><path d="M15.3177, -6.39419 C15.3517, -7.08975 15.1258, -7.92943 14.7208, -8.65502  C14.4714, -9.10553 14.1574, -9.51088 13.8214, -9.82063  C13.601, -10.0237 13.3782, -10.1825 13.1533, -10.297  C12.7032, -10.5271 12.2734, -10.5522 11.9615, -10.3701 " /><path d="M15.3151, -5.37808 C15.7394, -5.61938 15.9976, -6.14199 16.0248, -6.80244 " /><path d="M15.9364, -6.7514 C15.9653, -7.35903 15.7987, -8.07647 15.484, -8.73191  C15.2631, -9.19511 14.9712, -9.62591 14.6478, -9.97118  C14.3834, -10.254 14.0986, -10.4797 13.819, -10.6296  C13.3521, -10.8819 12.9029, -10.916 12.5803, -10.7273 " /><path d="M12.5803, -10.7273 Q12.4235, -10.6367 12.3087, -10.4832 " /><path d="M15.5966, -5.6049 Q15.7778, -5.64527 15.9338, -5.73529 " /><path d="M15.9338, -5.73529 C16.3581, -5.97659 16.6163, -6.4992 16.6435, -7.15965 " /><path d="M16.0248, -6.80244 C16.0588, -7.498 15.8329, -8.33767 15.4279, -9.06326  C15.1785, -9.51378 14.8645, -9.91912 14.5285, -10.2289  C14.3081, -10.4319 14.0854, -10.5907 13.8604, -10.7052  C13.4103, -10.9353 12.9805, -10.9605 12.6687, -10.7784 " /><path d="M16.0222, -5.78632 C16.4465, -6.02762 16.7047, -6.55024 16.7319, -7.21069 " /><path d="M16.6435, -7.15965 C16.6724, -7.76728 16.5058, -8.48471 16.1911, -9.14015  C15.9702, -9.60335 15.6783, -10.0341 15.3549, -10.3794  C15.0908, -10.6621 14.8062, -10.8876 14.5268, -11.0375  C14.0596, -11.2902 13.6102, -11.3243 13.2874, -11.1356 " /><path d="M13.2874, -11.1356 Q13.1306, -11.0449 13.0158, -10.8915 " /><path d="M16.3037, -6.01315 Q16.4849, -6.05351 16.6409, -6.14354 " /><path d="M16.6409, -6.14354 C17.0652, -6.38483 17.3234, -6.90746 17.3506, -7.5679 " /><path d="M16.7319, -7.21069 C16.7659, -7.90625 16.54, -8.74592 16.135, -9.47151  C15.8856, -9.92203 15.5716, -10.3274 15.2356, -10.6371  C15.0152, -10.8402 14.7924, -10.999 14.5674, -11.1135  C14.1174, -11.3436 13.6876, -11.3687 13.3758, -11.1866 " /><path d="M16.7293, -6.19457 C17.1536, -6.43587 17.4118, -6.95849 17.439, -7.61893 " /><path d="M17.3506, -7.5679 C17.3795, -8.17553 17.2129, -8.89296 16.8982, -9.54839  C16.6773, -10.0116 16.3855, -10.4424 16.062, -10.7877  C15.7943, -11.0741 15.5055, -11.3019 15.2225, -11.4518  C14.7594, -11.699 14.3147, -11.731 13.9945, -11.5438 " /><path d="M13.9945, -11.5438 Q13.8377, -11.4532 13.7229, -11.2997 " /><path d="M17.0108, -6.42139 Q17.192, -6.46176 17.348, -6.55179 " /><path d="M17.348, -6.55179 C17.7723, -6.79308 18.0305, -7.3157 18.0577, -7.97615 " /><path d="M17.439, -7.61893 C17.473, -8.3145 17.2471, -9.15417 16.8421, -9.87976  C16.5927, -10.3303 16.2787, -10.7356 15.9427, -11.0454  C15.7223, -11.2484 15.4996, -11.4072 15.2746, -11.5217  C14.8245, -11.7518 14.3947, -11.777 14.0829, -11.5948 " /><path d="M17.4364, -6.60282 C17.8607, -6.84412 18.1189, -7.36674 18.1461, -8.02718 " /><path d="M18.0577, -7.97615 C18.0866, -8.58377 17.92, -9.3012 17.6053, -9.95664  C17.3844, -10.4198 17.0926, -10.8506 16.7691, -11.1959  C16.5017, -11.4821 16.2132, -11.7097 15.9305, -11.8596  C15.4671, -12.1072 15.022, -12.1393 14.7016, -11.9521 " /><path d="M14.7016, -11.9521 Q14.5448, -11.8614 14.43, -11.708 " /><path d="M17.7179, -6.82964 Q17.8991, -6.87001 18.0551, -6.96003 " /><path d="M18.0551, -6.96003 C18.4794, -7.20133 18.7376, -7.72395 18.7648, -8.3844 " /><path d="M18.1461, -8.02718 C18.1801, -8.72275 17.9542, -9.56242 17.5492, -10.288  C17.2998, -10.7385 16.9858, -11.1439 16.6498, -11.4536  C16.4294, -11.6567 16.2066, -11.8155 15.9816, -11.93  C15.5316, -12.1601 15.1018, -12.1852 14.79, -12.0031 " /><path d="M18.1435, -7.01107 C18.5678, -7.25237 18.826, -7.77499 18.8532, -8.43543 " /><path d="M18.7648, -8.3844 C18.7937, -8.99202 18.6271, -9.70945 18.3124, -10.3649  C18.0915, -10.8281 17.7997, -11.2589 17.4763, -11.6041  C17.2092, -11.8899 16.9211, -12.1173 16.6388, -12.2672  C16.1749, -12.5154 15.7294, -12.5477 15.4087, -12.3603 " /><path d="M15.4087, -12.3603 Q15.2519, -12.2697 15.1371, -12.1162 " /><path d="M18.425, -7.23789 Q18.5323, -7.26177 18.6311, -7.30326 " /><path d="M19.3747, -8.80769 C19.3779, -8.08715 19.1002, -7.52441 18.6311, -7.30326 " /><path d="M18.8532, -8.43543 C18.8872, -9.131 18.6613, -9.97067 18.2563, -10.6963  C18.0069, -11.1468 17.6929, -11.5521 17.3569, -11.8619  C17.1365, -12.0649 16.9137, -12.2237 16.6887, -12.3382  C16.2387, -12.5683 15.8089, -12.5934 15.4971, -12.4113 " /><path id= "149" d=" M 19.3747 -8.80769 L 19.3747 -9.22641 " />
<path d="M19.3747, -8.80769 C19.3754, -9.2768 19.2599, -9.80687 19.0481, -10.3149  C18.6955, -11.1744 18.0602, -11.9509 17.4271, -12.3105 " /><path d="M17.4271, -12.3105 C17.0113, -12.5518 16.6036, -12.6158 16.2941, -12.4893 " /><path d="M17.6777 -12.1658 A2.4 1.38564 60 0 1 19.3747 -9.22641" />
</g>

</svg>
