<svg xmlns="http://www.w3.org/2000/svg" viewBox="-6.32 -8.0935 33.64 16.187">
<rect width="100%" height="100%" fill="white"/>
<g   fill="none"
   stroke="rgb(0, 0, 0)"
   stroke-linecap="butt"
   stroke-linejoin="miter"
   stroke-width="0.35"
   transform="scale(1, -1)"
  >
<path id= "1" d=" M -4 -5 L -3.76965 -5.7735 " />
<path id= "2" d=" M -0.5 -4.37 L 0 -4.37 " />
<path d="M0.25, -2.67524 C0.182127, -2.67621 0.123666, -2.70016 0.0746171, -2.74708  C0.0272469, -2.79333 -0.000275702, -2.85904 3.46945e-18, -2.92524 " /><path id= "4" d=" M 0.25 -2.67524 L 4.5 -2.67524 " />
<path id= "5" d=" M 4.5 -2.67524 L 5.29072 -2.77796 " />
<path d="M5.2094, 2.4453 Q5.20289, 2.4329 5.18445, 2.4166  Q5.14937, 2.38771 5.10004, 2.38661 " /><path d="M5.40286, 2.77899 L5.2094, 2.4453 " /><path id= "8" d=" M 5.95943 -2.86483 L 6.22094 -2.8988 " />
<path d="M4.99281, 2.44347 L4.84057, 2.70562 " /><path d="M5.49281, -2.44346 L5.30536, -2.7663 " /><path d="M5.70727, -2.44347 Q5.70148, -2.43225 5.68338, -2.41615  Q5.65967, -2.3964 5.62642, -2.38924  Q5.61322, -2.38792 5.60003, -2.38661  Q5.55358, -2.38754 5.51969, -2.41375  Q5.49919, -2.431 5.49281, -2.44346 " /><path d="M6.20727, 2.44348 Q6.20148, 2.43226 6.18338, 2.41616  Q6.14896, 2.38776 6.10003, 2.38661 " /><path d="M5.10004, 2.38661 Q5.05359, 2.38755 5.01969, 2.41376  Q4.99919, 2.43101 4.99281, 2.44347 " /><path d="M5.94291, -2.84949 L5.70727, -2.44347 " /><path d="M6.48383, 2.92007 L6.20727, 2.44348 " /><path d="M5.99281, 2.44347 L5.77016, 2.82696 " /><path d="M6.49281, -2.44346 L6.23497, -2.88761 " /><path d="M6.70727, -2.44347 Q6.70148, -2.43225 6.68338, -2.41615  Q6.65967, -2.3964 6.62642, -2.38924  Q6.61322, -2.38792 6.60003, -2.38661  Q6.55357, -2.38754 6.51969, -2.41375  Q6.49919, -2.431 6.49281, -2.44346 " /><path d="M7.20727, 2.44347 Q7.20148, 2.43225 7.18338, 2.41615  Q7.14895, 2.38775 7.10003, 2.38661 " /><path d="M6.10003, 2.38661 Q6.05358, 2.38754 6.01969, 2.41375  Q5.99919, 2.431 5.99281, 2.44347 " /><path d="M6.70727, -2.44347 L7.02287, -2.98741 " /><path d="M7.20727, 2.44347 L7.52287, 2.98741 " /><path id= "23" d=" M 7.03746 -3 L 7.1625 -3 " />
<path d="M6.9928, 2.44347 L6.6998, 2.94826 " /><path d="M7.4928, -2.44346 L7.17709, -2.98742 " /><path d="M7.70727, -2.44347 Q7.70148, -2.43225 7.68338, -2.41615  Q7.65966, -2.39639 7.62642, -2.38923  Q7.61322, -2.38792 7.60002, -2.3866  Q7.55357, -2.38754 7.51968, -2.41375  Q7.49918, -2.431 7.4928, -2.44346 " /><path d="M8.20727, 2.44347 Q8.20148, 2.43225 8.18338, 2.41615  Q8.14895, 2.38775 8.10003, 2.38661 " /><path d="M7.10003, 2.38661 Q7.05358, 2.38754 7.01969, 2.41375  Q6.99919, 2.431 6.9928, 2.44347 " /><path d="M8.02287, -2.98741 L7.70727, -2.44347 " /><path d="M8.52287, 2.98741 L8.20727, 2.44347 " /><path id= "31" d=" M 8.03746 -3 L 8.1625 -3 " />
<path d="M7.9928, 2.44346 L7.67709, 2.98742 " /><path d="M8.4928, -2.44346 L8.17709, -2.98742 " /><path d="M8.70726, -2.44346 Q8.70148, -2.43225 8.68338, -2.41615  Q8.65966, -2.39639 8.62641, -2.38923  Q8.61322, -2.38792 8.60002, -2.3866  Q8.55357, -2.38754 8.51968, -2.41375  Q8.49918, -2.431 8.4928, -2.44346 " /><path d="M9.20726, 2.44347 Q9.20148, 2.43225 9.18338, 2.41615  Q9.14895, 2.38775 9.10003, 2.3866 " /><path d="M8.10003, 2.38661 Q8.05358, 2.38754 8.01969, 2.41375  Q7.99918, 2.431 7.9928, 2.44346 " /><path d="M9.02288, -2.98741 L8.70726, -2.44346 " /><path d="M9.52287, 2.98741 L9.20726, 2.44347 " /><path id= "39" d=" M 9.03746 -3 L 9.1625 -3 " />
<path d="M8.9928, 2.44346 L8.67709, 2.98742 " /><path d="M9.4928, -2.44346 L9.17709, -2.98742 " /><path d="M9.70726, -2.44346 Q9.70148, -2.43224 9.68338, -2.41614  Q9.65966, -2.39639 9.62641, -2.38923  Q9.61321, -2.38791 9.60002, -2.3866  Q9.55357, -2.38753 9.51968, -2.41375  Q9.49918, -2.431 9.4928, -2.44346 " /><path d="M10.2073, 2.44347 Q10.2015, 2.43225 10.1834, 2.41615  Q10.1489, 2.38775 10.1, 2.3866 " /><path d="M9.10003, 2.3866 Q9.05358, 2.38754 9.01969, 2.41375  Q8.99918, 2.431 8.9928, 2.44346 " /><path d="M10.0229, -2.98741 L9.70726, -2.44346 " /><path d="M10.5229, 2.98741 L10.2073, 2.44347 " /><path id= "47" d=" M 10.0375 -3 L 10.1625 -3 " />
<path d="M9.9928, 2.44346 L9.67709, 2.98742 " /><path d="M10.4928, -2.44345 L10.1771, -2.98742 " /><path d="M10.7073, -2.44346 Q10.7015, -2.43224 10.6834, -2.41614  Q10.6597, -2.39639 10.6264, -2.38923  Q10.6132, -2.38791 10.6, -2.3866  Q10.5536, -2.38753 10.5197, -2.41374  Q10.4992, -2.43099 10.4928, -2.44345 " /><path d="M11.2073, 2.44346 Q11.2015, 2.43224 11.1834, 2.41614  Q11.1489, 2.38774 11.1, 2.3866 " /><path d="M10.1, 2.3866 Q10.0536, 2.38753 10.0197, 2.41374  Q9.99918, 2.431 9.9928, 2.44346 " /><path d="M11.0229, -2.98741 L10.7073, -2.44346 " /><path d="M11.5229, 2.98741 L11.2073, 2.44346 " /><path id= "55" d=" M 11.0375 -3 L 11.1625 -3 " />
<path d="M10.9928, 2.44346 L10.6771, 2.98742 " /><path d="M11.4928, -2.44345 L11.1771, -2.98742 " /><path d="M11.7073, -2.44346 Q11.7015, -2.43224 11.6834, -2.41614  Q11.6597, -2.39638 11.6264, -2.38922  Q11.6132, -2.38791 11.6, -2.38659  Q11.5536, -2.38753 11.5197, -2.41374  Q11.4992, -2.43099 11.4928, -2.44345 " /><path d="M12.2073, 2.44346 Q12.2015, 2.43224 12.1834, 2.41614  Q12.1489, 2.38774 12.1, 2.3866 " /><path d="M11.1, 2.3866 Q11.0536, 2.38753 11.0197, 2.41374  Q10.9992, 2.43099 10.9928, 2.44346 " /><path d="M12.0229, -2.98741 L11.7073, -2.44346 " /><path d="M12.5229, 2.98741 L12.2073, 2.44346 " /><path id= "63" d=" M 12.0375 -3 L 12.1625 -3 " />
<path d="M11.9928, 2.44346 L11.6771, 2.98742 " /><path d="M12.4928, -2.44345 L12.1771, -2.98742 " /><path d="M12.7073, -2.44345 Q12.7015, -2.43224 12.6834, -2.41614  Q12.6597, -2.39638 12.6264, -2.38922  Q12.6132, -2.38791 12.6, -2.38659  Q12.5536, -2.38753 12.5197, -2.41374  Q12.4992, -2.43099 12.4928, -2.44345 " /><path d="M13.2073, 2.44346 Q13.2015, 2.43224 13.1834, 2.41614  Q13.1489, 2.38774 13.1, 2.3866 " /><path d="M12.1, 2.3866 Q12.0536, 2.38753 12.0197, 2.41374  Q11.9992, 2.43099 11.9928, 2.44346 " /><path d="M13.0229, -2.98741 L12.7073, -2.44345 " /><path d="M13.5229, 2.98741 L13.2073, 2.44346 " /><path id= "71" d=" M 13.0375 -3 L 13.1625 -3 " />
<path d="M12.9928, 2.44345 L12.6771, 2.98741 " /><path d="M13.4928, -2.44345 L13.1771, -2.98742 " /><path d="M13.7073, -2.44345 Q13.7015, -2.43223 13.6834, -2.41613  Q13.6597, -2.39638 13.6264, -2.38922  Q13.6132, -2.3879 13.6, -2.38659  Q13.5536, -2.38753 13.5197, -2.41374  Q13.4992, -2.43099 13.4928, -2.44345 " /><path d="M14.2073, 2.44346 Q14.2015, 2.43224 14.1834, 2.41614  Q14.1489, 2.38774 14.1, 2.38659 " /><path d="M13.1, 2.3866 Q13.0536, 2.38753 13.0197, 2.41374  Q12.9992, 2.43099 12.9928, 2.44345 " /><path d="M14.0229, -2.98741 L13.7073, -2.44345 " /><path d="M14.5229, 2.98741 L14.2073, 2.44346 " /><path id= "79" d=" M 14.0375 -3 L 14.1625 -3 " />
<path d="M13.9928, 2.44345 L13.6771, 2.98741 " /><path d="M14.4928, -2.44344 L14.1771, -2.98742 " /><path d="M14.7073, -2.44345 Q14.7015, -2.43223 14.6834, -2.41613  Q14.6596, -2.39638 14.6264, -2.38922  Q14.6132, -2.3879 14.6, -2.38659  Q14.5536, -2.38752 14.5197, -2.41374  Q14.4992, -2.43099 14.4928, -2.44344 " /><path d="M15.2073, 2.44345 Q15.2015, 2.43223 15.1834, 2.41613  Q15.1489, 2.38773 15.1, 2.38659 " /><path d="M14.1, 2.38659 Q14.0536, 2.38752 14.0197, 2.41374  Q13.9992, 2.43099 13.9928, 2.44345 " /><path d="M15.0229, -2.98741 L14.7073, -2.44345 " /><path d="M15.5229, 2.98741 L15.2073, 2.44345 " /><path id= "87" d=" M 15.0375 -3 L 15.1625 -3 " />
<path d="M14.9928, 2.44345 L14.6771, 2.98741 " /><path d="M15.4928, -2.44344 L15.1771, -2.98742 " /><path d="M15.7073, -2.44345 Q15.7015, -2.43223 15.6834, -2.41613  Q15.6596, -2.39637 15.6264, -2.38921  Q15.6132, -2.3879 15.6, -2.38658  Q15.5536, -2.38752 15.5197, -2.41373  Q15.4992, -2.43098 15.4928, -2.44344 " /><path d="M16.2072, 2.44345 Q16.2015, 2.43223 16.1834, 2.41613  Q16.1489, 2.38773 16.1, 2.38659 " /><path d="M15.1, 2.38659 Q15.0536, 2.38752 15.0197, 2.41373  Q14.9992, 2.43099 14.9928, 2.44345 " /><path d="M16.0229, -2.98741 L15.7073, -2.44345 " /><path d="M16.5229, 2.98741 L16.2072, 2.44345 " /><path id= "95" d=" M 16.0375 -3 L 16.1625 -3 " />
<path d="M15.9928, 2.44345 L15.6771, 2.98741 " /><path d="M16.4928, -2.44344 L16.1771, -2.98742 " /><path d="M16.7072, -2.44344 Q16.7015, -2.43222 16.6834, -2.41612  Q16.6596, -2.39637 16.6264, -2.38921  Q16.6132, -2.3879 16.6, -2.38658  Q16.5536, -2.38752 16.5197, -2.41373  Q16.4992, -2.43098 16.4928, -2.44344 " /><path d="M17.2072, 2.44345 Q17.2015, 2.43223 17.1834, 2.41613  Q17.1489, 2.38773 17.1, 2.38659 " /><path d="M16.1, 2.38659 Q16.0536, 2.38752 16.0197, 2.41373  Q15.9992, 2.43098 15.9928, 2.44345 " /><path d="M17.0229, -2.98741 L16.7072, -2.44344 " /><path d="M17.5229, 2.98741 L17.2072, 2.44345 " /><path id= "103" d=" M 17.0375 -3 L 17.1625 -3 " />
<path d="M16.9928, 2.44345 L16.6771, 2.98741 " /><path d="M17.4928, -2.44344 L17.1771, -2.98742 " /><path d="M17.7072, -2.44344 Q17.7015, -2.43222 17.6834, -2.41612  Q17.6596, -2.39637 17.6264, -2.38921  Q17.6132, -2.38789 17.6, -2.38658  Q17.5535, -2.38752 17.5197, -2.41373  Q17.4992, -2.43098 17.4928, -2.44344 " /><path d="M18.2072, 2.44345 Q18.2015, 2.43222 18.1834, 2.41613  Q18.1489, 2.38773 18.1, 2.38658 " /><path d="M17.1, 2.38659 Q17.0536, 2.38752 17.0197, 2.41373  Q16.9992, 2.43098 16.9928, 2.44345 " /><path d="M18.0229, -2.98741 L17.7072, -2.44344 " /><path d="M18.5229, 2.98741 L18.2072, 2.44345 " /><path id= "111" d=" M 18.0375 -3 L 18.1625 -3 " />
<path d="M17.9928, 2.44344 L17.6771, 2.98741 " /><path d="M18.4928, -2.44344 L18.1771, -2.98742 " /><path d="M18.7072, -2.44344 Q18.7015, -2.43222 18.6834, -2.41612  Q18.6596, -2.39637 18.6264, -2.38921  Q18.6132, -2.38789 18.6, -2.38658  Q18.5535, -2.38752 18.5197, -2.41373  Q18.4992, -2.43098 18.4928, -2.44344 " /><path d="M19.2072, 2.44344 Q19.2015, 2.43222 19.1834, 2.41612  Q19.1489, 2.38773 19.1, 2.38658 " /><path d="M18.1, 2.38658 Q18.0536, 2.38752 18.0197, 2.41373  Q17.9992, 2.43098 17.9928, 2.44344 " /><path d="M19.0229, -2.98741 L18.7072, -2.44344 " /><path d="M19.5229, 2.98741 L19.2072, 2.44344 " /><path id= "119" d=" M 19.0375 -3 L 19.1625 -3 " />
<path d="M18.9928, 2.44344 L18.6771, 2.98741 " /><path d="M19.4928, -2.44343 L19.1771, -2.98742 " /><path d="M19.7072, -2.44344 Q19.7015, -2.43222 19.6834, -2.41612  Q19.6596, -2.39636 19.6264, -2.3892  Q19.6132, -2.38789 19.6, -2.38658  Q19.5535, -2.38751 19.5197, -2.41373  Q19.4992, -2.43098 19.4928, -2.44343 " /><path d="M20.2072, 2.44344 Q20.2015, 2.43222 20.1834, 2.41612  Q20.1489, 2.38772 20.1, 2.38658 " /><path d="M19.1, 2.38658 Q19.0536, 2.38751 19.0197, 2.41372  Q18.9992, 2.43098 18.9928, 2.44344 " /><path d="M20.0229, -2.98741 L19.7072, -2.44344 " /><path d="M20.5229, 2.98741 L20.2072, 2.44344 " /><path id= "127" d=" M 20.0375 -3 L 20.1625 -3 " />
<path d="M19.9928, 2.44344 L19.6771, 2.98741 " /><path d="M20.4928, -2.44343 L20.1771, -2.98742 " /><path d="M20.7072, -2.44343 Q20.7015, -2.43221 20.6834, -2.41611  Q20.6596, -2.39636 20.6264, -2.3892  Q20.6132, -2.38789 20.6, -2.38657  Q20.5535, -2.38751 20.5197, -2.41372  Q20.4992, -2.43097 20.4928, -2.44343 " /><path d="M21.2072, 2.44344 Q21.2015, 2.43222 21.1834, 2.41612  Q21.1489, 2.38772 21.1, 2.38658 " /><path d="M20.1, 2.38658 Q20.0536, 2.38751 20.0197, 2.41372  Q19.9992, 2.43098 19.9928, 2.44344 " /><path d="M21.0229, -2.98741 L20.7072, -2.44343 " /><path d="M21.5229, 2.98741 L21.2072, 2.44344 " /><path id= "135" d=" M 21.0375 -3 L 21.1625 -3 " />
<path d="M20.9928, 2.44344 L20.6771, 2.98741 " /><path d="M21.4928, -2.44343 L21.1771, -2.98742 " /><path d="M21.7072, -2.44343 Q21.7015, -2.43221 21.6834, -2.41611  Q21.6596, -2.39636 21.6264, -2.3892  Q21.6132, -2.38789 21.6, -2.38657  Q21.5535, -2.38751 21.5197, -2.41372  Q21.4992, -2.43097 21.4928, -2.44343 " /><path d="M22.2072, 2.44344 Q22.2014, 2.43221 22.1833, 2.41611  Q22.1489, 2.38772 22.1, 2.38657 " /><path d="M21.1, 2.38658 Q21.0536, 2.38751 21.0197, 2.41372  Q20.9992, 2.43097 20.9928, 2.44344 " /><path d="M22.0229, -2.98741 L21.7072, -2.44343 " /><path d="M22.5229, 2.98741 L22.2072, 2.44344 " /><path id= "143" d=" M 22.0375 -3 L 22.1625 -3 " />
<path d="M21.9928, 2.44343 L21.6771, 2.98741 " /><path d="M22.4928, -2.44343 L22.1771, -2.98741 " /><path d="M22.7072, -2.44343 Q22.7014, -2.43221 22.6833, -2.41611  Q22.6596, -2.39636 22.6264, -2.3892  Q22.6132, -2.38788 22.6, -2.38657  Q22.5535, -2.38751 22.5197, -2.41372  Q22.4992, -2.43097 22.4928, -2.44343 " /><path d="M23.2072, 2.44343 Q23.2014, 2.43221 23.1833, 2.41611  Q23.1489, 2.38772 23.1, 2.38657 " /><path d="M22.1, 2.38657 Q22.0536, 2.38751 22.0197, 2.41372  Q21.9992, 2.43097 21.9928, 2.44343 " /><path d="M23.0229, -2.98741 L22.7072, -2.44343 " /><path d="M23.5229, 2.98741 L23.2072, 2.44343 " /><path id= "151" d=" M 23.0375 -3 L 23.1625 -3 " />
<path d="M22.9928, 2.44343 L22.6771, 2.98741 " /><path d="M23.4928, -2.44343 L23.1771, -2.98741 " /><path d="M23.7072, -2.44343 Q23.7014, -2.43221 23.6833, -2.41611  Q23.6596, -2.39635 23.6264, -2.3892  Q23.6132, -2.38788 23.6, -2.38657  Q23.5535, -2.3875 23.5196, -2.41372  Q23.4992, -2.43097 23.4928, -2.44343 " /><path d="M24.2072, 2.44343 Q24.2014, 2.43221 24.1833, 2.41611  Q24.1489, 2.38771 24.1, 2.38657 " /><path d="M23.1, 2.38657 Q23.0536, 2.3875 23.0197, 2.41372  Q22.9992, 2.43097 22.9928, 2.44343 " /><path d="M24.0229, -2.98741 L23.7072, -2.44343 " /><path d="M24.2072, 2.44343 L24.4777, 2.9094 " /><path id= "159" d=" M 24.0375 -3 L 24.1625 -3 " />
<path d="M23.9928, 2.44343 L23.6771, 2.98741 " /><path d="M24.4928, -2.44342 L24.1771, -2.98741 " /><path d="M24.7072, -2.44342 Q24.7014, -2.4322 24.6833, -2.4161  Q24.6596, -2.39635 24.6264, -2.38919  Q24.6132, -2.38788 24.6, -2.38656  Q24.5535, -2.3875 24.5196, -2.41372  Q24.4991, -2.43097 24.4928, -2.44342 " /><path d="M24.1, 2.38657 Q24.0535, 2.3875 24.0197, 2.41371  Q23.9992, 2.43097 23.9928, 2.44343 " /><path d="M24.7935, -2.59202 L24.7072, -2.44342 " /><path id= "165" d=" M 25 -2.4 L 24.8042 -2.59584 " />
</g>
<g   fill="none"
   stroke="rgb(0, 0, 0)"
   stroke-linecap="butt"
   stroke-linejoin="miter"
   stroke-width="0.35"
   transform="scale(1, -1)"
  >
<path d="M-4, 4.33013 C-4, 4.54755 -4, 4.71582 -4, 4.82963  C-4, 4.94171 -4, 4.9991 -4, 5 " /><path d="M-4, -8.88178e-16 Q-4, 0.562676 -4, 1.1126  Q-4, 1.29319 -4, 1.47378  Q-4, 1.65024 -4, 1.82671  Q-4, 1.99806 -4, 2.16942  Q-4, 2.33471 -4, 2.5  Q-4, 2.6583 -4, 2.8166  Q-4, 2.96702 -4, 3.11745  Q-4, 3.25916 -4, 3.40086  Q-4, 3.53306 -4, 3.66526  Q-4, 3.78721 -4, 3.90916  Q-4, 4.02018 -4, 4.13119  Q-4, 4.23066 -4, 4.33013 " /><path d="M-4, -4.33013 Q-4, -4.23066 -4, -4.13119  Q-4, -4.02018 -4, -3.90916  Q-4, -3.78721 -4, -3.66526  Q-4, -3.53306 -4, -3.40086  Q-4, -3.25916 -4, -3.11745  Q-4, -2.96702 -4, -2.8166  Q-4, -2.6583 -4, -2.5  Q-4, -2.33471 -4, -2.16942  Q-4, -1.99806 -4, -1.82671  Q-4, -1.65024 -4, -1.47378  Q-4, -1.29319 -4, -1.1126  Q-4, -0.562676 -4, -8.88178e-16 " /><path d="M-4, -5 C-4, -4.9991 -4, -4.94171 -4, -4.82963  C-4, -4.71582 -4, -4.54755 -4, -4.33013 " /><path id= "5" d=" M -4 5 L -3.76965 5.7735 " />
<path d="M-4, -4.33013 C-3.99928, -4.78797 -3.92625, -5.24553 -3.76965, -5.7735 " /><path d="M-3.76965, -2.88675 C-3.92625, -3.41472 -3.99928, -3.87228 -4, -4.33013 " /><path d="M-4, -2.22045e-16 C-3.99928, -0.915684 -3.92625, -1.83081 -3.76965, -2.88675 " /><path d="M-3.76965, 2.88675 C-3.92625, 1.83081 -3.99928, 0.915684 -4, -6.66134e-16 " /><path d="M-4, 4.33013 C-3.99928, 3.87228 -3.92625, 3.41472 -3.76965, 2.88675 " /><path d="M-3.76965, 5.7735 C-3.92625, 5.24553 -3.99928, 4.78797 -4, 4.33013 " /><path id= "12" d=" M -3.76965 5.7735 L -0.5 5.7735 " />
<path id= "13" d=" M -0.5 -5.7735 L -3.76965 -5.7735 " />
<path id= "14" d=" M -0.5 -2.88675 L -0.5 -5.7735 " />
<path id= "15" d=" M -0.5 -2.88675 L -3.76965 -2.88675 " />
<path id= "16" d=" M -0.5 2.88675 L -0.5 -2.88675 " />
<path id= "17" d=" M -0.5 2.88675 L -3.76965 2.88675 " />
<path id= "18" d=" M -0.5 5.7735 L -0.5 2.88675 " />
<path id= "19" d=" M -0.5 4.37 L 0 4.37 " />
<path d="M0, -4.37 L0, -4.26043  L0, -3.93723  L0, -3.4166  L0, -2.72465  L0, -1.89607  L0, -0.972416  L0, -7.77156e-16  L0, 0.972416  L0, 1.89607  L0, 2.72465  L0, 3.4166  L0, 3.93723  L0, 4.26043  L0, 4.37 " /><path d="M0 2.92524 A0.25 0.25 0 0 1 0.25 2.67524" /><path id= "22" d=" M 0.25 2.67524 L 4.5 2.67524 " />
<path d="M4.5, -2.67524 L4.5, -2.60817  L4.5, -2.41031  L4.5, -2.09159  L4.5, -1.66799  L4.5, -1.16074  L4.5, -0.595297  L4.5, -4.44089e-16  L4.5, 0.595297  L4.5, 1.16074  L4.5, 1.66799  L4.5, 2.09159  L4.5, 2.41031  L4.5, 2.60817  L4.5, 2.67524 " /><path d="M5.40286, 2.77899 Q5.41133, 2.79362 5.41889, 2.79461 " /><path id= "25" d=" M 5.41889 2.79461 L 5.75584 2.83838 " />
<path d="M4.82562, 2.71754 Q4.8331, 2.71851 4.84057, 2.70562 " /><path d="M4.84057, 2.70562 C4.87472, 2.64847 4.9088, 2.36549 4.94282, 1.92018  C4.98136, 1.41891 5.01981, 0.713028 5.05817, 4.10684e-06  C5.0967, -0.716113 5.13515, -1.42961 5.17352, -1.94124  C5.21267, -2.46758 5.25174, -2.77593 5.29072, -2.77796 " /><path d="M5.29072, -2.77796 Q5.29804, -2.77891 5.30536, -2.7663 " /><path id= "29" d=" M 4.5 2.67524 L 4.82562 2.71754 " />
<path id= "30" d=" M 6.49996 2.93504 L 6.68606 2.95922 " />
<path d="M5.75584, 2.83838 Q5.763, 2.83931 5.77016, 2.82696 " /><path d="M5.77016, 2.82696 C5.80421, 2.77002 5.83819, 2.47857 5.87211, 2.01772  C5.91064, 1.4975 5.94909, 0.762387 5.98746, 0.0180268  C6.02599, -0.729448 6.06444, -1.47599 6.10281, -2.01313  C6.14227, -2.57008 6.18165, -2.89696 6.22094, -2.8988 " /><path d="M6.22094, -2.8988 Q6.22796, -2.89971 6.23497, -2.88761 " /><path d="M5.41889, 2.79461 C5.46368, 2.80331 5.50837, 2.51135 5.55295, 2.00085  C5.59774, 1.49195 5.64242, 0.76946 5.687, 0.0355585  C5.73179, -0.701904 5.77647, -1.44078 5.82105, -1.97473  C5.86175, -2.46543 5.90238, -2.78157 5.94291, -2.84949 " /><path d="M5.94291, -2.84949 Q5.95117, -2.86375 5.95943, -2.86483 " /><path d="M6.48383, 2.92007 Q6.49189, 2.93399 6.49996, 2.93504 " /><path d="M7, -2.9173 C7, -2.90269 7, -2.88808 7, -2.87347  C7, -2.85584 7, -2.83821 7, -2.82058  C7, -2.8 7, -2.77941 7, -2.75882  C7, -2.73534 7, -2.71186 7, -2.68837  C7, -2.66207 7, -2.63576 7, -2.60946  C7, -2.58041 7, -2.55137 7, -2.52232  C7, -2.49063 7, -2.45894 7, -2.42725  C7, -2.19538 7, -1.90189 7, -1.56738 " /><path d="M6.68606, 2.95922 Q6.69293, 2.96011 6.6998, 2.94826 " /><path d="M6.6998, 2.94826 C6.7216, 2.90883 6.74338, 2.77807 6.76513, 2.55596  C6.79121, 2.29307 6.81725, 1.90777 6.84326, 1.45183  C6.89566, 0.534998 6.9479, -0.664832 7, -1.56738 " /><path d="M6.49996, 2.93504 C6.54185, 2.94282 6.58366, 2.67619 6.62536, 2.20152  C6.6669, 1.73228 6.70833, 1.06183 6.74968, 0.353422  C6.79158, -0.363819 6.83338, -1.11258 6.87509, -1.70801  C6.91681, -2.30642 6.95845, -2.74525 7, -2.9173 " /><path d="M7, -2.9173 Q7.01144, -2.96763 7.02287, -2.98741 " /><path d="M7.02287, -2.98741 Q7.03016, -3 7.03746, -3 " /><path d="M7.52287, 2.98741 Q7.53016, 3 7.53746, 3 " /><path id= "44" d=" M 7.53746 3 L 7.66251 3 " />
<path d="M7, -1.56738 C7.01205, -1.76185 7.0241, -1.94045 7.03615, -2.10319  C7.07827, -2.67248 7.12039, -3.00332 7.1625, -3 " /><path d="M7.1625, -3 Q7.1698, -3 7.17709, -2.98742 " /><path d="M7.53746, 3 C7.57594, 3.00234 7.61443, 2.72819 7.65291, 2.24469  C7.70255, 1.62681 7.7522, 0.663257 7.80184, -0.270671  C7.83635, -0.919181 7.87087, -1.54563 7.90538, -2.02495  C7.94454, -2.57191 7.98371, -2.92228 8.02287, -2.98741 " /><path d="M8.02287, -2.98741 Q8.03017, -3 8.03746, -3 " /><path d="M8.52287, 2.98741 Q8.53016, 3 8.53746, 3 " /><path id= "50" d=" M 8.53746 3 L 8.66251 3 " />
<path d="M7.66251, 3 Q7.6698, 3 7.67709, 2.98742 " /><path d="M7.67709, 2.98742 C7.71629, 2.92225 7.75548, 2.57137 7.79467, 2.02367  C7.83977, 1.39787 7.88487, 0.517716 7.92996, -0.328307  C7.96561, -0.996939 8.00126, -1.63723 8.03691, -2.11331  C8.07877, -2.67652 8.12064, -3.00324 8.1625, -3 " /><path d="M8.1625, -3 Q8.1698, -3 8.17709, -2.98742 " /><path d="M8.53746, 3 C8.57594, 3.00234 8.61443, 2.7282 8.65291, 2.24469  C8.70254, 1.62704 8.75216, 0.663959 8.80179, -0.269661  C8.83624, -0.917041 8.87069, -1.54253 8.90515, -2.02165  C8.94439, -2.57048 8.98364, -2.92216 9.02288, -2.98741 " /><path d="M9.02288, -2.98741 Q9.03017, -3 9.03746, -3 " /><path d="M9.52287, 2.98741 Q9.53017, 3 9.53746, 3 " /><path id= "57" d=" M 9.53746 3 L 9.66251 3 " />
<path d="M8.66251, 3 Q8.6698, 3 8.67709, 2.98742 " /><path d="M8.67709, 2.98742 C8.71629, 2.92225 8.75548, 2.57137 8.79467, 2.02367  C8.83977, 1.39787 8.88487, 0.517708 8.92996, -0.328317  C8.9656, -0.996746 9.00124, -1.63685 9.03688, -2.11288  C9.07875, -2.67635 9.12063, -3.00325 9.1625, -3 " /><path d="M9.1625, -3 Q9.16979, -3 9.17709, -2.98742 " /><path d="M9.53746, 3 C9.57594, 3.00234 9.61443, 2.7282 9.65291, 2.2447  C9.70252, 1.62726 9.75213, 0.664641 9.80174, -0.268681  C9.83611, -0.914646 9.87049, -1.5389 9.90487, -2.01775  C9.9442, -2.56877 9.98355, -2.92203 10.0229, -2.98741 " /><path d="M10.0229, -2.98741 Q10.0302, -3 10.0375, -3 " /><path d="M10.5229, 2.98741 Q10.5302, 3 10.5375, 3 " /><path id= "64" d=" M 10.5375 3 L 10.6625 3 " />
<path d="M9.66251, 3 Q9.6698, 3 9.67709, 2.98742 " /><path d="M9.67709, 2.98742 C9.71629, 2.92225 9.75548, 2.57137 9.79467, 2.02367  C9.83977, 1.39787 9.88487, 0.517705 9.92996, -0.328323  C9.96559, -0.996641 10.0012, -1.63665 10.0369, -2.11265  C10.0787, -2.67626 10.1206, -3.00325 10.1625, -3 " /><path d="M10.1625, -3 Q10.1698, -3 10.1771, -2.98742 " /><path d="M10.5375, 3 C10.5759, 3.00234 10.6144, 2.7282 10.6529, 2.2447  C10.7025, 1.62748 10.7521, 0.665326 10.8017, -0.267695  C10.836, -0.911689 10.8702, -1.5342 10.9045, -2.01259  C10.944, -2.56652 10.9834, -2.92184 11.0229, -2.98741 " /><path d="M11.0229, -2.98741 Q11.0302, -3 11.0375, -3 " /><path d="M11.5229, 2.98741 Q11.5302, 3 11.5375, 3 " /><path id= "71" d=" M 11.5375 3 L 11.6625 3 " />
<path d="M10.6625, 3 Q10.6698, 3 10.6771, 2.98742 " /><path d="M10.6771, 2.98742 C10.7163, 2.92225 10.7555, 2.57137 10.7947, 2.02367  C10.8398, 1.39786 10.8849, 0.51769 10.93, -0.328343  C10.9656, -0.996235 11.0012, -1.63585 11.0368, -2.11176  C11.0787, -2.6759 11.1206, -3.00325 11.1625, -3 " /><path d="M11.1625, -3 Q11.1698, -3 11.1771, -2.98742 " /><path d="M11.5375, 3 C11.5759, 3.00234 11.6144, 2.7282 11.6529, 2.2447  C11.7025, 1.62771 11.7521, 0.666059 11.8016, -0.266641  C11.8359, -0.909822 11.8701, -1.53167 11.9043, -2.00995  C11.9438, -2.56537 11.9834, -2.92175 12.0229, -2.98741 " /><path d="M12.0229, -2.98741 Q12.0302, -3 12.0375, -3 " /><path d="M12.5229, 2.98741 Q12.5302, 3 12.5375, 3 " /><path id= "78" d=" M 12.5375 3 L 12.6625 3 " />
<path d="M11.6625, 3 Q11.6698, 3 11.6771, 2.98742 " /><path d="M11.6771, 2.98742 C11.7163, 2.92225 11.7555, 2.57137 11.7947, 2.02367  C11.8398, 1.39786 11.8849, 0.517682 11.93, -0.328353  C11.9656, -0.996027 12.0012, -1.63545 12.0368, -2.1113  C12.0787, -2.67572 12.1206, -3.00326 12.1625, -3 " /><path d="M12.1625, -3 Q12.1698, -3 12.1771, -2.98742 " /><path d="M12.5375, 3 C12.5759, 3.00234 12.6144, 2.7282 12.6529, 2.24471  C12.7025, 1.62794 12.752, 0.666767 12.8016, -0.265622  C12.8363, -0.917195 12.8709, -1.54684 12.9056, -2.02777  C12.9447, -2.57315 12.9838, -2.92238 13.0229, -2.98741 " /><path d="M13.0229, -2.98741 Q13.0302, -3 13.0375, -3 " /><path d="M13.5229, 2.98741 Q13.5302, 3 13.5375, 3 " /><path id= "85" d=" M 13.5375 3 L 13.6625 3 " />
<path d="M12.6625, 3 Q12.6698, 3 12.6771, 2.98741 " /><path d="M12.6771, 2.98741 C12.7163, 2.92225 12.7555, 2.57137 12.7947, 2.02366  C12.8398, 1.39785 12.8849, 0.517668 12.93, -0.328372  C12.9655, -0.995624 13.0011, -1.63466 13.0367, -2.11041  C13.0786, -2.67536 13.1206, -3.00326 13.1625, -3 " /><path d="M13.1625, -3 Q13.1698, -3 13.1771, -2.98742 " /><path d="M13.5375, 3 C13.576, 3.00234 13.6144, 2.7282 13.6529, 2.24471  C13.7025, 1.62818 13.752, 0.667503 13.8015, -0.264562  C13.8361, -0.913369 13.8706, -1.54055 13.9051, -2.02082  C13.9444, -2.57012 13.9836, -2.92214 14.0229, -2.98741 " /><path d="M14.0229, -2.98741 Q14.0302, -3 14.0375, -3 " /><path d="M14.5229, 2.98741 Q14.5302, 3 14.5375, 3 " /><path id= "92" d=" M 14.5375 3 L 14.6625 3 " />
<path d="M13.6625, 3 Q13.6698, 3 13.6771, 2.98741 " /><path d="M13.6771, 2.98741 C13.7163, 2.92225 13.7555, 2.57137 13.7947, 2.02366  C13.8398, 1.39785 13.8849, 0.517651 13.93, -0.328396  C13.9655, -0.995099 14.0011, -1.63364 14.0366, -2.10926  C14.0786, -2.6749 14.1205, -3.00327 14.1625, -3 " /><path d="M14.1625, -3 Q14.1698, -3 14.1771, -2.98742 " /><path d="M14.5375, 3 C14.576, 3.00234 14.6144, 2.72821 14.6529, 2.24472  C14.7024, 1.62842 14.752, 0.668261 14.8015, -0.263471  C14.8358, -0.907778 14.87, -1.53089 14.9043, -2.00997  C14.9438, -2.56537 14.9834, -2.92175 15.0229, -2.98741 " /><path d="M15.0229, -2.98741 Q15.0302, -3 15.0375, -3 " /><path d="M15.5229, 2.98741 Q15.5302, 3 15.5375, 3 " /><path id= "99" d=" M 15.5375 3 L 15.6625 3 " />
<path d="M14.6625, 3 Q14.6698, 3 14.6771, 2.98741 " /><path d="M14.6771, 2.98741 C14.7163, 2.92225 14.7555, 2.57137 14.7947, 2.02366  C14.8398, 1.39785 14.8849, 0.517655 14.93, -0.328391  C14.9655, -0.995219 15.0011, -1.63387 15.0366, -2.10952  C15.0786, -2.67501 15.1205, -3.00327 15.1625, -3 " /><path d="M15.1625, -3 Q15.1698, -3 15.1771, -2.98742 " /><path d="M15.5375, 3 C15.576, 3.00234 15.6144, 2.72821 15.6529, 2.24472  C15.7024, 1.62864 15.7519, 0.66893 15.8014, -0.262508  C15.836, -0.912248 15.8706, -1.54045 15.9051, -2.02128  C15.9444, -2.57032 15.9836, -2.92216 16.0229, -2.98741 " /><path d="M16.0229, -2.98741 Q16.0302, -3 16.0375, -3 " /><path d="M16.5229, 2.98741 Q16.5302, 3 16.5375, 3 " /><path id= "106" d=" M 16.5375 3 L 16.6625 3 " />
<path d="M15.6625, 3 Q15.6698, 3 15.6771, 2.98741 " /><path d="M15.6771, 2.98741 C15.7163, 2.92225 15.7555, 2.57137 15.7947, 2.02366  C15.8398, 1.39785 15.8849, 0.517659 15.93, -0.328385  C15.9655, -0.995348 16.0011, -1.63413 16.0366, -2.10981  C16.0786, -2.67512 16.1205, -3.00327 16.1625, -3 " /><path d="M16.1625, -3 Q16.1698, -3 16.1771, -2.98742 " /><path d="M16.5375, 3 C16.576, 3.00234 16.6144, 2.72821 16.6529, 2.24473  C16.7024, 1.62886 16.7519, 0.669632 16.8014, -0.261497  C16.8361, -0.913394 16.8707, -1.54365 16.9054, -2.02527  C16.9446, -2.57206 16.9837, -2.9223 17.0229, -2.98741 " /><path d="M17.0229, -2.98741 Q17.0302, -3 17.0375, -3 " /><path d="M17.5229, 2.98741 Q17.5302, 3 17.5375, 3 " /><path id= "113" d=" M 17.5375 3 L 17.6625 3 " />
<path d="M16.6625, 3 Q16.6698, 3 16.6771, 2.98741 " /><path d="M16.6771, 2.98741 C16.7163, 2.92225 16.7555, 2.57136 16.7947, 2.02366  C16.8398, 1.39785 16.8849, 0.517651 16.93, -0.328396  C16.9655, -0.99511 17.0011, -1.63366 17.0366, -2.10928  C17.0786, -2.67491 17.1205, -3.00327 17.1625, -3 " /><path d="M17.1625, -3 Q17.1698, -3 17.1771, -2.98742 " /><path d="M17.5375, 3 C17.576, 3.00234 17.6144, 2.72821 17.6529, 2.24473  C17.7024, 1.62909 17.7519, 0.670353 17.8013, -0.260458  C17.8356, -0.905664 17.87, -1.52983 17.9043, -2.0096  C17.9438, -2.56522 17.9834, -2.92174 18.0229, -2.98741 " /><path d="M18.0229, -2.98741 Q18.0302, -3 18.0375, -3 " /><path d="M18.5229, 2.98741 Q18.5302, 3 18.5375, 3 " /><path id= "120" d=" M 18.5375 3 L 18.6625 3 " />
<path d="M17.6625, 3 Q17.6698, 3 17.6771, 2.98741 " /><path d="M17.6771, 2.98741 C17.7163, 2.92225 17.7555, 2.57136 17.7947, 2.02366  C17.8398, 1.39783 17.8849, 0.51762 17.93, -0.328438  C17.9655, -0.994098 18.0009, -1.6317 18.0364, -2.10706  C18.0785, -2.67403 18.1205, -3.00329 18.1625, -3 " /><path d="M18.1625, -3 Q18.1698, -3 18.1771, -2.98742 " /><path d="M18.5375, 3 C18.576, 3.00234 18.6144, 2.72821 18.6529, 2.24473  C18.7024, 1.62937 18.7518, 0.671201 18.8013, -0.259237  C18.8356, -0.904246 18.8699, -1.52832 18.9042, -2.0082  C18.9438, -2.5646 18.9833, -2.9217 19.0229, -2.98741 " /><path d="M19.0229, -2.98741 Q19.0302, -3 19.0375, -3 " /><path d="M19.5229, 2.98741 Q19.5302, 3 19.5375, 3 " /><path id= "127" d=" M 19.5375 3 L 19.6625 3 " />
<path d="M18.6625, 3 Q18.6698, 3 18.6771, 2.98741 " /><path d="M18.6771, 2.98741 C18.7163, 2.92225 18.7555, 2.57136 18.7947, 2.02366  C18.8398, 1.39783 18.8849, 0.517606 18.93, -0.328457  C18.9654, -0.993612 19.0009, -1.63075 19.0364, -2.106  C19.0784, -2.6736 19.1205, -3.0033 19.1625, -3 " /><path d="M19.1625, -3 Q19.1698, -3 19.1771, -2.98742 " /><path d="M19.5375, 3 C19.576, 3.00234 19.6145, 2.72821 19.6529, 2.24474  C19.7024, 1.62961 19.7518, 0.671965 19.8012, -0.258135  C19.8356, -0.904737 19.87, -1.53037 19.9044, -2.01088  C19.9439, -2.56578 19.9834, -2.92179 20.0229, -2.98741 " /><path d="M20.0229, -2.98741 Q20.0302, -3 20.0375, -3 " /><path d="M20.5229, 2.98741 Q20.5302, 3 20.5375, 3 " /><path id= "134" d=" M 20.5375 3 L 20.6625 3 " />
<path d="M19.6625, 3 Q19.6698, 3 19.6771, 2.98741 " /><path d="M19.6771, 2.98741 C19.7163, 2.92224 19.7555, 2.57136 19.7947, 2.02366  C19.8398, 1.39784 19.8849, 0.517633 19.93, -0.32842  C19.9655, -0.994554 20.001, -1.63258 20.0365, -2.10806  C20.0785, -2.67442 20.1205, -3.00328 20.1625, -3 " /><path d="M20.1625, -3 Q20.1698, -3 20.1771, -2.98742 " /><path d="M20.5375, 3 C20.576, 3.00234 20.6145, 2.72822 20.6529, 2.24474  C20.7023, 1.62984 20.7517, 0.672672 20.8011, -0.257116  C20.8359, -0.911013 20.8707, -1.54345 20.9055, -2.02627  C20.9446, -2.5725 20.9838, -2.92234 21.0229, -2.98741 " /><path d="M21.0229, -2.98741 Q21.0302, -3 21.0375, -3 " /><path d="M21.5229, 2.98741 Q21.5302, 3 21.5375, 3 " /><path id= "141" d=" M 21.5375 3 L 21.6625 3 " />
<path d="M20.6625, 3 Q20.6698, 3 20.6771, 2.98741 " /><path d="M20.6771, 2.98741 C20.7163, 2.92224 20.7555, 2.57136 20.7947, 2.02366  C20.8398, 1.39782 20.8849, 0.517588 20.93, -0.328481  C20.9654, -0.99296 21.0008, -1.62949 21.0363, -2.10457  C21.0783, -2.67303 21.1204, -3.00331 21.1625, -3 " /><path d="M21.1625, -3 Q21.1698, -3 21.1771, -2.98741 " /><path d="M21.5375, 3 C21.576, 3.00234 21.6145, 2.72822 21.6529, 2.24475  C21.7026, 1.62612 21.7523, 0.660873 21.8021, -0.274154  C21.8362, -0.915898 21.8704, -1.53586 21.9045, -2.01267  C21.944, -2.56656 21.9835, -2.92186 22.0229, -2.98741 " /><path d="M22.0229, -2.98741 Q22.0302, -3 22.0375, -3 " /><path d="M22.5229, 2.98741 Q22.5302, 3 22.5375, 3 " /><path id= "148" d=" M 22.5375 3 L 22.6625 3 " />
<path d="M21.6625, 3 Q21.6698, 3 21.6771, 2.98741 " /><path d="M21.6771, 2.98741 C21.7163, 2.92224 21.7555, 2.57136 21.7947, 2.02366  C21.8398, 1.39783 21.8849, 0.517616 21.93, -0.328443  C21.9654, -0.993969 22.0009, -1.63145 22.0364, -2.10678  C22.0784, -2.67391 22.1205, -3.00329 22.1625, -3 " /><path d="M22.1625, -3 Q22.1698, -3 22.1771, -2.98741 " /><path d="M22.5375, 3 C22.576, 3.00234 22.6145, 2.72822 22.6529, 2.24475  C22.7026, 1.62639 22.7523, 0.661732 22.802, -0.272918  C22.8366, -0.922899 22.8712, -1.55053 22.9058, -2.02996  C22.9448, -2.57411 22.9839, -2.92247 23.0229, -2.98741 " /><path d="M23.0229, -2.98741 Q23.0302, -3 23.0375, -3 " /><path d="M23.5229, 2.98741 Q23.5302, 3 23.5375, 3 " /><path id= "155" d=" M 23.5375 3 L 23.6625 3 " />
<path d="M22.6625, 3 Q22.6698, 3 22.6771, 2.98741 " /><path d="M22.6771, 2.98741 C22.7163, 2.92224 22.7555, 2.57136 22.7947, 2.02365  C22.8398, 1.39781 22.8849, 0.517567 22.93, -0.32851  C22.9653, -0.992088 23.0007, -1.6278 23.0361, -2.10266  C23.0782, -2.67227 23.1204, -3.00332 23.1625, -3 " /><path d="M23.1625, -3 Q23.1698, -3 23.1771, -2.98741 " /><path d="M23.5375, 3 C23.576, 3.00234 23.6145, 2.72822 23.6529, 2.24476  C23.7026, 1.62679 23.7522, 0.662983 23.8019, -0.271117  C23.8364, -0.920056 23.871, -1.54687 23.9055, -2.02625  C23.9446, -2.57249 23.9838, -2.92234 24.0229, -2.98741 " /><path d="M24.0229, -2.98741 Q24.0302, -3 24.0375, -3 " /><path d="M24.4872, 2.91283 Q24.4824, 2.91758 24.4777, 2.9094 " /><path d="M23.6625, 3 Q23.6698, 3 23.6771, 2.98741 " /><path d="M23.6771, 2.98741 C23.7163, 2.92224 23.7555, 2.57136 23.7947, 2.02365  C23.8398, 1.39781 23.8849, 0.517562 23.93, -0.328517  C23.9653, -0.991885 24.0007, -1.62741 24.0361, -2.10222  C24.0782, -2.67209 24.1204, -3.00333 24.1625, -3 " /><path d="M24.1625, -3 Q24.1698, -3 24.1771, -2.98741 " /><path id= "165" d=" M 24.4872 2.91283 L 25 2.4 " />
<path d="M24.4872, 2.91283 C24.5064, 2.89451 24.5258, 2.71183 24.5454, 2.39278  C24.5644, 2.08365 24.5836, 1.64646 24.603, 1.14882  C24.6218, 0.665006 24.6408, 0.125747 24.6599, -0.386506  C24.6788, -0.890626 24.6978, -1.36666 24.7169, -1.74131  C24.7422, -2.23795 24.7677, -2.5499 24.7935, -2.59202 " /><path d="M24.7935, -2.59202 Q24.7988, -2.60116 24.8042, -2.59584 " /><path d="M25, -2.4 L25, -2.33983  L25, -2.16233  L25, -1.8764  L25, -1.49638  L25, -1.04132  L25, -0.53405  L25, -4.44089e-16  L25, 0.53405  L25, 1.04132  L25, 1.49638  L25, 1.8764  L25, 2.16233  L25, 2.33983  L25, 2.4 " /></g>

</svg>
