<svg xmlns="http://www.w3.org/2000/svg" viewBox="-9.0334984 -8.5523284 14.8502968 14.1706468">
<rect width="100%" height="100%" fill="white"/>
<g   fill="none"
   stroke="rgb(0, 0, 0)"
   stroke-linecap="butt"
   stroke-linejoin="miter"
   stroke-width="0.35"
   transform="scale(1, -1)"
  >
<path d="M4.79264, 2.89856 C4.79649, 1.40876 4.28284, -0.332071 3.3965, -1.88183  C2.50084, -3.46052 1.23394, -4.81581 -0.0790367, -5.57956  C-0.8617, -6.03807 -1.66103, -6.2936 -2.40916, -6.30439  C-2.96313, -6.31328 -3.48904, -6.18513 -3.94068, -5.92322  C-4.39168, -5.66307 -4.76431, -5.27255 -5.03289, -4.78971  C-5.2804, -4.34617 -5.44254, -3.82554 -5.51888, -3.25318 " /><path d="M0.0578946, 6.40608 C0.600166, 6.62962 1.1405, 6.7498 1.6556, 6.75374  C2.20702, 6.75872 2.72997, 6.62727 3.1785, 6.36318  C3.48099, 6.18484 3.74422, 5.9538 3.96819, 5.67008  C4.51772, 4.97531 4.79367, 4.00192 4.79264, 2.89856 " /></g>
<g   fill="none"
   stroke="rgb(0, 0, 0)"
   stroke-linecap="butt"
   stroke-linejoin="miter"
   stroke-width="0.35"
   transform="scale(1, -1)"
  >
<path d="M-2.32295, 3.41657 C-2.33691, 3.10081 -2.40916, 2.75759 -2.53266, 2.41954 " /><g transform = "rotate(60, -4.24264, 2.44949)">
<ellipse cx ="-4.24264" cy ="2.44949" rx ="3.1875"  ry ="1.8403"/>
</g>
<path d="M-2.32295, 3.41657 C-2.30244, 3.85874 -2.39759, 4.24461 -2.59191, 4.50909  C-2.79151, 4.78401 -3.09577, 4.92825 -3.4523, 4.91938  C-3.82462, 4.9121 -4.2521, 4.73767 -4.6601, 4.42981  C-5.09573, 4.10318 -5.50671, 3.62674 -5.81814, 3.09245 " /><path d="M-6.32215, 1.01932 C-6.32921, 1.044 -6.33524, 1.07769 -6.34023, 1.12039  C-6.35769, 1.26977 -6.35254, 1.48421 -6.31793, 1.70803  C-6.25604, 2.1302 -6.08425, 2.61585 -5.86487, 3.01016 " /><path d="M-5.86487, 3.01016 L-5.81814, 3.09245 " /><path d="M-4.84726, 0.12582 C-5.17218, 0.0428358 -5.47907, 0.0718969 -5.7281, 0.208013  C-6.00828, 0.359467 -6.21488, 0.644696 -6.32215, 1.01932 " /><path d="M-4.84726 0.12582 A2.45873 1.41955 60 0 1 -2.53266 2.41954" />
<path d="M-2.44258, 4.23585 C-2.88124, 4.41067 -3.47763, 4.26098 -4.02488, 3.84906  C-4.4012, 3.5693 -4.75123, 3.1733 -5.01485, 2.73643  C-5.32916, 2.21921 -5.51787, 1.64856 -5.54023, 1.17295  C-5.56386, 0.722616 -5.44009, 0.361015 -5.20297, 0.173743 " /><path d="M-2.44926, 4.25227 L-2.48293, 4.27262 " /><path d="M-2.48293, 4.27262 C-2.70139, 4.39922 -2.96976, 4.43891 -3.25911, 4.38832  C-3.56708, 4.33531 -3.8982, 4.17978 -4.21184, 3.94349  C-4.60326, 3.65014 -4.96527, 3.23109 -5.23079, 2.7724  C-5.53214, 2.25567 -5.70705, 1.69287 -5.71885, 1.22795  C-5.73396, 0.748322 -5.57655, 0.377974 -5.29521, 0.21809 " /><path d="M-5.29521, 0.21809 Q-5.10076, 0.106473 -4.84726, 0.12582 " /><path d="M-0.707107 4.49073 A5 2.88675 60 0 1 -1.18078 6.2585" />
<path d="M-1.18078 2.17602 A5 2.88675 60 0 1 -0.707107 4.49073" />
<path d="M-4.24264 -1.63299 A5 2.88675 60 0 1 -1.18078 2.17602" />
<path d="M-7.3045 -1.35952 A5 2.88675 60 0 1 -4.24264 -1.63299" />
<path d="M-7.3045 2.72296 A5 2.88675 60 0 1 -7.3045 -1.35952" />
<path d="M-4.24264 6.53197 A5 2.88675 60 0 1 -7.3045 2.72296" />
<path d="M-1.18078 6.2585 A5 2.88675 60 0 1 -4.24264 6.53197" />
<path d="M-2.34707, 3.88264 C-2.65967, 3.83485 -2.99763, 3.68004 -3.31787, 3.44074  C-3.69426, 3.16091 -4.04434, 2.76479 -4.30797, 2.32781  C-4.62294, 1.80941 -4.81168, 1.23737 -4.8333, 0.761165  C-4.84445, 0.520533 -4.81687, 0.311139 -4.75055, 0.132983 " /><path d="M-2.36981, 4.00013 C-2.72665, 3.98535 -3.12845, 3.8192 -3.50512, 3.53495  C-3.89827, 3.24023 -4.26168, 2.8187 -4.52747, 2.35763  C-4.82642, 1.84288 -4.99985, 1.2831 -5.01173, 0.820242  C-5.01972, 0.547008 -4.97334, 0.30741 -4.8782, 0.123879 " /><path d="M-1.18078, 6.2585 C-0.856042, 5.79735 -0.432389, 5.27926 0.155623, 4.6242 " /><path d="M-4.24264, 6.53197 C-3.59416, 6.90523 -2.84696, 7.22103 -1.88562, 7.52817 " /><path d="M-1.88562, 7.52817 C-1.72697, 7.121 -1.50353, 6.7185 -1.18078, 6.2585 " /><path d="M-7.3045, 2.72296 C-6.97977, 3.55679 -6.55611, 4.33289 -5.9681, 5.17115 " /><path d="M-5.9681, 5.17115 C-5.43612, 5.72618 -4.88913, 6.15757 -4.24264, 6.53197 " /><path d="M-7.3045, -1.35952 C-7.62725, -0.899519 -7.85069, -0.49702 -8.00934, -0.0898492 " /><path d="M-8.00934, -0.0898492 C-7.85069, 0.9963 -7.62725, 1.88799 -7.3045, 2.72296 " /><path d="M-5.9681, -2.99382 C-6.55611, -2.33876 -6.97977, -1.82067 -7.3045, -1.35952 " /><path d="M-4.24264, -1.63299 C-4.88913, -2.00739 -5.43612, -2.43879 -5.9681, -2.99382 " /><path d="M-1.88562, -0.636798 C-2.84696, -0.943936 -3.59416, -1.25974 -4.24264, -1.63299 " /><path d="M-1.18078, 2.17602 C-1.50353, 1.34104 -1.72697, 0.449351 -1.88562, -0.636798 " /><path d="M0.155623, 4.6242 C-0.432389, 3.78594 -0.856042, 3.00984 -1.18078, 2.17602 " /><path d="M-2.33963, 3.21249 C-2.81527, 2.937 -3.2752, 2.4608 -3.60109, 1.91919  C-3.91662, 1.39976 -4.10539, 0.826522 -4.12634, 0.349806 " /><path d="M-2.32295, 3.41641 C-2.88662, 3.15527 -3.45253, 2.59262 -3.82277, 1.94522  C-4.15413, 1.374 -4.32867, 0.74847 -4.30333, 0.260625 " /><path d="M0.886256, 5.92783 L0.958143, 5.75344  L1.03871, 5.57854  L1.12844, 5.40205  L1.2279, 5.22288  L1.3377, 5.03994  L1.45852, 4.85208  L1.5911, 4.65816  L1.73625, 4.45697  L1.89487, 4.24729  L2.06794, 4.02781  L2.25652, 3.79719  L2.46178, 3.554  L2.68498, 3.29675  L2.9275, 3.02385 " /><path id= "36" d=" M 2.9275 3.02385 L 0.155623 4.6242 " />
<path id= "37" d=" M 0.886256 5.92783 L -1.88562 7.52817 " />
<path id= "38" d=" M -3.19623 -4.59416 L -5.9681 -2.99382 " />
<path d="M0.886256, -2.23714 L0.486539, -2.3694  L0.111457, -2.50361  L-0.241301, -2.64057  L-0.573907, -2.78115  L-0.888412, -2.9262  L-1.18675, -3.07662  L-1.47077, -3.23334  L-1.7422, -3.39731  L-2.00274, -3.56956  L-2.25397, -3.75114  L-2.49746, -3.94317  L-2.73469, -4.14683  L-2.96714, -4.36339  L-3.19623, -4.59416 " /><path id= "40" d=" M 0.886256 -2.23714 L -1.88562 -0.636798 " />
<path d="M2.9275, 3.02385 L2.68498, 2.66795  L2.46178, 2.31767  L2.25652, 1.97087  L2.06794, 1.6254  L1.89487, 1.27913  L1.73625, 0.929942  L1.5911, 0.575673  L1.45852, 0.214144  L1.3377, -0.156874  L1.2279, -0.539666  L1.12844, -0.936591  L1.03871, -1.35009  L0.958143, -1.78272  L0.886256, -2.23714 " /><path d="M-2.5891, 2.26082 C-2.93674, 1.87877 -3.22299, 1.40879 -3.39714, 0.944351 " /></g>

</svg>
