<svg xmlns="http://www.w3.org/2000/svg" viewBox="-6.803380000000001 -6.02988 14.93326 12.05976">
<rect width="100%" height="100%" fill="white"/>
<g   fill="none"
   stroke="rgb(0, 0, 0)"
   stroke-linecap="butt"
   stroke-linejoin="miter"
   stroke-width="0.35"
   transform="scale(1, -1)"
  >
<path d="M7.1, 0 C7.10072, -1.00367 6.88461, -2.00731 6.47097, -2.92176  C6.05858, -3.83676 5.44865, -4.66258 4.69531, -5.32579  C3.97073, -5.96541 3.11339, -6.4544 2.19402, -6.75251  C1.27502, -7.05173 0.293993, -7.16006 -0.668169, -7.06849  C-1.63045, -6.97814 -2.5738, -6.68791 -3.42045, -6.22178  C-4.26768, -5.75669 -5.01821, -5.11571 -5.6101, -4.35164  C-6.27157, -3.50044 -6.73479, -2.49554 -6.95249, -1.43979  C-7.17198, -0.384414 -7.14596, 0.721805 -6.87694, 1.7657  C-6.60978, 2.81007 -6.09966, 3.79199 -5.39889, 4.61109  C-4.6995, 5.43136 -3.80947, 6.08881 -2.81975, 6.51606  C-1.83079, 6.94506 -0.742263, 7.14382 0.334456, 7.09213  C1.41126, 7.04226 2.47626, 6.74195 3.42045, 6.22178  C4.5288, 5.61457 5.46951, 4.70278 6.11129, 3.61421  C6.75603, 2.52738 7.10185, 1.26378 7.1, 0 " /></g>
<g   fill="none"
   stroke="rgb(0, 0, 0)"
   stroke-linecap="butt"
   stroke-linejoin="miter"
   stroke-width="0.35"
   transform="scale(1, -1)"
  >
<path d="M2.54186, -8.88178e-16 C2.51478, -0.369521 2.40518, -0.731374 2.223, -1.05055 " /><circle cx ="0" cy ="0" r ="3.1875" /><path d="M2.54186, 5.56643e-07 C2.58111, 0.516788 2.45662, 1.04659 2.19173, 1.49799  C1.91971, 1.96559 1.49949, 2.34732 1.00521, 2.57863  C0.489049, 2.82261 -0.105296, 2.90104 -0.672252, 2.80245  C-1.2776, 2.69972 -1.84828, 2.39627 -2.27833, 1.95175 " /><path d="M-2.99111, -0.230913 C-2.99958, -0.197211 -3.00682, -0.152978 -3.01282, -0.0982138  C-3.03886, 0.137408 -3.01884, 0.462416 -2.938, 0.765532 " /><path d="M-2.938, 0.765532 C-2.8244, 1.21533 -2.5713, 1.65406 -2.27833, 1.95175 " /><path d="M-1.05033, -2.2231 C-1.48532, -2.1195 -1.89573, -1.8905 -2.22508, -1.57054  C-2.59571, -1.21253 -2.86324, -0.741747 -2.99111, -0.230913 " /><path d="M-1.05033 -2.2231 A2.45873 2.45873 0 0 1 2.223 -1.05055" /><path d="M2.45873, 6.57647e-07 C2.46054, 0.585842 2.24304, 1.16886 1.85797, 1.61038  C1.55776, 1.95781 1.15798, 2.21781 0.71868, 2.35136  C0.310768, 2.47658 -0.129897, 2.49262 -0.545834, 2.39738  C-1.06497, 2.28046 -1.54251, 1.9888 -1.88359, 1.58034  C-2.27094, 1.12175 -2.47948, 0.517323 -2.45735, -0.0825603  C-2.43934, -0.674348 -2.1974, -1.25561 -1.79019, -1.6854  C-1.58008, -1.90879 -1.32768, -2.09222 -1.05033, -2.2231 " /><path d="M5 0 A5 5 0 0 1 4.33013 2.5" /><path d="M4.33013 -2.5 A5 5 0 0 1 5 -1.22465e-15" /><path d="M-4.58002e-08 -5 A5 5 0 0 1 4.33013 -2.5" /><path d="M-4.33013 -2.5 A5 5 0 0 1 -4.58002e-08 -5" /><path d="M-4.33013 2.5 A5 5 0 0 1 -4.33013 -2.5" /><path d="M3.70531e-08 5 A5 5 0 0 1 -4.33013 2.5" /><path d="M4.33013 2.5 A5 5 0 0 1 3.70531e-08 5" /><path d="M2.45873, 5.48038e-07 C2.46054, 0.585842 2.24304, 1.16886 1.85796, 1.61039  C1.55768, 1.9579 1.15778, 2.21794 0.718347, 2.35146  C0.31036, 2.47664 -0.130376, 2.4926 -0.546352, 2.39726  C-1.06776, 2.27973 -1.54714, 1.98586 -1.88845, 1.57453  C-2.27258, 1.11685 -2.47921, 0.515254 -2.45737, -0.081868  C-2.43954, -0.673439 -2.19794, -1.25456 -1.79112, -1.68441  C-1.4414, -2.05785 -0.972052, -2.31678 -0.469645, -2.41346  C-0.00923632, -2.50383 0.476702, -2.45805 0.912131, -2.28328  C1.35983, -2.10534 1.75227, -1.79197 2.02487, -1.39473  C2.3062, -0.987949 2.45967, -0.494579 2.45873, 0 " /><path d="M4.33013, 2.5 C4.78797, 1.70699 5.24553, 0.914468 5.7735, 3.84547e-13 " /><path d="M3.70531e-08, 5 C0.915684, 5 1.83081, 5 2.88675, 5 " /><path d="M2.88675, 5 C3.41472, 4.08553 3.87228, 3.29301 4.33013, 2.5 " /><path d="M-4.33013, 2.5 C-3.87228, 3.29301 -3.41472, 4.08553 -2.88675, 5 " /><path d="M-2.88675, 5 C-1.83081, 5 -0.915684, 5 3.70531e-08, 5 " /><path d="M-4.33013, -2.5 C-4.78797, -1.70699 -5.24553, -0.914468 -5.7735, -3.83693e-13 " /><path d="M-5.7735, 3.87045e-13 C-5.24553, 0.914468 -4.78797, 1.70699 -4.33013, 2.5 " /><path d="M-2.88675, -5 C-3.41472, -4.08553 -3.87228, -3.29301 -4.33013, -2.5 " /><path d="M-4.58002e-08, -5 C-0.915684, -5 -1.83081, -5 -2.88675, -5 " /><path d="M2.88675, -5 C1.83081, -5 0.915684, -5 -4.58002e-08, -5 " /><path d="M4.33013, -2.5 C3.87228, -3.29301 3.41472, -4.08553 2.88675, -5 " /><path d="M5.7735, -3.85914e-13 C5.24553, -0.914468 4.78797, -1.70699 4.33013, -2.5 " /><path d="M-1.05033, -2.2231 C-0.435334, -2.51724 0.302839, -2.53659 0.932391, -2.27509 " /><path d="M2.0161, -1.40739 C2.30294, -0.998171 2.45971, -0.499728 2.45873, 7.77156e-16 " /><path d="M-0.434995, 2.41995 L-0.435048, 2.41994 " /><path d="M-1.05033, -2.2231 C-0.468936, -2.50066 0.222554, -2.5345 0.828259, -2.31503 " /></g>

</svg>
