<svg xmlns="http://www.w3.org/2000/svg" viewBox="-8.599457600000001 -8.5846976 13.8672352 15.2458452">
<rect width="100%" height="100%" fill="white"/>
<g   fill="none"
   stroke="rgb(0, 0, 0)"
   stroke-linecap="butt"
   stroke-linejoin="miter"
   stroke-width="0.35"
   transform="scale(1, -1)"
  >
<path d="M-1.061, 3.12673 C-1.08586, 2.57451 -1.2606, 1.95208 -1.55143, 1.38087  C-1.82073, 0.848589 -2.18915, 0.363971 -2.5873, 0.0181172  C-2.95953, -0.307139 -3.35578, -0.508847 -3.70346, -0.549716  C-4.03523, -0.590514 -4.32101, -0.484674 -4.50767, -0.249991 " /><g transform = "rotate(60, -3.33168, 1.92354)">
<ellipse cx ="-3.33168" cy ="1.92354" rx ="3.57187"  ry ="2.06222"/>
</g>
<path d="M-1.061, 3.12673 C-1.04409, 3.48363 -1.0881, 3.8114 -1.18922, 4.08479 " /><path d="M-2.41391, 4.76949 C-2.39057, 4.77917 -2.36103, 4.78752 -2.32532, 4.79453  C-2.19941, 4.81923 -2.04027, 4.81565 -1.8971, 4.77615  C-1.83808, 4.76024 -1.78097, 4.7388 -1.72576, 4.71184 " /><path d="M-1.72576, 4.71184 C-1.48207, 4.59575 -1.28861, 4.35943 -1.18922, 4.08479 " /><path d="M-4.21515, 2.77137 C-4.0428, 3.19447 -3.79122, 3.60147 -3.50135, 3.93646  C-3.16673, 4.32463 -2.78272, 4.61546 -2.41391, 4.76949 " /><path d="M-4.21515 2.77137 A2.48759 1.43621 60 0 1 -4.50767 -0.249991" />
<path d="M-1.5666, 3.76748 C-2.02452, 3.96549 -2.65368, 3.81869 -3.22936, 3.39328  C-3.6158, 3.11145 -3.97494, 2.71251 -4.24611, 2.27308  C-4.56885, 1.7537 -4.76419, 1.18167 -4.79168, 0.706566  C-4.81824, 0.284627 -4.71453, -0.0584367 -4.50767, -0.249991 " /><path d="M-1.07976, 2.89597 C-1.1592, 3.32867 -1.36972, 3.66477 -1.67477, 3.83936 " /><path d="M-1.67477, 3.83936 C-1.9865, 4.02103 -2.39594, 4.03096 -2.82222, 3.871  C-3.31274, 3.69043 -3.8208, 3.28417 -4.21515, 2.77137 " /><path d="M0.534325 4.15558 A5.46735 3.15658 60 0 1 0.0163794 6.08858" />
<path d="M0.0163794 1.62451 A5.46735 3.15658 60 0 1 0.534325 4.15558" />
<path d="M-3.33168 -2.54053 A5.46735 3.15658 60 0 1 0.0163794 1.62451" />
<path d="M-6.67973 -2.24149 A5.46735 3.15658 60 0 1 -3.33168 -2.54053" />
<path d="M-6.67973 2.22258 A5.46735 3.15658 60 0 1 -6.67973 -2.24149" />
<path d="M-3.33168 6.38762 A5.46735 3.15658 60 0 1 -6.67973 2.22258" />
<path d="M0.0163794 6.08858 A5.46735 3.15658 60 0 1 -3.33168 6.38762" />
<path d="M-1.21927, 3.33213 C-1.57302, 3.30718 -1.9649, 3.1441 -2.33356, 2.87318  C-2.72122, 2.58995 -3.08124, 2.18892 -3.35241, 1.7476  C-3.67203, 1.23102 -3.86558, 0.663128 -3.8935, 0.190674  C-3.91205, -0.10464 -3.86796, -0.362624 -3.76794, -0.555721 " /><path d="M-1.29251, 3.46451 C-1.68943, 3.48116 -2.14949, 3.30826 -2.57698, 2.98882  C-2.98291, 2.68782 -3.35684, 2.25792 -3.6292, 1.79005  C-3.93099, 1.27544 -4.10629, 0.719209 -4.12086, 0.261382  C-4.13316, -0.0803591 -4.05817, -0.366733 -3.90991, -0.55581 " /><path d="M0.0163794, 6.08858 C0.371162, 5.58451 0.803484, 5.03585 1.38013, 4.35785 " /><path d="M-3.33168, 6.38762 C-2.62289, 6.79593 -1.83678, 7.15911 -0.851909, 7.53326 " /><path d="M-0.851909, 7.53326 C-0.612102, 7.04973 -0.336845, 6.59175 0.0163794, 6.08858 " /><path d="M-6.67973, 2.22258 C-6.32495, 3.13452 -5.89262, 4.00102 -5.31598, 4.95592 " /><path d="M-5.31598, 4.95592 C-4.66795, 5.52454 -4.0389, 5.9784 -3.33168, 6.38762 " /><path d="M-6.67973, -2.24149 C-7.03295, -1.73832 -7.30821, -1.28034 -7.54802, -0.796817 " /><path d="M-7.54802, -0.796817 C-7.30821, 0.352559 -7.03295, 1.30974 -6.67973, 2.22258 " /><path d="M-5.31598, -3.97222 C-5.89262, -3.29423 -6.32495, -2.74557 -6.67973, -2.24149 " /><path d="M-3.33168, -2.54053 C-4.0389, -2.94975 -4.66795, -3.40361 -5.31598, -3.97222 " /><path d="M-0.851909, -1.39489 C-1.83678, -1.76903 -2.62289, -2.13221 -3.33168, -2.54053 " /><path d="M0.0163794, 1.62451 C-0.336845, 0.711666 -0.612102, -0.245514 -0.851909, -1.39489 " /><path d="M1.38013, 4.35785 C0.803484, 3.40295 0.371162, 2.53645 0.0163794, 1.62451 " /><path d="M-1.13607, 2.54824 C-1.634, 2.2709 -2.11603, 1.78209 -2.45587, 1.22672  C-2.76413, 0.727564 -2.95515, 0.180656 -2.99212, -0.281514 " /><path d="M-1.09081, 2.8088 C-1.69919, 2.56435 -2.32109, 1.97351 -2.72161, 1.28789  C-3.06345, 0.711698 -3.24471, 0.0818985 -3.22252, -0.40564 " /><path d="M4.21634, 2.72036 C3.97654, 3.20389 3.70128, 3.66186 3.34805, 4.16504 " /><path id= "35" d=" M 1.38013 4.35785 L 4.21634 2.72036 " />
<path id= "36" d=" M 1.98431 5.89577 L -0.851909 7.53326 " />
<path d="M3.34805, 4.16504 C2.99327, 4.66911 2.56095, 5.21777 1.98431, 5.89577 " /><path id= "38" d=" M -2.47977 -5.60971 L -5.31598 -3.97222 " />
<path d="M-2.47977, -5.60971 C-1.4949, -5.23557 -0.708786, -4.87239 -1.36988e-08, -4.46407 " /><path id= "40" d=" M 1.98431 -3.03238 L -0.851909 -1.39489 " />
<path d="M-1.36988e-08, -4.46407 C0.707228, -4.05485 1.33627, -3.60099 1.98431, -3.03238 " /><path d="M1.98431, -3.03238 C2.56095, -2.07748 2.99327, -1.21098 3.34805, -0.299036 " /><path d="M3.34805, -0.299036 C3.70128, 0.613805 3.97654, 1.57098 4.21634, 2.72036 " /></g>

</svg>
