<svg xmlns="http://www.w3.org/2000/svg" viewBox="-5.721804000000001 -7.323254 6.731908000000271 14.646508">
<rect width="100%" height="100%" fill="white"/>
<g   fill="none"
   stroke="rgb(165, 165, 165)"
   stroke-dasharray="1.2,0.8"
   stroke-linecap="butt"
   stroke-linejoin="miter"
   stroke-width="0.25"
   transform="scale(1, -1)"
  >
<path d="M-4.57969, 3.0792 C-4.56627, 3.03062 -4.55258, 2.76982 -4.5386, 2.34454  C-4.52557, 1.95067 -4.51229, 1.41636 -4.49873, 0.83973  C-4.47391, -0.215969 -4.44813, -1.39032 -4.42117, -1.95364 " /><path id= "2" d=" M -4.57969 3.0792 L -4.7117 3.57187 " />
<path d="M-4.7117, 3.57187 L-4.7117, 3.48232  L-4.7117, 3.21815  L-4.7117, 2.7926  L-4.7117, 2.22703  L-4.7117, 1.54978  L-4.7117, 0.794817  L-4.7117, 2.22045e-16  L-4.7117, -0.794817  L-4.7117, -1.54978  L-4.7117, -2.22703  L-4.7117, -2.7926  L-4.7117, -3.21815  L-4.7117, -3.48232  L-4.7117, -3.57187 " /><path d="M-4.7117, -3.57187 L-4.7117, -3.48232  L-4.7117, -3.21815  L-4.7117, -2.7926  L-4.7117, -2.22703  L-4.7117, -1.54978  L-4.7117, -0.794817  L-4.7117, -6.66134e-16  L-4.7117, 0.794817  L-4.7117, 1.54978  L-4.7117, 2.22703  L-4.7117, 2.7926  L-4.7117, 3.21815  L-4.7117, 3.48232  L-4.7117, 3.57188 " /><path d="M-4.57969, 3.0792 Q-4.5833, 3.09267 -4.58688, 3.0865 " /><path d="M-4.58688, 3.0865 Q-4.5962, 3.06986 -4.60536, 2.92356 " /><path d="M-4.60536, 1.19157 C-4.6072, 1.22643 -4.60878, 1.26977 -4.61008, 1.32159  C-4.61467, 1.50424 -4.61653, 1.73115 -4.61731, 1.9344  C-4.61786, 2.09705 -4.61771, 2.24683 -4.61686, 2.38373  C-4.61529, 2.62889 -4.61188, 2.81883 -4.60536, 2.92356 " /><path d="M-4.42117, -1.53996 C-4.48811, -0.948815 -4.54878, 0.161991 -4.60536, 1.19157 " /><path d="M-4.42117, -1.53996 Q-4.42117, -1.66465 -4.42117, -1.77855  Q-4.42117, -1.88918 -4.42117, -1.98756  Q-4.42117, -2.03372 -4.42117, -2.07987  Q-4.42117, -2.1217 -4.42117, -2.16353  Q-4.42117, -2.20085 -4.42117, -2.23818  Q-4.42117, -2.27085 -4.42117, -2.30352  Q-4.42117, -2.3314 -4.42117, -2.35928  Q-4.42117, -2.38224 -4.42117, -2.40521  Q-4.42117, -2.42318 -4.42117, -2.44114  Q-4.42117, -2.45403 -4.42117, -2.46691  Q-4.42117, -2.47466 -4.42117, -2.48242  Q-4.42117, -2.485 -4.42117, -2.48759 " /><path d="M-4.42117, -2.48759 C-4.42117, -2.48811 -4.42117, -2.29701 -4.42117, -1.95364 " /><path d="M-3.65124, 2.48759 Q-3.66537, 2.48758 -3.6795, 2.46332 " /><path d="M-3.6795, 2.46332 C-3.71457, 2.40368 -3.74963, 2.22992 -3.7847, 1.96471  C-3.82279, 1.67772 -3.86087, 1.28337 -3.89895, 0.841945  C-3.93732, 0.397717 -3.97568, -0.0925841 -4.01405, -0.55296  C-4.05605, -1.05746 -4.09805, -1.52336 -4.14006, -1.86485  C-4.18879, -2.26359 -4.23751, -2.48951 -4.28624, -2.48759 " /><path d="M-4.28624, -2.48759 Q-4.30037, -2.48758 -4.3145, -2.46331 " /><path d="M-4.3145, -2.46331 C-4.35005, -2.40287 -4.38561, -2.22503 -4.42117, -1.95364 " /><path id= "15" d=" M -3.65124 2.48759 L -3.96873 2.48759 " />
<path d="M-3.96873, 2.48759 C-4.02536, 2.49102 -4.08199, 2.18187 -4.13862, 1.6594  C-4.23278, 0.799769 -4.32698, -0.631866 -4.42117, -1.53996 " /><path d="M-4.7117, 5.46735 C-4.7117, 5.46608 -4.7117, 5.4648 -4.7117, 5.46353  C-4.7117, 5.45731 -4.7117, 5.44712 -4.7117, 5.43297  C-4.7117, 5.41659 -4.7117, 5.39628 -4.7117, 5.37203  C-4.7117, 5.34559 -4.7117, 5.31526 -4.7117, 5.28105  C-4.7117, 5.1566 -4.7117, 4.97261 -4.7117, 4.73486 " /><path d="M-4.7117, -4.73486 C-4.7117, -4.97261 -4.7117, -5.1566 -4.7117, -5.28105  C-4.7117, -5.31526 -4.7117, -5.34559 -4.7117, -5.37203  C-4.7117, -5.39628 -4.7117, -5.41659 -4.7117, -5.43297  C-4.7117, -5.44712 -4.7117, -5.45731 -4.7117, -5.46353  C-4.7117, -5.4648 -4.7117, -5.46608 -4.7117, -5.46735 " /><path d="M-4.7117, 1.50201e-08 Q-4.7117, -0.409216 -4.7117, -0.814866  Q-4.7117, -1.21851 -4.7117, -1.61153  Q-4.7117, -1.80449 -4.7117, -1.99745  Q-4.7117, -2.18482 -4.7117, -2.37219  Q-4.7117, -2.55293 -4.7117, -2.73367  Q-4.7117, -2.90677 -4.7117, -3.07987  Q-4.7117, -3.24435 -4.7117, -3.40884  Q-4.7117, -3.56379 -4.7117, -3.71874  Q-4.7117, -3.8633 -4.7117, -4.00785  Q-4.7117, -4.1412 -4.7117, -4.27455  Q-4.7117, -4.39594 -4.7117, -4.51734  Q-4.7117, -4.6261 -4.7117, -4.73486 " /><path d="M-4.7117, 4.73486 Q-4.7117, 4.6261 -4.7117, 4.51734  Q-4.7117, 4.39594 -4.7117, 4.27455  Q-4.7117, 4.1412 -4.7117, 4.00785  Q-4.7117, 3.8633 -4.7117, 3.71874  Q-4.7117, 3.56379 -4.7117, 3.40884  Q-4.7117, 3.24435 -4.7117, 3.07987  Q-4.7117, 2.90677 -4.7117, 2.73367  Q-4.7117, 2.55293 -4.7117, 2.37219  Q-4.7117, 2.18482 -4.7117, 1.99745  Q-4.7117, 1.80449 -4.7117, 1.61153  Q-4.7117, 1.21851 -4.7117, 0.814866  Q-4.7117, 0.409216 -4.7117, 1.50201e-08 " /><path d="M-2.38124, 2.48759 Q-2.39537, 2.48758 -2.40951, 2.46332 " /><path d="M-2.40951, 2.46332 C-2.44457, 2.40367 -2.47964, 2.22991 -2.51471, 1.9647  C-2.5528, 1.67765 -2.59089, 1.28321 -2.62898, 0.84169  C-2.66742, 0.396598 -2.70585, -0.0947298 -2.74429, -0.555857  C-2.78643, -1.06195 -2.82858, -1.52895 -2.87073, -1.8703  C-2.91924, -2.2657 -2.96774, -2.48947 -3.01624, -2.48759 " /><path d="M-3.01624, -2.48759 Q-3.03037, -2.48758 -3.0445, -2.46332 " /><path d="M-3.0445, -2.46332 C-3.08446, -2.39562 -3.12442, -2.17873 -3.16437, -1.84896  C-3.2074, -1.4954 -3.25042, -1.01229 -3.29344, -0.492748  C-3.37081, 0.444084 -3.44817, 1.47277 -3.52554, 2.02184  C-3.56744, 2.3233 -3.60935, 2.48866 -3.65124, 2.48759 " /><path id= "25" d=" M -2.38124 2.48759 L -2.69873 2.48759 " />
<path d="M-2.69873, 2.48759 C-2.74707, 2.48945 -2.79544, 2.26712 -2.8438, 1.87395  C-2.88112, 1.5723 -2.91843, 1.17247 -2.95575, 0.733238  C-3.036, -0.21342 -3.11625, -1.3213 -3.1965, -1.93597  C-3.23282, -2.21724 -3.26915, -2.4016 -3.30547, -2.46332 " /><path d="M-3.30547, -2.46332 Q-3.3196, -2.48758 -3.33373, -2.48759 " /><path d="M-3.33373, -2.48759 C-3.38479, -2.48989 -3.43585, -2.24088 -3.48692, -1.8067  C-3.52846, -1.45586 -3.57, -0.987261 -3.61154, -0.48541  C-3.65152, -0.00278196 -3.69149, 0.508191 -3.73147, 0.961826  C-3.77172, 1.41923 -3.81198, 1.81633 -3.85223, 2.08567  C-3.88164, 2.28524 -3.91106, 2.41112 -3.94047, 2.46332 " /><path d="M-3.94047, 2.46332 Q-3.9546, 2.48758 -3.96873, 2.48759 " /><path d="M-4.7117, 4.73486 C-4.7106, 5.2355 -4.59954, 5.73583 -4.36136, 6.31315 " /><path d="M-4.7117, 1.50201e-08 C-4.7106, 1.00127 -4.59954, 2.00194 -4.36136, 3.15658 " /><path d="M-4.36136, 3.15658 C-4.59954, 3.73389 -4.7106, 4.23423 -4.7117, 4.73486 " /><path d="M-4.7117, -4.73486 C-4.7106, -4.23423 -4.59954, -3.73389 -4.36136, -3.15658 " /><path d="M-4.36136, -3.15658 C-4.59954, -2.00194 -4.7106, -1.00127 -4.7117, 1.50201e-08 " /><path d="M-4.36136, -6.31315 C-4.59954, -5.73583 -4.7106, -5.2355 -4.7117, -4.73486 " /><path d="M-1.11125, 2.48759 Q-1.12538, 2.48758 -1.13951, 2.46332 " /><path d="M-1.13951, 2.46332 C-1.17483, 2.40326 -1.21014, 2.2274 -1.24546, 1.95899  C-1.28324, 1.6729 -1.32103, 1.28152 -1.3588, 0.843741  C-1.39706, 0.400855 -1.43532, -0.0879537 -1.47358, -0.547311  C-1.51604, -1.05759 -1.5585, -1.52873 -1.60096, -1.87217  C-1.64939, -2.26643 -1.69781, -2.48946 -1.74624, -2.48759 " /><path d="M-1.74624, -2.48759 Q-1.76037, -2.48758 -1.7745, -2.46332 " /><path d="M-1.7745, -2.46332 C-1.81449, -2.39559 -1.85447, -2.17846 -1.89445, -1.84836  C-1.93727, -1.49631 -1.98009, -1.016 -2.02291, -0.499184  C-2.10063, 0.441446 -2.17834, 1.47609 -2.25606, 2.02557  C-2.29779, 2.32469 -2.33953, 2.48864 -2.38124, 2.48759 " /><path id= "40" d=" M -1.11125 2.48759 L -1.42874 2.48759 " />
<path d="M-1.42874, 2.48759 C-1.47707, 2.48945 -1.52543, 2.2672 -1.57378, 1.87416  C-1.61124, 1.57144 -1.64869, 1.16978 -1.68615, 0.728659  C-1.76575, -0.210853 -1.84535, -1.30825 -1.92496, -1.92397  C-1.9618, -2.21194 -1.99864, -2.40075 -2.03548, -2.46332 " /><path d="M-2.03548, -2.46332 Q-2.04961, -2.48758 -2.06374, -2.48759 " /><path d="M-2.06374, -2.48759 C-2.11477, -2.48989 -2.1658, -2.24118 -2.21683, -1.80745  C-2.25863, -1.45463 -2.30042, -0.982527 -2.34222, -0.477258  C-2.38212, 0.00480828 -2.42202, 0.514626 -2.46193, 0.967002  C-2.50202, 1.42213 -2.54212, 1.81715 -2.58221, 2.08548  C-2.61163, 2.28516 -2.64106, 2.4111 -2.67048, 2.46332 " /><path d="M-2.67048, 2.46332 Q-2.6846, 2.48758 -2.69873, 2.48759 " /><path d="M-0.350343, 6.31315 C-0.112164, 5.73583 -0.00110178, 5.2355 0, 4.73486 " /><path id= "46" d=" M -0.350343 3.15658 L -4.36136 3.15658 " />
<path d="M1.38778e-17, 4.73486 C-0.00110179, 4.23423 -0.112164, 3.73389 -0.350343, 3.15658 " /><path d="M-0.350343, 3.15658 C-0.112164, 2.00194 -0.00110179, 1.00127 0, 1.50201e-08 " /><path id= "49" d=" M -0.350343 -3.15658 L -4.36136 -3.15658 " />
<path d="M-1.38778e-17, 1.50201e-08 C-0.00110178, -1.00127 -0.112164, -2.00194 -0.350343, -3.15658 " /><path d="M-0.350343, -3.15658 C-0.112164, -3.73389 -0.00110179, -4.23423 -1.38778e-17, -4.73486 " /><path d="M2.4887e-27, -4.73486 C-0.00110178, -5.2355 -0.112164, -5.73583 -0.350343, -6.31315 " /><path d="M-0.290533, -1.50938 C-0.352435, -2.1194 -0.414342, -2.49244 -0.476246, -2.48759 " /><path d="M-0.476246, -2.48759 Q-0.490375, -2.48758 -0.504507, -2.46332 " /><path d="M-0.504507, -2.46332 C-0.544581, -2.39543 -0.584657, -2.17744 -0.624732, -1.84605  C-0.667272, -1.49576 -0.709809, -1.01909 -0.752348, -0.505963  C-0.829708, 0.429661 -0.907062, 1.46039 -0.984418, 2.01375  C-1.0267, 2.32028 -1.06898, 2.48869 -1.11125, 2.48759 " /><path d="M-0.106343, -3.14678 L-0.110382, -3.1407 " /><path d="M-0.110382, -3.1407 Q-0.119958, -3.12421 -0.129698, -3.08783 " /><path d="M-0.129698, -3.08783 C-0.15283, -2.99947 -0.176733, -2.83247 -0.201406, -2.58686  C-0.229917, -2.30693 -0.259539, -1.93027 -0.290533, -1.50938 " /><path d="M-0.290533, 1.9773 C-0.368373, 1.40141 -0.446206, 0.351621 -0.524044, -0.58285  C-0.567692, -1.10571 -0.611337, -1.5844 -0.654985, -1.92412  C-0.691817, -2.21201 -0.728651, -2.40076 -0.765483, -2.46332 " /><path d="M-0.765483, -2.46332 Q-0.779614, -2.48758 -0.793744, -2.48759 " /><path d="M-0.793744, -2.48759 C-0.840727, -2.48926 -0.887707, -2.27979 -0.934693, -1.90684  C-0.980584, -1.54502 -1.02649, -1.03051 -1.07238, -0.475378  C-1.11245, 0.0088177 -1.15253, 0.520881 -1.1926, 0.974547  C-1.23282, 1.4305 -1.27304, 1.82548 -1.31326, 2.0925  C-1.34234, 2.28817 -1.37141, 2.41177 -1.40048, 2.46332 " /><path d="M-1.40048, 2.46332 Q-1.41461, 2.48758 -1.42874, 2.48759 " /><path d="M-0.290533, 1.9773 Q-0.290533, 1.88658 -0.290533, 1.79586  Q-0.290533, 1.69386 -0.290533, 1.59185  Q-0.290533, 1.47983 -0.290533, 1.36781  Q-0.290533, 1.2472 -0.290533, 1.12658  Q-0.290533, 0.99888 -0.290533, 0.87118  Q-0.290533, 0.606957 -0.290533, 0.330862  Q-0.290533, 0.0524087 -0.290533, -0.226045  Q-0.290533, -0.503758 -0.290533, -0.771618  Q-0.290533, -0.901582 -0.290533, -1.03155  Q-0.290533, -1.15502 -0.290533, -1.2785  Q-0.290533, -1.39394 -0.290533, -1.50938 " /><path d="M-0.248758, 2.6435 C-0.26237, 2.59409 -0.276284, 2.35659 -0.290533, 1.9773 " /><path d="M0, 5.46735 C0, 5.46608 0, 5.4648 0, 5.46353  C0, 5.45731 0, 5.44712 0, 5.43297  C0, 5.41659 0, 5.39628 0, 5.37203  C0, 5.34559 0, 5.31526 0, 5.28105  C0, 5.1566 0, 4.97261 0, 4.73486 " /><path d="M0, 4.73486 Q0, 4.6261 0, 4.51734  Q0, 4.39594 0, 4.27455  Q0, 4.1412 0, 4.00785  Q0, 3.8633 0, 3.71874  Q0, 3.56379 0, 3.40884  Q0, 3.24435 0, 3.07987  Q0, 2.90677 0, 2.73367  Q0, 2.55293 0, 2.37219  Q0, 2.18482 0, 1.99745  Q0, 1.80449 0, 1.61153  Q0, 1.21851 0, 0.814866  Q0, 0.409216 0, 1.50201e-08 " /><path d="M0, 1.50201e-08 Q0, -0.409216 0, -0.814866  Q0, -1.21851 0, -1.61153  Q0, -1.80449 0, -1.99745  Q0, -2.18482 0, -2.37219  Q0, -2.55293 0, -2.73367  Q0, -2.90677 0, -3.07987  Q0, -3.24435 0, -3.40884  Q0, -3.56379 0, -3.71874  Q0, -3.8633 0, -4.00785  Q0, -4.1412 0, -4.27455  Q0, -4.39594 0, -4.51734  Q0, -4.6261 0, -4.73486 " /><path d="M0, -4.73486 C0, -4.97261 0, -5.1566 0, -5.28105  C0, -5.31526 0, -5.34559 0, -5.37203  C0, -5.39628 0, -5.41659 0, -5.43297  C0, -5.44712 0, -5.45731 0, -5.46353  C0, -5.4648 0, -5.46608 0, -5.46735 " /><path d="M-0.106341, -1.92649 C-0.0998293, -2.20359 -0.0964153, -2.47931 -0.094847, -2.68643  C-0.0931479, -2.99208 -0.0934476, -3.16495 -0.106343, -3.14678 " /><path d="M0, 3.57187 L0, 3.48232  L0, 3.21815  L0, 2.7926  L0, 2.22703  L0, 1.54978  L0, 0.794817  L0, 2.22045e-16  L0, -0.794817  L0, -1.54978  L0, -2.22703  L0, -2.7926  L0, -3.21815  L0, -3.48232  L0, -3.57187 " /><path d="M0, -3.57187 L0, -3.48232  L0, -3.21815  L0, -2.7926  L0, -2.22703  L0, -1.54978  L0, -0.794817  L0, -6.66134e-16  L0, 0.794817  L0, 1.54978  L0, 2.22703  L0, 2.7926  L0, 3.21815  L0, 3.48232  L0, 3.57188 " /><path id= "72" d=" M 0 3.57187 L -0.248758 2.6435 " />
<path d="M-0.248758, 2.6435 Q-0.24457, 2.65913 -0.240419, 2.652 " /><path d="M-0.240419, 2.652 C-0.219355, 2.62178 -0.198992, 2.11762 -0.179222, 1.35473  C-0.154025, 0.387808 -0.12979, -0.953484 -0.106341, -1.92649 " /></g>
<g   fill="none"
   stroke="rgb(165, 165, 165)"
   stroke-dasharray="1.2,0.8"
   stroke-linecap="butt"
   stroke-linejoin="miter"
   stroke-width="0.25"
   transform="scale(1, -1)"
  >
<path id= "1" d=" M -4.42117 -2.48759 L -4.7117 -3.57188 " />
<path d="M-3.6795, 2.46332 L-3.27658, 3.15588 " /><path d="M-4.3145, -2.46331 L-3.91157, -3.15588 " /><path id= "4" d=" M -4.28624 -2.48759 L -4.42117 -2.48759 " />
<path d="M-4.54658, 3.15588 Q-4.52915, 3.18528 -4.50812, 3.19998  Q-4.47872, 3.22083 -4.44501, 3.22084 " /><path d="M-4.58688, 3.0865 L-4.54658, 3.15588 " /><path d="M-3.27658, 3.15588 Q-3.25915, 3.18527 -3.23812, 3.19998  Q-3.20871, 3.22083 -3.175, 3.22084 " /><path d="M-3.91157, -3.15588 C-3.8877, -3.19609 -3.86039, -3.21176 -3.83282, -3.21831  C-3.82521, -3.21915 -3.81759, -3.21999 -3.80998, -3.22083  C-3.77376, -3.22015 -3.73725, -3.20447 -3.70843, -3.15588 " /><path d="M-4.34343, 3.15589 Q-4.36086, 3.18528 -4.38188, 3.19998  Q-4.41128, 3.22083 -4.445, 3.22084 " /><path d="M-2.40951, 2.46332 L-2.00658, 3.15588 " /><path d="M-3.0445, -2.46332 L-2.64157, -3.15587 " /><path id= "12" d=" M -3.01624 -2.48759 L -3.33373 -2.48759 " />
<path d="M-3.70843, -3.15588 L-3.30547, -2.46332 " /><path d="M-4.34343, 3.15589 L-3.94047, 2.46332 " /><path d="M-2.00658, 3.15588 Q-1.98915, 3.18527 -1.96812, 3.19998  Q-1.93871, 3.22083 -1.905, 3.22083 " /><path d="M-2.64157, -3.15587 C-2.6177, -3.19608 -2.59039, -3.21176 -2.56282, -3.21831  C-2.5552, -3.21915 -2.54759, -3.21999 -2.53998, -3.22083  C-2.50376, -3.22014 -2.46725, -3.20446 -2.43843, -3.15588 " /><path d="M-3.07343, 3.15588 Q-3.09086, 3.18528 -3.11188, 3.19998  Q-3.14128, 3.22083 -3.175, 3.22084 " /><path d="M-1.13951, 2.46332 L-0.736576, 3.15587 " /><path d="M-1.7745, -2.46332 L-1.37157, -3.15587 " /><path id= "20" d=" M -1.74624 -2.48759 L -2.06374 -2.48759 " />
<path d="M-2.43843, -3.15588 L-2.03548, -2.46332 " /><path d="M-3.07343, 3.15588 L-2.67048, 2.46332 " /><path d="M-0.736576, 3.15587 Q-0.719148, 3.18527 -0.698122, 3.19997  Q-0.668715, 3.22083 -0.634997, 3.22083 " /><path d="M-1.37157, -3.15587 C-1.3477, -3.19608 -1.32039, -3.21176 -1.29281, -3.21831  C-1.2852, -3.21915 -1.27759, -3.21999 -1.26998, -3.22083  C-1.23376, -3.22014 -1.19725, -3.20446 -1.16843, -3.15587 " /><path d="M-1.80343, 3.15588 Q-1.82085, 3.18527 -1.84188, 3.19998  Q-1.87128, 3.22083 -1.905, 3.22083 " /><path d="M-0.504507, -2.46332 L-0.110382, -3.1407 " /><path id= "27" d=" M -0.476246 -2.48759 L -0.793744 -2.48759 " />
<path d="M-1.16843, -3.15587 L-0.765483, -2.46332 " /><path d="M-1.80343, 3.15588 L-1.40048, 2.46332 " /><path d="M-0.533426, 3.15588 Q-0.550855, 3.18527 -0.57188, 3.19997  Q-0.601284, 3.22082 -0.634997, 3.22083 " /><path id= "31" d=" M -0.129698 -3.08783 L 1.14748e-16 -3.57187 " />
<path d="M-0.533426, 3.15588 L-0.240419, 2.652 " /></g>
<g   fill="none"
   stroke="rgb(0, 0, 0)"
   stroke-linecap="butt"
   stroke-linejoin="miter"
   stroke-width="0.35"
   transform="scale(1, -1)"
  >
<path id= "1" d=" M -4.7117 -5.46735 L -4.36136 -6.31315 " />
<path id= "2" d=" M 2.70417e-13 -5.46735 L -0.350343 -6.31315 " />
</g>
<g   fill="none"
   stroke="rgb(0, 0, 0)"
   stroke-linecap="butt"
   stroke-linejoin="miter"
   stroke-width="0.35"
   transform="scale(1, -1)"
  >
<path d="M-4.7117, 4.73486 C-4.7117, 4.97261 -4.7117, 5.1566 -4.7117, 5.28105  C-4.7117, 5.31526 -4.7117, 5.34559 -4.7117, 5.37203  C-4.7117, 5.39628 -4.7117, 5.41659 -4.7117, 5.43297  C-4.7117, 5.44712 -4.7117, 5.45731 -4.7117, 5.46353  C-4.7117, 5.4648 -4.7117, 5.46608 -4.7117, 5.46735 " /><path d="M-4.7117, -1.9373e-08 C-4.7117, 0.409197 -4.7117, 0.816695 -4.7117, 1.2166  C-4.7117, 1.34824 -4.7117, 1.47989 -4.7117, 1.61153  C-4.7117, 1.74017 -4.7117, 1.86881 -4.7117, 1.99745  C-4.7117, 2.12236 -4.7117, 2.24728 -4.7117, 2.37219  C-4.7117, 2.49269 -4.7117, 2.61318 -4.7117, 2.73368  C-4.7117, 2.84907 -4.7117, 2.96447 -4.7117, 3.07987  C-4.7117, 3.18952 -4.7117, 3.29918 -4.7117, 3.40884  C-4.7117, 3.51214 -4.7117, 3.61544 -4.7117, 3.71874  C-4.7117, 3.81511 -4.7117, 3.91148 -4.7117, 4.00785  C-4.7117, 4.09675 -4.7117, 4.18565 -4.7117, 4.27455  C-4.7117, 4.35548 -4.7117, 4.43641 -4.7117, 4.51734  C-4.7117, 4.58985 -4.7117, 4.66235 -4.7117, 4.73486 " /><path d="M-4.7117, -4.73486 C-4.7117, -4.66235 -4.7117, -4.58985 -4.7117, -4.51734  C-4.7117, -4.43641 -4.7117, -4.35548 -4.7117, -4.27455  C-4.7117, -4.18565 -4.7117, -4.09675 -4.7117, -4.00785  C-4.7117, -3.91148 -4.7117, -3.81511 -4.7117, -3.71874  C-4.7117, -3.61544 -4.7117, -3.51214 -4.7117, -3.40884  C-4.7117, -3.29918 -4.7117, -3.18952 -4.7117, -3.07987  C-4.7117, -2.96447 -4.7117, -2.84907 -4.7117, -2.73368  C-4.7117, -2.61318 -4.7117, -2.49269 -4.7117, -2.37219  C-4.7117, -2.24728 -4.7117, -2.12236 -4.7117, -1.99745  C-4.7117, -1.86881 -4.7117, -1.74017 -4.7117, -1.61153  C-4.7117, -1.47989 -4.7117, -1.34824 -4.7117, -1.2166  C-4.7117, -0.816695 -4.7117, -0.409197 -4.7117, -1.9373e-08 " /><path d="M-4.7117, -5.46735 C-4.7117, -5.46608 -4.7117, -5.4648 -4.7117, -5.46353  C-4.7117, -5.45731 -4.7117, -5.44712 -4.7117, -5.43297  C-4.7117, -5.41659 -4.7117, -5.39628 -4.7117, -5.37203  C-4.7117, -5.34559 -4.7117, -5.31526 -4.7117, -5.28105  C-4.7117, -5.1566 -4.7117, -4.97261 -4.7117, -4.73486 " /><path id= "5" d=" M -4.7117 5.46735 L -4.36136 6.31315 " />
<path d="M-4.7117, -4.73486 C-4.7106, -5.2355 -4.59954, -5.73583 -4.36136, -6.31315 " /><path d="M-4.36136, -3.15658 C-4.59954, -3.73389 -4.7106, -4.23423 -4.7117, -4.73486 " /><path d="M-4.7117, -1.9373e-08 C-4.7106, -1.00127 -4.59954, -2.00194 -4.36136, -3.15658 " /><path d="M-4.36136, 3.15658 C-4.59954, 2.00194 -4.7106, 1.00127 -4.7117, -1.9373e-08 " /><path d="M-4.7117, 4.73486 C-4.7106, 4.23423 -4.59954, 3.73389 -4.36136, 3.15658 " /><path d="M-4.36136, 6.31315 C-4.59954, 5.73583 -4.7106, 5.2355 -4.7117, 4.73486 " /><path id= "12" d=" M -4.36136 6.31315 L -0.350343 6.31315 " />
<path id= "13" d=" M -0.350343 -6.31315 L -4.36136 -6.31315 " />
<path d="M-0.350343, -6.31315 C-0.112164, -5.73583 -0.00110179, -5.2355 0, -4.73486 " /><path id= "15" d=" M -0.350343 -3.15658 L -4.36136 -3.15658 " />
<path d="M-1.38778e-17, -4.73486 C-0.00110178, -4.23423 -0.112164, -3.73389 -0.350343, -3.15658 " /><path d="M-0.350343, -3.15658 C-0.112164, -2.00194 -0.00110179, -1.00127 0, -1.9373e-08 " /><path id= "18" d=" M -0.350343 3.15658 L -4.36136 3.15658 " />
<path d="M1.38778e-17, -1.9373e-08 C-0.00110178, 1.00127 -0.112164, 2.00194 -0.350343, 3.15658 " /><path d="M-0.350343, 3.15658 C-0.112164, 3.73389 -0.00110178, 4.23423 0, 4.73486 " /><path d="M1.38778e-17, 4.73486 C-0.00110179, 5.2355 -0.112164, 5.73583 -0.350343, 6.31315 " /><path id= "22" d=" M -0.350343 6.31315 L 1.47785e-13 5.46735 " />
<path d="M0, -5.46735 C0, -5.46608 0, -5.4648 0, -5.46353  C0, -5.45731 0, -5.44712 0, -5.43297  C0, -5.41659 0, -5.39628 0, -5.37203  C0, -5.34559 0, -5.31526 0, -5.28105  C0, -5.1566 0, -4.97261 0, -4.73486 " /><path d="M0, -4.73486 C0, -4.66235 0, -4.58985 0, -4.51734  C0, -4.43641 0, -4.35548 0, -4.27455  C0, -4.18565 0, -4.09675 0, -4.00785  C0, -3.91148 0, -3.81511 0, -3.71874  C0, -3.61544 0, -3.51214 0, -3.40884  C0, -3.29918 0, -3.18952 0, -3.07987  C0, -2.96447 0, -2.84907 0, -2.73368  C0, -2.61318 0, -2.49269 0, -2.37219  C0, -2.24728 0, -2.12236 0, -1.99745  C0, -1.86881 0, -1.74017 0, -1.61153  C0, -1.47989 0, -1.34824 0, -1.2166  C0, -0.816695 0, -0.409197 0, -1.9373e-08 " /><path d="M0, -1.9373e-08 C0, 0.409197 0, 0.816695 0, 1.2166  C0, 1.34824 0, 1.47989 0, 1.61153  C0, 1.74017 0, 1.86881 0, 1.99745  C0, 2.12236 0, 2.24728 0, 2.37219  C0, 2.49269 0, 2.61318 0, 2.73368  C0, 2.84907 0, 2.96447 0, 3.07987  C0, 3.18952 0, 3.29918 0, 3.40884  C0, 3.51214 0, 3.61544 0, 3.71874  C0, 3.81511 0, 3.91148 0, 4.00785  C0, 4.09675 0, 4.18565 0, 4.27455  C0, 4.35548 0, 4.43641 0, 4.51734  C0, 4.58985 0, 4.66235 0, 4.73486 " /><path d="M0, 4.73486 C0, 4.97261 0, 5.1566 0, 5.28105  C0, 5.31526 0, 5.34559 0, 5.37203  C0, 5.39628 0, 5.41659 0, 5.43297  C0, 5.44712 0, 5.45731 0, 5.46353  C0, 5.4648 0, 5.46608 0, 5.46735 " /></g>

</svg>
