<svg xmlns="http://www.w3.org/2000/svg" viewBox="-7.323254 -6.477454 14.646508 12.954908">
<rect width="100%" height="100%" fill="white"/>
<g   fill="none"
   stroke="rgb(165, 165, 165)"
   stroke-dasharray="1.2,0.8"
   stroke-linecap="butt"
   stroke-linejoin="miter"
   stroke-width="0.25"
   transform="scale(1, -1)"
  >
<path d="M2.48759, 6.00601e-07 C2.48894, 0.547899 2.30184, 1.09387 1.96471, 1.52579  C1.67772, 1.89654 1.28337, 2.18278 0.841945, 2.34078  C0.397717, 2.50136 -0.0925841, 2.53109 -0.55296, 2.42536  C-1.05746, 2.31143 -1.52336, 2.03478 -1.86485, 1.64634  C-2.27159, 1.18875 -2.49815, 0.576604 -2.48734, -0.0355301  C-2.48089, -0.57753 -2.2902, -1.11505 -1.95364, -1.53994 " /><path d="M2.48759, 4.004e-07 C2.48894, 0.547908 2.30184, 1.09388 1.9647, 1.52581  C1.67765, 1.89662 1.28321, 2.18289 0.84169, 2.34087  C0.396598, 2.50171 -0.0947298, 2.53118 -0.555857, 2.42469  C-1.06195, 2.30979 -1.52895, 2.03105 -1.8703, 1.64015  C-2.27292, 1.18409 -2.49728, 0.576061 -2.48738, -0.0322104  C-2.48153, -0.629715 -2.2501, -1.2213 -1.84896, -1.66417  C-1.4954, -2.05875 -1.01229, -2.33451 -0.492748, -2.4383  C-0.0439051, -2.52969 0.429946, -2.49327 0.859552, -2.33437  C1.3239, -2.16435 1.73448, -1.85168 2.02184, -1.44924  C2.3233, -1.03049 2.48866, -0.51597 2.48759, 4.44089e-16 " /><path d="M2.48435, 0.127019 Q2.47323, 0.343651 2.42487, 0.555105 " /><path d="M2.4106, 0.614095 Q2.36833, 0.779976 2.30376, 0.938519 " /><path d="M2.23466, 1.09289 L2.19279, 1.17464 " /><path d="M1.73705, 1.78066 Q1.5647, 1.94872 1.36339, 2.08069 " /><path d="M1.06179, 2.2496 Q0.965277, 2.29515 0.865217, 2.33228 " /><path d="M0.675236, 2.3942 C0.380546, 2.47745 0.0704126, 2.50551 -0.234431, 2.47652 " /><path d="M-1.12847, 2.2169 Q-1.22247, 2.16905 -1.31208, 2.11343 " /><path d="M-1.34482, 2.09275 C-1.57028, 1.94752 -1.76734, 1.77063 -1.93597, 1.56209  C-2.31407, 1.09653 -2.5133, 0.490561 -2.48522, -0.108539  C-2.46371, -0.625712 -2.27492, -1.13408 -1.95364, -1.53994 " /><path d="M2.48759, 2.002e-07 C2.48897, 0.55101 2.29968, 1.10003 1.95899, 1.53312  C1.6729, 1.89983 1.28152, 2.18304 0.843741, 2.34013  C0.400855, 2.50061 -0.0879537, 2.531 -0.547311, 2.42664  C-1.05759, 2.31269 -1.52873, 2.03225 -1.87217, 1.63802  C-2.27365, 1.1822 -2.49727, 0.575076 -2.48738, -0.0322661  C-2.48151, -0.630055 -2.24985, -1.22191 -1.84836, -1.66484  C-1.49631, -2.05742 -1.016, -2.33231 -0.499184, -2.43699  C-0.0470225, -2.53031 0.430882, -2.4938 0.863618, -2.33287  C1.32833, -2.1618 1.73885, -1.84777 2.02557, -1.44402  C2.32469, -1.02623 2.48864, -0.513825 2.48759, 2.002e-07 " /><path d="M2.48435, 0.126878 Q2.47343, 0.340111 2.4264, 0.548377 " /><path d="M2.41522, 0.595657 Q2.37162, 0.772372 2.3028, 0.940877 " /><path d="M2.29724, 0.954372 L2.26069, 1.03797 " /><path d="M2.23134, 1.09966 L2.20541, 1.15077 " /><path d="M1.75589, 1.76209 Q1.55329, 1.96382 1.31033, 2.11451 " /><path d="M1.06836, 2.24649 Q0.960073, 2.29798 0.847344, 2.33883 " /><path d="M0.636433, 2.4048 Q0.462014, 2.45094 0.282767, 2.47147 " /><path d="M0.267094, 2.47321 Q0.178286, 2.4828 0.0890206, 2.486 " /><path d="M0.0855126, 2.48612 Q-0.0665805, 2.49134 -0.218181, 2.47801 " /><path d="M-0.285086, 2.4712 Q-0.521794, 2.44384 -0.749041, 2.37214 " /><path d="M-0.796695, 2.35656 Q-1.06765, 2.26484 -1.31081, 2.11421 " /><path d="M-1.33358, 2.09992 C-1.55819, 1.95695 -1.75499, 1.78259 -1.92397, 1.57684  C-2.30963, 1.10942 -2.51357, 0.497207 -2.48524, -0.108117  C-2.46381, -0.625435 -2.27501, -1.13397 -1.95364, -1.53994 " /><path d="M-0.47751, -2.44133 L-0.36197, -2.46112 " /><path d="M6.31315, 3.4861e-13 C5.73583, 0.999944 5.2355, 1.86655 4.73486, 2.73368 " /><path d="M4.73486, 2.73368 C4.23423, 3.6008 3.73389, 4.46741 3.15658, 5.46735 " /><path d="M3.15658, 5.46735 C2.00194, 5.46735 1.00127, 5.46735 1.50201e-08, 5.46735 " /><path d="M1.50201e-08, 5.46735 C-1.00127, 5.46735 -2.00194, 5.46735 -3.15658, 5.46735 " /><path d="M-3.15658, 5.46735 C-3.73389, 4.46741 -4.23423, 3.6008 -4.73486, 2.73368 " /><path d="M-4.73486, 2.73368 C-5.2355, 1.86655 -5.73583, 0.999944 -6.31315, 4.06971e-13 " /><path d="M-6.31315, -2.90013e-13 C-5.73583, -0.999943 -5.2355, -1.86655 -4.73486, -2.73367 " /><path d="M-4.73486, -2.73367 C-4.23423, -3.6008 -3.73389, -4.46741 -3.15658, -5.46735 " /><path d="M-3.15658, -5.46735 C-2.00194, -5.46735 -1.00127, -5.46735 -1.9373e-08, -5.46735 " /><path d="M-1.9373e-08, -5.46735 C1.00127, -5.46735 2.00194, -5.46735 3.15658, -5.46735 " /><path d="M3.15658, -5.46735 C3.73389, -4.46741 4.23423, -3.6008 4.73486, -2.73367 " /><path d="M4.73486, -2.73367 C5.2355, -1.86655 5.73583, -0.999943 6.31315, -3.49498e-13 " /><path d="M-1.50938, 1.97734 C-2.12864, 1.51108 -2.50302, 0.741341 -2.48736, -0.0337891  C-2.48113, -0.632219 -2.24859, -1.22455 -1.84605, -1.6674  C-1.49576, -2.0569 -1.01909, -2.33015 -0.505963, -2.43559  C-0.0500519, -2.53103 0.43242, -2.49432 0.868642, -2.331  C1.32495, -2.16187 1.72873, -1.85489 2.01375, -1.46045  C2.32028, -1.03967 2.48869, -0.520591 2.48759, 1.00756e-07 " /><path d="M-3.14678, -0.422355 C-3.10866, 0.139004 -2.91345, 0.683568 -2.58686, 1.12329  C-2.30693, 1.5026 -1.93027, 1.80248 -1.50938, 1.97734 " /><path d="M1.66435, 1.84879 L1.56703, 1.93198 " /><path d="M1.55645, 1.94051 Q1.45744, 2.01992 1.35086, 2.08885 " /><path d="M1.3107, 2.11428 Q1.10127, 2.24404 0.870481, 2.33032 " /><path d="M0.417667, 2.45228 Q0.347317, 2.46426 0.276395, 2.47219 " /><path d="M0.2604, 2.47393 Q0.178262, 2.48257 0.095733, 2.48575 " /><path d="M0.0838694, 2.48618 Q-0.0813976, 2.49174 -0.245953, 2.4754 " /><path d="M-0.300255, 2.46941 Q-0.53094, 2.44131 -0.752465, 2.37106 " /><path d="M-0.800022, 2.35544 Q-1.06854, 2.26412 -1.3097, 2.1149 " /><path d="M-1.34341, 2.09365 Q-1.44508, 2.02841 -1.53996, 1.95362 " /><path d="M1.9773 1.50944 A2.48759 2.48759 0 0 1 -1.50938 1.97734" /><path d="M2.6435, 5.55112e-16 C2.59409, 0.562088 2.35659, 1.10249 1.9773, 1.50944 " /><path d="M5.46735 0 A5.46735 5.46735 0 0 1 4.73486 2.73368" /><path d="M4.73486 2.73368 A5.46735 5.46735 0 0 1 1.50201e-08 5.46735" /><path d="M1.50201e-08 5.46735 A5.46735 5.46735 0 0 1 -4.73486 2.73368" /><path d="M-4.73486 2.73368 A5.46735 5.46735 0 0 1 -4.73486 -2.73367" /><path d="M-4.73486 -2.73367 A5.46735 5.46735 0 0 1 -1.9373e-08 -5.46735" /><path d="M-1.9373e-08 -5.46735 A5.46735 5.46735 0 0 1 4.73486 -2.73367" /><path d="M4.73486 -2.73367 A5.46735 5.46735 0 0 1 5.46735 -1.33911e-15" /><path d="M-1.92649, -2.52375 C-2.30094, -2.28303 -2.66083, -1.88608 -2.87832, -1.44534 " /><path d="M-2.87832, -1.44534 C-2.99355, -1.21681 -3.07499, -0.972789 -3.11645, -0.751716  C-3.1414, -0.62091 -3.15183, -0.495292 -3.14678, -0.422355 " /><circle cx ="0" cy ="0" r ="3.57187" /><path d="M2.6435, -2.22045e-15 C2.68793, -0.483813 2.5949, -0.981492 2.3795, -1.42262  C2.15423, -1.88731 1.7946, -2.28792 1.35473, -2.56752  C0.889918, -2.86492 0.337071, -3.02583 -0.219357, -3.02846  C-0.819122, -3.03322 -1.42047, -2.85424 -1.92649, -2.52375 " /></g>
<g   fill="none"
   stroke="rgb(165, 165, 165)"
   stroke-dasharray="1.2,0.8"
   stroke-linecap="butt"
   stroke-linejoin="miter"
   stroke-width="0.25"
   transform="scale(1, -1)"
  >
<path d="M3.22084, -5.33934e-08 C3.22557, 0.918764 2.81158, 1.8285 2.11573, 2.42847 " /><path d="M3.22084, -4.00439e-08 C3.22362, 0.799526 2.9135, 1.59448 2.37009, 2.18095  C1.95676, 2.63153 1.41217, 2.95967 0.820673, 3.11455  C-0.0376485, 3.34499 -0.98802, 3.19597 -1.7346, 2.71385  C-2.4089, 2.28613 -2.91132, 1.59792 -3.1133, 0.825383  C-3.30365, 0.115107 -3.23918, -0.659605 -2.93404, -1.32864  C-2.64654, -1.96752 -2.14345, -2.50618 -1.52566, -2.83658  C-1.05924, -3.08807 -0.529898, -3.22139 1.78798e-05, -3.22084  C0.629705, -3.22193 1.258, -3.03229 1.78194, -2.683  C2.22247, -2.39113 2.58917, -1.98819 2.83842, -1.52225  C3.08865, -1.05684 3.22145, -0.528435 3.22084, -5.33934e-08 " /><path d="M3.22083, -2.6695e-08 C3.22362, 0.799526 2.9135, 1.59448 2.37009, 2.18095  C1.95676, 2.63153 1.41217, 2.95967 0.820671, 3.11455  C-0.0376523, 3.34499 -0.988026, 3.19596 -1.73461, 2.71384  C-2.40869, 2.28625 -2.911, 1.59836 -3.11311, 0.826115  C-3.3041, 0.114144 -3.23899, -0.662627 -2.93213, -1.33287  C-2.59613, -2.07929 -1.96311, -2.68506 -1.20264, -2.98791  C-0.469138, -3.28598 0.374776, -3.29809 1.11651, -3.02112  C1.72955, -2.79611 2.27081, -2.37741 2.64292, -1.8409  C3.01718, -1.30587 3.2223, -0.653029 3.22084, -4.00439e-08 " /><path d="M3.22083, -1.33471e-08 C3.22361, 0.799525 2.9135, 1.59448 2.37008, 2.18095  C1.95675, 2.63153 1.41217, 2.95967 0.820669, 3.11455  C-0.0376629, 3.34498 -0.988046, 3.19596 -1.73463, 2.71382  C-2.4081, 2.28661 -2.91012, 1.59957 -3.11256, 0.828162  C-3.3055, 0.111007 -3.23836, -0.672064 -2.92616, -1.34591  C-2.59815, -2.06533 -1.99426, -2.6531 -1.26622, -2.96149  C-0.494822, -3.29496 0.407722, -3.30687 1.18765, -2.99387  C1.78336, -2.759 2.3058, -2.33985 2.66451, -1.8095  C3.02522, -1.28051 3.22219, -0.640321 3.22083, -2.6695e-08 " /><path d="M-2.87832, -1.44534 C-2.55752, -2.08829 -2.01401, -2.61641 -1.36212, -2.91863  C-0.588401, -3.28368 0.331985, -3.31942 1.13167, -3.01547  C1.67115, -2.81383 2.154, -2.46387 2.51352, -2.01394  C2.96882, -1.44874 3.22274, -0.725784 3.22083, -1.33471e-08 " /></g>
<g   fill="none"
   stroke="rgb(0, 0, 0)"
   stroke-linecap="butt"
   stroke-linejoin="miter"
   stroke-width="0.35"
   transform="scale(1, -1)"
  >
<path d="M3.0792, -8.88178e-16 C3.03062, -0.645325 2.76982, -1.27041 2.34454, -1.75035  C1.95067, -2.19881 1.41636, -2.51856 0.83973, -2.64704  C0.300605, -2.76948 -0.272735, -2.72337 -0.777667, -2.51434  C-1.25947, -2.3171 -1.6765, -1.97251 -1.95364, -1.53994 " /><circle cx ="0" cy ="0" r ="3.57187" /><path d="M3.0792, -2.22045e-16 C3.11178, 0.416491 3.0581, 0.840485 2.92356, 1.23836 " /><path d="M1.19157, 2.94294 C1.22643, 2.93645 1.26977, 2.92422 1.32159, 2.90625  C1.50424, 2.84287 1.73115, 2.7241 1.9344, 2.57371  C1.99633, 2.52822 2.05678, 2.47981 2.11573, 2.42847 " /><path d="M2.11573, 2.42847 C2.48854, 2.1082 2.78352, 1.66091 2.92356, 1.23836 " /><path d="M-1.53996, 1.95362 C-1.26514, 2.31885 -0.879635, 2.60972 -0.441112, 2.78644  C0.0651155, 2.99224 0.639689, 3.04539 1.19157, 2.94294 " /><path d="M-1.53996 1.95362 A2.48759 2.48759 0 0 1 -1.95364 -1.53994" /><path d="M2.48759, 8.00812e-07 C2.49102, 0.698224 2.18187, 1.39002 1.6594, 1.85325  C1.27664, 2.19738 0.784501, 2.4172 0.272785, 2.47259  C-0.368541, 2.54591 -1.03463, 2.35519 -1.53996, 1.95362 " /><path d="M5.46735 0 A5.46735 5.46735 0 0 1 4.73486 2.73368" /><path d="M4.73486 -2.73367 A5.46735 5.46735 0 0 1 5.46735 -1.33911e-15" /><path d="M-1.9373e-08 -5.46735 A5.46735 5.46735 0 0 1 4.73486 -2.73367" /><path d="M-4.73486 -2.73367 A5.46735 5.46735 0 0 1 -1.9373e-08 -5.46735" /><path d="M-4.73486 2.73368 A5.46735 5.46735 0 0 1 -4.73486 -2.73367" /><path d="M1.50201e-08 5.46735 A5.46735 5.46735 0 0 1 -4.73486 2.73368" /><path d="M4.73486 2.73368 A5.46735 5.46735 0 0 1 1.50201e-08 5.46735" /><path d="M2.48759, 6.00607e-07 L2.48435, 0.127019 " /><path d="M2.42487, 0.555105 L2.4106, 0.614095 " /><path d="M2.30376, 0.938519 Q2.27183, 1.01688 2.23466, 1.09289 " /><path d="M2.19279, 1.17464 Q2.01137, 1.51257 1.73705, 1.78066 " /><path d="M1.36339, 2.08069 Q1.21847, 2.17564 1.06179, 2.2496 " /><path d="M0.865217, 2.33228 Q0.771468, 2.36705 0.675236, 2.3942 " /><path d="M-0.234431, 2.47652 C-0.545229, 2.44725 -0.850309, 2.35866 -1.12847, 2.2169 " /><path d="M-1.31208, 2.11343 L-1.34482, 2.09275 " /><path d="M-1.95364, -1.53994 C-1.59183, -2.00178 -1.06115, -2.32701 -0.48541, -2.43977  C-0.00278196, -2.5367 0.508191, -2.48527 0.961826, -2.29412  C1.41923, -2.10334 1.81633, -1.77178 2.08567, -1.35576  C2.34693, -0.955295 2.48838, -0.478146 2.48759, 4.44089e-16 " /><path d="M4.73486, 2.73368 C5.2355, 1.86655 5.73583, 0.999944 6.31315, 3.49498e-13 " /><path d="M1.50201e-08, 5.46735 C1.00127, 5.46735 2.00194, 5.46735 3.15658, 5.46735 " /><path d="M3.15658, 5.46735 C3.73389, 4.46741 4.23423, 3.6008 4.73486, 2.73368 " /><path d="M-4.73486, 2.73368 C-4.23423, 3.6008 -3.73389, 4.46741 -3.15658, 5.46735 " /><path d="M-3.15658, 5.46735 C-2.00194, 5.46735 -1.00127, 5.46735 1.50201e-08, 5.46735 " /><path d="M-4.73486, -2.73367 C-5.2355, -1.86655 -5.73583, -0.999943 -6.31315, -2.90434e-13 " /><path d="M-6.31315, 4.06809e-13 C-5.73583, 0.999944 -5.2355, 1.86655 -4.73486, 2.73368 " /><path d="M-3.15658, -5.46735 C-3.73389, -4.46741 -4.23423, -3.6008 -4.73486, -2.73367 " /><path d="M-1.9373e-08, -5.46735 C-1.00127, -5.46735 -2.00194, -5.46735 -3.15658, -5.46735 " /><path d="M3.15658, -5.46735 C2.00194, -5.46735 1.00127, -5.46735 -1.9373e-08, -5.46735 " /><path d="M4.73486, -2.73367 C4.23423, -3.6008 3.73389, -4.46741 3.15658, -5.46735 " /><path d="M6.31315, -3.48388e-13 C5.73583, -0.999943 5.2355, -1.86655 4.73486, -2.73367 " /><path d="M2.48759, 4.00403e-07 L2.48435, 0.126878 " /><path d="M2.4264, 0.548377 L2.41522, 0.595657 " /><path d="M2.3028, 0.940877 L2.29724, 0.954372 " /><path d="M2.26069, 1.03797 L2.23134, 1.09966 " /><path d="M2.20541, 1.15077 Q2.02753, 1.4909 1.75589, 1.76209 " /><path d="M1.31033, 2.11451 Q1.19301, 2.18721 1.06836, 2.24649 " /><path d="M0.847344, 2.33883 Q0.743353, 2.3765 0.636433, 2.4048 " /><path d="M0.282767, 2.47147 L0.267094, 2.47321 " /><path d="M0.0890206, 2.486 L0.0855126, 2.48612 " /><path d="M-0.218181, 2.47801 L-0.285086, 2.4712 " /><path d="M-0.749041, 2.37214 L-0.796695, 2.35656 " /><path d="M-1.31081, 2.11421 L-1.33358, 2.09992 " /><path d="M-1.95364, -1.53994 C-1.59018, -2.00392 -1.05627, -2.32995 -0.47751, -2.44133 " /><path d="M-0.36197, -2.46112 C0.0854267, -2.52756 0.550524, -2.46835 0.967002, -2.29195  C1.42213, -2.10089 1.81715, -1.77036 2.08548, -1.35605  C2.34686, -0.955529 2.48838, -0.478264 2.48759, -5.55112e-16 " /><path d="M1.9773, 1.50944 Q1.83661, 1.69366 1.66435, 1.84879 " /><path d="M1.56703, 1.93198 L1.55645, 1.94051 " /><path d="M1.35086, 2.08885 L1.3107, 2.11428 " /><path d="M0.870481, 2.33032 Q0.649833, 2.41268 0.417667, 2.45228 " /><path d="M0.276395, 2.47219 L0.2604, 2.47393 " /><path d="M0.095733, 2.48575 L0.0838694, 2.48618 " /><path d="M-0.245953, 2.4754 L-0.300255, 2.46941 " /><path d="M-0.752465, 2.37106 L-0.800022, 2.35544 " /><path d="M-1.3097, 2.1149 L-1.34341, 2.09365 " /><path d="M-1.53996, 1.95362 C-1.68165, 1.84186 -1.8097, 1.7162 -1.92412, 1.57666  C-2.31035, 1.10848 -2.51423, 0.49506 -2.48511, -0.111175  C-2.46219, -0.652232 -2.2556, -1.18323 -1.90684, -1.59752  C-1.54502, -2.03177 -1.03051, -2.33522 -0.475378, -2.44175  C0.0088177, -2.53692 0.520881, -2.48289 0.974547, -2.28875  C1.4305, -2.09559 1.82548, -1.76223 2.0925, -1.3452  C2.34943, -0.946941 2.48835, -0.473945 2.48759, 0 " /></g>

</svg>
