<svg xmlns="http://www.w3.org/2000/svg" viewBox="-3.4745892 -2.3002092000000003 6.9541884 4.5187984">
<rect width="100%" height="100%" fill="white"/>
<g   fill="none"
   stroke="rgb(0, 0, 0)"
   stroke-linecap="butt"
   stroke-linejoin="miter"
   stroke-width="0.35"
   transform="scale(1, -1)"
  >
<path d="M2.3844 0.6 A2.45873 2.45873 0 0 1 -1.73903 1.73815" /><path id= "2" d=" M -2.31587 0.6 L 2.3844 0.6 " />
<path d="M-1.73907, 1.7381 C-1.89163, 1.5491 -2.04778, 1.31578 -2.15976, 1.0608  C-2.22546, 0.913404 -2.27749, 0.759802 -2.31587, 0.6 " /><path d="M-1.73903, 1.73815 L-1.73907, 1.7381 " /><path d="M2.60545, 0.6 Q2.49032, 0.6 2.3844, 0.6 " /><path d="M2.60545, 0.6 C2.48615, 1.04343 2.24988, 1.45376 1.9268, 1.77727  C1.59616, 2.11008 1.17481, 2.35021 0.721773, 2.46319  C0.281234, 2.57432 -0.187939, 2.56464 -0.620994, 2.43486  C-1.04831, 2.30805 -1.43914, 2.06473 -1.73903, 1.73815 " /><path d="M-2.31587, 0.6 Q-2.33332, 0.6 -2.38441, 0.6 " /><path d="M-2.77057, 0.6 Q-2.8526, 0.6 -2.93939, 0.6 " /><path d="M-2.38441, 0.6 L-2.77057, 0.6 " /><path d="M2.60545, 0.6 L2.93939, 0.6 " /><path d="M-2.3844, 1.82061 C-1.90703, 2.45119 -1.1703, 2.87674 -0.385486, 2.97513  C-0.0943841, 3.01261 0.196002, 3.00771 0.485673, 2.96043  C1.02418, 2.87286 1.53701, 2.63436 1.95097, 2.27897  C2.45485, 1.84977 2.80862, 1.24882 2.93939, 0.6 " /><path d="M-2.77057, 0.6 C-2.7362, 1.02618 -2.60259, 1.44658 -2.3844, 1.82061 " /><path d="M-2.92989, 0.6 C-2.97472, 0.19685 -2.93563, -0.214826 -2.81386, -0.6 " /><path d="M2.42679, 2.32152e-06 Q2.40948, -0.298074 2.32329, -0.6 " /><path d="M2.42679, 2.32152e-06 Q2.43822, 0.202878 2.42837, 0.38529 " /><path d="M2.42837, 0.38529 Q2.42344, 0.49299 2.40907, 0.6 " /><path d="M2.93939, 0.6 Q2.99992, 0.303054 3, 6.75788e-11 " /><path d="M-2.3844 1.82061 A3 3 0 0 1 -2.93939 0.6" /><path d="M-2.93233, -0.6 L-2.93939, -0.6 " /><path d="M-2.60084, -0.6 Q-2.75714, -0.6 -2.93233, -0.6 " /><path d="M-2.38441, -0.6 L-2.60084, -0.6 " /><path d="M-2.31584, -0.6 Q-2.33329, -0.6 -2.38441, -0.6 " /><path id= "23" d=" M -2.31584 -0.6 L 2.3844 -0.6 " />
<path d="M2.6519, -0.6 Q2.51146, -0.6 2.3844, -0.6 " /><path d="M2.6519, -0.6 L2.93939, -0.6 " /><path d="M3, 6.7562e-11 C3.00342, -0.801123 2.66729, -1.59623 2.09021, -2.15198  C1.46427, -2.76669 0.558831, -3.07999 -0.313122, -2.98361  C-0.971465, -2.91616 -1.60366, -2.62222 -2.07952, -2.16231  C-2.56843, -1.69459 -2.88997, -1.05666 -2.97514, -0.385432  C-3.01756, -0.0549895 -3.00564, 0.273488 -2.93939, 0.6 " /><path d="M2.93939, 0.6 Q2.99992, 0.303054 3, 6.1009e-11 " /><path d="M2.93939, -0.6 C2.8207, -1.18699 2.52058, -1.73551 2.09021, -2.15198  C1.46428, -2.76669 0.558835, -3.07999 -0.313116, -2.98361  C-0.971452, -2.91617 -1.60364, -2.62223 -2.0795, -2.16233  C-2.51554, -1.74457 -2.81973, -1.19191 -2.93939, -0.6 " /><path d="M2.6519, -0.6 C2.54271, -1.18989 2.23072, -1.74068 1.78048, -2.1415  C1.30652, -2.56776 0.681539, -2.8229 0.041837, -2.85318  C-0.616115, -2.88789 -1.28419, -2.6847 -1.81556, -2.29027  C-2.37063, -1.88307 -2.77299, -1.27267 -2.93233, -0.6 " /><path d="M-1.73826, -1.73894 C-2.12357, -1.45701 -2.42655, -1.05589 -2.60084, -0.6 " /><path d="M-1.73818 -1.73899 A2.45873 2.45873 0 0 1 2.3844 -0.6" /><path d="M-1.73818, -1.73899 L-1.73826, -1.73894 " /><path d="M-2.31584, -0.6 C-2.27744, -0.759953 -2.22527, -0.913819 -2.15936, -1.0616  C-2.04723, -1.31665 -1.8909, -1.55 -1.73818, -1.73899 " /><path d="M3, 6.09668e-11 C3.00342, -0.801123 2.66729, -1.59623 2.09021, -2.15198  C1.46427, -2.76669 0.558828, -3.07999 -0.313126, -2.98361  C-0.971475, -2.91616 -1.60367, -2.62221 -2.07954, -2.16229  C-2.56845, -1.69456 -2.88999, -1.05661 -2.97514, -0.385379  C-3.01756, -0.0549539 -3.00564, 0.273506 -2.93939, 0.6 " /><path d="M2.93939, 0.6 Q2.99992, 0.303054 3, 5.47682e-11 " /><path d="M3, 5.47253e-11 C3.00342, -0.801123 2.66729, -1.59623 2.09021, -2.15198  C1.46427, -2.76669 0.558824, -3.07999 -0.31313, -2.98361  C-0.971487, -2.91616 -1.60369, -2.6222 -2.07956, -2.16228  C-2.56847, -1.69453 -2.89001, -1.05657 -2.97515, -0.385323  C-3.01755, -0.0549162 -3.00563, 0.273525 -2.93939, 0.6 " /><path d="M2.93939, 0.6 Q2.99992, 0.303054 3, 4.88938e-11 " /><path d="M3, 4.88247e-11 C3.00342, -0.801123 2.66729, -1.59623 2.09021, -2.15198  C1.46427, -2.76669 0.558822, -3.07999 -0.313134, -2.98361  C-0.971494, -2.91616 -1.6037, -2.6222 -2.07957, -2.16227  C-2.56849, -1.69451 -2.89002, -1.05654 -2.97516, -0.385283  C-3.01755, -0.0548894 -3.00563, 0.273538 -2.93939, 0.6 " /><path d="M2.93939, 0.6 Q2.99992, 0.303054 3, 4.32547e-11 " /><path d="M3, 4.32769e-11 C3.00342, -0.801124 2.66729, -1.59623 2.09021, -2.15198  C1.46427, -2.7667 0.558817, -3.07999 -0.313141, -2.98361  C-0.971512, -2.91615 -1.60373, -2.62218 -2.0796, -2.16224  C-2.56852, -1.69447 -2.89005, -1.05647 -2.97517, -0.385193  C-3.05186, 0.199042 -2.95049, 0.805055 -2.68781, 1.33255 " /><path d="M-2.68393, 1.34033 Q-2.622, 1.46435 -2.5489, 1.58212 " /><path d="M2.93939, 0.6 Q2.99992, 0.303054 3, 3.80926e-11 " /><path d="M3, 3.80644e-11 C3.00342, -0.801124 2.66729, -1.59623 2.09021, -2.15198  C1.76862, -2.46483 1.37579, -2.70382 0.950117, -2.84557 " /><path d="M-2.99499, 0.173319 Q-2.98514, 0.343337 -2.95613, 0.51115 " /><path d="M3, 3.31868e-11 C3.00342, -0.801124 2.66729, -1.59624 2.09021, -2.15199  C1.46426, -2.7667 0.558808, -3.08 -0.313153, -2.98361  C-0.971541, -2.91615 -1.60377, -2.62216 -2.07964, -2.16219  C-2.56858, -1.69439 -2.8901, -1.05635 -2.97519, -0.385046  C-3.01755, -0.0547304 -3.00561, 0.273618 -2.93939, 0.6 " /><path d="M2.93939, 0.6 Q2.99992, 0.303054 3, 2.87228e-11 " /><path d="M3, 2.86873e-11 C3.00342, -0.801125 2.66729, -1.59624 2.0902, -2.15199  C1.46426, -2.7667 0.558802, -3.08 -0.313161, -2.98361  C-0.971562, -2.91614 -1.6038, -2.62215 -2.07968, -2.16216  C-2.56862, -1.69434 -2.89013, -1.05627 -2.9752, -0.384943  C-3.01755, -0.0546609 -3.00561, 0.273653 -2.93939, 0.6 " /><path d="M2.93939, 0.6 Q2.99992, 0.303054 3, 2.43459e-11 " /><path d="M3, 2.44211e-11 C3.00342, -0.801125 2.66729, -1.59624 2.09021, -2.15199  C1.46426, -2.7667 0.558801, -3.08 -0.313162, -2.98361  C-0.971564, -2.91614 -1.6038, -2.62214 -2.07968, -2.16216  C-2.56862, -1.69434 -2.89014, -1.05627 -2.9752, -0.384933  C-3.01754, -0.0546544 -3.00561, 0.273657 -2.93939, 0.6 " /><path d="M2.93939, 0.6 Q2.99992, 0.303054 3, 2.06528e-11 " /><path d="M3, 2.05511e-11 C3.00342, -0.801124 2.66729, -1.59624 2.09021, -2.15199  C1.46426, -2.7667 0.558802, -3.08 -0.313161, -2.98361  C-0.971562, -2.91614 -1.6038, -2.62215 -2.07968, -2.16216  C-2.56862, -1.69434 -2.89013, -1.05627 -2.9752, -0.384943  C-3.01755, -0.0546609 -3.00561, 0.273653 -2.93939, 0.6 " /><path d="M2.93939, 0.6 Q2.99992, 0.303054 3, 1.70379e-11 " /><path d="M3, 1.70646e-11 C3.00342, -0.801125 2.66729, -1.59624 2.0902, -2.15199  C1.46426, -2.7667 0.558798, -3.08 -0.313166, -2.98361  C-0.971575, -2.91614 -1.60382, -2.62214 -2.0797, -2.16214  C-2.56864, -1.69431 -2.89016, -1.05622 -2.97521, -0.384879  C-3.01754, -0.054618 -3.0056, 0.273675 -2.93939, 0.6 " /><path d="M2.93939, 0.6 Q2.99992, 0.303054 3, 1.39138e-11 " /><path d="M3, 1.38942e-11 C3.00342, -0.801125 2.66729, -1.59624 2.0902, -2.15199  C1.46426, -2.76671 0.558788, -3.08 -0.31318, -2.98361  C-0.971607, -2.91614 -1.60387, -2.62211 -2.07975, -2.16209  C-2.56871, -1.69423 -2.89021, -1.0561 -2.97523, -0.384716  C-3.01754, -0.0545083 -3.00559, 0.27373 -2.93939, 0.6 " /><path d="M2.93939, 0.6 Q2.99992, 0.303054 3, 1.09188e-11 " /><path d="M3, 1.09379e-11 C3.00342, -0.801126 2.66729, -1.59624 2.0902, -2.15199  C1.46425, -2.76671 0.558783, -3.08 -0.313187, -2.98361  C-0.971625, -2.91613 -1.6039, -2.6221 -2.07978, -2.16207  C-2.56874, -1.69418 -2.89024, -1.05602 -2.97524, -0.384626  C-3.01754, -0.0544475 -3.00559, 0.273761 -2.93939, 0.6 " /><path d="M2.93939, 0.6 Q2.99992, 0.303054 3, 8.33644e-12 " /><path d="M3, 8.30225e-12 C3.00342, -0.801125 2.66729, -1.59624 2.0902, -2.15199  C1.46426, -2.76671 0.55879, -3.08 -0.313178, -2.98361  C-0.971602, -2.91614 -1.60386, -2.62212 -2.07974, -2.1621  C-2.5687, -1.69424 -2.8902, -1.05611 -2.97523, -0.384739  C-3.01754, -0.0545236 -3.00559, 0.273723 -2.93939, 0.6 " /><path d="M2.93939, 0.6 Q2.99992, 0.303054 3, 6.24301e-12 " /><path d="M3, 6.20659e-12 C3.00342, -0.801126 2.66729, -1.59624 2.0902, -2.15199  C1.46425, -2.76671 0.558775, -3.08001 -0.313198, -2.98361  C-0.971651, -2.91613 -1.60394, -2.62208 -2.07982, -2.16203  C-2.56879, -1.69412 -2.89028, -1.05592 -2.97526, -0.384498  C-3.01753, -0.0543692 -3.00558, 0.273797 -2.93939, 0.6 " /><path d="M2.93939, 0.6 Q2.99992, 0.303054 3, 4.18243e-12 " /><path d="M3, 4.28635e-12 C3.00342, -0.801125 2.66729, -1.59624 2.0902, -2.15199  C1.46425, -2.76671 0.558782, -3.08 -0.313188, -2.98361  C-0.971628, -2.91613 -1.6039, -2.6221 -2.07978, -2.16206  C-2.56875, -1.69417 -2.89025, -1.05601 -2.97524, -0.384609  C-3.01754, -0.0544362 -3.00558, 0.273767 -2.93939, 0.6 " /><path d="M2.93939, 0.6 Q2.99992, 0.303054 3, 2.78577e-12 " /><path d="M3, 2.85683e-12 C3.00342, -0.801127 2.66729, -1.59624 2.0902, -2.15199  C1.46425, -2.76671 0.558766, -3.08001 -0.313209, -2.98361  C-0.971679, -2.91612 -1.60398, -2.62206 -2.07986, -2.16198  C-2.56885, -1.69404 -2.89033, -1.05581 -2.97528, -0.384356  C-3.01753, -0.0542666 -3.00557, 0.273852 -2.93939, 0.6 " /><path d="M2.93939, 0.6 Q2.99992, 0.303054 3, 1.67377e-12 " /><path d="M3, 1.60161e-12 L2.99807, -0.107605 " /><path d="M2.98016, -0.34446 L2.95929, -0.492529 " /><path d="M2.94647, -0.564218 L2.94646, -0.564235 " /><path d="M2.89743, -0.777741 L2.89743, -0.777752 " /><path d="M2.89113, -0.800859 L2.88846, -0.810417 " /><path d="M2.84817, -0.942307 Q2.82077, -1.02512 2.7886, -1.10621 " /></g>

</svg>
