<svg xmlns="http://www.w3.org/2000/svg" viewBox="-4.4128964 -4.6597564 23.615662800000003 16.6126228">
<rect width="100%" height="100%" fill="white"/>
<g   fill="none"
   stroke="rgb(0, 0, 0)"
   stroke-linecap="butt"
   stroke-linejoin="miter"
   stroke-width="0.35"
   transform="scale(1, -1)"
  >
<path d="M1.75, 3.03109 C1.34073, 3.26909 0.881897, 3.42262 0.427091, 3.45301  C-0.251367, 3.50199 -0.902389, 3.28776 -1.44711, 2.91641  C-1.9542, 2.57192 -2.37887, 2.09541 -2.69122, 1.55535  C-3.20472, 0.664374 -3.42341, -0.414418 -3.12006, -1.38398  C-3.068, -1.54956 -3.00028, -1.70991 -2.91689, -1.865  C-2.66305, -2.34242 -2.2436, -2.74961 -1.75, -3.03109 " /><path id= "2" d=" M 2.28077 0.207401 L 2.30169 0.195321 " />
<path id= "3" d=" M 1.1349 -2.17944 L 1.44132 -2.35635 " />
<path id= "4" d=" M 3.11814 -0.276053 L 3.22092 -0.335396 " />
<path id= "5" d=" M 2.05413 -2.71016 L 2.36055 -2.88707 " />
<path id= "6" d=" M 4.03737 -0.806772 L 4.14015 -0.866114 " />
<path id= "7" d=" M 2.97336 -3.24088 L 3.27978 -3.41779 " />
<path id= "8" d=" M 4.9566 -1.33749 L 5.05938 -1.39683 " />
<path id= "9" d=" M 3.8926 -3.7716 L 4.19901 -3.9485 " />
<path id= "10" d=" M 5.87584 -1.86821 L 5.97862 -1.92755 " />
<path id= "11" d=" M 4.81183 -4.30232 L 5.11824 -4.47922 " />
<path id= "12" d=" M 6.79507 -2.39893 L 6.89785 -2.45827 " />
<path id= "13" d=" M 5.73106 -4.83303 L 6.03747 -5.00994 " />
<path id= "14" d=" M 7.7143 -2.92965 L 7.81708 -2.98899 " />
<path id= "15" d=" M 6.65029 -5.36375 L 6.9567 -5.54066 " />
<path id= "16" d=" M 8.63353 -3.46037 L 8.73631 -3.5197 " />
<path id= "17" d=" M 7.56953 -5.89447 L 7.87593 -6.07138 " />
<path id= "18" d=" M 9.55277 -3.99109 L 9.65554 -4.05042 " />
<path id= "19" d=" M 8.48876 -6.42519 L 8.79516 -6.60209 " />
<path id= "20" d=" M 10.472 -4.52181 L 10.5748 -4.58114 " />
<path id= "21" d=" M 9.40799 -6.95591 L 9.71439 -7.13281 " />
<path id= "22" d=" M 11.3912 -5.05253 L 11.494 -5.11186 " />
<path id= "23" d=" M 10.3272 -7.48663 L 10.6336 -7.66353 " />
<path id= "24" d=" M 12.3105 -5.58324 L 12.4132 -5.64258 " />
<path id= "25" d=" M 11.2465 -8.01735 L 11.5529 -8.19425 " />
<path id= "26" d=" M 13.2297 -6.11396 L 13.3325 -6.17329 " />
<path id= "27" d=" M 12.1657 -8.54807 L 12.4721 -8.72497 " />
<path id= "28" d=" M 14.1489 -6.64468 L 14.2517 -6.70401 " />
<path id= "29" d=" M 13.0849 -9.07879 L 13.3913 -9.25568 " />
<path id= "30" d=" M 15.0682 -7.1754 L 15.1709 -7.23473 " />
<path id= "31" d=" M 14.0042 -9.60951 L 14.3105 -9.7864 " />
<path id= "32" d=" M 15.9874 -7.70612 L 16.0843 -7.76206 " />
<path id= "33" d=" M 16.3166 -8.01733 L 16.2305 -7.89658 " />
<path id= "34" d=" M 17.54 -9.73193 L 16.6397 -8.47007 " />
<path id= "35" d=" M 17.1981 -10.3242 L 15.8097 -10.1902 " />
<path id= "36" d=" M 15.5735 -10.1675 L 14.9711 -10.1094 " />
<path d="M17.3241 -10.2908 A0.5 0.5 0 0 1 17.5741 -9.85775" /></g>
<g   fill="none"
   stroke="rgb(0, 0, 0)"
   stroke-linecap="butt"
   stroke-linejoin="miter"
   stroke-width="0.35"
   transform="scale(1, -1)"
  >
<path d="M-1.13201, 1.42441 Q-1.08063, 1.29942 -1.01153, 1.14663 " /><path d="M2.47487 1.42887 A3.5 2.02073 60 0 1 1.75 3.03109" />
<path d="M-1.75 -3.03109 A3.5 2.02073 60 0 1 2.47487 1.42887" />
<path d="M-1.01153, 1.79166 Q-1.08063, 1.59637 -1.13201, 1.42441 " /><path d="M-0.479488, 2.4867 C-0.677421, 2.27133 -0.856829, 2.02803 -1.01153, 1.79166 " /><path d="M-0.870436, 2.71241 Q-0.635458, 2.66798 -0.479488, 2.4867 " /><path d="M-1.49877, 2.07297 C-1.3149, 2.2925 -1.10271, 2.51687 -0.870436, 2.71241 " /><path d="M-1.79958, 1.80983 Q-1.66564, 1.93413 -1.49877, 2.07297 " /><path d="M-2.05739, 1.75045 Q-1.92281, 1.78565 -1.79958, 1.80983 " /><path d="M-2.39329, 1.83319 C-2.30574, 1.8223 -2.18474, 1.79029 -2.05739, 1.75045 " /><path d="M-2.78423, 1.15605 C-2.68202, 1.39391 -2.54817, 1.62574 -2.39329, 1.83319 " /><path d="M-2.54463, 0.906521 C-2.64281, 0.996894 -2.73103, 1.08568 -2.78423, 1.15605 " /><path d="M-2.46716, 0.653569 Q-2.50782, 0.77238 -2.54463, 0.906521 " /><path d="M-2.54463, 0.261489 Q-2.50782, 0.475427 -2.46716, 0.653569 " /><path d="M-2.78423, -0.602386 C-2.73103, -0.303458 -2.64281, -0.00751314 -2.54463, 0.261489 " /><path d="M-2.39329, -0.8281 Q-2.62826, -0.783666 -2.78423, -0.602386 " /><path d="M-2.05739, -0.0198225 C-2.18474, -0.271979 -2.30574, -0.549001 -2.39329, -0.8281 " /><path d="M-1.79958, 0.268147 Q-1.92281, 0.13767 -2.05739, -0.0198225 " /><path d="M-1.49877, 0.302694 Q-1.66564, 0.286147 -1.79958, 0.268147 " /><path d="M-0.870436, 0.0511181 Q-1.22091, 0.19339 -1.49877, 0.302694 " /><path d="M-0.479488, 0.728261 C-0.5817, 0.490402 -0.715551, 0.258566 -0.870436, 0.0511181 " /><path d="M-1.01153, 1.14663 Q-0.777934, 0.960642 -0.479488, 0.728261 " /><path d="M-2.312, -0.593417 Q-2.53196, -0.597759 -2.78423, -0.602386 " /><path id= "24" d=" M -2.54463 0.261489 L -2.026 0.0168444 " />
<path id= "25" d=" M -2.46716 0.653569 L -1.68149 0.282961 " />
<path id= "26" d=" M -2.54463 0.906521 L -1.05131 0.202099 " />
<path d="M-1.05131, 0.202099 Q-1.01101, 0.144789 -0.977255, 0.0944381 " /><path d="M-2.78423, 1.15605 C-2.09603, 0.784287 -1.59556, 0.513701 -1.20238, 0.300804 " /><path d="M-1.20238, 0.300804 Q-1.12023, 0.247217 -1.05131, 0.202099 " /><path d="M-0.861696, 0.890893 C-1.24266, 1.12494 -1.72723, 1.42307 -2.39329, 1.83319 " /><path d="M-0.861696 0.890893 A1.145 0.661066 60 0 1 -1.20238 0.300804" />
<path id= "32" d=" M -2.05739 1.75045 L -0.700677 0.809411 " />
<path d="M-0.700677, 0.809411 Q-0.774211, 0.846537 -0.861696, 0.890893 " /><path id= "34" d=" M -1.79958 1.80983 L -1.0858 1.31474 " />
<path d="M-0.570413, 0.799109 Q-0.630896, 0.803166 -0.700677, 0.809411 " /><path id= "36" d=" M -1.49877 2.07297 L -1.02759 1.74615 " />
<path d="M-0.870436, 2.71241 Q-0.748304, 2.49162 -0.642087, 2.29896 " /><path d="M0.716323, -2.32185 C1.02404, -2.31945 1.43358, -2.02708 1.74189, -1.56174  C2.0534, -1.10129 2.25027, -0.484046 2.22366, 0.0293217 " /><path d="M2.68999, -0.47529 C2.65268, -0.170046 2.51372, 0.0745241 2.30169, 0.195321 " /><path d="M1.44132, -2.35635 C1.61755, -2.46276 1.91871, -2.34191 2.18098, -2.03644  C2.31211, -1.8856 2.43237, -1.69302 2.52293, -1.48179  C2.66413, -1.15537 2.73016, -0.785785 2.68999, -0.47529 " /><path d="M1.15506, -2.19108 C1.13879, -2.62316 1.35471, -2.88748 1.68115, -2.8497  C2.00444, -2.82114 2.42315, -2.49061 2.72266, -1.99631  C3.02604, -1.50673 3.19607, -0.871944 3.13206, -0.369314  C3.0752, 0.137656 2.78469, 0.493261 2.37061, 0.547928 " /><path d="M3.60922, -1.00601 C3.57191, -0.700764 3.43295, -0.456194 3.22092, -0.335396 " /><path d="M2.36055, -2.88707 C2.5387, -2.99478 2.84462, -2.8697 3.10883, -2.55715  C3.26406, -2.37602 3.40294, -2.13625 3.49512, -1.87785  C3.59977, -1.58709 3.64364, -1.2745 3.60922, -1.00601 " /><path d="M2.07429, -2.7218 C2.06725, -2.94678 2.12042, -3.13029 2.22273, -3.2448  C2.32457, -3.35998 2.47514, -3.40566 2.64983, -3.37334  C2.99909, -3.31483 3.44084, -2.92185 3.72871, -2.3752  C4.02196, -1.83321 4.14464, -1.1625 4.00947, -0.68218  C3.94447, -0.441144 3.82001, -0.247314 3.64978, -0.125587  C3.47999, -0.00315345 3.26487, 0.0468406 3.03075, 0.0195545 " /><path d="M4.52845, -1.53673 C4.49114, -1.23148 4.35218, -0.986912 4.14015, -0.866114 " /><path d="M3.27978, -3.41779 C3.34976, -3.45776 3.4335, -3.46583 3.53099, -3.44198  C3.72421, -3.39505 3.95595, -3.21 4.14542, -2.93518  C4.41917, -2.54678 4.58866, -1.98195 4.52845, -1.53673 " /><path d="M2.99352, -3.25252 C2.98648, -3.47749 3.03965, -3.66101 3.14196, -3.77552  C3.2438, -3.8907 3.39437, -3.93638 3.56906, -3.90405  C3.91832, -3.84555 4.36007, -3.45257 4.64794, -2.90592  C4.94119, -2.36393 5.06387, -1.69322 4.9287, -1.2129  C4.8637, -0.971863 4.73925, -0.778033 4.56901, -0.656305  C4.39922, -0.533872 4.18411, -0.483878 3.94998, -0.511164 " /><path d="M5.44768, -2.06744 C5.41043, -1.76237 5.27139, -1.51755 5.05938, -1.39683 " /><path d="M4.19901, -3.9485 C4.37546, -4.05506 4.67717, -3.93373 4.93968, -3.62743  C5.09981, -3.44314 5.24322, -3.19619 5.33687, -2.93005  C5.43918, -2.64192 5.48172, -2.33309 5.44768, -2.06744 " /><path d="M3.91275, -3.78323 C3.90571, -4.00821 3.95888, -4.19173 4.06119, -4.30624  C4.16303, -4.42142 4.3136, -4.4671 4.48829, -4.43477  C4.83755, -4.37627 5.2793, -3.98329 5.56718, -3.43664  C5.86042, -2.89465 5.98311, -2.22394 5.84794, -1.74362  C5.78293, -1.50258 5.65848, -1.30875 5.48824, -1.18702  C5.31845, -1.06459 5.10334, -1.0146 4.86921, -1.04188 " /><path d="M6.36691, -2.59816 C6.3296, -2.29292 6.19064, -2.04835 5.97862, -1.92755 " /><path d="M5.11824, -4.47922 C5.26443, -4.56589 5.49529, -4.50165 5.72001, -4.29981  C5.81261, -4.21733 5.90057, -4.11626 5.98388, -3.99661  C6.25763, -3.60821 6.42712, -3.04339 6.36691, -2.59816 " /><path d="M4.83198, -4.31395 C4.82494, -4.53893 4.87811, -4.72245 4.98043, -4.83696  C5.08226, -4.95214 5.23284, -4.99782 5.40752, -4.96549  C5.75679, -4.90699 6.19853, -4.51401 6.48641, -3.96736  C6.77965, -3.42537 6.90234, -2.75465 6.76717, -2.27434  C6.70217, -2.0333 6.57771, -1.83947 6.40748, -1.71774  C6.23768, -1.59531 6.02257, -1.54531 5.78845, -1.5726 " /><path d="M7.28614, -3.12888 C7.24883, -2.82364 7.10987, -2.57907 6.89785, -2.45827 " /><path d="M6.03747, -5.00994 C6.10745, -5.04992 6.19119, -5.05798 6.28868, -5.03414  C6.48188, -4.98721 6.7136, -4.80219 6.90307, -4.5274  C7.17684, -4.139 7.34635, -3.57413 7.28614, -3.12888 " /><path d="M5.75122, -4.84467 C5.74417, -5.06965 5.79735, -5.25317 5.89966, -5.36768  C6.00149, -5.48286 6.15207, -5.52854 6.32676, -5.49621  C6.67602, -5.43771 7.11776, -5.04473 7.40564, -4.49807  C7.69888, -3.95609 7.82157, -3.28537 7.6864, -2.80505  C7.6214, -2.56402 7.49694, -2.37019 7.32671, -2.24846  C7.15692, -2.12603 6.9418, -2.07603 6.70768, -2.10332 " /><path d="M8.20537, -3.6596 C8.16806, -3.35435 8.0291, -3.10978 7.81708, -2.98899 " /><path d="M6.9567, -5.54066 C7.0268, -5.5807 7.1107, -5.58873 7.20839, -5.56474  C7.40148, -5.51763 7.63294, -5.33272 7.82224, -5.0582  C8.09605, -4.66979 8.26559, -4.10488 8.20537, -3.6596 " /><path d="M6.67045, -5.37539 C6.66341, -5.60037 6.71658, -5.78389 6.81889, -5.8984  C6.92072, -6.01358 7.0713, -6.05926 7.24599, -6.02693  C7.59525, -5.96843 8.037, -5.57545 8.32487, -5.02879  C8.61812, -4.48681 8.7408, -3.81609 8.60563, -3.33577  C8.54063, -3.09474 8.41618, -2.90091 8.24594, -2.77918  C8.07615, -2.65674 7.86103, -2.60675 7.62691, -2.63404 " /><path d="M9.1246, -4.19032 C9.08729, -3.88507 8.94833, -3.6405 8.73631, -3.5197 " /><path d="M7.87593, -6.07138 C8.0519, -6.1776 8.35238, -6.05734 8.61437, -5.75288  C8.77369, -5.57024 8.91667, -5.32555 9.01078, -5.06137  C9.11523, -4.77084 9.15899, -4.45856 9.1246, -4.19032 " /><path d="M7.58968, -5.90611 C7.58264, -6.13109 7.63581, -6.31461 7.73812, -6.42912  C7.83995, -6.5443 7.99053, -6.58998 8.16522, -6.55765  C8.51448, -6.49915 8.95623, -6.10617 9.2441, -5.55951  C9.53735, -5.01753 9.66003, -4.34681 9.52487, -3.86649  C9.45986, -3.62546 9.33541, -3.43162 9.16517, -3.3099  C8.99538, -3.18746 8.78027, -3.13747 8.54614, -3.16475 " /><path d="M10.0438, -4.72103 C10.0065, -4.41579 9.86757, -4.17122 9.65554, -4.05042 " /><path d="M8.79516, -6.60209 C8.97139, -6.70849 9.2725, -6.58767 9.53476, -6.28227  C9.69624, -6.09679 9.8408, -5.84753 9.93463, -5.57906  C10.0358, -5.29223 10.0777, -4.98527 10.0438, -4.72103 " /><path d="M8.50891, -6.43683 C8.50187, -6.66181 8.55504, -6.84533 8.65735, -6.95984  C8.75918, -7.07502 8.90976, -7.1207 9.08445, -7.08837  C9.43371, -7.02987 9.87546, -6.63689 10.1633, -6.09023  C10.4566, -5.54825 10.5793, -4.87753 10.4441, -4.39721  C10.3791, -4.15617 10.2546, -3.96234 10.0844, -3.84062  C9.91461, -3.71818 9.6995, -3.66819 9.46538, -3.69547 " /><path d="M10.9631, -5.25175 C10.9258, -4.94651 10.7868, -4.70194 10.5748, -4.58114 " /><path d="M9.71439, -7.13281 C9.86039, -7.21936 10.0908, -7.15542 10.3153, -6.95419  C10.4081, -6.87162 10.4964, -6.77035 10.5799, -6.65039  C10.8537, -6.26198 11.0233, -5.69705 10.9631, -5.25175 " /><path d="M9.42814, -6.96754 C9.4211, -7.19252 9.47427, -7.37605 9.57658, -7.49056  C9.67841, -7.60574 9.82899, -7.65142 10.0037, -7.61909  C10.3529, -7.56059 10.7947, -7.16761 11.0826, -6.62095  C11.3758, -6.07897 11.4985, -5.40825 11.3633, -4.92793  C11.2983, -4.68689 11.1739, -4.49306 11.0036, -4.37133  C10.8338, -4.2489 10.6187, -4.1989 10.3846, -4.22619 " /><path d="M11.8823, -5.78247 C11.845, -5.47723 11.706, -5.23266 11.494, -5.11186 " /><path d="M10.6336, -7.66353 C10.7037, -7.70358 10.7877, -7.7116 10.8854, -7.68759  C11.0771, -7.64077 11.3066, -7.45822 11.4951, -7.18687  C11.7712, -6.79825 11.9429, -6.22998 11.8823, -5.78247 " /><path d="M10.3474, -7.49826 C10.3403, -7.72324 10.3935, -7.90676 10.4958, -8.02128  C10.5976, -8.13645 10.7482, -8.18214 10.9229, -8.14981  C11.2722, -8.09131 11.7139, -7.69833 12.0018, -7.15167  C12.295, -6.60969 12.4177, -5.93897 12.2826, -5.45865  C12.2176, -5.21761 12.0931, -5.02378 11.9229, -4.90205  C11.7531, -4.77962 11.538, -4.72962 11.3038, -4.75691 " /><path d="M12.8015, -6.31319 C12.7642, -6.00794 12.6253, -5.76337 12.4132, -5.64258 " /><path d="M11.5529, -8.19425 C11.7288, -8.30045 12.0292, -8.18025 12.2912, -7.8759  C12.4504, -7.69339 12.5933, -7.44888 12.6875, -7.18486  C12.7921, -6.89415 12.8359, -6.58162 12.8015, -6.31319 " /><path d="M11.2666, -8.02898 C11.2596, -8.25396 11.3127, -8.43748 11.415, -8.552  C11.5169, -8.66717 11.6675, -8.71286 11.8421, -8.68053  C12.1914, -8.62203 12.6332, -8.22905 12.921, -7.68239  C13.2143, -7.1404 13.337, -6.46969 13.2018, -5.98937  C13.1368, -5.74833 13.0123, -5.5545 12.8421, -5.43277  C12.6723, -5.31034 12.4572, -5.26034 12.2231, -5.28763 " /><path d="M13.7208, -6.8439 C13.6834, -6.53866 13.5445, -6.29409 13.3325, -6.17329 " /><path d="M12.4721, -8.72497 C12.6471, -8.83054 12.9452, -8.71235 13.2062, -8.41138  C13.3699, -8.22521 13.5167, -7.97335 13.6116, -7.7018  C13.7127, -7.41501 13.7546, -7.10811 13.7208, -6.8439 " /><path d="M12.1858, -8.5597 C12.1788, -8.78468 12.232, -8.9682 12.3343, -9.08271  C12.4361, -9.19789 12.5867, -9.24358 12.7614, -9.21125  C13.1106, -9.15275 13.5524, -8.75977 13.8403, -8.21311  C14.1335, -7.67112 14.2562, -7.00041 14.121, -6.52009  C14.056, -6.27905 13.9316, -6.08522 13.7613, -5.96349  C13.5915, -5.84105 13.3764, -5.79106 13.1423, -5.81834 " /><path d="M14.64, -7.37462 C14.6027, -7.06938 14.4637, -6.82481 14.2517, -6.70401 " /><path d="M13.3913, -9.25568 C13.5673, -9.36192 13.8678, -9.24162 14.1299, -8.93707  C14.2915, -8.75178 14.4362, -8.50259 14.5303, -8.23406  C14.6318, -7.94683 14.6739, -7.6393 14.64, -7.37462 " /><path d="M13.1051, -9.09042 C13.098, -9.3154 13.1512, -9.49892 13.2535, -9.61343  C13.3553, -9.72861 13.5059, -9.7743 13.6806, -9.74197  C14.0299, -9.68347 14.4716, -9.29049 14.7595, -8.74383  C15.0527, -8.20184 15.1754, -7.53113 15.0403, -7.0508  C14.9753, -6.80977 14.8508, -6.61594 14.6806, -6.49421  C14.5108, -6.37177 14.2957, -6.32178 14.0615, -6.34906 " /><path d="M15.5592, -7.90534 C15.5219, -7.6001 15.3829, -7.35553 15.1709, -7.23473 " /><path d="M14.3105, -9.7864 C14.4866, -9.8927 14.7874, -9.77219 15.0495, -9.46728  C15.181, -9.31622 15.3016, -9.1232 15.3923, -8.91143  C15.5334, -8.58511 15.5994, -8.21571 15.5592, -7.90534 " /><path d="M14.0243, -9.62114 C14.0173, -9.84612 14.0704, -10.0296 14.1727, -10.1442  C14.2746, -10.2593 14.4251, -10.305 14.5998, -10.2727  C14.9491, -10.2142 15.3908, -9.82121 15.6787, -9.27455  C15.972, -8.73256 16.0947, -8.06185 15.9595, -7.58152  C15.8945, -7.34049 15.77, -7.14665 15.5998, -7.02492  C15.43, -6.90249 15.2149, -6.85249 14.9808, -6.87978 " /><path d="M16.3577 -8.36633 A1.32 0.762102 60 0 1 16.2305 -7.89658" />
<path d="M16.2305 -7.89658 A1.32 0.762102 60 0 1 16.0843 -7.76206" />
<path d="M15.5735, -10.1675 C15.7321, -10.1859 15.9742, -10.0201 16.1681, -9.7225  C16.3843, -9.39866 16.5276, -8.92601 16.4896, -8.52812 " /><path d="M15.4332, -10.1539 C15.5205, -10.2753 15.7062, -10.2762 15.9161, -10.1258  C16.125, -9.97936 16.352, -9.68211 16.4933, -9.31906  C16.6366, -8.95814 16.6881, -8.53879 16.598, -8.20861  C16.5116, -7.87661 16.2825, -7.64288 15.9651, -7.60288 " /><path d="M16.4896, -8.52812 C16.4724, -8.33073 16.4137, -8.15288 16.3166, -8.01733 " /><path d="M14.9714 -10.1091 A1.32 0.762102 60 0 1 16.3577 -8.36633" />
<path d="M17.5741 -9.85775 A0.353553 0.204124 60 0 1 17.54 -9.73193" />
<path d="M17.1981 -10.3242 A0.353553 0.204124 60 0 1 17.3241 -10.2908" />
<path d="M17.3241 -10.2908 A0.353553 0.204124 60 0 1 17.5741 -9.85775" />
</g>

</svg>
