<svg xmlns="http://www.w3.org/2000/svg" viewBox="-4.708600000000001 -5.663600000000001 31.372200000000003 11.327200000000001">
<rect width="100%" height="100%" fill="white"/>
<g   fill="none"
   stroke="rgb(0, 0, 0)"
   stroke-linecap="butt"
   stroke-linejoin="miter"
   stroke-width="0.35"
   transform="scale(1, -1)"
  >
<path d="M0, -3.5 C-0.337486, -3.50004 -0.676644, -3.4557 -0.992251, -3.34025  C-1.33843, -3.21562 -1.64899, -2.99789 -1.8814, -2.71272  C-2.28608, -2.21787 -2.46407, -1.57588 -2.545, -0.944087 " /><path d="M0.43, -1.32 C0.294897, -1.45524 0.171787, -1.58519 0.0890207, -1.69068  C0.0320294, -1.76242 0.00235582, -1.81553 0, -1.85 " /><path d="M0.479403, -1.2739 L0.72265, -1.68383 " /><path d="M0.157633, 1.68382 L0.35311, 1.35398 " /><path id= "5" d=" M 0.43 -1.32 L 0.506947 -1.32 " />
<path d="M1.77939, -1.2739 L2.02264, -1.68384 " /><path d="M1.37263, 1.68381 L1.15693, 1.32 " /><path id= "8" d=" M 0.996094 -1.32 L 1.80694 -1.32 " />
<path d="M1.45762, 1.68383 L1.70093, 1.27389 " /><path d="M0.807611, -1.68385 L1.02337, -1.32 " /><path d="M3.07938, -1.2739 L3.32263, -1.68384 " /><path d="M2.67262, 1.68381 L2.45692, 1.32 " /><path id= "13" d=" M 2.29608 -1.32 L 3.10692 -1.32 " />
<path d="M2.75761, 1.68383 L3.00092, 1.27389 " /><path d="M2.1076, -1.68385 L2.32336, -1.32 " /><path d="M4.37937, -1.2739 L4.62262, -1.68384 " /><path d="M3.97261, 1.68381 L3.75691, 1.32 " /><path id= "18" d=" M 3.59607 -1.32 L 4.40691 -1.32 " />
<path d="M4.0576, 1.68383 L4.30091, 1.27389 " /><path d="M3.40759, -1.68385 L3.62335, -1.32 " /><path d="M5.67936, -1.2739 L5.92261, -1.68384 " /><path d="M5.2726, 1.68381 L5.0569, 1.32 " /><path id= "23" d=" M 4.89606 -1.32 L 5.7069 -1.32 " />
<path d="M5.3576, 1.68383 L5.6009, 1.27389 " /><path d="M4.70758, -1.68385 L4.92334, -1.32 " /><path d="M6.97935, -1.2739 L7.2226, -1.68384 " /><path d="M6.57259, 1.68382 L6.35689, 1.32 " /><path id= "28" d=" M 6.19605 -1.32 L 7.00689 -1.32 " />
<path d="M6.65759, 1.68383 L6.90088, 1.27389 " /><path d="M6.00757, -1.68385 L6.22333, -1.32 " /><path d="M8.27933, -1.2739 L8.52259, -1.68384 " /><path d="M7.87258, 1.68382 L7.65687, 1.32 " /><path id= "33" d=" M 7.49604 -1.32 L 8.30688 -1.32 " />
<path d="M7.95758, 1.68383 L8.20087, 1.27389 " /><path d="M7.30756, -1.68385 L7.52331, -1.32 " /><path d="M9.57932, -1.2739 L9.82258, -1.68384 " /><path d="M9.17257, 1.68382 L8.95686, 1.32 " /><path id= "38" d=" M 8.79603 -1.32 L 9.60687 -1.32 " />
<path d="M9.25757, 1.68383 L9.50086, 1.27389 " /><path d="M8.60755, -1.68385 L8.8233, -1.32 " /><path d="M10.8793, -1.2739 L11.1226, -1.68384 " /><path d="M10.4726, 1.68382 L10.2569, 1.32 " /><path id= "43" d=" M 10.096 -1.32 L 10.9069 -1.32 " />
<path d="M10.5576, 1.68383 L10.8009, 1.27389 " /><path d="M9.90754, -1.68385 L10.1233, -1.32 " /><path d="M12.1793, -1.27391 L12.4226, -1.68385 " /><path d="M11.7726, 1.68382 L11.5568, 1.32 " /><path id= "48" d=" M 11.396 -1.32 L 12.2068 -1.32 " />
<path d="M11.8575, 1.68383 L12.1008, 1.27389 " /><path d="M11.2075, -1.68385 L11.4233, -1.32 " /><path d="M13.4793, -1.27391 L13.7226, -1.68385 " /><path d="M13.0725, 1.68382 L12.8568, 1.32 " /><path id= "53" d=" M 12.696 -1.32 L 13.5068 -1.32 " />
<path d="M13.1575, 1.68383 L13.4008, 1.27388 " /><path d="M12.5075, -1.68385 L12.7233, -1.32 " /><path d="M14.7793, -1.27391 L15.0225, -1.68385 " /><path d="M14.3725, 1.68382 L14.1568, 1.32 " /><path id= "58" d=" M 13.996 -1.32 L 14.8068 -1.32 " />
<path d="M14.4575, 1.68383 L14.7008, 1.27388 " /><path d="M13.8075, -1.68385 L14.0233, -1.32 " /><path d="M16.0793, -1.27391 L16.3225, -1.68385 " /><path d="M15.6725, 1.68382 L15.4568, 1.32 " /><path id= "63" d=" M 15.296 -1.32 L 16.1068 -1.32 " />
<path d="M15.7575, 1.68383 L16.0008, 1.27388 " /><path d="M15.1075, -1.68385 L15.3232, -1.32 " /><path d="M17.3793, -1.27391 L17.6225, -1.68385 " /><path d="M16.9725, 1.68383 L16.7568, 1.32 " /><path id= "68" d=" M 16.596 -1.32 L 17.4068 -1.32 " />
<path d="M17.0575, 1.68383 L17.3008, 1.27388 " /><path d="M16.4075, -1.68385 L16.6232, -1.32 " /><path d="M18.6792, -1.27391 L18.9225, -1.68385 " /><path d="M18.2725, 1.68383 L18.0568, 1.32 " /><path id= "73" d=" M 17.896 -1.32 L 18.7068 -1.32 " />
<path d="M18.3575, 1.68383 L18.6008, 1.27388 " /><path d="M17.7075, -1.68385 L17.9232, -1.32 " /><path d="M19.9792, -1.27391 L20.2225, -1.68385 " /><path d="M19.5725, 1.68383 L19.3568, 1.32 " /><path id= "78" d=" M 19.1959 -1.32 L 20.0068 -1.32 " />
<path d="M19.6575, 1.68383 L19.9008, 1.27388 " /><path d="M19.0075, -1.68385 L19.2232, -1.32 " /><path d="M21.2792, -1.27391 L21.5225, -1.68385 " /><path d="M20.8725, 1.68383 L20.6568, 1.32 " /><path id= "83" d=" M 20.4959 -1.32 L 21.3068 -1.32 " />
<path d="M20.9575, 1.68383 L21.2008, 1.27388 " /><path d="M20.3075, -1.68385 L20.5232, -1.32 " /><path d="M22.66, -0.867136 L22.6822, -0.91627 " /><path d="M22.1072, 1.3159 L22.062, 1.23051 " /><path id= "88" d=" M 21.7959 -1.32 L 21.8132 -1.32 " />
<path d="M22.2011, 1.33145 L22.3446, 1.11289 " /><path d="M21.5898, -1.6913 L21.8077, -1.32 " /><path id= "91" d=" M 24.5 -0.353553 L 22.8125 -0.960575 " />
<path id= "92" d=" M 22.7293 -0.990498 L 21.8132 -1.32 " />
<path d="M22.8134, -0.970856 L22.8242, -0.956366 " /><path d="M24.5 -0.353553 A0.5 0.5 0 0 1 24.6464 3.99954e-16" /></g>
<g   fill="none"
   stroke="rgb(0, 0, 0)"
   stroke-linecap="butt"
   stroke-linejoin="miter"
   stroke-width="0.35"
   transform="scale(1, -1)"
  >
<path d="M-2.545, 0.944087 Q-2.53742, 1.00918 -2.51458, 1.08407 " /><path d="M-2.545, 0.944087 Q-2.22184, 3.5 -2.22045e-16, 3.5 " /><path d="M0, -3.5 L0, -3.41225  L0, -3.15339  L0, -2.73641  L0, -2.18221  L0, -1.51859  L0, -0.778823  L0, -6.66134e-16  L0, 0.778823  L0, 1.51859  L0, 2.18221  L0, 2.73641  L0, 3.15339  L0, 3.41225  L0, 3.5 " /><path d="M-2.42302, 0.771793 L-2.42302, 0.77181 " /><path d="M-2.37287, 0.918732 L-2.36997, 0.926462 " /><path d="M-2.3824, -1.48432 L-2.35212, -1.54749 " /><path d="M-2.51458, -1.08407 Q-2.53742, -1.00918 -2.545, -0.944087 " /><path d="M-2.3078, -1.6297 C-2.41014, -1.45212 -2.47462, -1.26288 -2.51458, -1.08407 " /><path d="M-2.3078, -1.07682 Q-2.3078, -1.40913 -2.3078, -1.6297 " /><path d="M-2.51458, -0.395 C-2.47462, -0.615071 -2.41014, -0.850668 -2.3078, -1.07682 " /><path d="M-2.545, -3.64064e-12 Q-2.53742, -0.181846 -2.51458, -0.395 " /><path d="M-2.51458, 0.395 Q-2.53742, 0.181846 -2.545, 3.59315e-12 " /><path d="M-2.3078, 1.07682 C-2.41014, 0.850668 -2.47462, 0.615071 -2.51458, 0.395 " /><path d="M-2.3078, 1.6297 Q-2.3078, 1.40913 -2.3078, 1.07682 " /><path d="M-2.51458, 1.08407 C-2.47462, 1.26288 -2.41014, 1.45212 -2.3078, 1.6297 " /><path id= "16" d=" M -2.51458 1.08407 L -2.31362 1.06383 " />
<path id= "17" d=" M -2.545 0.944087 L -2.36997 0.926462 " />
<path id= "18" d=" M -2.51458 -1.08407 L -2.31362 -1.06383 " />
<path id= "19" d=" M -2.545 -0.944087 L -2.36997 -0.926462 " />
<path d="M0, 1.85 Q1.38778e-17, 1.80316 0.0943316, 1.68393 " /><path d="M0.0943316, 1.68393 C0.116209, 1.654 0.138889, 1.54634 0.162372, 1.36096  C0.196052, 1.1007 0.231124, 0.695345 0.267277, 0.275069  C0.31926, -0.332029 0.373565, -0.937507 0.43, -1.15595 " /><path d="M0.43, -1.32 Q0.43, -1.31827 0.43, -1.15595 " /><path d="M0.285079, 1.46837 Q0.35012, 1.39988 0.43, 1.32 " /><path d="M0.479403, -1.2739 Q0.454705, -1.23235 0.43, -1.15595 " /><path d="M0.765134, -1.71999 Q0.743891, -1.71994 0.72265, -1.68383 " /><path d="M0.72265, -1.68383 C0.675575, -1.60497 0.628477, -1.38972 0.58139, -1.08514  C0.534302, -0.781886 0.487224, -0.39175 0.440143, -1.37389e-05  C0.393062, 0.391722 0.345976, 0.78187 0.298888, 1.08513  C0.251801, 1.38973 0.204715, 1.60497 0.157633, 1.68382 " /><path d="M0.157633, 1.68382 Q0.120156, 1.74758 0.082679, 1.69885 " /><path d="M0.996093, -1.32 C0.958154, -1.31869 0.9202, -1.25374 0.882231, -1.12514  C0.836958, -0.974611 0.791716, -0.740404 0.746445, -0.470099  C0.704256, -0.218643 0.662055, 0.0625488 0.619868, 0.323513  C0.556584, 0.716611 0.493298, 1.05559 0.43, 1.21294 " /><path d="M0.43, 1.21294 Q0.391455, 1.28951 0.35311, 1.35398 " /><path d="M0.43, 1.21294 Q0.43, 1.31919 0.43, 1.32 " /><path id= "31" d=" M 0.43 1.32 L 1.18423 1.32 " />
<path d="M1.77939, -1.2739 C1.72211, -1.17963 1.66475, -0.92992 1.60742, -0.603335  C1.56968, -0.389262 1.53195, -0.144546 1.49422, 0.0956633  C1.43871, 0.449654 1.38315, 0.789933 1.32761, 1.01544  C1.27981, 1.21111 1.23202, 1.32086 1.18423, 1.32 " /><path d="M2.06512, -1.71999 Q2.04388, -1.71994 2.02264, -1.68384 " /><path d="M2.02264, -1.68384 C1.97557, -1.60497 1.92847, -1.38973 1.88138, -1.08514  C1.83429, -0.781889 1.78721, -0.391752 1.74013, -1.61287e-05  C1.69305, 0.391719 1.64597, 0.781868 1.59888, 1.08513  C1.55179, 1.38973 1.50471, 1.60497 1.45762, 1.68383 " /><path d="M1.45762, 1.68383 Q1.41513, 1.7561 1.37263, 1.68381 " /><path d="M0.807611, -1.68385 Q0.786373, -1.71994 0.765134, -1.71999 " /><path d="M0.996094, -1.32 L0.996093, -1.32 " /><path id= "38" d=" M 1.67337 1.32 L 2.48422 1.32 " />
<path d="M2.29608, -1.32 C2.25814, -1.31869 2.22019, -1.25374 2.18222, -1.12514  C2.13812, -0.978486 2.09405, -0.752561 2.04996, -0.491042  C2.00958, -0.251953 1.96918, 0.0156138 1.9288, 0.267917  C1.85285, 0.745939 1.7769, 1.15116 1.70093, 1.27389 " /><path d="M3.07938, -1.2739 C3.02224, -1.17987 2.96504, -0.931248 2.90786, -0.60589  C2.86983, -0.390434 2.83182, -0.143722 2.7938, 0.0982816  C2.74592, 0.403275 2.69802, 0.698686 2.65012, 0.917837  C2.5948, 1.17285 2.53952, 1.32152 2.48422, 1.32 " /><path d="M3.36511, -1.71999 Q3.34387, -1.71994 3.32263, -1.68384 " /><path d="M3.32263, -1.68384 C3.27556, -1.60498 3.22846, -1.38973 3.18137, -1.08514  C3.13428, -0.781891 3.08721, -0.391755 3.04012, -1.85186e-05  C2.99304, 0.391717 2.94596, 0.781866 2.89887, 1.08513  C2.85178, 1.38973 2.8047, 1.60497 2.75761, 1.68383 " /><path d="M2.75761, 1.68383 Q2.71512, 1.7561 2.67262, 1.68381 " /><path d="M2.1076, -1.68385 Q2.08636, -1.71994 2.06512, -1.71999 " /><path d="M2.29608, -1.32 L2.29608, -1.32 " /><path id= "46" d=" M 2.97336 1.32 L 3.78421 1.32 " />
<path d="M3.59607, -1.32 C3.55813, -1.31869 3.52018, -1.25374 3.48221, -1.12515  C3.43816, -0.978633 3.39413, -0.753018 3.35008, -0.49183  C3.30951, -0.251717 3.26894, 0.0171822 3.22837, 0.270525  C3.15256, 0.74746 3.07675, 1.15136 3.00092, 1.27389 " /><path d="M4.37937, -1.2739 C4.32204, -1.17956 4.26464, -0.929538 4.20727, -0.602596  C4.16953, -0.388513 4.13182, -0.143843 4.0941, 0.0962908  C4.03864, 0.449933 3.98313, 0.789824 3.92765, 1.0152  C3.87982, 1.21102 3.83202, 1.32086 3.78421, 1.32 " /><path d="M4.6651, -1.71999 Q4.64386, -1.71994 4.62262, -1.68384 " /><path d="M4.62262, -1.68384 C4.57555, -1.60498 4.52845, -1.38973 4.48136, -1.08514  C4.43427, -0.781894 4.3872, -0.391757 4.34011, -2.09085e-05  C4.29303, 0.391715 4.24595, 0.781864 4.19886, 1.08513  C4.15177, 1.38972 4.10469, 1.60497 4.0576, 1.68383 " /><path d="M4.0576, 1.68383 Q4.01511, 1.7561 3.97261, 1.68381 " /><path d="M3.40759, -1.68385 Q3.38635, -1.71994 3.36511, -1.71999 " /><path d="M3.59607, -1.32 L3.59607, -1.32 " /><path id= "54" d=" M 4.27335 1.32 L 5.08419 1.32 " />
<path d="M4.89606, -1.32 C4.85812, -1.31869 4.82017, -1.25374 4.7822, -1.12515  C4.73306, -0.961889 4.68396, -0.699545 4.63481, -0.400261  C4.59928, -0.184262 4.56374, 0.0496269 4.52821, 0.271486  C4.45245, 0.748016 4.37668, 1.15144 4.30091, 1.27389 " /><path d="M5.67936, -1.2739 C5.62208, -1.17965 5.56473, -0.930021 5.50742, -0.603522  C5.46977, -0.389989 5.43214, -0.145949 5.39449, 0.0937011  C5.34647, 0.39972 5.29842, 0.696455 5.25037, 0.916565  C5.19497, 1.17233 5.13958, 1.32153 5.08419, 1.32 " /><path d="M5.96509, -1.71999 Q5.94385, -1.71994 5.92261, -1.68384 " /><path d="M5.92261, -1.68384 C5.87554, -1.60498 5.82844, -1.38973 5.78135, -1.08515  C5.73426, -0.781896 5.68719, -0.39176 5.64011, -2.32983e-05  C5.59302, 0.391713 5.54594, 0.781862 5.49885, 1.08512  C5.45176, 1.38972 5.40468, 1.60497 5.3576, 1.68383 " /><path d="M5.3576, 1.68383 Q5.3151, 1.7561 5.2726, 1.68381 " /><path d="M4.70758, -1.68385 Q4.68634, -1.71994 4.6651, -1.71999 " /><path d="M4.89606, -1.32 L4.89606, -1.32 " /><path id= "62" d=" M 5.57334 1.32 L 6.38418 1.32 " />
<path d="M6.19605, -1.32 C6.15811, -1.31869 6.12016, -1.25374 6.08219, -1.12515  C6.03809, -0.978486 5.99402, -0.752554 5.94992, -0.491027  C5.90949, -0.25161 5.86904, 0.0163631 5.8286, 0.268969  C5.75271, 0.74655 5.67681, 1.15124 5.6009, 1.27389 " /><path d="M6.97935, -1.2739 C6.91632, -1.17069 6.85321, -0.877397 6.79016, -0.503651  C6.74581, -0.242181 6.70148, 0.0545746 6.65713, 0.32864  C6.61346, 0.598765 6.56978, 0.845255 6.52611, 1.02136  C6.47879, 1.21338 6.43149, 1.32083 6.38418, 1.32 " /><path d="M7.26509, -1.71999 Q7.24384, -1.71994 7.2226, -1.68384 " /><path d="M7.2226, -1.68384 C7.17553, -1.60498 7.12843, -1.38973 7.08134, -1.08515  C7.03425, -0.781899 6.98718, -0.391762 6.9401, -2.56881e-05  C6.89301, 0.391711 6.84593, 0.781861 6.79884, 1.08512  C6.75175, 1.38972 6.70467, 1.60497 6.65759, 1.68383 " /><path d="M6.65759, 1.68383 Q6.61509, 1.7561 6.57259, 1.68382 " /><path d="M6.00757, -1.68385 Q5.98633, -1.71994 5.96509, -1.71999 " /><path d="M6.19605, -1.32 L6.19605, -1.32 " /><path id= "70" d=" M 6.87333 1.32 L 7.68417 1.32 " />
<path d="M7.49604, -1.32 C7.4581, -1.3187 7.42015, -1.25374 7.38218, -1.12515  C7.3332, -0.962424 7.28426, -0.701287 7.23528, -0.403218  C7.19974, -0.187382 7.1642, 0.0464783 7.12867, 0.268447  C7.05275, 0.746245 6.97683, 1.15119 6.90088, 1.27389 " /><path d="M8.27933, -1.2739 C8.22198, -1.17953 8.16455, -0.929308 8.10715, -0.602145  C8.06951, -0.388538 8.03189, -0.144515 7.99426, 0.0950534  C7.94631, 0.400597 7.89832, 0.696778 7.85035, 0.916564  C7.79494, 1.17233 7.73956, 1.32153 7.68417, 1.32 " /><path d="M8.56508, -1.71999 Q8.54383, -1.71994 8.52259, -1.68384 " /><path d="M8.52259, -1.68384 C8.47552, -1.60498 8.42842, -1.38974 8.38133, -1.08515  C8.33425, -0.781902 8.28717, -0.391765 8.24009, -2.8078e-05  C8.19301, 0.391708 8.14592, 0.781859 8.09883, 1.08512  C8.05174, 1.38972 8.00466, 1.60497 7.95758, 1.68383 " /><path d="M7.95758, 1.68383 Q7.91508, 1.7561 7.87258, 1.68382 " /><path d="M7.30756, -1.68385 Q7.28632, -1.71994 7.26509, -1.71999 " /><path d="M7.49604, -1.32 L7.49604, -1.32 " /><path id= "78" d=" M 8.17332 1.32 L 8.98416 1.32 " />
<path d="M8.79603, -1.32 C8.75809, -1.3187 8.72014, -1.25374 8.68217, -1.12515  C8.63327, -0.962689 8.58441, -0.70215 8.53551, -0.404683  C8.49997, -0.188927 8.46443, 0.0449182 8.4289, 0.266941  C8.3529, 0.745368 8.27689, 1.15108 8.20087, 1.27389 " /><path d="M9.57932, -1.2739 C9.52205, -1.17965 9.4647, -0.930021 9.40738, -0.603521  C9.36973, -0.390006 9.33211, -0.145988 9.29447, 0.0936439  C9.24645, 0.399653 9.1984, 0.696384 9.15035, 0.916501  C9.09494, 1.17231 9.03955, 1.32153 8.98416, 1.32 " /><path d="M9.86507, -1.71999 Q9.84382, -1.71994 9.82258, -1.68384 " /><path d="M9.82258, -1.68384 C9.77551, -1.60498 9.72841, -1.38974 9.68132, -1.08515  C9.63424, -0.781904 9.58716, -0.391768 9.54008, -3.04678e-05  C9.493, 0.391706 9.44591, 0.781857 9.39882, 1.08512  C9.35173, 1.38972 9.30465, 1.60497 9.25757, 1.68383 " /><path d="M9.25757, 1.68383 Q9.21507, 1.7561 9.17257, 1.68382 " /><path d="M8.60755, -1.68385 Q8.58632, -1.71994 8.56508, -1.71999 " /><path d="M8.79603, -1.32 L8.79603, -1.32 " /><path id= "86" d=" M 9.47331 1.32 L 10.2841 1.32 " />
<path d="M10.096, -1.32 C10.0581, -1.3187 10.0201, -1.25375 9.98216, -1.12515  C9.93803, -0.978406 9.89394, -0.752297 9.84981, -0.490581  C9.80933, -0.250877 9.76884, 0.0174169 9.72836, 0.270236  C9.65254, 0.747286 9.57671, 1.15133 9.50086, 1.27389 " /><path d="M10.8793, -1.2739 C10.8223, -1.18001 10.7651, -0.932001 10.708, -0.607334  C10.6702, -0.392925 10.6323, -0.147451 10.5945, 0.0935923  C10.5464, 0.399585 10.4984, 0.696305 10.4504, 0.916426  C10.3949, 1.17228 10.3395, 1.32153 10.2841, 1.32 " /><path d="M11.1651, -1.71999 Q11.1438, -1.71994 11.1226, -1.68384 " /><path d="M11.1226, -1.68384 C11.0755, -1.60499 11.0284, -1.38974 10.9813, -1.08516  C10.9342, -0.781907 10.8871, -0.39177 10.8401, -3.28576e-05  C10.793, 0.391704 10.7459, 0.781855 10.6988, 1.08512  C10.6517, 1.38972 10.6046, 1.60497 10.5576, 1.68383 " /><path d="M10.5576, 1.68383 Q10.5151, 1.7561 10.4726, 1.68382 " /><path d="M9.90754, -1.68385 Q9.88631, -1.71994 9.86507, -1.71999 " /><path d="M10.096, -1.32 L10.096, -1.32 " /><path id= "94" d=" M 10.7733 1.32 L 11.5841 1.32 " />
<path d="M11.396, -1.32 C11.3581, -1.3187 11.3201, -1.25375 11.2821, -1.12515  C11.238, -0.978421 11.1939, -0.752342 11.1498, -0.490658  C11.1093, -0.250561 11.0687, 0.0182266 11.0282, 0.271419  C10.9524, 0.747973 10.8766, 1.15143 10.8009, 1.27389 " /><path d="M12.1793, -1.27391 C12.1162, -1.17062 12.0531, -0.876948 11.99, -0.502807  C11.9579, -0.313691 11.9258, -0.106236 11.8938, 0.0978027  C11.8384, 0.451183 11.7829, 0.790667 11.7274, 1.01573  C11.6797, 1.21122 11.6319, 1.32086 11.5841, 1.32 " /><path d="M12.465, -1.71999 Q12.4438, -1.71994 12.4226, -1.68385 " /><path d="M12.4226, -1.68385 C12.3755, -1.60499 12.3284, -1.38974 12.2813, -1.08516  C12.2342, -0.781909 12.1871, -0.391773 12.1401, -3.52475e-05  C12.093, 0.391702 12.0459, 0.781853 11.9988, 1.08512  C11.9517, 1.38972 11.9046, 1.60497 11.8575, 1.68383 " /><path d="M11.8575, 1.68383 Q11.815, 1.7561 11.7726, 1.68382 " /><path d="M11.2075, -1.68385 Q11.1863, -1.71994 11.1651, -1.71999 " /><path d="M11.396, -1.32 L11.396, -1.32 " /><path id= "102" d=" M 12.0733 1.32 L 12.8841 1.32 " />
<path d="M12.696, -1.32 C12.6581, -1.3187 12.6201, -1.25375 12.5821, -1.12515  C12.5381, -0.978565 12.494, -0.752788 12.4499, -0.491426  C12.4094, -0.251727 12.3689, 0.0166274 12.3285, 0.269541  C12.2526, 0.746879 12.1767, 1.15128 12.1008, 1.27389 " /><path d="M13.4793, -1.27391 C13.4222, -1.17995 13.365, -0.931624 13.3079, -0.606599  C13.2699, -0.391576 13.232, -0.145367 13.194, 0.0962536  C13.1462, 0.400749 13.0984, 0.695871 13.0506, 0.915227  C12.9951, 1.1718 12.9396, 1.32154 12.8841, 1.32 " /><path d="M13.765, -1.72 Q13.7438, -1.71994 13.7226, -1.68385 " /><path d="M13.7226, -1.68385 C13.6755, -1.60499 13.6284, -1.38975 13.5813, -1.08516  C13.5342, -0.781912 13.4871, -0.391775 13.44, -3.76373e-05  C13.393, 0.3917 13.3459, 0.781852 13.2988, 1.08512  C13.2517, 1.38972 13.2046, 1.60497 13.1575, 1.68383 " /><path d="M13.1575, 1.68383 Q13.115, 1.75611 13.0725, 1.68382 " /><path d="M12.5075, -1.68385 Q12.4863, -1.71994 12.465, -1.71999 " /><path d="M12.696, -1.32 L12.696, -1.32 " /><path id= "110" d=" M 13.3733 1.32 L 14.1841 1.32 " />
<path d="M13.996, -1.32 C13.958, -1.3187 13.9201, -1.25375 13.8821, -1.12515  C13.838, -0.978434 13.7939, -0.752379 13.7498, -0.49072  C13.7095, -0.252348 13.6693, 0.0143059 13.629, 0.265906  C13.553, 0.744761 13.4769, 1.15099 13.4008, 1.27388 " /><path d="M14.7793, -1.27391 C14.7219, -1.17957 14.6645, -0.929515 14.6072, -0.602542  C14.5696, -0.38928 14.532, -0.145671 14.4944, 0.093571  C14.4464, 0.399556 14.3984, 0.69627 14.3503, 0.916392  C14.2949, 1.17226 14.2395, 1.32153 14.1841, 1.32 " /><path d="M15.065, -1.72 Q15.0438, -1.71995 15.0225, -1.68385 " /><path d="M15.0225, -1.68385 C14.9755, -1.60499 14.9284, -1.38975 14.8813, -1.08516  C14.8342, -0.781914 14.7871, -0.391778 14.74, -4.00271e-05  C14.693, 0.391697 14.6459, 0.78185 14.5988, 1.08512  C14.5517, 1.38972 14.5046, 1.60497 14.4575, 1.68383 " /><path d="M14.4575, 1.68383 Q14.415, 1.75611 14.3725, 1.68382 " /><path d="M13.8075, -1.68385 Q13.7863, -1.71995 13.765, -1.72 " /><path d="M13.996, -1.32 L13.996, -1.32 " /><path id= "118" d=" M 14.6733 1.32 L 15.4841 1.32 " />
<path d="M15.296, -1.32 C15.258, -1.3187 15.2201, -1.25375 15.1821, -1.12515  C15.1381, -0.978701 15.0941, -0.753209 15.05, -0.492151  C15.0095, -0.252295 14.969, 0.0163111 14.9284, 0.269454  C14.8526, 0.746829 14.7767, 1.15127 14.7008, 1.27388 " /><path d="M16.0793, -1.27391 C16.0222, -1.18 15.9651, -0.931954 15.908, -0.607239  C15.8701, -0.392713 15.8322, -0.147096 15.7943, 0.0940638  C15.7463, 0.400144 15.6982, 0.696904 15.6502, 0.91697  C15.5948, 1.1725 15.5395, 1.32153 15.4841, 1.32 " /><path d="M16.365, -1.72 Q16.3438, -1.71995 16.3225, -1.68385 " /><path d="M16.3225, -1.68385 C16.2755, -1.60499 16.2284, -1.38975 16.1813, -1.08517  C16.1342, -0.781917 16.0871, -0.391781 16.04, -4.24169e-05  C15.9929, 0.391695 15.9459, 0.781848 15.8988, 1.08511  C15.8517, 1.38972 15.8046, 1.60497 15.7575, 1.68383 " /><path d="M15.7575, 1.68383 Q15.715, 1.75611 15.6725, 1.68382 " /><path d="M15.1075, -1.68385 Q15.0863, -1.71995 15.065, -1.72 " /><path d="M15.296, -1.32 L15.296, -1.32 " /><path id= "126" d=" M 15.9733 1.32 L 16.7841 1.32 " />
<path d="M16.596, -1.32 C16.558, -1.3187 16.5201, -1.25375 16.4821, -1.12515  C16.438, -0.978637 16.394, -0.753005 16.35, -0.491799  C16.3065, -0.234733 16.2631, 0.0553421 16.2197, 0.32397  C16.1467, 0.778229 16.0738, 1.1556 16.0008, 1.27388 " /><path d="M17.3793, -1.27391 C17.3221, -1.1799 17.2649, -0.931358 17.2078, -0.606083  C17.1697, -0.390737 17.1318, -0.144152 17.0938, 0.0977559  C17.0384, 0.450935 16.9829, 0.790244 16.9275, 1.01531  C16.8797, 1.21106 16.8319, 1.32086 16.7841, 1.32 " /><path d="M17.665, -1.72 Q17.6438, -1.71995 17.6225, -1.68385 " /><path d="M17.6225, -1.68385 C17.5755, -1.60499 17.5284, -1.38975 17.4813, -1.08517  C17.4342, -0.78192 17.3871, -0.391783 17.34, -4.48068e-05  C17.2929, 0.391693 17.2459, 0.781846 17.1988, 1.08511  C17.1517, 1.38972 17.1046, 1.60497 17.0575, 1.68383 " /><path d="M17.0575, 1.68383 Q17.015, 1.75611 16.9725, 1.68383 " /><path d="M16.4075, -1.68385 Q16.3863, -1.71995 16.365, -1.72 " /><path d="M16.596, -1.32 L16.596, -1.32 " /><path id= "134" d=" M 17.2732 1.32 L 18.0841 1.32 " />
<path d="M17.896, -1.32 C17.858, -1.3187 17.8201, -1.25375 17.7821, -1.12516  C17.738, -0.978574 17.694, -0.752809 17.6499, -0.491458  C17.6095, -0.252601 17.5692, 0.0147113 17.5288, 0.266848  C17.4528, 0.745307 17.3768, 1.15106 17.3008, 1.27388 " /><path d="M18.6792, -1.27391 C18.6219, -1.17953 18.5644, -0.929284 18.5071, -0.602094  C18.4693, -0.388057 18.4316, -0.143486 18.3939, 0.0965399  C18.3462, 0.400952 18.2983, 0.695975 18.2505, 0.915266  C18.195, 1.17181 18.1396, 1.32154 18.0841, 1.32 " /><path d="M18.965, -1.72 Q18.9438, -1.71995 18.9225, -1.68385 " /><path d="M18.9225, -1.68385 C18.8754, -1.605 18.8283, -1.38975 18.7813, -1.08517  C18.7342, -0.781922 18.6871, -0.391786 18.64, -4.71966e-05  C18.5929, 0.391691 18.5458, 0.781844 18.4988, 1.08511  C18.4517, 1.38972 18.4046, 1.60497 18.3575, 1.68383 " /><path d="M18.3575, 1.68383 Q18.315, 1.75611 18.2725, 1.68383 " /><path d="M17.7075, -1.68385 Q17.6862, -1.71995 17.665, -1.72 " /><path d="M17.896, -1.32 L17.896, -1.32 " /><path id= "142" d=" M 18.5732 1.32 L 19.3841 1.32 " />
<path d="M19.1959, -1.32 C19.158, -1.3187 19.12, -1.25375 19.0821, -1.12516  C19.038, -0.978514 18.9939, -0.752618 18.9498, -0.491129  C18.9094, -0.251755 18.869, 0.0161731 18.8285, 0.268751  C18.7526, 0.746415 18.6767, 1.15121 18.6008, 1.27388 " /><path d="M19.9792, -1.27391 C19.9162, -1.17074 19.8531, -0.877659 19.7901, -0.504131  C19.7459, -0.243689 19.7018, 0.0518065 19.6576, 0.325037  C19.6136, 0.597641 19.5695, 0.846428 19.5255, 1.02346  C19.4783, 1.21418 19.4312, 1.32082 19.3841, 1.32 " /><path d="M20.265, -1.72 Q20.2437, -1.71995 20.2225, -1.68385 " /><path d="M20.2225, -1.68385 C20.1754, -1.605 20.1283, -1.38976 20.0812, -1.08517  C20.0342, -0.781925 19.9871, -0.391788 19.94, -4.95864e-05  C19.8929, 0.391689 19.8458, 0.781843 19.7987, 1.08511  C19.7517, 1.38971 19.7046, 1.60497 19.6575, 1.68383 " /><path d="M19.6575, 1.68383 Q19.615, 1.75611 19.5725, 1.68383 " /><path d="M19.0075, -1.68385 Q18.9862, -1.71995 18.965, -1.72 " /><path d="M19.1959, -1.32 L19.1959, -1.32 " /><path id= "150" d=" M 19.8732 1.32 L 20.6841 1.32 " />
<path d="M20.4959, -1.32 C20.458, -1.3187 20.42, -1.25375 20.3821, -1.12516  C20.338, -0.978456 20.2939, -0.752434 20.2498, -0.490809  C20.2093, -0.25096 20.1687, 0.017531 20.1282, 0.270511  C20.0524, 0.747439 19.9766, 1.15134 19.9008, 1.27388 " /><path d="M21.2792, -1.27391 C21.2162, -1.17069 21.1531, -0.877354 21.09, -0.503556  C21.0458, -0.24302 21.0017, 0.0525419 20.9575, 0.325778  C20.9216, 0.547562 20.8857, 0.753972 20.8499, 0.918151  C20.7946, 1.17298 20.7393, 1.32152 20.6841, 1.32 " /><path d="M21.565, -1.72 Q21.5437, -1.71995 21.5225, -1.68385 " /><path d="M21.5225, -1.68385 C21.4754, -1.605 21.4283, -1.38976 21.3812, -1.08517  C21.3341, -0.781927 21.2871, -0.391791 21.24, -5.19763e-05  C21.1929, 0.391686 21.1458, 0.781841 21.0987, 1.08511  C21.0516, 1.38971 21.0046, 1.60497 20.9575, 1.68383 " /><path d="M20.9575, 1.68383 Q20.915, 1.75611 20.8725, 1.68383 " /><path d="M20.3075, -1.68385 Q20.2862, -1.71995 20.265, -1.72 " /><path id= "157" d=" M 21.1732 1.32 L 21.8132 1.32 " />
<path d="M21.565, -1.72 L21.7959, -1.32 " /><path d="M21.7959, -1.32 C21.758, -1.3187 21.72, -1.25375 21.6821, -1.12516  C21.6379, -0.978399 21.5938, -0.752255 21.5497, -0.490499  C21.5064, -0.233849 21.463, 0.0555863 21.4197, 0.323681  C21.3467, 0.778064 21.2737, 1.15557 21.2008, 1.27388 " /><path d="M22.66, -0.867135 C22.6114, -0.761057 22.5631, -0.577733 22.515, -0.35531  C22.456, -0.0834681 22.3974, 0.244488 22.3391, 0.526035  C22.2602, 0.910699 22.1821, 1.19147 22.1047, 1.21516 " /><path d="M22.7842, -0.99913 Q22.7332, -1.03005 22.6822, -0.91627 " /><path d="M22.6822, -0.91627 C22.6421, -0.827358 22.602, -0.669681 22.5619, -0.466187  C22.5218, -0.263433 22.4817, -0.0157736 22.4416, 0.232645  C22.3614, 0.732374 22.2812, 1.21409 22.2011, 1.33145 " /><path d="M22.2011, 1.33145 Q22.1541, 1.40433 22.1072, 1.3159 " /><path d="M21.5898, -1.6913 Q21.5774, -1.71261 21.565, -1.72 " /><path d="M21.8132, -1.32 L21.8132, -1.2869  L21.8132, -1.18928  L21.8132, -1.03202  L21.8132, -0.823007  L21.8132, -0.572727  L21.8132, -0.293728  L21.8132, -2.22045e-16  L21.8132, 0.293728  L21.8132, 0.572727  L21.8132, 0.823007  L21.8132, 1.03202  L21.8132, 1.18928  L21.8132, 1.2869  L21.8132, 1.32 " /><path id= "166" d=" M 21.8132 1.32 L 22.1047 1.21516 " />
<path d="M22.8125, -0.960575 C22.78, -0.971282 22.7474, -0.917142 22.7146, -0.798156  C22.677, -0.66418 22.6393, -0.450487 22.6014, -0.207936  C22.5583, 0.0675595 22.5151, 0.376955 22.4718, 0.624776  C22.4294, 0.868512 22.387, 1.04959 22.3446, 1.11289 " /><path id= "168" d=" M 22.3308 1.13382 L 24.5 0.353553 " />
<path d="M24.5, -0.353553 Q24.5, -0.349121 24.5, -0.344689  Q24.5, -0.331615 24.5, -0.318541  Q24.5, -0.29748 24.5, -0.276419  Q24.5, -0.248428 24.5, -0.220437  Q24.5, -0.186919 24.5, -0.153401  Q24.5, -0.0797793 24.5, -6.93889e-17  Q24.5, 0.0393365 24.5, 0.078673  Q24.5, 0.155558 24.5, 0.220437  Q24.5, 0.248428 24.5, 0.276419  Q24.5, 0.29748 24.5, 0.318541  Q24.5, 0.331615 24.5, 0.344689  Q24.5, 0.349121 24.5, 0.353553 " /><path d="M22.8134, -0.970856 Q22.7988, -0.990461 22.7842, -0.99913 " /><path d="M24.5 0.353553 A0.5 0.5 0 0 0 24.6464 -6.81152e-17" /></g>

</svg>
