<svg xmlns="http://www.w3.org/2000/svg" viewBox="-4.0600000000000005 -4.0600000000000005 8.120000000000001 8.120000000000001">
<rect width="100%" height="100%" fill="white"/>
<g   fill="none"
   stroke="rgb(0, 0, 0)"
   stroke-linecap="butt"
   stroke-linejoin="miter"
   stroke-width="0.35"
   transform="scale(1, -1)"
  >
<path d="M0.944087, -2.77556e-16 Q1.00918, -0.181842 1.08407, -0.395 " /><circle cx ="0" cy ="0" r ="3.5" /><path d="M1.08407, 0.395 Q1.00918, 0.181842 0.944087, 8.32667e-17 " /><path d="M1.6297, 1.07682 C1.45212, 0.850668 1.26288, 0.615071 1.08407, 0.395 " /><path d="M1.07682, 1.6297 C1.29586, 1.48515 1.48515, 1.29586 1.6297, 1.07682 " /><path d="M0.395, 1.08407 C0.615072, 1.26288 0.850667, 1.45212 1.07682, 1.6297 " /><path d="M3.5108e-12, 0.944087 Q0.181846, 1.00918 0.395, 1.08407 " /><path d="M-0.395, 1.08407 Q-0.181846, 1.00918 -3.58619e-12, 0.944087 " /><path d="M-1.07682, 1.6297 C-0.850668, 1.45212 -0.615071, 1.26288 -0.395, 1.08407 " /><path d="M-1.6297, 1.07682 C-1.48515, 1.29586 -1.29586, 1.48515 -1.07682, 1.6297 " /><path d="M-1.08407, 0.395 C-1.26288, 0.615072 -1.45212, 0.850667 -1.6297, 1.07682 " /><path d="M-0.944087, 3.52779e-12 Q-1.00918, 0.181846 -1.08407, 0.395 " /><path d="M-1.08407, -0.395 Q-1.00918, -0.181846 -0.944087, -3.58669e-12 " /><path d="M-1.6297, -1.07682 C-1.45212, -0.850668 -1.26288, -0.615071 -1.08407, -0.395 " /><path d="M-1.07682, -1.6297 C-1.29586, -1.48515 -1.48515, -1.29586 -1.6297, -1.07682 " /><path d="M-0.395, -1.08407 C-0.615071, -1.26288 -0.850668, -1.45212 -1.07682, -1.6297 " /><path d="M-3.64064e-12, -0.944087 Q-0.181846, -1.00918 -0.395, -1.08407 " /><path d="M0.395, -1.08407 Q0.181846, -1.00918 3.59315e-12, -0.944087 " /><path d="M1.07682, -1.6297 C0.850668, -1.45212 0.615071, -1.26288 0.395, -1.08407 " /><path d="M1.6297, -1.07682 C1.48515, -1.29586 1.29586, -1.48515 1.07682, -1.6297 " /><path d="M1.08407, -0.395 C1.26288, -0.615071 1.45212, -0.850668 1.6297, -1.07682 " /><path id= "22" d=" M 1.08407 -0.395 L 0.890868 -0.395 " />
<path id= "23" d=" M 0.944087 0 L 0.735 0 " />
<path d="M0.890868, -0.395 C0.828856, -0.241323 0.779263, -0.115645 0.735, 6.13398e-14 " /><path d="M1.6297, -1.07682 C1.36299, -0.841422 1.16815, -0.669071 1.01387, -0.532065 " /><path d="M1.01387, -0.532065 Q0.94732, -0.457978 0.890868, -0.395 " /><path d="M0.532065, -1.01387 C0.669071, -1.16815 0.841422, -1.36299 1.07682, -1.6297 " /><path d="M0.532065 -1.01387 A1.145 1.145 0 0 1 1.01387 -0.532065" /><path id= "29" d=" M 0.395 -1.08407 L 0.395 -0.890868 " />
<path d="M0.395, -0.890868 Q0.457978, -0.94732 0.532065, -1.01387 " /><path id= "31" d=" M -2.09629e-16 -0.944087 L -1.63203e-16 -0.735 " />
<path d="M-6.15064e-14, -0.735 C0.115645, -0.779263 0.241323, -0.828856 0.395, -0.890868 " /><path id= "33" d=" M -0.395 -1.08407 L -0.395 -0.890868 " />
<path d="M-0.395, -0.890868 C-0.241323, -0.828856 -0.115645, -0.779263 6.11455e-14, -0.735 " /><path d="M-1.07682, -1.6297 C-0.841422, -1.36299 -0.669071, -1.16815 -0.532065, -1.01387 " /><path d="M-0.532065, -1.01387 Q-0.457978, -0.94732 -0.395, -0.890868 " /><path d="M-1.01387, -0.532065 C-1.16815, -0.669071 -1.36299, -0.841422 -1.6297, -1.07682 " /><path d="M-1.01387 -0.532065 A1.145 1.145 0 0 1 -0.532065 -1.01387" /><path id= "39" d=" M -1.08407 -0.395 L -0.890868 -0.395 " />
<path d="M-0.890868, -0.395 Q-0.94732, -0.457978 -1.01387, -0.532065 " /><path id= "41" d=" M -0.944087 1.15617e-16 L -0.735 9.00115e-17 " />
<path d="M-0.735, 6.13589e-14 C-0.779263, -0.115645 -0.828856, -0.241323 -0.890868, -0.395 " /><path id= "43" d=" M -1.08407 0.395 L -0.890868 0.395 " />
<path d="M-0.890868, 0.395 C-0.828856, 0.241323 -0.779263, 0.115645 -0.735, -6.11733e-14 " /><path d="M-1.6297, 1.07682 C-1.36299, 0.841422 -1.16815, 0.669071 -1.01387, 0.532065 " /><path d="M-1.01387, 0.532065 Q-0.94732, 0.457978 -0.890868, 0.395 " /><path d="M-0.532065, 1.01387 C-0.669071, 1.16815 -0.841422, 1.36299 -1.07682, 1.6297 " /><path d="M-0.532065 1.01387 A1.145 1.145 0 0 1 -1.01387 0.532065" /><path id= "49" d=" M -0.395 1.08407 L -0.395 0.890868 " />
<path d="M-0.395, 0.890868 Q-0.457978, 0.94732 -0.532065, 1.01387 " /><path id= "51" d=" M 1.04815e-16 0.944087 L 8.16014e-17 0.735 " />
<path d="M6.12479e-14, 0.735 C-0.115645, 0.779263 -0.241323, 0.828856 -0.395, 0.890868 " /><path id= "53" d=" M 0.395 1.08407 L 0.395 0.890868 " />
<path d="M0.395, 0.890868 C0.241323, 0.828856 0.115645, 0.779263 -6.11455e-14, 0.735 " /><path d="M1.07682, 1.6297 C0.841422, 1.36299 0.669071, 1.16815 0.532065, 1.01387 " /><path d="M0.532065, 1.01387 Q0.457978, 0.94732 0.395, 0.890868 " /><path d="M1.01387, 0.532065 C1.16815, 0.669071 1.36299, 0.841422 1.6297, 1.07682 " /><path d="M1.01387 0.532065 A1.145 1.145 0 0 1 0.532065 1.01387" /><path id= "59" d=" M 1.08407 0.395 L 0.890868 0.395 " />
<path d="M0.890868, 0.395 Q0.94732, 0.457978 1.01387, 0.532065 " /><path d="M0.735, -6.12479e-14 C0.779263, 0.115645 0.828856, 0.241323 0.890868, 0.395 " /></g>

</svg>
