<svg xmlns="http://www.w3.org/2000/svg" viewBox="-6.006270799999999 -6.9598108 27.6712316 21.664571600000002">
<rect width="100%" height="100%" fill="white"/>
<g   fill="none"
   stroke="rgb(0, 0, 0)"
   stroke-linecap="butt"
   stroke-linejoin="miter"
   stroke-width="0.35"
   transform="scale(1, -1)"
  >
<path d="M2.01881 5.05145 A5.86749 5.86749 0 0 1 -3.36528 -4.27406" /><path id= "2" d=" M 0.758545 -4.10412 L 0.870853 -4.16896 " />
<path id= "3" d=" M 4.38256 1.1359 L 4.49486 1.07106 " />
<path id= "4" d=" M 1.65657 -4.6226 L 1.76888 -4.68744 " />
<path id= "5" d=" M 5.28059 0.617425 L 5.39289 0.552588 " />
<path id= "6" d=" M 2.5546 -5.14107 L 2.6669 -5.20591 " />
<path id= "7" d=" M 6.17862 0.0989482 L 6.29091 0.0341132 " />
<path id= "8" d=" M 3.45263 -5.65955 L 3.56493 -5.72439 " />
<path id= "9" d=" M 7.07664 -0.419529 L 7.18894 -0.484362 " />
<path id= "10" d=" M 4.35066 -6.17803 L 4.46295 -6.24286 " />
<path id= "11" d=" M 7.97467 -0.938005 L 8.08696 -1.00284 " />
<path id= "12" d=" M 5.24869 -6.6965 L 5.36098 -6.76134 " />
<path id= "13" d=" M 8.8727 -1.45648 L 8.98499 -1.52131 " />
<path id= "14" d=" M 6.14671 -7.21498 L 6.259 -7.27981 " />
<path id= "15" d=" M 9.77073 -1.97496 L 9.88302 -2.03979 " />
<path id= "16" d=" M 7.04474 -7.73346 L 7.15703 -7.79829 " />
<path id= "17" d=" M 10.6688 -2.49344 L 10.781 -2.55826 " />
<path id= "18" d=" M 7.94277 -8.25193 L 8.05505 -8.31676 " />
<path id= "19" d=" M 11.5668 -3.01191 L 11.6791 -3.07674 " />
<path id= "20" d=" M 8.8408 -8.77041 L 8.95308 -8.83524 " />
<path id= "21" d=" M 12.4648 -3.53039 L 12.5771 -3.59521 " />
<path id= "22" d=" M 9.73883 -9.28889 L 9.85111 -9.35371 " />
<path id= "23" d=" M 13.3628 -4.04887 L 13.4751 -4.11369 " />
<path id= "24" d=" M 10.6369 -9.80736 L 10.7491 -9.87219 " />
<path id= "25" d=" M 14.2609 -4.56734 L 14.3731 -4.63216 " />
<path id= "26" d=" M 11.5349 -10.3258 L 11.6472 -10.3907 " />
<path id= "27" d=" M 15.1589 -5.08582 L 15.2712 -5.15064 " />
<path id= "28" d=" M 12.4329 -10.8443 L 12.5452 -10.9091 " />
<path id= "29" d=" M 16.0569 -5.6043 L 16.1692 -5.66911 " />
<path id= "30" d=" M 13.3309 -11.3628 L 13.4432 -11.4276 " />
<path id= "31" d=" M 16.955 -6.12277 L 17.0672 -6.18759 " />
<path id= "32" d=" M 14.229 -11.8813 L 14.3412 -11.9461 " />
<path id= "33" d=" M 17.853 -6.64125 L 17.9652 -6.70606 " />
<path id= "34" d=" M 15.127 -12.3997 L 15.2393 -12.4646 " />
<path id= "35" d=" M 18.751 -7.15973 L 18.8633 -7.22454 " />
<path id= "36" d=" M 17.7505 -12.5646 L 17.5115 -12.7026 " />
</g>
<g   fill="none"
   stroke="rgb(0, 0, 0)"
   stroke-linecap="butt"
   stroke-linejoin="miter"
   stroke-width="0.35"
   transform="scale(1, -1)"
  >
<path d="M3.92437 2.26574 A5.5499 3.20424 60 0 1 2.01881 5.05145" />
<path d="M-3.36528 -4.27406 A5.5499 3.20424 60 0 1 3.92437 2.26574" />
<path d="M-4.09791 0.485687 A2.30282 1.32953 60 0 1 -2.46957 -0.454434" />
<path d="M-2.46957 -0.454434 A2.30282 1.32953 60 0 1 -0.841234 2.36593" />
<path d="M-0.841234 2.36593 A2.30282 1.32953 60 0 1 -4.09791 0.485687" />
<path d="M-1.65135, 3.50909 L-1.71748, 3.40319  L-1.78902, 3.30528  L-1.86639, 3.21476  L-1.95007, 3.13107  L-2.04059, 3.0537  L-2.1385, 2.98217  L-2.2444, 2.91604  L-2.35894, 2.8549  L-2.48284, 2.79837  L-2.61685, 2.74611  L-2.7618, 2.69779  L-2.91858, 2.65312  L-3.08816, 2.61183  L-3.27159, 2.57364 " /><path d="M-3.27159, 2.57364 L-3.27533, 2.37899  L-3.28658, 2.19532  L-3.30542, 2.02153  L-3.33194, 1.85652  L-3.36633, 1.69929  L-3.40879, 1.54888  L-3.45958, 1.40434  L-3.51901, 1.26479  L-3.58745, 1.12938  L-3.66533, 0.997263  L-3.75312, 0.867629  L-3.85137, 0.73968  L-3.96067, 0.612626  L-4.0817, 0.485687 " /><path d="M-4.0817, 0.485687 Q-4.02119, 0.424378 -3.96067, 0.363069  Q-3.90602, 0.30604 -3.85137, 0.24901  Q-3.80224, 0.195908 -3.75312, 0.142807  Q-3.70923, 0.0933055 -3.66533, 0.0438043  Q-3.62639, -0.00240132 -3.58745, -0.0486069  Q-3.55323, -0.0918016 -3.51901, -0.134996  Q-3.48929, -0.175446 -3.45958, -0.215896  Q-3.43418, -0.25385 -3.40879, -0.291804  Q-3.38756, -0.327497 -3.36633, -0.363189  Q-3.34914, -0.39684 -3.33194, -0.430491  Q-3.31868, -0.462307 -3.30542, -0.494123  Q-3.296, -0.524301 -3.28658, -0.554478  Q-3.27322, -0.612644 -3.27159, -0.666827 " /><path d="M-3.27159, -0.666827 C-2.88875, -0.592861 -2.59435, -0.501895 -2.35497, -0.383604 " /><path d="M-0.841244, 2.35935 L-0.845345, 2.41416  L-0.856902, 2.47153  L-0.875987, 2.53179  L-0.902717, 2.59532  L-0.937254, 2.66251  L-0.97981, 2.73377  L-1.03064, 2.80953  L-1.09007, 2.89025  L-1.15845, 2.97644  L-1.2362, 3.06861  L-1.3238, 3.16734  L-1.42178, 3.27322  L-1.53074, 3.38691  L-1.65135, 3.50909 " /><path id= "11" d=" M -3.27159 2.57364 L -1.73621 1.68719 " />
<path d="M-0.86292, 2.04756 C-1.10594, 1.9145 -1.38495, 1.79937 -1.73621, 1.68719 " /><path d="M-2.54632, -0.400766 L-2.50217, -0.450157 " /><path id= "14" d=" M -4.0817 0.485687 L -2.54632 -0.400766 " />
<path d="M-1.73621, 1.68719 Q-1.75047, 1.59702 -1.76474, 1.50684  Q-1.78072, 1.42099 -1.79671, 1.33514  Q-1.81452, 1.25309 -1.83232, 1.17104  Q-1.87065, 1.01193 -1.91538, 0.861586  Q-1.96202, 0.713282 -2.01594, 0.570856  Q-2.07205, 0.429691 -2.1365, 0.291671  Q-2.17084, 0.222959 -2.20519, 0.154247  Q-2.27817, 0.0172876 -2.36149, -0.120499  Q-2.44793, -0.258889 -2.54632, -0.400766 " /><path d="M3.40725, -0.281171 C3.31549, -0.787076 3.12675, -1.31277 2.86829, -1.79285  C2.46285, -2.55174 1.88275, -3.18584 1.31446, -3.51082 " /><path d="M3.85698, 1.39064 C4.15895, 1.09424 4.33798, 0.626902 4.36666, 0.0712864 " /><path d="M3.04077, -1.10901 C2.75536, -1.85251 2.28739, -2.5499 1.76969, -3.02284 " /><path d="M3.84921, 1.33973 C4.08839, 1.04446 4.22889, 0.623898 4.25435, 0.136127 " /><path d="M4.36666, 0.0712864 C4.40871, -0.66179 4.18114, -1.54457 3.76632, -2.31132  C3.50858, -2.79166 3.18193, -3.22518 2.83125, -3.55826  C2.59674, -3.78075 2.35952, -3.95479 2.11959, -4.0804  C1.64733, -4.32873 1.19638, -4.35909 0.870854, -4.16896 " /><path d="M4.49486, 1.07106 C4.95017, 0.812087 5.22966, 0.255383 5.26468, -0.447189 " /><path d="M4.25435, 0.136127 C4.28747, -0.459521 4.14615, -1.15378 3.86675, -1.80459  C3.64744, -2.31863 3.34443, -2.80383 3.0017, -3.19712  C2.70466, -3.53892 2.37857, -3.8113 2.05886, -3.98781  C1.56813, -4.261 1.09585, -4.30138 0.758545, -4.10412 " /><path d="M0.758545, -4.10412 L0.691559, -4.06129 " /><path d="M3.94831, 1.29103 Q4.18369, 1.25056 4.38256, 1.1359 " /><path d="M4.38256, 1.1359 C4.83786, 0.876927 5.11734, 0.320218 5.15238, -0.38235 " /><path d="M5.26468, -0.447189 C5.30674, -1.18026 5.07917, -2.06303 4.66435, -2.82979  C4.40661, -3.31013 4.07996, -3.74364 3.72929, -4.07672  C3.49479, -4.2992 3.25759, -4.47324 3.01766, -4.59884  C2.54538, -4.8472 2.09442, -4.87757 1.76888, -4.68744 " /><path d="M5.39289, 0.552588 C5.84819, 0.293612 6.12768, -0.263093 6.16271, -0.965664 " /><path d="M5.15238, -0.38235 C5.18546, -0.977428 5.04445, -1.67093 4.76558, -2.32119  C4.54656, -2.83507 4.24389, -3.32021 3.90145, -3.71362  C3.6051, -4.05501 3.27976, -4.32732 2.96063, -4.50422  C2.46857, -4.77924 1.99473, -4.82038 1.65657, -4.6226 " /><path d="M1.65657, -4.6226 Q1.45614, -4.50653 1.3237, -4.29188 " /><path d="M4.84633, 0.772549 Q5.08172, 0.73208 5.28059, 0.617425 " /><path d="M5.28059, 0.617425 C5.73589, 0.35845 6.01537, -0.19826 6.05041, -0.900827 " /><path d="M6.16271, -0.965664 C6.20476, -1.69874 5.97719, -2.5815 5.56238, -3.34825  C5.30464, -3.82859 4.97799, -4.26211 4.62732, -4.59519  C4.39284, -4.81766 4.15564, -4.99169 3.91573, -5.1173  C3.44343, -5.36568 2.99245, -5.39606 2.6669, -5.20591 " /><path d="M6.29091, 0.0341131 C6.74622, -0.224863 7.02571, -0.781569 7.06073, -1.48414 " /><path d="M6.05041, -0.900827 C6.08345, -1.49531 5.94276, -2.18803 5.66444, -2.83773  C5.44576, -3.35136 5.14349, -3.83638 4.8014, -4.22988  C4.50629, -4.57027 4.18233, -4.8422 3.86433, -5.01953  C3.37026, -5.29735 2.89406, -5.33964 2.5546, -5.14107 " /><path d="M2.5546, -5.14107 Q2.35417, -5.02501 2.22173, -4.81035 " /><path d="M5.74436, 0.254072 Q5.97974, 0.213604 6.17862, 0.0989482 " /><path d="M6.17862, 0.0989482 C6.63392, -0.160027 6.9134, -0.716736 6.94843, -1.4193 " /><path d="M7.06073, -1.48414 C7.10279, -2.21721 6.87522, -3.09997 6.46041, -3.86672  C6.20267, -4.34706 5.87602, -4.78058 5.52535, -5.11366  C5.29088, -5.33612 5.05369, -5.51015 4.81379, -5.63576  C4.34148, -5.88415 3.89048, -5.91453 3.56493, -5.72439 " /><path d="M7.18894, -0.484362 C7.64424, -0.743338 7.92373, -1.30004 7.95876, -2.00261 " /><path d="M6.94843, -1.4193 C6.98144, -2.01315 6.8411, -2.70501 6.56336, -3.3541  C6.34506, -3.86744 6.04324, -4.35232 5.70155, -4.74592  C5.40563, -5.08772 5.0806, -5.36069 4.76159, -5.53844  C4.26779, -5.81588 3.79191, -5.85801 3.45263, -5.65955 " /><path d="M3.45263, -5.65955 Q3.2522, -5.54348 3.11976, -5.32883 " /><path d="M6.64239, -0.264404 Q6.87777, -0.304872 7.07664, -0.419529 " /><path d="M7.07664, -0.419529 C7.53195, -0.678504 7.81143, -1.23521 7.84646, -1.93778 " /><path d="M7.95876, -2.00261 C8.00081, -2.73568 7.77325, -3.61844 7.35844, -4.38519  C7.1007, -4.86552 6.77406, -5.29904 6.42339, -5.63212  C6.18893, -5.85457 5.95176, -6.0286 5.71187, -6.1542  C5.23954, -6.40262 4.78852, -6.43302 4.46295, -6.24286 " /><path d="M8.08696, -1.00284 C8.54227, -1.26181 8.82176, -1.81852 8.85678, -2.52109 " /><path d="M7.84646, -1.93778 C7.87942, -2.53082 7.73952, -3.2216 7.46252, -3.86993  C7.24479, -4.38269 6.94369, -4.86718 6.60269, -5.2608  C6.30469, -5.60572 5.97701, -5.88084 5.65559, -6.05916  C5.16322, -6.33462 4.68902, -6.37593 4.35066, -6.17803 " /><path d="M4.35066, -6.17803 Q4.15023, -6.06196 4.01778, -5.8473 " /><path d="M7.54041, -0.78288 Q7.7758, -0.823349 7.97467, -0.938005 " /><path d="M7.97467, -0.938005 C8.42998, -1.19698 8.70945, -1.75369 8.74449, -2.45626 " /><path d="M8.85678, -2.52109 C8.89884, -3.25415 8.67127, -4.13691 8.25647, -4.90366  C7.99873, -5.38399 7.67209, -5.8175 7.32142, -6.15059  C7.08697, -6.37303 6.84981, -6.54705 6.60993, -6.67266  C6.13759, -6.92109 5.68655, -6.9515 5.36098, -6.76134 " /><path d="M8.98499, -1.52131 C9.44029, -1.78029 9.71978, -2.33699 9.75481, -3.03956 " /><path d="M8.74449, -2.45626 C8.7774, -3.04859 8.63789, -3.73843 8.36153, -4.38609  C8.14188, -4.90407 7.8371, -5.39328 7.49202, -5.7893  C7.19502, -6.13109 6.86898, -6.40349 6.5493, -6.58003  C6.05846, -6.85336 5.58606, -6.89381 5.24869, -6.6965 " /><path d="M5.24869, -6.6965 Q5.04825, -6.58044 4.91581, -6.36578 " /><path d="M8.43844, -1.30136 Q8.67382, -1.34182 8.8727, -1.45648 " /><path d="M8.8727, -1.45648 C9.328, -1.71546 9.60748, -2.27217 9.64252, -2.97473 " /><path d="M9.75481, -3.03956 C9.79686, -3.77262 9.5693, -4.65537 9.15451, -5.42211  C8.89677, -5.90245 8.57013, -6.33596 8.21947, -6.66905  C7.98504, -6.89147 7.7479, -7.06548 7.50805, -7.19109  C7.03567, -7.43957 6.5846, -7.46999 6.259, -7.27981 " /><path d="M9.88302, -2.03979 C10.3383, -2.29876 10.6178, -2.85547 10.6528, -3.55804 " /><path d="M9.64252, -2.97473 C9.67537, -3.56606 9.5364, -4.25456 9.26096, -4.90126  C9.04242, -5.41754 8.73929, -5.90544 8.39585, -6.3011  C8.10047, -6.64232 7.77608, -6.91497 7.45762, -7.09278  C6.96313, -7.37118 6.48643, -7.41371 6.14671, -7.21498 " /><path d="M6.14671, -7.21498 Q5.94628, -7.09891 5.81384, -6.88425 " /><path d="M9.33647, -1.81983 Q9.57185, -1.8603 9.77073, -1.97496 " /><path d="M9.77073, -1.97496 C10.226, -2.23393 10.5055, -2.79064 10.5405, -3.49321 " /><path d="M10.6528, -3.55804 C10.6949, -4.2911 10.4673, -5.17384 10.0525, -5.94058  C9.7948, -6.42091 9.46816, -6.85443 9.1175, -7.18752  C8.88309, -7.40993 8.64596, -7.58393 8.40612, -7.70954  C7.93373, -7.95804 7.48263, -7.98847 7.15703, -7.79829 " /><path d="M10.781, -2.55826 C11.2363, -2.81724 11.5158, -3.37394 11.5509, -4.07651 " /><path d="M10.5405, -3.49321 C10.5734, -4.08398 10.4347, -4.77174 10.1598, -5.41792  C9.94205, -5.93276 9.64021, -6.41947 9.29808, -6.81472  C8.99844, -7.16184 8.66872, -7.43838 8.3455, -7.6169  C7.85461, -7.89031 7.38215, -7.93078 7.04474, -7.73346 " /><path d="M7.04474, -7.73346 Q6.84431, -7.61739 6.71186, -7.40273 " /><path d="M10.2345, -2.33831 Q10.4699, -2.37878 10.6688, -2.49344 " /><path d="M10.6688, -2.49344 C11.1241, -2.75241 11.4035, -3.30912 11.4386, -4.01169 " /><path d="M11.5509, -4.07651 C11.5929, -4.80957 11.3654, -5.69231 10.9506, -6.45905  C10.6928, -6.93938 10.3662, -7.37289 10.0155, -7.70598  C9.78114, -7.92838 9.54403, -8.10238 9.3042, -8.22798  C8.83179, -8.47651 8.38067, -8.50695 8.05506, -8.31676 " /><path d="M11.6791, -3.07674 C12.1344, -3.33571 12.4139, -3.89242 12.4489, -4.59499 " /><path d="M11.4386, -4.01169 C11.4713, -4.60128 11.3333, -5.28746 11.0594, -5.93251  C10.8415, -6.44904 10.5388, -6.93743 10.1956, -7.33378  C9.89619, -7.68053 9.56678, -7.95679 9.24383, -8.13521  C8.75284, -8.40877 8.28025, -8.4493 7.94277, -8.25193 " /><path d="M7.94277, -8.25193 Q7.74234, -8.13587 7.60989, -7.9212 " /><path d="M11.1325, -2.85679 Q11.3679, -2.89725 11.5668, -3.01191 " /><path d="M11.5668, -3.01191 C12.0221, -3.27089 12.3016, -3.8276 12.3366, -4.53016 " /><path d="M12.4489, -4.59499 C12.4909, -5.32804 12.2634, -6.21078 11.8486, -6.97752  C11.5909, -7.45785 11.2642, -7.89136 10.9136, -8.22445  C10.6792, -8.44684 10.4421, -8.62084 10.2023, -8.74644  C9.72983, -8.99498 9.27872, -9.02543 8.95308, -8.83524 " /><path d="M12.5771, -3.59521 C13.0324, -3.85419 13.3119, -4.41089 13.3469, -5.11346 " /><path d="M12.3366, -4.53016 C12.3692, -5.11741 12.2324, -5.80049 11.9607, -6.4433  C11.7421, -6.96374 11.4373, -7.45599 11.0915, -7.85475  C10.795, -8.19761 10.4692, -8.47138 10.1494, -8.64948  C9.65576, -8.92676 9.18, -8.96883 8.8408, -8.77041 " /><path d="M8.8408, -8.77041 Q8.64036, -8.65434 8.50792, -8.43968 " /><path d="M12.0305, -3.37526 Q12.2659, -3.41573 12.4648, -3.53039 " /><path d="M12.4648, -3.53039 C12.9201, -3.78936 13.1996, -4.34608 13.2346, -5.04864 " /><path d="M13.3469, -5.11346 C13.389, -5.84651 13.1614, -6.72925 12.7466, -7.49599  C12.4889, -7.97632 12.1623, -8.40983 11.8116, -8.74292  C11.5772, -8.96531 11.3401, -9.13931 11.1003, -9.26491  C10.6279, -9.51346 10.1767, -9.54391 9.85111, -9.35371 " /><path d="M13.4751, -4.11369 C13.9304, -4.37266 14.2099, -4.92937 14.2449, -5.63194 " /><path d="M13.2346, -5.04864 C13.2675, -5.63999 13.1285, -6.32853 12.853, -6.97526  C12.6356, -7.489 12.3343, -7.97465 11.9929, -8.36925  C11.6966, -8.71267 11.3709, -8.98712 11.0511, -9.16594  C10.5561, -9.445 10.0789, -9.4878 9.73883, -9.28889 " /><path d="M9.73883, -9.28889 Q9.53839, -9.17282 9.40595, -8.95815 " /><path d="M12.9286, -3.89374 Q13.164, -3.93421 13.3628, -4.04887 " /><path d="M13.3628, -4.04887 C13.8181, -4.30784 14.0976, -4.86455 14.1327, -5.56712 " /><path d="M14.2449, -5.63194 C14.287, -6.36499 14.0594, -7.24772 13.6447, -8.01445  C13.3869, -8.49478 13.0603, -8.92829 12.7096, -9.26138  C12.4753, -9.48375 12.2382, -9.65774 11.9984, -9.78335  C11.5259, -10.0319 11.0748, -10.0624 10.7491, -9.87219 " /><path d="M14.3731, -4.63216 C14.8284, -4.89114 15.1079, -5.44785 15.143, -6.15041 " /><path d="M14.1327, -5.56712 C14.1657, -6.16188 14.0249, -6.85496 13.7463, -7.50492  C13.5275, -8.01867 13.225, -8.50375 12.8827, -8.89722  C12.587, -9.23814 12.2623, -9.51028 11.9437, -9.68741  C11.4507, -9.96383 10.9757, -10.0055 10.6369, -9.80736 " /><path d="M10.6369, -9.80736 Q10.4364, -9.69129 10.304, -9.47663 " /><path d="M13.8266, -4.41222 Q14.062, -4.45268 14.2609, -4.56734 " /><path d="M14.2609, -4.56734 C14.7162, -4.82632 14.9957, -5.38303 15.0307, -6.08559 " /><path d="M15.143, -6.15041 C15.185, -6.88346 14.9575, -7.76618 14.5427, -8.53291  C14.285, -9.01324 13.9583, -9.44675 13.6077, -9.77985  C13.3733, -10.0022 13.1363, -10.1762 12.8965, -10.3018  C12.424, -10.5504 11.9728, -10.5809 11.6472, -10.3907 " /><path d="M15.2712, -5.15064 C15.7265, -5.40961 16.006, -5.96632 16.041, -6.66889 " /><path d="M15.0307, -6.08559 C15.0637, -6.67919 14.9235, -7.37071 14.646, -8.01957  C14.4278, -8.53279 14.1262, -9.01761 13.7846, -9.41125  C13.487, -9.75519 13.1599, -10.0295 12.8391, -10.2074  C12.347, -10.4825 11.8731, -10.5236 11.5349, -10.3258 " /><path d="M11.5349, -10.3258 Q11.3344, -10.2098 11.202, -9.9951 " /><path d="M14.7246, -4.93069 Q14.96, -4.97116 15.1589, -5.08582 " /><path d="M15.1589, -5.08582 C15.6142, -5.34479 15.8937, -5.9015 15.9287, -6.60407 " /><path d="M16.041, -6.66889 C16.083, -7.40193 15.8555, -8.28465 15.4407, -9.05138  C15.183, -9.53171 14.8564, -9.96522 14.5057, -10.2983  C14.267, -10.5248 14.0255, -10.7011 13.7814, -10.827  C13.3137, -11.0695 12.8678, -11.0975 12.5452, -10.9091 " /><path d="M16.1692, -5.66911 C16.6245, -5.92809 16.904, -6.48479 16.939, -7.18737 " /><path d="M15.9287, -6.60407 C15.9615, -7.19432 15.8231, -7.88138 15.5487, -8.52705  C15.3292, -9.04652 15.0241, -9.53739 14.6783, -9.93473  C14.3823, -10.2759 14.0573, -10.5481 13.7384, -10.7251  C13.2458, -11.0009 12.7714, -11.0423 12.4329, -10.8443 " /><path d="M12.4329, -10.8443 Q12.2325, -10.7282 12.1, -10.5136 " /><path d="M15.6227, -5.44917 Q15.858, -5.48964 16.0569, -5.6043 " /><path d="M16.0569, -5.6043 C16.5122, -5.86327 16.7917, -6.41999 16.8267, -7.12255 " /><path d="M16.939, -7.18737 C16.9811, -7.9204 16.7535, -8.80312 16.3387, -9.56984  C16.081, -10.0502 15.7544, -10.4837 15.4037, -10.8168  C15.1694, -11.0391 14.9324, -11.2131 14.6926, -11.3387  C14.2201, -11.5873 13.7689, -11.6178 13.4432, -11.4276 " /><path d="M17.0672, -6.18759 C17.5225, -6.44656 17.802, -7.00327 17.837, -7.70584 " /><path d="M16.8267, -7.12255 C16.8594, -7.71148 16.7218, -8.3968 16.4485, -9.04123  C16.2298, -9.56012 15.9256, -10.0507 15.5806, -10.4483  C15.2828, -10.7925 14.9554, -11.067 14.6343, -11.2448  C14.1425, -11.5195 13.6689, -11.5605 13.3309, -11.3628 " /><path d="M13.3309, -11.3628 Q13.1305, -11.2467 12.9981, -11.0321 " /><path d="M16.5207, -5.96764 Q16.7561, -6.00811 16.955, -6.12277 " /><path d="M16.955, -6.12277 C17.4103, -6.38175 17.6897, -6.93846 17.7248, -7.64102 " /><path d="M17.837, -7.70584 C17.8791, -8.43888 17.6515, -9.32161 17.2368, -10.0883  C16.979, -10.5687 16.6524, -11.0022 16.3018, -11.3353  C16.0674, -11.5576 15.8304, -11.7316 15.5906, -11.8572  C15.1181, -12.1058 14.6669, -12.1363 14.3412, -11.9461 " /><path d="M17.9652, -6.70606 C18.4205, -6.96504 18.7, -7.52174 18.7351, -8.22432 " /><path d="M17.7248, -7.64102 C17.7578, -8.23555 17.6171, -8.92833 17.3387, -9.57807  C17.12, -10.0917 16.8177, -10.5768 16.4756, -10.9703  C16.1804, -11.3108 15.8563, -11.5827 15.5381, -11.76  C15.0443, -12.0376 14.5683, -12.0798 14.229, -11.8813 " /><path d="M14.229, -11.8813 Q14.0285, -11.7652 13.8961, -11.5505 " /><path d="M17.4187, -6.48612 Q17.6541, -6.52659 17.853, -6.64125 " /><path d="M17.853, -6.64125 C18.3083, -6.90022 18.5878, -7.45693 18.6228, -8.1595 " /><path d="M18.7351, -8.22432 C18.7771, -8.95734 18.5496, -9.84005 18.1348, -10.6068  C17.8771, -11.0871 17.5505, -11.5206 17.1998, -11.8537  C16.9655, -12.076 16.7285, -12.25 16.4888, -12.3756  C16.0162, -12.6243 15.565, -12.6548 15.2393, -12.4646 " /><path d="M18.8633, -7.22454 C19.3186, -7.48351 19.5981, -8.04022 19.6331, -8.74279 " /><path d="M18.6228, -8.1595 C18.6555, -8.74866 18.5177, -9.43427 18.2443, -10.0789  C18.025, -10.5991 17.7197, -11.0907 17.3737, -11.4887  C17.0784, -11.8292 16.7543, -12.1012 16.4362, -12.2785  C15.9423, -12.5561 15.4663, -12.5982 15.127, -12.3997 " /><path d="M15.127, -12.3997 Q14.9266, -12.2837 14.7941, -12.069 " /><path d="M18.3167, -7.0046 Q18.5521, -7.04506 18.751, -7.15973 " /><path d="M18.751, -7.15973 C19.2063, -7.4187 19.4858, -7.97541 19.5208, -8.67798 " /><path d="M17.3353 -12.7964 A3.175 1.83309 60 0 1 17.5115 -12.7026" />
<path d="M17.5115 -12.7026 A3.175 1.83309 60 0 1 18.9695 -11.2397" />
<path d="M19.6331, -8.74279 C19.6777, -9.51263 19.4232, -10.4475 18.9695, -11.2397 " /><path d="M19.5208, -8.67798 C19.5537, -9.26987 19.4144, -9.95912 19.1385, -10.6064  C18.7339, -11.5708 18.0254, -12.4173 17.3353, -12.7964 " /><path d="M19.7566, -9.29891 C19.7567, -9.00333 19.7072, -8.73319 19.6113, -8.50878 " /><path d="M15.7961, -12.5857 C16.1108, -13.0275 16.6998, -13.1077 17.3353, -12.7964 " /><path id= "128" d=" M 19.7566 -9.29891 L 19.7566 -9.33256 " />
<path d="M18.9695, -11.2397 C18.611, -11.8506 18.1611, -12.3296 17.7505, -12.5646 " /><path d="M18.4749, -11.9365 C18.7399, -11.6865 18.9848, -11.3763 19.1842, -11.0487  C19.3203, -10.8268 19.4357, -10.5935 19.5278, -10.3867 " /><path d="M19.7566, -9.29891 Q19.7562, -9.65553 19.6645, -10.0411 " /><path d="M19.6645, -10.0411 Q19.6048, -10.2152 19.5278, -10.3867 " /><path d="M19.6645 -10.0411 A2.54 1.46647 60 0 1 19.7566 -9.33256" />
</g>

</svg>
