<svg xmlns="http://www.w3.org/2000/svg" viewBox="-5.8039000000000005 -7.8613 33.515299999999996 15.7226">
<rect width="100%" height="100%" fill="white"/>
<g   fill="none"
   stroke="rgb(0, 0, 0)"
   stroke-linecap="butt"
   stroke-linejoin="miter"
   stroke-width="0.35"
   transform="scale(1, -1)"
  >
<path d="M-3.4925 -2.30282 A5.86749 5.86749 0 0 1 -3.79696e-14 -5.5499" /><path d="M0.254, -3.175 C0.185041, -3.17599 0.125645, -3.20032 0.075811, -3.24799  C0.0276828, -3.29497 -0.000280113, -3.36174 0, -3.429 " /><path id= "3" d=" M 0.254 -3.175 L 1.09538 -3.175 " />
<path d="M1.15066, 2.46688 Q1.14312, 2.45146 1.11474, 2.42822  Q1.07288, 2.39713 1.01606, 2.39601 " /><path d="M1.55065, 3.15582 L1.15066, 2.46688 " /><path id= "6" d=" M 2.20656 -3.175 L 2.36538 -3.175 " />
<path d="M0.885564, 2.46339 L0.482582, 3.15588 " /><path d="M1.52057, -2.46338 L1.11758, -3.15588 " /><path d="M1.78155, -2.46339 Q1.77534, -2.44993 1.74659, -2.42658  Q1.70608, -2.3971 1.65103, -2.396  Q1.59186, -2.39748 1.55045, -2.43041  Q1.52602, -2.45176 1.52057, -2.46338 " /><path d="M2.41655, 2.46339 Q2.41033, 2.44993 2.38159, 2.42658  Q2.34108, 2.39711 2.28605, 2.396 " /><path d="M1.01605, 2.39601 Q0.956881, 2.39748 0.915468, 2.43041  Q0.891023, 2.45176 0.885564, 2.46339 " /><path d="M2.18436, -3.15586 L1.78155, -2.46339 " /><path d="M2.81935, 3.15586 L2.41655, 2.46339 " /><path id= "14" d=" M 3.47656 -3.175 L 3.63538 -3.175 " />
<path d="M2.15556, 2.46338 L1.75258, 3.15588 " /><path d="M2.79056, -2.46337 L2.38758, -3.15588 " /><path d="M3.05154, -2.46338 Q3.04533, -2.44993 3.01659, -2.42657  Q2.97607, -2.3971 2.92103, -2.396  Q2.86186, -2.39748 2.82045, -2.43041  Q2.79602, -2.45176 2.79056, -2.46337 " /><path d="M3.68654, 2.46339 Q3.68033, 2.44993 3.65158, 2.42658  Q3.61108, 2.39711 3.55605, 2.396 " /><path d="M2.28605, 2.396 Q2.22688, 2.39748 2.18547, 2.4304  Q2.16102, 2.45176 2.15556, 2.46338 " /><path d="M3.45436, -3.15586 L3.05154, -2.46338 " /><path d="M4.08935, 3.15586 L3.68654, 2.46339 " /><path id= "22" d=" M 4.74657 -3.175 L 4.90538 -3.175 " />
<path d="M3.42556, 2.46338 L3.02258, 3.15588 " /><path d="M4.06056, -2.46337 L3.65758, -3.15588 " /><path d="M4.32154, -2.46338 Q4.31533, -2.44992 4.28658, -2.42657  Q4.24607, -2.39709 4.19102, -2.39599  Q4.13185, -2.39748 4.09045, -2.4304  Q4.06601, -2.45175 4.06056, -2.46337 " /><path d="M4.95654, 2.46338 Q4.95033, 2.44992 4.92158, 2.42657  Q4.88108, 2.3971 4.82604, 2.396 " /><path d="M3.55605, 2.396 Q3.49688, 2.39748 3.45546, 2.4304  Q3.43102, 2.45175 3.42556, 2.46338 " /><path d="M4.72436, -3.15587 L4.32154, -2.46338 " /><path d="M5.35936, 3.15586 L4.95654, 2.46338 " /><path id= "30" d=" M 6.01657 -3.175 L 6.17538 -3.175 " />
<path d="M4.69556, 2.46338 L4.29258, 3.15588 " /><path d="M5.33056, -2.46337 L4.92758, -3.15588 " /><path d="M5.59154, -2.46337 Q5.58533, -2.44992 5.55658, -2.42656  Q5.51607, -2.39709 5.46102, -2.39599  Q5.40185, -2.39748 5.36044, -2.4304  Q5.33601, -2.45175 5.33056, -2.46337 " /><path d="M6.22654, 2.46338 Q6.22032, 2.44992 6.19158, 2.42657  Q6.15107, 2.3971 6.09604, 2.39599 " /><path d="M4.82604, 2.396 Q4.76687, 2.39747 4.72546, 2.4304  Q4.70101, 2.45175 4.69556, 2.46338 " /><path d="M5.99437, -3.15587 L5.59154, -2.46337 " /><path d="M6.62936, 3.15586 L6.22654, 2.46338 " /><path id= "38" d=" M 7.28657 -3.175 L 7.44538 -3.175 " />
<path d="M5.96555, 2.46337 L5.56258, 3.15588 " /><path d="M6.60055, -2.46336 L6.19758, -3.15588 " /><path d="M6.86153, -2.46337 Q6.85532, -2.44991 6.82658, -2.42656  Q6.78606, -2.39708 6.73102, -2.39599  Q6.67185, -2.39747 6.63044, -2.4304  Q6.60601, -2.45175 6.60055, -2.46336 " /><path d="M7.49653, 2.46338 Q7.49032, 2.44992 7.46157, 2.42656  Q7.42107, 2.39709 7.36604, 2.39599 " /><path d="M6.09604, 2.39599 Q6.03687, 2.39747 5.99546, 2.43039  Q5.97101, 2.45175 5.96555, 2.46337 " /><path d="M7.26437, -3.15587 L6.86153, -2.46337 " /><path d="M7.89936, 3.15586 L7.49653, 2.46338 " /><path id= "46" d=" M 8.55658 -3.175 L 8.71538 -3.175 " />
<path d="M7.23555, 2.46337 L6.83258, 3.15588 " /><path d="M7.87055, -2.46336 L7.46758, -3.15588 " /><path d="M8.13153, -2.46337 Q8.12532, -2.44991 8.09657, -2.42656  Q8.05606, -2.39708 8.00101, -2.39598  Q7.94184, -2.39747 7.90044, -2.4304  Q7.87601, -2.45174 7.87055, -2.46336 " /><path d="M8.76653, 2.46337 Q8.76032, 2.44991 8.73157, 2.42656  Q8.69107, 2.39709 8.63603, 2.39599 " /><path d="M7.36604, 2.39599 Q7.30687, 2.39747 7.26545, 2.43039  Q7.24101, 2.45174 7.23555, 2.46337 " /><path d="M8.53438, -3.15587 L8.13153, -2.46337 " /><path d="M9.16937, 3.15586 L8.76653, 2.46337 " /><path id= "54" d=" M 9.82658 -3.175 L 9.98538 -3.175 " />
<path d="M8.50555, 2.46337 L8.10258, 3.15588 " /><path d="M9.14055, -2.46336 L8.73758, -3.15588 " /><path d="M9.40153, -2.46336 Q9.39532, -2.4499 9.36657, -2.42655  Q9.32606, -2.39708 9.27101, -2.39598  Q9.21184, -2.39747 9.17043, -2.43039  Q9.146, -2.45174 9.14055, -2.46336 " /><path d="M10.0365, 2.46337 Q10.0303, 2.44991 10.0016, 2.42656  Q9.96106, 2.39709 9.90603, 2.39598 " /><path d="M8.63603, 2.39599 Q8.57686, 2.39746 8.53545, 2.43039  Q8.511, 2.45174 8.50555, 2.46337 " /><path d="M9.80438, -3.15587 L9.40153, -2.46336 " /><path d="M10.4394, 3.15586 L10.0365, 2.46337 " /><path id= "62" d=" M 11.0966 -3.175 L 11.2554 -3.175 " />
<path d="M9.77554, 2.46336 L9.37258, 3.15587 " /><path d="M10.4105, -2.46335 L10.0076, -3.15588 " /><path d="M10.6715, -2.46336 Q10.6653, -2.4499 10.6366, -2.42655  Q10.5961, -2.39707 10.541, -2.39598  Q10.4818, -2.39746 10.4404, -2.43039  Q10.416, -2.45174 10.4105, -2.46335 " /><path d="M11.3065, 2.46336 Q11.3003, 2.4499 11.2716, 2.42655  Q11.2311, 2.39708 11.176, 2.39598 " /><path d="M9.90603, 2.39598 Q9.84686, 2.39746 9.80545, 2.43038  Q9.781, 2.45174 9.77554, 2.46336 " /><path d="M11.0744, -3.15587 L10.6715, -2.46336 " /><path d="M11.7094, 3.15586 L11.3065, 2.46336 " /><path id= "70" d=" M 12.3666 -3.175 L 12.5254 -3.175 " />
<path d="M11.0455, 2.46336 L10.6426, 3.15587 " /><path d="M11.6805, -2.46335 L11.2776, -3.15588 " /><path d="M11.9415, -2.46336 Q11.9353, -2.4499 11.9066, -2.42654  Q11.866, -2.39707 11.811, -2.39597  Q11.7518, -2.39746 11.7104, -2.43039  Q11.686, -2.45173 11.6805, -2.46335 " /><path d="M12.5765, 2.46336 Q12.5703, 2.4499 12.5416, 2.42655  Q12.5011, 2.39708 12.446, 2.39598 " /><path d="M11.176, 2.39598 Q11.1169, 2.39746 11.0754, 2.43038  Q11.051, 2.45174 11.0455, 2.46336 " /><path d="M12.3444, -3.15587 L11.9415, -2.46336 " /><path d="M12.9794, 3.15586 L12.5765, 2.46336 " /><path id= "78" d=" M 13.6366 -3.175 L 13.7954 -3.175 " />
<path d="M12.3155, 2.46336 L11.9126, 3.15587 " /><path d="M12.9505, -2.46335 L12.5476, -3.15588 " /><path d="M13.2115, -2.46335 Q13.2053, -2.44989 13.1766, -2.42654  Q13.136, -2.39707 13.081, -2.39597  Q13.0218, -2.39746 12.9804, -2.43038  Q12.956, -2.45173 12.9505, -2.46335 " /><path d="M13.8465, 2.46336 Q13.8403, 2.4499 13.8116, 2.42654  Q13.7711, 2.39708 13.716, 2.39597 " /><path d="M12.446, 2.39598 Q12.3869, 2.39745 12.3454, 2.43038  Q12.321, 2.45173 12.3155, 2.46336 " /><path d="M13.6144, -3.15587 L13.2115, -2.46335 " /><path d="M14.2494, 3.15586 L13.8465, 2.46336 " /><path id= "86" d=" M 14.9066 -3.175 L 15.0654 -3.175 " />
<path d="M13.5855, 2.46335 L13.1826, 3.15587 " /><path d="M14.2205, -2.46334 L13.8176, -3.15588 " /><path d="M14.4815, -2.46335 Q14.4753, -2.44989 14.4466, -2.42654  Q14.406, -2.39706 14.351, -2.39597  Q14.2918, -2.39745 14.2504, -2.43038  Q14.226, -2.45173 14.2205, -2.46334 " /><path d="M15.1165, 2.46335 Q15.1103, 2.44989 15.0816, 2.42654  Q15.041, 2.39707 14.986, 2.39597 " /><path d="M13.716, 2.39597 Q13.6569, 2.39745 13.6154, 2.43037  Q13.591, 2.45173 13.5855, 2.46335 " /><path d="M14.8844, -3.15587 L14.4815, -2.46335 " /><path d="M15.5194, 3.15586 L15.1165, 2.46335 " /><path id= "94" d=" M 16.1766 -3.175 L 16.3354 -3.175 " />
<path d="M14.8555, 2.46335 L14.4526, 3.15587 " /><path d="M15.4905, -2.46334 L15.0876, -3.15588 " /><path d="M15.7515, -2.46334 Q15.7453, -2.44988 15.7166, -2.42653  Q15.676, -2.39706 15.621, -2.39596  Q15.5618, -2.39745 15.5204, -2.43038  Q15.496, -2.45173 15.4905, -2.46334 " /><path d="M16.3865, 2.46335 Q16.3803, 2.44989 16.3516, 2.42654  Q16.311, 2.39707 16.256, 2.39597 " /><path d="M14.986, 2.39597 Q14.9268, 2.39745 14.8854, 2.43037  Q14.861, 2.45173 14.8555, 2.46335 " /><path d="M16.1544, -3.15587 L15.7515, -2.46334 " /><path d="M16.7894, 3.15586 L16.3865, 2.46335 " /><path id= "102" d=" M 17.4466 -3.175 L 17.6054 -3.175 " />
<path d="M16.1255, 2.46335 L15.7226, 3.15587 " /><path d="M16.7605, -2.46334 L16.3576, -3.15587 " /><path d="M17.0215, -2.46334 Q17.0153, -2.44988 16.9866, -2.42653  Q16.946, -2.39705 16.891, -2.39596  Q16.8318, -2.39745 16.7904, -2.43037  Q16.766, -2.45172 16.7605, -2.46334 " /><path d="M17.6565, 2.46335 Q17.6503, 2.44988 17.6215, 2.42653  Q17.581, 2.39707 17.526, 2.39596 " /><path d="M16.256, 2.39597 Q16.1968, 2.39744 16.1554, 2.43037  Q16.131, 2.45172 16.1255, 2.46335 " /><path d="M17.4244, -3.15587 L17.0215, -2.46334 " /><path d="M18.0594, 3.15586 L17.6565, 2.46335 " /><path id= "110" d=" M 18.7166 -3.175 L 18.8754 -3.175 " />
<path d="M17.3955, 2.46334 L16.9926, 3.15587 " /><path d="M18.0305, -2.46333 L17.6276, -3.15587 " /><path d="M18.2915, -2.46334 Q18.2853, -2.44988 18.2565, -2.42653  Q18.216, -2.39705 18.161, -2.39596  Q18.1018, -2.39744 18.0604, -2.43037  Q18.036, -2.45172 18.0305, -2.46333 " /><path d="M18.9265, 2.46334 Q18.9203, 2.44988 18.8915, 2.42653  Q18.851, 2.39706 18.796, 2.39596 " /><path d="M17.526, 2.39596 Q17.4668, 2.39744 17.4254, 2.43036  Q17.401, 2.45172 17.3955, 2.46334 " /><path d="M18.6944, -3.15587 L18.2915, -2.46334 " /><path d="M19.3294, 3.15586 L18.9265, 2.46334 " /><path id= "118" d=" M 19.9866 -3.175 L 20.1454 -3.175 " />
<path d="M18.6655, 2.46334 L18.2626, 3.15587 " /><path d="M19.3005, -2.46333 L18.8976, -3.15587 " /><path d="M19.5615, -2.46333 Q19.5553, -2.44987 19.5265, -2.42652  Q19.486, -2.39705 19.431, -2.39595  Q19.3718, -2.39744 19.3304, -2.43037  Q19.306, -2.45172 19.3005, -2.46333 " /><path d="M20.1965, 2.46334 Q20.1903, 2.44987 20.1615, 2.42652  Q20.121, 2.39706 20.066, 2.39596 " /><path d="M18.796, 2.39596 Q18.7368, 2.39744 18.6954, 2.43036  Q18.671, 2.45172 18.6655, 2.46334 " /><path d="M19.9644, -3.15587 L19.5615, -2.46333 " /><path d="M20.5994, 3.15586 L20.1965, 2.46334 " /><path id= "126" d=" M 21.2566 -3.175 L 21.4154 -3.175 " />
<path d="M19.9355, 2.46334 L19.5326, 3.15587 " /><path d="M20.5705, -2.46333 L20.1676, -3.15587 " /><path d="M20.8315, -2.46333 Q20.8253, -2.44987 20.7965, -2.42652  Q20.756, -2.39704 20.701, -2.39595  Q20.6418, -2.39744 20.6004, -2.43036  Q20.576, -2.45171 20.5705, -2.46333 " /><path d="M21.4665, 2.46333 Q21.4603, 2.44987 21.4315, 2.42652  Q21.391, 2.39706 21.336, 2.39595 " /><path d="M20.066, 2.39596 Q20.0068, 2.39743 19.9654, 2.43036  Q19.941, 2.45171 19.9355, 2.46334 " /><path d="M21.2344, -3.15587 L20.8315, -2.46333 " /><path d="M21.8694, 3.15586 L21.4665, 2.46333 " /><path id= "134" d=" M 22.5266 -3.175 L 22.6854 -3.175 " />
<path d="M21.2055, 2.46333 L20.8026, 3.15587 " /><path d="M21.8405, -2.46332 L21.4376, -3.15587 " /><path d="M22.1015, -2.46333 Q22.0953, -2.44986 22.0665, -2.42651  Q22.026, -2.39704 21.971, -2.39595  Q21.9118, -2.39743 21.8704, -2.43036  Q21.846, -2.45171 21.8405, -2.46332 " /><path d="M22.7365, 2.46333 Q22.7303, 2.44987 22.7015, 2.42652  Q22.661, 2.39705 22.606, 2.39595 " /><path d="M21.336, 2.39595 Q21.2768, 2.39743 21.2354, 2.43035  Q21.211, 2.45171 21.2055, 2.46333 " /><path d="M22.5044, -3.15587 L22.1015, -2.46333 " /><path d="M23.1394, 3.15586 L22.7365, 2.46333 " /><path id= "142" d=" M 23.7966 -3.175 L 23.9554 -3.175 " />
<path d="M22.4755, 2.46333 L22.0726, 3.15587 " /><path d="M23.1105, -2.46332 L22.7076, -3.15587 " /><path d="M23.3715, -2.46332 Q23.3653, -2.44986 23.3365, -2.42651  Q23.296, -2.39704 23.241, -2.39594  Q23.1818, -2.39743 23.1404, -2.43036  Q23.116, -2.45171 23.1105, -2.46332 " /><path d="M24.0065, 2.46333 Q24.0003, 2.44986 23.9715, 2.42651  Q23.931, 2.39705 23.876, 2.39594 " /><path d="M22.606, 2.39595 Q22.5468, 2.39743 22.5054, 2.43035  Q22.481, 2.45171 22.4755, 2.46333 " /><path d="M23.7744, -3.15587 L23.3715, -2.46332 " /><path d="M24.4094, 3.15586 L24.0065, 2.46333 " /><path d="M23.7455, 2.46333 L23.3426, 3.15587 " /><path d="M24.3805, -2.46332 L23.9776, -3.15587 " /><path d="M24.6415, -2.46332 Q24.6353, -2.44986 24.6065, -2.42651  Q24.566, -2.39703 24.511, -2.39594  Q24.4518, -2.39743 24.4104, -2.43036  Q24.386, -2.45171 24.3805, -2.46332 " /><path d="M25.2765, 2.46332 Q25.2703, 2.44986 25.2415, 2.42651  Q25.201, 2.39704 25.146, 2.39594 " /><path d="M23.876, 2.39594 Q23.8168, 2.39742 23.7754, 2.43035  Q23.751, 2.4517 23.7455, 2.46333 " /><path d="M24.6415, -2.46332 L24.9413, -2.97844 " /><path d="M25.2765, 2.46332 L25.3416, 2.5751 " /><path id= "157" d=" M 25.4 -2.54 L 24.9562 -2.98378 " />
<path d="M25.0155, 2.46332 L24.6126, 3.15587 " /><path d="M25.146, 2.39594 Q25.0868, 2.39742 25.0454, 2.43034  Q25.021, 2.4517 25.0155, 2.46332 " /></g>
<g   fill="none"
   stroke="rgb(0, 0, 0)"
   stroke-linecap="butt"
   stroke-linejoin="miter"
   stroke-width="0.35"
   transform="scale(1, -1)"
  >
<path d="M-5.55112e-16, -5.5499 L-5.55112e-16, -5.41075  L-5.55112e-16, -5.00029  L-5.55112e-16, -4.33909  L-5.55112e-16, -3.46031  L-5.55112e-16, -2.40801  L-5.55112e-16, -1.23497  L-5.55112e-16, -1.11022e-15  L-5.55112e-16, 1.23497  L-5.55112e-16, 2.40801  L-5.55112e-16, 3.46031  L-5.55112e-16, 4.33909  L-5.55112e-16, 5.00029  L-5.55112e-16, 5.41075  L-5.55112e-16, 5.5499 " /><path d="M-3.4925 2.30282 A5.86749 5.86749 0 0 0 -3.95239e-14 5.5499" /><path d="M-3.4925, -2.30282 L-3.4925, -2.24508  L-3.4925, -2.07477  L-3.4925, -1.80041  L-3.4925, -1.43578  L-3.4925, -0.999154  L-3.4925, -0.512425  L-3.4925, -4.44089e-16  L-3.4925, 0.512425  L-3.4925, 0.999154  L-3.4925, 1.43578  L-3.4925, 1.80041  L-3.4925, 2.07477  L-3.4925, 2.24508  L-3.4925, 2.30282 " /><path d="M0 3.429 A0.254 0.254 0 0 1 0.254 3.175" /><path d="M1.55065, 3.15582 Q1.56176, 3.17499 1.57156, 3.175 " /><path id= "6" d=" M 1.57156 3.175 L 1.73039 3.175 " />
<path d="M0.460386, 3.175 Q0.471484, 3.17499 0.482582, 3.15588 " /><path d="M0.482582, 3.15588 C0.530618, 3.07542 0.578646, 2.71487 0.626681, 2.15969  C0.684362, 1.49746 0.742043, 0.559671 0.799719, -0.342294  C0.843981, -1.03417 0.888245, -1.69798 0.932508, -2.19874  C0.986801, -2.8175 1.04109, -3.17872 1.09538, -3.175 " /><path d="M1.09538, -3.175 Q1.10648, -3.17499 1.11758, -3.15588 " /><path id= "10" d=" M 0.254 3.175 L 0.460386 3.175 " />
<path d="M1.17481, 2.48768 C1.14319, 2.43173 1.08033, 2.39543 1.01606, 2.39601 " /><path d="M1.01606, 2.39601 L1.01605, 2.39601 " /><path d="M1.57156, 3.175 L1.17481, 2.48768 " /><path id= "14" d=" M 2.84156 3.175 L 3.00038 3.175 " />
<path d="M1.73039, 3.175 Q1.74148, 3.17499 1.75258, 3.15588 " /><path d="M1.75258, 3.15588 C1.80062, 3.07542 1.84865, 2.71487 1.89668, 2.1597  C1.95436, 1.49748 2.01204, 0.559724 2.06971, -0.342224  C2.1139, -1.03284 2.15808, -1.69551 2.20226, -2.19594  C2.25664, -2.81638 2.31101, -3.17874 2.36538, -3.175 " /><path d="M2.36538, -3.175 Q2.37648, -3.17499 2.38758, -3.15588 " /><path d="M1.57156, 3.175 C1.61663, 3.17681 1.66171, 2.93146 1.70678, 2.49059  C1.77279, 1.85155 1.8388, 0.78941 1.9048, -0.247097  C1.94836, -0.929758 1.99191, -1.59227 2.03547, -2.10395  C2.0851, -2.69015 2.13473, -3.07294 2.18436, -3.15586 " /><path d="M2.18436, -3.15586 Q2.19546, -3.17499 2.20656, -3.175 " /><path d="M2.81935, 3.15586 Q2.83045, 3.17499 2.84156, 3.175 " /><path id= "21" d=" M 4.11156 3.175 L 4.27038 3.175 " />
<path d="M3.00038, 3.175 Q3.01148, 3.17499 3.02258, 3.15588 " /><path d="M3.02258, 3.15588 C3.07062, 3.07542 3.11864, 2.71487 3.16668, 2.15971  C3.22436, 1.4975 3.28204, 0.559771 3.33971, -0.34216  C3.38455, -1.04315 3.4294, -1.71522 3.47424, -2.2183  C3.52796, -2.82534 3.58167, -3.17857 3.63538, -3.175 " /><path d="M3.63538, -3.175 Q3.64648, -3.17499 3.65758, -3.15588 " /><path d="M2.84156, 3.175 C2.88659, 3.1768 2.93163, 2.9319 2.97667, 2.49175  C3.04308, 1.84933 3.10949, 0.778202 3.1759, -0.264227  C3.21893, -0.938366 3.26196, -1.59172 3.305, -2.09832  C3.35478, -2.68765 3.40458, -3.07269 3.45436, -3.15586 " /><path d="M3.45436, -3.15586 Q3.46546, -3.17499 3.47656, -3.175 " /><path d="M4.08935, 3.15586 Q4.10046, 3.17499 4.11156, 3.175 " /><path id= "28" d=" M 5.38157 3.175 L 5.54038 3.175 " />
<path d="M4.27038, 3.175 Q4.28148, 3.17499 4.29258, 3.15588 " /><path d="M4.29258, 3.15588 C4.34062, 3.07542 4.38864, 2.71487 4.43668, 2.15971  C4.49435, 1.49753 4.55203, 0.559829 4.6097, -0.342081  C4.65491, -1.04874 4.70011, -1.72594 4.74532, -2.23039  C4.79867, -2.83018 4.85203, -3.17848 4.90538, -3.175 " /><path d="M4.90538, -3.175 Q4.91648, -3.17499 4.92758, -3.15588 " /><path d="M4.11156, 3.175 C4.15655, 3.1768 4.20155, 2.93238 4.24654, 2.493  C4.31288, 1.85185 4.37921, 0.782789 4.44554, -0.258585  C4.48829, -0.928287 4.53103, -1.57793 4.57377, -2.08383  C4.62397, -2.6812 4.67417, -3.07207 4.72436, -3.15587 " /><path d="M4.72436, -3.15587 Q4.73546, -3.17499 4.74657, -3.175 " /><path d="M5.35936, 3.15586 Q5.37046, 3.17499 5.38157, 3.175 " /><path id= "35" d=" M 6.65157 3.175 L 6.81038 3.175 " />
<path d="M5.54038, 3.175 Q5.55148, 3.17499 5.56258, 3.15588 " /><path d="M5.56258, 3.15588 C5.61062, 3.07542 5.65864, 2.71488 5.70668, 2.15972  C5.76435, 1.49755 5.82203, 0.559874 5.8797, -0.342021  C5.92477, -1.04662 5.96985, -1.72195 6.01492, -2.22592  C6.06841, -2.82839 6.12189, -3.17851 6.17538, -3.175 " /><path d="M6.17538, -3.175 Q6.18648, -3.17499 6.19758, -3.15588 " /><path d="M5.38157, 3.175 C5.42651, 3.17679 5.47146, 2.93288 5.51641, 2.49431  C5.58261, 1.85502 5.6488, 0.789427 5.715, -0.250006  C5.75793, -0.922817 5.80086, -1.57596 5.84379, -2.08405  C5.89398, -2.6813 5.94418, -3.07208 5.99437, -3.15587 " /><path d="M5.99437, -3.15587 Q6.00547, -3.17499 6.01657, -3.175 " /><path d="M6.62936, 3.15586 Q6.64047, 3.17499 6.65157, 3.175 " /><path id= "42" d=" M 7.92157 3.175 L 8.08038 3.175 " />
<path d="M6.81038, 3.175 Q6.82148, 3.17499 6.83258, 3.15588 " /><path d="M6.83258, 3.15588 C6.88062, 3.07542 6.92864, 2.71488 6.97668, 2.15973  C7.03435, 1.49757 7.09203, 0.559908 7.1497, -0.341976  C7.19462, -1.04431 7.23955, -1.7176 7.28448, -2.22104  C7.33812, -2.82644 7.39175, -3.17855 7.44538, -3.175 " /><path d="M7.44538, -3.175 Q7.45648, -3.17499 7.46758, -3.15588 " /><path d="M6.65157, 3.175 C6.69647, 3.17678 6.74137, 2.93341 6.78627, 2.49573  C6.85254, 1.85633 6.91881, 0.789396 6.98508, -0.251168  C7.02798, -0.923509 7.07088, -1.57613 7.11379, -2.08391  C7.16398, -2.68124 7.21418, -3.07208 7.26437, -3.15587 " /><path d="M7.26437, -3.15587 Q7.27547, -3.17499 7.28657, -3.175 " /><path d="M7.89936, 3.15586 Q7.91047, 3.17499 7.92157, 3.175 " /><path id= "49" d=" M 9.19158 3.175 L 9.35038 3.175 " />
<path d="M8.08038, 3.175 Q8.09148, 3.17499 8.10258, 3.15588 " /><path d="M8.10258, 3.15588 C8.15061, 3.07542 8.19864, 2.71488 8.24667, 2.15973  C8.30435, 1.4976 8.36202, 0.559976 8.41969, -0.341884  C8.46448, -1.04207 8.50927, -1.71343 8.55407, -2.21636  C8.60784, -2.82457 8.66161, -3.17859 8.71538, -3.175 " /><path d="M8.71538, -3.175 Q8.72648, -3.17499 8.73758, -3.15588 " /><path d="M7.92157, 3.175 C7.96641, 3.17677 8.01125, 2.93409 8.05609, 2.4975  C8.12255, 1.85705 8.18901, 0.786157 8.25547, -0.25726  C8.29879, -0.935996 8.3421, -1.59412 8.38542, -2.10315  C8.43507, -2.6898 8.48473, -3.07291 8.53438, -3.15587 " /><path d="M8.53438, -3.15587 Q8.54548, -3.17499 8.55658, -3.175 " /><path d="M9.16937, 3.15586 Q9.18047, 3.17499 9.19158, 3.175 " /><path id= "56" d=" M 10.4616 3.175 L 10.6204 3.175 " />
<path d="M9.35038, 3.175 Q9.36148, 3.17499 9.37258, 3.15587 " /><path d="M9.37258, 3.15587 C9.42061, 3.07542 9.46864, 2.71488 9.51667, 2.15974  C9.57435, 1.49762 9.63202, 0.560019 9.68969, -0.341827  C9.73489, -1.04856 9.7801, -1.72584 9.82531, -2.23034  C9.87867, -2.83016 9.93202, -3.17848 9.98538, -3.175 " /><path d="M9.98538, -3.175 Q9.99648, -3.17499 10.0076, -3.15588 " /><path d="M9.19158, 3.175 C9.23636, 3.17676 9.28115, 2.93467 9.32593, 2.49905  C9.39258, 1.85743 9.45924, 0.78249 9.52589, -0.263784  C9.56891, -0.937689 9.61192, -1.59086 9.65494, -2.09745  C9.70475, -2.68726 9.75457, -3.07266 9.80438, -3.15587 " /><path d="M9.80438, -3.15587 Q9.81548, -3.17499 9.82658, -3.175 " /><path d="M10.4394, 3.15586 Q10.4505, 3.17499 10.4616, 3.175 " /><path id= "63" d=" M 11.7316 3.175 L 11.8904 3.175 " />
<path d="M10.6204, 3.175 Q10.6315, 3.17499 10.6426, 3.15587 " /><path d="M10.6426, 3.15587 C10.6906, 3.07542 10.7386, 2.71489 10.7867, 2.15975  C10.8443, 1.49766 10.902, 0.560117 10.9597, -0.341694  C11.0046, -1.04327 11.0494, -1.7159 11.0943, -2.21919  C11.148, -2.8257 11.2017, -3.17856 11.2554, -3.175 " /><path d="M11.2554, -3.175 Q11.2665, -3.17499 11.2776, -3.15588 " /><path d="M10.4616, 3.175 C10.5063, 3.17675 10.551, 2.93551 10.5957, 2.50127  C10.6621, 1.863 10.7285, 0.794444 10.7949, -0.24824  C10.8384, -0.929869 10.8819, -1.59134 10.9254, -2.10253  C10.975, -2.68953 11.0247, -3.07288 11.0744, -3.15587 " /><path d="M11.0744, -3.15587 Q11.0855, -3.17499 11.0966, -3.175 " /><path d="M11.7094, 3.15586 Q11.7205, 3.17499 11.7316, 3.175 " /><path id= "70" d=" M 13.0016 3.175 L 13.1604 3.175 " />
<path d="M11.8904, 3.175 Q11.9015, 3.17499 11.9126, 3.15587 " /><path d="M11.9126, 3.15587 C11.9606, 3.07542 12.0086, 2.71489 12.0567, 2.15976  C12.1143, 1.49768 12.172, 0.560169 12.2297, -0.341625  C12.2747, -1.04488 12.3196, -1.71904 12.3646, -2.22275  C12.4182, -2.82712 12.4718, -3.17854 12.5254, -3.175 " /><path d="M12.5254, -3.175 Q12.5365, -3.17499 12.5476, -3.15588 " /><path d="M11.7316, 3.175 C11.7762, 3.17675 11.8209, 2.93597 11.8656, 2.50249  C11.9324, 1.86125 11.9991, 0.784525 12.0659, -0.263561  C12.1089, -0.937342 12.1519, -1.59041 12.1949, -2.09699  C12.2447, -2.68706 12.2946, -3.07265 12.3444, -3.15587 " /><path d="M12.3444, -3.15587 Q12.3555, -3.17499 12.3666, -3.175 " /><path d="M12.9794, 3.15586 Q12.9905, 3.17499 13.0016, 3.175 " /><path id= "77" d=" M 14.2716 3.175 L 14.4304 3.175 " />
<path d="M13.1604, 3.175 Q13.1715, 3.17499 13.1826, 3.15587 " /><path d="M13.1826, 3.15587 C13.2306, 3.07542 13.2786, 2.71489 13.3267, 2.15977  C13.3843, 1.49771 13.442, 0.56023 13.4997, -0.341542  C13.5448, -1.04686 13.5899, -1.72288 13.635, -2.22709  C13.6885, -2.82886 13.7419, -3.1785 13.7954, -3.175 " /><path d="M13.7954, -3.175 Q13.8065, -3.17499 13.8176, -3.15588 " /><path d="M13.0016, 3.175 C13.0462, 3.17673 13.0907, 2.93695 13.1353, 2.50508  C13.2022, 1.8642 13.269, 0.786262 13.3359, -0.263102  C13.3788, -0.936613 13.4218, -1.58947 13.4648, -2.09602  C13.5147, -2.68663 13.5645, -3.07261 13.6144, -3.15587 " /><path d="M13.6144, -3.15587 Q13.6255, -3.17499 13.6366, -3.175 " /><path d="M14.2494, 3.15586 Q14.2605, 3.17499 14.2716, 3.175 " /><path id= "84" d=" M 15.5416 3.175 L 15.7004 3.175 " />
<path d="M14.4304, 3.175 Q14.4415, 3.17499 14.4526, 3.15587 " /><path d="M14.4526, 3.15587 C14.5006, 3.07541 14.5486, 2.71489 14.5967, 2.15978  C14.6543, 1.49773 14.712, 0.560266 14.7697, -0.341494  C14.8171, -1.08317 14.8645, -1.79188 14.912, -2.30352  C14.9631, -2.85916 15.0142, -3.17795 15.0654, -3.175 " /><path d="M15.0654, -3.175 Q15.0765, -3.17499 15.0876, -3.15588 " /><path d="M14.2716, 3.175 C14.3176, 3.17697 14.3637, 2.92057 14.4097, 2.46198  C14.4749, 1.81969 14.54, 0.770876 14.6051, -0.251649  C14.6485, -0.930757 14.6918, -1.58964 14.7351, -2.09955  C14.7849, -2.68821 14.8346, -3.07276 14.8844, -3.15587 " /><path d="M14.8844, -3.15587 Q14.8955, -3.17499 14.9066, -3.175 " /><path d="M15.5194, 3.15586 Q15.5305, 3.17499 15.5416, 3.175 " /><path id= "91" d=" M 16.8116 3.175 L 16.9704 3.175 " />
<path d="M15.7004, 3.175 Q15.7115, 3.17499 15.7226, 3.15587 " /><path d="M15.7226, 3.15587 C15.7706, 3.07541 15.8186, 2.71489 15.8667, 2.15978  C15.9243, 1.49773 15.982, 0.560277 16.0397, -0.341479  C16.0848, -1.04738 16.13, -1.72394 16.1751, -2.2283  C16.2285, -2.82934 16.282, -3.17849 16.3354, -3.175 " /><path d="M16.3354, -3.175 Q16.3465, -3.17499 16.3576, -3.15587 " /><path d="M15.5416, 3.175 C15.5863, 3.17675 15.631, 2.93549 15.6757, 2.50121  C15.7421, 1.86334 15.8084, 0.795812 15.8748, -0.24621  C15.9184, -0.929283 15.9619, -1.59225 16.0055, -2.10417  C16.0551, -2.69026 16.1048, -3.07296 16.1544, -3.15587 " /><path d="M16.1544, -3.15587 Q16.1655, -3.17499 16.1766, -3.175 " /><path d="M16.7894, 3.15586 Q16.8005, 3.17499 16.8116, 3.175 " /><path id= "98" d=" M 18.0816 3.175 L 18.2404 3.175 " />
<path d="M16.9704, 3.175 Q16.9815, 3.17499 16.9926, 3.15587 " /><path d="M16.9926, 3.15587 C17.0406, 3.07541 17.0886, 2.7149 17.1367, 2.15979  C17.1943, 1.49777 17.252, 0.560366 17.3097, -0.341359  C17.3538, -1.03222 17.398, -1.69518 17.4422, -2.1958  C17.4966, -2.81632 17.551, -3.17874 17.6054, -3.175 " /><path d="M17.6054, -3.175 Q17.6165, -3.17499 17.6276, -3.15587 " /><path d="M16.8116, 3.175 C16.8566, 3.17679 16.9015, 2.93264 16.9465, 2.4937  C17.0128, 1.85348 17.079, 0.786123 17.1453, -0.254309  C17.1881, -0.924175 17.2308, -1.57427 17.2736, -2.0808  C17.3238, -2.67986 17.3741, -3.07196 17.4244, -3.15587 " /><path d="M17.4244, -3.15587 Q17.4355, -3.17499 17.4466, -3.175 " /><path d="M18.0594, 3.15586 Q18.0705, 3.17499 18.0816, 3.175 " /><path id= "105" d=" M 19.3516 3.175 L 19.5104 3.175 " />
<path d="M18.2404, 3.175 Q18.2515, 3.17499 18.2626, 3.15587 " /><path d="M18.2626, 3.15587 C18.3106, 3.07541 18.3586, 2.7149 18.4067, 2.1598  C18.4643, 1.4978 18.522, 0.560427 18.5796, -0.341278  C18.6245, -1.04295 18.6694, -1.71569 18.7143, -2.21907  C18.768, -2.82565 18.8217, -3.17856 18.8754, -3.175 " /><path d="M18.8754, -3.175 Q18.8865, -3.17499 18.8976, -3.15587 " /><path d="M18.0816, 3.175 C18.1265, 3.17678 18.1714, 2.93362 18.2162, 2.49628  C18.2827, 1.85549 18.3491, 0.784758 18.4156, -0.258318  C18.4584, -0.929126 18.5012, -1.57981 18.544, -2.08612  C18.5941, -2.68223 18.6443, -3.07219 18.6944, -3.15587 " /><path d="M18.6944, -3.15587 Q18.7055, -3.17499 18.7166, -3.175 " /><path d="M19.3294, 3.15586 Q19.3405, 3.17499 19.3516, 3.175 " /><path id= "112" d=" M 20.6216 3.175 L 20.7804 3.175 " />
<path d="M19.5104, 3.175 Q19.5215, 3.17499 19.5326, 3.15587 " /><path d="M19.5326, 3.15587 C19.5806, 3.07541 19.6286, 2.7149 19.6767, 2.15981  C19.7347, 1.493 19.7928, 0.546662 19.8509, -0.361008  C19.8947, -1.04496 19.9385, -1.70017 19.9823, -2.19609  C20.0366, -2.81644 20.091, -3.17874 20.1454, -3.175 " /><path d="M20.1454, -3.175 Q20.1565, -3.17499 20.1676, -3.15587 " /><path d="M19.3516, 3.175 C19.3962, 3.17674 19.4409, 2.93641 19.4855, 2.50364  C19.5521, 1.86395 19.6188, 0.790087 19.6854, -0.256426  C19.7287, -0.933481 19.7719, -1.59011 19.8151, -2.09871  C19.8649, -2.68783 19.9146, -3.07273 19.9644, -3.15587 " /><path d="M19.9644, -3.15587 Q19.9755, -3.17499 19.9866, -3.175 " /><path d="M20.5994, 3.15586 Q20.6105, 3.17499 20.6216, 3.175 " /><path id= "119" d=" M 21.8916 3.175 L 22.0504 3.175 " />
<path d="M20.7804, 3.175 Q20.7915, 3.17499 20.8026, 3.15587 " /><path d="M20.8026, 3.15587 C20.8506, 3.07541 20.8986, 2.71491 20.9467, 2.15981  C21.0043, 1.49786 21.062, 0.560552 21.1196, -0.34111  C21.1638, -1.03151 21.208, -1.69407 21.2521, -2.19461  C21.3065, -2.81584 21.361, -3.17875 21.4154, -3.175 " /><path d="M21.4154, -3.175 Q21.4265, -3.17499 21.4376, -3.15587 " /><path d="M20.6216, 3.175 C20.6661, 3.17673 20.7107, 2.9375 20.7552, 2.50651  C20.822, 1.86647 20.8888, 0.789443 20.9557, -0.259637  C20.9983, -0.92805 21.041, -1.57642 21.0836, -2.08175  C21.1339, -2.68029 21.1842, -3.072 21.2344, -3.15587 " /><path d="M21.2344, -3.15587 Q21.2455, -3.17499 21.2566, -3.175 " /><path d="M21.8694, 3.15586 Q21.8805, 3.17499 21.8916, 3.175 " /><path id= "126" d=" M 23.1616 3.175 L 23.3204 3.175 " />
<path d="M22.0504, 3.175 Q22.0615, 3.17499 22.0726, 3.15587 " /><path d="M22.0726, 3.15587 C22.1206, 3.07541 22.1686, 2.7149 22.2167, 2.1598  C22.2743, 1.49782 22.332, 0.560457 22.3896, -0.341237  C22.4338, -1.03216 22.478, -1.69518 22.5222, -2.19584  C22.5766, -2.81634 22.631, -3.17874 22.6854, -3.175 " /><path d="M22.6854, -3.175 Q22.6965, -3.17499 22.7076, -3.15587 " /><path d="M21.8916, 3.175 C21.9366, 3.17679 21.9815, 2.93284 22.0265, 2.49421  C22.0927, 1.85474 22.1589, 0.788781 22.2251, -0.250864  C22.2686, -0.932099 22.312, -1.59301 22.3555, -2.10371  C22.4051, -2.69006 22.4548, -3.07294 22.5044, -3.15587 " /><path d="M22.5044, -3.15587 Q22.5155, -3.17499 22.5266, -3.175 " /><path d="M23.1394, 3.15586 Q23.1505, 3.17499 23.1616, 3.175 " /><path id= "133" d=" M 24.4316 3.175 L 24.5904 3.175 " />
<path d="M23.3204, 3.175 Q23.3315, 3.17499 23.3426, 3.15587 " /><path d="M23.3426, 3.15587 C23.3906, 3.07541 23.4386, 2.71491 23.4867, 2.15983  C23.5443, 1.49791 23.602, 0.560667 23.6596, -0.340955  C23.7039, -1.03324 23.7482, -1.69752 23.7925, -2.19858  C23.8468, -2.81744 23.9011, -3.17872 23.9554, -3.175 " /><path d="M23.9554, -3.175 Q23.9665, -3.17499 23.9776, -3.15587 " /><path d="M23.1616, 3.175 C23.2062, 3.17673 23.2507, 2.93731 23.2952, 2.50603  C23.3619, 1.86772 23.4285, 0.795294 23.4951, -0.250787  C23.5385, -0.93107 23.5819, -1.5911 23.6253, -2.10152  C23.675, -2.68908 23.7247, -3.07285 23.7744, -3.15587 " /><path d="M23.7744, -3.15587 Q23.7855, -3.17499 23.7966, -3.175 " /><path d="M24.4094, 3.15586 Q24.4205, 3.17499 24.4316, 3.175 " /><path d="M24.765, -0.249182 C24.765, 0.580701 24.765, 1.43002 24.765, 2.06198 " /><path d="M24.5904, 3.175 Q24.6015, 3.17499 24.6126, 3.15587 " /><path d="M24.6126, 3.15587 C24.6634, 3.07115 24.7142, 2.67145 24.765, 2.06198 " /><path d="M24.4316, 3.175 C24.4764, 3.17676 24.5211, 2.93504 24.5659, 2.50003  C24.6322, 1.86145 24.6986, 0.793116 24.765, -0.249182 " /><path d="M25.3588, 2.5812 Q25.3502, 2.5898 25.3416, 2.5751 " /><path d="M24.9562, -2.98378 Q24.9488, -2.99124 24.9413, -2.97844 " /><path d="M24.9413, -2.97844 C24.9081, -2.92409 24.8753, -2.55091 24.843, -1.96407  C24.8167, -1.4906 24.7907, -0.882924 24.765, -0.249182 " /><path id= "147" d=" M 25.3588 2.5812 L 25.4 2.54 " />
<path d="M25.4, 2.40982 Q25.4, 2.33371 25.4, 2.21646 " /><path d="M25.4, -2.54 L25.4, -2.53416  L25.4, -2.51665  L25.4, -2.48756  L25.4, -2.44703  L25.4, -2.39524  L25.4, -2.33242  L25.4, -2.25888  L25.4, -2.17493  L25.4, -2.08098  L25.4, -1.97746  L25.4, -1.86483  L25.4, -1.74362  L25.4, -1.61439  L25.4, -1.47773 " /><path d="M24.765, 2.06198 C24.8684, 1.47385 24.9756, 0.764301 25.0875, 0.0928675  C25.1876, -0.507702 25.2915, -1.07271 25.4, -1.47773 " /><path d="M25.4, -1.47773 Q25.4, -1.309 25.4, -1.12934 " /><path d="M25.4, -1.12934 C25.4, -0.913537 25.4, -0.661748 25.4, -0.403086  C25.4, -0.026324 25.4, 0.370498 25.4, 0.739961  C25.4, 1.36827 25.4, 1.90121 25.4, 2.21646 " /><path d="M25.3588, 2.5812 Q25.3793, 2.56015 25.4, 2.40982 " /><path d="M25.4, 2.40982 Q25.4, 2.32544 25.4, 2.21646 " /><path d="M25.4, 2.40982 Q25.4, 2.53927 25.4, 2.54 " /></g>

</svg>
