<svg xmlns="http://www.w3.org/2000/svg" viewBox="-6.437884 -6.437884 12.875768 12.875768">
<rect width="100%" height="100%" fill="white"/>
<g   fill="none"
   stroke="rgb(0, 0, 0)"
   stroke-linecap="butt"
   stroke-linejoin="miter"
   stroke-width="0.35"
   transform="scale(1, -1)"
  >
<circle cx ="0" cy ="0" r ="5.5499" /><path d="M-2.30282 2.82014e-16 A2.30282 2.30282 0 0 1 2.30282 -5.64027e-16" /><path d="M2.30282 0 A2.30282 2.30282 0 0 1 -2.30282 2.82014e-16" /><path d="M1.14568, 1.98438 C0.308734, 1.98438 -0.308734, 1.98437 -1.14568, 1.98438 " /><path d="M-1.14568, 1.98438 C-1.56415, 1.25956 -1.87289, 0.724816 -2.29136, 9.38138e-14 " /><path d="M-2.29136, -9.45916e-14 C-1.87289, -0.724816 -1.56415, -1.25956 -1.14568, -1.98438 " /><path d="M-1.14568, -1.98438 C-0.308734, -1.98437 0.308734, -1.98438 1.14568, -1.98437 " /><path d="M1.14568, -1.98438 C1.56415, -1.25956 1.87289, -0.724816 2.29136, -9.42579e-14 " /><path d="M2.29136, 9.42579e-14 C1.87289, 0.724816 1.56415, 1.25956 1.14568, 1.98438 " /><circle cx ="0" cy ="0" r ="0.3175" /></g>

</svg>
