<svg xmlns="http://www.w3.org/2000/svg" viewBox="-8.5514528 -9.2470328 30.404945599999998 24.203825600000002">
<rect width="100%" height="100%" fill="white"/>
<g   fill="none"
   stroke="rgb(0, 0, 0)"
   stroke-linecap="butt"
   stroke-linejoin="miter"
   stroke-width="0.35"
   transform="scale(1, -1)"
  >
<path id= "1" d=" M 0.192596 -3.77737 L 3.38532 -5.62069 " />
<path id= "2" d=" M 3.3676 1.72189 L 6.1696 0.104157 " />
<path id= "3" d=" M 6.86361 -0.296531 L 7.00933 -0.380667 " />
<path id= "4" d=" M 4.17105 -6.07433 L 4.28335 -6.13917 " />
<path id= "5" d=" M 7.79507 -0.83431 L 7.90736 -0.899142 " />
<path id= "6" d=" M 5.06908 -6.59281 L 5.18137 -6.65764 " />
<path id= "7" d=" M 8.6931 -1.35279 L 8.80538 -1.41762 " />
<path id= "8" d=" M 5.96711 -7.11129 L 6.0794 -7.17612 " />
<path id= "9" d=" M 9.59112 -1.87126 L 9.70341 -1.93609 " />
<path id= "10" d=" M 6.86514 -7.62976 L 6.97742 -7.69459 " />
<path id= "11" d=" M 10.4892 -2.38974 L 10.6014 -2.45457 " />
<path id= "12" d=" M 7.76316 -8.14824 L 7.87545 -8.21307 " />
<path id= "13" d=" M 11.3872 -2.90822 L 11.4995 -2.97304 " />
<path id= "14" d=" M 8.66119 -8.66672 L 8.77347 -8.73154 " />
<path id= "15" d=" M 12.2852 -3.42669 L 12.3975 -3.49152 " />
<path id= "16" d=" M 9.55922 -9.18519 L 9.6715 -9.25002 " />
<path id= "17" d=" M 13.1832 -3.94517 L 13.2955 -4.00999 " />
<path id= "18" d=" M 10.4572 -9.70367 L 10.5695 -9.76849 " />
<path id= "19" d=" M 14.0813 -4.46365 L 14.1935 -4.52847 " />
<path id= "20" d=" M 11.3553 -10.2221 L 11.4676 -10.287 " />
<path id= "21" d=" M 14.9793 -4.98212 L 15.0916 -5.04694 " />
<path id= "22" d=" M 12.2533 -10.7406 L 12.3656 -10.8054 " />
<path id= "23" d=" M 15.8773 -5.5006 L 15.9896 -5.56542 " />
<path id= "24" d=" M 13.1513 -11.2591 L 13.2636 -11.3239 " />
<path id= "25" d=" M 16.7753 -6.01908 L 16.8876 -6.08389 " />
<path id= "26" d=" M 14.0494 -11.7776 L 14.1616 -11.8424 " />
<path id= "27" d=" M 17.6734 -6.53755 L 17.7856 -6.60237 " />
<path id= "28" d=" M 14.9474 -12.2961 L 15.0597 -12.3609 " />
<path id= "29" d=" M 18.5714 -7.05603 L 18.6837 -7.12084 " />
<path id= "30" d=" M 15.8454 -12.8145 L 15.924 -12.8599 " />
<path id= "31" d=" M 17.9605 -12.4434 L 17.9598 -12.4438 " />
</g>
<g   fill="none"
   stroke="rgb(0, 0, 0)"
   stroke-linecap="butt"
   stroke-linejoin="miter"
   stroke-width="0.35"
   transform="scale(1, -1)"
  >
<path d="M0.280633 3.72654 A4.7625 2.74963 60 0 1 -3.08696 5.67082" />
<path d="M-3.08696 -2.10631 A4.7625 2.74963 60 0 1 0.280633 3.72654" />
<path d="M-6.45456 -0.162024 A4.7625 2.74963 60 0 1 -3.08696 -2.10631" />
<path d="M-3.08696 5.67082 A4.7625 2.74963 60 0 1 -6.45456 -0.162024" />
<path d="M1.08598, 7.15014 L0.675601, 7.04834  L0.287847, 6.94756  L-0.0788181, 6.84739  L-0.425849, 6.74743  L-0.754621, 6.64729  L-1.06644, 6.54657  L-1.36253, 6.44487  L-1.64409, 6.34179  L-1.91221, 6.23692  L-2.16797, 6.12985  L-2.41237, 6.02014  L-2.64639, 5.90737  L-2.87096, 5.79108  L-3.08696, 5.67082 " /><path d="M0.280633, 3.72654 Q0.28256, 3.84791 0.284487, 3.96928  Q0.290276, 4.08891 0.296065, 4.20854  Q0.313212, 4.4457 0.342607, 4.68037  Q0.360181, 4.79759 0.377755, 4.91481  Q0.399376, 5.03216 0.420996, 5.14952  Q0.44675, 5.26746 0.472503, 5.38541  Q0.502491, 5.50442 0.532478, 5.62343  Q0.56682, 5.74398 0.601161, 5.86453  Q0.639992, 5.98709 0.678823, 6.10965  Q0.722297, 6.2347 0.765772, 6.35976  Q0.814062, 6.48782 0.862353, 6.61587  Q0.91565, 6.74742 0.968948, 6.87898  Q1.02746, 7.01456 1.08598, 7.15014 " /><path d="M-6.45456, -0.162024 Q-6.45263, -0.0406525 -6.4507, 0.0807186  Q-6.44492, 0.200346 -6.43913, 0.319973  Q-6.42945, 0.43833 -6.41978, 0.556687  Q-6.39482, 0.791988 -6.35744, 1.02625  Q-6.33582, 1.1436 -6.3142, 1.26095  Q-6.28844, 1.3789 -6.26269, 1.49685  Q-6.2327, 1.61586 -6.20271, 1.73487  Q-6.16837, 1.85542 -6.13403, 1.97596  Q-6.0952, 2.09852 -6.05637, 2.22108  Q-6.01289, 2.34614 -5.96942, 2.4712  Q-5.92113, 2.59925 -5.87284, 2.7273  Q-5.81954, 2.85886 -5.76624, 2.99041  Q-5.70773, 3.12599 -5.64921, 3.26157 " /><path d="M-3.08696, 5.67082 Q-3.19111, 5.60847 -3.29526, 5.54612  Q-3.39596, 5.48129 -3.49667, 5.41646  Q-3.59433, 5.3489 -3.69199, 5.28135  Q-3.88329, 5.14208 -4.06747, 4.99258  Q-4.15829, 4.91518 -4.24911, 4.83778  Q-4.33838, 4.7565 -4.42765, 4.67522  Q-4.51573, 4.58975 -4.6038, 4.50427  Q-4.69102, 4.41426 -4.77825, 4.32425  Q-4.86497, 4.22934 -4.9517, 4.13443  Q-5.03826, 4.03425 -5.12483, 3.93407  Q-5.21158, 3.82822 -5.29833, 3.72238  Q-5.38562, 3.61044 -5.4729, 3.49851  Q-5.56105, 3.38004 -5.64921, 3.26157 " /><path d="M-5.64921, -4.51556 L-5.76624, -4.10926  L-5.87284, -3.72306  L-5.96942, -3.35544  L-6.05637, -3.00492  L-6.13403, -2.67012  L-6.20271, -2.34972  L-6.26269, -2.04245  L-6.3142, -1.74708  L-6.35744, -1.46244  L-6.39259, -1.18741  L-6.41978, -0.920894  L-6.43913, -0.661839  L-6.4507, -0.409216  L-6.45456, -0.162024 " /><path d="M-3.08696, -2.10631 Q-3.19111, -2.16866 -3.29526, -2.23101  Q-3.39596, -2.29584 -3.49667, -2.36067  Q-3.69348, -2.4941 -3.88201, -2.63689  Q-3.97474, -2.71072 -4.06747, -2.78455  Q-4.15829, -2.86195 -4.24911, -2.93935  Q-4.33838, -3.02063 -4.42765, -3.10191  Q-4.51573, -3.18738 -4.6038, -3.27286  Q-4.69102, -3.36287 -4.77825, -3.45288  Q-4.86497, -3.54779 -4.9517, -3.6427  Q-5.03826, -3.74288 -5.12483, -3.84306  Q-5.21158, -3.94891 -5.29833, -4.05475  Q-5.38562, -4.16669 -5.4729, -4.27862  Q-5.56105, -4.39709 -5.64921, -4.51556 " /><path d="M1.08598, -0.626992 L0.675601, -0.728786  L0.287847, -0.82957  L-0.0788181, -0.929743  L-0.425849, -1.0297  L-0.754621, -1.12984  L-1.06644, -1.23056  L-1.36253, -1.33226  L-1.64409, -1.43534  L-1.91221, -1.54021  L-2.16797, -1.64728  L-2.41237, -1.75699  L-2.64639, -1.86976  L-2.87096, -1.98605  L-3.08696, -2.10631 " /><path d="M1.08598, -0.626992 L0.968948, -0.220695  L0.862353, 0.165502  L0.765772, 0.53313  L0.678823, 0.883646  L0.601161, 1.21844  L0.532478, 1.53884  L0.472503, 1.84612  L0.420996, 2.14149  L0.377755, 2.42613  L0.342607, 2.70116  L0.315413, 2.96767  L0.296065, 3.22673  L0.284487, 3.47935  L0.280633, 3.72654 " /><path id= "13" d=" M 3.3676 -1.94428 L 1.08598 -0.626992 " />
<path id= "14" d=" M 3.3676 -1.94428 L 3.3676 5.83285 " />
<path id= "15" d=" M 3.3676 5.83285 L 1.08598 7.15014 " />
<path id= "16" d=" M -3.3676 -5.83285 L -5.64921 -4.51556 " />
<path id= "17" d=" M 3.3676 -1.94428 L -3.3676 -5.83285 " />
<path d="M6.88113, -1.38044 C6.85062, -0.679686 6.59061, -0.134563 6.1696, 0.104157 " /><path d="M6.46156, -0.138897 Q6.67778, -0.189439 6.86361, -0.296531 " /><path d="M6.86361, -0.296531 C7.34122, -0.567891 7.63638, -1.12983 7.66686, -1.83409 " /><path d="M6.88113, -1.38044 C6.92318, -2.11351 6.69561, -2.99628 6.28081, -3.76302  C6.02307, -4.24336 5.69642, -4.67687 5.34576, -5.00996  C5.11129, -5.23241 4.8741, -5.40644 4.63421, -5.53205  C4.16189, -5.78045 3.71088, -5.81084 3.38532, -5.62069 " /><path d="M7.00933, -0.380667 C7.46464, -0.639643 7.74413, -1.19635 7.77915, -1.89892 " /><path d="M6.90027, -1.95271 L6.86299, -1.95615 " /><path d="M7.66686, -1.83409 L6.90027, -1.95271 " /><path d="M7.77915, -1.89892 C7.82121, -2.63198 7.59364, -3.51474 7.17884, -4.28149  C6.9211, -4.76183 6.59446, -5.19534 6.24379, -5.52843  C6.00933, -5.75087 5.77216, -5.92489 5.53228, -6.0505  C5.05994, -6.29892 4.60893, -6.32933 4.28335, -6.13917 " /><path d="M7.90736, -0.899142 C8.36266, -1.15812 8.64215, -1.71482 8.67718, -2.41739 " /><path d="M7.66686, -1.83409 C7.69982, -2.42729 7.55983, -3.11831 7.28267, -3.7668  C7.06478, -4.27977 6.76347, -4.76442 6.42224, -5.15808  C6.12364, -5.50351 5.79527, -5.77884 5.4733, -5.95695  C4.98188, -6.23109 4.5088, -6.27186 4.17105, -6.07433 " /><path d="M4.17105, -6.07433 Q3.97062, -5.95826 3.83818, -5.74361 " /><path d="M7.36081, -0.679185 Q7.59619, -0.719654 7.79507, -0.83431 " /><path d="M7.79507, -0.83431 C8.25037, -1.09329 8.52985, -1.64999 8.56488, -2.35256 " /><path d="M8.67718, -2.41739 C8.71923, -3.15046 8.49167, -4.03321 8.07687, -4.79996  C7.81913, -5.28029 7.49249, -5.71381 7.14182, -6.04689  C6.90738, -6.26933 6.67022, -6.44335 6.43035, -6.56895  C5.958, -6.8174 5.50695, -6.84781 5.18137, -6.65764 " /><path d="M8.80538, -1.41762 C9.26069, -1.67659 9.54018, -2.2333 9.5752, -2.93587 " /><path d="M8.56488, -2.35256 C8.5978, -2.94499 8.45824, -3.63497 8.18179, -4.28272  C7.96204, -4.80082 7.65713, -5.29013 7.31192, -5.68617  C7.0148, -6.02799 6.68864, -6.30035 6.36889, -6.47678  C5.87834, -6.74972 5.40627, -6.79 5.06908, -6.59281 " /><path d="M5.06908, -6.59281 Q4.86865, -6.47674 4.7362, -6.26208 " /><path d="M8.25883, -1.19766 Q8.49422, -1.23813 8.6931, -1.35279 " /><path d="M8.6931, -1.35279 C9.1484, -1.61176 9.42788, -2.16847 9.46291, -2.87104 " /><path d="M9.5752, -2.93587 C9.61726, -3.66893 9.3897, -4.55168 8.9749, -5.31842  C8.71716, -5.79876 8.39052, -6.23227 8.03986, -6.56536  C7.80543, -6.78778 7.56828, -6.9618 7.32842, -7.0874  C6.85605, -7.33587 6.40499, -7.36629 6.0794, -7.17612 " /><path d="M9.70341, -1.93609 C10.1587, -2.19507 10.4382, -2.75177 10.4732, -3.45434 " /><path d="M9.46291, -2.87104 C9.49578, -3.46256 9.3567, -4.15133 9.08108, -4.79822  C8.86225, -5.31501 8.55866, -5.80331 8.21475, -6.19912  C7.91662, -6.5432 7.58901, -6.81737 7.26781, -6.99476  C6.77694, -7.26814 6.3045, -7.3086 5.96711, -7.11129 " /><path d="M5.96711, -7.11129 Q5.76668, -6.99522 5.63423, -6.78056 " /><path d="M9.15686, -1.71614 Q9.39225, -1.75661 9.59112, -1.87126 " /><path d="M9.59112, -1.87126 C10.0464, -2.13024 10.3259, -2.68695 10.3609, -3.38952 " /><path d="M10.4732, -3.45434 C10.5153, -4.1874 10.2877, -5.07015 9.87293, -5.83689  C9.6152, -6.31722 9.28856, -6.75074 8.93789, -7.08383  C8.70347, -7.30624 8.46634, -7.48025 8.22649, -7.60585  C7.75411, -7.85434 7.30302, -7.88477 6.97743, -7.69459 " /><path d="M10.6014, -2.45457 C11.0567, -2.71354 11.3362, -3.27025 11.3713, -3.97282 " /><path d="M10.3609, -3.38952 C10.3937, -3.98003 10.2552, -4.66746 9.98051, -5.31339  C9.76061, -5.83369 9.45473, -6.32526 9.10822, -6.72285  C8.81116, -7.06465 8.48505, -7.33703 8.16533, -7.51352  C7.67465, -7.78665 7.20242, -7.82701 6.86514, -7.62976 " /><path d="M6.86514, -7.62976 Q6.6647, -7.51369 6.53226, -7.29903 " /><path d="M10.0549, -2.23461 Q10.2903, -2.27508 10.4892, -2.38974 " /><path d="M10.4892, -2.38974 C10.9445, -2.64872 11.2239, -3.20543 11.259, -3.90799 " /><path d="M11.3713, -3.97282 C11.4133, -4.70587 11.1857, -5.58862 10.771, -6.35536  C10.5132, -6.83569 10.1866, -7.2692 9.83592, -7.6023  C9.60151, -7.8247 9.36439, -7.99871 9.12455, -8.12431  C8.65216, -8.37282 8.20106, -8.40325 7.87545, -8.21307 " /><path d="M11.4995, -2.97304 C11.9548, -3.23202 12.2343, -3.78872 12.2693, -4.49129 " /><path d="M11.259, -3.90799 C11.2917, -4.49723 11.1539, -5.18296 10.8803, -5.82767  C10.6607, -6.3484 10.355, -6.84056 10.0085, -7.23876  C9.71238, -7.57996 9.38731, -7.85221 9.0684, -8.0292  C8.57593, -8.30481 8.10159, -8.34618 7.76316, -8.14824 " /><path d="M7.76316, -8.14824 Q7.56273, -8.03217 7.43029, -7.81751 " /><path d="M10.9529, -2.75309 Q11.1883, -2.79356 11.3872, -2.90822 " /><path d="M11.3872, -2.90822 C11.8425, -3.16719 12.122, -3.7239 12.157, -4.42647 " /><path d="M12.2693, -4.49129 C12.3113, -5.22435 12.0838, -6.10709 11.669, -6.87382  C11.4113, -7.35416 11.0846, -7.78767 10.734, -8.12076  C10.4952, -8.34731 10.2537, -8.52358 10.0095, -8.64956  C9.54184, -8.89192 9.09609, -8.91992 8.77348, -8.73154 " /><path d="M12.3975, -3.49152 C12.8528, -3.75049 13.1323, -4.3072 13.1673, -5.00977 " /><path d="M12.157, -4.42647 C12.1897, -5.01462 12.0524, -5.6989 11.7798, -6.34258  C11.5618, -6.86071 11.2584, -7.35077 10.9143, -7.74827  C10.6166, -8.09308 10.2892, -8.36824 9.96803, -8.54679  C9.47498, -8.82318 8.99999, -8.86488 8.66119, -8.66672 " /><path d="M8.66119, -8.66672 Q8.46076, -8.55065 8.32831, -8.33598 " /><path d="M11.8509, -3.27157 Q12.0863, -3.31204 12.2852, -3.42669 " /><path d="M12.2852, -3.42669 C12.7405, -3.68567 13.02, -4.24238 13.055, -4.94495 " /><path d="M13.1673, -5.00977 C13.2094, -5.74282 12.9818, -6.62556 12.567, -7.39229  C12.3093, -7.87262 11.9827, -8.30614 11.632, -8.63923  C11.3976, -8.86161 11.1605, -9.03561 10.9207, -9.16121  C10.4483, -9.40976 9.99713, -9.44021 9.6715, -9.25002 " /><path d="M13.2955, -4.00999 C13.7508, -4.26897 14.0303, -4.82568 14.0653, -5.52824 " /><path d="M13.055, -4.94495 C13.0882, -5.5417 12.9463, -6.23744 12.6659, -6.88929  C12.4488, -7.39708 12.1501, -7.87658 11.8122, -8.2669  C11.5157, -8.61027 11.1898, -8.88457 10.8699, -9.06314  C10.3755, -9.34141 9.89888, -9.38388 9.55922, -9.18519 " /><path d="M9.55922, -9.18519 Q9.35879, -9.06912 9.22634, -8.85446 " /><path d="M12.749, -3.79004 Q12.9844, -3.83051 13.1832, -3.94517 " /><path d="M13.1832, -3.94517 C13.6385, -4.20415 13.918, -4.76086 13.9531, -5.46342 " /><path d="M14.0653, -5.52824 C14.1074, -6.26129 13.8798, -7.14402 13.4651, -7.91075  C13.2073, -8.39108 12.8807, -8.82459 12.53, -9.15768  C12.2814, -9.39444 12.0211, -9.58098 11.7674, -9.70574  C11.3136, -9.93047 10.8834, -9.9516 10.5695, -9.76849 " /><path d="M14.1935, -4.52847 C14.6488, -4.78744 14.9283, -5.34415 14.9634, -6.04672 " /><path d="M13.9531, -5.46342 C13.9861, -6.0584 13.8452, -6.75177 13.5664, -7.40194  C13.3474, -7.91578 13.0448, -8.4009 12.7024, -8.79433  C12.4063, -9.13559 12.0811, -9.40786 11.7621, -9.58482  C11.2698, -9.86026 10.7956, -9.90157 10.4572, -9.70367 " /><path d="M10.4572, -9.70367 Q10.2568, -9.5876 10.1244, -9.37293 " /><path d="M13.647, -4.30852 Q13.8824, -4.34899 14.0813, -4.46365 " /><path d="M14.0813, -4.46365 C14.5366, -4.72262 14.816, -5.27933 14.8511, -5.9819 " /><path d="M14.9634, -6.04672 C15.0054, -6.77976 14.7779, -7.66249 14.3631, -8.42922  C14.1054, -8.90955 13.7787, -9.34306 13.4281, -9.67615  C13.1937, -9.8985 12.9567, -10.0725 12.7169, -10.1981  C12.2444, -10.4467 11.7932, -10.4772 11.4676, -10.287 " /><path d="M15.0916, -5.04694 C15.5469, -5.30592 15.8264, -5.86262 15.8614, -6.56519 " /><path d="M14.8511, -5.9819 C14.8841, -6.57585 14.7437, -7.26785 14.4659, -7.91705  C14.2475, -8.43044 13.9456, -8.91534 13.6038, -9.30893  C13.307, -9.65167 12.981, -9.92516 12.6611, -10.1028  C12.1684, -10.3787 11.6938, -10.4202 11.3553, -10.2221 " /><path d="M11.3553, -10.2221 Q11.1548, -10.1061 11.0224, -9.89141 " /><path d="M14.545, -4.827 Q14.7804, -4.86746 14.9793, -4.98212 " /><path d="M14.9793, -4.98212 C15.4346, -5.2411 15.7141, -5.7978 15.7491, -6.50038 " /><path d="M15.8614, -6.56519 C15.9034, -7.29823 15.6759, -8.18095 15.2611, -8.94768  C15.0034, -9.42801 14.6768, -9.86152 14.3261, -10.1946  C14.0918, -10.417 13.8547, -10.5909 13.615, -10.7165  C13.1425, -10.9652 12.6913, -10.9957 12.3656, -10.8054 " /><path d="M15.9896, -5.56542 C16.4449, -5.82439 16.7244, -6.3811 16.7594, -7.08367 " /><path d="M15.7491, -6.50038 C15.7819, -7.09114 15.6433, -7.77889 15.3683, -8.42506  C15.1506, -8.93989 14.8488, -9.42659 14.5067, -9.82184  C14.2068, -10.1693 13.8768, -10.446 13.5533, -10.6245  C13.0627, -10.8975 12.5905, -10.9378 12.2533, -10.7406 " /><path d="M12.2533, -10.7406 Q12.0529, -10.6246 11.9204, -10.4099 " /><path d="M15.443, -5.34547 Q15.6784, -5.38594 15.8773, -5.5006 " /><path d="M15.8773, -5.5006 C16.3326, -5.75958 16.6121, -6.31628 16.6471, -7.01885 " /><path d="M16.7594, -7.08367 C16.8015, -7.81671 16.5739, -8.69943 16.1591, -9.46615  C15.9014, -9.94648 15.5748, -10.38 15.2241, -10.7131  C14.9898, -10.9354 14.7528, -11.1094 14.513, -11.235  C14.0405, -11.4836 13.5893, -11.5141 13.2636, -11.3239 " /><path d="M16.8876, -6.08389 C17.3429, -6.34287 17.6224, -6.89958 17.6574, -7.60215 " /><path d="M16.6471, -7.01885 C16.6798, -7.60744 16.5423, -8.2923 16.2694, -8.9364  C16.0492, -9.45911 15.7423, -9.95313 15.3943, -10.3524  C15.0972, -10.6942 14.771, -10.9665 14.4513, -11.143  C13.9607, -11.416 13.4886, -11.4563 13.1513, -11.2591 " /><path d="M13.1513, -11.2591 Q12.9509, -11.143 12.8184, -10.9284 " /><path d="M16.3411, -5.86395 Q16.5765, -5.90442 16.7753, -6.01908 " /><path d="M16.7753, -6.01908 C17.2307, -6.27805 17.5101, -6.83476 17.5452, -7.53733 " /><path d="M17.6574, -7.60215 C17.6995, -8.33518 17.4719, -9.2179 17.0572, -9.98462  C16.7994, -10.465 16.4728, -10.8985 16.1222, -11.2316  C15.8878, -11.4539 15.6508, -11.6279 15.4111, -11.7535  C14.9385, -12.0021 14.4873, -12.0326 14.1616, -11.8424 " /><path d="M17.7856, -6.60237 C18.2409, -6.86134 18.5204, -7.41805 18.5555, -8.12062 " /><path d="M17.5452, -7.53733 C17.5782, -8.1313 17.4378, -8.82332 17.1599, -9.47253  C16.9415, -9.98594 16.6396, -10.4708 16.2979, -10.8644  C16.0009, -11.2073 15.6748, -11.4808 15.3548, -11.6585  C14.8622, -11.9341 14.3878, -11.9755 14.0494, -11.7776 " /><path d="M14.0494, -11.7776 Q13.8489, -11.6615 13.7165, -11.4468 " /><path d="M17.2391, -6.38243 Q17.4745, -6.42289 17.6734, -6.53755 " /><path d="M17.6734, -6.53755 C18.1287, -6.79653 18.4082, -7.35324 18.4432, -8.05581 " /><path d="M18.5555, -8.12062 C18.5975, -8.85365 18.37, -9.73636 17.9552, -10.5031  C17.6975, -10.9834 17.3709, -11.4169 17.0202, -11.75  C16.7859, -11.9723 16.5489, -12.1463 16.3092, -12.2719  C15.8366, -12.5206 15.3853, -12.5511 15.0597, -12.3609 " /><path d="M18.6837, -7.12084 C19.139, -7.37982 19.4185, -7.93652 19.4535, -8.6391 " /><path d="M18.4432, -8.05581 C18.4763, -8.65164 18.3349, -9.34616 18.0553, -9.99714  C17.836, -10.5112 17.5329, -10.9963 17.1901, -11.3895  C16.8971, -11.7267 16.5758, -11.9962 16.2602, -12.1728  C15.765, -12.4521 15.2875, -12.495 14.9474, -12.2961 " /><path d="M14.9474, -12.2961 Q14.7469, -12.18 14.6145, -11.9653 " /><path d="M18.1371, -6.9009 Q18.3725, -6.94137 18.5714, -7.05603 " /><path d="M18.5714, -7.05603 C19.0267, -7.31501 19.3062, -7.87172 19.3412, -8.57428 " /><path d="M15.924 -12.8599 A3.175 1.83309 60 0 1 16.3385 -12.9979" />
<path d="M19.4535, -8.6391 C19.4955, -9.37212 19.268, -10.2548 18.8532, -11.0215  C18.5955, -11.5019 18.2689, -11.9354 17.9182, -12.2685  C17.3853, -12.7784 16.8002, -13.0445 16.3385, -12.9979 " /><path d="M19.3412, -8.57428 C19.374, -9.16436 19.2357, -9.85119 18.9614, -10.4967  C18.7423, -11.0154 18.4378, -11.5057 18.0927, -11.9028  C17.7982, -12.2426 17.4749, -12.5142 17.1575, -12.6917  C16.6626, -12.9707 16.1854, -13.0134 15.8454, -12.8145 " /><path d="M15.8454, -12.8145 Q15.645, -12.6985 15.5125, -12.4838 " /><path d="M19.7566, -9.16743 C19.7578, -8.62521 19.597, -8.1691 19.3064, -7.89568 " /><path id= "108" d=" M 19.7566 -9.16743 L 19.7566 -9.33256 " />
<path d="M17.5768, -12.5568 L17.6853, -12.5345 " /><path d="M19.7566, -9.16743 C19.7587, -9.77763 19.5512, -10.4924 19.1995, -11.1083  C18.8674, -11.6963 18.4094, -12.1864 17.9598, -12.4438 " /><path d="M17.9598, -12.4438 L17.9473, -12.451 " /><path d="M17.9473, -12.451 Q17.8139, -12.5056 17.6853, -12.5345 " /><path d="M17.9602 -12.4436 A2.54 1.46647 60 0 1 17.9605 -12.4434" />
<path d="M17.9605 -12.4434 A2.54 1.46647 60 0 1 19.7566 -9.33256" />
</g>

</svg>
