<svg xmlns="http://www.w3.org/2000/svg" viewBox="-5.5245 -5.5245 11.049 11.049">
<rect width="100%" height="100%" fill="white"/>
<g   fill="none"
   stroke="rgb(165, 165, 165)"
   stroke-dasharray="1.2,0.8"
   stroke-linecap="butt"
   stroke-linejoin="miter"
   stroke-width="0.25"
   transform="scale(1, -1)"
  >
<path id= "1" d=" M 4.7625 -4.7625 L 4.7625 4.7625 " />
<path id= "2" d=" M 4.7625 4.7625 L -4.7625 4.7625 " />
<path id= "3" d=" M -4.7625 -4.7625 L -4.7625 4.7625 " />
<path id= "4" d=" M 4.7625 -4.7625 L -4.7625 -4.7625 " />
<circle cx ="0" cy ="0" r ="3.175" /><path d="M3.175, 3.06254e-11 C3.17606, 0.6018 3.00011, 1.20337 2.67557, 1.70937  C2.39455, 2.15027 2.00324, 2.51813 1.54976, 2.77108  C0.969471, 3.09711 0.288938, 3.23115 -0.365638, 3.15388  C-0.986046, 3.08297 -1.58092, 2.82392 -2.05434, 2.42081 " /><path d="M-2.05434, 2.42081 C-2.2448, 2.26017 -2.41547, 2.0724 -2.54181, 1.90258  C-2.60963, 1.81258 -2.6679, 1.72136 -2.66817, 1.7209 " /><path d="M-2.66817, 1.7209 C-2.66693, 1.72319 -2.65345, 1.74357 -2.62771, 1.78206  C-2.59218, 1.8346 -2.54155, 1.90527 -2.48483, 1.97642  C-2.36602, 2.12623 -2.21839, 2.28202 -2.0542, 2.42093 " /><path d="M-2.0542, 2.42093 C-1.54331, 2.85611 -0.892288, 3.12183 -0.220515, 3.16733  C0.153014, 3.19348 0.532204, 3.15284 0.893969, 3.04655  C1.59755, 2.84241 2.23094, 2.38175 2.64263, 1.75987  C2.98665, 1.24549 3.17617, 0.624417 3.175, 1.9545e-10 " /><path d="M3.175, 3.06266e-11 C3.17904, -0.872123 2.80179, -1.73694 2.15973, -2.32727  C1.49758, -2.94816 0.55994, -3.25896 -0.341933, -3.15653  C-1.03305, -3.08335 -1.69619, -2.77438 -2.19679, -2.29232  C-2.81023, -1.70941 -3.17146, -0.872555 -3.17489, -0.0263435  C-3.18516, 0.80547 -2.85005, 1.63444 -2.26452, 2.22544  C-1.76451, 2.7369 -1.08671, 3.06972 -0.376268, 3.15263  C0.506155, 3.26232 1.42764, 2.97672 2.09337, 2.38714  C2.77475, 1.79572 3.1796, 0.902177 3.175, 2.66951e-11 " /><path d="M2.48763, 3.00291e-06 L3.175, 3.06286e-11 " /><path d="M2.48766, 3.00286e-06 Q2.39942, 3.38831e-06 2.39599, 3.40328e-06 " /><path d="M2.39599, 3.40328e-06 Q2.39942, 3.38828e-06 2.48763, 3.00291e-06 " /><path d="M3.175, 1.95451e-10 L2.48766, 3.00286e-06 " /><path d="M3.175, 2.66405e-11 C3.17904, -0.87212 2.80179, -1.73694 2.15974, -2.32726  C1.4976, -2.94814 0.559992, -3.25894 -0.341863, -3.15654  C-1.09014, -3.07779 -1.80471, -2.72107 -2.31737, -2.17035  C-2.85833, -1.59675 -3.17091, -0.815435 -3.17489, -0.0269939  C-3.18547, 0.8104 -2.84578, 1.64487 -2.25328, 2.23682  C-1.75534, 2.74098 -1.08386, 3.06912 -0.380135, 3.15216  C0.504709, 3.2633 1.42928, 2.97676 2.09622, 2.38464  C2.77592, 1.79323 3.17957, 0.900903 3.175, 2.29874e-11 " /><path d="M3.175, 1.95445e-10 C3.17678, -0.704994 2.93394, -1.40746 2.49713, -1.96086  C2.15352, -2.39958 1.69193, -2.74463 1.17389, -2.95002  C0.72054, -3.13087 0.225094, -3.20482 -0.261311, -3.16423  C-0.933069, -3.11024 -1.58443, -2.8344 -2.09065, -2.38952  C-2.7145, -1.84807 -3.11006, -1.05417 -3.16665, -0.230117  C-3.23088, 0.605929 -2.94453, 1.46133 -2.3899, 2.09021  C-1.9282, 2.62078 -1.28497, 2.98919 -0.593724, 3.11899  C-0.312508, 3.17234 -0.0292435, 3.18756 0.25607, 3.16466  C0.872828, 3.11582 1.47317, 2.88096 1.95935, 2.49832  C2.4549, 2.11111 2.83011, 1.57283 3.02194, 0.973909  C3.12365, 0.65724 3.17467, 0.332603 3.175, 1.69986e-10 " /><path d="M3.175, 2.29292e-11 C3.17904, -0.872116 2.80179, -1.73693 2.15974, -2.32726  C1.49763, -2.94812 0.560043, -3.25893 -0.341793, -3.15655  C-1.04678, -3.08203 -1.72248, -2.76183 -2.22658, -2.2634  C-2.82364, -1.68082 -3.1729, -0.854836 -3.17493, -0.0206471  C-3.18373, 0.811985 -2.84645, 1.64113 -2.25884, 2.2312  C-1.76097, 2.73783 -1.08825, 3.06797 -0.3829, 3.15183  C0.504639, 3.26413 1.43244, 2.97614 2.10041, 2.38095  C2.77764, 1.78956 3.17954, 0.899024 3.175, 1.95144e-11 " /><path d="M3.175, 1.69987e-10 C3.17677, -0.704065 2.93459, -1.40562 2.49884, -1.95868  C2.15226, -2.40203 1.68524, -2.74989 1.16123, -2.95503  C0.710175, -3.13271 0.218057, -3.20479 -0.265005, -3.16392  C-0.939521, -3.10894 -1.59317, -2.8302 -2.09979, -2.38149  C-2.71583, -1.84255 -3.10707, -1.05675 -3.16588, -0.240413  C-3.22623, 0.522162 -2.99732, 1.30281 -2.53471, 1.91204  C-2.07209, 2.52948 -1.3764, 2.96604 -0.6192, 3.11404  C-0.339986, 3.16937 -0.0584103, 3.18702 0.225528, 3.16698  C0.850582, 3.12359 1.46058, 2.88912 1.95377, 2.50268  C2.45191, 2.11525 2.82917, 1.57542 3.02176, 0.974473  C3.12359, 0.65763 3.17467, 0.332805 3.175, 1.46407e-10 " /><path d="M3.175, 1.95013e-11 C3.17904, -0.872113 2.80179, -1.73692 2.15975, -2.32725  C1.49765, -2.9481 0.560093, -3.25891 -0.341727, -3.15656  C-1.03269, -3.08344 -1.69571, -2.77463 -2.19631, -2.29278  C-2.81085, -1.7091 -3.17238, -0.870585 -3.17492, -0.0230344  C-3.18428, 0.806997 -2.84982, 1.63388 -2.26594, 2.22399  C-1.77015, 2.73173 -1.09928, 3.06388 -0.394918, 3.15034  C0.493937, 3.26629 1.42471, 2.98041 2.09527, 2.38547  C2.77553, 1.79406 3.17958, 0.901328 3.175, 1.63625e-11 " /><path d="M3.175, 1.46303e-10 C3.17676, -0.702985 2.93535, -1.40348 2.50083, -1.95614  C2.15564, -2.39862 1.69059, -2.74628 1.16852, -2.95215  C0.715899, -3.13175 0.221584, -3.20488 -0.263648, -3.16403  C-0.937478, -3.1094 -1.59059, -2.83147 -2.09717, -2.3838  C-2.71729, -1.84256 -3.11018, -1.05135 -3.16664, -0.230253  C-3.2309, 0.605768 -2.9446, 1.46116 -2.39004, 2.09006  C-1.9289, 2.62003 -1.28668, 2.98826 -0.596355, 3.11849  C-0.316466, 3.17183 -0.0344917, 3.1874 0.249568, 3.16518  C0.865634, 3.11766 1.46572, 2.88458 1.95234, 2.5038  C2.44785, 2.11884 2.82401, 1.58318 3.01788, 0.986405  C3.12228, 0.665891 3.17466, 0.337089 3.175, 1.24248e-10 " /><path d="M3.175, 1.63365e-11 C3.17904, -0.87211 2.8018, -1.73692 2.15976, -2.32724  C1.49767, -2.94809 0.560147, -3.2589 -0.341655, -3.15656  C-1.04265, -3.08247 -1.71477, -2.76556 -2.21792, -2.27188  C-2.82286, -1.68623 -3.17597, -0.851531 -3.17499, -0.00954426  C-3.18085, 0.821787 -2.8418, 1.64847 -2.25381, 2.23628  C-1.75641, 2.74014 -1.08571, 3.06832 -0.382647, 3.15186  C0.504353, 3.26401 1.43155, 2.97639 2.09937, 2.38186  C2.77721, 1.79047 3.17954, 0.899489 3.175, 1.35039e-11 " /><path d="M3.175, 1.24395e-10 C3.17674, -0.701783 2.93618, -1.4011 2.50304, -1.95331  C2.1561, -2.39909 1.68759, -2.74891 1.1616, -2.95488  C0.710628, -3.1326 0.218593, -3.20474 -0.26441, -3.16397  C-0.938643, -3.10914 -1.59207, -2.83074 -2.09868, -2.38247  C-2.71479, -1.84398 -3.10635, -1.05866 -3.16572, -0.242607  C-3.23383, 0.599528 -2.94583, 1.4626 -2.38564, 2.09508  C-1.92304, 2.62449 -1.27939, 2.99152 -0.588178, 3.12004  C-0.31731, 3.17095 -0.0444295, 3.18648 0.230464, 3.16662  C0.851407, 3.12252 1.45723, 2.8899 1.94811, 2.50709  C2.44986, 2.11869 2.8297, 1.57591 3.02273, 0.971472  C3.12392, 0.655554 3.17468, 0.33173 3.175, 1.04271e-10 " /><path d="M3.175, 1.34637e-11 C3.17904, -0.872108 2.8018, -1.73691 2.15976, -2.32724  C1.49769, -2.94807 0.560181, -3.25889 -0.341608, -3.15657  C-1.03329, -3.0834 -1.69698, -2.77405 -2.19779, -2.29137  C-2.81231, -1.70695 -3.17334, -0.867573 -3.17494, -0.0195309  C-3.18347, 0.814027 -2.84511, 1.64395 -2.25612, 2.23395  C-1.76102, 2.73649 -1.09372, 3.06486 -0.393482, 3.15052  C0.498872, 3.26656 1.43322, 2.97746 2.10412, 2.37766  C2.77916, 1.7863 3.1795, 0.897358 3.175, 1.08771e-11 " /><path d="M3.175, 1.0421e-10 C3.17673, -0.70026 2.93724, -1.39808 2.50584, -1.94971  C2.15936, -2.39624 1.69102, -2.74686 1.16498, -2.95355  C0.715459, -3.13129 0.224976, -3.2041 -0.256793, -3.1646  C-0.934636, -3.11114 -1.59197, -2.83167 -2.10077, -2.38062  C-2.73244, -1.82787 -3.12673, -1.01527 -3.17006, -0.177093  C-3.21843, 0.633769 -2.9385, 1.45778 -2.40626, 2.07136  C-1.94212, 2.61339 -1.28969, 2.98971 -0.588097, 3.12006  C-0.317169, 3.17097 -0.0442285, 3.18648 0.230724, 3.16661  C0.852225, 3.12242 1.45856, 2.88936 1.94965, 2.50589  C2.45122, 2.11715 2.83075, 1.57405 3.02339, 0.969413  C3.12414, 0.654129 3.17468, 0.330991 3.175, 8.58451e-11 " /><path d="M3.175, 1.08771e-11 C3.17904, -0.872103 2.8018, -1.73691 2.15977, -2.32723  C1.61867, -2.83232 0.895863, -3.1368 0.156487, -3.17114  C-0.704623, -3.21751 -1.57728, -2.89158 -2.19716, -2.29196  C-2.81108, -1.70843 -3.17224, -0.870497 -3.17491, -0.0235016  C-3.18455, 0.812968 -2.84475, 1.64616 -2.25278, 2.23732  C-1.7544, 2.74172 -1.08226, 3.06979 -0.378007, 3.15242  C0.507644, 3.26306 1.4328, 2.9753 2.09947, 2.38177  C2.77725, 1.79038 3.17954, 0.899445 3.175, 8.54028e-12 " /><path d="M3.175, 8.58495e-11 C3.17672, -0.698962 2.93814, -1.3955 2.50822, -1.94665  C2.16408, -2.39127 1.69925, -2.74116 1.17677, -2.94887  C0.724789, -3.12968 0.230829, -3.20421 -0.254384, -3.16479  C-0.924783, -3.11238 -1.57537, -2.83908 -2.08207, -2.397  C-2.70755, -1.85805 -3.10587, -1.0661 -3.16571, -0.242701  C-3.23385, 0.599416 -2.94588, 1.46248 -2.38574, 2.09497  C-1.92324, 2.62431 -1.27976, 2.99133 -0.5887, 3.11994  C-0.318243, 3.17082 -0.0457653, 3.18642 0.228732, 3.16675  C0.851371, 3.12288 1.4589, 2.88944 1.9507, 2.50507  C2.4482, 2.11912 2.82557, 1.58129 3.01927, 0.98217  C3.12275, 0.662958 3.17466, 0.335568 3.175, 6.9329e-11 " /><path d="M3.175, 8.57736e-12 C3.17904, -0.872101 2.8018, -1.7369 2.15978, -2.32723  C1.49774, -2.94804 0.560284, -3.25886 -0.341469, -3.15658  C-1.04517, -3.08227 -1.71974, -2.76319 -2.22359, -2.26634  C-2.82309, -1.68295 -3.17365, -0.854456 -3.17495, -0.0179533  C-3.18302, 0.813729 -2.84585, 1.64166 -2.25896, 2.23108  C-1.76151, 2.73733 -1.08949, 3.0674 -0.384751, 3.1516  C0.498748, 3.26387 1.42247, 2.97964 2.09004, 2.39005  C2.77339, 1.79862 3.17963, 0.903663 3.175, 6.52944e-12 " /><path d="M3.175, 6.93419e-11 C3.17682, -0.709223 2.93097, -1.41585 2.48929, -1.9708  C2.14714, -2.40406 1.6896, -2.74499 1.17658, -2.94895  C0.726432, -3.12899 0.234666, -3.20362 -0.248628, -3.16525  C-0.92626, -3.11356 -1.58399, -2.83606 -2.09385, -2.38672  C-2.72941, -1.83386 -3.12652, -1.01855 -3.17004, -0.177383  C-3.21849, 0.633476 -2.93863, 1.45751 -2.40645, 2.07114  C-1.9427, 2.6128 -1.29094, 2.98903 -0.589949, 3.11971  C-0.320559, 3.1705 -0.0491331, 3.18628 0.224328, 3.16707  C0.84745, 3.12403 1.4557, 2.89114 1.94821, 2.50701  C2.45019, 2.11841 2.83012, 1.57528 3.02304, 0.970491  C3.12403, 0.654875 3.17468, 0.331378 3.175, 5.46598e-11 " /><path d="M3.175, 6.54099e-12 C3.17904, -0.872094 2.80181, -1.73689 2.15979, -2.32721  C1.49779, -2.94799 0.560396, -3.25882 -0.341319, -3.1566  C-1.04228, -3.08259 -1.71442, -2.76577 -2.21762, -2.27218  C-2.82225, -1.68697 -3.17543, -0.852999 -3.17498, -0.0115366  C-3.18136, 0.819437 -2.84313, 1.64598 -2.25596, 2.23411  C-1.76131, 2.73612 -1.0948, 3.0643 -0.395303, 3.1503  C0.492403, 3.26618 1.422, 2.98134 2.09242, 2.38797  C2.77436, 1.79655 3.1796, 0.902602 3.175, 4.79328e-12 " /><path d="M3.175, 5.46139e-11 C3.1768, -0.707103 2.93246, -1.41165 2.49322, -1.96582  C2.14803, -2.40477 1.68454, -2.74942 1.16479, -2.95362  C0.715162, -3.13137 0.224557, -3.20414 -0.257312, -3.16456  C-0.936144, -3.11091 -1.59436, -2.83058 -2.10341, -2.3783  C-2.72586, -1.83222 -3.11747, -1.0337 -3.16823, -0.207298  C-3.22631, 0.627773 -2.93494, 1.47965 -2.37759, 2.10421  C-1.91788, 2.62618 -1.28167, 2.98871 -0.598262, 3.11813  C-0.319709, 3.17139 -0.0390444, 3.18723 0.243732, 3.16563  C0.864861, 3.1189 1.47006, 2.88348 1.95949, 2.4982  C2.45512, 2.1109 2.83034, 1.57247 3.0221, 0.973401  C3.12371, 0.656888 3.17467, 0.332421 3.175, 4.17946e-11 " /><path d="M3.175, 4.74065e-12 C3.17904, -0.872091 2.80181, -1.73688 2.1598, -2.32721  C1.49781, -2.94798 0.560444, -3.25881 -0.341255, -3.15661  C-1.04251, -3.08258 -1.71488, -2.76556 -2.21816, -2.27165  C-2.82331, -1.68568 -3.17637, -0.850464 -3.17499, -0.00810531  C-3.18036, 0.816783 -2.8464, 1.63706 -2.2663, 2.22363  C-1.76677, 2.73542 -1.08934, 3.06877 -0.379062, 3.15229  C0.508848, 3.26355 1.43656, 2.97423 2.10384, 2.37791  C2.77904, 1.78655 3.17951, 0.897485 3.175, 3.26539e-12 " /><path d="M3.175, 4.16851e-11 C3.17678, -0.705878 2.93332, -1.40922 2.49549, -1.96294  C2.15118, -2.40181 1.68873, -2.74672 1.1699, -2.9516  C0.719297, -3.13064 0.2273, -3.20416 -0.255962, -3.16467  C-0.931879, -3.11152 -1.58748, -2.8337 -2.09578, -2.38502  C-2.71526, -1.84495 -3.1084, -1.05558 -3.16623, -0.235835  C-3.22536, 0.525484 -2.99626, 1.30441 -2.53436, 1.91249  C-2.07158, 2.52992 -1.3757, 2.96638 -0.618379, 3.1142  C-0.332959, 3.17068 -0.0451974, 3.18779 0.244905, 3.16554  C0.859852, 3.11902 1.45916, 2.88764 1.94583, 2.50886  C2.43704, 2.12925 2.8119, 1.60189 3.00899, 1.01321  C3.11928, 0.684477 3.17462, 0.34674 3.175, 3.02189e-11 " /><path d="M3.175, 3.28759e-12 C3.17904, -0.872087 2.80182, -1.73687 2.15981, -2.3272  C1.49784, -2.94795 0.560509, -3.25879 -0.341167, -3.15662  C-1.04367, -3.08248 -1.71719, -2.76446 -2.22079, -2.26908  C-2.82216, -1.68535 -3.17388, -0.855239 -3.17495, -0.0171486  C-3.18275, 0.811413 -2.84802, 1.63623 -2.26492, 2.22503  C-1.76545, 2.73612 -1.08847, 3.06894 -0.378728, 3.15233  C0.504424, 3.26283 1.427, 2.97729 2.09335, 2.38716  C2.77474, 1.79574 3.1796, 0.902187 3.175, 2.05636e-12 " /><path d="M3.175, 3.02824e-11 C3.17675, -0.702076 2.93598, -1.40168 2.5025, -1.954  C2.15905, -2.39502 1.69662, -2.7421 1.17722, -2.94869  C0.721888, -3.13093 0.223935, -3.20526 -0.264769, -3.16394  C-0.939176, -3.10902 -1.59274, -2.83041 -2.09936, -2.38187  C-2.71543, -1.84311 -3.10679, -1.05749 -3.16582, -0.241262  C-3.22636, 0.521166 -2.99775, 1.30174 -2.53546, 1.91104  C-2.07321, 2.5285 -1.37794, 2.96526 -0.621033, 3.11367  C-0.335289, 3.17047 -0.047172, 3.1878 0.243319, 3.16566  C0.864281, 3.11903 1.46934, 2.88381 1.95875, 2.49878  C2.45396, 2.11203 2.82908, 1.57445 3.0212, 0.9762  C3.1234, 0.658825 3.17467, 0.333425 3.175, 2.08975e-11 " /><path d="M3.175, 2.08766e-12 C3.17904, -0.872085 2.80182, -1.73687 2.15981, -2.32719  C1.49785, -2.94794 0.560539, -3.25878 -0.341127, -3.15662  C-1.08272, -3.07869 -1.79138, -2.72793 -2.30307, -2.18552  C-2.85364, -1.60947 -3.17205, -0.819632 -3.17492, -0.0227833  C-3.18435, 0.812941 -2.845, 1.64533 -2.25385, 2.23624  C-1.75648, 2.74008 -1.08584, 3.06826 -0.38282, 3.15184  C0.504814, 3.26413 1.43271, 2.97604 2.10068, 2.38071  C2.77775, 1.78932 3.17953, 0.898903 3.175, 1.19105e-12 " /><path d="M3.175, 2.08737e-11 C3.17672, -0.699485 2.93778, -1.39654 2.50726, -1.94788  C2.15984, -2.39631 1.68959, -2.74818 1.16137, -2.95497  C0.710348, -3.13267 0.218259, -3.20477 -0.264782, -3.16394  C-0.939196, -3.10901 -1.59277, -2.8304 -2.09938, -2.38185  C-2.71545, -1.84307 -3.10681, -1.05744 -3.16582, -0.241212  C-3.22635, 0.521225 -2.99772, 1.30181 -2.53541, 1.9111  C-2.07314, 2.52856 -1.37784, 2.96531 -0.62092, 3.11369  C-0.337568, 3.17001 -0.0518379, 3.18751 0.236269, 3.1662  C0.859427, 3.1208 1.46698, 2.88548 1.95813, 2.49927  C2.45261, 2.11328 2.82745, 1.57695 3.01999, 0.979946  C3.123, 0.661418 3.17467, 0.334769 3.175, 1.30793e-11 " /><path d="M3.175, 1.13509e-12 C3.17904, -0.872085 2.80182, -1.73687 2.15981, -2.32719  C1.49786, -2.94794 0.560545, -3.25878 -0.341118, -3.15662  C-1.04251, -3.08261 -1.71501, -2.76551 -2.21835, -2.27147  C-2.82237, -1.68646 -3.17523, -0.853136 -3.17498, -0.0122586  C-3.18154, 0.818446 -2.84373, 1.64481 -2.25703, 2.23303  C-1.75528, 2.74284 -1.07632, 3.07339 -0.36557, 3.15388  C0.513138, 3.26004 1.42931, 2.97461 2.09226, 2.38811  C2.7743, 1.79668 3.17961, 0.902671 3.175, 5.28022e-13 " /><path d="M3.175, 1.31277e-11 C3.17678, -0.705899 2.93331, -1.40926 2.49545, -1.96299  C2.15112, -2.40186 1.68865, -2.74677 1.16981, -2.95164  C0.719042, -3.13073 0.226855, -3.20422 -0.256568, -3.16462  C-0.93394, -3.11124 -1.59085, -2.83218 -2.09954, -2.38172  C-2.7156, -1.84287 -3.10691, -1.05717 -3.16585, -0.240904  C-3.22631, 0.521588 -2.99756, 1.3022 -2.53514, 1.91147  C-2.07273, 2.52892 -1.37728, 2.9656 -0.620243, 3.11383  C-0.340021, 3.16946 -0.0574246, 3.18713 0.227545, 3.16684  C0.851966, 3.12308 1.46124, 2.88865 1.95394, 2.50255  C2.45249, 2.11476 2.82993, 1.57429 3.02233, 0.972693  C3.12379, 0.656399 3.17468, 0.332167 3.175, 7.10942e-12 " /><path d="M3.175, 4.80282e-13 C3.17904, -0.872078 2.80182, -1.73686 2.15983, -2.32718  C1.4979, -2.9479 0.560646, -3.25875 -0.340983, -3.15664  C-1.06062, -3.08088 -1.74962, -2.74873 -2.25712, -2.23294  C-2.83905, -1.64932 -3.17632, -0.831541 -3.17499, -0.00737091  C-3.18017, 0.81764 -2.84592, 1.63796 -2.26553, 2.22441  C-1.7657, 2.73616 -1.08794, 3.06931 -0.377443, 3.15248  C0.50989, 3.2632 1.43677, 2.97392 2.10364, 2.3781  C2.77896, 1.78673 3.17951, 0.897577 3.175, 6.17284e-14 " /><path d="M3.175, 7.10498e-12 C3.17681, -0.708127 2.93174, -1.41367 2.49133, -1.96823  C2.14552, -2.40709 1.68137, -2.75142 1.16108, -2.95508  C0.716176, -3.1303 0.231336, -3.20284 -0.245366, -3.1655  C-0.925645, -3.11434 -1.58607, -2.83554 -2.09723, -2.38375  C-2.71737, -1.84246 -3.11025, -1.05119 -3.16666, -0.230043  C-3.23086, 0.606018 -2.94448, 1.46143 -2.38983, 2.0903  C-1.92788, 2.62111 -1.28424, 2.98959 -0.592611, 3.1192  C-0.317133, 3.17137 -0.0396024, 3.18694 0.239982, 3.16592  C0.862966, 3.1198 1.47013, 2.88385 1.96078, 2.49719  C2.45692, 2.10907 2.83222, 1.56945 3.02344, 0.969257  C3.12416, 0.654022 3.17468, 0.330936 3.175, 3.00426e-12 " /><path d="M-3.08729 -0.741137 A3.175 3.175 0 0 1 -1.65892 -2.70714" /><path d="M3.175, 1.21458e-13 C3.17904, -0.872075 2.80183, -1.73685 2.15984, -2.32717  C1.76067, -2.69852 1.26406, -2.9638 0.733471, -3.08912  C-0.0730096, -3.28403 -0.95321, -3.1435 -1.65892, -2.70714 " /><path d="M3.175, 3.04823e-12 C3.17674, -0.701252 2.93655, -1.40005 2.50402, -1.95206  C2.15838, -2.39662 1.69189, -2.74589 1.16799, -2.95236  C0.720855, -3.12967 0.233059, -3.20315 -0.246467, -3.16542  C-0.926406, -3.11404 -1.58644, -2.83526 -2.09733, -2.38366  C-2.58598, -1.95542 -2.93687, -1.37323 -3.08729, -0.741137 " /><path d="M2.74223, -4.44089e-16 C2.78187, 0.770839 2.47597, 1.55251 1.92423, 2.10028  C1.36087, 2.67033 0.547666, 2.98292 -0.25806, 2.94344  C-1.10691, 2.91018 -1.93142, 2.48833 -2.464, 1.82001  C-3.03642, 1.11699 -3.26915, 0.152077 -3.08729, -0.741137 " /><path d="M2.54 0 A2.54 2.54 0 0 1 -2.42141 0.767041" /><path d="M-1.65892, -2.70714 C-2.19162, -2.26182 -2.56285, -1.63636 -2.68278, -0.96933  C-2.79326, -0.373744 -2.70061, 0.250454 -2.42141, 0.767041 " /><path d="M-2.42141, 0.767041 Q-2.45364, 0.579138 -2.45697, 0.389135 " /><path d="M-2.45697, 0.389135 C-2.46211, 0.160547 -2.45018, -0.100331 -2.3977, -0.355256  C-2.32345, -0.727442 -2.16756, -1.0942 -1.93834, -1.40833 " /><path d="M-1.93834, -1.40833 C-1.71053, -1.72324 -1.41009, -1.98472 -1.07925, -2.17031  C-0.852888, -2.29914 -0.608286, -2.39118 -0.38914, -2.45697 " /><path d="M2.74223, 4.44089e-16 C2.71187, -0.715458 2.38455, -1.41028 1.85275, -1.88151  C1.34569, -2.33837 0.656635, -2.58173 -0.0187505, -2.53993 " /><path d="M-0.0187505, -2.53993 Q-0.20741, -2.51251 -0.38914, -2.45697 " /><path d="M-0.0187505 -2.53993 A2.54 2.54 0 0 1 2.54 -6.22121e-16" /></g>
<g   fill="none"
   stroke="rgb(165, 165, 165)"
   stroke-dasharray="1.2,0.8"
   stroke-linecap="butt"
   stroke-linejoin="miter"
   stroke-width="0.25"
   transform="scale(1, -1)"
  >
<path d="M-2.66817, 1.7209 C-2.3059, 2.19449 -1.78932, 2.54727 -1.21636, 2.71236  C-0.752111, 2.84781 -0.252935, 2.86076 0.217714, 2.74956  C0.915994, 2.58815 1.54424, 2.14817 1.9346, 1.54711  C2.23442, 1.09082 2.3969, 0.545985 2.39599, 3.40328e-06 " /><path d="M2.39599, 3.40328e-06 C2.39665, -0.443707 2.27039, -0.88661 2.03589, -1.26329  C1.79668, -1.65016 1.44447, -1.96586 1.03384, -2.16148  C0.569687, -2.38478 0.0325664, -2.45166 -0.47217, -2.34901  C-0.9824, -2.24769 -1.4562, -1.97401 -1.7989, -1.58266  C-2.16052, -1.17383 -2.37455, -0.638128 -2.39421, -0.0926717  C-2.41857, 0.488422 -2.22088, 1.07507 -1.84976, 1.52288  C-1.39698, 2.0795 -0.683201, 2.4102 0.0341717, 2.39574  C0.571697, 2.38947 1.10448, 2.19466 1.51927, 1.85272  C2.06893, 1.40715 2.40001, 0.707567 2.39599, 3.17641e-06 " /><path d="M2.39599, 3.17641e-06 C2.39665, -0.443706 2.27039, -0.886609 2.03589, -1.26328  C1.79668, -1.65016 1.44447, -1.96586 1.03383, -2.16148  C0.569681, -2.38478 0.0325581, -2.45165 -0.47218, -2.349  C-0.982414, -2.24768 -1.45622, -1.974 -1.79891, -1.58264  C-2.16022, -1.17415 -2.3742, -0.639013 -2.39415, -0.0940329  C-2.41797, 0.469979 -2.23311, 1.03956 -1.88262, 1.48209  C-1.55541, 1.89984 -1.08515, 2.20252 -0.569401, 2.32735  C-0.0845456, 2.44704 0.437393, 2.40912 0.899853, 2.22059  C1.33898, 2.04369 1.72329, 1.73185 1.98707, 1.33879  C2.25229, 0.946716 2.39697, 0.473427 2.39598, 2.94953e-06 " /><path d="M2.39598, 2.94953e-06 C2.39664, -0.443706 2.27038, -0.886608 2.03588, -1.26328  C1.79667, -1.65015 1.44447, -1.96586 1.03383, -2.16147  C0.569678, -2.38478 0.0325544, -2.45165 -0.472184, -2.349  C-0.98242, -2.24767 -1.45622, -1.97399 -1.79892, -1.58262  C-2.16009, -1.17429 -2.37404, -0.63939 -2.39412, -0.0946144  C-2.41827, 0.473097 -2.23088, 1.04646 -1.8761, 1.49032  C-1.53931, 1.91659 -1.05296, 2.22128 -0.522452, 2.33832  C0.116608, 2.48418 0.812537, 2.35044 1.352, 1.97808  C1.75521, 1.70364 2.07037, 1.30259 2.24169, 0.845909  C2.34411, 0.573247 2.39554, 0.291278 2.39598, 2.72265e-06 " /><path d="M2.39598, 2.72265e-06 C2.39664, -0.443706 2.27038, -0.886607 2.03588, -1.26328  C1.79667, -1.65015 1.44447, -1.96586 1.03383, -2.16147  C0.569677, -2.38477 0.0325535, -2.45165 -0.472185, -2.349  C-0.98242, -2.24767 -1.45622, -1.97398 -1.79892, -1.58262  C-2.16007, -1.17431 -2.37401, -0.639461 -2.39411, -0.094725  C-2.41832, 0.473709 -2.23043, 1.04781 -1.87481, 1.49192  C-1.45449, 2.02561 -0.797622, 2.36271 -0.118966, 2.39302  C0.421687, 2.42134 0.969719, 2.2584 1.40708, 1.93929  C2.02149, 1.49981 2.40112, 0.755394 2.39598, 2.49576e-06 " /><path d="M2.39598, 2.49576e-06 C2.39664, -0.443705 2.27038, -0.886606 2.03588, -1.26328  C1.79667, -1.65015 1.44446, -1.96585 1.03383, -2.16147  C0.569676, -2.38477 0.0325519, -2.45164 -0.472186, -2.34899  C-0.982421, -2.24766 -1.45622, -1.97398 -1.79892, -1.58261  C-2.16001, -1.17436 -2.37395, -0.639608 -2.3941, -0.0949534  C-2.41844, 0.474904 -2.22957, 1.05046 -1.87229, 1.49507  C-1.4432, 2.03833 -0.768547, 2.37632 -0.0765189, 2.39475  C0.518518, 2.41584 1.11759, 2.20366 1.56671, 1.81276  C2.08856, 1.36645 2.39956, 0.68667 2.39597, 2.26888e-06 " /><path d="M2.39597, 2.26888e-06 C2.39663, -0.443705 2.27037, -0.886605 2.03588, -1.26328  C1.79667, -1.65015 1.44446, -1.96585 1.03383, -2.16147  C0.569675, -2.38477 0.0325536, -2.45164 -0.472183, -2.34899  C-0.982416, -2.24766 -1.45622, -1.97398 -1.79891, -1.58262  C-2.16008, -1.17429 -2.37403, -0.639406 -2.39411, -0.0946434  C-2.41827, 0.473259 -2.23075, 1.04681 -1.87575, 1.49075  C-1.53721, 1.91907 -1.0476, 2.22449 -0.514038, 2.34018  C0.135862, 2.48619 0.843287, 2.34276 1.38498, 1.95512  C2.01197, 1.51753 2.40136, 0.764589 2.39597, 2.042e-06 " /><path d="M2.39597, 2.042e-06 C2.39663, -0.443704 2.27037, -0.886604 2.03587, -1.26328  C1.79666, -1.65015 1.44446, -1.96585 1.03383, -2.16146  C0.569673, -2.38476 0.0325498, -2.45164 -0.472187, -2.34899  C-0.982422, -2.24766 -1.45622, -1.97397 -1.79892, -1.5826  C-2.15995, -1.17442 -2.37387, -0.639786 -2.39408, -0.09523  C-2.41855, 0.475864 -2.22884, 1.05269 -1.87014, 1.49775  C-1.45037, 2.02727 -0.797227, 2.36173 -0.122227, 2.39285  C0.41184, 2.4215 0.953428, 2.26368 1.38851, 1.95262  C2.01349, 1.51471 2.40132, 0.763113 2.39597, 1.81511e-06 " /><path d="M2.39597, 1.81511e-06 C2.39663, -0.443704 2.27037, -0.886603 2.03587, -1.26327  C1.79666, -1.65014 1.44446, -1.96584 1.03382, -2.16146  C0.569675, -2.38476 0.0325552, -2.45163 -0.472179, -2.34898  C-0.98241, -2.24766 -1.45621, -1.97398 -1.7989, -1.58262  C-2.16015, -1.1742 -2.37411, -0.639183 -2.39412, -0.0943036  C-2.41809, 0.471419 -2.23206, 1.04275 -1.87959, 1.4859  C-1.54297, 1.91403 -1.05574, 2.22029 -0.523988, 2.33796  C0.111939, 2.4835 0.804422, 2.35229 1.34301, 1.98418  C1.66589, 1.76615 1.93415, 1.46745 2.11642, 1.12312  C2.29941, 0.779178 2.3964, 0.389609 2.39596, 1.58823e-06 " /><path d="M2.39596, 1.58823e-06 C2.39662, -0.443704 2.27036, -0.886602 2.03587, -1.26327  C1.79666, -1.65014 1.44445, -1.96584 1.03382, -2.16146  C0.569663, -2.38476 0.0325342, -2.45163 -0.472207, -2.34897  C-0.982449, -2.24764 -1.45625, -1.97394 -1.79895, -1.58256  C-2.15934, -1.17507 -2.37316, -0.641555 -2.39397, -0.0979531  C-2.41929, 0.4771 -2.22732, 1.05816 -1.86437, 1.50492  C-1.43474, 2.04292 -0.76335, 2.37681 -0.0750883, 2.39478  C0.514578, 2.41527 1.10815, 2.20688 1.55561, 1.82229  C2.08397, 1.37604 2.39965, 0.691602 2.39596, 1.36134e-06 " /><path d="M2.39596, 1.36134e-06 C2.39662, -0.443703 2.27036, -0.886601 2.03586, -1.26327  C1.79665, -1.65014 1.44445, -1.96584 1.03382, -2.16145  C0.569662, -2.38476 0.032534, -2.45163 -0.472206, -2.34897  C-0.982448, -2.24764 -1.45625, -1.97394 -1.79894, -1.58256  C-2.15934, -1.17506 -2.37316, -0.641551 -2.39396, -0.0979485  C-2.41929, 0.477104 -2.22732, 1.05816 -1.86436, 1.50492  C-1.43473, 2.04292 -0.763328, 2.37682 -0.0750593, 2.39478  C0.514906, 2.41528 1.10878, 2.20665 1.5563, 1.82168  C2.08427, 1.37544 2.39964, 0.691268 2.39596, 1.13445e-06 " /><path d="M2.39596, 1.13445e-06 C2.39662, -0.443703 2.27036, -0.886599 2.03586, -1.26327  C1.79665, -1.65014 1.44445, -1.96584 1.03382, -2.16145  C0.569661, -2.38475 0.0325342, -2.45162 -0.472205, -2.34897  C-0.982446, -2.24763 -1.45625, -1.97394 -1.79894, -1.58256  C-2.15936, -1.17504 -2.37319, -0.641479 -2.39397, -0.0978394  C-2.41926, 0.477231 -2.22726, 1.0583 -1.86426, 1.50504  C-1.43447, 2.04317 -0.762791, 2.37704 -0.0743245, 2.3948  C0.522991, 2.41544 1.12413, 2.20096 1.57346, 1.80687  C2.09133, 1.36055 2.39948, 0.683649 2.39595, 9.07565e-07 " /><path d="M2.39595, 9.07565e-07 C2.39661, -0.443702 2.27035, -0.886598 2.03586, -1.26327  C1.79665, -1.65013 1.44445, -1.96583 1.03382, -2.16145  C0.569661, -2.38475 0.0325348, -2.45162 -0.472204, -2.34896  C-0.982443, -2.24763 -1.45625, -1.97393 -1.79894, -1.58256  C-2.1594, -1.17499 -2.37323, -0.641365 -2.39397, -0.0976647  C-2.41923, 0.477433 -2.22716, 1.05851 -1.8641, 1.50524  C-1.43406, 2.04356 -0.761935, 2.37741 -0.0731527, 2.39483  C0.508388, 2.41449 1.09367, 2.21181 1.53851, 1.83672  C2.0769, 1.39072 2.39979, 0.699126 2.39595, 6.80675e-07 " /><path d="M2.39595, 6.80675e-07 C2.39661, -0.443702 2.27035, -0.886597 2.03585, -1.26327  C1.79665, -1.65013 1.44445, -1.96583 1.03381, -2.16144  C0.569663, -2.38475 0.0325414, -2.45162 -0.472194, -2.34896  C-0.982429, -2.24763 -1.45623, -1.97394 -1.79892, -1.58257  C-2.15967, -1.1747 -2.37354, -0.640558 -2.39402, -0.0964262  C-2.41899, 0.478874 -2.22648, 1.06004 -1.86296, 1.50664  C-1.41589, 2.06611 -0.706904, 2.40287 0.00920856, 2.39593  C0.566142, 2.39539 1.11985, 2.19188 1.54457, 1.83163  C2.07941, 1.38553 2.39973, 0.696458 2.39594, 4.53784e-07 " /><path d="M2.39594, 4.53784e-07 C2.39661, -0.443701 2.27035, -0.886596 2.03585, -1.26326  C1.79664, -1.65013 1.44444, -1.96583 1.03381, -2.16144  C0.569656, -2.38474 0.0325289, -2.45161 -0.47221, -2.34896  C-0.982451, -2.24762 -1.45625, -1.97392 -1.79894, -1.58254  C-2.15912, -1.17529 -2.3729, -0.642174 -2.39391, -0.0989103  C-2.41946, 0.475977 -2.22783, 1.05696 -1.86524, 1.50381  C-1.437, 2.04067 -0.768148, 2.3747 -0.0816934, 2.39455  C0.508118, 2.41668 1.10247, 2.20977 1.55103, 1.82615  C2.08208, 1.37996 2.39967, 0.693598 2.39594, 2.26892e-07 " /><path d="M2.39594, 2.26892e-07 C2.39617, -0.340541 2.3225, -0.680863 2.18146, -0.990821  C1.99142, -1.41107 1.67666, -1.77362 1.28725, -2.02078  C0.871416, -2.28685 0.37178, -2.41884 -0.121205, -2.39287  C-0.834419, -2.36089 -1.52206, -1.98833 -1.93834, -1.40833 " /></g>
<g   fill="none"
   stroke="rgb(0, 0, 0)"
   stroke-linecap="butt"
   stroke-linejoin="miter"
   stroke-width="0.35"
   transform="scale(1, -1)"
  >
<path d="M4.7625 0 A4.7625 4.7625 0 0 1 9.10788e-13 4.7625" /><path d="M8.54589e-09 -4.7625 A4.7625 4.7625 0 0 1 4.7625 -1.16648e-15" /><path d="M-4.7625 -1.32677e-08 A4.7625 4.7625 0 0 1 8.54589e-09 -4.7625" /><path d="M9.10788e-13 4.7625 A4.7625 4.7625 0 0 1 -4.7625 -1.32677e-08" /><path d="M4.7625, 4.7625 C4.62421, 4.7625 4.48593, 4.7625 4.34764, 4.7625  C4.21511, 4.7625 4.08257, 4.7625 3.95003, 4.7625  C3.82271, 4.7625 3.69539, 4.7625 3.56807, 4.7625  C3.44547, 4.7625 3.32286, 4.7625 3.20026, 4.7625  C3.08188, 4.7625 2.96351, 4.7625 2.84514, 4.7625  C2.73052, 4.7625 2.61591, 4.7625 2.50129, 4.7625  C2.38998, 4.7625 2.27867, 4.7625 2.16737, 4.7625  C1.40029, 4.7625 0.699421, 4.7625 9.09939e-13, 4.7625 " /><path d="M4.7625, 0 C4.7625, 0.699421 4.7625, 1.40029 4.7625, 2.16737  C4.7625, 2.27867 4.7625, 2.38998 4.7625, 2.50129  C4.7625, 2.61591 4.7625, 2.73052 4.7625, 2.84514  C4.7625, 2.96351 4.7625, 3.08188 4.7625, 3.20026  C4.7625, 3.32286 4.7625, 3.44547 4.7625, 3.56807  C4.7625, 3.69539 4.7625, 3.82271 4.7625, 3.95003  C4.7625, 4.08257 4.7625, 4.21511 4.7625, 4.34764  C4.7625, 4.48593 4.7625, 4.62421 4.7625, 4.7625 " /><path d="M-4.7625, -1.32677e-08 C-4.7625, 0.699421 -4.7625, 1.40029 -4.7625, 2.16737  C-4.7625, 2.27867 -4.7625, 2.38998 -4.7625, 2.50129  C-4.7625, 2.61591 -4.7625, 2.73052 -4.7625, 2.84514  C-4.7625, 2.96351 -4.7625, 3.08188 -4.7625, 3.20026  C-4.7625, 3.32286 -4.7625, 3.44547 -4.7625, 3.56807  C-4.7625, 3.69539 -4.7625, 3.82271 -4.7625, 3.95003  C-4.7625, 4.08257 -4.7625, 4.21511 -4.7625, 4.34764  C-4.7625, 4.48593 -4.7625, 4.62421 -4.7625, 4.7625 " /><path d="M9.09939e-13, 4.7625 C-0.699421, 4.7625 -1.40029, 4.7625 -2.16737, 4.7625  C-2.27867, 4.7625 -2.38998, 4.7625 -2.50129, 4.7625  C-2.61591, 4.7625 -2.73052, 4.7625 -2.84514, 4.7625  C-2.96351, 4.7625 -3.08188, 4.7625 -3.20026, 4.7625  C-3.32286, 4.7625 -3.44547, 4.7625 -3.56807, 4.7625  C-3.69539, 4.7625 -3.82271, 4.7625 -3.95003, 4.7625  C-4.08257, 4.7625 -4.21511, 4.7625 -4.34764, 4.7625  C-4.48593, 4.7625 -4.62421, 4.7625 -4.7625, 4.7625 " /><path d="M-4.7625, -4.7625 C-4.7625, -4.62421 -4.7625, -4.48593 -4.7625, -4.34764  C-4.7625, -4.21511 -4.7625, -4.08257 -4.7625, -3.95003  C-4.7625, -3.82271 -4.7625, -3.69539 -4.7625, -3.56807  C-4.7625, -3.44547 -4.7625, -3.32286 -4.7625, -3.20026  C-4.7625, -3.08188 -4.7625, -2.96351 -4.7625, -2.84514  C-4.7625, -2.73052 -4.7625, -2.61591 -4.7625, -2.50129  C-4.7625, -2.38998 -4.7625, -2.27867 -4.7625, -2.16737  C-4.7625, -1.40029 -4.7625, -0.699421 -4.7625, -1.32677e-08 " /><path d="M8.54589e-09, -4.7625 C-0.699421, -4.7625 -1.40029, -4.7625 -2.16737, -4.7625  C-2.27867, -4.7625 -2.38998, -4.7625 -2.50129, -4.7625  C-2.61591, -4.7625 -2.73052, -4.7625 -2.84514, -4.7625  C-2.96351, -4.7625 -3.08188, -4.7625 -3.20026, -4.7625  C-3.32286, -4.7625 -3.44547, -4.7625 -3.56807, -4.7625  C-3.69539, -4.7625 -3.82271, -4.7625 -3.95003, -4.7625  C-4.08257, -4.7625 -4.21511, -4.7625 -4.34764, -4.7625  C-4.48593, -4.7625 -4.62421, -4.7625 -4.7625, -4.7625 " /><path d="M4.7625, -4.7625 C4.62421, -4.7625 4.48593, -4.7625 4.34764, -4.7625  C4.21511, -4.7625 4.08257, -4.7625 3.95003, -4.7625  C3.82271, -4.7625 3.69539, -4.7625 3.56807, -4.7625  C3.44547, -4.7625 3.32286, -4.7625 3.20026, -4.7625  C3.08188, -4.7625 2.96351, -4.7625 2.84514, -4.7625  C2.73052, -4.7625 2.61591, -4.7625 2.50129, -4.7625  C2.38998, -4.7625 2.27867, -4.7625 2.16737, -4.7625  C1.40029, -4.7625 0.699421, -4.7625 8.54589e-09, -4.7625 " /><path d="M4.7625, -4.7625 C4.7625, -4.62421 4.7625, -4.48593 4.7625, -4.34764  C4.7625, -4.21511 4.7625, -4.08257 4.7625, -3.95003  C4.7625, -3.82271 4.7625, -3.69539 4.7625, -3.56807  C4.7625, -3.44547 4.7625, -3.32286 4.7625, -3.20026  C4.7625, -3.08188 4.7625, -2.96351 4.7625, -2.84514  C4.7625, -2.73052 4.7625, -2.61591 4.7625, -2.50129  C4.7625, -2.38998 4.7625, -2.27867 4.7625, -2.16737  C4.7625, -1.40029 4.7625, -0.699421 4.7625, 0 " /></g>

</svg>
