<svg xmlns="http://www.w3.org/2000/svg" viewBox="-9.9692244 -10.0211444 46.707318799999996 34.0265388">
<rect width="100%" height="100%" fill="white"/>
<g   fill="none"
   stroke="rgb(0, 0, 0)"
   stroke-linecap="butt"
   stroke-linejoin="miter"
   stroke-width="0.35"
   transform="scale(1, -1)"
  >
<path id= "1" d=" M 0.181981 -3.56917 L 17.972 -13.8402 " />
<path id= "2" d=" M 3.33271 1.53996 L 20.6634 -8.46594 " />
<path id= "3" d=" M 21.2086 -8.78069 L 21.3255 -8.84819 " />
<path id= "4" d=" M 18.5906 -14.1974 L 18.6791 -14.2485 " />
<path id= "5" d=" M 21.9442 -9.20539 L 22.0326 -9.25644 " />
<path id= "6" d=" M 19.2977 -14.6057 L 19.3862 -14.6567 " />
<path id= "7" d=" M 22.6513 -9.61364 L 22.7397 -9.66468 " />
<path id= "8" d=" M 20.0049 -15.0139 L 20.0933 -15.065 " />
<path id= "9" d=" M 23.3584 -10.0219 L 23.4468 -10.0729 " />
<path id= "10" d=" M 20.712 -15.4222 L 20.8004 -15.4732 " />
<path id= "11" d=" M 24.0655 -10.4301 L 24.1539 -10.4812 " />
<path id= "12" d=" M 21.4191 -15.8304 L 21.5075 -15.8815 " />
<path id= "13" d=" M 24.7726 -10.8384 L 24.861 -10.8894 " />
<path id= "14" d=" M 22.1262 -16.2387 L 22.2146 -16.2897 " />
<path id= "15" d=" M 25.4797 -11.2466 L 25.5681 -11.2977 " />
<path id= "16" d=" M 22.8333 -16.6469 L 22.9217 -16.698 " />
<path id= "17" d=" M 26.1868 -11.6549 L 26.2753 -11.7059 " />
<path id= "18" d=" M 23.5404 -17.0552 L 23.6288 -17.1062 " />
<path id= "19" d=" M 26.894 -12.0631 L 26.9824 -12.1142 " />
<path id= "20" d=" M 24.2475 -17.4634 L 24.3359 -17.5145 " />
<path id= "21" d=" M 27.6011 -12.4714 L 27.6895 -12.5224 " />
<path id= "22" d=" M 24.9546 -17.8717 L 25.043 -17.9227 " />
<path id= "23" d=" M 28.3082 -12.8796 L 28.3966 -12.9307 " />
<path id= "24" d=" M 25.6617 -18.2799 L 25.7501 -18.3309 " />
<path id= "25" d=" M 29.0153 -13.2879 L 29.1037 -13.3389 " />
<path id= "26" d=" M 26.3688 -18.6882 L 26.4572 -18.7392 " />
<path id= "27" d=" M 29.7224 -13.6961 L 29.8108 -13.7472 " />
<path id= "28" d=" M 27.0759 -19.0964 L 27.1643 -19.1474 " />
<path id= "29" d=" M 30.4295 -14.1044 L 30.5179 -14.1554 " />
<path id= "30" d=" M 27.783 -19.5047 L 27.8714 -19.5557 " />
<path id= "31" d=" M 31.1366 -14.5126 L 31.225 -14.5637 " />
<path id= "32" d=" M 28.4902 -19.9129 L 28.5786 -19.9639 " />
<path id= "33" d=" M 31.8437 -14.9209 L 31.9321 -14.9719 " />
<path id= "34" d=" M 29.1973 -20.3212 L 29.2857 -20.3722 " />
<path id= "35" d=" M 32.5508 -15.3291 L 32.6392 -15.3802 " />
<path id= "36" d=" M 31.4165 -20.5636 L 31.3955 -20.5757 " />
<path id= "37" d=" M 31.8198 -20.3308 L 31.7923 -20.3466 " />
</g>
<g   fill="none"
   stroke="rgb(0, 0, 0)"
   stroke-linecap="butt"
   stroke-linejoin="miter"
   stroke-width="0.35"
   transform="scale(1, -1)"
  >
<path d="M0.707107 3.67423 A5 2.88675 60 0 1 0.233435 5.442" />
<path d="M0.233435 1.35952 A5 2.88675 60 0 1 0.707107 3.67423" />
<path d="M-2.82843 -2.44949 A5 2.88675 60 0 1 0.233435 1.35952" />
<path d="M-5.89029 -2.17602 A5 2.88675 60 0 1 -2.82843 -2.44949" />
<path d="M-5.89029 1.90647 A5 2.88675 60 0 1 -5.89029 -2.17602" />
<path d="M-2.82843 5.71548 A5 2.88675 60 0 1 -5.89029 1.90647" />
<path d="M0.233435 5.442 A5 2.88675 60 0 1 -2.82843 5.71548" />
<path d="M0.233435, 5.442 C0.557691, 4.98113 0.932873, 4.49103 1.41694, 3.89598 " /><path d="M-2.82843, 5.71548 C-2.18043, 6.08901 -1.4817, 6.4328 -0.624304, 6.79995 " /><path d="M-0.624304, 6.79995 C-0.361708, 6.33276 -0.0897961, 5.90228 0.233435, 5.442 " /><path d="M-5.89029, 1.90647 C-5.56603, 2.74057 -5.19085, 3.54466 -4.70679, 4.44293 " /><path d="M-4.70679, 4.44293 C-4.07086, 4.93794 -3.4754, 5.34135 -2.82843, 5.71548 " /><path d="M-5.89029, -2.17602 C-6.21352, -1.71574 -6.48543, -1.28525 -6.74803, -0.818069 " /><path d="M-6.74803, -0.818069 C-6.48543, 0.208066 -6.21352, 1.07177 -5.89029, 1.90647 " /><path d="M-4.70679, -3.72204 C-5.19085, -3.12699 -5.56603, -2.63688 -5.89029, -2.17602 " /><path d="M-2.82843, -2.44949 C-3.4754, -2.82361 -4.07086, -3.22702 -4.70679, -3.72204 " /><path d="M-0.624304, -1.36502 C-1.4817, -1.73217 -2.18043, -2.07596 -2.82843, -2.44949 " /><path d="M0.233435, 1.35952 C-0.0897961, 0.524823 -0.361708, -0.338883 -0.624304, -1.36502 " /><path d="M1.41694, 3.89598 C0.932873, 2.99771 0.557691, 2.19362 0.233435, 1.35952 " /><path id= "20" d=" M 1.68769 5.46512 L 3.72893 2.56115 " />
<path id= "21" d=" M 1.41694 3.89598 L 3.72893 2.56115 " />
<path id= "22" d=" M 1.68769 5.46512 L -0.624304 6.79995 " />
<path id= "23" d=" M -2.39479 -5.05687 L -4.70679 -3.72204 " />
<path id= "24" d=" M 1.68769 -2.69985 L -2.39479 -5.05687 " />
<path id= "25" d=" M 1.68769 -2.69985 L -0.624304 -1.36502 " />
<path id= "26" d=" M 3.72893 2.56115 L 1.68769 -2.69985 " />
<path d="M2.40368 -0.854494 A4.37 2.52302 60 0 1 2.88353 0.382259" />
<path d="M21.3281, -9.8643 C21.3039, -9.20491 21.0608, -8.69137 20.6634, -8.46595 " /><path d="M20.8991, -8.65187 Q21.0642, -8.69739 21.2086, -8.78069 " /><path d="M21.2086, -8.78069 C21.6517, -9.03244 21.9227, -9.5598 21.9468, -10.2215 " /><path d="M21.3281, -9.8643 C21.3621, -10.5599 21.1362, -11.3995 20.7312, -12.1251  C20.4818, -12.5756 20.1678, -12.981 19.8318, -13.2907  C19.6114, -13.4937 19.3887, -13.6525 19.1638, -13.767  C18.7137, -13.9972 18.2839, -14.0223 17.972, -13.8402 " /><path d="M21.3255, -8.84819 C21.7498, -9.08949 22.008, -9.61211 22.0352, -10.2726 " /><path d="M22.0352, -10.2726 C22.0692, -10.9681 21.8433, -11.8078 21.4383, -12.5334  C21.1889, -12.9839 20.8749, -13.3892 20.5389, -13.699  C20.3185, -13.902 20.0958, -14.0608 19.8709, -14.1753  C19.4208, -14.4054 18.991, -14.4306 18.6791, -14.2485 " /><path d="M22.0326, -9.25644 C22.4569, -9.49774 22.7151, -10.0204 22.7423, -10.6808 " /><path d="M21.9468, -10.2215 C21.9757, -10.8292 21.809, -11.5466 21.4943, -12.2021  C21.2734, -12.6653 20.9815, -13.0961 20.658, -13.4414  C20.3911, -13.7271 20.1032, -13.9543 19.821, -14.1042  C19.3571, -14.3525 18.9114, -14.3849 18.5906, -14.1974 " /><path d="M18.5906, -14.1974 Q18.4339, -14.1068 18.3191, -13.9533 " /><path d="M21.607, -9.075 Q21.7881, -9.11537 21.9442, -9.20539 " /><path d="M21.9442, -9.20539 C22.3685, -9.44668 22.6267, -9.96931 22.6539, -10.6297 " /><path d="M22.7423, -10.6808 C22.7763, -11.3764 22.5504, -12.216 22.1454, -12.9416  C21.896, -13.3921 21.582, -13.7975 21.246, -14.1072  C21.0256, -14.3102 20.8029, -14.469 20.578, -14.5835  C20.1279, -14.8137 19.6981, -14.8388 19.3862, -14.6567 " /><path d="M22.7397, -9.66468 C23.164, -9.90598 23.4222, -10.4286 23.4494, -11.089 " /><path d="M22.6539, -10.6297 C22.6828, -11.2374 22.5161, -11.9549 22.2015, -12.6103  C21.9805, -13.0736 21.6886, -13.5044 21.3652, -13.8497  C21.0984, -14.1351 20.8108, -14.3622 20.5288, -14.5121  C20.0646, -14.7607 19.6187, -14.7932 19.2977, -14.6057 " /><path d="M19.2977, -14.6057 Q19.141, -14.515 19.0262, -14.3616 " /><path d="M22.3141, -9.48325 Q22.4953, -9.52362 22.6513, -9.61364 " /><path d="M22.6513, -9.61364 C23.0756, -9.85493 23.3338, -10.3776 23.361, -11.038 " /><path d="M23.4494, -11.089 C23.4834, -11.7846 23.2575, -12.6243 22.8525, -13.3499  C22.6031, -13.8004 22.2891, -14.2057 21.9531, -14.5155  C21.7327, -14.7185 21.51, -14.8773 21.2851, -14.9918  C20.835, -15.2219 20.4052, -15.2471 20.0933, -15.065 " /><path d="M23.4468, -10.0729 C23.8711, -10.3142 24.1293, -10.8368 24.1565, -11.4973 " /><path d="M23.361, -11.038 C23.3899, -11.6456 23.2232, -12.3631 22.9086, -13.0186  C22.6876, -13.4818 22.3957, -13.9126 22.0723, -14.2579  C21.8057, -14.5431 21.5184, -14.7701 21.2366, -14.92  C20.7722, -15.1689 20.3259, -15.2016 20.0049, -15.0139 " /><path d="M20.0049, -15.0139 Q19.8481, -14.9233 19.7333, -14.7698 " /><path d="M23.0212, -9.8915 Q23.2024, -9.93187 23.3584, -10.0219 " /><path d="M23.3584, -10.0219 C23.7827, -10.2632 24.0409, -10.7858 24.0681, -11.4462 " /><path d="M24.1565, -11.4973 C24.1905, -12.1929 23.9646, -13.0325 23.5596, -13.7581  C23.3102, -14.2086 22.9962, -14.614 22.6602, -14.9237  C22.4398, -15.1267 22.2171, -15.2855 21.9922, -15.4  C21.5421, -15.6302 21.1123, -15.6553 20.8004, -15.4732 " /><path d="M24.1539, -10.4812 C24.5783, -10.7225 24.8364, -11.2451 24.8636, -11.9055 " /><path d="M24.0681, -11.4462 C24.097, -12.0539 23.9304, -12.7714 23.6157, -13.4268  C23.3948, -13.89 23.1029, -14.3209 22.7794, -14.6661  C22.5131, -14.9511 22.2259, -15.178 21.9444, -15.3279  C21.4797, -15.5771 21.0332, -15.6099 20.712, -15.4222 " /><path d="M20.712, -15.4222 Q20.5552, -15.3315 20.4404, -15.1781 " /><path d="M23.7283, -10.2997 Q23.9095, -10.3401 24.0655, -10.4301 " /><path d="M24.0655, -10.4301 C24.4898, -10.6714 24.748, -11.1941 24.7752, -11.8545 " /><path d="M24.8636, -11.9055 C24.8976, -12.6011 24.6717, -13.4408 24.2667, -14.1664  C24.0173, -14.6169 23.7033, -15.0222 23.3673, -15.332  C23.1469, -15.535 22.9242, -15.6938 22.6993, -15.8083  C22.2492, -16.0384 21.8194, -16.0636 21.5075, -15.8815 " /><path d="M24.861, -10.8894 C25.2854, -11.1307 25.5435, -11.6533 25.5708, -12.3138 " /><path d="M24.7752, -11.8545 C24.8041, -12.4621 24.6375, -13.1796 24.3228, -13.8351  C24.1019, -14.2983 23.81, -14.7291 23.4865, -15.0744  C23.2204, -15.3591 22.9335, -15.5859 22.6521, -15.7357  C22.1872, -15.9854 21.7404, -16.0183 21.4191, -15.8304 " /><path d="M24.7726, -10.8384 C25.1969, -11.0797 25.4551, -11.6023 25.4823, -12.2627 " /><path d="M25.5708, -12.3138 C25.6047, -13.0094 25.3788, -13.849 24.9738, -14.5746  C24.7244, -15.0251 24.4104, -15.4305 24.0744, -15.7402  C23.854, -15.9432 23.6313, -16.102 23.4064, -16.2165  C22.9563, -16.4467 22.5265, -16.4718 22.2146, -16.2897 " /><path d="M25.5681, -11.2977 C25.9925, -11.539 26.2507, -12.0616 26.2779, -12.722 " /><path d="M25.4823, -12.2627 C25.5112, -12.8704 25.3446, -13.5878 25.0299, -14.2433  C24.809, -14.7065 24.5171, -15.1373 24.1936, -15.4826  C23.9277, -15.7671 23.6411, -15.9938 23.3599, -16.1436  C22.8948, -16.3936 22.4477, -16.4266 22.1262, -16.2387 " /><path d="M22.1262, -16.2387 Q21.9694, -16.148 21.8546, -15.9946 " /><path d="M25.1426, -11.1162 Q25.3237, -11.1566 25.4797, -11.2466 " /><path d="M25.4797, -11.2466 C25.9041, -11.4879 26.1622, -12.0106 26.1894, -12.671 " /><path d="M26.2779, -12.722 C26.3118, -13.4176 26.0859, -14.2573 25.6809, -14.9829  C25.4315, -15.4334 25.1175, -15.8387 24.7816, -16.1485  C24.5611, -16.3515 24.3384, -16.5103 24.1135, -16.6248  C23.6634, -16.8549 23.2336, -16.8801 22.9217, -16.698 " /><path d="M26.2753, -11.7059 C26.6996, -11.9472 26.9578, -12.4698 26.985, -13.1303 " /><path d="M26.1894, -12.671 C26.2183, -13.2786 26.0517, -13.9961 25.737, -14.6515  C25.5161, -15.1148 25.2242, -15.5456 24.9008, -15.8908  C24.6351, -16.1751 24.3487, -16.4016 24.0677, -16.5515  C23.6024, -16.8018 23.155, -16.8349 22.8333, -16.6469 " /><path d="M26.1868, -11.6549 C26.6112, -11.8962 26.8693, -12.4188 26.8966, -13.0792 " /><path d="M26.985, -13.1303 C27.0189, -13.8258 26.793, -14.6655 26.388, -15.3911  C26.1386, -15.8416 25.8246, -16.247 25.4887, -16.5567  C25.2682, -16.7598 25.0455, -16.9185 24.8206, -17.0331  C24.3705, -17.2632 23.9407, -17.2883 23.6288, -17.1062 " /><path d="M26.9824, -12.1142 C27.4067, -12.3555 27.6649, -12.8781 27.6921, -13.5385 " /><path d="M26.8966, -13.0792 C26.9254, -13.6869 26.7588, -14.4043 26.4441, -15.0598  C26.2232, -15.523 25.9313, -15.9538 25.6079, -16.2991  C25.3424, -16.5831 25.0563, -16.8095 24.7755, -16.9594  C24.3099, -17.21 23.8622, -17.2433 23.5404, -17.0552 " /><path d="M23.5404, -17.0552 Q23.3837, -16.9645 23.2689, -16.8111 " /><path d="M26.5568, -11.9327 Q26.7379, -11.9731 26.894, -12.0631 " /><path d="M26.894, -12.0631 C27.3183, -12.3044 27.5765, -12.8271 27.6037, -13.4875 " /><path d="M27.6921, -13.5385 C27.726, -14.2341 27.5001, -15.0738 27.0952, -15.7994  C26.8458, -16.2499 26.5317, -16.6552 26.1958, -16.965  C25.9753, -17.168 25.7526, -17.3268 25.5276, -17.4413  C25.0776, -17.6714 24.6478, -17.6966 24.3359, -17.5145 " /><path d="M27.6895, -12.5224 C28.1138, -12.7637 28.372, -13.2863 28.3992, -13.9468 " /><path d="M27.6037, -13.4875 C27.6325, -14.0951 27.4659, -14.8126 27.1512, -15.468  C26.9303, -15.9312 26.6384, -16.362 26.315, -16.7073  C26.0498, -16.9911 25.7639, -17.2174 25.4834, -17.3672  C25.0175, -17.6182 24.5695, -17.6516 24.2475, -17.4634 " /><path d="M24.2475, -17.4634 Q24.0908, -17.3728 23.976, -17.2193 " /><path d="M27.2639, -12.341 Q27.445, -12.3814 27.6011, -12.4714 " /><path d="M27.6011, -12.4714 C28.0254, -12.7127 28.2836, -13.2353 28.3108, -13.8957 " /><path d="M28.3992, -13.9468 C28.4331, -14.6423 28.2072, -15.482 27.8023, -16.2076  C27.5529, -16.6581 27.2389, -17.0635 26.9029, -17.3732  C26.6824, -17.5763 26.4597, -17.735 26.2348, -17.8496  C25.7847, -18.0797 25.3549, -18.1048 25.043, -17.9227 " /><path d="M28.3966, -12.9307 C28.8209, -13.172 29.0791, -13.6946 29.1063, -14.355 " /><path d="M28.3108, -13.8957 C28.3396, -14.5034 28.173, -15.2208 27.8583, -15.8763  C27.6374, -16.3395 27.3456, -16.7703 27.0221, -17.1156  C26.7571, -17.3991 26.4715, -17.6252 26.1912, -17.7751  C25.7251, -18.0264 25.2768, -18.06 24.9546, -17.8717 " /><path d="M24.9546, -17.8717 Q24.7979, -17.781 24.6831, -17.6276 " /><path d="M27.971, -12.7492 Q28.1521, -12.7896 28.3082, -12.8796 " /><path d="M28.3082, -12.8796 C28.7325, -13.1209 28.9907, -13.6435 29.0179, -14.304 " /><path d="M29.1063, -14.355 C29.1402, -15.0506 28.9143, -15.8903 28.5094, -16.6159  C28.26, -17.0664 27.946, -17.4717 27.61, -17.7815  C27.3896, -17.9845 27.1669, -18.1433 26.9419, -18.2578  C26.4918, -18.4879 26.062, -18.5131 25.7501, -18.3309 " /><path d="M29.1037, -13.3389 C29.528, -13.5802 29.7862, -14.1028 29.8134, -14.7633 " /><path d="M29.0179, -14.304 C29.0467, -14.9116 28.8801, -15.6291 28.5655, -16.2845  C28.3445, -16.7477 28.0527, -17.1785 27.7292, -17.5238  C27.4644, -17.8072 27.179, -18.0331 26.899, -18.183  C26.4326, -18.4346 25.9841, -18.4683 25.6617, -18.2799 " /><path d="M25.6617, -18.2799 Q25.505, -18.1893 25.3902, -18.0358 " /><path d="M28.6781, -13.1575 Q28.8592, -13.1979 29.0153, -13.2879 " /><path d="M29.0153, -13.2879 C29.4396, -13.5292 29.6978, -14.0518 29.725, -14.7122 " /><path d="M29.8134, -14.7633 C29.8473, -15.4588 29.6215, -16.2985 29.2165, -17.0241  C28.9671, -17.4746 28.6531, -17.88 28.3171, -18.1897  C28.0967, -18.3927 27.874, -18.5515 27.649, -18.6661  C27.1989, -18.8962 26.7691, -18.9213 26.4572, -18.7392 " /><path d="M29.8108, -13.7472 C30.2351, -13.9885 30.4933, -14.5111 30.5205, -15.1715 " /><path d="M29.725, -14.7122 C29.7539, -15.3199 29.5872, -16.0373 29.2726, -16.6928  C29.0517, -17.156 28.7598, -17.5868 28.4364, -17.932  C28.1717, -18.2152 27.8866, -18.441 27.6068, -18.5909  C27.1401, -18.8428 26.6913, -18.8767 26.3688, -18.6882 " /><path d="M29.7224, -13.6961 C30.1467, -13.9374 30.4049, -14.46 30.4321, -15.1205 " /><path d="M30.5205, -15.1715 C30.5545, -15.8671 30.3286, -16.7068 29.9236, -17.4324  C29.6742, -17.8829 29.3602, -18.2882 29.0242, -18.598  C28.8038, -18.801 28.581, -18.9598 28.356, -19.0743  C27.906, -19.3044 27.4762, -19.3295 27.1643, -19.1474 " /><path d="M30.5179, -14.1554 C30.9422, -14.3967 31.2004, -14.9193 31.2276, -15.5798 " /><path d="M30.4321, -15.1205 C30.461, -15.7281 30.2943, -16.4456 29.9797, -17.101  C29.7588, -17.5642 29.4669, -17.995 29.1435, -18.3403  C28.8791, -18.6232 28.5942, -18.8488 28.3146, -18.9987  C27.8477, -19.251 27.3986, -19.285 27.0759, -19.0964 " /><path d="M27.0759, -19.0964 Q26.9192, -19.0058 26.8044, -18.8523 " /><path d="M30.0923, -13.974 Q30.2734, -14.0144 30.4295, -14.1044 " /><path d="M30.4295, -14.1044 C30.8538, -14.3457 31.112, -14.8683 31.1392, -15.5287 " /><path d="M31.2276, -15.5798 C31.2616, -16.2753 31.0357, -17.115 30.6307, -17.8406  C30.3813, -18.2911 30.0673, -18.6965 29.7313, -19.0062  C29.5109, -19.2093 29.2881, -19.368 29.0631, -19.4826  C28.6131, -19.7127 28.1833, -19.7378 27.8715, -19.5557 " /><path d="M31.225, -14.5637 C31.6493, -14.805 31.9075, -15.3276 31.9347, -15.988 " /><path d="M31.1392, -15.5287 C31.1681, -16.1364 31.0014, -16.8538 30.6868, -17.5092  C30.4659, -17.9724 30.174, -18.4032 29.8506, -18.7485  C29.5865, -19.0311 29.302, -19.2566 29.0227, -19.4065  C28.5554, -19.6592 28.1059, -19.6934 27.783, -19.5047 " /><path d="M27.783, -19.5047 Q27.6263, -19.414 27.5115, -19.2606 " /><path d="M30.7994, -14.3822 Q30.9805, -14.4226 31.1366, -14.5126 " /><path d="M31.1366, -14.5126 C31.5609, -14.7539 31.8191, -15.2765 31.8463, -15.937 " /><path d="M31.9347, -15.988 C31.9687, -16.6836 31.7428, -17.5233 31.3378, -18.2488  C31.0884, -18.6994 30.7744, -19.1047 30.4384, -19.4145  C30.218, -19.6175 29.9953, -19.7763 29.7703, -19.8908  C29.3202, -20.1209 28.8904, -20.146 28.5786, -19.9639 " /><path d="M31.9321, -14.9719 C32.3564, -15.2132 32.6146, -15.7358 32.6418, -16.3963 " /><path d="M31.8463, -15.937 C31.8752, -16.5446 31.7086, -17.262 31.3939, -17.9175  C31.173, -18.3807 30.8811, -18.8115 30.5577, -19.1567  C30.29, -19.4432 30.0012, -19.671 29.7182, -19.8209  C29.2551, -20.0681 28.8104, -20.1001 28.4902, -19.9129 " /><path d="M28.4902, -19.9129 Q28.3334, -19.8223 28.2186, -19.6688 " /><path d="M31.5065, -14.7905 Q31.6877, -14.8309 31.8437, -14.9209 " /><path d="M31.8437, -14.9209 C32.268, -15.1622 32.5262, -15.6848 32.5534, -16.3452 " /><path d="M32.6418, -16.3963 C32.6758, -17.0918 32.4499, -17.9315 32.0449, -18.6571  C31.7955, -19.1076 31.4815, -19.513 31.1455, -19.8227  C30.9251, -20.0258 30.7023, -20.1846 30.4773, -20.2991  C30.0273, -20.5292 29.5975, -20.5543 29.2857, -20.3722 " /><path d="M32.6392, -15.3802 C33.0635, -15.6215 33.3217, -16.1441 33.3489, -16.8045 " /><path d="M32.5534, -16.3452 C32.5823, -16.9529 32.4157, -17.6703 32.101, -18.3257  C31.8801, -18.7889 31.5883, -19.2197 31.2648, -19.565  C30.9974, -19.8512 30.7089, -20.0788 30.4261, -20.2287  C29.9627, -20.4763 29.5177, -20.5084 29.1973, -20.3212 " /><path d="M29.1973, -20.3212 Q29.0405, -20.2305 28.9257, -20.0771 " /><path d="M32.2136, -15.1987 Q32.3948, -15.2391 32.5508, -15.3291 " /><path d="M32.5508, -15.3291 C32.9751, -15.5704 33.2333, -16.093 33.2605, -16.7535 " /><path d="M30.0178 -20.7842 A3 1.73205 60 0 1 31.3955 -20.5757" />
<path d="M31.3955 -20.5757 A3 1.73205 60 0 1 31.562 -20.4721" />
<path d="M33.3489, -16.8045 C33.3829, -17.5001 33.157, -18.3398 32.752, -19.0653  C32.4319, -19.6446 32.0041, -20.1471 31.562, -20.4721 " /><path d="M33.2605, -16.7535 C33.2894, -17.3611 33.1228, -18.0785 32.8081, -18.734  C32.5872, -19.1972 32.2954, -19.6279 31.972, -19.9732  C31.7049, -20.259 31.4168, -20.4864 31.1344, -20.6363  C30.7232, -20.856 30.3257, -20.9076 30.0178, -20.7842 " /><path d="M33.5169, -17.2315 C33.5173, -16.8411 33.4289, -16.4979 33.2625, -16.2466 " /><path d="M29.6629, -20.4884 Q29.8084, -20.6848 30.0178, -20.7842 " /><path id= "129" d=" M 33.5169 -17.2315 L 33.5169 -17.3914 " />
<path d="M31.562, -20.4721 Q31.4888, -20.5219 31.4165, -20.5636 " /><path d="M31.4165, -20.5636 L31.4067, -20.5692 " /><path d="M31.5977, -20.4453 Q31.6946, -20.403 31.7923, -20.3466 " /><path d="M31.7923, -20.3466 Q31.97, -20.244 32.1441, -20.0986 " /><path d="M33.5169, -17.2315 C33.518, -17.7245 33.3746, -18.2917 33.1205, -18.8121  C32.873, -19.3231 32.521, -19.785 32.1441, -20.0986 " /><path d="M31.8059 -20.3387 A2.4 1.38564 60 0 1 31.8198 -20.3308" />
<path d="M31.8198 -20.3308 A2.4 1.38564 60 0 1 33.5169 -17.3914" />
</g>

</svg>
