<svg xmlns="http://www.w3.org/2000/svg" viewBox="-7.92 -9.6935 56.84 19.387">
<rect width="100%" height="100%" fill="white"/>
<g   fill="none"
   stroke="rgb(0, 0, 0)"
   stroke-linecap="butt"
   stroke-linejoin="miter"
   stroke-width="0.35"
   transform="scale(1, -1)"
  >
<path id= "1" d=" M -4 -5 L -3.76965 -5.7735 " />
<path id= "2" d=" M -0.5 -4.37 L 0 -4.37 " />
<path d="M0.25, -3 C0.182127, -3.00097 0.123666, -3.02492 0.0746171, -3.07184  C0.0272469, -3.11809 -0.000275702, -3.1838 3.46945e-18, -3.25 " /><path id= "4" d=" M 0.25 -3 L 27.6625 -3 " />
<path d="M27.7094, 2.44529 Q27.7029, 2.4329 27.6844, 2.41659  Q27.6494, 2.3877 27.6, 2.38661 " /><path d="M28.0236, 2.98739 L27.7094, 2.44529 " /><path id= "7" d=" M 28.5375 -3 L 28.6625 -3 " />
<path d="M27.4928, 2.44347 L27.1771, 2.98742 " /><path d="M27.9928, -2.44346 L27.6771, -2.98742 " /><path d="M28.2073, -2.44347 Q28.2015, -2.43225 28.1834, -2.41615  Q28.1597, -2.39639 28.1264, -2.38923  Q28.1132, -2.38792 28.1, -2.3866  Q28.0536, -2.38754 28.0197, -2.41375  Q27.9992, -2.431 27.9928, -2.44346 " /><path d="M28.7073, 2.44347 Q28.7015, 2.43225 28.6834, 2.41615  Q28.649, 2.38775 28.6, 2.38661 " /><path d="M27.6, 2.38661 Q27.5536, 2.38754 27.5197, 2.41375  Q27.4992, 2.431 27.4928, 2.44347 " /><path d="M28.5229, -2.98741 L28.2073, -2.44347 " /><path d="M29.0229, 2.98741 L28.7073, 2.44347 " /><path id= "15" d=" M 29.5375 -3 L 29.6625 -3 " />
<path d="M28.4928, 2.44346 L28.1771, 2.98742 " /><path d="M28.9928, -2.44346 L28.6771, -2.98742 " /><path d="M29.2073, -2.44346 Q29.2015, -2.43225 29.1834, -2.41615  Q29.1597, -2.39639 29.1264, -2.38923  Q29.1132, -2.38792 29.1, -2.3866  Q29.0536, -2.38754 29.0197, -2.41375  Q28.9992, -2.431 28.9928, -2.44346 " /><path d="M29.7073, 2.44347 Q29.7015, 2.43225 29.6834, 2.41615  Q29.6489, 2.38775 29.6, 2.3866 " /><path d="M28.6, 2.38661 Q28.5536, 2.38754 28.5197, 2.41375  Q28.4992, 2.431 28.4928, 2.44346 " /><path d="M29.5229, -2.98741 L29.2073, -2.44346 " /><path d="M30.0229, 2.98741 L29.7073, 2.44347 " /><path id= "23" d=" M 30.5375 -3 L 30.6625 -3 " />
<path d="M29.4928, 2.44346 L29.1771, 2.98742 " /><path d="M29.9928, -2.44346 L29.6771, -2.98742 " /><path d="M30.2073, -2.44346 Q30.2015, -2.43224 30.1834, -2.41614  Q30.1597, -2.39639 30.1264, -2.38923  Q30.1132, -2.38791 30.1, -2.3866  Q30.0536, -2.38753 30.0197, -2.41375  Q29.9992, -2.431 29.9928, -2.44346 " /><path d="M30.7073, 2.44347 Q30.7015, 2.43225 30.6834, 2.41615  Q30.6489, 2.38775 30.6, 2.3866 " /><path d="M29.6, 2.3866 Q29.5536, 2.38754 29.5197, 2.41375  Q29.4992, 2.431 29.4928, 2.44346 " /><path d="M30.5229, -2.98741 L30.2073, -2.44346 " /><path d="M31.0229, 2.98741 L30.7073, 2.44347 " /><path id= "31" d=" M 31.5375 -3 L 31.6625 -3 " />
<path d="M30.4928, 2.44346 L30.1771, 2.98742 " /><path d="M30.9928, -2.44345 L30.6771, -2.98742 " /><path d="M31.2073, -2.44346 Q31.2015, -2.43224 31.1834, -2.41614  Q31.1597, -2.39639 31.1264, -2.38923  Q31.1132, -2.38791 31.1, -2.3866  Q31.0536, -2.38753 31.0197, -2.41374  Q30.9992, -2.43099 30.9928, -2.44345 " /><path d="M31.7073, 2.44346 Q31.7015, 2.43224 31.6834, 2.41614  Q31.6489, 2.38774 31.6, 2.3866 " /><path d="M30.6, 2.3866 Q30.5536, 2.38753 30.5197, 2.41374  Q30.4992, 2.431 30.4928, 2.44346 " /><path d="M31.5229, -2.98741 L31.2073, -2.44346 " /><path d="M32.0229, 2.98741 L31.7073, 2.44346 " /><path id= "39" d=" M 32.5375 -3 L 32.6625 -3 " />
<path d="M31.4928, 2.44346 L31.1771, 2.98742 " /><path d="M31.9928, -2.44345 L31.6771, -2.98742 " /><path d="M32.2073, -2.44346 Q32.2015, -2.43224 32.1834, -2.41614  Q32.1597, -2.39638 32.1264, -2.38922  Q32.1132, -2.38791 32.1, -2.38659  Q32.0536, -2.38753 32.0197, -2.41374  Q31.9992, -2.43099 31.9928, -2.44345 " /><path d="M32.7073, 2.44346 Q32.7015, 2.43224 32.6834, 2.41614  Q32.6489, 2.38774 32.6, 2.3866 " /><path d="M31.6, 2.3866 Q31.5536, 2.38753 31.5197, 2.41374  Q31.4992, 2.43099 31.4928, 2.44346 " /><path d="M32.5229, -2.98741 L32.2073, -2.44346 " /><path d="M33.0229, 2.98741 L32.7073, 2.44346 " /><path id= "47" d=" M 33.5375 -3 L 33.6625 -3 " />
<path d="M32.4928, 2.44346 L32.1771, 2.98742 " /><path d="M32.9928, -2.44345 L32.6771, -2.98742 " /><path d="M33.2073, -2.44345 Q33.2015, -2.43224 33.1834, -2.41614  Q33.1597, -2.39638 33.1264, -2.38922  Q33.1132, -2.38791 33.1, -2.38659  Q33.0536, -2.38753 33.0197, -2.41374  Q32.9992, -2.43099 32.9928, -2.44345 " /><path d="M33.7073, 2.44346 Q33.7015, 2.43224 33.6834, 2.41614  Q33.6489, 2.38774 33.6, 2.3866 " /><path d="M32.6, 2.3866 Q32.5536, 2.38753 32.5197, 2.41374  Q32.4992, 2.43099 32.4928, 2.44346 " /><path d="M33.5229, -2.98741 L33.2073, -2.44345 " /><path d="M34.0229, 2.98741 L33.7073, 2.44346 " /><path id= "55" d=" M 34.5375 -3 L 34.6625 -3 " />
<path d="M33.4928, 2.44345 L33.1771, 2.98741 " /><path d="M33.9928, -2.44345 L33.6771, -2.98742 " /><path d="M34.2073, -2.44345 Q34.2015, -2.43223 34.1834, -2.41613  Q34.1597, -2.39638 34.1264, -2.38922  Q34.1132, -2.3879 34.1, -2.38659  Q34.0536, -2.38753 34.0197, -2.41374  Q33.9992, -2.43099 33.9928, -2.44345 " /><path d="M34.7073, 2.44346 Q34.7015, 2.43224 34.6834, 2.41614  Q34.6489, 2.38774 34.6, 2.38659 " /><path d="M33.6, 2.3866 Q33.5536, 2.38753 33.5197, 2.41374  Q33.4992, 2.43099 33.4928, 2.44345 " /><path d="M34.5229, -2.98741 L34.2073, -2.44345 " /><path d="M35.0229, 2.98741 L34.7073, 2.44346 " /><path id= "63" d=" M 35.5375 -3 L 35.6625 -3 " />
<path d="M34.4928, 2.44345 L34.1771, 2.98741 " /><path d="M34.9928, -2.44344 L34.6771, -2.98742 " /><path d="M35.2073, -2.44345 Q35.2015, -2.43223 35.1834, -2.41613  Q35.1596, -2.39638 35.1264, -2.38922  Q35.1132, -2.3879 35.1, -2.38659  Q35.0536, -2.38752 35.0197, -2.41374  Q34.9992, -2.43099 34.9928, -2.44344 " /><path d="M35.7073, 2.44345 Q35.7015, 2.43223 35.6834, 2.41613  Q35.6489, 2.38773 35.6, 2.38659 " /><path d="M34.6, 2.38659 Q34.5536, 2.38752 34.5197, 2.41374  Q34.4992, 2.43099 34.4928, 2.44345 " /><path d="M35.5229, -2.98741 L35.2073, -2.44345 " /><path d="M36.0229, 2.98741 L35.7073, 2.44345 " /><path id= "71" d=" M 36.5375 -3 L 36.6625 -3 " />
<path d="M35.4928, 2.44345 L35.1771, 2.98741 " /><path d="M35.9928, -2.44344 L35.6771, -2.98742 " /><path d="M36.2073, -2.44345 Q36.2015, -2.43223 36.1834, -2.41613  Q36.1596, -2.39637 36.1264, -2.38921  Q36.1132, -2.3879 36.1, -2.38658  Q36.0536, -2.38752 36.0197, -2.41373  Q35.9992, -2.43098 35.9928, -2.44344 " /><path d="M36.7072, 2.44345 Q36.7015, 2.43223 36.6834, 2.41613  Q36.6489, 2.38773 36.6, 2.38659 " /><path d="M35.6, 2.38659 Q35.5536, 2.38752 35.5197, 2.41373  Q35.4992, 2.43099 35.4928, 2.44345 " /><path d="M36.5229, -2.98741 L36.2073, -2.44345 " /><path d="M37.0229, 2.98741 L36.7072, 2.44345 " /><path id= "79" d=" M 37.5375 -3 L 37.6625 -3 " />
<path d="M36.4928, 2.44345 L36.1771, 2.98741 " /><path d="M36.9928, -2.44344 L36.6771, -2.98742 " /><path d="M37.2072, -2.44344 Q37.2015, -2.43222 37.1834, -2.41612  Q37.1596, -2.39637 37.1264, -2.38921  Q37.1132, -2.3879 37.1, -2.38658  Q37.0536, -2.38752 37.0197, -2.41373  Q36.9992, -2.43098 36.9928, -2.44344 " /><path d="M37.7072, 2.44345 Q37.7015, 2.43223 37.6834, 2.41613  Q37.6489, 2.38773 37.6, 2.38659 " /><path d="M36.6, 2.38659 Q36.5536, 2.38752 36.5197, 2.41373  Q36.4992, 2.43098 36.4928, 2.44345 " /><path d="M37.5229, -2.98741 L37.2072, -2.44344 " /><path d="M38.0229, 2.98741 L37.7072, 2.44345 " /><path id= "87" d=" M 38.5375 -3 L 38.6625 -3 " />
<path d="M37.4928, 2.44345 L37.1771, 2.98741 " /><path d="M37.9928, -2.44344 L37.6771, -2.98742 " /><path d="M38.2072, -2.44344 Q38.2015, -2.43222 38.1834, -2.41612  Q38.1596, -2.39637 38.1264, -2.38921  Q38.1132, -2.38789 38.1, -2.38658  Q38.0535, -2.38752 38.0197, -2.41373  Q37.9992, -2.43098 37.9928, -2.44344 " /><path d="M38.7072, 2.44345 Q38.7015, 2.43222 38.6834, 2.41613  Q38.6489, 2.38773 38.6, 2.38658 " /><path d="M37.6, 2.38659 Q37.5536, 2.38752 37.5197, 2.41373  Q37.4992, 2.43098 37.4928, 2.44345 " /><path d="M38.5229, -2.98741 L38.2072, -2.44344 " /><path d="M39.0229, 2.98741 L38.7072, 2.44345 " /><path id= "95" d=" M 39.5375 -3 L 39.6625 -3 " />
<path d="M38.4928, 2.44344 L38.1771, 2.98741 " /><path d="M38.9928, -2.44344 L38.6771, -2.98742 " /><path d="M39.2072, -2.44344 Q39.2015, -2.43222 39.1834, -2.41612  Q39.1596, -2.39637 39.1264, -2.38921  Q39.1132, -2.38789 39.1, -2.38658  Q39.0535, -2.38752 39.0197, -2.41373  Q38.9992, -2.43098 38.9928, -2.44344 " /><path d="M39.7072, 2.44344 Q39.7015, 2.43222 39.6834, 2.41612  Q39.6489, 2.38773 39.6, 2.38658 " /><path d="M38.6, 2.38658 Q38.5536, 2.38752 38.5197, 2.41373  Q38.4992, 2.43098 38.4928, 2.44344 " /><path d="M39.5229, -2.98741 L39.2072, -2.44344 " /><path d="M40.0229, 2.98741 L39.7072, 2.44344 " /><path id= "103" d=" M 40.5375 -3 L 40.6625 -3 " />
<path d="M39.4928, 2.44344 L39.1771, 2.98741 " /><path d="M39.9928, -2.44343 L39.6771, -2.98742 " /><path d="M40.2072, -2.44344 Q40.2015, -2.43222 40.1834, -2.41612  Q40.1596, -2.39636 40.1264, -2.3892  Q40.1132, -2.38789 40.1, -2.38658  Q40.0535, -2.38751 40.0197, -2.41373  Q39.9992, -2.43098 39.9928, -2.44343 " /><path d="M40.7072, 2.44344 Q40.7015, 2.43222 40.6834, 2.41612  Q40.6489, 2.38772 40.6, 2.38658 " /><path d="M39.6, 2.38658 Q39.5536, 2.38751 39.5197, 2.41372  Q39.4992, 2.43098 39.4928, 2.44344 " /><path d="M40.5229, -2.98741 L40.2072, -2.44344 " /><path d="M41.0229, 2.98741 L40.7072, 2.44344 " /><path id= "111" d=" M 41.5375 -3 L 41.6625 -3 " />
<path d="M40.4928, 2.44344 L40.1771, 2.98741 " /><path d="M40.9928, -2.44343 L40.6771, -2.98742 " /><path d="M41.2072, -2.44343 Q41.2015, -2.43221 41.1834, -2.41611  Q41.1596, -2.39636 41.1264, -2.3892  Q41.1132, -2.38789 41.1, -2.38657  Q41.0535, -2.38751 41.0197, -2.41372  Q40.9992, -2.43097 40.9928, -2.44343 " /><path d="M41.7072, 2.44344 Q41.7015, 2.43222 41.6834, 2.41612  Q41.6489, 2.38772 41.6, 2.38658 " /><path d="M40.6, 2.38658 Q40.5536, 2.38751 40.5197, 2.41372  Q40.4992, 2.43098 40.4928, 2.44344 " /><path d="M41.5229, -2.98741 L41.2072, -2.44343 " /><path d="M42.0229, 2.98741 L41.7072, 2.44344 " /><path id= "119" d=" M 42.5375 -3 L 42.6625 -3 " />
<path d="M41.4928, 2.44344 L41.1771, 2.98741 " /><path d="M41.9928, -2.44343 L41.6771, -2.98742 " /><path d="M42.2072, -2.44343 Q42.2015, -2.43221 42.1834, -2.41611  Q42.1596, -2.39636 42.1264, -2.3892  Q42.1132, -2.38789 42.1, -2.38657  Q42.0535, -2.38751 42.0197, -2.41372  Q41.9992, -2.43097 41.9928, -2.44343 " /><path d="M42.7072, 2.44344 Q42.7014, 2.43221 42.6833, 2.41611  Q42.6489, 2.38772 42.6, 2.38657 " /><path d="M41.6, 2.38658 Q41.5536, 2.38751 41.5197, 2.41372  Q41.4992, 2.43097 41.4928, 2.44344 " /><path d="M42.5229, -2.98741 L42.2072, -2.44343 " /><path d="M43.0229, 2.98741 L42.7072, 2.44344 " /><path id= "127" d=" M 43.5375 -3 L 43.6625 -3 " />
<path d="M42.4928, 2.44343 L42.1771, 2.98741 " /><path d="M42.9928, -2.44343 L42.6771, -2.98741 " /><path d="M43.2072, -2.44343 Q43.2014, -2.43221 43.1833, -2.41611  Q43.1596, -2.39636 43.1264, -2.3892  Q43.1132, -2.38788 43.1, -2.38657  Q43.0535, -2.38751 43.0197, -2.41372  Q42.9992, -2.43097 42.9928, -2.44343 " /><path d="M43.7072, 2.44343 Q43.7014, 2.43221 43.6833, 2.41611  Q43.6489, 2.38772 43.6, 2.38657 " /><path d="M42.6, 2.38657 Q42.5536, 2.38751 42.5197, 2.41372  Q42.4992, 2.43097 42.4928, 2.44343 " /><path d="M43.5229, -2.98741 L43.2072, -2.44343 " /><path d="M44.0229, 2.98741 L43.7072, 2.44343 " /><path d="M43.4928, 2.44343 L43.1771, 2.98741 " /><path d="M43.9928, -2.44343 L43.6771, -2.98741 " /><path d="M44.2072, -2.44343 Q44.2014, -2.43221 44.1833, -2.41611  Q44.1596, -2.39635 44.1264, -2.3892  Q44.1132, -2.38788 44.1, -2.38657  Q44.0535, -2.3875 44.0196, -2.41372  Q43.9992, -2.43097 43.9928, -2.44343 " /><path d="M44.7072, 2.44343 Q44.7014, 2.43221 44.6833, 2.41611  Q44.6489, 2.38771 44.6, 2.38657 " /><path d="M43.6, 2.38657 Q43.5536, 2.3875 43.5197, 2.41372  Q43.4992, 2.43097 43.4928, 2.44343 " /><path d="M44.2072, -2.44343 L44.4777, -2.9094 " /><path d="M44.7072, 2.44343 L44.7935, 2.59202 " /><path id= "142" d=" M 45 -2.4 L 44.4872 -2.91283 " />
<path d="M44.4928, 2.44343 L44.1771, 2.98741 " /><path d="M44.6, 2.38657 Q44.5535, 2.3875 44.5197, 2.41371  Q44.4992, 2.43097 44.4928, 2.44343 " /></g>
<g   fill="none"
   stroke="rgb(0, 0, 0)"
   stroke-linecap="butt"
   stroke-linejoin="miter"
   stroke-width="0.35"
   transform="scale(1, -1)"
  >
<path d="M-4, 4.33013 C-4, 4.54755 -4, 4.71582 -4, 4.82963  C-4, 4.94171 -4, 4.9991 -4, 5 " /><path d="M-4, -8.88178e-16 Q-4, 0.562676 -4, 1.1126  Q-4, 1.29319 -4, 1.47378  Q-4, 1.65024 -4, 1.82671  Q-4, 1.99806 -4, 2.16942  Q-4, 2.33471 -4, 2.5  Q-4, 2.6583 -4, 2.8166  Q-4, 2.96702 -4, 3.11745  Q-4, 3.25916 -4, 3.40086  Q-4, 3.53306 -4, 3.66526  Q-4, 3.78721 -4, 3.90916  Q-4, 4.02018 -4, 4.13119  Q-4, 4.23066 -4, 4.33013 " /><path d="M-4, -4.33013 Q-4, -4.23066 -4, -4.13119  Q-4, -4.02018 -4, -3.90916  Q-4, -3.78721 -4, -3.66526  Q-4, -3.53306 -4, -3.40086  Q-4, -3.25916 -4, -3.11745  Q-4, -2.96702 -4, -2.8166  Q-4, -2.6583 -4, -2.5  Q-4, -2.33471 -4, -2.16942  Q-4, -1.99806 -4, -1.82671  Q-4, -1.65024 -4, -1.47378  Q-4, -1.29319 -4, -1.1126  Q-4, -0.562676 -4, -8.88178e-16 " /><path d="M-4, -5 C-4, -4.9991 -4, -4.94171 -4, -4.82963  C-4, -4.71582 -4, -4.54755 -4, -4.33013 " /><path id= "5" d=" M -4 5 L -3.76965 5.7735 " />
<path d="M-4, -4.33013 C-3.99928, -4.78797 -3.92625, -5.24553 -3.76965, -5.7735 " /><path d="M-3.76965, -2.88675 C-3.92625, -3.41472 -3.99928, -3.87228 -4, -4.33013 " /><path d="M-4, -2.22045e-16 C-3.99928, -0.915684 -3.92625, -1.83081 -3.76965, -2.88675 " /><path d="M-3.76965, 2.88675 C-3.92625, 1.83081 -3.99928, 0.915684 -4, -6.66134e-16 " /><path d="M-4, 4.33013 C-3.99928, 3.87228 -3.92625, 3.41472 -3.76965, 2.88675 " /><path d="M-3.76965, 5.7735 C-3.92625, 5.24553 -3.99928, 4.78797 -4, 4.33013 " /><path id= "12" d=" M -3.76965 5.7735 L -0.5 5.7735 " />
<path id= "13" d=" M -0.5 -5.7735 L -3.76965 -5.7735 " />
<path id= "14" d=" M -0.5 -2.88675 L -0.5 -5.7735 " />
<path id= "15" d=" M -0.5 -2.88675 L -3.76965 -2.88675 " />
<path id= "16" d=" M -0.5 2.88675 L -0.5 -2.88675 " />
<path id= "17" d=" M -0.5 2.88675 L -3.76965 2.88675 " />
<path id= "18" d=" M -0.5 5.7735 L -0.5 2.88675 " />
<path id= "19" d=" M -0.5 4.37 L 0 4.37 " />
<path d="M0, -4.37 L0, -4.26043  L0, -3.93723  L0, -3.4166  L0, -2.72465  L0, -1.89607  L0, -0.972416  L0, -7.77156e-16  L0, 0.972416  L0, 1.89607  L0, 2.72465  L0, 3.4166  L0, 3.93723  L0, 4.26043  L0, 4.37 " /><path d="M0 3.25 A0.25 0.25 0 0 1 0.25 3" /><path d="M28.0236, 2.98739 Q28.0309, 3 28.0375, 3 " /><path id= "23" d=" M 28.0375 3 L 28.1625 3 " />
<path d="M27.1625, 3 Q27.1698, 3 27.1771, 2.98742 " /><path d="M27.1771, 2.98742 C27.2163, 2.92225 27.2555, 2.57137 27.2947, 2.02367  C27.3398, 1.39788 27.3849, 0.517725 27.43, -0.328294  C27.4656, -0.997184 27.5013, -1.63771 27.5369, -2.11385  C27.5788, -2.67673 27.6207, -3.00324 27.6625, -3 " /><path d="M27.6625, -3 Q27.6698, -3 27.6771, -2.98742 " /><path id= "27" d=" M 0.25 3 L 27.1625 3 " />
<path id= "28" d=" M 29.0375 3 L 29.1625 3 " />
<path d="M28.1625, 3 Q28.1698, 3 28.1771, 2.98742 " /><path d="M28.1771, 2.98742 C28.2163, 2.92225 28.2555, 2.57137 28.2947, 2.02367  C28.3398, 1.39787 28.3849, 0.517716 28.43, -0.328307  C28.4656, -0.996949 28.5013, -1.63725 28.5369, -2.11333  C28.5788, -2.67653 28.6206, -3.00324 28.6625, -3 " /><path d="M28.6625, -3 Q28.6698, -3 28.6771, -2.98742 " /><path d="M28.0375, 3 C28.0759, 3.00234 28.1144, 2.72819 28.1529, 2.24469  C28.2026, 1.62682 28.2522, 0.663258 28.3018, -0.270669  C28.3364, -0.919176 28.3709, -1.54562 28.4054, -2.02494  C28.4445, -2.57191 28.4837, -2.92228 28.5229, -2.98741 " /><path d="M28.5229, -2.98741 Q28.5302, -3 28.5375, -3 " /><path d="M29.0229, 2.98741 Q29.0302, 3 29.0375, 3 " /><path id= "35" d=" M 30.0375 3 L 30.1625 3 " />
<path d="M29.1625, 3 Q29.1698, 3 29.1771, 2.98742 " /><path d="M29.1771, 2.98742 C29.2163, 2.92225 29.2555, 2.57137 29.2947, 2.02367  C29.3398, 1.39787 29.3849, 0.517708 29.43, -0.328317  C29.4656, -0.996742 29.5012, -1.63684 29.5369, -2.11287  C29.5788, -2.67634 29.6206, -3.00325 29.6625, -3 " /><path d="M29.6625, -3 Q29.6698, -3 29.6771, -2.98742 " /><path d="M29.0375, 3 C29.0759, 3.00234 29.1144, 2.7282 29.1529, 2.24469  C29.2025, 1.62704 29.2522, 0.663949 29.3018, -0.269677  C29.3362, -0.917075 29.3707, -1.54258 29.4052, -2.02171  C29.4444, -2.5705 29.4836, -2.92217 29.5229, -2.98741 " /><path d="M29.5229, -2.98741 Q29.5302, -3 29.5375, -3 " /><path d="M30.0229, 2.98741 Q30.0302, 3 30.0375, 3 " /><path id= "42" d=" M 31.0375 3 L 31.1625 3 " />
<path d="M30.1625, 3 Q30.1698, 3 30.1771, 2.98742 " /><path d="M30.1771, 2.98742 C30.2163, 2.92225 30.2555, 2.57137 30.2947, 2.02367  C30.3398, 1.39787 30.3849, 0.517701 30.43, -0.328328  C30.4656, -0.996536 30.5012, -1.63644 30.5368, -2.11242  C30.5787, -2.67616 30.6206, -3.00325 30.6625, -3 " /><path d="M30.6625, -3 Q30.6698, -3 30.6771, -2.98742 " /><path d="M30.0375, 3 C30.0759, 3.00234 30.1144, 2.7282 30.1529, 2.2447  C30.2025, 1.62726 30.2521, 0.664649 30.3017, -0.268669  C30.3361, -0.914612 30.3705, -1.53885 30.4049, -2.01769  C30.4442, -2.56875 30.4835, -2.92202 30.5229, -2.98741 " /><path d="M30.5229, -2.98741 Q30.5302, -3 30.5375, -3 " /><path d="M31.0229, 2.98741 Q31.0302, 3 31.0375, 3 " /><path id= "49" d=" M 32.0375 3 L 32.1625 3 " />
<path d="M31.1625, 3 Q31.1698, 3 31.1771, 2.98742 " /><path d="M31.1771, 2.98742 C31.2163, 2.92225 31.2555, 2.57137 31.2947, 2.02367  C31.3398, 1.39786 31.3849, 0.517694 31.43, -0.328338  C31.4656, -0.996344 31.5012, -1.63607 31.5368, -2.112  C31.5787, -2.676 31.6206, -3.00325 31.6625, -3 " /><path d="M31.6625, -3 Q31.6698, -3 31.6771, -2.98742 " /><path d="M31.0375, 3 C31.0759, 3.00234 31.1144, 2.7282 31.1529, 2.2447  C31.2025, 1.62749 31.2521, 0.66535 31.3017, -0.26766  C31.336, -0.911569 31.3702, -1.53401 31.4045, -2.01237  C31.4439, -2.56642 31.4834, -2.92184 31.5229, -2.98741 " /><path d="M31.5229, -2.98741 Q31.5302, -3 31.5375, -3 " /><path d="M32.0229, 2.98741 Q32.0302, 3 32.0375, 3 " /><path id= "56" d=" M 33.0375 3 L 33.1625 3 " />
<path d="M32.1625, 3 Q32.1698, 3 32.1771, 2.98742 " /><path d="M32.1771, 2.98742 C32.2163, 2.92225 32.2555, 2.57137 32.2947, 2.02367  C32.3398, 1.39786 32.3849, 0.517688 32.43, -0.328346  C32.4656, -0.996183 32.5012, -1.63575 32.5368, -2.11164  C32.5787, -2.67585 32.6206, -3.00326 32.6625, -3 " /><path d="M32.6625, -3 Q32.6698, -3 32.6771, -2.98742 " /><path d="M32.0375, 3 C32.0759, 3.00234 32.1144, 2.7282 32.1529, 2.2447  C32.2025, 1.62771 32.2521, 0.666046 32.3016, -0.26666  C32.3359, -0.909738 32.3701, -1.53148 32.4043, -2.00974  C32.4438, -2.56527 32.4834, -2.92174 32.5229, -2.98741 " /><path d="M32.5229, -2.98741 Q32.5302, -3 32.5375, -3 " /><path d="M33.0229, 2.98741 Q33.0302, 3 33.0375, 3 " /><path id= "63" d=" M 34.0375 3 L 34.1625 3 " />
<path d="M33.1625, 3 Q33.1698, 3 33.1771, 2.98741 " /><path d="M33.1771, 2.98741 C33.2163, 2.92225 33.2555, 2.57137 33.2947, 2.02367  C33.3398, 1.39786 33.3849, 0.517676 33.43, -0.328361  C33.4655, -0.995855 33.5011, -1.63511 33.5367, -2.11092  C33.5787, -2.67557 33.6206, -3.00326 33.6625, -3 " /><path d="M33.6625, -3 Q33.6698, -3 33.6771, -2.98742 " /><path d="M33.0375, 3 C33.0759, 3.00234 33.1144, 2.7282 33.1529, 2.24471  C33.2025, 1.62793 33.252, 0.666736 33.3016, -0.265666  C33.3363, -0.917332 33.3709, -1.54706 33.4056, -2.02801  C33.4447, -2.57325 33.4838, -2.92239 33.5229, -2.98741 " /><path d="M33.5229, -2.98741 Q33.5302, -3 33.5375, -3 " /><path d="M34.0229, 2.98741 Q34.0302, 3 34.0375, 3 " /><path id= "70" d=" M 35.0375 3 L 35.1625 3 " />
<path d="M34.1625, 3 Q34.1698, 3 34.1771, 2.98741 " /><path d="M34.1771, 2.98741 C34.2163, 2.92225 34.2555, 2.57137 34.2947, 2.02366  C34.3398, 1.39785 34.3849, 0.517667 34.43, -0.328373  C34.4655, -0.995598 34.5011, -1.63461 34.5367, -2.11036  C34.5786, -2.67534 34.6206, -3.00327 34.6625, -3 " /><path d="M34.6625, -3 Q34.6698, -3 34.6771, -2.98742 " /><path d="M34.0375, 3 C34.076, 3.00234 34.1144, 2.7282 34.1529, 2.24471  C34.2025, 1.62817 34.252, 0.667481 34.3015, -0.264594  C34.3361, -0.913501 34.3706, -1.54077 34.4051, -2.02107  C34.4444, -2.57022 34.4836, -2.92215 34.5229, -2.98741 " /><path d="M34.5229, -2.98741 Q34.5302, -3 34.5375, -3 " /><path d="M35.0229, 2.98741 Q35.0302, 3 35.0375, 3 " /><path id= "77" d=" M 36.0375 3 L 36.1625 3 " />
<path d="M35.1625, 3 Q35.1698, 3 35.1771, 2.98741 " /><path d="M35.1771, 2.98741 C35.2163, 2.92225 35.2555, 2.57137 35.2947, 2.02366  C35.3398, 1.39785 35.3849, 0.517653 35.43, -0.328393  C35.4655, -0.995166 35.5011, -1.63377 35.5366, -2.10941  C35.5786, -2.67496 35.6205, -3.00327 35.6625, -3 " /><path d="M35.6625, -3 Q35.6698, -3 35.6771, -2.98742 " /><path d="M35.0375, 3 C35.076, 3.00234 35.1144, 2.72821 35.1529, 2.24472  C35.2024, 1.6284 35.252, 0.668196 35.3015, -0.263565  C35.3357, -0.90703 35.37, -1.52936 35.4042, -2.00817  C35.4438, -2.56459 35.4833, -2.92169 35.5229, -2.98741 " /><path d="M35.5229, -2.98741 Q35.5302, -3 35.5375, -3 " /><path d="M36.0229, 2.98741 Q36.0302, 3 36.0375, 3 " /><path id= "84" d=" M 37.0375 3 L 37.1625 3 " />
<path d="M36.1625, 3 Q36.1698, 3 36.1771, 2.98741 " /><path d="M36.1771, 2.98741 C36.2163, 2.92225 36.2555, 2.57136 36.2947, 2.02366  C36.3398, 1.39784 36.3849, 0.517635 36.43, -0.328418  C36.4655, -0.994591 36.501, -1.63265 36.5365, -2.10815  C36.5785, -2.67446 36.6205, -3.00328 36.6625, -3 " /><path d="M36.6625, -3 Q36.6698, -3 36.6771, -2.98742 " /><path d="M36.0375, 3 C36.076, 3.00234 36.1144, 2.72821 36.1529, 2.24472  C36.2024, 1.62865 36.2519, 0.668958 36.3014, -0.262467  C36.336, -0.911857 36.3705, -1.53973 36.4051, -2.02047  C36.4443, -2.56996 36.4836, -2.92213 36.5229, -2.98741 " /><path d="M36.5229, -2.98741 Q36.5302, -3 36.5375, -3 " /><path d="M37.0229, 2.98741 Q37.0302, 3 37.0375, 3 " /><path id= "91" d=" M 38.0375 3 L 38.1625 3 " />
<path d="M37.1625, 3 Q37.1698, 3 37.1771, 2.98741 " /><path d="M37.1771, 2.98741 C37.2163, 2.92225 37.2555, 2.57136 37.2947, 2.02366  C37.3398, 1.39784 37.3849, 0.517638 37.43, -0.328414  C37.4655, -0.994694 37.501, -1.63285 37.5365, -2.10837  C37.5785, -2.67455 37.6205, -3.00328 37.6625, -3 " /><path d="M37.6625, -3 Q37.6698, -3 37.6771, -2.98742 " /><path d="M37.0375, 3 C37.076, 3.00234 37.1144, 2.72821 37.1529, 2.24473  C37.2024, 1.62889 37.2519, 0.669718 37.3014, -0.261373  C37.336, -0.911634 37.3706, -1.5404 37.4052, -2.02155  C37.4444, -2.57043 37.4837, -2.92217 37.5229, -2.98741 " /><path d="M37.5229, -2.98741 Q37.5302, -3 37.5375, -3 " /><path d="M38.0229, 2.98741 Q38.0302, 3 38.0375, 3 " /><path id= "98" d=" M 39.0375 3 L 39.1625 3 " />
<path d="M38.1625, 3 Q38.1698, 3 38.1771, 2.98741 " /><path d="M38.1771, 2.98741 C38.2163, 2.92225 38.2555, 2.57136 38.2947, 2.02366  C38.3398, 1.39784 38.3849, 0.517642 38.43, -0.328408  C38.4655, -0.994833 38.501, -1.63312 38.5366, -2.10868  C38.5785, -2.67467 38.6205, -3.00328 38.6625, -3 " /><path d="M38.6625, -3 Q38.6698, -3 38.6771, -2.98742 " /><path d="M38.0375, 3 C38.076, 3.00234 38.1144, 2.72821 38.1529, 2.24473  C38.2024, 1.62911 38.2519, 0.670399 38.3013, -0.260392  C38.3361, -0.914623 38.3709, -1.54712 38.4057, -2.02956  C38.4448, -2.57393 38.4838, -2.92245 38.5229, -2.98741 " /><path d="M38.5229, -2.98741 Q38.5302, -3 38.5375, -3 " /><path d="M39.0229, 2.98741 Q39.0302, 3 39.0375, 3 " /><path id= "105" d=" M 40.0375 3 L 40.1625 3 " />
<path d="M39.1625, 3 Q39.1698, 3 39.1771, 2.98741 " /><path d="M39.1771, 2.98741 C39.2163, 2.92225 39.2555, 2.57136 39.2947, 2.02366  C39.3398, 1.39784 39.3849, 0.517636 39.43, -0.328416  C39.4655, -0.994629 39.501, -1.63273 39.5365, -2.10823  C39.5785, -2.67449 39.6205, -3.00328 39.6625, -3 " /><path d="M39.6625, -3 Q39.6698, -3 39.6771, -2.98742 " /><path d="M39.0375, 3 C39.076, 3.00234 39.1144, 2.72821 39.1529, 2.24473  C39.2024, 1.62933 39.2518, 0.671099 39.3013, -0.259384  C39.3356, -0.904986 39.37, -1.5296 39.4043, -2.00964  C39.4438, -2.56523 39.4834, -2.92175 39.5229, -2.98741 " /><path d="M39.5229, -2.98741 Q39.5302, -3 39.5375, -3 " /><path d="M40.0229, 2.98741 Q40.0302, 3 40.0375, 3 " /><path id= "112" d=" M 41.0375 3 L 41.1625 3 " />
<path d="M40.1625, 3 Q40.1698, 3 40.1771, 2.98741 " /><path d="M40.1771, 2.98741 C40.2163, 2.92224 40.2555, 2.57136 40.2947, 2.02366  C40.3398, 1.39783 40.3849, 0.517605 40.43, -0.328458  C40.4654, -0.993586 40.5009, -1.6307 40.5364, -2.10594  C40.5784, -2.67358 40.6205, -3.0033 40.6625, -3 " /><path d="M40.6625, -3 Q40.6698, -3 40.6771, -2.98742 " /><path d="M40.0375, 3 C40.076, 3.00234 40.1145, 2.72821 40.1529, 2.24474  C40.2024, 1.62958 40.2518, 0.671854 40.3012, -0.258296  C40.3361, -0.913629 40.3709, -1.5473 40.4058, -2.03036  C40.4448, -2.57428 40.4839, -2.92248 40.5229, -2.98741 " /><path d="M40.5229, -2.98741 Q40.5302, -3 40.5375, -3 " /><path d="M41.0229, 2.98741 Q41.0302, 3 41.0375, 3 " /><path id= "119" d=" M 42.0375 3 L 42.1625 3 " />
<path d="M41.1625, 3 Q41.1698, 3 41.1771, 2.98741 " /><path d="M41.1771, 2.98741 C41.2163, 2.92224 41.2555, 2.57136 41.2947, 2.02366  C41.3398, 1.39782 41.3849, 0.517589 41.43, -0.32848  C41.4654, -0.992991 41.5008, -1.62955 41.5363, -2.10464  C41.5783, -2.67306 41.6204, -3.00331 41.6625, -3 " /><path d="M41.6625, -3 Q41.6698, -3 41.6771, -2.98741 " /><path d="M41.0375, 3 C41.076, 3.00234 41.1145, 2.72822 41.1529, 2.24474  C41.2023, 1.62988 41.2517, 0.672821 41.3011, -0.256901  C41.3357, -0.905819 41.3702, -1.53368 41.4047, -2.01506  C41.4441, -2.56761 41.4835, -2.92194 41.5229, -2.98741 " /><path d="M41.5229, -2.98741 Q41.5302, -3 41.5375, -3 " /><path d="M42.0229, 2.98741 Q42.0302, 3 42.0375, 3 " /><path id= "126" d=" M 43.0375 3 L 43.1625 3 " />
<path d="M42.1625, 3 Q42.1698, 3 42.1771, 2.98741 " /><path d="M42.1771, 2.98741 C42.2163, 2.92224 42.2555, 2.57136 42.2947, 2.02366  C42.3398, 1.39783 42.3849, 0.517616 42.43, -0.328442  C42.4654, -0.993997 42.5009, -1.6315 42.5364, -2.10684  C42.5784, -2.67394 42.6205, -3.00329 42.6625, -3 " /><path d="M42.6625, -3 Q42.6698, -3 42.6771, -2.98741 " /><path d="M42.0375, 3 C42.076, 3.00234 42.1145, 2.72822 42.1529, 2.24475  C42.2026, 1.62611 42.2523, 0.66086 42.3021, -0.274173  C42.3362, -0.915866 42.3704, -1.53578 42.4045, -2.01257  C42.444, -2.56652 42.4835, -2.92185 42.5229, -2.98741 " /><path d="M42.5229, -2.98741 Q42.5302, -3 42.5375, -3 " /><path d="M43.0229, 2.98741 Q43.0302, 3 43.0375, 3 " /><path id= "133" d=" M 44.0375 3 L 44.1625 3 " />
<path d="M43.1625, 3 Q43.1698, 3 43.1771, 2.98741 " /><path d="M43.1771, 2.98741 C43.2163, 2.92224 43.2555, 2.57136 43.2947, 2.02365  C43.3398, 1.39781 43.3849, 0.517571 43.43, -0.328504  C43.4654, -0.992281 43.5007, -1.62818 43.5361, -2.10309  C43.5783, -2.67244 43.6204, -3.00332 43.6625, -3 " /><path d="M43.6625, -3 Q43.6698, -3 43.6771, -2.98741 " /><path d="M43.0375, 3 C43.076, 3.00234 43.1145, 2.72822 43.1529, 2.24475  C43.2026, 1.62639 43.2523, 0.661715 43.302, -0.272942  C43.3366, -0.922932 43.3712, -1.55057 43.4058, -2.03  C43.4448, -2.57413 43.4839, -2.92247 43.5229, -2.98741 " /><path d="M43.5229, -2.98741 Q43.5302, -3 43.5375, -3 " /><path d="M44.0229, 2.98741 Q44.0302, 3 44.0375, 3 " /><path d="M44.4, -1.94845 C44.4, -1.35132 44.4, -0.548784 44.4, 0.23539 " /><path d="M44.1625, 3 Q44.1698, 3 44.1771, 2.98741 " /><path d="M44.1771, 2.98741 C44.2163, 2.92224 44.2555, 2.57136 44.2947, 2.02366  C44.3298, 1.53585 44.3649, 0.895734 44.4, 0.23539 " /><path d="M44.0375, 3 C44.076, 3.00234 44.1145, 2.72822 44.1529, 2.24476  C44.1801, 1.90518 44.2073, 1.46526 44.2345, 0.980677  C44.2897, -0.00312817 44.3448, -1.16042 44.4, -1.94845 " /><path d="M44.8042, 2.59584 Q44.7988, 2.60116 44.7935, 2.59202 " /><path d="M44.4872, -2.91283 Q44.4824, -2.91758 44.4777, -2.9094 " /><path d="M44.4777, -2.9094 C44.4515, -2.86707 44.4256, -2.51362 44.4, -1.94845 " /><path id= "147" d=" M 44.8042 2.59584 L 45 2.4 " />
<path d="M45, -2.4 Q45, -2.3997 45, -2.32759 " /><path d="M44.9413, -2.4037 C44.9642, -2.41464 44.9937, -2.37477 45, -2.32759 " /><path d="M44.4, 0.23539 C44.4881, -0.471958 44.5792, -1.15912 44.6739, -1.6473  C44.7599, -2.09288 44.8488, -2.36894 44.9413, -2.4037 " /><path d="M45, -2.32759 C45, -2.16645 45, -1.78005 45, -1.27577 " /><path d="M45, -1.27577 C44.9868, -0.757542 44.9668, -0.100204 44.9413, 0.517402 " /><path d="M44.8042, 2.59584 C44.8268, 2.5748 44.8496, 2.34919 44.8727, 1.96684  C44.8953, 1.59417 44.9182, 1.07341 44.9413, 0.517402 " /><path d="M45, -1.27577 Q45, -1.11426 45, -0.952745  Q45, -0.780216 45, -0.607686  Q45, -0.428128 45, -0.24857  Q45, 0.117049 45, 0.47847  Q45, 0.654024 45, 0.829578  Q45, 0.995538 45, 1.1615  Q45, 1.31403 45, 1.46655  Q45, 1.60212 45, 1.73769  Q45, 1.85316 45, 1.96863  Q45, 2.06133 45, 2.15403  Q45, 2.22183 45, 2.28962  Q45, 2.33093 45, 2.37224  Q45, 2.38612 45, 2.4 " /></g>

</svg>
