<svg xmlns="http://www.w3.org/2000/svg" viewBox="-5.721804000000001 -7.323254 6.731908000000271 14.646508">
<rect width="100%" height="100%" fill="white"/>
<g   fill="none"
   stroke="rgb(0, 0, 0)"
   stroke-linecap="butt"
   stroke-linejoin="miter"
   stroke-width="0.35"
   transform="scale(1, -1)"
  >
<path id= "1" d=" M -4.7117 -5.46735 L -4.36136 -6.31315 " />
<path id= "2" d=" M 2.70417e-13 -5.46735 L -0.350343 -6.31315 " />
</g>
<g   fill="none"
   stroke="rgb(0, 0, 0)"
   stroke-linecap="butt"
   stroke-linejoin="miter"
   stroke-width="0.35"
   transform="scale(1, -1)"
  >
<path d="M-4.7117, 4.73486 C-4.7117, 4.97261 -4.7117, 5.1566 -4.7117, 5.28105  C-4.7117, 5.31526 -4.7117, 5.34559 -4.7117, 5.37203  C-4.7117, 5.39628 -4.7117, 5.41659 -4.7117, 5.43297  C-4.7117, 5.44712 -4.7117, 5.45731 -4.7117, 5.46353  C-4.7117, 5.4648 -4.7117, 5.46608 -4.7117, 5.46735 " /><path d="M-4.7117, -1.9373e-08 C-4.7117, 0.409197 -4.7117, 0.816695 -4.7117, 1.2166  C-4.7117, 1.34824 -4.7117, 1.47989 -4.7117, 1.61153  C-4.7117, 1.74017 -4.7117, 1.86881 -4.7117, 1.99745  C-4.7117, 2.12236 -4.7117, 2.24728 -4.7117, 2.37219  C-4.7117, 2.49269 -4.7117, 2.61318 -4.7117, 2.73368  C-4.7117, 2.84907 -4.7117, 2.96447 -4.7117, 3.07987  C-4.7117, 3.18952 -4.7117, 3.29918 -4.7117, 3.40884  C-4.7117, 3.51214 -4.7117, 3.61544 -4.7117, 3.71874  C-4.7117, 3.81511 -4.7117, 3.91148 -4.7117, 4.00785  C-4.7117, 4.09675 -4.7117, 4.18565 -4.7117, 4.27455  C-4.7117, 4.35548 -4.7117, 4.43641 -4.7117, 4.51734  C-4.7117, 4.58985 -4.7117, 4.66235 -4.7117, 4.73486 " /><path d="M-4.7117, -4.73486 C-4.7117, -4.66235 -4.7117, -4.58985 -4.7117, -4.51734  C-4.7117, -4.43641 -4.7117, -4.35548 -4.7117, -4.27455  C-4.7117, -4.18565 -4.7117, -4.09675 -4.7117, -4.00785  C-4.7117, -3.91148 -4.7117, -3.81511 -4.7117, -3.71874  C-4.7117, -3.61544 -4.7117, -3.51214 -4.7117, -3.40884  C-4.7117, -3.29918 -4.7117, -3.18952 -4.7117, -3.07987  C-4.7117, -2.96447 -4.7117, -2.84907 -4.7117, -2.73368  C-4.7117, -2.61318 -4.7117, -2.49269 -4.7117, -2.37219  C-4.7117, -2.24728 -4.7117, -2.12236 -4.7117, -1.99745  C-4.7117, -1.86881 -4.7117, -1.74017 -4.7117, -1.61153  C-4.7117, -1.47989 -4.7117, -1.34824 -4.7117, -1.2166  C-4.7117, -0.816695 -4.7117, -0.409197 -4.7117, -1.9373e-08 " /><path d="M-4.7117, -5.46735 C-4.7117, -5.46608 -4.7117, -5.4648 -4.7117, -5.46353  C-4.7117, -5.45731 -4.7117, -5.44712 -4.7117, -5.43297  C-4.7117, -5.41659 -4.7117, -5.39628 -4.7117, -5.37203  C-4.7117, -5.34559 -4.7117, -5.31526 -4.7117, -5.28105  C-4.7117, -5.1566 -4.7117, -4.97261 -4.7117, -4.73486 " /><path id= "5" d=" M -4.7117 5.46735 L -4.36136 6.31315 " />
<path d="M-4.7117, -4.73486 C-4.7106, -5.2355 -4.59954, -5.73583 -4.36136, -6.31315 " /><path d="M-4.36136, -3.15658 C-4.59954, -3.73389 -4.7106, -4.23423 -4.7117, -4.73486 " /><path d="M-4.7117, -1.9373e-08 C-4.7106, -1.00127 -4.59954, -2.00194 -4.36136, -3.15658 " /><path d="M-4.36136, 3.15658 C-4.59954, 2.00194 -4.7106, 1.00127 -4.7117, -1.9373e-08 " /><path d="M-4.7117, 4.73486 C-4.7106, 4.23423 -4.59954, 3.73389 -4.36136, 3.15658 " /><path d="M-4.36136, 6.31315 C-4.59954, 5.73583 -4.7106, 5.2355 -4.7117, 4.73486 " /><path id= "12" d=" M -4.36136 6.31315 L -0.350343 6.31315 " />
<path id= "13" d=" M -0.350343 -6.31315 L -4.36136 -6.31315 " />
<path d="M-0.350343, -6.31315 C-0.112164, -5.73583 -0.00110179, -5.2355 0, -4.73486 " /><path id= "15" d=" M -0.350343 -3.15658 L -4.36136 -3.15658 " />
<path d="M-1.38778e-17, -4.73486 C-0.00110178, -4.23423 -0.112164, -3.73389 -0.350343, -3.15658 " /><path d="M-0.350343, -3.15658 C-0.112164, -2.00194 -0.00110179, -1.00127 0, -1.9373e-08 " /><path id= "18" d=" M -0.350343 3.15658 L -4.36136 3.15658 " />
<path d="M1.38778e-17, -1.9373e-08 C-0.00110178, 1.00127 -0.112164, 2.00194 -0.350343, 3.15658 " /><path d="M-0.350343, 3.15658 C-0.112164, 3.73389 -0.00110178, 4.23423 0, 4.73486 " /><path d="M1.38778e-17, 4.73486 C-0.00110179, 5.2355 -0.112164, 5.73583 -0.350343, 6.31315 " /><path id= "22" d=" M -0.350343 6.31315 L 1.47785e-13 5.46735 " />
<path d="M0, -5.46735 C0, -5.46608 0, -5.4648 0, -5.46353  C0, -5.45731 0, -5.44712 0, -5.43297  C0, -5.41659 0, -5.39628 0, -5.37203  C0, -5.34559 0, -5.31526 0, -5.28105  C0, -5.1566 0, -4.97261 0, -4.73486 " /><path d="M0, -4.73486 C0, -4.66235 0, -4.58985 0, -4.51734  C0, -4.43641 0, -4.35548 0, -4.27455  C0, -4.18565 0, -4.09675 0, -4.00785  C0, -3.91148 0, -3.81511 0, -3.71874  C0, -3.61544 0, -3.51214 0, -3.40884  C0, -3.29918 0, -3.18952 0, -3.07987  C0, -2.96447 0, -2.84907 0, -2.73368  C0, -2.61318 0, -2.49269 0, -2.37219  C0, -2.24728 0, -2.12236 0, -1.99745  C0, -1.86881 0, -1.74017 0, -1.61153  C0, -1.47989 0, -1.34824 0, -1.2166  C0, -0.816695 0, -0.409197 0, -1.9373e-08 " /><path d="M0, -1.9373e-08 C0, 0.409197 0, 0.816695 0, 1.2166  C0, 1.34824 0, 1.47989 0, 1.61153  C0, 1.74017 0, 1.86881 0, 1.99745  C0, 2.12236 0, 2.24728 0, 2.37219  C0, 2.49269 0, 2.61318 0, 2.73368  C0, 2.84907 0, 2.96447 0, 3.07987  C0, 3.18952 0, 3.29918 0, 3.40884  C0, 3.51214 0, 3.61544 0, 3.71874  C0, 3.81511 0, 3.91148 0, 4.00785  C0, 4.09675 0, 4.18565 0, 4.27455  C0, 4.35548 0, 4.43641 0, 4.51734  C0, 4.58985 0, 4.66235 0, 4.73486 " /><path d="M0, 4.73486 C0, 4.97261 0, 5.1566 0, 5.28105  C0, 5.31526 0, 5.34559 0, 5.37203  C0, 5.39628 0, 5.41659 0, 5.43297  C0, 5.44712 0, 5.45731 0, 5.46353  C0, 5.4648 0, 5.46608 0, 5.46735 " /></g>

</svg>
