<svg xmlns="http://www.w3.org/2000/svg" viewBox="-7.323254 -6.477454 14.646508 12.954908">
<rect width="100%" height="100%" fill="white"/>
<g   fill="none"
   stroke="rgb(0, 0, 0)"
   stroke-linecap="butt"
   stroke-linejoin="miter"
   stroke-width="0.35"
   transform="scale(1, -1)"
  >
<path d="M3.0792, -8.88178e-16 C3.03062, -0.645325 2.76982, -1.27041 2.34454, -1.75035  C1.95067, -2.19881 1.41636, -2.51856 0.83973, -2.64704  C0.300605, -2.76948 -0.272735, -2.72337 -0.777667, -2.51434  C-1.25947, -2.3171 -1.6765, -1.97251 -1.95364, -1.53994 " /><circle cx ="0" cy ="0" r ="3.57187" /><path d="M3.0792, -2.22045e-16 C3.11178, 0.416491 3.0581, 0.840485 2.92356, 1.23836 " /><path d="M1.19157, 2.94294 C1.22643, 2.93645 1.26977, 2.92422 1.32159, 2.90625  C1.50424, 2.84287 1.73115, 2.7241 1.9344, 2.57371  C1.99633, 2.52822 2.05678, 2.47981 2.11573, 2.42847 " /><path d="M2.11573, 2.42847 C2.48854, 2.1082 2.78352, 1.66091 2.92356, 1.23836 " /><path d="M-1.53996, 1.95362 C-1.26514, 2.31885 -0.879635, 2.60972 -0.441112, 2.78644  C0.0651155, 2.99224 0.639689, 3.04539 1.19157, 2.94294 " /><path d="M-1.53996 1.95362 A2.48759 2.48759 0 0 1 -1.95364 -1.53994" /><path d="M2.48759, 8.00812e-07 C2.49102, 0.698224 2.18187, 1.39002 1.6594, 1.85325  C1.27664, 2.19738 0.784501, 2.4172 0.272785, 2.47259  C-0.368541, 2.54591 -1.03463, 2.35519 -1.53996, 1.95362 " /><path d="M5.46735 0 A5.46735 5.46735 0 0 1 4.73486 2.73368" /><path d="M4.73486 -2.73367 A5.46735 5.46735 0 0 1 5.46735 -1.33911e-15" /><path d="M-1.9373e-08 -5.46735 A5.46735 5.46735 0 0 1 4.73486 -2.73367" /><path d="M-4.73486 -2.73367 A5.46735 5.46735 0 0 1 -1.9373e-08 -5.46735" /><path d="M-4.73486 2.73368 A5.46735 5.46735 0 0 1 -4.73486 -2.73367" /><path d="M1.50201e-08 5.46735 A5.46735 5.46735 0 0 1 -4.73486 2.73368" /><path d="M4.73486 2.73368 A5.46735 5.46735 0 0 1 1.50201e-08 5.46735" /><path d="M2.48759, 6.00607e-07 L2.48435, 0.127019 " /><path d="M2.42487, 0.555105 L2.4106, 0.614095 " /><path d="M2.30376, 0.938519 Q2.27183, 1.01688 2.23466, 1.09289 " /><path d="M2.19279, 1.17464 Q2.01137, 1.51257 1.73705, 1.78066 " /><path d="M1.36339, 2.08069 Q1.21847, 2.17564 1.06179, 2.2496 " /><path d="M0.865217, 2.33228 Q0.771468, 2.36705 0.675236, 2.3942 " /><path d="M-0.234431, 2.47652 C-0.545229, 2.44725 -0.850309, 2.35866 -1.12847, 2.2169 " /><path d="M-1.31208, 2.11343 L-1.34482, 2.09275 " /><path d="M-1.95364, -1.53994 C-1.59183, -2.00178 -1.06115, -2.32701 -0.48541, -2.43977  C-0.00278196, -2.5367 0.508191, -2.48527 0.961826, -2.29412  C1.41923, -2.10334 1.81633, -1.77178 2.08567, -1.35576  C2.34693, -0.955295 2.48838, -0.478146 2.48759, 4.44089e-16 " /><path d="M4.73486, 2.73368 C5.2355, 1.86655 5.73583, 0.999944 6.31315, 3.49498e-13 " /><path d="M1.50201e-08, 5.46735 C1.00127, 5.46735 2.00194, 5.46735 3.15658, 5.46735 " /><path d="M3.15658, 5.46735 C3.73389, 4.46741 4.23423, 3.6008 4.73486, 2.73368 " /><path d="M-4.73486, 2.73368 C-4.23423, 3.6008 -3.73389, 4.46741 -3.15658, 5.46735 " /><path d="M-3.15658, 5.46735 C-2.00194, 5.46735 -1.00127, 5.46735 1.50201e-08, 5.46735 " /><path d="M-4.73486, -2.73367 C-5.2355, -1.86655 -5.73583, -0.999943 -6.31315, -2.90434e-13 " /><path d="M-6.31315, 4.06809e-13 C-5.73583, 0.999944 -5.2355, 1.86655 -4.73486, 2.73368 " /><path d="M-3.15658, -5.46735 C-3.73389, -4.46741 -4.23423, -3.6008 -4.73486, -2.73367 " /><path d="M-1.9373e-08, -5.46735 C-1.00127, -5.46735 -2.00194, -5.46735 -3.15658, -5.46735 " /><path d="M3.15658, -5.46735 C2.00194, -5.46735 1.00127, -5.46735 -1.9373e-08, -5.46735 " /><path d="M4.73486, -2.73367 C4.23423, -3.6008 3.73389, -4.46741 3.15658, -5.46735 " /><path d="M6.31315, -3.48388e-13 C5.73583, -0.999943 5.2355, -1.86655 4.73486, -2.73367 " /><path d="M2.48759, 4.00403e-07 L2.48435, 0.126878 " /><path d="M2.4264, 0.548377 L2.41522, 0.595657 " /><path d="M2.3028, 0.940877 L2.29724, 0.954372 " /><path d="M2.26069, 1.03797 L2.23134, 1.09966 " /><path d="M2.20541, 1.15077 Q2.02753, 1.4909 1.75589, 1.76209 " /><path d="M1.31033, 2.11451 Q1.19301, 2.18721 1.06836, 2.24649 " /><path d="M0.847344, 2.33883 Q0.743353, 2.3765 0.636433, 2.4048 " /><path d="M0.282767, 2.47147 L0.267094, 2.47321 " /><path d="M0.0890206, 2.486 L0.0855126, 2.48612 " /><path d="M-0.218181, 2.47801 L-0.285086, 2.4712 " /><path d="M-0.749041, 2.37214 L-0.796695, 2.35656 " /><path d="M-1.31081, 2.11421 L-1.33358, 2.09992 " /><path d="M-1.95364, -1.53994 C-1.59018, -2.00392 -1.05627, -2.32995 -0.47751, -2.44133 " /><path d="M-0.36197, -2.46112 C0.0854267, -2.52756 0.550524, -2.46835 0.967002, -2.29195  C1.42213, -2.10089 1.81715, -1.77036 2.08548, -1.35605  C2.34686, -0.955529 2.48838, -0.478264 2.48759, -5.55112e-16 " /><path d="M1.9773, 1.50944 Q1.83661, 1.69366 1.66435, 1.84879 " /><path d="M1.56703, 1.93198 L1.55645, 1.94051 " /><path d="M1.35086, 2.08885 L1.3107, 2.11428 " /><path d="M0.870481, 2.33032 Q0.649833, 2.41268 0.417667, 2.45228 " /><path d="M0.276395, 2.47219 L0.2604, 2.47393 " /><path d="M0.095733, 2.48575 L0.0838694, 2.48618 " /><path d="M-0.245953, 2.4754 L-0.300255, 2.46941 " /><path d="M-0.752465, 2.37106 L-0.800022, 2.35544 " /><path d="M-1.3097, 2.1149 L-1.34341, 2.09365 " /><path d="M-1.53996, 1.95362 C-1.68165, 1.84186 -1.8097, 1.7162 -1.92412, 1.57666  C-2.31035, 1.10848 -2.51423, 0.49506 -2.48511, -0.111175  C-2.46219, -0.652232 -2.2556, -1.18323 -1.90684, -1.59752  C-1.54502, -2.03177 -1.03051, -2.33522 -0.475378, -2.44175  C0.0088177, -2.53692 0.520881, -2.48289 0.974547, -2.28875  C1.4305, -2.09559 1.82548, -1.76223 2.0925, -1.3452  C2.34943, -0.946941 2.48835, -0.473945 2.48759, 0 " /></g>

</svg>
