<svg xmlns="http://www.w3.org/2000/svg" viewBox="-6.96 -6.96 13.92 13.92">
<rect width="100%" height="100%" fill="white"/>
<g   fill="none"
   stroke="rgb(0, 0, 0)"
   stroke-linecap="butt"
   stroke-linejoin="miter"
   stroke-width="0.35"
   transform="scale(1, -1)"
  >
<path d="M-2.81474 -3.44706e-16 A2.81474 2.81474 0 0 0 2.81474 6.89411e-16" /><circle cx ="0" cy ="0" r ="6" /><path d="M2.81474 0 A2.81474 2.81474 0 0 0 -2.81474 -3.44706e-16" /><path d="M-1.60936, 1.89026 C-1.56242, 1.74362 -1.5483, 1.58553 -1.56697, 1.41599  C-1.58423, 1.27291 -1.63191, 1.12294 -1.71028, 0.987702  C-1.7888, 0.851063 -1.89588, 0.733981 -2.01226, 0.647173  C-2.14904, 0.547287 -2.29218, 0.481102 -2.44169, 0.448618 " /><path d="M-2.44169, 0.448618 C-2.63533, 0.410077 -2.8033, 0.218782 -2.8, 0 " /><path d="M-2.8, 0 C-2.8033, -0.218783 -2.63533, -0.410078 -2.44169, -0.448618 " /><path d="M-2.44169, -0.448618 C-2.29123, -0.481289 -2.14726, -0.548098 -2.00977, -0.649044  C-1.89449, -0.73553 -1.78845, -0.851809 -1.71052, -0.987298  C-1.63144, -1.12362 -1.58359, -1.27489 -1.5666, -1.41908  C-1.54848, -1.58748 -1.56274, -1.74454 -1.60936, -1.89026 " /><path d="M-1.60936, -1.89026 C-1.63503, -1.97299 -1.6367, -2.05802 -1.61438, -2.14535  C-1.58471, -2.25916 -1.50643, -2.36421 -1.39987, -2.42494  C-1.29351, -2.48705 -1.16276, -2.50208 -1.04905, -2.47031  C-0.962974, -2.44585 -0.890735, -2.40203 -0.832332, -2.33888 " /><path d="M-0.832332, -2.33888 C-0.728807, -2.22491 -0.598962, -2.13363 -0.442797, -2.06503  C-0.310257, -2.00844 -0.156537, -1.97475 -0.000233486, -1.975  C0.157358, -1.97468 0.312293, -2.00887 0.445661, -2.06625  C0.600554, -2.13476 0.729444, -2.22564 0.832332, -2.33888 " /><path d="M0.832332, -2.33888 C0.891146, -2.40247 0.963947, -2.44644 1.05073, -2.47077  C1.16414, -2.50198 1.29425, -2.48671 1.40013, -2.4248  C1.5071, -2.36374 1.58549, -2.25803 1.61483, -2.14366  C1.63668, -2.05688 1.63486, -1.97242 1.60936, -1.89026 " /><path d="M1.60936, -1.89026 C1.56242, -1.74362 1.5483, -1.58553 1.56697, -1.41599  C1.58423, -1.27291 1.63191, -1.12294 1.71028, -0.987702  C1.7888, -0.851063 1.89588, -0.733981 2.01226, -0.647173  C2.14904, -0.547287 2.29218, -0.481102 2.44169, -0.448618 " /><path d="M2.44169, -0.448618 C2.63542, -0.410045 2.80338, -0.218659 2.8, 0.000147343  C2.80323, 0.218848 2.63533, 0.410056 2.44169, 0.448618 " /><path d="M2.44169, 0.448618 C2.29123, 0.481289 2.14726, 0.548098 2.00977, 0.649044  C1.89449, 0.73553 1.78845, 0.851809 1.71052, 0.987298  C1.63144, 1.12362 1.58359, 1.27489 1.5666, 1.41908  C1.54848, 1.58748 1.56274, 1.74454 1.60936, 1.89026 " /><path d="M1.60936, 1.89026 C1.63503, 1.97299 1.6367, 2.05802 1.61438, 2.14535  C1.58471, 2.25916 1.50643, 2.36421 1.39987, 2.42494  C1.29351, 2.48705 1.16276, 2.50208 1.04905, 2.47031  C0.962974, 2.44585 0.890735, 2.40203 0.832332, 2.33888 " /><path d="M0.832332, 2.33888 C0.728807, 2.22491 0.598962, 2.13363 0.442797, 2.06503  C0.310257, 2.00844 0.156537, 1.97475 0.000233486, 1.975  C-0.157358, 1.97468 -0.312293, 2.00887 -0.445661, 2.06625  C-0.600554, 2.13476 -0.729444, 2.22564 -0.832332, 2.33888 " /><path d="M-0.832332, 2.33888 C-0.891146, 2.40247 -0.963947, 2.44644 -1.05073, 2.47077  C-1.16414, 2.50198 -1.29425, 2.48671 -1.40013, 2.4248  C-1.5071, 2.36374 -1.58549, 2.25803 -1.61483, 2.14366  C-1.63668, 2.05688 -1.63486, 1.97242 -1.60936, 1.89026 " /><path d="M-1.60936, 1.89026 L-1.58632, 1.80413 " /><path d="M-1.56431, 1.66913 L-1.56265, 1.65147 " /><path d="M-1.56426, 1.44022 Q-1.56913, 1.39168 -1.57861, 1.34179 " /><path d="M-1.58716, 1.30108 L-1.60116, 1.24629 " /><path d="M-1.60591, 1.22997 Q-1.62034, 1.18154 -1.63964, 1.13321 " /><path d="M-1.67173, 1.0605 Q-1.74669, 0.907151 -1.85798, 0.786667 " /><path d="M-1.90349, 0.739974 Q-2.00721, 0.640809 -2.11901, 0.576205 " /><path d="M-2.2184, 0.524373 Q-2.27308, 0.499276 -2.32814, 0.480655 " /><path d="M-2.36189, 0.46979 L-2.44169, 0.448618 " /><path d="M-1.21155, 2.48462 L-1.21294, 2.48449 " /><path d="M-1.35389, 2.44815 Q-1.46621, 2.39827 -1.53877, 2.30146 " /><path d="M-1.57307, 2.24815 L-1.57482, 2.24495 " /><path d="M-1.62765, 1.98007 Q-1.6229, 1.93382 -1.60936, 1.89026 " /><path d="M0.832332, 2.33888 L0.769258, 2.27586 " /><path d="M0.663356, 2.18929 L0.648888, 2.17903 " /><path d="M0.465134, 2.07479 Q0.420667, 2.05475 0.372721, 2.03801 " /><path d="M0.333185, 2.02506 L0.278736, 2.00979 " /><path d="M0.26223, 2.00574 Q0.213074, 1.99402 0.161567, 1.98657 " /><path d="M0.0825602, 1.97801 Q-0.0877304, 1.96625 -0.247715, 2.00239 " /><path d="M-0.310909, 2.01846 Q-0.448647, 2.0587 -0.560498, 2.12322 " /><path d="M-0.655081, 2.18338 Q-0.704153, 2.21818 -0.747809, 2.25655 " /><path d="M-0.774095, 2.28035 L-0.832332, 2.33888 " /><path d="M1.54597, 2.29155 L1.54516, 2.29268 " /><path d="M1.44321, 2.39657 Q1.34386, 2.46891 1.22374, 2.48335 " /><path d="M1.16042, 2.4864 L1.15678, 2.48631 " /><path d="M0.900966, 2.39962 Q0.863284, 2.37238 0.832332, 2.33888 " /><path d="M2.44169, 0.448618 L2.35558, 0.471733 " /><path d="M2.22766, 0.520163 L2.21154, 0.52756 " /><path d="M2.02939, 0.634579 Q1.9898, 0.663065 1.95133, 0.69622 " /><path d="M1.92034, 0.723982 L1.8799, 0.763505 " /><path d="M1.86814, 0.775772 Q1.83341, 0.812483 1.8012, 0.853364 " /><path d="M1.75429, 0.917506 Q1.65896, 1.0591 1.61026, 1.21572 " /><path d="M1.59258, 1.27848 Q1.55856, 1.41789 1.55851, 1.54702 " /><path d="M1.56332, 1.65901 Q1.56893, 1.71891 1.58033, 1.7759 " /><path d="M1.5878, 1.81056 L1.60936, 1.89026 " /><path d="M2.75752, -0.193074 L2.7581, -0.19181 " /><path d="M2.7971, -0.0515744 Q2.81007, 0.0706434 2.76251, 0.181886 " /><path d="M2.7335, 0.238245 L2.7316, 0.241357 " /><path d="M2.52862, 0.419551 Q2.48619, 0.438566 2.44169, 0.448618 " /><path d="M1.60936, -1.89026 L1.58632, -1.80413 " /><path d="M1.56431, -1.66913 L1.56265, -1.65147 " /><path d="M1.56426, -1.44022 Q1.56913, -1.39168 1.57861, -1.34179 " /><path d="M1.58716, -1.30108 L1.60116, -1.24629 " /><path d="M1.60591, -1.22997 Q1.62034, -1.18154 1.63964, -1.13321 " /><path d="M1.67173, -1.0605 Q1.74669, -0.907151 1.85798, -0.786667 " /><path d="M1.90349, -0.739974 Q2.00721, -0.640809 2.11901, -0.576205 " /><path d="M2.2184, -0.524373 Q2.27308, -0.499276 2.32814, -0.480655 " /><path d="M2.36189, -0.46979 L2.44169, -0.448618 " /><path d="M1.21155, -2.48462 L1.21294, -2.48449 " /><path d="M1.35388, -2.44815 Q1.46621, -2.39827 1.53877, -2.30146 " /><path d="M1.57307, -2.24815 L1.57482, -2.24495 " /><path d="M1.62765, -1.98007 Q1.6229, -1.93382 1.60936, -1.89026 " /><path d="M-0.832332, -2.33888 L-0.769258, -2.27586 " /><path d="M-0.663356, -2.18929 L-0.648888, -2.17903 " /><path d="M-0.465134, -2.07479 Q-0.420667, -2.05475 -0.372721, -2.03801 " /><path d="M-0.333185, -2.02506 L-0.278736, -2.00979 " /><path d="M-0.26223, -2.00574 Q-0.213074, -1.99402 -0.161567, -1.98657 " /><path d="M-0.0825602, -1.97801 Q0.0877304, -1.96625 0.247715, -2.00239 " /><path d="M0.310909, -2.01846 Q0.448647, -2.0587 0.560498, -2.12322 " /><path d="M0.655081, -2.18338 Q0.704153, -2.21818 0.747809, -2.25655 " /><path d="M0.774095, -2.28035 L0.832332, -2.33888 " /><path d="M-1.54597, -2.29155 L-1.54516, -2.29268 " /><path d="M-1.44321, -2.39657 Q-1.34386, -2.46891 -1.22374, -2.48335 " /><path d="M-1.16042, -2.4864 L-1.15678, -2.48631 " /><path d="M-0.900966, -2.39962 Q-0.863284, -2.37238 -0.832332, -2.33888 " /><path d="M-2.44169, -0.448618 L-2.35558, -0.471733 " /><path d="M-2.22766, -0.520163 L-2.21154, -0.52756 " /><path d="M-2.02939, -0.634579 Q-1.9898, -0.663065 -1.95133, -0.69622 " /><path d="M-1.92034, -0.723982 L-1.8799, -0.763505 " /><path d="M-1.86814, -0.775772 Q-1.83341, -0.812483 -1.8012, -0.853364 " /><path d="M-1.75429, -0.917506 Q-1.65896, -1.0591 -1.61026, -1.21572 " /><path d="M-1.59258, -1.27848 Q-1.55856, -1.41789 -1.55851, -1.54702 " /><path d="M-1.56332, -1.65901 Q-1.56893, -1.71891 -1.58033, -1.7759 " /><path d="M-1.5878, -1.81056 L-1.60936, -1.89026 " /><path d="M-2.44169, 0.448618 Q-2.48522, 0.438783 -2.52679, 0.420367 " /><path d="M-2.70864, 0.27514 L-2.70933, 0.27422 " /><path d="M-2.75184, 0.204912 L-2.75184, 0.2049 " /><path d="M-2.79998, 0.00466021 L-2.8, 1.73472e-17 " /><path d="M-2.8, 0 L-2.8, -0.000338463 " /><path d="M-2.75128, -0.20604 L-2.75127, -0.206046 " /><path d="M-2.7086, -0.275201 L-2.70777, -0.276301 " /><path d="M-2.59343, -0.38389 L-2.59181, -0.384958 " /><path d="M-2.5307, -0.418608 Q-2.48729, -0.438318 -2.44169, -0.448618 " /><circle cx ="0" cy ="0" r ="0.387979" /></g>

</svg>
