<svg xmlns="http://www.w3.org/2000/svg" viewBox="-6.4242539999999995 -1.716104 12.848507999999999 3.432208">
<rect width="100%" height="100%" fill="white"/>
<g   fill="none"
   stroke="rgb(0, 0, 0)"
   stroke-linecap="butt"
   stroke-linejoin="miter"
   stroke-width="0.35"
   transform="scale(1, -1)"
  >
<path d="M5.01863 -0.83 A5.0868 5.0868 0 0 1 5.0868 -1.24591e-15" /><path d="M-5.01863 0.83 A5.0868 5.0868 0 0 1 -5.01863 -0.83" /><path d="M5.0868 0 A5.0868 5.0868 0 0 1 5.01863 0.83" /><path d="M-5.53815, 0.83 Q-5.1673, 0.83 -4.79646, 0.83  Q-4.41429, 0.83 -4.03213, 0.83  Q-3.64045, 0.83 -3.24878, 0.83  Q-2.84943, 0.83 -2.45009, 0.83  Q-2.04497, 0.83 -1.63985, 0.83  Q-0.822949, 0.83 -3.28626e-14, 0.83  Q0.822949, 0.83 1.63985, 0.83  Q2.04497, 0.83 2.45009, 0.83  Q2.84943, 0.83 3.24878, 0.83  Q3.64045, 0.83 4.03213, 0.83  Q4.41429, 0.83 4.79646, 0.83  Q5.1673, 0.83 5.53815, 0.83 " /><path d="M5.53815 0.83 A5.6 5.6 0 0 1 -5.53815 0.83" /><path d="M-5.53815, -0.83 Q-5.1673, -0.83 -4.79646, -0.83  Q-4.41429, -0.83 -4.03213, -0.83  Q-3.64045, -0.83 -3.24878, -0.83  Q-2.84943, -0.83 -2.45009, -0.83  Q-2.04497, -0.83 -1.63985, -0.83  Q-0.822949, -0.83 -3.28626e-14, -0.83  Q0.822949, -0.83 1.63985, -0.83  Q2.04497, -0.83 2.45009, -0.83  Q2.84943, -0.83 3.24878, -0.83  Q3.64045, -0.83 4.03213, -0.83  Q4.41429, -0.83 4.79646, -0.83  Q5.1673, -0.83 5.53815, -0.83 " /><path d="M-5.53815 -0.83 A5.6 5.6 0 0 1 5.53815 -0.83" /></g>

</svg>
