<svg xmlns="http://www.w3.org/2000/svg" viewBox="-5.046780399999999 -7.3966004000000005 26.634330799999997 21.8987508">
<rect width="100%" height="100%" fill="white"/>
<g   fill="none"
   stroke="rgb(0, 0, 0)"
   stroke-linecap="butt"
   stroke-linejoin="miter"
   stroke-width="0.35"
   transform="scale(1, -1)"
  >
<path id= "1" d=" M 17.9605 -12.4434 L 17.5761 -12.6653 " />
<path id= "2" d=" M 18.9764 -7.28987 L 18.8642 -7.22506 " />
<path id= "3" d=" M 15.3524 -12.5299 L 15.2402 -12.4651 " />
<path id= "4" d=" M 18.0784 -6.77139 L 17.9661 -6.70658 " />
<path id= "5" d=" M 14.4544 -12.0114 L 14.3421 -11.9466 " />
<path id= "6" d=" M 17.1804 -6.25292 L 17.0681 -6.1881 " />
<path id= "7" d=" M 13.5564 -11.4929 L 13.4441 -11.4281 " />
<path id= "8" d=" M 16.2823 -5.73444 L 16.1701 -5.66963 " />
<path id= "9" d=" M 12.6583 -10.9745 L 12.5461 -10.9096 " />
<path id= "10" d=" M 15.3843 -5.21597 L 15.2721 -5.15115 " />
<path id= "11" d=" M 11.7603 -10.456 L 11.648 -10.3912 " />
<path id= "12" d=" M 14.4863 -4.69749 L 14.374 -4.63267 " />
<path id= "13" d=" M 10.8623 -9.93752 L 10.75 -9.8727 " />
<path id= "14" d=" M 13.5883 -4.17902 L 13.476 -4.1142 " />
<path id= "15" d=" M 9.96426 -9.41904 L 9.85198 -9.35422 " />
<path id= "16" d=" M 12.6902 -3.66054 L 12.578 -3.59572 " />
<path id= "17" d=" M 9.06624 -8.90057 L 8.95395 -8.83574 " />
<path id= "18" d=" M 11.7922 -3.14207 L 11.6799 -3.07724 " />
<path id= "19" d=" M 8.16821 -8.38209 L 8.05593 -8.31727 " />
<path id= "20" d=" M 10.8942 -2.62359 L 10.7819 -2.55877 " />
<path id= "21" d=" M 7.27019 -7.86362 L 7.1579 -7.79879 " />
<path id= "22" d=" M 9.99617 -2.10512 L 9.88389 -2.04029 " />
<path id= "23" d=" M 6.37216 -7.34514 L 6.25987 -7.28031 " />
<path id= "24" d=" M 9.09815 -1.58664 L 8.98586 -1.52181 " />
<path id= "25" d=" M 5.47414 -6.82667 L 5.36184 -6.76184 " />
<path id= "26" d=" M 8.20012 -1.06817 L 8.08783 -1.00334 " />
<path id= "27" d=" M 4.57611 -6.30819 L 4.46381 -6.24336 " />
<path id= "28" d=" M 7.3021 -0.549693 L 7.1898 -0.48486 " />
<path id= "29" d=" M 3.67809 -5.78972 L 3.56579 -5.72488 " />
<path id= "30" d=" M 6.40407 -0.031218 L 6.29177 0.033617 " />
<path id= "31" d=" M 2.78006 -5.27124 L 2.66776 -5.20641 " />
<path id= "32" d=" M 5.50605 0.487257 L 5.36031 0.571395 " />
<path id= "33" d=" M 1.88203 -4.75277 L 1.86091 -4.74057 " />
<path id= "34" d=" M 5.12219 0.00543366 L 4.76842 3.09416 " />
<path id= "35" d=" M 2.55639 -4.43866 L -0.295415 -5.67665 " />
<path id= "36" d=" M 3.47336 5.40766 L 3.20993 5.55975 " />
<path id= "37" d=" M -2.94649 -5.71184 L -3.20993 -5.55975 " />
</g>
<g   fill="none"
   stroke="rgb(0, 0, 0)"
   stroke-linecap="butt"
   stroke-linejoin="miter"
   stroke-width="0.35"
   transform="scale(1, -1)"
  >
<path d="M17.9605 -12.4434 A2.54 1.46647 60 0 1 18.2658 -12.237" />
<path d="M19.5474, -10.1415 Q19.4573, -10.4616 19.3102, -10.778 " /><path d="M16.0053, -12.6417 C16.3505, -13.0208 16.9524, -13.0301 17.5761, -12.6653 " /><path d="M17.5761, -12.6653 C18.0795, -12.3766 18.5895, -11.8546 18.9803, -11.2229 " /><path d="M19.7507, -9.00449 C19.7174, -9.66056 19.5216, -10.3641 19.2216, -10.9658  C18.9541, -11.5068 18.6049, -11.9611 18.2658, -12.237 " /><path d="M18.9803 -11.2229 A3.175 1.83309 60 0 1 19.7507 -9.00449" />
<path d="M19.7462, -8.80812 Q19.7514, -8.90474 19.7507, -9.00449 " /><path d="M19.634, -8.74331 C19.6782, -9.50751 19.428, -10.4344 18.9803, -11.2229 " /><path d="M18.8482, -8.28965 C18.8903, -9.02268 18.6627, -9.90539 18.248, -10.6721  C17.9902, -11.1524 17.6636, -11.5859 17.313, -11.919  C17.0787, -12.1413 16.8417, -12.3153 16.6019, -12.4409  C16.1294, -12.6896 15.6781, -12.7201 15.3524, -12.5299 " /><path d="M18.9764, -7.28987 C19.4317, -7.54885 19.7112, -8.10555 19.7462, -8.80812 " /><path d="M18.736, -8.22483 C18.7686, -8.81292 18.6314, -9.49712 18.3589, -10.1407  C18.1386, -10.6643 17.8311, -11.1592 17.4826, -11.5589  C17.1894, -11.896 16.8681, -12.1656 16.5525, -12.3421  C16.0575, -12.6212 15.5802, -12.664 15.2402, -12.4651 " /><path d="M15.2402, -12.4651 Q15.0397, -12.349 14.9073, -12.1343 " /><path d="M18.4299, -7.06993 Q18.6653, -7.1104 18.8642, -7.22506 " /><path d="M18.8642, -7.22506 C19.3195, -7.48403 19.5989, -8.04074 19.634, -8.74331 " /><path d="M17.9502, -7.77117 C17.9922, -8.5042 17.7647, -9.38692 17.3499, -10.1536  C17.0922, -10.634 16.7656, -11.0675 16.4149, -11.4006  C16.1806, -11.6229 15.9436, -11.7969 15.7039, -11.9225  C15.2313, -12.1712 14.7801, -12.2017 14.4544, -12.0114 " /><path d="M18.0784, -6.77139 C18.5337, -7.03037 18.8132, -7.58708 18.8482, -8.28965 " /><path d="M17.8379, -7.70636 C17.8709, -8.30012 17.7306, -8.99188 17.453, -9.64091  C17.2347, -10.1542 16.9329, -10.6391 16.5913, -11.0327  C16.296, -11.3738 15.9717, -11.6465 15.6533, -11.8243  C15.1587, -12.1028 14.6819, -12.1454 14.3421, -11.9466 " /><path d="M14.3421, -11.9466 Q14.1417, -11.8305 14.0092, -11.6159 " /><path d="M17.5319, -6.55145 Q17.7673, -6.59192 17.9661, -6.70658 " /><path d="M17.9661, -6.70658 C18.4214, -6.96555 18.7009, -7.52228 18.736, -8.22483 " /><path d="M17.0522, -7.2527 C17.0942, -7.98573 16.8667, -8.86845 16.4519, -9.63518  C16.1942, -10.1155 15.8676, -10.549 15.5169, -10.8821  C15.2826, -11.1044 15.0455, -11.2784 14.8058, -11.404  C14.3333, -11.6527 13.882, -11.6832 13.5564, -11.4929 " /><path d="M17.1804, -6.25292 C17.6357, -6.5119 17.9152, -7.0686 17.9502, -7.77117 " /><path d="M16.9399, -7.18788 C16.9731, -7.78408 16.8314, -8.47907 16.5515, -9.1304  C16.332, -9.64438 16.0289, -10.1294 15.6861, -10.5225  C15.3928, -10.8597 15.0713, -11.1292 14.7557, -11.3056  C14.2609, -11.5843 13.784, -11.6269 13.4441, -11.4281 " /><path d="M13.4441, -11.4281 Q13.2437, -11.3121 13.1112, -11.0974 " /><path d="M16.6338, -6.03298 Q16.8692, -6.07344 17.0681, -6.1881 " /><path d="M17.0681, -6.1881 C17.5234, -6.44708 17.8029, -7.00379 17.8379, -7.70636 " /><path d="M16.1541, -6.73422 C16.1962, -7.46726 15.9686, -8.34999 15.5539, -9.11672  C15.2961, -9.59705 14.9695, -10.0306 14.6189, -10.3637  C14.3845, -10.586 14.1474, -10.76 13.9077, -10.8856  C13.4352, -11.1342 12.984, -11.1647 12.6583, -10.9745 " /><path d="M16.2823, -5.73444 C16.7377, -5.99342 17.0171, -6.55012 17.0522, -7.2527 " /><path d="M16.0419, -6.6694 C16.0747, -7.25969 15.9363, -7.9468 15.6618, -8.59252  C15.4422, -9.11215 15.1369, -9.60317 14.791, -10.0006  C14.4947, -10.3419 14.1694, -10.6142 13.8504, -10.7911  C13.3582, -11.0663 12.8843, -11.1075 12.5461, -10.9096 " /><path d="M12.5461, -10.9096 Q12.3456, -10.7936 12.2132, -10.5789 " /><path d="M15.7358, -5.5145 Q15.9712, -5.55497 16.1701, -5.66963 " /><path d="M16.1701, -5.66963 C16.6254, -5.9286 16.9049, -6.48532 16.9399, -7.18788 " /><path d="M15.2561, -6.21575 C15.2982, -6.94879 15.0706, -7.83152 14.6558, -8.59824  C14.3981, -9.07857 14.0715, -9.51209 13.7208, -9.84518  C13.4865, -10.0675 13.2494, -10.2415 13.0096, -10.3671  C12.5372, -10.6157 12.086, -10.6462 11.7603, -10.456 " /><path d="M15.3843, -5.21597 C15.8396, -5.47495 16.1191, -6.03165 16.1541, -6.73422 " /><path d="M15.1438, -6.15093 C15.1769, -6.74492 15.0364, -7.43698 14.7586, -8.08621  C14.5402, -8.59962 14.2382, -9.08453 13.8965, -9.47812  C13.5994, -9.82109 13.2731, -10.0947 12.953, -10.2723  C12.4606, -10.5478 11.9864, -10.5891 11.648, -10.3912 " /><path d="M11.648, -10.3912 Q11.4476, -10.2751 11.3152, -10.0604 " /><path d="M14.8378, -4.99602 Q15.0732, -5.03649 15.2721, -5.15115 " /><path d="M15.2721, -5.15115 C15.7274, -5.41013 16.0068, -5.96684 16.0419, -6.6694 " /><path d="M14.3581, -5.69727 C14.4001, -6.43031 14.1726, -7.31304 13.7578, -8.07978  C13.5001, -8.56011 13.1735, -8.99362 12.8228, -9.32671  C12.5884, -9.54907 12.3514, -9.72306 12.1116, -9.84866  C11.6391, -10.0973 11.1879, -10.1277 10.8623, -9.93752 " /><path d="M14.4863, -4.69749 C14.9416, -4.95647 15.2211, -5.51317 15.2561, -6.21575 " /><path d="M14.2458, -5.63245 C14.2789, -6.22811 14.1376, -6.92239 13.8582, -7.5732  C13.6389, -8.08724 13.3359, -8.57244 12.9931, -8.96573  C12.6961, -9.30753 12.37, -9.57991 12.0503, -9.75641  C11.5596, -10.0296 11.0873, -10.07 10.75, -9.8727 " /><path d="M10.75, -9.8727 Q10.5496, -9.75663 10.4171, -9.54196 " /><path d="M13.9398, -4.47755 Q14.1751, -4.51801 14.374, -4.63267 " /><path d="M14.374, -4.63267 C14.8293, -4.89165 15.1088, -5.44836 15.1438, -6.15093 " /><path d="M13.4601, -5.1788 C13.5021, -5.91184 13.2746, -6.79458 12.8598, -7.56131  C12.6021, -8.04164 12.2754, -8.47515 11.9248, -8.80825  C11.6904, -9.03062 11.4533, -9.20461 11.2135, -9.33022  C10.7411, -9.57879 10.2899, -9.60924 9.96426, -9.41904 " /><path d="M13.5883, -4.17902 C14.0436, -4.438 14.3231, -4.9947 14.3581, -5.69727 " /><path d="M13.3478, -5.11397 C13.3806, -5.70448 13.2421, -6.39188 12.9674, -7.0378  C12.7483, -7.55624 12.4438, -8.04618 12.0988, -8.44302  C11.8037, -8.7834 11.4797, -9.05532 11.1618, -9.23265  C10.6677, -9.5105 10.1914, -9.55279 9.85198, -9.35422 " /><path d="M9.85198, -9.35422 Q9.65155, -9.23815 9.5191, -9.02348 " /><path d="M13.0417, -3.95907 Q13.2771, -3.99954 13.476, -4.1142 " /><path d="M13.476, -4.1142 C13.9313, -4.37317 14.2108, -4.92988 14.2458, -5.63245 " /><path d="M12.562, -4.66032 C12.6041, -5.39337 12.3765, -6.27611 11.9618, -7.04284  C11.704, -7.52318 11.3774, -7.95669 11.0267, -8.28978  C10.7923, -8.51216 10.5552, -8.68616 10.3154, -8.81176  C9.843, -9.06031 9.39187, -9.09076 9.06624, -8.90057 " /><path d="M12.6902, -3.66054 C13.1456, -3.91952 13.425, -4.47623 13.4601, -5.1788 " /><path d="M12.4498, -4.5955 C12.4824, -5.18378 12.3451, -5.86823 12.0724, -6.51203  C11.8537, -7.03165 11.5492, -7.523 11.2038, -7.92108  C10.9064, -8.26473 10.5797, -8.53887 10.2591, -8.71676  C9.76666, -8.99232 9.29236, -9.03367 8.95395, -8.83574 " /><path d="M8.95395, -8.83574 Q8.75352, -8.71967 8.62108, -8.50501 " /><path d="M12.1437, -3.44059 Q12.3791, -3.48106 12.578, -3.59572 " /><path d="M12.578, -3.59572 C13.0333, -3.8547 13.3128, -4.4114 13.3478, -5.11397 " /><path d="M11.664, -4.14185 C11.7061, -4.8749 11.4785, -5.75765 11.0637, -6.52439  C10.806, -7.00472 10.4793, -7.43823 10.1287, -7.77132  C9.89427, -7.99373 9.65715, -8.16774 9.41731, -8.29334  C8.94491, -8.54184 8.49382, -8.57227 8.16821, -8.38209 " /><path d="M11.7922, -3.14207 C12.2475, -3.40105 12.527, -3.95775 12.562, -4.66032 " /><path d="M11.5517, -4.07702 C11.5844, -4.66616 11.4467, -5.35174 11.1732, -5.99636  C10.954, -6.51636 10.6489, -7.0079 10.3029, -7.40583  C10.0081, -7.74599 9.6844, -8.01779 9.36664, -8.19518  C8.87222, -8.47348 8.3956, -8.51597 8.05593, -8.31727 " /><path d="M8.05593, -8.31727 Q7.85549, -8.2012 7.72305, -7.98653 " /><path d="M11.2457, -2.92212 Q11.4811, -2.96258 11.6799, -3.07724 " /><path d="M11.6799, -3.07724 C12.1352, -3.33622 12.4147, -3.89293 12.4498, -4.5955 " /><path d="M10.766, -3.62337 C10.808, -4.35643 10.5805, -5.23918 10.1657, -6.00592  C9.90796, -6.48625 9.58132, -6.91976 9.23065, -7.25285  C8.99623, -7.47527 8.7591, -7.64928 8.51925, -7.77488  C8.04687, -8.02337 7.59579, -8.05379 7.27019, -7.86362 " /><path d="M10.8942, -2.62359 C11.3495, -2.88257 11.629, -3.43927 11.664, -4.14185 " /><path d="M10.6537, -3.55854 C10.6865, -4.14888 10.5481, -4.83607 10.2735, -5.48183  C10.0539, -6.00164 9.74845, -6.49281 9.40239, -6.89026  C9.10582, -7.23181 8.78024, -7.50418 8.46092, -7.68098  C7.96923, -7.9555 7.49582, -7.99643 7.1579, -7.79879 " /><path d="M7.1579, -7.79879 Q6.95747, -7.68272 6.82502, -7.46806 " /><path d="M10.3476, -2.40364 Q10.583, -2.44411 10.7819, -2.55877 " /><path d="M10.7819, -2.55877 C11.2372, -2.81774 11.5167, -3.37445 11.5517, -4.07702 " /><path d="M9.86796, -3.1049 C9.91002, -3.83796 9.68246, -4.72071 9.26766, -5.48745  C9.00992, -5.96779 8.68328, -6.4013 8.33262, -6.73439  C8.09818, -6.95682 7.86103, -7.13083 7.62117, -7.25644  C7.14881, -7.5049 6.69775, -7.53531 6.37216, -7.34514 " /><path d="M9.99617, -2.10512 C10.4515, -2.36409 10.731, -2.9208 10.766, -3.62337 " /><path d="M9.75567, -3.04006 C9.78854, -3.63157 9.64947, -4.32032 9.37386, -4.96719  C9.15506, -5.48394 8.85151, -5.97221 8.50764, -6.36801  C8.20968, -6.71192 7.88225, -6.986 7.56122, -7.16343  C7.07012, -7.43713 6.59741, -7.47772 6.25987, -7.28031 " /><path d="M6.25987, -7.28031 Q6.05944, -7.16424 5.92699, -6.94958 " /><path d="M9.44962, -1.88516 Q9.68501, -1.92563 9.88389, -2.04029 " /><path d="M9.88389, -2.04029 C10.3392, -2.29926 10.6187, -2.85598 10.6537, -3.55854 " /><path d="M8.96994, -2.58642 C9.01199, -3.31948 8.78443, -4.20224 8.36963, -4.96898  C8.11189, -5.44932 7.78525, -5.88283 7.43459, -6.21592  C7.20014, -6.43835 6.96298, -6.61237 6.72311, -6.73798  C6.25076, -6.98642 5.79972, -7.01683 5.47414, -6.82667 " /><path d="M9.09815, -1.58664 C9.55345, -1.84562 9.83294, -2.40233 9.86796, -3.1049 " /><path d="M8.85765, -2.52159 C8.89056, -3.11397 8.75102, -3.80389 8.47461, -4.4516  C8.25491, -4.96964 7.95007, -5.4589 7.60492, -5.85493  C7.30785, -6.19674 6.98174, -6.46912 6.66202, -6.6456  C6.17134, -6.91872 5.69912, -6.95908 5.36184, -6.76184 " /><path d="M5.36184, -6.76184 Q5.16141, -6.64577 5.02897, -6.43111 " /><path d="M8.5516, -1.36669 Q8.78698, -1.40716 8.98586, -1.52181 " /><path d="M8.98586, -1.52181 C9.44116, -1.78079 9.72064, -2.3375 9.75567, -3.04006 " /><path d="M8.07191, -2.06795 C8.11397, -2.80101 7.8864, -3.68377 7.4716, -4.45052  C7.21386, -4.93085 6.88722, -5.36437 6.53655, -5.69745  C6.30209, -5.9199 6.06492, -6.09392 5.82504, -6.21953  C5.3527, -6.46795 4.90169, -6.49836 4.57611, -6.30819 " /><path d="M8.20012, -1.06817 C8.65543, -1.32714 8.93491, -1.88385 8.96994, -2.58642 " /><path d="M7.95962, -2.00311 C7.99258, -2.59628 7.85262, -3.28723 7.5755, -3.93568  C7.35765, -4.44859 7.05639, -4.9332 6.71522, -5.32685  C6.41765, -5.67113 6.09051, -5.94581 5.76959, -6.12402  C5.27692, -6.39989 4.80237, -6.44138 4.46381, -6.24336 " /><path d="M4.46381, -6.24336 Q4.26338, -6.12729 4.13094, -5.91263 " /><path d="M7.65357, -0.848212 Q7.88895, -0.88868 8.08783, -1.00334 " /><path d="M8.08783, -1.00334 C8.54313, -1.26231 8.82261, -1.81902 8.85765, -2.52159 " /><path d="M7.17389, -1.54947 C7.21594, -2.28254 6.98838, -3.1653 6.57357, -3.93205  C6.31583, -4.41239 5.98918, -4.8459 5.63852, -5.17899  C5.40404, -5.40144 5.16686, -5.57547 4.92696, -5.70108  C4.45465, -5.94948 4.00364, -5.97987 3.67809, -5.78972 " /><path d="M7.3021, -0.549693 C7.7574, -0.808669 8.03689, -1.36538 8.07191, -2.06795 " /><path d="M7.06159, -1.48463 C7.0946, -2.07852 6.95424, -2.77043 6.67646, -3.41957  C6.45814, -3.93293 6.15629, -4.41781 5.81457, -4.81141  C5.51831, -5.15357 5.19288, -5.42674 4.87353, -5.60445  C4.38016, -5.88129 3.90479, -5.92317 3.56579, -5.72488 " /><path d="M3.56579, -5.72488 Q3.36536, -5.60881 3.23291, -5.39416 " /><path d="M6.75554, -0.329735 Q6.99093, -0.370203 7.1898, -0.48486 " /><path d="M7.1898, -0.48486 C7.6451, -0.743835 7.92458, -1.30054 7.95962, -2.00311 " /><path d="M6.27586, -1.031 C6.31792, -1.76407 6.09035, -2.64683 5.67554, -3.41358  C5.4178, -3.89392 5.09115, -4.32744 4.74048, -4.66052  C4.506, -4.88299 4.26881, -5.05702 4.0289, -5.18262  C3.5566, -5.43101 3.10561, -5.46139 2.78006, -5.27124 " /><path d="M6.40407, -0.0312181 C6.85938, -0.290194 7.13886, -0.846901 7.17389, -1.54947 " /><path d="M5.39699, -1.08478 L5.3597, -1.08823 " /><path d="M6.16356, -0.966158 C6.19661, -1.56069 6.0559, -2.25346 5.77753, -2.90321  C5.55883, -3.41685 5.25653, -3.90188 4.91441, -4.29538  C4.61918, -4.63588 4.29508, -4.90786 3.97696, -5.08516  C3.48308, -5.36272 3.00709, -5.4049 2.66776, -5.20641 " /><path d="M2.66776, -5.20641 Q2.46733, -5.09034 2.33489, -4.87568 " /><path d="M5.85752, 0.188741 Q6.0929, 0.148273 6.29177, 0.033617 " /><path d="M6.29177, 0.033617 C6.74708, -0.225358 7.02655, -0.782068 7.06159, -1.48463 " /><path d="M6.16356, -0.966158 L5.39699, -1.08478 " /><path d="M5.37784, -0.51252 C5.41989, -1.24559 5.19232, -2.12837 4.77751, -2.89512  C4.51977, -3.37546 4.19312, -3.80897 3.84245, -4.14206  C3.60795, -4.36453 3.37074, -4.53857 3.13082, -4.66417  C2.65854, -4.91253 2.20757, -4.94291 1.88204, -4.75277 " /><path d="M5.50605, 0.487257 C5.96135, 0.22828 6.24084, -0.328423 6.27586, -1.031 " /><path d="M5.04183, 0.707046 Q5.21115, 0.657428 5.36031, 0.571395 " /><path d="M5.36031, 0.571395 C5.83793, 0.300036 6.13308, -0.261902 6.16356, -0.966158 " /><path d="M5.37784, -0.51252 C5.35711, -0.0639668 5.24511, 0.324352 5.05352, 0.604996 " /><path d="M4.80295 2.4688 A6.41985 3.7065 60 0 1 4.76842 3.09416" />
<path d="M4.76842 3.09416 A6.41985 3.7065 60 0 1 3.47336 5.40766" />
<path d="M-2.94649 -5.71184 A6.41985 3.7065 60 0 1 -0.295415 -5.67665" />
<path d="M-0.295415 -5.67665 A6.41985 3.7065 60 0 1 4.80295 2.4688" />
<path d="M4.53952 2.62089 A6.41985 3.7065 60 0 1 3.20993 5.55975" />
<path d="M3.20992 5.55975 A6.41985 3.7065 60 0 1 -3.20993 -5.55975" />
<path d="M-3.20993 -5.55975 A6.41985 3.7065 60 0 1 4.53952 2.62089" />
<path d="M-1.62573 -0.938616 A2.29913 1.3274 -120 0 0 1.62573 0.938616" />
<path d="M1.62573 0.938616 A2.29913 1.3274 -120 0 0 -1.4563e-12 -1.87723" />
<path d="M-1.4563e-12 -1.87723 A2.29913 1.3274 -120 0 0 -1.62573 -0.938616" />
<path d="M0.81691, 2.07995 L0.750883, 1.97422  L0.679466, 1.87646  L0.602219, 1.78609  L0.518666, 1.70254  L0.428293, 1.62529  L0.330542, 1.55388  L0.224811, 1.48785  L0.110449, 1.4268  L-0.0132482, 1.37037  L-0.147044, 1.31819  L-0.291761, 1.26995  L-0.448293, 1.22535  L-0.617602, 1.18412  L-0.800733, 1.146 " /><path d="M-0.800733, 1.146 L-0.804471, 0.951653  L-0.815706, 0.768285  L-0.834508, 0.594765  L-0.860993, 0.430025  L-0.895325, 0.27305  L-0.937713, 0.122872  L-0.988421, -0.0214333  L-1.04776, -0.160756  L-1.1161, -0.295953  L-1.19385, -0.427859  L-1.2815, -0.557285  L-1.37959, -0.68503  L-1.48871, -0.81188  L-1.60955, -0.938616 " /><path d="M-1.60955, -0.938616 L-1.48871, -1.06104  L-1.37959, -1.17491  L-1.2815, -1.28095  L-1.19385, -1.37979  L-1.1161, -1.47206  L-1.04776, -1.55831  L-0.988421, -1.63908  L-0.937713, -1.71486  L-0.895325, -1.78613  L-0.860993, -1.85333  L-0.834508, -1.91686  L-0.815706, -1.97712  L-0.804471, -2.03448  L-0.800733, -2.08929 " /><path d="M-0.800733, -2.08929 C-0.418512, -2.01544 -0.124579, -1.92462 0.114421, -1.80652 " /><path d="M1.62572, 0.932047 L1.62163, 0.986774  L1.61009, 1.04405  L1.59103, 1.10421  L1.56435, 1.16764  L1.52986, 1.23472  L1.48738, 1.30587  L1.43662, 1.3815  L1.37729, 1.4621  L1.30902, 1.54815  L1.2314, 1.64018  L1.14394, 1.73875  L1.04612, 1.84446  L0.937328, 1.95796  L0.81691, 2.07995 " /><path id= "121" d=" M -0.800733 1.146 L 1.1848 -0.000345522 " />
<path d="M1.48832, 0.103944 Q1.34606, 0.0510565 1.1848, -0.000345522 " /><path id= "123" d=" M -1.60955 -0.938616 L -0.00857626 -1.86294 " />
<path d="M1.1848, -0.000345522 C1.13197, -0.362652 1.06077, -0.670051 0.963505, -0.955743 " /></g>

</svg>
