<svg xmlns="http://www.w3.org/2000/svg" viewBox="-2.032 -8.45185 29.464 16.9037">
<rect width="100%" height="100%" fill="white"/>
<g   fill="none"
   stroke="rgb(0, 0, 0)"
   stroke-linecap="butt"
   stroke-linejoin="miter"
   stroke-width="0.35"
   transform="scale(1, -1)"
  >
<path id= "1" d=" M 25.4 -2.54 L 25.0577 -2.88232 " />
<path d="M25.1755, 2.46332 L24.7833, 3.13747 " /><path d="M25.306, 2.39594 Q25.2473, 2.39738 25.2059, 2.42994  Q25.1811, 2.45152 25.1755, 2.46332 " /><path d="M24.8015, -2.46332 Q24.7953, -2.44986 24.7666, -2.42651  Q24.726, -2.39703 24.671, -2.39594  Q24.6118, -2.39743 24.5704, -2.43036  Q24.546, -2.45171 24.5405, -2.46332 " /><path d="M24.036, 2.39594 Q23.9769, 2.39742 23.9354, 2.43035  Q23.911, 2.4517 23.9055, 2.46333 " /><path d="M25.306, 2.39594 Q25.3598, 2.39695 25.4, 2.4254 " /><path d="M24.8015, -2.46332 L25.0423, -2.87681 " /><path d="M23.9055, 2.46333 L23.5026, 3.15587 " /><path d="M24.5405, -2.46332 L24.1376, -3.15587 " /><path d="M23.5315, -2.46332 Q23.5253, -2.44986 23.4966, -2.42651  Q23.456, -2.39704 23.401, -2.39594  Q23.3418, -2.39743 23.3004, -2.43036  Q23.276, -2.45171 23.2705, -2.46332 " /><path d="M24.1665, 2.46333 Q24.1603, 2.44986 24.1316, 2.42651  Q24.0911, 2.39705 24.036, 2.39594 " /><path d="M22.766, 2.39595 Q22.7069, 2.39743 22.6654, 2.43035  Q22.641, 2.45171 22.6355, 2.46333 " /><path d="M23.9344, -3.15587 L23.5315, -2.46332 " /><path d="M24.5694, 3.15586 L24.1665, 2.46333 " /><path id= "15" d=" M 24.1154 -3.175 L 23.9566 -3.175 " />
<path d="M22.6355, 2.46333 L22.2326, 3.15587 " /><path d="M23.2705, -2.46332 L22.8676, -3.15587 " /><path d="M22.2615, -2.46333 Q22.2553, -2.44986 22.2266, -2.42651  Q22.186, -2.39704 22.131, -2.39595  Q22.0718, -2.39743 22.0304, -2.43036  Q22.006, -2.45171 22.0005, -2.46332 " /><path d="M22.8965, 2.46333 Q22.8903, 2.44987 22.8616, 2.42652  Q22.8211, 2.39705 22.766, 2.39595 " /><path d="M21.496, 2.39595 Q21.4369, 2.39743 21.3955, 2.43035  Q21.371, 2.45171 21.3655, 2.46333 " /><path d="M22.6644, -3.15587 L22.2615, -2.46333 " /><path d="M23.2994, 3.15586 L22.8965, 2.46333 " /><path id= "23" d=" M 22.8454 -3.175 L 22.6866 -3.175 " />
<path d="M21.3655, 2.46333 L20.9626, 3.15587 " /><path d="M22.0005, -2.46332 L21.5976, -3.15587 " /><path d="M20.9915, -2.46333 Q20.9853, -2.44987 20.9566, -2.42652  Q20.9161, -2.39704 20.861, -2.39595  Q20.8018, -2.39744 20.7604, -2.43036  Q20.736, -2.45171 20.7306, -2.46333 " /><path d="M21.6265, 2.46333 Q21.6203, 2.44987 21.5916, 2.42652  Q21.5511, 2.39706 21.496, 2.39595 " /><path d="M20.226, 2.39596 Q20.1669, 2.39743 20.1255, 2.43036  Q20.101, 2.45171 20.0955, 2.46334 " /><path d="M21.3944, -3.15587 L20.9915, -2.46333 " /><path d="M22.0294, 3.15586 L21.6265, 2.46333 " /><path id= "31" d=" M 21.5754 -3.175 L 21.4166 -3.175 " />
<path d="M20.0955, 2.46334 L19.6926, 3.15587 " /><path d="M20.7306, -2.46333 L20.3276, -3.15587 " /><path d="M19.7215, -2.46333 Q19.7153, -2.44987 19.6866, -2.42652  Q19.6461, -2.39705 19.591, -2.39595  Q19.5318, -2.39744 19.4904, -2.43037  Q19.466, -2.45172 19.4606, -2.46333 " /><path d="M20.3565, 2.46334 Q20.3503, 2.44987 20.3216, 2.42652  Q20.2811, 2.39706 20.226, 2.39596 " /><path d="M18.956, 2.39596 Q18.8969, 2.39744 18.8555, 2.43036  Q18.831, 2.45172 18.8256, 2.46334 " /><path d="M20.1244, -3.15587 L19.7215, -2.46333 " /><path d="M20.7594, 3.15586 L20.3565, 2.46334 " /><path id= "39" d=" M 20.3054 -3.175 L 20.1466 -3.175 " />
<path d="M18.8256, 2.46334 L18.4226, 3.15587 " /><path d="M19.4606, -2.46333 L19.0576, -3.15587 " /><path d="M18.4515, -2.46334 Q18.4453, -2.44988 18.4166, -2.42653  Q18.3761, -2.39705 18.321, -2.39596  Q18.2618, -2.39744 18.2204, -2.43037  Q18.196, -2.45172 18.1906, -2.46333 " /><path d="M19.0865, 2.46334 Q19.0803, 2.44988 19.0516, 2.42653  Q19.0111, 2.39706 18.956, 2.39596 " /><path d="M17.686, 2.39596 Q17.6269, 2.39744 17.5855, 2.43036  Q17.561, 2.45172 17.5556, 2.46334 " /><path d="M18.8544, -3.15587 L18.4515, -2.46334 " /><path d="M19.4894, 3.15586 L19.0865, 2.46334 " /><path id= "47" d=" M 19.0354 -3.175 L 18.8766 -3.175 " />
<path d="M17.5556, 2.46334 L17.1526, 3.15587 " /><path d="M18.1906, -2.46333 L17.7876, -3.15587 " /><path d="M17.1815, -2.46334 Q17.1753, -2.44988 17.1466, -2.42653  Q17.1061, -2.39705 17.051, -2.39596  Q16.9918, -2.39745 16.9504, -2.43037  Q16.926, -2.45172 16.9206, -2.46334 " /><path d="M17.8165, 2.46335 Q17.8103, 2.44988 17.7816, 2.42653  Q17.7411, 2.39707 17.686, 2.39596 " /><path d="M16.416, 2.39597 Q16.3569, 2.39744 16.3155, 2.43037  Q16.291, 2.45172 16.2856, 2.46335 " /><path d="M17.5844, -3.15587 L17.1815, -2.46334 " /><path d="M18.2194, 3.15586 L17.8165, 2.46335 " /><path id= "55" d=" M 17.7654 -3.175 L 17.6066 -3.175 " />
<path d="M16.2856, 2.46335 L15.8826, 3.15587 " /><path d="M16.9206, -2.46334 L16.5176, -3.15587 " /><path d="M15.9115, -2.46334 Q15.9053, -2.44988 15.8766, -2.42653  Q15.8361, -2.39706 15.781, -2.39596  Q15.7218, -2.39745 15.6804, -2.43038  Q15.656, -2.45173 15.6506, -2.46334 " /><path d="M16.5465, 2.46335 Q16.5403, 2.44989 16.5116, 2.42654  Q16.4711, 2.39707 16.416, 2.39597 " /><path d="M15.146, 2.39597 Q15.0869, 2.39745 15.0455, 2.43037  Q15.021, 2.45173 15.0156, 2.46335 " /><path d="M16.3144, -3.15587 L15.9115, -2.46334 " /><path d="M16.9494, 3.15586 L16.5465, 2.46335 " /><path id= "63" d=" M 16.4954 -3.175 L 16.3366 -3.175 " />
<path d="M15.0156, 2.46335 L14.6126, 3.15587 " /><path d="M15.6506, -2.46334 L15.2476, -3.15588 " /><path d="M14.6415, -2.46335 Q14.6353, -2.44989 14.6066, -2.42654  Q14.5661, -2.39706 14.511, -2.39597  Q14.4519, -2.39745 14.4104, -2.43038  Q14.386, -2.45173 14.3806, -2.46334 " /><path d="M15.2765, 2.46335 Q15.2703, 2.44989 15.2416, 2.42654  Q15.2011, 2.39707 15.146, 2.39597 " /><path d="M13.8761, 2.39597 Q13.8169, 2.39745 13.7755, 2.43037  Q13.751, 2.45173 13.7456, 2.46335 " /><path d="M15.0444, -3.15587 L14.6415, -2.46335 " /><path d="M15.6794, 3.15586 L15.2765, 2.46335 " /><path id= "71" d=" M 15.2254 -3.175 L 15.0666 -3.175 " />
<path d="M13.7456, 2.46335 L13.3426, 3.15587 " /><path d="M14.3806, -2.46334 L13.9776, -3.15588 " /><path d="M13.3715, -2.46335 Q13.3653, -2.44989 13.3366, -2.42654  Q13.2961, -2.39707 13.241, -2.39597  Q13.1819, -2.39746 13.1405, -2.43038  Q13.116, -2.45173 13.1106, -2.46335 " /><path d="M14.0065, 2.46336 Q14.0003, 2.4499 13.9716, 2.42654  Q13.9311, 2.39708 13.8761, 2.39597 " /><path d="M12.6061, 2.39598 Q12.5469, 2.39745 12.5055, 2.43038  Q12.481, 2.45173 12.4756, 2.46336 " /><path d="M13.7744, -3.15587 L13.3715, -2.46335 " /><path d="M14.4094, 3.15586 L14.0065, 2.46336 " /><path id= "79" d=" M 13.9554 -3.175 L 13.7966 -3.175 " />
<path d="M12.4756, 2.46336 L12.0726, 3.15587 " /><path d="M13.1106, -2.46335 L12.7076, -3.15588 " /><path d="M12.1016, -2.46336 Q12.0953, -2.4499 12.0666, -2.42654  Q12.0261, -2.39707 11.971, -2.39597  Q11.9119, -2.39746 11.8705, -2.43039  Q11.846, -2.45173 11.8406, -2.46335 " /><path d="M12.7366, 2.46336 Q12.7303, 2.4499 12.7016, 2.42655  Q12.6611, 2.39708 12.6061, 2.39598 " /><path d="M11.3361, 2.39598 Q11.2769, 2.39746 11.2355, 2.43038  Q11.211, 2.45174 11.2056, 2.46336 " /><path d="M12.5044, -3.15587 L12.1016, -2.46336 " /><path d="M13.1394, 3.15586 L12.7366, 2.46336 " /><path id= "87" d=" M 12.6854 -3.175 L 12.5266 -3.175 " />
<path d="M11.2056, 2.46336 L10.8026, 3.15587 " /><path d="M11.8406, -2.46335 L11.4376, -3.15588 " /><path d="M10.8316, -2.46336 Q10.8253, -2.4499 10.7966, -2.42655  Q10.7561, -2.39707 10.701, -2.39598  Q10.6419, -2.39746 10.6005, -2.43039  Q10.576, -2.45174 10.5706, -2.46335 " /><path d="M11.4666, 2.46336 Q11.4603, 2.4499 11.4316, 2.42655  Q11.3911, 2.39708 11.3361, 2.39598 " /><path d="M10.0661, 2.39598 Q10.0069, 2.39746 9.96548, 2.43038  Q9.94103, 2.45174 9.93557, 2.46336 " /><path d="M11.2344, -3.15587 L10.8316, -2.46336 " /><path d="M11.8694, 3.15586 L11.4666, 2.46336 " /><path id= "95" d=" M 11.4154 -3.175 L 11.2566 -3.175 " />
<path d="M9.93557, 2.46336 L9.53261, 3.15587 " /><path d="M10.5706, -2.46335 L10.1676, -3.15588 " /><path d="M9.56156, -2.46336 Q9.55534, -2.4499 9.5266, -2.42655  Q9.48608, -2.39708 9.43104, -2.39598  Q9.37187, -2.39747 9.33046, -2.43039  Q9.30603, -2.45174 9.30058, -2.46336 " /><path d="M10.1966, 2.46337 Q10.1903, 2.44991 10.1616, 2.42656  Q10.1211, 2.39709 10.0661, 2.39598 " /><path d="M8.79606, 2.39599 Q8.73689, 2.39746 8.69548, 2.43039  Q8.67103, 2.45174 8.66558, 2.46337 " /><path d="M9.96441, -3.15587 L9.56156, -2.46336 " /><path d="M10.5994, 3.15586 L10.1966, 2.46337 " /><path id= "103" d=" M 10.1454 -3.175 L 9.98661 -3.175 " />
<path d="M8.66558, 2.46337 L8.26261, 3.15588 " /><path d="M9.30058, -2.46336 L8.8976, -3.15588 " /><path d="M8.29156, -2.46337 Q8.28535, -2.44991 8.2566, -2.42656  Q8.21609, -2.39708 8.16104, -2.39598  Q8.10187, -2.39747 8.06047, -2.4304  Q8.03603, -2.45174 8.03058, -2.46336 " /><path d="M8.92656, 2.46337 Q8.92034, 2.44991 8.8916, 2.42656  Q8.85109, 2.39709 8.79606, 2.39599 " /><path d="M7.52607, 2.39599 Q7.46689, 2.39747 7.42548, 2.43039  Q7.40104, 2.45174 7.39558, 2.46337 " /><path d="M8.6944, -3.15587 L8.29156, -2.46337 " /><path d="M9.3294, 3.15586 L8.92656, 2.46337 " /><path id= "111" d=" M 8.87541 -3.175 L 8.7166 -3.175 " />
<path d="M7.39558, 2.46337 L6.99261, 3.15588 " /><path d="M8.03058, -2.46336 L7.6276, -3.15588 " /><path d="M7.02156, -2.46337 Q7.01535, -2.44991 6.98661, -2.42656  Q6.94609, -2.39708 6.89104, -2.39599  Q6.83187, -2.39747 6.79047, -2.4304  Q6.76604, -2.45175 6.76058, -2.46336 " /><path d="M7.65656, 2.46338 Q7.65035, 2.44992 7.6216, 2.42656  Q7.5811, 2.39709 7.52607, 2.39599 " /><path d="M6.25607, 2.39599 Q6.1969, 2.39747 6.15548, 2.43039  Q6.13104, 2.45175 6.12558, 2.46337 " /><path d="M7.4244, -3.15587 L7.02156, -2.46337 " /><path d="M8.05939, 3.15586 L7.65656, 2.46338 " /><path id= "119" d=" M 7.60541 -3.175 L 7.4466 -3.175 " />
<path d="M6.12558, 2.46337 L5.72261, 3.15588 " /><path d="M6.76058, -2.46336 L6.3576, -3.15588 " /><path d="M5.75157, -2.46337 Q5.74535, -2.44992 5.71661, -2.42656  Q5.67609, -2.39709 5.62105, -2.39599  Q5.56188, -2.39748 5.52047, -2.4304  Q5.49604, -2.45175 5.49059, -2.46337 " /><path d="M6.38656, 2.46338 Q6.38035, 2.44992 6.35161, 2.42657  Q6.3111, 2.3971 6.25607, 2.39599 " /><path d="M4.98607, 2.396 Q4.9269, 2.39747 4.88549, 2.4304  Q4.86104, 2.45175 4.85558, 2.46338 " /><path d="M6.1544, -3.15587 L5.75157, -2.46337 " /><path d="M6.78939, 3.15586 L6.38656, 2.46338 " /><path id= "127" d=" M 6.33541 -3.175 L 6.1766 -3.175 " />
<path d="M4.85558, 2.46338 L4.45261, 3.15588 " /><path d="M5.49059, -2.46337 L5.0876, -3.15588 " /><path d="M5.12068, 2.46686 Q5.11314, 2.45145 5.08476, 2.4282  Q5.0429, 2.39712 4.98608, 2.396 " /><path d="M5.52069, 3.15582 L5.12068, 2.46686 " /><path id= "132" d=" M 5.06541 -3.175 L 4.22403 -3.175 " />
<path d="M4.01573, -3.25288 Q4.10582, -3.17633 4.22403, -3.175 " /><path id= "134" d=" M 4.01573 -3.25288 L 0.372547 -6.41985 " />
<path id= "135" d=" M 0.372547 -6.41985 L 0 -6.41985 " />
</g>
<g   fill="none"
   stroke="rgb(0, 0, 0)"
   stroke-linecap="butt"
   stroke-linejoin="miter"
   stroke-width="0.35"
   transform="scale(1, -1)"
  >
<path d="M25.4, -2.54 Q25.4, -2.53019 25.4, -2.52037  Q25.4, -2.49108 25.4, -2.46179  Q25.4, -2.41347 25.4, -2.36516  Q25.4, -2.29857 25.4, -2.23198  Q25.4, -2.14814 25.4, -2.0643  Q25.4, -1.9645 25.4, -1.86471  Q25.4, -1.75051 25.4, -1.6363  Q25.4, -1.50946 25.4, -1.38261  Q25.4, -1.24508 25.4, -1.10755  Q25.4, -0.961456 25.4, -0.815365  Q25.4, -0.512795 25.4, -0.197908  Q25.4, 0.116914 25.4, 0.431737 " /><path d="M25.4, 2.42186 L25.4, 2.4254 " /><path d="M25.4, 2.42186 C25.4, 2.39665 25.4, 2.15601 25.4, 1.75038  C25.4, 1.47453 25.4, 1.11217 25.4, 0.783685 " /><path d="M25.4, 0.431737 Q25.4, 0.613418 25.4, 0.783685 " /><path d="M25.0577, -2.88232 Q25.05, -2.89004 25.0423, -2.87681 " /><path d="M25.0423, -2.87681 C25.0047, -2.81648 24.9677, -2.35659 24.9312, -1.65809  C24.8745, -0.579534 24.8192, 1.03129 24.765, 2.07717 " /><path d="M24.765, 3.16673 L24.7833, 3.13747 " /><path d="M24.7833, 3.13747 C24.8809, 2.97103 24.9818, 2.60058 25.0869, 2.09652  C25.1872, 1.61791 25.2913, 1.01991 25.4, 0.431737 " /><path d="M24.765, 2.07717 Q24.765, 2.14286 24.765, 2.20854  Q24.765, 2.33503 24.765, 2.45006  Q24.765, 2.50474 24.765, 2.55943  Q24.765, 2.61009 24.765, 2.66076  Q24.765, 2.70723 24.765, 2.75371  Q24.765, 2.79585 24.765, 2.83799  Q24.765, 2.87567 24.765, 2.91335  Q24.765, 2.94644 24.765, 2.97954  Q24.765, 3.00794 24.765, 3.03635  Q24.765, 3.05998 24.765, 3.08361  Q24.765, 3.10239 24.765, 3.12116  Q24.765, 3.13503 24.765, 3.1489  Q24.765, 3.15781 24.765, 3.16673 " /><path d="M24.7504, 3.175 Q24.7577, 3.175 24.765, 3.16673 " /><path d="M24.5916, 3.175 C24.6494, 3.17974 24.7072, 2.76806 24.765, 2.07717 " /><path id= "12" d=" M 24.7504 3.175 L 24.5916 3.175 " />
<path d="M23.4804, 3.175 Q23.4915, 3.17499 23.5026, 3.15587 " /><path d="M23.5026, 3.15587 C23.5506, 3.07541 23.5987, 2.71491 23.6467, 2.15983  C23.7043, 1.49791 23.762, 0.56066 23.8197, -0.340963  C23.8639, -1.03284 23.9082, -1.69675 23.9524, -2.19769  C24.0068, -2.81708 24.0611, -3.17873 24.1154, -3.175 " /><path d="M24.1154, -3.175 Q24.1265, -3.17499 24.1376, -3.15587 " /><path d="M23.3216, 3.175 C23.3661, 3.17672 23.4106, 2.9382 23.455, 2.50836  C23.5216, 1.87123 23.5882, 0.7998 23.6548, -0.246112  C23.698, -0.921985 23.7411, -1.57826 23.7842, -2.08789  C23.8343, -2.68302 23.8844, -3.07227 23.9344, -3.15587 " /><path d="M23.9344, -3.15587 Q23.9455, -3.17499 23.9566, -3.175 " /><path d="M24.5694, 3.15586 Q24.5805, 3.17499 24.5916, 3.175 " /><path id= "19" d=" M 23.4804 3.175 L 23.3216 3.175 " />
<path d="M22.2104, 3.175 Q22.2215, 3.17499 22.2326, 3.15587 " /><path d="M22.2326, 3.15587 C22.2806, 3.07541 22.3287, 2.71491 22.3767, 2.15982  C22.4343, 1.49788 22.492, 0.560595 22.5497, -0.341051  C22.5948, -1.04689 22.64, -1.72342 22.6851, -2.22783  C22.7385, -2.82915 22.792, -3.1785 22.8454, -3.175 " /><path d="M22.8454, -3.175 Q22.8565, -3.17499 22.8676, -3.15587 " /><path d="M22.0516, 3.175 C22.0965, 3.17678 22.1414, 2.93347 22.1863, 2.49589  C22.2525, 1.85718 22.3187, 0.791759 22.3849, -0.247875  C22.4283, -0.92789 22.4717, -1.58789 22.5151, -2.09862  C22.5649, -2.68779 22.6147, -3.07273 22.6644, -3.15587 " /><path d="M22.6644, -3.15587 Q22.6755, -3.17499 22.6866, -3.175 " /><path d="M23.2994, 3.15586 Q23.3105, 3.17499 23.3216, 3.175 " /><path id= "26" d=" M 22.2104 3.175 L 22.0516 3.175 " />
<path d="M20.9404, 3.175 Q20.9515, 3.17499 20.9626, 3.15587 " /><path d="M20.9626, 3.15587 C21.0106, 3.07541 21.0587, 2.7149 21.1067, 2.15981  C21.1643, 1.49785 21.222, 0.560534 21.2797, -0.341133  C21.3254, -1.05545 21.371, -1.73966 21.4167, -2.24598  C21.4696, -2.83639 21.5225, -3.17836 21.5754, -3.175 " /><path d="M21.5754, -3.175 Q21.5865, -3.17499 21.5976, -3.15587 " /><path d="M20.7816, 3.175 C20.8267, 3.17681 20.8718, 2.93144 20.9169, 2.49053  C20.9829, 1.85145 21.0489, 0.789271 21.1149, -0.24725  C21.1583, -0.927659 21.2017, -1.58807 21.2451, -2.09901  C21.2949, -2.68797 21.3447, -3.07274 21.3944, -3.15587 " /><path d="M21.3944, -3.15587 Q21.4055, -3.17499 21.4166, -3.175 " /><path d="M22.0294, 3.15586 Q22.0405, 3.17499 22.0516, 3.175 " /><path id= "33" d=" M 20.9404 3.175 L 20.7816 3.175 " />
<path d="M19.6704, 3.175 Q19.6815, 3.17499 19.6926, 3.15587 " /><path d="M19.6926, 3.15587 C19.7406, 3.07541 19.7887, 2.7149 19.8367, 2.1598  C19.8944, 1.49781 19.952, 0.56044 20.0097, -0.34126  C20.0548, -1.04625 20.0999, -1.722 20.145, -2.22618  C20.1984, -2.82849 20.2519, -3.17851 20.3054, -3.175 " /><path d="M20.3054, -3.175 Q20.3165, -3.17499 20.3276, -3.15587 " /><path d="M19.5116, 3.175 C19.5563, 3.17674 19.6009, 2.93638 19.6455, 2.50355  C19.7122, 1.8635 19.7789, 0.7888 19.8456, -0.258218  C19.8884, -0.929516 19.9313, -1.58067 19.9741, -2.08715  C20.0242, -2.68269 20.0743, -3.07223 20.1244, -3.15587 " /><path d="M20.1244, -3.15587 Q20.1355, -3.17499 20.1466, -3.175 " /><path d="M20.7594, 3.15586 Q20.7705, 3.17499 20.7816, 3.175 " /><path id= "40" d=" M 19.6704 3.175 L 19.5116 3.175 " />
<path d="M18.4004, 3.175 Q18.4115, 3.17499 18.4226, 3.15587 " /><path d="M18.4226, 3.15587 C18.4706, 3.07541 18.5187, 2.7149 18.5667, 2.1598  C18.6244, 1.4978 18.682, 0.56043 18.7397, -0.341273  C18.7839, -1.03197 18.828, -1.69479 18.8722, -2.19538  C18.9266, -2.81616 18.981, -3.17875 19.0354, -3.175 " /><path d="M19.0354, -3.175 Q19.0465, -3.17499 19.0576, -3.15587 " /><path d="M18.2416, 3.175 C18.2865, 3.17678 18.3315, 2.93329 18.3764, 2.4954  C18.4427, 1.85474 18.5091, 0.78502 18.5755, -0.257244  C18.6188, -0.935954 18.6622, -1.59406 18.7055, -2.10308  C18.7551, -2.68977 18.8048, -3.07291 18.8544, -3.15587 " /><path d="M18.8544, -3.15587 Q18.8655, -3.17499 18.8766, -3.175 " /><path d="M19.4894, 3.15586 Q19.5005, 3.17499 19.5116, 3.175 " /><path id= "47" d=" M 18.4004 3.175 L 18.2416 3.175 " />
<path d="M17.1304, 3.175 Q17.1415, 3.17499 17.1526, 3.15587 " /><path d="M17.1526, 3.15587 C17.2006, 3.07541 17.2487, 2.7149 17.2967, 2.15979  C17.3544, 1.49779 17.412, 0.560395 17.4697, -0.341321  C17.5146, -1.04435 17.5596, -1.71833 17.6046, -2.22203  C17.6582, -2.82684 17.7118, -3.17854 17.7654, -3.175 " /><path d="M17.7654, -3.175 Q17.7765, -3.17499 17.7876, -3.15587 " /><path d="M16.9716, 3.175 C17.0167, 3.1768 17.0617, 2.93189 17.1067, 2.49172  C17.1731, 1.84929 17.2396, 0.77814 17.306, -0.264297  C17.349, -0.938473 17.392, -1.59186 17.4351, -2.09846  C17.4849, -2.68772 17.5346, -3.07271 17.5844, -3.15587 " /><path d="M17.5844, -3.15587 Q17.5955, -3.17499 17.6066, -3.175 " /><path d="M18.2194, 3.15586 Q18.2305, 3.17499 18.2416, 3.175 " /><path id= "54" d=" M 17.1304 3.175 L 16.9716 3.175 " />
<path d="M15.8604, 3.175 Q15.8715, 3.17499 15.8826, 3.15587 " /><path d="M15.8826, 3.15587 C15.9306, 3.07541 15.9787, 2.7149 16.0267, 2.15978  C16.0844, 1.49776 16.142, 0.560335 16.1997, -0.341401  C16.2447, -1.04552 16.2898, -1.72048 16.3348, -2.22443  C16.3883, -2.8278 16.4419, -3.17852 16.4954, -3.175 " /><path d="M16.4954, -3.175 Q16.5065, -3.17499 16.5176, -3.15587 " /><path d="M15.7016, 3.175 C15.7463, 3.17674 15.7909, 2.9362 15.8356, 2.50307  C15.9021, 1.86464 15.9686, 0.794254 16.0351, -0.249947  C16.078, -0.922307 16.1209, -1.57503 16.1638, -2.08299  C16.214, -2.68083 16.2642, -3.07205 16.3144, -3.15587 " /><path d="M16.3144, -3.15587 Q16.3255, -3.17499 16.3366, -3.175 " /><path d="M16.9494, 3.15586 Q16.9605, 3.17499 16.9716, 3.175 " /><path id= "61" d=" M 15.8604 3.175 L 15.7016 3.175 " />
<path d="M14.5904, 3.175 Q14.6015, 3.17499 14.6126, 3.15587 " /><path d="M14.6126, 3.15587 C14.6606, 3.07541 14.7087, 2.71489 14.7567, 2.15978  C14.8144, 1.49774 14.872, 0.560283 14.9297, -0.341471  C14.9747, -1.04554 15.0198, -1.72045 15.0648, -2.22438  C15.1183, -2.82777 15.1719, -3.17852 15.2254, -3.175 " /><path d="M15.2254, -3.175 Q15.2365, -3.17499 15.2476, -3.15588 " /><path d="M14.4316, 3.175 C14.4761, 3.17672 14.5206, 2.93804 14.5651, 2.50794  C14.6319, 1.86859 14.6987, 0.792097 14.7655, -0.256935  C14.8088, -0.935062 14.852, -1.59265 14.8953, -2.10152  C14.945, -2.68908 14.9947, -3.07284 15.0444, -3.15587 " /><path d="M15.0444, -3.15587 Q15.0555, -3.17499 15.0666, -3.175 " /><path d="M15.6794, 3.15586 Q15.6905, 3.17499 15.7016, 3.175 " /><path id= "68" d=" M 14.5904 3.175 L 14.4316 3.175 " />
<path d="M13.3204, 3.175 Q13.3315, 3.17499 13.3426, 3.15587 " /><path d="M13.3426, 3.15587 C13.3906, 3.07541 13.4387, 2.71489 13.4867, 2.15976  C13.5444, 1.49769 13.602, 0.560175 13.6597, -0.341616  C13.704, -1.03386 13.7483, -1.69805 13.7926, -2.199  C13.8468, -2.81761 13.9011, -3.17872 13.9554, -3.175 " /><path d="M13.9554, -3.175 Q13.9665, -3.17499 13.9776, -3.15588 " /><path d="M13.1616, 3.175 C13.2062, 3.17673 13.2507, 2.93733 13.2952, 2.50607  C13.3618, 1.86822 13.4284, 0.796874 13.495, -0.24853  C13.5385, -0.930816 13.582, -1.59288 13.6256, -2.10423  C13.6752, -2.69028 13.7248, -3.07296 13.7744, -3.15587 " /><path d="M13.7744, -3.15587 Q13.7855, -3.17499 13.7966, -3.175 " /><path d="M14.4094, 3.15586 Q14.4205, 3.17499 14.4316, 3.175 " /><path id= "75" d=" M 13.3204 3.175 L 13.1616 3.175 " />
<path d="M12.0504, 3.175 Q12.0615, 3.17499 12.0726, 3.15587 " /><path d="M12.0726, 3.15587 C12.1206, 3.07542 12.1687, 2.71489 12.2167, 2.15976  C12.2744, 1.49767 12.332, 0.560139 12.3897, -0.341664  C12.4349, -1.04862 12.4801, -1.72611 12.5254, -2.23069  C12.5787, -2.8303 12.6321, -3.17848 12.6854, -3.175 " /><path d="M12.6854, -3.175 Q12.6965, -3.17499 12.7076, -3.15588 " /><path d="M11.8916, 3.175 C11.9362, 3.17674 11.9809, 2.93633 12.0255, 2.50343  C12.0922, 1.86298 12.159, 0.787407 12.2257, -0.260139  C12.2684, -0.929776 12.3112, -1.57925 12.3539, -2.08492  C12.4041, -2.68169 12.4543, -3.07213 12.5044, -3.15587 " /><path d="M12.5044, -3.15587 Q12.5155, -3.17499 12.5266, -3.175 " /><path d="M13.1394, 3.15586 Q13.1505, 3.17499 13.1616, 3.175 " /><path id= "82" d=" M 12.0504 3.175 L 11.8916 3.175 " />
<path d="M10.7804, 3.175 Q10.7915, 3.17499 10.8026, 3.15587 " /><path d="M10.8026, 3.15587 C10.8506, 3.07542 10.8987, 2.71488 10.9467, 2.15975  C11.0044, 1.49764 11.062, 0.560077 11.1197, -0.341749  C11.164, -1.03364 11.2082, -1.69751 11.2525, -2.19835  C11.3068, -2.81735 11.3611, -3.17872 11.4154, -3.175 " /><path d="M11.4154, -3.175 Q11.4265, -3.17499 11.4376, -3.15588 " /><path d="M10.6216, 3.175 C10.6663, 3.17676 10.7111, 2.93536 10.7558, 2.50087  C10.8225, 1.85965 10.8892, 0.784253 10.9559, -0.26267  C10.9988, -0.935906 11.0418, -1.58854 11.0848, -2.09506  C11.1346, -2.6862 11.1845, -3.07256 11.2344, -3.15587 " /><path d="M11.2344, -3.15587 Q11.2455, -3.17499 11.2566, -3.175 " /><path d="M11.8694, 3.15586 Q11.8805, 3.17499 11.8916, 3.175 " /><path id= "89" d=" M 10.7804 3.175 L 10.6216 3.175 " />
<path d="M9.51041, 3.175 Q9.52151, 3.17499 9.53261, 3.15587 " /><path d="M9.53261, 3.15587 C9.58064, 3.07542 9.62867, 2.71488 9.6767, 2.15974  C9.73437, 1.49763 9.79204, 0.560042 9.84971, -0.341795  C9.89481, -1.04688 9.93992, -1.72267 9.98502, -2.2268  C10.0385, -2.82874 10.0919, -3.17851 10.1454, -3.175 " /><path d="M10.1454, -3.175 Q10.1565, -3.17499 10.1676, -3.15588 " /><path d="M9.3516, 3.175 C9.39639, 3.17677 9.44118, 2.93463 9.48597, 2.49894  C9.55263, 1.85717 9.6193, 0.781974 9.68596, -0.26444  C9.729, -0.938686 9.77204, -1.59213 9.81508, -2.09873  C9.86485, -2.68784 9.91463, -3.07272 9.96441, -3.15587 " /><path d="M9.96441, -3.15587 Q9.97551, -3.17499 9.98661, -3.175 " /><path d="M10.5994, 3.15586 Q10.6105, 3.17499 10.6216, 3.175 " /><path id= "96" d=" M 9.51041 3.175 L 9.3516 3.175 " />
<path d="M8.24041, 3.175 Q8.25151, 3.17499 8.26261, 3.15588 " /><path d="M8.26261, 3.15588 C8.31064, 3.07542 8.35867, 2.71488 8.4067, 2.15974  C8.46438, 1.4976 8.52205, 0.559987 8.57972, -0.341869  C8.62759, -1.09042 8.67546, -1.80523 8.72333, -2.31794  C8.77403, -2.86483 8.82472, -3.17785 8.87541, -3.175 " /><path d="M8.87541, -3.175 Q8.88651, -3.17499 8.8976, -3.15588 " /><path d="M8.0816, 3.175 C8.12645, 3.17677 8.1713, 2.93398 8.21615, 2.49722  C8.28257, 1.857 8.34899, 0.786887 8.41542, -0.255984  C8.45856, -0.931954 8.50169, -1.5876 8.54483, -2.09592  C8.59469, -2.68658 8.64455, -3.0726 8.6944, -3.15587 " /><path d="M8.6944, -3.15587 Q8.7055, -3.17499 8.7166, -3.175 " /><path d="M9.3294, 3.15586 Q9.3405, 3.17499 9.3516, 3.175 " /><path id= "103" d=" M 8.24041 3.175 L 8.0816 3.175 " />
<path d="M6.97041, 3.175 Q6.98151, 3.17499 6.99261, 3.15588 " /><path d="M6.99261, 3.15588 C7.04064, 3.07542 7.08867, 2.71488 7.1367, 2.15973  C7.19438, 1.49758 7.25205, 0.559933 7.30972, -0.341942  C7.35395, -1.0333 7.39818, -1.69666 7.44241, -2.19733  C7.49674, -2.81694 7.55107, -3.17873 7.60541, -3.175 " /><path d="M7.60541, -3.175 Q7.61651, -3.17499 7.6276, -3.15588 " /><path d="M6.8116, 3.175 C6.8565, 3.17678 6.9014, 2.93338 6.94631, 2.49563  C7.01261, 1.85586 7.07892, 0.788069 7.14522, -0.253018  C7.18844, -0.93016 7.23164, -1.58711 7.27485, -2.09621  C7.3247, -2.68671 7.37456, -3.07261 7.4244, -3.15587 " /><path d="M7.4244, -3.15587 Q7.4355, -3.17499 7.4466, -3.175 " /><path d="M8.05939, 3.15586 Q8.0705, 3.17499 8.0816, 3.175 " /><path id= "110" d=" M 6.97041 3.175 L 6.8116 3.175 " />
<path d="M5.70041, 3.175 Q5.71151, 3.17499 5.72261, 3.15588 " /><path d="M5.72261, 3.15588 C5.77064, 3.07542 5.81867, 2.71488 5.8667, 2.15972  C5.92438, 1.49756 5.98206, 0.559886 6.03973, -0.342005  C6.08476, -1.04594 6.12979, -1.72068 6.17482, -2.22449  C6.22835, -2.82782 6.28188, -3.17852 6.33541, -3.175 " /><path d="M6.33541, -3.175 Q6.34651, -3.17499 6.3576, -3.15588 " /><path d="M5.14483, 2.48766 C5.11321, 2.43171 5.05035, 2.39542 4.98608, 2.396 " /><path d="M4.98608, 2.396 L4.98607, 2.396 " /><path d="M5.54159, 3.175 C5.58654, 3.17679 5.6315, 2.93284 5.67645, 2.49421  C5.74266, 1.85475 5.80887, 0.788821 5.87508, -0.250805  C5.9185, -0.93128 5.96192, -1.59149 6.00534, -2.10196  C6.05502, -2.68927 6.10471, -3.07285 6.1544, -3.15587 " /><path d="M6.1544, -3.15587 Q6.1655, -3.17499 6.1766, -3.175 " /><path d="M6.78939, 3.15586 Q6.80049, 3.17499 6.8116, 3.175 " /><path d="M5.54159, 3.175 L5.14483, 2.48766 " /><path id= "120" d=" M 5.70041 3.175 L 5.54159 3.175 " />
<path d="M4.43041, 3.175 Q4.44151, 3.17499 4.45261, 3.15588 " /><path d="M4.45261, 3.15588 C4.50064, 3.07542 4.54867, 2.71487 4.59671, 2.15971  C4.65438, 1.49753 4.71206, 0.559832 4.76973, -0.342078  C4.81493, -1.04865 4.86013, -1.72576 4.90533, -2.23019  C4.95869, -2.83009 5.01205, -3.17848 5.06541, -3.175 " /><path d="M5.06541, -3.175 Q5.07651, -3.17499 5.0876, -3.15588 " /><path d="M5.52069, 3.15582 Q5.5318, 3.17499 5.54159, 3.175 " /><path id= "125" d=" M 4.43041 3.175 L 4.22403 3.175 " />
<path d="M4.22403 3.175 A0.3175 0.3175 0 0 0 4.01573 3.25288" /><path id= "127" d=" M 4.01573 3.25288 L 0.372547 6.41985 " />
<path d="M0.372547, -6.41985 L0.372547, -6.25889  L0.372547, -5.78408  L0.372547, -5.01924  L0.372547, -4.00271  L0.372547, -2.78547  L0.372547, -1.42855  L0.372547, -1.11022e-15  L0.372547, 1.42855  L0.372547, 2.78547  L0.372547, 4.00271  L0.372547, 5.01924  L0.372547, 5.78408  L0.372547, 6.25889  L0.372547, 6.41985 " /><path id= "129" d=" M 0.372547 6.41985 L 0 6.41985 " />
<path d="M0, -6.41985 L0, -6.25889  L0, -5.78408  L0, -5.01924  L0, -4.00271  L0, -2.78547  L0, -1.42855  L0, -1.11022e-15  L0, 1.42855  L0, 2.78547  L0, 4.00271  L0, 5.01924  L0, 5.78408  L0, 6.25889  L0, 6.41985 " /></g>

</svg>
