<svg xmlns="http://www.w3.org/2000/svg" viewBox="-7.447026 -7.447026 14.894052 14.894052">
<rect width="100%" height="100%" fill="white"/>
<g   fill="none"
   stroke="rgb(0, 0, 0)"
   stroke-linecap="butt"
   stroke-linejoin="miter"
   stroke-width="0.35"
   transform="scale(1, -1)"
  >
<circle cx ="0" cy ="0" r ="6.41985" /><circle cx ="0" cy ="0" r ="2.29913" /><path d="M1.14385, 1.9812 C0.30824, 1.9812 -0.30824, 1.9812 -1.14385, 1.9812 " /><path d="M-1.14385, 1.9812 C-1.56165, 1.25754 -1.86989, 0.723656 -2.28769, 2.65676e-13 " /><path d="M-2.28769, -2.66454e-13 C-1.86989, -0.723656 -1.56165, -1.25754 -1.14385, -1.9812 " /><path d="M-1.14385, -1.9812 C-0.30824, -1.9812 0.30824, -1.9812 1.14385, -1.9812 " /><path d="M1.14385, -1.9812 C1.56165, -1.25754 1.86989, -0.723656 2.28769, -2.66565e-13 " /><path d="M2.28769, 2.66343e-13 C1.86989, 0.723656 1.56165, 1.25754 1.14385, 1.9812 " /><circle cx ="0" cy ="0" r ="0.316992" /></g>

</svg>
