<svg xmlns="http://www.w3.org/2000/svg" viewBox="-3.04 -10.44 4.48 20.88">
<rect width="100%" height="100%" fill="white"/>
<g   fill="none"
   stroke="rgb(165, 165, 165)"
   stroke-dasharray="1.2,0.8"
   stroke-linecap="butt"
   stroke-linejoin="miter"
   stroke-width="0.25"
   transform="scale(1, -1)"
  >
<path d="M-1.6, 3.2 L-1.6, 3.11977  L-1.6, 2.8831  L-1.6, 2.50186  L-1.6, 1.99517  L-1.6, 1.38843  L-1.6, 0.712067  L-1.6, 2.22045e-16  L-1.6, -0.712067  L-1.6, -1.38843  L-1.6, -1.99517  L-1.6, -2.50186  L-1.6, -2.8831  L-1.6, -3.11977  L-1.6, -3.2 " /><path d="M-1.6, -3.2 L-1.6, -3.11977  L-1.6, -2.8831  L-1.6, -2.50186  L-1.6, -1.99517  L-1.6, -1.38843  L-1.6, -0.712067  L-1.6, -5.55112e-16  L-1.6, 0.712067  L-1.6, 1.38843  L-1.6, 1.99517  L-1.6, 2.50186  L-1.6, 2.8831  L-1.6, 3.11977  L-1.6, 3.2 " /><path d="M-1.6, 9 L-1.6, 8.77435  L-1.6, 8.10872  L-1.6, 7.03648  L-1.6, 5.61141  L-1.6, 3.90495  L-1.6, 2.00269  L-1.6, 4.44089e-16  L-1.6, -2.00269  L-1.6, -3.90495  L-1.6, -5.61141  L-1.6, -7.03648  L-1.6, -8.10872  L-1.6, -8.77435  L-1.6, -9 " /><path d="M0, 9 L0, 8.77435  L0, 8.10872  L0, 7.03648  L0, 5.61141  L0, 3.90495  L0, 2.00269  L0, 4.44089e-16  L0, -2.00269  L0, -3.90495  L0, -5.61141  L0, -7.03648  L0, -8.10872  L0, -8.77435  L0, -9 " /><path d="M0, 3.2 L0, 3.11977  L0, 2.8831  L0, 2.50186  L0, 1.99517  L0, 1.38843  L0, 0.712067  L0, 2.22045e-16  L0, -0.712067  L0, -1.38843  L0, -1.99517  L0, -2.50186  L0, -2.8831  L0, -3.11977  L0, -3.2 " /><path d="M0, -3.2 L0, -3.11977  L0, -2.8831  L0, -2.50186  L0, -1.99517  L0, -1.38843  L0, -0.712067  L0, -5.55112e-16  L0, 0.712067  L0, 1.38843  L0, 1.99517  L0, 2.50186  L0, 2.8831  L0, 3.11977  L0, 3.2 " /><path id= "7" d=" M 0 3.2 L -1.6 3.2 " />
</g>
<g   fill="none"
   stroke="rgb(165, 165, 165)"
   stroke-dasharray="1.2,0.8"
   stroke-linecap="butt"
   stroke-linejoin="miter"
   stroke-width="0.25"
   transform="scale(1, -1)"
  >
<path id= "1" d=" M 0 -3.2 L -1.6 -3.2 " />
</g>
<g   fill="none"
   stroke="rgb(0, 0, 0)"
   stroke-linecap="butt"
   stroke-linejoin="miter"
   stroke-width="0.35"
   transform="scale(1, -1)"
  >
<path id= "1" d=" M -1.6 -9 L 0 -9 " />
</g>
<g   fill="none"
   stroke="rgb(0, 0, 0)"
   stroke-linecap="butt"
   stroke-linejoin="miter"
   stroke-width="0.35"
   transform="scale(1, -1)"
  >
<path d="M-1.6, -9 L-1.6, -8.77435  L-1.6, -8.10872  L-1.6, -7.03648  L-1.6, -5.61141  L-1.6, -3.90495  L-1.6, -2.00269  L-1.6, -1.77636e-15  L-1.6, 2.00269  L-1.6, 3.90495  L-1.6, 5.61141  L-1.6, 7.03648  L-1.6, 8.10872  L-1.6, 8.77435  L-1.6, 9 " /><path id= "2" d=" M -1.6 9 L 0 9 " />
<path d="M0, -9 L0, -8.77435  L0, -8.10872  L0, -7.03648  L0, -5.61141  L0, -3.90495  L0, -2.00269  L0, -1.77636e-15  L0, 2.00269  L0, 3.90495  L0, 5.61141  L0, 7.03648  L0, 8.10872  L0, 8.77435  L0, 9 " /></g>

</svg>
