<svg xmlns="http://www.w3.org/2000/svg" viewBox="-5.5164168 -6.4500968 23.205173600000002 18.8264536">
<rect width="100%" height="100%" fill="white"/>
<g   fill="none"
   stroke="rgb(0, 0, 0)"
   stroke-linecap="butt"
   stroke-linejoin="miter"
   stroke-width="0.35"
   transform="scale(1, -1)"
  >
<path id= "1" d=" M 15.3787 -5.4148 L 15.2903 -5.36376 " />
<path id= "2" d=" M 12.0252 -10.4068 L 11.9368 -10.3558 " />
<path id= "3" d=" M 14.6716 -5.00655 L 14.5832 -4.95551 " />
<path id= "4" d=" M 11.318 -9.99858 L 11.2296 -9.94754 " />
<path id= "5" d=" M 13.9645 -4.5983 L 13.8761 -4.54727 " />
<path id= "6" d=" M 10.6109 -9.59033 L 10.5225 -9.53929 " />
<path id= "7" d=" M 13.2574 -4.19005 L 13.169 -4.13902 " />
<path id= "8" d=" M 9.90383 -9.18208 L 9.81543 -9.13104 " />
<path id= "9" d=" M 12.5503 -3.7818 L 12.4619 -3.73077 " />
<path id= "10" d=" M 9.19672 -8.77383 L 9.10832 -8.72279 " />
<path id= "11" d=" M 11.8432 -3.37356 L 11.7548 -3.32252 " />
<path id= "12" d=" M 8.48962 -8.36558 L 8.40121 -8.31454 " />
<path id= "13" d=" M 11.1361 -2.96531 L 11.0477 -2.91427 " />
<path id= "14" d=" M 7.78251 -7.95734 L 7.69411 -7.9063 " />
<path id= "15" d=" M 10.429 -2.55706 L 10.3406 -2.50602 " />
<path id= "16" d=" M 7.0754 -7.54909 L 6.987 -7.49805 " />
<path id= "17" d=" M 9.72185 -2.14881 L 9.63344 -2.09777 " />
<path id= "18" d=" M 6.3683 -7.14084 L 6.27989 -7.0898 " />
<path id= "19" d=" M 9.01474 -1.74056 L 8.92634 -1.68952 " />
<path id= "20" d=" M 5.66119 -6.73259 L 5.57278 -6.68155 " />
<path id= "21" d=" M 8.30764 -1.33231 L 8.21923 -1.28127 " />
<path id= "22" d=" M 4.95409 -6.32434 L 4.86567 -6.2733 " />
<path id= "23" d=" M 7.60053 -0.924067 L 7.51212 -0.873022 " />
<path id= "24" d=" M 4.24698 -5.9161 L 4.15856 -5.86505 " />
<path id= "25" d=" M 6.89342 -0.515818 L 6.80501 -0.464773 " />
<path id= "26" d=" M 3.53987 -5.50785 L 3.45146 -5.4568 " />
<path id= "27" d=" M 6.18632 -0.10757 L 6.0979 -0.0565239 " />
<path id= "28" d=" M 2.83277 -5.0996 L 2.74435 -5.04855 " />
<path id= "29" d=" M 5.47921 0.300678 L 5.39079 0.351725 " />
<path id= "30" d=" M 2.12566 -4.69135 L 2.03724 -4.6403 " />
<path id= "31" d=" M 4.7721 0.708926 L 4.6552 0.776418 " />
<path id= "32" d=" M 2.18848 -3.88041 L 0.494975 -4.85815 " />
<path id= "33" d=" M 3.29497 4.56397 L 2.8 4.84974 " />
<path id= "34" d=" M -2.30503 -5.13552 L -2.8 -4.84974 " />
</g>
<g   fill="none"
   stroke="rgb(0, 0, 0)"
   stroke-linecap="butt"
   stroke-linejoin="miter"
   stroke-width="0.35"
   transform="scale(1, -1)"
  >
<path d="M12.6654 -10.776 A3 1.73205 60 0 1 14.1748 -10.5953" />
<path d="M12.4307, -10.5252 Q12.5315, -10.6732 12.6654, -10.776 " /><path d="M16, -6.78813 C16.0289, -7.39575 15.8623, -8.11317 15.5476, -8.76861  C15.3267, -9.23179 15.0349, -9.66258 14.7115, -10.0078  C14.4446, -10.2934 14.1569, -10.5206 13.8748, -10.6705  C13.4209, -10.9135 12.9844, -10.9503 12.6654, -10.776 " /><path d="M16.0884, -6.83916 C16.1224, -7.53472 15.8965, -8.3744 15.4915, -9.09999  C15.141, -9.73487 14.6607, -10.2762 14.1748, -10.5953 " /><path d="M15.3813, -6.43091 C15.4153, -7.12647 15.1894, -7.96615 14.7844, -8.69174  C14.535, -9.14226 14.221, -9.5476 13.885, -9.85735  C13.6646, -10.0604 13.4418, -10.2192 13.2168, -10.3337  C12.7668, -10.5638 12.337, -10.5889 12.0252, -10.4068 " /><path d="M15.3787, -5.4148 C15.803, -5.6561 16.0612, -6.17871 16.0884, -6.83916 " /><path d="M15.2929, -6.37988 C15.3218, -6.9875 15.1552, -7.70493 14.8405, -8.36036  C14.6196, -8.82355 14.3278, -9.25434 14.0043, -9.59961  C13.7372, -9.88544 13.4492, -10.1128 13.1668, -10.2627  C12.703, -10.5109 12.2574, -10.5432 11.9368, -10.3558 " /><path d="M11.9368, -10.3558 Q11.78, -10.2651 11.6652, -10.1117 " /><path d="M14.9531, -5.23337 Q15.1343, -5.27374 15.2903, -5.36376 " /><path d="M15.2903, -5.36376 C15.7146, -5.60506 15.9728, -6.12768 16, -6.78813 " /><path d="M14.6742, -6.02266 C14.7082, -6.71823 14.4823, -7.5579 14.0773, -8.28349  C13.8279, -8.73401 13.5139, -9.13936 13.1779, -9.4491  C12.9574, -9.65215 12.7347, -9.81094 12.5097, -9.92547  C12.0597, -10.1556 11.6299, -10.1807 11.318, -9.99858 " /><path d="M14.6716, -5.00655 C15.0959, -5.24785 15.3541, -5.77047 15.3813, -6.43091 " /><path d="M14.5858, -5.97163 C14.6147, -6.57925 14.448, -7.29668 14.1334, -7.95212  C13.9125, -8.41531 13.6206, -8.8461 13.2972, -9.19137  C13.0298, -9.47754 12.7414, -9.70515 12.4587, -9.85503  C11.9952, -10.1027 11.5501, -10.1348 11.2296, -9.94754 " /><path d="M14.5832, -4.95551 C15.0075, -5.19681 15.2657, -5.71943 15.2929, -6.37988 " /><path d="M13.9671, -5.61441 C14.001, -6.30998 13.7752, -7.14965 13.3702, -7.87524  C13.1208, -8.32576 12.8068, -8.73111 12.4708, -9.04085  C12.2503, -9.2439 12.0276, -9.40269 11.8026, -9.51721  C11.3526, -9.74731 10.9228, -9.77243 10.6109, -9.59033 " /><path d="M13.9645, -4.5983 C14.3888, -4.8396 14.647, -5.36222 14.6742, -6.02266 " /><path d="M13.8787, -5.56338 C13.9076, -6.17101 13.7409, -6.88844 13.4263, -7.54388  C13.2054, -8.00707 12.9135, -8.43787 12.5901, -8.78313  C12.3223, -9.06968 12.0335, -9.2975 11.7504, -9.44738  C11.2874, -9.69452 10.8427, -9.72642 10.5225, -9.53929 " /><path d="M10.5225, -9.53929 Q10.3658, -9.44865 10.251, -9.29519 " /><path d="M13.5389, -4.41687 Q13.72, -4.45724 13.8761, -4.54727 " /><path d="M13.8761, -4.54727 C14.3004, -4.78856 14.5586, -5.31119 14.5858, -5.97163 " /><path d="M13.26, -5.20617 C13.2939, -5.90173 13.068, -6.7414 12.6631, -7.46699  C12.4137, -7.91751 12.0997, -8.32285 11.7637, -8.6326  C11.5432, -8.83564 11.3205, -8.99443 11.0955, -9.10895  C10.6455, -9.33906 10.2157, -9.36419 9.90383, -9.18208 " /><path d="M13.2574, -4.19005 C13.6817, -4.43135 13.9399, -4.95397 13.9671, -5.61441 " /><path d="M13.1716, -5.15513 C13.2004, -5.76276 13.0338, -6.48019 12.7192, -7.13563  C12.4983, -7.59883 12.2064, -8.02963 11.883, -8.3749  C11.6188, -8.65752 11.3343, -8.88305 11.0549, -9.03295  C10.5877, -9.28564 10.1383, -9.31978 9.81543, -9.13104 " /><path d="M9.81543, -9.13104 Q9.65869, -9.0404 9.54389, -8.88694 " /><path d="M12.8318, -4.00863 Q13.0129, -4.049 13.169, -4.13902 " /><path d="M13.169, -4.13902 C13.5933, -4.38031 13.8515, -4.90294 13.8787, -5.56338 " /><path d="M12.5529, -4.79792 C12.5868, -5.49348 12.3609, -6.33315 11.956, -7.05874  C11.7066, -7.50926 11.3926, -7.9146 11.0566, -8.22435  C10.8361, -8.42739 10.6134, -8.58617 10.3884, -8.7007  C9.93837, -8.93082 9.5086, -8.95594 9.19673, -8.77383 " /><path d="M12.5503, -3.7818 C12.9746, -4.0231 13.2328, -4.54572 13.26, -5.20617 " /><path d="M12.4645, -4.74688 C12.4933, -5.35451 12.3267, -6.07195 12.0121, -6.72739  C11.7912, -7.19059 11.4993, -7.62139 11.1759, -7.96666  C10.9115, -8.24954 10.6266, -8.47521 10.347, -8.62511  C9.88012, -8.87743 9.43099, -8.91143 9.10832, -8.72279 " /><path d="M9.10832, -8.72279 Q8.95158, -8.63215 8.83678, -8.4787 " /><path d="M12.1247, -3.60038 Q12.3058, -3.64075 12.4619, -3.73077 " /><path d="M12.4619, -3.73077 C12.8862, -3.97207 13.1444, -4.49469 13.1716, -5.15513 " /><path d="M11.8458, -4.38967 C11.8797, -5.08523 11.6538, -5.9249 11.2489, -6.65049  C10.9995, -7.10101 10.6854, -7.50636 10.3495, -7.81611  C10.129, -8.01914 9.90633, -8.17793 9.68134, -8.29245  C9.23126, -8.52257 8.80149, -8.54769 8.48962, -8.36559 " /><path d="M11.8432, -3.37356 C12.2675, -3.61486 12.5257, -4.13747 12.5529, -4.79792 " /><path d="M11.7574, -4.33863 C11.7862, -4.94626 11.6196, -5.6637 11.305, -6.31915  C11.084, -6.78235 10.7922, -7.21315 10.4687, -7.55842  C10.2042, -7.84153 9.91905, -8.06733 9.63924, -8.21723  C9.17258, -8.46922 8.72372, -8.50308 8.40121, -8.31454 " /><path d="M8.40121, -8.31454 Q8.24447, -8.2239 8.12968, -8.07045 " /><path d="M11.4176, -3.19213 Q11.5987, -3.2325 11.7548, -3.32252 " /><path d="M11.7548, -3.32252 C12.1791, -3.56382 12.4373, -4.08644 12.4645, -4.74688 " /><path d="M11.1387, -3.98142 C11.1726, -4.67698 10.9467, -5.51666 10.5417, -6.24225  C10.2923, -6.69277 9.97834, -7.09811 9.64235, -7.40786  C9.42193, -7.6109 9.19922, -7.76968 8.97423, -7.88421  C8.52415, -8.11432 8.09439, -8.13945 7.78251, -7.95734 " /><path d="M11.1361, -2.96531 C11.5604, -3.20661 11.8186, -3.72923 11.8458, -4.38967 " /><path d="M11.0503, -3.93038 C11.0791, -4.53802 10.9125, -5.25546 10.5978, -5.9109  C10.3769, -6.37411 10.0851, -6.80491 9.76162, -7.15018  C9.49681, -7.43354 9.21144, -7.65948 8.9314, -7.80937  C8.46499, -8.06101 8.01644, -8.09473 7.69411, -7.9063 " /><path d="M7.69411, -7.9063 Q7.53736, -7.81565 7.42257, -7.6622 " /><path d="M10.7105, -2.78388 Q10.8916, -2.82425 11.0477, -2.91427 " /><path d="M11.0477, -2.91427 C11.472, -3.15557 11.7302, -3.67819 11.7574, -4.33863 " /><path d="M10.4316, -3.57317 C10.4655, -4.26874 10.2396, -5.10841 9.83464, -5.834  C9.58524, -6.28451 9.27123, -6.68986 8.93525, -6.99961  C8.71483, -7.20264 8.49212, -7.36142 8.26714, -7.47595  C7.81706, -7.70607 7.38728, -7.7312 7.07541, -7.54909 " /><path d="M10.429, -2.55706 C10.8533, -2.79836 11.1115, -3.32098 11.1387, -3.98142 " /><path d="M10.3432, -3.52213 C10.372, -4.12977 10.2054, -4.84721 9.89073, -5.50266  C9.66982, -5.96587 9.37794, -6.39668 9.0545, -6.74195  C8.78946, -7.02554 8.50383, -7.25163 8.22356, -7.40152  C7.75741, -7.65281 7.30917, -7.68638 6.987, -7.49805 " /><path d="M6.987, -7.49805 Q6.83025, -7.4074 6.71546, -7.25395 " /><path d="M10.0034, -2.37563 Q10.1845, -2.416 10.3406, -2.50602 " /><path d="M10.3406, -2.50602 C10.7649, -2.74732 11.023, -3.26994 11.0503, -3.93038 " /><path d="M9.72445, -3.16493 C9.7584, -3.86049 9.53252, -4.70016 9.12753, -5.42575  C8.87814, -5.87627 8.56413, -6.28161 8.22814, -6.59136  C8.00772, -6.79439 7.78502, -6.95317 7.56004, -7.0677  C7.10996, -7.29782 6.68018, -7.32295 6.3683, -7.14084 " /><path d="M9.72185, -2.14881 C10.1462, -2.39011 10.4044, -2.91273 10.4316, -3.57317 " /><path d="M9.63604, -3.11388 C9.66491, -3.72152 9.49828, -4.43897 9.18362, -5.09442  C8.9627, -5.55763 8.67083, -5.98844 8.34738, -6.33371  C8.08212, -6.61754 7.79624, -6.84376 7.51574, -6.99365  C7.04985, -7.2446 6.6019, -7.27803 6.27989, -7.0898 " /><path d="M6.27989, -7.0898 Q6.12315, -6.99916 6.00835, -6.8457 " /><path d="M9.29626, -1.96738 Q9.47739, -2.00775 9.63344, -2.09777 " /><path d="M9.63344, -2.09777 C10.0578, -2.33907 10.3159, -2.86169 10.3432, -3.52213 " /><path d="M9.01735, -2.75668 C9.0513, -3.45224 8.82541, -4.29191 8.42043, -5.0175  C8.17103, -5.46802 7.85702, -5.87336 7.52104, -6.18311  C7.30062, -6.38614 7.07792, -6.54492 6.85294, -6.65944  C6.40285, -6.88957 5.97307, -6.91471 5.66119, -6.73259 " /><path d="M9.01474, -1.74056 C9.43906, -1.98186 9.69725, -2.50448 9.72445, -3.16493 " /><path d="M8.92894, -2.70563 C8.9578, -3.31327 8.79117, -4.03073 8.47651, -4.68617  C8.25559, -5.14939 7.96371, -5.5802 7.64026, -5.92547  C7.37478, -6.20954 7.08863, -6.4359 6.8079, -6.58579  C6.34227, -6.83639 5.89462, -6.86968 5.57278, -6.68155 " /><path d="M5.57278, -6.68155 Q5.41604, -6.59091 5.30124, -6.43745 " /><path d="M8.58915, -1.55913 Q8.77028, -1.5995 8.92634, -1.68952 " /><path d="M8.92634, -1.68952 C9.35065, -1.93082 9.60883, -2.45344 9.63604, -3.11388 " /><path d="M8.31024, -2.34843 C8.34419, -3.04399 8.11831, -3.88366 7.71332, -4.60925  C7.46392, -5.05977 7.14992, -5.46511 6.81393, -5.77486  C6.59352, -5.97789 6.37082, -6.13666 6.14585, -6.25119  C5.69576, -6.48133 5.26597, -6.50646 4.95409, -6.32434 " /><path d="M8.30764, -1.33231 C8.73195, -1.57361 8.99014, -2.09623 9.01735, -2.75668 " /><path d="M8.22183, -2.29738 C8.25069, -2.90503 8.08406, -3.62248 7.7694, -4.27793  C7.54848, -4.74115 7.25659, -5.17196 6.93314, -5.51724  C6.66744, -5.80153 6.38105, -6.02802 6.10011, -6.1779  C5.63472, -6.42817 5.18736, -6.46134 4.86567, -6.2733 " /><path d="M4.86567, -6.2733 Q4.70893, -6.18266 4.59414, -6.02921 " /><path d="M7.88204, -1.15088 Q8.06317, -1.19125 8.21923, -1.28127 " /><path d="M8.21923, -1.28127 C8.64354, -1.52257 8.90172, -2.04519 8.92894, -2.70563 " /><path d="M7.60313, -1.94018 C7.63709, -2.63574 7.4112, -3.47541 7.00622, -4.201  C6.75682, -4.65152 6.44281, -5.05686 6.10683, -5.36661  C5.88641, -5.56964 5.66372, -5.72841 5.43875, -5.84294  C4.98865, -6.07308 4.55887, -6.09821 4.24698, -5.9161 " /><path d="M7.60053, -0.924067 C8.02485, -1.16537 8.28304, -1.68798 8.31024, -2.34843 " /><path d="M7.51472, -1.88914 C7.54358, -2.49678 7.37695, -3.21424 7.06228, -3.86969  C6.84136, -4.33291 6.54948, -4.76373 6.22602, -5.109  C5.96012, -5.39351 5.67348, -5.62014 5.39233, -5.77001  C4.92718, -6.01996 4.48009, -6.05299 4.15856, -5.86505 " /><path d="M4.15856, -5.86505 Q4.00182, -5.77441 3.88703, -5.62096 " /><path d="M7.17494, -0.742634 Q7.35607, -0.783004 7.51212, -0.873022 " /><path d="M7.51212, -0.873022 C7.93643, -1.11432 8.19461, -1.63694 8.22183, -2.29738 " /><path d="M6.89603, -1.53193 C6.92998, -2.22749 6.70409, -3.06716 6.29911, -3.79275  C6.04971, -4.24327 5.7357, -4.64861 5.39972, -4.95836  C5.17931, -5.16139 4.95662, -5.32016 4.73165, -5.43469  C4.28155, -5.66483 3.85176, -5.68997 3.53987, -5.50785 " /><path d="M6.89342, -0.515819 C7.31774, -0.757118 7.57593, -1.27974 7.60313, -1.94018 " /><path d="M6.80761, -1.48089 C6.83647, -2.08853 6.66984, -2.80599 6.35517, -3.46144  C6.13425, -3.92467 5.84236, -4.35549 5.5189, -4.70076  C5.25278, -4.9855 4.9659, -5.21226 4.68453, -5.36213  C4.21963, -5.61175 3.77283, -5.64465 3.45145, -5.4568 " /><path d="M3.45145, -5.4568 Q3.29471, -5.36616 3.17992, -5.21271 " /><path d="M6.46783, -0.334385 Q6.64896, -0.374755 6.80501, -0.464773 " /><path d="M6.80501, -0.464773 C7.22932, -0.706072 7.48751, -1.22869 7.51472, -1.88914 " /><path d="M6.18892, -1.12368 C6.22287, -1.81924 5.99699, -2.65891 5.592, -3.3845  C5.34261, -3.83502 5.0286, -4.24036 4.69262, -4.55011  C4.47221, -4.75314 4.24952, -4.91191 4.02455, -5.02644  C3.57445, -5.25658 3.14466, -5.28172 2.83277, -5.0996 " /><path d="M6.18632, -0.10757 C6.61063, -0.34887 6.86882, -0.871489 6.89603, -1.53193 " /><path d="M6.1005, -1.07264 C6.12937, -1.68029 5.96274, -2.39775 5.64806, -3.0532  C5.42714, -3.51643 5.13524, -3.94725 4.81178, -4.29252  C4.54545, -4.57749 4.25832, -4.80438 3.97674, -4.95425  C3.51208, -5.20354 3.06556, -5.23631 2.74435, -5.04855 " /><path d="M2.74435, -5.04855 Q2.58761, -4.95791 2.47281, -4.80446 " /><path d="M5.76072, 0.0738642 Q5.94185, 0.0334941 6.0979, -0.0565239 " /><path d="M6.0979, -0.0565239 C6.52222, -0.297822 6.7804, -0.820443 6.80761, -1.48089 " /><path d="M5.48181, -0.715437 C5.51577, -1.411 5.28988, -2.25066 4.8849, -2.97625  C4.6355, -3.42677 4.32149, -3.83212 3.98551, -4.14186  C3.7651, -4.34488 3.54242, -4.50366 3.31745, -4.61818  C2.86735, -4.84833 2.43755, -4.87347 2.12566, -4.69135 " /><path d="M5.47921, 0.300678 C5.90353, 0.059378 6.16172, -0.46324 6.18892, -1.12368 " /><path d="M5.39339, -0.664388 C5.42226, -1.27204 5.25563, -1.9895 4.94095, -2.64496  C4.72002, -3.10819 4.42813, -3.53901 4.10466, -3.88429  C3.83812, -4.16947 3.55076, -4.39649 3.26896, -4.54635  C2.80454, -4.79533 2.3583, -4.82796 2.03724, -4.6403 " /><path d="M5.39079, 0.351725 C5.81511, 0.110427 6.07329, -0.412192 6.1005, -1.07264 " /><path d="M4.77471, -0.307189 C4.80866, -1.00275 4.58277, -1.84241 4.17779, -2.568  C3.9284, -3.01852 3.61439, -3.42387 3.2784, -3.73362  C3.058, -3.93663 2.83532, -4.09541 2.61035, -4.20993  C2.17795, -4.43088 1.76407, -4.46325 1.45583, -4.30341 " /><path d="M4.7721, 0.708926 C5.19642, 0.467626 5.45461, -0.0549917 5.48181, -0.715437 " /><path d="M4.77471, -0.307189 C4.75755, 0.130318 4.64665, 0.506922 4.45477, 0.773496 " /><path d="M4.45477, 0.870211 Q4.55967, 0.831553 4.6552, 0.776418 " /><path d="M4.6552, 0.776418 C5.09825, 0.524671 5.36928, -0.0026879 5.39339, -0.664388 " /><path id= "96" d=" M 4.45477 0.0449279 L 4.45477 1.42887 " />
<path d="M4.4047 0.72227 A4.9 2.82902 60 0 1 4.45477 1.42887" />
<path d="M4.4047, 0.72227 Q4.40808, 0.990515 4.41104, 1.29747 " /><path d="M-2.30503 -5.13552 A5.6 3.23316 60 0 1 0.494975 -4.85815" />
<path d="M0.494975 -4.85815 A5.6 3.23316 60 0 1 4.41104 1.29747" />
<path d="M-2.42481 -1.86537 A4.9 2.82902 60 0 1 -2.45135 -2.09298" />
<path d="M-3.42109, -1.86902 Q-2.88942, -1.86732 -2.42481, -1.86537 " /><path d="M4.41104 2.65286 A5.6 3.23316 60 0 1 3.29497 4.56397" />
<path d="M4.4047, 2.07765 Q4.40808, 2.3459 4.41104, 2.65286 " /><path d="M4.45477 1.42887 A4.9 2.82902 60 0 1 4.4047 2.07765" />
<path id= "106" d=" M -2.42481 -1.86537 L 4.4047 2.07765 " />
<path id= "107" d=" M -3.42109 -1.86902 L -3.91606 -1.58325 " />
<path id= "108" d=" M 3.91606 2.93863 L -3.91606 -1.58325 " />
<path id= "109" d=" M 4.41104 2.65286 L 3.91606 2.93863 " />
<path d="M3.91606 2.93863 A5.6 3.23316 60 0 1 2.8 4.84974" />
<path d="M2.8 4.84974 A5.6 3.23316 60 0 1 -3.91606 -1.58325" />
<path id= "112" d=" M 3.91606 1.58325 L -3.91606 -2.93863 " />
<path id= "113" d=" M 4.41104 1.29747 L 3.91606 1.58325 " />
<path d="M-3.91606 -2.93863 A5.6 3.23316 60 0 1 -2.8 -4.84974" />
<path d="M-2.8 -4.84974 A5.6 3.23316 60 0 1 3.91606 1.58325" />
</g>

</svg>
