<svg xmlns="http://www.w3.org/2000/svg" viewBox="-6.4242539999999995 -3.886104 12.848507999999999 7.772208">
<rect width="100%" height="100%" fill="white"/>
<g   fill="none"
   stroke="rgb(165, 165, 165)"
   stroke-dasharray="1.2,0.8"
   stroke-linecap="butt"
   stroke-linejoin="miter"
   stroke-width="0.25"
   transform="scale(1, -1)"
  >
<path d="M-2.08849 -2.15365 A3 3 0 0 1 0.0461749 -2.99964" /><path d="M-0.975821, 2.2568 C-1.37911, 2.13409 -1.75045, 1.90448 -2.04552, 1.59903  C-2.37329, 1.26137 -2.60653, 0.831724 -2.71663, 0.370959  C-2.84183, -0.1464 -2.8112, -0.701 -2.63451, -1.20651  C-2.51451, -1.55217 -2.32776, -1.87505 -2.08849, -2.15365 " /><path d="M2.2568, 0.975827 C2.13737, 1.1873 1.97806, 1.41844 1.78234, 1.61652  C1.5316, 1.87342 1.22067, 2.08409 0.879232, 2.21871 " /><path d="M0.879232, 2.21871 C0.538433, 2.35445 0.167801, 2.41396 -0.190684, 2.39863  C-0.469171, 2.38843 -0.743789, 2.32912 -0.975821, 2.2568 " /><path d="M2.57123, 8.68245e-08 C2.53465, 0.343342 2.4274, 0.678137 2.2568, 0.975827 " /><path d="M2.57123, 8.68245e-08 C2.64419, -0.65974 2.448, -1.34496 2.04388, -1.87869  C1.57577, -2.50729 0.8313, -2.91912 0.0461749, -2.99964 " /><path d="M3, 1.5099e-12 C3.00234, -0.726112 2.72822, -1.44847 2.24476, -1.99024  C1.90518, -2.37415 1.46527, -2.6682 0.980691, -2.83518  C0.580873, -2.97377 0.151516, -3.02618 -0.269901, -2.98783  C-0.947794, -2.92843 -1.60126, -2.62867 -2.08849, -2.15365 " /><path d="M3, 6.79456e-14 C3.00396, -0.831837 2.64045, -1.65645 2.02365, -2.21469  C1.48949, -2.70594 0.771796, -2.99081 0.0461749, -2.99964 " /><path d="M3, 2.34035e-13 C3.00396, -0.831835 2.64045, -1.65644 2.02366, -2.21468  C1.39782, -2.79239 0.517601, -3.07951 -0.328463, -2.98196  C-0.993454, -2.91043 -1.63045, -2.60752 -2.10565, -2.13687  C-2.6705, -1.58482 -2.99999, -0.802029 -2.99998, -0.0122154  C-3.00637, 0.774246 -2.68603, 1.55663 -2.12983, 2.11278  C-1.65895, 2.58989 -1.02362, 2.90032 -0.357861, 2.97858  C0.481027, 3.0836 1.35746, 2.81022 1.98789, 2.24684  C2.62587, 1.68807 3.00426, 0.848013 3, 1.21902e-13 " /><path d="M3, 3.7752e-12 C3.00234, -0.726114 2.72822, -1.44848 2.24476, -1.99024  C1.90518, -2.37415 1.46526, -2.6682 0.980677, -2.83518  C0.580464, -2.97391 0.150652, -3.02629 -0.271164, -2.98772  C-0.920146, -2.93036 -1.54699, -2.65339 -2.02638, -2.21219  C-2.61794, -1.67493 -2.97693, -0.892589 -2.99853, -0.0938367  C-3.02544, 0.673225 -2.74194, 1.44507 -2.22496, 2.01235  C-1.77611, 2.51119 -1.15493, 2.85075 -0.492706, 2.95926  C-0.223928, 3.00384 0.045932, 3.01182 0.316875, 2.98322  C0.888679, 2.92343 1.4413, 2.69422 1.88757, 2.33175  C2.58439, 1.77432 3.00517, 0.892259 3, 1.45794e-12 " /><path d="M3, 5.65326e-13 C3.00396, -0.831837 2.64045, -1.65645 2.02365, -2.21468  C1.39781, -2.7924 0.517574, -3.07952 -0.3285, -2.98196  C-0.992407, -2.91052 -1.62842, -2.6085 -2.10336, -2.13913  C-2.67372, -1.583 -3.00461, -0.791789 -3, 0.00480659  C-3.00183, 0.78424 -2.68306, 1.55799 -2.13264, 2.10994  C-1.66199, 2.5881 -1.02638, 2.89949 -0.360092, 2.97831  C0.481494, 3.08435 1.36111, 2.80936 1.99245, 2.24279  C2.62774, 1.68406 3.00422, 0.845962 3, 2.37588e-13 " /><path d="M3, 6.83165e-12 C3.00234, -0.726116 2.72822, -1.44848 2.24475, -1.99025  C1.90517, -2.37416 1.46524, -2.66821 0.980659, -2.83519  C0.579963, -2.97409 0.149598, -3.02641 -0.272708, -2.98758  C-0.922606, -2.92981 -1.55018, -2.65177 -2.02961, -2.20922  C-2.61915, -1.6722 -2.9768, -0.89147 -2.99852, -0.0943763  C-3.02556, 0.672681 -2.7422, 1.44458 -2.22532, 2.01195  C-1.77342, 2.51442 -1.14665, 2.85526 -0.479257, 2.96147  C-0.214335, 3.00418 0.0515483, 3.01137 0.318392, 2.98306  C0.890826, 2.92291 1.44394, 2.69295 1.8903, 2.32954  C2.58553, 1.77202 3.00514, 0.891078 3, 3.70814e-12 " /><path d="M3, 1.02984e-12 C3.00396, -0.831836 2.64045, -1.65644 2.02366, -2.21468  C1.39782, -2.79239 0.51759, -3.07951 -0.328479, -2.98196  C-0.993022, -2.91047 -1.62961, -2.60792 -2.10471, -2.13781  C-2.6704, -1.58543 -3.00031, -0.801705 -2.99998, -0.0110555  C-3.00609, 0.776596 -2.68444, 1.56001 -2.12652, 2.11611  C-1.65373, 2.59367 -1.01593, 2.90342 -0.348273, 2.97972  C0.490986, 3.08204 1.36658, 2.80581 1.9952, 2.24035  C2.62886, 1.68164 3.00419, 0.844727 3, 4.93161e-13 " /><path d="M3, 1.02851e-11 C3.00234, -0.726118 2.72822, -1.44849 2.24475, -1.99025  C1.90516, -2.37417 1.46523, -2.66822 0.98064, -2.8352  C0.57942, -2.97427 0.148452, -3.02655 -0.274384, -2.98743  C-0.915552, -2.93001 -1.53497, -2.65839 -2.01157, -2.22567  C-2.61049, -1.68905 -2.97535, -0.902615 -2.99837, -0.0988684  C-3.02656, 0.668147 -2.74436, 1.44047 -2.22833, 2.00861  C-1.77463, 2.51465 -1.14377, 2.85737 -0.472312, 2.96259  C-0.212006, 3.00393 0.0492269, 3.011 0.311388, 2.9838  C0.883741, 2.92501 1.43719, 2.69651 1.88431, 2.33439  C2.58303, 1.77707 3.0052, 0.89367 3, 6.85052e-12 " /><path d="M3, 1.58495e-12 C3.00396, -0.831834 2.64045, -1.65644 2.02366, -2.21468  C1.39783, -2.79238 0.517619, -3.0795 -0.328439, -2.98197  C-0.99408, -2.91037 -1.63166, -2.60694 -2.10703, -2.13552  C-2.67431, -1.58044 -3.00362, -0.792443 -3, 0.00122833  C-3.00285, 0.786302 -2.68021, 1.56588 -2.12331, 2.11933  C-1.65329, 2.59261 -1.02099, 2.90045 -0.358554, 2.9785  C0.480304, 3.08371 1.3568, 2.81054 1.98736, 2.24731  C2.62565, 1.68854 3.00426, 0.848253 3, 1.12466e-12 " /><path d="M3, 1.45022e-11 C3.00234, -0.726121 2.72822, -1.44849 2.24474, -1.99026  C1.90515, -2.37417 1.46522, -2.66823 0.980623, -2.8352  C0.584876, -2.97237 0.160193, -3.02513 -0.257087, -2.98896  C-0.911313, -2.93428 -1.54405, -2.65639 -2.02697, -2.21165  C-2.61989, -1.6729 -2.97891, -0.887869 -2.99874, -0.0870675  C-3.02391, 0.680053 -2.73867, 1.45126 -2.22041, 2.01737  C-1.7673, 2.51871 -1.13974, 2.85802 -0.472121, 2.96262  C-0.212222, 3.00388 0.0486055, 3.01097 0.310363, 2.9839  C0.881889, 2.9254 1.43463, 2.69769 1.88152, 2.33664  C2.58186, 1.77941 3.00523, 0.894878 3, 1.02838e-11 " /><path d="M3, 2.26397e-12 C3.00396, -0.831834 2.64045, -1.65644 2.02366, -2.21468  C1.39784, -2.79238 0.517628, -3.0795 -0.328427, -2.98197  C-0.994381, -2.91034 -1.63225, -2.60666 -2.10768, -2.13487  C-2.67552, -1.57892 -3.00467, -0.789522 -3, 0.00514982  C-3.00174, 0.784641 -2.68284, 1.55841 -2.13228, 2.1103  C-1.65859, 2.59143 -1.01783, 2.90352 -0.346988, 2.97987  C0.487972, 3.08124 1.35882, 2.80818 1.98642, 2.24814  C2.62527, 1.68936 3.00427, 0.848673 3, 1.62226e-12 " /><path d="M3, 1.96876e-11 C3.00234, -0.726123 2.72821, -1.4485 2.24474, -1.99026  C1.90515, -2.37418 1.46521, -2.66824 0.980607, -2.83521  C0.584501, -2.9725 0.159407, -3.02522 -0.258237, -2.98886  C-0.904748, -2.93452 -1.53029, -2.66237 -2.01076, -2.2264  C-2.60699, -1.69252 -2.97164, -0.911173 -2.99793, -0.111361  C-3.02965, 0.661847 -2.74562, 1.44165 -2.22408, 2.01332  C-1.77556, 2.51135 -1.15521, 2.85043 -0.493846, 2.95907  C-0.229596, 3.00301 0.035793, 3.01156 0.302322, 2.98473  C0.875225, 2.92765 1.42971, 2.70057 1.87808, 2.3394  C2.58042, 1.7823 3.00526, 0.896364 3, 1.45615e-11 " /><path d="M3, 3.07465e-12 C3.00396, -0.831834 2.64045, -1.65644 2.02366, -2.21468  C1.39783, -2.79238 0.517623, -3.0795 -0.328433, -2.98197  C-0.994228, -2.91036 -1.63195, -2.6068 -2.10735, -2.1352  C-2.67492, -1.57968 -3.00415, -0.790971 -3, 0.00321118  C-3.00233, 0.788695 -2.67883, 1.56845 -2.12105, 2.12159  C-1.64819, 2.59676 -1.01156, 2.90455 -0.345462, 2.98004  C0.490313, 3.0811 1.36183, 2.80696 1.98928, 2.24561  C2.62644, 1.68685 3.00424, 0.847388 3, 2.31282e-12 " /><path d="M3, 2.58222e-11 C3.00234, -0.726125 2.72821, -1.4485 2.24473, -1.99027  C1.90514, -2.37419 1.46519, -2.66824 0.980592, -2.83521  C0.584169, -2.97261 0.158712, -3.0253 -0.259253, -2.98878  C-0.906514, -2.93415 -1.53267, -2.6612 -2.01323, -2.22417  C-2.60691, -1.69134 -2.97036, -0.912931 -2.99777, -0.115745  C-3.03062, 0.657414 -2.74771, 1.43765 -2.22702, 2.01007  C-1.773, 2.5158 -1.14194, 2.8581 -0.470433, 2.96289  C-0.213294, 3.00356 0.0447822, 3.0108 0.303795, 2.98458  C0.880785, 2.92683 1.43898, 2.69656 1.88887, 2.3307  C2.58493, 1.77322 3.00516, 0.891695 3, 1.96474e-11 " /><path d="M3, 4.02522e-12 C3.00396, -0.831834 2.64045, -1.65644 2.02366, -2.21468  C1.39783, -2.79238 0.51762, -3.0795 -0.328438, -2.98197  C-0.994105, -2.91037 -1.63171, -2.60691 -2.10708, -2.13547  C-2.67441, -1.58031 -3.00371, -0.792194 -3, 0.00156514  C-3.00276, 0.786753 -2.67994, 1.5664 -2.12283, 2.11981  C-1.65186, 2.59384 -1.01806, 2.90176 -0.354318, 2.979  C0.482661, 3.08275 1.3566, 2.80998 1.98599, 2.24852  C2.62509, 1.68973 3.00427, 0.848864 3, 3.04201e-12 " /><path d="M3, 3.24722e-11 C3.00234, -0.726127 2.72821, -1.4485 2.24473, -1.99027  C1.90513, -2.37419 1.46518, -2.66825 0.980574, -2.83522  C0.583806, -2.97273 0.157954, -3.0254 -0.26036, -2.98868  C-0.913714, -2.93334 -1.5454, -2.65539 -2.0276, -2.21107  C-2.61881, -1.67353 -2.97737, -0.891077 -2.99858, -0.0923808  C-3.02511, 0.674694 -2.74124, 1.4464 -2.22398, 2.01343  C-1.77467, 2.5123 -1.15292, 2.85165 -0.490279, 2.95967  C-0.224915, 3.00346 0.0415365, 3.01158 0.309075, 2.98404  C0.87918, 2.92592 1.43068, 2.69947 1.87712, 2.34018  C2.58002, 1.78311 3.00527, 0.896781 3, 2.58547e-11 " /><path d="M3, 5.06462e-12 C3.00396, -0.831833 2.64045, -1.65644 2.02366, -2.21468  C1.39784, -2.79237 0.517638, -3.0795 -0.328414, -2.98197  C-0.994689, -2.91031 -1.63284, -2.60637 -2.10836, -2.1342  C-2.67667, -1.57745 -3.00564, -0.786793 -2.99999, 0.00876777  C-3.0008, 0.788837 -2.68048, 1.56277 -2.12853, 2.11409  C-1.65565, 2.59267 -1.0172, 2.90317 -0.348766, 2.97966  C0.489608, 3.08201 1.36432, 2.80663 1.99288, 2.24241  C2.62791, 1.68368 3.00421, 0.845768 3, 4.11093e-12 " /><path d="M3, 4.00369e-11 C3.00234, -0.726129 2.72821, -1.44851 2.24473, -1.99028  C1.90512, -2.3742 1.46517, -2.66826 0.980557, -2.83523  C0.583449, -2.97285 0.157207, -3.02549 -0.261452, -2.98859  C-0.91278, -2.93317 -1.54252, -2.65655 -2.02397, -2.21439  C-2.61025, -1.68297 -2.96909, -0.911106 -2.99758, -0.120402  C-3.03198, 0.659022 -2.74522, 1.446 -2.21749, 2.02058  C-1.76839, 2.51597 -1.1488, 2.85264 -0.488808, 2.95991  C-0.223628, 3.00353 0.0426237, 3.01155 0.309947, 2.98395  C0.881938, 2.92548 1.43514, 2.69752 1.88226, 2.33604  C2.58217, 1.77878 3.00522, 0.894561 3, 3.25082e-11 " /><path d="M3, 6.24722e-12 C3.00396, -0.831833 2.64045, -1.65644 2.02366, -2.21468  C1.39785, -2.79237 0.51765, -3.07949 -0.328397, -2.98197  C-0.995069, -2.91028 -1.63358, -2.60601 -2.10919, -2.13338  C-2.67381, -1.57973 -3.00208, -0.795171 -3, -0.00440982  C-3.00434, 0.781469 -2.68247, 1.56244 -2.12558, 2.11705  C-1.6505, 2.59655 -1.00896, 2.90658 -0.338064, 2.98089  C0.494438, 3.0794 1.36154, 2.80597 1.98696, 2.24767  C2.62549, 1.68889 3.00427, 0.84843 3, 5.13145e-12 " /><path d="M3, 4.83951e-11 C3.00234, -0.726131 2.72821, -1.44851 2.24472, -1.99028  C1.90511, -2.37421 1.46516, -2.66827 0.98054, -2.83523  C0.583103, -2.97297 0.156484, -3.02557 -0.262508, -2.98849  C-0.912251, -2.93297 -1.54045, -2.65735 -2.02129, -2.21685  C-2.61466, -1.68043 -2.97555, -0.897913 -2.99839, -0.0984174  C-3.02646, 0.668602 -2.74414, 1.44088 -2.22803, 2.00895  C-1.77817, 2.51048 -1.15432, 2.85166 -0.489321, 2.95983  C-0.225883, 3.00321 0.0386493, 3.01145 0.304276, 2.98453  C0.88143, 2.92667 1.43975, 2.69619 1.88965, 2.33007  C2.58526, 1.77256 3.00515, 0.891355 3, 4.00699e-11 " /><path d="M3, 7.55485e-12 C3.00396, -0.831832 2.64045, -1.65644 2.02366, -2.21468  C1.39785, -2.79237 0.517658, -3.07949 -0.328386, -2.98197  C-0.995326, -2.91026 -1.63408, -2.60577 -2.10976, -2.13282  C-2.6722, -1.58097 -3.00003, -0.799942 -2.99998, -0.0119891  C-3.00631, 0.774535 -2.68586, 1.55695 -2.12954, 2.11307  C-1.65668, 2.59209 -1.01801, 2.90296 -0.349298, 2.9796  C0.487574, 3.08189 1.36076, 2.80788 1.98915, 2.24572  C2.62639, 1.68696 3.00425, 0.847443 3, 6.17617e-12 " /><path d="M3, 5.75373e-11 C3.00234, -0.726134 2.72821, -1.44852 2.24472, -1.99029  C1.90511, -2.37422 1.46514, -2.66827 0.980522, -2.83524  C0.582746, -2.97309 0.155738, -3.02566 -0.263597, -2.9884  C-0.90682, -2.93315 -1.52893, -2.66234 -2.00765, -2.2292  C-2.60513, -1.69572 -2.97096, -0.914009 -2.99785, -0.113543  C-3.03013, 0.659641 -2.74667, 1.43965 -2.22554, 2.0117  C-1.77776, 2.50963 -1.15834, 2.84902 -0.497677, 2.95843  C-0.224701, 3.00416 0.0493743, 3.01215 0.32455, 2.98239  C0.892506, 2.92151 1.44113, 2.6935 1.88493, 2.33389  C2.58329, 1.77654 3.00519, 0.893407 3, 4.84972e-11 " /><path d="M3, 8.99769e-12 C3.00396, -0.831831 2.64045, -1.65644 2.02366, -2.21467  C1.39786, -2.79236 0.517672, -3.07949 -0.328367, -2.98198  C-0.995734, -2.91022 -1.63488, -2.60539 -2.11066, -2.13193  C-2.67092, -1.58171 -2.9982, -0.803994 -2.99994, -0.0187298  C-3.00812, 0.770988 -2.68669, 1.55724 -2.12755, 2.11508  C-1.65879, 2.58898 -1.02765, 2.89798 -0.365858, 2.97761  C0.476915, 3.08548 1.35855, 2.81106 1.99124, 2.24388  C2.62724, 1.68513 3.00423, 0.846508 3, 7.59481e-12 " /><path d="M3, 6.75306e-11 C3.00234, -0.726136 2.7282, -1.44852 2.24471, -1.99029  C1.9051, -2.37422 1.46513, -2.66828 0.980505, -2.83524  C0.582412, -2.97321 0.155041, -3.02574 -0.264615, -2.98831  C-0.913589, -2.93238 -1.54092, -2.65689 -2.02123, -2.21689  C-2.61446, -1.68064 -2.97534, -0.898409 -2.99836, -0.0991358  C-3.02662, 0.667877 -2.74449, 1.44023 -2.22851, 2.00841  C-1.7807, 2.50788 -1.16039, 2.84848 -0.498611, 2.95827  C-0.232064, 3.00303 0.035659, 3.01177 0.304558, 2.9845  C0.878255, 2.92691 1.43335, 2.69883 1.8818, 2.33642  C2.58198, 1.77918 3.00522, 0.894757 3, 5.76033e-11 " /><path d="M3, 1.05509e-11 C3.00396, -0.831831 2.64045, -1.65644 2.02367, -2.21467  C1.39786, -2.79236 0.517676, -3.07949 -0.328361, -2.98198  C-0.995862, -2.91021 -1.63513, -2.60527 -2.11094, -2.13165  C-2.67118, -1.5813 -2.99837, -0.803456 -2.99995, -0.01812  C-3.00799, 0.773156 -2.68508, 1.56086 -2.12384, 2.1188  C-1.65516, 2.59095 -1.02503, 2.8986 -0.364491, 2.97778  C0.476799, 3.08504 1.35666, 2.81147 1.98882, 2.24602  C2.62625, 1.68725 3.00425, 0.847595 3, 9.04166e-12 " /><path d="M3, 7.83269e-11 C3.00234, -0.726138 2.7282, -1.44853 2.24471, -1.9903  C1.90509, -2.37423 1.46512, -2.66829 0.980489, -2.83525  C0.582081, -2.97332 0.154349, -3.02583 -0.265625, -2.98822  C-0.917204, -2.93186 -1.54686, -2.65411 -2.02779, -2.2109  C-2.62037, -1.67205 -2.97909, -0.887108 -2.99875, -0.0864749  C-3.02377, 0.68065 -2.73838, 1.4518 -2.22001, 2.01781  C-1.76641, 2.51951 -1.13808, 2.85883 -0.469784, 2.96299  C-0.213419, 3.00349 0.0438841, 3.01074 0.302124, 2.98475  C0.878643, 2.92737 1.4365, 2.69777 1.88639, 2.33271  C2.5839, 1.77531 3.00518, 0.892773 3, 6.74791e-11 " /><path d="M3, 1.22355e-11 C3.00396, -0.831831 2.64045, -1.65643 2.02367, -2.21467  C1.39786, -2.79236 0.517685, -3.07948 -0.32835, -2.98198  C-0.996096, -2.91019 -1.63558, -2.60505 -2.11145, -2.13114  C-2.67166, -1.58057 -2.99866, -0.802478 -2.99995, -0.0170129  C-3.00766, 0.771877 -2.68649, 1.55714 -2.12808, 2.11454  C-1.65296, 2.59521 -1.01076, 2.90616 -0.339024, 2.98078  C0.498466, 3.08023 1.37099, 2.80299 1.99749, 2.23831  C2.62979, 1.67963 3.00417, 0.843693 3, 1.05458e-11 " /><path d="M3, 8.99516e-11 C3.00234, -0.72614 2.7282, -1.44853 2.2447, -1.9903  C1.90508, -2.37424 1.46511, -2.6683 0.980472, -2.83526  C0.581742, -2.97344 0.153643, -3.02591 -0.266656, -2.98813  C-0.909754, -2.93222 -1.53152, -2.66083 -2.00978, -2.22728  C-2.60842, -1.69177 -2.97379, -0.906843 -2.99819, -0.104079  C-3.02804, 0.669201 -2.74209, 1.44834 -2.21918, 2.01872  C-1.77235, 2.5124 -1.15636, 2.8489 -0.499516, 2.95812  C-0.231236, 3.00325 0.0382136, 3.01189 0.308834, 2.98406  C0.87932, 2.92596 1.43119, 2.69928 1.87781, 2.33962  C2.58031, 1.78253 3.00526, 0.896483 3, 7.82254e-11 " /><path d="M3, 1.40612e-11 C3.00396, -0.83183 2.64045, -1.65643 2.02367, -2.21467  C1.39786, -2.79235 0.517692, -3.07948 -0.32834, -2.98198  C-0.99629, -2.91017 -1.63596, -2.60486 -2.11188, -2.13072  C-2.67205, -1.57996 -2.99891, -0.801671 -2.99996, -0.0161008  C-3.00738, 0.770733 -2.68773, 1.5539 -2.13176, 2.11083  C-1.66239, 2.58727 -1.0292, 2.89797 -0.365158, 2.97769  C0.47589, 3.08512 1.35559, 2.81192 1.98783, 2.24689  C2.62585, 1.68812 3.00426, 0.848038 3, 1.21876e-11 " /><path d="M3, 1.02363e-10 C3.00234, -0.726143 2.7282, -1.44853 2.2447, -1.99031  C1.90508, -2.37424 1.46509, -2.6683 0.980455, -2.83526  C0.581409, -2.97355 0.152948, -3.02599 -0.267671, -2.98803  C-0.911606, -2.93184 -1.53407, -2.65958 -2.01244, -2.22488  C-2.60793, -1.69084 -2.97194, -0.909788 -2.99797, -0.110407  C-3.02944, 0.662809 -2.74515, 1.44254 -2.22344, 2.01403  C-1.77098, 2.51618 -1.14374, 2.85646 -0.476109, 2.96198  C-0.209279, 3.0047 0.0584529, 3.01141 0.327088, 2.98212  C0.895397, 2.92071 1.4442, 2.69194 1.88786, 2.33152  C2.58451, 1.77407 3.00517, 0.892131 3, 9.00298e-11 " /><path d="M3, 1.60059e-11 C3.00396, -0.83183 2.64046, -1.65643 2.02367, -2.21467  C1.39787, -2.79235 0.517702, -3.07948 -0.328326, -2.98198  C-0.996573, -2.91015 -1.63651, -2.6046 -2.1125, -2.1301  C-2.67262, -1.57908 -2.99926, -0.800495 -2.99996, -0.0147734  C-3.00712, 0.775921 -2.68383, 1.56269 -2.12272, 2.11992  C-1.65155, 2.59411 -1.01743, 2.90204 -0.35342, 2.97911  C0.484532, 3.08273 1.3594, 2.80893 1.98879, 2.24604  C2.62624, 1.68728 3.00425, 0.847607 3, 1.40374e-11 " /><path d="M3, 1.15593e-10 C3.00234, -0.726145 2.7282, -1.44854 2.2447, -1.99031  C1.90507, -2.37425 1.46508, -2.66831 0.980438, -2.83527  C0.581081, -2.97366 0.152262, -3.02608 -0.268671, -2.98795  C-0.914618, -2.93137 -1.53886, -2.65733 -2.0177, -2.22011  C-2.60818, -1.68797 -2.96968, -0.912503 -2.99767, -0.118186  C-3.03115, 0.654947 -2.74889, 1.4354 -2.22866, 2.00826  C-1.77952, 2.50929 -1.1568, 2.85044 -0.492785, 2.95925  C-0.224312, 3.00378 0.0452476, 3.0118 0.315894, 2.98332  C0.887192, 2.92377 1.4394, 2.69512 1.88557, 2.33337  C2.58356, 1.776 3.00519, 0.893127 3, 1.02444e-10 " /><path d="M3, 1.80731e-11 C3.00396, -0.831829 2.64046, -1.65643 2.02367, -2.21467  C1.39787, -2.79235 0.517709, -3.07948 -0.328317, -2.98198  C-0.996758, -2.91013 -1.63687, -2.60442 -2.11291, -2.1297  C-2.67299, -1.5785 -2.9995, -0.799731 -2.99997, -0.0139124  C-3.0068, 0.772288 -2.68712, 1.5546 -2.13156, 2.11103  C-1.66028, 2.58935 -1.02383, 2.90052 -0.356905, 2.97869  C0.483891, 3.08371 1.36225, 2.80852 1.99283, 2.24246  C2.62789, 1.68373 3.00421, 0.845792 3, 1.59419e-11 " /><path d="M3, 1.80784e-11 C3.00507, 0.873745 2.60102, 1.73848 1.93236, 2.29477 " /><path d="M1.93236 2.29477 A3 3 0 0 1 1.53497 2.57757" /><path d="M1.53497, 2.57757 C1.03809, 2.87454 0.456244, 3.02119 -0.117747, 2.99769  C-0.774778, 2.97337 -1.41804, 2.72509 -1.9197, 2.30537 " /><path d="M-1.9197, 2.30537 C-2.10233, 2.15425 -2.26606, 1.97707 -2.38708, 1.8171  C-2.45336, 1.73059 -2.50972, 1.6436 -2.50996, 1.6432 " /><path d="M-2.50996, 1.6432 C-2.50873, 1.64546 -2.4951, 1.66574 -2.46905, 1.70405  C-2.43362, 1.75552 -2.38324, 1.82448 -2.32675, 1.89374  C-2.21366, 2.03307 -2.07414, 2.17715 -1.91957, 2.30548 " /><path d="M-1.91957, 2.30548 C-1.46062, 2.68892 -0.884809, 2.92967 -0.287571, 2.98619  C0.0706465, 3.02082 0.435881, 2.99028 0.785082, 2.89545  C1.46357, 2.71375 2.07702, 2.28155 2.47707, 1.69237  C2.815, 1.19991 3.00118, 0.601389 3, 1.15596e-10 " /><path d="M1.93236, 2.29477 Q1.74435, 2.45144 1.53497, 2.57757 " /><circle cx ="0" cy ="0" r ="3" /><path d="M4.82919, -0.83 Q5.16011, -0.83 5.53815, -0.83 " /><path d="M-5.53815 -0.83 A5.6 5.6 0 0 1 5.53815 -0.83" /><path d="M-5.53815, -0.83 Q-5.16011, -0.83 -4.82919, -0.83 " /><path d="M-5.53815, 0.83 Q-5.16011, 0.83 -4.82919, 0.83 " /><path d="M5.53815 0.83 A5.6 5.6 0 0 1 -5.53815 0.83" /><path d="M4.82919, 0.83 Q5.16011, 0.83 5.53815, 0.83 " /><path id= "54" d=" M -4.82919 0.83 L 4.82919 0.83 " />
<path id= "55" d=" M -4.82919 -0.83 L 4.82919 -0.83 " />
</g>
<g   fill="none"
   stroke="rgb(165, 165, 165)"
   stroke-dasharray="1.2,0.8"
   stroke-linecap="butt"
   stroke-linejoin="miter"
   stroke-width="0.25"
   transform="scale(1, -1)"
  >
<path d="M2.38657, 2.48439e-07 C2.38737, -0.464604 2.24807, -0.928183 1.99133, -1.31541  C1.74673, -1.68691 1.39571, -1.98715 0.99077, -2.1712  C0.546211, -2.37513 0.0381892, -2.43682 -0.442259, -2.34524  C-0.960936, -2.24875 -1.44398, -1.97363 -1.79156, -1.57673  C-2.15699, -1.16385 -2.37099, -0.620868 -2.38556, -0.0696891  C-2.40422, 0.506443 -2.20394, 1.08602 -1.83356, 1.5277  C-1.50378, 1.92535 -1.04114, 2.21006 -0.537547, 2.32525  C-0.068995, 2.43449 0.432287, 2.39681 0.879232, 2.21871 " /><path d="M2.38657, 3.72657e-07 C2.38739, -0.467007 2.24661, -0.932964 1.98736, -1.3214  C1.75084, -1.67815 1.41614, -1.96881 1.02976, -2.15299  C0.567415, -2.37542 0.032379, -2.44203 -0.470392, -2.33976  C-0.978652, -2.23881 -1.45061, -1.96616 -1.79196, -1.57629  C-2.16631, -1.15327 -2.38128, -0.593628 -2.38641, -0.028774  C-2.39449, 0.518387 -2.20608, 1.06564 -1.86285, 1.49183  C-1.44483, 2.01915 -0.794476, 2.35229 -0.122291, 2.38343  C0.395289, 2.41122 0.92013, 2.26353 1.34728, 1.96992  C1.75325, 1.69345 2.06944, 1.28806 2.23872, 0.826979  C2.33688, 0.560063 2.38617, 0.284404 2.38657, 2.48439e-07 " /><path d="M2.38657, 4.96875e-07 C2.38739, -0.467008 2.24661, -0.932965 1.98736, -1.3214  C1.75085, -1.67815 1.41614, -1.96882 1.02977, -2.15299  C0.567421, -2.37542 0.0323898, -2.44203 -0.470379, -2.33977  C-0.978632, -2.23882 -1.45059, -1.96618 -1.79194, -1.57632  C-2.16685, -1.15269 -2.38189, -0.592033 -2.38644, -0.026349  C-2.39398, 0.521241 -2.20471, 1.06872 -1.86054, 1.4947  C-1.43829, 2.02582 -0.779991, 2.35885 -0.101954, 2.38439  C0.462084, 2.41022 1.03243, 2.22639 1.47521, 1.87603  C2.04486, 1.43362 2.39094, 0.721256 2.38657, 3.72657e-07 " /><path d="M2.38658, 6.21093e-07 C2.38739, -0.467008 2.24661, -0.932965 1.98737, -1.3214  C1.75085, -1.67816 1.41615, -1.96882 1.02977, -2.15299  C0.567432, -2.37542 0.0324089, -2.44203 -0.470353, -2.33978  C-0.978596, -2.23884 -1.45054, -1.96621 -1.7919, -1.57637  C-2.1678, -1.15166 -2.38296, -0.589189 -2.38649, -0.0220292  C-2.39305, 0.526273 -2.20228, 1.07409 -1.85652, 1.49969  C-1.41229, 2.05623 -0.707966, 2.39194 0.00411062, 2.38657  C0.569948, 2.38732 1.13273, 2.17739 1.55985, 1.80626  C2.08008, 1.36171 2.39016, 0.684291 2.38657, 4.96875e-07 " /><path d="M2.38658, 7.4531e-07 C2.3874, -0.467008 2.24661, -0.932966 1.98737, -1.32141  C1.75085, -1.67816 1.41615, -1.96882 1.02977, -2.15299  C0.567434, -2.37542 0.0324129, -2.44203 -0.470349, -2.33978  C-0.97859, -2.23884 -1.45054, -1.96622 -1.79189, -1.57638  C-2.16795, -1.1515 -2.38313, -0.588744 -2.38649, -0.0213503  C-2.3929, 0.527058 -2.2019, 1.07493 -1.8559, 1.50046  C-1.41083, 2.05761 -0.705007, 2.39314 0.00805725, 2.38656  C0.560747, 2.38627 1.11037, 2.18536 1.53295, 1.82915  C2.06897, 1.38489 2.3904, 0.696188 2.38658, 6.21093e-07 " /><path d="M2.38658, 8.69527e-07 C2.3874, -0.467009 2.24662, -0.932967 1.98737, -1.32141  C1.75085, -1.67816 1.41615, -1.96882 1.02977, -2.15299  C0.567425, -2.37543 0.0323941, -2.44203 -0.470374, -2.33978  C-0.978627, -2.23883 -1.45058, -1.96619 -1.79193, -1.57633  C-2.16705, -1.15248 -2.38212, -0.591444 -2.38646, -0.0254507  C-2.39379, 0.522295 -2.2042, 1.06985 -1.8597, 1.49576  C-1.436, 2.02812 -0.775021, 2.36108 -0.0950335, 2.38469  C0.480905, 2.40949 1.06262, 2.21535 1.50821, 1.84961  C2.05869, 1.40594 2.39063, 0.707 2.38658, 7.45311e-07 " /><path d="M2.38658, 9.93743e-07 C2.3874, -0.467009 2.24662, -0.932968 1.98737, -1.32141  C1.75085, -1.67816 1.41615, -1.96882 1.02977, -2.153  C0.567425, -2.37543 0.0323924, -2.44204 -0.470377, -2.33978  C-0.978632, -2.23883 -1.45059, -1.96619 -1.79194, -1.57633  C-2.16697, -1.15258 -2.38202, -0.591711 -2.38645, -0.0258563  C-2.39388, 0.521821 -2.20444, 1.06934 -1.86009, 1.49528  C-1.43703, 2.0271 -0.777242, 2.36009 -0.0981212, 2.38456  C0.488931, 2.41071 1.08211, 2.20899 1.53151, 1.83037  C2.06837, 1.38613 2.39042, 0.696826 2.38658, 8.69527e-07 " /><path d="M2.38659, 1.11796e-06 C2.3874, -0.467009 2.24662, -0.932968 1.98737, -1.32141  C1.75086, -1.67816 1.41615, -1.96882 1.02977, -2.153  C0.56743, -2.37543 0.0324007, -2.44204 -0.470367, -2.33978  C-0.978616, -2.23884 -1.45057, -1.96621 -1.79192, -1.57635  C-2.16738, -1.15213 -2.38248, -0.590487 -2.38648, -0.0239953  C-2.39348, 0.523993 -2.20339, 1.07167 -1.85835, 1.49745  C-1.4324, 2.0317 -0.767308, 2.36448 -0.0843521, 2.38509  C0.491277, 2.4073 1.0717, 2.21086 1.51553, 1.84363  C2.06174, 1.39975 2.39057, 0.703819 2.38658, 9.93743e-07 " /><path d="M2.38659, 1.24217e-06 C2.3874, -0.46701 2.24662, -0.932969 1.98738, -1.32141  C1.75086, -1.67816 1.41615, -1.96882 1.02977, -2.153  C0.567435, -2.37543 0.0324109, -2.44204 -0.470353, -2.33979  C-0.978598, -2.23885 -1.45055, -1.96622 -1.7919, -1.57638  C-2.16787, -1.15161 -2.38303, -0.58903 -2.3865, -0.021782  C-2.393, 0.526561 -2.20215, 1.0744 -1.85631, 1.49998  C-1.41172, 2.0568 -0.706762, 2.39245 0.00574253, 2.38658  C0.55335, 2.38678 1.0982, 2.19018 1.5195, 1.84035  C2.06339, 1.39638 2.39053, 0.702086 2.38659, 1.11796e-06 " /><path d="M2.38659, 1.36639e-06 C2.38741, -0.46701 2.24663, -0.93297 1.98738, -1.32141  C1.75086, -1.67816 1.41616, -1.96883 1.02977, -2.153  C0.567435, -2.37543 0.0324088, -2.44204 -0.470357, -2.33979  C-0.978603, -2.23885 -1.45055, -1.96622 -1.79191, -1.57638  C-2.16778, -1.15171 -2.38293, -0.589304 -2.3865, -0.0221982  C-2.3931, 0.52608 -2.20238, 1.07389 -1.85669, 1.49951  C-1.42815, 2.03588 -0.758307, 2.3684 -0.071974, 2.3855  C0.512593, 2.4051 1.1008, 2.19897 1.54526, 1.81878  C2.07407, 1.37433 2.3903, 0.690762 2.38659, 1.24217e-06 " /><path d="M2.38659, 1.4906e-06 C2.38741, -0.46701 2.24663, -0.93297 1.98738, -1.32141  C1.75086, -1.67817 1.41616, -1.96883 1.02978, -2.153  C0.567438, -2.37543 0.0324147, -2.44204 -0.470349, -2.33979  C-0.978592, -2.23886 -1.45054, -1.96623 -1.7919, -1.57639  C-2.168, -1.15147 -2.38319, -0.58864 -2.38651, -0.0211874  C-2.39288, 0.527249 -2.20182, 1.07513 -1.85577, 1.50066  C-1.41053, 2.05789 -0.704452, 2.39337 0.00877662, 2.38658  C0.562816, 2.38612 1.11369, 2.18404 1.53659, 1.82611  C2.07049, 1.38179 2.39038, 0.694595 2.38659, 1.36639e-06 " /><path d="M2.3866, 1.61482e-06 C2.38741, -0.467011 2.24663, -0.932971 1.98738, -1.32141  C1.75086, -1.67817 1.41616, -1.96883 1.02978, -2.15301  C0.567437, -2.37544 0.032411, -2.44205 -0.470355, -2.33979  C-0.9786, -2.23886 -1.45055, -1.96623 -1.79191, -1.57639  C-2.16787, -1.15161 -2.38304, -0.589042 -2.38651, -0.0217973  C-2.39301, 0.526545 -2.20216, 1.07439 -1.85633, 1.49997  C-1.41176, 2.05677 -0.706838, 2.39243 0.00564316, 2.38659  C0.552933, 2.38681 1.09748, 2.19046 1.51869, 1.84103  C2.06306, 1.39707 2.39055, 0.702442 2.38659, 1.4906e-06 " /><path d="M2.3866, 1.73903e-06 C2.38741, -0.467011 2.24663, -0.932972 1.98738, -1.32142  C1.75086, -1.67817 1.41616, -1.96883 1.02978, -2.15301  C0.567437, -2.37544 0.0324102, -2.44205 -0.470356, -2.3398  C-0.978603, -2.23886 -1.45056, -1.96623 -1.79191, -1.57638  C-2.16783, -1.15166 -2.383, -0.589162 -2.38651, -0.0219801  C-2.39306, 0.526334 -2.20227, 1.07416 -1.8565, 1.49976  C-1.41219, 2.05636 -0.707729, 2.39206 0.00444028, 2.38659  C0.54687, 2.38704 1.08676, 2.19454 1.50653, 1.851  C2.05799, 1.40738 2.39067, 0.70774 2.3866, 1.61482e-06 " /><path d="M2.3866, 1.86325e-06 C2.38742, -0.467011 2.24663, -0.932973 1.98739, -1.32142  C1.75087, -1.67817 1.41616, -1.96883 1.02978, -2.15301  C0.567437, -2.37544 0.0324088, -2.44205 -0.470359, -2.3398  C-0.978607, -2.23886 -1.45056, -1.96623 -1.79191, -1.57638  C-2.16776, -1.15174 -2.38292, -0.589379 -2.38651, -0.0223078  C-2.39313, 0.525956 -2.20245, 1.07376 -1.8568, 1.49939  C-1.42841, 2.03564 -0.758843, 2.36818 -0.0727044, 2.38549  C0.507573, 2.40508 1.09157, 2.20239 1.53493, 1.82752  C2.0698, 1.38322 2.3904, 0.695329 2.3866, 1.73903e-06 " /><path d="M2.3866, 1.98746e-06 C2.38742, -0.467012 2.24664, -0.932974 1.98739, -1.32142  C1.75087, -1.67817 1.41616, -1.96884 1.02978, -2.15301  C0.567439, -2.37544 0.0324117, -2.44205 -0.470355, -2.3398  C-0.978602, -2.23886 -1.45055, -1.96624 -1.79191, -1.57639  C-2.16789, -1.15161 -2.38306, -0.589012 -2.38651, -0.0217486  C-2.39301, 0.526603 -2.20214, 1.07445 -1.85629, 1.50003  C-1.41165, 2.05688 -0.706601, 2.39253 0.00596605, 2.38659  C0.55429, 2.38675 1.09982, 2.18956 1.52132, 1.83887  C2.06416, 1.39484 2.39053, 0.701297 2.3866, 1.86325e-06 " /><path d="M2.3866, 2.11167e-06 C2.38742, -0.467012 2.24664, -0.932974 1.98739, -1.32142  C1.75087, -1.67817 1.41616, -1.96884 1.02978, -2.15301  C0.567441, -2.37544 0.0324147, -2.44206 -0.470352, -2.3398  C-0.978598, -2.23887 -1.45055, -1.96624 -1.79191, -1.5764  C-2.168, -1.15149 -2.38318, -0.588693 -2.38652, -0.0212621  C-2.39291, 0.527166 -2.20187, 1.07505 -1.85584, 1.50058  C-1.41068, 2.05778 -0.70471, 2.39328 0.00844996, 2.38659  C0.561888, 2.38621 1.1122, 2.18465 1.53497, 1.8275  C2.06982, 1.38319 2.39041, 0.695317 2.3866, 1.98746e-06 " /><path d="M-2.50996, 1.6432 C-2.16046, 2.10744 -1.65802, 2.45373 -1.09978, 2.61513  C-0.632384, 2.75207 -0.128137, 2.75991 0.343296, 2.63757  C0.990827, 2.47277 1.57036, 2.05896 1.93642, 1.49998  C2.22887, 1.0583 2.3875, 0.529713 2.3866, 2.11167e-06 " /></g>
<g   fill="none"
   stroke="rgb(0, 0, 0)"
   stroke-linecap="butt"
   stroke-linejoin="miter"
   stroke-width="0.35"
   transform="scale(1, -1)"
  >
<path d="M4.82919 -0.83 A4.9 4.9 0 0 1 4.9 -1.20015e-15" /><path d="M-4.82919 0.83 A4.9 4.9 0 0 1 -4.82919 -0.83" /><path d="M4.9 0 A4.9 4.9 0 0 1 4.82919 0.83" /><path id= "4" d=" M 5.53815 0.83 L -5.53815 0.83 " />
<path d="M5.53815 0.83 A5.6 5.6 0 0 1 -5.53815 0.83" /><path id= "6" d=" M 5.53815 -0.83 L -5.53815 -0.83 " />
<path d="M-5.53815 -0.83 A5.6 5.6 0 0 1 5.53815 -0.83" /></g>

</svg>
