<svg xmlns="http://www.w3.org/2000/svg" viewBox="-8.5281384 -8.214618399999999 12.9549968 13.964056800000002">
<rect width="100%" height="100%" fill="white"/>
<g   fill="none"
   stroke="rgb(0, 0, 0)"
   stroke-linecap="butt"
   stroke-linejoin="miter"
   stroke-width="0.35"
   transform="scale(1, -1)"
  >
<path id= "1" d=" M -0.967323 6.32621 L -2.5701 7.25158 " />
<path id= "2" d=" M -5.96232 -2.32538 L -7.5651 -1.40002 " />
<path d="M-2.5701, 7.25158 C-2.96471, 7.4804 -3.42811, 7.58113 -3.90093, 7.55403  C-4.06603, 7.54477 -4.23195, 7.52113 -4.3987, 7.4831  C-4.8164, 7.38813 -5.23475, 7.20605 -5.63937, 6.95199  C-6.48818, 6.42085 -7.27967, 5.56126 -7.85717, 4.56617  C-8.44977, 3.54974 -8.80952, 2.40664 -8.84108, 1.38516  C-8.85717, 0.916016 -8.80426, 0.479558 -8.68236, 0.0757882  C-8.63186, -0.0893291 -8.5691, -0.246418 -8.49408, -0.395479  C-8.28112, -0.819945 -7.96158, -1.17211 -7.5651, -1.40002 " /></g>
<g   fill="none"
   stroke="rgb(0, 0, 0)"
   stroke-linecap="butt"
   stroke-linejoin="miter"
   stroke-width="0.35"
   transform="scale(1, -1)"
  >
<path d="M3.45 2.12426 A5.525 3.18986 60 0 1 3.46382 2.51131" />
<path d="M1.78783, -2.15974 L1.97053, -1.87049  L2.14099, -1.58357  L2.29994, -1.29775  L2.44803, -1.01185  L2.5859, -0.724641  L2.71412, -0.434926  L2.83324, -0.141481  L2.94376, 0.15693  L3.04614, 0.461565  L3.14082, 0.773708  L3.22819, 1.09467  L3.30862, 1.42582  L3.38245, 1.76853  L3.45, 2.12426 " /><path d="M1.21922 -2.86709 A5.525 3.18986 60 0 1 1.78783 -2.15974" />
<path d="M-2.10512, -4.7864 L-1.7973, -4.67516  L-1.50468, -4.56201  L-1.22605, -4.44647  L-0.960225, -4.32806  L-0.706084, -4.20627  L-0.462558, -4.08059  L-0.228619, -3.95049  L-0.00328282, -3.81543  L0.214401, -3.67483  L0.425349, -3.5281  L0.630451, -3.37462  L0.830571, -3.21375  L1.02655, -3.04481  L1.21922, -2.86709 " /><path d="M-2.67373 -4.73562 A5.525 3.18986 60 0 1 -2.10512 -4.7864" />
<path d="M3.45, 2.8824 Q3.38422, 3.02685 3.30862, 3.17305  Q3.23013, 3.32 3.14082, 3.47062  Q3.09348, 3.54709 3.04614, 3.62356  Q2.99495, 3.70185 2.94376, 3.78014  Q2.8885, 3.86057 2.83324, 3.941  Q2.77368, 4.02392 2.71412, 4.10683  Q2.65001, 4.19258 2.5859, 4.27833  Q2.51696, 4.36727 2.44803, 4.45621  Q2.37398, 4.54872 2.29994, 4.64123  Q2.22046, 4.7377 2.14099, 4.83417  Q2.05576, 4.935 1.97053, 5.03584  Q1.87918, 5.14146 1.78783, 5.24709 " /><path d="M3.46382 2.51131 A5.525 3.18986 60 0 1 3.45 2.8824" />
<path id= "8" d=" M 3.45 2.8824 L 0.642455 4.50334 " />
<path d="M0.656272 4.13224 A5.525 3.18986 60 0 1 0.642455 4.50334" />
<path d="M-1.01972, 6.86802 Q-0.985672, 6.79549 -0.951628, 6.72295  Q-0.879165, 6.57728 -0.796536, 6.42898  Q-0.710905, 6.27968 -0.614, 6.12579  Q-0.562749, 6.04747 -0.511497, 5.96914  Q-0.456218, 5.8887 -0.400939, 5.80826  Q-0.341399, 5.72535 -0.28186, 5.64245  Q-0.217809, 5.55674 -0.153758, 5.47103  Q-0.0849252, 5.38214 -0.0160928, 5.29326  Q0.0578112, 5.20083 0.131715, 5.1084  Q0.211002, 5.01204 0.290289, 4.91568  Q0.375293, 4.81498 0.460297, 4.71427  Q0.551376, 4.60881 0.642455, 4.50334 " /><path id= "11" d=" M 1.78783 5.24709 L -1.01972 6.86802 " />
<path d="M-1.01972 6.86802 A5.525 3.18986 60 0 1 -1.58832 6.91881" />
<path d="M-1.83783, 6.8288 Q-1.71566, 6.87406 -1.58832, 6.91881 " /><path d="M-5.48127, -3.11468 C-5.79736, -2.75234 -6.05972, -2.43332 -6.28232, -2.14063 " /><path id= "15" d=" M -2.67373 -4.73562 L -5.48127 -3.11468 " />
<path id= "16" d=" M -2.10512 -4.7864 L -4.91266 -3.16546 " />
<path d="M-5.48127 -3.11468 A5.525 3.18986 60 0 1 -4.91266 -3.16546" />
<path d="M-1.58832, -1.24616 L-1.8956, -1.35771  L-2.18776, -1.47112  L-2.46602, -1.58687  L-2.73156, -1.70545  L-2.9855, -1.82736  L-3.2289, -1.95311  L-3.4628, -2.08323  L-3.68818, -2.21827  L-3.90598, -2.3588  L-4.11714, -2.50542  L-4.32252, -2.65872  L-4.52301, -2.81938  L-4.71945, -2.98806  L-4.91266, -3.16546 " /><path id= "19" d=" M 1.21922 -2.86709 L -1.58832 -1.24616 " />
<path id= "20" d=" M 1.78783 -2.15974 L -1.01972 -0.5388 " />
<path d="M-1.58832 -1.24616 A5.525 3.18986 60 0 1 -1.01972 -0.5388" />
<path d="M0.642455, 3.7452 L0.460297, 3.45564  L0.290289, 3.16845  L0.131715, 2.88242  L-0.0160928, 2.59635  L-0.153758, 2.30903  L-0.28186, 2.01924  L-0.400939, 1.72577  L-0.511497, 1.42739  L-0.614, 1.12282  L-0.70888, 0.810797  L-0.796536, 0.489995  L-0.877339, 0.159067  L-0.951628, -0.183384  L-1.01972, -0.5388 " /><path id= "23" d=" M 3.45 2.12426 L 0.642455 3.7452 " />
<path d="M0.642455 3.7452 A5.525 3.18986 60 0 1 0.656272 4.13224" />
<path d="M0.0671751 4.03962 A4.995 2.88386 60 0 1 -0.967323 6.32621" />
<path d="M-5.96232 -2.32538 A4.995 2.88386 60 0 1 0.0671751 4.03962" />
<path d="M-3.55083, 3.25977 C-4.12948, 2.74257 -4.59399, 1.96501 -4.76513, 1.26146 " /><path d="M-3.43461, 3.64184 C-3.86631, 3.34227 -4.27035, 2.8882 -4.56066, 2.38648  C-4.82986, 1.92442 -5.00118, 1.42554 -5.04582, 0.990154 " /><path d="M-3.32428, 4.24423 C-3.93776, 4.03931 -4.58838, 3.45366 -5.0133, 2.74727  C-5.46356, 2.01441 -5.65165, 1.17885 -5.5088, 0.635183 " /><path d="M-3.3661, 4.41481 C-3.64877, 4.34769 -3.94674, 4.19912 -4.23072, 3.98567  C-4.62529, 3.69047 -4.99077, 3.26932 -5.2604, 2.80735  C-5.57075, 2.27952 -5.7517, 1.70269 -5.76468, 1.22597  C-5.77199, 0.961089 -5.73278, 0.73577 -5.64705, 0.550015 " /><path d="M-3.49791, 4.74358 C-3.87524, 4.75134 -4.30996, 4.58431 -4.71707, 4.2801  C-5.1014, 3.9949 -5.45899, 3.59007 -5.72778, 3.14333  C-6.04983, 2.61191 -6.24142, 2.02527 -6.26038, 1.53876  C-6.27999, 1.09662 -6.15916, 0.740137 -5.92921, 0.548861 " /><path d="M-3.56783, 4.85455 C-3.97856, 4.91223 -4.47661, 4.7422 -4.93842, 4.39347  C-5.33711, 4.09507 -5.706, 3.66804 -5.97637, 3.20038  C-6.28082, 2.67765 -6.45826, 2.10843 -6.4717, 1.63679  C-6.48874, 1.14462 -6.32809, 0.764126 -6.0398, 0.600327 " /><path d="M-6.0398, 0.600327 Q-5.89914, 0.519291 -5.72567, 0.50576 " /><path d="M-3.29983 4.62681 A3.33333 1.9245 60 0 1 -3.99019 6.15274" />
<path d="M-3.99019 6.15274 A3.33333 1.9245 60 0 1 -7.32352 0.379235" />
<path d="M-7.32352 0.379235 A3.33333 1.9245 60 0 1 -3.29983 4.62681" />
<path d="M-6.41323, 0.25158 Q-6.44363, 0.265986 -6.46886, 0.28136 " /><path d="M-3.76774, 5.05675 C-4.21657, 5.26702 -4.84648, 5.12274 -5.42381, 4.68862  C-5.6724, 4.50379 -5.91034, 4.26964 -6.11975, 4.00567 " /><path d="M-6.46886, 0.28136 C-6.82046, 0.492223 -7.0352, 0.93223 -7.05234, 1.49796  C-7.06959, 1.98313 -6.94017, 2.55717 -6.68658, 3.09864  C-6.53532, 3.42317 -6.34095, 3.73492 -6.11975, 4.00567 " /><path d="M-3.41413 4.55316 A2.5 1.44338 60 0 1 -3.84117 5.10445" />
<path d="M-3.84117 5.10445 A2.5 1.44338 60 0 1 -6.11975 4.00567" />
<path d="M-3.32265, 4.23585 Q-3.35521, 4.40574 -3.41413, 4.55316 " /><path d="M-3.73152 5.94757 A3.33333 1.9245 60 0 1 -7.0165 0.257809" />
<path d="M-3.31594, 4.29987 Q-3.35426, 4.43751 -3.41413, 4.55316 " /></g>

</svg>
