<svg xmlns="http://www.w3.org/2000/svg" viewBox="-8.884 -6.409000000000001 9.768 12.818000000000001">
<rect width="100%" height="100%" fill="white"/>
<g   fill="none"
   stroke="rgb(0, 0, 0)"
   stroke-linecap="butt"
   stroke-linejoin="miter"
   stroke-width="0.35"
   transform="scale(1, -1)"
  >
<path id= "1" d=" M -3.65181e-16 -4.44 L -0.626425 -5.525 " />
<path id= "2" d=" M -0.626425 -5.525 L -4.59689 -5.525 " />
<path id= "3" d=" M -4.9 -4.995 L -4.59689 -5.525 " />
<path id= "4" d=" M -4.9 -4.995 L -7.16667 -4.995 " />
<path d="M-7.16667, -4.995 C-7.29535, -4.99461 -7.41755, -4.96629 -7.53328, -4.91002  C-7.56861, -4.89271 -7.60253, -4.87301 -7.63507, -4.8509  C-7.86068, -4.70002 -8.00202, -4.43307 -8, -4.16167 " /></g>
<g   fill="none"
   stroke="rgb(0, 0, 0)"
   stroke-linecap="butt"
   stroke-linejoin="miter"
   stroke-width="0.35"
   transform="scale(1, -1)"
  >
<path d="M0, -4.44 L0, -4.32868  L0, -4.0003  L0, -3.47133  L0, -2.76829  L0, -1.92644  L0, -0.987993  L0, -7.77156e-16  L0, 0.987993  L0, 1.92644  L0, 2.76829  L0, 3.47133  L0, 4.0003  L0, 4.32868  L0, 4.44 " /><path id= "2" d=" M 0 4.44 L -0.626425 5.525 " />
<path d="M-0.626425, 5.50546 Q-0.626425, 5.52495 -0.626425, 5.525 " /><path d="M-0.626425, 3.15479 L-0.544997, 3.33175  L-0.476669, 3.50449  L-0.421153, 3.67375  L-0.378214, 3.84025  L-0.347673, 4.00469  L-0.329399, 4.16775  L-0.323316, 4.33013  L-0.329399, 4.49251  L-0.347673, 4.65557  L-0.378214, 4.82  L-0.421153, 4.9865  L-0.476669, 5.15576  L-0.544997, 5.32851  L-0.626425, 5.50546 " /><path d="M-0.626425, 2.35066 Q-0.626425, 2.77218 -0.626425, 3.15479 " /><path d="M-0.626425, -2.35066 L-0.544997, -1.99676  L-0.476669, -1.65127  L-0.421153, -1.31275  L-0.378214, -0.979749  L-0.347673, -0.650881  L-0.329399, -0.324756  L-0.323316, 5.55112e-17  L-0.329399, 0.324756  L-0.347673, 0.650881  L-0.378214, 0.979749  L-0.421153, 1.31275  L-0.476669, 1.65127  L-0.544997, 1.99676  L-0.626425, 2.35066 " /><path d="M-0.626425, -3.15479 Q-0.626425, -2.77218 -0.626425, -2.35066 " /><path d="M-0.626425, -5.50546 L-0.544997, -5.32851  L-0.476669, -5.15576  L-0.421153, -4.9865  L-0.378214, -4.82  L-0.347673, -4.65557  L-0.329399, -4.49251  L-0.323316, -4.33013  L-0.329399, -4.16775  L-0.347673, -4.00469  L-0.378214, -3.84025  L-0.421153, -3.67375  L-0.476669, -3.50449  L-0.544997, -3.33175  L-0.626425, -3.15479 " /><path d="M-0.626425, -5.525 Q-0.626425, -5.52495 -0.626425, -5.50546 " /><path id= "10" d=" M -0.626425 5.525 L -4.59689 5.525 " />
<path id= "11" d=" M -0.626425 -5.50546 L -4.59689 -5.50546 " />
<path d="M-4.59689, -5.525 Q-4.59689, -5.52495 -4.59689, -5.50546 " /><path d="M-4.59689, -3.15479 L-4.67755, -3.33175  L-4.74523, -3.50449  L-4.80023, -3.67375  L-4.84276, -3.84025  L-4.87301, -4.00469  L-4.89112, -4.16775  L-4.89714, -4.33013  L-4.89112, -4.49251  L-4.87301, -4.65557  L-4.84276, -4.82  L-4.80023, -4.9865  L-4.74523, -5.15576  L-4.67755, -5.32851  L-4.59689, -5.50546 " /><path id= "14" d=" M -0.626425 -3.15479 L -4.59689 -3.15479 " />
<path id= "15" d=" M -0.626425 -2.35066 L -4.59689 -2.35066 " />
<path d="M-4.59689, -3.15479 Q-4.59689, -2.77218 -4.59689, -2.35066 " /><path d="M-4.59689, 2.35066 L-4.67755, 1.99676  L-4.74523, 1.65127  L-4.80023, 1.31275  L-4.84276, 0.979749  L-4.87301, 0.650881  L-4.89112, 0.324756  L-4.89714, -1.11022e-16  L-4.89112, -0.324756  L-4.87301, -0.650881  L-4.84276, -0.979749  L-4.80023, -1.31275  L-4.74523, -1.65127  L-4.67755, -1.99676  L-4.59689, -2.35066 " /><path id= "18" d=" M -0.626425 2.35066 L -4.59689 2.35066 " />
<path id= "19" d=" M -0.626425 3.15479 L -4.59689 3.15479 " />
<path d="M-4.59689, 2.35066 Q-4.59689, 2.77218 -4.59689, 3.15479 " /><path d="M-4.59689, 5.50546 L-4.67755, 5.32851  L-4.74523, 5.15576  L-4.80023, 4.9865  L-4.84276, 4.82  L-4.87301, 4.65557  L-4.89112, 4.49251  L-4.89714, 4.33013  L-4.89112, 4.16775  L-4.87301, 4.00469  L-4.84276, 3.84025  L-4.80023, 3.67375  L-4.74523, 3.50449  L-4.67755, 3.33175  L-4.59689, 3.15479 " /><path id= "22" d=" M -0.626425 5.50546 L -4.59689 5.50546 " />
<path d="M-4.59689, 5.50546 Q-4.59689, 5.52495 -4.59689, 5.525 " /><path id= "24" d=" M -4.59689 5.525 L -4.9 4.995 " />
<path d="M-4.9, -4.995 L-4.9, -4.86976  L-4.9, -4.50034  L-4.9, -3.90525  L-4.9, -3.11433  L-4.9, -2.16725  L-4.9, -1.11149  L-4.9, -8.88178e-16  L-4.9, 1.11149  L-4.9, 2.16725  L-4.9, 3.11433  L-4.9, 3.90525  L-4.9, 4.50034  L-4.9, 4.86976  L-4.9, 4.995 " /><path id= "26" d=" M -4.9 4.995 L -7.16667 4.995 " />
<path d="M-7.16667 4.995 A0.833333 0.833333 0 0 1 -8 4.16167" /><path d="M-8, -4.16167 L-8, -4.05732  L-8, -3.74953  L-8, -3.25372  L-8, -2.59476  L-8, -1.80568  L-8, -0.926058  L-8, -7.77156e-16  L-8, 0.926058  L-8, 1.80568  L-8, 2.59476  L-8, 3.25372  L-8, 3.74953  L-8, 4.05732  L-8, 4.16167 " /></g>

</svg>
