<svg xmlns="http://www.w3.org/2000/svg" viewBox="-8.884 -6.409000000000001 9.768000000000328 12.818000000000001">
<rect width="100%" height="100%" fill="white"/>
<g   fill="none"
   stroke="rgb(165, 165, 165)"
   stroke-dasharray="1.2,0.8"
   stroke-linecap="butt"
   stroke-linejoin="miter"
   stroke-width="0.25"
   transform="scale(1, -1)"
  >
<path d="M-0.214285, 0.502509 C-0.201005, -0.000689485 -0.19383, -0.578656 -0.193667, -1.06314  C-0.193758, -1.25367 -0.195016, -1.43259 -0.199105, -1.56873  C-0.202049, -1.66693 -0.207084, -1.74261 -0.214284, -1.73604 " /><path d="M-0.214284, -1.73604 Q-0.357108, -1.61414 -0.5, -1.48437 " /><path d="M-0.5, -1.48445 Q-0.5, -1.54992 -0.5, -1.61539  Q-0.5, -1.7413 -0.5, -1.85511  Q-0.5, -1.90897 -0.5, -1.96282  Q-0.5, -2.0123 -0.5, -2.06178  Q-0.5, -2.10666 -0.5, -2.15155  Q-0.5, -2.19163 -0.5, -2.23172  Q-0.5, -2.26683 -0.5, -2.30194  Q-0.5, -2.33191 -0.5, -2.36189  Q-0.5, -2.3866 -0.5, -2.41131  Q-0.5, -2.43065 -0.5, -2.44998  Q-0.5, -2.46386 -0.5, -2.47773  Q-0.5, -2.48608 -0.5, -2.49443  Q-0.5, -2.49721 -0.5, -2.5 " /><path d="M-0.5, -2.5 Q-0.5, -2.49721 -0.5, -2.49443  Q-0.5, -2.48608 -0.5, -2.47773  Q-0.5, -2.46385 -0.5, -2.44998  Q-0.5, -2.43064 -0.5, -2.41131  Q-0.5, -2.38659 -0.5, -2.36188  Q-0.5, -2.3319 -0.5, -2.30192  Q-0.5, -2.26681 -0.5, -2.23169  Q-0.5, -2.19161 -0.5, -2.15152  Q-0.5, -2.10663 -0.5, -2.06174  Q-0.5, -2.01226 -0.5, -1.96278  Q-0.5, -1.90892 -0.5, -1.85506  Q-0.5, -1.74124 -0.5, -1.61532  Q-0.5, -1.54984 -0.5, -1.48437 " /><path d="M-0.325316, 2.8057 C-0.339852, 2.78104 -0.354546, 2.60974 -0.369409, 2.31615  C-0.383813, 2.0329 -0.398371, 1.63572 -0.413093, 1.18222  C-0.441425, 0.310856 -0.47037, -0.763871 -0.5, -1.48445 " /><path id= "6" d=" M -0.325316 2.8057 L 3.25712e-13 3.375 " />
<path d="M0, 3.375 L0, 3.29038  L0, 3.04077  L0, 2.63868  L0, 2.10428  L0, 1.46436  L0, 0.751008  L0, 2.22045e-16  L0, -0.751008  L0, -1.46436  L0, -2.10428  L0, -2.63868  L0, -3.04077  L0, -3.29038  L0, -3.375 " /><path d="M0, -3.375 L0, -3.29038  L0, -3.04077  L0, -2.63868  L0, -2.10428  L0, -1.46436  L0, -0.751008  L0, -6.66134e-16  L0, 0.751008  L0, 1.46436  L0, 2.10428  L0, 2.63868  L0, 3.04077  L0, 3.29038  L0, 3.375 " /><path d="M-0.325316, 2.8057 Q-0.321451, 2.81246 -0.3176, 2.80582 " /><path d="M-0.3176, 2.80582 C-0.301615, 2.77929 -0.285822, 2.57398 -0.270202, 2.22679  C-0.251311, 1.80918 -0.232678, 1.18516 -0.214285, 0.502509 " /><path d="M-0.5, -1.48437 C-0.551968, -0.828982 -0.603941, 0.0739422 -0.655914, 0.84298  C-0.686314, 1.29298 -0.716711, 1.69445 -0.747112, 1.9844  C-0.7818, 2.31706 -0.816495, 2.5013 -0.851174, 2.5 " /><path id= "12" d=" M -1.14882 2.5 L -0.851174 2.5 " />
<path d="M-0.5, -1.48445 C-0.543771, -2.04055 -0.587561, -2.41264 -0.631343, -2.48494 " /><path d="M-0.631343, -2.48494 Q-0.640083, -2.49999 -0.648822, -2.5 " /><path d="M-0.648822, -2.5 C-0.689702, -2.50247 -0.73058, -2.24339 -0.771463, -1.79372  C-0.803847, -1.43992 -0.836233, -0.971602 -0.868616, -0.471621  C-0.898687, -0.00769796 -0.928755, 0.481378 -0.958827, 0.920456  C-0.989778, 1.373 -1.02074, 1.7706 -1.05169, 2.04869  C-1.07824, 2.2912 -1.10479, 2.43662 -1.13134, 2.48494 " /><path d="M-1.13134, 2.48494 Q-1.14008, 2.49999 -1.14882, 2.5 " /><path d="M0, 4.44 L0, 4.32868  L0, 4.0003  L0, 3.47133  L0, 2.76829  L0, 1.92644  L0, 0.987993  L0, 2.22045e-16  L0, -0.987993  L0, -1.92644  L0, -2.76829  L0, -3.47133  L0, -4.0003  L0, -4.32868  L0, -4.44 " /><path d="M-0.851174, 2.5 Q-0.859913, 2.49999 -0.868653, 2.48494 " /><path d="M-0.868653, 2.48494 C-0.89947, 2.43268 -0.930279, 2.23615 -0.961097, 1.92702  C-1.01941, 1.34782 -1.07772, 0.353489 -1.13603, -0.54315  C-1.16898, -1.04898 -1.20194, -1.51714 -1.2349, -1.86198  C-1.27366, -2.27016 -1.31241, -2.502 -1.35117, -2.5 " /><path d="M-1.35117, -2.5 Q-1.35991, -2.49999 -1.36865, -2.48494 " /><path d="M-1.36865, -2.48494 C-1.40202, -2.42856 -1.4354, -2.20211 -1.46877, -1.84802  C-1.50281, -1.48863 -1.53684, -0.99853 -1.57088, -0.473012  C-1.62982, 0.43924 -1.68877, 1.43462 -1.74771, 1.99015  C-1.7822, 2.31923 -1.81669, 2.50127 -1.85117, 2.5 " /><path id= "22" d=" M -2.14881 2.5 L -1.85117 2.5 " />
<path d="M-1.14882, 2.5 C-1.18741, 2.50198 -1.22603, 2.27199 -1.26464, 1.86668  C-1.29386, 1.56174 -1.32308, 1.16013 -1.3523, 0.720259  C-1.41403, -0.21085 -1.47576, -1.29361 -1.53749, -1.91294  C-1.56877, -2.23011 -1.60006, -2.43192 -1.63134, -2.48494 " /><path d="M-1.63134, -2.48494 Q-1.64008, -2.49999 -1.64882, -2.5 " /><path d="M-1.64882, -2.5 C-1.6897, -2.50247 -1.73057, -2.24343 -1.77145, -1.79382  C-1.80383, -1.44012 -1.83621, -0.971945 -1.86858, -0.472095  C-1.8988, -0.00595621 -1.92901, 0.485599 -1.95923, 0.926343  C-1.98985, 1.37363 -2.02048, 1.76685 -2.0511, 2.04344  C-2.07785, 2.28905 -2.10459, 2.43622 -2.13134, 2.48494 " /><path d="M-2.13134, 2.48494 Q-2.14008, 2.49999 -2.14881, 2.5 " /><path d="M-0.626425, -5.50546 Q-0.626425, -5.52495 -0.626425, -5.525 " /><path d="M-0.626425, -3.15479 L-0.544997, -3.33175  L-0.476669, -3.50449  L-0.421153, -3.67375  L-0.378214, -3.84025  L-0.347673, -4.00469  L-0.329399, -4.16775  L-0.323316, -4.33013  L-0.329399, -4.49251  L-0.347673, -4.65557  L-0.378214, -4.82  L-0.421153, -4.9865  L-0.476669, -5.15576  L-0.544997, -5.32851  L-0.626425, -5.50546 " /><path d="M-0.626425, -2.35066 Q-0.626425, -2.77218 -0.626425, -3.15479 " /><path d="M-0.626425, 2.35066 L-0.544997, 1.99676  L-0.476669, 1.65127  L-0.421153, 1.31275  L-0.378214, 0.979749  L-0.347673, 0.650881  L-0.329399, 0.324756  L-0.323316, -2.22045e-16  L-0.329399, -0.324756  L-0.347673, -0.650881  L-0.378214, -0.979749  L-0.421153, -1.31275  L-0.476669, -1.65127  L-0.544997, -1.99676  L-0.626425, -2.35066 " /><path d="M-0.626425, 3.15479 Q-0.626425, 2.77218 -0.626425, 2.35066 " /><path d="M-0.626425, 5.50546 L-0.544997, 5.32851  L-0.476669, 5.15576  L-0.421153, 4.9865  L-0.378214, 4.82  L-0.347673, 4.65557  L-0.329399, 4.49251  L-0.323316, 4.33013  L-0.329399, 4.16775  L-0.347673, 4.00469  L-0.378214, 3.84025  L-0.421153, 3.67375  L-0.476669, 3.50449  L-0.544997, 3.33175  L-0.626425, 3.15479 " /><path d="M-0.626425, 5.525 Q-0.626425, 5.52495 -0.626425, 5.50546 " /><path d="M-1.85117, 2.5 Q-1.85991, 2.49999 -1.86865, 2.48494 " /><path d="M-1.86865, 2.48494 C-1.89947, 2.43267 -1.93028, 2.23616 -1.96109, 1.92702  C-2.01941, 1.34785 -2.07771, 0.353577 -2.13602, -0.543037  C-2.16897, -1.04885 -2.20193, -1.51701 -2.23489, -1.86187  C-2.27365, -2.27011 -2.31241, -2.502 -2.35117, -2.5 " /><path d="M-2.35117, -2.5 Q-2.35991, -2.49999 -2.36865, -2.48494 " /><path d="M-2.36865, -2.48494 C-2.40207, -2.42847 -2.4355, -2.20142 -2.46892, -1.84643  C-2.50244, -1.49208 -2.53596, -1.01113 -2.56948, -0.494453  C-2.6291, 0.426582 -2.68871, 1.43708 -2.74832, 1.99589  C-2.7826, 2.32139 -2.81689, 2.50124 -2.85117, 2.5 " /><path id= "38" d=" M -3.14881 2.5 L -2.85117 2.5 " />
<path d="M-2.14881, 2.5 C-2.18716, 2.50193 -2.22554, 2.27497 -2.2639, 1.87436  C-2.29333, 1.56889 -2.32275, 1.16492 -2.35218, 0.722036  C-2.41369, -0.20556 -2.47521, -1.28439 -2.53672, -1.90519  C-2.56826, -2.22678 -2.5998, -2.43151 -2.63134, -2.48494 " /><path d="M-2.63134, -2.48494 Q-2.64008, -2.49999 -2.64881, -2.5 " /><path d="M-2.64881, -2.5 C-2.68927, -2.50237 -2.72972, -2.2489 -2.77018, -1.80767  C-2.80281, -1.45412 -2.83545, -0.983307 -2.86808, -0.47976  C-2.89877, -0.00654127 -2.92946, 0.493326 -2.96016, 0.939968  C-2.99049, 1.38195 -3.02083, 1.77017 -3.05116, 2.044  C-3.07789, 2.28928 -3.10461, 2.43626 -3.13133, 2.48494 " /><path d="M-3.13133, 2.48494 Q-3.14007, 2.49999 -3.14881, 2.5 " /><path id= "43" d=" M -0.626425 5.50546 L -4.59689 5.50546 " />
<path d="M-4.59689, 5.525 Q-4.59689, 5.52495 -4.59689, 5.50546 " /><path d="M-4.59689, 3.15479 L-4.67755, 3.33175  L-4.74523, 3.50449  L-4.80023, 3.67375  L-4.84276, 3.84025  L-4.87301, 4.00469  L-4.89112, 4.16775  L-4.89714, 4.33013  L-4.89112, 4.49251  L-4.87301, 4.65557  L-4.84276, 4.82  L-4.80023, 4.9865  L-4.74523, 5.15576  L-4.67755, 5.32851  L-4.59689, 5.50546 " /><path id= "46" d=" M -0.626425 3.15479 L -4.59689 3.15479 " />
<path id= "47" d=" M -0.626425 2.35066 L -4.59689 2.35066 " />
<path d="M-4.59689, 3.15479 Q-4.59689, 2.77218 -4.59689, 2.35066 " /><path d="M-4.59689, -2.35066 L-4.67755, -1.99676  L-4.74523, -1.65127  L-4.80023, -1.31275  L-4.84276, -0.979749  L-4.87301, -0.650881  L-4.89112, -0.324756  L-4.89714, -3.33067e-16  L-4.89112, 0.324756  L-4.87301, 0.650881  L-4.84276, 0.979749  L-4.80023, 1.31275  L-4.74523, 1.65127  L-4.67755, 1.99676  L-4.59689, 2.35066 " /><path id= "50" d=" M -0.626425 -2.35066 L -4.59689 -2.35066 " />
<path id= "51" d=" M -0.626425 -3.15479 L -4.59689 -3.15479 " />
<path d="M-4.59689, -2.35066 Q-4.59689, -2.77218 -4.59689, -3.15479 " /><path d="M-4.59689, -5.50546 L-4.67755, -5.32851  L-4.74523, -5.15576  L-4.80023, -4.9865  L-4.84276, -4.82  L-4.87301, -4.65557  L-4.89112, -4.49251  L-4.89714, -4.33013  L-4.89112, -4.16775  L-4.87301, -4.00469  L-4.84276, -3.84025  L-4.80023, -3.67375  L-4.74523, -3.50449  L-4.67755, -3.33175  L-4.59689, -3.15479 " /><path id= "54" d=" M -0.626425 -5.50546 L -4.59689 -5.50546 " />
<path d="M-4.59689, -5.50546 Q-4.59689, -5.52495 -4.59689, -5.525 " /><path d="M-2.85117, 2.5 Q-2.85991, 2.49999 -2.86865, 2.48494 " /><path d="M-2.86865, 2.48494 C-2.89942, 2.43274 -2.93019, 2.2367 -2.96097, 1.92829  C-3.01919, 1.35054 -3.07741, 0.358693 -3.13563, -0.537062  C-3.16858, -1.04309 -3.20153, -1.51186 -3.23449, -1.85766  C-3.27338, -2.26847 -3.31227, -2.50203 -3.35117, -2.5 " /><path d="M-3.35117, -2.5 Q-3.35991, -2.49999 -3.36865, -2.48494 " /><path d="M-3.36865, -2.48494 C-3.40188, -2.42877 -3.43512, -2.204 -3.46836, -1.85238  C-3.50217, -1.49642 -3.53597, -1.01122 -3.56978, -0.489933  C-3.62925, 0.429202 -3.68871, 1.43644 -3.74818, 1.99458  C-3.78251, 2.3209 -3.81685, 2.50125 -3.85117, 2.5 " /><path id= "60" d=" M -4.14881 2.5 L -3.85117 2.5 " />
<path d="M-3.14881, 2.5 C-3.18716, 2.50193 -3.22554, 2.27496 -3.2639, 1.87434  C-3.29334, 1.56876 -3.32277, 1.16462 -3.35221, 0.721559  C-3.4142, -0.213444 -3.47619, -1.30151 -3.53819, -1.92008  C-3.56924, -2.23318 -3.60029, -2.43231 -3.63133, -2.48494 " /><path d="M-3.63133, -2.48494 Q-3.64007, -2.49999 -3.64881, -2.5 " /><path d="M-3.64881, -2.5 C-3.68984, -2.50251 -3.73088, -2.24138 -3.77191, -1.78871  C-3.80424, -1.43441 -3.83658, -0.966264 -3.86891, -0.466874  C-3.89904, -0.00190411 -3.92916, 0.488047 -3.95929, 0.927425  C-3.99001, 1.37603 -4.02074, 1.77016 -4.05146, 2.04672  C-4.07808, 2.29039 -4.10471, 2.43647 -4.13133, 2.48494 " /><path d="M-4.13133, 2.48494 Q-4.14007, 2.49999 -4.14881, 2.5 " /><path d="M-4.9, 4.995 L-4.9, 4.86976  L-4.9, 4.50034  L-4.9, 3.90525  L-4.9, 3.11433  L-4.9, 2.16725  L-4.9, 1.11149  L-4.9, 2.22045e-16  L-4.9, -1.11149  L-4.9, -2.16725  L-4.9, -3.11433  L-4.9, -3.90525  L-4.9, -4.50034  L-4.9, -4.86976  L-4.9, -4.995 " /><path d="M-3.85117, 2.5 Q-3.85991, 2.49999 -3.86865, 2.48494 " /><path d="M-3.86865, 2.48494 C-3.89942, 2.43274 -3.93019, 2.2367 -3.96097, 1.92828  C-4.01918, 1.35066 -4.07738, 0.359116 -4.13559, -0.536492  C-4.16852, -1.04228 -4.20146, -1.5109 -4.2344, -1.85673  C-4.27332, -2.26811 -4.31224, -2.50204 -4.35117, -2.5 " /><path d="M-4.35117, -2.5 Q-4.3599, -2.49999 -4.36864, -2.48494 " /><path d="M-4.36864, -2.48494 C-4.40211, -2.42841 -4.43558, -2.20085 -4.46904, -1.84511  C-4.50292, -1.48671 -4.5368, -0.999041 -4.57067, -0.4761  C-4.62974, 0.43784 -4.68881, 1.43586 -4.74788, 1.99174  C-4.78231, 2.31983 -4.81674, 2.50126 -4.85117, 2.5 " /><path id= "70" d=" M -5.1488 2.5 L -4.85117 2.5 " />
<path d="M-4.14881, 2.5 C-4.18716, 2.50193 -4.22553, 2.27495 -4.2639, 1.87432  C-4.29335, 1.56863 -4.32279, 1.16431 -4.35224, 0.721073  C-4.41396, -0.209903 -4.47569, -1.29273 -4.53742, -1.91233  C-4.56872, -2.22985 -4.60003, -2.43189 -4.63133, -2.48494 " /><path d="M-4.63133, -2.48494 Q-4.64007, -2.49999 -4.64881, -2.5 " /><path d="M-4.64881, -2.5 C-4.6891, -2.50233 -4.7294, -2.25089 -4.7697, -1.81273  C-4.8027, -1.45633 -4.83571, -0.9796 -4.86871, -0.469979  C-4.89879, -0.00579252 -4.92887, 0.483478 -4.95896, 0.922588  C-4.9896, 1.37044 -5.02025, 1.76437 -5.05089, 2.04163  C-5.07771, 2.28831 -5.10452, 2.43608 -5.13133, 2.48494 " /><path d="M-5.13133, 2.48494 Q-5.14006, 2.49999 -5.1488, 2.5 " /><path d="M-4.85117, 2.5 Q-4.85991, 2.49999 -4.86865, 2.48494 " /><path d="M-4.86865, 2.48494 C-4.89942, 2.43274 -4.93019, 2.23669 -4.96096, 1.92828  C-5.01916, 1.35078 -5.07736, 0.359546 -5.13555, -0.535913  C-5.16846, -1.04137 -5.20137, -1.50974 -5.23429, -1.85559  C-5.27325, -2.26767 -5.3122, -2.50204 -5.35116, -2.5 " /><path d="M-5.35116, -2.5 Q-5.3599, -2.49999 -5.36864, -2.48494 " /><path d="M-5.36864, -2.48494 C-5.4021, -2.42842 -5.43557, -2.20093 -5.46903, -1.8453  C-5.50289, -1.48704 -5.53676, -0.999584 -5.57062, -0.476826  C-5.6294, 0.432399 -5.68817, 1.42529 -5.74694, 1.9828  C-5.78168, 2.31646 -5.81643, 2.50131 -5.85117, 2.5 " /><path id= "79" d=" M -6.1488 2.5 L -5.85117 2.5 " />
<path d="M-5.1488, 2.5 C-5.18715, 2.50193 -5.22553, 2.27495 -5.2639, 1.8743  C-5.29335, 1.56853 -5.3228, 1.16407 -5.35226, 0.720691  C-5.41366, -0.205439 -5.47507, -1.28203 -5.53648, -1.90285  C-5.56809, -2.22577 -5.59971, -2.43139 -5.63132, -2.48494 " /><path d="M-5.63132, -2.48494 Q-5.64006, -2.49999 -5.6488, -2.5 " /><path d="M-5.6488, -2.5 C-5.68941, -2.5024 -5.73001, -2.24697 -5.77061, -1.8028  C-5.8031, -1.44985 -5.83558, -0.98105 -5.86806, -0.47985  C-5.89834, -0.0130193 -5.92862, 0.479767 -5.9589, 0.921784  C-5.98976, 1.37284 -6.02062, 1.76922 -6.05148, 2.04695  C-6.07809, 2.29049 -6.10471, 2.43649 -6.13132, 2.48494 " /><path d="M-6.13132, 2.48494 Q-6.14006, 2.49999 -6.1488, 2.5 " /><path d="M-8, 4.16167 L-8, 4.05732  L-8, 3.74953  L-8, 3.25372  L-8, 2.59476  L-8, 1.80568  L-8, 0.926058  L-8, 2.22045e-16  L-8, -0.926058  L-8, -1.80568  L-8, -2.59476  L-8, -3.25372  L-8, -3.74953  L-8, -4.05732  L-8, -4.16167 " /><path d="M-5.85117, 2.5 Q-5.85991, 2.49999 -5.86865, 2.48494 " /><path d="M-5.86865, 2.48494 C-5.89942, 2.43274 -5.93019, 2.23669 -5.96096, 1.92828  C-6.01915, 1.35088 -6.07733, 0.359907 -6.13552, -0.535427  C-6.16874, -1.04573 -6.20197, -1.51822 -6.23519, -1.86511  C-6.27385, -2.27137 -6.3125, -2.50198 -6.35116, -2.5 " /><path d="M-6.35116, -2.5 Q-6.3599, -2.49999 -6.36864, -2.48494 " /><path d="M-6.36864, -2.48494 C-6.40202, -2.42854 -6.4354, -2.20204 -6.46878, -1.84787  C-6.50244, -1.49235 -6.53611, -1.00905 -6.56977, -0.489987  C-6.6288, 0.422327 -6.68783, 1.42186 -6.74687, 1.98214  C-6.78163, 2.3162 -6.81641, 2.50131 -6.85116, 2.5 " /><path id= "89" d=" M -7.14879 2.5 L -6.85116 2.5 " />
<path d="M-6.1488, 2.5 C-6.18715, 2.50193 -6.22553, 2.27494 -6.26389, 1.87428  C-6.29336, 1.56841 -6.32282, 1.1638 -6.35228, 0.720263  C-6.41405, -0.211512 -6.47583, -1.29512 -6.5376, -1.91426  C-6.56884, -2.23068 -6.60008, -2.43199 -6.63132, -2.48494 " /><path d="M-6.63132, -2.48494 Q-6.64006, -2.49999 -6.6488, -2.5 " /><path d="M-6.6488, -2.5 C-6.68969, -2.50247 -6.73058, -2.24323 -6.77148, -1.79332  C-6.80373, -1.44082 -6.836, -0.974686 -6.86825, -0.476843  C-6.89886, -0.00491406 -6.92946, 0.493342 -6.96006, 0.93876  C-6.99039, 1.38075 -7.02072, 1.76908 -7.05105, 2.0431  C-7.07781, 2.28891 -7.10456, 2.43619 -7.13132, 2.48494 " /><path d="M-7.13132, 2.48494 Q-7.14006, 2.49999 -7.14879, 2.5 " /><path d="M-7.2, 2.58868 Q-7.2, 2.60321 -7.2, 2.60321 " /><path d="M-7.2, 2.60321 C-7.2, 2.60424 -7.2, 2.42634 -7.2, 2.10708  C-7.2, 1.67532 -7.2, 0.983438 -7.2, 0.235382 " /><path d="M-8, 3.33333 L-8, 3.24976  L-8, 3.00323  L-8, 2.6061  L-8, 2.0783  L-8, 1.44628  L-8, 0.741736  L-8, 2.22045e-16  L-8, -0.741736  L-8, -1.44628  L-8, -2.0783  L-8, -2.6061  L-8, -3.00323  L-8, -3.24976  L-8, -3.33333 " /><path d="M-8, -3.33333 L-8, -3.24976  L-8, -3.00323  L-8, -2.6061  L-8, -2.0783  L-8, -1.44628  L-8, -0.741736  L-8, -6.66134e-16  L-8, 0.741736  L-8, 1.44628  L-8, 2.0783  L-8, 2.6061  L-8, 3.00323  L-8, 3.24976  L-8, 3.33333 " /><path d="M-7.2, 0.235382 C-7.2, 0.130133 -7.2, -0.0016032 -7.2, -0.139216  C-7.2, -0.395695 -7.2, -0.674756 -7.2, -0.938128  C-7.2, -1.15991 -7.2, -1.36452 -7.2, -1.55195  C-7.2, -1.70917 -7.2, -1.85002 -7.2, -1.94836 " /><path d="M-6.85116, 2.5 Q-6.8599, 2.49999 -6.86864, 2.48494 " /><path d="M-6.86864, 2.48494 C-6.89942, 2.43274 -6.93019, 2.23669 -6.96096, 1.92828  C-6.98992, 1.63921 -7.01887, 1.2521 -7.04783, 0.822249  C-7.09855, 0.0693592 -7.14927, -0.807959 -7.2, -1.45463 " /><path d="M-7.2, -1.94836 C-7.2, -2.47049 -7.2, -2.77814 -7.2, -2.77547 " /><path d="M-7.2, -2.77547 C-7.2, -2.77677 -7.2, -2.59408 -7.2, -2.25626  C-7.2, -2.04234 -7.2, -1.76745 -7.2, -1.45463 " /><path d="M-7.2, 2.3717 Q-7.2, 2.30849 -7.2, 2.24528  Q-7.2, 2.16207 -7.2, 2.07886  Q-7.2, 1.97713 -7.2, 1.87541  Q-7.2, 1.75697 -7.2, 1.63854  Q-7.2, 1.50551 -7.2, 1.37248  Q-7.2, 1.22723 -7.2, 1.08198  Q-7.2, 0.927085 -7.2, 0.772193  Q-7.2, 0.450894 -7.2, 0.117118  Q-7.2, -0.217583 -7.2, -0.546265  Q-7.2, -0.706281 -7.2, -0.866296  Q-7.2, -1.01859 -7.2, -1.17089  Q-7.2, -1.31276 -7.2, -1.45463 " /><path d="M-7.14879, 2.5 Q-7.17439, 2.49956 -7.2, 2.3717 " /><path d="M-7.2, 3.33333 L-7.2, 3.24976  L-7.2, 3.00323  L-7.2, 2.6061  L-7.2, 2.0783  L-7.2, 1.44628  L-7.2, 0.741736  L-7.2, 2.22045e-16  L-7.2, -0.741736  L-7.2, -1.44628  L-7.2, -2.0783  L-7.2, -2.6061  L-7.2, -3.00323  L-7.2, -3.24976  L-7.2, -3.33333 " /><path d="M-7.2, -3.33333 L-7.2, -3.24976  L-7.2, -3.00323  L-7.2, -2.6061  L-7.2, -2.0783  L-7.2, -1.44628  L-7.2, -0.741736  L-7.2, -6.66134e-16  L-7.2, 0.741736  L-7.2, 1.44628  L-7.2, 2.0783  L-7.2, 2.6061  L-7.2, 3.00323  L-7.2, 3.24976  L-7.2, 3.33333 " /><path d="M-7.2, 2.58868 Q-7.2, 2.54437 -7.2, 2.3717 " /><path id= "108" d=" M -8 3.33333 L -7.2 3.33333 " />
</g>
<g   fill="none"
   stroke="rgb(165, 165, 165)"
   stroke-dasharray="1.2,0.8"
   stroke-linecap="butt"
   stroke-linejoin="miter"
   stroke-width="0.25"
   transform="scale(1, -1)"
  >
<path id= "1" d=" M -0.5 -2.5 L 3.27015e-13 -3.375 " />
<path d="M-0.422916, 2.98742 L-0.3176, 2.80582 " /><path d="M-0.422916, 2.98742 Q-0.434083, 3.00628 -0.447069, 3.01666  Q-0.471293, 3.03609 -0.499998, 3.03609 " /><path id= "4" d=" M -0.648822 -2.5 L -0.5 -2.5 " />
<path d="M-0.922916, -2.98741 L-0.631343, -2.48494 " /><path d="M-1.42292, 2.98742 L-1.13134, 2.48494 " /><path d="M-0.577086, 2.98741 Q-0.565919, 3.00628 -0.552933, 3.01666  Q-0.528705, 3.03609 -0.499998, 3.03609 " /><path d="M-1.07708, -2.98741 C-1.05573, -3.02492 -1.02337, -3.03632 -0.999991, -3.03608  C-0.986268, -3.03607 -0.973146, -3.03268 -0.960626, -3.02589  C-0.946579, -3.01868 -0.934009, -3.00585 -0.922916, -2.98741 " /><path d="M-1.42292, 2.98742 Q-1.43408, 3.00628 -1.44707, 3.01667  Q-1.47129, 3.03609 -1.5, 3.03609 " /><path d="M-0.868653, 2.48494 L-0.577086, 2.98741 " /><path d="M-1.36865, -2.48494 L-1.07708, -2.98741 " /><path id= "12" d=" M -1.64882 -2.5 L -1.35117 -2.5 " />
<path d="M-1.92292, -2.98742 L-1.63134, -2.48494 " /><path d="M-2.42292, 2.98742 L-2.13134, 2.48494 " /><path d="M-1.57709, 2.98742 Q-1.56592, 3.00628 -1.55293, 3.01666  Q-1.52871, 3.03609 -1.5, 3.03609 " /><path d="M-2.07708, -2.98741 C-2.05573, -3.02492 -2.02337, -3.03632 -1.99999, -3.03609  C-1.98627, -3.03608 -1.97315, -3.03268 -1.96063, -3.02589  C-1.94658, -3.01868 -1.93401, -3.00586 -1.92292, -2.98742 " /><path d="M-2.42292, 2.98742 Q-2.43408, 3.00629 -2.44707, 3.01667  Q-2.47129, 3.0361 -2.5, 3.03609 " /><path d="M-1.86865, 2.48494 L-1.57709, 2.98742 " /><path d="M-2.36865, -2.48494 L-2.07708, -2.98741 " /><path id= "20" d=" M -2.64881 -2.5 L -2.35117 -2.5 " />
<path d="M-2.92292, -2.98742 L-2.63134, -2.48494 " /><path d="M-3.42292, 2.98742 L-3.13133, 2.48494 " /><path d="M-2.57709, 2.98742 Q-2.56592, 3.00628 -2.55293, 3.01667  Q-2.52871, 3.0361 -2.5, 3.03609 " /><path d="M-3.07708, -2.98742 C-3.05573, -3.02493 -3.02337, -3.03633 -2.99999, -3.03609  C-2.98627, -3.03608 -2.97315, -3.03268 -2.96063, -3.02589  C-2.94658, -3.01868 -2.93401, -3.00586 -2.92292, -2.98742 " /><path d="M-3.42292, 2.98742 Q-3.43408, 3.00629 -3.44707, 3.01667  Q-3.47129, 3.0361 -3.5, 3.03609 " /><path d="M-2.86865, 2.48494 L-2.57709, 2.98742 " /><path d="M-3.36865, -2.48494 L-3.07708, -2.98742 " /><path id= "28" d=" M -3.64881 -2.5 L -3.35117 -2.5 " />
<path d="M-3.92292, -2.98742 L-3.63133, -2.48494 " /><path d="M-4.42292, 2.98743 L-4.13133, 2.48494 " /><path d="M-3.57709, 2.98742 Q-3.56592, 3.00629 -3.55293, 3.01667  Q-3.52871, 3.0361 -3.5, 3.03609 " /><path d="M-4.07708, -2.98742 C-4.05573, -3.02493 -4.02337, -3.03633 -3.99999, -3.03609  C-3.98627, -3.03608 -3.97315, -3.03268 -3.96063, -3.0259  C-3.94658, -3.01868 -3.93401, -3.00586 -3.92292, -2.98742 " /><path d="M-4.42292, 2.98743 Q-4.43408, 3.00629 -4.44707, 3.01667  Q-4.47129, 3.0361 -4.5, 3.03609 " /><path d="M-3.86865, 2.48494 L-3.57709, 2.98742 " /><path d="M-4.36864, -2.48494 L-4.07708, -2.98742 " /><path id= "36" d=" M -4.64881 -2.5 L -4.35117 -2.5 " />
<path d="M-4.92292, -2.98742 L-4.63133, -2.48494 " /><path d="M-5.42292, 2.98743 L-5.13133, 2.48494 " /><path d="M-4.57709, 2.98742 Q-4.56592, 3.00629 -4.55293, 3.01667  Q-4.52871, 3.0361 -4.5, 3.03609 " /><path d="M-5.07708, -2.98742 C-5.05573, -3.02493 -5.02337, -3.03633 -4.99999, -3.03609  C-4.98627, -3.03608 -4.97315, -3.03268 -4.96063, -3.0259  C-4.94658, -3.01869 -4.93401, -3.00586 -4.92292, -2.98742 " /><path d="M-5.42292, 2.98743 Q-5.43408, 3.00629 -5.44707, 3.01667  Q-5.47129, 3.0361 -5.5, 3.0361 " /><path d="M-4.86865, 2.48494 L-4.57709, 2.98742 " /><path d="M-5.36864, -2.48494 L-5.07708, -2.98742 " /><path id= "44" d=" M -5.6488 -2.5 L -5.35116 -2.5 " />
<path d="M-5.92292, -2.98743 L-5.63132, -2.48494 " /><path d="M-6.42292, 2.98743 L-6.13132, 2.48494 " /><path d="M-5.57709, 2.98742 Q-5.56592, 3.00629 -5.55293, 3.01667  Q-5.52871, 3.0361 -5.5, 3.0361 " /><path d="M-6.07708, -2.98742 C-6.05573, -3.02493 -6.02337, -3.03633 -5.99999, -3.03609  C-5.98627, -3.03608 -5.97315, -3.03269 -5.96063, -3.0259  C-5.94658, -3.01869 -5.93401, -3.00586 -5.92292, -2.98743 " /><path d="M-6.42292, 2.98743 Q-6.43408, 3.00629 -6.44707, 3.01668  Q-6.47129, 3.0361 -6.5, 3.0361 " /><path d="M-5.86865, 2.48494 L-5.57709, 2.98742 " /><path d="M-6.36864, -2.48494 L-6.07708, -2.98742 " /><path id= "52" d=" M -6.6488 -2.5 L -6.35116 -2.5 " />
<path d="M-6.92292, -2.98743 L-6.63132, -2.48494 " /><path d="M-7.13132, 2.48494 L-7.2, 2.60321 " /><path d="M-6.57709, 2.98742 Q-6.56592, 3.00629 -6.55293, 3.01667  Q-6.52871, 3.0361 -6.5, 3.0361 " /><path d="M-7.07708, -2.98742 C-7.05573, -3.02493 -7.02337, -3.03633 -6.99999, -3.0361  C-6.98627, -3.03609 -6.97315, -3.03269 -6.96063, -3.0259  C-6.94658, -3.01869 -6.93401, -3.00587 -6.92292, -2.98743 " /><path d="M-6.86864, 2.48494 L-6.57709, 2.98742 " /><path d="M-7.07708, -2.98742 L-7.2, -2.77547 " /><path id= "59" d=" M -8 -3.33333 L -7.2 -3.33333 " />
</g>
<g   fill="none"
   stroke="rgb(0, 0, 0)"
   stroke-linecap="butt"
   stroke-linejoin="miter"
   stroke-width="0.35"
   transform="scale(1, -1)"
  >
<path id= "1" d=" M -3.65181e-16 -4.44 L -0.626425 -5.525 " />
<path id= "2" d=" M -0.626425 -5.525 L -4.59689 -5.525 " />
<path id= "3" d=" M -4.9 -4.995 L -4.59689 -5.525 " />
<path id= "4" d=" M -4.9 -4.995 L -7.16667 -4.995 " />
<path d="M-7.16667, -4.995 C-7.29535, -4.99461 -7.41755, -4.96629 -7.53328, -4.91002  C-7.56861, -4.89271 -7.60253, -4.87301 -7.63507, -4.8509  C-7.86068, -4.70002 -8.00202, -4.43307 -8, -4.16167 " /></g>
<g   fill="none"
   stroke="rgb(0, 0, 0)"
   stroke-linecap="butt"
   stroke-linejoin="miter"
   stroke-width="0.35"
   transform="scale(1, -1)"
  >
<path d="M0, -4.44 L0, -4.32868  L0, -4.0003  L0, -3.47133  L0, -2.76829  L0, -1.92644  L0, -0.987993  L0, -7.77156e-16  L0, 0.987993  L0, 1.92644  L0, 2.76829  L0, 3.47133  L0, 4.0003  L0, 4.32868  L0, 4.44 " /><path id= "2" d=" M 0 4.44 L -0.626425 5.525 " />
<path d="M-0.626425, 5.50546 Q-0.626425, 5.52495 -0.626425, 5.525 " /><path d="M-0.626425, 3.15479 L-0.544997, 3.33175  L-0.476669, 3.50449  L-0.421153, 3.67375  L-0.378214, 3.84025  L-0.347673, 4.00469  L-0.329399, 4.16775  L-0.323316, 4.33013  L-0.329399, 4.49251  L-0.347673, 4.65557  L-0.378214, 4.82  L-0.421153, 4.9865  L-0.476669, 5.15576  L-0.544997, 5.32851  L-0.626425, 5.50546 " /><path d="M-0.626425, 2.35066 Q-0.626425, 2.77218 -0.626425, 3.15479 " /><path d="M-0.626425, -2.35066 L-0.544997, -1.99676  L-0.476669, -1.65127  L-0.421153, -1.31275  L-0.378214, -0.979749  L-0.347673, -0.650881  L-0.329399, -0.324756  L-0.323316, 5.55112e-17  L-0.329399, 0.324756  L-0.347673, 0.650881  L-0.378214, 0.979749  L-0.421153, 1.31275  L-0.476669, 1.65127  L-0.544997, 1.99676  L-0.626425, 2.35066 " /><path d="M-0.626425, -3.15479 Q-0.626425, -2.77218 -0.626425, -2.35066 " /><path d="M-0.626425, -5.50546 L-0.544997, -5.32851  L-0.476669, -5.15576  L-0.421153, -4.9865  L-0.378214, -4.82  L-0.347673, -4.65557  L-0.329399, -4.49251  L-0.323316, -4.33013  L-0.329399, -4.16775  L-0.347673, -4.00469  L-0.378214, -3.84025  L-0.421153, -3.67375  L-0.476669, -3.50449  L-0.544997, -3.33175  L-0.626425, -3.15479 " /><path d="M-0.626425, -5.525 Q-0.626425, -5.52495 -0.626425, -5.50546 " /><path id= "10" d=" M -0.626425 5.525 L -4.59689 5.525 " />
<path id= "11" d=" M -0.626425 -5.50546 L -4.59689 -5.50546 " />
<path d="M-4.59689, -5.525 Q-4.59689, -5.52495 -4.59689, -5.50546 " /><path d="M-4.59689, -3.15479 L-4.67755, -3.33175  L-4.74523, -3.50449  L-4.80023, -3.67375  L-4.84276, -3.84025  L-4.87301, -4.00469  L-4.89112, -4.16775  L-4.89714, -4.33013  L-4.89112, -4.49251  L-4.87301, -4.65557  L-4.84276, -4.82  L-4.80023, -4.9865  L-4.74523, -5.15576  L-4.67755, -5.32851  L-4.59689, -5.50546 " /><path id= "14" d=" M -0.626425 -3.15479 L -4.59689 -3.15479 " />
<path id= "15" d=" M -0.626425 -2.35066 L -4.59689 -2.35066 " />
<path d="M-4.59689, -3.15479 Q-4.59689, -2.77218 -4.59689, -2.35066 " /><path d="M-4.59689, 2.35066 L-4.67755, 1.99676  L-4.74523, 1.65127  L-4.80023, 1.31275  L-4.84276, 0.979749  L-4.87301, 0.650881  L-4.89112, 0.324756  L-4.89714, -1.11022e-16  L-4.89112, -0.324756  L-4.87301, -0.650881  L-4.84276, -0.979749  L-4.80023, -1.31275  L-4.74523, -1.65127  L-4.67755, -1.99676  L-4.59689, -2.35066 " /><path id= "18" d=" M -0.626425 2.35066 L -4.59689 2.35066 " />
<path id= "19" d=" M -0.626425 3.15479 L -4.59689 3.15479 " />
<path d="M-4.59689, 2.35066 Q-4.59689, 2.77218 -4.59689, 3.15479 " /><path d="M-4.59689, 5.50546 L-4.67755, 5.32851  L-4.74523, 5.15576  L-4.80023, 4.9865  L-4.84276, 4.82  L-4.87301, 4.65557  L-4.89112, 4.49251  L-4.89714, 4.33013  L-4.89112, 4.16775  L-4.87301, 4.00469  L-4.84276, 3.84025  L-4.80023, 3.67375  L-4.74523, 3.50449  L-4.67755, 3.33175  L-4.59689, 3.15479 " /><path id= "22" d=" M -0.626425 5.50546 L -4.59689 5.50546 " />
<path d="M-4.59689, 5.50546 Q-4.59689, 5.52495 -4.59689, 5.525 " /><path id= "24" d=" M -4.59689 5.525 L -4.9 4.995 " />
<path d="M-4.9, -4.995 L-4.9, -4.86976  L-4.9, -4.50034  L-4.9, -3.90525  L-4.9, -3.11433  L-4.9, -2.16725  L-4.9, -1.11149  L-4.9, -8.88178e-16  L-4.9, 1.11149  L-4.9, 2.16725  L-4.9, 3.11433  L-4.9, 3.90525  L-4.9, 4.50034  L-4.9, 4.86976  L-4.9, 4.995 " /><path id= "26" d=" M -4.9 4.995 L -7.16667 4.995 " />
<path d="M-7.16667 4.995 A0.833333 0.833333 0 0 1 -8 4.16167" /><path d="M-8, -4.16167 L-8, -4.05732  L-8, -3.74953  L-8, -3.25372  L-8, -2.59476  L-8, -1.80568  L-8, -0.926058  L-8, -7.77156e-16  L-8, 0.926058  L-8, 1.80568  L-8, 2.59476  L-8, 3.25372  L-8, 3.74953  L-8, 4.05732  L-8, 4.16167 " /></g>

</svg>
