<svg xmlns="http://www.w3.org/2000/svg" viewBox="-6.3878968 -5.8824368 12.795333600000001 11.7648736">
<rect width="100%" height="100%" fill="white"/>
<g   fill="none"
   stroke="rgb(165, 165, 165)"
   stroke-dasharray="1.2,0.8"
   stroke-linecap="butt"
   stroke-linejoin="miter"
   stroke-width="0.25"
   transform="scale(1, -1)"
  >
<path d="M0.502509, -2.95762 C0.00303598, -3.06973 -0.570069, -3.02957 -1.05236, -2.84787 " /><path d="M-1.05236, -2.84787 C-1.24705, -2.77638 -1.42998, -2.68137 -1.56873, -2.58828  C-1.66693, -2.52295 -1.74261, -2.45735 -1.73604, -2.44667 " /><path d="M-1.73604, -2.44667 Q-1.61414, -2.22667 -1.48437, -2.01163 " /><path d="M-1.48445 2.01157 A2.5 2.5 0 0 1 -1.48437 -2.01163" /><path d="M2.8057, 4.44089e-16 C2.78104, 0.515407 2.60974, 1.02155 2.31615, 1.44233  C2.0329, 1.85089 1.63572, 2.17777 1.18222, 2.37401  C0.743427, 2.5654 0.253223, 2.63339 -0.217761, 2.56713  C-0.68214, 2.50318 -1.12622, 2.30877 -1.48445, 2.01157 " /><circle cx ="0" cy ="0" r ="3.375" /><path d="M2.8057, -1.77636e-15 C2.8402, -0.660616 2.63043, -1.33175 2.22679, -1.86115  C1.80918, -2.4156 1.18516, -2.81113 0.502509, -2.95762 " /><path d="M-1.48437, -2.01163 C-1.19056, -2.22876 -0.84852, -2.38009 -0.49023, -2.45146  C-0.0478808, -2.54055 0.418385, -2.50632 0.84298, -2.35359  C1.29298, -2.19324 1.69445, -1.90024 1.9844, -1.52057  C2.31706, -1.08858 2.5013, -0.545216 2.5, -4.44089e-16 " /><path d="M-1.48445, 2.01157 C-1.64295, 1.8945 -1.78569, 1.76061 -1.91265, 1.6099  C-2.30444, 1.14747 -2.51736, 0.538586 -2.4991, -0.0672315  C-2.48456, -0.687525 -2.22745, -1.29775 -1.79372, -1.74143  C-1.43992, -2.10727 -0.971602, -2.36008 -0.471621, -2.45511  C-0.00246171, -2.54603 0.49241, -2.49796 0.9353, -2.31845 " /><path d="M2.04465, -1.43854 C2.23481, -1.16858 2.37054, -0.860515 2.44142, -0.538004 " /><path d="M2.4606, -0.442076 Q2.47405, -0.367205 2.48293, -0.291657 " /><path d="M2.49385, -0.175314 Q2.5, -0.0877651 2.5, 1.01659e-07 " /><circle cx ="0" cy ="0" r ="4.44" /><path d="M2.5, 2.02499e-07 C2.50161, 0.576044 2.29525, 1.14967 1.92702, 1.59267  C1.63777, 1.94364 1.2506, 2.2127 0.820806, 2.36141  C0.385169, 2.51355 -0.0928797, 2.5412 -0.54315, 2.44028  C-1.04898, 2.32879 -1.51714, 2.05473 -1.86198, 1.66824  C-2.27579, 1.20954 -2.50812, 0.592904 -2.49988, -0.0248087  C-2.49583, -0.632917 -2.25904, -1.23551 -1.84802, -1.6837  C-1.48863, -2.07995 -0.99853, -2.35481 -0.473012, -2.45484  C-0.0359697, -2.53965 0.423521, -2.50435 0.842476, -2.35377  C1.29567, -2.19241 1.69964, -1.89648 1.99015, -1.51304  C2.31923, -1.0823 2.50127, -0.542053 2.5, 1.01658e-07 " /><path d="M2.5, 2.025e-07 C2.50198, 0.607075 2.27199, 1.211 1.86668, 1.66299  C1.56174, 2.00627 1.16013, 2.26235 0.720259, 2.394  C0.30978, 2.51802 -0.132758, 2.53353 -0.550913, 2.43854  C-1.07918, 2.32049 -1.56541, 2.02455 -1.91294, 1.60955  C-2.30484, 1.14683 -2.51765, 0.537541 -2.49906, -0.0685591  C-2.4842, -0.688353 -2.22718, -1.29798 -1.79382, -1.74133  C-1.44012, -2.10711 -0.971945, -2.35991 -0.472095, -2.45502  C-0.00595621, -2.54543 0.485599, -2.49869 0.926343, -2.32204  C1.37363, -2.14447 1.76685, -1.83408 2.04344, -1.44026  C2.33918, -1.02243 2.50102, -0.511892 2.5, 2.025e-07 " /><path d="M5.50546 -0.464265 A5.525 5.525 0 0 1 5.525 -1.35323e-15" /><path d="M3.15479, -4.53574 C3.99017, -3.08882 4.67008, -1.91118 5.50546, -0.464265 " /><path d="M2.35066 -5 A5.525 5.525 0 0 1 3.15479 -4.53574" /><path d="M-2.35066, -5 C-0.679905, -5 0.679905, -5 2.35066, -5 " /><path d="M-3.15479 -4.53574 A5.525 5.525 0 0 1 -2.35066 -5" /><path d="M-5.50546, -0.464265 C-4.67008, -1.91118 -3.99017, -3.08882 -3.15479, -4.53574 " /><path d="M-5.50546 0.464265 A5.525 5.525 0 0 1 -5.50546 -0.464265" /><path d="M-3.15479, 4.53574 C-3.99017, 3.08882 -4.67008, 1.91118 -5.50546, 0.464265 " /><path d="M-2.35066 5 A5.525 5.525 0 0 1 -3.15479 4.53574" /><path d="M2.35066, 5 C0.679905, 5 -0.679905, 5 -2.35066, 5 " /><path d="M3.15479 4.53574 A5.525 5.525 0 0 1 2.35066 5" /><path d="M5.50546, 0.464265 C4.67008, 1.91118 3.99017, 3.08882 3.15479, 4.53574 " /><path d="M5.525 0 A5.525 5.525 0 0 1 5.50546 0.464265" /><path d="M2.5, 2.02499e-07 C2.50161, 0.57604 2.29525, 1.14966 1.92702, 1.59267  C1.63778, 1.94364 1.25061, 2.21269 0.820819, 2.36141  C0.385215, 2.51354 -0.0927947, 2.54119 -0.543037, 2.44031  C-1.04885, 2.32884 -1.51701, 2.05482 -1.86187, 1.66837  C-2.27389, 1.21167 -2.50612, 0.598404 -2.49994, -0.0166617  C-2.4979, -0.628298 -2.26028, -1.23507 -1.84643, -1.68543  C-1.49208, -2.07532 -1.01113, -2.34753 -0.494453, -2.45062  C-0.0526603, -2.54038 0.413217, -2.5071 0.837763, -2.35545  C1.29586, -2.1934 1.70394, -1.89389 1.99589, -1.50546  C2.32139, -1.07599 2.50124, -0.538867 2.5, 2.02499e-07 " /><path d="M2.5, 3.03752e-07 C2.50193, 0.603195 2.27497, 1.20334 1.87436, 1.65432  C1.56889, 2.00146 1.16492, 2.26057 0.722036, 2.39346  C0.312661, 2.51748 -0.128694, 2.53356 -0.546007, 2.43965  C-1.07223, 2.32315 -1.55716, 2.03025 -1.90519, 1.61872  C-2.25373, 1.21038 -2.46421, 0.687041 -2.49543, 0.151069 " /><path d="M-2.4999, -0.0219451 L-2.49848, -0.0871831 " /><path d="M-2.43373, -0.571803 Q-2.38609, -0.774433 -2.30566, -0.966406 " /><path d="M-1.81435, -1.71992 L-1.79287, -1.7423 " /><path d="M-1.69969, -1.83332 C-1.36118, -2.14808 -0.933538, -2.3655 -0.47976, -2.45353  C-0.00654127, -2.54689 0.493326, -2.49866 0.939968, -2.31656  C1.38195, -2.13805 1.77017, -1.82963 2.044, -1.43946  C2.33939, -1.02178 2.50102, -0.51156 2.5, 4.44089e-16 " /><path d="M2.5, 3.03749e-07 C2.50161, 0.575376 2.29574, 1.14834 1.92829, 1.59113  C1.63923, 1.94245 1.25212, 2.21187 0.822273, 2.3609  C0.388204, 2.51279 -0.0880659, 2.54108 -0.537062, 2.44163  C-1.04309, 2.33141 -1.51186, 2.05859 -1.85766, 1.67305  C-2.27589, 1.21192 -2.51008, 0.589876 -2.49979, -0.0325831  C-2.49385, -0.635895 -2.25899, -1.23314 -1.85238, -1.67889  C-1.49642, -2.07339 -1.01122, -2.34854 -0.489933, -2.45152  C-0.047148, -2.54065 0.419584, -2.5062 0.844489, -2.35305  C1.29918, -2.19072 1.70416, -1.89288 1.99458, -1.5072  C2.3209, -1.07743 2.50125, -0.539601 2.5, -9.99201e-16 " /><path d="M2.5, 4.05003e-07 L2.4991, 0.0669961 " /><path d="M2.41385, 0.650647 L2.39378, 0.720974 " /><path d="M2.3717, 0.790609 C2.26609, 1.10801 2.09584, 1.40368 1.87434, 1.65434  C1.56876, 2.00159 1.16462, 2.26076 0.721559, 2.39361  C-0.00797503, 2.61849 -0.836477, 2.48131 -1.45463, 2.03324 " /><path d="M-2.46633, 0.408945 C-2.5231, 0.0678947 -2.50788, -0.28491 -2.42194, -0.619833 " /><path d="M-2.34601, -0.863841 Q-2.26734, -1.07738 -2.15147, -1.27325 " /><path d="M-1.96001, -1.5519 Q-1.86119, -1.67668 -1.74735, -1.78795 " /><path d="M-1.60451, -1.91717 L-1.602, -1.91927 " /><path d="M-1.58434, -1.93387 L-1.5072, -1.99458 " /><path d="M-1.15919, -2.21501 L-1.15629, -2.21653 " /><path d="M-0.844722, -2.35297 L-0.751676, -2.38432 " /><path d="M0.92816, -2.32132 L0.928272, -2.32127 " /><path d="M0.930622, -2.32033 L0.942465, -2.31555 " /><path d="M2.02223, -1.4699 L2.0376, -1.44852 " /><path d="M2.19333, -1.1997 C2.39394, -0.833898 2.50046, -0.417193 2.5, -4.44089e-16 " /><circle cx ="0" cy ="0" r ="4.995" /><path d="M2.5, 4.04999e-07 C2.50161, 0.575377 2.29574, 1.14835 1.92828, 1.59114  C1.63922, 1.94245 1.25211, 2.21187 0.822267, 2.36091  C0.388383, 2.51273 -0.0876652, 2.54105 -0.536492, 2.44176  C-1.04228, 2.33171 -1.5109, 2.05923 -1.85673, 1.67408  C-2.27843, 1.20972 -2.51319, 0.581827 -2.49959, -0.0452958  C-2.49059, -0.647929 -2.2532, -1.24336 -1.84511, -1.68688  C-1.48671, -2.08066 -0.999041, -2.35401 -0.4761, -2.45425  C-0.0396188, -2.53952 0.419416, -2.50496 0.838208, -2.35529  C1.29395, -2.19396 1.70019, -1.89661 1.99174, -1.51095  C2.31983, -1.08056 2.50126, -0.541169 2.5, 8.88178e-16 " /><path d="M2.5, 5.06256e-07 L2.5, 0.00449087 " /><path d="M2.41114, 0.660612 L2.39347, 0.722006 " /><path d="M2.3717, 0.790609 C2.26609, 1.10802 2.09583, 1.4037 1.87432, 1.65437  C1.56863, 2.00173 1.16431, 2.26095 0.721073, 2.39375  C-0.0083452, 2.61843 -0.836615, 2.48121 -1.45463, 2.03324 " /><path d="M-2.30536, 0.967111 Q-2.40919, 0.719397 -2.45819, 0.455322 " /><path d="M-2.49103, 0.211576 Q-2.50066, 0.0981682 -2.49995, -0.0156462 " /><path d="M-1.89577, -1.62974 Q-1.8344, -1.70113 -1.76785, -1.76769 " /><path d="M2.5, 5.06249e-07 C2.50161, 0.575379 2.29574, 1.14835 1.92828, 1.59114  C1.63922, 1.94246 1.25211, 2.21188 0.82226, 2.36091  C0.388565, 2.51266 -0.0872583, 2.54103 -0.535913, 2.44188  C-1.04137, 2.33204 -1.50974, 2.05998 -1.85559, 1.67535  C-2.27592, 1.21309 -2.51099, 0.588483 -2.49974, -0.036213  C-2.49292, -0.641827 -2.25535, -1.24096 -1.8453, -1.68668  C-1.48704, -2.08038 -0.999584, -2.35374 -0.476826, -2.45411  C-0.0404907, -2.53948 0.418421, -2.5051 0.837164, -2.35566  C1.28868, -2.19603 1.69174, -1.90297 1.9828, -1.52266  C2.31646, -1.09032 2.50131, -0.5461 2.5, -1.77636e-15 " /><path d="M2.5, 6.07509e-07 L2.49996, 0.0134716 " /><path d="M2.41114, 0.660612 L2.39347, 0.722006 " /><path d="M2.3717, 0.790609 C2.26608, 1.10802 2.09582, 1.40371 1.8743, 1.65438  C1.56853, 2.00184 1.16407, 2.2611 0.720691, 2.39387  C-0.00863642, 2.61839 -0.836725, 2.48113 -1.45463, 2.03324 " /><path d="M-1.83781, 1.69484 Q-1.89477, 1.63306 -1.94746, 1.56761 " /><path d="M-1.88363, -1.64376 Q-1.79683, -1.74321 -1.70006, -1.83298 " /><path d="M0.825711, -2.3597 Q0.900861, -2.33341 0.974183, -2.30238 " /><path d="M2.0432, -1.4406 C2.33909, -1.02271 2.50102, -0.512031 2.5, -1.33227e-15 " /><path d="M2.5, 6.07499e-07 C2.50161, 0.57538 2.29573, 1.14835 1.92828, 1.59114  C1.63922, 1.94246 1.2521, 2.21188 0.822255, 2.36091  C0.388717, 2.51261 -0.0869165, 2.54101 -0.535427, 2.44199  C-1.04573, 2.33123 -1.51822, 2.05504 -1.86511, 1.66474  C-2.281, 1.20205 -2.51239, 0.579477 -2.49964, -0.0425246  C-2.49131, -0.644728 -2.25493, -1.24 -1.84787, -1.68386  C-1.49235, -2.07572 -1.00905, -2.34895 -0.489987, -2.45151  C-0.0478096, -2.54052 0.418253, -2.50631 0.842693, -2.35369  C1.29164, -2.19377 1.69231, -1.90185 1.98214, -1.52353  C2.3162, -1.09105 2.50131, -0.546459 2.5, -5.55112e-16 " /><path d="M2.40946, 0.666706 L2.39843, 0.705346 " /><path d="M2.3717, 0.790609 C2.26608, 1.10803 2.09581, 1.40373 1.87428, 1.65441  C1.56841, 2.00196 1.1638, 2.26127 0.720263, 2.394  C-0.00895935, 2.61834 -0.836843, 2.48104 -1.45463, 2.03324 " /><path d="M2.5, 7.0875e-07 C2.50161, 0.575382 2.29573, 1.14836 1.92828, 1.59115  C1.63921, 1.94246 1.2521, 2.21188 0.822249, 2.36091  C0.38887, 2.51255 -0.0865748, 2.54099 -0.534941, 2.4421  C-0.864994, 2.37 -1.17999, 2.22997 -1.45463, 2.03324 " /><circle cx ="0" cy ="0" r ="3.33333" /></g>
<g   fill="none"
   stroke="rgb(165, 165, 165)"
   stroke-dasharray="1.2,0.8"
   stroke-linecap="butt"
   stroke-linejoin="miter"
   stroke-width="0.25"
   transform="scale(1, -1)"
  >
<path d="M-1.05236, -2.84787 C-0.748579, -2.95977 -0.434941, -3.02182 -0.111441, -3.03404  C0.545442, -3.0597 1.20829, -2.86344 1.7453, -2.48429  C2.2262, -2.14765 2.60506, -1.66794 2.82111, -1.12213  C2.9629, -0.766168 3.03627, -0.383158 3.03609, -7.30726e-09 " /><path d="M3.03609, -7.30724e-09 C3.03871, 0.753664 2.74638, 1.50302 2.23414, 2.05585  C1.84452, 2.48059 1.33117, 2.7899 0.773598, 2.9359  C-0.0354956, 3.15312 -0.931361, 3.01264 -1.63512, 2.55817  C-2.27032, 2.15524 -2.74372, 1.5071 -2.93435, 0.779448  C-3.11505, 0.106576 -3.053, -0.627755 -2.76196, -1.26077  C-2.43901, -1.97552 -1.82665, -2.55241 -1.09393, -2.83219  C-0.426137, -3.09239 0.334187, -3.10368 1.00939, -2.86338  C1.59762, -2.65756 2.11924, -2.26338 2.47817, -1.75404  C2.8392, -1.2462 3.03754, -0.623193 3.03609, -1.46149e-08 " /><path d="M3.03609, -1.46149e-08 C3.03871, 0.753665 2.74638, 1.50302 2.23414, 2.05585  C1.84452, 2.48059 1.33117, 2.7899 0.773592, 2.9359  C-0.0355309, 3.15313 -0.93143, 3.01263 -1.6352, 2.55812  C-2.29513, 2.13984 -2.77946, 1.45639 -2.95546, 0.69515  C-3.11, 0.045127 -3.04055, -0.655142 -2.76133, -1.26214  C-2.4465, -1.95747 -1.85818, -2.52275 -1.15082, -2.80953  C-0.456671, -3.09664 0.344582, -3.11111 1.04864, -2.84924  C1.62745, -2.63769 2.13867, -2.24304 2.49016, -1.73697  C2.84368, -1.23232 3.03748, -0.616247 3.03609, -2.19229e-08 " /><path d="M3.03609, -2.19229e-08 C3.03871, 0.753665 2.74638, 1.50302 2.23414, 2.05586  C1.84452, 2.48059 1.33117, 2.78991 0.773596, 2.93591  C-0.0355147, 3.15313 -0.931399, 3.01264 -1.63516, 2.55814  C-2.26918, 2.15593 -2.74204, 1.50944 -2.9333, 0.78339  C-3.1158, 0.107538 -3.0532, -0.630676 -2.75951, -1.26615  C-2.43987, -1.9696 -1.83992, -2.53909 -1.12079, -2.82167  C-0.450137, -3.09041 0.316947, -3.1069 0.998519, -2.86721  C1.53011, -2.68295 2.00777, -2.34697 2.36088, -1.90896  C2.79531, -1.37459 3.03794, -0.688681 3.03609, -2.92313e-08 " /><path d="M3.03609, -2.92313e-08 C3.03871, 0.753666 2.74639, 1.50303 2.23414, 2.05586  C1.84452, 2.48059 1.33117, 2.78991 0.773596, 2.93591  C-0.0355072, 3.15313 -0.931383, 3.01264 -1.63515, 2.55816  C-2.26972, 2.15561 -2.74284, 1.50833 -2.9338, 0.781521  C-3.11587, 0.105553 -3.0528, -0.632622 -2.7587, -1.2679  C-2.45011, -1.94522 -1.88216, -2.49888 -1.19721, -2.79011  C-0.500262, -3.09205 0.310759, -3.11681 1.02481, -2.85791  C1.60935, -2.64981 2.12688, -2.25543 2.48289, -1.74736  C2.84097, -1.24076 3.03752, -0.620475 3.03609, -3.65401e-08 " /><path d="M3.03609, -3.65401e-08 C3.03872, 0.753666 2.74639, 1.50303 2.23414, 2.05586  C1.84452, 2.48059 1.33117, 2.78991 0.7736, 2.93591  C-0.0354868, 3.15312 -0.931344, 3.01265 -1.6351, 2.55819  C-2.27086, 2.15492 -2.74452, 1.506 -2.93485, 0.777586  C-3.11389, 0.109062 -3.0535, -0.619982 -2.76687, -1.24992  C-2.44508, -1.96982 -1.83006, -2.55135 -1.09332, -2.83244  C-0.429974, -3.09069 0.324608, -3.10353 0.996343, -2.86797  C1.51459, -2.68871 1.98186, -2.36545 2.33236, -1.94371  C2.78441, -1.40438 3.0381, -0.703724 3.0361, -4.38492e-08 " /><path d="M3.0361, -4.38492e-08 C3.03872, 0.753667 2.74639, 1.50303 2.23415, 2.05586  C1.84452, 2.48059 1.33117, 2.78991 0.773599, 2.93591  C-0.0355037, 3.15313 -0.931379, 3.01265 -1.63514, 2.55816  C-2.26989, 2.15551 -2.74308, 1.50801 -2.93395, 0.780971  C-3.1159, 0.104968 -3.05269, -0.633196 -2.75846, -1.26842  C-2.44948, -1.94628 -1.88069, -2.50019 -1.19489, -2.79111  C-0.497304, -3.09264 0.314252, -3.11658 1.02838, -2.85663  C1.61206, -2.64801 2.12865, -2.25358 2.48398, -1.74581  C2.84138, -1.2395 3.03752, -0.619841 3.0361, -5.11587e-08 " /><path d="M3.0361, -5.11587e-08 C3.03648, 0.458735 2.9308, 0.917106 2.7296, 1.32937  C2.47559, 1.85309 2.06686, 2.30012 1.56793, 2.59991  C1.04253, 2.91813 0.418834, 3.07033 -0.194087, 3.02989  C-0.697725, 2.99817 -1.19255, 2.8379 -1.61915, 2.56833  C-2.18479, 2.21365 -2.6262, 1.66632 -2.85302, 1.03838  C-3.06879, 0.449221 -3.09457, -0.207247 -2.92564, -0.811511  C-2.7923, -1.29419 -2.53689, -1.74243 -2.18962, -2.10321  C-1.84543, -2.46228 -1.4114, -2.7343 -0.938186, -2.88751 " /></g>
<g   fill="none"
   stroke="rgb(0, 0, 0)"
   stroke-linecap="butt"
   stroke-linejoin="miter"
   stroke-width="0.35"
   transform="scale(1, -1)"
  >
<path d="M0.9353, -2.31845 C1.37955, -2.14007 1.76983, -1.83052 2.04465, -1.43854 " /><path d="M2.44142, -0.538004 L2.4606, -0.442076 " /><path d="M2.48293, -0.291657 L2.49385, -0.175314 " /><path d="M-2.49543, 0.151069 Q-2.50066, 0.0646347 -2.4999, -0.0219451 " /><path d="M-2.49848, -0.0871831 Q-2.48985, -0.332651 -2.43373, -0.571803 " /><path d="M-2.30566, -0.966406 Q-2.12832, -1.3877 -1.81435, -1.71992 " /><path d="M-1.79287, -1.7423 L-1.69969, -1.83332 " /><path d="M5.525 0 A5.525 5.525 0 0 1 5.50546 0.464265" /><path d="M3.15479, 4.53574 C3.99017, 3.08882 4.67008, 1.91118 5.50546, 0.464265 " /><path d="M3.15479 4.53574 A5.525 5.525 0 0 1 2.35066 5" /><path d="M-2.35066, 5 C-0.679905, 5 0.679905, 5 2.35066, 5 " /><path d="M-2.35066 5 A5.525 5.525 0 0 1 -3.15479 4.53574" /><path d="M-5.50546, 0.464265 C-4.67008, 1.91118 -3.99017, 3.08882 -3.15479, 4.53574 " /><path d="M-5.50546 0.464265 A5.525 5.525 0 0 1 -5.50546 -0.464265" /><path d="M-3.15479, -4.53574 C-3.99017, -3.08882 -4.67008, -1.91118 -5.50546, -0.464265 " /><path d="M-3.15479 -4.53574 A5.525 5.525 0 0 1 -2.35066 -5" /><path d="M2.35066, -5 C0.679905, -5 -0.679905, -5 -2.35066, -5 " /><path d="M2.35066 -5 A5.525 5.525 0 0 1 3.15479 -4.53574" /><path d="M5.50546, -0.464265 C4.67008, -1.91118 3.99017, -3.08882 3.15479, -4.53574 " /><path d="M5.50546 -0.464265 A5.525 5.525 0 0 1 5.525 -1.35323e-15" /><path d="M2.4991, 0.0669961 Q2.49102, 0.363868 2.41385, 0.650647 " /><path d="M2.39378, 0.720974 L2.3717, 0.790609 " /><path d="M-1.45463, 2.03324 C-1.98931, 1.65396 -2.36172, 1.05601 -2.46633, 0.408945 " /><path d="M-2.42194, -0.619833 Q-2.39022, -0.743779 -2.34601, -0.863841 " /><path d="M-2.15147, -1.27325 Q-2.06517, -1.41906 -1.96001, -1.5519 " /><path d="M-1.74735, -1.78795 Q-1.67842, -1.85531 -1.60451, -1.91717 " /><path d="M-1.602, -1.91927 L-1.58434, -1.93387 " /><path d="M-1.5072, -1.99458 Q-1.34229, -2.11916 -1.15919, -2.21501 " /><path d="M-1.15629, -2.21653 Q-1.00515, -2.29536 -0.844722, -2.35297 " /><path d="M-0.751676, -2.38432 C-0.206698, -2.55777 0.397685, -2.53512 0.92816, -2.32132 " /><path d="M0.928272, -2.32127 L0.930622, -2.32033 " /><path d="M0.942465, -2.31555 C1.37181, -2.14154 1.7504, -1.84504 2.02223, -1.4699 " /><path d="M2.0376, -1.44852 Q2.12277, -1.32869 2.19333, -1.1997 " /><path d="M2.5, 0.00449087 Q2.49919, 0.338461 2.41114, 0.660612 " /><path d="M2.39347, 0.722006 L2.3717, 0.790609 " /><path d="M-1.45463, 2.03324 C-1.82969, 1.76573 -2.12779, 1.39214 -2.30536, 0.967111 " /><path d="M-2.45819, 0.455322 Q-2.48061, 0.334258 -2.49103, 0.211576 " /><path d="M-2.49995, -0.0156462 C-2.49801, -0.602683 -2.27979, -1.18569 -1.89577, -1.62974 " /><path d="M-1.76785, -1.76769 C-1.41694, -2.1199 -0.958459, -2.36285 -0.469979, -2.45543  C-0.00579252, -2.54503 0.483478, -2.49869 0.922588, -2.32354  C1.37044, -2.14657 1.76437, -1.83654 2.04163, -1.44283  C2.33851, -1.02451 2.50103, -0.512941 2.5, -8.88178e-16 " /><path d="M2.49996, 0.0134716 Q2.498, 0.342869 2.41114, 0.660612 " /><path d="M2.39347, 0.722006 L2.3717, 0.790609 " /><path d="M-1.45463, 2.03324 Q-1.66356, 1.88367 -1.83781, 1.69484 " /><path d="M-1.94746, 1.56761 C-2.31921, 1.10861 -2.51855, 0.51443 -2.49885, -0.0758886  C-2.48302, -0.648765 -2.26164, -1.21298 -1.88363, -1.64376 " /><path d="M-1.70006, -1.83298 C-1.3615, -2.14791 -0.933761, -2.36543 -0.47985, -2.45352  C-0.0465853, -2.53883 0.409092, -2.50609 0.825711, -2.3597 " /><path d="M0.974183, -2.30238 C1.40162, -2.12227 1.77648, -1.82008 2.0432, -1.4406 " /><circle cx ="0" cy ="0" r ="4.995" /><path d="M2.5, 7.08763e-07 Q2.49978, 0.339473 2.40946, 0.666706 " /><path d="M2.39843, 0.705346 L2.3717, 0.790609 " /><path d="M-1.45463, 2.03324 C-1.62566, 1.91074 -1.77887, 1.76899 -1.91426, 1.60798  C-2.30622, 1.14444 -2.51854, 0.534147 -2.49895, -0.0725844  C-2.48179, -0.800864 -2.12501, -1.51156 -1.55136, -1.96043  C-1.23948, -2.20771 -0.867622, -2.37856 -0.476843, -2.4541  C-0.00491406, -2.54661 0.493342, -2.49837 0.93876, -2.31705  C1.38075, -2.13881 1.76908, -1.83066 2.0431, -1.44074  C2.33906, -1.02282 2.50102, -0.512081 2.5, -8.88178e-16 " /><path d="M2.58868, 6.66349e-07 C2.65829, -0.635837 2.48045, -1.29551 2.10708, -1.82134  C1.67532, -2.43865 0.983438, -2.86552 0.235382, -2.99077 " /><circle cx ="0" cy ="0" r ="3.33333" /><path d="M0.235382, -2.99077 C0.130133, -3.00894 -0.0016032, -3.0201 -0.139216, -3.01893  C-0.395714, -3.01741 -0.674797, -2.9736 -0.938186, -2.88751 " /><path d="M-0.938186, -2.88751 C-1.15713, -2.81659 -1.36735, -2.71658 -1.55195, -2.59848  C-1.70917, -2.49853 -1.85002, -2.38246 -1.94836, -2.28123 " /><path d="M-1.94836, -2.28123 C-2.44558, -1.77436 -2.74927, -1.08362 -2.77352, -0.378624  C-2.79791, 0.22778 -2.61489, 0.839323 -2.25626, 1.32317  C-2.04234, 1.61368 -1.76745, 1.85805 -1.45463, 2.03324 " /><path d="M2.3717 0.790609 A2.5 2.5 0 0 1 -1.45463 2.03324" /><path d="M2.5, 8.10018e-07 Q2.49956, 0.405647 2.3717, 0.790609 " /><path d="M2.58868, 6.66349e-07 Q2.54437, 0.414022 2.3717, 0.790609 " /></g>

</svg>
