<svg xmlns="http://www.w3.org/2000/svg" viewBox="-6.3878968 -5.8824368 12.795333600000001 11.7648736">
<rect width="100%" height="100%" fill="white"/>
<g   fill="none"
   stroke="rgb(0, 0, 0)"
   stroke-linecap="butt"
   stroke-linejoin="miter"
   stroke-width="0.35"
   transform="scale(1, -1)"
  >
<path d="M0.9353, -2.31845 C1.37955, -2.14007 1.76983, -1.83052 2.04465, -1.43854 " /><path d="M2.44142, -0.538004 L2.4606, -0.442076 " /><path d="M2.48293, -0.291657 L2.49385, -0.175314 " /><path d="M-2.49543, 0.151069 Q-2.50066, 0.0646347 -2.4999, -0.0219451 " /><path d="M-2.49848, -0.0871831 Q-2.48985, -0.332651 -2.43373, -0.571803 " /><path d="M-2.30566, -0.966406 Q-2.12832, -1.3877 -1.81435, -1.71992 " /><path d="M-1.79287, -1.7423 L-1.69969, -1.83332 " /><path d="M5.525 0 A5.525 5.525 0 0 1 5.50546 0.464265" /><path d="M3.15479, 4.53574 C3.99017, 3.08882 4.67008, 1.91118 5.50546, 0.464265 " /><path d="M3.15479 4.53574 A5.525 5.525 0 0 1 2.35066 5" /><path d="M-2.35066, 5 C-0.679905, 5 0.679905, 5 2.35066, 5 " /><path d="M-2.35066 5 A5.525 5.525 0 0 1 -3.15479 4.53574" /><path d="M-5.50546, 0.464265 C-4.67008, 1.91118 -3.99017, 3.08882 -3.15479, 4.53574 " /><path d="M-5.50546 0.464265 A5.525 5.525 0 0 1 -5.50546 -0.464265" /><path d="M-3.15479, -4.53574 C-3.99017, -3.08882 -4.67008, -1.91118 -5.50546, -0.464265 " /><path d="M-3.15479 -4.53574 A5.525 5.525 0 0 1 -2.35066 -5" /><path d="M2.35066, -5 C0.679905, -5 -0.679905, -5 -2.35066, -5 " /><path d="M2.35066 -5 A5.525 5.525 0 0 1 3.15479 -4.53574" /><path d="M5.50546, -0.464265 C4.67008, -1.91118 3.99017, -3.08882 3.15479, -4.53574 " /><path d="M5.50546 -0.464265 A5.525 5.525 0 0 1 5.525 -1.35323e-15" /><path d="M2.4991, 0.0669961 Q2.49102, 0.363868 2.41385, 0.650647 " /><path d="M2.39378, 0.720974 L2.3717, 0.790609 " /><path d="M-1.45463, 2.03324 C-1.98931, 1.65396 -2.36172, 1.05601 -2.46633, 0.408945 " /><path d="M-2.42194, -0.619833 Q-2.39022, -0.743779 -2.34601, -0.863841 " /><path d="M-2.15147, -1.27325 Q-2.06517, -1.41906 -1.96001, -1.5519 " /><path d="M-1.74735, -1.78795 Q-1.67842, -1.85531 -1.60451, -1.91717 " /><path d="M-1.602, -1.91927 L-1.58434, -1.93387 " /><path d="M-1.5072, -1.99458 Q-1.34229, -2.11916 -1.15919, -2.21501 " /><path d="M-1.15629, -2.21653 Q-1.00515, -2.29536 -0.844722, -2.35297 " /><path d="M-0.751676, -2.38432 C-0.206698, -2.55777 0.397685, -2.53512 0.92816, -2.32132 " /><path d="M0.928272, -2.32127 L0.930622, -2.32033 " /><path d="M0.942465, -2.31555 C1.37181, -2.14154 1.7504, -1.84504 2.02223, -1.4699 " /><path d="M2.0376, -1.44852 Q2.12277, -1.32869 2.19333, -1.1997 " /><path d="M2.5, 0.00449087 Q2.49919, 0.338461 2.41114, 0.660612 " /><path d="M2.39347, 0.722006 L2.3717, 0.790609 " /><path d="M-1.45463, 2.03324 C-1.82969, 1.76573 -2.12779, 1.39214 -2.30536, 0.967111 " /><path d="M-2.45819, 0.455322 Q-2.48061, 0.334258 -2.49103, 0.211576 " /><path d="M-2.49995, -0.0156462 C-2.49801, -0.602683 -2.27979, -1.18569 -1.89577, -1.62974 " /><path d="M-1.76785, -1.76769 C-1.41694, -2.1199 -0.958459, -2.36285 -0.469979, -2.45543  C-0.00579252, -2.54503 0.483478, -2.49869 0.922588, -2.32354  C1.37044, -2.14657 1.76437, -1.83654 2.04163, -1.44283  C2.33851, -1.02451 2.50103, -0.512941 2.5, -8.88178e-16 " /><path d="M2.49996, 0.0134716 Q2.498, 0.342869 2.41114, 0.660612 " /><path d="M2.39347, 0.722006 L2.3717, 0.790609 " /><path d="M-1.45463, 2.03324 Q-1.66356, 1.88367 -1.83781, 1.69484 " /><path d="M-1.94746, 1.56761 C-2.31921, 1.10861 -2.51855, 0.51443 -2.49885, -0.0758886  C-2.48302, -0.648765 -2.26164, -1.21298 -1.88363, -1.64376 " /><path d="M-1.70006, -1.83298 C-1.3615, -2.14791 -0.933761, -2.36543 -0.47985, -2.45352  C-0.0465853, -2.53883 0.409092, -2.50609 0.825711, -2.3597 " /><path d="M0.974183, -2.30238 C1.40162, -2.12227 1.77648, -1.82008 2.0432, -1.4406 " /><circle cx ="0" cy ="0" r ="4.995" /><path d="M2.5, 7.08763e-07 Q2.49978, 0.339473 2.40946, 0.666706 " /><path d="M2.39843, 0.705346 L2.3717, 0.790609 " /><path d="M-1.45463, 2.03324 C-1.62566, 1.91074 -1.77887, 1.76899 -1.91426, 1.60798  C-2.30622, 1.14444 -2.51854, 0.534147 -2.49895, -0.0725844  C-2.48179, -0.800864 -2.12501, -1.51156 -1.55136, -1.96043  C-1.23948, -2.20771 -0.867622, -2.37856 -0.476843, -2.4541  C-0.00491406, -2.54661 0.493342, -2.49837 0.93876, -2.31705  C1.38075, -2.13881 1.76908, -1.83066 2.0431, -1.44074  C2.33906, -1.02282 2.50102, -0.512081 2.5, -8.88178e-16 " /><path d="M2.58868, 6.66349e-07 C2.65829, -0.635837 2.48045, -1.29551 2.10708, -1.82134  C1.67532, -2.43865 0.983438, -2.86552 0.235382, -2.99077 " /><circle cx ="0" cy ="0" r ="3.33333" /><path d="M0.235382, -2.99077 C0.130133, -3.00894 -0.0016032, -3.0201 -0.139216, -3.01893  C-0.395714, -3.01741 -0.674797, -2.9736 -0.938186, -2.88751 " /><path d="M-0.938186, -2.88751 C-1.15713, -2.81659 -1.36735, -2.71658 -1.55195, -2.59848  C-1.70917, -2.49853 -1.85002, -2.38246 -1.94836, -2.28123 " /><path d="M-1.94836, -2.28123 C-2.44558, -1.77436 -2.74927, -1.08362 -2.77352, -0.378624  C-2.79791, 0.22778 -2.61489, 0.839323 -2.25626, 1.32317  C-2.04234, 1.61368 -1.76745, 1.85805 -1.45463, 2.03324 " /><path d="M2.3717 0.790609 A2.5 2.5 0 0 1 -1.45463 2.03324" /><path d="M2.5, 8.10018e-07 Q2.49956, 0.405647 2.3717, 0.790609 " /><path d="M2.58868, 6.66349e-07 Q2.54437, 0.414022 2.3717, 0.790609 " /></g>

</svg>
