<svg xmlns="http://www.w3.org/2000/svg" viewBox="-11.337136 -9.959346 17.493322 17.227961999999998">
<rect width="100%" height="100%" fill="white"/>
<g   fill="none"
   stroke="rgb(0, 0, 0)"
   stroke-linecap="butt"
   stroke-linejoin="miter"
   stroke-width="0.35"
   transform="scale(1, -1)"
  >
<path id= "1" d=" M 3.5 6.06218 L 1.37868 7.28692 " />
<path id= "2" d=" M -3.5 -6.06218 L -5.62132 -4.83743 " />
</g>
<g   fill="none"
   stroke="rgb(0, 0, 0)"
   stroke-linecap="butt"
   stroke-linejoin="miter"
   stroke-width="0.35"
   transform="scale(1, -1)"
  >
<path d="M2.82843 4.08248 A7 4.04145 60 0 1 1.37868 7.28692" />
<path d="M1.37868 7.28692 A7 4.04145 60 0 1 -1.44833 7.2757" />
<path d="M-7.0251 -2.38356 A7 4.04145 60 0 1 -5.62132 -4.83743" />
<path d="M-5.62132 -4.83743 A7 4.04145 60 0 1 2.82843 4.08248" />
<path d="M4.94975 2.85774 A7 4.04145 60 0 1 3.5 6.06218" />
<path d="M-3.5 -6.06218 A7 4.04145 60 0 1 4.94975 2.85774" />
<path id= "7" d=" M 1.96116 3.58177 L -0.0800789 6.48574 " />
<path id= "8" d=" M -0.0800789 -1.67923 L 1.96116 3.58177 " />
<path id= "9" d=" M -4.16256 -4.03625 L -0.0800789 -1.67923 " />
<path id= "10" d=" M 1.96116 3.58177 L -1.9657 5.84894 " />
<path d="M-3.3021, 7.48324 C-2.97736, 7.0221 -2.55371, 6.50401 -1.9657, 5.84894 " /><path d="M-4.00694, 8.75291 C-3.84829, 8.34574 -3.62485, 7.94324 -3.3021, 7.48324 " /><path id= "13" d=" M -0.0800789 6.48574 L -4.00694 8.75291 " />
<path d="M-6.36396, 7.75672 C-5.71548, 8.12997 -4.96828, 8.44577 -4.00694, 8.75291 " /><path d="M-8.08942, 6.39589 C-7.55744, 6.95092 -7.01045, 7.38232 -6.36396, 7.75672 " /><path d="M-9.42582, 3.94771 C-9.10109, 4.78154 -8.67743, 5.55763 -8.08942, 6.39589 " /><path d="M-10.1307, 1.1349 C-9.97201, 2.22104 -9.74857, 3.11274 -9.42582, 3.94771 " /><path d="M-9.42582, -0.134774 C-9.74857, 0.325226 -9.97201, 0.727725 -10.1307, 1.1349 " /><path d="M-8.08942, -1.76908 C-8.67743, -1.11401 -9.10109, -0.595921 -9.42582, -0.134774 " /><path id= "20" d=" M -4.16256 -4.03625 L -8.08942 -1.76908 " />
<path d="M-6.36396, -0.408248 C-7.01045, -0.782648 -7.55744, -1.21404 -8.08942, -1.76908 " /><path d="M-4.00694, 0.587947 C-4.96828, 0.280809 -5.71548, -0.034995 -6.36396, -0.408248 " /><path id= "23" d=" M -0.0800789 -1.67923 L -4.00694 0.587947 " />
<path d="M-3.3021, 3.40076 C-3.62485, 2.56579 -3.84829, 1.6741 -4.00694, 0.587947 " /><path d="M-1.9657, 5.84894 C-2.55371, 5.01069 -2.97736, 4.23459 -3.3021, 3.40076 " /><path d="M-3.3021 7.48324 A5 2.88675 60 0 1 -6.36396 7.75672" />
<path d="M-2.82843 5.71548 A5 2.88675 60 0 1 -3.3021 7.48324" />
<path d="M-6.36396 7.75672 A5 2.88675 60 0 1 -9.42582 3.94771" />
<path d="M-9.42582 3.94771 A5 2.88675 60 0 1 -9.42582 -0.134774" />
<path d="M-9.42582 -0.134774 A5 2.88675 60 0 1 -6.36396 -0.408248" />
<path d="M-6.36396 -0.408248 A5 2.88675 60 0 1 -3.3021 3.40076" />
<path d="M-3.3021 3.40076 A5 2.88675 60 0 1 -2.82843 5.71548" />
<g transform = "rotate(60, -6.36396, 3.67423)">
<ellipse cx ="-6.36396" cy ="3.67423" rx ="3.1875"  ry ="1.8403"/>
</g>
<path d="M-4.25131, 4.67117 C-4.25995, 3.96789 -4.55973, 3.1239 -5.02967, 2.46457  C-5.47372, 1.83117 -6.06084, 1.38363 -6.55905, 1.29277 " /><path d="M-4.25131, 4.67117 C-4.2438, 5.06989 -4.32459, 5.42306 -4.48389, 5.68686  C-4.64571, 5.95686 -4.88875, 6.13325 -5.18263, 6.19513  C-5.48501, 6.25998 -5.84052, 6.20317 -6.2039, 6.03392  C-6.57861, 5.86043 -6.96064, 5.56794 -7.30069, 5.19704 " /><path d="M-8.32174, 3.14988 C-8.33691, 3.15065 -8.32369, 3.25825 -8.29439, 3.38114  C-8.25854, 3.5336 -8.19947, 3.71568 -8.12399, 3.8981  C-7.95398, 4.31259 -7.69483, 4.73905 -7.4032, 5.08091 " /><path d="M-7.4032, 5.08091 L-7.30069, 5.19704 " /><path d="M-7.73381, 3.10858 L-8.32174, 3.14988 " /><path d="M-7.73381 3.10858 A2.45875 1.41956 60 0 1 -7.29583 1.37313" />
<path d="M-7.29583 1.37313 A2.45875 1.41956 60 0 1 -6.55905 1.29277" />
<path d="M-4.51852, 5.44172 C-4.95934, 5.64371 -5.57458, 5.50187 -6.13909, 5.07909  C-6.51745, 4.79948 -6.86971, 4.40215 -7.13483, 3.96338  C-7.44993, 3.44559 -7.63916, 2.874 -7.66155, 2.39772  C-7.68738, 1.91128 -7.54024, 1.52953 -7.2661, 1.35678 " /><path d="M-4.30599, 5.23395 Q-4.43293, 5.39828 -4.60424, 5.49738 " /><path d="M-4.60424, 5.49738 C-4.81735, 5.62085 -5.07789, 5.66171 -5.35916, 5.61662  C-5.67334, 5.56711 -6.01277, 5.40979 -6.33385, 5.16772  C-6.97613, 4.69095 -7.52493, 3.86803 -7.73381, 3.10858 " /><path d="M-4.28382, 5.12382 C-4.64265, 5.11735 -5.04956, 4.95527 -5.4319, 4.67091  C-5.80913, 4.39214 -6.16043, 3.99637 -6.42529, 3.55915  C-6.74183, 3.04029 -6.93202, 2.46695 -6.95444, 1.98942  C-6.96898, 1.70268 -6.92509, 1.45047 -6.82861, 1.25805 " /><path d="M-4.30262, 5.21914 C-4.70282, 5.26473 -5.18274, 5.0956 -5.62786, 4.75863  C-6.01721, 4.46639 -6.37734, 4.04987 -6.64218, 3.59377  C-6.94419, 3.07747 -7.12009, 2.51465 -7.13293, 2.04919  C-7.14303, 1.72953 -7.07845, 1.45603 -6.94935, 1.26329 " /><path d="M-4.2564, 4.54428 C-4.8018, 4.29485 -5.35128, 3.76297 -5.72353, 3.14207  C-6.08084, 2.55426 -6.27285, 1.89856 -6.24821, 1.39058 " /><path d="M-4.25087, 4.72096 C-4.87188, 4.50634 -5.52694, 3.89783 -5.93947, 3.17797  C-6.31099, 2.54196 -6.48493, 1.83858 -6.41036, 1.33023 " /><path d="M-4.38723, 3.80189 C-4.9827, 3.29272 -5.46581, 2.49971 -5.6388, 1.78468 " /><path d="M-4.52769, 3.39005 C-4.87451, 3.01061 -5.16087, 2.54351 -5.33644, 2.08091 " /></g>

</svg>
