<svg xmlns="http://www.w3.org/2000/svg" viewBox="-10.120000000000001 -8.120000000000001 11.24 16.240000000000002">
<rect width="100%" height="100%" fill="white"/>
<g   fill="none"
   stroke="rgb(0, 0, 0)"
   stroke-linecap="butt"
   stroke-linejoin="miter"
   stroke-width="0.35"
   transform="scale(1, -1)"
  >
<path id= "1" d=" M 0 -7 L -3 -7 " />
<path id= "2" d=" M -9 -5 L -8.55342 -5.7735 " />
</g>
<g   fill="none"
   stroke="rgb(0, 0, 0)"
   stroke-linecap="butt"
   stroke-linejoin="miter"
   stroke-width="0.35"
   transform="scale(1, -1)"
  >
<path d="M-3, -7 L-3, -6.8245  L-3, -6.30678  L-3, -5.47282  L-3, -4.36443  L-3, -3.03719  L-3, -1.55765  L-3, -1.33227e-15  L-3, 1.55765  L-3, 3.03719  L-3, 4.36443  L-3, 5.47282  L-3, 6.30678  L-3, 6.8245  L-3, 7 " /><path id= "2" d=" M 0 7 L -3 7 " />
<path d="M0, -7 L0, -6.8245  L0, -6.30678  L0, -5.47282  L0, -4.36443  L0, -3.03719  L0, -1.55765  L0, -1.33227e-15  L0, 1.55765  L0, 3.03719  L0, 4.36443  L0, 5.47282  L0, 6.30678  L0, 6.8245  L0, 7 " /><path id= "4" d=" M -3 5.7735 L -8.55342 5.7735 " />
<path id= "5" d=" M -3 -5.7735 L -8.55342 -5.7735 " />
<path d="M-9, -4.33013 C-8.9986, -4.78797 -8.85702, -5.24553 -8.55342, -5.7735 " /><path d="M-8.55342, -2.88675 C-8.85702, -3.41472 -8.9986, -3.87228 -9, -4.33013 " /><path id= "8" d=" M -3 -2.88675 L -8.55342 -2.88675 " />
<path d="M-9, -4.58002e-08 C-8.9986, -0.915684 -8.85702, -1.83081 -8.55342, -2.88675 " /><path d="M-8.55342, 2.88675 C-8.85702, 1.83081 -8.9986, 0.915684 -9, -4.58002e-08 " /><path id= "11" d=" M -3 2.88675 L -8.55342 2.88675 " />
<path d="M-9, 4.33013 C-8.9986, 3.87228 -8.85702, 3.41472 -8.55342, 2.88675 " /><path d="M-8.55342, 5.7735 C-8.85702, 5.24553 -8.9986, 4.78797 -9, 4.33013 " /><path id= "14" d=" M -9 5 L -8.55342 5.7735 " />
<path d="M-9, -5 C-9, -4.9991 -9, -4.94171 -9, -4.82963  C-9, -4.71582 -9, -4.54755 -9, -4.33013 " /><path d="M-9, -4.33013 Q-9, -4.23066 -9, -4.13119  Q-9, -4.02018 -9, -3.90916  Q-9, -3.78721 -9, -3.66526  Q-9, -3.53306 -9, -3.40086  Q-9, -3.25916 -9, -3.11745  Q-9, -2.96702 -9, -2.8166  Q-9, -2.6583 -9, -2.5  Q-9, -2.33471 -9, -2.16942  Q-9, -1.99806 -9, -1.82671  Q-9, -1.65024 -9, -1.47378  Q-9, -1.29319 -9, -1.1126  Q-9, -0.562676 -9, -4.58002e-08 " /><path d="M-9, -4.58002e-08 Q-9, 0.562675 -9, 1.1126  Q-9, 1.29319 -9, 1.47378  Q-9, 1.65024 -9, 1.82671  Q-9, 1.99806 -9, 2.16942  Q-9, 2.33471 -9, 2.5  Q-9, 2.6583 -9, 2.8166  Q-9, 2.96702 -9, 3.11745  Q-9, 3.25916 -9, 3.40086  Q-9, 3.53306 -9, 3.66526  Q-9, 3.78721 -9, 3.90916  Q-9, 4.02018 -9, 4.13119  Q-9, 4.23066 -9, 4.33013 " /><path d="M-9, 4.33013 C-9, 4.54755 -9, 4.71582 -9, 4.82963  C-9, 4.94171 -9, 4.9991 -9, 5 " /></g>

</svg>
