<svg xmlns="http://www.w3.org/2000/svg" viewBox="-8.120000000000001 -8.120000000000001 16.240000000000002 16.240000000000002">
<rect width="100%" height="100%" fill="white"/>
<g   fill="none"
   stroke="rgb(0, 0, 0)"
   stroke-linecap="butt"
   stroke-linejoin="miter"
   stroke-width="0.35"
   transform="scale(1, -1)"
  >
<path d="M-2.58353, 1.59476 L-2.59566, 1.57495 " /></g>
<g   fill="none"
   stroke="rgb(0, 0, 0)"
   stroke-linecap="butt"
   stroke-linejoin="miter"
   stroke-width="0.35"
   transform="scale(1, -1)"
  >
<circle cx ="0" cy ="0" r ="7" /><path d="M4.33013, 2.5 C4.78797, 1.70699 5.24553, 0.914468 5.7735, 3.84547e-13 " /><path d="M2.88675, 5 C3.41472, 4.08553 3.87228, 3.29301 4.33013, 2.5 " /><path d="M3.70531e-08, 5 C0.915684, 5 1.83081, 5 2.88675, 5 " /><path d="M-2.88675, 5 C-1.83081, 5 -0.915684, 5 3.70531e-08, 5 " /><path d="M-4.33013, 2.5 C-3.87228, 3.29301 -3.41472, 4.08553 -2.88675, 5 " /><path d="M-5.7735, 3.87045e-13 C-5.24553, 0.914468 -4.78797, 1.70699 -4.33013, 2.5 " /><path d="M-4.33013, -2.5 C-4.78797, -1.70699 -5.24553, -0.914468 -5.7735, -3.83693e-13 " /><path d="M-2.88675, -5 C-3.41472, -4.08553 -3.87228, -3.29301 -4.33013, -2.5 " /><path d="M-4.58002e-08, -5 C-0.915684, -5 -1.83081, -5 -2.88675, -5 " /><path d="M2.88675, -5 C1.83081, -5 0.915684, -5 -4.58002e-08, -5 " /><path d="M4.33013, -2.5 C3.87228, -3.29301 3.41472, -4.08553 2.88675, -5 " /><path d="M5.7735, -3.85914e-13 C5.24553, -0.914468 4.78797, -1.70699 4.33013, -2.5 " /><path d="M4.33013 2.5 A5 5 0 0 1 3.70531e-08 5" /><path d="M5 0 A5 5 0 0 1 4.33013 2.5" /><path d="M3.70531e-08 5 A5 5 0 0 1 -4.33013 2.5" /><path d="M-4.33013 2.5 A5 5 0 0 1 -4.33013 -2.5" /><path d="M-4.33013 -2.5 A5 5 0 0 1 -4.58002e-08 -5" /><path d="M-4.58002e-08 -5 A5 5 0 0 1 4.33013 -2.5" /><path d="M4.33013 -2.5 A5 5 0 0 1 5 -1.22465e-15" /><path d="M-1.60635, -1.86147 Q-1.5478, -1.912 -1.48618, -1.95875 " /><path d="M-0.481097, -2.41122 C-0.0175643, -2.50451 0.472542, -2.45959 0.911395, -2.2836  C1.3565, -2.10684 1.74708, -1.79627 2.01957, -1.40242  C2.20622, -1.13396 2.33837, -0.82783 2.40573, -0.507868 " /><circle cx ="0" cy ="0" r ="3.1875" /><path d="M2.71486, -8.88178e-16 C2.694, -0.418367 2.57413, -0.830432 2.3673, -1.19219  C2.16497, -1.54755 1.87919, -1.85379 1.53984, -2.07788  C0.887787, -2.51557 0.0329465, -2.62401 -0.696636, -2.358 " /><path d="M2.71486, 5.19674e-07 C2.73924, 0.469264 2.63859, 0.945326 2.42678, 1.36758  C2.21168, 1.79895 1.88158, 2.17321 1.47945, 2.44332  C1.06571, 2.72268 0.576685, 2.89074 0.0764159, 2.92678  C-0.439477, 2.96523 -0.965842, 2.86324 -1.43298, 2.63566 " /><path d="M-2.87697, 0.850402 C-2.89036, 0.854017 -2.86638, 0.971171 -2.82204, 1.09806  C-2.77, 1.24917 -2.69006, 1.42131 -2.58963, 1.58485 " /><path d="M-2.58963, 1.58485 C-2.32286, 2.02703 -1.89643, 2.41423 -1.43298, 2.63566 " /><path d="M-2.35801, 0.696594 L-2.87697, 0.850402 " /><path d="M-2.35801 0.696594 A2.45875 2.45875 0 0 1 -0.696636 -2.358" /><path d="M2.45875, 0.000684964 C2.46042, 0.589233 2.24069, 1.17483 1.85223, 1.617 " /><path d="M1.76988, 1.70675 L1.73558, 1.74161 " /><path d="M1.6013, 1.86582 Q1.4695, 1.97892 1.32312, 2.07239 " /><path d="M1.149, 2.17376 Q1.02725, 2.23811 0.899078, 2.28847 " /><path d="M0.532652, 2.40036 Q0.395142, 2.43087 0.255053, 2.44549 " /><path d="M-0.0373402, 2.45847 Q-0.194067, 2.45608 -0.349229, 2.43382 " /><path d="M-0.542455, 2.39816 L-0.550877, 2.39624 " /><path d="M-0.644296, 2.37283 L-0.675834, 2.36404 " /><path d="M-0.891694, 2.29136 Q-1.31751, 2.12487 -1.65597, 1.81748 " /><path d="M-1.9739, 1.466 Q-2.08419, 1.31746 -2.17105, 1.15411 " /><path d="M-2.30384, 0.858936 Q-2.33375, 0.778708 -2.35801, 0.696594 " /><path d="M-0.696636, -2.358 C-0.21349, -2.50178 0.313838, -2.49118 0.790815, -2.3281 " /><path d="M0.961173, -2.26309 C1.38809, -2.08256 1.76136, -1.77805 2.02395, -1.39609  C2.30587, -0.989042 2.45969, -0.495135 2.45875, 4.44089e-16 " /><path d="M2.45875, 9.86451e-07 C2.46055, 0.585844 2.24306, 1.16886 1.85798, 1.61039  C1.56418, 1.95033 1.17513, 2.2067 0.74686, 2.34257  C0.330807, 2.47582 -0.120952, 2.49489 -0.546757, 2.39719  C-1.06916, 2.27934 -1.54931, 1.98447 -1.89069, 1.57186  C-2.10376, 1.31588 -2.26384, 1.01606 -2.35801, 0.696594 " /><path d="M2.45875, 8.76843e-07 C2.46055, 0.585844 2.24306, 1.16886 1.85798, 1.61039  C1.5675, 1.94647 1.18395, 2.20092 0.761381, 2.33789  C0.340847, 2.47548 -0.11704, 2.4961 -0.548237, 2.39685  C-1.13806, 2.26403 -1.67242, 1.90368 -2.01664, 1.40664 " /><path d="M-2.29557, 0.880792 Q-2.33044, 0.789928 -2.35801, 0.696594 " /><path d="M-0.696636, -2.358 C-0.172962, -2.51414 0.402546, -2.48773 0.909712, -2.28427  C1.35871, -2.10637 1.7523, -1.79229 2.02541, -1.39398  C2.30641, -0.987335 2.45968, -0.49427 2.45875, -1.33227e-15 " /><path d="M2.45875, 0.000782766 C2.4605, 0.59785 2.23411, 1.19174 1.83534, 1.63614 " /><path d="M1.72885, 1.74829 Q1.67765, 1.79892 1.62358, 1.84646 " /><path d="M1.60451, 1.86306 Q1.26792, 2.15208 0.851979, 2.30642 " /><path d="M0.732093, 2.34723 Q0.586773, 2.39255 0.436975, 2.41961 " /><path d="M0.292151, 2.44133 Q0.0704049, 2.46782 -0.152495, 2.45402 " /><path d="M-0.318798, 2.43799 Q-0.434304, 2.42289 -0.547859, 2.39694 " /><path d="M-0.550536, 2.39632 C-1.14386, 2.26215 -1.68074, 1.89759 -2.0243, 1.39559 " /><path d="M-2.29557, 0.880791 Q-2.33044, 0.789928 -2.35801, 0.696594 " /><path d="M-0.696636, -2.358 C-0.18272, -2.51116 0.381167, -2.48878 0.88134, -2.29536 " /><path d="M1.14148, -2.17772 C1.49303, -1.9939 1.79861, -1.72329 2.02362, -1.39657  C2.30574, -0.989427 2.45969, -0.495328 2.45875, -8.88178e-16 " /><path d="M2.45875, 0.000782759 C2.46132, 0.655919 2.18691, 1.30606 1.71568, 1.76122 " /><path d="M1.54207, 1.91507 Q1.41565, 2.01684 1.27697, 2.10114 " /><path d="M1.12236, 2.18764 Q1.04587, 2.22688 0.966826, 2.26069 " /><path d="M0.786768, 2.32947 Q0.640635, 2.37882 0.489482, 2.40953 " /><path d="M0.292156, 2.44133 Q0.0974603, 2.4646 -0.0984685, 2.45678 " /><path d="M-0.342201, 2.43482 C-1.01545, 2.34342 -1.64128, 1.95679 -2.0243, 1.39559 " /><path d="M-2.29557, 0.880791 Q-2.33044, 0.789928 -2.35801, 0.696594 " /><path d="M-0.696636, -2.358 Q-0.595237, -2.38795 -0.49165, -2.40909 " /><path d="M0.105614, -2.45648 C0.387485, -2.444 0.659292, -2.38508 0.921034, -2.27973  C1.59875, -2.01043 2.13875, -1.42251 2.3496, -0.724441 " /><path d="M2.42394, -0.412277 L2.42717, -0.392822 " /><path d="M2.44325, -0.275629 L2.44538, -0.256025 " /></g>

</svg>
