<svg xmlns="http://www.w3.org/2000/svg" viewBox="-18.121739199999997 -12.3637392 24.389568399999998 17.746558399999998">
<rect width="100%" height="100%" fill="white"/>
<g   fill="none"
   stroke="rgb(0, 0, 0)"
   stroke-linecap="butt"
   stroke-linejoin="miter"
   stroke-width="0.35"
   transform="scale(1, -1)"
  >
<path d="M3.74984, 2.31683 L3.74978, 2.34211 " /><path d="M-4.20822, -3.70078 C-3.98427, -4.10417 -3.67022, -4.43388 -3.28955, -4.65376  C-3.02393, -4.80688 -2.73569, -4.90562 -2.42483, -4.94998  C-2.1046, -4.99473 -1.77437, -4.98297 -1.43413, -4.91471  C-0.970687, -4.82243 -0.498488, -4.62903 -0.0368158, -4.34992  C0.979003, -3.73893 1.94495, -2.69694 2.636, -1.48701  C3.34216, -0.258955 3.75262, 1.1227 3.74984, 2.31683 " /><path id= "3" d=" M -5.73173 -0.965836 L -5.569 -1.25797 " />
<path id= "4" d=" M -5.08057 -2.13477 L -4.20822 -3.70078 " />
<path id= "5" d=" M 4.58579 6.77764 L 4.58579 4.78669 " />
<path d="M2.239, 10.6817 C3.03478, 10.1202 3.66332, 9.45651 4.06896, 8.71911  C4.40622, 8.10791 4.58651, 7.44433 4.58579, 6.77764 " /><path d="M-5.83428, -0.756105 Q-5.78801, -0.86475 -5.73173, -0.965836 " /><path d="M-3.14319, 5.16093 C-3.67716, 4.90213 -4.19749, 4.47577 -4.64557, 3.94239  C-5.31889, 3.1451 -5.81559, 2.10956 -5.98272, 1.14249 " /><path id= "9" d=" M -5.83749 1.74953 L -13.1808 3.72651 " />
<path d="M-15.9739, -2.75251 C-14.2897, -3.55119 -12.1617, -3.98809 -10.0226, -3.98661  C-8.10436, -3.9892 -6.19181, -3.64097 -4.60284, -2.99237 " /><path id= "11" d=" M -0.554793 1.95615 L -4.0032 6.22573 " />
<path d="M2.68919, 1.22602 C3.27768, 1.71149 3.74984, 2.26084 4.07581, 2.85771  C4.40868, 3.46542 4.58649, 4.12454 4.58579, 4.78669 " /><path d="M2.239 10.6817 A0.8128 0.8128 0 0 1 1.71233 10.8284" /><path d="M-3.72455, 9.4592 C-2.17074, 10.212 -0.266036, 10.6884 1.71233, 10.8284 " /><path d="M-3.72455 9.4592 A0.8128 0.8128 0 0 1 -4.18368 8.72738" /><path d="M-13.1808 3.72651 A0.8128 0.8128 0 0 1 -13.8536 3.61073" /><path d="M-16.4216, 0.143812 C-16.1387, 1.47129 -15.2104, 2.67824 -13.8536, 3.61073 " /><path d="M-16.4216 0.143812 A0.8128 0.8128 0 0 1 -16.4397 -0.0265955" /><path d="M-16.4397, -0.0265955 L-16.4397, -2.01754 " /><path d="M-16.4397 -2.01754 A0.8128 0.8128 0 0 1 -15.9739 -2.75251" /><path d="M-4.18368 6.73644 A0.8128 0.8128 0 0 1 -4.0032 6.22573" /><path id= "22" d=" M -4.18368 6.73644 L -4.18368 8.72738 " />
</g>
<g   fill="none"
   stroke="rgb(0, 0, 0)"
   stroke-linecap="butt"
   stroke-linejoin="miter"
   stroke-width="0.35"
   transform="scale(1, -1)"
  >
<path d="M2.68919, 1.22602 C2.49309, 1.06476 2.23305, 1.00724 1.99992, 1.05227 " /><path d="M1.99992, 1.05227 Q1.16282, 1.2124 0.448936, 1.34335 " /><path d="M-0.554793, 1.95615 C-0.29034, 1.63645 0.067028, 1.41779 0.448936, 1.34335 " /><path d="M-5.569, -1.25797 C-5.4248, -1.51587 -5.29423, -1.74689 -5.20043, -1.91831 " /><path d="M-5.08057, -2.13477 Q-5.1421, -2.02432 -5.20043, -1.91831 " /><path d="M-5.90675, -0.546725 Q-5.87669, -0.653474 -5.83428, -0.756105 " /><path d="M-5.98272, 1.14249 C-6.01767, 0.932812 -6.03457, 0.711427 -6.03341, 0.478334  C-6.03219, 0.131846 -6.00075, -0.223187 -5.90675, -0.546725 " /><path d="M-1.35689, 2.67992 C-1.87669, 2.39176 -2.37903, 1.87225 -2.72166, 1.28781  C-3.03256, 0.763062 -3.21194, 0.193363 -3.22331, -0.272099 " /><path d="M-1.41323, 2.3709 C-1.81002, 2.08628 -2.17935, 1.67748 -2.45587, 1.22672  C-2.72706, 0.787084 -2.9085, 0.310206 -2.97221, -0.112919 " /><path d="M-2.90489 4.86588 A3.175 1.83309 60 0 1 -4.67527 3.55525" />
<path d="M-5.68535 1.36675 A3.175 1.83309 60 0 1 -2.08186 0.834603" />
<path d="M-2.08186 0.834603 A3.175 1.83309 60 0 1 -1.76372 1.38564" />
<path d="M-1.76372 1.38564 A3.175 1.83309 60 0 1 -1.28902 2.86522" />
<path d="M-5.68535, 1.36675 L-5.68534, 1.36685 " /><path d="M-5.68534, 1.36685 C-5.67516, 1.46707 -5.65435, 1.58339 -5.62293, 1.7158  C-5.56363, 1.96331 -5.46781, 2.23822 -5.34486, 2.50395  C-5.24361, 2.7236 -5.12338, 2.93903 -4.99544, 3.13276  C-4.90544, 3.26849 -4.81725, 3.38784 -4.73087, 3.49082 " /><path d="M-4.73087, 3.49082 Q-4.70207, 3.52522 -4.67535, 3.55517 " /><path d="M-4.67527, 3.55525 L-4.67535, 3.55517 " /><path d="M-1.73174, 3.41337 C-2.00979, 3.34162 -2.30028, 3.19494 -2.57698, 2.98882  C-2.98291, 2.68782 -3.35684, 2.25792 -3.6292, 1.79005  C-3.93099, 1.27544 -4.10629, 0.719209 -4.12086, 0.261382  C-4.1313, -0.0322953 -4.07768, -0.285507 -3.96786, -0.470558 " /><path d="M-1.60445, 3.25576 C-2.23934, 3.06018 -2.91551, 2.46466 -3.35241, 1.7476  C-3.67203, 1.23102 -3.86558, 0.663128 -3.8935, 0.190674  C-3.90867, -0.0645099 -3.88018, -0.283822 -3.80803, -0.467262 " /><path d="M-2.79034, 4.72406 C-3.3985, 4.65454 -4.10221, 4.21291 -4.67527, 3.55525 " /><path d="M-2.19184, 3.98303 C-2.58682, 3.99917 -3.04418, 3.82783 -3.4697, 3.51123  C-3.87145, 3.21457 -4.2423, 2.79156 -4.51468, 2.32987 " /><path d="M-4.51468, 2.32987 C-4.94473, 2.09778 -5.35067, 1.75503 -5.68535, 1.36675 " /><path d="M-1.33213, 2.91859 C-1.365, 2.42064 -1.52214, 1.87088 -1.77402, 1.36524 " /><path d="M-2.06833, 0.855278 C-2.45788, 0.265888 -2.96642, -0.188409 -3.43559, -0.372659  C-3.7513, -0.498978 -4.04697, -0.505242 -4.27521, -0.390805 " /><path d="M-4.51468 2.32987 A2.48759 1.43621 60 0 1 -4.40065 -0.331706" />
<path d="M-4.40065 -0.331706 A2.48759 1.43621 60 0 1 -4.27521 -0.390805" />
<path d="M-2.08643, 3.85252 C-2.44747, 3.83497 -2.85059, 3.6712 -3.22936, 3.39328  C-3.6158, 3.11145 -3.97494, 2.71251 -4.24611, 2.27308  C-4.56885, 1.7537 -4.76419, 1.18167 -4.79168, 0.706566  C-4.82342, 0.211618 -4.67385, -0.172376 -4.39333, -0.335887 " /></g>

</svg>
