<svg xmlns="http://www.w3.org/2000/svg" viewBox="-14.760464 -15.208064 16.858128 30.416128">
<rect width="100%" height="100%" fill="white"/>
<g   fill="none"
   stroke="rgb(0, 0, 0)"
   stroke-linecap="butt"
   stroke-linejoin="miter"
   stroke-width="0.35"
   transform="scale(1, -1)"
  >
<path d="M-0.901102, -5.61661 C-0.702828, -5.71022 -0.456824, -5.68965 -0.276849, -5.56441  C-0.105629, -5.44931 0.00152312, -5.24636 1.38778e-17, -5.04005 " /><path id= "2" d=" M -1.2119 -5.47316 L -0.901102 -5.61661 " />
<path d="M-4.85763, -3.6749 Q-4.95203, -3.52086 -4.953, -3.34021 " /></g>
<g   fill="none"
   stroke="rgb(0, 0, 0)"
   stroke-linecap="butt"
   stroke-linejoin="miter"
   stroke-width="0.35"
   transform="scale(1, -1)"
  >
<path d="M0, 5.04005 L0, 5.02989  L0, 4.99943  L0, 4.94881  L0, 4.87823  L0, 4.78797  L0, 4.6784  L0, 4.54996  L0, 4.40317  L0, 4.23861  L0, 4.05696  L0, 3.85894  L0, 3.64536  L0, 3.41707  L0, 3.175 " /><path d="M0, -5.04005 L0, -4.91369  L0, -4.54093  L0, -3.94047  L0, -3.14242  L0, -2.1868  L0, -1.12152  L0, -1.33227e-15  L0, 1.12152  L0, 2.1868  L0, 3.14242  L0, 3.94047  L0, 4.54093  L0, 4.91369  L0, 5.04005 " /><path d="M0 5.04005 A0.635 0.635 0 0 1 -0.901102 5.61661" /><path id= "4" d=" M -0.901102 5.61661 L -1.2119 5.47316 " />
<path d="M-1.18638, 5.34772 Q-1.21161, 5.47343 -1.2119, 5.47316 " /><path d="M-1.18638, 5.34772 C-1.17865, 5.31156 -1.22573, 5.24022 -1.30781, 5.1572  C-1.44709, 5.01586 -1.67437, 4.8509 -1.90661, 4.73492 " /><path d="M-1.90661, 4.73492 Q-2.69465, 4.33912 -3.35981, 3.9947 " /><path d="M-4.5841, 3.62358 C-4.38848, 3.63356 -4.14383, 3.68751 -3.90047, 3.76774  C-3.71911, 3.82722 -3.53889, 3.90288 -3.35981, 3.9947 " /><path d="M-4.5841, -3.62358 C-4.38848, -3.63356 -4.14383, -3.68751 -3.90047, -3.76774  C-3.71911, -3.82722 -3.53889, -3.90288 -3.35981, -3.9947 " /><path d="M-1.90661, -4.73492 Q-2.69465, -4.33912 -3.35981, -3.9947 " /><path d="M-1.18638, -5.34772 C-1.17865, -5.31156 -1.22573, -5.24022 -1.30781, -5.1572  C-1.44709, -5.01586 -1.67437, -4.8509 -1.90661, -4.73492 " /><path d="M-1.18638, -5.34772 Q-1.20647, -5.44838 -1.21085, -5.46817 " /><path d="M-1.2119, -5.47316 Q-1.21161, -5.47344 -1.18638, -5.34772 " /><path d="M-1.18638, 5.34772 C-1.17865, 5.31156 -1.22573, 5.24022 -1.30781, 5.1572  C-1.44709, 5.01586 -1.67437, 4.8509 -1.90661, 4.73492 " /><path id= "15" d=" M -4.85763 3.6749 L -12.1312 6.32226 " />
<path d="M-4.72631, -3.6271 Q-4.68211, -3.61544 -4.5841, -3.62358 " /><path d="M-4.5841, 3.62358 Q-4.68211, 3.61544 -4.72631, 3.6271 " /><path d="M-4.72631, 3.6271 C-4.82418, 3.66273 -4.85667, 3.67455 -4.85763, 3.6749 " /><path d="M-4.85763 3.6749 A0.635 0.635 0 0 1 -4.953 3.34021" /><path d="M-4.953, -3.34021 L-4.953, -3.25646  L-4.953, -3.00942  L-4.953, -2.61148  L-4.953, -2.08258  L-4.953, -1.44926  L-4.953, -0.743266  L-4.953, -3.77476e-15  L-4.953, 0.743266  L-4.953, 1.44926  L-4.953, 2.08258  L-4.953, 2.61148  L-4.953, 3.00942  L-4.953, 3.25646  L-4.953, 3.34021 " /><path d="M-4.85763, -3.6749 C-4.85667, -3.67455 -4.82418, -3.66273 -4.72631, -3.6271 " /><path id= "22" d=" M -4.85763 -3.6749 L -12.1312 -6.32226 " />
<path d="M-9.71708 -13.1104 A9.67671 9.67671 0 0 1 -1.18638 -5.34772" /><path id= "24" d=" M -4.72631 -3.6271 L -12.1312 -6.32226 " />
<path id= "25" d=" M -4.72631 3.6271 L -12.1312 6.32226 " />
<path d="M-9.71708 13.1104 A9.67671 9.67671 0 0 0 -1.18638 5.34772" /><path d="M-10.4391 12.8014 A0.8128 0.8128 0 0 0 -9.71708 13.1104" /><path d="M-12.1312 6.32226 A0.8128 0.8128 0 0 0 -12.6628 7.15786" /><path d="M-12.1312 -6.32226 A0.8128 0.8128 0 0 1 -12.6628 -7.15786" /><path d="M-10.4391 -12.8014 A0.8128 0.8128 0 0 1 -9.71708 -13.1104" /><path d="M-10.4391 -12.8014 A0.8128 0.8128 0 0 1 -9.71708 -13.1104" /><path d="M-12.6628 -7.15786 A10.7186 10.7186 0 0 1 -10.4391 -12.8014" /><path d="M-12.1312 -6.32226 A0.8128 0.8128 0 0 1 -12.6628 -7.15786" /><path d="M-12.1312 6.32226 A0.8128 0.8128 0 0 0 -12.6628 7.15786" /><path d="M-12.6628 7.15786 A10.7186 10.7186 0 0 0 -10.4391 12.8014" /></g>

</svg>
