<svg xmlns="http://www.w3.org/2000/svg" viewBox="-15.212704 -4.805494 30.425408 8.935798000000002">
<rect width="100%" height="100%" fill="white"/>
<g   fill="none"
   stroke="rgb(0, 0, 0)"
   stroke-linecap="butt"
   stroke-linejoin="miter"
   stroke-width="0.35"
   transform="scale(1, -1)"
  >
<path d="M5.2988, 2.032 C4.93111, 2.99501 4.29378, 3.85347 3.47828, 4.48417  C2.79791, 5.01289 1.99469, 5.38314 1.15083, 5.55715  C0.307264, 5.73259 -0.576941, 5.71179 -1.41133, 5.49676  C-2.2461, 5.28322 -3.03095, 4.87548 -3.68566, 4.31535  C-4.34131, 3.75633 -4.86681, 3.04492 -5.20831, 2.25384  C-5.24003, 2.18054 -5.2702, 2.10659 -5.2988, 2.032 " /><path d="M-5.2988, -2.032 C-5.2702, -2.10659 -5.24003, -2.18054 -5.20831, -2.25384  C-4.87851, -3.01762 -4.37743, -3.70724 -3.75298, -4.25693  C-3.12937, -4.80756 -2.38239, -5.21825 -1.58329, -5.44972  C-0.756068, -5.69085 0.127047, -5.73941 0.975708, -5.59056  C1.82462, -5.44313 2.63908, -5.0983 3.33571, -4.59121  C4.21899, -3.95174 4.91015, -3.05069 5.29879, -2.032 " /><path d="M-2.59874, 1.90272 L-2.61253, 1.88375 " /><path d="M13.1144, -1.2192 L13.1144, 1.2192 " /><path d="M13.1144 1.2192 A0.8128 0.8128 0 0 1 12.3016 2.032" /><path d="M-12.3016 2.032 A0.8128 0.8128 0 0 1 -13.1144 1.2192" /><path d="M-13.1144, 1.2192 L-13.1144, -1.2192 " /><path d="M-13.1144 -1.2192 A0.8128 0.8128 0 0 1 -12.3016 -2.032" /><path d="M12.3016 -2.032 A0.8128 0.8128 0 0 1 13.1144 -1.2192" /><path d="M-2.60471, 1.89455 L-2.6066, 1.89194 " /></g>
<g   fill="none"
   stroke="rgb(0, 0, 0)"
   stroke-linecap="butt"
   stroke-linejoin="miter"
   stroke-width="0.35"
   transform="scale(1, -1)"
  >
<path d="M3.62358, -1.48683 C3.63356, -1.6985 3.68751, -1.83665 3.76774, -1.92778  C3.82722, -1.99518 3.90288, -2.02992 3.9947, -2.032 " /><path d="M-3.62358, -1.48683 C-3.63356, -1.6985 -3.68751, -1.83665 -3.76774, -1.92778  C-3.82722, -1.99518 -3.90288, -2.02992 -3.9947, -2.032 " /><path d="M-3.62358, 1.48683 C-3.63356, 1.6985 -3.68751, 1.83665 -3.76774, 1.92778  C-3.82722, 1.99518 -3.90288, 2.02992 -3.9947, 2.032 " /><path d="M3.62358, 1.48683 C3.63356, 1.6985 3.68751, 1.83665 3.76774, 1.92778  C3.82722, 1.99518 3.90288, 2.02992 3.9947, 2.032 " /><path id= "5" d=" M 3.9947 2.032 L 7.08604 2.032 " />
<path d="M7.08604, 2.032 C8.02957, 2.032 8.96002, 2.032 9.84225, 2.032  C9.9671, 2.032 10.0919, 2.032 10.2168, 2.032  C10.4634, 2.032 10.7061, 2.032 10.9451, 2.032  C11.0626, 2.032 11.1801, 2.032 11.2976, 2.032  C11.4123, 2.032 11.5269, 2.032 11.6416, 2.032  C11.7532, 2.032 11.8648, 2.032 11.9765, 2.032  C12.0848, 2.032 12.1932, 2.032 12.3016, 2.032 " /><path d="M3.6271, 1.2192 Q3.61544, 1.37935 3.62358, 1.48683 " /><path d="M-3.6271, -1.2192 Q-3.61544, -1.37935 -3.62358, -1.48683 " /><path d="M3.62358, -1.48683 Q3.61544, -1.37935 3.6271, -1.2192 " /><path d="M3.6271, -1.2192 C3.66273, -0.852351 3.67455, -0.425796 3.6749, -4.44089e-16 " /><path d="M3.6271, 1.2192 C3.66273, 0.852351 3.67455, 0.425796 3.6749, -4.44089e-16 " /><path d="M-3.62358, 1.48683 Q-3.61544, 1.37935 -3.6271, 1.2192 " /><path d="M-3.6271, 1.2192 C-3.66288, 0.850762 -3.67466, 0.42211 -3.6749, -0.00552755  C-3.67444, -0.429484 -3.66258, -0.853943 -3.6271, -1.2192 " /><path id= "14" d=" M -3.9947 2.032 L -7.08604 2.032 " />
<path d="M-7.08604, 2.032 C-8.02957, 2.032 -8.96002, 2.032 -9.84225, 2.032  C-9.9671, 2.032 -10.0919, 2.032 -10.2168, 2.032  C-10.4634, 2.032 -10.7061, 2.032 -10.9451, 2.032  C-11.0626, 2.032 -11.1801, 2.032 -11.2976, 2.032  C-11.4123, 2.032 -11.5269, 2.032 -11.6416, 2.032  C-11.7532, 2.032 -11.8648, 2.032 -11.9765, 2.032  C-12.0848, 2.032 -12.1932, 2.032 -12.3016, 2.032 " /><path d="M-7.08604, -2.032 C-6.3384, -2.032 -5.54485, -2.032 -4.73492, -2.032 " /><path id= "17" d=" M -3.9947 -2.032 L -7.08604 -2.032 " />
<path d="M-7.08604, -2.032 C-8.02957, -2.032 -8.96002, -2.032 -9.84225, -2.032  C-9.9671, -2.032 -10.0919, -2.032 -10.2168, -2.032  C-10.4634, -2.032 -10.7061, -2.032 -10.9451, -2.032  C-11.0626, -2.032 -11.1801, -2.032 -11.2976, -2.032  C-11.4123, -2.032 -11.5269, -2.032 -11.6416, -2.032  C-11.7532, -2.032 -11.8648, -2.032 -11.9765, -2.032  C-12.0848, -2.032 -12.1932, -2.032 -12.3016, -2.032 " /><path id= "19" d=" M 3.9947 -2.032 L 7.08604 -2.032 " />
<path d="M7.08604, -2.032 C8.02957, -2.032 8.96002, -2.032 9.84225, -2.032  C9.9671, -2.032 10.0919, -2.032 10.2168, -2.032  C10.4634, -2.032 10.7061, -2.032 10.9451, -2.032  C11.0626, -2.032 11.1801, -2.032 11.2976, -2.032  C11.4123, -2.032 11.5269, -2.032 11.6416, -2.032  C11.7532, -2.032 11.8648, -2.032 11.9765, -2.032  C12.0848, -2.032 12.1932, -2.032 12.3016, -2.032 " /><path d="M2.48759, 0.000510528 C2.48933, 0.595926 2.26709, 1.18836 1.87416, 1.63574  C1.57144, 1.98362 1.16979, 2.24405 0.728663, 2.37848  C0.308497, 2.50779 -0.146104, 2.52247 -0.573737, 2.42052 " /><path d="M-0.607635, 2.41224 Q-0.690658, 2.39132 -0.772053, 2.36475 " /><path d="M-0.800944, 2.35512 Q-1.19902, 2.2192 -1.53086, 1.96076 " /><path d="M-1.70024, 1.81584 Q-1.7848, 1.73667 -1.86163, 1.64999 " /><path d="M-1.96855, 1.52083 C-2.32581, 1.06117 -2.51232, 0.47297 -2.48522, -0.108559  C-2.46118, -0.700907 -2.21551, -1.28069 -1.80667, -1.70999  C-1.45476, -2.0833 -0.98438, -2.34254 -0.480826, -2.44068  C0.00286653, -2.53688 0.514726, -2.48411 0.968621, -2.29126  C1.55301, -2.04678 2.0345, -1.56906 2.28356, -0.986641 " /><path d="M2.37862, -0.7282 Q2.44525, -0.510408 2.47131, -0.284151 " /><path d="M3.175 0 A3.175 3.175 0 0 1 -1.65883 2.70719" /><path d="M-3.0873 0.741074 A3.175 3.175 0 1 1 3.175 -7.77651e-16" /><path d="M-3.0873, 0.741074 L-3.08729, 0.741192 " /><path d="M-3.08729, 0.741192 C-3.0732, 0.853116 -3.04314, 0.988086 -2.99902, 1.12443  C-2.91515, 1.38565 -2.77963, 1.65462 -2.60573, 1.89315 " /><path d="M-2.60573, 1.89315 C-2.46255, 2.09055 -2.29253, 2.26935 -2.11162, 2.41615  C-1.95947, 2.54027 -1.79567, 2.64296 -1.65894, 2.70714 " /><path d="M-1.65883, 2.70719 L-1.65894, 2.70714 " /><path d="M2.48759, 6.00607e-07 C2.48945, 0.595693 2.26712, 1.18845 1.87395, 1.63598  C1.5723, 1.98253 1.17247, 2.24229 0.733238, 2.37707  C0.313398, 2.50717 -0.141085, 2.52274 -0.568845, 2.42168 " /><path d="M-0.576003, 2.41999 Q-0.701714, 2.39006 -0.823666, 2.34727 " /><path d="M-1.09458, 2.23383 Q-1.25027, 2.15753 -1.39388, 2.06039 " /><path d="M-1.39463, 2.05988 L-1.48504, 1.99569 " /><path d="M-1.68982, 1.82555 C-2.2215, 1.33869 -2.52055, 0.611536 -2.48522, -0.108539  C-2.46118, -0.700877 -2.21553, -1.28065 -1.8067, -1.70995  C-1.45586, -2.08214 -0.987261, -2.34097 -0.48541, -2.43977  C-0.00278196, -2.5367 0.508191, -2.48527 0.961826, -2.29412  C1.41923, -2.10334 1.81633, -1.77178 2.08567, -1.35576  C2.34693, -0.955295 2.48838, -0.478146 2.48759, 5.55112e-16 " /><path d="M2.84222, 3.87674e-07 C2.87071, 0.50442 2.761, 1.01689 2.52916, 1.46894  C2.29577, 1.92685 1.93834, 2.32174 1.50487, 2.60272  C1.05244, 2.89764 0.518312, 3.06724 -0.0238847, 3.08985  C-0.588863, 3.11494 -1.16076, 2.98044 -1.65883, 2.70719 " /><path d="M2.48759, 8.00812e-07 C2.48945, 0.595801 2.26704, 1.18866 1.87374, 1.63622  C1.57282, 1.98184 1.17424, 2.24112 0.736319, 2.37612  C0.314054, 2.50758 -0.143435, 2.5231 -0.573638, 2.42055  C-1.09806, 2.29756 -1.57879, 1.99798 -1.92025, 1.58138 " /><path d="M-1.92025, 1.58138 C-2.3575, 1.4303 -2.76912, 1.13509 -3.0873, 0.741074 " /><path d="M2.84222, -1.33227e-15 C2.81354, -0.535774 2.62808, -1.06055 2.31358, -1.49096  C2.01151, -1.90718 1.59037, -2.2338 1.11449, -2.41909  C0.655985, -2.59927 0.148223, -2.64707 -0.331747, -2.55399  C-0.798771, -2.46492 -1.23772, -2.24271 -1.58159, -1.92008 " /><path d="M-1.92025 1.58138 A2.48759 2.48759 0 0 1 -1.58159 -1.92008" /></g>

</svg>
