<svg xmlns="http://www.w3.org/2000/svg" viewBox="-11.628028800000001 -11.0431388 17.9527676 19.0244176">
<rect width="100%" height="100%" fill="white"/>
<g   fill="none"
   stroke="rgb(0, 0, 0)"
   stroke-linecap="butt"
   stroke-linejoin="miter"
   stroke-width="0.35"
   transform="scale(1, -1)"
  >
<path d="M-2.46735, 4.59031 Q-2.43522, 4.23783 -2.48395, 3.83565 " /><g transform = "rotate(60, -5.3033, 3.06186)">
<ellipse cx ="-5.3033" cy ="3.06186" rx ="4.375"  ry ="2.52591"/>
</g>
<path d="M-2.46735, 4.59031 C-2.53276, 5.34437 -2.89729, 5.87165 -3.45004, 5.98408 " /><path d="M-3.45004 5.98408 A3.45873 1.9969 60 0 1 -6.90721 3.8751" />
<path d="M-3.76166, 1.08005 C-4.37681, 0.31743 -5.12453, -0.230746 -5.79919, -0.410507  C-6.42088, -0.581672 -6.97354, -0.439128 -7.31508, -0.0135578  C-7.63691, 0.379319 -7.7715, 1.01512 -7.68177, 1.74869  C-7.601, 2.43329 -7.32444, 3.19774 -6.90721, 3.8751 " /><path d="M-2.48395, 3.83565 Q-2.48873, 3.79619 -2.49851, 3.73954 " /><path d="M-2.49851, 3.73954 C-2.52316, 3.59673 -2.56738, 3.40826 -2.62557, 3.21655  C-2.72434, 2.88883 -2.86533, 2.53792 -3.03717, 2.20142  C-3.24432, 1.79326 -3.5031, 1.39808 -3.76166, 1.08005 " /><path d="M-3.07572, 5.69536 C-3.64754, 5.82482 -4.37059, 5.59707 -5.04059, 5.08437  C-5.58184, 4.67431 -6.08434, 4.08609 -6.45344, 3.43889  C-6.87491, 2.70545 -7.11924, 1.90218 -7.1321, 1.23451  C-7.14989, 0.537139 -6.91638, -0.00444134 -6.50232, -0.239686 " /><path d="M-6.50232, -0.239686 C-6.24013, -0.39171 -5.90832, -0.422431 -5.54701, -0.327117 " /><path d="M-3.18407, 1.92908 C-2.78092, 2.71275 -2.5615, 3.58679 -2.59242, 4.32078 " /><path d="M-3.31075, 5.90066 C-3.57326, 6.02638 -3.88243, 6.06556 -4.21416, 6.01571  C-4.64838, 5.95149 -5.1208, 5.73303 -5.56886, 5.39214  C-6.07425, 5.00948 -6.54642, 4.47189 -6.90721, 3.8751 " /><path d="M-2.59242, 4.32078 C-2.6193, 5.07965 -2.91247, 5.67956 -3.39714, 5.95514 " /><path d="M-3.39714, 5.95514 L-3.45004, 5.98408 " /><path d="M-0.707107 5.71548 A6.5 3.75278 60 0 1 -1.32288 8.01357" />
<path d="M-1.32288 2.70635 A6.5 3.75278 60 0 1 -0.707107 5.71548" />
<path d="M-5.3033 -2.24537 A6.5 3.75278 60 0 1 -1.32288 2.70635" />
<path d="M-9.28372 -1.88985 A6.5 3.75278 60 0 1 -5.3033 -2.24537" />
<path d="M-9.28372 3.41738 A6.5 3.75278 60 0 1 -9.28372 -1.88985" />
<path d="M-5.3033 8.36909 A6.5 3.75278 60 0 1 -9.28372 3.41738" />
<path d="M-1.32288 8.01357 A6.5 3.75278 60 0 1 -5.3033 8.36909" />
<path d="M-3.00566, 5.6126 C-3.55826, 5.69474 -4.2334, 5.46357 -4.86171, 4.98392  C-5.38323, 4.58917 -5.86918, 4.02922 -6.23421, 3.40987  C-6.67658, 2.66481 -6.937, 1.83944 -6.95478, 1.15371  C-6.97567, 0.496891 -6.77646, -0.0261671 -6.41135, -0.286234 " /><path d="M-2.82211, 5.31814 C-3.29793, 5.28703 -3.83104, 5.05919 -4.33351, 4.67611  C-4.8748, 4.26602 -5.37733, 3.67772 -5.74644, 3.03047  C-6.1679, 2.29698 -6.4122, 1.49368 -6.425, 0.826013  C-6.43658, 0.331136 -6.32426, -0.0883399 -6.10687, -0.371234 " /><path d="M-1.32288, 8.01357 C-0.901087, 7.41429 -0.38711, 6.76201 0.298447, 5.95595 " /><path d="M-5.3033, 8.36909 C-4.46064, 8.85453 -3.52605, 9.28631 -2.35517, 9.73111 " /><path d="M-2.35517, 9.73111 C-2.07007, 9.15626 -1.74282, 8.61178 -1.32288, 8.01357 " /><path d="M-9.28372, 3.41738 C-8.86193, 4.50156 -8.34795, 5.53172 -7.66239, 6.66698 " /><path d="M-7.66239, 6.66698 C-6.89196, 7.343 -6.14411, 7.88258 -5.3033, 8.36909 " /><path d="M-9.28372, -1.88985 C-9.70366, -1.29164 -10.0309, -0.74716 -10.316, -0.172308 " /><path d="M-10.316, -0.172308 C-10.0309, 1.19416 -9.70366, 2.33212 -9.28372, 3.41738 " /><path d="M-7.66239, -3.94747 C-8.34795, -3.14142 -8.86193, -2.48913 -9.28372, -1.88985 " /><path d="M-5.3033, -2.24537 C-6.14411, -2.73187 -6.89196, -3.27146 -7.66239, -3.94747 " /><path d="M-2.35517, -0.883342 C-3.52605, -1.32815 -4.46064, -1.75993 -5.3033, -2.24537 " /><path d="M-1.32288, 2.70635 C-1.74282, 1.62109 -2.07007, 0.483123 -2.35517, -0.883342 " /><path d="M0.298447, 5.95595 C-0.38711, 4.82069 -0.901087, 3.79053 -1.32288, 2.70635 " /><path d="M-2.77052, 5.20339 C-3.21275, 5.14474 -3.69638, 4.92433 -4.15456, 4.57571  C-4.67604, 4.181 -5.16196, 3.62111 -5.52699, 3.00181  C-5.96932, 2.25689 -6.22977, 1.43166 -6.24766, 0.745971  C-6.26132, 0.293445 -6.17268, -0.097957 -5.99441, -0.380561 " /><path d="M-2.64923, 4.80108 C-2.97217, 4.69428 -3.30559, 4.51194 -3.62642, 4.26785  C-4.16775, 3.85772 -4.67032, 3.26937 -5.03943, 2.62205  C-5.33743, 2.10195 -5.54911, 1.54633 -5.64934, 1.02931  C-5.75114, 0.50927 -5.74008, 0.0295885 -5.62016, -0.344721 " /><path d="M5.01271, 3.23417 C4.72761, 3.80902 4.40036, 4.3535 3.98042, 4.95171 " /><path id= "38" d=" M 0.298447 5.95595 L 5.01271 3.23417 " />
<path id= "39" d=" M 2.35909 7.00933 L -2.35517 9.73111 " />
<path d="M3.98042, 4.95171 C3.55863, 5.55099 3.04465, 6.20328 2.35909, 7.00933 " /><path id= "41" d=" M -2.94813 -6.66925 L -7.66239 -3.94747 " />
<path d="M-2.94813, -6.66925 C-1.77725, -6.22444 -0.842659, -5.79267 -4.94271e-13, -5.30723 " /><path id= "43" d=" M 2.35909 -3.60512 L -2.35517 -0.883342 " />
<path d="M-4.94715e-13, -5.30723 C0.840806, -4.82072 1.58866, -4.28113 2.35909, -3.60512 " /><path d="M2.35909, -3.60512 C3.04465, -2.46986 3.55863, -1.4397 3.98042, -0.355517 " /><path d="M3.98042, -0.355517 C4.40036, 0.729738 4.72761, 1.86771 5.01271, 3.23417 " /><path d="M-2.62175, 4.64456 C-3.42637, 4.33037 -4.26547, 3.53956 -4.8188, 2.59541  C-5.26027, 1.85251 -5.52094, 1.0295 -5.54034, 0.344627  C-5.54757, 0.109897 -5.52852, -0.10544 -5.4832, -0.301386 " /><path d="M-2.59125, 4.085 C-3.25123, 3.68188 -3.88598, 2.99572 -4.3283, 2.22083  C-4.7662, 1.4614 -5.01346, 0.626558 -5.01154, -0.0558037 " /><path d="M-2.60425, 3.85837 C-3.17585, 3.46097 -3.71522, 2.85971 -4.11161, 2.18729  C-4.52511, 1.49096 -4.78104, 0.72404 -4.82649, 0.0667498 " /><path d="M-2.77938, 2.94266 C-3.38597, 2.31265 -3.87542, 1.47764 -4.1184, 0.677138 " /><path d="M-2.95357, 2.43683 C-3.27822, 2.0261 -3.55344, 1.56137 -3.75311, 1.09062 " /></g>

</svg>
