<svg xmlns="http://www.w3.org/2000/svg" viewBox="-8.706438 -7.700888 17.412876 15.401776">
<rect width="100%" height="100%" fill="white"/>
<g   fill="none"
   stroke="rgb(0, 0, 0)"
   stroke-linecap="butt"
   stroke-linejoin="miter"
   stroke-width="0.35"
   transform="scale(1, -1)"
  >
<path d="M3.87728, 9.99201e-16 Q3.93937, -0.471071 3.88669, -0.945416 " /><circle cx ="0" cy ="0" r ="4.375" /><path d="M3.87728, 2.22045e-16 C3.74905, 1.00551 3.19631, 1.94627 2.3754, 2.51403 " /><path d="M2.3754 2.51403 A3.45873 3.45873 0 0 1 -2.51378 2.37566" /><path d="M2.07973, -3.41684 C1.1971, -3.9032 0.126774, -4.03297 -0.840438, -3.76297  C-1.73171, -3.52094 -2.52554, -2.94332 -3.02099, -2.16815  C-3.48776, -1.44779 -3.68989, -0.562127 -3.57499, 0.284855  C-3.47199, 1.07743 -3.09226, 1.82951 -2.51378, 2.37566 " /><path d="M3.88669, -0.945416 C3.88262, -0.981664 3.87527, -1.02523 3.86463, -1.07611  C3.83165, -1.23361 3.77255, -1.42519 3.6947, -1.61181  C3.6143, -1.80575 3.51498, -1.99512 3.39676, -2.17993 " /><path d="M3.39676, -2.17993 C3.18014, -2.51826 2.90277, -2.82606 2.59203, -3.07447  C2.42498, -3.20772 2.25421, -3.32184 2.07973, -3.41684 " /><path d="M3.45873, 4.32111e-07 L3.45556, 0.148164 " /><path d="M3.45271, 0.204102 L3.45227, 0.211377 " /><path d="M3.42259, 0.498699 C3.34095, 1.06316 3.11649, 1.60618 2.77572, 2.06354 " /><path d="M2.76146, 2.08259 C2.32638, 2.66205 1.70394, 3.09761 1.01048, 3.30783  C0.45238, 3.47901 -0.149282, 3.50512 -0.720116, 3.38294  C-1.4512, 3.22909 -2.12749, 2.82963 -2.61512, 2.26362  C-3.17219, 1.62438 -3.47875, 0.774365 -3.45796, -0.073242  C-3.44278, -0.927767 -3.09499, -1.77046 -2.50306, -2.38695  C-2.01089, -2.90517 -1.35394, -3.26352 -0.651775, -3.39677  C-0.0233563, -3.51831 0.638412, -3.45998 1.23588, -3.23039  C1.8318, -3.0034 2.36181, -2.60726 2.74825, -2.09999  C3.20671, -1.50295 3.46052, -0.75273 3.45873, -1.33227e-15 " /><path d="M3.45873, 4.93842e-07 C3.46295, 0.939662 3.0613, 1.87175 2.3754, 2.51403 " /><path d="M6.5 0 A6.5 6.5 0 0 1 5.62917 3.25" /><path d="M5.62917 -3.25 A6.5 6.5 0 0 1 6.5 -1.59204e-15" /><path d="M-6.99746e-13 -6.5 A6.5 6.5 0 0 1 5.62917 -3.25" /><path d="M-5.62917 -3.25 A6.5 6.5 0 0 1 -6.99746e-13 -6.5" /><path d="M-5.62917 3.25 A6.5 6.5 0 0 1 -5.62917 -3.25" /><path d="M-7.4434e-13 6.5 A6.5 6.5 0 0 1 -5.62917 3.25" /><path d="M5.62917 3.25 A6.5 6.5 0 0 1 -7.4434e-13 6.5" /><path d="M3.45873, 0.000160432 Q3.45873, 0.0910219 3.45396, 0.181758 " /><path d="M3.45359, 0.188492 L3.4525, 0.207558 " /><path d="M3.42303, 0.495662 C3.34176, 1.0612 3.11711, 1.60534 2.77574, 2.06352 " /><path d="M2.76148, 2.08256 C2.3264, 2.66204 1.70395, 3.09761 1.01047, 3.30784  C0.452363, 3.47902 -0.149304, 3.50512 -0.720142, 3.38293  C-1.45129, 3.22906 -2.12762, 2.82954 -2.61526, 2.26346  C-3.17231, 1.62417 -3.47882, 0.774086 -3.45795, -0.0735533  C-3.4427, -0.928135 -3.09478, -1.77085 -2.50273, -2.3873  C-2.00896, -2.90708 -1.34937, -3.26592 -0.644742, -3.39811  C-0.0212674, -3.51734 0.634654, -3.45967 1.22776, -3.23349  C1.82989, -3.00589 2.36522, -2.60569 2.7539, -2.09258  C3.20884, -1.49677 3.46049, -0.749612 3.45873, -8.88178e-16 " /><path d="M5.62917, 3.25 C6.22436, 2.21909 6.81919, 1.18881 7.50555, 5.57776e-13 " /><path d="M-7.44738e-13, 6.5 C1.19039, 6.5 2.38006, 6.5 3.75278, 6.5 " /><path d="M3.75278, 6.5 C4.43914, 5.31119 5.03397, 4.28091 5.62917, 3.25 " /><path d="M-5.62917, 3.25 C-5.03397, 4.28091 -4.43914, 5.31119 -3.75278, 6.5 " /><path d="M-3.75278, 6.5 C-2.38006, 6.5 -1.19039, 6.5 -7.44516e-13, 6.5 " /><path d="M-5.62917, -3.25 C-6.22436, -2.21909 -6.81919, -1.18881 -7.50555, -3.10374e-13 " /><path d="M-7.50555, 8.0469e-13 C-6.81919, 1.18881 -6.22436, 2.21909 -5.62917, 3.25 " /><path d="M-3.75278, -6.5 C-4.43914, -5.31119 -5.03397, -4.28091 -5.62917, -3.25 " /><path d="M-6.99663e-13, -6.5 C-1.19039, -6.5 -2.38006, -6.5 -3.75278, -6.5 " /><path d="M3.75278, -6.5 C2.38006, -6.5 1.19039, -6.5 -6.99663e-13, -6.5 " /><path d="M5.62917, -3.25 C5.03397, -4.28091 4.43914, -5.31119 3.75278, -6.5 " /><path d="M7.50555, -5.58247e-13 C6.81919, -1.18881 6.22436, -2.21909 5.62917, -3.25 " /><path d="M3.45873, 0.00016037 Q3.45873, 0.0910219 3.45396, 0.181758 " /><path d="M3.45359, 0.188492 L3.4525, 0.207558 " /><path d="M3.42303, 0.495662 C3.34176, 1.0612 3.11711, 1.60534 2.77574, 2.06352 " /><path d="M2.76148, 2.08256 C2.3264, 2.66204 1.70394, 3.09761 1.01046, 3.30784  C0.452348, 3.47902 -0.149325, 3.50512 -0.720167, 3.38293  C-1.45136, 3.22904 -2.12774, 2.82947 -2.61539, 2.26331  C-3.17243, 1.62396 -3.47889, 0.773827 -3.45795, -0.0738419  C-3.44262, -0.928474 -3.09459, -1.77121 -2.50242, -2.38762  C-2.01225, -2.90343 -1.35881, -3.26079 -0.660045, -3.39517  C-0.032858, -3.51806 0.628018, -3.4617 1.22534, -3.2344  C1.82689, -3.00754 2.36194, -2.60846 2.75088, -2.09654  C3.2077, -1.50007 3.46051, -0.75128 3.45873, -1.9984e-15 " /><path d="M-2.53182, -2.35642 C-2.03833, -2.88892 -1.37268, -3.25829 -0.659692, -3.39524  C-0.0297027, -3.51862 0.634252, -3.46111 1.23364, -3.23125  C1.82973, -3.00467 2.36001, -2.60889 2.74679, -2.1019  C3.20616, -1.50454 3.46053, -0.753532 3.45873, 2.46919e-07 " /><path d="M3.45873, 1.23459e-07 Q3.45873, 0.0909418 3.45396, 0.181758 " /><path d="M3.45359, 0.188492 L3.4525, 0.207558 " /><path d="M3.42303, 0.495662 C3.34176, 1.0612 3.11711, 1.60534 2.77574, 2.06352 " /><path d="M2.76148, 2.08256 C2.32639, 2.66205 1.70392, 3.09763 1.01043, 3.30785  C0.452296, 3.47903 -0.149395, 3.50512 -0.72025, 3.38291  C-1.46036, 3.22719 -2.14417, 2.81957 -2.63317, 2.24261 " /><path d="M2.51364, 2.3758 Q2.44648, 2.44687 2.3754, 2.51403 " /><path d="M-2.51378, 2.37566 C-3.13398, 1.72458 -3.481, 0.823753 -3.45792, -0.0750981  C-3.44245, -0.910339 -3.10984, -1.73439 -2.54116, -2.34635 " /><path d="M-2.46601, -2.4252 Q-2.28465, -2.60958 -2.0779, -2.76499 " /></g>

</svg>
