<svg xmlns="http://www.w3.org/2000/svg" viewBox="-9.5716988 -9.2257388 27.2931876 21.4933276">
<rect width="100%" height="100%" fill="white"/>
<g   fill="none"
   stroke="rgb(0, 0, 0)"
   stroke-linecap="butt"
   stroke-linejoin="miter"
   stroke-width="0.35"
   transform="scale(1, -1)"
  >
<path d="M-0.937829, 3.86723 C-0.937004, 3.31856 -1.06124, 2.68476 -1.29884, 2.0548  C-1.69806, 0.980128 -2.43563, -0.0693805 -3.24432, -0.722452  C-3.78083, -1.1621 -4.34124, -1.42352 -4.80956, -1.4823  C-5.15955, -1.5275 -5.4534, -1.46999 -5.69303, -1.33193 " /><path d="M-1.69303, 5.59628 C-1.55475, 5.51698 -1.43242, 5.40776 -1.32606, 5.26861  C-1.08657, 4.95713 -0.936432, 4.46822 -0.937829, 3.86723 " /><path d="M4.79264, 2.89856 C4.79656, 1.40243 4.27836, -0.346926 3.38521, -1.90161  C2.49393, -3.46544 1.23881, -4.80796 -0.0629053, -5.57009  C-0.845741, -6.03159 -1.64568, -6.29025 -2.39485, -6.30415  C-2.95139, -6.31538 -3.48001, -6.18865 -3.93409, -5.92702  C-4.38628, -5.66787 -4.76016, -5.2779 -5.02979, -4.79526  C-5.27904, -4.35052 -5.44222, -3.82792 -5.51888, -3.25318 " /><path d="M0.0578944, 6.40608 C0.593258, 6.62677 1.12671, 6.74672 1.63588, 6.75353  C2.19043, 6.7617 2.71674, 6.63241 3.16838, 6.3691  C3.46742, 6.19454 3.72845, 5.96854 3.95145, 5.69109  C4.512, 4.99508 4.79373, 4.01308 4.79264, 2.89856 " /><path id= "5" d=" M 4.53172 0.84771 L 4.51809 0.855581 " />
<path id= "6" d=" M 5.23883 0.439462 L 5.15041 0.490509 " />
<path id= "7" d=" M 1.88528 -4.55257 L 1.79686 -4.50152 " />
<path id= "8" d=" M 5.94594 0.0312134 L 5.85752 0.0822599 " />
<path id= "9" d=" M 2.59239 -4.96082 L 2.50397 -4.90977 " />
<path id= "10" d=" M 6.65304 -0.377035 L 6.56463 -0.325989 " />
<path id= "11" d=" M 3.29949 -5.36906 L 3.21107 -5.31802 " />
<path id= "12" d=" M 7.36015 -0.785283 L 7.27174 -0.734239 " />
<path id= "13" d=" M 4.0066 -5.77731 L 3.91818 -5.72627 " />
<path id= "14" d=" M 8.06726 -1.19353 L 7.97885 -1.14249 " />
<path id= "15" d=" M 4.7137 -6.18556 L 4.62529 -6.13451 " />
<path id= "16" d=" M 8.77436 -1.60178 L 8.68596 -1.55074 " />
<path id= "17" d=" M 5.42081 -6.59381 L 5.3324 -6.54276 " />
<path id= "18" d=" M 9.48147 -2.01003 L 9.39306 -1.95899 " />
<path id= "19" d=" M 6.12792 -7.00206 L 6.03951 -6.95101 " />
<path id= "20" d=" M 10.1886 -2.41828 L 10.1002 -2.36724 " />
<path id= "21" d=" M 6.83502 -7.4103 L 6.74662 -7.35926 " />
<path id= "22" d=" M 10.8957 -2.82652 L 10.8073 -2.77548 " />
<path id= "23" d=" M 7.54213 -7.81855 L 7.45372 -7.76751 " />
<path id= "24" d=" M 11.6028 -3.23477 L 11.5144 -3.18373 " />
<path id= "25" d=" M 8.24924 -8.2268 L 8.16083 -8.17576 " />
<path id= "26" d=" M 12.3099 -3.64302 L 12.2215 -3.59198 " />
<path id= "27" d=" M 8.95634 -8.63505 L 8.86794 -8.58401 " />
<path id= "28" d=" M 13.017 -4.05127 L 12.9286 -4.00023 " />
<path id= "29" d=" M 9.66345 -9.0433 L 9.57505 -8.99226 " />
<path id= "30" d=" M 13.7241 -4.45952 L 13.6357 -4.40848 " />
<path id= "31" d=" M 10.3706 -9.45155 L 10.2822 -9.40051 " />
<path id= "32" d=" M 14.4312 -4.86776 L 14.3428 -4.81673 " />
<path id= "33" d=" M 11.0777 -9.85979 L 10.9893 -9.80876 " />
<path id= "34" d=" M 15.1383 -5.27601 L 15.0499 -5.22498 " />
<path id= "35" d=" M 11.7848 -10.268 L 11.6964 -10.217 " />
<path id= "36" d=" M 14.1421 -10.1246 L 13.7795 -10.3339 " />
</g>
<g   fill="none"
   stroke="rgb(0, 0, 0)"
   stroke-linecap="butt"
   stroke-linejoin="miter"
   stroke-width="0.35"
   transform="scale(1, -1)"
  >
<path d="M-0.334276 4.27548 A5 2.88675 60 0 1 -0.807947 6.04324" />
<path d="M-0.807947 1.96076 A5 2.88675 60 0 1 -0.334276 4.27548" />
<path d="M-3.86981 -1.84825 A5 2.88675 60 0 1 -0.807947 1.96076" />
<path d="M-6.93167 -1.57477 A5 2.88675 60 0 1 -3.86981 -1.84825" />
<path d="M-6.93167 2.50771 A5 2.88675 60 0 1 -6.93167 -1.57477" />
<path d="M-3.86981 6.31672 A5 2.88675 60 0 1 -6.93167 2.50771" />
<path d="M-0.807947 6.04324 A5 2.88675 60 0 1 -3.86981 6.31672" />
<path d="M-0.807947, 6.04324 C-0.483377, 5.58219 -0.0764931, 5.07378 0.475557, 4.43948 " /><path d="M-3.86981, 6.31672 C-3.2215, 6.69007 -2.49106, 7.01555 -1.56568, 7.34345 " /><path d="M-1.56568, 7.34345 C-1.37107, 6.91552 -1.13086, 6.50334 -0.807947, 6.04324 " /><path d="M-6.93167, 2.50771 C-6.6071, 3.34163 -6.20022, 4.12741 -5.64817, 4.98643 " /><path d="M-5.64817, 4.98643 C-5.08023, 5.5207 -4.51647, 5.94241 -3.86981, 6.31672 " /><path d="M-6.93167, -1.57477 C-7.25459, -1.11468 -7.4948, -0.702497 -7.68941, -0.274563 " /><path d="M-7.68941, -0.274563 C-7.4948, 0.790823 -7.25459, 1.67283 -6.93167, 2.50771 " /><path d="M-5.64817, -3.17853 C-6.20022, -2.54423 -6.6071, -2.03582 -6.93167, -1.57477 " /><path d="M-3.86981, -1.84825 C-4.51647, -2.22255 -5.08023, -2.64427 -5.64817, -3.17853 " /><path d="M-1.56568, -0.821512 C-2.49106, -1.14941 -3.2215, -1.4749 -3.86981, -1.84825 " /><path d="M-0.807947, 1.96076 C-1.13086, 1.12588 -1.37107, 0.243874 -1.56568, -0.821512 " /><path d="M0.475557, 4.43948 C-0.0764931, 3.58046 -0.483377, 2.79468 -0.807947, 1.96076 " /><path d="M0.967185, 5.8811 Q1.01133, 5.78917 1.05548, 5.69724  Q1.14792, 5.51445 1.25061, 5.33152  Q1.30462, 5.23946 1.35864, 5.1474  Q1.41658, 5.05417 1.47452, 4.96094  Q1.53675, 4.86597 1.59898, 4.77099  Q1.66587, 4.67368 1.73276, 4.57637  Q1.80473, 4.47612 1.8767, 4.37588  Q1.95419, 4.27209 2.03169, 4.16829  Q2.11518, 4.06031 2.19867, 3.95233  Q2.28868, 3.83949 2.37869, 3.72666  Q2.47576, 3.60827 2.57284, 3.48989  Q2.67758, 3.36522 2.78232, 3.24055  Q2.89537, 3.10884 3.00843, 2.97713 " /><path id= "21" d=" M 3.00843 2.97713 L 0.475557 4.43948 " />
<path id= "22" d=" M 0.967185 5.8811 L -1.56568 7.34345 " />
<path id= "23" d=" M -3.1153 -4.64089 L -5.64817 -3.17853 " />
<path d="M0.967185, -2.28387 L0.583877, -2.4256  L0.222512, -2.56772  L-0.119136, -2.71111  L-0.443172, -2.85663  L-0.751593, -3.00519  L-1.0463, -3.15771  L-1.3291, -3.31513  L-1.60175, -3.4784  L-1.86592, -3.64855  L-2.12324, -3.82662  L-2.3753, -4.0137  L-2.62364, -4.21095  L-2.8698, -4.41958  L-3.1153, -4.64089 " /><path id= "25" d=" M 0.967185 -2.28387 L -1.56568 -0.821512 " />
<path d="M3.00843, 2.97713 L2.78232, 2.61175  L2.57284, 2.25355  L2.37869, 1.90033  L2.19867, 1.54992  L2.03169, 1.20014  L1.8767, 0.84885  L1.73276, 0.493883  L1.59898, 0.133052  L1.47452, -0.235867  L1.35864, -0.615146  L1.25061, -1.00712  L1.14976, -1.41421  L1.05548, -1.83892  L0.967185, -2.28387 " /><path d="M4.41664, 0.489523 Q4.51806, 0.192194 4.53433, -0.168405 " /><path d="M4.3791, 0.366142 Q4.43438, 0.139606 4.4459, -0.117355 " /><path d="M4.53433, -0.168405 C4.56828, -0.863963 4.34239, -1.70363 3.93741, -2.42922  C3.68801, -2.87974 3.37401, -3.28508 3.03802, -3.59483  C2.55294, -4.04496 2.02467, -4.28719 1.59607, -4.26336 " /><path d="M4.53172, 0.84771 C4.95604, 0.60641 5.21423, 0.0837929 5.24143, -0.576653 " /><path d="M4.4459, -0.117355 C4.47477, -0.725007 4.30814, -1.44247 3.99346, -2.09793  C3.77253, -2.56117 3.48063, -2.99199 3.15716, -3.33727  C2.67006, -3.86058 2.1135, -4.17937 1.64846, -4.21052 " /><path d="M4.51724, 0.852266 C4.89819, 0.595206 5.12708, 0.0950259 5.15301, -0.525604 " /><path d="M5.24143, -0.576653 C5.27538, -1.27221 5.0495, -2.11188 4.64452, -2.83747  C4.39512, -3.28799 4.08111, -3.69333 3.74513, -4.00308  C3.52472, -4.2061 3.30204, -4.36488 3.07707, -4.4794  C2.62697, -4.70955 2.19717, -4.73469 1.88528, -4.55257 " /><path d="M5.23883, 0.439462 C5.66315, 0.198162 5.92134, -0.324457 5.94854, -0.984901 " /><path d="M5.15301, -0.525604 C5.18188, -1.13325 5.01525, -1.85072 4.70057, -2.50617  C4.47964, -2.96941 4.18775, -3.40023 3.86428, -3.7455  C3.59774, -4.03069 3.31037, -4.25771 3.02858, -4.40757  C2.56416, -4.65654 2.11792, -4.68918 1.79686, -4.50152 " /><path d="M1.79686, -4.50152 Q1.6628, -4.42404 1.55911, -4.30017 " /><path d="M4.81323, 0.620897 Q4.99436, 0.580527 5.15041, 0.490509 " /><path d="M5.15041, 0.490509 C5.57473, 0.24921 5.83291, -0.273408 5.86012, -0.933853 " /><path d="M5.94854, -0.984901 C5.98249, -1.68046 5.75661, -2.52013 5.35162, -3.24572  C5.10223, -3.69623 4.78822, -4.10158 4.45224, -4.41133  C4.23183, -4.61435 4.00914, -4.77313 3.78417, -4.88765  C3.33407, -5.1178 2.90428, -5.14293 2.59239, -4.96082 " /><path d="M5.94594, 0.0312134 C6.37025, -0.210086 6.62844, -0.732703 6.65565, -1.39315 " /><path d="M5.86012, -0.933853 C5.88899, -1.5415 5.72235, -2.25896 5.40768, -2.91442  C5.18676, -3.37765 4.89486, -3.80847 4.5714, -4.15374  C4.30507, -4.43871 4.01794, -4.66559 3.73636, -4.81546  C3.2717, -5.06476 2.82518, -5.09752 2.50397, -4.90977 " /><path d="M2.50397, -4.90977 Q2.34723, -4.81913 2.23243, -4.66568 " /><path d="M5.52034, 0.212648 Q5.70147, 0.172278 5.85752, 0.0822599 " /><path d="M5.85752, 0.0822599 C6.28184, -0.159039 6.54002, -0.68166 6.56723, -1.3421 " /><path d="M6.65565, -1.39315 C6.6896, -2.08871 6.46371, -2.92838 6.05873, -3.65397  C5.80933, -4.10448 5.49532, -4.50983 5.15934, -4.81958  C4.93893, -5.0226 4.71624, -5.18138 4.49126, -5.29591  C4.04117, -5.52604 3.61138, -5.55118 3.29949, -5.36906 " /><path d="M6.65304, -0.377035 C7.07736, -0.618334 7.33555, -1.14095 7.36275, -1.8014 " /><path d="M6.56723, -1.3421 C6.59609, -1.94975 6.42946, -2.66721 6.11479, -3.32266  C5.89387, -3.78589 5.60198, -4.21671 5.27852, -4.56198  C5.01239, -4.84673 4.72551, -5.07349 4.44413, -5.22336  C3.97923, -5.47297 3.53244, -5.50586 3.21107, -5.31802 " /><path d="M3.21107, -5.31802 Q3.05433, -5.22738 2.93954, -5.07393 " /><path d="M6.22745, -0.195601 Q6.40858, -0.235971 6.56463, -0.325989 " /><path d="M6.56463, -0.325989 C6.98894, -0.567288 7.24713, -1.08991 7.27434, -1.75035 " /><path d="M7.36275, -1.8014 C7.3967, -2.49696 7.17082, -3.33663 6.76584, -4.06221  C6.51644, -4.51273 6.20243, -4.91808 5.86645, -5.22783  C5.64603, -5.43085 5.42334, -5.58963 5.19836, -5.70416  C4.74827, -5.93429 4.31848, -5.95943 4.0066, -5.77731 " /><path d="M7.36015, -0.785283 C7.78446, -1.02658 8.04266, -1.5492 8.06986, -2.20965 " /><path d="M7.27434, -1.75035 C7.3032, -2.358 7.13657, -3.07545 6.8219, -3.7309  C6.60098, -4.19413 6.3091, -4.62494 5.98564, -4.97021  C5.71974, -5.25473 5.4331, -5.48135 5.15195, -5.63123  C4.6868, -5.88118 4.23971, -5.91421 3.91818, -5.72627 " /><path d="M3.91818, -5.72627 Q3.76144, -5.63563 3.64665, -5.48217 " /><path d="M6.93456, -0.60385 Q7.11568, -0.64422 7.27174, -0.734239 " /><path d="M7.27174, -0.734239 C7.69605, -0.975537 7.95423, -1.49816 7.98145, -2.1586 " /><path d="M8.06986, -2.20965 C8.10381, -2.90521 7.87792, -3.74488 7.47294, -4.47046  C7.22354, -4.92098 6.90953, -5.32633 6.57355, -5.63608  C6.35313, -5.83911 6.13044, -5.99789 5.90546, -6.11241  C5.45537, -6.34254 5.02559, -6.36767 4.71371, -6.18556 " /><path d="M8.06726, -1.19353 C8.49157, -1.43483 8.74976, -1.95745 8.77697, -2.61789 " /><path d="M7.98145, -2.1586 C8.01031, -2.76624 7.84368, -3.4837 7.52902, -4.13915  C7.3081, -4.60237 7.01621, -5.03318 6.69276, -5.37845  C6.42707, -5.66274 6.14069, -5.88923 5.85976, -6.03911  C5.39436, -6.28939 4.94698, -6.32256 4.62529, -6.13451 " /><path d="M4.62529, -6.13451 Q4.46855, -6.04387 4.35376, -5.89042 " /><path d="M7.64166, -1.0121 Q7.82279, -1.05247 7.97885, -1.14249 " /><path d="M7.97885, -1.14249 C8.40316, -1.38379 8.66134, -1.90641 8.68856, -2.56685 " /><path d="M8.77697, -2.61789 C8.81092, -3.31345 8.58503, -4.15313 8.18005, -4.87871  C7.93065, -5.32923 7.61664, -5.73458 7.28066, -6.04433  C7.06023, -6.24736 6.83753, -6.40614 6.61255, -6.52067  C6.16247, -6.75079 5.73269, -6.77592 5.42081, -6.59381 " /><path d="M8.77436, -1.60178 C9.19868, -1.84308 9.45687, -2.3657 9.48407, -3.02614 " /><path d="M8.68856, -2.56685 C8.71742, -3.17449 8.55079, -3.89194 8.23613, -4.54739  C8.01521, -5.01061 7.72333, -5.44142 7.39988, -5.78669  C7.13441, -6.07074 6.84828, -6.29709 6.56757, -6.44698  C6.10192, -6.6976 5.65425, -6.73091 5.3324, -6.54276 " /><path d="M5.3324, -6.54276 Q5.17566, -6.45212 5.06086, -6.29867 " /><path d="M8.34877, -1.42035 Q8.5299, -1.46072 8.68596, -1.55074 " /><path d="M8.68596, -1.55074 C9.11027, -1.79204 9.36845, -2.31466 9.39566, -2.9751 " /><path d="M9.48407, -3.02614 C9.51802, -3.7217 9.29214, -4.56137 8.88715, -5.28696  C8.63775, -5.73748 8.32375, -6.14283 7.98776, -6.45257  C7.76734, -6.65561 7.54464, -6.81439 7.31966, -6.92891  C6.86957, -7.15904 6.4398, -7.18417 6.12792, -7.00206 " /><path d="M9.48147, -2.01003 C9.90578, -2.25133 10.164, -2.77394 10.1912, -3.43439 " /><path d="M9.39566, -2.9751 C9.42453, -3.58274 9.2579, -4.30019 8.94324, -4.95563  C8.72232, -5.41885 8.43045, -5.84965 8.107, -6.19493  C7.84176, -6.47873 7.55589, -6.70495 7.27541, -6.85483  C6.8095, -7.10581 6.36153, -7.13926 6.03951, -6.95101 " /><path d="M6.03951, -6.95101 Q5.88277, -6.86037 5.76797, -6.70692 " /><path d="M9.05588, -1.8286 Q9.23701, -1.86897 9.39306, -1.95899 " /><path d="M9.39306, -1.95899 C9.81738, -2.20028 10.0756, -2.72291 10.1028, -3.38335 " /><path d="M10.1912, -3.43439 C10.2251, -4.12995 9.99924, -4.96962 9.59426, -5.69521  C9.34486, -6.14573 9.03085, -6.55107 8.69487, -6.86082  C8.47445, -7.06385 8.25175, -7.22263 8.02677, -7.33716  C7.57668, -7.56729 7.14691, -7.59242 6.83503, -7.41031 " /><path d="M10.1886, -2.41828 C10.6129, -2.65958 10.8711, -3.18219 10.8983, -3.84264 " /><path d="M10.1028, -3.38335 C10.1316, -3.99099 9.96501, -4.70843 9.65035, -5.36388  C9.42944, -5.82709 9.13756, -6.25789 8.81411, -6.60316  C8.54908, -6.88675 8.26345, -7.11284 7.98318, -7.26273  C7.51703, -7.51402 7.06879, -7.5476 6.74662, -7.35926 " /><path d="M6.74662, -7.35926 Q6.58987, -7.26862 6.47508, -7.11517 " /><path d="M9.76298, -2.23685 Q9.94412, -2.27722 10.1002, -2.36724 " /><path d="M10.1002, -2.36724 C10.5245, -2.60853 10.7827, -3.13116 10.8099, -3.7916 " /><path d="M10.8983, -3.84264 C10.9322, -4.5382 10.7064, -5.37787 10.3014, -6.10346  C10.052, -6.55398 9.73796, -6.95932 9.40198, -7.26907  C9.18155, -7.47211 8.95885, -7.63089 8.73387, -7.74541  C8.28378, -7.97554 7.85401, -8.00066 7.54213, -7.81855 " /><path d="M10.8957, -2.82652 C11.32, -3.06782 11.5782, -3.59044 11.6054, -4.25089 " /><path d="M10.8099, -3.7916 C10.8387, -4.39923 10.6721, -5.11668 10.3575, -5.77212  C10.1365, -6.23533 9.84468, -6.66613 9.52123, -7.0114  C9.25641, -7.29477 8.97102, -7.52073 8.69096, -7.67062  C8.22458, -7.92223 7.77605, -7.95594 7.45372, -7.76751 " /><path d="M7.45372, -7.76751 Q7.29698, -7.67687 7.18219, -7.52342 " /><path d="M10.4701, -2.64509 Q10.6512, -2.68546 10.8073, -2.77548 " /><path d="M10.8073, -2.77548 C11.2316, -3.01678 11.4898, -3.5394 11.517, -4.19985 " /><path d="M11.6054, -4.25089 C11.6393, -4.94645 11.4135, -5.78612 11.0085, -6.51171  C10.7591, -6.96223 10.4451, -7.36757 10.1091, -7.67732  C9.88865, -7.88036 9.66594, -8.03915 9.44094, -8.15368  C8.99087, -8.38378 8.56111, -8.40891 8.24924, -8.2268 " /><path d="M11.6028, -3.23477 C12.0271, -3.47607 12.2853, -3.99869 12.3125, -4.65913 " /><path d="M11.517, -4.19985 C11.5459, -4.80748 11.3792, -5.52492 11.0646, -6.18036  C10.8437, -6.64357 10.5518, -7.07437 10.2284, -7.41964  C9.96375, -7.70277 9.67862, -7.92859 9.39879, -8.07848  C8.93215, -8.33044 8.48332, -8.36429 8.16083, -8.17576 " /><path d="M8.16083, -8.17576 Q8.00409, -8.08512 7.88929, -7.93166 " /><path d="M11.1772, -3.05334 Q11.3583, -3.09371 11.5144, -3.18373 " /><path d="M11.5144, -3.18373 C11.9387, -3.42503 12.1969, -3.94765 12.2241, -4.6081 " /><path d="M12.3125, -4.65913 C12.3465, -5.3547 12.1206, -6.19437 11.7156, -6.91996  C11.4662, -7.37048 11.1522, -7.77582 10.8162, -8.08557  C10.5958, -8.28862 10.373, -8.4474 10.148, -8.56193  C9.69797, -8.79203 9.26821, -8.81716 8.95634, -8.63505 " /><path d="M12.3099, -3.64302 C12.7342, -3.88432 12.9924, -4.40694 13.0196, -5.06738 " /><path d="M12.2241, -4.6081 C12.253, -5.21573 12.0863, -5.93317 11.7717, -6.5886  C11.5508, -7.05181 11.2589, -7.48261 10.9355, -7.82787  C10.6711, -8.11074 10.3863, -8.3364 10.1067, -8.4863  C9.63977, -8.73865 9.19062, -8.77265 8.86794, -8.58401 " /><path d="M8.86794, -8.58401 Q8.7112, -8.49337 8.5964, -8.33991 " /><path d="M11.8843, -3.46159 Q12.0654, -3.50196 12.2215, -3.59198 " /><path d="M12.2215, -3.59198 C12.6458, -3.83328 12.904, -4.3559 12.9312, -5.01635 " /><path d="M13.0196, -5.06738 C13.0536, -5.76294 12.8277, -6.60262 12.4227, -7.32821  C12.1733, -7.77873 11.8593, -8.18407 11.5233, -8.49382  C11.3029, -8.69686 11.0802, -8.85564 10.8552, -8.97016  C10.4051, -9.20028 9.97533, -9.22541 9.66345, -9.0433 " /><path d="M13.017, -4.05127 C13.4413, -4.29257 13.6995, -4.81518 13.7267, -5.47563 " /><path d="M12.9312, -5.01635 C12.9601, -5.62397 12.7934, -6.34141 12.4788, -6.99685  C12.2579, -7.46005 11.966, -7.89084 11.6426, -8.23611  C11.3785, -8.51869 11.094, -8.74418 10.8147, -8.89408  C10.3474, -9.14685 9.89793, -9.18102 9.57505, -8.99226 " /><path d="M12.9286, -4.00023 C13.3529, -4.24153 13.6111, -4.76415 13.6383, -5.42459 " /><path d="M13.7267, -5.47563 C13.7607, -6.17119 13.5348, -7.01087 13.1298, -7.73646  C12.8804, -8.18698 12.5664, -8.59232 12.2304, -8.90207  C12.01, -9.10512 11.7872, -9.26391 11.5622, -9.37843  C11.1122, -9.60853 10.6824, -9.63365 10.3706, -9.45155 " /><path d="M13.7241, -4.45952 C14.1484, -4.70082 14.4066, -5.22343 14.4338, -5.88388 " /><path d="M13.6383, -5.42459 C13.6672, -6.03222 13.5006, -6.74966 13.1859, -7.40509  C12.965, -7.86829 12.6731, -8.29908 12.3497, -8.64435  C12.0819, -8.93091 11.7931, -9.15873 11.51, -9.3086  C11.047, -9.55574 10.6023, -9.58764 10.2822, -9.40051 " /><path d="M10.2822, -9.40051 Q10.1254, -9.30986 10.0106, -9.15641 " /><path d="M13.2985, -4.27809 Q13.4797, -4.31846 13.6357, -4.40848 " /><path d="M13.6357, -4.40848 C14.06, -4.64978 14.3182, -5.1724 14.3454, -5.83284 " /><path d="M14.4338, -5.88388 C14.4678, -6.57944 14.2419, -7.41911 13.8369, -8.14471  C13.5875, -8.59522 13.2735, -9.00057 12.9375, -9.31032  C12.7171, -9.51336 12.4944, -9.67214 12.2694, -9.78667  C11.8193, -10.0168 11.3895, -10.0419 11.0777, -9.85979 " /><path d="M14.4312, -4.86776 C14.8555, -5.10906 15.1137, -5.63168 15.1409, -6.29213 " /><path d="M14.3454, -5.83284 C14.3743, -6.44047 14.2077, -7.1579 13.893, -7.81333  C13.6721, -8.27653 13.3803, -8.70732 13.0568, -9.05258  C12.7894, -9.33875 12.501, -9.56635 12.2183, -9.71623  C11.7548, -9.96393 11.3097, -9.99605 10.9893, -9.80876 " /><path d="M10.9893, -9.80876 Q10.8325, -9.71811 10.7177, -9.56466 " /><path d="M14.0056, -4.68634 Q14.1868, -4.72671 14.3428, -4.81673 " /><path d="M14.3428, -4.81673 C14.7671, -5.05803 15.0253, -5.58065 15.0525, -6.24109 " /><path d="M15.8392 -6.69527 A3 1.73205 60 0 1 15.8327 -6.50684" />
<path d="M15.1409, -6.29213 C15.1749, -6.98769 14.949, -7.82737 14.544, -8.55296  C14.2946, -9.00348 13.9806, -9.40882 13.6446, -9.71857  C13.4242, -9.92162 13.2014, -10.0804 12.9764, -10.1949  C12.5264, -10.425 12.0966, -10.4501 11.7848, -10.268 " /><path d="M15.1383, -5.27601 C15.5197, -5.49373 15.7684, -5.93734 15.8327, -6.50684 " /><path d="M15.0525, -6.24109 C15.0814, -6.84872 14.9148, -7.56615 14.6001, -8.22158  C14.3792, -8.68477 14.0874, -9.11556 13.764, -9.46082  C13.4968, -9.74672 13.2087, -9.97416 12.9262, -10.124  C12.4625, -10.3721 12.017, -10.4044 11.6964, -10.217 " /><path d="M11.6964, -10.217 Q11.5396, -10.1264 11.4248, -9.97291 " /><path d="M14.7127, -5.09459 Q14.8939, -5.13496 15.0499, -5.22498 " /><path d="M15.0499, -5.22498 C15.4742, -5.46628 15.7324, -5.9889 15.7596, -6.64934 " /><path d="M15.3309 -8.57957 A3 1.73205 60 0 1 15.8392 -6.69527" />
<path d="M15.7596, -6.64934 C15.7877, -7.24148 15.6305, -7.93786 15.3309, -8.57957 " /><path id= "124" d=" M 15.8392 -6.71942 L 15.8392 -6.69527 " />
<path id= "125" d=" M 15.8392 -7.18517 L 15.8392 -7.15346 " />
<path d="M14.1421 -10.1246 A2.4 1.38564 60 0 1 14.5559 -9.82652" />
<path d="M14.5559, -9.82652 C14.4733, -9.8974 14.3848, -9.96217 14.414, -9.93728 " /><path d="M14.414, -9.93728 Q14.4298, -9.92382 14.4664, -9.8924 " /><path d="M15.8392, -6.71942 C15.8406, -7.3232 15.6801, -7.99304 15.4056, -8.58308  C15.1561, -9.12423 14.8131, -9.59375 14.4664, -9.8924 " /><path d="M12.3433, -10.3853 C12.6846, -10.6767 13.2245, -10.6577 13.7795, -10.3339 " /><path d="M13.7795, -10.3339 C14.3604, -10.0022 14.9454, -9.34381 15.3309, -8.57957 " /><path d="M15.8392, -7.15346 Q15.8392, -7.05455 15.8313, -6.96006 " /><path d="M15.5797 -8.37648 A2.4 1.38564 60 0 1 15.8392 -7.18517" />
<path d="M15.8392, -7.15346 C15.8397, -7.53629 15.748, -7.96521 15.5797, -8.37648 " /><path d="M14.5559, -9.82652 C14.9679, -9.45703 15.344, -8.92429 15.5797, -8.37648 " /></g>

</svg>
