<svg xmlns="http://www.w3.org/2000/svg" viewBox="-6.803380000000001 -6.02988 14.93326 12.05976">
<rect width="100%" height="100%" fill="white"/>
<g   fill="none"
   stroke="rgb(0, 0, 0)"
   stroke-linecap="butt"
   stroke-linejoin="miter"
   stroke-width="0.35"
   transform="scale(1, -1)"
  >
<path d="M7.1, 0 C7.10072, -1.00367 6.88461, -2.00731 6.47097, -2.92176  C6.05858, -3.83676 5.44865, -4.66258 4.69531, -5.32579  C3.97073, -5.96541 3.11339, -6.4544 2.19402, -6.75251  C1.27502, -7.05173 0.293993, -7.16006 -0.668169, -7.06849  C-1.63045, -6.97814 -2.5738, -6.68791 -3.42045, -6.22178  C-4.26768, -5.75669 -5.01821, -5.11571 -5.6101, -4.35164  C-6.27157, -3.50044 -6.73479, -2.49554 -6.95249, -1.43979  C-7.17198, -0.384414 -7.14596, 0.721805 -6.87694, 1.7657  C-6.60978, 2.81007 -6.09966, 3.79199 -5.39889, 4.61109  C-4.6995, 5.43136 -3.80947, 6.08881 -2.81975, 6.51606  C-1.83079, 6.94506 -0.742263, 7.14382 0.334456, 7.09213  C1.41126, 7.04226 2.47626, 6.74195 3.42045, 6.22178  C4.5288, 5.61457 5.46951, 4.70278 6.11129, 3.61421  C6.75603, 2.52738 7.10185, 1.26378 7.1, 0 " /></g>
<g   fill="none"
   stroke="rgb(0, 0, 0)"
   stroke-linecap="butt"
   stroke-linejoin="miter"
   stroke-width="0.35"
   transform="scale(1, -1)"
  >
<circle cx ="0" cy ="0" r ="4" /><circle cx ="0" cy ="0" r ="4" /><path d="M5 0 A5 5 0 0 1 4.33013 2.5" /><path d="M4.33013 -2.5 A5 5 0 0 1 5 -1.22465e-15" /><path d="M-4.58002e-08 -5 A5 5 0 0 1 4.33013 -2.5" /><path d="M-4.33013 -2.5 A5 5 0 0 1 -4.58002e-08 -5" /><path d="M-4.33013 2.5 A5 5 0 0 1 -4.33013 -2.5" /><path d="M3.70531e-08 5 A5 5 0 0 1 -4.33013 2.5" /><path d="M4.33013 2.5 A5 5 0 0 1 3.70531e-08 5" /><path d="M4.33013, 2.5 C4.78797, 1.70699 5.24553, 0.914468 5.7735, 2.06946e-13 " /><path d="M3.70531e-08, 5 C0.915684, 5 1.83081, 5 2.88675, 5 " /><path d="M2.88675, 5 C3.41472, 4.08553 3.87228, 3.29301 4.33013, 2.5 " /><path d="M-4.33013, 2.5 C-3.87228, 3.29301 -3.41472, 4.08553 -2.88675, 5 " /><path d="M-2.88675, 5 C-1.83081, 5 -0.915684, 5 3.70531e-08, 5 " /><path d="M-4.33013, -2.5 C-4.78797, -1.70699 -5.24553, -0.914468 -5.7735, -2.06501e-13 " /><path d="M-5.7735, 2.07411e-13 C-5.24553, 0.914468 -4.78797, 1.70699 -4.33013, 2.5 " /><path d="M-2.88675, -5 C-3.41472, -4.08553 -3.87228, -3.29301 -4.33013, -2.5 " /><path d="M-4.58002e-08, -5 C-0.915684, -5 -1.83081, -5 -2.88675, -5 " /><path d="M2.88675, -5 C1.83081, -5 0.915684, -5 -4.58002e-08, -5 " /><path d="M4.33013, -2.5 C3.87228, -3.29301 3.41472, -4.08553 2.88675, -5 " /><path d="M5.7735, -2.07411e-13 C5.24553, -0.914468 4.78797, -1.70699 4.33013, -2.5 " /></g>

</svg>
