<svg xmlns="http://www.w3.org/2000/svg" viewBox="-8.441436 -8.441436 16.882872 16.882872">
<rect width="100%" height="100%" fill="white"/>
<g   fill="none"
   stroke="rgb(0, 0, 0)"
   stroke-linecap="butt"
   stroke-linejoin="miter"
   stroke-width="0.35"
   transform="scale(1, -1)"
  >
<path d="M2.55828 -1.92762 A9.52463 0.7457 128.748 0 1 1.83835 -0.99" />
<path d="M2.55828 -1.92762 A3.2032 3.2032 0 0 0 1.92762 -2.55828" /><path d="M0.99 -1.83835 A9.52463 0.7457 -38.7476 0 1 1.92762 -2.55828" />
<path d="M5.2125e-14 -1.54778 A9.50777 0.911721 -16.9194 0 1 0.99 -1.83835" />
<path d="M-0.99 -1.83835 A9.50777 0.911721 16.9194 0 1 -5.53724e-14 -1.54778" />
<path d="M-1.92762 -2.55828 A9.52463 0.7457 38.7476 0 1 -0.99 -1.83835" />
<path d="M-1.92762 -2.55828 A3.2032 3.2032 0 0 0 -2.55828 -1.92762" /><path d="M-1.83835 -0.99 A9.52463 0.7457 -128.748 0 1 -2.55828 -1.92762" />
<path d="M-1.54778 -5.2125e-14 A9.50777 0.911721 -106.919 0 1 -1.83835 -0.99" />
<path d="M-1.83835 0.99 A9.50777 0.911721 -73.0806 0 1 -1.54778 5.53724e-14" />
<path d="M-2.55828 1.92762 A9.52463 0.7457 -51.2524 0 1 -1.83835 0.99" />
<path d="M-2.55828 1.92762 A3.2032 3.2032 0 0 0 -1.92762 2.55828" /><path d="M-0.99 1.83835 A9.52463 0.7457 141.252 0 1 -1.92762 2.55828" />
<path d="M-5.2125e-14 1.54778 A9.50777 0.911721 163.081 0 1 -0.99 1.83835" />
<path d="M0.99 1.83835 A9.50777 0.911721 -163.081 0 1 5.53724e-14 1.54778" />
<path d="M1.92762 2.55828 A9.52463 0.7457 -141.252 0 1 0.99 1.83835" />
<path d="M1.92762 2.55828 A3.2032 3.2032 0 0 0 2.55828 1.92762" /><path d="M1.83835 0.99 A9.52463 0.7457 51.2524 0 1 2.55828 1.92762" />
<path d="M1.54778 5.2125e-14 A9.50777 0.911721 73.0806 0 1 1.83835 0.99" />
<circle cx ="0" cy ="0" r ="7.2771" /><path d="M1.83835 -0.99 A9.50777 0.911721 106.919 0 1 1.54778 -5.53724e-14" />
<path id= "22" d=" M 1.83835 -0.99 L 1.53964 -0.99 " />
<path id= "23" d=" M 1.54778 0 L 1.205 0 " />
<path d="M1.53964, -0.99 C1.39439, -0.573499 1.29292, -0.273325 1.205, -1.98674e-13 " /><path d="M2.55828, -1.92762 C2.14338, -1.55105 1.83572, -1.27154 1.59053, -1.04844 " /><path d="M1.59053, -1.04844 L1.53964, -0.99 " /><path d="M1.04844, -1.59053 C1.27154, -1.83572 1.55105, -2.14338 1.92762, -2.55828 " /><path d="M1.04844 -1.59053 A1.905 1.905 0 0 1 1.59053 -1.04844" /><path id= "29" d=" M 0.99 -1.83835 L 0.99 -1.53964 " />
<path d="M0.99, -1.53964 L1.04844, -1.59053 " /><path id= "31" d=" M -3.43676e-16 -1.54778 L -2.67564e-16 -1.205 " />
<path d="M1.98563e-13, -1.205 C0.273325, -1.29292 0.573499, -1.39439 0.99, -1.53964 " /><path id= "33" d=" M -0.99 -1.83835 L -0.99 -1.53964 " />
<path d="M-0.99, -1.53964 C-0.573499, -1.39439 -0.273325, -1.29292 -1.98827e-13, -1.205 " /><path d="M-1.92762, -2.55828 C-1.55105, -2.14338 -1.27154, -1.83572 -1.04844, -1.59053 " /><path d="M-1.04844, -1.59053 L-0.99, -1.53964 " /><path d="M-1.59053, -1.04844 C-1.83572, -1.27154 -2.14338, -1.55105 -2.55828, -1.92762 " /><path d="M-1.59053 -1.04844 A1.905 1.905 0 0 1 -1.04844 -1.59053" /><path id= "39" d=" M -1.83835 -0.99 L -1.53964 -0.99 " />
<path d="M-1.53964, -0.99 L-1.59053, -1.04844 " /><path id= "41" d=" M -1.54778 1.89549e-16 L -1.205 1.4757e-16 " />
<path d="M-1.205, -1.98563e-13 C-1.29292, -0.273325 -1.39439, -0.573499 -1.53964, -0.99 " /><path id= "43" d=" M -1.83835 0.99 L -1.53964 0.99 " />
<path d="M-1.53964, 0.99 C-1.39439, 0.573499 -1.29292, 0.273325 -1.205, 1.98674e-13 " /><path d="M-2.55828, 1.92762 C-2.14338, 1.55105 -1.83572, 1.27154 -1.59053, 1.04844 " /><path d="M-1.59053, 1.04844 L-1.53964, 0.99 " /><path d="M-1.04844, 1.59053 C-1.27154, 1.83572 -1.55105, 2.14338 -1.92762, 2.55828 " /><path d="M-1.04844 1.59053 A1.905 1.905 0 0 1 -1.59053 1.04844" /><path id= "49" d=" M -0.99 1.83835 L -0.99 1.53964 " />
<path d="M-0.99, 1.53964 L-1.04844, 1.59053 " /><path id= "51" d=" M 1.71838e-16 1.54778 L 1.33782e-16 1.205 " />
<path d="M-1.98563e-13, 1.205 C-0.273325, 1.29292 -0.573499, 1.39439 -0.99, 1.53964 " /><path id= "53" d=" M 0.99 1.83835 L 0.99 1.53964 " />
<path d="M0.99, 1.53964 C0.573499, 1.39439 0.273325, 1.29292 1.98674e-13, 1.205 " /><path d="M1.92762, 2.55828 C1.55105, 2.14338 1.27154, 1.83572 1.04844, 1.59053 " /><path d="M1.04844, 1.59053 L0.99, 1.53964 " /><path d="M1.59053, 1.04844 C1.83572, 1.27154 2.14338, 1.55105 2.55828, 1.92762 " /><path d="M1.59053 1.04844 A1.905 1.905 0 0 1 1.04844 1.59053" /><path id= "59" d=" M 1.83835 0.99 L 1.53964 0.99 " />
<path d="M1.53964, 0.99 L1.59053, 1.04844 " /><path d="M1.205, 1.98563e-13 C1.29292, 0.273325 1.39439, 0.573499 1.53964, 0.99 " /></g>

</svg>
