<svg xmlns="http://www.w3.org/2000/svg" viewBox="-4.8123368 -5.6738368 24.4597136 17.7891136">
<rect width="100%" height="100%" fill="white"/>
<g   fill="none"
   stroke="rgb(0, 0, 0)"
   stroke-linecap="butt"
   stroke-linejoin="miter"
   stroke-width="0.35"
   transform="scale(1, -1)"
  >
<path id= "1" d=" M 17.9605 -10.3695 L 17.2399 -9.39331 " />
<path id= "2" d=" M 17.9605 -10.3695 L 17.1543 -10.2786 " />
<path id= "3" d=" M 16.9041 -10.2504 L 15.5314 -10.0956 " />
<path d="M16.8757, -10.4284 Q16.923, -10.4001 16.9745, -10.3716  Q17.061, -10.323 17.1637, -10.2797 " /><path d="M17.231, -9.56035 Q17.219, -9.67359 17.2162, -9.77357 " /><path id= "6" d=" M 16.8371 -8.84767 L 16.3361 -8.16894 " />
<path id= "7" d=" M 14.9323 -10.028 L 13.8909 -9.91059 " />
<path d="M16.9058, -10.2411 Q16.8985, -10.2811 16.8898, -10.3085  Q16.8763, -10.3482 16.8745, -10.349 " /><path id= "9" d=" M 15.6475 -7.23613 L 15.5091 -7.04861 " />
<path id= "10" d=" M 15.3271 -6.88402 L 15.1976 -6.80926 " />
<path id= "11" d=" M 12.8427 -9.37978 L 12.4547 -9.15582 " />
<path id= "12" d=" M 13.8537 -6.03335 L 13.816 -6.01161 " />
<path id= "13" d=" M 11.4611 -8.58214 L 11.0732 -8.35817 " />
<path id= "14" d=" M 12.4721 -5.2357 L 12.4344 -5.21396 " />
<path id= "15" d=" M 10.0795 -7.78449 L 9.6916 -7.56052 " />
<path id= "16" d=" M 11.0905 -4.43805 L 11.0529 -4.41631 " />
<path id= "17" d=" M 8.69796 -6.98684 L 8.66095 -6.96547 " />
<path id= "18" d=" M 8.71244 -6.98341 L 8.23544 -6.81719 " />
<path id= "19" d=" M 9.93336 -3.64739 L 9.63927 -3.39365 " />
<path id= "20" d=" M 7.3814 -6.51957 L 6.49618 -6.21109 " />
<path id= "21" d=" M 8.81805 -2.6851 L 8.04328 -2.01663 " />
<path id= "22" d=" M 7.70274 -1.72281 L 7.34007 -1.4099 " />
<path id= "23" d=" M 5.99037 -6.03483 L 4.89104 -5.65174 " />
<path id= "24" d=" M 7.21275 -1.31933 L 3.62836 0.750115 " />
<path id= "25" d=" M 4.74895 -5.58676 L 1.16456 -3.51731 " />
<path id= "26" d=" M 3.65891 0.483387 L 3.46302 2.19373 " />
<path id= "27" d=" M 1.41083 -3.41041 L -0.168316 -4.09593 " />
<path id= "28" d=" M 2.53431 3.85277 L 2.30188 3.98696 " />
<path id= "29" d=" M -2.06944 -4.12116 L -2.30188 -3.98696 " />
</g>
<g   fill="none"
   stroke="rgb(0, 0, 0)"
   stroke-linecap="butt"
   stroke-linejoin="miter"
   stroke-width="0.35"
   transform="scale(1, -1)"
  >
<path d="M17.1543, -10.2786 C17.1427, -10.278 17.14, -10.2636 17.1459, -10.2353  C17.1581, -10.1695 17.212, -10.0011 17.2162, -9.77357 " /><path d="M16.9058, -10.2411 C16.9104, -10.2124 16.9654, -10.0993 17.0054, -9.90774  C17.0437, -9.727 17.0627, -9.47865 17.0093, -9.24088 " /><path d="M16.8804, -10.3357 C16.8299, -10.4081 16.8314, -10.455 16.8757, -10.4284 " /><path d="M16.8757, -10.4284 C16.9154, -10.4053 16.9898, -10.3191 17.0633, -10.1672  C17.1366, -10.0169 17.207, -9.80114 17.231, -9.56035 " /><path d="M17.231, -9.56035 C17.2594, -9.28644 17.2233, -8.98284 17.0911, -8.74679  C16.9612, -8.5096 16.7344, -8.34602 16.4482, -8.32079 " /><path d="M14.6635, -9.99771 C14.6452, -10.3201 14.8329, -10.4958 15.1263, -10.3818  C15.4157, -10.2769 15.7974, -9.87752 16.052, -9.30945  C16.3099, -8.74745 16.4234, -8.03431 16.2707, -7.47684  C16.1966, -7.19809 16.0599, -6.95958 15.8681, -6.79284  C15.6768, -6.6255 15.4308, -6.5305 15.1527, -6.52258 " /><path d="M12.4459, -9.1625 L12.4441, -9.17181 " /><path d="M17.0093, -9.24088 Q16.9626, -9.02246 16.8371, -8.84767 " /><path d="M14.9323, -10.028 C15.0751, -10.0472 15.3149, -9.87378 15.5205, -9.54787  C15.7881, -9.1357 15.9754, -8.48307 15.9037, -7.92906 " /><path d="M13.8918 -9.90988 A1.7018 0.982535 60 0 1 15.6795 -7.66307" />
<path d="M12.4498, -9.15955 L12.4441, -9.17181 " /><path d="M15.9037, -7.92906 C15.8718, -7.66312 15.785, -7.42174 15.6475, -7.23613 " /><path d="M12.4441, -9.17181 C12.4031, -9.51525 12.4525, -9.80569 12.5791, -9.99738  C12.705, -10.1901 12.9074, -10.2832 13.1508, -10.2595  C13.3938, -10.2371 13.6769, -10.0979 13.9525, -9.85906  C14.2281, -9.6212 14.4952, -9.28436 14.7087, -8.89451  C14.9227, -8.50519 15.0821, -8.06414 15.1577, -7.63259  C15.2341, -7.20093 15.2263, -6.7802 15.1294, -6.42866  C15.0333, -6.0764 14.8484, -5.7945 14.5958, -5.62085  C14.3439, -5.44609 14.025, -5.38011 13.6799, -5.42914 " /><path d="M11.0636, -8.3654 L11.0626, -8.37416 " /><path d="M15.6795 -7.66307 A1.7018 0.982535 60 0 1 15.5091 -7.04861" />
<path d="M15.5091 -7.04861 A1.7018 0.982535 60 0 1 15.3271 -6.88402" />
<path d="M12.8427, -9.37978 C13.057, -9.50933 13.4292, -9.35205 13.7544, -8.96004  C13.9566, -8.71948 14.1378, -8.39594 14.2541, -8.04657  C14.3813, -7.66813 14.4303, -7.26177 14.3788, -6.91211 " /><path d="M14.3788, -6.91211 C14.3225, -6.51385 14.1352, -6.19381 13.8537, -6.03335 " /><path d="M11.0626, -8.37416 C11.0216, -8.7176 11.071, -9.00804 11.1976, -9.19973  C11.3234, -9.39242 11.5258, -9.48552 11.7692, -9.46188  C12.0123, -9.43945 12.2953, -9.30029 12.5709, -9.06141  C12.8466, -8.82354 13.1137, -8.48671 13.3271, -8.09685  C13.5411, -7.70754 13.7006, -7.26649 13.7761, -6.83494  C13.8526, -6.40328 13.8447, -5.98255 13.7478, -5.63101  C13.6518, -5.27875 13.4669, -4.99685 13.2143, -4.8232  C12.9623, -4.64844 12.6434, -4.58246 12.2983, -4.6315 " /><path d="M9.68205, -7.56775 L9.68099, -7.57651 " /><path d="M11.4611, -8.58214 C11.6755, -8.71174 12.048, -8.55427 12.3732, -8.16192  C12.572, -7.92525 12.7506, -7.60844 12.8669, -7.26565  C12.9982, -6.88249 13.0496, -6.46929 12.9973, -6.11446 " /><path d="M12.9973, -6.11446 C12.941, -5.7162 12.7536, -5.39616 12.4721, -5.2357 " /><path d="M9.68099, -7.57651 C9.64, -7.91995 9.6894, -8.21039 9.816, -8.40208  C9.94181, -8.59477 10.1442, -8.68786 10.3877, -8.66423  C10.6307, -8.6418 10.9137, -8.50264 11.1893, -8.26376  C11.465, -8.02589 11.7321, -7.68906 11.9456, -7.2992  C12.1596, -6.90989 12.319, -6.46884 12.3946, -6.03729  C12.471, -5.60563 12.4632, -5.1849 12.3662, -4.83336  C12.2702, -4.4811 12.0853, -4.1992 11.8327, -4.02555  C11.5807, -3.85079 11.2618, -3.78481 10.9168, -3.83385 " /><path d="M10.0795, -7.78449 C10.2941, -7.91415 10.6667, -7.75649 10.9921, -7.36381  C11.1947, -7.12251 11.3761, -6.79791 11.4922, -6.44759  C11.6185, -6.07019 11.667, -5.66535 11.6157, -5.31681 " /><path d="M11.6157, -5.31681 C11.5594, -4.91855 11.3721, -4.59852 11.0905, -4.43805 " /><path d="M8.29332, -6.83736 C8.26262, -7.17236 8.32093, -7.45198 8.45398, -7.63261  C8.58628, -7.81424 8.79274, -7.89611 9.03769, -7.86298  C9.28226, -7.83102 9.56435, -7.68409 9.83734, -7.44012  C10.1104, -7.19712 10.3733, -6.85782 10.5822, -6.46793  C10.7917, -6.07855 10.9463, -5.63982 11.0178, -5.21182  C11.0902, -4.7837 11.0791, -4.3677 10.9805, -4.02062  C10.8827, -3.67284 10.6974, -3.39509 10.4457, -3.22418  C10.1946, -3.05218 9.87779, -2.98753 9.5352, -3.0362 " /><path d="M8.69796, -6.98684 Q8.82021, -7.05675 8.99113, -7.01558 " /><path d="M8.71244 -6.98341 A1.7018 0.982535 60 0 1 8.99113 -7.01558" />
<path d="M9.93336, -3.64739 C10.1543, -3.83658 10.2935, -4.14228 10.3314, -4.50411 " /><path d="M10.3314, -4.50411 C10.3869, -4.99838 10.2455, -5.59288 9.98802, -6.06973  C9.7096, -6.59637 9.30261, -6.96191 8.99113, -7.01558 " /><path d="M6.91025, -6.35539 C6.93539, -6.63201 7.03741, -6.84438 7.19828, -6.96229  C7.35862, -7.08106 7.57726, -7.10497 7.82115, -7.02809  C8.06482, -6.95214 8.33296, -6.77555 8.58612, -6.51831  C8.83941, -6.26178 9.07693, -5.92523 9.26316, -5.54921  C9.64124, -4.7974 9.78912, -3.89345 9.60283, -3.23715  C9.51281, -2.90788 9.34531, -2.63989 9.11703, -2.46489  C8.8893, -2.28906 8.6013, -2.20664 8.28528, -2.22543 " /><path d="M7.3814, -6.51957 C7.59294, -6.59498 7.88907, -6.50423 8.18363, -6.26256  C8.49542, -6.00978 8.80098, -5.59021 9.00326, -5.10954  C9.20457, -4.63669 9.30278, -4.11003 9.25921, -3.6586 " /><path d="M9.25921, -3.6586 C9.22146, -3.24546 9.0666, -2.89794 8.81805, -2.6851 " /><path d="M5.61385, -5.90362 C5.77346, -6.26868 6.15071, -6.376 6.5871, -6.1735  C7.02219, -5.97849 7.50468, -5.47749 7.83831, -4.83641  C8.17567, -4.19858 8.3548, -3.43471 8.28814, -2.80483  C8.22746, -2.17153 7.92093, -1.68613 7.45488, -1.50896 " /><path d="M5.99037, -6.03483 C6.22653, -6.11869 6.54866, -6.03284 6.87332, -5.7907  C7.05916, -5.65272 7.23744, -5.473 7.40814, -5.25154  C7.57722, -5.03121 7.7306, -4.77523 7.85496, -4.50154  C8.10529, -3.95441 8.23238, -3.33771 8.187, -2.81309 " /><path d="M7.72302 -2.4472 A2.4638 1.42248 60 0 1 7.34007 -1.4099" />
<path d="M7.34007 -1.4099 A2.4638 1.42248 60 0 1 7.21275 -1.31933" />
<path d="M4.74895 -5.58676 A2.4638 1.42248 60 0 1 4.89104 -5.65174" />
<path d="M4.89104 -5.65174 A2.4638 1.42248 60 0 1 7.72302 -2.4472" />
<path d="M8.187, -2.81309 C8.14938, -2.34867 7.97896, -1.95931 7.70274, -1.72281 " /><path d="M3.48778 1.74527 A4.60375 2.65798 60 0 1 3.46302 2.19373" />
<path d="M3.46302 2.19373 A4.60375 2.65798 60 0 1 2.53431 3.85277" />
<path d="M-2.06944 -4.12116 A4.60375 2.65798 60 0 1 -0.168316 -4.09593" />
<path d="M-0.168316 -4.09593 A4.60375 2.65798 60 0 1 3.48778 1.74527" />
<path d="M3.25534 1.87947 A4.60375 2.65798 60 0 1 2.30188 3.98696" />
<path d="M2.30187 3.98696 A4.60375 2.65798 60 0 1 -2.30187 -3.98696" />
<path d="M-2.30187 -3.98696 A4.60375 2.65798 60 0 1 3.25534 1.87947" />
<path d="M2.87401 1.18231 A4.31016 2.48847 60 0 1 2.92202 1.8322" />
<path d="M-3.12546 -2.28148 A8.57177 4.94891 3.11665e-15 0 0 2.87401 1.18231" />
<path d="M-3.12546 -1.03714 A4.31016 2.48847 60 0 1 -3.12546 -2.28148" />
<path d="M-3.12546 -1.03714 A8.57177 4.94891 3.11665e-15 0 0 2.87401 2.42666" />
<path d="M2.92202 1.8322 A4.31016 2.48847 60 0 1 2.87401 2.42666" />
<path id= "53" d=" M -3.12546 -1.03714 L 2.87401 2.42666 " />
</g>

</svg>
