<svg xmlns="http://www.w3.org/2000/svg" viewBox="-5.34035 -5.34035 10.6807 10.6807">
<rect width="100%" height="100%" fill="white"/>
<g   fill="none"
   stroke="rgb(0, 0, 0)"
   stroke-linecap="butt"
   stroke-linejoin="miter"
   stroke-width="0.35"
   transform="scale(1, -1)"
  >
<circle cx ="0" cy ="0" r ="4.60375" /><path d="M4.24227 -0.762 A4.31016 4.31016 0 0 1 4.31016 -1.05568e-15" /><path d="M-4.24227, -0.762 Q-3.96127, -0.762 -3.68028, -0.762  Q-3.38922, -0.762 -3.09816, -0.762  Q-2.79863, -0.762 -2.4991, -0.762  Q-2.19274, -0.762 -1.88638, -0.762  Q-1.26529, -0.762 -0.633406, -0.762  Q-0.316703, -0.762 -3.33067e-15, -0.762  Q0.316703, -0.762 0.633406, -0.762  Q1.26529, -0.762 1.88638, -0.762  Q2.19274, -0.762 2.4991, -0.762  Q2.79863, -0.762 3.09816, -0.762  Q3.38922, -0.762 3.68028, -0.762  Q3.96127, -0.762 4.24227, -0.762 " /><path d="M-4.24227 0.762 A4.31016 4.31016 0 0 1 -4.24227 -0.762" /><path d="M-4.24227, 0.762 Q-3.96127, 0.762 -3.68028, 0.762  Q-3.38922, 0.762 -3.09816, 0.762  Q-2.79863, 0.762 -2.4991, 0.762  Q-2.19274, 0.762 -1.88638, 0.762  Q-1.26529, 0.762 -0.633406, 0.762  Q-0.316703, 0.762 -3.33067e-15, 0.762  Q0.316703, 0.762 0.633406, 0.762  Q1.26529, 0.762 1.88638, 0.762  Q2.19274, 0.762 2.4991, 0.762  Q2.79863, 0.762 3.09816, 0.762  Q3.38922, 0.762 3.68028, 0.762  Q3.96127, 0.762 4.24227, 0.762 " /><path d="M4.31016 0 A4.31016 4.31016 0 0 1 4.24227 0.762" /><path id= "7" d=" M -4.24227 0.762 L 4.24227 0.762 " />
<path id= "8" d=" M -4.24227 -0.762 L 4.24227 -0.762 " />
</g>

</svg>
