<svg xmlns="http://www.w3.org/2000/svg" viewBox="-9.2544136 -10.3205636 31.4214072 20.6411272">
<rect width="100%" height="100%" fill="white"/>
<g   fill="none"
   stroke="rgb(0, 0, 0)"
   stroke-linecap="butt"
   stroke-linejoin="miter"
   stroke-width="0.35"
   transform="scale(1, -1)"
  >
<path id= "1" d=" M -7.08742 -5 L -6.69836 -5.7735 " />
<path id= "2" d=" M -2.25363 -5.7735 L -1.14378 -8.15357 " />
<path d="M-1.14378, -8.15357 C-1.07796, -8.29624 -0.953522, -8.41036 -0.805704, -8.46364  C-0.683745, -8.50847 -0.547146, -8.51193 -0.423075, -8.47332  C-0.176707, -8.40139 0.00391771, -8.15662 0, -7.9 " /><path d="M0.4, -4 C0.296188, -3.99959 0.193081, -4.04183 0.119387, -4.11494  C0.043595, -4.18894 -0.000441116, -4.29408 0, -4.4 " /><path id= "5" d=" M 1.0625 -4 L 0.4 -4 " />
<path id= "6" d=" M 2.0625 -4 L 1.93747 -4 " />
<path d="M1.42694, 3.99053 L1.11349, 3.4488 " /><path d="M1.11349, 3.4488 Q1.10555, 3.43411 1.08646, 3.41742  Q1.05013, 3.38759 1.00003, 3.3866 " /><path d="M0.887687, 3.44783 L0.573457, 3.99054 " /><path d="M1.38769, -3.44782 L1.07345, -3.99054 " /><path id= "11" d=" M 3.0625 -4 L 2.93747 -4 " />
<path d="M1.92652, -3.99053 L1.61237, -3.44783 " /><path d="M2.42651, 3.99053 L2.11237, 3.44784 " /><path d="M1.88769, 3.44783 L1.57346, 3.99053 " /><path d="M2.38769, -3.44782 L2.07345, -3.99054 " /><path d="M1.61237, -3.44783 Q1.60482, -3.43377 1.5859, -3.41718  Q1.55877, -3.39468 1.52142, -3.38828  Q1.51072, -3.38743 1.50002, -3.38659  Q1.45181, -3.38748 1.41624, -3.41549  Q1.39572, -3.43281 1.38769, -3.44782 " /><path d="M2.11237, 3.44784 Q2.10482, 3.43377 2.0859, 3.41719  Q2.04991, 3.38761 2.00002, 3.3866 " /><path d="M1.00002, 3.3866 Q0.951808, 3.38749 0.916243, 3.4155  Q0.895722, 3.43281 0.887687, 3.44783 " /><path id= "19" d=" M 4.0625 -4 L 3.93747 -4 " />
<path d="M2.92652, -3.99053 L2.61237, -3.44783 " /><path d="M3.42651, 3.99053 L3.11237, 3.44784 " /><path d="M2.88768, 3.44783 L2.57346, 3.99053 " /><path d="M3.38768, -3.44782 L3.07345, -3.99054 " /><path d="M2.61237, -3.44783 Q2.60482, -3.43377 2.5859, -3.41718  Q2.55877, -3.39468 2.52142, -3.38827  Q2.51072, -3.38743 2.50002, -3.38659  Q2.4518, -3.38748 2.41624, -3.41549  Q2.39572, -3.43281 2.38769, -3.44782 " /><path d="M3.11237, 3.44784 Q3.10482, 3.43377 3.0859, 3.41719  Q3.04991, 3.38761 3.00002, 3.3866 " /><path d="M2.00002, 3.3866 Q1.95181, 3.38748 1.91624, 3.41549  Q1.89572, 3.43281 1.88769, 3.44783 " /><path id= "27" d=" M 5.0625 -4 L 4.93747 -4 " />
<path d="M3.92652, -3.99053 L3.61237, -3.44783 " /><path d="M4.42652, 3.99053 L4.11237, 3.44783 " /><path d="M3.88768, 3.44783 L3.57346, 3.99053 " /><path d="M4.38768, -3.44782 L4.07345, -3.99054 " /><path d="M3.61237, -3.44783 Q3.60482, -3.43377 3.5859, -3.41718  Q3.55877, -3.39468 3.52142, -3.38827  Q3.51072, -3.38743 3.50002, -3.38659  Q3.4518, -3.38748 3.41624, -3.41549  Q3.39572, -3.43281 3.38768, -3.44782 " /><path d="M4.11237, 3.44783 Q4.10482, 3.43377 4.0859, 3.41718  Q4.04991, 3.38761 4.00002, 3.38659 " /><path d="M3.00002, 3.3866 Q2.95181, 3.38748 2.91624, 3.41549  Q2.89572, 3.43281 2.88768, 3.44783 " /><path id= "35" d=" M 6.0625 -4 L 5.93748 -4 " />
<path d="M4.92652, -3.99053 L4.61237, -3.44783 " /><path d="M5.42652, 3.99053 L5.11236, 3.44783 " /><path d="M4.88768, 3.44783 L4.57346, 3.99053 " /><path d="M5.38768, -3.44782 L5.07345, -3.99054 " /><path d="M4.61237, -3.44783 Q4.60482, -3.43376 4.5859, -3.41718  Q4.55877, -3.39468 4.52141, -3.38827  Q4.51072, -3.38743 4.50002, -3.38659  Q4.4518, -3.38748 4.41624, -3.41549  Q4.39572, -3.43281 4.38768, -3.44782 " /><path d="M5.11236, 3.44783 Q5.10481, 3.43377 5.0859, 3.41718  Q5.04991, 3.38761 5.00002, 3.38659 " /><path d="M4.00002, 3.38659 Q3.9518, 3.38748 3.91624, 3.41549  Q3.89572, 3.43281 3.88768, 3.44783 " /><path id= "43" d=" M 7.0625 -4 L 6.93748 -4 " />
<path d="M5.92652, -3.99053 L5.61236, -3.44783 " /><path d="M6.42652, 3.99053 L6.11236, 3.44783 " /><path d="M5.88768, 3.44782 L5.57346, 3.99053 " /><path d="M6.38768, -3.44782 L6.07345, -3.99054 " /><path d="M5.61236, -3.44783 Q5.60481, -3.43376 5.5859, -3.41718  Q5.55877, -3.39467 5.52141, -3.38827  Q5.51071, -3.38743 5.50002, -3.38659  Q5.4518, -3.38747 5.41623, -3.41548  Q5.39571, -3.4328 5.38768, -3.44782 " /><path d="M6.11236, 3.44783 Q6.10481, 3.43377 6.0859, 3.41718  Q6.04991, 3.3876 6.00002, 3.38659 " /><path d="M5.00002, 3.38659 Q4.9518, 3.38748 4.91624, 3.41549  Q4.89572, 3.43281 4.88768, 3.44783 " /><path id= "51" d=" M 8.0625 -4 L 7.93748 -4 " />
<path d="M6.92653, -3.99053 L6.61236, -3.44782 " /><path d="M7.42652, 3.99053 L7.11236, 3.44783 " /><path d="M6.88768, 3.44782 L6.57346, 3.99053 " /><path d="M7.38768, -3.44782 L7.07345, -3.99054 " /><path d="M6.61236, -3.44782 Q6.60481, -3.43376 6.5859, -3.41717  Q6.55876, -3.39467 6.52141, -3.38827  Q6.51071, -3.38743 6.50001, -3.38658  Q6.4518, -3.38747 6.41623, -3.41548  Q6.39571, -3.4328 6.38768, -3.44782 " /><path d="M7.11236, 3.44783 Q7.10481, 3.43376 7.08589, 3.41718  Q7.04991, 3.3876 7.00002, 3.38659 " /><path d="M6.00002, 3.38659 Q5.9518, 3.38748 5.91624, 3.41549  Q5.89571, 3.43281 5.88768, 3.44782 " /><path id= "59" d=" M 9.0625 -4 L 8.93748 -4 " />
<path d="M7.92653, -3.99053 L7.61236, -3.44782 " /><path d="M8.42652, 3.99053 L8.11236, 3.44783 " /><path d="M7.88768, 3.44782 L7.57346, 3.99053 " /><path d="M8.38768, -3.44781 L8.07345, -3.99054 " /><path d="M7.61236, -3.44782 Q7.60481, -3.43376 7.58589, -3.41717  Q7.55876, -3.39467 7.52141, -3.38827  Q7.51071, -3.38742 7.50001, -3.38658  Q7.4518, -3.38747 7.41623, -3.41548  Q7.39571, -3.4328 7.38768, -3.44782 " /><path d="M8.11236, 3.44783 Q8.10481, 3.43376 8.08589, 3.41718  Q8.0499, 3.3876 8.00001, 3.38659 " /><path d="M7.00002, 3.38659 Q6.9518, 3.38748 6.91623, 3.41549  Q6.89571, 3.43281 6.88768, 3.44782 " /><path id= "67" d=" M 10.0625 -4 L 9.93748 -4 " />
<path d="M8.92653, -3.99053 L8.61236, -3.44782 " /><path d="M9.42652, 3.99053 L9.11236, 3.44782 " /><path d="M8.88768, 3.44782 L8.57346, 3.99053 " /><path d="M9.38767, -3.44781 L9.07345, -3.99054 " /><path d="M8.61236, -3.44782 Q8.60481, -3.43376 8.58589, -3.41717  Q8.55876, -3.39467 8.52141, -3.38826  Q8.51071, -3.38742 8.50001, -3.38658  Q8.45179, -3.38747 8.41623, -3.41548  Q8.39571, -3.4328 8.38768, -3.44781 " /><path d="M9.11236, 3.44782 Q9.10481, 3.43376 9.08589, 3.41717  Q9.0499, 3.3876 9.00001, 3.38659 " /><path d="M8.00001, 3.38659 Q7.9518, 3.38747 7.91623, 3.41548  Q7.89571, 3.4328 7.88768, 3.44782 " /><path id= "75" d=" M 11.0625 -4 L 10.9375 -4 " />
<path d="M9.92653, -3.99053 L9.61236, -3.44782 " /><path d="M10.4265, 3.99053 L10.1124, 3.44782 " /><path d="M9.88767, 3.44782 L9.57346, 3.99053 " /><path d="M10.3877, -3.44781 L10.0735, -3.99054 " /><path d="M9.61236, -3.44782 Q9.60481, -3.43375 9.58589, -3.41717  Q9.55876, -3.39467 9.5214, -3.38826  Q9.51071, -3.38742 9.50001, -3.38658  Q9.45179, -3.38747 9.41623, -3.41548  Q9.39571, -3.4328 9.38767, -3.44781 " /><path d="M10.1124, 3.44782 Q10.1048, 3.43376 10.0859, 3.41717  Q10.0499, 3.3876 10, 3.38658 " /><path d="M9.00001, 3.38659 Q8.9518, 3.38747 8.91623, 3.41548  Q8.89571, 3.4328 8.88768, 3.44782 " /><path id= "83" d=" M 12.0625 -4 L 11.9375 -4 " />
<path d="M10.9265, -3.99053 L10.6124, -3.44782 " /><path d="M11.4265, 3.99053 L11.1124, 3.44782 " /><path d="M10.8877, 3.44782 L10.5735, 3.99053 " /><path d="M11.3877, -3.44781 L11.0735, -3.99054 " /><path d="M10.6124, -3.44782 Q10.6048, -3.43375 10.5859, -3.41717  Q10.5588, -3.39466 10.5214, -3.38826  Q10.5107, -3.38742 10.5, -3.38658  Q10.4518, -3.38747 10.4162, -3.41548  Q10.3957, -3.4328 10.3877, -3.44781 " /><path d="M11.1124, 3.44782 Q11.1048, 3.43376 11.0859, 3.41717  Q11.0499, 3.3876 11, 3.38658 " /><path d="M10, 3.38658 Q9.9518, 3.38747 9.91623, 3.41548  Q9.89571, 3.4328 9.88767, 3.44782 " /><path id= "91" d=" M 13.0625 -4 L 12.9375 -4 " />
<path d="M11.9265, -3.99053 L11.6124, -3.44781 " /><path d="M12.4265, 3.99053 L12.1124, 3.44782 " /><path d="M11.8877, 3.44781 L11.5735, 3.99053 " /><path d="M12.3877, -3.44781 L12.0735, -3.99054 " /><path d="M11.6124, -3.44781 Q11.6048, -3.43375 11.5859, -3.41716  Q11.5588, -3.39466 11.5214, -3.38826  Q11.5107, -3.38742 11.5, -3.38658  Q11.4518, -3.38746 11.4162, -3.41548  Q11.3957, -3.4328 11.3877, -3.44781 " /><path d="M12.1124, 3.44782 Q12.1048, 3.43375 12.0859, 3.41717  Q12.0499, 3.38759 12, 3.38658 " /><path d="M11, 3.38658 Q10.9518, 3.38747 10.9162, 3.41548  Q10.8957, 3.4328 10.8877, 3.44782 " /><path id= "99" d=" M 14.0625 -4 L 13.9375 -4 " />
<path d="M12.9265, -3.99053 L12.6124, -3.44781 " /><path d="M13.4265, 3.99053 L13.1124, 3.44782 " /><path d="M12.8877, 3.44781 L12.5735, 3.99053 " /><path d="M13.3877, -3.44781 L13.0735, -3.99054 " /><path d="M12.6124, -3.44781 Q12.6048, -3.43375 12.5859, -3.41716  Q12.5588, -3.39466 12.5214, -3.38826  Q12.5107, -3.38742 12.5, -3.38657  Q12.4518, -3.38746 12.4162, -3.41547  Q12.3957, -3.43279 12.3877, -3.44781 " /><path d="M13.1124, 3.44782 Q13.1048, 3.43375 13.0859, 3.41717  Q13.0499, 3.38759 13, 3.38658 " /><path d="M12, 3.38658 Q11.9518, 3.38747 11.9162, 3.41548  Q11.8957, 3.4328 11.8877, 3.44781 " /><path id= "107" d=" M 15.0625 -4 L 14.9375 -4 " />
<path d="M13.9265, -3.99053 L13.6124, -3.44781 " /><path d="M14.4265, 3.99053 L14.1124, 3.44781 " /><path d="M13.8877, 3.44781 L13.5735, 3.99053 " /><path d="M14.3877, -3.44781 L14.0735, -3.99054 " /><path d="M13.6124, -3.44781 Q13.6048, -3.43375 13.5859, -3.41716  Q13.5588, -3.39466 13.5214, -3.38825  Q13.5107, -3.38741 13.5, -3.38657  Q13.4518, -3.38746 13.4162, -3.41547  Q13.3957, -3.43279 13.3877, -3.44781 " /><path d="M14.1124, 3.44781 Q14.1048, 3.43375 14.0859, 3.41716  Q14.0499, 3.38759 14, 3.38658 " /><path d="M13, 3.38658 Q12.9518, 3.38747 12.9162, 3.41548  Q12.8957, 3.4328 12.8877, 3.44781 " /><path id= "115" d=" M 16.0625 -4 L 15.9375 -4 " />
<path d="M14.9265, -3.99053 L14.6124, -3.44781 " /><path d="M15.4265, 3.99053 L15.1124, 3.44781 " /><path d="M14.8877, 3.44781 L14.5735, 3.99053 " /><path d="M15.3877, -3.4478 L15.0734, -3.99054 " /><path d="M14.6124, -3.44781 Q14.6048, -3.43374 14.5859, -3.41716  Q14.5587, -3.39466 14.5214, -3.38825  Q14.5107, -3.38741 14.5, -3.38657  Q14.4518, -3.38746 14.4162, -3.41547  Q14.3957, -3.43279 14.3877, -3.44781 " /><path d="M15.1124, 3.44781 Q15.1048, 3.43375 15.0859, 3.41716  Q15.0499, 3.38759 15, 3.38658 " /><path d="M14, 3.38658 Q13.9518, 3.38746 13.9162, 3.41547  Q13.8957, 3.4328 13.8877, 3.44781 " /><path id= "123" d=" M 17.0625 -4 L 16.9375 -4 " />
<path d="M15.9265, -3.99053 L15.6124, -3.44781 " /><path d="M16.4265, 3.99053 L16.1123, 3.44781 " /><path d="M15.8877, 3.44781 L15.5735, 3.99053 " /><path d="M16.3877, -3.4478 L16.0734, -3.99054 " /><path d="M15.6124, -3.44781 Q15.6048, -3.43374 15.5859, -3.41716  Q15.5587, -3.39466 15.5214, -3.38825  Q15.5107, -3.38741 15.5, -3.38657  Q15.4518, -3.38746 15.4162, -3.41547  Q15.3957, -3.43279 15.3877, -3.4478 " /><path d="M16.1123, 3.44781 Q16.1048, 3.43375 16.0859, 3.41716  Q16.0499, 3.38759 16, 3.38657 " /><path d="M15, 3.38658 Q14.9518, 3.38746 14.9162, 3.41547  Q14.8957, 3.43279 14.8877, 3.44781 " /><path id= "131" d=" M 18.0625 -4 L 17.9375 -4 " />
<path d="M16.9265, -3.99053 L16.6123, -3.4478 " /><path d="M17.4265, 3.99053 L17.1123, 3.44781 " /><path d="M16.8877, 3.44781 L16.5735, 3.99053 " /><path d="M17.3877, -3.4478 L17.0734, -3.99053 " /><path d="M16.6123, -3.4478 Q16.6048, -3.43374 16.5859, -3.41715  Q16.5587, -3.39465 16.5214, -3.38825  Q16.5107, -3.38741 16.5, -3.38657  Q16.4518, -3.38746 16.4162, -3.41547  Q16.3957, -3.43279 16.3877, -3.4478 " /><path d="M17.1123, 3.44781 Q17.1048, 3.43374 17.0859, 3.41716  Q17.0499, 3.38759 17, 3.38657 " /><path d="M16, 3.38657 Q15.9518, 3.38746 15.9162, 3.41547  Q15.8957, 3.43279 15.8877, 3.44781 " /><path id= "139" d=" M 19.0625 -4 L 18.9375 -4 " />
<path d="M17.9265, -3.99053 L17.6123, -3.4478 " /><path d="M18.4265, 3.99053 L18.1123, 3.44781 " /><path d="M17.8877, 3.44781 L17.5735, 3.99053 " /><path d="M18.3877, -3.4478 L18.0734, -3.99053 " /><path d="M17.6123, -3.4478 Q17.6048, -3.43374 17.5859, -3.41715  Q17.5587, -3.39465 17.5214, -3.38825  Q17.5107, -3.38741 17.5, -3.38657  Q17.4518, -3.38745 17.4162, -3.41547  Q17.3957, -3.43279 17.3877, -3.4478 " /><path d="M18.1123, 3.44781 Q18.1048, 3.43374 18.0859, 3.41716  Q18.0499, 3.38758 18, 3.38657 " /><path d="M17, 3.38657 Q16.9518, 3.38746 16.9162, 3.41547  Q16.8957, 3.43279 16.8877, 3.44781 " /><path d="M18.9265, -3.99053 L18.6123, -3.4478 " /><path d="M19.1123, 3.4478 L19.3434, 3.84682 " /><path d="M18.8877, 3.4478 L18.5735, 3.99053 " /><path d="M19.3877, -3.4478 L19.0734, -3.99053 " /><path id= "151" d=" M 20 -3.2 L 19.6676 -3.53244 " />
<path d="M18.6123, -3.4478 Q18.6048, -3.43374 18.5859, -3.41715  Q18.5587, -3.39465 18.5214, -3.38825  Q18.5107, -3.3874 18.5, -3.38656  Q18.4518, -3.38745 18.4162, -3.41546  Q18.3957, -3.43279 18.3877, -3.4478 " /><path d="M19.1123, 3.4478 Q19.1048, 3.43374 19.0859, 3.41716  Q19.0499, 3.38758 19, 3.38657 " /><path d="M18, 3.38657 Q17.9518, 3.38746 17.9162, 3.41547  Q17.8957, 3.43279 17.8877, 3.44781 " /><path d="M19.6597, -3.5296 L19.6123, -3.4478 " /><path d="M19.6123, -3.4478 Q19.6048, -3.43373 19.5859, -3.41715  Q19.5587, -3.39465 19.5214, -3.38824  Q19.5107, -3.3874 19.5, -3.38656  Q19.4518, -3.38745 19.4162, -3.41546  Q19.3957, -3.43278 19.3877, -3.4478 " /><path d="M19, 3.38657 Q18.9518, 3.38746 18.9162, 3.41547  Q18.8957, 3.43279 18.8877, 3.4478 " /></g>
<g   fill="none"
   stroke="rgb(0, 0, 0)"
   stroke-linecap="butt"
   stroke-linejoin="miter"
   stroke-width="0.35"
   transform="scale(1, -1)"
  >
<path d="M-7.08742, -4.4 Q-7.08742, -4.39977 -7.08742, -4.33013 " /><path d="M-7.08742, -9.49688e-08 L-7.08742, 0.492644  L-7.08742, 0.979092  L-7.08742, 1.45323  L-7.08742, 1.90909  L-7.08742, 2.34094  L-7.08742, 2.74336  L-7.08742, 3.11127  L-7.08742, 3.44006  L-7.08742, 3.72559  L-7.08742, 3.96426  L-7.08742, 4.15309  L-7.08742, 4.28968  L-7.08742, 4.37233  L-7.08742, 4.4 " /><path d="M-7.08742, 4.33013 C-7.08742, 4.54755 -7.08742, 4.71582 -7.08742, 4.82963  C-7.08742, 4.94171 -7.08742, 4.9991 -7.08742, 5 " /><path d="M-7.08742, -4.58002e-08 Q-7.08742, 0.562675 -7.08742, 1.1126  Q-7.08742, 1.29319 -7.08742, 1.47378  Q-7.08742, 1.65024 -7.08742, 1.82671  Q-7.08742, 1.99806 -7.08742, 2.16942  Q-7.08742, 2.33471 -7.08742, 2.5  Q-7.08742, 2.6583 -7.08742, 2.8166  Q-7.08742, 2.96702 -7.08742, 3.11745  Q-7.08742, 3.25916 -7.08742, 3.40086  Q-7.08742, 3.53306 -7.08742, 3.66526  Q-7.08742, 3.78721 -7.08742, 3.90916  Q-7.08742, 4.02018 -7.08742, 4.13119  Q-7.08742, 4.23066 -7.08742, 4.33013 " /><path d="M-7.08742, -4.33013 Q-7.08742, -4.23066 -7.08742, -4.13119  Q-7.08742, -4.02018 -7.08742, -3.90916  Q-7.08742, -3.78721 -7.08742, -3.66526  Q-7.08742, -3.53306 -7.08742, -3.40086  Q-7.08742, -3.25916 -7.08742, -3.11745  Q-7.08742, -2.96702 -7.08742, -2.8166  Q-7.08742, -2.6583 -7.08742, -2.5  Q-7.08742, -2.33471 -7.08742, -2.16942  Q-7.08742, -1.99806 -7.08742, -1.82671  Q-7.08742, -1.65024 -7.08742, -1.47378  Q-7.08742, -1.29319 -7.08742, -1.1126  Q-7.08742, -0.562676 -7.08742, -4.58002e-08 " /><path d="M-7.08742, -5 C-7.08742, -4.9991 -7.08742, -4.94171 -7.08742, -4.82963  C-7.08742, -4.71582 -7.08742, -4.54755 -7.08742, -4.33013 " /><path id= "7" d=" M -7.08742 5 L -6.69836 5.7735 " />
<path d="M-7.08742, -4.33013 C-7.0862, -4.78797 -6.96286, -5.24553 -6.69836, -5.7735 " /><path d="M-6.69836, -2.88675 C-6.96286, -3.41472 -7.0862, -3.87228 -7.08742, -4.33013 " /><path d="M-7.08742, -4.58002e-08 C-7.0862, -0.915684 -6.96286, -1.83081 -6.69836, -2.88675 " /><path d="M-6.69836, 2.88675 C-6.96286, 1.83081 -7.0862, 0.915684 -7.08742, -4.58002e-08 " /><path d="M-7.08742, 4.33013 C-7.0862, 3.87228 -6.96286, 3.41472 -6.69836, 2.88675 " /><path d="M-6.69836, 5.7735 C-6.96286, 5.24553 -7.0862, 4.78797 -7.08742, 4.33013 " /><path id= "14" d=" M -2.25363 5.7735 L -6.69836 5.7735 " />
<path id= "15" d=" M -2.25363 -5.7735 L -6.69836 -5.7735 " />
<path d="M-2.25363, -2.88675 L-2.35108, -3.10907  L-2.43254, -3.32386  L-2.49851, -3.53245  L-2.54941, -3.73613  L-2.58555, -3.93615  L-2.60714, -4.13374  L-2.61432, -4.33013  L-2.60714, -4.52651  L-2.58555, -4.7241  L-2.54941, -4.92412  L-2.49851, -5.1278  L-2.43254, -5.33639  L-2.35108, -5.55119  L-2.25363, -5.7735 " /><path id= "17" d=" M -2.25363 -2.88675 L -6.69836 -2.88675 " />
<path d="M-2.25363, 2.88675 L-2.35108, 2.44212  L-2.43254, 2.01253  L-2.49851, 1.59535  L-2.54941, 1.18799  L-2.58555, 0.787949  L-2.60714, 0.392764  L-2.61432, -7.77156e-16  L-2.60714, -0.392764  L-2.58555, -0.787949  L-2.54941, -1.18799  L-2.49851, -1.59535  L-2.43254, -2.01253  L-2.35108, -2.44212  L-2.25363, -2.88675 " /><path id= "19" d=" M -2.25363 2.88675 L -6.69836 2.88675 " />
<path d="M-2.25363, 5.7735 L-2.35108, 5.55119  L-2.43254, 5.33639  L-2.49851, 5.1278  L-2.54941, 4.92412  L-2.58555, 4.7241  L-2.60714, 4.52651  L-2.61432, 4.33013  L-2.60714, 4.13374  L-2.58555, 3.93615  L-2.54941, 3.73613  L-2.49851, 3.53245  L-2.43254, 3.32386  L-2.35108, 3.10907  L-2.25363, 2.88675 " /><path id= "21" d=" M -1.14378 8.15357 L -2.25363 5.7735 " />
<path d="M-1.11022e-16, -7.9 L-1.11022e-16, -7.70193  L-1.11022e-16, -7.11765  L-1.11022e-16, -6.17647  L-1.11022e-16, -4.92557  L-1.11022e-16, -3.42768  L-1.11022e-16, -1.75792  L-1.11022e-16, -1.55431e-15  L-1.11022e-16, 1.75792  L-1.11022e-16, 3.42768  L-1.11022e-16, 4.92557  L-1.11022e-16, 6.17647  L-1.11022e-16, 7.11765  L-1.11022e-16, 7.70193  L-1.11022e-16, 7.9 " /><path d="M0 7.9 A0.6 0.6 0 0 1 -1.14378 8.15357" /><path d="M0.4 4 A0.4 0.4 0 0 0 0 4.4" /><path id= "25" d=" M 1.56251 4 L 1.43747 4 " />
<path d="M0.562505, 4 Q0.567981, 4 0.573457, 3.99054 " /><path d="M0.573457, 3.99054 C0.613942, 3.9243 0.654412, 3.4496 0.694893, 2.6941  C0.740284, 1.85321 0.785677, 0.669136 0.831063, -0.465363  C0.869622, -1.42924 0.908184, -2.34503 0.946743, -2.98771  C0.985331, -3.63557 1.02391, -4.00315 1.0625, -4 " /><path d="M1.0625, -4 Q1.06798, -4 1.07345, -3.99054 " /><path id= "29" d=" M 0.562505 4 L 0.4 4 " />
<path d="M1.42694, 3.99053 Q1.43241, 4 1.43747, 4 " /><path id= "31" d=" M 2.5625 4 L 2.43747 4 " />
<path d="M1.56251, 4 Q1.56798, 4 1.57346, 3.99053 " /><path d="M1.57346, 3.99053 C1.61394, 3.9243 1.65441, 3.4496 1.69489, 2.6941  C1.74028, 1.85321 1.78568, 0.669136 1.83106, -0.465364  C1.86962, -1.42924 1.90818, -2.34504 1.94674, -2.98771  C1.98533, -3.63557 2.02391, -4.00315 2.0625, -4 " /><path d="M2.0625, -4 Q2.06798, -4 2.07345, -3.99054 " /><path d="M1.43747, 4 C1.47927, 4.00431 1.52109, 3.56983 1.56291, 2.82058  C1.60975, 1.98862 1.6566, 0.772514 1.70344, -0.400776  C1.73862, -1.2813 1.77379, -2.12801 1.80897, -2.76568  C1.84815, -3.48018 1.88734, -3.9261 1.92652, -3.99053 " /><path d="M1.92652, -3.99053 Q1.93199, -4 1.93747, -4 " /><path d="M2.42651, 3.99053 Q2.43199, 4 2.43747, 4 " /><path id= "38" d=" M 3.5625 4 L 3.43747 4 " />
<path d="M2.5625, 4 Q2.56798, 4 2.57346, 3.99053 " /><path d="M2.57346, 3.99053 C2.61394, 3.9243 2.65441, 3.4496 2.69489, 2.6941  C2.74028, 1.85321 2.78568, 0.669134 2.83106, -0.465367  C2.86962, -1.42924 2.90818, -2.34504 2.94674, -2.98772  C2.98533, -3.63557 3.02391, -4.00315 3.0625, -4 " /><path d="M3.0625, -4 Q3.06798, -4 3.07345, -3.99054 " /><path d="M2.43747, 4 C2.47927, 4.00431 2.5211, 3.56983 2.56291, 2.82057  C2.60975, 1.98869 2.65659, 0.772743 2.70343, -0.400442  C2.73859, -1.28064 2.77376, -2.12709 2.80892, -2.76473  C2.84812, -3.47978 2.88732, -3.92607 2.92652, -3.99053 " /><path d="M2.92652, -3.99053 Q2.93199, -4 2.93747, -4 " /><path d="M3.42651, 3.99053 Q3.43199, 4 3.43747, 4 " /><path id= "45" d=" M 4.5625 4 L 4.43747 4 " />
<path d="M3.5625, 4 Q3.56798, 4 3.57346, 3.99053 " /><path d="M3.57346, 3.99053 C3.61394, 3.9243 3.65441, 3.4496 3.69489, 2.6941  C3.74028, 1.8532 3.78568, 0.669132 3.83106, -0.46537  C3.86962, -1.42925 3.90818, -2.34505 3.94674, -2.98772  C3.98533, -3.63557 4.02391, -4.00315 4.0625, -4 " /><path d="M4.0625, -4 Q4.06798, -4 4.07345, -3.99054 " /><path d="M3.43747, 4 C3.47928, 4.00431 3.5211, 3.56982 3.56291, 2.82056  C3.60975, 1.98875 3.65658, 0.772931 3.70342, -0.400167  C3.73857, -1.2801 3.77372, -2.12631 3.80888, -2.76392  C3.84809, -3.47943 3.88731, -3.92605 3.92652, -3.99053 " /><path d="M3.92652, -3.99053 Q3.932, -4 3.93747, -4 " /><path d="M4.42652, 3.99053 Q4.43199, 4 4.43747, 4 " /><path id= "52" d=" M 5.5625 4 L 5.43747 4 " />
<path d="M4.5625, 4 Q4.56798, 4 4.57346, 3.99053 " /><path d="M4.57346, 3.99053 C4.61394, 3.9243 4.65441, 3.4496 4.69489, 2.6941  C4.74028, 1.8532 4.78568, 0.669128 4.83106, -0.465374  C4.86962, -1.42926 4.90818, -2.34506 4.94674, -2.98773  C4.98533, -3.63558 5.02391, -4.00315 5.0625, -4 " /><path d="M5.0625, -4 Q5.06798, -4 5.07345, -3.99054 " /><path d="M4.43747, 4 C4.47928, 4.00431 4.5211, 3.56982 4.56292, 2.82055  C4.60975, 1.98883 4.65658, 0.773181 4.70341, -0.3998  C4.73854, -1.27934 4.77368, -2.12524 4.80882, -2.76281  C4.84805, -3.47896 4.88729, -3.92602 4.92652, -3.99053 " /><path d="M4.92652, -3.99053 Q4.932, -4 4.93747, -4 " /><path d="M5.42652, 3.99053 Q5.432, 4 5.43747, 4 " /><path id= "59" d=" M 6.5625 4 L 6.43747 4 " />
<path d="M5.5625, 4 Q5.56798, 4 5.57346, 3.99053 " /><path d="M5.57346, 3.99053 C5.61394, 3.9243 5.65441, 3.4496 5.69489, 2.6941  C5.74028, 1.8532 5.78568, 0.669129 5.83106, -0.465373  C5.86962, -1.42925 5.90818, -2.34506 5.94674, -2.98773  C5.98533, -3.63558 6.02391, -4.00315 6.0625, -4 " /><path d="M6.0625, -4 Q6.06798, -4 6.07345, -3.99054 " /><path d="M5.43747, 4 C5.47928, 4.00431 5.5211, 3.56982 5.56292, 2.82054  C5.60974, 1.98894 5.65656, 0.773539 5.70339, -0.399278  C5.7385, -1.27824 5.77361, -2.12364 5.80873, -2.76113  C5.84799, -3.47824 5.88726, -3.92598 5.92652, -3.99053 " /><path d="M5.92652, -3.99053 Q5.932, -4 5.93748, -4 " /><path d="M6.42652, 3.99053 Q6.432, 4 6.43747, 4 " /><path id= "66" d=" M 7.5625 4 L 7.43748 4 " />
<path d="M6.5625, 4 Q6.56798, 4 6.57346, 3.99053 " /><path d="M6.57346, 3.99053 C6.61394, 3.9243 6.65441, 3.4496 6.69489, 2.6941  C6.74028, 1.8532 6.78568, 0.669127 6.83106, -0.465375  C6.86962, -1.42926 6.90818, -2.34506 6.94674, -2.98774  C6.98533, -3.63558 7.02391, -4.00315 7.0625, -4 " /><path d="M7.0625, -4 Q7.06798, -4 7.07345, -3.99054 " /><path d="M6.43747, 4 C6.47928, 4.00431 6.52111, 3.56981 6.56292, 2.82053  C6.60973, 1.98909 6.65655, 0.774011 6.70336, -0.398589  C6.73844, -1.27665 6.77352, -2.12129 6.80859, -2.75864  C6.8479, -3.47719 6.88722, -3.92592 6.92653, -3.99053 " /><path d="M6.92653, -3.99053 Q6.932, -4 6.93748, -4 " /><path d="M7.42652, 3.99053 Q7.432, 4 7.43748, 4 " /><path id= "73" d=" M 8.5625 4 L 8.43748 4 " />
<path d="M7.5625, 4 Q7.56798, 4 7.57346, 3.99053 " /><path d="M7.57346, 3.99053 C7.61394, 3.9243 7.65441, 3.4496 7.69489, 2.6941  C7.74028, 1.8532 7.78568, 0.669126 7.83106, -0.465377  C7.86962, -1.42926 7.90818, -2.34507 7.94674, -2.98774  C7.98533, -3.63558 8.02391, -4.00315 8.0625, -4 " /><path d="M8.0625, -4 Q8.06798, -4 8.07345, -3.99054 " /><path d="M7.43748, 4 C7.47928, 4.00431 7.52111, 3.56981 7.56292, 2.82053  C7.60973, 1.9891 7.65655, 0.774045 7.70336, -0.39854  C7.73844, -1.2765 7.77351, -2.12105 7.80858, -2.75838  C7.84789, -3.47708 7.88722, -3.92591 7.92653, -3.99053 " /><path d="M7.92653, -3.99053 Q7.932, -4 7.93748, -4 " /><path d="M8.42652, 3.99053 Q8.432, 4 8.43748, 4 " /><path id= "80" d=" M 9.5625 4 L 9.43748 4 " />
<path d="M8.5625, 4 Q8.56798, 4 8.57346, 3.99053 " /><path d="M8.57346, 3.99053 C8.61394, 3.9243 8.65441, 3.4496 8.69489, 2.6941  C8.74028, 1.8532 8.78568, 0.66912 8.83106, -0.465385  C8.86962, -1.42928 8.90818, -2.34509 8.94674, -2.98776  C8.98533, -3.63559 9.02391, -4.00315 9.0625, -4 " /><path d="M9.0625, -4 Q9.06798, -4 9.07345, -3.99054 " /><path d="M8.43748, 4 C8.47929, 4.00431 8.52111, 3.56981 8.56292, 2.82052  C8.60973, 1.98919 8.65654, 0.77434 8.70335, -0.39811  C8.73838, -1.27512 8.77342, -2.11885 8.80845, -2.756  C8.84781, -3.47606 8.88717, -3.92585 8.92653, -3.99053 " /><path d="M8.92653, -3.99053 Q8.93201, -4 8.93748, -4 " /><path d="M9.42652, 3.99053 Q9.432, 4 9.43748, 4 " /><path id= "87" d=" M 10.5625 4 L 10.4375 4 " />
<path d="M9.5625, 4 Q9.56798, 4 9.57346, 3.99053 " /><path d="M9.57346, 3.99053 C9.61394, 3.9243 9.65441, 3.4496 9.69489, 2.6941  C9.74028, 1.8532 9.78568, 0.669114 9.83106, -0.465393  C9.86962, -1.42929 9.90818, -2.34511 9.94674, -2.98778  C9.98533, -3.6356 10.0239, -4.00315 10.0625, -4 " /><path d="M10.0625, -4 Q10.068, -4 10.0735, -3.99054 " /><path d="M9.43748, 4 C9.47929, 4.00431 9.52111, 3.56981 9.56293, 2.82052  C9.60973, 1.98923 9.65654, 0.774466 9.70334, -0.397926  C9.73836, -1.2745 9.77337, -2.11784 9.80839, -2.75491  C9.84777, -3.4756 9.88716, -3.92582 9.92653, -3.99053 " /><path d="M9.92653, -3.99053 Q9.93201, -4 9.93748, -4 " /><path d="M10.4265, 3.99053 Q10.432, 4 10.4375, 4 " /><path id= "94" d=" M 11.5625 4 L 11.4375 4 " />
<path d="M10.5625, 4 Q10.568, 4 10.5735, 3.99053 " /><path d="M10.5735, 3.99053 C10.6139, 3.9243 10.6544, 3.4496 10.6949, 2.6941  C10.7403, 1.8532 10.7857, 0.669119 10.8311, -0.465386  C10.8696, -1.42928 10.9082, -2.34509 10.9467, -2.98776  C10.9853, -3.63559 11.0239, -4.00315 11.0625, -4 " /><path d="M11.0625, -4 Q11.068, -4 11.0735, -3.99054 " /><path d="M10.4375, 4 C10.4793, 4.00431 10.5211, 3.56981 10.5629, 2.82052  C10.6097, 1.98924 10.6565, 0.774474 10.7033, -0.397915  C10.7384, -1.27447 10.7734, -2.11778 10.8084, -2.75484  C10.8478, -3.47557 10.8872, -3.92582 10.9265, -3.99053 " /><path d="M10.9265, -3.99053 Q10.932, -4 10.9375, -4 " /><path d="M11.4265, 3.99053 Q11.432, 4 11.4375, 4 " /><path id= "101" d=" M 12.5625 4 L 12.4375 4 " />
<path d="M11.5625, 4 Q11.568, 4 11.5735, 3.99053 " /><path d="M11.5735, 3.99053 C11.6139, 3.9243 11.6544, 3.4496 11.6949, 2.6941  C11.7403, 1.8532 11.7857, 0.669122 11.8311, -0.465382  C11.8696, -1.42927 11.9082, -2.34508 11.9467, -2.98775  C11.9853, -3.63559 12.0239, -4.00315 12.0625, -4 " /><path d="M12.0625, -4 Q12.068, -4 12.0735, -3.99054 " /><path d="M11.4375, 4 C11.4793, 4.00431 11.5211, 3.5698 11.5629, 2.8205  C11.6097, 1.98945 11.6565, 0.775164 11.7033, -0.396909  C11.7382, -1.27055 11.7731, -2.1113 11.808, -2.74773  C11.8475, -3.47254 11.887, -3.92564 11.9265, -3.99053 " /><path d="M11.9265, -3.99053 Q11.932, -4 11.9375, -4 " /><path d="M12.4265, 3.99053 Q12.432, 4 12.4375, 4 " /><path id= "108" d=" M 13.5625 4 L 13.4375 4 " />
<path d="M12.5625, 4 Q12.568, 4 12.5735, 3.99053 " /><path d="M12.5735, 3.99053 C12.6139, 3.92429 12.6544, 3.4496 12.6949, 2.6941  C12.7403, 1.8532 12.7857, 0.669121 12.8311, -0.465384  C12.8696, -1.42927 12.9082, -2.34508 12.9467, -2.98776  C12.9853, -3.63559 13.0239, -4.00315 13.0625, -4 " /><path d="M13.0625, -4 Q13.068, -4 13.0735, -3.99054 " /><path d="M12.4375, 4 C12.4793, 4.00431 12.5211, 3.56979 12.5629, 2.82048  C12.6097, 1.98969 12.6565, 0.775903 12.7033, -0.395831  C12.738, -1.26493 12.7727, -2.10161 12.8074, -2.73696  C12.8471, -3.46794 12.8868, -3.92537 12.9265, -3.99053 " /><path d="M12.9265, -3.99053 Q12.932, -4 12.9375, -4 " /><path d="M13.4265, 3.99053 Q13.432, 4 13.4375, 4 " /><path id= "115" d=" M 14.5625 4 L 14.4375 4 " />
<path d="M13.5625, 4 Q13.568, 4 13.5735, 3.99053 " /><path d="M13.5735, 3.99053 C13.6139, 3.92429 13.6544, 3.4496 13.6949, 2.6941  C13.7403, 1.85319 13.7857, 0.66911 13.8311, -0.465398  C13.8696, -1.4293 13.9082, -2.34512 13.9467, -2.98779  C13.9853, -3.6356 14.0239, -4.00315 14.0625, -4 " /><path d="M14.0625, -4 Q14.068, -4 14.0735, -3.99054 " /><path d="M13.4375, 4 C13.4793, 4.00431 13.5211, 3.56979 13.5629, 2.82047  C13.6097, 1.98979 13.6565, 0.776219 13.7032, -0.395369  C13.738, -1.26578 13.7728, -2.10368 13.8076, -2.73945  C13.8472, -3.469 13.8869, -3.92543 13.9265, -3.99053 " /><path d="M13.9265, -3.99053 Q13.932, -4 13.9375, -4 " /><path d="M14.4265, 3.99053 Q14.432, 4 14.4375, 4 " /><path id= "122" d=" M 15.5625 4 L 15.4375 4 " />
<path d="M14.5625, 4 Q14.568, 4 14.5735, 3.99053 " /><path d="M14.5735, 3.99053 C14.6139, 3.92429 14.6544, 3.4496 14.6949, 2.6941  C14.7403, 1.85319 14.7857, 0.669105 14.8311, -0.465405  C14.8696, -1.42931 14.9082, -2.34513 14.9467, -2.98781  C14.9853, -3.63561 15.0239, -4.00315 15.0625, -4 " /><path d="M15.0625, -4 Q15.068, -4 15.0734, -3.99054 " /><path d="M14.4375, 4 C14.4793, 4.00431 14.5211, 3.56979 14.5629, 2.82048  C14.6097, 1.98963 14.6565, 0.775731 14.7033, -0.396082  C14.738, -1.26624 14.7728, -2.10388 14.8076, -2.73948  C14.8472, -3.46902 14.8869, -3.92543 14.9265, -3.99053 " /><path d="M14.9265, -3.99053 Q14.932, -4 14.9375, -4 " /><path d="M15.4265, 3.99053 Q15.432, 4 15.4375, 4 " /><path id= "129" d=" M 16.5625 4 L 16.4375 4 " />
<path d="M15.5625, 4 Q15.568, 4 15.5735, 3.99053 " /><path d="M15.5735, 3.99053 C15.6139, 3.92429 15.6544, 3.4496 15.6949, 2.6941  C15.7403, 1.8532 15.7857, 0.669123 15.8311, -0.465381  C15.8696, -1.42927 15.9082, -2.34508 15.9467, -2.98775  C15.9853, -3.63559 16.0239, -4.00315 16.0625, -4 " /><path d="M16.0625, -4 Q16.068, -4 16.0734, -3.99054 " /><path d="M15.4375, 4 C15.4793, 4.00431 15.5211, 3.56979 15.5629, 2.82048  C15.6097, 1.98967 15.6565, 0.775848 15.7033, -0.395912  C15.738, -1.26514 15.7727, -2.10193 15.8074, -2.7373  C15.8471, -3.46808 15.8868, -3.92538 15.9265, -3.99053 " /><path d="M15.9265, -3.99053 Q15.932, -4 15.9375, -4 " /><path d="M16.4265, 3.99053 Q16.432, 4 16.4375, 4 " /><path id= "136" d=" M 17.5625 4 L 17.4375 4 " />
<path d="M16.5625, 4 Q16.568, 4 16.5735, 3.99053 " /><path d="M16.5735, 3.99053 C16.6139, 3.92429 16.6544, 3.44959 16.6949, 2.6941  C16.7403, 1.85319 16.7857, 0.669102 16.8311, -0.465409  C16.8696, -1.42932 16.9082, -2.34514 16.9467, -2.98782  C16.9853, -3.63561 17.0239, -4.00315 17.0625, -4 " /><path d="M17.0625, -4 Q17.068, -4 17.0734, -3.99053 " /><path d="M16.4375, 4 C16.4793, 4.00431 16.5211, 3.56977 16.5629, 2.82044  C16.6097, 1.99013 16.6564, 0.777306 16.7032, -0.393785  C16.7383, -1.27289 16.7734, -2.11885 16.8085, -2.75719  C16.8479, -3.47657 16.8872, -3.92589 16.9265, -3.99053 " /><path d="M16.9265, -3.99053 Q16.932, -4 16.9375, -4 " /><path d="M17.4265, 3.99053 Q17.432, 4 17.4375, 4 " /><path id= "143" d=" M 18.5625 4 L 18.4375 4 " />
<path d="M17.5625, 4 Q17.568, 4 17.5735, 3.99053 " /><path d="M17.5735, 3.99053 C17.6139, 3.92429 17.6544, 3.4496 17.6949, 2.6941  C17.7403, 1.8532 17.7857, 0.669117 17.8311, -0.465389  C17.8696, -1.42928 17.9082, -2.3451 17.9467, -2.98777  C17.9853, -3.63559 18.0239, -4.00315 18.0625, -4 " /><path d="M18.0625, -4 Q18.068, -4 18.0734, -3.99053 " /><path d="M17.4375, 4 C17.4793, 4.00431 17.5211, 3.56978 17.5629, 2.82046  C17.6097, 1.98985 17.6565, 0.776421 17.7032, -0.395076  C17.7381, -1.26768 17.773, -2.10761 17.8078, -2.74402  C17.8474, -3.47096 17.887, -3.92555 17.9265, -3.99053 " /><path d="M17.9265, -3.99053 Q17.932, -4 17.9375, -4 " /><path d="M18.4265, 3.99053 Q18.432, 4 18.4375, 4 " /><path d="M18.4375, 4 C18.4793, 4.00431 18.5211, 3.56977 18.5629, 2.82042  C18.6097, 1.99031 18.6564, 0.777887 18.7032, -0.392936  C18.7381, -1.26705 18.773, -2.10853 18.8079, -2.74566  C18.8474, -3.47166 18.887, -3.92559 18.9265, -3.99053 " /><path d="M18.9265, -3.99053 Q18.932, -4 18.9375, -4 " /><path d="M18.5625, 4 Q18.568, 4 18.5735, 3.99053 " /><path d="M18.5735, 3.99053 C18.6139, 3.92429 18.6544, 3.44959 18.6949, 2.6941  C18.7403, 1.85319 18.7857, 0.669096 18.8311, -0.465417  C18.8696, -1.42933 18.9082, -2.34516 18.9467, -2.98783  C18.9853, -3.63562 19.0239, -4.00315 19.0625, -4 " /><path d="M19.0625, -4 Q19.068, -4 19.0734, -3.99053 " /><path d="M19.3506, 3.84943 Q19.347, 3.85304 19.3434, 3.84682 " /><path id= "156" d=" M 20 3.2 L 19.3506 3.84943 " />
<path d="M20, -3.2 L20, -3.11977  L20, -2.8831  L20, -2.50186  L20, -1.99517  L20, -1.38843  L20, -0.712067  L20, -5.55112e-16  L20, 0.712067  L20, 1.38843  L20, 1.99517  L20, 2.50186  L20, 2.8831  L20, 3.11977  L20, 3.2 " /><path d="M19.3506, 3.84943 C19.3676, 3.83312 19.3848, 3.64701 19.4021, 3.31329  C19.4188, 2.99249 19.4355, 2.53507 19.4524, 1.99519  C19.4689, 1.46872 19.4855, 0.864799 19.5021, 0.254085  C19.5343, -0.926808 19.5668, -2.1154 19.5997, -2.81687  C19.6196, -3.24371 19.6396, -3.49606 19.6597, -3.5296 " /><path d="M19.6597, -3.5296 Q19.6636, -3.53636 19.6676, -3.53244 " /></g>

</svg>
