<svg xmlns="http://www.w3.org/2000/svg" viewBox="-6.915380000000001 -6.1418800000000005 16.55726 12.283760000000001">
<rect width="100%" height="100%" fill="white"/>
<g   fill="none"
   stroke="rgb(0, 0, 0)"
   stroke-linecap="butt"
   stroke-linejoin="miter"
   stroke-width="0.35"
   transform="scale(1, -1)"
  >
<path d="M8.5, 0 C8.50115, -1.29056 8.20197, -2.58105 7.63325, -3.73949  C7.06648, -4.89888 6.23016, -5.92623 5.20971, -6.71632  C4.29588, -7.42609 3.23475, -7.94589 2.11387, -8.23296  C0.993329, -8.52139 -0.186965, -8.57708 -1.32969, -8.39535  C-3.04425, -8.12777 -4.67181, -7.31411 -5.91532, -6.10413  C-7.16375, -4.89924 -8.02813, -3.29804 -8.34944, -1.59274  C-8.5924, -0.325254 -8.54033, 0.998436 -8.19875, 2.24292  C-7.85927, 3.48799 -7.23027, 4.65385 -6.37594, 5.62115  C-5.58197, 6.52304 -4.59331, 7.25323 -3.49788, 7.74694  C-2.40312, 8.24214 -1.20158, 8.50086 -2.00776e-13, 8.5  C1.60282, 8.5025 3.20256, 8.03773 4.55453, 7.17679  C5.75779, 6.41522 6.76406, 5.34349 7.44863, 4.09492  C8.13602, 2.84789 8.50172, 1.42402 8.5, 0 " /></g>
<g   fill="none"
   stroke="rgb(0, 0, 0)"
   stroke-linecap="butt"
   stroke-linejoin="miter"
   stroke-width="0.35"
   transform="scale(1, -1)"
  >
<circle cx ="0" cy ="0" r ="4" /><circle cx ="0" cy ="0" r ="4" /><path d="M5 0 A5 5 0 0 1 4.33013 2.5" /><path d="M4.33013 -2.5 A5 5 0 0 1 5 -1.22465e-15" /><path d="M-4.58002e-08 -5 A5 5 0 0 1 4.33013 -2.5" /><path d="M-4.33013 -2.5 A5 5 0 0 1 -4.58002e-08 -5" /><path d="M-4.33013 2.5 A5 5 0 0 1 -4.33013 -2.5" /><path d="M3.70531e-08 5 A5 5 0 0 1 -4.33013 2.5" /><path d="M4.33013 2.5 A5 5 0 0 1 3.70531e-08 5" /><path d="M4.33013, 2.5 C4.78797, 1.70699 5.24553, 0.914468 5.7735, 4.11859e-13 " /><path d="M3.70531e-08, 5 C0.915684, 5 1.83081, 5 2.88675, 5 " /><path d="M2.88675, 5 C3.41472, 4.08553 3.87228, 3.29301 4.33013, 2.5 " /><path d="M-4.33013, 2.5 C-3.87228, 3.29301 -3.41472, 4.08553 -2.88675, 5 " /><path d="M-2.88675, 5 C-1.83081, 5 -0.915684, 5 3.70531e-08, 5 " /><path d="M-4.33013, -2.5 C-4.78797, -1.70699 -5.24553, -0.914468 -5.7735, -4.09416e-13 " /><path d="M-5.7735, 4.13003e-13 C-5.24553, 0.914468 -4.78797, 1.70699 -4.33013, 2.5 " /><path d="M-2.88675, -5 C-3.41472, -4.08553 -3.87228, -3.29301 -4.33013, -2.5 " /><path d="M-4.58002e-08, -5 C-0.915684, -5 -1.83081, -5 -2.88675, -5 " /><path d="M2.88675, -5 C1.83081, -5 0.915684, -5 -4.58002e-08, -5 " /><path d="M4.33013, -2.5 C3.87228, -3.29301 3.41472, -4.08553 2.88675, -5 " /><path d="M5.7735, -4.12781e-13 C5.24553, -0.914468 4.78797, -1.70699 4.33013, -2.5 " /><path d="M-2.52495, 3.10236 L-2.52377, 3.10332 " /><path d="M4, 6.79041e-11 C4.00431, -1.05233 3.56983, -2.09722 2.82058, -2.83625  C2.34577, -3.30948 1.74979, -3.65972 1.10532, -3.84425  C0.617984, -3.98463 0.103803, -4.03093 -0.400776, -3.97987  C-1.2813, -3.89341 -2.12801, -3.50313 -2.76568, -2.88981  C-3.39699, -2.28849 -3.82114, -1.47501 -3.95273, -0.613141  C-4.1079, 0.36481 -3.88034, 1.39694 -3.32805, 2.21903 " /><path d="M-3.26278, 2.31393 L-3.23343, 2.35477 " /><path d="M-3.20035, 2.39953 L-3.18326, 2.42216 " /><path d="M-3.18189, 2.42395 L-3.17429, 2.4339 " /><path d="M-3.17306, 2.4355 L-3.17306, 2.43551 " /><path d="M-3.14754, 2.4684 L-3.1267, 2.49474 " /><path d="M-3.12537, 2.49641 L-3.1141, 2.51046 " /><path d="M-2.68072, 2.96879 Q-2.43758, 3.18828 -2.16203, 3.36536 " /><path d="M-1.41108, 3.74284 Q-1.21719, 3.81593 -1.01678, 3.86861 " /><path d="M-0.297583, 3.98892 Q0.0251435, 4.01295 0.347543, 3.98487 " /><path d="M0.347555, 3.98487 L0.351659, 3.98451 " /><path d="M0.952021, 3.88506 C1.68374, 3.70695 2.36189, 3.31632 2.88307, 2.77271 " /><path d="M3.15448, 2.45953 Q3.40732, 2.13505 3.58904, 1.766 " /><path d="M3.82637, 1.16571 L3.82638, 1.1657 " /><path d="M3.96251, 0.546358 L3.9789, 0.410321 " /><path d="M4, -0.00016 Q3.99999, -0.132387 3.99126, -0.264325 " /><path d="M3.98581, -0.336687 Q3.97241, -0.495213 3.94648, -0.652174 " /><path d="M3.87936, -0.974983 L3.84787, -1.09266 " /><path d="M3.30173, -2.258 L3.23503, -2.35256 " /><path d="M2.8408, -2.816 L2.79717, -2.85935 " /><path d="M1.77043, -3.58686 L1.7465, -3.59858 " /><path d="M1.47318, -3.71884 L1.43015, -3.73559 " /><path d="M1.31797, -3.77663 L1.31335, -3.77824 " /><path d="M0.736429, -3.93162 L0.727719, -3.93325 " /><path d="M0.676474, -3.94238 L0.66774, -3.94387 " /><path d="M0.66037, -3.94511 L0.614781, -3.95247 " /><path d="M0.486671, -3.97028 L0.473455, -3.97188 " /><path d="M0.446979, -3.97495 Q0.322118, -3.98899 0.196622, -3.99516 " /><path d="M0.196594, -3.99517 L0.183315, -3.9958 " /><path d="M0.183296, -3.9958 L0.170006, -3.99639 " /><path d="M0.169997, -3.99639 L0.143393, -3.99743 " /><path d="M0.143383, -3.99743 L0.130088, -3.99788 " /><path d="M0.130069, -3.99788 L0.116782, -3.99829 " /><path d="M-0.134448, -3.99774 L-0.147733, -3.99727 " /><path d="M-0.147752, -3.99727 L-0.161045, -3.99676 " /><path d="M-0.161054, -3.99676 L-0.174355, -3.9962 " /><path d="M-0.179363, -3.99598 L-0.184252, -3.99575 " /><path d="M-0.184259, -3.99575 L-0.189145, -3.99553 " /><path d="M-0.189156, -3.99553 L-0.281425, -3.99009 " /><path d="M-0.281436, -3.99009 L-0.286315, -3.98974 " /><path d="M-0.286322, -3.98974 L-0.291204, -3.98939 " /><path d="M-0.29858, -3.98884 L-0.301021, -3.98866 " /><path d="M-0.301024, -3.98866 L-0.303461, -3.98847 " /><path d="M-0.349496, -3.9847 L-0.35193, -3.98449 " /><path d="M-0.351934, -3.98449 L-0.356809, -3.98405 " /><path d="M-0.365781, -3.98324 L-0.495681, -3.96917 " /><path d="M-0.495698, -3.96917 L-0.547276, -3.96238 " /><path d="M-0.547293, -3.96238 L-0.556069, -3.96116 " /><path d="M-0.556073, -3.96116 L-0.616321, -3.95223 " /><path d="M-0.616329, -3.95223 L-0.625083, -3.95086 " /><path d="M-0.625096, -3.95086 L-0.676427, -3.94239 " /><path d="M-0.676448, -3.94239 L-0.693908, -3.93935 " /><path d="M-0.693929, -3.93935 L-0.745105, -3.92999 " /><path d="M-0.745118, -3.92999 L-0.753822, -3.92833 " /><path d="M-0.813562, -3.91639 L-0.822236, -3.91458 " /><path d="M-0.822253, -3.91458 Q-1.02531, -3.87192 -1.22286, -3.80849 " /><path d="M-1.45953, -3.72422 L-1.4719, -3.71934 " /><path d="M-1.47192, -3.71934 L-1.48428, -3.71442 " /><path d="M-1.48429, -3.71442 L-1.50898, -3.70445 " /><path d="M-1.50899, -3.70445 L-1.5213, -3.69941 " /><path d="M-1.52132, -3.6994 L-1.53361, -3.69433 " /><path d="M-1.53363, -3.69432 Q-1.64969, -3.64614 -1.76249, -3.59077 " /><path d="M-1.76251, -3.59076 L-1.77444, -3.58488 " /><path d="M-1.77445, -3.58487 L-1.78637, -3.57895 " /><path d="M-1.78638, -3.57895 L-1.79828, -3.57298 " /><path d="M-1.80054, -3.57184 L-1.80272, -3.57074 " /><path d="M-1.80273, -3.57074 L-1.80491, -3.56964 " /><path d="M-1.80491, -3.56963 L-1.85256, -3.54514 " /><path d="M-3.99986, -0.0329208 C-4.00749, 0.737668 -3.78528, 1.50856 -3.36868, 2.15685 " /><path d="M-3.34368, 2.19541 L-3.32805, 2.21903 " /><path d="M-3.30216, 2.25738 L-3.30146, 2.2584 " /><path d="M-3.28783, 2.2782 L-3.28547, 2.28159 " /><path d="M-3.24182, 2.34321 L-3.24151, 2.34364 " /><path d="M-3.20343, 2.39542 L-3.19387, 2.40815 " /><path d="M-3.19369, 2.40839 L-3.15228, 2.46234 " /><path d="M-2.70969, 2.94238 Q-2.51066, 3.12564 -2.28879, 3.28046 " /><path d="M-1.40806, 3.74398 Q-1.27603, 3.79363 -1.14083, 3.83386 " /><path d="M2.2563, 3.30289 L2.28354, 3.28412 " /><path d="M2.65216, 2.99434 L2.68886, 2.96142 " /><path d="M3.20839, 2.38877 L3.2248, 2.36657 " /><path d="M3.50379, 1.92962 Q3.62438, 1.71063 3.71679, 1.47834 " /><path d="M3.82327, 1.17583 L3.82732, 1.16258 " /><path d="M3.96259, 0.545794 L3.96414, 0.53439 " /><path d="M4, 0.000662249 L4, 5.51306e-11 " /><path d="M4, 5.50302e-11 C4.00431, -1.05234 3.56982, -2.09723 2.82056, -2.83627  C2.34575, -3.30949 1.74977, -3.65973 1.1053, -3.84426  C0.618165, -3.98457 0.104209, -4.03089 -0.400167, -3.97993  C-1.2801, -3.89366 -2.12631, -3.504 -2.76392, -2.89149  C-3.3956, -2.29056 -3.82024, -1.47734 -3.95235, -0.615548  C-4.06219, 0.083543 -3.98116, 0.811738 -3.7202, 1.46973 " /><path d="M-3.46614, 1.99646 Q-3.40074, 2.11001 -3.32805, 2.21903 " /><path d="M-2.82663, 2.83023 L-2.79115, 2.86522 " /><path d="M-2.7911, 2.86527 L-2.75742, 2.8977 " /><path d="M-2.71698, 2.93564 L-2.70448, 2.94716 " /><path d="M-2.69365, 2.95707 L-2.69266, 2.95797 " /><path d="M-2.69256, 2.95806 Q-2.2958, 3.31876 -1.81839, 3.56279 " /><path d="M-1.36162, 3.76111 Q-1.23842, 3.80572 -1.11255, 3.84216 " /><path d="M-0.228473, 3.99347 Q-0.108819, 4.00031 0.0110294, 3.99998 " /><path d="M0.776681, 3.92387 L0.779561, 3.9233 " /><path d="M1.08208, 3.85086 Q1.34439, 3.77712 1.59429, 3.66855 " /><path d="M2.21383, 3.33151 Q2.62667, 3.05688 2.96032, 2.69007 " /><path d="M3.20839, 2.38877 L3.23853, 2.34775 " /><path d="M3.50379, 1.92963 Q3.62437, 1.71064 3.71678, 1.47835 " /><path d="M3.81917, 1.18909 L3.8253, 1.16922 " /><path d="M3.9439, 0.667574 Q3.9834, 0.434144 3.99511, 0.197684 " /><path d="M4, 0.000662252 L4, 4.89644e-11 " /><path d="M4, 4.90969e-11 C4.00431, -1.05234 3.56982, -2.09724 2.82055, -2.83628  C2.34574, -3.3095 1.74976, -3.65973 1.10529, -3.84426  C0.618274, -3.98454 0.104454, -4.03087 -0.3998, -3.97997  C-1.27934, -3.89382 -2.12524, -3.50455 -2.76281, -2.89256  C-3.39471, -2.29187 -3.81966, -1.47882 -3.95212, -0.617079  C-4.11783, 0.416743 -3.85338, 1.51073 -3.23343, 2.35477 " /><path d="M-3.21363, 2.38171 L-3.21067, 2.38571 " /><path d="M-3.20035, 2.39953 L-3.18326, 2.42216 " /><path d="M-3.14754, 2.4684 L-3.12759, 2.49363 " /><path d="M-3.12626, 2.4953 L-3.12465, 2.49731 " /><path d="M-2.69564, 2.95526 Q-2.4589, 3.17114 -2.19087, 3.34665 " /><path d="M-1.36878, 3.75852 Q-1.24115, 3.80499 -1.11066, 3.84271 " /><path d="M-0.360242, 3.98375 Q-0.137298, 4.0039 0.0865007, 3.99906 " /><path d="M0.974273, 3.87954 C1.69055, 3.70077 2.35431, 3.31826 2.86813, 2.78816 " /><path d="M3.22679, 2.36386 L3.23815, 2.34827 " /><path d="M3.49651, 1.94279 Q3.54008, 1.86437 3.5801, 1.78407 " /><path d="M3.82224, 1.1792 L3.83232, 1.14601 " /><path d="M3.95972, 0.566214 L3.97635, 0.434348 " /><path d="M4, 0.00254967 L4, 4.34408e-11 " /><path d="M4, -0.00016 Q3.99999, -0.13807 3.99049, -0.275652 " /><path d="M3.98456, -0.351104 Q3.97211, -0.492378 3.94969, -0.632417 " /><path d="M3.87117, -1.00698 L3.84971, -1.08616 " /><path d="M3.64851, -1.63963 L3.64641, -1.64429 " /><path d="M3.32225, -2.22771 Q3.26352, -2.31528 3.20026, -2.39965 " /><path d="M2.83904, -2.81777 L2.7873, -2.86896 " /><path d="M1.30122, -3.78243 L1.28809, -3.78693 " /><path d="M1.09709, -3.84661 L1.04482, -3.86113 " /><path d="M1.04481, -3.86114 L1.03588, -3.86354 " /><path d="M0.77945, -3.92332 L0.761315, -3.92688 " /><path d="M0.761293, -3.92689 L0.707963, -3.93685 " /><path d="M0.492127, -3.96961 L0.438243, -3.97592 " /><path d="M0.428901, -3.97694 L0.423826, -3.97748 " /><path d="M0.423822, -3.97748 L0.421288, -3.97775 " /><path d="M0.421282, -3.97775 L0.37336, -3.98254 " /><path d="M0.373354, -3.98254 L0.370817, -3.98277 " /><path d="M0.370813, -3.98278 L0.368272, -3.98301 " /><path d="M0.365679, -3.98325 L0.360592, -3.98371 " /><path d="M0.360588, -3.98371 L0.355504, -3.98417 " /><path d="M0.355496, -3.98417 L0.350415, -3.98462 " /><path d="M0.249172, -3.99223 L0.244077, -3.99255 " /><path d="M0.229613, -3.9934 L0.17543, -3.99615 " /><path d="M0.175417, -3.99615 L0.166185, -3.99655 " /><path d="M0.166176, -3.99655 L0.102697, -3.99868 " /><path d="M0.102692, -3.99868 L0.0934544, -3.99891 " /><path d="M0.0934367, -3.99891 L0.0391915, -3.99981 " /><path d="M0.0391738, -3.99981 L0.0299335, -3.99989 " /><path d="M0.0299291, -3.99989 L-0.0335861, -3.99986 " /><path d="M-0.033595, -3.99986 L-0.0428352, -3.99977 " /><path d="M-0.0971151, -3.99882 L-0.11559, -3.99833 " /><path d="M-0.169843, -3.99639 L-0.179075, -3.99599 " /><path d="M-0.179084, -3.99599 L-0.242511, -3.99264 " /><path d="M-0.242515, -3.99264 L-0.251738, -3.99207 " /><path d="M-0.251756, -3.99207 L-0.305877, -3.98829 " /><path d="M-0.305894, -3.98829 L-0.315107, -3.98757 " /><path d="M-0.378396, -3.98206 L-0.387594, -3.98118 " /><path d="M-0.387607, -3.98118 L-0.56173, -3.96036 " /><path d="M-0.561741, -3.96036 L-0.566792, -3.95964 " /><path d="M-0.566799, -3.95964 L-0.571852, -3.95891 " /><path d="M-0.571856, -3.95891 L-0.576912, -3.95818 " /><path d="M-0.57696, -3.95817 L-0.582012, -3.95743 " /><path d="M-0.582015, -3.95743 L-0.584537, -3.95706 " /><path d="M-0.584542, -3.95706 L-0.63215, -3.94973 " /><path d="M-0.632155, -3.94973 L-0.634672, -3.94933 " /><path d="M-0.637194, -3.94892 L-0.639715, -3.94851 " /><path d="M-0.639846, -3.94849 L-0.653549, -3.94625 " /><path d="M-0.653559, -3.94625 L-0.667244, -3.94396 " /><path d="M-0.667264, -3.94395 L-0.680931, -3.94162 " /><path d="M-0.937527, -3.88858 Q-1.10553, -3.84807 -1.2694, -3.79323 " /><path d="M-1.26943, -3.79322 L-1.28257, -3.7888 " /><path d="M-1.28259, -3.78879 L-1.29573, -3.78432 " /><path d="M-1.29574, -3.78432 L-1.30887, -3.7798 " /><path d="M-1.30896, -3.77976 L-1.31379, -3.77809 " /><path d="M-1.31379, -3.77809 L-1.31861, -3.77641 " /><path d="M-1.31862, -3.77641 L-1.32343, -3.77472 " /><path d="M-1.41404, -3.74172 L-1.41881, -3.73992 " /><path d="M-1.41882, -3.73991 L-1.42359, -3.7381 " /><path d="M-1.42359, -3.7381 L-1.42837, -3.73628 " /><path d="M-1.4332, -3.73443 L-1.43558, -3.73351 " /><path d="M-1.43558, -3.73351 L-1.48042, -3.71596 " /><path d="M-1.48043, -3.71596 L-1.4828, -3.71501 " /><path d="M-1.4828, -3.71501 L-1.48517, -3.71406 " /><path d="M-1.48768, -3.71306 L-1.50056, -3.70787 " /><path d="M-1.50057, -3.70787 L-1.51342, -3.70264 " /><path d="M-1.51344, -3.70264 L-1.52626, -3.69737 " /><path d="M-1.52629, -3.69736 Q-1.64743, -3.64735 -1.76504, -3.58952 " /><path d="M-1.76507, -3.5895 L-1.7775, -3.58336 " /><path d="M-1.77752, -3.58336 L-1.78994, -3.57717 " /><path d="M-1.78994, -3.57716 L-1.81474, -3.56465 " /><path d="M-1.81474, -3.56465 Q-1.99094, -3.47494 -2.15745, -3.3683 " /><path d="M-3.99945, -0.0663969 C-4.01378, 0.715241 -3.7914, 1.4991 -3.36874, 2.15676 " /><path d="M-3.18842, 2.41536 L-3.1701, 2.43935 " /><path d="M-3.99692, -0.157 C-4.01997, 0.419157 -3.91606, 1.00018 -3.69472, 1.53265 " /><path d="M-3.64098, 1.65628 Q-3.58393, 1.78168 -3.51839, 1.90287 " /><path d="M-3.48424, 1.96471 L-3.484, 1.96512 " /><path d="M-3.43435, 2.05067 Q-3.3481, 2.19511 -3.25003, 2.3318 " /><path d="M-2.69085, 2.95962 Q-2.45617, 3.17292 -2.19087, 3.34665 " /><path d="M-1.36878, 3.75852 Q-1.24115, 3.80499 -1.11066, 3.84271 " /><path d="M-0.360243, 3.98375 Q-0.00794454, 4.01554 0.344476, 3.98514 " /><path d="M0.974272, 3.87954 C1.69056, 3.70077 2.35433, 3.31825 2.86815, 2.78814 " /><path d="M3.22679, 2.36386 L3.23815, 2.34827 " /><path d="M3.49651, 1.94279 Q3.54008, 1.86437 3.5801, 1.78407 " /><path d="M3.82224, 1.1792 L3.83232, 1.14601 " /><path d="M3.95972, 0.566214 L3.97635, 0.434348 " /><path d="M4, 0.00254967 L4, 3.33862e-11 " /><path d="M-3.24537, -2.33829 C-3.72794, -1.67138 -3.99557, -0.852234 -3.99989, -0.0291477  C-4.00668, 0.732961 -3.78881, 1.4952 -3.3803, 2.13859 " /><path d="M-3.35774, 2.17385 L-3.32805, 2.21903 " /><path d="M-3.30216, 2.25738 L-3.30146, 2.2584 " /><path d="M-3.28783, 2.2782 L-3.28547, 2.28159 " /><path d="M-3.24182, 2.34321 L-3.24151, 2.34364 " /><path d="M-3.20343, 2.39542 L-3.19387, 2.40815 " /><path d="M-3.19367, 2.40841 L-3.1701, 2.43935 " /><path d="M-3.97735, -0.425028 C-4.07846, 0.496241 -3.8444, 1.44938 -3.32805, 2.21903 " /><path d="M-3.30241, 2.257 L-3.3017, 2.25805 " /><path d="M-3.28783, 2.2782 L-3.28772, 2.27835 " /><path d="M-3.26236, 2.31453 L-3.26235, 2.31454 " /><path d="M-3.24182, 2.34321 L-3.24151, 2.34364 " /><path d="M-3.19369, 2.40839 L-3.17018, 2.43925 " /><path d="M-3.15847, 2.4544 L-3.05136, 2.58635 " /><path d="M-3.87389, -0.996489 Q-4.01962, -0.42807 -3.99687, 0.158275 " /><path d="M-3.93445, -0.721183 C-4.12348, 0.288255 -3.90116, 1.36661 -3.32805, 2.21903 " /><path d="M-3.32295, 2.22666 L-3.31904, 2.23248 " /><path d="M-3.05242, 2.5851 L-3.05037, 2.58751 " /><path d="M-3.03326, 2.60755 L-2.91868, 2.7352 " /><path d="M-2.5669, 3.06774 L-2.56435, 3.06987 " /><path d="M-2.56082, 3.07282 L-2.55975, 3.07371 " /><path d="M-2.54367, 3.08703 L-2.54314, 3.08747 " /><path d="M-2.54213, 3.08829 L-2.54161, 3.08872 " /><path d="M-2.5413, 3.08898 L-2.5412, 3.08906 " /><path d="M-2.52377, 3.10332 L-2.43514, 3.17334 " /><path d="M-1.4164, 3.74083 Q-1.2618, 3.79936 -1.10289, 3.84495 " /><path d="M-0.224735, 3.99368 L-0.15176, 3.99712 " /><path d="M1.12769, 3.83775 Q1.35395, 3.77125 1.57082, 3.67866 " /><path d="M2.25631, 3.30288 Q2.48437, 3.14706 2.68887, 2.96142 " /><path d="M3.2084, 2.38876 L3.23854, 2.34774 " /><path d="M3.5038, 1.9296 Q3.62438, 1.71062 3.71679, 1.47833 " /><path d="M3.82328, 1.17582 L3.82934, 1.15593 " /><path d="M3.96259, 0.54579 L3.96726, 0.510733 " /><path d="M4, 0.000662244 L4, 1.73217e-11 " /><path d="M4, 1.72933e-11 C4.00431, -1.05237 3.5698, -2.09729 2.8205, -2.83633  C2.34568, -3.30955 1.74969, -3.65977 1.10521, -3.84428  C0.619152, -3.98428 0.106392, -4.03069 -0.396909, -3.98026  C-1.27055, -3.89528 -2.1113, -3.5114 -2.74773, -2.90689  C-2.96729, -2.69919 -3.16092, -2.46962 -3.32863, -2.21816 " /><path d="M-3.3369, -2.2057 C-3.78199, -1.53512 -4.0163, -0.727501 -3.99926, 0.0770937 " /><path d="M-2.82663, 2.83023 L-2.81923, 2.83759 " /><path d="M-3.26875, -2.30549 L-3.32575, -2.22248 " /><path d="M-3.33689, -2.20571 Q-3.45797, -2.02252 -3.55828, -1.8272 " /><path d="M-3.61273, -1.71702 C-3.88269, -1.15034 -4.01606, -0.519419 -3.99854, 0.107949 " /><path d="M-2.82663, 2.83023 L-2.79115, 2.86522 " /><path d="M-2.7911, 2.86527 L-2.79054, 2.86581 " /><path d="M4, 1.13292e-11 C4.00431, -1.05238 3.56979, -2.09732 2.82047, -2.83636  C2.34564, -3.30957 1.74965, -3.65979 1.10517, -3.84429  C0.619619, -3.98413 0.107424, -4.0306 -0.395369, -3.98041  C-1.24431, -3.898 -2.06258, -3.53391 -2.69215, -2.95844 " /><path d="M-3.03358, -2.60718 C-3.63812, -1.9078 -3.98611, -0.993105 -3.99941, -0.0688718  C-4.01624, 0.793748 -3.74297, 1.65849 -3.23343, 2.35477 " /><path d="M-3.21363, 2.38171 L-3.21067, 2.38571 " /><path d="M-3.20047, 2.39938 L-3.18326, 2.42216 " /><path d="M-3.14754, 2.4684 L-3.12759, 2.49363 " /><path d="M-3.12626, 2.4953 L-3.1142, 2.51033 " /><path d="M-2.68605, 2.96397 Q-2.45345, 3.17471 -2.19087, 3.34665 " /><path d="M-1.36878, 3.75851 Q-1.24116, 3.80499 -1.11067, 3.84271 " /><path d="M-0.360248, 3.98374 Q-0.137304, 4.0039 0.0864954, 3.99906 " /><path d="M0.974587, 3.87946 C1.69293, 3.70012 2.35842, 3.31584 2.87282, 2.78333 " /><path d="M3.22715, 2.36337 L3.23815, 2.34827 " /><path d="M3.49651, 1.94279 Q3.54008, 1.86437 3.5801, 1.78407 " /><path d="M3.81876, 1.19039 Q3.8577, 1.0655 3.88839, 0.93832 " /><path d="M3.95972, 0.566214 L3.97635, 0.434348 " /><path d="M4, 0.00254967 L4, 8.87113e-12 " /><path d="M-3.99241, 0.246309 C-3.956, 0.844107 -3.78273, 1.43297 -3.48957, 1.95522 " /><path d="M-3.48808, 1.95789 L-3.48798, 1.95805 " /><path d="M2.2563, 3.30289 L2.26966, 3.29373 " /><path d="M2.2781, 3.28789 L2.28354, 3.28412 " /><path d="M3.20839, 2.38877 L3.22444, 2.36706 " /><path d="M3.22448, 2.36701 L3.23853, 2.34775 " /><path d="M3.50379, 1.92962 Q3.61668, 1.72461 3.70492, 1.50785 " /><path d="M-3.99241, 0.246307 C-3.956, 0.844102 -3.78273, 1.43297 -3.48958, 1.95521 " /><path d="M-3.48808, 1.95789 L-3.48799, 1.95805 " /><path d="M-3.9916, 0.259135 L-3.98171, 0.382077 " /><path d="M-3.24537, -2.33828 Q-3.39702, -2.12778 -3.52023, -1.89948 " /><path d="M-3.56939, -1.8054 C-3.84178, -1.26795 -3.99004, -0.668182 -3.99946, -0.0658204  C-4.01318, 0.694518 -3.8033, 1.45706 -3.40241, 2.10324 " /><path d="M-2.82663, 2.83023 L-2.79115, 2.86522 " /><path d="M-2.7911, 2.86527 L-2.75742, 2.89769 " /><path d="M-2.69365, 2.95707 L-2.69266, 2.95797 " /><path d="M-2.69256, 2.95806 L-2.68622, 2.96382 " /><path d="M-2.68079, 2.96873 Q-2.28862, 3.32245 -1.81839, 3.56279 " /><path d="M-1.36162, 3.76111 Q-1.23979, 3.80522 -1.11534, 3.84135 " /><path d="M-0.228474, 3.99347 L-0.0626912, 3.99951 " /><path d="M1.50669, 3.70539 L1.59429, 3.66855 " /><path d="M2.21383, 3.33151 L2.27958, 3.28687 " /><path d="M2.62227, 3.02055 L2.6769, 2.97224 " /><path d="M3.20839, 2.38877 L3.23853, 2.34775 " /><path d="M3.50379, 1.92962 Q3.62438, 1.71064 3.71679, 1.47834 " /><path d="M3.82327, 1.17584 L3.82933, 1.15595 " /><path d="M3.96259, 0.545795 L3.96414, 0.534391 " /><path d="M4, 0.00066225 L4, 1.81721e-12 " /></g>

</svg>
