<svg xmlns="http://www.w3.org/2000/svg" viewBox="-8.893432 -8.464202 13.756354000000002 14.601384">
<rect width="100%" height="100%" fill="white"/>
<g   fill="none"
   stroke="rgb(0, 0, 0)"
   stroke-linecap="butt"
   stroke-linejoin="miter"
   stroke-width="0.35"
   transform="scale(1, -1)"
  >
<path d="M-1.8608, 3.48807 C-1.88122, 2.92973 -2.06444, 2.29262 -2.37089, 1.71488  C-2.65822, 1.16919 -3.05315, 0.680557 -3.47209, 0.352114  C-3.86895, 0.0386012 -4.28458, -0.128396 -4.63256, -0.11373  C-4.96561, -0.102115 -5.23455, 0.0753892 -5.38308, 0.384067 " /><g transform = "rotate(60, -4.03051, 2.32702)">
<ellipse cx ="-4.03051" cy ="2.32702" rx ="3.375"  ry ="1.94856"/>
</g>
<path d="M-1.8608, 3.48807 Q-1.84946, 3.78314 -1.89527, 4.04243 " /><path d="M-2.84564, 5.01375 C-2.82392, 5.0169 -2.79654, 5.01726 -2.7635, 5.01483  C-2.63877, 5.00567 -2.48459, 4.95295 -2.35641, 4.85911 " /><path d="M-2.35641, 4.85911 C-2.19801, 4.74589 -2.06786, 4.57093 -1.98454, 4.36035  C-1.94409, 4.25769 -1.91433, 4.15172 -1.89527, 4.04243 " /><path d="M-4.6897, 3.50822 C-4.46544, 3.89631 -4.17845, 4.24247 -3.87272, 4.50045  C-3.53336, 4.78803 -3.17232, 4.96627 -2.84564, 5.01375 " /><path d="M-4.6897 3.50822 A2.45873 1.41955 60 0 1 -5.38308 0.384067" />
<path d="M-2.39721, 4.21697 C-2.83988, 4.41987 -3.45846, 4.27581 -4.02488, 3.84906  C-4.4012, 3.5693 -4.75123, 3.1733 -5.01485, 2.73643  C-5.32916, 2.21921 -5.51787, 1.64856 -5.54023, 1.17295  C-5.55633, 0.856656 -5.5011, 0.582664 -5.38308, 0.384067 " /><path d="M-1.88989, 3.16276 C-1.93074, 3.67602 -2.14466, 4.07988 -2.48293, 4.27262 " /><path d="M-2.48293, 4.27262 C-2.77759, 4.44428 -3.16429, 4.45432 -3.5688, 4.30362  C-3.95177, 4.16288 -4.34844, 3.87942 -4.6897, 3.50822 " /><path d="M-0.494975 4.36826 A5 2.88675 60 0 1 -0.968646 6.13602" />
<path d="M-0.968646 2.05354 A5 2.88675 60 0 1 -0.494975 4.36826" />
<path d="M-4.03051 -1.75547 A5 2.88675 60 0 1 -0.968646 2.05354" />
<path d="M-7.09237 -1.48199 A5 2.88675 60 0 1 -4.03051 -1.75547" />
<path d="M-7.09237 2.60049 A5 2.88675 60 0 1 -7.09237 -1.48199" />
<path d="M-4.03051 6.4095 A5 2.88675 60 0 1 -7.09237 2.60049" />
<path d="M-0.968646 6.13602 A5 2.88675 60 0 1 -4.03051 6.4095" />
<path d="M-2.10935, 3.89907 C-2.48312, 3.90817 -2.91442, 3.74279 -3.31787, 3.44074  C-3.69426, 3.16091 -4.04434, 2.76479 -4.30797, 2.32781  C-4.62294, 1.80941 -4.81168, 1.23737 -4.8333, 0.761165  C-4.85151, 0.395384 -4.77349, 0.0871239 -4.61452, -0.114267 " /><path d="M-2.17272, 3.99341 C-2.57421, 4.04225 -3.0572, 3.87367 -3.50512, 3.53495  C-3.89827, 3.24023 -4.26168, 2.8187 -4.52747, 2.35763  C-4.82642, 1.84288 -4.99985, 1.2831 -5.01173, 0.820242  C-5.02431, 0.409408 -4.9117, 0.0770883 -4.70072, -0.108782 " /><path d="M-0.968646, 6.13602 C-0.644191, 5.67504 -0.248823, 5.17328 0.278528, 4.55324 " /><path d="M-4.03051, 6.4095 C-3.38231, 6.78291 -2.66339, 7.11505 -1.76271, 7.45721 " /><path d="M-1.76271, 7.45721 C-1.5434, 7.01501 -1.29168, 6.59619 -0.968646, 6.13602 " /><path d="M-7.09237, 2.60049 C-6.76791, 3.43448 -6.37255, 4.22691 -5.8452, 5.10019 " /><path d="M-5.8452, 5.10019 C-5.25256, 5.62019 -4.67728, 6.03526 -4.03051, 6.4095 " /><path d="M-7.09237, -1.48199 C-7.4154, -1.02183 -7.66713, -0.603002 -7.88644, -0.160808 " /><path d="M-7.88644, -0.160808 C-7.66713, 0.890318 -7.4154, 1.76568 -7.09237, 2.60049 " /><path d="M-5.8452, -3.06478 C-6.37255, -2.44474 -6.76791, -1.94298 -7.09237, -1.48199 " /><path d="M-4.03051, -1.75547 C-4.67728, -2.12971 -5.25256, -2.54477 -5.8452, -3.06478 " /><path d="M-1.76271, -0.707757 C-2.6634, -1.04992 -3.38231, -1.38205 -4.03051, -1.75547 " /><path d="M-0.968646, 2.05354 C-1.29168, 1.21873 -1.5434, 0.343369 -1.76271, -0.707757 " /><path d="M0.278528, 4.55324 C-0.248823, 3.67996 -0.644191, 2.88753 -0.968646, 2.05354 " /><path d="M-1.92365, 3.40422 C-2.53312, 3.20419 -3.1809, 2.62143 -3.60109, 1.91919  C-4.00526, 1.25663 -4.19492, 0.509107 -4.10896, -0.0189145 " /><path d="M-1.95859, 3.54782 C-2.23367, 3.47979 -2.52284, 3.33404 -2.79845, 3.12638  C-3.19262, 2.83079 -3.55685, 2.40774 -3.82277, 1.94522  C-4.23617, 1.23584 -4.39829, 0.44663 -4.25441, -0.0662506 " /><path d="M3.85593, 2.48782 C3.63662, 2.93002 3.38489, 3.34885 3.06186, 3.80901 " /><path id= "35" d=" M 0.278528 4.55324 L 3.85593 2.48782 " />
<path id= "36" d=" M 1.81469 5.3918 L -1.76271 7.45721 " />
<path d="M3.06186, 3.80901 C2.73741, 4.26999 2.34204, 4.77175 1.81469, 5.3918 " /><path id= "38" d=" M -2.2678 -5.13019 L -5.8452 -3.06478 " />
<path d="M-2.2678, -5.13019 C-1.36711, -4.78803 -0.648199, -4.4559 -3.23856e-08, -4.08248 " /><path id= "40" d=" M 1.81469 -2.77317 L -1.76271 -0.707757 " />
<path d="M-3.23856e-08, -4.08248 C0.646774, -3.70824 1.22205, -3.29318 1.81469, -2.77317 " /><path d="M1.81469, -2.77317 C2.34204, -1.89989 2.73741, -1.10746 3.06186, -0.273475 " /><path d="M3.06186, -0.273475 C3.38489, 0.561337 3.63662, 1.4367 3.85593, 2.48782 " /><path d="M-2.03461, 2.52122 C-2.65291, 2.01502 -3.16085, 1.1982 -3.33963, 0.462169 " /><path d="M-1.9546, 2.81531 C-2.39481, 2.52216 -2.80953, 2.06397 -3.10511, 1.55517  C-3.35153, 1.13381 -3.5157, 0.680938 -3.57354, 0.275617 " /></g>

</svg>
