<svg xmlns="http://www.w3.org/2000/svg" viewBox="-6.62376 -6.69726 7.5475200000000005 13.39452">
<rect width="100%" height="100%" fill="white"/>
<g   fill="none"
   stroke="rgb(0, 0, 0)"
   stroke-linecap="butt"
   stroke-linejoin="miter"
   stroke-width="0.35"
   transform="scale(1, -1)"
  >
<path id= "1" d=" M -5.7 -5 L -5.3796 -5.7735 " />
<path id= "2" d=" M -3.61511e-13 -5 L -0.320395 -5.7735 " />
</g>
<g   fill="none"
   stroke="rgb(0, 0, 0)"
   stroke-linecap="butt"
   stroke-linejoin="miter"
   stroke-width="0.35"
   transform="scale(1, -1)"
  >
<path d="M-5.7, 4.33013 C-5.7, 4.54755 -5.7, 4.71582 -5.7, 4.82963  C-5.7, 4.94171 -5.7, 4.9991 -5.7, 5 " /><path d="M-5.7, -4.58002e-08 Q-5.7, 0.562675 -5.7, 1.1126  Q-5.7, 1.29319 -5.7, 1.47378  Q-5.7, 1.65024 -5.7, 1.82671  Q-5.7, 1.99806 -5.7, 2.16942  Q-5.7, 2.33471 -5.7, 2.5  Q-5.7, 2.6583 -5.7, 2.8166  Q-5.7, 2.96702 -5.7, 3.11745  Q-5.7, 3.25916 -5.7, 3.40086  Q-5.7, 3.53306 -5.7, 3.66526  Q-5.7, 3.78721 -5.7, 3.90916  Q-5.7, 4.02018 -5.7, 4.13119  Q-5.7, 4.23066 -5.7, 4.33013 " /><path d="M-5.7, -4.33013 Q-5.7, -4.23066 -5.7, -4.13119  Q-5.7, -4.02018 -5.7, -3.90916  Q-5.7, -3.78721 -5.7, -3.66526  Q-5.7, -3.53306 -5.7, -3.40086  Q-5.7, -3.25916 -5.7, -3.11745  Q-5.7, -2.96702 -5.7, -2.8166  Q-5.7, -2.6583 -5.7, -2.5  Q-5.7, -2.33471 -5.7, -2.16942  Q-5.7, -1.99806 -5.7, -1.82671  Q-5.7, -1.65024 -5.7, -1.47378  Q-5.7, -1.29319 -5.7, -1.1126  Q-5.7, -0.562676 -5.7, -4.58002e-08 " /><path d="M-5.7, -5 C-5.7, -4.9991 -5.7, -4.94171 -5.7, -4.82963  C-5.7, -4.71582 -5.7, -4.54755 -5.7, -4.33013 " /><path id= "5" d=" M -5.7 5 L -5.3796 5.7735 " />
<path d="M-5.7, -4.33013 C-5.69899, -4.78797 -5.59742, -5.24553 -5.3796, -5.7735 " /><path d="M-5.3796, -2.88675 C-5.59742, -3.41472 -5.69899, -3.87228 -5.7, -4.33013 " /><path d="M-5.7, -4.58002e-08 C-5.69899, -0.915684 -5.59742, -1.83081 -5.3796, -2.88675 " /><path d="M-5.3796, 2.88675 C-5.59742, 1.83081 -5.69899, 0.915684 -5.7, -4.58002e-08 " /><path d="M-5.7, 4.33013 C-5.69899, 3.87228 -5.59742, 3.41472 -5.3796, 2.88675 " /><path d="M-5.3796, 5.7735 C-5.59742, 5.24553 -5.69899, 4.78797 -5.7, 4.33013 " /><path id= "12" d=" M -5.3796 5.7735 L -0.320395 5.7735 " />
<path id= "13" d=" M -0.320395 -5.7735 L -5.3796 -5.7735 " />
<path d="M-0.320395, -5.7735 C-0.102576, -5.24553 -0.0010076, -4.78797 1.38778e-17, -4.33013 " /><path id= "15" d=" M -0.320395 -2.88675 L -5.3796 -2.88675 " />
<path d="M-1.38778e-17, -4.33013 C-0.00100761, -3.87228 -0.102576, -3.41472 -0.320395, -2.88675 " /><path d="M-0.320395, -2.88675 C-0.102576, -1.83081 -0.00100761, -0.915684 1.38778e-17, -4.58002e-08 " /><path id= "18" d=" M -0.320395 2.88675 L -5.3796 2.88675 " />
<path d="M0, -4.58002e-08 C-0.0010076, 0.915684 -0.102576, 1.83081 -0.320395, 2.88675 " /><path d="M-0.320395, 2.88675 C-0.102576, 3.41472 -0.00100761, 3.87228 0, 4.33013 " /><path d="M0, 4.33013 C-0.0010076, 4.78797 -0.102576, 5.24553 -0.320395, 5.7735 " /><path id= "22" d=" M -0.320395 5.7735 L -4.73791e-13 5 " />
<path d="M0, -5 C0, -4.9991 0, -4.94171 0, -4.82963  C0, -4.71582 0, -4.54755 0, -4.33013 " /><path d="M0, -4.33013 Q0, -4.23066 0, -4.13119  Q0, -4.02018 0, -3.90916  Q0, -3.78721 0, -3.66526  Q0, -3.53306 0, -3.40086  Q0, -3.25916 0, -3.11745  Q0, -2.96702 0, -2.8166  Q0, -2.6583 0, -2.5  Q0, -2.33471 0, -2.16942  Q0, -1.99806 0, -1.82671  Q0, -1.65024 0, -1.47378  Q0, -1.29319 0, -1.1126  Q0, -0.562676 0, -4.58002e-08 " /><path d="M0, -4.58002e-08 Q0, 0.562675 0, 1.1126  Q0, 1.29319 0, 1.47378  Q0, 1.65024 0, 1.82671  Q0, 1.99806 0, 2.16942  Q0, 2.33471 0, 2.5  Q0, 2.6583 0, 2.8166  Q0, 2.96702 0, 3.11745  Q0, 3.25916 0, 3.40086  Q0, 3.53306 0, 3.66526  Q0, 3.78721 0, 3.90916  Q0, 4.02018 0, 4.13119  Q0, 4.23066 0, 4.33013 " /><path d="M0, 4.33013 C0, 4.54755 0, 4.71582 0, 4.82963  C0, 4.94171 0, 4.9991 0, 5 " /></g>

</svg>
