<svg xmlns="http://www.w3.org/2000/svg" viewBox="-6.69726 -5.92376 13.39452 11.84752">
<rect width="100%" height="100%" fill="white"/>
<g   fill="none"
   stroke="rgb(0, 0, 0)"
   stroke-linecap="butt"
   stroke-linejoin="miter"
   stroke-width="0.35"
   transform="scale(1, -1)"
  >
<path d="M2.95621, -8.88178e-16 C2.91612, -0.658169 2.64558, -1.29749 2.20057, -1.77675  C1.78325, -2.23094 1.21358, -2.53897 0.609734, -2.63362  C0.0377102, -2.72619 -0.561051, -2.62586 -1.06435, -2.35066  C-1.54602, -2.09026 -1.93722, -1.67183 -2.15834, -1.17769 " /><circle cx ="0" cy ="0" r ="3.375" /><path d="M2.95621, -3.33067e-16 Q2.97815, 0.347461 2.91921, 0.691578 " /><path d="M1.57517, 2.55321 C1.6074, 2.54021 1.64741, 2.52 1.69521, 2.49259  C1.90097, 2.37484 2.15183, 2.16722 2.34917, 1.92335 " /><path d="M2.34917, 1.92335 C2.64574, 1.56661 2.85121, 1.10368 2.91921, 0.691578 " /><path d="M-1.17775, 2.1583 C-0.835946, 2.45038 -0.406349, 2.64769 0.048962, 2.72452  C0.554369, 2.81129 1.08947, 2.74978 1.57517, 2.55321 " /><path d="M-1.17775 2.1583 A2.45873 2.45873 0 0 1 -2.15834 -1.17769" /><path d="M2.45873, 6.57647e-07 C2.4618, 0.672482 2.17228, 1.33937 1.67886, 1.79633  C1.30453, 2.14766 0.817405, 2.37615 0.307933, 2.43938  C-0.2005, 2.50464 -0.728295, 2.40479 -1.17775, 2.1583 " /><path d="M5 0 A5 5 0 0 1 4.33013 2.5" /><path d="M4.33013 -2.5 A5 5 0 0 1 5 -1.22465e-15" /><path d="M-4.58002e-08 -5 A5 5 0 0 1 4.33013 -2.5" /><path d="M-4.33013 -2.5 A5 5 0 0 1 -4.58002e-08 -5" /><path d="M-4.33013 2.5 A5 5 0 0 1 -4.33013 -2.5" /><path d="M3.70531e-08 5 A5 5 0 0 1 -4.33013 2.5" /><path d="M4.33013 2.5 A5 5 0 0 1 3.70531e-08 5" /><path d="M2.45873, 5.48038e-07 Q2.45873, 0.0776586 2.45383, 0.155162 " /><path d="M2.40792, 0.497285 Q2.38074, 0.628879 2.33939, 0.756734 " /><path d="M2.29873, 0.872465 L2.28706, 0.902621 " /><path d="M2.2599, 0.968614 L2.23402, 1.02689 " /><path d="M2.20149, 1.0949 Q2.10963, 1.27954 1.98834, 1.44634 " /><path d="M1.92854, 1.52516 L1.90349, 1.55631 " /><path d="M1.86061, 1.60733 Q1.7993, 1.67829 1.73277, 1.74439 " /><path d="M1.28052, 2.09896 Q1.14954, 2.17886 1.00965, 2.24187 " /><path d="M0.845537, 2.30877 L0.762459, 2.33753 " /><path d="M0.319328, 2.43791 L0.28345, 2.44234 " /><path d="M0.151647, 2.45405 L0.13998, 2.45475 " /><path d="M-0.13203, 2.45519 Q-0.447361, 2.43806 -0.748243, 2.34212 " /><path d="M-1.17775, 2.1583 C-1.44854, 2.01071 -1.69106, 1.81149 -1.88845, 1.57453  C-2.27258, 1.11685 -2.47921, 0.515254 -2.45737, -0.081868  C-2.43954, -0.673439 -2.19794, -1.25456 -1.79112, -1.68441  C-1.4414, -2.05785 -0.972052, -2.31678 -0.469645, -2.41346  C-0.00923632, -2.50383 0.476702, -2.45805 0.912131, -2.28328  C1.35983, -2.10534 1.75227, -1.79197 2.02487, -1.39473  C2.3062, -0.987949 2.45967, -0.494579 2.45873, 0 " /><path d="M4.33013, 2.5 C4.78797, 1.70699 5.24553, 0.914468 5.7735, 2.50022e-13 " /><path d="M3.70531e-08, 5 C0.915684, 5 1.83081, 5 2.88675, 5 " /><path d="M2.88675, 5 C3.41472, 4.08553 3.87228, 3.29301 4.33013, 2.5 " /><path d="M-4.33013, 2.5 C-3.87228, 3.29301 -3.41472, 4.08553 -2.88675, 5 " /><path d="M-2.88675, 5 C-1.83081, 5 -0.915684, 5 3.70531e-08, 5 " /><path d="M-4.33013, -2.5 C-4.78797, -1.70699 -5.24553, -0.914468 -5.7735, -3.062e-13 " /><path d="M-5.7735, 1.93179e-13 C-5.24553, 0.914468 -4.78797, 1.70699 -4.33013, 2.5 " /><path d="M-2.88675, -5 C-3.41472, -4.08553 -3.87228, -3.29301 -4.33013, -2.5 " /><path d="M-4.58002e-08, -5 C-0.915684, -5 -1.83081, -5 -2.88675, -5 " /><path d="M2.88675, -5 C1.83081, -5 0.915684, -5 -4.58002e-08, -5 " /><path d="M4.33013, -2.5 C3.87228, -3.29301 3.41472, -4.08553 2.88675, -5 " /><path d="M5.7735, -2.49821e-13 C5.24553, -0.914468 4.78797, -1.70699 4.33013, -2.5 " /><path d="M2.45873, 4.38429e-07 L2.45532, 0.129497 " /><path d="M2.40121, 0.528758 L2.39273, 0.565868 " /><path d="M2.30105, 0.866338 L2.291, 0.892585 " /><path d="M2.25553, 0.978742 L2.23394, 1.02707 " /><path d="M2.20065, 1.0966 Q2.1252, 1.24797 2.02976, 1.38761 " /><path d="M1.95682, 1.4887 L1.95612, 1.48962 " /><path d="M1.90306, 1.55683 Q1.82146, 1.65657 1.72989, 1.74724 " /><path d="M1.28458, 2.09648 L1.21877, 2.13541 " /><path d="M1.10977, 2.19404 L0.996271, 2.24785 " /><path d="M0.79853, 2.32545 Q0.630587, 2.3831 0.456098, 2.41606 " /><path d="M0.309291, 2.4392 Q0.22279, 2.45017 0.13573, 2.45498 " /><path d="M-0.152015, 2.45403 Q-0.440705, 2.43603 -0.71741, 2.35174 " /><path d="M-1.17775, 2.1583 C-1.44995, 2.00994 -1.69359, 1.80941 -1.89153, 1.57083  C-2.22337, 1.17298 -2.4235, 0.66779 -2.45412, 0.150605 " /><path d="M-2.45281, -0.17052 C-2.41405, -0.753917 -2.15763, -1.31933 -1.74431, -1.73284 " /><path d="M-1.56458, -1.8967 Q-1.45943, -1.98343 -1.34534, -2.05802 " /><path d="M-1.06521, -2.21601 C-0.447249, -2.51676 0.297749, -2.53878 0.932391, -2.27509 " /><path d="M2.01609, -1.40739 C2.30294, -0.998173 2.45971, -0.499729 2.45873, 8.88178e-16 " /><path d="M1.77675, 1.69957 L1.77673, 1.69959 " /><path d="M1.43266, 1.99821 Q1.33365, 2.0692 1.22811, 2.13005 " /><path d="M1.22789, 2.13018 L1.22369, 2.13259 " /><path d="M1.22347, 2.13272 L1.21927, 2.13513 " /><path d="M1.21904, 2.13525 L1.21483, 2.13765 " /><path d="M0.850828, 2.30683 L0.79882, 2.32535 " /></g>

</svg>
