<svg xmlns="http://www.w3.org/2000/svg" viewBox="-2.032 -6.63575 29.464 13.2715">
<rect width="100%" height="100%" fill="white"/>
<g   fill="none"
   stroke="rgb(0, 0, 0)"
   stroke-linecap="butt"
   stroke-linejoin="miter"
   stroke-width="0.35"
   transform="scale(1, -1)"
  >
<path id= "1" d=" M 25.4 2.92474e-16 L 24.7738 -0.216268 " />
<path id= "2" d=" M 24.2249 -0.405825 L 22.6418 -0.952573 " />
<path d="M23.497, 0.882809 Q23.6826, 0.672424 23.884, 0.463715 " /><path d="M22.3572, -1.38019 Q22.5263, -1.15678 22.7027, -0.931529 " /><path d="M21.2267, 1.87204 Q21.4383, 1.55273 21.6583, 1.23079 " /><path d="M20.0997, -2.36185 Q20.2968, -2.02821 20.4991, -1.69259 " /><path id= "7" d=" M 22.0113 -1.17032 L 20.4724 -1.7018 " />
<path d="M23.9847, -0.0645435 Q24.0055, -0.0906212 24.0254, -0.126642 " /><path d="M21.8765, -0.905322 Q21.9719, -1.08539 22.0602, -1.27191 " /><path d="M21.0077, 1.84011 L20.8582, 1.56856 " /><path d="M19.1233, 2.3763 Q19.3456, 1.99962 19.5735, 1.62247 " /><path d="M18.1463, -2.37632 Q18.3454, -2.03928 18.5486, -1.7018 " /><path id= "13" d=" M 20.4724 -1.7018 L 20.4551 -1.7018 " />
<path id= "14" d=" M 19.5625 -1.7018 L 18.5012 -1.7018 " />
<path d="M19.5146, -1.6225 Q19.7424, -1.99965 19.9648, -2.37632 " /><path d="M18.9878, 2.3763 Q18.7888, 2.03927 18.5856, 1.7018 " /><path d="M17.1694, 2.3763 Q17.3918, 1.99962 17.6196, 1.62247 " /><path d="M16.1925, -2.37632 Q16.3915, -2.03928 16.5948, -1.7018 " /><path id= "19" d=" M 17.6087 -1.7018 L 16.5474 -1.7018 " />
<path d="M17.5607, -1.6225 Q17.7886, -1.99965 18.0109, -2.37632 " /><path d="M17.034, 2.37629 Q16.835, 2.03927 16.6317, 1.7018 " /><path d="M15.2156, 2.37629 Q15.4379, 1.99962 15.6658, 1.62247 " /><path d="M14.2387, -2.37632 Q14.4377, -2.03928 14.6409, -1.7018 " /><path id= "24" d=" M 15.6548 -1.7018 L 14.5936 -1.7018 " />
<path d="M15.6069, -1.6225 Q15.8348, -1.99965 16.0571, -2.37632 " /><path d="M15.0801, 2.37629 Q14.8811, 2.03927 14.6779, 1.7018 " /><path d="M13.2618, 2.37629 Q13.4841, 1.99962 13.712, 1.62248 " /><path d="M12.2848, -2.37632 L12.6154, -1.82093 " /><path id= "29" d=" M 13.701 -1.7018 L 13.3858 -1.7018 " />
<path d="M13.6531, -1.6225 Q13.8809, -1.99965 14.1032, -2.37631 " /><path d="M13.1263, 2.37629 L12.7804, 1.79541 " /><path d="M11.3079, 2.37629 L11.5846, 1.91092 " /><path d="M10.331, -2.37632 L10.4629, -2.1538 " /><path id= "34" d=" M 13.3858 -1.7018 L 12.5666 -1.82848 " />
<path id= "35" d=" M 11.8864 -1.93367 L 10.4212 -2.16024 " />
<path d="M11.8476, -1.86896 L12.1494, -2.37631 " /><path d="M11.1725, 2.37628 L10.992, 2.07198 " /><path d="M9.35409, 2.37629 L9.42661, 2.25381 " /><path id= "39" d=" M 10.0973 -2.21033 L 8.4582 -2.4638 " />
<path d="M10.0632, -2.15292 L10.1956, -2.37631 " /><path d="M9.21864, 2.37628 L9.20235, 2.34873 " /><path id= "42" d=" M 8.4582 -2.4638 L 3.37924 -2.4638 " />
<path d="M2.34608, -2.85008 C2.62909, -2.60253 3.00324, -2.46264 3.37924, -2.4638 " /><path id= "44" d=" M 2.34608 -2.85008 L 0.328718 -4.60375 " />
<path id= "45" d=" M 0.328718 -4.60375 L 0 -4.60375 " />
</g>
<g   fill="none"
   stroke="rgb(0, 0, 0)"
   stroke-linecap="butt"
   stroke-linejoin="miter"
   stroke-width="0.35"
   transform="scale(1, -1)"
  >
<path id= "1" d=" M 25.4 0 L 23.7979 0.553304 " />
<path d="M24.7738, -0.216268 C24.6906, -0.247863 24.6074, -0.24928 24.5241, -0.220517  C24.4393, -0.18738 24.3546, -0.121226 24.2701, -0.0220557  C24.1405, 0.124987 24.0117, 0.33288 23.884, 0.463715 " /><path d="M23.9847, -0.0645435 C23.7675, 0.207404 23.5537, 0.643487 23.3451, 0.709676 " /><path id= "4" d=" M 23.3451 0.709676 L 21.6033 1.31123 " />
<path d="M22.6418, -0.952573 C22.5642, -0.979248 22.4873, -0.932261 22.4113, -0.81161  C22.3065, -0.648701 22.2033, -0.348286 22.1017, -0.0143141  C21.9505, 0.484053 21.8028, 1.02543 21.6583, 1.23079 " /><path d="M24.5201, -0.469941 Q24.3965, -0.528299 24.2728, -0.444943  Q24.1491, -0.355405 24.0254, -0.126642 " /><path d="M24.0254, -0.126642 C23.8493, 0.188849 23.6731, 0.685456 23.497, 0.882809 " /><path d="M23.497, 0.882809 C23.374, 1.02446 23.251, 1.00455 23.128, 0.784668 " /><path d="M22.3572, -1.38019 Q22.3168, -1.43387 22.2763, -1.45187 " /><path d="M24.5201, -0.469941 L24.7738, -0.216268 " /><path d="M22.2763, -1.45187 Q22.1683, -1.50007 22.0602, -1.27191 " /><path d="M22.0602, -1.27191 C21.9908, -1.12637 21.9213, -0.895601 21.8519, -0.610934  C21.7824, -0.327053 21.713, 0.00968076 21.6435, 0.345459  C21.5046, 1.02021 21.3657, 1.66835 21.2267, 1.87204 " /><path d="M21.2267, 1.87204 Q21.1172, 2.0407 21.0077, 1.84011 " /><path d="M20.0997, -2.36185 Q20.0661, -2.41891 20.0325, -2.4338 " /><path d="M20.0325, -2.4338 L20.4551, -1.7018 " /><path d="M21.8765, -0.905322 C21.7139, -0.604413 21.5555, 0.0113682 21.4008, 0.548539  C21.3646, 0.674529 21.3286, 0.793068 21.2929, 0.904158  C21.1787, 1.25805 21.0667, 1.49897 20.9567, 1.53454 " /><path id= "17" d=" M 20.9567 1.53454 L 20.4724 1.7018 " />
<path d="M20.4724, -1.7018 L20.4724, -1.65913  L20.4724, -1.53327  L20.4724, -1.33052  L20.4724, -1.06105  L20.4724, -0.738383  L20.4724, -0.378686  L20.4724, -3.33067e-16  L20.4724, 0.378686  L20.4724, 0.738383  L20.4724, 1.06105  L20.4724, 1.33052  L20.4724, 1.53327  L20.4724, 1.65913  L20.4724, 1.7018 " /><path d="M20.0325, -2.4338 Q19.9986, -2.43371 19.9648, -2.37632 " /><path d="M19.9648, -2.37632 C19.8946, -2.25906 19.8245, -1.95296 19.7544, -1.52378  C19.6842, -1.09641 19.6141, -0.549309 19.544, -4.7601e-05  C19.4739, 0.549214 19.4038, 1.09633 19.3336, 1.52372  C19.2635, 1.95292 19.1934, 2.25903 19.1233, 2.3763 " /><path d="M19.1233, 2.3763 Q19.0555, 2.49122 18.9878, 2.3763 " /><path d="M18.1463, -2.37632 Q18.1125, -2.43371 18.0786, -2.4338 " /><path d="M20.4551, -1.7018 C20.4121, -1.70125 20.3691, -1.6531 20.326, -1.55734  C20.2451, -1.38019 20.1642, -1.0369 20.0833, -0.62374  C19.9843, -0.119265 19.8852, 0.480526 19.7862, 0.933097  C19.7153, 1.25839 19.6444, 1.50631 19.5735, 1.62247 " /><path d="M18.5012, -1.7018 L18.5012, -1.7018 " /><path id= "25" d=" M 20.4724 1.7018 L 19.5255 1.7018 " />
<path d="M19.5146, -1.6225 C19.4435, -1.5061 19.3724, -1.25728 19.3014, -0.930882  C19.2164, -0.542459 19.1316, -0.0465278 19.0467, 0.404985  C18.9805, 0.757138 18.9143, 1.07959 18.8481, 1.31021  C18.7764, 1.56183 18.7047, 1.70291 18.6329, 1.7018 " /><path id= "27" d=" M 18.6329 1.7018 L 17.5717 1.7018 " />
<path d="M18.5012, -1.7018 C18.4582, -1.70125 18.4152, -1.6531 18.3722, -1.55733  C18.2913, -1.38018 18.2104, -1.03687 18.1295, -0.623707  C18.0298, -0.115803 17.93, 0.48865 17.8303, 0.942302  C17.7601, 1.26312 17.6899, 1.50739 17.6196, 1.62247 " /><path d="M18.0786, -2.4338 Q18.0448, -2.43371 18.0109, -2.37632 " /><path d="M18.0109, -2.37632 C17.9408, -2.25906 17.8707, -1.95295 17.8005, -1.52377  C17.7304, -1.0964 17.6603, -0.549304 17.5902, -4.22355e-05  C17.5201, 0.549218 17.4499, 1.09634 17.3798, 1.52372  C17.3097, 1.95292 17.2395, 2.25903 17.1694, 2.3763 " /><path d="M17.1694, 2.3763 Q17.1017, 2.49121 17.034, 2.37629 " /><path d="M16.1925, -2.37632 Q16.1586, -2.43371 16.1248, -2.4338 " /><path d="M16.5474, -1.7018 L16.5474, -1.7018 " /><path d="M17.5607, -1.6225 C17.4897, -1.5061 17.4186, -1.2573 17.3475, -0.930913  C17.2626, -0.542292 17.1777, -0.0460442 17.0927, 0.405661  C17.0277, 0.751899 16.9626, 1.06945 16.8975, 1.29905  C16.8247, 1.55754 16.7519, 1.70297 16.6791, 1.7018 " /><path id= "35" d=" M 16.6791 1.7018 L 15.6179 1.7018 " />
<path d="M16.5474, -1.7018 C16.5044, -1.70125 16.4614, -1.65309 16.4184, -1.55733  C16.3374, -1.38017 16.2566, -1.03685 16.1756, -0.623675  C16.0759, -0.115694 15.9762, 0.488857 15.8764, 0.942525  C15.8062, 1.26324 15.736, 1.50742 15.6658, 1.62247 " /><path d="M16.1248, -2.4338 Q16.0909, -2.43371 16.0571, -2.37632 " /><path d="M16.0571, -2.37632 C15.987, -2.25906 15.9168, -1.95295 15.8467, -1.52377  C15.7766, -1.0964 15.7065, -0.549298 15.6363, -3.68699e-05  C15.5662, 0.549223 15.4961, 1.09634 15.426, 1.52372  C15.3558, 1.95292 15.2857, 2.25903 15.2156, 2.37629 " /><path d="M15.2156, 2.37629 Q15.1479, 2.49121 15.0801, 2.37629 " /><path d="M14.2387, -2.37632 Q14.2048, -2.43371 14.171, -2.43379 " /><path d="M14.5936, -1.7018 L14.5936, -1.7018 " /><path d="M15.6069, -1.6225 C15.5359, -1.5061 15.4648, -1.25731 15.3937, -0.930945  C15.3087, -0.542123 15.2238, -0.0455544 15.1388, 0.406345  C15.0724, 0.759217 15.0061, 1.08214 14.9398, 1.31265  C14.8683, 1.56276 14.7968, 1.70289 14.7253, 1.7018 " /><path id= "43" d=" M 14.7253 1.7018 L 13.664 1.7018 " />
<path d="M14.5936, -1.7018 C14.5506, -1.70125 14.5076, -1.65309 14.4645, -1.55733  C14.3836, -1.38016 14.3027, -1.03683 14.2218, -0.623642  C14.1221, -0.115596 14.0223, 0.489036 13.9226, 0.942716  C13.8524, 1.26334 13.7822, 1.50744 13.712, 1.62248 " /><path d="M14.171, -2.43379 Q14.1371, -2.4337 14.1032, -2.37631 " /><path d="M14.1032, -2.37631 C14.0331, -2.25905 13.963, -1.95294 13.8929, -1.52376  C13.8227, -1.09639 13.7526, -0.549292 13.6825, -3.15043e-05  C13.6124, 0.549228 13.5423, 1.09634 13.4721, 1.52373  C13.402, 1.95292 13.3319, 2.25903 13.2618, 2.37629 " /><path d="M13.2618, 2.37629 Q13.194, 2.49121 13.1263, 2.37629 " /><path d="M12.2848, -2.37632 Q12.251, -2.4337 12.2171, -2.43379 " /><path d="M12.5666, -1.82848 L12.5666, -1.82848 " /><path d="M13.6531, -1.6225 C13.564, -1.47756 13.4749, -1.12039 13.3858, -0.670423 " /><path d="M13.3858, -1.7018 Q13.3858, -1.69885 13.3858, -1.6959  Q13.3858, -1.68708 13.3858, -1.67825  Q13.3858, -1.66361 13.3858, -1.64897  Q13.3858, -1.62861 13.3858, -1.60825  Q13.3858, -1.58232 13.3858, -1.55639  Q13.3858, -1.52507 13.3858, -1.49375  Q13.3858, -1.45725 13.3858, -1.42075  Q13.3858, -1.37932 13.3858, -1.3379  Q13.3858, -1.29184 13.3858, -1.24578  Q13.3858, -1.14725 13.3858, -1.03634  Q13.3858, -0.922251 13.3858, -0.798209  Q13.3858, -0.734316 13.3858, -0.670423 " /><path d="M12.8218, 1.78902 C12.9103, 1.77901 12.9993, 1.48997 13.0891, 1.03614  C13.1873, 0.544194 13.2861, -0.130258 13.3858, -0.670423 " /><path d="M12.2171, -2.43379 Q12.1833, -2.4337 12.1494, -2.37631 " /><path d="M12.1494, -2.37631 C12.0793, -2.25905 12.0092, -1.95293 11.939, -1.52375  C11.8689, -1.09638 11.7988, -0.549286 11.7287, -2.61387e-05  C11.6586, 0.549233 11.5884, 1.09635 11.5183, 1.52373  C11.4482, 1.95292 11.378, 2.25903 11.3079, 2.37629 " /><path d="M11.3079, 2.37629 Q11.2402, 2.49121 11.1725, 2.37628 " /><path d="M10.331, -2.37632 Q10.2971, -2.4337 10.2633, -2.43379 " /><path d="M12.5666, -1.82848 C12.468, -1.84656 12.3699, -1.61916 12.2727, -1.22149  C12.1805, -0.848066 12.089, -0.329584 11.9981, 0.180353  C11.9125, 0.660815 11.8274, 1.12747 11.7428, 1.45897  C11.6898, 1.66999 11.6371, 1.82064 11.5846, 1.91092 " /><path d="M10.4212, -2.16024 L10.4212, -2.16024 " /><path id= "59" d=" M 12.8218 1.78902 L 11.5389 1.98741 " />
<path d="M11.8476, -1.86896 C11.7943, -1.78041 11.7411, -1.59017 11.6882, -1.32657  C11.6118, -0.947969 11.5359, -0.41634 11.4604, 0.113015  C11.3871, 0.627283 11.3141, 1.13236 11.2415, 1.49099  C11.17, 1.84723 11.0989, 2.05725 11.0281, 2.06639 " /><path id= "61" d=" M 11.0281 2.06639 L 9.38732 2.32012 " />
<path d="M10.4212, -2.16024 C10.3291, -2.17703 10.2375, -1.94316 10.1466, -1.52791  C10.0559, -1.11733 9.96585, -0.533084 9.8763, 0.056407  C9.78779, 0.639206 9.69985, 1.21906 9.61242, 1.63614  C9.55022, 1.9342 9.48828, 2.15032 9.42661, 2.25381 " /><path d="M10.2633, -2.43379 Q10.2294, -2.4337 10.1956, -2.37631 " /><path d="M10.1956, -2.37631 C10.1255, -2.25904 10.0553, -1.95293 9.9852, -1.52375  C9.91507, -1.09638 9.84496, -0.54928 9.77484, -2.07732e-05  C9.70472, 0.549238 9.63459, 1.09635 9.56446, 1.52373  C9.49433, 1.95292 9.42421, 2.25903 9.35409, 2.37629 " /><path d="M9.35409, 2.37629 Q9.28637, 2.49121 9.21864, 2.37628 " /><path d="M10.0632, -2.15292 C10.0098, -2.06355 9.95651, -1.85693 9.90346, -1.5641  C9.82769, -1.14785 9.75237, -0.555255 9.67745, 0.0428872  C9.60293, 0.637873 9.52878, 1.22995 9.45502, 1.65357  C9.38109, 2.08153 9.30756, 2.33478 9.2344, 2.34377 " /><path id= "67" d=" M 9.2344 2.34377 L 8.4582 2.4638 " />
<path d="M8.4582, -2.4638 L8.4582, -2.40203  L8.4582, -2.21981  L8.4582, -1.92628  L8.4582, -1.53615  L8.4582, -1.069  L8.4582, -0.548247  L8.4582, -4.44089e-16  L8.4582, 0.548247  L8.4582, 1.069  L8.4582, 1.53615  L8.4582, 1.92628  L8.4582, 2.21981  L8.4582, 2.40203  L8.4582, 2.4638 " /><path id= "69" d=" M 8.4582 2.4638 L 3.37924 2.4638 " />
<path d="M3.37924 2.4638 A1.5748 1.5748 0 0 0 2.34608 2.85008" /><path id= "71" d=" M 2.34608 2.85008 L 0.328718 4.60375 " />
<path d="M0.328718, -4.60375 L0.328718, -4.48832  L0.328718, -4.14784  L0.328718, -3.59936  L0.328718, -2.87039  L0.328718, -1.99749  L0.328718, -1.02443  L0.328718, -8.88178e-16  L0.328718, 1.02443  L0.328718, 1.99749  L0.328718, 2.87039  L0.328718, 3.59936  L0.328718, 4.14784  L0.328718, 4.48832  L0.328718, 4.60375 " /><path id= "73" d=" M 0.328718 4.60375 L 0 4.60375 " />
<path d="M0, -4.60375 L0, -4.48832  L0, -4.14784  L0, -3.59936  L0, -2.87039  L0, -1.99749  L0, -1.02443  L0, -8.88178e-16  L0, 1.02443  L0, 1.99749  L0, 2.87039  L0, 3.59936  L0, 4.14784  L0, 4.48832  L0, 4.60375 " /></g>

</svg>
