<svg xmlns="http://www.w3.org/2000/svg" viewBox="-5.34035 -5.34035 10.6807 10.6807">
<rect width="100%" height="100%" fill="white"/>
<g   fill="none"
   stroke="rgb(0, 0, 0)"
   stroke-linecap="butt"
   stroke-linejoin="miter"
   stroke-width="0.35"
   transform="scale(1, -1)"
  >
<circle cx ="0" cy ="0" r ="4.60375" /><path id= "2" d=" M 0.395 1.1766 L 1.4268 2.07062 " />
<path d="M1.4268 2.07062 A2.5146 2.5146 0 0 0 2.07062 1.4268" /><path id= "4" d=" M 2.07062 1.4268 L 1.1766 0.395 " />
<path id= "5" d=" M 1.1766 0.395 L 1.03356 -1.98579e-14 " />
<path id= "6" d=" M 1.03356 2.10161e-14 L 1.1766 -0.395 " />
<path id= "7" d=" M 1.1766 -0.395 L 2.07062 -1.4268 " />
<path d="M2.07062 -1.4268 A2.5146 2.5146 0 0 0 1.4268 -2.07062" /><path id= "9" d=" M 1.4268 -2.07062 L 0.395 -1.1766 " />
<path id= "10" d=" M 0.395 -1.1766 L -2.12118e-14 -1.03356 " />
<path id= "11" d=" M 1.96361e-14 -1.03356 L -0.395 -1.1766 " />
<path id= "12" d=" M -0.395 -1.1766 L -1.4268 -2.07062 " />
<path d="M-1.4268 -2.07062 A2.5146 2.5146 0 0 0 -2.07062 -1.4268" /><path id= "14" d=" M -2.07062 -1.4268 L -1.1766 -0.395 " />
<path id= "15" d=" M -1.1766 -0.395 L -1.03356 2.11204e-14 " />
<path id= "16" d=" M -1.03356 -1.97405e-14 L -1.1766 0.395 " />
<path id= "17" d=" M -1.1766 0.395 L -2.07062 1.4268 " />
<path d="M-2.07062 1.4268 A2.5146 2.5146 0 0 0 -1.4268 2.07062" /><path id= "19" d=" M -1.4268 2.07062 L -0.395 1.1766 " />
<path id= "20" d=" M -0.395 1.1766 L 2.11074e-14 1.03356 " />
<path id= "21" d=" M -1.97535e-14 1.03356 L 0.395 1.1766 " />
<path d="M1.4268, 2.07062 C0.992962, 1.5601 0.725624, 1.24615 0.528546, 1.01571 " /><path id= "23" d=" M 0.395 1.1766 L 0.395 0.890868 " />
<path d="M0.528546, 1.01571 Q0.456365, 0.948175 0.395, 0.890868 " /><path id= "25" d=" M 1.14748e-16 1.03356 L 8.16014e-17 0.735 " />
<path d="M0.395, 0.890868 C0.241323, 0.828856 0.115645, 0.779263 -1.14297e-13, 0.735 " /><path id= "27" d=" M -0.395 1.1766 L -0.395 0.890868 " />
<path d="M1.14353e-13, 0.735 C-0.115645, 0.779263 -0.241323, 0.828856 -0.395, 0.890868 " /><path d="M-0.528546, 1.01571 C-0.725624, 1.24615 -0.992962, 1.5601 -1.4268, 2.07062 " /><path d="M-0.395, 0.890868 Q-0.456365, 0.948175 -0.528546, 1.01571 " /><path d="M-2.07062, 1.4268 C-1.5601, 0.992962 -1.24615, 0.725624 -1.01571, 0.528546 " /><path d="M-0.528546 1.01571 A1.145 1.145 0 0 1 -1.01571 0.528546" /><path id= "33" d=" M -1.1766 0.395 L -0.890868 0.395 " />
<path d="M-1.01571, 0.528546 Q-0.948175, 0.456365 -0.890868, 0.395 " /><path id= "35" d=" M -1.03356 1.26574e-16 L -0.735 9.00115e-17 " />
<path d="M-0.890868, 0.395 C-0.828856, 0.241323 -0.779263, 0.115645 -0.735, -1.14297e-13 " /><path id= "37" d=" M -1.1766 -0.395 L -0.890868 -0.395 " />
<path d="M-0.735, 1.1452e-13 C-0.779263, -0.115645 -0.828856, -0.241323 -0.890868, -0.395 " /><path d="M-1.01571, -0.528546 C-1.24615, -0.725624 -1.5601, -0.992962 -2.07062, -1.4268 " /><path d="M-0.890868, -0.395 Q-0.948175, -0.456365 -1.01571, -0.528546 " /><path d="M-1.4268, -2.07062 C-0.992962, -1.5601 -0.725624, -1.24615 -0.528546, -1.01571 " /><path d="M-1.01571 -0.528546 A1.145 1.145 0 0 1 -0.528546 -1.01571" /><path id= "43" d=" M -0.395 -1.1766 L -0.395 -0.890868 " />
<path d="M-0.528546, -1.01571 Q-0.456365, -0.948175 -0.395, -0.890868 " /><path id= "45" d=" M -2.29496e-16 -1.03356 L -1.63203e-16 -0.735 " />
<path d="M-0.395, -0.890868 C-0.241323, -0.828856 -0.115645, -0.779263 1.14297e-13, -0.735 " /><path id= "47" d=" M 0.395 -1.1766 L 0.395 -0.890868 " />
<path d="M-1.1452e-13, -0.735 C0.115645, -0.779263 0.241323, -0.828856 0.395, -0.890868 " /><path d="M0.528546, -1.01571 C0.725624, -1.24615 0.992962, -1.5601 1.4268, -2.07062 " /><path d="M0.395, -0.890868 Q0.456365, -0.948175 0.528546, -1.01571 " /><path d="M2.07062, -1.4268 C1.5601, -0.992962 1.24615, -0.725624 1.01571, -0.528546 " /><path d="M0.528546 -1.01571 A1.145 1.145 0 0 1 1.01571 -0.528546" /><path id= "53" d=" M 1.1766 -0.395 L 0.890868 -0.395 " />
<path d="M1.01571, -0.528546 Q0.948175, -0.456365 0.890868, -0.395 " /><path id= "55" d=" M 1.03356 0 L 0.735 0 " />
<path d="M0.890868, -0.395 C0.828856, -0.241323 0.779263, -0.115645 0.735, 1.14297e-13 " /><path d="M0.735, -1.14325e-13 C0.779263, 0.115645 0.828856, 0.241323 0.890868, 0.395 " /><path id= "58" d=" M 1.1766 0.395 L 0.890868 0.395 " />
<path d="M1.01571, 0.528546 C1.24615, 0.725624 1.5601, 0.992962 2.07062, 1.4268 " /><path d="M0.890868, 0.395 Q0.948175, 0.456365 1.01571, 0.528546 " /><path d="M1.01571 0.528546 A1.145 1.145 0 0 1 0.528546 1.01571" /></g>

</svg>
