<svg xmlns="http://www.w3.org/2000/svg" viewBox="-9.5160208 -8.6844608 15.368561600000001 14.3385216">
<rect width="100%" height="100%" fill="white"/>
<g   fill="none"
   stroke="rgb(0, 0, 0)"
   stroke-linecap="butt"
   stroke-linejoin="miter"
   stroke-width="0.35"
   transform="scale(1, -1)"
  >
<path d="M4.79264, 2.89856 C4.79649, 1.40876 4.28284, -0.332071 3.3965, -1.88183  C2.50084, -3.46052 1.23394, -4.81581 -0.0790367, -5.57956  C-0.8617, -6.03807 -1.66103, -6.2936 -2.40916, -6.30439  C-2.96313, -6.31328 -3.48904, -6.18513 -3.94068, -5.92322  C-4.39168, -5.66307 -4.76431, -5.27255 -5.03289, -4.78971  C-5.29249, -4.32452 -5.45813, -3.77456 -5.52946, -3.16904 " /><path d="M0.0578946, 6.40608 C0.600166, 6.62962 1.1405, 6.7498 1.6556, 6.75374  C2.20702, 6.75872 2.72997, 6.62727 3.1785, 6.36318  C3.48099, 6.18484 3.74422, 5.9538 3.96819, 5.67008  C4.51772, 4.97531 4.79367, 4.00192 4.79264, 2.89856 " /><path id= "3" d=" M -8.45612 -0.602685 L -6.40551 -1.78661 " />
<path id= "4" d=" M -3.70612 7.62456 L -1.65551 6.44064 " />
<path d="M-3.70612, 7.62456 C-4.06885, 7.83476 -4.4993, 7.92092 -4.94781, 7.88146  C-5.09163, 7.86898 -5.23699, 7.84433 -5.38388, 7.80749  C-5.74961, 7.71484 -6.11443, 7.55412 -6.47835, 7.32532  C-7.29133, 6.81722 -8.06402, 5.97972 -8.62647, 5.00965  C-9.20445, 4.01928 -9.55421, 2.90392 -9.58384, 1.92619  C-9.59769, 1.50807 -9.555, 1.12167 -9.45575, 0.767008  C-9.41416, 0.619666 -9.36259, 0.479875 -9.30105, 0.347637  C-9.11098, -0.0620996 -8.82055, -0.393068 -8.45612, -0.602685 " /></g>
<g   fill="none"
   stroke="rgb(0, 0, 0)"
   stroke-linecap="butt"
   stroke-linejoin="miter"
   stroke-width="0.35"
   transform="scale(1, -1)"
  >
<path d="M2.9275, 3.02385 L2.68498, 2.66795  L2.46178, 2.31767  L2.25652, 1.97087  L2.06794, 1.6254  L1.89487, 1.27913  L1.73625, 0.929942  L1.5911, 0.575673  L1.45852, 0.214144  L1.3377, -0.156874  L1.2279, -0.539666  L1.12844, -0.936591  L1.03871, -1.35009  L0.958143, -1.78272  L0.886256, -2.23714 " /><path d="M0.886256, -2.23714 L0.486539, -2.3694  L0.111457, -2.50361  L-0.241301, -2.64057  L-0.573907, -2.78115  L-0.888412, -2.9262  L-1.18675, -3.07662  L-1.47077, -3.23334  L-1.7422, -3.39731  L-2.00274, -3.56956  L-2.25397, -3.75114  L-2.49746, -3.94317  L-2.73469, -4.14683  L-2.96714, -4.36339  L-3.19623, -4.59416 " /><path d="M0.886256, 5.92783 L0.958143, 5.75344  L1.03871, 5.57854  L1.12844, 5.40205  L1.2279, 5.22288  L1.3377, 5.03994  L1.45852, 4.85208  L1.5911, 4.65816  L1.73625, 4.45697  L1.89487, 4.24729  L2.06794, 4.02781  L2.25652, 3.79719  L2.46178, 3.554  L2.68498, 3.29675  L2.9275, 3.02385 " /><path id= "4" d=" M 2.9275 3.02385 L 0.7757 4.26619 " />
<path d="M-1.26554, 7.17017 L-1.25611, 7.03184  L-1.22775, 6.88708  L-1.1803, 6.73501  L-1.11346, 6.57467  L-1.02682, 6.40509  L-0.919842, 6.22523  L-0.79187, 6.03396  L-0.642115, 5.83012  L-0.469656, 5.61245  L-0.273428, 5.3796  L-0.0522235, 5.13014  L0.195321, 4.86254  L0.470729, 4.57515  L0.7757, 4.26619 " /><path id= "6" d=" M 0.886256 5.92783 L -1.26554 7.17017 " />
<path d="M-2.43649, 6.89154 Q-1.91282, 7.04556 -1.26554, 7.17017 " /><path d="M-5.34802, -3.35182 Q-5.43468, -3.26455 -5.52134, -3.17728  Q-5.6033, -3.09347 -5.68526, -3.00965  Q-5.76269, -2.92914 -5.84012, -2.84863  Q-5.91315, -2.77126 -5.98619, -2.6939  Q-6.05498, -2.61953 -6.12377, -2.54517  Q-6.18844, -2.47366 -6.2531, -2.40215  Q-6.31378, -2.33336 -6.37445, -2.26458  Q-6.43124, -2.19838 -6.48803, -2.13219  Q-6.54105, -2.06845 -6.59407, -2.00472  Q-6.64342, -1.94334 -6.69277, -1.88195  Q-6.73854, -1.82279 -6.78431, -1.76363  Q-6.87078, -1.64841 -6.94661, -1.53945  Q-6.98215, -1.48631 -7.01768, -1.43317 " /><path id= "9" d=" M -3.19623 -4.59416 L -5.34802 -3.35182 " />
<path d="M-1.26554, -0.9948 L-1.72771, -1.09101  L-2.155, -1.19506  L-2.55005, -1.30762  L-2.91527, -1.42936  L-3.25294, -1.56104  L-3.56511, -1.70347  L-3.85373, -1.85753  L-4.12057, -2.02416  L-4.36726, -2.2044  L-4.59534, -2.39935  L-4.8062, -2.61021  L-5.00115, -2.83829  L-5.18139, -3.08499  L-5.34802, -3.35182 " /><path id= "11" d=" M 0.886256 -2.23714 L -1.26554 -0.9948 " />
<path d="M0.7757, 4.26619 L0.470729, 3.94635  L0.195321, 3.62621  L-0.0522235, 3.30382  L-0.273428, 2.97718  L-0.469656, 2.64429  L-0.642115, 2.30309  L-0.79187, 1.95148  L-0.919842, 1.58729  L-1.02682, 1.20828  L-1.11346, 0.812122  L-1.1803, 0.396364  L-1.22775, -0.0415513  L-1.25611, -0.504322  L-1.26554, -0.9948 " /><path d="M-0.671751 4.26619 A4.75 2.74241 60 0 1 -1.65551 6.44064" />
<path d="M-6.40551 -1.78661 A4.75 2.74241 60 0 1 -0.671751 4.26619" />
<path d="M-4.20729 5.00104 A3.15 1.81865 60 0 1 -4.85967 6.44304" />
<path d="M-4.85967 6.44304 A3.15 1.81865 60 0 1 -8.00967 0.987079" />
<path d="M-8.00967 0.987079 A3.15 1.81865 60 0 1 -4.20729 5.00104" />
<path d="M-4.69285 6.32374 A3.15 1.81865 60 0 1 -7.82294 0.902255" />
<path d="M-4.42385, 3.76977 C-5.00754, 3.2562 -5.47628, 2.47257 -5.6428, 1.76831 " /><path d="M-4.6068, 3.30063 C-4.90372, 2.95543 -5.1505, 2.54766 -5.31319, 2.14037 " /><path d="M-7.79836, 2.83309 C-7.78348, 3.23517 -7.66477, 3.69203 -7.46416, 4.13042  C-7.21716, 4.67368 -6.84587, 5.18454 -6.4327, 5.55719  C-5.95324, 5.99312 -5.42229, 6.23812 -4.97273, 6.23941 " /><path d="M-7.79836 2.83309 A2.45873 1.41955 60 0 1 -7.31049 1.38161" />
<path d="M-7.31049 1.38161 A2.45873 1.41955 60 0 1 -6.35292 1.37115" />
<path d="M-5.78458, 1.63041 Q-6.07439, 1.44399 -6.35292, 1.37115 " /><path d="M-4.97273, 6.23941 C-4.82508, 6.24146 -4.63885, 6.1931 -4.48935, 6.09091 " /><path d="M-4.21891, 4.73196 C-4.84549, 4.52784 -5.51239, 3.91757 -5.93228, 3.19029  C-6.30397, 2.5588 -6.48139, 1.85877 -6.41282, 1.34876 " /><path d="M-4.23871, 4.55238 C-4.78893, 4.30657 -5.34552, 3.77151 -5.72173, 3.14506  C-6.0774, 2.56095 -6.27007, 1.90933 -6.24868, 1.40217 " /><path d="M-4.20851, 5.08576 Q-4.35989, 5.3555 -4.60424, 5.49736 " /><path d="M-4.60424, 5.49736 C-4.82251, 5.62385 -5.09057, 5.66358 -5.37963, 5.6132  C-5.6874, 5.56039 -6.01836, 5.40514 -6.33189, 5.16917  C-6.72162, 4.87738 -7.0823, 4.46098 -7.34767, 4.00475  C-7.57232, 3.62043 -7.72902, 3.20983 -7.79836, 2.83309 " /><path d="M-4.51853, 5.44171 C-4.96111, 5.64458 -5.57957, 5.50061 -6.14591, 5.07402  C-6.522, 4.79449 -6.87186, 4.39885 -7.13547, 3.96232  C-7.45352, 3.43942 -7.64304, 2.86171 -7.66224, 2.38277  C-7.68419, 1.90744 -7.53989, 1.53406 -7.27287, 1.36118 " /><path d="M-4.29403, 5.21815 C-4.69515, 5.26694 -5.17762, 5.09873 -5.62519, 4.76062  C-6.01908, 4.46565 -6.38321, 4.04334 -6.64933, 3.58141  C-6.94823, 3.06646 -7.12148, 2.50653 -7.13307, 2.04371  C-7.14214, 1.73052 -7.07938, 1.46198 -6.95429, 1.27082 " /><path d="M-4.23066, 5.12381 C-4.60434, 5.13291 -5.03554, 4.96761 -5.4389, 4.6657  C-5.81507, 4.38609 -6.16498, 3.99033 -6.4286, 3.55369  C-6.74712, 3.02988 -6.93664, 2.45116 -6.95525, 1.9718  C-6.96698, 1.6966 -6.92443, 1.45403 -6.83288, 1.26673 " /></g>

</svg>
