<svg xmlns="http://www.w3.org/2000/svg" viewBox="-10.192 -7.917 11.283999999999999 15.834">
<rect width="100%" height="100%" fill="white"/>
<g   fill="none"
   stroke="rgb(0, 0, 0)"
   stroke-linecap="butt"
   stroke-linejoin="miter"
   stroke-width="0.35"
   transform="scale(1, -1)"
  >
<path d="M-1.02631, -6.825 C-0.923372, -7.00809 -0.708608, -7.1193 -0.499674, -7.09769  C-0.396899, -7.08771 -0.303981, -7.05204 -0.220921, -6.99069  C-0.0833615, -6.88936 0.00111436, -6.72085 0, -6.55 " /><path id= "2" d=" M -1.6334 -5.7735 L -1.02631 -6.825 " />
<path id= "3" d=" M -5.7 -4.75 L -4.6765 -5.7735 " />
<path id= "4" d=" M -8.6 -4.75 L -5.7 -4.75 " />
<path d="M-8.6, -4.75 C-8.62755, -4.75 -8.65492, -4.74773 -8.68209, -4.74322  C-8.91711, -4.70884 -9.10468, -4.48747 -9.1, -4.25 " /></g>
<g   fill="none"
   stroke="rgb(0, 0, 0)"
   stroke-linecap="butt"
   stroke-linejoin="miter"
   stroke-width="0.35"
   transform="scale(1, -1)"
  >
<path d="M-5.55112e-17, -6.55 L-5.55112e-17, -6.38578  L-5.55112e-17, -5.90135  L-5.55112e-17, -5.121  L-5.55112e-17, -4.08386  L-5.55112e-17, -2.84194  L-5.55112e-17, -1.45751  L-5.55112e-17, -1.11022e-15  L-5.55112e-17, 1.45751  L-5.55112e-17, 2.84194  L-5.55112e-17, 4.08386  L-5.55112e-17, 5.121  L-5.55112e-17, 5.90135  L-5.55112e-17, 6.38578  L-5.55112e-17, 6.55 " /><path d="M0 6.55 A0.55 0.55 0 0 1 -1.02631 6.825" /><path id= "3" d=" M -1.02631 6.825 L -1.6334 5.7735 " />
<path d="M-1.6334, 5.7735 L-1.75405, 5.55119  L-1.85491, 5.33639  L-1.9366, 5.1278  L-1.99961, 4.92412  L-2.04435, 4.7241  L-2.07109, 4.52651  L-2.07998, 4.33013  L-2.07109, 4.13374  L-2.04435, 3.93615  L-1.99961, 3.73613  L-1.9366, 3.53245  L-1.85491, 3.32386  L-1.75405, 3.10907  L-1.6334, 2.88675 " /><path d="M-1.6334, 2.88675 L-1.75405, 2.44212  L-1.85491, 2.01253  L-1.9366, 1.59535  L-1.99961, 1.18799  L-2.04435, 0.787949  L-2.07109, 0.392764  L-2.07998, -1.11022e-16  L-2.07109, -0.392764  L-2.04435, -0.787949  L-1.99961, -1.18799  L-1.9366, -1.59535  L-1.85491, -2.01253  L-1.75405, -2.44212  L-1.6334, -2.88675 " /><path d="M-1.6334, -2.88675 L-1.75405, -3.10907  L-1.85491, -3.32386  L-1.9366, -3.53245  L-1.99961, -3.73613  L-2.04435, -3.93615  L-2.07109, -4.13374  L-2.07998, -4.33013  L-2.07109, -4.52651  L-2.04435, -4.7241  L-1.99961, -4.92412  L-1.9366, -5.1278  L-1.85491, -5.33639  L-1.75405, -5.55119  L-1.6334, -5.7735 " /><path id= "7" d=" M -1.6334 5.7735 L -4.6765 5.7735 " />
<path id= "8" d=" M -1.6334 -5.7735 L -4.6765 -5.7735 " />
<path d="M-4.6765, -2.88675 L-4.88547, -3.10907  L-5.06017, -3.32386  L-5.20165, -3.53245  L-5.31081, -3.73613  L-5.38829, -3.93615  L-5.4346, -4.13374  L-5.45, -4.33013  L-5.4346, -4.52651  L-5.38829, -4.7241  L-5.31081, -4.92412  L-5.20165, -5.1278  L-5.06017, -5.33639  L-4.88547, -5.55119  L-4.6765, -5.7735 " /><path id= "10" d=" M -1.6334 -2.88675 L -4.6765 -2.88675 " />
<path d="M-4.6765, 2.88675 L-4.88547, 2.44212  L-5.06017, 2.01253  L-5.20165, 1.59535  L-5.31081, 1.18799  L-5.38829, 0.787949  L-5.4346, 0.392764  L-5.45, -2.22045e-16  L-5.4346, -0.392764  L-5.38829, -0.787949  L-5.31081, -1.18799  L-5.20165, -1.59535  L-5.06017, -2.01253  L-4.88547, -2.44212  L-4.6765, -2.88675 " /><path id= "12" d=" M -1.6334 2.88675 L -4.6765 2.88675 " />
<path d="M-4.6765, 5.7735 L-4.88547, 5.55119  L-5.06017, 5.33639  L-5.20165, 5.1278  L-5.31081, 4.92412  L-5.38829, 4.7241  L-5.4346, 4.52651  L-5.45, 4.33013  L-5.4346, 4.13374  L-5.38829, 3.93615  L-5.31081, 3.73613  L-5.20165, 3.53245  L-5.06017, 3.32386  L-4.88547, 3.10907  L-4.6765, 2.88675 " /><path id= "14" d=" M -5.7 4.75 L -4.6765 5.7735 " />
<path d="M-5.7, -4.75 L-5.7, -4.63091  L-5.7, -4.2796  L-5.7, -3.7137  L-5.7, -2.96158  L-5.7, -2.06095  L-5.7, -1.05697  L-5.7, -8.88178e-16  L-5.7, 1.05697  L-5.7, 2.06095  L-5.7, 2.96158  L-5.7, 3.7137  L-5.7, 4.2796  L-5.7, 4.63091  L-5.7, 4.75 " /><path id= "16" d=" M -8.6 4.75 L -5.7 4.75 " />
<path d="M-9.1 4.25 A0.5 0.5 0 0 0 -8.6 4.75" /><path d="M-9.1, -4.25 L-9.1, -4.14344  L-9.1, -3.82912  L-9.1, -3.32278  L-9.1, -2.64983  L-9.1, -1.84401  L-9.1, -0.945714  L-9.1, -7.77156e-16  L-9.1, 0.945714  L-9.1, 1.84401  L-9.1, 2.64983  L-9.1, 3.32278  L-9.1, 3.82912  L-9.1, 4.14344  L-9.1, 4.25 " /></g>

</svg>
