<svg xmlns="http://www.w3.org/2000/svg" viewBox="-6.803380000000001 -6.02988 14.93326 12.05976">
<rect width="100%" height="100%" fill="white"/>
<g   fill="none"
   stroke="rgb(0, 0, 0)"
   stroke-linecap="butt"
   stroke-linejoin="miter"
   stroke-width="0.35"
   transform="scale(1, -1)"
  >
<path d="M7.1, 0 C7.10072, -1.00367 6.88461, -2.00731 6.47097, -2.92176  C6.05858, -3.83676 5.44865, -4.66258 4.69531, -5.32579  C3.97073, -5.96541 3.11339, -6.4544 2.19402, -6.75251  C1.27502, -7.05173 0.293993, -7.16006 -0.668169, -7.06849  C-1.63045, -6.97814 -2.5738, -6.68791 -3.42045, -6.22178  C-4.26768, -5.75669 -5.01821, -5.11571 -5.6101, -4.35164  C-6.27157, -3.50044 -6.73479, -2.49554 -6.95249, -1.43979  C-7.17198, -0.384414 -7.14596, 0.721805 -6.87694, 1.7657  C-6.60978, 2.81007 -6.09966, 3.79199 -5.39889, 4.61109  C-4.6995, 5.43136 -3.80947, 6.08881 -2.81975, 6.51606  C-1.83079, 6.94506 -0.742263, 7.14382 0.334456, 7.09213  C1.41126, 7.04226 2.47626, 6.74195 3.42045, 6.22178  C4.5288, 5.61457 5.46951, 4.70278 6.11129, 3.61421  C6.75603, 2.52738 7.10185, 1.26378 7.1, 0 " /></g>
<g   fill="none"
   stroke="rgb(0, 0, 0)"
   stroke-linecap="butt"
   stroke-linejoin="miter"
   stroke-width="0.35"
   transform="scale(1, -1)"
  >
<path d="M5.7735, -1.54543e-13 C5.6994, -0.128354 5.62529, -0.256709 5.55119, -0.385063  C5.47959, -0.509074 5.40799, -0.633085 5.33639, -0.757096  C5.26686, -0.877527 5.19733, -0.997959 5.1278, -1.11839  C4.99133, -1.35476 4.85676, -1.58784 4.7241, -1.81762  C4.59215, -2.04617 4.46082, -2.27363 4.33013, -2.5  C4.13407, -2.83958 3.93713, -3.1807 3.73613, -3.52883  C3.66824, -3.64642 3.60035, -3.76402 3.53245, -3.88161  C3.46292, -4.00204 3.39339, -4.12247 3.32386, -4.2429  C3.25226, -4.36692 3.18067, -4.49093 3.10907, -4.61494  C3.03496, -4.74329 2.96086, -4.87165 2.88675, -5 " /><path d="M2.88675, -5 C2.73854, -5 2.59033, -5 2.44212, -5  C2.29892, -5 2.15573, -5 2.01253, -5  C1.87347, -5 1.73441, -5 1.59535, -5  C1.32241, -5 1.05327, -5 0.787949, -5  C0.52404, -5 0.261391, -5 -1.11022e-16, -5  C-0.392109, -5 -0.785999, -5 -1.18799, -5  C-1.32377, -5 -1.45956, -5 -1.59535, -5  C-1.73441, -5 -1.87347, -5 -2.01253, -5  C-2.15573, -5 -2.29892, -5 -2.44212, -5  C-2.59033, -5 -2.73854, -5 -2.88675, -5 " /><path d="M-2.88675, -5 C-2.96086, -4.87165 -3.03496, -4.74329 -3.10907, -4.61494  C-3.18067, -4.49093 -3.25226, -4.36692 -3.32386, -4.2429  C-3.39339, -4.12247 -3.46292, -4.00204 -3.53245, -3.88161  C-3.66892, -3.64524 -3.80349, -3.41216 -3.93615, -3.18238  C-4.06811, -2.95383 -4.19943, -2.72637 -4.33013, -2.5  C-4.52618, -2.16042 -4.72313, -1.8193 -4.92412, -1.47117  C-4.99201, -1.35358 -5.05991, -1.23598 -5.1278, -1.11839  C-5.19733, -0.997959 -5.26686, -0.877527 -5.33639, -0.757096  C-5.40799, -0.633085 -5.47959, -0.509074 -5.55119, -0.385063  C-5.62529, -0.256709 -5.6994, -0.128354 -5.7735, -1.53211e-13 " /><path d="M-5.7735, 1.54543e-13 C-5.6994, 0.128354 -5.62529, 0.256709 -5.55119, 0.385063  C-5.47959, 0.509074 -5.40799, 0.633085 -5.33639, 0.757096  C-5.26686, 0.877527 -5.19733, 0.997959 -5.1278, 1.11839  C-4.99133, 1.35476 -4.85676, 1.58784 -4.7241, 1.81762  C-4.59215, 2.04617 -4.46082, 2.27363 -4.33013, 2.5  C-4.13407, 2.83958 -3.93713, 3.1807 -3.73613, 3.52883  C-3.66824, 3.64642 -3.60035, 3.76402 -3.53245, 3.88161  C-3.46292, 4.00204 -3.39339, 4.12247 -3.32386, 4.2429  C-3.25226, 4.36692 -3.18067, 4.49093 -3.10907, 4.61494  C-3.03496, 4.74329 -2.96086, 4.87165 -2.88675, 5 " /><path d="M-2.88675, 5 C-2.73854, 5 -2.59033, 5 -2.44212, 5  C-2.29892, 5 -2.15573, 5 -2.01253, 5  C-1.87347, 5 -1.73441, 5 -1.59535, 5  C-1.32241, 5 -1.05327, 5 -0.787949, 5  C-0.52404, 5 -0.261391, 5 -1.11022e-16, 5  C0.392109, 5 0.785999, 5 1.18799, 5  C1.32377, 5 1.45956, 5 1.59535, 5  C1.73441, 5 1.87347, 5 2.01253, 5  C2.15573, 5 2.29892, 5 2.44212, 5  C2.59033, 5 2.73854, 5 2.88675, 5 " /><path d="M2.88675, 5 C2.96086, 4.87165 3.03496, 4.74329 3.10907, 4.61494  C3.18067, 4.49093 3.25226, 4.36692 3.32386, 4.2429  C3.39339, 4.12247 3.46292, 4.00204 3.53245, 3.88161  C3.66892, 3.64524 3.80349, 3.41216 3.93615, 3.18238  C4.06811, 2.95383 4.19943, 2.72637 4.33013, 2.5  C4.52618, 2.16042 4.72313, 1.8193 4.92412, 1.47117  C4.99201, 1.35358 5.05991, 1.23598 5.1278, 1.11839  C5.19733, 0.997959 5.26686, 0.877527 5.33639, 0.757096  C5.40799, 0.633085 5.47959, 0.509074 5.55119, 0.385063  C5.62529, 0.256709 5.6994, 0.128354 5.7735, 1.54099e-13 " /><path d="M2.88675, 5 C2.96086, 4.87165 3.03496, 4.74329 3.10907, 4.61494  C3.18067, 4.49093 3.25226, 4.36692 3.32386, 4.2429  C3.39339, 4.12247 3.46292, 4.00204 3.53245, 3.88161  C3.60035, 3.76402 3.66824, 3.64642 3.73613, 3.52883  C3.93713, 3.1807 4.13407, 2.83958 4.33013, 2.5  C4.46082, 2.27363 4.59215, 2.04617 4.7241, 1.81762  C4.85676, 1.58784 4.99133, 1.35476 5.1278, 1.11839  C5.19733, 0.997959 5.26686, 0.877527 5.33639, 0.757096  C5.40799, 0.633085 5.47959, 0.509074 5.55119, 0.385063  C5.62529, 0.256709 5.6994, 0.128354 5.7735, 4.29434e-13 " /><path d="M-2.88675, 5 Q-2.66444, 5 -2.44212, 5  Q-2.22733, 5 -2.01253, 5  Q-1.80394, 5 -1.59535, 5  Q-1.18593, 5 -0.787949, 5  Q-0.392086, 5 -2.22045e-16, 5  Q0.392086, 5 0.787949, 5  Q1.18593, 5 1.59535, 5  Q1.80394, 5 2.01253, 5  Q2.22733, 5 2.44212, 5  Q2.66444, 5 2.88675, 5 " /><path d="M-5.7735, 4.29889e-13 C-5.6994, 0.128354 -5.62529, 0.256709 -5.55119, 0.385063  C-5.47959, 0.509074 -5.40799, 0.633085 -5.33639, 0.757096  C-5.26686, 0.877527 -5.19733, 0.997959 -5.1278, 1.11839  C-5.05991, 1.23598 -4.99201, 1.35358 -4.92412, 1.47117  C-4.72313, 1.8193 -4.52618, 2.16042 -4.33013, 2.5  C-4.19943, 2.72637 -4.06811, 2.95383 -3.93615, 3.18238  C-3.80349, 3.41216 -3.66892, 3.64524 -3.53245, 3.88161  C-3.46292, 4.00204 -3.39339, 4.12247 -3.32386, 4.2429  C-3.25226, 4.36692 -3.18067, 4.49093 -3.10907, 4.61494  C-3.03496, 4.74329 -2.96086, 4.87165 -2.88675, 5 " /><path d="M-2.88675, -5 C-2.96086, -4.87165 -3.03496, -4.74329 -3.10907, -4.61494  C-3.18067, -4.49093 -3.25226, -4.36692 -3.32386, -4.2429  C-3.39339, -4.12247 -3.46292, -4.00204 -3.53245, -3.88161  C-3.66892, -3.64524 -3.80349, -3.41216 -3.93615, -3.18238  C-4.06811, -2.95383 -4.19943, -2.72637 -4.33013, -2.5  C-4.52618, -2.16042 -4.72313, -1.8193 -4.92412, -1.47117  C-4.99201, -1.35358 -5.05991, -1.23598 -5.1278, -1.11839  C-5.19733, -0.997959 -5.26686, -0.877527 -5.33639, -0.757096  C-5.40799, -0.633085 -5.47959, -0.509074 -5.55119, -0.385063  C-5.62529, -0.256709 -5.6994, -0.128354 -5.7735, -4.27214e-13 " /><path d="M2.88675, -5 Q2.66444, -5 2.44212, -5  Q2.22733, -5 2.01253, -5  Q1.80394, -5 1.59535, -5  Q1.18593, -5 0.787949, -5  Q0.392086, -5 -2.22045e-16, -5  Q-0.392086, -5 -0.787949, -5  Q-1.18593, -5 -1.59535, -5  Q-1.80394, -5 -2.01253, -5  Q-2.22733, -5 -2.44212, -5  Q-2.66444, -5 -2.88675, -5 " /><path d="M5.7735, -4.29889e-13 C5.6994, -0.128354 5.62529, -0.256709 5.55119, -0.385063  C5.47959, -0.509074 5.40799, -0.633085 5.33639, -0.757096  C5.26686, -0.877527 5.19733, -0.997959 5.1278, -1.11839  C5.05991, -1.23598 4.99201, -1.35358 4.92412, -1.47117  C4.72313, -1.8193 4.52618, -2.16042 4.33013, -2.5  C4.19943, -2.72637 4.06811, -2.95383 3.93615, -3.18238  C3.80349, -3.41216 3.66892, -3.64524 3.53245, -3.88161  C3.46292, -4.00204 3.39339, -4.12247 3.32386, -4.2429  C3.25226, -4.36692 3.18067, -4.49093 3.10907, -4.61494  C3.03496, -4.74329 2.96086, -4.87165 2.88675, -5 " /><path d="M2.23352, 1.028 L2.22591, 1.04437 " /><path d="M1.98663, 1.44868 L1.90214, 1.55797 " /><path d="M1.48985, 1.95595 Q1.34744, 2.06439 1.19085, 2.1511 " /><path d="M-2.05531, 1.34947 Q-2.10317, 1.27658 -2.14574, 1.20049 " /><path d="M-2.14668, 1.1988 Q-2.2697, 0.978376 -2.34548, 0.737614 " /><path d="M-2.35474, 0.707497 L-2.35885, 0.693684 " /><path d="M-2.39241, 0.567235 L-2.39241, 0.567219 " /><path d="M-2.42855, 0.384086 C-2.55186, -0.364528 -2.30097, -1.16208 -1.77128, -1.70527  C-1.4235, -2.06794 -0.961715, -2.31902 -0.468244, -2.41374  C0.282519, -2.5645 1.09616, -2.33558 1.65816, -1.81546 " /><path d="M2.45873, -0.00015989 L2.45873, 1.10064e-07 " /><circle cx ="0" cy ="0" r ="4.75" /><circle cx ="0" cy ="0" r ="3.15" /><path d="M2.45873, 0.00054482 C2.463, 0.740673 2.10922, 1.47179 1.52618, 1.92773 " /><path d="M1.2827, 2.09763 Q1.20148, 2.1473 1.11666, 2.19054 " /><path d="M1.10216, 2.19786 L1.05865, 2.21915 " /><path d="M1.02691, 2.23402 C0.436681, 2.5083 -0.263316, 2.53239 -0.871036, 2.29928 " /><path d="M-0.873163, 2.29847 Q-1.22464, 2.16458 -1.52042, 1.93228 " /><path d="M-1.56648, 1.89513 Q-1.82179, 1.68383 -2.01237, 1.41271 " /><path d="M-2.19187, 1.11403 L-2.19273, 1.11234 " /><path d="M-2.31967, 0.815182 Q-2.37948, 0.644915 -2.41383, 0.467738 " /><path d="M-2.42855, 0.384086 C-2.55012, -0.354979 -2.30759, -1.14198 -1.79112, -1.68441  C-1.4414, -2.05785 -0.972052, -2.31678 -0.469645, -2.41346  C-0.0598618, -2.49369 0.37022, -2.46679 0.766811, -2.3361 " /><path d="M0.96349, -2.26209 C1.38994, -2.08124 1.7627, -1.77662 2.02487, -1.39473  C2.3062, -0.987949 2.45967, -0.494579 2.45873, 0 " /><path d="M2.45873, 0.000544826 C2.46041, 0.586204 2.24292, 1.16899 1.85797, 1.61038  C1.55776, 1.95781 1.15798, 2.21781 0.71868, 2.35136  C0.310768, 2.47658 -0.129897, 2.49262 -0.545834, 2.39738  C-1.14645, 2.26287 -1.68956, 1.89218 -2.03368, 1.38185 " /><path d="M-2.31967, 0.815182 Q-2.37941, 0.64512 -2.41375, 0.468162 " /><path d="M-2.42855, 0.384086 C-2.49273, -0.0189494 -2.45407, -0.437729 -2.31719, -0.822197 " /><path d="M-2.11054, -1.26135 Q-2.00561, -1.43686 -1.87318, -1.59266 " /><path d="M-1.75605, -1.72095 C-1.43463, -2.04993 -1.01888, -2.28522 -0.571369, -2.39142 " /><path d="M-0.443908, -2.41833 C0.015091, -2.50334 0.497921, -2.45337 0.929777, -2.27616  C1.36884, -2.09766 1.7535, -1.78861 2.02239, -1.39832  C2.26967, -1.04167 2.4195, -0.618429 2.45172, -0.185651 " /><path d="M-2.42855, 0.384086 C-2.40751, 0.866015 -2.23962, 1.34161 -1.95591, 1.73667  C-1.6066, 2.22736 -1.08152, 2.5905 -0.497205, 2.75475  C0.180843, 2.94962 0.931723, 2.87425 1.5675, 2.55794 " /><path d="M-2.42855 0.384086 A2.45873 2.45873 0 0 1 -0.384392 -2.4285" /><path d="M2.93506, 1.18369e-07 C2.87803, -0.624457 2.61131, -1.22681 2.18312, -1.67932  C1.81183, -2.07514 1.32011, -2.35474 0.792513, -2.46348  C0.403321, -2.54484 -0.00385211, -2.53363 -0.384392, -2.4285 " /><path d="M2.93506, 1.18369e-07 Q2.96775, 0.350801 2.91713, 0.700339 " /><path d="M1.5675, 2.55794 C1.66333, 2.51077 1.77647, 2.44237 1.88711, 2.36054  C2.09373, 2.20854 2.29376, 2.00906 2.45624, 1.7846 " /><path d="M2.45624, 1.7846 C2.59169, 1.59852 2.70298, 1.39406 2.78291, 1.19  C2.85135, 1.01673 2.89708, 0.840038 2.91713, 0.700339 " /><path d="M2.45873, 0.000544832 C2.46041, 0.586204 2.24292, 1.16899 1.85797, 1.61038  C1.55784, 1.95771 1.1582, 2.21767 0.719043, 2.35124  C0.311216, 2.47651 -0.129372, 2.49263 -0.545265, 2.39751  C-1.02693, 2.28891 -1.47326, 2.03057 -1.80735, 1.66699 " /><path d="M-1.9154, 1.54162 Q-2.06636, 1.35397 -2.17814, 1.14064 " /><path d="M-2.31822, 0.81928 L-2.31967, 0.815182 " /><path d="M-2.42855, 0.384086 Q-2.45323, 0.227949 -2.45774, 0.0699418 " /><path d="M-2.45413, -0.1504 C-2.42113, -0.714324 -2.1854, -1.26339 -1.79928, -1.6757 " /><path d="M-1.61062, -1.85776 C-1.28898, -2.1373 -0.893346, -2.33054 -0.475152, -2.41239 " /><path d="M-0.323977, -2.4373 C0.0958526, -2.49361 0.529898, -2.43854 0.922358, -2.27917  C1.36524, -2.10082 1.7533, -1.78977 2.02377, -1.39633  C2.30579, -0.989232 2.45967, -0.49523 2.45873, -1.22125e-15 " /><path d="M2.45873, 9.8648e-07 C2.46054, 0.585842 2.24304, 1.16886 1.85797, 1.61038  C1.558, 1.95753 1.15863, 2.2174 0.719739, 2.35103  C0.312075, 2.47638 -0.128362, 2.49266 -0.54417, 2.39776  C-1.06106, 2.2817 -1.53687, 1.99249 -1.87789, 1.5871  C-2.16669, 1.24636 -2.35939, 0.825367 -2.42855, 0.384086 " /><path d="M2.45873, 8.76869e-07 C2.46054, 0.585842 2.24304, 1.16886 1.85797, 1.61038  C1.6409, 1.86112 1.37241, 2.06707 1.074, 2.21176  C0.576298, 2.45506 -0.00478933, 2.52179 -0.544705, 2.39764  C-0.894671, 2.3184 -1.22668, 2.16118 -1.50973, 1.94064 " /><path d="M-1.53868, 1.91777 C-1.81102, 1.69956 -2.03585, 1.42254 -2.19336, 1.1111 " /><path d="M-2.30643, 0.851914 L-2.32996, 0.785288 " /><path d="M-2.42855, 0.384086 C-2.55029, -0.35591 -2.30695, -1.14393 -1.7892, -1.68645  C-1.44144, -2.05692 -0.975844, -2.31439 -0.477186, -2.41198  C-0.0149191, -2.50423 0.473539, -2.45909 0.911076, -2.28371  C1.35625, -2.10699 1.7469, -1.79643 2.01944, -1.40258  C2.30419, -0.994279 2.45969, -0.497769 2.45873, 5.55112e-16 " /></g>

</svg>
