<svg xmlns="http://www.w3.org/2000/svg" viewBox="-21.407732000000003 -19.592232000000003 40.005964000000006 32.869364000000004">
<rect width="100%" height="100%" fill="white"/>
<g   fill="none"
   stroke="rgb(0, 0, 0)"
   stroke-linecap="butt"
   stroke-linejoin="miter"
   stroke-width="0.35"
   transform="scale(1, -1)"
  >
<path id= "1" d=" M -10.6066 15.4318 L -10.3945 15.5543 " />
<path id= "2" d=" M -7.07107 -5.22558 L -7.2832 -5.34805 " />
<path id= "3" d=" M -5.22442 -3.91188 L -3 -5.19615 " />
<path id= "4" d=" M 0.775581 6.48042 L 3 5.19615 " />
<path id= "5" d=" M 1.25888 -4.00173 L 1.34026 -4.11609 " />
<path id= "6" d=" M 4.90294 0.633388 L 4.99133 0.582357 " />
<path id= "7" d=" M 2.25649 -4.76689 L 2.34488 -4.81792 " />
<path id= "8" d=" M 5.61005 0.225139 L 5.69844 0.174109 " />
<path id= "9" d=" M 2.9636 -5.17514 L 3.05199 -5.22617 " />
<path id= "10" d=" M 6.31716 -0.18311 L 6.40554 -0.23414 " />
<path id= "11" d=" M 3.67071 -5.58339 L 3.7591 -5.63442 " />
<path id= "12" d=" M 7.02426 -0.591358 L 7.11265 -0.642389 " />
<path id= "13" d=" M 4.37781 -5.99163 L 4.46621 -6.04267 " />
<path id= "14" d=" M 7.73137 -0.999607 L 7.81976 -1.05064 " />
<path id= "15" d=" M 5.08492 -6.39988 L 5.17331 -6.45092 " />
<path id= "16" d=" M 8.43848 -1.40786 L 8.52687 -1.45889 " />
<path id= "17" d=" M 5.79203 -6.80813 L 5.88042 -6.85916 " />
<path id= "18" d=" M 9.14559 -1.8161 L 9.23397 -1.86713 " />
<path id= "19" d=" M 6.49914 -7.21638 L 6.58753 -7.26741 " />
<path id= "20" d=" M 9.85269 -2.22435 L 9.94108 -2.27538 " />
<path id= "21" d=" M 7.20624 -7.62463 L 7.29464 -7.67566 " />
<path id= "22" d=" M 10.5598 -2.6326 L 10.6482 -2.68363 " />
<path id= "23" d=" M 7.91335 -8.03288 L 8.00174 -8.08391 " />
<path id= "24" d=" M 11.2669 -3.04085 L 11.3553 -3.09188 " />
<path id= "25" d=" M 8.62046 -8.44113 L 8.70885 -8.49216 " />
<path id= "26" d=" M 11.974 -3.4491 L 12.0624 -3.50013 " />
<path id= "27" d=" M 9.32757 -8.84938 L 9.41596 -8.90041 " />
<path id= "28" d=" M 12.6811 -3.85735 L 12.7695 -3.90838 " />
<path id= "29" d=" M 10.0347 -9.25762 L 10.1231 -9.30866 " />
<path id= "30" d=" M 13.3882 -4.2656 L 13.4766 -4.31663 " />
<path id= "31" d=" M 10.7418 -9.66587 L 10.8302 -9.7169 " />
<path id= "32" d=" M 14.0953 -4.67385 L 14.1837 -4.72488 " />
<path id= "33" d=" M 11.4489 -10.0741 L 11.5373 -10.1252 " />
<path id= "34" d=" M 14.8024 -5.08209 L 14.8908 -5.13312 " />
<path id= "35" d=" M 12.156 -10.4824 L 12.2179 -10.5181 " />
<path id= "36" d=" M 14.1421 -10.1246 L 14.0709 -10.1657 " />
</g>
<g   fill="none"
   stroke="rgb(0, 0, 0)"
   stroke-linecap="butt"
   stroke-linejoin="miter"
   stroke-width="0.35"
   transform="scale(1, -1)"
  >
<path d="M-2.56546 11.4195 A11.4 6.58179 60 0 1 -10.6066 15.4318" />
<path d="M-10.6066 15.4318 A11.4 6.58179 60 0 1 -18.6477 2.13436" />
<path id= "3" d=" M -18.6477 2.13436 L -2.56546 11.4195 " />
<path d="M-2.16116, 11.6911 Q-1.94461, 11.5895 -1.71995, 11.4838 " /><path d="M-1.76103, 11.9417 Q-1.96489, 11.8156 -2.16116, 11.6911 " /><path d="M-1.76103 11.9417 A12 6.9282 60 0 1 -1.82176 12.3794" />
<path d="M-2.28029, 12.5497 Q-2.05518, 12.4663 -1.82176, 12.3794 " /><path d="M-1.90352, 12.8068 Q-2.09555, 12.6773 -2.28029, 12.5497 " /><path d="M-1.90352 12.8068 A12 6.9282 60 0 1 -2.00408 13.2123" />
<path d="M-2.47756, 13.3452 Q-2.24507, 13.2803 -2.00408, 13.2123 " /><path d="M-2.12573, 13.6051 Q-2.30514, 13.4742 -2.47756, 13.3452 " /><path d="M-2.12573 13.6051 A12 6.9282 60 0 1 -2.26516 13.9746" />
<path d="M-2.75108, 14.0699 Q-2.51245, 14.0236 -2.26516, 13.9746 " /><path d="M-2.42554, 14.3291 Q-2.59163, 14.1986 -2.75108, 14.0699 " /><path d="M-2.42554 14.3291 A12 6.9282 60 0 1 -2.60249 14.6589" />
<path d="M-3.0982, 14.717 Q-2.85474, 14.6891 -2.60249, 14.6589 " /><path d="M-2.80005, 14.9716 Q-2.95228, 14.8435 -3.0982, 14.717 " /><path d="M-2.80005 14.9716 A12 6.9282 60 0 1 -3.01282 15.2587" />
<path d="M-3.5156, 15.2801 Q-3.26865, 15.2703 -3.01282, 15.2587 " /><path d="M-3.24565, 15.5266 Q-3.3836, 15.4026 -3.5156, 15.2801 " /><path d="M-3.24565 15.5266 A12 6.9282 60 0 1 -3.49219 15.7682" />
<path d="M-3.99924, 15.7539 Q-3.75018, 15.7617 -3.49219, 15.7682 " /><path d="M-3.75806, 15.9887 Q-3.88144, 15.8706 -3.99924, 15.7539 " /><path d="M-3.75806 15.9887 A12 6.9282 60 0 1 -4.036 16.1824" />
<path d="M-4.54447, 16.1337 Q-4.29471, 16.1585 -4.036, 16.1824 " /><path d="M-4.33234, 16.3535 Q-4.44101, 16.243 -4.54447, 16.1337 " /><path d="M-4.33234 16.3535 A12 6.9282 60 0 1 -4.63899 16.4973" />
<path d="M-5.14604, 16.416 Q-4.89698, 16.4569 -4.63899, 16.4973 " /><path d="M-4.96295, 16.6173 Q-5.05692, 16.5161 -5.14604, 16.416 " /><path d="M-4.96295 16.6173 A12 6.9282 60 0 1 -5.29538 16.7101" />
<path d="M-5.79815, 16.598 Q-5.55121, 16.654 -5.29538, 16.7101 " /><path d="M-5.64384, 16.7777 Q-5.72324, 16.6875 -5.79815, 16.598 " /><path d="M-5.64384 16.7777 A12 6.9282 60 0 1 -5.99882 16.8185" />
<path d="M-6.49453, 16.6779 Q-6.25107, 16.748 -5.99882, 16.8185 " /><path d="M-6.36843, 16.8332 Q-6.43355, 16.7553 -6.49453, 16.6779 " /><path d="M-6.36843 16.8332 A12 6.9282 60 0 1 -6.74256 16.8215" />
<path d="M-7.22847, 16.655 Q-6.98985, 16.7379 -6.74256, 16.8215 " /><path d="M-7.12975, 16.7832 L-7.22847, 16.655 " /><path d="M-7.12975 16.7832 A12 6.9282 60 0 1 -7.51942 16.7192" />
<path d="M-7.9929, 16.5295 Q-7.76042, 16.6239 -7.51942, 16.7192 " /><path d="M-7.92046, 16.6281 L-7.9929, 16.5295 " /><path d="M-7.92046 16.6281 A12 6.9282 60 0 1 -8.32193 16.5124" />
<path d="M-8.78046, 16.3026 Q-8.55535, 16.4069 -8.32193, 16.5124 " /><path d="M-8.73296, 16.3695 L-8.78046, 16.3026 " /><path d="M-8.73296 16.3695 A12 6.9282 60 0 1 -9.14235 16.2033" />
<path d="M-9.58356, 15.9764 Q-9.36701, 16.0892 -9.14235, 16.2033 " /><path d="M-9.55942, 16.0099 L-9.58356, 15.9764 " /><path d="M-9.55942 16.0099 A12 6.9282 60 0 1 -9.97279 15.7947" />
<path d="M-10.3945, 15.5543 Q-10.1876, 15.6737 -9.97279, 15.7947 " /><path d="M-18.6477, 2.13436 Q-18.6483, 1.8954 -18.6487, 1.64389 " /><path d="M-1.71593, 11.4201 Q-2.15157, 11.4198 -2.56546, 11.4195 " /><path d="M-1.71593 11.4201 A12 6.9282 60 0 1 -1.71995 11.4838" />
<path id= "53" d=" M -0.796695 9.58294 L 0.334676 10.2361 " />
<path id= "54" d=" M -18.6487 1.64389 L -17.9416 1.23564 " />
<path id= "55" d=" M -1.71593 11.4201 L 0.334676 10.2361 " />
<path d="M0.334676 10.2361 A12 6.9282 -120 0 0 0.350966 9.8343" />
<path id= "57" d=" M 0.350966 9.8343 L 0.987362 9.46688 " />
<path d="M0.987362 9.46688 A12 6.9282 60 0 1 0.967054 9.93247" />
<path id= "59" d=" M -1.71995 11.4838 L 0.967054 9.93247 " />
<path d="M0.947964, 9.94349 Q0.938125, 10.1638 0.925976, 10.3903 " /><path id= "61" d=" M -1.76103 11.9417 L 0.925976 10.3903 " />
<path d="M0.925976 10.3903 A12 6.9282 60 0 1 0.865249 10.828" />
<path id= "63" d=" M -1.82176 12.3794 L 0.865249 10.828 " />
<path d="M0.821946, 10.853 Q0.803722, 11.0517 0.783489, 11.2554 " /><path id= "65" d=" M -1.90352 12.8068 L 0.783489 11.2554 " />
<path d="M0.783489 11.2554 A12 6.9282 60 0 1 0.682927 11.6609" />
<path id= "67" d=" M -2.00408 13.2123 L 0.682927 11.6609 " />
<path d="M0.612279, 11.7017 Q0.58761, 11.8759 0.561272, 12.0538 " /><path id= "69" d=" M -2.12573 13.6051 L 0.561272 12.0538 " />
<path d="M0.561272 12.0538 A12 6.9282 60 0 1 0.421844 12.4232" />
<path id= "71" d=" M -2.26516 13.9746 L 0.421844 12.4232 " />
<path d="M0.319921, 12.4821 L0.261466, 12.7777 " /><path id= "73" d=" M -2.42554 14.3291 L 0.261466 12.7777 " />
<path d="M0.261466 12.7777 A12 6.9282 60 0 1 0.0845145 13.1076" />
<path id= "75" d=" M -2.60249 14.6589 L 0.0845145 13.1076 " />
<path d="M-0.053705, 13.1874 L-0.113042, 13.4203 " /><path id= "77" d=" M -2.80005 14.9716 L -0.113042 13.4203 " />
<path d="M-0.113042 13.4203 A12 6.9282 60 0 1 -0.325813 13.7074" />
<path id= "79" d=" M -3.01282 15.2587 L -0.325813 13.7074 " />
<path d="M-0.506876, 13.8119 L-0.558646, 13.9753 " /><path id= "81" d=" M -3.24565 15.5266 L -0.558646 13.9753 " />
<path d="M-0.558646 13.9753 A12 6.9282 60 0 1 -0.805188 14.2168" />
<path id= "83" d=" M -3.49219 15.7682 L -0.805188 14.2168 " />
<path d="M-1.03785, 14.3511 L-1.07105, 14.4374 " /><path id= "85" d=" M -3.75806 15.9887 L -1.07105 14.4374 " />
<path d="M-1.07105 14.4374 A12 6.9282 60 0 1 -1.34899 14.631" />
<path id= "87" d=" M -4.036 16.1824 L -1.34899 14.631 " />
<path id= "88" d=" M -4.33234 16.3535 L -1.64533 14.8021 " />
<path id= "89" d=" M -4.96295 16.6173 L -4.73029 16.483 " />
<path id= "90" d=" M -5.64384 16.7777 L -5.46277 16.6732 " />
<path id= "91" d=" M -6.36843 16.8332 L -6.23021 16.7534 " />
<path id= "92" d=" M -7.12975 16.7832 L -7.02782 16.7243 " />
<path id= "93" d=" M -7.92046 16.6281 L -7.84981 16.5873 " />
<path id= "94" d=" M -8.73296 16.3695 L -8.68966 16.3445 " />
<path id= "95" d=" M -9.55942 16.0099 L -9.54033 15.9989 " />
<path d="M0.350966 9.35038 A12 6.9282 -120 0 0 0.334676 8.92974" />
<path id= "97" d=" M 0.141421 9.47136 L 0.350966 9.35038 " />
<path id= "98" d=" M 0.350966 9.8343 L 0.141421 9.47136 " />
<path d="M0.989949, 8.98146 Q0.989944, 9.22038 0.987362, 9.46688 " /><path id= "100" d=" M 0.989949 8.98146 L 0.989949 8.73651 " />
<path d="M-7.07107 -5.22558 A11.4 6.58179 60 0 1 0.989949 8.73651" />
<path d="M0.987362, 8.98296 L0.989949, 8.98146 " /><path d="M0.967054 8.49391 A12 6.9282 60 0 1 0.987362 8.98296" />
<path d="M0.950112, 8.0221 Q0.959748, 8.2543 0.967054, 8.49391 " /><path d="M0.925976, 7.98861 L0.950112, 8.0221 " /><path d="M0.865249 7.48082 A12 6.9282 60 0 1 0.925976 7.98861" />
<path d="M0.830983, 7.02598 Q0.849172, 7.2498 0.865249, 7.48082 " /><path d="M0.783489, 6.959 L0.830983, 7.02598 " /><path d="M0.682927 6.43736 A12 6.9282 60 0 1 0.783489 6.959" />
<path d="M0.63371, 6.0027 Q0.659281, 6.21656 0.682927, 6.43736 " /><path d="M0.561272, 5.90404 L0.63371, 6.0027 " /><path d="M0.421844 5.37359 A12 6.9282 60 0 1 0.561272 5.90404" />
<path d="M0.360193, 4.96209 Q0.391902, 5.16451 0.421844, 5.37359 " /><path d="M0.261466, 4.83391 L0.360193, 4.96209 " /><path d="M0.0845145 4.29973 A12 6.9282 60 0 1 0.261466 4.83391" />
<path d="M0.0130665, 3.9142 Q0.0496122, 4.1038 0.0845145, 4.29973 " /><path d="M-0.113042, 3.75889 Q-0.0479213, 3.83679 0.0130665, 3.9142 " /><path d="M-0.325813 3.22614 A12 6.9282 60 0 1 -0.113042 3.75889" />
<path d="M-0.404328, 2.86911 Q-0.364293, 3.04464 -0.325813, 3.22614 " /><path d="M-0.558646, 2.68935 Q-0.479243, 2.77963 -0.404328, 2.86911 " /><path d="M-0.805188 2.16316 A12 6.9282 60 0 1 -0.558646 2.68935" />
<path d="M-0.887969, 1.83688 Q-0.845828, 1.99723 -0.805188, 2.16316 " /><path d="M-1.07105, 1.63559 Q-0.977086, 1.73677 -0.887969, 1.83688 " /><path d="M-1.34899 1.12102 A12 6.9282 60 0 1 -1.07105 1.63559" />
<path d="M-1.4332, 0.827458 Q-1.39035, 0.971657 -1.34899, 1.12102 " /><path d="M-1.64533, 0.607748 Q-1.53666, 0.718254 -1.4332, 0.827458 " /><path d="M-1.95199 0.109766 A12 6.9282 60 0 1 -1.64533 0.607748" />
<path d="M-2.03477, -0.149437 Q-1.99263, -0.0222029 -1.95199, 0.109766 " /><path d="M-2.27595, -0.384269 Q-2.15257, -0.266107 -2.03477, -0.149437 " /><path d="M-2.60837 -0.860874 A12 6.9282 60 0 1 -2.27595 -0.384269" />
<path d="M-2.68688, -1.0844 Q-2.64685, -0.974778 -2.60837, -0.860874 " /><path d="M-2.95683, -1.33091 Q-2.81888, -1.20683 -2.68688, -1.0844 " /><path d="M-3.31182 -1.78155 A12 6.9282 60 0 1 -2.95683 -1.33091" />
<path d="M-3.38326, -1.96842 Q-3.34672, -1.87689 -3.31182, -1.78155 " /><path d="M-3.68142, -2.22306 Q-3.52919, -2.09487 -3.38326, -1.96842 " /><path d="M-4.05555 -2.64339 A12 6.9282 60 0 1 -3.68142 -2.22306" />
<path d="M-4.1172, -2.79298 L-4.05555, -2.64339 " /><path d="M-4.44274, -3.05212 Q-4.27665, -2.92165 -4.1172, -2.79298 " /><path d="M-4.83241 -3.4381 A12 6.9282 60 0 1 -4.44274 -3.05212" />
<path d="M-4.88163, -3.55016 L-4.83241, -3.4381 " /><path d="M-5.23346, -3.81011 Q-5.05406, -3.67923 -4.88163, -3.55016 " /><path d="M-5.63492 -4.15802 A12 6.9282 60 0 1 -5.23346 -3.81011" />
<path d="M-5.66919, -4.23264 L-5.63492, -4.15802 " /><path d="M-6.04596, -4.48974 Q-5.85393, -4.36031 -5.66919, -4.23264 " /><path d="M-6.45535 -4.79622 A12 6.9282 60 0 1 -6.04596 -4.48974" />
<path d="M-6.47229, -4.83387 L-6.45535, -4.79622 " /><path d="M-6.87242, -5.08445 Q-6.66856, -4.95832 -6.47229, -4.83387 " /><path d="M-7.28579 -5.34656 A12 6.9282 60 0 1 -6.87242 -5.08445" />
<path d="M-7.2832, -5.34805 L-7.28579, -5.34656 " /><path d="M-7.70488, -5.58852 Q-7.49011, -5.46751 -7.2832, -5.34805 " /><path d="M-8.11825 -5.80373 A12 6.9282 60 0 1 -7.70488 -5.58852" />
<path d="M-8.53532, -5.99709 Q-8.33304, -5.89433 -8.13734, -5.79271 " /><path d="M-8.94471 -6.16333 A12 6.9282 60 0 1 -8.53532 -5.99709" />
<path d="M-9.35574, -6.30624 Q-9.16921, -6.2219 -8.98801, -6.13833 " /><path d="M-9.75721 -6.4219 A12 6.9282 60 0 1 -9.35574 -6.30624" />
<path d="M-10.1582, -6.51297 Q-9.99099, -6.44682 -9.82785, -6.38111 " /><path d="M-10.5479 -6.57695 A12 6.9282 60 0 1 -10.1582 -6.51297" />
<path d="M-10.9351, -6.6153 L-10.6498, -6.51811 " /><path d="M-11.3092 -6.62698 A12 6.9282 60 0 1 -10.9351 -6.6153" />
<path d="M-11.6788, -6.61226 L-11.4475, -6.54718 " /><path d="M-12.0338 -6.57152 A12 6.9282 60 0 1 -11.6788 -6.61226" />
<path d="M-12.3823, -6.50385 L-12.2149, -6.46698 " /><path d="M-12.7147 -6.41109 A12 6.9282 60 0 1 -12.3823 -6.50385" />
<path d="M-13.0387, -6.29114 L-12.9474, -6.27677 " /><path d="M-13.3453 -6.14725 A12 6.9282 60 0 1 -13.0387 -6.29114" />
<path id= "166" d=" M 0.350966 9.35038 L 0.987362 8.98296 " />
<path id= "167" d=" M -1.71593 10.1137 L 0.334676 8.92974 " />
<path d="M-1.71995 10.0453 A12 6.9282 60 0 1 -1.71593 10.1137" />
<path id= "169" d=" M -1.71995 10.0453 L 0.967054 8.49391 " />
<path d="M-18.6477, 0.82797 Q-18.6483, 0.58901 -18.6487, 0.337497 " /><path id= "171" d=" M -18.6477 0.82797 L -2.56546 10.1131 " />
<path d="M-1.71593, 10.1137 Q-2.15157, 10.1134 -2.56546, 10.1131 " /><path id= "173" d=" M -18.6447 0.273735 L -18.6256 0.262714 " />
<path d="M-18.6487 0.337497 A12 6.9282 60 0 1 -18.6447 0.273735" />
<path id= "175" d=" M 0.950112 8.0221 L -2.16116 9.8184 " />
<path d="M-1.71995, 10.0453 Q-1.94461, 9.93113 -2.16116, 9.8184 " /><path id= "177" d=" M -1.76103 9.53995 L 0.925976 7.98861 " />
<path d="M-2.16116, 9.8184 Q-1.96489, 9.68166 -1.76103, 9.53995 " /><path d="M-1.82176 9.03217 A12 6.9282 60 0 1 -1.76103 9.53995" />
<path id= "180" d=" M -1.82176 9.03217 L 0.865249 7.48082 " />
<path id= "181" d=" M 0.830983 7.02598 L -2.28029 8.82228 " />
<path d="M-1.82176, 9.03217 Q-2.05518, 8.92663 -2.28029, 8.82228 " /><path id= "183" d=" M -1.90352 8.51034 L 0.783489 6.959 " />
<path d="M-2.28029, 8.82228 Q-2.09555, 8.66901 -1.90352, 8.51034 " /><path d="M-2.00408 7.98871 A12 6.9282 60 0 1 -1.90352 8.51034" />
<path id= "186" d=" M -2.00408 7.98871 L 0.682927 6.43736 " />
<path id= "187" d=" M 0.63371 6.0027 L -2.47756 7.79899 " />
<path d="M-2.00408, 7.98871 Q-2.24507, 7.89339 -2.47756, 7.79899 " /><path id= "189" d=" M -2.12573 7.45539 L 0.561272 5.90404 " />
<path d="M-2.47756, 7.79899 Q-2.30514, 7.63009 -2.12573, 7.45539 " /><path d="M-2.26516 6.92493 A12 6.9282 60 0 1 -2.12573 7.45539" />
<path id= "192" d=" M -2.26516 6.92493 L 0.421844 5.37359 " />
<path id= "193" d=" M 0.360193 4.96209 L -2.75108 6.75839 " />
<path d="M-2.26516, 6.92493 Q-2.51245, 6.84134 -2.75108, 6.75839 " /><path id= "195" d=" M -2.42554 6.38525 L 0.261466 4.83391 " />
<path d="M-2.75108, 6.75839 Q-2.59163, 6.5749 -2.42554, 6.38525 " /><path d="M-2.60249 5.85107 A12 6.9282 60 0 1 -2.42554 6.38525" />
<path id= "198" d=" M -2.60249 5.85107 L 0.0845145 4.29973 " />
<path id= "199" d=" M 0.0130665 3.9142 L -3.0982 5.71049 " />
<path d="M-2.60249, 5.85107 Q-2.85474, 5.78063 -3.0982, 5.71049 " /><path id= "201" d=" M -2.80005 5.31023 L -0.113042 3.75889 " />
<path d="M-3.0982, 5.71049 Q-2.95228, 5.51362 -2.80005, 5.31023 " /><path d="M-3.01282 4.77749 A12 6.9282 60 0 1 -2.80005 5.31023" />
<path id= "204" d=" M -3.01282 4.77749 L -0.325813 3.22614 " />
<path id= "205" d=" M -0.404328 2.86911 L -3.5156 4.6654 " />
<path d="M-3.01282, 4.77749 Q-3.26865, 4.72147 -3.5156, 4.6654 " /><path id= "207" d=" M -3.24565 4.2407 L -0.558646 2.68935 " />
<path d="M-3.5156, 4.6654 Q-3.3836, 4.45646 -3.24565, 4.2407 " /><path d="M-3.49219 3.71451 A12 6.9282 60 0 1 -3.24565 4.2407" />
<path id= "210" d=" M -3.49219 3.71451 L -0.805188 2.16316 " />
<path id= "211" d=" M -0.887969 1.83688 L -3.99924 3.63317 " />
<path d="M-3.49219, 3.71451 Q-3.75018, 3.67406 -3.99924, 3.63317 " /><path id= "213" d=" M -3.75806 3.18693 L -1.07105 1.63559 " />
<path d="M-3.99924, 3.63317 Q-3.88144, 3.4136 -3.75806, 3.18693 " /><path d="M-4.036 2.67237 A12 6.9282 60 0 1 -3.75806 3.18693" />
<path id= "216" d=" M -4.036 2.67237 L -1.34899 1.12102 " />
<path id= "217" d=" M -1.4332 0.827458 L -4.54447 2.62375 " />
<path d="M-4.036, 2.67237 Q-4.29471, 2.64849 -4.54447, 2.62375 " /><path id= "219" d=" M -4.33234 2.15909 L -1.64533 0.607748 " />
<path d="M-4.54447, 2.62375 Q-4.44101, 2.39508 -4.33234, 2.15909 " /><path d="M-4.63899 1.66111 A12 6.9282 60 0 1 -4.33234 2.15909" />
<path id= "222" d=" M -4.63899 1.66111 L -1.95199 0.109766 " />
<path id= "223" d=" M -2.03477 -0.149437 L -5.14604 1.64686 " />
<path d="M-4.63899, 1.66111 Q-4.89698, 1.65463 -5.14604, 1.64686 " /><path id= "225" d=" M -4.96295 1.16707 L -2.27595 -0.384269 " />
<path d="M-5.14604, 1.64686 Q-5.05692, 1.41072 -4.96295, 1.16707 " /><path d="M-5.29538 0.69047 A12 6.9282 60 0 1 -4.96295 1.16707" />
<path id= "228" d=" M -5.29538 0.69047 L -2.60837 -0.860874 " />
<path id= "229" d=" M -2.68688 -1.0844 L -5.79815 0.711896 " />
<path d="M-5.29538, 0.69047 Q-5.55121, 0.702052 -5.79815, 0.711896 " /><path id= "231" d=" M -5.64384 0.220434 L -2.95683 -1.33091 " />
<path d="M-5.79815, 0.711896 Q-5.72324, 0.469997 -5.64384, 0.220434 " /><path d="M-5.99882 -0.230204 A12 6.9282 60 0 1 -5.64384 0.220434" />
<path id= "234" d=" M -5.99882 -0.230204 L -3.31182 -1.78155 " />
<path id= "235" d=" M -3.38326 -1.96842 L -6.49453 -0.172124 " />
<path d="M-5.99882, -0.230204 Q-6.25107, -0.200064 -6.49453, -0.172124 " /><path id= "237" d=" M -6.36843 -0.671714 L -3.68142 -2.22306 " />
<path d="M-6.49453, -0.172124 Q-6.43355, -0.418036 -6.36843, -0.671714 " /><path d="M-6.74256 -1.09205 A12 6.9282 60 0 1 -6.36843 -0.671714" />
<path id= "240" d=" M -6.74256 -1.09205 L -4.05555 -2.64339 " />
<path id= "241" d=" M -4.1172 -2.79298 L -7.22847 -0.996691 " />
<path d="M-6.74256, -1.09205 Q-6.98985, -1.04303 -7.22847, -0.996691 " /><path id= "243" d=" M -7.12975 -1.50078 L -4.44274 -3.05212 " />
<path d="M-7.22847, -0.996691 Q-7.181, -1.24482 -7.12975, -1.50078 " /><path d="M-7.51942 -1.88675 A12 6.9282 60 0 1 -7.12975 -1.50078" />
<path id= "246" d=" M -7.51942 -1.88675 L -4.83241 -3.4381 " />
<path id= "247" d=" M -4.88163 -3.55016 L -7.9929 -1.75386 " />
<path d="M-7.51942, -1.88675 Q-7.76042, -1.81874 -7.9929, -1.75386 " /><path id= "249" d=" M -7.92046 -2.25877 L -5.23346 -3.81011 " />
<path d="M-7.9929, -1.75386 Q-7.95841, -2.0024 -7.92046, -2.25877 " /><path d="M-8.32193 -2.60668 A12 6.9282 60 0 1 -7.92046 -2.25877" />
<path id= "252" d=" M -8.32193 -2.60668 L -5.63492 -4.15802 " />
<path id= "253" d=" M -5.66919 -4.23264 L -8.78046 -2.43635 " />
<path d="M-8.32193, -2.60668 Q-8.55535, -2.51971 -8.78046, -2.43635 " /><path id= "255" d=" M -8.73296 -2.9384 L -6.04596 -4.48974 " />
<path d="M-8.78046, -2.43635 Q-8.75828, -2.68348 -8.73296, -2.9384 " /><path d="M-9.14235 -3.24488 A12 6.9282 60 0 1 -8.73296 -2.9384" />
<path id= "258" d=" M -9.14235 -3.24488 L -6.45535 -4.79622 " />
<path id= "259" d=" M -6.47229 -4.83387 L -9.58356 -3.03758 " />
<path d="M-9.14235, -3.24488 Q-9.36701, -3.13919 -9.58356, -3.03758 " /><path id= "261" d=" M -9.55942 -3.53311 L -6.87242 -5.08445 " />
<path d="M-9.58356, -3.03758 Q-9.57292, -3.28149 -9.55942, -3.53311 " /><path d="M-9.97279 -3.79522 A12 6.9282 60 0 1 -9.55942 -3.53311" />
<path id= "264" d=" M -9.97279 -3.79522 L -7.28579 -5.34656 " />
<path d="M-9.97279, -3.79522 Q-10.1876, -3.67122 -10.3945, -3.55176 " /><path id= "266" d=" M -10.3919 -4.03718 L -7.70488 -5.58852 " />
<path d="M-10.3945, -3.55176 Q-10.3945, -3.79067 -10.3919, -4.03718 " /><path d="M-10.8053 -4.25239 A12 6.9282 60 0 1 -10.3919 -4.03718" />
<path id= "269" d=" M -10.8053 -4.25239 L -8.11825 -5.80373 " />
<path d="M-10.8053, -4.25239 Q-11.0091, -4.11067 -11.2054, -3.97394 " /><path id= "271" d=" M -11.2223 -4.44575 L -8.53532 -5.99709 " />
<path d="M-11.2054, -3.97394 Q-11.215, -4.20614 -11.2223, -4.44575 " /><path d="M-11.6317 -4.61199 A12 6.9282 60 0 1 -11.2223 -4.44575" />
<path id= "274" d=" M -11.6317 -4.61199 L -8.94471 -6.16333 " />
<path d="M-11.6317, -4.61199 Q-11.8237, -4.45332 -12.0085, -4.30005 " /><path id= "276" d=" M -12.0427 -4.75489 L -9.35574 -6.30624 " />
<path d="M-12.0085, -4.30005 Q-12.0267, -4.52387 -12.0427, -4.75489 " /><path d="M-12.4442 -4.87056 A12 6.9282 60 0 1 -12.0427 -4.75489" />
<path id= "279" d=" M -12.4442 -4.87056 L -9.75721 -6.4219 " />
<path d="M-12.4442, -4.87056 Q-12.6236, -4.69586 -12.796, -4.52696 " /><path id= "281" d=" M -12.8453 -4.96163 L -10.1582 -6.51297 " />
<path d="M-12.796, -4.52696 Q-12.8216, -4.74082 -12.8453, -4.96163 " /><path d="M-13.2349 -5.02561 A12 6.9282 60 0 1 -12.8453 -4.96163" />
<path id= "284" d=" M -13.2349 -5.02561 L -10.5479 -6.57695 " />
<path d="M-13.2349, -5.02561 Q-13.401, -4.83595 -13.5605, -4.65247 " /><path id= "286" d=" M -13.6221 -5.06396 L -10.9351 -6.6153 " />
<path d="M-13.5605, -4.65247 Q-13.5922, -4.85489 -13.6221, -5.06396 " /><path d="M-13.9963 -5.07564 A12 6.9282 60 0 1 -13.6221 -5.06396" />
<path id= "289" d=" M -13.9963 -5.07564 L -11.3092 -6.62698 " />
<path d="M-13.9963, -5.07564 Q-14.1485, -4.87225 -14.2944, -4.67538 " /><path id= "291" d=" M -14.3659 -5.06091 L -11.6788 -6.61226 " />
<path d="M-14.2944, -4.67538 Q-14.331, -4.86498 -14.3659, -5.06091 " /><path d="M-14.7208 -5.02018 A12 6.9282 60 0 1 -14.3659 -5.06091" />
<path id= "294" d=" M -14.7208 -5.02018 L -12.0338 -6.57152 " />
<path d="M-14.7208, -5.02018 Q-14.8588, -4.80441 -14.9908, -4.59547 " /><path id= "296" d=" M -15.0693 -4.95251 L -12.3823 -6.50385 " />
<path d="M-14.9908, -4.59547 Q-15.0308, -4.77101 -15.0693, -4.95251 " /><path d="M-15.4017 -4.85975 A12 6.9282 60 0 1 -15.0693 -4.95251" />
<path id= "299" d=" M -15.4017 -4.85975 L -12.7147 -6.41109 " />
<path d="M-15.4017, -4.85975 Q-15.5251, -4.63308 -15.6429, -4.41351 " /><path id= "301" d=" M -15.7257 -4.73979 L -13.0387 -6.29114 " />
<path d="M-15.6429, -4.41351 Q-15.685, -4.57386 -15.7257, -4.73979 " /><path d="M-16.0323 -4.59591 A12 6.9282 60 0 1 -15.7257 -4.73979" />
<path id= "304" d=" M -16.0323 -4.59591 L -13.3453 -6.14725 " />
<path d="M-16.0323, -4.59591 Q-16.141, -4.35991 -16.2445, -4.13125 " /><path id= "306" d=" M -16.3287 -4.42481 L -16.0323 -4.59591 " />
<path d="M-16.2445, -4.13125 Q-16.2873, -4.27545 -16.3287, -4.42481 " /><path d="M-16.6066 -4.23118 A12 6.9282 60 0 1 -16.3287 -4.42481" />
<path d="M-16.6066, -4.23118 Q-16.7006, -3.98754 -16.7897, -3.7514 " /><path id= "310" d=" M -16.8725 -4.01061 L -16.6398 -4.14493 " />
<path d="M-16.7897, -3.7514 Q-16.8318, -3.87864 -16.8725, -4.01061 " /><path d="M-17.119 -3.7691 A12 6.9282 60 0 1 -16.8725 -4.01061" />
<path d="M-17.119, -3.7691 Q-17.1984, -3.51954 -17.2733, -3.27764 " /><path id= "314" d=" M -17.3519 -3.50116 L -17.1708 -3.6057 " />
<path d="M-17.2733, -3.27764 Q-17.3134, -3.38726 -17.3519, -3.50116 " /><path d="M-17.5646 -3.2141 A12 6.9282 60 0 1 -17.3519 -3.50116" />
<path d="M-17.5646, -3.2141 Q-17.6297, -2.96042 -17.6907, -2.71451 " /><path id= "318" d=" M -17.7622 -2.90138 L -17.624 -2.98118 " />
<path d="M-17.6907, -2.71451 Q-17.7273, -2.80603 -17.7622, -2.90138 " /><path d="M-17.9391 -2.57153 A12 6.9282 60 0 1 -17.7622 -2.90138" />
<path d="M-17.9391, -2.57153 Q-17.9904, -2.31558 -18.0379, -2.06744 " /><path id= "322" d=" M -18.0995 -2.21704 L -17.9976 -2.27588 " />
<path d="M-18.0379, -2.06744 L-18.0995, -2.21704 " /><path d="M-18.2389 -1.84758 A12 6.9282 60 0 1 -18.0995 -2.21704" />
<path d="M-18.2389, -1.84758 Q-18.2769, -1.59121 -18.3114, -1.34267 " /><path id= "326" d=" M -18.3606 -1.45473 L -18.2899 -1.49552 " />
<path d="M-18.3114, -1.34267 L-18.3606, -1.45473 " /><path d="M-18.4612 -1.04922 A12 6.9282 60 0 1 -18.3606 -1.45473" />
<path d="M-18.4612, -1.04922 Q-18.4865, -0.7943 -18.5087, -0.547176 " /><path id= "330" d=" M -18.5429 -0.621801 L -18.4996 -0.646802 " />
<path d="M-18.5087, -0.547176 L-18.5429, -0.621801 " /><path d="M-18.6036 -0.18414 A12 6.9282 60 0 1 -18.5429 -0.621801" />
<path d="M-18.6036, -0.18414 Q-18.6171, 0.0674802 -18.6278, 0.311386 " /><path d="M-18.6278, 0.311386 L-18.6447, 0.273735 " /><path d="M-18.6477 0.82797 A11.4 6.58179 60 0 1 -2.56546 10.1131" />
<path d="M4.24264 2.44949 A6 3.4641 60 0 1 3 5.19615" />
<path d="M-3 -5.19615 A6 3.4641 60 0 1 4.24264 2.44949" />
<path d="M3.85991 -0.220971 A2.45873 1.41955 60 0 1 3.83328 0.113644" />
<path d="M2.96569, -1.79102 Q2.81909, -2.06764 2.63965, -2.31131 " /><path d="M3.31041, -1.53693 C3.00514, -2.27959 2.46631, -2.93696 1.93601, -3.24143 " /><path d="M1.81822 -3.37654 A2.45873 1.41955 60 0 1 3.85991 -0.220971" />
<path d="M3.57351, -0.577551 C3.53295, -0.891505 3.44223, -1.22041 3.31041, -1.53693 " /><path d="M4.15856, -0.301954 C4.14089, -0.00147449 4.06815, 0.265664 3.94545, 0.476626 " /><path d="M4.02515, 0.775517 C4.36385, 0.544824 4.57564, 0.111366 4.6196, -0.426973 " /><path d="M4.15856, -0.301955 C4.17546, -0.584181 4.14383, -0.895507 4.06714, -1.21256  C3.91668, -1.8424 3.58288, -2.49056 3.16634, -2.97992  C2.96044, -3.22322 2.73578, -3.42829 2.50941, -3.58095  C2.09546, -3.86177 1.67805, -3.96069 1.35634, -3.85881 " /><path d="M4.05348, 0.893755 C4.58114, 0.745764 4.92025, 0.209434 4.95489, -0.517895 " /><path d="M4.95489, -0.517895 C4.98523, -1.06277 4.84811, -1.70555 4.57898, -2.30738  C4.30939, -2.91544 3.90792, -3.47691 3.46792, -3.8714  C3.02445, -4.27211 2.54563, -4.49974 2.14143, -4.50772  C1.80784, -4.51644 1.52591, -4.37834 1.34026, -4.11609 " /><path d="M4.6196, -0.426974 C4.67955, -1.10009 4.46984, -1.93027 4.07848, -2.63946  C3.88316, -2.9965 3.64536, -3.32269 3.38887, -3.58937  C3.12646, -3.86275 2.84487, -4.07342 2.57263, -4.20293  C2.02677, -4.46669 1.52789, -4.38713 1.25888, -4.00173 " /><path d="M1.25888, -4.00173 L1.23793, -3.97108 " /><path d="M4.99133, 0.582357 C5.41564, 0.341062 5.67383, -0.181554 5.70104, -0.842006 " /><path d="M4.28697, 0.795474 Q4.6295, 0.790543 4.90294, 0.633387 " /><path d="M4.90294, 0.633387 C5.32726, 0.392089 5.58544, -0.130532 5.61265, -0.790974 " /><path d="M5.70104, -0.842006 C5.73713, -1.57244 5.48499, -2.46175 5.0424, -3.21106  C4.76757, -3.68067 4.42348, -4.09391 4.06223, -4.39338  C3.8673, -4.55501 3.67218, -4.6819 3.47686, -4.77404  C3.0485, -4.97707 2.64299, -4.99175 2.34488, -4.81792 " /><path d="M5.69843, 0.174109 C6.12275, -0.0671867 6.38094, -0.589805 6.40814, -1.25025 " /><path d="M5.61265, -0.790974 C5.64507, -1.46101 5.43741, -2.26477 5.05936, -2.97146  C4.81859, -3.425 4.51163, -3.83727 4.17987, -4.15738  C3.94294, -4.38566 3.70247, -4.56271 3.45845, -4.68852  C3.00469, -4.92341 2.57072, -4.95042 2.25649, -4.76689 " /><path d="M2.25649, -4.76689 Q2.08726, -4.66898 1.96719, -4.49826 " /><path d="M5.27285, 0.355531 Q5.45399, 0.31516 5.61005, 0.225139 " /><path d="M5.61005, 0.225139 C6.03436, -0.0161597 6.29254, -0.538777 6.31976, -1.19922 " /><path d="M6.40814, -1.25025 C6.44424, -1.98068 6.1921, -2.86999 5.74951, -3.61931  C5.47468, -4.08892 5.13059, -4.50215 4.76934, -4.80162  C4.57442, -4.96325 4.3793, -5.09014 4.18398, -5.18229  C3.75562, -5.38532 3.3501, -5.4 3.05199, -5.22617 " /><path d="M6.40554, -0.23414 C6.82985, -0.475435 7.08805, -0.998052 7.11525, -1.6585 " /><path d="M6.31976, -1.19922 C6.35218, -1.86926 6.14452, -2.67302 5.76646, -3.37971  C5.5257, -3.83325 5.21874, -4.24552 4.88697, -4.56563  C4.65004, -4.79391 4.40957, -4.97096 4.16556, -5.09677  C3.7118, -5.33166 3.27783, -5.35867 2.9636, -5.17514 " /><path d="M2.9636, -5.17514 Q2.80686, -5.0845 2.69206, -4.93103 " /><path d="M5.97996, -0.0527178 Q6.1611, -0.0930891 6.31716, -0.18311 " /><path d="M6.31716, -0.18311 C6.74147, -0.424408 6.99965, -0.947025 7.02686, -1.60747 " /><path d="M7.11525, -1.6585 C7.15135, -2.38893 6.89921, -3.27824 6.45662, -4.02755  C6.18179, -4.49716 5.8377, -4.91039 5.47645, -5.20987  C5.28154, -5.3715 5.08642, -5.49838 4.8911, -5.59053  C4.46273, -5.79357 4.05721, -5.80825 3.7591, -5.63442 " /><path d="M7.11265, -0.642389 C7.53696, -0.883684 7.79516, -1.4063 7.82236, -2.06675 " /><path d="M7.02686, -1.60747 C7.05929, -2.27751 6.85162, -3.08127 6.47357, -3.78796  C6.2328, -4.24149 5.92584, -4.65377 5.59408, -4.97388  C5.35715, -5.20216 5.11668, -5.37921 4.87266, -5.50502  C4.4189, -5.73991 3.98493, -5.76691 3.67071, -5.58339 " /><path d="M3.67071, -5.58339 Q3.51396, -5.49274 3.39916, -5.33928 " /><path d="M6.68706, -0.460966 Q6.86821, -0.501338 7.02426, -0.591359 " /><path d="M7.02426, -0.591359 C7.44858, -0.832657 7.70676, -1.35527 7.73397, -2.01572 " /><path d="M7.82236, -2.06675 C7.85845, -2.79718 7.60632, -3.68648 7.16373, -4.43579  C6.88891, -4.9054 6.54481, -5.31864 6.18357, -5.61811  C5.98865, -5.77974 5.79354, -5.90662 5.59823, -5.99877  C5.16985, -6.20182 4.76432, -6.2165 4.46621, -6.04267 " /><path d="M7.81976, -1.05064 C8.24407, -1.29193 8.50226, -1.81455 8.52947, -2.475 " /><path d="M7.73397, -2.01572 C7.7664, -2.68576 7.55873, -3.48952 7.18068, -4.19621  C6.93991, -4.64974 6.63295, -5.06202 6.30119, -5.38213  C6.06426, -5.61041 5.82378, -5.78746 5.57977, -5.91327  C5.12601, -6.14816 4.69204, -6.17516 4.37782, -5.99163 " /><path d="M4.37782, -5.99163 Q4.22107, -5.90099 4.10627, -5.74753 " /><path d="M7.39417, -0.869215 Q7.57531, -0.909586 7.73137, -0.999607 " /><path d="M7.73137, -0.999607 C8.15569, -1.24091 8.41387, -1.76353 8.44108, -2.42397 " /><path d="M8.52947, -2.475 C8.56556, -3.20542 8.31343, -4.09473 7.87084, -4.84404  C7.59602, -5.31365 7.25193, -5.72688 6.89068, -6.02635  C6.69577, -6.18798 6.50066, -6.31486 6.30535, -6.40701  C5.87697, -6.61006 5.47143, -6.62475 5.17331, -6.45092 " /><path d="M8.52686, -1.45889 C8.95117, -1.70018 9.20937, -2.2228 9.23657, -2.88325 " /><path d="M8.44108, -2.42397 C8.4735, -3.09401 8.26584, -3.89777 7.88778, -4.60446  C7.64702, -5.05799 7.34006, -5.47027 7.00829, -5.79038  C6.77136, -6.01866 6.53089, -6.19571 6.28687, -6.32152  C5.83311, -6.55641 5.39915, -6.58341 5.08492, -6.39988 " /><path d="M5.08492, -6.39988 Q4.92818, -6.30924 4.81338, -6.15578 " /><path d="M8.10128, -1.27746 Q8.28242, -1.31783 8.43848, -1.40786 " /><path d="M8.43848, -1.40786 C8.86279, -1.64915 9.12097, -2.17177 9.14819, -2.83222 " /><path d="M9.23657, -2.88325 C9.27267, -3.61367 9.02053, -4.50297 8.57795, -5.25228  C8.30313, -5.72189 7.95904, -6.13512 7.5978, -6.4346  C7.40289, -6.59622 7.20778, -6.7231 7.01248, -6.81525  C6.58409, -7.01831 6.17854, -7.033 5.88042, -6.85916 " /><path d="M9.23397, -1.86713 C9.65828, -2.10843 9.91648, -2.63105 9.94368, -3.2915 " /><path d="M9.14819, -2.83222 C9.18061, -3.50226 8.97294, -4.30602 8.59489, -5.01271  C8.35412, -5.46624 8.04716, -5.87852 7.7154, -6.19863  C7.47847, -6.42691 7.23799, -6.60396 6.99397, -6.72977  C6.54022, -6.96465 6.10625, -6.99166 5.79203, -6.80813 " /><path d="M5.79203, -6.80813 Q5.63529, -6.71749 5.52049, -6.56403 " /><path d="M8.80839, -1.68571 Q8.98953, -1.72608 9.14559, -1.8161 " /><path d="M9.14559, -1.8161 C9.5699, -2.0574 9.82808, -2.58002 9.85529, -3.24047 " /><path d="M9.94368, -3.2915 C9.97978, -4.02192 9.72764, -4.91121 9.28506, -5.66052  C9.01024, -6.13013 8.66615, -6.54337 8.30491, -6.84284  C8.11001, -7.00446 7.9149, -7.13134 7.7196, -7.22349  C7.29121, -7.42656 6.88566, -7.44125 6.58753, -7.26741 " /><path d="M9.94108, -2.27538 C10.3654, -2.51668 10.6236, -3.0393 10.6508, -3.69975 " /><path d="M9.85529, -3.24047 C9.88772, -3.91051 9.68005, -4.71427 9.302, -5.42096  C9.06123, -5.87449 8.75427, -6.28677 8.42251, -6.60688  C8.18557, -6.83516 7.94509, -7.01221 7.70108, -7.13803  C7.24732, -7.3729 6.81336, -7.39991 6.49914, -7.21638 " /><path d="M6.49914, -7.21638 Q6.34239, -7.12574 6.22759, -6.97228 " /><path d="M9.51549, -2.09396 Q9.69664, -2.13433 9.85269, -2.22435 " /><path d="M9.85269, -2.22435 C10.277, -2.46565 10.5352, -2.98827 10.5624, -3.64872 " /><path d="M10.6508, -3.69975 C10.6869, -4.43017 10.4348, -5.31946 9.99217, -6.06877  C9.71735, -6.53838 9.37326, -6.95161 9.01202, -7.25109  C8.81712, -7.4127 8.62202, -7.53959 8.42672, -7.63173  C7.99832, -7.83481 7.59276, -7.8495 7.29464, -7.67566 " /><path d="M10.6482, -2.68363 C11.0725, -2.92493 11.3307, -3.44755 11.3579, -4.108 " /><path d="M10.5624, -3.64872 C10.5948, -4.31876 10.3872, -5.12252 10.0091, -5.82921  C9.76834, -6.28274 9.46137, -6.69502 9.12961, -7.01513  C8.89267, -7.24341 8.6522, -7.42046 8.40818, -7.54628  C7.95442, -7.78115 7.52047, -7.80815 7.20625, -7.62463 " /><path d="M7.20625, -7.62463 Q7.0495, -7.53399 6.9347, -7.38053 " /><path d="M10.2226, -2.50221 Q10.4037, -2.54258 10.5598, -2.6326 " /><path d="M10.5598, -2.6326 C10.9841, -2.8739 11.2423, -3.39652 11.2695, -4.05696 " /><path d="M11.3579, -4.108 C11.394, -4.83841 11.1419, -5.72771 10.6993, -6.47701  C10.4245, -6.94662 10.0804, -7.35986 9.71913, -7.65933  C9.52423, -7.82095 9.32913, -7.94783 9.13384, -8.03998  C8.70544, -8.24306 8.29987, -8.25775 8.00174, -8.08391 " /><path d="M11.3553, -3.09188 C11.7796, -3.33318 12.0378, -3.85579 12.065, -4.51624 " /><path d="M11.2695, -4.05696 C11.3019, -4.72701 11.0943, -5.53077 10.7162, -6.23745  C10.4754, -6.69099 10.1685, -7.10327 9.83672, -7.42338  C9.59978, -7.65166 9.3593, -7.82871 9.11529, -7.95453  C8.66153, -8.1894 8.22757, -8.2164 7.91335, -8.03288 " /><path d="M7.91335, -8.03288 Q7.75661, -7.94224 7.64181, -7.78877 " /><path d="M10.9297, -2.91046 Q11.1109, -2.95083 11.2669, -3.04085 " /><path d="M11.2669, -3.04085 C11.6912, -3.28215 11.9494, -3.80477 11.9766, -4.46521 " /><path d="M12.065, -4.51624 C12.1011, -5.24666 11.849, -6.13595 11.4064, -6.88526  C11.1316, -7.35486 10.7875, -7.7681 10.4262, -8.06758  C10.2313, -8.22919 10.0363, -8.35607 9.84096, -8.44822  C9.41255, -8.65131 9.00699, -8.666 8.70885, -8.49216 " /><path d="M12.0624, -3.50013 C12.4867, -3.74142 12.7449, -4.26404 12.7721, -4.92449 " /><path d="M11.9766, -4.46521 C12.009, -5.13525 11.8014, -5.93901 11.4233, -6.6457  C11.1826, -7.09924 10.8756, -7.51152 10.5438, -7.83163  C10.3069, -8.05991 10.0664, -8.23696 9.82239, -8.36277  C9.36864, -8.59765 8.93468, -8.62465 8.62046, -8.44113 " /><path d="M8.62046, -8.44113 Q8.46372, -8.35049 8.34892, -8.19702 " /><path d="M11.6368, -3.31871 Q11.818, -3.35908 11.974, -3.4491 " /><path d="M11.974, -3.4491 C12.3983, -3.6904 12.6565, -4.21302 12.6837, -4.87346 " /><path d="M12.7721, -4.92449 C12.8082, -5.65491 12.5561, -6.54419 12.1135, -7.2935  C11.8387, -7.7631 11.4946, -8.17634 11.1334, -8.47582  C10.9385, -8.63743 10.7434, -8.76431 10.5481, -8.85646  C10.1197, -9.05955 9.7141, -9.07425 9.41596, -8.90041 " /><path d="M12.7695, -3.90838 C13.1938, -4.14967 13.452, -4.67229 13.4792, -5.33274 " /><path d="M12.6837, -4.87346 C12.7161, -5.5435 12.5085, -6.34726 12.1304, -7.05395  C11.8897, -7.50749 11.5827, -7.91977 11.2509, -8.23988  C11.014, -8.46816 10.7735, -8.64521 10.5295, -8.77102  C10.0757, -9.0059 9.64179, -9.0329 9.32757, -8.84938 " /><path d="M9.32757, -8.84938 Q9.17082, -8.75873 9.05602, -8.60527 " /><path d="M12.3439, -3.72696 Q12.5251, -3.76733 12.6811, -3.85735 " /><path d="M12.6811, -3.85735 C13.1054, -4.09865 13.3636, -4.62126 13.3908, -5.28171 " /><path d="M13.4792, -5.33274 C13.5153, -6.06315 13.2632, -6.95244 12.8206, -7.70174  C12.5458, -8.17135 12.2017, -8.58458 11.8405, -8.88406  C11.6456, -9.04567 11.4505, -9.17255 11.2552, -9.2647  C10.8268, -9.4678 10.4212, -9.48251 10.1231, -9.30866 " /><path d="M13.4766, -4.31663 C13.9009, -4.55792 14.1591, -5.08054 14.1863, -5.74099 " /><path d="M13.3908, -5.28171 C13.4233, -5.95175 13.2156, -6.75551 12.8375, -7.4622  C12.5968, -7.91574 12.2898, -8.32802 11.958, -8.64813  C11.7211, -8.87641 11.4806, -9.05346 11.2366, -9.17928  C10.7828, -9.41415 10.3489, -9.44115 10.0347, -9.25762 " /><path d="M13.3882, -4.2656 C13.8125, -4.50689 14.0707, -5.02951 14.0979, -5.68996 " /><path d="M14.1863, -5.74099 C14.2224, -6.4714 13.9703, -7.36069 13.5277, -8.10999  C13.2529, -8.5796 12.9088, -8.99283 12.5476, -9.29231  C12.3527, -9.45392 12.1576, -9.5808 11.9623, -9.67295  C11.5339, -9.87605 11.1283, -9.89075 10.8302, -9.7169 " /><path d="M14.1837, -4.72488 C14.608, -4.96617 14.8662, -5.48879 14.8934, -6.14924 " /><path d="M14.0979, -5.68996 C14.1304, -6.36 13.9227, -7.16376 13.5446, -7.87045  C13.3039, -8.32399 12.9969, -8.73627 12.6651, -9.05638  C12.4282, -9.28466 12.1877, -9.46171 11.9437, -9.58753  C11.49, -9.8224 11.056, -9.8494 10.7418, -9.66587 " /><path d="M10.7418, -9.66587 Q10.585, -9.57523 10.4702, -9.42177 " /><path d="M13.7581, -4.54345 Q13.9393, -4.58382 14.0953, -4.67385 " /><path d="M14.0953, -4.67385 C14.5197, -4.91514 14.7778, -5.43776 14.805, -6.09821 " /><path d="M14.8934, -6.14924 C14.9295, -6.87965 14.6774, -7.76893 14.2348, -8.51823  C13.96, -8.98783 13.6159, -9.40107 13.2547, -9.70055  C13.0598, -9.86215 12.8647, -9.98903 12.6695, -10.0812  C12.241, -10.2843 11.8354, -10.299 11.5373, -10.1252 " /><path d="M14.8908, -5.13312 C15.3151, -5.37442 15.5733, -5.89704 15.6005, -6.55749 " /><path d="M14.805, -6.09821 C14.8375, -6.76825 14.6298, -7.57201 14.2518, -8.2787  C14.011, -8.73224 13.704, -9.14451 13.3723, -9.46463  C13.1353, -9.69291 12.8948, -9.86996 12.6508, -9.99578  C12.1971, -10.2306 11.7631, -10.2576 11.4489, -10.0741 " /><path d="M11.4489, -10.0741 Q11.2921, -9.98348 11.1773, -9.83002 " /><path d="M14.4652, -4.9517 Q14.6464, -4.99207 14.8024, -5.08209 " /><path d="M14.8024, -5.08209 C15.2268, -5.32339 15.4849, -5.84601 15.5122, -6.50646 " /><path d="M15.6005, -6.55749 C15.6366, -7.2879 15.3845, -8.17718 14.9419, -8.92648  C14.6671, -9.39608 14.323, -9.80932 13.9618, -10.1088  C13.4969, -10.4968 13.0064, -10.6904 12.6095, -10.6485 " /><path d="M15.5122, -6.50646 C15.5446, -7.1765 15.3369, -7.98026 14.9589, -8.68695  C14.7181, -9.14049 14.4111, -9.55277 14.0794, -9.87288  C13.8424, -10.1012 13.6019, -10.2782 13.3579, -10.404  C12.9042, -10.6389 12.4702, -10.6659 12.156, -10.4824 " /><path d="M12.156, -10.4824 Q11.9993, -10.3917 11.8845, -10.2383 " /><path d="M15.8392, -6.9735 C15.8402, -6.47895 15.7002, -6.06045 15.4452, -5.79928 " /><path d="M12.2179 -10.5181 A3 1.73205 60 0 1 12.6095 -10.6485" />
<path id= "440" d=" M 15.8392 -6.9735 L 15.8392 -7.18517 " />
<path d="M15.8392, -6.9735 C15.844, -7.70694 15.522, -8.60176 15.0205, -9.27635  C14.7369, -9.66238 14.4017, -9.97537 14.0709, -10.1657 " /><path d="M14.0709, -10.1657 Q13.8463, -10.2952 13.6329, -10.3485 " /><path d="M14.1421 -10.1246 A2.4 1.38564 60 0 1 15.8392 -7.18517" />
</g>

</svg>
