<svg xmlns="http://www.w3.org/2000/svg" viewBox="-6.5806424 -7.0280024 11.2938648 12.9183748">
<rect width="100%" height="100%" fill="white"/>
<g   fill="none"
   stroke="rgb(0, 0, 0)"
   stroke-linecap="butt"
   stroke-linejoin="miter"
   stroke-width="0.35"
   transform="scale(1, -1)"
  >
<path id= "1" d=" M 1.91045 5.23068 L 3.77207 2.58226 " />
<path id= "2" d=" M 3.8223 2.17008 L 1.96069 -2.62795 " />
<path id= "3" d=" M 1.77049 -2.84984 L -1.95274 -4.99945 " />
</g>
<g   fill="none"
   stroke="rgb(0, 0, 0)"
   stroke-linecap="butt"
   stroke-linejoin="miter"
   stroke-width="0.35"
   transform="scale(1, -1)"
  >
<path d="M-0.282843 2.28619 A0.4 0.23094 -120 0 0 -4.50989e-16 2.77609" />
<path id= "2" d=" M -0.282843 2.26432 L -0.282843 2.28619 " />
<path id= "3" d=" M -1.6957 0.528577 L -1.67929 0.527112 " />
<path d="M-2.11991 -0.00511027 A0.4 0.23094 -120 0 0 -1.6957 0.528577" />
<path id= "5" d=" M -1.97854 -2.08421 L -1.96214 -2.06381 " />
<path d="M-2.11996 -2.4487 A0.4 0.23094 -120 0 0 -1.97854 -2.08421" />
<path d="M1.91045 5.23068 A0.44 0.347017 -144.896 0 1 1.81993 5.31285" />
<path d="M3.78023 2.23815 A0.44 0.347017 -144.896 0 1 3.77207 2.58226" />
<path d="M3.77207 2.58226 A0.44 0.347017 -144.896 0 1 3.68154 2.66443" />
<path d="M3.8223 2.17008 A0.44 0.0929829 158.794 0 1 3.68154 2.30517" />
<path d="M1.86161 -2.64842 A0.44 0.0929829 158.794 0 1 1.96069 -2.62795" />
<path d="M1.96069 -2.62795 A0.44 0.0929829 158.794 0 1 1.81993 -2.49286" />
<path d="M1.86161 -2.64842 A0.44 0.254034 120 0 0 1.77049 -2.84984" />
<path d="M1.77049 -2.84984 A0.44 0.254034 120 0 0 1.55049 -2.82805" />
<path d="M-1.95274 -4.99945 A0.44 0.254034 120 0 0 -2.17274 -4.97766" />
<path d="M-2.1575 -4.98602 A0.44 0.347017 35.1039 0 0 -2.44218 -4.95359" />
<path d="M-0.129092, -1.7657 L-0.142887, -1.72983 " /><path d="M-1.60566 -2.11434 A2.65 1.52998 60 0 1 -1.60174 -2.11771" />
<path id= "19" d=" M -1.8885 -1.95104 L -1.60566 -2.11434 " />
<path d="M-1.96214, -2.30289 Q-1.92314, -2.11605 -1.8885, -1.95104 " /><path id= "21" d=" M -1.97854 -2.3233 L -1.96214 -2.30289 " />
<path d="M-1.97854 -2.3233 A0.4 0.23094 -120 0 0 -2.31996 -2.46852" />
<path d="M-2.31996 -2.46852 A0.4 0.23094 -120 0 0 -2.26138 -1.92091" />
<path id= "24" d=" M -2.24498 -1.90051 L -2.26138 -1.92091 " />
<path d="M-2.17134, -1.54866 Q-2.20598, -1.71367 -2.24498, -1.90051 " /><path id= "26" d=" M -2.17134 -1.54866 L -1.8885 -1.71196 " />
<path d="M-1.8885, -1.71196 Q-1.92314, -1.87697 -1.96214, -2.06381 " /><path d="M-1.8885 -0.138716 A2.65 1.52998 60 0 1 -1.8885 -1.71196" />
<path id= "29" d=" M -2.17134 0.0245835 L -1.8885 -0.138716 " />
<path d="M-2.24498, -0.0385734 Q-2.20598, -0.00499305 -2.17134, 0.0245835 " /><path id= "31" d=" M -2.26138 -0.0371084 L -2.24498 -0.0385734 " />
<path d="M-2.26138 -0.0371084 A0.4 0.23094 -120 0 0 -2.31996 -0.0190261" />
<path d="M-2.31996 -0.0190261 A0.4 0.23094 -120 0 0 -1.97854 0.691876" />
<path id= "34" d=" M -1.96214 0.690411 L -1.97854 0.691876 " />
<path d="M-1.8885, 0.753568 Q-1.92314, 0.723992 -1.96214, 0.690411 " /><path id= "36" d=" M -1.8885 0.753568 L -1.60566 0.590269 " />
<path d="M-1.60566, 0.590269 Q-1.64029, 0.560692 -1.67929, 0.527112 " /><path d="M-0.42573 2.05812 A2.65 1.52998 60 0 1 -1.60566 0.590269" />
<path d="M-0.282843, 2.26432 Q-0.358788, 2.15491 -0.42573, 2.05812 " /><path id= "40" d=" M -0.708572 2.22142 L -0.42573 2.05812 " />
<path d="M-0.565685, 2.42762 Q-0.64163, 2.31821 -0.708572, 2.22142 " /><path id= "42" d=" M -0.565685 2.44949 L -0.565685 2.42762 " />
<path d="M-0.565685 2.44949 A0.4 0.23094 -120 0 0 -0.0828427 2.9592" />
<path d="M-0.0828427 2.9592 A0.4 0.23094 -120 0 0 8.32667e-16 2.77609" />
<path id= "45" d=" M 3.35041e-16 2.75422 L 3.41822e-16 2.77609 " />
<path d="M-0.142887, 2.54802 Q-0.0759448, 2.64481 6.24778e-13, 2.75422 " /><path id= "47" d=" M -0.142887 2.54802 L 0.139956 2.38472 " />
<path d="M1.03312 2.446 A2.65 1.52998 60 0 1 0.139956 2.38472" />
<path d="M1.39626, 2.31908 L1.31989, 2.27933 " /><path id= "50" d=" M 1.03704 2.44263 L 1.31989 2.27933 " />
<path d="M1.39645, 2.62949 Q1.20556, 2.53035 1.03704, 2.44263 " /><path id= "52" d=" M 1.41285 2.6499 L 1.39645 2.62949 " />
<path d="M1.41285 2.6499 A0.4 0.23094 -120 0 0 1.75336 2.79564" />
<path id= "54" d=" M 3.68154 2.66443 L 2.29561 3.46459 " />
<path id= "55" d=" M 1.81993 5.31285 L 0.434 6.11302 " />
<path d="M2.29561 3.46459 A6.076 1.28401 141.206 0 0 0.434 6.11302" />
<path id= "57" d=" M 2.05066 3.15987 L 2.29561 3.46459 " />
<path id= "58" d=" M 2.05066 3.15987 L 2.11758 3.12124 " />
<path id= "59" d=" M 0.189051 5.80829 L 0.434 6.11302 " />
<path id= "60" d=" M 1.81993 -2.49286 L 0.434 -1.69269 " />
<path id= "61" d=" M 3.68154 2.30517 L 2.29561 3.10533 " />
<path d="M0.434 -1.69269 A6.076 4.79199 84.8961 0 0 2.29561 3.10533" />
<path id= "63" d=" M 1.86161 -2.64842 L 1.57877 -2.48512 " />
<path id= "64" d=" M 0.189051 -1.67081 L 0.434 -1.69269 " />
<path id= "65" d=" M 0.189051 -1.67081 L 1.57498 -2.47098 " />
<path d="M1.57498 -2.47098 A0.04 0.00845299 -21.206 0 0 1.58778 -2.48326" />
<path d="M1.58778 -2.48326 A0.04 0.00845299 -21.206 0 0 1.57877 -2.48512" />
<path id= "68" d=" M 2.05066 3.12721 L 2.29561 3.10533 " />
<path id= "69" d=" M 0.361803 6.0232 L 0.164556 6.13708 " />
<path d="M0.164556 6.13708 A6.076 3.50798 180 0 1 -3.55867 3.98748" />
<path id= "71" d=" M 0.164556 5.81048 L 0.164556 6.13708 " />
<path id= "72" d=" M 0.164556 5.81048 L 0.189721 5.79595 " />
<path id= "73" d=" M -3.55867 3.66088 L -3.55867 3.98748 " />
<path id= "74" d=" M -3.55867 3.66088 L -2.17274 2.86071 " />
<path d="M-2.17274 2.86071 A0.04 0.023094 120 0 0 -2.14445 2.81172" />
<path id= "76" d=" M -2.17274 -4.97766 L -3.55867 -4.17749 " />
<path id= "77" d=" M 1.55049 -2.82805 L 0.164556 -2.02788 " />
<path d="M-3.55867 -4.17749 A6.076 3.50798 -2.24465e-14 0 0 0.164556 -2.02788" />
<path id= "79" d=" M -3.55867 -3.85089 L -3.55867 -4.17749 " />
<path id= "80" d=" M 0.164556 -1.70129 L 0.164556 -2.02788 " />
<path id= "81" d=" M 0.164556 -1.70129 L 1.55049 -2.50145 " />
<path d="M1.55049 -2.50145 A0.04 0.023094 -60 0 1 1.57049 -2.50343" />
<path d="M1.57049 -2.50343 A0.04 0.023094 -60 0 1 1.57877 -2.48512" />
<path id= "84" d=" M -5.49248 -1.25962 L -5.68972 -1.14574 " />
<path d="M-3.82811 3.65228 A6.076 4.79199 -95.1039 0 1 -5.68972 -1.14574" />
<path id= "86" d=" M -3.58316 3.63041 L -3.82811 3.65228 " />
<path id= "87" d=" M -3.58316 3.63041 L -2.19723 2.83024 " />
<path d="M-2.19723 2.83024 A0.04 0.00845299 158.794 0 1 -2.14445 2.81172" />
<path id= "89" d=" M -5.44478 -1.16762 L -5.68972 -1.14574 " />
<path id= "90" d=" M -5.44478 -1.16762 L -4.05885 -1.96779 " />
<path d="M-4.05885 -1.96779 A0.04 0.00845299 158.794 0 1 -4.00607 -1.98631" />
<path id= "92" d=" M -2.44218 -4.95359 L -3.82811 -4.15342 " />
<path d="M-5.68972 -1.505 A6.076 1.28401 -38.794 0 1 -3.82811 -4.15342" />
<path id= "94" d=" M -5.44478 -1.20028 L -5.68972 -1.505 " />
<path id= "95" d=" M -5.44478 -1.20028 L -4.05885 -2.00045 " />
<path d="M-4.05885 -2.00045 A0.04 0.031547 -144.896 0 1 -4.00607 -1.98631" />
<path id= "97" d=" M -3.58316 -3.8487 L -3.82811 -4.15342 " />
<path id= "98" d=" M -3.58316 -3.8487 L -3.55867 -3.86285 " />
<path d="M0.350612 -1.80871 A3 1.73205 60 0 1 0.379863 -1.78098" />
<path d="M-1.96214 -2.30289 A3 1.73205 60 0 1 -1.85709 -2.38744" />
<path d="M-2.24498 -0.0385734 A3 1.73205 60 0 1 -2.24498 -1.90051" />
<path d="M-0.565685 2.42762 A3 1.73205 60 0 1 -1.96214 0.690411" />
<path d="M1.39645 2.62949 A3 1.73205 60 0 1 -2.82552e-14 2.75422" />
<path d="M-0.142887 -1.72983 A2.65 1.52998 60 0 1 0.195491 -1.43689" />
<path d="M-1.8885 -1.95104 A2.65 1.52998 60 0 1 -1.75073 -2.04917" />
<path d="M-1.75073 -2.04917 A2.65 1.52998 60 0 1 -1.38087 -2.16718" />
<path d="M-2.17134 0.0245835 A2.65 1.52998 60 0 1 -2.17134 -1.54866" />
<path d="M-0.708572 2.22142 A2.65 1.52998 60 0 1 -1.8885 0.753568" />
<path d="M1.03704 2.44263 A2.65 1.52998 60 0 1 0.89927 2.54076" />
<path d="M0.89927 2.54076 A2.65 1.52998 60 0 1 -0.142887 2.54802" />
<path d="M2.05066 3.15987 A6.076 1.28401 141.206 0 0 0.189051 5.80829" />
<path d="M0.189051 -1.67081 A6.076 4.79199 84.8961 0 0 2.05066 3.12721" />
<path d="M0.164556 5.81048 A6.076 3.50798 180 0 1 -3.55867 3.66088" />
<path d="M-3.55867 -3.85089 A6.076 3.50798 -2.24465e-14 0 0 0.164556 -1.70129" />
<path d="M-3.58316 3.63041 A6.076 4.79199 -95.1039 0 1 -5.44478 -1.16762" />
<path d="M-5.44478 -1.20028 A6.076 1.28401 -38.794 0 1 -3.58316 -3.8487" />
</g>

</svg>
