<svg xmlns="http://www.w3.org/2000/svg" viewBox="-3.9034383999999998 -6.5499284 4.8068767999999995 13.0998568">
<rect width="100%" height="100%" fill="white"/>
<g   fill="none"
   stroke="rgb(0, 0, 0)"
   stroke-linecap="butt"
   stroke-linejoin="miter"
   stroke-width="0.35"
   transform="scale(1, -1)"
  >
<path id= "1" d=" M -0.602073 -2.65 L -0.592051 -2.66736 " />
<path id= "2" d=" M -3 4.33013 L -3 3.98372 " />
<path id= "3" d=" M -3 -4.33013 L -3 -3.98372 " />
</g>
<g   fill="none"
   stroke="rgb(0, 0, 0)"
   stroke-linecap="butt"
   stroke-linejoin="miter"
   stroke-width="0.35"
   transform="scale(1, -1)"
  >
<path id= "1" d=" M 0 5.26543 L 0 3 " />
<path id= "2" d=" M 0 2.63272 L 0 5.26543 " />
<path id= "3" d=" M 0 -2.63272 L 0 2.63272 " />
<path id= "4" d=" M 0 -5.26543 L 0 -2.63272 " />
<path id= "5" d=" M 0 -3 L 0 -5.26543 " />
<path d="M-3.58519e-16, -2.63272 C-3.67516e-16, -2.73145 -3.73998e-16, -2.82567 -3.7642e-16, -2.89291  C-3.78769e-16, -2.95966 -3.76997e-16, -2.99774 -3.71526e-16, -2.99808 " /><path d="M0 5.26543 A0.44 0.381051 180 0 1 -0.44 5.64649" />
<path d="M0 2.63272 A0.44 0.381051 180 0 1 -0.44 3.01377" />
<path d="M-6.93889e-18, 2.63272 C-0.000381522, 2.63272 -0.0475001, 2.63272 -0.128873, 2.63272  C-0.210786, 2.63272 -0.32454, 2.63272 -0.44, 2.63272 " /><path d="M-6.93889e-18, -2.63272 C-0.000381522, -2.63272 -0.0475001, -2.63272 -0.128873, -2.63272  C-0.210786, -2.63272 -0.32454, -2.63272 -0.44, -2.63272 " /><path d="M0 -2.63272 A0.44 0.381051 180 0 0 -0.44 -3.01377" />
<path d="M0 -5.26543 A0.44 0.381051 180 0 0 -0.44 -5.64649" />
<path d="M-0.471013, 2.66736 L-0.493879, 2.63272 " /><path d="M-0.493879, -2.63272 L-0.471013, -2.66736 " /><path id= "15" d=" M -0.44 3.01377 L -2.4 3.01377 " />
<path id= "16" d=" M -0.44 5.64649 L -2.4 5.64649 " />
<path d="M-2.4 3.01377 A6.076 3.038 180 0 0 -3 4.33013" />
<path d="M-3 4.33013 A6.076 3.038 180 0 0 -2.4 5.64649" />
<path id= "19" d=" M -2.4 2.66736 L -2.4 3.01377 " />
<path id= "20" d=" M -2.4 2.66736 L -0.44 2.66736 " />
<path d="M-0.44 2.66736 A0.04 0.034641 -1.66525e-29 0 0 -0.4 2.63272" />
<path id= "22" d=" M -0.44 -2.63272 L -2.4 -2.63272 " />
<path id= "23" d=" M -0.44 2.63272 L -2.4 2.63272 " />
<path d="M-2.4 -2.63272 A6.076 6.076 0 0 0 -2.4 2.63272" /><path id= "25" d=" M -0.44 -5.64649 L -2.4 -5.64649 " />
<path id= "26" d=" M -0.44 -3.01377 L -2.4 -3.01377 " />
<path d="M-2.4 -5.64649 A6.076 3.038 1.40132e-15 0 0 -3 -4.33013" />
<path d="M-3 -4.33013 A6.076 3.038 1.40132e-15 0 0 -2.4 -3.01377" />
<path id= "29" d=" M -2.4 -2.66736 L -2.4 -3.01377 " />
<path id= "30" d=" M -2.4 -2.66736 L -0.44 -2.66736 " />
<path d="M-0.44 -2.66736 A0.04 0.034641 1.85335e-28 0 1 -0.4 -2.63272" />
<path id= "32" d=" M -0.592051 2.66736 L -0.602073 2.65 " />
<path d="M-0.602073, 2.63272 Q-0.602073, 2.64995 -0.602073, 2.65 " /><path d="M-0.602073, -2.65 Q-0.602073, -2.64995 -0.602073, -2.63272 " /><path d="M-2.4 2.66736 A6.076 3.038 180 0 0 -3 3.98372" />
<path d="M-3 -3.98372 A6.076 3.038 1.40132e-15 0 0 -2.4 -2.66736" />
</g>

</svg>
