<svg xmlns="http://www.w3.org/2000/svg" viewBox="-6.5499284 -5.9034384 13.0998568 11.8068768">
<rect width="100%" height="100%" fill="white"/>
<g   fill="none"
   stroke="rgb(0, 0, 0)"
   stroke-linecap="butt"
   stroke-linejoin="miter"
   stroke-width="0.35"
   transform="scale(1, -1)"
  >
<path d="M5.30008, 0.02 C5.39382, 0.0741219 5.48314, 0.125691 5.54686, 0.162481  C5.6101, 0.198995 5.64616, 0.219813 5.64649, 0.22 " /><path d="M2.63272, 4.6 C2.63272, 4.70824 2.63272, 4.81138 2.63272, 4.88496  C2.63272, 4.95799 2.63272, 4.99963 2.63272, 5 " /><path d="M-2.63272, -4.6 C-2.63272, -4.70824 -2.63272, -4.81138 -2.63272, -4.88496  C-2.63272, -4.95799 -2.63272, -4.99963 -2.63272, -5 " /><path d="M-5.30008, -0.02 C-5.39382, -0.0741219 -5.48314, -0.125691 -5.54686, -0.162481  C-5.6101, -0.198995 -5.64616, -0.219813 -5.64649, -0.22 " /><path d="M2.77488, -1.1402 Q2.61232, -1.04635 2.46867, -0.963409 " /><path id= "6" d=" M 2.79808 -1.15359 L 2.77488 -1.1402 " />
<path d="M2.79808 -1.15359 A0.4 0.4 0 0 0 2.39808 -1.84641" /><path id= "8" d=" M 2.37488 -1.83302 L 2.39808 -1.84641 " />
<path d="M2.06867, -1.65623 Q2.21232, -1.73917 2.37488, -1.83302 " /><path d="M0.4, -2.97321 Q0.4, -2.78551 0.4, -2.61964 " /><path id= "11" d=" M 0.4 -3 L 0.4 -2.97321 " />
<path d="M0.4 -3 A0.4 0.4 0 0 0 -0.4 -3" /><path id= "13" d=" M -0.4 -2.97321 L -0.4 -3 " />
<path d="M-0.4, -2.61964 Q-0.4, -2.78551 -0.4, -2.97321 " /><path d="M-2.37488, -1.83302 Q-2.21232, -1.73917 -2.06867, -1.65623 " /><path id= "16" d=" M -2.39808 -1.84641 L -2.37488 -1.83302 " />
<path d="M-2.39808 -1.84641 A0.4 0.4 0 0 0 -2.79808 -1.15359" /><path id= "18" d=" M -2.77488 -1.1402 L -2.79808 -1.15359 " />
<path d="M-2.46867, -0.963409 Q-2.61232, -1.04635 -2.77488, -1.1402 " /><path d="M-2.77488, 1.1402 Q-2.61232, 1.04635 -2.46867, 0.963409 " /><path id= "21" d=" M -2.79808 1.15359 L -2.77488 1.1402 " />
<path d="M-2.79808 1.15359 A0.4 0.4 0 0 0 -2.39808 1.84641" /><path id= "23" d=" M -2.37488 1.83302 L -2.39808 1.84641 " />
<path d="M-2.06867, 1.65623 Q-2.21232, 1.73917 -2.37488, 1.83302 " /><path d="M-0.4, 2.97321 Q-0.4, 2.78551 -0.4, 2.61964 " /><path id= "26" d=" M -0.4 3 L -0.4 2.97321 " />
<path d="M-0.4 3 A0.4 0.4 0 0 0 0.4 3" /><path id= "28" d=" M 0.4 2.97321 L 0.4 3 " />
<path d="M0.4, 2.61964 Q0.4, 2.78551 0.4, 2.97321 " /><path d="M2.37488, 1.83302 Q2.21232, 1.73917 2.06867, 1.65623 " /><path id= "31" d=" M 2.39808 1.84641 L 2.37488 1.83302 " />
<path d="M2.39808 1.84641 A0.4 0.4 0 0 0 2.79808 1.15359" /><path id= "33" d=" M 2.77488 1.1402 L 2.79808 1.15359 " />
<path d="M2.46867, 0.963409 Q2.61232, 1.04635 2.77488, 1.1402 " /><path d="M5.64649, 0.22 C5.5872, 0.322692 5.52791, 0.425383 5.46862, 0.528075  C5.40777, 0.63346 5.34693, 0.738845 5.28609, 0.84423  C5.16238, 1.0585 5.03703, 1.27561 4.91004, 1.49557  C4.71835, 1.82757 4.52505, 2.16238 4.33013, 2.5  C4.07069, 2.94935 3.81204, 3.39736 3.56062, 3.83283  C3.43558, 4.04939 3.31259, 4.26242 3.19164, 4.47192  C3.13235, 4.57462 3.07306, 4.67731 3.01377, 4.78 " /><path id= "36" d=" M 5.30008 0.02 L 5.64649 0.22 " />
<path d="M5.30008, 0.02 Q5.29693, 0.018186 5.26543, -2.14585e-15 " /><path id= "38" d=" M 2.66736 4.58 L 3.01377 4.78 " />
<path d="M2.66736, 4.58 Q2.66422, 4.57819 2.63272, 4.56 " /><path d="M3.01377, -4.78 C3.07306, -4.67731 3.13235, -4.57462 3.19164, -4.47192  C3.31259, -4.26242 3.43558, -4.04939 3.56062, -3.83283  C3.81204, -3.39736 4.07069, -2.94935 4.33013, -2.5  C4.52505, -2.16238 4.71835, -1.82757 4.91004, -1.49557  C5.03703, -1.27561 5.16238, -1.0585 5.28609, -0.84423  C5.34693, -0.738845 5.40777, -0.63346 5.46862, -0.528075  C5.52791, -0.425383 5.5872, -0.322692 5.64649, -0.22 " /><path id= "41" d=" M 2.66736 -4.58 L 3.01377 -4.78 " />
<path d="M2.66736, -4.58 Q2.66422, -4.57819 2.63272, -4.56 " /><path id= "43" d=" M 5.30008 -0.02 L 5.64649 -0.22 " />
<path d="M5.30008, -0.02 Q5.29693, -0.018186 5.26543, -3.81292e-15 " /><path d="M2.63272, 5 C2.51414, 5 2.39556, 5 2.27698, 5  C2.15529, 5 2.03361, 5 1.91192, 5  C1.78762, 5 1.66332, 5 1.53902, 5  C1.03618, 5 0.518867, 5 -6.50591e-13, 5  C-0.389846, 5 -0.776452, 5 -1.15982, 5  C-1.4138, 5 -1.6645, 5 -1.91192, 5  C-2.03361, 5 -2.15529, 5 -2.27698, 5  C-2.39556, 5 -2.51414, 5 -2.63272, 5 " /><path id= "46" d=" M 2.63272 4.6 L 2.63272 5 " />
<path d="M2.63272, 4.6 Q2.63272, 4.59637 2.63272, 4.56 " /><path id= "48" d=" M -2.63272 4.6 L -2.63272 5 " />
<path d="M-2.63272, 4.6 Q-2.63272, 4.59637 -2.63272, 4.56 " /><path d="M-2.63272, -5 C-2.51414, -5 -2.39556, -5 -2.27698, -5  C-2.15529, -5 -2.03361, -5 -1.91192, -5  C-1.6645, -5 -1.4138, -5 -1.15982, -5  C-0.776452, -5 -0.389846, -5 6.5048e-13, -5  C0.518867, -5 1.03618, -5 1.53902, -5  C1.66332, -5 1.78762, -5 1.91192, -5  C2.03361, -5 2.15529, -5 2.27698, -5  C2.39556, -5 2.51414, -5 2.63272, -5 " /><path id= "51" d=" M -2.63272 -4.6 L -2.63272 -5 " />
<path d="M-2.63272, -4.6 Q-2.63272, -4.59637 -2.63272, -4.56 " /><path id= "53" d=" M 2.63272 -4.6 L 2.63272 -5 " />
<path d="M2.63272, -4.6 Q2.63272, -4.59637 2.63272, -4.56 " /><path d="M-3.01377, 4.78 C-3.07306, 4.67731 -3.13235, 4.57462 -3.19164, 4.47192  C-3.31259, 4.26242 -3.43558, 4.04939 -3.56062, 3.83283  C-3.81204, 3.39736 -4.07069, 2.94935 -4.33013, 2.5  C-4.52505, 2.16238 -4.71835, 1.82757 -4.91004, 1.49557  C-5.03703, 1.27561 -5.16238, 1.0585 -5.28609, 0.84423  C-5.34693, 0.738845 -5.40777, 0.63346 -5.46862, 0.528075  C-5.52791, 0.425383 -5.5872, 0.322692 -5.64649, 0.22 " /><path id= "56" d=" M -2.66736 4.58 L -3.01377 4.78 " />
<path d="M-2.66736, 4.58 Q-2.66422, 4.57819 -2.63272, 4.56 " /><path id= "58" d=" M -5.30008 0.02 L -5.64649 0.22 " />
<path d="M-5.30008, 0.02 Q-5.29693, 0.018186 -5.26543, 2.61076e-15 " /><path d="M-5.64649, -0.22 C-5.5872, -0.322692 -5.52791, -0.425383 -5.46862, -0.528075  C-5.40777, -0.63346 -5.34693, -0.738845 -5.28609, -0.84423  C-5.16238, -1.0585 -5.03703, -1.27561 -4.91004, -1.49557  C-4.71835, -1.82757 -4.52505, -2.16238 -4.33013, -2.5  C-4.07069, -2.94935 -3.81204, -3.39736 -3.56062, -3.83283  C-3.43558, -4.04939 -3.31259, -4.26242 -3.19164, -4.47192  C-3.13235, -4.57462 -3.07306, -4.67731 -3.01377, -4.78 " /><path id= "61" d=" M -5.30008 -0.02 L -5.64649 -0.22 " />
<path d="M-5.30008, -0.02 Q-5.29693, -0.018186 -5.26543, 1.36176e-15 " /><path id= "63" d=" M -2.66736 -4.58 L -3.01377 -4.78 " />
<path d="M-2.66736, -4.58 Q-2.66422, -4.57819 -2.63272, -4.56 " /><path d="M3 0 A3 3 0 0 1 2.77488 1.1402" /><path d="M2.77488 -1.1402 A3 3 0 0 1 3 -7.34788e-16" /><path d="M0.4 -2.97321 A3 3 0 0 1 2.37488 -1.83302" /><path d="M-2.37488 -1.83302 A3 3 0 0 1 -0.4 -2.97321" /><path d="M-2.77488 1.1402 A3 3 0 0 1 -2.77488 -1.1402" /><path d="M-0.4 2.97321 A3 3 0 0 1 -2.37488 1.83302" /><path d="M2.37488 1.83302 A3 3 0 0 1 0.4 2.97321" /><path d="M2.46867 -0.963409 A2.65 2.65 0 0 1 2.65 -6.49063e-16" /><path d="M0.4 -2.61964 A2.65 2.65 0 0 1 2.06867 -1.65623" /><path d="M-2.06867 -1.65623 A2.65 2.65 0 0 1 -0.4 -2.61964" /><path d="M-2.46867 0.963409 A2.65 2.65 0 0 1 -2.46867 -0.963409" /><path d="M-0.4 2.61964 A2.65 2.65 0 0 1 -2.06867 1.65623" /><path d="M2.06867 1.65623 A2.65 2.65 0 0 1 0.4 2.61964" /><path d="M2.65 0 A2.65 2.65 0 0 1 2.46867 0.963409" /><path d="M5.30008, 0.02 C5.24079, 0.122692 5.1815, 0.225383 5.12221, 0.328075  C5.06136, 0.43346 5.00052, 0.538845 4.93968, 0.64423  C4.81597, 0.858501 4.69062, 1.07561 4.56363, 1.29557  C4.37194, 1.62757 4.17864, 1.96238 3.98372, 2.3  C3.72428, 2.74935 3.46563, 3.19736 3.21421, 3.63283  C3.08917, 3.84939 2.96618, 4.06242 2.84523, 4.27192  C2.78594, 4.37462 2.72665, 4.47731 2.66736, 4.58 " /><path d="M2.66736, -4.58 Q2.75629, -4.42596 2.84523, -4.27192  Q2.93649, -4.11385 3.02776, -3.95577  Q3.21332, -3.63436 3.40381, -3.30443  Q3.69133, -2.80642 3.98372, -2.3  Q4.2761, -1.79358 4.56363, -1.29557  Q4.75411, -0.965637 4.93968, -0.64423  Q5.03094, -0.486152 5.12221, -0.328075  Q5.21114, -0.174038 5.30008, -0.02 " /><path d="M2.63272, 4.6 C2.51414, 4.6 2.39556, 4.6 2.27698, 4.6  C2.15529, 4.6 2.03361, 4.6 1.91192, 4.6  C1.78762, 4.6 1.66332, 4.6 1.53902, 4.6  C1.03618, 4.6 0.518867, 4.6 -6.50813e-13, 4.6  C-0.389846, 4.6 -0.776452, 4.6 -1.15982, 4.6  C-1.4138, 4.6 -1.6645, 4.6 -1.91192, 4.6  C-2.03361, 4.6 -2.15529, 4.6 -2.27698, 4.6  C-2.39556, 4.6 -2.51414, 4.6 -2.63272, 4.6 " /><path d="M-2.63272, -4.6 Q-2.45485, -4.6 -2.27698, -4.6  Q-2.09445, -4.6 -1.91192, -4.6  Q-1.54079, -4.6 -1.15982, -4.6  Q-0.584769, -4.6 6.50591e-13, -4.6  Q0.584769, -4.6 1.15982, -4.6  Q1.54079, -4.6 1.91192, -4.6  Q2.09445, -4.6 2.27698, -4.6  Q2.45485, -4.6 2.63272, -4.6 " /><path d="M-2.66736, 4.58 C-2.72665, 4.47731 -2.78594, 4.37462 -2.84523, 4.27192  C-2.96618, 4.06242 -3.08917, 3.84939 -3.21421, 3.63283  C-3.46563, 3.19736 -3.72428, 2.74935 -3.98372, 2.3  C-4.17864, 1.96238 -4.37194, 1.62757 -4.56363, 1.29557  C-4.69062, 1.07561 -4.81597, 0.858501 -4.93968, 0.64423  C-5.00052, 0.538845 -5.06136, 0.43346 -5.12221, 0.328075  C-5.1815, 0.225383 -5.24079, 0.122692 -5.30008, 0.02 " /><path d="M-5.30008, -0.02 C-5.24079, -0.122692 -5.1815, -0.225383 -5.12221, -0.328075  C-5.06136, -0.43346 -5.00052, -0.538845 -4.93968, -0.64423  C-4.81597, -0.858501 -4.69062, -1.07561 -4.56363, -1.29557  C-4.37194, -1.62757 -4.17864, -1.96238 -3.98372, -2.3  C-3.72428, -2.74935 -3.46563, -3.19736 -3.21421, -3.63283  C-3.08917, -3.84939 -2.96618, -4.06242 -2.84523, -4.27192  C-2.78594, -4.37462 -2.72665, -4.47731 -2.66736, -4.58 " /></g>

</svg>
