<svg xmlns="http://www.w3.org/2000/svg" viewBox="-7.0440124 -7.3619324 11.825284799999999 13.4174648">
<rect width="100%" height="100%" fill="white"/>
<g   fill="none"
   stroke="rgb(0, 0, 0)"
   stroke-linecap="butt"
   stroke-linejoin="miter"
   stroke-width="0.35"
   transform="scale(1, -1)"
  >
<path d="M-1.25632 -0.0752457 A2.45873 1.41955 60 0 1 -0.35055 2.20994" />
<g transform = "rotate(60, -2.26274, 1.30639)">
<ellipse cx ="-2.26274" cy ="1.30639" rx ="3.375"  ry ="1.94856"/>
</g>
<path d="M-0.35055 2.20994 A2.45873 1.41955 60 0 1 -0.562957 3.04887" />
<path d="M-0.562957, 3.04887 C-0.741791, 3.39569 -1.06417, 3.58484 -1.45527, 3.57523  C-1.86237, 3.56864 -2.34019, 3.34652 -2.77798, 2.96493  C-3.24379, 2.56243 -3.65989, 1.98472 -3.92811, 1.37598  C-4.21904, 0.722765 -4.33663, 0.0414121 -4.25589, -0.491027 " /><path d="M-3.30552, -1.46237 C-3.32937, -1.46429 -3.35857, -1.4636 -3.39311, -1.4603  C-3.51395, -1.44875 -3.65852, -1.40142 -3.78065, -1.31906  C-3.90116, -1.23886 -4.00209, -1.13053 -4.08344, -0.99409 " /><path d="M-4.08344, -0.99409 C-4.17104, -0.847264 -4.23002, -0.668163 -4.25589, -0.491027 " /><path d="M-1.25632, -0.0752457 C-1.51331, -0.440165 -1.83073, -0.764628 -2.16583, -1.00328  C-2.54369, -1.27362 -2.94261, -1.43406 -3.30552, -1.46237 " /><path d="M-0.576568, 3.07425 C-0.97569, 3.12462 -1.45606, 2.95953 -1.90268, 2.62498  C-2.27933, 2.34518 -2.6297, 1.9489 -2.89354, 1.51169  C-3.2074, 0.995197 -3.39604, 0.425409 -3.41881, -0.0497968  C-3.4429, -0.501043 -3.31913, -0.863453 -3.08166, -1.051 " /><path d="M-0.624256, 3.15284 C-1.04988, 3.26042 -1.59236, 3.09646 -2.09176, 2.71782  C-2.48056, 2.42612 -2.84029, 2.01047 -3.10511, 1.55517  C-3.40734, 1.03935 -3.58374, 0.4768 -3.59729, 0.0111857  C-3.61435, -0.472252 -3.45683, -0.845902 -3.1739, -1.00665 " /><path d="M-3.1739, -1.00665 C-2.95427, -1.13445 -2.66122, -1.13379 -2.34716, -1.00267  C-1.97842, -0.85089 -1.58312, -0.517821 -1.25632, -0.0752457 " /><path d="M1.27279 3.34764 A5 2.88675 60 0 1 0.79912 5.1154" />
<path d="M0.79912 1.03292 A5 2.88675 60 0 1 1.27279 3.34764" />
<path d="M-2.26274 -2.77609 A5 2.88675 60 0 1 0.79912 1.03292" />
<path d="M-5.3246 -2.50261 A5 2.88675 60 0 1 -2.26274 -2.77609" />
<path d="M-5.3246 1.57987 A5 2.88675 60 0 1 -5.3246 -2.50261" />
<path d="M-2.26274 5.38888 A5 2.88675 60 0 1 -5.3246 1.57987" />
<path d="M0.79912 5.1154 A5 2.88675 60 0 1 -2.26274 5.38888" />
<path d="M-0.392259, 2.62295 C-0.655897, 2.55358 -0.931645, 2.41358 -1.19539, 2.21687  C-1.57189, 1.93722 -1.92215, 1.54118 -2.18598, 1.10419  C-2.50317, 0.582523 -2.69247, 0.00643753 -2.71236, -0.471743  C-2.72241, -0.706803 -2.69529, -0.911875 -2.63102, -1.08696 " /><path d="M-0.42742, 2.7559 C-0.735296, 2.70359 -1.06648, 2.54867 -1.38031, 2.31283  C-1.77722, 2.01618 -2.14404, 1.59012 -2.41107, 1.12438  C-2.70373, 0.617649 -2.87485, 0.0680836 -2.88992, -0.38919  C-2.9001, -0.668764 -2.85381, -0.913918 -2.75689, -1.10086 " /><path d="M0.79912, 5.1154 C1.12358, 4.65442 1.51894, 4.15266 2.04629, 3.53262 " /><path d="M-2.26274, 5.38888 C-1.61454, 5.76229 -0.895628, 6.09443 0.00505345, 6.43659 " /><path d="M0.00505345, 6.43659 C0.224362, 5.99439 0.47609, 5.57556 0.79912, 5.1154 " /><path d="M-5.3246, 1.57987 C-5.00015, 2.41386 -4.60478, 3.20629 -4.07743, 4.07957 " /><path d="M-4.07743, 4.07957 C-3.48479, 4.59957 -2.90952, 5.01464 -2.26274, 5.38888 " /><path d="M-5.3246, -2.50261 C-5.64763, -2.04245 -5.89936, -1.62362 -6.11867, -1.18143 " /><path d="M-6.11867, -1.18143 C-5.89936, -0.130302 -5.64763, 0.745058 -5.3246, 1.57987 " /><path d="M-4.07743, -4.0854 C-4.60478, -3.46536 -5.00015, -2.9636 -5.3246, -2.50261 " /><path d="M-2.26274, -2.77609 C-2.90952, -3.15033 -3.48479, -3.56539 -4.07743, -4.0854 " /><path d="M0.00505345, -1.72838 C-0.895628, -2.07054 -1.61454, -2.40267 -2.26274, -2.77609 " /><path d="M0.79912, 1.03292 C0.47609, 0.198109 0.224362, -0.677251 0.00505345, -1.72838 " /><path d="M2.04629, 3.53262 C1.51894, 2.65934 1.12358, 1.86691 0.79912, 1.03292 " /><path d="M-0.352486, 2.11412 C-0.865375, 1.83037 -1.36407, 1.3093 -1.70151, 0.720387  C-2.02371, 0.164681 -2.19809, -0.442593 -2.18349, -0.924195 " /><path d="M-0.36064 1.98814 A2.45873 1.41955 60 0 1 -1.36782 0.869765" />
<path d="M-1.36782, 0.869765 C-1.73385, 0.328942 -1.96439, -0.293623 -2.00123, -0.812625 " /><path d="M3.85593, 2.48782 C3.63662, 2.93002 3.38489, 3.34885 3.06186, 3.80901 " /><path id= "36" d=" M 2.04629 3.53262 L 3.85593 2.48782 " />
<path id= "37" d=" M 1.81469 5.3918 L 0.00505345 6.43659 " />
<path d="M3.06186, 3.80901 C2.73741, 4.26999 2.34204, 4.77175 1.81469, 5.3918 " /><path id= "39" d=" M -2.2678 -5.13019 L -4.07743 -4.0854 " />
<path d="M-2.2678, -5.13019 C-1.36711, -4.78803 -0.648199, -4.4559 -3.23856e-08, -4.08248 " /><path id= "41" d=" M 1.81469 -2.77317 L 0.00505345 -1.72838 " />
<path d="M-3.23856e-08, -4.08248 C0.646774, -3.70824 1.22205, -3.29318 1.81469, -2.77317 " /><path d="M1.81469, -2.77317 C2.34204, -1.89989 2.73741, -1.10746 3.06186, -0.273475 " /><path d="M3.06186, -0.273475 C3.38489, 0.561337 3.63662, 1.4367 3.85593, 2.48782 " /></g>

</svg>
