<svg xmlns="http://www.w3.org/2000/svg" viewBox="-4.12376 -6.69726 5.0475200000000005 13.39452">
<rect width="100%" height="100%" fill="white"/>
<g   fill="none"
   stroke="rgb(165, 165, 165)"
   stroke-dasharray="1.2,0.8"
   stroke-linecap="butt"
   stroke-linejoin="miter"
   stroke-width="0.25"
   transform="scale(1, -1)"
  >
<path d="M-2.95449, 1.17778 L-2.95449, 1.33932  L-2.95449, 1.49302  L-2.95449, 1.63799  L-2.95449, 1.77337  L-2.95449, 1.89837  L-2.95449, 2.01227  L-2.95449, 2.11438  L-2.95449, 2.20412  L-2.95449, 2.28097  L-2.95449, 2.34446  L-2.95449, 2.39424  L-2.95449, 2.43  L-2.95449, 2.45154  L-2.95449, 2.45873 " /><path id= "2" d=" M -2.95449 2.45873 L -3.2 3.375 " />
<path d="M-3.2, 3.375 L-3.2, 3.29038  L-3.2, 3.04077  L-3.2, 2.63868  L-3.2, 2.10428  L-3.2, 1.46436  L-3.2, 0.751008  L-3.2, 2.22045e-16  L-3.2, -0.751008  L-3.2, -1.46436  L-3.2, -2.10428  L-3.2, -2.63868  L-3.2, -3.04077  L-3.2, -3.29038  L-3.2, -3.375 " /><path d="M-3.2, -3.375 L-3.2, -3.29038  L-3.2, -3.04077  L-3.2, -2.63868  L-3.2, -2.10428  L-3.2, -1.46436  L-3.2, -0.751008  L-3.2, -6.66134e-16  L-3.2, 0.751008  L-3.2, 1.46436  L-3.2, 2.10428  L-3.2, 2.63868  L-3.2, 3.04077  L-3.2, 3.29038  L-3.2, 3.375 " /><path d="M-2.95449, 2.45873 C-2.95449, 2.45871 -2.95449, 2.35447 -2.95449, 2.15835 " /><path d="M-2.95449, 2.15835 C-2.96655, 1.9175 -2.97838, 1.47341 -2.98998, 0.931916  C-3.00208, 0.368282 -3.01394, -0.295588 -3.02558, -0.903077  C-3.03794, -1.54947 -3.05006, -2.1258 -3.06196, -2.49323  C-3.07068, -2.76444 -3.07929, -2.92509 -3.08778, -2.95621 " /><path d="M-3.08778, -2.95621 Q-3.09012, -2.96493 -3.09245, -2.96092 " /><path d="M-3.09245, -2.96092 Q-3.096, -2.95476 -3.09952, -2.91921 " /><path d="M-3.09952, -1.57519 C-3.10103, -1.60741 -3.10232, -1.64742 -3.10338, -1.69521  C-3.10709, -1.86239 -3.10853, -2.0654 -3.10904, -2.2376  C-3.10934, -2.35614 -3.10918, -2.46246 -3.10857, -2.55655  C-3.10749, -2.74447 -3.10447, -2.86536 -3.09952, -2.91921 " /><path d="M-2.95449, 1.17778 C-3.00648, 0.455838 -3.0544, -0.653561 -3.09952, -1.57519 " /><path id= "11" d=" M -1.875 2.45873 L -2.12499 2.45873 " />
<path d="M-1.875, 2.45873 Q-1.88388, 2.45873 -1.89277, 2.44342 " /><path d="M-1.89277, 2.44342 C-1.92293, 2.39222 -1.95309, 2.20528 -1.98325, 1.91149  C-2.04206, 1.34462 -2.10085, 0.358437 -2.15965, -0.531148  C-2.19273, -1.03072 -2.22582, -1.49314 -2.25891, -1.83317  C-2.29761, -2.23343 -2.3363, -2.46069 -2.37499, -2.45873 " /><path d="M-2.37499, -2.45873 Q-2.38388, -2.45873 -2.39276, -2.44342 " /><path d="M-2.39276, -2.44342 C-2.42583, -2.38752 -2.45891, -2.16752 -2.49198, -1.82394  C-2.52582, -1.47396 -2.55967, -0.996421 -2.59351, -0.48321  C-2.65347, 0.428165 -2.71342, 1.42748 -2.77337, 1.97435  C-2.80725, 2.28736 -2.84113, 2.4599 -2.87499, 2.45873 " /><path id= "16" d=" M -2.87499 2.45873 L -2.95449 2.45873 " />
<path d="M-2.12499, 2.45873 C-2.16286, 2.46054 -2.20076, 2.24304 -2.23865, 1.85796  C-2.26838, 1.55752 -2.29811, 1.15734 -2.32785, 0.717626  C-2.38967, -0.198407 -2.45149, -1.26634 -2.51332, -1.87797  C-2.54462, -2.19086 -2.57592, -2.39038 -2.60722, -2.44343 " /><path d="M-2.60722, -2.44343 Q-2.6161, -2.45873 -2.62499, -2.45873 " /><path d="M-2.62499, -2.45873 C-2.675, -2.46402 -2.72501, -2.07474 -2.77502, -1.44478  C-2.83485, -0.698783 -2.89466, 0.366811 -2.95449, 1.17778 " /><path d="M-2.87499, 2.45873 Q-2.88388, 2.45873 -2.89277, 2.44342 " /><path d="M-2.89277, 2.44342 Q-2.92363, 2.38874 -2.95449, 2.15835 " /><path d="M-3.2, 5 C-3.2, 4.9991 -3.2, 4.94171 -3.2, 4.82963  C-3.2, 4.71582 -3.2, 4.54755 -3.2, 4.33013 " /><path d="M-3.2, -4.33013 C-3.2, -4.54755 -3.2, -4.71582 -3.2, -4.82963  C-3.2, -4.94171 -3.2, -4.9991 -3.2, -5 " /><path d="M-3.2, 3.70531e-08 Q-3.2, -0.374236 -3.2, -0.745211  Q-3.2, -1.11435 -3.2, -1.47378  Q-3.2, -1.65024 -3.2, -1.82671  Q-3.2, -1.99806 -3.2, -2.16942  Q-3.2, -2.33471 -3.2, -2.5  Q-3.2, -2.6583 -3.2, -2.8166  Q-3.2, -2.96702 -3.2, -3.11745  Q-3.2, -3.25916 -3.2, -3.40086  Q-3.2, -3.53306 -3.2, -3.66526  Q-3.2, -3.78721 -3.2, -3.90916  Q-3.2, -4.02018 -3.2, -4.13119  Q-3.2, -4.23066 -3.2, -4.33013 " /><path d="M-3.2, 4.33013 Q-3.2, 4.23066 -3.2, 4.13119  Q-3.2, 4.02018 -3.2, 3.90916  Q-3.2, 3.78721 -3.2, 3.66526  Q-3.2, 3.53306 -3.2, 3.40086  Q-3.2, 3.25916 -3.2, 3.11745  Q-3.2, 2.96702 -3.2, 2.8166  Q-3.2, 2.6583 -3.2, 2.5  Q-3.2, 2.33471 -3.2, 2.16942  Q-3.2, 1.99806 -3.2, 1.82671  Q-3.2, 1.65024 -3.2, 1.47378  Q-3.2, 1.11435 -3.2, 0.745211  Q-3.2, 0.374236 -3.2, 3.70531e-08 " /><path id= "26" d=" M -0.874998 2.45873 L -1.12499 2.45873 " />
<path d="M-0.874998, 2.45873 Q-0.883883, 2.45873 -0.892769, 2.44342 " /><path d="M-0.892769, 2.44342 C-0.922933, 2.39222 -0.95309, 2.20528 -0.983255, 1.9115  C-1.04205, 1.34468 -1.10084, 0.358627 -1.15963, -0.530898  C-1.19271, -1.03028 -1.22578, -1.49255 -1.25885, -1.83258  C-1.29757, -2.2332 -1.33628, -2.46069 -1.37499, -2.45873 " /><path d="M-1.37499, -2.45873 Q-1.38388, -2.45873 -1.39276, -2.44342 " /><path d="M-1.39276, -2.44342 C-1.42598, -2.38729 -1.4592, -2.16559 -1.49241, -1.81948  C-1.526, -1.47106 -1.55959, -0.99735 -1.59318, -0.488201  C-1.65326, 0.424551 -1.71332, 1.42668 -1.77339, 1.9745  C-1.80726, 2.28741 -1.84114, 2.4599 -1.875, 2.45873 " /><path d="M-1.12499, 2.45873 C-1.16292, 2.46055 -1.20087, 2.24239 -1.23882, 1.85626  C-1.26772, 1.5639 -1.29661, 1.17753 -1.32551, 0.752186  C-1.38868, -0.179607 -1.45184, -1.2781 -1.51501, -1.89475  C-1.54575, -2.19808 -1.57649, -2.39129 -1.60722, -2.44343 " /><path d="M-1.60722, -2.44343 Q-1.61611, -2.45873 -1.62499, -2.45873 " /><path d="M-1.62499, -2.45873 C-1.66516, -2.461 -1.70532, -2.21537 -1.74549, -1.78697  C-1.7782, -1.4405 -1.81091, -0.977564 -1.84361, -0.481647  C-1.87464, -0.0115341 -1.90567, 0.485928 -1.93669, 0.929585  C-1.96736, 1.36866 -1.99803, 1.75334 -2.0287, 2.02228  C-2.05488, 2.25554 -2.08105, 2.39592 -2.10722, 2.44343 " /><path d="M-2.10722, 2.44343 Q-2.1161, 2.45873 -2.12499, 2.45873 " /><path d="M-3.2, 4.33013 C-3.19899, 4.78797 -3.09742, 5.24553 -2.8796, 5.7735 " /><path d="M-3.2, 3.70531e-08 C-3.19899, 0.915684 -3.09742, 1.83081 -2.8796, 2.88675 " /><path d="M-2.8796, 2.88675 C-3.09742, 3.41472 -3.19899, 3.87228 -3.2, 4.33013 " /><path d="M-3.2, -4.33013 C-3.19899, -3.87228 -3.09742, -3.41472 -2.8796, -2.88675 " /><path d="M-2.8796, -2.88675 C-3.09742, -1.83081 -3.19899, -0.915684 -3.2, 3.70531e-08 " /><path d="M-2.8796, -5.7735 C-3.09742, -5.24553 -3.19899, -4.78797 -3.2, -4.33013 " /><path d="M-0.245513, 1.78687 C-0.300396, 1.20747 -0.355281, 0.290083 -0.410168, -0.538976  C-0.445013, -1.06483 -0.479854, -1.54848 -0.5147, -1.8916  C-0.545542, -2.19673 -0.576385, -2.39112 -0.607227, -2.44342 " /><path d="M-0.607227, -2.44342 Q-0.616112, -2.45873 -0.624997, -2.45873 " /><path d="M-0.624997, -2.45873 C-0.665655, -2.46111 -0.70631, -2.20919 -0.74697, -1.77128  C-0.77948, -1.4235 -0.811992, -0.961715 -0.8445, -0.468244  C-0.87499, -0.00578276 -0.905477, 0.482345 -0.935967, 0.919124  C-0.966819, 1.36169 -0.997678, 1.74977 -1.02853, 2.02075  C-1.05476, 2.25491 -1.08099, 2.3958 -1.10722, 2.44343 " /><path d="M-1.10722, 2.44343 Q-1.11611, 2.45873 -1.12499, 2.45873 " /><path d="M-0.245513, 1.78687 Q-0.245513, 1.68671 -0.245513, 1.58654  Q-0.245513, 1.4764 -0.245513, 1.36626  Q-0.245513, 1.24753 -0.245513, 1.1288  Q-0.245513, 1.00297 -0.245513, 0.877139  Q-0.245513, 0.745795 -0.245513, 0.614451  Q-0.245513, 0.345249 -0.245513, 0.0692952  Q-0.245513, -0.207045 -0.245513, -0.479335  Q-0.245513, -0.61283 -0.245513, -0.746325  Q-0.245513, -0.875128 -0.245513, -1.00393  Q-0.245513, -1.12642 -0.245513, -1.24891  Q-0.245513, -1.36355 -0.245513, -1.47819  Q-0.245513, -1.58353 -0.245513, -1.68887 " /><path d="M-0.245513, -1.68887 C-0.288674, -2.17627 -0.331835, -2.46174 -0.374997, -2.45873 " /><path d="M-0.374997, -2.45873 Q-0.383881, -2.45873 -0.392766, -2.44342 " /><path d="M-0.392766, -2.44342 C-0.425948, -2.38734 -0.45913, -2.16605 -0.492311, -1.82053  C-0.526167, -1.46964 -0.56002, -0.991357 -0.593875, -0.477762  C-0.653575, 0.430078 -0.71327, 1.42406 -0.772967, 1.97056  C-0.806979, 2.28594 -0.840996, 2.45992 -0.874998, 2.45873 " /><path d="M-0.207311, 2.60131 C-0.219778, 2.55719 -0.232505, 2.25998 -0.245513, 1.78687 " /><path d="M-0.320395, 5.7735 C-0.102576, 5.24553 -0.00100761, 4.78797 -1.38778e-17, 4.33013 " /><path id= "51" d=" M -0.320395 2.88675 L -2.8796 2.88675 " />
<path d="M0, 4.33013 C-0.0010076, 3.87228 -0.102576, 3.41472 -0.320395, 2.88675 " /><path d="M-0.320395, 2.88675 C-0.102576, 1.83081 -0.00100761, 0.915684 1.38778e-17, 3.70531e-08 " /><path id= "54" d=" M -0.320395 -2.88675 L -2.8796 -2.88675 " />
<path d="M-1.38778e-17, 3.70531e-08 C-0.0010076, -0.915684 -0.102576, -1.83081 -0.320395, -2.88675 " /><path d="M-0.320395, -2.88675 C-0.102576, -3.41472 -0.00100761, -3.87228 1.38778e-17, -4.33013 " /><path d="M0, -4.33013 C-0.0010076, -4.78797 -0.102576, -5.24553 -0.320395, -5.7735 " /><path d="M-0.100481, -2.91498 Q-0.110359, -2.93001 -0.120425, -2.91266 " /><path d="M-0.120425, -2.91266 Q-0.12686, -2.90156 -0.133375, -2.87724 " /><path d="M-0.133375, -2.87724 C-0.16878, -2.74911 -0.205959, -2.30714 -0.245513, -1.68887 " /><path d="M0, 3.375 L0, 3.29038  L0, 3.04077  L0, 2.63868  L0, 2.10428  L0, 1.46436  L0, 0.751008  L0, 2.22045e-16  L0, -0.751008  L0, -1.46436  L0, -2.10428  L0, -2.63868  L0, -3.04077  L0, -3.29038  L0, -3.375 " /><path d="M0, -3.375 L0, -3.29038  L0, -3.04077  L0, -2.63868  L0, -2.10428  L0, -1.46436  L0, -0.751008  L0, -6.66134e-16  L0, 0.751008  L0, 1.46436  L0, 2.10428  L0, 2.63868  L0, 3.04077  L0, 3.29038  L0, 3.375 " /><path id= "63" d=" M 0 3.375 L -0.207311 2.60131 " />
<path d="M-0.207311, 2.60131 Q-0.20466, 2.6112 -0.202024, 2.60666 " /><path d="M-0.202024, 2.60666 C-0.185831, 2.58424 -0.170063, 2.12156 -0.154665, 1.40775  C-0.136088, 0.552595 -0.118053, -0.634778 -0.10048, -1.55977 " /><path d="M-0.10048, -1.55977 C-0.0953906, -1.83363 -0.0926799, -2.1174 -0.0914395, -2.34139  C-0.0900366, -2.67305 -0.0904317, -2.89576 -0.100481, -2.91498 " /><path d="M0, 5 C0, 4.9991 0, 4.94171 0, 4.82963  C0, 4.71582 0, 4.54755 0, 4.33013 " /><path d="M0, 4.33013 Q0, 4.23066 0, 4.13119  Q0, 4.02018 0, 3.90916  Q0, 3.78721 0, 3.66526  Q0, 3.53306 0, 3.40086  Q0, 3.25916 0, 3.11745  Q0, 2.96702 0, 2.8166  Q0, 2.6583 0, 2.5  Q0, 2.33471 0, 2.16942  Q0, 1.99806 0, 1.82671  Q0, 1.65024 0, 1.47378  Q0, 1.11435 0, 0.745211  Q0, 0.374236 0, 3.70531e-08 " /><path d="M0, 3.70531e-08 Q0, -0.374236 0, -0.745211  Q0, -1.11435 0, -1.47378  Q0, -1.65024 0, -1.82671  Q0, -1.99806 0, -2.16942  Q0, -2.33471 0, -2.5  Q0, -2.6583 0, -2.8166  Q0, -2.96702 0, -3.11745  Q0, -3.25916 0, -3.40086  Q0, -3.53306 0, -3.66526  Q0, -3.78721 0, -3.90916  Q0, -4.02018 0, -4.13119  Q0, -4.23066 0, -4.33013 " /><path d="M0, -4.33013 C0, -4.54755 0, -4.71582 0, -4.82963  C0, -4.94171 0, -4.9991 0, -5 " /></g>
<g   fill="none"
   stroke="rgb(165, 165, 165)"
   stroke-dasharray="1.2,0.8"
   stroke-linecap="butt"
   stroke-linejoin="miter"
   stroke-width="0.25"
   transform="scale(1, -1)"
  >
<path id= "1" d=" M -3.08778 -2.95621 L -3.2 -3.375 " />
<path id= "2" d=" M -2.37499 -2.45873 L -2.62499 -2.45873 " />
<path d="M-2.92292, -2.98742 L-2.60722, -2.44343 " /><path d="M-2.57709, 2.98742 Q-2.56592, 3.00628 -2.55293, 3.01667  Q-2.52871, 3.0361 -2.5, 3.03609 " /><path d="M-3.07708, -2.98742 C-3.05573, -3.02493 -3.02337, -3.03633 -2.99999, -3.03609  C-2.98627, -3.03608 -2.97315, -3.03268 -2.96063, -3.02589  C-2.94658, -3.01868 -2.93401, -3.00586 -2.92292, -2.98742 " /><path d="M-2.89277, 2.44342 L-2.57709, 2.98742 " /><path d="M-3.07708, -2.98742 L-3.09245, -2.96092 " /><path id= "8" d=" M -1.37499 -2.45873 L -1.62499 -2.45873 " />
<path d="M-1.89277, 2.44342 L-1.57709, 2.98742 " /><path d="M-2.39276, -2.44342 L-2.07708, -2.98741 " /><path d="M-1.92292, -2.98742 L-1.60722, -2.44343 " /><path d="M-2.42292, 2.98742 L-2.10722, 2.44343 " /><path d="M-1.57709, 2.98742 Q-1.56592, 3.00628 -1.55293, 3.01666  Q-1.52871, 3.03609 -1.5, 3.03609 " /><path d="M-2.07708, -2.98741 C-2.05573, -3.02492 -2.02337, -3.03632 -1.99999, -3.03609  C-1.98627, -3.03608 -1.97315, -3.03268 -1.96063, -3.02589  C-1.94658, -3.01868 -1.93401, -3.00586 -1.92292, -2.98742 " /><path d="M-2.42292, 2.98742 Q-2.43408, 3.00629 -2.44707, 3.01667  Q-2.47129, 3.0361 -2.5, 3.03609 " /><path id= "16" d=" M -0.374997 -2.45873 L -0.624996 -2.45873 " />
<path d="M-0.892769, 2.44342 L-0.577086, 2.98741 " /><path d="M-1.39276, -2.44342 L-1.07708, -2.98741 " /><path d="M-0.922916, -2.98741 L-0.607227, -2.44342 " /><path d="M-1.42292, 2.98742 L-1.10722, 2.44343 " /><path d="M-0.577086, 2.98741 Q-0.565919, 3.00628 -0.552933, 3.01666  Q-0.528705, 3.03609 -0.499998, 3.03609 " /><path d="M-1.07708, -2.98741 C-1.05573, -3.02492 -1.02337, -3.03632 -0.999991, -3.03608  C-0.986268, -3.03607 -0.973146, -3.03268 -0.960626, -3.02589  C-0.946579, -3.01868 -0.934009, -3.00585 -0.922916, -2.98741 " /><path d="M-1.42292, 2.98742 Q-1.43408, 3.00628 -1.44707, 3.01667  Q-1.47129, 3.03609 -1.5, 3.03609 " /><path d="M-0.392766, -2.44342 L-0.120425, -2.91266 " /><path id= "25" d=" M -0.133375 -2.87724 L -3.59869e-17 -3.375 " />
<path d="M-0.422916, 2.98742 L-0.202024, 2.60666 " /><path d="M-0.422916, 2.98742 Q-0.434083, 3.00628 -0.447069, 3.01666  Q-0.471293, 3.03609 -0.499998, 3.03609 " /></g>
<g   fill="none"
   stroke="rgb(0, 0, 0)"
   stroke-linecap="butt"
   stroke-linejoin="miter"
   stroke-width="0.35"
   transform="scale(1, -1)"
  >
<path id= "1" d=" M -3.2 -5 L -2.8796 -5.7735 " />
<path id= "2" d=" M -3.61511e-13 -5 L -0.320395 -5.7735 " />
</g>
<g   fill="none"
   stroke="rgb(0, 0, 0)"
   stroke-linecap="butt"
   stroke-linejoin="miter"
   stroke-width="0.35"
   transform="scale(1, -1)"
  >
<path d="M-3.2, 4.33013 C-3.2, 4.54755 -3.2, 4.71582 -3.2, 4.82963  C-3.2, 4.94171 -3.2, 4.9991 -3.2, 5 " /><path d="M-3.2, -4.58002e-08 Q-3.2, 0.562675 -3.2, 1.1126  Q-3.2, 1.29319 -3.2, 1.47378  Q-3.2, 1.65024 -3.2, 1.82671  Q-3.2, 1.99806 -3.2, 2.16942  Q-3.2, 2.33471 -3.2, 2.5  Q-3.2, 2.6583 -3.2, 2.8166  Q-3.2, 2.96702 -3.2, 3.11745  Q-3.2, 3.25916 -3.2, 3.40086  Q-3.2, 3.53306 -3.2, 3.66526  Q-3.2, 3.78721 -3.2, 3.90916  Q-3.2, 4.02018 -3.2, 4.13119  Q-3.2, 4.23066 -3.2, 4.33013 " /><path d="M-3.2, -4.33013 Q-3.2, -4.23066 -3.2, -4.13119  Q-3.2, -4.02018 -3.2, -3.90916  Q-3.2, -3.78721 -3.2, -3.66526  Q-3.2, -3.53306 -3.2, -3.40086  Q-3.2, -3.25916 -3.2, -3.11745  Q-3.2, -2.96702 -3.2, -2.8166  Q-3.2, -2.6583 -3.2, -2.5  Q-3.2, -2.33471 -3.2, -2.16942  Q-3.2, -1.99806 -3.2, -1.82671  Q-3.2, -1.65024 -3.2, -1.47378  Q-3.2, -1.29319 -3.2, -1.1126  Q-3.2, -0.562676 -3.2, -4.58002e-08 " /><path d="M-3.2, -5 C-3.2, -4.9991 -3.2, -4.94171 -3.2, -4.82963  C-3.2, -4.71582 -3.2, -4.54755 -3.2, -4.33013 " /><path id= "5" d=" M -3.2 5 L -2.8796 5.7735 " />
<path d="M-3.2, -4.33013 C-3.19899, -4.78797 -3.09742, -5.24553 -2.8796, -5.7735 " /><path d="M-2.8796, -2.88675 C-3.09742, -3.41472 -3.19899, -3.87228 -3.2, -4.33013 " /><path d="M-3.2, -4.58002e-08 C-3.19899, -0.915684 -3.09742, -1.83081 -2.8796, -2.88675 " /><path d="M-2.8796, 2.88675 C-3.09742, 1.83081 -3.19899, 0.915684 -3.2, -4.58002e-08 " /><path d="M-3.2, 4.33013 C-3.19899, 3.87228 -3.09742, 3.41472 -2.8796, 2.88675 " /><path d="M-2.8796, 5.7735 C-3.09742, 5.24553 -3.19899, 4.78797 -3.2, 4.33013 " /><path id= "12" d=" M -2.8796 5.7735 L -0.320395 5.7735 " />
<path id= "13" d=" M -0.320395 -5.7735 L -2.8796 -5.7735 " />
<path d="M-0.320395, -5.7735 C-0.102576, -5.24553 -0.0010076, -4.78797 1.38778e-17, -4.33013 " /><path id= "15" d=" M -0.320395 -2.88675 L -2.8796 -2.88675 " />
<path d="M-1.38778e-17, -4.33013 C-0.00100761, -3.87228 -0.102576, -3.41472 -0.320395, -2.88675 " /><path d="M-0.320395, -2.88675 C-0.102576, -1.83081 -0.00100761, -0.915684 1.38778e-17, -4.58002e-08 " /><path id= "18" d=" M -0.320395 2.88675 L -2.8796 2.88675 " />
<path d="M0, -4.58002e-08 C-0.0010076, 0.915684 -0.102576, 1.83081 -0.320395, 2.88675 " /><path d="M-0.320395, 2.88675 C-0.102576, 3.41472 -0.00100761, 3.87228 0, 4.33013 " /><path d="M0, 4.33013 C-0.0010076, 4.78797 -0.102576, 5.24553 -0.320395, 5.7735 " /><path id= "22" d=" M -0.320395 5.7735 L -4.73791e-13 5 " />
<path d="M0, -5 C0, -4.9991 0, -4.94171 0, -4.82963  C0, -4.71582 0, -4.54755 0, -4.33013 " /><path d="M0, -4.33013 Q0, -4.23066 0, -4.13119  Q0, -4.02018 0, -3.90916  Q0, -3.78721 0, -3.66526  Q0, -3.53306 0, -3.40086  Q0, -3.25916 0, -3.11745  Q0, -2.96702 0, -2.8166  Q0, -2.6583 0, -2.5  Q0, -2.33471 0, -2.16942  Q0, -1.99806 0, -1.82671  Q0, -1.65024 0, -1.47378  Q0, -1.29319 0, -1.1126  Q0, -0.562676 0, -4.58002e-08 " /><path d="M0, -4.58002e-08 Q0, 0.562675 0, 1.1126  Q0, 1.29319 0, 1.47378  Q0, 1.65024 0, 1.82671  Q0, 1.99806 0, 2.16942  Q0, 2.33471 0, 2.5  Q0, 2.6583 0, 2.8166  Q0, 2.96702 0, 3.11745  Q0, 3.25916 0, 3.40086  Q0, 3.53306 0, 3.66526  Q0, 3.78721 0, 3.90916  Q0, 4.02018 0, 4.13119  Q0, 4.23066 0, 4.33013 " /><path d="M0, 4.33013 C0, 4.54755 0, 4.71582 0, 4.82963  C0, 4.94171 0, 4.9991 0, 5 " /></g>

</svg>
