<svg xmlns="http://www.w3.org/2000/svg" viewBox="-4.12376 -6.69726 5.0475200000000005 13.39452">
<rect width="100%" height="100%" fill="white"/>
<g   fill="none"
   stroke="rgb(0, 0, 0)"
   stroke-linecap="butt"
   stroke-linejoin="miter"
   stroke-width="0.35"
   transform="scale(1, -1)"
  >
<path id= "1" d=" M -3.2 -5 L -2.8796 -5.7735 " />
<path id= "2" d=" M -3.61511e-13 -5 L -0.320395 -5.7735 " />
</g>
<g   fill="none"
   stroke="rgb(0, 0, 0)"
   stroke-linecap="butt"
   stroke-linejoin="miter"
   stroke-width="0.35"
   transform="scale(1, -1)"
  >
<path d="M-3.2, 4.33013 C-3.2, 4.54755 -3.2, 4.71582 -3.2, 4.82963  C-3.2, 4.94171 -3.2, 4.9991 -3.2, 5 " /><path d="M-3.2, -4.58002e-08 Q-3.2, 0.562675 -3.2, 1.1126  Q-3.2, 1.29319 -3.2, 1.47378  Q-3.2, 1.65024 -3.2, 1.82671  Q-3.2, 1.99806 -3.2, 2.16942  Q-3.2, 2.33471 -3.2, 2.5  Q-3.2, 2.6583 -3.2, 2.8166  Q-3.2, 2.96702 -3.2, 3.11745  Q-3.2, 3.25916 -3.2, 3.40086  Q-3.2, 3.53306 -3.2, 3.66526  Q-3.2, 3.78721 -3.2, 3.90916  Q-3.2, 4.02018 -3.2, 4.13119  Q-3.2, 4.23066 -3.2, 4.33013 " /><path d="M-3.2, -4.33013 Q-3.2, -4.23066 -3.2, -4.13119  Q-3.2, -4.02018 -3.2, -3.90916  Q-3.2, -3.78721 -3.2, -3.66526  Q-3.2, -3.53306 -3.2, -3.40086  Q-3.2, -3.25916 -3.2, -3.11745  Q-3.2, -2.96702 -3.2, -2.8166  Q-3.2, -2.6583 -3.2, -2.5  Q-3.2, -2.33471 -3.2, -2.16942  Q-3.2, -1.99806 -3.2, -1.82671  Q-3.2, -1.65024 -3.2, -1.47378  Q-3.2, -1.29319 -3.2, -1.1126  Q-3.2, -0.562676 -3.2, -4.58002e-08 " /><path d="M-3.2, -5 C-3.2, -4.9991 -3.2, -4.94171 -3.2, -4.82963  C-3.2, -4.71582 -3.2, -4.54755 -3.2, -4.33013 " /><path id= "5" d=" M -3.2 5 L -2.8796 5.7735 " />
<path d="M-3.2, -4.33013 C-3.19899, -4.78797 -3.09742, -5.24553 -2.8796, -5.7735 " /><path d="M-2.8796, -2.88675 C-3.09742, -3.41472 -3.19899, -3.87228 -3.2, -4.33013 " /><path d="M-3.2, -4.58002e-08 C-3.19899, -0.915684 -3.09742, -1.83081 -2.8796, -2.88675 " /><path d="M-2.8796, 2.88675 C-3.09742, 1.83081 -3.19899, 0.915684 -3.2, -4.58002e-08 " /><path d="M-3.2, 4.33013 C-3.19899, 3.87228 -3.09742, 3.41472 -2.8796, 2.88675 " /><path d="M-2.8796, 5.7735 C-3.09742, 5.24553 -3.19899, 4.78797 -3.2, 4.33013 " /><path id= "12" d=" M -2.8796 5.7735 L -0.320395 5.7735 " />
<path id= "13" d=" M -0.320395 -5.7735 L -2.8796 -5.7735 " />
<path d="M-0.320395, -5.7735 C-0.102576, -5.24553 -0.0010076, -4.78797 1.38778e-17, -4.33013 " /><path id= "15" d=" M -0.320395 -2.88675 L -2.8796 -2.88675 " />
<path d="M-1.38778e-17, -4.33013 C-0.00100761, -3.87228 -0.102576, -3.41472 -0.320395, -2.88675 " /><path d="M-0.320395, -2.88675 C-0.102576, -1.83081 -0.00100761, -0.915684 1.38778e-17, -4.58002e-08 " /><path id= "18" d=" M -0.320395 2.88675 L -2.8796 2.88675 " />
<path d="M0, -4.58002e-08 C-0.0010076, 0.915684 -0.102576, 1.83081 -0.320395, 2.88675 " /><path d="M-0.320395, 2.88675 C-0.102576, 3.41472 -0.00100761, 3.87228 0, 4.33013 " /><path d="M0, 4.33013 C-0.0010076, 4.78797 -0.102576, 5.24553 -0.320395, 5.7735 " /><path id= "22" d=" M -0.320395 5.7735 L -4.73791e-13 5 " />
<path d="M0, -5 C0, -4.9991 0, -4.94171 0, -4.82963  C0, -4.71582 0, -4.54755 0, -4.33013 " /><path d="M0, -4.33013 Q0, -4.23066 0, -4.13119  Q0, -4.02018 0, -3.90916  Q0, -3.78721 0, -3.66526  Q0, -3.53306 0, -3.40086  Q0, -3.25916 0, -3.11745  Q0, -2.96702 0, -2.8166  Q0, -2.6583 0, -2.5  Q0, -2.33471 0, -2.16942  Q0, -1.99806 0, -1.82671  Q0, -1.65024 0, -1.47378  Q0, -1.29319 0, -1.1126  Q0, -0.562676 0, -4.58002e-08 " /><path d="M0, -4.58002e-08 Q0, 0.562675 0, 1.1126  Q0, 1.29319 0, 1.47378  Q0, 1.65024 0, 1.82671  Q0, 1.99806 0, 2.16942  Q0, 2.33471 0, 2.5  Q0, 2.6583 0, 2.8166  Q0, 2.96702 0, 3.11745  Q0, 3.25916 0, 3.40086  Q0, 3.53306 0, 3.66526  Q0, 3.78721 0, 3.90916  Q0, 4.02018 0, 4.13119  Q0, 4.23066 0, 4.33013 " /><path d="M0, 4.33013 C0, 4.54755 0, 4.71582 0, 4.82963  C0, 4.94171 0, 4.9991 0, 5 " /></g>

</svg>
