<svg xmlns="http://www.w3.org/2000/svg" viewBox="-6.69726 -5.92376 13.39452 11.84752">
<rect width="100%" height="100%" fill="white"/>
<g   fill="none"
   stroke="rgb(165, 165, 165)"
   stroke-dasharray="1.2,0.8"
   stroke-linecap="butt"
   stroke-linejoin="miter"
   stroke-width="0.25"
   transform="scale(1, -1)"
  >
<path d="M2.45873, 2.19212e-07 C2.46023, 0.557927 2.26358, 1.11365 1.91149, 1.54647  C1.62795, 1.89798 1.24534, 2.16833 0.819323, 2.31821  C0.388621, 2.47116 -0.0850345, 2.50008 -0.531148, 2.40068  C-1.03072, 2.29124 -1.49314, 2.02057 -1.83317, 1.63856  C-2.23792, 1.1888 -2.46557, 0.585226 -2.45865, -0.0197984  C-2.45578, -0.61621 -2.22533, -1.20768 -1.82394, -1.64882  C-1.47396, -2.03771 -0.996421, -2.3091 -0.48321, -2.41078  C-0.0460717, -2.49904 0.414869, -2.46479 0.834165, -2.31291  C1.28656, -2.15063 1.68858, -1.8518 1.97435, -1.46537  C2.28736, -1.0456 2.4599, -0.523608 2.45873, 2.19212e-07 " /><path d="M2.45873, 3.28818e-07 C2.45918, 0.409465 2.35486, 0.818447 2.15835, 1.17768 " /><path d="M2.45873, 2.19212e-07 C2.46023, 0.557923 2.26359, 1.11364 1.9115, 1.54646  C1.62796, 1.89797 1.24536, 2.16832 0.819345, 2.3182  C0.388717, 2.47113 -0.0848497, 2.50007 -0.530898, 2.40073  C-1.03028, 2.29139 -1.49255, 2.02094 -1.83258, 1.63921  C-2.24165, 1.18508 -2.46983, 0.573858 -2.45845, -0.0372418  C-2.45136, -0.629998 -2.21959, -1.21633 -1.81948, -1.65374  C-1.47106, -2.03876 -0.99735, -2.30778 -0.488201, -2.40978  C-0.0495702, -2.49928 0.413299, -2.46537 0.834201, -2.31289  C1.28666, -2.15059 1.68872, -1.85169 1.9745, -1.46517  C2.28741, -1.04543 2.4599, -0.523525 2.45873, 1.10063e-07 " /><path d="M2.45873, 0.000160329 C2.46051, 0.586819 2.24235, 1.17062 1.85626, 1.61235  C1.5639, 1.9499 1.17753, 2.20483 0.752186, 2.34085  C0.336303, 2.47509 -0.115568, 2.49516 -0.541714, 2.39832  C-1.06813, 2.28075 -1.55201, 1.98343 -1.89475, 1.56694  C-2.27064, 1.11528 -2.47464, 0.525193 -2.45795, -0.0621943  C-2.44474, -0.66251 -2.20085, -1.25377 -1.78697, -1.68881  C-1.4405, -2.05691 -0.977564, -2.31307 -0.481647, -2.4111  C0.078459, -2.52466 0.676901, -2.43348 1.17778, -2.15829 " /><path d="M1.78687, 1.68892 C1.49749, 1.99581 1.12759, 2.22582 0.724362, 2.34961 " /><path d="M0.721166, 2.35059 L0.675495, 2.36412 " /><path d="M0.580699, 2.38918 C0.214824, 2.47843 -0.171601, 2.4818 -0.538976, 2.39893  C-1.06483, 2.28212 -1.54848, 1.98599 -1.8916, 1.57074  C-2.27135, 1.11636 -2.47665, 0.521034 -2.45771, -0.070834  C-2.44232, -0.675823 -2.19248, -1.27071 -1.77128, -1.70527  C-1.4235, -2.06794 -0.961715, -2.31902 -0.468244, -2.41374  C-0.00578276, -2.50423 0.482345, -2.45735 0.919124, -2.28048  C1.36169, -2.10298 1.74977, -1.79305 2.02075, -1.40069  C2.30467, -0.992758 2.45968, -0.497004 2.45873, 1.10064e-07 " /><path d="M1.78687 1.68892 A2.45873 2.45873 0 0 1 -1.68887 1.78692" /><path d="M-1.68887, 1.78692 C-2.18567, 1.32182 -2.47214, 0.64263 -2.45844, -0.0378301  C-2.45121, -0.629866 -2.21987, -1.21545 -1.82053, -1.65259  C-1.46964, -2.04087 -0.991357, -2.31132 -0.477762, -2.41187  C-0.0441329, -2.49838 0.412632, -2.46446 0.828729, -2.31486  C1.28133, -2.15371 1.68391, -1.856 1.97056, -1.47046  C2.28594, -1.04981 2.45992, -0.525735 2.45873, -1.33227e-15 " /><path d="M2.60131, -1.22125e-15 C2.55719, 0.64369 2.25998, 1.26254 1.78687, 1.68892 " /><path d="M5.7735, 2.49599e-13 C5.24553, 0.914468 4.78797, 1.70699 4.33013, 2.5 " /><path d="M4.33013, 2.5 C3.87228, 3.29301 3.41472, 4.08553 2.88675, 5 " /><path d="M2.88675, 5 C1.83081, 5 0.915684, 5 3.70531e-08, 5 " /><path d="M3.70531e-08, 5 C-0.915684, 5 -1.83081, 5 -2.88675, 5 " /><path d="M-2.88675, 5 C-3.41472, 4.08553 -3.87228, 3.29301 -4.33013, 2.5 " /><path d="M-4.33013, 2.5 C-4.78797, 1.70699 -5.24553, 0.914468 -5.7735, 1.93179e-13 " /><path d="M-5.7735, -3.07088e-13 C-5.24553, -0.914468 -4.78797, -1.70699 -4.33013, -2.5 " /><path d="M-4.33013, -2.5 C-3.87228, -3.29301 -3.41472, -4.08553 -2.88675, -5 " /><path d="M-2.88675, -5 C-1.83081, -5 -0.915684, -5 -4.58002e-08, -5 " /><path d="M-4.58002e-08, -5 C0.915684, -5 1.83081, -5 2.88675, -5 " /><path d="M2.88675, -5 C3.41472, -4.08553 3.87228, -3.29301 4.33013, -2.5 " /><path d="M4.33013, -2.5 C4.78797, -1.70699 5.24553, -0.914468 5.7735, -2.498e-13 " /><path d="M-2.91498, -0.709155 C-2.95201, -0.183925 -2.84388, 0.346583 -2.60276, 0.801934  C-2.38907, 1.20829 -2.07012, 1.55337 -1.68887, 1.78692 " /><circle cx ="0" cy ="0" r ="3.375" /><path d="M2.60131, 0 C2.63497, -0.457396 2.54432, -0.924812 2.34257, -1.34087  C2.13458, -1.77257 1.80806, -2.14795 1.40775, -2.41782  C0.99075, -2.70051 0.494777, -2.8676 -0.0115899, -2.89779  C-0.543598, -2.93095 -1.08531, -2.81298 -1.55977, -2.56264 " /><path d="M-1.55977, -2.56264 C-1.9307, -2.37063 -2.3075, -2.03214 -2.55512, -1.63987 " /><path d="M-2.55512, -1.63987 C-2.61517, -1.54616 -2.6685, -1.45076 -2.71511, -1.35368  C-2.7955, -1.18721 -2.85488, -1.01518 -2.88787, -0.87156  C-2.90304, -0.804839 -2.91207, -0.750704 -2.91498, -0.709155 " /><path d="M5 0 A5 5 0 0 1 4.33013 2.5" /><path d="M4.33013 2.5 A5 5 0 0 1 3.70531e-08 5" /><path d="M3.70531e-08 5 A5 5 0 0 1 -4.33013 2.5" /><path d="M-4.33013 2.5 A5 5 0 0 1 -4.33013 -2.5" /><path d="M-4.33013 -2.5 A5 5 0 0 1 -4.58002e-08 -5" /><path d="M-4.58002e-08 -5 A5 5 0 0 1 4.33013 -2.5" /><path d="M4.33013 -2.5 A5 5 0 0 1 5 -1.22465e-15" /></g>
<g   fill="none"
   stroke="rgb(165, 165, 165)"
   stroke-dasharray="1.2,0.8"
   stroke-linecap="butt"
   stroke-linejoin="miter"
   stroke-width="0.25"
   transform="scale(1, -1)"
  >
<path d="M3.03609, -2.19229e-08 C3.03644, 0.450194 2.93472, 0.900058 2.74071, 1.3063  C2.48792, 1.83897 2.07563, 2.29419 1.57052, 2.59834  C1.03533, 2.9233 0.397788, 3.07561 -0.226495, 3.02764  C-0.704251, 2.99233 -1.17291, 2.84153 -1.58161, 2.5916  C-2.13793, 2.25382 -2.5792, 1.73151 -2.81934, 1.12659  C-2.97543, 0.736653 -3.04914, 0.314037 -3.03425, -0.105724  C-3.01283, -0.764886 -2.76816, -1.41405 -2.34916, -1.92335 " /><path d="M3.03609, -1.46149e-08 C3.03871, 0.753665 2.74638, 1.50302 2.23414, 2.05585  C1.84452, 2.48059 1.33117, 2.7899 0.773592, 2.9359  C-0.0355309, 3.15313 -0.93143, 3.01263 -1.6352, 2.55812  C-2.29513, 2.13984 -2.77946, 1.45639 -2.95546, 0.69515  C-3.11, 0.045127 -3.04055, -0.655142 -2.76133, -1.26214  C-2.4465, -1.95747 -1.85818, -2.52275 -1.15082, -2.80953  C-0.456671, -3.09664 0.344582, -3.11111 1.04864, -2.84924  C1.62745, -2.63769 2.13867, -2.24304 2.49016, -1.73697  C2.84368, -1.23232 3.03748, -0.616247 3.03609, -2.19229e-08 " /><path d="M3.03609, -7.30724e-09 C3.03871, 0.753664 2.74638, 1.50302 2.23414, 2.05585  C1.84452, 2.48059 1.33117, 2.7899 0.773598, 2.9359  C-0.0354956, 3.15312 -0.931361, 3.01264 -1.63512, 2.55817  C-2.27032, 2.15524 -2.74372, 1.5071 -2.93435, 0.779448  C-3.11505, 0.106576 -3.053, -0.627755 -2.76196, -1.26077  C-2.43901, -1.97552 -1.82665, -2.55241 -1.09393, -2.83219  C-0.426137, -3.09239 0.334187, -3.10368 1.00939, -2.86338  C1.59762, -2.65756 2.11924, -2.26338 2.47817, -1.75404  C2.8392, -1.2462 3.03754, -0.623193 3.03609, -1.46149e-08 " /><path d="M-2.55512, -1.63987 C-2.10607, -2.34681 -1.35135, -2.849 -0.525896, -2.99019  C-0.00322935, -3.08279 0.543447, -3.03451 1.0418, -2.85175  C1.54511, -2.66861 1.99773, -2.34903 2.33873, -1.93602  C2.78685, -1.39777 3.03806, -0.70038 3.03609, -7.30726e-09 " /></g>
<g   fill="none"
   stroke="rgb(0, 0, 0)"
   stroke-linecap="butt"
   stroke-linejoin="miter"
   stroke-width="0.35"
   transform="scale(1, -1)"
  >
<path d="M1.17778 -2.15829 A2.45873 2.45873 0 0 1 2.45873 -6.02216e-16" /><circle cx ="0" cy ="0" r ="3.375" /><path d="M2.45873 0 A2.45873 2.45873 0 0 1 2.15835 1.17768" /><path d="M2.15835, 1.17768 C1.9175, 1.71683 1.47341, 2.16462 0.931916, 2.4178  C0.368282, 2.68549 -0.295588, 2.73946 -0.903077, 2.57002  C-1.54947, 2.39408 -2.1258, 1.96864 -2.49323, 1.40086  C-2.8919, 0.793789 -3.04568, 0.0299443 -2.91921, -0.691536 " /><path d="M-1.57519, -2.5532 C-1.60741, -2.5402 -1.64742, -2.51999 -1.69521, -2.49259  C-1.90096, -2.37485 -2.15182, -2.16723 -2.34916, -1.92335 " /><path d="M-2.34916, -1.92335 C-2.64589, -1.56638 -2.85118, -1.10364 -2.91921, -0.691536 " /><path d="M1.17778, -2.15829 C0.838787, -2.44795 0.41343, -2.64442 -0.0377107, -2.72253  C-0.546412, -2.81211 -1.08587, -2.75124 -1.57519, -2.5532 " /><path d="M2.45873, 3.28821e-07 C2.46054, 0.585842 2.24304, 1.16886 1.85796, 1.61039  C1.55752, 1.95809 1.15734, 2.21823 0.717626, 2.35168  C0.309475, 2.47677 -0.13141, 2.49257 -0.547469, 2.39701  C-1.06313, 2.28048 -1.53766, 1.99158 -1.87797, 1.58702  C-2.2666, 1.13019 -2.47728, 0.527156 -2.45767, -0.0722994  C-2.4419, -0.678184 -2.19096, -1.27378 -1.76839, -1.70827  C-1.42263, -2.06758 -0.964808, -2.31688 -0.475369, -2.41234  C0.0829311, -2.52401 0.678794, -2.43243 1.17778, -2.15829 " /><path d="M5 0 A5 5 0 0 1 4.33013 2.5" /><path d="M4.33013 -2.5 A5 5 0 0 1 5 -1.22465e-15" /><path d="M-4.58002e-08 -5 A5 5 0 0 1 4.33013 -2.5" /><path d="M-4.33013 -2.5 A5 5 0 0 1 -4.58002e-08 -5" /><path d="M-4.33013 2.5 A5 5 0 0 1 -4.33013 -2.5" /><path d="M3.70531e-08 5 A5 5 0 0 1 -4.33013 2.5" /><path d="M4.33013 2.5 A5 5 0 0 1 3.70531e-08 5" /><path d="M2.45873, 2.19213e-07 L2.45873, 0.000160329 " /><path d="M1.17778, -2.15829 C1.51342, -1.97551 1.80517, -1.71302 2.02228, -1.39849  C2.30524, -0.990978 2.45968, -0.496108 2.45873, 2.19213e-07 " /><path d="M4.33013, 2.5 C4.78797, 1.70699 5.24553, 0.914468 5.7735, 2.50022e-13 " /><path d="M3.70531e-08, 5 C0.915684, 5 1.83081, 5 2.88675, 5 " /><path d="M2.88675, 5 C3.41472, 4.08553 3.87228, 3.29301 4.33013, 2.5 " /><path d="M-4.33013, 2.5 C-3.87228, 3.29301 -3.41472, 4.08553 -2.88675, 5 " /><path d="M-2.88675, 5 C-1.83081, 5 -0.915684, 5 3.70531e-08, 5 " /><path d="M-4.33013, -2.5 C-4.78797, -1.70699 -5.24553, -0.914468 -5.7735, -3.05533e-13 " /><path d="M-5.7735, 1.93179e-13 C-5.24553, 0.914468 -4.78797, 1.70699 -4.33013, 2.5 " /><path d="M-2.88675, -5 C-3.41472, -4.08553 -3.87228, -3.29301 -4.33013, -2.5 " /><path d="M-4.58002e-08, -5 C-0.915684, -5 -1.83081, -5 -2.88675, -5 " /><path d="M2.88675, -5 C1.83081, -5 0.915684, -5 -4.58002e-08, -5 " /><path d="M4.33013, -2.5 C3.87228, -3.29301 3.41472, -4.08553 2.88675, -5 " /><path d="M5.7735, -2.49821e-13 C5.24553, -0.914468 4.78797, -1.70699 4.33013, -2.5 " /><path d="M0.724362, 2.34961 L0.721166, 2.35059 " /><path d="M0.675495, 2.36412 L0.580699, 2.38918 " /></g>

</svg>
