<svg xmlns="http://www.w3.org/2000/svg" viewBox="-6.69726 -5.92376 13.39452 11.84752">
<rect width="100%" height="100%" fill="white"/>
<g   fill="none"
   stroke="rgb(0, 0, 0)"
   stroke-linecap="butt"
   stroke-linejoin="miter"
   stroke-width="0.35"
   transform="scale(1, -1)"
  >
<path d="M1.17778 -2.15829 A2.45873 2.45873 0 0 1 2.45873 -6.02216e-16" /><circle cx ="0" cy ="0" r ="3.375" /><path d="M2.45873 0 A2.45873 2.45873 0 0 1 2.15835 1.17768" /><path d="M2.15835, 1.17768 C1.9175, 1.71683 1.47341, 2.16462 0.931916, 2.4178  C0.368282, 2.68549 -0.295588, 2.73946 -0.903077, 2.57002  C-1.54947, 2.39408 -2.1258, 1.96864 -2.49323, 1.40086  C-2.8919, 0.793789 -3.04568, 0.0299443 -2.91921, -0.691536 " /><path d="M-1.57519, -2.5532 C-1.60741, -2.5402 -1.64742, -2.51999 -1.69521, -2.49259  C-1.90096, -2.37485 -2.15182, -2.16723 -2.34916, -1.92335 " /><path d="M-2.34916, -1.92335 C-2.64589, -1.56638 -2.85118, -1.10364 -2.91921, -0.691536 " /><path d="M1.17778, -2.15829 C0.838787, -2.44795 0.41343, -2.64442 -0.0377107, -2.72253  C-0.546412, -2.81211 -1.08587, -2.75124 -1.57519, -2.5532 " /><path d="M2.45873, 3.28821e-07 C2.46054, 0.585842 2.24304, 1.16886 1.85796, 1.61039  C1.55752, 1.95809 1.15734, 2.21823 0.717626, 2.35168  C0.309475, 2.47677 -0.13141, 2.49257 -0.547469, 2.39701  C-1.06313, 2.28048 -1.53766, 1.99158 -1.87797, 1.58702  C-2.2666, 1.13019 -2.47728, 0.527156 -2.45767, -0.0722994  C-2.4419, -0.678184 -2.19096, -1.27378 -1.76839, -1.70827  C-1.42263, -2.06758 -0.964808, -2.31688 -0.475369, -2.41234  C0.0829311, -2.52401 0.678794, -2.43243 1.17778, -2.15829 " /><path d="M5 0 A5 5 0 0 1 4.33013 2.5" /><path d="M4.33013 -2.5 A5 5 0 0 1 5 -1.22465e-15" /><path d="M-4.58002e-08 -5 A5 5 0 0 1 4.33013 -2.5" /><path d="M-4.33013 -2.5 A5 5 0 0 1 -4.58002e-08 -5" /><path d="M-4.33013 2.5 A5 5 0 0 1 -4.33013 -2.5" /><path d="M3.70531e-08 5 A5 5 0 0 1 -4.33013 2.5" /><path d="M4.33013 2.5 A5 5 0 0 1 3.70531e-08 5" /><path d="M2.45873, 2.19213e-07 L2.45873, 0.000160329 " /><path d="M1.17778, -2.15829 C1.51342, -1.97551 1.80517, -1.71302 2.02228, -1.39849  C2.30524, -0.990978 2.45968, -0.496108 2.45873, 2.19213e-07 " /><path d="M4.33013, 2.5 C4.78797, 1.70699 5.24553, 0.914468 5.7735, 2.50022e-13 " /><path d="M3.70531e-08, 5 C0.915684, 5 1.83081, 5 2.88675, 5 " /><path d="M2.88675, 5 C3.41472, 4.08553 3.87228, 3.29301 4.33013, 2.5 " /><path d="M-4.33013, 2.5 C-3.87228, 3.29301 -3.41472, 4.08553 -2.88675, 5 " /><path d="M-2.88675, 5 C-1.83081, 5 -0.915684, 5 3.70531e-08, 5 " /><path d="M-4.33013, -2.5 C-4.78797, -1.70699 -5.24553, -0.914468 -5.7735, -3.05533e-13 " /><path d="M-5.7735, 1.93179e-13 C-5.24553, 0.914468 -4.78797, 1.70699 -4.33013, 2.5 " /><path d="M-2.88675, -5 C-3.41472, -4.08553 -3.87228, -3.29301 -4.33013, -2.5 " /><path d="M-4.58002e-08, -5 C-0.915684, -5 -1.83081, -5 -2.88675, -5 " /><path d="M2.88675, -5 C1.83081, -5 0.915684, -5 -4.58002e-08, -5 " /><path d="M4.33013, -2.5 C3.87228, -3.29301 3.41472, -4.08553 2.88675, -5 " /><path d="M5.7735, -2.49821e-13 C5.24553, -0.914468 4.78797, -1.70699 4.33013, -2.5 " /><path d="M0.724362, 2.34961 L0.721166, 2.35059 " /><path d="M0.675495, 2.36412 L0.580699, 2.38918 " /></g>

</svg>
