<svg xmlns="http://www.w3.org/2000/svg" viewBox="-8.473688000000001 -8.045588 13.212556 14.096436">
<rect width="100%" height="100%" fill="white"/>
<g   fill="none"
   stroke="rgb(0, 0, 0)"
   stroke-linecap="butt"
   stroke-linejoin="miter"
   stroke-width="0.35"
   transform="scale(1, -1)"
  >
<path id= "1" d=" M -1.15653 6.15255 L -2.75152 7.07342 " />
<path id= "2" d=" M -5.90653 -2.07469 L -7.50152 -1.15382 " />
<path d="M-2.75152 7.07342 A4.75 4.75 0 1 1 -7.50152 -1.15382" /></g>
<g   fill="none"
   stroke="rgb(0, 0, 0)"
   stroke-linecap="butt"
   stroke-linejoin="miter"
   stroke-width="0.35"
   transform="scale(1, -1)"
  >
<path d="M3.7667, 2.53934 C3.60805, 2.94651 3.38461, 3.34901 3.06186, 3.80901 " /><path d="M3.06186, 3.80901 C2.73713, 4.27016 2.31347, 4.78825 1.72546, 5.44331 " /><path d="M-2.35702, -5.07868 C-1.39568, -4.77154 -0.64848, -4.45574 -3.23856e-08, -4.08248 " /><path d="M1.72546, -2.72166 C2.31347, -1.8834 2.73713, -1.1073 3.06186, -0.273475 " /><path d="M-3.23856e-08, -4.08248 C0.646494, -3.70808 1.19348, -3.27669 1.72546, -2.72166 " /><path d="M3.06186, -0.273475 C3.38461, 0.561499 3.60805, 1.45319 3.7667, 2.53934 " /><path id= "7" d=" M 3.7667 2.53934 L 0.968796 4.15471 " />
<path d="M-1.07245, 7.05868 L-1.00056, 6.8843  L-0.919995, 6.7094  L-0.830259, 6.53291  L-0.730797, 6.35374  L-0.620996, 6.17079  L-0.500181, 5.98294  L-0.367606, 5.78901  L-0.222454, 5.58783  L-0.0638327, 5.37814  L0.109237, 5.15867  L0.297821, 4.92805  L0.50308, 4.68486  L0.72628, 4.42761  L0.968796, 4.15471 " /><path id= "9" d=" M 1.72546 5.44331 L -1.07245 7.05868 " />
<path d="M-2.09793, 6.69607 Q-1.62855, 6.88143 -1.07245, 7.05868 " /><path d="M-5.15493, -3.46331 C-5.80839, -2.7352 -6.25979, -2.17559 -6.59624, -1.67648 " /><path id= "12" d=" M -2.35702 -5.07868 L -5.15493 -3.46331 " />
<path d="M-1.07245, -1.10628 L-1.47216, -1.23855  L-1.84724, -1.37275  L-2.2, -1.50972  L-2.53261, -1.65029  L-2.84711, -1.79534  L-3.14545, -1.94576  L-3.42947, -2.10248  L-3.70091, -2.26645  L-3.96144, -2.4387  L-4.21268, -2.62028  L-4.45616, -2.81231  L-4.6934, -3.01598  L-4.92584, -3.23253  L-5.15493, -3.46331 " /><path id= "14" d=" M 1.72546 -2.72166 L -1.07245 -1.10628 " />
<path d="M0.968796, 4.15471 L0.72628, 3.7988  L0.50308, 3.44853  L0.297821, 3.10172  L0.109237, 2.75625  L-0.0638327, 2.40999  L-0.222454, 2.0608  L-0.367606, 1.70653  L-0.500181, 1.345  L-0.620996, 0.973983  L-0.730797, 0.591191  L-0.830259, 0.194266  L-0.919995, -0.219236  L-1.00056, -0.651864  L-1.07245, -1.10628 " /><path d="M-0.172773 3.97811 A4.75 2.74241 60 0 1 -1.15653 6.15255" />
<path d="M-5.90653 -2.07469 A4.75 2.74241 60 0 1 -0.172773 3.97811" />
</g>

</svg>
