<svg xmlns="http://www.w3.org/2000/svg" viewBox="-12.96 -6.7335 13.92 13.467">
<rect width="100%" height="100%" fill="white"/>
<g   fill="none"
   stroke="rgb(0, 0, 0)"
   stroke-linecap="butt"
   stroke-linejoin="miter"
   stroke-width="0.35"
   transform="scale(1, -1)"
  >
<path id= "1" d=" M -5.69216e-16 -5 L -0.446582 -5.7735 " />
<path id= "2" d=" M -4.99434 -4.75 L -4.40342 -5.7735 " />
<path id= "3" d=" M -4.99434 -4.75 L -7.25 -4.75 " />
<path d="M-12 -5.37564e-17 A4.75 4.75 0 0 1 -7.25 -4.75" /></g>
<g   fill="none"
   stroke="rgb(0, 0, 0)"
   stroke-linecap="butt"
   stroke-linejoin="miter"
   stroke-width="0.35"
   transform="scale(1, -1)"
  >
<path d="M0, 4.33013 C0, 4.54755 0, 4.71582 0, 4.82963  C0, 4.94171 0, 4.9991 0, 5 " /><path d="M0, -4.58002e-08 Q0, 0.562675 0, 1.1126  Q0, 1.29319 0, 1.47378  Q0, 1.65024 0, 1.82671  Q0, 1.99806 0, 2.16942  Q0, 2.33471 0, 2.5  Q0, 2.6583 0, 2.8166  Q0, 2.96702 0, 3.11745  Q0, 3.25916 0, 3.40086  Q0, 3.53306 0, 3.66526  Q0, 3.78721 0, 3.90916  Q0, 4.02018 0, 4.13119  Q0, 4.23066 0, 4.33013 " /><path d="M0, -4.33013 Q0, -4.23066 0, -4.13119  Q0, -4.02018 0, -3.90916  Q0, -3.78721 0, -3.66526  Q0, -3.53306 0, -3.40086  Q0, -3.25916 0, -3.11745  Q0, -2.96702 0, -2.8166  Q0, -2.6583 0, -2.5  Q0, -2.33471 0, -2.16942  Q0, -1.99806 0, -1.82671  Q0, -1.65024 0, -1.47378  Q0, -1.29319 0, -1.1126  Q0, -0.562676 0, -4.58002e-08 " /><path d="M0, -5 C0, -4.9991 0, -4.94171 0, -4.82963  C0, -4.71582 0, -4.54755 0, -4.33013 " /><path id= "5" d=" M 0 5 L -0.446582 5.7735 " />
<path d="M-0.446582, -5.7735 C-0.142976, -5.24553 -0.00140444, -4.78797 1.38778e-17, -4.33013 " /><path d="M-0.446582, -2.88675 C-0.142976, -1.83081 -0.00140445, -0.915684 0, -4.58002e-08 " /><path d="M1.38778e-17, -4.33013 C-0.00140445, -3.87228 -0.142976, -3.41472 -0.446582, -2.88675 " /><path d="M-0.446582, 2.88675 C-0.142976, 3.41472 -0.00140445, 3.87228 0, 4.33013 " /><path d="M-1.38778e-17, -4.58002e-08 C-0.00140444, 0.915684 -0.142976, 1.83081 -0.446582, 2.88675 " /><path d="M1.38778e-17, 4.33013 C-0.00140444, 4.78797 -0.142976, 5.24553 -0.446582, 5.7735 " /><path id= "12" d=" M -0.446582 5.7735 L -4.40342 5.7735 " />
<path id= "13" d=" M -0.446582 -5.7735 L -4.40342 -5.7735 " />
<path d="M-4.40342, -2.88675 L-4.52407, -3.10907  L-4.62493, -3.32386  L-4.70662, -3.53245  L-4.76964, -3.73613  L-4.81437, -3.93615  L-4.84111, -4.13374  L-4.85, -4.33013  L-4.84111, -4.52651  L-4.81437, -4.7241  L-4.76964, -4.92412  L-4.70662, -5.1278  L-4.62493, -5.33639  L-4.52407, -5.55119  L-4.40342, -5.7735 " /><path id= "15" d=" M -0.446582 -2.88675 L -4.40342 -2.88675 " />
<path d="M-4.40342, 2.88675 L-4.52407, 2.44212  L-4.62493, 2.01253  L-4.70662, 1.59535  L-4.76964, 1.18799  L-4.81437, 0.787949  L-4.84111, 0.392764  L-4.85, -1.22125e-15  L-4.84111, -0.392764  L-4.81437, -0.787949  L-4.76964, -1.18799  L-4.70662, -1.59535  L-4.62493, -2.01253  L-4.52407, -2.44212  L-4.40342, -2.88675 " /><path id= "17" d=" M -0.446582 2.88675 L -4.40342 2.88675 " />
<path d="M-4.40342, 5.7735 L-4.52407, 5.55119  L-4.62493, 5.33639  L-4.70662, 5.1278  L-4.76964, 4.92412  L-4.81437, 4.7241  L-4.84111, 4.52651  L-4.85, 4.33013  L-4.84111, 4.13374  L-4.81437, 3.93615  L-4.76964, 3.73613  L-4.70662, 3.53245  L-4.62493, 3.32386  L-4.52407, 3.10907  L-4.40342, 2.88675 " /><path id= "19" d=" M -4.40342 5.7735 L -4.99434 4.75 " />
<path d="M-4.99434, -4.75 L-4.99434, -4.63091  L-4.99434, -4.2796  L-4.99434, -3.7137  L-4.99434, -2.96158  L-4.99434, -2.06095  L-4.99434, -1.05697  L-4.99434, -8.88178e-16  L-4.99434, 1.05697  L-4.99434, 2.06095  L-4.99434, 2.96158  L-4.99434, 3.7137  L-4.99434, 4.2796  L-4.99434, 4.63091  L-4.99434, 4.75 " /><path id= "21" d=" M -4.99434 4.75 L -7.25 4.75 " />
<path d="M-7.25 4.75 A4.75 4.75 0 0 1 -12 5.70164e-16" /></g>

</svg>
