<svg xmlns="http://www.w3.org/2000/svg" viewBox="-12.960000000000024 -6.733500000000024 13.920000000000346 13.467000000000048">
<rect width="100%" height="100%" fill="white"/>
<g   fill="none"
   stroke="rgb(165, 165, 165)"
   stroke-dasharray="1.2,0.8"
   stroke-linecap="butt"
   stroke-linejoin="miter"
   stroke-width="0.25"
   transform="scale(1, -1)"
  >
<path d="M-0.15, -0.700344 C-0.137635, -1.20918 -0.131487, -1.73476 -0.132018, -2.10881  C-0.132136, -2.2541 -0.134002, -2.37125 -0.137616, -2.46026  C-0.140225, -2.51839 -0.144294, -2.55904 -0.149999, -2.55793 " /><path d="M-0.149999, -2.55793 Q-0.28143, -2.53291 -0.420633, -2.35835 " /><path d="M-0.420633, -0.695432 L-0.420633, -0.908506  L-0.420633, -1.11394  L-0.420633, -1.31002  L-0.420633, -1.49508  L-0.420633, -1.66757  L-0.420633, -1.82604  L-0.420633, -1.96917  L-0.420633, -2.09574  L-0.420633, -2.2047  L-0.420633, -2.29512  L-0.420633, -2.36625  L-0.420633, -2.41748  L-0.420633, -2.4484  L-0.420633, -2.45873 " /><path d="M-0.420633, -2.45873 Q-0.420633, -2.45824 -0.420633, -2.35835 " /><path d="M-0.283428, 2.73314 C-0.305889, 2.69378 -0.328794, 2.24249 -0.35217, 1.55039  C-0.374533, 0.894901 -0.397339, 0.0359136 -0.420633, -0.695432 " /><path id= "6" d=" M -0.283428 2.73314 L 2.51635e-16 3.3 " />
<path d="M0, 3.3 L0, 3.21726  L0, 2.9732  L0, 2.58004  L0, 2.05752  L0, 1.43182  L0, 0.734319  L0, 2.22045e-16  L0, -0.734319  L0, -1.43182  L0, -2.05752  L0, -2.58004  L0, -2.9732  L0, -3.21726  L0, -3.3 " /><path d="M0, -3.3 L0, -3.21726  L0, -2.9732  L0, -2.58004  L0, -2.05752  L0, -1.43182  L0, -0.734319  L0, -5.55112e-16  L0, 0.734319  L0, 1.43182  L0, 2.05752  L0, 2.58004  L0, 2.9732  L0, 3.21726  L0, 3.3 " /><path d="M-0.283428, 2.73314 Q-0.279728, 2.74054 -0.276043, 2.73419 " /><path d="M-0.276043, 2.73419 C-0.256181, 2.70294 -0.236659, 2.35527 -0.21744, 1.79578  C-0.194536, 1.13379 -0.172072, 0.182277 -0.15, -0.700344 " /><path d="M-0.420633, -2.35835 C-0.444525, -2.25118 -0.468418, -2.07191 -0.492311, -1.82053  C-0.526167, -1.46963 -0.56002, -0.991349 -0.593876, -0.477752  C-0.622489, -0.0441198 -0.651104, 0.412647 -0.679716, 0.828745  C-0.710789, 1.28117 -0.741858, 1.68361 -0.772932, 1.97024  C-0.806956, 2.28581 -0.840984, 2.45992 -0.874998, 2.45873 " /><path id= "12" d=" M -0.874998 2.45873 L -1.12499 2.45873 " />
<path d="M-0.420633, -0.695432 C-0.452074, -1.1618 -0.483512, -1.58494 -0.514955, -1.89411  C-0.545712, -2.19781 -0.57647, -2.39126 -0.607227, -2.44342 " /><path d="M-0.607227, -2.44342 Q-0.616112, -2.45873 -0.624997, -2.45873 " /><path d="M-0.624997, -2.45873 C-0.665284, -2.46103 -0.70557, -2.21386 -0.74586, -1.78313  C-0.778587, -1.43559 -0.811317, -0.97169 -0.844042, -0.475183  C-0.874459, -0.0141044 -0.904872, 0.472912 -0.935288, 0.909383  C-0.966329, 1.35544 -0.997378, 1.74687 -1.02842, 2.01978  C-1.05469, 2.25451 -1.08096, 2.39573 -1.10722, 2.44343 " /><path d="M-1.10722, 2.44343 Q-1.11611, 2.45873 -1.12499, 2.45873 " /><path d="M0, 5 C0, 4.9991 0, 4.94171 0, 4.82963  C0, 4.71582 0, 4.54755 0, 4.33013 " /><path d="M0, -4.33013 C0, -4.54755 0, -4.71582 0, -4.82963  C0, -4.94171 0, -4.9991 0, -5 " /><path d="M0, 3.70531e-08 Q0, -0.374236 0, -0.745211  Q0, -1.11435 0, -1.47378  Q0, -1.65024 0, -1.82671  Q0, -1.99806 0, -2.16942  Q0, -2.33471 0, -2.5  Q0, -2.6583 0, -2.8166  Q0, -2.96702 0, -3.11745  Q0, -3.25916 0, -3.40086  Q0, -3.53306 0, -3.66526  Q0, -3.78721 0, -3.90916  Q0, -4.02018 0, -4.13119  Q0, -4.23066 0, -4.33013 " /><path d="M0, 4.33013 Q0, 4.23066 0, 4.13119  Q0, 4.02018 0, 3.90916  Q0, 3.78721 0, 3.66526  Q0, 3.53306 0, 3.40086  Q0, 3.25916 0, 3.11745  Q0, 2.96702 0, 2.8166  Q0, 2.6583 0, 2.5  Q0, 2.33471 0, 2.16942  Q0, 1.99806 0, 1.82671  Q0, 1.65024 0, 1.47378  Q0, 1.11435 0, 0.745211  Q0, 0.374236 0, 3.70531e-08 " /><path d="M-0.874998, 2.45873 Q-0.883883, 2.45873 -0.892769, 2.44342 " /><path d="M-0.892769, 2.44342 C-0.922933, 2.39222 -0.95309, 2.20528 -0.983255, 1.9115  C-1.04205, 1.34468 -1.10084, 0.358641 -1.15963, -0.53088  C-1.1927, -1.03025 -1.22578, -1.49251 -1.25885, -1.83254  C-1.29757, -2.23319 -1.33628, -2.4607 -1.37499, -2.45873 " /><path d="M-1.37499, -2.45873 Q-1.38388, -2.45873 -1.39276, -2.44342 " /><path d="M-1.39276, -2.44342 C-1.42606, -2.38716 -1.45936, -2.16447 -1.49266, -1.81689  C-1.52609, -1.46952 -1.55952, -0.998239 -1.59296, -0.491655  C-1.65296, 0.419713 -1.71295, 1.42114 -1.77295, 1.97042  C-1.80697, 2.28588 -1.84099, 2.45992 -1.875, 2.45873 " /><path id= "25" d=" M -1.875 2.45873 L -2.12499 2.45873 " />
<path d="M-1.12499, 2.45873 C-1.16292, 2.46055 -1.20087, 2.24239 -1.23882, 1.85626  C-1.26772, 1.5639 -1.29661, 1.17753 -1.32551, 0.752183  C-1.38841, -0.175699 -1.45132, -1.26914 -1.51423, -1.88701  C-1.54523, -2.19475 -1.57623, -2.39087 -1.60722, -2.44343 " /><path d="M-1.60722, -2.44343 Q-1.61611, -2.45873 -1.62499, -2.45873 " /><path d="M-1.62499, -2.45873 C-1.66537, -2.46105 -1.70574, -2.21276 -1.74612, -1.78034  C-1.77871, -1.43364 -1.8113, -0.971749 -1.84389, -0.477403  C-1.87464, -0.0113613 -1.90539, 0.481305 -1.93614, 0.921599  C-1.96706, 1.36502 -1.99799, 1.75354 -2.02892, 2.02418  C-2.05502, 2.25632 -2.08112, 2.39607 -2.10722, 2.44343 " /><path d="M-2.10722, 2.44343 Q-2.1161, 2.45873 -2.12499, 2.45873 " /><path d="M-0.446582, 5.7735 C-0.142976, 5.24553 -0.00140445, 4.78797 -1.38778e-17, 4.33013 " /><path d="M-1.38778e-17, 4.33013 C-0.00140444, 3.87228 -0.142976, 3.41472 -0.446582, 2.88675 " /><path d="M-0.446582, 2.88675 C-0.142976, 1.83081 -0.00140445, 0.915684 0, 3.70531e-08 " /><path d="M0, 3.70531e-08 C-0.00140444, -0.915684 -0.142976, -1.83081 -0.446582, -2.88675 " /><path d="M-0.446582, -2.88675 C-0.142976, -3.41472 -0.00140445, -3.87228 0, -4.33013 " /><path d="M0, -4.33013 C-0.00140444, -4.78797 -0.142976, -5.24553 -0.446582, -5.7735 " /><path d="M-1.875, 2.45873 Q-1.88388, 2.45873 -1.89277, 2.44342 " /><path d="M-1.89277, 2.44342 C-1.92293, 2.39222 -1.95309, 2.20528 -1.98325, 1.91149  C-2.04206, 1.34462 -2.10085, 0.358441 -2.15965, -0.531142  C-2.19273, -1.03071 -2.22582, -1.49312 -2.25891, -1.83315  C-2.29761, -2.23343 -2.3363, -2.46069 -2.37499, -2.45873 " /><path d="M-2.37499, -2.45873 Q-2.38388, -2.45873 -2.39276, -2.44342 " /><path d="M-2.39276, -2.44342 C-2.42589, -2.38743 -2.45902, -2.16677 -2.49215, -1.8222  C-2.52573, -1.47455 -2.5593, -1.00153 -2.59288, -0.492786  C-2.65285, 0.418085 -2.71282, 1.41922 -2.77279, 1.969  C-2.80686, 2.28535 -2.84094, 2.45993 -2.87499, 2.45873 " /><path id= "40" d=" M -2.87499 2.45873 L -3.12498 2.45873 " />
<path d="M-2.12499, 2.45873 C-2.16286, 2.46054 -2.20076, 2.24304 -2.23865, 1.85796  C-2.26838, 1.55752 -2.29811, 1.15734 -2.32785, 0.717626  C-2.38967, -0.198407 -2.45149, -1.26634 -2.51332, -1.87797  C-2.54462, -2.19086 -2.57592, -2.39038 -2.60722, -2.44343 " /><path d="M-2.60722, -2.44343 Q-2.6161, -2.45873 -2.62499, -2.45873 " /><path d="M-2.62499, -2.45873 C-2.66574, -2.46113 -2.70648, -2.20805 -2.74723, -1.76839  C-2.77949, -1.42263 -2.81176, -0.964808 -2.84402, -0.475369  C-2.87449, -0.0135605 -2.90495, 0.474278 -2.93541, 0.911299  C-2.96645, 1.35718 -2.9975, 1.74834 -3.02854, 2.02091  C-3.05477, 2.25498 -3.08099, 2.39582 -3.10722, 2.44343 " /><path d="M-3.10722, 2.44343 Q-3.1161, 2.45873 -3.12498, 2.45873 " /><path d="M-4.40342, 2.88675 L-4.52407, 3.10907  L-4.62493, 3.32386  L-4.70662, 3.53245  L-4.76964, 3.73613  L-4.81437, 3.93615  L-4.84111, 4.13374  L-4.85, 4.33013  L-4.84111, 4.52651  L-4.81437, 4.7241  L-4.76964, 4.92412  L-4.70662, 5.1278  L-4.62493, 5.33639  L-4.52407, 5.55119  L-4.40342, 5.7735 " /><path id= "46" d=" M -0.446582 2.88675 L -4.40342 2.88675 " />
<path d="M-4.40342, -2.88675 L-4.52407, -2.44212  L-4.62493, -2.01253  L-4.70662, -1.59535  L-4.76964, -1.18799  L-4.81437, -0.787949  L-4.84111, -0.392764  L-4.85, 2.22045e-16  L-4.84111, 0.392764  L-4.81437, 0.787949  L-4.76964, 1.18799  L-4.70662, 1.59535  L-4.62493, 2.01253  L-4.52407, 2.44212  L-4.40342, 2.88675 " /><path id= "48" d=" M -0.446582 -2.88675 L -4.40342 -2.88675 " />
<path d="M-4.40342, -5.7735 L-4.52407, -5.55119  L-4.62493, -5.33639  L-4.70662, -5.1278  L-4.76964, -4.92412  L-4.81437, -4.7241  L-4.84111, -4.52651  L-4.85, -4.33013  L-4.84111, -4.13374  L-4.81437, -3.93615  L-4.76964, -3.73613  L-4.70662, -3.53245  L-4.62493, -3.32386  L-4.52407, -3.10907  L-4.40342, -2.88675 " /><path d="M-2.87499, 2.45873 Q-2.88388, 2.45873 -2.89277, 2.44342 " /><path d="M-2.89277, 2.44342 C-2.92304, 2.39204 -2.95331, 2.20389 -2.98358, 1.90828  C-3.04231, 1.34067 -3.10103, 0.355684 -3.15974, -0.532572  C-3.19281, -1.03189 -3.22589, -1.49399 -3.25896, -1.83375  C-3.29764, -2.23366 -3.33631, -2.46069 -3.37499, -2.45873 " /><path d="M-3.37499, -2.45873 Q-3.38388, -2.45873 -3.39276, -2.44342 " /><path d="M-3.39276, -2.44342 C-3.42592, -2.38737 -3.45909, -2.1663 -3.49225, -1.82112  C-3.52605, -1.47098 -3.55984, -0.993865 -3.59363, -0.481322  C-3.65309, 0.422415 -3.71253, 1.41264 -3.77198, 1.96149  C-3.80632, 2.28252 -3.84066, 2.45996 -3.87499, 2.45873 " /><path id= "54" d=" M -3.87499 2.45873 L -4.12498 2.45873 " />
<path d="M-3.12498, 2.45873 C-3.16286, 2.46054 -3.20075, 2.24304 -3.23864, 1.85796  C-3.26837, 1.5576 -3.29809, 1.15756 -3.32782, 0.717978  C-3.39011, -0.204988 -3.45239, -1.28184 -3.51468, -1.89154  C-3.54553, -2.1967 -3.57637, -2.39112 -3.60722, -2.44343 " /><path d="M-3.60722, -2.44343 Q-3.6161, -2.45873 -3.62498, -2.45873 " /><path d="M-3.62498, -2.45873 C-3.66574, -2.46113 -3.70648, -2.20801 -3.74724, -1.76829  C-3.7795, -1.42247 -3.81177, -0.964557 -3.84404, -0.475047  C-3.8746, -0.0118546 -3.90515, 0.4775 -3.9357, 0.915493  C-3.96659, 1.35888 -3.99749, 1.74786 -4.02838, 2.01951  C-4.05466, 2.2544 -4.08094, 2.39571 -4.10721, 2.44343 " /><path d="M-4.10721, 2.44343 Q-4.1161, 2.45873 -4.12498, 2.45873 " /><path d="M-4.99434, 4.75 L-4.99434, 4.63091  L-4.99434, 4.2796  L-4.99434, 3.7137  L-4.99434, 2.96158  L-4.99434, 2.06095  L-4.99434, 1.05697  L-4.99434, 2.22045e-16  L-4.99434, -1.05697  L-4.99434, -2.06095  L-4.99434, -2.96158  L-4.99434, -3.7137  L-4.99434, -4.2796  L-4.99434, -4.63091  L-4.99434, -4.75 " /><path d="M-3.87499, 2.45873 Q-3.88388, 2.45873 -3.89276, 2.44342 " /><path d="M-3.89276, 2.44342 C-3.92304, 2.39204 -3.95331, 2.20389 -3.98358, 1.90827  C-4.0423, 1.34069 -4.10102, 0.355775 -4.15973, -0.532448  C-4.1928, -1.03167 -4.22587, -1.49369 -4.25893, -1.83346  C-4.29762, -2.23354 -4.3363, -2.46069 -4.37499, -2.45873 " /><path d="M-4.37499, -2.45873 Q-4.38387, -2.45873 -4.39276, -2.44342 " /><path d="M-4.39276, -2.44342 C-4.42595, -2.38733 -4.45913, -2.16596 -4.49232, -1.82034  C-4.52619, -1.46928 -4.56005, -0.990771 -4.59392, -0.476973  C-4.65329, 0.425771 -4.71265, 1.41381 -4.77201, 1.96175  C-4.80634, 2.28262 -4.84067, 2.45996 -4.87499, 2.45873 " /><path id= "64" d=" M -4.87499 2.45873 L -5.12498 2.45873 " />
<path d="M-4.12498, 2.45873 C-4.16285, 2.46054 -4.20075, 2.24304 -4.23864, 1.85796  C-4.26836, 1.55768 -4.29807, 1.15778 -4.32779, 0.718347  C-4.38998, -0.203129 -4.45217, -1.27819 -4.51436, -1.88845  C-4.54531, -2.19537 -4.57626, -2.39095 -4.60721, -2.44343 " /><path d="M-4.60721, -2.44343 Q-4.6161, -2.45873 -4.62498, -2.45873 " /><path d="M-4.62498, -2.45873 C-4.66502, -2.46097 -4.70505, -2.217 -4.74509, -1.79112  C-4.77819, -1.4414 -4.81129, -0.972052 -4.84439, -0.469645  C-4.87475, -0.00923632 -4.90511, 0.476702 -4.93546, 0.912131  C-4.96663, 1.35983 -4.99781, 1.75227 -5.02898, 2.02487  C-5.05506, 2.25661 -5.08114, 2.39613 -5.10721, 2.44343 " /><path d="M-5.10721, 2.44343 Q-5.11609, 2.45873 -5.12498, 2.45873 " /><path d="M-4.87499, 2.45873 Q-4.88388, 2.45873 -4.89276, 2.44342 " /><path d="M-4.89276, 2.44342 C-4.92304, 2.39204 -4.9533, 2.20389 -4.98358, 1.90827  C-5.0423, 1.34072 -5.10101, 0.355867 -5.15972, -0.532324  C-5.19278, -1.03145 -5.22584, -1.4934 -5.2589, -1.83317  C-5.2976, -2.23343 -5.33629, -2.46069 -5.37499, -2.45873 " /><path d="M-5.37499, -2.45873 Q-5.38387, -2.45873 -5.39276, -2.44342 " /><path d="M-5.39276, -2.44342 C-5.42597, -2.3873 -5.45918, -2.16567 -5.49239, -1.81966  C-5.52629, -1.4681 -5.56018, -0.988859 -5.59409, -0.474435  C-5.65329, 0.426062 -5.7125, 1.41095 -5.7717, 1.95888  C-5.80613, 2.28154 -5.84057, 2.45998 -5.87499, 2.45873 " /><path id= "73" d=" M -5.87499 2.45873 L -6.12497 2.45873 " />
<path d="M-5.12498, 2.45873 C-5.16285, 2.46054 -5.20075, 2.24304 -5.23863, 1.85797  C-5.26835, 1.55776 -5.29805, 1.15798 -5.32776, 0.71868  C-5.3898, -0.200411 -5.45183, -1.27254 -5.51387, -1.88359  C-5.54498, -2.19328 -5.5761, -2.39068 -5.60721, -2.44343 " /><path d="M-5.60721, -2.44343 Q-5.61609, -2.45873 -5.62498, -2.45873 " /><path d="M-5.62498, -2.45873 C-5.66504, -2.46098 -5.70511, -2.21664 -5.74517, -1.79019  C-5.77806, -1.44247 -5.81096, -0.976728 -5.84385, -0.477841  C-5.8748, -0.00878083 -5.90574, 0.487268 -5.93669, 0.929777  C-5.96736, 1.36884 -5.99803, 1.7535 -6.0287, 2.02239  C-6.05487, 2.25559 -6.08104, 2.39593 -6.10721, 2.44343 " /><path d="M-6.10721, 2.44343 Q-6.11609, 2.45873 -6.12497, 2.45873 " /><path d="M-5.87499, 2.45873 Q-5.88387, 2.45873 -5.89276, 2.44342 " /><path d="M-5.89276, 2.44342 C-5.92303, 2.39204 -5.9533, 2.20389 -5.98358, 1.90827  C-6.0423, 1.34074 -6.101, 0.355961 -6.15971, -0.532197  C-6.19276, -1.03123 -6.22582, -1.49311 -6.25887, -1.83287  C-6.29758, -2.23331 -6.33628, -2.46069 -6.37499, -2.45873 " /><path d="M-6.37499, -2.45873 Q-6.38387, -2.45873 -6.39276, -2.44342 " /><path d="M-6.39276, -2.44342 C-6.42589, -2.38742 -6.45902, -2.16668 -6.49216, -1.822  C-6.52581, -1.47353 -6.55946, -0.999113 -6.59312, -0.48906  C-6.65306, 0.421675 -6.713, 1.42173 -6.77295, 1.97048  C-6.80696, 2.2859 -6.84098, 2.45992 -6.87499, 2.45873 " /><path id= "82" d=" M -6.87499 2.45873 L -7.12497 2.45873 " />
<path d="M-6.12497, 2.45873 C-6.16285, 2.46054 -6.20074, 2.24304 -6.23863, 1.85797  C-6.26833, 1.55784 -6.29803, 1.1582 -6.32773, 0.719043  C-6.38954, -0.196491 -6.45134, -1.26421 -6.51314, -1.87637  C-6.54449, -2.19017 -6.57585, -2.39029 -6.6072, -2.44343 " /><path d="M-6.6072, -2.44343 Q-6.61609, -2.45873 -6.62497, -2.45873 " /><path d="M-6.62497, -2.45873 C-6.66547, -2.46107 -6.70596, -2.21124 -6.74646, -1.77647  C-6.77918, -1.42754 -6.81191, -0.962734 -6.84463, -0.465937  C-6.87514, -0.00301654 -6.90565, 0.485479 -6.93617, 0.922358  C-6.96706, 1.36524 -6.99796, 1.7533 -7.02885, 2.02377  C-7.05497, 2.25615 -7.08109, 2.39604 -7.1072, 2.44343 " /><path d="M-7.1072, 2.44343 Q-7.11608, 2.45873 -7.12497, 2.45873 " /><path d="M-6.87499, 2.45873 Q-6.88387, 2.45873 -6.89276, 2.44342 " /><path d="M-6.89276, 2.44342 C-6.92303, 2.39204 -6.9533, 2.20389 -6.98358, 1.90827  C-7.04229, 1.34077 -7.101, 0.356054 -7.1597, -0.532071  C-7.19275, -1.031 -7.2258, -1.49281 -7.25884, -1.83257  C-7.29756, -2.23318 -7.33627, -2.4607 -7.37498, -2.45873 " /><path d="M-7.37498, -2.45873 Q-7.38387, -2.45873 -7.39275, -2.44342 " /><path d="M-7.39275, -2.44342 C-7.4258, -2.38756 -7.45885, -2.16787 -7.49189, -1.82476  C-7.52554, -1.47701 -7.55918, -1.00317 -7.59283, -0.493415  C-7.65248, 0.412474 -7.71213, 1.40811 -7.77178, 1.9597  C-7.80619, 2.28185 -7.84059, 2.45997 -7.87499, 2.45873 " /><path id= "91" d=" M -7.87499 2.45873 L -8.12496 2.45873 " />
<path d="M-7.12497, 2.45873 C-7.16284, 2.46054 -7.20074, 2.24304 -7.23863, 1.85797  C-7.26832, 1.55792 -7.29801, 1.15842 -7.32771, 0.7194  C-7.38995, -0.202663 -7.45218, -1.27878 -7.51442, -1.88916  C-7.54535, -2.19568 -7.57628, -2.39099 -7.6072, -2.44343 " /><path d="M-7.6072, -2.44343 Q-7.61608, -2.45873 -7.62497, -2.45873 " /><path d="M-7.62497, -2.45873 C-7.66507, -2.46098 -7.70516, -2.21625 -7.74526, -1.7892  C-7.77814, -1.44141 -7.81101, -0.975782 -7.84389, -0.477091  C-7.87458, -0.0118456 -7.90528, 0.479916 -7.93597, 0.919603  C-7.96678, 1.36148 -7.99759, 1.74902 -8.0284, 2.01986  C-8.05467, 2.25455 -8.08093, 2.39574 -8.1072, 2.44343 " /><path d="M-8.1072, 2.44343 Q-8.11608, 2.45873 -8.12496, 2.45873 " /><path d="M-8.31275, 2.78396 Q-8.30874, 2.79058 -8.30474, 2.78369 " /><path d="M-8.30474, 2.78369 C-8.28551, 2.75239 -8.26653, 2.4761 -8.2478, 2.02063  C-8.22547, 1.48137 -8.20348, 0.692229 -8.18181, -0.107279 " /><path d="M-8.18181, -0.107279 C-8.16813, -0.62231 -8.16047, -1.17494 -8.15994, -1.6107  C-8.15989, -1.78533 -8.16105, -1.94398 -8.16522, -2.06067  C-8.16829, -2.14768 -8.17383, -2.21083 -8.18181, -2.19582 " /><path d="M-7.87499, 2.45873 Q-7.88387, 2.45873 -7.89276, 2.44342 " /><path d="M-7.89276, 2.44342 C-7.92303, 2.39203 -7.9533, 2.20389 -7.98357, 1.90827  C-8.04229, 1.34079 -8.10099, 0.356152 -8.15969, -0.531938  C-8.19774, -1.10674 -8.23579, -1.63086 -8.27383, -1.97862  C-8.30755, -2.28896 -8.34126, -2.45988 -8.37498, -2.45873 " /><path d="M-8.37498, -2.45873 Q-8.38387, -2.45873 -8.39275, -2.44342 " /><path d="M-8.39275, -2.44342 C-8.43179, -2.37817 -8.47083, -2.08129 -8.50986, -1.62748 " /><path d="M-8.18181, -2.19582 Q-8.34493, -1.89882 -8.50986, -1.62748 " /><path d="M-8.50986, -1.84328 C-8.50986, -2.03887 -8.50986, -2.19411 -8.50986, -2.29973  C-8.50986, -2.40386 -8.50986, -2.45794 -8.50986, -2.45873 " /><path d="M-8.50986, -2.45873 Q-8.50986, -2.45648 -8.50986, -2.45423  Q-8.50986, -2.44749 -8.50986, -2.44074  Q-8.50986, -2.42952 -8.50986, -2.41831  Q-8.50986, -2.40266 -8.50986, -2.38702  Q-8.50986, -2.367 -8.50986, -2.34698  Q-8.50986, -2.32267 -8.50986, -2.29835  Q-8.50986, -2.26983 -8.50986, -2.24131  Q-8.50986, -2.17828 -8.50986, -2.10282  Q-8.50986, -2.06236 -8.50986, -2.02189  Q-8.50986, -1.93554 -8.50986, -1.83814  Q-8.50986, -1.73777 -8.50986, -1.62748 " /><path d="M-8.12496, 2.45873 C-8.16284, 2.46054 -8.20073, 2.24304 -8.23862, 1.85797  C-8.26831, 1.558 -8.29799, 1.15863 -8.32768, 0.719739  C-8.38841, -0.179543 -8.44913, -1.22679 -8.50986, -1.84328 " /><path d="M-8.31275, 2.78396 C-8.32918, 2.75798 -8.34579, 2.55565 -8.36261, 2.21164  C-8.37883, 1.88181 -8.39522, 1.42197 -8.41182, 0.911498  C-8.44373, -0.0705865 -8.47638, -1.2211 -8.50986, -1.84328 " /><path id= "108" d=" M -10 0 L -8.31275 2.78396 " />
</g>
<g   fill="none"
   stroke="rgb(165, 165, 165)"
   stroke-dasharray="1.2,0.8"
   stroke-linecap="butt"
   stroke-linejoin="miter"
   stroke-width="0.25"
   transform="scale(1, -1)"
  >
<path id= "1" d=" M -0.420633 -2.45873 L 2.98705e-13 -3.3 " />
<path d="M-0.422916, 2.98742 L-0.276043, 2.73419 " /><path d="M-0.422916, 2.98742 Q-0.434083, 3.00628 -0.447069, 3.01666  Q-0.471293, 3.03609 -0.499998, 3.03609 " /><path id= "4" d=" M -0.420633 -2.45873 L -0.624996 -2.45873 " />
<path d="M-0.922916, -2.98741 L-0.607227, -2.44342 " /><path d="M-1.42292, 2.98742 L-1.10722, 2.44343 " /><path d="M-0.577086, 2.98741 Q-0.565919, 3.00628 -0.552933, 3.01666  Q-0.528705, 3.03609 -0.499998, 3.03609 " /><path d="M-1.07708, -2.98741 C-1.05573, -3.02492 -1.02337, -3.03632 -0.999991, -3.03608  C-0.986268, -3.03607 -0.973146, -3.03268 -0.960626, -3.02589  C-0.946579, -3.01868 -0.934009, -3.00585 -0.922916, -2.98741 " /><path d="M-1.42292, 2.98742 Q-1.43408, 3.00628 -1.44707, 3.01667  Q-1.47129, 3.03609 -1.5, 3.03609 " /><path d="M-0.892769, 2.44342 L-0.577086, 2.98741 " /><path d="M-1.39276, -2.44342 L-1.07708, -2.98741 " /><path id= "12" d=" M -1.37499 -2.45873 L -1.62499 -2.45873 " />
<path d="M-1.92292, -2.98742 L-1.60722, -2.44343 " /><path d="M-2.42292, 2.98742 L-2.10722, 2.44343 " /><path d="M-1.57709, 2.98742 Q-1.56592, 3.00628 -1.55293, 3.01666  Q-1.52871, 3.03609 -1.5, 3.03609 " /><path d="M-2.07708, -2.98741 C-2.05573, -3.02492 -2.02337, -3.03632 -1.99999, -3.03609  C-1.98627, -3.03608 -1.97315, -3.03268 -1.96063, -3.02589  C-1.94658, -3.01868 -1.93401, -3.00586 -1.92292, -2.98742 " /><path d="M-2.42292, 2.98742 Q-2.43408, 3.00629 -2.44707, 3.01667  Q-2.47129, 3.0361 -2.5, 3.03609 " /><path d="M-1.89277, 2.44342 L-1.57709, 2.98742 " /><path d="M-2.39276, -2.44342 L-2.07708, -2.98741 " /><path id= "20" d=" M -2.37499 -2.45873 L -2.62499 -2.45873 " />
<path d="M-2.92292, -2.98742 L-2.60722, -2.44343 " /><path d="M-3.42292, 2.98742 L-3.10722, 2.44343 " /><path d="M-2.57709, 2.98742 Q-2.56592, 3.00628 -2.55293, 3.01667  Q-2.52871, 3.0361 -2.5, 3.03609 " /><path d="M-3.07708, -2.98742 C-3.05573, -3.02493 -3.02337, -3.03633 -2.99999, -3.03609  C-2.98627, -3.03608 -2.97315, -3.03268 -2.96063, -3.02589  C-2.94658, -3.01868 -2.93401, -3.00586 -2.92292, -2.98742 " /><path d="M-3.42292, 2.98742 Q-3.43408, 3.00629 -3.44707, 3.01667  Q-3.47129, 3.0361 -3.5, 3.03609 " /><path d="M-2.89277, 2.44342 L-2.57709, 2.98742 " /><path d="M-3.39276, -2.44342 L-3.07708, -2.98742 " /><path id= "28" d=" M -3.37499 -2.45873 L -3.62498 -2.45873 " />
<path d="M-3.92292, -2.98742 L-3.60722, -2.44343 " /><path d="M-4.42292, 2.98743 L-4.10721, 2.44343 " /><path d="M-3.57709, 2.98742 Q-3.56592, 3.00629 -3.55293, 3.01667  Q-3.52871, 3.0361 -3.5, 3.03609 " /><path d="M-4.07708, -2.98742 C-4.05573, -3.02493 -4.02337, -3.03633 -3.99999, -3.03609  C-3.98627, -3.03608 -3.97315, -3.03268 -3.96063, -3.0259  C-3.94658, -3.01868 -3.93401, -3.00586 -3.92292, -2.98742 " /><path d="M-4.42292, 2.98743 Q-4.43408, 3.00629 -4.44707, 3.01667  Q-4.47129, 3.0361 -4.5, 3.03609 " /><path d="M-3.89276, 2.44342 L-3.57709, 2.98742 " /><path d="M-4.39276, -2.44342 L-4.07708, -2.98742 " /><path id= "36" d=" M -4.37499 -2.45873 L -4.62498 -2.45873 " />
<path d="M-4.92292, -2.98742 L-4.60721, -2.44343 " /><path d="M-5.42292, 2.98743 L-5.10721, 2.44343 " /><path d="M-4.57709, 2.98742 Q-4.56592, 3.00629 -4.55293, 3.01667  Q-4.52871, 3.0361 -4.5, 3.03609 " /><path d="M-5.07708, -2.98742 C-5.05573, -3.02493 -5.02337, -3.03633 -4.99999, -3.03609  C-4.98627, -3.03608 -4.97315, -3.03268 -4.96063, -3.0259  C-4.94658, -3.01869 -4.93401, -3.00586 -4.92292, -2.98742 " /><path d="M-5.42292, 2.98743 Q-5.43408, 3.00629 -5.44707, 3.01667  Q-5.47129, 3.0361 -5.5, 3.0361 " /><path d="M-4.89276, 2.44342 L-4.57709, 2.98742 " /><path d="M-5.39276, -2.44342 L-5.07708, -2.98742 " /><path id= "44" d=" M -5.37499 -2.45873 L -5.62498 -2.45873 " />
<path d="M-5.92292, -2.98743 L-5.60721, -2.44343 " /><path d="M-6.42292, 2.98743 L-6.10721, 2.44343 " /><path d="M-5.57709, 2.98742 Q-5.56592, 3.00629 -5.55293, 3.01667  Q-5.52871, 3.0361 -5.5, 3.0361 " /><path d="M-6.07708, -2.98742 C-6.05573, -3.02493 -6.02337, -3.03633 -5.99999, -3.03609  C-5.98627, -3.03608 -5.97315, -3.03269 -5.96063, -3.0259  C-5.94658, -3.01869 -5.93401, -3.00586 -5.92292, -2.98743 " /><path d="M-6.42292, 2.98743 Q-6.43408, 3.00629 -6.44707, 3.01668  Q-6.47129, 3.0361 -6.5, 3.0361 " /><path d="M-5.89276, 2.44342 L-5.57709, 2.98742 " /><path d="M-6.39276, -2.44342 L-6.07708, -2.98742 " /><path id= "52" d=" M -6.37499 -2.45873 L -6.62497 -2.45873 " />
<path d="M-6.92292, -2.98743 L-6.6072, -2.44343 " /><path d="M-7.42292, 2.98743 L-7.1072, 2.44343 " /><path d="M-6.57709, 2.98742 Q-6.56592, 3.00629 -6.55293, 3.01667  Q-6.52871, 3.0361 -6.5, 3.0361 " /><path d="M-7.07708, -2.98742 C-7.05573, -3.02493 -7.02337, -3.03633 -6.99999, -3.0361  C-6.98627, -3.03609 -6.97315, -3.03269 -6.96063, -3.0259  C-6.94658, -3.01869 -6.93401, -3.00587 -6.92292, -2.98743 " /><path d="M-7.42292, 2.98743 Q-7.43408, 3.0063 -7.44707, 3.01668  Q-7.47129, 3.0361 -7.5, 3.0361 " /><path d="M-6.89276, 2.44342 L-6.57709, 2.98742 " /><path d="M-7.39275, -2.44342 L-7.07708, -2.98742 " /><path id= "60" d=" M -7.37498 -2.45873 L -7.62497 -2.45873 " />
<path d="M-7.92292, -2.98743 L-7.6072, -2.44343 " /><path d="M-8.1072, 2.44343 L-8.30474, 2.78369 " /><path d="M-7.57709, 2.98742 Q-7.56592, 3.00629 -7.55293, 3.01667  Q-7.52871, 3.03611 -7.5, 3.0361 " /><path d="M-8.07708, -2.98742 C-8.05573, -3.02494 -8.02337, -3.03633 -7.99999, -3.0361  C-7.98627, -3.03609 -7.97315, -3.03269 -7.96063, -3.0259  C-7.94658, -3.01869 -7.93401, -3.00587 -7.92292, -2.98743 " /><path d="M-7.89276, 2.44342 L-7.57709, 2.98742 " /><path d="M-8.39275, -2.44342 L-8.07708, -2.98742 " /><path id= "67" d=" M -8.37498 -2.45873 L -8.50986 -2.45873 " />
<path id= "68" d=" M -10 2.3245e-16 L -8.50986 -2.45873 " />
</g>
<g   fill="none"
   stroke="rgb(0, 0, 0)"
   stroke-linecap="butt"
   stroke-linejoin="miter"
   stroke-width="0.35"
   transform="scale(1, -1)"
  >
<path id= "1" d=" M -5.69216e-16 -5 L -0.446582 -5.7735 " />
<path id= "2" d=" M -4.99434 -4.75 L -4.40342 -5.7735 " />
<path id= "3" d=" M -4.99434 -4.75 L -7.25 -4.75 " />
<path d="M-12 -5.37564e-17 A4.75 4.75 0 0 1 -7.25 -4.75" /></g>
<g   fill="none"
   stroke="rgb(0, 0, 0)"
   stroke-linecap="butt"
   stroke-linejoin="miter"
   stroke-width="0.35"
   transform="scale(1, -1)"
  >
<path d="M0, 4.33013 C0, 4.54755 0, 4.71582 0, 4.82963  C0, 4.94171 0, 4.9991 0, 5 " /><path d="M0, -4.58002e-08 Q0, 0.562675 0, 1.1126  Q0, 1.29319 0, 1.47378  Q0, 1.65024 0, 1.82671  Q0, 1.99806 0, 2.16942  Q0, 2.33471 0, 2.5  Q0, 2.6583 0, 2.8166  Q0, 2.96702 0, 3.11745  Q0, 3.25916 0, 3.40086  Q0, 3.53306 0, 3.66526  Q0, 3.78721 0, 3.90916  Q0, 4.02018 0, 4.13119  Q0, 4.23066 0, 4.33013 " /><path d="M0, -4.33013 Q0, -4.23066 0, -4.13119  Q0, -4.02018 0, -3.90916  Q0, -3.78721 0, -3.66526  Q0, -3.53306 0, -3.40086  Q0, -3.25916 0, -3.11745  Q0, -2.96702 0, -2.8166  Q0, -2.6583 0, -2.5  Q0, -2.33471 0, -2.16942  Q0, -1.99806 0, -1.82671  Q0, -1.65024 0, -1.47378  Q0, -1.29319 0, -1.1126  Q0, -0.562676 0, -4.58002e-08 " /><path d="M0, -5 C0, -4.9991 0, -4.94171 0, -4.82963  C0, -4.71582 0, -4.54755 0, -4.33013 " /><path id= "5" d=" M 0 5 L -0.446582 5.7735 " />
<path d="M-0.446582, -5.7735 C-0.142976, -5.24553 -0.00140444, -4.78797 1.38778e-17, -4.33013 " /><path d="M-0.446582, -2.88675 C-0.142976, -1.83081 -0.00140445, -0.915684 0, -4.58002e-08 " /><path d="M1.38778e-17, -4.33013 C-0.00140445, -3.87228 -0.142976, -3.41472 -0.446582, -2.88675 " /><path d="M-0.446582, 2.88675 C-0.142976, 3.41472 -0.00140445, 3.87228 0, 4.33013 " /><path d="M-1.38778e-17, -4.58002e-08 C-0.00140444, 0.915684 -0.142976, 1.83081 -0.446582, 2.88675 " /><path d="M1.38778e-17, 4.33013 C-0.00140444, 4.78797 -0.142976, 5.24553 -0.446582, 5.7735 " /><path id= "12" d=" M -0.446582 5.7735 L -4.40342 5.7735 " />
<path id= "13" d=" M -0.446582 -5.7735 L -4.40342 -5.7735 " />
<path d="M-4.40342, -2.88675 L-4.52407, -3.10907  L-4.62493, -3.32386  L-4.70662, -3.53245  L-4.76964, -3.73613  L-4.81437, -3.93615  L-4.84111, -4.13374  L-4.85, -4.33013  L-4.84111, -4.52651  L-4.81437, -4.7241  L-4.76964, -4.92412  L-4.70662, -5.1278  L-4.62493, -5.33639  L-4.52407, -5.55119  L-4.40342, -5.7735 " /><path id= "15" d=" M -0.446582 -2.88675 L -4.40342 -2.88675 " />
<path d="M-4.40342, 2.88675 L-4.52407, 2.44212  L-4.62493, 2.01253  L-4.70662, 1.59535  L-4.76964, 1.18799  L-4.81437, 0.787949  L-4.84111, 0.392764  L-4.85, -1.22125e-15  L-4.84111, -0.392764  L-4.81437, -0.787949  L-4.76964, -1.18799  L-4.70662, -1.59535  L-4.62493, -2.01253  L-4.52407, -2.44212  L-4.40342, -2.88675 " /><path id= "17" d=" M -0.446582 2.88675 L -4.40342 2.88675 " />
<path d="M-4.40342, 5.7735 L-4.52407, 5.55119  L-4.62493, 5.33639  L-4.70662, 5.1278  L-4.76964, 4.92412  L-4.81437, 4.7241  L-4.84111, 4.52651  L-4.85, 4.33013  L-4.84111, 4.13374  L-4.81437, 3.93615  L-4.76964, 3.73613  L-4.70662, 3.53245  L-4.62493, 3.32386  L-4.52407, 3.10907  L-4.40342, 2.88675 " /><path id= "19" d=" M -4.40342 5.7735 L -4.99434 4.75 " />
<path d="M-4.99434, -4.75 L-4.99434, -4.63091  L-4.99434, -4.2796  L-4.99434, -3.7137  L-4.99434, -2.96158  L-4.99434, -2.06095  L-4.99434, -1.05697  L-4.99434, -8.88178e-16  L-4.99434, 1.05697  L-4.99434, 2.06095  L-4.99434, 2.96158  L-4.99434, 3.7137  L-4.99434, 4.2796  L-4.99434, 4.63091  L-4.99434, 4.75 " /><path id= "21" d=" M -4.99434 4.75 L -7.25 4.75 " />
<path d="M-7.25 4.75 A4.75 4.75 0 0 1 -12 5.70164e-16" /></g>

</svg>
