<svg xmlns="http://www.w3.org/2000/svg" viewBox="-6.69726 -5.92376 13.39452 11.84752">
<rect width="100%" height="100%" fill="white"/>
<g   fill="none"
   stroke="rgb(165, 165, 165)"
   stroke-dasharray="1.2,0.8"
   stroke-linecap="butt"
   stroke-linejoin="miter"
   stroke-width="0.25"
   transform="scale(1, -1)"
  >
<path d="M-0.700344, -2.91711 C-1.18331, -2.82914 -1.68226, -2.5808 -2.05099, -2.23859 " /><path d="M-2.05099, -2.23859 C-2.21826, -2.0861 -2.36265, -1.91195 -2.46026, -1.75964  C-2.51839, -1.66967 -2.55904, -1.58752 -2.55793, -1.56748 " /><path d="M-2.55793, -1.56748 C-2.54215, -1.25805 -2.47382, -0.96064 -2.35835, -0.695391 " /><path d="M-0.695432 2.35834 A2.45873 2.45873 0 0 1 -2.35835 -0.695391" /><path d="M2.73314, -2.22045e-16 C2.69378, 0.833375 2.24249, 1.63145 1.55039, 2.08176  C0.894901, 2.52065 0.0359136, 2.62793 -0.695432, 2.35834 " /><circle cx ="0" cy ="0" r ="3.3" /><path d="M2.73314, 8.88178e-16 C2.78288, -0.831482 2.42588, -1.67664 1.79578, -2.23251  C1.13379, -2.83094 0.182277, -3.08945 -0.700344, -2.91711 " /><path d="M-2.35835, -0.695391 C-2.25424, -1.04953 -2.06886, -1.37946 -1.82053, -1.65259  C-1.46963, -2.04087 -0.991349, -2.31132 -0.477752, -2.41187  C-0.0441198, -2.49838 0.412647, -2.46446 0.828745, -2.31486  C1.28117, -2.15377 1.68361, -1.85622 1.97024, -1.47089  C2.28581, -1.05017 2.45992, -0.525916 2.45873, 4.44089e-16 " /><path d="M-0.695432, 2.35834 C-1.1618, 2.22172 -1.58494, 1.94262 -1.89411, 1.56771  C-2.27354, 1.11224 -2.47791, 0.515804 -2.45754, -0.0766455  C-2.44086, -0.673901 -2.19592, -1.2609 -1.78313, -1.69287  C-1.43559, -2.06042 -0.97169, -2.31562 -0.475183, -2.41238  C-0.0141044, -2.50398 0.472912, -2.45896 0.909383, -2.28438  C1.35544, -2.1077 1.74687, -1.79668 2.01978, -1.40209  C2.30431, -0.99389 2.45969, -0.497574 2.45873, 1.10064e-07 " /><path d="M5 0 A5 5 0 0 1 4.33013 2.5" /><path d="M4.33013 -2.5 A5 5 0 0 1 5 -1.22465e-15" /><path d="M-4.58002e-08 -5 A5 5 0 0 1 4.33013 -2.5" /><path d="M-4.33013 -2.5 A5 5 0 0 1 -4.58002e-08 -5" /><path d="M-4.33013 2.5 A5 5 0 0 1 -4.33013 -2.5" /><path d="M3.70531e-08 5 A5 5 0 0 1 -4.33013 2.5" /><path d="M4.33013 2.5 A5 5 0 0 1 3.70531e-08 5" /><path d="M2.45873, 2.19212e-07 C2.46023, 0.557923 2.26359, 1.11364 1.9115, 1.54646  C1.62796, 1.89797 1.24536, 2.16832 0.819346, 2.3182  C0.388724, 2.47112 -0.0848363, 2.50007 -0.53088, 2.40074  C-1.03025, 2.2914 -1.49251, 2.02097 -1.83254, 1.63926  C-2.23688, 1.19029 -2.46472, 0.587869 -2.45868, -0.0163116  C-2.45668, -0.617409 -2.22336, -1.21374 -1.81689, -1.65658  C-1.46952, -2.03922 -0.998239, -2.30682 -0.491655, -2.40908  C-0.0530371, -2.49924 0.410009, -2.46594 0.831218, -2.31397  C1.28273, -2.15265 1.68429, -1.85539 1.97042, -1.47065  C2.28588, -1.04997 2.45992, -0.525817 2.45873, 1.10063e-07 " /><path d="M2.45873, 2.19213e-07 C2.46093, 0.616171 2.21948, 1.22872 1.79743, 1.67768  C1.5131, 1.98301 1.14954, 2.21367 0.752183, 2.34085  C0.336181, 2.47513 -0.115831, 2.49517 -0.542084, 2.39823  C-1.0644, 2.28147 -1.54487, 1.98782 -1.88701, 1.57625  C-2.26978, 1.121 -2.47689, 0.523021 -2.4577, -0.071448  C-2.44223, -0.671836 -2.19601, -1.2623 -1.78034, -1.6958  C-1.43364, -2.06125 -0.971749, -2.31511 -0.477403, -2.41194  C-0.0113613, -2.505 0.481305, -2.45835 0.921599, -2.27948  C1.36502, -2.10108 1.75354, -1.78967 2.02418, -1.39572  C2.30594, -0.988746 2.45967, -0.494986 2.45873, 2.19213e-07 " /><path d="M5.7735, 3.86136e-13 C5.24553, 0.914468 4.78797, 1.70699 4.33013, 2.5 " /><path d="M4.33013, 2.5 C3.87228, 3.29301 3.41472, 4.08553 2.88675, 5 " /><path d="M2.88675, 5 C1.83081, 5 0.915684, 5 3.70531e-08, 5 " /><path d="M3.70531e-08, 5 C-0.915684, 5 -1.83081, 5 -2.88675, 5 " /><path d="M-2.88675, 5 C-3.41472, 4.08553 -3.87228, 3.29301 -4.33013, 2.5 " /><path d="M-4.33013, 2.5 C-4.78797, 1.70699 -5.24553, 0.914468 -5.7735, 3.30402e-13 " /><path d="M-5.7735, -4.40092e-13 C-5.24553, -0.914468 -4.78797, -1.70699 -4.33013, -2.5 " /><path d="M-2.88675, -5 C-1.83081, -5 -0.915684, -5 -4.58002e-08, -5 " /><path d="M-4.33013, -2.5 C-3.87228, -3.29301 -3.41472, -4.08553 -2.88675, -5 " /><path d="M2.88675, -5 C3.41472, -4.08553 3.87228, -3.29301 4.33013, -2.5 " /><path d="M-4.58002e-08, -5 C0.915684, -5 1.83081, -5 2.88675, -5 " /><path d="M4.33013, -2.5 C4.78797, -1.70699 5.24553, -0.914468 5.7735, -3.84547e-13 " /><path d="M2.45873, 2.19212e-07 C2.46023, 0.557927 2.26358, 1.11365 1.91149, 1.54647  C1.62795, 1.89798 1.24534, 2.16833 0.819324, 2.31821  C0.388623, 2.47115 -0.0850301, 2.50008 -0.531142, 2.40068  C-1.03071, 2.29124 -1.49312, 2.02058 -1.83315, 1.63857  C-2.24107, 1.18538 -2.46897, 0.575931 -2.4585, -0.0337162  C-2.45226, -0.626311 -2.22147, -1.21281 -1.8222, -1.65075  C-1.47455, -2.03618 -1.00153, -2.30592 -0.492786, -2.40884  C-0.0516415, -2.49975 0.414272, -2.46572 0.837528, -2.31169  C1.28574, -2.15016 1.6843, -1.85458 1.969, -1.47256  C2.28535, -1.05155 2.45993, -0.526605 2.45873, 2.19212e-07 " /><path d="M2.45873, 3.28821e-07 C2.46054, 0.585842 2.24304, 1.16886 1.85796, 1.61039  C1.55752, 1.95809 1.15734, 2.21823 0.717626, 2.35168  C0.309475, 2.47677 -0.13141, 2.49257 -0.547469, 2.39701  C-1.06313, 2.28048 -1.53766, 1.99158 -1.87797, 1.58702  C-2.2666, 1.13019 -2.47728, 0.527156 -2.45767, -0.0722994  C-2.4419, -0.678184 -2.19096, -1.27378 -1.76839, -1.70827  C-1.42263, -2.06758 -0.964808, -2.31688 -0.475369, -2.41234  C-0.0135605, -2.50413 0.474278, -2.45884 0.911299, -2.28362  C1.35718, -2.10657 1.74834, -1.79525 2.02091, -1.40046  C2.30473, -0.992569 2.45968, -0.496909 2.45873, -1.11022e-16 " /><path d="M2.45873, 3.28818e-07 C2.46025, 0.559635 2.26236, 1.11703 1.90828, 1.55044  C1.62616, 1.89866 1.24669, 2.16682 0.824252, 2.31646  C0.391776, 2.47108 -0.0843398, 2.50053 -0.532572, 2.40036  C-1.03189, 2.29066 -1.49399, 2.01989 -1.83375, 1.63791  C-2.24057, 1.18558 -2.46818, 0.577772 -2.45854, -0.0305154  C-2.45307, -0.624727 -2.22178, -1.21308 -1.82112, -1.65193  C-1.47098, -2.03966 -0.993865, -2.31002 -0.481322, -2.41116  C-0.0439995, -2.4991 0.417042, -2.46445 0.836308, -2.31213  C1.28108, -2.15209 1.6771, -1.86011 1.96149, -1.48254  C2.28252, -1.05983 2.45996, -0.53078 2.45873, -1.33227e-15 " /><path d="M2.45873, 4.38429e-07 C2.46054, 0.585842 2.24304, 1.16886 1.85796, 1.61039  C1.5576, 1.958 1.15756, 2.21809 0.717978, 2.35157  C0.309907, 2.47671 -0.130906, 2.49259 -0.546925, 2.39713  C-1.0697, 2.27917 -1.55014, 1.98392 -1.89154, 1.57082  C-2.27171, 1.11598 -2.47705, 0.519872 -2.45766, -0.0726101  C-2.44182, -0.678438 -2.19084, -1.27395 -1.76829, -1.70837  C-1.42247, -2.06771 -0.964557, -2.317 -0.475047, -2.41241  C-0.0118546, -2.50441 0.4775, -2.4585 0.915493, -2.28194  C1.35888, -2.10493 1.74786, -1.79507 2.01951, -1.40248  C2.30421, -0.9942 2.45969, -0.49773 2.45873, -1.33227e-15 " /><circle cx ="0" cy ="0" r ="4.75" /><path d="M2.45873, 4.38424e-07 C2.46025, 0.559636 2.26236, 1.11703 1.90827, 1.55044  C1.62616, 1.89867 1.24669, 2.16682 0.824249, 2.31646  C0.391814, 2.47107 -0.0842528, 2.50052 -0.532448, 2.40039  C-1.03167, 2.29074 -1.49369, 2.02008 -1.83346, 1.63823  C-2.23962, 1.18677 -2.46729, 0.580377 -2.45859, -0.026838  C-2.45401, -0.62268 -2.22231, -1.21295 -1.82034, -1.6528  C-1.46928, -2.04117 -0.990771, -2.31161 -0.476973, -2.41203  C-0.0431785, -2.49842 0.413727, -2.46431 0.82988, -2.31445  C1.27739, -2.15483 1.67597, -1.86176 1.96175, -1.48219  C2.28262, -1.05955 2.45996, -0.530636 2.45873, -7.77156e-16 " /><path d="M2.45873, 5.48038e-07 C2.46054, 0.585842 2.24304, 1.16886 1.85796, 1.61039  C1.55768, 1.9579 1.15778, 2.21794 0.718347, 2.35146  C0.31036, 2.47664 -0.130376, 2.4926 -0.546352, 2.39726  C-1.06776, 2.27973 -1.54714, 1.98586 -1.88845, 1.57453  C-2.27258, 1.11685 -2.47921, 0.515254 -2.45737, -0.081868  C-2.43954, -0.673439 -2.19794, -1.25456 -1.79112, -1.68441  C-1.4414, -2.05785 -0.972052, -2.31678 -0.469645, -2.41346  C-0.00923632, -2.50383 0.476702, -2.45805 0.912131, -2.28328  C1.35983, -2.10534 1.75227, -1.79197 2.02487, -1.39473  C2.3062, -0.987949 2.45967, -0.494579 2.45873, 0 " /><path d="M2.45873, 5.4803e-07 C2.46025, 0.559637 2.26236, 1.11704 1.90827, 1.55044  C1.62616, 1.89867 1.24669, 2.16682 0.824247, 2.31646  C0.391852, 2.47106 -0.0841657, 2.50052 -0.532324, 2.40042  C-1.03145, 2.29081 -1.4934, 2.02026 -1.83317, 1.63856  C-2.23849, 1.18818 -2.46619, 0.583528 -2.45863, -0.0223411  C-2.45515, -0.620033 -2.22307, -1.21251 -1.81966, -1.65354  C-1.4681, -2.04216 -0.988859, -2.31255 -0.474435, -2.41253  C-0.0401316, -2.49855 0.417199, -2.4638 0.833517, -2.31314  C1.27806, -2.15378 1.67409, -1.86269 1.95888, -1.48598  C2.28154, -1.0627 2.45998, -0.532225 2.45873, -4.44089e-16 " /><path d="M2.45873, 6.57647e-07 C2.46054, 0.585842 2.24304, 1.16886 1.85797, 1.61038  C1.55776, 1.95781 1.15798, 2.21781 0.71868, 2.35136  C0.310768, 2.47658 -0.129897, 2.49262 -0.545834, 2.39738  C-1.06497, 2.28046 -1.54251, 1.9888 -1.88359, 1.58034  C-2.27094, 1.12175 -2.47948, 0.517323 -2.45735, -0.0825603  C-2.43934, -0.674348 -2.1974, -1.25561 -1.79019, -1.6854  C-1.44247, -2.05626 -0.976728, -2.31407 -0.477841, -2.41185  C-0.00878083, -2.50562 0.487268, -2.4578 0.929777, -2.27616  C1.36884, -2.09766 1.7535, -1.78861 2.02239, -1.39832  C2.30528, -0.990841 2.45968, -0.496034 2.45873, -2.33147e-15 " /><path d="M2.45873, 6.57637e-07 C2.46025, 0.559638 2.26236, 1.11704 1.90827, 1.55044  C1.62616, 1.89867 1.24668, 2.16682 0.824244, 2.31646  C0.391891, 2.47104 -0.0840769, 2.50051 -0.532197, 2.40045  C-1.03123, 2.29089 -1.49311, 2.02046 -1.83287, 1.63889  C-2.23871, 1.18811 -2.46656, 0.582688 -2.45862, -0.0238226  C-2.45477, -0.619852 -2.22365, -1.21058 -1.822, -1.65097  C-1.47353, -2.03723 -0.999113, -2.30724 -0.48906, -2.4096  C-0.0485956, -2.49966 0.416355, -2.46522 0.838744, -2.31125  C1.28725, -2.14935 1.68594, -1.85319 1.97048, -1.47057  C2.2859, -1.0499 2.45992, -0.525781 2.45873, -1.11022e-16 " /><path d="M2.45873, 7.67258e-07 C2.46054, 0.585842 2.24304, 1.16886 1.85797, 1.61038  C1.55784, 1.95771 1.1582, 2.21767 0.719043, 2.35124  C0.311216, 2.47651 -0.129372, 2.49263 -0.545265, 2.39751  C-1.06096, 2.28147 -1.5357, 1.99307 -1.87637, 1.58891  C-2.2655, 1.13242 -2.47679, 0.529526 -2.45774, -0.0700096  C-2.44258, -0.672768 -2.19478, -1.26562 -1.77647, -1.69986  C-1.42754, -2.06599 -0.962734, -2.31934 -0.465937, -2.41418  C-0.00301654, -2.50431 0.485479, -2.45681 0.922358, -2.27917  C1.36524, -2.10082 1.7533, -1.78977 2.02377, -1.39633  C2.30579, -0.989232 2.45967, -0.49523 2.45873, 0 " /><path d="M2.45873, 7.67243e-07 C2.46025, 0.559639 2.26235, 1.11704 1.90827, 1.55045  C1.62616, 1.89867 1.24668, 2.16682 0.824241, 2.31646  C0.39193, 2.47103 -0.0839885, 2.50051 -0.532071, 2.40047  C-1.031, 2.29097 -1.49281, 2.02065 -1.83257, 1.63922  C-2.24335, 1.18325 -2.47168, 0.568779 -2.45833, -0.0448324  C-2.44944, -0.632389 -2.21995, -1.21303 -1.82476, -1.64792  C-1.47701, -2.03468 -1.00317, -2.30545 -0.493415, -2.40872  C-0.0509426, -2.50002 0.41648, -2.46561 0.840812, -2.3105  C1.28283, -2.15046 1.6764, -1.86006 1.9597, -1.48491  C2.28185, -1.0618 2.45997, -0.531774 2.45873, -4.44089e-16 " /><path d="M2.45873, 8.76869e-07 C2.46054, 0.585842 2.24304, 1.16886 1.85797, 1.61038  C1.55792, 1.95762 1.15842, 2.21753 0.7194, 2.35114  C0.311656, 2.47644 -0.128855, 2.49265 -0.544705, 2.39764  C-1.06711, 2.28026 -1.54744, 1.98588 -1.88916, 1.57368  C-2.2732, 1.11569 -2.47956, 0.513773 -2.45732, -0.0835141  C-2.43908, -0.675462 -2.19678, -1.25679 -1.7892, -1.68646  C-1.44141, -2.05694 -0.975782, -2.31442 -0.477091, -2.412  C-0.0118456, -2.50484 0.479916, -2.45846 0.919603, -2.28029  C1.36148, -2.10295 1.74902, -1.79359 2.01986, -1.40198  C2.30434, -0.993801 2.45969, -0.497522 2.45873, 4.44089e-16 " /><path d="M2.78396, -2.22045e-16 C2.82343, -0.752031 2.54019, -1.51539 2.02063, -2.06778  C1.48137, -2.65119 0.692229, -2.99451 -0.107279, -2.9981 " /><path d="M-0.107279, -2.9981 C-0.629082, -3.00616 -1.18946, -2.84517 -1.62781, -2.56284 " /><path d="M-1.62781, -2.56284 C-1.79551, -2.45677 -1.94786, -2.33222 -2.06067, -2.21782  C-2.14768, -2.1303 -2.21083, -2.04709 -2.19582, -2.04413 " /><path d="M2.45873, 8.7685e-07 C2.46025, 0.55964 2.26235, 1.11704 1.90827, 1.55045  C1.62615, 1.89867 1.24668, 2.16682 0.824239, 2.31646  C0.391971, 2.47101 -0.0838955, 2.5005 -0.531938, 2.4005  C-1.10674, 2.27502 -1.63086, 1.93412 -1.97862, 1.4596  C-2.29723, 1.02984 -2.46861, 0.493723 -2.45839, -0.041163  C-2.45022, -0.723116 -2.14081, -1.39404 -1.62748, -1.84301 " /><path d="M-2.19582, -2.04413 Q-1.89882, -1.96725 -1.62748, -1.84301 " /><path d="M-1.84328 1.62717 A2.45873 2.45873 0 0 1 -1.62748 -1.84301" /><path d="M2.45873, 9.8648e-07 C2.46054, 0.585842 2.24304, 1.16886 1.85797, 1.61038  C1.558, 1.95753 1.15863, 2.2174 0.719739, 2.35103  C0.312075, 2.47638 -0.128362, 2.49266 -0.54417, 2.39776  C-1.04376, 2.28547 -1.5052, 2.01176 -1.84328, 1.62717 " /><path d="M2.78396, 3.93748e-07 C2.75798, 0.561415 2.55565, 1.11163 2.21164, 1.5517  C1.88181, 1.97701 1.42197, 2.29778 0.911498, 2.45686  C0.417004, 2.61302 -0.122752, 2.6161 -0.614774, 2.46431  C-1.09822, 2.31717 -1.5332, 2.02125 -1.84328, 1.62717 " /></g>
<g   fill="none"
   stroke="rgb(165, 165, 165)"
   stroke-dasharray="1.2,0.8"
   stroke-linecap="butt"
   stroke-linejoin="miter"
   stroke-width="0.25"
   transform="scale(1, -1)"
  >
<path d="M-2.05099, -2.23859 C-1.62726, -2.62804 -1.09039, -2.89234 -0.523329, -2.99064  C-0.00763292, -3.08152 0.531322, -3.03538 1.02406, -2.85817  C1.53783, -2.67487 1.99981, -2.3496 2.34558, -1.9277  C2.78947, -1.39063 3.03802, -0.696771 3.03609, -7.30726e-09 " /><path d="M3.03609, -7.30724e-09 C3.03871, 0.753664 2.74638, 1.50302 2.23414, 2.05585  C1.84452, 2.48059 1.33117, 2.7899 0.773598, 2.9359  C-0.0354956, 3.15312 -0.931361, 3.01264 -1.63512, 2.55817  C-2.27032, 2.15524 -2.74372, 1.5071 -2.93435, 0.779448  C-3.11505, 0.106576 -3.053, -0.627755 -2.76196, -1.26077  C-2.43901, -1.97552 -1.82665, -2.55241 -1.09393, -2.83219  C-0.426137, -3.09239 0.334187, -3.10368 1.00939, -2.86338  C1.59762, -2.65756 2.11924, -2.26338 2.47817, -1.75404  C2.8392, -1.2462 3.03754, -0.623193 3.03609, -1.46149e-08 " /><path d="M3.03609, -1.46149e-08 C3.03871, 0.753665 2.74638, 1.50302 2.23414, 2.05585  C1.84452, 2.48059 1.33117, 2.7899 0.773592, 2.9359  C-0.0355309, 3.15313 -0.93143, 3.01263 -1.6352, 2.55812  C-2.29513, 2.13984 -2.77946, 1.45639 -2.95546, 0.69515  C-3.11, 0.045127 -3.04055, -0.655142 -2.76133, -1.26214  C-2.4465, -1.95747 -1.85818, -2.52275 -1.15082, -2.80953  C-0.456671, -3.09664 0.344582, -3.11111 1.04864, -2.84924  C1.62745, -2.63769 2.13867, -2.24304 2.49016, -1.73697  C2.84368, -1.23232 3.03748, -0.616247 3.03609, -2.19229e-08 " /><path d="M3.03609, -2.19229e-08 C3.03871, 0.753665 2.74638, 1.50302 2.23414, 2.05586  C1.84452, 2.48059 1.33117, 2.78991 0.773596, 2.93591  C-0.0355147, 3.15313 -0.931399, 3.01264 -1.63516, 2.55814  C-2.26918, 2.15593 -2.74204, 1.50944 -2.9333, 0.78339  C-3.1158, 0.107538 -3.0532, -0.630676 -2.75951, -1.26615  C-2.43987, -1.9696 -1.83992, -2.53909 -1.12079, -2.82167  C-0.450137, -3.09041 0.316947, -3.1069 0.998519, -2.86721  C1.53011, -2.68295 2.00777, -2.34697 2.36088, -1.90896  C2.79531, -1.37459 3.03794, -0.688681 3.03609, -2.92313e-08 " /><path d="M3.03609, -2.92313e-08 C3.03871, 0.753666 2.74639, 1.50303 2.23414, 2.05586  C1.84452, 2.48059 1.33117, 2.78991 0.773596, 2.93591  C-0.0355072, 3.15313 -0.931383, 3.01264 -1.63515, 2.55816  C-2.26972, 2.15561 -2.74284, 1.50833 -2.9338, 0.781521  C-3.11587, 0.105553 -3.0528, -0.632622 -2.7587, -1.2679  C-2.45011, -1.94522 -1.88216, -2.49888 -1.19721, -2.79011  C-0.500262, -3.09205 0.310759, -3.11681 1.02481, -2.85791  C1.60935, -2.64981 2.12688, -2.25543 2.48289, -1.74736  C2.84097, -1.24076 3.03752, -0.620475 3.03609, -3.65401e-08 " /><path d="M3.03609, -3.65401e-08 C3.03872, 0.753666 2.74639, 1.50303 2.23414, 2.05586  C1.84452, 2.48059 1.33117, 2.78991 0.7736, 2.93591  C-0.0354868, 3.15312 -0.931344, 3.01265 -1.6351, 2.55819  C-2.27086, 2.15492 -2.74452, 1.506 -2.93485, 0.777586  C-3.11389, 0.109062 -3.0535, -0.619982 -2.76687, -1.24992  C-2.44508, -1.96982 -1.83006, -2.55135 -1.09332, -2.83244  C-0.429974, -3.09069 0.324608, -3.10353 0.996343, -2.86797  C1.51459, -2.68871 1.98186, -2.36545 2.33236, -1.94371  C2.78441, -1.40438 3.0381, -0.703724 3.0361, -4.38492e-08 " /><path d="M3.0361, -4.38492e-08 C3.03872, 0.753667 2.74639, 1.50303 2.23415, 2.05586  C1.84452, 2.48059 1.33117, 2.78991 0.773599, 2.93591  C-0.0355037, 3.15313 -0.931379, 3.01265 -1.63514, 2.55816  C-2.26989, 2.15551 -2.74308, 1.50801 -2.93395, 0.780971  C-3.1159, 0.104968 -3.05269, -0.633196 -2.75846, -1.26842  C-2.44948, -1.94628 -1.88069, -2.50019 -1.19489, -2.79111  C-0.497304, -3.09264 0.314252, -3.11658 1.02838, -2.85663  C1.61206, -2.64801 2.12865, -2.25358 2.48398, -1.74581  C2.84138, -1.2395 3.03752, -0.619841 3.0361, -5.11587e-08 " /><path d="M3.0361, -5.11587e-08 C3.03872, 0.753667 2.74639, 1.50303 2.23415, 2.05586  C1.84452, 2.4806 1.33117, 2.78991 0.773596, 2.93591  C-0.0355237, 3.15314 -0.931419, 3.01264 -1.63519, 2.55814  C-2.29568, 2.13952 -2.78025, 1.45527 -2.95591, 0.693285  C-3.11004, 0.0431631 -3.04014, -0.657064 -2.76054, -1.26389  C-2.44355, -1.96293 -1.84995, -2.53016 -1.13724, -2.81509  C-0.449956, -3.09536 0.340613, -3.1093 1.03733, -2.85339  C1.61886, -2.64347 2.13309, -2.24894 2.48672, -1.74191  C2.84241, -1.23632 3.03751, -0.618242 3.0361, -5.84687e-08 " /><path d="M3.0361, -5.84687e-08 C3.03648, 0.459388 2.9305, 0.918411 2.72875, 1.33113  C2.47843, 1.84628 2.07847, 2.28721 1.59009, 2.58642  C1.06653, 2.90968 0.442907, 3.06717 -0.171359, 3.03127  C-0.664976, 3.00386 -1.15109, 2.85313 -1.57363, 2.59647  C-2.13757, 2.25648 -2.58418, 1.72713 -2.82435, 1.11399  C-2.97156, 0.741339 -3.04379, 0.339307 -3.03548, -0.0612804  C-3.02758, -0.463536 -2.93848, -0.863963 -2.77507, -1.23162  C-2.53483, -1.77548 -2.13024, -2.24495 -1.62781, -2.56284 " /></g>
<g   fill="none"
   stroke="rgb(0, 0, 0)"
   stroke-linecap="butt"
   stroke-linejoin="miter"
   stroke-width="0.35"
   transform="scale(1, -1)"
  >
<path d="M2.88675, 5 Q2.99791, 4.80747 3.10907, 4.61494  Q3.21646, 4.42892 3.32386, 4.2429  Q3.42816, 4.06226 3.53245, 3.88161  Q3.73716, 3.52705 3.93615, 3.18238  Q4.13408, 2.83956 4.33013, 2.5  Q4.52617, 2.16044 4.7241, 1.81762  Q4.92309, 1.47295 5.1278, 1.11839  Q5.2321, 0.937743 5.33639, 0.757096  Q5.44379, 0.571079 5.55119, 0.385063  Q5.66234, 0.192532 5.7735, 3.84581e-13 " /><path d="M-2.88675, 5 C-2.73854, 5 -2.59033, 5 -2.44212, 5  C-2.29892, 5 -2.15573, 5 -2.01253, 5  C-1.87347, 5 -1.73441, 5 -1.59535, 5  C-1.32241, 5 -1.05327, 5 -0.787949, 5  C-0.52404, 5 -0.261391, 5 2.22045e-16, 5  C0.392109, 5 0.785999, 5 1.18799, 5  C1.32377, 5 1.45956, 5 1.59535, 5  C1.73441, 5 1.87347, 5 2.01253, 5  C2.15573, 5 2.29892, 5 2.44212, 5  C2.59033, 5 2.73854, 5 2.88675, 5 " /><path d="M-5.7735, 3.3219e-13 C-5.6994, 0.128354 -5.62529, 0.256709 -5.55119, 0.385063  C-5.47959, 0.509074 -5.40799, 0.633085 -5.33639, 0.757096  C-5.26686, 0.877527 -5.19733, 0.997959 -5.1278, 1.11839  C-4.99133, 1.35476 -4.85676, 1.58784 -4.7241, 1.81762  C-4.59215, 2.04617 -4.46082, 2.27363 -4.33013, 2.5  C-4.13407, 2.83958 -3.93713, 3.1807 -3.73613, 3.52883  C-3.66824, 3.64642 -3.60035, 3.76402 -3.53245, 3.88161  C-3.46292, 4.00204 -3.39339, 4.12247 -3.32386, 4.2429  C-3.25226, 4.36692 -3.18067, 4.49093 -3.10907, 4.61494  C-3.03496, 4.74329 -2.96086, 4.87165 -2.88675, 5 " /><path d="M-2.88675, -5 C-2.96086, -4.87165 -3.03496, -4.74329 -3.10907, -4.61494  C-3.18067, -4.49093 -3.25226, -4.36692 -3.32386, -4.2429  C-3.39339, -4.12247 -3.46292, -4.00204 -3.53245, -3.88161  C-3.60035, -3.76402 -3.66824, -3.64642 -3.73613, -3.52883  C-3.93713, -3.1807 -4.13407, -2.83958 -4.33013, -2.5  C-4.46082, -2.27363 -4.59215, -2.04617 -4.7241, -1.81762  C-4.85676, -1.58784 -4.99133, -1.35476 -5.1278, -1.11839  C-5.19733, -0.997959 -5.26686, -0.877527 -5.33639, -0.757096  C-5.40799, -0.633085 -5.47959, -0.509074 -5.55119, -0.385063  C-5.62529, -0.256709 -5.6994, -0.128354 -5.7735, -4.38316e-13 " /><path d="M2.88675, -5 C2.73854, -5 2.59033, -5 2.44212, -5  C2.29892, -5 2.15573, -5 2.01253, -5  C1.87347, -5 1.73441, -5 1.59535, -5  C1.32241, -5 1.05327, -5 0.787949, -5  C0.52404, -5 0.261391, -5 -1.11022e-15, -5  C-0.392109, -5 -0.785999, -5 -1.18799, -5  C-1.32377, -5 -1.45956, -5 -1.59535, -5  C-1.73441, -5 -1.87347, -5 -2.01253, -5  C-2.15573, -5 -2.29892, -5 -2.44212, -5  C-2.59033, -5 -2.73854, -5 -2.88675, -5 " /><path d="M5.7735, -3.85914e-13 Q5.66234, -0.192532 5.55119, -0.385063  Q5.44379, -0.571079 5.33639, -0.757096  Q5.2321, -0.937743 5.1278, -1.11839  Q4.92309, -1.47295 4.7241, -1.81762  Q4.52617, -2.16044 4.33013, -2.5  Q4.13408, -2.83956 3.93615, -3.18238  Q3.73716, -3.52705 3.53245, -3.88161  Q3.42816, -4.06226 3.32386, -4.2429  Q3.21646, -4.42892 3.10907, -4.61494  Q2.99791, -4.80747 2.88675, -5 " /><circle cx ="0" cy ="0" r ="4.75" /></g>

</svg>
