<svg xmlns="http://www.w3.org/2000/svg" viewBox="-6.69726 -5.92376 13.39452 11.84752">
<rect width="100%" height="100%" fill="white"/>
<g   fill="none"
   stroke="rgb(0, 0, 0)"
   stroke-linecap="butt"
   stroke-linejoin="miter"
   stroke-width="0.35"
   transform="scale(1, -1)"
  >
<path d="M2.88675, 5 Q2.99791, 4.80747 3.10907, 4.61494  Q3.21646, 4.42892 3.32386, 4.2429  Q3.42816, 4.06226 3.53245, 3.88161  Q3.73716, 3.52705 3.93615, 3.18238  Q4.13408, 2.83956 4.33013, 2.5  Q4.52617, 2.16044 4.7241, 1.81762  Q4.92309, 1.47295 5.1278, 1.11839  Q5.2321, 0.937743 5.33639, 0.757096  Q5.44379, 0.571079 5.55119, 0.385063  Q5.66234, 0.192532 5.7735, 3.84581e-13 " /><path d="M-2.88675, 5 C-2.73854, 5 -2.59033, 5 -2.44212, 5  C-2.29892, 5 -2.15573, 5 -2.01253, 5  C-1.87347, 5 -1.73441, 5 -1.59535, 5  C-1.32241, 5 -1.05327, 5 -0.787949, 5  C-0.52404, 5 -0.261391, 5 2.22045e-16, 5  C0.392109, 5 0.785999, 5 1.18799, 5  C1.32377, 5 1.45956, 5 1.59535, 5  C1.73441, 5 1.87347, 5 2.01253, 5  C2.15573, 5 2.29892, 5 2.44212, 5  C2.59033, 5 2.73854, 5 2.88675, 5 " /><path d="M-5.7735, 3.3219e-13 C-5.6994, 0.128354 -5.62529, 0.256709 -5.55119, 0.385063  C-5.47959, 0.509074 -5.40799, 0.633085 -5.33639, 0.757096  C-5.26686, 0.877527 -5.19733, 0.997959 -5.1278, 1.11839  C-4.99133, 1.35476 -4.85676, 1.58784 -4.7241, 1.81762  C-4.59215, 2.04617 -4.46082, 2.27363 -4.33013, 2.5  C-4.13407, 2.83958 -3.93713, 3.1807 -3.73613, 3.52883  C-3.66824, 3.64642 -3.60035, 3.76402 -3.53245, 3.88161  C-3.46292, 4.00204 -3.39339, 4.12247 -3.32386, 4.2429  C-3.25226, 4.36692 -3.18067, 4.49093 -3.10907, 4.61494  C-3.03496, 4.74329 -2.96086, 4.87165 -2.88675, 5 " /><path d="M-2.88675, -5 C-2.96086, -4.87165 -3.03496, -4.74329 -3.10907, -4.61494  C-3.18067, -4.49093 -3.25226, -4.36692 -3.32386, -4.2429  C-3.39339, -4.12247 -3.46292, -4.00204 -3.53245, -3.88161  C-3.60035, -3.76402 -3.66824, -3.64642 -3.73613, -3.52883  C-3.93713, -3.1807 -4.13407, -2.83958 -4.33013, -2.5  C-4.46082, -2.27363 -4.59215, -2.04617 -4.7241, -1.81762  C-4.85676, -1.58784 -4.99133, -1.35476 -5.1278, -1.11839  C-5.19733, -0.997959 -5.26686, -0.877527 -5.33639, -0.757096  C-5.40799, -0.633085 -5.47959, -0.509074 -5.55119, -0.385063  C-5.62529, -0.256709 -5.6994, -0.128354 -5.7735, -4.38316e-13 " /><path d="M2.88675, -5 C2.73854, -5 2.59033, -5 2.44212, -5  C2.29892, -5 2.15573, -5 2.01253, -5  C1.87347, -5 1.73441, -5 1.59535, -5  C1.32241, -5 1.05327, -5 0.787949, -5  C0.52404, -5 0.261391, -5 -1.11022e-15, -5  C-0.392109, -5 -0.785999, -5 -1.18799, -5  C-1.32377, -5 -1.45956, -5 -1.59535, -5  C-1.73441, -5 -1.87347, -5 -2.01253, -5  C-2.15573, -5 -2.29892, -5 -2.44212, -5  C-2.59033, -5 -2.73854, -5 -2.88675, -5 " /><path d="M5.7735, -3.85914e-13 Q5.66234, -0.192532 5.55119, -0.385063  Q5.44379, -0.571079 5.33639, -0.757096  Q5.2321, -0.937743 5.1278, -1.11839  Q4.92309, -1.47295 4.7241, -1.81762  Q4.52617, -2.16044 4.33013, -2.5  Q4.13408, -2.83956 3.93615, -3.18238  Q3.73716, -3.52705 3.53245, -3.88161  Q3.42816, -4.06226 3.32386, -4.2429  Q3.21646, -4.42892 3.10907, -4.61494  Q2.99791, -4.80747 2.88675, -5 " /><circle cx ="0" cy ="0" r ="4.75" /></g>

</svg>
