<svg xmlns="http://www.w3.org/2000/svg" viewBox="-11.06897 -11.13326 63.07819 44.432680000000005">
<rect width="100%" height="100%" fill="white"/>
<g   fill="none"
   stroke="rgb(0, 0, 0)"
   stroke-linecap="butt"
   stroke-linejoin="miter"
   stroke-width="0.35"
   transform="scale(1, -1)"
  >
<path id= "1" d=" M 0.394113 -3.69164 L 32.1141 -22.0052 " />
<path id= "2" d=" M 3.54485 1.41748 L 34.8056 -16.6309 " />
<path id= "3" d=" M 35.3507 -16.9457 L 35.4676 -17.0132 " />
<path id= "4" d=" M 32.7328 -22.3624 L 32.8212 -22.4134 " />
<path id= "5" d=" M 36.0863 -17.3704 L 36.1748 -17.4214 " />
<path id= "6" d=" M 33.4399 -22.7706 L 33.5283 -22.8217 " />
<path id= "7" d=" M 36.7934 -17.7786 L 36.8819 -17.8296 " />
<path id= "8" d=" M 34.147 -23.1789 L 34.2354 -23.2299 " />
<path id= "9" d=" M 37.5005 -18.1869 L 37.589 -18.2379 " />
<path id= "10" d=" M 34.8541 -23.5871 L 34.9425 -23.6382 " />
<path id= "11" d=" M 38.2077 -18.5951 L 38.2961 -18.6461 " />
<path id= "12" d=" M 35.5612 -23.9954 L 35.6496 -24.0464 " />
<path id= "13" d=" M 38.9148 -19.0033 L 39.0032 -19.0544 " />
<path id= "14" d=" M 36.2683 -24.4036 L 36.3567 -24.4547 " />
<path id= "15" d=" M 39.6219 -19.4116 L 39.7103 -19.4626 " />
<path id= "16" d=" M 36.9754 -24.8119 L 37.0638 -24.8629 " />
<path id= "17" d=" M 40.329 -19.8198 L 40.4174 -19.8709 " />
<path id= "18" d=" M 37.6825 -25.2201 L 37.7709 -25.2712 " />
<path id= "19" d=" M 41.0361 -20.2281 L 41.1245 -20.2791 " />
<path id= "20" d=" M 38.3896 -25.6284 L 38.4781 -25.6794 " />
<path id= "21" d=" M 41.7432 -20.6363 L 41.8316 -20.6874 " />
<path id= "22" d=" M 39.0968 -26.0366 L 39.1852 -26.0877 " />
<path id= "23" d=" M 42.4503 -21.0446 L 42.5387 -21.0956 " />
<path id= "24" d=" M 39.8039 -26.4449 L 39.8923 -26.4959 " />
<path id= "25" d=" M 43.1574 -21.4528 L 43.2458 -21.5039 " />
<path id= "26" d=" M 40.511 -26.8531 L 40.5994 -26.9042 " />
<path id= "27" d=" M 43.8645 -21.8611 L 43.9529 -21.9121 " />
<path id= "28" d=" M 41.2181 -27.2614 L 41.3065 -27.3124 " />
<path id= "29" d=" M 44.5716 -22.2693 L 44.66 -22.3204 " />
<path id= "30" d=" M 41.9252 -27.6696 L 42.0136 -27.7207 " />
<path id= "31" d=" M 45.2787 -22.6776 L 45.3671 -22.7286 " />
<path id= "32" d=" M 42.6323 -28.0779 L 42.7207 -28.1289 " />
<path id= "33" d=" M 45.9858 -23.0858 L 46.0742 -23.1369 " />
<path id= "34" d=" M 43.3394 -28.4861 L 43.4278 -28.5372 " />
<path id= "35" d=" M 46.693 -23.4941 L 46.7814 -23.5451 " />
<path id= "36" d=" M 45.5586 -28.7286 L 45.5377 -28.7407 " />
<path id= "37" d=" M 45.9619 -28.4957 L 45.9345 -28.5116 " />
</g>
<g   fill="none"
   stroke="rgb(0, 0, 0)"
   stroke-linecap="butt"
   stroke-linejoin="miter"
   stroke-width="0.35"
   transform="scale(1, -1)"
  >
<path d="M0.707107 3.67423 A5 2.88675 60 0 1 0.233435 5.442" />
<path d="M0.233435 1.35952 A5 2.88675 60 0 1 0.707107 3.67423" />
<path d="M-2.82843 -2.44949 A5 2.88675 60 0 1 0.233435 1.35952" />
<path d="M-5.89029 -2.17602 A5 2.88675 60 0 1 -2.82843 -2.44949" />
<path d="M-5.89029 1.90647 A5 2.88675 60 0 1 -5.89029 -2.17602" />
<path d="M-2.82843 5.71548 A5 2.88675 60 0 1 -5.89029 1.90647" />
<path d="M0.233435 5.442 A5 2.88675 60 0 1 -2.82843 5.71548" />
<path d="M0.233435, 5.442 C0.557783, 4.98108 0.942248, 4.48561 1.44622, 3.87907 " /><path d="M-2.82843, 5.71548 C-2.18034, 6.08895 -1.47232, 6.42738 -0.595022, 6.78304 " /><path d="M-0.595022, 6.78304 C-0.352334, 6.32735 -0.089704, 5.90223 0.233435, 5.442 " /><path d="M-5.89029, 1.90647 C-5.56594, 2.74052 -5.18148, 3.53924 -4.67751, 4.42602 " /><path d="M-4.67751, 4.42602 C-4.06149, 4.93253 -3.47531, 5.3413 -2.82843, 5.71548 " /><path d="M-5.89029, -2.17602 C-6.21343, -1.71579 -6.47606, -1.29067 -6.71875, -0.834975 " /><path d="M-6.71875, -0.834975 C-6.47606, 0.202653 -6.21343, 1.07172 -5.89029, 1.90647 " /><path d="M-4.67751, -3.73895 C-5.18148, -3.1324 -5.56594, -2.63694 -5.89029, -2.17602 " /><path d="M-2.82843, -2.44949 C-3.47531, -2.82367 -4.06149, -3.23244 -4.67751, -3.73895 " /><path d="M-0.595022, -1.38192 C-1.47232, -1.73758 -2.18034, -2.07601 -2.82843, -2.44949 " /><path d="M0.233435, 1.35952 C-0.089704, 0.52477 -0.352334, -0.344296 -0.595022, -1.38192 " /><path d="M1.44622, 3.87907 C0.942248, 2.99229 0.557783, 2.19357 0.233435, 1.35952 " /><path id= "20" d=" M 1.89982 5.34264 L 3.94106 2.43867 " />
<path id= "21" d=" M 1.44622 3.87907 L 3.94106 2.43867 " />
<path id= "22" d=" M 1.89982 5.34264 L -0.595022 6.78304 " />
<path id= "23" d=" M -2.18266 -5.17934 L -4.67751 -3.73895 " />
<path id= "24" d=" M 1.89982 -2.82232 L -2.18266 -5.17934 " />
<path id= "25" d=" M 1.89982 -2.82232 L -0.595022 -1.38192 " />
<path id= "26" d=" M 3.94106 2.43867 L 1.89982 -2.82232 " />
<path d="M35.4702, -18.0293 C35.4461, -17.3699 35.203, -16.8563 34.8056, -16.6309 " /><path d="M35.0413, -16.8168 Q35.2063, -16.8624 35.3507, -16.9457 " /><path d="M35.3507, -16.9457 C35.7938, -17.1974 36.0648, -17.7248 36.0889, -18.3865 " /><path d="M35.4702, -18.0293 C35.5042, -18.7248 35.2783, -19.5645 34.8733, -20.2901  C34.6239, -20.7406 34.3099, -21.1459 33.9739, -21.4557  C33.7535, -21.6587 33.5309, -21.8175 33.3059, -21.932  C32.8558, -22.1622 32.426, -22.1873 32.1141, -22.0052 " /><path d="M35.4676, -17.0132 C35.892, -17.2545 36.1502, -17.7771 36.1774, -18.4375 " /><path d="M36.1774, -18.4375 C36.2113, -19.1331 35.9854, -19.9727 35.5804, -20.6983  C35.331, -21.1488 35.017, -21.5542 34.6811, -21.8639  C34.4607, -22.067 34.238, -22.2257 34.013, -22.3403  C33.5629, -22.5704 33.1331, -22.5956 32.8212, -22.4134 " /><path d="M36.1748, -17.4214 C36.5991, -17.6627 36.8573, -18.1853 36.8845, -18.8458 " /><path d="M36.0889, -18.3865 C36.1178, -18.9941 35.9512, -19.7116 35.6365, -20.367  C35.4155, -20.8303 35.1236, -21.2611 34.8002, -21.6064  C34.5332, -21.892 34.2454, -22.1193 33.9632, -22.2691  C33.4992, -22.5175 33.0535, -22.5499 32.7328, -22.3624 " /><path d="M32.7328, -22.3624 Q32.576, -22.2717 32.4612, -22.1183 " /><path d="M35.7492, -17.24 Q35.9303, -17.2803 36.0863, -17.3704 " /><path d="M36.0863, -17.3704 C36.5106, -17.6117 36.7688, -18.1343 36.796, -18.7947 " /><path d="M36.8845, -18.8458 C36.9184, -19.5413 36.6925, -20.381 36.2875, -21.1066  C36.0381, -21.5571 35.7241, -21.9624 35.3882, -22.2722  C35.1678, -22.4752 34.9451, -22.634 34.7201, -22.7485  C34.27, -22.9787 33.8402, -23.0038 33.5283, -22.8217 " /><path d="M36.8819, -17.8296 C37.3062, -18.0709 37.5644, -18.5936 37.5916, -19.254 " /><path d="M36.796, -18.7947 C36.8249, -19.4024 36.6583, -20.1198 36.3436, -20.7753  C36.1227, -21.2385 35.8308, -21.6694 35.5073, -22.0146  C35.2405, -22.3 34.9529, -22.5272 34.6709, -22.677  C34.2068, -22.9257 33.7608, -22.9582 33.4399, -22.7706 " /><path d="M36.7934, -17.7786 C37.2178, -18.0199 37.4759, -18.5425 37.5031, -19.203 " /><path d="M37.5916, -19.254 C37.6255, -19.9496 37.3996, -20.7892 36.9947, -21.5148  C36.7453, -21.9653 36.4312, -22.3707 36.0953, -22.6804  C35.8749, -22.8835 35.6522, -23.0422 35.4272, -23.1568  C34.9771, -23.3869 34.5473, -23.412 34.2354, -23.2299 " /><path d="M37.589, -18.2379 C38.0133, -18.4792 38.2715, -19.0018 38.2987, -19.6623 " /><path d="M37.5031, -19.203 C37.532, -19.8106 37.3654, -20.5281 37.0507, -21.1835  C36.8298, -21.6468 36.5379, -22.0776 36.2144, -22.4229  C35.9479, -22.708 35.6605, -22.9351 35.3787, -23.0849  C34.9143, -23.3339 34.4681, -23.3665 34.147, -23.1789 " /><path d="M34.147, -23.1789 Q33.9903, -23.0882 33.8755, -22.9348 " /><path d="M37.1634, -18.0565 Q37.3445, -18.0968 37.5005, -18.1869 " /><path d="M37.5005, -18.1869 C37.9249, -18.4281 38.183, -18.9508 38.2103, -19.6112 " /><path d="M38.2987, -19.6623 C38.3326, -20.3578 38.1067, -21.1975 37.7018, -21.9231  C37.4524, -22.3736 37.1384, -22.7789 36.8024, -23.0887  C36.582, -23.2917 36.3593, -23.4505 36.1343, -23.565  C35.6842, -23.7952 35.2544, -23.8203 34.9425, -23.6382 " /><path d="M38.2961, -18.6461 C38.7204, -18.8874 38.9786, -19.4101 39.0058, -20.0705 " /><path d="M38.2103, -19.6112 C38.2391, -20.2189 38.0725, -20.9363 37.7578, -21.5918  C37.5369, -22.055 37.245, -22.4858 36.9215, -22.8311  C36.6552, -23.1161 36.3681, -23.3429 36.0865, -23.4928  C35.6218, -23.7421 35.1753, -23.7749 34.8541, -23.5871 " /><path d="M34.8541, -23.5871 Q34.6974, -23.4965 34.5826, -23.343 " /><path d="M37.8705, -18.4647 Q38.0516, -18.5051 38.2077, -18.5951 " /><path d="M38.2077, -18.5951 C38.632, -18.8364 38.8902, -19.359 38.9174, -20.0195 " /><path d="M39.0058, -20.0705 C39.0397, -20.7661 38.8138, -21.6057 38.4089, -22.3313  C38.1595, -22.7818 37.8455, -23.1872 37.5095, -23.4969  C37.2891, -23.7 37.0664, -23.8587 36.8414, -23.9733  C36.3913, -24.2034 35.9615, -24.2285 35.6496, -24.0464 " /><path d="M39.0032, -19.0544 C39.4275, -19.2957 39.6857, -19.8183 39.7129, -20.4788 " /><path d="M38.9174, -20.0195 C38.9462, -20.6271 38.7796, -21.3446 38.4649, -22  C38.244, -22.4632 37.9521, -22.8941 37.6287, -23.2393  C37.3625, -23.5241 37.0757, -23.7508 36.7943, -23.9007  C36.3294, -24.1503 35.8826, -24.1832 35.5612, -23.9954 " /><path d="M35.5612, -23.9954 Q35.4045, -23.9047 35.2897, -23.7513 " /><path d="M38.5776, -18.873 Q38.7587, -18.9133 38.9148, -19.0033 " /><path d="M38.9148, -19.0033 C39.3391, -19.2446 39.5973, -19.7673 39.6245, -20.4277 " /><path d="M39.7129, -20.4788 C39.7468, -21.1743 39.521, -22.014 39.116, -22.7396  C38.8666, -23.1901 38.5526, -23.5954 38.2166, -23.9052  C37.9962, -24.1082 37.7735, -24.267 37.5485, -24.3815  C37.0984, -24.6117 36.6686, -24.6368 36.3567, -24.4547 " /><path d="M39.7103, -19.4626 C40.1346, -19.7039 40.3928, -20.2266 40.42, -20.887 " /><path d="M39.6245, -20.4277 C39.6533, -21.0354 39.4867, -21.7528 39.172, -22.4083  C38.9511, -22.8715 38.6592, -23.3023 38.3358, -23.6476  C38.0699, -23.9321 37.7832, -24.1587 37.5021, -24.3086  C37.0369, -24.5585 36.5898, -24.5916 36.2683, -24.4036 " /><path d="M36.2683, -24.4036 Q36.1116, -24.313 35.9968, -24.1595 " /><path d="M39.2847, -19.2812 Q39.4658, -19.3216 39.6219, -19.4116 " /><path d="M39.6219, -19.4116 C40.0462, -19.6529 40.3044, -20.1755 40.3316, -20.836 " /><path d="M40.42, -20.887 C40.4539, -21.5826 40.2281, -22.4222 39.8231, -23.1478  C39.5737, -23.5983 39.2597, -24.0037 38.9237, -24.3134  C38.7033, -24.5165 38.4806, -24.6752 38.2556, -24.7898  C37.8055, -25.0199 37.3757, -25.045 37.0638, -24.8629 " /><path d="M40.4174, -19.8709 C40.8417, -20.1122 41.0999, -20.6348 41.1271, -21.2953 " /><path d="M40.3316, -20.836 C40.3604, -21.4436 40.1938, -22.1611 39.8792, -22.8165  C39.6582, -23.2797 39.3663, -23.7105 39.0429, -24.0558  C38.7772, -24.3401 38.4908, -24.5666 38.2099, -24.7165  C37.7445, -24.9667 37.2971, -24.9999 36.9754, -24.8119 " /><path d="M36.9754, -24.8119 Q36.8187, -24.7212 36.7039, -24.5678 " /><path d="M39.9918, -19.6895 Q40.1729, -19.7298 40.329, -19.8198 " /><path d="M40.329, -19.8198 C40.7533, -20.0611 41.0115, -20.5838 41.0387, -21.2442 " /><path d="M41.1271, -21.2953 C41.1611, -21.9908 40.9352, -22.8305 40.5302, -23.5561  C40.2808, -24.0066 39.9668, -24.4119 39.6308, -24.7217  C39.4104, -24.9247 39.1877, -25.0835 38.9627, -25.198  C38.5126, -25.4281 38.0828, -25.4533 37.7709, -25.2712 " /><path d="M41.1245, -20.2791 C41.5488, -20.5204 41.807, -21.0431 41.8342, -21.7035 " /><path d="M41.0387, -21.2442 C41.0676, -21.8519 40.9009, -22.5693 40.5863, -23.2247  C40.3653, -23.688 40.0735, -24.1188 39.75, -24.464  C39.4845, -24.7481 39.1984, -24.9745 38.9177, -25.1244  C38.452, -25.375 38.0044, -25.4083 37.6825, -25.2201 " /><path d="M37.6825, -25.2201 Q37.5258, -25.1295 37.411, -24.976 " /><path d="M40.6989, -20.0977 Q40.88, -20.1381 41.0361, -20.2281 " /><path d="M41.0361, -20.2281 C41.4604, -20.4694 41.7186, -20.992 41.7458, -21.6525 " /><path d="M41.8342, -21.7035 C41.8682, -22.3991 41.6423, -23.2387 41.2373, -23.9643  C40.9879, -24.4148 40.6739, -24.8202 40.3379, -25.1299  C40.1175, -25.333 39.8948, -25.4918 39.6698, -25.6063  C39.2197, -25.8364 38.7899, -25.8615 38.4781, -25.6794 " /><path d="M41.8316, -20.6874 C42.2559, -20.9287 42.5141, -21.4513 42.5413, -22.1117 " /><path d="M41.7458, -21.6525 C41.7747, -22.2601 41.608, -22.9775 41.2934, -23.633  C41.0725, -24.0962 40.7806, -24.527 40.4571, -24.8723  C40.1919, -25.1561 39.906, -25.3823 39.6255, -25.5322  C39.1596, -25.7832 38.7117, -25.8166 38.3896, -25.6284 " /><path d="M38.3896, -25.6284 Q38.2329, -25.5377 38.1181, -25.3843 " /><path d="M41.406, -20.506 Q41.5871, -20.5463 41.7432, -20.6363 " /><path d="M41.7432, -20.6363 C42.1675, -20.8776 42.4257, -21.4003 42.4529, -22.0607 " /><path d="M42.5413, -22.1117 C42.5753, -22.8073 42.3494, -23.647 41.9444, -24.3726  C41.695, -24.8231 41.381, -25.2284 41.045, -25.5382  C40.8246, -25.7412 40.6019, -25.9 40.3769, -26.0145  C39.9268, -26.2446 39.497, -26.2698 39.1852, -26.0877 " /><path d="M42.5387, -21.0956 C42.963, -21.3369 43.2212, -21.8596 43.2484, -22.52 " /><path d="M42.4529, -22.0607 C42.4818, -22.6683 42.3151, -23.3858 42.0005, -24.0412  C41.7796, -24.5044 41.4877, -24.9353 41.1643, -25.2805  C40.8992, -25.5641 40.6136, -25.7902 40.3334, -25.9401  C39.8672, -26.1914 39.4189, -26.225 39.0968, -26.0366 " /><path d="M39.0968, -26.0366 Q38.94, -25.946 38.8252, -25.7925 " /><path d="M42.1131, -20.9142 Q42.2943, -20.9546 42.4503, -21.0446 " /><path d="M42.4503, -21.0446 C42.8746, -21.2859 43.1328, -21.8085 43.16, -22.469 " /><path d="M43.2484, -22.52 C43.2824, -23.2156 43.0565, -24.0552 42.6515, -24.7808  C42.4021, -25.2313 42.0881, -25.6367 41.7521, -25.9464  C41.5317, -26.1495 41.309, -26.3082 41.084, -26.4228  C40.6339, -26.6529 40.2041, -26.678 39.8923, -26.4959 " /><path d="M43.2458, -21.5039 C43.6701, -21.7452 43.9283, -22.2678 43.9555, -22.9282 " /><path d="M43.16, -22.469 C43.1889, -23.0766 43.0223, -23.794 42.7076, -24.4495  C42.4867, -24.9127 42.1948, -25.3435 41.8714, -25.6888  C41.6066, -25.9721 41.3212, -26.1981 41.0411, -26.348  C40.5747, -26.5996 40.1262, -26.6333 39.8039, -26.4449 " /><path d="M39.8039, -26.4449 Q39.6471, -26.3542 39.5323, -26.2008 " /><path d="M42.8202, -21.3225 Q43.0014, -21.3628 43.1574, -21.4528 " /><path d="M43.1574, -21.4528 C43.5817, -21.6941 43.8399, -22.2168 43.8671, -22.8772 " /><path d="M43.9555, -22.9282 C43.9895, -23.6238 43.7636, -24.4635 43.3586, -25.1891  C43.1092, -25.6396 42.7952, -26.0449 42.4592, -26.3547  C42.2388, -26.5577 42.0161, -26.7165 41.7911, -26.831  C41.341, -27.0611 40.9113, -27.0863 40.5994, -26.9042 " /><path d="M43.9529, -21.9121 C44.3772, -22.1534 44.6354, -22.676 44.6626, -23.3365 " /><path d="M43.8671, -22.8772 C43.896, -23.4848 43.7294, -24.2023 43.4147, -24.8577  C43.1938, -25.3209 42.9019, -25.7517 42.5785, -26.097  C42.3139, -26.3801 42.0287, -26.606 41.7489, -26.7558  C41.2823, -27.0078 40.8335, -27.0416 40.511, -26.8531 " /><path d="M43.8645, -21.8611 C44.2888, -22.1024 44.547, -22.625 44.5742, -23.2855 " /><path d="M44.6626, -23.3365 C44.6966, -24.0321 44.4707, -24.8717 44.0657, -25.5973  C43.8163, -26.0478 43.5023, -26.4532 43.1663, -26.7629  C42.9459, -26.966 42.7232, -27.1248 42.4982, -27.2393  C42.0481, -27.4694 41.6183, -27.4945 41.3065, -27.3124 " /><path d="M44.66, -22.3204 C45.0843, -22.5617 45.3425, -23.0843 45.3697, -23.7447 " /><path d="M44.5742, -23.2855 C44.6031, -23.8931 44.4365, -24.6105 44.1218, -25.266  C43.9009, -25.7292 43.609, -26.16 43.2856, -26.5052  C43.0212, -26.7881 42.7364, -27.0138 42.4567, -27.1637  C41.9899, -27.416 41.5407, -27.45 41.2181, -27.2614 " /><path d="M41.2181, -27.2614 Q41.0613, -27.1707 40.9465, -27.0173 " /><path d="M44.2344, -22.139 Q44.4156, -22.1793 44.5716, -22.2693 " /><path d="M44.5716, -22.2693 C44.9959, -22.5106 45.2541, -23.0333 45.2813, -23.6937 " /><path d="M45.3697, -23.7447 C45.4037, -24.4403 45.1778, -25.28 44.7728, -26.0056  C44.5234, -26.4561 44.2094, -26.8614 43.8734, -27.1712  C43.653, -27.3742 43.4303, -27.533 43.2053, -27.6475  C42.7552, -27.8776 42.3255, -27.9028 42.0136, -27.7207 " /><path d="M45.3671, -22.7286 C45.7915, -22.9699 46.0496, -23.4925 46.0768, -24.153 " /><path d="M45.2813, -23.6937 C45.3102, -24.3013 45.1436, -25.0188 44.8289, -25.6742  C44.608, -26.1374 44.3162, -26.5682 43.9927, -26.9135  C43.7286, -27.1961 43.4441, -27.4216 43.1648, -27.5715  C42.6976, -27.8242 42.2481, -27.8584 41.9252, -27.6696 " /><path d="M41.9252, -27.6696 Q41.7684, -27.579 41.6536, -27.4255 " /><path d="M44.9415, -22.5472 Q45.1227, -22.5876 45.2787, -22.6776 " /><path d="M45.2787, -22.6776 C45.7031, -22.9189 45.9612, -23.4415 45.9884, -24.102 " /><path d="M46.0768, -24.153 C46.1108, -24.8486 45.8849, -25.6882 45.4799, -26.4138  C45.2305, -26.8643 44.9165, -27.2697 44.5805, -27.5794  C44.3601, -27.7825 44.1374, -27.9412 43.9124, -28.0558  C43.4623, -28.2859 43.0326, -28.311 42.7207, -28.1289 " /><path d="M46.0742, -23.1369 C46.4986, -23.3782 46.7568, -23.9008 46.784, -24.5612 " /><path d="M45.9884, -24.102 C46.0173, -24.7096 45.8507, -25.427 45.536, -26.0825  C45.3151, -26.5456 45.0233, -26.9764 44.6998, -27.3217  C44.4321, -27.6082 44.1434, -27.836 43.8603, -27.9859  C43.3972, -28.2331 42.9525, -28.265 42.6323, -28.0779 " /><path d="M42.6323, -28.0779 Q42.4755, -27.9872 42.3608, -27.8338 " /><path d="M45.6487, -22.9555 Q45.8298, -22.9958 45.9858, -23.0858 " /><path d="M45.9858, -23.0858 C46.4102, -23.3271 46.6683, -23.8498 46.6956, -24.5102 " /><path d="M46.784, -24.5612 C46.8179, -25.2568 46.592, -26.0965 46.187, -26.8221  C45.9376, -27.2726 45.6236, -27.6779 45.2876, -27.9877  C45.0672, -28.1907 44.8445, -28.3495 44.6195, -28.464  C44.1694, -28.6941 43.7397, -28.7193 43.4278, -28.5372 " /><path d="M46.7814, -23.5451 C47.2057, -23.7864 47.4639, -24.309 47.4911, -24.9695 " /><path d="M46.6956, -24.5102 C46.7244, -25.1178 46.5578, -25.8353 46.2432, -26.4907  C46.0223, -26.9539 45.7304, -27.3847 45.407, -27.7299  C45.1395, -28.0162 44.851, -28.2438 44.5683, -28.3937  C44.1049, -28.6413 43.6598, -28.6734 43.3394, -28.4861 " /><path d="M43.3394, -28.4861 Q43.1827, -28.3955 43.0679, -28.242 " /><path d="M46.3558, -23.3637 Q46.5369, -23.4041 46.693, -23.4941 " /><path d="M46.693, -23.4941 C47.1173, -23.7354 47.3755, -24.258 47.4027, -24.9185 " /><path d="M44.1599 -28.9492 A3 1.73205 60 0 1 45.5377 -28.7407" />
<path d="M45.5377 -28.7407 A3 1.73205 60 0 1 45.7041 -28.637" />
<path d="M47.4911, -24.9695 C47.525, -25.665 47.2991, -26.5047 46.8941, -27.2303  C46.574, -27.8095 46.1462, -28.312 45.7041, -28.637 " /><path d="M47.4027, -24.9185 C47.4315, -25.5261 47.2649, -26.2435 46.9503, -26.8989  C46.7294, -27.3621 46.4375, -27.7929 46.1141, -28.1382  C45.847, -28.424 45.559, -28.6514 45.2766, -28.8013  C44.8653, -29.0209 44.4678, -29.0725 44.1599, -28.9492 " /><path d="M47.659, -25.3964 C47.6594, -25.0061 47.5711, -24.6629 47.4046, -24.4116 " /><path d="M43.8051, -28.6534 Q43.9505, -28.8498 44.1599, -28.9492 " /><path id= "130" d=" M 47.659 -25.3964 L 47.659 -25.5563 " />
<path d="M45.7041, -28.637 Q45.6309, -28.6868 45.5586, -28.7286 " /><path d="M45.5586, -28.7286 L45.5489, -28.7342 " /><path d="M45.7399, -28.6102 Q45.8367, -28.568 45.9345, -28.5116 " /><path d="M45.9345, -28.5116 Q46.1122, -28.4089 46.2863, -28.2635 " /><path d="M47.659, -25.3964 C47.6601, -25.8895 47.5167, -26.4567 47.2627, -26.9771  C47.0152, -27.4881 46.6631, -27.95 46.2863, -28.2635 " /><path d="M45.948 -28.5037 A2.4 1.38564 60 0 1 45.9619 -28.4957" />
<path d="M45.9619 -28.4957 A2.4 1.38564 60 0 1 47.659 -25.5563" />
</g>

</svg>
