<svg xmlns="http://www.w3.org/2000/svg" viewBox="-9.52 -11.293500000000002 80.04 22.587000000000003">
<rect width="100%" height="100%" fill="white"/>
<g   fill="none"
   stroke="rgb(165, 165, 165)"
   stroke-dasharray="1.2,0.8"
   stroke-linecap="butt"
   stroke-linejoin="miter"
   stroke-width="0.25"
   transform="scale(1, -1)"
  >
<path d="M-4, 5 C-4, 4.9991 -4, 4.94171 -4, 4.82963  C-4, 4.71582 -4, 4.54755 -4, 4.33013 " /><path d="M-4, -4.33013 C-4, -4.54755 -4, -4.71582 -4, -4.82963  C-4, -4.94171 -4, -4.9991 -4, -5 " /><path d="M-4, 2.22045e-16 Q-4, -0.562676 -4, -1.1126  Q-4, -1.29319 -4, -1.47378  Q-4, -1.65024 -4, -1.82671  Q-4, -1.99806 -4, -2.16942  Q-4, -2.33471 -4, -2.5  Q-4, -2.6583 -4, -2.8166  Q-4, -2.96702 -4, -3.11745  Q-4, -3.25916 -4, -3.40086  Q-4, -3.53306 -4, -3.66526  Q-4, -3.78721 -4, -3.90916  Q-4, -4.02018 -4, -4.13119  Q-4, -4.23066 -4, -4.33013 " /><path d="M-4, 4.33013 Q-4, 4.23066 -4, 4.13119  Q-4, 4.02018 -4, 3.90916  Q-4, 3.78721 -4, 3.66526  Q-4, 3.53306 -4, 3.40086  Q-4, 3.25916 -4, 3.11745  Q-4, 2.96702 -4, 2.8166  Q-4, 2.6583 -4, 2.5  Q-4, 2.33471 -4, 2.16942  Q-4, 1.99806 -4, 1.82671  Q-4, 1.65024 -4, 1.47378  Q-4, 1.29319 -4, 1.1126  Q-4, 0.562676 -4, 3.33067e-16 " /><path d="M-4, 4.33013 C-3.99915, 4.78797 -3.91299, 5.24553 -3.72824, 5.7735 " /><path d="M-4, 6.66134e-16 C-3.99915, 0.915684 -3.91299, 1.83081 -3.72824, 2.88675 " /><path d="M-3.72824, 2.88675 C-3.91299, 3.41472 -3.99915, 3.87228 -4, 4.33013 " /><path d="M-4, -4.33013 C-3.99915, -3.87228 -3.91299, -3.41472 -3.72824, -2.88675 " /><path d="M-3.72824, -2.88675 C-3.91299, -1.83081 -3.99915, -0.915684 -4, 6.66134e-16 " /><path d="M-3.72824, -5.7735 C-3.91299, -5.24553 -3.99915, -4.78797 -4, -4.33013 " /><path id= "11" d=" M -0.2 2.88675 L -0.2 5.7735 " />
<path id= "12" d=" M -0.2 2.88675 L -3.72824 2.88675 " />
<path id= "13" d=" M -0.2 -2.88675 L -0.2 2.88675 " />
<path id= "14" d=" M -0.2 -2.88675 L -3.72824 -2.88675 " />
<path id= "15" d=" M -0.2 -5.7735 L -0.2 -2.88675 " />
<path d="M-0.2, 4.45 L-0.2, 4.33843  L-0.2, 4.00931  L-0.2, 3.47915  L-0.2, 2.77453  L-0.2, 1.93078  L-0.2, 0.990218  L-0.2, 2.22045e-16  L-0.2, -0.990218  L-0.2, -1.93078  L-0.2, -2.77453  L-0.2, -3.47915  L-0.2, -4.00931  L-0.2, -4.33843  L-0.2, -4.45 " /><path d="M-0.2, -4.45 L-0.2, -4.33843  L-0.2, -4.00931  L-0.2, -3.47915  L-0.2, -2.77453  L-0.2, -1.93078  L-0.2, -0.990218  L-0.2, -7.77156e-16  L-0.2, 0.990218  L-0.2, 1.93078  L-0.2, 2.77453  L-0.2, 3.47915  L-0.2, 4.00931  L-0.2, 4.33843  L-0.2, 4.45 " /><path d="M0, 4.45 L0, 4.33843  L0, 4.00931  L0, 3.47915  L0, 2.77453  L0, 1.93078  L0, 0.990218  L0, 2.22045e-16  L0, -0.990218  L0, -1.93078  L0, -2.77453  L0, -3.47915  L0, -4.00931  L0, -4.33843  L0, -4.45 " /><path d="M-4.16334e-17, 3.25 L-4.16334e-17, 3.16852  L-4.16334e-17, 2.92815  L-4.16334e-17, 2.54095  L-4.16334e-17, 2.02634  L-4.16334e-17, 1.41012  L-4.16334e-17, 0.723193  L-4.16334e-17, 2.22045e-16  L-4.16334e-17, -0.723193  L-4.16334e-17, -1.41012  L-4.16334e-17, -2.02634  L-4.16334e-17, -2.54095  L-4.16334e-17, -2.92815  L-4.16334e-17, -3.16852  L-4.16334e-17, -3.25 " /><path d="M-4.16334e-17, -3.25 L-4.16334e-17, -3.16852  L-4.16334e-17, -2.92815  L-4.16334e-17, -2.54095  L-4.16334e-17, -2.02634  L-4.16334e-17, -1.41012  L-4.16334e-17, -0.723193  L-4.16334e-17, -5.55112e-16  L-4.16334e-17, 0.723193  L-4.16334e-17, 1.41012  L-4.16334e-17, 2.02634  L-4.16334e-17, 2.54095  L-4.16334e-17, 2.92815  L-4.16334e-17, 3.16852  L-4.16334e-17, 3.25 " /><path d="M47.1625, 3 C47.1207, 3.00507 47.1023, 2.60082 47.1, 1.93189 " /><path d="M47.1, 1.53567 Q47.1, 1.74518 47.1, 1.93189 " /><path d="M47.1, 1.53567 C47.1031, 0.468737 47.133, -0.982481 47.1293, -1.91967 " /><path d="M47.1293, -1.91967 C47.1289, -2.1023 47.1334, -2.26603 47.151, -2.38704  C47.1609, -2.45258 47.1766, -2.50835 47.2022, -2.5099  C47.2368, -2.50942 47.2718, -2.42117 47.2987, -2.3267  C47.3304, -2.21171 47.3573, -2.07599 47.3793, -1.91952 " /><path d="M47.3793, -1.91952 C47.4848, -1.18664 47.605, -0.147364 47.7124, 0.785146  C47.7908, 1.46365 47.8624, 2.07711 47.9205, 2.47715  C47.962, 2.76307 47.9966, 2.94138 48.0236, 2.98739 " /><path d="M47.6771, -2.98742 C47.7138, -2.92598 47.7505, -2.61522 47.7872, -2.12482  C47.839, -1.43855 47.8908, -0.396211 47.9426, 0.564289  C47.971, 1.09016 47.9994, 1.58753 48.0278, 1.98796  C48.0727, 2.6259 48.1176, 3.00426 48.1625, 3 " /><path d="M47.1, 1.93189 Q47.1, 1.7444 47.1, 1.53567 " /><path d="M48.6771, -2.98742 C48.7137, -2.92612 48.7503, -2.61675 48.787, -2.12838  C48.839, -1.44063 48.891, -0.393294 48.943, 0.570576  C48.9713, 1.09449 48.9996, 1.5898 49.0278, 1.98877  C49.0727, 2.62623 49.1176, 3.00425 49.1625, 3 " /><path d="M48.5375, -3 C48.5767, -3.00251 48.6158, -2.71773 48.655, -2.21783  C48.6905, -1.76915 48.7259, -1.15022 48.7613, -0.490785  C48.8059, 0.339471 48.8505, 1.22386 48.8951, 1.87812  C48.9377, 2.50716 48.9803, 2.91729 49.0229, 2.98741 " /><path d="M49.6771, -2.98742 C49.7136, -2.92625 49.7502, -2.61824 49.7867, -2.13184  C49.8386, -1.44627 49.8906, -0.401591 49.9425, 0.561421  C49.9709, 1.08849 49.9994, 1.58707 50.0278, 1.98827  C50.0727, 2.62603 50.1176, 3.00425 50.1625, 3 " /><path d="M49.5375, -3 C49.5765, -3.00247 49.6155, -2.72054 49.6545, -2.22503  C49.6899, -1.77745 49.7254, -1.15854 49.7609, -0.498401  C49.8057, 0.334828 49.8505, 1.22354 49.8953, 1.87999  C49.9378, 2.508 49.9803, 2.91735 50.0229, 2.98741 " /><path d="M50.6771, -2.98742 C50.7138, -2.92594 50.7506, -2.61475 50.7873, -2.12374  C50.8395, -1.43208 50.8917, -0.37913 50.9438, 0.587007  C50.9718, 1.10487 50.9998, 1.59398 51.0278, 1.98879  C51.0727, 2.62624 51.1176, 3.00425 51.1625, 3 " /><path d="M50.5375, -3 C50.5764, -3.00244 50.6153, -2.72196 50.6542, -2.22869  C50.6899, -1.77906 50.7256, -1.15546 50.7613, -0.490622  C50.8059, 0.339874 50.8506, 1.22451 50.8952, 1.87879  C50.9377, 2.50747 50.9803, 2.91731 51.0229, 2.98741 " /><path d="M51.6771, -2.98742 C51.7137, -2.92616 51.7503, -2.61719 51.7869, -2.12941  C51.8388, -1.44381 51.8906, -0.400389 51.9425, 0.561501  C51.971, 1.08926 51.9994, 1.58845 52.0279, 1.98992  C52.0728, 2.6267 52.1177, 3.00424 52.1625, 3 " /><path d="M51.5375, -3 C51.5764, -3.00246 51.6154, -2.72091 51.6544, -2.22597  C51.69, -1.7769 51.7256, -1.15503 51.7612, -0.492079  C51.806, 0.34079 51.8507, 1.22826 51.8955, 1.8834  C51.938, 2.50952 51.9804, 2.91746 52.0229, 2.98741 " /><path d="M52.6771, -2.98742 C52.7138, -2.92593 52.7506, -2.61466 52.7873, -2.12354  C52.839, -1.43795 52.8908, -0.397717 52.9425, 0.561395  C52.9709, 1.08894 52.9994, 1.58795 53.0279, 1.98935  C53.0728, 2.62647 53.1176, 3.00424 53.1625, 3 " /><path d="M52.5375, -3 C52.5767, -3.00251 52.6158, -2.7178 52.655, -2.21799  C52.6904, -1.76951 52.7259, -1.1509 52.7613, -0.491756  C52.8061, 0.342449 52.8509, 1.23136 52.8957, 1.88676  C52.9381, 2.51102 52.9805, 2.91757 53.0229, 2.98741 " /><path d="M53.6771, -2.98742 C53.7138, -2.92598 53.7505, -2.61519 53.7872, -2.12477  C53.8394, -1.43366 53.8916, -0.381259 53.9437, 0.584752  C53.9717, 1.1027 53.9997, 1.59199 54.0277, 1.98707  C54.0727, 2.62553 54.1176, 3.00426 54.1625, 3 " /><path d="M53.5375, -3 C53.5767, -3.00252 53.6159, -2.71713 53.6552, -2.21628  C53.6907, -1.76598 53.7262, -1.14457 53.7617, -0.483013  C53.8063, 0.346963 53.8509, 1.23003 53.8954, 1.88274  C53.9379, 2.50923 53.9804, 2.91744 54.0229, 2.98741 " /><path d="M54.6771, -2.98742 C54.7137, -2.92621 54.7502, -2.61783 54.7868, -2.1309  C54.839, -1.44163 54.8911, -0.389725 54.9433, 0.577085  C54.9716, 1.10029 54.9998, 1.59462 55.0281, 1.99261  C55.0729, 2.6278 55.1177, 3.00422 55.1625, 3 " /><path d="M54.5375, -3 C54.5767, -3.00251 54.6159, -2.71757 54.6551, -2.2174  C54.6905, -1.76821 54.726, -1.14848 54.7614, -0.488356  C54.8061, 0.342325 54.8507, 1.22687 54.8953, 1.88077  C54.9378, 2.50835 54.9804, 2.91738 55.0229, 2.98741 " /><path d="M55.6771, -2.98742 C55.7137, -2.9261 55.7504, -2.61657 55.787, -2.12797  C55.8391, -1.43895 55.8912, -0.38917 55.9433, 0.575962  C55.9715, 1.09878 55.9997, 1.59283 56.028, 1.99079  C56.0728, 2.62706 56.1177, 3.00423 56.1625, 3 " /><path d="M55.5375, -3 C55.5764, -3.00244 55.6153, -2.7219 55.6542, -2.22853  C55.6898, -1.78095 55.7253, -1.16106 55.7608, -0.499667  C55.8056, 0.333768 55.8504, 1.22288 55.8952, 1.87962  C55.9378, 2.50784 55.9803, 2.91734 56.0229, 2.98741 " /><path d="M56.6771, -2.98742 C56.7137, -2.92616 56.7503, -2.6173 56.7869, -2.12967  C56.8392, -1.43865 56.8914, -0.383783 56.9437, 0.584436  C56.9717, 1.10239 56.9997, 1.5917 57.0277, 1.98682  C57.0726, 2.62543 57.1176, 3.00427 57.1625, 3 " /><path d="M56.5375, -3 C56.5765, -3.00247 56.6155, -2.72017 56.6546, -2.22408  C56.6901, -1.77557 56.7256, -1.15524 56.7612, -0.493897  C56.8058, 0.33748 56.8505, 1.22354 56.8952, 1.87866  C56.9378, 2.50741 56.9803, 2.91731 57.0229, 2.98741 " /><path d="M57.6771, -2.98742 C57.7137, -2.92611 57.7503, -2.61678 57.787, -2.12847  C57.8392, -1.43784 57.8914, -0.384429 57.9436, 0.58278  C57.9719, 1.10672 58.0003, 1.6014 58.0286, 1.99908  C58.0732, 2.63044 58.1179, 3.00416 58.1625, 3 " /><path d="M57.5375, -3 C57.5765, -3.00246 57.6154, -2.72089 57.6544, -2.22593  C57.6902, -1.77423 57.7261, -1.14766 57.7619, -0.480389  C57.8064, 0.348524 57.8509, 1.23007 57.8954, 1.88201  C57.9379, 2.5089 57.9804, 2.91742 58.0229, 2.98741 " /><path d="M58.6771, -2.98742 C58.7137, -2.92607 58.7504, -2.61629 58.7871, -2.12733  C58.8388, -1.44263 58.8905, -0.402217 58.9423, 0.55765  C58.9708, 1.08643 58.9993, 1.58673 59.0279, 1.98902  C59.0727, 2.62633 59.1176, 3.00425 59.1625, 3 " /><path d="M58.5375, -3 C58.5765, -3.00246 58.6155, -2.7208 58.6544, -2.22571  C58.6902, -1.77413 58.7261, -1.14786 58.7619, -0.480879  C58.8063, 0.346061 58.8507, 1.22548 58.8951, 1.87703  C58.9377, 2.50669 58.9803, 2.91726 59.0229, 2.98741 " /><path d="M59.6771, -2.98742 C59.7137, -2.92614 59.7503, -2.6171 59.7869, -2.12922  C59.839, -1.44035 59.8911, -0.390199 59.9432, 0.575357  C59.9714, 1.09795 59.9997, 1.59183 60.0279, 1.98977  C60.0728, 2.62664 60.1176, 3.00424 60.1625, 3 " /><path d="M59.5375, -3 C59.5766, -3.00251 59.6158, -2.71834 59.6549, -2.21943  C59.6903, -1.77195 59.7257, -1.15472 59.761, -0.496697  C59.8058, 0.335874 59.8505, 1.22363 59.8952, 1.87959  C59.9378, 2.50783 59.9803, 2.91734 60.0229, 2.98741 " /><path d="M60.6771, -2.98742 C60.7137, -2.92612 60.7503, -2.61691 60.7869, -2.12878  C60.8389, -1.44163 60.8909, -0.395321 60.9428, 0.568058  C60.9712, 1.09279 60.9995, 1.58894 61.0278, 1.98851  C61.0727, 2.62613 61.1176, 3.00425 61.1625, 3 " /><path d="M60.5375, -3 C60.5766, -3.00249 60.6157, -2.7189 60.6548, -2.22082  C60.6906, -1.76827 60.7264, -1.14161 60.7622, -0.474761  C60.8065, 0.350208 60.8508, 1.22665 60.895, 1.87654  C60.9377, 2.50647 60.9803, 2.91724 61.0229, 2.98741 " /><path d="M61.6771, -2.98741 C61.7139, -2.92585 61.7507, -2.61381 61.7875, -2.12157  C61.8395, -1.43107 61.8916, -0.381693 61.9436, 0.582106  C61.9719, 1.10597 62.0002, 1.60061 62.0285, 1.99833  C62.0732, 2.63014 62.1179, 3.00417 62.1625, 3 " /><path d="M61.5375, -3 C61.5765, -3.00247 61.6156, -2.72002 61.6546, -2.22369  C61.6903, -1.77247 61.7261, -1.14738 61.7618, -0.481698  C61.8063, 0.346234 61.8507, 1.22686 61.8952, 1.87882  C61.9378, 2.50748 61.9803, 2.91732 62.0229, 2.98741 " /><path d="M62.6771, -2.98741 C62.7138, -2.92599 62.7505, -2.61536 62.7872, -2.12517  C62.8393, -1.43555 62.8913, -0.386032 62.9434, 0.578469  C62.9717, 1.10186 62.9999, 1.59629 63.0282, 1.99422  C63.073, 2.62846 63.1178, 3.0042 63.1625, 3 " /><path d="M62.5375, -3 C62.5767, -3.00251 62.6159, -2.71773 62.6551, -2.21784  C62.6905, -1.76916 62.7259, -1.15022 62.7613, -0.490796  C62.8059, 0.339452 62.8505, 1.22383 62.8952, 1.87809  C62.9377, 2.50716 62.9803, 2.9173 63.0229, 2.98741 " /><path d="M63.6771, -2.98741 C63.7138, -2.92591 63.7506, -2.61448 63.7874, -2.12313  C63.8391, -1.43664 63.8909, -0.394746 63.9427, 0.565218  C63.9712, 1.09304 63.9997, 1.59208 64.0282, 1.99317  C64.0729, 2.62803 64.1177, 3.00421 64.1625, 3 " /><path d="M63.5375, -3 C63.5766, -3.00248 63.6156, -2.71958 63.6547, -2.22257  C63.6901, -1.77528 63.7255, -1.15757 63.7609, -0.498783  C63.8056, 0.333076 63.8503, 1.2203 63.895, 1.87649  C63.9377, 2.50645 63.9803, 2.91724 64.0229, 2.98741 " /><path d="M64.7935, 2.59202 C64.7635, 2.54452 64.734, 2.12747 64.7047, 1.48938  C64.688, 1.1272 64.6715, 0.698628 64.655, 0.254348  C64.6212, -0.661401 64.5879, -1.62686 64.555, -2.22601  C64.5322, -2.64629 64.5096, -2.89212 64.4872, -2.91283 " /><path d="M65, 2.4 L65, 2.33983  L65, 2.16233  L65, 1.8764  L65, 1.49638  L65, 1.04132  L65, 0.53405  L65, 1.11022e-16  L65, -0.53405  L65, -1.04132  L65, -1.49638  L65, -1.8764  L65, -2.16233  L65, -2.33983  L65, -2.4 " /></g>
<g   fill="none"
   stroke="rgb(0, 0, 0)"
   stroke-linecap="butt"
   stroke-linejoin="miter"
   stroke-width="0.35"
   transform="scale(1, -1)"
  >
<path id= "1" d=" M -4 -5 L -3.72824 -5.7735 " />
<path id= "2" d=" M -0.2 -4.45 L 0 -4.45 " />
<path d="M0.25, -3 C0.182127, -3.00097 0.123666, -3.02492 0.0746171, -3.07184  C0.0272469, -3.11809 -0.000275702, -3.1838 3.46945e-18, -3.25 " /><path id= "4" d=" M 0.25 -3 L 47.6625 -3 " />
<path d="M47.7094, 2.44529 Q47.7029, 2.4329 47.6844, 2.41659  Q47.6494, 2.3877 47.6, 2.38661 " /><path d="M48.0236, 2.98739 L47.7094, 2.44529 " /><path id= "7" d=" M 48.5375 -3 L 48.6625 -3 " />
<path d="M47.4928, 2.44347 L47.1771, 2.98742 " /><path d="M47.9928, -2.44346 L47.6771, -2.98742 " /><path d="M48.2073, -2.44347 Q48.2015, -2.43225 48.1834, -2.41615  Q48.1597, -2.39639 48.1264, -2.38923  Q48.1132, -2.38792 48.1, -2.3866  Q48.0536, -2.38754 48.0197, -2.41375  Q47.9992, -2.431 47.9928, -2.44346 " /><path d="M48.7073, 2.44347 Q48.7015, 2.43225 48.6834, 2.41615  Q48.649, 2.38775 48.6, 2.38661 " /><path d="M47.6, 2.38661 Q47.5536, 2.38754 47.5197, 2.41375  Q47.4992, 2.431 47.4928, 2.44347 " /><path d="M48.5229, -2.98741 L48.2073, -2.44347 " /><path d="M49.0229, 2.98741 L48.7073, 2.44347 " /><path id= "15" d=" M 49.5375 -3 L 49.6625 -3 " />
<path d="M48.4928, 2.44346 L48.1771, 2.98742 " /><path d="M48.9928, -2.44346 L48.6771, -2.98742 " /><path d="M49.2073, -2.44346 Q49.2015, -2.43225 49.1834, -2.41615  Q49.1597, -2.39639 49.1264, -2.38923  Q49.1132, -2.38792 49.1, -2.3866  Q49.0536, -2.38754 49.0197, -2.41375  Q48.9992, -2.431 48.9928, -2.44346 " /><path d="M49.7073, 2.44347 Q49.7015, 2.43225 49.6834, 2.41615  Q49.6489, 2.38775 49.6, 2.3866 " /><path d="M48.6, 2.38661 Q48.5536, 2.38754 48.5197, 2.41375  Q48.4992, 2.431 48.4928, 2.44346 " /><path d="M49.5229, -2.98741 L49.2073, -2.44346 " /><path d="M50.0229, 2.98741 L49.7073, 2.44347 " /><path id= "23" d=" M 50.5375 -3 L 50.6625 -3 " />
<path d="M49.4928, 2.44346 L49.1771, 2.98742 " /><path d="M49.9928, -2.44346 L49.6771, -2.98742 " /><path d="M50.2073, -2.44346 Q50.2015, -2.43224 50.1834, -2.41614  Q50.1597, -2.39639 50.1264, -2.38923  Q50.1132, -2.38791 50.1, -2.3866  Q50.0536, -2.38753 50.0197, -2.41375  Q49.9992, -2.431 49.9928, -2.44346 " /><path d="M50.7073, 2.44347 Q50.7015, 2.43225 50.6834, 2.41615  Q50.6489, 2.38775 50.6, 2.3866 " /><path d="M49.6, 2.3866 Q49.5536, 2.38754 49.5197, 2.41375  Q49.4992, 2.431 49.4928, 2.44346 " /><path d="M50.5229, -2.98741 L50.2073, -2.44346 " /><path d="M51.0229, 2.98741 L50.7073, 2.44347 " /><path id= "31" d=" M 51.5375 -3 L 51.6625 -3 " />
<path d="M50.4928, 2.44346 L50.1771, 2.98742 " /><path d="M50.9928, -2.44345 L50.6771, -2.98742 " /><path d="M51.2073, -2.44346 Q51.2015, -2.43224 51.1834, -2.41614  Q51.1597, -2.39639 51.1264, -2.38923  Q51.1132, -2.38791 51.1, -2.3866  Q51.0536, -2.38753 51.0197, -2.41374  Q50.9992, -2.43099 50.9928, -2.44345 " /><path d="M51.7073, 2.44346 Q51.7015, 2.43224 51.6834, 2.41614  Q51.6489, 2.38774 51.6, 2.3866 " /><path d="M50.6, 2.3866 Q50.5536, 2.38753 50.5197, 2.41374  Q50.4992, 2.431 50.4928, 2.44346 " /><path d="M51.5229, -2.98741 L51.2073, -2.44346 " /><path d="M52.0229, 2.98741 L51.7073, 2.44346 " /><path id= "39" d=" M 52.5375 -3 L 52.6625 -3 " />
<path d="M51.4928, 2.44346 L51.1771, 2.98742 " /><path d="M51.9928, -2.44345 L51.6771, -2.98742 " /><path d="M52.2073, -2.44346 Q52.2015, -2.43224 52.1834, -2.41614  Q52.1597, -2.39638 52.1264, -2.38922  Q52.1132, -2.38791 52.1, -2.38659  Q52.0536, -2.38753 52.0197, -2.41374  Q51.9992, -2.43099 51.9928, -2.44345 " /><path d="M52.7073, 2.44346 Q52.7015, 2.43224 52.6834, 2.41614  Q52.6489, 2.38774 52.6, 2.3866 " /><path d="M51.6, 2.3866 Q51.5536, 2.38753 51.5197, 2.41374  Q51.4992, 2.43099 51.4928, 2.44346 " /><path d="M52.5229, -2.98741 L52.2073, -2.44346 " /><path d="M53.0229, 2.98741 L52.7073, 2.44346 " /><path id= "47" d=" M 53.5375 -3 L 53.6625 -3 " />
<path d="M52.4928, 2.44346 L52.1771, 2.98742 " /><path d="M52.9928, -2.44345 L52.6771, -2.98742 " /><path d="M53.2073, -2.44345 Q53.2015, -2.43224 53.1834, -2.41614  Q53.1597, -2.39638 53.1264, -2.38922  Q53.1132, -2.38791 53.1, -2.38659  Q53.0536, -2.38753 53.0197, -2.41374  Q52.9992, -2.43099 52.9928, -2.44345 " /><path d="M53.7073, 2.44346 Q53.7015, 2.43224 53.6834, 2.41614  Q53.6489, 2.38774 53.6, 2.3866 " /><path d="M52.6, 2.3866 Q52.5536, 2.38753 52.5197, 2.41374  Q52.4992, 2.43099 52.4928, 2.44346 " /><path d="M53.5229, -2.98741 L53.2073, -2.44345 " /><path d="M54.0229, 2.98741 L53.7073, 2.44346 " /><path id= "55" d=" M 54.5375 -3 L 54.6625 -3 " />
<path d="M53.4928, 2.44345 L53.1771, 2.98741 " /><path d="M53.9928, -2.44345 L53.6771, -2.98742 " /><path d="M54.2073, -2.44345 Q54.2015, -2.43223 54.1834, -2.41613  Q54.1597, -2.39638 54.1264, -2.38922  Q54.1132, -2.3879 54.1, -2.38659  Q54.0536, -2.38753 54.0197, -2.41374  Q53.9992, -2.43099 53.9928, -2.44345 " /><path d="M54.7073, 2.44346 Q54.7015, 2.43224 54.6834, 2.41614  Q54.6489, 2.38774 54.6, 2.38659 " /><path d="M53.6, 2.3866 Q53.5536, 2.38753 53.5197, 2.41374  Q53.4992, 2.43099 53.4928, 2.44345 " /><path d="M54.5229, -2.98741 L54.2073, -2.44345 " /><path d="M55.0229, 2.98741 L54.7073, 2.44346 " /><path id= "63" d=" M 55.5375 -3 L 55.6625 -3 " />
<path d="M54.4928, 2.44345 L54.1771, 2.98741 " /><path d="M54.9928, -2.44344 L54.6771, -2.98742 " /><path d="M55.2073, -2.44345 Q55.2015, -2.43223 55.1834, -2.41613  Q55.1596, -2.39638 55.1264, -2.38922  Q55.1132, -2.3879 55.1, -2.38659  Q55.0536, -2.38752 55.0197, -2.41374  Q54.9992, -2.43099 54.9928, -2.44344 " /><path d="M55.7073, 2.44345 Q55.7015, 2.43223 55.6834, 2.41613  Q55.6489, 2.38773 55.6, 2.38659 " /><path d="M54.6, 2.38659 Q54.5536, 2.38752 54.5197, 2.41374  Q54.4992, 2.43099 54.4928, 2.44345 " /><path d="M55.5229, -2.98741 L55.2073, -2.44345 " /><path d="M56.0229, 2.98741 L55.7073, 2.44345 " /><path id= "71" d=" M 56.5375 -3 L 56.6625 -3 " />
<path d="M55.4928, 2.44345 L55.1771, 2.98741 " /><path d="M55.9928, -2.44344 L55.6771, -2.98742 " /><path d="M56.2073, -2.44345 Q56.2015, -2.43223 56.1834, -2.41613  Q56.1596, -2.39637 56.1264, -2.38921  Q56.1132, -2.3879 56.1, -2.38658  Q56.0536, -2.38752 56.0197, -2.41373  Q55.9992, -2.43098 55.9928, -2.44344 " /><path d="M56.7072, 2.44345 Q56.7015, 2.43223 56.6834, 2.41613  Q56.6489, 2.38773 56.6, 2.38659 " /><path d="M55.6, 2.38659 Q55.5536, 2.38752 55.5197, 2.41373  Q55.4992, 2.43099 55.4928, 2.44345 " /><path d="M56.5229, -2.98741 L56.2073, -2.44345 " /><path d="M57.0229, 2.98741 L56.7072, 2.44345 " /><path id= "79" d=" M 57.5375 -3 L 57.6625 -3 " />
<path d="M56.4928, 2.44345 L56.1771, 2.98741 " /><path d="M56.9928, -2.44344 L56.6771, -2.98742 " /><path d="M57.2072, -2.44344 Q57.2015, -2.43222 57.1834, -2.41612  Q57.1596, -2.39637 57.1264, -2.38921  Q57.1132, -2.3879 57.1, -2.38658  Q57.0536, -2.38752 57.0197, -2.41373  Q56.9992, -2.43098 56.9928, -2.44344 " /><path d="M57.7072, 2.44345 Q57.7015, 2.43223 57.6834, 2.41613  Q57.6489, 2.38773 57.6, 2.38659 " /><path d="M56.6, 2.38659 Q56.5536, 2.38752 56.5197, 2.41373  Q56.4992, 2.43098 56.4928, 2.44345 " /><path d="M57.5229, -2.98741 L57.2072, -2.44344 " /><path d="M58.0229, 2.98741 L57.7072, 2.44345 " /><path id= "87" d=" M 58.5375 -3 L 58.6625 -3 " />
<path d="M57.4928, 2.44345 L57.1771, 2.98741 " /><path d="M57.9928, -2.44344 L57.6771, -2.98742 " /><path d="M58.2072, -2.44344 Q58.2015, -2.43222 58.1834, -2.41612  Q58.1596, -2.39637 58.1264, -2.38921  Q58.1132, -2.38789 58.1, -2.38658  Q58.0535, -2.38752 58.0197, -2.41373  Q57.9992, -2.43098 57.9928, -2.44344 " /><path d="M58.7072, 2.44345 Q58.7015, 2.43222 58.6834, 2.41613  Q58.6489, 2.38773 58.6, 2.38658 " /><path d="M57.6, 2.38659 Q57.5536, 2.38752 57.5197, 2.41373  Q57.4992, 2.43098 57.4928, 2.44345 " /><path d="M58.5229, -2.98741 L58.2072, -2.44344 " /><path d="M59.0229, 2.98741 L58.7072, 2.44345 " /><path id= "95" d=" M 59.5375 -3 L 59.6625 -3 " />
<path d="M58.4928, 2.44344 L58.1771, 2.98741 " /><path d="M58.9928, -2.44344 L58.6771, -2.98742 " /><path d="M59.2072, -2.44344 Q59.2015, -2.43222 59.1834, -2.41612  Q59.1596, -2.39637 59.1264, -2.38921  Q59.1132, -2.38789 59.1, -2.38658  Q59.0535, -2.38752 59.0197, -2.41373  Q58.9992, -2.43098 58.9928, -2.44344 " /><path d="M59.7072, 2.44344 Q59.7015, 2.43222 59.6834, 2.41612  Q59.6489, 2.38773 59.6, 2.38658 " /><path d="M58.6, 2.38658 Q58.5536, 2.38752 58.5197, 2.41373  Q58.4992, 2.43098 58.4928, 2.44344 " /><path d="M59.5229, -2.98741 L59.2072, -2.44344 " /><path d="M60.0229, 2.98741 L59.7072, 2.44344 " /><path id= "103" d=" M 60.5375 -3 L 60.6625 -3 " />
<path d="M59.4928, 2.44344 L59.1771, 2.98741 " /><path d="M59.9928, -2.44343 L59.6771, -2.98742 " /><path d="M60.2072, -2.44344 Q60.2015, -2.43222 60.1834, -2.41612  Q60.1596, -2.39636 60.1264, -2.3892  Q60.1132, -2.38789 60.1, -2.38658  Q60.0535, -2.38751 60.0197, -2.41373  Q59.9992, -2.43098 59.9928, -2.44343 " /><path d="M60.7072, 2.44344 Q60.7015, 2.43222 60.6834, 2.41612  Q60.6489, 2.38772 60.6, 2.38658 " /><path d="M59.6, 2.38658 Q59.5536, 2.38751 59.5197, 2.41372  Q59.4992, 2.43098 59.4928, 2.44344 " /><path d="M60.5229, -2.98741 L60.2072, -2.44344 " /><path d="M61.0229, 2.98741 L60.7072, 2.44344 " /><path id= "111" d=" M 61.5375 -3 L 61.6625 -3 " />
<path d="M60.4928, 2.44344 L60.1771, 2.98741 " /><path d="M60.9928, -2.44343 L60.6771, -2.98742 " /><path d="M61.2072, -2.44343 Q61.2015, -2.43221 61.1834, -2.41611  Q61.1596, -2.39636 61.1264, -2.3892  Q61.1132, -2.38789 61.1, -2.38657  Q61.0535, -2.38751 61.0197, -2.41372  Q60.9992, -2.43097 60.9928, -2.44343 " /><path d="M61.7072, 2.44344 Q61.7015, 2.43222 61.6834, 2.41612  Q61.6489, 2.38772 61.6, 2.38658 " /><path d="M60.6, 2.38658 Q60.5536, 2.38751 60.5197, 2.41372  Q60.4992, 2.43098 60.4928, 2.44344 " /><path d="M61.5229, -2.98741 L61.2072, -2.44343 " /><path d="M62.0229, 2.98741 L61.7072, 2.44344 " /><path id= "119" d=" M 62.5375 -3 L 62.6625 -3 " />
<path d="M61.4928, 2.44344 L61.1771, 2.98741 " /><path d="M61.9928, -2.44343 L61.6771, -2.98742 " /><path d="M62.2072, -2.44343 Q62.2015, -2.43221 62.1834, -2.41611  Q62.1596, -2.39636 62.1264, -2.3892  Q62.1132, -2.38789 62.1, -2.38657  Q62.0535, -2.38751 62.0197, -2.41372  Q61.9992, -2.43097 61.9928, -2.44343 " /><path d="M62.7072, 2.44344 Q62.7014, 2.43221 62.6833, 2.41611  Q62.6489, 2.38772 62.6, 2.38657 " /><path d="M61.6, 2.38658 Q61.5536, 2.38751 61.5197, 2.41372  Q61.4992, 2.43097 61.4928, 2.44344 " /><path d="M62.5229, -2.98741 L62.2072, -2.44343 " /><path d="M63.0229, 2.98741 L62.7072, 2.44344 " /><path id= "127" d=" M 63.5375 -3 L 63.6625 -3 " />
<path d="M62.4928, 2.44343 L62.1771, 2.98741 " /><path d="M62.9928, -2.44343 L62.6771, -2.98741 " /><path d="M63.2072, -2.44343 Q63.2014, -2.43221 63.1833, -2.41611  Q63.1596, -2.39636 63.1264, -2.3892  Q63.1132, -2.38788 63.1, -2.38657  Q63.0535, -2.38751 63.0197, -2.41372  Q62.9992, -2.43097 62.9928, -2.44343 " /><path d="M63.7072, 2.44343 Q63.7014, 2.43221 63.6833, 2.41611  Q63.6489, 2.38772 63.6, 2.38657 " /><path d="M62.6, 2.38657 Q62.5536, 2.38751 62.5197, 2.41372  Q62.4992, 2.43097 62.4928, 2.44343 " /><path d="M63.5229, -2.98741 L63.2072, -2.44343 " /><path d="M64.0229, 2.98741 L63.7072, 2.44343 " /><path d="M63.4928, 2.44343 L63.1771, 2.98741 " /><path d="M63.9928, -2.44343 L63.6771, -2.98741 " /><path d="M64.2072, -2.44343 Q64.2014, -2.43221 64.1833, -2.41611  Q64.1596, -2.39635 64.1264, -2.3892  Q64.1132, -2.38788 64.1, -2.38657  Q64.0535, -2.3875 64.0196, -2.41372  Q63.9992, -2.43097 63.9928, -2.44343 " /><path d="M64.7072, 2.44343 Q64.7014, 2.43221 64.6833, 2.41611  Q64.6489, 2.38771 64.6, 2.38657 " /><path d="M63.6, 2.38657 Q63.5536, 2.3875 63.5197, 2.41372  Q63.4992, 2.43097 63.4928, 2.44343 " /><path d="M64.2072, -2.44343 L64.4777, -2.9094 " /><path d="M64.7072, 2.44343 L64.7935, 2.59202 " /><path id= "142" d=" M 65 -2.4 L 64.4872 -2.91283 " />
<path d="M64.4928, 2.44343 L64.1771, 2.98741 " /><path d="M64.6, 2.38657 Q64.5535, 2.3875 64.5197, 2.41371  Q64.4992, 2.43097 64.4928, 2.44343 " /></g>
<g   fill="none"
   stroke="rgb(0, 0, 0)"
   stroke-linecap="butt"
   stroke-linejoin="miter"
   stroke-width="0.35"
   transform="scale(1, -1)"
  >
<path d="M-4, 4.33013 C-4, 4.54755 -4, 4.71582 -4, 4.82963  C-4, 4.94171 -4, 4.9991 -4, 5 " /><path d="M-4, -8.88178e-16 Q-4, 0.562676 -4, 1.1126  Q-4, 1.29319 -4, 1.47378  Q-4, 1.65024 -4, 1.82671  Q-4, 1.99806 -4, 2.16942  Q-4, 2.33471 -4, 2.5  Q-4, 2.6583 -4, 2.8166  Q-4, 2.96702 -4, 3.11745  Q-4, 3.25916 -4, 3.40086  Q-4, 3.53306 -4, 3.66526  Q-4, 3.78721 -4, 3.90916  Q-4, 4.02018 -4, 4.13119  Q-4, 4.23066 -4, 4.33013 " /><path d="M-4, -4.33013 Q-4, -4.23066 -4, -4.13119  Q-4, -4.02018 -4, -3.90916  Q-4, -3.78721 -4, -3.66526  Q-4, -3.53306 -4, -3.40086  Q-4, -3.25916 -4, -3.11745  Q-4, -2.96702 -4, -2.8166  Q-4, -2.6583 -4, -2.5  Q-4, -2.33471 -4, -2.16942  Q-4, -1.99806 -4, -1.82671  Q-4, -1.65024 -4, -1.47378  Q-4, -1.29319 -4, -1.1126  Q-4, -0.562676 -4, -8.88178e-16 " /><path d="M-4, -5 C-4, -4.9991 -4, -4.94171 -4, -4.82963  C-4, -4.71582 -4, -4.54755 -4, -4.33013 " /><path id= "5" d=" M -4 5 L -3.72824 5.7735 " />
<path d="M-4, -4.33013 C-3.99915, -4.78797 -3.91299, -5.24553 -3.72824, -5.7735 " /><path d="M-3.72824, -2.88675 C-3.91299, -3.41472 -3.99915, -3.87228 -4, -4.33013 " /><path d="M-4, -4.44089e-16 C-3.99915, -0.915684 -3.91299, -1.83081 -3.72824, -2.88675 " /><path d="M-3.72824, 2.88675 C-3.91299, 1.83081 -3.99915, 0.915684 -4, -6.66134e-16 " /><path d="M-4, 4.33013 C-3.99915, 3.87228 -3.91299, 3.41472 -3.72824, 2.88675 " /><path d="M-3.72824, 5.7735 C-3.91299, 5.24553 -3.99915, 4.78797 -4, 4.33013 " /><path id= "12" d=" M -3.72824 5.7735 L -0.2 5.7735 " />
<path id= "13" d=" M -0.2 -5.7735 L -3.72824 -5.7735 " />
<path id= "14" d=" M -0.2 -2.88675 L -0.2 -5.7735 " />
<path id= "15" d=" M -0.2 -2.88675 L -3.72824 -2.88675 " />
<path id= "16" d=" M -0.2 2.88675 L -0.2 -2.88675 " />
<path id= "17" d=" M -0.2 2.88675 L -3.72824 2.88675 " />
<path id= "18" d=" M -0.2 5.7735 L -0.2 2.88675 " />
<path id= "19" d=" M -0.2 4.45 L 0 4.45 " />
<path d="M0, -4.45 L0, -4.33843  L0, -4.00931  L0, -3.47915  L0, -2.77453  L0, -1.93078  L0, -0.990218  L0, -7.77156e-16  L0, 0.990218  L0, 1.93078  L0, 2.77453  L0, 3.47915  L0, 4.00931  L0, 4.33843  L0, 4.45 " /><path d="M0 3.25 A0.25 0.25 0 0 1 0.25 3" /><path d="M48.0236, 2.98739 Q48.0309, 3 48.0375, 3 " /><path id= "23" d=" M 48.0375 3 L 48.1625 3 " />
<path d="M47.1625, 3 Q47.1698, 3 47.1771, 2.98742 " /><path d="M47.1771, 2.98742 C47.2163, 2.92225 47.2555, 2.57137 47.2947, 2.02367  C47.3398, 1.39788 47.3849, 0.517725 47.43, -0.328294  C47.4656, -0.997184 47.5013, -1.63771 47.5369, -2.11385  C47.5788, -2.67673 47.6207, -3.00324 47.6625, -3 " /><path d="M47.6625, -3 Q47.6698, -3 47.6771, -2.98742 " /><path id= "27" d=" M 0.25 3 L 47.1625 3 " />
<path id= "28" d=" M 49.0375 3 L 49.1625 3 " />
<path d="M48.1625, 3 Q48.1698, 3 48.1771, 2.98742 " /><path d="M48.1771, 2.98742 C48.2163, 2.92225 48.2555, 2.57137 48.2947, 2.02367  C48.3398, 1.39787 48.3849, 0.517716 48.43, -0.328307  C48.4656, -0.996949 48.5013, -1.63725 48.5369, -2.11333  C48.5788, -2.67653 48.6206, -3.00324 48.6625, -3 " /><path d="M48.6625, -3 Q48.6698, -3 48.6771, -2.98742 " /><path d="M48.0375, 3 C48.0759, 3.00234 48.1144, 2.72819 48.1529, 2.24469  C48.2026, 1.62682 48.2522, 0.663258 48.3018, -0.270669  C48.3364, -0.919176 48.3709, -1.54562 48.4054, -2.02494  C48.4445, -2.57191 48.4837, -2.92228 48.5229, -2.98741 " /><path d="M48.5229, -2.98741 Q48.5302, -3 48.5375, -3 " /><path d="M49.0229, 2.98741 Q49.0302, 3 49.0375, 3 " /><path id= "35" d=" M 50.0375 3 L 50.1625 3 " />
<path d="M49.1625, 3 Q49.1698, 3 49.1771, 2.98742 " /><path d="M49.1771, 2.98742 C49.2163, 2.92225 49.2555, 2.57137 49.2947, 2.02367  C49.3398, 1.39787 49.3849, 0.517708 49.43, -0.328317  C49.4656, -0.996742 49.5012, -1.63684 49.5369, -2.11287  C49.5788, -2.67634 49.6206, -3.00325 49.6625, -3 " /><path d="M49.6625, -3 Q49.6698, -3 49.6771, -2.98742 " /><path d="M49.0375, 3 C49.0759, 3.00234 49.1144, 2.7282 49.1529, 2.24469  C49.2025, 1.62704 49.2522, 0.663949 49.3018, -0.269677  C49.3362, -0.917075 49.3707, -1.54258 49.4052, -2.02171  C49.4444, -2.5705 49.4836, -2.92217 49.5229, -2.98741 " /><path d="M49.5229, -2.98741 Q49.5302, -3 49.5375, -3 " /><path d="M50.0229, 2.98741 Q50.0302, 3 50.0375, 3 " /><path id= "42" d=" M 51.0375 3 L 51.1625 3 " />
<path d="M50.1625, 3 Q50.1698, 3 50.1771, 2.98742 " /><path d="M50.1771, 2.98742 C50.2163, 2.92225 50.2555, 2.57137 50.2947, 2.02367  C50.3398, 1.39787 50.3849, 0.517701 50.43, -0.328328  C50.4656, -0.996536 50.5012, -1.63644 50.5368, -2.11242  C50.5787, -2.67616 50.6206, -3.00325 50.6625, -3 " /><path d="M50.6625, -3 Q50.6698, -3 50.6771, -2.98742 " /><path d="M50.0375, 3 C50.0759, 3.00234 50.1144, 2.7282 50.1529, 2.2447  C50.2025, 1.62726 50.2521, 0.664649 50.3017, -0.268669  C50.3361, -0.914612 50.3705, -1.53885 50.4049, -2.01769  C50.4442, -2.56875 50.4835, -2.92202 50.5229, -2.98741 " /><path d="M50.5229, -2.98741 Q50.5302, -3 50.5375, -3 " /><path d="M51.0229, 2.98741 Q51.0302, 3 51.0375, 3 " /><path id= "49" d=" M 52.0375 3 L 52.1625 3 " />
<path d="M51.1625, 3 Q51.1698, 3 51.1771, 2.98742 " /><path d="M51.1771, 2.98742 C51.2163, 2.92225 51.2555, 2.57137 51.2947, 2.02367  C51.3398, 1.39786 51.3849, 0.517694 51.43, -0.328338  C51.4656, -0.996344 51.5012, -1.63607 51.5368, -2.112  C51.5787, -2.676 51.6206, -3.00325 51.6625, -3 " /><path d="M51.6625, -3 Q51.6698, -3 51.6771, -2.98742 " /><path d="M51.0375, 3 C51.0759, 3.00234 51.1144, 2.7282 51.1529, 2.2447  C51.2025, 1.62749 51.2521, 0.66535 51.3017, -0.26766  C51.336, -0.911569 51.3702, -1.53401 51.4045, -2.01237  C51.4439, -2.56642 51.4834, -2.92184 51.5229, -2.98741 " /><path d="M51.5229, -2.98741 Q51.5302, -3 51.5375, -3 " /><path d="M52.0229, 2.98741 Q52.0302, 3 52.0375, 3 " /><path id= "56" d=" M 53.0375 3 L 53.1625 3 " />
<path d="M52.1625, 3 Q52.1698, 3 52.1771, 2.98742 " /><path d="M52.1771, 2.98742 C52.2163, 2.92225 52.2555, 2.57137 52.2947, 2.02367  C52.3398, 1.39786 52.3849, 0.517688 52.43, -0.328346  C52.4656, -0.996183 52.5012, -1.63575 52.5368, -2.11164  C52.5787, -2.67585 52.6206, -3.00326 52.6625, -3 " /><path d="M52.6625, -3 Q52.6698, -3 52.6771, -2.98742 " /><path d="M52.0375, 3 C52.0759, 3.00234 52.1144, 2.7282 52.1529, 2.2447  C52.2025, 1.62771 52.2521, 0.666046 52.3016, -0.26666  C52.3359, -0.909738 52.3701, -1.53148 52.4043, -2.00974  C52.4438, -2.56527 52.4834, -2.92174 52.5229, -2.98741 " /><path d="M52.5229, -2.98741 Q52.5302, -3 52.5375, -3 " /><path d="M53.0229, 2.98741 Q53.0302, 3 53.0375, 3 " /><path id= "63" d=" M 54.0375 3 L 54.1625 3 " />
<path d="M53.1625, 3 Q53.1698, 3 53.1771, 2.98741 " /><path d="M53.1771, 2.98741 C53.2163, 2.92225 53.2555, 2.57137 53.2947, 2.02367  C53.3398, 1.39786 53.3849, 0.517676 53.43, -0.328361  C53.4655, -0.995855 53.5011, -1.63511 53.5367, -2.11092  C53.5787, -2.67557 53.6206, -3.00326 53.6625, -3 " /><path d="M53.6625, -3 Q53.6698, -3 53.6771, -2.98742 " /><path d="M53.0375, 3 C53.0759, 3.00234 53.1144, 2.7282 53.1529, 2.24471  C53.2025, 1.62793 53.252, 0.666736 53.3016, -0.265666  C53.3363, -0.917332 53.3709, -1.54706 53.4056, -2.02801  C53.4447, -2.57325 53.4838, -2.92239 53.5229, -2.98741 " /><path d="M53.5229, -2.98741 Q53.5302, -3 53.5375, -3 " /><path d="M54.0229, 2.98741 Q54.0302, 3 54.0375, 3 " /><path id= "70" d=" M 55.0375 3 L 55.1625 3 " />
<path d="M54.1625, 3 Q54.1698, 3 54.1771, 2.98741 " /><path d="M54.1771, 2.98741 C54.2163, 2.92225 54.2555, 2.57137 54.2947, 2.02366  C54.3398, 1.39785 54.3849, 0.517667 54.43, -0.328373  C54.4655, -0.995598 54.5011, -1.63461 54.5367, -2.11036  C54.5786, -2.67534 54.6206, -3.00327 54.6625, -3 " /><path d="M54.6625, -3 Q54.6698, -3 54.6771, -2.98742 " /><path d="M54.0375, 3 C54.076, 3.00234 54.1144, 2.7282 54.1529, 2.24471  C54.2025, 1.62817 54.252, 0.667481 54.3015, -0.264594  C54.3361, -0.913501 54.3706, -1.54077 54.4051, -2.02107  C54.4444, -2.57022 54.4836, -2.92215 54.5229, -2.98741 " /><path d="M54.5229, -2.98741 Q54.5302, -3 54.5375, -3 " /><path d="M55.0229, 2.98741 Q55.0302, 3 55.0375, 3 " /><path id= "77" d=" M 56.0375 3 L 56.1625 3 " />
<path d="M55.1625, 3 Q55.1698, 3 55.1771, 2.98741 " /><path d="M55.1771, 2.98741 C55.2163, 2.92225 55.2555, 2.57137 55.2947, 2.02366  C55.3398, 1.39785 55.3849, 0.517653 55.43, -0.328393  C55.4655, -0.995166 55.5011, -1.63377 55.5366, -2.10941  C55.5786, -2.67496 55.6205, -3.00327 55.6625, -3 " /><path d="M55.6625, -3 Q55.6698, -3 55.6771, -2.98742 " /><path d="M55.0375, 3 C55.076, 3.00234 55.1144, 2.72821 55.1529, 2.24472  C55.2024, 1.6284 55.252, 0.668196 55.3015, -0.263565  C55.3357, -0.90703 55.37, -1.52936 55.4042, -2.00817  C55.4438, -2.56459 55.4833, -2.92169 55.5229, -2.98741 " /><path d="M55.5229, -2.98741 Q55.5302, -3 55.5375, -3 " /><path d="M56.0229, 2.98741 Q56.0302, 3 56.0375, 3 " /><path id= "84" d=" M 57.0375 3 L 57.1625 3 " />
<path d="M56.1625, 3 Q56.1698, 3 56.1771, 2.98741 " /><path d="M56.1771, 2.98741 C56.2163, 2.92225 56.2555, 2.57136 56.2947, 2.02366  C56.3398, 1.39784 56.3849, 0.517635 56.43, -0.328418  C56.4655, -0.994591 56.501, -1.63265 56.5365, -2.10815  C56.5785, -2.67446 56.6205, -3.00328 56.6625, -3 " /><path d="M56.6625, -3 Q56.6698, -3 56.6771, -2.98742 " /><path d="M56.0375, 3 C56.076, 3.00234 56.1144, 2.72821 56.1529, 2.24472  C56.2024, 1.62865 56.2519, 0.668958 56.3014, -0.262467  C56.336, -0.911857 56.3705, -1.53973 56.4051, -2.02047  C56.4443, -2.56996 56.4836, -2.92213 56.5229, -2.98741 " /><path d="M56.5229, -2.98741 Q56.5302, -3 56.5375, -3 " /><path d="M57.0229, 2.98741 Q57.0302, 3 57.0375, 3 " /><path id= "91" d=" M 58.0375 3 L 58.1625 3 " />
<path d="M57.1625, 3 Q57.1698, 3 57.1771, 2.98741 " /><path d="M57.1771, 2.98741 C57.2163, 2.92225 57.2555, 2.57136 57.2947, 2.02366  C57.3398, 1.39784 57.3849, 0.517638 57.43, -0.328414  C57.4655, -0.994694 57.501, -1.63285 57.5365, -2.10837  C57.5785, -2.67455 57.6205, -3.00328 57.6625, -3 " /><path d="M57.6625, -3 Q57.6698, -3 57.6771, -2.98742 " /><path d="M57.0375, 3 C57.076, 3.00234 57.1144, 2.72821 57.1529, 2.24473  C57.2024, 1.62889 57.2519, 0.669718 57.3014, -0.261373  C57.336, -0.911634 57.3706, -1.5404 57.4052, -2.02155  C57.4444, -2.57043 57.4837, -2.92217 57.5229, -2.98741 " /><path d="M57.5229, -2.98741 Q57.5302, -3 57.5375, -3 " /><path d="M58.0229, 2.98741 Q58.0302, 3 58.0375, 3 " /><path id= "98" d=" M 59.0375 3 L 59.1625 3 " />
<path d="M58.1625, 3 Q58.1698, 3 58.1771, 2.98741 " /><path d="M58.1771, 2.98741 C58.2163, 2.92225 58.2555, 2.57136 58.2947, 2.02366  C58.3398, 1.39784 58.3849, 0.517642 58.43, -0.328408  C58.4655, -0.994833 58.501, -1.63312 58.5366, -2.10868  C58.5785, -2.67467 58.6205, -3.00328 58.6625, -3 " /><path d="M58.6625, -3 Q58.6698, -3 58.6771, -2.98742 " /><path d="M58.0375, 3 C58.076, 3.00234 58.1144, 2.72821 58.1529, 2.24473  C58.2024, 1.62911 58.2519, 0.670399 58.3013, -0.260392  C58.3361, -0.914623 58.3709, -1.54712 58.4057, -2.02956  C58.4448, -2.57393 58.4838, -2.92245 58.5229, -2.98741 " /><path d="M58.5229, -2.98741 Q58.5302, -3 58.5375, -3 " /><path d="M59.0229, 2.98741 Q59.0302, 3 59.0375, 3 " /><path id= "105" d=" M 60.0375 3 L 60.1625 3 " />
<path d="M59.1625, 3 Q59.1698, 3 59.1771, 2.98741 " /><path d="M59.1771, 2.98741 C59.2163, 2.92225 59.2555, 2.57136 59.2947, 2.02366  C59.3398, 1.39784 59.3849, 0.517636 59.43, -0.328416  C59.4655, -0.994629 59.501, -1.63273 59.5365, -2.10823  C59.5785, -2.67449 59.6205, -3.00328 59.6625, -3 " /><path d="M59.6625, -3 Q59.6698, -3 59.6771, -2.98742 " /><path d="M59.0375, 3 C59.076, 3.00234 59.1144, 2.72821 59.1529, 2.24473  C59.2024, 1.62933 59.2518, 0.671099 59.3013, -0.259384  C59.3356, -0.904986 59.37, -1.5296 59.4043, -2.00964  C59.4438, -2.56523 59.4834, -2.92175 59.5229, -2.98741 " /><path d="M59.5229, -2.98741 Q59.5302, -3 59.5375, -3 " /><path d="M60.0229, 2.98741 Q60.0302, 3 60.0375, 3 " /><path id= "112" d=" M 61.0375 3 L 61.1625 3 " />
<path d="M60.1625, 3 Q60.1698, 3 60.1771, 2.98741 " /><path d="M60.1771, 2.98741 C60.2163, 2.92224 60.2555, 2.57136 60.2947, 2.02366  C60.3398, 1.39783 60.3849, 0.517605 60.43, -0.328458  C60.4654, -0.993586 60.5009, -1.6307 60.5364, -2.10594  C60.5784, -2.67358 60.6205, -3.0033 60.6625, -3 " /><path d="M60.6625, -3 Q60.6698, -3 60.6771, -2.98742 " /><path d="M60.0375, 3 C60.076, 3.00234 60.1145, 2.72821 60.1529, 2.24474  C60.2024, 1.62958 60.2518, 0.671854 60.3012, -0.258296  C60.3361, -0.913629 60.3709, -1.5473 60.4058, -2.03036  C60.4448, -2.57428 60.4839, -2.92248 60.5229, -2.98741 " /><path d="M60.5229, -2.98741 Q60.5302, -3 60.5375, -3 " /><path d="M61.0229, 2.98741 Q61.0302, 3 61.0375, 3 " /><path id= "119" d=" M 62.0375 3 L 62.1625 3 " />
<path d="M61.1625, 3 Q61.1698, 3 61.1771, 2.98741 " /><path d="M61.1771, 2.98741 C61.2163, 2.92224 61.2555, 2.57136 61.2947, 2.02366  C61.3398, 1.39782 61.3849, 0.517589 61.43, -0.32848  C61.4654, -0.992991 61.5008, -1.62955 61.5363, -2.10464  C61.5783, -2.67306 61.6204, -3.00331 61.6625, -3 " /><path d="M61.6625, -3 Q61.6698, -3 61.6771, -2.98741 " /><path d="M61.0375, 3 C61.076, 3.00234 61.1145, 2.72822 61.1529, 2.24474  C61.2023, 1.62988 61.2517, 0.672821 61.3011, -0.256901  C61.3357, -0.905819 61.3702, -1.53368 61.4047, -2.01506  C61.4441, -2.56761 61.4835, -2.92194 61.5229, -2.98741 " /><path d="M61.5229, -2.98741 Q61.5302, -3 61.5375, -3 " /><path d="M62.0229, 2.98741 Q62.0302, 3 62.0375, 3 " /><path id= "126" d=" M 63.0375 3 L 63.1625 3 " />
<path d="M62.1625, 3 Q62.1698, 3 62.1771, 2.98741 " /><path d="M62.1771, 2.98741 C62.2163, 2.92224 62.2555, 2.57136 62.2947, 2.02366  C62.3398, 1.39783 62.3849, 0.517616 62.43, -0.328442  C62.4654, -0.993997 62.5009, -1.6315 62.5364, -2.10684  C62.5784, -2.67394 62.6205, -3.00329 62.6625, -3 " /><path d="M62.6625, -3 Q62.6698, -3 62.6771, -2.98741 " /><path d="M62.0375, 3 C62.076, 3.00234 62.1145, 2.72822 62.1529, 2.24475  C62.2026, 1.62611 62.2523, 0.66086 62.3021, -0.274173  C62.3362, -0.915866 62.3704, -1.53578 62.4045, -2.01257  C62.444, -2.56652 62.4835, -2.92185 62.5229, -2.98741 " /><path d="M62.5229, -2.98741 Q62.5302, -3 62.5375, -3 " /><path d="M63.0229, 2.98741 Q63.0302, 3 63.0375, 3 " /><path id= "133" d=" M 64.0375 3 L 64.1625 3 " />
<path d="M63.1625, 3 Q63.1698, 3 63.1771, 2.98741 " /><path d="M63.1771, 2.98741 C63.2163, 2.92224 63.2555, 2.57136 63.2947, 2.02365  C63.3398, 1.39781 63.3849, 0.517571 63.43, -0.328504  C63.4654, -0.992281 63.5007, -1.62818 63.5361, -2.10309  C63.5783, -2.67244 63.6204, -3.00332 63.6625, -3 " /><path d="M63.6625, -3 Q63.6698, -3 63.6771, -2.98741 " /><path d="M63.0375, 3 C63.076, 3.00234 63.1145, 2.72822 63.1529, 2.24475  C63.2026, 1.62639 63.2523, 0.661715 63.302, -0.272942  C63.3366, -0.922932 63.3712, -1.55057 63.4058, -2.03  C63.4448, -2.57413 63.4839, -2.92247 63.5229, -2.98741 " /><path d="M63.5229, -2.98741 Q63.5302, -3 63.5375, -3 " /><path d="M64.0229, 2.98741 Q64.0302, 3 64.0375, 3 " /><path d="M64.4, -1.94845 C64.4, -1.35132 64.4, -0.548784 64.4, 0.23539 " /><path d="M64.1625, 3 Q64.1698, 3 64.1771, 2.98741 " /><path d="M64.1771, 2.98741 C64.2163, 2.92224 64.2555, 2.57136 64.2947, 2.02366  C64.3298, 1.53585 64.3649, 0.895734 64.4, 0.23539 " /><path d="M64.0375, 3 C64.076, 3.00234 64.1145, 2.72822 64.1529, 2.24476  C64.1801, 1.90518 64.2073, 1.46526 64.2345, 0.980677  C64.2897, -0.00312817 64.3448, -1.16042 64.4, -1.94845 " /><path d="M64.8042, 2.59584 Q64.7988, 2.60116 64.7935, 2.59202 " /><path d="M64.4872, -2.91283 Q64.4824, -2.91758 64.4777, -2.9094 " /><path d="M64.4777, -2.9094 C64.4515, -2.86707 64.4256, -2.51362 64.4, -1.94845 " /><path id= "147" d=" M 64.8042 2.59584 L 65 2.4 " />
<path d="M65, -2.4 Q65, -2.3997 65, -2.32759 " /><path d="M64.9413, -2.4037 C64.9642, -2.41464 64.9937, -2.37477 65, -2.32759 " /><path d="M64.4, 0.23539 C64.4881, -0.471958 64.5792, -1.15912 64.6739, -1.6473  C64.7599, -2.09288 64.8488, -2.36894 64.9413, -2.4037 " /><path d="M65, -2.32759 C65, -2.16645 65, -1.78005 65, -1.27577 " /><path d="M65, -1.27577 C64.9868, -0.757542 64.9668, -0.100204 64.9413, 0.517402 " /><path d="M64.8042, 2.59584 C64.8268, 2.5748 64.8496, 2.34919 64.8727, 1.96684  C64.8953, 1.59417 64.9182, 1.07341 64.9413, 0.517402 " /><path d="M65, -1.27577 Q65, -1.11426 65, -0.952745  Q65, -0.780216 65, -0.607686  Q65, -0.428128 65, -0.24857  Q65, 0.117049 65, 0.47847  Q65, 0.654024 65, 0.829578  Q65, 0.995538 65, 1.1615  Q65, 1.31403 65, 1.46655  Q65, 1.60212 65, 1.73769  Q65, 1.85316 65, 1.96863  Q65, 2.06133 65, 2.15403  Q65, 2.22183 65, 2.28962  Q65, 2.33093 65, 2.37224  Q65, 2.38612 65, 2.4 " /></g>

</svg>
