<svg xmlns="http://www.w3.org/2000/svg" viewBox="-6.69726 -5.92376 13.39452 11.84752">
<rect width="100%" height="100%" fill="white"/>
<g   fill="none"
   stroke="rgb(165, 165, 165)"
   stroke-dasharray="1.2,0.8"
   stroke-linecap="butt"
   stroke-linejoin="miter"
   stroke-width="0.25"
   transform="scale(1, -1)"
  >
<path id= "1" d=" M 2.88675 5 L 5.7735 1.72346e-13 " />
<path id= "2" d=" M -2.88675 5 L 2.88675 5 " />
<path id= "3" d=" M -5.7735 4.58196e-13 L -2.88675 5 " />
<path id= "4" d=" M -2.88675 -5 L -5.7735 -2.30804e-13 " />
<path id= "5" d=" M 2.88675 -5 L -2.88675 -5 " />
<path id= "6" d=" M 5.7735 -5.16654e-13 L 2.88675 -5 " />
<circle cx ="0" cy ="0" r ="4.45" /><circle cx ="0" cy ="0" r ="4.45" /><circle cx ="0" cy ="0" r ="3" /><path d="M3, 2.24754e-11 C3.00507, 0.873954 2.60082, 1.73889 1.93189, 2.29517 " /><path d="M1.53567 2.57715 A3 3 0 0 0 1.93189 2.29517" /><path d="M1.53567, 2.57715 C1.03863, 2.8744 0.456505, 3.0212 -0.117758, 2.99769  C-0.774773, 2.97337 -1.41801, 2.7251 -1.91967, 2.3054 " /><path d="M-1.91967, 2.3054 C-2.1023, 2.15428 -2.26603, 1.9771 -2.38704, 1.81715  C-2.45333, 1.73064 -2.50968, 1.64365 -2.50992, 1.64326 " /><path d="M-2.50992, 1.64326 C-2.5087, 1.64551 -2.49506, 1.6658 -2.46901, 1.70412  C-2.43357, 1.75558 -2.3832, 1.82454 -2.3267, 1.8938  C-2.21361, 2.03312 -2.07409, 2.1772 -1.91952, 2.30552 " /><path d="M-1.91952, 2.30552 C-1.46057, 2.68895 -0.884753, 2.92969 -0.287515, 2.98619  C0.0707065, 3.02082 0.435943, 2.99027 0.785146, 2.89544  C1.46365, 2.71371 2.07711, 2.28147 2.47715, 1.69226  C2.81503, 1.19982 3.00118, 0.601345 3, 1.44292e-10 " /><path d="M3, 2.24749e-11 C3.00396, -0.831829 2.64046, -1.65643 2.02367, -2.21467  C1.39788, -2.79234 0.517725, -3.07947 -0.328294, -2.98198  C-0.997184, -2.91009 -1.63771, -2.60402 -2.11385, -2.12877  C-2.67384, -1.57717 -3.00002, -0.797977 -2.99998, -0.0119411  C-3.00635, 0.77681 -2.68398, 1.56138 -2.12482, 2.11781  C-1.65427, 2.59233 -1.02069, 2.90085 -0.356966, 2.97869  C0.481681, 3.08342 1.35775, 2.81 1.98796, 2.24678  C2.6259, 1.68801 3.00426, 0.847979 3, 2.00713e-11 " /><path d="M1.93189, 2.29517 Q1.7444, 2.45135 1.53567, 2.57715 " /><path d="M3, 2.01532e-11 C3.00396, -0.831829 2.64046, -1.65643 2.02367, -2.21467  C1.39787, -2.79235 0.517716, -3.07947 -0.328307, -2.98198  C-0.996949, -2.91011 -1.63725, -2.60424 -2.11333, -2.12928  C-2.67337, -1.5779 -2.99973, -0.798943 -2.99997, -0.0130264  C-3.0066, 0.774395 -2.68565, 1.5578 -2.12838, 2.11424  C-1.65467, 2.5936 -1.01482, 2.90428 -0.345164, 2.98008  C0.490292, 3.081 1.36144, 2.80705 1.98877, 2.24606  C2.62623, 1.68729 3.00425, 0.847616 3, 1.80103e-11 " /><path d="M3, 1.44288e-10 C3.00234, -0.726149 2.72819, -1.44855 2.24469, -1.99032  C1.90505, -2.37426 1.46506, -2.66833 0.980404, -2.83528  C0.580425, -2.97388 0.150893, -3.02624 -0.270669, -2.98776  C-0.919176, -2.93055 -1.54562, -2.65406 -2.02494, -2.21351  C-2.61053, -1.68223 -2.96895, -0.911 -2.99756, -0.120913  C-3.03209, 0.658505 -2.74547, 1.44554 -2.21783, 2.0202  C-1.76915, 2.51529 -1.15022, 2.85195 -0.490785, 2.95958  C-0.217447, 3.00472 0.0568994, 3.01204 0.332255, 2.98154  C0.894572, 2.91977 1.43754, 2.69421 1.87812, 2.33937  C2.58044, 1.78227 3.00526, 0.89635 3, 1.29392e-10 " /><path d="M3, 1.79547e-11 C3.00396, -0.831829 2.64046, -1.65643 2.02367, -2.21467  C1.39787, -2.79235 0.517708, -3.07948 -0.328317, -2.98198  C-0.996742, -2.91013 -1.63684, -2.60444 -2.11287, -2.12973  C-2.67296, -1.57855 -2.99948, -0.799797 -2.99997, -0.0139873  C-3.00682, 0.772104 -2.68725, 1.55432 -2.13184, 2.11075  C-1.65929, 2.5905 -1.02061, 2.90212 -0.351649, 2.97932  C0.485538, 3.08233 1.35936, 2.80868 1.98827, 2.2465  C2.62603, 1.68773 3.00425, 0.84784 3, 1.59606e-11 " /><path d="M3, 1.29461e-10 C3.00234, -0.726147 2.7282, -1.44854 2.24469, -1.99032  C1.90506, -2.37426 1.46507, -2.66832 0.980421, -2.83527  C0.580751, -2.97377 0.151573, -3.02616 -0.269677, -2.98785  C-0.917075, -2.93095 -1.54258, -2.65555 -2.02171, -2.21646  C-2.61122, -1.68326 -2.97133, -0.907137 -2.99788, -0.112772  C-3.02996, 0.660421 -2.74629, 1.44036 -2.22503, 2.01228  C-1.77745, 2.50971 -1.15854, 2.84882 -0.498401, 2.95831  C-0.232275, 3.00297 0.0350278, 3.01174 0.303508, 2.98461  C0.876804, 2.92726 1.43159, 2.69967 1.87999, 2.33787  C2.58122, 1.7807 3.00524, 0.895541 3, 1.15445e-10 " /><path d="M3, 1.58842e-11 C3.00396, -0.83183 2.64046, -1.65643 2.02367, -2.21467  C1.39787, -2.79235 0.517701, -3.07948 -0.328328, -2.98198  C-0.996536, -2.91015 -1.63644, -2.60463 -2.11242, -2.13018  C-2.67255, -1.57919 -2.99922, -0.800648 -2.99996, -0.0149461  C-3.00715, 0.775322 -2.68428, 1.5617 -2.12374, 2.1189  C-1.65477, 2.5913 -1.02417, 2.899 -0.363211, 2.97793  C0.477682, 3.08477 1.35695, 2.81118 1.98879, 2.24605  C2.62624, 1.68728 3.00425, 0.847609 3, 1.39804e-11 " /><path d="M3, 1.15442e-10 C3.00234, -0.726145 2.7282, -1.44854 2.2447, -1.99031  C1.90507, -2.37425 1.46508, -2.66831 0.980438, -2.83527  C0.581082, -2.97366 0.152264, -3.02608 -0.268669, -2.98795  C-0.914612, -2.93138 -1.53885, -2.65733 -2.01769, -2.22012  C-2.60816, -1.68799 -2.96967, -0.912536 -2.99767, -0.11823  C-3.03116, 0.654902 -2.74891, 1.43536 -2.22869, 2.00822  C-1.77906, 2.50982 -1.15546, 2.85117 -0.490622, 2.95961  C-0.217047, 3.00477 0.0575324, 3.01205 0.333116, 2.98145  C0.895415, 2.91951 1.43832, 2.6938 1.87879, 2.33883  C2.58072, 1.7817 3.00525, 0.896057 3, 1.02164e-10 " /><path d="M3, 1.39453e-11 C3.00396, -0.83183 2.64046, -1.65643 2.02367, -2.21467  C1.39786, -2.79235 0.517694, -3.07948 -0.328338, -2.98198  C-0.996344, -2.91017 -1.63607, -2.60481 -2.112, -2.1306  C-2.67216, -1.57979 -2.99898, -0.801443 -2.99996, -0.0158436  C-3.00733, 0.772024 -2.68674, 1.55617 -2.12941, 2.1132  C-1.65532, 2.59343 -1.01456, 2.90458 -0.343993, 2.98021  C0.491619, 3.08083 1.36278, 2.80643 1.98992, 2.24504  C2.6267, 1.68629 3.00424, 0.847101 3, 1.21871e-11 " /><path d="M3, 1.02217e-10 C3.00234, -0.726143 2.7282, -1.44853 2.2447, -1.99031  C1.90508, -2.37424 1.46509, -2.6683 0.980455, -2.83526  C0.581413, -2.97355 0.152955, -3.02599 -0.26766, -2.98804  C-0.911569, -2.93185 -1.53401, -2.65961 -2.01237, -2.22494  C-2.61172, -1.68757 -2.97639, -0.899936 -2.99848, -0.0953452  C-3.02578, 0.671703 -2.74267, 1.44369 -2.22597, 2.01123  C-1.7769, 2.51084 -1.15503, 2.85089 -0.492079, 2.95937  C-0.221356, 3.0042 0.0504204, 3.01192 0.323252, 2.98253  C0.891016, 2.92192 1.43953, 2.6943 1.8834, 2.33512  C2.58265, 1.77783 3.00521, 0.89406 3, 8.97755e-11 " /><path d="M3, 1.21354e-11 C3.00396, -0.831831 2.64045, -1.65643 2.02367, -2.21467  C1.39786, -2.79236 0.517688, -3.07948 -0.328346, -2.98198  C-0.996183, -2.91018 -1.63575, -2.60497 -2.11164, -2.13095  C-2.67183, -1.5803 -2.99877, -0.802117 -2.99995, -0.0166044  C-3.0076, 0.774311 -2.6846, 1.56149 -2.12354, 2.1191  C-1.65405, 2.59194 -1.02261, 2.89971 -0.36092, 2.97821  C0.479531, 3.08433 1.35804, 2.81049 1.98935, 2.24555  C2.62647, 1.68679 3.00424, 0.847358 3, 1.05074e-11 " /><path d="M3, 8.98124e-11 C3.00234, -0.72614 2.7282, -1.44853 2.2447, -1.9903  C1.90508, -2.37424 1.46511, -2.6683 0.980471, -2.83526  C0.581741, -2.97344 0.15364, -3.02591 -0.26666, -2.98813  C-0.909738, -2.93222 -1.53148, -2.66085 -2.00974, -2.22732  C-2.60885, -1.69142 -2.97431, -0.905704 -2.99825, -0.102314  C-3.02764, 0.670985 -2.74125, 1.44993 -2.21799, 2.02003  C-1.76951, 2.51497 -1.1509, 2.85161 -0.491756, 2.95942  C-0.220169, 3.00436 0.0524597, 3.01196 0.326129, 2.98222  C0.894308, 2.92101 1.44304, 2.69253 1.88676, 2.33241  C2.58405, 1.775 3.00518, 0.892609 3, 7.82638e-11 " /><path d="M3, 1.04443e-11 C3.00396, -0.831831 2.64045, -1.65644 2.02367, -2.21467  C1.39786, -2.79236 0.517676, -3.07949 -0.328361, -2.98198  C-0.995855, -2.91021 -1.63511, -2.60527 -2.11092, -2.13167  C-2.67117, -1.58133 -2.99836, -0.803485 -2.99995, -0.0181531  C-3.00799, 0.772692 -2.68546, 1.55998 -2.12477, 2.11787  C-1.65447, 2.5921 -1.02134, 2.90053 -0.358023, 2.97856  C0.480547, 3.08359 1.35666, 2.81051 1.98707, 2.24757  C2.62553, 1.68879 3.00426, 0.848381 3, 8.83826e-12 " /><path d="M3, 7.82192e-11 C3.00234, -0.726138 2.7282, -1.44853 2.24471, -1.9903  C1.90509, -2.37423 1.46512, -2.66829 0.980488, -2.83525  C0.582067, -2.97333 0.154321, -3.02583 -0.265666, -2.98821  C-0.917332, -2.93184 -1.54706, -2.65401 -2.02801, -2.21069  C-2.61712, -1.67482 -2.9752, -0.895745 -2.99834, -0.0997766  C-3.02707, 0.673547 -2.74003, 1.45225 -2.21628, 2.0219  C-1.76598, 2.51804 -1.14457, 2.85467 -0.483013, 2.96086  C-0.222214, 3.00325 0.039631, 3.0112 0.302521, 2.98471  C0.87734, 2.92741 1.43359, 2.69894 1.88274, 2.33566  C2.58237, 1.77839 3.00521, 0.894354 3, 6.75024e-11 " /><path d="M3, 8.88933e-12 C3.00396, -0.831832 2.64045, -1.65644 2.02366, -2.21467  C1.39785, -2.79236 0.517667, -3.07949 -0.328373, -2.98197  C-0.995598, -2.91023 -1.63461, -2.60551 -2.11036, -2.13223  C-2.67059, -1.58218 -2.99797, -0.804708 -2.99994, -0.0195934  C-3.00831, 0.768814 -2.68823, 1.55389 -2.1309, 2.1117  C-1.65485, 2.59462 -1.01036, 2.90685 -0.336327, 2.98109  C0.498171, 3.07937 1.36717, 2.80386 1.99261, 2.24265  C2.6278, 1.68392 3.00422, 0.845889 3, 7.52065e-12 " /><path d="M3, 6.74723e-11 C3.00234, -0.726136 2.7282, -1.44852 2.24471, -1.99029  C1.9051, -2.37422 1.46513, -2.66828 0.980506, -2.83524  C0.582419, -2.97321 0.155055, -3.02574 -0.264594, -2.98831  C-0.913501, -2.93239 -1.54077, -2.65696 -2.02107, -2.21704  C-2.61381, -1.6813 -2.97466, -0.899997 -2.99828, -0.10144  C-3.02744, 0.671868 -2.74083, 1.45073 -2.2174, 2.02067  C-1.76821, 2.51612 -1.14848, 2.8528 -0.488356, 2.95998  C-0.221941, 3.00377 0.0455274, 3.01161 0.31405, 2.98352  C0.883951, 2.92446 1.43498, 2.69716 1.88077, 2.33724  C2.58155, 1.78004 3.00523, 0.895204 3, 5.75122e-11 " /><path d="M3, 7.45137e-12 C3.00396, -0.831832 2.64045, -1.65644 2.02366, -2.21468  C1.39785, -2.79237 0.517653, -3.07949 -0.328393, -2.98197  C-0.995166, -2.91027 -1.63377, -2.60592 -2.10941, -2.13317  C-2.67349, -1.57992 -3.00164, -0.796168 -2.99999, -0.00606218  C-3.00476, 0.779233 -2.68382, 1.55982 -2.12797, 2.11465  C-1.65236, 2.59577 -1.00936, 2.90681 -0.336927, 2.98102  C0.496939, 3.07939 1.36534, 2.80455 1.99079, 2.24427  C2.62706, 1.68552 3.00423, 0.84671 3, 6.25677e-12 " /><path d="M3, 5.75091e-11 C3.00234, -0.726134 2.72821, -1.44852 2.24472, -1.99029  C1.90511, -2.37422 1.46514, -2.66827 0.980522, -2.83524  C0.582756, -2.97309 0.15576, -3.02566 -0.263565, -2.9884  C-0.90703, -2.93314 -1.52936, -2.66215 -2.00817, -2.22874  C-2.60899, -1.69209 -2.97524, -0.904343 -2.99836, -0.099158  C-3.02663, 0.667855 -2.7445, 1.44021 -2.22853, 2.0084  C-1.78095, 2.5076 -1.16106, 2.84812 -0.499667, 2.9581  C-0.23351, 3.00288 0.0338387, 3.01176 0.30238, 2.98472  C0.875916, 2.92757 1.43099, 2.70003 1.87962, 2.33817  C2.58107, 1.78101 3.00524, 0.895701 3, 4.84488e-11 " /><path d="M3, 6.1533e-12 C3.00396, -0.831833 2.64045, -1.65644 2.02366, -2.21468  C1.39784, -2.79237 0.517635, -3.0795 -0.328418, -2.98197  C-0.994591, -2.91032 -1.63265, -2.60646 -2.10815, -2.13441  C-2.67632, -1.57791 -3.00534, -0.787634 -2.99999, 0.00765731  C-3.00109, 0.787555 -2.6812, 1.56144 -2.12967, 2.11294  C-1.65899, 2.58977 -1.02405, 2.90009 -0.358641, 2.97849  C0.480004, 3.0837 1.35628, 2.81072 1.98682, 2.24779  C2.62543, 1.68901 3.00427, 0.848494 3, 4.81171e-12 " /><path d="M3, 4.83464e-11 C3.00234, -0.726131 2.72821, -1.44851 2.24472, -1.99028  C1.90511, -2.37421 1.46516, -2.66827 0.98054, -2.83523  C0.583116, -2.97297 0.156511, -3.02557 -0.262467, -2.9885  C-0.911857, -2.93301 -1.53973, -2.65767 -2.02047, -2.21759  C-2.61581, -1.67984 -2.97728, -0.894411 -2.99857, -0.0925225  C-3.02514, 0.674551 -2.74131, 1.44628 -2.22408, 2.01332  C-1.77557, 2.51134 -1.15524, 2.85042 -0.493897, 2.95906  C-0.229389, 3.00305 0.036258, 3.01158 0.303043, 2.98465  C0.875939, 2.92744 1.43038, 2.70022 1.87866, 2.33894  C2.58067, 1.78181 3.00525, 0.896127 3, 4.01694e-11 " /><path d="M3, 4.96159e-12 C3.00396, -0.831833 2.64045, -1.65644 2.02366, -2.21468  C1.39784, -2.79237 0.517638, -3.0795 -0.328414, -2.98197  C-0.994694, -2.91031 -1.63285, -2.60636 -2.10837, -2.13419  C-2.67284, -1.58111 -3.00138, -0.797313 -2.99999, -0.0070483  C-3.00501, 0.778336 -2.68425, 1.55911 -2.12847, 2.11415  C-1.65527, 2.59303 -1.01627, 2.9036 -0.347354, 2.97982  C0.493363, 3.08209 1.37039, 2.80442 1.99908, 2.23689  C2.63044, 1.67822 3.00416, 0.842975 3, 3.892e-12 " /><path d="M3, 4.00933e-11 C3.00234, -0.726129 2.72821, -1.44851 2.24473, -1.99028  C1.90512, -2.3742 1.46517, -2.66826 0.980558, -2.83523  C0.583475, -2.97285 0.157261, -3.02548 -0.261373, -2.98859  C-0.911634, -2.93327 -1.5404, -2.65751 -2.02155, -2.21661  C-2.61081, -1.68369 -2.97093, -0.908092 -2.99783, -0.114118  C-3.03026, 0.65906 -2.74694, 1.43913 -2.22593, 2.01128  C-1.77423, 2.51383 -1.14766, 2.85483 -0.480389, 2.96129  C-0.216404, 3.00395 0.0485656, 3.01134 0.314519, 2.98347  C0.884783, 2.92429 1.43612, 2.69664 1.88201, 2.33624  C2.58207, 1.779 3.00522, 0.894668 3, 3.23157e-11 " /><path d="M3, 3.90132e-12 C3.00396, -0.831833 2.64045, -1.65644 2.02366, -2.21468  C1.39784, -2.79237 0.517642, -3.0795 -0.328408, -2.98197  C-0.994833, -2.9103 -1.63312, -2.60623 -2.10868, -2.13389  C-2.6732, -1.5806 -3.00164, -0.796516 -2.99999, -0.00606523  C-3.00476, 0.779536 -2.68356, 1.56042 -2.12733, 2.1153  C-1.65789, 2.5898 -1.02563, 2.89892 -0.362859, 2.97797  C0.478028, 3.08471 1.35726, 2.81103 1.98902, 2.24584  C2.62633, 1.68708 3.00425, 0.847504 3, 3.03135e-12 " /><path d="M3, 3.23483e-11 C3.00234, -0.726127 2.72821, -1.4485 2.24473, -1.99027  C1.90513, -2.37419 1.46518, -2.66825 0.980574, -2.83522  C0.583796, -2.97274 0.157932, -3.0254 -0.260392, -2.98868  C-0.914623, -2.93326 -1.54712, -2.65462 -2.02956, -2.20927  C-2.61898, -1.67237 -2.97663, -0.891869 -2.9985, -0.0949491  C-3.02569, 0.672102 -2.74248, 1.44406 -2.22571, 2.01152  C-1.77413, 2.51381 -1.14786, 2.85468 -0.480879, 2.96121  C-0.217362, 3.00384 0.047149, 3.01132 0.312655, 2.98366  C0.881455, 2.92499 1.43154, 2.69874 1.87703, 2.34025  C2.57998, 1.78318 3.00527, 0.896818 3, 2.55653e-11 " /><path d="M3, 2.97073e-12 C3.00396, -0.831833 2.64045, -1.65644 2.02366, -2.21468  C1.39784, -2.79237 0.517636, -3.0795 -0.328416, -2.98197  C-0.994629, -2.91032 -1.63273, -2.60642 -2.10823, -2.13433  C-2.67645, -1.57773 -3.00546, -0.787306 -2.99999, 0.00809119  C-3.00098, 0.788056 -2.68091, 1.56196 -2.12922, 2.11339  C-1.65356, 2.59514 -1.01015, 2.90665 -0.337242, 2.98098  C0.496263, 3.0794 1.36433, 2.80493 1.98977, 2.24518  C2.62664, 1.68642 3.00424, 0.84717 3, 2.2129e-12 " /><path d="M3, 2.55587e-11 C3.00234, -0.726125 2.72821, -1.4485 2.24473, -1.99027  C1.90514, -2.37419 1.46519, -2.66824 0.980589, -2.83522  C0.584126, -2.97262 0.158622, -3.02532 -0.259384, -2.98877  C-0.904986, -2.93424 -1.5296, -2.66254 -2.00964, -2.22741  C-2.6035, -1.69614 -2.96808, -0.919491 -2.99747, -0.123286  C-3.03262, 0.656103 -2.7466, 1.44338 -2.21943, 2.01845  C-1.77195, 2.51299 -1.15472, 2.84983 -0.496697, 2.9586  C-0.231259, 3.00299 0.0353416, 3.01167 0.303106, 2.98465  C0.876373, 2.92738 1.43115, 2.69989 1.87959, 2.3382  C2.58105, 1.78104 3.00525, 0.895715 3, 1.97844e-11 " /><path d="M3, 2.15294e-12 C3.00396, -0.831835 2.64045, -1.65644 2.02366, -2.21468  C1.39783, -2.79239 0.517605, -3.07951 -0.328458, -2.98196  C-0.993586, -2.91041 -1.6307, -2.6074 -2.10594, -2.13659  C-2.67156, -1.58365 -3.00105, -0.799307 -2.99999, -0.00832409  C-3.00535, 0.777339 -2.68468, 1.55852 -2.12878, 2.11383  C-1.65772, 2.59066 -1.02233, 2.90075 -0.356616, 2.97873  C0.482172, 3.08338 1.35834, 2.80975 1.98851, 2.24629  C2.62613, 1.68752 3.00425, 0.847731 3, 1.40998e-12 " /><path d="M3, 1.97429e-11 C3.00234, -0.726123 2.72821, -1.4485 2.24474, -1.99026  C1.90515, -2.37418 1.46521, -2.66824 0.980607, -2.83521  C0.584482, -2.9725 0.159367, -3.02523 -0.258296, -2.98886  C-0.913629, -2.93382 -1.5473, -2.65479 -2.03036, -2.20854  C-2.61641, -1.67425 -2.97325, -0.8991 -2.99811, -0.106518  C-3.02857, 0.66674 -2.74328, 1.44608 -2.22082, 2.01691  C-1.76827, 2.51784 -1.14161, 2.8571 -0.474761, 2.9622  C-0.207303, 3.00489 0.0610332, 3.01141 0.330249, 2.98177  C0.892608, 2.92037 1.43573, 2.69518 1.87654, 2.34064  C2.57978, 1.78359 3.00527, 0.897031 3, 1.46108e-11 " /><path d="M3, 1.44995e-12 C3.00396, -0.831836 2.64045, -1.65644 2.02366, -2.21468  C1.39782, -2.79239 0.517589, -3.07951 -0.32848, -2.98196  C-0.992991, -2.91047 -1.62955, -2.60795 -2.10464, -2.13787  C-2.67077, -1.58511 -3.00076, -0.80064 -2.99999, -0.00940445  C-3.0057, 0.780047 -2.68208, 1.56502 -2.12157, 2.12107  C-1.64914, 2.59603 -1.01313, 2.90389 -0.34754, 2.9798  C0.492898, 3.08208 1.36965, 2.80469 1.99833, 2.23756  C2.63014, 1.67888 3.00417, 0.843313 3, 8.16236e-13 " /><path d="M3, 1.46769e-11 C3.00234, -0.72612 2.72822, -1.44849 2.24474, -1.99026  C1.90515, -2.37417 1.46522, -2.66823 0.980626, -2.8352  C0.584936, -2.97235 0.16032, -3.02511 -0.256901, -2.98898  C-0.905819, -2.93474 -1.53368, -2.66103 -2.01506, -2.2225  C-2.60894, -1.68863 -2.97185, -0.908847 -2.99795, -0.110783  C-3.02952, 0.662431 -2.74534, 1.44218 -2.22369, 2.01375  C-1.77247, 2.51463 -1.14738, 2.85456 -0.481698, 2.96108  C-0.221014, 3.00333 0.0407025, 3.01117 0.30345, 2.98461  C0.876267, 2.92732 1.43061, 2.70008 1.87882, 2.33881  C2.58073, 1.78168 3.00525, 0.896051 3, 9.96736e-12 " /><path d="M3, 8.62421e-13 C3.00396, -0.831834 2.64045, -1.65644 2.02366, -2.21468  C1.39783, -2.79238 0.517616, -3.0795 -0.328442, -2.98197  C-0.993997, -2.91038 -1.6315, -2.60701 -2.10684, -2.1357  C-2.67101, -1.58369 -3.00003, -0.80136 -2.99998, -0.0120522  C-3.00637, 0.776569 -2.68415, 1.56103 -2.12517, 2.11746  C-1.64954, 2.59733 -1.00717, 2.90736 -0.335559, 2.98117  C0.499421, 3.0793 1.36884, 2.80319 1.99422, 2.24123  C2.62846, 1.68251 3.0042, 0.84517 3, 5.51559e-13 " /><path d="M3, 1.0024e-11 C3.00234, -0.726118 2.72822, -1.44849 2.24475, -1.99025  C1.90516, -2.37417 1.46523, -2.66822 0.980643, -2.8352  C0.579488, -2.97425 0.148596, -3.02653 -0.274173, -2.98745  C-0.915866, -2.93003 -1.53578, -2.65805 -2.01257, -2.22476  C-2.61009, -1.68889 -2.9744, -0.904272 -2.99826, -0.102083  C-3.02759, 0.671218 -2.74114, 1.45014 -2.21784, 2.0202  C-1.76916, 2.51529 -1.15022, 2.85194 -0.490796, 2.95958  C-0.217467, 3.00472 0.0568721, 3.01204 0.33222, 2.98155  C0.894538, 2.91978 1.43751, 2.69423 1.87809, 2.3394  C2.58043, 1.78229 3.00526, 0.896357 3, 6.1755e-12 " /><path d="M3, 4.51639e-13 C3.00396, -0.831837 2.64045, -1.65645 2.02365, -2.21468  C1.39781, -2.7924 0.517571, -3.07952 -0.328504, -2.98196  C-0.992281, -2.91053 -1.62818, -2.60861 -2.10309, -2.1394  C-2.67276, -1.58406 -3.00368, -0.794225 -3, 0.00134039  C-3.00282, 0.78646 -2.68011, 1.56607 -2.12313, 2.11951  C-1.6544, 2.5914 -1.02434, 2.89881 -0.363932, 2.97784  C0.479126, 3.0852 1.36081, 2.81003 1.99317, 2.24216  C2.62803, 1.68343 3.00421, 0.845637 3, 4.35207e-14 " /><path d="M3, 6.15108e-12 C3.00234, -0.726116 2.72822, -1.44848 2.24475, -1.99025  C1.90517, -2.37416 1.46524, -2.66821 0.980657, -2.83519  C0.579887, -2.97411 0.149437, -3.02643 -0.272942, -2.98756  C-0.922932, -2.92973 -1.55057, -2.65157 -2.03, -2.20887  C-2.61561, -1.67515 -2.97248, -0.900966 -2.99802, -0.109112  C-3.02915, 0.664119 -2.74453, 1.44371 -2.22257, 2.01499  C-1.77528, 2.51087 -1.15757, 2.84888 -0.498783, 2.95825  C-0.223553, 3.00446 0.0527672, 3.0123 0.330176, 2.98178  C0.892536, 2.92039 1.43566, 2.69521 1.87649, 2.34068  C2.57976, 1.78364 3.00527, 0.897055 3, 3.63909e-12 " /><path d="M-1.94845 -2.28113 A3 3 0 0 1 0.23539 -2.99075" /><path d="M3, 1.25233e-13 C3.00396, -0.831835 2.64045, -1.65644 2.02366, -2.21468  C1.53585, -2.66264 0.895734, -2.94042 0.23539, -2.99075 " /><path d="M3, 3.60956e-12 C3.00234, -0.726114 2.72822, -1.44848 2.24476, -1.99024  C1.90518, -2.37415 1.46526, -2.6682 0.980677, -2.83518  C0.58047, -2.97391 0.150666, -3.02629 -0.271145, -2.98772  C-0.885462, -2.93321 -1.48031, -2.68263 -1.94845, -2.28113 " /><path d="M2.59584, -8.88178e-16 C2.61321, 0.434825 2.51856, 0.874313 2.32388, 1.2656  C2.13192, 1.65344 1.84251, 1.99327 1.48938, 2.24637  C1.1272, 2.50709 0.698628, 2.67577 0.254348, 2.73316  C-0.196206, 2.79233 -0.66189, 2.73695 -1.08796, 2.57422  C-1.52581, 2.40806 -1.92088, 2.12915 -2.22601, 1.7717  C-2.54004, 1.40546 -2.75856, 0.957385 -2.85535, 0.483071  C-2.95581, -0.003626 -2.92779, -0.51672 -2.77566, -0.99154  C-2.61945, -1.48316 -2.33085, -1.93247 -1.94845, -2.28113 " /><path d="M2.4 0 A2.4 2.4 0 1 1 -2.32759 -0.585103" /><path d="M-2.4037, -0.517306 C-2.40851, -0.442904 -2.40241, -0.385803 -2.3861, -0.413676  C-2.371, -0.438417 -2.3511, -0.511043 -2.32759, -0.585103 " /><path d="M0.23539, -2.99075 C-0.471958, -2.96052 -1.15912, -2.66422 -1.6473, -2.17208  C-2.09288, -1.72888 -2.36894, -1.12822 -2.4037, -0.517306 " /><path d="M-2.32759, -0.585103 C-2.24538, -0.875293 -2.11081, -1.1555 -1.93075, -1.40283 " /><path d="M-1.93075, -1.40283 C-1.75118, -1.65047 -1.52631, -1.86501 -1.27577, -2.03283 " /><path d="M-1.27577, -2.03283 C-0.757542, -2.37683 -0.100204, -2.51321 0.517402, -2.40368 " /><path d="M2.59584, -4.44089e-16 C2.5748, -0.582003 2.34919, -1.1525 1.96684, -1.58712  C1.59417, -2.01534 1.07341, -2.30919 0.517402, -2.40368 " /><path d="M-1.27577 -2.03283 A2.4 2.4 0 0 1 2.4 -5.8783e-16" /></g>
<g   fill="none"
   stroke="rgb(165, 165, 165)"
   stroke-dasharray="1.2,0.8"
   stroke-linecap="butt"
   stroke-linejoin="miter"
   stroke-width="0.25"
   transform="scale(1, -1)"
  >
<path d="M-2.50992, 1.64326 C-2.16036, 2.10755 -1.65784, 2.45385 -1.09952, 2.61521  C-0.632107, 2.7521 -0.127864, 2.7599 0.343553, 2.63751  C0.991095, 2.47264 1.57061, 2.05874 1.93662, 1.4997  C2.22895, 1.05807 2.3875, 0.5296 2.38661, 2.36009e-06 " /><path d="M2.38661, 2.36009e-06 C2.38743, -0.467013 2.24664, -0.932976 1.98739, -1.32142  C1.75087, -1.67818 1.41617, -1.96884 1.02978, -2.15302  C0.567445, -2.37545 0.03242, -2.44206 -0.470346, -2.33981  C-0.978589, -2.23887 -1.45054, -1.96625 -1.7919, -1.57642  C-2.16818, -1.1513 -2.38339, -0.588141 -2.38653, -0.0204206  C-2.39269, 0.52621 -2.20277, 1.07225 -1.8587, 1.49705  C-1.43328, 2.03086 -0.769161, 2.3637 -0.0869027, 2.38502  C0.472499, 2.40706 1.03686, 2.22309 1.4758, 1.87561  C2.04512, 1.43316 2.39097, 0.721023 2.38661, 2.23588e-06 " /><path d="M2.38661, 2.23588e-06 C2.38742, -0.467012 2.24664, -0.932975 1.98739, -1.32142  C1.75087, -1.67817 1.41617, -1.96884 1.02978, -2.15302  C0.567446, -2.37545 0.0324233, -2.44206 -0.470341, -2.33981  C-0.978582, -2.23887 -1.45053, -1.96626 -1.79189, -1.57642  C-2.16831, -1.15116 -2.38353, -0.587757 -2.38653, -0.0198373  C-2.39251, 0.524109 -2.2044, 1.06745 -1.86336, 1.49124  C-1.44666, 2.01721 -0.798893, 2.35026 -0.128672, 2.38313  C0.446552, 2.41604 1.03064, 2.23035 1.48125, 1.8713  C2.04742, 1.42861 2.39092, 0.718678 2.3866, 2.11167e-06 " /><path d="M2.3866, 2.11167e-06 C2.38742, -0.467012 2.24664, -0.932974 1.98739, -1.32142  C1.75087, -1.67817 1.41616, -1.96884 1.02978, -2.15301  C0.56744, -2.37545 0.0324124, -2.44206 -0.470355, -2.3398  C-0.978602, -2.23887 -1.45055, -1.96624 -1.79191, -1.57639  C-2.16791, -1.15159 -2.38308, -0.588954 -2.38652, -0.0216603  C-2.39299, 0.526706 -2.2021, 1.07456 -1.85621, 1.50013  C-1.41145, 2.05708 -0.706173, 2.39271 0.00654433, 2.38659  C0.556258, 2.38663 1.1031, 2.18828 1.52496, 1.83585  C2.06567, 1.39174 2.3905, 0.699706 2.3866, 1.98746e-06 " /><path d="M2.3866, 1.98746e-06 C2.38742, -0.467012 2.24664, -0.932974 1.98739, -1.32142  C1.75087, -1.67817 1.41616, -1.96884 1.02978, -2.15301  C0.567439, -2.37544 0.0324116, -2.44205 -0.470355, -2.3398  C-0.978602, -2.23886 -1.45055, -1.96624 -1.79191, -1.57639  C-2.16788, -1.15161 -2.38305, -0.589022 -2.38651, -0.021765  C-2.39301, 0.526584 -2.20215, 1.07443 -1.8563, 1.50001  C-1.41169, 2.05685 -0.706681, 2.3925 0.00585783, 2.38659  C0.553839, 2.38677 1.09904, 2.18987 1.52045, 1.83959  C2.0638, 1.39558 2.39054, 0.701679 2.3866, 1.86324e-06 " /><path d="M2.3866, 1.86324e-06 C2.38742, -0.467011 2.24663, -0.932973 1.98739, -1.32142  C1.75087, -1.67817 1.41616, -1.96883 1.02978, -2.15301  C0.567437, -2.37544 0.0324087, -2.44205 -0.470359, -2.3398  C-0.978607, -2.23886 -1.45056, -1.96623 -1.79191, -1.57638  C-2.16776, -1.15174 -2.38292, -0.589381 -2.38651, -0.0223105  C-2.39313, 0.525952 -2.20245, 1.07376 -1.8568, 1.49939  C-1.42841, 2.03564 -0.758856, 2.36818 -0.0727217, 2.38549  C0.50745, 2.40508 1.09134, 2.20247 1.53468, 1.82773  C2.0697, 1.38344 2.3904, 0.695442 2.3866, 1.73903e-06 " /><path d="M2.3866, 1.73903e-06 C2.38741, -0.467011 2.24663, -0.932972 1.98738, -1.32142  C1.75086, -1.67817 1.41616, -1.96883 1.02978, -2.15301  C0.567439, -2.37544 0.0324137, -2.44205 -0.470352, -2.3398  C-0.978596, -2.23886 -1.45055, -1.96623 -1.7919, -1.57639  C-2.16797, -1.15151 -2.38315, -0.588757 -2.38651, -0.0213632  C-2.39292, 0.527048 -2.20192, 1.07492 -1.85593, 1.50046  C-1.41086, 2.0576 -0.705056, 2.39314 0.00800168, 2.38658  C0.560592, 2.3863 1.11012, 2.18548 1.53268, 1.8294  C2.06887, 1.38514 2.39042, 0.696318 2.3866, 1.61482e-06 " /><path d="M2.3866, 1.61482e-06 C2.38741, -0.467011 2.24663, -0.932971 1.98738, -1.32141  C1.75086, -1.67817 1.41616, -1.96883 1.02978, -2.15301  C0.567439, -2.37544 0.0324148, -2.44205 -0.47035, -2.33979  C-0.978593, -2.23886 -1.45054, -1.96623 -1.7919, -1.57639  C-2.16801, -1.15147 -2.38319, -0.588629 -2.38651, -0.0211687  C-2.39288, 0.527272 -2.20181, 1.07516 -1.85575, 1.50068  C-1.4105, 2.05792 -0.704389, 2.3934 0.00885963, 2.38658  C0.563052, 2.38611 1.11407, 2.18389 1.537, 1.82577  C2.07066, 1.38144 2.39038, 0.694414 2.38659, 1.4906e-06 " /><path d="M2.38659, 1.4906e-06 C2.38741, -0.46701 2.24663, -0.932971 1.98738, -1.32141  C1.75086, -1.67817 1.41616, -1.96883 1.02978, -2.153  C0.567433, -2.37544 0.0324043, -2.44204 -0.470363, -2.33979  C-0.978612, -2.23885 -1.45057, -1.96622 -1.79192, -1.57637  C-2.16755, -1.15196 -2.38268, -0.589993 -2.38649, -0.0232422  C-2.39333, 0.52487 -2.20297, 1.0726 -1.85765, 1.49832  C-1.4306, 2.03349 -0.763471, 2.36617 -0.079062, 2.38528  C0.415432, 2.40269 0.913831, 2.26063 1.32483, 1.98511  C1.65003, 1.7686 1.92059, 1.47029 2.10448, 1.12561  C2.2891, 0.781325 2.38704, 0.390677 2.38659, 1.36639e-06 " /><path d="M2.38659, 1.36639e-06 C2.38741, -0.46701 2.24663, -0.93297 1.98738, -1.32141  C1.75086, -1.67816 1.41615, -1.96883 1.02977, -2.153  C0.56743, -2.37543 0.0323996, -2.44204 -0.470369, -2.33979  C-0.978621, -2.23884 -1.45058, -1.96621 -1.79193, -1.57635  C-2.16732, -1.15221 -2.38242, -0.59068 -2.38648, -0.0242873  C-2.39355, 0.523654 -2.20356, 1.07131 -1.85862, 1.49711  C-1.43312, 2.031 -0.768823, 2.36382 -0.0864425, 2.38502  C0.473433, 2.40697 1.03823, 2.22256 1.47726, 1.87443  C2.04573, 1.43192 2.39094, 0.720384 2.38659, 1.24217e-06 " /><path d="M2.38659, 1.24217e-06 C2.3874, -0.46701 2.24662, -0.932969 1.98738, -1.32141  C1.75086, -1.67816 1.41615, -1.96883 1.02977, -2.153  C0.567427, -2.37543 0.0323934, -2.44204 -0.470377, -2.33978  C-0.978632, -2.23884 -1.45059, -1.9662 -1.79194, -1.57634  C-2.16701, -1.15254 -2.38207, -0.591605 -2.38646, -0.025693  C-2.39385, 0.522013 -2.20435, 1.06955 -1.85994, 1.49548  C-1.43661, 2.02752 -0.776344, 2.3605 -0.0968703, 2.38462  C0.503438, 2.41118 1.10982, 2.19899 1.56258, 1.80392  C2.08121, 1.35935 2.39014, 0.683082 2.38659, 1.11796e-06 " /><path d="M2.38659, 1.11796e-06 C2.3874, -0.467009 2.24662, -0.932968 1.98737, -1.32141  C1.75086, -1.67816 1.41615, -1.96882 1.02977, -2.153  C0.567431, -2.37543 0.032402, -2.44204 -0.470365, -2.33978  C-0.978614, -2.23884 -1.45057, -1.96621 -1.79192, -1.57636  C-2.16745, -1.15205 -2.38257, -0.590264 -2.38648, -0.0236578  C-2.39341, 0.524386 -2.2032, 1.07209 -1.85803, 1.49784  C-1.43159, 2.0325 -0.765574, 2.36524 -0.0819608, 2.38518  C0.497441, 2.40698 1.08142, 2.20715 1.526, 1.83496  C2.06609, 1.39084 2.39047, 0.699241 2.38658, 9.93743e-07 " /><path d="M2.38658, 9.93743e-07 C2.3874, -0.467009 2.24662, -0.932967 1.98737, -1.32141  C1.75085, -1.67816 1.41615, -1.96882 1.02977, -2.153  C0.567436, -2.37542 0.0324138, -2.44203 -0.470348, -2.33978  C-0.97859, -2.23885 -1.45054, -1.96622 -1.79189, -1.57638  C-2.16798, -1.15148 -2.38316, -0.588675 -2.3865, -0.0212438  C-2.39288, 0.527182 -2.20184, 1.07506 -1.85581, 1.50059  C-1.41063, 2.05779 -0.704643, 2.39328 0.00852816, 2.38657  C0.562105, 2.38617 1.11255, 2.18449 1.53534, 1.82715  C2.06996, 1.38285 2.39038, 0.695139 2.38658, 8.69527e-07 " /><path d="M2.38658, 8.69527e-07 C2.3874, -0.467009 2.24662, -0.932967 1.98737, -1.32141  C1.75085, -1.67816 1.41615, -1.96882 1.02977, -2.15299  C0.567435, -2.37542 0.0324138, -2.44203 -0.470348, -2.33978  C-0.978589, -2.23884 -1.45054, -1.96622 -1.79189, -1.57638  C-2.16798, -1.15148 -2.38316, -0.588677 -2.3865, -0.0212473  C-2.39288, 0.527178 -2.20184, 1.07505 -1.85581, 1.50058  C-1.41064, 2.05778 -0.704655, 2.39328 0.00851125, 2.38656  C0.562056, 2.38617 1.11247, 2.18452 1.53526, 1.82722  C2.06993, 1.38292 2.39038, 0.695176 2.38658, 7.4531e-07 " /><path d="M2.38658, 7.4531e-07 C2.3874, -0.467008 2.24661, -0.932966 1.98737, -1.32141  C1.75085, -1.67816 1.41615, -1.96882 1.02977, -2.15299  C0.567422, -2.37542 0.0323894, -2.44203 -0.47038, -2.33977  C-0.978635, -2.23883 -1.45059, -1.96618 -1.79194, -1.57632  C-2.16682, -1.15273 -2.38186, -0.592124 -2.38644, -0.0264861  C-2.39401, 0.521082 -2.20479, 1.06855 -1.86068, 1.49454  C-1.43865, 2.02547 -0.780766, 2.35851 -0.103034, 2.38435  C0.48066, 2.41153 1.07093, 2.21351 1.52014, 1.83981  C2.06365, 1.39582 2.39052, 0.701799 2.38658, 6.21092e-07 " /><path d="M2.38658, 6.21093e-07 C2.38739, -0.467008 2.24661, -0.932965 1.98737, -1.32141  C1.75085, -1.67816 1.41614, -1.96882 1.02977, -2.15299  C0.567418, -2.37542 0.0323827, -2.44203 -0.470388, -2.33977  C-0.978647, -2.23882 -1.45061, -1.96617 -1.79195, -1.5763  C-2.16649, -1.15308 -2.38148, -0.593111 -2.38642, -0.0279861  C-2.39433, 0.519317 -2.20564, 1.06664 -1.8621, 1.49277  C-1.44263, 2.02143 -0.789521, 2.35456 -0.115296, 2.38379  C0.390481, 2.40937 0.902799, 2.26771 1.32359, 1.98592  C1.64913, 1.76947 1.92, 1.47109 2.10412, 1.12626  C2.28896, 0.781815 2.38703, 0.390922 2.38657, 4.96875e-07 " /><path d="M2.38657, 4.96875e-07 C2.38739, -0.467008 2.24661, -0.932964 1.98736, -1.3214  C1.75085, -1.67815 1.41615, -1.96881 1.02977, -2.15299  C0.567433, -2.37542 0.0324133, -2.44203 -0.470347, -2.33977  C-0.978587, -2.23884 -1.45053, -1.96622 -1.79188, -1.57638  C-2.16797, -1.15147 -2.38315, -0.588678 -2.38649, -0.0212526  C-2.39288, 0.52717 -2.20184, 1.07505 -1.85581, 1.50057  C-1.41064, 2.05777 -0.704672, 2.39326 0.00848697, 2.38656  C0.561985, 2.38617 1.11235, 2.18456 1.53513, 1.82732  C2.06987, 1.38302 2.39038, 0.695228 2.38657, 3.72657e-07 " /><path d="M2.38657, 3.72657e-07 C2.38739, -0.467007 2.24661, -0.932964 1.98736, -1.3214  C1.75084, -1.67815 1.41614, -1.96881 1.02976, -2.15299  C0.567417, -2.37542 0.0323819, -2.44203 -0.470389, -2.33976  C-0.978647, -2.23881 -1.4506, -1.96617 -1.79195, -1.5763  C-2.16646, -1.15311 -2.38145, -0.593196 -2.38642, -0.0281181  C-2.39435, 0.519161 -2.20571, 1.06647 -1.86222, 1.49261  C-1.44298, 2.02106 -0.790318, 2.35419 -0.116418, 2.38373  C0.46097, 2.4138 1.04612, 2.22364 1.49552, 1.85988  C2.05338, 1.41663 2.39075, 0.712494 2.38657, 2.48438e-07 " /><path d="M2.38657, 2.48438e-07 C2.38674, -0.311309 2.32507, -0.622475 2.20619, -0.91019  C2.02438, -1.35319 1.70522, -1.73824 1.30364, -1.99907  C0.874323, -2.28043 0.352395, -2.41674 -0.159677, -2.38122  C-0.856342, -2.33835 -1.52359, -1.96976 -1.93075, -1.40283 " /></g>
<g   fill="none"
   stroke="rgb(0, 0, 0)"
   stroke-linecap="butt"
   stroke-linejoin="miter"
   stroke-width="0.35"
   transform="scale(1, -1)"
  >
<path d="M5 0 A5 5 0 0 1 4.33013 2.5" /><path d="M4.33013 -2.5 A5 5 0 0 1 5 -1.22465e-15" /><path d="M-9.18485e-16 -5 A5 5 0 0 1 4.33013 -2.5" /><path d="M-4.33013 -2.5 A5 5 0 0 1 -9.18485e-16 -5" /><path d="M-4.33013 2.5 A5 5 0 0 1 -4.33013 -2.5" /><path d="M3.06162e-16 5 A5 5 0 0 1 -4.33013 2.5" /><path d="M4.33013 2.5 A5 5 0 0 1 3.06162e-16 5" /><path d="M4.33013, 2.5 C4.78797, 1.70699 5.24553, 0.914468 5.7735, 2.83295e-13 " /><path d="M6.66134e-16, 5 C0.915684, 5 1.83081, 5 2.88675, 5 " /><path d="M2.88675, 5 C3.41472, 4.08553 3.87228, 3.29301 4.33013, 2.5 " /><path d="M-4.33013, 2.5 C-3.87228, 3.29301 -3.41472, 4.08553 -2.88675, 5 " /><path d="M-2.88675, 5 C-1.83081, 5 -0.915684, 5 6.66134e-16, 5 " /><path d="M-4.33013, -2.5 C-4.78797, -1.70699 -5.24553, -0.914468 -5.7735, -3.39284e-13 " /><path d="M-5.7735, 2.26263e-13 C-5.24553, 0.914468 -4.78797, 1.70699 -4.33013, 2.5 " /><path d="M-2.88675, -5 C-3.41472, -4.08553 -3.87228, -3.29301 -4.33013, -2.5 " /><path d="M-4.44089e-16, -5 C-0.915684, -5 -1.83081, -5 -2.88675, -5 " /><path d="M2.88675, -5 C1.83081, -5 0.915684, -5 -6.66134e-16, -5 " /><path d="M4.33013, -2.5 C3.87228, -3.29301 3.41472, -4.08553 2.88675, -5 " /><path d="M5.7735, -2.82441e-13 C5.24553, -0.914468 4.78797, -1.70699 4.33013, -2.5 " /></g>

</svg>
