<svg xmlns="http://www.w3.org/2000/svg" viewBox="-6.021713999999999 -6.996584 28.170078 21.753348000000003">
<rect width="100%" height="100%" fill="white"/>
<g   fill="none"
   stroke="rgb(0, 0, 0)"
   stroke-linecap="butt"
   stroke-linejoin="miter"
   stroke-width="0.35"
   transform="scale(1, -1)"
  >
<path id= "1" d=" M 19.4686 -7.574 L 19.3563 -7.50919 " />
<path id= "2" d=" M 15.8445 -12.814 L 15.7323 -12.7492 " />
<path id= "3" d=" M 18.5705 -7.05552 L 18.4583 -6.99071 " />
<path id= "4" d=" M 14.9465 -12.2955 L 14.8342 -12.2307 " />
<path id= "5" d=" M 17.6725 -6.53705 L 17.5602 -6.47223 " />
<path id= "6" d=" M 14.0485 -11.7771 L 13.9362 -11.7123 " />
<path id= "7" d=" M 16.7745 -6.01857 L 16.6622 -5.95376 " />
<path id= "8" d=" M 13.1505 -11.2586 L 13.0382 -11.1938 " />
<path id= "9" d=" M 15.8764 -5.5001 L 15.7642 -5.43528 " />
<path id= "10" d=" M 12.2524 -10.7401 L 12.1402 -10.6753 " />
<path id= "11" d=" M 14.9784 -4.98162 L 14.8662 -4.9168 " />
<path id= "12" d=" M 11.3544 -10.2216 L 11.2421 -10.1568 " />
<path id= "13" d=" M 14.0804 -4.46315 L 13.9681 -4.39833 " />
<path id= "14" d=" M 10.4564 -9.70317 L 10.3441 -9.63835 " />
<path id= "15" d=" M 13.1824 -3.94467 L 13.0701 -3.87985 " />
<path id= "16" d=" M 9.55836 -9.1847 L 9.44608 -9.11987 " />
<path id= "17" d=" M 12.2843 -3.4262 L 12.1721 -3.36137 " />
<path id= "18" d=" M 8.66034 -8.66622 L 8.54805 -8.6014 " />
<path id= "19" d=" M 11.3863 -2.90772 L 11.274 -2.8429 " />
<path id= "20" d=" M 7.76231 -8.14775 L 7.65003 -8.08292 " />
<path id= "21" d=" M 10.4883 -2.38925 L 10.376 -2.32442 " />
<path id= "22" d=" M 6.86429 -7.62927 L 6.752 -7.56444 " />
<path id= "23" d=" M 9.59027 -1.87077 L 9.44455 -1.78664 " />
<path id= "24" d=" M 8.75053 -1.38595 L 4.47806 1.08076 " />
<path id= "25" d=" M 5.96626 -7.1108 L 1.30306 -4.4185 " />
<path id= "26" d=" M 4.55563 0.403466 L 4.39405 1.81424 " />
<path id= "27" d=" M 1.92841 -4.14703 L -0.327205 -5.12621 " />
<path id= "28" d=" M 3.09861 4.94944 L 2.91783 5.05382 " />
<path id= "29" d=" M -2.73704 -5.1582 L -2.91783 -5.05382 " />
</g>
<g   fill="none"
   stroke="rgb(0, 0, 0)"
   stroke-linecap="butt"
   stroke-linejoin="miter"
   stroke-width="0.35"
   transform="scale(1, -1)"
  >
<path d="M20.2056 -9.07332 A3.175 1.83309 60 0 1 20.1467 -8.51766" />
<path d="M19.8674 -10.6367 A3.175 1.83309 60 0 1 20.2056 -9.07332" />
<path d="M17.0112, -12.7663 C17.3127, -12.8676 17.6908, -12.8124 18.078, -12.6167  C18.7578, -12.2798 19.4472, -11.5074 19.8674, -10.6367 " /><path d="M19.3403, -8.57378 C19.3824, -9.30681 19.1549, -10.1895 18.7401, -10.9562  C18.4824, -11.4366 18.1557, -11.8701 17.8051, -12.2032  C17.5708, -12.4255 17.3338, -12.5994 17.0941, -12.7251  C16.6215, -12.9738 16.1702, -13.0043 15.8445, -12.814 " /><path d="M19.4686, -7.574 C19.7898, -7.75844 20.0262, -8.08854 20.1467, -8.51766 " /><path d="M19.2281, -8.50896 C19.2607, -9.09697 19.1236, -9.78107 18.8511, -10.4246  C18.6323, -10.9447 18.3275, -11.4366 17.9817, -11.8349  C17.6832, -12.1799 17.355, -12.4548 17.0332, -12.6325  C16.5423, -12.906 16.0697, -12.9466 15.7323, -12.7492 " /><path d="M15.7323, -12.7492 Q15.5318, -12.6331 15.3994, -12.4185 " /><path d="M18.922, -7.35406 Q19.1574, -7.39452 19.3563, -7.50919 " /><path d="M19.3563, -7.50919 C19.8116, -7.76816 20.0911, -8.32487 20.1261, -9.02744 " /><path d="M20.1261, -9.02744 C20.1532, -9.52297 20.0611, -10.0865 19.8674, -10.6367 " /><path d="M18.4423, -8.0553 C18.4844, -8.78833 18.2568, -9.67105 17.8421, -10.4378  C17.5843, -10.9181 17.2577, -11.3516 16.9071, -11.6847  C16.6728, -11.907 16.4357, -12.081 16.196, -12.2066  C15.7235, -12.4553 15.2722, -12.4858 14.9465, -12.2955 " /><path d="M18.5705, -7.05552 C19.0258, -7.3145 19.3053, -7.87121 19.3403, -8.57378 " /><path d="M18.3301, -7.99049 C18.3631, -8.58498 18.2224, -9.27772 17.9441, -9.92743  C17.7254, -10.4411 17.4231, -10.9261 17.081, -11.3196  C16.7858, -11.6601 16.4618, -11.932 16.1437, -12.1093  C15.6498, -12.387 15.1736, -12.4293 14.8342, -12.2307 " /><path d="M14.8342, -12.2307 Q14.6338, -12.1147 14.5014, -11.9 " /><path d="M18.024, -6.83558 Q18.2594, -6.87605 18.4583, -6.99071 " /><path d="M18.4583, -6.99071 C18.9136, -7.24968 19.193, -7.8064 19.2281, -8.50896 " /><path d="M17.5443, -7.53683 C17.5863, -8.26986 17.3588, -9.15258 16.944, -9.9193  C16.6863, -10.3996 16.3597, -10.8331 16.009, -11.1662  C15.7747, -11.3886 15.5377, -11.5625 15.2979, -11.6881  C14.8254, -11.9368 14.3742, -11.9673 14.0485, -11.7771 " /><path d="M17.6725, -6.53705 C18.1278, -6.79603 18.4073, -7.35273 18.4423, -8.0553 " /><path d="M17.432, -7.47201 C17.4647, -8.06073 17.3272, -8.74577 17.0541, -9.39  C16.8361, -9.90749 16.533, -10.3969 16.1892, -10.7939  C15.8925, -11.1375 15.5664, -11.4119 15.2463, -11.5905  C14.7521, -11.8685 14.2758, -11.9109 13.9362, -11.7123 " /><path d="M13.9362, -11.7123 Q13.7358, -11.5962 13.6033, -11.3815 " /><path d="M17.126, -6.31711 Q17.3614, -6.35757 17.5602, -6.47223 " /><path d="M17.5602, -6.47223 C18.0155, -6.73121 18.295, -7.28792 18.3301, -7.99049 " /><path d="M16.6463, -7.01835 C16.6883, -7.75139 16.4608, -8.63411 16.046, -9.40084  C15.7883, -9.88117 15.4616, -10.3147 15.111, -10.6478  C14.8767, -10.8701 14.6396, -11.0441 14.3998, -11.1697  C13.9274, -11.4183 13.4761, -11.4488 13.1505, -11.2586 " /><path d="M16.7745, -6.01857 C17.2298, -6.27755 17.5093, -6.83426 17.5443, -7.53683 " /><path d="M16.534, -6.95353 C16.5667, -7.54237 16.4291, -8.22756 16.1559, -8.8719  C15.9377, -9.38978 15.6342, -9.87949 15.2901, -10.2767  C14.9917, -10.6221 14.6635, -10.8974 14.3417, -11.0757  C13.8498, -11.3505 13.3762, -11.3915 13.0382, -11.1938 " /><path d="M13.0382, -11.1938 Q12.8378, -11.0777 12.7053, -10.863 " /><path d="M16.2279, -5.79863 Q16.4633, -5.8391 16.6622, -5.95376 " /><path d="M16.6622, -5.95376 C17.1175, -6.21273 17.397, -6.76944 17.432, -7.47201 " /><path d="M15.7482, -6.49988 C15.7903, -7.23292 15.5627, -8.11565 15.148, -8.88238  C14.8902, -9.36271 14.5636, -9.79622 14.213, -10.1293  C13.9786, -10.3517 13.7415, -10.5257 13.5017, -10.6513  C13.0293, -10.8999 12.5781, -10.9303 12.2524, -10.7401 " /><path d="M15.8765, -5.5001 C16.3318, -5.75907 16.6112, -6.31578 16.6463, -7.01835 " /><path d="M15.636, -6.43505 C15.6689, -7.02837 15.5289, -7.71952 15.2516, -8.36812  C15.0337, -8.88121 14.7322, -9.36595 14.3909, -9.75962  C14.0945, -10.1024 13.7688, -10.3761 13.4491, -10.5542  C12.9553, -10.8316 12.4794, -10.8738 12.1402, -10.6753 " /><path d="M12.1402, -10.6753 Q11.9397, -10.5592 11.8073, -10.3446 " /><path d="M15.3299, -5.28015 Q15.5653, -5.32062 15.7642, -5.43528 " /><path d="M15.7642, -5.43528 C16.2195, -5.69426 16.499, -6.25097 16.534, -6.95353 " /><path d="M14.8502, -5.9814 C14.8923, -6.71445 14.6647, -7.59718 14.2499, -8.36391  C13.9922, -8.84424 13.6656, -9.27775 13.3149, -9.61085  C13.0806, -9.83322 12.8435, -10.0072 12.6037, -10.1328  C12.1312, -10.3814 11.6801, -10.4119 11.3544, -10.2216 " /><path d="M14.9784, -4.98162 C15.4337, -5.2406 15.7132, -5.7973 15.7482, -6.49988 " /><path d="M14.7379, -5.91658 C14.771, -6.51164 14.63, -7.20511 14.3512, -7.85536  C14.1322, -8.36923 13.8295, -8.85437 13.4871, -9.24778  C13.1908, -9.58915 12.8654, -9.86146 12.5463, -10.0384  C12.0542, -10.3135 11.5803, -10.3546 11.2421, -10.1568 " /><path d="M11.2421, -10.1568 Q11.0417, -10.0408 10.9093, -9.82609 " /><path d="M14.4319, -4.76168 Q14.6673, -4.80214 14.8662, -4.9168 " /><path d="M14.8662, -4.9168 C15.3215, -5.17578 15.6009, -5.73249 15.636, -6.43505 " /><path d="M13.9522, -5.46293 C13.9942, -6.19597 13.7667, -7.07871 13.3519, -7.84545  C13.0942, -8.32578 12.7675, -8.75929 12.4169, -9.09238  C12.1825, -9.31476 11.9454, -9.48876 11.7056, -9.61436  C11.2332, -9.86292 10.782, -9.89337 10.4564, -9.70317 " /><path d="M14.0804, -4.46315 C14.5357, -4.72212 14.8152, -5.27883 14.8502, -5.9814 " /><path d="M13.8399, -5.3981 C13.8731, -5.99494 13.7311, -6.69079 13.4506, -7.34271  C13.2335, -7.85049 12.9348, -8.32997 12.5969, -8.72026  C12.2979, -9.06646 11.9691, -9.3424 11.6466, -9.52084  C11.1551, -9.79509 10.6819, -9.83591 10.3441, -9.63835 " /><path d="M10.3441, -9.63835 Q10.1437, -9.52228 10.0112, -9.30761 " /><path d="M13.5339, -4.2432 Q13.7692, -4.28367 13.9681, -4.39833 " /><path d="M13.9681, -4.39833 C14.4234, -4.6573 14.7029, -5.21401 14.7379, -5.91658 " /><path d="M13.0542, -4.94445 C13.0962, -5.6775 12.8687, -6.56024 12.4539, -7.32698  C12.1961, -7.80731 11.8695, -8.24082 11.5189, -8.57391  C11.2845, -8.7963 11.0474, -8.9703 10.8075, -9.09591  C10.3351, -9.34445 9.88398, -9.37489 9.55836, -9.1847 " /><path d="M13.1824, -3.94467 C13.6377, -4.20365 13.9172, -4.76035 13.9522, -5.46293 " /><path d="M12.9419, -4.87962 C12.9745, -5.46737 12.8375, -6.15109 12.5653, -6.79438  C12.3455, -7.31711 12.0388, -7.81131 11.691, -8.21084  C11.3947, -8.55221 11.0694, -8.82452 10.7503, -9.00142  C10.2582, -9.27651 9.78427, -9.31767 9.44608, -9.11987 " /><path d="M9.44608, -9.11987 Q9.24565, -9.0038 9.1132, -8.78914 " /><path d="M12.6358, -3.72472 Q12.8712, -3.76519 13.0701, -3.87985 " /><path d="M13.0701, -3.87985 C13.5254, -4.13882 13.8049, -4.69553 13.8399, -5.3981 " /><path d="M12.1561, -4.42598 C12.1982, -5.15903 11.9706, -6.04177 11.5558, -6.80851  C11.2981, -7.28884 10.9715, -7.72236 10.6208, -8.05545  C10.3864, -8.27785 10.1493, -8.45185 9.90946, -8.57746  C9.43706, -8.82597 8.98595, -8.85641 8.66034, -8.66622 " /><path d="M12.2843, -3.4262 C12.7397, -3.68517 13.0191, -4.24188 13.0542, -4.94445 " /><path d="M12.0439, -4.36115 C12.0766, -4.95043 11.9387, -5.63621 11.6651, -6.28096  C11.4454, -6.80197 11.1395, -7.29437 10.7927, -7.69267  C10.4962, -8.03416 10.1708, -8.3065 9.85151, -8.48335  C9.35967, -8.75808 8.88608, -8.79909 8.54805, -8.60139 " /><path d="M8.54805, -8.60139 Q8.34762, -8.48533 8.21517, -8.27066 " /><path d="M11.7378, -3.20625 Q11.9732, -3.24671 12.1721, -3.36137 " /><path d="M12.1721, -3.36137 C12.6274, -3.62035 12.9069, -4.17706 12.9419, -4.87962 " /><path d="M11.2581, -3.9075 C11.3002, -4.64056 11.0726, -5.5233 10.6578, -6.29004  C10.4001, -6.77038 10.0734, -7.20389 9.72278, -7.53698  C9.48837, -7.75939 9.25123, -7.9334 9.01139, -8.059  C8.539, -8.3075 8.08792, -8.33793 7.76231, -8.14775 " /><path d="M11.3863, -2.90772 C11.8416, -3.1667 12.1211, -3.72341 12.1561, -4.42598 " /><path d="M11.1458, -3.84267 C11.1786, -4.43324 11.0401, -5.12074 10.7653, -5.76673  C10.5453, -6.28718 10.2393, -6.77887 9.89268, -7.1765  C9.59959, -7.51362 9.27826, -7.7832 8.96268, -7.95974  C8.46758, -8.23901 7.99015, -8.28189 7.65003, -8.08292 " /><path d="M7.65003, -8.08292 Q7.44959, -7.96685 7.31715, -7.75219 " /><path d="M10.8398, -2.68777 Q11.0752, -2.72824 11.274, -2.8429 " /><path d="M11.274, -2.8429 C11.7293, -3.10187 12.0088, -3.65858 12.0439, -4.36115 " /><path d="M10.3601, -3.38902 C10.4021, -4.12208 10.1746, -5.00484 9.75979, -5.77158  C9.50205, -6.25191 9.17541, -6.68542 8.82475, -7.01851  C8.59032, -7.24093 8.35318, -7.41495 8.11332, -7.54055  C7.64095, -7.78903 7.18988, -7.81944 6.86429, -7.62927 " /><path d="M10.4883, -2.38925 C10.9436, -2.64822 11.2231, -3.20493 11.2581, -3.9075 " /><path d="M10.2478, -3.32419 C10.2807, -3.91578 10.1416, -4.60462 9.86588, -5.25157  C9.64697, -5.76851 9.34325, -6.25693 8.99921, -6.65278  C8.70458, -6.9927 8.38119, -7.26438 8.06366, -7.44182  C7.56891, -7.7206 7.09189, -7.76327 6.752, -7.56444 " /><path d="M6.752, -7.56444 Q6.55157, -7.44837 6.41912, -7.23371 " /><path d="M9.94175, -2.16929 Q10.1771, -2.20976 10.376, -2.32442 " /><path d="M10.376, -2.32442 C10.8313, -2.58339 11.1108, -3.1401 11.1458, -3.84267 " /><path d="M10.2478, -3.32419 L9.4812, -3.44281 " /><path d="M9.46207, -2.87055 C9.50412, -3.60361 9.27656, -4.48637 8.86176, -5.25311  C8.60402, -5.73345 8.27738, -6.16696 7.92671, -6.50005  C7.69227, -6.72248 7.45511, -6.8965 7.21524, -7.0221  C6.74289, -7.27055 6.29184, -7.30096 5.96626, -7.1108 " /><path d="M9.59027, -1.87077 C10.0456, -2.12975 10.3251, -2.68645 10.3601, -3.38902 " /><path d="M9.46207, -2.87055 C9.43155, -2.16979 9.17155, -1.62467 8.75053, -1.38595 " /><path d="M9.0425, -1.629 Q9.25873, -1.67955 9.44455, -1.78664 " /><path d="M9.44455, -1.78664 C9.92217, -2.058 10.2173, -2.61994 10.2478, -3.32419 " /><path d="M9.4812, -3.44281 L9.44393, -3.44626 " /><path d="M4.36159 0.594622 A4.77727 2.75816 60 0 1 4.41975 1.34888" />
<path d="M4.36159, 0.594622 Q4.31697, 1.01501 4.25974, 1.52993 " /><path d="M-2.73704 -5.1582 A5.83565 3.36921 60 0 1 -0.327205 -5.12621" />
<path d="M-0.327205 -5.12621 A5.83565 3.36921 60 0 1 4.25974 1.52993" />
<path d="M-2.27817 -1.79748 A4.77727 2.75816 60 0 1 -2.31042 -2.0546" />
<path d="M-3.89817, -1.73868 Q-3.0063, -1.77172 -2.27817, -1.79748 " /><path d="M4.25974 2.97129 A5.83565 3.36921 60 0 1 3.09861 4.94944" />
<path d="M4.36159, 2.03598 Q4.31697, 2.45637 4.25974, 2.97129 " /><path d="M4.41975 1.34888 A4.77727 2.75816 60 0 1 4.39405 1.81424" />
<path d="M4.39405 1.81424 A4.77727 2.75816 60 0 1 4.36159 2.03598" />
<path id= "88" d=" M -2.27817 -1.79748 L 4.36159 2.03598 " />
<path id= "89" d=" M -3.89817 -1.73868 L -4.07895 -1.6343 " />
<path id= "90" d=" M 4.07895 3.07567 L -4.07895 -1.6343 " />
<path id= "91" d=" M 4.25974 2.97129 L 4.07895 3.07567 " />
<path d="M4.07895 3.07567 A5.83565 3.36921 60 0 1 2.91783 5.05382" />
<path d="M2.91782 5.05382 A5.83565 3.36921 60 0 1 -4.07895 -1.6343" />
<path id= "94" d=" M 4.07895 1.6343 L -4.07895 -3.07567 " />
<path id= "95" d=" M 4.25974 1.52993 L 4.07895 1.6343 " />
<path d="M-4.07895 -3.07567 A5.83565 3.36921 60 0 1 -2.91782 -5.05382" />
<path d="M-2.91782 -5.05382 A5.83565 3.36921 60 0 1 4.07895 1.6343" />
</g>

</svg>
