<svg xmlns="http://www.w3.org/2000/svg" viewBox="-3.134214 -4.082594 20.226978 15.920058000000001">
<rect width="100%" height="100%" fill="white"/>
<g   fill="none"
   stroke="rgb(0, 0, 0)"
   stroke-linecap="butt"
   stroke-linejoin="miter"
   stroke-width="0.35"
   transform="scale(1, -1)"
  >
<path id= "1" d=" M -1.73925 -2.36278 L -1.29911 -2.85993 " />
<path id= "2" d=" M 1.1766 2.68763 L 1.82721 2.55503 " />
<path id= "3" d=" M 15.087 -5.24648 L 2.1689 2.42426 " />
<path id= "4" d=" M 12.0871 -10.4425 L -1.01502 -3.09045 " />
</g>
<g   fill="none"
   stroke="rgb(0, 0, 0)"
   stroke-linecap="butt"
   stroke-linejoin="miter"
   stroke-width="0.35"
   transform="scale(1, -1)"
  >
<path d="M0.418794, -1.39268 C0.552341, -0.862632 0.887951, -0.285386 1.30993, 0.119721 " /><path d="M0.276191, -1.4835 C0.297614, -1.10415 0.481941, -0.635276 0.771875, -0.24888  C0.970752, 0.0186218 1.21638, 0.245223 1.46746, 0.388527 " /><path d="M-0.111492, -1.26542 C-0.0078356, -0.695566 0.349537, -0.0402835 0.81494, 0.405481 " /><path d="M0.409939, -1.45377 C0.449326, -1.13617 0.591974, -0.769887 0.808058, -0.445626  C0.979168, -0.187347 1.19505, 0.043194 1.42434, 0.208589 " /><path d="M0.273485, -1.56893 L0.276191, -1.4835 " /><path d="M-0.23955, -0.0274216 C-0.0787245, 0.194353 0.10918, 0.396649 0.309936, 0.561232  C0.70701, 0.889465 1.15397, 1.059 1.51599, 1.00699 " /><path d="M-0.23955, -0.0274216 C-0.0302327, 0.332759 0.251083, 0.661272 0.555199, 0.895273  C0.859031, 1.13051 1.18401, 1.26982 1.47281, 1.28556 " /><path d="M0.616477, 0.220114 C0.892987, 0.509824 1.22024, 0.709816 1.5172, 0.764354 " /><path d="M1.51921 0.8114 A1.62161 0.936239 60 0 1 0.616477 0.220114" />
<path d="M-0.115745, -1.31489 C-0.0847595, -0.816616 0.207051, -0.196349 0.616477, 0.220114 " /><path d="M0.727485, 1.09084 Q0.627559, 1.03281 0.528996, 0.959243 " /><path d="M0.528996, 0.959243 C0.352033, 0.827448 0.18181, 0.658407 0.0377421, 0.475461  C-0.0742357, 0.334107 -0.172293, 0.180009 -0.235986, 0.055803  C-0.275338, -0.0204806 -0.299871, -0.0828335 -0.292444, -0.0872312  C-0.286497, -0.0886902 -0.26901, -0.0689834 -0.239982, -0.0281109 " /><path d="M-0.115745, -1.31489 Q-0.134488, -1.58589 -0.0638169, -1.79077 " /><path d="M1.36875 1.55425 A2.15 1.2413 60 0 1 -0.661644 -1.9625" />
<path d="M1.46913, 1.29973 C1.24251, 1.31339 0.984125, 1.24026 0.727473, 1.09085 " /><path d="M1.52028 0.877734 A2.15 1.2413 60 0 1 1.075 1.86195" />
<path d="M1.075 1.86195 A2.15 1.2413 60 0 1 -1.075 -1.86195" />
<path d="M-1.075 -1.86195 A2.15 1.2413 60 0 1 1.52028 0.877734" />
<path d="M2.09985 1.21235 A2.96964 1.71452 60 0 1 1.1766 2.68763" />
<path d="M1.1766 2.68763 A2.96964 1.71452 60 0 1 -1.73925 -2.36278" />
<path d="M-1.73925 -2.36278 A2.96964 1.71452 60 0 1 2.09985 1.21235" />
<path d="M2.81711 0.973264 A3.184 1.83828 60 0 1 2.1689 2.42426" />
<path d="M2.1689 2.42426 A3.184 1.83828 60 0 1 1.82721 2.55503" />
<path d="M-1.29911 -2.85993 A3.184 1.83828 60 0 1 -1.01502 -3.09045" />
<path d="M-1.01502 -3.09045 A3.184 1.83828 60 0 1 2.81711 0.973264" />
<path d="M15.6978 -6.61362 A3 1.73205 60 0 1 15.087 -5.24648" />
<path d="M12.0871 -10.4425 A3 1.73205 60 0 1 15.6978 -6.61362" />
</g>

</svg>
