<svg xmlns="http://www.w3.org/2000/svg" viewBox="-1.536 -4.720000000000001 22.272 9.440000000000001">
<rect width="100%" height="100%" fill="white"/>
<g   fill="none"
   stroke="rgb(0, 0, 0)"
   stroke-linecap="butt"
   stroke-linejoin="miter"
   stroke-width="0.35"
   transform="scale(1, -1)"
  >
<path id= "1" d=" M 2.66597e-16 -2.96964 L 0.8 -3.184 " />
<path id= "2" d=" M 19.2 -3 L 0.8 -3.184 " />
</g>
<g   fill="none"
   stroke="rgb(0, 0, 0)"
   stroke-linecap="butt"
   stroke-linejoin="miter"
   stroke-width="0.35"
   transform="scale(1, -1)"
  >
<path d="M0, -2.96964 L0, -2.89519  L0, -2.67555  L0, -2.32176  L0, -1.85154  L0, -1.28848  L0, -0.660807  L0, -5.55112e-16  L0, 0.660807  L0, 1.28848  L0, 1.85154  L0, 2.32176  L0, 2.67555  L0, 2.89519  L0, 2.96964 " /><path id= "2" d=" M 0 2.96964 L 0.8 3.184 " />
<path d="M0.8, -3.184 L0.8, -3.10417  L0.8, -2.86868  L0.8, -2.48935  L0.8, -1.98519  L0.8, -1.38149  L0.8, -0.708507  L0.8, -5.55112e-16  L0.8, 0.708507  L0.8, 1.38149  L0.8, 1.98519  L0.8, 2.48935  L0.8, 2.86868  L0.8, 3.10417  L0.8, 3.184 " /><path id= "4" d=" M 0.8 3.184 L 19.2 3 " />
<path d="M19.2, -3 L19.2, -2.92478  L19.2, -2.70291  L19.2, -2.34549  L19.2, -1.87047  L19.2, -1.30165  L19.2, -0.667563  L19.2, -5.55112e-16  L19.2, 0.667563  L19.2, 1.30165  L19.2, 1.87047  L19.2, 2.34549  L19.2, 2.70291  L19.2, 2.92478  L19.2, 3 " /></g>

</svg>
