<svg xmlns="http://www.w3.org/2000/svg" viewBox="-3.6934400000000003 -3.6934400000000003 7.386880000000001 7.386880000000001">
<rect width="100%" height="100%" fill="white"/>
<g   fill="none"
   stroke="rgb(0, 0, 0)"
   stroke-linecap="butt"
   stroke-linejoin="miter"
   stroke-width="0.35"
   transform="scale(1, -1)"
  >
<path d="M0.211621, -1.60775 Q0.13871, -1.61734 0.065233, -1.6203 " /><path d="M0.0121847, -1.62157 L-0.022206, -1.62146 " /><path d="M-0.276442, -1.59788 Q-0.33897, -1.58706 -0.400461, -1.57139 " /><path d="M-0.410126, -1.56889 Q-0.508563, -1.54315 -0.603017, -1.50532 " /><path d="M-0.797208, -1.41212 C-1.00102, -1.29725 -1.17935, -1.13756 -1.31593, -0.947613 " /><path d="M-1.62136, 0.0287627 L-1.62067, 0.0554627 " /><path d="M-1.62059, 0.0575162 L-1.62015, 0.0688535 " /><path d="M-1.61233, 0.173232 Q-1.60287, 0.261241 -1.5839, 0.347698 " /><path d="M-1.55858, 0.447735 L-1.54082, 0.505471 " /><path d="M-1.50897, 0.593848 Q-1.47702, 0.675008 -1.43656, 0.752277 " /><path d="M-1.38731, 0.839643 Q-1.35534, 0.892459 -1.31945, 0.942694 " /><path d="M-1.26175, 1.01864 Q-1.20725, 1.08613 -1.14587, 1.14743 " /><path d="M-1.06867, 1.21966 Q-1.02544, 1.25754 -0.97965, 1.29225 " /><path d="M-0.962987, 1.30472 Q-0.881717, 1.36469 -0.793641, 1.41413 " /><path d="M-0.657314, 1.48242 L-0.565307, 1.51989 " /><path d="M0.235878, -1.60437 L0.186418, -1.61086 " /><path d="M-0.276444, -1.59788 Q-0.436711, -1.57011 -0.588303, -1.51114 " /><path d="M-0.797207, -1.41212 C-1.04327, -1.27361 -1.25178, -1.06936 -1.39535, -0.826219 " /><path d="M-1.50776, -0.596901 L-1.5087, -0.59453 " /><path d="M1.12247, -1.17034 Q1.00862, -1.27948 0.875914, -1.3647 " /><path d="M0.853375, -1.37891 L0.812738, -1.40324 " /><path d="M0.623824, -1.49682 L0.612802, -1.50137 " /><path d="M0.516724, -1.53708 L0.512199, -1.5386 " /><path d="M-0.816333, -1.40115 Q-0.873616, -1.36778 -0.927985, -1.32984 " /><path d="M-1.23027, -1.05644 Q-1.29511, -0.980925 -1.35024, -0.89805 " /><path d="M-1.59108, -0.313223 L-1.59629, -0.285448 " /><path d="M1.44773, 0.73055 C1.56176, 0.505085 1.62184, 0.252655 1.62161, -2.77556e-16 " /><path d="M1.30949, -0.956489 C1.0538, -1.30976 0.649708, -1.55043 0.217331, -1.60698 " /><path d="M0.140082, -1.61555 Q0.0564729, -1.6228 -0.0274375, -1.62138 " /><path d="M-0.306678, -1.59235 L-0.378948, -1.57671 " /><path d="M-0.498872, -1.54297 Q-0.705845, -1.47591 -0.887968, -1.35689 " /><path d="M-1.615, -0.146345 Q-1.62161, -0.0733223 -1.62161, 4.22263e-07 " /><path d="M-1.62161, 3.3781e-07 C-1.62209, 0.305218 -1.53376, 0.609838 -1.37009, 0.867458  C-1.21605, 1.11146 -0.995385, 1.31276 -0.738297, 1.4438 " /><path d="M1.44773, 0.73055 C1.56176, 0.505084 1.62184, 0.252656 1.62161, -3.88578e-16 " /><path d="M1.62161, -4.44089e-16 C1.6223, -0.334995 1.51539, -0.669068 1.32035, -0.94144  C1.05465, -1.31812 0.621149, -1.56968 0.16231, -1.61347  C-0.320116, -1.66487 -0.820238, -1.48375 -1.15789, -1.13531  C-1.38538, -0.904151 -1.54045, -0.603134 -1.5966, -0.283722 " /><path d="M-1.62161, 2.53358e-07 C-1.62209, 0.305218 -1.53376, 0.609838 -1.37009, 0.867458  C-1.21605, 1.11146 -0.995386, 1.31276 -0.738297, 1.4438 " /><path d="M1.44773, 0.73055 C1.56176, 0.505084 1.62184, 0.252656 1.62161, -5.55112e-16 " /><path d="M1.62161, -2.22045e-16 C1.6223, -0.334937 1.51543, -0.668954 1.32045, -0.941299  C1.0549, -1.31785 0.62167, -1.56941 0.163039, -1.6134  C-0.318802, -1.66495 -0.818418, -1.48456 -1.1562, -1.13703  C-1.45228, -0.838301 -1.62326, -0.420582 -1.62161, 2.53357e-07 " /><path d="M1.44773, 0.73055 C1.56176, 0.505083 1.62184, 0.252655 1.62161, -2.77556e-16 " /><path d="M-1.51203, 1.30905 C-1.10332, 1.70284 -0.524257, 1.89923 0.0216729, 1.83205  C0.309819, 1.79855 0.586744, 1.69497 0.820846, 1.53386  C1.1101, 1.33612 1.33218, 1.05036 1.44773, 0.73055 " /><path d="M-1.51203, 1.30905 C-1.17089, 1.70628 -0.66802, 1.95868 -0.145662, 1.99473 " /><path d="M1.44773 0.73055 A1.62161 1.62161 0 0 1 -0.738297 1.4438" /><path d="M-1.69225, 2.06063e-07 C-1.68155, 0.290991 -1.59377, 0.577496 -1.4407, 0.822364  C-1.27255, 1.09309 -1.02501, 1.31182 -0.738297, 1.4438 " /><path d="M-0.144381, 1.99479 C-0.47977, 1.98269 -0.81874, 1.87526 -1.09322, 1.70223  C-1.18662, 1.64343 -1.27076, 1.58055 -1.34563, 1.51359 " /><path d="M-1.34563, 1.51359 C-1.43142, 1.43773 -1.50395, 1.3567 -1.54382, 1.30347  C-1.56386, 1.27652 -1.57313, 1.26136 -1.57164, 1.25801  C-1.56792, 1.25672 -1.54824, 1.27354 -1.51259, 1.30847 " /><path d="M-1.69225, 2.06063e-07 C-1.71471, -0.511067 -1.4888, -1.02862 -1.09454, -1.36521  C-0.729948, -1.68316 -0.227364, -1.83907 0.258783, -1.7839  C0.691983, -1.73813 1.10703, -1.52782 1.40362, -1.20319  C1.70295, -0.879584 1.88058, -0.444472 1.89432, 0 " /><path d="M1.89432, 0 C1.915, 0.532912 1.69641, 1.07138 1.30762, 1.44392  C0.927959, 1.81452 0.390275, 2.01864 -0.144381, 1.9948 " /><circle cx ="0" cy ="0" r ="2.15" /><circle cx ="0" cy ="0" r ="2.96964" /><circle cx ="0" cy ="0" r ="3.184" /></g>

</svg>
