<svg xmlns="http://www.w3.org/2000/svg" viewBox="-2.9317588 -3.6487588 19.9933076 15.5644076">
<rect width="100%" height="100%" fill="white"/>
<g   fill="none"
   stroke="rgb(0, 0, 0)"
   stroke-linecap="butt"
   stroke-linejoin="miter"
   stroke-width="0.35"
   transform="scale(1, -1)"
  >
<path id= "1" d=" M 2.06841 2.26991 L 15.0737 -5.23872 " />
<path id= "2" d=" M -0.931594 -2.92625 L 12.0737 -10.4349 " />
</g>
<g   fill="none"
   stroke="rgb(0, 0, 0)"
   stroke-linecap="butt"
   stroke-linejoin="miter"
   stroke-width="0.35"
   transform="scale(1, -1)"
  >
<path d="M2.66767 0.893137 A5.77307 4.59381 43.3404 0 0 2.6897 0.908033" />
<path d="M-0.48364 1.19146 A3 1.73205 -120 0 0 2.06841 2.26991" />
<path d="M2.06841 2.26991 A3 1.73205 -120 0 0 2.6897 0.908033" />
<path d="M-0.48364 1.19146 A5.77307 3.65832 -63.8159 0 1 -0.493302 1.17546" />
<path d="M-0.493302 1.17546 A5.77307 1.6598 161.182 0 1 -0.500845 1.17006" />
<path d="M-1.55291 -1.55291 A3 1.73205 -120 0 0 -0.500845 1.17006" />
<path d="M-0.500845 -3.06106 A3 1.73205 -120 0 0 -0.931594 -2.92625" />
<path d="M-0.931594 -2.92625 A3 1.73205 -120 0 0 -1.55291 -1.55291" />
<path d="M-0.500845 -3.06106 A5.77307 4.38118 28.3214 0 0 -0.493302 -3.03916" />
<path d="M-0.493302 -3.03916 A5.77307 3.07738 -55.1346 0 1 -0.48364 -3.0626" />
<path d="M2.6897 0.885092 A3 1.73205 -120 0 0 -0.48364 -3.0626" />
<path d="M2.6897 0.885092 A5.77307 0.866229 155.138 0 1 2.66767 0.893137" />
<path d="M15.6827 -6.35485 A5.80432 4.61868 43.3404 0 0 15.5618 -6.81126" />
<path d="M2.6897, 0.908033 C6.88239, -1.42856 11.221, -3.85376 15.6827, -6.35485 " /><path d="M15.0737 -5.23872 A3 1.73205 -120 0 0 15.6827 -6.35485" />
<path d="M12.321 -10.5368 A3 1.73205 -120 0 0 12.0737 -10.4349" />
<path d="M12.321, -10.5368 C7.91046, -7.97208 3.62903, -5.4758 -0.500845, -3.06106 " /><path d="M12.494 -10.4453 A5.80432 4.40489 28.3214 0 0 12.321 -10.5368" />
<path d="M-0.48364, -3.0626 C3.77293, -5.48865 8.18102, -7.99624 12.7175, -10.5722 " /><path d="M15.6827 -6.88356 A3 1.73205 -120 0 0 12.7175 -10.5722" />
<path d="M15.6827, -6.88356 C11.221, -4.21452 6.88239, -1.62043 2.6897, 0.885092 " /></g>

</svg>
