<svg xmlns="http://www.w3.org/2000/svg" viewBox="-1.6 -4.59997 23.2 9.19997">
<rect width="100%" height="100%" fill="white"/>
<g   fill="none"
   stroke="rgb(0, 0, 0)"
   stroke-linecap="butt"
   stroke-linejoin="miter"
   stroke-width="0.35"
   transform="scale(1, -1)"
  >
<path d="M0 3.28645e-16 A6 6 0 0 1 0.803848 -3" /><path d="M19.1962 -3 A6 6 0 0 1 20 -4.06143e-16" /></g>
<g   fill="none"
   stroke="rgb(0, 0, 0)"
   stroke-linecap="butt"
   stroke-linejoin="miter"
   stroke-width="0.35"
   transform="scale(1, -1)"
  >
<path d="M0.79246 2.98019 A5.77307 4.72854 178.568 0 0 0.803848 2.99997" />
<path d="M0.803848, -1.51215 L0.803848, -1.70072  L0.803848, -1.87987  L0.803848, -2.0486  L0.803848, -2.20597  L0.803848, -2.35111  L0.803848, -2.48323  L0.803848, -2.60158  L0.803848, -2.70551  L0.803848, -2.79445  L0.803848, -2.8679  L0.803848, -2.92545  L0.803848, -2.96679  L0.803848, -2.99169  L0.803848, -3 " /><path d="M0.803848 -1.51215 A5.77307 5.23164 178.057 0 0 0.79246 -1.49009" />
<path d="M0.79246 -1.49009 A5.77307 0.503104 0.824669 0 0 0.803848 -1.48782" />
<path d="M0.803848, 2.99997 Q0.803848, 2.98232 0.803848, 2.96467  Q0.803848, 2.91421 0.803848, 2.86374  Q0.803848, 2.78158 0.803848, 2.69941  Q0.803848, 2.58737 0.803848, 2.47532  Q0.803848, 2.33587 0.803848, 2.19642  Q0.803848, 2.03266 0.803848, 1.8689  Q0.803848, 1.68445 0.803848, 1.5  Q0.803848, 1.29895 0.803848, 1.09789  Q0.803848, 0.884683 0.803848, 0.671475  Q0.803848, 0.231623 0.803848, -0.216184  Q0.803848, -0.43698 0.803848, -0.657776  Q0.803848, -0.871291 0.803848, -1.08481  Q0.803848, -1.28631 0.803848, -1.48782 " /><path d="M0.803848 2.99997 A5.77307 4.72854 178.568 0 1 0.79246 2.98019" />
<path d="M0 2.00173e-29 A6 6 0 0 0 0.79246 2.98019" /><path id= "8" d=" M 0.803848 -3 L 19.1962 -3 " />
<path d="M19.1962, -1.77163 L19.1962, -1.92991  L19.1962, -2.07952  L19.1962, -2.21978  L19.1962, -2.35005  L19.1962, -2.46975  L19.1962, -2.57834  L19.1962, -2.67534  L19.1962, -2.7603  L19.1962, -2.83286  L19.1962, -2.89267  L19.1962, -2.93947  L19.1962, -2.97305  L19.1962, -2.99325  L19.1962, -3 " /><path d="M19.1962, -1.77163 C12.8752, -1.68813 6.7337, -1.60149 0.803848, -1.51215 " /><path id= "11" d=" M 19.448 -1.2569 L 0.79246 -1.49009 " />
<path d="M19.448 -1.2569 A5.80432 5.25996 178.057 0 0 19.1962 -1.77163" />
<path d="M19.1962 -1.21085 A5.80432 0.505828 0.824669 0 0 19.448 -1.2569" />
<path d="M0.803848, -1.48782 C6.7337, -1.39797 12.8752, -1.30549 19.1962, -1.21085 " /><path d="M19.1962, 2.98248 L19.1962, 2.91238  L19.1962, 2.78994  L19.1962, 2.61737  L19.1962, 2.39777  L19.1962, 2.13507  L19.1962, 1.83402  L19.1962, 1.5  L19.1962, 1.13903  L19.1962, 0.75759  L19.1962, 0.362538  L19.1962, -0.439896  L19.1962, -0.832857  L19.1962, -1.21085 " /><path d="M19.1962, 2.98248 C12.8752, 2.99362 6.7337, 2.99946 0.803848, 2.99997 " /><path d="M19.448 2.5138 A5.80432 4.75413 178.568 0 1 19.1962 2.98248" />
<path d="M20 2.00173e-29 A6 6 0 0 1 19.448 2.5138" /></g>

</svg>
