<svg xmlns="http://www.w3.org/2000/svg" viewBox="-3.4799976 -3.0850676 6.959965199999999 6.1560852">
<rect width="100%" height="100%" fill="white"/>
<g   fill="none"
   stroke="rgb(0, 0, 0)"
   stroke-linecap="butt"
   stroke-linejoin="miter"
   stroke-width="0.35"
   transform="scale(1, -1)"
  >
<path d="M2.98019 -9.58122e-13 A5.77307 0.0827739 35 0 1 2.99997 0.0140485" />
<path d="M-1.48782 2.60507 A3 3 0 0 0 2.99997 0.0140485" /><path d="M-1.48782 2.60507 A5.77307 0.0827739 -95 0 1 -1.49009 2.58092" />
<path d="M-1.49009 2.58092 A5.77307 0.0827739 155 0 1 -1.51215 2.59102" />
<path d="M-3 -5.51091e-16 A3 3 0 0 0 -1.51215 2.59102" /><path d="M-1.51215 -2.59102 A3 3 0 0 0 -3 -5.51091e-16" /><path d="M-1.51215 -2.59102 A5.77307 0.0827739 25 0 1 -1.49009 -2.58092" />
<path d="M-1.49009 -2.58092 A5.77307 0.0827739 -85 0 1 -1.48782 -2.60507" />
<path d="M2.99997 -0.0140485 A3 3 0 0 0 -1.48782 -2.60507" /><path d="M2.99997 -0.0140485 A5.77307 0.0827739 145 0 1 2.98019 9.5679e-13" />
</g>

</svg>
