<svg xmlns="http://www.w3.org/2000/svg" viewBox="-5.34035 -5.34035 10.6807 10.6807">
<rect width="100%" height="100%" fill="white"/>
<g   fill="none"
   stroke="rgb(0, 0, 0)"
   stroke-linecap="butt"
   stroke-linejoin="miter"
   stroke-width="0.35"
   transform="scale(1, -1)"
  >
<circle cx ="0" cy ="0" r ="4.60375" /><path d="M1.14889 -0.395 A8.60446 0.811023 109.907 0 1 1.00856 -1.48853e-13" />
<path d="M1.8821 -1.26657 A8.60549 0.653005 130.907 0 1 1.14889 -0.395" />
<path d="M1.8821 -1.26657 A2.26859 2.26859 0 0 0 1.26657 -1.8821" /><path d="M0.395 -1.14889 A8.60549 0.653005 -40.9075 0 1 1.26657 -1.8821" />
<path d="M1.45828e-13 -1.00856 A8.60446 0.811023 -19.9073 0 1 0.395 -1.14889" />
<path d="M-0.395 -1.14889 A8.60446 0.811023 19.9073 0 1 -1.48853e-13 -1.00856" />
<path d="M-1.26657 -1.8821 A8.60549 0.653005 40.9075 0 1 -0.395 -1.14889" />
<path d="M-1.26657 -1.8821 A2.26859 2.26859 0 0 0 -1.8821 -1.26657" /><path d="M-1.14889 -0.395 A8.60549 0.653005 -130.907 0 1 -1.8821 -1.26657" />
<path d="M-1.00856 -1.45828e-13 A8.60446 0.811023 -109.907 0 1 -1.14889 -0.395" />
<path d="M-1.14889 0.395 A8.60446 0.811023 -70.0927 0 1 -1.00856 1.48853e-13" />
<path d="M-1.8821 1.26657 A8.60549 0.653005 -49.0925 0 1 -1.14889 0.395" />
<path d="M-1.8821 1.26657 A2.26859 2.26859 0 0 0 -1.26657 1.8821" /><path d="M-0.395 1.14889 A8.60549 0.653005 139.093 0 1 -1.26657 1.8821" />
<path d="M-1.45828e-13 1.00856 A8.60446 0.811023 160.093 0 1 -0.395 1.14889" />
<path d="M0.395 1.14889 A8.60446 0.811023 -160.093 0 1 1.48853e-13 1.00856" />
<path d="M1.26657 1.8821 A8.60549 0.653005 -139.093 0 1 0.395 1.14889" />
<path d="M1.26657 1.8821 A2.26859 2.26859 0 0 0 1.8821 1.26657" /><path d="M1.14889 0.395 A8.60549 0.653005 49.0925 0 1 1.8821 1.26657" />
<path d="M1.00856 1.45828e-13 A8.60446 0.811023 70.0927 0 1 1.14889 0.395" />
<path d="M0.735, -1.1452e-13 C0.779263, 0.115645 0.828856, 0.241323 0.890868, 0.395 " /><path id= "23" d=" M 1.00856 0 L 0.735 0 " />
<path id= "24" d=" M 1.14889 0.395 L 0.890868 0.395 " />
<path d="M1.01571, 0.528546 C1.21592, 0.699779 1.48115, 0.925711 1.8821, 1.26657 " /><path d="M0.890868, 0.395 Q0.948175, 0.456365 1.01571, 0.528546 " /><path d="M1.26657, 1.8821 C0.925711, 1.48115 0.699779, 1.21592 0.528546, 1.01571 " /><path d="M1.01571 0.528546 A1.145 1.145 0 0 1 0.528546 1.01571" /><path id= "29" d=" M 0.395 1.14889 L 0.395 0.890868 " />
<path d="M0.528546, 1.01571 Q0.456365, 0.948175 0.395, 0.890868 " /><path id= "31" d=" M 1.11972e-16 1.00856 L 8.16014e-17 0.735 " />
<path d="M0.395, 0.890868 C0.241323, 0.828856 0.115645, 0.779263 -1.14381e-13, 0.735 " /><path id= "33" d=" M -0.395 1.14889 L -0.395 0.890868 " />
<path d="M1.1452e-13, 0.735 C-0.115645, 0.779263 -0.241323, 0.828856 -0.395, 0.890868 " /><path d="M-0.528546, 1.01571 C-0.699779, 1.21592 -0.925711, 1.48115 -1.26657, 1.8821 " /><path d="M-0.395, 0.890868 Q-0.456365, 0.948175 -0.528546, 1.01571 " /><path d="M-1.8821, 1.26657 C-1.48115, 0.925711 -1.21592, 0.699779 -1.01571, 0.528546 " /><path d="M-0.528546 1.01571 A1.145 1.145 0 0 1 -1.01571 0.528546" /><path id= "39" d=" M -1.14889 0.395 L -0.890868 0.395 " />
<path d="M-1.01571, 0.528546 Q-0.948175, 0.456365 -0.890868, 0.395 " /><path id= "41" d=" M -1.00856 1.23512e-16 L -0.735 9.00115e-17 " />
<path d="M-0.890868, 0.395 C-0.828856, 0.241323 -0.779263, 0.115645 -0.735, -1.14353e-13 " /><path id= "43" d=" M -1.14889 -0.395 L -0.890868 -0.395 " />
<path d="M-0.735, 1.14603e-13 C-0.779263, -0.115645 -0.828856, -0.241323 -0.890868, -0.395 " /><path d="M-1.01571, -0.528546 C-1.21592, -0.699779 -1.48115, -0.925711 -1.8821, -1.26657 " /><path d="M-0.890868, -0.395 Q-0.948175, -0.456365 -1.01571, -0.528546 " /><path d="M-1.26657, -1.8821 C-0.925711, -1.48115 -0.699779, -1.21592 -0.528546, -1.01571 " /><path d="M-1.01571 -0.528546 A1.145 1.145 0 0 1 -0.528546 -1.01571" /><path id= "49" d=" M -0.395 -1.14889 L -0.395 -0.890868 " />
<path d="M-0.528546, -1.01571 Q-0.456365, -0.948175 -0.395, -0.890868 " /><path id= "51" d=" M -2.23944e-16 -1.00856 L -1.63203e-16 -0.735 " />
<path d="M-0.395, -0.890868 C-0.241323, -0.828856 -0.115645, -0.779263 1.14297e-13, -0.735 " /><path id= "53" d=" M 0.395 -1.14889 L 0.395 -0.890868 " />
<path d="M-1.14603e-13, -0.735 C0.115645, -0.779263 0.241323, -0.828856 0.395, -0.890868 " /><path d="M0.528546, -1.01571 C0.699779, -1.21592 0.925711, -1.48115 1.26657, -1.8821 " /><path d="M0.395, -0.890868 Q0.456365, -0.948175 0.528546, -1.01571 " /><path d="M1.8821, -1.26657 C1.48115, -0.925711 1.21592, -0.699779 1.01571, -0.528546 " /><path d="M0.528546 -1.01571 A1.145 1.145 0 0 1 1.01571 -0.528546" /><path id= "59" d=" M 1.14889 -0.395 L 0.890868 -0.395 " />
<path d="M1.01571, -0.528546 Q0.948175, -0.456365 0.890868, -0.395 " /><path d="M0.890868, -0.395 C0.828856, -0.241323 0.779263, -0.115645 0.735, 1.14353e-13 " /></g>

</svg>
