<svg xmlns="http://www.w3.org/2000/svg" viewBox="-8.487624799999999 -8.5186448 30.336389599999997 23.301109599999997">
<rect width="100%" height="100%" fill="white"/>
<g   fill="none"
   stroke="rgb(0, 0, 0)"
   stroke-linecap="butt"
   stroke-linejoin="miter"
   stroke-width="0.35"
   transform="scale(1, -1)"
  >
<path d="M-1.60598, 6.42648 C-1.97118, 6.63816 -2.40165, 6.72944 -2.84591, 6.6995  C-3.00051, 6.68926 -3.15642, 6.66533 -3.31364, 6.62769  C-3.69642, 6.53485 -4.07603, 6.36995 -4.45248, 6.13302  C-5.26493, 5.62495 -6.03051, 4.79443 -6.58837, 3.83267  C-7.16128, 2.85057 -7.50845, 1.74522 -7.53834, 0.767832  C-7.55846, 0.154 -7.45714, -0.412838 -7.22644, -0.881962  C-7.03022, -1.2831 -6.73538, -1.61143 -6.36848, -1.82242 " /><path id= "2" d=" M -6.36848 -1.82242 L -2.54963 -4.02723 " />
<path id= "3" d=" M -1.60598 6.42648 L 2.21287 4.22166 " />
<path id= "4" d=" M -2.79235e-12 -3.69414 L -0.16838 -3.79135 " />
<path id= "5" d=" M 3.52943 1.62845 L 3.64174 1.56361 " />
<path id= "6" d=" M 0.803447 -4.13004 L 0.915754 -4.19489 " />
<path id= "7" d=" M 4.42746 1.10998 L 4.53977 1.04514 " />
<path id= "8" d=" M 1.70147 -4.64852 L 1.81378 -4.71336 " />
<path id= "9" d=" M 5.32549 0.591501 L 5.43779 0.526665 " />
<path id= "10" d=" M 2.5995 -5.167 L 2.7118 -5.23184 " />
<path id= "11" d=" M 6.22352 0.0730244 L 6.33582 0.00818941 " />
<path id= "12" d=" M 3.49753 -5.68547 L 3.60983 -5.75031 " />
<path id= "13" d=" M 7.12155 -0.445452 L 7.23384 -0.510286 " />
<path id= "14" d=" M 4.39556 -6.20395 L 4.50785 -6.26879 " />
<path id= "15" d=" M 8.01957 -0.963929 L 8.13187 -1.02876 " />
<path id= "16" d=" M 5.29359 -6.72243 L 5.40588 -6.78726 " />
<path id= "17" d=" M 8.9176 -1.48241 L 9.02989 -1.54724 " />
<path id= "18" d=" M 6.19162 -7.2409 L 6.30391 -7.30574 " />
<path id= "19" d=" M 9.81563 -2.00088 L 9.92792 -2.06571 " />
<path id= "20" d=" M 7.08964 -7.75938 L 7.20193 -7.82421 " />
<path id= "21" d=" M 10.7137 -2.51936 L 10.8259 -2.58419 " />
<path id= "22" d=" M 7.98767 -8.27786 L 8.09996 -8.34269 " />
<path id= "23" d=" M 11.6117 -3.03784 L 11.724 -3.10266 " />
<path id= "24" d=" M 8.8857 -8.79634 L 8.99798 -8.86116 " />
<path id= "25" d=" M 12.5097 -3.55631 L 12.622 -3.62114 " />
<path id= "26" d=" M 9.78373 -9.31481 L 9.89601 -9.37964 " />
<path id= "27" d=" M 13.4077 -4.07479 L 13.52 -4.13961 " />
<path id= "28" d=" M 10.6818 -9.83329 L 10.794 -9.89811 " />
<path id= "29" d=" M 14.3058 -4.59327 L 14.418 -4.65809 " />
<path id= "30" d=" M 11.5798 -10.3518 L 11.6921 -10.4166 " />
<path id= "31" d=" M 15.2038 -5.11174 L 15.3161 -5.17656 " />
<path id= "32" d=" M 12.4778 -10.8702 L 12.5901 -10.9351 " />
<path id= "33" d=" M 16.1018 -5.63022 L 16.2141 -5.69504 " />
<path id= "34" d=" M 13.3758 -11.3887 L 13.4881 -11.4535 " />
<path id= "35" d=" M 16.9999 -6.1487 L 17.1121 -6.21351 " />
<path id= "36" d=" M 14.2739 -11.9072 L 14.3861 -11.972 " />
<path id= "37" d=" M 17.8979 -6.66717 L 18.0101 -6.73199 " />
<path id= "38" d=" M 15.1719 -12.4257 L 15.2842 -12.4905 " />
<path id= "39" d=" M 18.7959 -7.18565 L 18.9082 -7.25046 " />
<path id= "40" d=" M 17.8568 -12.5033 L 17.5328 -12.6903 " />
</g>
<g   fill="none"
   stroke="rgb(0, 0, 0)"
   stroke-linecap="butt"
   stroke-linejoin="miter"
   stroke-width="0.35"
   transform="scale(1, -1)"
  >
<path d="M-6.39546 1.43012 A2.77075 1.59969 -120 0 0 -2.47703 3.69242" />
<path d="M-2.47703 3.69242 A2.77075 1.59969 -120 0 0 -4.43625 0.298962" />
<path d="M-4.43625 0.298962 A2.77075 1.59969 -120 0 0 -6.39546 1.43012" />
<path d="M-3.45177, 5.06787 L-3.53134, 4.94045  L-3.6174, 4.82265  L-3.7105, 4.71374  L-3.81119, 4.61305  L-3.9201, 4.51995  L-4.0379, 4.43389  L-4.16532, 4.35432  L-4.30314, 4.28075  L-4.45221, 4.21274  L-4.61345, 4.14986  L-4.78786, 4.09172  L-4.9765, 4.03798  L-5.18054, 3.98829  L-5.40123, 3.94235 " /><path d="M-5.40123, 3.94235 L-5.40574, 3.70813  L-5.41928, 3.48715  L-5.44194, 3.27804  L-5.47385, 3.0795  L-5.51523, 2.89033  L-5.56631, 2.70934  L-5.62742, 2.53544  L-5.69893, 2.36754  L-5.78128, 2.20461  L-5.87499, 2.04564  L-5.98062, 1.88967  L-6.09882, 1.73572  L-6.23034, 1.58285  L-6.37597, 1.43012 " /><path d="M-6.37597, 1.43012 L-6.23034, 1.28258  L-6.09882, 1.14535  L-5.98062, 1.01756  L-5.87499, 0.898442  L-5.78128, 0.787253  L-5.69893, 0.68331  L-5.62742, 0.585971  L-5.56631, 0.494638  L-5.51523, 0.408747  L-5.47385, 0.327771  L-5.44194, 0.251208  L-5.41928, 0.178589  L-5.40574, 0.109465  L-5.40123, 0.0434105 " /><path d="M-5.40123, 0.0434105 C-4.94061, 0.132407 -4.58638, 0.241857 -4.29835, 0.384184 " /><path d="M-2.47704, 3.6845 L-2.48198, 3.75046  L-2.49588, 3.81948  L-2.51885, 3.89199  L-2.55101, 3.96843  L-2.59256, 4.04927  L-2.64377, 4.135  L-2.70493, 4.22616  L-2.77643, 4.32329  L-2.85871, 4.42699  L-2.95225, 4.53789  L-3.05765, 4.65668  L-3.17554, 4.78408  L-3.30665, 4.92086  L-3.45177, 5.06787 " /><path d="M3.19922 2.0415 A4.7625 2.74963 60 0 1 2.21287 4.22166" />
<path d="M-2.54963 -4.02723 A4.7625 2.74963 60 0 1 -0.16838 -3.79135" />
<path d="M-0.16838 -3.79135 A4.7625 2.74963 60 0 1 3.19922 2.0415" />
<path id= "12" d=" M -5.40123 3.94235 L -3.25572 2.70363 " />
<path d="M-2.56783, 2.95928 Q-2.8704, 2.8264 -3.25572, 2.70363 " /><path id= "14" d=" M -6.37597 1.43012 L -4.44658 0.316184 " />
<path d="M-3.25572, 2.70363 C-3.37706, 1.88255 -3.57146, 1.28935 -3.91981, 0.677135 " /><path id= "16" d=" M 3.19922 2.0415 L 3.19922 1.84707 " />
<path d="M-2.86686e-12 -3.69414 A4.52438 2.61215 60 0 1 3.19922 1.84707" />
<path d="M3.18728, 1.52136 C3.31275, 1.26678 3.38561, 0.962444 3.40122, 0.62868 " /><path d="M3.19472, 1.64876 C3.3817, 1.36436 3.49114, 0.989437 3.51353, 0.563838 " /><path d="M3.40122, 0.62868 L3.03192, 0.571529 " /><path d="M3.51353, 0.563838 C3.55559, -0.169242 3.32801, -1.05202 2.91319, -1.81878  C2.65545, -2.29912 2.3288, -2.73263 1.97812, -3.06572  C1.7436, -3.28821 1.50637, -3.46226 1.26642, -3.58787  C0.797281, -3.83452 0.34913, -3.86619 0.0241563, -3.68008 " /><path d="M3.64174, 1.56361 C4.09704, 1.30464 4.37653, 0.747935 4.41156, 0.0453626 " /><path d="M3.40122, 0.62868 C3.43437, 0.0325104 3.29276, -0.66245 3.01289, -1.31374  C2.7934, -1.82773 2.49025, -2.31279 2.14744, -2.70588  C1.85421, -3.04302 1.53274, -3.31255 1.21708, -3.48895  C0.782881, -3.7331 0.36165, -3.79741 0.0358332, -3.67322 " /><path d="M3.19837, 1.76184 Q3.37526, 1.7174 3.52943, 1.62845 " /><path d="M3.52943, 1.62845 C3.98474, 1.36948 4.26421, 0.81277 4.29925, 0.110203 " /><path d="M4.41156, 0.0453626 C4.45361, -0.687714 4.22604, -1.57049 3.81122, -2.33725  C3.55348, -2.81759 3.22683, -3.2511 2.87616, -3.58418  C2.64165, -3.80667 2.40442, -3.98072 2.16449, -4.10632  C1.69223, -4.35465 1.24128, -4.38502 0.915755, -4.19489 " /><path d="M4.53977, 1.04514 C4.99507, 0.786163 5.27456, 0.229459 5.30958, -0.473113 " /><path d="M4.29925, 0.110203 C4.33237, -0.485444 4.19105, -1.17971 3.91165, -1.83051  C3.69234, -2.34456 3.38933, -2.82976 3.04661, -3.22305  C2.74956, -3.56485 2.42347, -3.83723 2.10377, -4.01373  C1.61303, -4.28692 1.14075, -4.32731 0.803446, -4.13004 " /><path d="M0.803446, -4.13004 Q0.603019, -4.01398 0.470576, -3.79933 " /><path d="M3.99321, 1.2651 Q4.22859, 1.22463 4.42746, 1.10998 " /><path d="M4.42746, 1.10998 C4.88276, 0.851003 5.16224, 0.294294 5.19728, -0.408274 " /><path d="M5.30958, -0.473113 C5.35164, -1.20619 5.12407, -2.08896 4.70925, -2.85571  C4.45151, -3.33605 4.12486, -3.76956 3.77419, -4.10265  C3.53969, -4.32512 3.30249, -4.49916 3.06257, -4.62477  C2.59028, -4.87313 2.13932, -4.9035 1.81378, -4.71336 " /><path d="M5.43779, 0.526664 C5.89309, 0.267688 6.17258, -0.289017 6.20761, -0.991588 " /><path d="M5.19728, -0.408274 C5.23036, -1.00335 5.08935, -1.69686 4.81048, -2.34712  C4.59147, -2.86099 4.2888, -3.34613 3.94635, -3.73954  C3.65, -4.08093 3.32466, -4.35325 3.00553, -4.53014  C2.51347, -4.80516 2.03964, -4.8463 1.70147, -4.64852 " /><path d="M1.70147, -4.64852 Q1.50105, -4.53245 1.3686, -4.3178 " /><path d="M4.89124, 0.746625 Q5.12662, 0.706157 5.32549, 0.591501 " /><path d="M5.32549, 0.591501 C5.78079, 0.332526 6.06027, -0.224183 6.09531, -0.92675 " /><path d="M6.20761, -0.991588 C6.24966, -1.72466 6.02209, -2.60743 5.60728, -3.37418  C5.34954, -3.85452 5.02289, -4.28803 4.67222, -4.62112  C4.43774, -4.84358 4.20054, -5.01762 3.96063, -5.14322  C3.48834, -5.3916 3.03735, -5.42198 2.71181, -5.23184 " /><path d="M6.33582, 0.00818932 C6.79112, -0.250787 7.07061, -0.807493 7.10563, -1.51006 " /><path d="M6.09531, -0.92675 C6.12835, -1.52124 5.98767, -2.21395 5.70934, -2.86365  C5.49066, -3.37728 5.18839, -3.8623 4.8463, -4.25581  C4.55119, -4.5962 4.22724, -4.86812 3.90924, -5.04545  C3.41516, -5.32328 2.93896, -5.36556 2.5995, -5.167 " /><path d="M2.5995, -5.167 Q2.39907, -5.05093 2.26663, -4.83628 " /><path d="M5.78926, 0.228149 Q6.02464, 0.18768 6.22352, 0.0730245 " /><path d="M6.22352, 0.0730245 C6.67882, -0.18595 6.9583, -0.74266 6.99334, -1.44523 " /><path d="M7.10563, -1.51006 C7.14769, -2.24313 6.92012, -3.1259 6.50531, -3.89265  C6.24757, -4.37299 5.92092, -4.8065 5.57026, -5.13959  C5.33578, -5.36205 5.09859, -5.53608 4.85869, -5.66168  C4.38638, -5.91007 3.93538, -5.94046 3.60983, -5.75031 " /><path d="M7.23384, -0.510286 C7.68914, -0.769262 7.96863, -1.32597 8.00366, -2.02854 " /><path d="M6.99334, -1.44523 C7.02634, -2.03907 6.886, -2.73093 6.60826, -3.38002  C6.38996, -3.89336 6.08814, -4.37824 5.74645, -4.77184  C5.45053, -5.11364 5.1255, -5.38661 4.80649, -5.56436  C4.31269, -5.8418 3.83681, -5.88393 3.49753, -5.68547 " /><path d="M3.49753, -5.68547 Q3.2971, -5.56941 3.16466, -5.35475 " /><path d="M6.68729, -0.290328 Q6.92267, -0.330796 7.12155, -0.445452 " /><path d="M7.12155, -0.445452 C7.57685, -0.704427 7.85633, -1.26114 7.89136, -1.9637 " /><path d="M8.00366, -2.02854 C8.04571, -2.7616 7.81815, -3.64436 7.40334, -4.41111  C7.14561, -4.89145 6.81896, -5.32496 6.46829, -5.65805  C6.23383, -5.8805 5.99666, -6.05452 5.75677, -6.18012  C5.28444, -6.42854 4.83342, -6.45894 4.50786, -6.26879 " /><path d="M8.13187, -1.02876 C8.58717, -1.28774 8.86666, -1.84444 8.90168, -2.54701 " /><path d="M7.89136, -1.9637 C7.92432, -2.55674 7.78442, -3.24753 7.50742, -3.89585  C7.28969, -4.40861 6.9886, -4.8931 6.64759, -5.28673  C6.34959, -5.63165 6.02191, -5.90676 5.70049, -6.08508  C5.20812, -6.36054 4.73392, -6.40185 4.39556, -6.20395 " /><path d="M4.39556, -6.20395 Q4.19513, -6.08788 4.06268, -5.87323 " /><path d="M7.58531, -0.808804 Q7.8207, -0.849272 8.01957, -0.963929 " /><path d="M8.01957, -0.963929 C8.47488, -1.2229 8.75436, -1.77961 8.78939, -2.48218 " /><path d="M8.90168, -2.54701 C8.94374, -3.28008 8.71617, -4.16283 8.30137, -4.92958  C8.04364, -5.40992 7.71699, -5.84343 7.36633, -6.17652  C7.13188, -6.39895 6.89471, -6.57298 6.65484, -6.69858  C6.18249, -6.94702 5.73146, -6.97742 5.40588, -6.78726 " /><path d="M9.02989, -1.54724 C9.48519, -1.80621 9.76468, -2.36292 9.79971, -3.06549 " /><path d="M8.78939, -2.48218 C8.8223, -3.07451 8.68279, -3.76436 8.40643, -4.41202  C8.18678, -4.92999 7.882, -5.4192 7.53693, -5.81522  C7.23992, -6.15702 6.91388, -6.42941 6.5942, -6.60596  C6.10336, -6.87929 5.63096, -6.91973 5.29359, -6.72243 " /><path d="M5.29359, -6.72243 Q5.09316, -6.60636 4.96071, -6.3917 " /><path d="M8.48334, -1.32728 Q8.71873, -1.36775 8.9176, -1.48241 " /><path d="M8.9176, -1.48241 C9.3729, -1.74138 9.65238, -2.29809 9.68742, -3.00066 " /><path d="M9.79971, -3.06549 C9.84176, -3.79855 9.6142, -4.6813 9.19941, -5.44804  C8.94167, -5.92837 8.61503, -6.36189 8.26437, -6.69497  C8.02994, -6.91739 7.7928, -7.0914 7.55295, -7.21701  C7.08057, -7.46549 6.6295, -7.49591 6.30391, -7.30574 " /><path d="M9.92792, -2.06571 C10.3832, -2.32469 10.6627, -2.88139 10.6977, -3.58396 " /><path d="M9.68742, -3.00066 C9.72027, -3.59198 9.5813, -4.28048 9.30586, -4.92719  C9.08733, -5.44347 8.78419, -5.93136 8.44075, -6.32703  C8.14537, -6.66825 7.82098, -6.9409 7.50252, -7.11871  C7.00803, -7.39711 6.53133, -7.43963 6.19161, -7.2409 " /><path d="M6.19161, -7.2409 Q5.99118, -7.12484 5.85874, -6.91018 " /><path d="M9.38137, -1.84576 Q9.61675, -1.88622 9.81563, -2.00088 " /><path d="M9.81563, -2.00088 C10.2709, -2.25986 10.5504, -2.81657 10.5854, -3.51913 " /><path d="M10.6977, -3.58396 C10.7398, -4.31702 10.5122, -5.19977 10.0974, -5.9665  C9.8397, -6.44684 9.51307, -6.88035 9.1624, -7.21344  C8.92799, -7.43585 8.69086, -7.60986 8.45102, -7.73546  C7.97863, -7.98396 7.52754, -8.01439 7.20193, -7.82421 " /><path d="M10.8259, -2.58419 C11.2812, -2.84316 11.5607, -3.39987 11.5958, -4.10244 " /><path d="M10.5854, -3.51913 C10.6183, -4.10991 10.4796, -4.79767 10.2047, -5.44384  C9.98695, -5.95868 9.68511, -6.44539 9.34298, -6.84064  C9.04335, -7.18777 8.71363, -7.46431 8.3904, -7.64283  C7.89952, -7.91623 7.42705, -7.95671 7.08964, -7.75938 " /><path d="M7.08964, -7.75938 Q6.88921, -7.64331 6.75677, -7.42865 " /><path d="M10.2794, -2.36423 Q10.5148, -2.4047 10.7137, -2.51936 " /><path d="M10.7137, -2.51936 C11.169, -2.77833 11.4484, -3.33504 11.4835, -4.03761 " /><path d="M11.5958, -4.10244 C11.6378, -4.83549 11.4103, -5.71823 10.9955, -6.48497  C10.7377, -6.9653 10.4111, -7.39881 10.0604, -7.73191  C9.82604, -7.9543 9.58893, -8.1283 9.3491, -8.25391  C8.87669, -8.50243 8.42557, -8.53287 8.09996, -8.34269 " /><path d="M11.724, -3.10266 C12.1793, -3.36164 12.4588, -3.91834 12.4938, -4.62091 " /><path d="M11.4835, -4.03761 C11.5162, -4.6272 11.3782, -5.31339 11.1043, -5.95844  C10.8864, -6.47496 10.5837, -6.96336 10.2405, -7.35971  C9.94109, -7.70645 9.61168, -7.98271 9.28874, -8.16114  C8.79774, -8.43469 8.32515, -8.47522 7.98767, -8.27786 " /><path d="M7.98767, -8.27786 Q7.78724, -8.16179 7.65479, -7.94713 " /><path d="M11.1774, -2.88271 Q11.4128, -2.92318 11.6117, -3.03784 " /><path d="M11.6117, -3.03784 C12.067, -3.29681 12.3465, -3.85352 12.3815, -4.55609 " /><path d="M12.4938, -4.62091 C12.5358, -5.35396 12.3083, -6.2367 11.8935, -7.00344  C11.6358, -7.48377 11.3091, -7.91728 10.9585, -8.25037  C10.7241, -8.47276 10.487, -8.64676 10.2472, -8.77237  C9.77473, -9.0209 9.32362, -9.05136 8.99798, -8.86116 " /><path d="M12.622, -3.62114 C13.0773, -3.88011 13.3568, -4.43682 13.3918, -5.13939 " /><path d="M12.3815, -4.55609 C12.4141, -5.14334 12.2773, -5.82641 12.0056, -6.46923  C11.787, -6.98966 11.4822, -7.48191 11.1364, -7.88067  C10.8399, -8.22353 10.5141, -8.4973 10.1943, -8.6754  C9.70066, -8.95268 9.2249, -8.99475 8.8857, -8.79633 " /><path d="M8.8857, -8.79633 Q8.68526, -8.68027 8.55282, -8.4656 " /><path d="M12.0754, -3.40119 Q12.3108, -3.44165 12.5097, -3.55631 " /><path d="M12.5097, -3.55631 C12.965, -3.81529 13.2445, -4.372 13.2795, -5.07456 " /><path d="M13.3918, -5.13939 C13.4339, -5.87244 13.2063, -6.75518 12.7915, -7.52191  C12.5338, -8.00224 12.2072, -8.43576 11.8565, -8.76885  C11.6221, -8.99123 11.385, -9.16523 11.1452, -9.29084  C10.6728, -9.53938 10.2216, -9.56983 9.89601, -9.37964 " /><path d="M13.52, -4.13961 C13.9753, -4.39859 14.2548, -4.95529 14.2898, -5.65786 " /><path d="M13.2795, -5.07456 C13.3124, -5.66592 13.1734, -6.35446 12.8979, -7.00119  C12.6805, -7.51493 12.3792, -8.00057 12.0378, -8.39517  C11.7415, -8.73859 11.4158, -9.01304 11.096, -9.19186  C10.601, -9.47093 10.1238, -9.51373 9.78373, -9.31481 " /><path d="M9.78373, -9.31481 Q9.58329, -9.19874 9.45085, -8.98408 " /><path d="M12.9735, -3.91966 Q13.2089, -3.96013 13.4077, -4.07479 " /><path d="M13.4077, -4.07479 C13.863, -4.33376 14.1425, -4.89047 14.1776, -5.59304 " /><path d="M14.2898, -5.65786 C14.3319, -6.39091 14.1043, -7.27364 13.6896, -8.04037  C13.4318, -8.5207 13.1052, -8.95421 12.7545, -9.28731  C12.5202, -9.50968 12.2831, -9.68366 12.0433, -9.80927  C11.5708, -10.0579 11.1197, -10.0883 10.794, -9.89811 " /><path d="M14.418, -4.65809 C14.8733, -4.91706 15.1528, -5.47377 15.1879, -6.17634 " /><path d="M14.1776, -5.59304 C14.2106, -6.1878 14.0698, -6.88089 13.7912, -7.53085  C13.5724, -8.04459 13.2699, -8.52968 12.9277, -8.92314  C12.6319, -9.26406 12.3072, -9.53621 11.9886, -9.71333  C11.4956, -9.98975 11.0206, -10.0315 10.6818, -9.83329 " /><path d="M10.6818, -9.83329 Q10.4813, -9.71722 10.3489, -9.50255 " /><path d="M13.8715, -4.43814 Q14.1069, -4.47861 14.3058, -4.59327 " /><path d="M14.3058, -4.59327 C14.7611, -4.85224 15.0406, -5.40895 15.0756, -6.11152 " /><path d="M15.1879, -6.17634 C15.2299, -6.90938 15.0024, -7.79211 14.5876, -8.55884  C14.3299, -9.03917 14.0032, -9.47268 13.6526, -9.80577  C13.4182, -10.0281 13.1812, -10.2021 12.9414, -10.3277  C12.4689, -10.5763 12.0177, -10.6068 11.6921, -10.4166 " /><path d="M15.3161, -5.17656 C15.7714, -5.43554 16.0509, -5.99224 16.0859, -6.69481 " /><path d="M15.0756, -6.11152 C15.1086, -6.70511 14.9684, -7.39664 14.6909, -8.04549  C14.4727, -8.55872 14.1711, -9.04353 13.8295, -9.43717  C13.5319, -9.78112 13.2048, -10.0554 12.884, -10.2333  C12.3919, -10.5084 11.918, -10.5496 11.5798, -10.3518 " /><path d="M11.5798, -10.3518 Q11.3793, -10.2357 11.2469, -10.021 " /><path d="M14.7695, -4.95662 Q15.0049, -4.99708 15.2038, -5.11174 " /><path d="M15.2038, -5.11174 C15.6591, -5.37072 15.9386, -5.92743 15.9736, -6.62999 " /><path d="M16.0859, -6.69481 C16.1279, -7.42785 15.9004, -8.31057 15.4856, -9.0773  C15.2279, -9.55763 14.9013, -9.99114 14.5506, -10.3242  C14.3119, -10.5507 14.0704, -10.727 13.8263, -10.853  C13.3586, -11.0954 12.9127, -11.1235 12.5901, -10.9351 " /><path d="M16.2141, -5.69504 C16.6694, -5.95401 16.9489, -6.51072 16.9839, -7.21329 " /><path d="M15.9736, -6.62999 C16.0064, -7.22024 15.868, -7.9073 15.5936, -8.55298  C15.3741, -9.07244 15.069, -9.56332 14.7232, -9.96066  C14.4272, -10.3018 14.1022, -10.5741 13.7833, -10.7511  C13.2907, -11.0268 12.8163, -11.0682 12.4778, -10.8702 " /><path d="M12.4778, -10.8702 Q12.2774, -10.7542 12.1449, -10.5395 " /><path d="M15.6676, -5.47509 Q15.9029, -5.51556 16.1018, -5.63022 " /><path d="M16.1018, -5.63022 C16.5571, -5.88919 16.8366, -6.44591 16.8716, -7.14847 " /><path d="M16.9839, -7.21329 C17.026, -7.94632 16.7984, -8.82904 16.3836, -9.59577  C16.1259, -10.0761 15.7993, -10.5096 15.4486, -10.8427  C15.2143, -11.065 14.9773, -11.239 14.7375, -11.3646  C14.265, -11.6133 13.8138, -11.6438 13.4881, -11.4535 " /><path d="M17.1121, -6.21351 C17.5674, -6.47249 17.8469, -7.02919 17.8819, -7.73176 " /><path d="M16.8716, -7.14847 C16.9043, -7.73741 16.7667, -8.42273 16.4934, -9.06715  C16.2747, -9.58604 15.9705, -10.0766 15.6255, -10.4742  C15.3277, -10.8184 15.0003, -11.0929 14.6792, -11.2707  C14.1874, -11.5454 13.7138, -11.5864 13.3758, -11.3887 " /><path d="M13.3758, -11.3887 Q13.1754, -11.2726 13.043, -11.058 " /><path d="M16.5656, -5.99357 Q16.801, -6.03404 16.9999, -6.1487 " /><path d="M16.9999, -6.1487 C17.4552, -6.40767 17.7346, -6.96438 17.7697, -7.66695 " /><path d="M17.8819, -7.73176 C17.924, -8.4648 17.6964, -9.34753 17.2817, -10.1143  C17.0239, -10.5946 16.6973, -11.0281 16.3467, -11.3612  C16.1123, -11.5835 15.8753, -11.7575 15.6355, -11.8831  C15.163, -12.1318 14.7118, -12.1622 14.3861, -11.972 " /><path d="M14.3312, -11.9375 Q14.1381, -11.8058 14.016, -11.5761 " /><path d="M17.5069, -6.56675 Q17.7477, -6.59626 17.9532, -6.70103 " /><path d="M18.0101, -6.73199 C18.4654, -6.99096 18.7449, -7.54767 18.78, -8.25024 " /><path d="M17.7697, -7.66695 C17.8027, -8.26148 17.662, -8.95425 17.3836, -9.604  C17.1649, -10.1176 16.8626, -10.6027 16.5205, -10.9962  C16.2253, -11.3367 15.9012, -11.6087 15.583, -11.786  C15.0892, -12.0635 14.6132, -12.1057 14.2739, -11.9072 " /><path d="M14.2739, -11.9072 Q14.0734, -11.7911 13.941, -11.5765 " /><path d="M17.4636, -6.51205 Q17.699, -6.55251 17.8979, -6.66717 " /><path d="M17.8979, -6.66717 C18.3532, -6.92615 18.6327, -7.48286 18.6677, -8.18542 " /><path d="M18.78, -8.25024 C18.822, -8.98327 18.5945, -9.86598 18.1797, -10.6327  C17.922, -11.113 17.5954, -11.5465 17.2447, -11.8796  C17.0104, -12.1019 16.7734, -12.2759 16.5337, -12.4015  C16.0611, -12.6502 15.6099, -12.6807 15.2842, -12.4905 " /><path d="M18.9082, -7.25046 C19.3635, -7.50944 19.643, -8.06614 19.678, -8.76871 " /><path d="M18.6677, -8.18542 C18.7004, -8.77458 18.5626, -9.46019 18.2892, -10.1048  C18.0699, -10.625 17.7646, -11.1166 17.4186, -11.5146  C17.1233, -11.8551 16.7992, -12.1271 16.4811, -12.3044  C15.9872, -12.582 15.5112, -12.6242 15.1719, -12.4257 " /><path d="M15.1719, -12.4257 Q14.9715, -12.3096 14.839, -12.0949 " /><path d="M18.3616, -7.03052 Q18.597, -7.07099 18.7959, -7.18565 " /><path d="M18.7959, -7.18565 C19.2512, -7.44463 19.5307, -8.00133 19.5657, -8.7039 " /><path d="M18.0355 -12.3285 A3.175 1.83309 60 0 1 19.4257 -10.3596" />
<path d="M19.678, -8.76871 C19.7048, -9.25873 19.6151, -9.81517 19.4257, -10.3596 " /><path d="M19.5657, -8.7039 C19.5986, -9.29579 19.4593, -9.98504 19.1834, -10.6323  C18.9066, -11.2868 18.4925, -11.8938 18.0355, -12.3285 " /><path d="M19.7566, -9.33178 Q19.7564, -9.0014 19.6754, -8.7261 " /><path d="M15.8777, -12.6089 C16.0689, -12.8494 16.3481, -12.9733 16.6748, -12.9637  C16.9394, -12.9567 17.2345, -12.8628 17.5328, -12.6903 " /><path d="M17.5328, -12.6903 Q17.7863, -12.5439 18.0355, -12.3285 " /><path id= "136" d=" M 19.7566 -9.33178 L 19.7566 -9.33256 " />
<path d="M19.4257, -10.3596 C19.1834, -11.0201 18.8158, -11.6235 18.4223, -12.0395  C18.2312, -12.2414 18.0427, -12.396 17.8568, -12.5033 " /><path d="M18.7183, -11.6844 C18.9474, -11.4154 19.1521, -11.1033 19.313, -10.7798  C19.5013, -10.407 19.6256, -10.0116 19.6979, -9.68418 " /><path d="M19.7566, -9.33178 L19.7565, -9.34789 " /><path d="M19.7565, -9.34789 Q19.7371, -9.51313 19.6979, -9.68418 " /><path d="M19.7565 -9.34789 A2.54 1.46647 60 0 1 19.7566 -9.33256" />
</g>

</svg>
