<svg xmlns="http://www.w3.org/2000/svg" viewBox="-8.807704 -7.296404000000001 36.741608 14.592808000000002">
<rect width="100%" height="100%" fill="white"/>
<g   fill="none"
   stroke="rgb(0, 0, 0)"
   stroke-linecap="butt"
   stroke-linejoin="miter"
   stroke-width="0.35"
   transform="scale(1, -1)"
  >
<path d="M-5.6388, -4.7625 C-5.71781, -4.76237 -5.79418, -4.74811 -5.86791, -4.71973  C-6.1081, -4.63042 -6.27717, -4.38373 -6.2738, -4.1275 " /><path id= "2" d=" M -5.6388 -4.7625 L -0.238125 -4.7625 " />
<path id= "3" d=" M 1.07001e-13 -4.52438 L -0.238125 -4.7625 " />
<path d="M0.3175, -3.175 C0.147844, -3.17063 -0.0043749, -3.32284 0, -3.4925 " /><path id= "5" d=" M 0.3175 -3.175 L 1.15888 -3.175 " />
<path d="M1.21416, 2.46688 Q1.20662, 2.45146 1.17824, 2.42822  Q1.13638, 2.39713 1.07956, 2.39601 " /><path d="M1.61415, 3.15582 L1.21416, 2.46688 " /><path id= "8" d=" M 2.27006 -3.175 L 2.42888 -3.175 " />
<path d="M0.949064, 2.46339 L0.546082, 3.15588 " /><path d="M1.58407, -2.46338 L1.18108, -3.15588 " /><path d="M1.84505, -2.46339 Q1.83884, -2.44993 1.81009, -2.42658  Q1.76958, -2.3971 1.71453, -2.396  Q1.65536, -2.39748 1.61395, -2.43041  Q1.58952, -2.45176 1.58407, -2.46338 " /><path d="M2.48005, 2.46339 Q2.47383, 2.44993 2.44509, 2.42658  Q2.40458, 2.39711 2.34955, 2.396 " /><path d="M1.07955, 2.39601 Q1.02038, 2.39748 0.978968, 2.43041  Q0.954523, 2.45176 0.949064, 2.46339 " /><path d="M2.24786, -3.15586 L1.84505, -2.46339 " /><path d="M2.88285, 3.15586 L2.48005, 2.46339 " /><path id= "16" d=" M 3.54006 -3.175 L 3.69888 -3.175 " />
<path d="M2.21906, 2.46338 L1.81608, 3.15588 " /><path d="M2.85406, -2.46337 L2.45108, -3.15588 " /><path d="M3.11504, -2.46338 Q3.10883, -2.44993 3.08009, -2.42657  Q3.03957, -2.3971 2.98453, -2.396  Q2.92536, -2.39748 2.88395, -2.43041  Q2.85952, -2.45176 2.85406, -2.46337 " /><path d="M3.75004, 2.46339 Q3.74383, 2.44993 3.71508, 2.42658  Q3.67458, 2.39711 3.61955, 2.396 " /><path d="M2.34955, 2.396 Q2.29038, 2.39748 2.24897, 2.4304  Q2.22452, 2.45176 2.21906, 2.46338 " /><path d="M3.51786, -3.15586 L3.11504, -2.46338 " /><path d="M4.15285, 3.15586 L3.75004, 2.46339 " /><path id= "24" d=" M 4.81007 -3.175 L 4.96888 -3.175 " />
<path d="M3.48906, 2.46338 L3.08608, 3.15588 " /><path d="M4.12406, -2.46337 L3.72108, -3.15588 " /><path d="M4.38504, -2.46338 Q4.37883, -2.44992 4.35008, -2.42657  Q4.30957, -2.39709 4.25452, -2.39599  Q4.19535, -2.39748 4.15395, -2.4304  Q4.12951, -2.45175 4.12406, -2.46337 " /><path d="M5.02004, 2.46338 Q5.01383, 2.44992 4.98508, 2.42657  Q4.94458, 2.3971 4.88954, 2.396 " /><path d="M3.61955, 2.396 Q3.56038, 2.39748 3.51896, 2.4304  Q3.49452, 2.45175 3.48906, 2.46338 " /><path d="M4.78786, -3.15587 L4.38504, -2.46338 " /><path d="M5.42286, 3.15586 L5.02004, 2.46338 " /><path id= "32" d=" M 6.08007 -3.175 L 6.23888 -3.175 " />
<path d="M4.75906, 2.46338 L4.35608, 3.15588 " /><path d="M5.39406, -2.46337 L4.99108, -3.15588 " /><path d="M5.65504, -2.46337 Q5.64883, -2.44992 5.62008, -2.42656  Q5.57957, -2.39709 5.52452, -2.39599  Q5.46535, -2.39748 5.42394, -2.4304  Q5.39951, -2.45175 5.39406, -2.46337 " /><path d="M6.29004, 2.46338 Q6.28382, 2.44992 6.25508, 2.42657  Q6.21457, 2.3971 6.15954, 2.39599 " /><path d="M4.88954, 2.396 Q4.83037, 2.39747 4.78896, 2.4304  Q4.76451, 2.45175 4.75906, 2.46338 " /><path d="M6.05787, -3.15587 L5.65504, -2.46337 " /><path d="M6.69286, 3.15586 L6.29004, 2.46338 " /><path id= "40" d=" M 7.35007 -3.175 L 7.50888 -3.175 " />
<path d="M6.02905, 2.46337 L5.62608, 3.15588 " /><path d="M6.66405, -2.46336 L6.26108, -3.15588 " /><path d="M6.92503, -2.46337 Q6.91882, -2.44991 6.89008, -2.42656  Q6.84956, -2.39708 6.79452, -2.39599  Q6.73535, -2.39747 6.69394, -2.4304  Q6.66951, -2.45175 6.66405, -2.46336 " /><path d="M7.56003, 2.46338 Q7.55382, 2.44992 7.52507, 2.42656  Q7.48457, 2.39709 7.42954, 2.39599 " /><path d="M6.15954, 2.39599 Q6.10037, 2.39747 6.05896, 2.43039  Q6.03451, 2.45175 6.02905, 2.46337 " /><path d="M7.32787, -3.15587 L6.92503, -2.46337 " /><path d="M7.96286, 3.15586 L7.56003, 2.46338 " /><path id= "48" d=" M 8.62008 -3.175 L 8.77888 -3.175 " />
<path d="M7.29905, 2.46337 L6.89608, 3.15588 " /><path d="M7.93405, -2.46336 L7.53108, -3.15588 " /><path d="M8.19503, -2.46337 Q8.18882, -2.44991 8.16007, -2.42656  Q8.11956, -2.39708 8.06451, -2.39598  Q8.00534, -2.39747 7.96394, -2.4304  Q7.93951, -2.45174 7.93405, -2.46336 " /><path d="M8.83003, 2.46337 Q8.82382, 2.44991 8.79507, 2.42656  Q8.75457, 2.39709 8.69953, 2.39599 " /><path d="M7.42954, 2.39599 Q7.37037, 2.39747 7.32895, 2.43039  Q7.30451, 2.45174 7.29905, 2.46337 " /><path d="M8.59788, -3.15587 L8.19503, -2.46337 " /><path d="M9.23287, 3.15586 L8.83003, 2.46337 " /><path id= "56" d=" M 9.89008 -3.175 L 10.0489 -3.175 " />
<path d="M8.56905, 2.46337 L8.16608, 3.15588 " /><path d="M9.20405, -2.46336 L8.80108, -3.15588 " /><path d="M9.46503, -2.46336 Q9.45882, -2.4499 9.43007, -2.42655  Q9.38956, -2.39708 9.33451, -2.39598  Q9.27534, -2.39747 9.23393, -2.43039  Q9.2095, -2.45174 9.20405, -2.46336 " /><path d="M10.1, 2.46337 Q10.0938, 2.44991 10.0651, 2.42656  Q10.0246, 2.39709 9.96953, 2.39598 " /><path d="M8.69953, 2.39599 Q8.64036, 2.39746 8.59895, 2.43039  Q8.5745, 2.45174 8.56905, 2.46337 " /><path d="M9.86788, -3.15587 L9.46503, -2.46336 " /><path d="M10.5029, 3.15586 L10.1, 2.46337 " /><path id= "64" d=" M 11.1601 -3.175 L 11.3189 -3.175 " />
<path d="M9.83904, 2.46336 L9.43608, 3.15587 " /><path d="M10.474, -2.46335 L10.0711, -3.15588 " /><path d="M10.735, -2.46336 Q10.7288, -2.4499 10.7001, -2.42655  Q10.6596, -2.39707 10.6045, -2.39598  Q10.5453, -2.39746 10.5039, -2.43039  Q10.4795, -2.45174 10.474, -2.46335 " /><path d="M11.37, 2.46336 Q11.3638, 2.4499 11.3351, 2.42655  Q11.2946, 2.39708 11.2395, 2.39598 " /><path d="M9.96953, 2.39598 Q9.91036, 2.39746 9.86895, 2.43038  Q9.8445, 2.45174 9.83904, 2.46336 " /><path d="M11.1379, -3.15587 L10.735, -2.46336 " /><path d="M11.7729, 3.15586 L11.37, 2.46336 " /><path id= "72" d=" M 12.4301 -3.175 L 12.5889 -3.175 " />
<path d="M11.109, 2.46336 L10.7061, 3.15587 " /><path d="M11.744, -2.46335 L11.3411, -3.15588 " /><path d="M12.005, -2.46336 Q11.9988, -2.4499 11.9701, -2.42654  Q11.9295, -2.39707 11.8745, -2.39597  Q11.8153, -2.39746 11.7739, -2.43039  Q11.7495, -2.45173 11.744, -2.46335 " /><path d="M12.64, 2.46336 Q12.6338, 2.4499 12.6051, 2.42655  Q12.5646, 2.39708 12.5095, 2.39598 " /><path d="M11.2395, 2.39598 Q11.1804, 2.39746 11.1389, 2.43038  Q11.1145, 2.45174 11.109, 2.46336 " /><path d="M12.4079, -3.15587 L12.005, -2.46336 " /><path d="M13.0429, 3.15586 L12.64, 2.46336 " /><path id= "80" d=" M 13.7001 -3.175 L 13.8589 -3.175 " />
<path d="M12.379, 2.46336 L11.9761, 3.15587 " /><path d="M13.014, -2.46335 L12.6111, -3.15588 " /><path d="M13.275, -2.46335 Q13.2688, -2.44989 13.2401, -2.42654  Q13.1995, -2.39707 13.1445, -2.39597  Q13.0853, -2.39746 13.0439, -2.43038  Q13.0195, -2.45173 13.014, -2.46335 " /><path d="M13.91, 2.46336 Q13.9038, 2.4499 13.8751, 2.42654  Q13.8346, 2.39708 13.7795, 2.39597 " /><path d="M12.5095, 2.39598 Q12.4504, 2.39745 12.4089, 2.43038  Q12.3845, 2.45173 12.379, 2.46336 " /><path d="M13.6779, -3.15587 L13.275, -2.46335 " /><path d="M14.3129, 3.15586 L13.91, 2.46336 " /><path id= "88" d=" M 14.9701 -3.175 L 15.1289 -3.175 " />
<path d="M13.649, 2.46335 L13.2461, 3.15587 " /><path d="M14.284, -2.46334 L13.8811, -3.15588 " /><path d="M14.545, -2.46335 Q14.5388, -2.44989 14.5101, -2.42654  Q14.4695, -2.39706 14.4145, -2.39597  Q14.3553, -2.39745 14.3139, -2.43038  Q14.2895, -2.45173 14.284, -2.46334 " /><path d="M15.18, 2.46335 Q15.1738, 2.44989 15.1451, 2.42654  Q15.1045, 2.39707 15.0495, 2.39597 " /><path d="M13.7795, 2.39597 Q13.7204, 2.39745 13.6789, 2.43037  Q13.6545, 2.45173 13.649, 2.46335 " /><path d="M14.9479, -3.15587 L14.545, -2.46335 " /><path d="M15.5829, 3.15586 L15.18, 2.46335 " /><path id= "96" d=" M 16.2401 -3.175 L 16.3989 -3.175 " />
<path d="M14.919, 2.46335 L14.5161, 3.15587 " /><path d="M15.554, -2.46334 L15.1511, -3.15588 " /><path d="M15.815, -2.46334 Q15.8088, -2.44988 15.7801, -2.42653  Q15.7395, -2.39706 15.6845, -2.39596  Q15.6253, -2.39745 15.5839, -2.43038  Q15.5595, -2.45173 15.554, -2.46334 " /><path d="M16.45, 2.46335 Q16.4438, 2.44989 16.4151, 2.42654  Q16.3745, 2.39707 16.3195, 2.39597 " /><path d="M15.0495, 2.39597 Q14.9903, 2.39745 14.9489, 2.43037  Q14.9245, 2.45173 14.919, 2.46335 " /><path d="M16.2179, -3.15587 L15.815, -2.46334 " /><path d="M16.8529, 3.15586 L16.45, 2.46335 " /><path id= "104" d=" M 17.5101 -3.175 L 17.6689 -3.175 " />
<path d="M16.189, 2.46335 L15.7861, 3.15587 " /><path d="M16.824, -2.46334 L16.4211, -3.15587 " /><path d="M17.085, -2.46334 Q17.0788, -2.44988 17.0501, -2.42653  Q17.0095, -2.39705 16.9545, -2.39596  Q16.8953, -2.39745 16.8539, -2.43037  Q16.8295, -2.45172 16.824, -2.46334 " /><path d="M17.72, 2.46335 Q17.7138, 2.44988 17.685, 2.42653  Q17.6445, 2.39707 17.5895, 2.39596 " /><path d="M16.3195, 2.39597 Q16.2603, 2.39744 16.2189, 2.43037  Q16.1945, 2.45172 16.189, 2.46335 " /><path d="M17.4879, -3.15587 L17.085, -2.46334 " /><path d="M18.1229, 3.15586 L17.72, 2.46335 " /><path id= "112" d=" M 18.7801 -3.175 L 18.9389 -3.175 " />
<path d="M17.459, 2.46334 L17.0561, 3.15587 " /><path d="M18.094, -2.46333 L17.6911, -3.15587 " /><path d="M18.355, -2.46334 Q18.3488, -2.44988 18.32, -2.42653  Q18.2795, -2.39705 18.2245, -2.39596  Q18.1653, -2.39744 18.1239, -2.43037  Q18.0995, -2.45172 18.094, -2.46333 " /><path d="M18.99, 2.46334 Q18.9838, 2.44988 18.955, 2.42653  Q18.9145, 2.39706 18.8595, 2.39596 " /><path d="M17.5895, 2.39596 Q17.5303, 2.39744 17.4889, 2.43036  Q17.4645, 2.45172 17.459, 2.46334 " /><path d="M18.7579, -3.15587 L18.355, -2.46334 " /><path d="M19.3929, 3.15586 L18.99, 2.46334 " /><path id= "120" d=" M 20.0501 -3.175 L 20.2089 -3.175 " />
<path d="M18.729, 2.46334 L18.3261, 3.15587 " /><path d="M19.364, -2.46333 L18.9611, -3.15587 " /><path d="M19.625, -2.46333 Q19.6188, -2.44987 19.59, -2.42652  Q19.5495, -2.39705 19.4945, -2.39595  Q19.4353, -2.39744 19.3939, -2.43037  Q19.3695, -2.45172 19.364, -2.46333 " /><path d="M20.26, 2.46334 Q20.2538, 2.44987 20.225, 2.42652  Q20.1845, 2.39706 20.1295, 2.39596 " /><path d="M18.8595, 2.39596 Q18.8003, 2.39744 18.7589, 2.43036  Q18.7345, 2.45172 18.729, 2.46334 " /><path d="M20.0279, -3.15587 L19.625, -2.46333 " /><path d="M20.6629, 3.15586 L20.26, 2.46334 " /><path id= "128" d=" M 21.3201 -3.175 L 21.4789 -3.175 " />
<path d="M19.999, 2.46334 L19.5961, 3.15587 " /><path d="M20.634, -2.46333 L20.2311, -3.15587 " /><path d="M20.895, -2.46333 Q20.8888, -2.44987 20.86, -2.42652  Q20.8195, -2.39704 20.7645, -2.39595  Q20.7053, -2.39744 20.6639, -2.43036  Q20.6395, -2.45171 20.634, -2.46333 " /><path d="M21.53, 2.46333 Q21.5238, 2.44987 21.495, 2.42652  Q21.4545, 2.39706 21.3995, 2.39595 " /><path d="M20.1295, 2.39596 Q20.0703, 2.39743 20.0289, 2.43036  Q20.0045, 2.45171 19.999, 2.46334 " /><path d="M21.2979, -3.15587 L20.895, -2.46333 " /><path d="M21.9329, 3.15586 L21.53, 2.46333 " /><path id= "136" d=" M 22.5901 -3.175 L 22.7489 -3.175 " />
<path d="M21.269, 2.46333 L20.8661, 3.15587 " /><path d="M21.904, -2.46332 L21.5011, -3.15587 " /><path d="M22.165, -2.46333 Q22.1588, -2.44986 22.13, -2.42651  Q22.0895, -2.39704 22.0345, -2.39595  Q21.9753, -2.39743 21.9339, -2.43036  Q21.9095, -2.45171 21.904, -2.46332 " /><path d="M22.8, 2.46333 Q22.7938, 2.44987 22.765, 2.42652  Q22.7245, 2.39705 22.6695, 2.39595 " /><path d="M21.3995, 2.39595 Q21.3403, 2.39743 21.2989, 2.43035  Q21.2745, 2.45171 21.269, 2.46333 " /><path d="M22.5679, -3.15587 L22.165, -2.46333 " /><path d="M23.2029, 3.15586 L22.8, 2.46333 " /><path id= "144" d=" M 23.8601 -3.175 L 24.0189 -3.175 " />
<path d="M22.539, 2.46333 L22.1361, 3.15587 " /><path d="M23.174, -2.46332 L22.7711, -3.15587 " /><path d="M23.435, -2.46332 Q23.4288, -2.44986 23.4, -2.42651  Q23.3595, -2.39704 23.3045, -2.39594  Q23.2453, -2.39743 23.2039, -2.43036  Q23.1795, -2.45171 23.174, -2.46332 " /><path d="M24.07, 2.46333 Q24.0638, 2.44986 24.035, 2.42651  Q23.9945, 2.39705 23.9395, 2.39594 " /><path d="M22.6695, 2.39595 Q22.6103, 2.39743 22.5689, 2.43035  Q22.5445, 2.45171 22.539, 2.46333 " /><path d="M23.8379, -3.15587 L23.435, -2.46332 " /><path d="M24.4729, 3.15586 L24.07, 2.46333 " /><path d="M23.809, 2.46333 L23.4061, 3.15587 " /><path d="M24.444, -2.46332 L24.0411, -3.15587 " /><path d="M24.705, -2.46332 Q24.6988, -2.44986 24.67, -2.42651  Q24.6295, -2.39703 24.5745, -2.39594  Q24.5153, -2.39743 24.4739, -2.43036  Q24.4495, -2.45171 24.444, -2.46332 " /><path d="M25.34, 2.46332 Q25.3338, 2.44986 25.305, 2.42651  Q25.2645, 2.39704 25.2095, 2.39594 " /><path d="M23.9395, 2.39594 Q23.8803, 2.39742 23.8389, 2.43035  Q23.8145, 2.4517 23.809, 2.46333 " /><path d="M24.705, -2.46332 L24.9814, -2.93811 " /><path d="M25.34, 2.46332 L25.3816, 2.53475 " /><path id= "159" d=" M 25.4 -2.54 L 24.9965 -2.94352 " />
<path d="M25.079, 2.46332 L24.6761, 3.15587 " /><path d="M25.2095, 2.39594 Q25.1503, 2.39742 25.1089, 2.43034  Q25.0845, 2.4517 25.079, 2.46332 " /></g>
<g   fill="none"
   stroke="rgb(0, 0, 0)"
   stroke-linecap="butt"
   stroke-linejoin="miter"
   stroke-width="0.35"
   transform="scale(1, -1)"
  >
<path d="M-6.2738, -4.1275 L-6.2738, -4.02401  L-6.2738, -3.71875  L-6.2738, -3.22701  L-6.2738, -2.57345  L-6.2738, -1.79086  L-6.2738, -0.918455  L-6.2738, -7.77156e-16  L-6.2738, 0.918455  L-6.2738, 1.79086  L-6.2738, 2.57345  L-6.2738, 3.22701  L-6.2738, 3.71875  L-6.2738, 4.02401  L-6.2738, 4.1275 " /><path d="M-6.2738 4.1275 A0.635 0.635 0 0 0 -5.6388 4.7625" /><path id= "3" d=" M -5.6388 4.7625 L -0.238125 4.7625 " />
<path d="M-0.238125, -4.7625 L-0.238125, -4.64309  L-0.238125, -4.29086  L-0.238125, -3.72347  L-0.238125, -2.96937  L-0.238125, -2.06637  L-0.238125, -1.05976  L-0.238125, -8.88178e-16  L-0.238125, 1.05976  L-0.238125, 2.06637  L-0.238125, 2.96937  L-0.238125, 3.72347  L-0.238125, 4.29086  L-0.238125, 4.64309  L-0.238125, 4.7625 " /><path id= "5" d=" M -0.238125 4.7625 L 7.70146e-17 4.52438 " />
<path d="M0, -4.52438 L0, -4.41094  L0, -4.07632  L0, -3.5373  L0, -2.8209  L0, -1.96305  L0, -1.00677  L0, -8.88178e-16  L0, 1.00677  L0, 1.96305  L0, 2.8209  L0, 3.5373  L0, 4.07632  L0, 4.41094  L0, 4.52438 " /><path d="M0 3.4925 A0.3175 0.3175 0 0 1 0.3175 3.175" /><path d="M1.61415, 3.15582 Q1.62526, 3.17499 1.63506, 3.175 " /><path id= "9" d=" M 1.63506 3.175 L 1.79389 3.175 " />
<path d="M0.523886, 3.175 Q0.534984, 3.17499 0.546082, 3.15588 " /><path d="M0.546082, 3.15588 C0.594118, 3.07542 0.642146, 2.71487 0.690181, 2.15969  C0.747862, 1.49746 0.805543, 0.559671 0.863219, -0.342294  C0.907481, -1.03417 0.951745, -1.69798 0.996008, -2.19874  C1.0503, -2.8175 1.10459, -3.17872 1.15888, -3.175 " /><path d="M1.15888, -3.175 Q1.16998, -3.17499 1.18108, -3.15588 " /><path id= "13" d=" M 0.3175 3.175 L 0.523886 3.175 " />
<path d="M1.23831, 2.48768 C1.20669, 2.43173 1.14383, 2.39543 1.07956, 2.39601 " /><path d="M1.07956, 2.39601 L1.07955, 2.39601 " /><path d="M1.63506, 3.175 L1.23831, 2.48768 " /><path id= "17" d=" M 2.90506 3.175 L 3.06388 3.175 " />
<path d="M1.79389, 3.175 Q1.80498, 3.17499 1.81608, 3.15588 " /><path d="M1.81608, 3.15588 C1.86412, 3.07542 1.91215, 2.71487 1.96018, 2.1597  C2.01786, 1.49748 2.07554, 0.559724 2.13321, -0.342224  C2.1774, -1.03284 2.22158, -1.69551 2.26576, -2.19594  C2.32014, -2.81638 2.37451, -3.17874 2.42888, -3.175 " /><path d="M2.42888, -3.175 Q2.43998, -3.17499 2.45108, -3.15588 " /><path d="M1.63506, 3.175 C1.68013, 3.17681 1.72521, 2.93146 1.77028, 2.49059  C1.83629, 1.85155 1.9023, 0.78941 1.9683, -0.247097  C2.01186, -0.929758 2.05541, -1.59227 2.09897, -2.10395  C2.1486, -2.69015 2.19823, -3.07294 2.24786, -3.15586 " /><path d="M2.24786, -3.15586 Q2.25896, -3.17499 2.27006, -3.175 " /><path d="M2.88285, 3.15586 Q2.89395, 3.17499 2.90506, 3.175 " /><path id= "24" d=" M 4.17506 3.175 L 4.33388 3.175 " />
<path d="M3.06388, 3.175 Q3.07498, 3.17499 3.08608, 3.15588 " /><path d="M3.08608, 3.15588 C3.13412, 3.07542 3.18214, 2.71487 3.23018, 2.15971  C3.28786, 1.4975 3.34554, 0.559771 3.40321, -0.34216  C3.44805, -1.04315 3.4929, -1.71522 3.53774, -2.2183  C3.59146, -2.82534 3.64517, -3.17857 3.69888, -3.175 " /><path d="M3.69888, -3.175 Q3.70998, -3.17499 3.72108, -3.15588 " /><path d="M2.90506, 3.175 C2.95009, 3.1768 2.99513, 2.9319 3.04017, 2.49175  C3.10658, 1.84933 3.17299, 0.778202 3.2394, -0.264227  C3.28243, -0.938366 3.32546, -1.59172 3.3685, -2.09832  C3.41828, -2.68765 3.46808, -3.07269 3.51786, -3.15586 " /><path d="M3.51786, -3.15586 Q3.52896, -3.17499 3.54006, -3.175 " /><path d="M4.15285, 3.15586 Q4.16396, 3.17499 4.17506, 3.175 " /><path id= "31" d=" M 5.44507 3.175 L 5.60388 3.175 " />
<path d="M4.33388, 3.175 Q4.34498, 3.17499 4.35608, 3.15588 " /><path d="M4.35608, 3.15588 C4.40412, 3.07542 4.45214, 2.71487 4.50018, 2.15971  C4.55785, 1.49753 4.61553, 0.559829 4.6732, -0.342081  C4.71841, -1.04874 4.76361, -1.72594 4.80882, -2.23039  C4.86217, -2.83018 4.91553, -3.17848 4.96888, -3.175 " /><path d="M4.96888, -3.175 Q4.97998, -3.17499 4.99108, -3.15588 " /><path d="M4.17506, 3.175 C4.22005, 3.1768 4.26505, 2.93238 4.31004, 2.493  C4.37638, 1.85185 4.44271, 0.782789 4.50904, -0.258585  C4.55179, -0.928287 4.59453, -1.57793 4.63727, -2.08383  C4.68747, -2.6812 4.73767, -3.07207 4.78786, -3.15587 " /><path d="M4.78786, -3.15587 Q4.79896, -3.17499 4.81007, -3.175 " /><path d="M5.42286, 3.15586 Q5.43396, 3.17499 5.44507, 3.175 " /><path id= "38" d=" M 6.71507 3.175 L 6.87388 3.175 " />
<path d="M5.60388, 3.175 Q5.61498, 3.17499 5.62608, 3.15588 " /><path d="M5.62608, 3.15588 C5.67412, 3.07542 5.72214, 2.71488 5.77018, 2.15972  C5.82785, 1.49755 5.88553, 0.559874 5.9432, -0.342021  C5.98827, -1.04662 6.03335, -1.72195 6.07842, -2.22592  C6.13191, -2.82839 6.18539, -3.17851 6.23888, -3.175 " /><path d="M6.23888, -3.175 Q6.24998, -3.17499 6.26108, -3.15588 " /><path d="M5.44507, 3.175 C5.49001, 3.17679 5.53496, 2.93288 5.57991, 2.49431  C5.64611, 1.85502 5.7123, 0.789427 5.7785, -0.250006  C5.82143, -0.922817 5.86436, -1.57596 5.90729, -2.08405  C5.95748, -2.6813 6.00768, -3.07208 6.05787, -3.15587 " /><path d="M6.05787, -3.15587 Q6.06897, -3.17499 6.08007, -3.175 " /><path d="M6.69286, 3.15586 Q6.70397, 3.17499 6.71507, 3.175 " /><path id= "45" d=" M 7.98507 3.175 L 8.14388 3.175 " />
<path d="M6.87388, 3.175 Q6.88498, 3.17499 6.89608, 3.15588 " /><path d="M6.89608, 3.15588 C6.94412, 3.07542 6.99214, 2.71488 7.04018, 2.15973  C7.09785, 1.49757 7.15553, 0.559908 7.2132, -0.341976  C7.25812, -1.04431 7.30305, -1.7176 7.34798, -2.22104  C7.40162, -2.82644 7.45525, -3.17855 7.50888, -3.175 " /><path d="M7.50888, -3.175 Q7.51998, -3.17499 7.53108, -3.15588 " /><path d="M6.71507, 3.175 C6.75997, 3.17678 6.80487, 2.93341 6.84977, 2.49573  C6.91604, 1.85633 6.98231, 0.789396 7.04858, -0.251168  C7.09148, -0.923509 7.13438, -1.57613 7.17729, -2.08391  C7.22748, -2.68124 7.27768, -3.07208 7.32787, -3.15587 " /><path d="M7.32787, -3.15587 Q7.33897, -3.17499 7.35007, -3.175 " /><path d="M7.96286, 3.15586 Q7.97397, 3.17499 7.98507, 3.175 " /><path id= "52" d=" M 9.25508 3.175 L 9.41388 3.175 " />
<path d="M8.14388, 3.175 Q8.15498, 3.17499 8.16608, 3.15588 " /><path d="M8.16608, 3.15588 C8.21411, 3.07542 8.26214, 2.71488 8.31017, 2.15973  C8.36785, 1.4976 8.42552, 0.559976 8.48319, -0.341884  C8.52798, -1.04207 8.57277, -1.71343 8.61757, -2.21636  C8.67134, -2.82457 8.72511, -3.17859 8.77888, -3.175 " /><path d="M8.77888, -3.175 Q8.78998, -3.17499 8.80108, -3.15588 " /><path d="M7.98507, 3.175 C8.02991, 3.17677 8.07475, 2.93409 8.11959, 2.4975  C8.18605, 1.85705 8.25251, 0.786157 8.31897, -0.25726  C8.36229, -0.935996 8.4056, -1.59412 8.44892, -2.10315  C8.49857, -2.6898 8.54823, -3.07291 8.59788, -3.15587 " /><path d="M8.59788, -3.15587 Q8.60898, -3.17499 8.62008, -3.175 " /><path d="M9.23287, 3.15586 Q9.24397, 3.17499 9.25508, 3.175 " /><path id= "59" d=" M 10.5251 3.175 L 10.6839 3.175 " />
<path d="M9.41388, 3.175 Q9.42498, 3.17499 9.43608, 3.15587 " /><path d="M9.43608, 3.15587 C9.48411, 3.07542 9.53214, 2.71488 9.58017, 2.15974  C9.63785, 1.49762 9.69552, 0.560019 9.75319, -0.341827  C9.79839, -1.04856 9.8436, -1.72584 9.88881, -2.23034  C9.94217, -2.83016 9.99552, -3.17848 10.0489, -3.175 " /><path d="M10.0489, -3.175 Q10.06, -3.17499 10.0711, -3.15588 " /><path d="M9.25508, 3.175 C9.29986, 3.17676 9.34465, 2.93467 9.38943, 2.49905  C9.45608, 1.85743 9.52274, 0.78249 9.58939, -0.263784  C9.63241, -0.937689 9.67542, -1.59086 9.71844, -2.09745  C9.76825, -2.68726 9.81807, -3.07266 9.86788, -3.15587 " /><path d="M9.86788, -3.15587 Q9.87898, -3.17499 9.89008, -3.175 " /><path d="M10.5029, 3.15586 Q10.514, 3.17499 10.5251, 3.175 " /><path id= "66" d=" M 11.7951 3.175 L 11.9539 3.175 " />
<path d="M10.6839, 3.175 Q10.695, 3.17499 10.7061, 3.15587 " /><path d="M10.7061, 3.15587 C10.7541, 3.07542 10.8021, 2.71489 10.8502, 2.15975  C10.9078, 1.49766 10.9655, 0.560117 11.0232, -0.341694  C11.0681, -1.04327 11.1129, -1.7159 11.1578, -2.21919  C11.2115, -2.8257 11.2652, -3.17856 11.3189, -3.175 " /><path d="M11.3189, -3.175 Q11.33, -3.17499 11.3411, -3.15588 " /><path d="M10.5251, 3.175 C10.5698, 3.17675 10.6145, 2.93551 10.6592, 2.50127  C10.7256, 1.863 10.792, 0.794444 10.8584, -0.24824  C10.9019, -0.929869 10.9454, -1.59134 10.9889, -2.10253  C11.0385, -2.68953 11.0882, -3.07288 11.1379, -3.15587 " /><path d="M11.1379, -3.15587 Q11.149, -3.17499 11.1601, -3.175 " /><path d="M11.7729, 3.15586 Q11.784, 3.17499 11.7951, 3.175 " /><path id= "73" d=" M 13.0651 3.175 L 13.2239 3.175 " />
<path d="M11.9539, 3.175 Q11.965, 3.17499 11.9761, 3.15587 " /><path d="M11.9761, 3.15587 C12.0241, 3.07542 12.0721, 2.71489 12.1202, 2.15976  C12.1778, 1.49768 12.2355, 0.560169 12.2932, -0.341625  C12.3382, -1.04488 12.3831, -1.71904 12.4281, -2.22275  C12.4817, -2.82712 12.5353, -3.17854 12.5889, -3.175 " /><path d="M12.5889, -3.175 Q12.6, -3.17499 12.6111, -3.15588 " /><path d="M11.7951, 3.175 C11.8397, 3.17675 11.8844, 2.93597 11.9291, 2.50249  C11.9959, 1.86125 12.0626, 0.784525 12.1294, -0.263561  C12.1724, -0.937342 12.2154, -1.59041 12.2584, -2.09699  C12.3082, -2.68706 12.3581, -3.07265 12.4079, -3.15587 " /><path d="M12.4079, -3.15587 Q12.419, -3.17499 12.4301, -3.175 " /><path d="M13.0429, 3.15586 Q13.054, 3.17499 13.0651, 3.175 " /><path id= "80" d=" M 14.3351 3.175 L 14.4939 3.175 " />
<path d="M13.2239, 3.175 Q13.235, 3.17499 13.2461, 3.15587 " /><path d="M13.2461, 3.15587 C13.2941, 3.07542 13.3421, 2.71489 13.3902, 2.15977  C13.4478, 1.49771 13.5055, 0.56023 13.5632, -0.341542  C13.6083, -1.04686 13.6534, -1.72288 13.6985, -2.22709  C13.752, -2.82886 13.8054, -3.1785 13.8589, -3.175 " /><path d="M13.8589, -3.175 Q13.87, -3.17499 13.8811, -3.15588 " /><path d="M13.0651, 3.175 C13.1097, 3.17673 13.1542, 2.93695 13.1988, 2.50508  C13.2657, 1.8642 13.3325, 0.786262 13.3994, -0.263102  C13.4423, -0.936613 13.4853, -1.58947 13.5283, -2.09602  C13.5782, -2.68663 13.628, -3.07261 13.6779, -3.15587 " /><path d="M13.6779, -3.15587 Q13.689, -3.17499 13.7001, -3.175 " /><path d="M14.3129, 3.15586 Q14.324, 3.17499 14.3351, 3.175 " /><path id= "87" d=" M 15.6051 3.175 L 15.7639 3.175 " />
<path d="M14.4939, 3.175 Q14.505, 3.17499 14.5161, 3.15587 " /><path d="M14.5161, 3.15587 C14.5641, 3.07541 14.6121, 2.71489 14.6602, 2.15978  C14.7178, 1.49773 14.7755, 0.560266 14.8332, -0.341494  C14.8806, -1.08317 14.928, -1.79188 14.9755, -2.30352  C15.0266, -2.85916 15.0777, -3.17795 15.1289, -3.175 " /><path d="M15.1289, -3.175 Q15.14, -3.17499 15.1511, -3.15588 " /><path d="M14.3351, 3.175 C14.3811, 3.17697 14.4272, 2.92057 14.4732, 2.46198  C14.5384, 1.81969 14.6035, 0.770876 14.6686, -0.251649  C14.712, -0.930757 14.7553, -1.58964 14.7986, -2.09955  C14.8484, -2.68821 14.8981, -3.07276 14.9479, -3.15587 " /><path d="M14.9479, -3.15587 Q14.959, -3.17499 14.9701, -3.175 " /><path d="M15.5829, 3.15586 Q15.594, 3.17499 15.6051, 3.175 " /><path id= "94" d=" M 16.8751 3.175 L 17.0339 3.175 " />
<path d="M15.7639, 3.175 Q15.775, 3.17499 15.7861, 3.15587 " /><path d="M15.7861, 3.15587 C15.8341, 3.07541 15.8821, 2.71489 15.9302, 2.15978  C15.9878, 1.49773 16.0455, 0.560277 16.1032, -0.341479  C16.1483, -1.04738 16.1935, -1.72394 16.2386, -2.2283  C16.292, -2.82934 16.3455, -3.17849 16.3989, -3.175 " /><path d="M16.3989, -3.175 Q16.41, -3.17499 16.4211, -3.15587 " /><path d="M15.6051, 3.175 C15.6498, 3.17675 15.6945, 2.93549 15.7392, 2.50121  C15.8056, 1.86334 15.8719, 0.795812 15.9383, -0.24621  C15.9819, -0.929283 16.0254, -1.59225 16.069, -2.10417  C16.1186, -2.69026 16.1683, -3.07296 16.2179, -3.15587 " /><path d="M16.2179, -3.15587 Q16.229, -3.17499 16.2401, -3.175 " /><path d="M16.8529, 3.15586 Q16.864, 3.17499 16.8751, 3.175 " /><path id= "101" d=" M 18.1451 3.175 L 18.3039 3.175 " />
<path d="M17.0339, 3.175 Q17.045, 3.17499 17.0561, 3.15587 " /><path d="M17.0561, 3.15587 C17.1041, 3.07541 17.1521, 2.7149 17.2002, 2.15979  C17.2578, 1.49777 17.3155, 0.560366 17.3732, -0.341359  C17.4173, -1.03222 17.4615, -1.69518 17.5057, -2.1958  C17.5601, -2.81632 17.6145, -3.17874 17.6689, -3.175 " /><path d="M17.6689, -3.175 Q17.68, -3.17499 17.6911, -3.15587 " /><path d="M16.8751, 3.175 C16.9201, 3.17679 16.965, 2.93264 17.01, 2.4937  C17.0763, 1.85348 17.1425, 0.786123 17.2088, -0.254309  C17.2516, -0.924175 17.2943, -1.57427 17.3371, -2.0808  C17.3873, -2.67986 17.4376, -3.07196 17.4879, -3.15587 " /><path d="M17.4879, -3.15587 Q17.499, -3.17499 17.5101, -3.175 " /><path d="M18.1229, 3.15586 Q18.134, 3.17499 18.1451, 3.175 " /><path id= "108" d=" M 19.4151 3.175 L 19.5739 3.175 " />
<path d="M18.3039, 3.175 Q18.315, 3.17499 18.3261, 3.15587 " /><path d="M18.3261, 3.15587 C18.3741, 3.07541 18.4221, 2.7149 18.4702, 2.1598  C18.5278, 1.4978 18.5855, 0.560427 18.6431, -0.341278  C18.688, -1.04295 18.7329, -1.71569 18.7778, -2.21907  C18.8315, -2.82565 18.8852, -3.17856 18.9389, -3.175 " /><path d="M18.9389, -3.175 Q18.95, -3.17499 18.9611, -3.15587 " /><path d="M18.1451, 3.175 C18.19, 3.17678 18.2349, 2.93362 18.2797, 2.49628  C18.3462, 1.85549 18.4126, 0.784758 18.4791, -0.258318  C18.5219, -0.929126 18.5647, -1.57981 18.6075, -2.08612  C18.6576, -2.68223 18.7078, -3.07219 18.7579, -3.15587 " /><path d="M18.7579, -3.15587 Q18.769, -3.17499 18.7801, -3.175 " /><path d="M19.3929, 3.15586 Q19.404, 3.17499 19.4151, 3.175 " /><path id= "115" d=" M 20.6851 3.175 L 20.8439 3.175 " />
<path d="M19.5739, 3.175 Q19.585, 3.17499 19.5961, 3.15587 " /><path d="M19.5961, 3.15587 C19.6441, 3.07541 19.6921, 2.7149 19.7402, 2.15981  C19.7982, 1.493 19.8563, 0.546662 19.9144, -0.361008  C19.9582, -1.04496 20.002, -1.70017 20.0458, -2.19609  C20.1001, -2.81644 20.1545, -3.17874 20.2089, -3.175 " /><path d="M20.2089, -3.175 Q20.22, -3.17499 20.2311, -3.15587 " /><path d="M19.4151, 3.175 C19.4597, 3.17674 19.5044, 2.93641 19.549, 2.50364  C19.6156, 1.86395 19.6823, 0.790087 19.7489, -0.256426  C19.7922, -0.933481 19.8354, -1.59011 19.8786, -2.09871  C19.9284, -2.68783 19.9781, -3.07273 20.0279, -3.15587 " /><path d="M20.0279, -3.15587 Q20.039, -3.17499 20.0501, -3.175 " /><path d="M20.6629, 3.15586 Q20.674, 3.17499 20.6851, 3.175 " /><path id= "122" d=" M 21.9551 3.175 L 22.1139 3.175 " />
<path d="M20.8439, 3.175 Q20.855, 3.17499 20.8661, 3.15587 " /><path d="M20.8661, 3.15587 C20.9141, 3.07541 20.9621, 2.71491 21.0102, 2.15981  C21.0678, 1.49786 21.1255, 0.560552 21.1831, -0.34111  C21.2273, -1.03151 21.2715, -1.69407 21.3156, -2.19461  C21.37, -2.81584 21.4245, -3.17875 21.4789, -3.175 " /><path d="M21.4789, -3.175 Q21.49, -3.17499 21.5011, -3.15587 " /><path d="M20.6851, 3.175 C20.7296, 3.17673 20.7742, 2.9375 20.8187, 2.50651  C20.8855, 1.86647 20.9523, 0.789443 21.0192, -0.259637  C21.0618, -0.92805 21.1045, -1.57642 21.1471, -2.08175  C21.1974, -2.68029 21.2477, -3.072 21.2979, -3.15587 " /><path d="M21.2979, -3.15587 Q21.309, -3.17499 21.3201, -3.175 " /><path d="M21.9329, 3.15586 Q21.944, 3.17499 21.9551, 3.175 " /><path id= "129" d=" M 23.2251 3.175 L 23.3839 3.175 " />
<path d="M22.1139, 3.175 Q22.125, 3.17499 22.1361, 3.15587 " /><path d="M22.1361, 3.15587 C22.1841, 3.07541 22.2321, 2.7149 22.2802, 2.1598  C22.3378, 1.49782 22.3955, 0.560457 22.4531, -0.341237  C22.4973, -1.03216 22.5415, -1.69518 22.5857, -2.19584  C22.6401, -2.81634 22.6945, -3.17874 22.7489, -3.175 " /><path d="M22.7489, -3.175 Q22.76, -3.17499 22.7711, -3.15587 " /><path d="M21.9551, 3.175 C22.0001, 3.17679 22.045, 2.93284 22.09, 2.49421  C22.1562, 1.85474 22.2224, 0.788781 22.2886, -0.250864  C22.3321, -0.932099 22.3755, -1.59301 22.419, -2.10371  C22.4686, -2.69006 22.5183, -3.07294 22.5679, -3.15587 " /><path d="M22.5679, -3.15587 Q22.579, -3.17499 22.5901, -3.175 " /><path d="M23.2029, 3.15586 Q23.214, 3.17499 23.2251, 3.175 " /><path id= "136" d=" M 24.4951 3.175 L 24.6539 3.175 " />
<path d="M23.3839, 3.175 Q23.395, 3.17499 23.4061, 3.15587 " /><path d="M23.4061, 3.15587 C23.4541, 3.07541 23.5021, 2.71491 23.5502, 2.15983  C23.6078, 1.49791 23.6655, 0.560667 23.7231, -0.340955  C23.7674, -1.03324 23.8117, -1.69752 23.856, -2.19858  C23.9103, -2.81744 23.9646, -3.17872 24.0189, -3.175 " /><path d="M24.0189, -3.175 Q24.03, -3.17499 24.0411, -3.15587 " /><path d="M23.2251, 3.175 C23.2697, 3.17673 23.3142, 2.93731 23.3587, 2.50603  C23.4254, 1.86772 23.492, 0.795294 23.5586, -0.250787  C23.602, -0.93107 23.6454, -1.5911 23.6888, -2.10152  C23.7385, -2.68908 23.7882, -3.07285 23.8379, -3.15587 " /><path d="M23.8379, -3.15587 Q23.849, -3.17499 23.8601, -3.175 " /><path d="M24.4729, 3.15586 Q24.484, 3.17499 24.4951, 3.175 " /><path d="M24.765, 0.741109 C24.765, 1.14512 24.765, 1.52912 24.765, 1.86619  C24.765, 1.96143 24.765, 2.05339 24.765, 2.14206  C24.765, 2.22876 24.765, 2.31173 24.765, 2.39099  C24.765, 2.46805 24.765, 2.541 24.765, 2.60986  C24.765, 2.64228 24.765, 2.67471 24.765, 2.70714 " /><path d="M24.6539, 3.175 Q24.665, 3.17499 24.6761, 3.15587 " /><path d="M24.6761, 3.15587 Q24.7205, 3.07619 24.765, 2.70714 " /><path d="M24.4951, 3.175 C24.5399, 3.17676 24.5846, 2.93504 24.6294, 2.50003  C24.6746, 2.06339 24.7198, 1.43255 24.765, 0.741109 " /><path d="M25.3991, 2.54095 Q25.3903, 2.54968 25.3816, 2.53475 " /><path d="M24.9965, -2.94352 Q24.9889, -2.95108 24.9814, -2.93811 " /><path d="M24.9814, -2.93811 C24.9645, -2.90775 24.9476, -2.8031 24.931, -2.62415  C24.9034, -2.33315 24.8763, -1.84938 24.8493, -1.26757  C24.8209, -0.654078 24.7928, 0.064686 24.765, 0.741109 " /><path id= "150" d=" M 25.3991 2.54095 L 25.4 2.54 " />
<path d="M25.4, -2.54 Q25.4, -2.53483 25.4, -2.52965  Q25.4, -2.51418 25.4, -2.4987  Q25.4, -2.47305 25.4, -2.44739  Q25.4, -2.41177 25.4, -2.37615  Q25.4, -2.33085 25.4, -2.28555  Q25.4, -2.23094 25.4, -2.17633  Q25.4, -2.11285 25.4, -2.04938  Q25.4, -1.97756 25.4, -1.90573  Q25.4, -1.82615 25.4, -1.74657  Q25.4, -1.65987 25.4, -1.57317  Q25.4, -1.48006 25.4, -1.38696  Q25.4, -1.2882 25.4, -1.18945  Q25.4, -0.984492 25.4, -0.767047 " /><path d="M24.765, 2.70714 C24.8686, 2.26082 24.9761, 1.63349 25.0882, 0.964788  C25.1882, 0.370578 25.2918, -0.251771 25.4, -0.767047 " /><path d="M25.4, -0.767047 L25.4, -0.38914 " /><path d="M25.4, -0.38914 C25.4, -0.160553 25.4, 0.100325 25.4, 0.355251  C25.4, 0.727286 25.4, 1.0939 25.4, 1.40794  C25.4, 1.72301 25.4, 1.98463 25.4, 2.1703  C25.4, 2.29738 25.4, 2.39294 25.4, 2.45697 " /><path d="M25.3991, 2.54095 L25.4, 2.53993 " /><path d="M25.4, 2.53993 Q25.4, 2.51251 25.4, 2.45697 " /><path d="M25.4, 2.53993 L25.4, 2.54 " /></g>

</svg>
