<svg xmlns="http://www.w3.org/2000/svg" viewBox="-5.5245 -5.5245 11.049 11.049">
<rect width="100%" height="100%" fill="white"/>
<g   fill="none"
   stroke="rgb(0, 0, 0)"
   stroke-linecap="butt"
   stroke-linejoin="miter"
   stroke-width="0.35"
   transform="scale(1, -1)"
  >
<circle cx ="0" cy ="0" r ="2.77075" /><circle cx ="0" cy ="0" r ="4.7625" /><path d="M1.37848, 2.3876 C0.371469, 2.3876 -0.371469, 2.3876 -1.37848, 2.3876 " /><path d="M-1.37848, 2.3876 C-1.88199, 1.5155 -2.25346, 0.872099 -2.75696, 4.54252e-13 " /><path d="M-2.75696, -4.55636e-13 C-2.25346, -0.872099 -1.88199, -1.5155 -1.37848, -2.3876 " /><path d="M-1.37848, -2.3876 C-0.371469, -2.3876 0.371469, -2.3876 1.37848, -2.3876 " /><path d="M1.37848, -2.3876 C1.88199, -1.5155 2.25346, -0.872099 2.75696, -4.54747e-13 " /><path d="M2.75696, 4.53859e-13 C2.25346, 0.872099 1.88199, 1.5155 1.37848, 2.3876 " /><circle cx ="0" cy ="0" r ="0.382016" /></g>

</svg>
