<svg xmlns="http://www.w3.org/2000/svg" viewBox="-5.8 -5.8 11.6 11.6">
<rect width="100%" height="100%" fill="white"/>
<g   fill="none"
   stroke="rgb(0, 0, 0)"
   stroke-linecap="butt"
   stroke-linejoin="miter"
   stroke-width="0.35"
   transform="scale(1, -1)"
  >
<path d="M1.86692 2.47479 A3.1 3.1 0 0 0 2.47479 1.86692" /><path id= "2" d=" M 1.86692 2.47479 L 0.99 1.78497 " />
<path id= "3" d=" M 0.99 1.78497 L -2.74994e-14 1.48382 " />
<path id= "4" d=" M 2.78048e-14 1.48382 L -0.99 1.78497 " />
<path id= "5" d=" M -0.99 1.78497 L -1.86692 2.47479 " />
<path d="M-2.47479 1.86692 A3.1 3.1 0 0 0 -1.86692 2.47479" /><path id= "7" d=" M -2.47479 1.86692 L -1.78497 0.99 " />
<path id= "8" d=" M -1.78497 0.99 L -1.48382 -2.74928e-14 " />
<path id= "9" d=" M -1.48382 2.78247e-14 L -1.78497 -0.99 " />
<path id= "10" d=" M -1.78497 -0.99 L -2.47479 -1.86692 " />
<path d="M-1.86692 -2.47479 A3.1 3.1 0 0 0 -2.47479 -1.86692" /><path id= "12" d=" M -1.86692 -2.47479 L -0.99 -1.78497 " />
<path id= "13" d=" M -0.99 -1.78497 L 2.73534e-14 -1.48382 " />
<path id= "14" d=" M -2.79508e-14 -1.48382 L 0.99 -1.78497 " />
<path id= "15" d=" M 0.99 -1.78497 L 1.86692 -2.47479 " />
<path d="M2.47479 -1.86692 A3.1 3.1 0 0 0 1.86692 -2.47479" /><path id= "17" d=" M 2.47479 -1.86692 L 1.78497 -0.99 " />
<path id= "18" d=" M 1.78497 -0.99 L 1.48382 2.76587e-14 " />
<path id= "19" d=" M 1.48382 -2.76587e-14 L 1.78497 0.99 " />
<path id= "20" d=" M 1.78497 0.99 L 2.47479 1.86692 " />
<path d="M1.86692, 2.47479 C1.52174, 2.10101 1.26026, 1.81816 1.04909, 1.59011 " /><path d="M1.59011, 1.04909 C1.81816, 1.26026 2.10101, 1.52174 2.47479, 1.86692 " /><path d="M1.59011 1.04909 A1.905 1.905 0 0 1 1.04909 1.59011" /><path id= "24" d=" M 1.78497 0.99 L 1.53964 0.99 " />
<path d="M1.53964, 0.99 L1.59011, 1.04909 " /><path d="M1.205, 4.78004e-14 C1.29292, 0.273325 1.39439, 0.573499 1.53964, 0.99 " /><path id= "27" d=" M 1.48382 0 L 1.205 0 " />
<path id= "28" d=" M 1.78497 -0.99 L 1.53964 -0.99 " />
<path d="M1.53964, -0.99 C1.39439, -0.573499 1.29292, -0.273325 1.205, -4.75591e-14 " /><path d="M2.47479, -1.86692 C2.10101, -1.52174 1.81816, -1.26026 1.59011, -1.04909 " /><path d="M1.59011, -1.04909 L1.53964, -0.99 " /><path d="M1.04909, -1.59011 C1.26026, -1.81816 1.52174, -2.10101 1.86692, -2.47479 " /><path d="M1.04909 -1.59011 A1.905 1.905 0 0 1 1.59011 -1.04909" /><path id= "34" d=" M 0.99 -1.78497 L 0.99 -1.53964 " />
<path d="M0.99, -1.53964 L1.04909, -1.59011 " /><path id= "36" d=" M -3.29475e-16 -1.48382 L -2.67564e-16 -1.205 " />
<path d="M4.72955e-14, -1.205 C0.273325, -1.29292 0.573499, -1.39439 0.99, -1.53964 " /><path id= "38" d=" M -0.99 -1.78497 L -0.99 -1.53964 " />
<path d="M-0.99, -1.53964 C-0.573499, -1.39439 -0.273325, -1.29292 -4.77396e-14, -1.205 " /><path d="M-1.86692, -2.47479 C-1.52174, -2.10101 -1.26026, -1.81816 -1.04909, -1.59011 " /><path d="M-1.04909, -1.59011 L-0.99, -1.53964 " /><path d="M-1.59011, -1.04909 C-1.81816, -1.26026 -2.10101, -1.52174 -2.47479, -1.86692 " /><path d="M-1.59011 -1.04909 A1.905 1.905 0 0 1 -1.04909 -1.59011" /><path id= "44" d=" M -1.78497 -0.99 L -1.53964 -0.99 " />
<path d="M-1.53964, -0.99 L-1.59011, -1.04909 " /><path id= "46" d=" M -1.48382 1.81716e-16 L -1.205 1.4757e-16 " />
<path d="M-1.205, -4.72955e-14 C-1.29292, -0.273325 -1.39439, -0.573499 -1.53964, -0.99 " /><path id= "48" d=" M -1.78497 0.99 L -1.53964 0.99 " />
<path d="M-1.53964, 0.99 C-1.39439, 0.573499 -1.29292, 0.273325 -1.205, 4.76841e-14 " /><path d="M-2.47479, 1.86692 C-2.10101, 1.52174 -1.81816, 1.26026 -1.59011, 1.04909 " /><path d="M-1.59011, 1.04909 L-1.53964, 0.99 " /><path d="M-1.04909, 1.59011 C-1.26026, 1.81816 -1.52174, 2.10101 -1.86692, 2.47479 " /><path d="M-1.04909 1.59011 A1.905 1.905 0 0 1 -1.59011 1.04909" /><path id= "54" d=" M -0.99 1.78497 L -0.99 1.53964 " />
<path d="M-0.99, 1.53964 L-1.04909, 1.59011 " /><path id= "56" d=" M 1.64737e-16 1.48382 L 1.33782e-16 1.205 " />
<path d="M-4.72955e-14, 1.205 C-0.273325, 1.29292 -0.573499, 1.39439 -0.99, 1.53964 " /><path id= "58" d=" M 0.99 1.78497 L 0.99 1.53964 " />
<path d="M0.99, 1.53964 C0.573499, 1.39439 0.273325, 1.29292 4.77396e-14, 1.205 " /><path d="M1.04909, 1.59011 L0.99, 1.53964 " /><circle cx ="0" cy ="0" r ="5" /></g>

</svg>
