<svg xmlns="http://www.w3.org/2000/svg" viewBox="-11.8842944 -11.198964400000001 19.2950688 18.642118800000002">
<rect width="100%" height="100%" fill="white"/>
<g   fill="none"
   stroke="rgb(0, 0, 0)"
   stroke-linecap="butt"
   stroke-linejoin="miter"
   stroke-width="0.35"
   transform="scale(1, -1)"
  >
<path d="M6.08008, 3.65382 C6.08507, 1.7737 5.43514, -0.429299 4.31353, -2.3902  C3.72721, -3.42026 3.0167, -4.38106 2.23712, -5.19738  C1.45772, -6.0145 0.609253, -6.68715 -0.248195, -7.16257  C-1.20308, -7.69284 -2.17133, -7.97982 -3.07394, -7.97751  C-3.73537, -7.9768 -4.36138, -7.81782 -4.90146, -7.50471  C-5.25918, -7.29711 -5.57345, -7.02973 -5.84425, -6.70257  C-6.23643, -6.22909 -6.52508, -5.64247 -6.70428, -4.97766  C-6.75196, -4.8008 -6.79203, -4.61866 -6.82449, -4.43123 " /><path d="M0.425284, 8.12582 C0.774068, 8.25406 1.11903, 8.34659 1.46018, 8.40341  C1.96356, 8.4873 2.44713, 8.4887 2.91088, 8.40762  C3.32837, 8.33357 3.7155, 8.19214 4.07229, 7.98333  C4.72225, 7.60352 5.2345, 7.00461 5.57292, 6.26055  C5.91294, 5.51608 6.07912, 4.62645 6.08008, 3.65382 " /></g>
<g   fill="none"
   stroke="rgb(0, 0, 0)"
   stroke-linecap="butt"
   stroke-linejoin="miter"
   stroke-width="0.35"
   transform="scale(1, -1)"
  >
<path d="M-3.03005, 4.64132 C-3.04397, 4.20593 -3.13935, 3.72926 -3.30757, 3.25628 " /><g transform = "rotate(60, -5.65685, 3.26599)">
<ellipse cx ="-5.65685" cy ="3.26599" rx ="4.1875"  ry ="2.41765"/>
</g>
<path d="M-3.03005, 4.64132 C-3.01011, 5.22826 -3.13963, 5.73737 -3.3965, 6.08885  C-3.66559, 6.46121 -4.07472, 6.65698 -4.55378, 6.64682  C-5.06061, 6.63879 -5.64329, 6.39969 -6.19769, 5.97702  C-6.7933, 5.52588 -7.35266, 4.86604 -7.76936, 4.1301 " /><path d="M-8.44137, 1.36594 C-8.44745, 1.39259 -8.4528, 1.42602 -8.45745, 1.46624  C-8.47178, 1.5908 -8.47514, 1.75373 -8.46448, 1.92526  C-8.44603, 2.23085 -8.38453, 2.57311 -8.28346, 2.91734  C-8.17389, 3.29307 -8.01493, 3.67684 -7.83097, 4.01858 " /><path d="M-7.83097, 4.01858 L-7.76936, 4.1301 " /><path d="M-6.56354, 0.0296719 C-6.99256, -0.0551127 -7.38843, 0.00897443 -7.70401, 0.209842  C-8.06645, 0.438326 -8.32245, 0.845239 -8.44137, 1.36594 " /><path d="M-6.56354 0.0296719 A3.45873 1.9969 60 0 1 -3.30757 3.25628" />
<path d="M-3.31075, 5.90066 C-3.57326, 6.02638 -3.88243, 6.06556 -4.21416, 6.01571  C-4.64838, 5.95149 -5.1208, 5.73303 -5.56886, 5.39214  C-6.09041, 4.99735 -6.57638, 4.43735 -6.94142, 3.81795  C-7.38382, 3.07278 -7.64421, 2.2473 -7.6619, 1.56153  C-7.68269, 0.90491 -7.48349, 0.382025 -7.11846, 0.122013 " /><path d="M-3.26026, 5.86422 Q-3.32602, 5.91408 -3.39714, 5.95514 " /><path d="M-3.39714, 5.95514 C-3.6971, 6.12899 -4.06727, 6.18048 -4.467, 6.10492  C-4.88063, 6.02781 -5.32505, 5.81447 -5.74768, 5.49263  C-6.28888, 5.08261 -6.79135, 4.49445 -7.16045, 3.84732  C-7.58192, 3.11391 -7.82629, 2.31067 -7.8392, 1.64299  C-7.85705, 0.945512 -7.62353, 0.40383 -7.20942, 0.168561 " /><path d="M-7.20942, 0.168561 Q-6.92802, 0.00700223 -6.56354, 0.0296719 " /><path d="M-1.06066 5.9196 A6.5 3.75278 60 0 1 -1.67643 8.2177" />
<path d="M-1.67643 2.91047 A6.5 3.75278 60 0 1 -1.06066 5.9196" />
<path d="M-5.65685 -2.04124 A6.5 3.75278 60 0 1 -1.67643 2.91047" />
<path d="M-9.63728 -1.68572 A6.5 3.75278 60 0 1 -5.65685 -2.04124" />
<path d="M-9.63728 3.6215 A6.5 3.75278 60 0 1 -9.63728 -1.68572" />
<path d="M-5.65685 8.57321 A6.5 3.75278 60 0 1 -9.63728 3.6215" />
<path d="M-1.67643 8.2177 A6.5 3.75278 60 0 1 -5.65685 8.57321" />
<path d="M-3.16088, 5.62691 C-3.68165, 5.65125 -4.29118, 5.41889 -4.86171, 4.98392  C-5.38323, 4.58917 -5.86918, 4.02922 -6.23421, 3.40987  C-6.67658, 2.66481 -6.937, 1.83944 -6.95478, 1.15371  C-6.96836, 0.7014 -6.87971, 0.310185 -6.70151, 0.0276863 " /><path d="M-3.19393, 5.71626 C-3.74498, 5.79378 -4.41605, 5.56171 -5.04059, 5.08437  C-5.58184, 4.67431 -6.08434, 4.08609 -6.45344, 3.43889  C-6.87491, 2.70545 -7.11924, 1.90218 -7.1321, 1.23451  C-7.14372, 0.739523 -7.0314, 0.319954 -6.81397, 0.0370129 " /><path d="M-1.67643, 8.2177 C-1.25428, 7.61821 -0.703527, 6.94469 0.060889, 6.0931 " /><path d="M-5.65685, 8.57321 C-4.81383, 9.05844 -3.84247, 9.46899 -2.59272, 9.86827 " /><path d="M-2.59272, 9.86827 C-2.38648, 9.33895 -2.09601, 8.8157 -1.67643, 8.2177 " /><path d="M-9.63728, 3.6215 C-9.21512, 4.70548 -8.66437, 5.71441 -7.89995, 6.80414 " /><path d="M-7.89995, 6.80414 C-7.20838, 7.52568 -6.4973, 8.08649 -5.65685, 8.57321 " /><path d="M-9.63728, -1.68572 C-10.0569, -1.08772 -10.3473, -0.564477 -10.5536, -0.0351543 " /><path d="M-10.5536, -0.0351543 C-10.3473, 1.37684 -10.0569, 2.53604 -9.63728, 3.6215 " /><path d="M-7.89995, -3.81032 C-8.66437, -2.95873 -9.21512, -2.28522 -9.63728, -1.68572 " /><path d="M-5.65685, -2.04124 C-6.4973, -2.52796 -7.20838, -3.08878 -7.89995, -3.81032 " /><path d="M-2.59272, -0.746188 C-3.84247, -1.14547 -4.81383, -1.55601 -5.65685, -2.04124 " /><path d="M-1.67643, 2.91047 C-2.09601, 1.825 -2.38648, 0.665806 -2.59272, -0.746188 " /><path d="M0.060889, 6.0931 C-0.703527, 5.00337 -1.25428, 3.99444 -1.67643, 2.91047 " /><path d="M-3.0518, 5.14586 C-3.41321, 5.04771 -3.79188, 4.85136 -4.15456, 4.57571  C-4.67604, 4.181 -5.16196, 3.62111 -5.52699, 3.00181  C-5.96932, 2.25689 -6.22977, 1.43166 -6.24766, 0.745971  C-6.25454, 0.504737 -6.23364, 0.284209 -6.18496, 0.0843881 " /><path d="M-3.07294, 5.28454 C-3.48084, 5.20441 -3.91772, 4.99272 -4.33351, 4.67611  C-4.8748, 4.26602 -5.37733, 3.67772 -5.74644, 3.03047  C-6.04444, 2.5104 -6.25613, 1.95482 -6.3564, 1.43781  C-6.45906, 0.913571 -6.447, 0.430366 -6.32443, 0.0547037 " /><path d="M1.39471, 7.56612 L1.48816, 7.33942  L1.59289, 7.11205  L1.70955, 6.88262  L1.83885, 6.6497  L1.98159, 6.41187  L2.13865, 6.16765  L2.311, 5.91555  L2.4997, 5.65401  L2.7059, 5.38142  L2.93089, 5.0961  L3.17605, 4.7963  L3.44289, 4.48015  L3.73305, 4.14573  L4.04832, 3.79096 " /><path id= "36" d=" M 4.04832 3.79096 L 0.060889 6.0931 " />
<path id= "37" d=" M 1.39471 7.56612 L -2.59272 9.86827 " />
<path id= "38" d=" M -3.91252 -6.11246 L -7.89995 -3.81032 " />
<path d="M1.39471, -3.04833 L0.875076, -3.22028  L0.387469, -3.39474  L-0.0711155, -3.5728  L-0.503504, -3.75555  L-0.91236, -3.94411  L-1.3002, -4.13966  L-1.66942, -4.34339  L-2.02229, -4.55656  L-2.36099, -4.78048  L-2.68759, -5.01653  L-3.00412, -5.26617  L-3.31253, -5.53093  L-3.61471, -5.81245  L-3.91252, -6.11246 " /><path id= "40" d=" M 1.39471 -3.04833 L -2.59272 -0.746188 " />
<path d="M4.04832, 3.79096 L3.73305, 3.32828  L3.44289, 2.87292  L3.17605, 2.42207  L2.93089, 1.97296  L2.7059, 1.52282  L2.4997, 1.06887  L2.311, 0.608324  L2.13865, 0.138336  L1.98159, -0.343987  L1.83885, -0.841617  L1.70955, -1.35762  L1.59289, -1.89517  L1.48816, -2.45759  L1.39471, -3.04833 " /><path d="M-3.04218, 4.43866 C-3.71022, 4.05368 -4.36088, 3.3737 -4.8188, 2.59541  C-5.2591, 1.85444 -5.51961, 1.03378 -5.54017, 0.349978 " /><path d="M-3.03001, 4.64273 C-3.78359, 4.27124 -4.5377, 3.50601 -5.03943, 2.62205  C-5.49578, 1.82863 -5.74265, 0.954176 -5.71713, 0.257004 " /><path d="M-3.3102, 3.24834 C-3.89159, 2.64404 -4.36614, 1.85152 -4.61764, 1.08118 " /><path d="M-3.18752, 3.63895 C-3.62367, 3.25286 -4.02134, 2.75673 -4.3283, 2.22083  C-4.59206, 1.7617 -4.78907, 1.27459 -4.90085, 0.810603 " /></g>

</svg>
