<svg xmlns="http://www.w3.org/2000/svg" viewBox="-9.384 -10.034 10.768 20.068">
<rect width="100%" height="100%" fill="white"/>
<g   fill="none"
   stroke="rgb(0, 0, 0)"
   stroke-linecap="butt"
   stroke-linejoin="miter"
   stroke-width="0.35"
   transform="scale(1, -1)"
  >
<path id= "1" d=" M -8 -6.5 L -7.41944 -7.50555 " />
<path id= "2" d=" M -1.78036 -7.50555 L -1.11962 -8.65 " />
<path d="M-1.11962, -8.65 C-0.987434, -8.88863 -0.681119, -9.00852 -0.422075, -8.92301  C-0.176188, -8.85074 0.00389894, -8.60626 0, -8.35 " /></g>
<g   fill="none"
   stroke="rgb(0, 0, 0)"
   stroke-linecap="butt"
   stroke-linejoin="miter"
   stroke-width="0.35"
   transform="scale(1, -1)"
  >
<path d="M-8, 5.62917 L-8, 5.74675  L-8, 5.8563  L-8, 5.95765  L-8, 6.05068  L-8, 6.13524  L-8, 6.21122  L-8, 6.27852  L-8, 6.33703  L-8, 6.38668  L-8, 6.4274  L-8, 6.45913  L-8, 6.48182  L-8, 6.49545  L-8, 6.5 " /><path d="M-8, -6.99663e-13 C-8, 0.486484 -8, 0.970949 -8, 1.44639  C-8, 1.60289 -8, 1.7594 -8, 1.91591  C-8, 2.06884 -8, 2.22178 -8, 2.37472  C-8, 2.52323 -8, 2.67174 -8, 2.82024  C-8, 2.9635 -8, 3.10675 -8, 3.25  C-8, 3.38719 -8, 3.52439 -8, 3.66158  C-8, 3.79195 -8, 3.92232 -8, 4.05268  C-8, 4.1755 -8, 4.29831 -8, 4.42112  C-8, 4.53569 -8, 4.65027 -8, 4.76484  C-8, 4.87053 -8, 4.97622 -8, 5.0819  C-8, 5.17812 -8, 5.27434 -8, 5.37055  C-8, 5.45676 -8, 5.54296 -8, 5.62917 " /><path d="M-8, -5.62917 Q-8, -5.49986 -8, -5.37055  Q-8, -5.22623 -8, -5.0819  Q-8, -4.92337 -8, -4.76484  Q-8, -4.59298 -8, -4.42112  Q-8, -4.2369 -8, -4.05268  Q-8, -3.85713 -8, -3.66158  Q-8, -3.45579 -8, -3.25  Q-8, -3.03512 -8, -2.82024  Q-8, -2.59748 -8, -2.37472  Q-8, -2.14531 -8, -1.91591  Q-8, -1.68115 -8, -1.44639  Q-8, -1.20758 -8, -0.968775  Q-8, -0.486507 -8, -6.99774e-13 " /><path d="M-8, -6.5 L-8, -6.49545  L-8, -6.48182  L-8, -6.45913  L-8, -6.4274  L-8, -6.38668  L-8, -6.33703  L-8, -6.27852  L-8, -6.21122  L-8, -6.13524  L-8, -6.05068  L-8, -5.95765  L-8, -5.8563  L-8, -5.74675  L-8, -5.62917 " /><path id= "5" d=" M -8 6.5 L -7.41944 7.50555 " />
<path d="M-8, -5.62917 C-7.99817, -6.22436 -7.81413, -6.81919 -7.41944, -7.50555 " /><path d="M-7.41944, -3.75278 C-7.81413, -4.43914 -7.99817, -5.03397 -8, -5.62917 " /><path d="M-8, -6.99441e-13 C-7.99817, -1.19039 -7.81413, -2.38006 -7.41944, -3.75278 " /><path d="M-7.41944, 3.75278 C-7.81413, 2.38006 -7.99817, 1.19039 -8, -6.99441e-13 " /><path d="M-8, 5.62917 C-7.99817, 5.03397 -7.81413, 4.43914 -7.41944, 3.75278 " /><path d="M-7.41944, 7.50555 C-7.81413, 6.81919 -7.99817, 6.22436 -8, 5.62917 " /><path id= "12" d=" M -1.78036 7.50555 L -7.41944 7.50555 " />
<path id= "13" d=" M -1.78036 -7.50555 L -7.41944 -7.50555 " />
<path d="M-1.78036, -3.75278 L-1.93721, -4.04179  L-2.06833, -4.32102  L-2.17452, -4.59219  L-2.25645, -4.85697  L-2.3146, -5.117  L-2.34936, -5.37387  L-2.36092, -5.62917  L-2.34936, -5.88446  L-2.3146, -6.14133  L-2.25645, -6.40136  L-2.17452, -6.66614  L-2.06833, -6.93731  L-1.93721, -7.21654  L-1.78036, -7.50555 " /><path id= "15" d=" M -1.78036 -3.75278 L -7.41944 -3.75278 " />
<path d="M-1.78036, 3.75278 L-1.93721, 3.17475  L-2.06833, 2.61629  L-2.17452, 2.07395  L-2.25645, 1.54438  L-2.3146, 1.02433  L-2.34936, 0.510594  L-2.36092, -1.11022e-16  L-2.34936, -0.510594  L-2.3146, -1.02433  L-2.25645, -1.54438  L-2.17452, -2.07395  L-2.06833, -2.61629  L-1.93721, -3.17475  L-1.78036, -3.75278 " /><path id= "17" d=" M -1.78036 3.75278 L -7.41944 3.75278 " />
<path d="M-1.78036, 7.50555 L-1.93721, 7.21654  L-2.06833, 6.93731  L-2.17452, 6.66614  L-2.25645, 6.40136  L-2.3146, 6.14133  L-2.34936, 5.88446  L-2.36092, 5.62917  L-2.34936, 5.37387  L-2.3146, 5.117  L-2.25645, 4.85697  L-2.17452, 4.59219  L-2.06833, 4.32102  L-1.93721, 4.04179  L-1.78036, 3.75278 " /><path id= "19" d=" M -1.11962 8.65 L -1.78036 7.50555 " />
<path d="M-5.55112e-17, -8.35 L-5.55112e-17, -8.14065  L-5.55112e-17, -7.52309  L-5.55112e-17, -6.52829  L-5.55112e-17, -5.20614  L-5.55112e-17, -3.62293  L-5.55112e-17, -1.85805  L-5.55112e-17, -1.55431e-15  L-5.55112e-17, 1.85805  L-5.55112e-17, 3.62293  L-5.55112e-17, 5.20614  L-5.55112e-17, 6.52829  L-5.55112e-17, 7.52309  L-5.55112e-17, 8.14065  L-5.55112e-17, 8.35 " /><path d="M0 8.35 A0.6 0.6 0 0 1 -1.11962 8.65" /></g>

</svg>
