<svg xmlns="http://www.w3.org/2000/svg" viewBox="-8.821994 -7.816444 19.088438 15.632888">
<rect width="100%" height="100%" fill="white"/>
<g   fill="none"
   stroke="rgb(0, 0, 0)"
   stroke-linecap="butt"
   stroke-linejoin="miter"
   stroke-width="0.35"
   transform="scale(1, -1)"
  >
<path d="M8.95, -2.22045e-16 C8.95056, -1.12464 8.73601, -2.24926 8.3215, -3.29472  C7.908, -4.34057 7.29455, -5.30725 6.52427, -6.1267  C5.91804, -6.77617 5.19806, -7.34266 4.40922, -7.78829  C3.62029, -8.2347 2.76243, -8.56082 1.87808, -8.75061  C0.108657, -9.13413 -1.76394, -8.95998 -3.42497, -8.26861  C-5.08837, -7.58296 -6.53564, -6.38197 -7.51562, -4.85961  C-8.00675, -4.10008 -8.38274, -3.26288 -8.62494, -2.38936  C-8.86763, -1.51646 -8.97616, -0.606788 -8.94558, 0.281126  C-8.90411, 1.63938 -8.54657, 2.98762 -7.90972, 4.18798  C-7.27489, 5.38941 -6.36075, 6.44295 -5.26068, 7.2407  C-4.31331, 7.92982 -3.22859, 8.42986 -2.08934, 8.70272  C-0.950379, 8.97681 0.243119, 9.02372 1.40009, 8.83981  C2.51097, 8.66443 3.58818, 8.27659 4.55592, 7.70365  C5.52421, 7.13163 6.38303, 6.3745 7.07192, 5.48554  C8.28285, 3.93218 8.95483, 1.96959 8.95, -4.44089e-16 " /></g>
<g   fill="none"
   stroke="rgb(0, 0, 0)"
   stroke-linecap="butt"
   stroke-linejoin="miter"
   stroke-width="0.35"
   transform="scale(1, -1)"
  >
<path d="M3.54186, -1.33227e-15 C3.51483, -0.516047 3.37252, -1.02498 3.12712, -1.47782 " /><circle cx ="0" cy ="0" r ="4.1875" /><path d="M3.54186, 4.17996e-07 C3.57996, 0.694856 3.40655, 1.40022 3.05292, 2.00268  C2.68251, 2.63885 2.11394, 3.15791 1.44633, 3.47432  C0.74004, 3.81239 -0.0736644, 3.92124 -0.847488, 3.78538  C-1.67886, 3.64308 -2.45912, 3.21966 -3.03777, 2.60232 " /><path d="M-3.98814, -0.307876 C-3.99553, -0.272154 -4.00207, -0.228461 -4.00775, -0.176794  C-4.0253, -0.0168315 -4.02858, 0.183627 -4.01252, 0.385186  C-3.9963, 0.594484 -3.96069, 0.805317 -3.90569, 1.01768 " /><path d="M-3.90569, 1.01768 C-3.80481, 1.40653 -3.63672, 1.78522 -3.41847, 2.11782  C-3.30104, 2.29634 -3.17414, 2.45784 -3.03777, 2.60232 " /><path d="M-1.47752, -3.12726 C-2.06028, -2.95171 -2.59689, -2.61653 -3.02058, -2.16997  C-3.50729, -1.65971 -3.8443, -1.00536 -3.98814, -0.307876 " /><path d="M-1.47752 -3.12726 A3.45873 3.45873 0 0 1 3.12712 -1.47782" /><path d="M3.45873, 4.93842e-07 C3.46138, 0.832728 3.14877, 1.66128 2.59669, 2.28474  C2.17629, 2.76395 1.62043, 3.12248 1.01049, 3.30783  C0.452395, 3.47901 -0.14926, 3.50512 -0.72009, 3.38294  C-1.45112, 3.22911 -2.12736, 2.82971 -2.61499, 2.26377  C-3.17207, 1.6246 -3.47868, 0.774638 -3.45796, -0.072938  C-3.44286, -0.92738 -3.09522, -1.77002 -2.50345, -2.38655  C-2.21087, -2.69372 -1.86115, -2.94622 -1.47752, -3.12726 " /><path d="M6.5 0 A6.5 6.5 0 0 1 5.62917 3.25" /><path d="M5.62917 -3.25 A6.5 6.5 0 0 1 6.5 -1.59204e-15" /><path d="M-6.99746e-13 -6.5 A6.5 6.5 0 0 1 5.62917 -3.25" /><path d="M-5.62917 -3.25 A6.5 6.5 0 0 1 -6.99746e-13 -6.5" /><path d="M-5.62917 3.25 A6.5 6.5 0 0 1 -5.62917 -3.25" /><path d="M-7.4434e-13 6.5 A6.5 6.5 0 0 1 -5.62917 3.25" /><path d="M5.62917 3.25 A6.5 6.5 0 0 1 -7.4434e-13 6.5" /><path d="M3.45873, 4.32111e-07 C3.46138, 0.832728 3.14877, 1.66128 2.59669, 2.28474  C2.17629, 2.76395 1.62042, 3.12248 1.01048, 3.30783  C0.45238, 3.47901 -0.149282, 3.50512 -0.720116, 3.38294  C-1.4512, 3.22909 -2.12749, 2.82963 -2.61512, 2.26362  C-3.17219, 1.62438 -3.47875, 0.774365 -3.45796, -0.073242  C-3.44278, -0.927767 -3.09499, -1.77046 -2.50306, -2.38695  C-2.01089, -2.90517 -1.35394, -3.26352 -0.651775, -3.39677  C-0.0233563, -3.51831 0.638412, -3.45998 1.23588, -3.23039  C1.8318, -3.0034 2.36181, -2.60726 2.74825, -2.09999  C3.20671, -1.50295 3.46052, -0.75273 3.45873, -1.55431e-15 " /><path d="M5.62917, 3.25 C6.22436, 2.21909 6.81919, 1.18881 7.50555, 4.865e-13 " /><path d="M-7.43849e-13, 6.5 C1.19039, 6.5 2.38006, 6.5 3.75278, 6.5 " /><path d="M3.75278, 6.5 C4.43914, 5.31119 5.03397, 4.28091 5.62917, 3.25 " /><path d="M-5.62917, 3.25 C-5.03397, 4.28091 -4.43914, 5.31119 -3.75278, 6.5 " /><path d="M-3.75278, 6.5 C-2.38006, 6.5 -1.19039, 6.5 -7.43849e-13, 6.5 " /><path d="M-5.62917, -3.25 C-6.22436, -2.21909 -6.81919, -1.18881 -7.50555, -4.84057e-13 " /><path d="M-7.50555, 4.88498e-13 C-6.81919, 1.18881 -6.22436, 2.21909 -5.62917, 3.25 " /><path d="M-3.75278, -6.5 C-4.43914, -5.31119 -5.03397, -4.28091 -5.62917, -3.25 " /><path d="M-6.99441e-13, -6.5 C-1.19039, -6.5 -2.38006, -6.5 -3.75278, -6.5 " /><path d="M3.75278, -6.5 C2.38006, -6.5 1.19039, -6.5 -6.99441e-13, -6.5 " /><path d="M5.62917, -3.25 C5.03397, -4.28091 4.43914, -5.31119 3.75278, -6.5 " /><path d="M7.50555, -4.85861e-13 C6.81919, -1.18881 6.22436, -2.21909 5.62917, -3.25 " /><path d="M-1.47752, -3.12726 C-0.63953, -3.52763 0.361008, -3.56689 1.22776, -3.23349  C1.82989, -3.00589 2.36522, -2.60569 2.7539, -2.09258  C3.20884, -1.49677 3.46049, -0.749612 3.45873, -8.88178e-16 " /><path d="M-1.47752, -3.12726 C-0.640313, -3.52724 0.359147, -3.56684 1.22534, -3.2344  C1.82689, -3.00754 2.36194, -2.60846 2.75088, -2.09654  C3.2077, -1.50007 3.46051, -0.75128 3.45873, -1.77636e-15 " /><path d="M-2.53182, -2.35642 C-2.03833, -2.88892 -1.37268, -3.25829 -0.659692, -3.39524  C-0.0297027, -3.51862 0.634252, -3.46111 1.23364, -3.23125  C1.82973, -3.00467 2.36001, -2.60889 2.74679, -2.1019  C3.20616, -1.50454 3.46053, -0.753532 3.45873, 2.46919e-07 " /></g>

</svg>
