<svg xmlns="http://www.w3.org/2000/svg" viewBox="-1.9565772 -1.4559142 9.0275144 5.998621399999999">
<rect width="100%" height="100%" fill="white"/>
<g   fill="none"
   stroke="rgb(0, 0, 0)"
   stroke-linecap="butt"
   stroke-linejoin="miter"
   stroke-width="0.35"
   transform="scale(1, -1)"
  >
<path id= "1" d=" M 5.71632 -3.04051 L 0.1125 0.194856 " />
<path id= "2" d=" M 5.76292 -3.20475 L 5.76292 -3.14351 " />
<path d="M0.1125, 0.194856 C-0.217159, 0.38494 -0.486847, 0.603769 -0.683699, 0.833327 " /><path d="M-0.683699, 0.833327 C-0.736463, 0.893212 -0.804772, 0.936481 -0.888628, 0.963136  C-0.950284, 0.982573 -1.01431, 0.992165 -1.08071, 0.991911  C-1.19692, 0.991589 -1.3136, 0.960035 -1.4016, 0.897782  C-1.49749, 0.83109 -1.55349, 0.728191 -1.55333, 0.624263  C-1.55352, 0.569425 -1.53979, 0.517187 -1.51214, 0.46755  C-1.46228, 0.377339 -1.36446, 0.308541 -1.25136, 0.276965 " /><path d="M-1.25136, 0.276965 C-0.827555, 0.155752 -0.440616, -0.00523683 -0.1125, -0.194856 " /><path id= "6" d=" M -0.1125 -0.194856 L 6.33985 -3.92012 " />
</g>
<g   fill="none"
   stroke="rgb(0, 0, 0)"
   stroke-linecap="butt"
   stroke-linejoin="miter"
   stroke-width="0.35"
   transform="scale(1, -1)"
  >
<path id= "1" d=" M 5.60782 -3.41671 L 0.00399817 -0.181345 " />
<path d="M5.60782 -3.41671 A0.225 0.129904 60 0 1 5.76292 -3.14351" />
<path d="M5.76292 -3.14351 A0.225 0.129904 60 0 1 5.71632 -3.04051" />
<path d="M5.71389 -3.33632 A0.15 0.0866025 60 0 1 5.76292 -3.20475" />
<path d="M5.60782, -3.41671 Q5.67565, -3.37652 5.71389, -3.33632 " /><path d="M0.00399817 -0.181345 A4.5206 2.60997 4.57117e-15 0 0 -0.849306 0.504508" />
<path d="M-0.849306 0.504508 A0.255654 0.147602 -180 0 1 -1.33399 0.438925" />
<path d="M-1.33399 0.438925 A0.255654 0.147602 -180 0 1 -1.19193 0.306693" />
<path d="M-1.19193 0.306693 A4.5206 2.60997 5.12912e-15 0 0 -0.00399817 -0.185962" />
<path id= "10" d=" M -0.00399817 -0.185962 L 6.44835 -3.91123 " />
<path id= "11" d=" M 5.76292 -3.14819 L 6.44835 -3.54392 " />
<path d="M6.44835 -3.91123 A0.225 0.129904 -120 0 0 6.33985 -3.92012" />
<path id= "13" d=" M 6.44835 -3.54392 L 6.44835 -3.91123 " />
</g>

</svg>
