<svg xmlns="http://www.w3.org/2000/svg" viewBox="-2.2948396 -1.3016066 12.346309199999999 2.7029392">
<rect width="100%" height="100%" fill="white"/>
<g   fill="none"
   stroke="rgb(0, 0, 0)"
   stroke-linecap="butt"
   stroke-linejoin="miter"
   stroke-width="0.35"
   transform="scale(1, -1)"
  >
<path id= "1" d=" M 7.925 0.225 L 0 0.225 " />
<path id= "2" d=" M 8 0.15 L 7.925 0.225 " />
<path d="M1.11022e-16, 0.225 C-0.465957, 0.224859 -0.931815, 0.301229 -1.37334, 0.450137 " /><path d="M-1.37334, 0.450137 C-1.5386, 0.507735 -1.73341, 0.463189 -1.85722, 0.339493  C-1.92063, 0.276788 -1.96344, 0.202251 -1.98565, 0.115883  C-2.00695, 0.0292864 -2.00451, -0.0566344 -1.97832, -0.14188  C-1.96382, -0.188049 -1.9428, -0.231024 -1.91524, -0.270805  C-1.80043, -0.441976 -1.5676, -0.519027 -1.37334, -0.450137 " /><path d="M-1.37334, -0.450137 C-0.931815, -0.301229 -0.465957, -0.224859 2.55351e-15, -0.225 " /><path id= "6" d=" M 2.2426e-15 -0.225 L 9.125 -0.225 " />
<path id= "7" d=" M 9.2 -0.15 L 9.125 -0.225 " />
</g>
<g   fill="none"
   stroke="rgb(0, 0, 0)"
   stroke-linecap="butt"
   stroke-linejoin="miter"
   stroke-width="0.35"
   transform="scale(1, -1)"
  >
<path id= "1" d=" M 7.925 0.00565427 L 0 0.00565427 " />
<path d="M7.925, 0.00565427 C7.925, 0.123882 7.925, 0.227377 7.925, 0.225 " /><path id= "3" d=" M 7.925 0.00565427 L 0 0.00565427 " />
<path d="M8, 0.0806543 Q8, 0.147485 8, 0.15 " /><path d="M7.925, 0.00565427 Q7.97296, 0.0536151 8, 0.0806543 " /><path d="M3.44909e-16 0.00565427 A4.5206 4.5206 0 0 0 -1.44337 0.242273" /><path d="M-1.44337 0.242273 A0.255654 0.255654 0 1 1 -1.44337 -0.242273" /><path d="M-1.44337 -0.242273 A4.5206 4.5206 0 0 0 2.22903e-15 -0.00565427" /><path id= "9" d=" M 2.16687e-15 -0.00565427 L 9.125 -0.00565427 " />
<path d="M9.125, -0.00565427 C9.125, -0.123882 9.125, -0.227377 9.125, -0.225 " /><path d="M9.125, -0.00565427 Q9.17296, -0.0536151 9.2, -0.0806543 " /><path d="M9.2, -0.0806543 Q9.2, -0.147485 9.2, -0.15 " /></g>

</svg>
