<svg xmlns="http://www.w3.org/2000/svg" viewBox="-0.335654 -0.304929 1.16 1.16">
<rect width="100%" height="100%" fill="white"/>
<g   fill="none"
   stroke="rgb(165, 165, 165)"
   stroke-dasharray="1.2,0.8"
   stroke-linecap="butt"
   stroke-linejoin="miter"
   stroke-width="0.25"
   transform="scale(1, -1)"
  >
<path d="M0.00565427 -0.224929 A0.225 0.225 0 0 1 0.00565427 0.224929" /><path id= "2" d=" M 0.00565427 0.224929 L 0.00565427 -0.224929 " />
<path id= "3" d=" M 0.00565427 0.224929 L 0.00565427 -0.224929 " />
<path d="M0.0806543 -0.126471 A0.15 0.15 0 0 1 0.0806543 0.126471" /><path d="M0.00565427, 0.224929 Q0.0536151, 0.1757 0.0806543, 0.126471 " /><path d="M0.00565427, -0.224929 Q0.0536151, -0.1757 0.0806543, -0.126471 " /><path d="M0.00565427, -0.224929 Q0.00699219, -0.224929 0.242273, -0.224929 " /><path d="M0.00565427 -0.224929 A0.225 0.225 0 0 1 0.00565427 0.224929" /><path d="M0.00565427, 0.224929 Q0.00699219, 0.224929 0.242273, 0.224929 " /><path id= "10" d=" M 0.0806543 0.126471 L 0.0806543 -0.126471 " />
<path d="M0.242273, -0.224929 Q0.255579, -0.224929 0.255654, -0.224929 " /><path d="M-0.255654, -0.224929 Q-0.255579, -0.224929 -0.242273, -0.224929 " /><path d="M0.242273, 0.224929 Q0.255579, 0.224929 0.255654, 0.224929 " /><path d="M-0.255654, 0.224929 Q-0.255579, 0.224929 -0.242273, 0.224929 " /><path d="M-0.242273, -0.224929 Q-0.00699219, -0.224929 -0.00565427, -0.224929 " /><path d="M-0.242273, 0.224929 Q-0.00699219, 0.224929 -0.00565427, 0.224929 " /><path d="M-0.00565427 0.224929 A0.225 0.225 0 0 1 -0.00565427 -0.224929" /><path id= "18" d=" M -0.00565427 0.224929 L -0.00565427 -0.224929 " />
<path d="M-0.00565427 -0.224929 A0.225 0.225 0 0 0 -0.00565427 0.224929" /><path id= "20" d=" M -0.00565427 0.224929 L -0.00565427 -0.224929 " />
<path d="M-0.00565427, -0.224929 Q-0.0536151, -0.1757 -0.0806543, -0.126471 " /><path d="M-0.00565427, 0.224929 Q-0.0536151, 0.1757 -0.0806543, 0.126471 " /><path d="M-0.0806543 -0.126471 A0.15 0.15 0 0 0 -0.0806543 0.126471" /><path id= "24" d=" M -0.0806543 0.126471 L -0.0806543 -0.126471 " />
</g>
<g   fill="none"
   stroke="rgb(165, 165, 165)"
   stroke-dasharray="1.2,0.8"
   stroke-linecap="butt"
   stroke-linejoin="miter"
   stroke-width="0.25"
   transform="scale(1, -1)"
  >
<path id= "1" d=" M -0.255654 0.224929 L -0.255654 -0.224929 " />
<path id= "2" d=" M 0.255654 0.224929 L 0.255654 -0.224929 " />
</g>
<g   fill="none"
   stroke="rgb(0, 0, 0)"
   stroke-linecap="butt"
   stroke-linejoin="miter"
   stroke-width="0.35"
   transform="scale(1, -1)"
  >
<path d="M0.255654, -0.224929 C0.372589, -0.224824 0.476, -0.120408 0.474973, -0.0034776  C0.479854, 0.115895 0.375126, 0.224962 0.255654, 0.224929 " /><path d="M-0.255654, -0.224929 C-0.372589, -0.224824 -0.476, -0.120408 -0.474973, -0.0034776  C-0.479854, 0.115895 -0.375126, 0.224962 -0.255654, 0.224929 " /></g>
<g   fill="none"
   stroke="rgb(0, 0, 0)"
   stroke-linecap="butt"
   stroke-linejoin="miter"
   stroke-width="0.35"
   transform="scale(1, -1)"
  >
<path d="M0.255654, -0.224929 C0.253518, -0.224929 0.251381, -0.224929 0.249244, -0.224929  C0.242942, -0.224929 0.236639, -0.224929 0.230337, -0.224929  C0.220184, -0.224929 0.210031, -0.224929 0.199879, -0.224929  C0.174386, -0.224929 0.144734, -0.224929 0.110924, -0.224929  C0.0754336, -0.224929 0.0384589, -0.224929 -1.15186e-15, -0.224929  C-0.0576751, -0.224929 -0.113151, -0.224929 -0.159398, -0.224929  C-0.172891, -0.224929 -0.186385, -0.224929 -0.199879, -0.224929  C-0.210031, -0.224929 -0.220184, -0.224929 -0.230337, -0.224929  C-0.236639, -0.224929 -0.242942, -0.224929 -0.249244, -0.224929  C-0.251381, -0.224929 -0.253518, -0.224929 -0.255654, -0.224929 " /><path d="M0.255654, 0.224929 Q0.252449, 0.224929 0.249244, 0.224929  Q0.239791, 0.224929 0.230337, 0.224929  Q0.215108, 0.224929 0.199879, 0.224929  Q0.161639, 0.224929 0.110924, 0.224929  Q0.0576884, 0.224929 -1.1241e-15, 0.224929  Q-0.0576884, 0.224929 -0.110924, 0.224929  Q-0.161639, 0.224929 -0.199879, 0.224929  Q-0.215108, 0.224929 -0.230337, 0.224929  Q-0.239791, 0.224929 -0.249244, 0.224929  Q-0.252449, 0.224929 -0.255654, 0.224929 " /></g>

</svg>
