<svg xmlns="http://www.w3.org/2000/svg" viewBox="-6.018594800000001 -6.9862048 28.0195796 22.065089599999997">
<rect width="100%" height="100%" fill="white"/>
<g   fill="none"
   stroke="rgb(0, 0, 0)"
   stroke-linecap="butt"
   stroke-linejoin="miter"
   stroke-width="0.35"
   transform="scale(1, -1)"
  >
<path id= "1" d=" M 19.2988 -7.47597 L 19.1865 -7.41115 " />
<path id= "2" d=" M 15.6747 -12.716 L 15.5625 -12.6512 " />
<path id= "3" d=" M 18.4007 -6.95749 L 18.2885 -6.89268 " />
<path id= "4" d=" M 14.7767 -12.1975 L 14.6645 -12.1327 " />
<path id= "5" d=" M 17.5027 -6.43902 L 17.3904 -6.3742 " />
<path id= "6" d=" M 13.8787 -11.679 L 13.7664 -11.6142 " />
<path id= "7" d=" M 16.6047 -5.92054 L 16.4924 -5.85572 " />
<path id= "8" d=" M 12.9807 -11.1606 L 12.8684 -11.0957 " />
<path id= "9" d=" M 15.7067 -5.40207 L 15.5944 -5.33725 " />
<path id= "10" d=" M 12.0826 -10.6421 L 11.9704 -10.5773 " />
<path id= "11" d=" M 14.8086 -4.88359 L 14.6964 -4.81877 " />
<path id= "12" d=" M 11.1846 -10.1236 L 11.0723 -10.0588 " />
<path id= "13" d=" M 13.9106 -4.36511 L 13.7983 -4.30029 " />
<path id= "14" d=" M 10.2866 -9.60514 L 10.1743 -9.54032 " />
<path id= "15" d=" M 13.0126 -3.84664 L 12.9003 -3.78182 " />
<path id= "16" d=" M 9.38856 -9.08666 L 9.27628 -9.02184 " />
<path id= "17" d=" M 12.1146 -3.32816 L 12.0023 -3.26334 " />
<path id= "18" d=" M 8.49054 -8.56819 L 8.37825 -8.50336 " />
<path id= "19" d=" M 11.2165 -2.80969 L 11.1042 -2.74486 " />
<path id= "20" d=" M 7.59251 -8.04971 L 7.48023 -7.98488 " />
<path id= "21" d=" M 10.3185 -2.29121 L 10.2062 -2.22639 " />
<path id= "22" d=" M 6.69449 -7.53124 L 6.5822 -7.46641 " />
<path id= "23" d=" M 9.42047 -1.77274 L 9.30819 -1.70791 " />
<path id= "24" d=" M 5.79646 -7.01276 L 5.68417 -6.94793 " />
<path id= "25" d=" M 8.52245 -1.25426 L 8.41016 -1.18943 " />
<path id= "26" d=" M 4.89844 -6.49429 L 4.78614 -6.42945 " />
<path id= "27" d=" M 7.62442 -0.735789 L 7.51213 -0.670956 " />
<path id= "28" d=" M 4.00041 -5.97581 L 3.88811 -5.91098 " />
<path id= "29" d=" M 6.7264 -0.217314 L 6.6141 -0.152479 " />
<path id= "30" d=" M 3.10239 -5.45734 L 2.99009 -5.3925 " />
<path id= "31" d=" M 5.82837 0.301161 L 5.71607 0.365998 " />
<path id= "32" d=" M 2.20436 -4.93886 L 2.09206 -4.87402 " />
<path id= "33" d=" M 4.93035 0.819636 L 4.78461 0.903776 " />
<path id= "34" d=" M 1.30634 -4.42039 L 1.30306 -4.4185 " />
<path id= "35" d=" M 4.56618 0.311362 L 4.3776 1.95789 " />
<path id= "36" d=" M 2.01344 -4.11011 L -0.327205 -5.12621 " />
<path id= "37" d=" M 3.09861 4.94944 L 2.91783 5.05382 " />
<path id= "38" d=" M -2.73704 -5.1582 L -2.91783 -5.05382 " />
</g>
<g   fill="none"
   stroke="rgb(0, 0, 0)"
   stroke-linecap="butt"
   stroke-linejoin="miter"
   stroke-width="0.35"
   transform="scale(1, -1)"
  >
<path d="M17.5736 -13.1465 A3.175 1.83309 60 0 1 19.2507 -11.7462" />
<path d="M16.3712, -12.8212 C16.6464, -13.1531 17.0833, -13.2668 17.5736, -13.1465 " /><path d="M19.9563, -8.92941 C19.9892, -9.52139 19.8499, -10.2108 19.5738, -10.8581  C19.3545, -11.3756 19.0502, -11.8644 18.7056, -12.2604  C18.3498, -12.6707 17.952, -12.9802 17.5736, -13.1465 " /><path d="M20.0686, -8.99422 C20.1194, -9.84846 19.7968, -10.9055 19.2507, -11.7462 " /><path d="M19.1705, -8.47574 C19.2126, -9.20877 18.9851, -10.0915 18.5703, -10.8582  C18.3126, -11.3385 17.986, -11.772 17.6353, -12.1051  C17.401, -12.3274 17.164, -12.5014 16.9243, -12.627  C16.4517, -12.8757 16.0004, -12.9062 15.6747, -12.716 " /><path d="M19.2988, -7.47597 C19.7541, -7.73494 20.0335, -8.29165 20.0686, -8.99422 " /><path d="M19.0583, -8.41093 C19.0909, -8.99917 18.9536, -9.68356 18.681, -10.3273  C18.4617, -10.8485 18.156, -11.3411 17.8094, -11.7398  C17.5144, -12.0801 17.1906, -12.352 16.8727, -12.5293  C16.3785, -12.8074 15.9021, -12.8498 15.5625, -12.6512 " /><path d="M15.5625, -12.6512 Q15.362, -12.5351 15.2296, -12.3204 " /><path d="M18.7522, -7.25603 Q18.9876, -7.29649 19.1865, -7.41115 " /><path d="M19.1865, -7.41115 C19.6418, -7.67013 19.9213, -8.22684 19.9563, -8.92941 " /><path d="M18.2725, -7.95727 C18.3146, -8.6903 18.087, -9.57301 17.6723, -10.3397  C17.4145, -10.8201 17.0879, -11.2536 16.7373, -11.5867  C16.503, -11.809 16.2659, -11.983 16.0262, -12.1086  C15.5537, -12.3572 15.1024, -12.3877 14.7767, -12.1975 " /><path d="M18.4007, -6.95749 C18.856, -7.21647 19.1355, -7.77317 19.1705, -8.47574 " /><path d="M18.1603, -7.89245 C18.1933, -8.48635 18.0529, -9.17827 17.7751, -9.82742  C17.5568, -10.3408 17.2549, -10.8257 16.9132, -11.2193  C16.6168, -11.5616 16.2913, -11.8348 15.9718, -12.0125  C15.4786, -12.2891 15.0034, -12.3309 14.6645, -12.1327 " /><path d="M14.6645, -12.1327 Q14.464, -12.0166 14.3316, -11.802 " /><path d="M17.8542, -6.73755 Q18.0896, -6.77802 18.2885, -6.89268 " /><path d="M18.2885, -6.89268 C18.7438, -7.15165 19.0232, -7.70836 19.0583, -8.41093 " /><path d="M17.3745, -7.43879 C17.4165, -8.17183 17.189, -9.05455 16.7742, -9.82127  C16.5165, -10.3016 16.1899, -10.7351 15.8392, -11.0682  C15.6049, -11.2905 15.3679, -11.4645 15.1281, -11.5901  C14.6556, -11.8388 14.2044, -11.8693 13.8787, -11.679 " /><path d="M17.5027, -6.43902 C17.958, -6.69799 18.2375, -7.2547 18.2725, -7.95727 " /><path d="M17.2622, -7.37397 C17.295, -7.96408 17.1567, -8.65096 16.8824, -9.29651  C16.6637, -9.81414 16.36, -10.3034 16.0158, -10.7001  C15.717, -11.0453 15.3885, -11.3203 15.0665, -11.498  C14.5759, -11.7711 14.1037, -11.8115 13.7664, -11.6142 " /><path d="M13.7664, -11.6142 Q13.566, -11.4982 13.4335, -11.2835 " /><path d="M16.9562, -6.21907 Q17.1916, -6.25954 17.3904, -6.3742 " /><path d="M17.3904, -6.3742 C17.8457, -6.63317 18.1252, -7.18989 18.1603, -7.89245 " /><path d="M16.4765, -6.92032 C16.5185, -7.65336 16.291, -8.53608 15.8762, -9.30281  C15.6185, -9.78314 15.2918, -10.2166 14.9412, -10.5497  C14.7069, -10.7721 14.4698, -10.9461 14.23, -11.0717  C13.7575, -11.3203 13.3063, -11.3508 12.9807, -11.1606 " /><path d="M16.6047, -5.92054 C17.06, -6.17952 17.3395, -6.73622 17.3745, -7.43879 " /><path d="M16.3642, -6.8555 C16.3968, -7.44357 16.2596, -8.12773 15.9872, -8.77132  C15.7679, -9.29237 15.4624, -9.78501 15.1159, -10.1837  C14.8176, -10.528 14.4898, -10.8023 14.1684, -10.9796  C13.6778, -11.2526 13.2056, -11.293 12.8684, -11.0957 " /><path d="M12.8684, -11.0957 Q12.668, -10.9797 12.5355, -10.765 " /><path d="M16.0581, -5.7006 Q16.2935, -5.74106 16.4924, -5.85572 " /><path d="M16.4924, -5.85572 C16.9477, -6.1147 17.2272, -6.67141 17.2622, -7.37397 " /><path d="M15.5784, -6.40184 C15.6205, -7.13489 15.3929, -8.01762 14.9782, -8.78435  C14.7204, -9.26468 14.3938, -9.69819 14.0432, -10.0313  C13.7979, -10.2648 13.5414, -10.4494 13.291, -10.5741  C12.8334, -10.8037 12.3989, -10.8266 12.0826, -10.6421 " /><path d="M15.7067, -5.40207 C16.162, -5.66104 16.4414, -6.21774 16.4765, -6.92032 " /><path d="M15.4662, -6.33702 C15.4992, -6.93068 15.3589, -7.62228 15.0814, -8.2712  C14.8632, -8.78445 14.5615, -9.26928 14.2199, -9.66291  C13.9216, -10.0076 13.5937, -10.2824 13.2721, -10.4602  C12.7809, -10.7341 12.308, -10.7747 11.9704, -10.5773 " /><path d="M11.9704, -10.5773 Q11.7699, -10.4612 11.6375, -10.2465 " /><path d="M15.1601, -5.18212 Q15.3955, -5.22259 15.5944, -5.33725 " /><path d="M15.5944, -5.33725 C16.0497, -5.59622 16.3292, -6.15293 16.3642, -6.8555 " /><path d="M14.6804, -5.88337 C14.7225, -6.61641 14.4949, -7.49914 14.0801, -8.26587  C13.8224, -8.74621 13.4958, -9.17972 13.1451, -9.51281  C12.9009, -9.74445 12.6541, -9.92344 12.4047, -10.0498  C11.9428, -10.2847 11.5036, -10.3098 11.1846, -10.1236 " /><path d="M14.8086, -4.88359 C15.2639, -5.14257 15.5434, -5.69927 15.5784, -6.40184 " /><path d="M14.5681, -5.81854 C14.6013, -6.41428 14.4599, -7.10867 14.1804, -7.75955  C13.9611, -8.27359 13.658, -8.75876 13.3153, -9.15202  C13.0182, -9.49383 12.6921, -9.7662 12.3723, -9.94266  C11.8817, -10.2157 11.4096, -10.256 11.0723, -10.0588 " /><path d="M11.0723, -10.0588 Q10.8719, -9.94272 10.7395, -9.72806 " /><path d="M14.2621, -4.66364 Q14.4975, -4.70411 14.6964, -4.81877 " /><path d="M14.6964, -4.81877 C15.1517, -5.07775 15.4311, -5.63445 15.4662, -6.33702 " /><path d="M13.7824, -5.36489 C13.8244, -6.09794 13.5969, -6.98067 13.1821, -7.7474  C12.9244, -8.22774 12.5978, -8.66125 12.2471, -8.99434  C12.0127, -9.21671 11.7756, -9.3907 11.5358, -9.51631  C11.0634, -9.76488 10.6122, -9.79534 10.2866, -9.60514 " /><path d="M13.9106, -4.36511 C14.3659, -4.62409 14.6454, -5.1808 14.6804, -5.88337 " /><path d="M13.6701, -5.30007 C13.7029, -5.89077 13.5643, -6.57844 13.2894, -7.22455  C13.0701, -7.74339 12.7652, -8.23365 12.4199, -8.63058  C12.1239, -8.97168 11.799, -9.24389 11.4802, -9.42093  C10.9875, -9.69684 10.5129, -9.73834 10.1743, -9.54032 " /><path d="M10.1743, -9.54032 Q9.97388, -9.42425 9.84143, -9.20958 " /><path d="M13.3641, -4.14517 Q13.5994, -4.18563 13.7983, -4.30029 " /><path d="M13.7983, -4.30029 C14.2536, -4.55927 14.5331, -5.11597 14.5681, -5.81854 " /><path d="M12.8844, -4.84642 C12.9264, -5.57947 12.6989, -6.46221 12.2841, -7.22894  C12.0264, -7.70927 11.6997, -8.14278 11.3491, -8.47588  C11.1147, -8.69826 10.8776, -8.87226 10.6378, -8.99786  C10.1653, -9.24641 9.71419, -9.27686 9.38857, -9.08666 " /><path d="M13.0126, -3.84664 C13.4679, -4.10562 13.7474, -4.66232 13.7824, -5.36489 " /><path d="M12.7721, -4.78159 C12.8047, -5.36882 12.6679, -6.05188 12.3962, -6.69468  C12.1775, -7.21531 11.8726, -7.70772 11.5266, -8.10656  C11.2277, -8.45216 10.899, -8.7275 10.5768, -8.90543  C10.086, -9.17871 9.61363, -9.21913 9.27628, -9.02184 " /><path d="M9.27628, -9.02184 Q9.07585, -8.90577 8.9434, -8.69111 " /><path d="M12.466, -3.62669 Q12.7014, -3.66716 12.9003, -3.78182 " /><path d="M12.9003, -3.78182 C13.3556, -4.04079 13.6351, -4.5975 13.6701, -5.30007 " /><path d="M11.9863, -4.32794 C12.0284, -5.06099 11.8008, -5.94374 11.3861, -6.71047  C11.1283, -7.19081 10.8017, -7.62432 10.451, -7.95741  C10.2166, -8.17981 9.97951, -8.35381 9.73968, -8.47941  C9.26727, -8.72794 8.81616, -8.75838 8.49054, -8.56819 " /><path d="M12.1146, -3.32816 C12.5699, -3.58714 12.8493, -4.14385 12.8844, -4.84642 " /><path d="M11.8741, -4.26311 C11.9068, -4.85198 11.7691, -5.5372 11.4959, -6.18155  C11.2776, -6.69957 10.9741, -7.1894 10.6299, -7.58662  C10.3341, -7.92891 10.009, -8.20243 9.6899, -8.38075  C9.19515, -8.65952 8.71814, -8.70219 8.37825, -8.50336 " /><path d="M8.37825, -8.50336 Q8.17782, -8.38729 8.04538, -8.17263 " /><path d="M11.568, -3.10821 Q11.8034, -3.14868 12.0023, -3.26334 " /><path d="M12.0023, -3.26334 C12.4576, -3.52231 12.7371, -4.07902 12.7721, -4.78159 " /><path d="M11.0883, -3.80947 C11.1304, -4.54252 10.9028, -5.42527 10.488, -6.19202  C10.2303, -6.67235 9.90364, -7.10586 9.55298, -7.43895  C9.31855, -7.66137 9.08141, -7.83538 8.84156, -7.96099  C8.36918, -8.20946 7.91812, -8.23989 7.59251, -8.04971 " /><path d="M11.2165, -2.80969 C11.6718, -3.06867 11.9513, -3.62537 11.9863, -4.32794 " /><path d="M10.976, -3.74464 C11.0088, -4.33508 10.8703, -5.02241 10.5957, -5.66828  C10.3759, -6.18838 10.0702, -6.67979 9.72387, -7.07732  C9.42695, -7.4191 9.10098, -7.69152 8.78135, -7.86813  C8.29033, -8.14171 7.81772, -8.18226 7.48023, -7.98488 " /><path d="M7.48023, -7.98488 Q7.27979, -7.86882 7.14735, -7.65416 " /><path d="M10.67, -2.58974 Q10.9054, -2.6302 11.1042, -2.74486 " /><path d="M11.1042, -2.74486 C11.5595, -3.00384 11.839, -3.56055 11.8741, -4.26311 " /><path d="M10.1903, -3.29099 C10.2323, -4.02405 10.0048, -4.9068 9.58999, -5.67355  C9.33225, -6.15388 9.00561, -6.58739 8.65495, -6.92048  C8.42051, -7.14291 8.18337, -7.31692 7.94351, -7.44253  C7.47114, -7.69099 7.02008, -7.72141 6.69449, -7.53124 " /><path d="M10.3185, -2.29121 C10.7738, -2.55019 11.0533, -3.1069 11.0883, -3.80947 " /><path d="M10.078, -3.22616 C10.1109, -3.81753 9.97187, -4.50608 9.69639, -5.15282  C9.47779, -5.6692 9.17457, -6.15718 8.83103, -6.55287  C8.5349, -6.8949 8.20962, -7.16799 7.8904, -7.34572  C7.39687, -7.62279 6.9213, -7.66476 6.5822, -7.46641 " /><path d="M6.5822, -7.46641 Q6.38177, -7.35034 6.24932, -7.13568 " /><path d="M9.77195, -2.07126 Q10.0073, -2.11173 10.2062, -2.22639 " /><path d="M10.2062, -2.22639 C10.6615, -2.48536 10.941, -3.04207 10.976, -3.74464 " /><path d="M9.29227, -2.77252 C9.33432, -3.50558 9.10676, -4.38834 8.69196, -5.15508  C8.43422, -5.63542 8.10758, -6.06893 7.75691, -6.40202  C7.52246, -6.62446 7.28529, -6.79848 7.04542, -6.92408  C6.57307, -7.17252 6.12204, -7.20293 5.79646, -7.01276 " /><path d="M9.42047, -1.77274 C9.87578, -2.03172 10.1553, -2.58842 10.1903, -3.29099 " /><path d="M9.17997, -2.70768 C9.21289, -3.30006 9.07335, -3.98997 8.79695, -4.63767  C8.57726, -5.1557 8.27242, -5.64496 7.92728, -6.04099  C7.63022, -6.38279 7.30412, -6.65517 6.98441, -6.83167  C6.49371, -7.10481 6.02146, -7.14518 5.68417, -6.94793 " /><path d="M5.68417, -6.94793 Q5.48374, -6.83186 5.35129, -6.6172 " /><path d="M8.87392, -1.55278 Q9.10931, -1.59325 9.30819, -1.70791 " /><path d="M9.30819, -1.70791 C9.76349, -1.96688 10.043, -2.5236 10.078, -3.22616 " /><path d="M8.39424, -2.25404 C8.4363, -2.98711 8.20873, -3.86987 7.79393, -4.63661  C7.53619, -5.11695 7.20955, -5.55046 6.85888, -5.88355  C6.62442, -6.106 6.38725, -6.28002 6.14736, -6.40562  C5.67503, -6.65405 5.22401, -6.68445 4.89844, -6.49429 " /><path d="M8.52245, -1.25426 C8.97775, -1.51324 9.25724, -2.06995 9.29227, -2.77252 " /><path d="M8.28195, -2.18921 C8.31491, -2.78237 8.17495, -3.47331 7.89783, -4.12176  C7.67999, -4.63467 7.37874, -5.11927 7.03757, -5.51292  C6.74059, -5.85652 6.41417, -6.1308 6.09386, -6.30904  C5.6005, -6.58586 5.12514, -6.62774 4.78614, -6.42945 " /><path d="M4.78614, -6.42945 Q4.58571, -6.31339 4.45327, -6.09873 " /><path d="M7.9759, -1.03431 Q8.21128, -1.07478 8.41016, -1.18943 " /><path d="M8.41016, -1.18943 C8.86546, -1.44841 9.14494, -2.00512 9.17997, -2.70768 " /><path d="M7.49622, -1.73557 C7.53827, -2.46863 7.3107, -3.3514 6.8959, -4.11815  C6.63816, -4.59849 6.31151, -5.032 5.96084, -5.36508  C5.72637, -5.58754 5.48919, -5.76157 5.24929, -5.88717  C4.77698, -6.13558 4.32597, -6.16596 4.00041, -5.97581 " /><path d="M7.62442, -0.735789 C8.07973, -0.994766 8.35922, -1.55147 8.39424, -2.25404 " /><path d="M7.38392, -1.67073 C7.41693, -2.26459 7.27658, -2.95646 6.99883, -3.60557  C6.78052, -4.11891 6.47869, -4.60379 6.13699, -4.99739  C5.84097, -5.33931 5.51582, -5.61234 5.1967, -5.79007  C4.70304, -6.06733 4.22731, -6.10938 3.88811, -5.91098 " /><path d="M3.88811, -5.91098 Q3.68768, -5.79491 3.55524, -5.58025 " /><path d="M7.07787, -0.515831 Q7.31325, -0.5563 7.51213, -0.670956 " /><path d="M7.51213, -0.670956 C7.96743, -0.929931 8.24691, -1.48664 8.28195, -2.18921 " /><path d="M6.59819, -1.21709 C6.64025, -1.95016 6.41268, -2.83293 5.99787, -3.59968  C5.74013, -4.08002 5.41348, -4.51353 5.06281, -4.84662  C4.82832, -5.06908 4.59113, -5.24312 4.35122, -5.36872  C3.87892, -5.6171 3.42793, -5.64748 3.10239, -5.45734 " /><path d="M6.7264, -0.217314 C7.1817, -0.476291 7.46119, -1.03299 7.49622, -1.73557 " /><path d="M6.48589, -1.15225 C6.51894, -1.74677 6.37823, -2.43953 6.09987, -3.08927  C5.88118, -3.60291 5.57889, -4.08794 5.23678, -4.48144  C4.94156, -4.82192 4.6175, -5.09388 4.2994, -5.27119  C3.80548, -5.54881 3.32944, -5.59101 2.99009, -5.3925 " /><path d="M2.99009, -5.3925 Q2.78966, -5.27643 2.65721, -5.06178 " /><path d="M6.17984, 0.00264529 Q6.41523, -0.0378229 6.6141, -0.152479 " /><path d="M6.6141, -0.152479 C7.0694, -0.411454 7.34888, -0.968163 7.38392, -1.67073 " /><path d="M5.70017, -0.698616 C5.74222, -1.43169 5.51465, -2.31446 5.09984, -3.08121  C4.8421, -3.56155 4.51545, -3.99507 4.16477, -4.32815  C3.93028, -4.55063 3.69307, -4.72467 3.45315, -4.85027  C2.98087, -5.09863 2.5299, -5.129 2.20436, -4.93886 " /><path d="M5.82837, 0.301161 C6.28368, 0.0421848 6.56317, -0.514521 6.59819, -1.21709 " /><path d="M5.58786, -0.633777 C5.62095, -1.22889 5.47992, -1.92244 5.20102, -2.57273  C4.98198, -3.08662 4.67929, -3.57177 4.33683, -3.96517  C4.04041, -4.30661 3.715, -4.57894 3.39582, -4.75581  C2.90387, -5.03069 2.43015, -5.07176 2.09206, -4.87402 " /><path d="M2.09206, -4.87402 Q1.89163, -4.75796 1.75919, -4.5433 " /><path d="M5.28182, 0.521122 Q5.5172, 0.480653 5.71607, 0.365998 " /><path d="M5.71607, 0.365998 C6.17138, 0.107023 6.45085, -0.449687 6.48589, -1.15225 " /><path d="M4.80214, -0.180141 C4.8442, -0.913217 4.61662, -1.79599 4.20181, -2.56275  C3.94406, -3.04309 3.61741, -3.4766 3.26674, -3.80969  C3.03223, -4.03217 2.79501, -4.20622 2.55508, -4.33182  C2.08281, -4.58016 1.63186, -4.61052 1.30634, -4.42039 " /><path d="M4.93035, 0.819636 C5.38565, 0.56066 5.66514, 0.00395278 5.70017, -0.698616 " /><path d="M4.8213, -0.752401 L4.784, -0.755847 " /><path d="M5.58786, -0.633777 L4.8213, -0.752401 " /><path d="M4.80214, -0.180141 C4.78211, 0.252373 4.67736, 0.629037 4.49797, 0.906905 " /><path d="M4.48339, 1.03426 Q4.64312, 0.985394 4.78461, 0.903776 " /><path d="M4.78461, 0.903776 C5.26223, 0.632417 5.55738, 0.0704791 5.58786, -0.633777 " /><path d="M4.35633 0.786964 A4.92456 2.8432 60 0 1 4.40409 1.47819" />
<path d="M4.35633, 0.786964 Q4.31617, 1.15467 4.26699, 1.59115 " /><path d="M-2.73704 -5.1582 A5.83565 3.36921 60 0 1 -0.327205 -5.12621" />
<path d="M-0.327205 -5.12621 A5.83565 3.36921 60 0 1 4.26699 1.59115" />
<path d="M-3.90542, -1.7999 Q-3.68402, -1.80822 -3.47343, -1.81606 " /><path d="M4.26699 2.91844 A5.83565 3.36921 60 0 1 3.09861 4.94944" />
<path d="M4.35633, 2.11426 Q4.31617, 2.48197 4.26699, 2.91844 " /><path d="M4.40409 1.47819 A4.92456 2.8432 60 0 1 4.3776 1.95789" />
<path d="M4.3776 1.95789 A4.92456 2.8432 60 0 1 4.35633 2.11426" />
<path id= "117" d=" M 3.51053 1.62594 L 4.35633 2.11426 " />
<path id= "118" d=" M -3.90542 -1.7999 L -4.08621 -1.69552 " />
<path d="M-4.08621 -1.69552 A10.1151 5.83993 3.11665e-15 0 0 4.08621 3.02282" />
<path id= "120" d=" M 4.26699 2.91844 L 4.08621 3.02282 " />
<path d="M4.08621 3.02282 A5.83565 3.36921 60 0 1 2.91783 5.05382" />
<path d="M2.91782 5.05382 A5.83565 3.36921 60 0 1 -4.08621 -1.69552" />
<path d="M-4.08621 -3.02282 A10.1151 5.83993 3.11665e-15 0 0 4.08621 1.69552" />
<path id= "124" d=" M 4.26699 1.59115 L 4.08621 1.69552 " />
<path d="M-4.08621 -3.02282 A5.83565 3.36921 60 0 1 -2.91782 -5.05382" />
<path d="M-2.91782 -5.05382 A5.83565 3.36921 60 0 1 4.08621 1.69552" />
</g>

</svg>
