<svg xmlns="http://www.w3.org/2000/svg" viewBox="-6.7033732 -1.7374032 13.4067464 3.4748064">
<rect width="100%" height="100%" fill="white"/>
<g   fill="none"
   stroke="rgb(0, 0, 0)"
   stroke-linecap="butt"
   stroke-linejoin="miter"
   stroke-width="0.35"
   transform="scale(1, -1)"
  >
<path d="M4.85702 -0.8128 A4.92456 4.92456 0 0 1 4.92456 -1.20617e-15" /><path d="M-4.85702 0.8128 A4.92456 4.92456 0 0 1 -4.85702 -0.8128" /><path d="M4.92456 0 A4.92456 4.92456 0 0 1 4.85702 0.8128" /><path d="M-5.77877, 0.8128 Q-5.40774, 0.8128 -5.0367, 0.8128  Q-4.64667, 0.8128 -4.25665, 0.8128  Q-3.85057, 0.8128 -3.44449, 0.8128  Q-3.02543, 0.8128 -2.60636, 0.8128  Q-2.17747, 0.8128 -1.74857, 0.8128  Q-0.879451, 0.8128 2.62013e-14, 0.8128  Q0.438798, 0.8128 0.877595, 0.8128  Q1.31308, 0.8128 1.74857, 0.8128  Q2.17747, 0.8128 2.60636, 0.8128  Q3.02543, 0.8128 3.44449, 0.8128  Q3.85057, 0.8128 4.25665, 0.8128  Q4.64667, 0.8128 5.0367, 0.8128  Q5.40774, 0.8128 5.77877, 0.8128 " /><path d="M5.77877 0.8128 A5.83565 5.83565 0 0 1 -5.77877 0.8128" /><path d="M-5.77877, -0.8128 Q-5.40774, -0.8128 -5.0367, -0.8128  Q-4.64667, -0.8128 -4.25665, -0.8128  Q-3.85057, -0.8128 -3.44449, -0.8128  Q-3.02543, -0.8128 -2.60636, -0.8128  Q-2.17747, -0.8128 -1.74857, -0.8128  Q-0.879451, -0.8128 2.62013e-14, -0.8128  Q0.438798, -0.8128 0.877595, -0.8128  Q1.31308, -0.8128 1.74857, -0.8128  Q2.17747, -0.8128 2.60636, -0.8128  Q3.02543, -0.8128 3.44449, -0.8128  Q3.85057, -0.8128 4.25665, -0.8128  Q4.64667, -0.8128 5.0367, -0.8128  Q5.40774, -0.8128 5.77877, -0.8128 " /><path d="M-5.77877 -0.8128 A5.83565 5.83565 0 0 1 5.77877 -0.8128" /></g>

</svg>
