<svg xmlns="http://www.w3.org/2000/svg" viewBox="-8.41 -8.41 16.82 16.82">
<rect width="100%" height="100%" fill="white"/>
<g   fill="none"
   stroke="rgb(0, 0, 0)"
   stroke-linecap="butt"
   stroke-linejoin="miter"
   stroke-width="0.35"
   transform="scale(1, -1)"
  >
<path d="M2.57295 -1.93825 A8.19764 0.640992 128.839 0 1 1.84841 -0.99" />
<path d="M2.57295 -1.93825 A3.22132 3.22132 0 0 0 1.93825 -2.57295" /><path d="M0.99 -1.84841 A8.19764 0.640992 -38.8389 0 1 1.93825 -2.57295" />
<path d="M5.80647e-14 -1.55963 A8.16892 0.783336 -16.9194 0 1 0.99 -1.84841" />
<path d="M-0.99 -1.84841 A8.16892 0.783336 16.9194 0 1 -6.0868e-14 -1.55963" />
<path d="M-1.93825 -2.57295 A8.19764 0.640992 38.8389 0 1 -0.99 -1.84841" />
<path d="M-1.93825 -2.57295 A3.22132 3.22132 0 0 0 -2.57295 -1.93825" /><path d="M-1.84841 -0.99 A8.19764 0.640992 -128.839 0 1 -2.57295 -1.93825" />
<path d="M-1.55963 -5.80924e-14 A8.16892 0.783336 -106.919 0 1 -1.84841 -0.99" />
<path d="M-1.84841 0.99 A8.16892 0.783336 -73.0806 0 1 -1.55963 6.0868e-14" />
<path d="M-2.57295 1.93825 A8.19764 0.640992 -51.1611 0 1 -1.84841 0.99" />
<path d="M-2.57295 1.93825 A3.22132 3.22132 0 0 0 -1.93825 2.57295" /><path d="M-0.99 1.84841 A8.19764 0.640992 141.161 0 1 -1.93825 2.57295" />
<path d="M-5.80647e-14 1.55963 A8.16892 0.783336 163.081 0 1 -0.99 1.84841" />
<path d="M0.99 1.84841 A8.16892 0.783336 -163.081 0 1 6.0868e-14 1.55963" />
<path d="M1.93825 2.57295 A8.19764 0.640992 -141.161 0 1 0.99 1.84841" />
<path d="M1.93825 2.57295 A3.22132 3.22132 0 0 0 2.57295 1.93825" /><path d="M1.84841 0.99 A8.19764 0.640992 51.1611 0 1 2.57295 1.93825" />
<path d="M1.55963 5.80924e-14 A8.16892 0.783336 73.0806 0 1 1.84841 0.99" />
<circle cx ="0" cy ="0" r ="6.29901" /><path d="M1.84841 -0.99 A8.16892 0.783336 106.919 0 1 1.55963 -6.08957e-14" />
<path id= "22" d=" M 1.84841 -0.99 L 1.53964 -0.99 " />
<path id= "23" d=" M 1.55963 0 L 1.205 0 " />
<path d="M1.53964, -0.99 C1.39439, -0.573499 1.29292, -0.273325 1.205, -1.98674e-13 " /><path d="M2.57295, -1.93825 C2.15074, -1.55612 1.83875, -1.27349 1.5906, -1.04834 " /><path d="M1.5906, -1.04834 L1.53964, -0.99 " /><path d="M1.04834, -1.5906 C1.27349, -1.83875 1.55612, -2.15074 1.93825, -2.57295 " /><path d="M1.04834 -1.5906 A1.905 1.905 0 0 1 1.5906 -1.04834" /><path id= "29" d=" M 0.99 -1.84841 L 0.99 -1.53964 " />
<path d="M0.99, -1.53964 L1.04834, -1.5906 " /><path id= "31" d=" M -3.46308e-16 -1.55963 L -2.67564e-16 -1.205 " />
<path d="M1.98563e-13, -1.205 C0.273325, -1.29292 0.573499, -1.39439 0.99, -1.53964 " /><path id= "33" d=" M -0.99 -1.84841 L -0.99 -1.53964 " />
<path d="M-0.99, -1.53964 C-0.573499, -1.39439 -0.273325, -1.29292 -1.98827e-13, -1.205 " /><path d="M-1.93825, -2.57295 C-1.55612, -2.15074 -1.27349, -1.83875 -1.04834, -1.5906 " /><path d="M-1.04834, -1.5906 L-0.99, -1.53964 " /><path d="M-1.5906, -1.04834 C-1.83875, -1.27349 -2.15074, -1.55612 -2.57295, -1.93825 " /><path d="M-1.5906 -1.04834 A1.905 1.905 0 0 1 -1.04834 -1.5906" /><path id= "39" d=" M -1.84841 -0.99 L -1.53964 -0.99 " />
<path d="M-1.53964, -0.99 L-1.5906, -1.04834 " /><path id= "41" d=" M -1.55963 1.91e-16 L -1.205 1.4757e-16 " />
<path d="M-1.205, -1.98563e-13 C-1.29292, -0.273325 -1.39439, -0.573499 -1.53964, -0.99 " /><path id= "43" d=" M -1.84841 0.99 L -1.53964 0.99 " />
<path d="M-1.53964, 0.99 C-1.39439, 0.573499 -1.29292, 0.273325 -1.205, 1.98674e-13 " /><path d="M-2.57295, 1.93825 C-2.15074, 1.55612 -1.83875, 1.27349 -1.5906, 1.04834 " /><path d="M-1.5906, 1.04834 L-1.53964, 0.99 " /><path d="M-1.04834, 1.5906 C-1.27349, 1.83875 -1.55612, 2.15074 -1.93825, 2.57295 " /><path d="M-1.04834 1.5906 A1.905 1.905 0 0 1 -1.5906 1.04834" /><path id= "49" d=" M -0.99 1.84841 L -0.99 1.53964 " />
<path d="M-0.99, 1.53964 L-1.04834, 1.5906 " /><path id= "51" d=" M 1.73154e-16 1.55963 L 1.33782e-16 1.205 " />
<path d="M-1.98563e-13, 1.205 C-0.273325, 1.29292 -0.573499, 1.39439 -0.99, 1.53964 " /><path id= "53" d=" M 0.99 1.84841 L 0.99 1.53964 " />
<path d="M0.99, 1.53964 C0.573499, 1.39439 0.273325, 1.29292 1.98827e-13, 1.205 " /><path d="M1.93825, 2.57295 C1.55612, 2.15074 1.27349, 1.83875 1.04834, 1.5906 " /><path d="M1.04834, 1.5906 L0.99, 1.53964 " /><path d="M1.5906, 1.04834 C1.83875, 1.27349 2.15074, 1.55612 2.57295, 1.93825 " /><path d="M1.5906 1.04834 A1.905 1.905 0 0 1 1.04834 1.5906" /><path id= "59" d=" M 1.84841 0.99 L 1.53964 0.99 " />
<path d="M1.53964, 0.99 L1.5906, 1.04834 " /><path d="M1.205, 1.98563e-13 C1.29292, 0.273325 1.39439, 0.573499 1.53964, 0.99 " /><circle cx ="0" cy ="0" r ="7.25" /></g>

</svg>
