<svg xmlns="http://www.w3.org/2000/svg" viewBox="-8.5037364 -11.9323264 17.8714328 23.0481328">
<rect width="100%" height="100%" fill="white"/>
<g   fill="none"
   stroke="rgb(0, 0, 0)"
   stroke-linecap="butt"
   stroke-linejoin="miter"
   stroke-width="0.35"
   transform="scale(1, -1)"
  >
<path id= "1" d=" M -6.91421 -8.70978 L -5.5 -9.52628 " />
<path id= "2" d=" M 4.08579 10.3428 L 5.5 9.52628 " />
</g>
<g   fill="none"
   stroke="rgb(0, 0, 0)"
   stroke-linecap="butt"
   stroke-linejoin="miter"
   stroke-width="0.35"
   transform="scale(1, -1)"
  >
<path d="M0.919239 2.16372 A3.3 1.90526 60 0 1 0.235786 3.67438" />
<path d="M0.235786 3.67438 A3.3 1.90526 60 0 1 -3.06421 -2.04139" />
<path d="M-3.06421 -2.04139 A3.3 1.90526 60 0 1 0.919239 2.16372" />
<path d="M6.36396 5.30723 A11 6.35085 60 0 1 4.08579 10.3428" />
<path d="M4.08579 10.3428 A11 6.35085 60 0 1 -6.91421 -8.70978" />
<path d="M-6.91421 -8.70978 A11 6.35085 60 0 1 6.36396 5.30723" />
<path d="M7.77817 4.49073 A11 6.35085 60 0 1 5.5 9.52628" />
<path d="M-5.5 -9.52628 A11 6.35085 60 0 1 7.77817 4.49073" />
<path d="M0.783698 2.9904 A3.3 1.90526 60 0 1 -2.19791 -2.1739" />
</g>

</svg>
