<svg xmlns="http://www.w3.org/2000/svg" viewBox="-9.6675596 -8.4492896 27.3961492 20.916679199999997">
<rect width="100%" height="100%" fill="white"/>
<g   fill="none"
   stroke="rgb(0, 0, 0)"
   stroke-linecap="butt"
   stroke-linejoin="miter"
   stroke-width="0.35"
   transform="scale(1, -1)"
  >
<path d="M1.56434, 5.15901 C1.18471, 5.37892 0.736672, 5.47421 0.267872, 5.44278  C0.114708, 5.43268 -0.0403123, 5.40976 -0.197187, 5.37405  C-0.429013, 5.32113 -0.662122, 5.24191 -0.896513, 5.1364 " /><path d="M-4.89651, -1.7918 C-4.85338, -2.22126 -4.74831, -2.60734 -4.5813, -2.95002  C-4.37408, -3.37328 -4.06694, -3.71487 -3.68566, -3.93426 " /><path id= "3" d=" M -7.24861 -0.433818 L -3.41421 -2.64761 " />
<path id= "4" d=" M -3.24861 6.49439 L 0.585786 4.2806 " />
<path id= "5" d=" M -3.68566 -3.93426 L -2.625 -4.54663 " />
<path id= "6" d=" M 1.56434 5.15901 L 2.625 4.54663 " />
<path id= "7" d=" M 0.912971 -3.99121 L 1.0014 -4.04226 " />
<path id= "8" d=" M 4.26653 1.00082 L 4.35495 0.949772 " />
<path id= "9" d=" M 1.62008 -4.39945 L 1.7085 -4.45051 " />
<path id= "10" d=" M 4.97363 0.592572 L 5.06205 0.541524 " />
<path id= "11" d=" M 2.32719 -4.8077 L 2.41561 -4.85875 " />
<path id= "12" d=" M 5.68074 0.184323 L 5.76916 0.133275 " />
<path id= "13" d=" M 3.0343 -5.21595 L 3.12272 -5.267 " />
<path id= "14" d=" M 6.38785 -0.223926 L 6.47627 -0.274973 " />
<path id= "15" d=" M 3.7414 -5.6242 L 3.82982 -5.67525 " />
<path id= "16" d=" M 7.09496 -0.632176 L 7.18337 -0.683221 " />
<path id= "17" d=" M 4.44851 -6.03245 L 4.53693 -6.0835 " />
<path id= "18" d=" M 7.80207 -1.04042 L 7.89048 -1.09147 " />
<path id= "19" d=" M 5.15562 -6.4407 L 5.24403 -6.49175 " />
<path id= "20" d=" M 8.50918 -1.44867 L 8.59759 -1.49972 " />
<path id= "21" d=" M 5.86273 -6.84895 L 5.95114 -6.89999 " />
<path id= "22" d=" M 9.21629 -1.85692 L 9.30469 -1.90797 " />
<path id= "23" d=" M 6.56984 -7.2572 L 6.65825 -7.30824 " />
<path id= "24" d=" M 9.92339 -2.26517 L 10.0118 -2.31621 " />
<path id= "25" d=" M 7.27695 -7.66545 L 7.36535 -7.71649 " />
<path id= "26" d=" M 10.6305 -2.67342 L 10.7189 -2.72446 " />
<path id= "27" d=" M 7.98405 -8.0737 L 8.07246 -8.12474 " />
<path id= "28" d=" M 11.3376 -3.08167 L 11.426 -3.13271 " />
<path id= "29" d=" M 8.69116 -8.48195 L 8.77957 -8.53299 " />
<path id= "30" d=" M 12.0447 -3.48992 L 12.1331 -3.54096 " />
<path id= "31" d=" M 9.39827 -8.8902 L 9.48667 -8.94124 " />
<path id= "32" d=" M 12.7518 -3.89817 L 12.8402 -3.94921 " />
<path id= "33" d=" M 10.1054 -9.29845 L 10.1938 -9.34948 " />
<path id= "34" d=" M 13.4589 -4.30642 L 13.5473 -4.35745 " />
<path id= "35" d=" M 10.8125 -9.70669 L 10.9009 -9.75773 " />
<path id= "36" d=" M 14.166 -4.71467 L 14.2544 -4.7657 " />
<path id= "37" d=" M 11.5196 -10.1149 L 11.608 -10.166 " />
<path id= "38" d=" M 14.8732 -5.12292 L 14.9615 -5.17395 " />
<path id= "39" d=" M 13.7388 -10.3574 L 13.7179 -10.3695 " />
<path id= "40" d=" M 14.1421 -10.1246 L 14.1147 -10.1404 " />
</g>
<g   fill="none"
   stroke="rgb(0, 0, 0)"
   stroke-linecap="butt"
   stroke-linejoin="miter"
   stroke-width="0.35"
   transform="scale(1, -1)"
  >
<path id= "1" d=" M 0.707107 4.20149 L 0.707107 -0.119005 " />
<path d="M0.585786 4.2806 A4 2.3094 -120 0 0 0.707107 4.20149" />
<path d="M-3.28504 -2.71312 A4 2.3094 -120 0 0 -3.41421 -2.64761" />
<path id= "4" d=" M -3.28504 -2.71312 L 0.456615 -0.55287 " />
<path d="M0.707107 -0.119005 A4 2.3094 -120 0 0 0.456615 -0.55287" />
<path d="M-3.53553, 4.49073 C-3.53349, 5.13974 -3.41126, 5.71593 -3.12729, 6.41528 " /><path d="M-3.12729, 2.09478 C-3.14687, 2.16681 -3.16646, 2.23884 -3.18605, 2.31087  C-3.20394, 2.37979 -3.22183, 2.44871 -3.23972, 2.51763  C-3.25598, 2.58367 -3.27224, 2.64971 -3.28849, 2.71574  C-3.30317, 2.77911 -3.31784, 2.84247 -3.33251, 2.90584  C-3.34565, 2.96674 -3.35878, 3.02764 -3.37192, 3.08854  C-3.39602, 3.20697 -3.41785, 3.32214 -3.4374, 3.43408  C-3.50301, 3.8221 -3.53492, 4.16574 -3.53553, 4.49073 " /><path id= "8" d=" M -3.12729 2.09478 L 0.707107 -0.119005 " />
<path id= "9" d=" M -3.12729 6.41528 L 0.707107 4.20149 " />
<path d="M-3.37778 1.66092 A4 2.3094 60 0 1 -3.12729 2.09478" />
<path id= "11" d=" M -3.37778 1.66092 L 0.456615 -0.55287 " />
<path d="M-5.65685, 0.816497 C-6.21789, 0.490223 -6.65577, 0.0962774 -7.11943, -0.499329 " /><path d="M-3.37778, 1.66092 C-3.44995, 1.64187 -3.52212, 1.62282 -3.59429, 1.60376  C-3.66293, 1.5848 -3.73156, 1.56583 -3.8002, 1.54687  C-3.86551, 1.52793 -3.93083, 1.50899 -3.99615, 1.49005  C-4.05836, 1.47107 -4.12058, 1.4521 -4.18279, 1.43312  C-4.2421, 1.41405 -4.30141, 1.39497 -4.36071, 1.3759  C-4.47532, 1.33756 -4.58599, 1.29887 -4.6927, 1.25984  C-5.06154, 1.12264 -5.3751, 0.978461 -5.65685, 0.816497 " /><path id= "14" d=" M -7.11943 -0.499329 L -3.28504 -2.71312 " />
<path d="M-7.36993 -0.354708 A4 2.3094 60 0 1 -7.24861 -0.433818" />
<path d="M-7.24861 -0.433818 A4 2.3094 60 0 1 -7.11943 -0.499329" />
<path d="M-7.77817, 2.04124 C-7.77613, 2.69025 -7.6539, 3.26644 -7.36993, 3.96579 " /><path d="M-7.36993, -0.354708 C-7.38951, -0.282679 -7.4091, -0.210651 -7.42869, -0.138623  C-7.44658, -0.0697014 -7.46447, -0.000779883 -7.48237, 0.0681416  C-7.49862, 0.134179 -7.51488, 0.200216 -7.53113, 0.266253  C-7.54581, 0.329619 -7.56048, 0.392985 -7.57515, 0.456351  C-7.58829, 0.517251 -7.60142, 0.57815 -7.61456, 0.63905  C-7.63866, 0.757476 -7.66049, 0.872655 -7.68004, 0.984586  C-7.74565, 1.37261 -7.77756, 1.71625 -7.77817, 2.04124 " /><path d="M-7.11943 4.39965 A4 2.3094 60 0 1 -7.36993 3.96579" />
<path d="M-5.65685, 5.71548 C-6.21789, 5.3892 -6.65577, 4.99526 -7.11943, 4.39965 " /><path d="M-3.37778, 6.5599 C-3.44995, 6.54085 -3.52212, 6.52179 -3.59429, 6.50274  C-3.66293, 6.48378 -3.73156, 6.46481 -3.8002, 6.44585  C-3.86551, 6.42691 -3.93083, 6.40797 -3.99615, 6.38903  C-4.05836, 6.37005 -4.12058, 6.35108 -4.18279, 6.3321  C-4.2421, 6.31303 -4.30141, 6.29395 -4.36071, 6.27488  C-4.47532, 6.23654 -4.58599, 6.19785 -4.6927, 6.15882  C-5.06154, 6.02162 -5.3751, 5.87744 -5.65685, 5.71548 " /><path d="M-3.12729 6.41528 A4 2.3094 60 0 1 -3.24861 6.49439" />
<path d="M-3.24861 6.49439 A4 2.3094 60 0 1 -3.37778 6.5599" />
<path d="M3.71231 2.1433 A5.25 3.03109 60 0 1 2.625 4.54663" />
<path d="M-2.625 -4.54663 A5.25 3.03109 60 0 1 3.71231 2.1433" />
<path d="M-3.53553 4.49073 A3 1.73205 60 0 1 -5.65685 5.71548" />
<path d="M-5.65685 0.816497 A3 1.73205 60 0 1 -3.53553 4.49073" />
<path d="M-7.77817 2.04124 A3 1.73205 60 0 1 -5.65685 0.816497" />
<path d="M-5.65685 5.71548 A3 1.73205 60 0 1 -7.77817 2.04124" />
<path d="M3.65044, 0.341905 Q3.63843, 0.638678 3.57135, 0.891887 " /><path d="M3.65293, 1.34541 C4.02444, 1.07265 4.24677, 0.582481 4.26913, -0.0152916 " /><path d="M3.65044, 0.341905 C3.6844, -0.353652 3.45851, -1.19332 3.05353, -1.9189  C2.80413, -2.36942 2.49013, -2.77477 2.15414, -3.08452  C1.68816, -3.5167 1.18218, -3.75796 0.763204, -3.7544 " /><path d="M3.65421, 1.35432 C4.07481, 1.11152 4.33045, 0.590738 4.35755, -0.066343 " /><path d="M4.35755, -0.066343 C4.3915, -0.761901 4.16562, -1.60157 3.76064, -2.32715  C3.51124, -2.77767 3.19723, -3.18302 2.86125, -3.49277  C2.64085, -3.69579 2.41816, -3.85456 2.1932, -3.96908  C1.74309, -4.19924 1.31329, -4.22438 1.0014, -4.04226 " /><path d="M4.35495, 0.949772 C4.77926, 0.708472 5.03745, 0.185854 5.06466, -0.474591 " /><path d="M4.26913, -0.0152916 C4.29799, -0.622945 4.13136, -1.34041 3.81668, -1.99587  C3.59574, -2.45911 3.30384, -2.88994 2.98037, -3.23522  C2.71342, -3.52084 2.42557, -3.74811 2.14336, -3.89797  C1.67941, -4.1463 1.23373, -4.17868 0.912971, -3.99121 " /><path d="M0.912971, -3.99121 Q0.790569, -3.92048 0.693328, -3.81089 " /><path d="M3.92935, 1.13121 Q4.11048, 1.09084 4.26653, 1.00082 " /><path d="M4.26653, 1.00082 C4.69084, 0.759523 4.94902, 0.236901 4.97623, -0.423541 " /><path d="M5.06466, -0.474591 C5.09861, -1.17015 4.87272, -2.00982 4.46774, -2.7354  C4.21834, -3.18592 3.90434, -3.59127 3.56835, -3.90102  C3.34795, -4.10404 3.12526, -4.26281 2.9003, -4.37733  C2.45019, -4.60749 2.0204, -4.63263 1.7085, -4.45051 " /><path d="M5.06205, 0.541523 C5.48637, 0.300224 5.74456, -0.222394 5.77176, -0.882839 " /><path d="M4.97623, -0.423541 C5.0051, -1.03119 4.83847, -1.74866 4.52379, -2.40412  C4.30286, -2.86735 4.01096, -3.29818 3.68749, -3.64345  C3.42074, -3.92886 3.13314, -4.156 2.85113, -4.30586  C2.38695, -4.55452 1.94099, -4.58702 1.62008, -4.39945 " /><path d="M1.62008, -4.39945 Q1.46334, -4.30882 1.34855, -4.15537 " /><path d="M4.63646, 0.72296 Q4.81758, 0.68259 4.97363, 0.592572 " /><path d="M4.97363, 0.592572 C5.39795, 0.351274 5.65613, -0.171349 5.68334, -0.83179 " /><path d="M5.77176, -0.882839 C5.80571, -1.5784 5.57983, -2.41807 5.17485, -3.14365  C4.92545, -3.59417 4.61144, -3.99952 4.27546, -4.30927  C4.05505, -4.51229 3.83237, -4.67106 3.6074, -4.78559  C3.1573, -5.01573 2.7275, -5.04087 2.41561, -4.85875 " /><path d="M5.76916, 0.133275 C6.19348, -0.108024 6.45167, -0.630642 6.47887, -1.29109 " /><path d="M5.68334, -0.83179 C5.71221, -1.43944 5.54558, -2.1569 5.2309, -2.81236  C5.00997, -3.27559 4.71808, -3.70642 4.39461, -4.05169  C4.12807, -4.33688 3.84071, -4.56389 3.55892, -4.71376  C3.09449, -4.96273 2.64825, -4.99537 2.32719, -4.8077 " /><path d="M2.32719, -4.8077 Q2.17045, -4.71706 2.05566, -4.56362 " /><path d="M5.34356, 0.314711 Q5.52469, 0.274341 5.68074, 0.184323 " /><path d="M5.68074, 0.184323 C6.10506, -0.0569754 6.36324, -0.579597 6.39045, -1.24004 " /><path d="M6.47887, -1.29109 C6.51282, -1.98665 6.28694, -2.82631 5.88195, -3.5519  C5.63256, -4.00242 5.31855, -4.40777 4.98257, -4.71752  C4.76216, -4.92054 4.53947, -5.07931 4.3145, -5.19384  C3.8644, -5.42398 3.43461, -5.44912 3.12272, -5.267 " /><path d="M6.47627, -0.274973 C6.90058, -0.516273 7.15877, -1.03889 7.18598, -1.69934 " /><path d="M6.39045, -1.24004 C6.41932, -1.84769 6.25268, -2.56515 5.93801, -3.2206  C5.71709, -3.68383 5.42519, -4.11465 5.10173, -4.45993  C4.8354, -4.74489 4.54828, -4.97178 4.2667, -5.12164  C3.80203, -5.37094 3.35551, -5.40371 3.0343, -5.21595 " /><path d="M3.0343, -5.21595 Q2.87756, -5.12531 2.76276, -4.97186 " /><path d="M6.05067, -0.0935382 Q6.2318, -0.133908 6.38785, -0.223926 " /><path d="M6.38785, -0.223926 C6.81217, -0.465225 7.07035, -0.987849 7.09756, -1.64829 " /><path d="M7.18598, -1.69934 C7.21993, -2.39489 6.99404, -3.23456 6.58906, -3.96015  C6.33966, -4.41067 6.02565, -4.81602 5.68967, -5.12576  C5.46926, -5.32879 5.24657, -5.48756 5.0216, -5.60209  C4.5715, -5.83223 4.14171, -5.85737 3.82982, -5.67525 " /><path d="M7.18337, -0.683221 C7.60769, -0.924521 7.86588, -1.44714 7.89308, -2.10758 " /><path d="M7.09756, -1.64829 C7.12642, -2.25593 6.95979, -2.97339 6.64512, -3.62885  C6.4242, -4.09207 6.13231, -4.52289 5.80885, -4.86816  C5.54273, -5.15291 5.25585, -5.37966 4.97448, -5.52954  C4.50957, -5.77915 4.06278, -5.81205 3.7414, -5.6242 " /><path d="M7.09496, -0.632176 C7.51927, -0.873474 7.77746, -1.39609 7.80467, -2.05654 " /><path d="M7.89308, -2.10758 C7.92703, -2.80314 7.70115, -3.64281 7.29617, -4.3684  C7.04677, -4.81892 6.73276, -5.22426 6.39678, -5.53401  C6.17636, -5.73704 5.95367, -5.89582 5.7287, -6.01034  C5.2786, -6.24048 4.84881, -6.26561 4.53693, -6.0835 " /><path d="M7.89048, -1.09147 C8.3148, -1.33277 8.57299, -1.85539 8.60019, -2.51583 " /><path d="M7.80467, -2.05654 C7.83353, -2.66418 7.6669, -3.38164 7.35223, -4.03709  C7.13131, -4.50031 6.83943, -4.93113 6.51597, -5.2764  C6.25006, -5.56093 5.96341, -5.78755 5.68225, -5.93743  C5.21711, -6.18737 4.77004, -6.22039 4.44851, -6.03245 " /><path d="M4.44851, -6.03245 Q4.29177, -5.94181 4.17698, -5.78836 " /><path d="M7.46489, -0.910036 Q7.64602, -0.950406 7.80207, -1.04042 " /><path d="M7.80207, -1.04042 C8.22638, -1.28172 8.48456, -1.80434 8.51178, -2.46479 " /><path d="M8.60019, -2.51583 C8.63414, -3.21139 8.40825, -4.05106 8.00327, -4.77665  C7.75387, -5.22717 7.43987, -5.63251 7.10388, -5.94226  C6.88347, -6.14529 6.66077, -6.30407 6.43579, -6.41859  C5.9857, -6.64873 5.55592, -6.67386 5.24404, -6.49175 " /><path d="M8.59759, -1.49972 C9.0219, -1.74102 9.28009, -2.26363 9.3073, -2.92408 " /><path d="M8.51178, -2.46479 C8.54064, -3.07243 8.37401, -3.78988 8.05935, -4.44533  C7.83843, -4.90855 7.54654, -5.33937 7.22309, -5.68464  C6.9574, -5.96893 6.67101, -6.19542 6.39008, -6.3453  C5.92468, -6.59558 5.47731, -6.62874 5.15562, -6.4407 " /><path d="M8.50918, -1.44867 C8.93349, -1.68997 9.19167, -2.21259 9.21889, -2.87304 " /><path d="M9.3073, -2.92408 C9.34125, -3.61964 9.11536, -4.45931 8.71038, -5.1849  C8.46098, -5.63542 8.14697, -6.04076 7.81099, -6.35051  C7.59057, -6.55354 7.36787, -6.71232 7.14289, -6.82685  C6.6928, -7.05698 6.26302, -7.08211 5.95114, -6.9 " /><path d="M9.30469, -1.90797 C9.72901, -2.14927 9.9872, -2.67188 10.0144, -3.33233 " /><path d="M9.21889, -2.87304 C9.24775, -3.48068 9.08112, -4.19813 8.76646, -4.85358  C8.54554, -5.31679 8.25366, -5.7476 7.93021, -6.09288  C7.66473, -6.37694 7.37859, -6.60329 7.09787, -6.75318  C6.63223, -7.00379 6.18458, -7.03709 5.86273, -6.84895 " /><path d="M5.86273, -6.84895 Q5.70599, -6.75831 5.59119, -6.60486 " /><path d="M8.8791, -1.72653 Q9.06023, -1.7669 9.21629, -1.85692 " /><path d="M9.21629, -1.85692 C9.6406, -2.09822 9.89878, -2.62084 9.92599, -3.28129 " /><path d="M10.0144, -3.33233 C10.0484, -4.02789 9.82247, -4.86756 9.41748, -5.59315  C9.16808, -6.04367 8.85408, -6.44901 8.51809, -6.75876  C8.29767, -6.9618 8.07496, -7.12058 7.84998, -7.23511  C7.3999, -7.46523 6.97013, -7.49035 6.65825, -7.30824 " /><path d="M10.0118, -2.31621 C10.4361, -2.55751 10.6943, -3.08013 10.7215, -3.74058 " /><path d="M9.92599, -3.28129 C9.95486, -3.88892 9.78823, -4.60637 9.47357, -5.26182  C9.25265, -5.72503 8.96078, -6.15584 8.63733, -6.50111  C8.37208, -6.78493 8.0862, -7.01115 7.80572, -7.16103  C7.33981, -7.412 6.89185, -7.44544 6.56984, -7.2572 " /><path d="M6.56984, -7.2572 Q6.4131, -7.16656 6.2983, -7.01311 " /><path d="M9.58621, -2.13478 Q9.76734, -2.17515 9.92339, -2.26517 " /><path d="M9.92339, -2.26517 C10.3477, -2.50647 10.6059, -3.02908 10.6331, -3.68953 " /><path d="M10.7215, -3.74058 C10.7555, -4.43614 10.5296, -5.27581 10.1246, -6.0014  C9.87519, -6.45192 9.56118, -6.85726 9.2252, -7.16701  C9.00478, -7.37005 8.78207, -7.52883 8.55709, -7.64335  C8.10701, -7.87347 7.67723, -7.8986 7.36536, -7.71649 " /><path d="M10.7189, -2.72446 C11.1432, -2.96576 11.4014, -3.48838 11.4286, -4.14882 " /><path d="M10.6331, -3.68953 C10.662, -4.29717 10.4953, -5.01462 10.1807, -5.67006  C9.95977, -6.13327 9.66789, -6.56408 9.34445, -6.90935  C9.07943, -7.19292 8.79381, -7.419 8.51356, -7.56889  C8.0474, -7.82021 7.59913, -7.85379 7.27695, -7.66545 " /><path d="M7.27695, -7.66545 Q7.1202, -7.57481 7.00541, -7.42135 " /><path d="M10.2933, -2.54303 Q10.4744, -2.5834 10.6305, -2.67342 " /><path d="M10.6305, -2.67342 C11.0548, -2.91472 11.313, -3.43734 11.3402, -4.09778 " /><path d="M11.4286, -4.14882 C11.4626, -4.84439 11.2367, -5.68406 10.8317, -6.40965  C10.5823, -6.86016 10.2683, -7.26551 9.93231, -7.57526  C9.71188, -7.77829 9.48918, -7.93707 9.2642, -8.0516  C8.81411, -8.28172 8.38434, -8.30685 8.07246, -8.12474 " /><path d="M11.426, -3.13271 C11.8503, -3.37401 12.1085, -3.89663 12.1357, -4.55707 " /><path d="M11.3402, -4.09778 C11.3691, -4.70542 11.2025, -5.42286 10.8878, -6.0783  C10.6669, -6.54151 10.375, -6.97232 10.0516, -7.31759  C9.78675, -7.60095 9.50137, -7.8269 9.22132, -7.97679  C8.75493, -8.22842 8.30639, -8.26213 7.98405, -8.0737 " /><path d="M7.98405, -8.0737 Q7.82731, -7.98306 7.71252, -7.8296 " /><path d="M11.0004, -2.95128 Q11.1816, -2.99165 11.3376, -3.08167 " /><path d="M11.3376, -3.08167 C11.7619, -3.32297 12.0201, -3.84559 12.0473, -4.50603 " /><path d="M12.1357, -4.55707 C12.1697, -5.25263 11.9438, -6.09231 11.5388, -6.81789  C11.2894, -7.26841 10.9754, -7.67376 10.6394, -7.98351  C10.419, -8.18654 10.1963, -8.34532 9.9713, -8.45985  C9.52122, -8.68997 9.09144, -8.7151 8.77957, -8.53299 " /><path d="M12.1331, -3.54096 C12.5574, -3.78226 12.8156, -4.30488 12.8428, -4.96532 " /><path d="M12.0473, -4.50603 C12.0762, -5.11367 11.9096, -5.83111 11.5949, -6.48655  C11.374, -6.94976 11.0821, -7.38056 10.7587, -7.72582  C10.4941, -8.00896 10.2089, -8.23478 9.92911, -8.38468  C9.46247, -8.63663 9.01365, -8.67047 8.69116, -8.48195 " /><path d="M8.69116, -8.48195 Q8.53442, -8.3913 8.41962, -8.23785 " /><path d="M11.7075, -3.35953 Q11.8887, -3.3999 12.0447, -3.48992 " /><path d="M12.0447, -3.48992 C12.469, -3.73122 12.7272, -4.25384 12.7544, -4.91428 " /><path d="M12.8428, -4.96532 C12.8768, -5.66088 12.6509, -6.50056 12.2459, -7.22615  C11.9965, -7.67667 11.6825, -8.08201 11.3465, -8.39176  C11.1261, -8.5948 10.9034, -8.75359 10.6784, -8.86811  C10.2283, -9.09822 9.79854, -9.12334 9.48667, -8.94124 " /><path d="M12.8402, -3.94921 C13.2645, -4.19051 13.5227, -4.71313 13.5499, -5.37357 " /><path d="M12.7544, -4.91428 C12.7833, -5.52191 12.6167, -6.23935 12.302, -6.89479  C12.0811, -7.358 11.7892, -7.78879 11.4658, -8.13406  C11.2014, -8.41696 10.9166, -8.64264 10.6369, -8.79253  C10.17, -9.04484 9.72093, -9.07882 9.39827, -8.8902 " /><path d="M9.39827, -8.8902 Q9.24153, -8.79955 9.12673, -8.6461 " /><path d="M12.4146, -3.76778 Q12.5958, -3.80815 12.7518, -3.89817 " /><path d="M12.7518, -3.89817 C13.1761, -4.13947 13.4343, -4.66209 13.4615, -5.32253 " /><path d="M13.5499, -5.37357 C13.5839, -6.06913 13.358, -6.90881 12.953, -7.6344  C12.7036, -8.08492 12.3896, -8.49026 12.0536, -8.80001  C11.8332, -9.00305 11.6105, -9.16184 11.3855, -9.27637  C10.9354, -9.50647 10.5056, -9.53159 10.1938, -9.34948 " /><path d="M13.5473, -4.35745 C13.9716, -4.59875 14.2298, -5.12137 14.257, -5.78182 " /><path d="M13.4615, -5.32253 C13.4904, -5.93016 13.3238, -6.6476 13.0091, -7.30303  C12.7882, -7.76623 12.4964, -8.19703 12.1729, -8.5423  C11.9088, -8.82488 11.6243, -9.05038 11.345, -9.20028  C10.8778, -9.45304 10.4282, -9.4872 10.1054, -9.29845 " /><path d="M13.4589, -4.30642 C13.8832, -4.54772 14.1414, -5.07034 14.1686, -5.73078 " /><path d="M14.257, -5.78182 C14.291, -6.47738 14.0651, -7.31705 13.6601, -8.04264  C13.4107, -8.49316 13.0967, -8.89851 12.7607, -9.20825  C12.5403, -9.41129 12.3176, -9.57008 12.0926, -9.6846  C11.6425, -9.91472 11.2128, -9.93984 10.9009, -9.75773 " /><path d="M14.2544, -4.7657 C14.6788, -5.007 14.9369, -5.52962 14.9641, -6.19007 " /><path d="M14.1686, -5.73078 C14.1975, -6.33841 14.0309, -7.05584 13.7162, -7.71128  C13.4953, -8.17447 13.2035, -8.60527 12.88, -8.95053  C12.6123, -9.23704 12.3235, -9.46483 12.0405, -9.6147  C11.5774, -9.86192 11.1327, -9.89385 10.8125, -9.70669 " /><path d="M14.166, -4.71467 C14.5904, -4.95597 14.8485, -5.47859 14.8758, -6.13903 " /><path d="M14.9641, -6.19007 C14.9981, -6.88563 14.7722, -7.7253 14.3672, -8.4509  C14.1178, -8.90141 13.8038, -9.30676 13.4678, -9.6165  C13.2474, -9.81956 13.0247, -9.97835 12.7997, -10.0929  C12.3496, -10.323 11.9199, -10.3481 11.608, -10.166 " /><path d="M14.9615, -5.17395 C15.3859, -5.41525 15.6441, -5.93787 15.6713, -6.59831 " /><path d="M14.8758, -6.13903 C14.9046, -6.74666 14.738, -7.46409 14.4233, -8.11952  C14.2024, -8.58272 13.9106, -9.01351 13.5872, -9.35877  C13.3197, -9.645 13.0312, -9.87263 12.7485, -10.0225  C12.2851, -10.2701 11.84, -10.3022 11.5196, -10.1149 " /><path d="M11.5196, -10.1149 Q11.3629, -10.0243 11.2481, -9.87084 " /><path d="M14.536, -4.99253 Q14.7171, -5.0329 14.8732, -5.12292 " /><path d="M14.8732, -5.12292 C15.2975, -5.36422 15.5556, -5.88684 15.5829, -6.54728 " /><path d="M12.3401 -10.578 A3 1.73205 60 0 1 13.7179 -10.3695" />
<path d="M13.7179 -10.3695 A3 1.73205 60 0 1 13.8843 -10.2659" />
<path d="M15.6713, -6.59831 C15.7052, -7.29388 15.4793, -8.13355 15.0743, -8.85914  C14.7542, -9.43838 14.3264, -9.94085 13.8843, -10.2659 " /><path d="M15.5829, -6.54728 C15.6117, -7.1549 15.4451, -7.87233 15.1305, -8.52776  C14.9096, -8.99095 14.6177, -9.42174 14.2943, -9.76701  C14.0272, -10.0528 13.7392, -10.2802 13.4568, -10.4301  C13.0455, -10.6498 12.648, -10.7014 12.3401, -10.578 " /><path d="M15.8392, -7.02527 C15.8396, -6.63491 15.7513, -6.29174 15.5848, -6.04044 " /><path d="M11.9853, -10.2822 Q12.1307, -10.4786 12.3401, -10.578 " /><path id= "128" d=" M 15.8392 -7.02527 L 15.8392 -7.18517 " />
<path d="M13.8843, -10.2659 Q13.8111, -10.3157 13.7388, -10.3574 " /><path d="M13.7388, -10.3574 L13.7291, -10.363 " /><path d="M13.9201, -10.2391 Q14.0169, -10.1968 14.1147, -10.1404 " /><path d="M14.1147, -10.1404 Q14.2923, -10.0378 14.4665, -9.89236 " /><path d="M15.8392, -7.02527 C15.8403, -7.51829 15.6969, -8.08553 15.4429, -8.60591  C15.1954, -9.11692 14.8433, -9.57878 14.4665, -9.89236 " /><path d="M14.1421 -10.1246 A2.4 1.38564 60 0 1 15.8392 -7.18517" />
</g>

</svg>
