<svg xmlns="http://www.w3.org/2000/svg" viewBox="-6.09 -6.09 12.18 12.18">
<rect width="100%" height="100%" fill="white"/>
<g   fill="none"
   stroke="rgb(0, 0, 0)"
   stroke-linecap="butt"
   stroke-linejoin="miter"
   stroke-width="0.35"
   transform="scale(1, -1)"
  >
<circle cx ="0" cy ="0" r ="5.25" /><path d="M3, 0 C3, 0.796311 3, 1.58842 3, 2.64575 " /><path d="M3, -2.64575 C3, -1.58842 3, -0.796311 3, 0 " /><path d="M2.64575 -3 A4 4 0 0 1 3 -2.64575" /><path d="M1.55431e-14, -3 C-0.796311, -3 -1.58842, -3 -2.64575, -3 " /><path d="M2.64575, -3 C1.58842, -3 0.796311, -3 1.57652e-14, -3 " /><path d="M-3 -2.64575 A4 4 0 0 1 -2.64575 -3" /><path d="M-3, -4.44089e-16 C-3, 0.796311 -3, 1.58842 -3, 2.64575 " /><path d="M-3, -2.64575 C-3, -1.58842 -3, -0.796311 -3, -2.22045e-16 " /><path d="M-2.64575 3 A4 4 0 0 1 -3 2.64575" /><path d="M1.28786e-14, 3 C-0.796311, 3 -1.58842, 3 -2.64575, 3 " /><path d="M2.64575, 3 C1.58842, 3 0.796311, 3 1.31006e-14, 3 " /><path d="M3 2.64575 A4 4 0 0 1 2.64575 3" /><path d="M3 0 A3 3 0 0 1 1.28402e-14 3" /><path d="M1.54361e-14 -3 A3 3 0 0 1 3 -7.34788e-16" /><path d="M-3 3.67394e-16 A3 3 0 0 1 1.54361e-14 -3" /><path d="M1.28402e-14 3 A3 3 0 0 1 -3 3.67394e-16" /><path d="M-1.91967, 2.3054 C-2.1023, 2.15428 -2.26603, 1.9771 -2.38704, 1.81715  C-2.45333, 1.73064 -2.50968, 1.64365 -2.50992, 1.64326 " /><path d="M-1.91952, 2.30552 C-1.38739, 2.75092 -0.697008, 3.00177 1.26565e-14, 3 " /></g>

</svg>
