<svg xmlns="http://www.w3.org/2000/svg" viewBox="-4.6957284 -6.2306984 9.3991768 11.8081968">
<rect width="100%" height="100%" fill="white"/>
<g   fill="none"
   stroke="rgb(0, 0, 0)"
   stroke-linecap="butt"
   stroke-linejoin="miter"
   stroke-width="0.35"
   transform="scale(1, -1)"
  >
<path id= "1" d=" M -3.88137 -4.10994 L -2.75 -4.76314 " />
<path id= "2" d=" M 1.61863 5.41634 L 2.75 4.76314 " />
</g>
<g   fill="none"
   stroke="rgb(0, 0, 0)"
   stroke-linecap="butt"
   stroke-linejoin="miter"
   stroke-width="0.35"
   transform="scale(1, -1)"
  >
<path d="M1.13137 1.95959 A3.2 1.84752 60 0 1 0.468629 3.42448" />
<path d="M0.468629 3.42448 A3.2 1.84752 60 0 1 -2.73137 -2.11808" />
<path d="M-2.73137 -2.11808 A3.2 1.84752 60 0 1 1.13137 1.95959" />
<path d="M2.75772 2.89856 A5.5 3.17543 60 0 1 1.61863 5.41634" />
<path d="M1.61863 5.41634 A5.5 3.17543 60 0 1 -3.88137 -4.10994" />
<path d="M-3.88137 -4.10994 A5.5 3.17543 60 0 1 2.75772 2.89856" />
<path d="M3.88909 2.24537 A5.5 3.17543 60 0 1 2.75 4.76314" />
<path d="M-2.75 -4.76314 A5.5 3.17543 60 0 1 3.88909 2.24537" />
<path d="M0.930978 2.91889 A3.2 1.84752 60 0 1 -2.06235 -2.2657" />
</g>

</svg>
