<svg xmlns="http://www.w3.org/2000/svg" viewBox="-3.2918352 -4.1058652 20.926330399999998 16.3766604">
<rect width="100%" height="100%" fill="white"/>
<g   fill="none"
   stroke="rgb(0, 0, 0)"
   stroke-linecap="butt"
   stroke-linejoin="miter"
   stroke-width="0.35"
   transform="scale(1, -1)"
  >
<path id= "1" d=" M -1.84864 -2.09202 L -1.52201 -2.68914 " />
<path id= "2" d=" M 0.887421 2.64698 L 1.56786 2.66267 " />
<path id= "3" d=" M -1.07181 -3.16283 L 11.939 -10.6746 " />
<path id= "4" d=" M 2.20319 2.50963 L 15.214 -5.00213 " />
<path id= "5" d=" M 15.9908 -6.07295 L 15.6641 -5.47583 " />
<path id= "6" d=" M 13.2547 -10.8119 L 12.5743 -10.8276 " />
</g>
<g   fill="none"
   stroke="rgb(0, 0, 0)"
   stroke-linecap="butt"
   stroke-linejoin="miter"
   stroke-width="0.35"
   transform="scale(1, -1)"
  >
<path d="M1.78421 1.10671 A2.525 1.45781 60 0 1 1.2625 2.18671" />
<path d="M1.2625 2.18671 A2.525 1.45781 60 0 1 -1.2625 -2.18671" />
<path d="M-1.2625 -2.18671 A2.525 1.45781 60 0 1 1.78421 0.953516" />
<path id= "4" d=" M 1.78421 0.953516 L 2.04919 1.09513 " />
<path d="M2.04919 1.27108 A2.9 1.67432 60 0 1 0.887421 2.64698" />
<path d="M0.887421 2.64698 A2.9 1.67432 60 0 1 -1.84864 -2.09202" />
<path d="M-1.84864 -2.09202 A2.9 1.67432 60 0 1 2.04919 1.09513" />
<path id= "8" d=" M 1.78421 1.10671 L 2.04919 1.27108 " />
<path id= "9" d=" M 2.04919 1.27108 L 2.87986 1.10884 " />
<path d="M2.87986 1.10884 A3.275 1.89082 60 0 1 2.20319 2.50963" />
<path d="M2.20319 2.50963 A3.275 1.89082 60 0 1 1.56786 2.66267" />
<path d="M-1.52201 -2.68914 A3.275 1.89082 60 0 1 -1.07181 -3.16283" />
<path d="M-1.07181 -3.16283 A3.275 1.89082 60 0 1 2.87986 0.91014" />
<path id= "14" d=" M 2.04919 1.09513 L 2.87986 0.91014 " />
<path id= "15" d=" M 2.87986 1.10884 L 15.8906 -6.40293 " />
<path d="M15.8906 -6.40293 A3.275 1.89082 60 0 1 15.6641 -5.47583" />
<path d="M15.6641 -5.47583 A3.275 1.89082 60 0 1 15.214 -5.00213" />
<path d="M11.939 -10.6746 A3.275 1.89082 60 0 1 12.5743 -10.8276" />
<path d="M12.5743 -10.8276 A3.275 1.89082 60 0 1 15.8906 -6.60163" />
<path id= "20" d=" M 2.87986 0.91014 L 15.8906 -6.60163 " />
<path id= "21" d=" M 15.8906 -6.40293 L 16.1913 -6.89389 " />
<path d="M16.1913 -6.89389 A2.9 1.67432 60 0 1 15.9908 -6.07295" />
<path d="M13.2547 -10.8119 A2.9 1.67432 60 0 1 16.1913 -7.06984" />
<path id= "24" d=" M 15.8906 -6.60163 L 16.1913 -7.06984 " />
<path id= "25" d=" M 16.1913 -6.89389 L 16.1105 -6.94401 " />
<path id= "26" d=" M 1.92201 1.02716 L 1.78421 1.10671 " />
</g>

</svg>
