<svg xmlns="http://www.w3.org/2000/svg" viewBox="-1.6000000000000003 -4.87274 23.2 9.74774">
<rect width="100%" height="100%" fill="white"/>
<g   fill="none"
   stroke="rgb(0, 0, 0)"
   stroke-linecap="butt"
   stroke-linejoin="miter"
   stroke-width="0.35"
   transform="scale(1, -1)"
  >
<path id= "1" d=" M -1.96627e-16 -2.9 L 0.8 -3.275 " />
<path id= "2" d=" M 0.8 -3.275 L 19.2 -3.275 " />
<path id= "3" d=" M 20 -2.9 L 19.2 -3.275 " />
</g>
<g   fill="none"
   stroke="rgb(0, 0, 0)"
   stroke-linecap="butt"
   stroke-linejoin="miter"
   stroke-width="0.35"
   transform="scale(1, -1)"
  >
<path d="M0, -2.9 L0, -2.82899  L0, -2.61945  L0, -2.28164  L0, -1.83209  L0, -1.29283  L0, -0.690257  L0, -0.0538831  L0, 0.585129  L0, 1.19549  L0, 1.7473  L0, 2.21356  L0, 2.57141  L0, 2.80334  L0, 2.898 " /><path d="M0.8, -3.275 L0.8, -3.19481  L0.8, -2.95818  L0.8, -2.57668  L0.8, -2.069  L0.8, -1.46001  L0.8, -0.779515  L0.8, -0.0608508  L0.8, 0.660793  L0.8, 1.35008  L0.8, 1.97325  L0.8, 2.49979  L0.8, 2.90392  L0.8, 3.16584  L0.8, 3.27274 " /><path id= "3" d=" M 0 2.898 L 0.8 3.27274 " />
<path d="M19.2, -3.275 L19.2, -3.19481  L19.2, -2.95818  L19.2, -2.57668  L19.2, -2.069  L19.2, -1.46001  L19.2, -0.779515  L19.2, -0.0608508  L19.2, 0.660793  L19.2, 1.35008  L19.2, 1.97325  L19.2, 2.49979  L19.2, 2.90392  L19.2, 3.16584  L19.2, 3.27274 " /><path id= "5" d=" M 0.8 3.27274 L 19.2 3.27274 " />
<path d="M20, -2.9 L20, -2.82899  L20, -2.61945  L20, -2.28164  L20, -1.83209  L20, -1.29283  L20, -0.690257  L20, -0.0538831  L20, 0.585129  L20, 1.19549  L20, 1.7473  L20, 2.21356  L20, 2.57141  L20, 2.80334  L20, 2.898 " /><path id= "7" d=" M 19.2 3.27274 L 20 2.898 " />
</g>

</svg>
