<svg xmlns="http://www.w3.org/2000/svg" viewBox="-9.406321199999999 -9.1109212 15.801462399999998 16.6847324">
<rect width="100%" height="100%" fill="white"/>
<g   fill="none"
   stroke="rgb(0, 0, 0)"
   stroke-linecap="butt"
   stroke-linejoin="miter"
   stroke-width="0.35"
   transform="scale(1, -1)"
  >
<path id= "1" d=" M 3.7084 6.42314 L 2.98998 6.83792 " />
<path id= "2" d=" M -3.7084 -6.42314 L -4.42682 -6.00836 " />
</g>
<g   fill="none"
   stroke="rgb(0, 0, 0)"
   stroke-linecap="butt"
   stroke-linejoin="miter"
   stroke-width="0.35"
   transform="scale(1, -1)"
  >
<path d="M-1.82772, 3.66354 Q-1.83215, 3.52312 -1.84913, 3.38688 " /><g transform = "rotate(60, -4.11296, 2.37462)">
<ellipse cx ="-4.11296" cy ="2.37462" rx ="3.33375"  ry ="1.92474"/>
</g>
<path d="M-1.82772, 3.66354 C-1.81153, 4.10523 -1.9133, 4.51988 -2.0966, 4.77423 " /><path d="M-2.0966, 4.77423 C-2.17669, 4.89023 -2.28149, 4.97903 -2.34415, 5.00109 " /><path d="M-4.24409, 4.11682 C-3.97462, 4.44951 -3.66175, 4.71166 -3.35337, 4.87007  C-2.98922, 5.05846 -2.63301, 5.1021 -2.34421, 5.0012 " /><path d="M-4.24409 4.11682 A2.48759 1.43621 60 0 1 -5.68733 0.94407" />
<path d="M-1.84913, 3.38688 C-1.93271, 2.69555 -2.22919, 1.92982 -2.66016, 1.2933  C-3.05214, 0.709256 -3.55241, 0.240047 -4.03493, 0.00417687  C-4.48053, -0.216985 -4.90652, -0.236613 -5.20919, -0.0478525  C-5.49552, 0.126526 -5.66971, 0.484279 -5.68733, 0.94407 " /><path d="M-2.46462, 4.28595 C-2.92183, 4.48364 -3.54972, 4.33766 -4.12468, 3.91373  C-4.61099, 3.56083 -5.05212, 3.02029 -5.33401, 2.4509  C-5.59972, 1.91999 -5.72498, 1.37051 -5.68733, 0.94407 " /><path d="M-1.94534, 3.15425 C-1.98092, 3.70941 -2.20791, 4.1502 -2.57278, 4.35782 " /><path d="M-2.57278, 4.35782 C-3.01123, 4.61734 -3.64744, 4.52049 -4.24409, 4.11682 " /><path d="M-0.224506 4.61962 A5.4991 3.17491 60 0 1 -0.74546 6.56384" />
<path d="M-0.74546 2.07384 A5.4991 3.17491 60 0 1 -0.224506 4.61962" />
<path d="M-4.11296 -2.11538 A5.4991 3.17491 60 0 1 -0.74546 2.07384" />
<path d="M-7.48045 -1.81461 A5.4991 3.17491 60 0 1 -4.11296 -2.11538" />
<path d="M-7.48045 2.67539 A5.4991 3.17491 60 0 1 -7.48045 -1.81461" />
<path d="M-4.11296 6.86461 A5.4991 3.17491 60 0 1 -7.48045 2.67539" />
<path d="M-0.74546 6.56384 A5.4991 3.17491 60 0 1 -4.11296 6.86461" />
<path d="M-2.19052, 3.98298 C-2.58579, 3.99955 -3.04368, 3.8282 -3.46965, 3.51126  C-3.87744, 3.2102 -4.25331, 2.77888 -4.52682, 2.30921  C-4.82871, 1.79464 -5.00415, 1.23838 -5.01886, 0.780467  C-5.03537, 0.340696 -4.90534, -0.00512266 -4.66527, -0.175276 " /><path d="M-1.94076, 2.89672 Q-1.93686, 3.02864 -1.94534, 3.15425 " /><path d="M-2.11729, 3.85061 C-2.47033, 3.8257 -2.86135, 3.66324 -3.22936, 3.39328  C-3.61579, 3.11145 -3.97493, 2.71252 -4.2461, 2.2731  C-4.56879, 1.7538 -4.76413, 1.18187 -4.79167, 0.706814  C-4.81457, 0.339632 -4.73962, 0.031315 -4.58259, -0.168029 " /><path d="M-0.74546, 6.56384 C-0.388308, 6.05666 0.0776338, 5.48686 0.724341, 4.7664 " /><path d="M-4.11296, 6.86461 C-3.39975, 7.27512 -2.57796, 7.62245 -1.52066, 7.96025 " /><path d="M-1.52066, 7.96025 C-1.34617, 7.51243 -1.10043, 7.06976 -0.74546, 6.56384 " /><path d="M-7.48045, 2.67539 C-7.1233, 3.59245 -6.65736, 4.44602 -6.01065, 5.36795 " /><path d="M-6.01065, 5.36795 C-5.42557, 5.97838 -4.82398, 6.45284 -4.11296, 6.86461 " /><path d="M-7.48045, -1.81461 C-7.83542, -1.30869 -8.08117, -0.866014 -8.25565, -0.418199 " /><path d="M-8.25565, -0.418199 C-8.08117, 0.77637 -7.83542, 1.75707 -7.48045, 2.67539 " /><path d="M-6.01065, -3.61204 C-6.65736, -2.89159 -7.1233, -2.32179 -7.48045, -1.81461 " /><path d="M-4.11296, -2.11538 C-4.82398, -2.52715 -5.42557, -3.00161 -6.01065, -3.61204 " /><path d="M-1.52066, -1.01974 C-2.57796, -1.35754 -3.39975, -1.70487 -4.11296, -2.11538 " /><path d="M-0.74546, 2.07384 C-1.10043, 1.15552 -1.34617, 0.174824 -1.52066, -1.01974 " /><path d="M0.724341, 4.7664 C0.0776338, 3.84447 -0.388308, 2.9909 -0.74546, 2.07384 " /><path d="M-1.96485, 3.33692 C-2.58557, 3.09629 -3.22377, 2.49161 -3.62921, 1.79004  C-3.99994, 1.15981 -4.17541, 0.469078 -4.10869, -0.0304789 " /><path d="M-1.94302, 3.11549 C-2.47168, 2.84846 -2.99207, 2.33619 -3.35242, 1.7476  C-3.69834, 1.18906 -3.89535, 0.570897 -3.89754, 0.0776204 " /><path d="M1.09098, 6.45242 L1.17004, 6.26062  L1.25865, 6.06827  L1.35734, 5.87416  L1.46673, 5.67711  L1.58749, 5.4759  L1.72037, 5.26929  L1.86618, 5.05601  L2.02582, 4.83474  L2.20027, 4.60413  L2.39062, 4.36274  L2.59803, 4.1091  L2.82378, 3.84164  L3.06926, 3.55871  L3.33598, 3.25857 " /><path id= "36" d=" M 3.33598 3.25857 L 0.724341 4.7664 " />
<path id= "37" d=" M 1.09098 6.45242 L -1.52066 7.96025 " />
<path id= "38" d=" M -3.39901 -5.11988 L -6.01065 -3.61204 " />
<path d="M1.09098, -2.52757 L0.651365, -2.67304  L0.238843, -2.82064  L-0.149127, -2.97128  L-0.514934, -3.12589  L-0.860833, -3.28542  L-1.18895, -3.45085  L-1.50132, -3.62321  L-1.79985, -3.80355  L-2.08639, -3.99299  L-2.36271, -4.1927  L-2.6305, -4.4039  L-2.89141, -4.62789  L-3.14706, -4.86606  L-3.39901, -5.11988 " /><path id= "40" d=" M 1.09098 -2.52757 L -1.52066 -1.01974 " />
<path d="M3.33598, 3.25857 L3.06926, 2.86714  L2.82378, 2.4819  L2.59803, 2.10047  L2.39062, 1.72052  L2.20027, 1.33969  L2.02582, 0.955645  L1.86618, 0.566014  L1.72037, 0.168396  L1.58749, -0.239656  L1.46673, -0.660658  L1.35734, -1.0972  L1.25865, -1.55198  L1.17004, -2.0278  L1.09098, -2.52757 " /><path d="M-2.34489, 1.82772 C-2.5563, 1.56964 -2.73957, 1.28253 -2.88173, 0.989946 " /><path d="M4.52605 3.44268 A7.4168 4.28209 60 0 1 2.98998 6.83792" />
<path d="M2.98998 6.83792 A7.4168 4.28209 60 0 1 0.263255 6.93031" />
<path d="M-5.87019 -3.69314 A7.4168 4.28209 60 0 1 -4.42682 -6.00836" />
<path d="M-4.42682 -6.00836 A7.4168 4.28209 60 0 1 4.52605 3.44268" />
<path d="M5.24447 3.0279 A7.4168 4.28209 60 0 1 3.7084 6.42314" />
<path d="M-3.7084 -6.42314 A7.4168 4.28209 60 0 1 5.24447 3.0279" />
</g>

</svg>
