<svg xmlns="http://www.w3.org/2000/svg" viewBox="-7.003288 -8.603488 8.189976 17.206976">
<rect width="100%" height="100%" fill="white"/>
<g   fill="none"
   stroke="rgb(0, 0, 0)"
   stroke-linecap="butt"
   stroke-linejoin="miter"
   stroke-width="0.35"
   transform="scale(1, -1)"
  >
<path id= "1" d=" M -5.8166 -5.4991 L -5.32544 -6.34981 " />
<path id= "2" d=" M -1.63202 -6.34981 L -1.016 -7.4168 " />
<path id= "3" d=" M 0 -7.4168 L -1.016 -7.4168 " />
</g>
<g   fill="none"
   stroke="rgb(0, 0, 0)"
   stroke-linecap="butt"
   stroke-linejoin="miter"
   stroke-width="0.35"
   transform="scale(1, -1)"
  >
<path d="M-5.8166, 4.76236 C-5.8166, 5.00148 -5.8166, 5.18655 -5.8166, 5.31172  C-5.8166, 5.32822 -5.8166, 5.34472 -5.8166, 5.36123  C-5.8166, 5.39064 -5.8166, 5.41613 -5.8166, 5.43768  C-5.8166, 5.457 -5.8166, 5.47235 -5.8166, 5.48372  C-5.8166, 5.49285 -5.8166, 5.49797 -5.8166, 5.4991 " /><path d="M-5.8166, -6.55476e-13 C-5.8166, 0.411573 -5.8166, 0.821437 -5.8166, 1.22366  C-5.8166, 1.35607 -5.8166, 1.48848 -5.8166, 1.62089  C-5.8166, 1.75027 -5.8166, 1.87966 -5.8166, 2.00905  C-5.8166, 2.13469 -5.8166, 2.26033 -5.8166, 2.38597  C-5.8166, 2.50716 -5.8166, 2.62836 -5.8166, 2.74955  C-5.8166, 2.86562 -5.8166, 2.98169 -5.8166, 3.09775  C-5.8166, 3.20805 -5.8166, 3.31834 -5.8166, 3.42863  C-5.8166, 3.53253 -5.8166, 3.63644 -5.8166, 3.74034  C-5.8166, 3.83727 -5.8166, 3.9342 -5.8166, 4.03113  C-5.8166, 4.12054 -5.8166, 4.20995 -5.8166, 4.29937  C-5.8166, 4.38077 -5.8166, 4.46217 -5.8166, 4.54357  C-5.8166, 4.6165 -5.8166, 4.68943 -5.8166, 4.76236 " /><path d="M-5.8166, -4.76236 C-5.8166, -4.68943 -5.8166, -4.6165 -5.8166, -4.54357  C-5.8166, -4.46217 -5.8166, -4.38077 -5.8166, -4.29937  C-5.8166, -4.20995 -5.8166, -4.12054 -5.8166, -4.03113  C-5.8166, -3.9342 -5.8166, -3.83727 -5.8166, -3.74034  C-5.8166, -3.63644 -5.8166, -3.53253 -5.8166, -3.42863  C-5.8166, -3.31834 -5.8166, -3.20805 -5.8166, -3.09775  C-5.8166, -2.98169 -5.8166, -2.86562 -5.8166, -2.74955  C-5.8166, -2.62836 -5.8166, -2.50716 -5.8166, -2.38597  C-5.8166, -2.26033 -5.8166, -2.13469 -5.8166, -2.00905  C-5.8166, -1.87966 -5.8166, -1.75027 -5.8166, -1.62089  C-5.8166, -1.48848 -5.8166, -1.35607 -5.8166, -1.22366  C-5.8166, -0.821437 -5.8166, -0.411573 -5.8166, -6.55476e-13 " /><path d="M-5.8166, -5.4991 C-5.8166, -5.49782 -5.8166, -5.49654 -5.8166, -5.49525  C-5.8166, -5.489 -5.8166, -5.47876 -5.8166, -5.46452  C-5.8166, -5.44805 -5.8166, -5.42762 -5.8166, -5.40323  C-5.8166, -5.37663 -5.8166, -5.34613 -5.8166, -5.31172  C-5.8166, -5.18655 -5.8166, -5.00148 -5.8166, -4.76236 " /><path id= "5" d=" M -5.8166 5.4991 L -5.32544 6.34981 " />
<path d="M-5.8166, -4.76236 C-5.81506, -5.2659 -5.65935, -5.76914 -5.32544, -6.34981 " /><path d="M-5.32544, -3.17491 C-5.65935, -3.75558 -5.81506, -4.25882 -5.8166, -4.76236 " /><path d="M-5.8166, -6.55476e-13 C-5.81506, -1.00709 -5.65935, -2.01357 -5.32544, -3.17491 " /><path d="M-5.32544, 3.17491 C-5.65935, 2.01357 -5.81506, 1.00709 -5.8166, -6.55254e-13 " /><path d="M-5.8166, 4.76236 C-5.81506, 4.25882 -5.65935, 3.75558 -5.32544, 3.17491 " /><path d="M-5.32544, 6.34981 C-5.65935, 5.76914 -5.81506, 5.2659 -5.8166, 4.76236 " /><path id= "12" d=" M -1.63202 6.34981 L -5.32544 6.34981 " />
<path id= "13" d=" M -1.63202 -6.34981 L -5.32544 -6.34981 " />
<path d="M-1.63202, -3.17491 L-1.76472, -3.41941  L-1.87565, -3.65565  L-1.96549, -3.88506  L-2.0348, -4.10907  L-2.084, -4.32906  L-2.1134, -4.54638  L-2.12318, -4.76236  L-2.1134, -4.97835  L-2.084, -5.19566  L-2.0348, -5.41565  L-1.96549, -5.63966  L-1.87565, -5.86907  L-1.76472, -6.10531  L-1.63202, -6.34981 " /><path id= "15" d=" M -1.63202 -3.17491 L -5.32544 -3.17491 " />
<path d="M-1.63202, 3.17491 L-1.76472, 2.68589  L-1.87565, 2.21342  L-1.96549, 1.75459  L-2.0348, 1.30657  L-2.084, 0.866602  L-2.1134, 0.43197  L-2.12318, 1.11022e-16  L-2.1134, -0.43197  L-2.084, -0.866602  L-2.0348, -1.30657  L-1.96549, -1.75459  L-1.87565, -2.21342  L-1.76472, -2.68589  L-1.63202, -3.17491 " /><path id= "17" d=" M -1.63202 3.17491 L -5.32544 3.17491 " />
<path d="M-1.63202, 6.34981 L-1.76472, 6.10531  L-1.87565, 5.86907  L-1.96549, 5.63966  L-2.0348, 5.41565  L-2.084, 5.19566  L-2.1134, 4.97835  L-2.12318, 4.76236  L-2.1134, 4.54638  L-2.084, 4.32906  L-2.0348, 4.10907  L-1.96549, 3.88506  L-1.87565, 3.65565  L-1.76472, 3.41941  L-1.63202, 3.17491 " /><path id= "19" d=" M -1.016 7.4168 L -1.63202 6.34981 " />
<path d="M-1.016, -7.4168 L-1.016, -7.23085  L-1.016, -6.68231  L-1.016, -5.79869  L-1.016, -4.6243  L-1.016, -3.21803  L-1.016, -1.65039  L-1.016, -1.33227e-15  L-1.016, 1.65039  L-1.016, 3.21803  L-1.016, 4.6243  L-1.016, 5.79869  L-1.016, 6.68231  L-1.016, 7.23085  L-1.016, 7.4168 " /><path d="M0, -7.4168 L0, -7.23085  L0, -6.68231  L0, -5.79869  L0, -4.6243  L0, -3.21803  L0, -1.65039  L0, -1.33227e-15  L0, 1.65039  L0, 3.21803  L0, 4.6243  L0, 5.79869  L0, 6.68231  L0, 7.23085  L0, 7.4168 " /><path id= "22" d=" M 0 7.4168 L -1.016 7.4168 " />
</g>

</svg>
