<svg xmlns="http://www.w3.org/2000/svg" viewBox="-8.603488 -8.603488 17.206976 17.206976">
<rect width="100%" height="100%" fill="white"/>
<g   fill="none"
   stroke="rgb(0, 0, 0)"
   stroke-linecap="butt"
   stroke-linejoin="miter"
   stroke-width="0.35"
   transform="scale(1, -1)"
  >
<path d="M3.19451, 1.16573e-15 Q3.18608, -0.166674 3.159, -0.318465 " /><circle cx ="0" cy ="0" r ="3.33375" /><path d="M3.19451, 4.44089e-16 C3.21336, 0.365664 3.15392, 0.758716 3.02227, 1.11342 " /><path d="M3.02227, 1.11342 C2.98082, 1.2257 2.93329, 1.33327 2.87968, 1.43612  C2.79008, 1.60887 2.68197, 1.76785 2.57963, 1.88637  C2.53321, 1.93994 2.49298, 1.98067 2.45894, 2.00856 " /><path d="M-0.412181, 2.45321 C-0.000364306, 2.63939 0.47148, 2.70985 0.935889, 2.65752  C1.48422, 2.5974 2.01982, 2.36713 2.45887, 2.00872 " /><path d="M-0.412181 2.45321 A2.48759 2.48759 0 0 1 -2.45322 -0.412079" /><path d="M3.159, -0.318465 C3.02505, -1.09032 2.58965, -1.80239 1.96364, -2.2607  C1.39418, -2.68371 0.671235, -2.88917 -0.0270128, -2.821  C-0.671836, -2.76213 -1.28925, -2.46997 -1.73265, -2.00942  C-2.15203, -1.57893 -2.41314, -1.00283 -2.45322, -0.412079 " /><path d="M2.48759, 1.00102e-06 C2.48858, 0.506453 2.32942, 1.01163 2.03826, 1.42604  C1.70386, 1.90705 1.1936, 2.26171 0.626192, 2.40749  C0.288417, 2.49558 -0.0679741, 2.51127 -0.412181, 2.45321 " /><path d="M5.4991 0 A5.4991 5.4991 0 0 1 4.76236 2.74955" /><path d="M4.76236 -2.74955 A5.4991 5.4991 0 0 1 5.4991 -1.34689e-15" /><path d="M-6.55491e-13 -5.4991 A5.4991 5.4991 0 0 1 4.76236 -2.74955" /><path d="M-4.76236 -2.74955 A5.4991 5.4991 0 0 1 -6.55491e-13 -5.4991" /><path d="M-4.76236 2.74955 A5.4991 5.4991 0 0 1 -4.76236 -2.74955" /><path d="M3.11204e-08 5.4991 A5.4991 5.4991 0 0 1 -4.76236 2.74955" /><path d="M4.76236 2.74955 A5.4991 5.4991 0 0 1 3.11204e-08 5.4991" /><path d="M2.48759, 8.00812e-07 Q2.48758, 0.169985 2.46447, 0.33839 " /><path d="M2.43412, 0.513026 C2.36498, 0.841985 2.22813, 1.15651 2.03456, 1.43133 " /><path d="M1.9312, 1.56798 L1.92036, 1.58124 " /><path d="M1.74411, 1.77375 L1.69085, 1.82459 " /><path d="M1.12427, 2.21904 C0.605592, 2.48373 -0.00736006, 2.55648 -0.57358, 2.42056  C-1.10588, 2.2958 -1.59305, 1.98893 -1.93547, 1.56271  C-2.31372, 1.09728 -2.51314, 0.49137 -2.48526, -0.107739  C-2.46142, -0.699647 -2.21631, -1.27909 -1.80815, -1.70842  C-1.45762, -2.08091 -0.989249, -2.34013 -0.487483, -2.43936  C-0.00132469, -2.53744 0.513723, -2.4849 0.970056, -2.29066  C1.42576, -2.09865 1.82093, -1.76673 2.08874, -1.35103  C2.34805, -0.95155 2.48837, -0.476264 2.48759, -1.77636e-15 " /><path d="M4.76236, 2.74955 C5.2659, 1.87739 5.76914, 1.00575 6.34981, 4.93383e-13 " /><path d="M3.11204e-08, 5.4991 C1.00709, 5.4991 2.01357, 5.4991 3.17491, 5.4991 " /><path d="M3.17491, 5.4991 C3.75558, 4.49335 4.25882, 3.62171 4.76236, 2.74955 " /><path d="M-4.76236, 2.74955 C-4.25882, 3.62171 -3.75558, 4.49335 -3.17491, 5.4991 " /><path d="M-3.17491, 5.4991 C-2.01357, 5.4991 -1.00709, 5.4991 3.11204e-08, 5.4991 " /><path d="M-4.76236, -2.74955 C-5.2659, -1.87739 -5.76914, -1.00575 -6.34981, -4.92014e-13 " /><path d="M-6.34981, 4.96048e-13 C-5.76914, 1.00575 -5.2659, 1.87739 -4.76236, 2.74955 " /><path d="M-3.17491, -5.4991 C-3.75558, -4.49335 -4.25882, -3.62171 -4.76236, -2.74955 " /><path d="M-6.55476e-13, -5.4991 C-1.00709, -5.4991 -2.01357, -5.4991 -3.17491, -5.4991 " /><path d="M3.17491, -5.4991 C2.01357, -5.4991 1.00709, -5.4991 -6.55254e-13, -5.4991 " /><path d="M4.76236, -2.74955 C4.25882, -3.62171 3.75558, -4.49335 3.17491, -5.4991 " /><path d="M6.34981, -4.93383e-13 C5.76914, -1.00575 5.2659, -1.87739 4.76236, -2.74955 " /><path d="M2.48759, 6.00607e-07 L2.48406, 0.132525 " /><path d="M2.46579, 0.328612 L2.46474, 0.336416 " /><path d="M2.44672, 0.4491 C2.38954, 0.761499 2.27168, 1.06264 2.10164, 1.33088 " /><path d="M2.0659, 1.3857 L2.02637, 1.44289 " /><path d="M1.93121, 1.56798 L1.92072, 1.5808 " /><path d="M1.73511, 1.78256 L1.72065, 1.79652 " /><path d="M1.46022, 2.01392 Q1.2745, 2.14852 1.06734, 2.24698 " /><path d="M0.616928, 2.40988 C0.226406, 2.51027 -0.188567, 2.51339 -0.580556, 2.4189  C-1.11042, 2.29308 -1.59502, 1.98674 -1.93598, 1.56208  C-2.31408, 1.09652 -2.5133, 0.49055 -2.48522, -0.10855  C-2.46118, -0.700893 -2.21552, -1.28067 -1.80668, -1.70998  C-1.45526, -2.08278 -0.985682, -2.34183 -0.482897, -2.44027  C-0.0540092, -2.52571 0.397229, -2.49486 0.810504, -2.35185 " /><path d="M0.997765, -2.27872 C1.44013, -2.08592 1.82338, -1.76077 2.08569, -1.35574  C2.34693, -0.95528 2.48838, -0.478139 2.48759, -1.88738e-15 " /><path d="M2.48759, 4.00403e-07 L2.48406, 0.132524 " /><path d="M2.46579, 0.328613 L2.46474, 0.336416 " /><path d="M2.44672, 0.449101 C2.38954, 0.7615 2.27168, 1.06264 2.10164, 1.33088 " /><path d="M1.93121, 1.56798 C1.62257, 1.9495 1.19813, 2.23557 0.728664, 2.37848  C0.306049, 2.50856 -0.151405, 2.52262 -0.581211, 2.41874  C-1.10467, 2.29425 -1.58398, 1.9937 -1.92405, 1.57675  C-2.30979, 1.10919 -2.51369, 0.496781 -2.48522, -0.108685  C-2.46114, -0.701098 -2.21539, -1.28093 -1.80644, -1.71023  C-1.45358, -2.08447 -0.981615, -2.344 -0.476572, -2.44151  C-0.00807563, -2.53376 0.486621, -2.48661 0.929255, -2.30751 " /><path d="M1.16703, -2.19685 C1.53963, -1.99946 1.86019, -1.70528 2.08878, -1.35097  C2.34807, -0.951503 2.48837, -0.476241 2.48759, -8.88178e-16 " /><circle cx ="0" cy ="0" r ="7.4168" /><path d="M2.34818, 0.821076 Q2.31754, 0.90871 2.28045, 0.993818 " /><path d="M2.14857, 1.25371 L2.14855, 1.25374 " /><path d="M1.99765, 1.4824 C1.70855, 1.8734 1.30181, 2.1758 0.844082, 2.34001 " /><path d="M0.617667, 2.40969 L0.551581, 2.42567 " /><path d="M-0.412181, 2.45321 C-1.00007, 2.35632 -1.54792, 2.03872 -1.92412, 1.57667  C-2.31034, 1.10849 -2.51422, 0.49509 -2.48511, -0.111133  C-2.46201, -0.657408 -2.25157, -1.19337 -1.89681, -1.60942  C-1.53564, -2.03734 -1.02556, -2.33606 -0.475649, -2.44169  C0.00829624, -2.53688 0.520098, -2.483 0.973618, -2.28914  C1.42959, -2.09619 1.82466, -1.76306 2.09184, -1.34622  C2.30596, -1.01419 2.43898, -0.630435 2.47627, -0.237116 " /></g>

</svg>
