<svg xmlns="http://www.w3.org/2000/svg" viewBox="-1.39321812 -1.65539812 11.36972724 7.74674724">
<rect width="100%" height="100%" fill="white"/>
<g   fill="none"
   stroke="rgb(0, 0, 0)"
   stroke-linecap="butt"
   stroke-linejoin="miter"
   stroke-width="0.35"
   transform="scale(1, -1)"
  >
<path id= "1" d=" M -0.609099 -0.687567 L -0.45 -0.779423 " />
<path id= "2" d=" M 0.290901 0.871279 L 0.45 0.779423 " />
<path id= "3" d=" M 0.164711 -0.614711 L 8.09315 -5.1922 " />
<path id= "4" d=" M 0.614711 0.164711 L 8.54315 -4.41277 " />
<path id= "5" d=" M 9.19239 -5.30723 L 8.59347 -4.45933 " />
<path id= "6" d=" M 9.19239 -5.30723 L 8.15863 -5.2125 " />
</g>
<g   fill="none"
   stroke="rgb(0, 0, 0)"
   stroke-linecap="butt"
   stroke-linejoin="miter"
   stroke-width="0.35"
   transform="scale(1, -1)"
  >
<path d="M0.477297 0.459279 A0.9 0.519615 60 0 1 0.290901 0.871279" />
<path d="M0.290901 0.871279 A0.9 0.519615 60 0 1 -0.609099 -0.687567" />
<path d="M-0.609099 -0.687567 A0.9 0.519615 60 0 1 0.477297 0.459279" />
<path d="M0.636396 0.367423 A0.9 0.519615 60 0 1 0.45 0.779423" />
<path d="M-0.45 -0.779423 A0.9 0.519615 60 0 1 0.636396 0.367423" />
<path d="M8.63634 -4.61877 A0.45 0.259808 60 0 1 8.59347 -4.45933" />
<path d="M8.59347 -4.45933 A0.45 0.259808 60 0 1 8.54315 -4.41277" />
<path d="M8.09315 -5.1922 A0.45 0.259808 60 0 1 8.15863 -5.2125" />
<path d="M8.15863 -5.2125 A0.45 0.259808 60 0 1 8.63634 -4.61877" />
</g>

</svg>
