<svg xmlns="http://www.w3.org/2000/svg" viewBox="-1.2830000000000001 -1.9580000000000002 15.341 3.9160000000000004">
<rect width="100%" height="100%" fill="white"/>
<g   fill="none"
   stroke="rgb(0, 0, 0)"
   stroke-linecap="butt"
   stroke-linejoin="miter"
   stroke-width="0.35"
   transform="scale(1, -1)"
  >
<path id= "1" d=" M -0.225 -0.9 L 0 -0.9 " />
<path d="M0.09, -0.45 C0.0427431, -0.448593 -0.00106968, -0.491075 0, -0.54 " /><path id= "3" d=" M 0.09 -0.45 L 11.7636 -0.45 " />
<path id= "4" d=" M 13 -1.46164e-12 L 11.7636 0.45 " />
<path id= "5" d=" M 13 1.46164e-12 L 11.7636 -0.45 " />
</g>
<g   fill="none"
   stroke="rgb(0, 0, 0)"
   stroke-linecap="butt"
   stroke-linejoin="miter"
   stroke-width="0.35"
   transform="scale(1, -1)"
  >
<path d="M-0.225, -0.9 L-0.225, -0.877435  L-0.225, -0.810872  L-0.225, -0.703648  L-0.225, -0.561141  L-0.225, -0.390495  L-0.225, -0.200269  L-0.225, -1.66533e-16  L-0.225, 0.200269  L-0.225, 0.390495  L-0.225, 0.561141  L-0.225, 0.703648  L-0.225, 0.810872  L-0.225, 0.877435  L-0.225, 0.9 " /><path id= "2" d=" M -0.225 0.9 L 0 0.9 " />
<path d="M0, -0.9 L0, -0.877435  L0, -0.810872  L0, -0.703648  L0, -0.561141  L0, -0.390495  L0, -0.200269  L0, -1.66533e-16  L0, 0.200269  L0, 0.390495  L0, 0.561141  L0, 0.703648  L0, 0.810872  L0, 0.877435  L0, 0.9 " /><path d="M0 0.54 A0.09 0.09 0 0 1 0.09 0.45" /><path id= "5" d=" M 0.09 0.45 L 11.7636 0.45 " />
<path d="M11.7636, -0.45 Q11.7636, -0.444359 11.7636, -0.438718  Q11.7636, -0.422077 11.7636, -0.405436  Q11.7636, -0.37863 11.7636, -0.351824  Q11.7636, -0.316197 11.7636, -0.28057  Q11.7636, -0.237909 11.7636, -0.195248  Q11.7636, -0.101542 11.7636, -8.32667e-17  Q11.7636, 0.0500672 11.7636, 0.100134  Q11.7636, 0.147691 11.7636, 0.195248  Q11.7636, 0.237909 11.7636, 0.28057  Q11.7636, 0.316197 11.7636, 0.351824  Q11.7636, 0.37863 11.7636, 0.405436  Q11.7636, 0.422077 11.7636, 0.438718  Q11.7636, 0.444359 11.7636, 0.45 " /><path id= "7" d=" M 11.7636 0.45 L 13 -2.08805e-12 " />
</g>

</svg>
