<svg xmlns="http://www.w3.org/2000/svg" viewBox="-3.673202 -4.987882 19.134953999999997 14.472503999999999">
<rect width="100%" height="100%" fill="white"/>
<g   fill="none"
   stroke="rgb(0, 0, 0)"
   stroke-linecap="butt"
   stroke-linejoin="miter"
   stroke-width="0.35"
   transform="scale(1, -1)"
  >
<path id= "1" d=" M -2.35355 -3.25998 L -2 -3.4641 " />
<path id= "2" d=" M 1.64645 3.66823 L 2 3.4641 " />
<path id= "3" d=" M 1.27484 -2.1794 L 11.0887 -7.84543 " />
<path id= "4" d=" M 2.52484 -0.0143388 L 12.3387 -5.68037 " />
<path id= "5" d=" M 14.1421 -8.16497 L 12.4785 -5.8097 " />
<path id= "6" d=" M 14.1421 -8.16497 L 11.2706 -7.90183 " />
</g>
<g   fill="none"
   stroke="rgb(0, 0, 0)"
   stroke-linecap="butt"
   stroke-linejoin="miter"
   stroke-width="0.35"
   transform="scale(1, -1)"
  >
<path d="M2.47487 1.83712 A4 2.3094 60 0 1 1.64645 3.66823" />
<path d="M1.64645 3.66823 A4 2.3094 60 0 1 -2.35355 -3.25998" />
<path d="M-2.35355 -3.25998 A4 2.3094 60 0 1 2.47487 1.83712" />
<path d="M2.82843 1.63299 A4 2.3094 60 0 1 2 3.4641" />
<path d="M-2 -3.4641 A4 2.3094 60 0 1 2.82843 1.63299" />
<path d="M12.5976 -6.25259 A1.25 0.721688 60 0 1 12.4785 -5.8097" />
<path d="M12.4785 -5.8097 A1.25 0.721688 60 0 1 12.3387 -5.68037" />
<path d="M11.0887 -7.84543 A1.25 0.721688 60 0 1 11.2706 -7.90183" />
<path d="M11.2706 -7.90183 A1.25 0.721688 60 0 1 12.5976 -6.25259" />
</g>

</svg>
