<svg xmlns="http://www.w3.org/2000/svg" viewBox="-9.486042 -14.050412 18.123554 27.731423999999997">
<rect width="100%" height="100%" fill="white"/>
<g   fill="none"
   stroke="rgb(0, 0, 0)"
   stroke-linecap="butt"
   stroke-linejoin="miter"
   stroke-width="0.35"
   transform="scale(1, -1)"
  >
<path id= "1" d=" M -7.57353 -11.1581 L -6.725 -11.648 " />
<path id= "2" d=" M 5.87647 12.1379 L 6.725 11.648 " />
</g>
<g   fill="none"
   stroke="rgb(0, 0, 0)"
   stroke-linecap="butt"
   stroke-linejoin="miter"
   stroke-width="0.35"
   transform="scale(1, -1)"
  >
<path id= "1" d=" M 3.1321 -4.54161 L 3.18606 -4.61986 " />
<path id= "2" d=" M 3.1321 -4.54161 L 2.28357 -4.05171 " />
<path id= "3" d=" M 2.28357 -4.05171 L 2.46846 -4.31981 " />
<path d="M2.46846 -4.31981 A2 1.1547 60 0 1 2.69733 -4.53418" />
<path d="M2.69733 -4.53418 A2 1.1547 60 0 1 4.67598 -3.41593" />
<path d="M0.250423 -6.07225 A8.95 5.16728 60 0 1 2.28357 -4.05171" />
<path id= "7" d=" M 1.6515 -9.86155 L 0.802968 -9.37165 " />
<path id= "8" d=" M 0.802968 -9.37165 L 0.250423 -6.07225 " />
<path d="M5.20477 9.55381 A11.29 6.51828 60 0 1 -2.01972e-15 8.77734" />
<path d="M-6.15204 -9.86753 A11.29 6.51828 -120 0 0 -6.319e-16 8.77734" />
<path id= "11" d=" M -1.6515 -11.7685 L -1.09895 -7.8311 " />
<path d="M-6.725 -11.648 A13.45 7.76536 60 0 1 -1.6515 -11.7685" />
<path d="M6.725 11.648 A13.45 7.76536 -120 0 0 1.6515 -9.86155" />
<path d="M2.52713 -6.34796 A1 0.57735 60 0 1 1.99798 -7.26447" />
<path d="M-3.37566 -10.3669 A1 0.57735 -120 0 0 -2.84651 -9.45043" />
<path id= "16" d=" M -3.98063 -7.66835 L -4.16551 -8.14993 " />
<path d="M-4.16551 -8.14993 A2 1.1547 -120 0 0 -6.37304 -9.79509" />
<path id= "18" d=" M -1.09895 -7.8311 L -1.94748 -7.34121 " />
<path d="M-1.94748 -7.34121 A8.95 5.16728 -120 0 0 -3.98063 -7.66835" />
<path id= "20" d=" M -1.6515 -11.7685 L -2.50002 -11.2786 " />
<path id= "21" d=" M -2.50002 -11.2786 L -1.94748 -7.34121 " />
<path d="M2.5454 -6.15302 A1 0.57735 60 0 1 2.33829 -5.69524" />
<path d="M2.33829 -5.69524 A1 0.57735 60 0 1 1.33829 -7.42729" />
<path d="M1.33829 -7.42729 A1 0.57735 60 0 1 2.5454 -6.15302" />
<path d="M-4.24246 -10.072 A1 0.57735 -120 0 0 -3.03535 -8.79772" />
<path d="M-3.03535 -8.79772 A1 0.57735 -120 0 0 -4.03535 -10.5298" />
<path d="M-4.03535 -10.5298 A1 0.57735 -120 0 0 -4.24246 -10.072" />
<path d="M-0.848528 11.4718 A13.45 7.76536 -120 0 0 5.87647 12.1379" />
<path d="M5.87647 12.1379 A13.45 7.76536 -120 0 0 0.802968 -9.37165" />
<path d="M-0.848528 11.4718 A13.45 7.76536 60 0 1 -7.57353 -11.1581" />
<path d="M-7.57353 -11.1581 A13.45 7.76536 60 0 1 -2.50002 -11.2786" />
<path d="M-6.37304 -9.79509 A11.29 6.51828 -120 0 0 -6.49353 -9.72844" />
<path d="M-6.49353 -9.72844 A11.29 6.51828 -120 0 0 -0.848528 9.26724" />
<path d="M4.67598 -3.41593 A11.29 6.51828 60 0 1 4.79647 9.82642" />
<path d="M4.79647 9.82642 A11.29 6.51828 60 0 1 -0.848528 9.26724" />
</g>

</svg>
