<svg xmlns="http://www.w3.org/2000/svg" viewBox="-3.3520000000000003 -15.602 5.5040000000000004 31.204">
<rect width="100%" height="100%" fill="white"/>
<g   fill="none"
   stroke="rgb(0, 0, 0)"
   stroke-linecap="butt"
   stroke-linejoin="miter"
   stroke-width="0.35"
   transform="scale(1, -1)"
  >
<path id= "1" d=" M -1.2 -13.45 L 0 -13.45 " />
<path id= "2" d=" M -1.2 13.45 L 0 13.45 " />
</g>
<g   fill="none"
   stroke="rgb(0, 0, 0)"
   stroke-linecap="butt"
   stroke-linejoin="miter"
   stroke-width="0.35"
   transform="scale(1, -1)"
  >
<path id= "1" d=" M 0 1.55415 L -1.2 1.55415 " />
<path id= "2" d=" M 0 2.33557 L -1.2 2.33557 " />
<path id= "3" d=" M -1.2 2.33557 L -1.2 1.55415 " />
<path id= "4" d=" M 0 2.33557 L 0 1.55415 " />
<path d="M0, 1.55415 Q0, 0.780771 0, 2.10942e-15 " /><path d="M0, -1.55415 Q0, -0.780771 0, -2.10942e-15 " /><path id= "7" d=" M 0 -2.33557 L 0 -1.55415 " />
<path d="M0, -13.45 L0, -13.3832  L0, -13.1833  L0, -12.8525  L0, -12.3939  L0, -11.8121  L0, -11.1129  L0, -10.3033  L0, -9.39129  L0, -8.38594  L0, -7.29725  L0, -6.13603  L0, -4.91384  L0, -3.6428  L0, -2.33557 " /><path d="M0, 13.45 L0, 13.3832  L0, 13.1833  L0, 12.8525  L0, 12.3939  L0, 11.8121  L0, 11.1129  L0, 10.3033  L0, 9.39129  L0, 8.38594  L0, 7.29725  L0, 6.13603  L0, 4.91384  L0, 3.6428  L0, 2.33557 " /><path id= "10" d=" M 0 -1.55415 L -1.2 -1.55415 " />
<path id= "11" d=" M 0 -2.33557 L -1.2 -2.33557 " />
<path id= "12" d=" M -1.2 -2.33557 L -1.2 -1.55415 " />
<path d="M-1.2, 13.45 L-1.2, 13.3832  L-1.2, 13.1833  L-1.2, 12.8525  L-1.2, 12.3939  L-1.2, 11.8121  L-1.2, 11.1129  L-1.2, 10.3033  L-1.2, 9.39129  L-1.2, 8.38594  L-1.2, 7.29725  L-1.2, 6.13603  L-1.2, 4.91384  L-1.2, 3.6428  L-1.2, 2.33557 " /><path d="M-1.2, -13.45 L-1.2, -13.3832  L-1.2, -13.1833  L-1.2, -12.8525  L-1.2, -12.3939  L-1.2, -11.8121  L-1.2, -11.1129  L-1.2, -10.3033  L-1.2, -9.39129  L-1.2, -8.38594  L-1.2, -7.29725  L-1.2, -6.13603  L-1.2, -4.91384  L-1.2, -3.6428  L-1.2, -2.33557 " /><path d="M-1.2, -1.55415 Q-1.2, -0.780771 -1.2, -2.10942e-15 " /><path d="M-1.2, 1.55415 Q-1.2, 0.780771 -1.2, 2.10942e-15 " /></g>

</svg>
