<svg xmlns="http://www.w3.org/2000/svg" viewBox="-9.948495999999999 -15.585656 19.896991999999997 30.967011999999997">
<rect width="100%" height="100%" fill="white"/>
<g   fill="none"
   stroke="rgb(0, 0, 0)"
   stroke-linecap="butt"
   stroke-linejoin="miter"
   stroke-width="0.35"
   transform="scale(1, -1)"
  >
<path id= "1" d=" M 4.42946 -7.77704 L 4.69093 -8.23612 " />
<path d="M4.69093 -8.23612 A2 2 0 0 1 7.81284 -8.69007" /><path d="M1.55415 -8.81403 A8.95 8.95 0 0 1 4.42946 -7.77704" /><path id= "4" d=" M 2.33557 -13.2457 L 1.55415 -8.81403 " />
<path id= "5" d=" M -4.42946 -7.77704 L -4.69093 -8.23612 " />
<path d="M-4.69093 -8.23612 A2 2 0 0 0 -7.81284 -8.69007" /><path d="M-1.55415 -8.81403 A8.95 8.95 0 0 0 -4.42946 -7.77704" /><path id= "8" d=" M -2.33557 -13.2457 L -1.55415 -8.81403 " />
<circle cx ="3.79974" cy ="-10.5357" r ="1" /><circle cx ="-3.79974" cy ="-10.5357" r ="1" /><path d="M-2.95823e-29 13.45 A13.45 13.45 0 0 0 2.33557 -13.2457" /><path d="M2.95823e-29 13.45 A13.45 13.45 0 0 1 -2.33557 -13.2457" /><path d="M-7.81284 -8.69007 A11.29 11.29 0 0 0 -2.05444e-15 10.75" /><path d="M7.81284 -8.69007 A11.29 11.29 0 0 1 2.05444e-15 10.75" /></g>

</svg>
