<svg xmlns="http://www.w3.org/2000/svg" viewBox="-10.7747816 -10.1906516 17.0363732 18.1087832">
<rect width="100%" height="100%" fill="white"/>
<g   fill="none"
   stroke="rgb(0, 0, 0)"
   stroke-linecap="butt"
   stroke-linejoin="miter"
   stroke-width="0.35"
   transform="scale(1, -1)"
  >
<path id= "1" d=" M -9.5259 -0.664079 L -9.1172 -1.67105 " />
<path id= "2" d=" M -4.18784 8.58171 L -2.57054 8.8064 " />
</g>
<g   fill="none"
   stroke="rgb(0, 0, 0)"
   stroke-linecap="butt"
   stroke-linejoin="miter"
   stroke-width="0.35"
   transform="scale(1, -1)"
  >
<path d="M3.98042, 4.95171 C3.55863, 5.55099 3.04465, 6.20328 2.35909, 7.00933 " /><path d="M5.01271, 3.23417 C4.72761, 3.80902 4.40036, 4.3535 3.98042, 4.95171 " /><path id= "3" d=" M 5.01271 3.23417 L 1.66563 5.16661 " />
<path d="M-0.987986, 8.94177 L-1.11488, 8.84228  L-1.19434, 8.72126  L-1.22686, 8.57795  L-1.21265, 8.41148  L-1.15161, 8.22082  L-1.04337, 8.00479  L-0.887265, 7.76207  L-0.682328, 7.49115  L-0.427298, 7.19038  L-0.120605, 6.85789  L0.239641, 6.49163  L0.65566, 6.08936  L1.13001, 5.64859  L1.66563, 5.16661 " /><path id= "5" d=" M 2.35909 7.00933 L -0.987986 8.94177 " />
<path d="M-2.57053, 8.8064 Q-1.86603, 8.90418 -0.987986, 8.94177 " /><path d="M1.66563, 5.16661 L1.13001, 4.83114  L0.65566, 4.48213  L0.239641, 4.11741  L-0.120605, 3.73475  L-0.427298, 3.33178  L-0.682328, 2.90602  L-0.887265, 2.45484  L-1.04337, 1.97548  L-1.15161, 1.46497  L-1.21265, 0.920168  L-1.22686, 0.33772  L-1.19434, -0.285963  L-1.11488, -0.954725  L-0.987986, -1.67268 " /><path d="M-1.51832 5.65537 A5.85278 3.3791 60 0 1 -4.18784 8.58171" />
<path d="M-4.18784 8.58171 A5.85278 3.3791 60 0 1 -9.5259 -0.664079" />
<path d="M-9.5259 -0.664079 A5.85278 3.3791 60 0 1 -1.51832 5.65537" />
<path d="M-6.29521, -4.73681 L-6.64888, -4.42015  L-6.97644, -4.12115  L-7.27875, -3.83905  L-7.55659, -3.57313  L-7.81066, -3.32269  L-8.04163, -3.08709  L-8.25009, -2.86573  L-8.43658, -2.65803  L-8.60158, -2.46345  L-8.74551, -2.2815  L-8.86875, -2.11171  L-8.97161, -1.95364  L-9.05435, -1.80687  L-9.1172, -1.67105 " /><path d="M-0.987986, -1.67268 L-1.72796, -1.71741  L-2.39976, -1.78553  L-3.00753, -1.87746  L-3.555, -1.99376  L-4.04556, -2.13516  L-4.48223, -2.30252  L-4.86769, -2.49687  L-5.20432, -2.71941  L-5.49419, -2.97152  L-5.73909, -3.25475  L-5.94054, -3.57083  L-6.09976, -3.92172  L-6.21774, -4.30959  L-6.29521, -4.73681 " /><path d="M3.98042, -0.355517 C4.40036, 0.729738 4.72761, 1.86771 5.01271, 3.23417 " /><path d="M2.35909, -3.60512 C3.04465, -2.46986 3.55863, -1.4397 3.98042, -0.355517 " /><path id= "15" d=" M 2.35909 -3.60512 L -0.987986 -1.67268 " />
<path d="M-4.94715e-13, -5.30723 C0.840806, -4.82072 1.58866, -4.28113 2.35909, -3.60512 " /><path d="M-2.94813, -6.66925 C-1.77725, -6.22444 -0.842659, -5.79267 -4.94271e-13, -5.30723 " /><path id= "18" d=" M -2.94813 -6.66925 L -6.29521 -4.73681 " />
<g transform = "rotate(60, -5.65685, 3.26599)">
<ellipse cx ="-5.65685" cy ="3.26599" rx ="4.2"  ry ="2.42487"/>
</g>
<path d="M-3.02563, 4.642 C-3.04016, 4.1856 -3.14429, 3.68381 -3.32767, 3.18848 " /><path d="M-3.02563, 4.642 C-3.00584, 5.22567 -3.13363, 5.7325 -3.38746, 6.08402  C-3.65338, 6.45636 -4.05791, 6.65476 -4.53258, 6.64974  C-5.0316, 6.64709 -5.60583, 6.41911 -6.15499, 6.0102  C-6.74668, 5.57248 -7.30581, 4.92761 -7.72779, 4.20309 " /><path d="M-8.44296, 1.43087 C-8.4485, 1.45794 -8.45321, 1.49185 -8.45708, 1.53261  C-8.46903, 1.65882 -8.46941, 1.82349 -8.45575, 1.99644  C-8.43195, 2.30457 -8.36488, 2.64848 -8.25861, 2.99322  C-8.14329, 3.36971 -7.9789, 3.75288 -7.7905, 4.09279 " /><path d="M-7.7905, 4.09279 L-7.72779, 4.20309 " /><path d="M-6.60747, 0.0275239 C-7.03379, -0.0457199 -7.42459, 0.030455 -7.73346, 0.242397  C-8.08823, 0.48358 -8.33444, 0.901816 -8.44296, 1.43087 " /><path d="M-6.60747 0.0275239 A3.45873 1.9969 60 0 1 -3.32767 3.18848" />
<path d="M-3.31075, 5.90066 C-3.57326, 6.02638 -3.88243, 6.06556 -4.21416, 6.01571  C-4.64838, 5.95149 -5.1208, 5.73303 -5.56886, 5.39214  C-6.09041, 4.99735 -6.57638, 4.43735 -6.94142, 3.81795  C-7.38382, 3.07278 -7.64421, 2.2473 -7.6619, 1.56153  C-7.68269, 0.90491 -7.48349, 0.382025 -7.11846, 0.122013 " /><path d="M-3.252, 5.85791 Q-3.32154, 5.91149 -3.39714, 5.95514 " /><path d="M-3.39714, 5.95514 C-3.6971, 6.12899 -4.06727, 6.18048 -4.467, 6.10492  C-4.88063, 6.02781 -5.32505, 5.81447 -5.74768, 5.49263  C-6.28888, 5.08261 -6.79135, 4.49445 -7.16045, 3.84732  C-7.58192, 3.11391 -7.82629, 2.31067 -7.8392, 1.64299  C-7.85705, 0.945512 -7.62353, 0.40383 -7.20943, 0.168561 " /><path d="M-7.20943, 0.168561 Q-6.94562, 0.0169589 -6.60747, 0.0275239 " /><path d="M-3.15597, 5.62669 C-3.67783, 5.65267 -4.28939, 5.42027 -4.86171, 4.98392  C-5.38323, 4.58917 -5.86918, 4.02922 -6.23421, 3.40987  C-6.67658, 2.66481 -6.937, 1.83944 -6.95478, 1.15371  C-6.96836, 0.7014 -6.87971, 0.310185 -6.70151, 0.0276863 " /><path d="M-3.18873, 5.71555 C-3.74076, 5.79519 -4.41408, 5.56324 -5.04059, 5.08437  C-5.58184, 4.67431 -6.08434, 4.08609 -6.45344, 3.43889  C-6.87491, 2.70545 -7.11924, 1.90218 -7.1321, 1.23451  C-7.14372, 0.739523 -7.0314, 0.319954 -6.81397, 0.0370129 " /><path d="M-3.04742, 5.14704 C-3.41015, 5.04929 -3.79042, 4.85248 -4.15456, 4.57571  C-4.67604, 4.181 -5.16196, 3.62111 -5.52699, 3.00181  C-5.96932, 2.25689 -6.22977, 1.43166 -6.24766, 0.745971  C-6.25456, 0.503981 -6.23351, 0.282838 -6.1845, 0.0825417 " /><path d="M-3.06851, 5.28542 C-3.47767, 5.20593 -3.91622, 4.99387 -4.33351, 4.67611  C-4.8748, 4.26602 -5.37733, 3.67772 -5.74644, 3.03047  C-6.04444, 2.5104 -6.25613, 1.95482 -6.3564, 1.43781  C-6.45922, 0.912786 -6.44696, 0.428926 -6.32388, 0.0530195 " /><path d="M-3.18174, 3.64407 C-3.62014, 3.25724 -4.01999, 2.75911 -4.3283, 2.22083  C-4.59289, 1.76026 -4.79031, 1.27153 -4.90191, 0.806231 " /><path d="M-3.30342, 3.25541 C-3.88932, 2.64868 -4.36753, 1.85055 -4.61954, 1.0754 " /><path d="M-3.03758, 4.44133 C-3.70721, 4.05678 -4.35983, 3.37551 -4.8188, 2.59541  C-5.2597, 1.85344 -5.5203, 1.03157 -5.54026, 0.347217 " /><path d="M-3.02554, 4.64495 C-3.78059, 4.27423 -4.53671, 3.50778 -5.03943, 2.62205  C-5.49633, 1.82769 -5.74321, 0.952116 -5.71705, 0.254532 " /></g>

</svg>
