<svg xmlns="http://www.w3.org/2000/svg" viewBox="-8.706438 -7.700888 17.412876 15.401776">
<rect width="100%" height="100%" fill="white"/>
<g   fill="none"
   stroke="rgb(0, 0, 0)"
   stroke-linecap="butt"
   stroke-linejoin="miter"
   stroke-width="0.35"
   transform="scale(1, -1)"
  >
<path d="M3.75278, 6.5 Q3.89728, 6.24971 4.04179, 5.99942  Q4.1814, 5.7576 4.32102, 5.51578  Q4.4566, 5.28093 4.59219, 5.04609  Q4.72458, 4.81678 4.85697, 4.58748  Q4.98699, 4.36229 5.117, 4.1371  Q5.37431, 3.69142 5.62917, 3.25  Q5.88402, 2.80858 6.14133, 2.3629  Q6.27134, 2.13771 6.40136, 1.91252  Q6.53375, 1.68322 6.66614, 1.45391  Q6.80173, 1.21907 6.93731, 0.984224  Q7.07693, 0.742403 7.21654, 0.500582  Q7.36105, 0.250291 7.50555, 5.68878e-13 " /><path d="M-3.75278, 6.5 Q-3.46377, 6.5 -3.17475, 6.5  Q-2.89552, 6.5 -2.61629, 6.5  Q-2.34512, 6.5 -2.07395, 6.5  Q-1.80917, 6.5 -1.54438, 6.5  Q-1.28436, 6.5 -1.02433, 6.5  Q-0.509712, 6.5 -2.47469e-13, 6.5  Q0.255297, 6.5 0.510594, 6.5  Q1.02256, 6.5 1.54438, 6.5  Q1.80917, 6.5 2.07395, 6.5  Q2.34512, 6.5 2.61629, 6.5  Q2.89552, 6.5 3.17475, 6.5  Q3.46377, 6.5 3.75278, 6.5 " /><path d="M7.50555, -5.71543e-13 Q7.36105, -0.250291 7.21654, -0.500582  Q7.07693, -0.742403 6.93731, -0.984224  Q6.80173, -1.21907 6.66614, -1.45391  Q6.53375, -1.68322 6.40136, -1.91252  Q6.27134, -2.13771 6.14133, -2.3629  Q5.88402, -2.80858 5.62917, -3.25  Q5.37431, -3.69142 5.117, -4.1371  Q4.98699, -4.36229 4.85697, -4.58748  Q4.72458, -4.81678 4.59219, -5.04609  Q4.4566, -5.28093 4.32102, -5.51578  Q4.1814, -5.7576 4.04179, -5.99942  Q3.89728, -6.24971 3.75278, -6.5 " /><circle cx ="0" cy ="0" r ="5.85278" /><path d="M-7.50555, 7.18536e-13 Q-7.36105, 0.250291 -7.21654, 0.500582  Q-7.07693, 0.742403 -6.93731, 0.984224  Q-6.80173, 1.21907 -6.66614, 1.45391  Q-6.53375, 1.68322 -6.40136, 1.91252  Q-6.27134, 2.13771 -6.14133, 2.3629  Q-5.88402, 2.80858 -5.62917, 3.25  Q-5.37431, 3.69142 -5.117, 4.1371  Q-4.98699, 4.36229 -4.85697, 4.58748  Q-4.72458, 4.81678 -4.59219, 5.04609  Q-4.4566, 5.28093 -4.32102, 5.51578  Q-4.1814, 5.7576 -4.04179, 5.99942  Q-3.89728, 6.24971 -3.75278, 6.5 " /><path d="M-3.75278, -6.5 Q-3.89728, -6.24971 -4.04179, -5.99942  Q-4.1814, -5.7576 -4.32102, -5.51578  Q-4.4566, -5.28093 -4.59219, -5.04609  Q-4.72458, -4.81678 -4.85697, -4.58748  Q-4.98699, -4.36229 -5.117, -4.1371  Q-5.37431, -3.69142 -5.62917, -3.25  Q-5.88402, -2.80858 -6.14133, -2.3629  Q-6.27134, -2.13771 -6.40136, -1.91252  Q-6.53375, -1.68322 -6.66614, -1.45391  Q-6.80173, -1.21907 -6.93731, -0.984224  Q-7.07693, -0.742403 -7.21654, -0.500582  Q-7.36105, -0.250291 -7.50555, -4.22773e-13 " /><path d="M3.75278, -6.5 Q3.46377, -6.5 3.17475, -6.5  Q2.89552, -6.5 2.61629, -6.5  Q2.34512, -6.5 2.07395, -6.5  Q1.80917, -6.5 1.54438, -6.5  Q1.28436, -6.5 1.02433, -6.5  Q0.509712, -6.5 -2.49911e-13, -6.5  Q-0.255297, -6.5 -0.510594, -6.5  Q-1.02256, -6.5 -1.54438, -6.5  Q-1.80917, -6.5 -2.07395, -6.5  Q-2.34512, -6.5 -2.61629, -6.5  Q-2.89552, -6.5 -3.17475, -6.5  Q-3.46377, -6.5 -3.75278, -6.5 " /><circle cx ="0" cy ="0" r ="4.2" /><path d="M3.54582, -8.88178e-16 C3.51758, -0.541005 3.36255, -1.07417 3.09534, -1.54329 " /><path d="M3.54582, 4.14381e-07 C3.58365, 0.691012 3.41261, 1.39242 3.06322, 1.99286  C2.69723, 2.62683 2.1351, 3.14591 1.47364, 3.46558  C0.778271, 3.80484 -0.0236039, 3.92146 -0.790161, 3.79889  C-1.61609, 3.67033 -2.39613, 3.2652 -2.98233, 2.66567 " /><path d="M-3.99374, -0.223884 C-4.00037, -0.188015 -4.00599, -0.144194 -4.01059, -0.0924192  C-4.02476, 0.0678768 -4.02383, 0.26836 -4.00353, 0.469536  C-3.98291, 0.678446 -3.94287, 0.888482 -3.88341, 1.09964 " /><path d="M-3.88341, 1.09964 C-3.77437, 1.48628 -3.59835, 1.86135 -3.37314, 2.18928  C-3.25199, 2.3653 -3.12172, 2.52409 -2.98233, 2.66567 " /><path d="M-1.54299, -3.09548 C-2.12193, -2.9077 -2.65137, -2.5613 -3.06558, -2.10593  C-3.54144, -1.58554 -3.8646, -0.924241 -3.99374, -0.223884 " /><path d="M-1.54299 -3.09548 A3.45873 3.45873 0 0 1 3.09534 -1.54329" /><path d="M3.45873, 4.93842e-07 C3.46138, 0.832728 3.14877, 1.66128 2.59669, 2.28474  C2.17629, 2.76395 1.62043, 3.12248 1.01049, 3.30783  C0.452395, 3.47901 -0.14926, 3.50512 -0.72009, 3.38294  C-1.45112, 3.22911 -2.12736, 2.82971 -2.61499, 2.26377  C-3.17207, 1.6246 -3.47868, 0.774638 -3.45796, -0.072938  C-3.44286, -0.92738 -3.09522, -1.77002 -2.50345, -2.38655  C-2.22759, -2.67613 -1.901, -2.91719 -1.54299, -3.09548 " /><path d="M3.45873, 1.23459e-07 C3.46138, 0.832728 3.14877, 1.66128 2.59669, 2.28474  C2.17628, 2.76397 1.62039, 3.1225 1.01043, 3.30785  C0.452296, 3.47903 -0.149395, 3.50512 -0.72025, 3.38291  C-1.46036, 3.22719 -2.14417, 2.81957 -2.63317, 2.24261 " /><path d="M3.45873, 4.32111e-07 C3.46138, 0.832728 3.14877, 1.66128 2.59669, 2.28474  C2.17629, 2.76395 1.62042, 3.12248 1.01048, 3.30783  C0.45238, 3.47901 -0.149282, 3.50512 -0.720116, 3.38294  C-1.4512, 3.22909 -2.12749, 2.82963 -2.61512, 2.26362  C-3.17219, 1.62438 -3.47875, 0.774365 -3.45796, -0.073242  C-3.44278, -0.927767 -3.09499, -1.77046 -2.50306, -2.38695  C-2.01089, -2.90517 -1.35394, -3.26352 -0.651775, -3.39677  C-0.0233563, -3.51831 0.638412, -3.45998 1.23588, -3.23039  C1.8318, -3.0034 2.36181, -2.60726 2.74825, -2.09999  C3.20671, -1.50295 3.46052, -0.75273 3.45873, -1.33227e-15 " /><path d="M3.45873, 0.000160432 C3.46134, 0.832835 3.14873, 1.66132 2.59669, 2.28474  C2.17629, 2.76395 1.62041, 3.12249 1.01047, 3.30784  C0.452363, 3.47902 -0.149304, 3.50512 -0.720142, 3.38293  C-1.45129, 3.22906 -2.12762, 2.82954 -2.61526, 2.26346  C-3.17231, 1.62417 -3.47882, 0.774086 -3.45795, -0.0735533  C-3.4427, -0.928135 -3.09478, -1.77085 -2.50273, -2.3873  C-2.00896, -2.90708 -1.34937, -3.26592 -0.644742, -3.39811  C-0.0212674, -3.51734 0.634654, -3.45967 1.22776, -3.23349  C1.82989, -3.00589 2.36522, -2.60569 2.7539, -2.09258  C3.20884, -1.49677 3.46049, -0.749612 3.45873, -8.88178e-16 " /><path d="M-2.53182, -2.35642 C-2.03833, -2.88892 -1.37268, -3.25829 -0.659692, -3.39524  C-0.0297027, -3.51862 0.634252, -3.46111 1.23364, -3.23125  C1.82973, -3.00467 2.36001, -2.60889 2.74679, -2.1019  C3.20616, -1.50454 3.46053, -0.753532 3.45873, 2.46919e-07 " /><path d="M3.45873, 0.00016037 C3.46134, 0.832835 3.14873, 1.66132 2.59669, 2.28474  C2.17628, 2.76396 1.62041, 3.12249 1.01046, 3.30784  C0.452348, 3.47902 -0.149325, 3.50512 -0.720167, 3.38293  C-1.45136, 3.22904 -2.12774, 2.82947 -2.61539, 2.26331  C-3.17243, 1.62396 -3.47889, 0.773827 -3.45795, -0.0738419  C-3.44262, -0.928474 -3.09459, -1.77121 -2.50242, -2.38762  C-2.01225, -2.90343 -1.35881, -3.26079 -0.660045, -3.39517  C-0.032858, -3.51806 0.628018, -3.4617 1.22534, -3.2344  C1.82689, -3.00754 2.36194, -2.60846 2.75088, -2.09654  C3.2077, -1.50007 3.46051, -0.75128 3.45873, -1.77636e-15 " /></g>

</svg>
