<svg xmlns="http://www.w3.org/2000/svg" viewBox="-10.6499264 -9.6332764 15.967302799999999 16.408582799999998">
<rect width="100%" height="100%" fill="white"/>
<g   fill="none"
   stroke="rgb(0, 0, 0)"
   stroke-linecap="butt"
   stroke-linejoin="miter"
   stroke-width="0.35"
   transform="scale(1, -1)"
  >
<path id= "1" d=" M -1.67 6.9767 L -4.3113 8.50165 " />
<path id= "2" d=" M -6.877 -2.04209 L -9.5183 -0.517134 " />
<path d="M-4.3113 8.50165 A5.207 5.207 0 0 1 -9.5183 -0.517134" /></g>
<g   fill="none"
   stroke="rgb(0, 0, 0)"
   stroke-linecap="butt"
   stroke-linejoin="miter"
   stroke-width="0.35"
   transform="scale(1, -1)"
  >
<path d="M4.18575, 2.82184 C4.00945, 3.27431 3.76115, 3.72159 3.40249, 4.23276 " /><path d="M3.40249, 4.23276 C3.04163, 4.74521 2.57085, 5.32094 1.91742, 6.04888 " /><path d="M-2.61924, -5.64368 C-1.55095, -5.30237 -0.720623, -4.95144 -2.46287e-09, -4.53666 " /><path d="M1.91742, -3.02444 C2.57085, -2.09293 3.04163, -1.23049 3.40249, -0.303899 " /><path d="M-2.46287e-09, -4.53666 C0.718416, -4.12061 1.32626, -3.64122 1.91742, -3.02444 " /><path d="M3.40249, -0.303899 C3.76115, 0.623966 4.00945, 1.61486 4.18575, 2.82184 " /><path id= "7" d=" M 4.18575 2.82184 L 0.756653 4.80163 " />
<path d="M-1.51168, 8.02867 L-1.43179, 7.83488  L-1.34227, 7.64052  L-1.24255, 7.4444  L-1.13202, 7.2453  L-1.01, 7.042  L-0.875748, 6.83324  L-0.728423, 6.61775  L-0.567124, 6.39418  L-0.390856, 6.16117  L-0.198532, 5.91728  L0.0110315, 5.661  L0.239126, 5.39076  L0.487157, 5.10489  L0.756653, 4.80163 " /><path id= "9" d=" M 1.91742 6.04888 L -1.51168 8.02867 " />
<path d="M-2.73577, 7.59202 Q-2.17946, 7.81583 -1.51168, 8.02867 " /><path d="M-6.04834, -3.66389 C-6.83291, -2.78954 -7.35638, -2.13307 -7.73789, -1.54505 " /><path id= "12" d=" M -2.61924 -5.64368 L -6.04834 -3.66389 " />
<path d="M-1.51168, -1.04465 L-1.95586, -1.19163  L-2.37267, -1.34076  L-2.76467, -1.49297  L-3.13428, -1.64918  L-3.48378, -1.81037  L-3.81531, -1.97752  L-4.13092, -2.15167  L-4.43255, -2.33389  L-4.72207, -2.5253  L-5.00126, -2.72708  L-5.27183, -2.94047  L-5.53546, -3.1668  L-5.79376, -3.40744  L-6.04834, -3.66389 " /><path id= "14" d=" M 1.91742 -3.02444 L -1.51168 -1.04465 " />
<path d="M0.756653, 4.80163 L0.487157, 4.40613  L0.239126, 4.01688  L0.0110315, 3.6315  L-0.198532, 3.24759  L-0.390856, 2.86281  L-0.567124, 2.47477  L-0.728423, 2.08109  L-0.875748, 1.67934  L-1.01, 1.26704  L-1.13202, 0.841667  L-1.24255, 0.400585  L-1.34227, -0.0589196  L-1.43179, -0.539678  L-1.51168, -1.04465 " /><path d="M-0.591594 4.59305 A5.207 3.00626 60 0 1 -1.67 6.9767" />
<path d="M-6.877 -2.04209 A5.207 3.00626 60 0 1 -0.591594 4.59305" />
</g>

</svg>
